// Created by Crowbar++ 0.74
version 1
nodes
  0 "ValveBiped.Bip01_Spine4" -1
  1 "ValveBiped.Bip01_L_Clavicle" 0
  2 "ValveBiped.Bip01_L_UpperArm" 1
  3 "ValveBiped.Bip01_L_Forearm" 2
  4 "ValveBiped.Bip01_L_Hand" 3
  5 "ValveBiped.Bip01_L_Finger4" 4
  6 "ValveBiped.Bip01_L_Finger41" 5
  7 "ValveBiped.Bip01_L_Finger42" 6
  8 "ValveBiped.Bip01_L_Finger3" 4
  9 "ValveBiped.Bip01_L_Finger31" 8
  10 "ValveBiped.Bip01_L_Finger32" 9
  11 "ValveBiped.Bip01_L_Finger2" 4
  12 "ValveBiped.Bip01_L_Finger21" 11
  13 "ValveBiped.Bip01_L_Finger22" 12
  14 "ValveBiped.Bip01_L_Finger1" 4
  15 "ValveBiped.Bip01_L_Finger11" 14
  16 "ValveBiped.Bip01_L_Finger12" 15
  17 "ValveBiped.Bip01_L_Finger0" 4
  18 "ValveBiped.Bip01_L_Finger01" 17
  19 "ValveBiped.Bip01_L_Finger02" 18
  20 "ValveBiped.Bip01_R_Clavicle" 0
  21 "ValveBiped.Bip01_R_UpperArm" 20
  22 "ValveBiped.Bip01_R_Forearm" 21
  23 "ValveBiped.Bip01_R_Hand" 22
  24 "ValveBiped.Bip01_R_Finger4" 23
  25 "ValveBiped.Bip01_R_Finger41" 24
  26 "ValveBiped.Bip01_R_Finger42" 25
  27 "ValveBiped.Bip01_R_Finger3" 23
  28 "ValveBiped.Bip01_R_Finger31" 27
  29 "ValveBiped.Bip01_R_Finger32" 28
  30 "ValveBiped.Bip01_R_Finger2" 23
  31 "ValveBiped.Bip01_R_Finger21" 30
  32 "ValveBiped.Bip01_R_Finger22" 31
  33 "ValveBiped.Bip01_R_Finger1" 23
  34 "ValveBiped.Bip01_R_Finger11" 33
  35 "ValveBiped.Bip01_R_Finger12" 34
  36 "ValveBiped.Bip01_R_Finger0" 23
  37 "ValveBiped.Bip01_R_Finger01" 36
  38 "ValveBiped.Bip01_R_Finger02" 37
  39 "root" -1
  40 "slide" 39
  41 "lever" 39
  42 "trigger" 39
  43 "slot" 39
  44 "attachment_muzzleflash" 39
  45 "ejaculator" 39
  46 "hammer" 39
  47 "root.002" 39
end
skeleton
  time 0
    0 0.000000 -0.000006 0.000000 -1.570781 -1.391896 -1.570809
    1 -4.343750 6.566406 2.332031 1.596636 -1.286515 2.942963
    2 6.028140 0.000007 0.000003 -0.529265 -0.653580 -1.439187
    3 11.692572 0.000000 -0.000019 -0.000061 0.000025 -2.039205
    4 11.481682 -0.000163 -0.000038 1.989612 -0.150055 0.470506
    5 3.859703 -0.142405 -1.191976 -0.407882 -0.150545 -1.788332
    6 1.312561 -0.000010 0.000002 -0.040016 0.041069 -1.406773
    7 0.729367 -0.000004 0.000000 -0.047409 -0.006139 -0.033297
    8 3.942326 0.046766 -0.431443 -0.119637 -0.074316 -1.564950
    9 1.539099 -0.000002 -0.000007 0.089068 -0.096326 -1.358959
    10 1.196324 -0.000004 0.000003 0.083162 -0.092384 -0.924086
    11 3.883690 -0.046767 0.431443 0.199983 -0.125959 -1.619567
    12 1.719576 -0.000013 0.000009 0.179015 -0.165950 -1.426871
    13 1.209185 -0.000010 0.000003 0.172698 -0.074389 -1.218805
    14 3.859859 -0.137949 1.332466 0.473876 -0.027341 -1.703151
    15 1.719433 -0.000006 -0.000003 0.273532 -0.258827 -1.408235
    16 1.099669 -0.000008 0.000002 0.247075 -0.090777 -1.154248
    17 0.806044 -0.348926 1.321258 -1.378740 -0.445492 -0.476893
    18 1.867909 0.054691 -0.042978 -0.001500 -0.064979 -0.006157
    19 1.207005 0.000000 0.000000 0.008750 -0.013076 0.223192
    20 0.216431 -4.035156 -8.914063 -1.668474 1.286518 2.942954
    21 6.028139 0.000000 -0.000002 0.846675 0.328260 -1.364538
    22 11.692549 0.000000 0.000003 -0.000002 0.000000 -1.769521
    23 11.481695 -0.000080 0.000006 -0.975355 0.806377 1.144338
    24 3.859676 -0.132517 1.193109 0.439257 0.253431 -1.620435
    25 1.312561 0.000002 -0.000001 0.003324 0.000802 -0.127920
    26 0.729367 0.000004 0.000001 -0.000068 -0.000150 -0.820014
    27 3.942295 0.050373 0.431044 0.159545 0.249838 -1.583419
    28 1.539099 0.000011 0.000000 0.019664 0.029549 -0.258047
    29 1.196325 0.000004 -0.000003 -0.002289 -0.000961 -1.148522
    30 3.883663 -0.050280 -0.431043 0.147670 0.076328 -0.963222
    31 1.719580 -0.000008 0.000006 -0.011708 0.077082 -1.103330
    32 1.209188 -0.000013 0.000006 -0.005897 -0.005359 -0.843452
    33 3.859833 -0.148894 -1.331282 -0.267472 0.289818 -0.248988
    34 1.719427 -0.000006 0.000010 -0.089777 0.145532 -1.124723
    35 1.099665 0.000011 0.000004 -0.022378 -0.005739 -0.115952
    36 0.806026 -0.359824 -1.318335 1.243852 0.590260 -0.755486
    37 1.789783 -0.000004 -0.000002 -0.000184 0.000054 0.126744
    38 1.207001 -0.000002 -0.000006 0.000015 0.000100 0.706730
    39 -6.371289 -12.804563 -6.000975 1.808772 0.390833 -3.216953
    40 -0.000001 1.365388 -0.536964 -1.570798 0.000001 0.000000
    41 -0.000001 -0.513253 -0.829849 1.121305 0.000000 -3.141591
    42 0.000000 -0.854954 0.683403 0.154998 0.000000 -3.141591
    43 -0.456437 0.634190 -1.470296 -1.570797 0.000001 0.000000
    44 0.000008 1.368782 -31.679443 -1.570797 0.000000 0.000000
    45 0.162476 0.431641 -1.771484 -1.592774 0.018724 -0.721931
    46 -0.102380 0.431843 0.420865 -1.570797 0.000001 0.000000
    47 -1.640675 -0.794766 -0.308515 -1.356196 -0.764076 0.215946
  time 1
    0 0.000000 -0.000006 0.000000 -1.570781 -1.391896 -1.570809
    1 -4.343750 6.566406 2.332031 1.596636 -1.286515 2.942963
    2 6.028140 0.000007 0.000003 -0.565761 -0.638762 -1.401057
    3 11.692572 0.000000 -0.000019 -0.000061 0.000025 -2.033150
    4 11.481682 -0.000163 -0.000038 1.975353 -0.076602 0.340285
    5 3.859703 -0.142405 -1.191976 -0.413608 -0.141077 -1.755859
    6 1.312561 -0.000010 0.000002 -0.038326 0.040961 -1.372771
    7 0.729367 -0.000004 0.000000 -0.045683 -0.005924 -0.033777
    8 3.942326 0.046766 -0.431443 -0.121699 -0.069355 -1.538064
    9 1.539099 -0.000002 -0.000007 0.084934 -0.094684 -1.320134
    10 1.196324 -0.000004 0.000003 0.079423 -0.089832 -0.906154
    11 3.883690 -0.046767 0.431443 0.195154 -0.122423 -1.583128
    12 1.719576 -0.000013 0.000009 0.170757 -0.163361 -1.389188
    13 1.209185 -0.000010 0.000003 0.165783 -0.074821 -1.183559
    14 3.859859 -0.137949 1.332466 0.472247 -0.029043 -1.662731
    15 1.719433 -0.000006 -0.000003 0.259846 -0.255291 -1.370013
    16 1.099669 -0.000008 0.000002 0.237464 -0.091532 -1.121940
    17 0.806044 -0.348926 1.321258 -1.375010 -0.457641 -0.487313
    18 1.867909 0.054691 -0.042978 -0.001872 -0.047561 -0.019696
    19 1.207005 0.000000 0.000000 0.007156 -0.012417 0.129269
    20 0.216431 -4.035156 -8.914063 -1.668474 1.286518 2.942954
    21 6.028139 0.000000 -0.000002 0.844301 0.331029 -1.368277
    22 11.692549 0.000000 0.000003 -0.000002 0.000000 -1.770198
    23 11.481695 -0.000080 0.000006 -1.019033 0.817324 1.160382
    24 3.859676 -0.132517 1.193109 0.439257 0.253431 -1.620435
    25 1.312561 0.000002 -0.000001 0.003324 0.000802 -0.127920
    26 0.729367 0.000004 0.000001 -0.000068 -0.000150 -0.820014
    27 3.942295 0.050373 0.431044 0.159545 0.249838 -1.583419
    28 1.539099 0.000011 0.000000 0.019664 0.029549 -0.258047
    29 1.196325 0.000004 -0.000003 -0.002289 -0.000961 -1.148522
    30 3.883663 -0.050280 -0.431043 0.147670 0.076328 -0.963222
    31 1.719580 -0.000008 0.000006 -0.011708 0.077082 -1.103330
    32 1.209188 -0.000013 0.000006 -0.005897 -0.005359 -0.843452
    33 3.859833 -0.148894 -1.331282 -0.267472 0.289818 -0.248988
    34 1.719427 -0.000006 0.000010 -0.089777 0.145532 -1.124723
    35 1.099665 0.000011 0.000004 -0.022378 -0.005739 -0.115952
    36 0.806026 -0.359824 -1.318335 1.243852 0.590260 -0.755486
    37 1.789783 -0.000004 -0.000002 -0.000184 0.000054 0.126744
    38 1.207001 -0.000002 -0.000006 0.000015 0.000100 0.706730
    39 -6.226753 -12.816282 -6.032226 1.798485 0.338994 -3.212635
    40 -0.000001 1.365388 -0.536964 -1.570798 0.000001 0.000000
    41 -0.000001 -0.513253 -0.829849 1.121305 0.000000 -3.141591
    42 0.000000 -0.854954 0.683403 0.154998 0.000000 -3.141591
    43 -0.456437 0.634190 -1.470296 -1.570797 0.000001 0.000000
    44 0.000008 1.368782 -31.679443 -1.570797 0.000000 0.000000
    45 0.162476 0.431641 -1.771484 -1.592774 0.018724 -0.721931
    46 -0.102380 0.431843 0.420865 -1.570797 0.000001 0.000000
    47 -1.683645 -1.888550 1.078246 -1.584973 -0.933944 0.299116
  time 2
    0 0.000000 -0.000006 0.000000 -1.570781 -1.391896 -1.570809
    1 -4.343750 6.566406 2.332031 1.596636 -1.286515 2.942963
    2 6.028140 0.000007 0.000003 -0.596082 -0.628123 -1.374224
    3 11.692572 0.000000 -0.000019 -0.000061 0.000025 -2.013419
    4 11.481682 -0.000163 -0.000038 1.946481 -0.015048 0.187167
    5 3.859703 -0.142405 -1.191976 -0.421978 -0.125964 -1.705340
    6 1.312561 -0.000010 0.000002 -0.035677 0.040650 -1.319767
    7 0.729367 -0.000004 0.000000 -0.043011 -0.005612 -0.035039
    8 3.942326 0.046766 -0.431443 -0.124719 -0.061553 -1.496246
    9 1.539099 -0.000002 -0.000007 0.078546 -0.091820 -1.259442
    10 1.196324 -0.000004 0.000003 0.073718 -0.085745 -0.878396
    11 3.883690 -0.046767 0.431443 0.187771 -0.116623 -1.526282
    12 1.719576 -0.000013 0.000009 0.158030 -0.158723 -1.330364
    13 1.209185 -0.000010 0.000003 0.154985 -0.075013 -1.128460
    14 3.859859 -0.137949 1.332466 0.469442 -0.031643 -1.599334
    15 1.719433 -0.000006 -0.000003 0.238765 -0.248736 -1.310386
    16 1.099669 -0.000008 0.000002 0.222444 -0.092095 -1.071525
    17 0.806044 -0.348926 1.321258 -1.368882 -0.476412 -0.503692
    18 1.867909 0.054691 -0.042978 -0.002387 -0.032663 -0.031318
    19 1.207005 0.000000 0.000000 0.005718 -0.011662 0.048914
    20 0.216431 -4.035156 -8.914063 -1.668474 1.286518 2.942954
    21 6.028139 0.000000 -0.000002 0.842190 0.336040 -1.373434
    22 11.692549 0.000000 0.000003 -0.000002 0.000000 -1.773448
    23 11.481695 -0.000080 0.000006 -1.062494 0.822132 1.189445
    24 3.859676 -0.132517 1.193109 0.439257 0.253431 -1.620435
    25 1.312561 0.000002 -0.000001 0.003324 0.000802 -0.127920
    26 0.729367 0.000004 0.000001 -0.000068 -0.000150 -0.820014
    27 3.942295 0.050373 0.431044 0.159545 0.249838 -1.583419
    28 1.539099 0.000011 0.000000 0.019664 0.029549 -0.258047
    29 1.196325 0.000004 -0.000003 -0.002289 -0.000961 -1.148522
    30 3.883663 -0.050280 -0.431043 0.147670 0.076328 -0.963222
    31 1.719580 -0.000008 0.000006 -0.011708 0.077082 -1.103330
    32 1.209188 -0.000013 0.000006 -0.005897 -0.005359 -0.843452
    33 3.859833 -0.148894 -1.331282 -0.267472 0.289818 -0.248988
    34 1.719427 -0.000006 0.000010 -0.089777 0.145532 -1.124723
    35 1.099665 0.000011 0.000004 -0.022378 -0.005739 -0.115952
    36 0.806026 -0.359824 -1.318335 1.243852 0.590260 -0.755486
    37 1.789783 -0.000004 -0.000002 -0.000184 0.000054 0.126744
    38 1.207001 -0.000002 -0.000006 0.000015 0.000100 0.706730
    39 -6.070499 -12.843626 -6.063477 1.778958 0.284176 -3.207675
    40 -0.000001 1.365388 -0.536964 -1.570798 0.000001 0.000000
    41 -0.000001 -0.513253 -0.829849 1.121305 0.000000 -3.141591
    42 0.000000 -0.854954 0.683403 0.154998 0.000000 -3.141591
    43 -0.456437 0.634190 -1.470296 -1.570797 0.000001 0.000000
    44 0.000008 1.368782 -31.679443 -1.570797 0.000000 0.000000
    45 0.162476 0.431641 -1.771484 -1.592774 0.018724 -0.721931
    46 -0.102380 0.431843 0.420865 -1.570797 0.000001 0.000000
    47 -1.742241 -3.310468 2.882989 -1.890321 -1.140697 0.505273
  time 3
    0 0.000000 -0.000006 0.000000 -1.570781 -1.391896 -1.570809
    1 -4.343750 6.566406 2.332031 1.596636 -1.286515 2.942963
    2 6.028140 0.000007 0.000003 -0.621150 -0.621059 -1.355948
    3 11.692572 0.000000 -0.000019 -0.000061 0.000025 -1.985141
    4 11.481682 -0.000163 -0.000038 1.908487 0.022802 0.034150
    5 3.859703 -0.142405 -1.191976 -0.431798 -0.105722 -1.639777
    6 1.312561 -0.000010 0.000002 -0.032238 0.039967 -1.250628
    7 0.729367 -0.000004 0.000000 -0.039559 -0.005204 -0.037437
    8 3.942326 0.046766 -0.431443 -0.128242 -0.051282 -1.442010
    9 1.539099 -0.000002 -0.000007 0.070420 -0.087517 -1.180006
    10 1.196324 -0.000004 0.000003 0.066515 -0.080244 -0.842560
    11 3.883690 -0.046767 0.431443 0.178483 -0.108485 -1.452102
    12 1.719576 -0.000013 0.000009 0.141791 -0.151592 -1.253578
    13 1.209185 -0.000010 0.000003 0.140891 -0.074365 -1.056512
    14 3.859859 -0.137949 1.332466 0.465319 -0.034879 -1.516180
    15 1.719433 -0.000006 -0.000003 0.211932 -0.238357 -1.232866
    16 1.099669 -0.000008 0.000002 0.202850 -0.091700 -1.005814
    17 0.806044 -0.348926 1.321258 -1.360373 -0.500527 -0.525290
    18 1.867909 0.054691 -0.042978 -0.002986 -0.020061 -0.041200
    19 1.207005 0.000000 0.000000 0.004411 -0.010835 -0.019103
    20 0.216431 -4.035156 -8.914063 -1.668474 1.286518 2.942954
    21 6.028139 0.000000 -0.000002 0.840080 0.343512 -1.380332
    22 11.692549 0.000000 0.000003 -0.000002 0.000000 -1.777985
    23 11.481695 -0.000080 0.000006 -1.103424 0.822166 1.230269
    24 3.859676 -0.132517 1.193109 0.439257 0.253431 -1.620435
    25 1.312561 0.000002 -0.000001 0.003324 0.000802 -0.127920
    26 0.729367 0.000004 0.000001 -0.000068 -0.000150 -0.820014
    27 3.942295 0.050373 0.431044 0.159545 0.249838 -1.583419
    28 1.539099 0.000011 0.000000 0.019664 0.029549 -0.258047
    29 1.196325 0.000004 -0.000003 -0.002289 -0.000961 -1.148522
    30 3.883663 -0.050280 -0.431043 0.147670 0.076328 -0.963222
    31 1.719580 -0.000008 0.000006 -0.011708 0.077082 -1.103330
    32 1.209188 -0.000013 0.000006 -0.005897 -0.005359 -0.843452
    33 3.859833 -0.148894 -1.331282 -0.267472 0.289818 -0.248988
    34 1.719427 -0.000006 0.000010 -0.089777 0.145532 -1.124723
    35 1.099665 0.000011 0.000004 -0.022378 -0.005739 -0.115952
    36 0.806026 -0.359824 -1.318335 1.243852 0.590260 -0.755486
    37 1.789783 -0.000004 -0.000002 -0.000184 0.000054 0.126744
    38 1.207001 -0.000002 -0.000006 0.000015 0.000100 0.706730
    39 -5.914244 -12.878784 -6.098635 1.751716 0.228530 -3.202070
    40 -0.000001 1.365388 -0.536964 -1.570798 0.000001 0.000000
    41 -0.000001 -0.513253 -0.829849 1.121305 0.000000 -3.141591
    42 0.000000 -0.854954 0.683403 0.154998 0.000000 -3.141591
    43 -0.456437 0.634190 -1.470296 -1.570797 0.000001 0.000000
    44 0.000008 1.368782 -31.679443 -1.570797 0.000000 0.000000
    45 0.162476 0.431641 -1.771484 -1.592774 0.018724 -0.721931
    46 -0.102380 0.431843 0.420865 -1.570797 0.000001 0.000000
    47 -1.796930 -4.732386 4.687732 -2.458701 -1.297664 1.008982
  time 4
    0 0.000000 -0.000006 0.000000 -1.570781 -1.391896 -1.570809
    1 -4.343750 6.566406 2.332031 1.596636 -1.286515 2.942963
    2 6.028140 0.000007 0.000003 -0.641702 -0.616321 -1.343404
    3 11.692572 0.000000 -0.000019 -0.000061 0.000025 -1.953016
    4 11.481682 -0.000163 -0.000038 1.869253 0.027413 -0.093852
    5 3.859703 -0.142405 -1.191976 -0.441838 -0.080950 -1.562314
    6 1.312561 -0.000010 0.000002 -0.028187 0.038756 -1.168462
    7 0.729367 -0.000004 0.000000 -0.035520 -0.004749 -0.041350
    8 3.942326 0.046766 -0.431443 -0.131826 -0.038962 -1.377946
    9 1.539099 -0.000002 -0.000007 0.061132 -0.081597 -1.085295
    10 1.196324 -0.000004 0.000003 0.058306 -0.073425 -0.800424
    11 3.883690 -0.046767 0.431443 0.168032 -0.098047 -1.363919
    12 1.719576 -0.000013 0.000009 0.123155 -0.141573 -1.162348
    13 1.209185 -0.000010 0.000003 0.124232 -0.072280 -0.970967
    14 3.859859 -0.137949 1.332466 0.459771 -0.038427 -1.416742
    15 1.719433 -0.000006 -0.000003 0.181227 -0.223412 -1.141133
    16 1.099669 -0.000008 0.000002 0.179687 -0.089566 -0.927816
    17 0.806044 -0.348926 1.321258 -1.349434 -0.528684 -0.551382
    18 1.867909 0.054691 -0.042978 -0.003597 -0.009582 -0.049518
    19 1.207005 0.000000 0.000000 0.003225 -0.009912 -0.075984
    20 0.216431 -4.035156 -8.914063 -1.668474 1.286518 2.942954
    21 6.028139 0.000000 -0.000002 0.837969 0.353578 -1.388971
    22 11.692549 0.000000 0.000003 -0.000002 0.000000 -1.782657
    23 11.481695 -0.000080 0.000006 -1.140810 0.818926 1.280800
    24 3.859676 -0.132517 1.193109 0.439257 0.253431 -1.620435
    25 1.312561 0.000002 -0.000001 0.003324 0.000802 -0.127920
    26 0.729367 0.000004 0.000001 -0.000068 -0.000150 -0.820014
    27 3.942295 0.050373 0.431044 0.159545 0.249838 -1.583419
    28 1.539099 0.000011 0.000000 0.019664 0.029549 -0.258047
    29 1.196325 0.000004 -0.000003 -0.002289 -0.000961 -1.148522
    30 3.883663 -0.050280 -0.431043 0.147670 0.076328 -0.963222
    31 1.719580 -0.000008 0.000006 -0.011708 0.077082 -1.103330
    32 1.209188 -0.000013 0.000006 -0.005897 -0.005359 -0.843452
    33 3.859833 -0.148894 -1.331282 -0.267472 0.289818 -0.248988
    34 1.719427 -0.000006 0.000010 -0.089777 0.145532 -1.124723
    35 1.099665 0.000011 0.000004 -0.022378 -0.005739 -0.115952
    36 0.806026 -0.359824 -1.318335 1.243852 0.590260 -0.755486
    37 1.789783 -0.000004 -0.000002 -0.000184 0.000054 0.126744
    38 1.207001 -0.000002 -0.000006 0.000015 0.000100 0.706730
    39 -5.761895 -12.925660 -6.137698 1.718569 0.173216 -3.196007
    40 -0.000001 1.365388 -0.536964 -1.570798 0.000001 0.000000
    41 -0.000001 -0.513253 -0.829849 1.121305 0.000000 -3.141591
    42 0.000000 -0.854954 0.683403 0.154998 0.000000 -3.141591
    43 -0.456437 0.634190 -1.470296 -1.570797 0.000001 0.000000
    44 0.000008 1.368782 -31.679443 -1.570797 0.000000 0.000000
    45 0.162476 0.431641 -1.771484 -1.592774 0.018724 -0.721931
    46 -0.102380 0.431843 0.420865 -1.570797 0.000001 0.000000
    47 -1.839900 -5.826170 6.074493 -3.180151 -1.317719 1.693182
  time 5
    0 0.000000 -0.000006 0.000000 -1.570781 -1.391896 -1.570809
    1 -4.343750 6.566406 2.332031 1.596636 -1.286515 2.942963
    2 6.028140 0.000007 0.000003 -0.657922 -0.612315 -1.333519
    3 11.692572 0.000000 -0.000019 -0.000049 0.000025 -1.921675
    4 11.481682 -0.000163 -0.000038 1.834979 -0.006613 -0.169957
    5 3.859703 -0.142405 -1.191976 -0.450951 -0.052535 -1.476207
    6 1.312561 -0.000010 0.000002 -0.023741 0.036874 -1.076645
    7 0.729367 -0.000004 0.000000 -0.031050 -0.004246 -0.047105
    8 3.942326 0.046766 -0.431443 -0.135085 -0.025048 -1.306677
    9 1.539099 -0.000002 -0.000007 0.051341 -0.073987 -0.979221
    10 1.196324 -0.000004 0.000003 0.049545 -0.065467 -0.753764
    11 3.883690 -0.046767 0.431443 0.157162 -0.085439 -1.265496
    12 1.719576 -0.000013 0.000009 0.103368 -0.128450 -1.060564
    13 1.209185 -0.000010 0.000003 0.105896 -0.068277 -0.875325
    14 3.859859 -0.137949 1.332466 0.452748 -0.041890 -1.305073
    15 1.719433 -0.000006 -0.000003 0.148797 -0.203518 -1.039357
    16 1.099669 -0.000008 0.000002 0.154113 -0.085060 -0.840848
    17 0.806044 -0.348926 1.321258 -1.336082 -0.559577 -0.581247
    18 1.867909 0.054691 -0.042978 -0.004173 -0.001002 -0.056362
    19 1.207005 0.000000 0.000000 0.002146 -0.008930 -0.122907
    20 0.216431 -4.035156 -8.914063 -1.668474 1.286518 2.942954
    21 6.028139 0.000000 -0.000002 0.835947 0.366061 -1.399157
    22 11.692549 0.000000 0.000003 -0.000002 0.000000 -1.786448
    23 11.481695 -0.000080 0.000006 -1.174798 0.813641 1.338126
    24 3.859676 -0.132517 1.193109 0.439257 0.253431 -1.620435
    25 1.312561 0.000002 -0.000001 0.003324 0.000802 -0.127920
    26 0.729367 0.000004 0.000001 -0.000068 -0.000150 -0.820014
    27 3.942295 0.050373 0.431044 0.159545 0.249838 -1.583419
    28 1.539099 0.000011 0.000000 0.019664 0.029549 -0.258047
    29 1.196325 0.000004 -0.000003 -0.002289 -0.000961 -1.148522
    30 3.883663 -0.050280 -0.431043 0.147670 0.076328 -0.963222
    31 1.719580 -0.000008 0.000006 -0.011708 0.077082 -1.103330
    32 1.209188 -0.000013 0.000006 -0.005897 -0.005359 -0.843452
    33 3.859833 -0.148894 -1.331282 -0.267472 0.289818 -0.248988
    34 1.719427 -0.000006 0.000010 -0.089777 0.145532 -1.124723
    35 1.099665 0.000011 0.000004 -0.022378 -0.005739 -0.115952
    36 0.806026 -0.359824 -1.318335 1.243852 0.590260 -0.755486
    37 1.789783 -0.000004 -0.000002 -0.000184 0.000054 0.126744
    38 1.207001 -0.000002 -0.000006 0.000015 0.000100 0.706730
    39 -5.625172 -12.984256 -6.176762 1.681325 0.119101 -3.189668
    40 -0.000001 1.365388 -0.536964 -1.570798 0.000001 0.000000
    41 -0.000001 -0.513253 -0.829849 1.121305 0.000000 -3.141591
    42 0.000000 -0.854954 0.683403 0.154998 0.000000 -3.141591
    43 -0.456437 0.634190 -1.470296 -1.570797 0.000001 0.000000
    44 0.000008 1.368782 -31.679443 -1.570797 0.000000 0.000000
    45 0.162476 0.431641 -1.771484 -1.592774 0.018724 -0.721931
    46 -0.102380 0.431843 0.420865 -1.570797 0.000001 0.000000
    47 -1.855525 -6.263683 6.629197 -3.441816 -1.291916 1.941787
  time 6
    0 0.000000 -0.000006 0.000000 -1.570781 -1.391896 -1.570809
    1 -4.343750 6.566406 2.332031 1.596636 -1.286515 2.942963
    2 6.028140 0.000007 0.000003 -0.666401 -0.610419 -1.328783
    3 11.692572 0.000000 -0.000019 -0.000049 0.000025 -1.892542
    4 11.481682 -0.000163 -0.000038 1.737735 -0.084153 -0.156793
    5 3.859703 -0.142405 -1.191976 -0.458212 -0.021614 -1.384907
    6 1.312561 -0.000010 0.000002 -0.019174 0.034274 -0.978883
    7 0.729367 -0.000004 0.000000 -0.026328 -0.003706 -0.055107
    8 3.942326 0.046766 -0.431443 -0.137710 -0.010127 -1.231040
    9 1.539099 -0.000002 -0.000007 0.041705 -0.064831 -0.866178
    10 1.196324 -0.000004 0.000003 0.040677 -0.056610 -0.704440
    11 3.883690 -0.046767 0.431443 0.146592 -0.071034 -1.160777
    12 1.719576 -0.000013 0.000009 0.083713 -0.112402 -0.952489
    13 1.209185 -0.000010 0.000003 0.086888 -0.062105 -0.773551
    14 3.859859 -0.137949 1.332466 0.444310 -0.044886 -1.185734
    15 1.719433 -0.000006 -0.000003 0.116810 -0.178890 -0.932045
    16 1.099669 -0.000008 0.000002 0.127441 -0.077869 -0.748453
    17 0.806044 -0.348926 1.321258 -1.320442 -0.591905 -0.614073
    18 1.867909 0.054691 -0.042978 -0.004676 0.005851 -0.061937
    19 1.207005 0.000000 0.000000 0.001175 -0.007875 -0.160998
    20 0.216431 -4.035156 -8.914063 -1.668474 1.286518 2.942954
    21 6.028139 0.000000 -0.000002 0.834452 0.380478 -1.410246
    22 11.692549 0.000000 0.000003 -0.000002 0.000000 -1.788953
    23 11.481695 -0.000080 0.000006 -1.205676 0.807264 1.398763
    24 3.859676 -0.132517 1.193109 0.439257 0.253431 -1.620435
    25 1.312561 0.000002 -0.000001 0.003324 0.000802 -0.127920
    26 0.729367 0.000004 0.000001 -0.000068 -0.000150 -0.820014
    27 3.942295 0.050373 0.431044 0.159545 0.249838 -1.583419
    28 1.539099 0.000011 0.000000 0.019664 0.029549 -0.258047
    29 1.196325 0.000004 -0.000003 -0.002289 -0.000961 -1.148522
    30 3.883663 -0.050280 -0.431043 0.147670 0.076328 -0.963222
    31 1.719580 -0.000008 0.000006 -0.011708 0.077082 -1.103330
    32 1.209188 -0.000013 0.000006 -0.005897 -0.005359 -0.843452
    33 3.859833 -0.148894 -1.331282 -0.267472 0.289806 -0.248988
    34 1.719427 -0.000006 0.000010 -0.089777 0.145532 -1.124723
    35 1.099665 0.000011 0.000004 -0.022378 -0.005739 -0.115952
    36 0.806026 -0.359824 -1.318335 1.243852 0.590260 -0.755486
    37 1.789783 -0.000004 -0.000002 -0.000184 0.000054 0.126744
    38 1.207001 -0.000002 -0.000006 0.000015 0.000100 0.706730
    39 -5.519701 -13.050664 -6.211919 1.641891 0.066890 -3.183054
    40 -0.000001 1.365388 -0.536964 -1.570798 0.000001 0.000000
    41 -0.000001 -0.513253 -0.829849 1.121305 0.000000 -3.141591
    42 0.000000 -0.854954 0.683403 0.154998 0.000000 -3.141591
    43 -0.456437 0.634190 -1.470296 -1.570797 0.000001 0.000000
    44 0.000008 1.368782 -31.679443 -1.570797 0.000000 0.000000
    45 0.162476 0.431641 -1.771484 -1.592774 0.018724 -0.721931
    46 -0.102380 0.431843 0.420865 -1.570797 0.000001 0.000000
    47 -1.839900 -6.201181 6.558882 -3.389641 -1.299980 1.889384
  time 7
    0 0.000000 -0.000006 0.000000 -1.570781 -1.391896 -1.570809
    1 -4.343750 6.566406 2.332031 1.596636 -1.286515 2.942963
    2 6.028140 0.000007 0.000003 -0.664834 -0.613607 -1.333352
    3 11.692572 0.000000 -0.000019 -0.000049 0.000025 -1.862126
    4 11.481682 -0.000163 -0.000038 1.509947 -0.177224 -0.041350
    5 3.859703 -0.142405 -1.191976 -0.463037 0.010409 -1.291923
    6 1.312561 -0.000010 0.000002 -0.014752 0.030942 -0.879118
    7 0.729367 -0.000004 0.000000 -0.021534 -0.003143 -0.065735
    8 3.942326 0.046766 -0.431443 -0.139580 0.005201 -1.153957
    9 1.539099 -0.000002 -0.000007 0.032813 -0.054464 -0.750836
    10 1.196324 -0.000004 0.000003 0.032120 -0.047142 -0.654280
    11 3.883690 -0.046767 0.431443 0.136860 -0.055406 -1.054139
    12 1.719576 -0.000013 0.000009 0.065353 -0.094006 -0.842655
    13 1.209185 -0.000010 0.000003 0.068228 -0.053860 -0.669825
    14 3.859859 -0.137949 1.332466 0.434663 -0.047091 -1.063752
    15 1.719433 -0.000006 -0.000003 0.087220 -0.150438 -0.823824
    16 1.099669 -0.000008 0.000002 0.101064 -0.068030 -0.654484
    17 0.806044 -0.348926 1.321258 -1.302811 -0.624363 -0.648915
    18 1.867909 0.054691 -0.042978 -0.005108 0.011203 -0.066302
    19 1.207005 0.000000 0.000000 0.000312 -0.006796 -0.191256
    20 0.216431 -4.035156 -8.914063 -1.668474 1.286518 2.942954
    21 6.028139 0.000000 -0.000002 0.833924 0.396126 -1.421077
    22 11.692549 0.000000 0.000003 -0.000002 0.000000 -1.789969
    23 11.481695 -0.000080 0.000006 -1.234313 0.800409 1.459000
    24 3.859676 -0.132517 1.193109 0.439257 0.253431 -1.620458
    25 1.312561 0.000002 -0.000001 0.003324 0.000802 -0.127920
    26 0.729367 0.000004 0.000001 -0.000068 -0.000150 -0.820014
    27 3.942295 0.050373 0.431044 0.159545 0.249838 -1.583419
    28 1.539099 0.000011 0.000000 0.019664 0.029549 -0.258047
    29 1.196325 0.000004 -0.000003 -0.002289 -0.000961 -1.148522
    30 3.883663 -0.050280 -0.431043 0.147670 0.076328 -0.963222
    31 1.719580 -0.000008 0.000006 -0.011708 0.077082 -1.103352
    32 1.209188 -0.000013 0.000006 -0.005897 -0.005359 -0.843452
    33 3.859833 -0.148894 -1.331282 -0.267472 0.289818 -0.248988
    34 1.719427 -0.000006 0.000010 -0.089777 0.145532 -1.124746
    35 1.099665 0.000011 0.000004 -0.022378 -0.005739 -0.115952
    36 0.806026 -0.359824 -1.318335 1.243852 0.590260 -0.755486
    37 1.789783 -0.000004 -0.000002 -0.000184 0.000054 0.126744
    38 1.207001 -0.000002 -0.000006 0.000015 0.000100 0.706730
    39 -5.453292 -13.124885 -6.250983 1.602267 0.017326 -3.176163
    40 -0.000001 1.365388 -0.536964 -1.570798 0.000001 0.000000
    41 -0.000001 -0.513253 -0.829849 1.121305 0.000000 -3.141591
    42 0.000000 -0.854954 0.683403 0.154998 0.000000 -3.141591
    43 -0.456437 0.634190 -1.470296 -1.570797 0.000001 0.000000
    44 0.000008 1.368782 -31.679443 -1.570797 0.000000 0.000000
    45 0.162476 0.431641 -1.771484 -1.592774 0.018724 -0.721931
    46 -0.102380 0.431843 0.420865 -1.570797 0.000001 0.000000
    47 -1.785211 -6.013675 6.351845 -3.221746 -1.318215 1.724031
  time 8
    0 0.000000 -0.000006 0.000000 -1.570781 -1.391896 -1.570809
    1 -4.343750 6.566406 2.332031 1.596636 -1.286515 2.942963
    2 6.028140 0.000007 0.000003 -0.654789 -0.622653 -1.348139
    3 11.692572 0.000000 -0.000019 -0.000049 0.000025 -1.826725
    4 11.481682 -0.000163 -0.000038 1.162066 -0.222434 0.158571
    5 3.859703 -0.142405 -1.191976 -0.465364 0.042000 -1.200876
    6 1.312561 -0.000010 0.000002 -0.010713 0.026987 -0.781416
    7 0.729367 -0.000004 0.000000 -0.016824 -0.002568 -0.079290
    8 3.942326 0.046766 -0.431443 -0.140694 0.020254 -1.078348
    9 1.539099 -0.000002 -0.000007 0.025083 -0.043438 -0.638068
    10 1.196324 -0.000004 0.000003 0.024186 -0.037447 -0.605171
    11 3.883690 -0.046767 0.431443 0.128268 -0.039310 -0.949926
    12 1.719576 -0.000013 0.000009 0.049162 -0.074207 -0.735628
    13 1.209185 -0.000010 0.000003 0.050887 -0.043960 -0.568454
    14 3.859859 -0.137949 1.332466 0.424104 -0.048290 -0.944340
    15 1.719433 -0.000006 -0.000003 0.061537 -0.119686 -0.719115
    16 1.099669 -0.000008 0.000002 0.076216 -0.056034 -0.562736
    17 0.806044 -0.348926 1.321258 -1.283723 -0.655726 -0.684652
    18 1.867909 0.054691 -0.042978 -0.005443 0.015208 -0.069635
    19 1.207005 0.000000 0.000000 -0.000431 -0.005718 -0.214628
    20 0.216431 -4.035156 -8.914063 -1.668474 1.286518 2.942954
    21 6.028139 0.000000 -0.000002 0.835331 0.412169 -1.430360
    22 11.692549 0.000000 0.000003 -0.000002 0.000000 -1.790037
    23 11.481695 -0.000080 0.000006 -1.261864 0.793316 1.514898
    24 3.859676 -0.132517 1.193109 0.439257 0.253431 -1.620435
    25 1.312561 0.000002 -0.000001 0.003324 0.000802 -0.127920
    26 0.729367 0.000004 0.000001 -0.000068 -0.000150 -0.820014
    27 3.942295 0.050373 0.431044 0.159545 0.249838 -1.583419
    28 1.539099 0.000011 0.000000 0.019664 0.029549 -0.258047
    29 1.196325 0.000004 -0.000003 -0.002289 -0.000961 -1.148522
    30 3.883663 -0.050280 -0.431043 0.147670 0.076328 -0.963222
    31 1.719580 -0.000008 0.000006 -0.011708 0.077082 -1.103330
    32 1.209188 -0.000013 0.000006 -0.005897 -0.005359 -0.843452
    33 3.859833 -0.148894 -1.331282 -0.267472 0.289818 -0.248988
    34 1.719427 -0.000006 0.000010 -0.089777 0.145532 -1.124723
    35 1.099665 0.000011 0.000004 -0.022378 -0.005739 -0.115952
    36 0.806026 -0.359824 -1.318335 1.243852 0.590260 -0.755486
    37 1.789783 -0.000004 -0.000002 -0.000184 0.000054 0.126744
    38 1.207001 -0.000002 -0.000006 0.000015 0.000100 0.706730
    39 -5.429854 -13.206919 -6.286140 1.564452 -0.028680 -3.169089
    40 -0.000001 1.365388 -0.536964 -1.570798 0.000001 0.000000
    41 -0.000001 -0.513253 -0.829849 1.121305 0.000000 -3.141591
    42 0.000000 -0.854954 0.683403 0.154998 0.000000 -3.141591
    43 -0.456437 0.634190 -1.470296 -1.570797 0.000001 0.000000
    44 0.000008 1.368782 -31.679443 -1.570797 0.000000 0.000000
    45 0.162476 0.431641 -1.771484 -1.592774 0.018724 -0.721931
    46 -0.102380 0.431843 0.420865 -1.570797 0.000001 0.000000
    47 -1.703177 -5.724604 6.031523 -2.922588 -1.330248 1.429275
  time 9
    0 0.000000 -0.000006 0.000000 -1.570781 -1.391896 -1.570809
    1 -4.343750 6.566406 2.332031 1.596636 -1.286515 2.942963
    2 6.028140 0.000007 0.000003 -0.637002 -0.637642 -1.373809
    3 11.692572 0.000000 -0.000019 -0.000049 0.000037 -1.783203
    4 11.481682 -0.000163 -0.000038 0.758479 -0.167164 0.375387
    5 3.859703 -0.142405 -1.191976 -0.465535 0.071698 -1.115246
    6 1.312561 -0.000010 0.000002 -0.007250 0.022541 -0.689659
    7 0.729367 -0.000004 0.000000 -0.012378 -0.002005 -0.096228
    8 3.942326 0.046766 -0.431443 -0.141293 0.034420 -1.007160
    9 1.539099 -0.000002 -0.000007 0.018695 -0.032436 -0.532577
    10 1.196324 -0.000004 0.000003 0.017151 -0.027955 -0.558888
    11 3.883690 -0.046767 0.431443 0.120837 -0.023611 -0.852299
    12 1.719576 -0.000013 0.000009 0.035607 -0.054241 -0.635671
    13 1.209185 -0.000010 0.000003 0.035618 -0.033114 -0.473493
    14 3.859859 -0.137949 1.332466 0.412935 -0.048458 -0.832599
    15 1.719433 -0.000006 -0.000003 0.040576 -0.088610 -0.622051
    16 1.099669 -0.000008 0.000002 0.053995 -0.042755 -0.476893
    17 0.806044 -0.348926 1.321258 -1.263915 -0.684768 -0.719907
    18 1.867909 0.054691 -0.042978 -0.005683 0.018091 -0.072084
    19 1.207005 0.000000 0.000000 -0.001078 -0.004663 -0.232036
    20 0.216431 -4.035156 -8.914063 -1.668474 1.286518 2.942954
    21 6.028139 0.000000 -0.000002 0.839640 0.427422 -1.436291
    22 11.692549 0.000000 0.000003 -0.000002 0.000000 -1.790104
    23 11.481695 -0.000080 0.000006 -1.289272 0.785779 1.562403
    24 3.859676 -0.132517 1.193109 0.439257 0.253431 -1.620435
    25 1.312561 0.000002 -0.000001 0.003324 0.000802 -0.127920
    26 0.729367 0.000004 0.000001 -0.000068 -0.000150 -0.820014
    27 3.942295 0.050373 0.431044 0.159545 0.249838 -1.583419
    28 1.539099 0.000011 0.000000 0.019664 0.029549 -0.258047
    29 1.196325 0.000004 -0.000003 -0.002289 -0.000961 -1.148522
    30 3.883663 -0.050280 -0.431043 0.147670 0.076328 -0.963222
    31 1.719580 -0.000008 0.000006 -0.011708 0.077082 -1.103330
    32 1.209188 -0.000013 0.000006 -0.005897 -0.005359 -0.843452
    33 3.859833 -0.148894 -1.331282 -0.267472 0.289806 -0.248988
    34 1.719427 -0.000006 0.000010 -0.089777 0.145532 -1.124723
    35 1.099665 0.000011 0.000004 -0.022378 -0.005739 -0.115952
    36 0.806026 -0.359824 -1.318335 1.243852 0.590260 -0.755486
    37 1.789783 -0.000004 -0.000002 -0.000184 0.000054 0.126744
    38 1.207001 -0.000002 -0.000006 0.000015 0.000100 0.706730
    39 -5.468918 -13.292859 -6.321298 1.530352 -0.070052 -3.161832
    40 -0.000001 1.365388 -0.536964 -1.570798 0.000001 0.000000
    41 -0.000001 -0.513253 -0.829849 1.121305 0.000000 -3.141591
    42 0.000000 -0.854954 0.683403 0.154998 0.000000 -3.141591
    43 -0.456437 0.634190 -1.470296 -1.570797 0.000001 0.000000
    44 0.000008 1.368782 -31.679443 -1.570797 0.000000 0.000000
    45 0.162476 0.431641 -1.771484 -1.592774 0.018724 -0.721931
    46 -0.102380 0.431843 0.420865 -1.570797 0.000001 0.000000
    47 -1.597705 -5.345686 5.613541 -2.536495 -1.312592 1.048305
  time 10
    0 0.000000 -0.000006 0.000000 -1.570781 -1.391896 -1.570809
    1 -4.343750 6.566406 2.332031 1.596636 -1.286515 2.942963
    2 6.028140 0.000007 0.000003 -0.611289 -0.658835 -1.411939
    3 11.692572 0.000000 -0.000019 -0.000049 0.000037 -1.727573
    4 11.481682 -0.000163 -0.000038 0.391025 -0.033304 0.521091
    5 3.859703 -0.142405 -1.191976 -0.464329 0.098124 -1.038401
    6 1.312561 -0.000010 0.000002 -0.004457 0.017831 -0.607582
    7 0.729367 -0.000004 0.000000 -0.008351 -0.001441 -0.116877
    8 3.942326 0.046766 -0.431443 -0.141713 0.047100 -0.943151
    9 1.539099 -0.000002 -0.000007 0.013601 -0.022130 -0.438553
    10 1.196324 -0.000004 0.000003 0.011183 -0.019122 -0.517237
    11 3.883690 -0.046767 0.431443 0.114293 -0.009145 -0.765166
    12 1.719576 -0.000013 0.000009 0.024737 -0.035401 -0.546741
    13 1.209185 -0.000010 0.000003 0.022891 -0.022232 -0.388816
    14 3.859859 -0.137949 1.332466 0.401466 -0.047715 -0.733089
    15 1.719433 -0.000006 -0.000003 0.024541 -0.059271 -0.536143
    16 1.099669 -0.000008 0.000002 0.035128 -0.029272 -0.400329
    17 0.806044 -0.348926 1.321258 -1.244498 -0.710526 -0.753113
    18 1.867909 0.054691 -0.042978 -0.005827 0.020041 -0.073795
    19 1.207005 0.000000 0.000000 -0.001617 -0.003680 -0.244374
    20 0.216431 -4.035156 -8.914063 -1.668474 1.286518 2.942954
    21 6.028139 0.000000 -0.000002 0.848346 0.440784 -1.436936
    22 11.692549 0.000000 0.000003 -0.000002 0.000000 -1.791526
    23 11.481695 -0.000080 0.000006 -1.317763 0.777049 1.597632
    24 3.859676 -0.132517 1.193109 0.439257 0.253431 -1.620435
    25 1.312561 0.000002 -0.000001 0.003324 0.000802 -0.127920
    26 0.729367 0.000004 0.000001 -0.000068 -0.000150 -0.820014
    27 3.942295 0.050373 0.431044 0.159545 0.249838 -1.583419
    28 1.539099 0.000011 0.000000 0.019664 0.029549 -0.258047
    29 1.196325 0.000004 -0.000003 -0.002289 -0.000961 -1.148522
    30 3.883663 -0.050280 -0.431043 0.147670 0.076328 -0.963222
    31 1.719580 -0.000008 0.000006 -0.011708 0.077082 -1.103330
    32 1.209188 -0.000013 0.000006 -0.005897 -0.005359 -0.843452
    33 3.859833 -0.148894 -1.331282 -0.267472 0.289806 -0.248988
    34 1.719427 -0.000006 0.000010 -0.089777 0.145532 -1.124723
    35 1.099665 0.000011 0.000004 -0.022378 -0.005739 -0.115952
    36 0.806026 -0.359824 -1.318335 1.243852 0.590260 -0.755486
    37 1.789783 -0.000004 -0.000002 -0.000184 0.000054 0.126744
    38 1.207001 -0.000002 -0.000006 0.000015 0.000100 0.706730
    39 -5.574390 -13.390518 -6.356455 1.502062 -0.105342 -3.154390
    40 -0.000001 1.365388 -0.536964 -1.570798 0.000001 0.000000
    41 -0.000001 -0.513253 -0.829849 1.121305 0.000000 -3.141591
    42 0.000000 -0.854954 0.683403 0.154998 0.000000 -3.141591
    43 -0.456437 0.634190 -1.470296 -1.570797 0.000001 0.000000
    44 0.000008 1.368782 -31.679443 -1.570797 0.000000 0.000000
    45 0.162476 0.431641 -1.771484 -1.592774 0.018724 -0.721931
    46 -0.102380 0.431843 0.420865 -1.570797 0.000001 0.000000
    47 -1.468795 -4.892547 5.117432 -2.191207 -1.251806 0.707727
  time 11
    0 0.000000 -0.000006 0.000000 -1.570781 -1.391896 -1.570809
    1 -4.343750 6.566406 2.332031 1.596636 -1.286515 2.942963
    2 6.028140 0.000007 0.000003 -0.576544 -0.686015 -1.464607
    3 11.692572 0.000000 -0.000019 -0.000049 0.000037 -1.655701
    4 11.481682 -0.000163 -0.000038 0.102836 0.103065 0.568903
    5 3.859703 -0.142405 -1.191976 -0.462830 0.120199 -0.973539
    6 1.312561 -0.000010 0.000002 -0.002384 0.013049 -0.538533
    7 0.729367 -0.000004 0.000000 -0.004948 -0.000914 -0.141615
    8 3.942326 0.046766 -0.431443 -0.142444 0.057790 -0.889024
    9 1.539099 -0.000002 -0.000007 0.009539 -0.013201 -0.359804
    10 1.196324 -0.000004 0.000003 0.006413 -0.011428 -0.481913
    11 3.883690 -0.046767 0.431443 0.108133 0.003331 -0.692108
    12 1.719576 -0.000013 0.000009 0.016252 -0.018947 -0.472323
    13 1.209185 -0.000010 0.000003 0.012931 -0.012285 -0.317766
    14 3.859859 -0.137949 1.332466 0.389852 -0.046336 -0.649862
    15 1.719433 -0.000006 -0.000003 0.013095 -0.033684 -0.464533
    16 1.099669 -0.000008 0.000002 0.020092 -0.016844 -0.336080
    17 0.806044 -0.348926 1.321258 -1.226742 -0.731982 -0.782444
    18 1.867909 0.054691 -0.042978 -0.005875 0.021215 -0.074856
    19 1.207005 0.000000 0.000000 -0.002036 -0.002805 -0.252489
    20 0.216431 -4.035156 -8.914063 -1.668474 1.286518 2.942954
    21 6.028139 0.000000 -0.000002 0.863207 0.450937 -1.430102
    22 11.692549 0.000000 0.000003 -0.000002 0.000000 -1.795927
    23 11.481695 -0.000080 0.000006 -1.347846 0.765489 1.616474
    24 3.859676 -0.132517 1.193109 0.439257 0.253431 -1.620435
    25 1.312561 0.000002 -0.000001 0.003324 0.000802 -0.127920
    26 0.729367 0.000004 0.000001 -0.000068 -0.000150 -0.820014
    27 3.942295 0.050373 0.431044 0.159545 0.249838 -1.583419
    28 1.539099 0.000011 0.000000 0.019664 0.029549 -0.258047
    29 1.196325 0.000004 -0.000003 -0.002289 -0.000961 -1.148522
    30 3.883663 -0.050280 -0.431043 0.147670 0.076328 -0.963222
    31 1.719580 -0.000008 0.000006 -0.011708 0.077082 -1.103330
    32 1.209188 -0.000013 0.000006 -0.005897 -0.005359 -0.843452
    33 3.859833 -0.148894 -1.331282 -0.267472 0.289818 -0.248988
    34 1.719427 -0.000006 0.000010 -0.089777 0.145532 -1.124723
    35 1.099665 0.000011 0.000004 -0.022378 -0.005739 -0.115952
    36 0.806026 -0.359824 -1.318335 1.243852 0.590260 -0.755486
    37 1.789783 -0.000004 -0.000002 -0.000184 0.000054 0.126744
    38 1.207001 -0.000002 -0.000006 0.000015 0.000100 0.706730
    39 -5.754083 -13.488177 -6.387706 1.481678 -0.132234 -3.146765
    40 -0.000001 1.365388 -0.536964 -1.570798 0.000001 0.000000
    41 -0.000001 -0.513253 -0.829849 1.121305 0.000000 -3.141591
    42 0.000000 -0.854954 0.683403 0.154998 0.000000 -3.141591
    43 -0.456437 0.634190 -1.470296 -1.570797 0.000001 0.000000
    44 0.000008 1.368782 -31.679443 -1.570797 0.000000 0.000000
    45 0.162476 0.431641 -1.771484 -1.592774 0.018724 -0.721931
    46 -0.102380 0.431843 0.420865 -1.570797 0.000001 0.000000
    47 -1.324259 -4.388626 4.558821 -1.953218 -1.154426 0.472942
  time 12
    0 0.000000 -0.000006 0.000000 -1.570781 -1.391896 -1.570809
    1 -4.343750 6.566406 2.332031 1.596636 -1.286515 2.942963
    2 6.028140 0.000007 0.000003 -0.533781 -0.718709 -1.532727
    3 11.692572 0.000000 -0.000019 -0.000037 0.000037 -1.566735
    4 11.481682 -0.000163 -0.000038 -0.111578 0.198861 0.561439
    5 3.859703 -0.142405 -1.191976 -0.462197 0.137002 -0.923610
    6 1.312561 -0.000010 0.000002 -0.000994 0.008387 -0.485618
    7 0.729367 -0.000004 0.000000 -0.002299 -0.000459 -0.170847
    8 3.942326 0.046766 -0.431443 -0.144026 0.065999 -0.847316
    9 1.539099 -0.000002 -0.000007 0.006159 -0.006190 -0.299695
    10 1.196324 -0.000004 0.000003 0.002913 -0.005376 -0.454639
    11 3.883690 -0.046767 0.431443 0.101770 0.013098 -0.636202
    12 1.719576 -0.000013 0.000009 0.009649 -0.005979 -0.415528
    13 1.209185 -0.000010 0.000003 0.005813 -0.004208 -0.263410
    14 3.859859 -0.137949 1.332466 0.378191 -0.044730 -0.586428
    15 1.719433 -0.000006 -0.000003 0.005593 -0.013598 -0.410030
    16 1.099669 -0.000008 0.000002 0.009106 -0.006657 -0.286902
    17 0.806044 -0.348926 1.321258 -1.212199 -0.748302 -0.805884
    18 1.867909 0.054691 -0.042978 -0.005839 0.021837 -0.075446
    19 1.207005 0.000000 0.000000 -0.002348 -0.002086 -0.257199
    20 0.216431 -4.035156 -8.914063 -1.668474 1.286518 2.942954
    21 6.028139 0.000000 -0.000002 0.885280 0.456695 -1.414436
    22 11.692549 0.000000 0.000003 -0.000002 0.000000 -1.804255
    23 11.481695 -0.000080 0.000006 -1.379014 0.748779 1.616188
    24 3.859676 -0.132517 1.193109 0.439257 0.253431 -1.620435
    25 1.312561 0.000002 -0.000001 0.003324 0.000802 -0.127920
    26 0.729367 0.000004 0.000001 -0.000068 -0.000150 -0.820014
    27 3.942295 0.050373 0.431044 0.159545 0.249838 -1.583419
    28 1.539099 0.000011 0.000000 0.019664 0.029549 -0.258047
    29 1.196325 0.000004 -0.000003 -0.002289 -0.000961 -1.148522
    30 3.883663 -0.050280 -0.431043 0.147670 0.076328 -0.963222
    31 1.719580 -0.000008 0.000006 -0.011708 0.077082 -1.103330
    32 1.209188 -0.000013 0.000006 -0.005897 -0.005359 -0.843452
    33 3.859833 -0.148894 -1.331282 -0.267472 0.289818 -0.248988
    34 1.719427 -0.000006 0.000010 -0.089777 0.145532 -1.124723
    35 1.099665 0.000011 0.000004 -0.022378 -0.005739 -0.115952
    36 0.806026 -0.359824 -1.318335 1.243852 0.590260 -0.755486
    37 1.789783 -0.000004 -0.000002 -0.000184 0.000054 0.126744
    38 1.207001 -0.000002 -0.000006 0.000015 0.000100 0.706730
    39 -6.019716 -13.593649 -6.415051 1.470629 -0.148163 -3.139048
    40 -0.000001 1.365388 -0.536964 -1.570798 0.000001 0.000000
    41 -0.000001 -0.513253 -0.829849 1.121305 0.000000 -3.141591
    42 0.000000 -0.854954 0.683403 0.154998 0.000000 -3.141591
    43 -0.456437 0.634190 -1.470296 -1.570797 0.000001 0.000000
    44 0.000008 1.368782 -31.679443 -1.570797 0.000000 0.000000
    45 0.162476 0.431641 -1.771484 -1.592774 0.018724 -0.721931
    46 -0.102380 0.431843 0.420865 -1.570797 0.000001 0.000000
    47 -1.171911 -3.837828 3.953334 -1.803027 -1.033186 0.323878
  time 13
    0 0.000000 -0.000006 0.000000 -1.570781 -1.391896 -1.570809
    1 -4.343750 6.566406 2.332031 1.596636 -1.286515 2.942963
    2 6.028140 0.000007 0.000003 -0.485028 -0.754116 -1.612809
    3 11.692572 0.000000 -0.000019 -0.000037 0.000037 -1.466229
    4 11.481682 -0.000163 -0.000038 -0.267806 0.258574 0.542677
    5 3.859703 -0.142405 -1.191976 -0.463634 0.147740 -0.891530
    6 1.312561 -0.000010 0.000002 -0.000227 0.004001 -0.451706
    7 0.729367 -0.000004 0.000000 -0.000597 -0.000135 -0.204975
    8 3.942326 0.046766 -0.431443 -0.146974 0.071308 -0.820484
    9 1.539099 -0.000002 -0.000007 0.003091 -0.001624 -0.261316
    10 1.196324 -0.000004 0.000003 0.000744 -0.001409 -0.437030
    11 3.883690 -0.046767 0.431443 0.094543 0.019510 -0.600451
    12 1.719576 -0.000013 0.000009 0.004363 0.002482 -0.379266
    13 1.209185 -0.000010 0.000003 0.001474 0.001162 -0.228659
    14 3.859859 -0.137949 1.332466 0.366423 -0.043352 -0.545973
    15 1.719433 -0.000006 -0.000003 0.001374 -0.000559 -0.375237
    16 1.099669 -0.000008 0.000002 0.002337 0.000138 -0.255438
    17 0.806044 -0.348926 1.321258 -1.202404 -0.758731 -0.821384
    18 1.867909 0.054691 -0.042978 -0.005731 0.022078 -0.075712
    19 1.207005 0.000000 0.000000 -0.002552 -0.001571 -0.259401
    20 0.216431 -4.035156 -8.914063 -1.668474 1.286518 2.942954
    21 6.028139 0.000000 -0.000002 0.913419 0.458102 -1.391679
    22 11.692549 0.000000 0.000003 -0.000002 0.000000 -1.815359
    23 11.481695 -0.000080 0.000006 -1.409675 0.726886 1.599345
    24 3.859676 -0.132517 1.193109 0.439257 0.253431 -1.620435
    25 1.312561 0.000002 -0.000001 0.003324 0.000802 -0.127920
    26 0.729367 0.000004 0.000001 -0.000068 -0.000150 -0.820014
    27 3.942295 0.050373 0.431044 0.159545 0.249838 -1.583419
    28 1.539099 0.000011 0.000000 0.019664 0.029549 -0.258047
    29 1.196325 0.000004 -0.000003 -0.002289 -0.000961 -1.148522
    30 3.883663 -0.050280 -0.431043 0.147670 0.076328 -0.963222
    31 1.719580 -0.000008 0.000006 -0.011708 0.077082 -1.103330
    32 1.209188 -0.000013 0.000006 -0.005897 -0.005359 -0.843452
    33 3.859833 -0.148894 -1.331282 -0.267472 0.289818 -0.248988
    34 1.719427 -0.000006 0.000010 -0.089777 0.145532 -1.124723
    35 1.099665 0.000011 0.000004 -0.022378 -0.005739 -0.115952
    36 0.806026 -0.359824 -1.318335 1.243852 0.590260 -0.755486
    37 1.789783 -0.000004 -0.000002 -0.000184 0.000054 0.126744
    38 1.207001 -0.000002 -0.000006 0.000015 0.000100 0.706730
    39 -6.343944 -13.699121 -6.438489 1.468152 -0.153872 -3.131331
    40 -0.000001 1.365388 -0.536964 -1.570798 0.000001 0.000000
    41 -0.000001 -0.513253 -0.829849 1.121305 0.000000 -3.141591
    42 0.000000 -0.854954 0.683403 0.154998 0.000000 -3.141591
    43 -0.456437 0.634190 -1.470296 -1.570797 0.000001 0.000000
    44 0.000008 1.368782 -31.679443 -1.570797 0.000000 0.000000
    45 0.162476 0.431641 -1.771484 -1.592774 0.018724 -0.721931
    46 -0.102380 0.431843 0.420865 -1.570797 0.000001 0.000000
    47 -1.007843 -3.267498 3.324409 -1.708609 -0.898176 0.227710
  time 14
    0 0.000000 -0.000006 0.000000 -1.570781 -1.391896 -1.570809
    1 -4.343750 6.566406 2.332031 1.596636 -1.286515 2.942963
    2 6.028140 0.000007 0.000003 -0.430008 -0.789437 -1.702112
    3 11.692572 0.000000 -0.000019 -0.000025 0.000037 -1.358101
    4 11.481682 -0.000163 -0.000038 -0.372666 0.288754 0.524975
    5 3.859703 -0.142405 -1.191976 -0.468130 0.151539 -0.880191
    6 1.312561 -0.000010 0.000002 0.000001 -0.000002 -0.439725
    7 0.729367 -0.000004 0.000000 0.000002 -0.000003 -0.244304
    8 3.942326 0.046766 -0.431443 -0.151780 0.073202 -0.810985
    9 1.539099 -0.000002 -0.000007 -0.000001 0.000006 -0.247791
    10 1.196324 -0.000004 0.000003 0.000001 -0.000007 -0.430811
    11 3.883690 -0.046767 0.431443 0.085902 0.021835 -0.587859
    12 1.719576 -0.000013 0.000009 0.000001 0.005514 -0.366480
    13 1.209185 -0.000010 0.000003 0.000000 0.003091 -0.216394
    14 3.859859 -0.137949 1.332466 0.354450 -0.042753 -0.531716
    15 1.719433 -0.000006 -0.000003 -0.000004 0.004079 -0.363006
    16 1.099669 -0.000008 0.000002 0.000004 0.002595 -0.244332
    17 0.806044 -0.348926 1.321258 -1.198847 -0.762380 -0.826947
    18 1.867909 0.054691 -0.042978 -0.005551 0.022147 -0.075771
    19 1.207005 0.000000 0.000000 -0.002636 -0.001307 -0.259939
    20 0.216431 -4.035156 -8.914063 -1.668474 1.286518 2.942954
    21 6.028139 0.000000 -0.000002 0.945077 0.455728 -1.364731
    22 11.692549 0.000000 0.000003 -0.000002 0.000000 -1.827208
    23 11.481695 -0.000080 0.000006 -1.437878 0.701037 1.569883
    24 3.859676 -0.132517 1.193109 0.439257 0.253431 -1.620435
    25 1.312561 0.000002 -0.000001 0.003324 0.000802 -0.127920
    26 0.729367 0.000004 0.000001 -0.000068 -0.000150 -0.820014
    27 3.942295 0.050373 0.431044 0.159545 0.249838 -1.583419
    28 1.539099 0.000011 0.000000 0.019664 0.029549 -0.258047
    29 1.196325 0.000004 -0.000003 -0.002289 -0.000961 -1.148522
    30 3.883663 -0.050280 -0.431043 0.147670 0.076328 -0.963222
    31 1.719580 -0.000008 0.000006 -0.011708 0.077082 -1.103330
    32 1.209188 -0.000013 0.000006 -0.005897 -0.005359 -0.843452
    33 3.859833 -0.148894 -1.331282 -0.267472 0.289806 -0.248988
    34 1.719427 -0.000006 0.000010 -0.089777 0.145532 -1.124723
    35 1.099665 0.000011 0.000004 -0.022378 -0.005739 -0.115952
    36 0.806026 -0.359824 -1.318335 1.243852 0.590260 -0.755486
    37 1.789783 -0.000004 -0.000002 -0.000184 0.000054 0.126744
    38 1.207001 -0.000002 -0.000006 0.000015 0.000100 0.706730
    39 -6.691611 -13.800687 -6.461927 1.472820 -0.151224 -3.123890
    40 -0.000001 1.365388 -0.536964 -1.570798 0.000001 0.000000
    41 -0.000001 -0.513253 -0.829849 1.121305 0.000000 -3.141591
    42 0.000000 -0.854954 0.683403 0.154998 0.000000 -3.141591
    43 -0.456437 0.634190 -1.470296 -1.570797 0.000001 0.000000
    44 0.000008 1.368782 -31.679443 -1.570797 0.000000 0.000000
    45 0.162476 0.431641 -1.771484 -1.592774 0.018724 -0.721931
    46 -0.102380 0.431843 0.420865 -1.570797 0.000001 0.000000
    47 -0.843776 -2.689355 2.687670 -1.648662 -0.756674 0.162967
  time 15
    0 0.000000 -0.000006 0.000000 -1.570781 -1.391896 -1.570809
    1 -4.343750 6.566406 2.332031 1.596636 -1.286515 2.942963
    2 6.028140 0.000007 0.000003 -0.369550 -0.822173 -1.796981
    3 11.692572 0.000000 -0.000019 -0.000025 0.000037 -1.247695
    4 11.481682 -0.000163 -0.000038 -0.434484 0.297332 0.512316
    5 3.859703 -0.142405 -1.191976 -0.477414 0.141879 -0.899950
    6 1.312561 -0.000010 0.000002 -0.001425 -0.003562 -0.461506
    7 0.729367 -0.000004 0.000000 -0.001041 -0.001226 -0.298375
    8 3.942326 0.046766 -0.431443 -0.160385 0.065664 -0.831102
    9 1.539099 -0.000002 -0.000007 -0.003177 -0.005087 -0.268766
    10 1.196324 -0.000004 0.000003 0.002182 -0.004669 -0.451812
    11 3.883690 -0.046767 0.431443 0.073714 0.016718 -0.607905
    12 1.719576 -0.000013 0.000009 -0.003594 -0.002588 -0.386032
    13 1.209185 -0.000010 0.000003 0.002517 -0.004603 -0.235968
    14 3.859859 -0.137949 1.332466 0.340584 -0.045905 -0.551184
    15 1.719433 -0.000006 -0.000003 0.000092 -0.006947 -0.380196
    16 1.099669 -0.000008 0.000002 0.004439 -0.007508 -0.261540
    17 0.806044 -0.348926 1.321258 -1.201589 -0.756593 -0.822814
    18 1.867909 0.054691 -0.042978 -0.005108 0.020887 -0.074827
    19 1.207005 0.000000 0.000000 -0.002516 -0.001152 -0.250339
    20 0.216431 -4.035156 -8.914063 -1.668474 1.286518 2.942954
    21 6.028139 0.000000 -0.000002 0.977438 0.450278 -1.336558
    22 11.692549 0.000000 0.000003 -0.000002 0.000000 -1.837906
    23 11.481695 -0.000080 0.000006 -1.461452 0.673005 1.531856
    24 3.859676 -0.132517 1.193109 0.439257 0.253431 -1.620435
    25 1.312561 0.000002 -0.000001 0.003324 0.000802 -0.127920
    26 0.729367 0.000004 0.000001 -0.000068 -0.000150 -0.820014
    27 3.942295 0.050373 0.431044 0.159545 0.249838 -1.583419
    28 1.539099 0.000011 0.000000 0.019664 0.029549 -0.258047
    29 1.196325 0.000004 -0.000003 -0.002289 -0.000961 -1.148522
    30 3.883663 -0.050280 -0.431043 0.147670 0.076328 -0.963222
    31 1.719580 -0.000008 0.000006 -0.011708 0.077082 -1.103330
    32 1.209188 -0.000013 0.000006 -0.005897 -0.005359 -0.843452
    33 3.859833 -0.148894 -1.331282 -0.267472 0.289806 -0.248988
    34 1.719427 -0.000006 0.000010 -0.089777 0.145532 -1.124723
    35 1.099665 0.000011 0.000004 -0.022378 -0.005739 -0.115952
    36 0.806026 -0.359824 -1.318335 1.243852 0.590260 -0.755486
    37 1.789783 -0.000004 -0.000002 -0.000184 0.000054 0.126744
    38 1.207001 -0.000002 -0.000006 0.000015 0.000100 0.706730
    39 -7.039278 -13.902252 -6.481459 1.483202 -0.142081 -3.116724
    40 -0.000001 1.365388 -0.536964 -1.570798 0.000001 0.000000
    41 -0.000001 -0.513253 -0.829849 1.121305 0.000000 -3.141591
    42 0.000000 -0.854954 0.683403 0.154998 0.000000 -3.141591
    43 -0.456437 0.634190 -1.470296 -1.570797 0.000001 0.000000
    44 0.000008 1.368782 -31.679443 -1.570797 0.000000 0.000000
    45 0.162476 0.431641 -1.771484 -1.592774 0.018724 -0.721931
    46 -0.102380 0.431843 0.420865 -1.570797 0.000001 0.000000
    47 -0.683615 -2.119025 2.054839 -1.610809 -0.614552 0.117228
  time 16
    0 0.000000 -0.000006 0.000000 -1.570781 -1.391896 -1.570809
    1 -4.343750 6.566406 2.332031 1.596636 -1.286515 2.942963
    2 6.028140 0.000007 0.000003 -0.307249 -0.850042 -1.891435
    3 11.692572 0.000000 -0.000019 -0.000025 0.000025 -1.142274
    4 11.481682 -0.000163 -0.000038 -0.462736 0.291621 0.504801
    5 3.859703 -0.142405 -1.191976 -0.490511 0.115801 -0.951928
    6 1.312561 -0.000010 0.000002 -0.005081 -0.006857 -0.519262
    7 0.729367 -0.000004 0.000000 -0.003665 -0.004617 -0.371327
    8 3.942326 0.046766 -0.431443 -0.172657 0.045242 -0.884220
    9 1.539099 -0.000002 -0.000007 -0.005814 -0.018690 -0.324377
    10 1.196324 -0.000004 0.000003 0.008450 -0.016797 -0.507490
    11 3.883690 -0.046767 0.431443 0.057798 0.002588 -0.660880
    12 1.719576 -0.000013 0.000009 -0.005692 -0.024124 -0.437854
    13 1.209185 -0.000010 0.000003 0.009911 -0.024713 -0.287909
    14 3.859859 -0.137949 1.332466 0.324405 -0.054833 -0.602640
    15 1.719433 -0.000006 -0.000003 0.001267 -0.036117 -0.425773
    16 1.099669 -0.000008 0.000002 0.017017 -0.033886 -0.307316
    17 0.806044 -0.348926 1.321258 -1.208563 -0.741341 -0.812118
    18 1.867909 0.054691 -0.042978 -0.004305 0.017486 -0.072349
    19 1.207005 0.000000 0.000000 -0.002144 -0.000924 -0.224970
    20 0.216431 -4.035156 -8.914063 -1.668474 1.286518 2.942954
    21 6.028139 0.000000 -0.000002 1.007688 0.442718 -1.310061
    22 11.692549 0.000000 0.000003 -0.000002 0.000000 -1.845828
    23 11.481695 -0.000080 0.000006 -1.478952 0.645110 1.489033
    24 3.859676 -0.132517 1.193109 0.439257 0.253431 -1.620435
    25 1.312561 0.000002 -0.000001 0.003324 0.000802 -0.127920
    26 0.729367 0.000004 0.000001 -0.000068 -0.000150 -0.820014
    27 3.942295 0.050373 0.431044 0.159545 0.249838 -1.583419
    28 1.539099 0.000011 0.000000 0.019664 0.029549 -0.258047
    29 1.196325 0.000004 -0.000003 -0.002289 -0.000961 -1.148522
    30 3.883663 -0.050280 -0.431043 0.147670 0.076328 -0.963222
    31 1.719580 -0.000008 0.000006 -0.011708 0.077082 -1.103330
    32 1.209188 -0.000013 0.000006 -0.005897 -0.005359 -0.843452
    33 3.859833 -0.148894 -1.331282 -0.267472 0.289818 -0.248988
    34 1.719427 -0.000006 0.000010 -0.089777 0.145532 -1.124723
    35 1.099665 0.000011 0.000004 -0.022378 -0.005739 -0.115952
    36 0.806026 -0.359824 -1.318335 1.243852 0.590260 -0.755486
    37 1.789783 -0.000004 -0.000002 -0.000184 0.000054 0.126744
    38 1.207001 -0.000002 -0.000006 0.000015 0.000100 0.706730
    39 -7.355694 -13.992099 -6.500991 1.497776 -0.128180 -3.110201
    40 -0.000001 1.365388 -0.536964 -1.570798 0.000001 0.000000
    41 -0.000001 -0.513253 -0.829849 1.121305 0.000000 -3.141591
    42 0.000000 -0.854954 0.683403 0.154998 0.000000 -3.141591
    43 -0.456437 0.634190 -1.470296 -1.570797 0.000001 0.000000
    44 0.000008 1.368782 -31.679443 -1.570797 0.000000 0.000000
    45 0.162476 0.431641 -1.771484 -1.592774 0.018724 -0.721931
    46 -0.102380 0.431843 0.420865 -1.570797 0.000001 0.000000
    47 -0.527360 -1.568227 1.453258 -1.587708 -0.477020 0.083417
  time 17
    0 0.000000 -0.000006 0.000000 -1.570781 -1.391896 -1.570809
    1 -4.343750 6.566406 2.332031 1.596636 -1.286515 2.942963
    2 6.028140 0.000007 0.000003 -0.250201 -0.871623 -1.976252
    3 11.692572 0.000000 -0.000019 -0.000013 0.000025 -1.051598
    4 11.481682 -0.000163 -0.000038 -0.466367 0.278479 0.501775
    5 3.859703 -0.142405 -1.191976 -0.503804 0.077834 -1.025153
    6 1.312561 -0.000010 0.000002 -0.010078 -0.010141 -0.601398
    7 0.729367 -0.000004 0.000000 -0.007045 -0.009663 -0.455386
    8 3.942326 0.046766 -0.431443 -0.185469 0.015352 -0.959338
    9 1.539099 -0.000002 -0.000007 -0.006784 -0.038141 -0.403435
    10 1.196324 -0.000004 0.000003 0.018505 -0.033396 -0.586836
    11 3.883690 -0.046767 0.431443 0.040924 -0.018589 -0.735928
    12 1.719576 -0.000013 0.000009 -0.004901 -0.054744 -0.511562
    13 1.209185 -0.000010 0.000003 0.022219 -0.052601 -0.362087
    14 3.859859 -0.137949 1.332466 0.307842 -0.068508 -0.675662
    15 1.719433 -0.000006 -0.000003 0.005233 -0.077416 -0.490772
    16 1.099669 -0.000008 0.000002 0.036967 -0.070307 -0.373055
    17 0.806044 -0.348926 1.321258 -1.217903 -0.719677 -0.797496
    18 1.867909 0.054691 -0.042978 -0.003262 0.012687 -0.068839
    19 1.207005 0.000000 0.000000 -0.001593 -0.000672 -0.189106
    20 0.216431 -4.035156 -8.914063 -1.668474 1.286518 2.942954
    21 6.028139 0.000000 -0.000002 1.032926 0.434191 -1.287755
    22 11.692549 0.000000 0.000003 -0.000002 0.000000 -1.850161
    23 11.481695 -0.000080 0.000006 -1.489727 0.620079 1.445183
    24 3.859676 -0.132517 1.193109 0.439257 0.253431 -1.620435
    25 1.312561 0.000002 -0.000001 0.003324 0.000802 -0.127920
    26 0.729367 0.000004 0.000001 -0.000068 -0.000150 -0.820014
    27 3.942295 0.050373 0.431044 0.159545 0.249838 -1.583419
    28 1.539099 0.000011 0.000000 0.019664 0.029549 -0.258047
    29 1.196325 0.000004 -0.000003 -0.002289 -0.000961 -1.148522
    30 3.883663 -0.050280 -0.431043 0.147670 0.076328 -0.963222
    31 1.719580 -0.000008 0.000006 -0.011708 0.077082 -1.103330
    32 1.209188 -0.000013 0.000006 -0.005897 -0.005359 -0.843452
    33 3.859833 -0.148894 -1.331282 -0.267472 0.289818 -0.248988
    34 1.719427 -0.000006 0.000010 -0.089777 0.145532 -1.124723
    35 1.099665 0.000011 0.000004 -0.022378 -0.005739 -0.115952
    36 0.806026 -0.359824 -1.318335 1.243852 0.590260 -0.755486
    37 1.789783 -0.000004 -0.000002 -0.000184 0.000054 0.126744
    38 1.207001 -0.000002 -0.000006 0.000015 0.000100 0.706730
    39 -7.609608 -14.074133 -6.520523 1.514826 -0.111383 -3.104230
    40 -0.000001 1.365388 -0.536964 -1.570798 0.000001 0.000000
    41 -0.000001 -0.513253 -0.829849 1.121305 0.000000 -3.141591
    42 0.000000 -0.854954 0.683403 0.154998 0.000000 -3.141591
    43 -0.456437 0.634190 -1.470296 -1.570797 0.000001 0.000000
    44 0.000008 1.368782 -31.679443 -1.570797 0.000000 0.000000
    45 0.162476 0.431641 -1.771484 -1.592774 0.018724 -0.721931
    46 -0.102380 0.431843 0.420865 -1.570797 0.000001 0.000000
    47 -0.386731 -1.064306 0.894647 -1.574898 -0.348751 0.057586
  time 18
    0 0.000000 -0.000006 0.000000 -1.570781 -1.391896 -1.570809
    1 -4.343750 6.566406 2.332031 1.596636 -1.286515 2.942963
    2 6.028140 0.000007 0.000003 -0.208729 -0.886440 -2.038307
    3 11.692572 0.000000 -0.000019 -0.000013 0.000025 -0.988417
    4 11.481682 -0.000163 -0.000038 -0.453171 0.265050 0.503944
    5 3.859703 -0.142405 -1.191976 -0.514148 0.033263 -1.108679
    6 1.312561 -0.000010 0.000002 -0.015579 -0.013557 -0.695873
    7 0.729367 -0.000004 0.000000 -0.010461 -0.015751 -0.542450
    8 3.942326 0.046766 -0.431443 -0.196063 -0.019978 -1.045374
    9 1.539099 -0.000002 -0.000007 -0.005274 -0.060432 -0.494542
    10 1.196324 -0.000004 0.000003 0.031676 -0.051433 -0.678431
    11 3.883690 -0.046767 0.431443 0.025667 -0.044176 -0.821904
    12 1.719576 -0.000013 0.000009 -0.000287 -0.089680 -0.596635
    13 1.209185 -0.000010 0.000003 0.038938 -0.083450 -0.448034
    14 3.859859 -0.137949 1.332466 0.292813 -0.085382 -0.759504
    15 1.719433 -0.000006 -0.000003 0.013143 -0.124492 -0.566060
    16 1.099669 -0.000008 0.000002 0.062927 -0.110468 -0.449816
    17 0.806044 -0.348926 1.321258 -1.227870 -0.694701 -0.781393
    18 1.867909 0.054691 -0.042978 -0.002147 0.007180 -0.064857
    19 1.207005 0.000000 0.000000 -0.000946 -0.000420 -0.147943
    20 0.216431 -4.035156 -8.914063 -1.668474 1.286518 2.942954
    21 6.028139 0.000000 -0.000002 1.050250 0.426455 -1.271960
    22 11.692549 0.000000 0.000003 -0.000002 0.000000 -1.849823
    23 11.481695 -0.000080 0.000006 -1.493632 0.600845 1.403673
    24 3.859676 -0.132517 1.193109 0.439257 0.253431 -1.620435
    25 1.312561 0.000002 -0.000001 0.003324 0.000802 -0.127920
    26 0.729367 0.000004 0.000001 -0.000068 -0.000150 -0.820014
    27 3.942295 0.050373 0.431044 0.159545 0.249838 -1.583419
    28 1.539099 0.000011 0.000000 0.019664 0.029549 -0.258047
    29 1.196325 0.000004 -0.000003 -0.002289 -0.000961 -1.148522
    30 3.883663 -0.050280 -0.431043 0.147670 0.076328 -0.963222
    31 1.719580 -0.000008 0.000006 -0.011708 0.077082 -1.103330
    32 1.209188 -0.000013 0.000006 -0.005897 -0.005359 -0.843452
    33 3.859833 -0.148894 -1.331282 -0.267472 0.289818 -0.248988
    34 1.719427 -0.000006 0.000010 -0.089777 0.145532 -1.124723
    35 1.099665 0.000011 0.000004 -0.022378 -0.005739 -0.115952
    36 0.806026 -0.359824 -1.318335 1.243852 0.590260 -0.755486
    37 1.789783 -0.000004 -0.000002 -0.000184 0.000054 0.126744
    38 1.207001 -0.000002 -0.000006 0.000015 0.000100 0.706730
    39 -7.769769 -14.140541 -6.540054 1.532733 -0.093551 -3.099085
    40 -0.000001 1.365388 -0.536964 -1.570798 0.000001 0.000000
    41 -0.000001 -0.513253 -0.829849 1.121305 0.000000 -3.141591
    42 0.000000 -0.854954 0.683403 0.154998 0.000000 -3.141591
    43 -0.456437 0.634190 -1.470296 -1.570797 0.000001 0.000000
    44 0.000008 1.368782 -31.679443 -1.570797 0.000000 0.000000
    45 0.162476 0.431641 -1.771484 -1.592774 0.018724 -0.721931
    46 -0.102380 0.431843 0.420865 -1.570797 0.000001 0.000000
    47 -0.257820 -0.611167 0.394632 -1.569069 -0.234292 0.037348
  time 19
    0 0.000000 -0.000006 0.000000 -1.570781 -1.391896 -1.570809
    1 -4.343750 6.566406 2.332031 1.596636 -1.286515 2.942963
    2 6.028140 0.000007 0.000003 -0.194259 -0.894581 -2.063810
    3 11.692572 0.000000 -0.000019 -0.000013 0.000025 -0.965979
    4 11.481682 -0.000163 -0.000038 -0.430321 0.258861 0.513224
    5 3.859703 -0.142405 -1.191976 -0.519959 -0.011907 -1.191783
    6 1.312561 -0.000010 0.000002 -0.020828 -0.017020 -0.790379
    7 0.729367 -0.000004 0.000000 -0.013397 -0.022079 -0.624237
    8 3.942326 0.046766 -0.431443 -0.202858 -0.055956 -1.131192
    9 1.539099 -0.000002 -0.000007 -0.001343 -0.082436 -0.585820
    10 1.196324 -0.000004 0.000003 0.046453 -0.068199 -0.770323
    11 3.883690 -0.046767 0.431443 0.013839 -0.070794 -0.907698
    12 1.719576 -0.000013 0.000009 0.007803 -0.124027 -0.682250
    13 1.209185 -0.000010 0.000003 0.058293 -0.112740 -0.534756
    14 3.859859 -0.137949 1.332466 0.280757 -0.103203 -0.843237
    15 1.719433 -0.000006 -0.000003 0.024672 -0.170836 -0.642257
    16 1.099669 -0.000008 0.000002 0.092055 -0.148507 -0.528011
    17 0.806044 -0.348926 1.321258 -1.237132 -0.669647 -0.765910
    18 1.867909 0.054691 -0.042978 -0.001069 0.001639 -0.060875
    19 1.207005 0.000000 0.000000 -0.000287 -0.000217 -0.106780
    20 0.216431 -4.035156 -8.914063 -1.668474 1.286518 2.942954
    21 6.028139 0.000000 -0.000002 1.058252 0.420609 -1.263837
    22 11.692549 0.000000 0.000003 -0.000002 0.000000 -1.844812
    23 11.481695 -0.000080 0.000006 -1.491752 0.589319 1.367531
    24 3.859676 -0.132517 1.193109 0.439257 0.253431 -1.620435
    25 1.312561 0.000002 -0.000001 0.003324 0.000802 -0.127920
    26 0.729367 0.000004 0.000001 -0.000068 -0.000150 -0.820014
    27 3.942295 0.050373 0.431044 0.159545 0.249838 -1.583419
    28 1.539099 0.000011 0.000000 0.019664 0.029549 -0.258047
    29 1.196325 0.000004 -0.000003 -0.002289 -0.000961 -1.148522
    30 3.883663 -0.050280 -0.431043 0.147670 0.076328 -0.963222
    31 1.719580 -0.000008 0.000006 -0.011708 0.077082 -1.103330
    32 1.209188 -0.000013 0.000006 -0.005897 -0.005359 -0.843452
    33 3.859833 -0.148894 -1.331282 -0.267472 0.289806 -0.248988
    34 1.719427 -0.000006 0.000010 -0.089777 0.145532 -1.124723
    35 1.099665 0.000011 0.000004 -0.022378 -0.005739 -0.115952
    36 0.806026 -0.359824 -1.318335 1.243852 0.590260 -0.755486
    37 1.789783 -0.000004 -0.000002 -0.000184 0.000054 0.126744
    38 1.207001 -0.000002 -0.000006 0.000015 0.000100 0.706730
    39 -7.820552 -14.191324 -6.563493 1.549783 -0.076506 -3.094951
    40 -0.000001 1.365388 -0.536964 -1.570798 0.000001 0.000000
    41 -0.000001 -0.513253 -0.829849 1.121305 0.000000 -3.141591
    42 0.000000 -0.854954 0.683403 0.154998 0.000000 -3.141591
    43 -0.456437 0.634190 -1.470296 -1.570797 0.000001 0.000000
    44 0.000008 1.368782 -31.679443 -1.570797 0.000000 0.000000
    45 0.162476 0.431641 -1.771484 -1.592774 0.018724 -0.721931
    46 -0.102380 0.431843 0.420865 -1.570797 0.000001 0.000000
    47 -0.152348 -0.232249 -0.023350 -1.567702 -0.137946 0.021553
  time 20
    0 0.000000 -0.000006 0.000000 -1.570781 -1.391896 -1.570809
    1 -4.343750 6.566406 2.332031 1.596636 -1.286515 2.942963
    2 6.028140 0.000007 0.000003 -0.197946 -0.898889 -2.064807
    3 11.692572 0.000000 -0.000019 -0.000013 0.000025 -0.969469
    4 11.481682 -0.000163 -0.000038 -0.407206 0.259482 0.525984
    5 3.859703 -0.142405 -1.191976 -0.521519 -0.051336 -1.263885
    6 1.312561 -0.000010 0.000002 -0.025155 -0.020148 -0.872456
    7 0.729367 -0.000004 0.000000 -0.015578 -0.027759 -0.692520
    8 3.942326 0.046766 -0.431443 -0.205842 -0.087511 -1.205792
    9 1.539099 -0.000002 -0.000007 0.003906 -0.101156 -0.665359
    10 1.196324 -0.000004 0.000003 0.060523 -0.081610 -0.850475
    11 3.883690 -0.046767 0.431443 0.006073 -0.094547 -0.982203
    12 1.719576 -0.000013 0.000009 0.017546 -0.153162 -0.757209
    13 1.209185 -0.000010 0.000003 0.077205 -0.136757 -0.610824
    14 3.859859 -0.137949 1.332466 0.272320 -0.119311 -0.916079
    15 1.719433 -0.000006 -0.000003 0.037688 -0.210301 -0.709487
    16 1.099669 -0.000008 0.000002 0.119901 -0.179631 -0.597265
    17 0.806044 -0.348926 1.321258 -1.244670 -0.647696 -0.752889
    18 1.867909 0.054691 -0.042978 -0.000170 -0.003160 -0.057394
    19 1.207005 0.000000 0.000000 0.000289 -0.000073 -0.070915
    20 0.216431 -4.035156 -8.914063 -1.668474 1.286518 2.942954
    21 6.028139 0.000000 -0.000002 1.059571 0.416653 -1.261194
    22 11.692549 0.000000 0.000003 -0.000002 0.000000 -1.838109
    23 11.481695 -0.000080 0.000006 -1.486907 0.584204 1.339039
    24 3.859676 -0.132517 1.193109 0.439257 0.253431 -1.620435
    25 1.312561 0.000002 -0.000001 0.003324 0.000802 -0.127920
    26 0.729367 0.000004 0.000001 -0.000068 -0.000150 -0.820014
    27 3.942295 0.050373 0.431044 0.159545 0.249838 -1.583419
    28 1.539099 0.000011 0.000000 0.019664 0.029549 -0.258047
    29 1.196325 0.000004 -0.000003 -0.002289 -0.000961 -1.148522
    30 3.883663 -0.050280 -0.431043 0.147670 0.076328 -0.963222
    31 1.719580 -0.000008 0.000006 -0.011708 0.077082 -1.103330
    32 1.209188 -0.000013 0.000006 -0.005897 -0.005359 -0.843452
    33 3.859833 -0.148894 -1.331282 -0.267472 0.289818 -0.248988
    34 1.719427 -0.000006 0.000010 -0.089777 0.145532 -1.124746
    35 1.099665 0.000011 0.000004 -0.022378 -0.005739 -0.115952
    36 0.806026 -0.359824 -1.318335 1.243852 0.590260 -0.755486
    37 1.789783 -0.000004 -0.000002 -0.000184 0.000054 0.126744
    38 1.207001 -0.000002 -0.000006 0.000015 0.000100 0.706730
    39 -7.793207 -14.226481 -6.583025 1.564071 -0.062067 -3.091736
    40 -0.000001 1.365388 -0.536964 -1.570798 0.000001 0.000000
    41 -0.000001 -0.513253 -0.829849 1.121305 0.000000 -3.141591
    42 0.000000 -0.854954 0.683403 0.154998 0.000000 -3.141591
    43 -0.456437 0.634190 -1.470296 -1.570797 0.000001 0.000000
    44 0.000008 1.368782 -31.679443 -1.570797 0.000000 0.000000
    45 0.162476 0.431641 -1.771484 -1.592774 0.018724 -0.721931
    46 -0.102380 0.431843 0.420865 -1.570797 0.000001 0.000000
    47 -0.070315 0.056822 -0.339766 -1.568637 -0.064052 0.009872
  time 21
    0 0.000000 -0.000006 0.000000 -1.570781 -1.391896 -1.570809
    1 -4.343750 6.566406 2.332031 1.596636 -1.286515 2.942963
    2 6.028140 0.000007 0.000003 -0.204397 -0.901947 -2.061318
    3 11.692572 0.000000 -0.000019 -0.000013 0.000025 -0.976094
    4 11.481682 -0.000163 -0.000038 -0.390910 0.260940 0.536474
    5 3.859703 -0.142405 -1.191976 -0.520703 -0.079044 -1.314713
    6 1.312561 -0.000010 0.000002 -0.028067 -0.022437 -0.930181
    7 0.729367 -0.000004 0.000000 -0.016896 -0.031834 -0.739244
    8 3.942326 0.046766 -0.431443 -0.206322 -0.109755 -1.258336
    9 1.539099 -0.000002 -0.000007 0.008616 -0.114003 -0.721451
    10 1.196324 -0.000004 0.000003 0.071046 -0.090347 -0.907016
    11 3.883690 -0.046767 0.431443 0.001986 -0.111494 -1.034636
    12 1.719576 -0.000013 0.000009 0.025876 -0.173152 -0.810317
    13 1.209185 -0.000010 0.000003 0.091622 -0.152757 -0.664746
    14 3.859859 -0.137949 1.332466 0.267502 -0.130900 -0.967354
    15 1.719433 -0.000006 -0.000003 0.048534 -0.237518 -0.757462
    16 1.099669 -0.000008 0.000002 0.140885 -0.200352 -0.646752
    17 0.806044 -0.348926 1.321258 -1.249716 -0.632106 -0.743933
    18 1.867909 0.054691 -0.042978 0.000441 -0.006578 -0.054946
    19 1.207005 0.000000 0.000000 0.000708 -0.000001 -0.045547
    20 0.216431 -4.035156 -8.914063 -1.668474 1.286518 2.942954
    21 6.028139 0.000000 -0.000002 1.057725 0.414455 -1.261516
    22 11.692549 0.000000 0.000003 -0.000002 0.000000 -1.832083
    23 11.481695 -0.000080 0.000006 -1.482062 0.582976 1.320311
    24 3.859676 -0.132517 1.193109 0.439257 0.253431 -1.620435
    25 1.312561 0.000002 -0.000001 0.003324 0.000802 -0.127920
    26 0.729367 0.000004 0.000001 -0.000068 -0.000150 -0.820014
    27 3.942295 0.050373 0.431044 0.159545 0.249838 -1.583419
    28 1.539099 0.000011 0.000000 0.019664 0.029549 -0.258047
    29 1.196325 0.000004 -0.000003 -0.002289 -0.000961 -1.148522
    30 3.883663 -0.050280 -0.431043 0.147670 0.076328 -0.963222
    31 1.719580 -0.000008 0.000006 -0.011708 0.077082 -1.103330
    32 1.209188 -0.000013 0.000006 -0.005897 -0.005359 -0.843452
    33 3.859833 -0.148894 -1.331282 -0.267472 0.289818 -0.248988
    34 1.719427 -0.000006 0.000010 -0.089777 0.145532 -1.124723
    35 1.099665 0.000011 0.000004 -0.022378 -0.005739 -0.115952
    36 0.806026 -0.359824 -1.318335 1.243852 0.590260 -0.755486
    37 1.789783 -0.000004 -0.000002 -0.000184 0.000054 0.126744
    38 1.207001 -0.000002 -0.000006 0.000015 0.000100 0.706730
    39 -7.746331 -14.246013 -6.594744 1.574072 -0.052055 -3.089806
    40 -0.000001 1.365388 -0.536964 -1.570798 0.000001 0.000000
    41 -0.000001 -0.513253 -0.829849 1.121305 0.000000 -3.141591
    42 0.000000 -0.854954 0.683403 0.154998 0.000000 -3.141591
    43 -0.456437 0.634190 -1.470296 -1.570797 0.000001 0.000000
    44 0.000008 1.368782 -31.679443 -1.570797 0.000000 0.000000
    45 0.162476 0.431641 -1.771484 -1.592774 0.018724 -0.721931
    46 -0.102380 0.431843 0.420865 -1.570797 0.000001 0.000000
    47 -0.015625 0.244328 -0.546803 -1.570148 -0.016664 0.002550
  time 22
    0 0.000000 -0.000006 0.000000 -1.570781 -1.391896 -1.570809
    1 -4.343750 6.566406 2.332031 1.596636 -1.286515 2.942963
    2 6.028140 0.000007 0.000003 -0.207899 -0.903153 -2.058992
    3 11.692572 0.000000 -0.000019 -0.000013 0.000025 -0.979655
    4 11.481682 -0.000163 -0.000038 -0.384622 0.261776 0.540811
    5 3.859703 -0.142405 -1.191976 -0.519972 -0.089471 -1.333939
    6 1.312561 -0.000010 0.000002 -0.029146 -0.023324 -0.951992
    7 0.729367 -0.000004 0.000000 -0.017352 -0.033380 -0.756586
    8 3.942326 0.046766 -0.431443 -0.206154 -0.118144 -1.278235
    9 1.539099 -0.000002 -0.000007 0.010605 -0.118785 -0.742700
    10 1.196324 -0.000004 0.000003 0.075156 -0.093487 -0.928394
    11 3.883690 -0.046767 0.431443 0.000763 -0.117929 -1.054429
    12 1.719576 -0.000013 0.000009 0.029339 -0.180583 -0.830477
    13 1.209185 -0.000010 0.000003 0.097303 -0.158593 -0.685218
    14 3.859859 -0.137949 1.332466 0.265932 -0.135322 -0.986713
    15 1.719433 -0.000006 -0.000003 0.053004 -0.247669 -0.775726
    16 1.099669 -0.000008 0.000002 0.149106 -0.207914 -0.665619
    17 0.806044 -0.348926 1.321258 -1.251566 -0.626188 -0.740592
    18 1.867909 0.054691 -0.042978 0.000669 -0.007873 -0.054002
    19 1.207005 0.000000 0.000000 0.000864 0.000035 -0.035947
    20 0.216431 -4.035156 -8.914063 -1.668474 1.286518 2.942954
    21 6.028139 0.000000 -0.000002 1.056318 0.413796 -1.262161
    22 11.692549 0.000000 0.000003 -0.000002 0.000000 -1.829510
    23 11.481695 -0.000080 0.000006 -1.479892 0.583147 1.313574
    24 3.859676 -0.132517 1.193109 0.439257 0.253431 -1.620435
    25 1.312561 0.000002 -0.000001 0.003324 0.000802 -0.127920
    26 0.729367 0.000004 0.000001 -0.000068 -0.000150 -0.820014
    27 3.942295 0.050373 0.431044 0.159545 0.249838 -1.583419
    28 1.539099 0.000011 0.000000 0.019664 0.029549 -0.258047
    29 1.196325 0.000004 -0.000003 -0.002289 -0.000961 -1.148522
    30 3.883663 -0.050280 -0.431043 0.147670 0.076328 -0.963222
    31 1.719580 -0.000008 0.000006 -0.011708 0.077082 -1.103330
    32 1.209188 -0.000013 0.000006 -0.005897 -0.005359 -0.843452
    33 3.859833 -0.148894 -1.331282 -0.267472 0.289818 -0.248988
    34 1.719427 -0.000006 0.000010 -0.089777 0.145532 -1.124723
    35 1.099665 0.000011 0.000004 -0.022378 -0.005739 -0.115952
    36 0.806026 -0.359824 -1.318335 1.243852 0.590260 -0.755486
    37 1.789783 -0.000004 -0.000002 -0.000184 0.000054 0.126744
    38 1.207001 -0.000002 -0.000006 0.000015 0.000100 0.706730
    39 -7.718986 -14.253826 -6.598650 1.577692 -0.048332 -3.089071
    40 -0.000001 1.365388 -0.536964 -1.570798 0.000001 0.000000
    41 -0.000001 -0.513253 -0.829849 1.121305 0.000000 -3.141591
    42 0.000000 -0.854954 0.683403 0.154998 0.000000 -3.141591
    43 -0.456437 0.634190 -1.470296 -1.570797 0.000001 0.000000
    44 0.000008 1.368782 -31.679443 -1.570797 0.000000 0.000000
    45 0.162476 0.431641 -1.771484 -1.592774 0.018724 -0.721931
    46 -0.102380 0.431843 0.420865 -1.570797 0.000001 0.000000
    47 0.000000 0.306830 -0.617118 -1.570796 0.000000 0.000000
end
