// Created by Crowbar++ 0.74
version 1
nodes
  0 "ValveBiped.Bip01_Spine4" -1
  1 "ValveBiped.Bip01_L_Clavicle" 0
  2 "ValveBiped.Bip01_L_UpperArm" 1
  3 "ValveBiped.Bip01_L_Forearm" 2
  4 "ValveBiped.Bip01_L_Hand" 3
  5 "ValveBiped.Bip01_L_Finger4" 4
  6 "ValveBiped.Bip01_L_Finger41" 5
  7 "ValveBiped.Bip01_L_Finger42" 6
  8 "ValveBiped.Bip01_L_Finger3" 4
  9 "ValveBiped.Bip01_L_Finger31" 8
  10 "ValveBiped.Bip01_L_Finger32" 9
  11 "ValveBiped.Bip01_L_Finger2" 4
  12 "ValveBiped.Bip01_L_Finger21" 11
  13 "ValveBiped.Bip01_L_Finger22" 12
  14 "ValveBiped.Bip01_L_Finger1" 4
  15 "ValveBiped.Bip01_L_Finger11" 14
  16 "ValveBiped.Bip01_L_Finger12" 15
  17 "ValveBiped.Bip01_L_Finger0" 4
  18 "ValveBiped.Bip01_L_Finger01" 17
  19 "ValveBiped.Bip01_L_Finger02" 18
  20 "ValveBiped.Bip01_R_Clavicle" 0
  21 "ValveBiped.Bip01_R_UpperArm" 20
  22 "ValveBiped.Bip01_R_Forearm" 21
  23 "ValveBiped.Bip01_R_Hand" 22
  24 "ValveBiped.Bip01_R_Finger4" 23
  25 "ValveBiped.Bip01_R_Finger41" 24
  26 "ValveBiped.Bip01_R_Finger42" 25
  27 "ValveBiped.Bip01_R_Finger3" 23
  28 "ValveBiped.Bip01_R_Finger31" 27
  29 "ValveBiped.Bip01_R_Finger32" 28
  30 "ValveBiped.Bip01_R_Finger2" 23
  31 "ValveBiped.Bip01_R_Finger21" 30
  32 "ValveBiped.Bip01_R_Finger22" 31
  33 "ValveBiped.Bip01_R_Finger1" 23
  34 "ValveBiped.Bip01_R_Finger11" 33
  35 "ValveBiped.Bip01_R_Finger12" 34
  36 "ValveBiped.Bip01_R_Finger0" 23
  37 "ValveBiped.Bip01_R_Finger01" 36
  38 "ValveBiped.Bip01_R_Finger02" 37
  39 "root" -1
  40 "slide" 39
  41 "lever" 39
  42 "trigger" 39
  43 "slot" 39
  44 "attachment_muzzleflash" 39
  45 "ejaculator" 39
  46 "hammer" 39
  47 "root.002" 39
end
skeleton
  time 0
    0 0.000000 -0.000006 0.000000 -1.570781 -1.391896 -1.570809
    1 -5.791109 10.274488 3.406454 1.596636 -1.286515 2.942963
    2 6.028140 0.000007 0.000003 1.060239 -1.118612 -2.807061
    3 11.692572 0.000000 -0.000019 -0.000025 0.000025 -1.095476
    4 11.481682 -0.000163 -0.000038 1.865622 0.027915 -0.028640
    5 3.859703 -0.142405 -1.191976 -0.468130 0.151539 -0.880191
    6 1.312561 -0.000010 0.000002 0.000001 -0.000002 -0.439725
    7 0.729367 -0.000004 0.000000 0.000002 -0.000003 -0.244304
    8 3.942326 0.046766 -0.431443 -0.151780 0.073202 -0.810985
    9 1.539099 -0.000002 -0.000007 -0.000001 0.000006 -0.247791
    10 1.196324 -0.000004 0.000003 0.000001 -0.000007 -0.430811
    11 3.883690 -0.046767 0.431443 0.087005 0.016873 -0.530506
    12 1.719576 -0.000013 0.000009 0.000001 0.005514 -0.366480
    13 1.209185 -0.000010 0.000003 -0.000899 0.002959 -0.514624
    14 3.859859 -0.137949 1.332466 0.239530 -0.062372 -0.049652
    15 1.719433 -0.000006 -0.000003 -0.000004 0.004079 -0.363006
    16 1.099669 -0.000008 0.000002 -0.029572 -0.120043 -0.265983
    17 0.806044 -0.348926 1.321258 -1.191622 -0.663755 -0.851111
    18 1.789782 0.000002 -0.000008 -0.004520 0.012014 0.195045
    19 1.207005 0.000000 0.000000 -0.001629 -0.000385 0.249098
    20 -2.417969 -10.468750 -8.367188 -1.668474 1.286518 2.942954
    21 6.028139 0.000000 -0.000002 0.919751 1.086611 -1.030460
    22 11.692549 0.000000 0.000003 -0.000002 0.000000 -1.325698
    23 11.481695 -0.000080 0.000006 -1.181451 0.244686 1.457344
    24 3.859676 -0.132517 1.193109 0.439257 0.253431 -1.620435
    25 1.312561 0.000002 -0.000001 0.003324 0.000793 -0.127938
    26 0.729367 0.000004 0.000001 -0.000059 -0.000141 -0.820012
    27 3.942295 0.050373 0.431044 0.159534 0.249836 -1.583400
    28 1.539099 0.000011 0.000000 0.019658 0.029539 -0.258035
    29 1.196325 0.000004 -0.000003 -0.002280 -0.000958 -1.148503
    30 3.883663 -0.050280 -0.431043 0.147664 0.076320 -0.963222
    31 1.719580 -0.000008 0.000006 -0.011708 0.077082 -1.103330
    32 1.209188 -0.000013 0.000006 -0.005895 -0.005356 -0.843443
    33 3.859833 -0.148894 -1.331282 -0.267472 0.289818 -0.248988
    34 1.719427 -0.000006 0.000010 -0.089777 0.145532 -1.124723
    35 1.099665 0.000011 0.000004 -0.022372 -0.005734 -0.115956
    36 0.806026 -0.359824 -1.318335 1.243828 0.590272 -0.755518
    37 1.789783 -0.000004 -0.000002 -0.000183 0.000048 0.126756
    38 1.207001 -0.000002 -0.000006 0.000013 0.000095 0.706719
    39 -5.773615 -12.277203 -4.727499 1.608458 -0.203767 -3.106067
    40 -0.000001 1.365388 -0.536964 -1.570798 0.000001 0.000000
    41 -0.000001 -0.513253 -0.829849 1.121305 0.000000 -3.141591
    42 0.000000 -0.854954 0.683403 0.154998 0.000000 -3.141591
    43 -0.456437 0.634190 -1.470296 -1.570797 0.000001 0.000000
    44 0.000008 1.368782 -31.679443 -1.570797 0.000000 0.000000
    45 0.162476 0.431641 -1.771484 -1.592774 0.018724 -0.721931
    46 -0.102380 0.431843 0.420865 -1.560826 -0.000482 0.000595
    47 0.000000 0.306830 -0.617118 -1.570796 0.000000 0.000000
  time 1
    0 0.000000 -0.000006 0.000000 -1.570781 -1.391896 -1.570809
    1 -5.802829 10.243237 3.429892 1.596636 -1.286515 2.942963
    2 6.028140 0.000007 0.000003 1.049733 -1.128045 -2.795597
    3 11.692572 0.000000 -0.000019 -0.000025 0.000025 -1.108796
    4 11.481682 -0.000163 -0.000038 1.858448 0.018787 -0.014569
    5 3.859703 -0.142405 -1.191976 -0.468824 0.150736 -0.882998
    6 1.312561 -0.000010 0.000002 -0.000311 -0.000110 -0.438709
    7 0.729367 -0.000004 0.000000 -0.000202 -0.000003 -0.246096
    8 3.942326 0.046766 -0.431443 -0.152271 0.072878 -0.812978
    9 1.539099 -0.000002 -0.000007 -0.000337 -0.000078 -0.248684
    10 1.196324 -0.000004 0.000003 -0.000203 -0.000259 -0.432642
    11 3.883690 -0.046767 0.431443 0.086537 0.016813 -0.532460
    12 1.719576 -0.000013 0.000009 -0.000275 0.005119 -0.368205
    13 1.209185 -0.000010 0.000003 -0.000959 0.002480 -0.515430
    14 3.859859 -0.137949 1.332466 0.239470 -0.062372 -0.052836
    15 1.719433 -0.000006 -0.000003 -0.000196 0.003348 -0.364618
    16 1.099669 -0.000008 0.000002 -0.029309 -0.120439 -0.267529
    17 0.806044 -0.348926 1.321258 -1.191747 -0.664642 -0.850853
    18 1.789782 0.000002 -0.000008 -0.004520 0.011928 0.192833
    19 1.207005 0.000000 0.000000 -0.001617 -0.000385 0.245028
    20 -2.417969 -10.468750 -8.367188 -1.668474 1.286518 2.942954
    21 6.028139 0.000000 -0.000002 0.916497 1.086787 -1.032974
    22 11.692549 0.000000 0.000003 -0.000002 0.000000 -1.325089
    23 11.481695 -0.000080 0.000006 -1.180005 0.246289 1.457287
    24 3.859676 -0.132517 1.193109 0.439844 0.252225 -1.617991
    25 1.312561 0.000002 -0.000001 0.003312 0.000793 -0.128952
    26 0.729367 0.000004 0.000001 -0.000059 -0.000141 -0.818157
    27 3.942295 0.050373 0.431044 0.159929 0.248817 -1.580898
    28 1.539099 0.000011 0.000000 0.019598 0.029443 -0.258014
    29 1.196325 0.000004 -0.000003 -0.002280 -0.000946 -1.146225
    30 3.883663 -0.050280 -0.431043 0.146909 0.075397 -0.962123
    31 1.719580 -0.000008 0.000006 -0.011576 0.076830 -1.100991
    32 1.209188 -0.000013 0.000006 -0.005871 -0.005344 -0.841437
    33 3.859833 -0.148894 -1.331282 -0.267604 0.289602 -0.248885
    34 1.719427 -0.000006 0.000010 -0.089321 0.145185 -1.122282
    35 1.099665 0.000011 0.000004 -0.022300 -0.005734 -0.116387
    36 0.806026 -0.359824 -1.318335 1.243902 0.590833 -0.755384
    37 1.789783 -0.000004 -0.000002 -0.000195 0.000048 0.126013
    38 1.207001 -0.000002 -0.000006 0.000001 0.000095 0.704011
    39 -5.750176 -12.273296 -4.723593 1.611030 -0.207076 -3.106802
    40 -0.000001 1.365388 -0.536964 -1.570798 0.000001 0.000000
    41 -0.000001 -0.513253 -0.829849 1.121305 0.000000 -3.141591
    42 0.000000 -0.854954 0.683403 0.154998 0.000000 -3.141591
    43 -0.456437 0.634190 -1.470296 -1.570797 0.000001 0.000000
    44 0.000008 1.368782 -31.679443 -1.570797 0.000000 0.000000
    45 0.162476 0.431641 -1.771484 -1.592774 0.018724 -0.721931
    46 -0.102380 0.431843 0.420865 -1.560826 -0.000482 0.000595
    47 0.000000 0.306830 -0.617118 -1.570796 0.000000 0.000000
  time 2
    0 0.000000 -0.000006 0.000000 -1.570781 -1.391896 -1.570809
    1 -5.837986 10.153390 3.500207 1.596636 -1.286515 2.942963
    2 6.028140 0.000007 0.000003 1.018398 -1.153674 -2.761704
    3 11.692572 0.000000 -0.000019 -0.000025 0.000037 -1.144126
    4 11.481682 -0.000163 -0.000038 1.836839 -0.006876 0.024013
    5 3.859703 -0.142405 -1.191976 -0.470847 0.148351 -0.891193
    6 1.312561 -0.000010 0.000002 -0.001222 -0.000458 -0.435662
    7 0.729367 -0.000004 0.000000 -0.000825 0.000021 -0.251347
    8 3.942326 0.046766 -0.431443 -0.153697 0.071920 -0.818846
    9 1.539099 -0.000002 -0.000007 -0.001307 -0.000354 -0.251361
    10 1.196324 -0.000004 0.000003 -0.000826 -0.000990 -0.438027
    11 3.883690 -0.046767 0.431443 0.085183 0.016658 -0.538068
    12 1.719576 -0.000013 0.000009 -0.001078 0.003944 -0.373279
    13 1.209185 -0.000010 0.000003 -0.001127 0.001090 -0.517752
    14 3.859859 -0.137949 1.332466 0.239302 -0.062372 -0.062064
    15 1.719433 -0.000006 -0.000003 -0.000771 0.001191 -0.369328
    16 1.099669 -0.000008 0.000002 -0.028521 -0.121589 -0.272084
    17 0.806044 -0.348926 1.321258 -1.192077 -0.667092 -0.850129
    18 1.789782 0.000002 -0.000008 -0.004508 0.011669 0.186580
    19 1.207005 0.000000 0.000000 -0.001581 -0.000385 0.233380
    20 -2.417969 -10.468750 -8.367188 -1.668474 1.286518 2.942954
    21 6.028139 0.000000 -0.000002 0.906472 1.087446 -1.041033
    22 11.692549 0.000000 0.000003 -0.000002 0.000000 -1.323125
    23 11.481695 -0.000080 0.000006 -1.175304 0.251234 1.457287
    24 3.859676 -0.132517 1.193109 0.441522 0.248696 -1.610861
    25 1.312561 0.000002 -0.000001 0.003276 0.000793 -0.131885
    26 0.729367 0.000004 0.000001 -0.000059 -0.000141 -0.812764
    27 3.942295 0.050373 0.431044 0.161056 0.245833 -1.573560
    28 1.539099 0.000011 0.000000 0.019406 0.029167 -0.257906
    29 1.196325 0.000004 -0.000003 -0.002256 -0.000934 -1.139566
    30 3.883663 -0.050280 -0.431043 0.144691 0.072713 -0.958977
    31 1.719580 -0.000008 0.000006 -0.011181 0.076123 -1.094132
    32 1.209188 -0.000013 0.000006 -0.005824 -0.005320 -0.835569
    33 3.859833 -0.148894 -1.331282 -0.267975 0.288991 -0.248620
    34 1.719427 -0.000006 0.000010 -0.087979 0.144154 -1.115099
    35 1.099665 0.000011 0.000004 -0.022085 -0.005734 -0.117595
    36 0.806026 -0.359824 -1.318335 1.244123 0.592475 -0.754938
    37 1.789783 -0.000004 -0.000002 -0.000243 0.000064 0.123880
    38 1.207001 -0.000002 -0.000006 0.000001 0.000083 0.696220
    39 -5.683768 -12.257671 -4.719686 1.618555 -0.216716 -3.109191
    40 -0.000001 1.365388 -0.536964 -1.570798 0.000001 0.000000
    41 -0.000001 -0.513253 -0.829849 1.121305 0.000000 -3.141591
    42 0.000000 -0.854954 0.683403 0.154998 0.000000 -3.141591
    43 -0.456437 0.634190 -1.470296 -1.570797 0.000001 0.000000
    44 0.000008 1.368782 -31.679443 -1.570797 0.000000 0.000000
    45 0.162476 0.431641 -1.771484 -1.592774 0.018724 -0.721931
    46 -0.102380 0.431843 0.420865 -1.560826 -0.000482 0.000595
    47 0.000000 0.306830 -0.617118 -1.570796 0.000000 0.000000
  time 3
    0 0.000000 -0.000006 0.000000 -1.570781 -1.391896 -1.570809
    1 -5.896581 10.008855 3.609585 1.596636 -1.286515 2.942963
    2 6.028140 0.000007 0.000003 0.963654 -1.190934 -2.703719
    3 11.692572 0.000000 -0.000019 -0.000025 0.000037 -1.193631
    4 11.481682 -0.000163 -0.000038 1.799199 -0.046422 0.082163
    5 3.859703 -0.142405 -1.191976 -0.474076 0.144468 -0.904412
    6 1.312561 -0.000010 0.000002 -0.002696 -0.000997 -0.430761
    7 0.729367 -0.000004 0.000000 -0.001808 0.000057 -0.259803
    8 3.942326 0.046766 -0.431443 -0.155975 0.070350 -0.828263
    9 1.539099 -0.000002 -0.000007 -0.002877 -0.000785 -0.255652
    10 1.196324 -0.000004 0.000003 -0.001821 -0.002188 -0.446696
    11 3.883690 -0.046767 0.431443 0.083002 0.016382 -0.547151
    12 1.719576 -0.000013 0.000009 -0.002372 0.002050 -0.381465
    13 1.209185 -0.000010 0.000003 -0.001402 -0.001163 -0.521469
    14 3.859859 -0.137949 1.332466 0.239026 -0.062372 -0.076972
    15 1.719433 -0.000006 -0.000003 -0.001670 -0.002285 -0.376890
    16 1.099669 -0.000008 0.000002 -0.027270 -0.123435 -0.279367
    17 0.806044 -0.348926 1.321258 -1.192625 -0.671003 -0.848958
    18 1.789782 0.000002 -0.000008 -0.004484 0.011254 0.176668
    19 1.207005 0.000000 0.000000 -0.001533 -0.000385 0.214923
    20 -2.417969 -10.468750 -8.367188 -1.668474 1.286518 2.942954
    21 6.028139 0.000000 -0.000002 0.888709 1.088721 -1.055345
    22 11.692549 0.000000 0.000003 -0.000002 0.000000 -1.319198
    23 11.481695 -0.000080 0.000006 -1.167133 0.259759 1.457573
    24 3.859676 -0.132517 1.193109 0.444158 0.242969 -1.599363
    25 1.312561 0.000002 -0.000001 0.003228 0.000781 -0.136631
    26 0.729367 0.000004 0.000001 -0.000059 -0.000141 -0.804092
    27 3.942295 0.050373 0.431044 0.162806 0.241015 -1.561738
    28 1.539099 0.000011 0.000000 0.019106 0.028712 -0.257755
    29 1.196325 0.000004 -0.000003 -0.002232 -0.000910 -1.128811
    30 3.883663 -0.050280 -0.431043 0.141096 0.068410 -0.953869
    31 1.719580 -0.000008 0.000006 -0.010569 0.074960 -1.083067
    32 1.209188 -0.000013 0.000006 -0.005740 -0.005284 -0.826142
    33 3.859833 -0.148894 -1.331282 -0.268586 0.288020 -0.248149
    34 1.719427 -0.000006 0.000010 -0.085858 0.142476 -1.103545
    35 1.099665 0.000011 0.000004 -0.021749 -0.005734 -0.119558
    36 0.806026 -0.359824 -1.318335 1.244455 0.595093 -0.754267
    37 1.789783 -0.000004 -0.000002 -0.000315 0.000096 0.120440
    38 1.207001 -0.000002 -0.000006 0.000001 0.000083 0.683583
    39 -5.570483 -12.234233 -4.711874 1.631032 -0.232231 -3.113692
    40 -0.000001 1.365388 -0.536964 -1.570798 0.000001 0.000000
    41 -0.000001 -0.513253 -0.829849 1.121305 0.000000 -3.141591
    42 0.000000 -0.854954 0.683403 0.154998 0.000000 -3.141591
    43 -0.456437 0.634190 -1.470296 -1.570797 0.000001 0.000000
    44 0.000008 1.368782 -31.679443 -1.570797 0.000000 0.000000
    45 0.162476 0.431641 -1.771484 -1.592774 0.018724 -0.721931
    46 -0.102380 0.431843 0.420865 -1.560826 -0.000482 0.000595
    47 0.000000 0.306830 -0.617118 -1.570796 0.000000 0.000000
  time 4
    0 0.000000 -0.000006 0.000000 -1.570781 -1.391896 -1.570809
    1 -5.970802 9.817442 3.761933 1.596636 -1.286515 2.942963
    2 6.028140 0.000007 0.000003 0.879972 -1.234525 -2.616576
    3 11.692572 0.000000 -0.000019 -0.000025 0.000037 -1.248763
    4 11.481682 -0.000163 -0.000038 1.742429 -0.096483 0.155646
    5 3.859703 -0.142405 -1.191976 -0.478352 0.139147 -0.922290
    6 1.312561 -0.000010 0.000002 -0.004685 -0.001728 -0.424158
    7 0.729367 -0.000004 0.000000 -0.003150 0.000081 -0.271213
    8 3.942326 0.046766 -0.431443 -0.159055 0.068204 -0.841010
    9 1.539099 -0.000002 -0.000007 -0.004999 -0.001396 -0.261419
    10 1.196324 -0.000004 0.000003 -0.003151 -0.003818 -0.458435
    11 3.883690 -0.046767 0.431443 0.080042 0.015975 -0.559418
    12 1.719576 -0.000013 0.000009 -0.004098 -0.000514 -0.392526
    13 1.209185 -0.000010 0.000003 -0.001750 -0.004196 -0.526518
    14 3.859859 -0.137949 1.332466 0.238643 -0.062384 -0.097164
    15 1.719433 -0.000006 -0.000003 -0.002844 -0.006995 -0.387138
    16 1.099669 -0.000008 0.000002 -0.025554 -0.125916 -0.289264
    17 0.806044 -0.348926 1.321258 -1.193346 -0.676139 -0.847408
    18 1.789782 0.000002 -0.000008 -0.004448 0.010719 0.163572
    19 1.207005 0.000000 0.000000 -0.001461 -0.000385 0.190502
    20 -2.417969 -10.468750 -8.367188 -1.668474 1.286518 2.942954
    21 6.028139 0.000000 -0.000002 0.862592 1.090743 -1.076749
    22 11.692549 0.000000 0.000003 -0.000002 0.000000 -1.312834
    23 11.481695 -0.000080 0.000006 -1.155418 0.272036 1.458144
    24 3.859676 -0.132517 1.193109 0.447622 0.235183 -1.583860
    25 1.312561 0.000002 -0.000001 0.003156 0.000781 -0.143038
    26 0.729367 0.000004 0.000001 -0.000059 -0.000141 -0.792357
    27 3.942295 0.050373 0.431044 0.165095 0.234448 -1.545786
    28 1.539099 0.000011 0.000000 0.018711 0.028101 -0.257561
    29 1.196325 0.000004 -0.000003 -0.002196 -0.000874 -1.114267
    30 3.883663 -0.050280 -0.431043 0.136218 0.062634 -0.946951
    31 1.719580 -0.000008 0.000006 -0.009742 0.073378 -1.068135
    32 1.209188 -0.000013 0.000006 -0.005632 -0.005224 -0.813393
    33 3.859833 -0.148894 -1.331282 -0.269413 0.286702 -0.247556
    34 1.719427 -0.000006 0.000010 -0.083005 0.140163 -1.087946
    35 1.099665 0.000011 0.000004 -0.021282 -0.005722 -0.122190
    36 0.806026 -0.359824 -1.318335 1.244934 0.598646 -0.753374
    37 1.789783 -0.000004 -0.000002 -0.000410 0.000144 0.115802
    38 1.207001 -0.000002 -0.000006 -0.000023 0.000071 0.666528
    39 -5.402509 -12.206888 -4.704061 1.648273 -0.253082 -3.120858
    40 -0.000001 1.365388 -0.536964 -1.570798 0.000001 0.000000
    41 -0.000001 -0.513253 -0.829849 1.121305 0.000000 -3.141591
    42 0.000000 -0.854954 0.683403 0.154998 0.000000 -3.141591
    43 -0.456437 0.634190 -1.470296 -1.570797 0.000001 0.000000
    44 0.000008 1.368782 -31.679443 -1.570797 0.000000 0.000000
    45 0.162476 0.431641 -1.771484 -1.592774 0.018724 -0.721931
    46 -0.102380 0.431843 0.420865 -1.560826 -0.000482 0.000595
    47 0.000000 0.306830 -0.617118 -1.570796 0.000000 0.000000
  time 5
    0 0.000000 -0.000006 0.000000 -1.570781 -1.391896 -1.570809
    1 -6.068462 9.575248 3.949439 1.596636 -1.286515 2.942963
    2 6.028140 0.000007 0.000003 0.758595 -1.279064 -2.492216
    3 11.692572 0.000000 -0.000019 -0.000025 0.000037 -1.302043
    4 11.481682 -0.000163 -0.000038 1.662987 -0.152134 0.240980
    5 3.859703 -0.142405 -1.191976 -0.483542 0.132424 -0.944435
    6 1.312561 -0.000010 0.000002 -0.007154 -0.002603 -0.415972
    7 0.729367 -0.000004 0.000000 -0.004816 0.000105 -0.285374
    8 3.942326 0.046766 -0.431443 -0.162818 0.065484 -0.856815
    9 1.539099 -0.000002 -0.000007 -0.007611 -0.002151 -0.268594
    10 1.196324 -0.000004 0.000003 -0.004757 -0.005867 -0.472947
    11 3.883690 -0.046767 0.431443 0.076374 0.015435 -0.574651
    12 1.719576 -0.000013 0.000009 -0.006183 -0.003738 -0.406226
    13 1.209185 -0.000010 0.000003 -0.002157 -0.007947 -0.532743
    14 3.859859 -0.137949 1.332466 0.238176 -0.062396 -0.122276
    15 1.719433 -0.000006 -0.000003 -0.004246 -0.012855 -0.399824
    16 1.099669 -0.000008 0.000002 -0.023391 -0.128972 -0.301495
    17 0.806044 -0.348926 1.321258 -1.194224 -0.682318 -0.845513
    18 1.789782 0.000002 -0.000008 -0.004400 0.010063 0.147761
    19 1.207005 0.000000 0.000000 -0.001377 -0.000385 0.160909
    20 -2.417969 -10.468750 -8.367188 -1.668474 1.286518 2.942954
    21 6.028139 0.000000 -0.000002 0.827593 1.093336 -1.105760
    22 11.692549 0.000000 0.000003 -0.000002 0.000000 -1.303490
    23 11.481695 -0.000080 0.000006 -1.140087 0.288268 1.458943
    24 3.859676 -0.132517 1.193109 0.451745 0.225437 -1.564689
    25 1.312561 0.000002 -0.000001 0.003072 0.000769 -0.150955
    26 0.729367 0.000004 0.000001 -0.000059 -0.000129 -0.777817
    27 3.942295 0.050373 0.431044 0.167767 0.226262 -1.526012
    28 1.539099 0.000011 0.000000 0.018208 0.027346 -0.257302
    29 1.196325 0.000004 -0.000003 -0.002148 -0.000826 -1.096240
    30 3.883663 -0.050280 -0.431043 0.130118 0.055503 -0.938353
    31 1.719580 -0.000008 0.000006 -0.008760 0.071413 -1.049581
    32 1.209188 -0.000013 0.000006 -0.005488 -0.005164 -0.797602
    33 3.859833 -0.148894 -1.331282 -0.270432 0.285060 -0.246799
    34 1.719427 -0.000006 0.000010 -0.079518 0.137227 -1.068581
    35 1.099665 0.000011 0.000004 -0.020706 -0.005722 -0.125469
    36 0.806026 -0.359824 -1.318335 1.245487 0.603051 -0.752212
    37 1.789783 -0.000004 -0.000002 -0.000542 0.000192 0.110061
    38 1.207001 -0.000002 -0.000006 -0.000047 0.000047 0.645340
    39 -5.187659 -12.167825 -4.692342 1.670467 -0.278898 -3.131148
    40 -0.000001 1.365388 -0.536964 -1.570798 0.000001 0.000000
    41 -0.000001 -0.513253 -0.829849 1.121305 0.000000 -3.141591
    42 0.000000 -0.854954 0.683403 0.154998 0.000000 -3.141591
    43 -0.456437 0.634190 -1.470296 -1.570797 0.000001 0.000000
    44 0.000008 1.368782 -31.679443 -1.570797 0.000000 0.000000
    45 0.162476 0.431641 -1.771484 -1.592774 0.018724 -0.721931
    46 -0.102380 0.431843 0.420865 -1.560826 -0.000482 0.000595
    47 0.000000 0.306830 -0.617118 -1.570796 0.000000 0.000000
  time 6
    0 0.000000 -0.000006 0.000000 -1.570781 -1.391896 -1.570809
    1 -6.177840 9.293989 4.168196 1.596636 -1.286515 2.942963
    2 6.028140 0.000007 0.000003 0.591138 -1.318477 -2.323246
    3 11.692572 0.000000 -0.000019 -0.000037 0.000037 -1.346705
    4 11.481682 -0.000163 -0.000038 1.558481 -0.206424 0.334990
    5 3.859703 -0.142405 -1.191976 -0.489451 0.124346 -0.970536
    6 1.312561 -0.000010 0.000002 -0.010078 -0.003609 -0.406351
    7 0.729367 -0.000004 0.000000 -0.006769 0.000093 -0.302035
    8 3.942326 0.046766 -0.431443 -0.167192 0.062200 -0.875376
    9 1.539099 -0.000002 -0.000007 -0.010679 -0.003074 -0.277004
    10 1.196324 -0.000004 0.000003 -0.006627 -0.008300 -0.490044
    11 3.883690 -0.046767 0.431443 0.072084 0.014716 -0.592527
    12 1.719576 -0.000013 0.000009 -0.008592 -0.007561 -0.422327
    13 1.209185 -0.000010 0.000003 -0.002613 -0.012369 -0.540052
    14 3.859859 -0.137949 1.332466 0.237636 -0.062444 -0.151949
    15 1.719433 -0.000006 -0.000003 -0.005780 -0.019758 -0.414741
    16 1.099669 -0.000008 0.000002 -0.020795 -0.132531 -0.315920
    17 0.806044 -0.348926 1.321258 -1.195258 -0.689409 -0.843343
    18 1.789782 0.000002 -0.000008 -0.004317 0.009321 0.129649
    19 1.207005 0.000000 0.000000 -0.001281 -0.000373 0.126965
    20 -2.417969 -10.468750 -8.367188 -1.668474 1.286518 2.942954
    21 6.028139 0.000000 -0.000002 0.783976 1.096193 -1.142442
    22 11.692549 0.000000 0.000003 -0.000002 0.000000 -1.290829
    23 11.481695 -0.000080 0.000006 -1.121575 0.308354 1.459400
    24 3.859676 -0.132517 1.193109 0.456347 0.213846 -1.542192
    25 1.312561 0.000002 -0.000001 0.002964 0.000757 -0.160253
    26 0.729367 0.000004 0.000001 -0.000059 -0.000129 -0.760710
    27 3.942295 0.050373 0.431044 0.170715 0.216531 -1.502792
    28 1.539099 0.000011 0.000000 0.017632 0.026459 -0.257000
    29 1.196325 0.000004 -0.000003 -0.002088 -0.000778 -1.075014
    30 3.883663 -0.050280 -0.431043 0.122868 0.047197 -0.928202
    31 1.719580 -0.000008 0.000006 -0.007657 0.069052 -1.027745
    32 1.209188 -0.000013 0.000006 -0.005320 -0.005092 -0.778985
    33 3.859833 -0.148894 -1.331282 -0.271642 0.283155 -0.245899
    34 1.719427 -0.000006 0.000010 -0.075479 0.133692 -1.045776
    35 1.099665 0.000011 0.000004 -0.020035 -0.005710 -0.129309
    36 0.806026 -0.359824 -1.318335 1.246188 0.608203 -0.750871
    37 1.789783 -0.000004 -0.000002 -0.000686 0.000240 0.103314
    38 1.207001 -0.000002 -0.000006 -0.000071 0.000035 0.620303
    39 -4.918120 -12.120948 -4.680623 1.697804 -0.309059 -3.144836
    40 -0.000001 1.365388 -0.536964 -1.570798 0.000001 0.000000
    41 -0.000001 -0.513253 -0.829849 1.121305 0.000000 -3.141591
    42 0.000000 -0.854954 0.683403 0.154998 0.000000 -3.141591
    43 -0.456437 0.634190 -1.470296 -1.570797 0.000001 0.000000
    44 0.000008 1.368782 -31.679443 -1.570797 0.000000 0.000000
    45 0.162476 0.431641 -1.771484 -1.592774 0.018724 -0.721931
    46 -0.102380 0.431843 0.420865 -1.560826 -0.000482 0.000595
    47 0.000000 0.306830 -0.617118 -1.570796 0.000000 0.000000
  time 7
    0 0.000000 -0.000006 0.000000 -1.570781 -1.391896 -1.570809
    1 -6.306750 8.973667 4.422110 1.596636 -1.286515 2.942963
    2 6.028140 0.000007 0.000003 0.377970 -1.347337 -2.111162
    3 11.692572 0.000000 -0.000019 -0.000037 0.000037 -1.378117
    4 11.481682 -0.000163 -0.000038 1.429531 -0.250869 0.433689
    5 3.859703 -0.142405 -1.191976 -0.495933 0.114962 -1.000174
    6 1.312561 -0.000010 0.000002 -0.013398 -0.004712 -0.395415
    7 0.729367 -0.000004 0.000000 -0.008987 0.000033 -0.320967
    8 3.942326 0.046766 -0.431443 -0.172094 0.058377 -0.896476
    9 1.539099 -0.000002 -0.000007 -0.014143 -0.004153 -0.286513
    10 1.196324 -0.000004 0.000003 -0.008688 -0.011105 -0.509456
    11 3.883690 -0.046767 0.431443 0.067218 0.013805 -0.612863
    12 1.719576 -0.000013 0.000009 -0.011253 -0.011948 -0.440628
    13 1.209185 -0.000010 0.000003 -0.003080 -0.017379 -0.548353
    14 3.859859 -0.137949 1.332466 0.237013 -0.062504 -0.185818
    15 1.719433 -0.000006 -0.000003 -0.007410 -0.027632 -0.431641
    16 1.099669 -0.000008 0.000002 -0.017782 -0.136522 -0.332284
    17 0.806044 -0.348926 1.321258 -1.196418 -0.697230 -0.840915
    18 1.789782 0.000002 -0.000008 -0.004221 0.008492 0.109680
    19 1.207005 0.000000 0.000000 -0.001174 -0.000361 0.089488
    20 -2.417969 -10.468750 -8.367188 -1.668474 1.286518 2.942954
    21 6.028139 0.000000 -0.000002 0.733324 1.098918 -1.185637
    22 11.692549 0.000000 0.000003 -0.000002 0.000000 -1.274714
    23 11.481695 -0.000080 0.000006 -1.101327 0.331543 1.458144
    24 3.859676 -0.132517 1.193109 0.461248 0.200534 -1.516707
    25 1.312561 0.000002 -0.000001 0.002844 0.000745 -0.170823
    26 0.729367 0.000004 0.000001 -0.000059 -0.000117 -0.741274
    27 3.942295 0.050373 0.431044 0.173772 0.205373 -1.476435
    28 1.539099 0.000011 0.000000 0.016961 0.025452 -0.256655
    29 1.196325 0.000004 -0.000003 -0.002028 -0.000730 -1.050854
    30 3.883663 -0.050280 -0.431043 0.114526 0.037849 -0.916586
    31 1.719580 -0.000008 0.000006 -0.006447 0.066355 -1.002895
    32 1.209188 -0.000013 0.000006 -0.005140 -0.005020 -0.757845
    33 3.859833 -0.148894 -1.331282 -0.272997 0.280973 -0.244897
    34 1.719427 -0.000006 0.000010 -0.070985 0.129557 -1.019855
    35 1.099665 0.000011 0.000004 -0.019280 -0.005698 -0.133666
    36 0.806026 -0.359824 -1.318335 1.246999 0.614063 -0.749352
    37 1.789783 -0.000004 -0.000002 -0.000854 0.000304 0.095668
    38 1.207001 -0.000002 -0.000006 -0.000095 0.000011 0.591846
    39 -4.609517 -12.070165 -4.664997 1.730189 -0.343149 -3.161648
    40 -0.000001 1.365388 -0.536964 -1.570798 0.000001 0.000000
    41 -0.000001 -0.513253 -0.829849 1.121305 0.000000 -3.141591
    42 0.000000 -0.854954 0.683403 0.154998 0.000000 -3.141591
    43 -0.456437 0.634190 -1.470296 -1.570797 0.000001 0.000000
    44 0.000008 1.368782 -31.679443 -1.570797 0.000000 0.000000
    45 0.162476 0.431641 -1.771484 -1.592774 0.018724 -0.721931
    46 -0.102380 0.431843 0.420865 -1.560826 -0.000482 0.000595
    47 0.000000 0.306830 -0.617118 -1.570796 0.000000 0.000000
  time 8
    0 0.000000 -0.000006 0.000000 -1.570781 -1.391896 -1.570809
    1 -6.447379 8.622093 4.699462 1.596636 -1.286515 2.942963
    2 6.028140 0.000007 0.000003 0.144433 -1.361982 -1.882961
    3 11.692572 0.000000 -0.000019 -0.000037 0.000037 -1.392648
    4 11.481682 -0.000163 -0.000038 1.282780 -0.277775 0.530624
    5 3.859703 -0.142405 -1.191976 -0.502780 0.104308 -1.032984
    6 1.312561 -0.000010 0.000002 -0.017077 -0.005899 -0.383344
    7 0.729367 -0.000004 0.000000 -0.011443 -0.000063 -0.341919
    8 3.942326 0.046766 -0.431443 -0.177415 0.054015 -0.919786
    9 1.539099 -0.000002 -0.000007 -0.017966 -0.005387 -0.297052
    10 1.196324 -0.000004 0.000003 -0.010917 -0.014257 -0.530941
    11 3.883690 -0.046767 0.431443 0.061849 0.012691 -0.635370
    12 1.719576 -0.000013 0.000009 -0.014093 -0.016861 -0.460856
    13 1.209185 -0.000010 0.000003 -0.003559 -0.022927 -0.557521
    14 3.859859 -0.137949 1.332466 0.236318 -0.062611 -0.223524
    15 1.719433 -0.000006 -0.000003 -0.009064 -0.036381 -0.450401
    16 1.099669 -0.000008 0.000002 -0.014367 -0.140872 -0.350448
    17 0.806044 -0.348926 1.321258 -1.197687 -0.705573 -0.838297
    18 1.789782 0.000002 -0.000008 -0.004089 0.007612 0.088353
    19 1.207005 0.000000 0.000000 -0.001066 -0.000337 0.049349
    20 -2.417969 -10.468750 -8.367188 -1.668474 1.286518 2.942954
    21 6.028139 0.000000 -0.000002 0.678803 1.100852 -1.232699
    22 11.692549 0.000000 0.000003 -0.000002 0.000000 -1.256027
    23 11.481695 -0.000080 0.000006 -1.081585 0.356370 1.453462
    24 3.859676 -0.132517 1.193109 0.466258 0.185614 -1.488574
    25 1.312561 0.000002 -0.000001 0.002724 0.000733 -0.182493
    26 0.729367 0.000004 0.000001 -0.000059 -0.000117 -0.719767
    27 3.942295 0.050373 0.431044 0.176804 0.192909 -1.447292
    28 1.539099 0.000011 0.000000 0.016230 0.024350 -0.256266
    29 1.196325 0.000004 -0.000003 -0.001945 -0.000670 -1.024065
    30 3.883663 -0.050280 -0.431043 0.105178 0.027627 -0.903656
    31 1.719580 -0.000008 0.000006 -0.005200 0.063323 -0.975368
    32 1.209188 -0.000013 0.000006 -0.004925 -0.004936 -0.734417
    33 3.859833 -0.148894 -1.331282 -0.274507 0.278576 -0.243772
    34 1.719427 -0.000006 0.000010 -0.066143 0.124835 -0.991145
    35 1.099665 0.000011 0.000004 -0.018441 -0.005674 -0.138477
    36 0.806026 -0.359824 -1.318335 1.247884 0.620525 -0.747654
    37 1.789783 -0.000004 -0.000002 -0.001046 0.000368 0.087207
    38 1.207001 -0.000002 -0.000006 -0.000131 -0.000001 0.560254
    39 -4.269662 -12.011570 -4.649372 1.767433 -0.380632 -3.180114
    40 -0.000001 1.365388 -0.536964 -1.570798 0.000001 0.000000
    41 -0.000001 -0.513253 -0.829849 1.121305 0.000000 -3.141591
    42 0.000000 -0.854954 0.683403 0.154998 0.000000 -3.141591
    43 -0.456437 0.634190 -1.470296 -1.570797 0.000001 0.000000
    44 0.000008 1.368782 -31.679443 -1.570797 0.000000 0.000000
    45 0.162476 0.431641 -1.771484 -1.592774 0.018724 -0.721931
    46 -0.102380 0.431843 0.420865 -1.560826 -0.000482 0.000595
    47 0.000000 0.306830 -0.617118 -1.570796 0.000000 0.000000
  time 9
    0 0.000000 -0.000006 0.000000 -1.570781 -1.391896 -1.570809
    1 -6.599728 8.239269 5.004159 1.596636 -1.286515 2.942963
    2 6.028140 0.000007 0.000003 -0.065787 -1.363662 -1.684916
    3 11.692572 0.000000 -0.000019 -0.000037 0.000037 -1.389229
    4 11.481682 -0.000163 -0.000038 1.130360 -0.283438 0.616462
    5 3.859703 -0.142405 -1.191976 -0.509835 0.092467 -1.068600
    6 1.312561 -0.000010 0.000002 -0.021092 -0.007133 -0.370228
    7 0.729367 -0.000004 0.000000 -0.014116 -0.000231 -0.364663
    8 3.942326 0.046766 -0.431443 -0.183084 0.049149 -0.945089
    9 1.539099 -0.000002 -0.000007 -0.022101 -0.006765 -0.308483
    10 1.196324 -0.000004 0.000003 -0.013254 -0.017732 -0.554257
    11 3.883690 -0.046767 0.431443 0.056048 0.011337 -0.659831
    12 1.719576 -0.000013 0.000009 -0.017077 -0.022254 -0.482775
    13 1.209185 -0.000010 0.000003 -0.004015 -0.028944 -0.567463
    14 3.859859 -0.137949 1.332466 0.235563 -0.062743 -0.264594
    15 1.719433 -0.000006 -0.000003 -0.010658 -0.045909 -0.470690
    16 1.099669 -0.000008 0.000002 -0.010581 -0.145534 -0.370187
    17 0.806044 -0.348926 1.321258 -1.199035 -0.714280 -0.835524
    18 1.789782 0.000002 -0.000008 -0.003921 0.006697 0.066112
    19 1.207005 0.000000 0.000000 -0.000946 -0.000313 0.007443
    20 -2.417969 -10.468750 -8.367188 -1.668474 1.286518 2.942954
    21 6.028139 0.000000 -0.000002 0.624545 1.101687 -1.279954
    22 11.692549 0.000000 0.000003 -0.000002 0.000000 -1.235850
    23 11.481695 -0.000080 0.000006 -1.065097 0.381059 1.443527
    24 3.859676 -0.132517 1.193109 0.471220 0.169238 -1.458133
    25 1.312561 0.000002 -0.000001 0.002581 0.000709 -0.195156
    26 0.729367 0.000004 0.000001 -0.000059 -0.000105 -0.696404
    27 3.942295 0.050373 0.431044 0.179680 0.179259 -1.415720
    28 1.539099 0.000011 0.000000 0.015439 0.023139 -0.255857
    29 1.196325 0.000004 -0.000003 -0.001861 -0.000610 -0.994976
    30 3.883663 -0.050280 -0.431043 0.094896 0.016673 -0.889497
    31 1.719580 -0.000008 0.000006 -0.003942 0.060004 -0.945458
    32 1.209188 -0.000013 0.000006 -0.004697 -0.004852 -0.708983
    33 3.859833 -0.148894 -1.331282 -0.276149 0.275988 -0.242545
    34 1.719427 -0.000006 0.000010 -0.061037 0.119538 -0.959994
    35 1.099665 0.000011 0.000004 -0.017530 -0.005650 -0.143676
    36 0.806026 -0.359824 -1.318335 1.248879 0.627527 -0.745777
    37 1.789783 -0.000004 -0.000002 -0.001237 0.000432 0.078050
    38 1.207001 -0.000002 -0.000006 -0.000167 -0.000037 0.525859
    39 -3.910276 -11.952974 -4.633746 1.808772 -0.421053 -3.199039
    40 -0.000001 1.365388 -0.536964 -1.570798 0.000001 0.000000
    41 -0.000001 -0.513253 -0.829849 1.121305 0.000000 -3.141591
    42 0.000000 -0.854954 0.683403 0.154998 0.000000 -3.141591
    43 -0.456437 0.634190 -1.470296 -1.570797 0.000001 0.000000
    44 0.000008 1.368782 -31.679443 -1.570797 0.000000 0.000000
    45 0.162476 0.431641 -1.771484 -1.592774 0.018724 -0.721931
    46 -0.102380 0.431843 0.420865 -1.560826 -0.000482 0.000595
    47 0.000000 0.306830 -0.617118 -1.570796 0.000000 0.000000
  time 10
    0 0.000000 -0.000006 0.000000 -1.570781 -1.391896 -1.570809
    1 -6.759889 7.829100 5.332294 1.596636 -1.286515 2.942963
    2 6.028140 0.000007 0.000003 -0.215917 -1.357373 -1.556901
    3 11.692572 0.000000 -0.000019 -0.000025 0.000037 -1.367860
    4 11.481682 -0.000163 -0.000038 0.987683 -0.270487 0.681119
    5 3.859703 -0.142405 -1.191976 -0.516913 0.079524 -1.106630
    6 1.312561 -0.000010 0.000002 -0.025382 -0.008379 -0.356274
    7 0.729367 -0.000004 0.000000 -0.016956 -0.000483 -0.388947
    8 3.942326 0.046766 -0.431443 -0.189004 0.043792 -0.972085
    9 1.539099 -0.000002 -0.000007 -0.026487 -0.008275 -0.320635
    10 1.196324 -0.000004 0.000003 -0.015651 -0.021495 -0.579135
    11 3.883690 -0.046767 0.431443 0.049888 0.009731 -0.685920
    12 1.719576 -0.000013 0.000009 -0.020121 -0.028091 -0.506183
    13 1.209185 -0.000010 0.000003 -0.004434 -0.035368 -0.578055
    14 3.859859 -0.137949 1.332466 0.234772 -0.062935 -0.308632
    15 1.719433 -0.000006 -0.000003 -0.012156 -0.056108 -0.492384
    16 1.099669 -0.000008 0.000002 -0.006440 -0.150424 -0.391247
    17 0.806044 -0.348926 1.321258 -1.200445 -0.723170 -0.832665
    18 1.789782 0.000002 -0.000008 -0.003729 0.005782 0.043399
    19 1.207005 0.000000 0.000000 -0.000826 -0.000289 -0.035358
    20 -2.417969 -10.468750 -8.367188 -1.668474 1.286518 2.942954
    21 6.028139 0.000000 -0.000002 0.574421 1.101380 -1.323793
    22 11.692549 0.000000 0.000003 -0.000002 0.000000 -1.215809
    23 11.481695 -0.000080 0.000006 -1.054105 0.404112 1.427368
    24 3.859676 -0.132517 1.193109 0.475942 0.151542 -1.425744
    25 1.312561 0.000002 -0.000001 0.002437 0.000685 -0.208639
    26 0.729367 0.000004 0.000001 -0.000059 -0.000105 -0.671488
    27 3.942295 0.050373 0.431044 0.182269 0.164554 -1.382047
    28 1.539099 0.000011 0.000000 0.014588 0.021857 -0.255425
    29 1.196325 0.000004 -0.000003 -0.001777 -0.000550 -0.963872
    30 3.883663 -0.050280 -0.431043 0.083750 0.005131 -0.874304
    31 1.719580 -0.000008 0.000006 -0.002696 0.056396 -0.913479
    32 1.209188 -0.000013 0.000006 -0.004445 -0.004769 -0.681824
    33 3.859833 -0.148894 -1.331282 -0.277886 0.273219 -0.241257
    34 1.719427 -0.000006 0.000010 -0.055752 0.113713 -0.926704
    35 1.099665 0.000011 0.000004 -0.016560 -0.005614 -0.149241
    36 0.806026 -0.359824 -1.318335 1.249949 0.634965 -0.743766
    37 1.789783 -0.000004 -0.000002 -0.001453 0.000511 0.068283
    38 1.207001 -0.000002 -0.000006 -0.000203 -0.000061 0.489041
    39 -3.546984 -11.886566 -4.614214 1.853826 -0.463997 -3.217413
    40 -0.000001 1.365388 -0.536964 -1.570798 0.000001 0.000000
    41 -0.000001 -0.513253 -0.829849 1.121305 0.000000 -3.141591
    42 0.000000 -0.854954 0.683403 0.154998 0.000000 -3.141591
    43 -0.456437 0.634190 -1.470296 -1.570797 0.000001 0.000000
    44 0.000008 1.368782 -31.679443 -1.570797 0.000000 0.000000
    45 0.162476 0.431641 -1.771484 -1.592774 0.018724 -0.721931
    46 -0.102380 0.431843 0.420865 -1.560826 -0.000482 0.000595
    47 0.000000 0.306830 -0.617118 -1.570796 0.000000 0.000000
  time 11
    0 0.000000 -0.000006 0.000000 -1.570781 -1.391896 -1.570809
    1 -6.931769 7.399400 5.676054 1.596636 -1.286515 2.942963
    2 6.028140 0.000007 0.000003 -0.293148 -1.348672 -1.515614
    3 11.692572 0.000000 -0.000019 -0.000025 0.000037 -1.329538
    4 11.481682 -0.000163 -0.000038 0.869361 -0.247404 0.717532
    5 3.859703 -0.142405 -1.191976 -0.523834 0.065562 -1.146652
    6 1.312561 -0.000010 0.000002 -0.029913 -0.009638 -0.341574
    7 0.729367 -0.000004 0.000000 -0.019928 -0.000830 -0.414518
    8 3.942326 0.046766 -0.431443 -0.195080 0.037967 -1.000500
    9 1.539099 -0.000002 -0.000007 -0.031077 -0.009941 -0.333440
    10 1.196324 -0.000004 0.000003 -0.018084 -0.025534 -0.605332
    11 3.883690 -0.046767 0.431443 0.043465 0.007873 -0.713421
    12 1.719576 -0.000013 0.000009 -0.023189 -0.034311 -0.530843
    13 1.209185 -0.000010 0.000003 -0.004806 -0.042127 -0.589174
    14 3.859859 -0.137949 1.332466 0.233933 -0.063163 -0.355203
    15 1.719433 -0.000006 -0.000003 -0.013487 -0.066882 -0.515235
    16 1.099669 -0.000008 0.000002 -0.001943 -0.155470 -0.413488
    17 0.806044 -0.348926 1.321258 -1.201887 -0.732034 -0.829772
    18 1.789782 0.000002 -0.000008 -0.003502 0.004867 0.020686
    19 1.207005 0.000000 0.000000 -0.000706 -0.000253 -0.078186
    20 -2.417969 -10.468750 -8.367188 -1.668474 1.286518 2.942954
    21 6.028139 0.000000 -0.000002 0.531596 1.100061 -1.361443
    22 11.692549 0.000000 0.000003 -0.000002 0.000000 -1.197189
    23 11.481695 -0.000080 0.000006 -1.050056 0.424300 1.404644
    24 3.859676 -0.132517 1.193109 0.480292 0.132730 -1.391727
    25 1.312561 0.000002 -0.000001 0.002281 0.000661 -0.222833
    26 0.729367 0.000004 0.000001 -0.000047 -0.000093 -0.645214
    27 3.942295 0.050373 0.431044 0.184438 0.148950 -1.346628
    28 1.539099 0.000011 0.000000 0.013701 0.020515 -0.254972
    29 1.196325 0.000004 -0.000003 -0.001669 -0.000490 -0.931081
    30 3.883663 -0.050280 -0.431043 0.071825 -0.006817 -0.858141
    31 1.719580 -0.000008 0.000006 -0.001509 0.052561 -0.879768
    32 1.209188 -0.000013 0.000006 -0.004182 -0.004697 -0.653198
    33 3.859833 -0.148894 -1.331282 -0.279720 0.270319 -0.239866
    34 1.719427 -0.000006 0.000010 -0.050407 0.107385 -0.891671
    35 1.099665 0.000011 0.000004 -0.015541 -0.005578 -0.155066
    36 0.806026 -0.359824 -1.318335 1.251128 0.642819 -0.741621
    37 1.789783 -0.000004 -0.000002 -0.001681 0.000575 0.058012
    38 1.207001 -0.000002 -0.000006 -0.000239 -0.000097 0.450180
    39 -3.199317 -11.820158 -4.594683 1.902118 -0.509010 -3.235052
    40 -0.000001 1.365388 -0.536964 -1.570798 0.000001 0.000000
    41 -0.000001 -0.513253 -0.829849 1.121305 0.000000 -3.141591
    42 0.000000 -0.854954 0.683403 0.154998 0.000000 -3.141591
    43 -0.456437 0.634190 -1.470296 -1.570797 0.000001 0.000000
    44 0.000008 1.368782 -31.679443 -1.570797 0.000000 0.000000
    45 0.162476 0.431641 -1.771484 -1.592774 0.018724 -0.721931
    46 -0.102380 0.431843 0.420865 -1.560826 -0.000482 0.000595
    47 0.000000 0.306830 -0.617118 -1.570796 0.000000 0.000000
  time 12
    0 0.000000 -0.000006 0.000000 -1.570781 -1.391896 -1.570809
    1 -7.107556 6.954074 6.039347 1.596636 -1.286515 2.942963
    2 6.028140 0.000007 0.000003 -0.300706 -1.340402 -1.562051
    3 11.692572 0.000000 -0.000019 -0.000025 0.000037 -1.276614
    4 11.481682 -0.000163 -0.000038 0.786022 -0.225086 0.723786
    5 3.859703 -0.142405 -1.191976 -0.530450 0.050713 -1.188247
    6 1.312561 -0.000010 0.000002 -0.034647 -0.010872 -0.326276
    7 0.729367 -0.000004 0.000000 -0.023021 -0.001262 -0.441124
    8 3.942326 0.046766 -0.431443 -0.201216 0.031735 -1.030034
    9 1.539099 -0.000002 -0.000007 -0.035823 -0.011715 -0.346725
    10 1.196324 -0.000004 0.000003 -0.020505 -0.029801 -0.632606
    11 3.883690 -0.046767 0.431443 0.036813 0.005752 -0.742043
    12 1.719576 -0.000013 0.000009 -0.026209 -0.040854 -0.556483
    13 1.209185 -0.000010 0.000003 -0.005105 -0.049150 -0.600758
    14 3.859859 -0.137949 1.332466 0.233082 -0.063438 -0.403800
    15 1.719433 -0.000006 -0.000003 -0.014625 -0.078135 -0.538995
    16 1.099669 -0.000008 0.000002 0.002816 -0.160611 -0.436657
    17 0.806044 -0.348926 1.321258 -1.203329 -0.740716 -0.826878
    18 1.789782 0.000002 -0.000008 -0.003262 0.003969 -0.001585
    19 1.207005 0.000000 0.000000 -0.000598 -0.000217 -0.120091
    20 -2.417969 -10.468750 -8.367188 -1.668474 1.286518 2.942954
    21 6.028139 0.000000 -0.000002 0.497916 1.098259 -1.390970
    22 11.692549 0.000000 0.000003 -0.000002 0.000000 -1.181278
    23 11.481695 -0.000080 0.000006 -1.053816 0.440806 1.375695
    24 3.859676 -0.132517 1.193109 0.484127 0.112962 -1.356442
    25 1.312561 0.000002 -0.000001 0.002125 0.000637 -0.237588
    26 0.729367 0.000004 0.000001 -0.000047 -0.000093 -0.617882
    27 3.942295 0.050373 0.431044 0.186104 0.132615 -1.309840
    28 1.539099 0.000011 0.000000 0.012767 0.019112 -0.254476
    29 1.196325 0.000004 -0.000003 -0.001573 -0.000430 -0.896910
    30 3.883663 -0.050280 -0.431043 0.059217 -0.019053 -0.841180
    31 1.719580 -0.000008 0.000006 -0.000418 0.048534 -0.844663
    32 1.209188 -0.000013 0.000006 -0.003894 -0.004625 -0.623406
    33 3.859833 -0.148894 -1.331282 -0.281638 0.267311 -0.238434
    34 1.719427 -0.000006 0.000010 -0.045086 0.100590 -0.855219
    35 1.099665 0.000011 0.000004 -0.014474 -0.005518 -0.161149
    36 0.806026 -0.359824 -1.318335 1.252382 0.650964 -0.739387
    37 1.789783 -0.000004 -0.000002 -0.001921 0.000655 0.047334
    38 1.207001 -0.000002 -0.000006 -0.000275 -0.000145 0.409704
    39 -2.871182 -11.753749 -4.571244 1.953268 -0.555678 -3.252047
    40 -0.000001 1.365388 -0.536964 -1.570798 0.000001 0.000000
    41 -0.000001 -0.513253 -0.829849 1.121305 0.000000 -3.141591
    42 0.000000 -0.854954 0.683403 0.154998 0.000000 -3.141591
    43 -0.456437 0.634190 -1.470296 -1.570797 0.000001 0.000000
    44 0.000008 1.368782 -31.679443 -1.570797 0.000000 0.000000
    45 0.162476 0.431641 -1.771484 -1.592774 0.018724 -0.721931
    46 -0.102380 0.431843 0.420865 -1.560826 -0.000482 0.000595
    47 0.000000 0.306830 -0.617118 -1.570796 0.000000 0.000000
  time 13
    0 0.000000 -0.000006 0.000000 -1.570781 -1.391896 -1.570809
    1 -7.291155 6.497029 6.414358 1.596636 -1.286515 2.942963
    2 6.028140 0.000007 0.000003 -0.246883 -1.332562 -1.689402
    3 11.692572 0.000000 -0.000019 -0.000025 0.000037 -1.212222
    4 11.481682 -0.000163 -0.000038 0.741917 -0.212206 0.702654
    5 3.859703 -0.142405 -1.191976 -0.536614 0.035121 -1.231048
    6 1.312561 -0.000010 0.000002 -0.039536 -0.012059 -0.310530
    7 0.729367 -0.000004 0.000000 -0.026196 -0.001801 -0.468513
    8 3.942326 0.046766 -0.431443 -0.207353 0.025120 -1.060387
    9 1.539099 -0.000002 -0.000007 -0.040689 -0.013620 -0.360353
    10 1.196324 -0.000004 0.000003 -0.022866 -0.034247 -0.660661
    11 3.883690 -0.046767 0.431443 0.030042 0.003367 -0.771462
    12 1.719576 -0.000013 0.000009 -0.029145 -0.047674 -0.582834
    13 1.209185 -0.000010 0.000003 -0.005333 -0.056376 -0.612682
    14 3.859859 -0.137949 1.332466 0.232207 -0.063774 -0.453989
    15 1.719433 -0.000006 -0.000003 -0.015500 -0.089724 -0.563457
    16 1.099669 -0.000008 0.000002 0.007885 -0.165800 -0.460557
    17 0.806044 -0.348926 1.321258 -1.204739 -0.749058 -0.824088
    18 1.789782 0.000002 -0.000008 -0.002998 0.003106 -0.022911
    19 1.207005 0.000000 0.000000 -0.000490 -0.000169 -0.160230
    20 -2.417969 -10.468750 -8.367188 -1.668474 1.286518 2.942954
    21 6.028139 0.000000 -0.000002 0.474436 1.096325 -1.411342
    22 11.692549 0.000000 0.000003 -0.000002 0.000000 -1.168684
    23 11.481695 -0.000080 0.000006 -1.065531 0.452741 1.341038
    24 3.859676 -0.132517 1.193109 0.487339 0.092466 -1.320229
    25 1.312561 0.000002 -0.000001 0.001957 0.000601 -0.252753
    26 0.729367 0.000004 0.000001 -0.000047 -0.000081 -0.589752
    27 3.942295 0.050373 0.431044 0.187182 0.115728 -1.272014
    28 1.539099 0.000011 0.000000 0.011820 0.017686 -0.253980
    29 1.196325 0.000004 -0.000003 -0.001453 -0.000371 -0.861732
    30 3.883663 -0.050280 -0.431043 0.046022 -0.031410 -0.823552
    31 1.719580 -0.000008 0.000006 0.000540 0.044328 -0.808523
    32 1.209188 -0.000013 0.000006 -0.003606 -0.004553 -0.592731
    33 3.859833 -0.148894 -1.331282 -0.283603 0.264207 -0.236962
    34 1.719427 -0.000006 0.000010 -0.039873 0.093399 -0.817721
    35 1.099665 0.000011 0.000004 -0.013384 -0.005470 -0.167384
    36 0.806026 -0.359824 -1.318335 1.253673 0.659337 -0.737064
    37 1.789783 -0.000004 -0.000002 -0.002172 0.000719 0.036368
    38 1.207001 -0.000002 -0.000006 -0.000299 -0.000181 0.367945
    39 -2.574298 -11.687341 -4.543900 2.007085 -0.603545 -3.268676
    40 -0.000001 1.365388 -0.536964 -1.570798 0.000001 0.000000
    41 -0.000001 -0.513253 -0.829849 1.121305 0.000000 -3.141591
    42 0.000000 -0.854954 0.683403 0.154998 0.000000 -3.141591
    43 -0.456437 0.634190 -1.470296 -1.570797 0.000001 0.000000
    44 0.000008 1.368782 -31.679443 -1.570797 0.000000 0.000000
    45 0.162476 0.431641 -1.771484 -1.592774 0.018724 -0.721931
    46 -0.102380 0.431843 0.420865 -1.560826 -0.000482 0.000595
    47 0.000000 0.306830 -0.617118 -1.570796 0.000000 0.000000
  time 14
    0 0.000000 -0.000006 0.000000 -1.570781 -1.391896 -1.570809
    1 -7.474755 6.032171 6.797182 1.596636 -1.286515 2.942963
    2 6.028140 0.000007 0.000003 -0.151220 -1.323301 -1.873242
    3 11.692572 0.000000 -0.000019 -0.000025 0.000037 -1.141063
    4 11.481682 -0.000163 -0.000038 0.728278 -0.210390 0.662710
    5 3.859703 -0.142405 -1.191976 -0.542207 0.018954 -1.274607
    6 1.312561 -0.000010 0.000002 -0.044534 -0.013197 -0.294486
    7 0.729367 -0.000004 0.000000 -0.029408 -0.002436 -0.496406
    8 3.942326 0.046766 -0.431443 -0.213381 0.018205 -1.091286
    9 1.539099 -0.000002 -0.000007 -0.045602 -0.015622 -0.374256
    10 1.196324 -0.000004 0.000003 -0.025155 -0.038861 -0.689254
    11 3.883690 -0.046767 0.431443 0.023223 0.000730 -0.801423
    12 1.719576 -0.000013 0.000009 -0.031962 -0.054697 -0.609692
    13 1.209185 -0.000010 0.000003 -0.005489 -0.063747 -0.624823
    14 3.859859 -0.137949 1.332466 0.231344 -0.064157 -0.505228
    15 1.719433 -0.000006 -0.000003 -0.016111 -0.101565 -0.588415
    16 1.099669 -0.000008 0.000002 0.013154 -0.170954 -0.484963
    17 0.806044 -0.348926 1.321258 -1.206055 -0.756853 -0.821436
    18 1.789782 0.000002 -0.000008 -0.002723 0.002329 -0.042852
    19 1.207005 0.000000 0.000000 -0.000395 -0.000133 -0.197682
    20 -2.417969 -10.468750 -8.367188 -1.668474 1.286518 2.942954
    21 6.028139 0.000000 -0.000002 0.460894 1.094830 -1.422882
    22 11.692549 0.000000 0.000003 -0.000002 0.000000 -1.159544
    23 11.481695 -0.000080 0.000006 -1.085128 0.459323 1.301412
    24 3.859676 -0.132517 1.193109 0.489844 0.071443 -1.283405
    25 1.312561 0.000002 -0.000001 0.001790 0.000565 -0.268221
    26 0.729367 0.000004 0.000001 -0.000047 -0.000069 -0.561083
    27 3.942295 0.050373 0.431044 0.187626 0.098471 -1.233528
    28 1.539099 0.000011 0.000000 0.010849 0.016212 -0.253484
    29 1.196325 0.000004 -0.000003 -0.001345 -0.000323 -0.825853
    30 3.883663 -0.050280 -0.431043 0.032348 -0.043766 -0.805427
    31 1.719580 -0.000008 0.000006 0.001379 0.040025 -0.771687
    32 1.209188 -0.000013 0.000006 -0.003319 -0.004493 -0.561473
    33 3.859833 -0.148894 -1.331282 -0.285616 0.261067 -0.235448
    34 1.719427 -0.000006 0.000010 -0.034827 0.085861 -0.779550
    35 1.099665 0.000011 0.000004 -0.012281 -0.005398 -0.173726
    36 0.806026 -0.359824 -1.318335 1.255037 0.667877 -0.734651
    37 1.789783 -0.000004 -0.000002 -0.002424 0.000799 0.025186
    38 1.207001 -0.000002 -0.000006 -0.000335 -0.000229 0.325426
    39 -2.312571 -11.624839 -4.512649 2.063284 -0.652157 -3.285304
    40 -0.000001 1.365388 -0.536964 -1.570798 0.000001 0.000000
    41 -0.000001 -0.513253 -0.829849 1.121305 0.000000 -3.141591
    42 0.000000 -0.854954 0.683403 0.154998 0.000000 -3.141591
    43 -0.456437 0.634190 -1.470296 -1.570797 0.000001 0.000000
    44 0.000008 1.368782 -31.679443 -1.570797 0.000000 0.000000
    45 0.162476 0.431641 -1.771484 -1.592774 0.018724 -0.721931
    46 -0.102380 0.431843 0.420865 -1.560826 -0.000482 0.000595
    47 0.000000 0.306830 -0.617118 -1.570796 0.000000 0.000000
  time 15
    0 0.000000 -0.000006 0.000000 -1.570781 -1.391896 -1.570809
    1 -7.662260 5.559500 7.191726 1.596636 -1.286515 2.942963
    2 6.028140 0.000007 0.000003 -0.033715 -1.311025 -2.085908
    3 11.692572 0.000000 -0.000019 -0.000013 0.000025 -1.067696
    4 11.481682 -0.000163 -0.000038 0.733415 -0.217511 0.611621
    5 3.859703 -0.142405 -1.191976 -0.547129 0.002403 -1.318474
    6 1.312561 -0.000010 0.000002 -0.049591 -0.014264 -0.278291
    7 0.729367 -0.000004 0.000000 -0.032632 -0.003167 -0.524578
    8 3.942326 0.046766 -0.431443 -0.219253 0.011026 -1.122430
    9 1.539099 -0.000002 -0.000007 -0.050552 -0.017719 -0.388262
    10 1.196324 -0.000004 0.000003 -0.027324 -0.043571 -0.718117
    11 3.883690 -0.046767 0.431443 0.016415 -0.002134 -0.831674
    12 1.719576 -0.000013 0.000009 -0.034598 -0.061863 -0.636787
    13 1.209185 -0.000010 0.000003 -0.005537 -0.071177 -0.637088
    14 3.859859 -0.137949 1.332466 0.230481 -0.064601 -0.556973
    15 1.719433 -0.000006 -0.000003 -0.016423 -0.113526 -0.613663
    16 1.099669 -0.000008 0.000002 0.018624 -0.176023 -0.509622
    17 0.806044 -0.348926 1.321258 -1.207262 -0.763919 -0.818990
    18 1.789782 0.000002 -0.000008 -0.002435 0.001622 -0.060963
    19 1.207005 0.000000 0.000000 -0.000299 -0.000085 -0.231626
    20 -2.417969 -10.468750 -8.367188 -1.668474 1.286518 2.942954
    21 6.028139 0.000000 -0.000002 0.457376 1.093951 -1.425590
    22 11.692549 0.000000 0.000003 -0.000002 0.000000 -1.154262
    23 11.481695 -0.000080 0.000006 -1.111957 0.459834 1.258190
    24 3.859676 -0.132517 1.193109 0.491581 0.050144 -1.246331
    25 1.312561 0.000002 -0.000001 0.001634 0.000529 -0.283817
    26 0.729367 0.000004 0.000001 -0.000035 -0.000069 -0.532133
    27 3.942295 0.050373 0.431044 0.187386 0.081033 -1.194734
    28 1.539099 0.000011 0.000000 0.009866 0.014738 -0.252966
    29 1.196325 0.000004 -0.000003 -0.001225 -0.000263 -0.789645
    30 3.883663 -0.050280 -0.431043 0.018314 -0.055978 -0.786958
    31 1.719580 -0.000008 0.000006 0.002074 0.035639 -0.734490
    32 1.209188 -0.000013 0.000006 -0.003007 -0.004457 -0.529913
    33 3.859833 -0.148894 -1.331282 -0.287642 0.257891 -0.233935
    34 1.719427 -0.000006 0.000010 -0.030045 0.078071 -0.741052
    35 1.099665 0.000011 0.000004 -0.011155 -0.005326 -0.180154
    36 0.806026 -0.359824 -1.318335 1.256438 0.676437 -0.732193
    37 1.789783 -0.000004 -0.000002 -0.002676 0.000863 0.013909
    38 1.207001 -0.000002 -0.000006 -0.000371 -0.000277 0.282384
    39 -2.086002 -11.558431 -4.481398 2.121863 -0.701101 -3.302300
    40 -0.000001 1.365388 -0.536964 -1.570798 0.000001 0.000000
    41 -0.000001 -0.513253 -0.829849 1.121305 0.000000 -3.141591
    42 0.000000 -0.854954 0.683403 0.154998 0.000000 -3.141591
    43 -0.456437 0.634190 -1.470296 -1.570797 0.000001 0.000000
    44 0.000008 1.368782 -31.679443 -1.570797 0.000000 0.000000
    45 0.162476 0.431641 -1.771484 -1.592774 0.018724 -0.721931
    46 -0.102380 0.431843 0.420865 -1.560826 -0.000482 0.000595
    47 0.000000 0.306830 -0.617118 -1.570796 0.000000 0.000000
  time 16
    0 0.000000 -0.000006 0.000000 -1.570781 -1.391896 -1.570809
    1 -7.849766 5.090736 7.590175 1.596636 -1.286515 2.942963
    2 6.028140 0.000007 0.000003 0.089413 -1.294915 -2.303973
    3 11.692572 0.000000 -0.000019 -0.000013 0.000025 -0.995540
    4 11.481682 -0.000163 -0.000038 0.747054 -0.230558 0.555235
    5 3.859703 -0.142405 -1.191976 -0.551332 -0.014364 -1.362286
    6 1.312561 -0.000010 0.000002 -0.054673 -0.015247 -0.262097
    7 0.729367 -0.000004 0.000000 -0.035844 -0.003982 -0.552724
    8 3.942326 0.046766 -0.431443 -0.224910 0.003667 -1.153520
    9 1.539099 -0.000002 -0.000007 -0.055454 -0.019876 -0.402268
    10 1.196324 -0.000004 0.000003 -0.029349 -0.048353 -0.746980
    11 3.883690 -0.046767 0.431443 0.009692 -0.005202 -0.861924
    12 1.719576 -0.000013 0.000009 -0.037043 -0.069102 -0.663882
    13 1.209185 -0.000010 0.000003 -0.005501 -0.078620 -0.649322
    14 3.859859 -0.137949 1.332466 0.229654 -0.065068 -0.608755
    15 1.719433 -0.000006 -0.000003 -0.016435 -0.125486 -0.638910
    16 1.099669 -0.000008 0.000002 0.024218 -0.180961 -0.534338
    17 0.806044 -0.348926 1.321258 -1.208297 -0.770123 -0.816838
    18 1.789782 0.000002 -0.000008 -0.002159 0.001000 -0.076803
    19 1.207005 0.000000 0.000000 -0.000227 -0.000049 -0.261244
    20 -2.417969 -10.468750 -8.367188 -1.668474 1.286518 2.942954
    21 6.028139 0.000000 -0.000002 0.462653 1.093995 -1.420690
    22 11.692549 0.000000 0.000003 -0.000002 0.000000 -1.152299
    23 11.481695 -0.000080 0.000006 -1.144932 0.453628 1.212341
    24 3.859676 -0.132517 1.193109 0.492516 0.028794 -1.209326
    25 1.312561 0.000002 -0.000001 0.001466 0.000481 -0.299414
    26 0.729367 0.000004 0.000001 -0.000035 -0.000057 -0.503183
    27 3.942295 0.050373 0.431044 0.186475 0.063631 -1.155964
    28 1.539099 0.000011 0.000000 0.008884 0.013264 -0.252448
    29 1.196325 0.000004 -0.000003 -0.001106 -0.000215 -0.753415
    30 3.883663 -0.050280 -0.431043 0.004040 -0.067927 -0.768295
    31 1.719580 -0.000008 0.000006 0.002590 0.031241 -0.697293
    32 1.209188 -0.000013 0.000006 -0.002708 -0.004409 -0.498352
    33 3.859833 -0.148894 -1.331282 -0.289679 0.254715 -0.232401
    34 1.719427 -0.000006 0.000010 -0.025563 0.070101 -0.702625
    35 1.099665 0.000011 0.000004 -0.010040 -0.005255 -0.186561
    36 0.806026 -0.359824 -1.318335 1.257913 0.685039 -0.729691
    37 1.789783 -0.000004 -0.000002 -0.002927 0.000927 0.002619
    38 1.207001 -0.000002 -0.000006 -0.000395 -0.000313 0.239390
    39 -1.894590 -11.495929 -4.450147 2.182538 -0.749837 -3.319939
    40 -0.000001 1.365388 -0.536964 -1.570798 0.000001 0.000000
    41 -0.000001 -0.513253 -0.829849 1.121305 0.000000 -3.141591
    42 0.000000 -0.854954 0.683403 0.154998 0.000000 -3.141591
    43 -0.456437 0.634190 -1.470296 -1.570797 0.000001 0.000000
    44 0.000008 1.368782 -31.679443 -1.570797 0.000000 0.000000
    45 0.162476 0.431641 -1.771484 -1.592774 0.018724 -0.721931
    46 -0.102380 0.431843 0.420865 -1.560826 -0.000482 0.000595
    47 0.000000 0.306830 -0.617118 -1.570796 0.000000 0.000000
  time 17
    0 0.000000 -0.000006 0.000000 -1.570781 -1.391896 -1.570809
    1 -8.033365 4.621971 7.988625 1.596636 -1.286515 2.942963
    2 6.028140 0.000007 0.000003 0.203601 -1.275402 -2.507751
    3 11.692572 0.000000 -0.000019 -0.000013 0.000025 -0.928654
    4 11.481682 -0.000163 -0.000038 0.761047 -0.246878 0.499556
    5 3.859703 -0.142405 -1.191976 -0.554756 -0.031118 -1.405620
    6 1.312561 -0.000010 0.000002 -0.059718 -0.016133 -0.246052
    7 0.729367 -0.000004 0.000000 -0.038996 -0.004881 -0.580642
    8 3.942326 0.046766 -0.431443 -0.230267 -0.003787 -1.184310
    9 1.539099 -0.000002 -0.000007 -0.060296 -0.022082 -0.416136
    10 1.196324 -0.000004 0.000003 -0.031231 -0.053135 -0.775546
    11 3.883690 -0.046767 0.431443 0.003124 -0.008438 -0.891849
    12 1.719576 -0.000013 0.000009 -0.039284 -0.076329 -0.690740
    13 1.209185 -0.000010 0.000003 -0.005369 -0.085978 -0.661494
    14 3.859859 -0.137949 1.332466 0.228852 -0.065584 -0.659994
    15 1.719433 -0.000006 -0.000003 -0.016135 -0.137339 -0.663951
    16 1.099669 -0.000008 0.000002 0.029889 -0.185719 -0.558884
    17 0.806044 -0.348926 1.321258 -1.209127 -0.775233 -0.815046
    18 1.789782 0.000002 -0.000008 -0.001908 0.000500 -0.089900
    19 1.207005 0.000000 0.000000 -0.000167 -0.000013 -0.285666
    20 -2.417969 -10.468750 -8.367188 -1.668474 1.286518 2.942954
    21 6.028139 0.000000 -0.000002 0.475492 1.095094 -1.409408
    22 11.692549 0.000000 0.000003 -0.000002 0.000000 -1.152976
    23 11.481695 -0.000080 0.000006 -1.182897 0.440328 1.165179
    24 3.859676 -0.132517 1.193109 0.492672 0.007633 -1.172706
    25 1.312561 0.000002 -0.000001 0.001298 0.000445 -0.314859
    26 0.729367 0.000004 0.000001 -0.000035 -0.000045 -0.474514
    27 3.942295 0.050373 0.431044 0.184905 0.046434 -1.117619
    28 1.539099 0.000011 0.000000 0.007913 0.011802 -0.251952
    29 1.196325 0.000004 -0.000003 -0.000986 -0.000179 -0.717536
    30 3.883663 -0.050280 -0.431043 -0.010329 -0.079504 -0.749632
    31 1.719580 -0.000008 0.000006 0.002949 0.026854 -0.660479
    32 1.209188 -0.000013 0.000006 -0.002408 -0.004385 -0.467073
    33 3.859833 -0.148894 -1.331282 -0.291693 0.251575 -0.230867
    34 1.719427 -0.000006 0.000010 -0.021440 0.062036 -0.664639
    35 1.099665 0.000011 0.000004 -0.008938 -0.005159 -0.192904
    36 0.806026 -0.359824 -1.318335 1.259388 0.693558 -0.727188
    37 1.789783 -0.000004 -0.000002 -0.003179 0.000991 -0.008550
    38 1.207001 -0.000002 -0.000006 -0.000430 -0.000361 0.196776
    39 -1.734429 -11.437333 -4.414990 2.245119 -0.797994 -3.338496
    40 -0.000001 1.365388 -0.536964 -1.570798 0.000001 0.000000
    41 -0.000001 -0.513253 -0.829849 1.121305 0.000000 -3.141591
    42 0.000000 -0.854954 0.683403 0.154998 0.000000 -3.141591
    43 -0.456437 0.634190 -1.470296 -1.570797 0.000001 0.000000
    44 0.000008 1.368782 -31.679443 -1.570797 0.000000 0.000000
    45 0.162476 0.431641 -1.771484 -1.592774 0.018724 -0.721931
    46 -0.102380 0.431843 0.420865 -1.560826 -0.000482 0.000595
    47 0.000000 0.306830 -0.617118 -1.570796 0.000000 0.000000
  time 18
    0 0.000000 -0.000006 0.000000 -1.570781 -1.391896 -1.570809
    1 -8.216965 4.164926 8.383168 1.596636 -1.286515 2.942963
    2 6.028140 0.000007 0.000003 0.299725 -1.253865 -2.684945
    3 11.692572 0.000000 -0.000019 -0.000013 0.000025 -0.869889
    4 11.481682 -0.000163 -0.000038 0.769018 -0.264465 0.450030
    5 3.859703 -0.142405 -1.191976 -0.557412 -0.047669 -1.448028
    6 1.312561 -0.000010 0.000002 -0.064680 -0.016936 -0.230306
    7 0.729367 -0.000004 0.000000 -0.042052 -0.005852 -0.608006
    8 3.942326 0.046766 -0.431443 -0.235313 -0.011253 -1.214444
    9 1.539099 -0.000002 -0.000007 -0.065006 -0.024323 -0.429765
    10 1.196324 -0.000004 0.000003 -0.032945 -0.057893 -0.803601
    11 3.883690 -0.046767 0.431443 -0.003215 -0.011806 -0.921159
    12 1.719576 -0.000013 0.000009 -0.041286 -0.083484 -0.717057
    13 1.209185 -0.000010 0.000003 -0.005165 -0.093217 -0.673449
    14 3.859859 -0.137949 1.332466 0.228096 -0.066135 -0.710183
    15 1.719433 -0.000006 -0.000003 -0.015560 -0.148964 -0.688579
    16 1.099669 -0.000008 0.000002 0.035576 -0.190261 -0.583037
    17 0.806044 -0.348926 1.321258 -1.209691 -0.779118 -0.813686
    18 1.789782 0.000002 -0.000008 -0.001668 0.000137 -0.099811
    19 1.207005 0.000000 0.000000 -0.000119 -0.000001 -0.304097
    20 -2.417969 -10.468750 -8.367188 -1.668474 1.286518 2.942954
    21 6.028139 0.000000 -0.000002 0.494750 1.097336 -1.393226
    22 11.692549 0.000000 0.000003 -0.000002 0.000000 -1.155481
    23 11.481695 -0.000080 0.000006 -1.224333 0.419697 1.117959
    24 3.859676 -0.132517 1.193109 0.492073 -0.013114 -1.136832
    25 1.312561 0.000002 -0.000001 0.001131 0.000397 -0.330024
    26 0.729367 0.000004 0.000001 -0.000023 -0.000045 -0.446384
    27 3.942295 0.050373 0.431044 0.182736 0.029655 -1.080006
    28 1.539099 0.000011 0.000000 0.006954 0.010376 -0.251434
    29 1.196325 0.000004 -0.000003 -0.000866 -0.000143 -0.682357
    30 3.883663 -0.050280 -0.431043 -0.024651 -0.090601 -0.731120
    31 1.719580 -0.000008 0.000006 0.003141 0.022552 -0.624362
    32 1.209188 -0.000013 0.000006 -0.002108 -0.004361 -0.436397
    33 3.859833 -0.148894 -1.331282 -0.293682 0.248495 -0.229374
    34 1.719427 -0.000006 0.000010 -0.017689 0.053994 -0.627420
    35 1.099665 0.000011 0.000004 -0.007847 -0.005075 -0.199159
    36 0.806026 -0.359824 -1.318335 1.260862 0.701931 -0.724686
    37 1.789783 -0.000004 -0.000002 -0.003431 0.001055 -0.019528
    38 1.207001 -0.000002 -0.000006 -0.000454 -0.000409 0.155017
    39 -1.609425 -11.378738 -4.379832 2.309509 -0.845034 -3.358248
    40 -0.000001 1.365388 -0.536964 -1.570798 0.000001 0.000000
    41 -0.000001 -0.513253 -0.829849 1.121305 0.000000 -3.141591
    42 0.000000 -0.854954 0.683403 0.154998 0.000000 -3.141591
    43 -0.456437 0.634190 -1.470296 -1.570797 0.000001 0.000000
    44 0.000008 1.368782 -31.679443 -1.570797 0.000000 0.000000
    45 0.162476 0.431641 -1.771484 -1.592774 0.018724 -0.721931
    46 -0.102380 0.431843 0.420865 -1.560826 -0.000482 0.000595
    47 0.000000 0.306830 -0.617118 -1.570796 0.000000 0.000000
  time 19
    0 0.000000 -0.000006 0.000000 -1.570781 -1.391896 -1.570809
    1 -8.392751 3.719600 8.777712 1.596636 -1.286515 2.942963
    2 6.028140 0.000007 0.000003 0.371242 -1.232500 -2.827248
    3 11.692572 0.000000 -0.000019 -0.000013 0.000025 -0.823020
    4 11.481682 -0.000163 -0.000038 0.765829 -0.281765 0.412809
    5 3.859703 -0.142405 -1.191976 -0.559325 -0.063800 -1.489145
    6 1.312561 -0.000010 0.000002 -0.069522 -0.017631 -0.214979
    7 0.729367 -0.000004 0.000000 -0.045012 -0.006882 -0.634587
    8 3.942326 0.046766 -0.431443 -0.239987 -0.018660 -1.243678
    9 1.539099 -0.000002 -0.000007 -0.069572 -0.026552 -0.442981
    10 1.196324 -0.000004 0.000003 -0.034479 -0.062543 -0.830848
    11 3.883690 -0.046767 0.431443 -0.009268 -0.015257 -0.949637
    12 1.719576 -0.000013 0.000009 -0.043048 -0.090471 -0.742664
    13 1.209185 -0.000010 0.000003 -0.004878 -0.100240 -0.685064
    14 3.859859 -0.137949 1.332466 0.227389 -0.066686 -0.758816
    15 1.719433 -0.000006 -0.000003 -0.014721 -0.160230 -0.712586
    16 1.099669 -0.000008 0.000002 0.041216 -0.194527 -0.606516
    17 0.806044 -0.348926 1.321258 -1.209942 -0.781568 -0.812825
    18 1.789782 0.000002 -0.000008 -0.001464 -0.000070 -0.106065
    19 1.207005 0.000000 0.000000 -0.000095 0.000023 -0.315770
    20 -2.417969 -10.468750 -8.367188 -1.668474 1.286518 2.942954
    21 6.028139 0.000000 -0.000002 0.519108 1.100852 -1.373370
    22 11.692549 0.000000 0.000003 -0.000002 0.000000 -1.159002
    23 11.481695 -0.000080 0.000006 -1.267794 0.391870 1.071825
    24 3.859676 -0.132517 1.193109 0.490778 -0.033195 -1.101977
    25 1.312561 0.000002 -0.000001 0.000987 0.000349 -0.344780
    26 0.729367 0.000004 0.000001 -0.000023 -0.000033 -0.419053
    27 3.942295 0.050373 0.431044 0.180015 0.013464 -1.043501
    28 1.539099 0.000011 0.000000 0.006019 0.008973 -0.250960
    29 1.196325 0.000004 -0.000003 -0.000758 -0.000107 -0.648186
    30 3.883663 -0.050280 -0.431043 -0.038781 -0.101136 -0.712974
    31 1.719580 -0.000008 0.000006 0.003177 0.018369 -0.589324
    32 1.209188 -0.000013 0.000006 -0.001821 -0.004349 -0.406606
    33 3.859833 -0.148894 -1.331282 -0.295612 0.245499 -0.227901
    34 1.719427 -0.000006 0.000010 -0.014346 0.046048 -0.591364
    35 1.099665 0.000011 0.000004 -0.006792 -0.004979 -0.205221
    36 0.806026 -0.359824 -1.318335 1.262337 0.710055 -0.722228
    37 1.789783 -0.000004 -0.000002 -0.003670 0.001103 -0.030206
    38 1.207001 -0.000002 -0.000006 -0.000478 -0.000457 0.114541
    39 -1.515672 -11.324049 -4.344675 2.375423 -0.890585 -3.379286
    40 -0.000001 1.365388 -0.536964 -1.570798 0.000001 0.000000
    41 -0.000001 -0.513253 -0.829849 1.121305 0.000000 -3.141591
    42 0.000000 -0.854954 0.683403 0.154998 0.000000 -3.141591
    43 -0.456437 0.634190 -1.470296 -1.570797 0.000001 0.000000
    44 0.000008 1.368782 -31.679443 -1.570797 0.000000 0.000000
    45 0.162476 0.431641 -1.771484 -1.592774 0.018724 -0.721931
    46 -0.102380 0.431843 0.420865 -1.560826 -0.000482 0.000595
    47 0.000000 0.306830 -0.617118 -1.570796 0.000000 0.000000
  time 20
    0 0.000000 -0.000006 0.000000 -1.570781 -1.391896 -1.570809
    1 -8.560725 3.289899 9.164442 1.596636 -1.286515 2.942963
    2 6.028140 0.000007 0.000003 0.416032 -1.213806 -2.931920
    3 11.692572 0.000000 -0.000019 -0.000013 0.000025 -0.790254
    4 11.481682 -0.000163 -0.000038 0.747054 -0.297321 0.393140
    5 3.859703 -0.142405 -1.191976 -0.560519 -0.079332 -1.528578
    6 1.312561 -0.000010 0.000002 -0.074196 -0.018231 -0.200219
    7 0.729367 -0.000004 0.000000 -0.047817 -0.007937 -0.660158
    8 3.942326 0.046766 -0.431443 -0.244277 -0.025887 -1.271738
    9 1.539099 -0.000002 -0.000007 -0.073922 -0.028757 -0.455682
    10 1.196324 -0.000004 0.000003 -0.035821 -0.067061 -0.857018
    11 3.883690 -0.046767 0.431443 -0.014996 -0.018733 -0.976993
    12 1.719576 -0.000013 0.000009 -0.044570 -0.097230 -0.767255
    13 1.209185 -0.000010 0.000003 -0.004518 -0.106999 -0.696245
    14 3.859859 -0.137949 1.332466 0.226742 -0.067261 -0.805387
    15 1.719433 -0.000006 -0.000003 -0.013654 -0.171040 -0.735685
    16 1.099669 -0.000008 0.000002 0.046733 -0.198518 -0.629150
    17 0.806044 -0.348926 1.321258 -1.209848 -0.782429 -0.812532
    18 1.789782 0.000002 -0.000008 -0.001308 -0.000139 -0.108248
    19 1.207005 0.000000 0.000000 -0.000083 0.000023 -0.319840
    20 -2.417969 -10.468750 -8.367188 -1.668474 1.286518 2.942954
    21 6.028139 0.000000 -0.000002 0.547248 1.105599 -1.351192
    22 11.692549 0.000000 0.000003 -0.000002 0.000000 -1.162591
    23 11.481695 -0.000080 0.000006 -1.311834 0.357222 1.027689
    24 3.859676 -0.132517 1.193109 0.488873 -0.052410 -1.068503
    25 1.312561 0.000002 -0.000001 0.000831 0.000302 -0.358974
    26 0.729367 0.000004 0.000001 -0.000023 -0.000033 -0.392799
    27 3.942295 0.050373 0.431044 0.176864 -0.001972 -1.008460
    28 1.539099 0.000011 0.000000 0.005120 0.007631 -0.250485
    29 1.196325 0.000004 -0.000003 -0.000638 -0.000083 -0.615396
    30 3.883663 -0.050280 -0.431043 -0.052551 -0.111011 -0.695367
    31 1.719580 -0.000008 0.000006 0.003069 0.014354 -0.555681
    32 1.209188 -0.000013 0.000006 -0.001545 -0.004349 -0.377979
    33 3.859833 -0.148894 -1.331282 -0.297469 0.242623 -0.226490
    34 1.719427 -0.000006 0.000010 -0.011409 0.038330 -0.556772
    35 1.099665 0.000011 0.000004 -0.005774 -0.004883 -0.211046
    36 0.806026 -0.359824 -1.318335 1.263812 0.717867 -0.719815
    37 1.789783 -0.000004 -0.000002 -0.003898 0.001151 -0.040477
    38 1.207001 -0.000002 -0.000006 -0.000490 -0.000504 0.075680
    39 -1.449264 -11.273266 -4.309518 2.442575 -0.934191 -3.401794
    40 -0.000001 1.365388 -0.536964 -1.570798 0.000001 0.000000
    41 -0.000001 -0.513253 -0.829849 1.121305 0.000000 -3.141591
    42 0.000000 -0.854954 0.683403 0.154998 0.000000 -3.141591
    43 -0.456437 0.634190 -1.470296 -1.570797 0.000001 0.000000
    44 0.000008 1.368782 -31.679443 -1.570797 0.000000 0.000000
    45 0.162476 0.431641 -1.771484 -1.592774 0.018724 -0.721931
    46 -0.102380 0.431843 0.420865 -1.560826 -0.000482 0.000595
    47 0.000000 0.306830 -0.617118 -1.570796 0.000000 0.000000
  time 21
    0 0.000000 -0.000006 0.000000 -1.570781 -1.391896 -1.570809
    1 -8.724793 2.883637 9.539454 1.596636 -1.286515 2.942963
    2 6.028140 0.000007 0.000003 0.434833 -1.199462 -2.999707
    3 11.692572 0.000000 -0.000019 -0.000013 0.000025 -0.772375
    4 11.481682 -0.000163 -0.000038 0.709945 -0.309722 0.393745
    5 3.859703 -0.142405 -1.191976 -0.561092 -0.094073 -1.565963
    6 1.312561 -0.000010 0.000002 -0.078642 -0.018746 -0.186206
    7 0.729367 -0.000004 0.000000 -0.050465 -0.009004 -0.684391
    8 3.942326 0.046766 -0.431443 -0.248160 -0.032862 -1.298352
    9 1.539099 -0.000002 -0.000007 -0.078045 -0.030902 -0.467766
    10 1.196324 -0.000004 0.000003 -0.036996 -0.071375 -0.881869
    11 3.883690 -0.046767 0.431443 -0.020353 -0.022172 -1.002901
    12 1.719576 -0.000013 0.000009 -0.045864 -0.103690 -0.790596
    13 1.209185 -0.000010 0.000003 -0.004111 -0.113423 -0.706899
    14 3.859859 -0.137949 1.332466 0.226155 -0.067825 -0.849425
    15 1.719433 -0.000006 -0.000003 -0.012396 -0.181275 -0.757668
    16 1.099669 -0.000008 0.000002 0.052048 -0.202186 -0.650688
    17 0.806044 -0.348926 1.321258 -1.210616 -0.776380 -0.811051
    18 1.789782 0.000002 -0.000008 -0.001189 -0.000070 -0.107717
    19 1.207005 0.000000 0.000000 -0.000083 0.000023 -0.300974
    20 -2.417969 -10.468750 -8.367188 -1.668474 1.286518 2.942954
    21 6.028139 0.000000 -0.000002 0.578202 1.111533 -1.327532
    22 11.692549 0.000000 0.000003 -0.000002 0.000000 -1.165637
    23 11.481695 -0.000080 0.000006 -1.355295 0.316402 0.986294
    24 3.859676 -0.132517 1.193109 0.486476 -0.070545 -1.036726
    25 1.312561 0.000002 -0.000001 0.000687 0.000254 -0.372478
    26 0.729367 0.000004 0.000001 -0.000011 -0.000021 -0.367862
    27 3.942295 0.050373 0.431044 0.173376 -0.016486 -0.975188
    28 1.539099 0.000011 0.000000 0.004269 0.006361 -0.250032
    29 1.196325 0.000004 -0.000003 -0.000530 -0.000059 -0.584292
    30 3.883663 -0.050280 -0.431043 -0.065818 -0.120167 -0.678515
    31 1.719580 -0.000008 0.000006 0.002853 0.010555 -0.523792
    32 1.209188 -0.000013 0.000006 -0.001281 -0.004349 -0.350820
    33 3.859833 -0.148894 -1.331282 -0.299255 0.239878 -0.225140
    34 1.719427 -0.000006 0.000010 -0.008881 0.030912 -0.524040
    35 1.099665 0.000011 0.000004 -0.004803 -0.004775 -0.216611
    36 0.806026 -0.359824 -1.318335 1.265250 0.725306 -0.717536
    37 1.789783 -0.000004 -0.000002 -0.004126 0.001199 -0.050245
    38 1.207001 -0.000002 -0.000006 -0.000514 -0.000552 0.038862
    39 -1.406294 -11.226390 -4.274360 2.510680 -0.975356 -3.425680
    40 -0.000001 1.365388 -0.536964 -1.570798 0.000001 0.000000
    41 -0.000001 -0.513253 -0.829849 1.121305 0.000000 -3.141591
    42 0.000000 -0.854954 0.683403 0.154998 0.000000 -3.141591
    43 -0.456437 0.634190 -1.470296 -1.570797 0.000001 0.000000
    44 0.000008 1.368782 -31.679443 -1.570797 0.000000 0.000000
    45 0.162476 0.431641 -1.771484 -1.592774 0.018724 -0.721931
    46 -0.102380 0.431843 0.420865 -1.560826 -0.000482 0.000595
    47 0.000000 0.306830 -0.617118 -1.570796 0.000000 0.000000
  time 22
    0 0.000000 -0.000006 0.000000 -1.570781 -1.391896 -1.570809
    1 -8.877141 2.500813 9.902746 1.596636 -1.286515 2.942963
    2 6.028140 0.000007 0.000003 0.431976 -1.189857 -3.035677
    3 11.692572 0.000000 -0.000019 -0.000013 0.000025 -0.768885
    4 11.481682 -0.000163 -0.000038 0.658578 -0.319065 0.411145
    5 3.859703 -0.142405 -1.191976 -0.561128 -0.107831 -1.600877
    6 1.312561 -0.000010 0.000002 -0.082813 -0.019165 -0.173059
    7 0.729367 -0.000004 0.000000 -0.052910 -0.010058 -0.707110
    8 3.942326 0.046766 -0.431443 -0.251624 -0.039477 -1.323246
    9 1.539099 -0.000002 -0.000007 -0.081880 -0.032964 -0.479060
    10 1.196324 -0.000004 0.000003 -0.038002 -0.075438 -0.905131
    11 3.883690 -0.046767 0.431443 -0.025279 -0.025516 -1.027181
    12 1.719576 -0.000013 0.000009 -0.046943 -0.109754 -0.812481
    13 1.209185 -0.000010 0.000003 -0.003655 -0.119439 -0.716903
    14 3.859859 -0.137949 1.332466 0.225628 -0.068376 -0.890532
    15 1.719433 -0.000006 -0.000003 -0.011018 -0.190838 -0.778288
    16 1.099669 -0.000008 0.000002 0.057117 -0.205529 -0.670905
    17 0.806044 -0.348926 1.321258 -1.213139 -0.759930 -0.807072
    18 1.789782 0.000002 -0.000008 -0.001093 0.000068 -0.106271
    19 1.207005 0.000000 0.000000 -0.000107 0.000011 -0.249520
    20 -2.417969 -10.468750 -8.367188 -1.668474 1.286518 2.942954
    21 6.028139 0.000000 -0.000002 0.610387 1.118874 -1.303937
    22 11.692549 0.000000 0.000003 -0.000002 0.000000 -1.166992
    23 11.481695 -0.000080 0.000006 -1.397092 0.270297 0.947639
    24 3.859676 -0.132517 1.193109 0.483720 -0.087411 -1.006941
    25 1.312561 0.000002 -0.000001 0.000555 0.000206 -0.385119
    26 0.729367 0.000004 0.000001 -0.000011 -0.000021 -0.344500
    27 3.942295 0.050373 0.431044 0.169685 -0.029920 -0.944064
    28 1.539099 0.000011 0.000000 0.003467 0.005162 -0.249601
    29 1.196325 0.000004 -0.000003 -0.000434 -0.000035 -0.555203
    30 3.883663 -0.050280 -0.431043 -0.078390 -0.128533 -0.662589
    31 1.719580 -0.000008 0.000006 0.002530 0.007020 -0.493949
    32 1.209188 -0.000013 0.000006 -0.001042 -0.004361 -0.325386
    33 3.859833 -0.148894 -1.331282 -0.300921 0.237313 -0.223872
    34 1.719427 -0.000006 0.000010 -0.006723 0.023913 -0.493424
    35 1.099665 0.000011 0.000004 -0.003892 -0.004679 -0.221810
    36 0.806026 -0.359824 -1.318335 1.266614 0.732287 -0.715347
    37 1.789783 -0.000004 -0.000002 -0.004329 0.001247 -0.059401
    38 1.207001 -0.000002 -0.000006 -0.000526 -0.000588 0.004514
    39 -1.386762 -11.183419 -4.243109 2.579261 -1.013667 -3.450852
    40 -0.000001 1.365388 -0.536964 -1.570798 0.000001 0.000000
    41 -0.000001 -0.513253 -0.829849 1.121305 0.000000 -3.141591
    42 0.000000 -0.854954 0.683403 0.154998 0.000000 -3.141591
    43 -0.456437 0.634190 -1.470296 -1.570797 0.000001 0.000000
    44 0.000008 1.368782 -31.679443 -1.570797 0.000000 0.000000
    45 0.162476 0.431641 -1.771484 -1.592774 0.018724 -0.721931
    46 -0.102380 0.431843 0.420865 -1.560826 -0.000482 0.000595
    47 0.000000 0.306830 -0.617118 -1.570796 0.000000 0.000000
  time 23
    0 0.000000 -0.000006 0.000000 -1.570781 -1.391896 -1.570809
    1 -9.017770 2.145333 10.246506 1.596636 -1.286515 2.942963
    2 6.028140 0.000007 0.000003 0.412991 -1.184042 -3.046228
    3 11.692572 0.000000 -0.000019 -0.000013 0.000025 -0.777361
    4 11.481682 -0.000163 -0.000038 0.598266 -0.325923 0.439842
    5 3.859703 -0.142405 -1.191976 -0.560738 -0.120463 -1.632985
    6 1.312561 -0.000010 0.000002 -0.086660 -0.019501 -0.160899
    7 0.729367 -0.000004 0.000000 -0.055151 -0.011089 -0.728037
    8 3.942326 0.046766 -0.431443 -0.254668 -0.045637 -1.346147
    9 1.539099 -0.000002 -0.000007 -0.085391 -0.034893 -0.489496
    10 1.196324 -0.000004 0.000003 -0.038841 -0.079201 -0.926590
    11 3.883690 -0.046767 0.431443 -0.029737 -0.028704 -1.049508
    12 1.719576 -0.000013 0.000009 -0.047817 -0.115375 -0.832676
    13 1.209185 -0.000010 0.000003 -0.003188 -0.124988 -0.726133
    14 3.859859 -0.137949 1.332466 0.225172 -0.068903 -0.928201
    15 1.719433 -0.000006 -0.000003 -0.009568 -0.199623 -0.797337
    16 1.099669 -0.000008 0.000002 0.061861 -0.208513 -0.689547
    17 0.806044 -0.348926 1.321258 -1.216759 -0.735658 -0.801389
    18 1.789782 0.000002 -0.000008 -0.001033 0.000292 -0.104147
    19 1.207005 0.000000 0.000000 -0.000119 -0.000001 -0.173030
    20 -2.417969 -10.468750 -8.367188 -1.668474 1.286518 2.942954
    21 6.028139 0.000000 -0.000002 0.643100 1.127533 -1.281050
    22 11.692549 0.000000 0.000003 -0.000002 0.000000 -1.166111
    23 11.481695 -0.000080 0.000006 -1.436504 0.219928 0.911782
    24 3.859676 -0.132517 1.193109 0.480723 -0.102833 -0.979487
    25 1.312561 0.000002 -0.000001 0.000435 0.000170 -0.396790
    26 0.729367 0.000004 0.000001 -0.000011 -0.000009 -0.322992
    27 3.942295 0.050373 0.431044 0.165922 -0.042181 -0.915393
    28 1.539099 0.000011 0.000000 0.002723 0.004060 -0.249212
    29 1.196325 0.000004 -0.000003 -0.000339 -0.000023 -0.528414
    30 3.883663 -0.050280 -0.431043 -0.090099 -0.136083 -0.647783
    31 1.719580 -0.000008 0.000006 0.002146 0.003760 -0.466490
    32 1.209188 -0.000013 0.000006 -0.000814 -0.004373 -0.301981
    33 3.859833 -0.148894 -1.331282 -0.302455 0.234953 -0.222686
    34 1.719427 -0.000006 0.000010 -0.004938 0.017405 -0.465295
    35 1.099665 0.000011 0.000004 -0.003065 -0.004583 -0.226621
    36 0.806026 -0.359824 -1.318335 1.267868 0.738707 -0.713291
    37 1.789783 -0.000004 -0.000002 -0.004521 0.001279 -0.067862
    38 1.207001 -0.000002 -0.000006 -0.000538 -0.000636 -0.027126
    39 -1.390668 -11.144356 -4.211858 2.647556 -1.048750 -3.477035
    40 -0.000001 1.365388 -0.536964 -1.570798 0.000001 0.000000
    41 -0.000001 -0.513253 -0.829849 1.121305 0.000000 -3.141591
    42 0.000000 -0.854954 0.683403 0.154998 0.000000 -3.141591
    43 -0.456437 0.634190 -1.470296 -1.570797 0.000001 0.000000
    44 0.000008 1.368782 -31.679443 -1.570797 0.000000 0.000000
    45 0.162476 0.431641 -1.771484 -1.592774 0.018724 -0.721931
    46 -0.102380 0.431843 0.420865 -1.560826 -0.000482 0.000595
    47 0.000000 0.306830 -0.617118 -1.570796 0.000000 0.000000
  time 24
    0 0.000000 -0.000006 0.000000 -1.570781 -1.391896 -1.570809
    1 -9.142774 1.825011 10.574641 1.596636 -1.286515 2.942963
    2 6.028140 0.000007 0.000003 0.383499 -1.180725 -3.037837
    3 11.692572 0.000000 -0.000019 -0.000013 0.000025 -0.794457
    4 11.481682 -0.000163 -0.000038 0.533879 -0.331132 0.474440
    5 3.859703 -0.142405 -1.191976 -0.560032 -0.131825 -1.661949
    6 1.312561 -0.000010 0.000002 -0.090147 -0.019777 -0.149933
    7 0.729367 -0.000004 0.000000 -0.057153 -0.012048 -0.746944
    8 3.942326 0.046766 -0.431443 -0.257292 -0.051270 -1.366810
    9 1.539099 -0.000002 -0.000007 -0.088555 -0.036679 -0.498936
    10 1.196324 -0.000004 0.000003 -0.039524 -0.082617 -0.945975
    11 3.883690 -0.046767 0.431443 -0.033704 -0.031664 -1.069663
    12 1.719576 -0.000013 0.000009 -0.048513 -0.120456 -0.850908
    13 1.209185 -0.000010 0.000003 -0.002720 -0.129998 -0.734495
    14 3.859859 -0.137949 1.332466 0.224765 -0.069383 -0.962107
    15 1.719433 -0.000006 -0.000003 -0.008105 -0.207533 -0.814609
    16 1.099669 -0.000008 0.000002 0.066187 -0.211138 -0.706446
    17 0.806044 -0.348926 1.321258 -1.220896 -0.706146 -0.794827
    18 1.789782 0.000002 -0.000008 -0.000997 0.000551 -0.101552
    19 1.207005 0.000000 0.000000 -0.000155 -0.000001 -0.079414
    20 -2.417969 -10.468750 -8.367188 -1.668474 1.286518 2.942954
    21 6.028139 0.000000 -0.000002 0.675197 1.137554 -1.259582
    22 11.692549 0.000000 0.000003 -0.000002 0.000000 -1.162252
    23 11.481695 -0.000080 0.000006 -1.472950 0.166354 0.878152
    24 3.859676 -0.132517 1.193109 0.477667 -0.116660 -0.954658
    25 1.312561 0.000002 -0.000001 0.000328 0.000122 -0.407360
    26 0.729367 0.000004 0.000001 0.000001 -0.000009 -0.303556
    27 3.942295 0.050373 0.431044 0.162230 -0.053122 -0.889484
    28 1.539099 0.000011 0.000000 0.002052 0.003053 -0.248846
    29 1.196325 0.000004 -0.000003 -0.000255 -0.000011 -0.504253
    30 3.883663 -0.050280 -0.431043 -0.100789 -0.142746 -0.634336
    31 1.719580 -0.000008 0.000006 0.001727 0.000836 -0.441730
    32 1.209188 -0.000013 0.000006 -0.000610 -0.004397 -0.280818
    33 3.859833 -0.148894 -1.331282 -0.303857 0.232807 -0.221622
    34 1.719427 -0.000006 0.000010 -0.003487 0.011509 -0.439955
    35 1.099665 0.000011 0.000004 -0.002310 -0.004500 -0.230978
    36 0.806026 -0.359824 -1.318335 1.269085 0.744546 -0.711415
    37 1.789783 -0.000004 -0.000002 -0.004701 0.001311 -0.075508
    38 1.207001 -0.000002 -0.000006 -0.000550 -0.000672 -0.055582
    39 -1.410200 -11.109198 -4.180607 2.714708 -1.080235 -3.503585
    40 -0.000001 1.365388 -0.536964 -1.570798 0.000001 0.000000
    41 -0.000001 -0.513253 -0.829849 1.121305 0.000000 -3.141591
    42 0.000000 -0.854954 0.683403 0.154998 0.000000 -3.141591
    43 -0.456437 0.634190 -1.470296 -1.570797 0.000001 0.000000
    44 0.000008 1.368782 -31.679443 -1.570797 0.000000 0.000000
    45 0.162476 0.431641 -1.771484 -1.592774 0.018724 -0.721931
    46 -0.102380 0.431843 0.420865 -1.560826 -0.000482 0.000595
    47 0.000000 0.306830 -0.617118 -1.570796 0.000000 0.000000
  time 25
    0 0.000000 -0.000006 0.000000 -1.570781 -1.391896 -1.570809
    1 -9.256059 1.543752 10.883245 1.596636 -1.286515 2.942963
    2 6.028140 0.000007 0.000003 0.348017 -1.178787 -3.015657
    3 11.692572 0.000000 -0.000019 -0.000013 0.000025 -0.817179
    4 11.481682 -0.000163 -0.000038 0.469670 -0.335911 0.510803
    5 3.859703 -0.142405 -1.191976 -0.559130 -0.141772 -1.687406
    6 1.312561 -0.000010 0.000002 -0.093227 -0.019980 -0.140253
    7 0.729367 -0.000004 0.000000 -0.058890 -0.012935 -0.763579
    8 3.942326 0.046766 -0.431443 -0.259509 -0.056267 -1.384989
    9 1.539099 -0.000002 -0.000007 -0.091336 -0.038273 -0.507243
    10 1.196324 -0.000004 0.000003 -0.040076 -0.085637 -0.963018
    11 3.883690 -0.046767 0.431443 -0.037156 -0.034337 -1.087393
    12 1.719576 -0.000013 0.000009 -0.049040 -0.124938 -0.866942
    13 1.209185 -0.000010 0.000003 -0.002277 -0.134420 -0.741866
    14 3.859859 -0.137949 1.332466 0.224429 -0.069826 -0.991779
    15 1.719433 -0.000006 -0.000003 -0.006691 -0.214484 -0.829857
    16 1.099669 -0.000008 0.000002 0.070035 -0.213391 -0.721320
    17 0.806044 -0.348926 1.321258 -1.225018 -0.674027 -0.788041
    18 1.789782 0.000002 -0.000008 -0.000973 0.000828 -0.098720
    19 1.207005 0.000000 0.000000 -0.000179 -0.000013 0.022982
    20 -2.417969 -10.468750 -8.367188 -1.668474 1.286518 2.942954
    21 6.028139 0.000000 -0.000002 0.706503 1.148675 -1.239532
    22 11.692549 0.000000 0.000003 -0.000002 0.000000 -1.155684
    23 11.481695 -0.000080 0.000006 -1.505853 0.110700 0.846406
    24 3.859676 -0.132517 1.193109 0.474683 -0.128729 -0.932794
    25 1.312561 0.000002 -0.000001 0.000232 0.000086 -0.416658
    26 0.729367 0.000004 0.000001 0.000001 0.000003 -0.286449
    27 3.942295 0.050373 0.431044 0.158755 -0.062650 -0.866713
    28 1.539099 0.000011 0.000000 0.001465 0.002178 -0.248544
    29 1.196325 0.000004 -0.000003 -0.000183 0.000001 -0.483028
    30 3.883663 -0.050280 -0.431043 -0.110293 -0.148499 -0.622418
    31 1.719580 -0.000008 0.000006 0.001295 -0.001729 -0.419961
    32 1.209188 -0.000013 0.000006 -0.000430 -0.004409 -0.262223
    33 3.859833 -0.148894 -1.331282 -0.305091 0.230926 -0.220682
    34 1.719427 -0.000006 0.000010 -0.002337 0.006295 -0.417685
    35 1.099665 0.000011 0.000004 -0.001639 -0.004416 -0.234818
    36 0.806026 -0.359824 -1.318335 1.270117 0.749678 -0.709716
    37 1.789783 -0.000004 -0.000002 -0.004857 0.001343 -0.082255
    38 1.207001 -0.000002 -0.000006 -0.000550 -0.000696 -0.080571
    39 -1.453170 -11.081854 -4.153263 2.779384 -1.107706 -3.529584
    40 -0.000001 1.365388 -0.536964 -1.570798 0.000001 0.000000
    41 -0.000001 -0.513253 -0.829849 1.121305 0.000000 -3.141591
    42 0.000000 -0.854954 0.683403 0.154998 0.000000 -3.141591
    43 -0.456437 0.634190 -1.470296 -1.570797 0.000001 0.000000
    44 0.000008 1.368782 -31.679443 -1.570797 0.000000 0.000000
    45 0.162476 0.431641 -1.771484 -1.592774 0.018724 -0.721931
    46 -0.102380 0.431843 0.420865 -1.560826 -0.000482 0.000595
    47 0.000000 0.306830 -0.617118 -1.570796 0.000000 0.000000
  time 26
    0 0.000000 -0.000006 0.000000 -1.570781 -1.391896 -1.570809
    1 -9.349812 1.305464 11.164503 1.596636 -1.286515 2.942963
    2 6.028140 0.000007 0.000003 0.311337 -1.177193 -2.985252
    3 11.692572 0.000000 -0.000019 -0.000013 0.000025 -0.843036
    4 11.481682 -0.000163 -0.000038 0.409269 -0.341789 0.545855
    5 3.859703 -0.142405 -1.191976 -0.558180 -0.150173 -1.708989
    6 1.312561 -0.000010 0.000002 -0.095852 -0.020124 -0.132036
    7 0.729367 -0.000004 0.000000 -0.060365 -0.013702 -0.777740
    8 3.942326 0.046766 -0.431443 -0.261319 -0.060534 -1.400411
    9 1.539099 -0.000002 -0.000007 -0.093697 -0.039651 -0.514315
    10 1.196324 -0.000004 0.000003 -0.040507 -0.088202 -0.977503
    11 3.883690 -0.046767 0.431443 -0.040044 -0.036650 -1.102446
    12 1.719576 -0.000013 0.000009 -0.049435 -0.128761 -0.880608
    13 1.209185 -0.000010 0.000003 -0.001870 -0.138183 -0.748154
    14 3.859859 -0.137949 1.332466 0.224154 -0.070198 -1.016928
    15 1.719433 -0.000006 -0.000003 -0.005421 -0.220368 -0.842832
    16 1.099669 -0.000008 0.000002 0.073342 -0.215261 -0.734001
    17 0.806044 -0.348926 1.321258 -1.228826 -0.641856 -0.781565
    18 1.789782 0.000002 -0.000008 -0.000961 0.001087 -0.095918
    19 1.207005 0.000000 0.000000 -0.000215 -0.000013 0.125378
    20 -2.417969 -10.468750 -8.367188 -1.668474 1.286518 2.942954
    21 6.028139 0.000000 -0.000002 0.736226 1.160850 -1.221352
    22 11.692549 0.000000 0.000003 -0.000002 0.000000 -1.145799
    23 11.481695 -0.000080 0.000006 -1.534851 0.054125 0.815573
    24 3.859676 -0.132517 1.193109 0.471951 -0.138914 -0.914212
    25 1.312561 0.000002 -0.000001 0.000148 0.000062 -0.424596
    26 0.729367 0.000004 0.000001 0.000001 0.000003 -0.271910
    27 3.942295 0.050373 0.431044 0.155639 -0.070668 -0.847363
    28 1.539099 0.000011 0.000000 0.000962 0.001423 -0.248263
    29 1.196325 0.000004 -0.000003 -0.000123 0.000001 -0.465001
    30 3.883663 -0.050280 -0.431043 -0.118442 -0.153293 -0.612246
    31 1.719580 -0.000008 0.000006 0.000888 -0.003886 -0.401497
    32 1.209188 -0.000013 0.000006 -0.000275 -0.004433 -0.246411
    33 3.859833 -0.148894 -1.331282 -0.306146 0.229320 -0.219864
    34 1.719427 -0.000006 0.000010 -0.001450 0.001849 -0.398808
    35 1.099665 0.000011 0.000004 -0.001076 -0.004344 -0.238097
    36 0.806026 -0.359824 -1.318335 1.271039 0.754041 -0.708287
    37 1.789783 -0.000004 -0.000002 -0.004989 0.001359 -0.087996
    38 1.207001 -0.000002 -0.000006 -0.000562 -0.000732 -0.101807
    39 -1.511766 -11.058416 -4.129825 2.840250 -1.130915 -3.553929
    40 -0.000001 1.365388 -0.536964 -1.570798 0.000001 0.000000
    41 -0.000001 -0.513253 -0.829849 1.121305 0.000000 -3.141591
    42 0.000000 -0.854954 0.683403 0.154998 0.000000 -3.141591
    43 -0.456437 0.634190 -1.470296 -1.570797 0.000001 0.000000
    44 0.000008 1.368782 -31.679443 -1.570797 0.000000 0.000000
    45 0.162476 0.431641 -1.771484 -1.592774 0.018724 -0.721931
    46 -0.102380 0.431843 0.420865 -1.560826 -0.000482 0.000595
    47 0.000000 0.306830 -0.617118 -1.570796 0.000000 0.000000
  time 27
    0 0.000000 -0.000006 0.000000 -1.570781 -1.391896 -1.570809
    1 -9.427939 1.110145 11.414511 1.596636 -1.286515 2.942963
    2 6.028140 0.000007 0.000003 0.277882 -1.175384 -2.951525
    3 11.692572 0.000000 -0.000019 -0.000013 0.000025 -0.869533
    4 11.481682 -0.000163 -0.000038 0.355599 -0.350368 0.577679
    5 3.859703 -0.142405 -1.191976 -0.557266 -0.156920 -1.726390
    6 1.312561 -0.000010 0.000002 -0.097973 -0.020232 -0.125373
    7 0.729367 -0.000004 0.000000 -0.061551 -0.014349 -0.789150
    8 3.942326 0.046766 -0.431443 -0.262733 -0.063998 -1.412858
    9 1.539099 -0.000002 -0.000007 -0.095590 -0.040778 -0.520048
    10 1.196324 -0.000004 0.000003 -0.040831 -0.090287 -0.989215
    11 3.883690 -0.046767 0.431443 -0.042345 -0.038555 -1.114568
    12 1.719576 -0.000013 0.000009 -0.049711 -0.131841 -0.891601
    13 1.209185 -0.000010 0.000003 -0.001522 -0.141215 -0.753233
    14 3.859859 -0.137949 1.332466 0.223950 -0.070509 -1.037119
    15 1.719433 -0.000006 -0.000003 -0.004318 -0.225102 -0.853328
    16 1.099669 -0.000008 0.000002 0.076031 -0.216747 -0.744236
    17 0.806044 -0.348926 1.321258 -1.232039 -0.612292 -0.775882
    18 1.789782 0.000002 -0.000008 -0.000949 0.001345 -0.093322
    19 1.207005 0.000000 0.000000 -0.000251 -0.000013 0.218993
    20 -2.417969 -10.468750 -8.367188 -1.668474 1.286518 2.942954
    21 6.028139 0.000000 -0.000002 0.764014 1.173949 -1.205235
    22 11.692549 0.000000 0.000003 -0.000002 0.000000 -1.132461
    23 11.481695 -0.000080 0.000006 -1.559583 -0.002450 0.784513
    24 3.859676 -0.132517 1.193109 0.469602 -0.147077 -0.899184
    25 1.312561 0.000002 -0.000001 0.000088 0.000026 -0.430981
    26 0.729367 0.000004 0.000001 0.000001 0.000003 -0.260175
    27 3.942295 0.050373 0.431044 0.153002 -0.077068 -0.831742
    28 1.539099 0.000011 0.000000 0.000554 0.000812 -0.248047
    29 1.196325 0.000004 -0.000003 -0.000063 0.000001 -0.450456
    30 3.883663 -0.050280 -0.431043 -0.125046 -0.157116 -0.603992
    31 1.719580 -0.000008 0.000006 0.000528 -0.005636 -0.386610
    32 1.209188 -0.000013 0.000006 -0.000155 -0.004445 -0.233661
    33 3.859833 -0.148894 -1.331282 -0.306997 0.228025 -0.219209
    34 1.719427 -0.000006 0.000010 -0.000791 -0.001734 -0.383581
    35 1.099665 0.000011 0.000004 -0.000608 -0.004284 -0.240729
    36 0.806026 -0.359824 -1.318335 1.271813 0.757573 -0.707125
    37 1.789783 -0.000004 -0.000002 -0.005096 0.001375 -0.092634
    38 1.207001 -0.000002 -0.000006 -0.000562 -0.000744 -0.118862
    39 -1.585987 -11.038884 -4.106386 2.895305 -1.149533 -3.575151
    40 -0.000001 1.365388 -0.536964 -1.570798 0.000001 0.000000
    41 -0.000001 -0.513253 -0.829849 1.121305 0.000000 -3.141591
    42 0.000000 -0.854954 0.683403 0.154998 0.000000 -3.141591
    43 -0.456437 0.634190 -1.470296 -1.570797 0.000001 0.000000
    44 0.000008 1.368782 -31.679443 -1.570797 0.000000 0.000000
    45 0.162476 0.431641 -1.771484 -1.592774 0.018724 -0.721931
    46 -0.102380 0.431843 0.420865 -1.560826 -0.000482 0.000595
    47 0.000000 0.306830 -0.617118 -1.570796 0.000000 0.000000
  time 28
    0 0.000000 -0.000006 0.000000 -1.570781 -1.391896 -1.570809
    1 -9.482628 0.969516 11.641080 1.596636 -1.286515 2.942963
    2 6.028140 0.000007 0.000003 0.250787 -1.173144 -2.918545
    3 11.692572 0.000000 -0.000019 -0.000013 0.000025 -0.895604
    4 11.481682 -0.000163 -0.000038 0.311317 -0.363223 0.605518
    5 3.859703 -0.142405 -1.191976 -0.556523 -0.161882 -1.739244
    6 1.312561 -0.000010 0.000002 -0.099543 -0.020304 -0.120443
    7 0.729367 -0.000004 0.000000 -0.062414 -0.014828 -0.797581
    8 3.942326 0.046766 -0.431443 -0.263740 -0.066574 -1.422056
    9 1.539099 -0.000002 -0.000007 -0.096980 -0.041616 -0.524270
    10 1.196324 -0.000004 0.000003 -0.041046 -0.091821 -0.997858
    11 3.883690 -0.046767 0.431443 -0.044035 -0.039981 -1.123542
    12 1.719576 -0.000013 0.000009 -0.049903 -0.134130 -0.899787
    13 1.209185 -0.000010 0.000003 -0.001258 -0.143457 -0.757012
    14 3.859859 -0.137949 1.332466 0.223794 -0.070737 -1.052028
    15 1.719433 -0.000006 -0.000003 -0.003479 -0.228602 -0.861096
    16 1.099669 -0.000008 0.000002 0.078024 -0.217825 -0.751828
    17 0.806044 -0.348926 1.321258 -1.234484 -0.587942 -0.771386
    18 1.789782 0.000002 -0.000008 -0.000961 0.001553 -0.091198
    19 1.207005 0.000000 0.000000 -0.000275 -0.000013 0.295483
    20 -2.417969 -10.468750 -8.367188 -1.668474 1.286518 2.942954
    21 6.028139 0.000000 -0.000002 0.789604 1.187751 -1.191052
    22 11.692549 0.000000 0.000003 -0.000002 0.000000 -1.115737
    23 11.481695 -0.000080 0.000006 -1.579469 -0.058001 0.752081
    24 3.859676 -0.132517 1.193109 0.467792 -0.153080 -0.888071
    25 1.312561 0.000002 -0.000001 0.000040 0.000014 -0.435727
    26 0.729367 0.000004 0.000001 0.000001 0.000003 -0.251503
    27 3.942295 0.050373 0.431044 0.151001 -0.081766 -0.820180
    28 1.539099 0.000011 0.000000 0.000255 0.000369 -0.247896
    29 1.196325 0.000004 -0.000003 -0.000027 0.000001 -0.439701
    30 3.883663 -0.050280 -0.431043 -0.129959 -0.159896 -0.597850
    31 1.719580 -0.000008 0.000006 0.000241 -0.006906 -0.375590
    32 1.209188 -0.000013 0.000006 -0.000071 -0.004457 -0.224234
    33 3.859833 -0.148894 -1.331282 -0.307620 0.227067 -0.218739
    34 1.719427 -0.000006 0.000010 -0.000348 -0.004395 -0.372329
    35 1.099665 0.000011 0.000004 -0.000273 -0.004248 -0.242692
    36 0.806026 -0.359824 -1.318335 1.272366 0.760170 -0.706276
    37 1.789783 -0.000004 -0.000002 -0.005180 0.001391 -0.096074
    38 1.207001 -0.000002 -0.000006 -0.000562 -0.000768 -0.131452
    39 -1.671927 -11.027165 -4.090761 2.942645 -1.163310 -3.591596
    40 -0.000001 1.365388 -0.536964 -1.570798 0.000001 0.000000
    41 -0.000001 -0.513253 -0.829849 1.121305 0.000000 -3.141591
    42 0.000000 -0.854954 0.683403 0.154998 0.000000 -3.141591
    43 -0.456437 0.634190 -1.470296 -1.570797 0.000001 0.000000
    44 0.000008 1.368782 -31.679443 -1.570797 0.000000 0.000000
    45 0.162476 0.431641 -1.771484 -1.592774 0.018724 -0.721931
    46 -0.102380 0.431843 0.420865 -1.560826 -0.000482 0.000595
    47 0.000000 0.306830 -0.617118 -1.570796 0.000000 0.000000
  time 29
    0 0.000000 -0.000006 0.000000 -1.570781 -1.391896 -1.570809
    1 -9.521692 0.879670 11.828586 1.596636 -1.286515 2.942963
    2 6.028140 0.000007 0.000003 0.233645 -1.170301 -2.890799
    3 11.692572 0.000000 -0.000019 -0.000013 0.000025 -0.919537
    4 11.481682 -0.000163 -0.000038 0.279079 -0.381862 0.628667
    5 3.859703 -0.142405 -1.191976 -0.556035 -0.164962 -1.747243
    6 1.312561 -0.000010 0.000002 -0.100514 -0.020340 -0.117396
    7 0.729367 -0.000004 0.000000 -0.062953 -0.015128 -0.802832
    8 3.942326 0.046766 -0.431443 -0.264363 -0.068180 -1.427789
    9 1.539099 -0.000002 -0.000007 -0.097855 -0.042144 -0.526879
    10 1.196324 -0.000004 0.000003 -0.041178 -0.092780 -1.003242
    11 3.883690 -0.046767 0.431443 -0.045078 -0.040868 -1.129115
    12 1.719576 -0.000013 0.000009 -0.050011 -0.135545 -0.904828
    13 1.209185 -0.000010 0.000003 -0.001091 -0.144859 -0.759366
    14 3.859859 -0.137949 1.332466 0.223698 -0.070881 -1.061255
    15 1.719433 -0.000006 -0.000003 -0.002940 -0.230771 -0.865931
    16 1.099669 -0.000008 0.000002 0.079260 -0.218485 -0.756523
    17 0.806044 -0.348926 1.321258 -1.236051 -0.571439 -0.768407
    18 1.789782 0.000002 -0.000008 -0.000961 0.001691 -0.089753
    19 1.207005 0.000000 0.000000 -0.000287 -0.000013 0.346937
    20 -2.417969 -10.468750 -8.367188 -1.668474 1.286518 2.942954
    21 6.028139 0.000000 -0.000002 0.812995 1.201992 -1.178738
    22 11.692549 0.000000 0.000003 -0.000002 0.000000 -1.095695
    23 11.481695 -0.000080 0.000006 -1.594221 -0.111678 0.717024
    24 3.859676 -0.132517 1.193109 0.466630 -0.156798 -0.881168
    25 1.312561 0.000002 -0.000001 0.000004 0.000002 -0.438683
    26 0.729367 0.000004 0.000001 0.000001 0.000003 -0.246110
    27 3.942295 0.050373 0.431044 0.149742 -0.084678 -0.813030
    28 1.539099 0.000011 0.000000 0.000063 0.000093 -0.247789
    29 1.196325 0.000004 -0.000003 -0.000003 0.000001 -0.433042
    30 3.883663 -0.050280 -0.431043 -0.133027 -0.161622 -0.594036
    31 1.719580 -0.000008 0.000006 0.000061 -0.007709 -0.368776
    32 1.209188 -0.000013 0.000006 -0.000011 -0.004469 -0.218388
    33 3.859833 -0.148894 -1.331282 -0.308016 0.226467 -0.218432
    34 1.719427 -0.000006 0.000010 -0.000084 -0.006049 -0.365355
    35 1.099665 0.000011 0.000004 -0.000069 -0.004212 -0.243900
    36 0.806026 -0.359824 -1.318335 1.272698 0.761812 -0.705740
    37 1.789783 -0.000004 -0.000002 -0.005228 0.001391 -0.098219
    38 1.207001 -0.000002 -0.000006 -0.000562 -0.000780 -0.139290
    39 -1.773492 -11.023258 -4.079042 2.980365 -1.171915 -3.601701
    40 -0.000001 1.365388 -0.536964 -1.570798 0.000001 0.000000
    41 -0.000001 -0.513253 -0.829849 1.121305 0.000000 -3.141591
    42 0.000000 -0.854954 0.683403 0.154998 0.000000 -3.141591
    43 -0.456437 0.634190 -1.470296 -1.570797 0.000001 0.000000
    44 0.000008 1.368782 -31.679443 -1.570797 0.000000 0.000000
    45 0.162476 0.431641 -1.771484 -1.592774 0.018724 -0.721931
    46 -0.102380 0.431843 0.420865 -1.560826 -0.000482 0.000595
    47 0.000000 0.306830 -0.617118 -1.570796 0.000000 0.000000
  time 30
    0 0.000000 -0.000006 0.000000 -1.570781 -1.391896 -1.570809
    1 -9.533411 0.852325 11.980934 1.596636 -1.286515 2.942963
    2 6.028140 0.000007 0.000003 0.228576 -1.166855 -2.871111
    3 11.692572 0.000000 -0.000019 -0.000013 0.000025 -0.940692
    4 11.481682 -0.000163 -0.000038 0.262252 -0.407740 0.646471
    5 3.859703 -0.142405 -1.191976 -0.555853 -0.166017 -1.749965
    6 1.312561 -0.000010 0.000002 -0.100849 -0.020352 -0.116350
    7 0.729367 -0.000004 0.000000 -0.063133 -0.015236 -0.804624
    8 3.942326 0.046766 -0.431443 -0.264579 -0.068731 -1.429727
    9 1.539099 -0.000002 -0.000007 -0.098155 -0.042324 -0.527806
    10 1.196324 -0.000004 0.000003 -0.041214 -0.093103 -1.005073
    11 3.883690 -0.046767 0.431443 -0.045425 -0.041180 -1.131032
    12 1.719576 -0.000013 0.000009 -0.050047 -0.136036 -0.906586
    13 1.209185 -0.000010 0.000003 -0.001031 -0.145326 -0.760171
    14 3.859859 -0.137949 1.332466 0.223662 -0.070929 -1.064440
    15 1.719433 -0.000006 -0.000003 -0.002760 -0.231514 -0.867584
    16 1.099669 -0.000008 0.000002 0.079693 -0.218712 -0.758154
    17 0.806044 -0.348926 1.321258 -1.236615 -0.565365 -0.767339
    18 1.789782 0.000002 -0.000008 -0.000961 0.001743 -0.089192
    19 1.207005 0.000000 0.000000 -0.000299 -0.000013 0.365778
    20 -2.417969 -10.468750 -8.367188 -1.668474 1.286518 2.942954
    21 6.028139 0.000000 -0.000002 0.834364 1.216321 -1.167908
    22 11.692549 0.000000 0.000003 -0.000002 0.000000 -1.072607
    23 11.481695 -0.000080 0.000006 -1.603333 -0.162592 0.678027
    24 3.859676 -0.132517 1.193109 0.466234 -0.158066 -0.878814
    25 1.312561 0.000002 -0.000001 0.000004 0.000002 -0.439675
    26 0.729367 0.000004 0.000001 0.000001 0.000003 -0.244276
    27 3.942295 0.050373 0.431044 0.149299 -0.085673 -0.810552
    28 1.539099 0.000011 0.000000 0.000003 -0.000003 -0.247767
    29 1.196325 0.000004 -0.000003 -0.000003 0.000001 -0.430764
    30 3.883663 -0.050280 -0.431043 -0.134082 -0.162209 -0.592721
    31 1.719580 -0.000008 0.000006 0.000001 -0.007973 -0.366437
    32 1.209188 -0.000013 0.000006 0.000001 -0.004469 -0.216382
    33 3.859833 -0.148894 -1.331282 -0.308148 0.226264 -0.218330
    34 1.719427 -0.000006 0.000010 0.000000 -0.006612 -0.362984
    35 1.099665 0.000011 0.000004 0.000003 -0.004212 -0.244310
    36 0.806026 -0.359824 -1.318335 1.272846 0.762352 -0.705561
    37 1.789783 -0.000004 -0.000002 -0.005240 0.001391 -0.098950
    38 1.207001 -0.000002 -0.000006 -0.000562 -0.000780 -0.141951
    39 -1.886777 -11.027165 -4.071229 3.006749 -1.175142 -3.604090
    40 -0.000001 1.365388 -0.536964 -1.570798 0.000001 0.000000
    41 -0.000001 -0.513253 -0.829849 1.121305 0.000000 -3.141591
    42 0.000000 -0.854954 0.683403 0.154998 0.000000 -3.141591
    43 -0.456437 0.634190 -1.470296 -1.570797 0.000001 0.000000
    44 0.000008 1.368782 -31.679443 -1.570797 0.000000 0.000000
    45 0.162476 0.431641 -1.771484 -1.592774 0.018724 -0.721931
    46 -0.102380 0.431843 0.420865 -1.560826 -0.000482 0.000595
    47 0.000000 0.306830 -0.617118 -1.570796 0.000000 0.000000
end
