// Created by Crowbar++ 0.74
version 1
nodes
  0 "ValveBiped.Bip01_Spine4" -1
  1 "ValveBiped.Bip01_L_Clavicle" 0
  2 "ValveBiped.Bip01_L_UpperArm" 1
  3 "ValveBiped.Bip01_L_Forearm" 2
  4 "ValveBiped.Bip01_L_Hand" 3
  5 "ValveBiped.Bip01_L_Finger4" 4
  6 "ValveBiped.Bip01_L_Finger41" 5
  7 "ValveBiped.Bip01_L_Finger42" 6
  8 "ValveBiped.Bip01_L_Finger3" 4
  9 "ValveBiped.Bip01_L_Finger31" 8
  10 "ValveBiped.Bip01_L_Finger32" 9
  11 "ValveBiped.Bip01_L_Finger2" 4
  12 "ValveBiped.Bip01_L_Finger21" 11
  13 "ValveBiped.Bip01_L_Finger22" 12
  14 "ValveBiped.Bip01_L_Finger1" 4
  15 "ValveBiped.Bip01_L_Finger11" 14
  16 "ValveBiped.Bip01_L_Finger12" 15
  17 "ValveBiped.Bip01_L_Finger0" 4
  18 "ValveBiped.Bip01_L_Finger01" 17
  19 "ValveBiped.Bip01_L_Finger02" 18
  20 "ValveBiped.Bip01_R_Clavicle" 0
  21 "ValveBiped.Bip01_R_UpperArm" 20
  22 "ValveBiped.Bip01_R_Forearm" 21
  23 "ValveBiped.Bip01_R_Hand" 22
  24 "ValveBiped.Bip01_R_Finger4" 23
  25 "ValveBiped.Bip01_R_Finger41" 24
  26 "ValveBiped.Bip01_R_Finger42" 25
  27 "ValveBiped.Bip01_R_Finger3" 23
  28 "ValveBiped.Bip01_R_Finger31" 27
  29 "ValveBiped.Bip01_R_Finger32" 28
  30 "ValveBiped.Bip01_R_Finger2" 23
  31 "ValveBiped.Bip01_R_Finger21" 30
  32 "ValveBiped.Bip01_R_Finger22" 31
  33 "ValveBiped.Bip01_R_Finger1" 23
  34 "ValveBiped.Bip01_R_Finger11" 33
  35 "ValveBiped.Bip01_R_Finger12" 34
  36 "ValveBiped.Bip01_R_Finger0" 23
  37 "ValveBiped.Bip01_R_Finger01" 36
  38 "ValveBiped.Bip01_R_Finger02" 37
  39 "mosin_strip_clip" -1
  40 "control" -1
  41 "mosin_trigger" 40
  42 "mosin_bolt_base" 40
  43 "mosin_bolt_handle" 42
  44 "mosin_bolt_hammer" 42
  45 "mosin_strip_bullets_top" -1
  46 "mosin_strip_bullets_group" -1
  47 "mosin_bullet_single" -1
end
skeleton
  time 0
    0 0.000000 -0.000006 0.000000 -1.570798 -1.391899 -3.141590
    1 -4.779359 -0.272709 -2.777328 -0.116401 -0.795399 4.475072
    2 6.028141 0.000000 0.000000 -1.554458 -0.598940 -0.604600
    3 11.692554 0.000001 0.000002 0.000000 0.000000 -1.063831
    4 11.481674 0.000001 -0.000032 -0.506190 -0.053755 0.159784
    5 3.859709 -0.142404 -1.191975 -0.565364 -0.016215 -1.231271
    6 1.312555 -0.000002 0.000001 -0.207477 -0.194486 -1.096269
    7 0.729363 -0.000002 -0.000002 0.000000 0.000000 0.344854
    8 3.942335 0.046767 -0.431443 -0.516543 0.163043 -0.894543
    9 1.539097 0.000000 0.000000 0.000000 0.000000 -1.339093
    10 1.196326 -0.000002 -0.000001 0.000000 0.000000 0.190960
    11 3.883696 -0.046765 0.431443 -0.207421 0.207208 -0.559284
    12 1.719570 -0.000004 -0.000001 -0.005177 0.001885 -1.588937
    13 1.209171 -0.000002 0.000000 0.001378 0.002760 0.250155
    14 3.859865 -0.137947 1.332466 0.066689 0.246050 -0.320621
    15 1.719429 0.000002 -0.000001 -0.003655 0.001797 -1.479203
    16 1.099665 0.000000 0.000000 0.000707 0.002500 0.032687
    17 0.806053 -0.348925 1.321258 -1.118195 -0.378412 -0.802601
    18 1.789780 -0.000002 0.000002 0.326041 -0.156743 -0.115751
    19 1.207006 0.000000 0.000000 0.027852 -0.178187 0.887305
    20 1.353648 4.250871 -6.832291 -3.155768 0.584385 1.718168
    21 6.028144 0.000000 0.000000 0.619953 0.923946 -1.048247
    22 11.692554 0.000001 0.000003 0.000000 0.000024 -2.103553
    23 11.481697 0.000001 0.000002 -0.973423 -0.047712 1.881310
    24 3.859678 -0.132570 1.193109 0.553208 0.213891 -1.589733
    25 1.312557 -0.000002 0.000001 0.026594 0.073741 -0.432729
    26 0.729365 0.000002 -0.000002 0.000000 0.000000 -0.691651
    27 3.942305 0.050327 0.431044 0.381752 0.104585 -1.299539
    28 1.539099 -0.000002 0.000000 0.000000 0.000000 -0.713752
    29 1.196321 0.000008 0.000000 0.000000 0.000000 -0.946675
    30 3.883661 -0.050323 -0.431042 0.344215 -0.053301 -1.015922
    31 1.719578 0.000004 0.000000 0.004878 -0.006308 -1.025748
    32 1.209185 0.000002 0.000000 0.002493 -0.003706 -0.810595
    33 3.859838 -0.148937 -1.331282 0.157528 -0.087379 -0.929828
    34 1.719423 0.000002 0.000000 0.003344 -0.005714 -0.893046
    35 1.099667 0.000002 0.000000 0.002744 -0.003192 -0.957825
    36 0.806021 -0.359837 -1.318334 0.949238 0.326614 -1.091917
    37 1.789782 0.000000 -0.000004 0.106363 -0.050180 0.037205
    38 1.206999 0.000003 0.000002 -0.153159 0.145673 1.469569
    39 -11.590487 7.343974 -18.358849 0.030498 0.424639 0.006040
    40 -5.335994 -14.078555 -4.812616 0.030495 0.424631 0.006009
    41 0.000000 7.169887 -1.514632 0.000000 0.000000 0.000000
    42 0.000000 6.250000 0.998666 0.000000 0.000000 0.000000
    43 0.000000 -2.750000 0.000000 0.000000 0.000000 0.000000
    44 0.000001 2.851563 0.000000 0.000000 0.000000 0.000000
    45 -10.422483 7.261940 -15.773856 0.117760 0.424639 0.006040
    46 -11.067034 7.304910 -17.196813 0.030494 0.424639 0.006040
    47 -10.043535 7.238502 -14.940359 0.030487 0.424630 0.006026
  time 1
    0 0.000000 -0.000006 0.000000 -1.570798 -1.391899 -3.141590
    1 -4.779359 -0.272709 -2.777328 -0.116401 -0.795399 4.475072
    2 6.028141 0.000000 0.000000 -1.548349 -0.588376 -0.610185
    3 11.692554 0.000001 0.000002 0.000000 0.000000 -1.094000
    4 11.481674 0.000001 -0.000032 -0.508677 -0.066170 0.176526
    5 3.859709 -0.142404 -1.191975 -0.565364 -0.016215 -1.231271
    6 1.312555 -0.000002 0.000001 -0.207477 -0.194486 -1.096269
    7 0.729363 -0.000002 -0.000002 0.000000 0.000000 0.344854
    8 3.942335 0.046767 -0.431443 -0.516543 0.163043 -0.894543
    9 1.539097 0.000000 0.000000 0.000000 0.000000 -1.339126
    10 1.196326 -0.000002 -0.000001 0.000000 0.000000 0.190960
    11 3.883696 -0.046765 0.431443 -0.207421 0.207208 -0.559284
    12 1.719570 -0.000004 -0.000001 -0.005177 0.001885 -1.588974
    13 1.209171 -0.000002 0.000000 0.001378 0.002760 0.250155
    14 3.859865 -0.137947 1.332466 0.066689 0.246050 -0.320621
    15 1.719429 0.000002 -0.000001 -0.003655 0.001797 -1.479203
    16 1.099665 0.000000 0.000000 0.000707 0.002500 0.032687
    17 0.806053 -0.348925 1.321258 -1.118195 -0.378412 -0.802601
    18 1.789780 -0.000002 0.000002 0.326041 -0.156743 -0.115751
    19 1.207006 0.000000 0.000000 0.027852 -0.178187 0.887305
    20 1.252082 4.219620 -6.832291 -3.156642 0.572393 1.712866
    21 6.028144 0.000000 0.000000 0.645385 0.908517 -1.023447
    22 11.692554 0.000001 0.000003 0.000000 0.000012 -2.132673
    23 11.481697 0.000001 0.000002 -0.975722 -0.040157 1.897742
    24 3.859678 -0.132570 1.193109 0.553208 0.213891 -1.589733
    25 1.312557 -0.000002 0.000001 0.026594 0.073741 -0.432729
    26 0.729365 0.000002 -0.000002 0.000000 0.000000 -0.691651
    27 3.942305 0.050327 0.431044 0.381752 0.104585 -1.299539
    28 1.539099 -0.000002 0.000000 0.000000 0.000000 -0.713752
    29 1.196321 0.000008 0.000000 0.000000 0.000000 -0.946675
    30 3.883661 -0.050323 -0.431042 0.344215 -0.053301 -1.015922
    31 1.719578 0.000004 0.000000 0.004878 -0.006308 -1.025748
    32 1.209185 0.000002 0.000000 0.002493 -0.003706 -0.810595
    33 3.859838 -0.148937 -1.331282 0.157528 -0.087379 -0.929794
    34 1.719423 0.000002 0.000000 0.003344 -0.005714 -0.893046
    35 1.099667 0.000002 0.000000 0.002744 -0.003192 -0.957825
    36 0.806021 -0.359837 -1.318334 0.949238 0.326614 -1.091917
    37 1.789782 0.000000 -0.000004 0.106363 -0.050180 0.037205
    38 1.206999 0.000003 0.000002 -0.153159 0.145673 1.469603
    39 -11.766274 7.527573 -18.362755 0.027938 0.433166 0.006274
    40 -5.367244 -13.851985 -4.820429 0.027963 0.433183 0.006282
    41 0.000000 7.169887 -1.514632 0.000000 0.000000 0.000000
    42 0.000000 6.250000 0.998666 0.000000 0.000000 0.000000
    43 0.000000 -2.750000 0.000000 0.000000 0.000000 0.000000
    44 0.000001 2.851563 0.000000 0.000000 0.000000 0.000000
    45 -10.574831 7.457259 -15.793388 0.115236 0.433166 0.006274
    46 -11.231101 7.496323 -17.208533 0.027970 0.433166 0.006274
    47 -10.191977 7.433821 -14.959891 0.027969 0.433162 0.006298
  time 2
    0 0.000000 -0.000006 0.000000 -1.570798 -1.391899 -3.141590
    1 -4.779359 -0.272709 -2.777328 -0.116401 -0.795399 4.475072
    2 6.028141 0.000000 0.000000 -1.535087 -0.571333 -0.621978
    3 11.692554 0.000001 0.000002 0.000000 0.000000 -1.145633
    4 11.481674 0.000001 -0.000032 -0.516340 -0.090941 0.205172
    5 3.859709 -0.142404 -1.191975 -0.565364 -0.016215 -1.231271
    6 1.312555 -0.000002 0.000001 -0.207477 -0.194486 -1.096269
    7 0.729363 -0.000002 -0.000002 0.000000 0.000000 0.344854
    8 3.942335 0.046767 -0.431443 -0.516543 0.163043 -0.894543
    9 1.539097 0.000000 0.000000 0.000000 0.000000 -1.339093
    10 1.196326 -0.000002 -0.000001 0.000000 0.000000 0.190960
    11 3.883696 -0.046765 0.431443 -0.207421 0.207208 -0.559284
    12 1.719570 -0.000004 -0.000001 -0.005177 0.001885 -1.588937
    13 1.209171 -0.000002 0.000000 0.001378 0.002760 0.250155
    14 3.859865 -0.137947 1.332466 0.066689 0.246050 -0.320621
    15 1.719429 0.000002 -0.000001 -0.003655 0.001797 -1.479203
    16 1.099665 0.000000 0.000000 0.000707 0.002500 0.032687
    17 0.806053 -0.348925 1.321258 -1.118195 -0.378412 -0.802601
    18 1.789780 -0.000002 0.000002 0.326041 -0.156743 -0.115751
    19 1.207006 0.000000 0.000000 0.027852 -0.178187 0.887305
    20 0.970824 4.133680 -6.828384 -3.159117 0.539285 1.698198
    21 6.028144 0.000000 0.000000 0.704599 0.879657 -0.971820
    22 11.692554 0.000001 0.000003 0.000000 0.000012 -2.193748
    23 11.481697 0.000001 0.000002 -0.979589 -0.032518 1.942012
    24 3.859678 -0.132570 1.193109 0.553208 0.213891 -1.589733
    25 1.312557 -0.000002 0.000001 0.026594 0.073741 -0.432729
    26 0.729365 0.000002 -0.000002 0.000000 0.000000 -0.691651
    27 3.942305 0.050327 0.431044 0.381752 0.104585 -1.299539
    28 1.539099 -0.000002 0.000000 0.000000 0.000000 -0.713752
    29 1.196321 0.000008 0.000000 0.000000 0.000000 -0.946675
    30 3.883661 -0.050323 -0.431042 0.344215 -0.053301 -1.015922
    31 1.719578 0.000004 0.000000 0.004878 -0.006308 -1.025748
    32 1.209185 0.000002 0.000000 0.002493 -0.003706 -0.810595
    33 3.859838 -0.148937 -1.331282 0.157528 -0.087379 -0.929828
    34 1.719423 0.000002 0.000000 0.003344 -0.005714 -0.893046
    35 1.099667 0.000002 0.000000 0.002744 -0.003192 -0.957825
    36 0.806021 -0.359837 -1.318334 0.949238 0.326614 -1.091917
    37 1.789782 0.000000 -0.000004 0.106363 -0.050180 0.037205
    38 1.206999 0.000003 0.000002 -0.153159 0.145673 1.469569
    39 -12.113941 7.910398 -18.315879 0.025415 0.451946 0.006431
    40 -5.437559 -13.430097 -4.843867 0.025431 0.451949 0.006446
    41 0.000000 7.169887 -1.514632 0.000000 0.000000 0.000000
    42 0.000000 6.250000 0.998666 0.000000 0.000000 0.000000
    43 0.000000 -2.750000 0.000000 0.000000 0.000000 0.000000
    44 0.000001 2.851563 0.000000 0.000000 0.000000 0.000000
    45 -10.875622 7.843989 -15.766044 0.112678 0.451946 0.006431
    46 -11.559236 7.879147 -17.169469 0.025412 0.451946 0.006431
    47 -10.477142 7.824458 -14.944265 0.025433 0.451958 0.006434
  time 3
    0 0.000000 -0.000006 0.000000 -1.570798 -1.391899 -3.141590
    1 -4.830142 -0.327399 -2.730451 -0.112375 -0.792959 4.467919
    2 6.028141 0.000000 0.000000 -1.522295 -0.572362 -0.633135
    3 11.692554 0.000001 0.000002 0.000000 0.000000 -1.168726
    4 11.481674 0.000001 -0.000032 -0.524945 -0.106689 0.222472
    5 3.859709 -0.142404 -1.191975 -0.565292 -0.006448 -1.237081
    6 1.312555 -0.000002 0.000001 -0.212007 -0.189512 -1.072506
    7 0.729363 -0.000002 -0.000002 0.000000 0.000000 0.323583
    8 3.942335 0.046767 -0.431443 -0.511342 0.171456 -0.896248
    9 1.539097 0.000000 0.000000 0.000000 0.000000 -1.319476
    10 1.196326 -0.000002 -0.000001 0.000000 0.000000 0.165931
    11 3.883696 -0.046765 0.431443 -0.204928 0.216340 -0.558696
    12 1.719570 -0.000004 -0.000001 -0.005141 0.001981 -1.570096
    13 1.209171 -0.000002 0.000000 0.001318 0.002796 0.225536
    14 3.859865 -0.137947 1.332466 0.066467 0.253726 -0.320310
    15 1.719429 0.000002 -0.000001 -0.003559 0.001977 -1.427323
    16 1.099665 0.000000 0.000000 0.000659 0.002512 0.014010
    17 0.806053 -0.348925 1.321258 -1.117057 -0.382791 -0.797891
    18 1.789780 -0.000002 0.000002 0.316345 -0.162188 -0.110231
    19 1.207006 0.000000 0.000000 0.030213 -0.171883 0.841897
    20 0.548936 4.004770 -6.820572 -3.163097 0.489315 1.675680
    21 6.028144 0.000000 0.000000 0.785317 0.860929 -0.918012
    22 11.692554 0.000001 0.000003 0.000000 0.000012 -2.247346
    23 11.481697 0.000001 0.000002 -0.992863 -0.042648 1.987893
    24 3.859678 -0.132570 1.193109 0.546844 0.215066 -1.589588
    25 1.312557 -0.000002 0.000001 0.032047 0.072315 -0.432545
    26 0.729365 0.000002 -0.000002 0.000000 0.000000 -0.687041
    27 3.942305 0.050327 0.431044 0.380697 0.104029 -1.296002
    28 1.539099 -0.000002 0.000000 0.000000 0.000000 -0.717331
    29 1.196321 0.000008 0.000000 0.000000 0.000000 -0.950114
    30 3.883661 -0.050323 -0.431042 0.341392 -0.054783 -1.010617
    31 1.719578 0.000004 0.000000 0.004878 -0.006308 -1.025118
    32 1.209185 0.000002 0.000000 0.002517 -0.003682 -0.817717
    33 3.859838 -0.148937 -1.331282 0.148502 -0.091695 -0.907935
    34 1.719423 0.000002 0.000000 0.003260 -0.005750 -0.880445
    35 1.099667 0.000002 0.000000 0.002708 -0.003228 -0.944554
    36 0.806021 -0.359837 -1.318334 0.952517 0.326406 -1.088491
    37 1.789782 0.000000 -0.000004 0.099394 -0.044020 0.040474
    38 1.206999 0.000003 0.000002 -0.155124 0.137056 1.451263
    39 -12.383480 8.219001 -18.116654 0.030950 0.470726 0.006431
    40 -5.507874 -13.203528 -4.875118 0.030951 0.470739 0.006501
    41 0.000000 7.169887 -1.514632 0.000000 0.000000 0.000000
    42 0.000000 6.250000 0.998666 0.000000 0.000000 0.000000
    43 0.000000 -2.750000 0.000000 0.000000 0.000000 0.000000
    44 0.000001 2.851563 0.000000 0.000000 0.000000 0.000000
    45 -11.098285 8.136967 -15.590257 0.118203 0.470726 0.006431
    46 -11.805338 8.179937 -16.978057 0.030937 0.470726 0.006431
    47 -10.684179 8.113529 -14.772385 0.030937 0.470722 0.006502
  time 4
    0 0.000000 -0.000006 0.000000 -1.570798 -1.391899 -3.141590
    1 -4.970771 -0.475841 -2.605447 -0.101658 -0.786240 4.448748
    2 6.028141 0.000000 0.000000 -1.520549 -0.611100 -0.634981
    3 11.692554 0.000001 0.000002 0.000000 0.000000 -1.120585
    4 11.481674 0.000001 -0.000032 -0.525416 -0.097392 0.205247
    5 3.859709 -0.142404 -1.191975 -0.565280 0.019019 -1.252497
    6 1.312555 -0.000002 0.000001 -0.223680 -0.175526 -1.008247
    7 0.729363 -0.000002 -0.000002 0.000000 0.000000 0.265829
    8 3.942335 0.046767 -0.431443 -0.497727 0.193340 -0.900828
    9 1.539097 0.000000 0.000000 0.000000 0.000000 -1.266122
    10 1.196326 -0.000002 -0.000001 0.000000 0.000000 0.097978
    11 3.883696 -0.046765 0.431443 -0.198325 0.240177 -0.557294
    12 1.719570 -0.000004 -0.000001 -0.005034 0.002244 -1.518948
    13 1.209171 -0.000002 0.000000 0.001127 0.002880 0.158684
    14 3.859865 -0.137947 1.332466 0.065789 0.273847 -0.319842
    15 1.719429 0.000002 -0.000001 -0.003260 0.002444 -1.293960
    16 1.099665 0.000000 0.000000 0.000527 0.002548 -0.037041
    17 0.806053 -0.348925 1.321258 -1.112431 -0.398123 -0.793253
    18 1.789780 -0.000002 0.000002 0.290782 -0.177245 -0.095360
    19 1.207006 0.000000 0.000000 0.035918 -0.155081 0.724350
    20 0.017669 3.844609 -6.808852 -3.168534 0.426585 1.647171
    21 6.028144 0.000000 0.000000 0.888683 0.856374 -0.871050
    22 11.692554 0.000001 0.000003 0.000000 0.000012 -2.258129
    23 11.481697 0.000001 0.000002 -1.023434 -0.070794 1.991631
    24 3.859678 -0.132570 1.193109 0.529587 0.218277 -1.589226
    25 1.312557 -0.000002 0.000001 0.046860 0.068444 -0.432023
    26 0.729365 0.000002 -0.000002 0.000000 0.000000 -0.674557
    27 3.942305 0.050327 0.431044 0.377797 0.102519 -1.286423
    28 1.539099 -0.000002 0.000000 0.000000 0.000000 -0.727027
    29 1.196321 0.000008 0.000000 0.000000 0.000000 -0.959470
    30 3.883661 -0.050323 -0.431042 0.333687 -0.058813 -0.996247
    31 1.719578 0.000004 0.000000 0.004866 -0.006320 -1.023371
    32 1.209185 0.000002 0.000000 0.002589 -0.003634 -0.837063
    33 3.859838 -0.148937 -1.331282 0.123925 -0.102860 -0.848383
    34 1.719423 0.000002 0.000000 0.003068 -0.005858 -0.846186
    35 1.099667 0.000002 0.000000 0.002589 -0.003324 -0.908454
    36 0.806021 -0.359837 -1.318334 0.961356 0.325814 -1.079190
    37 1.789782 0.000000 -0.000004 0.080455 -0.027289 0.049443
    38 1.206999 0.000003 0.000002 -0.160052 0.113698 1.401513
    39 -12.403012 8.054933 -17.886178 0.041154 0.479281 0.005258
    40 -5.539125 -13.527757 -4.898556 0.041173 0.479267 0.005244
    41 0.000000 7.169887 -1.514632 0.000000 0.000000 0.000000
    42 0.000000 6.250000 0.998666 0.000000 0.000000 0.000000
    43 0.000000 -2.750000 0.000000 0.000000 0.000000 0.000000
    44 0.000001 2.851563 0.000000 0.000000 0.000000 0.000000
    45 -11.094378 7.945555 -15.371500 0.128436 0.479281 0.005258
    46 -11.813150 8.004151 -16.755394 0.041170 0.479281 0.005258
    47 -10.672460 7.910398 -14.557535 0.041171 0.479255 0.005277
  time 5
    0 0.000000 -0.000006 0.000000 -1.570798 -1.391899 -3.141590
    1 -5.173902 -0.690691 -2.417942 -0.086132 -0.776025 4.420880
    2 6.028141 0.000000 0.000000 -1.533602 -0.677512 -0.623620
    3 11.692554 0.000001 0.000002 0.000000 0.000000 -1.014899
    4 11.481674 0.000001 -0.000032 -0.515937 -0.057406 0.183222
    5 3.859709 -0.142404 -1.191975 -0.565628 0.054362 -1.274512
    6 1.312555 -0.000002 0.000001 -0.239116 -0.153619 -0.914114
    7 0.729363 -0.000002 -0.000002 0.000000 0.000000 0.180691
    8 3.942335 0.046767 -0.431443 -0.478708 0.223637 -0.907474
    9 1.539097 0.000000 0.000000 0.000000 0.000000 -1.187523
    10 1.196326 -0.000002 -0.000001 0.000000 0.000000 -0.002176
    11 3.883696 -0.046765 0.431443 -0.188965 0.273375 -0.555628
    12 1.719570 -0.000004 -0.000001 -0.004854 0.002616 -1.443549
    13 1.209171 -0.000002 0.000000 0.000839 0.002976 0.060150
    14 3.859865 -0.137947 1.332466 0.064625 0.302060 -0.319902
    15 1.719429 0.000002 -0.000001 -0.002768 0.002984 -1.112566
    16 1.099665 0.000000 0.000000 0.000336 0.002584 -0.112940
    17 0.806053 -0.348925 1.321258 -1.102400 -0.434890 -0.798335
    18 1.789780 -0.000002 0.000002 0.254673 -0.199892 -0.073477
    19 1.207006 0.000000 0.000000 0.042773 -0.130944 0.562788
    20 -0.583911 3.664916 -6.801040 -3.175135 0.355449 1.614393
    21 6.028144 0.000000 0.000000 1.008858 0.856049 -0.831544
    22 11.692554 0.000001 0.000003 0.000000 0.000012 -2.206026
    23 11.481697 0.000001 0.000002 -1.052072 -0.114133 1.917847
    24 3.859678 -0.132570 1.193109 0.504143 0.223004 -1.588646
    25 1.312557 -0.000002 0.000001 0.068696 0.062739 -0.431286
    26 0.729365 0.000002 -0.000002 0.000000 0.000000 -0.656166
    27 3.942305 0.050327 0.431044 0.373483 0.100267 -1.272325
    28 1.539099 -0.000002 0.000000 0.000000 0.000000 -0.741253
    29 1.196321 0.000008 0.000000 0.000000 0.000000 -0.973224
    30 3.883661 -0.050323 -0.431042 0.322227 -0.064728 -0.975029
    31 1.719578 0.000004 0.000000 0.004842 -0.006332 -1.020751
    32 1.209185 0.000002 0.000000 0.002697 -0.003562 -0.865551
    33 3.859838 -0.148937 -1.331282 0.087690 -0.117825 -0.760061
    34 1.719423 0.000002 0.000000 0.002769 -0.006014 -0.795781
    35 1.099667 0.000002 0.000000 0.002409 -0.003456 -0.855260
    36 0.806021 -0.359837 -1.318334 0.974324 0.324856 -1.065509
    37 1.789782 0.000000 -0.000004 0.052515 -0.002649 0.062742
    38 1.206999 0.000003 0.000002 -0.166300 0.079386 1.328222
    39 -11.965499 7.105686 -17.925242 0.046651 0.458688 0.002364
    40 -5.488342 -14.574664 -4.906369 0.046678 0.458675 0.002350
    41 0.000000 7.169887 -1.514632 0.000000 0.000000 0.000000
    42 0.000000 6.250000 0.998666 0.000000 0.000000 0.000000
    43 0.000000 -2.750000 0.000000 0.000000 0.000000 0.000000
    44 0.000001 2.851563 0.000000 0.000000 0.000000 0.000000
    45 -10.711554 6.976775 -15.387126 0.133928 0.458688 0.002364
    46 -11.402982 7.047090 -16.782738 0.046662 0.458688 0.002364
    47 -10.305261 6.933805 -14.565347 0.046675 0.458666 0.002352
  time 6
    0 0.000000 -0.000006 0.000000 -1.570798 -1.391899 -3.141590
    1 -5.423910 -0.952418 -2.191372 -0.067678 -0.763152 4.387729
    2 6.028141 0.000000 0.000000 -1.559083 -0.756216 -0.599602
    3 11.692554 0.000001 0.000002 0.000000 0.000000 -0.888169
    4 11.481674 0.000001 -0.000032 -0.490594 0.003577 0.188208
    5 3.859709 -0.142404 -1.191975 -0.566466 0.093755 -1.300197
    6 1.312555 -0.000002 0.000001 -0.254900 -0.125263 -0.800685
    7 0.729363 -0.000002 -0.000002 0.000000 0.000000 0.077338
    8 3.942335 0.046767 -0.431443 -0.457195 0.257289 -0.915363
    9 1.539097 0.000000 0.000000 0.000000 0.000000 -1.092105
    10 1.196326 -0.000002 -0.000001 0.000000 0.000000 -0.123792
    11 3.883696 -0.046765 0.431443 -0.178202 0.310587 -0.554310
    12 1.719570 -0.000004 -0.000001 -0.004590 0.003047 -1.351959
    13 1.209171 -0.000002 0.000000 0.000479 0.003048 -0.059486
    14 3.859865 -0.137947 1.332466 0.062935 0.334010 -0.321245
    15 1.719429 0.000002 -0.000001 -0.002133 0.003475 -0.916558
    16 1.099665 0.000000 0.000000 0.000096 0.002596 -0.206230
    17 0.806053 -0.348925 1.321258 -1.089996 -0.480199 -0.807802
    18 1.789780 -0.000002 0.000002 0.213302 -0.228145 -0.046986
    19 1.207006 0.000000 0.000000 0.048813 -0.103068 0.385108
    20 -1.220650 3.469597 -6.789321 -3.182610 0.280059 1.579342
    21 6.028144 0.000000 0.000000 1.131653 0.857211 -0.794522
    22 11.692554 0.000001 0.000003 0.000000 0.000024 -2.100877
    23 11.481697 0.000001 0.000002 -1.053169 -0.165444 1.770086
    24 3.859678 -0.132570 1.193109 0.473271 0.228743 -1.587959
    25 1.312557 -0.000002 0.000001 0.095218 0.055800 -0.430364
    26 0.729365 0.000002 -0.000002 0.000000 0.000000 -0.633838
    27 3.942305 0.050327 0.431044 0.368138 0.097512 -1.255181
    28 1.539099 -0.000002 0.000000 0.000000 0.000000 -0.758560
    29 1.196321 0.000008 0.000000 0.000000 0.000000 -0.989978
    30 3.883661 -0.050323 -0.431042 0.308155 -0.071880 -0.949278
    31 1.719578 0.000004 0.000000 0.004830 -0.006344 -1.017598
    32 1.209185 0.000002 0.000000 0.002816 -0.003466 -0.900152
    33 3.859838 -0.148937 -1.331282 0.043855 -0.133584 -0.652023
    34 1.719423 0.000002 0.000000 0.002397 -0.006169 -0.734520
    35 1.099667 0.000002 0.000000 0.002181 -0.003600 -0.790651
    36 0.806021 -0.359837 -1.318334 0.989930 0.323620 -1.048921
    37 1.789782 0.000000 -0.000004 0.018525 0.027229 0.079089
    38 1.206999 0.000003 0.000002 -0.172319 0.038027 1.239124
    39 -11.063128 5.472823 -18.272909 0.044091 0.404386 -0.001156
    40 -5.351619 -16.191900 -4.875118 0.044099 0.404385 -0.001145
    41 0.000000 7.169887 -1.514632 0.000000 0.000000 0.000000
    42 0.000000 6.250000 0.998666 0.000000 0.000000 0.000000
    43 0.000000 -2.750000 0.000000 0.000000 0.000000 0.000000
    44 0.000001 2.851563 0.000000 0.000000 0.000000 0.000000
    45 -9.949812 5.347819 -15.668384 0.131336 0.404386 -0.001156
    46 -10.559206 5.418134 -17.103061 0.044070 0.404386 -0.001156
    47 -9.586489 5.308756 -14.827074 0.044085 0.404382 -0.001186
  time 7
    0 0.000000 -0.000006 0.000000 -1.570798 -1.391899 -3.141590
    1 -5.697356 -1.241489 -1.945271 -0.048231 -0.748585 4.352520
    2 6.028141 0.000000 0.000000 -1.591480 -0.825385 -0.567616
    3 11.692554 0.000001 0.000002 0.000000 0.000000 -0.793098
    4 11.481674 0.000001 -0.000032 -0.439100 0.068167 0.231215
    5 3.859709 -0.142404 -1.191975 -0.567485 0.131363 -1.326544
    6 1.312555 -0.000002 0.000001 -0.268239 -0.092629 -0.678179
    7 0.729363 -0.000002 -0.000002 0.000000 0.000000 -0.035148
    8 3.942335 0.046767 -0.431443 -0.435923 0.289228 -0.923686
    9 1.539097 0.000000 0.000000 0.000000 0.000000 -0.988227
    10 1.196326 -0.000002 -0.000001 0.000000 0.000000 -0.256129
    11 3.883696 -0.046765 0.431443 -0.167296 0.346493 -0.554034
    12 1.719570 -0.000004 -0.000001 -0.004266 0.003491 -1.252347
    13 1.209171 -0.000002 0.000000 0.000072 0.003084 -0.189673
    14 3.859865 -0.137947 1.332466 0.060581 0.365315 -0.324612
    15 1.719429 0.000002 -0.000001 -0.001486 0.003798 -0.739388
    16 1.099665 0.000000 0.000000 -0.000168 0.002596 -0.309407
    17 0.806053 -0.348925 1.321258 -1.080528 -0.502334 -0.812992
    18 1.789780 -0.000002 0.000002 0.171991 -0.260121 -0.018405
    19 1.207006 0.000000 0.000000 0.052804 -0.075587 0.219032
    20 -1.857388 3.278185 -6.777601 -3.190522 0.204670 1.543946
    21 6.028144 0.000000 0.000000 1.246644 0.856700 -0.752023
    22 11.692554 0.000001 0.000003 0.000000 0.000024 -1.988171
    23 11.481697 0.000001 0.000002 -1.015334 -0.211468 1.595583
    24 3.859678 -0.132570 1.193109 0.439690 0.234999 -1.587198
    25 1.312557 -0.000002 0.000001 0.124100 0.048262 -0.429381
    26 0.729365 0.000002 -0.000002 0.000000 0.000000 -0.609493
    27 3.942305 0.050327 0.431044 0.362217 0.094466 -1.236565
    28 1.539099 -0.000002 0.000000 0.000000 0.000000 -0.777408
    29 1.196321 0.000008 0.000000 0.000000 0.000000 -1.008171
    30 3.883661 -0.050323 -0.431042 0.292639 -0.079594 -0.921186
    31 1.719578 0.000004 0.000000 0.004806 -0.006368 -1.014153
    32 1.209185 0.000002 0.000000 0.002936 -0.003358 -0.937783
    33 3.859838 -0.148937 -1.331282 -0.003353 -0.147742 -0.533601
    34 1.719423 0.000002 0.000000 0.001978 -0.006313 -0.667858
    35 1.099667 0.000002 0.000000 0.001929 -0.003744 -0.720362
    36 0.806021 -0.359837 -1.318334 1.006758 0.322158 -1.030858
    37 1.789782 0.000000 -0.000004 -0.018524 0.059695 0.097049
    38 1.206999 0.000003 0.000002 -0.176909 -0.006412 1.141853
    39 -9.809183 3.742302 -18.710422 0.037426 0.327622 -0.004050
    40 -5.160207 -17.836482 -4.777459 0.037430 0.327631 -0.004040
    41 0.000000 7.169887 -1.514632 0.000000 0.000000 0.000000
    42 0.000000 6.250000 0.998666 0.000000 0.000000 0.000000
    43 0.000000 -2.750000 0.000000 0.000000 0.000000 0.000000
    44 0.000001 2.851563 0.000000 0.000000 0.000000 0.000000
    45 -8.898999 3.632923 -16.027770 0.124684 0.327622 -0.004050
    46 -9.399014 3.691519 -17.505417 0.037418 0.327622 -0.004050
    47 -8.605991 3.597766 -15.163022 0.037430 0.327623 -0.004043
  time 8
    0 0.000000 -0.000006 0.000000 -1.570798 -1.391899 -3.141590
    1 -5.966895 -1.526654 -1.699170 -0.029306 -0.733436 4.318247
    2 6.028141 0.000000 0.000000 -1.623787 -0.865053 -0.535832
    3 11.692554 0.000001 0.000002 0.000000 0.000000 -0.770797
    4 11.481674 0.000001 -0.000032 -0.359507 0.125453 0.312355
    5 3.859709 -0.142404 -1.191975 -0.567857 0.161396 -1.350496
    6 1.312555 -0.000002 0.000001 -0.277455 -0.058605 -0.556415
    7 0.729363 -0.000002 -0.000002 0.000000 0.000000 -0.147635
    8 3.942335 0.046767 -0.431443 -0.417370 0.314408 -0.931604
    9 1.539097 0.000000 0.000000 0.000000 0.000000 -0.884383
    10 1.196326 -0.000002 -0.000001 0.000000 0.000000 -0.388467
    11 3.883696 -0.046765 0.431443 -0.157493 0.375723 -0.555580
    12 1.719570 -0.000004 -0.000001 -0.003895 0.003898 -1.152699
    13 1.209171 -0.000002 0.000000 -0.000312 0.003072 -0.319846
    14 3.859865 -0.137947 1.332466 0.057395 0.391635 -0.330796
    15 1.719429 0.000002 -0.000001 -0.001007 0.003954 -0.614508
    16 1.099665 0.000000 0.000000 -0.000431 0.002560 -0.414992
    17 0.806053 -0.348925 1.321258 -1.073780 -0.486628 -0.812261
    18 1.789780 -0.000002 0.000002 0.136121 -0.294066 0.009545
    19 1.207006 0.000000 0.000000 0.054314 -0.052876 0.092026
    20 -2.458969 3.098492 -6.765882 -3.198337 0.133534 1.510342
    21 6.028144 0.000000 0.000000 1.345753 0.843083 -0.706329
    22 11.692554 0.000001 0.000003 0.000000 0.000024 -1.902776
    23 11.481697 0.000001 0.000002 -0.944994 -0.236902 1.425977
    24 3.859678 -0.132570 1.193109 0.406121 0.241244 -1.586438
    25 1.312557 -0.000002 0.000001 0.152983 0.040712 -0.428398
    26 0.729365 0.000002 -0.000002 0.000000 0.000000 -0.585196
    27 3.942305 0.050327 0.431044 0.356189 0.091380 -1.217949
    28 1.539099 -0.000002 0.000000 0.000000 0.000000 -0.796255
    29 1.196321 0.000008 0.000000 0.000000 0.000000 -1.026403
    30 3.883661 -0.050323 -0.431042 0.276939 -0.087235 -0.893094
    31 1.719578 0.000004 0.000000 0.004782 -0.006380 -1.010709
    32 1.209185 0.000002 0.000000 0.003068 -0.003239 -0.975464
    33 3.859838 -0.148937 -1.331282 -0.049671 -0.158851 -0.414464
    34 1.719423 0.000002 0.000000 0.001558 -0.006433 -0.601196
    35 1.099667 0.000002 0.000000 0.001654 -0.003875 -0.650074
    36 0.806021 -0.359837 -1.318334 1.023422 0.320592 -1.012817
    37 1.789782 0.000000 -0.000004 -0.055682 0.092125 0.115229
    38 1.206999 0.000003 0.000002 -0.179504 -0.050084 1.044007
    39 -8.371639 2.304758 -19.136216 0.028277 0.239640 -0.005302
    40 -4.941450 -19.141209 -4.648549 0.028309 0.239622 -0.005296
    41 0.000000 7.169887 -1.514632 0.000000 0.000000 0.000000
    42 0.000000 6.250000 0.998666 0.000000 0.000000 0.000000
    43 0.000000 -2.750000 0.000000 0.000000 0.000000 0.000000
    44 0.000001 2.851563 0.000000 0.000000 0.000000 0.000000
    45 -7.699744 2.222724 -16.383250 0.115577 0.239640 -0.005302
    46 -8.066942 2.269601 -17.899960 0.028311 0.239640 -0.005302
    47 -7.480956 2.195379 -15.495063 0.028311 0.239612 -0.005267
  time 9
    0 0.000000 -0.000006 0.000000 -1.570798 -1.391899 -3.141590
    1 -6.216903 -1.788381 -1.472600 -0.012473 -0.719051 4.287527
    2 6.028141 0.000000 0.000000 -1.653527 -0.885651 -0.507609
    3 11.692554 0.000001 0.000002 0.000000 0.000000 -0.792586
    4 11.481674 0.000001 -0.000032 -0.267948 0.173275 0.410014
    5 3.859709 -0.142404 -1.191975 -0.575023 0.160426 -1.420491
    6 1.312555 -0.000002 0.000001 -0.282201 -0.026582 -0.444990
    7 0.729363 -0.000002 -0.000002 0.000000 0.000000 -0.250970
    8 3.942335 0.046767 -0.431443 -0.415537 0.315978 -0.992159
    9 1.539097 0.000000 0.000000 0.000000 0.000000 -0.788932
    10 1.196326 -0.000002 -0.000001 0.000000 0.000000 -0.510045
    11 3.883696 -0.046765 0.431443 -0.169621 0.394719 -0.615779
    12 1.719570 -0.000004 -0.000001 -0.003523 0.004246 -1.061108
    13 1.209171 -0.000002 0.000000 -0.000671 0.003012 -0.439482
    14 3.859865 -0.137947 1.332466 0.031590 0.419293 -0.396436
    15 1.719429 0.000002 -0.000001 -0.000743 0.004014 -0.546855
    16 1.099665 0.000000 0.000000 -0.000815 0.002464 -0.566673
    17 0.806053 -0.348925 1.321258 -1.067021 -0.449185 -0.810475
    18 1.789780 -0.000002 0.000002 0.099292 -0.345941 0.046149
    19 1.207006 0.000000 0.000000 0.053367 -0.033102 0.007068
    20 -2.990235 2.938331 -6.758070 -3.205472 0.070855 1.480524
    21 6.028144 0.000000 0.000000 1.421395 0.817105 -0.667279
    22 11.692554 0.000001 0.000003 0.000000 0.000024 -1.849572
    23 11.481697 0.000001 0.000002 -0.859917 -0.236127 1.278410
    24 3.859678 -0.132570 1.193109 0.375285 0.246982 -1.585714
    25 1.312557 -0.000002 0.000001 0.179541 0.033784 -0.427507
    26 0.729365 0.000002 -0.000002 0.000000 0.000000 -0.562868
    27 3.942305 0.050327 0.431044 0.350532 0.088519 -1.200856
    28 1.539099 -0.000002 0.000000 0.000000 0.000000 -0.813563
    29 1.196321 0.000008 0.000000 0.000000 0.000000 -1.043117
    30 3.883661 -0.050323 -0.431042 0.262328 -0.094215 -0.867219
    31 1.719578 0.000004 0.000000 0.004758 -0.006392 -1.007555
    32 1.209185 0.000002 0.000000 0.003176 -0.003131 -1.010065
    33 3.859838 -0.148937 -1.331282 -0.091133 -0.166466 -0.304453
    34 1.719423 0.000002 0.000000 0.001163 -0.006517 -0.539935
    35 1.099667 0.000002 0.000000 0.001402 -0.003971 -0.585465
    36 0.806021 -0.359837 -1.318334 1.038581 0.319042 -0.996249
    37 1.789782 0.000000 -0.000004 -0.089870 0.121871 0.132129
    38 1.206999 0.000003 0.000002 -0.180164 -0.089345 0.953423
    39 -6.914563 1.246132 -19.503415 0.018374 0.151631 -0.004441
    40 -4.726600 -20.043580 -4.550890 0.018369 0.151636 -0.004477
    41 0.000000 7.169887 -1.514632 0.000000 0.000000 0.000000
    42 0.000000 6.250000 0.998666 0.000000 0.000000 0.000000
    43 0.000000 -2.750000 0.000000 0.000000 0.000000 0.000000
    44 0.000001 2.851563 0.000000 0.000000 0.000000 0.000000
    45 -6.488769 1.191443 -16.699666 0.105617 0.151631 -0.004441
    46 -6.723151 1.222694 -18.243720 0.018351 0.151631 -0.004441
    47 -6.348109 1.171911 -15.795854 0.018364 0.151632 -0.004451
  time 10
    0 0.000000 -0.000006 0.000000 -1.570798 -1.391899 -3.141590
    1 -6.423940 -2.007137 -1.289001 0.001015 -0.706870 4.262792
    2 6.028141 0.000000 0.000000 -1.674187 -0.892827 -0.489548
    3 11.692554 0.000001 0.000002 0.000000 0.000000 -0.849246
    4 11.481674 0.000001 -0.000032 -0.184926 0.203691 0.525382
    5 3.859709 -0.142404 -1.191975 -0.584671 0.124148 -1.545169
    6 1.312555 -0.000002 0.000001 -0.283412 0.000048 -0.353381
    7 0.729363 -0.000002 -0.000002 0.000000 0.000000 -0.336090
    8 3.942335 0.046767 -0.431443 -0.428612 0.289768 -1.114310
    9 1.539097 0.000000 0.000000 0.000000 0.000000 -0.710333
    10 1.196326 -0.000002 -0.000001 0.000000 0.000000 -0.610199
    11 3.883696 -0.046765 0.431443 -0.206666 0.400363 -0.745440
    12 1.719570 -0.000004 -0.000001 -0.003200 0.004497 -0.985710
    13 1.209171 -0.000002 0.000000 -0.000971 0.002928 -0.538002
    14 3.859865 -0.137947 1.332466 -0.022001 0.445583 -0.533360
    15 1.719429 0.000002 -0.000001 -0.000599 0.004038 -0.511905
    16 1.099665 0.000000 0.000000 -0.001282 0.002261 -0.764776
    17 0.806053 -0.348925 1.321258 -1.061724 -0.404444 -0.808354
    18 1.789780 -0.000002 0.000002 0.058341 -0.414789 0.094159
    19 1.207006 0.000000 0.000000 0.050970 -0.014142 -0.052106
    20 -3.412123 2.809421 -6.750257 -3.211297 0.020885 1.456629
    21 6.028144 0.000000 0.000000 1.471605 0.787641 -0.640198
    22 11.692554 0.000001 0.000003 0.000000 0.000024 -1.822104
    23 11.481697 0.000001 0.000002 -0.780171 -0.215592 1.166800
    24 3.859678 -0.132570 1.193109 0.349890 0.251709 -1.585134
    25 1.312557 -0.000002 0.000001 0.201413 0.028068 -0.426739
    26 0.729365 0.000002 -0.000002 0.000000 0.000000 -0.544429
    27 3.942305 0.050327 0.431044 0.345798 0.086148 -1.186759
    28 1.539099 -0.000002 0.000000 0.000000 0.000000 -0.827789
    29 1.196321 0.000008 0.000000 0.000000 0.000000 -1.056911
    30 3.883661 -0.050323 -0.431042 0.250173 -0.099900 -0.845901
    31 1.719578 0.000004 0.000000 0.004746 -0.006404 -1.004984
    32 1.209185 0.000002 0.000000 0.003260 -0.003047 -1.038553
    33 3.859838 -0.148937 -1.331282 -0.124292 -0.170963 -0.213644
    34 1.719423 0.000002 0.000000 0.000827 -0.006565 -0.489475
    35 1.099667 0.000002 0.000000 0.001186 -0.004043 -0.532270
    36 0.806021 -0.359837 -1.318334 1.050952 0.317720 -0.982630
    37 1.789782 0.000000 -0.000004 -0.118049 0.146344 0.146157
    38 1.206999 0.000003 0.000002 -0.179473 -0.120925 0.878207
    39 -5.625462 0.535173 -19.765142 0.009225 0.074866 -0.002642
    40 -4.535188 -20.610004 -4.488388 0.009248 0.074882 -0.002675
    41 0.000000 7.169887 -1.514632 0.000000 0.000000 0.000000
    42 0.000000 6.250000 0.998666 0.000000 0.000000 0.000000
    43 0.000000 -2.750000 0.000000 0.000000 0.000000 0.000000
    44 0.000001 2.851563 0.000000 0.000000 0.000000 0.000000
    45 -5.410611 0.507828 -16.937954 0.096510 0.074866 -0.002642
    46 -5.527802 0.519547 -18.493728 0.009244 0.074866 -0.002642
    47 -5.344172 0.496109 -16.022423 0.009245 0.074873 -0.002682
  time 11
    0 0.000000 -0.000006 0.000000 -1.570798 -1.391899 -3.141590
    1 -6.560663 -2.151673 -1.160091 0.010007 -0.698421 4.246287
    2 6.028141 0.000000 0.000000 -1.680193 -0.890102 -0.486108
    3 11.692554 0.000001 0.000002 0.000000 0.000000 -0.921690
    4 11.481674 0.000001 -0.000032 -0.125298 0.215528 0.632565
    5 3.859709 -0.142404 -1.191975 -0.585941 0.079542 -1.662966
    6 1.312555 -0.000002 0.000001 -0.282848 0.018145 -0.291226
    7 0.729363 -0.000002 -0.000002 0.000000 0.000000 -0.393862
    8 3.942335 0.046767 -0.431443 -0.439686 0.254425 -1.232082
    9 1.539097 0.000000 0.000000 0.000000 0.000000 -0.657012
    10 1.196326 -0.000002 -0.000001 0.000000 0.000000 -0.678152
    11 3.883696 -0.046765 0.431443 -0.243147 0.393700 -0.873903
    12 1.719570 -0.000004 -0.000001 -0.002960 0.004653 -0.934561
    13 1.209171 -0.000002 0.000000 -0.001163 0.002856 -0.604854
    14 3.859865 -0.137947 1.332466 -0.075453 0.458766 -0.670452
    15 1.719429 0.000002 -0.000001 -0.000539 0.004038 -0.498824
    16 1.099665 0.000000 0.000000 -0.001654 0.002009 -0.936817
    17 0.806053 -0.348925 1.321258 -1.058572 -0.366964 -0.806580
    18 1.789780 -0.000002 0.000002 0.024317 -0.474379 0.137825
    19 1.207006 0.000000 0.000000 0.048562 0.000084 -0.086726
    20 -3.693381 2.723481 -6.742444 -3.215277 -0.012222 1.440791
    21 6.028144 0.000000 0.000000 1.499275 0.764684 -0.625085
    22 11.692554 0.000001 0.000003 0.000000 0.000024 -1.810691
    23 11.481697 0.000001 0.000002 -0.723104 -0.190905 1.097721
    24 3.859678 -0.132570 1.193109 0.332668 0.254920 -1.584736
    25 1.312557 -0.000002 0.000001 0.216262 0.024197 -0.426248
    26 0.729365 0.000002 -0.000002 0.000000 0.000000 -0.531945
    27 3.942305 0.050327 0.431044 0.342550 0.084532 -1.177231
    28 1.539099 -0.000002 0.000000 0.000000 0.000000 -0.837485
    29 1.196321 0.000008 0.000000 0.000000 0.000000 -1.066267
    30 3.883661 -0.050323 -0.431042 0.241850 -0.103742 -0.831407
    31 1.719578 0.000004 0.000000 0.004734 -0.006416 -1.003189
    32 1.209185 0.000002 0.000000 0.003320 -0.002975 -1.057849
    33 3.859838 -0.148937 -1.331282 -0.146181 -0.173162 -0.151914
    34 1.719423 0.000002 0.000000 0.000599 -0.006589 -0.455217
    35 1.099667 0.000002 0.000000 0.001043 -0.004079 -0.496170
    36 0.806021 -0.359837 -1.318334 1.059284 0.316780 -0.973391
    37 1.789782 0.000000 -0.000004 -0.137207 0.162918 0.155744
    38 1.206999 0.000003 0.000002 -0.178383 -0.141922 0.826802
    39 -4.699652 0.128910 -19.913584 0.002560 0.020593 -0.000843
    40 -4.398465 -20.906888 -4.457137 0.002579 0.020593 -0.000872
    41 0.000000 7.169887 -1.514632 0.000000 0.000000 0.000000
    42 0.000000 6.250000 0.998666 0.000000 0.000000 0.000000
    43 0.000000 -2.750000 0.000000 0.000000 0.000000 0.000000
    44 0.000001 2.851563 0.000000 0.000000 0.000000 0.000000
    45 -4.641057 0.121097 -17.078584 0.089824 0.020593 -0.000843
    46 -4.672307 0.125004 -18.638264 0.002558 0.020593 -0.000843
    47 -4.621494 0.117191 -16.163052 0.002572 0.020588 -0.000845
  time 12
    0 0.000000 -0.000006 0.000000 -1.570798 -1.391899 -3.141590
    1 -6.615352 -2.206362 -1.113214 0.013248 -0.695289 4.240255
    2 6.028141 0.000000 0.000000 -1.680076 -0.888176 -0.487247
    3 11.692554 0.000001 0.000002 0.000000 0.000000 -0.955538
    4 11.481674 0.000001 -0.000032 -0.102846 0.217567 0.678660
    5 3.859709 -0.142404 -1.191975 -0.583832 0.057754 -1.715126
    6 1.312555 -0.000002 0.000001 -0.282357 0.024796 -0.268304
    7 0.729363 -0.000002 -0.000002 0.000000 0.000000 -0.415133
    8 3.942335 0.046767 -0.431443 -0.443389 0.236328 -1.284431
    9 1.539097 0.000000 0.000000 0.000000 0.000000 -0.637362
    10 1.196326 -0.000002 -0.000001 0.000000 0.000000 -0.703200
    11 3.883696 -0.046765 0.431443 -0.258895 0.387624 -0.931693
    12 1.719570 -0.000004 -0.000001 -0.002876 0.004713 -0.915683
    13 1.209171 -0.000002 0.000000 -0.001234 0.002832 -0.629487
    14 3.859865 -0.137947 1.332466 -0.099415 0.461289 -0.732688
    15 1.719429 0.000002 -0.000001 -0.000539 0.004038 -0.496883
    16 1.099665 0.000000 0.000000 -0.001798 0.001877 -1.010261
    17 0.806053 -0.348925 1.321258 -1.057553 -0.351234 -0.805849
    18 1.789780 -0.000002 0.000002 0.009971 -0.499704 0.157138
    19 1.207006 0.000000 0.000000 0.047483 0.005693 -0.097994
    20 -3.794947 2.692230 -6.742444 -3.216685 -0.024164 1.435075
    21 6.028144 0.000000 0.000000 1.508007 0.755528 -0.620368
    22 11.692554 0.000001 0.000003 0.000000 0.000024 -1.808330
    23 11.481697 0.000001 0.000002 -0.701574 -0.179475 1.074007
    24 3.859678 -0.132570 1.193109 0.326316 0.256096 -1.584591
    25 1.312557 -0.000002 0.000001 0.221739 0.022771 -0.426063
    26 0.729365 0.000002 -0.000002 0.000000 0.000000 -0.527383
    27 3.942305 0.050327 0.431044 0.341352 0.083923 -1.173694
    28 1.539099 -0.000002 0.000000 0.000000 0.000000 -0.841064
    29 1.196321 0.000008 0.000000 0.000000 0.000000 -1.069706
    30 3.883661 -0.050323 -0.431042 0.238779 -0.105152 -0.826078
    31 1.719578 0.000004 0.000000 0.004734 -0.006416 -1.002558
    32 1.209185 0.000002 0.000000 0.003344 -0.002951 -1.064971
    33 3.859838 -0.148937 -1.331282 -0.154114 -0.173803 -0.129135
    34 1.719423 0.000002 0.000000 0.000515 -0.006601 -0.442615
    35 1.099667 0.000002 0.000000 0.000995 -0.004103 -0.482900
    36 0.806021 -0.359837 -1.318334 1.062355 0.316431 -0.969987
    37 1.789782 0.000000 -0.000004 -0.144263 0.169031 0.159300
    38 1.206999 0.000003 0.000002 -0.177846 -0.149556 0.807820
    39 -4.348079 0.000000 -19.960460 0.000000 0.000000 -0.000061
    40 -4.347682 -20.996734 -4.449324 0.000000 0.000000 -0.000053
    41 0.000000 7.169887 -1.514632 0.000000 0.000000 0.000000
    42 0.000000 6.250000 0.998666 0.000000 0.000000 0.000000
    43 0.000000 -2.750000 0.000000 0.000000 0.000000 0.000000
    44 0.000001 2.851563 0.000000 0.000000 0.000000 0.000000
    45 -4.348079 0.000000 -17.125460 0.087266 0.000000 -0.000061
    46 -4.348079 0.000000 -18.685140 0.000000 0.000000 -0.000061
    47 -4.348048 0.000000 -16.209929 0.000000 0.000000 -0.000029
end
