// Created by Crowbar++ 0.74
version 1
nodes
  0 "ValveBiped.Bip01_Spine4" -1
  1 "ValveBiped.Bip01_L_Clavicle" 0
  2 "ValveBiped.Bip01_L_UpperArm" 1
  3 "ValveBiped.Bip01_L_Forearm" 2
  4 "ValveBiped.Bip01_L_Hand" 3
  5 "ValveBiped.Bip01_L_Finger4" 4
  6 "ValveBiped.Bip01_L_Finger41" 5
  7 "ValveBiped.Bip01_L_Finger42" 6
  8 "ValveBiped.Bip01_L_Finger3" 4
  9 "ValveBiped.Bip01_L_Finger31" 8
  10 "ValveBiped.Bip01_L_Finger32" 9
  11 "ValveBiped.Bip01_L_Finger2" 4
  12 "ValveBiped.Bip01_L_Finger21" 11
  13 "ValveBiped.Bip01_L_Finger22" 12
  14 "ValveBiped.Bip01_L_Finger1" 4
  15 "ValveBiped.Bip01_L_Finger11" 14
  16 "ValveBiped.Bip01_L_Finger12" 15
  17 "ValveBiped.Bip01_L_Finger0" 4
  18 "ValveBiped.Bip01_L_Finger01" 17
  19 "ValveBiped.Bip01_L_Finger02" 18
  20 "ValveBiped.Bip01_R_Clavicle" 0
  21 "ValveBiped.Bip01_R_UpperArm" 20
  22 "ValveBiped.Bip01_R_Forearm" 21
  23 "ValveBiped.Bip01_R_Hand" 22
  24 "ValveBiped.Bip01_R_Finger4" 23
  25 "ValveBiped.Bip01_R_Finger41" 24
  26 "ValveBiped.Bip01_R_Finger42" 25
  27 "ValveBiped.Bip01_R_Finger3" 23
  28 "ValveBiped.Bip01_R_Finger31" 27
  29 "ValveBiped.Bip01_R_Finger32" 28
  30 "ValveBiped.Bip01_R_Finger2" 23
  31 "ValveBiped.Bip01_R_Finger21" 30
  32 "ValveBiped.Bip01_R_Finger22" 31
  33 "ValveBiped.Bip01_R_Finger1" 23
  34 "ValveBiped.Bip01_R_Finger11" 33
  35 "ValveBiped.Bip01_R_Finger12" 34
  36 "ValveBiped.Bip01_R_Finger0" 23
  37 "ValveBiped.Bip01_R_Finger01" 36
  38 "ValveBiped.Bip01_R_Finger02" 37
  39 "mosin_strip_clip" -1
  40 "control" -1
  41 "mosin_trigger" 40
  42 "mosin_bolt_base" 40
  43 "mosin_bolt_handle" 42
  44 "mosin_bolt_hammer" 42
  45 "mosin_strip_bullets_top" -1
  46 "mosin_strip_bullets_group" -1
  47 "mosin_bullet_single" -1
end
skeleton
  time 0
    0 0.000000 -0.000006 0.000000 -1.570798 -1.391899 -3.141590
    1 -4.777344 -0.275635 -2.777344 -0.116402 -0.795395 -1.808110
    2 6.028141 0.000000 0.000000 -1.554458 -0.598940 -0.604600
    3 11.692554 0.000001 0.000002 0.000000 0.000000 -1.063831
    4 11.481674 0.000001 -0.000032 -0.506190 -0.053755 0.159784
    5 3.859709 -0.142404 -1.191975 -0.565362 -0.016227 -1.231274
    6 1.312555 -0.000002 0.000001 -0.207477 -0.194486 -1.096269
    7 0.729363 -0.000002 -0.000002 0.000000 0.000000 0.344871
    8 3.942335 0.046767 -0.431443 -0.516551 0.163047 -0.894541
    9 1.539097 0.000000 0.000000 0.000000 0.000000 -1.339093
    10 1.196326 -0.000002 -0.000001 0.000000 0.000000 0.190960
    11 3.883696 -0.046765 0.431443 -0.207427 0.207208 -0.559276
    12 1.719570 -0.000004 -0.000001 -0.005177 0.001885 -1.588937
    13 1.209171 -0.000002 0.000000 0.001378 0.002760 0.250155
    14 3.859865 -0.137947 1.332466 0.066677 0.246053 -0.320614
    15 1.719429 0.000002 -0.000001 -0.003655 0.001797 -1.479203
    16 1.099665 0.000000 0.000000 0.000708 0.002497 0.032696
    17 0.806053 -0.348925 1.321258 -1.118183 -0.378404 -0.802607
    18 1.789780 -0.000002 0.000002 0.326045 -0.156750 -0.115755
    19 1.207006 0.000000 0.000000 0.027862 -0.178198 0.887319
    20 1.350586 4.250000 -6.832031 3.127383 0.584352 1.718144
    21 6.028144 0.000000 0.000000 0.619953 0.923946 -1.048247
    22 11.692554 0.000001 0.000003 0.000000 0.000024 -2.103553
    23 11.481697 0.000001 0.000002 -0.973423 -0.047712 1.881310
    24 3.859678 -0.132570 1.193109 0.553212 0.213895 -1.589752
    25 1.312557 -0.000002 0.000001 0.026594 0.073750 -0.432702
    26 0.729365 0.000002 -0.000002 0.000000 0.000000 -0.691678
    27 3.942305 0.050327 0.431044 0.381761 0.104593 -1.299553
    28 1.539099 -0.000002 0.000000 0.000000 0.000000 -0.713789
    29 1.196321 0.000008 0.000000 0.000000 0.000000 -0.946683
    30 3.883661 -0.050323 -0.431042 0.344215 -0.053301 -1.015922
    31 1.719578 0.000004 0.000000 0.004883 -0.006304 -1.025789
    32 1.209185 0.000002 0.000000 0.002497 -0.003696 -0.810634
    33 3.859838 -0.148937 -1.331282 0.157528 -0.087379 -0.929828
    34 1.719423 0.000002 0.000000 0.003344 -0.005714 -0.893046
    35 1.099667 0.000002 0.000000 0.002756 -0.003183 -0.957860
    36 0.806021 -0.359837 -1.318334 0.949231 0.326611 -1.091916
    37 1.789782 0.000000 -0.000004 0.106363 -0.050180 0.037205
    38 1.206999 0.000003 0.000002 -0.153159 0.145673 1.469569
    39 -11.590487 7.343974 -18.358849 0.030498 0.424639 0.006040
    40 -5.335994 -14.078555 -4.812616 0.030495 0.424631 0.006009
    41 0.000000 7.169887 -1.514632 0.000000 0.000000 0.000000
    42 0.000000 6.250000 0.998666 0.000000 0.000000 0.000000
    43 0.000000 -2.750000 0.000000 0.000000 0.000000 0.000000
    44 0.000001 2.851563 0.000000 0.000000 0.000000 0.000000
    45 -10.422483 7.261940 -15.773856 0.117760 0.424639 0.006040
    46 -11.067034 7.304910 -17.196813 0.030494 0.424639 0.006040
    47 -10.043535 7.238502 -14.940359 0.030487 0.424630 0.006026
  time 1
    0 0.000000 -0.000006 0.000000 -1.570798 -1.391899 -3.141590
    1 -4.777344 -0.275635 -2.777344 -0.116402 -0.795395 -1.808110
    2 6.028141 0.000000 0.000000 -1.376095 -0.520967 -0.749781
    3 11.692554 0.000001 0.000002 0.000000 0.000000 -1.369343
    4 11.481674 0.000001 -0.000032 -0.570523 -0.293002 0.319238
    5 3.859709 -0.142404 -1.191975 -0.565362 -0.016227 -1.231274
    6 1.312555 -0.000002 0.000001 -0.207477 -0.194486 -1.096269
    7 0.729363 -0.000002 -0.000002 0.000000 0.000000 0.344871
    8 3.942335 0.046767 -0.431443 -0.516551 0.163047 -0.894541
    9 1.539097 0.000000 0.000000 0.000000 0.000000 -1.339126
    10 1.196326 -0.000002 -0.000001 0.000000 0.000000 0.190960
    11 3.883696 -0.046765 0.431443 -0.207427 0.207208 -0.559276
    12 1.719570 -0.000004 -0.000001 -0.005177 0.001885 -1.588974
    13 1.209171 -0.000002 0.000000 0.001378 0.002760 0.250155
    14 3.859865 -0.137947 1.332466 0.066677 0.246053 -0.320614
    15 1.719429 0.000002 -0.000001 -0.003655 0.001797 -1.479203
    16 1.099665 0.000000 0.000000 0.000708 0.002497 0.032696
    17 0.806053 -0.348925 1.321258 -1.118183 -0.378404 -0.802607
    18 1.789780 -0.000002 0.000002 0.326045 -0.156750 -0.115755
    19 1.207006 0.000000 0.000000 0.027862 -0.178198 0.887319
    20 1.350586 4.250000 -6.832031 3.127383 0.584352 1.718144
    21 6.028144 0.000000 0.000000 0.626011 0.654915 -0.897472
    22 11.692554 0.000001 0.000003 0.000000 0.000012 -2.410423
    23 11.481697 0.000001 0.000002 -1.001747 0.255140 2.025848
    24 3.859678 -0.132570 1.193109 0.553212 0.213895 -1.589752
    25 1.312557 -0.000002 0.000001 0.026594 0.073750 -0.432702
    26 0.729365 0.000002 -0.000002 0.000000 0.000000 -0.691678
    27 3.942305 0.050327 0.431044 0.381761 0.104593 -1.299553
    28 1.539099 -0.000002 0.000000 0.000000 0.000000 -0.713789
    29 1.196321 0.000008 0.000000 0.000000 0.000000 -0.946683
    30 3.883661 -0.050323 -0.431042 0.344215 -0.053301 -1.015922
    31 1.719578 0.000004 0.000000 0.004883 -0.006304 -1.025789
    32 1.209185 0.000002 0.000000 0.002497 -0.003696 -0.810634
    33 3.859838 -0.148937 -1.331282 0.157528 -0.087379 -0.929828
    34 1.719423 0.000002 0.000000 0.003332 -0.005714 -0.893046
    35 1.099667 0.000002 0.000000 0.002756 -0.003183 -0.957860
    36 0.806021 -0.359837 -1.318334 0.949231 0.326611 -1.091916
    37 1.789782 0.000000 -0.000004 0.106363 -0.050180 0.037205
    38 1.206999 0.000003 0.000002 -0.153159 0.145673 1.469569
    39 -14.137440 11.133152 -18.030714 0.029030 0.590971 -0.024464
    40 -6.363369 -10.500320 -5.656392 0.029032 0.590966 -0.024465
    41 0.000000 7.169887 -1.514632 0.000000 0.000000 0.000000
    42 0.000000 6.250000 0.998666 0.000000 0.000000 0.000000
    43 0.000000 -2.750000 0.000000 0.000000 0.000000 0.000000
    44 0.000001 2.851563 0.000000 0.000000 0.000000 0.000000
    45 -12.563173 11.012055 -15.676197 0.116293 0.590971 -0.024464
    46 -13.430387 11.078463 -16.970244 0.029027 0.590971 -0.024464
    47 -12.051408 10.972991 -14.913014 0.029030 0.590976 -0.024452
  time 2
    0 0.000000 -0.000006 0.000000 -1.570798 -1.391899 -3.141590
    1 -4.777344 -0.275635 -2.777344 -0.116402 -0.795395 -1.808110
    2 6.028141 0.000000 0.000000 -1.152764 -0.512595 -0.894867
    3 11.692554 0.000001 0.000002 0.000000 0.000000 -1.537416
    4 11.481674 0.000001 -0.000032 -0.629613 -0.574092 0.431369
    5 3.859709 -0.142404 -1.191975 -0.565362 -0.016227 -1.231274
    6 1.312555 -0.000002 0.000001 -0.207477 -0.194486 -1.096269
    7 0.729363 -0.000002 -0.000002 0.000000 0.000000 0.344871
    8 3.942335 0.046767 -0.431443 -0.516551 0.163047 -0.894541
    9 1.539097 0.000000 0.000000 0.000000 0.000000 -1.339093
    10 1.196326 -0.000002 -0.000001 0.000000 0.000000 0.190960
    11 3.883696 -0.046765 0.431443 -0.207427 0.207208 -0.559276
    12 1.719570 -0.000004 -0.000001 -0.005177 0.001885 -1.588937
    13 1.209171 -0.000002 0.000000 0.001378 0.002760 0.250155
    14 3.859865 -0.137947 1.332466 0.066677 0.246053 -0.320614
    15 1.719429 0.000002 -0.000001 -0.003655 0.001797 -1.479203
    16 1.099665 0.000000 0.000000 0.000708 0.002497 0.032696
    17 0.806053 -0.348925 1.321258 -1.118183 -0.378404 -0.802607
    18 1.789780 -0.000002 0.000002 0.326045 -0.156750 -0.115755
    19 1.207006 0.000000 0.000000 0.027862 -0.178198 0.887319
    20 1.350586 4.250000 -6.832031 3.127383 0.584352 1.718144
    21 6.028144 0.000000 0.000000 0.544093 0.008526 -0.842549
    22 11.692554 0.000001 0.000003 0.000000 0.000012 -2.639376
    23 11.481697 0.000001 0.000002 -1.316970 0.857911 1.765833
    24 3.859678 -0.132570 1.193109 0.553212 0.213895 -1.589752
    25 1.312557 -0.000002 0.000001 0.026594 0.073750 -0.432702
    26 0.729365 0.000002 -0.000002 0.000000 0.000000 -0.691678
    27 3.942305 0.050327 0.431044 0.381761 0.104593 -1.299553
    28 1.539099 -0.000002 0.000000 0.000000 0.000000 -0.713789
    29 1.196321 0.000008 0.000000 0.000000 0.000000 -0.946683
    30 3.883661 -0.050323 -0.431042 0.344215 -0.053301 -1.015922
    31 1.719578 0.000004 0.000000 0.004883 -0.006304 -1.025789
    32 1.209185 0.000002 0.000000 0.002497 -0.003696 -0.810634
    33 3.859838 -0.148937 -1.331282 0.157528 -0.087379 -0.929828
    34 1.719423 0.000002 0.000000 0.003344 -0.005714 -0.893046
    35 1.099667 0.000002 0.000000 0.002756 -0.003183 -0.957860
    36 0.806021 -0.359837 -1.318334 0.949231 0.326611 -1.091916
    37 1.789782 0.000000 -0.000004 0.106363 -0.050180 0.037205
    38 1.206999 0.000003 0.000002 -0.153159 0.145673 1.469569
    39 -16.563295 14.930143 -17.456478 0.021010 0.757275 -0.054734
    40 -7.390744 -6.922086 -6.504074 0.021011 0.757301 -0.054776
    41 0.000000 7.169887 -1.514632 0.000000 0.000000 0.000000
    42 0.000000 6.250000 0.998666 0.000000 0.000000 0.000000
    43 0.000000 -2.750000 0.000000 0.000000 0.000000 0.000000
    44 0.000001 2.851563 0.000000 0.000000 0.000000 0.000000
    45 -14.621830 14.762169 -15.394939 0.108277 0.757275 -0.054734
    46 -15.688269 14.855922 -16.528824 0.021011 0.757275 -0.054734
    47 -13.992874 14.707480 -14.729415 0.021008 0.757292 -0.054794
  time 3
    0 0.000000 -0.000006 0.000000 -1.570798 -1.391899 -3.141590
    1 -4.777344 -0.275635 -2.777344 -0.116402 -0.795395 -1.808110
    2 6.028141 0.000000 0.000000 -1.383078 -0.467977 -0.737162
    3 11.692554 0.000001 0.000002 0.000000 0.000000 -1.477217
    4 11.481674 0.000001 -0.000032 -0.563733 -0.347854 0.374634
    5 3.859709 -0.142404 -1.191975 -0.565362 -0.016227 -1.231274
    6 1.312555 -0.000002 0.000001 -0.207477 -0.194486 -1.096269
    7 0.729363 -0.000002 -0.000002 0.000000 0.000000 0.344871
    8 3.942335 0.046767 -0.431443 -0.516551 0.163047 -0.894541
    9 1.539097 0.000000 0.000000 0.000000 0.000000 -1.339126
    10 1.196326 -0.000002 -0.000001 0.000000 0.000000 0.190960
    11 3.883696 -0.046765 0.431443 -0.207427 0.207208 -0.559276
    12 1.719570 -0.000004 -0.000001 -0.005177 0.001885 -1.588974
    13 1.209171 -0.000002 0.000000 0.001378 0.002760 0.250155
    14 3.859865 -0.137947 1.332466 0.066677 0.246053 -0.320614
    15 1.719429 0.000002 -0.000001 -0.003655 0.001797 -1.479203
    16 1.099665 0.000000 0.000000 0.000708 0.002497 0.032696
    17 0.806053 -0.348925 1.321258 -1.118183 -0.378404 -0.802607
    18 1.789780 -0.000002 0.000002 0.326045 -0.156750 -0.115755
    19 1.207006 0.000000 0.000000 0.027862 -0.178198 0.887319
    20 1.350586 4.250000 -6.832031 3.127383 0.584352 1.718144
    21 6.028144 0.000000 0.000000 0.614440 0.550165 -0.879063
    22 11.692554 0.000001 0.000003 0.000000 0.000012 -2.454262
    23 11.481697 0.000001 0.000002 -1.057036 0.363351 1.952322
    24 3.859678 -0.132570 1.193109 0.553212 0.213895 -1.589752
    25 1.312557 -0.000002 0.000001 0.026594 0.073750 -0.432702
    26 0.729365 0.000002 -0.000002 0.000000 0.000000 -0.691678
    27 3.942305 0.050327 0.431044 0.381761 0.104593 -1.299553
    28 1.539099 -0.000002 0.000000 0.000000 0.000000 -0.713789
    29 1.196321 0.000008 0.000000 0.000000 0.000000 -0.946683
    30 3.883661 -0.050323 -0.431042 0.344215 -0.053301 -1.015922
    31 1.719578 0.000004 0.000000 0.004883 -0.006304 -1.025789
    32 1.209185 0.000002 0.000000 0.002497 -0.003696 -0.810634
    33 3.859838 -0.148937 -1.331282 0.157528 -0.087379 -0.929828
    34 1.719423 0.000002 0.000000 0.003344 -0.005714 -0.893046
    35 1.099667 0.000002 0.000000 0.002756 -0.003183 -0.957860
    36 0.806021 -0.359837 -1.318334 0.949231 0.326611 -1.091916
    37 1.789782 0.000000 -0.000004 0.106363 -0.050180 0.037205
    38 1.206999 0.000003 0.000002 -0.153159 0.145673 1.469603
    39 -14.973403 11.090182 -18.366662 -0.007681 0.619411 -0.006788
    40 -6.011795 -9.847957 -5.601703 -0.007706 0.619417 -0.006825
    41 0.000000 7.169887 -1.514632 0.000000 0.000000 0.000000
    42 0.000000 6.250000 0.998666 0.000000 0.000000 0.000000
    43 0.000000 -2.750000 0.000000 0.000000 0.000000 0.000000
    44 0.000001 2.851563 0.000000 0.000000 0.000000 0.000000
    45 -13.324915 11.101901 -16.059021 0.079557 0.619411 -0.006788
    46 -14.231193 11.094089 -17.329630 -0.007709 0.619411 -0.006788
    47 -12.793619 11.105808 -15.311464 -0.007698 0.619417 -0.006832
  time 4
    0 0.000000 -0.000006 0.000000 -1.570798 -1.391899 -3.141590
    1 -4.777344 -0.275635 -2.777344 -0.116402 -0.795395 -1.808110
    2 6.028141 0.000000 0.000000 -1.884101 -0.804787 -0.221453
    3 11.692554 0.000001 0.000002 0.000000 0.000000 -0.322166
    4 11.481674 0.000001 -0.000032 -0.378666 0.218221 -0.275794
    5 3.859709 -0.142404 -1.191975 -0.565362 -0.016227 -1.231274
    6 1.312555 -0.000002 0.000001 -0.207477 -0.194486 -1.096269
    7 0.729363 -0.000002 -0.000002 0.000000 0.000000 0.344871
    8 3.942335 0.046767 -0.431443 -0.516551 0.163047 -0.894541
    9 1.539097 0.000000 0.000000 0.000000 0.000000 -1.339093
    10 1.196326 -0.000002 -0.000001 0.000000 0.000000 0.190960
    11 3.883696 -0.046765 0.431443 -0.207427 0.207208 -0.559276
    12 1.719570 -0.000004 -0.000001 -0.005177 0.001885 -1.588937
    13 1.209171 -0.000002 0.000000 0.001378 0.002760 0.250155
    14 3.859865 -0.137947 1.332466 0.066677 0.246053 -0.320614
    15 1.719429 0.000002 -0.000001 -0.003655 0.001797 -1.479203
    16 1.099665 0.000000 0.000000 0.000708 0.002497 0.032696
    17 0.806053 -0.348925 1.321258 -1.118183 -0.378404 -0.802607
    18 1.789780 -0.000002 0.000002 0.326045 -0.156750 -0.115755
    19 1.207006 0.000000 0.000000 0.027862 -0.178198 0.887319
    20 1.350586 4.250000 -6.832031 3.127383 0.584352 1.718144
    21 6.028144 0.000000 0.000000 0.009579 1.116668 -1.692726
    22 11.692554 0.000001 0.000003 0.000000 0.000024 -1.558206
    23 11.481697 0.000001 0.000002 -0.759947 -0.198239 1.499117
    24 3.859678 -0.132570 1.193109 0.553212 0.213895 -1.589752
    25 1.312557 -0.000002 0.000001 0.026594 0.073750 -0.432702
    26 0.729365 0.000002 -0.000002 0.000000 0.000000 -0.691678
    27 3.942305 0.050327 0.431044 0.381761 0.104593 -1.299553
    28 1.539099 -0.000002 0.000000 0.000000 0.000000 -0.713789
    29 1.196321 0.000008 0.000000 0.000000 0.000000 -0.946683
    30 3.883661 -0.050323 -0.431042 0.344215 -0.053301 -1.015922
    31 1.719578 0.000004 0.000000 0.004883 -0.006304 -1.025789
    32 1.209185 0.000002 0.000000 0.002497 -0.003696 -0.810634
    33 3.859838 -0.148937 -1.331282 0.157528 -0.087379 -0.929828
    34 1.719423 0.000002 0.000000 0.003344 -0.005714 -0.893046
    35 1.099667 0.000002 0.000000 0.002756 -0.003183 -0.957860
    36 0.806021 -0.359837 -1.318334 0.949231 0.326611 -1.091916
    37 1.789782 0.000000 -0.000004 0.106363 -0.050180 0.037205
    38 1.206999 0.000003 0.000002 -0.153159 0.145673 1.469569
    39 -6.191885 0.898465 -19.694827 -0.080764 0.205762 0.041159
    40 -1.882763 -18.617756 -2.898495 -0.080774 0.205763 0.041126
    41 0.000000 7.169887 -1.514632 0.000000 0.000000 0.000000
    42 0.000000 6.250000 0.998666 0.000000 0.000000 0.000000
    43 0.000000 -2.750000 0.000000 0.000000 0.000000 0.000000
    44 0.000001 2.851563 0.000000 0.000000 0.000000 0.000000
    45 -5.625462 1.152379 -16.930142 0.006495 0.205762 0.041159
    46 -5.934065 1.011750 -18.450758 -0.080771 0.205762 0.041159
    47 -5.441832 1.234413 -16.034142 -0.080778 0.205761 0.041130
  time 5
    0 0.000000 -0.000006 0.000000 -1.570798 -1.391899 -3.141590
    1 -4.777344 -0.275635 -2.777344 -0.116402 -0.795395 -1.808110
    2 6.028141 0.000000 0.000000 -1.842884 -0.670834 -0.282023
    3 11.692554 0.000001 0.000002 0.000000 0.000000 -0.612267
    4 11.481674 0.000001 -0.000032 -0.413017 0.200404 -0.133937
    5 3.859709 -0.142404 -1.191975 -0.565362 -0.016227 -1.231274
    6 1.312555 -0.000002 0.000001 -0.207477 -0.194486 -1.096269
    7 0.729363 -0.000002 -0.000002 0.000000 0.000000 0.344871
    8 3.942335 0.046767 -0.431443 -0.516551 0.163047 -0.894541
    9 1.539097 0.000000 0.000000 0.000000 0.000000 -1.339093
    10 1.196326 -0.000002 -0.000001 0.000000 0.000000 0.190960
    11 3.883696 -0.046765 0.431443 -0.207427 0.207208 -0.559276
    12 1.719570 -0.000004 -0.000001 -0.005177 0.001885 -1.588937
    13 1.209171 -0.000002 0.000000 0.001378 0.002760 0.250155
    14 3.859865 -0.137947 1.332466 0.066677 0.246053 -0.320614
    15 1.719429 0.000002 -0.000001 -0.003655 0.001797 -1.479203
    16 1.099665 0.000000 0.000000 0.000708 0.002497 0.032696
    17 0.806053 -0.348925 1.321258 -1.118183 -0.378404 -0.802607
    18 1.789780 -0.000002 0.000002 0.326045 -0.156750 -0.115755
    19 1.207006 0.000000 0.000000 0.027862 -0.178198 0.887319
    20 1.350586 4.250000 -6.832031 3.127383 0.584352 1.718144
    21 6.028144 0.000000 0.000000 0.025570 1.126753 -1.653068
    22 11.692554 0.000001 0.000003 0.000000 0.000024 -1.645883
    23 11.481697 0.000001 0.000002 -0.770817 -0.194309 1.590879
    24 3.859678 -0.132570 1.193109 0.553212 0.213895 -1.589752
    25 1.312557 -0.000002 0.000001 0.026594 0.073750 -0.432702
    26 0.729365 0.000002 -0.000002 0.000000 0.000000 -0.691678
    27 3.942305 0.050327 0.431044 0.381761 0.104593 -1.299553
    28 1.539099 -0.000002 0.000000 0.000000 0.000000 -0.713789
    29 1.196321 0.000008 0.000000 0.000000 0.000000 -0.946683
    30 3.883661 -0.050323 -0.431042 0.344215 -0.053301 -1.015922
    31 1.719578 0.000004 0.000000 0.004883 -0.006304 -1.025789
    32 1.209185 0.000002 0.000000 0.002497 -0.003696 -0.810634
    33 3.859838 -0.148937 -1.331282 0.157528 -0.087379 -0.929828
    34 1.719423 0.000002 0.000000 0.003344 -0.005714 -0.893046
    35 1.099667 0.000002 0.000000 0.002756 -0.003183 -0.957860
    36 0.806021 -0.359837 -1.318334 0.949231 0.326611 -1.091916
    37 1.789782 0.000000 -0.000004 0.106363 -0.050180 0.037205
    38 1.206999 0.000003 0.000002 -0.153159 0.145673 1.469569
    39 -6.652837 1.839900 -19.249501 -0.069808 0.242870 0.041159
    40 -1.769478 -17.840388 -2.804743 -0.069797 0.242858 0.041126
    41 0.000000 7.169887 -1.514632 0.000000 0.000000 0.000000
    42 0.000000 6.250000 0.998666 0.000000 0.000000 0.000000
    43 0.000000 -2.750000 0.000000 0.000000 0.000000 0.000000
    44 0.000001 2.851563 0.000000 0.000000 0.000000 0.000000
    45 -5.980941 2.066469 -16.504347 0.017478 0.242870 0.041159
    46 -6.352046 1.941465 -18.013245 -0.069788 0.242870 0.041159
    47 -5.766060 2.136784 -15.616161 -0.069806 0.242858 0.041130
  time 6
    0 0.000000 -0.000006 0.000000 -1.570798 -1.391899 -3.141590
    1 -4.777344 -0.275635 -2.777344 -0.116402 -0.795395 -1.808110
    2 6.028141 0.000000 0.000000 -1.851899 -0.675817 -0.270398
    3 11.692554 0.000001 0.000002 0.000000 0.000000 -0.593691
    4 11.481674 0.000001 -0.000032 -0.388682 0.231733 -0.134681
    5 3.859709 -0.142404 -1.191975 -0.565362 -0.016227 -1.231274
    6 1.312555 -0.000002 0.000001 -0.207477 -0.194486 -1.096269
    7 0.729363 -0.000002 -0.000002 0.000000 0.000000 0.344871
    8 3.942335 0.046767 -0.431443 -0.516551 0.163047 -0.894541
    9 1.539097 0.000000 0.000000 0.000000 0.000000 -1.339093
    10 1.196326 -0.000002 -0.000001 0.000000 0.000000 0.190979
    11 3.883696 -0.046765 0.431443 -0.207427 0.207208 -0.559276
    12 1.719570 -0.000004 -0.000001 -0.005177 0.001885 -1.588937
    13 1.209171 -0.000002 0.000000 0.001378 0.002760 0.250155
    14 3.859865 -0.137947 1.332466 0.066677 0.246053 -0.320614
    15 1.719429 0.000002 -0.000001 -0.003655 0.001797 -1.479203
    16 1.099665 0.000000 0.000000 0.000708 0.002497 0.032696
    17 0.806053 -0.348925 1.321258 -1.118183 -0.378404 -0.802607
    18 1.789780 -0.000002 0.000002 0.326045 -0.156750 -0.115755
    19 1.207006 0.000000 0.000000 0.027862 -0.178198 0.887319
    20 1.350586 4.250000 -6.832031 3.127383 0.584352 1.718144
    21 6.028144 0.000000 0.000000 0.001993 1.128844 -1.676194
    22 11.692554 0.000001 0.000003 0.000000 0.000024 -1.633605
    23 11.481697 0.000001 0.000002 -0.738678 -0.218497 1.573996
    24 3.859678 -0.132570 1.193109 0.553212 0.213895 -1.589752
    25 1.312557 -0.000002 0.000001 0.026594 0.073750 -0.432702
    26 0.729365 0.000002 -0.000002 0.000000 0.000000 -0.691678
    27 3.942305 0.050327 0.431044 0.381761 0.104593 -1.299553
    28 1.539099 -0.000002 0.000000 0.000000 0.000000 -0.713789
    29 1.196321 0.000008 0.000000 0.000000 0.000000 -0.946683
    30 3.883661 -0.050323 -0.431042 0.344215 -0.053301 -1.015922
    31 1.719578 0.000004 0.000000 0.004883 -0.006304 -1.025789
    32 1.209185 0.000002 0.000000 0.002497 -0.003696 -0.810634
    33 3.859838 -0.148937 -1.331282 0.157528 -0.087379 -0.929828
    34 1.719423 0.000002 0.000000 0.003344 -0.005714 -0.893046
    35 1.099667 0.000002 0.000000 0.002756 -0.003183 -0.957860
    36 0.806021 -0.359837 -1.318334 0.949231 0.326611 -1.091916
    37 1.789782 0.000000 -0.000004 0.106363 -0.050180 0.037183
    38 1.206999 0.000003 0.000002 -0.153159 0.145673 1.469603
    39 -5.961409 1.835994 -19.284658 -0.066118 0.205762 0.041159
    40 -1.703070 -17.930235 -2.773492 -0.066148 0.205763 0.041126
    41 0.000000 7.169887 -1.514632 0.000000 0.000000 0.000000
    42 0.000000 6.250000 0.998666 0.000000 0.000000 0.000000
    43 0.000000 -2.750000 0.000000 0.000000 0.000000 0.000000
    44 0.000001 2.851563 0.000000 0.000000 0.000000 0.000000
    45 -5.391079 2.046937 -16.516067 0.021128 0.205762 0.041159
    46 -5.707495 1.933653 -18.040589 -0.066138 0.205762 0.041159
    47 -5.207450 2.117252 -15.620067 -0.066137 0.205761 0.041130
  time 7
    0 0.000000 -0.000006 0.000000 -1.570798 -1.391899 -3.141590
    1 -4.777344 -0.275635 -2.777344 -0.116402 -0.795395 -1.808110
    2 6.028141 0.000000 0.000000 -1.860405 -0.693824 -0.257790
    3 11.692554 0.000001 0.000002 0.000000 0.000000 -0.547832
    4 11.481674 0.000001 -0.000032 -0.360045 0.256625 -0.150083
    5 3.859709 -0.142404 -1.191975 -0.565362 -0.016227 -1.231274
    6 1.312555 -0.000002 0.000001 -0.207477 -0.194486 -1.096269
    7 0.729363 -0.000002 -0.000002 0.000000 0.000000 0.344871
    8 3.942335 0.046767 -0.431443 -0.516551 0.163047 -0.894541
    9 1.539097 0.000000 0.000000 0.000000 0.000000 -1.339126
    10 1.196326 -0.000002 -0.000001 0.000000 0.000000 0.190960
    11 3.883696 -0.046765 0.431443 -0.207427 0.207208 -0.559276
    12 1.719570 -0.000004 -0.000001 -0.005177 0.001885 -1.588937
    13 1.209171 -0.000002 0.000000 0.001378 0.002760 0.250155
    14 3.859865 -0.137947 1.332466 0.066677 0.246053 -0.320614
    15 1.719429 0.000002 -0.000001 -0.003655 0.001797 -1.479237
    16 1.099665 0.000000 0.000000 0.000708 0.002497 0.032696
    17 0.806053 -0.348925 1.321258 -1.118183 -0.378404 -0.802607
    18 1.789780 -0.000002 0.000002 0.326045 -0.156750 -0.115755
    19 1.207006 0.000000 0.000000 0.027862 -0.178198 0.887319
    20 1.350586 4.250000 -6.832031 3.127383 0.584352 1.718144
    21 6.028144 0.000000 0.000000 -0.007667 1.122942 -1.687655
    22 11.692554 0.000001 0.000003 0.000000 0.000024 -1.612040
    23 11.481697 0.000001 0.000002 -0.709256 -0.231782 1.539520
    24 3.859678 -0.132570 1.193109 0.553212 0.213895 -1.589752
    25 1.312557 -0.000002 0.000001 0.026594 0.073750 -0.432702
    26 0.729365 0.000002 -0.000002 0.000000 0.000000 -0.691678
    27 3.942305 0.050327 0.431044 0.381761 0.104593 -1.299553
    28 1.539099 -0.000002 0.000000 0.000000 0.000000 -0.713789
    29 1.196321 0.000008 0.000000 0.000000 0.000000 -0.946683
    30 3.883661 -0.050323 -0.431042 0.344215 -0.053301 -1.015922
    31 1.719578 0.000004 0.000000 0.004883 -0.006304 -1.025789
    32 1.209185 0.000002 0.000000 0.002497 -0.003696 -0.810634
    33 3.859838 -0.148937 -1.331282 0.157528 -0.087379 -0.929794
    34 1.719423 0.000002 0.000000 0.003344 -0.005714 -0.893046
    35 1.099667 0.000002 0.000000 0.002756 -0.003183 -0.957860
    36 0.806021 -0.359837 -1.318334 0.949231 0.326611 -1.091916
    37 1.789782 0.000000 -0.000004 0.106363 -0.050180 0.037205
    38 1.206999 0.000003 0.000002 -0.153159 0.145673 1.469603
    39 -5.328578 1.683645 -19.476070 -0.066795 0.168683 0.041159
    40 -1.679632 -18.094302 -2.832087 -0.066809 0.168669 0.041126
    41 0.000000 7.169887 -1.514632 0.000000 0.000000 0.000000
    42 0.000000 6.250000 0.998666 0.000000 0.000000 0.000000
    43 0.000000 -2.750000 0.000000 0.000000 0.000000 0.000000
    44 0.000001 2.851563 0.000000 0.000000 0.000000 0.000000
    45 -4.859813 1.894589 -16.687947 0.020479 0.168683 0.041159
    46 -5.117634 1.781304 -18.220282 -0.066787 0.168683 0.041159
    47 -4.711341 1.960997 -15.784135 -0.066802 0.168665 0.041130
  time 8
    0 0.000000 -0.000006 0.000000 -1.570798 -1.391899 -3.141590
    1 -4.777344 -0.275635 -2.777344 -0.116402 -0.795395 -1.808110
    2 6.028141 0.000000 0.000000 -1.857735 -0.707412 -0.259192
    3 11.692554 0.000001 0.000002 0.000000 0.000000 -0.518826
    4 11.481674 0.000001 -0.000032 -0.354331 0.250980 -0.163588
    5 3.859709 -0.142404 -1.191975 -0.565362 -0.016227 -1.231274
    6 1.312555 -0.000002 0.000001 -0.207477 -0.194486 -1.096269
    7 0.729363 -0.000002 -0.000002 0.000000 0.000000 0.344871
    8 3.942335 0.046767 -0.431443 -0.516551 0.163047 -0.894541
    9 1.539097 0.000000 0.000000 0.000000 0.000000 -1.339093
    10 1.196326 -0.000002 -0.000001 0.000000 0.000000 0.190960
    11 3.883696 -0.046765 0.431443 -0.207427 0.207208 -0.559276
    12 1.719570 -0.000004 -0.000001 -0.005177 0.001885 -1.588937
    13 1.209171 -0.000002 0.000000 0.001378 0.002760 0.250155
    14 3.859865 -0.137947 1.332466 0.066677 0.246053 -0.320614
    15 1.719429 0.000002 -0.000001 -0.003655 0.001797 -1.479203
    16 1.099665 0.000000 0.000000 0.000708 0.002497 0.032696
    17 0.806053 -0.348925 1.321258 -1.118183 -0.378404 -0.802607
    18 1.789780 -0.000002 0.000002 0.326045 -0.156750 -0.115755
    19 1.207006 0.000000 0.000000 0.027862 -0.178198 0.887319
    20 1.350586 4.250000 -6.832031 3.127383 0.584352 1.718144
    21 6.028144 0.000000 0.000000 0.013891 1.114670 -1.670311
    22 11.692554 0.000001 0.000003 0.000000 0.000024 -1.602910
    23 11.481697 0.000001 0.000002 -0.714691 -0.225223 1.520317
    24 3.859678 -0.132570 1.193109 0.553212 0.213895 -1.589752
    25 1.312557 -0.000002 0.000001 0.026594 0.073750 -0.432702
    26 0.729365 0.000002 -0.000002 0.000000 0.000000 -0.691678
    27 3.942305 0.050327 0.431044 0.381761 0.104593 -1.299553
    28 1.539099 -0.000002 0.000000 0.000000 0.000000 -0.713789
    29 1.196321 0.000008 0.000000 0.000000 0.000000 -0.946683
    30 3.883661 -0.050323 -0.431042 0.344228 -0.053301 -1.015922
    31 1.719578 0.000004 0.000000 0.004883 -0.006304 -1.025789
    32 1.209185 0.000002 0.000000 0.002497 -0.003696 -0.810634
    33 3.859838 -0.148937 -1.331282 0.157528 -0.087379 -0.929828
    34 1.719423 0.000002 0.000000 0.003344 -0.005714 -0.893046
    35 1.099667 0.000002 0.000000 0.002756 -0.003183 -0.957860
    36 0.806021 -0.359837 -1.318334 0.949231 0.326611 -1.091916
    37 1.789782 0.000000 -0.000004 0.106363 -0.050180 0.037205
    38 1.206999 0.000003 0.000002 -0.153159 0.145673 1.469603
    39 -5.398892 1.562548 -19.647951 -0.068527 0.165935 0.043349
    40 -1.749947 -18.184149 -2.964904 -0.068539 0.165919 0.043365
    41 0.000000 7.169887 -1.514632 0.000000 0.000000 0.000000
    42 0.000000 6.250000 0.998666 0.000000 0.000000 0.000000
    43 0.000000 -2.750000 0.000000 0.000000 0.000000 0.000000
    44 0.000001 2.851563 0.000000 0.000000 0.000000 0.000000
    45 -4.941847 1.773492 -16.855921 0.018740 0.165935 0.043349
    46 -5.191855 1.656301 -18.392162 -0.068526 0.165935 0.043349
    47 -4.793374 1.843806 -15.956015 -0.068529 0.165914 0.043307
  time 9
    0 0.000000 -0.000006 0.000000 -1.570798 -1.391899 -3.141590
    1 -4.777344 -0.275635 -2.777344 -0.116402 -0.795395 -1.808110
    2 6.028141 0.000000 0.000000 -1.852394 -0.714854 -0.265496
    3 11.692554 0.000001 0.000002 0.000000 0.000000 -0.511098
    4 11.481674 0.000001 -0.000032 -0.342499 0.244514 -0.158380
    5 3.859709 -0.142404 -1.191975 -0.565362 -0.016227 -1.231274
    6 1.312555 -0.000002 0.000001 -0.207477 -0.194486 -1.096269
    7 0.729363 -0.000002 -0.000002 0.000000 0.000000 0.344871
    8 3.942335 0.046767 -0.431443 -0.516551 0.163047 -0.894541
    9 1.539097 0.000000 0.000000 0.000000 0.000000 -1.339093
    10 1.196326 -0.000002 -0.000001 0.000000 0.000000 0.190960
    11 3.883696 -0.046765 0.431443 -0.207427 0.207208 -0.559276
    12 1.719570 -0.000004 -0.000001 -0.005177 0.001885 -1.588937
    13 1.209171 -0.000002 0.000000 0.001378 0.002760 0.250155
    14 3.859865 -0.137947 1.332466 0.066677 0.246053 -0.320614
    15 1.719429 0.000002 -0.000001 -0.003655 0.001797 -1.479203
    16 1.099665 0.000000 0.000000 0.000708 0.002497 0.032696
    17 0.806053 -0.348925 1.321258 -1.118183 -0.378404 -0.802607
    18 1.789780 -0.000002 0.000002 0.326045 -0.156750 -0.115755
    19 1.207006 0.000000 0.000000 0.027862 -0.178198 0.887319
    20 1.350586 4.250000 -6.832031 3.127383 0.584352 1.718144
    21 6.028144 0.000000 0.000000 0.064973 1.104446 -1.626798
    22 11.692554 0.000001 0.000003 0.000000 0.000024 -1.605744
    23 11.481697 0.000001 0.000002 -0.724986 -0.221293 1.498021
    24 3.859678 -0.132570 1.193109 0.553212 0.213895 -1.589752
    25 1.312557 -0.000002 0.000001 0.026594 0.073750 -0.432702
    26 0.729365 0.000002 -0.000002 0.000000 0.000000 -0.691678
    27 3.942305 0.050327 0.431044 0.381761 0.104593 -1.299553
    28 1.539099 -0.000002 0.000000 0.000000 0.000000 -0.713789
    29 1.196321 0.000008 0.000000 0.000000 0.000000 -0.946683
    30 3.883661 -0.050323 -0.431042 0.344215 -0.053301 -1.015922
    31 1.719578 0.000004 0.000000 0.004883 -0.006304 -1.025789
    32 1.209185 0.000002 0.000000 0.002497 -0.003696 -0.810634
    33 3.859838 -0.148937 -1.331282 0.157528 -0.087379 -0.929794
    34 1.719423 0.000002 0.000000 0.003344 -0.005714 -0.893046
    35 1.099667 0.000002 0.000000 0.002756 -0.003183 -0.957860
    36 0.806021 -0.359837 -1.318334 0.949231 0.326611 -1.091916
    37 1.789782 0.000000 -0.000004 0.106363 -0.050180 0.037205
    38 1.206999 0.000003 0.000002 -0.153159 0.145673 1.469603
    39 -5.562960 1.488327 -19.843269 -0.070862 0.159052 0.048824
    40 -1.914014 -18.199774 -3.093814 -0.070882 0.159055 0.048826
    41 0.000000 7.169887 -1.514632 0.000000 0.000000 0.000000
    42 0.000000 6.250000 0.998666 0.000000 0.000000 0.000000
    43 0.000000 -2.750000 0.000000 0.000000 0.000000 0.000000
    44 0.000001 2.851563 0.000000 0.000000 0.000000 0.000000
    45 -5.125446 1.710990 -17.051239 0.016386 0.159052 0.048824
    46 -5.367641 1.589892 -18.587481 -0.070880 0.159052 0.048824
    47 -4.984787 1.781304 -16.147427 -0.070885 0.159051 0.048817
  time 10
    0 0.000000 -0.000006 0.000000 -1.570798 -1.391899 -3.141590
    1 -4.777344 -0.275635 -2.777344 -0.116402 -0.795395 -1.808110
    2 6.028141 0.000000 0.000000 -1.851743 -0.728475 -0.266479
    3 11.692554 0.000001 0.000002 0.000000 0.000000 -0.494197
    4 11.481674 0.000001 -0.000032 -0.328920 0.240603 -0.153283
    5 3.859709 -0.142404 -1.191975 -0.565362 -0.016227 -1.231274
    6 1.312555 -0.000002 0.000001 -0.207477 -0.194486 -1.096269
    7 0.729363 -0.000002 -0.000002 0.000000 0.000000 0.344871
    8 3.942335 0.046767 -0.431443 -0.516551 0.163047 -0.894541
    9 1.539097 0.000000 0.000000 0.000000 0.000000 -1.339093
    10 1.196326 -0.000002 -0.000001 0.000000 0.000000 0.190960
    11 3.883696 -0.046765 0.431443 -0.207427 0.207208 -0.559276
    12 1.719570 -0.000004 -0.000001 -0.005177 0.001885 -1.588937
    13 1.209171 -0.000002 0.000000 0.001378 0.002760 0.250155
    14 3.859865 -0.137947 1.332466 0.066677 0.246053 -0.320614
    15 1.719429 0.000002 -0.000001 -0.003655 0.001797 -1.479237
    16 1.099665 0.000000 0.000000 0.000708 0.002497 0.032696
    17 0.806053 -0.348925 1.321258 -1.118183 -0.378404 -0.802607
    18 1.789780 -0.000002 0.000002 0.326045 -0.156750 -0.115755
    19 1.207006 0.000000 0.000000 0.027862 -0.178198 0.887319
    20 1.350586 4.250000 -6.832031 3.127383 0.584352 1.718144
    21 6.028144 0.000000 0.000000 0.117803 1.097428 -1.585617
    22 11.692554 0.000001 0.000003 0.000000 0.000024 -1.607790
    23 11.481697 0.000001 0.000002 -0.738259 -0.224171 1.474178
    24 3.859678 -0.132570 1.193109 0.553212 0.213895 -1.589752
    25 1.312557 -0.000002 0.000001 0.026594 0.073750 -0.432702
    26 0.729365 0.000002 -0.000002 0.000000 0.000000 -0.691678
    27 3.942305 0.050327 0.431044 0.381761 0.104593 -1.299553
    28 1.539099 -0.000002 0.000000 0.000000 0.000000 -0.713789
    29 1.196321 0.000008 0.000000 0.000000 0.000000 -0.946683
    30 3.883661 -0.050323 -0.431042 0.344215 -0.053301 -1.015922
    31 1.719578 0.000004 0.000000 0.004883 -0.006304 -1.025789
    32 1.209185 0.000002 0.000000 0.002497 -0.003696 -0.810634
    33 3.859838 -0.148937 -1.331282 0.157528 -0.087379 -0.929828
    34 1.719423 0.000002 0.000000 0.003344 -0.005714 -0.893046
    35 1.099667 0.000002 0.000000 0.002756 -0.003183 -0.957860
    36 0.806021 -0.359837 -1.318334 0.949231 0.326611 -1.091916
    37 1.789782 0.000000 -0.000004 0.106363 -0.050180 0.037205
    38 1.206999 0.000003 0.000002 -0.153159 0.145673 1.469603
    39 -5.758278 1.382855 -19.976086 -0.073422 0.150129 0.055942
    40 -2.113239 -18.242744 -3.152409 -0.073445 0.150134 0.055926
    41 0.000000 7.169887 -1.514632 0.000000 0.000000 0.000000
    42 0.000000 6.250000 0.998666 0.000000 0.000000 0.000000
    43 0.000000 -2.750000 0.000000 0.000000 0.000000 0.000000
    44 0.000001 2.851563 0.000000 0.000000 0.000000 0.000000
    45 -5.348109 1.613330 -17.180149 0.013828 0.150129 0.055942
    46 -5.574679 1.488327 -18.716391 -0.073438 0.150129 0.055942
    47 -5.215262 1.687551 -16.276337 -0.073457 0.150117 0.055961
  time 11
    0 0.000000 -0.000006 0.000000 -1.570798 -1.391899 -3.141590
    1 -4.777344 -0.275635 -2.777344 -0.116402 -0.795395 -1.808110
    2 6.028141 0.000000 0.000000 -1.847222 -0.739638 -0.271285
    3 11.692554 0.000001 0.000002 0.000000 0.000000 -0.476924
    4 11.481674 0.000001 -0.000032 -0.315408 0.234365 -0.151757
    5 3.859709 -0.142404 -1.191975 -0.565362 -0.016227 -1.231274
    6 1.312555 -0.000002 0.000001 -0.207477 -0.194486 -1.096269
    7 0.729363 -0.000002 -0.000002 0.000000 0.000000 0.344871
    8 3.942335 0.046767 -0.431443 -0.516551 0.163047 -0.894541
    9 1.539097 0.000000 0.000000 0.000000 0.000000 -1.339093
    10 1.196326 -0.000002 -0.000001 0.000000 0.000000 0.190979
    11 3.883696 -0.046765 0.431443 -0.207427 0.207208 -0.559276
    12 1.719570 -0.000004 -0.000001 -0.005177 0.001885 -1.588937
    13 1.209171 -0.000002 0.000000 0.001378 0.002760 0.250155
    14 3.859865 -0.137947 1.332466 0.066677 0.246053 -0.320614
    15 1.719429 0.000002 -0.000001 -0.003655 0.001797 -1.479203
    16 1.099665 0.000000 0.000000 0.000708 0.002497 0.032696
    17 0.806053 -0.348925 1.321258 -1.118183 -0.378404 -0.802607
    18 1.789780 -0.000002 0.000002 0.326045 -0.156750 -0.115755
    19 1.207006 0.000000 0.000000 0.027862 -0.178198 0.887319
    20 1.350586 4.250000 -6.832031 3.127383 0.584352 1.718144
    21 6.028144 0.000000 0.000000 0.165283 1.085485 -1.547835
    22 11.692554 0.000001 0.000003 0.000000 0.000024 -1.605271
    23 11.481697 0.000001 0.000002 -0.750018 -0.223368 1.446083
    24 3.859678 -0.132570 1.193109 0.553212 0.213895 -1.589752
    25 1.312557 -0.000002 0.000001 0.026594 0.073750 -0.432702
    26 0.729365 0.000002 -0.000002 0.000000 0.000000 -0.691678
    27 3.942305 0.050327 0.431044 0.381761 0.104593 -1.299553
    28 1.539099 -0.000002 0.000000 0.000000 0.000000 -0.713789
    29 1.196321 0.000008 0.000000 0.000000 0.000000 -0.946683
    30 3.883661 -0.050323 -0.431042 0.344215 -0.053301 -1.015922
    31 1.719578 0.000004 0.000000 0.004883 -0.006304 -1.025789
    32 1.209185 0.000002 0.000000 0.002497 -0.003696 -0.810634
    33 3.859838 -0.148937 -1.331282 0.157528 -0.087379 -0.929828
    34 1.719423 0.000002 0.000000 0.003344 -0.005714 -0.893046
    35 1.099667 0.000002 0.000000 0.002756 -0.003183 -0.957860
    36 0.806021 -0.359837 -1.318334 0.949231 0.326611 -1.091916
    37 1.789782 0.000000 -0.000004 0.106363 -0.050180 0.037205
    38 1.206999 0.000003 0.000002 -0.153159 0.145673 1.469603
    39 -5.918439 1.273476 -20.187030 -0.075794 0.141207 0.063059
    40 -2.281213 -18.293527 -3.296945 -0.075804 0.141189 0.063080
    41 0.000000 7.169887 -1.514632 0.000000 0.000000 0.000000
    42 0.000000 6.250000 0.998666 0.000000 0.000000 0.000000
    43 0.000000 -2.750000 0.000000 0.000000 0.000000 0.000000
    44 0.000001 2.851563 0.000000 0.000000 0.000000 0.000000
    45 -5.535615 1.515671 -17.387187 0.011475 0.141207 0.063059
    46 -5.746559 1.382855 -18.927335 -0.075791 0.141207 0.063059
    47 -5.410581 1.589892 -16.483375 -0.075796 0.141183 0.063036
  time 12
    0 0.000000 -0.000006 0.000000 -1.570798 -1.391899 -3.141590
    1 -4.777344 -0.275635 -2.777344 -0.116402 -0.795395 -1.808110
    2 6.028141 0.000000 0.000000 -1.831069 -0.740468 -0.288207
    3 11.692554 0.000001 0.000002 0.000000 0.000000 -0.466169
    4 11.481674 0.000001 -0.000032 -0.303980 0.221462 -0.157710
    5 3.859709 -0.142404 -1.191975 -0.565362 -0.016227 -1.231274
    6 1.312555 -0.000002 0.000001 -0.207477 -0.194486 -1.096269
    7 0.729363 -0.000002 -0.000002 0.000000 0.000000 0.344871
    8 3.942335 0.046767 -0.431443 -0.516551 0.163047 -0.894541
    9 1.539097 0.000000 0.000000 0.000000 0.000000 -1.339093
    10 1.196326 -0.000002 -0.000001 0.000000 0.000000 0.190960
    11 3.883696 -0.046765 0.431443 -0.207427 0.207208 -0.559276
    12 1.719570 -0.000004 -0.000001 -0.005177 0.001885 -1.588937
    13 1.209171 -0.000002 0.000000 0.001378 0.002760 0.250155
    14 3.859865 -0.137947 1.332466 0.066677 0.246053 -0.320614
    15 1.719429 0.000002 -0.000001 -0.003655 0.001797 -1.479203
    16 1.099665 0.000000 0.000000 0.000708 0.002497 0.032696
    17 0.806053 -0.348925 1.321258 -1.118183 -0.378404 -0.802607
    18 1.789780 -0.000002 0.000002 0.326045 -0.156750 -0.115755
    19 1.207006 0.000000 0.000000 0.027862 -0.178198 0.887319
    20 1.350586 4.250000 -6.832031 3.127383 0.584352 1.718144
    21 6.028144 0.000000 0.000000 0.198520 1.061040 -1.517204
    22 11.692554 0.000001 0.000003 0.000000 0.000024 -1.594646
    23 11.481697 0.000001 0.000002 -0.757334 -0.208479 1.411285
    24 3.859678 -0.132570 1.193109 0.553212 0.213895 -1.589752
    25 1.312557 -0.000002 0.000001 0.026594 0.073750 -0.432702
    26 0.729365 0.000002 -0.000002 0.000000 0.000000 -0.691678
    27 3.942305 0.050327 0.431044 0.381761 0.104593 -1.299553
    28 1.539099 -0.000002 0.000000 0.000000 0.000000 -0.713789
    29 1.196321 0.000008 0.000000 0.000000 0.000000 -0.946683
    30 3.883661 -0.050323 -0.431042 0.344215 -0.053301 -1.015922
    31 1.719578 0.000004 0.000000 0.004883 -0.006304 -1.025789
    32 1.209185 0.000002 0.000000 0.002497 -0.003696 -0.810634
    33 3.859838 -0.148937 -1.331282 0.157528 -0.087379 -0.929828
    34 1.719423 0.000002 0.000000 0.003344 -0.005714 -0.893046
    35 1.099667 0.000002 0.000000 0.002756 -0.003183 -0.957860
    36 0.806021 -0.359837 -1.318334 0.949231 0.326611 -1.091916
    37 1.789782 0.000000 -0.000004 0.106363 -0.050180 0.037205
    38 1.206999 0.000003 0.000002 -0.153159 0.145673 1.469603
    39 -5.980941 1.191443 -20.605011 -0.077526 0.134323 0.068534
    40 -2.347621 -18.336497 -3.668050 -0.077519 0.134325 0.068542
    41 0.000000 7.169887 -1.514632 0.000000 0.000000 0.000000
    42 0.000000 6.250000 0.998666 0.000000 0.000000 0.000000
    43 0.000000 -2.750000 0.000000 0.000000 0.000000 0.000000
    44 0.000001 2.851563 0.000000 0.000000 0.000000 0.000000
    45 -5.617649 1.433637 -17.805168 0.009735 0.134323 0.068534
    46 -5.820780 1.300821 -19.345317 -0.077531 0.134323 0.068534
    47 -5.500427 1.515671 -16.901356 -0.077522 0.134320 0.068546
  time 13
    0 0.000000 -0.000006 0.000000 -1.570798 -1.391899 -3.141590
    1 -4.777344 -0.275635 -2.777344 -0.116402 -0.795395 -1.808110
    2 6.028141 0.000000 0.000000 -1.804208 -0.784222 -0.319367
    3 11.692554 0.000001 0.000002 0.000000 0.000000 -0.409415
    4 11.481674 0.000001 -0.000032 -0.286502 0.191549 -0.172033
    5 3.859709 -0.142404 -1.191975 -0.565362 -0.016227 -1.231274
    6 1.312555 -0.000002 0.000001 -0.207477 -0.194486 -1.096269
    7 0.729363 -0.000002 -0.000002 0.000000 0.000000 0.344871
    8 3.942335 0.046767 -0.431443 -0.516551 0.163047 -0.894541
    9 1.539097 0.000000 0.000000 0.000000 0.000000 -1.339093
    10 1.196326 -0.000002 -0.000001 0.000000 0.000000 0.190960
    11 3.883696 -0.046765 0.431443 -0.207427 0.207208 -0.559276
    12 1.719570 -0.000004 -0.000001 -0.005177 0.001885 -1.588937
    13 1.209171 -0.000002 0.000000 0.001378 0.002760 0.250155
    14 3.859865 -0.137947 1.332466 0.066677 0.246053 -0.320614
    15 1.719429 0.000002 -0.000001 -0.003655 0.001797 -1.479203
    16 1.099665 0.000000 0.000000 0.000708 0.002497 0.032696
    17 0.806053 -0.348925 1.321258 -1.118183 -0.378404 -0.802607
    18 1.789780 -0.000002 0.000002 0.326045 -0.156750 -0.115755
    19 1.207006 0.000000 0.000000 0.027862 -0.178198 0.887319
    20 1.350586 4.250000 -6.832031 3.127383 0.584352 1.718144
    21 6.028144 0.000000 0.000000 0.309199 1.022561 -1.428250
    22 11.692554 0.000001 0.000003 0.000000 0.000024 -1.598503
    23 11.481697 0.000001 0.000002 -0.795535 -0.192233 1.366886
    24 3.859678 -0.132570 1.193109 0.553212 0.213895 -1.589752
    25 1.312557 -0.000002 0.000001 0.026594 0.073750 -0.432702
    26 0.729365 0.000002 -0.000002 0.000000 0.000000 -0.691678
    27 3.942305 0.050327 0.431044 0.381761 0.104593 -1.299553
    28 1.539099 -0.000002 0.000000 0.000000 0.000000 -0.713789
    29 1.196321 0.000008 0.000000 0.000000 0.000000 -0.946683
    30 3.883661 -0.050323 -0.431042 0.344215 -0.053301 -1.015922
    31 1.719578 0.000004 0.000000 0.004883 -0.006304 -1.025789
    32 1.209185 0.000002 0.000000 0.002497 -0.003696 -0.810634
    33 3.859838 -0.148937 -1.331282 0.157528 -0.087379 -0.929794
    34 1.719423 0.000002 0.000000 0.003332 -0.005714 -0.893046
    35 1.099667 0.000002 0.000000 0.002756 -0.003183 -0.957860
    36 0.806021 -0.359837 -1.318334 0.949231 0.326611 -1.091916
    37 1.789782 0.000000 -0.000004 0.106363 -0.050180 0.037205
    38 1.206999 0.000003 0.000002 -0.153159 0.145673 1.469569
    39 -6.602054 1.156285 -21.132371 -0.078166 0.131576 0.070725
    40 -2.972640 -18.356029 -4.171972 -0.078195 0.131575 0.070726
    41 0.000000 7.169887 -1.514632 0.000000 0.000000 0.000000
    42 0.000000 6.250000 0.998666 0.000000 0.000000 0.000000
    43 0.000000 -2.750000 0.000000 0.000000 0.000000 0.000000
    44 0.000001 2.851563 0.000000 0.000000 0.000000 0.000000
    45 -6.246574 1.402387 -18.328622 0.009087 0.131576 0.070725
    46 -6.441893 1.265664 -19.872676 -0.078179 0.131576 0.070725
    47 -6.133259 1.484420 -17.424810 -0.078188 0.131569 0.070723
  time 14
    0 0.000000 -0.000006 0.000000 -1.570798 -1.391899 -3.141590
    1 -4.777344 -0.275635 -2.777344 -0.116402 -0.795395 -1.808110
    2 6.028141 0.000000 0.000000 -1.693076 -0.702196 -0.458017
    3 11.692554 0.000001 0.000002 0.000000 0.000000 -0.709527
    4 11.481674 0.000001 -0.000032 -0.360448 0.032152 -0.036873
    5 3.859709 -0.142404 -1.191975 -0.565362 -0.016227 -1.231274
    6 1.312555 -0.000002 0.000001 -0.207477 -0.194486 -1.096269
    7 0.729363 -0.000002 -0.000002 0.000000 0.000000 0.344871
    8 3.942335 0.046767 -0.431443 -0.516551 0.163047 -0.894541
    9 1.539097 0.000000 0.000000 0.000000 0.000000 -1.339093
    10 1.196326 -0.000002 -0.000001 0.000000 0.000000 0.190960
    11 3.883696 -0.046765 0.431443 -0.207427 0.207208 -0.559276
    12 1.719570 -0.000004 -0.000001 -0.005177 0.001885 -1.588937
    13 1.209171 -0.000002 0.000000 0.001378 0.002760 0.250155
    14 3.859865 -0.137947 1.332466 0.066677 0.246053 -0.320614
    15 1.719429 0.000002 -0.000001 -0.003655 0.001797 -1.479203
    16 1.099665 0.000000 0.000000 0.000708 0.002497 0.032696
    17 0.806053 -0.348925 1.321258 -1.118183 -0.378404 -0.802607
    18 1.789780 -0.000002 0.000002 0.326045 -0.156750 -0.115755
    19 1.207006 0.000000 0.000000 0.027862 -0.178198 0.887319
    20 1.350586 4.250000 -6.832031 3.127383 0.584352 1.718144
    21 6.028144 0.000000 0.000000 0.548677 0.904427 -1.188675
    22 11.692554 0.000001 0.000003 0.000000 0.000024 -1.790149
    23 11.481697 0.000001 0.000002 -0.948130 -0.050674 1.450593
    24 3.859678 -0.132570 1.193109 0.553212 0.213895 -1.589752
    25 1.312557 -0.000002 0.000001 0.026594 0.073750 -0.432702
    26 0.729365 0.000002 -0.000002 0.000000 0.000000 -0.691678
    27 3.942305 0.050327 0.431044 0.381761 0.104593 -1.299553
    28 1.539099 -0.000002 0.000000 0.000000 0.000000 -0.713789
    29 1.196321 0.000008 0.000000 0.000000 0.000000 -0.946683
    30 3.883661 -0.050323 -0.431042 0.344215 -0.053301 -1.015922
    31 1.719578 0.000004 0.000000 0.004883 -0.006304 -1.025789
    32 1.209185 0.000002 0.000000 0.002497 -0.003696 -0.810634
    33 3.859838 -0.148937 -1.331282 0.157528 -0.087379 -0.929794
    34 1.719423 0.000002 0.000000 0.003344 -0.005714 -0.893046
    35 1.099667 0.000002 0.000000 0.002756 -0.003183 -0.957860
    36 0.806021 -0.359837 -1.318334 0.949231 0.326611 -1.091916
    37 1.789782 0.000000 -0.000004 0.106363 -0.050180 0.037183
    38 1.206999 0.000003 0.000002 -0.153159 0.145673 1.469603
    39 -10.020127 2.496170 -21.417536 -0.091495 0.279977 0.045383
    40 -4.339869 -16.758324 -4.726676 -0.091500 0.279975 0.045385
    41 0.000000 7.169887 -1.514632 0.000000 0.000000 0.000000
    42 0.000000 6.250000 0.998666 0.000000 0.000000 0.000000
    43 0.000000 -2.750000 0.000000 0.000000 0.000000 0.000000
    44 0.000001 2.851563 0.000000 0.000000 0.000000 0.000000
    45 -9.250572 2.789148 -18.703633 -0.004216 0.279977 0.045383
    46 -9.672460 2.628986 -20.196905 -0.091482 0.279977 0.045383
    47 -9.004440 2.886807 -17.827166 -0.091498 0.279954 0.045416
  time 15
    0 0.000000 -0.000006 0.000000 -1.570798 -1.391899 -3.141590
    1 -4.777344 -0.275635 -2.777344 -0.116402 -0.795395 -1.808110
    2 6.028141 0.000000 0.000000 -1.528848 -0.588874 -0.627646
    3 11.692554 0.000001 0.000002 0.000000 0.000000 -1.131992
    4 11.481674 0.000001 -0.000032 -0.498526 -0.249608 0.149367
    5 3.859709 -0.142404 -1.191975 -0.565362 -0.016227 -1.231274
    6 1.312555 -0.000002 0.000001 -0.207477 -0.194486 -1.096269
    7 0.729363 -0.000002 -0.000002 0.000000 0.000000 0.344871
    8 3.942335 0.046767 -0.431443 -0.516551 0.163047 -0.894541
    9 1.539097 0.000000 0.000000 0.000000 0.000000 -1.339093
    10 1.196326 -0.000002 -0.000001 0.000000 0.000000 0.190979
    11 3.883696 -0.046765 0.431443 -0.207427 0.207208 -0.559276
    12 1.719570 -0.000004 -0.000001 -0.005177 0.001885 -1.588937
    13 1.209171 -0.000002 0.000000 0.001378 0.002760 0.250155
    14 3.859865 -0.137947 1.332466 0.066677 0.246053 -0.320614
    15 1.719429 0.000002 -0.000001 -0.003655 0.001797 -1.479237
    16 1.099665 0.000000 0.000000 0.000708 0.002497 0.032696
    17 0.806053 -0.348925 1.321258 -1.118183 -0.378404 -0.802607
    18 1.789780 -0.000002 0.000002 0.326045 -0.156750 -0.115755
    19 1.207006 0.000000 0.000000 0.027862 -0.178198 0.887319
    20 1.350586 4.250000 -6.832031 3.127383 0.584352 1.718144
    21 6.028144 0.000000 0.000000 0.705309 0.657796 -0.968168
    22 11.692554 0.000001 0.000003 0.000000 0.000024 -2.142984
    23 11.481697 0.000001 0.000002 -1.153035 0.251238 1.617750
    24 3.859678 -0.132570 1.193109 0.553212 0.213895 -1.589752
    25 1.312557 -0.000002 0.000001 0.026594 0.073750 -0.432702
    26 0.729365 0.000002 -0.000002 0.000000 0.000000 -0.691678
    27 3.942305 0.050327 0.431044 0.381761 0.104593 -1.299553
    28 1.539099 -0.000002 0.000000 0.000000 0.000000 -0.713789
    29 1.196321 0.000008 0.000000 0.000000 0.000000 -0.946683
    30 3.883661 -0.050323 -0.431042 0.344215 -0.053301 -1.015922
    31 1.719578 0.000004 0.000000 0.004883 -0.006304 -1.025789
    32 1.209185 0.000002 0.000000 0.002497 -0.003696 -0.810634
    33 3.859838 -0.148937 -1.331282 0.157528 -0.087379 -0.929794
    34 1.719423 0.000002 0.000000 0.003344 -0.005714 -0.893046
    35 1.099667 0.000002 0.000000 0.002756 -0.003183 -0.957860
    36 0.806021 -0.359837 -1.318334 0.949231 0.326611 -1.091916
    37 1.789782 0.000000 -0.000004 0.106363 -0.050180 0.037183
    38 1.206999 0.000003 0.000002 -0.153159 0.145673 1.469603
    39 -14.860118 6.023621 -20.288595 -0.109907 0.555535 -0.010307
    40 -5.711005 -13.238685 -5.230598 -0.109917 0.555536 -0.010320
    41 0.000000 7.169887 -1.514632 0.000000 0.000000 0.000000
    42 0.000000 6.250000 0.998666 0.000000 0.000000 0.000000
    43 0.000000 -2.750000 0.000000 0.000000 0.000000 0.000000
    44 0.000001 2.851563 0.000000 0.000000 0.000000 0.000000
    45 -13.371792 6.320505 -17.895015 -0.022635 0.555535 -0.010307
    46 -14.192129 6.156438 -19.212500 -0.109901 0.555535 -0.010307
    47 -12.891278 6.414258 -17.120113 -0.109916 0.555549 -0.010302
  time 16
    0 0.000000 -0.000006 0.000000 -1.570798 -1.391899 -3.141590
    1 -4.777344 -0.275635 -2.777344 -0.116402 -0.795395 -1.808110
    2 6.028141 0.000000 0.000000 -1.375418 -0.518210 -0.743945
    3 11.692554 0.000001 0.000002 0.000000 0.000000 -1.436200
    4 11.481674 0.000001 -0.000032 -0.564540 -0.436134 0.312467
    5 3.859709 -0.142404 -1.191975 -0.565362 -0.016227 -1.231274
    6 1.312555 -0.000002 0.000001 -0.207477 -0.194486 -1.096269
    7 0.729363 -0.000002 -0.000002 0.000000 0.000000 0.344871
    8 3.942335 0.046767 -0.431443 -0.516551 0.163047 -0.894541
    9 1.539097 0.000000 0.000000 0.000000 0.000000 -1.339093
    10 1.196326 -0.000002 -0.000001 0.000000 0.000000 0.190960
    11 3.883696 -0.046765 0.431443 -0.207427 0.207208 -0.559276
    12 1.719570 -0.000004 -0.000001 -0.005177 0.001885 -1.588937
    13 1.209171 -0.000002 0.000000 0.001378 0.002760 0.250155
    14 3.859865 -0.137947 1.332466 0.066677 0.246053 -0.320614
    15 1.719429 0.000002 -0.000001 -0.003655 0.001797 -1.479237
    16 1.099665 0.000000 0.000000 0.000708 0.002497 0.032696
    17 0.806053 -0.348925 1.321258 -1.118183 -0.378404 -0.802607
    18 1.789780 -0.000002 0.000002 0.326045 -0.156750 -0.115755
    19 1.207006 0.000000 0.000000 0.027862 -0.178198 0.887319
    20 1.350586 4.250000 -6.832031 3.127383 0.584352 1.718144
    21 6.028144 0.000000 0.000000 0.632505 0.379006 -0.882309
    22 11.692554 0.000001 0.000003 0.000000 0.000012 -2.433641
    23 11.481697 0.000001 0.000002 -1.202367 0.575677 1.757263
    24 3.859678 -0.132570 1.193109 0.553212 0.213895 -1.589752
    25 1.312557 -0.000002 0.000001 0.026594 0.073750 -0.432702
    26 0.729365 0.000002 -0.000002 0.000000 0.000000 -0.691678
    27 3.942305 0.050327 0.431044 0.381761 0.104593 -1.299553
    28 1.539099 -0.000002 0.000000 0.000000 0.000000 -0.713789
    29 1.196321 0.000008 0.000000 0.000000 0.000000 -0.946683
    30 3.883661 -0.050323 -0.431042 0.344215 -0.053301 -1.015922
    31 1.719578 0.000004 0.000000 0.004883 -0.006304 -1.025789
    32 1.209185 0.000002 0.000000 0.002497 -0.003696 -0.810634
    33 3.859838 -0.148937 -1.331282 0.157528 -0.087379 -0.929828
    34 1.719423 0.000002 0.000000 0.003344 -0.005714 -0.893046
    35 1.099667 0.000002 0.000000 0.002756 -0.003183 -0.957860
    36 0.806021 -0.359837 -1.318334 0.949231 0.326611 -1.091916
    37 1.789782 0.000000 -0.000004 0.106363 -0.050180 0.037205
    38 1.206999 0.000003 0.000002 -0.153159 0.145673 1.469569
    39 -16.395321 10.308908 -18.983868 -0.101172 0.703908 -0.065997
    40 -6.332118 -9.719047 -5.601703 -0.101172 0.703913 -0.066026
    41 0.000000 7.169887 -1.514632 0.000000 0.000000 0.000000
    42 0.000000 6.250000 0.998666 0.000000 0.000000 0.000000
    43 0.000000 -2.750000 0.000000 0.000000 0.000000 0.000000
    44 0.000001 2.851563 0.000000 0.000000 0.000000 0.000000
    45 -14.555422 10.472976 -16.836389 -0.013903 0.703908 -0.066075
    46 -15.567171 10.383129 -18.017151 -0.101169 0.703908 -0.066075
    47 -13.961623 10.527665 -16.139614 -0.101175 0.703904 -0.066019
  time 17
    0 0.000000 -0.000006 0.000000 -1.570798 -1.391899 -3.141590
    1 -4.777344 -0.275635 -2.777344 -0.116402 -0.795395 -1.808110
    2 6.028141 0.000000 0.000000 -1.308056 -0.473692 -0.781816
    3 11.692554 0.000001 0.000002 0.000000 0.000000 -1.576432
    4 11.481674 0.000001 -0.000032 -0.541012 -0.381617 0.415223
    5 3.859709 -0.142404 -1.191975 -0.565362 -0.016227 -1.231274
    6 1.312555 -0.000002 0.000001 -0.207477 -0.194486 -1.096269
    7 0.729363 -0.000002 -0.000002 0.000000 0.000000 0.344871
    8 3.942335 0.046767 -0.431443 -0.516551 0.163047 -0.894541
    9 1.539097 0.000000 0.000000 0.000000 0.000000 -1.339093
    10 1.196326 -0.000002 -0.000001 0.000000 0.000000 0.190979
    11 3.883696 -0.046765 0.431443 -0.207427 0.207208 -0.559276
    12 1.719570 -0.000004 -0.000001 -0.005177 0.001885 -1.588937
    13 1.209171 -0.000002 0.000000 0.001378 0.002760 0.250155
    14 3.859865 -0.137947 1.332466 0.066677 0.246053 -0.320614
    15 1.719429 0.000002 -0.000001 -0.003655 0.001797 -1.479203
    16 1.099665 0.000000 0.000000 0.000708 0.002497 0.032696
    17 0.806053 -0.348925 1.321258 -1.118183 -0.378404 -0.802607
    18 1.789780 -0.000002 0.000002 0.326045 -0.156750 -0.115755
    19 1.207006 0.000000 0.000000 0.027862 -0.178198 0.887319
    20 1.350586 4.250000 -6.832031 3.127383 0.584352 1.718144
    21 6.028144 0.000000 0.000000 0.423262 0.388766 -0.877947
    22 11.692554 0.000001 0.000003 0.000000 0.000012 -2.541546
    23 11.481697 0.000001 0.000002 -0.870003 0.610853 2.064061
    24 3.859678 -0.132570 1.193109 0.553212 0.213895 -1.589752
    25 1.312557 -0.000002 0.000001 0.026594 0.073750 -0.432702
    26 0.729365 0.000002 -0.000002 0.000000 0.000000 -0.691678
    27 3.942305 0.050327 0.431044 0.381761 0.104593 -1.299553
    28 1.539099 -0.000002 0.000000 0.000000 0.000000 -0.713789
    29 1.196321 0.000008 0.000000 0.000000 0.000000 -0.946683
    30 3.883661 -0.050323 -0.431042 0.344215 -0.053301 -1.015922
    31 1.719578 0.000004 0.000000 0.004883 -0.006304 -1.025789
    32 1.209185 0.000002 0.000000 0.002497 -0.003696 -0.810634
    33 3.859838 -0.148937 -1.331282 0.157528 -0.087379 -0.929794
    34 1.719423 0.000002 0.000000 0.003344 -0.005714 -0.893046
    35 1.099667 0.000002 0.000000 0.002756 -0.003183 -0.957860
    36 0.806021 -0.359837 -1.318334 0.949231 0.326611 -1.091916
    37 1.789782 0.000000 -0.000004 0.106363 -0.050180 0.037205
    38 1.206999 0.000003 0.000002 -0.153159 0.145673 1.469569
    39 -13.860088 13.137120 -18.878396 -0.032645 0.624595 -0.091339
    40 -6.300867 -8.121342 -5.746239 -0.032649 0.624594 -0.091367
    41 0.000000 7.169887 -1.514632 0.000000 0.000000 0.000000
    42 0.000000 6.250000 0.998666 0.000000 0.000000 0.000000
    43 0.000000 -2.750000 0.000000 0.000000 0.000000 0.000000
    44 0.000001 2.851563 0.000000 0.000000 0.000000 0.000000
    45 -12.199881 13.078524 -16.582475 0.054623 0.624595 -0.091339
    46 -13.113971 13.109775 -17.845271 -0.032643 0.624595 -0.091339
    47 -11.664678 13.058992 -15.838824 -0.032646 0.624580 -0.091327
  time 18
    0 0.000000 -0.000006 0.000000 -1.570798 -1.391899 -3.141590
    1 -4.777344 -0.275635 -2.777344 -0.116402 -0.795395 -1.808110
    2 6.028141 0.000000 0.000000 -1.331948 -0.455386 -0.764618
    3 11.692554 0.000001 0.000002 0.000000 0.000000 -1.585976
    4 11.481674 0.000001 -0.000032 -0.482258 -0.237694 0.457151
    5 3.859709 -0.142404 -1.191975 -0.565362 -0.016227 -1.231274
    6 1.312555 -0.000002 0.000001 -0.207477 -0.194486 -1.096289
    7 0.729363 -0.000002 -0.000002 0.000000 0.000000 0.344871
    8 3.942335 0.046767 -0.431443 -0.516551 0.163047 -0.894541
    9 1.539097 0.000000 0.000000 0.000000 0.000000 -1.339093
    10 1.196326 -0.000002 -0.000001 0.000000 0.000000 0.190960
    11 3.883696 -0.046765 0.431443 -0.207427 0.207208 -0.559276
    12 1.719570 -0.000004 -0.000001 -0.005177 0.001885 -1.588937
    13 1.209171 -0.000002 0.000000 0.001378 0.002760 0.250155
    14 3.859865 -0.137947 1.332466 0.066677 0.246053 -0.320614
    15 1.719429 0.000002 -0.000001 -0.003655 0.001797 -1.479203
    16 1.099665 0.000000 0.000000 0.000708 0.002497 0.032696
    17 0.806053 -0.348925 1.321258 -1.118183 -0.378404 -0.802607
    18 1.789780 -0.000002 0.000002 0.326045 -0.156750 -0.115755
    19 1.207006 0.000000 0.000000 0.027862 -0.178198 0.887319
    20 1.350586 4.250000 -6.832031 3.127383 0.584352 1.718144
    21 6.028144 0.000000 0.000000 0.392754 0.572472 -0.891742
    22 11.692554 0.000001 0.000003 0.000000 0.000012 -2.535328
    23 11.481697 0.000001 0.000002 -0.687882 0.353083 2.155695
    24 3.859678 -0.132570 1.193109 0.553212 0.213895 -1.589752
    25 1.312557 -0.000002 0.000001 0.026594 0.073750 -0.432702
    26 0.729365 0.000002 -0.000002 0.000000 0.000000 -0.691678
    27 3.942305 0.050327 0.431044 0.381761 0.104593 -1.299553
    28 1.539099 -0.000002 0.000000 0.000000 0.000000 -0.713789
    29 1.196321 0.000008 0.000000 0.000000 0.000000 -0.946683
    30 3.883661 -0.050323 -0.431042 0.344215 -0.053301 -1.015922
    31 1.719578 0.000004 0.000000 0.004883 -0.006304 -1.025789
    32 1.209185 0.000002 0.000000 0.002497 -0.003696 -0.810634
    33 3.859838 -0.148937 -1.331282 0.157528 -0.087379 -0.929794
    34 1.719423 0.000002 0.000000 0.003332 -0.005714 -0.893046
    35 1.099667 0.000002 0.000000 0.002756 -0.003183 -0.957860
    36 0.806021 -0.359837 -1.318334 0.949231 0.326611 -1.091916
    37 1.789782 0.000000 -0.000004 0.106363 -0.050180 0.037183
    38 1.206999 0.000003 0.000002 -0.153159 0.145673 1.469603
    39 -11.266259 13.437910 -19.124497 0.019316 0.477241 -0.087194
    40 -6.207114 -8.375256 -5.707175 0.019313 0.477257 -0.087162
    41 0.000000 7.169887 -1.514632 0.000000 0.000000 0.000000
    42 0.000000 6.250000 0.998666 0.000000 0.000000 0.000000
    43 0.000000 -2.750000 0.000000 0.000000 0.000000 0.000000
    44 0.000001 2.851563 0.000000 0.000000 0.000000 0.000000
    45 -9.973251 13.269936 -16.605913 0.106572 0.477241 -0.087194
    46 -10.684210 13.363689 -17.989806 0.019306 0.477241 -0.087194
    47 -9.555238 13.215247 -15.791947 0.019300 0.477245 -0.087177
  time 19
    0 0.000000 -0.000006 0.000000 -1.570798 -1.391899 -3.141590
    1 -4.777344 -0.275635 -2.777344 -0.116402 -0.795395 -1.808110
    2 6.028141 0.000000 0.000000 -1.378974 -0.453293 -0.733339
    3 11.692554 0.000001 0.000002 0.000000 0.000000 -1.556971
    4 11.481674 0.000001 -0.000032 -0.438159 -0.156307 0.456742
    5 3.859709 -0.142404 -1.191975 -0.565362 -0.016227 -1.231274
    6 1.312555 -0.000002 0.000001 -0.207477 -0.194486 -1.096269
    7 0.729363 -0.000002 -0.000002 0.000000 0.000000 0.344871
    8 3.942335 0.046767 -0.431443 -0.516551 0.163047 -0.894541
    9 1.539097 0.000000 0.000000 0.000000 0.000000 -1.339093
    10 1.196326 -0.000002 -0.000001 0.000000 0.000000 0.190960
    11 3.883696 -0.046765 0.431443 -0.207427 0.207208 -0.559276
    12 1.719570 -0.000004 -0.000001 -0.005177 0.001885 -1.588937
    13 1.209171 -0.000002 0.000000 0.001378 0.002760 0.250155
    14 3.859865 -0.137947 1.332466 0.066677 0.246053 -0.320614
    15 1.719429 0.000002 -0.000001 -0.003655 0.001797 -1.479203
    16 1.099665 0.000000 0.000000 0.000708 0.002497 0.032696
    17 0.806053 -0.348925 1.321258 -1.118183 -0.378404 -0.802607
    18 1.789780 -0.000002 0.000002 0.326045 -0.156750 -0.115755
    19 1.207006 0.000000 0.000000 0.027862 -0.178198 0.887319
    20 1.350586 4.250000 -6.832031 3.127383 0.584352 1.718144
    21 6.028144 0.000000 0.000000 0.453006 0.604864 -0.900972
    22 11.692554 0.000001 0.000003 0.000000 0.000012 -2.494165
    23 11.481697 0.000001 0.000002 -0.711294 0.256718 2.068572
    24 3.859678 -0.132570 1.193109 0.553212 0.213895 -1.589752
    25 1.312557 -0.000002 0.000001 0.026594 0.073750 -0.432702
    26 0.729365 0.000002 -0.000002 0.000000 0.000000 -0.691678
    27 3.942305 0.050327 0.431044 0.381761 0.104593 -1.299553
    28 1.539099 -0.000002 0.000000 0.000000 0.000000 -0.713789
    29 1.196321 0.000008 0.000000 0.000000 0.000000 -0.946683
    30 3.883661 -0.050323 -0.431042 0.344215 -0.053301 -1.015922
    31 1.719578 0.000004 0.000000 0.004883 -0.006304 -1.025789
    32 1.209185 0.000002 0.000000 0.002497 -0.003696 -0.810634
    33 3.859838 -0.148937 -1.331282 0.157528 -0.087379 -0.929828
    34 1.719423 0.000002 0.000000 0.003344 -0.005714 -0.893046
    35 1.099667 0.000002 0.000000 0.002756 -0.003183 -0.957860
    36 0.806021 -0.359837 -1.318334 0.949231 0.326611 -1.091916
    37 1.789782 0.000000 -0.000004 0.106363 -0.050180 0.037205
    38 1.206999 0.000003 0.000002 -0.153159 0.145673 1.469569
    39 -10.285760 12.633198 -19.511228 0.019918 0.397899 -0.076165
    40 -6.074297 -9.051057 -5.597797 0.019926 0.397914 -0.076130
    41 0.000000 7.169887 -1.514632 0.000000 0.000000 0.000000
    42 0.000000 6.250000 0.998666 0.000000 0.000000 0.000000
    43 0.000000 -2.750000 0.000000 0.000000 0.000000 0.000000
    44 0.000001 2.851563 0.000000 0.000000 0.000000 0.000000
    45 -9.195883 12.492569 -16.898891 0.107186 0.397899 -0.076165
    46 -9.793558 12.570696 -18.337473 0.019920 0.397899 -0.076165
    47 -8.844279 12.445692 -16.053674 0.019929 0.397921 -0.076156
  time 20
    0 0.000000 -0.000006 0.000000 -1.570798 -1.391899 -3.141590
    1 -4.777344 -0.275635 -2.777344 -0.116402 -0.795395 -1.808110
    2 6.028141 0.000000 0.000000 -1.419149 -0.468276 -0.708303
    3 11.692554 0.000001 0.000002 0.000000 0.000000 -1.483642
    4 11.481674 0.000001 -0.000032 -0.448646 -0.128873 0.407336
    5 3.859709 -0.142404 -1.191975 -0.565362 -0.016227 -1.231274
    6 1.312555 -0.000002 0.000001 -0.207477 -0.194486 -1.096269
    7 0.729363 -0.000002 -0.000002 0.000000 0.000000 0.344871
    8 3.942335 0.046767 -0.431443 -0.516551 0.163047 -0.894541
    9 1.539097 0.000000 0.000000 0.000000 0.000000 -1.339093
    10 1.196326 -0.000002 -0.000001 0.000000 0.000000 0.190960
    11 3.883696 -0.046765 0.431443 -0.207427 0.207208 -0.559276
    12 1.719570 -0.000004 -0.000001 -0.005177 0.001885 -1.588937
    13 1.209171 -0.000002 0.000000 0.001378 0.002760 0.250155
    14 3.859865 -0.137947 1.332466 0.066677 0.246053 -0.320614
    15 1.719429 0.000002 -0.000001 -0.003655 0.001797 -1.479203
    16 1.099665 0.000000 0.000000 0.000708 0.002497 0.032696
    17 0.806053 -0.348925 1.321258 -1.118183 -0.378404 -0.802607
    18 1.789780 -0.000002 0.000002 0.326045 -0.156750 -0.115755
    19 1.207006 0.000000 0.000000 0.027862 -0.178198 0.887319
    20 1.350586 4.250000 -6.832031 3.127383 0.584352 1.718144
    21 6.028144 0.000000 0.000000 0.509983 0.682520 -0.921765
    22 11.692554 0.000001 0.000003 0.000000 0.000012 -2.430965
    23 11.481697 0.000001 0.000002 -0.765695 0.169900 2.038930
    24 3.859678 -0.132570 1.193109 0.553212 0.213895 -1.589752
    25 1.312557 -0.000002 0.000001 0.026594 0.073750 -0.432702
    26 0.729365 0.000002 -0.000002 0.000000 0.000000 -0.691678
    27 3.942305 0.050327 0.431044 0.381761 0.104593 -1.299553
    28 1.539099 -0.000002 0.000000 0.000000 0.000000 -0.713789
    29 1.196321 0.000008 0.000000 0.000000 0.000000 -0.946683
    30 3.883661 -0.050323 -0.431042 0.344215 -0.053301 -1.015922
    31 1.719578 0.000004 0.000000 0.004883 -0.006304 -1.025789
    32 1.209185 0.000002 0.000000 0.002497 -0.003696 -0.810634
    33 3.859838 -0.148937 -1.331282 0.157528 -0.087379 -0.929828
    34 1.719423 0.000002 0.000000 0.003344 -0.005714 -0.893046
    35 1.099667 0.000002 0.000000 0.002756 -0.003183 -0.957860
    36 0.806021 -0.359837 -1.318334 0.949231 0.326611 -1.091916
    37 1.789782 0.000000 -0.000004 0.106363 -0.050180 0.037205
    38 1.206999 0.000003 0.000002 -0.153159 0.145673 1.469603
    39 -10.481079 11.633168 -19.319816 0.021500 0.399882 -0.060522
    40 -5.918043 -10.004212 -5.449355 0.021530 0.399902 -0.060510
    41 0.000000 7.169887 -1.514632 0.000000 0.000000 0.000000
    42 0.000000 6.250000 0.998666 0.000000 0.000000 0.000000
    43 0.000000 -2.750000 0.000000 0.000000 0.000000 0.000000
    44 0.000001 2.851563 0.000000 0.000000 0.000000 0.000000
    45 -9.383389 11.508164 -16.711385 0.108789 0.399882 -0.060522
    46 -9.984970 11.578478 -18.146061 0.021523 0.399882 -0.060522
    47 -9.027879 11.465194 -15.866168 0.021530 0.399899 -0.060577
  time 21
    0 0.000000 -0.000006 0.000000 -1.570798 -1.391899 -3.141590
    1 -4.777344 -0.275635 -2.777344 -0.116402 -0.795395 -1.808110
    2 6.028141 0.000000 0.000000 -1.460275 -0.492496 -0.680558
    3 11.692554 0.000001 0.000002 0.000000 0.000000 -1.388944
    4 11.481674 0.000001 -0.000032 -0.462965 -0.103053 0.347327
    5 3.859709 -0.142404 -1.191975 -0.565362 -0.016227 -1.231274
    6 1.312555 -0.000002 0.000001 -0.207477 -0.194486 -1.096289
    7 0.729363 -0.000002 -0.000002 0.000000 0.000000 0.344871
    8 3.942335 0.046767 -0.431443 -0.516551 0.163047 -0.894541
    9 1.539097 0.000000 0.000000 0.000000 0.000000 -1.339093
    10 1.196326 -0.000002 -0.000001 0.000000 0.000000 0.190960
    11 3.883696 -0.046765 0.431443 -0.207427 0.207208 -0.559276
    12 1.719570 -0.000004 -0.000001 -0.005177 0.001885 -1.588974
    13 1.209171 -0.000002 0.000000 0.001378 0.002760 0.250155
    14 3.859865 -0.137947 1.332466 0.066677 0.246053 -0.320614
    15 1.719429 0.000002 -0.000001 -0.003655 0.001797 -1.479203
    16 1.099665 0.000000 0.000000 0.000708 0.002497 0.032696
    17 0.806053 -0.348925 1.321258 -1.118183 -0.378404 -0.802607
    18 1.789780 -0.000002 0.000002 0.326045 -0.156750 -0.115755
    19 1.207006 0.000000 0.000000 0.027862 -0.178198 0.887319
    20 1.350586 4.250000 -6.832031 3.127383 0.584352 1.718144
    21 6.028144 0.000000 0.000000 0.561066 0.756644 -0.948593
    22 11.692554 0.000001 0.000003 0.000000 0.000012 -2.351631
    23 11.481697 0.000001 0.000002 -0.827517 0.092575 2.000846
    24 3.859678 -0.132570 1.193109 0.553212 0.213895 -1.589752
    25 1.312557 -0.000002 0.000001 0.026594 0.073750 -0.432702
    26 0.729365 0.000002 -0.000002 0.000000 0.000000 -0.691678
    27 3.942305 0.050327 0.431044 0.381761 0.104593 -1.299553
    28 1.539099 -0.000002 0.000000 0.000000 0.000000 -0.713789
    29 1.196321 0.000008 0.000000 0.000000 0.000000 -0.946683
    30 3.883661 -0.050323 -0.431042 0.344215 -0.053301 -1.015922
    31 1.719578 0.000004 0.000000 0.004883 -0.006304 -1.025789
    32 1.209185 0.000002 0.000000 0.002497 -0.003696 -0.810634
    33 3.859838 -0.148937 -1.331282 0.157528 -0.087379 -0.929828
    34 1.719423 0.000002 0.000000 0.003344 -0.005714 -0.893046
    35 1.099667 0.000002 0.000000 0.002756 -0.003183 -0.957860
    36 0.806021 -0.359837 -1.318334 0.949231 0.326611 -1.091916
    37 1.789782 0.000000 -0.000004 0.106363 -0.050180 0.037205
    38 1.206999 0.000003 0.000002 -0.153159 0.145673 1.469569
    39 -10.750618 10.492508 -19.077621 0.023683 0.404839 -0.042689
    40 -5.750069 -11.101901 -5.277474 0.023716 0.404848 -0.042652
    41 0.000000 7.169887 -1.514632 0.000000 0.000000 0.000000
    42 0.000000 6.250000 0.998666 0.000000 0.000000 0.000000
    43 0.000000 -2.750000 0.000000 0.000000 0.000000 0.000000
    44 0.000001 2.851563 0.000000 0.000000 0.000000 0.000000
    45 -9.637303 10.375317 -16.473096 0.110972 0.404839 -0.042689
    46 -10.246696 10.437819 -17.903866 0.023706 0.404839 -0.042689
    47 -9.277886 10.340159 -15.627880 0.023706 0.404845 -0.042684
  time 22
    0 0.000000 -0.000006 0.000000 -1.570798 -1.391899 -3.141590
    1 -4.777344 -0.275635 -2.777344 -0.116402 -0.795395 -1.808110
    2 6.028141 0.000000 0.000000 -1.497362 -0.524289 -0.653066
    3 11.692554 0.000001 0.000002 0.000000 0.000000 -1.282094
    4 11.481674 0.000001 -0.000032 -0.478426 -0.081751 0.283188
    5 3.859709 -0.142404 -1.191975 -0.565362 -0.016227 -1.231274
    6 1.312555 -0.000002 0.000001 -0.207477 -0.194486 -1.096269
    7 0.729363 -0.000002 -0.000002 0.000000 0.000000 0.344871
    8 3.942335 0.046767 -0.431443 -0.516551 0.163047 -0.894541
    9 1.539097 0.000000 0.000000 0.000000 0.000000 -1.339093
    10 1.196326 -0.000002 -0.000001 0.000000 0.000000 0.190979
    11 3.883696 -0.046765 0.431443 -0.207427 0.207208 -0.559276
    12 1.719570 -0.000004 -0.000001 -0.005177 0.001885 -1.588937
    13 1.209171 -0.000002 0.000000 0.001378 0.002760 0.250169
    14 3.859865 -0.137947 1.332466 0.066677 0.246053 -0.320614
    15 1.719429 0.000002 -0.000001 -0.003655 0.001797 -1.479203
    16 1.099665 0.000000 0.000000 0.000708 0.002497 0.032696
    17 0.806053 -0.348925 1.321258 -1.118183 -0.378404 -0.802607
    18 1.789780 -0.000002 0.000002 0.326045 -0.156750 -0.115755
    19 1.207006 0.000000 0.000000 0.027862 -0.178198 0.887319
    20 1.350586 4.250000 -6.832031 3.127383 0.584352 1.718144
    21 6.028144 0.000000 0.000000 0.596158 0.822077 -0.979833
    22 11.692554 0.000001 0.000003 0.000000 0.000012 -2.265685
    23 11.481697 0.000001 0.000002 -0.885106 0.031522 1.959475
    24 3.859678 -0.132570 1.193109 0.553212 0.213895 -1.589752
    25 1.312557 -0.000002 0.000001 0.026594 0.073750 -0.432702
    26 0.729365 0.000002 -0.000002 0.000000 0.000000 -0.691678
    27 3.942305 0.050327 0.431044 0.381761 0.104593 -1.299553
    28 1.539099 -0.000002 0.000000 0.000000 0.000000 -0.713789
    29 1.196321 0.000008 0.000000 0.000000 0.000000 -0.946683
    30 3.883661 -0.050323 -0.431042 0.344215 -0.053301 -1.015922
    31 1.719578 0.000004 0.000000 0.004883 -0.006304 -1.025789
    32 1.209185 0.000002 0.000000 0.002497 -0.003696 -0.810634
    33 3.859838 -0.148937 -1.331282 0.157528 -0.087379 -0.929828
    34 1.719423 0.000002 0.000000 0.003344 -0.005714 -0.893046
    35 1.099667 0.000002 0.000000 0.002756 -0.003183 -0.957860
    36 0.806021 -0.359837 -1.318334 0.949231 0.326611 -1.091916
    37 1.789782 0.000000 -0.000004 0.106363 -0.050180 0.037205
    38 1.206999 0.000003 0.000002 -0.153159 0.145673 1.469603
    39 -11.043596 9.340129 -18.819800 0.026093 0.411269 -0.024777
    40 -5.593814 -12.195685 -5.105594 0.026091 0.411273 -0.024793
    41 0.000000 7.169887 -1.514632 0.000000 0.000000 0.000000
    42 0.000000 6.250000 0.998666 0.000000 0.000000 0.000000
    43 0.000000 -2.750000 0.000000 0.000000 0.000000 0.000000
    44 0.000001 2.851563 0.000000 0.000000 0.000000 0.000000
    45 -9.914655 9.238563 -16.223089 0.113360 0.411269 -0.024777
    46 -10.535768 9.293252 -17.649952 0.026094 0.411269 -0.024777
    47 -9.547426 9.207312 -15.381778 0.026099 0.411275 -0.024792
  time 23
    0 0.000000 -0.000006 0.000000 -1.570798 -1.391899 -3.141590
    1 -4.777344 -0.275635 -2.777344 -0.116402 -0.795395 -1.808110
    2 6.028141 0.000000 0.000000 -1.527141 -0.558575 -0.628845
    3 11.692554 0.000001 0.000002 0.000000 0.000000 -1.177804
    4 11.481674 0.000001 -0.000032 -0.492341 -0.066307 0.223216
    5 3.859709 -0.142404 -1.191975 -0.565362 -0.016227 -1.231274
    6 1.312555 -0.000002 0.000001 -0.207477 -0.194486 -1.096269
    7 0.729363 -0.000002 -0.000002 0.000000 0.000000 0.344871
    8 3.942335 0.046767 -0.431443 -0.516551 0.163047 -0.894541
    9 1.539097 0.000000 0.000000 0.000000 0.000000 -1.339093
    10 1.196326 -0.000002 -0.000001 0.000000 0.000000 0.190960
    11 3.883696 -0.046765 0.431443 -0.207427 0.207208 -0.559276
    12 1.719570 -0.000004 -0.000001 -0.005177 0.001885 -1.588974
    13 1.209171 -0.000002 0.000000 0.001378 0.002760 0.250155
    14 3.859865 -0.137947 1.332466 0.066677 0.246053 -0.320614
    15 1.719429 0.000002 -0.000001 -0.003655 0.001797 -1.479203
    16 1.099665 0.000000 0.000000 0.000708 0.002497 0.032696
    17 0.806053 -0.348925 1.321258 -1.118183 -0.378404 -0.802607
    18 1.789780 -0.000002 0.000002 0.326045 -0.156750 -0.115755
    19 1.207006 0.000000 0.000000 0.027862 -0.178198 0.887319
    20 1.350586 4.250000 -6.832031 3.127383 0.584352 1.718144
    21 6.028144 0.000000 0.000000 0.613949 0.874870 -1.011783
    22 11.692554 0.000001 0.000003 0.000000 0.000024 -2.185720
    23 11.481697 0.000001 0.000002 -0.931459 -0.011983 1.921005
    24 3.859678 -0.132570 1.193109 0.553212 0.213895 -1.589752
    25 1.312557 -0.000002 0.000001 0.026594 0.073750 -0.432702
    26 0.729365 0.000002 -0.000002 0.000000 0.000000 -0.691678
    27 3.942305 0.050327 0.431044 0.381761 0.104593 -1.299553
    28 1.539099 -0.000002 0.000000 0.000000 0.000000 -0.713789
    29 1.196321 0.000008 0.000000 0.000000 0.000000 -0.946683
    30 3.883661 -0.050323 -0.431042 0.344215 -0.053301 -1.015922
    31 1.719578 0.000004 0.000000 0.004883 -0.006304 -1.025789
    32 1.209185 0.000002 0.000000 0.002497 -0.003696 -0.810634
    33 3.859838 -0.148937 -1.331282 0.157528 -0.087379 -0.929828
    34 1.719423 0.000002 0.000000 0.003344 -0.005714 -0.893046
    35 1.099667 0.000002 0.000000 0.002756 -0.003183 -0.957860
    36 0.806021 -0.359837 -1.318334 0.949231 0.326611 -1.091916
    37 1.789782 0.000000 -0.000004 0.106363 -0.050180 0.037205
    38 1.206999 0.000003 0.000002 -0.153159 0.145673 1.469603
    39 -11.317042 8.332286 -18.589325 0.028277 0.417700 -0.009212
    40 -5.460997 -13.148839 -4.957152 0.028277 0.417721 -0.009174
    41 0.000000 7.169887 -1.514632 0.000000 0.000000 0.000000
    42 0.000000 6.250000 0.998666 0.000000 0.000000 0.000000
    43 0.000000 -2.750000 0.000000 0.000000 0.000000 0.000000
    44 0.000001 2.851563 0.000000 0.000000 0.000000 0.000000
    45 -10.168569 8.242439 -16.000426 0.115543 0.417700 -0.009212
    46 -10.797494 8.293222 -17.423383 0.028277 0.417700 -0.009212
    47 -9.793527 8.211188 -15.163022 0.028275 0.417705 -0.009213
  time 24
    0 0.000000 -0.000006 0.000000 -1.570798 -1.391899 -3.141590
    1 -4.777344 -0.275635 -2.777344 -0.116402 -0.795395 -1.808110
    2 6.028141 0.000000 0.000000 -1.547085 -0.587080 -0.611347
    3 11.692554 0.000001 0.000002 0.000000 0.000000 -1.096608
    4 11.481674 0.000001 -0.000032 -0.502358 -0.056965 0.177828
    5 3.859709 -0.142404 -1.191975 -0.565362 -0.016227 -1.231274
    6 1.312555 -0.000002 0.000001 -0.207477 -0.194486 -1.096269
    7 0.729363 -0.000002 -0.000002 0.000000 0.000000 0.344871
    8 3.942335 0.046767 -0.431443 -0.516551 0.163047 -0.894541
    9 1.539097 0.000000 0.000000 0.000000 0.000000 -1.339093
    10 1.196326 -0.000002 -0.000001 0.000000 0.000000 0.190960
    11 3.883696 -0.046765 0.431443 -0.207427 0.207208 -0.559276
    12 1.719570 -0.000004 -0.000001 -0.005177 0.001885 -1.588937
    13 1.209171 -0.000002 0.000000 0.001378 0.002760 0.250155
    14 3.859865 -0.137947 1.332466 0.066677 0.246053 -0.320614
    15 1.719429 0.000002 -0.000001 -0.003655 0.001797 -1.479203
    16 1.099665 0.000000 0.000000 0.000708 0.002497 0.032696
    17 0.806053 -0.348925 1.321258 -1.118183 -0.378404 -0.802607
    18 1.789780 -0.000002 0.000002 0.326045 -0.156750 -0.115755
    19 1.207006 0.000000 0.000000 0.027862 -0.178198 0.887319
    20 1.350586 4.250000 -6.832031 3.127383 0.584352 1.718144
    21 6.028144 0.000000 0.000000 0.619298 0.910701 -1.037799
    22 11.692554 0.000001 0.000003 0.000000 0.000024 -2.126298
    23 11.481697 0.000001 0.000002 -0.962187 -0.038469 1.892329
    24 3.859678 -0.132570 1.193109 0.553212 0.213895 -1.589752
    25 1.312557 -0.000002 0.000001 0.026594 0.073750 -0.432702
    26 0.729365 0.000002 -0.000002 0.000000 0.000000 -0.691678
    27 3.942305 0.050327 0.431044 0.381761 0.104593 -1.299553
    28 1.539099 -0.000002 0.000000 0.000000 0.000000 -0.713789
    29 1.196321 0.000008 0.000000 0.000000 0.000000 -0.946683
    30 3.883661 -0.050323 -0.431042 0.344215 -0.053301 -1.015922
    31 1.719578 0.000004 0.000000 0.004883 -0.006304 -1.025789
    32 1.209185 0.000002 0.000000 0.002497 -0.003696 -0.810634
    33 3.859838 -0.148937 -1.331282 0.157528 -0.087379 -0.929794
    34 1.719423 0.000002 0.000000 0.003332 -0.005714 -0.893046
    35 1.099667 0.000002 0.000000 0.002756 -0.003183 -0.957860
    36 0.806021 -0.359837 -1.318334 0.949231 0.326611 -1.091916
    37 1.789782 0.000000 -0.000004 0.106363 -0.050180 0.037205
    38 1.206999 0.000003 0.000002 -0.153159 0.145673 1.469569
    39 -11.512360 7.613514 -18.421351 0.029858 0.422657 0.001816
    40 -5.371151 -13.824641 -4.851680 0.029881 0.422667 0.001858
    41 0.000000 7.169887 -1.514632 0.000000 0.000000 0.000000
    42 0.000000 6.250000 0.998666 0.000000 0.000000 0.000000
    43 0.000000 -2.750000 0.000000 0.000000 0.000000 0.000000
    44 0.000001 2.851563 0.000000 0.000000 0.000000 0.000000
    45 -10.352168 7.531480 -15.836358 0.117146 0.422657 0.001816
    46 -10.992813 7.578356 -17.259315 0.029880 0.422657 0.001816
    47 -9.977126 7.504135 -15.002861 0.029876 0.422652 0.001876
  time 25
    0 0.000000 -0.000006 0.000000 -1.570798 -1.391899 -3.141590
    1 -4.777344 -0.275635 -2.777344 -0.116402 -0.795395 -1.808110
    2 6.028141 0.000000 0.000000 -1.554458 -0.598940 -0.604600
    3 11.692554 0.000001 0.000002 0.000000 0.000000 -1.063831
    4 11.481674 0.000001 -0.000032 -0.506190 -0.053755 0.159784
    5 3.859709 -0.142404 -1.191975 -0.565362 -0.016227 -1.231274
    6 1.312555 -0.000002 0.000001 -0.207477 -0.194486 -1.096269
    7 0.729363 -0.000002 -0.000002 0.000000 0.000000 0.344871
    8 3.942335 0.046767 -0.431443 -0.516551 0.163047 -0.894541
    9 1.539097 0.000000 0.000000 0.000000 0.000000 -1.339093
    10 1.196326 -0.000002 -0.000001 0.000000 0.000000 0.190960
    11 3.883696 -0.046765 0.431443 -0.207427 0.207208 -0.559276
    12 1.719570 -0.000004 -0.000001 -0.005177 0.001885 -1.588937
    13 1.209171 -0.000002 0.000000 0.001378 0.002760 0.250155
    14 3.859865 -0.137947 1.332466 0.066677 0.246053 -0.320614
    15 1.719429 0.000002 -0.000001 -0.003655 0.001797 -1.479203
    16 1.099665 0.000000 0.000000 0.000708 0.002497 0.032696
    17 0.806053 -0.348925 1.321258 -1.118183 -0.378404 -0.802607
    18 1.789780 -0.000002 0.000002 0.326045 -0.156750 -0.115755
    19 1.207006 0.000000 0.000000 0.027862 -0.178198 0.887319
    20 1.350586 4.250000 -6.832031 3.127383 0.584352 1.718144
    21 6.028144 0.000000 0.000000 0.619953 0.923946 -1.048247
    22 11.692554 0.000001 0.000003 0.000000 0.000024 -2.103553
    23 11.481697 0.000001 0.000002 -0.973423 -0.047712 1.881310
    24 3.859678 -0.132570 1.193109 0.553212 0.213895 -1.589752
    25 1.312557 -0.000002 0.000001 0.026594 0.073750 -0.432702
    26 0.729365 0.000002 -0.000002 0.000000 0.000000 -0.691678
    27 3.942305 0.050327 0.431044 0.381761 0.104593 -1.299553
    28 1.539099 -0.000002 0.000000 0.000000 0.000000 -0.713789
    29 1.196321 0.000008 0.000000 0.000000 0.000000 -0.946683
    30 3.883661 -0.050323 -0.431042 0.344215 -0.053301 -1.015922
    31 1.719578 0.000004 0.000000 0.004883 -0.006304 -1.025789
    32 1.209185 0.000002 0.000000 0.002497 -0.003696 -0.810634
    33 3.859838 -0.148937 -1.331282 0.157528 -0.087379 -0.929828
    34 1.719423 0.000002 0.000000 0.003344 -0.005714 -0.893046
    35 1.099667 0.000002 0.000000 0.002756 -0.003183 -0.957860
    36 0.806021 -0.359837 -1.318334 0.949231 0.326611 -1.091916
    37 1.789782 0.000000 -0.000004 0.106363 -0.050180 0.037205
    38 1.206999 0.000003 0.000002 -0.153159 0.145673 1.469569
    39 -11.590487 7.343974 -18.358849 0.030498 0.424639 0.006040
    40 -5.335994 -14.078555 -4.812616 0.030495 0.424631 0.006009
    41 0.000000 7.169887 -1.514632 0.000000 0.000000 0.000000
    42 0.000000 6.250000 0.998666 0.000000 0.000000 0.000000
    43 0.000000 -2.750000 0.000000 0.000000 0.000000 0.000000
    44 0.000001 2.851563 0.000000 0.000000 0.000000 0.000000
    45 -10.422483 7.261940 -15.773856 0.117760 0.424639 0.006040
    46 -11.067034 7.304910 -17.196813 0.030494 0.424639 0.006040
    47 -10.043535 7.238502 -14.940359 0.030487 0.424630 0.006026
end
