// Created by Crowbar++ 0.74
version 1
nodes
  0 "ValveBiped.Bip01_Spine4" -1
  1 "ValveBiped.Bip01_L_Clavicle" 0
  2 "ValveBiped.Bip01_L_UpperArm" 1
  3 "ValveBiped.Bip01_L_Forearm" 2
  4 "ValveBiped.Bip01_L_Hand" 3
  5 "ValveBiped.Bip01_L_Finger4" 4
  6 "ValveBiped.Bip01_L_Finger41" 5
  7 "ValveBiped.Bip01_L_Finger42" 6
  8 "ValveBiped.Bip01_L_Finger3" 4
  9 "ValveBiped.Bip01_L_Finger31" 8
  10 "ValveBiped.Bip01_L_Finger32" 9
  11 "ValveBiped.Bip01_L_Finger2" 4
  12 "ValveBiped.Bip01_L_Finger21" 11
  13 "ValveBiped.Bip01_L_Finger22" 12
  14 "ValveBiped.Bip01_L_Finger1" 4
  15 "ValveBiped.Bip01_L_Finger11" 14
  16 "ValveBiped.Bip01_L_Finger12" 15
  17 "ValveBiped.Bip01_L_Finger0" 4
  18 "ValveBiped.Bip01_L_Finger01" 17
  19 "ValveBiped.Bip01_L_Finger02" 18
  20 "ValveBiped.Bip01_R_Clavicle" 0
  21 "ValveBiped.Bip01_R_UpperArm" 20
  22 "ValveBiped.Bip01_R_Forearm" 21
  23 "ValveBiped.Bip01_R_Hand" 22
  24 "ValveBiped.Bip01_R_Finger4" 23
  25 "ValveBiped.Bip01_R_Finger41" 24
  26 "ValveBiped.Bip01_R_Finger42" 25
  27 "ValveBiped.Bip01_R_Finger3" 23
  28 "ValveBiped.Bip01_R_Finger31" 27
  29 "ValveBiped.Bip01_R_Finger32" 28
  30 "ValveBiped.Bip01_R_Finger2" 23
  31 "ValveBiped.Bip01_R_Finger21" 30
  32 "ValveBiped.Bip01_R_Finger22" 31
  33 "ValveBiped.Bip01_R_Finger1" 23
  34 "ValveBiped.Bip01_R_Finger11" 33
  35 "ValveBiped.Bip01_R_Finger12" 34
  36 "ValveBiped.Bip01_R_Finger0" 23
  37 "ValveBiped.Bip01_R_Finger01" 36
  38 "ValveBiped.Bip01_R_Finger02" 37
  39 "mosin_strip_clip" -1
  40 "control" -1
  41 "mosin_trigger" 40
  42 "mosin_bolt_base" 40
  43 "mosin_bolt_handle" 42
  44 "mosin_bolt_hammer" 42
  45 "mosin_strip_bullets_top" -1
  46 "mosin_strip_bullets_group" -1
  47 "mosin_bullet_single" -1
end
skeleton
  time 0
    0 0.000000 -0.000006 0.000000 -1.570798 -1.391899 -3.141590
    1 -6.613281 -2.207031 -1.115234 0.013226 -0.695278 -2.042891
    2 6.028141 0.000000 0.000000 -1.318126 -0.495585 -0.804934
    3 11.692554 0.000001 0.000002 0.000000 0.000000 -1.324787
    4 11.481674 0.000001 -0.000032 -0.234672 0.212881 1.129380
    5 3.859709 -0.142404 -1.191975 -0.583834 0.057745 -1.715148
    6 1.312555 -0.000002 0.000001 -0.282364 0.024800 -0.268300
    7 0.729363 -0.000002 -0.000002 0.000000 0.000000 -0.415147
    8 3.942335 0.046767 -0.431443 -0.443389 0.236328 -1.284431
    9 1.539097 0.000000 0.000000 0.000000 0.000000 -0.637382
    10 1.196326 -0.000002 -0.000001 0.000000 0.000000 -0.703202
    11 3.883696 -0.046765 0.431443 -0.258899 0.387633 -0.931701
    12 1.719570 -0.000004 -0.000001 -0.002880 0.004705 -0.915718
    13 1.209171 -0.000002 0.000000 -0.001237 0.002825 -0.629490
    14 3.859865 -0.137947 1.332466 -0.099428 0.461302 -0.732690
    15 1.719429 0.000002 -0.000001 -0.000544 0.004038 -0.496891
    16 1.099665 0.000000 0.000000 -0.001800 0.001871 -1.010281
    17 0.806053 -0.348925 1.321258 -1.057553 -0.351234 -0.805849
    18 1.789780 -0.000002 0.000002 0.009971 -0.499704 0.157138
    19 1.207006 0.000000 0.000000 0.047483 0.005693 -0.097994
    20 -3.794922 2.695313 -6.742188 3.066403 -0.024148 1.435052
    21 6.028144 0.000000 0.000000 1.800968 0.064944 -0.499414
    22 11.692554 0.000001 0.000003 0.000000 0.000012 -2.202485
    23 11.481697 0.000001 0.000002 -1.357836 -0.201339 0.772815
    24 3.859678 -0.132570 1.193109 0.326316 0.256096 -1.584591
    25 1.312557 -0.000002 0.000001 0.221739 0.022771 -0.426063
    26 0.729365 0.000002 -0.000002 0.000000 0.000000 -0.527383
    27 3.942305 0.050327 0.431044 0.341352 0.083923 -1.173694
    28 1.539099 -0.000002 0.000000 0.000000 0.000000 -0.841064
    29 1.196321 0.000008 0.000000 0.000000 0.000000 -1.069706
    30 3.883661 -0.050323 -0.431042 0.238779 -0.105152 -0.826078
    31 1.719578 0.000004 0.000000 0.004734 -0.006416 -1.002558
    32 1.209185 0.000002 0.000000 0.003344 -0.002951 -1.064971
    33 3.859838 -0.148937 -1.331282 -0.154114 -0.173803 -0.129169
    34 1.719423 0.000002 0.000000 0.000515 -0.006601 -0.442615
    35 1.099667 0.000002 0.000000 0.000995 -0.004103 -0.482900
    36 0.806021 -0.359837 -1.318334 1.308532 0.536470 -0.392017
    37 1.789782 0.000000 -0.000004 0.224041 0.091994 -0.232655
    38 1.206999 0.000003 0.000002 -0.153711 0.077073 0.448186
    39 -6.523926 7.414289 -14.761083 0.515310 -0.192336 0.093955
    40 -4.691443 -18.441969 -11.668294 0.515329 -0.192336 0.093937
    41 0.000000 7.169887 -1.514632 0.000000 0.000000 0.000000
    42 0.000000 6.250000 0.998666 0.000000 0.000000 0.000000
    43 0.000000 -2.750000 0.000000 0.000000 0.000000 0.000000
    44 0.000000 2.052265 0.000000 0.000000 0.000000 0.000000
    45 -6.863781 5.980651 -12.340158 0.602593 -0.192336 0.093955
    46 -6.676275 6.769738 -13.673268 0.515327 -0.192336 0.093955
    47 -6.973128 5.515793 -11.557443 0.515317 -0.192345 0.093922
  time 1
    0 0.000000 -0.000006 0.000000 -1.570798 -1.391899 -3.141590
    1 -6.613281 -2.207031 -1.115234 0.013226 -0.695278 -2.042891
    2 6.028141 0.000000 0.000000 -1.335139 -0.517778 -0.790301
    3 11.692554 0.000001 0.000002 0.000000 0.000000 -1.311425
    4 11.481674 0.000001 -0.000032 -0.223311 0.216198 1.145563
    5 3.859709 -0.142404 -1.191975 -0.583834 0.057745 -1.715148
    6 1.312555 -0.000002 0.000001 -0.282364 0.024800 -0.268300
    7 0.729363 -0.000002 -0.000002 0.000000 0.000000 -0.415147
    8 3.942335 0.046767 -0.431443 -0.443389 0.236328 -1.284431
    9 1.539097 0.000000 0.000000 0.000000 0.000000 -0.637382
    10 1.196326 -0.000002 -0.000001 0.000000 0.000000 -0.703202
    11 3.883696 -0.046765 0.431443 -0.258899 0.387633 -0.931701
    12 1.719570 -0.000004 -0.000001 -0.002880 0.004705 -0.915718
    13 1.209171 -0.000002 0.000000 -0.001237 0.002825 -0.629490
    14 3.859865 -0.137947 1.332466 -0.099428 0.461302 -0.732690
    15 1.719429 0.000002 -0.000001 -0.000544 0.004038 -0.496891
    16 1.099665 0.000000 0.000000 -0.001800 0.001871 -1.010281
    17 0.806053 -0.348925 1.321258 -1.055180 -0.349195 -0.813435
    18 1.789780 -0.000002 0.000002 0.015268 -0.492220 0.152629
    19 1.207006 0.000000 0.000000 0.054458 -0.000539 -0.075698
    20 -3.794922 2.695313 -6.742188 3.066403 -0.024148 1.435052
    21 6.028144 0.000000 0.000000 1.808227 0.134978 -0.489170
    22 11.692554 0.000001 0.000003 0.000000 0.000012 -2.154711
    23 11.481697 0.000001 0.000002 -1.506878 -0.225057 0.765533
    24 3.859678 -0.132570 1.193109 0.320839 0.252316 -1.605990
    25 1.312557 -0.000002 0.000001 0.219797 0.025959 -0.444096
    26 0.729365 0.000002 -0.000002 -0.000851 -0.001486 -0.545726
    27 3.942305 0.050327 0.431044 0.336690 0.078095 -1.194918
    28 1.539099 -0.000002 0.000000 0.000000 0.000000 -0.859368
    29 1.196321 0.000008 0.000000 0.000000 0.000000 -1.088019
    30 3.883661 -0.050323 -0.431042 0.233633 -0.113312 -0.850733
    31 1.719578 0.000004 0.000000 0.004878 -0.006308 -1.025312
    32 1.209185 0.000002 0.000000 0.003404 -0.002879 -1.087752
    33 3.859838 -0.148937 -1.331282 -0.158600 -0.153868 -0.124368
    34 1.719423 0.000002 0.000000 0.000551 -0.006601 -0.446597
    35 1.099667 0.000002 0.000000 0.001043 -0.004079 -0.497013
    36 0.806021 -0.359837 -1.318334 1.307608 0.536052 -0.393844
    37 1.789782 0.000000 -0.000004 0.228344 0.093659 -0.227795
    38 1.206999 0.000003 0.000002 -0.150717 0.061673 0.450584
    39 -6.449705 7.023652 -14.557952 0.511319 -0.191344 0.093564
    40 -4.644566 -18.820887 -11.363598 0.511334 -0.191365 0.093555
    41 0.000000 7.169887 -1.514632 0.000000 0.000000 0.000000
    42 0.000000 6.250000 0.998666 0.000000 0.000000 0.000000
    43 0.000000 -2.750000 0.000000 0.000000 0.000000 0.000000
    44 0.000000 2.052265 0.000000 0.000000 0.000000 0.000000
    45 -6.785653 5.601733 -12.133120 0.598602 -0.191344 0.093564
    46 -6.602054 6.383007 -13.466231 0.511336 -0.191344 0.093564
    47 -6.895001 5.140782 -11.346499 0.511324 -0.191356 0.093582
  time 2
    0 0.000000 -0.000006 0.000000 -1.570798 -1.391899 -3.141590
    1 -6.613281 -2.207031 -1.115234 0.013226 -0.695278 -2.042891
    2 6.028141 0.000000 0.000000 -1.359004 -0.551731 -0.768118
    3 11.692554 0.000001 0.000002 0.000000 0.000000 -1.306071
    4 11.481674 0.000001 -0.000032 -0.202270 0.203006 1.191212
    5 3.859709 -0.142404 -1.191975 -0.583834 0.057745 -1.715148
    6 1.312555 -0.000002 0.000001 -0.282364 0.024800 -0.268300
    7 0.729363 -0.000002 -0.000002 0.000000 0.000000 -0.415147
    8 3.942335 0.046767 -0.431443 -0.443389 0.236328 -1.284431
    9 1.539097 0.000000 0.000000 0.000000 0.000000 -0.637382
    10 1.196326 -0.000002 -0.000001 0.000000 0.000000 -0.703202
    11 3.883696 -0.046765 0.431443 -0.258899 0.387633 -0.931701
    12 1.719570 -0.000004 -0.000001 -0.002880 0.004705 -0.915718
    13 1.209171 -0.000002 0.000000 -0.001237 0.002825 -0.629490
    14 3.859865 -0.137947 1.332466 -0.099428 0.461302 -0.732690
    15 1.719429 0.000002 -0.000001 -0.000544 0.004038 -0.496891
    16 1.099665 0.000000 0.000000 -0.001800 0.001871 -1.010281
    17 0.806053 -0.348925 1.321258 -1.048852 -0.343622 -0.833701
    18 1.789780 -0.000002 0.000002 0.029362 -0.472091 0.140743
    19 1.207006 0.000000 0.000000 0.073046 -0.017318 -0.015981
    20 -3.794922 2.695313 -6.742188 3.066403 -0.024148 1.435052
    21 6.028144 0.000000 0.000000 1.813957 0.255714 -0.473905
    22 11.692554 0.000001 0.000003 0.000000 0.000012 -2.063334
    23 11.481697 0.000001 0.000002 -1.544817 -0.260315 0.725903
    24 3.859678 -0.132570 1.193109 0.305954 0.241774 -1.662185
    25 1.312557 -0.000002 0.000001 0.214344 0.034312 -0.491804
    26 0.729365 0.000002 -0.000002 -0.003092 -0.005429 -0.594031
    27 3.942305 0.050327 0.431044 0.323926 0.062532 -1.250688
    28 1.539099 -0.000002 0.000000 0.000000 0.000000 -0.907665
    29 1.196321 0.000008 0.000000 0.000000 0.000000 -1.136319
    30 3.883661 -0.050323 -0.431042 0.219587 -0.134553 -0.915932
    31 1.719578 0.000004 0.000000 0.005249 -0.006009 -1.085324
    32 1.209185 0.000002 0.000000 0.003571 -0.002663 -1.147759
    33 3.859838 -0.148937 -1.331282 -0.171574 -0.106312 -0.113098
    34 1.719423 0.000002 0.000000 0.000659 -0.006589 -0.464381
    35 1.099667 0.000002 0.000000 0.001234 -0.004031 -0.543010
    36 0.806021 -0.359837 -1.318334 1.305074 0.534903 -0.398785
    37 1.789782 0.000000 -0.000004 0.231818 0.098309 -0.215027
    38 1.206999 0.000003 0.000002 -0.142550 0.023286 0.457272
    39 -6.305170 6.457228 -14.347008 0.498404 -0.188710 0.092469
    40 -4.585971 -19.352153 -10.824519 0.498422 -0.188707 0.092462
    41 0.000000 7.169887 -1.514632 0.000000 0.000000 0.000000
    42 0.000000 6.250000 0.998666 0.000000 0.000000 0.000000
    43 0.000000 -2.750000 0.000000 0.000000 0.000000 0.000000
    44 0.000000 2.052265 0.000000 0.000000 0.000000 0.000000
    45 -6.645024 5.066561 -11.902645 0.585675 -0.188710 0.092469
    46 -6.457518 5.832209 -13.247474 0.498409 -0.188710 0.092469
    47 -6.754372 4.613422 -11.112117 0.498410 -0.188697 0.092493
  time 3
    0 0.000000 -0.000006 0.000000 -1.570798 -1.391899 -3.141590
    1 -6.613281 -2.207031 -1.115234 0.013226 -0.695278 -2.042891
    2 6.028141 0.000000 0.000000 -1.385331 -0.588010 -0.743957
    3 11.692554 0.000001 0.000002 0.000000 0.000000 -1.303091
    4 11.481674 0.000001 -0.000032 -0.175380 0.176105 1.239353
    5 3.859709 -0.142404 -1.191975 -0.583834 0.057745 -1.715148
    6 1.312555 -0.000002 0.000001 -0.282364 0.024800 -0.268300
    7 0.729363 -0.000002 -0.000002 0.000000 0.000000 -0.415147
    8 3.942335 0.046767 -0.431443 -0.443389 0.236328 -1.284431
    9 1.539097 0.000000 0.000000 0.000000 0.000000 -0.637382
    10 1.196326 -0.000002 -0.000001 0.000000 0.000000 -0.703202
    11 3.883696 -0.046765 0.431443 -0.258899 0.387633 -0.931701
    12 1.719570 -0.000004 -0.000001 -0.002880 0.004705 -0.915718
    13 1.209171 -0.000002 0.000000 -0.001237 0.002825 -0.629490
    14 3.859865 -0.137947 1.332466 -0.099428 0.461302 -0.732690
    15 1.719429 0.000002 -0.000001 -0.000544 0.004038 -0.496891
    16 1.099665 0.000000 0.000000 -0.001800 0.001871 -1.010281
    17 0.806053 -0.348925 1.321258 -1.039780 -0.335323 -0.862884
    18 1.789780 -0.000002 0.000002 0.049580 -0.442863 0.123983
    19 1.207006 0.000000 0.000000 0.099688 -0.041599 0.070483
    20 -3.794922 2.695313 -6.742188 3.066403 -0.024148 1.435052
    21 6.028144 0.000000 0.000000 1.814067 0.383096 -0.460060
    22 11.692554 0.000001 0.000003 0.000000 0.000024 -1.956217
    23 11.481697 0.000001 0.000002 -1.543616 -0.277612 0.672546
    24 3.859678 -0.132570 1.193109 0.283854 0.225418 -1.740973
    25 1.312557 -0.000002 0.000001 0.205763 0.045973 -0.559266
    26 0.729365 0.000002 -0.000002 -0.006256 -0.011002 -0.662408
    27 3.942305 0.050327 0.431044 0.304727 0.039936 -1.329180
    28 1.539099 -0.000002 0.000000 0.000000 0.000000 -0.975988
    29 1.196321 0.000008 0.000000 0.000000 0.000000 -1.204612
    30 3.883661 -0.050323 -0.431042 0.198544 -0.163998 -1.008450
    31 1.719578 0.000004 0.000000 0.005741 -0.005541 -1.170176
    32 1.209185 0.000002 0.000000 0.003787 -0.002352 -1.232619
    33 3.859838 -0.148937 -1.331282 -0.192240 -0.049527 -0.099955
    34 1.719423 0.000002 0.000000 0.000935 -0.006553 -0.504858
    35 1.099667 0.000002 0.000000 0.001570 -0.003911 -0.626401
    36 0.806021 -0.359837 -1.318334 1.301347 0.533163 -0.406134
    37 1.789782 0.000000 -0.000004 0.234963 0.105404 -0.197089
    38 1.206999 0.000003 0.000002 -0.130452 -0.026426 0.467539
    39 -6.098132 5.828303 -14.327476 0.474909 -0.184772 0.090904
    40 -4.527375 -19.899045 -10.203406 0.474926 -0.184778 0.090879
    41 0.000000 7.169887 -1.514632 0.000000 0.000000 0.000000
    42 0.000000 6.250000 0.998666 0.000000 0.000000 0.000000
    43 0.000000 -2.750000 0.000000 0.000000 0.000000 0.000000
    44 0.000000 2.052265 0.000000 0.000000 0.000000 0.000000
    45 -6.441893 4.496231 -11.847955 0.562173 -0.184772 0.090904
    46 -6.254387 5.230628 -13.212317 0.474907 -0.184772 0.090904
    47 -6.555147 4.066530 -11.045709 0.474937 -0.184771 0.090860
  time 4
    0 0.000000 -0.000006 0.000000 -1.570798 -1.391899 -3.141590
    1 -6.613281 -2.207031 -1.115234 0.013226 -0.695278 -2.042891
    2 6.028141 0.000000 0.000000 -1.414954 -0.624854 -0.718334
    3 11.692554 0.000001 0.000002 0.000000 0.000000 -1.289776
    4 11.481674 0.000001 -0.000032 -0.145466 0.145720 1.263238
    5 3.859709 -0.142404 -1.191975 -0.583834 0.057745 -1.715148
    6 1.312555 -0.000002 0.000001 -0.282364 0.024800 -0.268300
    7 0.729363 -0.000002 -0.000002 0.000000 0.000000 -0.415147
    8 3.942335 0.046767 -0.431443 -0.443389 0.236328 -1.284445
    9 1.539097 0.000000 0.000000 0.000000 0.000000 -0.637382
    10 1.196326 -0.000002 -0.000001 0.000000 0.000000 -0.703202
    11 3.883696 -0.046765 0.431443 -0.258899 0.387633 -0.931701
    12 1.719570 -0.000004 -0.000001 -0.002880 0.004705 -0.915718
    13 1.209171 -0.000002 0.000000 -0.001237 0.002825 -0.629490
    14 3.859865 -0.137947 1.332466 -0.099428 0.461302 -0.732690
    15 1.719429 0.000002 -0.000001 -0.000544 0.004038 -0.496891
    16 1.099665 0.000000 0.000000 -0.001800 0.001871 -1.010281
    17 0.806053 -0.348925 1.321258 -1.029162 -0.325118 -0.897267
    18 1.789780 -0.000002 0.000002 0.073286 -0.408049 0.104785
    19 1.207006 0.000000 0.000000 0.130824 -0.070374 0.173032
    20 -3.794922 2.695313 -6.742188 3.066403 -0.024148 1.435052
    21 6.028144 0.000000 0.000000 1.809264 0.494631 -0.450627
    22 11.692554 0.000001 0.000003 0.000000 0.000024 -1.859331
    23 11.481697 0.000001 0.000002 -1.581921 -0.262834 0.651088
    24 3.859678 -0.132570 1.193109 0.257213 0.204486 -1.830190
    25 1.312557 -0.000002 0.000001 0.194702 0.059048 -0.636711
    26 0.729365 0.000002 -0.000002 -0.009887 -0.017378 -0.740725
    27 3.942305 0.050327 0.431044 0.281117 0.013008 -1.418464
    28 1.539099 -0.000002 0.000000 0.000000 0.000000 -1.054278
    29 1.196321 0.000008 0.000000 0.000000 0.000000 -1.282941
    30 3.883661 -0.050323 -0.431042 0.172618 -0.197126 -1.114766
    31 1.719578 0.000004 0.000000 0.006244 -0.004954 -1.267447
    32 1.209185 0.000002 0.000000 0.004003 -0.001980 -1.329904
    33 3.859838 -0.148937 -1.331282 -0.219449 -0.001930 -0.089196
    34 1.719423 0.000002 0.000000 0.001402 -0.006469 -0.577030
    35 1.099667 0.000002 0.000000 0.002037 -0.003684 -0.752582
    36 0.806021 -0.359837 -1.318334 1.296801 0.531022 -0.415082
    37 1.789782 0.000000 -0.000004 0.238349 0.114441 -0.176677
    38 1.206999 0.000003 0.000002 -0.115483 -0.075803 0.480711
    39 -5.832499 5.140782 -14.589203 0.438989 -0.180014 0.088949
    40 -4.468780 -20.438124 -9.554949 0.439021 -0.180017 0.088967
    41 0.000000 7.169887 -1.514632 0.000000 0.000000 0.000000
    42 0.000000 6.250000 0.998666 0.000000 0.000000 0.000000
    43 0.000000 -2.750000 0.000000 0.000000 0.000000 0.000000
    44 0.000000 2.052265 0.000000 0.000000 0.000000 0.000000
    45 -6.180166 3.898556 -12.062806 0.526256 -0.180014 0.088949
    46 -5.988754 4.582171 -13.454512 0.438990 -0.180014 0.088949
    47 -6.293420 3.496200 -11.248840 0.439018 -0.180010 0.088956
  time 5
    0 0.000000 -0.000006 0.000000 -1.570798 -1.391899 -3.141590
    1 -6.613281 -2.207031 -1.115234 0.013226 -0.695278 -2.042891
    2 6.028141 0.000000 0.000000 -1.449501 -0.662395 -0.690086
    3 11.692554 0.000001 0.000002 0.000000 0.000000 -1.252809
    4 11.481674 0.000001 -0.000032 -0.115282 0.125225 1.238386
    5 3.859709 -0.142404 -1.191975 -0.583834 0.057745 -1.715148
    6 1.312555 -0.000002 0.000001 -0.282364 0.024800 -0.268300
    7 0.729363 -0.000002 -0.000002 0.000000 0.000000 -0.415147
    8 3.942335 0.046767 -0.431443 -0.443389 0.236328 -1.284431
    9 1.539097 0.000000 0.000000 0.000000 0.000000 -0.637382
    10 1.196326 -0.000002 -0.000001 0.000000 0.000000 -0.703202
    11 3.883696 -0.046765 0.431443 -0.258899 0.387633 -0.931701
    12 1.719570 -0.000004 -0.000001 -0.002880 0.004705 -0.915718
    13 1.209171 -0.000002 0.000000 -0.001237 0.002825 -0.629490
    14 3.859865 -0.137947 1.332466 -0.099428 0.461302 -0.732690
    15 1.719429 0.000002 -0.000001 -0.000544 0.004038 -0.496891
    16 1.099665 0.000000 0.000000 -0.001800 0.001871 -1.010281
    17 0.806053 -0.348925 1.321258 -1.018148 -0.313948 -0.933149
    18 1.789780 -0.000002 0.000002 0.097962 -0.371267 0.085323
    19 1.207006 0.000000 0.000000 0.163074 -0.100563 0.280991
    20 -3.794922 2.695313 -6.742188 3.066403 -0.024148 1.435052
    21 6.028144 0.000000 0.000000 1.797148 0.597986 -0.447432
    22 11.692554 0.000001 0.000003 0.000000 0.000024 -1.775510
    23 11.481697 0.000001 0.000002 -1.670551 -0.226606 0.682019
    24 3.859678 -0.132570 1.193109 0.229373 0.181077 -1.917958
    25 1.312557 -0.000002 0.000001 0.182346 0.071704 -0.714280
    26 0.729365 0.000002 -0.000002 -0.013531 -0.023766 -0.819090
    27 3.942305 0.050327 0.431044 0.255890 -0.015191 -1.506793
    28 1.539099 -0.000002 0.000000 0.000000 0.000000 -1.132568
    29 1.196321 0.000008 0.000000 0.000000 0.000000 -1.361230
    30 3.883661 -0.050323 -0.431042 0.144723 -0.229852 -1.221131
    31 1.719578 0.000004 0.000000 0.006699 -0.004331 -1.364719
    32 1.209185 0.000002 0.000000 0.004171 -0.001573 -1.427189
    33 3.859838 -0.148937 -1.331282 -0.251588 0.018033 -0.084769
    34 1.719423 0.000002 0.000000 0.002121 -0.006265 -0.689788
    35 1.099667 0.000002 0.000000 0.002649 -0.003276 -0.927123
    36 0.806021 -0.359837 -1.318334 1.291823 0.528602 -0.424923
    37 1.789782 0.000000 -0.000004 0.242434 0.124915 -0.156509
    38 1.206999 0.000003 0.000002 -0.098441 -0.113111 0.496113
    39 -5.500458 4.359508 -15.194690 0.388949 -0.174830 0.086837
    40 -4.414090 -20.953764 -8.898679 0.388946 -0.174840 0.086837
    41 0.000000 7.169887 -1.514632 0.000000 0.000000 0.000000
    42 0.000000 6.250000 0.998666 0.000000 0.000000 0.000000
    43 0.000000 -2.750000 0.000000 0.000000 0.000000 0.000000
    44 0.000000 2.052265 0.000000 0.000000 0.000000 0.000000
    45 -5.863750 3.246193 -12.609697 0.476217 -0.174830 0.086837
    46 -5.664525 3.859493 -14.032654 0.388951 -0.174830 0.086837
    47 -5.980911 2.886807 -11.776200 0.388943 -0.174848 0.086847
  time 6
    0 0.000000 -0.000006 0.000000 -1.570798 -1.391899 -3.141590
    1 -6.613281 -2.207031 -1.115234 0.013226 -0.695278 -2.042891
    2 6.028141 0.000000 0.000000 -1.486550 -0.700767 -0.659861
    3 11.692554 0.000001 0.000002 0.000000 0.000000 -1.196660
    4 11.481674 0.000001 -0.000032 -0.084897 0.109431 1.174471
    5 3.859709 -0.142404 -1.191975 -0.583834 0.057745 -1.715148
    6 1.312555 -0.000002 0.000001 -0.282364 0.024800 -0.268300
    7 0.729363 -0.000002 -0.000002 0.000000 0.000000 -0.415147
    8 3.942335 0.046767 -0.431443 -0.443389 0.236328 -1.284445
    9 1.539097 0.000000 0.000000 0.000000 0.000000 -0.637382
    10 1.196326 -0.000002 -0.000001 0.000000 0.000000 -0.703202
    11 3.883696 -0.046765 0.431443 -0.258899 0.387633 -0.931701
    12 1.719570 -0.000004 -0.000001 -0.002880 0.004705 -0.915718
    13 1.209171 -0.000002 0.000000 -0.001237 0.002825 -0.629490
    14 3.859865 -0.137947 1.332466 -0.099428 0.461302 -0.732690
    15 1.719429 0.000002 -0.000001 -0.000544 0.004038 -0.496891
    16 1.099665 0.000000 0.000000 -0.001800 0.001871 -1.010281
    17 0.806053 -0.348925 1.321258 -1.007865 -0.302934 -0.966982
    18 1.789780 -0.000002 0.000002 0.121200 -0.336134 0.067518
    19 1.207006 0.000000 0.000000 0.193239 -0.129122 0.383716
    20 -3.794922 2.695313 -6.742188 3.066403 -0.024148 1.435052
    21 6.028144 0.000000 0.000000 1.776300 0.702596 -0.450373
    22 11.692554 0.000001 0.000003 0.000000 0.000024 -1.689722
    23 11.481697 0.000001 0.000002 -1.756151 -0.180084 0.729769
    24 3.859678 -0.132570 1.193109 0.204289 0.158578 -1.993198
    25 1.312557 -0.000002 0.000001 0.170541 0.082334 -0.782079
    26 0.729365 0.000002 -0.000002 -0.016695 -0.029338 -0.887467
    27 3.942305 0.050327 0.431044 0.232640 -0.040979 -1.582935
    28 1.539099 -0.000002 0.000000 0.000000 0.000000 -1.200845
    29 1.196321 0.000008 0.000000 0.000000 0.000000 -1.429522
    30 3.883661 -0.050323 -0.431042 0.118719 -0.258317 -1.313750
    31 1.719578 0.000004 0.000000 0.007035 -0.003743 -1.449571
    32 1.209185 0.000002 0.000000 0.004290 -0.001213 -1.512049
    33 3.859838 -0.148937 -1.331282 -0.290641 0.000339 -0.120861
    34 1.719423 0.000002 0.000000 0.004075 -0.005211 -1.027242
    35 1.099667 0.000002 0.000000 0.003691 -0.002018 -1.316915
    36 0.806021 -0.359837 -1.318334 1.286800 0.526113 -0.434909
    37 1.789782 0.000000 -0.000004 0.247655 0.136337 -0.139322
    38 1.206999 0.000003 0.000002 -0.079911 -0.126701 0.512865
    39 -5.113727 3.441511 -16.155657 0.324262 -0.169675 0.084725
    40 -4.359401 -21.430341 -8.254128 0.324277 -0.169663 0.084707
    41 0.000000 7.169887 -1.514632 0.000000 0.000000 0.000000
    42 0.000000 6.250000 0.998666 0.000000 0.000000 0.000000
    43 0.000000 -2.750000 0.000000 0.000000 0.000000 0.000000
    44 0.000000 2.052265 0.000000 0.000000 0.000000 0.000000
    45 -5.488739 2.500076 -13.508162 0.411546 -0.169675 0.084725
    46 -5.281701 3.019623 -14.962370 0.324280 -0.169675 0.084725
    47 -5.609806 2.199286 -12.651226 0.324281 -0.169654 0.084738
  time 7
    0 0.000000 -0.000006 0.000000 -1.570798 -1.391899 -3.141590
    1 -6.613281 -2.207031 -1.115234 0.013226 -0.695278 -2.042891
    2 6.028141 0.000000 0.000000 -1.521839 -0.737445 -0.630103
    3 11.692554 0.000001 0.000002 0.000000 0.000000 -1.138882
    4 11.481674 0.000001 -0.000032 -0.053436 0.084630 1.099468
    5 3.859709 -0.142404 -1.191975 -0.583834 0.057745 -1.715148
    6 1.312555 -0.000002 0.000001 -0.282364 0.024800 -0.268300
    7 0.729363 -0.000002 -0.000002 0.000000 0.000000 -0.415147
    8 3.942335 0.046767 -0.431443 -0.443389 0.236328 -1.284431
    9 1.539097 0.000000 0.000000 0.000000 0.000000 -0.637382
    10 1.196326 -0.000002 -0.000001 0.000000 0.000000 -0.703202
    11 3.883696 -0.046765 0.431443 -0.258899 0.387633 -0.931701
    12 1.719570 -0.000004 -0.000001 -0.002880 0.004705 -0.915718
    13 1.209171 -0.000002 0.000000 -0.001237 0.002825 -0.629490
    14 3.859865 -0.137947 1.332466 -0.099428 0.461302 -0.732690
    15 1.719429 0.000002 -0.000001 -0.000544 0.004038 -0.496891
    16 1.099665 0.000000 0.000000 -0.001800 0.001871 -1.010281
    17 0.806053 -0.348925 1.321258 -0.999332 -0.293320 -0.995301
    18 1.789780 -0.000002 0.000002 0.140675 -0.306410 0.053012
    19 1.207006 0.000000 0.000000 0.218335 -0.153079 0.470467
    20 -3.794922 2.695313 -6.742188 3.066403 -0.024148 1.435052
    21 6.028144 0.000000 0.000000 1.747539 0.796843 -0.460719
    22 11.692554 0.000001 0.000003 0.000000 0.000024 -1.605035
    23 11.481697 0.000001 0.000002 -1.822833 -0.116984 0.771333
    24 3.859678 -0.132570 1.193109 0.186168 0.141476 -2.045591
    25 1.312557 -0.000002 0.000001 0.161624 0.089573 -0.830095
    26 0.729365 0.000002 -0.000002 -0.018936 -0.033269 -0.935773
    27 3.942305 0.050327 0.431044 0.215538 -0.059946 -1.636201
    28 1.539099 -0.000002 0.000000 0.000000 0.000000 -1.249142
    29 1.196321 0.000008 0.000000 0.000000 0.000000 -1.477823
    30 3.883661 -0.050323 -0.431042 0.099370 -0.278522 -1.379023
    31 1.719578 0.000004 0.000000 0.007251 -0.003312 -1.509583
    32 1.209185 0.000002 0.000000 0.004350 -0.000961 -1.572057
    33 3.859838 -0.148937 -1.331282 -0.333493 -0.043430 -0.214495
    34 1.719423 0.000002 0.000000 0.006028 -0.002718 -1.511495
    35 1.099667 0.000002 0.000000 0.004207 0.000056 -1.830752
    36 0.806021 -0.359837 -1.318334 1.282105 0.523728 -0.444293
    37 1.789782 0.000000 -0.000004 0.254427 0.148261 -0.127857
    38 1.206999 0.000003 0.000002 -0.053305 -0.108305 0.554847
    39 -4.691839 2.363353 -17.378350 0.248317 -0.164916 0.082770
    40 -4.304712 -21.856136 -7.636921 0.248346 -0.164902 0.082796
    41 0.000000 7.169887 -1.514632 0.000000 0.000000 0.000000
    42 0.000000 6.250000 0.998666 0.000000 0.000000 0.000000
    43 0.000000 -2.750000 0.000000 0.000000 0.000000 0.000000
    44 0.000000 2.052265 0.000000 0.000000 0.000000 0.000000
    45 -5.082476 1.628956 -14.668354 0.335618 -0.164916 0.082770
    46 -4.867626 2.031312 -16.161626 0.248352 -0.164916 0.082770
    47 -5.207450 1.394574 -13.791886 0.248341 -0.164893 0.082765
  time 8
    0 0.000000 -0.000006 0.000000 -1.570798 -1.391899 -3.141590
    1 -6.613281 -2.207031 -1.115234 0.013226 -0.695278 -2.042891
    2 6.028141 0.000000 0.000000 -1.554966 -0.771531 -0.601208
    3 11.692554 0.000001 0.000002 0.000000 0.000000 -1.083758
    4 11.481674 0.000001 -0.000032 -0.022782 0.057683 1.023313
    5 3.859709 -0.142404 -1.191975 -0.583834 0.057745 -1.715148
    6 1.312555 -0.000002 0.000001 -0.282364 0.024800 -0.268300
    7 0.729363 -0.000002 -0.000002 0.000000 0.000000 -0.415147
    8 3.942335 0.046767 -0.431443 -0.443389 0.236328 -1.284431
    9 1.539097 0.000000 0.000000 0.000000 0.000000 -0.637382
    10 1.196326 -0.000002 -0.000001 0.000000 0.000000 -0.703202
    11 3.883696 -0.046765 0.431443 -0.258899 0.387633 -0.931701
    12 1.719570 -0.000004 -0.000001 -0.002880 0.004705 -0.915718
    13 1.209171 -0.000002 0.000000 -0.001237 0.002825 -0.629490
    14 3.859865 -0.137947 1.332466 -0.099428 0.461302 -0.732690
    15 1.719429 0.000002 -0.000001 -0.000544 0.004038 -0.496891
    16 1.099665 0.000000 0.000000 -0.001800 0.001871 -1.010281
    17 0.806053 -0.348925 1.321258 -0.993520 -0.286528 -1.014752
    18 1.789780 -0.000002 0.000002 0.154074 -0.285819 0.043248
    19 1.207006 0.000000 0.000000 0.235473 -0.169534 0.530473
    20 -3.794922 2.695313 -6.742188 3.066403 -0.024148 1.435052
    21 6.028144 0.000000 0.000000 1.716431 0.871850 -0.475984
    22 11.692554 0.000001 0.000003 0.000000 0.000024 -1.526173
    23 11.481697 0.000001 0.000002 -1.862863 -0.042924 0.790536
    24 3.859678 -0.132570 1.193109 0.179229 0.134726 -2.065252
    25 1.312557 -0.000002 0.000001 0.158125 0.092257 -0.848343
    26 0.729365 0.000002 -0.000002 -0.019787 -0.034767 -0.954115
    27 3.942305 0.050327 0.431044 0.208910 -0.067297 -1.656237
    28 1.539099 -0.000002 0.000000 0.000000 0.000000 -1.267492
    29 1.196321 0.000008 0.000000 0.000000 0.000000 -1.496136
    30 3.883661 -0.050323 -0.431042 0.091835 -0.286222 -1.403728
    31 1.719578 0.000004 0.000000 0.007323 -0.003144 -1.532385
    32 1.209185 0.000002 0.000000 0.004374 -0.000854 -1.594787
    33 3.859838 -0.148937 -1.331282 -0.370600 -0.098948 -0.344017
    34 1.719423 0.000002 0.000000 0.006508 -0.001160 -1.758340
    35 1.099667 0.000002 0.000000 0.004051 0.001122 -2.086827
    36 0.806021 -0.359837 -1.318334 1.278080 0.521622 -0.452349
    37 1.789782 0.000000 -0.000004 0.263121 0.160234 -0.124919
    38 1.206999 0.000003 0.000002 -0.020834 -0.068576 0.633677
    39 -4.281671 1.199255 -18.616669 0.171168 -0.160978 0.081205
    40 -4.257836 -22.207709 -7.058779 0.171173 -0.160996 0.081212
    41 0.000000 7.169887 -1.514632 0.000000 0.000000 0.000000
    42 0.000000 6.250000 0.998666 0.000000 0.000000 0.000000
    43 0.000000 -2.750000 0.000000 0.000000 0.000000 0.000000
    44 0.000000 2.052265 0.000000 0.000000 0.000000 0.000000
    45 -4.687933 0.683615 -15.859797 0.258428 -0.160978 0.081205
    46 -4.461364 0.964873 -17.376506 0.171162 -0.160978 0.081205
    47 -4.820719 0.515641 -14.967703 0.171179 -0.160967 0.081200
  time 9
    0 0.000000 -0.000006 0.000000 -1.570798 -1.391899 -3.141590
    1 -6.613281 -2.207031 -1.115234 0.013226 -0.695278 -2.042891
    2 6.028141 0.000000 0.000000 -1.585006 -0.800701 -0.574363
    3 11.692554 0.000001 0.000002 0.000000 0.000000 -1.039155
    4 11.481674 0.000001 -0.000032 0.003503 0.037310 0.962113
    5 3.859709 -0.142404 -1.191975 -0.583834 0.057745 -1.715148
    6 1.312555 -0.000002 0.000001 -0.282364 0.024800 -0.268300
    7 0.729363 -0.000002 -0.000002 0.000000 0.000000 -0.415147
    8 3.942335 0.046767 -0.431443 -0.443389 0.236328 -1.284431
    9 1.539097 0.000000 0.000000 0.000000 0.000000 -0.637382
    10 1.196326 -0.000002 -0.000001 0.000000 0.000000 -0.703202
    11 3.883696 -0.046765 0.431443 -0.258899 0.387633 -0.931701
    12 1.719570 -0.000004 -0.000001 -0.002880 0.004705 -0.915718
    13 1.209171 -0.000002 0.000000 -0.001237 0.002825 -0.629490
    14 3.859865 -0.137947 1.332466 -0.099428 0.461302 -0.732690
    15 1.719429 0.000002 -0.000001 -0.000544 0.004038 -0.496891
    16 1.099665 0.000000 0.000000 -0.001800 0.001871 -1.010281
    17 0.806053 -0.348925 1.321258 -0.991362 -0.283959 -1.021991
    18 1.789780 -0.000002 0.000002 0.159059 -0.278122 0.039667
    19 1.207006 0.000000 0.000000 0.241825 -0.175646 0.552881
    20 -3.794922 2.695313 -6.742188 3.066403 -0.024148 1.435052
    21 6.028144 0.000000 0.000000 1.692254 0.911723 -0.490489
    22 11.692554 0.000001 0.000003 0.000000 0.000024 -1.475723
    23 11.481697 0.000001 0.000002 -1.878279 0.029779 0.783318
    24 3.859678 -0.132570 1.193109 0.179229 0.134726 -2.065252
    25 1.312557 -0.000002 0.000001 0.158125 0.092257 -0.848343
    26 0.729365 0.000002 -0.000002 -0.019787 -0.034767 -0.954115
    27 3.942305 0.050327 0.431044 0.208910 -0.067297 -1.656237
    28 1.539099 -0.000002 0.000000 0.000000 0.000000 -1.267492
    29 1.196321 0.000008 0.000000 0.000000 0.000000 -1.496136
    30 3.883661 -0.050323 -0.431042 0.091835 -0.286222 -1.403753
    31 1.719578 0.000004 0.000000 0.007323 -0.003144 -1.532385
    32 1.209185 0.000002 0.000000 0.004374 -0.000854 -1.594787
    33 3.859838 -0.148937 -1.331282 -0.393583 -0.152740 -0.486716
    34 1.719423 0.000002 0.000000 0.006508 -0.001160 -1.758340
    35 1.099667 0.000002 0.000000 0.004051 0.001122 -2.086827
    36 0.806021 -0.359837 -1.318334 1.275069 0.519551 -0.458037
    37 1.789782 0.000000 -0.000004 0.275857 0.174088 -0.139609
    38 1.206999 0.000003 0.000002 0.003715 -0.024545 0.730746
    39 -3.945723 0.171880 -19.546385 0.107460 -0.158316 0.080110
    40 -4.210959 -22.461623 -6.539232 0.107463 -0.158315 0.080120
    41 0.000000 7.169887 -1.514632 0.000000 0.000000 0.000000
    42 0.000000 6.250000 0.998666 0.000000 0.000000 0.000000
    43 0.000000 -2.750000 0.000000 0.000000 0.000000 0.000000
    44 0.000000 2.052265 0.000000 0.000000 0.000000 0.000000
    45 -4.363704 -0.164068 -16.762168 0.194711 -0.158316 0.080110
    46 -4.133229 0.019532 -18.294503 0.107445 -0.158316 0.080110
    47 -4.500397 -0.273446 -15.862262 0.107452 -0.158309 0.080112
  time 10
    0 0.000000 -0.000006 0.000000 -1.570798 -1.391899 -3.141590
    1 -6.613281 -2.207031 -1.115234 0.013226 -0.695278 -2.042891
    2 6.028141 0.000000 0.000000 -1.609340 -0.819638 -0.552167
    3 11.692554 0.000001 0.000002 0.000000 0.000000 -1.018623
    4 11.481674 0.000001 -0.000032 0.021720 0.028165 0.932313
    5 3.859709 -0.142404 -1.191975 -0.583834 0.057745 -1.715148
    6 1.312555 -0.000002 0.000001 -0.282364 0.024800 -0.268300
    7 0.729363 -0.000002 -0.000002 0.000000 0.000000 -0.415147
    8 3.942335 0.046767 -0.431443 -0.443389 0.236328 -1.284431
    9 1.539097 0.000000 0.000000 0.000000 0.000000 -0.637382
    10 1.196326 -0.000002 -0.000001 0.000000 0.000000 -0.703202
    11 3.883696 -0.046765 0.431443 -0.258899 0.387633 -0.931701
    12 1.719570 -0.000004 -0.000001 -0.002880 0.004705 -0.915718
    13 1.209171 -0.000002 0.000000 -0.001237 0.002825 -0.629490
    14 3.859865 -0.137947 1.332466 -0.099428 0.461302 -0.732690
    15 1.719429 0.000002 -0.000001 -0.000544 0.004038 -0.496891
    16 1.099665 0.000000 0.000000 -0.001800 0.001871 -1.010281
    17 0.806053 -0.348925 1.321258 -0.991362 -0.283959 -1.021991
    18 1.789780 -0.000002 0.000002 0.159059 -0.278122 0.039667
    19 1.207006 0.000000 0.000000 0.241837 -0.175646 0.552881
    20 -3.794922 2.695313 -6.742188 3.066403 -0.024148 1.435052
    21 6.028144 0.000000 0.000000 1.675990 0.912932 -0.502559
    22 11.692554 0.000001 0.000003 0.000000 0.000024 -1.478950
    23 11.481697 0.000001 0.000002 -1.877234 0.097639 0.771590
    24 3.859678 -0.132570 1.193109 0.179229 0.134726 -2.065288
    25 1.312557 -0.000002 0.000001 0.158125 0.092257 -0.848343
    26 0.729365 0.000002 -0.000002 -0.019787 -0.034767 -0.954115
    27 3.942305 0.050327 0.431044 0.208910 -0.067310 -1.656237
    28 1.539099 -0.000002 0.000000 0.000000 0.000000 -1.267492
    29 1.196321 0.000008 0.000000 0.000000 0.000000 -1.496136
    30 3.883661 -0.050323 -0.431042 0.091835 -0.286222 -1.403728
    31 1.719578 0.000004 0.000000 0.007323 -0.003144 -1.532385
    32 1.209185 0.000002 0.000000 0.004374 -0.000854 -1.594787
    33 3.859838 -0.148937 -1.331282 -0.395585 -0.193724 -0.617838
    34 1.719423 0.000002 0.000000 0.006508 -0.001160 -1.758340
    35 1.099667 0.000002 0.000000 0.004051 0.001122 -2.086827
    36 0.806021 -0.359837 -1.318334 1.272848 0.517061 -0.461566
    37 1.789782 0.000000 -0.000004 0.293049 0.190639 -0.173960
    38 1.206999 0.000003 0.000002 0.006080 0.005812 0.828828
    39 -3.726966 -0.457045 -19.979992 0.067774 -0.157353 0.079719
    40 -4.171896 -22.563189 -6.097812 0.067799 -0.157344 0.079683
    41 0.000000 7.169887 -1.514632 0.000000 0.000000 0.000000
    42 0.000000 6.250000 0.998666 0.000000 0.000000 0.000000
    43 0.000000 -2.750000 0.000000 0.000000 0.000000 0.000000
    44 0.000000 2.052265 0.000000 0.000000 0.000000 0.000000
    45 -4.156667 -0.683615 -17.184056 0.155042 -0.157353 0.079719
    46 -3.918378 -0.558611 -18.724204 0.067776 -0.157353 0.079719
    47 -4.293359 -0.757836 -16.284150 0.067792 -0.157351 0.079703
  time 11
    0 0.000000 -0.000006 0.000000 -1.570798 -1.391899 -3.141590
    1 -6.613281 -2.207031 -1.115234 0.013226 -0.695278 -2.042891
    2 6.028141 0.000000 0.000000 -1.626405 -0.827910 -0.536815
    3 11.692554 0.000001 0.000002 0.000000 0.000000 -1.020765
    4 11.481674 0.000001 -0.000032 0.032611 0.029656 0.934880
    5 3.859709 -0.142404 -1.191975 -0.583834 0.057745 -1.715148
    6 1.312555 -0.000002 0.000001 -0.282364 0.024800 -0.268300
    7 0.729363 -0.000002 -0.000002 0.000000 0.000000 -0.415147
    8 3.942335 0.046767 -0.431443 -0.443389 0.236328 -1.284431
    9 1.539097 0.000000 0.000000 0.000000 0.000000 -0.637382
    10 1.196326 -0.000002 -0.000001 0.000000 0.000000 -0.703202
    11 3.883696 -0.046765 0.431443 -0.258899 0.387633 -0.931701
    12 1.719570 -0.000004 -0.000001 -0.002880 0.004705 -0.915718
    13 1.209171 -0.000002 0.000000 -0.001237 0.002825 -0.629490
    14 3.859865 -0.137947 1.332466 -0.099428 0.461302 -0.732690
    15 1.719429 0.000002 -0.000001 -0.000544 0.004038 -0.496891
    16 1.099665 0.000000 0.000000 -0.001800 0.001871 -1.010281
    17 0.806053 -0.348925 1.321258 -0.991362 -0.283959 -1.021991
    18 1.789780 -0.000002 0.000002 0.159059 -0.278122 0.039667
    19 1.207006 0.000000 0.000000 0.241837 -0.175646 0.552881
    20 -3.794922 2.695313 -6.742188 3.066403 -0.024148 1.435052
    21 6.028144 0.000000 0.000000 1.666276 0.908563 -0.510115
    22 11.692554 0.000001 0.000003 0.000000 0.000024 -1.492251
    23 11.481697 0.000001 0.000002 -1.864692 0.155951 0.757994
    24 3.859678 -0.132570 1.193109 0.179229 0.134726 -2.065252
    25 1.312557 -0.000002 0.000001 0.158125 0.092257 -0.848343
    26 0.729365 0.000002 -0.000002 -0.019787 -0.034767 -0.954115
    27 3.942305 0.050327 0.431044 0.208910 -0.067297 -1.656237
    28 1.539099 -0.000002 0.000000 0.000000 0.000000 -1.267492
    29 1.196321 0.000008 0.000000 0.000000 0.000000 -1.496136
    30 3.883661 -0.050323 -0.431042 0.091835 -0.286222 -1.403728
    31 1.719578 0.000004 0.000000 0.007323 -0.003144 -1.532385
    32 1.209185 0.000002 0.000000 0.004374 -0.000854 -1.594787
    33 3.859838 -0.148937 -1.331282 -0.378199 -0.225980 -0.753693
    34 1.719423 0.000002 0.000000 0.006508 -0.001160 -1.758340
    35 1.099667 0.000002 0.000000 0.004051 0.001122 -2.086883
    36 0.806021 -0.359837 -1.318334 1.270941 0.514172 -0.464099
    37 1.789782 0.000000 -0.000004 0.312534 0.207944 -0.220064
    38 1.206999 0.000003 0.000002 -0.009473 0.020721 0.943291
    39 -3.617588 -0.628925 -19.948741 0.054031 -0.159505 0.080423
    40 -4.136738 -22.547563 -5.773583 0.054038 -0.159517 0.080447
    41 0.000000 7.169887 -1.514632 0.000000 0.000000 0.000000
    42 0.000000 6.250000 0.998666 0.000000 0.000000 0.000000
    43 0.000000 -2.750000 0.000000 0.000000 0.000000 0.000000
    44 0.000000 2.075703 0.000000 0.000000 0.000000 0.000000
    45 -4.051195 -0.816431 -17.156711 0.141296 -0.159505 0.080423
    46 -3.812906 -0.710959 -18.692953 0.054030 -0.159505 0.080423
    47 -4.191794 -0.878933 -16.252899 0.054050 -0.159515 0.080452
  time 12
    0 0.000000 -0.000006 0.000000 -1.570798 -1.391899 -3.141590
    1 -6.613281 -2.207031 -1.115234 0.013226 -0.695278 -2.042891
    2 6.028141 0.000000 0.000000 -1.637621 -0.831033 -0.526928
    3 11.692554 0.000001 0.000002 0.000000 0.000000 -1.030077
    4 11.481674 0.000001 -0.000032 0.038123 0.039333 0.955380
    5 3.859709 -0.142404 -1.191975 -0.583834 0.057745 -1.715148
    6 1.312555 -0.000002 0.000001 -0.282364 0.024800 -0.268300
    7 0.729363 -0.000002 -0.000002 0.000000 0.000000 -0.415147
    8 3.942335 0.046767 -0.431443 -0.443389 0.236328 -1.284431
    9 1.539097 0.000000 0.000000 0.000000 0.000000 -0.637382
    10 1.196326 -0.000002 -0.000001 0.000000 0.000000 -0.703202
    11 3.883696 -0.046765 0.431443 -0.258899 0.387633 -0.931701
    12 1.719570 -0.000004 -0.000001 -0.002880 0.004705 -0.915718
    13 1.209171 -0.000002 0.000000 -0.001237 0.002825 -0.629490
    14 3.859865 -0.137947 1.332466 -0.099428 0.461302 -0.732690
    15 1.719429 0.000002 -0.000001 -0.000544 0.004038 -0.496891
    16 1.099665 0.000000 0.000000 -0.001800 0.001871 -1.010281
    17 0.806053 -0.348925 1.321258 -0.991362 -0.283959 -1.021991
    18 1.789780 -0.000002 0.000002 0.159059 -0.278122 0.039667
    19 1.207006 0.000000 0.000000 0.241825 -0.175646 0.552881
    20 -3.794922 2.695313 -6.742188 3.066403 -0.024148 1.435052
    21 6.028144 0.000000 0.000000 1.663165 0.901592 -0.512854
    22 11.692554 0.000001 0.000003 0.000000 0.000024 -1.509645
    23 11.481697 0.000001 0.000002 -1.842796 0.200204 0.744655
    24 3.859678 -0.132570 1.193109 0.179229 0.134726 -2.065252
    25 1.312557 -0.000002 0.000001 0.158125 0.092257 -0.848343
    26 0.729365 0.000002 -0.000002 -0.019787 -0.034767 -0.954115
    27 3.942305 0.050327 0.431044 0.208910 -0.067297 -1.656237
    28 1.539099 -0.000002 0.000000 0.000000 0.000000 -1.267492
    29 1.196321 0.000008 0.000000 0.000000 0.000000 -1.496136
    30 3.883661 -0.050323 -0.431042 0.091835 -0.286222 -1.403728
    31 1.719578 0.000004 0.000000 0.007323 -0.003144 -1.532385
    32 1.209185 0.000002 0.000000 0.004374 -0.000854 -1.594787
    33 3.859838 -0.148937 -1.331282 -0.350656 -0.255312 -0.914438
    34 1.719423 0.000002 0.000000 0.006508 -0.001160 -1.758340
    35 1.099667 0.000002 0.000000 0.004051 0.001122 -2.086827
    36 0.806021 -0.359837 -1.318334 1.268884 0.510917 -0.466778
    37 1.789782 0.000000 -0.000004 0.332107 0.224196 -0.269989
    38 1.206999 0.000003 0.000002 -0.024917 0.032382 1.081565
    39 -3.578524 -0.492203 -19.601074 0.060394 -0.164293 0.081831
    40 -4.105487 -22.508499 -5.574358 0.060392 -0.164301 0.081867
    41 0.000000 7.169887 -1.514632 0.000000 0.000000 0.000000
    42 0.000000 6.250000 0.998666 0.000000 0.000000 0.000000
    43 0.000000 -2.750000 0.000000 0.000000 0.000000 0.000000
    44 0.000000 2.188988 0.000000 0.000000 0.000000 0.000000
    45 -4.027757 -0.703146 -16.809044 0.147640 -0.164293 0.081831
    46 -3.781655 -0.585955 -18.345286 0.060374 -0.164293 0.081831
    47 -4.172262 -0.769555 -15.909138 0.060381 -0.164306 0.081880
  time 13
    0 0.000000 -0.000006 0.000000 -1.570798 -1.391899 -3.141590
    1 -6.613281 -2.207031 -1.115234 0.013226 -0.695278 -2.042891
    2 6.028141 0.000000 0.000000 -1.644539 -0.831564 -0.520972
    3 11.692554 0.000001 0.000002 0.000000 0.000000 -1.041204
    4 11.481674 0.000001 -0.000032 0.040610 0.051171 0.979785
    5 3.859709 -0.142404 -1.191975 -0.583834 0.057745 -1.715148
    6 1.312555 -0.000002 0.000001 -0.282364 0.024800 -0.268300
    7 0.729363 -0.000002 -0.000002 0.000000 0.000000 -0.415147
    8 3.942335 0.046767 -0.431443 -0.443389 0.236328 -1.284431
    9 1.539097 0.000000 0.000000 0.000000 0.000000 -0.637382
    10 1.196326 -0.000002 -0.000001 0.000000 0.000000 -0.703202
    11 3.883696 -0.046765 0.431443 -0.258899 0.387633 -0.931701
    12 1.719570 -0.000004 -0.000001 -0.002880 0.004705 -0.915718
    13 1.209171 -0.000002 0.000000 -0.001237 0.002825 -0.629490
    14 3.859865 -0.137947 1.332466 -0.099428 0.461302 -0.732690
    15 1.719429 0.000002 -0.000001 -0.000544 0.004038 -0.496891
    16 1.099665 0.000000 0.000000 -0.001800 0.001871 -1.010281
    17 0.806053 -0.348925 1.321258 -0.991362 -0.283959 -1.021991
    18 1.789780 -0.000002 0.000002 0.159059 -0.278122 0.039667
    19 1.207006 0.000000 0.000000 0.241825 -0.175646 0.552881
    20 -3.794922 2.695313 -6.742188 3.066403 -0.024148 1.435052
    21 6.028144 0.000000 0.000000 1.661910 0.890439 -0.514426
    22 11.692554 0.000001 0.000003 0.000000 0.000024 -1.534831
    23 11.481697 0.000001 0.000002 -1.814628 0.235241 0.736342
    24 3.859678 -0.132570 1.193109 0.179229 0.134726 -2.065252
    25 1.312557 -0.000002 0.000001 0.158125 0.092257 -0.848343
    26 0.729365 0.000002 -0.000002 -0.019787 -0.034767 -0.954115
    27 3.942305 0.050327 0.431044 0.208910 -0.067297 -1.656237
    28 1.539099 -0.000002 0.000000 0.000000 0.000000 -1.267492
    29 1.196321 0.000008 0.000000 0.000000 0.000000 -1.496136
    30 3.883661 -0.050323 -0.431042 0.091835 -0.286222 -1.403728
    31 1.719578 0.000004 0.000000 0.007323 -0.003144 -1.532385
    32 1.209185 0.000002 0.000000 0.004374 -0.000854 -1.594787
    33 3.859838 -0.148937 -1.331282 -0.319240 -0.277391 -1.078656
    34 1.719423 0.000002 0.000000 0.006508 -0.001160 -1.758340
    35 1.099667 0.000002 0.000000 0.004051 0.001122 -2.086827
    36 0.806021 -0.359837 -1.318334 1.266201 0.507296 -0.470743
    37 1.789782 0.000000 -0.000004 0.349408 0.237702 -0.315650
    38 1.206999 0.000003 0.000002 -0.036309 0.041538 1.215617
    39 -3.574618 -0.253914 -19.175280 0.074025 -0.169080 0.082613
    40 -4.085955 -22.461623 -5.457167 0.074027 -0.169085 0.082632
    41 0.000000 7.169887 -1.514632 0.000000 0.000000 0.000000
    42 0.000000 6.250000 0.998666 0.000000 0.000000 0.000000
    43 0.000000 -2.750000 0.000000 0.000000 0.000000 0.000000
    44 0.000000 2.517123 0.000000 0.000000 0.000000 0.000000
    45 -4.031663 -0.503922 -16.391063 0.161284 -0.169080 0.082613
    46 -3.781655 -0.367199 -17.923398 0.074018 -0.169080 0.082613
    47 -4.180074 -0.582049 -15.487250 0.074033 -0.169067 0.082629
  time 14
    0 0.000000 -0.000006 0.000000 -1.570798 -1.391899 -3.141590
    1 -6.613281 -2.207031 -1.115234 0.013226 -0.695278 -2.042891
    2 6.028141 0.000000 0.000000 -1.647144 -0.831033 -0.518826
    3 11.692554 0.000001 0.000002 0.000000 0.000000 -1.049119
    4 11.481674 0.000001 -0.000032 0.041081 0.056466 0.994443
    5 3.859709 -0.142404 -1.191975 -0.583834 0.057745 -1.715148
    6 1.312555 -0.000002 0.000001 -0.282364 0.024800 -0.268300
    7 0.729363 -0.000002 -0.000002 0.000000 0.000000 -0.415147
    8 3.942335 0.046767 -0.431443 -0.443389 0.236328 -1.284431
    9 1.539097 0.000000 0.000000 0.000000 0.000000 -0.637382
    10 1.196326 -0.000002 -0.000001 0.000000 0.000000 -0.703202
    11 3.883696 -0.046765 0.431443 -0.258899 0.387633 -0.931701
    12 1.719570 -0.000004 -0.000001 -0.002880 0.004705 -0.915718
    13 1.209171 -0.000002 0.000000 -0.001237 0.002825 -0.629490
    14 3.859865 -0.137947 1.332466 -0.099428 0.461302 -0.732690
    15 1.719429 0.000002 -0.000001 -0.000544 0.004038 -0.496891
    16 1.099665 0.000000 0.000000 -0.001800 0.001871 -1.010281
    17 0.806053 -0.348925 1.321258 -0.991362 -0.283959 -1.021991
    18 1.789780 -0.000002 0.000002 0.159059 -0.278122 0.039667
    19 1.207006 0.000000 0.000000 0.241837 -0.175646 0.552881
    20 -3.794922 2.695313 -6.742188 3.066403 -0.024148 1.435052
    21 6.028144 0.000000 0.000000 1.656179 0.874824 -0.519599
    22 11.692554 0.000001 0.000003 0.000000 0.000024 -1.563243
    23 11.481697 0.000001 0.000002 -1.783378 0.266321 0.728287
    24 3.859678 -0.132570 1.193109 0.179229 0.134726 -2.065252
    25 1.312557 -0.000002 0.000001 0.158125 0.092257 -0.848343
    26 0.729365 0.000002 -0.000002 -0.019787 -0.034767 -0.954115
    27 3.942305 0.050327 0.431044 0.208910 -0.067297 -1.656237
    28 1.539099 -0.000002 0.000000 0.000000 0.000000 -1.267492
    29 1.196321 0.000008 0.000000 0.000000 0.000000 -1.496136
    30 3.883661 -0.050323 -0.431042 0.091835 -0.286222 -1.403728
    31 1.719578 0.000004 0.000000 0.007323 -0.003144 -1.532385
    32 1.209185 0.000002 0.000000 0.004374 -0.000854 -1.594787
    33 3.859838 -0.148937 -1.331282 -0.290474 -0.291020 -1.223806
    34 1.719423 0.000002 0.000000 0.006508 -0.001160 -1.758340
    35 1.099667 0.000002 0.000000 0.004051 0.001122 -2.086827
    36 0.806021 -0.359837 -1.318334 1.262459 0.503275 -0.477158
    37 1.789782 0.000000 -0.000004 0.361794 0.246906 -0.348963
    38 1.206999 0.000003 0.000002 -0.042911 0.047555 1.317042
    39 -3.601962 -0.109378 -18.952617 0.081555 -0.171261 0.083787
    40 -4.078143 -22.422559 -5.402478 0.081561 -0.171258 0.083779
    41 0.000000 7.169887 -1.514632 0.000000 0.000000 0.000000
    42 0.000000 6.250000 0.998666 0.000000 0.000000 0.000000
    43 0.000000 -2.750000 0.000000 0.000000 0.000000 0.000000
    44 0.000000 2.860884 0.000000 0.000000 0.000000 0.000000
    45 -4.059008 -0.382824 -16.168400 0.168822 -0.171261 0.083787
    46 -3.809000 -0.234382 -17.700735 0.081556 -0.171261 0.083787
    47 -4.211325 -0.468764 -15.268494 0.081551 -0.171262 0.083785
  time 15
    0 0.000000 -0.000006 0.000000 -1.570798 -1.391899 -3.141590
    1 -6.613281 -2.207031 -1.115234 0.013226 -0.695278 -2.042891
    2 6.028141 0.000000 0.000000 -1.646180 -0.832860 -0.519665
    3 11.692554 0.000001 0.000002 0.000000 0.000000 -1.047955
    4 11.481674 0.000001 -0.000032 0.049820 0.047474 0.991988
    5 3.859709 -0.142404 -1.191975 -0.583834 0.057745 -1.715148
    6 1.312555 -0.000002 0.000001 -0.282364 0.024800 -0.268300
    7 0.729363 -0.000002 -0.000002 0.000000 0.000000 -0.415147
    8 3.942335 0.046767 -0.431443 -0.443389 0.236328 -1.284431
    9 1.539097 0.000000 0.000000 0.000000 0.000000 -0.637382
    10 1.196326 -0.000002 -0.000001 0.000000 0.000000 -0.703202
    11 3.883696 -0.046765 0.431443 -0.258899 0.387633 -0.931701
    12 1.719570 -0.000004 -0.000001 -0.002880 0.004705 -0.915718
    13 1.209171 -0.000002 0.000000 -0.001237 0.002825 -0.629490
    14 3.859865 -0.137947 1.332466 -0.099428 0.461302 -0.732690
    15 1.719429 0.000002 -0.000001 -0.000544 0.004038 -0.496891
    16 1.099665 0.000000 0.000000 -0.001800 0.001871 -1.010281
    17 0.806053 -0.348925 1.321258 -0.991362 -0.283959 -1.021991
    18 1.789780 -0.000002 0.000002 0.159059 -0.278122 0.039667
    19 1.207006 0.000000 0.000000 0.241825 -0.175646 0.552881
    20 -3.794922 2.695313 -6.742188 3.066403 -0.024148 1.435052
    21 6.028144 0.000000 0.000000 1.640625 0.854422 -0.532024
    22 11.692554 0.000001 0.000003 0.000000 0.000024 -1.584966
    23 11.481697 0.000001 0.000002 -1.741937 0.297843 0.714561
    24 3.859678 -0.132570 1.193109 0.179229 0.134726 -2.065252
    25 1.312557 -0.000002 0.000001 0.158125 0.092257 -0.848343
    26 0.729365 0.000002 -0.000002 -0.019787 -0.034767 -0.954115
    27 3.942305 0.050327 0.431044 0.208910 -0.067297 -1.656263
    28 1.539099 -0.000002 0.000000 0.000000 0.000000 -1.267492
    29 1.196321 0.000008 0.000000 0.000000 0.000000 -1.496136
    30 3.883661 -0.050323 -0.431042 0.091835 -0.286222 -1.403753
    31 1.719578 0.000004 0.000000 0.007323 -0.003144 -1.532385
    32 1.209185 0.000002 0.000000 0.004374 -0.000854 -1.594787
    33 3.859838 -0.148937 -1.331282 -0.269938 -0.297605 -1.327281
    34 1.719423 0.000002 0.000000 0.006508 -0.001160 -1.758340
    35 1.099667 0.000002 0.000000 0.004051 0.001122 -2.086827
    36 0.806021 -0.359837 -1.318334 1.257243 0.498854 -0.487144
    37 1.789782 0.000000 -0.000004 0.366513 0.250322 -0.361864
    38 1.206999 0.000003 0.000002 -0.046150 0.049664 1.357234
    39 -3.539460 -0.226569 -19.159654 0.070937 -0.178456 0.086290
    40 -4.113300 -22.406934 -5.394665 0.070945 -0.178469 0.086291
    41 0.000000 7.169887 -1.514632 0.000000 0.000000 0.000000
    42 0.000000 6.250000 0.998666 0.000000 0.000000 0.000000
    43 0.000000 -2.750000 0.000000 0.000000 0.000000 0.000000
    44 0.000000 2.849164 0.000000 0.000000 0.000000 0.000000
    45 -4.023850 -0.472671 -16.375437 0.158180 -0.178456 0.086290
    46 -3.758217 -0.335948 -17.907773 0.070914 -0.178456 0.086290
    47 -4.180074 -0.550798 -15.475531 0.070939 -0.178465 0.086302
  time 16
    0 0.000000 -0.000006 0.000000 -1.570798 -1.391899 -3.141590
    1 -6.613281 -2.207031 -1.115234 0.013226 -0.695278 -2.042891
    2 6.028141 0.000000 0.000000 -1.645893 -0.835983 -0.519785
    3 11.692554 0.000001 0.000002 0.000000 0.000000 -1.041157
    4 11.481674 0.000001 -0.000032 0.064475 0.038907 0.987747
    5 3.859709 -0.142404 -1.191975 -0.583834 0.057745 -1.715148
    6 1.312555 -0.000002 0.000001 -0.282364 0.024800 -0.268300
    7 0.729363 -0.000002 -0.000002 0.000000 0.000000 -0.415147
    8 3.942335 0.046767 -0.431443 -0.443389 0.236328 -1.284431
    9 1.539097 0.000000 0.000000 0.000000 0.000000 -0.637382
    10 1.196326 -0.000002 -0.000001 0.000000 0.000000 -0.703202
    11 3.883696 -0.046765 0.431443 -0.258899 0.387633 -0.931701
    12 1.719570 -0.000004 -0.000001 -0.002880 0.004705 -0.915718
    13 1.209171 -0.000002 0.000000 -0.001237 0.002825 -0.629490
    14 3.859865 -0.137947 1.332466 -0.099428 0.461302 -0.732690
    15 1.719429 0.000002 -0.000001 -0.000544 0.004038 -0.496891
    16 1.099665 0.000000 0.000000 -0.001800 0.001871 -1.010281
    17 0.806053 -0.348925 1.321258 -0.991362 -0.283959 -1.021991
    18 1.789780 -0.000002 0.000002 0.159059 -0.278122 0.039667
    19 1.207006 0.000000 0.000000 0.241837 -0.175646 0.552881
    20 -3.794922 2.695313 -6.742188 3.066403 -0.024148 1.435052
    21 6.028144 0.000000 0.000000 1.638606 0.835136 -0.534864
    22 11.692554 0.000001 0.000003 0.000000 0.000024 -1.586697
    23 11.481697 0.000001 0.000002 -1.680272 0.277696 0.696905
    24 3.859678 -0.132570 1.193109 0.193982 0.119596 -2.017566
    25 1.312557 -0.000002 0.000001 0.162523 0.086301 -0.813568
    26 0.729365 0.000002 -0.000002 -0.019679 -0.033725 -0.916325
    27 3.942305 0.050327 0.431044 0.216580 -0.080767 -1.612551
    28 1.539099 -0.000002 0.000000 0.000000 0.000000 -1.223182
    29 1.196321 0.000008 0.000000 0.000000 0.000000 -1.449154
    30 3.883661 -0.050323 -0.431042 0.097624 -0.296857 -1.363558
    31 1.719578 0.000004 0.000000 0.007167 -0.003492 -1.485326
    32 1.209185 0.000002 0.000000 0.004314 -0.001141 -1.530890
    33 3.859838 -0.148937 -1.331282 -0.262153 -0.299429 -1.366641
    34 1.719423 0.000002 0.000000 0.006508 -0.001160 -1.758340
    35 1.099667 0.000002 0.000000 0.004051 0.001122 -2.086827
    36 0.806021 -0.359837 -1.318334 1.250088 0.493980 -0.501802
    37 1.789782 0.000000 -0.000004 0.363149 0.227419 -0.331754
    38 1.206999 0.000003 0.000002 -0.069947 0.026570 1.037050
    39 -3.391018 -0.382824 -19.378411 0.060319 -0.191854 0.088792
    40 -4.148457 -22.430372 -5.418104 0.060313 -0.191873 0.088803
    41 0.000000 7.169887 -1.514632 0.000000 0.000000 0.000000
    42 0.000000 6.250000 0.998666 0.000000 0.000000 0.000000
    43 0.000000 -2.750000 0.000000 0.000000 0.000000 0.000000
    44 0.000000 2.849164 0.000000 0.000000 0.000000 0.000000
    45 -3.910565 -0.597674 -16.598100 0.147572 -0.191854 0.088792
    46 -3.625401 -0.480483 -18.126529 0.060306 -0.191854 0.088792
    47 -4.082415 -0.667989 -15.702101 0.060309 -0.191850 0.088819
  time 17
    0 0.000000 -0.000006 0.000000 -1.570798 -1.391899 -3.141590
    1 -6.613281 -2.207031 -1.115234 0.013226 -0.695278 -2.042891
    2 6.028141 0.000000 0.000000 -1.646063 -0.836182 -0.519605
    3 11.692554 0.000001 0.000002 0.000000 0.000000 -1.039202
    4 11.481674 0.000001 -0.000032 0.069315 0.041053 0.993439
    5 3.859709 -0.142404 -1.191975 -0.583834 0.057745 -1.715148
    6 1.312555 -0.000002 0.000001 -0.282364 0.024800 -0.268300
    7 0.729363 -0.000002 -0.000002 0.000000 0.000000 -0.415147
    8 3.942335 0.046767 -0.431443 -0.443389 0.236328 -1.284431
    9 1.539097 0.000000 0.000000 0.000000 0.000000 -0.637382
    10 1.196326 -0.000002 -0.000001 0.000000 0.000000 -0.703202
    11 3.883696 -0.046765 0.431443 -0.258899 0.387633 -0.931701
    12 1.719570 -0.000004 -0.000001 -0.002880 0.004705 -0.915718
    13 1.209171 -0.000002 0.000000 -0.001237 0.002825 -0.629490
    14 3.859865 -0.137947 1.332466 -0.099428 0.461302 -0.732690
    15 1.719429 0.000002 -0.000001 -0.000544 0.004038 -0.496891
    16 1.099665 0.000000 0.000000 -0.001800 0.001871 -1.010281
    17 0.806053 -0.348925 1.321258 -0.991362 -0.283947 -1.021991
    18 1.789780 -0.000002 0.000002 0.159059 -0.278122 0.039667
    19 1.207006 0.000000 0.000000 0.241837 -0.175646 0.552881
    20 -3.794922 2.695313 -6.742188 3.066403 -0.024148 1.435052
    21 6.028144 0.000000 0.000000 1.662292 0.813015 -0.519599
    22 11.692554 0.000001 0.000003 0.000000 0.000024 -1.583549
    23 11.481697 0.000001 0.000002 -1.603452 0.183239 0.680537
    24 3.859678 -0.132570 1.193109 0.228689 0.078200 -1.900289
    25 1.312557 -0.000002 0.000001 0.172854 0.070397 -0.724110
    26 0.729365 0.000002 -0.000002 -0.019367 -0.030968 -0.818850
    27 3.942305 0.050327 0.431044 0.233323 -0.116330 -1.503695
    28 1.539099 -0.000002 0.000000 0.000000 0.000000 -1.108963
    29 1.196321 0.000008 0.000000 0.000000 0.000000 -1.328003
    30 3.883661 -0.050323 -0.431042 0.110869 -0.323624 -1.262497
    31 1.719578 0.000004 0.000000 0.006699 -0.004331 -1.364040
    32 1.209185 0.000002 0.000000 0.004063 -0.001824 -1.366020
    33 3.859838 -0.148937 -1.331282 -0.283227 -0.285897 -1.256731
    34 1.719423 0.000002 0.000000 0.006352 -0.001819 -1.656111
    35 1.099667 0.000002 0.000000 0.004147 0.000691 -1.981788
    36 0.806021 -0.359837 -1.318334 1.227506 0.504738 -0.566639
    37 1.789782 0.000000 -0.000004 0.352030 0.173033 -0.257817
    38 1.206999 0.000003 0.000002 -0.058617 0.017018 0.640162
    39 -3.340236 -0.328135 -19.288565 0.065327 -0.199077 0.089966
    40 -4.144551 -22.457717 -5.457167 0.065346 -0.199084 0.089950
    41 0.000000 7.169887 -1.514632 0.000000 0.000000 0.000000
    42 0.000000 6.250000 0.998666 0.000000 0.000000 0.000000
    43 0.000000 -2.750000 0.000000 0.000000 0.000000 0.000000
    44 0.000000 2.849164 0.000000 0.000000 0.000000 0.000000
    45 -3.879315 -0.562517 -16.512160 0.152586 -0.199077 0.089966
    46 -3.582430 -0.433607 -18.040589 0.065320 -0.199077 0.089966
    47 -4.055071 -0.640645 -15.616161 0.065345 -0.199084 0.089976
  time 18
    0 0.000000 -0.000006 0.000000 -1.570798 -1.391899 -3.141590
    1 -6.613281 -2.207031 -1.115234 0.013226 -0.695278 -2.042891
    2 6.028141 0.000000 0.000000 -1.641555 -0.832860 -0.523680
    3 11.692554 0.000001 0.000002 0.000000 0.000000 -1.043253
    4 11.481674 0.000001 -0.000032 0.049417 0.048250 0.991876
    5 3.859709 -0.142404 -1.191975 -0.583834 0.057745 -1.715148
    6 1.312555 -0.000002 0.000001 -0.282364 0.024800 -0.268300
    7 0.729363 -0.000002 -0.000002 0.000000 0.000000 -0.415147
    8 3.942335 0.046767 -0.431443 -0.443389 0.236328 -1.284445
    9 1.539097 0.000000 0.000000 0.000000 0.000000 -0.637382
    10 1.196326 -0.000002 -0.000001 0.000000 0.000000 -0.703202
    11 3.883696 -0.046765 0.431443 -0.258899 0.387633 -0.931701
    12 1.719570 -0.000004 -0.000001 -0.002880 0.004705 -0.915718
    13 1.209171 -0.000002 0.000000 -0.001237 0.002825 -0.629490
    14 3.859865 -0.137947 1.332466 -0.099428 0.461302 -0.732690
    15 1.719429 0.000002 -0.000001 -0.000544 0.004038 -0.496891
    16 1.099665 0.000000 0.000000 -0.001800 0.001871 -1.010281
    17 0.806053 -0.348925 1.321258 -0.991362 -0.283959 -1.021991
    18 1.789780 -0.000002 0.000002 0.159059 -0.278122 0.039667
    19 1.207006 0.000000 0.000000 0.241837 -0.175646 0.552881
    20 -3.794922 2.695313 -6.742188 3.066403 -0.024148 1.435052
    21 6.028144 0.000000 0.000000 1.696838 0.791127 -0.496524
    22 11.692554 0.000001 0.000003 0.000000 0.000024 -1.585438
    23 11.481697 0.000001 0.000002 -1.531962 0.058894 0.672804
    24 3.859678 -0.132570 1.193109 0.268646 0.017503 -1.751800
    25 1.312557 -0.000002 0.000001 0.184443 0.047615 -0.602121
    26 0.729365 0.000002 -0.000002 -0.018828 -0.027025 -0.685553
    27 3.942305 0.050327 0.431044 0.249586 -0.166013 -1.362771
    28 1.539099 -0.000002 0.000000 0.000000 0.000000 -0.952791
    29 1.196321 0.000008 0.000000 0.000000 0.000000 -1.162309
    30 3.883661 -0.050323 -0.431042 0.125400 -0.358364 -1.129758
    31 1.719578 0.000004 0.000000 0.005884 -0.005373 -1.198169
    32 1.209185 0.000002 0.000000 0.003559 -0.002699 -1.140587
    33 3.859838 -0.148937 -1.331282 -0.334439 -0.243744 -0.993159
    34 1.719423 0.000002 0.000000 0.005705 -0.003341 -1.405338
    35 1.099667 0.000002 0.000000 0.004183 -0.000400 -1.720371
    36 0.806021 -0.359837 -1.318334 1.173817 0.538507 -0.705676
    37 1.789782 0.000000 -0.000004 0.331976 0.108616 -0.164439
    38 1.206999 0.000003 0.000002 -0.030721 0.027936 0.500909
    39 -3.547273 -0.179693 -19.128404 0.076397 -0.181232 0.085820
    40 -4.140645 -22.434278 -5.492325 0.076386 -0.181242 0.085800
    41 0.000000 7.169887 -1.514632 0.000000 0.000000 0.000000
    42 0.000000 6.250000 0.998666 0.000000 0.000000 0.000000
    43 0.000000 -2.750000 0.000000 0.000000 0.000000 0.000000
    44 0.000000 2.849164 0.000000 0.000000 0.000000 0.000000
    45 -4.035569 -0.437513 -16.348093 0.163637 -0.181232 0.085820
    46 -3.766030 -0.296884 -17.880428 0.076371 -0.181232 0.085820
    47 -4.195700 -0.523453 -15.448187 0.076389 -0.181247 0.085826
  time 19
    0 0.000000 -0.000006 0.000000 -1.570798 -1.391899 -3.141590
    1 -6.613281 -2.207031 -1.115234 0.013226 -0.695278 -2.042891
    2 6.028141 0.000000 0.000000 -1.635824 -0.830302 -0.528726
    3 11.692554 0.000001 0.000002 0.000000 0.000000 -1.041018
    4 11.481674 0.000001 -0.000032 0.006931 0.066447 0.965759
    5 3.859709 -0.142404 -1.191975 -0.583834 0.057745 -1.715148
    6 1.312555 -0.000002 0.000001 -0.282364 0.024800 -0.268300
    7 0.729363 -0.000002 -0.000002 0.000000 0.000000 -0.415147
    8 3.942335 0.046767 -0.431443 -0.443389 0.236328 -1.284431
    9 1.539097 0.000000 0.000000 0.000000 0.000000 -0.637382
    10 1.196326 -0.000002 -0.000001 0.000000 0.000000 -0.703202
    11 3.883696 -0.046765 0.431443 -0.258899 0.387633 -0.931701
    12 1.719570 -0.000004 -0.000001 -0.002880 0.004705 -0.915718
    13 1.209171 -0.000002 0.000000 -0.001237 0.002825 -0.629490
    14 3.859865 -0.137947 1.332466 -0.099428 0.461302 -0.732690
    15 1.719429 0.000002 -0.000001 -0.000544 0.004038 -0.496891
    16 1.099665 0.000000 0.000000 -0.001800 0.001871 -1.010281
    17 0.806053 -0.348925 1.321258 -0.994850 -0.288097 -1.010294
    18 1.789780 -0.000002 0.000002 0.159059 -0.278122 0.039667
    19 1.207006 0.000000 0.000000 0.231554 -0.165759 0.516692
    20 -3.794922 2.695313 -6.742188 3.066403 -0.024148 1.435052
    21 6.028144 0.000000 0.000000 1.731930 0.775930 -0.472941
    22 11.692554 0.000001 0.000003 0.000000 0.000024 -1.595748
    23 11.481697 0.000001 0.000002 -1.463242 -0.054742 0.691943
    24 3.859678 -0.132570 1.193109 0.302239 -0.049931 -1.607366
    25 1.312557 -0.000002 0.000001 0.193671 0.021896 -0.469502
    26 0.729365 0.000002 -0.000002 -0.018085 -0.022435 -0.540300
    27 3.942305 0.050327 0.431044 0.259162 -0.218742 -1.221899
    28 1.539099 -0.000002 0.000000 0.000000 0.000000 -0.782663
    29 1.196321 0.000008 0.000000 0.000000 0.000000 -0.981821
    30 3.883661 -0.050323 -0.431042 0.137819 -0.392385 -0.995027
    31 1.719578 0.000004 0.000000 0.004830 -0.006344 -1.017452
    32 1.209185 0.000002 0.000000 0.002792 -0.003478 -0.894949
    33 3.859838 -0.148937 -1.331282 -0.392174 -0.173483 -0.676573
    34 1.719423 0.000002 0.000000 0.004386 -0.004947 -1.089704
    35 1.099667 0.000002 0.000000 0.003823 -0.001766 -1.382986
    36 0.806021 -0.359837 -1.318334 1.086218 0.579395 -0.887980
    37 1.789782 0.000000 -0.000004 0.302136 0.056148 -0.075016
    38 1.206999 0.000003 0.000002 -0.004007 0.043756 0.395059
    39 -3.922285 -0.015625 -18.995587 0.087429 -0.138686 0.074870
    40 -4.136738 -22.367870 -5.504044 0.087443 -0.138693 0.074877
    41 0.000000 7.169887 -1.514632 0.000000 0.000000 0.000000
    42 0.000000 6.250000 0.998666 0.000000 0.000000 0.000000
    43 0.000000 -2.750000 0.000000 0.000000 0.000000 0.000000
    44 0.000000 2.849164 0.000000 0.000000 0.000000 0.000000
    45 -4.293390 -0.292978 -16.199651 0.174723 -0.138686 0.074870
    46 -4.090258 -0.140629 -17.735892 0.087457 -0.138686 0.074870
    47 -4.414457 -0.378918 -15.295838 0.087451 -0.138679 0.074873
  time 20
    0 0.000000 -0.000006 0.000000 -1.570798 -1.391899 -3.141590
    1 -6.613281 -2.207031 -1.115234 0.013226 -0.695278 -2.042891
    2 6.028141 0.000000 0.000000 -1.637165 -0.835850 -0.527228
    3 11.692554 0.000001 0.000002 0.000000 0.000000 -1.022674
    4 11.481674 0.000001 -0.000032 -0.040932 0.097882 0.913563
    5 3.859709 -0.142404 -1.191975 -0.583834 0.057745 -1.715148
    6 1.312555 -0.000002 0.000001 -0.282364 0.024800 -0.268300
    7 0.729363 -0.000002 -0.000002 0.000000 0.000000 -0.415147
    8 3.942335 0.046767 -0.431443 -0.443389 0.236328 -1.284431
    9 1.539097 0.000000 0.000000 0.000000 0.000000 -0.637382
    10 1.196326 -0.000002 -0.000001 0.000000 0.000000 -0.703202
    11 3.883696 -0.046765 0.431443 -0.258899 0.387633 -0.931701
    12 1.719570 -0.000004 -0.000001 -0.002880 0.004705 -0.915718
    13 1.209171 -0.000002 0.000000 -0.001237 0.002825 -0.629490
    14 3.859865 -0.137947 1.332466 -0.099428 0.461302 -0.732690
    15 1.719429 0.000002 -0.000001 -0.000544 0.004038 -0.496891
    16 1.099665 0.000000 0.000000 -0.001800 0.001871 -1.010281
    17 0.806053 -0.348925 1.321258 -1.003934 -0.298555 -0.979997
    18 1.789780 -0.000002 0.000002 0.159059 -0.278122 0.039667
    19 1.207006 0.000000 0.000000 0.204793 -0.140124 0.423474
    20 -3.794922 2.695313 -6.742188 3.066403 -0.024148 1.435052
    21 6.028144 0.000000 0.000000 1.760583 0.771608 -0.453670
    22 11.692554 0.000001 0.000003 0.000000 0.000024 -1.615031
    23 11.481697 0.000001 0.000002 -1.362853 -0.150388 0.747941
    24 3.859678 -0.132570 1.193109 0.323476 -0.105648 -1.498525
    25 1.312557 -0.000002 0.000001 0.199184 -0.002014 -0.347942
    26 0.729365 0.000002 -0.000002 -0.017114 -0.017737 -0.407003
    27 3.942305 0.050327 0.431044 0.261690 -0.260755 -1.113121
    28 1.539099 -0.000002 0.000000 0.000000 0.000000 -0.626491
    29 1.196321 0.000008 0.000000 0.000000 0.000000 -0.816127
    30 3.883661 -0.050323 -0.431042 0.149213 -0.417411 -0.889782
    31 1.719578 0.000004 0.000000 0.003715 -0.007063 -0.851581
    32 1.209185 0.000002 0.000000 0.001941 -0.004018 -0.669516
    33 3.859838 -0.148937 -1.331282 -0.428836 -0.096038 -0.400573
    34 1.719423 0.000002 0.000000 0.002745 -0.006014 -0.792890
    35 1.099667 0.000002 0.000000 0.003032 -0.002917 -1.050212
    36 0.806021 -0.359837 -1.318334 0.976992 0.610832 -1.076616
    37 1.789782 0.000000 -0.000004 0.261570 0.038470 -0.011439
    38 1.206999 0.000003 0.000002 0.018116 0.059827 0.321328
    39 -4.273858 0.089846 -18.874490 0.092474 -0.087896 0.059383
    40 -4.132832 -22.278024 -5.418104 0.092475 -0.087894 0.059367
    41 0.000000 7.169887 -1.514632 0.000000 0.000000 0.000000
    42 0.000000 6.250000 0.998666 0.000000 0.000000 0.000000
    43 0.000000 -2.750000 0.000000 0.000000 0.000000 0.000000
    44 0.000000 2.849164 0.000000 0.000000 0.000000 0.000000
    45 -4.508240 -0.179693 -16.062928 0.179737 -0.087896 0.059383
    46 -4.379330 -0.031251 -17.606982 0.092471 -0.087896 0.059383
    47 -4.582430 -0.269539 -15.151303 0.092469 -0.087888 0.059362
  time 21
    0 0.000000 -0.000006 0.000000 -1.570798 -1.391899 -3.141590
    1 -6.613281 -2.207031 -1.115234 0.013226 -0.695278 -2.042891
    2 6.028141 0.000000 0.000000 -1.647938 -0.852627 -0.516897
    3 11.692554 0.000001 0.000002 0.000000 0.000000 -0.987430
    4 11.481674 0.000001 -0.000032 -0.077032 0.132787 0.843695
    5 3.859709 -0.142404 -1.191975 -0.583834 0.057745 -1.715148
    6 1.312555 -0.000002 0.000001 -0.282364 0.024800 -0.268300
    7 0.729363 -0.000002 -0.000002 0.000000 0.000000 -0.415147
    8 3.942335 0.046767 -0.431443 -0.443389 0.236328 -1.284431
    9 1.539097 0.000000 0.000000 0.000000 0.000000 -0.637382
    10 1.196326 -0.000002 -0.000001 0.000000 0.000000 -0.703202
    11 3.883696 -0.046765 0.431443 -0.258899 0.387633 -0.931701
    12 1.719570 -0.000004 -0.000001 -0.002880 0.004705 -0.915718
    13 1.209171 -0.000002 0.000000 -0.001237 0.002825 -0.629490
    14 3.859865 -0.137947 1.332466 -0.099428 0.461302 -0.732690
    15 1.719429 0.000002 -0.000001 -0.000544 0.004038 -0.496891
    16 1.099665 0.000000 0.000000 -0.001800 0.001871 -1.010281
    17 0.806053 -0.348925 1.321258 -1.016614 -0.312343 -0.938195
    18 1.789780 -0.000002 0.000002 0.143911 -0.301426 0.050642
    19 1.207006 0.000000 0.000000 0.167580 -0.104817 0.296244
    20 -3.794922 2.695313 -6.742188 3.066403 -0.024148 1.435052
    21 6.028144 0.000000 0.000000 1.757526 0.773049 -0.456611
    22 11.692554 0.000001 0.000003 0.000000 0.000024 -1.644073
    23 11.481697 0.000001 0.000002 -1.220188 -0.218636 0.827202
    24 3.859678 -0.132570 1.193109 0.330822 -0.128729 -1.455437
    25 1.312557 -0.000002 0.000001 0.201928 -0.019235 -0.258945
    26 0.729365 0.000002 -0.000002 -0.015928 -0.013447 -0.309527
    27 3.942305 0.050327 0.431044 0.261463 -0.277802 -1.069383
    28 1.539099 -0.000002 0.000000 0.000000 0.000000 -0.512272
    29 1.196321 0.000008 0.000000 0.000000 0.000000 -0.694976
    30 3.883661 -0.050323 -0.431042 0.163836 -0.426305 -0.847022
    31 1.719578 0.000004 0.000000 0.002828 -0.007459 -0.730246
    32 1.209185 0.000002 0.000000 0.001258 -0.004281 -0.504646
    33 3.859838 -0.148937 -1.331282 -0.424814 -0.053481 -0.246093
    34 1.719423 0.000002 0.000000 0.001534 -0.006433 -0.598632
    35 1.099667 0.000002 0.000000 0.002229 -0.003576 -0.802628
    36 0.806021 -0.359837 -1.318334 0.879675 0.625331 -1.225370
    37 1.789782 0.000000 -0.000004 0.199312 0.053415 0.031307
    38 1.206999 0.000003 0.000002 0.033024 0.072003 0.278063
    39 -4.457457 0.042970 -18.878396 0.084115 -0.045350 0.041628
    40 -4.152364 -22.188177 -5.195441 0.084124 -0.045345 0.041617
    41 0.000000 7.169887 -1.514632 0.000000 0.000000 0.000000
    42 0.000000 6.250000 0.998666 0.000000 0.000000 0.000000
    43 0.000000 -2.750000 0.000000 0.000000 0.000000 0.000000
    44 0.000000 2.849164 0.000000 0.000000 0.000000 0.000000
    45 -4.574648 -0.195318 -16.055115 0.171380 -0.045350 0.041628
    46 -4.508240 -0.062502 -17.606982 0.084114 -0.045350 0.041628
    47 -4.613681 -0.277352 -15.143490 0.084123 -0.045350 0.041606
  time 22
    0 0.000000 -0.000006 0.000000 -1.570798 -1.391899 -3.141590
    1 -6.613281 -2.207031 -1.115234 0.013226 -0.695278 -2.042891
    2 6.028141 0.000000 0.000000 -1.667765 -0.879903 -0.497817
    3 11.692554 0.000001 0.000002 0.000000 0.000000 -0.936123
    4 11.481674 0.000001 -0.000032 -0.086645 0.167371 0.769437
    5 3.859709 -0.142404 -1.191975 -0.583834 0.057745 -1.715148
    6 1.312555 -0.000002 0.000001 -0.282364 0.024800 -0.268300
    7 0.729363 -0.000002 -0.000002 0.000000 0.000000 -0.415147
    8 3.942335 0.046767 -0.431443 -0.443389 0.236328 -1.284431
    9 1.539097 0.000000 0.000000 0.000000 0.000000 -0.637382
    10 1.196326 -0.000002 -0.000001 0.000000 0.000000 -0.703202
    11 3.883696 -0.046765 0.431443 -0.258899 0.387633 -0.931701
    12 1.719570 -0.000004 -0.000001 -0.002880 0.004705 -0.915718
    13 1.209171 -0.000002 0.000000 -0.001237 0.002825 -0.629490
    14 3.859865 -0.137947 1.332466 -0.099428 0.461302 -0.732690
    15 1.719429 0.000002 -0.000001 -0.000544 0.004038 -0.496891
    16 1.099665 0.000000 0.000000 -0.001800 0.001871 -1.010281
    17 0.806053 -0.348925 1.321258 -1.030720 -0.326662 -0.892174
    18 1.789780 -0.000002 0.000002 0.107562 -0.356795 0.077912
    19 1.207006 0.000000 0.000000 0.126234 -0.066107 0.157794
    20 -3.794922 2.695313 -6.742188 3.066403 -0.024148 1.435052
    21 6.028144 0.000000 0.000000 1.705516 0.779694 -0.492365
    22 11.692554 0.000001 0.000003 0.000000 0.000024 -1.675712
    23 11.481697 0.000001 0.000002 -1.043083 -0.239669 0.907172
    24 3.859678 -0.132570 1.193109 0.328066 -0.068537 -1.473215
    25 1.312557 -0.000002 0.000001 0.204169 -0.025216 -0.224293
    26 0.729365 0.000002 -0.000002 -0.014513 -0.010115 -0.271737
    27 3.942305 0.050327 0.431044 0.271770 -0.221377 -1.084539
    28 1.539099 -0.000002 0.000000 0.000000 0.000000 -0.467962
    29 1.196321 0.000008 0.000000 0.000000 0.000000 -0.647994
    30 3.883661 -0.050323 -0.431042 0.183632 -0.375432 -0.842738
    31 1.719578 0.000004 0.000000 0.002481 -0.007579 -0.683187
    32 1.209185 0.000002 0.000000 0.000983 -0.004353 -0.440698
    33 3.859838 -0.148937 -1.331282 -0.366189 -0.066998 -0.189674
    34 1.719423 0.000002 0.000000 0.000959 -0.006553 -0.509495
    35 1.099667 0.000002 0.000000 0.001666 -0.003875 -0.652435
    36 0.806021 -0.359837 -1.318334 0.838074 0.628308 -1.285286
    37 1.789782 0.000000 -0.000004 0.115188 0.079086 0.071158
    38 1.206999 0.000003 0.000002 0.038443 0.076749 0.263945
    39 -4.332453 -0.179693 -19.061995 0.063218 -0.027505 0.023873
    40 -4.199240 -22.121769 -4.910276 0.063223 -0.027503 0.023868
    41 0.000000 7.169887 -1.514632 0.000000 0.000000 0.000000
    42 0.000000 6.250000 0.998666 0.000000 0.000000 0.000000
    43 0.000000 -2.750000 0.000000 0.000000 0.000000 0.000000
    44 0.000000 2.849164 0.000000 0.000000 0.000000 0.000000
    45 -4.406674 -0.359386 -16.230902 0.150471 -0.027505 0.023873
    46 -4.367611 -0.261727 -17.786675 0.063205 -0.027505 0.023873
    47 -4.430082 -0.417982 -15.319277 0.063223 -0.027513 0.023850
  time 23
    0 0.000000 -0.000006 0.000000 -1.570798 -1.391899 -3.141590
    1 -6.613281 -2.207031 -1.115234 0.013226 -0.695278 -2.042891
    2 6.028141 0.000000 0.000000 -1.690601 -0.914023 -0.475214
    3 11.692554 0.000001 0.000002 0.000000 0.000000 -0.871175
    4 11.481674 0.000001 -0.000032 -0.091283 0.196646 0.688408
    5 3.859709 -0.142404 -1.191975 -0.583834 0.057745 -1.715148
    6 1.312555 -0.000002 0.000001 -0.282364 0.024800 -0.268300
    7 0.729363 -0.000002 -0.000002 0.000000 0.000000 -0.415147
    8 3.942335 0.046767 -0.431443 -0.443389 0.236328 -1.284431
    9 1.539097 0.000000 0.000000 0.000000 0.000000 -0.637382
    10 1.196326 -0.000002 -0.000001 0.000000 0.000000 -0.703202
    11 3.883696 -0.046765 0.431443 -0.258899 0.387633 -0.931701
    12 1.719570 -0.000004 -0.000001 -0.002880 0.004705 -0.915718
    13 1.209171 -0.000002 0.000000 -0.001237 0.002825 -0.629490
    14 3.859865 -0.137947 1.332466 -0.099428 0.461302 -0.732690
    15 1.719429 0.000002 -0.000001 -0.000544 0.004038 -0.496891
    16 1.099665 0.000000 0.000000 -0.001800 0.001871 -1.010281
    17 0.806053 -0.348925 1.321258 -1.043927 -0.339159 -0.849521
    18 1.789780 -0.000002 0.000002 0.063542 -0.422415 0.112610
    19 1.207006 0.000000 0.000000 0.087511 -0.030465 0.030836
    20 -3.794922 2.695313 -6.742188 3.066403 -0.024148 1.435052
    21 6.028144 0.000000 0.000000 1.627418 0.796331 -0.543992
    22 11.692554 0.000001 0.000003 0.000000 0.000024 -1.692083
    23 11.481697 0.000001 0.000002 -0.875699 -0.226772 0.972901
    24 3.859678 -0.132570 1.193109 0.324986 0.063917 -1.515687
    25 1.312557 -0.000002 0.000001 0.207633 -0.020913 -0.239069
    26 0.729365 0.000002 -0.000002 -0.012380 -0.007514 -0.290656
    27 3.942305 0.050327 0.431044 0.297464 -0.097059 -1.119679
    28 1.539099 -0.000002 0.000000 0.000000 0.000000 -0.495599
    29 1.196321 0.000008 0.000000 0.000000 0.000000 -0.679222
    30 3.883661 -0.050323 -0.431042 0.206762 -0.265153 -0.835143
    31 1.719578 0.000004 0.000000 0.002661 -0.007519 -0.706863
    32 1.209185 0.000002 0.000000 0.001186 -0.004305 -0.486967
    33 3.859838 -0.148937 -1.331282 -0.274720 -0.108874 -0.153786
    34 1.719423 0.000002 0.000000 0.000659 -0.006589 -0.463072
    35 1.099667 0.000002 0.000000 0.001270 -0.004019 -0.553638
    36 0.806021 -0.359837 -1.318334 0.884504 0.582963 -1.228172
    37 1.789782 0.000000 -0.000004 0.023964 0.109479 0.106128
    38 1.206999 0.000003 0.000002 0.003055 0.037572 0.345443
    39 -4.226981 -0.546892 -19.370598 0.036033 -0.014531 0.008386
    40 -4.257836 -22.094424 -4.625111 0.036062 -0.014537 0.008357
    41 0.000000 7.169887 -1.514632 0.000000 0.000000 0.000000
    42 0.000000 6.250000 0.998666 0.000000 0.000000 0.000000
    43 0.000000 -2.750000 0.000000 0.000000 0.000000 0.000000
    44 0.000000 2.849164 0.000000 0.000000 0.000000 0.000000
    45 -4.266045 -0.648457 -16.535598 0.123320 -0.014531 0.008386
    46 -4.242607 -0.593768 -18.095278 0.036054 -0.014531 0.008386
    47 -4.277734 -0.683615 -15.620067 0.036063 -0.014529 0.008339
  time 24
    0 0.000000 -0.000006 0.000000 -1.570798 -1.391899 -3.141590
    1 -6.613281 -2.207031 -1.115234 0.013226 -0.695278 -2.042891
    2 6.028141 0.000000 0.000000 -1.703302 -0.939106 -0.462235
    3 11.692554 0.000001 0.000002 0.000000 0.000000 -0.826107
    4 11.481674 0.000001 -0.000032 -0.111786 0.210461 0.615526
    5 3.859709 -0.142404 -1.191975 -0.583834 0.057745 -1.715148
    6 1.312555 -0.000002 0.000001 -0.282364 0.024800 -0.268300
    7 0.729363 -0.000002 -0.000002 0.000000 0.000000 -0.415147
    8 3.942335 0.046767 -0.431443 -0.443389 0.236328 -1.284431
    9 1.539097 0.000000 0.000000 0.000000 0.000000 -0.637382
    10 1.196326 -0.000002 -0.000001 0.000000 0.000000 -0.703202
    11 3.883696 -0.046765 0.431443 -0.258899 0.387633 -0.931701
    12 1.719570 -0.000004 -0.000001 -0.002880 0.004705 -0.915718
    13 1.209171 -0.000002 0.000000 -0.001237 0.002825 -0.629490
    14 3.859865 -0.137947 1.332466 -0.099428 0.461302 -0.732690
    15 1.719429 0.000002 -0.000001 -0.000544 0.004038 -0.496891
    16 1.099665 0.000000 0.000000 -0.001800 0.001871 -1.010281
    17 0.806053 -0.348925 1.321258 -1.053730 -0.347929 -0.818085
    18 1.789780 -0.000002 0.000002 0.025971 -0.476968 0.143594
    19 1.207006 0.000000 0.000000 0.058736 -0.004399 -0.061981
    20 -3.794922 2.695313 -6.742188 3.066403 -0.024148 1.435052
    21 6.028144 0.000000 0.000000 1.554396 0.806602 -0.591816
    22 11.692554 0.000001 0.000003 0.000000 0.000024 -1.705305
    23 11.481697 0.000001 0.000002 -0.768204 -0.198073 1.022326
    24 3.859678 -0.132570 1.193109 0.325273 0.196144 -1.562251
    25 1.312557 -0.000002 0.000001 0.211971 -0.011817 -0.276394
    26 0.729365 0.000002 -0.000002 -0.009396 -0.005117 -0.338001
    27 3.942305 0.050327 0.431044 0.326863 0.027366 -1.156550
    28 1.539099 -0.000002 0.000000 0.000000 0.000000 -0.564692
    29 1.196321 0.000008 0.000000 0.000000 0.000000 -0.757311
    30 3.883661 -0.050323 -0.431042 0.228658 -0.155118 -0.828767
    31 1.719578 0.000004 0.000000 0.003092 -0.007351 -0.766002
    32 1.209185 0.000002 0.000000 0.001678 -0.004137 -0.602588
    33 3.859838 -0.148937 -1.331282 -0.190813 -0.153185 -0.134753
    34 1.719423 0.000002 0.000000 0.000539 -0.006601 -0.445397
    35 1.099667 0.000002 0.000000 0.001055 -0.004079 -0.499431
    36 0.806021 -0.359837 -1.318334 0.970568 0.477949 -1.114339
    37 1.789782 0.000000 -0.000004 -0.059549 0.138566 0.134073
    38 1.206999 0.000003 0.000002 -0.072925 -0.043468 0.529617
    39 -4.461364 -0.832057 -19.729984 0.008886 0.012860 -0.002642
    40 -4.320338 -21.969420 -4.406354 0.008902 0.012850 -0.002620
    41 0.000000 7.169887 -1.514632 0.000000 0.000000 0.000000
    42 0.000000 6.250000 0.998666 0.000000 0.000000 0.000000
    43 0.000000 -2.750000 0.000000 0.000000 0.000000 0.000000
    44 0.000000 2.849164 0.000000 0.000000 0.000000 0.000000
    45 -4.426206 -0.855495 -16.894984 0.096169 0.012860 -0.002642
    46 -4.445738 -0.843776 -18.454664 0.008903 0.012860 -0.002642
    47 -4.414457 -0.863308 -15.979453 0.008903 0.012860 -0.002614
  time 25
    0 0.000000 -0.000006 0.000000 -1.570798 -1.391899 -3.141590
    1 -6.613281 -2.207031 -1.115234 0.013226 -0.695278 -2.042891
    2 6.028141 0.000000 0.000000 -1.699655 -0.939737 -0.465914
    3 11.692554 0.000001 0.000002 0.000000 0.000000 -0.833417
    4 11.481674 0.000001 -0.000032 -0.131886 0.208651 0.583866
    5 3.859709 -0.142404 -1.191975 -0.583834 0.057745 -1.715148
    6 1.312555 -0.000002 0.000001 -0.282364 0.024800 -0.268300
    7 0.729363 -0.000002 -0.000002 0.000000 0.000000 -0.415147
    8 3.942335 0.046767 -0.431443 -0.443389 0.236328 -1.284431
    9 1.539097 0.000000 0.000000 0.000000 0.000000 -0.637382
    10 1.196326 -0.000002 -0.000001 0.000000 0.000000 -0.703202
    11 3.883696 -0.046765 0.431443 -0.258899 0.387633 -0.931701
    12 1.719570 -0.000004 -0.000001 -0.002880 0.004705 -0.915718
    13 1.209171 -0.000002 0.000000 -0.001237 0.002825 -0.629490
    14 3.859865 -0.137947 1.332466 -0.099428 0.461302 -0.732690
    15 1.719429 0.000002 -0.000001 -0.000544 0.004038 -0.496891
    16 1.099665 0.000000 0.000000 -0.001800 0.001871 -1.010281
    17 0.806053 -0.348925 1.321258 -1.057553 -0.351234 -0.805849
    18 1.789780 -0.000002 0.000002 0.009971 -0.499704 0.157138
    19 1.207006 0.000000 0.000000 0.047483 0.005693 -0.097994
    20 -3.794922 2.695313 -6.742188 3.066403 -0.024148 1.435052
    21 6.028144 0.000000 0.000000 1.514992 0.792939 -0.617528
    22 11.692554 0.000001 0.000003 0.000000 0.000024 -1.733639
    23 11.481697 0.000001 0.000002 -0.738939 -0.168654 1.045847
    24 3.859678 -0.132570 1.193109 0.326316 0.256096 -1.584591
    25 1.312557 -0.000002 0.000001 0.216106 -0.000396 -0.324994
    26 0.729365 0.000002 -0.000002 -0.006112 -0.003044 -0.399560
    27 3.942305 0.050327 0.431044 0.341352 0.083923 -1.173694
    28 1.539099 -0.000002 0.000000 0.000000 0.000000 -0.654490
    29 1.196321 0.000008 0.000000 0.000000 0.000000 -0.858870
    30 3.883661 -0.050323 -0.431042 0.238779 -0.105152 -0.826078
    31 1.719578 0.000004 0.000000 0.003655 -0.007087 -0.842897
    32 1.209185 0.000002 0.000000 0.002277 -0.003838 -0.752860
    33 3.859838 -0.148937 -1.331282 -0.154114 -0.173803 -0.129169
    34 1.719423 0.000002 0.000000 0.000515 -0.006601 -0.442615
    35 1.099667 0.000002 0.000000 0.000995 -0.004103 -0.482900
    36 0.806021 -0.359837 -1.318334 1.037478 0.367729 -1.013004
    37 1.789782 0.000000 -0.000004 -0.120605 0.160414 0.152585
    38 1.206999 0.000003 0.000002 -0.145897 -0.117809 0.719769
    39 -4.816843 -0.859401 -20.073745 -0.011973 0.037447 -0.006788
    40 -4.367214 -21.672536 -4.320414 -0.011984 0.037464 -0.006771
    41 0.000000 7.169887 -1.514632 0.000000 0.000000 0.000000
    42 0.000000 6.250000 0.998666 0.000000 0.000000 0.000000
    43 0.000000 -2.750000 0.000000 0.000000 0.000000 0.000000
    44 0.000000 2.849164 0.000000 0.000000 0.000000 0.000000
    45 -4.711371 -0.824244 -17.242651 0.075294 0.037447 -0.006788
    46 -4.769967 -0.843776 -18.798425 -0.011972 0.037447 -0.006788
    47 -4.676183 -0.812525 -16.323213 -0.011979 0.037467 -0.006764
  time 26
    0 0.000000 -0.000006 0.000000 -1.570798 -1.391899 -3.141590
    1 -6.613281 -2.207031 -1.115234 0.013226 -0.695278 -2.042891
    2 6.028141 0.000000 0.000000 -1.683905 -0.917810 -0.481878
    3 11.692554 0.000001 0.000002 0.000000 0.000000 -0.883746
    4 11.481674 0.000001 -0.000032 -0.135718 0.199309 0.600570
    5 3.859709 -0.142404 -1.191975 -0.583834 0.057745 -1.715148
    6 1.312555 -0.000002 0.000001 -0.282364 0.024800 -0.268300
    7 0.729363 -0.000002 -0.000002 0.000000 0.000000 -0.415147
    8 3.942335 0.046767 -0.431443 -0.443389 0.236328 -1.284431
    9 1.539097 0.000000 0.000000 0.000000 0.000000 -0.637382
    10 1.196326 -0.000002 -0.000001 0.000000 0.000000 -0.703202
    11 3.883696 -0.046765 0.431443 -0.258899 0.387633 -0.931701
    12 1.719570 -0.000004 -0.000001 -0.002880 0.004705 -0.915718
    13 1.209171 -0.000002 0.000000 -0.001237 0.002825 -0.629490
    14 3.859865 -0.137947 1.332466 -0.099428 0.461302 -0.732690
    15 1.719429 0.000002 -0.000001 -0.000544 0.004038 -0.496891
    16 1.099665 0.000000 0.000000 -0.001800 0.001871 -1.010281
    17 0.806053 -0.348925 1.321258 -1.057553 -0.351234 -0.805849
    18 1.789780 -0.000002 0.000002 0.009971 -0.499704 0.157138
    19 1.207006 0.000000 0.000000 0.047483 0.005693 -0.097994
    20 -3.794922 2.695313 -6.742188 3.066403 -0.024148 1.435052
    21 6.028144 0.000000 0.000000 1.501458 0.765381 -0.626048
    22 11.692554 0.000001 0.000003 0.000000 0.000024 -1.770552
    23 11.481697 0.000001 0.000002 -0.743067 -0.151827 1.050293
    24 3.859678 -0.132570 1.193109 0.326316 0.256096 -1.584591
    25 1.312557 -0.000002 0.000001 0.219246 0.010822 -0.373624
    26 0.729365 0.000002 -0.000002 -0.003080 -0.001426 -0.461071
    27 3.942305 0.050327 0.431044 0.341352 0.083923 -1.173694
    28 1.539099 -0.000002 0.000000 0.000000 0.000000 -0.744334
    29 1.196321 0.000008 0.000000 0.000000 0.000000 -0.960390
    30 3.883661 -0.050323 -0.431042 0.238779 -0.105152 -0.826078
    31 1.719578 0.000004 0.000000 0.004183 -0.006788 -0.919744
    32 1.209185 0.000002 0.000000 0.002816 -0.003454 -0.903132
    33 3.859838 -0.148937 -1.331282 -0.154114 -0.173803 -0.129135
    34 1.719423 0.000002 0.000000 0.000515 -0.006601 -0.442615
    35 1.099667 0.000002 0.000000 0.000995 -0.004103 -0.482900
    36 0.806021 -0.359837 -1.318334 1.062340 0.316431 -0.969987
    37 1.789782 0.000000 -0.000004 -0.144263 0.169031 0.159300
    38 1.206999 0.000003 0.000002 -0.177846 -0.149556 0.807820
    39 -4.953566 -0.636738 -20.327659 -0.020332 0.042008 -0.004832
    40 -4.386746 -21.320963 -4.402448 -0.020335 0.042017 -0.004859
    41 0.000000 7.169887 -1.514632 0.000000 0.000000 0.000000
    42 0.000000 6.250000 0.998666 0.000000 0.000000 0.000000
    43 0.000000 -2.750000 0.000000 0.000000 0.000000 0.000000
    44 0.000000 2.849164 0.000000 0.000000 0.000000 0.000000
    45 -4.836375 -0.582049 -17.496565 0.066937 0.042008 -0.004832
    46 -4.902783 -0.613300 -19.052339 -0.020329 0.042008 -0.004832
    47 -4.797281 -0.562517 -16.581034 -0.020343 0.042012 -0.004859
  time 27
    0 0.000000 -0.000006 0.000000 -1.570798 -1.391899 -3.141590
    1 -6.613281 -2.207031 -1.115234 0.013226 -0.695278 -2.042891
    2 6.028141 0.000000 0.000000 -1.671035 -0.888973 -0.495205
    3 11.692554 0.000001 0.000002 0.000000 0.000000 -0.946412
    4 11.481674 0.000001 -0.000032 -0.115820 0.207692 0.659389
    5 3.859709 -0.142404 -1.191975 -0.583834 0.057745 -1.715148
    6 1.312555 -0.000002 0.000001 -0.282364 0.024800 -0.268300
    7 0.729363 -0.000002 -0.000002 0.000000 0.000000 -0.415147
    8 3.942335 0.046767 -0.431443 -0.443389 0.236328 -1.284431
    9 1.539097 0.000000 0.000000 0.000000 0.000000 -0.637382
    10 1.196326 -0.000002 -0.000001 0.000000 0.000000 -0.703202
    11 3.883696 -0.046765 0.431443 -0.258899 0.387633 -0.931701
    12 1.719570 -0.000004 -0.000001 -0.002880 0.004705 -0.915718
    13 1.209171 -0.000002 0.000000 -0.001237 0.002825 -0.629490
    14 3.859865 -0.137947 1.332466 -0.099428 0.461302 -0.732690
    15 1.719429 0.000002 -0.000001 -0.000544 0.004038 -0.496891
    16 1.099665 0.000000 0.000000 -0.001800 0.001871 -1.010281
    17 0.806053 -0.348925 1.321258 -1.057553 -0.351234 -0.805849
    18 1.789780 -0.000002 0.000002 0.009971 -0.499704 0.157138
    19 1.207006 0.000000 0.000000 0.047483 0.005693 -0.097994
    20 -3.794922 2.695313 -6.742188 3.066403 -0.024148 1.435052
    21 6.028144 0.000000 0.000000 1.499984 0.749998 -0.625998
    22 11.692554 0.000001 0.000003 0.000000 0.000024 -1.804552
    23 11.481697 0.000001 0.000002 -0.714952 -0.168017 1.067756
    24 3.859678 -0.132570 1.193109 0.326316 0.256096 -1.584591
    25 1.312557 -0.000002 0.000001 0.221116 0.019379 -0.411072
    26 0.729365 0.000002 -0.000002 -0.000863 -0.000372 -0.508416
    27 3.942305 0.050327 0.431044 0.341352 0.083923 -1.173694
    28 1.539099 -0.000002 0.000000 0.000000 0.000000 -0.813427
    29 1.196321 0.000008 0.000000 0.000000 0.000000 -1.038478
    30 3.883661 -0.050323 -0.431042 0.238779 -0.105152 -0.826078
    31 1.719578 0.000004 0.000000 0.004578 -0.006536 -0.978883
    32 1.209185 0.000002 0.000000 0.003200 -0.003107 -1.018753
    33 3.859838 -0.148937 -1.331282 -0.154114 -0.173803 -0.129169
    34 1.719423 0.000002 0.000000 0.000515 -0.006601 -0.442615
    35 1.099667 0.000002 0.000000 0.000995 -0.004103 -0.482900
    36 0.806021 -0.359837 -1.318334 1.062340 0.316431 -0.969987
    37 1.789782 0.000000 -0.000004 -0.144263 0.169031 0.159300
    38 1.206999 0.000003 0.000002 -0.177846 -0.149556 0.807820
    39 -4.566836 -0.085940 -20.151872 -0.003953 0.013710 -0.001312
    40 -4.378933 -21.024079 -4.554796 -0.003963 0.013728 -0.001309
    41 0.000000 7.169887 -1.514632 0.000000 0.000000 0.000000
    42 0.000000 6.250000 0.998666 0.000000 0.000000 0.000000
    43 0.000000 -2.750000 0.000000 0.000000 0.000000 0.000000
    44 0.000000 2.849164 0.000000 0.000000 0.000000 0.000000
    45 -4.527772 -0.078127 -17.316872 0.083309 0.013710 -0.001312
    46 -4.547304 -0.082034 -18.876552 -0.003957 0.013710 -0.001312
    47 -4.516022 -0.074221 -16.397434 -0.003975 0.013726 -0.001322
  time 28
    0 0.000000 -0.000006 0.000000 -1.570798 -1.391899 -3.141590
    1 -6.613281 -2.207031 -1.115234 0.013226 -0.695278 -2.042891
    2 6.028141 0.000000 0.000000 -1.667192 -0.874953 -0.499375
    3 11.692554 0.000001 0.000002 0.000000 0.000000 -0.976302
    4 11.481674 0.000001 -0.000032 -0.100358 0.219743 0.697597
    5 3.859709 -0.142404 -1.191975 -0.583834 0.057745 -1.715148
    6 1.312555 -0.000002 0.000001 -0.282364 0.024800 -0.268300
    7 0.729363 -0.000002 -0.000002 0.000000 0.000000 -0.415147
    8 3.942335 0.046767 -0.431443 -0.443389 0.236328 -1.284431
    9 1.539097 0.000000 0.000000 0.000000 0.000000 -0.637382
    10 1.196326 -0.000002 -0.000001 0.000000 0.000000 -0.703202
    11 3.883696 -0.046765 0.431443 -0.258899 0.387633 -0.931701
    12 1.719570 -0.000004 -0.000001 -0.002880 0.004705 -0.915718
    13 1.209171 -0.000002 0.000000 -0.001237 0.002825 -0.629490
    14 3.859865 -0.137947 1.332466 -0.099428 0.461302 -0.732690
    15 1.719429 0.000002 -0.000001 -0.000544 0.004038 -0.496891
    16 1.099665 0.000000 0.000000 -0.001800 0.001871 -1.010281
    17 0.806053 -0.348925 1.321258 -1.057553 -0.351234 -0.805849
    18 1.789780 -0.000002 0.000002 0.009971 -0.499704 0.157138
    19 1.207006 0.000000 0.000000 0.047483 0.005693 -0.097994
    20 -3.794922 2.695313 -6.742188 3.066403 -0.024148 1.435052
    21 6.028144 0.000000 0.000000 1.505332 0.747582 -0.621890
    22 11.692554 0.000001 0.000003 0.000000 0.000024 -1.819821
    23 11.481697 0.000001 0.000002 -0.692742 -0.188580 1.081546
    24 3.859678 -0.132570 1.193109 0.326316 0.256096 -1.584591
    25 1.312557 -0.000002 0.000001 0.221739 0.022771 -0.426063
    26 0.729365 0.000002 -0.000002 0.000000 0.000000 -0.527383
    27 3.942305 0.050327 0.431044 0.341352 0.083923 -1.173694
    28 1.539099 -0.000002 0.000000 0.000000 0.000000 -0.841064
    29 1.196321 0.000008 0.000000 0.000000 0.000000 -1.069706
    30 3.883661 -0.050323 -0.431042 0.238779 -0.105152 -0.826078
    31 1.719578 0.000004 0.000000 0.004734 -0.006416 -1.002558
    32 1.209185 0.000002 0.000000 0.003344 -0.002951 -1.064971
    33 3.859838 -0.148937 -1.331282 -0.154114 -0.173803 -0.129135
    34 1.719423 0.000002 0.000000 0.000515 -0.006601 -0.442615
    35 1.099667 0.000002 0.000000 0.000995 -0.004103 -0.482900
    36 0.806021 -0.359837 -1.318334 1.062340 0.316431 -0.969987
    37 1.789782 0.000000 -0.000004 -0.144263 0.169031 0.159300
    38 1.206999 0.000003 0.000002 -0.177846 -0.149556 0.807820
    39 -4.242607 0.285165 -19.886239 0.012388 -0.008951 0.000565
    40 -4.367214 -20.902982 -4.636830 0.012393 -0.008967 0.000602
    41 0.000000 7.169887 -1.514632 0.000000 0.000000 0.000000
    42 0.000000 6.250000 0.998666 0.000000 0.000000 0.000000
    43 0.000000 -2.750000 0.000000 0.000000 0.000000 0.000000
    44 0.000000 2.849164 0.000000 0.000000 0.000000 0.000000
    45 -4.269951 0.250008 -17.051239 0.099648 -0.008951 0.000565
    46 -4.254326 0.269539 -18.610919 0.012382 -0.008951 0.000565
    47 -4.277734 0.238289 -16.135708 0.012393 -0.008965 0.000583
  time 29
    0 0.000000 -0.000006 0.000000 -1.570798 -1.391899 -3.141590
    1 -6.613281 -2.207031 -1.115234 0.013226 -0.695278 -2.042891
    2 6.028141 0.000000 0.000000 -1.673732 -0.881265 -0.493239
    3 11.692554 0.000001 0.000002 0.000000 0.000000 -0.966293
    4 11.481674 0.000001 -0.000032 -0.101568 0.218800 0.688222
    5 3.859709 -0.142404 -1.191975 -0.583834 0.057745 -1.715148
    6 1.312555 -0.000002 0.000001 -0.282364 0.024800 -0.268300
    7 0.729363 -0.000002 -0.000002 0.000000 0.000000 -0.415147
    8 3.942335 0.046767 -0.431443 -0.443389 0.236328 -1.284445
    9 1.539097 0.000000 0.000000 0.000000 0.000000 -0.637382
    10 1.196326 -0.000002 -0.000001 0.000000 0.000000 -0.703202
    11 3.883696 -0.046765 0.431443 -0.258899 0.387633 -0.931701
    12 1.719570 -0.000004 -0.000001 -0.002880 0.004705 -0.915718
    13 1.209171 -0.000002 0.000000 -0.001237 0.002825 -0.629490
    14 3.859865 -0.137947 1.332466 -0.099428 0.461302 -0.732690
    15 1.719429 0.000002 -0.000001 -0.000544 0.004038 -0.496891
    16 1.099665 0.000000 0.000000 -0.001800 0.001871 -1.010281
    17 0.806053 -0.348925 1.321258 -1.057553 -0.351234 -0.805849
    18 1.789780 -0.000002 0.000002 0.009971 -0.499704 0.157138
    19 1.207006 0.000000 0.000000 0.047483 0.005693 -0.097994
    20 -3.794922 2.695313 -6.742188 3.066403 -0.024148 1.435052
    21 6.028144 0.000000 0.000000 1.506424 0.751764 -0.621281
    22 11.692554 0.000001 0.000003 0.000000 0.000024 -1.814076
    23 11.481697 0.000001 0.000002 -0.697080 -0.183875 1.078002
    24 3.859678 -0.132570 1.193109 0.326316 0.256096 -1.584591
    25 1.312557 -0.000002 0.000001 0.221739 0.022771 -0.426063
    26 0.729365 0.000002 -0.000002 0.000000 0.000000 -0.527383
    27 3.942305 0.050327 0.431044 0.341352 0.083923 -1.173694
    28 1.539099 -0.000002 0.000000 0.000000 0.000000 -0.841064
    29 1.196321 0.000008 0.000000 0.000000 0.000000 -1.069706
    30 3.883661 -0.050323 -0.431042 0.238779 -0.105152 -0.826078
    31 1.719578 0.000004 0.000000 0.004734 -0.006416 -1.002558
    32 1.209185 0.000002 0.000000 0.003344 -0.002951 -1.064971
    33 3.859838 -0.148937 -1.331282 -0.154114 -0.173803 -0.129169
    34 1.719423 0.000002 0.000000 0.000515 -0.006601 -0.442615
    35 1.099667 0.000002 0.000000 0.000995 -0.004103 -0.482900
    36 0.806021 -0.359837 -1.318334 1.062340 0.316431 -0.969987
    37 1.789782 0.000000 -0.000004 -0.144263 0.169031 0.159300
    38 1.206999 0.000003 0.000002 -0.177846 -0.149556 0.807820
    39 -4.289483 0.140629 -19.925303 0.006175 -0.004476 0.000252
    40 -4.355495 -20.949858 -4.543077 0.006196 -0.004484 0.000275
    41 0.000000 7.169887 -1.514632 0.000000 0.000000 0.000000
    42 0.000000 6.250000 0.998666 0.000000 0.000000 0.000000
    43 0.000000 -2.750000 0.000000 0.000000 0.000000 0.000000
    44 0.000000 2.849164 0.000000 0.000000 0.000000 0.000000
    45 -4.305109 0.125004 -17.090303 0.093440 -0.004476 0.000252
    46 -4.297296 0.132817 -18.649983 0.006174 -0.004476 0.000252
    47 -4.308985 0.117191 -16.174771 0.006187 -0.004482 0.000243
  time 30
    0 0.000000 -0.000006 0.000000 -1.570798 -1.391899 -3.141590
    1 -6.613281 -2.207031 -1.115234 0.013226 -0.695278 -2.042891
    2 6.028141 0.000000 0.000000 -1.680076 -0.888176 -0.487247
    3 11.692554 0.000001 0.000002 0.000000 0.000000 -0.955538
    4 11.481674 0.000001 -0.000032 -0.102846 0.217567 0.678660
    5 3.859709 -0.142404 -1.191975 -0.583834 0.057745 -1.715148
    6 1.312555 -0.000002 0.000001 -0.282364 0.024800 -0.268300
    7 0.729363 -0.000002 -0.000002 0.000000 0.000000 -0.415147
    8 3.942335 0.046767 -0.431443 -0.443389 0.236328 -1.284431
    9 1.539097 0.000000 0.000000 0.000000 0.000000 -0.637382
    10 1.196326 -0.000002 -0.000001 0.000000 0.000000 -0.703202
    11 3.883696 -0.046765 0.431443 -0.258899 0.387633 -0.931701
    12 1.719570 -0.000004 -0.000001 -0.002880 0.004705 -0.915718
    13 1.209171 -0.000002 0.000000 -0.001237 0.002825 -0.629490
    14 3.859865 -0.137947 1.332466 -0.099428 0.461302 -0.732690
    15 1.719429 0.000002 -0.000001 -0.000544 0.004038 -0.496891
    16 1.099665 0.000000 0.000000 -0.001800 0.001871 -1.010281
    17 0.806053 -0.348925 1.321258 -1.057553 -0.351234 -0.805849
    18 1.789780 -0.000002 0.000002 0.009971 -0.499704 0.157138
    19 1.207006 0.000000 0.000000 0.047483 0.005693 -0.097994
    20 -3.794922 2.695313 -6.742188 3.066403 -0.024148 1.435052
    21 6.028144 0.000000 0.000000 1.508007 0.755528 -0.620368
    22 11.692554 0.000001 0.000003 0.000000 0.000024 -1.808330
    23 11.481697 0.000001 0.000002 -0.701574 -0.179475 1.074007
    24 3.859678 -0.132570 1.193109 0.326316 0.256096 -1.584591
    25 1.312557 -0.000002 0.000001 0.221739 0.022771 -0.426063
    26 0.729365 0.000002 -0.000002 0.000000 0.000000 -0.527383
    27 3.942305 0.050327 0.431044 0.341352 0.083923 -1.173694
    28 1.539099 -0.000002 0.000000 0.000000 0.000000 -0.841064
    29 1.196321 0.000008 0.000000 0.000000 0.000000 -1.069706
    30 3.883661 -0.050323 -0.431042 0.238779 -0.105152 -0.826078
    31 1.719578 0.000004 0.000000 0.004734 -0.006416 -1.002558
    32 1.209185 0.000002 0.000000 0.003344 -0.002951 -1.064971
    33 3.859838 -0.148937 -1.331282 -0.154114 -0.173803 -0.129135
    34 1.719423 0.000002 0.000000 0.000515 -0.006601 -0.442615
    35 1.099667 0.000002 0.000000 0.000995 -0.004103 -0.482900
    36 0.806021 -0.359837 -1.318334 1.062355 0.316431 -0.969987
    37 1.789782 0.000000 -0.000004 -0.144263 0.169031 0.159300
    38 1.206999 0.000003 0.000002 -0.177846 -0.149556 0.807820
    39 -4.348079 0.000000 -19.960460 0.000000 0.000000 -0.000061
    40 -4.347682 -20.996734 -4.449324 0.000000 0.000000 -0.000053
    41 0.000000 7.169887 -1.514632 0.000000 0.000000 0.000000
    42 0.000000 6.250000 0.998666 0.000000 0.000000 0.000000
    43 0.000000 -2.750000 0.000000 0.000000 0.000000 0.000000
    44 0.000000 2.849164 0.000000 0.000000 0.000000 0.000000
    45 -4.348079 0.000000 -17.125460 0.087266 0.000000 -0.000061
    46 -4.348079 0.000000 -18.685140 0.000000 0.000000 -0.000061
    47 -4.348048 0.000000 -16.209929 0.000000 0.000000 -0.000029
end
