// Created by Crowbar++ 0.74
version 1
nodes
  0 "ValveBiped.Bip01_Spine4" -1
  1 "ValveBiped.Bip01_L_Clavicle" 0
  2 "ValveBiped.Bip01_L_UpperArm" 1
  3 "ValveBiped.Bip01_L_Forearm" 2
  4 "ValveBiped.Bip01_L_Hand" 3
  5 "ValveBiped.Bip01_L_Finger4" 4
  6 "ValveBiped.Bip01_L_Finger41" 5
  7 "ValveBiped.Bip01_L_Finger42" 6
  8 "ValveBiped.Bip01_L_Finger3" 4
  9 "ValveBiped.Bip01_L_Finger31" 8
  10 "ValveBiped.Bip01_L_Finger32" 9
  11 "ValveBiped.Bip01_L_Finger2" 4
  12 "ValveBiped.Bip01_L_Finger21" 11
  13 "ValveBiped.Bip01_L_Finger22" 12
  14 "ValveBiped.Bip01_L_Finger1" 4
  15 "ValveBiped.Bip01_L_Finger11" 14
  16 "ValveBiped.Bip01_L_Finger12" 15
  17 "ValveBiped.Bip01_L_Finger0" 4
  18 "ValveBiped.Bip01_L_Finger01" 17
  19 "ValveBiped.Bip01_L_Finger02" 18
  20 "ValveBiped.Bip01_R_Clavicle" 0
  21 "ValveBiped.Bip01_R_UpperArm" 20
  22 "ValveBiped.Bip01_R_Forearm" 21
  23 "ValveBiped.Bip01_R_Hand" 22
  24 "ValveBiped.Bip01_R_Finger4" 23
  25 "ValveBiped.Bip01_R_Finger41" 24
  26 "ValveBiped.Bip01_R_Finger42" 25
  27 "ValveBiped.Bip01_R_Finger3" 23
  28 "ValveBiped.Bip01_R_Finger31" 27
  29 "ValveBiped.Bip01_R_Finger32" 28
  30 "ValveBiped.Bip01_R_Finger2" 23
  31 "ValveBiped.Bip01_R_Finger21" 30
  32 "ValveBiped.Bip01_R_Finger22" 31
  33 "ValveBiped.Bip01_R_Finger1" 23
  34 "ValveBiped.Bip01_R_Finger11" 33
  35 "ValveBiped.Bip01_R_Finger12" 34
  36 "ValveBiped.Bip01_R_Finger0" 23
  37 "ValveBiped.Bip01_R_Finger01" 36
  38 "ValveBiped.Bip01_R_Finger02" 37
  39 "mosin_strip_clip" -1
  40 "control" -1
  41 "mosin_trigger" 40
  42 "mosin_bolt_base" 40
  43 "mosin_bolt_handle" 42
  44 "mosin_bolt_hammer" 42
  45 "mosin_strip_bullets_top" -1
  46 "mosin_strip_bullets_group" -1
  47 "mosin_bullet_single" -1
end
skeleton
  time 0
    0 0.000000 -0.000006 0.000000 -1.570798 -1.391899 -3.141590
    1 -6.613281 -2.207031 -1.115234 0.013226 -0.695278 -2.042891
    2 6.028141 0.000000 0.000000 -1.680083 -0.888178 -0.487239
    3 11.692554 0.000001 0.000002 0.000000 0.000000 -0.955548
    4 11.481674 0.000001 -0.000032 -0.102897 0.217577 0.678677
    5 3.859709 -0.142404 -1.191975 -0.583832 0.057744 -1.715147
    6 1.312555 -0.000002 0.000001 -0.282364 0.024800 -0.268300
    7 0.729363 -0.000002 -0.000002 0.000000 0.000000 -0.415147
    8 3.942335 0.046767 -0.431443 -0.443395 0.236336 -1.284441
    9 1.539097 0.000000 0.000000 0.000000 0.000000 -0.637382
    10 1.196326 -0.000002 -0.000001 0.000000 0.000000 -0.703202
    11 3.883696 -0.046765 0.431443 -0.258899 0.387633 -0.931701
    12 1.719570 -0.000004 -0.000001 -0.002878 0.004706 -0.915718
    13 1.209171 -0.000002 0.000000 -0.001237 0.002825 -0.629490
    14 3.859865 -0.137947 1.332466 -0.099428 0.461302 -0.732690
    15 1.719429 0.000002 -0.000001 -0.000544 0.004038 -0.496889
    16 1.099665 0.000000 0.000000 -0.001800 0.001871 -1.010281
    17 0.806053 -0.348925 1.321258 -1.057544 -0.351229 -0.805852
    18 1.789780 -0.000002 0.000002 0.009981 -0.499718 0.157124
    19 1.207006 0.000000 0.000000 0.047483 0.005702 -0.097994
    20 -3.794922 2.695313 -6.742188 3.066403 -0.024148 1.435052
    21 6.028144 0.000000 0.000000 1.507981 0.755546 -0.620395
    22 11.692554 0.000001 0.000003 0.000001 0.000026 -1.808392
    23 11.481697 0.000001 0.000002 -0.701547 -0.179494 1.074070
    24 3.859678 -0.132570 1.193109 0.326311 0.256107 -1.584620
    25 1.312557 -0.000002 0.000001 0.221740 0.022777 -0.426036
    26 0.729365 0.000002 -0.000002 0.000000 0.000000 -0.527388
    27 3.942305 0.050327 0.431044 0.341355 0.083934 -1.173716
    28 1.539099 -0.000002 0.000000 0.000000 0.000000 -0.841063
    29 1.196321 0.000008 0.000000 0.000000 0.000000 -1.069722
    30 3.883661 -0.050323 -0.431042 0.238782 -0.105154 -0.826091
    31 1.719578 0.000004 0.000000 0.004735 -0.006414 -1.002567
    32 1.209185 0.000002 0.000000 0.003345 -0.002948 -1.065018
    33 3.859838 -0.148937 -1.331282 -0.154113 -0.173804 -0.129133
    34 1.719423 0.000002 0.000000 0.000527 -0.006591 -0.442658
    35 1.099667 0.000002 0.000000 0.000995 -0.004090 -0.482923
    36 0.806021 -0.359837 -1.318334 1.062339 0.316414 -0.969989
    37 1.789782 0.000000 -0.000004 -0.144264 0.169032 0.159290
    38 1.206999 0.000003 0.000002 -0.177856 -0.149566 0.807819
    39 -4.347656 0.000000 -19.953125 0.000000 0.000000 -0.000001
    40 -4.347656 -21.000000 -4.449219 0.000000 0.000000 -0.000001
    41 0.000000 7.169887 -1.514632 0.000000 0.000000 0.000000
    42 0.000000 6.250000 0.998666 0.000000 0.000000 0.000000
    43 0.000000 -2.750000 0.000000 0.000000 0.000000 0.000000
    44 0.000000 2.851563 0.000000 0.000000 0.000000 0.000000
    45 -4.347656 0.000000 -17.125000 0.087264 0.000000 -0.000002
    46 -4.347656 0.000000 -18.687500 0.000000 0.000000 -0.000001
    47 -4.347656 0.000000 -16.203125 0.000000 0.000000 -0.000001
  time 1
    0 0.000000 -0.000006 0.000000 -1.570798 -1.391899 -3.141590
    1 -6.613281 -2.207031 -1.115234 0.013226 -0.695278 -2.042891
    2 6.028141 0.000000 0.000000 -1.680083 -0.888178 -0.487239
    3 11.692554 0.000001 0.000002 0.000000 0.000000 -0.955548
    4 11.481674 0.000001 -0.000032 -0.102897 0.217577 0.678677
    5 3.859709 -0.142404 -1.191975 -0.583832 0.057744 -1.715147
    6 1.312555 -0.000002 0.000001 -0.282364 0.024800 -0.268300
    7 0.729363 -0.000002 -0.000002 0.000000 0.000000 -0.415147
    8 3.942335 0.046767 -0.431443 -0.443395 0.236336 -1.284441
    9 1.539097 0.000000 0.000000 0.000000 0.000000 -0.637382
    10 1.196326 -0.000002 -0.000001 0.000000 0.000000 -0.703202
    11 3.883696 -0.046765 0.431443 -0.258899 0.387633 -0.931701
    12 1.719570 -0.000004 -0.000001 -0.002878 0.004706 -0.915718
    13 1.209171 -0.000002 0.000000 -0.001237 0.002825 -0.629490
    14 3.859865 -0.137947 1.332466 -0.099428 0.461302 -0.732690
    15 1.719429 0.000002 -0.000001 -0.000544 0.004038 -0.496889
    16 1.099665 0.000000 0.000000 -0.001800 0.001871 -1.010281
    17 0.806053 -0.348925 1.321258 -1.057544 -0.351229 -0.805852
    18 1.789780 -0.000002 0.000002 0.009981 -0.499718 0.157124
    19 1.207006 0.000000 0.000000 0.047483 0.005702 -0.097994
    20 -3.794922 2.695313 -6.742188 3.066403 -0.024148 1.435052
    21 6.028144 0.000000 0.000000 1.507981 0.755546 -0.620395
    22 11.692554 0.000001 0.000003 0.000001 0.000026 -1.808392
    23 11.481697 0.000001 0.000002 -0.701547 -0.179494 1.074070
    24 3.859678 -0.132570 1.193109 0.326311 0.256107 -1.584620
    25 1.312557 -0.000002 0.000001 0.221740 0.022777 -0.426036
    26 0.729365 0.000002 -0.000002 0.000000 0.000000 -0.527388
    27 3.942305 0.050327 0.431044 0.341355 0.083934 -1.173716
    28 1.539099 -0.000002 0.000000 0.000000 0.000000 -0.841063
    29 1.196321 0.000008 0.000000 0.000000 0.000000 -1.069722
    30 3.883661 -0.050323 -0.431042 0.238782 -0.105154 -0.826091
    31 1.719578 0.000004 0.000000 0.004735 -0.006414 -1.002567
    32 1.209185 0.000002 0.000000 0.003345 -0.002948 -1.065018
    33 3.859838 -0.148937 -1.331282 -0.154113 -0.173804 -0.129133
    34 1.719423 0.000002 0.000000 0.000527 -0.006591 -0.442658
    35 1.099667 0.000002 0.000000 0.000995 -0.004090 -0.482923
    36 0.806021 -0.359837 -1.318334 1.062339 0.316414 -0.969989
    37 1.789782 0.000000 -0.000004 -0.144264 0.169032 0.159290
    38 1.206999 0.000003 0.000002 -0.177856 -0.149566 0.807819
    39 -4.347656 0.000000 -19.953125 0.000000 0.000000 -0.000001
    40 -4.347656 -21.000000 -4.449219 0.000000 0.000000 -0.000001
    41 0.000000 7.169887 -1.514632 0.000000 0.000000 0.000000
    42 0.000000 6.250000 0.998666 0.000000 0.000000 0.000000
    43 0.000000 -2.750000 0.000000 0.000000 0.000000 0.000000
    44 0.000000 2.851563 0.000000 0.000000 0.000000 0.000000
    45 -4.347656 0.000000 -17.125000 0.087264 0.000000 -0.000002
    46 -4.347656 0.000000 -18.687500 0.000000 0.000000 -0.000001
    47 -4.347656 0.000000 -16.203125 0.000000 0.000000 -0.000001
  time 2
    0 0.000000 -0.000006 0.000000 -1.570798 -1.391899 -3.141590
    1 -6.613281 -2.207031 -1.115234 0.013226 -0.695278 -2.042891
    2 6.028141 0.000000 0.000000 -1.680083 -0.888178 -0.487239
    3 11.692554 0.000001 0.000002 0.000000 0.000000 -0.955548
    4 11.481674 0.000001 -0.000032 -0.102897 0.217577 0.678677
    5 3.859709 -0.142404 -1.191975 -0.583832 0.057744 -1.715147
    6 1.312555 -0.000002 0.000001 -0.282364 0.024800 -0.268300
    7 0.729363 -0.000002 -0.000002 0.000000 0.000000 -0.415147
    8 3.942335 0.046767 -0.431443 -0.443395 0.236336 -1.284441
    9 1.539097 0.000000 0.000000 0.000000 0.000000 -0.637382
    10 1.196326 -0.000002 -0.000001 0.000000 0.000000 -0.703202
    11 3.883696 -0.046765 0.431443 -0.258899 0.387633 -0.931701
    12 1.719570 -0.000004 -0.000001 -0.002878 0.004706 -0.915718
    13 1.209171 -0.000002 0.000000 -0.001237 0.002825 -0.629490
    14 3.859865 -0.137947 1.332466 -0.099428 0.461302 -0.732690
    15 1.719429 0.000002 -0.000001 -0.000544 0.004038 -0.496889
    16 1.099665 0.000000 0.000000 -0.001800 0.001871 -1.010281
    17 0.806053 -0.348925 1.321258 -1.057544 -0.351229 -0.805852
    18 1.789780 -0.000002 0.000002 0.009981 -0.499718 0.157124
    19 1.207006 0.000000 0.000000 0.047483 0.005702 -0.097994
    20 -3.794922 2.695313 -6.742188 3.066403 -0.024148 1.435052
    21 6.028144 0.000000 0.000000 1.507981 0.755546 -0.620395
    22 11.692554 0.000001 0.000003 0.000001 0.000026 -1.808392
    23 11.481697 0.000001 0.000002 -0.701547 -0.179494 1.074070
    24 3.859678 -0.132570 1.193109 0.326311 0.256107 -1.584620
    25 1.312557 -0.000002 0.000001 0.221740 0.022777 -0.426036
    26 0.729365 0.000002 -0.000002 0.000000 0.000000 -0.527388
    27 3.942305 0.050327 0.431044 0.341355 0.083934 -1.173716
    28 1.539099 -0.000002 0.000000 0.000000 0.000000 -0.841063
    29 1.196321 0.000008 0.000000 0.000000 0.000000 -1.069722
    30 3.883661 -0.050323 -0.431042 0.238782 -0.105154 -0.826091
    31 1.719578 0.000004 0.000000 0.004735 -0.006414 -1.002567
    32 1.209185 0.000002 0.000000 0.003345 -0.002948 -1.065018
    33 3.859838 -0.148937 -1.331282 -0.154113 -0.173804 -0.129133
    34 1.719423 0.000002 0.000000 0.000527 -0.006591 -0.442658
    35 1.099667 0.000002 0.000000 0.000995 -0.004090 -0.482923
    36 0.806021 -0.359837 -1.318334 1.062339 0.316414 -0.969989
    37 1.789782 0.000000 -0.000004 -0.144264 0.169032 0.159290
    38 1.206999 0.000003 0.000002 -0.177856 -0.149566 0.807819
    39 -4.347656 0.000000 -19.953125 0.000000 0.000000 -0.000001
    40 -4.347656 -21.000000 -4.449219 0.000000 0.000000 -0.000001
    41 0.000000 7.169887 -1.514632 0.000000 0.000000 0.000000
    42 0.000000 6.250000 0.998666 0.000000 0.000000 0.000000
    43 0.000000 -2.750000 0.000000 0.000000 0.000000 0.000000
    44 0.000000 2.851563 0.000000 0.000000 0.000000 0.000000
    45 -4.347656 0.000000 -17.125000 0.087264 0.000000 -0.000002
    46 -4.347656 0.000000 -18.687500 0.000000 0.000000 -0.000001
    47 -4.347656 0.000000 -16.203125 0.000000 0.000000 -0.000001
  time 3
    0 0.000000 -0.000006 0.000000 -1.570798 -1.391899 -3.141590
    1 -6.613281 -2.207031 -1.115234 0.013226 -0.695278 -2.042891
    2 6.028141 0.000000 0.000000 -1.680083 -0.888178 -0.487239
    3 11.692554 0.000001 0.000002 0.000000 0.000000 -0.955548
    4 11.481674 0.000001 -0.000032 -0.102897 0.217577 0.678677
    5 3.859709 -0.142404 -1.191975 -0.583832 0.057744 -1.715147
    6 1.312555 -0.000002 0.000001 -0.282364 0.024800 -0.268300
    7 0.729363 -0.000002 -0.000002 0.000000 0.000000 -0.415147
    8 3.942335 0.046767 -0.431443 -0.443395 0.236336 -1.284441
    9 1.539097 0.000000 0.000000 0.000000 0.000000 -0.637382
    10 1.196326 -0.000002 -0.000001 0.000000 0.000000 -0.703202
    11 3.883696 -0.046765 0.431443 -0.258899 0.387633 -0.931701
    12 1.719570 -0.000004 -0.000001 -0.002878 0.004706 -0.915718
    13 1.209171 -0.000002 0.000000 -0.001237 0.002825 -0.629490
    14 3.859865 -0.137947 1.332466 -0.099428 0.461302 -0.732690
    15 1.719429 0.000002 -0.000001 -0.000544 0.004038 -0.496889
    16 1.099665 0.000000 0.000000 -0.001800 0.001871 -1.010281
    17 0.806053 -0.348925 1.321258 -1.057544 -0.351229 -0.805852
    18 1.789780 -0.000002 0.000002 0.009981 -0.499718 0.157124
    19 1.207006 0.000000 0.000000 0.047483 0.005702 -0.097994
    20 -3.794922 2.695313 -6.742188 3.066403 -0.024148 1.435052
    21 6.028144 0.000000 0.000000 1.507981 0.755546 -0.620395
    22 11.692554 0.000001 0.000003 0.000001 0.000026 -1.808392
    23 11.481697 0.000001 0.000002 -0.701547 -0.179494 1.074070
    24 3.859678 -0.132570 1.193109 0.326311 0.256107 -1.584620
    25 1.312557 -0.000002 0.000001 0.221740 0.022777 -0.426036
    26 0.729365 0.000002 -0.000002 0.000000 0.000000 -0.527388
    27 3.942305 0.050327 0.431044 0.341355 0.083934 -1.173716
    28 1.539099 -0.000002 0.000000 0.000000 0.000000 -0.841063
    29 1.196321 0.000008 0.000000 0.000000 0.000000 -1.069722
    30 3.883661 -0.050323 -0.431042 0.238782 -0.105154 -0.826091
    31 1.719578 0.000004 0.000000 0.004735 -0.006414 -1.002567
    32 1.209185 0.000002 0.000000 0.003345 -0.002948 -1.065018
    33 3.859838 -0.148937 -1.331282 -0.154113 -0.173804 -0.129133
    34 1.719423 0.000002 0.000000 0.000527 -0.006591 -0.442658
    35 1.099667 0.000002 0.000000 0.000995 -0.004090 -0.482923
    36 0.806021 -0.359837 -1.318334 1.062339 0.316414 -0.969989
    37 1.789782 0.000000 -0.000004 -0.144264 0.169032 0.159290
    38 1.206999 0.000003 0.000002 -0.177856 -0.149566 0.807819
    39 -4.347656 0.000000 -19.953125 0.000000 0.000000 -0.000001
    40 -4.347656 -21.000000 -4.449219 0.000000 0.000000 -0.000001
    41 0.000000 7.169887 -1.514632 0.000000 0.000000 0.000000
    42 0.000000 6.250000 0.998666 0.000000 0.000000 0.000000
    43 0.000000 -2.750000 0.000000 0.000000 0.000000 0.000000
    44 0.000000 2.851563 0.000000 0.000000 0.000000 0.000000
    45 -4.347656 0.000000 -17.125000 0.087264 0.000000 -0.000002
    46 -4.347656 0.000000 -18.687500 0.000000 0.000000 -0.000001
    47 -4.347656 0.000000 -16.203125 0.000000 0.000000 -0.000001
  time 4
    0 0.000000 -0.000006 0.000000 -1.570798 -1.391899 -3.141590
    1 -6.613281 -2.207031 -1.115234 0.013226 -0.695278 -2.042891
    2 6.028141 0.000000 0.000000 -1.680083 -0.888178 -0.487239
    3 11.692554 0.000001 0.000002 0.000000 0.000000 -0.955548
    4 11.481674 0.000001 -0.000032 -0.102897 0.217577 0.678677
    5 3.859709 -0.142404 -1.191975 -0.583832 0.057744 -1.715147
    6 1.312555 -0.000002 0.000001 -0.282364 0.024800 -0.268300
    7 0.729363 -0.000002 -0.000002 0.000000 0.000000 -0.415147
    8 3.942335 0.046767 -0.431443 -0.443395 0.236336 -1.284441
    9 1.539097 0.000000 0.000000 0.000000 0.000000 -0.637382
    10 1.196326 -0.000002 -0.000001 0.000000 0.000000 -0.703202
    11 3.883696 -0.046765 0.431443 -0.258899 0.387633 -0.931701
    12 1.719570 -0.000004 -0.000001 -0.002878 0.004706 -0.915718
    13 1.209171 -0.000002 0.000000 -0.001237 0.002825 -0.629490
    14 3.859865 -0.137947 1.332466 -0.099428 0.461302 -0.732690
    15 1.719429 0.000002 -0.000001 -0.000544 0.004038 -0.496889
    16 1.099665 0.000000 0.000000 -0.001800 0.001871 -1.010281
    17 0.806053 -0.348925 1.321258 -1.057544 -0.351229 -0.805852
    18 1.789780 -0.000002 0.000002 0.009981 -0.499718 0.157124
    19 1.207006 0.000000 0.000000 0.047483 0.005702 -0.097994
    20 -3.794922 2.695313 -6.742188 3.066403 -0.024148 1.435052
    21 6.028144 0.000000 0.000000 1.507981 0.755546 -0.620395
    22 11.692554 0.000001 0.000003 0.000001 0.000026 -1.808392
    23 11.481697 0.000001 0.000002 -0.701547 -0.179494 1.074070
    24 3.859678 -0.132570 1.193109 0.326311 0.256107 -1.584620
    25 1.312557 -0.000002 0.000001 0.221740 0.022777 -0.426036
    26 0.729365 0.000002 -0.000002 0.000000 0.000000 -0.527388
    27 3.942305 0.050327 0.431044 0.341355 0.083934 -1.173716
    28 1.539099 -0.000002 0.000000 0.000000 0.000000 -0.841063
    29 1.196321 0.000008 0.000000 0.000000 0.000000 -1.069722
    30 3.883661 -0.050323 -0.431042 0.238782 -0.105154 -0.826091
    31 1.719578 0.000004 0.000000 0.004735 -0.006414 -1.002567
    32 1.209185 0.000002 0.000000 0.003345 -0.002948 -1.065018
    33 3.859838 -0.148937 -1.331282 -0.154113 -0.173804 -0.129133
    34 1.719423 0.000002 0.000000 0.000527 -0.006591 -0.442658
    35 1.099667 0.000002 0.000000 0.000995 -0.004090 -0.482923
    36 0.806021 -0.359837 -1.318334 1.062339 0.316414 -0.969989
    37 1.789782 0.000000 -0.000004 -0.144264 0.169032 0.159290
    38 1.206999 0.000003 0.000002 -0.177856 -0.149566 0.807819
    39 -4.347656 0.000000 -19.953125 0.000000 0.000000 -0.000001
    40 -4.347656 -21.000000 -4.449219 0.000000 0.000000 -0.000001
    41 0.000000 7.169887 -1.514632 0.000000 0.000000 0.000000
    42 0.000000 6.250000 0.998666 0.000000 0.000000 0.000000
    43 0.000000 -2.750000 0.000000 0.000000 0.000000 0.000000
    44 0.000000 2.851563 0.000000 0.000000 0.000000 0.000000
    45 -4.347656 0.000000 -17.125000 0.087264 0.000000 -0.000002
    46 -4.347656 0.000000 -18.687500 0.000000 0.000000 -0.000001
    47 -4.347656 0.000000 -16.203125 0.000000 0.000000 -0.000001
  time 5
    0 0.000000 -0.000006 0.000000 -1.570798 -1.391899 -3.141590
    1 -6.613281 -2.207031 -1.115234 0.013226 -0.695278 -2.042891
    2 6.028141 0.000000 0.000000 -1.680083 -0.888178 -0.487239
    3 11.692554 0.000001 0.000002 0.000000 0.000000 -0.955548
    4 11.481674 0.000001 -0.000032 -0.102897 0.217577 0.678677
    5 3.859709 -0.142404 -1.191975 -0.583832 0.057744 -1.715147
    6 1.312555 -0.000002 0.000001 -0.282364 0.024800 -0.268300
    7 0.729363 -0.000002 -0.000002 0.000000 0.000000 -0.415147
    8 3.942335 0.046767 -0.431443 -0.443395 0.236336 -1.284441
    9 1.539097 0.000000 0.000000 0.000000 0.000000 -0.637382
    10 1.196326 -0.000002 -0.000001 0.000000 0.000000 -0.703202
    11 3.883696 -0.046765 0.431443 -0.258899 0.387633 -0.931701
    12 1.719570 -0.000004 -0.000001 -0.002878 0.004706 -0.915718
    13 1.209171 -0.000002 0.000000 -0.001237 0.002825 -0.629490
    14 3.859865 -0.137947 1.332466 -0.099428 0.461302 -0.732690
    15 1.719429 0.000002 -0.000001 -0.000544 0.004038 -0.496889
    16 1.099665 0.000000 0.000000 -0.001800 0.001871 -1.010281
    17 0.806053 -0.348925 1.321258 -1.057544 -0.351229 -0.805852
    18 1.789780 -0.000002 0.000002 0.009981 -0.499718 0.157124
    19 1.207006 0.000000 0.000000 0.047483 0.005702 -0.097994
    20 -3.794922 2.695313 -6.742188 3.066403 -0.024148 1.435052
    21 6.028144 0.000000 0.000000 1.507981 0.755546 -0.620395
    22 11.692554 0.000001 0.000003 0.000001 0.000026 -1.808392
    23 11.481697 0.000001 0.000002 -0.701547 -0.179494 1.074070
    24 3.859678 -0.132570 1.193109 0.326311 0.256107 -1.584620
    25 1.312557 -0.000002 0.000001 0.221740 0.022777 -0.426036
    26 0.729365 0.000002 -0.000002 0.000000 0.000000 -0.527388
    27 3.942305 0.050327 0.431044 0.341355 0.083934 -1.173716
    28 1.539099 -0.000002 0.000000 0.000000 0.000000 -0.841063
    29 1.196321 0.000008 0.000000 0.000000 0.000000 -1.069722
    30 3.883661 -0.050323 -0.431042 0.238782 -0.105154 -0.826091
    31 1.719578 0.000004 0.000000 0.004735 -0.006414 -1.002567
    32 1.209185 0.000002 0.000000 0.003345 -0.002948 -1.065018
    33 3.859838 -0.148937 -1.331282 -0.154113 -0.173804 -0.129133
    34 1.719423 0.000002 0.000000 0.000527 -0.006591 -0.442658
    35 1.099667 0.000002 0.000000 0.000995 -0.004090 -0.482923
    36 0.806021 -0.359837 -1.318334 1.062339 0.316414 -0.969989
    37 1.789782 0.000000 -0.000004 -0.144264 0.169032 0.159290
    38 1.206999 0.000003 0.000002 -0.177856 -0.149566 0.807819
    39 -4.347656 0.000000 -19.953125 0.000000 0.000000 -0.000001
    40 -4.347656 -21.000000 -4.449219 0.000000 0.000000 -0.000001
    41 0.000000 7.169887 -1.514632 0.000000 0.000000 0.000000
    42 0.000000 6.250000 0.998666 0.000000 0.000000 0.000000
    43 0.000000 -2.750000 0.000000 0.000000 0.000000 0.000000
    44 0.000000 2.851563 0.000000 0.000000 0.000000 0.000000
    45 -4.347656 0.000000 -17.125000 0.087264 0.000000 -0.000002
    46 -4.347656 0.000000 -18.687500 0.000000 0.000000 -0.000001
    47 -4.347656 0.000000 -16.203125 0.000000 0.000000 -0.000001
  time 6
    0 0.000000 -0.000006 0.000000 -1.570798 -1.391899 -3.141590
    1 -6.613281 -2.207031 -1.115234 0.013226 -0.695278 -2.042891
    2 6.028141 0.000000 0.000000 -1.680083 -0.888178 -0.487239
    3 11.692554 0.000001 0.000002 0.000000 0.000000 -0.955548
    4 11.481674 0.000001 -0.000032 -0.102897 0.217577 0.678677
    5 3.859709 -0.142404 -1.191975 -0.583832 0.057744 -1.715147
    6 1.312555 -0.000002 0.000001 -0.282364 0.024800 -0.268300
    7 0.729363 -0.000002 -0.000002 0.000000 0.000000 -0.415147
    8 3.942335 0.046767 -0.431443 -0.443395 0.236336 -1.284441
    9 1.539097 0.000000 0.000000 0.000000 0.000000 -0.637382
    10 1.196326 -0.000002 -0.000001 0.000000 0.000000 -0.703202
    11 3.883696 -0.046765 0.431443 -0.258899 0.387633 -0.931701
    12 1.719570 -0.000004 -0.000001 -0.002878 0.004706 -0.915718
    13 1.209171 -0.000002 0.000000 -0.001237 0.002825 -0.629490
    14 3.859865 -0.137947 1.332466 -0.099428 0.461302 -0.732690
    15 1.719429 0.000002 -0.000001 -0.000544 0.004038 -0.496889
    16 1.099665 0.000000 0.000000 -0.001800 0.001871 -1.010281
    17 0.806053 -0.348925 1.321258 -1.057544 -0.351229 -0.805852
    18 1.789780 -0.000002 0.000002 0.009981 -0.499718 0.157124
    19 1.207006 0.000000 0.000000 0.047483 0.005702 -0.097994
    20 -3.794922 2.695313 -6.742188 3.066403 -0.024148 1.435052
    21 6.028144 0.000000 0.000000 1.507981 0.755546 -0.620395
    22 11.692554 0.000001 0.000003 0.000001 0.000026 -1.808392
    23 11.481697 0.000001 0.000002 -0.701547 -0.179494 1.074070
    24 3.859678 -0.132570 1.193109 0.326311 0.256107 -1.584620
    25 1.312557 -0.000002 0.000001 0.221740 0.022777 -0.426036
    26 0.729365 0.000002 -0.000002 0.000000 0.000000 -0.527388
    27 3.942305 0.050327 0.431044 0.341355 0.083934 -1.173716
    28 1.539099 -0.000002 0.000000 0.000000 0.000000 -0.841063
    29 1.196321 0.000008 0.000000 0.000000 0.000000 -1.069722
    30 3.883661 -0.050323 -0.431042 0.238782 -0.105154 -0.826091
    31 1.719578 0.000004 0.000000 0.004735 -0.006414 -1.002567
    32 1.209185 0.000002 0.000000 0.003345 -0.002948 -1.065018
    33 3.859838 -0.148937 -1.331282 -0.154113 -0.173804 -0.129133
    34 1.719423 0.000002 0.000000 0.000527 -0.006591 -0.442658
    35 1.099667 0.000002 0.000000 0.000995 -0.004090 -0.482923
    36 0.806021 -0.359837 -1.318334 1.062339 0.316414 -0.969989
    37 1.789782 0.000000 -0.000004 -0.144264 0.169032 0.159290
    38 1.206999 0.000003 0.000002 -0.177856 -0.149566 0.807819
    39 -4.347656 0.000000 -19.953125 0.000000 0.000000 -0.000001
    40 -4.347656 -21.000000 -4.449219 0.000000 0.000000 -0.000001
    41 0.000000 7.169887 -1.514632 0.000000 0.000000 0.000000
    42 0.000000 6.250000 0.998666 0.000000 0.000000 0.000000
    43 0.000000 -2.750000 0.000000 0.000000 0.000000 0.000000
    44 0.000000 2.851563 0.000000 0.000000 0.000000 0.000000
    45 -4.347656 0.000000 -17.125000 0.087264 0.000000 -0.000002
    46 -4.347656 0.000000 -18.687500 0.000000 0.000000 -0.000001
    47 -4.347656 0.000000 -16.203125 0.000000 0.000000 -0.000001
  time 7
    0 0.000000 -0.000006 0.000000 -1.570798 -1.391899 -3.141590
    1 -6.613281 -2.207031 -1.115234 0.013226 -0.695278 -2.042891
    2 6.028141 0.000000 0.000000 -1.680083 -0.888178 -0.487239
    3 11.692554 0.000001 0.000002 0.000000 0.000000 -0.955548
    4 11.481674 0.000001 -0.000032 -0.102897 0.217577 0.678677
    5 3.859709 -0.142404 -1.191975 -0.583832 0.057744 -1.715147
    6 1.312555 -0.000002 0.000001 -0.282364 0.024800 -0.268300
    7 0.729363 -0.000002 -0.000002 0.000000 0.000000 -0.415147
    8 3.942335 0.046767 -0.431443 -0.443395 0.236336 -1.284441
    9 1.539097 0.000000 0.000000 0.000000 0.000000 -0.637382
    10 1.196326 -0.000002 -0.000001 0.000000 0.000000 -0.703202
    11 3.883696 -0.046765 0.431443 -0.258899 0.387633 -0.931701
    12 1.719570 -0.000004 -0.000001 -0.002878 0.004706 -0.915718
    13 1.209171 -0.000002 0.000000 -0.001237 0.002825 -0.629490
    14 3.859865 -0.137947 1.332466 -0.099428 0.461302 -0.732690
    15 1.719429 0.000002 -0.000001 -0.000544 0.004038 -0.496889
    16 1.099665 0.000000 0.000000 -0.001800 0.001871 -1.010281
    17 0.806053 -0.348925 1.321258 -1.057544 -0.351229 -0.805852
    18 1.789780 -0.000002 0.000002 0.009981 -0.499718 0.157124
    19 1.207006 0.000000 0.000000 0.047483 0.005702 -0.097994
    20 -3.794922 2.695313 -6.742188 3.066403 -0.024148 1.435052
    21 6.028144 0.000000 0.000000 1.507981 0.755546 -0.620395
    22 11.692554 0.000001 0.000003 0.000001 0.000026 -1.808392
    23 11.481697 0.000001 0.000002 -0.701547 -0.179494 1.074070
    24 3.859678 -0.132570 1.193109 0.326311 0.256107 -1.584620
    25 1.312557 -0.000002 0.000001 0.221740 0.022777 -0.426036
    26 0.729365 0.000002 -0.000002 0.000000 0.000000 -0.527388
    27 3.942305 0.050327 0.431044 0.341355 0.083934 -1.173716
    28 1.539099 -0.000002 0.000000 0.000000 0.000000 -0.841063
    29 1.196321 0.000008 0.000000 0.000000 0.000000 -1.069722
    30 3.883661 -0.050323 -0.431042 0.238782 -0.105154 -0.826091
    31 1.719578 0.000004 0.000000 0.004735 -0.006414 -1.002567
    32 1.209185 0.000002 0.000000 0.003345 -0.002948 -1.065018
    33 3.859838 -0.148937 -1.331282 -0.154113 -0.173804 -0.129133
    34 1.719423 0.000002 0.000000 0.000527 -0.006591 -0.442658
    35 1.099667 0.000002 0.000000 0.000995 -0.004090 -0.482923
    36 0.806021 -0.359837 -1.318334 1.062339 0.316414 -0.969989
    37 1.789782 0.000000 -0.000004 -0.144264 0.169032 0.159290
    38 1.206999 0.000003 0.000002 -0.177856 -0.149566 0.807819
    39 -4.347656 0.000000 -19.953125 0.000000 0.000000 -0.000001
    40 -4.347656 -21.000000 -4.449219 0.000000 0.000000 -0.000001
    41 0.000000 7.169887 -1.514632 0.000000 0.000000 0.000000
    42 0.000000 6.250000 0.998666 0.000000 0.000000 0.000000
    43 0.000000 -2.750000 0.000000 0.000000 0.000000 0.000000
    44 0.000000 2.851563 0.000000 0.000000 0.000000 0.000000
    45 -4.347656 0.000000 -17.125000 0.087264 0.000000 -0.000002
    46 -4.347656 0.000000 -18.687500 0.000000 0.000000 -0.000001
    47 -4.347656 0.000000 -16.203125 0.000000 0.000000 -0.000001
  time 8
    0 0.000000 -0.000006 0.000000 -1.570798 -1.391899 -3.141590
    1 -6.613281 -2.207031 -1.115234 0.013226 -0.695278 -2.042891
    2 6.028141 0.000000 0.000000 -1.680083 -0.888178 -0.487239
    3 11.692554 0.000001 0.000002 0.000000 0.000000 -0.955548
    4 11.481674 0.000001 -0.000032 -0.102897 0.217577 0.678677
    5 3.859709 -0.142404 -1.191975 -0.583832 0.057744 -1.715147
    6 1.312555 -0.000002 0.000001 -0.282364 0.024800 -0.268300
    7 0.729363 -0.000002 -0.000002 0.000000 0.000000 -0.415147
    8 3.942335 0.046767 -0.431443 -0.443395 0.236336 -1.284441
    9 1.539097 0.000000 0.000000 0.000000 0.000000 -0.637382
    10 1.196326 -0.000002 -0.000001 0.000000 0.000000 -0.703202
    11 3.883696 -0.046765 0.431443 -0.258899 0.387633 -0.931701
    12 1.719570 -0.000004 -0.000001 -0.002878 0.004706 -0.915718
    13 1.209171 -0.000002 0.000000 -0.001237 0.002825 -0.629490
    14 3.859865 -0.137947 1.332466 -0.099428 0.461302 -0.732690
    15 1.719429 0.000002 -0.000001 -0.000544 0.004038 -0.496889
    16 1.099665 0.000000 0.000000 -0.001800 0.001871 -1.010281
    17 0.806053 -0.348925 1.321258 -1.057544 -0.351229 -0.805852
    18 1.789780 -0.000002 0.000002 0.009981 -0.499718 0.157124
    19 1.207006 0.000000 0.000000 0.047483 0.005702 -0.097994
    20 -3.794922 2.695313 -6.742188 3.066403 -0.024148 1.435052
    21 6.028144 0.000000 0.000000 1.507981 0.755546 -0.620395
    22 11.692554 0.000001 0.000003 0.000001 0.000026 -1.808392
    23 11.481697 0.000001 0.000002 -0.701547 -0.179494 1.074070
    24 3.859678 -0.132570 1.193109 0.326311 0.256107 -1.584620
    25 1.312557 -0.000002 0.000001 0.221740 0.022777 -0.426036
    26 0.729365 0.000002 -0.000002 0.000000 0.000000 -0.527388
    27 3.942305 0.050327 0.431044 0.341355 0.083934 -1.173716
    28 1.539099 -0.000002 0.000000 0.000000 0.000000 -0.841063
    29 1.196321 0.000008 0.000000 0.000000 0.000000 -1.069722
    30 3.883661 -0.050323 -0.431042 0.238782 -0.105154 -0.826091
    31 1.719578 0.000004 0.000000 0.004735 -0.006414 -1.002567
    32 1.209185 0.000002 0.000000 0.003345 -0.002948 -1.065018
    33 3.859838 -0.148937 -1.331282 -0.154113 -0.173804 -0.129133
    34 1.719423 0.000002 0.000000 0.000527 -0.006591 -0.442658
    35 1.099667 0.000002 0.000000 0.000995 -0.004090 -0.482923
    36 0.806021 -0.359837 -1.318334 1.062339 0.316414 -0.969989
    37 1.789782 0.000000 -0.000004 -0.144264 0.169032 0.159290
    38 1.206999 0.000003 0.000002 -0.177856 -0.149566 0.807819
    39 -4.347656 0.000000 -19.953125 0.000000 0.000000 -0.000001
    40 -4.347656 -21.000000 -4.449219 0.000000 0.000000 -0.000001
    41 0.000000 7.169887 -1.514632 0.000000 0.000000 0.000000
    42 0.000000 6.250000 0.998666 0.000000 0.000000 0.000000
    43 0.000000 -2.750000 0.000000 0.000000 0.000000 0.000000
    44 0.000000 2.851563 0.000000 0.000000 0.000000 0.000000
    45 -4.347656 0.000000 -17.125000 0.087264 0.000000 -0.000002
    46 -4.347656 0.000000 -18.687500 0.000000 0.000000 -0.000001
    47 -4.347656 0.000000 -16.203125 0.000000 0.000000 -0.000001
  time 9
    0 0.000000 -0.000006 0.000000 -1.570798 -1.391899 -3.141590
    1 -6.613281 -2.207031 -1.115234 0.013226 -0.695278 -2.042891
    2 6.028141 0.000000 0.000000 -1.680083 -0.888178 -0.487239
    3 11.692554 0.000001 0.000002 0.000000 0.000000 -0.955548
    4 11.481674 0.000001 -0.000032 -0.102897 0.217577 0.678677
    5 3.859709 -0.142404 -1.191975 -0.583832 0.057744 -1.715147
    6 1.312555 -0.000002 0.000001 -0.282364 0.024800 -0.268300
    7 0.729363 -0.000002 -0.000002 0.000000 0.000000 -0.415147
    8 3.942335 0.046767 -0.431443 -0.443395 0.236336 -1.284441
    9 1.539097 0.000000 0.000000 0.000000 0.000000 -0.637382
    10 1.196326 -0.000002 -0.000001 0.000000 0.000000 -0.703202
    11 3.883696 -0.046765 0.431443 -0.258899 0.387633 -0.931701
    12 1.719570 -0.000004 -0.000001 -0.002878 0.004706 -0.915718
    13 1.209171 -0.000002 0.000000 -0.001237 0.002825 -0.629490
    14 3.859865 -0.137947 1.332466 -0.099428 0.461302 -0.732690
    15 1.719429 0.000002 -0.000001 -0.000544 0.004038 -0.496889
    16 1.099665 0.000000 0.000000 -0.001800 0.001871 -1.010281
    17 0.806053 -0.348925 1.321258 -1.057544 -0.351229 -0.805852
    18 1.789780 -0.000002 0.000002 0.009981 -0.499718 0.157124
    19 1.207006 0.000000 0.000000 0.047483 0.005702 -0.097994
    20 -3.794922 2.695313 -6.742188 3.066403 -0.024148 1.435052
    21 6.028144 0.000000 0.000000 1.507981 0.755546 -0.620395
    22 11.692554 0.000001 0.000003 0.000001 0.000026 -1.808392
    23 11.481697 0.000001 0.000002 -0.701547 -0.179494 1.074070
    24 3.859678 -0.132570 1.193109 0.326311 0.256107 -1.584620
    25 1.312557 -0.000002 0.000001 0.221740 0.022777 -0.426036
    26 0.729365 0.000002 -0.000002 0.000000 0.000000 -0.527388
    27 3.942305 0.050327 0.431044 0.341355 0.083934 -1.173716
    28 1.539099 -0.000002 0.000000 0.000000 0.000000 -0.841063
    29 1.196321 0.000008 0.000000 0.000000 0.000000 -1.069722
    30 3.883661 -0.050323 -0.431042 0.238782 -0.105154 -0.826091
    31 1.719578 0.000004 0.000000 0.004735 -0.006414 -1.002567
    32 1.209185 0.000002 0.000000 0.003345 -0.002948 -1.065018
    33 3.859838 -0.148937 -1.331282 -0.154113 -0.173804 -0.129133
    34 1.719423 0.000002 0.000000 0.000527 -0.006591 -0.442658
    35 1.099667 0.000002 0.000000 0.000995 -0.004090 -0.482923
    36 0.806021 -0.359837 -1.318334 1.062339 0.316414 -0.969989
    37 1.789782 0.000000 -0.000004 -0.144264 0.169032 0.159290
    38 1.206999 0.000003 0.000002 -0.177856 -0.149566 0.807819
    39 -4.347656 0.000000 -19.953125 0.000000 0.000000 -0.000001
    40 -4.347656 -21.000000 -4.449219 0.000000 0.000000 -0.000001
    41 0.000000 7.169887 -1.514632 0.000000 0.000000 0.000000
    42 0.000000 6.250000 0.998666 0.000000 0.000000 0.000000
    43 0.000000 -2.750000 0.000000 0.000000 0.000000 0.000000
    44 0.000000 2.851563 0.000000 0.000000 0.000000 0.000000
    45 -4.347656 0.000000 -17.125000 0.087264 0.000000 -0.000002
    46 -4.347656 0.000000 -18.687500 0.000000 0.000000 -0.000001
    47 -4.347656 0.000000 -16.203125 0.000000 0.000000 -0.000001
  time 10
    0 0.000000 -0.000006 0.000000 -1.570798 -1.391899 -3.141590
    1 -6.613281 -2.207031 -1.115234 0.013226 -0.695278 -2.042891
    2 6.028141 0.000000 0.000000 -1.680083 -0.888178 -0.487239
    3 11.692554 0.000001 0.000002 0.000000 0.000000 -0.955548
    4 11.481674 0.000001 -0.000032 -0.102897 0.217577 0.678677
    5 3.859709 -0.142404 -1.191975 -0.583832 0.057744 -1.715147
    6 1.312555 -0.000002 0.000001 -0.282364 0.024800 -0.268300
    7 0.729363 -0.000002 -0.000002 0.000000 0.000000 -0.415147
    8 3.942335 0.046767 -0.431443 -0.443395 0.236336 -1.284441
    9 1.539097 0.000000 0.000000 0.000000 0.000000 -0.637382
    10 1.196326 -0.000002 -0.000001 0.000000 0.000000 -0.703202
    11 3.883696 -0.046765 0.431443 -0.258899 0.387633 -0.931701
    12 1.719570 -0.000004 -0.000001 -0.002878 0.004706 -0.915718
    13 1.209171 -0.000002 0.000000 -0.001237 0.002825 -0.629490
    14 3.859865 -0.137947 1.332466 -0.099428 0.461302 -0.732690
    15 1.719429 0.000002 -0.000001 -0.000544 0.004038 -0.496889
    16 1.099665 0.000000 0.000000 -0.001800 0.001871 -1.010281
    17 0.806053 -0.348925 1.321258 -1.057544 -0.351229 -0.805852
    18 1.789780 -0.000002 0.000002 0.009981 -0.499718 0.157124
    19 1.207006 0.000000 0.000000 0.047483 0.005702 -0.097994
    20 -3.794922 2.695313 -6.742188 3.066403 -0.024148 1.435052
    21 6.028144 0.000000 0.000000 1.507981 0.755546 -0.620395
    22 11.692554 0.000001 0.000003 0.000001 0.000026 -1.808392
    23 11.481697 0.000001 0.000002 -0.701547 -0.179494 1.074070
    24 3.859678 -0.132570 1.193109 0.326311 0.256107 -1.584620
    25 1.312557 -0.000002 0.000001 0.221740 0.022777 -0.426036
    26 0.729365 0.000002 -0.000002 0.000000 0.000000 -0.527388
    27 3.942305 0.050327 0.431044 0.341355 0.083934 -1.173716
    28 1.539099 -0.000002 0.000000 0.000000 0.000000 -0.841063
    29 1.196321 0.000008 0.000000 0.000000 0.000000 -1.069722
    30 3.883661 -0.050323 -0.431042 0.238782 -0.105154 -0.826091
    31 1.719578 0.000004 0.000000 0.004735 -0.006414 -1.002567
    32 1.209185 0.000002 0.000000 0.003345 -0.002948 -1.065018
    33 3.859838 -0.148937 -1.331282 -0.154113 -0.173804 -0.129133
    34 1.719423 0.000002 0.000000 0.000527 -0.006591 -0.442658
    35 1.099667 0.000002 0.000000 0.000995 -0.004090 -0.482923
    36 0.806021 -0.359837 -1.318334 1.062339 0.316414 -0.969989
    37 1.789782 0.000000 -0.000004 -0.144264 0.169032 0.159290
    38 1.206999 0.000003 0.000002 -0.177856 -0.149566 0.807819
    39 -4.347656 0.000000 -19.953125 0.000000 0.000000 -0.000001
    40 -4.347656 -21.000000 -4.449219 0.000000 0.000000 -0.000001
    41 0.000000 7.169887 -1.514632 0.000000 0.000000 0.000000
    42 0.000000 6.250000 0.998666 0.000000 0.000000 0.000000
    43 0.000000 -2.750000 0.000000 0.000000 0.000000 0.000000
    44 0.000000 2.851563 0.000000 0.000000 0.000000 0.000000
    45 -4.347656 0.000000 -17.125000 0.087264 0.000000 -0.000002
    46 -4.347656 0.000000 -18.687500 0.000000 0.000000 -0.000001
    47 -4.347656 0.000000 -16.203125 0.000000 0.000000 -0.000001
end
