// Created by Crowbar++ 0.74
version 1
nodes
  0 "ValveBiped.Bip01_Spine4" -1
  1 "ValveBiped.Bip01_L_Clavicle" 0
  2 "ValveBiped.Bip01_L_UpperArm" 1
  3 "ValveBiped.Bip01_L_Forearm" 2
  4 "ValveBiped.Bip01_L_Hand" 3
  5 "ValveBiped.Bip01_L_Finger4" 4
  6 "ValveBiped.Bip01_L_Finger41" 5
  7 "ValveBiped.Bip01_L_Finger42" 6
  8 "ValveBiped.Bip01_L_Finger3" 4
  9 "ValveBiped.Bip01_L_Finger31" 8
  10 "ValveBiped.Bip01_L_Finger32" 9
  11 "ValveBiped.Bip01_L_Finger2" 4
  12 "ValveBiped.Bip01_L_Finger21" 11
  13 "ValveBiped.Bip01_L_Finger22" 12
  14 "ValveBiped.Bip01_L_Finger1" 4
  15 "ValveBiped.Bip01_L_Finger11" 14
  16 "ValveBiped.Bip01_L_Finger12" 15
  17 "ValveBiped.Bip01_L_Finger0" 4
  18 "ValveBiped.Bip01_L_Finger01" 17
  19 "ValveBiped.Bip01_L_Finger02" 18
  20 "ValveBiped.Bip01_R_Clavicle" 0
  21 "ValveBiped.Bip01_R_UpperArm" 20
  22 "ValveBiped.Bip01_R_Forearm" 21
  23 "ValveBiped.Bip01_R_Hand" 22
  24 "ValveBiped.Bip01_R_Finger4" 23
  25 "ValveBiped.Bip01_R_Finger41" 24
  26 "ValveBiped.Bip01_R_Finger42" 25
  27 "ValveBiped.Bip01_R_Finger3" 23
  28 "ValveBiped.Bip01_R_Finger31" 27
  29 "ValveBiped.Bip01_R_Finger32" 28
  30 "ValveBiped.Bip01_R_Finger2" 23
  31 "ValveBiped.Bip01_R_Finger21" 30
  32 "ValveBiped.Bip01_R_Finger22" 31
  33 "ValveBiped.Bip01_R_Finger1" 23
  34 "ValveBiped.Bip01_R_Finger11" 33
  35 "ValveBiped.Bip01_R_Finger12" 34
  36 "ValveBiped.Bip01_R_Finger0" 23
  37 "ValveBiped.Bip01_R_Finger01" 36
  38 "ValveBiped.Bip01_R_Finger02" 37
  39 "mosin_strip_clip" -1
  40 "control" -1
  41 "mosin_trigger" 40
  42 "mosin_bolt_base" 40
  43 "mosin_bolt_handle" 42
  44 "mosin_bolt_hammer" 42
  45 "mosin_strip_bullets_top" -1
  46 "mosin_strip_bullets_group" -1
  47 "mosin_bullet_single" -1
end
skeleton
  time 0
    0 0.000000 -0.000006 0.000000 -1.570798 -1.391899 -3.141590
    1 -6.613281 -2.207031 -1.115234 0.013226 -0.695278 -2.042891
    2 6.028141 0.000000 0.000000 -1.680076 -0.888176 -0.487247
    3 11.692554 0.000001 0.000002 0.000000 0.000000 -0.955538
    4 11.481674 0.000001 -0.000032 -0.102846 0.217567 0.678660
    5 3.859709 -0.142404 -1.191975 -0.583832 0.057754 -1.715126
    6 1.312555 -0.000002 0.000001 -0.282364 0.024800 -0.268300
    7 0.729363 -0.000002 -0.000002 0.000000 0.000000 -0.415147
    8 3.942335 0.046767 -0.431443 -0.443389 0.236328 -1.284431
    9 1.539097 0.000000 0.000000 0.000000 0.000000 -0.637382
    10 1.196326 -0.000002 -0.000001 0.000000 0.000000 -0.703202
    11 3.883696 -0.046765 0.431443 -0.258899 0.387633 -0.931701
    12 1.719570 -0.000004 -0.000001 -0.002878 0.004706 -0.915718
    13 1.209171 -0.000002 0.000000 -0.001237 0.002825 -0.629490
    14 3.859865 -0.137947 1.332466 -0.099428 0.461302 -0.732690
    15 1.719429 0.000002 -0.000001 -0.000539 0.004038 -0.496883
    16 1.099665 0.000000 0.000000 -0.001800 0.001871 -1.010281
    17 0.806053 -0.348925 1.321258 -1.057553 -0.351234 -0.805849
    18 1.789780 -0.000002 0.000002 0.009971 -0.499704 0.157138
    19 1.207006 0.000000 0.000000 0.047483 0.005693 -0.097994
    20 -3.794922 2.695313 -6.742188 3.066403 -0.024148 1.435052
    21 6.028144 0.000000 0.000000 1.508007 0.755528 -0.620368
    22 11.692554 0.000001 0.000003 0.000000 0.000024 -1.808330
    23 11.481697 0.000001 0.000002 -0.701574 -0.179475 1.074007
    24 3.859678 -0.132570 1.193109 0.326316 0.256096 -1.584591
    25 1.312557 -0.000002 0.000001 0.221739 0.022771 -0.426063
    26 0.729365 0.000002 -0.000002 0.000000 0.000000 -0.527383
    27 3.942305 0.050327 0.431044 0.341352 0.083923 -1.173694
    28 1.539099 -0.000002 0.000000 0.000000 0.000000 -0.841064
    29 1.196321 0.000008 0.000000 0.000000 0.000000 -1.069706
    30 3.883661 -0.050323 -0.431042 0.238779 -0.105152 -0.826078
    31 1.719578 0.000004 0.000000 0.004734 -0.006416 -1.002558
    32 1.209185 0.000002 0.000000 0.003344 -0.002951 -1.064971
    33 3.859838 -0.148937 -1.331282 -0.154114 -0.173803 -0.129135
    34 1.719423 0.000002 0.000000 0.000515 -0.006601 -0.442615
    35 1.099667 0.000002 0.000000 0.000995 -0.004103 -0.482900
    36 0.806021 -0.359837 -1.318334 1.062355 0.316431 -0.969987
    37 1.789782 0.000000 -0.000004 -0.144263 0.169031 0.159300
    38 1.206999 0.000003 0.000002 -0.177846 -0.149556 0.807820
    39 -4.348079 0.000000 -19.960460 0.000000 0.000000 -0.000061
    40 -4.347682 -20.996734 -4.449324 0.000000 0.000000 -0.000053
    41 0.000000 7.169887 -1.514632 0.000000 0.000000 0.000000
    42 0.000000 6.250000 0.998666 0.000000 0.000000 0.000000
    43 0.000000 -2.750000 0.000000 0.000000 0.000000 0.000000
    44 0.000000 2.851563 0.000000 0.000000 0.000000 0.000000
    45 -4.348079 0.000000 -17.125460 0.087266 0.000000 -0.000061
    46 -4.348079 0.000000 -18.685140 0.000000 0.000000 -0.000061
    47 -4.348048 0.000000 -16.209929 0.544545 0.827775 0.597623
  time 1
    0 0.000000 -0.000006 0.000000 -1.570798 -1.391899 -3.141590
    1 -6.613281 -2.207031 -1.115234 0.013226 -0.695278 -2.042891
    2 6.028141 0.000000 0.000000 -1.678630 -0.884222 -0.488697
    3 11.692554 0.000001 0.000002 0.000000 0.000000 -0.961451
    4 11.481674 0.000001 -0.000032 -0.098274 0.214783 0.682195
    5 3.859709 -0.142404 -1.191975 -0.583832 0.057754 -1.715126
    6 1.312555 -0.000002 0.000001 -0.282364 0.024800 -0.268300
    7 0.729363 -0.000002 -0.000002 0.000000 0.000000 -0.415147
    8 3.942335 0.046767 -0.431443 -0.443389 0.236328 -1.284431
    9 1.539097 0.000000 0.000000 0.000000 0.000000 -0.637382
    10 1.196326 -0.000002 -0.000001 0.000000 0.000000 -0.703202
    11 3.883696 -0.046765 0.431443 -0.258899 0.387633 -0.931701
    12 1.719570 -0.000004 -0.000001 -0.002878 0.004706 -0.915718
    13 1.209171 -0.000002 0.000000 -0.001237 0.002825 -0.629490
    14 3.859865 -0.137947 1.332466 -0.099428 0.461302 -0.732690
    15 1.719429 0.000002 -0.000001 -0.000539 0.004038 -0.496883
    16 1.099665 0.000000 0.000000 -0.001800 0.001871 -1.010281
    17 0.806053 -0.348925 1.321258 -1.063294 -0.354238 -0.806268
    18 1.789780 -0.000002 0.000002 0.017689 -0.491741 0.147407
    19 1.207006 0.000000 0.000000 0.047483 0.005669 -0.097354
    20 -3.794922 2.695313 -6.742188 3.066403 -0.024148 1.435052
    21 6.028144 0.000000 0.000000 1.510026 0.732246 -0.620318
    22 11.692554 0.000001 0.000003 0.000000 0.000024 -1.813840
    23 11.481697 0.000001 0.000002 -0.645501 -0.193313 1.039403
    24 3.859678 -0.132570 1.193109 0.343466 0.212690 -1.488314
    25 1.312557 -0.000002 0.000001 0.214069 0.019451 -0.411840
    26 0.729365 0.000002 -0.000002 -0.004962 -0.004830 -0.512689
    27 3.942305 0.050327 0.431044 0.340094 0.052015 -1.081518
    28 1.539099 -0.000002 0.000000 0.000000 0.000000 -0.815919
    29 1.196321 0.000008 0.000000 0.000000 0.000000 -1.032361
    30 3.883661 -0.050323 -0.431042 0.219902 -0.110362 -0.738415
    31 1.719578 0.000004 0.000000 0.004051 -0.006871 -0.899999
    32 1.209185 0.000002 0.000000 0.003020 -0.003287 -0.962432
    33 3.859838 -0.148937 -1.331282 -0.156487 -0.138512 -0.128250
    34 1.719423 0.000002 0.000000 0.000156 -0.006613 -0.387027
    35 1.099667 0.000002 0.000000 0.000695 -0.004163 -0.413117
    36 0.806021 -0.359837 -1.318334 1.071477 0.329678 -0.957924
    37 1.789782 0.000000 -0.000004 -0.142428 0.168096 0.152585
    38 1.206999 0.000003 0.000002 -0.161127 -0.141982 0.706935
    39 -4.305109 -0.015625 -20.054213 -0.002636 -0.004136 0.001660
    40 -4.335963 -20.973296 -4.484481 -0.002642 -0.004137 0.001640
    41 0.000000 7.169887 -1.514632 0.000000 0.000000 0.000000
    42 0.000000 6.250000 0.998666 0.000000 0.000000 0.000000
    43 0.000000 -2.750000 0.000000 0.000000 0.000000 0.000000
    44 0.000000 2.851563 0.000000 0.000000 0.000000 0.000000
    45 -4.316828 -0.007813 -17.219213 0.084640 -0.004136 0.001660
    46 -4.312922 -0.011719 -18.778893 -0.002626 -0.004136 0.001660
    47 -4.320704 -0.003906 -16.303682 0.537872 0.825828 0.594426
  time 2
    0 0.000000 -0.000006 0.000000 -1.570798 -1.391899 -3.141590
    1 -6.613281 -2.207031 -1.115234 0.013226 -0.695278 -2.042891
    2 6.028141 0.000000 0.000000 -1.675008 -0.873757 -0.492340
    3 11.692554 0.000001 0.000002 0.000000 0.000000 -0.977420
    4 11.481674 0.000001 -0.000032 -0.085502 0.207434 0.691868
    5 3.859709 -0.142404 -1.191975 -0.583832 0.057754 -1.715126
    6 1.312555 -0.000002 0.000001 -0.282364 0.024800 -0.268300
    7 0.729363 -0.000002 -0.000002 0.000000 0.000000 -0.415147
    8 3.942335 0.046767 -0.431443 -0.443389 0.236328 -1.284431
    9 1.539097 0.000000 0.000000 0.000000 0.000000 -0.637382
    10 1.196326 -0.000002 -0.000001 0.000000 0.000000 -0.703202
    11 3.883696 -0.046765 0.431443 -0.258899 0.387633 -0.931701
    12 1.719570 -0.000004 -0.000001 -0.002878 0.004706 -0.915718
    13 1.209171 -0.000002 0.000000 -0.001237 0.002825 -0.629490
    14 3.859865 -0.137947 1.332466 -0.099428 0.461302 -0.732690
    15 1.719429 0.000002 -0.000001 -0.000539 0.004050 -0.496883
    16 1.099665 0.000000 0.000000 -0.001800 0.001871 -1.010281
    17 0.806053 -0.348925 1.321258 -1.078167 -0.361729 -0.807347
    18 1.789780 -0.000002 0.000002 0.038854 -0.469484 0.120866
    19 1.207006 0.000000 0.000000 0.047495 0.005501 -0.093945
    20 -3.794922 2.695313 -6.742188 3.066403 -0.024148 1.435052
    21 6.028144 0.000000 0.000000 1.515484 0.678988 -0.620368
    22 11.692554 0.000001 0.000003 0.000000 0.000024 -1.816988
    23 11.481697 0.000001 0.000002 -0.518774 -0.223341 0.944483
    24 3.859678 -0.132570 1.193109 0.370084 0.100447 -1.266323
    25 1.312557 -0.000002 0.000001 0.197051 0.012128 -0.380536
    26 0.729365 0.000002 -0.000002 -0.015880 -0.015460 -0.480374
    27 3.942305 0.050327 0.431044 0.324681 -0.025283 -0.862567
    28 1.539099 -0.000002 0.000000 0.000000 0.000000 -0.760644
    29 1.196321 0.000008 0.000000 0.000000 0.000000 -0.950234
    30 3.883661 -0.050323 -0.431042 0.166947 -0.118637 -0.529171
    31 1.719578 0.000004 0.000000 0.002409 -0.007602 -0.674406
    32 1.209185 0.000002 0.000000 0.002217 -0.003874 -0.736848
    33 3.859838 -0.148937 -1.331282 -0.163530 -0.054400 -0.126207
    34 1.719423 0.000002 0.000000 -0.000647 -0.006589 -0.264723
    35 1.099667 0.000002 0.000000 0.000060 -0.004211 -0.259551
    36 0.806021 -0.359837 -1.318334 1.097010 0.363639 -0.926326
    37 1.789782 0.000000 -0.000004 -0.138016 0.165447 0.133543
    38 1.206999 0.000003 0.000002 -0.115790 -0.117138 0.486082
    39 -4.184011 -0.062502 -20.300314 -0.009827 -0.015664 0.006274
    40 -4.300806 -20.910794 -4.582141 -0.009861 -0.015647 0.006282
    41 0.000000 7.169887 -1.514632 0.000000 0.000000 0.000000
    42 0.000000 6.250000 0.998666 0.000000 0.000000 0.000000
    43 0.000000 -2.750000 0.000000 0.000000 0.000000 0.000000
    44 0.000000 2.851563 0.000000 0.000000 0.000000 0.000000
    45 -4.230888 -0.035157 -17.465314 0.077408 -0.015664 0.006274
    46 -4.203543 -0.050783 -19.024994 -0.009858 -0.015664 0.006274
    47 -4.242576 -0.027345 -16.549783 0.519670 0.820201 0.585582
  time 3
    0 0.000000 -0.000006 0.000000 -1.570798 -1.391899 -3.141590
    1 -6.613281 -2.207031 -1.115234 0.013226 -0.695278 -2.042891
    2 6.028141 0.000000 0.000000 -1.670305 -0.858641 -0.497110
    3 11.692554 0.000001 0.000002 0.000000 0.000000 -1.000606
    4 11.481674 0.000001 -0.000032 -0.066141 0.197057 0.706303
    5 3.859709 -0.142404 -1.191975 -0.583832 0.057754 -1.715126
    6 1.312555 -0.000002 0.000001 -0.282364 0.024800 -0.268300
    7 0.729363 -0.000002 -0.000002 0.000000 0.000000 -0.415147
    8 3.942335 0.046767 -0.431443 -0.443389 0.236328 -1.284431
    9 1.539097 0.000000 0.000000 0.000000 0.000000 -0.637382
    10 1.196326 -0.000002 -0.000001 0.000000 0.000000 -0.703202
    11 3.883696 -0.046765 0.431443 -0.258899 0.387633 -0.931701
    12 1.719570 -0.000004 -0.000001 -0.002878 0.004706 -0.915718
    13 1.209171 -0.000002 0.000000 -0.001237 0.002825 -0.629490
    14 3.859865 -0.137947 1.332466 -0.099428 0.461302 -0.732690
    15 1.719429 0.000002 -0.000001 -0.000539 0.004038 -0.496883
    16 1.099665 0.000000 0.000000 -0.001800 0.001871 -1.010281
    17 0.806053 -0.348925 1.321258 -1.098648 -0.371476 -0.808737
    18 1.789780 -0.000002 0.000002 0.070362 -0.435308 0.081808
    19 1.207006 0.000000 0.000000 0.047543 0.005105 -0.085526
    20 -3.794922 2.695313 -6.742188 3.066403 -0.024148 1.435052
    21 6.028144 0.000000 0.000000 1.523070 0.622431 -0.620571
    22 11.692554 0.000001 0.000003 0.000000 0.000024 -1.798256
    23 11.481697 0.000001 0.000002 -0.383058 -0.251514 0.804906
    24 3.859678 -0.132570 1.193109 0.376136 -0.044989 -1.010586
    25 1.312557 -0.000002 0.000001 0.179817 0.004806 -0.349263
    26 0.729365 0.000002 -0.000002 -0.026798 -0.026079 -0.448106
    27 3.942305 0.050327 0.431044 0.283419 -0.115377 -0.599853
    28 1.539099 -0.000002 0.000000 0.000000 0.000000 -0.705370
    29 1.196321 0.000008 0.000000 0.000000 0.000000 -0.868066
    30 3.883661 -0.050323 -0.431042 0.090194 -0.118723 -0.279582
    31 1.719578 0.000004 0.000000 0.000647 -0.007950 -0.448765
    32 1.209185 0.000002 0.000000 0.001294 -0.004269 -0.511263
    33 3.859838 -0.148937 -1.331282 -0.174799 0.045973 -0.124198
    34 1.719423 0.000002 0.000000 -0.001438 -0.006457 -0.142419
    35 1.099667 0.000002 0.000000 -0.000575 -0.004175 -0.106041
    36 0.806021 -0.359837 -1.318334 1.136524 0.409383 -0.881648
    37 1.789782 0.000000 -0.000004 -0.132620 0.161264 0.103919
    38 1.206999 0.000003 0.000002 -0.056421 -0.077600 0.267795
    39 -3.988693 -0.132817 -20.651888 -0.020483 -0.033227 0.013001
    40 -4.246117 -20.817042 -4.718863 -0.020477 -0.033212 0.013054
    41 0.000000 7.169887 -1.514632 0.000000 0.000000 0.000000
    42 0.000000 6.250000 0.998666 0.000000 0.000000 0.000000
    43 0.000000 -2.750000 0.000000 0.000000 0.000000 0.000000
    44 0.000000 2.851563 0.000000 0.000000 0.000000 0.000000
    45 -4.082446 -0.078127 -17.816887 0.066800 -0.033227 0.013001
    46 -4.031663 -0.109378 -19.376567 -0.020466 -0.033227 0.013001
    47 -4.113666 -0.058596 -16.901356 0.492798 0.811144 0.572588
  time 4
    0 0.000000 -0.000006 0.000000 -1.570798 -1.391899 -3.141590
    1 -6.613281 -2.207031 -1.115234 0.013226 -0.695278 -2.042891
    2 6.028141 0.000000 0.000000 -1.665525 -0.841066 -0.501988
    3 11.692554 0.000001 0.000002 0.000000 0.000000 -1.027795
    4 11.481674 0.000001 -0.000032 -0.041739 0.185143 0.723974
    5 3.859709 -0.142404 -1.191975 -0.583832 0.057754 -1.715126
    6 1.312555 -0.000002 0.000001 -0.282364 0.024800 -0.268300
    7 0.729363 -0.000002 -0.000002 0.000000 0.000000 -0.415147
    8 3.942335 0.046767 -0.431443 -0.443389 0.236328 -1.284445
    9 1.539097 0.000000 0.000000 0.000000 0.000000 -0.637382
    10 1.196326 -0.000002 -0.000001 0.000000 0.000000 -0.703202
    11 3.883696 -0.046765 0.431443 -0.258899 0.387633 -0.931701
    12 1.719570 -0.000004 -0.000001 -0.002878 0.004706 -0.915718
    13 1.209171 -0.000002 0.000000 -0.001237 0.002825 -0.629490
    14 3.859865 -0.137947 1.332466 -0.099428 0.461302 -0.732690
    15 1.719429 0.000002 -0.000001 -0.000539 0.004038 -0.496883
    16 1.099665 0.000000 0.000000 -0.001800 0.001871 -1.010281
    17 0.806053 -0.348925 1.321258 -1.121191 -0.381222 -0.810151
    18 1.789780 -0.000002 0.000002 0.109144 -0.391556 0.034561
    19 1.207006 0.000000 0.000000 0.047615 0.004362 -0.069856
    20 -3.794922 2.695313 -6.742188 3.066403 -0.024148 1.435052
    21 6.028144 0.000000 0.000000 1.532184 0.589760 -0.619912
    22 11.692554 0.000001 0.000003 0.000000 0.000024 -1.743163
    23 11.481697 0.000001 0.000002 -0.300699 -0.259153 0.643484
    24 3.859678 -0.132570 1.193109 0.360340 -0.175092 -0.799711
    25 1.312557 -0.000002 0.000001 0.171907 0.001474 -0.335039
    26 0.729365 0.000002 -0.000002 -0.031771 -0.030920 -0.433412
    27 3.942305 0.050327 0.431044 0.230135 -0.184622 -0.375738
    28 1.539099 -0.000002 0.000000 0.000000 0.000000 -0.680225
    29 1.196321 0.000008 0.000000 0.000000 0.000000 -0.830721
    30 3.883661 -0.050323 -0.431042 0.013532 -0.108822 -0.071583
    31 1.719578 0.000004 0.000000 -0.000156 -0.007974 -0.346303
    32 1.209185 0.000002 0.000000 0.000851 -0.004389 -0.408674
    33 3.859838 -0.148937 -1.331282 -0.188385 0.130030 -0.123074
    34 1.719423 0.000002 0.000000 -0.001798 -0.006373 -0.086776
    35 1.099667 0.000002 0.000000 -0.000863 -0.004127 -0.036258
    36 0.806021 -0.359837 -1.318334 1.186442 0.458105 -0.830700
    37 1.789782 0.000000 -0.000004 -0.127792 0.155668 0.065371
    38 1.206999 0.000003 0.000002 -0.007262 -0.043732 0.169342
    39 -3.719153 -0.214850 -21.058150 -0.033360 -0.055491 0.021292
    40 -4.183615 -20.699850 -4.875118 -0.033373 -0.055491 0.021246
    41 0.000000 7.169887 -1.514632 0.000000 0.000000 0.000000
    42 0.000000 6.250000 0.998666 0.000000 0.000000 0.000000
    43 0.000000 -2.750000 0.000000 0.000000 0.000000 0.000000
    44 0.000000 2.851563 0.000000 0.000000 0.000000 0.000000
    45 -3.879315 -0.125004 -18.230963 0.053907 -0.055491 0.021292
    46 -3.789468 -0.175787 -19.786736 -0.033359 -0.055491 0.021292
    47 -3.930067 -0.097659 -17.315431 0.460206 0.798840 0.556737
  time 5
    0 0.000000 -0.000006 0.000000 -1.570798 -1.391899 -3.141590
    1 -6.613281 -2.207031 -1.115234 0.013226 -0.695278 -2.042891
    2 6.028141 0.000000 0.000000 -1.661604 -0.822760 -0.506123
    3 11.692554 0.000001 0.000002 0.000000 0.000000 -1.056801
    4 11.481674 0.000001 -0.000032 -0.013841 0.173244 0.743878
    5 3.859709 -0.142404 -1.191975 -0.583832 0.057754 -1.715126
    6 1.312555 -0.000002 0.000001 -0.282364 0.024800 -0.268300
    7 0.729363 -0.000002 -0.000002 0.000000 0.000000 -0.415147
    8 3.942335 0.046767 -0.431443 -0.443389 0.236328 -1.284431
    9 1.539097 0.000000 0.000000 0.000000 0.000000 -0.637382
    10 1.196326 -0.000002 -0.000001 0.000000 0.000000 -0.703202
    11 3.883696 -0.046765 0.431443 -0.258899 0.387633 -0.931701
    12 1.719570 -0.000004 -0.000001 -0.002878 0.004706 -0.915718
    13 1.209171 -0.000002 0.000000 -0.001237 0.002825 -0.629490
    14 3.859865 -0.137947 1.332466 -0.099428 0.461302 -0.732690
    15 1.719429 0.000002 -0.000001 -0.000539 0.004038 -0.496883
    16 1.099665 0.000000 0.000000 -0.001800 0.001871 -1.010281
    17 0.806053 -0.348925 1.321258 -1.142236 -0.388714 -0.811230
    18 1.789780 -0.000002 0.000002 0.152336 -0.340745 -0.016831
    19 1.207006 0.000000 0.000000 0.047711 0.003164 -0.044695
    20 -3.794922 2.695313 -6.742188 3.066403 -0.024148 1.435052
    21 6.028144 0.000000 0.000000 1.529728 0.612578 -0.626353
    22 11.692554 0.000001 0.000003 0.000000 0.000024 -1.615897
    23 11.481697 0.000001 0.000002 -0.303782 -0.217612 0.470076
    24 3.859678 -0.132570 1.193109 0.349410 -0.243082 -0.716107
    25 1.312557 -0.000002 0.000001 0.176365 0.018972 -0.412055
    26 0.729365 0.000002 -0.000002 -0.028463 -0.027696 -0.512449
    27 3.942305 0.050327 0.431044 0.202930 -0.210967 -0.280154
    28 1.539099 -0.000002 0.000000 0.000000 0.000000 -0.748910
    29 1.196321 0.000008 0.000000 0.000000 0.000000 -0.888058
    30 3.883661 -0.050323 -0.431042 -0.031690 -0.101670 0.015109
    31 1.719578 0.000004 0.000000 0.000851 -0.007938 -0.474041
    32 1.209185 0.000002 0.000000 0.001402 -0.004245 -0.536468
    33 3.859838 -0.148937 -1.331282 -0.200748 0.165265 -0.122802
    34 1.719423 0.000002 0.000000 -0.000923 -0.006553 -0.221464
    35 1.099667 0.000002 0.000000 -0.000120 -0.004211 -0.215016
    36 0.806021 -0.359837 -1.318334 1.240578 0.501482 -0.781496
    37 1.789782 0.000000 -0.000004 -0.125083 0.148824 0.019643
    38 1.206999 0.000003 0.000002 0.032410 -0.025180 0.168430
    39 -3.387112 -0.304697 -21.472225 -0.047404 -0.081098 0.030209
    40 -4.109394 -20.578753 -5.035279 -0.047401 -0.081122 0.030203
    41 0.000000 7.169887 -1.514632 0.000000 0.000000 0.000000
    42 0.000000 6.250000 0.998666 0.000000 0.000000 0.000000
    43 0.000000 -2.750000 0.000000 0.000000 0.000000 0.000000
    44 0.000000 2.851563 0.000000 0.000000 0.000000 0.000000
    45 -3.621494 -0.175787 -18.648944 0.039854 -0.081098 0.030209
    46 -3.492584 -0.246101 -20.204718 -0.047412 -0.081098 0.030209
    47 -3.695685 -0.136723 -17.737319 0.424754 0.783600 0.539525
  time 6
    0 0.000000 -0.000006 0.000000 -1.570798 -1.391899 -3.141590
    1 -6.613281 -2.207031 -1.115234 0.013226 -0.695278 -2.042891
    2 6.028141 0.000000 0.000000 -1.659311 -0.805418 -0.508771
    3 11.692554 0.000001 0.000002 0.000000 0.000000 -1.085294
    4 11.481674 0.000001 -0.000032 0.016208 0.162822 0.765010
    5 3.859709 -0.142404 -1.191975 -0.583832 0.057754 -1.715126
    6 1.312555 -0.000002 0.000001 -0.282364 0.024800 -0.268300
    7 0.729363 -0.000002 -0.000002 0.000000 0.000000 -0.415147
    8 3.942335 0.046767 -0.431443 -0.443389 0.236328 -1.284431
    9 1.539097 0.000000 0.000000 0.000000 0.000000 -0.637382
    10 1.196326 -0.000002 -0.000001 0.000000 0.000000 -0.703202
    11 3.883696 -0.046765 0.431443 -0.258899 0.387633 -0.931701
    12 1.719570 -0.000004 -0.000001 -0.002878 0.004706 -0.915718
    13 1.209171 -0.000002 0.000000 -0.001237 0.002825 -0.629490
    14 3.859865 -0.137947 1.332466 -0.099428 0.461302 -0.732690
    15 1.719429 0.000002 -0.000001 -0.000539 0.004038 -0.496883
    16 1.099665 0.000000 0.000000 -0.001800 0.001871 -1.010281
    17 0.806053 -0.348925 1.321258 -1.158224 -0.391717 -0.811673
    18 1.789780 -0.000002 0.000002 0.197350 -0.285642 -0.068869
    19 1.207006 0.000000 0.000000 0.047794 0.001390 -0.007802
    20 -3.794922 2.695313 -6.742188 3.066403 -0.024148 1.435052
    21 6.028144 0.000000 0.000000 1.503750 0.699482 -0.650138
    22 11.692554 0.000001 0.000003 0.000000 0.000024 -1.414255
    23 11.481697 0.000001 0.000002 -0.367956 -0.084880 0.299246
    24 3.859678 -0.132570 1.193109 0.386958 -0.206047 -0.876399
    25 1.312557 -0.000002 0.000001 0.181614 0.060055 -0.595976
    26 0.729365 0.000002 -0.000002 -0.020590 -0.020026 -0.700918
    27 3.942305 0.050327 0.431044 0.248196 -0.195827 -0.452113
    28 1.539099 -0.000002 0.000000 0.000000 0.000000 -0.912694
    29 1.196321 0.000008 0.000000 0.000000 0.000000 -1.024724
    30 3.883661 -0.050323 -0.431042 -0.018905 -0.126149 -0.125749
    31 1.719578 0.000004 0.000000 0.003188 -0.007315 -0.778761
    32 1.209185 0.000002 0.000000 0.002601 -0.003622 -0.841205
    33 3.859838 -0.148937 -1.331282 -0.197226 0.123988 -0.187290
    34 1.719423 0.000002 0.000000 0.001175 -0.006517 -0.542499
    35 1.099667 0.000002 0.000000 0.001498 -0.003935 -0.608294
    36 0.806021 -0.359837 -1.318334 1.289766 0.532240 -0.743773
    37 1.789782 0.000000 -0.000004 -0.126001 0.140915 -0.031585
    38 1.206999 0.000003 0.000002 0.079159 -0.011553 0.168058
    39 -3.000381 -0.390637 -21.847237 -0.061449 -0.108745 0.039203
    40 -4.035173 -20.453749 -5.172002 -0.061446 -0.108764 0.039159
    41 0.000000 7.169887 -1.514632 0.000000 0.000000 0.000000
    42 0.000000 6.250000 0.998666 0.000000 0.000000 0.000000
    43 0.000000 -2.750000 0.000000 0.000000 0.000000 0.000000
    44 0.000000 2.851563 0.000000 0.000000 0.000000 0.000000
    45 -3.316797 -0.226569 -19.035675 0.025835 -0.108745 0.039203
    46 -3.141011 -0.316416 -20.583636 -0.061431 -0.108745 0.039203
    47 -3.418332 -0.175787 -18.127956 0.389141 0.765948 0.522245
  time 7
    0 0.000000 -0.000006 0.000000 -1.570798 -1.391899 -3.141590
    1 -6.613281 -2.207031 -1.115234 0.013226 -0.695278 -2.042891
    2 6.028141 0.000000 0.000000 -1.659441 -0.790967 -0.509239
    3 11.692554 0.000001 0.000002 0.000000 0.000000 -1.110761
    4 11.481674 0.000001 -0.000032 0.046795 0.155260 0.786476
    5 3.859709 -0.142404 -1.191975 -0.583832 0.057754 -1.715151
    6 1.312555 -0.000002 0.000001 -0.282364 0.024800 -0.268300
    7 0.729363 -0.000002 -0.000002 0.000000 0.000000 -0.415147
    8 3.942335 0.046767 -0.431443 -0.443389 0.236328 -1.284431
    9 1.539097 0.000000 0.000000 0.000000 0.000000 -0.637382
    10 1.196326 -0.000002 -0.000001 0.000000 0.000000 -0.703202
    11 3.883696 -0.046765 0.431443 -0.258899 0.387633 -0.931701
    12 1.719570 -0.000004 -0.000001 -0.002878 0.004706 -0.915718
    13 1.209171 -0.000002 0.000000 -0.001237 0.002825 -0.629490
    14 3.859865 -0.137947 1.332466 -0.099428 0.461302 -0.732690
    15 1.719429 0.000002 -0.000001 -0.000539 0.004038 -0.496883
    16 1.099665 0.000000 0.000000 -0.001800 0.001871 -1.010281
    17 0.806053 -0.348925 1.321258 -1.171323 -0.386880 -0.809001
    18 1.789780 -0.000002 0.000002 0.241861 -0.229262 -0.118652
    19 1.207006 0.000000 0.000000 0.065016 -0.006700 0.068722
    20 -3.794922 2.695313 -6.742188 3.066403 -0.024148 1.435052
    21 6.028144 0.000000 0.000000 1.450429 0.831511 -0.698164
    22 11.692554 0.000001 0.000003 0.000000 0.000024 -1.181760
    23 11.481697 0.000001 0.000002 -0.468867 0.112224 0.154385
    24 3.859678 -0.132570 1.193109 0.430462 -0.094335 -1.209006
    25 1.312557 -0.000002 0.000001 0.178199 0.106291 -0.816762
    26 0.729365 0.000002 -0.000002 -0.011182 -0.010882 -0.925833
    27 3.942305 0.050327 0.431044 0.315717 -0.147628 -0.825800
    28 1.539099 -0.000002 0.000000 0.000000 0.000000 -1.108193
    29 1.196321 0.000008 0.000000 0.000000 0.000000 -1.187859
    30 3.883661 -0.050323 -0.431042 0.030623 -0.166343 -0.467707
    31 1.719578 0.000004 0.000000 0.005585 -0.005697 -1.142474
    32 1.209185 0.000002 0.000000 0.003715 -0.002460 -1.204939
    33 3.859838 -0.148937 -1.331282 -0.170240 0.021346 -0.357909
    34 1.719423 0.000002 0.000000 0.003524 -0.005594 -0.925777
    35 1.099667 0.000002 0.000000 0.002888 -0.003060 -1.001629
    36 0.806021 -0.359837 -1.318334 1.322975 0.543920 -0.728721
    37 1.789782 0.000000 -0.000004 -0.133996 0.160497 -0.112924
    38 1.206999 0.000003 0.000002 0.131389 -0.002085 0.168160
    39 -2.578494 -0.460952 -22.144121 -0.074326 -0.137071 0.047416
    40 -3.964858 -20.336558 -5.273568 -0.074342 -0.137052 0.047406
    41 0.000000 7.169887 -1.514632 0.000000 0.000000 0.000000
    42 0.000000 6.250000 0.998666 0.000000 0.000000 0.000000
    43 0.000000 -2.750000 0.000000 0.000000 0.000000 0.000000
    44 0.000000 2.851563 0.000000 0.000000 0.000000 0.000000
    45 -2.976943 -0.269539 -19.344278 0.012941 -0.137071 0.047416
    46 -2.758187 -0.375011 -20.884426 -0.074325 -0.137071 0.047416
    47 -3.101917 -0.207038 -18.436559 0.355812 0.746534 0.505985
  time 8
    0 0.000000 -0.000006 0.000000 -1.570798 -1.391899 -3.141590
    1 -6.613281 -2.207031 -1.115234 0.013226 -0.695278 -2.042891
    2 6.028141 0.000000 0.000000 -1.661447 -0.779837 -0.507980
    3 11.692554 0.000001 0.000002 0.000000 0.000000 -1.131805
    4 11.481674 0.000001 -0.000032 0.076306 0.151136 0.807049
    5 3.859709 -0.142404 -1.191975 -0.583832 0.057754 -1.715126
    6 1.312555 -0.000002 0.000001 -0.282364 0.024800 -0.268300
    7 0.729363 -0.000002 -0.000002 0.000000 0.000000 -0.415147
    8 3.942335 0.046767 -0.431443 -0.443389 0.236328 -1.284431
    9 1.539097 0.000000 0.000000 0.000000 0.000000 -0.637382
    10 1.196326 -0.000002 -0.000001 0.000000 0.000000 -0.703202
    11 3.883696 -0.046765 0.431443 -0.258899 0.387633 -0.931701
    12 1.719570 -0.000004 -0.000001 -0.002878 0.004706 -0.915718
    13 1.209171 -0.000002 0.000000 -0.001237 0.002825 -0.629490
    14 3.859865 -0.137947 1.332466 -0.099428 0.461302 -0.732690
    15 1.719429 0.000002 -0.000001 -0.000539 0.004038 -0.496883
    16 1.099665 0.000000 0.000000 -0.001800 0.001871 -1.010281
    17 0.806053 -0.348925 1.321258 -1.185321 -0.374419 -0.802146
    18 1.789780 -0.000002 0.000002 0.283723 -0.174921 -0.163893
    19 1.207006 0.000000 0.000000 0.107550 -0.023706 0.192943
    20 -3.794922 2.695313 -6.742188 3.066403 -0.024148 1.435052
    21 6.028144 0.000000 0.000000 1.376971 0.962564 -0.767440
    22 11.692554 0.000001 0.000003 0.000000 0.000012 -0.968863
    23 11.481697 0.000001 0.000002 -0.565336 0.293111 0.041293
    24 3.859678 -0.132570 1.193109 0.428125 0.010741 -1.537919
    25 1.312557 -0.000002 0.000001 0.167724 0.141130 -1.003295
    26 0.729365 0.000002 -0.000002 -0.003296 -0.003212 -1.114302
    27 3.942305 0.050327 0.431044 0.335863 -0.093562 -1.193136
    28 1.539099 -0.000002 0.000000 0.000000 0.000000 -1.271977
    29 1.196321 0.000008 0.000000 0.000000 0.000000 -1.324524
    30 3.883661 -0.050323 -0.431042 0.070136 -0.187484 -0.880618
    31 1.719578 0.000004 0.000000 0.007035 -0.003755 -1.447194
    32 1.209185 0.000002 0.000000 0.004278 -0.001225 -1.509675
    33 3.859838 -0.148937 -1.331282 -0.125997 -0.108721 -0.602108
    34 1.719423 0.000002 0.000000 0.005106 -0.004204 -1.246866
    35 1.099667 0.000002 0.000000 0.003380 -0.002497 -1.180386
    36 0.806021 -0.359837 -1.318334 1.342889 0.521378 -0.720728
    37 1.789782 0.000000 -0.000004 -0.147540 0.218299 -0.230888
    38 1.206999 0.000003 0.000002 0.187549 0.003967 0.168700
    39 -2.140980 -0.511734 -22.343345 -0.084944 -0.164689 0.054143
    40 -3.902356 -20.242805 -5.336070 -0.084958 -0.164694 0.054178
    41 0.000000 7.169887 -1.514632 0.000000 0.000000 0.000000
    42 0.000000 6.250000 0.998666 0.000000 0.000000 0.000000
    43 0.000000 -2.750000 0.000000 0.000000 0.000000 0.000000
    44 0.000000 2.851563 0.000000 0.000000 0.000000 0.000000
    45 -2.617557 -0.296884 -19.555222 0.002299 -0.164689 0.054143
    46 -2.355831 -0.414075 -21.091464 -0.084967 -0.164689 0.054143
    47 -2.773782 -0.226569 -18.655316 0.326871 0.726162 0.491699
  time 9
    0 0.000000 -0.000006 0.000000 -1.570798 -1.391899 -3.141590
    1 -6.613281 -2.207031 -1.115234 0.013226 -0.695278 -2.042891
    2 6.028141 0.000000 0.000000 -1.664756 -0.771000 -0.505511
    3 11.692554 0.000001 0.000002 0.000000 0.000000 -1.147914
    4 11.481674 0.000001 -0.000032 0.103129 0.150939 0.824870
    5 3.859709 -0.142404 -1.191975 -0.583832 0.057754 -1.715126
    6 1.312555 -0.000002 0.000001 -0.282364 0.024800 -0.268300
    7 0.729363 -0.000002 -0.000002 0.000000 0.000000 -0.415147
    8 3.942335 0.046767 -0.431443 -0.443389 0.236328 -1.284445
    9 1.539097 0.000000 0.000000 0.000000 0.000000 -0.637382
    10 1.196326 -0.000002 -0.000001 0.000000 0.000000 -0.703202
    11 3.883696 -0.046765 0.431443 -0.258899 0.387633 -0.931701
    12 1.719570 -0.000004 -0.000001 -0.002878 0.004706 -0.915718
    13 1.209171 -0.000002 0.000000 -0.001237 0.002825 -0.629490
    14 3.859865 -0.137947 1.332466 -0.099428 0.461302 -0.732690
    15 1.719429 0.000002 -0.000001 -0.000539 0.004038 -0.496883
    16 1.099665 0.000000 0.000000 -0.001800 0.001871 -1.010281
    17 0.806053 -0.348925 1.321258 -1.199007 -0.357362 -0.792870
    18 1.789780 -0.000002 0.000002 0.320827 -0.126097 -0.202835
    19 1.207006 0.000000 0.000000 0.162116 -0.044847 0.337459
    20 -3.794922 2.695313 -6.742188 3.066403 -0.024148 1.435052
    21 6.028144 0.000000 0.000000 1.321413 1.024466 -0.820893
    22 11.692554 0.000001 0.000003 0.000000 0.000012 -0.867019
    23 11.481697 0.000001 0.000002 -0.599252 0.381506 -0.010323
    24 3.859678 -0.132570 1.193109 0.413684 0.051581 -1.688689
    25 1.312557 -0.000002 0.000001 0.161420 0.154349 -1.082000
    26 0.729365 0.000002 -0.000002 0.000000 0.000000 -1.193339
    27 3.942305 0.050327 0.431044 0.329691 -0.071933 -1.358434
    28 1.539099 -0.000002 0.000000 0.000000 0.000000 -1.340617
    29 1.196321 0.000008 0.000000 0.000000 0.000000 -1.381861
    30 3.883661 -0.050323 -0.431042 0.076489 -0.192737 -1.225016
    31 1.719578 0.000004 0.000000 0.007454 -0.002833 -1.574981
    32 1.209185 0.000002 0.000000 0.004410 -0.000674 -1.637469
    33 3.859838 -0.148937 -1.331282 -0.072932 -0.234472 -0.883692
    34 1.719423 0.000002 0.000000 0.005621 -0.003473 -1.381554
    35 1.099667 0.000002 0.000000 0.003380 -0.002509 -1.178025
    36 0.806021 -0.359837 -1.318334 1.360209 0.470394 -0.702521
    37 1.789782 0.000000 -0.000004 -0.161695 0.288888 -0.355502
    38 1.206999 0.000003 0.000002 0.246027 0.007382 0.169680
    39 -1.699561 -0.539079 -22.452724 -0.092173 -0.190324 0.058757
    40 -3.835948 -20.180303 -5.382946 -0.092176 -0.190325 0.058766
    41 0.000000 7.169887 -1.514632 0.000000 0.000000 0.000000
    42 0.000000 6.250000 0.998666 0.000000 0.000000 0.000000
    43 0.000000 -2.750000 0.000000 0.000000 0.000000 0.000000
    44 0.000000 2.851563 0.000000 0.000000 0.000000 0.000000
    45 -2.250359 -0.308603 -19.680226 -0.004898 -0.190324 0.058757
    46 -1.945662 -0.433607 -21.204748 -0.092164 -0.190324 0.058757
    47 -2.426115 -0.234382 -18.784226 0.304190 0.705821 0.480134
  time 10
    0 0.000000 -0.000006 0.000000 -1.570798 -1.391899 -3.141590
    1 -6.613281 -2.207031 -1.115234 0.013226 -0.695278 -2.042891
    2 6.028141 0.000000 0.000000 -1.669537 -0.764056 -0.501652
    3 11.692554 0.000001 0.000002 0.000000 0.000000 -1.158529
    4 11.481674 0.000001 -0.000032 0.125783 0.155579 0.838970
    5 3.859709 -0.142404 -1.191975 -0.583832 0.057754 -1.715126
    6 1.312555 -0.000002 0.000001 -0.282364 0.024800 -0.268300
    7 0.729363 -0.000002 -0.000002 0.000000 0.000000 -0.415147
    8 3.942335 0.046767 -0.431443 -0.443389 0.236328 -1.284431
    9 1.539097 0.000000 0.000000 0.000000 0.000000 -0.637382
    10 1.196326 -0.000002 -0.000001 0.000000 0.000000 -0.703202
    11 3.883696 -0.046765 0.431443 -0.258899 0.387633 -0.931701
    12 1.719570 -0.000004 -0.000001 -0.002878 0.004706 -0.915718
    13 1.209171 -0.000002 0.000000 -0.001237 0.002825 -0.629490
    14 3.859865 -0.137947 1.332466 -0.099428 0.461302 -0.732690
    15 1.719429 0.000002 -0.000001 -0.000539 0.004038 -0.496883
    16 1.099665 0.000000 0.000000 -0.001800 0.001871 -1.010281
    17 0.806053 -0.348925 1.321258 -1.211256 -0.338737 -0.782910
    18 1.789780 -0.000002 0.000002 0.351053 -0.086317 -0.234084
    19 1.207006 0.000000 0.000000 0.216058 -0.065376 0.474804
    20 -3.794922 2.695313 -6.742188 3.066403 -0.024148 1.435052
    21 6.028144 0.000000 0.000000 1.302093 1.026883 -0.838441
    22 11.692554 0.000001 0.000003 0.000000 0.000012 -0.862848
    23 11.481697 0.000001 0.000002 -0.581014 0.397170 -0.009228
    24 3.859678 -0.132570 1.193109 0.413684 0.051581 -1.688689
    25 1.312557 -0.000002 0.000001 0.161420 0.154349 -1.082000
    26 0.729365 0.000002 -0.000002 0.000000 0.000000 -1.193339
    27 3.942305 0.050327 0.431044 0.329691 -0.071933 -1.358434
    28 1.539099 -0.000002 0.000000 0.000000 0.000000 -1.340617
    29 1.196321 0.000008 0.000000 0.000000 0.000000 -1.381861
    30 3.883661 -0.050323 -0.431042 0.070989 -0.194219 -1.368066
    31 1.719578 0.000004 0.000000 0.007454 -0.002833 -1.574981
    32 1.209185 0.000002 0.000000 0.004410 -0.000674 -1.637469
    33 3.859838 -0.148937 -1.331282 -0.023945 -0.333536 -1.156083
    34 1.719423 0.000002 0.000000 0.005621 -0.003473 -1.381554
    35 1.099667 0.000002 0.000000 0.003368 -0.002533 -1.171052
    36 0.806021 -0.359837 -1.318334 1.376485 0.415946 -0.682673
    37 1.789782 0.000000 -0.000004 -0.172137 0.348296 -0.454755
    38 1.206999 0.000003 0.000002 0.305258 0.008916 0.170997
    39 -1.265954 -0.531266 -22.460536 -0.094809 -0.212589 0.060478
    40 -3.761727 -20.156865 -5.418104 -0.094819 -0.212581 0.060459
    41 0.000000 7.169887 -1.514632 0.000000 0.000000 0.000000
    42 0.000000 6.250000 0.998666 0.000000 0.000000 0.000000
    43 0.000000 -2.750000 0.000000 0.000000 0.000000 0.000000
    44 0.000000 2.851563 0.000000 0.000000 0.000000 0.000000
    45 -1.875347 -0.300790 -19.699757 -0.007559 -0.212589 0.060478
    46 -1.539399 -0.429701 -21.216467 -0.094825 -0.212589 0.060478
    47 -2.074541 -0.226569 -18.807664 0.289351 0.686500 0.471834
  time 11
    0 0.000000 -0.000006 0.000000 -1.570798 -1.391899 -3.141590
    1 -6.613281 -2.207031 -1.115234 0.013226 -0.695278 -2.042891
    2 6.028141 0.000000 0.000000 -1.674357 -0.758442 -0.497697
    3 11.692554 0.000001 0.000002 0.000000 0.000000 -1.166072
    4 11.481674 0.000001 -0.000032 0.141177 0.163811 0.854484
    5 3.859709 -0.142404 -1.191975 -0.583832 0.057754 -1.715126
    6 1.312555 -0.000002 0.000001 -0.282364 0.024800 -0.268300
    7 0.729363 -0.000002 -0.000002 0.000000 0.000000 -0.415147
    8 3.942335 0.046767 -0.431443 -0.443389 0.236328 -1.284431
    9 1.539097 0.000000 0.000000 0.000000 0.000000 -0.637382
    10 1.196326 -0.000002 -0.000001 0.000000 0.000000 -0.703202
    11 3.883696 -0.046765 0.431443 -0.258899 0.387633 -0.931701
    12 1.719570 -0.000004 -0.000001 -0.002878 0.004706 -0.915718
    13 1.209171 -0.000002 0.000000 -0.001237 0.002825 -0.629490
    14 3.859865 -0.137947 1.332466 -0.099428 0.461302 -0.732690
    15 1.719429 0.000002 -0.000001 -0.000539 0.004038 -0.496883
    16 1.099665 0.000000 0.000000 -0.001800 0.001871 -1.010281
    17 0.806053 -0.348925 1.321258 -1.221083 -0.321620 -0.773874
    18 1.789780 -0.000002 0.000002 0.372169 -0.059218 -0.256465
    19 1.207006 0.000000 0.000000 0.257357 -0.080776 0.577497
    20 -3.794922 2.695313 -6.742188 3.066403 -0.024148 1.435052
    21 6.028144 0.000000 0.000000 1.289813 1.029160 -0.849192
    22 11.692554 0.000001 0.000003 0.000000 0.000012 -0.862926
    23 11.481697 0.000001 0.000002 -0.562880 0.401958 -0.000077
    24 3.859678 -0.132570 1.193109 0.413684 0.051581 -1.688689
    25 1.312557 -0.000002 0.000001 0.161420 0.154349 -1.082000
    26 0.729365 0.000002 -0.000002 0.000000 0.000000 -1.193339
    27 3.942305 0.050327 0.431044 0.329691 -0.071933 -1.358434
    28 1.539099 -0.000002 0.000000 0.000000 0.000000 -1.340617
    29 1.196321 0.000008 0.000000 0.000000 0.000000 -1.381861
    30 3.883661 -0.050323 -0.431042 0.070989 -0.194219 -1.368066
    31 1.719578 0.000004 0.000000 0.007454 -0.002833 -1.574981
    32 1.209185 0.000002 0.000000 0.004410 -0.000674 -1.637469
    33 3.859838 -0.148937 -1.331282 0.006211 -0.395751 -1.362657
    34 1.719423 0.000002 0.000000 0.005621 -0.003473 -1.381445
    35 1.099667 0.000002 0.000000 0.003332 -0.002569 -1.159918
    36 0.806021 -0.359837 -1.318334 1.394223 0.382925 -0.669676
    37 1.789782 0.000000 -0.000004 -0.174387 0.373296 -0.495314
    38 1.206999 0.000003 0.000002 0.363660 0.009336 0.172686
    39 -0.941725 -0.421888 -22.312094 -0.089500 -0.230151 0.061495
    40 -3.687506 -20.156865 -5.441542 -0.089519 -0.230169 0.061496
    41 0.000000 7.169887 -1.514632 0.000000 0.000000 0.000000
    42 0.000000 6.250000 0.998666 0.000000 0.000000 0.000000
    43 0.000000 -2.750000 0.000000 0.000000 0.000000 0.000000
    44 0.000000 2.851563 0.000000 0.000000 0.000000 0.000000
    45 -1.601901 -0.210944 -19.563035 -0.002237 -0.230151 0.061495
    46 -1.238609 -0.328135 -21.075838 -0.089503 -0.230151 0.061495
    47 -1.812815 -0.140629 -18.674848 0.286437 0.668322 0.472174
  time 12
    0 0.000000 -0.000006 0.000000 -1.570798 -1.391899 -3.141590
    1 -6.613281 -2.207031 -1.115234 0.013226 -0.695278 -2.042891
    2 6.028141 0.000000 0.000000 -1.677770 -0.753026 -0.494989
    3 11.692554 0.000001 0.000002 0.000000 0.000000 -1.174173
    4 11.481674 0.000001 -0.000032 0.147900 0.172469 0.874239
    5 3.859709 -0.142404 -1.191975 -0.583832 0.057754 -1.715126
    6 1.312555 -0.000002 0.000001 -0.282364 0.024800 -0.268300
    7 0.729363 -0.000002 -0.000002 0.000000 0.000000 -0.415147
    8 3.942335 0.046767 -0.431443 -0.443389 0.236328 -1.284431
    9 1.539097 0.000000 0.000000 0.000000 0.000000 -0.637382
    10 1.196326 -0.000002 -0.000001 0.000000 0.000000 -0.703202
    11 3.883696 -0.046765 0.431443 -0.258899 0.387633 -0.931701
    12 1.719570 -0.000004 -0.000001 -0.002878 0.004706 -0.915718
    13 1.209171 -0.000002 0.000000 -0.001237 0.002825 -0.629490
    14 3.859865 -0.137947 1.332466 -0.099428 0.461302 -0.732690
    15 1.719429 0.000002 -0.000001 -0.000539 0.004038 -0.496883
    16 1.099665 0.000000 0.000000 -0.001800 0.001871 -1.010281
    17 0.806053 -0.348925 1.321258 -1.227579 -0.309086 -0.767318
    18 1.789780 -0.000002 0.000002 0.381913 -0.048346 -0.268799
    19 1.207006 0.000000 0.000000 0.274387 -0.086829 0.617864
    20 -3.794922 2.695313 -6.742188 3.066403 -0.024148 1.435052
    21 6.028144 0.000000 0.000000 1.287139 1.029206 -0.850916
    22 11.692554 0.000001 0.000003 0.000000 0.000012 -0.869616
    23 11.481697 0.000001 0.000002 -0.546523 0.393849 0.014357
    24 3.859678 -0.132570 1.193109 0.413684 0.051581 -1.688689
    25 1.312557 -0.000002 0.000001 0.161420 0.154349 -1.082000
    26 0.729365 0.000002 -0.000002 0.000000 0.000000 -1.193339
    27 3.942305 0.050327 0.431044 0.329691 -0.071933 -1.358434
    28 1.539099 -0.000002 0.000000 0.000000 0.000000 -1.340617
    29 1.196321 0.000008 0.000000 0.000000 0.000000 -1.381861
    30 3.883661 -0.050323 -0.431042 0.070989 -0.194219 -1.368066
    31 1.719578 0.000004 0.000000 0.007454 -0.002833 -1.574981
    32 1.209185 0.000002 0.000000 0.004410 -0.000674 -1.637469
    33 3.859838 -0.148937 -1.331282 0.005284 -0.417593 -1.444136
    34 1.719423 0.000002 0.000000 0.005621 -0.003473 -1.381390
    35 1.099667 0.000002 0.000000 0.003296 -0.002617 -1.144961
    36 0.806021 -0.359837 -1.318334 1.424451 0.379983 -0.641711
    37 1.789782 0.000000 -0.000004 -0.162154 0.365230 -0.428136
    38 1.206999 0.000003 0.000002 0.429630 -0.014933 0.232906
    39 -0.805002 -0.195318 -22.038649 -0.076811 -0.241680 0.064076
    40 -3.621097 -20.164678 -5.453261 -0.076842 -0.241679 0.064118
    41 0.000000 7.169887 -1.514632 0.000000 0.000000 0.000000
    42 0.000000 6.250000 0.998666 0.000000 0.000000 0.000000
    43 0.000000 -2.750000 0.000000 0.000000 0.000000 0.000000
    44 0.000000 2.851563 0.000000 0.000000 0.000000 0.000000
    45 -1.496429 -0.023438 -19.293495 0.010451 -0.241680 0.064076
    46 -1.117512 -0.117191 -20.806299 -0.076815 -0.241680 0.064076
    47 -1.719062 0.031251 -18.405308 0.294837 0.652804 0.482855
  time 13
    0 0.000000 -0.000006 0.000000 -1.570798 -1.391899 -3.141590
    1 -6.613281 -2.207031 -1.115234 0.013226 -0.695278 -2.042891
    2 6.028141 0.000000 0.000000 -1.679320 -0.748741 -0.493850
    3 11.692554 0.000001 0.000002 0.000000 0.000000 -1.180970
    4 11.481674 0.000001 -0.000032 0.146354 0.179346 0.892357
    5 3.859709 -0.142404 -1.191975 -0.583832 0.057754 -1.715126
    6 1.312555 -0.000002 0.000001 -0.282364 0.024800 -0.268300
    7 0.729363 -0.000002 -0.000002 0.000000 0.000000 -0.415147
    8 3.942335 0.046767 -0.431443 -0.443389 0.236328 -1.284445
    9 1.539097 0.000000 0.000000 0.000000 0.000000 -0.637382
    10 1.196326 -0.000002 -0.000001 0.000000 0.000000 -0.703202
    11 3.883696 -0.046765 0.431443 -0.258899 0.387633 -0.931701
    12 1.719570 -0.000004 -0.000001 -0.002878 0.004706 -0.915718
    13 1.209171 -0.000002 0.000000 -0.001237 0.002825 -0.629490
    14 3.859865 -0.137947 1.332466 -0.099428 0.461302 -0.732690
    15 1.719429 0.000002 -0.000001 -0.000539 0.004038 -0.496883
    16 1.099665 0.000000 0.000000 -0.001800 0.001871 -1.010281
    17 0.806053 -0.348925 1.321258 -1.229940 -0.304225 -0.764790
    18 1.789780 -0.000002 0.000002 0.383807 -0.047087 -0.275231
    19 1.207006 0.000000 0.000000 0.275298 -0.086337 0.616680
    20 -3.794922 2.695313 -6.742188 3.066403 -0.024148 1.435052
    21 6.028144 0.000000 0.000000 1.306132 1.025024 -0.832913
    22 11.692554 0.000001 0.000003 0.000000 0.000012 -0.883311
    23 11.481697 0.000001 0.000002 -0.560528 0.366091 0.025248
    24 3.859678 -0.132570 1.193109 0.413684 0.051581 -1.688689
    25 1.312557 -0.000002 0.000001 0.161420 0.154349 -1.082000
    26 0.729365 0.000002 -0.000002 0.000000 0.000000 -1.193339
    27 3.942305 0.050327 0.431044 0.329691 -0.071933 -1.358434
    28 1.539099 -0.000002 0.000000 0.000000 0.000000 -1.340617
    29 1.196321 0.000008 0.000000 0.000000 0.000000 -1.381861
    30 3.883661 -0.050323 -0.431042 0.070989 -0.194219 -1.368066
    31 1.719578 0.000004 0.000000 0.007454 -0.002833 -1.574981
    32 1.209185 0.000002 0.000000 0.004410 -0.000674 -1.637469
    33 3.859838 -0.148937 -1.331282 -0.019867 -0.416410 -1.430551
    34 1.719423 0.000002 0.000000 0.005621 -0.003473 -1.381281
    35 1.099667 0.000002 0.000000 0.003248 -0.002677 -1.126461
    36 0.806021 -0.359837 -1.318334 1.470315 0.393613 -0.581608
    37 1.789782 0.000000 -0.000004 -0.128120 0.345228 -0.283619
    38 1.206999 0.000003 0.000002 0.488339 -0.056148 0.363952
    39 -0.847972 0.054689 -21.737858 -0.061712 -0.245816 0.067439
    40 -3.574221 -20.172491 -5.461074 -0.061713 -0.245816 0.067449
    41 0.000000 7.169887 -1.514632 0.000000 0.000000 0.000000
    42 0.000000 6.250000 0.998666 0.000000 0.000000 0.000000
    43 0.000000 -2.750000 0.000000 0.000000 0.026462 0.000000
    44 0.000000 2.851563 0.000000 0.000000 0.000000 0.000000
    45 -1.547212 0.183599 -18.992705 0.025562 -0.245816 0.067439
    46 -1.160482 0.113285 -20.501602 -0.061704 -0.245816 0.067439
    47 -1.773751 0.226569 -18.104518 0.309460 0.643004 0.498706
  time 14
    0 0.000000 -0.000006 0.000000 -1.570798 -1.391899 -3.141590
    1 -6.613281 -2.207031 -1.115234 0.013226 -0.695278 -2.042891
    2 6.028141 0.000000 0.000000 -1.667427 -0.743857 -0.503977
    3 11.692554 0.000001 0.000002 0.000000 0.000000 -1.181296
    4 11.481674 0.000001 -0.000032 0.076911 0.167645 0.865087
    5 3.859709 -0.142404 -1.191975 -0.583832 0.057754 -1.715126
    6 1.312555 -0.000002 0.000001 -0.282364 0.024800 -0.268300
    7 0.729363 -0.000002 -0.000002 0.000000 0.000000 -0.415147
    8 3.942335 0.046767 -0.431443 -0.443389 0.236328 -1.284431
    9 1.539097 0.000000 0.000000 0.000000 0.000000 -0.637382
    10 1.196326 -0.000002 -0.000001 0.000000 0.000000 -0.703202
    11 3.883696 -0.046765 0.431443 -0.258899 0.387633 -0.931701
    12 1.719570 -0.000004 -0.000001 -0.002878 0.004706 -0.915718
    13 1.209171 -0.000002 0.000000 -0.001237 0.002825 -0.629490
    14 3.859865 -0.137947 1.332466 -0.099428 0.461302 -0.732690
    15 1.719429 0.000002 -0.000001 -0.000539 0.004038 -0.496883
    16 1.099665 0.000000 0.000000 -0.001800 0.001871 -1.010281
    17 0.806053 -0.348925 1.321258 -1.229940 -0.304225 -0.764790
    18 1.789780 -0.000002 0.000002 0.383195 -0.046448 -0.280884
    19 1.207006 0.000000 0.000000 0.276101 -0.084983 0.613238
    20 -3.794922 2.695313 -6.742188 3.066403 -0.024148 1.435052
    21 6.028144 0.000000 0.000000 1.405350 1.010431 -0.742641
    22 11.692554 0.000001 0.000003 0.000000 0.000012 -0.915265
    23 11.481697 0.000001 0.000002 -0.718819 0.265629 0.018353
    24 3.859678 -0.132570 1.193109 0.413684 0.051581 -1.688689
    25 1.312557 -0.000002 0.000001 0.161420 0.154349 -1.082000
    26 0.729365 0.000002 -0.000002 0.000000 0.000000 -1.193339
    27 3.942305 0.050327 0.431044 0.329691 -0.071933 -1.358434
    28 1.539099 -0.000002 0.000000 0.000000 0.000000 -1.340617
    29 1.196321 0.000008 0.000000 0.000000 0.000000 -1.381861
    30 3.883661 -0.050323 -0.431042 0.070989 -0.194219 -1.368066
    31 1.719578 0.000004 0.000000 0.007454 -0.002833 -1.574981
    32 1.209185 0.000002 0.000000 0.004410 -0.000674 -1.637469
    33 3.859838 -0.148937 -1.331282 -0.053749 -0.412832 -1.394731
    34 1.719423 0.000002 0.000000 0.005621 -0.003473 -1.381117
    35 1.099667 0.000002 0.000000 0.003188 -0.002749 -1.104812
    36 0.806021 -0.359837 -1.318334 1.523944 0.415249 -0.504895
    37 1.789782 0.000000 -0.000004 -0.070144 0.320468 -0.148313
    38 1.206999 0.000003 0.000002 0.503047 -0.070014 0.492769
    39 -2.023789 0.187506 -21.718326 -0.049023 -0.180693 0.070803
    40 -3.554689 -20.180303 -5.464980 -0.049053 -0.180687 0.070835
    41 0.000000 7.169887 -1.514632 0.000000 0.000000 0.000000
    42 0.000000 6.250000 0.998666 0.000000 0.000000 0.000000
    43 0.000000 -2.750000 0.000000 0.000000 0.142617 0.000000
    44 0.000000 2.851563 0.000000 0.000000 0.000000 0.000000
    45 -2.543336 0.289071 -18.934109 0.038216 -0.180693 0.070803
    46 -2.258171 0.234382 -20.466444 -0.049050 -0.180693 0.070803
    47 -2.711280 0.324229 -18.034203 0.359697 0.696330 0.535987
  time 15
    0 0.000000 -0.000006 0.000000 -1.570798 -1.391899 -3.141590
    1 -6.613281 -2.207031 -1.115234 0.013226 -0.695278 -2.042891
    2 6.028141 0.000000 0.000000 -1.653683 -0.736349 -0.515686
    3 11.692554 0.000001 0.000002 0.000000 0.000000 -1.180784
    4 11.481674 0.000001 -0.000032 0.010494 0.149904 0.828702
    5 3.859709 -0.142404 -1.191975 -0.583832 0.057754 -1.715126
    6 1.312555 -0.000002 0.000001 -0.282364 0.024800 -0.268300
    7 0.729363 -0.000002 -0.000002 0.000000 0.000000 -0.415147
    8 3.942335 0.046767 -0.431443 -0.443389 0.236328 -1.284431
    9 1.539097 0.000000 0.000000 0.000000 0.000000 -0.637382
    10 1.196326 -0.000002 -0.000001 0.000000 0.000000 -0.703202
    11 3.883696 -0.046765 0.431443 -0.258899 0.387633 -0.931701
    12 1.719570 -0.000004 -0.000001 -0.002878 0.004706 -0.915718
    13 1.209171 -0.000002 0.000000 -0.001237 0.002825 -0.629490
    14 3.859865 -0.137947 1.332466 -0.099428 0.461302 -0.732690
    15 1.719429 0.000002 -0.000001 -0.000539 0.004038 -0.496883
    16 1.099665 0.000000 0.000000 -0.001800 0.001871 -1.010281
    17 0.806053 -0.348925 1.321258 -1.229940 -0.304225 -0.764790
    18 1.789780 -0.000002 0.000002 0.380487 -0.046502 -0.285857
    19 1.207006 0.000000 0.000000 0.276796 -0.082970 0.607780
    20 -3.794922 2.695313 -6.742188 3.066403 -0.024148 1.435052
    21 6.028144 0.000000 0.000000 1.617704 1.006713 -0.550382
    22 11.692554 0.000001 0.000003 0.000000 0.000012 -0.967289
    23 11.481697 0.000001 0.000002 -1.082225 0.072787 0.063009
    24 3.859678 -0.132570 1.193109 0.413684 0.051581 -1.688689
    25 1.312557 -0.000002 0.000001 0.161420 0.154349 -1.082000
    26 0.729365 0.000002 -0.000002 0.000000 0.000000 -1.193339
    27 3.942305 0.050327 0.431044 0.329691 -0.071933 -1.358434
    28 1.539099 -0.000002 0.000000 0.000000 0.000000 -1.340617
    29 1.196321 0.000008 0.000000 0.000000 0.000000 -1.381861
    30 3.883661 -0.050323 -0.431042 0.070989 -0.194219 -1.368066
    31 1.719578 0.000004 0.000000 0.007454 -0.002833 -1.574981
    32 1.209185 0.000002 0.000000 0.004410 -0.000674 -1.637469
    33 3.859838 -0.148937 -1.331282 -0.093487 -0.406776 -1.344067
    34 1.719423 0.000002 0.000000 0.005621 -0.003473 -1.380899
    35 1.099667 0.000002 0.000000 0.003116 -0.002833 -1.080352
    36 0.806021 -0.359837 -1.318334 1.576500 0.437234 -0.427747
    37 1.789782 0.000000 -0.000004 0.015379 0.295780 -0.036821
    38 1.206999 0.000003 0.000002 0.358363 -0.025132 0.610846
    39 -3.113666 0.191412 -21.839424 -0.043714 -0.115543 0.073462
    40 -3.511719 -20.192022 -5.531388 -0.043737 -0.115558 0.073457
    41 0.000000 7.169887 -1.514632 0.000000 0.000000 0.000000
    42 0.000000 6.250000 0.998666 0.000000 0.000000 0.000000
    43 0.000000 -2.750000 0.000000 0.000000 0.578808 0.000000
    44 0.000000 2.851563 0.000000 0.000000 0.000000 0.000000
    45 -3.449614 0.289071 -19.023956 0.043538 -0.115543 0.073462
    46 -3.262108 0.234382 -20.571916 -0.043728 -0.115543 0.073462
    47 -3.555055 0.324229 -18.116237 0.406138 0.751666 0.570207
  time 16
    0 0.000000 -0.000006 0.000000 -1.570798 -1.391899 -3.141590
    1 -6.613281 -2.207031 -1.115234 0.013226 -0.695278 -2.042891
    2 6.028141 0.000000 0.000000 -1.659155 -0.729040 -0.511132
    3 11.692554 0.000001 0.000002 0.000000 0.000000 -1.188233
    4 11.481674 0.000001 -0.000032 0.038728 0.157040 0.843323
    5 3.859709 -0.142404 -1.191975 -0.583832 0.057754 -1.715126
    6 1.312555 -0.000002 0.000001 -0.282364 0.024800 -0.268300
    7 0.729363 -0.000002 -0.000002 0.000000 0.000000 -0.415147
    8 3.942335 0.046767 -0.431443 -0.443389 0.236328 -1.284431
    9 1.539097 0.000000 0.000000 0.000000 0.000000 -0.637382
    10 1.196326 -0.000002 -0.000001 0.000000 0.000000 -0.703202
    11 3.883696 -0.046765 0.431443 -0.258899 0.387633 -0.931701
    12 1.719570 -0.000004 -0.000001 -0.002878 0.004706 -0.915718
    13 1.209171 -0.000002 0.000000 -0.001237 0.002825 -0.629490
    14 3.859865 -0.137947 1.332466 -0.099428 0.461302 -0.732690
    15 1.719429 0.000002 -0.000001 -0.000539 0.004038 -0.496883
    16 1.099665 0.000000 0.000000 -0.001800 0.001871 -1.010281
    17 0.806053 -0.348925 1.321258 -1.229940 -0.304225 -0.764790
    18 1.789780 -0.000002 0.000002 0.376100 -0.047264 -0.290234
    19 1.207006 0.000000 0.000000 0.277407 -0.080477 0.600482
    20 -3.794922 2.695313 -6.742188 3.066403 -0.024148 1.435052
    21 6.028144 0.000000 0.000000 1.954490 1.101146 -0.246805
    22 11.692554 0.000001 0.000003 0.000000 0.000012 -1.009003
    23 11.481697 0.000001 0.000002 -1.799630 -0.181634 0.244343
    24 3.859678 -0.132570 1.193109 0.413684 0.051581 -1.688689
    25 1.312557 -0.000002 0.000001 0.161420 0.154349 -1.082000
    26 0.729365 0.000002 -0.000002 0.000000 0.000000 -1.193339
    27 3.942305 0.050327 0.431044 0.329691 -0.071933 -1.358434
    28 1.539099 -0.000002 0.000000 0.000000 0.000000 -1.340617
    29 1.196321 0.000008 0.000000 0.000000 0.000000 -1.381861
    30 3.883661 -0.050323 -0.431042 0.070989 -0.194219 -1.368066
    31 1.719578 0.000004 0.000000 0.007454 -0.002833 -1.574981
    32 1.209185 0.000002 0.000000 0.004410 -0.000674 -1.637469
    33 3.859838 -0.148937 -1.331282 -0.136136 -0.398243 -1.286013
    34 1.719423 0.000002 0.000000 0.005621 -0.003485 -1.380735
    35 1.099667 0.000002 0.000000 0.003044 -0.002917 -1.053474
    36 0.806021 -0.359837 -1.318334 1.617147 0.453649 -0.367726
    37 1.789782 0.000000 -0.000004 0.124101 0.268694 0.085208
    38 1.206999 0.000003 0.000002 0.111430 0.046069 0.721593
    39 -2.578494 0.191412 -21.878487 -0.045333 -0.144351 0.074714
    40 -3.429685 -20.199835 -5.597797 -0.045357 -0.144333 0.074713
    41 0.000000 7.169887 -1.514632 0.000000 0.000000 0.000000
    42 0.000000 6.250000 0.998666 0.000000 0.000000 0.000000
    43 0.000000 -2.750000 0.000000 0.000000 1.570412 0.000000
    44 0.000000 2.851563 0.000000 0.000000 0.000000 0.000000
    45 -2.996475 0.289071 -19.074738 0.041934 -0.144351 0.074714
    46 -2.765999 0.234382 -20.614887 -0.045332 -0.144351 0.074714
    47 -3.129261 0.320322 -18.167020 0.385885 0.727028 0.557553
  time 17
    0 0.000000 -0.000006 0.000000 -1.570798 -1.391899 -3.141590
    1 -6.613281 -2.207031 -1.115234 0.013226 -0.695278 -2.042891
    2 6.028141 0.000000 0.000000 -1.665889 -0.726847 -0.505463
    3 11.692554 0.000001 0.000002 0.000000 0.000000 -1.192098
    4 11.481674 0.000001 -0.000032 0.068172 0.164374 0.858093
    5 3.859709 -0.142404 -1.191975 -0.583832 0.057754 -1.715151
    6 1.312555 -0.000002 0.000001 -0.282364 0.024800 -0.268300
    7 0.729363 -0.000002 -0.000002 0.000000 0.000000 -0.415147
    8 3.942335 0.046767 -0.431443 -0.443389 0.236328 -1.284431
    9 1.539097 0.000000 0.000000 0.000000 0.000000 -0.637382
    10 1.196326 -0.000002 -0.000001 0.000000 0.000000 -0.703202
    11 3.883696 -0.046765 0.431443 -0.258899 0.387633 -0.931701
    12 1.719570 -0.000004 -0.000001 -0.002878 0.004706 -0.915718
    13 1.209171 -0.000002 0.000000 -0.001237 0.002825 -0.629490
    14 3.859865 -0.137947 1.332466 -0.099428 0.461302 -0.732690
    15 1.719429 0.000002 -0.000001 -0.000539 0.004038 -0.496883
    16 1.099665 0.000000 0.000000 -0.001800 0.001871 -1.010281
    17 0.806053 -0.348925 1.321258 -1.229940 -0.304225 -0.764790
    18 1.789780 -0.000002 0.000002 0.370444 -0.048789 -0.294063
    19 1.207006 0.000000 0.000000 0.277935 -0.077696 0.591567
    20 -3.794922 2.695313 -6.742188 3.066403 -0.024148 1.435052
    21 6.028144 0.000000 0.000000 1.858382 1.077724 -0.332868
    22 11.692554 0.000001 0.000003 0.000000 0.000012 -1.006642
    23 11.481697 0.000001 0.000002 -1.552813 -0.030470 0.139500
    24 3.859678 -0.132570 1.193109 0.413684 0.051581 -1.688689
    25 1.312557 -0.000002 0.000001 0.161420 0.154349 -1.082000
    26 0.729365 0.000002 -0.000002 0.000000 0.000000 -1.193339
    27 3.942305 0.050327 0.431044 0.329691 -0.071933 -1.358434
    28 1.539099 -0.000002 0.000000 0.000000 0.000000 -1.340617
    29 1.196321 0.000008 0.000000 0.000000 0.000000 -1.381861
    30 3.883661 -0.050323 -0.431042 0.070989 -0.194219 -1.368066
    31 1.719578 0.000004 0.000000 0.007454 -0.002833 -1.574981
    32 1.209185 0.000002 0.000000 0.004410 -0.000674 -1.637469
    33 3.859838 -0.148937 -1.331282 -0.178617 -0.387481 -1.227994
    34 1.719423 0.000002 0.000000 0.005621 -0.003485 -1.380517
    35 1.099667 0.000002 0.000000 0.002960 -0.003000 -1.024515
    36 0.806021 -0.359837 -1.318334 1.633499 0.460037 -0.343519
    37 1.789782 0.000000 -0.000004 0.239398 0.238745 0.203924
    38 1.206999 0.000003 0.000002 -0.019298 0.083437 0.770026
    39 -2.058946 0.171880 -21.874581 -0.048346 -0.173130 0.074948
    40 -3.382809 -20.203742 -5.609516 -0.048376 -0.173130 0.074931
    41 0.000000 7.169887 -1.514632 0.000000 0.000000 0.000000
    42 0.000000 6.250000 0.998666 0.000000 0.000000 0.000000
    43 0.000000 -2.750000 0.000000 0.000000 1.570796 0.000000
    44 0.000000 2.851563 0.000000 0.000000 0.000000 0.000000
    45 -2.555055 0.273446 -19.082551 0.038899 -0.173130 0.074948
    46 -2.281610 0.218757 -20.618793 -0.048367 -0.173130 0.074948
    47 -2.715186 0.304697 -18.182645 0.364931 0.702791 0.543607
  time 18
    0 0.000000 -0.000006 0.000000 -1.570798 -1.391899 -3.141590
    1 -6.613281 -2.207031 -1.115234 0.013226 -0.695278 -2.042891
    2 6.028141 0.000000 0.000000 -1.659975 -0.735452 -0.510257
    3 11.692554 0.000001 0.000002 0.000000 0.000000 -1.180272
    4 11.481674 0.000001 -0.000032 0.067702 0.163476 0.848048
    5 3.859709 -0.142404 -1.191975 -0.583832 0.057754 -1.715126
    6 1.312555 -0.000002 0.000001 -0.282364 0.024800 -0.268300
    7 0.729363 -0.000002 -0.000002 0.000000 0.000000 -0.415147
    8 3.942335 0.046767 -0.431443 -0.443389 0.236328 -1.284431
    9 1.539097 0.000000 0.000000 0.000000 0.000000 -0.637382
    10 1.196326 -0.000002 -0.000001 0.000000 0.000000 -0.703202
    11 3.883696 -0.046765 0.431443 -0.258899 0.387633 -0.931701
    12 1.719570 -0.000004 -0.000001 -0.002878 0.004706 -0.915718
    13 1.209171 -0.000002 0.000000 -0.001237 0.002825 -0.629490
    14 3.859865 -0.137947 1.332466 -0.099428 0.461302 -0.732690
    15 1.719429 0.000002 -0.000001 -0.000539 0.004038 -0.496883
    16 1.099665 0.000000 0.000000 -0.001800 0.001871 -1.010281
    17 0.806053 -0.348925 1.321258 -1.229940 -0.304225 -0.764790
    18 1.789780 -0.000002 0.000002 0.363936 -0.051113 -0.297445
    19 1.207006 0.000000 0.000000 0.278402 -0.074844 0.581227
    20 -3.794922 2.695313 -6.742188 3.066403 -0.024148 1.435052
    21 6.028144 0.000000 0.000000 1.791363 1.043845 -0.394537
    22 11.692554 0.000001 0.000003 0.000000 0.000012 -1.027656
    23 11.481697 0.000001 0.000002 -1.359247 0.084466 0.065587
    24 3.859678 -0.132570 1.193109 0.413684 0.051581 -1.688689
    25 1.312557 -0.000002 0.000001 0.161420 0.154349 -1.082000
    26 0.729365 0.000002 -0.000002 0.000000 0.000000 -1.193339
    27 3.942305 0.050327 0.431044 0.329691 -0.071933 -1.358434
    28 1.539099 -0.000002 0.000000 0.000000 0.000000 -1.340617
    29 1.196321 0.000008 0.000000 0.000000 0.000000 -1.381861
    30 3.883661 -0.050323 -0.431042 0.070989 -0.194219 -1.368066
    31 1.719578 0.000004 0.000000 0.007454 -0.002833 -1.574981
    32 1.209185 0.000002 0.000000 0.004410 -0.000674 -1.637469
    33 3.859838 -0.148937 -1.331282 -0.217744 -0.375077 -1.177398
    34 1.719423 0.000002 0.000000 0.005621 -0.003485 -1.380245
    35 1.099667 0.000002 0.000000 0.002864 -0.003084 -0.993756
    36 0.806021 -0.359837 -1.318334 1.633499 0.460037 -0.343519
    37 1.789782 0.000000 -0.000004 0.343794 0.206494 0.305607
    38 1.206999 0.000003 0.000002 -0.019298 0.083437 0.770026
    39 -2.051134 0.132817 -21.937083 -0.049965 -0.172111 0.067831
    40 -3.507813 -20.207648 -5.636860 -0.049996 -0.172113 0.067886
    41 0.000000 7.169887 -1.514632 0.000000 0.000000 0.000000
    42 0.000000 6.378910 0.998666 0.000000 0.000000 0.000000
    43 0.000000 -2.750000 0.000000 0.000000 1.570796 0.000000
    44 0.000000 2.851563 0.000000 0.000000 0.000000 0.000000
    45 -2.543336 0.242195 -19.145053 0.037295 -0.172111 0.067831
    46 -2.273797 0.183599 -20.681295 -0.049971 -0.172111 0.067831
    47 -2.703467 0.277352 -18.245147 0.363654 0.704430 0.535375
  time 19
    0 0.000000 -0.000006 0.000000 -1.570798 -1.391899 -3.141590
    1 -6.613281 -2.207031 -1.115234 0.013226 -0.695278 -2.042891
    2 6.028141 0.000000 0.000000 -1.647730 -0.754621 -0.520312
    3 11.692554 0.000001 0.000002 0.000000 0.000000 -1.155643
    4 11.481674 0.000001 -0.000032 0.075769 0.149524 0.811328
    5 3.859709 -0.142404 -1.191975 -0.583832 0.057754 -1.715126
    6 1.312555 -0.000002 0.000001 -0.282364 0.024800 -0.268300
    7 0.729363 -0.000002 -0.000002 0.000000 0.000000 -0.415147
    8 3.942335 0.046767 -0.431443 -0.443389 0.236328 -1.284431
    9 1.539097 0.000000 0.000000 0.000000 0.000000 -0.637382
    10 1.196326 -0.000002 -0.000001 0.000000 0.000000 -0.703202
    11 3.883696 -0.046765 0.431443 -0.258899 0.387633 -0.931701
    12 1.719570 -0.000004 -0.000001 -0.002878 0.004706 -0.915718
    13 1.209171 -0.000002 0.000000 -0.001237 0.002825 -0.629490
    14 3.859865 -0.137947 1.332466 -0.099428 0.461302 -0.732690
    15 1.719429 0.000002 -0.000001 -0.000539 0.004038 -0.496883
    16 1.099665 0.000000 0.000000 -0.001800 0.001871 -1.010281
    17 0.806053 -0.348925 1.321258 -1.229940 -0.304225 -0.764790
    18 1.789780 -0.000002 0.000002 0.356973 -0.054270 -0.300463
    19 1.207006 0.000000 0.000000 0.278785 -0.072087 0.569703
    20 -3.794922 2.695313 -6.742188 3.066403 -0.024148 1.435052
    21 6.028144 0.000000 0.000000 1.737552 0.967676 -0.447635
    22 11.692554 0.000001 0.000003 0.000000 0.000024 -1.136111
    23 11.481697 0.000001 0.000002 -1.250916 0.167990 0.068873
    24 3.859678 -0.132570 1.193109 0.413684 0.051581 -1.688689
    25 1.312557 -0.000002 0.000001 0.161420 0.154349 -1.082000
    26 0.729365 0.000002 -0.000002 0.000000 0.000000 -1.193339
    27 3.942305 0.050327 0.431044 0.329691 -0.071933 -1.358434
    28 1.539099 -0.000002 0.000000 0.000000 0.000000 -1.340617
    29 1.196321 0.000008 0.000000 0.000000 0.000000 -1.381861
    30 3.883661 -0.050323 -0.431042 0.070989 -0.194219 -1.368066
    31 1.719578 0.000004 0.000000 0.007454 -0.002833 -1.574981
    32 1.209185 0.000002 0.000000 0.004410 -0.000674 -1.637469
    33 3.859838 -0.148937 -1.331282 -0.250310 -0.361908 -1.141510
    34 1.719423 0.000002 0.000000 0.005621 -0.003485 -1.380026
    35 1.099667 0.000002 0.000000 0.002756 -0.003180 -0.961592
    36 0.806021 -0.359837 -1.318334 1.633499 0.460037 -0.343519
    37 1.789782 0.000000 -0.000004 0.419552 0.173501 0.377115
    38 1.206999 0.000003 0.000002 -0.019298 0.083437 0.770026
    39 -1.937849 -0.292978 -22.511319 -0.077112 -0.169901 0.052266
    40 -3.789071 -20.160771 -5.672018 -0.077110 -0.169894 0.052267
    41 0.000000 7.169887 -1.514632 0.000000 0.000000 0.000000
    42 0.000000 6.890645 0.998666 0.000000 0.000000 0.000000
    43 0.000000 -2.750000 0.000000 0.000000 1.570796 0.000000
    44 0.000000 2.851563 0.000000 0.000000 0.000000 0.000000
    45 -2.426145 -0.101566 -19.723196 0.010178 -0.169901 0.052266
    46 -2.156606 -0.207038 -21.255531 -0.077088 -0.169901 0.052266
    47 -2.582369 -0.039064 -18.823290 0.333274 0.718155 0.495373
  time 20
    0 0.000000 -0.000006 0.000000 -1.570798 -1.391899 -3.141590
    1 -6.613281 -2.207031 -1.115234 0.013226 -0.695278 -2.042891
    2 6.028141 0.000000 0.000000 -1.635107 -0.773957 -0.530835
    3 11.692554 0.000001 0.000002 0.000000 0.000000 -1.130967
    4 11.481674 0.000001 -0.000032 0.093112 0.123429 0.758462
    5 3.859709 -0.142404 -1.191975 -0.583832 0.057754 -1.715126
    6 1.312555 -0.000002 0.000001 -0.282364 0.024800 -0.268300
    7 0.729363 -0.000002 -0.000002 0.000000 0.000000 -0.415147
    8 3.942335 0.046767 -0.431443 -0.443389 0.236328 -1.284431
    9 1.539097 0.000000 0.000000 0.000000 0.000000 -0.637382
    10 1.196326 -0.000002 -0.000001 0.000000 0.000000 -0.703202
    11 3.883696 -0.046765 0.431443 -0.258899 0.387633 -0.931701
    12 1.719570 -0.000004 -0.000001 -0.002878 0.004706 -0.915718
    13 1.209171 -0.000002 0.000000 -0.001237 0.002825 -0.629490
    14 3.859865 -0.137947 1.332466 -0.099428 0.461302 -0.732690
    15 1.719429 0.000002 -0.000001 -0.000539 0.004038 -0.496883
    16 1.099665 0.000000 0.000000 -0.001800 0.001871 -1.010281
    17 0.806053 -0.348925 1.321258 -1.229940 -0.304225 -0.764790
    18 1.789780 -0.000002 0.000002 0.349986 -0.058278 -0.303165
    19 1.207006 0.000000 0.000000 0.279133 -0.069631 0.557170
    20 -3.794922 2.695313 -6.742188 3.066403 -0.024148 1.435052
    21 6.028144 0.000000 0.000000 1.677464 0.835276 -0.506869
    22 11.692554 0.000001 0.000003 0.000000 0.000024 -1.362388
    23 11.481697 0.000001 0.000002 -1.219926 0.250463 0.158896
    24 3.859678 -0.132570 1.193109 0.413684 0.051581 -1.688689
    25 1.312557 -0.000002 0.000001 0.161420 0.154349 -1.082000
    26 0.729365 0.000002 -0.000002 0.000000 0.000000 -1.193339
    27 3.942305 0.050327 0.431044 0.329691 -0.071933 -1.358434
    28 1.539099 -0.000002 0.000000 0.000000 0.000000 -1.340617
    29 1.196321 0.000008 0.000000 0.000000 0.000000 -1.381861
    30 3.883661 -0.050323 -0.431042 0.070989 -0.194219 -1.368066
    31 1.719578 0.000004 0.000000 0.007454 -0.002833 -1.574981
    32 1.209185 0.000002 0.000000 0.004410 -0.000674 -1.637469
    33 3.859838 -0.148937 -1.331282 -0.273107 -0.348975 -1.127448
    34 1.719423 0.000002 0.000000 0.005621 -0.003485 -1.379754
    35 1.099667 0.000002 0.000000 0.002661 -0.003264 -0.928416
    36 0.806021 -0.359837 -1.318334 1.633499 0.460037 -0.343519
    37 1.789782 0.000000 -0.000004 0.448955 0.141778 0.405723
    38 1.206999 0.000003 0.000002 -0.019298 0.083437 0.770026
    39 -1.750343 -1.113315 -23.511350 -0.127453 -0.167663 0.036701
    40 -4.070330 -20.067019 -5.707175 -0.127452 -0.167675 0.036702
    41 0.000000 7.169887 -1.514632 0.000000 0.000000 0.000000
    42 0.000000 8.043023 0.998666 0.000000 0.000000 0.000000
    43 0.000000 -2.750000 0.000000 0.000000 1.570412 0.000000
    44 0.000000 2.851563 0.000000 0.000000 0.000000 0.000000
    45 -2.234733 -0.769555 -20.738852 -0.040167 -0.167663 0.036701
    46 -1.969100 -0.957060 -22.263374 -0.127433 -0.167663 0.036701
    47 -2.390957 -0.656270 -19.842852 0.273667 0.740382 0.431560
  time 21
    0 0.000000 -0.000006 0.000000 -1.570798 -1.391899 -3.141590
    1 -6.613281 -2.207031 -1.115234 0.013226 -0.695278 -2.042891
    2 6.028141 0.000000 0.000000 -1.628099 -0.781099 -0.536827
    3 11.692554 0.000001 0.000002 0.000000 0.000000 -1.123332
    4 11.481674 0.000001 -0.000032 0.102860 0.108822 0.733275
    5 3.859709 -0.142404 -1.191975 -0.583832 0.057754 -1.715126
    6 1.312555 -0.000002 0.000001 -0.282364 0.024800 -0.268300
    7 0.729363 -0.000002 -0.000002 0.000000 0.000000 -0.415147
    8 3.942335 0.046767 -0.431443 -0.443389 0.236328 -1.284431
    9 1.539097 0.000000 0.000000 0.000000 0.000000 -0.637382
    10 1.196326 -0.000002 -0.000001 0.000000 0.000000 -0.703202
    11 3.883696 -0.046765 0.431443 -0.258899 0.387633 -0.931701
    12 1.719570 -0.000004 -0.000001 -0.002878 0.004706 -0.915718
    13 1.209171 -0.000002 0.000000 -0.001237 0.002825 -0.629490
    14 3.859865 -0.137947 1.332466 -0.099428 0.461302 -0.732690
    15 1.719429 0.000002 -0.000001 -0.000539 0.004038 -0.496883
    16 1.099665 0.000000 0.000000 -0.001800 0.001871 -1.010281
    17 0.806053 -0.348925 1.321258 -1.229940 -0.304225 -0.764790
    18 1.789780 -0.000002 0.000002 0.343371 -0.063208 -0.305635
    19 1.207006 0.000000 0.000000 0.275502 -0.067174 0.541837
    20 -3.794922 2.695313 -6.742188 3.066403 -0.024148 1.435052
    21 6.028144 0.000000 0.000000 1.618850 0.677361 -0.558801
    22 11.692554 0.000001 0.000003 0.000000 0.000024 -1.638091
    23 11.481697 0.000001 0.000002 -1.199545 0.328757 0.293189
    24 3.859678 -0.132570 1.193109 0.413684 0.051581 -1.688689
    25 1.312557 -0.000002 0.000001 0.161420 0.154349 -1.082000
    26 0.729365 0.000002 -0.000002 0.000000 0.000000 -1.193339
    27 3.942305 0.050327 0.431044 0.329691 -0.071933 -1.358434
    28 1.539099 -0.000002 0.000000 0.000000 0.000000 -1.340617
    29 1.196321 0.000008 0.000000 0.000000 0.000000 -1.381861
    30 3.883661 -0.050323 -0.431042 0.070989 -0.194219 -1.368066
    31 1.719578 0.000004 0.000000 0.007454 -0.002833 -1.574981
    32 1.209185 0.000002 0.000000 0.004410 -0.000674 -1.637469
    33 3.859838 -0.148937 -1.331282 -0.288435 -0.336167 -1.131738
    34 1.719423 0.000002 0.000000 0.005621 -0.003485 -1.379481
    35 1.099667 0.000002 0.000000 0.002541 -0.003360 -0.894565
    36 0.806021 -0.359837 -1.318334 1.633499 0.460037 -0.343519
    37 1.789782 0.000000 -0.000004 0.355831 0.111564 0.333442
    38 1.206999 0.000003 0.000002 -0.019298 0.083437 0.770026
    39 -1.664403 -1.546922 -24.038710 -0.154563 -0.166672 0.029583
    40 -4.199240 -19.992798 -5.730613 -0.154566 -0.166658 0.029602
    41 0.000000 7.169887 -1.514632 0.000000 0.000000 0.000000
    42 0.000000 9.843860 0.998666 0.000000 0.000000 0.000000
    43 0.000000 -2.750000 0.000000 0.000000 1.570412 0.000000
    44 0.000000 2.851563 0.000000 0.000000 0.000000 0.000000
    45 -2.144887 -1.125034 -21.274024 -0.067284 -0.166672 0.029583
    46 -1.879254 -1.355510 -22.794641 -0.154550 -0.166672 0.029583
    47 -2.297204 -0.988311 -20.381931 0.240391 0.751264 0.397408
  time 22
    0 0.000000 -0.000006 0.000000 -1.570798 -1.391899 -3.141590
    1 -6.613281 -2.207031 -1.115234 0.013226 -0.695278 -2.042891
    2 6.028141 0.000000 0.000000 -1.628021 -0.777345 -0.537007
    3 11.692554 0.000001 0.000002 0.000000 0.000000 -1.130735
    4 11.481674 0.000001 -0.000032 0.104406 0.109431 0.742390
    5 3.859709 -0.142404 -1.191975 -0.583832 0.057754 -1.715126
    6 1.312555 -0.000002 0.000001 -0.282364 0.024800 -0.268300
    7 0.729363 -0.000002 -0.000002 0.000000 0.000000 -0.415147
    8 3.942335 0.046767 -0.431443 -0.443389 0.236328 -1.284431
    9 1.539097 0.000000 0.000000 0.000000 0.000000 -0.637382
    10 1.196326 -0.000002 -0.000001 0.000000 0.000000 -0.703202
    11 3.883696 -0.046765 0.431443 -0.258899 0.387633 -0.931701
    12 1.719570 -0.000004 -0.000001 -0.002878 0.004706 -0.915718
    13 1.209171 -0.000002 0.000000 -0.001237 0.002825 -0.629490
    14 3.859865 -0.137947 1.332466 -0.099428 0.461302 -0.732690
    15 1.719429 0.000002 -0.000001 -0.000539 0.004038 -0.496883
    16 1.099665 0.000000 0.000000 -0.001800 0.001871 -1.010281
    17 0.806053 -0.348925 1.321258 -1.229940 -0.304225 -0.764790
    18 1.789780 -0.000002 0.000002 0.337558 -0.069061 -0.307939
    19 1.207006 0.000000 0.000000 0.265087 -0.064345 0.522630
    20 -3.794922 2.695313 -6.742188 3.066403 -0.024148 1.435052
    21 6.028144 0.000000 0.000000 1.593090 0.576376 -0.579137
    22 11.692554 0.000001 0.000003 0.000000 0.000024 -1.812580
    23 11.481697 0.000001 0.000002 -1.160665 0.367447 0.413305
    24 3.859678 -0.132570 1.193109 0.413684 0.051581 -1.688689
    25 1.312557 -0.000002 0.000001 0.161420 0.154349 -1.082000
    26 0.729365 0.000002 -0.000002 0.000000 0.000000 -1.193339
    27 3.942305 0.050327 0.431044 0.329691 -0.071933 -1.358434
    28 1.539099 -0.000002 0.000000 0.000000 0.000000 -1.340617
    29 1.196321 0.000008 0.000000 0.000000 0.000000 -1.381861
    30 3.883661 -0.050323 -0.431042 0.070989 -0.194219 -1.368066
    31 1.719578 0.000004 0.000000 0.007454 -0.002833 -1.574981
    32 1.209185 0.000002 0.000000 0.004410 -0.000674 -1.637469
    33 3.859838 -0.148937 -1.331282 -0.300891 -0.322845 -1.144881
    34 1.719423 0.000002 0.000000 0.005621 -0.003485 -1.379208
    35 1.099667 0.000002 0.000000 0.002433 -0.003444 -0.860321
    36 0.806021 -0.359837 -1.318334 1.633499 0.460037 -0.343519
    37 1.789782 0.000000 -0.000004 0.152302 0.079769 0.171804
    38 1.206999 0.000003 0.000002 0.006725 0.076474 0.663602
    39 -1.644871 -1.453169 -23.980114 -0.151287 -0.170014 0.032164
    40 -4.179708 -19.965453 -5.742332 -0.151310 -0.170033 0.032169
    41 0.000000 7.169887 -1.514632 0.000000 0.000000 0.000000
    42 0.000000 11.246246 0.998666 0.000000 0.000000 0.000000
    43 0.000000 -2.750000 0.000000 0.000000 1.570412 0.000000
    44 0.000000 2.851563 0.000000 0.000000 0.000000 0.000000
    45 -2.129261 -1.039094 -21.215429 -0.064044 -0.170014 0.032164
    46 -1.863628 -1.265664 -22.736045 -0.151310 -0.170014 0.032164
    47 -2.289392 -0.906278 -20.323336 0.242820 0.746998 0.402170
  time 23
    0 0.000000 -0.000006 0.000000 -1.570798 -1.391899 -3.141590
    1 -6.613281 -2.207031 -1.115234 0.013226 -0.695278 -2.042891
    2 6.028141 0.000000 0.000000 -1.630808 -0.773923 -0.534706
    3 11.692554 0.000001 0.000002 0.000000 0.000000 -1.137904
    4 11.481674 0.000001 -0.000032 0.108439 0.112763 0.759541
    5 3.859709 -0.142404 -1.191975 -0.583832 0.057754 -1.715126
    6 1.312555 -0.000002 0.000001 -0.282364 0.024800 -0.268300
    7 0.729363 -0.000002 -0.000002 0.000000 0.000000 -0.415147
    8 3.942335 0.046767 -0.431443 -0.443389 0.236328 -1.284431
    9 1.539097 0.000000 0.000000 0.000000 0.000000 -0.637382
    10 1.196326 -0.000002 -0.000001 0.000000 0.000000 -0.703202
    11 3.883696 -0.046765 0.431443 -0.258899 0.387633 -0.931701
    12 1.719570 -0.000004 -0.000001 -0.002878 0.004706 -0.915718
    13 1.209171 -0.000002 0.000000 -0.001237 0.002825 -0.629490
    14 3.859865 -0.137947 1.332466 -0.099428 0.461302 -0.732690
    15 1.719429 0.000002 -0.000001 -0.000539 0.004038 -0.496883
    16 1.099665 0.000000 0.000000 -0.001800 0.001871 -1.010281
    17 0.806053 -0.348925 1.321258 -1.229940 -0.304225 -0.764790
    18 1.789780 -0.000002 0.000002 0.332944 -0.075906 -0.310177
    19 1.207006 0.000000 0.000000 0.249579 -0.061313 0.500830
    20 -3.794922 2.695313 -6.742188 3.066403 -0.024148 1.435052
    21 6.028144 0.000000 0.000000 1.586268 0.555835 -0.585375
    22 11.692554 0.000001 0.000003 0.000000 0.000024 -1.795501
    23 11.481697 0.000001 0.000002 -1.111490 0.382613 0.439532
    24 3.859678 -0.132570 1.193109 0.413684 0.051581 -1.688689
    25 1.312557 -0.000002 0.000001 0.161420 0.154349 -1.082000
    26 0.729365 0.000002 -0.000002 0.000000 0.000000 -1.193339
    27 3.942305 0.050327 0.431044 0.329691 -0.071933 -1.358434
    28 1.539099 -0.000002 0.000000 0.000000 0.000000 -1.340617
    29 1.196321 0.000008 0.000000 0.000000 0.000000 -1.381861
    30 3.883661 -0.050323 -0.431042 0.070989 -0.194219 -1.368066
    31 1.719578 0.000004 0.000000 0.007454 -0.002833 -1.574981
    32 1.209185 0.000002 0.000000 0.004410 -0.000674 -1.637469
    33 3.859838 -0.148937 -1.331282 -0.310807 -0.309021 -1.164799
    34 1.719423 0.000002 0.000000 0.005621 -0.003485 -1.378935
    35 1.099667 0.000002 0.000000 0.002313 -0.003528 -0.826076
    36 0.806021 -0.359837 -1.318334 1.633499 0.460037 -0.343519
    37 1.789782 0.000000 -0.000004 -0.048801 0.047627 0.010961
    38 1.206999 0.000003 0.000002 0.060014 0.068791 0.465074
    39 -1.601901 -1.289102 -23.800421 -0.143456 -0.178031 0.038265
    40 -4.140645 -19.965453 -5.734519 -0.143462 -0.178029 0.038231
    41 0.000000 7.169887 -1.514632 0.000000 0.000000 0.000000
    42 0.000000 11.246246 0.998666 0.000000 0.000000 0.000000
    43 0.000000 -2.750000 0.000000 0.000000 1.570796 0.000000
    44 0.000000 2.851563 0.000000 0.000000 0.000000 0.000000
    45 -2.117542 -0.906278 -21.039642 -0.056199 -0.178031 0.038265
    46 -1.832377 -1.117222 -22.560258 -0.143465 -0.178031 0.038265
    47 -2.281579 -0.781274 -20.147549 0.248629 0.736704 0.413531
  time 24
    0 0.000000 -0.000006 0.000000 -1.570798 -1.391899 -3.141590
    1 -6.613281 -2.207031 -1.115234 0.013226 -0.695278 -2.042891
    2 6.028141 0.000000 0.000000 -1.634208 -0.773026 -0.531830
    3 11.692554 0.000001 0.000002 0.000000 0.000000 -1.142001
    4 11.481674 0.000001 -0.000032 0.113145 0.116658 0.778998
    5 3.859709 -0.142404 -1.191975 -0.583832 0.057754 -1.715126
    6 1.312555 -0.000002 0.000001 -0.282364 0.024800 -0.268300
    7 0.729363 -0.000002 -0.000002 0.000000 0.000000 -0.415147
    8 3.942335 0.046767 -0.431443 -0.443389 0.236328 -1.284431
    9 1.539097 0.000000 0.000000 0.000000 0.000000 -0.637382
    10 1.196326 -0.000002 -0.000001 0.000000 0.000000 -0.703202
    11 3.883696 -0.046765 0.431443 -0.258899 0.387633 -0.931701
    12 1.719570 -0.000004 -0.000001 -0.002878 0.004706 -0.915718
    13 1.209171 -0.000002 0.000000 -0.001237 0.002825 -0.629490
    14 3.859865 -0.137947 1.332466 -0.099428 0.461302 -0.732690
    15 1.719429 0.000002 -0.000001 -0.000539 0.004038 -0.496883
    16 1.099665 0.000000 0.000000 -0.001800 0.001871 -1.010281
    17 0.806053 -0.348925 1.321258 -1.229940 -0.304225 -0.764790
    18 1.789780 -0.000002 0.000002 0.329972 -0.083745 -0.312399
    19 1.207006 0.000000 0.000000 0.230655 -0.058197 0.477749
    20 -3.794922 2.695313 -6.742188 3.066403 -0.024148 1.435052
    21 6.028144 0.000000 0.000000 1.564438 0.510431 -0.604140
    22 11.692554 0.000001 0.000003 0.000000 0.000024 -1.750403
    23 11.481697 0.000001 0.000002 -1.069474 0.390279 0.419169
    24 3.859678 -0.132570 1.193109 0.413684 0.051581 -1.688689
    25 1.312557 -0.000002 0.000001 0.161420 0.154349 -1.082000
    26 0.729365 0.000002 -0.000002 0.000000 0.000000 -1.193339
    27 3.942305 0.050327 0.431044 0.329691 -0.071933 -1.358434
    28 1.539099 -0.000002 0.000000 0.000000 0.000000 -1.340617
    29 1.196321 0.000008 0.000000 0.000000 0.000000 -1.381861
    30 3.883661 -0.050323 -0.431042 0.070989 -0.194219 -1.368066
    31 1.719578 0.000004 0.000000 0.007454 -0.002833 -1.574981
    32 1.209185 0.000002 0.000000 0.004410 -0.000674 -1.637469
    33 3.859838 -0.148937 -1.331282 -0.318536 -0.294710 -1.189451
    34 1.719423 0.000002 0.000000 0.005609 -0.003497 -1.378663
    35 1.099667 0.000002 0.000000 0.002181 -0.003600 -0.792169
    36 0.806021 -0.359837 -1.318334 1.628923 0.459985 -0.348667
    37 1.789782 0.000000 -0.000004 -0.141991 0.024832 -0.060502
    38 1.206999 0.000003 0.000002 0.091779 0.067485 0.354056
    39 -1.586276 -1.113315 -23.569945 -0.133854 -0.187605 0.045539
    40 -4.121113 -19.988891 -5.707175 -0.133885 -0.187598 0.045549
    41 0.000000 7.169887 -1.514632 0.000000 0.000000 0.000000
    42 0.000000 11.246246 0.998666 0.000000 0.000000 0.000000
    43 0.000000 -2.750000 0.000000 0.000000 1.570796 0.000000
    44 0.000000 2.851563 0.000000 0.000000 0.000000 0.000000
    45 -2.129261 -0.757836 -20.809166 -0.046614 -0.187605 0.045539
    46 -1.832377 -0.953154 -22.325876 -0.133880 -0.187605 0.045539
    47 -2.305017 -0.644551 -19.917073 0.255644 0.724338 0.427206
  time 25
    0 0.000000 -0.000006 0.000000 -1.570798 -1.391899 -3.141590
    1 -6.613281 -2.207031 -1.115234 0.013226 -0.695278 -2.042891
    2 6.028141 0.000000 0.000000 -1.637322 -0.774588 -0.529145
    3 11.692554 0.000001 0.000002 0.000000 0.000000 -1.142607
    4 11.481674 0.000001 -0.000032 0.117044 0.120127 0.795144
    5 3.859709 -0.142404 -1.191975 -0.583832 0.057754 -1.715126
    6 1.312555 -0.000002 0.000001 -0.282364 0.024800 -0.268300
    7 0.729363 -0.000002 -0.000002 0.000000 0.000000 -0.415147
    8 3.942335 0.046767 -0.431443 -0.443389 0.236328 -1.284431
    9 1.539097 0.000000 0.000000 0.000000 0.000000 -0.637382
    10 1.196326 -0.000002 -0.000001 0.000000 0.000000 -0.703202
    11 3.883696 -0.046765 0.431443 -0.258899 0.387633 -0.931701
    12 1.719570 -0.000004 -0.000001 -0.002878 0.004706 -0.915718
    13 1.209171 -0.000002 0.000000 -0.001237 0.002825 -0.629490
    14 3.859865 -0.137947 1.332466 -0.099428 0.461302 -0.732690
    15 1.719429 0.000002 -0.000001 -0.000539 0.004038 -0.496883
    16 1.099665 0.000000 0.000000 -0.001800 0.001871 -1.010281
    17 0.806053 -0.348925 1.321258 -1.229940 -0.304225 -0.764790
    18 1.789780 -0.000002 0.000002 0.329025 -0.092648 -0.314703
    19 1.207006 0.000000 0.000000 0.209994 -0.055153 0.454685
    20 -3.794922 2.695313 -6.742188 3.066403 -0.024148 1.435052
    21 6.028144 0.000000 0.000000 1.539388 0.465120 -0.627367
    22 11.692554 0.000001 0.000003 0.000000 0.000024 -1.686731
    23 11.481697 0.000001 0.000002 -0.997566 0.338443 0.443849
    24 3.859678 -0.132570 1.193109 0.413684 0.051581 -1.688689
    25 1.312557 -0.000002 0.000001 0.161420 0.154349 -1.082000
    26 0.729365 0.000002 -0.000002 0.000000 0.000000 -1.193339
    27 3.942305 0.050327 0.431044 0.329691 -0.071933 -1.358434
    28 1.539099 -0.000002 0.000000 0.000000 0.000000 -1.340617
    29 1.196321 0.000008 0.000000 0.000000 0.000000 -1.381861
    30 3.883661 -0.050323 -0.431042 0.070989 -0.194219 -1.368066
    31 1.719578 0.000004 0.000000 0.007454 -0.002833 -1.574981
    32 1.209185 0.000002 0.000000 0.004410 -0.000674 -1.637469
    33 3.859838 -0.148937 -1.331282 -0.324393 -0.279981 -1.216860
    34 1.719423 0.000002 0.000000 0.005609 -0.003497 -1.378390
    35 1.099667 0.000002 0.000000 0.002061 -0.003672 -0.758993
    36 0.806021 -0.359837 -1.318334 1.616536 0.459811 -0.362660
    37 1.789782 0.000000 -0.000004 -0.144635 0.011697 -0.041173
    38 1.206999 0.000003 0.000002 0.078299 0.066562 0.346693
    39 -1.597995 -0.964873 -23.347282 -0.125382 -0.195621 0.051640
    40 -4.121113 -20.016236 -5.672018 -0.125408 -0.195617 0.051611
    41 0.000000 7.169887 -1.514632 0.000000 0.000000 0.000000
    42 0.000000 11.246246 0.998666 0.000000 0.000000 0.000000
    43 0.000000 -2.750000 0.000000 0.000000 1.570796 0.000000
    44 0.000000 2.851563 0.000000 0.000000 0.000000 0.000000
    45 -2.164418 -0.640645 -20.590410 -0.038121 -0.195621 0.051640
    46 -1.851909 -0.820338 -22.107120 -0.125387 -0.195621 0.051640
    47 -2.347987 -0.535173 -19.698316 0.261903 0.713796 0.439043
  time 26
    0 0.000000 -0.000006 0.000000 -1.570798 -1.391899 -3.141590
    1 -6.613281 -2.207031 -1.115234 0.013226 -0.695278 -2.042891
    2 6.028141 0.000000 0.000000 -1.640214 -0.776847 -0.526604
    3 11.692554 0.000001 0.000002 0.000000 0.000000 -1.140931
    4 11.481674 0.000001 -0.000032 0.118590 0.123079 0.802436
    5 3.859709 -0.142404 -1.191975 -0.583832 0.057754 -1.715126
    6 1.312555 -0.000002 0.000001 -0.282364 0.024800 -0.268300
    7 0.729363 -0.000002 -0.000002 0.000000 0.000000 -0.415147
    8 3.942335 0.046767 -0.431443 -0.443389 0.236328 -1.284431
    9 1.539097 0.000000 0.000000 0.000000 0.000000 -0.637382
    10 1.196326 -0.000002 -0.000001 0.000000 0.000000 -0.703202
    11 3.883696 -0.046765 0.431443 -0.258899 0.387633 -0.931701
    12 1.719570 -0.000004 -0.000001 -0.002878 0.004706 -0.915718
    13 1.209171 -0.000002 0.000000 -0.001237 0.002825 -0.629490
    14 3.859865 -0.137947 1.332466 -0.099428 0.461302 -0.732690
    15 1.719429 0.000002 -0.000001 -0.000539 0.004038 -0.496883
    16 1.099665 0.000000 0.000000 -0.001800 0.001871 -1.010281
    17 0.806053 -0.348925 1.321258 -1.229940 -0.304225 -0.764790
    18 1.789780 -0.000002 0.000002 0.327922 -0.112139 -0.314189
    19 1.207006 0.000000 0.000000 0.189285 -0.052337 0.432901
    20 -3.794922 2.695313 -6.742188 3.066403 -0.024148 1.435052
    21 6.028144 0.000000 0.000000 1.519031 0.435564 -0.648008
    22 11.692554 0.000001 0.000003 0.000000 0.000024 -1.624554
    23 11.481697 0.000001 0.000002 -0.931302 0.234826 0.515442
    24 3.859678 -0.132570 1.193109 0.413684 0.051581 -1.688689
    25 1.312557 -0.000002 0.000001 0.161420 0.154349 -1.082000
    26 0.729365 0.000002 -0.000002 0.000000 0.000000 -1.193339
    27 3.942305 0.050327 0.431044 0.329691 -0.071933 -1.358434
    28 1.539099 -0.000002 0.000000 0.000000 0.000000 -1.340617
    29 1.196321 0.000008 0.000000 0.000000 0.000000 -1.381861
    30 3.883661 -0.050323 -0.431042 0.070989 -0.194219 -1.368066
    31 1.719578 0.000004 0.000000 0.007454 -0.002833 -1.574981
    32 1.209185 0.000002 0.000000 0.004410 -0.000674 -1.637469
    33 3.859838 -0.148937 -1.331282 -0.328693 -0.264904 -1.245087
    34 1.719423 0.000002 0.000000 0.005609 -0.003497 -1.378117
    35 1.099667 0.000002 0.000000 0.001953 -0.003732 -0.726829
    36 0.806021 -0.359837 -1.318334 1.598262 0.459515 -0.383338
    37 1.789782 0.000000 -0.000004 -0.142253 0.000479 0.006344
    38 1.206999 0.000003 0.000002 0.040715 0.065184 0.340681
    39 -1.609714 -0.902371 -23.214466 -0.120864 -0.198992 0.054143
    40 -4.121113 -20.043580 -5.632954 -0.120894 -0.198992 0.054178
    41 0.000000 7.169887 -1.514632 0.000000 0.000000 0.000000
    42 0.000000 11.246246 0.998666 0.000000 0.000000 0.000000
    43 0.000000 -2.750000 0.000000 0.000000 1.570796 0.000000
    44 0.000000 2.851563 0.000000 0.000000 0.000000 0.000000
    45 -2.183950 -0.589862 -20.453687 -0.033618 -0.198992 0.054143
    46 -1.867534 -0.761742 -21.970397 -0.120884 -0.198992 0.054143
    47 -2.371426 -0.492203 -19.561594 0.265627 0.709005 0.444894
  time 27
    0 0.000000 -0.000006 0.000000 -1.570798 -1.391899 -3.141590
    1 -6.613281 -2.207031 -1.115234 0.013226 -0.695278 -2.042891
    2 6.028141 0.000000 0.000000 -1.643301 -0.779139 -0.523908
    3 11.692554 0.000001 0.000002 0.000000 0.000000 -1.139441
    4 11.481674 0.000001 -0.000032 0.123161 0.124799 0.805487
    5 3.859709 -0.142404 -1.191975 -0.583832 0.057754 -1.715126
    6 1.312555 -0.000002 0.000001 -0.282364 0.024800 -0.268300
    7 0.729363 -0.000002 -0.000002 0.000000 0.000000 -0.415147
    8 3.942335 0.046767 -0.431443 -0.443389 0.236328 -1.284431
    9 1.539097 0.000000 0.000000 0.000000 0.000000 -0.637382
    10 1.196326 -0.000002 -0.000001 0.000000 0.000000 -0.703202
    11 3.883696 -0.046765 0.431443 -0.258899 0.387633 -0.931701
    12 1.719570 -0.000004 -0.000001 -0.002878 0.004706 -0.915718
    13 1.209171 -0.000002 0.000000 -0.001237 0.002825 -0.629490
    14 3.859865 -0.137947 1.332466 -0.099428 0.461302 -0.732690
    15 1.719429 0.000002 -0.000001 -0.000539 0.004038 -0.496883
    16 1.099665 0.000000 0.000000 -0.001800 0.001871 -1.010281
    17 0.806053 -0.348925 1.321258 -1.229940 -0.304225 -0.764790
    18 1.789780 -0.000002 0.000002 0.325106 -0.145002 -0.309398
    19 1.207006 0.000000 0.000000 0.170217 -0.049880 0.413726
    20 -3.794922 2.695313 -6.742188 3.066403 -0.024148 1.435052
    21 6.028144 0.000000 0.000000 1.507515 0.425526 -0.659672
    22 11.692554 0.000001 0.000003 0.000000 0.000024 -1.591656
    23 11.481697 0.000001 0.000002 -0.907629 0.180472 0.548822
    24 3.859678 -0.132570 1.193109 0.413684 0.051581 -1.688689
    25 1.312557 -0.000002 0.000001 0.161420 0.154349 -1.082000
    26 0.729365 0.000002 -0.000002 0.000000 0.000000 -1.193339
    27 3.942305 0.050327 0.431044 0.329691 -0.071933 -1.358434
    28 1.539099 -0.000002 0.000000 0.000000 0.000000 -1.340617
    29 1.196321 0.000008 0.000000 0.000000 0.000000 -1.381861
    30 3.883661 -0.050323 -0.431042 0.070989 -0.194219 -1.368066
    31 1.719578 0.000004 0.000000 0.007454 -0.002833 -1.574981
    32 1.209185 0.000002 0.000000 0.004410 -0.000674 -1.637469
    33 3.859838 -0.148937 -1.331282 -0.331733 -0.249632 -1.272087
    34 1.719423 0.000002 0.000000 0.005609 -0.003497 -1.377899
    35 1.099667 0.000002 0.000000 0.001834 -0.003791 -0.696127
    36 0.806021 -0.359837 -1.318334 1.576068 0.459132 -0.408584
    37 1.789782 0.000000 -0.000004 -0.135482 -0.008677 0.073942
    38 1.206999 0.000003 0.000002 -0.011438 0.062967 0.335987
    39 -1.551118 -0.921903 -23.171496 -0.121580 -0.203156 0.055081
    40 -4.121113 -20.055300 -5.593890 -0.121602 -0.203152 0.055107
    41 0.000000 7.169887 -1.514632 0.000000 0.000000 0.000000
    42 0.000000 11.246246 0.998666 0.000000 0.000000 0.000000
    43 0.000000 -2.750000 0.000000 0.000000 1.570412 0.000000
    44 0.000000 2.851563 0.000000 0.000000 0.000000 0.000000
    45 -2.137074 -0.609394 -20.414623 -0.034335 -0.203156 0.055081
    46 -1.812845 -0.781274 -21.931333 -0.121601 -0.203156 0.055081
    47 -2.324549 -0.507828 -19.522530 0.262695 0.705388 0.443805
  time 28
    0 0.000000 -0.000006 0.000000 -1.570798 -1.391899 -3.141590
    1 -6.613281 -2.207031 -1.115234 0.013226 -0.695278 -2.042891
    2 6.028141 0.000000 0.000000 -1.646779 -0.780800 -0.520924
    3 11.692554 0.000001 0.000002 0.000000 0.000000 -1.140000
    4 11.481674 0.000001 -0.000032 0.133447 0.125392 0.810956
    5 3.859709 -0.142404 -1.191975 -0.583832 0.057754 -1.715126
    6 1.312555 -0.000002 0.000001 -0.282364 0.024800 -0.268300
    7 0.729363 -0.000002 -0.000002 0.000000 0.000000 -0.415147
    8 3.942335 0.046767 -0.431443 -0.443389 0.236328 -1.284431
    9 1.539097 0.000000 0.000000 0.000000 0.000000 -0.637382
    10 1.196326 -0.000002 -0.000001 0.000000 0.000000 -0.703202
    11 3.883696 -0.046765 0.431443 -0.258899 0.387633 -0.931701
    12 1.719570 -0.000004 -0.000001 -0.002878 0.004706 -0.915718
    13 1.209171 -0.000002 0.000000 -0.001237 0.002825 -0.629490
    14 3.859865 -0.137947 1.332466 -0.099428 0.461302 -0.732690
    15 1.719429 0.000002 -0.000001 -0.000539 0.004038 -0.496883
    16 1.099665 0.000000 0.000000 -0.001800 0.001871 -1.010281
    17 0.806053 -0.348925 1.321258 -1.229940 -0.304225 -0.764790
    18 1.789780 -0.000002 0.000002 0.321858 -0.181058 -0.302518
    19 1.207006 0.000000 0.000000 0.154505 -0.047939 0.398425
    20 -3.794922 2.695313 -6.742188 3.066403 -0.024148 1.435052
    21 6.028144 0.000000 0.000000 1.502549 0.431567 -0.663881
    22 11.692554 0.000001 0.000003 0.000000 0.000024 -1.576780
    23 11.481697 0.000001 0.000002 -0.899843 0.185370 0.537545
    24 3.859678 -0.132570 1.193109 0.413684 0.051581 -1.688689
    25 1.312557 -0.000002 0.000001 0.161420 0.154349 -1.082000
    26 0.729365 0.000002 -0.000002 0.000000 0.000000 -1.193339
    27 3.942305 0.050327 0.431044 0.329691 -0.071933 -1.358434
    28 1.539099 -0.000002 0.000000 0.000000 0.000000 -1.340617
    29 1.196321 0.000008 0.000000 0.000000 0.000000 -1.381861
    30 3.883661 -0.050323 -0.431042 0.070989 -0.194219 -1.368066
    31 1.719578 0.000004 0.000000 0.007454 -0.002833 -1.574981
    32 1.209185 0.000002 0.000000 0.004410 -0.000674 -1.637469
    33 3.859838 -0.148937 -1.331282 -0.333771 -0.234333 -1.296058
    34 1.719423 0.000002 0.000000 0.005609 -0.003497 -1.377681
    35 1.099667 0.000002 0.000000 0.001726 -0.003851 -0.667112
    36 0.806021 -0.359837 -1.318334 1.551936 0.458679 -0.436217
    37 1.789782 0.000000 -0.000004 -0.125127 -0.015652 0.153601
    38 1.206999 0.000003 0.000002 -0.068611 0.059587 0.332609
    39 -1.410489 -0.968780 -23.167589 -0.125194 -0.212334 0.057115
    40 -4.121113 -20.051393 -5.558733 -0.125203 -0.212350 0.057127
    41 0.000000 7.169887 -1.514632 0.000000 0.000000 0.000000
    42 0.000000 11.246246 0.998666 0.000000 0.000000 0.000000
    43 0.000000 -2.750000 0.000000 0.000000 1.570796 0.000000
    44 0.000000 2.851563 0.000000 0.000000 0.000000 0.000000
    45 -2.023789 -0.648457 -20.418529 -0.037916 -0.212334 0.057115
    46 -1.687841 -0.824244 -21.931333 -0.125182 -0.212334 0.057115
    47 -2.219077 -0.546892 -19.530343 0.253899 0.698216 0.439451
  time 29
    0 0.000000 -0.000006 0.000000 -1.570798 -1.391899 -3.141590
    1 -6.613281 -2.207031 -1.115234 0.013226 -0.695278 -2.042891
    2 6.028141 0.000000 0.000000 -1.649684 -0.781963 -0.518443
    3 11.692554 0.000001 0.000002 0.000000 0.000000 -1.140884
    4 11.481674 0.000001 -0.000032 0.143866 0.125407 0.815941
    5 3.859709 -0.142404 -1.191975 -0.583832 0.057754 -1.715126
    6 1.312555 -0.000002 0.000001 -0.282364 0.024800 -0.268300
    7 0.729363 -0.000002 -0.000002 0.000000 0.000000 -0.415147
    8 3.942335 0.046767 -0.431443 -0.443389 0.236328 -1.284431
    9 1.539097 0.000000 0.000000 0.000000 0.000000 -0.637382
    10 1.196326 -0.000002 -0.000001 0.000000 0.000000 -0.703202
    11 3.883696 -0.046765 0.431443 -0.258899 0.387633 -0.931701
    12 1.719570 -0.000004 -0.000001 -0.002878 0.004706 -0.915718
    13 1.209171 -0.000002 0.000000 -0.001237 0.002825 -0.629490
    14 3.859865 -0.137947 1.332466 -0.099428 0.461302 -0.732690
    15 1.719429 0.000002 -0.000001 -0.000539 0.004038 -0.496883
    16 1.099665 0.000000 0.000000 -0.001800 0.001871 -1.010281
    17 0.806053 -0.348925 1.321258 -1.229940 -0.304225 -0.764790
    18 1.789780 -0.000002 0.000002 0.319210 -0.210143 -0.296219
    19 1.207006 0.000000 0.000000 0.143827 -0.046656 0.388293
    20 -3.794922 2.695313 -6.742188 3.066403 -0.024148 1.435052
    21 6.028144 0.000000 0.000000 1.499711 0.451969 -0.666366
    22 11.692554 0.000001 0.000003 0.000000 0.000024 -1.545062
    23 11.481697 0.000001 0.000002 -0.890384 0.188082 0.523819
    24 3.859678 -0.132570 1.193109 0.413684 0.051581 -1.688689
    25 1.312557 -0.000002 0.000001 0.161420 0.154349 -1.082000
    26 0.729365 0.000002 -0.000002 0.000000 0.000000 -1.193339
    27 3.942305 0.050327 0.431044 0.329691 -0.071933 -1.358434
    28 1.539099 -0.000002 0.000000 0.000000 0.000000 -1.340617
    29 1.196321 0.000008 0.000000 0.000000 0.000000 -1.381861
    30 3.883661 -0.050323 -0.431042 0.070989 -0.194219 -1.368066
    31 1.719578 0.000004 0.000000 0.007454 -0.002833 -1.574981
    32 1.209185 0.000002 0.000000 0.004410 -0.000674 -1.637469
    33 3.859838 -0.148937 -1.331282 -0.335032 -0.219214 -1.315023
    34 1.719423 0.000002 0.000000 0.005609 -0.003497 -1.377462
    35 1.099667 0.000002 0.000000 0.001618 -0.003887 -0.640233
    36 0.806021 -0.359837 -1.318334 1.527879 0.458174 -0.464058
    37 1.789782 0.000000 -0.000004 -0.112282 -0.020038 0.237413
    38 1.206999 0.000003 0.000002 -0.121271 0.054709 0.330515
    39 -1.265954 -1.019562 -23.183215 -0.129185 -0.221512 0.059149
    40 -4.121113 -20.047487 -5.531388 -0.129198 -0.221526 0.059148
    41 0.000000 7.169887 -1.514632 0.000000 0.000000 0.000000
    42 0.000000 11.246246 0.998666 0.000000 0.000000 0.000000
    43 0.000000 -2.750000 0.000000 0.000000 1.570796 0.000000
    44 0.000000 2.851563 0.000000 0.000000 0.000000 0.000000
    45 -1.906598 -0.691427 -20.438061 -0.041907 -0.221512 0.059149
    46 -1.555025 -0.871120 -21.946958 -0.129207 -0.221512 0.059149
    47 -2.113605 -0.585955 -19.553781 0.244744 0.691137 0.434757
  time 30
    0 0.000000 -0.000006 0.000000 -1.570798 -1.391899 -3.141590
    1 -6.613281 -2.207031 -1.115234 0.013226 -0.695278 -2.042891
    2 6.028141 0.000000 0.000000 -1.650896 -0.782428 -0.517400
    3 11.692554 0.000001 0.000002 0.000000 0.000000 -1.141350
    4 11.481674 0.000001 -0.000032 0.148572 0.125316 0.818099
    5 3.859709 -0.142404 -1.191975 -0.583832 0.057754 -1.715126
    6 1.312555 -0.000002 0.000001 -0.282364 0.024800 -0.268300
    7 0.729363 -0.000002 -0.000002 0.000000 0.000000 -0.415147
    8 3.942335 0.046767 -0.431443 -0.443389 0.236328 -1.284431
    9 1.539097 0.000000 0.000000 0.000000 0.000000 -0.637382
    10 1.196326 -0.000002 -0.000001 0.000000 0.000000 -0.703202
    11 3.883696 -0.046765 0.431443 -0.258899 0.387633 -0.931701
    12 1.719570 -0.000004 -0.000001 -0.002878 0.004706 -0.915718
    13 1.209171 -0.000002 0.000000 -0.001237 0.002825 -0.629490
    14 3.859865 -0.137947 1.332466 -0.099428 0.461302 -0.732690
    15 1.719429 0.000002 -0.000001 -0.000539 0.004038 -0.496883
    16 1.099665 0.000000 0.000000 -0.001800 0.001871 -1.010281
    17 0.806053 -0.348925 1.321258 -1.229940 -0.304225 -0.764790
    18 1.789780 -0.000002 0.000002 0.318119 -0.222097 -0.293434
    19 1.207006 0.000000 0.000000 0.139884 -0.046201 0.384628
    20 -3.794922 2.695313 -6.742188 3.066403 -0.024148 1.435052
    21 6.028144 0.000000 0.000000 1.499929 0.490494 -0.666468
    22 11.692554 0.000001 0.000003 0.000000 0.000024 -1.490047
    23 11.481697 0.000001 0.000002 -0.884061 0.186865 0.506420
    24 3.859678 -0.132570 1.193109 0.413684 0.051581 -1.688689
    25 1.312557 -0.000002 0.000001 0.161420 0.154349 -1.082000
    26 0.729365 0.000002 -0.000002 0.000000 0.000000 -1.193339
    27 3.942305 0.050327 0.431044 0.329691 -0.071933 -1.358434
    28 1.539099 -0.000002 0.000000 0.000000 0.000000 -1.340617
    29 1.196321 0.000008 0.000000 0.000000 0.000000 -1.381861
    30 3.883661 -0.050323 -0.431042 0.070989 -0.194219 -1.368066
    31 1.719578 0.000004 0.000000 0.007454 -0.002833 -1.574981
    32 1.209185 0.000002 0.000000 0.004410 -0.000674 -1.637469
    33 3.859838 -0.148937 -1.331282 -0.335717 -0.204485 -1.327178
    34 1.719423 0.000002 0.000000 0.005609 -0.003497 -1.377244
    35 1.099667 0.000002 0.000000 0.001522 -0.003935 -0.615773
    36 0.806021 -0.359837 -1.318334 1.505983 0.457705 -0.489989
    37 1.789782 0.000000 -0.000004 -0.098411 -0.021057 0.317713
    38 1.206999 0.000003 0.000002 -0.159837 0.047962 0.329637
    39 -1.203452 -1.043001 -23.191028 -0.131068 -0.225704 0.060087
    40 -4.121113 -20.047487 -5.523576 -0.131085 -0.225709 0.060077
    41 0.000000 7.169887 -1.514632 0.000000 0.000000 0.000000
    42 0.000000 11.246246 0.998666 0.000000 0.000000 0.000000
    43 0.000000 -2.750000 0.000000 0.000000 1.570796 0.000000
    44 0.000000 2.851563 0.000000 0.000000 0.000000 0.000000
    45 -1.851909 -0.710959 -20.449780 -0.043817 -0.225704 0.060087
    46 -1.492523 -0.894559 -21.958678 -0.131083 -0.225704 0.060087
    47 -8.898968 -13.070711 -8.061243 0.240553 0.687922 0.432580
end
