// Created by Crowbar++ 0.74
version 1
nodes
  0 "ValveBiped.Bip01_Spine4" -1
  1 "ValveBiped.Bip01_L_Clavicle" 0
  2 "ValveBiped.Bip01_L_UpperArm" 1
  3 "ValveBiped.Bip01_L_Forearm" 2
  4 "ValveBiped.Bip01_L_Hand" 3
  5 "ValveBiped.Bip01_L_Finger4" 4
  6 "ValveBiped.Bip01_L_Finger41" 5
  7 "ValveBiped.Bip01_L_Finger42" 6
  8 "ValveBiped.Bip01_L_Finger3" 4
  9 "ValveBiped.Bip01_L_Finger31" 8
  10 "ValveBiped.Bip01_L_Finger32" 9
  11 "ValveBiped.Bip01_L_Finger2" 4
  12 "ValveBiped.Bip01_L_Finger21" 11
  13 "ValveBiped.Bip01_L_Finger22" 12
  14 "ValveBiped.Bip01_L_Finger1" 4
  15 "ValveBiped.Bip01_L_Finger11" 14
  16 "ValveBiped.Bip01_L_Finger12" 15
  17 "ValveBiped.Bip01_L_Finger0" 4
  18 "ValveBiped.Bip01_L_Finger01" 17
  19 "ValveBiped.Bip01_L_Finger02" 18
  20 "ValveBiped.Bip01_R_Clavicle" 0
  21 "ValveBiped.Bip01_R_UpperArm" 20
  22 "ValveBiped.Bip01_R_Forearm" 21
  23 "ValveBiped.Bip01_R_Hand" 22
  24 "ValveBiped.Bip01_R_Finger4" 23
  25 "ValveBiped.Bip01_R_Finger41" 24
  26 "ValveBiped.Bip01_R_Finger42" 25
  27 "ValveBiped.Bip01_R_Finger3" 23
  28 "ValveBiped.Bip01_R_Finger31" 27
  29 "ValveBiped.Bip01_R_Finger32" 28
  30 "ValveBiped.Bip01_R_Finger2" 23
  31 "ValveBiped.Bip01_R_Finger21" 30
  32 "ValveBiped.Bip01_R_Finger22" 31
  33 "ValveBiped.Bip01_R_Finger1" 23
  34 "ValveBiped.Bip01_R_Finger11" 33
  35 "ValveBiped.Bip01_R_Finger12" 34
  36 "ValveBiped.Bip01_R_Finger0" 23
  37 "ValveBiped.Bip01_R_Finger01" 36
  38 "ValveBiped.Bip01_R_Finger02" 37
  39 "v_weapon.p90_Parent" -1
  40 "v_weapon.p90_Clip" 39
  41 "v_weapon.p90_Trigger" 39
  42 "v_weapon.p90_Release" 39
  43 "v_weapon.p90_Handle" 39
end
skeleton
  time 0
    0 0.500000 -0.663086 -9.140625 -1.570760 -1.391893 -1.570827
    1 2.033348 1.000767 1.937660 3.099206 -0.162014 1.679995
    2 6.028145 0.000003 0.000002 -1.926500 0.179936 -0.933606
    3 11.551923 -0.027263 -0.003911 -0.010537 0.273572 -1.152885
    4 11.626208 -0.363381 -0.128935 -0.148539 0.298210 0.497978
    5 3.398750 0.013837 -1.133380 0.073655 -0.203098 -1.568719
    6 1.324282 -0.000008 0.000005 0.000000 -0.035310 -1.198745
    7 0.815305 -0.000004 0.000004 0.000001 -0.000003 -1.062839
    8 3.852481 0.117068 -0.333785 0.033346 -0.143336 -1.734916
    9 1.609408 0.000006 -0.000007 -0.000002 0.002978 -0.322753
    10 0.993191 -0.000006 0.000001 0.003596 0.009293 -0.878058
    11 3.946190 0.218848 0.478320 0.002549 -0.110475 -1.735968
    12 1.684422 -0.000010 0.000009 0.000002 -0.002815 -0.342196
    13 1.252153 -0.000006 0.000003 -0.006915 0.007477 -0.961562
    14 3.785633 0.319082 1.348092 -0.014835 -0.119247 -1.463708
    15 1.719433 0.000002 -0.000005 -0.000004 0.000016 -0.979084
    16 1.005923 -0.000006 0.000003 0.000005 0.000018 -0.502600
    17 0.462279 -0.579405 0.770460 -1.497947 -0.718246 -0.369026
    18 2.633559 0.000000 -0.000008 -0.000002 -0.015102 0.779200
    19 1.308566 0.000000 -0.000002 -0.102838 -0.124257 1.081690
    20 2.033356 1.000772 -1.937610 -0.128175 0.172989 -2.038335
    21 6.028141 0.000000 -0.000002 -0.085573 0.880729 -1.386477
    22 11.751150 -0.003906 -0.000001 0.026256 -0.037404 -1.233039
    23 11.501237 -0.050784 -0.082042 -1.646171 -0.150615 0.706574
    24 3.148717 -0.050511 1.302489 0.024453 0.042878 -1.568402
    25 1.284180 -0.000004 -0.000003 0.000008 0.076727 -1.212138
    26 0.838746 0.000000 -0.000001 -0.076522 0.053934 -1.193815
    27 3.590722 -0.019967 0.516984 0.010540 -0.030485 -1.502983
    28 1.605515 0.000000 0.000001 0.000003 0.146269 -0.920409
    29 1.016602 0.000002 0.000000 0.007898 -0.010732 -0.956320
    30 3.762566 0.000478 -0.313851 -0.027384 -0.124614 -1.230115
    31 1.666992 0.000000 -0.000001 -0.000007 0.185484 -1.019205
    32 1.240234 0.000002 0.000000 0.000001 -0.000002 -1.190241
    33 3.644982 0.026868 -1.194560 0.047735 0.054762 -0.350169
    34 1.715521 0.000008 0.000011 0.000003 -0.028627 -0.762243
    35 1.005912 0.000002 0.000008 0.013151 -0.023004 -0.844231
    36 0.282569 -0.762188 -0.810508 1.215054 0.431656 -0.607179
    37 2.512458 -0.000006 -0.000006 -0.000002 -0.000001 0.359147
    38 1.272461 0.359375 -0.203003 0.053140 0.032129 0.989828
    39 -11.028104 -10.504281 -22.668539 0.369440 -0.560429 -2.632198
    40 0.000423 4.844375 3.492566 0.000019 -0.000028 -0.000078
    41 -0.003482 2.658789 -0.999599 0.000000 0.000000 0.000000
    42 -0.003483 4.841991 5.246524 0.000000 0.000000 0.000000
    43 -0.995792 3.669771 -5.512417 0.000000 0.000000 0.000000
  time 1
    0 0.500000 -0.663086 -9.140625 -1.570760 -1.391893 -1.570827
    1 2.033348 1.000767 1.937660 3.099206 -0.162014 1.679995
    2 6.028145 0.000003 0.000002 -1.926500 0.179936 -0.933606
    3 11.551923 -0.027263 -0.003911 -0.010537 0.273572 -1.152885
    4 11.626208 -0.363381 -0.128935 -0.148539 0.298210 0.497978
    5 3.398750 0.013837 -1.133380 0.073655 -0.203098 -1.568719
    6 1.324282 -0.000008 0.000005 0.000000 -0.035310 -1.198745
    7 0.815305 -0.000004 0.000004 0.000001 -0.000003 -1.062839
    8 3.852481 0.117068 -0.333785 0.033346 -0.143336 -1.734916
    9 1.609408 0.000006 -0.000007 -0.000002 0.002978 -0.322753
    10 0.993191 -0.000006 0.000001 0.003596 0.009293 -0.878058
    11 3.946190 0.218848 0.478320 0.002549 -0.110475 -1.735968
    12 1.684422 -0.000010 0.000009 0.000002 -0.002815 -0.342196
    13 1.252153 -0.000006 0.000003 -0.006915 0.007477 -0.961562
    14 3.785633 0.319082 1.348092 -0.014835 -0.119247 -1.463708
    15 1.719433 0.000002 -0.000005 -0.000004 0.000016 -0.979084
    16 1.005923 -0.000006 0.000003 0.000005 0.000018 -0.502600
    17 0.462279 -0.579405 0.770460 -1.497947 -0.718246 -0.369026
    18 2.633559 0.000000 -0.000008 -0.000002 -0.015102 0.779200
    19 1.308566 0.000000 -0.000002 -0.102838 -0.124257 1.081690
    20 2.033356 1.000772 -1.937610 -0.128175 0.172989 -2.038335
    21 6.028141 0.000000 -0.000002 -0.085573 0.880729 -1.386477
    22 11.751150 -0.003906 -0.000001 0.026256 -0.037404 -1.233039
    23 11.501237 -0.050784 -0.082042 -1.646171 -0.150615 0.706574
    24 3.148717 -0.050511 1.302489 0.024453 0.042878 -1.568402
    25 1.284180 -0.000004 -0.000003 0.000008 0.076727 -1.212138
    26 0.838746 0.000000 -0.000001 -0.076522 0.053934 -1.193815
    27 3.590722 -0.019967 0.516984 0.010540 -0.030485 -1.502983
    28 1.605515 0.000000 0.000001 0.000003 0.146269 -0.920409
    29 1.016602 0.000002 0.000000 0.007898 -0.010732 -0.956320
    30 3.762566 0.000478 -0.313851 -0.027384 -0.124614 -1.230115
    31 1.666992 0.000000 -0.000001 -0.000007 0.185484 -1.019205
    32 1.240234 0.000002 0.000000 0.000001 -0.000002 -1.190241
    33 3.644982 0.026868 -1.194560 0.047735 0.054762 -0.350169
    34 1.715521 0.000008 0.000011 0.000003 -0.028627 -0.762243
    35 1.005912 0.000002 0.000008 0.013151 -0.023004 -0.844231
    36 0.282569 -0.762188 -0.810508 1.215054 0.431656 -0.607179
    37 2.512458 -0.000006 -0.000006 -0.000002 -0.000001 0.359147
    38 1.272461 0.359375 -0.203003 0.053140 0.032129 0.989828
    39 -11.028104 -10.504281 -22.668539 0.369440 -0.560429 -2.632198
    40 0.000423 4.844375 3.492566 0.000019 -0.000028 -0.000078
    41 -0.003482 2.658789 -0.999599 0.000000 0.000000 0.000000
    42 -0.003483 4.841991 5.246524 0.000000 0.000000 0.000000
    43 -0.995792 3.669771 -5.512417 0.000000 0.000000 0.000000
  time 2
    0 0.500000 -0.663086 -9.140625 -1.570760 -1.391893 -1.570827
    1 2.033348 1.000767 1.937660 3.099206 -0.162014 1.679995
    2 6.028145 0.000003 0.000002 -1.971551 0.193034 -0.898306
    3 11.630051 -0.011638 -0.000005 -0.026837 0.282189 -1.222519
    4 11.719961 -0.382913 -0.398475 -0.072657 0.234383 0.594107
    5 3.097959 -0.021320 -1.078691 0.075570 -0.201947 -1.570406
    6 1.324282 -0.000008 0.000005 0.000000 -0.034902 -1.201363
    7 0.815305 -0.000004 0.000004 0.000001 -0.000003 -1.064481
    8 3.547784 0.081910 -0.279096 0.035371 -0.141873 -1.736543
    9 1.609408 0.000006 -0.000007 -0.000002 0.003002 -0.323134
    10 0.993191 -0.000006 0.000001 0.003596 0.009317 -0.879564
    11 3.649306 0.179784 0.529102 0.004515 -0.109109 -1.737499
    12 1.684422 -0.000010 0.000009 0.000002 -0.002827 -0.342632
    13 1.252153 -0.000006 0.000003 -0.006951 0.007501 -0.963226
    14 3.477030 0.280018 1.402781 -0.012722 -0.118428 -1.464567
    15 1.719433 0.000002 -0.000005 -0.000004 0.000016 -0.980884
    16 1.005923 -0.000006 0.000003 0.000005 0.000018 -0.503233
    17 0.157583 -0.622375 0.825149 -1.496654 -0.719040 -0.367489
    18 2.633559 0.000000 -0.000008 -0.000002 -0.015221 0.780128
    19 1.308566 0.000000 -0.000002 -0.103149 -0.124425 1.083366
    20 2.033356 1.000772 -1.937610 -0.128175 0.172989 -2.038335
    21 6.028141 0.000000 -0.000002 -0.172043 0.879504 -1.497088
    22 11.692554 0.000000 -0.000001 0.024770 -0.037979 -1.219375
    23 11.411390 0.058594 -0.089855 -1.585142 -0.162000 0.680927
    24 2.894803 0.008085 1.243893 0.032691 0.046904 -1.565837
    25 1.284180 -0.000004 -0.000003 0.000008 0.076727 -1.212138
    26 0.838746 0.000000 -0.000001 -0.076522 0.053934 -1.193815
    27 3.340714 0.042535 0.462295 0.019025 -0.026997 -1.501052
    28 1.605515 0.000000 0.000001 0.000003 0.146269 -0.920409
    29 1.016602 0.000002 0.000000 0.007898 -0.010732 -0.956320
    30 3.524277 0.066887 -0.368540 -0.018204 -0.123547 -1.229067
    31 1.666992 0.000000 -0.000001 -0.000007 0.185484 -1.019205
    32 1.240234 0.000002 0.000000 0.000001 -0.000002 -1.190241
    33 3.410600 0.097182 -1.245342 0.054375 0.048410 -0.347651
    34 1.715521 0.000008 0.000011 0.000003 -0.028615 -0.762243
    35 1.002005 0.000002 0.000008 0.013139 -0.023004 -0.844231
    36 0.044281 -0.703592 -0.896448 1.223839 0.427201 -0.601330
    37 2.512458 -0.000006 -0.000006 -0.000002 -0.000001 0.359159
    38 1.272461 0.359375 -0.203003 0.053140 0.032129 0.989828
    39 -10.196047 -11.351963 -21.883359 0.464982 -0.547191 -2.669082
    40 0.000423 4.844375 3.496472 0.000019 -0.000028 -0.000078
    41 0.000424 2.658789 -0.999599 0.000000 0.000000 0.000000
    42 0.000423 4.841991 5.246524 0.000000 0.000000 0.000000
    43 -0.995792 3.669771 -5.512417 0.000000 0.000000 0.000000
  time 3
    0 0.500000 -0.663086 -9.140625 -1.570760 -1.391893 -1.570827
    1 2.033348 1.000767 1.937660 3.099206 -0.162014 1.679995
    2 6.028145 0.000003 0.000002 -2.028653 0.189688 -0.856138
    3 11.723804 0.000081 -0.000005 -0.046623 0.290291 -1.305831
    4 11.610582 -0.117280 -0.378943 -0.003897 0.187206 0.706350
    5 2.859671 -0.052571 -1.258384 0.091945 -0.197933 -1.574788
    6 1.324282 -0.000008 0.000005 0.000000 -0.033800 -1.208520
    7 0.815305 -0.000004 0.000004 0.000001 -0.000003 -1.069063
    8 3.297777 0.050659 -0.450976 0.051658 -0.135198 -1.740155
    9 1.609408 0.000006 -0.000007 -0.000002 0.003038 -0.324089
    10 0.993191 -0.000006 0.000001 0.003608 0.009401 -0.883715
    11 3.383673 0.144627 0.361129 0.020574 -0.102733 -1.740325
    12 1.684422 -0.000010 0.000009 0.000002 -0.002851 -0.343993
    13 1.252153 -0.000006 0.000003 -0.007047 0.007561 -0.967873
    14 3.199677 0.244861 1.226994 0.004162 -0.116562 -1.466095
    15 1.719433 0.000002 -0.000005 -0.000004 0.000016 -0.985788
    16 1.005923 -0.000006 0.000003 0.000005 0.000018 -0.505033
    17 -0.104144 -0.684877 0.590767 -1.486936 -0.731186 -0.365026
    18 2.633559 0.000000 -0.000008 -0.000002 -0.015569 0.782649
    19 1.308566 0.000000 -0.000002 -0.104000 -0.124868 1.087927
    20 2.033356 1.000772 -1.937610 -0.128175 0.172989 -2.038335
    21 6.028141 0.000000 -0.000002 -0.272317 0.878657 -1.633600
    22 11.614427 0.003906 -0.000001 0.024411 -0.037032 -1.190255
    23 11.395765 0.113284 0.070307 -1.516267 -0.175916 0.638567
    24 2.543230 0.039336 1.407961 0.057109 0.045155 -1.566380
    25 1.284180 -0.000004 -0.000003 0.000008 0.076727 -1.212138
    26 0.838746 0.000000 -0.000001 -0.076522 0.053934 -1.193815
    27 3.008673 0.065973 0.638082 0.043258 -0.030305 -1.503365
    28 1.605515 0.000000 0.000001 0.000003 0.146269 -0.920409
    29 1.016602 0.000002 0.000000 0.007898 -0.010732 -0.956320
    30 3.211768 0.094231 -0.184941 0.004447 -0.133219 -1.233618
    31 1.666992 0.000000 -0.000001 -0.000007 0.185484 -1.019205
    32 1.240234 0.000002 0.000000 0.000001 -0.000002 -1.190241
    33 3.121529 0.124527 -1.069556 0.061167 0.024945 -0.349050
    34 1.711614 0.000008 0.000011 0.000003 -0.028627 -0.762243
    35 1.005912 0.000002 0.000008 0.013151 -0.023004 -0.844231
    36 -0.256510 -0.668435 -0.798788 1.237417 0.406141 -0.597483
    37 2.512458 -0.000006 -0.000006 -0.000002 -0.000001 0.359159
    38 1.272461 0.359375 -0.203003 0.053140 0.032129 0.989828
    39 -9.371804 -12.207458 -20.992706 0.558912 -0.530978 -2.703862
    40 0.000423 4.840469 3.496472 0.000019 -0.000028 -0.000078
    41 0.000424 2.658789 -0.995693 0.000000 0.000000 0.000000
    42 0.000423 4.841991 5.250430 0.000000 0.000000 0.000000
    43 -0.995792 3.669771 -5.512417 0.000000 0.000000 0.000000
  time 4
    0 0.500000 -0.663086 -9.140625 -1.570760 -1.391893 -1.570827
    1 2.033348 1.000767 1.937660 3.099206 -0.162014 1.679995
    2 6.028145 0.000003 0.000002 -2.094460 0.221727 -0.823414
    3 11.758961 0.003988 -0.000005 -0.068267 0.296187 -1.387011
    4 11.512923 0.042881 -0.406288 0.059606 0.122661 0.832148
    5 2.652633 -0.118980 -1.371668 0.090170 -0.196183 -1.586046
    6 1.324282 -0.000008 0.000005 0.000000 -0.032110 -1.219322
    7 0.819211 -0.000004 0.000004 0.000001 -0.000003 -1.075863
    8 3.094645 -0.007936 -0.564261 0.051095 -0.133652 -1.752097
    9 1.609408 0.000006 -0.000007 -0.000002 0.003122 -0.325425
    10 0.993191 -0.000006 0.000001 0.003608 0.009509 -0.889864
    11 3.180542 0.082125 0.247844 0.019771 -0.101642 -1.751945
    12 1.684422 -0.000010 0.000009 0.000002 -0.002899 -0.346062
    13 1.252153 -0.000006 0.000003 -0.007203 0.007657 -0.974764
    14 3.000453 0.178453 1.113710 0.003158 -0.115232 -1.475262
    15 1.719433 0.000002 -0.000005 -0.000004 0.000016 -0.993181
    16 1.005923 -0.000006 0.000003 0.000005 0.000018 -0.507734
    17 -0.303369 -0.755192 0.477483 -1.490032 -0.726902 -0.359516
    18 2.633559 0.000000 -0.000008 -0.000002 -0.016084 0.786453
    19 1.308566 0.000000 -0.000002 -0.105283 -0.125539 1.094748
    20 2.033356 1.000772 -1.937610 -0.128175 0.172989 -2.038335
    21 6.028141 0.000000 -0.000002 -0.365784 0.875455 -1.766610
    22 11.587083 0.003906 -0.000001 0.024494 -0.036146 -1.170655
    23 11.419203 0.113284 0.222655 -1.448699 -0.190541 0.621321
    24 2.304941 0.051055 1.556403 0.063365 0.042183 -1.567711
    25 1.284180 -0.000004 -0.000003 0.000008 0.076727 -1.212138
    26 0.838746 0.000000 -0.000001 -0.076522 0.053922 -1.193815
    27 2.774291 0.073786 0.786524 0.049311 -0.033673 -1.505190
    28 1.605515 0.000000 0.000001 0.000003 0.146269 -0.920409
    29 1.016602 0.000002 0.000000 0.007898 -0.010732 -0.956320
    30 2.981292 0.098138 -0.040405 0.009408 -0.138084 -1.235913
    31 1.666992 0.000000 -0.000001 -0.000007 0.185484 -1.019205
    32 1.240234 0.000002 0.000000 0.000001 -0.000002 -1.190241
    33 2.898866 0.128433 -0.921114 0.060532 0.018041 -0.350682
    34 1.715521 0.000008 0.000011 0.000003 -0.028627 -0.762243
    35 1.002005 0.000002 0.000008 0.013139 -0.023004 -0.844231
    36 -0.483079 -0.660622 -0.669878 1.238592 0.399293 -0.598646
    37 2.512458 -0.000006 -0.000006 -0.000002 -0.000001 0.359147
    38 1.272461 0.359375 -0.203003 0.053140 0.032129 0.989828
    39 -8.582717 -13.039515 -20.004395 0.650971 -0.512182 -2.736341
    40 0.000423 4.844375 3.496472 0.000019 0.000011 0.000096
    41 0.000424 2.658789 -0.999599 0.000000 0.000000 0.000000
    42 0.000423 4.841991 5.246524 0.000000 0.000000 0.000000
    43 -0.995792 3.669771 -5.512417 0.000000 0.000000 0.000000
  time 5
    0 0.500000 -0.663086 -9.140625 -1.570760 -1.391893 -1.570827
    1 2.033348 1.000767 1.937660 3.099206 -0.162014 1.679995
    2 6.028145 0.000003 0.000002 -2.159310 0.280386 -0.809866
    3 11.704272 0.000081 -0.000005 -0.110896 0.298836 -1.524589
    4 11.509017 -0.000089 -0.179718 0.108781 0.046869 0.979385
    5 2.988581 -0.021320 -1.336511 0.097515 -0.195152 -1.602995
    6 1.324282 -0.000008 0.000005 0.000000 -0.029976 -1.232709
    7 0.819211 -0.000004 0.000004 0.000001 -0.000003 -1.084335
    8 3.422780 0.081910 -0.529103 0.059928 -0.131303 -1.769214
    9 1.609408 0.000006 -0.000007 -0.000002 0.003206 -0.327143
    10 0.993191 -0.000006 0.000001 0.003620 0.009641 -0.897551
    11 3.504770 0.175878 0.283001 0.028280 -0.099880 -1.768394
    12 1.684422 -0.000010 0.000009 0.000002 -0.002971 -0.348621
    13 1.252153 -0.000006 0.000003 -0.007370 0.007777 -0.983360
    14 3.316868 0.272205 1.148867 0.011170 -0.115810 -1.488725
    15 1.719433 0.000002 -0.000005 -0.000004 0.000016 -1.002298
    16 1.005923 -0.000006 0.000003 0.000005 0.000018 -0.511035
    17 0.016953 -0.661439 0.497014 -1.491207 -0.730841 -0.355490
    18 2.633559 0.000000 -0.000008 -0.000002 -0.016719 0.791141
    19 1.308566 0.000000 -0.000002 -0.106877 -0.126330 1.103246
    20 2.033356 1.000772 -1.937610 -0.128175 0.172989 -2.038335
    21 6.028141 0.000000 -0.000002 -0.395023 0.884354 -1.814265
    22 11.657397 0.000000 -0.000001 0.026292 -0.037680 -1.239684
    23 11.423109 0.062501 0.023430 -1.387858 -0.198220 0.656197
    24 2.687766 0.008085 1.376710 0.049653 0.043645 -1.567711
    25 1.284180 -0.000004 -0.000003 0.000008 0.076727 -1.212138
    26 0.838746 0.000000 -0.000001 -0.076522 0.053934 -1.193815
    27 3.145396 0.042535 0.595112 0.035720 -0.031348 -1.504150
    28 1.605515 0.000000 0.000001 0.000003 0.146269 -0.920409
    29 1.016602 0.000002 0.000000 0.007898 -0.010732 -0.956320
    30 3.344584 0.059074 -0.224005 -0.003163 -0.132224 -1.233637
    31 1.666992 0.000000 -0.000001 -0.000007 0.185484 -1.019205
    32 1.240234 0.000002 0.000000 0.000001 -0.000002 -1.190241
    33 3.246533 0.089369 -1.108620 0.057155 0.031404 -0.350192
    34 1.715521 0.000008 0.000011 0.000003 -0.028627 -0.762243
    35 1.005912 0.000002 0.000008 0.013151 -0.023004 -0.844231
    36 -0.131506 -0.703592 -0.810508 1.231449 0.411413 -0.600875
    37 2.512458 -0.000006 -0.000006 -0.000002 -0.000001 0.359159
    38 1.272461 0.359375 -0.203003 0.053140 0.032129 0.989828
    39 -7.832694 -13.840320 -18.941863 0.741124 -0.491282 -2.766322
    40 0.000423 4.840469 3.496472 0.000019 -0.000028 0.000096
    41 0.000424 2.658789 -0.999599 0.000000 0.000000 0.000000
    42 0.000423 4.841991 5.246524 0.000000 0.000000 0.000000
    43 -0.995792 3.669771 -5.512417 0.000000 0.000000 0.000000
  time 6
    0 0.500000 -0.663086 -9.140625 -1.570760 -1.391893 -1.570827
    1 2.033348 1.000767 1.937660 3.099206 -0.162014 1.679995
    2 6.028145 0.000003 0.000002 -2.226455 0.330610 -0.801280
    3 11.688646 0.000081 -0.000005 -0.150086 0.297302 -1.654815
    4 11.649646 -0.144625 -0.074246 0.146340 -0.024888 1.111821
    5 3.312809 0.088058 -1.203695 0.104455 -0.193894 -1.622513
    6 1.324282 -0.000008 0.000005 0.000000 -0.027556 -1.247752
    7 0.815305 -0.000004 0.000004 0.000001 -0.000003 -1.093873
    8 3.743103 0.191289 -0.400193 0.068545 -0.128786 -1.788999
    9 1.609408 0.000006 -0.000007 -0.000002 0.003290 -0.329147
    10 0.993191 -0.000006 0.000001 0.003632 0.009784 -0.906130
    11 3.821186 0.289162 0.427537 0.036573 -0.098035 -1.787512
    12 1.684422 -0.000010 0.000009 0.000002 -0.003043 -0.351452
    13 1.252153 -0.000006 0.000003 -0.007538 0.007909 -0.993001
    14 3.629378 0.385490 1.293403 0.018932 -0.116280 -1.504511
    15 1.719433 0.000002 -0.000005 -0.000004 0.000016 -1.012602
    16 1.005923 -0.000006 0.000003 0.000005 0.000018 -0.514836
    17 0.333369 -0.548154 0.610299 -1.493343 -0.734158 -0.351278
    18 2.633559 0.000000 -0.000008 -0.000002 -0.017427 0.796427
    19 1.308566 0.000000 -0.000002 -0.108662 -0.127217 1.112796
    20 2.033356 1.000772 -1.937610 -0.128175 0.172989 -2.038335
    21 6.028141 0.000000 -0.000002 -0.435382 0.887650 -1.878327
    22 11.715993 0.000000 -0.000001 0.026724 -0.039202 -1.283700
    23 11.384045 0.046875 -0.144544 -1.329133 -0.205345 0.676933
    24 2.976837 -0.007541 1.146234 0.036507 0.046569 -1.566602
    25 1.284180 -0.000004 -0.000003 0.000008 0.076727 -1.212138
    26 0.838746 0.000000 -0.000001 -0.076522 0.053934 -1.193815
    27 3.426654 0.026909 0.364636 0.022813 -0.027584 -1.502049
    28 1.605515 0.000000 0.000001 0.000003 0.146269 -0.920409
    29 1.016602 0.000002 0.000000 0.007898 -0.010732 -0.956320
    30 3.610217 0.051261 -0.458387 -0.014705 -0.125129 -1.230432
    31 1.666992 0.000000 -0.000001 -0.000007 0.185484 -1.019205
    32 1.240234 0.000002 0.000000 0.000001 -0.000002 -1.190241
    33 3.504353 0.081557 -1.339095 0.055365 0.044707 -0.348537
    34 1.711614 0.000008 0.000011 0.000003 -0.028627 -0.762243
    35 1.002005 0.000002 0.000008 0.013139 -0.023004 -0.844231
    36 0.130221 -0.715311 -1.009732 1.225924 0.423877 -0.601390
    37 2.512458 -0.000006 -0.000006 -0.000002 -0.000001 0.359147
    38 1.272461 0.359375 -0.203003 0.053140 0.032129 0.989828
    39 -7.137360 -14.605969 -17.809016 0.829334 -0.468706 -2.793870
    40 -0.003483 4.840469 3.500379 0.000019 -0.000028 0.000096
    41 0.000424 2.658789 -0.999599 0.000000 0.000000 0.000000
    42 -0.003483 4.841991 5.254337 0.000000 0.000000 0.000000
    43 -0.995792 3.669771 -5.512417 0.000000 0.000000 0.000000
  time 7
    0 0.500000 -0.663086 -9.140625 -1.570760 -1.391893 -1.570827
    1 2.033348 1.000767 1.937660 3.099206 -0.162014 1.679995
    2 6.028145 0.000003 0.000002 -2.296470 0.350964 -0.780768
    3 11.696459 0.000081 -0.000005 -0.173360 0.294845 -1.737171
    4 11.704335 -0.175876 -0.136748 0.184154 -0.081638 1.213967
    5 3.301090 0.099777 -1.121661 0.107582 -0.192719 -1.642535
    6 1.324282 -0.000008 0.000005 0.000000 -0.024979 -1.263425
    7 0.815305 -0.000004 0.000004 0.000001 -0.000003 -1.103814
    8 3.727477 0.203008 -0.306440 0.073542 -0.126977 -1.809629
    9 1.609408 0.000006 -0.000007 -0.000002 0.003386 -0.331151
    10 0.993191 -0.000006 0.000001 0.003644 0.009940 -0.915138
    11 3.805561 0.300882 0.509571 0.041271 -0.096944 -1.807533
    12 1.684422 -0.000010 0.000009 0.000002 -0.003127 -0.354447
    13 1.252153 -0.000006 0.000003 -0.007754 0.008029 -1.003106
    14 3.609846 0.397209 1.375436 0.022970 -0.116508 -1.520935
    15 1.719433 0.000002 -0.000005 -0.000004 0.000016 -1.023328
    16 1.005923 -0.000006 0.000003 0.000005 0.000018 -0.518704
    17 0.313837 -0.536435 0.696239 -1.497673 -0.733864 -0.345928
    18 2.633559 0.000000 -0.000008 -0.000002 -0.018146 0.801933
    19 1.308566 0.000000 -0.000002 -0.110544 -0.128128 1.122736
    20 2.033356 1.000772 -1.937610 -0.128175 0.172989 -2.038335
    21 6.028141 0.000000 -0.000002 -0.509197 0.879269 -1.992625
    22 11.708180 0.000000 -0.000001 0.025873 -0.039310 -1.270111
    23 11.368420 0.058594 -0.136731 -1.268291 -0.213978 0.663356
    24 2.949492 0.004178 1.111076 0.034808 0.047815 -1.566503
    25 1.284180 -0.000004 -0.000003 0.000008 0.076727 -1.212138
    26 0.838746 0.000000 -0.000001 -0.076522 0.053934 -1.193815
    27 3.395403 0.042535 0.325572 0.021195 -0.026230 -1.501837
    28 1.605515 0.000000 0.000001 0.000003 0.146269 -0.920409
    29 1.016602 0.000002 0.000000 0.007898 -0.010732 -0.956320
    30 3.575060 0.062980 -0.493544 -0.015903 -0.123403 -1.230115
    31 1.666992 0.000000 -0.000001 -0.000007 0.185484 -1.019205
    32 1.240234 0.000002 0.000000 0.000001 -0.000002 -1.190241
    33 3.469196 0.097182 -1.382065 0.055949 0.046733 -0.348327
    34 1.711614 0.000008 0.000011 0.000003 -0.028627 -0.762243
    35 1.005912 0.000002 0.000008 0.013151 -0.023004 -0.844231
    36 0.098970 -0.703592 -1.040983 1.225984 0.425969 -0.601198
    37 2.512458 -0.000006 -0.000006 -0.000002 -0.000001 0.359159
    38 1.272461 0.359375 -0.203003 0.053140 0.032129 0.989828
    39 -6.508435 -15.316928 -16.637105 0.915674 -0.444899 -2.819051
    40 -0.003483 4.840469 3.496472 0.000019 -0.000028 0.000096
    41 0.000424 2.658789 -0.995693 0.000000 0.000000 0.000000
    42 0.000423 4.841991 5.250430 0.000000 0.000000 0.000000
    43 -0.995792 3.669771 -5.512417 0.000000 0.000000 0.000000
  time 8
    0 0.500000 -0.663086 -9.140625 -1.570760 -1.391893 -1.570827
    1 2.033348 1.000767 1.937660 3.099206 -0.162014 1.679995
    2 6.028145 0.000003 0.000002 -2.374998 0.342484 -0.741748
    3 11.700365 0.000081 -0.000005 -0.189923 0.291693 -1.795261
    4 11.583238 -0.082123 -0.152374 0.236551 -0.134252 1.313554
    5 3.176087 0.041181 -1.191975 0.105632 -0.191449 -1.661549
    6 1.324282 -0.000008 0.000005 0.000000 -0.022390 -1.278799
    7 0.815305 -0.000004 0.000004 0.000001 -0.000003 -1.113525
    8 3.610286 0.144412 -0.380661 0.073614 -0.125886 -1.829544
    9 1.609408 0.000006 -0.000007 -0.000002 0.003470 -0.333107
    10 0.993191 -0.000006 0.000001 0.003644 0.010108 -0.923932
    11 3.684463 0.242286 0.431443 0.041080 -0.096573 -1.827004
    12 1.684422 -0.000010 0.000009 0.000002 -0.003211 -0.357333
    13 1.252153 -0.000006 0.000003 -0.007970 0.008161 -1.012940
    14 3.492655 0.338614 1.305122 0.022112 -0.116078 -1.536880
    15 1.719433 0.000002 -0.000005 -0.000004 0.000016 -1.033824
    16 1.005923 -0.000006 0.000003 0.000005 0.000018 -0.522538
    17 0.196646 -0.591124 0.629831 -1.503550 -0.728888 -0.339941
    18 2.633559 0.000000 -0.000008 -0.000002 -0.018841 0.807329
    19 1.308566 0.000000 -0.000002 -0.112390 -0.129003 1.132481
    20 2.033356 1.000772 -1.937610 -0.128175 0.172989 -2.038335
    21 6.028141 0.000000 -0.000002 -0.594229 0.862459 -2.127478
    22 11.680835 0.000000 -0.000001 0.024854 -0.038279 -1.227663
    23 11.391858 0.062501 -0.039072 -1.205768 -0.223033 0.631911
    24 2.797144 0.015898 1.212642 0.039041 0.046881 -1.566725
    25 1.284180 -0.000004 -0.000003 0.000008 0.076727 -1.212138
    26 0.838746 0.000000 -0.000001 -0.076522 0.053934 -1.193815
    27 3.246961 0.050347 0.431044 0.025353 -0.027441 -1.502389
    28 1.605515 0.000000 0.000001 0.000003 0.146269 -0.920409
    29 1.016602 0.000002 0.000000 0.007898 -0.010732 -0.956320
    30 3.434431 0.074699 -0.391979 -0.012188 -0.125680 -1.230986
    31 1.666992 0.000000 -0.000001 -0.000007 0.185484 -1.019205
    32 1.240234 0.000002 0.000000 0.000001 -0.000002 -1.190241
    33 3.328567 0.104995 -1.272687 0.056533 0.042442 -0.348723
    34 1.711614 0.000008 0.000011 0.000003 -0.028627 -0.762243
    35 1.005912 0.000002 0.000008 0.013127 -0.023004 -0.844231
    36 -0.045566 -0.691873 -0.939418 1.227782 0.421972 -0.600875
    37 2.512458 -0.000006 -0.000006 -0.000002 -0.000001 0.359147
    38 1.272461 0.359375 -0.203003 0.053140 0.032129 0.989828
    39 -5.949824 -15.973198 -15.441756 1.000181 -0.420151 -2.842062
    40 0.000423 4.844375 3.496472 0.000019 -0.000028 0.000096
    41 0.000424 2.658789 -0.999599 0.000000 0.000000 0.000000
    42 0.000423 4.845897 5.250430 0.000000 0.000000 0.000000
    43 -0.995792 3.669771 -5.512417 0.000000 0.000000 0.000000
  time 9
    0 0.500000 -0.663086 -9.140625 -1.570760 -1.391893 -1.570827
    1 2.033348 1.000767 1.937660 3.099206 -0.162014 1.679995
    2 6.028145 0.000003 0.000002 -2.456586 0.311105 -0.685554
    3 11.688646 0.000081 -0.000005 -0.201021 0.288505 -1.831512
    4 11.419170 0.007724 -0.132842 0.308617 -0.193121 1.401384
    5 3.031551 -0.025227 -1.293541 0.099430 -0.190766 -1.677164
    6 1.324282 -0.000008 0.000005 0.000000 -0.020017 -1.292849
    7 0.815305 -0.000004 0.000004 0.000001 -0.000003 -1.122400
    8 3.465750 0.078004 -0.486133 0.069444 -0.126102 -1.846302
    9 1.609408 0.000006 -0.000007 -0.000002 0.003541 -0.334968
    10 0.993191 -0.000006 0.000001 0.003644 0.010240 -0.931988
    11 3.551647 0.175878 0.329878 0.036645 -0.097436 -1.843492
    12 1.684422 -0.000010 0.000009 0.000002 -0.003295 -0.360001
    13 1.252153 -0.000006 0.000003 -0.008149 0.008268 -1.022000
    14 3.363745 0.272205 1.195743 0.016903 -0.115608 -1.549993
    15 1.719433 0.000002 -0.000005 -0.000004 0.000016 -1.043438
    16 1.005923 -0.000006 0.000003 0.000005 0.000018 -0.526039
    17 0.063830 -0.657533 0.543891 -1.510701 -0.720163 -0.332339
    18 2.633559 0.000000 -0.000008 -0.000002 -0.019452 0.812283
    19 1.308566 0.000000 -0.000002 -0.114091 -0.129782 1.141368
    20 2.033356 1.000772 -1.937610 -0.128175 0.172989 -2.038335
    21 6.028141 0.000000 -0.000002 -0.670633 0.841506 -2.253206
    22 11.661304 0.000000 -0.000001 0.023799 -0.037068 -1.181034
    23 11.423109 0.050782 0.019524 -1.143681 -0.227472 0.595349
    24 2.707297 0.015898 1.318114 0.043491 0.045191 -1.567144
    25 1.284180 -0.000004 -0.000003 0.000008 0.076727 -1.212138
    26 0.838746 0.000000 -0.000001 -0.076522 0.053922 -1.193815
    27 3.161021 0.050347 0.540422 0.029680 -0.029406 -1.503110
    28 1.605515 0.000000 0.000001 0.000003 0.146269 -0.920409
    29 1.016602 0.000002 0.000000 0.007898 -0.010732 -0.956320
    30 3.352397 0.070793 -0.282600 -0.008520 -0.128736 -1.232074
    31 1.666992 0.000000 -0.000001 -0.000007 0.185484 -1.019205
    32 1.240234 0.000002 0.000000 0.000001 -0.000002 -1.190241
    33 3.250439 0.101089 -1.163309 0.056482 0.037720 -0.349353
    34 1.711614 0.000008 0.000011 0.000003 -0.028627 -0.762243
    35 1.005912 0.000002 0.000008 0.013139 -0.023004 -0.844231
    36 -0.123693 -0.691873 -0.849571 1.229028 0.417344 -0.600995
    37 2.512458 -0.000006 -0.000006 -0.000002 -0.000001 0.359159
    38 1.272461 0.359375 -0.203003 0.053140 0.032129 0.989828
    39 -5.461528 -16.617749 -14.258126 1.082892 -0.394719 -2.863233
    40 0.000423 4.844375 3.496472 0.000019 -0.000028 0.000096
    41 -0.003482 2.658789 -0.999599 0.000000 0.000000 0.000000
    42 0.000423 4.841991 5.246524 0.000000 0.000000 0.000000
    43 -0.995792 3.669771 -5.512417 0.000000 0.000000 0.000000
  time 10
    0 0.500000 -0.663086 -9.140625 -1.570760 -1.391893 -1.570827
    1 2.033348 1.000767 1.937660 3.099206 -0.162014 1.679995
    2 6.028145 0.000003 0.000002 -2.526506 0.273978 -0.629075
    3 11.673021 0.000081 -0.000005 -0.208775 0.286012 -1.856440
    4 11.321511 0.054600 -0.085965 0.384414 -0.256195 1.472478
    5 2.984674 -0.064291 -1.383388 0.092929 -0.190922 -1.691317
    6 1.324282 -0.000008 0.000005 0.000000 -0.018016 -1.304578
    7 0.815305 -0.000004 0.000004 0.000001 -0.000003 -1.129863
    8 3.426687 0.046753 -0.575980 0.064806 -0.127252 -1.861499
    9 1.609408 0.000006 -0.000007 -0.000002 0.003601 -0.336447
    10 0.993191 -0.000006 0.000001 0.003656 0.010360 -0.938721
    11 3.516489 0.136814 0.236125 0.031828 -0.099125 -1.858449
    12 1.684422 -0.000010 0.000009 0.000002 -0.003355 -0.362233
    13 1.252153 -0.000006 0.000003 -0.008281 0.008364 -1.029512
    14 3.336400 0.237048 1.101991 0.011191 -0.115783 -1.562088
    15 1.719433 0.000002 -0.000005 -0.000004 0.000016 -1.051483
    16 1.005923 -0.000006 0.000003 0.000005 0.000018 -0.529006
    17 0.028672 -0.688784 0.477483 -1.517715 -0.711680 -0.326670
    18 2.633559 0.000000 -0.000008 -0.000002 -0.019967 0.816418
    19 1.308566 0.000000 -0.000002 -0.115518 -0.130417 1.148852
    20 2.033356 1.000772 -1.937610 -0.128175 0.172989 -2.038335
    21 6.028141 0.000000 -0.000002 -0.731602 0.822013 -2.358379
    22 11.665210 0.000000 -0.000001 0.022925 -0.036134 -1.143700
    23 11.450454 0.027344 0.035149 -1.083150 -0.225208 0.559645
    24 2.726829 0.004178 1.392335 0.047387 0.043812 -1.567637
    25 1.284180 -0.000004 -0.000003 0.000008 0.076727 -1.212138
    26 0.838746 0.000000 -0.000001 -0.076522 0.053934 -1.193815
    27 3.184459 0.034722 0.610737 0.033479 -0.031036 -1.503896
    28 1.605515 0.000000 0.000001 0.000003 0.146269 -0.920409
    29 1.016602 0.000002 0.000000 0.007898 -0.010732 -0.956320
    30 3.375835 0.055168 -0.212286 -0.005273 -0.131325 -1.233163
    31 1.666992 0.000000 -0.000001 -0.000007 0.185484 -1.019205
    32 1.240234 0.000002 0.000000 0.000001 -0.000002 -1.190241
    33 3.277784 0.085463 -1.096900 0.056533 0.033585 -0.350006
    34 1.711614 0.000008 0.000011 0.000003 -0.028627 -0.762243
    35 1.005912 0.000002 0.000008 0.013151 -0.023004 -0.844286
    36 -0.096349 -0.707499 -0.787069 1.230203 0.413361 -0.601174
    37 2.512458 -0.000006 -0.000006 -0.000002 -0.000001 0.359159
    38 1.272461 0.359375 -0.203003 0.053140 0.032129 0.989828
    39 -5.051359 -17.215423 -13.101841 1.163916 -0.368825 -2.882825
    40 -0.003483 4.840469 3.496472 0.000019 -0.000028 -0.000078
    41 -0.003482 2.658789 -0.999599 0.000000 0.000000 0.000000
    42 -0.003483 4.841991 5.246524 0.000000 0.000000 0.000000
    43 -0.995792 3.669771 -5.512417 0.000000 0.000000 0.000000
  time 11
    0 0.500000 -0.663086 -9.140625 -1.570760 -1.391893 -1.570827
    1 2.033348 1.000767 1.937660 3.099206 -0.162014 1.679995
    2 6.028145 0.000003 0.000002 -2.578347 0.239254 -0.580896
    3 11.665208 0.000081 -0.000005 -0.214647 0.284107 -1.875411
    4 11.286354 0.070226 -0.039089 0.450970 -0.317526 1.517154
    5 2.984674 -0.079916 -1.465421 0.085409 -0.191329 -1.700711
    6 1.324282 -0.000008 0.000005 0.000000 -0.016542 -1.313061
    7 0.815305 -0.000004 0.000004 0.000001 -0.000003 -1.135281
    8 3.434500 0.031127 -0.665826 0.058741 -0.128834 -1.871847
    9 1.609408 0.000006 -0.000007 -0.000002 0.003649 -0.337592
    10 0.993191 -0.000006 0.000001 0.003656 0.010444 -0.943579
    11 3.528208 0.117282 0.150185 0.025643 -0.101103 -1.868695
    12 1.684422 -0.000010 0.000009 0.000002 -0.003414 -0.363812
    13 1.252153 -0.000006 0.000003 -0.008389 0.008436 -1.034971
    14 3.355932 0.217516 1.019957 0.004266 -0.115823 -1.570300
    15 1.719433 0.000002 -0.000005 -0.000004 0.000016 -1.057267
    16 1.005923 -0.000006 0.000003 0.000005 0.000018 -0.531107
    17 0.044298 -0.708315 0.414981 -1.523612 -0.702852 -0.321743
    18 2.633559 0.000000 -0.000008 -0.000002 -0.020351 0.819426
    19 1.308566 0.000000 -0.000002 -0.116560 -0.130897 1.154232
    20 2.033356 1.000772 -1.937610 -0.128175 0.172989 -2.038335
    21 6.028141 0.000000 -0.000002 -0.777809 0.808170 -2.444379
    22 11.673023 0.000000 -0.000001 0.022349 -0.035474 -1.118949
    23 11.477798 0.007812 0.039056 -1.024052 -0.217573 0.526455
    24 2.746361 -0.011447 1.450931 0.050664 0.042111 -1.567859
    25 1.284180 -0.000004 -0.000003 0.000008 0.076727 -1.212138
    26 0.838746 0.000000 -0.000001 -0.076522 0.053934 -1.193844
    27 3.207898 0.019096 0.673239 0.036643 -0.032929 -1.504362
    28 1.605515 0.000000 0.000001 0.000003 0.146269 -0.920409
    29 1.016602 0.000002 0.000000 0.007898 -0.010732 -0.956320
    30 3.403180 0.035636 -0.145877 -0.002696 -0.133986 -1.233875
    31 1.666992 0.000000 -0.000001 -0.000007 0.185484 -1.019205
    32 1.240234 0.000002 0.000000 0.000001 -0.000002 -1.190241
    33 3.309035 0.065931 -1.034399 0.056076 0.029930 -0.350402
    34 1.711614 0.000008 0.000011 0.000003 -0.028627 -0.762243
    35 1.005912 0.000002 0.000008 0.013151 -0.023004 -0.844231
    36 -0.069004 -0.727031 -0.736287 1.230706 0.409708 -0.601366
    37 2.512458 -0.000006 -0.000006 -0.000002 -0.000001 0.359159
    38 1.272461 0.359375 -0.203003 0.053140 0.032129 0.989828
    39 -4.723224 -17.645124 -11.992432 1.243327 -0.342589 -2.901234
    40 0.004329 4.840469 3.496472 0.000019 0.000011 0.000096
    41 0.000424 2.658789 -0.999599 0.000000 0.000000 0.000000
    42 0.000423 4.841991 5.246524 0.000000 0.000000 0.000000
    43 -0.995792 3.669771 -5.512417 0.000000 0.000000 0.000000
  time 12
    0 0.500000 -0.663086 -9.140625 -1.570760 -1.391893 -1.570827
    1 2.033348 1.000767 1.937660 3.099206 -0.162014 1.679995
    2 6.028145 0.000003 0.000002 -2.613450 0.211032 -0.546645
    3 11.661302 0.000081 -0.000005 -0.224211 0.281027 -1.908868
    4 11.309792 0.062413 -0.000025 0.497601 -0.372806 1.545924
    5 3.039364 -0.083822 -1.520110 0.079136 -0.192000 -1.705446
    6 1.324282 -0.000008 0.000005 0.000000 -0.015799 -1.317335
    7 0.815305 -0.000004 0.000004 0.000001 -0.000003 -1.137932
    8 3.493095 0.027221 -0.724422 0.053360 -0.130512 -1.877281
    9 1.609408 0.000006 -0.000007 -0.000002 0.003673 -0.338117
    10 0.993191 -0.000006 0.000001 0.003656 0.010491 -0.946008
    11 3.594617 0.117282 0.087683 0.020214 -0.102984 -1.874230
    12 1.684422 -0.000010 0.000009 0.000002 -0.003438 -0.364629
    13 1.252153 -0.000006 0.000003 -0.008449 0.008472 -1.037720
    14 3.426247 0.213610 0.961361 -0.001717 -0.115984 -1.574660
    15 1.719433 0.000002 -0.000005 -0.000004 0.000016 -1.060217
    16 1.005923 -0.000006 0.000003 0.000005 0.000018 -0.532174
    17 0.106800 -0.704409 0.375917 -1.527648 -0.696079 -0.319147
    18 2.633559 0.000000 -0.000008 -0.000002 -0.020531 0.820908
    19 1.308566 0.000000 -0.000002 -0.117076 -0.131100 1.156960
    20 2.033356 1.000772 -1.937610 -0.128175 0.172989 -2.038335
    21 6.028141 0.000000 -0.000002 -0.785957 0.806192 -2.460141
    22 11.680835 0.000000 -0.000001 0.022409 -0.035343 -1.116410
    23 11.481705 -0.000001 0.031243 -1.018759 -0.210960 0.519562
    24 2.797144 -0.023166 1.474369 0.050515 0.041380 -1.568476
    25 1.284180 -0.000004 -0.000003 0.000008 0.076727 -1.212138
    26 0.838746 0.000000 -0.000001 -0.076522 0.053934 -1.193815
    27 3.258680 0.007377 0.696677 0.036451 -0.033661 -1.504978
    28 1.605515 0.000000 0.000001 0.000003 0.146269 -0.920409
    29 1.016602 0.000002 0.000000 0.007898 -0.010732 -0.956320
    30 3.453963 0.023917 -0.130252 -0.003091 -0.134621 -1.234429
    31 1.666992 0.000000 -0.000001 -0.000007 0.185484 -1.019205
    32 1.240234 0.000002 0.000000 0.000001 -0.000002 -1.190241
    33 3.359818 0.054212 -1.007054 0.055339 0.029810 -0.351032
    34 1.711614 0.000008 0.000011 0.000003 -0.028627 -0.762243
    35 1.005912 0.000002 0.000008 0.013127 -0.023004 -0.844231
    36 -0.018221 -0.734843 -0.712848 1.229963 0.409407 -0.602253
    37 2.512458 -0.000006 -0.000006 -0.000002 -0.000001 0.359147
    38 1.272461 0.359375 -0.203003 0.053140 0.032129 0.989828
    39 -4.668535 -17.762315 -11.781488 1.262978 -0.345377 -2.905311
    40 0.000423 4.844375 3.496472 0.000019 -0.000028 0.000096
    41 0.000424 2.658789 -0.999599 0.000000 0.000000 0.000000
    42 0.000423 4.845897 5.246524 0.000000 0.000000 0.000000
    43 -0.995792 3.669771 -5.512417 0.000000 0.000000 0.000000
  time 13
    0 0.500000 -0.663086 -9.140625 -1.570760 -1.391893 -1.570827
    1 2.033348 1.000767 1.937660 3.099206 -0.162014 1.679995
    2 6.028145 0.000003 0.000002 -2.629424 0.180312 -0.526133
    3 11.673021 0.000081 -0.000005 -0.244800 0.273357 -1.984312
    4 11.391826 0.038975 0.015600 0.535161 -0.444803 1.553393
    5 3.152648 -0.072103 -1.551361 0.076273 -0.193019 -1.704993
    6 1.324282 -0.000008 0.000005 0.000000 -0.015955 -1.316341
    7 0.815305 -0.000004 0.000004 0.000001 -0.000003 -1.137298
    8 3.606380 0.038940 -0.755673 0.050616 -0.132010 -1.876923
    9 1.609408 0.000006 -0.000007 -0.000002 0.003673 -0.337974
    10 0.993191 -0.000006 0.000001 0.003656 0.010479 -0.945424
    11 3.711808 0.129001 0.056432 0.017482 -0.104423 -1.873955
    12 1.684422 -0.000010 0.000009 0.000002 -0.003426 -0.364465
    13 1.252153 -0.000006 0.000003 -0.008437 0.008460 -1.037101
    14 3.543438 0.229235 0.930110 -0.004709 -0.116562 -1.574564
    15 1.719433 0.000002 -0.000005 -0.000004 0.000016 -1.059527
    16 1.005923 -0.000006 0.000003 0.000005 0.000018 -0.531941
    17 0.223991 -0.688784 0.356385 -1.529254 -0.693695 -0.319598
    18 2.633559 0.000000 -0.000008 -0.000002 -0.020483 0.820554
    19 1.308566 0.000000 -0.000002 -0.116968 -0.131052 1.156337
    20 2.033356 1.000772 -1.937610 -0.128175 0.172989 -2.038335
    21 6.028141 0.000000 -0.000002 -0.776275 0.809959 -2.442074
    22 11.688648 0.000000 -0.000001 0.022661 -0.035450 -1.123503
    23 11.481705 -0.000001 0.011711 -0.974607 -0.137166 0.474806
    24 2.859646 -0.030979 1.458743 0.047468 0.041404 -1.568747
    25 1.284180 -0.000004 -0.000003 0.000008 0.076727 -1.212138
    26 0.838746 0.000000 -0.000001 -0.076522 0.053934 -1.193815
    27 3.317276 -0.000435 0.681052 0.033407 -0.033445 -1.505020
    28 1.605515 0.000000 0.000001 0.000003 0.146269 -0.920409
    29 1.016602 0.000002 0.000000 0.007898 -0.010732 -0.956320
    30 3.512558 0.020010 -0.145877 -0.005992 -0.133614 -1.234191
    31 1.666992 0.000000 -0.000001 -0.000007 0.185484 -1.019205
    32 1.240234 0.000002 0.000000 0.000001 -0.000002 -1.190241
    33 3.414507 0.046399 -1.026586 0.054298 0.032675 -0.351195
    34 1.711614 0.000008 0.000011 0.000003 -0.028627 -0.762243
    35 1.002005 0.000002 0.000008 0.013151 -0.023004 -0.844231
    36 0.036468 -0.742656 -0.720661 1.228093 0.411929 -0.603152
    37 2.512458 -0.000006 -0.000006 -0.000002 -0.000001 0.359159
    38 1.272461 0.359375 -0.203003 0.053140 0.032129 0.989828
    39 -4.660722 -17.942008 -11.773675 1.353827 -0.324716 -2.947323
    40 0.000423 4.844375 3.496472 0.000019 0.000011 0.000096
    41 -0.003482 2.658789 -0.999599 0.000000 0.000000 0.000000
    42 -0.003483 4.841991 5.246524 0.000000 0.000000 0.000000
    43 -0.995792 3.669771 -5.512417 0.000000 0.000000 0.000000
  time 14
    0 0.500000 -0.663086 -9.140625 -1.570760 -1.391893 -1.570827
    1 2.033348 1.000767 1.937660 3.099206 -0.162014 1.679995
    2 6.028145 0.000003 0.000002 -2.623207 0.148792 -0.517928
    3 11.665208 0.000081 -0.000005 -0.269728 0.261168 -2.076963
    4 11.395732 0.027256 0.019507 0.588490 -0.536970 1.529188
    5 3.144836 -0.068197 -1.551361 0.075447 -0.193378 -1.695851
    6 1.324282 -0.000008 0.000005 0.000000 -0.017225 -1.309184
    7 0.819211 -0.000004 0.000004 0.000001 -0.000003 -1.132745
    8 3.602473 0.042847 -0.755673 0.048806 -0.132549 -1.867454
    9 1.609408 0.000006 -0.000007 -0.000002 0.003637 -0.337068
    10 0.993191 -0.000006 0.000001 0.003656 0.010408 -0.941335
    11 3.707901 0.132908 0.056432 0.015804 -0.104614 -1.864730
    12 1.684422 -0.000010 0.000009 0.000002 -0.003391 -0.363104
    13 1.252153 -0.000006 0.000003 -0.008341 0.008400 -1.032454
    14 3.543438 0.229235 0.930110 -0.005985 -0.116320 -1.567053
    15 1.719433 0.000002 -0.000005 -0.000004 0.000016 -1.054624
    16 1.005923 -0.000006 0.000003 0.000005 0.000018 -0.530140
    17 0.220084 -0.688784 0.352479 -1.527197 -0.694455 -0.322035
    18 2.633559 0.000000 -0.000008 -0.000002 -0.020159 0.818033
    19 1.308566 0.000000 -0.000002 -0.116093 -0.130669 1.151776
    20 2.033356 1.000772 -1.937610 -0.128175 0.172989 -2.038335
    21 6.028141 0.000000 -0.000002 -0.780110 0.813820 -2.453596
    22 11.688648 0.000000 -0.000001 0.022877 -0.035546 -1.129514
    23 11.481705 -0.000001 0.007805 -0.885056 -0.057557 0.424667
    24 2.859646 -0.030979 1.454837 0.047468 0.041404 -1.568747
    25 1.284180 -0.000004 -0.000003 0.000008 0.076727 -1.212138
    26 0.838746 0.000000 -0.000001 -0.076522 0.053934 -1.193815
    27 3.317276 -0.000435 0.677145 0.033407 -0.033445 -1.505020
    28 1.605515 0.000000 0.000001 0.000003 0.146269 -0.920409
    29 1.016602 0.000002 0.000000 0.007898 -0.010732 -0.956320
    30 3.512558 0.020010 -0.141971 -0.005992 -0.133614 -1.234191
    31 1.666992 0.000000 -0.000001 -0.000007 0.185484 -1.019205
    32 1.240234 0.000002 0.000000 0.000001 -0.000002 -1.190241
    33 3.414507 0.046399 -1.026586 0.054311 0.032675 -0.351195
    34 1.711614 0.000008 0.000011 0.000003 -0.028627 -0.762243
    35 1.005912 0.000002 0.000008 0.013127 -0.023004 -0.844231
    36 0.036468 -0.742656 -0.720661 1.228093 0.411929 -0.603152
    37 2.512458 -0.000006 -0.000006 -0.000002 -0.000001 0.359147
    38 1.272461 0.359375 -0.203003 0.053140 0.032129 0.989828
    39 -4.551344 -18.102169 -11.230690 1.476683 -0.261008 -2.992885
    40 0.000423 4.844375 3.496472 0.000019 -0.000028 -0.000078
    41 0.000424 2.658789 -0.999599 0.000000 0.000000 0.000000
    42 0.000423 4.841991 5.246524 0.000000 0.000000 0.000000
    43 -0.995792 3.669771 -5.512417 0.000000 0.000000 0.000000
  time 15
    0 0.500000 -0.663086 -9.140625 -1.570760 -1.391893 -1.570827
    1 2.033348 1.000767 1.937660 3.099206 -0.162014 1.679995
    2 6.028145 0.000003 0.000002 -2.605512 0.145400 -0.531476
    3 11.661302 0.003988 -0.000005 -0.287573 0.250562 -2.146230
    4 11.403545 0.015536 0.023413 0.651824 -0.625001 1.482921
    5 3.148742 -0.072103 -1.555268 0.075289 -0.194601 -1.678826
    6 1.324282 -0.000008 0.000005 0.000000 -0.019694 -1.294803
    7 0.815305 -0.000004 0.000004 0.000001 -0.000003 -1.123639
    8 3.606380 0.038940 -0.755673 0.046829 -0.133880 -1.849719
    9 1.609408 0.000006 -0.000007 -0.000002 0.003553 -0.335207
    10 0.993191 -0.000006 0.000001 0.003644 0.010264 -0.933095
    11 3.707901 0.129001 0.052525 0.014054 -0.105250 -1.847496
    12 1.684422 -0.000010 0.000009 0.000002 -0.003295 -0.360382
    13 1.252153 -0.000006 0.000003 -0.008161 0.008292 -1.023239
    14 3.543438 0.229235 0.930110 -0.007136 -0.116562 -1.553112
    15 1.719433 0.000002 -0.000005 -0.000004 0.000016 -1.044818
    16 1.005923 -0.000006 0.000003 0.000005 0.000018 -0.526539
    17 0.223991 -0.688784 0.352479 -1.572062 -0.698809 -0.251919
    18 2.633559 0.000000 -0.000008 -0.000002 -0.019536 0.813013
    19 1.308566 0.000000 -0.000002 -0.114331 -0.129890 1.142616
    20 2.033356 1.000772 -1.937610 -0.128175 0.172989 -2.038335
    21 6.028141 0.000000 -0.000002 -0.778863 0.825262 -2.459956
    22 11.688648 0.000000 -0.000001 0.023727 -0.035918 -1.152399
    23 11.481705 -0.000001 0.007805 -0.845637 -0.073448 0.432801
    24 2.859646 -0.030979 1.454837 0.047468 0.041404 -1.568747
    25 1.284180 -0.000004 -0.000003 0.000008 0.076727 -1.212138
    26 0.838746 0.000000 -0.000001 -0.076522 0.053934 -1.193815
    27 3.317276 -0.000435 0.681052 0.033407 -0.033445 -1.505020
    28 1.605515 0.000000 0.000001 0.000003 0.146269 -0.920409
    29 1.016602 0.000002 0.000000 0.007898 -0.010732 -0.956320
    30 3.508652 0.020010 -0.145877 -0.005992 -0.133614 -1.234191
    31 1.666992 0.000000 -0.000001 -0.000007 0.185484 -1.019205
    32 1.240234 0.000002 0.000000 0.000001 -0.000002 -1.190241
    33 3.414507 0.046399 -1.026586 0.054311 0.032675 -0.351195
    34 1.711614 0.000008 0.000011 0.000003 -0.028627 -0.762243
    35 1.005912 0.000002 0.000008 0.013139 -0.023004 -0.844268
    36 0.036468 -0.742656 -0.720661 1.228093 0.411929 -0.603152
    37 2.512458 -0.000006 -0.000006 -0.000002 -0.000001 0.359147
    38 1.272461 0.359375 -0.203003 0.053140 0.032129 0.989828
    39 -4.488842 -17.949821 -10.918180 1.483869 -0.225690 -2.984733
    40 0.000423 4.840469 3.496472 0.000019 -0.000028 0.000009
    41 -0.003482 2.654883 -0.999599 0.000000 0.000000 0.000000
    42 0.000423 4.841991 5.250430 0.000000 0.000000 0.000000
    43 -0.995792 3.669771 -5.512417 0.000000 0.000000 0.000000
  time 16
    0 0.500000 -0.663086 -9.140625 -1.570760 -1.391893 -1.570827
    1 2.033348 1.000767 1.937660 3.099206 -0.162014 1.679995
    2 6.028145 0.000003 0.000002 -2.602546 0.165801 -0.548553
    3 11.657395 0.003988 -0.000005 -0.292103 0.247614 -2.164245
    4 11.407451 -0.000089 0.027319 0.710834 -0.758739 1.438937
    5 3.144836 -0.068197 -1.551361 0.073532 -0.195727 -1.651072
    6 1.324282 -0.000008 0.000005 0.000000 -0.023505 -1.272272
    7 0.819211 -0.000004 0.000004 0.000001 -0.000003 -1.109376
    8 3.602473 0.042847 -0.755673 0.042107 -0.135450 -1.820921
    9 1.609408 0.000006 -0.000007 -0.000002 0.003434 -0.332296
    10 0.993191 -0.000006 0.000001 0.003644 0.010024 -0.920181
    11 3.707901 0.132908 0.056432 0.009776 -0.105777 -1.819506
    12 1.684422 -0.000010 0.000009 0.000002 -0.003175 -0.356080
    13 1.252153 -0.000006 0.000003 -0.007874 0.008101 -1.008759
    14 3.543438 0.229235 0.930110 -0.010253 -0.116025 -1.530324
    15 1.719433 0.000002 -0.000005 -0.000004 0.000016 -1.029342
    16 1.005923 -0.000006 0.000003 0.000005 0.000018 -0.520938
    17 0.220084 -0.688784 0.352479 -1.629427 -0.697858 -0.161884
    18 2.633559 0.000000 -0.000008 -0.000002 -0.018529 0.805052
    19 1.308566 0.000000 -0.000002 -0.111599 -0.128643 1.128310
    20 2.033356 1.000772 -1.937610 -0.128175 0.172989 -2.038335
    21 6.028141 0.000000 -0.000002 -0.772632 0.841224 -2.459772
    22 11.688648 0.000000 -0.000001 0.024974 -0.036373 -1.185551
    23 11.481705 -0.000001 0.007805 -0.826643 -0.117413 0.453183
    24 2.859646 -0.030979 1.454837 0.047468 0.041404 -1.568747
    25 1.284180 -0.000004 -0.000003 0.000008 0.076727 -1.212138
    26 0.838746 0.000000 -0.000001 -0.076522 0.053934 -1.193815
    27 3.317276 -0.000435 0.677145 0.033407 -0.033445 -1.505020
    28 1.605515 0.000000 0.000001 0.000003 0.146269 -0.920409
    29 1.016602 0.000002 0.000000 0.007898 -0.010732 -0.956320
    30 3.512558 0.020010 -0.141971 -0.005992 -0.133614 -1.234191
    31 1.666992 0.000000 -0.000001 -0.000007 0.185484 -1.019205
    32 1.240234 0.000002 0.000000 0.000001 -0.000002 -1.190241
    33 3.414507 0.046399 -1.026586 0.054298 0.032675 -0.351195
    34 1.711614 0.000008 0.000011 0.000003 -0.028627 -0.762243
    35 1.005912 0.000002 0.000008 0.013139 -0.023004 -0.844231
    36 0.036468 -0.742656 -0.720661 1.228093 0.411929 -0.603152
    37 2.512458 -0.000006 -0.000006 -0.000002 -0.000001 0.359159
    38 1.272461 0.359375 -0.203003 0.053140 0.032129 0.989828
    39 -4.441966 -17.676375 -10.722862 1.459965 -0.206022 -2.960012
    40 0.000423 4.840469 3.496472 0.000019 -0.000028 -0.000078
    41 0.000424 2.658789 -0.999599 0.000000 0.000000 0.000000
    42 0.000423 4.841991 5.246524 0.000000 0.000000 0.000000
    43 -0.995792 3.669771 -5.512417 0.000000 0.000000 0.000000
  time 17
    0 0.500000 -0.663086 -9.140625 -1.570760 -1.391893 -1.570827
    1 2.033348 1.000767 1.937660 3.099206 -0.162014 1.679995
    2 6.028145 0.000003 0.000002 -2.608285 0.187757 -0.560479
    3 11.657395 0.003988 -0.000005 -0.290414 0.248728 -2.157480
    4 11.407451 -0.007902 0.027319 0.779339 -0.882563 1.394745
    5 3.144836 -0.068197 -1.551361 0.071810 -0.197429 -1.612590
    6 1.324282 -0.000008 0.000005 0.000000 -0.028718 -1.240595
    7 0.815305 -0.000004 0.000004 0.000001 -0.000003 -1.089320
    8 3.602473 0.042847 -0.755673 0.036258 -0.137679 -1.780896
    9 1.609408 0.000006 -0.000007 -0.000002 0.003254 -0.328192
    10 0.993191 -0.000006 0.000001 0.003632 0.009712 -0.902040
    11 3.707901 0.132908 0.056432 0.004563 -0.106592 -1.780642
    12 1.684422 -0.000010 0.000009 0.000002 -0.003007 -0.350091
    13 1.252153 -0.000006 0.000003 -0.007442 0.007837 -0.988393
    14 3.543438 0.229235 0.926204 -0.013914 -0.115649 -1.498719
    15 1.719433 0.000002 -0.000005 -0.000004 0.000016 -1.007699
    16 1.005923 -0.000006 0.000003 0.000005 0.000018 -0.513036
    17 0.220084 -0.688784 0.352479 -1.674390 -0.698221 -0.091662
    18 2.633559 0.000000 -0.000008 -0.000002 -0.017079 0.793928
    19 1.308566 0.000000 -0.000002 -0.107800 -0.126798 1.108235
    20 2.033356 1.000772 -1.937610 -0.128175 0.172989 -2.038335
    21 6.028141 0.000000 -0.000002 -0.768414 0.851394 -2.459403
    22 11.684742 0.000000 -0.000001 0.025777 -0.036673 -1.206831
    23 11.481705 -0.000001 0.011711 -0.829259 -0.163709 0.470073
    24 2.859646 -0.030979 1.458743 0.047253 0.041404 -1.569018
    25 1.284180 -0.000004 -0.000003 0.000008 0.076727 -1.212138
    26 0.838746 0.000000 -0.000001 -0.076522 0.053934 -1.193815
    27 3.317276 -0.000435 0.681052 0.033191 -0.033433 -1.505275
    28 1.605515 0.000000 0.000001 0.000003 0.146269 -0.920409
    29 1.016602 0.000002 0.000000 0.007898 -0.010732 -0.956320
    30 3.508652 0.016104 -0.141971 -0.006195 -0.133554 -1.234429
    31 1.666992 0.000000 -0.000001 -0.000007 0.185484 -1.019205
    32 1.240234 0.000002 0.000000 0.000001 -0.000002 -1.190241
    33 3.410600 0.046399 -1.026586 0.054222 0.032878 -0.351475
    34 1.711614 0.000008 0.000011 0.000003 -0.028627 -0.762243
    35 1.005912 0.000002 0.000008 0.013151 -0.023004 -0.844231
    36 0.040374 -0.742656 -0.720661 1.227950 0.412101 -0.603488
    37 2.512458 -0.000006 -0.000006 -0.000002 -0.000001 0.359159
    38 1.272461 0.359375 -0.203003 0.053140 0.032129 0.989828
    39 -4.410715 -17.449805 -10.644734 1.425649 -0.204175 -2.932464
    40 0.000423 4.848282 3.492566 0.000019 -0.000028 -0.000078
    41 0.000424 2.658789 -0.999599 0.000000 0.000000 0.000000
    42 0.000423 4.841991 5.246524 0.000000 0.000000 0.000000
    43 -0.995792 3.669771 -5.512417 0.000000 0.000000 0.000000
  time 18
    0 0.500000 -0.663086 -9.140625 -1.570760 -1.391893 -1.570827
    1 2.033348 1.000767 1.937660 3.099206 -0.162014 1.679995
    2 6.028145 0.000003 0.000002 -2.616702 0.212492 -0.571737
    3 11.661302 0.003988 -0.000005 -0.284409 0.252575 -2.133729
    4 11.411358 -0.019621 0.023413 0.836738 -0.961842 1.348686
    5 3.144836 -0.068197 -1.551361 0.069315 -0.199251 -1.561743
    6 1.324282 -0.000008 0.000005 0.000000 -0.035310 -1.198745
    7 0.819211 -0.000004 0.000004 0.000001 -0.000003 -1.062839
    8 3.602473 0.042847 -0.755673 0.028468 -0.140244 -1.728083
    9 1.609408 0.000006 -0.000007 -0.000002 0.002978 -0.322753
    10 0.993191 -0.000006 0.000001 0.003596 0.009293 -0.878058
    11 3.707901 0.132908 0.056432 -0.002317 -0.107383 -1.729294
    12 1.684422 -0.000010 0.000009 0.000002 -0.002803 -0.342196
    13 1.252153 -0.000006 0.000003 -0.006927 0.007477 -0.961562
    14 3.543438 0.229235 0.926204 -0.018705 -0.114977 -1.457088
    15 1.719433 0.000002 -0.000005 -0.000004 0.000016 -0.979084
    16 1.005923 -0.000006 0.000003 0.000005 0.000018 -0.502600
    17 0.220084 -0.688784 0.352479 -1.682246 -0.708968 -0.079265
    18 2.633559 0.000000 -0.000008 -0.000002 -0.015102 0.779200
    19 1.308566 0.000000 -0.000002 -0.102850 -0.124257 1.081690
    20 2.033356 1.000772 -1.937610 -0.128175 0.172989 -2.038335
    21 6.028141 0.000000 -0.000002 -0.769564 0.850547 -2.461062
    22 11.680835 0.000000 -0.000001 0.025801 -0.036685 -1.207503
    23 11.481705 -0.000001 0.011711 -0.852176 -0.187567 0.476907
    24 2.859646 -0.030979 1.458743 0.047468 0.041404 -1.568747
    25 1.284180 -0.000004 -0.000003 0.000008 0.076727 -1.212138
    26 0.838746 0.000000 -0.000001 -0.076522 0.053934 -1.193815
    27 3.317276 -0.000435 0.681052 0.033407 -0.033445 -1.505020
    28 1.605515 0.000000 0.000001 0.000003 0.146269 -0.920409
    29 1.016602 0.000002 0.000000 0.007898 -0.010732 -0.956320
    30 3.512558 0.020010 -0.141971 -0.005992 -0.133614 -1.234191
    31 1.666992 0.000000 -0.000001 -0.000007 0.185484 -1.019205
    32 1.240234 0.000002 0.000000 0.000001 -0.000002 -1.190241
    33 3.414507 0.046399 -1.026586 0.054298 0.032675 -0.351195
    34 1.711614 0.000008 0.000011 0.000003 -0.028627 -0.762243
    35 1.005912 0.000002 0.000008 0.013151 -0.023004 -0.844231
    36 0.036468 -0.742656 -0.720661 1.228093 0.411929 -0.603152
    37 2.512458 -0.000006 -0.000006 -0.000002 -0.000001 0.359159
    38 1.272461 0.359375 -0.203003 0.053140 0.032129 0.989828
    39 -4.398996 -17.410742 -10.699424 1.399912 -0.221808 -2.915699
    40 0.000423 4.844375 3.496472 0.000019 -0.000028 -0.000078
    41 0.000424 2.658789 -0.995693 0.000000 0.000000 0.000000
    42 0.000423 4.841991 5.250430 0.000000 0.000000 0.000000
    43 -0.995792 3.669771 -5.512417 0.000000 0.000000 0.000000
  time 19
    0 0.500000 -0.663086 -9.140625 -1.570760 -1.391893 -1.570827
    1 2.033348 1.000767 1.937660 3.099206 -0.162014 1.679995
    2 6.028145 0.000003 0.000002 -2.637554 0.259419 -0.595874
    3 11.661302 0.003988 -0.000005 -0.281329 0.254493 -2.121670
    4 11.411358 -0.019621 0.023413 0.843266 -0.988918 1.332365
    5 3.144836 -0.068197 -1.551361 0.059195 -0.198604 -1.382982
    6 1.324282 -0.000008 0.000005 0.000000 -0.051069 -1.050831
    7 0.819211 -0.000004 0.000004 0.000001 -0.000003 -0.969707
    8 3.602473 0.042847 -0.755673 0.000544 -0.145613 -1.542113
    9 1.609408 0.000006 -0.000007 -0.000002 0.001948 -0.303762
    10 0.993191 -0.000006 0.000001 0.003357 0.007855 -0.793811
    11 3.707901 0.132908 0.052525 -0.026334 -0.108198 -1.548870
    12 1.684422 -0.000010 0.000009 0.000002 -0.002564 -0.314264
    13 1.252153 -0.000006 0.000003 -0.005189 0.005991 -0.867090
    14 3.543438 0.229235 0.926204 -0.035233 -0.111043 -1.310775
    15 1.719433 0.000002 -0.000005 -0.000004 0.000016 -0.878492
    16 1.005923 -0.000006 0.000003 0.000005 0.000018 -0.465857
    17 0.220084 -0.688784 0.352479 -1.608581 -0.739047 -0.188505
    18 2.633559 0.000000 -0.000008 -0.000002 -0.006844 0.727562
    19 1.308566 0.000000 -0.000002 -0.086503 -0.113351 0.988801
    20 2.033356 1.000772 -1.937610 -0.128175 0.172989 -2.038335
    21 6.028141 0.000000 -0.000002 -0.774741 0.842118 -2.464934
    22 11.680835 0.000000 -0.000001 0.025273 -0.036493 -1.193503
    23 11.481705 -0.000001 0.011711 -0.884434 -0.190142 0.476463
    24 2.859646 -0.030979 1.454837 0.047468 0.041404 -1.568747
    25 1.284180 -0.000004 -0.000003 0.000008 0.076727 -1.212138
    26 0.838746 0.000000 -0.000001 -0.076522 0.053934 -1.193815
    27 3.317276 -0.000435 0.677145 0.033407 -0.033445 -1.505020
    28 1.605515 0.000000 0.000001 0.000003 0.146269 -0.920409
    29 1.016602 0.000002 0.000000 0.007898 -0.010732 -0.956320
    30 3.512558 0.020010 -0.145877 -0.005992 -0.133614 -1.234191
    31 1.666992 0.000000 -0.000001 -0.000007 0.185484 -1.019205
    32 1.240234 0.000002 0.000000 0.000001 -0.000002 -1.190241
    33 3.414507 0.046399 -1.030492 0.054298 0.032675 -0.351195
    34 1.715521 0.000008 0.000011 0.000003 -0.028627 -0.762243
    35 1.005912 0.000002 0.000008 0.013151 -0.023004 -0.844268
    36 0.036468 -0.742656 -0.720661 1.228093 0.411929 -0.603152
    37 2.512458 -0.000006 -0.000006 -0.000002 -0.000001 0.359159
    38 1.272461 0.359375 -0.203003 0.053140 0.032129 0.989828
    39 -4.398996 -17.492775 -10.804896 1.386090 -0.250267 -2.910176
    40 0.000423 4.840469 3.492566 0.000019 0.000011 0.000096
    41 -0.003482 2.658789 -0.999599 0.000000 0.000000 0.000000
    42 0.000423 4.841991 5.246524 0.000000 0.000000 0.000000
    43 -0.995792 3.669771 -5.512417 0.000000 0.000000 0.000000
  time 20
    0 0.500000 -0.663086 -9.140625 -1.570760 -1.391893 -1.570827
    1 2.033348 1.000767 1.937660 3.099206 -0.162014 1.679995
    2 6.028145 0.000003 0.000002 -2.657640 0.300975 -0.619057
    3 11.661302 0.003988 -0.000005 -0.279987 0.255296 -2.116449
    4 11.407451 -0.019621 0.023413 0.834195 -0.990969 1.319156
    5 3.144836 -0.068197 -1.551361 0.045315 -0.194553 -1.179239
    6 1.324282 -0.000008 0.000005 0.000000 -0.067920 -0.882472
    7 0.819211 -0.000004 0.000004 0.000001 -0.000003 -0.863723
    8 3.602473 0.042847 -0.755673 -0.031407 -0.145061 -1.330176
    9 1.609408 0.000006 -0.000007 -0.000002 0.000761 -0.282146
    10 0.993191 -0.000006 0.000001 0.003033 0.006189 -0.697849
    11 3.707901 0.132908 0.056432 -0.052784 -0.103752 -1.343479
    12 1.684422 -0.000010 0.000009 0.000002 -0.002336 -0.282576
    13 1.252153 -0.000006 0.000003 -0.003272 0.004266 -0.759531
    14 3.543438 0.229235 0.922298 -0.053226 -0.103389 -1.144347
    15 1.719433 0.000002 -0.000005 -0.000004 0.000016 -0.763956
    16 1.005923 -0.000006 0.000003 0.000005 0.000018 -0.424112
    17 0.220084 -0.688784 0.356385 -1.463857 -0.767261 -0.391276
    18 2.633559 0.000000 -0.000008 -0.000002 0.002612 0.668759
    19 1.308566 0.000000 -0.000002 -0.068059 -0.100707 0.883088
    20 2.033356 1.000772 -1.937610 -0.128175 0.172989 -2.038335
    21 6.028141 0.000000 -0.000002 -0.782219 0.831618 -2.472216
    22 11.688648 0.000000 -0.000001 0.024483 -0.036206 -1.172596
    23 11.481705 -0.000001 0.011711 -0.914761 -0.188988 0.472824
    24 2.859646 -0.030979 1.454837 0.047468 0.041404 -1.568747
    25 1.284180 -0.000004 -0.000003 0.000008 0.076727 -1.212138
    26 0.838746 0.000000 -0.000001 -0.076522 0.053922 -1.193873
    27 3.317276 -0.000435 0.681052 0.033407 -0.033445 -1.505020
    28 1.605515 0.000000 0.000001 0.000003 0.146269 -0.920409
    29 1.016602 0.000002 0.000000 0.007898 -0.010732 -0.956320
    30 3.508652 0.020010 -0.141971 -0.005992 -0.133614 -1.234191
    31 1.666992 0.000000 -0.000001 -0.000007 0.185484 -1.019205
    32 1.240234 0.000002 0.000000 0.000001 -0.000002 -1.190241
    33 3.414507 0.046399 -1.026586 0.054298 0.032675 -0.351195
    34 1.711614 0.000008 0.000011 0.000003 -0.028627 -0.762243
    35 1.005912 0.000002 0.000008 0.013139 -0.023004 -0.844231
    36 0.036468 -0.742656 -0.720661 1.228093 0.411929 -0.603152
    37 2.512458 -0.000006 -0.000006 -0.000002 -0.000001 0.359159
    38 1.272461 0.359375 -0.203003 0.053140 0.032129 0.989828
    39 -4.414621 -17.629498 -10.902555 1.375532 -0.277358 -2.907940
    40 0.000423 4.844375 3.496472 0.000019 -0.000028 -0.000078
    41 0.000424 2.658789 -0.999599 0.000000 0.000000 0.000000
    42 0.000423 4.841991 5.250430 0.000000 0.000000 0.000000
    43 -0.995792 3.669771 -5.512417 0.000000 0.000000 0.000000
  time 21
    0 0.500000 -0.663086 -9.140625 -1.570760 -1.391893 -1.570827
    1 2.033348 1.000767 1.937660 3.099206 -0.162014 1.679995
    2 6.028145 0.000003 0.000002 -2.651327 0.310304 -0.628025
    3 11.661302 0.003988 -0.000005 -0.278237 0.256326 -2.109611
    4 11.415264 -0.019621 0.023413 0.903039 -0.945877 1.206844
    5 3.144836 -0.068197 -1.551361 0.028869 -0.182556 -0.963860
    6 1.324282 -0.000008 0.000005 0.000000 -0.074284 -0.704438
    7 0.819211 -0.000004 0.000004 0.000001 -0.000003 -0.751227
    8 3.602473 0.042847 -0.755673 -0.063489 -0.136720 -1.105614
    9 1.609408 0.000006 -0.000007 -0.000002 -0.000366 -0.259147
    10 0.993191 -0.000006 0.000001 0.002530 0.004511 -0.596076
    11 3.707901 0.132908 0.052525 -0.078143 -0.093996 -1.125840
    12 1.684422 -0.000010 0.000009 0.000002 -0.002456 -0.248927
    13 1.252153 -0.000006 0.000003 -0.001486 0.002264 -0.645429
    14 3.543438 0.229235 0.922298 -0.070507 -0.092500 -0.968117
    15 1.719433 0.000002 -0.000005 -0.000004 0.000016 -0.642448
    16 1.005923 -0.000006 0.000003 0.000005 0.000018 -0.379767
    17 0.220084 -0.688784 0.352479 -1.326010 -0.780046 -0.572486
    18 2.633559 0.000000 -0.000008 -0.000002 0.013434 0.606241
    19 1.308566 0.000000 -0.000002 -0.050693 -0.085283 0.771410
    20 2.033356 1.000772 -1.937610 -0.128175 0.172989 -2.038335
    21 6.028141 0.000000 -0.000002 -0.791709 0.823943 -2.486411
    22 11.688648 0.000000 -0.000001 0.023727 -0.035918 -1.152324
    23 11.481705 -0.000001 0.011711 -0.919058 -0.184194 0.468210
    24 2.859646 -0.030979 1.454837 0.047468 0.041404 -1.568747
    25 1.284180 -0.000004 -0.000003 0.000008 0.076727 -1.212138
    26 0.838746 0.000000 -0.000001 -0.076522 0.053934 -1.193815
    27 3.317276 -0.000435 0.681052 0.033407 -0.033445 -1.505020
    28 1.605515 0.000000 0.000001 0.000003 0.146269 -0.920409
    29 1.016602 0.000002 0.000000 0.007898 -0.010732 -0.956320
    30 3.512558 0.020010 -0.145877 -0.005992 -0.133614 -1.234191
    31 1.666992 0.000000 -0.000001 -0.000007 0.185484 -1.019205
    32 1.240234 0.000002 0.000000 0.000001 -0.000002 -1.190241
    33 3.414507 0.046399 -1.030492 0.054311 0.032675 -0.351195
    34 1.711614 0.000008 0.000011 0.000003 -0.028627 -0.762243
    35 1.005912 0.000002 0.000008 0.013139 -0.023004 -0.844231
    36 0.036468 -0.742656 -0.720661 1.228093 0.411929 -0.603152
    37 2.512458 -0.000006 -0.000006 -0.000002 -0.000001 0.359159
    38 1.272461 0.359375 -0.203003 0.053140 0.032129 0.989828
    39 -4.445872 -17.777940 -10.847866 1.378611 -0.282575 -2.915304
    40 0.000423 4.844375 3.496472 0.000019 -0.000028 0.000096
    41 0.000424 2.658789 -0.999599 0.000000 0.000000 0.000000
    42 0.000423 4.841991 5.246524 0.000000 0.000000 0.000000
    43 -0.995792 3.669771 -5.512417 0.000000 0.000000 0.000000
  time 22
    0 0.500000 -0.663086 -9.140625 -1.570760 -1.391893 -1.570827
    1 2.033348 1.000767 1.937660 3.099206 -0.162014 1.679995
    2 6.028145 0.000003 0.000002 -2.670074 0.338385 -0.641382
    3 11.665208 0.000081 -0.000005 -0.273887 0.258855 -2.092845
    4 11.426983 -0.003995 0.023413 0.994606 -0.769474 1.012304
    5 3.144836 -0.068197 -1.551361 0.006608 -0.152919 -0.694813
    6 1.324282 -0.000008 0.000005 0.000000 -0.059075 -0.481009
    7 0.819211 -0.000004 0.000004 0.000001 -0.000003 -0.609282
    8 3.602473 0.042847 -0.755673 -0.099180 -0.115064 -0.823487
    9 1.609408 0.000006 -0.000007 -0.000002 -0.001696 -0.230232
    10 0.993191 -0.000006 0.000001 0.001487 0.002558 -0.467615
    11 3.707901 0.132908 0.052525 -0.104713 -0.075408 -0.851984
    12 1.684422 -0.000010 0.000009 0.000002 -0.003355 -0.206567
    13 1.252153 -0.000006 0.000003 0.000156 -0.000696 -0.501436
    14 3.543438 0.229235 0.930110 -0.089127 -0.075098 -0.746340
    15 1.719433 0.000002 -0.000005 -0.000004 0.000016 -0.489070
    16 1.005923 -0.000006 0.000003 0.000005 0.000018 -0.323786
    17 0.220084 -0.688784 0.356385 -1.218981 -0.797600 -0.697778
    18 2.633559 0.000000 -0.000008 -0.000002 0.028570 0.527049
    19 1.308566 0.000000 -0.000002 -0.033148 -0.061793 0.631394
    20 2.033356 1.000772 -1.937610 -0.128175 0.172989 -2.038335
    21 6.028141 0.000000 -0.000002 -0.802062 0.818481 -2.504661
    22 11.684742 0.000000 -0.000001 0.023032 -0.035618 -1.133546
    23 11.481705 -0.000001 0.011711 -0.899629 -0.175294 0.462826
    24 2.859646 -0.030979 1.454837 0.047468 0.041404 -1.568747
    25 1.284180 -0.000004 -0.000003 0.000008 0.076727 -1.212138
    26 0.838746 0.000000 -0.000001 -0.076522 0.053934 -1.193815
    27 3.317276 -0.000435 0.681052 0.033407 -0.033445 -1.505020
    28 1.605515 0.000000 0.000001 0.000003 0.146269 -0.920450
    29 1.016602 0.000002 0.000000 0.007898 -0.010732 -0.956320
    30 3.508652 0.020010 -0.141971 -0.005992 -0.133602 -1.234191
    31 1.666992 0.000000 -0.000001 -0.000007 0.185484 -1.019205
    32 1.240234 0.000002 0.000000 0.000001 -0.000002 -1.190241
    33 3.414507 0.046399 -1.026586 0.054311 0.032675 -0.351195
    34 1.711614 0.000008 0.000011 0.000003 -0.028627 -0.762243
    35 1.005912 0.000002 0.000008 0.013139 -0.023004 -0.844231
    36 0.036468 -0.742656 -0.720661 1.228093 0.411929 -0.603152
    37 2.512458 -0.000006 -0.000006 -0.000002 -0.000001 0.359159
    38 1.272461 0.359375 -0.203003 0.053140 0.032129 0.989828
    39 -4.477123 -17.918570 -10.660360 1.393826 -0.267233 -2.930820
    40 0.000423 4.840469 3.496472 0.000019 -0.000028 0.000096
    41 -0.003482 2.654883 -0.999599 0.000000 0.000000 0.000000
    42 0.000423 4.841991 5.250430 0.000000 0.000000 0.000000
    43 -0.995792 3.669771 -5.512417 0.000000 0.000000 0.000000
  time 23
    0 0.500000 -0.663086 -9.140625 -1.570760 -1.391893 -1.570827
    1 2.033348 1.000767 1.937660 3.099206 -0.162014 1.679995
    2 6.028145 0.000003 0.000002 -2.677918 0.347902 -0.642241
    3 11.665208 0.000081 -0.000005 -0.265845 0.263254 -2.062330
    4 11.450421 0.003817 0.015600 1.049546 -0.504083 0.853656
    5 3.144836 -0.068197 -1.551361 -0.016865 -0.111116 -0.415919
    6 1.324282 -0.000008 0.000005 0.000000 -0.033404 -0.248037
    7 0.815305 -0.000004 0.000004 0.000001 -0.000003 -0.460882
    8 3.602473 0.042847 -0.755673 -0.128074 -0.081795 -0.530491
    9 1.609408 0.000006 -0.000007 -0.000002 -0.002990 -0.199837
    10 0.993191 -0.000006 0.000001 0.000265 0.000556 -0.333374
    11 3.707901 0.132908 0.052525 -0.124212 -0.049270 -0.566706
    12 1.684422 -0.000010 0.000009 0.000002 -0.004601 -0.162137
    13 1.252153 -0.000006 0.000003 0.001654 -0.003980 -0.350939
    14 3.543438 0.229235 0.930110 -0.103960 -0.052647 -0.515175
    15 1.719433 0.000002 -0.000005 -0.000004 0.000016 -0.328911
    16 1.005923 -0.000006 0.000003 0.000005 0.000018 -0.265338
    17 0.220084 -0.688784 0.352479 -1.123041 -0.815206 -0.799575
    18 2.633559 0.000000 -0.000008 -0.000002 0.045037 0.444163
    19 1.308566 0.000000 -0.000002 -0.016669 -0.035535 0.485454
    20 2.033356 1.000772 -1.937610 -0.128175 0.172989 -2.038335
    21 6.028141 0.000000 -0.000002 -0.811745 0.813820 -2.522267
    22 11.692554 0.000000 -0.000001 0.022373 -0.035391 -1.115887
    23 11.481705 -0.000001 0.011711 -0.874968 -0.163687 0.458034
    24 2.859646 -0.027073 1.458743 0.047118 0.041380 -1.569265
    25 1.284180 -0.000004 -0.000003 0.000008 0.076727 -1.212138
    26 0.838746 0.000000 -0.000001 -0.076522 0.053934 -1.193844
    27 3.321182 0.003471 0.681052 0.033059 -0.033445 -1.505487
    28 1.605515 0.000000 0.000001 0.000003 0.146269 -0.920409
    29 1.016602 0.000002 0.000000 0.007898 -0.010732 -0.956320
    30 3.508652 0.020010 -0.141971 -0.006315 -0.133518 -1.234627
    31 1.666992 0.000000 -0.000001 -0.000007 0.185484 -1.019205
    32 1.240234 0.000002 0.000000 0.000001 -0.000002 -1.190241
    33 3.414507 0.046399 -1.026586 0.054159 0.032998 -0.351685
    34 1.711614 0.000008 0.000011 0.000003 -0.028627 -0.762243
    35 1.005912 0.000002 0.000008 0.013151 -0.023004 -0.844231
    36 0.036468 -0.738750 -0.716755 1.227854 0.412201 -0.603727
    37 2.512458 -0.000006 -0.000006 -0.000002 -0.000001 0.359159
    38 1.272461 0.359375 -0.203003 0.053140 0.032129 0.989828
    39 -4.512280 -18.059199 -10.476761 1.412194 -0.247052 -2.948638
    40 0.000423 4.840469 3.496472 0.000019 -0.000028 -0.000078
    41 0.000424 2.658789 -0.995693 0.000000 0.000000 0.000000
    42 0.000423 4.841991 5.246524 0.000000 0.000000 0.000000
    43 -0.995792 3.669771 -5.512417 0.000000 0.000000 0.000000
  time 24
    0 0.500000 -0.663086 -9.140625 -1.570760 -1.391893 -1.570827
    1 2.033348 1.000767 1.937660 3.099206 -0.162014 1.679995
    2 6.028145 0.000003 0.000002 -2.633345 0.257063 -0.572309
    3 11.676927 0.000081 -0.000005 -0.227423 0.280296 -1.921810
    4 11.466047 0.011630 0.007787 1.084732 -0.341354 0.774125
    5 3.144836 -0.068197 -1.551361 -0.028883 -0.085817 -0.267884
    6 1.324282 -0.000008 0.000005 0.000000 -0.019071 -0.123549
    7 0.819211 -0.000004 0.000004 0.000001 -0.000003 -0.381610
    8 3.602473 0.042847 -0.759579 -0.139124 -0.060977 -0.374719
    9 1.605501 0.000006 -0.000007 -0.000002 -0.003685 -0.183661
    10 0.993191 -0.000006 0.000001 -0.000383 -0.000462 -0.261641
    11 3.707901 0.132908 0.052525 -0.130564 -0.033462 -0.414625
    12 1.684422 -0.000010 0.000009 0.000002 -0.005296 -0.138398
    13 1.252153 -0.000006 0.000003 0.002445 -0.005754 -0.270522
    14 3.543438 0.229235 0.926204 -0.109651 -0.039448 -0.391905
    15 1.719433 0.000002 -0.000005 -0.000004 0.000016 -0.243220
    16 1.005923 -0.000006 0.000003 0.000005 0.000018 -0.234096
    17 0.220084 -0.688784 0.356385 -1.072984 -0.823050 -0.850380
    18 2.633559 0.000000 -0.000008 -0.000002 0.053906 0.399890
    19 1.308566 0.000000 -0.000002 -0.007920 -0.021405 0.407455
    20 2.033356 1.000772 -1.937610 -0.128175 0.172989 -2.038335
    21 6.028141 0.000000 -0.000002 -0.820468 0.809488 -2.538398
    22 11.692554 0.000000 -0.000001 0.021726 -0.035043 -1.097930
    23 11.481705 -0.000001 0.011711 -0.846073 -0.149727 0.451023
    24 2.859646 -0.030979 1.458743 0.047468 0.041404 -1.568747
    25 1.284180 -0.000004 -0.000003 0.000008 0.076727 -1.212138
    26 0.838746 0.000000 -0.000001 -0.076522 0.053934 -1.193815
    27 3.317276 -0.000435 0.681052 0.033407 -0.033445 -1.505020
    28 1.605515 0.000000 0.000001 0.000003 0.146269 -0.920409
    29 1.016602 0.000002 0.000000 0.007898 -0.010732 -0.956320
    30 3.512558 0.020010 -0.141971 -0.005992 -0.133614 -1.234191
    31 1.666992 0.000000 -0.000001 -0.000007 0.185484 -1.019205
    32 1.240234 0.000002 0.000000 0.000001 -0.000002 -1.190241
    33 3.414507 0.046399 -1.026586 0.054298 0.032675 -0.351195
    34 1.715521 0.000008 0.000011 0.000003 -0.028627 -0.762243
    35 1.005912 0.000002 0.000008 0.013127 -0.023004 -0.844231
    36 0.036468 -0.742656 -0.720661 1.228093 0.411929 -0.603152
    37 2.512458 -0.000006 -0.000006 -0.000002 -0.000001 0.359159
    38 1.272461 0.359375 -0.203003 0.053140 0.032129 0.989828
    39 -4.555250 -18.195922 -10.281442 1.432872 -0.222646 -2.967967
    40 0.000423 4.840469 3.496472 0.000019 -0.000028 0.000096
    41 -0.003482 2.658789 -0.999599 0.000000 0.000000 0.000000
    42 0.000423 4.841991 5.246524 0.000000 0.000000 0.000000
    43 -0.995792 3.669771 -5.512417 0.000000 0.000000 0.000000
  time 25
    0 0.500000 -0.663086 -9.140625 -1.570760 -1.391893 -1.570827
    1 2.033348 1.000767 1.937660 3.099206 -0.162014 1.679995
    2 6.028145 0.000003 0.000002 -2.636215 0.238123 -0.552465
    3 11.680833 0.000081 -0.000005 -0.217595 0.283651 -1.887103
    4 11.473860 0.011630 0.003881 1.112880 -0.280707 0.748329
    5 3.144836 -0.068197 -1.551361 -0.027864 -0.089844 -0.280753
    6 1.324282 -0.000008 0.000005 0.000000 -0.024967 -0.134351
    7 0.819211 -0.000004 0.000004 0.000001 -0.000003 -0.388756
    8 3.602473 0.042847 -0.759579 -0.138273 -0.063350 -0.388712
    9 1.609408 0.000006 -0.000007 -0.000002 -0.003685 -0.185140
    10 0.993191 -0.000006 0.000001 -0.000239 -0.000403 -0.268128
    11 3.707901 0.132908 0.052525 -0.130108 -0.034888 -0.428404
    12 1.684422 -0.000010 0.000009 0.000002 -0.005104 -0.140576
    13 1.252153 -0.000006 0.000003 0.002505 -0.005514 -0.277801
    14 3.543438 0.229235 0.926204 -0.109212 -0.040670 -0.403045
    15 1.719433 0.000002 -0.000005 -0.000004 0.000016 -0.250996
    16 1.005923 -0.000006 0.000003 0.000005 0.000018 -0.236930
    17 0.220084 -0.688784 0.352479 -1.078666 -0.822307 -0.844632
    18 2.633559 0.000000 -0.000008 -0.000002 0.052899 0.403981
    19 1.308566 0.000000 -0.000002 -0.007656 -0.023491 0.414315
    20 2.033356 1.000772 -1.937610 -0.128175 0.172989 -2.038335
    21 6.028141 0.000000 -0.000002 -0.828329 0.805956 -2.552869
    22 11.692554 0.000000 -0.000001 0.021139 -0.034755 -1.081839
    23 11.481705 -0.000001 0.007805 -0.814002 -0.133570 0.445521
    24 2.859646 -0.030979 1.458743 0.047468 0.041404 -1.568747
    25 1.284180 -0.000004 -0.000003 0.000008 0.076727 -1.212138
    26 0.838746 0.000000 -0.000001 -0.076522 0.053934 -1.193815
    27 3.317276 -0.000435 0.677145 0.033407 -0.033445 -1.505020
    28 1.605515 0.000000 0.000001 0.000003 0.146269 -0.920409
    29 1.016602 0.000002 0.000000 0.007898 -0.010732 -0.956320
    30 3.512558 0.020010 -0.145877 -0.005992 -0.133614 -1.234191
    31 1.666992 0.000000 -0.000001 -0.000007 0.185484 -1.019205
    32 1.240234 0.000002 0.000000 0.000001 -0.000002 -1.190241
    33 3.414507 0.046399 -1.026586 0.054311 0.032675 -0.351195
    34 1.711614 0.000008 0.000011 0.000003 -0.028627 -0.762243
    35 1.005912 0.000002 0.000008 0.013139 -0.023004 -0.844231
    36 0.040374 -0.742656 -0.720661 1.228093 0.411929 -0.603164
    37 2.512458 -0.000006 -0.000006 -0.000002 -0.000001 0.359159
    38 1.272461 0.359375 -0.203003 0.053140 0.032129 0.989828
    39 -4.602127 -18.332645 -10.101749 1.454979 -0.194871 -2.988086
    40 0.000423 4.844375 3.496472 0.000019 0.000011 0.000096
    41 -0.003482 2.658789 -0.999599 0.000000 0.000000 0.000000
    42 0.000423 4.845897 5.250430 0.000000 0.000000 0.000000
    43 -0.995792 3.669771 -5.512417 0.000000 0.000000 0.000000
  time 26
    0 0.500000 -0.663086 -9.140625 -1.570760 -1.391893 -1.570827
    1 2.033348 1.000767 1.937660 3.099206 -0.162014 1.679995
    2 6.028145 0.000003 0.000002 -2.635258 0.204341 -0.524416
    3 11.680833 0.000081 -0.000005 -0.208187 0.286552 -1.854160
    4 11.477766 0.011630 0.003881 1.152983 -0.281835 0.730555
    5 3.144836 -0.068197 -1.551361 -0.020221 -0.108204 -0.375196
    6 1.324282 -0.000008 0.000005 0.000000 -0.039936 -0.213643
    7 0.819211 -0.000004 0.000004 0.000001 -0.000003 -0.439645
    8 3.602473 0.042847 -0.759579 -0.131370 -0.077372 -0.488546
    9 1.609408 0.000006 -0.000007 -0.000002 -0.003338 -0.195542
    10 0.993191 -0.000006 0.000001 0.000265 0.000185 -0.314157
    11 3.707901 0.132908 0.052525 -0.126201 -0.045075 -0.525957
    12 1.684422 -0.000010 0.000009 0.000002 -0.004505 -0.155767
    13 1.252153 -0.000006 0.000003 0.002145 -0.004280 -0.329373
    14 3.543438 0.229235 0.930110 -0.105655 -0.049169 -0.482137
    15 1.719433 0.000002 -0.000005 -0.000004 0.000016 -0.305966
    16 1.005923 -0.000006 0.000003 0.000005 0.000018 -0.256902
    17 0.220084 -0.688784 0.352479 -1.116340 -0.818989 -0.804978
    18 2.633559 0.000000 -0.000008 -0.000002 0.046979 0.432531
    19 1.308566 0.000000 -0.000002 -0.011935 -0.033558 0.464093
    20 2.033356 1.000772 -1.937610 -0.128175 0.172989 -2.038335
    21 6.028141 0.000000 -0.000002 -0.835040 0.802425 -2.565313
    22 11.692554 0.000000 -0.000001 0.020576 -0.034480 -1.066047
    23 11.481705 -0.000001 0.007805 -0.779751 -0.115261 0.440078
    24 2.859646 -0.030979 1.454837 0.047468 0.041404 -1.568747
    25 1.284180 -0.000004 -0.000003 0.000008 0.076727 -1.212138
    26 0.838746 0.000000 -0.000001 -0.076522 0.053934 -1.193815
    27 3.317276 -0.000435 0.681052 0.033407 -0.033445 -1.505020
    28 1.605515 0.000000 0.000001 0.000003 0.146269 -0.920409
    29 1.016602 0.000002 0.000000 0.007898 -0.010732 -0.956320
    30 3.512558 0.020010 -0.141971 -0.005992 -0.133614 -1.234191
    31 1.666992 0.000000 -0.000001 -0.000007 0.185484 -1.019205
    32 1.240234 0.000002 0.000000 0.000001 -0.000002 -1.190241
    33 3.414507 0.046399 -1.026586 0.054311 0.032675 -0.351195
    34 1.711614 0.000008 0.000011 0.000003 -0.028627 -0.762243
    35 1.005912 0.000002 0.000008 0.013139 -0.023004 -0.844231
    36 0.036468 -0.742656 -0.720661 1.228093 0.411929 -0.603152
    37 2.512458 -0.000006 -0.000006 -0.000002 -0.000001 0.359159
    38 1.272461 0.359375 -0.203003 0.053140 0.032129 0.989828
    39 -4.652910 -18.457649 -9.925962 1.477747 -0.164428 -3.008336
    40 0.000423 4.840469 3.496472 0.000019 -0.000028 0.000096
    41 -0.003482 2.658789 -0.995693 0.000000 0.000000 0.000000
    42 0.000423 4.841991 5.246524 0.000000 0.000000 0.000000
    43 -0.995792 3.669771 -5.512417 0.000000 0.000000 0.000000
  time 27
    0 0.500000 -0.663086 -9.140625 -1.570760 -1.391893 -1.570827
    1 2.033348 1.000767 1.937660 3.099206 -0.162014 1.679995
    2 6.028145 0.000003 0.000002 -2.630763 0.157838 -0.490070
    3 11.684740 0.000081 -0.000005 -0.198084 0.289284 -1.819159
    4 11.477766 0.003817 -0.000025 1.205549 -0.307099 0.713958
    5 3.144836 -0.068197 -1.555268 -0.007729 -0.132641 -0.525094
    6 1.324282 -0.000008 0.000005 0.000000 -0.055827 -0.339059
    7 0.819211 -0.000004 0.000004 0.000001 -0.000003 -0.519694
    8 3.602473 0.042847 -0.759579 -0.117840 -0.097219 -0.646336
    9 1.609408 0.000006 -0.000007 -0.000002 -0.002679 -0.211909
    10 0.993191 -0.000006 0.000001 0.000972 0.001227 -0.386627
    11 3.707901 0.132908 0.052525 -0.117608 -0.060283 -0.679647
    12 1.684422 -0.000010 0.000009 0.000002 -0.003786 -0.179724
    13 1.252153 -0.000006 0.000003 0.001414 -0.002470 -0.410565
    14 3.543438 0.229235 0.926204 -0.098709 -0.061952 -0.606711
    15 1.719433 0.000002 -0.000005 -0.000004 0.000016 -0.392347
    16 1.005923 -0.000006 0.000003 0.000005 0.000018 -0.288477
    17 0.220084 -0.688784 0.352479 -1.173724 -0.812113 -0.743445
    18 2.633559 0.000000 -0.000008 -0.000002 0.038050 0.477335
    19 1.308566 0.000000 -0.000002 -0.020240 -0.048095 0.542754
    20 2.033356 1.000772 -1.937610 -0.128175 0.172989 -2.038335
    21 6.028141 0.000000 -0.000002 -0.840600 0.799741 -2.575637
    22 11.692554 0.000000 -0.000001 0.020048 -0.034216 -1.051413
    23 11.481705 -0.000001 0.003898 -0.744317 -0.095841 0.434990
    24 2.859646 -0.030979 1.454837 0.047468 0.041404 -1.568747
    25 1.284180 -0.000004 -0.000003 0.000008 0.076727 -1.212138
    26 0.842652 0.000000 -0.000001 -0.076522 0.053922 -1.193815
    27 3.317276 -0.000435 0.677145 0.033407 -0.033445 -1.505020
    28 1.605515 0.000000 0.000001 0.000003 0.146269 -0.920409
    29 1.016602 0.000002 0.000000 0.007898 -0.010732 -0.956320
    30 3.508652 0.020010 -0.141971 -0.005992 -0.133614 -1.234191
    31 1.666992 0.000000 -0.000001 -0.000007 0.185484 -1.019205
    32 1.240234 0.000002 0.000000 0.000001 -0.000002 -1.190241
    33 3.414507 0.046399 -1.026586 0.054298 0.032675 -0.351195
    34 1.711614 0.000008 0.000011 0.000003 -0.028627 -0.762243
    35 1.005912 0.000002 0.000008 0.013151 -0.023004 -0.844231
    36 0.036468 -0.742656 -0.720661 1.228093 0.411929 -0.603152
    37 2.512458 -0.000006 -0.000006 -0.000002 -0.000001 0.359159
    38 1.272461 0.359375 -0.203003 0.053140 0.032129 0.989828
    39 -4.711505 -18.570933 -9.781427 1.500441 -0.132240 -3.028191
    40 0.000423 4.840469 3.496472 0.000019 -0.000028 0.000096
    41 0.000424 2.658789 -0.999599 0.000000 0.000000 0.000000
    42 0.000423 4.841991 5.246524 0.000000 0.000000 0.000000
    43 -0.995792 3.669771 -5.512417 0.000000 0.000000 0.000000
  time 28
    0 0.500000 -0.663086 -9.140625 -1.570760 -1.391893 -1.570827
    1 2.033348 1.000767 1.937660 3.099206 -0.162014 1.679995
    2 6.028145 0.000003 0.000002 -2.624163 0.102761 -0.452672
    3 11.688646 0.000081 -0.000005 -0.186735 0.291933 -1.780187
    4 11.481672 -0.000089 -0.000025 1.265153 -0.319714 0.701717
    5 3.144836 -0.068197 -1.551361 0.007416 -0.155112 -0.704283
    6 1.324282 -0.000008 0.000005 0.000000 -0.064504 -0.488232
    7 0.819211 -0.000004 0.000004 0.000001 -0.000003 -0.614497
    8 3.602473 0.042847 -0.759579 -0.097981 -0.116742 -0.833769
    9 1.609408 0.000006 -0.000007 -0.000002 -0.001816 -0.231281
    10 0.993191 -0.000006 0.000001 0.001643 0.002558 -0.472381
    11 3.707901 0.132908 0.056432 -0.103850 -0.076451 -0.862073
    12 1.684422 -0.000010 0.000009 0.000002 -0.003247 -0.208091
    13 1.252153 -0.000006 0.000003 0.000300 -0.000516 -0.506779
    14 3.543438 0.229235 0.930110 -0.088520 -0.075823 -0.754488
    15 1.719433 0.000002 -0.000005 -0.000004 0.000016 -0.494739
    16 1.005923 -0.000006 0.000003 0.000005 0.000018 -0.325887
    17 0.220084 -0.688784 0.352479 -1.238534 -0.801332 -0.672058
    18 2.633559 0.000000 -0.000008 -0.000002 0.028079 0.530189
    19 1.308566 0.000000 -0.000002 -0.032153 -0.063519 0.636345
    20 2.033356 1.000772 -1.937610 -0.128175 0.172989 -2.038335
    21 6.028141 0.000000 -0.000002 -0.844339 0.798093 -2.582734
    22 11.692554 0.000000 -0.000001 0.019617 -0.033964 -1.039242
    23 11.481705 -0.000001 0.003898 -0.708696 -0.075290 0.430819
    24 2.859646 -0.030979 1.458743 0.047468 0.041404 -1.568747
    25 1.284180 -0.000004 -0.000003 0.000008 0.076727 -1.212138
    26 0.838746 0.000000 -0.000001 -0.076522 0.053934 -1.193844
    27 3.317276 -0.000435 0.681052 0.033407 -0.033445 -1.505020
    28 1.605515 0.000000 0.000001 0.000003 0.146269 -0.920409
    29 1.016602 0.000002 0.000000 0.007898 -0.010732 -0.956320
    30 3.512558 0.020010 -0.145877 -0.005992 -0.133602 -1.234191
    31 1.666992 0.000000 -0.000001 -0.000007 0.185484 -1.019205
    32 1.240234 0.000002 0.000000 0.000001 -0.000002 -1.190241
    33 3.414507 0.046399 -1.026586 0.054298 0.032675 -0.351195
    34 1.711614 0.000008 0.000011 0.000003 -0.028627 -0.762243
    35 1.005912 0.000002 0.000008 0.013139 -0.023004 -0.844268
    36 0.036468 -0.742656 -0.720661 1.228081 0.411929 -0.603164
    37 2.512458 -0.000006 -0.000006 -0.000002 -0.000001 0.359147
    38 1.272461 0.359375 -0.203003 0.053140 0.032129 0.989828
    39 -4.774007 -18.676405 -9.668142 1.522548 -0.099163 -3.047258
    40 -0.003483 4.840469 3.492566 0.000019 -0.000028 0.000096
    41 0.000424 2.654883 -0.999599 0.000000 0.000000 0.000000
    42 0.000423 4.841991 5.246524 0.000000 0.000000 0.000000
    43 -0.995792 3.669771 -5.512417 0.000000 0.000000 0.000000
  time 29
    0 0.500000 -0.663086 -9.140625 -1.570760 -1.391893 -1.570827
    1 2.033348 1.000767 1.937660 3.099206 -0.162014 1.679995
    2 6.028145 0.000003 0.000002 -2.620050 0.044667 -0.412793
    3 11.692553 0.000081 -0.000005 -0.172533 0.294605 -1.731803
    4 11.481672 -0.000089 -0.000025 1.324078 -0.318244 0.708010
    5 3.144836 -0.068197 -1.551361 0.027464 -0.174599 -0.946080
    6 1.324282 -0.000008 0.000005 0.000000 -0.060010 -0.688898
    7 0.819211 -0.000004 0.000004 0.000001 -0.000003 -0.741286
    8 3.602473 0.042847 -0.755673 -0.066078 -0.135030 -1.085894
    9 1.609408 0.000006 -0.000007 -0.000002 -0.000473 -0.257096
    10 0.993191 -0.000006 0.000001 0.002254 0.004427 -0.587067
    11 3.707901 0.132908 0.056432 -0.080121 -0.093864 -1.106682
    12 1.684422 -0.000010 0.000009 0.000002 -0.003007 -0.245987
    13 1.252153 -0.000006 0.000003 -0.001642 0.001809 -0.635401
    14 3.543438 0.229235 0.930110 -0.071888 -0.091734 -0.952616
    15 1.719433 0.000002 -0.000005 -0.000004 0.000016 -0.631723
    16 1.005923 -0.000006 0.000003 0.000005 0.000018 -0.375833
    17 0.220084 -0.688784 0.352479 -1.319604 -0.782845 -0.579718
    18 2.633559 0.000000 -0.000008 -0.000002 0.015651 0.600668
    19 1.308566 0.000000 -0.000002 -0.051364 -0.081352 0.762133
    20 2.033356 1.000772 -1.937610 -0.128175 0.172989 -2.038335
    21 6.028141 0.000000 -0.000002 -0.845393 0.799317 -2.585776
    22 11.692554 0.000000 -0.000001 0.018874 -0.033569 -1.017962
    23 11.481705 -0.000001 -0.000008 -0.675255 -0.051188 0.427447
    24 2.859646 -0.030979 1.454837 0.047468 0.041404 -1.568747
    25 1.284180 -0.000004 -0.000003 0.000008 0.076727 -1.212138
    26 0.838746 0.000000 -0.000001 -0.076522 0.053934 -1.193815
    27 3.317276 -0.000435 0.681052 0.033407 -0.033445 -1.505020
    28 1.605515 0.000000 0.000001 0.000003 0.146269 -0.920409
    29 1.016602 0.000002 0.000000 0.007898 -0.010732 -0.956320
    30 3.512558 0.020010 -0.141971 -0.005992 -0.133602 -1.234191
    31 1.666992 0.000000 -0.000001 -0.000007 0.185484 -1.019205
    32 1.240234 0.000002 0.000000 0.000001 -0.000002 -1.190241
    33 3.414507 0.046399 -1.026586 0.054298 0.032675 -0.351195
    34 1.715521 0.000008 0.000011 0.000003 -0.028627 -0.762243
    35 1.005912 0.000002 0.000008 0.013151 -0.023004 -0.844231
    36 0.040374 -0.742656 -0.720661 1.228081 0.411929 -0.603164
    37 2.512458 -0.000006 -0.000006 -0.000002 -0.000001 0.359159
    38 1.272461 0.359375 -0.203003 0.053140 0.032129 0.989828
    39 -5.035734 -18.801409 -9.656423 1.541026 -0.066240 -3.077567
    40 0.000423 4.840469 3.496472 0.000019 0.000011 0.000096
    41 0.000424 2.658789 -0.999599 0.000000 0.000000 0.000000
    42 0.000423 4.841991 5.246524 0.000000 0.000000 0.000000
    43 -0.995792 3.669771 -5.512417 0.000000 0.000000 0.000000
  time 30
    0 0.500000 -0.663086 -9.140625 -1.570760 -1.391893 -1.570827
    1 2.033348 1.000767 1.937660 3.099206 -0.162014 1.679995
    2 6.028145 0.000003 0.000002 -2.617659 -0.011588 -0.374822
    3 11.692553 0.000081 -0.000005 -0.157588 0.296703 -1.681360
    4 11.481672 -0.000089 -0.000025 1.383087 -0.326688 0.722533
    5 3.144836 -0.068197 -1.551361 0.049795 -0.189987 -1.240790
    6 1.324282 -0.000008 0.000005 0.000000 -0.049236 -0.932904
    7 0.815305 -0.000004 0.000004 0.000001 -0.000003 -0.895276
    8 3.602473 0.042847 -0.755673 -0.021843 -0.145181 -1.393272
    9 1.609408 0.000006 -0.000007 -0.000002 0.001157 -0.288540
    10 0.993191 -0.000006 0.000001 0.002913 0.006752 -0.726444
    11 3.707901 0.132908 0.056432 -0.044970 -0.106352 -1.404602
    12 1.684422 -0.000010 0.000009 0.000002 -0.002887 -0.291995
    13 1.252153 -0.000006 0.000003 -0.004147 0.004529 -0.791551
    14 3.543438 0.229235 0.930110 -0.047933 -0.106209 -1.193840
    15 1.719433 0.000002 -0.000005 -0.000004 0.000016 -0.798048
    16 1.005923 -0.000006 0.000003 0.000005 0.000018 -0.436516
    17 0.220084 -0.688784 0.352479 -1.409334 -0.753232 -0.473047
    18 2.633559 0.000000 -0.000008 -0.000002 0.000850 0.686163
    19 1.308566 0.000000 -0.000002 -0.075801 -0.102098 0.915090
    20 2.033356 1.000772 -1.937610 -0.128175 0.172989 -2.038335
    21 6.028141 0.000000 -0.000002 -0.845585 0.802048 -2.587804
    22 11.692554 0.000000 -0.000001 0.018131 -0.033113 -0.996608
    23 11.481705 -0.000001 -0.000008 -0.641938 -0.027085 0.423750
    24 2.855739 -0.030979 1.458743 0.047859 0.041451 -1.568155
    25 1.284180 -0.000004 -0.000003 0.000008 0.076727 -1.212138
    26 0.838746 0.000000 -0.000001 -0.076522 0.053934 -1.193815
    27 3.317276 -0.000435 0.681052 0.033802 -0.033421 -1.504469
    28 1.605515 0.000000 0.000001 0.000003 0.146269 -0.920409
    29 1.016602 0.000002 0.000000 0.007898 -0.010732 -0.956320
    30 3.508652 0.016104 -0.141971 -0.005584 -0.133698 -1.233677
    31 1.666992 0.000000 -0.000001 -0.000007 0.185484 -1.019205
    32 1.240234 0.000002 0.000000 0.000001 -0.000002 -1.190241
    33 3.410600 0.046399 -1.026586 0.054489 0.032327 -0.350636
    34 1.711614 0.000008 0.000011 0.000003 -0.028627 -0.762243
    35 1.005912 0.000002 0.000008 0.013151 -0.023004 -0.844231
    36 0.040374 -0.742656 -0.720661 1.228381 0.411628 -0.602469
    37 2.512458 -0.000006 -0.000006 -0.000002 -0.000001 0.359159
    38 1.272461 0.359375 -0.203003 0.053140 0.032129 0.989828
    39 -5.320899 -18.926413 -9.668142 1.557084 -0.033163 -3.109192
    40 0.000423 4.844375 3.496472 0.000019 -0.000028 0.000096
    41 -0.003482 2.658789 -0.999599 0.000000 0.000000 0.000000
    42 0.000423 4.845897 5.250430 0.000000 0.000000 0.000000
    43 -0.995792 3.669771 -5.512417 0.000000 0.000000 0.000000
  time 31
    0 0.500000 -0.663086 -9.140625 -1.570760 -1.391893 -1.570827
    1 2.033348 1.000767 1.937660 3.099206 -0.162014 1.679995
    2 6.028145 0.000003 0.000002 -2.615937 -0.065724 -0.339331
    3 11.692553 0.000081 -0.000005 -0.142356 0.298093 -1.630181
    4 11.481672 -0.000089 -0.000025 1.441165 -0.343952 0.737886
    5 3.144836 -0.068197 -1.551361 0.069315 -0.199251 -1.561743
    6 1.324282 -0.000008 0.000005 0.000000 -0.035310 -1.198745
    7 0.815305 -0.000004 0.000004 0.000001 -0.000003 -1.062839
    8 3.602473 0.042847 -0.755673 0.028468 -0.140244 -1.728083
    9 1.609408 0.000006 -0.000007 -0.000002 0.002978 -0.322800
    10 0.993191 -0.000006 0.000001 0.003596 0.009305 -0.878058
    11 3.707901 0.132908 0.056432 -0.002317 -0.107383 -1.729294
    12 1.684422 -0.000010 0.000009 0.000002 -0.002803 -0.342196
    13 1.252153 -0.000006 0.000003 -0.006915 0.007477 -0.961562
    14 3.543438 0.229235 0.930110 -0.018705 -0.114977 -1.457088
    15 1.719433 0.000002 -0.000005 -0.000004 0.000016 -0.979084
    16 1.005923 -0.000006 0.000003 0.000005 0.000018 -0.502600
    17 0.220084 -0.688784 0.356385 -1.495263 -0.712890 -0.364682
    18 2.633559 0.000000 -0.000008 -0.000002 -0.015102 0.779200
    19 1.308566 0.000000 -0.000002 -0.102838 -0.124257 1.081690
    20 2.033356 1.000772 -1.937610 -0.128175 0.172989 -2.038335
    21 6.028141 0.000000 -0.000002 -0.845297 0.805297 -2.589002
    22 11.692554 0.000000 -0.000001 0.017448 -0.032718 -0.976634
    23 11.481705 -0.000001 -0.000008 -0.608684 -0.002584 0.423040
    24 2.859646 -0.030979 1.458743 0.047468 0.041404 -1.568747
    25 1.284180 -0.000004 -0.000003 0.000008 0.076727 -1.212138
    26 0.838746 0.000000 -0.000001 -0.076522 0.053934 -1.193815
    27 3.317276 -0.000435 0.681052 0.033407 -0.033445 -1.505020
    28 1.605515 0.000000 0.000001 0.000003 0.146269 -0.920409
    29 1.016602 0.000002 0.000000 0.007898 -0.010732 -0.956320
    30 3.512558 0.020010 -0.141971 -0.005992 -0.133614 -1.234191
    31 1.666992 0.000000 -0.000001 -0.000007 0.185484 -1.019205
    32 1.240234 0.000002 0.000000 0.000001 -0.000002 -1.190241
    33 3.414507 0.046399 -1.026586 0.054311 0.032675 -0.351195
    34 1.715521 0.000008 0.000011 0.000003 -0.028627 -0.762243
    35 1.005912 0.000002 0.000008 0.013139 -0.023004 -0.844231
    36 0.036468 -0.742656 -0.720661 1.228093 0.411929 -0.603152
    37 2.512458 -0.000006 -0.000006 -0.000002 -0.000001 0.359159
    38 1.272461 0.359375 -0.203003 0.053140 0.032129 0.989828
    39 -5.617783 -19.051417 -9.675955 1.570796 0.000000 -3.141605
    40 0.000423 4.840469 3.496472 0.000019 -0.000028 0.000096
    41 0.000424 2.658789 -0.999599 0.000000 0.000000 0.000000
    42 0.000423 4.841991 5.246524 0.000000 0.000000 0.000000
    43 -0.995792 3.669771 -5.512417 0.000000 0.000000 0.000000
end
