// Created by Crowbar++ 0.74
version 1
nodes
  0 "ValveBiped.Bip01_Spine4" -1
  1 "ValveBiped.Bip01_L_Clavicle" 0
  2 "ValveBiped.Bip01_L_UpperArm" 1
  3 "ValveBiped.Bip01_L_Forearm" 2
  4 "ValveBiped.Bip01_L_Hand" 3
  5 "ValveBiped.Bip01_L_Finger4" 4
  6 "ValveBiped.Bip01_L_Finger41" 5
  7 "ValveBiped.Bip01_L_Finger42" 6
  8 "ValveBiped.Bip01_L_Finger3" 4
  9 "ValveBiped.Bip01_L_Finger31" 8
  10 "ValveBiped.Bip01_L_Finger32" 9
  11 "ValveBiped.Bip01_L_Finger2" 4
  12 "ValveBiped.Bip01_L_Finger21" 11
  13 "ValveBiped.Bip01_L_Finger22" 12
  14 "ValveBiped.Bip01_L_Finger1" 4
  15 "ValveBiped.Bip01_L_Finger11" 14
  16 "ValveBiped.Bip01_L_Finger12" 15
  17 "ValveBiped.Bip01_L_Finger0" 4
  18 "ValveBiped.Bip01_L_Finger01" 17
  19 "ValveBiped.Bip01_L_Finger02" 18
  20 "ValveBiped.Bip01_R_Clavicle" 0
  21 "ValveBiped.Bip01_R_UpperArm" 20
  22 "ValveBiped.Bip01_R_Forearm" 21
  23 "ValveBiped.Bip01_R_Hand" 22
  24 "ValveBiped.Bip01_R_Finger4" 23
  25 "ValveBiped.Bip01_R_Finger41" 24
  26 "ValveBiped.Bip01_R_Finger42" 25
  27 "ValveBiped.Bip01_R_Finger3" 23
  28 "ValveBiped.Bip01_R_Finger31" 27
  29 "ValveBiped.Bip01_R_Finger32" 28
  30 "ValveBiped.Bip01_R_Finger2" 23
  31 "ValveBiped.Bip01_R_Finger21" 30
  32 "ValveBiped.Bip01_R_Finger22" 31
  33 "ValveBiped.Bip01_R_Finger1" 23
  34 "ValveBiped.Bip01_R_Finger11" 33
  35 "ValveBiped.Bip01_R_Finger12" 34
  36 "ValveBiped.Bip01_R_Finger0" 23
  37 "ValveBiped.Bip01_R_Finger01" 36
  38 "ValveBiped.Bip01_R_Finger02" 37
  39 "v_weapon.p90_Parent" -1
  40 "v_weapon.p90_Clip" 39
  41 "v_weapon.p90_Trigger" 39
  42 "v_weapon.p90_Release" 39
  43 "v_weapon.p90_Handle" 39
end
skeleton
  time 0
    0 0.500000 -0.663086 -9.140625 -1.570760 -1.391893 -1.570827
    1 2.033348 1.000767 1.937660 3.099206 -0.162014 1.679995
    2 6.028145 0.000003 0.000002 -2.623015 -0.080236 -0.325020
    3 11.692553 0.000081 -0.000005 -0.140750 0.298165 -1.624593
    4 11.481672 -0.000089 -0.000025 1.416153 -0.316911 0.817279
    5 3.281559 0.002118 -1.379481 0.103734 -0.198268 -1.563883
    6 1.328125 -0.000004 0.000000 0.000001 -0.035315 -1.198774
    7 0.819336 -0.000001 0.000000 0.000000 0.000000 -1.062870
    8 3.711852 0.109255 -0.568167 0.061905 -0.133724 -1.727985
    9 1.609408 0.000006 -0.000007 -0.000002 0.002978 -0.322800
    10 0.993191 -0.000006 0.000001 0.003596 0.009293 -0.878058
    11 3.786029 0.203222 0.243937 0.031001 -0.100839 -1.728117
    12 1.680664 0.000002 -0.000003 0.000000 -0.002812 -0.342155
    13 1.256836 0.000004 0.000002 -0.006937 0.007488 -0.961574
    14 3.594221 0.299550 1.113710 0.015208 -0.117569 -1.456356
    15 1.723633 0.000004 0.000001 0.000000 0.000000 -0.979102
    16 1.002930 -0.000004 0.000000 0.000000 0.000000 -0.502634
    17 0.298212 -0.634094 0.426700 -1.477415 -0.743920 -0.371887
    18 2.636719 0.000000 -0.000004 -0.000002 -0.015109 0.779228
    19 1.308566 0.000000 -0.000002 -0.102838 -0.124257 1.081690
    20 2.033356 1.000772 -1.937610 -0.128177 0.172990 -2.038336
    21 6.028141 0.000000 -0.000002 -0.856417 0.791454 -2.604211
    22 11.692554 0.000000 -0.000001 0.016453 -0.032011 -0.945648
    23 11.481705 -0.000001 -0.000008 -0.610303 0.005384 0.403605
    24 2.914335 -0.023166 1.404054 0.040970 0.042794 -1.568229
    25 1.284180 0.000000 -0.000002 0.000008 0.076727 -1.212138
    26 0.842285 0.000000 -0.000001 -0.076525 0.053954 -1.193840
    27 3.368059 0.007377 0.622456 0.027019 -0.031635 -1.504002
    28 1.609375 0.000000 -0.000001 0.000000 0.146271 -0.920427
    29 1.016602 0.000002 0.000000 0.007898 -0.010732 -0.956320
    30 3.555528 0.023917 -0.200566 -0.011696 -0.130163 -1.232628
    31 1.668801 0.000002 0.000006 0.000002 0.185471 -1.019195
    32 1.240434 0.000004 0.000006 0.000002 -0.000011 -1.190241
    33 3.449664 0.054212 -1.085181 0.041743 0.039458 -0.493409
    34 1.711614 0.000008 0.000011 0.000003 -0.037663 -1.131850
    35 1.005912 0.000002 0.000008 0.010359 -0.020044 -0.759988
    36 0.075532 -0.738750 -0.755818 1.202890 0.441585 -0.626786
    37 2.512458 -0.000006 -0.000006 -0.000002 -0.000001 0.359159
    38 1.292941 0.242193 -0.187511 0.019227 -0.056114 1.194152
    39 -5.621689 -19.285799 -9.574389 1.587147 -0.002035 -3.142328
    40 0.000423 4.844375 3.496472 0.000019 -0.000028 0.000096
    41 0.000424 2.658789 -0.456614 0.000000 0.000000 0.000000
    42 0.000423 4.845897 5.246524 0.000000 0.000000 0.000000
    43 -0.995792 3.669771 -5.512417 0.000000 0.000000 0.000000
  time 1
    0 0.500000 -0.663086 -9.140625 -1.570760 -1.391893 -1.570827
    1 2.033348 1.000767 1.937660 3.099206 -0.162014 1.679995
    2 6.028145 0.000003 0.000002 -2.623015 -0.080236 -0.325020
    3 11.692553 0.000081 -0.000005 -0.140750 0.298165 -1.624593
    4 11.481672 -0.000089 -0.000025 1.416153 -0.316911 0.817279
    5 3.281559 0.002118 -1.379481 0.103734 -0.198268 -1.563883
    6 1.328125 -0.000004 0.000000 0.000001 -0.035315 -1.198774
    7 0.819336 -0.000001 0.000000 0.000000 0.000000 -1.062870
    8 3.711852 0.109255 -0.568167 0.061905 -0.133724 -1.727985
    9 1.609408 0.000006 -0.000007 -0.000002 0.002978 -0.322800
    10 0.993191 -0.000006 0.000001 0.003596 0.009293 -0.878058
    11 3.786029 0.203222 0.243937 0.031001 -0.100839 -1.728117
    12 1.680664 0.000002 -0.000003 0.000000 -0.002812 -0.342155
    13 1.256836 0.000004 0.000002 -0.006937 0.007488 -0.961574
    14 3.594221 0.299550 1.113710 0.015208 -0.117569 -1.456356
    15 1.723633 0.000004 0.000001 0.000000 0.000000 -0.979102
    16 1.002930 -0.000004 0.000000 0.000000 0.000000 -0.502634
    17 0.298212 -0.634094 0.426700 -1.477415 -0.743920 -0.371887
    18 2.636719 0.000000 -0.000004 -0.000002 -0.015109 0.779228
    19 1.308566 0.000000 -0.000002 -0.102838 -0.124257 1.081690
    20 2.033356 1.000772 -1.937610 -0.128177 0.172990 -2.038336
    21 6.028141 0.000000 -0.000002 -0.856417 0.791454 -2.604211
    22 11.692554 0.000000 -0.000001 0.016453 -0.032011 -0.945648
    23 11.481705 -0.000001 -0.000008 -0.610303 0.005384 0.403605
    24 2.914335 -0.023166 1.404054 0.040970 0.042794 -1.568229
    25 1.284180 0.000000 -0.000002 0.000008 0.076727 -1.212138
    26 0.842285 0.000000 -0.000001 -0.076525 0.053954 -1.193840
    27 3.368059 0.007377 0.622456 0.027019 -0.031635 -1.504002
    28 1.609375 0.000000 -0.000001 0.000000 0.146271 -0.920427
    29 1.016602 0.000002 0.000000 0.007898 -0.010732 -0.956320
    30 3.555528 0.023917 -0.200566 -0.011696 -0.130163 -1.232628
    31 1.668801 0.000002 0.000006 0.000002 0.185471 -1.019195
    32 1.240434 0.000004 0.000006 0.000002 -0.000011 -1.190241
    33 3.449664 0.054212 -1.085181 0.041743 0.039458 -0.493409
    34 1.711614 0.000008 0.000011 0.000003 -0.037663 -1.131850
    35 1.005912 0.000002 0.000008 0.010359 -0.020044 -0.759988
    36 0.075532 -0.738750 -0.755818 1.202890 0.441585 -0.626786
    37 2.512458 -0.000006 -0.000006 -0.000002 -0.000001 0.359159
    38 1.292941 0.242193 -0.187511 0.019227 -0.056114 1.194152
    39 -5.621689 -19.285799 -9.574389 1.587147 -0.002035 -3.142328
    40 0.000423 4.844375 3.496472 0.000019 -0.000028 0.000096
    41 0.000424 2.658789 -0.456614 0.000000 0.000000 0.000000
    42 0.000423 4.845897 5.246524 0.000000 0.000000 0.000000
    43 -0.995792 3.669771 -5.512417 0.000000 0.000000 0.000000
  time 2
    0 0.500000 -0.663086 -9.140625 -1.570760 -1.391893 -1.570827
    1 2.033348 1.000767 1.937660 3.099206 -0.162014 1.679995
    2 6.028145 0.000003 0.000002 -2.630285 -0.091779 -0.315003
    3 11.692553 0.000081 -0.000005 -0.146682 0.297793 -1.644814
    4 11.481672 -0.000089 -0.000025 1.405894 -0.302723 0.878414
    5 3.281559 0.002118 -1.379481 0.103752 -0.198268 -1.563883
    6 1.328125 -0.000004 0.000000 0.000001 -0.035315 -1.198774
    7 0.819336 -0.000001 0.000000 0.000000 0.000000 -1.062870
    8 3.711852 0.109255 -0.568167 0.061905 -0.133724 -1.727985
    9 1.609408 0.000006 -0.000007 -0.000002 0.002978 -0.322753
    10 0.993191 -0.000006 0.000001 0.003596 0.009293 -0.878058
    11 3.786029 0.203222 0.247844 0.031001 -0.100839 -1.728117
    12 1.680664 0.000002 -0.000003 0.000000 -0.002812 -0.342155
    13 1.256836 0.000004 0.000002 -0.006937 0.007488 -0.961574
    14 3.594221 0.299550 1.113710 0.015208 -0.117569 -1.456356
    15 1.723633 0.000004 0.000001 0.000000 0.000000 -0.979102
    16 1.002930 -0.000004 0.000000 0.000000 0.000000 -0.502634
    17 0.298212 -0.634094 0.430606 -1.477415 -0.743920 -0.371887
    18 2.636719 0.000000 -0.000004 -0.000002 -0.015109 0.779228
    19 1.308566 0.000000 -0.000002 -0.102850 -0.124257 1.081690
    20 2.033356 1.000772 -1.937610 -0.128177 0.172990 -2.038336
    21 6.028141 0.000000 -0.000002 -0.845681 0.810053 -2.592782
    22 11.692554 0.000000 -0.000001 0.017711 -0.032886 -0.984549
    23 11.481705 -0.000001 -0.000008 -0.605259 0.018922 0.413278
    24 2.914335 -0.023166 1.400148 0.040970 0.042794 -1.568229
    25 1.284180 0.000000 -0.000002 0.000008 0.076727 -1.212138
    26 0.842285 0.000000 -0.000001 -0.076525 0.053954 -1.193840
    27 3.368059 0.007377 0.622456 0.027019 -0.031635 -1.504002
    28 1.609375 0.000000 -0.000001 0.000000 0.146271 -0.920427
    29 1.016602 0.000002 0.000000 0.007898 -0.010732 -0.956320
    30 3.555528 0.023917 -0.200566 -0.011696 -0.130163 -1.232628
    31 1.668801 0.000002 0.000006 0.000002 0.185471 -1.019195
    32 1.240434 0.000004 0.000006 0.000002 -0.000011 -1.190241
    33 3.449664 0.054212 -1.085181 0.041476 0.039458 -0.496441
    34 1.711614 0.000008 0.000011 0.000003 -0.037747 -1.138820
    35 1.005912 0.000002 0.000008 0.010311 -0.019996 -0.758596
    36 0.075532 -0.738750 -0.755818 1.202458 0.442029 -0.627229
    37 2.512458 -0.000006 -0.000006 -0.000002 -0.000001 0.359159
    38 1.292941 0.238287 -0.187511 0.018448 -0.057456 1.197418
    39 -5.660753 -19.086574 -9.418134 1.608595 -0.000564 -3.144892
    40 -0.003483 4.840469 3.496472 0.000019 0.000011 -0.000078
    41 -0.003482 2.658789 -0.437082 0.000000 0.000000 0.000000
    42 0.000423 4.841991 5.246524 0.000000 0.000000 0.000000
    43 -0.995792 3.669771 -5.512417 0.000000 0.000000 0.000000
  time 3
    0 0.500000 -0.663086 -9.140625 -1.570760 -1.391893 -1.570827
    1 2.033348 1.000767 1.937660 3.099206 -0.162014 1.679995
    2 6.028145 0.000003 0.000002 -2.627319 -0.089800 -0.322635
    3 11.692553 0.000081 -0.000005 -0.157996 0.296774 -1.683419
    4 11.481672 -0.000089 -0.000025 1.400044 -0.306176 0.921085
    5 3.281559 0.006024 -1.379481 0.103471 -0.198088 -1.563682
    6 1.328125 -0.000004 0.000000 0.000001 -0.035315 -1.198774
    7 0.819336 -0.000001 0.000000 0.000000 0.000000 -1.062870
    8 3.711852 0.109255 -0.568167 0.061630 -0.133592 -1.727822
    9 1.609408 0.000006 -0.000007 -0.000002 0.002978 -0.322800
    10 0.993191 -0.000006 0.000001 0.003596 0.009293 -0.878058
    11 3.786029 0.203222 0.243937 0.030701 -0.100719 -1.727960
    12 1.680664 0.000002 -0.000003 0.000000 -0.002812 -0.342155
    13 1.256836 0.000004 0.000002 -0.006937 0.007488 -0.961574
    14 3.594221 0.299550 1.113710 0.014957 -0.117367 -1.456197
    15 1.723633 0.000004 0.000001 0.000000 0.000000 -0.979102
    16 1.002930 -0.000004 0.000000 0.000000 0.000000 -0.502634
    17 0.298212 -0.634094 0.426700 -1.477337 -0.743609 -0.371807
    18 2.636719 0.000000 -0.000004 -0.000002 -0.015109 0.779228
    19 1.308566 0.000000 -0.000002 -0.102850 -0.124257 1.081690
    20 2.033356 1.000772 -1.937610 -0.128177 0.172990 -2.038336
    21 6.028141 0.000000 -0.000002 -0.824303 0.836892 -2.565682
    22 11.692554 0.000000 -0.000001 0.019713 -0.034108 -1.044021
    23 11.481705 -0.000001 -0.000008 -0.601460 0.021829 0.438540
    24 2.914335 -0.023166 1.400148 0.040970 0.042794 -1.568229
    25 1.284180 0.000000 -0.000002 0.000008 0.076727 -1.212138
    26 0.842285 0.000000 -0.000001 -0.076525 0.053954 -1.193840
    27 3.368059 0.007377 0.618550 0.027019 -0.031635 -1.504023
    28 1.609375 0.000000 -0.000001 0.000000 0.146271 -0.920427
    29 1.016602 0.000002 0.000000 0.007898 -0.010732 -0.956320
    30 3.555528 0.023917 -0.200566 -0.011696 -0.130151 -1.232628
    31 1.668801 0.000002 0.000006 0.000002 0.185471 -1.019173
    32 1.240434 0.000004 0.000006 0.000002 -0.000011 -1.190241
    33 3.449664 0.054212 -1.085181 0.041286 0.039458 -0.498703
    34 1.711614 0.000008 0.000011 0.000003 -0.037891 -1.146844
    35 1.005912 0.000002 0.000008 0.010263 -0.019924 -0.756802
    36 0.075532 -0.738750 -0.755818 1.201955 0.442530 -0.627744
    37 2.512458 -0.000006 -0.000006 -0.000002 -0.000001 0.359159
    38 1.292941 0.238287 -0.187511 0.017418 -0.059182 1.201773
    39 -5.680285 -18.746720 -9.394696 1.614388 0.001608 -3.146207
    40 0.000423 4.844375 3.496472 0.000019 0.000011 -0.000078
    41 0.000424 2.658789 -0.429270 0.000000 0.000000 0.000000
    42 0.000423 4.841991 5.250430 0.000000 0.000000 0.000000
    43 -0.995792 3.669771 -5.512417 0.000000 0.000000 0.000000
  time 4
    0 0.500000 -0.663086 -9.140625 -1.570760 -1.391893 -1.570827
    1 2.033348 1.000767 1.937660 3.099206 -0.162014 1.679995
    2 6.028145 0.000003 0.000002 -2.618998 -0.082544 -0.337137
    3 11.692553 0.000081 -0.000005 -0.169213 0.295348 -1.721876
    4 11.481672 -0.000089 -0.000025 1.391311 -0.313253 0.961680
    5 3.281559 0.002118 -1.383388 0.103734 -0.198268 -1.563883
    6 1.328125 -0.000004 0.000000 0.000001 -0.035315 -1.198774
    7 0.819336 -0.000001 0.000000 0.000000 0.000000 -1.062870
    8 3.711852 0.109255 -0.568167 0.061905 -0.133724 -1.727985
    9 1.609408 0.000006 -0.000007 -0.000002 0.002978 -0.322753
    10 0.993191 -0.000006 0.000001 0.003596 0.009305 -0.878058
    11 3.786029 0.203222 0.243937 0.031001 -0.100839 -1.728117
    12 1.680664 0.000002 -0.000003 0.000000 -0.002812 -0.342155
    13 1.256836 0.000004 0.000002 -0.006937 0.007488 -0.961574
    14 3.594221 0.299550 1.113710 0.015187 -0.117569 -1.456356
    15 1.723633 0.000004 0.000001 0.000000 0.000000 -0.979102
    16 1.002930 -0.000004 0.000000 0.000000 0.000000 -0.502634
    17 0.298212 -0.634094 0.426700 -1.477415 -0.743920 -0.371887
    18 2.636719 0.000000 -0.000004 -0.000002 -0.015109 0.779228
    19 1.308566 0.000000 -0.000002 -0.102850 -0.124257 1.081690
    20 2.033356 1.000772 -1.937610 -0.128177 0.172990 -2.038336
    21 6.028141 0.000000 -0.000002 -0.799378 0.860529 -2.531116
    22 11.692554 0.000000 -0.000001 0.021642 -0.035175 -1.099759
    23 11.481705 -0.000001 -0.000008 -0.601460 0.019432 0.464483
    24 2.914335 -0.023166 1.400148 0.040970 0.042794 -1.568229
    25 1.284180 0.000000 -0.000002 0.000008 0.076727 -1.212138
    26 0.842285 0.000000 -0.000001 -0.076525 0.053954 -1.193840
    27 3.368059 0.007377 0.618550 0.027019 -0.031635 -1.504023
    28 1.609375 0.000000 -0.000001 0.000000 0.146271 -0.920427
    29 1.016602 0.000002 0.000000 0.007898 -0.010732 -0.956320
    30 3.555528 0.023917 -0.200566 -0.011696 -0.130163 -1.232628
    31 1.668801 0.000002 0.000006 0.000002 0.185471 -1.019173
    32 1.240434 0.000004 0.000006 0.000002 -0.000011 -1.190241
    33 3.449664 0.054212 -1.085181 0.041362 0.039458 -0.497956
    34 1.711614 0.000008 0.000011 0.000003 -0.038071 -1.152788
    35 1.005912 0.000002 0.000008 0.010203 -0.019864 -0.755008
    36 0.075532 -0.738750 -0.755818 1.201583 0.442917 -0.628128
    37 2.512458 -0.000006 -0.000006 -0.000002 -0.000001 0.359147
    38 1.292941 0.238287 -0.187511 0.016423 -0.060884 1.206310
    39 -5.676378 -18.402959 -9.511887 1.608448 0.002121 -3.145878
    40 0.000423 4.840469 3.496472 0.000019 0.000011 -0.000078
    41 0.000424 2.658789 -0.429270 0.000000 0.000000 0.000000
    42 0.000423 4.845897 5.250430 0.000000 0.000000 0.000000
    43 -0.995792 3.669771 -5.512417 0.000000 0.000000 0.000000
  time 5
    0 0.500000 -0.663086 -9.140625 -1.570760 -1.391893 -1.570827
    1 2.033348 1.000767 1.937660 3.099206 -0.162014 1.679995
    2 6.028145 0.000003 0.000002 -2.614502 -0.075713 -0.344483
    3 11.692553 0.000081 -0.000005 -0.169465 0.295312 -1.722758
    4 11.481672 -0.000089 -0.000025 1.385800 -0.313800 0.969080
    5 3.281559 0.002118 -1.383388 0.103752 -0.198268 -1.563883
    6 1.328125 -0.000004 0.000000 0.000001 -0.035315 -1.198774
    7 0.819336 -0.000001 0.000000 0.000000 0.000000 -1.062870
    8 3.711852 0.109255 -0.572073 0.061905 -0.133724 -1.727985
    9 1.609408 0.000006 -0.000007 -0.000002 0.002978 -0.322800
    10 0.993191 -0.000006 0.000001 0.003596 0.009293 -0.878088
    11 3.786029 0.203222 0.243937 0.031001 -0.100839 -1.728117
    12 1.680664 0.000002 -0.000003 0.000000 -0.002812 -0.342155
    13 1.256836 0.000004 0.000002 -0.006937 0.007488 -0.961574
    14 3.594221 0.299550 1.109803 0.015208 -0.117569 -1.456356
    15 1.723633 0.000004 0.000001 0.000000 0.000000 -0.979102
    16 1.002930 -0.000004 0.000000 0.000000 0.000000 -0.502634
    17 0.298212 -0.634094 0.426700 -1.477415 -0.743920 -0.371887
    18 2.636719 0.000000 -0.000004 -0.000002 -0.015109 0.779228
    19 1.308566 0.000000 -0.000002 -0.102838 -0.124257 1.081690
    20 2.033356 1.000772 -1.937610 -0.128177 0.172990 -2.038336
    21 6.028141 0.000000 -0.000002 -0.800912 0.857986 -2.532406
    22 11.692554 0.000000 -0.000001 0.021462 -0.035079 -1.094682
    23 11.481705 -0.000001 -0.000008 -0.602394 0.012730 0.466435
    24 2.914335 -0.023166 1.400148 0.040970 0.042794 -1.568229
    25 1.284180 0.000000 -0.000002 0.000008 0.076727 -1.212138
    26 0.842285 0.000000 -0.000001 -0.076525 0.053954 -1.193840
    27 3.368059 0.007377 0.618550 0.027019 -0.031635 -1.504002
    28 1.609375 0.000000 -0.000001 0.000000 0.146271 -0.920427
    29 1.016602 0.000002 0.000000 0.007898 -0.010732 -0.956320
    30 3.555528 0.023917 -0.204473 -0.011696 -0.130163 -1.232628
    31 1.668801 0.000002 0.000006 0.000002 0.185471 -1.019173
    32 1.240434 0.000004 0.000006 0.000002 -0.000011 -1.190241
    33 3.449664 0.054212 -1.089088 0.041870 0.039458 -0.491917
    34 1.711614 0.000008 0.000011 0.000003 -0.038298 -1.153813
    35 1.005912 0.000002 0.000008 0.010155 -0.019804 -0.753634
    36 0.079438 -0.738750 -0.759725 1.201512 0.442974 -0.628200
    37 2.512458 -0.000006 -0.000006 -0.000002 -0.000001 0.359159
    38 1.296847 0.230474 -0.187511 0.015704 -0.062142 1.210120
    39 -5.668566 -18.430304 -9.550951 1.599356 0.002446 -3.145155
    40 -0.003483 4.844375 3.496472 0.000019 0.000011 -0.000078
    41 0.000424 2.658789 -0.437082 0.000000 0.000000 0.000000
    42 -0.003483 4.841991 5.250430 0.000000 0.000000 0.000000
    43 -0.995792 3.669771 -5.512417 0.000000 0.000000 0.000000
  time 6
    0 0.500000 -0.663086 -9.140625 -1.570760 -1.391893 -1.570827
    1 2.033348 1.000767 1.937660 3.099206 -0.162014 1.679995
    2 6.028145 0.000003 0.000002 -2.611633 -0.069776 -0.349158
    3 11.692553 0.000081 -0.000005 -0.167164 0.295648 -1.714817
    4 11.481672 -0.000089 -0.000025 1.383003 -0.313663 0.964585
    5 3.281559 0.002118 -1.379481 0.103752 -0.198268 -1.563883
    6 1.328125 -0.000004 0.000000 0.000001 -0.035315 -1.198774
    7 0.819336 -0.000001 0.000000 0.000000 0.000000 -1.062870
    8 3.711852 0.109255 -0.568167 0.061905 -0.133724 -1.727985
    9 1.609408 0.000006 -0.000007 -0.000002 0.002978 -0.322800
    10 0.993191 -0.000006 0.000001 0.003596 0.009293 -0.878088
    11 3.786029 0.203222 0.243937 0.031001 -0.100839 -1.728117
    12 1.680664 0.000002 -0.000003 0.000000 -0.002812 -0.342155
    13 1.256836 0.000004 0.000002 -0.006937 0.007488 -0.961574
    14 3.594221 0.299550 1.109803 0.015187 -0.117569 -1.456356
    15 1.723633 0.000004 0.000001 0.000000 0.000000 -0.979102
    16 1.002930 -0.000004 0.000000 0.000000 0.000000 -0.502634
    17 0.298212 -0.634094 0.426700 -1.477415 -0.743920 -0.371887
    18 2.636719 0.000000 -0.000004 -0.000002 -0.015109 0.779228
    19 1.308566 0.000000 -0.000002 -0.102838 -0.124257 1.081690
    20 2.033356 1.000772 -1.937610 -0.128177 0.172990 -2.038336
    21 6.028141 0.000000 -0.000002 -0.806185 0.851583 -2.538582
    22 11.692554 0.000000 -0.000001 0.020983 -0.034815 -1.080906
    23 11.481705 -0.000001 -0.000008 -0.603889 0.004829 0.465311
    24 2.914335 -0.023166 1.400148 0.040970 0.042794 -1.568229
    25 1.284180 0.000000 -0.000002 0.000008 0.076727 -1.212138
    26 0.842285 0.000000 -0.000001 -0.076525 0.053954 -1.193840
    27 3.368059 0.007377 0.618550 0.027019 -0.031635 -1.504002
    28 1.609375 0.000000 -0.000001 0.000000 0.146271 -0.920427
    29 1.016602 0.000002 0.000000 0.007898 -0.010732 -0.956320
    30 3.555528 0.023917 -0.200566 -0.011696 -0.130163 -1.232628
    31 1.668801 0.000002 0.000006 0.000002 0.185471 -1.019173
    32 1.240434 0.000004 0.000006 0.000002 -0.000011 -1.190241
    33 3.449664 0.054212 -1.085181 0.042733 0.039482 -0.481587
    34 1.711614 0.000008 0.000011 0.000003 -0.038442 -1.146814
    35 1.005912 0.000002 0.000008 0.010143 -0.019792 -0.753067
    36 0.075532 -0.738750 -0.755818 1.201955 0.442530 -0.627744
    37 2.512458 -0.000006 -0.000006 -0.000002 -0.000001 0.359159
    38 1.296847 0.230474 -0.187511 0.015548 -0.062574 1.212324
    39 -5.660753 -18.504525 -9.593921 1.588907 0.002514 -3.144235
    40 0.000423 4.844375 3.492566 0.000019 -0.000028 0.000009
    41 -0.007389 2.658789 -0.460521 0.000000 0.000000 0.000000
    42 0.000423 4.845897 5.246524 0.000000 0.000000 0.000000
    43 -0.995792 3.669771 -5.512417 0.000000 0.000000 0.000000
  time 7
    0 0.500000 -0.663086 -9.140625 -1.570760 -1.391893 -1.570827
    1 2.033348 1.000767 1.937660 3.099206 -0.162014 1.679995
    2 6.028145 0.000003 0.000002 -2.609624 -0.065630 -0.351925
    3 11.692553 0.000081 -0.000005 -0.164048 0.296055 -1.704081
    4 11.481672 -0.000089 -0.000025 1.383172 -0.314723 0.950961
    5 3.281559 0.002118 -1.379481 0.103734 -0.198268 -1.563883
    6 1.328125 -0.000004 0.000000 0.000001 -0.035315 -1.198774
    7 0.819336 -0.000001 0.000000 0.000000 0.000000 -1.062870
    8 3.711852 0.109255 -0.568167 0.061905 -0.133724 -1.727985
    9 1.609408 0.000006 -0.000007 -0.000002 0.002978 -0.322753
    10 0.993191 -0.000006 0.000001 0.003596 0.009293 -0.878088
    11 3.786029 0.203222 0.243937 0.031001 -0.100839 -1.728117
    12 1.680664 0.000002 -0.000003 0.000000 -0.002812 -0.342155
    13 1.256836 0.000004 0.000002 -0.006937 0.007488 -0.961574
    14 3.594221 0.299550 1.109803 0.015187 -0.117569 -1.456356
    15 1.723633 0.000004 0.000001 0.000000 0.000000 -0.979102
    16 1.002930 -0.000004 0.000000 0.000000 0.000000 -0.502634
    17 0.298212 -0.634094 0.426700 -1.477415 -0.743920 -0.371887
    18 2.636719 0.000000 -0.000004 -0.000002 -0.015109 0.779228
    19 1.308566 0.000000 -0.000002 -0.102850 -0.124257 1.081690
    20 2.033356 1.000772 -1.937610 -0.128177 0.172990 -2.038336
    21 6.028141 0.000000 -0.000002 -0.813662 0.842730 -2.547615
    22 11.692554 0.000000 -0.000001 0.020312 -0.034468 -1.061642
    23 11.481705 -0.000001 -0.000008 -0.605695 -0.002761 0.461465
    24 2.914335 -0.023166 1.400148 0.040970 0.042794 -1.568229
    25 1.284180 0.000000 -0.000002 0.000008 0.076727 -1.212138
    26 0.842285 0.000000 -0.000001 -0.076525 0.053954 -1.193840
    27 3.368059 0.007377 0.618550 0.027019 -0.031635 -1.504002
    28 1.609375 0.000000 -0.000001 0.000000 0.146271 -0.920427
    29 1.016602 0.000002 0.000000 0.007898 -0.010732 -0.956320
    30 3.555528 0.023917 -0.204473 -0.011696 -0.130163 -1.232628
    31 1.668801 0.000002 0.000006 0.000002 0.185471 -1.019173
    32 1.240434 0.000004 0.000006 0.000002 -0.000011 -1.190241
    33 3.449664 0.054212 -1.089088 0.043736 0.039494 -0.469649
    34 1.711614 0.000008 0.000011 0.000003 -0.038334 -1.128833
    35 1.005912 0.000002 0.000008 0.010167 -0.019816 -0.753781
    36 0.075532 -0.738750 -0.755818 1.203082 0.441413 -0.626594
    37 2.512458 -0.000006 -0.000006 -0.000002 -0.000001 0.359159
    38 1.292941 0.238287 -0.187511 0.016195 -0.061771 1.211909
    39 -5.645127 -18.606091 -9.629078 1.578788 0.002326 -3.143249
    40 0.000423 4.840469 3.496472 0.000019 -0.000028 0.000096
    41 0.000424 2.654883 -0.480052 0.000000 0.000000 0.000000
    42 0.000423 4.841991 5.246524 0.000000 0.000000 0.000000
    43 -0.995792 3.669771 -5.512417 0.000000 0.000000 0.000000
  time 8
    0 0.500000 -0.663086 -9.140625 -1.570760 -1.391893 -1.570827
    1 2.033348 1.000767 1.937660 3.099206 -0.162014 1.679995
    2 6.028145 0.000003 0.000002 -2.607042 -0.062803 -0.354310
    3 11.692553 0.000081 -0.000005 -0.160704 0.296475 -1.692684
    4 11.481672 -0.000089 -0.000025 1.384614 -0.317253 0.931597
    5 3.281559 0.002118 -1.383388 0.103752 -0.198268 -1.563883
    6 1.328125 -0.000004 0.000000 0.000001 -0.035315 -1.198774
    7 0.819336 -0.000001 0.000000 0.000000 0.000000 -1.062870
    8 3.711852 0.109255 -0.568167 0.061905 -0.133736 -1.727985
    9 1.609408 0.000006 -0.000007 -0.000002 0.002978 -0.322753
    10 0.993191 -0.000006 0.000001 0.003596 0.009305 -0.878058
    11 3.786029 0.203222 0.243937 0.031001 -0.100839 -1.728117
    12 1.680664 0.000002 -0.000003 0.000000 -0.002812 -0.342155
    13 1.256836 0.000004 0.000002 -0.006937 0.007488 -0.961574
    14 3.594221 0.299550 1.109803 0.015208 -0.117569 -1.456356
    15 1.723633 0.000004 0.000001 0.000000 0.000000 -0.979102
    16 1.002930 -0.000004 0.000000 0.000000 0.000000 -0.502634
    17 0.298212 -0.634094 0.426700 -1.477415 -0.743920 -0.371887
    18 2.636719 0.000000 -0.000004 -0.000002 -0.015109 0.779228
    19 1.308566 0.000000 -0.000002 -0.102850 -0.124257 1.081690
    20 2.033356 1.000772 -1.937610 -0.128177 0.172990 -2.038336
    21 6.028141 0.000000 -0.000002 -0.820756 0.834020 -2.556188
    22 11.692554 0.000000 -0.000001 0.019665 -0.034084 -1.042789
    23 11.481705 -0.000001 -0.000008 -0.607563 -0.008509 0.456644
    24 2.914335 -0.023166 1.400148 0.040970 0.042794 -1.568229
    25 1.284180 0.000000 -0.000002 0.000008 0.076727 -1.212138
    26 0.842285 0.000000 -0.000001 -0.076525 0.053954 -1.193840
    27 3.368059 0.007377 0.618550 0.027019 -0.031635 -1.504023
    28 1.609375 0.000000 -0.000001 0.000000 0.146271 -0.920427
    29 1.016602 0.000002 0.000000 0.007898 -0.010732 -0.956320
    30 3.555528 0.023917 -0.200566 -0.011696 -0.130163 -1.232628
    31 1.668801 0.000002 0.000006 0.000002 0.185471 -1.019173
    32 1.240434 0.000004 0.000006 0.000002 -0.000011 -1.190241
    33 3.449664 0.054212 -1.089088 0.044841 0.039506 -0.456404
    34 1.715521 0.000008 0.000011 0.000003 -0.037903 -1.099343
    35 1.005912 0.000002 0.000008 0.010239 -0.019900 -0.756088
    36 0.075532 -0.738750 -0.755818 1.204903 0.439536 -0.624724
    37 2.512458 -0.000006 -0.000006 -0.000002 -0.000001 0.359159
    38 1.292941 0.242193 -0.187511 0.017861 -0.059326 1.208150
    39 -5.633408 -18.711563 -9.668142 1.570796 0.001813 -3.142328
    40 0.000423 4.840469 3.496472 0.000019 0.000011 0.000096
    41 -0.003482 2.658789 -0.519116 0.000000 0.000000 0.000000
    42 0.000423 4.841991 5.246524 0.000000 0.000000 0.000000
    43 -0.995792 3.669771 -5.512417 0.000000 0.000000 0.000000
  time 9
    0 0.500000 -0.663086 -9.140625 -1.570760 -1.391893 -1.570827
    1 2.033348 1.000767 1.937660 3.099206 -0.162014 1.679995
    2 6.028145 0.000003 0.000002 -2.604459 -0.059929 -0.356504
    3 11.692553 0.000081 -0.000005 -0.156929 0.296882 -1.679742
    4 11.481672 -0.000089 -0.000025 1.388090 -0.321423 0.906216
    5 3.285465 0.002118 -1.383388 0.104297 -0.198544 -1.564311
    6 1.328125 -0.000004 0.000000 0.000001 -0.035315 -1.198774
    7 0.819336 -0.000001 0.000000 0.000000 0.000000 -1.062870
    8 3.715758 0.105348 -0.568167 0.062493 -0.133916 -1.728408
    9 1.609408 0.000006 -0.000007 -0.000002 0.002978 -0.322800
    10 0.993191 -0.000006 0.000001 0.003596 0.009293 -0.878058
    11 3.789935 0.203222 0.243937 0.031576 -0.101031 -1.728509
    12 1.680664 0.000002 -0.000003 0.000000 -0.002812 -0.342155
    13 1.256836 0.000004 0.000002 -0.006937 0.007488 -0.961574
    14 3.594221 0.299550 1.109803 0.015690 -0.117918 -1.456738
    15 1.723633 0.000004 0.000001 0.000000 0.000000 -0.979102
    16 1.002930 -0.000004 0.000000 0.000000 0.000000 -0.502634
    17 0.302118 -0.634094 0.422793 -1.477513 -0.744507 -0.372178
    18 2.636719 0.000000 -0.000004 -0.000002 -0.015109 0.779228
    19 1.308566 0.000000 -0.000002 -0.102850 -0.124257 1.081690
    20 2.033356 1.000772 -1.937610 -0.128177 0.172990 -2.038336
    21 6.028141 0.000000 -0.000002 -0.825645 0.827145 -2.561626
    22 11.692554 0.000000 -0.000001 0.019173 -0.033797 -1.028117
    23 11.481705 -0.000001 -0.000008 -0.609431 -0.011727 0.451999
    24 2.914335 -0.023166 1.404054 0.040970 0.042794 -1.568229
    25 1.284180 0.000000 -0.000002 0.000008 0.076727 -1.212138
    26 0.842285 0.000000 -0.000001 -0.076525 0.053954 -1.193840
    27 3.368059 0.007377 0.622456 0.027019 -0.031635 -1.504002
    28 1.609375 0.000000 -0.000001 0.000000 0.146271 -0.920427
    29 1.016602 0.000002 0.000000 0.007898 -0.010732 -0.956320
    30 3.555528 0.023917 -0.200566 -0.011696 -0.130163 -1.232628
    31 1.668801 0.000002 0.000006 0.000002 0.185471 -1.019173
    32 1.240434 0.000004 0.000006 0.000002 0.000001 -1.190241
    33 3.449664 0.054212 -1.085181 0.046021 0.039494 -0.442111
    34 1.711614 0.000008 0.000011 0.000003 -0.037196 -1.061214
    35 1.005912 0.000002 0.000008 0.010371 -0.020068 -0.760519
    36 0.075532 -0.738750 -0.755818 1.207264 0.437115 -0.622303
    37 2.512458 -0.000006 -0.000006 -0.000002 -0.000001 0.359159
    38 1.292941 0.253912 -0.191418 0.020677 -0.054856 1.200296
    39 -5.617783 -18.793596 -9.707206 1.565370 0.000992 -3.141539
    40 0.000423 4.844375 3.496472 0.000019 -0.000028 0.000096
    41 0.000424 2.658789 -0.562086 0.000000 0.000000 0.000000
    42 0.000423 4.845897 5.246524 0.000000 0.000000 0.000000
    43 -0.995792 3.669771 -5.512417 0.000000 0.000000 0.000000
  time 10
    0 0.500000 -0.663086 -9.140625 -1.570760 -1.391893 -1.570827
    1 2.033348 1.000767 1.937660 3.099206 -0.162014 1.679995
    2 6.028145 0.000003 0.000002 -2.603312 -0.058563 -0.357076
    3 11.692553 0.000081 -0.000005 -0.153717 0.297218 -1.668786
    4 11.481672 -0.000089 -0.000025 1.393007 -0.325184 0.879867
    5 3.281559 0.002118 -1.379481 0.103752 -0.198280 -1.563883
    6 1.328125 -0.000004 0.000000 0.000001 -0.035315 -1.198774
    7 0.819336 -0.000001 0.000000 0.000000 0.000000 -1.062870
    8 3.711852 0.109255 -0.568167 0.061905 -0.133736 -1.727985
    9 1.609408 0.000006 -0.000007 -0.000002 0.002978 -0.322753
    10 0.993191 -0.000006 0.000001 0.003596 0.009293 -0.878058
    11 3.786029 0.203222 0.243937 0.031001 -0.100839 -1.728117
    12 1.680664 0.000002 -0.000003 0.000000 -0.002812 -0.342155
    13 1.256836 0.000004 0.000002 -0.006937 0.007488 -0.961574
    14 3.594221 0.299550 1.113710 0.015187 -0.117569 -1.456356
    15 1.723633 0.000004 0.000001 0.000000 0.000000 -0.979102
    16 1.002930 -0.000004 0.000000 0.000000 0.000000 -0.502634
    17 0.298212 -0.634094 0.426700 -1.477415 -0.743920 -0.371887
    18 2.636719 0.000000 -0.000004 -0.000002 -0.015109 0.779228
    19 1.308566 0.000000 -0.000002 -0.102838 -0.124257 1.081690
    20 2.033356 1.000772 -1.937610 -0.128177 0.172990 -2.038336
    21 6.028141 0.000000 -0.000002 -0.829000 0.821777 -2.565221
    22 11.692554 0.000000 -0.000001 0.018790 -0.033569 -1.016954
    23 11.481705 -0.000001 -0.000008 -0.610677 -0.013214 0.448036
    24 2.914335 -0.027073 1.400148 0.041064 0.042542 -1.568427
    25 1.284180 0.000000 -0.000002 0.000008 0.076727 -1.212138
    26 0.842285 0.000000 -0.000001 -0.076525 0.053954 -1.193840
    27 3.368059 0.007377 0.622456 0.027091 -0.031899 -1.504214
    28 1.609375 0.000000 -0.000001 0.000000 0.146271 -0.920427
    29 1.016602 0.000002 0.000000 0.007898 -0.010732 -0.956320
    30 3.555528 0.023917 -0.204473 -0.011696 -0.130438 -1.232846
    31 1.668801 0.000002 0.000006 0.000002 0.185471 -1.019173
    32 1.240434 0.000004 0.000006 0.000002 -0.000011 -1.190241
    33 3.449664 0.054212 -1.089088 0.047062 0.039290 -0.427281
    34 1.711614 0.000008 0.000011 0.000003 -0.036213 -1.016408
    35 1.005912 0.000002 0.000008 0.010622 -0.020355 -0.768648
    36 0.075532 -0.738750 -0.755818 1.209853 0.434034 -0.619739
    37 2.512458 -0.000006 -0.000006 -0.000002 -0.000001 0.359159
    38 1.289034 0.269538 -0.191418 0.025256 -0.046742 1.182487
    39 -5.613876 -18.856098 -9.738457 1.561777 0.000205 -3.140882
    40 0.000423 4.840469 3.496472 0.000019 0.000011 0.000096
    41 -0.003482 2.658789 -0.612869 0.000000 0.000000 0.000000
    42 0.000423 4.841991 5.246524 0.000000 0.000000 0.000000
    43 -0.995792 3.669771 -5.512417 0.000000 0.000000 0.000000
  time 11
    0 0.500000 -0.663086 -9.140625 -1.570760 -1.391893 -1.570827
    1 2.033348 1.000767 1.937660 3.099206 -0.162014 1.679995
    2 6.028145 0.000003 0.000002 -2.603025 -0.057950 -0.356695
    3 11.692553 0.000081 -0.000005 -0.151069 0.297458 -1.659741
    4 11.481672 -0.000089 -0.000025 1.399112 -0.329355 0.854555
    5 3.281559 0.002118 -1.379481 0.103734 -0.198280 -1.563883
    6 1.328125 -0.000004 0.000000 0.000001 -0.035315 -1.198774
    7 0.819336 -0.000001 0.000000 0.000000 0.000000 -1.062870
    8 3.711852 0.109255 -0.568167 0.061905 -0.133736 -1.727985
    9 1.609408 0.000006 -0.000007 -0.000002 0.002978 -0.322800
    10 0.993191 -0.000006 0.000001 0.003596 0.009293 -0.878088
    11 3.786029 0.203222 0.243937 0.031001 -0.100839 -1.728117
    12 1.680664 0.000002 -0.000003 0.000000 -0.002812 -0.342155
    13 1.256836 0.000004 0.000002 -0.006937 0.007488 -0.961574
    14 3.594221 0.299550 1.109803 0.015187 -0.117569 -1.456356
    15 1.723633 0.000004 0.000001 0.000000 0.000000 -0.979102
    16 1.002930 -0.000004 0.000000 0.000000 0.000000 -0.502634
    17 0.298212 -0.634094 0.426700 -1.477415 -0.743920 -0.371887
    18 2.636719 0.000000 -0.000004 -0.000002 -0.015109 0.779228
    19 1.308566 0.000000 -0.000002 -0.102850 -0.124257 1.081690
    20 2.033356 1.000772 -1.937610 -0.128177 0.172990 -2.038336
    21 6.028141 0.000000 -0.000002 -0.831780 0.817351 -2.568171
    22 11.692554 0.000000 -0.000001 0.018478 -0.033377 -1.007584
    23 11.481705 -0.000001 -0.000008 -0.612109 -0.013592 0.443658
    24 2.914335 -0.023166 1.404054 0.040970 0.042794 -1.568229
    25 1.284180 0.000000 -0.000002 0.000008 0.076727 -1.212138
    26 0.842285 0.000000 -0.000001 -0.076525 0.053954 -1.193840
    27 3.368059 0.007377 0.622456 0.027019 -0.031635 -1.504002
    28 1.609375 0.000000 -0.000001 0.000000 0.146271 -0.920427
    29 1.016602 0.000002 0.000000 0.007898 -0.010732 -0.956320
    30 3.555528 0.023917 -0.200566 -0.011696 -0.130151 -1.232628
    31 1.668801 0.000002 0.000006 0.000002 0.185471 -1.019173
    32 1.240434 0.000004 0.000006 0.000002 -0.000011 -1.190241
    33 3.449664 0.054212 -1.085181 0.048522 0.039446 -0.411565
    34 1.711614 0.000008 0.000011 0.000003 -0.034978 -0.966887
    35 1.005912 0.000002 0.000008 0.011030 -0.020799 -0.780971
    36 0.075532 -0.738750 -0.755818 1.213053 0.431112 -0.616323
    37 2.512458 -0.000006 -0.000006 -0.000002 -0.000001 0.359159
    38 1.281222 0.285163 -0.191418 0.031404 -0.034410 1.152338
    39 -5.602157 -18.910787 -9.761895 1.560164 -0.000393 -3.140487
    40 0.000423 4.840469 3.496472 0.000019 -0.000028 -0.000078
    41 0.000424 2.658789 -0.675371 0.000000 0.000000 0.000000
    42 0.000423 4.841991 5.246524 0.000000 0.000000 0.000000
    43 -0.995792 3.669771 -5.512417 0.000000 0.000000 0.000000
  time 12
    0 0.500000 -0.663086 -9.140625 -1.570760 -1.391893 -1.570827
    1 2.033348 1.000767 1.937660 3.099206 -0.162014 1.679995
    2 6.028145 0.000003 0.000002 -2.603694 -0.058233 -0.355264
    3 11.692553 0.000081 -0.000005 -0.148971 0.297613 -1.652609
    4 11.481672 -0.000089 -0.000025 1.405894 -0.333218 0.830696
    5 3.281559 0.002118 -1.379481 0.103734 -0.198280 -1.563883
    6 1.328125 -0.000004 0.000000 0.000001 -0.035315 -1.198774
    7 0.819336 -0.000001 0.000000 0.000000 0.000000 -1.062870
    8 3.711852 0.109255 -0.568167 0.061905 -0.133736 -1.727985
    9 1.609408 0.000006 -0.000007 -0.000002 0.002978 -0.322800
    10 0.993191 -0.000006 0.000001 0.003596 0.009293 -0.878058
    11 3.786029 0.203222 0.243937 0.031001 -0.100839 -1.728117
    12 1.680664 0.000002 -0.000003 0.000000 -0.002812 -0.342155
    13 1.256836 0.000004 0.000002 -0.006937 0.007488 -0.961574
    14 3.594221 0.299550 1.113710 0.015187 -0.117569 -1.456356
    15 1.723633 0.000004 0.000001 0.000000 0.000000 -0.979102
    16 1.002930 -0.000004 0.000000 0.000000 0.000000 -0.502634
    17 0.298212 -0.634094 0.426700 -1.477415 -0.743920 -0.371887
    18 2.636719 0.000000 -0.000004 -0.000002 -0.015109 0.779228
    19 1.308566 0.000000 -0.000002 -0.102850 -0.124257 1.081690
    20 2.033356 1.000772 -1.937610 -0.128177 0.172990 -2.038336
    21 6.028141 0.000000 -0.000002 -0.835040 0.813726 -2.572503
    22 11.692554 0.000000 -0.000001 0.018203 -0.033185 -0.999221
    23 11.481705 -0.000001 -0.000008 -0.612234 -0.012771 0.439694
    24 2.914335 -0.027073 1.404054 0.040808 0.042734 -1.568550
    25 1.284180 0.000000 -0.000002 0.000008 0.076727 -1.212138
    26 0.842285 0.000000 -0.000001 -0.076525 0.053954 -1.193840
    27 3.368059 0.007377 0.618550 0.026851 -0.031683 -1.504320
    28 1.609375 0.000000 -0.000001 0.000000 0.146271 -0.920427
    29 1.016602 0.000002 0.000000 0.007898 -0.010732 -0.956320
    30 3.555528 0.023917 -0.200566 -0.011864 -0.130175 -1.232905
    31 1.668801 0.000002 0.000006 0.000002 0.185471 -1.019195
    32 1.240434 0.000004 0.000006 0.000002 0.000001 -1.190241
    33 3.449664 0.054212 -1.085181 0.049665 0.039530 -0.396152
    34 1.711614 0.000008 0.000011 0.000003 -0.033540 -0.914730
    35 1.005912 0.000002 0.000008 0.011509 -0.021338 -0.796113
    36 0.075532 -0.738750 -0.755818 1.216061 0.427888 -0.613399
    37 2.512458 -0.000006 -0.000006 -0.000002 -0.000001 0.359159
    38 1.281222 0.300789 -0.199231 0.038031 -0.018998 1.113921
    39 -5.602157 -18.957664 -9.757989 1.561154 -0.000650 -3.140487
    40 0.000423 4.840469 3.496472 0.000019 -0.000028 0.000009
    41 0.000424 2.658789 -0.741779 0.000000 0.000000 0.000000
    42 0.000423 4.841991 5.246524 0.000000 0.000000 0.000000
    43 -0.995792 3.669771 -5.512417 0.000000 0.000000 0.000000
  time 13
    0 0.500000 -0.663086 -9.140625 -1.570760 -1.391893 -1.570827
    1 2.033348 1.000767 1.937660 3.099206 -0.162014 1.679995
    2 6.028145 0.000003 0.000002 -2.605129 -0.059175 -0.353069
    3 11.692553 0.000081 -0.000005 -0.147234 0.297757 -1.646653
    4 11.481672 -0.000089 -0.000025 1.413101 -0.336466 0.808634
    5 3.281559 0.002118 -1.379481 0.103734 -0.198268 -1.563883
    6 1.328125 -0.000004 0.000000 0.000001 -0.035315 -1.198774
    7 0.819336 -0.000001 0.000000 0.000000 0.000000 -1.062870
    8 3.711852 0.109255 -0.568167 0.061905 -0.133724 -1.727985
    9 1.609408 0.000006 -0.000007 -0.000002 0.002978 -0.322753
    10 0.993191 -0.000006 0.000001 0.003596 0.009293 -0.878088
    11 3.786029 0.203222 0.243937 0.031001 -0.100839 -1.728117
    12 1.680664 0.000002 -0.000003 0.000000 -0.002812 -0.342155
    13 1.256836 0.000004 0.000002 -0.006937 0.007488 -0.961574
    14 3.594221 0.299550 1.109803 0.015208 -0.117569 -1.456356
    15 1.723633 0.000004 0.000001 0.000000 0.000000 -0.979102
    16 1.002930 -0.000004 0.000000 0.000000 0.000000 -0.502634
    17 0.298212 -0.634094 0.426700 -1.477415 -0.743920 -0.371887
    18 2.636719 0.000000 -0.000004 -0.000002 -0.015109 0.779228
    19 1.308566 0.000000 -0.000002 -0.102850 -0.124257 1.081690
    20 2.033356 1.000772 -1.937610 -0.128177 0.172990 -2.038336
    21 6.028141 0.000000 -0.000002 -0.837724 0.811183 -2.576651
    22 11.692554 0.000000 -0.000001 0.017987 -0.033066 -0.992800
    23 11.481705 -0.000001 -0.000008 -0.611735 -0.010840 0.435286
    24 2.914335 -0.023166 1.400148 0.040970 0.042794 -1.568229
    25 1.284180 0.000000 -0.000002 0.000008 0.076727 -1.212138
    26 0.842285 0.000000 -0.000001 -0.076525 0.053954 -1.193840
    27 3.368059 0.007377 0.622456 0.027019 -0.031635 -1.504023
    28 1.609375 0.000000 -0.000001 0.000000 0.146271 -0.920427
    29 1.016602 0.000002 0.000000 0.007898 -0.010732 -0.956320
    30 3.555528 0.023917 -0.200566 -0.011696 -0.130163 -1.232628
    31 1.668801 0.000002 0.000006 0.000002 0.185471 -1.019173
    32 1.240434 0.000004 0.000006 0.000002 -0.000011 -1.190241
    33 3.449664 0.054212 -1.089088 0.051023 0.039362 -0.380249
    34 1.711614 0.000008 0.000011 0.000003 -0.031946 -0.861900
    35 1.005912 0.000002 0.000008 0.012061 -0.021925 -0.812628
    36 0.075532 -0.738750 -0.755818 1.219405 0.424421 -0.609708
    37 2.512458 -0.000006 -0.000006 -0.000002 -0.000001 0.359159
    38 1.277315 0.320320 -0.199231 0.044215 -0.001788 1.071381
    39 -5.606064 -18.996728 -9.730644 1.564233 -0.000530 -3.140750
    40 0.000423 4.844375 3.496472 0.000019 -0.000028 0.000096
    41 -0.003482 2.658789 -0.812094 0.000000 0.000000 0.000000
    42 0.000423 4.845897 5.246524 0.000000 0.000000 0.000000
    43 -0.995792 3.669771 -5.512417 0.000000 0.000000 0.000000
  time 14
    0 0.500000 -0.663086 -9.140625 -1.570760 -1.391893 -1.570827
    1 2.033348 1.000767 1.937660 3.099206 -0.162014 1.679995
    2 6.028145 0.000003 0.000002 -2.607616 -0.060730 -0.349730
    3 11.692553 0.000081 -0.000005 -0.145820 0.297841 -1.641873
    4 11.481672 -0.000089 -0.000025 1.420392 -0.338824 0.789339
    5 3.281559 0.002118 -1.383388 0.103734 -0.198268 -1.563883
    6 1.328125 -0.000004 0.000000 0.000001 -0.035315 -1.198774
    7 0.819336 -0.000001 0.000000 0.000000 0.000000 -1.062870
    8 3.711852 0.109255 -0.568167 0.061905 -0.133724 -1.727985
    9 1.609408 0.000006 -0.000007 -0.000002 0.002978 -0.322800
    10 0.993191 -0.000006 0.000001 0.003596 0.009293 -0.878058
    11 3.786029 0.203222 0.243937 0.031001 -0.100839 -1.728117
    12 1.680664 0.000002 -0.000003 0.000000 -0.002812 -0.342155
    13 1.256836 0.000004 0.000002 -0.006937 0.007488 -0.961574
    14 3.594221 0.299550 1.109803 0.015187 -0.117569 -1.456356
    15 1.723633 0.000004 0.000001 0.000000 0.000000 -0.979102
    16 1.002930 -0.000004 0.000000 0.000000 0.000000 -0.502634
    17 0.298212 -0.634094 0.426700 -1.477415 -0.743920 -0.371887
    18 2.636719 0.000000 -0.000004 -0.000002 -0.015109 0.779228
    19 1.308566 0.000000 -0.000002 -0.102850 -0.124257 1.081690
    20 2.033356 1.000772 -1.937610 -0.128177 0.172990 -2.038336
    21 6.028141 0.000000 -0.000002 -0.839833 0.809535 -2.580061
    22 11.692554 0.000000 -0.000001 0.017843 -0.032958 -0.988282
    23 11.481705 -0.000001 -0.000008 -0.610926 -0.008532 0.431855
    24 2.914335 -0.023166 1.404054 0.040970 0.042794 -1.568229
    25 1.284180 0.000000 -0.000002 0.000008 0.076727 -1.212138
    26 0.842285 0.000000 -0.000001 -0.076525 0.053954 -1.193840
    27 3.368059 0.007377 0.622456 0.027019 -0.031635 -1.504002
    28 1.609375 0.000000 -0.000001 0.000000 0.146271 -0.920427
    29 1.016602 0.000002 0.000000 0.007898 -0.010732 -0.956320
    30 3.555528 0.023917 -0.200566 -0.011696 -0.130163 -1.232628
    31 1.668801 0.000002 0.000006 0.000002 0.185471 -1.019173
    32 1.240434 0.000004 0.000006 0.000002 -0.000011 -1.190241
    33 3.449664 0.054212 -1.085181 0.052229 0.039302 -0.365023
    34 1.715521 0.000008 0.000011 0.000003 -0.030281 -0.810388
    35 1.005912 0.000002 0.000008 0.012624 -0.022488 -0.829126
    36 0.079438 -0.738750 -0.755818 1.222449 0.421126 -0.606484
    37 2.512458 -0.000006 -0.000006 -0.000002 -0.000001 0.359159
    38 1.273409 0.335946 -0.199231 0.049345 0.015746 1.028686
    39 -5.613876 -19.027979 -9.695487 1.567936 -0.000257 -3.141210
    40 0.000423 4.844375 3.496472 0.000019 -0.000028 0.000096
    41 0.000424 2.658789 -0.901940 0.000000 0.000000 0.000000
    42 0.000423 4.841991 5.250430 0.000000 0.000000 0.000000
    43 -0.995792 3.669771 -5.512417 0.000000 0.000000 0.000000
  time 15
    0 0.500000 -0.663086 -9.140625 -1.570760 -1.391893 -1.570827
    1 2.033348 1.000767 1.937660 3.099206 -0.162014 1.679995
    2 6.028145 0.000003 0.000002 -2.610581 -0.062473 -0.346200
    3 11.692553 0.000081 -0.000005 -0.144813 0.297925 -1.638417
    4 11.481672 -0.000089 -0.000025 1.427175 -0.340465 0.773295
    5 3.281559 0.002118 -1.383388 0.103734 -0.198268 -1.563883
    6 1.328125 -0.000004 0.000000 0.000001 -0.035315 -1.198774
    7 0.819336 -0.000001 0.000000 0.000000 0.000000 -1.062870
    8 3.711852 0.109255 -0.568167 0.061905 -0.133724 -1.727985
    9 1.609408 0.000006 -0.000007 -0.000002 0.002978 -0.322800
    10 0.993191 -0.000006 0.000001 0.003596 0.009305 -0.878088
    11 3.786029 0.203222 0.243937 0.031001 -0.100839 -1.728117
    12 1.680664 0.000002 -0.000003 0.000000 -0.002812 -0.342155
    13 1.256836 0.000004 0.000002 -0.006937 0.007488 -0.961574
    14 3.594221 0.299550 1.109803 0.015187 -0.117569 -1.456356
    15 1.723633 0.000004 0.000001 0.000000 0.000000 -0.979102
    16 1.002930 -0.000004 0.000000 0.000000 0.000000 -0.502634
    17 0.298212 -0.634094 0.426700 -1.477415 -0.743920 -0.371887
    18 2.636719 0.000000 -0.000004 -0.000002 -0.015109 0.779228
    19 1.308566 0.000000 -0.000002 -0.102850 -0.124257 1.081690
    20 2.033356 1.000772 -1.937610 -0.128177 0.172990 -2.038336
    21 6.028141 0.000000 -0.000002 -0.841559 0.808264 -2.582827
    22 11.692554 0.000000 -0.000001 0.017723 -0.032886 -0.984698
    23 11.481705 -0.000001 -0.000008 -0.610179 -0.006734 0.429163
    24 2.914335 -0.023166 1.404054 0.040970 0.042794 -1.568229
    25 1.284180 0.000000 -0.000002 0.000008 0.076727 -1.212138
    26 0.842285 0.000000 -0.000001 -0.076525 0.053954 -1.193840
    27 3.368059 0.007377 0.622456 0.027019 -0.031635 -1.504023
    28 1.609375 0.000000 -0.000001 0.000000 0.146271 -0.920427
    29 1.016602 0.000002 0.000000 0.007898 -0.010732 -0.956320
    30 3.555528 0.023917 -0.200566 -0.011696 -0.130163 -1.232628
    31 1.668801 0.000002 0.000006 0.000002 0.185471 -1.019173
    32 1.240434 0.000004 0.000006 0.000002 -0.000011 -1.190241
    33 3.449664 0.054212 -1.085181 0.053372 0.039230 -0.350426
    34 1.715521 0.000008 0.000011 0.000003 -0.028627 -0.762243
    35 1.005912 0.000002 0.000008 0.013139 -0.023004 -0.844231
    36 0.075532 -0.738750 -0.755818 1.225301 0.418061 -0.603476
    37 2.512458 -0.000006 -0.000006 -0.000002 -0.000001 0.359159
    38 1.265596 0.355478 -0.199231 0.053132 0.032117 0.989802
    39 -5.617783 -19.051417 -9.675955 1.570796 0.000000 -3.141605
    40 0.000423 4.840469 3.496472 0.000019 -0.000028 0.000096
    41 0.000424 2.658789 -0.999599 0.000000 0.000000 0.000000
    42 0.000423 4.841991 5.246524 0.000000 0.000000 0.000000
    43 -0.995792 3.669771 -5.512417 0.000000 0.000000 0.000000
end
