// Created by Crowbar++ 0.74
version 1
nodes
  0 "ValveBiped.Bip01_Spine4" -1
  1 "ValveBiped.Bip01_L_Clavicle" 0
  2 "ValveBiped.Bip01_L_UpperArm" 1
  3 "ValveBiped.Bip01_L_Forearm" 2
  4 "ValveBiped.Bip01_L_Hand" 3
  5 "ValveBiped.Bip01_L_Finger4" 4
  6 "ValveBiped.Bip01_L_Finger41" 5
  7 "ValveBiped.Bip01_L_Finger42" 6
  8 "ValveBiped.Bip01_L_Finger3" 4
  9 "ValveBiped.Bip01_L_Finger31" 8
  10 "ValveBiped.Bip01_L_Finger32" 9
  11 "ValveBiped.Bip01_L_Finger2" 4
  12 "ValveBiped.Bip01_L_Finger21" 11
  13 "ValveBiped.Bip01_L_Finger22" 12
  14 "ValveBiped.Bip01_L_Finger1" 4
  15 "ValveBiped.Bip01_L_Finger11" 14
  16 "ValveBiped.Bip01_L_Finger12" 15
  17 "ValveBiped.Bip01_L_Finger0" 4
  18 "ValveBiped.Bip01_L_Finger01" 17
  19 "ValveBiped.Bip01_L_Finger02" 18
  20 "ValveBiped.Bip01_R_Clavicle" 0
  21 "ValveBiped.Bip01_R_UpperArm" 20
  22 "ValveBiped.Bip01_R_Forearm" 21
  23 "ValveBiped.Bip01_R_Hand" 22
  24 "ValveBiped.Bip01_R_Finger4" 23
  25 "ValveBiped.Bip01_R_Finger41" 24
  26 "ValveBiped.Bip01_R_Finger42" 25
  27 "ValveBiped.Bip01_R_Finger3" 23
  28 "ValveBiped.Bip01_R_Finger31" 27
  29 "ValveBiped.Bip01_R_Finger32" 28
  30 "ValveBiped.Bip01_R_Finger2" 23
  31 "ValveBiped.Bip01_R_Finger21" 30
  32 "ValveBiped.Bip01_R_Finger22" 31
  33 "ValveBiped.Bip01_R_Finger1" 23
  34 "ValveBiped.Bip01_R_Finger11" 33
  35 "ValveBiped.Bip01_R_Finger12" 34
  36 "ValveBiped.Bip01_R_Finger0" 23
  37 "ValveBiped.Bip01_R_Finger01" 36
  38 "ValveBiped.Bip01_R_Finger02" 37
  39 "v_weapon.TMP_Parent" -1
  40 "v_weapon.TMP_Clip" 39
  41 "v_weapon.TMP_ShellEject" 39
  42 "v_weapon.TMP_Trigger" 39
  43 "v_weapon.TMP_Clip2" -1
end
skeleton
  time 0
    0 0.000005 -1.663086 -9.140625 -1.570760 -1.391893 -1.570827
    1 2.033348 1.000767 1.937660 3.099206 -0.162014 1.679995
    2 6.028138 0.000009 0.000002 -1.587716 0.165401 -1.056583
    3 11.692574 0.000164 -0.000020 0.103800 -0.721987 -1.249326
    4 11.481693 -0.000162 -0.000041 1.765631 0.577981 1.396499
    5 3.281560 0.002101 -1.379482 0.043449 -0.170511 -0.824075
    6 1.324282 -0.000013 0.000005 0.000001 -0.058536 -0.582031
    7 0.815307 -0.000004 -0.000001 0.000002 -0.000003 -0.916225
    8 3.711850 0.109238 -0.568167 -0.034715 -0.151712 -1.089806
    9 1.609410 0.000002 -0.000005 -0.000001 0.006538 -0.732887
    10 0.993193 -0.000008 0.000001 0.003548 0.008767 -0.846679
    11 3.786027 0.203209 0.247843 -0.045570 -0.107970 -1.134961
    12 1.684420 -0.000015 0.000010 0.000002 0.012345 -0.881308
    13 1.252151 -0.000010 0.000004 -0.006040 0.006842 -0.916153
    14 3.594219 0.299534 1.113709 -0.013414 -0.117788 -1.213838
    15 1.719431 -0.000010 -0.000004 -0.000005 0.000016 -0.811511
    16 1.005919 -0.000008 0.000003 0.000004 0.000018 -1.160572
    17 0.298210 -0.634100 0.426700 -1.430503 -0.525054 -0.559215
    18 2.633565 0.000002 -0.000006 -0.000002 0.003211 0.560548
    19 1.308564 -0.000001 -0.000006 -0.026233 -0.055118 0.588009
    20 2.033356 1.000772 -1.937609 -0.128177 0.172990 -2.038336
    21 6.028134 0.000001 -0.000002 -0.189836 0.653967 -1.635528
    22 11.692558 0.000084 0.000007 0.029183 -0.042581 -1.219948
    23 11.481697 -0.000003 -0.000004 -1.512994 -0.367011 1.353055
    24 2.914331 -0.023166 1.400148 -0.087254 -0.051811 -0.871450
    25 1.285218 0.000002 0.000000 0.000005 0.091241 -0.570111
    26 0.842285 0.000000 0.000000 -0.106904 0.058038 -1.427404
    27 3.368059 0.007374 0.622456 0.035973 -0.077319 -1.016266
    28 1.610352 0.000000 -0.000001 -0.000005 0.127994 -1.218714
    29 1.024441 0.000008 -0.000002 0.011970 -0.012977 -1.177927
    30 3.555524 0.023920 -0.200566 0.012608 -0.103497 -0.905354
    31 1.666016 -0.000002 -0.000002 -0.000009 0.161971 -1.296565
    32 1.240438 -0.000008 0.000006 0.000001 -0.000011 -1.274010
    33 3.449664 0.054214 -1.085181 0.057615 0.157520 -0.296961
    34 1.707706 -0.000006 0.000010 0.000001 -0.029514 -0.784931
    35 0.998535 0.000000 0.000001 0.005618 -0.013551 -0.593085
    36 0.075532 -0.738749 -0.759723 1.293521 0.406470 -0.475805
    37 2.508555 -0.000002 -0.000004 -0.000004 0.000001 0.359160
    38 1.303711 0.270508 -0.093750 -0.005387 -0.039668 0.957143
    39 -6.500281 -13.080692 -23.518313 0.080450 -0.070686 3.379058
    40 -0.000002 2.197265 1.738281 0.000000 0.000000 0.000000
    41 -0.000005 3.713594 3.157173 0.000000 0.000000 0.000000
    42 -0.000006 2.774759 -0.359640 0.000000 0.000000 0.000000
    43 -1.364069 26.951141 -5.804949 1.570796 0.000000 1.570782
  time 1
    0 0.000005 -1.663086 -9.140625 -1.570760 -1.391893 -1.570827
    1 2.033348 1.000767 1.937660 3.099206 -0.162014 1.679995
    2 6.028138 0.000009 0.000002 -1.587716 0.165401 -1.056583
    3 11.692574 0.000164 -0.000020 0.103800 -0.721987 -1.249326
    4 11.481693 -0.000162 -0.000041 1.765631 0.577981 1.396499
    5 3.281560 0.002101 -1.379482 0.043449 -0.170511 -0.824075
    6 1.324282 -0.000013 0.000005 0.000001 -0.058536 -0.582031
    7 0.815307 -0.000004 -0.000001 0.000002 -0.000003 -0.916225
    8 3.711850 0.109238 -0.568167 -0.034715 -0.151712 -1.089806
    9 1.609410 0.000002 -0.000005 -0.000001 0.006538 -0.732887
    10 0.993193 -0.000008 0.000001 0.003548 0.008767 -0.846679
    11 3.786027 0.203209 0.247843 -0.045570 -0.107970 -1.134961
    12 1.684420 -0.000015 0.000010 0.000002 0.012345 -0.881308
    13 1.252151 -0.000010 0.000004 -0.006040 0.006842 -0.916153
    14 3.594219 0.299534 1.113709 -0.013414 -0.117788 -1.213838
    15 1.719431 -0.000010 -0.000004 -0.000005 0.000016 -0.811511
    16 1.005919 -0.000008 0.000003 0.000004 0.000018 -1.160572
    17 0.298210 -0.634100 0.426700 -1.430503 -0.525054 -0.559215
    18 2.633565 0.000002 -0.000006 -0.000002 0.003211 0.560548
    19 1.308564 -0.000001 -0.000006 -0.026233 -0.055118 0.588009
    20 2.033356 1.000772 -1.937609 -0.128177 0.172990 -2.038336
    21 6.028134 0.000001 -0.000002 -0.189836 0.653967 -1.635528
    22 11.692558 0.000084 0.000007 0.029183 -0.042581 -1.219948
    23 11.481697 -0.000003 -0.000004 -1.512994 -0.367011 1.353055
    24 2.914331 -0.023166 1.400148 -0.087254 -0.051811 -0.871450
    25 1.285218 0.000002 0.000000 0.000005 0.091241 -0.570111
    26 0.842285 0.000000 0.000000 -0.106904 0.058038 -1.427404
    27 3.368059 0.007374 0.622456 0.035973 -0.077319 -1.016266
    28 1.610352 0.000000 -0.000001 -0.000005 0.127994 -1.218714
    29 1.024441 0.000008 -0.000002 0.011970 -0.012977 -1.177927
    30 3.555524 0.023920 -0.200566 0.012608 -0.103497 -0.905354
    31 1.666016 -0.000002 -0.000002 -0.000009 0.161971 -1.296565
    32 1.240438 -0.000008 0.000006 0.000001 -0.000011 -1.274010
    33 3.449664 0.054214 -1.085181 0.057615 0.157520 -0.296961
    34 1.707706 -0.000006 0.000010 0.000001 -0.029514 -0.784931
    35 0.998535 0.000000 0.000001 0.005618 -0.013551 -0.593085
    36 0.075532 -0.738749 -0.759723 1.293521 0.406470 -0.475805
    37 2.508555 -0.000002 -0.000004 -0.000004 0.000001 0.359160
    38 1.303711 0.270508 -0.093750 -0.005387 -0.039668 0.957143
    39 -6.500281 -13.080692 -23.518313 0.080450 -0.070686 3.379058
    40 -0.000002 2.197265 1.738281 0.000000 0.000000 0.000000
    41 -0.000005 3.713594 3.157173 0.000000 0.000000 0.000000
    42 -0.000006 2.774759 -0.359640 0.000000 0.000000 0.000000
    43 -1.364069 26.951141 -5.804949 1.570796 0.000000 1.570782
  time 2
    0 0.000005 -1.663086 -9.140625 -1.570760 -1.391893 -1.570827
    1 2.033348 1.000767 1.937660 3.099206 -0.162014 1.679995
    2 6.028138 0.000009 0.000002 -1.599471 0.128361 -0.985702
    3 11.692574 0.000164 -0.000020 0.117145 -0.725225 -1.269415
    4 11.481693 -0.000162 -0.000041 1.628022 0.581630 1.336722
    5 3.277654 0.006007 -1.379482 0.038680 -0.167431 -0.781425
    6 1.324282 -0.000013 0.000005 0.000001 -0.057733 -0.557303
    7 0.815307 -0.000004 -0.000001 0.000002 -0.000003 -0.904427
    8 3.707943 0.109238 -0.568167 -0.046304 -0.148991 -1.014087
    9 1.605503 0.000002 -0.000005 -0.000001 0.005051 -0.697128
    10 0.993193 -0.000008 0.000001 0.003381 0.007556 -0.777745
    11 3.782120 0.207115 0.247843 -0.057686 -0.104998 -1.037158
    12 1.684420 -0.000015 0.000010 0.000002 0.010931 -0.797264
    13 1.252151 -0.000010 0.000004 -0.004734 0.005752 -0.845008
    14 3.590312 0.299534 1.113709 -0.028264 -0.115007 -1.089182
    15 1.719431 -0.000010 -0.000004 -0.000005 0.000016 -0.731584
    16 1.005919 -0.000008 0.000003 0.000004 0.000018 -1.055546
    17 0.294304 -0.634100 0.426700 -1.410248 -0.499934 -0.616128
    18 2.633565 0.000002 -0.000006 -0.000002 0.007250 0.544188
    19 1.308564 -0.000001 -0.000006 -0.021631 -0.047915 0.547753
    20 2.033356 1.000772 -1.937609 -0.128177 0.172990 -2.038336
    21 6.028134 0.000001 -0.000002 -0.300515 0.665490 -1.811674
    22 11.692558 0.000084 0.000007 0.019847 -0.032370 -1.102870
    23 11.481697 -0.000003 -0.000004 -1.347772 -0.407737 1.208692
    24 2.914331 -0.027073 1.404054 -0.087254 -0.051811 -0.871450
    25 1.285218 0.000002 0.000000 0.000005 0.091241 -0.570111
    26 0.842285 0.000000 0.000000 -0.106904 0.058038 -1.427404
    27 3.368059 0.007374 0.622456 0.035985 -0.077319 -1.016266
    28 1.610352 0.000000 -0.000001 -0.000005 0.127994 -1.218714
    29 1.024441 0.000008 -0.000002 0.011970 -0.012977 -1.177927
    30 3.555524 0.023920 -0.200566 0.012608 -0.103497 -0.905354
    31 1.666016 -0.000002 -0.000002 -0.000009 0.161971 -1.296565
    32 1.240438 -0.000008 0.000006 0.000001 -0.000011 -1.274010
    33 3.449664 0.054214 -1.085181 0.057615 0.157520 -0.296961
    34 1.707706 -0.000006 0.000010 0.000001 -0.029514 -0.784931
    35 0.998535 0.000000 0.000001 0.005618 -0.013551 -0.593085
    36 0.075532 -0.738749 -0.759723 1.293533 0.406470 -0.475805
    37 2.508555 -0.000002 -0.000004 -0.000004 0.000001 0.359148
    38 1.303711 0.270508 -0.093750 -0.005387 -0.039668 0.957143
    39 -6.312775 -15.303416 -22.377653 0.250763 -0.048990 3.288391
    40 -0.000002 2.197265 1.738281 0.000000 0.000000 0.000000
    41 -0.000005 3.713594 3.157173 0.000000 0.000000 0.000000
    42 -0.000006 2.774759 -0.359640 0.000000 0.000000 0.000000
    43 -1.364069 26.951141 -5.804949 1.570796 0.000000 1.570782
  time 3
    0 0.000005 -1.663086 -9.140625 -1.570760 -1.391893 -1.570827
    1 2.033348 1.000767 1.937660 3.099206 -0.162014 1.679995
    2 6.028138 0.000009 0.000002 -1.620201 0.093740 -0.909819
    3 11.692574 0.000164 -0.000020 0.126725 -0.727374 -1.283866
    4 11.481693 -0.000162 -0.000041 1.485993 0.580870 1.278513
    5 3.277654 0.002101 -1.379482 0.033878 -0.164207 -0.735985
    6 1.324282 -0.000013 0.000005 0.000001 -0.056534 -0.530154
    7 0.815307 -0.000004 -0.000001 0.000002 -0.000003 -0.889022
    8 3.707943 0.109238 -0.568167 -0.058288 -0.145228 -0.931051
    9 1.609410 0.000002 -0.000005 -0.000001 0.003493 -0.659021
    10 0.993193 -0.000008 0.000001 0.003117 0.006346 -0.706123
    11 3.782120 0.203209 0.243936 -0.069935 -0.100767 -0.929577
    12 1.684420 -0.000015 0.000010 0.000002 0.009121 -0.707603
    13 1.252151 -0.000010 0.000004 -0.003404 0.004457 -0.767417
    14 3.590312 0.299534 1.109803 -0.043607 -0.110177 -0.951997
    15 1.719431 -0.000010 -0.000004 -0.000005 0.000016 -0.645146
    16 1.005919 -0.000008 0.000003 0.000004 0.000018 -0.944899
    17 0.294304 -0.634100 0.426700 -1.390270 -0.471444 -0.679980
    18 2.633565 0.000002 -0.000006 -0.000002 0.010989 0.525807
    19 1.308564 -0.000001 -0.000006 -0.016789 -0.039574 0.502422
    20 2.033356 1.000772 -1.937609 -0.128177 0.172990 -2.038336
    21 6.028134 0.000001 -0.000002 -0.419847 0.681107 -1.999415
    22 11.692558 0.000084 0.000007 0.017762 -0.033725 -0.977294
    23 11.481697 -0.000003 -0.000004 -1.155119 -0.432700 1.049349
    24 2.914331 -0.023166 1.404054 -0.087254 -0.051811 -0.871450
    25 1.285218 0.000002 0.000000 0.000005 0.091241 -0.570111
    26 0.842285 0.000000 0.000000 -0.106904 0.058038 -1.427404
    27 3.368059 0.007374 0.622456 0.035973 -0.077331 -1.016266
    28 1.610352 0.000000 -0.000001 -0.000005 0.127994 -1.218714
    29 1.024441 0.000008 -0.000002 0.011970 -0.012977 -1.177927
    30 3.555524 0.023920 -0.200566 0.012608 -0.103497 -0.905354
    31 1.666016 -0.000002 -0.000002 -0.000009 0.161971 -1.296565
    32 1.240438 -0.000008 0.000006 0.000001 -0.000011 -1.274010
    33 3.449664 0.054214 -1.089088 0.057615 0.157520 -0.296961
    34 1.707706 -0.000006 0.000010 0.000001 -0.029514 -0.784931
    35 0.998535 0.000000 0.000001 0.005618 -0.013551 -0.593085
    36 0.075532 -0.738749 -0.759723 1.293521 0.406470 -0.475805
    37 2.508555 -0.000002 -0.000004 -0.000004 0.000001 0.359160
    38 1.303711 0.270508 -0.093750 -0.005387 -0.039668 0.957143
    39 -6.355745 -17.463639 -20.807293 0.425259 -0.005697 3.192359
    40 -0.000002 2.197265 1.738281 0.000000 0.000000 0.000000
    41 -0.000005 3.713594 3.157173 0.000000 0.000000 0.000000
    42 -0.000006 2.774759 -0.359640 0.000000 0.000000 0.000000
    43 -1.364069 26.951141 -5.804949 1.570796 0.000000 1.570782
  time 4
    0 0.000005 -1.663086 -9.140625 -1.570760 -1.391893 -1.570827
    1 2.033348 1.000767 1.937660 3.099206 -0.162014 1.679995
    2 6.028138 0.000009 0.000002 -1.647533 0.062086 -0.830721
    3 11.692574 0.000164 -0.000020 0.133427 -0.728808 -1.293950
    4 11.481693 -0.000162 -0.000041 1.345282 0.576194 1.220470
    5 3.281560 0.002101 -1.379482 0.029027 -0.160732 -0.689987
    6 1.324282 -0.000013 0.000005 0.000001 -0.055036 -0.502383
    7 0.815307 -0.000004 -0.000001 0.000002 -0.000003 -0.872673
    8 3.711850 0.109238 -0.572073 -0.070045 -0.140374 -0.846324
    9 1.609410 0.000002 -0.000005 -0.000001 0.002007 -0.620294
    10 0.993193 -0.000008 0.000001 0.002745 0.005123 -0.633794
    11 3.786027 0.203209 0.247843 -0.081524 -0.095290 -0.819736
    12 1.684420 -0.000015 0.000010 0.000002 0.007000 -0.616529
    13 1.252151 -0.000010 0.000004 -0.002109 0.003067 -0.688263
    14 3.594219 0.299534 1.113709 -0.058358 -0.103250 -0.811895
    15 1.719431 -0.000010 -0.000004 -0.000005 0.000016 -0.557175
    16 1.005919 -0.000008 0.000003 0.000004 0.000018 -0.832910
    17 0.298210 -0.634100 0.426700 -1.372630 -0.440533 -0.746822
    18 2.633565 0.000002 -0.000006 -0.000002 0.014033 0.506201
    19 1.308564 -0.000001 -0.000006 -0.012067 -0.030466 0.454184
    20 2.033356 1.000772 -1.937609 -0.128177 0.172990 -2.038336
    21 6.028134 0.000001 -0.000002 -0.544025 0.688265 -2.183759
    22 11.692558 0.000084 0.000007 0.010967 -0.024413 -0.850338
    23 11.481697 -0.000003 -0.000004 -0.956363 -0.445752 0.887850
    24 2.914331 -0.023166 1.400148 -0.087254 -0.051811 -0.871450
    25 1.285218 0.000002 0.000000 0.000005 0.091241 -0.570111
    26 0.842285 0.000000 0.000000 -0.106904 0.058038 -1.427404
    27 3.368059 0.007374 0.618550 0.035973 -0.077319 -1.016266
    28 1.610352 0.000000 -0.000001 -0.000005 0.127994 -1.218714
    29 1.024441 0.000008 -0.000002 0.011970 -0.012977 -1.177927
    30 3.555524 0.023920 -0.200566 0.012608 -0.103497 -0.905354
    31 1.666016 -0.000002 -0.000002 -0.000009 0.161971 -1.296565
    32 1.240438 -0.000008 0.000006 0.000001 -0.000011 -1.274010
    33 3.449664 0.054214 -1.089088 0.057615 0.157520 -0.296961
    34 1.707706 -0.000006 0.000010 0.000001 -0.029514 -0.784931
    35 0.998535 0.000000 0.000001 0.005618 -0.013551 -0.593085
    36 0.075532 -0.738749 -0.759723 1.293533 0.406470 -0.475805
    37 2.508555 -0.000002 -0.000004 -0.000004 0.000001 0.359160
    38 1.303711 0.270508 -0.093750 -0.005387 -0.039668 0.957143
    39 -6.664349 -19.385572 -18.885359 0.597399 0.057602 3.101753
    40 -0.000002 2.197265 1.738281 0.000000 0.000000 0.000000
    41 -0.000005 3.713594 3.157173 0.000000 0.000000 0.000000
    42 -0.000006 2.774759 -0.359640 0.000000 0.000000 0.000000
    43 -1.364069 26.951141 -5.804949 1.570796 0.000000 1.570782
  time 5
    0 0.000005 -1.663086 -9.140625 -1.570760 -1.391893 -1.570827
    1 2.033348 1.000767 1.937660 3.099206 -0.162014 1.679995
    2 6.028138 0.000009 0.000002 -1.678107 0.033290 -0.750837
    3 11.692574 0.000164 -0.000020 0.137787 -0.729737 -1.300461
    4 11.481693 -0.000162 -0.000041 1.211009 0.567222 1.159744
    5 3.281560 0.002101 -1.379482 0.024110 -0.156813 -0.645384
    6 1.324282 -0.000013 0.000005 0.000001 -0.053346 -0.475882
    7 0.815307 -0.000004 -0.000001 0.000002 -0.000003 -0.858145
    8 3.711850 0.109238 -0.568167 -0.080987 -0.134502 -0.765445
    9 1.609410 0.000002 -0.000005 -0.000001 0.000689 -0.582774
    10 0.993193 -0.000008 0.000001 0.002302 0.003973 -0.562823
    11 3.786027 0.203209 0.247843 -0.091878 -0.088711 -0.714873
    12 1.684420 -0.000015 0.000010 0.000002 0.004759 -0.528281
    13 1.252151 -0.000010 0.000004 -0.001031 0.001617 -0.612283
    14 3.594219 0.299534 1.113709 -0.071571 -0.094585 -0.678257
    15 1.719431 -0.000010 -0.000004 -0.000005 0.000016 -0.472365
    16 1.005919 -0.000008 0.000003 0.000004 0.000018 -0.723662
    17 0.298210 -0.634100 0.426700 -1.358935 -0.408364 -0.812849
    18 2.633565 0.000002 -0.000006 -0.000002 0.016154 0.486074
    19 1.308564 -0.000001 -0.000006 -0.007717 -0.020962 0.405258
    20 2.033356 1.000772 -1.937609 -0.128177 0.172990 -2.038336
    21 6.028134 0.000001 -0.000002 -0.670453 0.698242 -2.364410
    22 11.692558 0.000084 0.000007 0.011123 -0.029806 -0.729120
    23 11.481697 -0.000003 -0.000004 -0.753454 -0.434144 0.730224
    24 2.914331 -0.027073 1.404054 -0.087339 -0.051499 -0.871578
    25 1.285218 0.000002 0.000000 0.000005 0.091241 -0.570111
    26 0.842285 0.000000 0.000000 -0.106904 0.058038 -1.427404
    27 3.368059 0.007374 0.618550 0.035841 -0.077044 -1.016407
    28 1.610352 0.000000 -0.000001 -0.000005 0.127994 -1.218714
    29 1.024441 0.000008 -0.000002 0.011970 -0.012977 -1.177927
    30 3.555524 0.023920 -0.200566 0.012500 -0.103197 -0.905468
    31 1.666016 -0.000002 -0.000002 -0.000009 0.161971 -1.296565
    32 1.240438 -0.000008 0.000006 0.000001 -0.000011 -1.274010
    33 3.449664 0.054214 -1.085181 0.057704 0.157820 -0.297079
    34 1.707706 -0.000006 0.000010 0.000001 -0.029514 -0.784931
    35 0.998535 0.000000 0.000001 0.005618 -0.013551 -0.593085
    36 0.075532 -0.734842 -0.759723 1.293557 0.406780 -0.475936
    37 2.508555 -0.000002 -0.000004 -0.000004 0.000001 0.359160
    38 1.303711 0.270508 -0.093750 -0.005387 -0.039668 0.957143
    39 -7.211240 -20.928588 -16.721231 0.762764 0.135210 3.025171
    40 -0.000002 2.197265 1.738281 0.000000 0.000000 0.000000
    41 -0.000005 3.713594 3.157173 0.000000 0.000000 0.000000
    42 -0.000006 2.774759 -0.359640 0.000000 0.000000 0.000000
    43 -1.364069 26.951141 -5.804949 1.570796 0.000000 1.570782
  time 6
    0 0.000005 -1.663086 -9.140625 -1.570760 -1.391893 -1.570827
    1 2.033348 1.000767 1.937660 3.099206 -0.162014 1.679995
    2 6.028138 0.000009 0.000002 -1.708971 0.005886 -0.671740
    3 11.692574 0.000164 -0.000020 0.140931 -0.730374 -1.305225
    4 11.481693 -0.000162 -0.000041 1.089613 0.553460 1.097283
    5 3.281560 0.002101 -1.379482 0.019637 -0.153037 -0.605244
    6 1.324282 -0.000013 0.000005 0.000001 -0.051693 -0.452471
    7 0.815307 -0.000004 -0.000001 0.000002 -0.000003 -0.848133
    8 3.711850 0.109238 -0.568167 -0.090119 -0.128570 -0.694758
    9 1.605503 0.000002 -0.000005 -0.000001 -0.000366 -0.548223
    10 0.993193 -0.000008 0.000001 0.001823 0.002894 -0.495275
    11 3.786027 0.203209 0.247843 -0.100100 -0.082095 -0.623293
    12 1.684420 -0.000015 0.000010 0.000002 0.002566 -0.446993
    13 1.252151 -0.000010 0.000004 -0.000144 0.000251 -0.544287
    14 3.594219 0.299534 1.113709 -0.082091 -0.085621 -0.561489
    15 1.719431 -0.000010 -0.000004 -0.000005 0.000016 -0.395646
    16 1.005919 -0.000008 0.000003 0.000004 0.000018 -0.621348
    17 0.298210 -0.634100 0.426700 -1.349605 -0.376750 -0.875832
    18 2.633565 0.000002 -0.000006 -0.000002 0.017257 0.466222
    19 1.308564 -0.000001 -0.000006 -0.003954 -0.011578 0.357918
    20 2.033356 1.000772 -1.937609 -0.128177 0.172990 -2.038336
    21 6.028134 0.000001 -0.000002 -0.789093 0.699760 -2.520984
    22 11.692558 0.000084 0.000007 0.006569 -0.020685 -0.622827
    23 11.481697 -0.000003 -0.000004 -0.567974 -0.411695 0.591534
    24 2.910425 -0.023166 1.404054 -0.087254 -0.051811 -0.871450
    25 1.285218 0.000002 0.000000 0.000005 0.091241 -0.570111
    26 0.842285 0.000000 0.000000 -0.106904 0.058038 -1.427404
    27 3.364152 0.007374 0.618550 0.035973 -0.077319 -1.016266
    28 1.610352 0.000000 -0.000001 -0.000005 0.127994 -1.218714
    29 1.024441 0.000008 -0.000002 0.011970 -0.012977 -1.177927
    30 3.555524 0.023920 -0.200566 0.012608 -0.103497 -0.905354
    31 1.666016 -0.000002 -0.000002 -0.000009 0.161971 -1.296565
    32 1.240438 -0.000008 0.000006 0.000001 -0.000011 -1.274042
    33 3.449664 0.054214 -1.085181 0.057615 0.157520 -0.296961
    34 1.707706 -0.000006 0.000010 0.000001 -0.029514 -0.784931
    35 0.998535 0.000000 0.000001 0.005618 -0.013551 -0.593085
    36 0.075532 -0.734842 -0.759723 1.293521 0.406470 -0.475805
    37 2.508555 -0.000002 -0.000004 -0.000004 0.000001 0.359160
    38 1.303711 0.270508 -0.093750 -0.005387 -0.039668 0.957143
    39 -7.930012 -22.034091 -14.482881 0.919351 0.218119 2.968039
    40 -0.000002 2.197265 1.738281 0.000000 0.000000 0.000000
    41 -0.000005 3.713594 3.157173 0.000000 0.000000 0.000000
    42 -0.000006 2.774759 -0.359640 0.000000 0.000000 0.000000
    43 -1.364069 26.951141 -5.804949 1.570796 0.000000 1.570782
  time 7
    0 0.000005 -1.663086 -9.140625 -1.570760 -1.391893 -1.570827
    1 2.033348 1.000767 1.937660 3.099206 -0.162014 1.679995
    2 6.028138 0.000009 0.000002 -1.736940 -0.021848 -0.595786
    3 11.692574 0.000164 -0.000020 0.144579 -0.731117 -1.310704
    4 11.481693 -0.000162 -0.000041 0.987221 0.534604 1.033460
    5 3.281560 0.002101 -1.379482 0.015970 -0.149742 -0.572245
    6 1.324282 -0.000013 0.000005 0.000001 -0.050254 -0.434045
    7 0.815307 -0.000004 -0.000001 0.000002 -0.000003 -0.845369
    8 3.711850 0.109238 -0.568167 -0.096867 -0.123488 -0.640331
    9 1.605503 0.000002 -0.000005 -0.000001 -0.001145 -0.518436
    10 0.993193 -0.000008 0.000001 0.001295 0.001947 -0.433158
    11 3.786027 0.203209 0.247843 -0.105864 -0.076475 -0.552817
    12 1.684420 -0.000015 0.000010 0.000002 0.000672 -0.377080
    13 1.252151 -0.000010 0.000004 0.000479 -0.000888 -0.489060
    14 3.594219 0.299534 1.113709 -0.089452 -0.077891 -0.471468
    15 1.719431 -0.000010 -0.000004 -0.000005 0.000016 -0.331899
    16 1.005919 -0.000008 0.000003 0.000004 0.000018 -0.530162
    17 0.298210 -0.634100 0.430607 -1.344581 -0.347344 -0.933089
    18 2.633565 0.000002 -0.000006 -0.000002 0.017413 0.447381
    19 1.308564 -0.000001 -0.000006 -0.000886 -0.002769 0.314226
    20 2.033356 1.000772 -1.937609 -0.128177 0.172990 -2.038336
    21 6.028134 0.000001 -0.000002 -0.897522 0.706213 -2.657248
    22 11.692558 0.000084 0.000007 0.006233 -0.022735 -0.542029
    23 11.481697 -0.000003 -0.000004 -0.404703 -0.369989 0.479686
    24 2.914331 -0.023166 1.400148 -0.087254 -0.051811 -0.871450
    25 1.285218 0.000002 0.000000 0.000005 0.091241 -0.570111
    26 0.842285 0.000000 0.000000 -0.106904 0.058038 -1.427404
    27 3.368059 0.007374 0.618550 0.035973 -0.077331 -1.016266
    28 1.610352 0.000000 -0.000001 -0.000005 0.127994 -1.218714
    29 1.024441 0.000008 -0.000002 0.011970 -0.012977 -1.177972
    30 3.555524 0.023920 -0.200566 0.012608 -0.103497 -0.905354
    31 1.666016 -0.000002 -0.000002 -0.000009 0.161971 -1.296565
    32 1.240438 -0.000008 0.000006 0.000001 -0.000011 -1.274042
    33 3.449664 0.054214 -1.089088 0.057615 0.157520 -0.296961
    34 1.707706 -0.000006 0.000010 0.000001 -0.029514 -0.784958
    35 0.998535 0.000000 0.000001 0.005618 -0.013551 -0.593085
    36 0.075532 -0.738749 -0.759723 1.293533 0.406470 -0.475805
    37 2.508555 -0.000002 -0.000004 -0.000004 0.000001 0.359160
    38 1.303711 0.270508 -0.093750 -0.005387 -0.039668 0.957143
    39 -8.711286 -22.690361 -12.326565 1.066100 0.295860 2.932735
    40 -0.000002 2.197265 1.738281 0.000000 0.000000 0.000000
    41 -0.000005 3.713594 3.157173 0.000000 0.000000 0.000000
    42 -0.000006 2.774759 -0.359640 0.000000 0.000000 0.000000
    43 -1.364069 26.951141 -5.804949 1.570796 0.000000 1.570782
  time 8
    0 0.000005 -1.663086 -9.140625 -1.570760 -1.391893 -1.570827
    1 2.033348 1.000767 1.937660 3.099206 -0.162014 1.679995
    2 6.028138 0.000009 0.000002 -1.757091 -0.059546 -0.520046
    3 11.692574 0.000164 -0.000020 0.152052 -0.732550 -1.321820
    4 11.481693 -0.000162 -0.000041 0.915702 0.509246 0.964973
    5 3.281560 0.002101 -1.379482 0.013355 -0.147309 -0.548954
    6 1.324282 -0.000013 0.000005 0.000001 -0.049344 -0.422304
    7 0.815307 -0.000004 -0.000001 0.000002 -0.000003 -0.852616
    8 3.711850 0.109238 -0.568167 -0.100726 -0.120288 -0.608128
    9 1.609410 0.000002 -0.000005 -0.000001 -0.001636 -0.495172
    10 0.989287 -0.000008 0.000001 0.000816 0.001145 -0.378621
    11 3.786027 0.203209 0.247843 -0.109016 -0.072951 -0.511217
    12 1.684420 -0.000015 0.000010 0.000002 -0.000742 -0.322641
    13 1.252151 -0.000010 0.000004 0.000911 -0.001691 -0.451437
    14 3.594219 0.299534 1.113709 -0.093486 -0.072989 -0.417973
    15 1.719431 -0.000010 -0.000004 -0.000005 0.000016 -0.285774
    16 1.005919 -0.000008 0.000003 0.000004 0.000018 -0.454217
    17 0.298210 -0.634100 0.426700 -1.343178 -0.321815 -0.982101
    18 2.633565 0.000002 -0.000006 -0.000002 0.016837 0.430318
    19 1.308564 -0.000001 -0.000006 0.001439 0.004925 0.276429
    20 2.033356 1.000772 -1.937609 -0.128177 0.172990 -2.038336
    21 6.028134 0.000001 -0.000002 -0.985268 0.712585 -2.759243
    22 11.692558 0.000084 0.000007 0.003584 -0.014573 -0.492549
    23 11.481697 -0.000003 -0.000004 -0.277232 -0.324164 0.401073
    24 2.914331 -0.023166 1.400148 -0.087254 -0.051811 -0.871450
    25 1.285218 0.000002 0.000000 0.000005 0.091241 -0.570111
    26 0.842285 0.000000 0.000000 -0.106904 0.058038 -1.427404
    27 3.368059 0.007374 0.622456 0.035973 -0.077331 -1.016266
    28 1.610352 0.000000 -0.000001 -0.000005 0.127994 -1.218714
    29 1.024441 0.000008 -0.000002 0.011970 -0.012977 -1.177927
    30 3.555524 0.023920 -0.200566 0.012608 -0.103497 -0.905354
    31 1.666016 -0.000002 -0.000002 -0.000009 0.161971 -1.296565
    32 1.240438 -0.000008 0.000006 0.000001 -0.000011 -1.274010
    33 3.449664 0.054214 -1.085181 0.057615 0.157520 -0.296961
    34 1.707706 -0.000006 0.000010 0.000001 -0.029514 -0.784931
    35 0.998535 0.000000 0.000001 0.005618 -0.013551 -0.593085
    36 0.075532 -0.738749 -0.759723 1.293521 0.406470 -0.475805
    37 2.512462 -0.000002 -0.000004 -0.000004 0.000001 0.359160
    38 1.303711 0.270508 -0.093750 -0.005387 -0.039668 0.957143
    39 -9.433964 -22.987245 -10.400725 1.201950 0.357867 2.918468
    40 -0.000002 2.197265 1.738281 0.000000 0.000000 0.000000
    41 -0.000005 3.713594 3.157173 0.000000 0.000000 0.000000
    42 -0.000006 2.774759 -0.359640 0.000000 0.000000 0.000000
    43 -1.364069 26.951141 -5.804949 1.570796 0.000000 1.570782
  time 9
    0 0.000005 -1.663086 -9.140625 -1.570760 -1.391893 -1.570827
    1 2.033348 1.000767 1.937660 3.099206 -0.162014 1.679995
    2 6.028138 0.000009 0.000002 -1.768673 -0.106221 -0.449380
    3 11.692574 0.000164 -0.000020 0.168898 -0.735549 -1.346990
    4 11.481693 -0.000162 -0.000041 0.879787 0.479555 0.896567
    5 3.281560 0.002101 -1.379482 0.013026 -0.147009 -0.546025
    6 1.324282 -0.000013 0.000005 0.000001 -0.053538 -0.460642
    7 0.815307 -0.000004 -0.000001 0.000002 -0.000003 -0.907259
    8 3.711850 0.109238 -0.568167 -0.098173 -0.122421 -0.629526
    9 1.609410 0.000002 -0.000005 -0.000001 -0.001276 -0.515329
    10 0.993193 -0.000008 0.000001 0.001403 0.002127 -0.445321
    11 3.786027 0.203209 0.247843 -0.106907 -0.075348 -0.539331
    12 1.684420 -0.000015 0.000010 0.000002 -0.000838 -0.315928
    13 1.252151 -0.000010 0.000004 -0.002277 0.003223 -0.698053
    14 3.594219 0.299534 1.113709 -0.092907 -0.073744 -0.425961
    15 1.719431 -0.000010 -0.000004 -0.000005 0.000016 -0.275498
    16 1.005919 -0.000008 0.000003 0.000004 0.000018 -0.469988
    17 0.298210 -0.634100 0.426700 -1.344149 -0.301698 -1.020333
    18 2.633565 0.000002 -0.000006 -0.000002 0.015903 0.415797
    19 1.308564 -0.000001 -0.000006 0.003093 0.011061 0.246719
    20 2.033356 1.000772 -1.937609 -0.128177 0.172990 -2.038336
    21 6.028134 0.000001 -0.000002 -1.056314 0.725979 -2.841075
    22 11.692558 0.000084 0.000007 0.005358 -0.022351 -0.474129
    23 11.481697 -0.000003 -0.000004 -0.189337 -0.265555 0.352540
    24 2.910425 -0.023166 1.400148 -0.087085 -0.051883 -0.871174
    25 1.285218 0.000002 0.000000 0.000005 0.091241 -0.570111
    26 0.842285 0.000000 0.000000 -0.106904 0.058038 -1.427404
    27 3.364152 0.007374 0.618550 0.036152 -0.077379 -1.015998
    28 1.610352 0.000000 -0.000001 -0.000005 0.127994 -1.218714
    29 1.024441 0.000008 -0.000002 0.011970 -0.012977 -1.177927
    30 3.555524 0.027827 -0.200566 0.012788 -0.103569 -0.905069
    31 1.666016 -0.000002 -0.000002 -0.000009 0.161971 -1.296565
    32 1.240438 -0.000008 0.000006 0.000001 -0.000011 -1.274010
    33 3.449664 0.054214 -1.085181 0.057704 0.157364 -0.296656
    34 1.707706 -0.000006 0.000010 0.000001 -0.029514 -0.784931
    35 0.998535 0.000000 0.000001 0.005618 -0.013551 -0.593085
    36 0.075532 -0.734842 -0.759723 1.293665 0.406334 -0.475457
    37 2.508555 -0.000002 -0.000004 -0.000004 0.000001 0.359160
    38 1.303711 0.270508 -0.093750 -0.005387 -0.039668 0.957143
    39 -9.976950 -23.038027 -8.814739 1.323426 0.394469 2.922370
    40 -0.000002 2.197265 1.738281 0.000000 0.000000 0.000000
    41 -0.000005 3.713594 3.157173 0.000000 0.000000 0.000000
    42 -0.000006 2.774759 -0.359640 0.000000 0.000000 0.000000
    43 -1.364069 26.951141 -5.804949 1.570796 0.000000 1.570782
  time 10
    0 0.000005 -1.663086 -9.140625 -1.570760 -1.391893 -1.570827
    1 2.033348 1.000767 1.937660 3.099206 -0.162014 1.679995
    2 6.028138 0.000009 0.000002 -1.773710 -0.148939 -0.396219
    3 11.692574 0.000164 -0.000020 0.190607 -0.738973 -1.379227
    4 11.481693 -0.000162 -0.000041 0.903446 0.441387 0.834231
    5 3.281560 0.002101 -1.379482 0.015213 -0.149047 -0.565495
    6 1.324282 -0.000013 0.000005 0.000001 -0.058656 -0.511776
    7 0.815307 -0.000004 -0.000001 0.000002 -0.000003 -0.996486
    8 3.711850 0.109238 -0.568167 -0.088597 -0.129624 -0.706789
    9 1.609410 0.000002 -0.000005 -0.000001 -0.000150 -0.558371
    10 0.993193 -0.000008 0.000001 0.001835 0.002918 -0.496916
    11 3.786027 0.203209 0.247843 -0.098650 -0.083366 -0.640080
    12 1.684420 -0.000015 0.000010 0.000002 0.000492 -0.362773
    13 1.252151 -0.000010 0.000004 -0.002996 0.004050 -0.743978
    14 3.594219 0.299534 1.113709 -0.087464 -0.080120 -0.496625
    15 1.719431 -0.000010 -0.000004 -0.000005 0.000016 -0.305303
    16 1.005919 -0.000008 0.000003 0.000004 0.000018 -0.558432
    17 0.298210 -0.634100 0.426700 -1.345792 -0.288566 -1.045229
    18 2.633565 0.000002 -0.000006 -0.000002 0.014992 0.404462
    19 1.308564 -0.000001 -0.000006 0.004064 0.015100 0.227291
    20 2.033356 1.000772 -1.937609 -0.128177 0.172990 -2.038336
    21 6.028134 0.000001 -0.000002 -1.080371 0.731699 -2.869214
    22 11.692558 0.000084 0.000007 0.005154 -0.020925 -0.493498
    23 11.481697 -0.000003 -0.000004 -0.182793 -0.215878 0.338678
    24 2.914331 -0.027073 1.400148 -0.087356 -0.051499 -0.871599
    25 1.285218 0.000002 0.000000 0.000005 0.091241 -0.570111
    26 0.842285 0.000000 0.000000 -0.106904 0.058038 -1.427404
    27 3.368059 0.007374 0.622456 0.035841 -0.077044 -1.016407
    28 1.610352 0.000000 -0.000001 -0.000005 0.127994 -1.218714
    29 1.024441 0.000008 -0.000002 0.011970 -0.012977 -1.177927
    30 3.555524 0.023920 -0.200566 0.012500 -0.103197 -0.905482
    31 1.666016 -0.000002 -0.000002 -0.000009 0.161971 -1.296565
    32 1.240438 -0.000008 0.000006 0.000001 -0.000011 -1.274042
    33 3.449664 0.054214 -1.089088 0.057704 0.157820 -0.297096
    34 1.707706 -0.000006 0.000010 0.000001 -0.029514 -0.784931
    35 0.998535 0.000000 0.000001 0.005618 -0.013551 -0.593085
    36 0.075532 -0.734842 -0.759723 1.293557 0.406780 -0.475948
    37 2.508555 -0.000002 -0.000004 -0.000004 0.000001 0.359148
    38 1.303711 0.270508 -0.093750 -0.005387 -0.039668 0.957143
    39 -9.965231 -23.026308 -7.939713 1.408318 0.377509 2.947918
    40 -0.000002 2.197265 1.738281 0.000000 0.000000 0.000000
    41 -0.000005 3.713594 3.157173 0.000000 0.000000 0.000000
    42 -0.000006 2.774759 -0.359640 0.000000 0.000000 0.000000
    43 -1.364069 26.951141 -5.804949 1.570796 0.000000 1.570782
  time 11
    0 0.000005 -1.663086 -9.140625 -1.570760 -1.391893 -1.570827
    1 2.033348 1.000767 1.937660 3.099206 -0.162014 1.679995
    2 6.028138 0.000009 0.000002 -1.775332 -0.176270 -0.366066
    3 11.692574 0.000164 -0.000020 0.202797 -0.740592 -1.397410
    4 11.481693 -0.000162 -0.000041 0.976827 0.395234 0.775114
    5 3.281560 0.002101 -1.379482 0.018716 -0.152222 -0.596932
    6 1.324282 -0.000013 0.000005 0.000001 -0.059662 -0.527471
    7 0.815307 -0.000004 -0.000001 0.000002 -0.000003 -1.047151
    8 3.711850 0.109238 -0.568167 -0.076061 -0.137294 -0.802343
    9 1.609410 0.000002 -0.000005 -0.000001 0.001109 -0.584431
    10 0.993193 -0.000008 0.000001 0.002206 0.003733 -0.547747
    11 3.786027 0.203209 0.247843 -0.087097 -0.091959 -0.764498
    12 1.684420 -0.000015 0.000010 0.000002 0.002290 -0.427634
    13 1.252151 -0.000010 0.000004 -0.003583 0.004673 -0.779990
    14 3.594219 0.299534 1.113709 -0.078354 -0.089048 -0.604278
    15 1.719431 -0.000010 -0.000004 -0.000005 0.000016 -0.358541
    16 1.005919 -0.000008 0.000003 0.000004 0.000018 -0.638936
    17 0.298210 -0.634100 0.426700 -1.346595 -0.283839 -1.054108
    18 2.633565 0.000002 -0.000006 -0.000002 0.014488 0.397109
    19 1.308564 -0.000001 -0.000006 0.004387 0.016562 0.220313
    20 2.033356 1.000772 -1.937609 -0.128177 0.172990 -2.038336
    21 6.028134 0.000001 -0.000002 -1.058737 0.724975 -2.850824
    22 11.692558 0.000084 0.000007 0.006449 -0.023957 -0.535860
    23 11.481697 -0.000003 -0.000004 -0.275156 -0.160603 0.336042
    24 2.914331 -0.023166 1.396241 -0.087254 -0.051811 -0.871450
    25 1.285218 0.000002 0.000000 0.000005 0.091241 -0.570111
    26 0.842285 0.000000 0.000000 -0.106904 0.058038 -1.427404
    27 3.368059 0.007374 0.622456 0.035973 -0.077319 -1.016266
    28 1.610352 0.000000 -0.000001 -0.000005 0.127994 -1.218714
    29 1.024441 0.000008 -0.000002 0.011970 -0.012977 -1.177927
    30 3.555524 0.023920 -0.208379 0.012608 -0.103497 -0.905354
    31 1.666016 -0.000002 -0.000002 -0.000009 0.161971 -1.296565
    32 1.240438 -0.000008 0.000006 0.000001 -0.000011 -1.274010
    33 3.449664 0.054214 -1.089088 0.057615 0.157520 -0.296961
    34 1.707706 -0.000006 0.000010 0.000001 -0.029514 -0.784931
    35 0.998535 0.000000 0.000001 0.005618 -0.013551 -0.593085
    36 0.075532 -0.738749 -0.763630 1.293533 0.406470 -0.475805
    37 2.508555 -0.000002 -0.000004 -0.000004 0.000001 0.359160
    38 1.303711 0.270508 -0.093750 -0.005387 -0.039668 0.957143
    39 -9.328492 -23.100529 -7.830334 1.459689 0.285823 2.994501
    40 -0.000002 2.197265 1.738281 0.000000 0.000000 0.000000
    41 -0.000005 3.713594 3.157173 0.000000 0.000000 0.000000
    42 -0.000006 2.774759 -0.359640 0.000000 0.000000 0.000000
    43 -1.364069 26.951141 -5.804949 1.570796 0.000000 1.570782
  time 12
    0 0.000005 -1.663086 -9.140625 -1.570760 -1.391893 -1.570827
    1 2.033348 1.000767 1.937660 3.099206 -0.162014 1.679995
    2 6.028138 0.000009 0.000002 -1.771915 -0.187187 -0.360135
    3 11.692574 0.000164 -0.000020 0.190637 -0.738973 -1.379307
    4 11.481693 -0.000162 -0.000041 1.050983 0.342809 0.697627
    5 3.281560 0.002101 -1.379482 0.022268 -0.154871 -0.629652
    6 1.324282 -0.000013 0.000005 0.000001 -0.060190 -0.539667
    7 0.815307 -0.000004 -0.000001 0.000002 -0.000003 -1.045398
    8 3.707943 0.109238 -0.568167 -0.065862 -0.141920 -0.877914
    9 1.609410 0.000002 -0.000005 -0.000001 0.002223 -0.609766
    10 0.993193 -0.000008 0.000001 0.002542 0.004536 -0.597984
    11 3.786027 0.203209 0.247843 -0.077233 -0.097196 -0.862758
    12 1.684420 -0.000015 0.000010 0.000002 0.003980 -0.493837
    13 1.252151 -0.000010 0.000004 -0.004099 0.005152 -0.808410
    14 3.590312 0.299534 1.113709 -0.067439 -0.097174 -0.722836
    15 1.719431 -0.000010 -0.000004 -0.000005 0.000016 -0.418847
    16 1.005919 -0.000008 0.000003 0.000004 0.000018 -0.722795
    17 0.294304 -0.634100 0.426700 -1.345048 -0.296040 -1.029719
    18 2.633565 0.000002 -0.000006 -0.000002 0.014956 0.394505
    19 1.308564 -0.000001 -0.000006 0.003489 0.012667 0.238974
    20 2.033356 1.000772 -1.937609 -0.128177 0.172990 -2.038336
    21 6.028134 0.000001 -0.000002 -1.011575 0.710741 -2.803704
    22 11.692558 0.000084 0.000007 0.007743 -0.025911 -0.587583
    23 11.481697 -0.000003 -0.000004 -0.431820 -0.101762 0.322540
    24 2.914331 -0.023166 1.400148 -0.087254 -0.051811 -0.871450
    25 1.285218 0.000002 0.000000 0.000005 0.091241 -0.570111
    26 0.842285 0.000000 0.000000 -0.106904 0.058038 -1.427404
    27 3.368059 0.007374 0.622456 0.035973 -0.077331 -1.016266
    28 1.610352 0.000000 -0.000001 -0.000005 0.127994 -1.218714
    29 1.024441 0.000008 -0.000002 0.011970 -0.012977 -1.177927
    30 3.555524 0.023920 -0.200566 0.012608 -0.103497 -0.905354
    31 1.666016 -0.000002 -0.000002 -0.000009 0.161971 -1.296565
    32 1.240438 -0.000008 0.000006 0.000001 -0.000011 -1.274010
    33 3.449664 0.054214 -1.089088 0.057615 0.157520 -0.296961
    34 1.707706 -0.000006 0.000010 0.000001 -0.029514 -0.784931
    35 0.998535 0.000000 0.000001 0.005618 -0.013551 -0.593085
    36 0.075532 -0.738749 -0.759723 1.293533 0.406470 -0.475805
    37 2.508555 -0.000002 -0.000004 -0.000004 0.000001 0.359160
    38 1.303711 0.270508 -0.093750 -0.005387 -0.039668 0.957143
    39 -8.402683 -23.178657 -8.138937 1.497863 0.143028 3.053035
    40 -0.000002 2.197265 1.738281 0.000000 0.000000 0.000000
    41 -0.000005 3.713594 3.157173 0.000000 0.000000 0.000000
    42 -0.000006 2.774759 -0.359640 0.000000 0.000000 0.000000
    43 -1.364069 26.951141 -5.804949 1.570796 0.000000 1.570782
  time 13
    0 0.000005 -1.663086 -9.140625 -1.570760 -1.391893 -1.570827
    1 2.033348 1.000767 1.937660 3.099206 -0.162014 1.679995
    2 6.028138 0.000009 0.000002 -1.765198 -0.193086 -0.364280
    3 11.692574 0.000164 -0.000020 0.164064 -0.734753 -1.339765
    4 11.481693 -0.000162 -0.000041 1.097137 0.292970 0.609530
    5 3.281560 0.002101 -1.379482 0.026132 -0.158442 -0.663599
    6 1.324282 -0.000013 0.000005 0.000001 -0.060345 -0.549395
    7 0.815307 -0.000004 -0.000001 0.000002 -0.000003 -1.029184
    8 3.711850 0.109238 -0.572073 -0.058576 -0.145228 -0.927837
    9 1.609410 0.000002 -0.000005 -0.000001 0.003110 -0.634618
    10 0.993193 -0.000008 0.000001 0.002817 0.005363 -0.647853
    11 3.786027 0.203209 0.247843 -0.070007 -0.100839 -0.927164
    12 1.684420 -0.000015 0.000010 0.000002 0.005730 -0.566824
    13 1.252151 -0.000010 0.000004 -0.004482 0.005536 -0.831506
    14 3.594219 0.299534 1.113709 -0.056722 -0.104149 -0.827738
    15 1.719431 -0.000010 -0.000004 -0.000005 0.000016 -0.484501
    16 1.005919 -0.000008 0.000003 0.000004 0.000018 -0.809142
    17 0.298210 -0.634100 0.426700 -1.343310 -0.329796 -0.966845
    18 2.633565 0.000002 -0.000006 -0.000002 0.015999 0.406392
    19 1.308564 -0.000001 -0.000006 0.000744 0.002504 0.288244
    20 2.033356 1.000772 -1.937609 -0.128177 0.172990 -2.038336
    21 6.028134 0.000001 -0.000002 -0.960260 0.694799 -2.747352
    22 11.692558 0.000084 0.000007 0.007312 -0.022399 -0.638572
    23 11.481697 -0.000003 -0.000004 -0.598552 -0.053886 0.291423
    24 2.914331 -0.023166 1.396241 -0.087254 -0.052146 -0.871493
    25 1.285218 0.000002 0.000000 0.000005 0.091241 -0.570131
    26 0.842285 0.000000 0.000000 -0.106904 0.058038 -1.427404
    27 3.368059 0.007374 0.618550 0.036021 -0.077667 -1.016308
    28 1.610352 0.000000 -0.000001 -0.000005 0.127994 -1.218714
    29 1.024441 0.000008 -0.000002 0.011970 -0.012977 -1.177927
    30 3.555524 0.023920 -0.200566 0.012620 -0.103832 -0.905382
    31 1.666016 -0.000002 -0.000002 -0.000009 0.161971 -1.296565
    32 1.240438 -0.000008 0.000006 0.000001 -0.000011 -1.274010
    33 3.449664 0.054214 -1.089088 0.057425 0.157232 -0.297028
    34 1.707706 -0.000006 0.000010 0.000001 -0.029514 -0.784931
    35 0.998535 0.000000 0.000001 0.005618 -0.013551 -0.593085
    36 0.075532 -0.734842 -0.763630 1.293378 0.406159 -0.475900
    37 2.508555 -0.000002 -0.000004 -0.000004 0.000001 0.359160
    38 1.303711 0.270508 -0.093750 -0.005387 -0.039668 0.957143
    39 -7.469061 -23.198189 -8.553012 1.531325 -0.006558 3.112789
    40 -0.000002 2.197265 1.738281 0.000000 0.000000 0.000000
    41 -0.000005 3.713594 3.157173 0.000000 0.000000 0.000000
    42 -0.000006 2.774759 -0.359640 0.000000 0.000000 0.000000
    43 -1.364069 26.951141 -5.804949 1.570796 0.000000 1.570782
  time 14
    0 0.000005 -1.663086 -9.140625 -1.570760 -1.391893 -1.570827
    1 2.033348 1.000767 1.937660 3.099206 -0.162014 1.679995
    2 6.028138 0.000009 0.000002 -1.760508 -0.198911 -0.365566
    3 11.692574 0.000164 -0.000020 0.142651 -0.730719 -1.307766
    4 11.481693 -0.000162 -0.000041 1.039115 0.243662 0.499842
    5 3.281560 0.002101 -1.379482 0.030309 -0.161690 -0.701703
    6 1.324282 -0.000013 0.000005 0.000001 -0.060154 -0.557518
    7 0.815307 -0.000004 -0.000001 0.000002 -0.000003 -1.003397
    8 3.711850 0.109238 -0.568167 -0.052332 -0.147385 -0.971057
    9 1.609410 0.000002 -0.000005 -0.000001 0.003949 -0.659194
    10 0.993193 -0.000008 0.000001 0.003069 0.006190 -0.697467
    11 3.786027 0.203209 0.247843 -0.063727 -0.103224 -0.982707
    12 1.684420 -0.000015 0.000010 0.000002 0.007527 -0.644297
    13 1.252151 -0.000010 0.000004 -0.004866 0.005859 -0.851502
    14 3.594219 0.299534 1.113709 -0.046935 -0.108895 -0.919681
    15 1.719431 -0.000010 -0.000004 -0.000005 0.000016 -0.561406
    16 1.005919 -0.000008 0.000003 0.000004 0.000018 -0.897000
    17 0.298210 -0.634100 0.426700 -1.349593 -0.376750 -0.875832
    18 2.633565 0.000002 -0.000006 -0.000002 0.016226 0.436904
    19 1.308564 -0.000001 -0.000006 -0.003954 -0.011578 0.357918
    20 2.033356 1.000772 -1.937609 -0.128177 0.172990 -2.038336
    21 6.028134 0.000001 -0.000002 -0.931443 0.685960 -2.716333
    22 11.692558 0.000084 0.000007 0.008534 -0.024544 -0.674852
    23 11.481697 -0.000003 -0.000004 -0.721618 -0.014070 0.249600
    24 2.914331 -0.023166 1.400148 -0.087254 -0.051811 -0.871450
    25 1.285218 0.000002 0.000000 0.000005 0.091241 -0.570111
    26 0.842285 0.000000 0.000000 -0.106904 0.058038 -1.427404
    27 3.368059 0.007374 0.618550 0.035973 -0.077319 -1.016266
    28 1.610352 0.000000 -0.000001 -0.000005 0.127994 -1.218714
    29 1.024441 0.000008 -0.000002 0.011970 -0.012977 -1.177927
    30 3.555524 0.023920 -0.200566 0.012608 -0.103497 -0.905354
    31 1.666016 -0.000002 -0.000002 -0.000009 0.161971 -1.296565
    32 1.240438 -0.000008 0.000006 0.000001 -0.000011 -1.274010
    33 3.449664 0.054214 -1.089088 0.057615 0.157520 -0.296961
    34 1.707706 -0.000006 0.000010 0.000001 -0.029514 -0.784931
    35 0.998535 0.000000 0.000001 0.005618 -0.013551 -0.593085
    36 0.075532 -0.738749 -0.759723 1.293521 0.406470 -0.475805
    37 2.508555 -0.000002 -0.000004 -0.000004 0.000001 0.359148
    38 1.303711 0.270508 -0.093750 -0.005387 -0.039668 0.957143
    39 -6.820603 -23.166938 -8.670204 1.573447 -0.122094 3.155409
    40 -0.000002 2.197265 1.738281 0.000000 0.000000 0.000000
    41 -0.000005 3.713594 3.157173 0.000000 0.000000 0.000000
    42 -0.000006 2.774759 -0.359640 0.000000 0.000000 0.000000
    43 -1.364069 26.951141 -5.804949 1.570796 0.000000 1.570782
  time 15
    0 0.000005 -1.663086 -9.140625 -1.570760 -1.391893 -1.570827
    1 2.033348 1.000767 1.937660 3.099206 -0.162014 1.679995
    2 6.028138 0.000009 0.000002 -1.760276 -0.207813 -0.357349
    3 11.692574 0.000164 -0.000020 0.134851 -0.729153 -1.296094
    4 11.481693 -0.000162 -0.000041 1.040356 0.279246 0.479820
    5 3.281560 0.002101 -1.379482 0.034585 -0.164327 -0.742066
    6 1.324282 -0.000013 0.000005 0.000001 -0.059674 -0.565066
    7 0.815307 -0.000004 -0.000001 0.000002 -0.000003 -0.972755
    8 3.707943 0.109238 -0.568167 -0.046831 -0.148572 -1.010217
    9 1.609410 0.000002 -0.000005 -0.000001 0.004788 -0.683632
    10 0.993193 -0.000008 0.000001 0.003273 0.007041 -0.747054
    11 3.786027 0.203209 0.247843 -0.058130 -0.104590 -1.033069
    12 1.684420 -0.000015 0.000010 0.000002 0.009277 -0.724031
    13 1.252151 -0.000010 0.000004 -0.005189 0.006159 -0.870766
    14 3.590312 0.299534 1.113709 -0.036485 -0.112406 -1.016297
    15 1.719431 -0.000010 -0.000004 -0.000005 0.000016 -0.644774
    16 1.005919 -0.000008 0.000003 0.000004 0.000018 -0.985500
    17 0.298210 -0.634100 0.430607 -1.367797 -0.429265 -0.768584
    18 2.633565 0.000002 -0.000006 -0.000002 0.014261 0.478139
    19 1.308564 -0.000001 -0.000006 -0.010557 -0.027302 0.437822
    20 2.033356 1.000772 -1.937609 -0.128177 0.172990 -2.038336
    21 6.028134 0.000001 -0.000002 -0.932741 0.683032 -2.717662
    22 11.692558 0.000084 0.000007 0.006485 -0.018504 -0.684428
    23 11.481697 -0.000003 -0.000004 -0.758425 0.015226 0.215207
    24 2.914331 -0.023166 1.400148 -0.087288 -0.052266 -0.871578
    25 1.285218 0.000002 0.000000 0.000005 0.091241 -0.570111
    26 0.842285 0.000000 0.000000 -0.106904 0.058038 -1.427404
    27 3.368059 0.007374 0.622456 0.036009 -0.077799 -1.016393
    28 1.610352 0.000000 -0.000001 -0.000005 0.127994 -1.218714
    29 1.024441 0.000008 -0.000002 0.011970 -0.012977 -1.177927
    30 3.555524 0.023920 -0.200566 0.012584 -0.103964 -0.905454
    31 1.666016 -0.000002 -0.000002 -0.000009 0.161971 -1.296565
    32 1.240438 -0.000008 0.000006 0.000001 -0.000011 -1.274010
    33 3.449664 0.054214 -1.089088 0.057323 0.157149 -0.297130
    34 1.707706 -0.000006 0.000010 0.000001 -0.029514 -0.784931
    35 0.998535 0.000000 0.000001 0.005618 -0.013551 -0.593085
    36 0.075532 -0.734842 -0.759723 1.293294 0.406050 -0.476020
    37 2.508555 -0.000002 -0.000004 -0.000004 0.000001 0.359160
    38 1.303711 0.270508 -0.093750 -0.005387 -0.039668 0.957143
    39 -6.648723 -23.151312 -8.330349 1.623934 -0.167903 3.163030
    40 -0.000002 2.197265 1.738281 0.000000 0.000000 0.000000
    41 -0.000005 3.713594 3.157173 0.000000 0.000000 0.000000
    42 -0.000006 2.774759 -0.359640 0.000000 0.000000 0.000000
    43 -1.364069 26.951141 -5.804949 1.570796 0.000000 1.570782
  time 16
    0 0.000005 -1.663086 -9.140625 -1.570760 -1.391893 -1.570827
    1 2.033348 1.000767 1.937660 3.099206 -0.162014 1.679995
    2 6.028138 0.000009 0.000002 -1.763982 -0.219171 -0.340986
    3 11.692574 0.000164 -0.000020 0.140189 -0.730241 -1.304034
    4 11.481693 -0.000162 -0.000041 1.055017 0.337981 0.492494
    5 3.281560 0.002101 -1.379482 0.039206 -0.167898 -0.783907
    6 1.324282 -0.000013 0.000005 0.000001 -0.059087 -0.572901
    7 0.815307 -0.000004 -0.000001 0.000002 -0.000003 -0.942080
    8 3.711850 0.109238 -0.568167 -0.040791 -0.150501 -1.049335
    9 1.609410 0.000002 -0.000005 -0.000001 0.005639 -0.708138
    10 0.993193 -0.000008 0.000001 0.003441 0.007892 -0.796725
    11 3.786027 0.203209 0.247843 -0.051910 -0.106652 -1.082999
    12 1.684420 -0.000015 0.000010 0.000002 0.010907 -0.803800
    13 1.252151 -0.000010 0.000004 -0.005597 0.006471 -0.891592
    14 3.594219 0.299534 1.113709 -0.024865 -0.115918 -1.115731
    15 1.719431 -0.000010 -0.000004 -0.000005 0.000016 -0.729770
    16 1.005919 -0.000008 0.000003 0.000004 0.000018 -1.073638
    17 0.298210 -0.634100 0.426700 -1.396506 -0.481584 -0.658763
    18 2.633565 0.000002 -0.000006 -0.000002 0.009635 0.521978
    19 1.308564 -0.000001 -0.000006 -0.018407 -0.042462 0.517964
    20 2.033356 1.000772 -1.937609 -0.128177 0.172990 -2.038336
    21 6.028134 0.000001 -0.000002 -0.950481 0.689891 -2.740114
    22 11.692558 0.000084 0.000007 0.008426 -0.024149 -0.680762
    23 11.481697 -0.000003 -0.000004 -0.687643 0.004563 0.240053
    24 2.914331 -0.023166 1.404054 -0.087254 -0.051811 -0.871450
    25 1.285218 0.000002 0.000000 0.000005 0.091241 -0.570111
    26 0.842285 0.000000 0.000000 -0.106904 0.058038 -1.427404
    27 3.368059 0.007374 0.622456 0.035973 -0.077319 -1.016266
    28 1.610352 0.000000 -0.000001 -0.000005 0.127994 -1.218714
    29 1.024441 0.000008 -0.000002 0.011970 -0.012977 -1.177927
    30 3.555524 0.023920 -0.200566 0.012608 -0.103497 -0.905354
    31 1.666016 -0.000002 -0.000002 -0.000009 0.161971 -1.296565
    32 1.240438 -0.000008 0.000006 0.000001 -0.000011 -1.274010
    33 3.449664 0.054214 -1.085181 0.057615 0.157520 -0.296961
    34 1.707706 -0.000006 0.000010 0.000001 -0.029514 -0.784931
    35 0.998535 0.000000 0.000001 0.005618 -0.013551 -0.593085
    36 0.075532 -0.738749 -0.759723 1.293521 0.406470 -0.475805
    37 2.508555 -0.000002 -0.000004 -0.000004 0.000001 0.359160
    38 1.303711 0.270508 -0.093750 -0.005387 -0.039668 0.957143
    39 -6.808884 -23.135687 -8.068623 1.616276 -0.104472 3.152055
    40 -0.000002 2.197265 1.738281 0.000000 0.000000 0.000000
    41 -0.000005 3.713594 3.157173 0.000000 0.000000 0.000000
    42 -0.000006 2.774759 -0.359640 0.000000 0.000000 0.000000
    43 -1.364069 26.951141 -5.804949 1.570796 0.000000 1.570782
end
