// Created by Crowbar++ 0.74
version 1
nodes
  0 "ValveBiped.Bip01_Spine4" -1
  1 "ValveBiped.Bip01_L_Clavicle" 0
  2 "ValveBiped.Bip01_L_UpperArm" 1
  3 "ValveBiped.Bip01_L_Forearm" 2
  4 "ValveBiped.Bip01_L_Hand" 3
  5 "ValveBiped.Bip01_L_Finger4" 4
  6 "ValveBiped.Bip01_L_Finger41" 5
  7 "ValveBiped.Bip01_L_Finger42" 6
  8 "ValveBiped.Bip01_L_Finger3" 4
  9 "ValveBiped.Bip01_L_Finger31" 8
  10 "ValveBiped.Bip01_L_Finger32" 9
  11 "ValveBiped.Bip01_L_Finger2" 4
  12 "ValveBiped.Bip01_L_Finger21" 11
  13 "ValveBiped.Bip01_L_Finger22" 12
  14 "ValveBiped.Bip01_L_Finger1" 4
  15 "ValveBiped.Bip01_L_Finger11" 14
  16 "ValveBiped.Bip01_L_Finger12" 15
  17 "ValveBiped.Bip01_L_Finger0" 4
  18 "ValveBiped.Bip01_L_Finger01" 17
  19 "ValveBiped.Bip01_L_Finger02" 18
  20 "ValveBiped.Bip01_R_Clavicle" 0
  21 "ValveBiped.Bip01_R_UpperArm" 20
  22 "ValveBiped.Bip01_R_Forearm" 21
  23 "ValveBiped.Bip01_R_Hand" 22
  24 "ValveBiped.Bip01_R_Finger4" 23
  25 "ValveBiped.Bip01_R_Finger41" 24
  26 "ValveBiped.Bip01_R_Finger42" 25
  27 "ValveBiped.Bip01_R_Finger3" 23
  28 "ValveBiped.Bip01_R_Finger31" 27
  29 "ValveBiped.Bip01_R_Finger32" 28
  30 "ValveBiped.Bip01_R_Finger2" 23
  31 "ValveBiped.Bip01_R_Finger21" 30
  32 "ValveBiped.Bip01_R_Finger22" 31
  33 "ValveBiped.Bip01_R_Finger1" 23
  34 "ValveBiped.Bip01_R_Finger11" 33
  35 "ValveBiped.Bip01_R_Finger12" 34
  36 "ValveBiped.Bip01_R_Finger0" 23
  37 "ValveBiped.Bip01_R_Finger01" 36
  38 "ValveBiped.Bip01_R_Finger02" 37
  39 "v_weapon.TMP_Parent" -1
  40 "v_weapon.TMP_Clip" 39
  41 "v_weapon.TMP_ShellEject" 39
  42 "v_weapon.TMP_Trigger" 39
  43 "v_weapon.TMP_Clip2" -1
end
skeleton
  time 0
    0 0.000005 -1.663086 -9.140625 -1.570760 -1.391893 -1.570827
    1 2.033348 1.000767 1.937660 3.099206 -0.162014 1.679995
    2 6.028138 0.000009 0.000002 -1.712098 -0.238551 -0.312620
    3 11.692574 0.000164 -0.000020 0.149828 -0.758454 -1.360012
    4 11.481693 -0.000162 -0.000041 1.103498 0.289548 0.609324
    5 3.277344 0.005463 -1.384766 0.043462 -0.170525 -0.824046
    6 1.327148 -0.000002 -0.000002 0.000001 -0.058542 -0.582055
    7 0.818848 -0.000004 0.000000 0.000000 0.000000 -0.916269
    8 3.711850 0.109238 -0.568167 -0.034715 -0.151724 -1.089849
    9 1.610352 -0.000002 0.000000 -0.000002 0.006543 -0.732913
    10 0.988281 0.000002 -0.000001 0.003569 0.008771 -0.846696
    11 3.781250 0.206177 0.241211 -0.045590 -0.107980 -1.134982
    12 1.680664 0.000004 -0.000001 0.000000 0.012356 -0.881344
    13 1.256057 -0.000010 0.000004 -0.006052 0.006842 -0.916178
    14 3.594219 0.299534 1.113709 -0.013414 -0.117788 -1.213838
    15 1.722656 0.000004 0.000002 0.000000 0.000000 -0.811553
    16 1.005919 -0.000008 0.000003 0.000004 0.000006 -1.160572
    17 0.291992 -0.637695 0.423584 -1.430493 -0.525035 -0.559196
    18 2.636719 0.000000 0.000000 0.000001 0.003211 0.560582
    19 1.308564 -0.000001 -0.000006 -0.026233 -0.055130 0.588009
    20 2.033356 1.000772 -1.937609 -0.128177 0.172990 -2.038336
    21 6.028134 0.000001 -0.000002 -0.944943 0.750028 -2.723571
    22 11.692558 0.000084 0.000007 0.013508 -0.032994 -0.783388
    23 11.481697 -0.000003 -0.000004 -0.563066 -0.049696 0.345749
    24 2.914331 -0.023166 1.400148 -0.087254 -0.051811 -0.871450
    25 1.285218 0.000002 0.000000 0.000005 0.091241 -0.570111
    26 0.842285 0.000000 -0.000002 -0.106906 0.058037 -1.427404
    27 3.368059 0.007374 0.618550 0.035973 -0.077319 -1.016266
    28 1.610352 -0.000004 -0.000001 -0.000005 0.127994 -1.218714
    29 1.016602 0.000004 0.000001 0.011974 -0.012985 -1.177968
    30 3.555524 0.023920 -0.200566 0.012608 -0.103497 -0.905354
    31 1.668797 -0.000002 0.000006 0.000001 0.161956 -1.296563
    32 1.236531 -0.000008 0.000006 0.000001 -0.000011 -1.274010
    33 3.449664 0.054214 -1.089088 0.054237 0.157760 -0.341144
    34 1.715519 -0.000006 0.000010 0.000001 -0.047970 -1.221275
    35 1.002007 0.000011 0.000006 0.010322 -0.019989 -0.758772
    36 0.075532 -0.738749 -0.759723 1.293521 0.406470 -0.475805
    37 2.508555 -0.000002 -0.000004 -0.000004 0.000001 0.359160
    38 1.303711 0.270752 -0.093689 -0.005387 -0.039668 0.957143
    39 -7.070611 -22.643484 -8.064716 1.560958 0.016131 3.137117
    40 -0.000002 2.197265 1.738281 0.000000 0.000000 0.000000
    41 -0.000005 3.713594 3.157173 0.000000 0.000000 0.000000
    42 -0.000006 2.774759 -0.168228 -0.174532 0.000000 0.000000
    43 -1.364069 26.951141 -5.804949 1.570796 0.000000 1.570782
  time 1
    0 0.000005 -1.663086 -9.140625 -1.570760 -1.391893 -1.570827
    1 2.033348 1.000767 1.937660 3.099206 -0.162014 1.679995
    2 6.028138 0.000009 0.000002 -1.712098 -0.238551 -0.312620
    3 11.692574 0.000164 -0.000020 0.149828 -0.758454 -1.360012
    4 11.481693 -0.000162 -0.000041 1.103498 0.289548 0.609324
    5 3.277344 0.005463 -1.384766 0.043462 -0.170525 -0.824046
    6 1.327148 -0.000002 -0.000002 0.000001 -0.058542 -0.582055
    7 0.818848 -0.000004 0.000000 0.000000 0.000000 -0.916269
    8 3.711850 0.109238 -0.568167 -0.034715 -0.151724 -1.089849
    9 1.610352 -0.000002 0.000000 -0.000002 0.006543 -0.732913
    10 0.988281 0.000002 -0.000001 0.003569 0.008771 -0.846696
    11 3.781250 0.206177 0.241211 -0.045590 -0.107980 -1.134982
    12 1.680664 0.000004 -0.000001 0.000000 0.012356 -0.881344
    13 1.256057 -0.000010 0.000004 -0.006052 0.006842 -0.916178
    14 3.594219 0.299534 1.113709 -0.013414 -0.117788 -1.213838
    15 1.722656 0.000004 0.000002 0.000000 0.000000 -0.811553
    16 1.005919 -0.000008 0.000003 0.000004 0.000006 -1.160572
    17 0.291992 -0.637695 0.423584 -1.430493 -0.525035 -0.559196
    18 2.636719 0.000000 0.000000 0.000001 0.003211 0.560582
    19 1.308564 -0.000001 -0.000006 -0.026233 -0.055130 0.588009
    20 2.033356 1.000772 -1.937609 -0.128177 0.172990 -2.038336
    21 6.028134 0.000001 -0.000002 -0.944943 0.750028 -2.723571
    22 11.692558 0.000084 0.000007 0.013508 -0.032994 -0.783388
    23 11.481697 -0.000003 -0.000004 -0.563066 -0.049696 0.345749
    24 2.914331 -0.023166 1.400148 -0.087254 -0.051811 -0.871450
    25 1.285218 0.000002 0.000000 0.000005 0.091241 -0.570111
    26 0.842285 0.000000 -0.000002 -0.106906 0.058037 -1.427404
    27 3.368059 0.007374 0.618550 0.035973 -0.077319 -1.016266
    28 1.610352 -0.000004 -0.000001 -0.000005 0.127994 -1.218714
    29 1.016602 0.000004 0.000001 0.011974 -0.012985 -1.177968
    30 3.555524 0.023920 -0.200566 0.012608 -0.103497 -0.905354
    31 1.668797 -0.000002 0.000006 0.000001 0.161956 -1.296563
    32 1.236531 -0.000008 0.000006 0.000001 -0.000011 -1.274010
    33 3.449664 0.054214 -1.089088 0.054237 0.157760 -0.341144
    34 1.715519 -0.000006 0.000010 0.000001 -0.047970 -1.221275
    35 1.002007 0.000011 0.000006 0.010322 -0.019989 -0.758772
    36 0.075532 -0.738749 -0.759723 1.293521 0.406470 -0.475805
    37 2.508555 -0.000002 -0.000004 -0.000004 0.000001 0.359160
    38 1.303711 0.270752 -0.093689 -0.005387 -0.039668 0.957143
    39 -7.070611 -22.643484 -8.064716 1.560958 0.016131 3.137117
    40 -0.000002 2.197265 1.738281 0.000000 0.000000 0.000000
    41 -0.000005 3.713594 3.157173 0.000000 0.000000 0.000000
    42 -0.000006 2.774759 -0.168228 -0.174532 0.000000 0.000000
    43 -1.364069 26.951141 -5.804949 1.570796 0.000000 1.570782
  time 2
    0 0.000005 -1.663086 -9.140625 -1.570760 -1.391893 -1.570827
    1 2.033348 1.000767 1.937660 3.099206 -0.162014 1.679995
    2 6.028138 0.000009 0.000002 -1.724606 -0.245329 -0.288540
    3 11.692574 0.000164 -0.000020 0.075714 -0.743750 -1.251549
    4 11.481693 -0.000162 -0.000041 1.091242 0.283313 0.524818
    5 3.277344 0.005463 -1.384766 0.043462 -0.170525 -0.824046
    6 1.327148 -0.000002 -0.000002 0.000001 -0.058542 -0.582055
    7 0.818848 -0.000004 0.000000 0.000000 0.000000 -0.916269
    8 3.711850 0.109238 -0.568167 -0.034715 -0.151712 -1.089806
    9 1.610352 -0.000002 0.000000 -0.000002 0.006543 -0.732913
    10 0.988281 0.000002 -0.000001 0.003569 0.008771 -0.846696
    11 3.781250 0.206177 0.241211 -0.045590 -0.107980 -1.134982
    12 1.680664 0.000004 -0.000001 0.000000 0.012356 -0.881344
    13 1.256057 -0.000010 0.000004 -0.006052 0.006842 -0.916178
    14 3.594219 0.299534 1.113709 -0.013414 -0.117788 -1.213838
    15 1.722656 0.000004 0.000002 0.000000 0.000000 -0.811553
    16 1.005919 -0.000008 0.000003 0.000004 0.000006 -1.160600
    17 0.291992 -0.637695 0.423584 -1.430493 -0.525035 -0.559196
    18 2.636719 0.000000 0.000000 0.000001 0.003211 0.560582
    19 1.308564 -0.000001 -0.000006 -0.026233 -0.055118 0.588009
    20 2.033356 1.000772 -1.937609 -0.128177 0.172990 -2.038336
    21 6.028134 0.000001 -0.000002 -0.969952 0.672756 -2.766481
    22 11.692558 0.000084 0.000007 0.006868 -0.021656 -0.625027
    23 11.481697 -0.000003 -0.000004 -0.578481 -0.042457 0.264420
    24 2.914331 -0.023166 1.400148 -0.087254 -0.051811 -0.871450
    25 1.285218 0.000002 0.000000 0.000005 0.091241 -0.570111
    26 0.842285 0.000000 -0.000002 -0.106906 0.058037 -1.427404
    27 3.368059 0.007374 0.618550 0.035973 -0.077319 -1.016266
    28 1.610352 -0.000004 -0.000001 -0.000005 0.127994 -1.218714
    29 1.016602 0.000004 0.000001 0.011974 -0.012985 -1.177968
    30 3.555524 0.023920 -0.200566 0.012608 -0.103497 -0.905354
    31 1.668797 -0.000002 0.000006 0.000001 0.161956 -1.296563
    32 1.236531 -0.000008 0.000006 0.000001 -0.000011 -1.274010
    33 3.449664 0.054214 -1.089088 0.054669 0.157760 -0.335617
    34 1.715519 -0.000006 0.000010 0.000001 -0.045980 -1.166712
    35 1.002007 0.000011 0.000006 0.009675 -0.019244 -0.738040
    36 0.075532 -0.738749 -0.759723 1.293533 0.406470 -0.475805
    37 2.508555 -0.000002 -0.000004 -0.000004 0.000001 0.359160
    38 1.303711 0.270752 -0.093689 -0.005387 -0.039668 0.957143
    39 -7.015922 -23.307567 -8.127218 1.567261 0.008579 3.139007
    40 -0.000002 2.197265 1.738281 0.000000 0.000000 0.000000
    41 -0.000005 2.916695 3.157173 0.000000 0.000000 0.000000
    42 -0.000006 2.774759 -0.195573 -0.152708 0.000000 0.000000
    43 -1.364069 26.951141 -5.804949 1.570796 0.000000 1.570782
  time 3
    0 0.000005 -1.663086 -9.140625 -1.570760 -1.391893 -1.570827
    1 2.033348 1.000767 1.937660 3.099206 -0.162014 1.679995
    2 6.028138 0.000009 0.000002 -1.728254 -0.246428 -0.281895
    3 11.692574 0.000164 -0.000020 0.045018 -0.735682 -1.205973
    4 11.481693 -0.000162 -0.000041 1.084803 0.274874 0.468922
    5 3.277344 0.005463 -1.384766 0.043462 -0.170525 -0.824046
    6 1.327148 -0.000002 -0.000002 0.000001 -0.058542 -0.582055
    7 0.818848 -0.000004 0.000000 0.000000 0.000000 -0.916269
    8 3.711850 0.109238 -0.568167 -0.034703 -0.151724 -1.089849
    9 1.610352 -0.000002 0.000000 -0.000002 0.006543 -0.732913
    10 0.988281 0.000002 -0.000001 0.003569 0.008771 -0.846696
    11 3.781250 0.206177 0.241211 -0.045590 -0.107980 -1.134982
    12 1.680664 0.000004 -0.000001 0.000000 0.012356 -0.881344
    13 1.256057 -0.000010 0.000004 -0.006052 0.006842 -0.916178
    14 3.594219 0.299534 1.113709 -0.013414 -0.117788 -1.213838
    15 1.722656 0.000004 0.000002 0.000000 0.000000 -0.811553
    16 1.005919 -0.000008 0.000003 0.000004 0.000006 -1.160572
    17 0.291992 -0.637695 0.423584 -1.430493 -0.525035 -0.559196
    18 2.636719 0.000000 0.000000 0.000001 0.003211 0.560582
    19 1.308564 -0.000001 -0.000006 -0.026233 -0.055118 0.588009
    20 2.033356 1.000772 -1.937609 -0.128177 0.172990 -2.038336
    21 6.028134 0.000001 -0.000002 -0.980509 0.636777 -2.789672
    22 11.692558 0.000084 0.000007 0.007887 -0.028284 -0.545264
    23 11.481697 -0.000003 -0.000004 -0.590309 -0.027639 0.219081
    24 2.910425 -0.023166 1.400148 -0.087254 -0.051811 -0.871450
    25 1.285218 0.000002 0.000000 0.000005 0.091241 -0.570111
    26 0.842285 0.000000 -0.000002 -0.106906 0.058037 -1.427404
    27 3.364152 0.007374 0.622456 0.035973 -0.077319 -1.016266
    28 1.610352 -0.000004 -0.000001 -0.000005 0.127994 -1.218714
    29 1.016602 0.000004 0.000001 0.011974 -0.012985 -1.177968
    30 3.555524 0.023920 -0.200566 0.012608 -0.103497 -0.905354
    31 1.668797 -0.000002 0.000006 0.000001 0.161956 -1.296563
    32 1.236531 -0.000008 0.000006 0.000001 -0.000011 -1.274010
    33 3.449664 0.054214 -1.085181 0.055088 0.157736 -0.330090
    34 1.715519 -0.000006 0.000010 0.000001 -0.043883 -1.112148
    35 1.002007 0.000011 0.000006 0.009027 -0.018463 -0.717329
    36 0.075532 -0.738749 -0.759723 1.293521 0.406470 -0.475805
    37 2.508555 -0.000002 -0.000004 -0.000004 0.000001 0.359160
    38 1.303711 0.270752 -0.093689 -0.005387 -0.039668 0.957143
    39 -6.965139 -23.588825 -8.205346 1.573447 0.001093 3.140897
    40 -0.000002 2.197265 1.738281 0.000000 0.000000 0.000000
    41 -0.000005 3.444055 3.157173 0.000000 0.000000 0.000000
    42 -0.000006 2.774759 -0.219011 -0.130896 0.000000 0.000000
    43 -1.364069 26.951141 -5.804949 1.570796 0.000000 1.570782
  time 4
    0 0.000005 -1.663086 -9.140625 -1.570760 -1.391893 -1.570827
    1 2.033348 1.000767 1.937660 3.099206 -0.162014 1.679995
    2 6.028138 0.000009 0.000002 -1.724780 -0.241739 -0.291184
    3 11.692574 0.000164 -0.000020 0.048221 -0.736584 -1.210737
    4 11.481693 -0.000162 -0.000041 1.084803 0.270578 0.442790
    5 3.277344 0.005463 -1.384766 0.043462 -0.170525 -0.824046
    6 1.327148 -0.000002 -0.000002 0.000001 -0.058542 -0.582055
    7 0.818848 -0.000004 0.000000 0.000000 0.000000 -0.916269
    8 3.711850 0.109238 -0.568167 -0.034715 -0.151712 -1.089806
    9 1.610352 -0.000002 0.000000 -0.000002 0.006543 -0.732913
    10 0.988281 0.000002 -0.000001 0.003569 0.008771 -0.846696
    11 3.781250 0.206177 0.241211 -0.045590 -0.107980 -1.134982
    12 1.680664 0.000004 -0.000001 0.000000 0.012356 -0.881344
    13 1.256057 -0.000010 0.000004 -0.006052 0.006854 -0.916178
    14 3.594219 0.299534 1.113709 -0.013414 -0.117788 -1.213838
    15 1.722656 0.000004 0.000002 0.000000 0.000000 -0.811553
    16 1.005919 -0.000008 0.000003 0.000004 0.000006 -1.160572
    17 0.291992 -0.637695 0.423584 -1.430493 -0.525035 -0.559196
    18 2.636719 0.000000 0.000000 0.000001 0.003211 0.560582
    19 1.308564 -0.000001 -0.000006 -0.026233 -0.055118 0.588009
    20 2.033356 1.000772 -1.937609 -0.128177 0.172990 -2.038336
    21 6.028134 0.000001 -0.000002 -0.974019 0.638838 -2.779184
    22 11.692558 0.000084 0.000007 0.006089 -0.021680 -0.557386
    23 11.481697 -0.000003 -0.000004 -0.595846 -0.028905 0.222876
    24 2.914331 -0.023166 1.396241 -0.087254 -0.051811 -0.871450
    25 1.285218 0.000002 0.000000 0.000005 0.091241 -0.570111
    26 0.842285 0.000000 -0.000002 -0.106906 0.058037 -1.427404
    27 3.368059 0.007374 0.622456 0.035973 -0.077319 -1.016266
    28 1.610352 -0.000004 -0.000001 -0.000005 0.127994 -1.218714
    29 1.016602 0.000004 0.000001 0.011974 -0.012985 -1.177968
    30 3.555524 0.023920 -0.204473 0.012608 -0.103497 -0.905354
    31 1.668797 -0.000002 0.000006 0.000001 0.161956 -1.296563
    32 1.236531 -0.000008 0.000006 0.000001 -0.000011 -1.274010
    33 3.449664 0.054214 -1.089088 0.055507 0.157712 -0.324563
    34 1.715519 -0.000006 0.000010 0.000001 -0.041690 -1.057584
    35 1.002007 0.000011 0.000006 0.008416 -0.017682 -0.696641
    36 0.075532 -0.734842 -0.763630 1.293533 0.406470 -0.475805
    37 2.508555 -0.000002 -0.000004 -0.000004 0.000001 0.359160
    38 1.303711 0.270752 -0.093689 -0.005387 -0.039668 0.957143
    39 -6.933888 -23.565387 -8.248316 1.574213 -0.002981 3.142300
    40 -0.000002 2.197265 1.738281 0.000000 0.000000 0.000000
    41 -0.000005 3.713594 3.157173 0.000000 0.000000 0.000000
    42 -0.000006 2.774759 -0.246355 -0.109072 0.000000 0.000000
    43 -1.364069 26.951141 -5.804949 1.570796 0.000000 1.570782
  time 5
    0 0.000005 -1.663086 -9.140625 -1.570760 -1.391893 -1.570827
    1 2.033348 1.000767 1.937660 3.099206 -0.162014 1.679995
    2 6.028138 0.000009 0.000002 -1.716267 -0.232689 -0.311691
    3 11.692574 0.000164 -0.000020 0.076337 -0.743909 -1.252423
    4 11.481693 -0.000162 -0.000041 1.091552 0.276318 0.448363
    5 3.277344 0.005463 -1.384766 0.043462 -0.170525 -0.824046
    6 1.327148 -0.000002 -0.000002 0.000001 -0.058542 -0.582055
    7 0.818848 -0.000004 0.000000 0.000000 0.000000 -0.916269
    8 3.711850 0.109238 -0.568167 -0.034715 -0.151712 -1.089806
    9 1.610352 -0.000002 0.000000 -0.000002 0.006543 -0.732913
    10 0.988281 0.000002 -0.000001 0.003569 0.008771 -0.846696
    11 3.781250 0.206177 0.241211 -0.045590 -0.107980 -1.134982
    12 1.680664 0.000004 -0.000001 0.000000 0.012356 -0.881344
    13 1.256057 -0.000010 0.000004 -0.006052 0.006842 -0.916178
    14 3.594219 0.299534 1.109803 -0.013414 -0.117788 -1.213838
    15 1.722656 0.000004 0.000002 0.000000 0.000000 -0.811553
    16 1.005919 -0.000008 0.000003 0.000004 0.000006 -1.160572
    17 0.291992 -0.637695 0.423584 -1.430493 -0.525035 -0.559196
    18 2.636719 0.000000 0.000000 0.000001 0.003211 0.560582
    19 1.308564 -0.000001 -0.000006 -0.026233 -0.055118 0.588009
    20 2.033356 1.000772 -1.937609 -0.128177 0.172990 -2.038336
    21 6.028134 0.000001 -0.000002 -0.960952 0.671617 -2.755476
    22 11.692558 0.000084 0.000007 0.006724 -0.020697 -0.632576
    23 11.481697 -0.000003 -0.000004 -0.595154 -0.045987 0.268534
    24 2.914331 -0.027073 1.400148 -0.087254 -0.051307 -0.871408
    25 1.285218 0.000002 0.000000 0.000005 0.091241 -0.570111
    26 0.842285 0.000000 -0.000002 -0.106906 0.058037 -1.427404
    27 3.368059 0.007374 0.622456 0.035901 -0.076840 -1.016238
    28 1.610352 -0.000004 -0.000001 -0.000005 0.127994 -1.218714
    29 1.016602 0.000004 0.000001 0.011974 -0.012985 -1.177968
    30 3.555524 0.023920 -0.200566 0.012584 -0.103006 -0.905311
    31 1.668797 -0.000002 0.000006 0.000001 0.161956 -1.296563
    32 1.236531 -0.000008 0.000006 0.000001 -0.000011 -1.274010
    33 3.449664 0.054214 -1.089088 0.056180 0.158107 -0.318968
    34 1.715519 -0.000006 0.000010 0.000001 -0.039401 -1.003020
    35 1.002007 0.000011 0.000006 0.007829 -0.016863 -0.675909
    36 0.075532 -0.738749 -0.759723 1.293737 0.406929 -0.475697
    37 2.508555 -0.000002 -0.000004 -0.000004 0.000001 0.359160
    38 1.303711 0.270752 -0.093689 -0.005387 -0.039668 0.957143
    39 -6.922169 -23.299754 -8.283473 1.558542 -0.001987 3.143458
    40 -0.000002 2.197265 1.738281 0.000000 0.000000 0.000000
    41 -0.000005 3.713594 3.157173 0.000000 0.000000 0.000000
    42 -0.000006 2.774759 -0.265887 -0.087260 0.000000 0.000000
    43 -1.364069 26.951141 -5.804949 1.570796 0.000000 1.570782
  time 6
    0 0.000005 -1.663086 -9.140625 -1.570760 -1.391893 -1.570827
    1 2.033348 1.000767 1.937660 3.099206 -0.162014 1.679995
    2 6.028138 0.000009 0.000002 -1.715862 -0.226608 -0.317693
    3 11.692574 0.000164 -0.000020 0.086035 -0.746192 -1.266794
    4 11.481693 -0.000162 -0.000041 1.080770 0.288864 0.444895
    5 3.277344 0.005463 -1.384766 0.043462 -0.170525 -0.824046
    6 1.327148 -0.000002 -0.000002 0.000001 -0.058542 -0.582055
    7 0.818848 -0.000004 0.000000 0.000000 0.000000 -0.916269
    8 3.711850 0.109238 -0.568167 -0.034715 -0.151724 -1.089849
    9 1.610352 -0.000002 0.000000 -0.000002 0.006543 -0.732913
    10 0.988281 0.000002 -0.000001 0.003569 0.008771 -0.846696
    11 3.781250 0.206177 0.241211 -0.045590 -0.107980 -1.134982
    12 1.680664 0.000004 -0.000001 0.000000 0.012356 -0.881344
    13 1.256057 -0.000010 0.000004 -0.006052 0.006842 -0.916178
    14 3.594219 0.299534 1.109803 -0.013414 -0.117788 -1.213838
    15 1.722656 0.000004 0.000002 0.000000 0.000000 -0.811553
    16 1.005919 -0.000008 0.000003 0.000004 0.000006 -1.160572
    17 0.291992 -0.637695 0.423584 -1.430493 -0.525035 -0.559196
    18 2.636719 0.000000 0.000000 0.000001 0.003211 0.560582
    19 1.308564 -0.000001 -0.000006 -0.026233 -0.055118 0.588009
    20 2.033356 1.000772 -1.937609 -0.128177 0.172990 -2.038336
    21 6.028134 0.000001 -0.000002 -0.953683 0.692169 -2.741887
    22 11.692558 0.000084 0.000007 0.006820 -0.019535 -0.679165
    23 11.481697 -0.000003 -0.000004 -0.592826 -0.070594 0.305484
    24 2.914331 -0.023166 1.400148 -0.087254 -0.051811 -0.871450
    25 1.285218 0.000002 0.000000 0.000005 0.091241 -0.570111
    26 0.842285 0.000000 -0.000002 -0.106906 0.058037 -1.427404
    27 3.368059 0.007374 0.618550 0.035973 -0.077319 -1.016266
    28 1.610352 -0.000004 -0.000001 -0.000005 0.127994 -1.218714
    29 1.016602 0.000004 0.000001 0.011974 -0.012985 -1.177968
    30 3.555524 0.023920 -0.204473 0.012608 -0.103497 -0.905354
    31 1.668797 -0.000002 0.000006 0.000001 0.161956 -1.296563
    32 1.236531 -0.000008 0.000006 0.000001 -0.000011 -1.274010
    33 3.449664 0.054214 -1.089088 0.056358 0.157652 -0.313525
    34 1.711612 -0.000006 0.000010 0.000001 -0.037028 -0.948484
    35 1.002007 0.000011 0.000006 0.007254 -0.016063 -0.655220
    36 0.075532 -0.738749 -0.759723 1.293521 0.406470 -0.475805
    37 2.508555 -0.000002 -0.000004 -0.000004 0.000001 0.359160
    38 1.303711 0.270752 -0.093689 -0.005387 -0.039668 0.957143
    39 -6.918263 -23.104436 -8.342069 1.533505 0.001524 3.144556
    40 -0.000002 2.197265 1.738281 0.000000 0.000000 0.000000
    41 -0.000005 3.713594 3.157173 0.000000 0.000000 0.000000
    42 -0.000006 2.774759 -0.289325 -0.065448 0.000000 0.000000
    43 -1.364069 26.951141 -5.804949 1.570796 0.000000 1.570782
  time 7
    0 0.000005 -1.663086 -9.140625 -1.570760 -1.391893 -1.570827
    1 2.033348 1.000767 1.937660 3.099206 -0.162014 1.679995
    2 6.028138 0.000009 0.000002 -1.715457 -0.220380 -0.323838
    3 11.692574 0.000164 -0.000020 0.095703 -0.748395 -1.280928
    4 11.481693 -0.000162 -0.000041 1.073401 0.310647 0.454762
    5 3.277344 0.005463 -1.384766 0.043462 -0.170525 -0.824046
    6 1.327148 -0.000002 -0.000002 0.000001 -0.058542 -0.582055
    7 0.818848 -0.000004 0.000000 0.000000 0.000000 -0.916269
    8 3.711850 0.109238 -0.568167 -0.034715 -0.151724 -1.089806
    9 1.610352 -0.000002 0.000000 -0.000002 0.006543 -0.732913
    10 0.988281 0.000002 -0.000001 0.003569 0.008771 -0.846696
    11 3.781250 0.206177 0.241211 -0.045590 -0.107980 -1.134982
    12 1.680664 0.000004 -0.000001 0.000000 0.012356 -0.881344
    13 1.256057 -0.000010 0.000004 -0.006052 0.006842 -0.916178
    14 3.594219 0.299534 1.109803 -0.013414 -0.117788 -1.213838
    15 1.722656 0.000004 0.000002 0.000000 0.000000 -0.811553
    16 1.005919 -0.000008 0.000003 0.000004 0.000006 -1.160600
    17 0.291992 -0.637695 0.423584 -1.430493 -0.525035 -0.559196
    18 2.636719 0.000000 0.000000 0.000001 0.003211 0.560582
    19 1.308564 -0.000001 -0.000006 -0.026233 -0.055118 0.588009
    20 2.033356 1.000772 -1.937609 -0.128177 0.172990 -2.038336
    21 6.028134 0.000001 -0.000002 -0.952558 0.703963 -2.738563
    22 11.692558 0.000084 0.000007 0.007635 -0.020925 -0.703366
    23 11.481697 -0.000003 -0.000004 -0.589743 -0.083432 0.325257
    24 2.914331 -0.023166 1.400148 -0.087254 -0.051811 -0.871450
    25 1.285218 0.000002 0.000000 0.000005 0.091241 -0.570131
    26 0.842285 0.000000 -0.000002 -0.106906 0.058037 -1.427404
    27 3.368059 0.007374 0.622456 0.035973 -0.077319 -1.016266
    28 1.610352 -0.000004 -0.000001 -0.000005 0.127994 -1.218714
    29 1.016602 0.000004 0.000001 0.011974 -0.012985 -1.177968
    30 3.555524 0.023920 -0.200566 0.012608 -0.103497 -0.905354
    31 1.668797 -0.000002 0.000006 0.000001 0.161956 -1.296593
    32 1.236531 -0.000008 0.000006 0.000001 -0.000011 -1.274010
    33 3.449664 0.054214 -1.089088 0.056790 0.157616 -0.307998
    34 1.711612 -0.000006 0.000010 0.000001 -0.034583 -0.893948
    35 1.002007 0.000011 0.000006 0.006678 -0.015226 -0.634488
    36 0.075532 -0.738749 -0.759723 1.293521 0.406470 -0.475805
    37 2.512462 -0.000002 -0.000004 -0.000004 0.000001 0.359148
    38 1.303711 0.270752 -0.093689 -0.005387 -0.039668 0.957143
    39 -6.918263 -23.002870 -8.330349 1.521310 0.004174 3.144739
    40 -0.000002 2.197265 1.738281 0.000000 0.000000 0.000000
    41 -0.000005 3.713594 3.157173 0.000000 0.000000 0.000000
    42 -0.000006 2.774759 -0.316670 -0.043624 0.000000 0.000000
    43 -1.364069 26.951141 -5.804949 1.570796 0.000000 1.570782
  time 8
    0 0.000005 -1.663086 -9.140625 -1.570760 -1.391893 -1.570827
    1 2.033348 1.000767 1.937660 3.099206 -0.162014 1.679995
    2 6.028138 0.000009 0.000002 -1.721826 -0.218511 -0.316335
    3 11.692574 0.000164 -0.000020 0.112222 -0.751872 -1.305225
    4 11.481693 -0.000162 -0.000041 1.069212 0.347524 0.488861
    5 3.277344 0.005463 -1.384766 0.043462 -0.170525 -0.824046
    6 1.327148 -0.000002 -0.000002 0.000001 -0.058542 -0.582055
    7 0.818848 -0.000004 0.000000 0.000000 0.000000 -0.916269
    8 3.711850 0.105331 -0.568167 -0.034703 -0.151724 -1.089849
    9 1.610352 -0.000002 0.000000 -0.000002 0.006543 -0.732913
    10 0.988281 0.000002 -0.000001 0.003569 0.008771 -0.846696
    11 3.781250 0.206177 0.241211 -0.045590 -0.107980 -1.134982
    12 1.680664 0.000004 -0.000001 0.000000 0.012356 -0.881344
    13 1.256057 -0.000010 0.000004 -0.006052 0.006842 -0.916178
    14 3.594219 0.299534 1.113709 -0.013414 -0.117788 -1.213871
    15 1.722656 0.000004 0.000002 0.000000 0.000000 -0.811553
    16 1.005919 -0.000008 0.000003 0.000004 0.000006 -1.160572
    17 0.291992 -0.637695 0.423584 -1.430493 -0.525035 -0.559196
    18 2.636719 0.000000 0.000000 0.000001 0.003211 0.560582
    19 1.308564 -0.000001 -0.000006 -0.026233 -0.055118 0.588009
    20 2.033356 1.000772 -1.937609 -0.128177 0.172990 -2.038336
    21 6.028134 0.000001 -0.000002 -0.958616 0.706376 -2.747795
    22 11.692558 0.000084 0.000007 0.010128 -0.027984 -0.702288
    23 11.481697 -0.000003 -0.000004 -0.585087 -0.065833 0.316189
    24 2.910425 -0.023166 1.400148 -0.087254 -0.051811 -0.871450
    25 1.285218 0.000002 0.000000 0.000005 0.091241 -0.570111
    26 0.842285 0.000000 -0.000002 -0.106906 0.058037 -1.427404
    27 3.364152 0.007374 0.622456 0.035973 -0.077319 -1.016266
    28 1.610352 -0.000004 -0.000001 -0.000005 0.127994 -1.218714
    29 1.016602 0.000004 0.000001 0.011974 -0.012985 -1.177968
    30 3.551618 0.023920 -0.200566 0.012608 -0.103497 -0.905354
    31 1.668797 -0.000002 0.000006 0.000001 0.161956 -1.296563
    32 1.236531 -0.000008 0.000006 0.000001 0.000001 -1.274010
    33 3.449664 0.054214 -1.089088 0.057196 0.157568 -0.302488
    34 1.711612 -0.000006 0.000010 0.000001 -0.032078 -0.839467
    35 1.002007 0.000011 0.000006 0.006139 -0.014389 -0.613800
    36 0.075532 -0.734842 -0.759723 1.293533 0.406470 -0.475805
    37 2.512462 -0.000002 -0.000004 -0.000004 0.000001 0.359160
    38 1.303711 0.270752 -0.093689 -0.005387 -0.039668 0.957143
    39 -6.933888 -23.006776 -8.174095 1.540633 0.002948 3.143397
    40 -0.000002 2.197265 1.738281 0.000000 0.000000 0.000000
    41 -0.000005 3.713594 3.157173 0.000000 0.000000 0.000000
    42 -0.000006 2.774759 -0.340108 -0.021812 0.000000 0.000000
    43 -1.364069 26.951141 -5.804949 1.570796 0.000000 1.570782
  time 9
    0 0.000005 -1.663086 -9.140625 -1.570760 -1.391893 -1.570827
    1 2.033348 1.000767 1.937660 3.099206 -0.162014 1.679995
    2 6.028138 0.000009 0.000002 -1.728717 -0.217009 -0.307904
    3 11.692574 0.000164 -0.000020 0.128059 -0.754818 -1.328331
    4 11.481693 -0.000162 -0.000041 1.064791 0.382841 0.519947
    5 3.277344 0.005463 -1.384766 0.043462 -0.170525 -0.824046
    6 1.327148 -0.000002 -0.000002 0.000001 -0.058542 -0.582055
    7 0.818848 -0.000004 0.000000 0.000000 0.000000 -0.916269
    8 3.711850 0.109238 -0.568167 -0.034715 -0.151724 -1.089849
    9 1.610352 -0.000002 0.000000 -0.000002 0.006543 -0.732913
    10 0.988281 0.000002 -0.000001 0.003569 0.008771 -0.846696
    11 3.781250 0.206177 0.241211 -0.045590 -0.107980 -1.134982
    12 1.680664 0.000004 -0.000001 0.000000 0.012356 -0.881344
    13 1.256057 -0.000010 0.000004 -0.006052 0.006842 -0.916178
    14 3.594219 0.299534 1.113709 -0.013414 -0.117788 -1.213838
    15 1.722656 0.000004 0.000002 0.000000 0.000000 -0.811553
    16 1.005919 -0.000008 0.000003 0.000004 0.000006 -1.160572
    17 0.291992 -0.637695 0.423584 -1.430493 -0.525035 -0.559196
    18 2.636719 0.000000 0.000000 0.000001 0.003211 0.560582
    19 1.308564 -0.000001 -0.000006 -0.026233 -0.055118 0.588009
    20 2.033356 1.000772 -1.937609 -0.128177 0.172990 -2.038336
    21 6.028134 0.000001 -0.000002 -0.965971 0.697618 -2.759021
    22 11.692558 0.000084 0.000007 0.010380 -0.029398 -0.680675
    23 11.481697 -0.000003 -0.000004 -0.582508 -0.040210 0.290544
    24 2.910425 -0.023166 1.400148 -0.087085 -0.051919 -0.871174
    25 1.285218 0.000002 0.000000 0.000005 0.091241 -0.570111
    26 0.842285 0.000000 -0.000002 -0.106906 0.058037 -1.427404
    27 3.364152 0.007374 0.618550 0.036152 -0.077415 -1.016012
    28 1.610352 -0.000004 -0.000001 -0.000005 0.127994 -1.218714
    29 1.016602 0.000004 0.000001 0.011974 -0.012985 -1.177968
    30 3.551618 0.027827 -0.200566 0.012776 -0.103605 -0.905111
    31 1.668797 -0.000002 0.000006 0.000001 0.161956 -1.296563
    32 1.236531 -0.000008 0.000006 0.000001 -0.000011 -1.274010
    33 3.449664 0.054214 -1.085181 0.057692 0.157328 -0.296673
    34 1.711612 -0.000006 0.000010 0.000001 -0.029514 -0.784931
    35 1.002007 0.000011 0.000006 0.005612 -0.013533 -0.593068
    36 0.079438 -0.734842 -0.759723 1.293641 0.406307 -0.475481
    37 2.508555 -0.000002 -0.000004 -0.000004 0.000001 0.359160
    38 1.303711 0.270752 -0.093689 -0.005387 -0.039668 0.957143
    39 -6.953420 -23.100529 -8.002214 1.570796 0.000000 3.141568
    40 -0.000002 2.197265 1.738281 0.000000 0.000000 0.000000
    41 -0.000005 3.713594 3.157173 0.000000 0.000000 0.000000
    42 -0.000006 2.774759 -0.359640 0.000000 0.000000 0.000000
    43 -1.364069 26.951141 -5.804949 1.570796 0.000000 1.570782
end
