// Created by Crowbar++ 0.74
version 1
nodes
  0 "ValveBiped.Bip01_Spine4" -1
  1 "ValveBiped.Bip01_L_Clavicle" 0
  2 "ValveBiped.Bip01_L_UpperArm" 1
  3 "ValveBiped.Bip01_L_Forearm" 2
  4 "ValveBiped.Bip01_L_Hand" 3
  5 "ValveBiped.Bip01_L_Finger4" 4
  6 "ValveBiped.Bip01_L_Finger41" 5
  7 "ValveBiped.Bip01_L_Finger42" 6
  8 "ValveBiped.Bip01_L_Finger3" 4
  9 "ValveBiped.Bip01_L_Finger31" 8
  10 "ValveBiped.Bip01_L_Finger32" 9
  11 "ValveBiped.Bip01_L_Finger2" 4
  12 "ValveBiped.Bip01_L_Finger21" 11
  13 "ValveBiped.Bip01_L_Finger22" 12
  14 "ValveBiped.Bip01_L_Finger1" 4
  15 "ValveBiped.Bip01_L_Finger11" 14
  16 "ValveBiped.Bip01_L_Finger12" 15
  17 "ValveBiped.Bip01_L_Finger0" 4
  18 "ValveBiped.Bip01_L_Finger01" 17
  19 "ValveBiped.Bip01_L_Finger02" 18
  20 "ValveBiped.Bip01_R_Clavicle" 0
  21 "ValveBiped.Bip01_R_UpperArm" 20
  22 "ValveBiped.Bip01_R_Forearm" 21
  23 "ValveBiped.Bip01_R_Hand" 22
  24 "ValveBiped.Bip01_R_Finger4" 23
  25 "ValveBiped.Bip01_R_Finger41" 24
  26 "ValveBiped.Bip01_R_Finger42" 25
  27 "ValveBiped.Bip01_R_Finger3" 23
  28 "ValveBiped.Bip01_R_Finger31" 27
  29 "ValveBiped.Bip01_R_Finger32" 28
  30 "ValveBiped.Bip01_R_Finger2" 23
  31 "ValveBiped.Bip01_R_Finger21" 30
  32 "ValveBiped.Bip01_R_Finger22" 31
  33 "ValveBiped.Bip01_R_Finger1" 23
  34 "ValveBiped.Bip01_R_Finger11" 33
  35 "ValveBiped.Bip01_R_Finger12" 34
  36 "ValveBiped.Bip01_R_Finger0" 23
  37 "ValveBiped.Bip01_R_Finger01" 36
  38 "ValveBiped.Bip01_R_Finger02" 37
  39 "v_weapon.TMP_Parent" -1
  40 "v_weapon.TMP_Clip" 39
  41 "v_weapon.TMP_ShellEject" 39
  42 "v_weapon.TMP_Trigger" 39
  43 "v_weapon.TMP_Clip2" -1
end
skeleton
  time 0
    0 0.000005 -1.663086 -9.140625 -1.570760 -1.391893 -1.570827
    1 2.033348 1.000767 1.937660 3.099206 -0.162014 1.679995
    2 6.028138 0.000009 0.000002 -1.674633 -0.224153 -0.366495
    3 11.692574 0.000164 -0.000020 0.267895 -0.824620 -1.466013
    4 11.481693 -0.000162 -0.000041 1.167648 0.225490 0.693953
    5 3.281560 0.002101 -1.379482 0.043449 -0.170511 -0.824075
    6 1.324282 -0.000013 0.000005 0.000001 -0.058536 -0.582031
    7 0.818848 -0.000006 0.000002 0.000000 0.000000 -0.916269
    8 3.711850 0.109238 -0.568167 -0.034715 -0.151724 -1.089806
    9 1.609375 0.000000 0.000000 -0.000002 0.006543 -0.732913
    10 0.988281 0.000002 0.000001 0.003569 0.008771 -0.846696
    11 3.786027 0.203209 0.247843 -0.045570 -0.107970 -1.134961
    12 1.680664 -0.000002 0.000000 0.000000 0.012356 -0.881344
    13 1.256836 0.000000 0.000000 -0.006063 0.006854 -0.916181
    14 3.594219 0.299534 1.113709 -0.013414 -0.117788 -1.213838
    15 1.723633 0.000004 -0.000001 0.000000 0.000000 -0.811553
    16 1.005919 -0.000008 0.000003 0.000004 0.000006 -1.160572
    17 0.298210 -0.634100 0.426700 -1.430491 -0.525054 -0.559215
    18 2.633565 0.000002 -0.000006 -0.000002 0.003211 0.560578
    19 1.308564 -0.000001 -0.000006 -0.026233 -0.055130 0.588009
    20 2.033356 1.000772 -1.937609 -0.128177 0.172990 -2.038336
    21 6.028134 0.000001 -0.000002 -0.943991 0.746747 -2.721355
    22 11.692558 0.000084 0.000007 0.011027 -0.026965 -0.781101
    23 11.481697 -0.000003 -0.000004 -0.569232 -0.058201 0.317347
    24 2.914331 -0.027073 1.400148 -0.087254 -0.051811 -0.871450
    25 1.283203 0.000002 0.000000 0.000007 0.091253 -0.570128
    26 0.842285 0.000000 -0.000001 -0.106906 0.058037 -1.427404
    27 3.368059 0.007374 0.618550 0.035973 -0.077319 -1.016266
    28 1.610352 -0.000002 0.000000 -0.000005 0.127994 -1.218714
    29 1.016602 0.000002 0.000000 0.011974 -0.012985 -1.177968
    30 3.555524 0.023920 -0.200566 0.012608 -0.103497 -0.905354
    31 1.666016 0.000002 0.000000 -0.000009 0.161971 -1.296565
    32 1.236531 -0.000008 0.000006 0.000001 -0.000011 -1.274010
    33 3.449664 0.054214 -1.085181 0.054237 0.157772 -0.341144
    34 1.711612 -0.000006 0.000010 0.000001 -0.047970 -1.221275
    35 1.002007 0.000011 0.000006 0.010322 -0.019989 -0.758772
    36 0.075532 -0.738749 -0.759723 1.293521 0.406470 -0.475805
    37 2.515625 -0.000001 -0.000002 0.000000 0.000000 0.359160
    38 1.303711 0.270752 -0.093689 -0.005387 -0.039668 0.957140
    39 -6.945607 -22.643484 -8.013934 1.571032 0.006724 3.162970
    40 -0.000002 2.197265 1.738281 0.000000 0.000000 0.000000
    41 -0.000005 3.713594 3.157173 0.000000 0.000000 0.000000
    42 -0.000006 2.774759 -0.168228 -0.174532 0.000000 0.000000
    43 -1.364069 26.951141 -5.804949 1.570796 0.000000 1.570782
  time 1
    0 0.000005 -1.663086 -9.140625 -1.570760 -1.391893 -1.570827
    1 2.033348 1.000767 1.937660 3.099206 -0.162014 1.679995
    2 6.028138 0.000009 0.000002 -1.674633 -0.224153 -0.366495
    3 11.692574 0.000164 -0.000020 0.267895 -0.824620 -1.466013
    4 11.481693 -0.000162 -0.000041 1.167648 0.225490 0.693953
    5 3.281560 0.002101 -1.379482 0.043449 -0.170511 -0.824075
    6 1.324282 -0.000013 0.000005 0.000001 -0.058536 -0.582031
    7 0.818848 -0.000006 0.000002 0.000000 0.000000 -0.916269
    8 3.711850 0.109238 -0.568167 -0.034715 -0.151724 -1.089806
    9 1.609375 0.000000 0.000000 -0.000002 0.006543 -0.732913
    10 0.988281 0.000002 0.000001 0.003569 0.008771 -0.846696
    11 3.786027 0.203209 0.247843 -0.045570 -0.107970 -1.134961
    12 1.680664 -0.000002 0.000000 0.000000 0.012356 -0.881344
    13 1.256836 0.000000 0.000000 -0.006063 0.006854 -0.916181
    14 3.594219 0.299534 1.113709 -0.013414 -0.117788 -1.213838
    15 1.723633 0.000004 -0.000001 0.000000 0.000000 -0.811553
    16 1.005919 -0.000008 0.000003 0.000004 0.000006 -1.160572
    17 0.298210 -0.634100 0.426700 -1.430491 -0.525054 -0.559215
    18 2.633565 0.000002 -0.000006 -0.000002 0.003211 0.560578
    19 1.308564 -0.000001 -0.000006 -0.026233 -0.055130 0.588009
    20 2.033356 1.000772 -1.937609 -0.128177 0.172990 -2.038336
    21 6.028134 0.000001 -0.000002 -0.943991 0.746747 -2.721355
    22 11.692558 0.000084 0.000007 0.011027 -0.026965 -0.781101
    23 11.481697 -0.000003 -0.000004 -0.569232 -0.058201 0.317347
    24 2.914331 -0.027073 1.400148 -0.087254 -0.051811 -0.871450
    25 1.283203 0.000002 0.000000 0.000007 0.091253 -0.570128
    26 0.842285 0.000000 -0.000001 -0.106906 0.058037 -1.427404
    27 3.368059 0.007374 0.618550 0.035973 -0.077319 -1.016266
    28 1.610352 -0.000002 0.000000 -0.000005 0.127994 -1.218714
    29 1.016602 0.000002 0.000000 0.011974 -0.012985 -1.177968
    30 3.555524 0.023920 -0.200566 0.012608 -0.103497 -0.905354
    31 1.666016 0.000002 0.000000 -0.000009 0.161971 -1.296565
    32 1.236531 -0.000008 0.000006 0.000001 -0.000011 -1.274010
    33 3.449664 0.054214 -1.085181 0.054237 0.157772 -0.341144
    34 1.711612 -0.000006 0.000010 0.000001 -0.047970 -1.221275
    35 1.002007 0.000011 0.000006 0.010322 -0.019989 -0.758772
    36 0.075532 -0.738749 -0.759723 1.293521 0.406470 -0.475805
    37 2.515625 -0.000001 -0.000002 0.000000 0.000000 0.359160
    38 1.303711 0.270752 -0.093689 -0.005387 -0.039668 0.957140
    39 -6.945607 -22.643484 -8.013934 1.571032 0.006724 3.162970
    40 -0.000002 2.197265 1.738281 0.000000 0.000000 0.000000
    41 -0.000005 3.713594 3.157173 0.000000 0.000000 0.000000
    42 -0.000006 2.774759 -0.168228 -0.174532 0.000000 0.000000
    43 -1.364069 26.951141 -5.804949 1.570796 0.000000 1.570782
  time 2
    0 0.000005 -1.663086 -9.140625 -1.570760 -1.391893 -1.570827
    1 2.033348 1.000767 1.937660 3.099206 -0.162014 1.679995
    2 6.028138 0.000009 0.000002 -1.690094 -0.237306 -0.331983
    3 11.692574 0.000164 -0.000020 0.170292 -0.813074 -1.332460
    4 11.481693 -0.000162 -0.000041 1.128630 0.265712 0.573366
    5 3.281560 0.006007 -1.379482 0.043235 -0.169864 -0.823684
    6 1.324282 -0.000013 0.000005 0.000001 -0.058548 -0.582031
    7 0.818848 -0.000006 0.000002 0.000000 0.000000 -0.916269
    8 3.707943 0.109238 -0.568167 -0.035098 -0.151149 -1.089405
    9 1.609375 0.000000 0.000000 -0.000002 0.006543 -0.732913
    10 0.988281 0.000002 0.000001 0.003569 0.008771 -0.846696
    11 3.786027 0.203209 0.247843 -0.045977 -0.107419 -1.134554
    12 1.680664 -0.000002 0.000000 0.000000 0.012356 -0.881344
    13 1.256836 0.000000 0.000000 -0.006063 0.006854 -0.916181
    14 3.590312 0.299534 1.113709 -0.013880 -0.117272 -1.213407
    15 1.723633 0.000004 -0.000001 0.000000 0.000000 -0.811553
    16 1.005919 -0.000008 0.000003 0.000004 0.000006 -1.160600
    17 0.298210 -0.634100 0.430607 -1.430527 -0.524368 -0.558835
    18 2.633565 0.000002 -0.000006 -0.000002 0.003211 0.560578
    19 1.308564 -0.000001 -0.000006 -0.026233 -0.055118 0.588009
    20 2.033356 1.000772 -1.937609 -0.128177 0.172990 -2.038336
    21 6.028134 0.000001 -0.000002 -0.971942 0.673190 -2.770469
    22 11.692558 0.000084 0.000007 0.008810 -0.027564 -0.622827
    23 11.481697 -0.000003 -0.000004 -0.581879 -0.042831 0.246364
    24 2.914331 -0.023166 1.400148 -0.087254 -0.051811 -0.871450
    25 1.283203 0.000002 0.000000 0.000007 0.091253 -0.570128
    26 0.842285 0.000000 -0.000001 -0.106906 0.058037 -1.427404
    27 3.368059 0.007374 0.622456 0.035973 -0.077319 -1.016266
    28 1.610352 -0.000002 0.000000 -0.000005 0.127994 -1.218714
    29 1.016602 0.000002 0.000000 0.011974 -0.012985 -1.177968
    30 3.555524 0.023920 -0.200566 0.012608 -0.103497 -0.905354
    31 1.666016 0.000002 0.000000 -0.000009 0.161971 -1.296565
    32 1.236531 -0.000008 0.000006 0.000001 -0.000011 -1.274010
    33 3.449664 0.054214 -1.089088 0.054517 0.157760 -0.337460
    34 1.715519 -0.000006 0.000010 0.000001 -0.046652 -1.184881
    35 1.002007 0.000011 0.000006 0.009878 -0.019486 -0.744958
    36 0.075532 -0.738749 -0.759723 1.293533 0.406470 -0.475805
    37 2.515625 -0.000001 -0.000002 0.000000 0.000000 0.359160
    38 1.303711 0.270752 -0.093689 -0.005387 -0.039668 0.957140
    39 -6.937794 -23.307567 -8.099874 1.573094 0.002782 3.155043
    40 -0.000002 2.197265 1.738281 0.000000 0.000000 0.000000
    41 -0.000005 2.916695 3.157173 0.000000 0.000000 0.000000
    42 -0.000006 2.774759 -0.187760 -0.159958 0.000000 0.000000
    43 -1.364069 26.951141 -5.804949 1.570796 0.000000 1.570782
  time 3
    0 0.000005 -1.663086 -9.140625 -1.570760 -1.391893 -1.570827
    1 2.033348 1.000767 1.937660 3.099206 -0.162014 1.679995
    2 6.028138 0.000009 0.000002 -1.697795 -0.244706 -0.313548
    3 11.692574 0.000164 -0.000020 0.112726 -0.801715 -1.252820
    4 11.481693 -0.000162 -0.000041 1.093181 0.301827 0.473174
    5 3.281560 0.002101 -1.383388 0.043449 -0.170511 -0.824075
    6 1.324282 -0.000013 0.000005 0.000001 -0.058536 -0.582031
    7 0.818848 -0.000006 0.000002 0.000000 0.000000 -0.916269
    8 3.711850 0.109238 -0.572073 -0.034703 -0.151724 -1.089849
    9 1.609375 0.000000 0.000000 -0.000002 0.006543 -0.732913
    10 0.988281 0.000002 0.000001 0.003569 0.008771 -0.846696
    11 3.786027 0.203209 0.243936 -0.045570 -0.107970 -1.134961
    12 1.680664 -0.000002 0.000000 0.000000 0.012356 -0.881344
    13 1.256836 0.000000 0.000000 -0.006063 0.006854 -0.916181
    14 3.594219 0.299534 1.109803 -0.013414 -0.117788 -1.213838
    15 1.723633 0.000004 -0.000001 0.000000 0.000000 -0.811553
    16 1.005919 -0.000008 0.000003 0.000004 0.000006 -1.160600
    17 0.298210 -0.634100 0.426700 -1.430491 -0.525054 -0.559215
    18 2.633565 0.000002 -0.000006 -0.000002 0.003211 0.560578
    19 1.308564 -0.000001 -0.000006 -0.026233 -0.055118 0.588009
    20 2.033356 1.000772 -1.937609 -0.128177 0.172990 -2.038336
    21 6.028134 0.000001 -0.000002 -0.976355 0.638323 -2.781474
    22 11.692558 0.000084 0.000007 0.005490 -0.019439 -0.554927
    23 11.481697 -0.000003 -0.000004 -0.592134 -0.034237 0.217364
    24 2.914331 -0.023166 1.400148 -0.087254 -0.051811 -0.871450
    25 1.283203 0.000002 0.000000 0.000007 0.091253 -0.570128
    26 0.842285 0.000000 -0.000001 -0.106906 0.058037 -1.427404
    27 3.368059 0.007374 0.622456 0.035973 -0.077319 -1.016266
    28 1.610352 -0.000002 0.000000 -0.000005 0.127994 -1.218714
    29 1.016602 0.000002 0.000000 0.011974 -0.012985 -1.177968
    30 3.555524 0.023920 -0.200566 0.012608 -0.103497 -0.905354
    31 1.666016 0.000002 0.000000 -0.000009 0.161971 -1.296565
    32 1.236531 -0.000008 0.000006 0.000001 -0.000011 -1.274010
    33 3.449664 0.054214 -1.089088 0.054796 0.157748 -0.333792
    34 1.715519 -0.000006 0.000010 0.000001 -0.045297 -1.148487
    35 1.002007 0.000011 0.000006 0.009459 -0.018984 -0.731143
    36 0.075532 -0.738749 -0.755817 1.293521 0.406470 -0.475805
    37 2.515625 -0.000001 -0.000002 0.000000 0.000000 0.359160
    38 1.303711 0.270752 -0.093689 -0.005387 -0.039668 0.957140
    39 -6.933888 -23.565387 -8.205346 1.575214 -0.001226 3.147299
    40 -0.000002 2.197265 1.738281 0.000000 0.000000 0.000000
    41 -0.000005 3.444055 3.157173 0.000000 0.000000 0.000000
    42 -0.000006 2.774759 -0.203385 -0.145409 0.000000 0.000000
    43 -1.364069 26.951141 -5.804949 1.570796 0.000000 1.570782
  time 4
    0 0.000005 -1.663086 -9.140625 -1.570760 -1.391893 -1.570827
    1 2.033348 1.000767 1.937660 3.099206 -0.162014 1.679995
    2 6.028138 0.000009 0.000002 -1.697795 -0.244926 -0.313263
    3 11.692574 0.000164 -0.000020 0.094665 -0.797362 -1.227649
    4 11.481693 -0.000162 -0.000041 1.078753 0.320151 0.433955
    5 3.281560 0.002101 -1.379482 0.043301 -0.169996 -0.823796
    6 1.324282 -0.000013 0.000005 0.000001 -0.058536 -0.582031
    7 0.818848 -0.000006 0.000002 0.000000 0.000000 -0.916269
    8 3.711850 0.109238 -0.568167 -0.034990 -0.151256 -1.089510
    9 1.609375 0.000000 0.000000 -0.000002 0.006543 -0.732913
    10 0.988281 0.000002 0.000001 0.003569 0.008771 -0.846696
    11 3.786027 0.203209 0.243936 -0.045882 -0.107527 -1.134656
    12 1.680664 -0.000002 0.000000 0.000000 0.012356 -0.881344
    13 1.256836 0.000000 0.000000 -0.006063 0.006854 -0.916181
    14 3.590312 0.299534 1.109803 -0.013767 -0.117368 -1.213540
    15 1.723633 0.000004 -0.000001 0.000000 0.000000 -0.811553
    16 1.005919 -0.000008 0.000003 0.000004 0.000006 -1.160572
    17 0.298210 -0.634100 0.430607 -1.430503 -0.524515 -0.558944
    18 2.633565 0.000002 -0.000006 -0.000002 0.003211 0.560578
    19 1.308564 -0.000001 -0.000006 -0.026233 -0.055118 0.588009
    20 2.033356 1.000772 -1.937609 -0.128177 0.172990 -2.038336
    21 6.028134 0.000001 -0.000002 -0.974019 0.638838 -2.779184
    22 11.692558 0.000084 0.000007 0.006089 -0.021680 -0.557386
    23 11.481697 -0.000003 -0.000004 -0.595846 -0.028905 0.222876
    24 2.914331 -0.023166 1.396241 -0.087254 -0.051811 -0.871450
    25 1.283203 0.000002 0.000000 0.000007 0.091253 -0.570128
    26 0.842285 0.000000 -0.000001 -0.106906 0.058037 -1.427404
    27 3.368059 0.007374 0.622456 0.035973 -0.077319 -1.016266
    28 1.610352 -0.000002 0.000000 -0.000005 0.127994 -1.218714
    29 1.016602 0.000002 0.000000 0.011974 -0.012985 -1.177968
    30 3.555524 0.023920 -0.204473 0.012608 -0.103497 -0.905354
    31 1.666016 0.000002 0.000000 -0.000009 0.161971 -1.296565
    32 1.236531 -0.000008 0.000006 0.000001 -0.000011 -1.274010
    33 3.449664 0.054214 -1.089088 0.055088 0.157736 -0.330090
    34 1.715519 -0.000006 0.000010 0.000001 -0.043883 -1.112148
    35 1.002007 0.000011 0.000006 0.009027 -0.018463 -0.717351
    36 0.075532 -0.734842 -0.763630 1.293533 0.406470 -0.475805
    37 2.515625 -0.000001 -0.000002 0.000000 0.000000 0.359160
    38 1.303711 0.270752 -0.093689 -0.005387 -0.039668 0.957140
    39 -6.933888 -23.565387 -8.248316 1.574213 -0.002981 3.142300
    40 -0.000002 2.197265 1.738281 0.000000 0.000000 0.000000
    41 -0.000005 3.713594 3.157173 0.000000 0.000000 0.000000
    42 -0.000006 2.774759 -0.219011 -0.130896 0.000000 0.000000
    43 -1.364069 26.951141 -5.804949 1.570796 0.000000 1.570782
  time 5
    0 0.000005 -1.663086 -9.140625 -1.570760 -1.391893 -1.570827
    1 2.033348 1.000767 1.937660 3.099206 -0.162014 1.679995
    2 6.028138 0.000009 0.000002 -1.695769 -0.242764 -0.318264
    3 11.692574 0.000164 -0.000020 0.104986 -0.799937 -1.242021
    4 11.481693 -0.000162 -0.000041 1.069290 0.335206 0.426277
    5 3.281560 0.002101 -1.379482 0.043449 -0.170511 -0.824075
    6 1.324282 -0.000013 0.000005 0.000001 -0.058536 -0.582031
    7 0.818848 -0.000006 0.000002 0.000000 0.000000 -0.916269
    8 3.711850 0.109238 -0.568167 -0.034715 -0.151724 -1.089849
    9 1.609375 0.000000 0.000000 -0.000002 0.006543 -0.732913
    10 0.988281 0.000002 0.000001 0.003569 0.008771 -0.846696
    11 3.786027 0.203209 0.247843 -0.045570 -0.107970 -1.134961
    12 1.680664 -0.000002 0.000000 0.000000 0.012356 -0.881344
    13 1.256836 0.000000 0.000000 -0.006063 0.006854 -0.916181
    14 3.594219 0.299534 1.113709 -0.013414 -0.117788 -1.213838
    15 1.723633 0.000004 -0.000001 0.000000 0.000000 -0.811553
    16 1.005919 -0.000008 0.000003 0.000004 0.000006 -1.160600
    17 0.298210 -0.634100 0.426700 -1.430491 -0.525054 -0.559215
    18 2.633565 0.000002 -0.000006 -0.000002 0.003211 0.560578
    19 1.308564 -0.000001 -0.000006 -0.026233 -0.055118 0.588009
    20 2.033356 1.000772 -1.937609 -0.128177 0.172990 -2.038336
    21 6.028134 0.000001 -0.000002 -0.969952 0.653614 -2.772168
    22 11.692558 0.000084 0.000007 0.007851 -0.026174 -0.588359
    23 11.481697 -0.000003 -0.000004 -0.595343 -0.033434 0.244207
    24 2.914331 -0.023166 1.400148 -0.087254 -0.051811 -0.871450
    25 1.283203 0.000002 0.000000 0.000007 0.091253 -0.570128
    26 0.842285 0.000000 -0.000001 -0.106906 0.058037 -1.427404
    27 3.368059 0.007374 0.618550 0.035973 -0.077319 -1.016266
    28 1.610352 -0.000002 0.000000 -0.000005 0.127994 -1.218714
    29 1.016602 0.000002 0.000000 0.011974 -0.012985 -1.177968
    30 3.555524 0.023920 -0.200566 0.012608 -0.103497 -0.905354
    31 1.666016 0.000002 0.000000 -0.000009 0.161971 -1.296565
    32 1.236531 -0.000008 0.000006 0.000001 -0.000011 -1.274010
    33 3.449664 0.054214 -1.089088 0.055380 0.157724 -0.326422
    34 1.711612 -0.000006 0.000010 0.000001 -0.042433 -1.075781
    35 1.002007 0.000011 0.000006 0.008632 -0.017942 -0.703537
    36 0.075532 -0.738749 -0.759723 1.293533 0.406470 -0.475805
    37 2.515625 -0.000001 -0.000002 0.000000 0.000000 0.359160
    38 1.303711 0.270752 -0.093689 -0.005387 -0.039668 0.957140
    39 -6.933888 -23.456009 -8.271754 1.566142 -0.002286 3.140958
    40 -0.000002 2.197265 1.738281 0.000000 0.000000 0.000000
    41 -0.000005 3.713594 3.157173 0.000000 0.000000 0.000000
    42 -0.000006 2.774759 -0.234636 -0.116322 0.000000 0.000000
    43 -1.364069 26.951141 -5.804949 1.570796 0.000000 1.570782
  time 6
    0 0.000005 -1.663086 -9.140625 -1.570760 -1.391893 -1.570827
    1 2.033348 1.000767 1.937660 3.099206 -0.162014 1.679995
    2 6.028138 0.000009 0.000002 -1.694784 -0.236243 -0.325767
    3 11.692574 0.000164 -0.000020 0.116997 -0.802670 -1.258696
    4 11.481693 -0.000162 -0.000041 1.061610 0.348816 0.421818
    5 3.281560 0.002101 -1.379482 0.043449 -0.170511 -0.824075
    6 1.324282 -0.000013 0.000005 0.000001 -0.058536 -0.582031
    7 0.818848 -0.000006 0.000002 0.000000 0.000000 -0.916269
    8 3.711850 0.109238 -0.568167 -0.034715 -0.151712 -1.089806
    9 1.609375 0.000000 0.000000 -0.000002 0.006543 -0.732913
    10 0.988281 0.000002 0.000001 0.003569 0.008771 -0.846696
    11 3.786027 0.203209 0.247843 -0.045570 -0.107970 -1.134961
    12 1.680664 -0.000002 0.000000 0.000000 0.012356 -0.881344
    13 1.256836 0.000000 0.000000 -0.006063 0.006854 -0.916181
    14 3.594219 0.299534 1.113709 -0.013414 -0.117788 -1.213838
    15 1.723633 0.000004 -0.000001 0.000000 0.000000 -0.811553
    16 1.005919 -0.000008 0.000003 0.000004 0.000006 -1.160600
    17 0.298210 -0.634100 0.426700 -1.430491 -0.525054 -0.559215
    18 2.633565 0.000002 -0.000006 -0.000002 0.003211 0.560578
    19 1.308564 -0.000001 -0.000006 -0.026233 -0.055118 0.588009
    20 2.033356 1.000772 -1.937609 -0.128177 0.172990 -2.038336
    21 6.028134 0.000001 -0.000002 -0.962942 0.674708 -2.760277
    22 11.692558 0.000084 0.000007 0.010092 -0.031292 -0.632835
    23 11.481697 -0.000003 -0.000004 -0.594147 -0.043527 0.273447
    24 2.914331 -0.023166 1.396241 -0.087254 -0.052146 -0.871493
    25 1.283203 0.000002 0.000000 0.000007 0.091253 -0.570128
    26 0.842285 0.000000 -0.000001 -0.106906 0.058037 -1.427404
    27 3.368059 0.007374 0.618550 0.036021 -0.077667 -1.016308
    28 1.610352 -0.000002 0.000000 -0.000005 0.127994 -1.218714
    29 1.016602 0.000002 0.000000 0.011974 -0.012985 -1.177968
    30 3.555524 0.023920 -0.200566 0.012620 -0.103832 -0.905382
    31 1.666016 0.000002 0.000000 -0.000009 0.161971 -1.296565
    32 1.236531 -0.000008 0.000006 0.000001 -0.000011 -1.274010
    33 3.449664 0.054214 -1.089088 0.055469 0.157412 -0.322788
    34 1.711612 -0.000006 0.000010 0.000001 -0.040935 -1.039387
    35 1.002007 0.000011 0.000006 0.008212 -0.017403 -0.689723
    36 0.075532 -0.734842 -0.763630 1.293378 0.406159 -0.475900
    37 2.515625 -0.000001 -0.000002 0.000000 0.000000 0.359160
    38 1.303711 0.270752 -0.093689 -0.005387 -0.039668 0.957140
    39 -6.929982 -23.299754 -8.326443 1.552062 -0.000795 3.141507
    40 -0.000002 2.197265 1.738281 0.000000 0.000000 0.000000
    41 -0.000005 3.713594 3.157173 0.000000 0.000000 0.000000
    42 -0.000006 2.774759 -0.250262 -0.101785 0.000000 0.000000
    43 -1.364069 26.951141 -5.804949 1.570796 0.000000 1.570782
  time 7
    0 0.000005 -1.663086 -9.140625 -1.570760 -1.391893 -1.570827
    1 2.033348 1.000767 1.937660 3.099206 -0.162014 1.679995
    2 6.028138 0.000009 0.000002 -1.693337 -0.230711 -0.333055
    3 11.692574 0.000164 -0.000020 0.126339 -0.804741 -1.271717
    4 11.481693 -0.000162 -0.000041 1.056568 0.358662 0.421571
    5 3.281560 0.002101 -1.379482 0.043268 -0.170032 -0.823740
    6 1.324282 -0.000013 0.000005 0.000001 -0.058536 -0.582031
    7 0.818848 -0.000006 0.000002 0.000000 0.000000 -0.916269
    8 3.711850 0.109238 -0.568167 -0.035002 -0.151304 -1.089468
    9 1.609375 0.000000 0.000000 -0.000002 0.006543 -0.732913
    10 0.988281 0.000002 0.000001 0.003569 0.008771 -0.846696
    11 3.786027 0.203209 0.247843 -0.045894 -0.107575 -1.134630
    12 1.680664 -0.000002 0.000000 0.000000 0.012356 -0.881344
    13 1.256836 0.000000 0.000000 -0.006063 0.006854 -0.916181
    14 3.590312 0.299534 1.113709 -0.013781 -0.117416 -1.213474
    15 1.723633 0.000004 -0.000001 0.000000 0.000000 -0.811553
    16 1.005919 -0.000008 0.000003 0.000004 0.000006 -1.160572
    17 0.298210 -0.634100 0.430607 -1.430551 -0.524547 -0.558871
    18 2.633565 0.000002 -0.000006 -0.000002 0.003211 0.560578
    19 1.308564 -0.000001 -0.000006 -0.026233 -0.055118 0.588009
    20 2.033356 1.000772 -1.937609 -0.128177 0.172990 -2.038336
    21 6.028134 0.000001 -0.000002 -0.957058 0.684170 -2.748903
    22 11.692558 0.000084 0.000007 0.008007 -0.023670 -0.658934
    23 11.481697 -0.000003 -0.000004 -0.594085 -0.063016 0.294499
    24 2.914331 -0.023166 1.400148 -0.087254 -0.051811 -0.871450
    25 1.283203 0.000002 0.000000 0.000007 0.091253 -0.570128
    26 0.842285 0.000000 -0.000001 -0.106906 0.058037 -1.427404
    27 3.368059 0.007374 0.622456 0.035973 -0.077319 -1.016266
    28 1.610352 -0.000002 0.000000 -0.000005 0.127994 -1.218714
    29 1.016602 0.000002 0.000000 0.011974 -0.012985 -1.177968
    30 3.555524 0.023920 -0.200566 0.012608 -0.103497 -0.905354
    31 1.666016 0.000002 0.000000 -0.000009 0.161971 -1.296565
    32 1.236531 -0.000008 0.000006 0.000001 -0.000011 -1.274010
    33 3.449664 0.054214 -1.089088 0.055939 0.157688 -0.319036
    34 1.711612 -0.000006 0.000010 0.000001 -0.039401 -1.003020
    35 1.002007 0.000011 0.000006 0.007829 -0.016863 -0.675909
    36 0.075532 -0.738749 -0.759723 1.293521 0.406470 -0.475805
    37 2.515625 -0.000001 -0.000002 0.000000 0.000000 0.359160
    38 1.303711 0.270752 -0.093689 -0.005387 -0.039668 0.957140
    39 -6.918263 -23.190376 -8.369413 1.536686 0.001027 3.142970
    40 -0.000002 2.197265 1.738281 0.000000 0.000000 0.000000
    41 -0.000005 3.713594 3.157173 0.000000 0.000000 0.000000
    42 -0.000006 2.774759 -0.265887 -0.087260 0.000000 0.000000
    43 -1.364069 26.951141 -5.804949 1.570796 0.000000 1.570782
  time 8
    0 0.000005 -1.663086 -9.140625 -1.570760 -1.391893 -1.570827
    1 2.033348 1.000767 1.937660 3.099206 -0.162014 1.679995
    2 6.028138 0.000009 0.000002 -1.692063 -0.225619 -0.339772
    3 11.692574 0.000164 -0.000020 0.133576 -0.806227 -1.281722
    4 11.481693 -0.000162 -0.000041 1.054396 0.366228 0.425864
    5 3.281560 0.002101 -1.379482 0.043449 -0.170511 -0.824075
    6 1.324282 -0.000013 0.000005 0.000001 -0.058536 -0.582031
    7 0.818848 -0.000006 0.000002 0.000000 0.000000 -0.916269
    8 3.711850 0.109238 -0.568167 -0.034715 -0.151724 -1.089849
    9 1.609375 0.000000 0.000000 -0.000002 0.006543 -0.732913
    10 0.988281 0.000002 0.000001 0.003569 0.008771 -0.846696
    11 3.786027 0.203209 0.247843 -0.045570 -0.107970 -1.134961
    12 1.680664 -0.000002 0.000000 0.000000 0.012356 -0.881344
    13 1.256836 0.000000 0.000000 -0.006063 0.006854 -0.916181
    14 3.594219 0.299534 1.113709 -0.013414 -0.117788 -1.213838
    15 1.723633 0.000004 -0.000001 0.000000 0.000000 -0.811553
    16 1.005919 -0.000008 0.000003 0.000004 0.000006 -1.160572
    17 0.298210 -0.634100 0.426700 -1.430491 -0.525054 -0.559215
    18 2.633565 0.000002 -0.000006 -0.000002 0.003211 0.560578
    19 1.308564 -0.000001 -0.000006 -0.026233 -0.055118 0.588009
    20 2.033356 1.000772 -1.937609 -0.128177 0.172990 -2.038336
    21 6.028134 0.000001 -0.000002 -0.955414 0.693931 -2.745727
    22 11.692558 0.000084 0.000007 0.009277 -0.026582 -0.678432
    23 11.481697 -0.000003 -0.000004 -0.593267 -0.074409 0.310477
    24 2.914331 -0.027073 1.400148 -0.087254 -0.051307 -0.871429
    25 1.283203 0.000002 0.000000 0.000007 0.091253 -0.570128
    26 0.842285 0.000000 -0.000001 -0.106906 0.058037 -1.427404
    27 3.368059 0.007374 0.622456 0.035901 -0.076840 -1.016252
    28 1.610352 -0.000002 0.000000 -0.000005 0.127994 -1.218714
    29 1.016602 0.000002 0.000000 0.011974 -0.012985 -1.177968
    30 3.555524 0.023920 -0.200566 0.012584 -0.103006 -0.905325
    31 1.666016 0.000002 0.000000 -0.000009 0.161971 -1.296565
    32 1.236531 -0.000008 0.000006 0.000001 -0.000011 -1.274010
    33 3.449664 0.054214 -1.089088 0.056472 0.158083 -0.315300
    34 1.711612 -0.000006 0.000010 0.000001 -0.037831 -0.966681
    35 1.002007 0.000011 0.000006 0.007433 -0.016324 -0.662117
    36 0.075532 -0.738749 -0.759723 1.293737 0.406929 -0.475709
    37 2.515625 -0.000001 -0.000002 0.000000 0.000000 0.359160
    38 1.303711 0.270752 -0.093689 -0.005387 -0.039668 0.957140
    39 -6.914356 -23.104436 -8.388945 1.524433 0.002749 3.144495
    40 -0.000002 2.197265 1.738281 0.000000 0.000000 0.000000
    41 -0.000005 3.713594 3.157173 0.000000 0.000000 0.000000
    42 -0.000006 2.774759 -0.285419 -0.072711 0.000000 0.000000
    43 -1.364069 26.951141 -5.804949 1.570796 0.000000 1.570782
  time 9
    0 0.000005 -1.663086 -9.140625 -1.570760 -1.391893 -1.570827
    1 2.033348 1.000767 1.937660 3.099206 -0.162014 1.679995
    2 6.028138 0.000009 0.000002 -1.692873 -0.222724 -0.341272
    3 11.692574 0.000164 -0.000020 0.136453 -0.806837 -1.285771
    4 11.481693 -0.000162 -0.000041 1.053000 0.374401 0.433336
    5 3.281560 0.002101 -1.379482 0.043449 -0.170511 -0.824075
    6 1.324282 -0.000013 0.000005 0.000001 -0.058536 -0.582031
    7 0.818848 -0.000006 0.000002 0.000000 0.000000 -0.916269
    8 3.711850 0.109238 -0.568167 -0.034715 -0.151712 -1.089806
    9 1.609375 0.000000 0.000000 -0.000002 0.006543 -0.732913
    10 0.988281 0.000002 0.000001 0.003569 0.008771 -0.846696
    11 3.786027 0.203209 0.247843 -0.045570 -0.107970 -1.134961
    12 1.680664 -0.000002 0.000000 0.000000 0.012356 -0.881344
    13 1.256836 0.000000 0.000000 -0.006063 0.006854 -0.916181
    14 3.594219 0.299534 1.113709 -0.013414 -0.117788 -1.213838
    15 1.723633 0.000004 -0.000001 0.000000 0.000000 -0.811553
    16 1.005919 -0.000008 0.000003 0.000004 0.000006 -1.160572
    17 0.298210 -0.634100 0.426700 -1.430491 -0.525054 -0.559215
    18 2.633565 0.000002 -0.000006 -0.000002 0.003211 0.560578
    19 1.308564 -0.000001 -0.000006 -0.026233 -0.055130 0.588009
    20 2.033356 1.000772 -1.937609 -0.128177 0.172990 -2.038336
    21 6.028134 0.000001 -0.000002 -0.952558 0.697998 -2.739302
    22 11.692558 0.000084 0.000007 0.006712 -0.018996 -0.691978
    23 11.481697 -0.000003 -0.000004 -0.591631 -0.084163 0.319824
    24 2.914331 -0.023166 1.400148 -0.087254 -0.051811 -0.871450
    25 1.283203 0.000002 0.000000 0.000007 0.091253 -0.570128
    26 0.842285 0.000000 -0.000001 -0.106906 0.058037 -1.427404
    27 3.368059 0.007374 0.622456 0.035973 -0.077331 -1.016266
    28 1.610352 -0.000002 0.000000 -0.000005 0.127994 -1.218714
    29 1.016602 0.000002 0.000000 0.011974 -0.012985 -1.177968
    30 3.555524 0.023920 -0.200566 0.012608 -0.103497 -0.905354
    31 1.666016 0.000002 0.000000 -0.000009 0.161971 -1.296565
    32 1.236531 -0.000008 0.000006 0.000001 -0.000011 -1.274010
    33 3.449664 0.054214 -1.089088 0.056498 0.157640 -0.311683
    34 1.711612 -0.000006 0.000010 0.000001 -0.036225 -0.930342
    35 1.002007 0.000011 0.000006 0.007062 -0.015784 -0.648302
    36 0.079438 -0.738749 -0.759723 1.293521 0.406470 -0.475805
    37 2.515625 -0.000001 -0.000002 0.000000 0.000000 0.359160
    38 1.303711 0.270752 -0.093689 -0.005387 -0.039668 0.957140
    39 -6.918263 -23.049747 -8.369413 1.519955 0.003875 3.144982
    40 -0.000002 2.197265 1.738281 0.000000 0.000000 0.000000
    41 -0.000005 3.713594 3.157173 0.000000 0.000000 0.000000
    42 -0.000006 2.774759 -0.301045 -0.058149 0.000000 0.000000
    43 -1.364069 26.951141 -5.804949 1.570796 0.000000 1.570782
  time 10
    0 0.000005 -1.663086 -9.140625 -1.570760 -1.391893 -1.570827
    1 2.033348 1.000767 1.937660 3.099206 -0.162014 1.679995
    2 6.028138 0.000009 0.000002 -1.694437 -0.224190 -0.337628
    3 11.692574 0.000164 -0.000020 0.140397 -0.807607 -1.291250
    4 11.481693 -0.000162 -0.000041 1.054008 0.383791 0.450427
    5 3.281560 0.002101 -1.379482 0.043449 -0.170511 -0.824075
    6 1.324282 -0.000013 0.000005 0.000001 -0.058548 -0.582031
    7 0.818848 -0.000006 0.000002 0.000000 0.000000 -0.916269
    8 3.711850 0.109238 -0.568167 -0.034715 -0.151724 -1.089806
    9 1.609375 0.000000 0.000000 -0.000002 0.006543 -0.732913
    10 0.988281 0.000002 0.000001 0.003569 0.008771 -0.846696
    11 3.786027 0.203209 0.247843 -0.045570 -0.107970 -1.134961
    12 1.680664 -0.000002 0.000000 0.000000 0.012356 -0.881344
    13 1.256836 0.000000 0.000000 -0.006063 0.006854 -0.916181
    14 3.594219 0.299534 1.113709 -0.013414 -0.117788 -1.213838
    15 1.723633 0.000004 -0.000001 0.000000 0.000000 -0.811553
    16 1.005919 -0.000008 0.000003 0.000004 0.000006 -1.160572
    17 0.298210 -0.634100 0.430607 -1.430491 -0.525054 -0.559215
    18 2.633565 0.000002 -0.000006 -0.000002 0.003211 0.560578
    19 1.308564 -0.000001 -0.000006 -0.026233 -0.055118 0.588009
    20 2.033356 1.000772 -1.937609 -0.128177 0.172990 -2.038336
    21 6.028134 0.000001 -0.000002 -0.957491 0.704315 -2.747426
    22 11.692558 0.000084 0.000007 0.011290 -0.031088 -0.696982
    23 11.481697 -0.000003 -0.000004 -0.588233 -0.074071 0.319824
    24 2.910425 -0.023166 1.400148 -0.087254 -0.051811 -0.871450
    25 1.283203 0.000002 0.000000 0.000007 0.091253 -0.570128
    26 0.842285 0.000000 -0.000001 -0.106906 0.058037 -1.427404
    27 3.364152 0.007374 0.622456 0.035973 -0.077319 -1.016266
    28 1.610352 -0.000002 0.000000 -0.000005 0.127994 -1.218714
    29 1.016602 0.000002 0.000000 0.011974 -0.012985 -1.177968
    30 3.551618 0.023920 -0.200566 0.012608 -0.103497 -0.905354
    31 1.666016 0.000002 0.000000 -0.000009 0.161971 -1.296565
    32 1.236531 -0.000008 0.000006 0.000001 0.000001 -1.274010
    33 3.449664 0.054214 -1.089088 0.056790 0.157616 -0.307998
    34 1.711612 -0.000006 0.000010 0.000001 -0.034583 -0.893948
    35 1.002007 0.000011 0.000006 0.006678 -0.015226 -0.634488
    36 0.075532 -0.734842 -0.759723 1.293521 0.406470 -0.475805
    37 2.515625 -0.000001 -0.000002 0.000000 0.000000 0.359160
    38 1.303711 0.270752 -0.093689 -0.005387 -0.039668 0.957140
    39 -6.922169 -23.022402 -8.295192 1.526200 0.003842 3.144434
    40 -0.000002 2.197265 1.738281 0.000000 0.000000 0.000000
    41 -0.000005 3.713594 3.157173 0.000000 0.000000 0.000000
    42 -0.000006 2.774759 -0.316670 -0.043624 0.000000 0.000000
    43 -1.364069 26.951141 -5.804949 1.570796 0.000000 1.570782
  time 11
    0 0.000005 -1.663086 -9.140625 -1.570760 -1.391893 -1.570827
    1 2.033348 1.000767 1.937660 3.099206 -0.162014 1.679995
    2 6.028138 0.000009 0.000002 -1.694726 -0.229392 -0.332412
    3 11.692574 0.000164 -0.000020 0.147396 -0.808987 -1.300858
    4 11.481693 -0.000162 -0.000041 1.057034 0.392573 0.474949
    5 3.281560 0.002101 -1.379482 0.043449 -0.170511 -0.824075
    6 1.324282 -0.000013 0.000005 0.000001 -0.058536 -0.582031
    7 0.818848 -0.000006 0.000002 0.000000 0.000000 -0.916269
    8 3.711850 0.109238 -0.568167 -0.034703 -0.151724 -1.089849
    9 1.609375 0.000000 0.000000 -0.000002 0.006543 -0.732913
    10 0.988281 0.000002 0.000001 0.003569 0.008771 -0.846696
    11 3.786027 0.203209 0.247843 -0.045570 -0.107970 -1.134961
    12 1.680664 -0.000002 0.000000 0.000000 0.012356 -0.881344
    13 1.256836 0.000000 0.000000 -0.006063 0.006854 -0.916181
    14 3.594219 0.299534 1.113709 -0.013414 -0.117788 -1.213838
    15 1.723633 0.000004 -0.000001 0.000000 0.000000 -0.811553
    16 1.005919 -0.000008 0.000003 0.000004 0.000006 -1.160572
    17 0.298210 -0.634100 0.426700 -1.430491 -0.525054 -0.559215
    18 2.633565 0.000002 -0.000006 -0.000002 0.003211 0.560578
    19 1.308564 -0.000001 -0.000006 -0.026233 -0.055118 0.588009
    20 2.033356 1.000772 -1.937609 -0.128177 0.172990 -2.038336
    21 6.028134 0.000001 -0.000002 -0.955154 0.700492 -2.740927
    22 11.692558 0.000084 0.000007 0.005322 -0.014993 -0.698189
    23 11.481697 -0.000003 -0.000004 -0.586786 -0.072805 0.314352
    24 2.914331 -0.023166 1.404054 -0.087254 -0.051811 -0.871450
    25 1.283203 0.000002 0.000000 0.000007 0.091253 -0.570128
    26 0.842285 0.000000 -0.000001 -0.106906 0.058037 -1.427404
    27 3.368059 0.007374 0.622456 0.035973 -0.077331 -1.016266
    28 1.610352 -0.000002 0.000000 -0.000005 0.127994 -1.218714
    29 1.016602 0.000002 0.000000 0.011974 -0.012985 -1.177968
    30 3.555524 0.023920 -0.204473 0.012608 -0.103497 -0.905354
    31 1.666016 0.000002 0.000000 -0.000009 0.161971 -1.296565
    32 1.236531 -0.000008 0.000006 0.000001 -0.000011 -1.274010
    33 3.449664 0.054214 -1.089088 0.057069 0.157592 -0.304330
    34 1.711612 -0.000006 0.000010 0.000001 -0.032917 -0.857609
    35 1.002007 0.000011 0.000006 0.006319 -0.014668 -0.620718
    36 0.075532 -0.738749 -0.759723 1.293521 0.406470 -0.475805
    37 2.515625 -0.000001 -0.000002 0.000000 0.000000 0.359160
    38 1.303711 0.270752 -0.093689 -0.005387 -0.039668 0.957140
    39 -6.933888 -23.026308 -8.189720 1.539985 0.002816 3.143458
    40 -0.000002 2.197265 1.738281 0.000000 0.000000 0.000000
    41 -0.000005 3.713594 3.157173 0.000000 0.000000 0.000000
    42 -0.000006 2.774759 -0.332296 -0.029087 0.000000 0.000000
    43 -1.364069 26.951141 -5.804949 1.570796 0.000000 1.570782
  time 12
    0 0.000005 -1.663086 -9.140625 -1.570760 -1.391893 -1.570827
    1 2.033348 1.000767 1.937660 3.099206 -0.162014 1.679995
    2 6.028138 0.000009 0.000002 -1.695479 -0.234668 -0.326481
    3 11.692574 0.000164 -0.000020 0.153684 -0.810155 -1.309592
    4 11.481693 -0.000162 -0.000041 1.059593 0.402268 0.497943
    5 3.285467 0.002101 -1.379482 0.043564 -0.170787 -0.824270
    6 1.324282 -0.000013 0.000005 0.000001 -0.058536 -0.582031
    7 0.818848 -0.000006 0.000002 0.000000 0.000000 -0.916269
    8 3.711850 0.105331 -0.568167 -0.034535 -0.151952 -1.090060
    9 1.609375 0.000000 0.000000 -0.000002 0.006543 -0.732913
    10 0.988281 0.000002 0.000001 0.003569 0.008771 -0.846696
    11 3.786027 0.203209 0.247843 -0.045378 -0.108198 -1.135164
    12 1.680664 -0.000002 0.000000 0.000000 0.012356 -0.881344
    13 1.256836 0.000000 0.000000 -0.006063 0.006854 -0.916181
    14 3.594219 0.299534 1.113709 -0.013217 -0.117991 -1.214037
    15 1.723633 0.000004 -0.000001 0.000000 0.000000 -0.811553
    16 1.005919 -0.000008 0.000003 0.000004 0.000006 -1.160572
    17 0.298210 -0.634100 0.426700 -1.430443 -0.525333 -0.559415
    18 2.633565 0.000002 -0.000006 -0.000002 0.003199 0.560578
    19 1.308564 -0.000001 -0.000006 -0.026233 -0.055118 0.588009
    20 2.033356 1.000772 -1.937609 -0.128177 0.172990 -2.038336
    21 6.028134 0.000001 -0.000002 -0.962769 0.702878 -2.754442
    22 11.692558 0.000084 0.000007 0.011003 -0.030752 -0.692064
    23 11.481697 -0.000003 -0.000004 -0.583514 -0.051319 0.303047
    24 2.910425 -0.023166 1.400148 -0.087085 -0.051907 -0.871174
    25 1.283203 0.000002 0.000000 0.000007 0.091253 -0.570128
    26 0.842285 0.000000 -0.000001 -0.106906 0.058037 -1.427404
    27 3.364152 0.007374 0.618550 0.036152 -0.077415 -1.016012
    28 1.610352 -0.000002 0.000000 -0.000005 0.127994 -1.218714
    29 1.016602 0.000002 0.000000 0.011974 -0.012985 -1.177968
    30 3.551618 0.027827 -0.200566 0.012776 -0.103605 -0.905083
    31 1.666016 0.000002 0.000000 -0.000009 0.161971 -1.296565
    32 1.236531 -0.000008 0.000006 0.000001 -0.000011 -1.274010
    33 3.449664 0.054214 -1.085181 0.057425 0.157364 -0.300341
    34 1.711612 -0.000006 0.000010 0.000001 -0.031227 -0.821270
    35 1.005914 0.000011 0.000006 0.005959 -0.014110 -0.606904
    36 0.075532 -0.734842 -0.759723 1.293653 0.406307 -0.475481
    37 2.515625 -0.000001 -0.000002 0.000000 0.000000 0.359160
    38 1.303711 0.270752 -0.093689 -0.005387 -0.039668 0.957140
    39 -6.945607 -23.053653 -8.080342 1.556480 0.001358 3.142422
    40 -0.000002 2.197265 1.738281 0.000000 0.000000 0.000000
    41 -0.000005 3.713594 3.157173 0.000000 0.000000 0.000000
    42 -0.000006 2.774759 -0.347921 -0.014513 0.000000 0.000000
    43 -1.364069 26.951141 -5.804949 1.570796 0.000000 1.570782
  time 13
    0 0.000005 -1.663086 -9.140625 -1.570760 -1.391893 -1.570827
    1 2.033348 1.000767 1.937660 3.099206 -0.162014 1.679995
    2 6.028138 0.000009 0.000002 -1.696985 -0.236573 -0.322551
    3 11.692574 0.000164 -0.000020 0.156976 -0.810765 -1.314118
    4 11.481693 -0.000162 -0.000041 1.058352 0.413102 0.509667
    5 3.281560 0.002101 -1.379482 0.043449 -0.170511 -0.824075
    6 1.324282 -0.000013 0.000005 0.000001 -0.058536 -0.582031
    7 0.818848 -0.000006 0.000002 0.000000 0.000000 -0.916269
    8 3.711850 0.109238 -0.568167 -0.034715 -0.151724 -1.089849
    9 1.609375 0.000000 0.000000 -0.000002 0.006543 -0.732913
    10 0.988281 0.000002 0.000001 0.003569 0.008771 -0.846696
    11 3.786027 0.203209 0.247843 -0.045570 -0.107970 -1.134961
    12 1.680664 -0.000002 0.000000 0.000000 0.012356 -0.881344
    13 1.256836 0.000000 0.000000 -0.006063 0.006854 -0.916181
    14 3.594219 0.299534 1.109803 -0.013414 -0.117788 -1.213838
    15 1.723633 0.000004 -0.000001 0.000000 0.000000 -0.811553
    16 1.005919 -0.000008 0.000003 0.000004 0.000006 -1.160572
    17 0.298210 -0.634100 0.426700 -1.430491 -0.525054 -0.559215
    18 2.633565 0.000002 -0.000006 -0.000002 0.003211 0.560578
    19 1.308564 -0.000001 -0.000006 -0.026233 -0.055118 0.588009
    20 2.033356 1.000772 -1.937609 -0.128177 0.172990 -2.038336
    21 6.028134 0.000001 -0.000002 -0.965971 0.697618 -2.759021
    22 11.692558 0.000084 0.000007 0.010380 -0.029398 -0.680675
    23 11.481697 -0.000003 -0.000004 -0.582508 -0.040210 0.290544
    24 2.910425 -0.023166 1.400148 -0.087085 -0.051919 -0.871174
    25 1.283203 0.000002 0.000000 0.000007 0.091253 -0.570128
    26 0.842285 0.000000 -0.000001 -0.106906 0.058037 -1.427404
    27 3.364152 0.007374 0.618550 0.036152 -0.077415 -1.016012
    28 1.610352 -0.000002 0.000000 -0.000005 0.127994 -1.218714
    29 1.016602 0.000002 0.000000 0.011974 -0.012985 -1.177968
    30 3.551618 0.027827 -0.200566 0.012776 -0.103605 -0.905083
    31 1.666016 0.000002 0.000000 -0.000009 0.161971 -1.296565
    32 1.236531 -0.000008 0.000006 0.000001 -0.000011 -1.274010
    33 3.449664 0.054214 -1.085181 0.057692 0.157328 -0.296673
    34 1.711612 -0.000006 0.000010 0.000001 -0.029514 -0.784931
    35 1.002007 0.000011 0.000006 0.005612 -0.013533 -0.593068
    36 0.079438 -0.734842 -0.759723 1.293641 0.406307 -0.475481
    37 2.515625 -0.000001 -0.000002 0.000000 0.000000 0.359160
    38 1.303711 0.270752 -0.093689 -0.005387 -0.039668 0.957140
    39 -6.953420 -23.100529 -8.002214 1.570796 0.000000 3.141568
    40 -0.000002 2.197265 1.738281 0.000000 0.000000 0.000000
    41 -0.000005 3.713594 3.157173 0.000000 0.000000 0.000000
    42 -0.000006 2.774759 -0.359640 0.000000 0.000000 0.000000
    43 -1.364069 26.951141 -5.804949 1.570796 0.000000 1.570782
end
