// Created by Crowbar++ 0.74
version 1
nodes
  0 "ValveBiped.Bip01_Spine4" -1
  1 "ValveBiped.Bip01_L_Clavicle" 0
  2 "ValveBiped.Bip01_L_UpperArm" 1
  3 "ValveBiped.Bip01_L_Forearm" 2
  4 "ValveBiped.Bip01_L_Hand" 3
  5 "ValveBiped.Bip01_L_Finger4" 4
  6 "ValveBiped.Bip01_L_Finger41" 5
  7 "ValveBiped.Bip01_L_Finger42" 6
  8 "ValveBiped.Bip01_L_Finger3" 4
  9 "ValveBiped.Bip01_L_Finger31" 8
  10 "ValveBiped.Bip01_L_Finger32" 9
  11 "ValveBiped.Bip01_L_Finger2" 4
  12 "ValveBiped.Bip01_L_Finger21" 11
  13 "ValveBiped.Bip01_L_Finger22" 12
  14 "ValveBiped.Bip01_L_Finger1" 4
  15 "ValveBiped.Bip01_L_Finger11" 14
  16 "ValveBiped.Bip01_L_Finger12" 15
  17 "ValveBiped.Bip01_L_Finger0" 4
  18 "ValveBiped.Bip01_L_Finger01" 17
  19 "ValveBiped.Bip01_L_Finger02" 18
  20 "ValveBiped.Bip01_R_Clavicle" 0
  21 "ValveBiped.Bip01_R_UpperArm" 20
  22 "ValveBiped.Bip01_R_Forearm" 21
  23 "ValveBiped.Bip01_R_Hand" 22
  24 "ValveBiped.Bip01_R_Finger4" 23
  25 "ValveBiped.Bip01_R_Finger41" 24
  26 "ValveBiped.Bip01_R_Finger42" 25
  27 "ValveBiped.Bip01_R_Finger3" 23
  28 "ValveBiped.Bip01_R_Finger31" 27
  29 "ValveBiped.Bip01_R_Finger32" 28
  30 "ValveBiped.Bip01_R_Finger2" 23
  31 "ValveBiped.Bip01_R_Finger21" 30
  32 "ValveBiped.Bip01_R_Finger22" 31
  33 "ValveBiped.Bip01_R_Finger1" 23
  34 "ValveBiped.Bip01_R_Finger11" 33
  35 "ValveBiped.Bip01_R_Finger12" 34
  36 "ValveBiped.Bip01_R_Finger0" 23
  37 "ValveBiped.Bip01_R_Finger01" 36
  38 "ValveBiped.Bip01_R_Finger02" 37
  39 "v_weapon.TMP_Parent" -1
  40 "v_weapon.TMP_Clip" 39
  41 "v_weapon.TMP_ShellEject" 39
  42 "v_weapon.TMP_Trigger" 39
  43 "v_weapon.TMP_Clip2" -1
end
skeleton
  time 0
    0 0.000000 -0.000006 0.000000 -1.570781 -1.391896 -1.570809
    1 -7.515625 8.695313 3.603516 1.596636 -1.286515 2.942963
    2 6.028138 0.000009 0.000002 -0.137109 -0.876169 -2.598812
    3 11.692574 0.000164 -0.000020 -0.000002 0.000001 -0.533044
    4 11.481693 -0.000162 -0.000041 1.821015 -0.489452 0.113025
    5 3.859703 -0.142435 -1.191976 -0.564810 -0.053545 -1.794235
    6 1.312563 -0.000013 0.000005 -0.003759 0.000020 -0.000658
    7 0.729367 -0.000004 -0.000001 0.026991 0.121269 -1.348846
    8 3.942326 0.046736 -0.431444 -0.252522 -0.029733 -1.503843
    9 1.539095 0.000002 -0.000005 -0.095119 0.012610 -0.847833
    10 1.196324 -0.000008 0.000001 -0.095910 0.028627 -1.106498
    11 3.883686 -0.046799 0.431442 -0.048950 -0.007182 -1.334788
    12 1.719578 -0.000015 0.000010 -0.033490 -0.073350 -1.455902
    13 1.209181 -0.000010 0.000004 -0.036852 -0.048077 -0.668933
    14 3.859852 -0.137980 1.332466 0.216126 -0.026857 -1.466872
    15 1.719431 -0.000010 -0.000004 0.084232 -0.193294 -1.428337
    16 1.099672 -0.000008 0.000003 0.049302 -0.091022 -0.702855
    17 0.806038 -0.348935 1.321259 -1.209033 -0.156406 -0.930212
    18 1.789789 0.000002 -0.000006 -0.008908 0.098249 0.400720
    19 1.206999 -0.000001 -0.000006 -0.009407 0.006195 1.228932
    20 0.096130 -0.539063 -8.210938 -1.668474 1.286518 2.942953
    21 6.028134 0.000001 -0.000002 1.167210 0.767407 -1.614036
    22 11.692558 0.000084 0.000007 0.000001 0.000000 -0.972290
    23 11.481697 -0.000003 -0.000004 -1.821037 0.528821 0.015879
    24 3.859673 -0.132545 1.193110 0.456974 0.016490 -1.574847
    25 1.312563 0.000002 0.000000 -0.027178 0.001149 0.001417
    26 0.729364 0.000004 -0.000002 0.000420 0.002741 -1.429423
    27 3.942295 0.050344 0.431044 0.131188 -0.004003 -1.272871
    28 1.539104 0.000011 0.000001 -0.024941 0.014825 -0.944164
    29 1.196321 0.000008 -0.000002 0.000656 -0.007935 -1.149526
    30 3.883659 -0.050301 -0.431042 0.018705 -0.006531 -1.054723
    31 1.719580 -0.000002 0.000006 0.004560 0.014027 -1.323461
    32 1.209187 -0.000008 0.000006 0.001490 -0.003385 -0.843665
    33 3.859833 -0.148917 -1.331282 -0.284819 0.276359 -0.270068
    34 1.719425 -0.000006 0.000010 -0.092221 0.124884 -1.265075
    35 1.099667 0.000011 0.000006 -0.040733 0.605400 -0.812086
    36 0.806023 -0.359831 -1.318334 1.295125 0.286390 -0.680996
    37 1.789783 -0.000002 -0.000004 0.001753 -0.008293 0.100710
    38 1.206999 -0.000001 -0.000004 0.001191 0.000438 0.889443
    39 -6.953420 -23.100529 -8.002214 1.570796 0.000000 3.141568
    40 -0.000002 2.197265 1.738281 0.000000 0.000000 0.000000
    41 -0.000005 3.713594 3.157173 0.000000 0.000000 0.000000
    42 -0.000006 2.774759 -0.058850 -0.207166 0.000000 0.000000
    43 -26.937500 -1.363281 -5.804688 1.570793 -0.000003 -3.141603
  time 1
    0 0.000000 -0.000006 0.000000 -1.570781 -1.391896 -1.570809
    1 -7.515625 8.695313 3.603516 1.596636 -1.286515 2.942963
    2 6.028138 0.000009 0.000002 -0.225995 -0.833854 -2.457551
    3 11.692574 0.000164 -0.000020 -0.000002 0.000028 -0.739409
    4 11.481693 -0.000162 -0.000041 1.831720 -0.517774 0.211608
    5 3.859703 -0.142435 -1.191976 -0.564810 -0.053545 -1.794235
    6 1.312563 -0.000013 0.000005 -0.003759 0.000020 -0.000658
    7 0.729367 -0.000004 -0.000001 0.026991 0.121269 -1.348846
    8 3.942326 0.046736 -0.431444 -0.252522 -0.029733 -1.503843
    9 1.539095 0.000002 -0.000005 -0.095119 0.012610 -0.847833
    10 1.196324 -0.000008 0.000001 -0.095910 0.028627 -1.106498
    11 3.883686 -0.046799 0.431442 -0.048950 -0.007182 -1.334788
    12 1.719578 -0.000015 0.000010 -0.033490 -0.073350 -1.455902
    13 1.209181 -0.000010 0.000004 -0.036852 -0.048077 -0.668933
    14 3.859852 -0.137980 1.332466 0.216126 -0.026857 -1.466872
    15 1.719431 -0.000010 -0.000004 0.084232 -0.193294 -1.428337
    16 1.099672 -0.000008 0.000003 0.049302 -0.091022 -0.702855
    17 0.806038 -0.348935 1.321259 -1.209033 -0.156406 -0.930212
    18 1.789789 0.000002 -0.000006 -0.008908 0.098249 0.400720
    19 1.206999 -0.000001 -0.000006 -0.009407 0.006195 1.228932
    20 0.096130 -0.539063 -8.210938 -1.668474 1.286518 2.942953
    21 6.028134 0.000001 -0.000002 1.181748 0.675793 -1.581540
    22 11.692558 0.000084 0.000007 0.000001 0.000000 -1.115035
    23 11.481697 -0.000003 -0.000004 -1.824624 0.539876 0.049073
    24 3.859673 -0.132545 1.193110 0.456974 0.016490 -1.574847
    25 1.312563 0.000002 0.000000 -0.027178 0.001149 0.001417
    26 0.729364 0.000004 -0.000002 0.000420 0.002741 -1.429423
    27 3.942295 0.050344 0.431044 0.131188 -0.004003 -1.272871
    28 1.539104 0.000011 0.000001 -0.024941 0.014825 -0.944164
    29 1.196321 0.000008 -0.000002 0.000656 -0.007935 -1.149526
    30 3.883659 -0.050301 -0.431042 0.018705 -0.006531 -1.054723
    31 1.719580 -0.000002 0.000006 0.004560 0.014027 -1.323461
    32 1.209187 -0.000008 0.000006 0.001490 -0.003385 -0.843665
    33 3.859833 -0.148917 -1.331282 -0.284819 0.276359 -0.270068
    34 1.719425 -0.000006 0.000010 -0.092221 0.124884 -1.265075
    35 1.099667 0.000011 0.000006 -0.040733 0.605382 -0.812086
    36 0.806023 -0.359831 -1.318334 1.295125 0.286390 -0.680996
    37 1.789783 -0.000002 -0.000004 0.001753 -0.008293 0.100710
    38 1.206999 -0.000001 -0.000004 0.001191 0.000438 0.889443
    39 -6.953420 -22.112218 -8.068623 1.582755 0.007950 3.143031
    40 -0.000002 2.197265 1.738281 0.000000 0.000000 0.000000
    41 -0.000005 3.713594 3.442338 0.000000 0.000000 0.000000
    42 -0.000006 2.774759 -0.058850 -0.207166 0.000000 0.000000
    43 -26.937500 -1.363281 -5.804688 1.570793 -0.000003 -3.141603
  time 2
    0 0.000000 -0.000006 0.000000 -1.570781 -1.391896 -1.570809
    1 -7.515625 8.695313 3.603516 1.596636 -1.286515 2.942963
    2 6.028138 0.000009 0.000002 -0.222753 -0.837371 -2.464482
    3 11.692574 0.000164 -0.000020 -0.000002 0.000028 -0.725117
    4 11.481693 -0.000162 -0.000041 1.856309 -0.512794 0.179325
    5 3.859703 -0.142435 -1.191976 -0.564810 -0.053545 -1.794235
    6 1.312563 -0.000013 0.000005 -0.003759 0.000020 -0.000658
    7 0.729367 -0.000004 -0.000001 0.026991 0.121269 -1.348846
    8 3.942326 0.046736 -0.431444 -0.252522 -0.029733 -1.503843
    9 1.539095 0.000002 -0.000005 -0.095119 0.012610 -0.847833
    10 1.196324 -0.000008 0.000001 -0.095910 0.028627 -1.106498
    11 3.883686 -0.046799 0.431442 -0.048950 -0.007182 -1.334788
    12 1.719578 -0.000015 0.000010 -0.033490 -0.073350 -1.455902
    13 1.209181 -0.000010 0.000004 -0.036852 -0.048077 -0.668933
    14 3.859852 -0.137980 1.332466 0.216126 -0.026857 -1.466872
    15 1.719431 -0.000010 -0.000004 0.084232 -0.193294 -1.428337
    16 1.099672 -0.000008 0.000003 0.049302 -0.091022 -0.702855
    17 0.806038 -0.348935 1.321259 -1.209033 -0.156406 -0.930212
    18 1.789789 0.000002 -0.000006 -0.008908 0.098249 0.400720
    19 1.206999 -0.000001 -0.000006 -0.009407 0.006195 1.228932
    20 0.096130 -0.539063 -8.210938 -1.668474 1.286518 2.942953
    21 6.028134 0.000001 -0.000002 1.183479 0.681188 -1.581097
    22 11.692558 0.000084 0.000007 0.000001 0.000000 -1.090144
    23 11.481697 -0.000003 -0.000004 -1.821541 0.533190 0.007210
    24 3.859673 -0.132545 1.193110 0.456974 0.016490 -1.574847
    25 1.312563 0.000002 0.000000 -0.027178 0.001149 0.001417
    26 0.729364 0.000004 -0.000002 0.000420 0.002741 -1.429423
    27 3.942295 0.050344 0.431044 0.131188 -0.004003 -1.272871
    28 1.539104 0.000011 0.000001 -0.024941 0.014825 -0.944164
    29 1.196321 0.000008 -0.000002 0.000656 -0.007935 -1.149526
    30 3.883659 -0.050301 -0.431042 0.018705 -0.006531 -1.054723
    31 1.719580 -0.000002 0.000006 0.004560 0.014027 -1.323461
    32 1.209187 -0.000008 0.000006 0.001490 -0.003385 -0.843665
    33 3.859833 -0.148917 -1.331282 -0.284819 0.276359 -0.270068
    34 1.719425 -0.000006 0.000010 -0.092221 0.124884 -1.265075
    35 1.099667 0.000011 0.000006 -0.040733 0.605400 -0.812086
    36 0.806023 -0.359831 -1.318334 1.295125 0.286390 -0.680996
    37 1.789783 -0.000002 -0.000004 0.001753 -0.008293 0.100710
    38 1.206999 -0.000001 -0.000004 0.001191 0.000438 0.889443
    39 -6.953420 -22.198158 -8.138937 1.605141 0.015899 3.146202
    40 -0.000002 2.197265 1.738281 0.000000 0.000000 0.000000
    41 -0.000005 3.713594 4.071264 0.000000 0.000000 0.000000
    42 -0.000006 2.774759 -0.058850 -0.207166 0.000000 0.000000
    43 -26.937500 -1.363281 -5.804688 1.570793 -0.000003 -3.141603
  time 3
    0 0.000000 -0.000006 0.000000 -1.570781 -1.391896 -1.570809
    1 -7.515625 8.695313 3.603516 1.596636 -1.286515 2.942963
    2 6.028138 0.000009 0.000002 -0.207350 -0.846750 -2.490705
    3 11.692574 0.000164 -0.000020 -0.000002 0.000001 -0.685733
    4 11.481693 -0.000162 -0.000041 1.866316 -0.507434 0.144647
    5 3.859703 -0.142435 -1.191976 -0.564810 -0.053545 -1.794235
    6 1.312563 -0.000013 0.000005 -0.003759 0.000020 -0.000658
    7 0.729367 -0.000004 -0.000001 0.026991 0.121269 -1.348846
    8 3.942326 0.046736 -0.431444 -0.252522 -0.029733 -1.503843
    9 1.539095 0.000002 -0.000005 -0.095119 0.012610 -0.847833
    10 1.196324 -0.000008 0.000001 -0.095910 0.028627 -1.106498
    11 3.883686 -0.046799 0.431442 -0.048950 -0.007182 -1.334788
    12 1.719578 -0.000015 0.000010 -0.033490 -0.073350 -1.455902
    13 1.209181 -0.000010 0.000004 -0.036852 -0.048077 -0.668933
    14 3.859852 -0.137980 1.332466 0.216126 -0.026857 -1.466872
    15 1.719431 -0.000010 -0.000004 0.084232 -0.193294 -1.428337
    16 1.099672 -0.000008 0.000003 0.049302 -0.091022 -0.702855
    17 0.806038 -0.348935 1.321259 -1.209033 -0.156406 -0.930212
    18 1.789789 0.000002 -0.000006 -0.008908 0.098249 0.400720
    19 1.206999 -0.000001 -0.000006 -0.009407 0.006195 1.228932
    20 0.096130 -0.539063 -8.210938 -1.668474 1.286518 2.942953
    21 6.028134 0.000001 -0.000002 1.182787 0.700086 -1.585676
    22 11.692558 0.000084 0.000007 0.000001 0.000000 -1.054512
    23 11.481697 -0.000003 -0.000004 -1.823428 0.524881 -0.021510
    24 3.859673 -0.132545 1.193110 0.456974 0.016490 -1.574847
    25 1.312563 0.000002 0.000000 -0.027178 0.001149 0.001417
    26 0.729364 0.000004 -0.000002 0.000420 0.002741 -1.429423
    27 3.942295 0.050344 0.431044 0.131188 -0.004003 -1.272871
    28 1.539104 0.000011 0.000001 -0.024941 0.014825 -0.944164
    29 1.196321 0.000008 -0.000002 0.000656 -0.007935 -1.149526
    30 3.883659 -0.050301 -0.431042 0.018705 -0.006531 -1.054723
    31 1.719580 -0.000002 0.000006 0.004560 0.014027 -1.323461
    32 1.209187 -0.000008 0.000006 0.001490 -0.003385 -0.843665
    33 3.859833 -0.148917 -1.331282 -0.284819 0.276359 -0.270068
    34 1.719425 -0.000006 0.000010 -0.092221 0.124884 -1.265075
    35 1.099667 0.000011 0.000006 -0.040733 0.605400 -0.812086
    36 0.806023 -0.359831 -1.318334 1.295125 0.286390 -0.680996
    37 1.789783 -0.000002 -0.000004 0.001753 -0.008293 0.100710
    38 1.206999 -0.000001 -0.000004 0.001191 0.000438 0.889443
    39 -6.953420 -22.409102 -8.135031 1.617159 0.014872 3.149434
    40 -0.000002 2.197265 1.738281 0.000000 0.000000 0.000000
    41 -0.000005 3.713594 4.704095 0.000000 0.000000 0.000000
    42 -0.000006 2.774759 -0.058850 -0.207166 0.000000 0.000000
    43 -26.937500 -1.363281 -5.804688 1.570793 -0.000003 -3.141603
  time 4
    0 0.000000 -0.000006 0.000000 -1.570781 -1.391896 -1.570809
    1 -7.515625 8.695313 3.603516 1.596636 -1.286515 2.942963
    2 6.028138 0.000009 0.000002 -0.185114 -0.858511 -2.527003
    3 11.692574 0.000164 -0.000020 -0.000002 0.000001 -0.631026
    4 11.481693 -0.000162 -0.000041 1.863756 -0.501427 0.117112
    5 3.859703 -0.142435 -1.191976 -0.564810 -0.053545 -1.794235
    6 1.312563 -0.000013 0.000005 -0.003759 0.000020 -0.000658
    7 0.729367 -0.000004 -0.000001 0.026991 0.121269 -1.348846
    8 3.942326 0.046736 -0.431444 -0.252522 -0.029733 -1.503864
    9 1.539095 0.000002 -0.000005 -0.095119 0.012610 -0.847833
    10 1.196324 -0.000008 0.000001 -0.095910 0.028627 -1.106498
    11 3.883686 -0.046799 0.431442 -0.048950 -0.007182 -1.334788
    12 1.719578 -0.000015 0.000010 -0.033490 -0.073350 -1.455902
    13 1.209181 -0.000010 0.000004 -0.036852 -0.048077 -0.668933
    14 3.859852 -0.137980 1.332466 0.216126 -0.026857 -1.466872
    15 1.719431 -0.000010 -0.000004 0.084232 -0.193294 -1.428337
    16 1.099672 -0.000008 0.000003 0.049302 -0.091022 -0.702855
    17 0.806038 -0.348935 1.321259 -1.209033 -0.156406 -0.930212
    18 1.789789 0.000002 -0.000006 -0.008908 0.098249 0.400720
    19 1.206999 -0.000001 -0.000006 -0.009407 0.006195 1.228932
    20 0.096130 -0.539063 -8.210938 -1.668474 1.286518 2.942953
    21 6.028134 0.000001 -0.000002 1.179672 0.725707 -1.593874
    22 11.692558 0.000084 0.000007 0.000001 0.000000 -1.014048
    23 11.481697 -0.000003 -0.000004 -1.822421 0.519335 -0.032096
    24 3.859673 -0.132545 1.193110 0.456974 0.016490 -1.574847
    25 1.312563 0.000002 0.000000 -0.027178 0.001149 0.001417
    26 0.729364 0.000004 -0.000002 0.000420 0.002741 -1.429423
    27 3.942295 0.050344 0.431044 0.131188 -0.004003 -1.272871
    28 1.539104 0.000011 0.000001 -0.024941 0.014825 -0.944164
    29 1.196321 0.000008 -0.000002 0.000656 -0.007935 -1.149526
    30 3.883659 -0.050301 -0.431042 0.018705 -0.006531 -1.054723
    31 1.719580 -0.000002 0.000006 0.004560 0.014027 -1.323461
    32 1.209187 -0.000008 0.000006 0.001490 -0.003385 -0.843665
    33 3.859833 -0.148917 -1.331282 -0.284819 0.276359 -0.270068
    34 1.719425 -0.000006 0.000010 -0.092221 0.124884 -1.265075
    35 1.099667 0.000011 0.000006 -0.040733 0.605382 -0.812086
    36 0.806023 -0.359831 -1.318334 1.295125 0.286390 -0.680996
    37 1.789783 -0.000002 -0.000004 0.001753 -0.008293 0.100710
    38 1.206999 -0.000001 -0.000004 0.001191 0.000438 0.889443
    39 -6.953420 -22.686454 -8.123312 1.614626 0.012156 3.150836
    40 -0.000002 2.197265 1.738281 0.000000 0.000000 0.000000
    41 -0.000005 3.713594 4.989260 0.000000 0.000000 0.000000
    42 -0.000006 2.774759 -0.058850 -0.207166 0.000000 0.000000
    43 -26.937500 -1.363281 -5.804688 1.570793 -0.000003 -3.141603
  time 5
    0 0.000000 -0.000006 0.000000 -1.570781 -1.391896 -1.570809
    1 -7.515625 8.695313 3.603516 1.596636 -1.286515 2.942963
    2 6.028138 0.000009 0.000002 -0.157898 -0.870198 -2.569088
    3 11.692574 0.000164 -0.000020 -0.000002 0.000001 -0.569807
    4 11.481693 -0.000162 -0.000041 1.856619 -0.494584 0.090732
    5 3.859703 -0.142435 -1.191976 -0.564810 -0.053545 -1.794235
    6 1.312563 -0.000013 0.000005 -0.003759 0.000020 -0.000658
    7 0.729367 -0.000004 -0.000001 0.026991 0.121269 -1.348846
    8 3.942326 0.046736 -0.431444 -0.252522 -0.029733 -1.503843
    9 1.539095 0.000002 -0.000005 -0.095119 0.012610 -0.847833
    10 1.196324 -0.000008 0.000001 -0.095910 0.028627 -1.106498
    11 3.883686 -0.046799 0.431442 -0.048950 -0.007182 -1.334788
    12 1.719578 -0.000015 0.000010 -0.033490 -0.073350 -1.455902
    13 1.209181 -0.000010 0.000004 -0.036852 -0.048077 -0.668933
    14 3.859852 -0.137980 1.332466 0.216126 -0.026857 -1.466872
    15 1.719431 -0.000010 -0.000004 0.084232 -0.193294 -1.428337
    16 1.099672 -0.000008 0.000003 0.049302 -0.091022 -0.702855
    17 0.806038 -0.348935 1.321259 -1.209033 -0.156406 -0.930212
    18 1.789789 0.000002 -0.000006 -0.008908 0.098249 0.400720
    19 1.206999 -0.000001 -0.000006 -0.009407 0.006195 1.228932
    20 0.096130 -0.539063 -8.210938 -1.668474 1.286518 2.942953
    21 6.028134 0.000001 -0.000002 1.174912 0.752142 -1.603623
    22 11.692558 0.000084 0.000007 0.000001 0.000000 -0.973585
    23 11.481697 -0.000003 -0.000004 -1.822170 0.516696 -0.037728
    24 3.859673 -0.132545 1.193110 0.456974 0.016490 -1.574847
    25 1.312563 0.000002 0.000000 -0.027178 0.001149 0.001417
    26 0.729364 0.000004 -0.000002 0.000420 0.002741 -1.429423
    27 3.942295 0.050344 0.431044 0.131188 -0.004003 -1.272871
    28 1.539104 0.000011 0.000001 -0.024941 0.014825 -0.944164
    29 1.196321 0.000008 -0.000002 0.000656 -0.007935 -1.149526
    30 3.883659 -0.050301 -0.431042 0.018705 -0.006531 -1.054723
    31 1.719580 -0.000002 0.000006 0.004560 0.014027 -1.323461
    32 1.209187 -0.000008 0.000006 0.001490 -0.003385 -0.843665
    33 3.859833 -0.148917 -1.331282 -0.284819 0.276359 -0.270068
    34 1.719425 -0.000006 0.000010 -0.092221 0.124884 -1.265075
    35 1.099667 0.000011 0.000006 -0.040733 0.605400 -0.812086
    36 0.806023 -0.359831 -1.318334 1.295125 0.286390 -0.680996
    37 1.789783 -0.000002 -0.000004 0.001753 -0.008293 0.100710
    38 1.206999 -0.000001 -0.000004 0.001191 0.000438 0.889443
    39 -6.953420 -22.963806 -8.111593 1.607910 0.008281 3.150226
    40 -0.000002 2.197265 1.738281 0.000000 0.000000 0.000000
    41 -0.000005 3.713594 4.989260 0.000000 0.000000 0.000000
    42 -0.000006 2.774759 -0.058850 -0.207166 0.000000 0.000000
    43 -26.937500 -1.363281 -5.804688 1.570793 -0.000003 -3.141603
  time 6
    0 0.000000 -0.000006 0.000000 -1.570781 -1.391896 -1.570809
    1 -7.515625 8.695313 3.603516 1.596636 -1.286515 2.942963
    2 6.028138 0.000009 0.000002 -0.132593 -0.878990 -2.606458
    3 11.692574 0.000164 -0.000020 -0.000002 0.000001 -0.517084
    4 11.481693 -0.000162 -0.000041 1.846535 -0.489262 0.072073
    5 3.859703 -0.142435 -1.191976 -0.564810 -0.053545 -1.794235
    6 1.312563 -0.000013 0.000005 -0.003759 0.000020 -0.000658
    7 0.729367 -0.000004 -0.000001 0.026991 0.121269 -1.348846
    8 3.942326 0.046736 -0.431444 -0.252522 -0.029733 -1.503843
    9 1.539095 0.000002 -0.000005 -0.095119 0.012610 -0.847833
    10 1.196324 -0.000008 0.000001 -0.095910 0.028627 -1.106498
    11 3.883686 -0.046799 0.431442 -0.048950 -0.007182 -1.334788
    12 1.719578 -0.000015 0.000010 -0.033490 -0.073350 -1.455902
    13 1.209181 -0.000010 0.000004 -0.036852 -0.048077 -0.668933
    14 3.859852 -0.137980 1.332466 0.216126 -0.026857 -1.466872
    15 1.719431 -0.000010 -0.000004 0.084232 -0.193294 -1.428337
    16 1.099672 -0.000008 0.000003 0.049302 -0.091022 -0.702855
    17 0.806038 -0.348935 1.321259 -1.209033 -0.156406 -0.930212
    18 1.789789 0.000002 -0.000006 -0.008908 0.098249 0.400720
    19 1.206999 -0.000001 -0.000006 -0.009407 0.006195 1.228932
    20 0.096130 -0.539063 -8.210938 -1.668474 1.286518 2.942953
    21 6.028134 0.000001 -0.000002 1.170066 0.773019 -1.612338
    22 11.692558 0.000084 0.000007 0.000001 0.000000 -0.943431
    23 11.481697 -0.000003 -0.000004 -1.822736 0.516447 -0.036210
    24 3.859673 -0.132545 1.193110 0.456974 0.016490 -1.574847
    25 1.312563 0.000002 0.000000 -0.027178 0.001149 0.001417
    26 0.729364 0.000004 -0.000002 0.000420 0.002741 -1.429423
    27 3.942295 0.050344 0.431044 0.131188 -0.004003 -1.272871
    28 1.539104 0.000011 0.000001 -0.024941 0.014825 -0.944164
    29 1.196321 0.000008 -0.000002 0.000656 -0.007935 -1.149526
    30 3.883659 -0.050301 -0.431042 0.018705 -0.006531 -1.054723
    31 1.719580 -0.000002 0.000006 0.004560 0.014027 -1.323461
    32 1.209187 -0.000008 0.000006 0.001490 -0.003385 -0.843665
    33 3.859833 -0.148917 -1.331282 -0.284705 0.276036 -0.268835
    34 1.719425 -0.000006 0.000010 -0.091358 0.124393 -1.260120
    35 1.099667 0.000011 0.000006 -0.037197 0.598312 -0.801894
    36 0.806023 -0.359831 -1.318334 1.295125 0.286390 -0.680996
    37 1.789783 -0.000002 -0.000004 0.001753 -0.008293 0.100710
    38 1.206999 -0.000001 -0.000004 0.001191 0.000438 0.889443
    39 -6.953420 -23.178657 -8.092061 1.598426 0.003875 3.148580
    40 -0.000002 2.197265 1.738281 0.000000 0.000000 0.000000
    41 -0.000005 3.713594 4.989260 0.000000 0.000000 0.000000
    42 -0.000006 2.774759 -0.070569 -0.204529 0.000000 0.000000
    43 -26.937500 -1.363281 -5.804688 1.570793 -0.000003 -3.141603
  time 7
    0 0.000000 -0.000006 0.000000 -1.570781 -1.391896 -1.570809
    1 -7.515625 8.695313 3.603516 1.596636 -1.286515 2.942963
    2 6.028138 0.000009 0.000002 -0.120838 -0.882361 -2.623321
    3 11.692574 0.000164 -0.000020 -0.000002 0.000001 -0.493820
    4 11.481693 -0.000162 -0.000041 1.834745 -0.487133 0.070710
    5 3.859703 -0.142435 -1.191976 -0.564810 -0.053545 -1.794235
    6 1.312563 -0.000013 0.000005 -0.003759 0.000020 -0.000658
    7 0.729367 -0.000004 -0.000001 0.026991 0.121269 -1.348846
    8 3.942326 0.046736 -0.431444 -0.252522 -0.029733 -1.503843
    9 1.539095 0.000002 -0.000005 -0.095119 0.012610 -0.847833
    10 1.196324 -0.000008 0.000001 -0.095910 0.028627 -1.106498
    11 3.883686 -0.046799 0.431442 -0.048950 -0.007182 -1.334788
    12 1.719578 -0.000015 0.000010 -0.033490 -0.073350 -1.455902
    13 1.209181 -0.000010 0.000004 -0.036852 -0.048077 -0.668933
    14 3.859852 -0.137980 1.332466 0.216126 -0.026857 -1.466872
    15 1.719431 -0.000010 -0.000004 0.084232 -0.193294 -1.428337
    16 1.099672 -0.000008 0.000003 0.049302 -0.091022 -0.702855
    17 0.806038 -0.348935 1.321259 -1.209033 -0.156406 -0.930212
    18 1.789789 0.000002 -0.000006 -0.008908 0.098249 0.400720
    19 1.206999 -0.000001 -0.000006 -0.009407 0.006195 1.228932
    20 0.096130 -0.539063 -8.210938 -1.668474 1.286518 2.942953
    21 6.028134 0.000001 -0.000002 1.167037 0.781750 -1.616917
    22 11.692558 0.000084 0.000007 0.000001 0.000000 -0.934760
    23 11.481697 -0.000003 -0.000004 -1.824120 0.518961 -0.024746
    24 3.859673 -0.132545 1.193110 0.456974 0.016490 -1.574847
    25 1.312563 0.000002 0.000000 -0.027178 0.001149 0.001417
    26 0.729364 0.000004 -0.000002 0.000420 0.002741 -1.429423
    27 3.942295 0.050344 0.431044 0.131188 -0.004003 -1.272871
    28 1.539104 0.000011 0.000001 -0.024941 0.014825 -0.944164
    29 1.196321 0.000008 -0.000002 0.000656 -0.007935 -1.149526
    30 3.883659 -0.050301 -0.431042 0.018705 -0.006531 -1.054723
    31 1.719580 -0.000002 0.000006 0.004560 0.014027 -1.323461
    32 1.209187 -0.000008 0.000006 0.001490 -0.003385 -0.843665
    33 3.859833 -0.148917 -1.331282 -0.284362 0.275113 -0.265403
    34 1.719425 -0.000006 0.000010 -0.088961 0.122990 -1.246190
    35 1.099667 0.000011 0.000006 -0.027753 0.578126 -0.773502
    36 0.806023 -0.359831 -1.318334 1.295125 0.286390 -0.680996
    37 1.789783 -0.000002 -0.000004 0.001753 -0.008293 0.100710
    38 1.206999 -0.000001 -0.000004 0.001191 0.000438 0.889443
    39 -6.953420 -23.264597 -8.072529 1.587527 -0.000497 3.146141
    40 -0.000002 2.197265 1.738281 0.000000 0.000000 0.000000
    41 -0.000005 3.713594 4.989260 0.000000 0.000000 0.000000
    42 -0.000006 2.774759 -0.097913 -0.197099 0.000000 0.000000
    43 -26.937500 -1.363281 -5.804688 1.570793 -0.000003 -3.141603
  time 8
    0 0.000000 -0.000006 0.000000 -1.570781 -1.391896 -1.570809
    1 -7.515625 8.695313 3.603516 1.596636 -1.286515 2.942963
    2 6.028138 0.000009 0.000002 -0.121012 -0.881958 -2.622820
    3 11.692574 0.000164 -0.000020 -0.000002 0.000001 -0.494772
    4 11.481693 -0.000162 -0.000041 1.822877 -0.487019 0.082476
    5 3.859703 -0.142435 -1.191976 -0.564810 -0.053545 -1.794235
    6 1.312563 -0.000013 0.000005 -0.003759 0.000020 -0.000658
    7 0.729367 -0.000004 -0.000001 0.026991 0.121269 -1.348846
    8 3.942326 0.046736 -0.431444 -0.252522 -0.029733 -1.503843
    9 1.539095 0.000002 -0.000005 -0.095119 0.012610 -0.847833
    10 1.196324 -0.000008 0.000001 -0.095910 0.028627 -1.106498
    11 3.883686 -0.046799 0.431442 -0.048950 -0.007182 -1.334788
    12 1.719578 -0.000015 0.000010 -0.033490 -0.073350 -1.455902
    13 1.209181 -0.000010 0.000004 -0.036852 -0.048077 -0.668933
    14 3.859852 -0.137980 1.332466 0.216126 -0.026857 -1.466872
    15 1.719431 -0.000010 -0.000004 0.084232 -0.193294 -1.428337
    16 1.099672 -0.000008 0.000003 0.049302 -0.091022 -0.702855
    17 0.806038 -0.348935 1.321259 -1.209033 -0.156406 -0.930212
    18 1.789789 0.000002 -0.000006 -0.008908 0.098249 0.400720
    19 1.206999 -0.000001 -0.000006 -0.009407 0.006195 1.228932
    20 0.096130 -0.539063 -8.210938 -1.668474 1.286518 2.942953
    21 6.028134 0.000001 -0.000002 1.165566 0.781451 -1.618246
    22 11.692558 0.000084 0.000007 0.000001 0.000000 -0.941662
    23 11.481697 -0.000003 -0.000004 -1.825882 0.523365 -0.007290
    24 3.859673 -0.132545 1.193110 0.456974 0.016490 -1.574847
    25 1.312563 0.000002 0.000000 -0.027178 0.001149 0.001417
    26 0.729364 0.000004 -0.000002 0.000420 0.002741 -1.429423
    27 3.942295 0.050344 0.431044 0.131188 -0.004003 -1.272871
    28 1.539104 0.000011 0.000001 -0.024941 0.014825 -0.944164
    29 1.196321 0.000008 -0.000002 0.000656 -0.007935 -1.149526
    30 3.883659 -0.050301 -0.431042 0.018705 -0.006531 -1.054723
    31 1.719580 -0.000002 0.000006 0.004560 0.014027 -1.323461
    32 1.209187 -0.000008 0.000006 0.001490 -0.003385 -0.843665
    33 3.859833 -0.148917 -1.331282 -0.283841 0.273687 -0.260079
    34 1.719425 -0.000006 0.000010 -0.085281 0.120749 -1.224634
    35 1.099667 0.000011 0.000006 -0.014606 0.546257 -0.730423
    36 0.806023 -0.359831 -1.318334 1.295125 0.286390 -0.680996
    37 1.789783 -0.000002 -0.000004 0.001753 -0.008293 0.100710
    38 1.206999 -0.000001 -0.000004 0.001191 0.000438 0.889443
    39 -6.953420 -23.256784 -8.049091 1.576746 -0.004339 3.143275
    40 -0.000002 2.197265 1.738281 0.000000 0.000000 0.000000
    41 -0.000005 3.713594 4.989260 0.000000 0.000000 0.000000
    42 -0.000006 2.774759 -0.136977 -0.185629 0.000000 0.000000
    43 -26.937500 -1.363281 -5.804688 1.570793 -0.000003 -3.141603
  time 9
    0 0.000000 -0.000006 0.000000 -1.570781 -1.391896 -1.570809
    1 -7.515625 8.695313 3.603516 1.596636 -1.286515 2.942963
    2 6.028138 0.000009 0.000002 -0.122749 -0.881079 -2.619962
    3 11.692574 0.000164 -0.000020 -0.000002 0.000001 -0.499139
    4 11.481693 -0.000162 -0.000041 1.812948 -0.486601 0.094984
    5 3.859703 -0.142435 -1.191976 -0.564810 -0.053545 -1.794235
    6 1.312563 -0.000013 0.000005 -0.003759 0.000020 -0.000658
    7 0.729367 -0.000004 -0.000001 0.026991 0.121269 -1.348846
    8 3.942326 0.046736 -0.431444 -0.252522 -0.029733 -1.503843
    9 1.539095 0.000002 -0.000005 -0.095119 0.012610 -0.847833
    10 1.196324 -0.000008 0.000001 -0.095910 0.028627 -1.106498
    11 3.883686 -0.046799 0.431442 -0.048950 -0.007182 -1.334788
    12 1.719578 -0.000015 0.000010 -0.033490 -0.073350 -1.455902
    13 1.209181 -0.000010 0.000004 -0.036852 -0.048077 -0.668933
    14 3.859852 -0.137980 1.332466 0.216126 -0.026857 -1.466872
    15 1.719431 -0.000010 -0.000004 0.084232 -0.193294 -1.428337
    16 1.099672 -0.000008 0.000003 0.049302 -0.091022 -0.702855
    17 0.806038 -0.348935 1.321259 -1.209033 -0.156406 -0.930212
    18 1.789789 0.000002 -0.000006 -0.008908 0.098249 0.400720
    19 1.206999 -0.000001 -0.000006 -0.009407 0.006195 1.228932
    20 0.096130 -0.539063 -8.210938 -1.668474 1.286518 2.942953
    21 6.028134 0.000001 -0.000002 1.164441 0.779852 -1.619132
    22 11.692558 0.000084 0.000007 0.000001 0.000000 -0.950031
    23 11.481697 -0.000003 -0.000004 -1.826889 0.528162 0.008968
    24 3.859673 -0.132545 1.193110 0.456974 0.016490 -1.574868
    25 1.312563 0.000002 0.000000 -0.027178 0.001149 0.001417
    26 0.729364 0.000004 -0.000002 0.000420 0.002741 -1.429423
    27 3.942295 0.050344 0.431044 0.131188 -0.004003 -1.272871
    28 1.539104 0.000011 0.000001 -0.024941 0.014825 -0.944164
    29 1.196321 0.000008 -0.000002 0.000656 -0.007935 -1.149526
    30 3.883659 -0.050301 -0.431042 0.018705 -0.006531 -1.054723
    31 1.719580 -0.000002 0.000006 0.004560 0.014027 -1.323461
    32 1.209187 -0.000008 0.000006 0.001490 -0.003385 -0.843665
    33 3.859833 -0.148917 -1.331282 -0.283181 0.271841 -0.253216
    34 1.719425 -0.000006 0.000010 -0.080607 0.117753 -1.196857
    35 1.099667 0.000011 0.000006 -0.000225 0.504099 -0.676258
    36 0.806023 -0.359831 -1.318334 1.295125 0.286390 -0.680996
    37 1.789783 -0.000002 -0.000004 0.001753 -0.008293 0.100710
    38 1.206999 -0.000001 -0.000004 0.001191 0.000438 0.889443
    39 -6.953420 -23.233346 -8.029559 1.567320 -0.007055 3.140288
    40 -0.000002 2.197265 1.738281 0.000000 0.000000 0.000000
    41 -0.000005 3.713594 4.989260 0.000000 0.000000 0.000000
    42 -0.000006 2.774759 -0.183854 -0.170828 0.000000 0.000000
    43 -26.937500 -1.363281 -5.804688 1.570793 -0.000003 -3.141603
  time 10
    0 0.000000 -0.000006 0.000000 -1.570781 -1.391896 -1.570809
    1 -7.515625 8.695313 3.603516 1.596636 -1.286515 2.942963
    2 6.028138 0.000009 0.000002 -0.125470 -0.879870 -2.615747
    3 11.692574 0.000164 -0.000020 -0.000002 0.000001 -0.505889
    4 11.481693 -0.000162 -0.000041 1.806354 -0.485726 0.106337
    5 3.859703 -0.142435 -1.191976 -0.564810 -0.053545 -1.794235
    6 1.312563 -0.000013 0.000005 -0.003759 0.000020 -0.000658
    7 0.729367 -0.000004 -0.000001 0.026991 0.121269 -1.348846
    8 3.942326 0.046736 -0.431444 -0.252522 -0.029733 -1.503843
    9 1.539095 0.000002 -0.000005 -0.095119 0.012610 -0.847833
    10 1.196324 -0.000008 0.000001 -0.095910 0.028627 -1.106498
    11 3.883686 -0.046799 0.431442 -0.048950 -0.007182 -1.334788
    12 1.719578 -0.000015 0.000010 -0.033490 -0.073350 -1.455902
    13 1.209181 -0.000010 0.000004 -0.036852 -0.048077 -0.668933
    14 3.859852 -0.137980 1.332466 0.216126 -0.026857 -1.466872
    15 1.719431 -0.000010 -0.000004 0.084232 -0.193294 -1.428337
    16 1.099672 -0.000008 0.000003 0.049302 -0.091022 -0.702855
    17 0.806038 -0.348935 1.321259 -1.209033 -0.156406 -0.930212
    18 1.789789 0.000002 -0.000006 -0.008908 0.098249 0.400720
    19 1.206999 -0.000001 -0.000006 -0.009407 0.006195 1.228958
    20 0.096130 -0.539063 -8.210938 -1.668474 1.286518 2.942953
    21 6.028134 0.000001 -0.000002 1.163576 0.777222 -1.619502
    22 11.692558 0.000084 0.000007 0.000001 0.000000 -0.958616
    23 11.481697 -0.000003 -0.000004 -1.826889 0.532815 0.021711
    24 3.859673 -0.132545 1.193110 0.456974 0.016490 -1.574847
    25 1.312563 0.000002 0.000000 -0.027178 0.001149 0.001417
    26 0.729364 0.000004 -0.000002 0.000420 0.002741 -1.429423
    27 3.942295 0.050344 0.431044 0.131188 -0.004003 -1.272871
    28 1.539104 0.000011 0.000001 -0.024941 0.014825 -0.944164
    29 1.196321 0.000008 -0.000002 0.000656 -0.007935 -1.149526
    30 3.883659 -0.050301 -0.431042 0.018705 -0.006531 -1.054723
    31 1.719580 -0.000002 0.000006 0.004560 0.014027 -1.323461
    32 1.209187 -0.000008 0.000006 0.001490 -0.003385 -0.843665
    33 3.859833 -0.148917 -1.331282 -0.282419 0.269672 -0.245171
    34 1.719425 -0.000006 0.000010 -0.075226 0.114062 -1.164179
    35 1.099667 0.000011 0.000006 0.013090 0.453309 -0.614367
    36 0.806023 -0.359831 -1.318334 1.295125 0.286390 -0.680996
    37 1.789783 -0.000002 -0.000004 0.001753 -0.008293 0.100710
    38 1.206999 -0.000001 -0.000004 0.001191 0.000438 0.889443
    39 -6.953420 -23.202095 -8.010027 1.560663 -0.008115 3.137361
    40 -0.000002 2.197265 1.738281 0.000000 0.000000 0.000000
    41 -0.000005 3.713594 4.989260 0.000000 0.000000 0.000000
    42 -0.000006 2.774759 -0.234636 -0.153463 0.000000 0.000000
    43 -26.937500 -1.363281 -5.804688 1.570793 -0.000003 -3.141603
  time 11
    0 0.000000 -0.000006 0.000000 -1.570781 -1.391896 -1.570809
    1 -7.515625 8.695313 3.603516 1.596636 -1.286515 2.942963
    2 6.028138 0.000009 0.000002 -0.128655 -0.878551 -2.610888
    3 11.692574 0.000164 -0.000020 -0.000002 0.000001 -0.513988
    4 11.481693 -0.000162 -0.000041 1.804415 -0.484548 0.114428
    5 3.859703 -0.142435 -1.191976 -0.564810 -0.053545 -1.794235
    6 1.312563 -0.000013 0.000005 -0.003759 0.000020 -0.000658
    7 0.729367 -0.000004 -0.000001 0.026991 0.121269 -1.348846
    8 3.942326 0.046736 -0.431444 -0.252522 -0.029733 -1.503843
    9 1.539095 0.000002 -0.000005 -0.095119 0.012610 -0.847833
    10 1.196324 -0.000008 0.000001 -0.095910 0.028627 -1.106498
    11 3.883686 -0.046799 0.431442 -0.048950 -0.007182 -1.334788
    12 1.719578 -0.000015 0.000010 -0.033490 -0.073350 -1.455902
    13 1.209181 -0.000010 0.000004 -0.036852 -0.048077 -0.668933
    14 3.859852 -0.137980 1.332466 0.216126 -0.026857 -1.466872
    15 1.719431 -0.000010 -0.000004 0.084232 -0.193294 -1.428337
    16 1.099672 -0.000008 0.000003 0.049302 -0.091022 -0.702855
    17 0.806038 -0.348935 1.321259 -1.209033 -0.156406 -0.930212
    18 1.789789 0.000002 -0.000006 -0.008908 0.098249 0.400720
    19 1.206999 -0.000001 -0.000006 -0.009407 0.006195 1.228932
    20 0.096130 -0.539063 -8.210938 -1.668474 1.286518 2.942953
    21 6.028134 0.000001 -0.000002 1.163230 0.773860 -1.619206
    22 11.692558 0.000084 0.000007 0.000001 0.000000 -0.966337
    23 11.481697 -0.000003 -0.000004 -1.826196 0.536685 0.028621
    24 3.859673 -0.132545 1.193110 0.456974 0.016490 -1.574847
    25 1.312563 0.000002 0.000000 -0.027178 0.001149 0.001417
    26 0.729364 0.000004 -0.000002 0.000420 0.002741 -1.429423
    27 3.942295 0.050344 0.431044 0.131188 -0.004003 -1.272871
    28 1.539104 0.000011 0.000001 -0.024941 0.014825 -0.944164
    29 1.196321 0.000008 -0.000002 0.000656 -0.007935 -1.149526
    30 3.883659 -0.050301 -0.431042 0.018705 -0.006531 -1.054723
    31 1.719580 -0.000002 0.000006 0.004560 0.014027 -1.323461
    32 1.209187 -0.000008 0.000006 0.001490 -0.003385 -0.843665
    33 3.859833 -0.148917 -1.331282 -0.281606 0.267263 -0.236280
    34 1.719425 -0.000006 0.000010 -0.069414 0.109759 -1.128033
    35 1.099667 0.000011 0.000006 0.023565 0.395895 -0.547850
    36 0.806023 -0.359831 -1.318334 1.295125 0.286390 -0.680996
    37 1.789783 -0.000002 -0.000004 0.001753 -0.008293 0.100710
    38 1.206999 -0.000001 -0.000004 0.001191 0.000438 0.889443
    39 -6.953420 -23.163031 -7.998308 1.558189 -0.007254 3.134983
    40 -0.000002 2.197265 1.738281 0.000000 0.000000 0.000000
    41 -0.000005 3.713594 4.989260 0.000000 0.000000 0.000000
    42 -0.000006 2.774759 -0.281513 -0.134239 0.000000 0.000000
    43 -26.937500 -1.363281 -5.804688 1.570793 -0.000003 -3.141603
  time 12
    0 0.000000 -0.000006 0.000000 -1.570781 -1.391896 -1.570809
    1 -7.515625 8.695313 3.603516 1.596636 -1.286515 2.942963
    2 6.028138 0.000009 0.000002 -0.132072 -0.877195 -2.605743
    3 11.692574 0.000164 -0.000020 -0.000002 0.000001 -0.522722
    4 11.481693 -0.000162 -0.000041 1.805967 -0.483445 0.119713
    5 3.859703 -0.142435 -1.191976 -0.564810 -0.053545 -1.794235
    6 1.312563 -0.000013 0.000005 -0.003759 0.000020 -0.000658
    7 0.729367 -0.000004 -0.000001 0.026991 0.121269 -1.348880
    8 3.942326 0.046736 -0.431444 -0.252522 -0.029733 -1.503843
    9 1.539095 0.000002 -0.000005 -0.095119 0.012610 -0.847833
    10 1.196324 -0.000008 0.000001 -0.095910 0.028627 -1.106498
    11 3.883686 -0.046799 0.431442 -0.048950 -0.007182 -1.334788
    12 1.719578 -0.000015 0.000010 -0.033490 -0.073350 -1.455902
    13 1.209181 -0.000010 0.000004 -0.036852 -0.048077 -0.668933
    14 3.859852 -0.137980 1.332466 0.216126 -0.026857 -1.466872
    15 1.719431 -0.000010 -0.000004 0.084232 -0.193294 -1.428337
    16 1.099672 -0.000008 0.000003 0.049302 -0.091022 -0.702855
    17 0.806038 -0.348935 1.321259 -1.209033 -0.156406 -0.930212
    18 1.789789 0.000002 -0.000006 -0.008908 0.098249 0.400720
    19 1.206999 -0.000001 -0.000006 -0.009407 0.006195 1.228932
    20 0.096130 -0.539063 -8.210938 -1.668474 1.286518 2.942953
    21 6.028134 0.000001 -0.000002 1.163316 0.770091 -1.618468
    22 11.692558 0.000084 0.000007 0.000001 0.000000 -0.972937
    23 11.481697 -0.000003 -0.000004 -1.824812 0.539448 0.030858
    24 3.859673 -0.132545 1.193110 0.456974 0.016490 -1.574847
    25 1.312563 0.000002 0.000000 -0.027178 0.001149 0.001417
    26 0.729364 0.000004 -0.000002 0.000420 0.002741 -1.429423
    27 3.942295 0.050344 0.431044 0.131188 -0.004003 -1.272871
    28 1.539104 0.000011 0.000001 -0.024941 0.014825 -0.944164
    29 1.196321 0.000008 -0.000002 0.000656 -0.007935 -1.149526
    30 3.883659 -0.050301 -0.431042 0.018705 -0.006531 -1.054723
    31 1.719580 -0.000002 0.000006 0.004560 0.014027 -1.323461
    32 1.209187 -0.000008 0.000006 0.001490 -0.003385 -0.843665
    33 3.859833 -0.148917 -1.331282 -0.280768 0.264710 -0.226882
    34 1.719425 -0.000006 0.000010 -0.063422 0.104989 -1.089821
    35 1.099667 0.000011 0.000006 0.030000 0.334296 -0.479391
    36 0.806023 -0.359831 -1.318334 1.295125 0.286390 -0.680996
    37 1.789783 -0.000002 -0.000004 0.001753 -0.008293 0.100710
    38 1.206999 -0.000001 -0.000004 0.001191 0.000438 0.889443
    39 -6.953420 -23.120061 -7.990495 1.558778 -0.005101 3.133276
    40 -0.000002 2.197265 1.738281 0.000000 0.000000 0.000000
    41 -0.000005 3.713594 4.989260 0.000000 0.000000 0.000000
    42 -0.000006 2.774759 -0.324483 -0.113926 0.000000 0.000000
    43 -26.937500 -1.363281 -5.804688 1.570793 -0.000003 -3.141603
  time 13
    0 0.000000 -0.000006 0.000000 -1.570781 -1.391896 -1.570809
    1 -7.515625 8.695313 3.603516 1.596636 -1.286515 2.942963
    2 6.028138 0.000009 0.000002 -0.135951 -0.875803 -2.599884
    3 11.692574 0.000164 -0.000020 -0.000002 0.000001 -0.531853
    4 11.481693 -0.000162 -0.000041 1.809302 -0.483027 0.124089
    5 3.859703 -0.142435 -1.191976 -0.564810 -0.053545 -1.794235
    6 1.312563 -0.000013 0.000005 -0.003759 0.000020 -0.000658
    7 0.729367 -0.000004 -0.000001 0.026991 0.121269 -1.348846
    8 3.942326 0.046736 -0.431444 -0.252522 -0.029733 -1.503843
    9 1.539095 0.000002 -0.000005 -0.095119 0.012610 -0.847833
    10 1.196324 -0.000008 0.000001 -0.095910 0.028627 -1.106498
    11 3.883686 -0.046799 0.431442 -0.048950 -0.007182 -1.334788
    12 1.719578 -0.000015 0.000010 -0.033490 -0.073350 -1.455902
    13 1.209181 -0.000010 0.000004 -0.036852 -0.048077 -0.668933
    14 3.859852 -0.137980 1.332466 0.216126 -0.026857 -1.466872
    15 1.719431 -0.000010 -0.000004 0.084232 -0.193294 -1.428337
    16 1.099672 -0.000008 0.000003 0.049302 -0.091022 -0.702855
    17 0.806038 -0.348935 1.321259 -1.209033 -0.156406 -0.930212
    18 1.789789 0.000002 -0.000006 -0.008908 0.098249 0.400720
    19 1.206999 -0.000001 -0.000006 -0.009407 0.006195 1.228958
    20 0.096130 -0.539063 -8.210938 -1.668474 1.286518 2.942953
    21 6.028134 0.000001 -0.000002 1.163836 0.766404 -1.617212
    22 11.692558 0.000084 0.000007 0.000001 0.000000 -0.978589
    23 11.481697 -0.000003 -0.000004 -1.822673 0.540857 0.031377
    24 3.859673 -0.132545 1.193110 0.456974 0.016490 -1.574847
    25 1.312563 0.000002 0.000000 -0.027178 0.001149 0.001417
    26 0.729364 0.000004 -0.000002 0.000420 0.002741 -1.429423
    27 3.942295 0.050344 0.431044 0.131188 -0.004003 -1.272871
    28 1.539104 0.000011 0.000001 -0.024941 0.014825 -0.944164
    29 1.196321 0.000008 -0.000002 0.000656 -0.007935 -1.149526
    30 3.883659 -0.050301 -0.431042 0.018705 -0.006531 -1.054723
    31 1.719580 -0.000002 0.000006 0.004560 0.014027 -1.323461
    32 1.209187 -0.000008 0.000006 0.001490 -0.003385 -0.843665
    33 3.859833 -0.148917 -1.331282 -0.279943 0.262098 -0.217332
    34 1.719425 -0.000006 0.000010 -0.057525 0.099896 -1.050922
    35 1.099667 0.000011 0.000006 0.031930 0.271153 -0.411302
    36 0.806023 -0.359831 -1.318334 1.295125 0.286390 -0.680996
    37 1.789783 -0.000002 -0.000004 0.001753 -0.008293 0.100710
    38 1.206999 -0.000001 -0.000004 0.001191 0.000438 0.889443
    39 -6.953420 -23.084904 -7.986589 1.560369 -0.002120 3.132666
    40 -0.000002 2.197265 1.738281 0.000000 0.000000 0.000000
    41 -0.000005 3.713594 4.989260 0.000000 0.000000 0.000000
    42 -0.000006 2.774759 -0.351827 -0.093240 0.000000 0.000000
    43 -26.937500 -1.363281 -5.804688 1.570793 -0.000003 -3.141603
  time 14
    0 0.000000 -0.000006 0.000000 -1.570781 -1.391896 -1.570809
    1 -7.515625 8.695313 3.603516 1.596636 -1.286515 2.942963
    2 6.028138 0.000009 0.000002 -0.139599 -0.874594 -2.594597
    3 11.692574 0.000164 -0.000020 -0.000002 0.000001 -0.540111
    4 11.481693 -0.000162 -0.000041 1.813646 -0.483483 0.127020
    5 3.859703 -0.142435 -1.191976 -0.564810 -0.053545 -1.794235
    6 1.312563 -0.000013 0.000005 -0.003759 0.000020 -0.000658
    7 0.729367 -0.000004 -0.000001 0.026991 0.121269 -1.348846
    8 3.942326 0.046736 -0.431444 -0.252522 -0.029733 -1.503843
    9 1.539095 0.000002 -0.000005 -0.095119 0.012610 -0.847833
    10 1.196324 -0.000008 0.000001 -0.095910 0.028627 -1.106498
    11 3.883686 -0.046799 0.431442 -0.048950 -0.007182 -1.334788
    12 1.719578 -0.000015 0.000010 -0.033490 -0.073350 -1.455902
    13 1.209181 -0.000010 0.000004 -0.036852 -0.048077 -0.668933
    14 3.859852 -0.137980 1.332466 0.216126 -0.026857 -1.466872
    15 1.719431 -0.000010 -0.000004 0.084232 -0.193294 -1.428337
    16 1.099672 -0.000008 0.000003 0.049302 -0.091022 -0.702855
    17 0.806038 -0.348935 1.321259 -1.209033 -0.156406 -0.930212
    18 1.789789 0.000002 -0.000006 -0.008908 0.098249 0.400720
    19 1.206999 -0.000001 -0.000006 -0.009407 0.006195 1.228932
    20 0.096130 -0.539063 -8.210938 -1.668474 1.286518 2.942953
    21 6.028134 0.000001 -0.000002 1.164701 0.763204 -1.615809
    22 11.692558 0.000084 0.000007 0.000001 0.000000 -0.982859
    23 11.481697 -0.000003 -0.000004 -1.820031 0.540661 0.030459
    24 3.859673 -0.132545 1.193110 0.456974 0.016490 -1.574847
    25 1.312563 0.000002 0.000000 -0.027178 0.001149 0.001417
    26 0.729364 0.000004 -0.000002 0.000420 0.002741 -1.429423
    27 3.942295 0.050344 0.431044 0.131188 -0.004003 -1.272871
    28 1.539104 0.000011 0.000001 -0.024941 0.014825 -0.944164
    29 1.196321 0.000008 -0.000002 0.000656 -0.007935 -1.149526
    30 3.883659 -0.050301 -0.431042 0.018705 -0.006531 -1.054723
    31 1.719580 -0.000002 0.000006 0.004560 0.014027 -1.323461
    32 1.209187 -0.000008 0.000006 0.001490 -0.003385 -0.843665
    33 3.859833 -0.148917 -1.331282 -0.279155 0.259533 -0.207951
    34 1.719425 -0.000006 0.000010 -0.051940 0.094683 -1.012794
    35 1.099667 0.000011 0.000006 0.029509 0.209293 -0.345702
    36 0.806023 -0.359831 -1.318334 1.295125 0.286390 -0.680996
    37 1.789783 -0.000002 -0.000004 0.001753 -0.008293 0.100710
    38 1.206999 -0.000001 -0.000004 0.001191 0.000438 0.889443
    39 -6.953420 -23.049747 -7.986589 1.562725 0.001060 3.133276
    40 -0.000002 2.197265 1.738281 0.000000 0.000000 0.000000
    41 -0.000005 3.713594 4.989260 0.000000 0.000000 0.000000
    42 -0.000006 2.774759 -0.359640 -0.072914 0.000000 0.000000
    43 -26.937500 -1.363281 -5.804688 1.570793 -0.000003 -3.141603
  time 15
    0 0.000000 -0.000006 0.000000 -1.570781 -1.391896 -1.570809
    1 -7.515625 8.695313 3.603516 1.596636 -1.286515 2.942963
    2 6.028138 0.000009 0.000002 -0.142379 -0.873751 -2.590524
    3 11.692574 0.000164 -0.000020 -0.000002 0.000001 -0.546383
    4 11.481693 -0.000162 -0.000041 1.818378 -0.484548 0.128217
    5 3.859703 -0.142435 -1.191976 -0.564810 -0.053545 -1.794235
    6 1.312563 -0.000013 0.000005 -0.003759 0.000020 -0.000658
    7 0.729367 -0.000004 -0.000001 0.026991 0.121269 -1.348846
    8 3.942326 0.046736 -0.431444 -0.252522 -0.029733 -1.503843
    9 1.539095 0.000002 -0.000005 -0.095119 0.012610 -0.847833
    10 1.196324 -0.000008 0.000001 -0.095910 0.028627 -1.106498
    11 3.883686 -0.046799 0.431442 -0.048950 -0.007182 -1.334788
    12 1.719578 -0.000015 0.000010 -0.033490 -0.073350 -1.455902
    13 1.209181 -0.000010 0.000004 -0.036852 -0.048077 -0.668933
    14 3.859852 -0.137980 1.332466 0.216126 -0.026857 -1.466872
    15 1.719431 -0.000010 -0.000004 0.084232 -0.193294 -1.428337
    16 1.099672 -0.000008 0.000003 0.049302 -0.091022 -0.702855
    17 0.806038 -0.348935 1.321259 -1.209033 -0.156406 -0.930212
    18 1.789789 0.000002 -0.000006 -0.008908 0.098249 0.400720
    19 1.206999 -0.000001 -0.000006 -0.009407 0.006195 1.228958
    20 0.096130 -0.539063 -8.210938 -1.668474 1.286518 2.942953
    21 6.028134 0.000001 -0.000002 1.165739 0.760927 -1.614332
    22 11.692558 0.000084 0.000007 0.000001 0.000000 -0.985404
    23 11.481697 -0.000003 -0.000004 -1.817514 0.539145 0.028302
    24 3.859673 -0.132545 1.193110 0.456974 0.016490 -1.574847
    25 1.312563 0.000002 0.000000 -0.027178 0.001149 0.001417
    26 0.729364 0.000004 -0.000002 0.000420 0.002741 -1.429423
    27 3.942295 0.050344 0.431044 0.131188 -0.004003 -1.272871
    28 1.539104 0.000011 0.000001 -0.024941 0.014825 -0.944164
    29 1.196321 0.000008 -0.000002 0.000656 -0.007935 -1.149526
    30 3.883659 -0.050301 -0.431042 0.018705 -0.006531 -1.054723
    31 1.719580 -0.000002 0.000006 0.004560 0.014027 -1.323461
    32 1.209187 -0.000008 0.000006 0.001490 -0.003385 -0.843665
    33 3.859833 -0.148917 -1.331282 -0.278432 0.257100 -0.199094
    34 1.719425 -0.000006 0.000010 -0.046847 0.089565 -0.976840
    35 1.099667 0.000011 0.000006 0.023541 0.151396 -0.284575
    36 0.806023 -0.359831 -1.318334 1.295125 0.286390 -0.680996
    37 1.789783 -0.000002 -0.000004 0.001753 -0.008293 0.100710
    38 1.206999 -0.000001 -0.000004 0.001191 0.000438 0.889443
    39 -6.953420 -23.030215 -7.990495 1.565553 0.004041 3.134739
    40 -0.000002 2.197265 1.738281 0.000000 0.000000 0.000000
    41 -0.000005 3.713594 4.989260 0.000000 0.000000 0.000000
    42 -0.000006 2.774759 -0.359640 -0.053703 0.000000 0.000000
    43 -26.937500 -1.363281 -5.804688 1.570793 -0.000003 -3.141603
  time 16
    0 0.000000 -0.000006 0.000000 -1.570781 -1.391896 -1.570809
    1 -7.515625 8.695313 3.603516 1.596636 -1.286515 2.942963
    2 6.028138 0.000009 0.000002 -0.143885 -0.873385 -2.588452
    3 11.692574 0.000164 -0.000020 -0.000002 0.000001 -0.549639
    4 11.481693 -0.000162 -0.000041 1.822877 -0.485992 0.127267
    5 3.859703 -0.142435 -1.191976 -0.564810 -0.053545 -1.794235
    6 1.312563 -0.000013 0.000005 -0.003759 0.000020 -0.000658
    7 0.729367 -0.000004 -0.000001 0.026991 0.121269 -1.348846
    8 3.942326 0.046736 -0.431444 -0.252522 -0.029733 -1.503843
    9 1.539095 0.000002 -0.000005 -0.095119 0.012610 -0.847833
    10 1.196324 -0.000008 0.000001 -0.095910 0.028627 -1.106498
    11 3.883686 -0.046799 0.431442 -0.048950 -0.007182 -1.334788
    12 1.719578 -0.000015 0.000010 -0.033490 -0.073350 -1.455902
    13 1.209181 -0.000010 0.000004 -0.036852 -0.048077 -0.668933
    14 3.859852 -0.137980 1.332466 0.216126 -0.026857 -1.466872
    15 1.719431 -0.000010 -0.000004 0.084232 -0.193294 -1.428337
    16 1.099672 -0.000008 0.000003 0.049302 -0.091022 -0.702855
    17 0.806038 -0.348935 1.321259 -1.209033 -0.156406 -0.930212
    18 1.789789 0.000002 -0.000006 -0.008908 0.098249 0.400720
    19 1.206999 -0.000001 -0.000006 -0.009407 0.006195 1.228932
    20 0.096130 -0.539063 -8.210938 -1.668474 1.286518 2.942953
    21 6.028134 0.000001 -0.000002 1.166778 0.759978 -1.613076
    22 11.692558 0.000084 0.000007 0.000001 0.000000 -0.985663
    23 11.481697 -0.000003 -0.000004 -1.815563 0.536578 0.024986
    24 3.859673 -0.132545 1.193110 0.456974 0.016490 -1.574847
    25 1.312563 0.000002 0.000000 -0.027178 0.001149 0.001417
    26 0.729364 0.000004 -0.000002 0.000420 0.002741 -1.429423
    27 3.942295 0.050344 0.431044 0.131188 -0.004003 -1.272871
    28 1.539104 0.000011 0.000001 -0.024941 0.014825 -0.944164
    29 1.196321 0.000008 -0.000002 0.000656 -0.007935 -1.149526
    30 3.883659 -0.050301 -0.431042 0.018705 -0.006531 -1.054723
    31 1.719580 -0.000002 0.000006 0.004560 0.014027 -1.323461
    32 1.209187 -0.000008 0.000006 0.001490 -0.003385 -0.843665
    33 3.859833 -0.148917 -1.331282 -0.277797 0.254883 -0.191099
    34 1.719425 -0.000006 0.000010 -0.042425 0.084795 -0.944410
    35 1.099667 0.000011 0.000006 0.015211 0.099917 -0.229908
    36 0.806023 -0.359831 -1.318334 1.295125 0.286390 -0.680996
    37 1.789783 -0.000002 -0.000004 0.001753 -0.008293 0.100710
    38 1.206999 -0.000001 -0.000004 0.001191 0.000438 0.889443
    39 -6.953420 -23.018496 -7.994402 1.568498 0.006194 3.136873
    40 -0.000002 2.197265 1.738281 0.000000 0.000000 0.000000
    41 -0.000005 3.713594 4.989260 0.000000 0.000000 0.000000
    42 -0.000006 2.774759 -0.359640 -0.036337 0.000000 0.000000
    43 -26.937500 -1.363281 -5.804688 1.570793 -0.000003 -3.141603
  time 17
    0 0.000000 -0.000006 0.000000 -1.570781 -1.391896 -1.570809
    1 -7.515625 8.695313 3.603516 1.596636 -1.286515 2.942963
    2 6.028138 0.000009 0.000002 -0.142842 -0.873934 -2.590095
    3 11.692574 0.000164 -0.000020 -0.000002 0.000001 -0.547336
    4 11.481693 -0.000162 -0.000041 1.826367 -0.487323 0.122974
    5 3.859703 -0.142435 -1.191976 -0.564810 -0.053545 -1.794235
    6 1.312563 -0.000013 0.000005 -0.003759 0.000020 -0.000658
    7 0.729367 -0.000004 -0.000001 0.026991 0.121269 -1.348846
    8 3.942326 0.046736 -0.431444 -0.252522 -0.029733 -1.503843
    9 1.539095 0.000002 -0.000005 -0.095119 0.012610 -0.847833
    10 1.196324 -0.000008 0.000001 -0.095910 0.028627 -1.106498
    11 3.883686 -0.046799 0.431442 -0.048950 -0.007182 -1.334788
    12 1.719578 -0.000015 0.000010 -0.033490 -0.073350 -1.455902
    13 1.209181 -0.000010 0.000004 -0.036852 -0.048077 -0.668933
    14 3.859852 -0.137980 1.332466 0.216126 -0.026857 -1.466872
    15 1.719431 -0.000010 -0.000004 0.084232 -0.193294 -1.428337
    16 1.099672 -0.000008 0.000003 0.049302 -0.091022 -0.702855
    17 0.806038 -0.348935 1.321259 -1.209033 -0.156406 -0.930212
    18 1.789789 0.000002 -0.000006 -0.008908 0.098249 0.400720
    19 1.206999 -0.000001 -0.000006 -0.009407 0.006195 1.228932
    20 0.096130 -0.539063 -8.210938 -1.668474 1.286518 2.942953
    21 6.028134 0.000001 -0.000002 1.167470 0.761279 -1.612633
    22 11.692558 0.000084 0.000007 0.000001 0.000000 -0.982255
    23 11.481697 -0.000003 -0.000004 -1.814745 0.533190 0.020233
    24 3.859673 -0.132545 1.193110 0.456974 0.016490 -1.574868
    25 1.312563 0.000002 0.000000 -0.027178 0.001149 0.001417
    26 0.729364 0.000004 -0.000002 0.000420 0.002741 -1.429423
    27 3.942295 0.050344 0.431044 0.131188 -0.004003 -1.272871
    28 1.539104 0.000011 0.000001 -0.024941 0.014825 -0.944164
    29 1.196321 0.000008 -0.000002 0.000656 -0.007935 -1.149526
    30 3.883659 -0.050301 -0.431042 0.018705 -0.006531 -1.054723
    31 1.719580 -0.000002 0.000006 0.004560 0.014027 -1.323461
    32 1.209187 -0.000008 0.000006 0.001490 -0.003385 -0.843665
    33 3.859833 -0.148917 -1.331282 -0.277276 0.253001 -0.184287
    34 1.719425 -0.000006 0.000010 -0.038781 0.080625 -0.916880
    35 1.099667 0.000011 0.000006 0.006043 0.056922 -0.183642
    36 0.806023 -0.359831 -1.318334 1.295125 0.286390 -0.680996
    37 1.789783 -0.000002 -0.000004 0.001753 -0.008293 0.100710
    38 1.206999 -0.000001 -0.000004 0.001191 0.000438 0.889443
    39 -6.953420 -23.034121 -7.998308 1.571267 0.007055 3.139312
    40 -0.000002 2.197265 1.738281 0.000000 0.000000 0.000000
    41 -0.000005 3.713594 4.989260 0.000000 0.000000 0.000000
    42 -0.000006 2.774759 -0.359640 -0.021536 0.000000 0.000000
    43 -26.937500 -1.363281 -5.804688 1.570793 -0.000003 -3.141603
  time 18
    0 0.000000 -0.000006 0.000000 -1.570781 -1.391896 -1.570809
    1 -7.515625 8.695313 3.603516 1.596636 -1.286515 2.942963
    2 6.028138 0.000009 0.000002 -0.139484 -0.875327 -2.595240
    3 11.692574 0.000164 -0.000020 -0.000002 0.000001 -0.539793
    4 11.481693 -0.000162 -0.000041 1.828307 -0.488539 0.115832
    5 3.859703 -0.142435 -1.191976 -0.564810 -0.053545 -1.794235
    6 1.312563 -0.000013 0.000005 -0.003759 0.000020 -0.000658
    7 0.729367 -0.000004 -0.000001 0.026991 0.121269 -1.348846
    8 3.942326 0.046736 -0.431444 -0.252522 -0.029733 -1.503843
    9 1.539095 0.000002 -0.000005 -0.095119 0.012610 -0.847833
    10 1.196324 -0.000008 0.000001 -0.095910 0.028627 -1.106498
    11 3.883686 -0.046799 0.431442 -0.048950 -0.007182 -1.334788
    12 1.719578 -0.000015 0.000010 -0.033490 -0.073350 -1.455902
    13 1.209181 -0.000010 0.000004 -0.036852 -0.048077 -0.668933
    14 3.859852 -0.137980 1.332466 0.216126 -0.026857 -1.466872
    15 1.719431 -0.000010 -0.000004 0.084232 -0.193294 -1.428337
    16 1.099672 -0.000008 0.000003 0.049302 -0.091022 -0.702855
    17 0.806038 -0.348935 1.321259 -1.209033 -0.156406 -0.930212
    18 1.789789 0.000002 -0.000006 -0.008908 0.098249 0.400720
    19 1.206999 -0.000001 -0.000006 -0.009407 0.006195 1.228958
    20 0.096130 -0.539063 -8.210938 -1.668474 1.286518 2.942953
    21 6.028134 0.000001 -0.000002 1.167816 0.764641 -1.612928
    22 11.692558 0.000084 0.000007 0.000001 0.000000 -0.975612
    23 11.481697 -0.000003 -0.000004 -1.815375 0.529374 0.014560
    24 3.859673 -0.132545 1.193110 0.456974 0.016490 -1.574847
    25 1.312563 0.000002 0.000000 -0.027178 0.001149 0.001417
    26 0.729364 0.000004 -0.000002 0.000420 0.002741 -1.429423
    27 3.942295 0.050344 0.431044 0.131188 -0.004003 -1.272871
    28 1.539104 0.000011 0.000001 -0.024941 0.014825 -0.944164
    29 1.196321 0.000008 -0.000002 0.000656 -0.007935 -1.149526
    30 3.883659 -0.050301 -0.431042 0.018705 -0.006531 -1.054723
    31 1.719580 -0.000002 0.000006 0.004560 0.014027 -1.323461
    32 1.209187 -0.000008 0.000006 0.001490 -0.003385 -0.843665
    33 3.859833 -0.148917 -1.331282 -0.276882 0.251539 -0.178997
    34 1.719425 -0.000006 0.000010 -0.036037 0.077329 -0.895545
    35 1.099667 0.000011 0.000006 -0.002322 0.024216 -0.147918
    36 0.806023 -0.359831 -1.318334 1.295125 0.286390 -0.680996
    37 1.789783 -0.000002 -0.000004 0.001753 -0.008293 0.100710
    38 1.206999 -0.000001 -0.000004 0.001191 0.000438 0.889443
    39 -6.953420 -23.073185 -8.002214 1.573683 0.006260 3.141751
    40 -0.000002 2.197265 1.738281 0.000000 0.000000 0.000000
    41 -0.000005 3.713594 4.989260 0.000000 0.000000 0.000000
    42 -0.000006 2.774759 -0.359640 -0.010055 0.000000 0.000000
    43 -26.937500 -1.363281 -5.804688 1.570793 -0.000003 -3.141603
  time 19
    0 0.000000 -0.000006 0.000000 -1.570781 -1.391896 -1.570809
    1 -7.515625 8.695313 3.603516 1.596636 -1.286515 2.942963
    2 6.028138 0.000009 0.000002 -0.135025 -0.876975 -2.601956
    3 11.692574 0.000164 -0.000020 -0.000002 0.000001 -0.529947
    4 11.481693 -0.000162 -0.000041 1.828617 -0.489604 0.107865
    5 3.859703 -0.142435 -1.191976 -0.564810 -0.053545 -1.794235
    6 1.312563 -0.000013 0.000005 -0.003759 0.000020 -0.000658
    7 0.729367 -0.000004 -0.000001 0.026991 0.121269 -1.348846
    8 3.942326 0.046736 -0.431444 -0.252522 -0.029733 -1.503843
    9 1.539095 0.000002 -0.000005 -0.095119 0.012610 -0.847833
    10 1.196324 -0.000008 0.000001 -0.095910 0.028627 -1.106498
    11 3.883686 -0.046799 0.431442 -0.048950 -0.007182 -1.334788
    12 1.719578 -0.000015 0.000010 -0.033490 -0.073350 -1.455902
    13 1.209181 -0.000010 0.000004 -0.036852 -0.048077 -0.668933
    14 3.859852 -0.137980 1.332466 0.216126 -0.026857 -1.466872
    15 1.719431 -0.000010 -0.000004 0.084232 -0.193294 -1.428337
    16 1.099672 -0.000008 0.000003 0.049302 -0.091022 -0.702855
    17 0.806038 -0.348935 1.321259 -1.209033 -0.156406 -0.930212
    18 1.789789 0.000002 -0.000006 -0.008908 0.098249 0.400720
    19 1.206999 -0.000001 -0.000006 -0.009407 0.006195 1.228932
    20 0.096130 -0.539063 -8.210938 -1.668474 1.286518 2.942953
    21 6.028134 0.000001 -0.000002 1.167903 0.768763 -1.613667
    22 11.692558 0.000084 0.000007 0.000001 0.000000 -0.968063
    23 11.481697 -0.000003 -0.000004 -1.817010 0.525772 0.009367
    24 3.859673 -0.132545 1.193110 0.456974 0.016490 -1.574868
    25 1.312563 0.000002 0.000000 -0.027178 0.001149 0.001417
    26 0.729364 0.000004 -0.000002 0.000420 0.002741 -1.429423
    27 3.942295 0.050344 0.431044 0.131188 -0.004003 -1.272871
    28 1.539104 0.000011 0.000001 -0.024941 0.014825 -0.944164
    29 1.196321 0.000008 -0.000002 0.000656 -0.007935 -1.149526
    30 3.883659 -0.050301 -0.431042 0.018705 -0.006531 -1.054723
    31 1.719580 -0.000002 0.000006 0.004560 0.014027 -1.323461
    32 1.209187 -0.000008 0.000006 0.001490 -0.003385 -0.843665
    33 3.859833 -0.148917 -1.331282 -0.276628 0.250592 -0.175582
    34 1.719425 -0.000006 0.000010 -0.034311 0.075172 -0.881808
    35 1.099667 0.000011 0.000006 -0.008302 0.003397 -0.124851
    36 0.806023 -0.359831 -1.318334 1.295125 0.286390 -0.680996
    37 1.789783 -0.000002 -0.000004 0.001753 -0.008293 0.100710
    38 1.206999 -0.000001 -0.000004 0.001191 0.000438 0.889443
    39 -6.953420 -23.116155 -8.002214 1.575332 0.004273 3.143885
    40 -0.000002 2.197265 1.738281 0.000000 0.000000 0.000000
    41 -0.000005 3.713594 4.989260 0.000000 0.000000 0.000000
    42 -0.000006 2.774759 -0.359640 -0.002637 0.000000 0.000000
    43 -26.937500 -1.363281 -5.804688 1.570793 -0.000003 -3.141603
  time 20
    0 0.000000 -0.000006 0.000000 -1.570781 -1.391896 -1.570809
    1 -7.515625 8.695313 3.603516 1.596636 -1.286515 2.942963
    2 6.028138 0.000009 0.000002 -0.131261 -0.878331 -2.607601
    3 11.692574 0.000164 -0.000020 -0.000002 0.000001 -0.521610
    4 11.481693 -0.000162 -0.000041 1.827531 -0.490554 0.101755
    5 3.859703 -0.142435 -1.191976 -0.564810 -0.053545 -1.794235
    6 1.312563 -0.000013 0.000005 -0.003759 0.000020 -0.000658
    7 0.729367 -0.000004 -0.000001 0.026991 0.121269 -1.348846
    8 3.942326 0.046736 -0.431444 -0.252522 -0.029733 -1.503843
    9 1.539095 0.000002 -0.000005 -0.095119 0.012610 -0.847833
    10 1.196324 -0.000008 0.000001 -0.095910 0.028627 -1.106498
    11 3.883686 -0.046799 0.431442 -0.048950 -0.007182 -1.334788
    12 1.719578 -0.000015 0.000010 -0.033490 -0.073350 -1.455902
    13 1.209181 -0.000010 0.000004 -0.036852 -0.048077 -0.668933
    14 3.859852 -0.137980 1.332466 0.216126 -0.026857 -1.466872
    15 1.719431 -0.000010 -0.000004 0.084232 -0.193294 -1.428337
    16 1.099672 -0.000008 0.000003 0.049302 -0.091022 -0.702855
    17 0.806038 -0.348935 1.321259 -1.209033 -0.156406 -0.930212
    18 1.789789 0.000002 -0.000006 -0.008908 0.098249 0.400720
    19 1.206999 -0.000001 -0.000006 -0.009407 0.006195 1.228932
    20 0.096130 -0.539063 -8.210938 -1.668474 1.286518 2.942953
    21 6.028134 0.000001 -0.000002 1.167816 0.772287 -1.614406
    22 11.692558 0.000084 0.000007 0.000001 0.000000 -0.962110
    23 11.481697 -0.000003 -0.000004 -1.819276 0.523080 0.006012
    24 3.859673 -0.132545 1.193110 0.456974 0.016490 -1.574847
    25 1.312563 0.000002 0.000000 -0.027178 0.001149 0.001417
    26 0.729364 0.000004 -0.000002 0.000420 0.002741 -1.429423
    27 3.942295 0.050344 0.431044 0.131188 -0.004003 -1.272871
    28 1.539104 0.000011 0.000001 -0.024941 0.014825 -0.944164
    29 1.196321 0.000008 -0.000002 0.000656 -0.007935 -1.149526
    30 3.883659 -0.050301 -0.431042 0.018705 -0.006531 -1.054723
    31 1.719580 -0.000002 0.000006 0.004560 0.014027 -1.323461
    32 1.209187 -0.000008 0.000006 0.001490 -0.003385 -0.843665
    33 3.859833 -0.148917 -1.331282 -0.276540 0.250257 -0.174382
    34 1.719425 -0.000006 0.000010 -0.033700 0.074393 -0.876907
    35 1.099667 0.000011 0.000006 -0.010543 -0.003933 -0.116667
    36 0.806023 -0.359831 -1.318334 1.295125 0.286390 -0.680996
    37 1.789783 -0.000002 -0.000004 0.001753 -0.008293 0.100710
    38 1.206999 -0.000001 -0.000004 0.001191 0.000438 0.889443
    39 -6.953420 -23.155218 -8.002214 1.575921 0.001722 3.145409
    40 -0.000002 2.197265 1.738281 0.000000 0.000000 0.000000
    41 -0.000005 3.713594 4.989260 0.000000 0.000000 0.000000
    42 -0.000006 2.774759 -0.359640 0.000000 0.000000 0.000000
    43 -26.937500 -1.363281 -5.804688 1.570793 -0.000003 -3.141603
  time 21
    0 0.000000 -0.000006 0.000000 -1.570781 -1.391896 -1.570809
    1 -7.515625 8.695313 3.603516 1.596636 -1.286515 2.942963
    2 6.028138 0.000009 0.000002 -0.129755 -0.878844 -2.609816
    3 11.692574 0.000164 -0.000020 -0.000002 0.000001 -0.518037
    4 11.481693 -0.000162 -0.000041 1.825514 -0.491315 0.099071
    5 3.859703 -0.142435 -1.191976 -0.564810 -0.053545 -1.794235
    6 1.312563 -0.000013 0.000005 -0.003759 0.000020 -0.000658
    7 0.729367 -0.000004 -0.000001 0.026991 0.121269 -1.348846
    8 3.942326 0.046736 -0.431444 -0.252522 -0.029733 -1.503843
    9 1.539095 0.000002 -0.000005 -0.095119 0.012610 -0.847833
    10 1.196324 -0.000008 0.000001 -0.095910 0.028627 -1.106498
    11 3.883686 -0.046799 0.431442 -0.048950 -0.007182 -1.334788
    12 1.719578 -0.000015 0.000010 -0.033490 -0.073350 -1.455902
    13 1.209181 -0.000010 0.000004 -0.036852 -0.048077 -0.668933
    14 3.859852 -0.137980 1.332466 0.216126 -0.026857 -1.466872
    15 1.719431 -0.000010 -0.000004 0.084232 -0.193294 -1.428337
    16 1.099672 -0.000008 0.000003 0.049302 -0.091022 -0.702855
    17 0.806038 -0.348935 1.321259 -1.209033 -0.156406 -0.930212
    18 1.789789 0.000002 -0.000006 -0.008908 0.098249 0.400720
    19 1.206999 -0.000001 -0.000006 -0.009407 0.006195 1.228932
    20 0.096130 -0.539063 -8.210938 -1.668474 1.286518 2.942953
    21 6.028134 0.000001 -0.000002 1.167730 0.773806 -1.614775
    22 11.692558 0.000084 0.000007 0.000001 0.000000 -0.959867
    23 11.481697 -0.000003 -0.000004 -1.821666 0.521867 0.004973
    24 3.859673 -0.132545 1.193110 0.456974 0.016490 -1.574847
    25 1.312563 0.000002 0.000000 -0.027178 0.001149 0.001417
    26 0.729364 0.000004 -0.000002 0.000420 0.002741 -1.429423
    27 3.942295 0.050344 0.431044 0.131188 -0.004003 -1.272871
    28 1.539104 0.000011 0.000001 -0.024941 0.014825 -0.944164
    29 1.196321 0.000008 -0.000002 0.000656 -0.007935 -1.149526
    30 3.883659 -0.050301 -0.431042 0.018705 -0.006531 -1.054723
    31 1.719580 -0.000002 0.000006 0.004560 0.014027 -1.323461
    32 1.209187 -0.000008 0.000006 0.001490 -0.003385 -0.843665
    33 3.859833 -0.148917 -1.331282 -0.276540 0.250257 -0.174382
    34 1.719425 -0.000006 0.000010 -0.033700 0.074393 -0.876907
    35 1.099667 0.000011 0.000006 -0.010543 -0.003933 -0.116667
    36 0.806023 -0.359831 -1.318334 1.295125 0.286390 -0.680996
    37 1.789783 -0.000002 -0.000004 0.001753 -0.008293 0.100710
    38 1.206999 -0.000001 -0.000004 0.001191 0.000438 0.889443
    39 -6.953420 -23.166938 -8.002214 1.575745 -0.000828 3.145958
    40 -0.000002 2.197265 1.738281 0.000000 0.000000 0.000000
    41 -0.000005 3.713594 4.989260 0.000000 0.000000 0.000000
    42 -0.000006 2.774759 -0.359640 0.000000 0.000000 0.000000
    43 -26.937500 -1.363281 -5.804688 1.570793 -0.000003 -3.141603
  time 22
    0 0.000000 -0.000006 0.000000 -1.570781 -1.391896 -1.570809
    1 -7.515625 8.695313 3.603516 1.596636 -1.286515 2.942963
    2 6.028138 0.000009 0.000002 -0.130161 -0.878697 -2.609173
    3 11.692574 0.000164 -0.000020 -0.000002 0.000001 -0.518513
    4 11.481693 -0.000162 -0.000041 1.823575 -0.491809 0.099071
    5 3.859703 -0.142435 -1.191976 -0.564810 -0.053545 -1.794235
    6 1.312563 -0.000013 0.000005 -0.003759 0.000020 -0.000658
    7 0.729367 -0.000004 -0.000001 0.026991 0.121269 -1.348846
    8 3.942326 0.046736 -0.431444 -0.252522 -0.029733 -1.503843
    9 1.539095 0.000002 -0.000005 -0.095119 0.012610 -0.847833
    10 1.196324 -0.000008 0.000001 -0.095910 0.028627 -1.106498
    11 3.883686 -0.046799 0.431442 -0.048950 -0.007182 -1.334788
    12 1.719578 -0.000015 0.000010 -0.033490 -0.073350 -1.455902
    13 1.209181 -0.000010 0.000004 -0.036852 -0.048077 -0.668933
    14 3.859852 -0.137980 1.332466 0.216126 -0.026857 -1.466872
    15 1.719431 -0.000010 -0.000004 0.084232 -0.193294 -1.428337
    16 1.099672 -0.000008 0.000003 0.049302 -0.091022 -0.702855
    17 0.806038 -0.348935 1.321259 -1.209033 -0.156406 -0.930212
    18 1.789789 0.000002 -0.000006 -0.008908 0.098249 0.400720
    19 1.206999 -0.000001 -0.000006 -0.009407 0.006195 1.228932
    20 0.096130 -0.539063 -8.210938 -1.668474 1.286518 2.942953
    21 6.028134 0.000001 -0.000002 1.167730 0.773589 -1.614701
    22 11.692558 0.000084 0.000007 0.000001 0.000000 -0.960514
    23 11.481697 -0.000003 -0.000004 -1.823743 0.521885 0.005373
    24 3.859673 -0.132545 1.193110 0.456974 0.016490 -1.574847
    25 1.312563 0.000002 0.000000 -0.027178 0.001149 0.001417
    26 0.729364 0.000004 -0.000002 0.000420 0.002741 -1.429423
    27 3.942295 0.050344 0.431044 0.131188 -0.004003 -1.272871
    28 1.539104 0.000011 0.000001 -0.024941 0.014825 -0.944164
    29 1.196321 0.000008 -0.000002 0.000656 -0.007935 -1.149526
    30 3.883659 -0.050301 -0.431042 0.018705 -0.006531 -1.054723
    31 1.719580 -0.000002 0.000006 0.004560 0.014027 -1.323461
    32 1.209187 -0.000008 0.000006 0.001490 -0.003385 -0.843665
    33 3.859833 -0.148917 -1.331282 -0.276540 0.250257 -0.174382
    34 1.719425 -0.000006 0.000010 -0.033700 0.074393 -0.876907
    35 1.099667 0.000011 0.000006 -0.010543 -0.003933 -0.116667
    36 0.806023 -0.359831 -1.318334 1.295125 0.286390 -0.680996
    37 1.789783 -0.000002 -0.000004 0.001753 -0.008293 0.100710
    38 1.206999 -0.000001 -0.000004 0.001191 0.000438 0.889443
    39 -6.953420 -23.166938 -8.002214 1.575391 -0.002816 3.145836
    40 -0.000002 2.197265 1.738281 0.000000 0.000000 0.000000
    41 -0.000005 3.713594 4.989260 0.000000 0.000000 0.000000
    42 -0.000006 2.774759 -0.359640 0.000000 0.000000 0.000000
    43 -26.937500 -1.363281 -5.804688 1.570793 -0.000003 -3.141603
  time 23
    0 0.000000 -0.000006 0.000000 -1.570781 -1.391896 -1.570809
    1 -7.515625 8.695313 3.603516 1.596636 -1.286515 2.942963
    2 6.028138 0.000009 0.000002 -0.130914 -0.878441 -2.608030
    3 11.692574 0.000164 -0.000020 -0.000002 0.000001 -0.519863
    4 11.481693 -0.000162 -0.000041 1.822334 -0.491885 0.100186
    5 3.859703 -0.142435 -1.191976 -0.564810 -0.053545 -1.794235
    6 1.312563 -0.000013 0.000005 -0.003759 0.000020 -0.000658
    7 0.729367 -0.000004 -0.000001 0.026991 0.121269 -1.348846
    8 3.942326 0.046736 -0.431444 -0.252522 -0.029733 -1.503843
    9 1.539095 0.000002 -0.000005 -0.095119 0.012610 -0.847833
    10 1.196324 -0.000008 0.000001 -0.095910 0.028627 -1.106498
    11 3.883686 -0.046799 0.431442 -0.048950 -0.007182 -1.334788
    12 1.719578 -0.000015 0.000010 -0.033490 -0.073350 -1.455902
    13 1.209181 -0.000010 0.000004 -0.036852 -0.048077 -0.668933
    14 3.859852 -0.137980 1.332466 0.216126 -0.026857 -1.466872
    15 1.719431 -0.000010 -0.000004 0.084232 -0.193294 -1.428337
    16 1.099672 -0.000008 0.000003 0.049302 -0.091022 -0.702855
    17 0.806038 -0.348935 1.321259 -1.209033 -0.156406 -0.930212
    18 1.789789 0.000002 -0.000006 -0.008908 0.098249 0.400720
    19 1.206999 -0.000001 -0.000006 -0.009407 0.006195 1.228932
    20 0.096130 -0.539063 -8.210938 -1.668474 1.286518 2.942953
    21 6.028134 0.000001 -0.000002 1.167730 0.773019 -1.614627
    22 11.692558 0.000084 0.000007 0.000001 0.000000 -0.961765
    23 11.481697 -0.000003 -0.000004 -1.824624 0.522420 0.006411
    24 3.859673 -0.132545 1.193110 0.456974 0.016490 -1.574847
    25 1.312563 0.000002 0.000000 -0.027178 0.001149 0.001417
    26 0.729364 0.000004 -0.000002 0.000420 0.002741 -1.429423
    27 3.942295 0.050344 0.431044 0.131188 -0.004003 -1.272871
    28 1.539104 0.000011 0.000001 -0.024941 0.014825 -0.944164
    29 1.196321 0.000008 -0.000002 0.000656 -0.007935 -1.149526
    30 3.883659 -0.050301 -0.431042 0.018705 -0.006531 -1.054723
    31 1.719580 -0.000002 0.000006 0.004560 0.014027 -1.323461
    32 1.209187 -0.000008 0.000006 0.001490 -0.003385 -0.843665
    33 3.859833 -0.148917 -1.331282 -0.276540 0.250257 -0.174382
    34 1.719425 -0.000006 0.000010 -0.033700 0.074393 -0.876907
    35 1.099667 0.000011 0.000006 -0.010543 -0.003933 -0.116667
    36 0.806023 -0.359831 -1.318334 1.295125 0.286390 -0.680996
    37 1.789783 -0.000002 -0.000004 0.001753 -0.008293 0.100710
    38 1.206999 -0.000001 -0.000004 0.001191 0.000438 0.889443
    39 -6.953420 -23.159125 -8.002214 1.574802 -0.003577 3.145409
    40 -0.000002 2.197265 1.738281 0.000000 0.000000 0.000000
    41 -0.000005 3.713594 4.989260 0.000000 0.000000 0.000000
    42 -0.000006 2.774759 -0.359640 0.000000 0.000000 0.000000
    43 -26.937500 -1.363281 -5.804688 1.570793 -0.000003 -3.141603
  time 24
    0 0.000000 -0.000006 0.000000 -1.570781 -1.391896 -1.570809
    1 -7.515625 8.695313 3.603516 1.596636 -1.286515 2.942963
    2 6.028138 0.000009 0.000002 -0.131898 -0.878074 -2.606601
    3 11.692574 0.000164 -0.000020 -0.000002 0.000001 -0.521848
    4 11.481693 -0.000162 -0.000041 1.821791 -0.491619 0.102085
    5 3.859703 -0.142435 -1.191976 -0.564810 -0.053545 -1.794235
    6 1.312563 -0.000013 0.000005 -0.003759 0.000020 -0.000658
    7 0.729367 -0.000004 -0.000001 0.026991 0.121269 -1.348846
    8 3.942326 0.046736 -0.431444 -0.252522 -0.029733 -1.503843
    9 1.539095 0.000002 -0.000005 -0.095119 0.012610 -0.847833
    10 1.196324 -0.000008 0.000001 -0.095910 0.028627 -1.106498
    11 3.883686 -0.046799 0.431442 -0.048950 -0.007182 -1.334788
    12 1.719578 -0.000015 0.000010 -0.033490 -0.073350 -1.455902
    13 1.209181 -0.000010 0.000004 -0.036852 -0.048077 -0.668933
    14 3.859852 -0.137980 1.332466 0.216126 -0.026857 -1.466872
    15 1.719431 -0.000010 -0.000004 0.084232 -0.193294 -1.428337
    16 1.099672 -0.000008 0.000003 0.049302 -0.091022 -0.702855
    17 0.806038 -0.348935 1.321259 -1.209033 -0.156406 -0.930212
    18 1.789789 0.000002 -0.000006 -0.008908 0.098249 0.400720
    19 1.206999 -0.000001 -0.000006 -0.009407 0.006195 1.228932
    20 0.096130 -0.539063 -8.210938 -1.668474 1.286518 2.942953
    21 6.028134 0.000001 -0.000002 1.167643 0.772152 -1.614553
    22 11.692558 0.000084 0.000007 0.000001 0.000000 -0.963447
    23 11.481697 -0.000003 -0.000004 -1.824435 0.523365 0.007929
    24 3.859673 -0.132545 1.193110 0.456974 0.016490 -1.574847
    25 1.312563 0.000002 0.000000 -0.027178 0.001149 0.001417
    26 0.729364 0.000004 -0.000002 0.000420 0.002741 -1.429423
    27 3.942295 0.050344 0.431044 0.131188 -0.004003 -1.272871
    28 1.539104 0.000011 0.000001 -0.024941 0.014825 -0.944164
    29 1.196321 0.000008 -0.000002 0.000656 -0.007935 -1.149526
    30 3.883659 -0.050301 -0.431042 0.018705 -0.006531 -1.054723
    31 1.719580 -0.000002 0.000006 0.004560 0.014027 -1.323461
    32 1.209187 -0.000008 0.000006 0.001490 -0.003385 -0.843665
    33 3.859833 -0.148917 -1.331282 -0.276540 0.250257 -0.174382
    34 1.719425 -0.000006 0.000010 -0.033700 0.074393 -0.876907
    35 1.099667 0.000011 0.000006 -0.010543 -0.003933 -0.116667
    36 0.806023 -0.359831 -1.318334 1.295125 0.286390 -0.680996
    37 1.789783 -0.000002 -0.000004 0.001753 -0.008293 0.100710
    38 1.206999 -0.000001 -0.000004 0.001191 0.000438 0.889443
    39 -6.953420 -23.151312 -8.002214 1.574095 -0.003379 3.144861
    40 -0.000002 2.197265 1.738281 0.000000 0.000000 0.000000
    41 -0.000005 3.713594 4.989260 0.000000 0.000000 0.000000
    42 -0.000006 2.774759 -0.359640 0.000000 0.000000 0.000000
    43 -26.937500 -1.363281 -5.804688 1.570793 -0.000003 -3.141603
  time 25
    0 0.000000 -0.000006 0.000000 -1.570781 -1.391896 -1.570809
    1 -7.515625 8.695313 3.603516 1.596636 -1.286515 2.942963
    2 6.028138 0.000009 0.000002 -0.132998 -0.877671 -2.604957
    3 11.692574 0.000164 -0.000020 -0.000002 0.000001 -0.524230
    4 11.481693 -0.000162 -0.000041 1.821403 -0.491201 0.104397
    5 3.859703 -0.142435 -1.191976 -0.564810 -0.053545 -1.794235
    6 1.312563 -0.000013 0.000005 -0.003759 0.000020 -0.000658
    7 0.729367 -0.000004 -0.000001 0.026991 0.121269 -1.348846
    8 3.942326 0.046736 -0.431444 -0.252522 -0.029733 -1.503843
    9 1.539095 0.000002 -0.000005 -0.095119 0.012610 -0.847833
    10 1.196324 -0.000008 0.000001 -0.095910 0.028627 -1.106498
    11 3.883686 -0.046799 0.431442 -0.048950 -0.007182 -1.334788
    12 1.719578 -0.000015 0.000010 -0.033490 -0.073350 -1.455902
    13 1.209181 -0.000010 0.000004 -0.036852 -0.048077 -0.668933
    14 3.859852 -0.137980 1.332466 0.216126 -0.026857 -1.466872
    15 1.719431 -0.000010 -0.000004 0.084232 -0.193294 -1.428337
    16 1.099672 -0.000008 0.000003 0.049302 -0.091022 -0.702855
    17 0.806038 -0.348935 1.321259 -1.209033 -0.156406 -0.930212
    18 1.789789 0.000002 -0.000006 -0.008908 0.098249 0.400720
    19 1.206999 -0.000001 -0.000006 -0.009407 0.006195 1.228932
    20 0.096130 -0.539063 -8.210938 -1.668474 1.286518 2.942953
    21 6.028134 0.000001 -0.000002 1.167557 0.771149 -1.614406
    22 11.692558 0.000084 0.000007 0.000001 0.000000 -0.965345
    23 11.481697 -0.000003 -0.000004 -1.823931 0.524506 0.009647
    24 3.859673 -0.132545 1.193110 0.456974 0.016490 -1.574868
    25 1.312563 0.000002 0.000000 -0.027178 0.001149 0.001417
    26 0.729364 0.000004 -0.000002 0.000420 0.002741 -1.429423
    27 3.942295 0.050344 0.431044 0.131188 -0.004003 -1.272871
    28 1.539104 0.000011 0.000001 -0.024941 0.014825 -0.944164
    29 1.196321 0.000008 -0.000002 0.000656 -0.007935 -1.149526
    30 3.883659 -0.050301 -0.431042 0.018705 -0.006531 -1.054723
    31 1.719580 -0.000002 0.000006 0.004560 0.014027 -1.323461
    32 1.209187 -0.000008 0.000006 0.001490 -0.003385 -0.843665
    33 3.859833 -0.148917 -1.331282 -0.276540 0.250257 -0.174382
    34 1.719425 -0.000006 0.000010 -0.033700 0.074393 -0.876907
    35 1.099667 0.000011 0.000006 -0.010543 -0.003933 -0.116667
    36 0.806023 -0.359831 -1.318334 1.295125 0.286390 -0.680996
    37 1.789783 -0.000002 -0.000004 0.001753 -0.008293 0.100710
    38 1.206999 -0.000001 -0.000004 0.001191 0.000438 0.889443
    39 -6.953420 -23.139593 -8.002214 1.573329 -0.002882 3.144129
    40 -0.000002 2.197265 1.738281 0.000000 0.000000 0.000000
    41 -0.000005 3.713594 4.989260 0.000000 0.000000 0.000000
    42 -0.000006 2.774759 -0.359640 0.000000 0.000000 0.000000
    43 -26.937500 -1.363281 -5.804688 1.570793 -0.000003 -3.141603
  time 26
    0 0.000000 -0.000006 0.000000 -1.570781 -1.391896 -1.570809
    1 -7.515625 8.695313 3.603516 1.596636 -1.286515 2.942963
    2 6.028138 0.000009 0.000002 -0.134156 -0.877232 -2.603242
    3 11.692574 0.000164 -0.000020 -0.000002 0.000001 -0.526692
    4 11.481693 -0.000162 -0.000041 1.821170 -0.490744 0.106791
    5 3.859703 -0.142435 -1.191976 -0.564810 -0.053545 -1.794235
    6 1.312563 -0.000013 0.000005 -0.003759 0.000020 -0.000658
    7 0.729367 -0.000004 -0.000001 0.026991 0.121269 -1.348846
    8 3.942326 0.046736 -0.431444 -0.252522 -0.029733 -1.503843
    9 1.539095 0.000002 -0.000005 -0.095119 0.012610 -0.847833
    10 1.196324 -0.000008 0.000001 -0.095910 0.028627 -1.106498
    11 3.883686 -0.046799 0.431442 -0.048950 -0.007182 -1.334788
    12 1.719578 -0.000015 0.000010 -0.033490 -0.073350 -1.455902
    13 1.209181 -0.000010 0.000004 -0.036852 -0.048077 -0.668933
    14 3.859852 -0.137980 1.332466 0.216126 -0.026857 -1.466872
    15 1.719431 -0.000010 -0.000004 0.084232 -0.193294 -1.428337
    16 1.099672 -0.000008 0.000003 0.049302 -0.091022 -0.702855
    17 0.806038 -0.348935 1.321259 -1.209033 -0.156406 -0.930212
    18 1.789789 0.000002 -0.000006 -0.008908 0.098249 0.400720
    19 1.206999 -0.000001 -0.000006 -0.009407 0.006195 1.228932
    20 0.096130 -0.539063 -8.210938 -1.668474 1.286518 2.942953
    21 6.028134 0.000001 -0.000002 1.167470 0.770064 -1.614332
    22 11.692558 0.000084 0.000007 0.000001 0.000000 -0.967373
    23 11.481697 -0.000003 -0.000004 -1.823239 0.525737 0.011445
    24 3.859673 -0.132545 1.193110 0.456974 0.016490 -1.574847
    25 1.312563 0.000002 0.000000 -0.027178 0.001149 0.001417
    26 0.729364 0.000004 -0.000002 0.000420 0.002741 -1.429423
    27 3.942295 0.050344 0.431044 0.131188 -0.004003 -1.272871
    28 1.539104 0.000011 0.000001 -0.024941 0.014825 -0.944164
    29 1.196321 0.000008 -0.000002 0.000656 -0.007935 -1.149526
    30 3.883659 -0.050301 -0.431042 0.018705 -0.006531 -1.054723
    31 1.719580 -0.000002 0.000006 0.004560 0.014027 -1.323461
    32 1.209187 -0.000008 0.000006 0.001490 -0.003385 -0.843665
    33 3.859833 -0.148917 -1.331282 -0.276540 0.250257 -0.174382
    34 1.719425 -0.000006 0.000010 -0.033700 0.074393 -0.876907
    35 1.099667 0.000011 0.000006 -0.010543 -0.003933 -0.116667
    36 0.806023 -0.359831 -1.318334 1.295125 0.286390 -0.680996
    37 1.789783 -0.000002 -0.000004 0.001753 -0.008293 0.100710
    38 1.206999 -0.000001 -0.000004 0.001191 0.000438 0.889443
    39 -6.953420 -23.127874 -8.002214 1.572563 -0.002186 3.143397
    40 -0.000002 2.197265 1.738281 0.000000 0.000000 0.000000
    41 -0.000005 3.713594 4.989260 0.000000 0.000000 0.000000
    42 -0.000006 2.774759 -0.359640 0.000000 0.000000 0.000000
    43 -26.937500 -1.363281 -5.804688 1.570793 -0.000003 -3.141603
  time 27
    0 0.000000 -0.000006 0.000000 -1.570781 -1.391896 -1.570809
    1 -7.515625 8.695313 3.603516 1.596636 -1.286515 2.942963
    2 6.028138 0.000009 0.000002 -0.135256 -0.876865 -2.601599
    3 11.692574 0.000164 -0.000020 -0.000002 0.000001 -0.528994
    4 11.481693 -0.000162 -0.000041 1.821093 -0.490288 0.109103
    5 3.859703 -0.142435 -1.191976 -0.564810 -0.053545 -1.794235
    6 1.312563 -0.000013 0.000005 -0.003759 0.000020 -0.000658
    7 0.729367 -0.000004 -0.000001 0.026991 0.121269 -1.348846
    8 3.942326 0.046736 -0.431444 -0.252522 -0.029733 -1.503843
    9 1.539095 0.000002 -0.000005 -0.095119 0.012610 -0.847833
    10 1.196324 -0.000008 0.000001 -0.095910 0.028627 -1.106498
    11 3.883686 -0.046799 0.431442 -0.048950 -0.007182 -1.334788
    12 1.719578 -0.000015 0.000010 -0.033490 -0.073350 -1.455902
    13 1.209181 -0.000010 0.000004 -0.036852 -0.048077 -0.668933
    14 3.859852 -0.137980 1.332466 0.216126 -0.026857 -1.466872
    15 1.719431 -0.000010 -0.000004 0.084232 -0.193294 -1.428337
    16 1.099672 -0.000008 0.000003 0.049302 -0.091022 -0.702855
    17 0.806038 -0.348935 1.321259 -1.209033 -0.156406 -0.930212
    18 1.789789 0.000002 -0.000006 -0.008908 0.098249 0.400720
    19 1.206999 -0.000001 -0.000006 -0.009407 0.006195 1.228932
    20 0.096130 -0.539063 -8.210938 -1.668474 1.286518 2.942953
    21 6.028134 0.000001 -0.000002 1.167384 0.769061 -1.614184
    22 11.692558 0.000084 0.000007 0.000001 0.000000 -0.969228
    23 11.481697 -0.000003 -0.000004 -1.822484 0.526896 0.013122
    24 3.859673 -0.132545 1.193110 0.456974 0.016490 -1.574868
    25 1.312563 0.000002 0.000000 -0.027178 0.001149 0.001417
    26 0.729364 0.000004 -0.000002 0.000420 0.002741 -1.429423
    27 3.942295 0.050344 0.431044 0.131188 -0.004003 -1.272871
    28 1.539104 0.000011 0.000001 -0.024941 0.014825 -0.944164
    29 1.196321 0.000008 -0.000002 0.000656 -0.007935 -1.149526
    30 3.883659 -0.050301 -0.431042 0.018705 -0.006531 -1.054723
    31 1.719580 -0.000002 0.000006 0.004560 0.014027 -1.323461
    32 1.209187 -0.000008 0.000006 0.001490 -0.003385 -0.843665
    33 3.859833 -0.148917 -1.331282 -0.276540 0.250257 -0.174382
    34 1.719425 -0.000006 0.000010 -0.033700 0.074393 -0.876907
    35 1.099667 0.000011 0.000006 -0.010543 -0.003933 -0.116667
    36 0.806023 -0.359831 -1.318334 1.295125 0.286390 -0.680996
    37 1.789783 -0.000002 -0.000004 0.001753 -0.008293 0.100710
    38 1.206999 -0.000001 -0.000004 0.001191 0.000438 0.889443
    39 -6.953420 -23.120061 -8.002214 1.571856 -0.001391 3.142726
    40 -0.000002 2.197265 1.738281 0.000000 0.000000 0.000000
    41 -0.000005 3.713594 4.989260 0.000000 0.000000 0.000000
    42 -0.000006 2.774759 -0.359640 0.000000 0.000000 0.000000
    43 -26.937500 -1.363281 -5.804688 1.570793 -0.000003 -3.141603
  time 28
    0 0.000000 -0.000006 0.000000 -1.570781 -1.391896 -1.570809
    1 -7.515625 8.695313 3.603516 1.596636 -1.286515 2.942963
    2 6.028138 0.000009 0.000002 -0.136125 -0.876499 -2.600241
    3 11.692574 0.000164 -0.000020 -0.000002 0.000001 -0.530979
    4 11.481693 -0.000162 -0.000041 1.821015 -0.489870 0.111043
    5 3.859703 -0.142435 -1.191976 -0.564810 -0.053545 -1.794235
    6 1.312563 -0.000013 0.000005 -0.003759 0.000020 -0.000658
    7 0.729367 -0.000004 -0.000001 0.026991 0.121269 -1.348846
    8 3.942326 0.046736 -0.431444 -0.252522 -0.029733 -1.503843
    9 1.539095 0.000002 -0.000005 -0.095119 0.012610 -0.847833
    10 1.196324 -0.000008 0.000001 -0.095910 0.028627 -1.106498
    11 3.883686 -0.046799 0.431442 -0.048950 -0.007182 -1.334788
    12 1.719578 -0.000015 0.000010 -0.033490 -0.073350 -1.455902
    13 1.209181 -0.000010 0.000004 -0.036852 -0.048077 -0.668933
    14 3.859852 -0.137980 1.332466 0.216126 -0.026857 -1.466872
    15 1.719431 -0.000010 -0.000004 0.084232 -0.193294 -1.428337
    16 1.099672 -0.000008 0.000003 0.049302 -0.091022 -0.702855
    17 0.806038 -0.348935 1.321259 -1.209033 -0.156406 -0.930212
    18 1.789789 0.000002 -0.000006 -0.008908 0.098249 0.400720
    19 1.206999 -0.000001 -0.000006 -0.009407 0.006195 1.228932
    20 0.096130 -0.539063 -8.210938 -1.668474 1.286518 2.942953
    21 6.028134 0.000001 -0.000002 1.167297 0.768193 -1.614110
    22 11.692558 0.000084 0.000007 0.000001 0.000000 -0.970824
    23 11.481697 -0.000003 -0.000004 -1.821792 0.527894 0.014560
    24 3.859673 -0.132545 1.193110 0.456974 0.016490 -1.574847
    25 1.312563 0.000002 0.000000 -0.027178 0.001149 0.001417
    26 0.729364 0.000004 -0.000002 0.000420 0.002741 -1.429423
    27 3.942295 0.050344 0.431044 0.131188 -0.004003 -1.272871
    28 1.539104 0.000011 0.000001 -0.024941 0.014825 -0.944164
    29 1.196321 0.000008 -0.000002 0.000656 -0.007935 -1.149526
    30 3.883659 -0.050301 -0.431042 0.018705 -0.006531 -1.054723
    31 1.719580 -0.000002 0.000006 0.004560 0.014027 -1.323461
    32 1.209187 -0.000008 0.000006 0.001490 -0.003385 -0.843665
    33 3.859833 -0.148917 -1.331282 -0.276540 0.250257 -0.174382
    34 1.719425 -0.000006 0.000010 -0.033700 0.074393 -0.876907
    35 1.099667 0.000011 0.000006 -0.010543 -0.003933 -0.116667
    36 0.806023 -0.359831 -1.318334 1.295125 0.286390 -0.680996
    37 1.789783 -0.000002 -0.000004 0.001753 -0.008293 0.100710
    38 1.206999 -0.000001 -0.000004 0.001191 0.000438 0.889443
    39 -6.953420 -23.108342 -8.002214 1.571326 -0.000696 3.142117
    40 -0.000002 2.197265 1.738281 0.000000 0.000000 0.000000
    41 -0.000005 3.713594 4.989260 0.000000 0.000000 0.000000
    42 -0.000006 2.774759 -0.359640 0.000000 0.000000 0.000000
    43 -26.937500 -1.363281 -5.804688 1.570793 -0.000003 -3.141603
  time 29
    0 0.000000 -0.000006 0.000000 -1.570781 -1.391896 -1.570809
    1 -7.515625 8.695313 3.603516 1.596636 -1.286515 2.942963
    2 6.028138 0.000009 0.000002 -0.136936 -0.876279 -2.599098
    3 11.692574 0.000164 -0.000020 -0.000002 0.000001 -0.532568
    4 11.481693 -0.000162 -0.000041 1.821015 -0.489566 0.112488
    5 3.859703 -0.142435 -1.191976 -0.564810 -0.053545 -1.794235
    6 1.312563 -0.000013 0.000005 -0.003759 0.000020 -0.000658
    7 0.729367 -0.000004 -0.000001 0.026991 0.121269 -1.348846
    8 3.942326 0.046736 -0.431444 -0.252522 -0.029733 -1.503843
    9 1.539095 0.000002 -0.000005 -0.095119 0.012610 -0.847833
    10 1.196324 -0.000008 0.000001 -0.095910 0.028627 -1.106498
    11 3.883686 -0.046799 0.431442 -0.048950 -0.007182 -1.334788
    12 1.719578 -0.000015 0.000010 -0.033490 -0.073350 -1.455902
    13 1.209181 -0.000010 0.000004 -0.036852 -0.048077 -0.668933
    14 3.859852 -0.137980 1.332466 0.216126 -0.026857 -1.466872
    15 1.719431 -0.000010 -0.000004 0.084232 -0.193294 -1.428337
    16 1.099672 -0.000008 0.000003 0.049302 -0.091022 -0.702855
    17 0.806038 -0.348935 1.321259 -1.209033 -0.156406 -0.930212
    18 1.789789 0.000002 -0.000006 -0.008908 0.098249 0.400720
    19 1.206999 -0.000001 -0.000006 -0.009407 0.006195 1.228932
    20 0.096130 -0.539063 -8.210938 -1.668474 1.286518 2.942953
    21 6.028134 0.000001 -0.000002 1.167297 0.767624 -1.614036
    22 11.692558 0.000084 0.000007 0.000001 0.000000 -0.971902
    23 11.481697 -0.000003 -0.000004 -1.821226 0.528572 0.015519
    24 3.859673 -0.132545 1.193110 0.456974 0.016490 -1.574847
    25 1.312563 0.000002 0.000000 -0.027178 0.001149 0.001417
    26 0.729364 0.000004 -0.000002 0.000420 0.002741 -1.429423
    27 3.942295 0.050344 0.431044 0.131188 -0.004003 -1.272871
    28 1.539104 0.000011 0.000001 -0.024941 0.014825 -0.944164
    29 1.196321 0.000008 -0.000002 0.000656 -0.007935 -1.149526
    30 3.883659 -0.050301 -0.431042 0.018705 -0.006531 -1.054723
    31 1.719580 -0.000002 0.000006 0.004560 0.014027 -1.323461
    32 1.209187 -0.000008 0.000006 0.001490 -0.003385 -0.843665
    33 3.859833 -0.148917 -1.331282 -0.276540 0.250257 -0.174382
    34 1.719425 -0.000006 0.000010 -0.033700 0.074393 -0.876907
    35 1.099667 0.000011 0.000006 -0.010543 -0.003933 -0.116667
    36 0.806023 -0.359831 -1.318334 1.295125 0.286390 -0.680996
    37 1.789783 -0.000002 -0.000004 0.001753 -0.008293 0.100710
    38 1.206999 -0.000001 -0.000004 0.001191 0.000438 0.889443
    39 -6.953420 -23.104436 -8.002214 1.570914 -0.000199 3.141690
    40 -0.000002 2.197265 1.738281 0.000000 0.000000 0.000000
    41 -0.000005 3.713594 4.989260 0.000000 0.000000 0.000000
    42 -0.000006 2.774759 -0.359640 0.000000 0.000000 0.000000
    43 -26.937500 -1.363281 -5.804688 1.570793 -0.000003 -3.141603
  time 30
    0 0.000000 -0.000006 0.000000 -1.570781 -1.391896 -1.570809
    1 -7.515625 8.695313 3.603516 1.596636 -1.286515 2.942963
    2 6.028138 0.000009 0.000002 -0.137109 -0.876169 -2.598812
    3 11.692574 0.000164 -0.000020 -0.000002 0.000001 -0.533044
    4 11.481693 -0.000162 -0.000041 1.821015 -0.489452 0.113025
    5 3.859703 -0.142435 -1.191976 -0.564810 -0.053545 -1.794235
    6 1.312563 -0.000013 0.000005 -0.003759 0.000020 -0.000658
    7 0.729367 -0.000004 -0.000001 0.026991 0.121269 -1.348846
    8 3.942326 0.046736 -0.431444 -0.252522 -0.029733 -1.503843
    9 1.539095 0.000002 -0.000005 -0.095119 0.012610 -0.847833
    10 1.196324 -0.000008 0.000001 -0.095910 0.028627 -1.106498
    11 3.883686 -0.046799 0.431442 -0.048950 -0.007182 -1.334788
    12 1.719578 -0.000015 0.000010 -0.033490 -0.073350 -1.455902
    13 1.209181 -0.000010 0.000004 -0.036852 -0.048077 -0.668933
    14 3.859852 -0.137980 1.332466 0.216126 -0.026857 -1.466872
    15 1.719431 -0.000010 -0.000004 0.084232 -0.193294 -1.428337
    16 1.099672 -0.000008 0.000003 0.049302 -0.091022 -0.702855
    17 0.806038 -0.348935 1.321259 -1.209033 -0.156406 -0.930212
    18 1.789789 0.000002 -0.000006 -0.008908 0.098249 0.400720
    19 1.206999 -0.000001 -0.000006 -0.009407 0.006195 1.228932
    20 0.096130 -0.539063 -8.210938 -1.668474 1.286518 2.942953
    21 6.028134 0.000001 -0.000002 1.167210 0.767407 -1.614036
    22 11.692558 0.000084 0.000007 0.000001 0.000000 -0.972290
    23 11.481697 -0.000003 -0.000004 -1.821037 0.528821 0.015879
    24 3.859673 -0.132545 1.193110 0.456974 0.016490 -1.574847
    25 1.312563 0.000002 0.000000 -0.027178 0.001149 0.001417
    26 0.729364 0.000004 -0.000002 0.000420 0.002741 -1.429423
    27 3.942295 0.050344 0.431044 0.131188 -0.004003 -1.272871
    28 1.539104 0.000011 0.000001 -0.024941 0.014825 -0.944164
    29 1.196321 0.000008 -0.000002 0.000656 -0.007935 -1.149526
    30 3.883659 -0.050301 -0.431042 0.018705 -0.006531 -1.054723
    31 1.719580 -0.000002 0.000006 0.004560 0.014027 -1.323461
    32 1.209187 -0.000008 0.000006 0.001490 -0.003385 -0.843665
    33 3.859833 -0.148917 -1.331282 -0.276540 0.250257 -0.174382
    34 1.719425 -0.000006 0.000010 -0.033700 0.074393 -0.876907
    35 1.099667 0.000011 0.000006 -0.010543 -0.003933 -0.116667
    36 0.806023 -0.359831 -1.318334 1.295125 0.286390 -0.680996
    37 1.789783 -0.000002 -0.000004 0.001753 -0.008293 0.100710
    38 1.206999 -0.000001 -0.000004 0.001191 0.000438 0.889443
    39 -6.953420 -23.100529 -8.002214 1.570796 0.000000 3.141568
    40 -0.000002 2.197265 1.738281 0.000000 0.000000 0.000000
    41 -0.000005 3.713594 4.989260 0.000000 0.000000 0.000000
    42 -0.000006 2.774759 -0.359640 0.000000 0.000000 0.000000
    43 -26.937500 -1.363281 -5.804688 1.570793 -0.000003 -3.141603
end
