// Created by Crowbar++ 0.74
version 1
nodes
  0 "ValveBiped.Bip01_Spine4" -1
  1 "ValveBiped.Bip01_L_Clavicle" 0
  2 "ValveBiped.Bip01_L_UpperArm" 1
  3 "ValveBiped.Bip01_L_Forearm" 2
  4 "ValveBiped.Bip01_L_Hand" 3
  5 "ValveBiped.Bip01_L_Finger4" 4
  6 "ValveBiped.Bip01_L_Finger41" 5
  7 "ValveBiped.Bip01_L_Finger42" 6
  8 "ValveBiped.Bip01_L_Finger3" 4
  9 "ValveBiped.Bip01_L_Finger31" 8
  10 "ValveBiped.Bip01_L_Finger32" 9
  11 "ValveBiped.Bip01_L_Finger2" 4
  12 "ValveBiped.Bip01_L_Finger21" 11
  13 "ValveBiped.Bip01_L_Finger22" 12
  14 "ValveBiped.Bip01_L_Finger1" 4
  15 "ValveBiped.Bip01_L_Finger11" 14
  16 "ValveBiped.Bip01_L_Finger12" 15
  17 "ValveBiped.Bip01_L_Finger0" 4
  18 "ValveBiped.Bip01_L_Finger01" 17
  19 "ValveBiped.Bip01_L_Finger02" 18
  20 "ValveBiped.Bip01_R_Clavicle" 0
  21 "ValveBiped.Bip01_R_UpperArm" 20
  22 "ValveBiped.Bip01_R_Forearm" 21
  23 "ValveBiped.Bip01_R_Hand" 22
  24 "ValveBiped.Bip01_R_Finger4" 23
  25 "ValveBiped.Bip01_R_Finger41" 24
  26 "ValveBiped.Bip01_R_Finger42" 25
  27 "ValveBiped.Bip01_R_Finger3" 23
  28 "ValveBiped.Bip01_R_Finger31" 27
  29 "ValveBiped.Bip01_R_Finger32" 28
  30 "ValveBiped.Bip01_R_Finger2" 23
  31 "ValveBiped.Bip01_R_Finger21" 30
  32 "ValveBiped.Bip01_R_Finger22" 31
  33 "ValveBiped.Bip01_R_Finger1" 23
  34 "ValveBiped.Bip01_R_Finger11" 33
  35 "ValveBiped.Bip01_R_Finger12" 34
  36 "ValveBiped.Bip01_R_Finger0" 23
  37 "ValveBiped.Bip01_R_Finger01" 36
  38 "ValveBiped.Bip01_R_Finger02" 37
  39 "v_weapon.galil" -1
  40 "v_weapon.trigger" 39
  41 "v_weapon.latch" 39
  42 "v_weapon.magazine" 39
  43 "v_weapon.handle" 39
  44 "v_weapon.bolt" 39
  45 "cap" -1
  46 "bottle" -1
end
skeleton
  time 0
    0 0.496109 -3.351671 -9.344035 -1.570797 -1.130120 -1.570843
    1 2.033348 1.000767 1.937660 3.099089 -0.161983 1.680098
    2 6.028139 0.000008 0.000002 -2.692495 -0.499377 -0.068980
    3 11.692572 0.000164 -0.000016 -0.000094 0.000432 -0.531457
    4 11.481691 -0.000080 -0.000043 -0.412255 0.577735 0.155243
    5 2.914366 -0.033031 -1.399014 -0.166795 0.023964 -1.690693
    6 1.284180 0.000004 -0.000002 -0.002342 0.009091 0.011495
    7 0.842285 -0.000004 0.000000 0.000507 -0.002524 -0.273496
    8 3.368093 0.003793 -0.618950 -0.024851 0.032394 -1.318261
    9 1.609375 -0.000002 0.000002 0.000724 -0.000503 -0.904390
    10 1.020539 -0.000006 0.000002 -0.000383 -0.000965 0.466043
    11 3.555555 0.031353 0.204873 0.008037 0.040675 -0.984271
    12 1.666016 0.000000 -0.000002 0.001011 -0.000012 -1.475007
    13 1.243164 0.000002 -0.000002 -0.001501 -0.001857 0.886861
    14 3.449691 0.065180 1.082459 0.049070 -0.004713 -0.906317
    15 1.707031 0.000002 0.000002 -0.000424 0.000104 -1.233972
    16 1.002013 -0.000004 0.000004 0.000244 0.000450 0.666183
    17 0.079459 -0.727847 0.762649 -1.085883 -0.824398 -0.710681
    18 2.515625 0.000000 -0.000004 0.000000 0.000000 0.099261
    19 1.334961 0.000000 0.000000 -0.051019 0.105005 -0.130756
    20 2.033356 1.000772 -1.937609 -0.128272 0.173060 4.244766
    21 6.028136 0.000001 -0.000003 -0.467390 1.093335 -2.161474
    22 11.692558 0.000002 0.000001 0.000242 -0.000215 -1.470754
    23 11.481697 -0.000001 -0.000002 -0.607164 -0.365027 0.590752
    24 3.277627 0.011988 1.380615 0.112537 -0.017343 -1.172521
    25 1.324282 0.000002 -0.000001 0.000004 0.000002 -1.042258
    26 0.819336 -0.000002 0.000000 0.000000 0.000000 -0.751421
    27 3.711819 0.108938 0.571673 0.072764 0.066687 -1.217337
    28 1.601603 0.000011 -0.003904 0.000039 -0.000027 -1.240847
    29 0.989258 -0.000001 0.000001 0.000000 0.000000 -0.869201
    30 3.785996 0.199703 -0.243536 0.047184 0.069788 -1.052167
    31 1.680520 -0.000004 0.000007 0.000025 -0.000039 -1.444969
    32 1.252159 -0.000004 0.000006 0.000001 -0.000011 -0.823070
    33 3.594196 0.288592 -1.112525 0.097866 0.054560 -0.261178
    34 1.723633 -0.000002 0.000000 0.000000 0.000000 -0.566697
    35 1.002930 0.000000 0.000001 0.000000 0.000000 -0.611497
    36 0.302101 -0.633277 -0.423776 0.405927 0.432598 -0.697208
    37 2.636719 -0.000004 0.000001 0.000000 0.000000 0.556744
    38 1.309570 0.000001 0.000000 0.000000 0.000000 0.431283
    39 -7.437147 -20.657911 -10.402929 1.991014 0.000027 -0.000066
    40 0.075562 -1.768556 0.900875 0.000000 0.000000 0.000000
    41 0.075562 -2.400394 3.259762 0.000000 0.000000 0.000000
    42 0.075563 -1.355474 5.355465 0.000000 0.000000 0.000000
    43 0.661621 1.201162 9.453125 1.570796 -0.000001 0.110042
    44 0.871582 1.617180 7.859375 0.000000 0.000000 0.000000
    45 19.893883 -17.572500 -7.710544 1.570796 0.000000 -1.570796
    46 19.893883 -17.572500 -14.437420 1.570796 0.000000 -1.570796
  time 1
    0 0.496109 -3.339952 -9.344035 -1.570797 -1.130947 -1.570843
    1 2.033348 1.000767 1.937660 3.102630 -0.155324 1.660850
    2 6.028139 0.000008 0.000002 -2.687800 -0.487368 -0.099267
    3 11.692572 0.000164 -0.000016 -0.000094 0.000444 -0.543003
    4 11.481691 -0.000080 -0.000043 -0.412539 0.577348 0.155624
    5 2.914366 -0.033031 -1.399014 -0.166795 0.023964 -1.690693
    6 1.284180 0.000004 -0.000002 -0.002342 0.009091 0.011495
    7 0.842285 -0.000004 0.000000 0.000507 -0.002524 -0.273496
    8 3.368093 0.003793 -0.622856 -0.024851 0.032394 -1.318261
    9 1.609375 -0.000002 0.000002 0.000724 -0.000503 -0.904390
    10 1.020539 -0.000006 0.000002 -0.000383 -0.000965 0.466043
    11 3.555555 0.031353 0.200966 0.008037 0.040675 -0.984271
    12 1.666016 0.000000 -0.000002 0.001011 -0.000012 -1.475007
    13 1.243164 0.000002 -0.000002 -0.001501 -0.001857 0.886861
    14 3.449691 0.065180 1.082459 0.049070 -0.004713 -0.906317
    15 1.707031 0.000002 0.000002 -0.000424 0.000104 -1.233972
    16 1.002013 -0.000004 0.000004 0.000244 0.000450 0.666183
    17 0.079459 -0.727847 0.762649 -1.085883 -0.824398 -0.710681
    18 2.515625 0.000000 -0.000004 0.000000 0.000000 0.099261
    19 1.334961 0.000000 0.000000 -0.051019 0.105005 -0.130756
    20 2.033356 1.000772 -1.937609 -0.128272 0.173026 4.244766
    21 6.028136 0.000001 -0.000003 -0.467540 1.095510 -2.164768
    22 11.692558 0.000002 0.000001 0.005551 -0.006758 -1.469708
    23 11.481697 -0.000001 -0.000002 -0.607921 -0.361150 0.590752
    24 3.277627 0.011988 1.380615 0.112537 -0.017355 -1.172521
    25 1.324282 0.000002 -0.000001 0.000004 0.000002 -1.042258
    26 0.819336 -0.000002 0.000000 0.000000 0.000000 -0.751421
    27 3.711819 0.108938 0.567767 0.072764 0.066687 -1.217337
    28 1.601603 0.000011 -0.003904 0.000039 -0.000027 -1.240847
    29 0.989258 -0.000001 0.000001 0.000000 0.000000 -0.869201
    30 3.785996 0.199703 -0.247443 0.047184 0.069788 -1.052167
    31 1.680520 -0.000004 0.000007 0.000025 -0.000039 -1.444969
    32 1.252159 -0.000004 0.000006 0.000001 -0.000011 -0.823070
    33 3.594196 0.288592 -1.116432 0.097866 0.054560 -0.261178
    34 1.723633 -0.000002 0.000000 0.000000 0.000000 -0.566697
    35 1.002930 0.000000 0.000001 0.000000 0.000000 -0.611497
    36 0.302101 -0.633277 -0.423776 0.405927 0.432598 -0.697208
    37 2.636719 -0.000004 0.000001 0.000000 0.000000 0.556744
    38 1.309570 0.000001 0.000000 0.000000 0.000000 0.431283
    39 -7.437147 -20.657911 -10.402929 1.991014 0.000027 -0.000066
    40 0.075562 -1.768556 0.900875 0.000000 0.000000 0.000000
    41 0.075562 -2.400394 3.259762 0.000000 0.000000 0.000000
    42 0.075563 -1.355474 5.355465 0.000000 0.000000 0.000000
    43 0.661621 1.201162 9.453125 1.570796 -0.000001 0.110042
    44 0.871582 1.617180 7.859375 0.000000 0.000000 0.000000
    45 19.893883 -17.572500 -7.710544 1.570796 0.000000 -1.570796
    46 19.893883 -17.572500 -14.437420 1.570796 0.000000 -1.570796
  time 2
    0 0.496109 -3.312607 -9.332316 -1.570797 -1.133355 -1.570891
    1 2.033348 1.000767 1.937660 3.110784 -0.137210 1.610578
    2 6.028139 0.000008 0.000002 -2.753339 -0.446520 -0.042789
    3 11.692572 0.000164 -0.000016 -0.000094 0.000432 -0.557496
    4 11.481691 -0.000080 -0.000043 -0.412444 0.635851 0.246915
    5 3.758141 1.017782 -1.586520 -0.168436 0.021663 -1.694067
    6 1.284180 0.000004 -0.000002 -0.002342 0.009091 0.011495
    7 0.842285 -0.000004 0.000000 0.000507 -0.002524 -0.273496
    8 4.204056 1.046794 -0.806456 -0.027200 0.030836 -1.321659
    9 1.609375 -0.000002 0.000002 0.000724 -0.000503 -0.904390
    10 1.020539 -0.000006 0.000002 -0.000383 -0.000965 0.466043
    11 4.395424 1.082167 0.017367 0.005317 0.039968 -0.987708
    12 1.666016 0.000000 -0.000002 0.001011 -0.000012 -1.475007
    13 1.243164 0.000002 -0.000002 -0.001501 -0.001857 0.886861
    14 4.293466 1.119900 0.898859 0.046301 -0.005204 -0.909600
    15 1.707031 0.000002 0.000002 -0.000424 0.000104 -1.233972
    16 1.002013 -0.000004 0.000004 0.000244 0.000450 0.666183
    17 0.919328 0.330779 0.590769 -1.090007 -0.824336 -0.710977
    18 2.515625 0.000000 -0.000004 0.000000 0.000000 0.099261
    19 1.334961 0.000000 0.000000 -0.051019 0.105005 -0.130756
    20 2.033356 1.000772 -1.937609 -0.128272 0.173026 4.244766
    21 6.028136 0.000001 -0.000003 -0.695507 1.076415 -2.488750
    22 11.692558 0.000002 0.000001 0.005155 -0.006603 -1.417448
    23 11.481697 -0.000001 -0.000002 -0.593186 -0.449790 0.668357
    24 3.597950 0.804981 2.431428 0.110842 -0.020878 -1.170945
    25 1.324282 0.000002 -0.000001 0.000004 0.000002 -1.042258
    26 0.819336 -0.000002 0.000000 0.000000 0.000000 -0.751421
    27 4.020422 0.898025 1.618580 0.071218 0.063092 -1.215912
    28 1.601603 0.000011 0.000002 0.000015 -0.000003 -1.240786
    29 0.989258 -0.000001 0.000001 0.000000 0.000000 -0.869201
    30 4.094599 0.984883 0.803371 0.045063 0.066481 -1.050757
    31 1.676613 0.003903 0.000007 0.000025 -0.000027 -1.444969
    32 1.252159 -0.000004 0.000006 0.000001 -0.000011 -0.823070
    33 3.898893 1.073773 -0.069525 0.094023 0.053746 -0.259836
    34 1.723633 -0.000002 0.000000 0.000000 0.000000 -0.566697
    35 1.002930 0.000000 0.000001 0.000000 0.000000 -0.611497
    36 0.610704 0.140184 0.634851 0.402462 0.430249 -0.697064
    37 2.636719 -0.000004 0.000001 0.000000 0.000000 0.556744
    38 1.309570 0.000001 0.000000 0.000000 0.000000 0.431283
    39 -7.624653 -21.439185 -9.207580 1.986595 0.000027 -0.000066
    40 0.075562 -1.768556 0.900875 0.000000 0.000000 0.000000
    41 0.075562 -2.400394 3.259762 0.000000 0.000000 0.000000
    42 0.075563 -1.355474 5.355465 0.000000 0.000000 0.000000
    43 0.661621 1.201162 9.453125 1.570796 -0.000001 0.110042
    44 0.871582 1.617180 7.859375 0.000000 0.000000 0.000000
    45 19.893883 -17.572500 -7.710544 1.570796 0.000000 -1.570796
    46 19.893883 -17.572500 -14.437420 1.570796 0.000000 -1.570796
  time 3
    0 0.496109 -3.277450 -9.332316 -1.570797 -1.137250 -1.570891
    1 2.033348 1.000767 1.937660 3.118891 -0.110256 1.540021
    2 6.028139 0.000008 0.000002 -2.787642 -0.442730 -0.034694
    3 11.692572 0.000164 -0.000016 -0.000048 0.000360 -0.429293
    4 11.481691 -0.000080 -0.000043 -0.399385 0.635541 0.196079
    5 3.523759 0.576363 -1.602145 -0.171314 0.017420 -1.700257
    6 1.284180 0.000004 -0.000002 -0.002342 0.009091 0.011495
    7 0.842285 -0.000004 0.000000 0.000507 -0.002524 -0.273496
    8 3.973580 0.609281 -0.822081 -0.031347 0.027900 -1.327934
    9 1.609375 -0.000002 0.000002 0.000724 -0.000503 -0.904390
    10 1.024445 -0.000006 0.000002 -0.000383 -0.000965 0.466043
    11 4.168855 0.644653 -0.002165 0.000439 0.038554 -0.994054
    12 1.666016 0.000000 -0.000002 0.001011 -0.000012 -1.475007
    13 1.243164 0.000002 -0.000002 -0.001501 -0.001857 0.886861
    14 4.066897 0.686293 0.883234 0.041328 -0.006235 -0.915728
    15 1.707031 0.000002 0.000002 -0.000424 0.000104 -1.233972
    16 1.002013 -0.000004 0.000004 0.000244 0.000450 0.666183
    17 0.696665 -0.083296 0.582956 -1.097505 -0.824356 -0.711622
    18 2.515625 0.000000 -0.000004 0.000000 0.000000 0.099261
    19 1.334961 0.000000 0.000000 -0.051019 0.105005 -0.130756
    20 2.033356 1.000772 -1.937609 -0.128272 0.173026 4.244766
    21 6.028136 0.000001 -0.000003 -0.757707 1.061843 -2.580086
    22 11.692558 0.000002 0.000001 0.004616 -0.006471 -1.338666
    23 11.481697 -0.000001 -0.000002 -0.583126 -0.470522 0.623960
    24 3.457320 0.597944 1.997821 0.108164 -0.027626 -1.167473
    25 1.324282 0.000002 -0.000001 0.000004 0.000002 -1.042258
    26 0.819336 -0.000002 0.000000 0.000000 0.000000 -0.751421
    27 3.883700 0.687081 1.181067 0.068845 0.056249 -1.212622
    28 1.601603 0.000011 0.000002 0.000027 -0.000015 -1.240816
    29 0.989258 -0.000001 0.000001 0.000000 0.000000 -0.869201
    30 3.950064 0.770033 0.369764 0.041587 0.060117 -1.047558
    31 1.680520 -0.000004 0.000007 0.000037 -0.000027 -1.444969
    32 1.252159 -0.000004 0.000006 0.000001 -0.000011 -0.823070
    33 3.766076 0.847203 -0.503132 0.087053 0.051732 -0.256780
    34 1.723633 -0.000002 0.000000 0.000000 0.000000 -0.566697
    35 1.002930 0.000000 0.000001 0.000000 0.000000 -0.611497
    36 0.470075 -0.090291 0.201244 0.396465 0.425479 -0.696117
    37 2.636719 -0.000004 0.000001 0.000000 0.000000 0.556744
    38 1.309570 0.000001 0.000000 0.000000 0.000000 0.431283
    39 -7.741844 -21.978264 -8.246613 1.974305 0.000027 -0.000066
    40 0.075562 -1.768556 0.900875 0.000000 0.000000 0.000000
    41 0.075562 -2.400394 3.259762 0.000000 0.000000 0.000000
    42 0.075563 -1.355474 5.355465 0.000000 0.000000 0.000000
    43 0.661621 1.201162 9.453125 1.570796 -0.000001 0.110042
    44 0.871582 1.617180 7.859375 0.000000 0.000000 0.000000
    45 19.893883 -17.572500 -7.710544 1.570796 0.000000 -1.570796
    46 19.893883 -17.572500 -14.437420 1.570796 0.000000 -1.570796
  time 4
    0 0.496109 -3.222761 -9.320597 -1.570797 -1.142524 -1.570843
    1 2.033348 1.000767 1.937660 3.123364 -0.078030 1.459815
    2 6.028139 0.000008 0.000002 -2.811501 -0.423979 -0.055361
    3 11.692572 0.000164 -0.000016 -0.000003 0.000312 -0.317415
    4 11.481691 -0.000080 -0.000043 -0.384811 0.635773 0.139137
    5 3.324534 0.197445 -1.617771 -0.173681 0.013633 -1.705780
    6 1.284180 0.000004 -0.000002 -0.002342 0.009091 0.011495
    7 0.842285 -0.000004 0.000000 0.000507 -0.002524 -0.273496
    8 3.786075 0.230363 -0.841613 -0.034930 0.025240 -1.333535
    9 1.609375 -0.000002 0.000002 0.000724 -0.000503 -0.904390
    10 1.024445 -0.000006 0.000002 -0.000383 -0.000965 0.466043
    11 3.973536 0.265736 -0.017790 -0.003828 0.037211 -0.999695
    12 1.666016 0.000000 -0.000002 0.001011 -0.000012 -1.475007
    13 1.243164 0.000002 -0.000002 -0.001501 -0.001857 0.886861
    14 3.879391 0.311282 0.863702 0.036965 -0.007242 -0.921189
    15 1.707031 0.000002 0.000002 -0.000424 0.000104 -1.233972
    16 1.002013 -0.000004 0.000004 0.000244 0.000450 0.666183
    17 0.501347 -0.434870 0.582956 -1.104067 -0.824439 -0.712294
    18 2.515625 0.000000 -0.000004 0.000000 0.000000 0.099261
    19 1.334961 0.000000 0.000000 -0.051019 0.105005 -0.130756
    20 2.033356 1.000772 -1.937609 -0.128272 0.173026 4.244766
    21 6.028136 0.000001 -0.000003 -0.797275 1.047754 -2.636268
    22 11.692558 0.000002 0.000001 0.004185 -0.006279 -1.279919
    23 11.481697 -0.000001 -0.000002 -0.572442 -0.474451 0.584203
    24 3.332317 0.422157 1.622810 0.105228 -0.033378 -1.164577
    25 1.324282 0.000002 -0.000001 0.000004 0.000002 -1.042239
    26 0.819336 -0.000002 0.000000 0.000000 0.000000 -0.751421
    27 3.766508 0.511294 0.809962 0.066173 0.050352 -1.209990
    28 1.601603 0.000011 0.000002 0.000003 -0.000003 -1.240786
    29 0.989258 -0.000001 0.000001 0.000000 0.000000 -0.869201
    30 3.840685 0.586434 -0.009154 0.037992 0.054748 -1.044977
    31 1.680520 0.003903 0.000007 0.000013 -0.000027 -1.444969
    32 1.252159 -0.000004 0.000006 0.000001 -0.000011 -0.823070
    33 3.644979 0.659697 -0.878143 0.080696 0.050510 -0.254323
    34 1.723633 -0.000002 0.000000 0.000000 0.000000 -0.566697
    35 1.002930 0.000000 0.000001 0.000000 0.000000 -0.611497
    36 0.356790 -0.285610 -0.165955 0.390735 0.421680 -0.695698
    37 2.636719 -0.000004 0.000001 0.000000 0.000000 0.556744
    38 1.309570 0.000001 0.000000 0.000000 0.000000 0.431283
    39 -7.796533 -22.318118 -7.473152 1.955071 0.000027 -0.000066
    40 0.075562 -1.768556 0.900875 0.000000 0.000000 0.000000
    41 0.075562 -2.400394 3.259762 0.000000 0.000000 0.000000
    42 0.075563 -1.355474 5.355465 0.000000 0.000000 0.000000
    43 0.661621 1.201162 9.453125 1.570796 -0.000001 0.110042
    44 0.871582 1.617180 7.859375 0.000000 0.000000 0.000000
    45 19.893883 -17.572500 -7.710544 1.570796 0.000000 -1.570796
    46 19.893883 -17.572500 -14.437420 1.570796 0.000000 -1.570796
  time 5
    0 0.496109 -3.152446 -9.308878 -1.570797 -1.149031 -1.570843
    1 2.033348 1.000767 1.937660 3.122432 -0.044932 1.380023
    2 6.028139 0.000008 0.000002 -2.826544 -0.398633 -0.090791
    3 11.692572 0.000164 -0.000016 -0.000003 0.000324 -0.222020
    4 11.481691 -0.000080 -0.000043 -0.369481 0.635735 0.080439
    5 3.156560 -0.126784 -1.598239 -0.175080 0.010421 -1.710377
    6 1.284180 0.000004 -0.000002 -0.002342 0.009091 0.011495
    7 0.842285 -0.000004 0.000000 0.000507 -0.002524 -0.273496
    8 3.618101 -0.089960 -0.825987 -0.037399 0.022747 -1.338127
    9 1.609375 -0.000002 0.000002 0.000724 -0.000503 -0.904390
    10 1.024445 -0.000006 0.000002 -0.000383 -0.000965 0.466071
    11 3.817282 -0.046774 -0.002165 -0.006980 0.035677 -1.004396
    12 1.666016 0.000000 -0.000002 0.001011 -0.000012 -1.475007
    13 1.243164 0.000002 -0.000002 -0.001501 -0.001857 0.886861
    14 3.723137 -0.009041 0.879327 0.033705 -0.008524 -0.925720
    15 1.707031 0.000002 0.000002 -0.000424 0.000104 -1.233972
    16 1.002013 -0.000004 0.000004 0.000244 0.000450 0.666183
    17 0.333373 -0.739566 0.598581 -1.109175 -0.825020 -0.713128
    18 2.515625 0.000000 -0.000004 0.000000 0.000000 0.099261
    19 1.334961 0.000000 0.000000 -0.051019 0.105005 -0.130756
    20 2.033356 1.000772 -1.937609 -0.128272 0.173026 4.244766
    21 6.028136 0.000001 -0.000003 -0.815186 1.038741 -2.661540
    22 11.692558 0.000002 0.000001 0.003933 -0.006243 -1.243405
    23 11.481697 -0.000001 -0.000002 -0.561713 -0.464938 0.550239
    24 3.254189 0.265902 1.302487 0.102918 -0.038508 -1.162682
    25 1.324282 0.000002 -0.000001 0.000004 0.000002 -1.042258
    26 0.819336 -0.000002 0.000000 0.000000 0.000000 -0.751421
    27 3.684475 0.347227 0.489640 0.064088 0.045127 -1.208254
    28 1.601603 0.000011 0.000002 0.000015 -0.000003 -1.240786
    29 0.989258 -0.000001 0.000001 0.000000 0.000000 -0.869201
    30 3.758652 0.422366 -0.329476 0.035067 0.049942 -1.043314
    31 1.680520 -0.000004 0.000007 0.000001 -0.000015 -1.444936
    32 1.252159 -0.000004 0.000006 0.000001 -0.000011 -0.823070
    33 3.562945 0.487817 -1.202372 0.075225 0.049191 -0.252777
    34 1.723633 -0.000002 0.000000 0.000000 0.000000 -0.566697
    35 1.002930 0.000000 0.000001 0.000000 0.000000 -0.611497
    36 0.278663 -0.449677 -0.482371 0.385963 0.418133 -0.695866
    37 2.636719 -0.000004 0.000001 0.000000 0.000000 0.556744
    38 1.309570 0.000001 0.000000 0.000000 0.000000 0.431283
    39 -7.796533 -22.470466 -6.859852 1.929902 0.000027 -0.000066
    40 0.075562 -1.768556 0.900875 0.000000 0.000000 0.000000
    41 0.075562 -2.400394 3.259762 0.000000 0.000000 0.000000
    42 0.075563 -1.355474 5.355465 0.000000 0.000000 0.000000
    43 0.661621 1.201162 9.453125 1.570796 -0.000001 0.110042
    44 0.871582 1.617180 7.859375 0.000000 0.000000 0.000000
    45 19.893883 -17.572500 -7.710544 1.570796 0.000000 -1.570796
    46 19.893883 -17.572500 -14.437420 1.570796 0.000000 -1.570796
  time 6
    0 0.496109 -3.078225 -9.297159 -1.570797 -1.156701 -1.570843
    1 2.033348 1.000767 1.937660 3.117353 -0.015838 1.310711
    2 6.028139 0.000008 0.000002 -2.835838 -0.373829 -0.126316
    3 11.692572 0.000164 -0.000016 -0.000003 0.000252 -0.143267
    4 11.481691 -0.000080 -0.000043 -0.353488 0.635619 0.025634
    5 3.004212 -0.392417 -1.559175 -0.175402 0.007809 -1.714566
    6 1.284180 0.000004 -0.000002 -0.002342 0.009091 0.011495
    7 0.842285 -0.000004 0.000000 0.000507 -0.002524 -0.273496
    8 3.469659 -0.359499 -0.786924 -0.038645 0.020434 -1.342351
    9 1.609375 -0.000002 0.000002 0.000724 -0.000503 -0.904390
    10 1.024445 -0.000006 0.000002 -0.000383 -0.000965 0.466043
    11 3.664933 -0.320220 0.036899 -0.008909 0.033892 -1.008656
    12 1.666016 0.000000 -0.000002 0.001011 -0.000012 -1.475007
    13 1.243164 0.000002 -0.000002 -0.001501 -0.001857 0.886861
    14 3.570788 -0.266861 0.918391 0.031632 -0.010142 -0.929902
    15 1.707031 0.000002 0.000002 -0.000424 0.000104 -1.233972
    16 1.002013 -0.000004 0.000004 0.000244 0.000450 0.666183
    17 0.181025 -0.993480 0.641551 -1.112666 -0.826161 -0.714741
    18 2.515625 0.000000 -0.000004 0.000000 0.000000 0.099261
    19 1.334961 0.000000 0.000000 -0.051019 0.105005 -0.130756
    20 2.033356 1.000772 -1.937609 -0.128272 0.173026 4.244766
    21 6.028136 0.000001 -0.000003 -0.815935 1.035461 -2.662364
    22 11.692558 0.000002 0.000001 0.003789 -0.006183 -1.227084
    23 11.481697 -0.000001 -0.000002 -0.551697 -0.445628 0.522692
    24 3.203406 0.117460 1.036854 0.100916 -0.042846 -1.161638
    25 1.324282 0.000002 -0.000001 0.000004 0.000002 -1.042258
    26 0.819336 -0.000002 0.000000 0.000000 0.000000 -0.751421
    27 3.629786 0.194878 0.224007 0.062278 0.040705 -1.207376
    28 1.601603 0.000011 0.000002 0.000027 -0.000015 -1.240816
    29 0.989258 -0.000001 0.000001 0.000000 0.000000 -0.869201
    30 3.703963 0.262205 -0.591203 0.032575 0.045867 -1.042475
    31 1.684426 0.003903 0.000007 0.000001 -0.000027 -1.444969
    32 1.252159 -0.000004 0.000006 0.000001 -0.000011 -0.823070
    33 3.508256 0.327656 -1.464099 0.070583 0.048113 -0.252034
    34 1.723633 -0.000002 0.000000 0.000000 0.000000 -0.566697
    35 1.002930 0.000000 0.000001 0.000000 0.000000 -0.611497
    36 0.223974 -0.609838 -0.751911 0.381832 0.415173 -0.696513
    37 2.636719 -0.000004 0.000001 0.000000 0.000000 0.556744
    38 1.309570 0.000001 0.000000 0.000000 0.000000 0.431283
    39 -7.749657 -22.454841 -6.379369 1.899978 0.000027 -0.000066
    40 0.075562 -1.768556 0.900875 0.000000 0.000000 0.000000
    41 0.075562 -2.400394 3.259762 0.000000 0.000000 0.000000
    42 0.075563 -1.355474 5.355465 0.000000 0.000000 0.000000
    43 0.661621 1.201162 9.453125 1.570796 -0.000001 0.110042
    44 0.871582 1.617180 7.859375 0.000000 0.000000 0.000000
    45 19.893883 -17.572500 -7.710544 1.570796 0.000000 -1.570796
    46 19.893883 -17.572500 -14.437420 1.570796 0.000000 -1.570796
  time 7
    0 0.496109 -2.992285 -9.281533 -1.570797 -1.165414 -1.570843
    1 2.033348 1.000767 1.937660 3.111343 0.004576 1.261581
    2 6.028139 0.000008 0.000002 -2.835072 -0.350451 -0.169269
    3 11.692572 0.000164 -0.000016 -0.000003 0.000156 -0.122643
    4 11.481691 -0.000080 -0.000043 -0.337306 0.634187 -0.000776
    5 2.875302 -0.618986 -1.508392 -0.175402 0.005688 -1.718050
    6 1.284180 0.000004 -0.000002 -0.002342 0.009091 0.011495
    7 0.842285 -0.000004 0.000000 0.000507 -0.002524 -0.273496
    8 3.340749 -0.586068 -0.732235 -0.039400 0.018456 -1.345841
    9 1.609375 -0.000002 0.000002 0.000724 -0.000503 -0.904390
    10 1.024445 -0.000006 0.000002 -0.000383 -0.000965 0.466043
    11 3.539929 -0.542883 0.083775 -0.010275 0.032274 -1.012152
    12 1.666016 0.000000 -0.000002 0.001011 -0.000012 -1.475007
    13 1.243164 0.000002 -0.000002 -0.001501 -0.001857 0.886861
    14 3.441878 -0.489524 0.965268 0.030158 -0.011652 -0.933359
    15 1.707031 0.000002 0.000002 -0.000424 0.000104 -1.233972
    16 1.002013 -0.000004 0.000004 0.000244 0.000450 0.666183
    17 0.048208 -1.204424 0.700147 -1.115291 -0.827322 -0.716273
    18 2.515625 0.000000 -0.000004 0.000000 0.000000 0.099261
    19 1.334961 0.000000 0.000000 -0.051019 0.105005 -0.130756
    20 2.033356 1.000772 -1.937609 -0.128272 0.173026 4.244766
    21 6.028136 0.000001 -0.000003 -0.800797 1.037257 -2.640765
    22 11.692558 0.000002 0.000001 0.003621 -0.005967 -1.229490
    23 11.481697 -0.000001 -0.000002 -0.543016 -0.417581 0.501695
    24 3.176062 -0.015356 0.818098 0.099613 -0.046501 -1.161447
    25 1.324282 0.000002 -0.000001 0.000004 0.000002 -1.042258
    26 0.819336 -0.000002 0.000000 0.000000 0.000000 -0.751421
    27 3.602441 0.062062 -0.002563 0.061151 0.036978 -1.207285
    28 1.601603 0.000011 0.000002 0.000015 -0.000003 -1.240816
    29 0.989258 -0.000001 0.000001 0.000000 0.000000 -0.869201
    30 3.676618 0.125482 -0.817773 0.030837 0.042380 -1.042411
    31 1.680520 0.003903 0.000007 0.000013 -0.000015 -1.444969
    32 1.252159 -0.000004 0.000006 0.000001 -0.000011 -0.823070
    33 3.480911 0.187027 -1.686762 0.066869 0.046878 -0.252082
    34 1.723633 -0.000002 0.000000 0.000000 0.000000 -0.566697
    35 1.002930 0.000000 0.000001 0.000000 0.000000 -0.611497
    36 0.196629 -0.746561 -0.970667 0.378820 0.412452 -0.697627
    37 2.636719 -0.000004 0.000001 0.000000 0.000000 0.556744
    38 1.309570 0.000001 0.000000 0.000000 0.000000 0.431283
    39 -7.663717 -22.290773 -6.023889 1.866265 0.000027 -0.000066
    40 0.075562 -1.768556 0.900875 0.000000 0.000000 0.000000
    41 0.075562 -2.400394 3.259762 0.000000 0.000000 0.000000
    42 0.075563 -1.355474 5.355465 0.000000 0.000000 0.000000
    43 0.661621 1.201162 9.453125 1.570796 -0.000001 0.110042
    44 0.871582 1.617180 7.859375 0.000000 0.000000 0.000000
    45 19.893883 -17.572500 -7.710544 1.570796 0.000000 -1.570796
    46 19.893883 -17.572500 -14.437420 1.570796 0.000000 -1.570796
  time 8
    0 0.496109 -2.894626 -9.265908 -1.570797 -1.175074 -1.570843
    1 2.033348 1.000767 1.937660 3.108501 0.012305 1.242956
    2 6.028139 0.000008 0.000002 -2.820316 -0.329141 -0.229367
    3 11.692572 0.000164 -0.000016 -0.000003 -0.000311 -0.206810
    4 11.481691 -0.000080 -0.000043 -0.321503 0.630240 0.028382
    5 2.762017 -0.790867 -1.422452 -0.174730 0.004189 -1.720348
    6 1.284180 0.000004 -0.000002 -0.002342 0.009091 0.011495
    7 0.842285 -0.000004 0.000000 0.000507 -0.002524 -0.273496
    8 3.223557 -0.757949 -0.654107 -0.039341 0.016815 -1.348167
    9 1.609375 -0.000002 0.000002 0.000724 -0.000503 -0.904390
    10 1.024445 -0.000006 0.000002 -0.000383 -0.000965 0.466043
    11 3.422738 -0.714763 0.169715 -0.010755 0.030704 -1.014473
    12 1.666016 0.000000 -0.000002 0.001011 -0.000012 -1.475007
    13 1.243164 0.000002 -0.000002 -0.001501 -0.001857 0.886861
    14 3.328593 -0.661404 1.051208 0.029571 -0.013186 -0.935653
    15 1.707031 0.000002 0.000002 -0.000424 0.000104 -1.233972
    16 1.002013 -0.000004 0.000004 0.000244 0.000450 0.666212
    17 -0.068983 -1.368492 0.778274 -1.116627 -0.828691 -0.717618
    18 2.515625 0.000000 -0.000004 0.000000 0.000000 0.099261
    19 1.334961 0.000000 0.000000 -0.051019 0.105005 -0.130756
    20 2.033356 1.000772 -1.937609 -0.128272 0.172992 4.244766
    21 6.028136 0.000001 -0.000003 -0.770372 1.044646 -2.599721
    22 11.692558 0.000002 0.000001 0.003777 -0.006183 -1.249474
    23 11.481697 -0.000001 -0.000002 -0.536784 -0.384751 0.487642
    24 3.179968 -0.136454 0.642311 0.098066 -0.049078 -1.161660
    25 1.324282 0.000002 -0.000001 0.000004 0.000002 -1.042258
    26 0.819336 -0.000002 0.000000 0.000000 0.000000 -0.751421
    27 3.610254 -0.062942 -0.170537 0.059737 0.034341 -1.207614
    28 1.601603 0.000011 0.000002 0.000003 -0.000003 -1.240816
    29 0.989258 -0.000001 0.000001 0.000000 0.000000 -0.869201
    30 3.684431 -0.007334 -0.985746 0.028991 0.040007 -1.042760
    31 1.676613 0.003903 0.000007 0.000001 -0.000015 -1.444969
    32 1.252159 -0.000004 0.000006 0.000001 -0.000011 -0.823070
    33 3.488724 0.046397 -1.854736 0.063898 0.046519 -0.252489
    34 1.723633 -0.000002 0.000000 0.000000 0.000000 -0.566697
    35 1.002930 0.000000 0.000001 0.000000 0.000000 -0.611497
    36 0.200535 -0.883284 -1.134735 0.376022 0.410846 -0.699018
    37 2.636719 -0.000004 0.000001 0.000000 0.000000 0.556744
    38 1.309570 0.000001 0.000000 0.000000 0.000000 0.431283
    39 -7.546526 -21.989983 -5.777788 1.829901 0.000027 -0.000066
    40 0.075562 -1.768556 0.900875 0.000000 0.000000 0.000000
    41 0.075562 -2.400394 3.259762 0.000000 0.000000 0.000000
    42 0.075563 -1.355474 5.355465 0.000000 0.000000 0.000000
    43 0.661621 1.201162 9.453125 1.570796 -0.000001 0.110042
    44 0.871582 1.617180 7.859375 0.000000 0.000000 0.000000
    45 19.893883 -17.572500 -7.710544 1.570796 0.000000 -1.570796
    46 19.893883 -17.572500 -14.437420 1.570796 0.000000 -1.570796
  time 9
    0 0.496109 -2.781341 -9.254189 -1.570797 -1.185980 -1.570843
    1 2.033348 1.000767 1.937660 3.108501 0.012305 1.243060
    2 6.028139 0.000008 0.000002 -2.803739 -0.313491 -0.281178
    3 11.692572 0.000164 -0.000016 -0.000003 0.000240 -0.315583
    4 11.481691 -0.000080 -0.000043 -0.306456 0.624514 0.070288
    5 2.660452 -0.919777 -1.340418 -0.173654 0.003267 -1.721979
    6 1.284180 0.000004 -0.000002 -0.002342 0.009091 0.011495
    7 0.842285 -0.000004 0.000000 0.000507 -0.002524 -0.273496
    8 3.121992 -0.886859 -0.568167 -0.038669 0.015568 -1.349789
    9 1.609375 -0.000002 0.000002 0.000724 -0.000503 -0.904390
    10 1.024445 -0.000006 0.000002 -0.000383 -0.000965 0.466043
    11 3.321173 -0.843673 0.251749 -0.010527 0.029301 -1.016147
    12 1.666016 0.000000 -0.000002 0.001011 -0.000012 -1.475007
    13 1.243164 0.000002 -0.000002 -0.001501 -0.001857 0.886861
    14 3.227028 -0.790315 1.137148 0.029679 -0.014600 -0.937338
    15 1.707031 0.000002 0.000002 -0.000424 0.000104 -1.233972
    16 1.002013 -0.000004 0.000004 0.000244 0.000450 0.666183
    17 -0.170549 -1.489589 0.860308 -1.116931 -0.830081 -0.719043
    18 2.515625 0.000000 -0.000004 0.000000 0.000000 0.099261
    19 1.334961 0.000000 0.000000 -0.051019 0.105005 -0.130756
    20 2.033356 1.000772 -1.937609 -0.128272 0.173026 4.244766
    21 6.028136 0.000001 -0.000003 -0.725857 1.054211 -2.539738
    22 11.692558 0.000002 0.000001 0.003202 -0.006255 -1.282326
    23 11.481697 -0.000001 -0.000002 -0.532911 -0.346519 0.478690
    24 3.195594 -0.249738 0.517307 0.097537 -0.050984 -1.162937
    25 1.324282 0.000002 -0.000001 0.000004 0.000002 -1.042258
    26 0.819336 -0.000002 0.000000 0.000000 0.000000 -0.751421
    27 3.625879 -0.176227 -0.299447 0.059294 0.032423 -1.208948
    28 1.601603 0.000011 0.000002 0.000015 -0.000003 -1.240847
    29 0.989258 -0.000001 0.000001 0.000000 0.000000 -0.869201
    30 3.700056 -0.116713 -1.114657 0.028236 0.038197 -1.044106
    31 1.680520 -0.000004 0.000007 0.000001 -0.000027 -1.444969
    32 1.252159 -0.000004 0.000006 0.000001 -0.000011 -0.823070
    33 3.504349 -0.070794 -1.987552 0.062069 0.045776 -0.253904
    34 1.723633 -0.000002 0.000000 0.000000 0.000000 -0.566697
    35 1.002930 0.000000 0.000001 0.000000 0.000000 -0.611497
    36 0.216161 -0.992663 -1.267551 0.374582 0.409384 -0.700899
    37 2.636719 -0.000004 0.000001 0.000000 0.000000 0.556744
    38 1.309570 0.000001 0.000000 0.000000 0.000000 0.431283
    39 -7.405896 -21.564189 -5.633252 1.791896 0.000027 -0.000001
    40 0.075562 -1.768556 0.900875 0.000000 0.000000 0.000000
    41 0.075562 -2.400394 3.259762 0.000000 0.000000 0.000000
    42 0.075563 -1.355474 5.355465 0.000000 0.000000 0.000000
    43 0.661621 1.201162 9.453125 1.570796 -0.000001 0.110042
    44 0.871582 1.617180 7.859375 0.000000 0.000000 0.000000
    45 19.893883 -17.572500 -7.710544 1.570796 0.000000 -1.570796
    46 19.893883 -17.572500 -14.437420 1.570796 0.000000 -1.570796
  time 10
    0 0.496109 -2.656337 -9.234657 -1.570797 -1.198420 -1.570891
    1 2.033348 1.000767 1.937660 3.108501 0.012305 1.243060
    2 6.028139 0.000008 0.000002 -2.785342 -0.295675 -0.340894
    3 11.692572 0.000164 -0.000016 -0.000003 0.000348 -0.433593
    4 11.481691 -0.000080 -0.000043 -0.292735 0.618091 0.112956
    5 2.578418 -1.005717 -1.250572 -0.172282 0.002955 -1.722758
    6 1.284180 0.000004 -0.000002 -0.002342 0.009091 0.011495
    7 0.842285 -0.000004 0.000000 0.000507 -0.002524 -0.273496
    8 3.039958 -0.972799 -0.474414 -0.037519 0.014777 -1.350555
    9 1.609375 -0.000002 0.000002 0.000724 -0.000503 -0.904390
    10 1.024445 -0.000006 0.000002 -0.000383 -0.000965 0.466043
    11 3.239139 -0.929613 0.349408 -0.009688 0.028175 -1.016882
    12 1.666016 0.000000 -0.000002 0.001011 -0.000012 -1.475007
    13 1.243164 0.000002 -0.000002 -0.001501 -0.001857 0.886861
    14 3.141088 -0.872348 1.230901 0.030422 -0.015787 -0.938064
    15 1.707031 0.000002 0.000002 -0.000424 0.000104 -1.233972
    16 1.002013 -0.000004 0.000004 0.000244 0.000450 0.666183
    17 -0.256489 -1.571623 0.954061 -1.116205 -0.831408 -0.720333
    18 2.515625 0.000000 -0.000004 0.000000 0.000000 0.099261
    19 1.334961 0.000000 0.000000 -0.051019 0.105005 -0.130756
    20 2.033356 1.000772 -1.937609 -0.128272 0.173026 4.244766
    21 6.028136 0.000001 -0.000003 -0.669428 1.065192 -2.463667
    22 11.692558 0.000002 0.000001 0.003070 -0.006207 -1.325431
    23 11.481697 -0.000001 -0.000002 -0.531932 -0.306322 0.473951
    24 3.230751 -0.351304 0.427461 0.097132 -0.051811 -1.164087
    25 1.324282 0.000002 -0.000001 0.000004 0.000002 -1.042258
    26 0.819336 -0.000002 0.000000 0.000000 0.000000 -0.751421
    27 3.661036 -0.281699 -0.381481 0.058922 0.031573 -1.210136
    28 1.597696 0.000011 0.000002 0.000015 -0.000003 -1.240816
    29 0.989258 -0.000001 0.000001 0.000000 0.000000 -0.869201
    30 3.735214 -0.222185 -1.204503 0.027757 0.037418 -1.045294
    31 1.680520 -0.000004 0.000007 0.000001 -0.000015 -1.444936
    32 1.252159 -0.000004 0.000006 0.000001 -0.000011 -0.823098
    33 3.539507 -0.168453 -2.069586 0.061184 0.045584 -0.255102
    34 1.723633 -0.000002 0.000000 0.000000 0.000000 -0.566697
    35 1.002930 0.000000 0.000001 0.000000 0.000000 -0.611497
    36 0.247412 -1.094228 -1.341772 0.373809 0.408845 -0.702337
    37 2.636719 -0.000004 0.000001 0.000000 0.000000 0.556744
    38 1.309570 0.000001 0.000000 0.000000 0.000000 0.431283
    39 -7.241829 -21.036829 -5.570750 1.753259 0.000027 -0.000001
    40 0.075562 -1.768556 0.900875 0.000000 0.000000 0.000000
    41 0.075562 -2.400394 3.259762 0.000000 0.000000 0.000000
    42 0.075563 -1.355474 5.355465 0.000000 0.000000 0.000000
    43 0.661621 1.201162 9.453125 1.570796 -0.000001 0.110042
    44 0.871582 1.617180 7.859375 0.000000 0.000000 0.000000
    45 19.893883 -17.572500 -7.710544 1.570796 0.000000 -1.570796
    46 19.893883 -17.572500 -14.437420 1.570796 0.000000 -1.570796
  time 11
    0 0.496109 -2.515708 -9.219031 -1.570797 -1.212094 -1.570843
    1 2.033348 1.000767 1.937660 3.108501 0.012305 1.243060
    2 6.028139 0.000008 0.000002 -2.767616 -0.276875 -0.400991
    3 11.692572 0.000164 -0.000016 -0.000048 0.000432 -0.547144
    4 11.481691 -0.000080 -0.000043 -0.280906 0.611591 0.150434
    5 2.519822 -1.033062 -1.164632 -0.170910 0.003231 -1.722535
    6 1.284180 0.000004 -0.000002 -0.002342 0.009091 0.011495
    7 0.842285 -0.000004 0.000000 0.000507 -0.002524 -0.273496
    8 2.981363 -1.004050 -0.388474 -0.036129 0.014537 -1.350310
    9 1.609375 -0.000002 0.000002 0.000724 -0.000503 -0.904390
    10 1.020539 -0.000006 0.000002 -0.000383 -0.000965 0.466043
    11 3.176637 -0.960864 0.431442 -0.008466 0.027492 -1.016618
    12 1.666016 0.000000 -0.000002 0.001011 -0.000012 -1.475007
    13 1.243164 0.000002 -0.000002 -0.001501 -0.001857 0.886861
    14 3.078586 -0.903599 1.324654 0.031584 -0.016554 -0.937890
    15 1.707031 0.000002 0.000002 -0.000424 0.000104 -1.233972
    16 1.002013 -0.000004 0.000004 0.000244 0.000450 0.666183
    17 -0.315084 -1.602874 1.040001 -1.114775 -0.832404 -0.721194
    18 2.515625 0.000000 -0.000004 0.000000 0.000000 0.099261
    19 1.334961 0.000000 0.000000 -0.051019 0.105005 -0.130756
    20 2.033356 1.000772 -1.937609 -0.128272 0.173026 4.244766
    21 6.028136 0.000001 -0.000003 -0.604230 1.075379 -2.375879
    22 11.692558 0.000002 0.000001 0.003214 -0.005836 -1.375703
    23 11.481697 -0.000001 -0.000002 -0.533980 -0.265349 0.473260
    24 3.273721 -0.429431 0.404023 0.097230 -0.051679 -1.165408
    25 1.324282 0.000002 -0.000001 0.000004 0.000002 -1.042258
    26 0.819336 -0.000002 0.000000 0.000000 0.000000 -0.751421
    27 3.700100 -0.359826 -0.412732 0.059006 0.031716 -1.211434
    28 1.601603 0.000011 0.000002 0.000015 -0.000003 -1.240847
    29 0.989258 -0.000001 0.000001 0.000000 0.000000 -0.869201
    30 3.774277 -0.300312 -1.231848 0.027865 0.037538 -1.046624
    31 1.680520 -0.000004 0.000007 0.000001 -0.000015 -1.444936
    32 1.252159 -0.000004 0.000006 0.000001 -0.000011 -0.823098
    33 3.578570 -0.246580 -2.100837 0.061341 0.045596 -0.256420
    34 1.723633 -0.000002 0.000000 0.000000 0.000000 -0.566697
    35 1.002930 0.000000 0.000001 0.000000 0.000000 -0.611497
    36 0.290382 -1.168449 -1.369117 0.373969 0.408917 -0.703632
    37 2.636719 -0.000004 0.000001 0.000000 0.000000 0.556744
    38 1.309570 0.000001 0.000000 0.000000 0.000000 0.431283
    39 -7.069949 -20.419622 -5.586376 1.715085 0.000027 -0.000001
    40 0.075562 -1.768556 0.900875 0.000000 0.000000 0.000000
    41 0.075562 -2.400394 3.259762 0.000000 0.000000 0.000000
    42 0.075563 -1.355474 5.355465 0.000000 0.000000 0.000000
    43 0.661621 1.201162 9.453125 1.570796 -0.000001 0.110042
    44 0.871582 1.617180 7.859375 0.000000 0.000000 0.000000
    45 19.893883 -17.572500 -7.710544 1.570796 0.000000 -1.570796
    46 19.893883 -17.572500 -14.437420 1.570796 0.000000 -1.570796
  time 12
    0 0.496109 -2.359453 -9.203406 -1.570797 -1.226787 -1.570891
    1 2.033348 1.000767 1.937660 3.108501 0.012305 1.243060
    2 6.028139 0.000008 0.000002 -2.750177 -0.256549 -0.462898
    3 11.692572 0.000164 -0.000016 -0.000139 0.000000 -0.659341
    4 11.481691 -0.000080 -0.000043 -0.271064 0.605787 0.184706
    5 2.488571 -1.033062 -1.094317 -0.169323 0.004142 -1.721497
    6 1.284180 0.000004 -0.000002 -0.002342 0.009091 0.011495
    7 0.842285 -0.000004 0.000000 0.000507 -0.002524 -0.273496
    8 2.950112 -1.000144 -0.318159 -0.034319 0.014801 -1.349238
    9 1.609375 -0.000002 0.000002 0.000724 -0.000503 -0.904390
    10 1.020539 -0.000006 0.000002 -0.000383 -0.000965 0.466043
    11 3.145386 -0.956958 0.509570 -0.006656 0.027156 -1.015530
    12 1.666016 0.000000 -0.000002 0.001011 -0.000012 -1.475007
    13 1.243164 0.000002 -0.000002 -0.001501 -0.001857 0.886861
    14 3.043428 -0.899693 1.391062 0.033370 -0.017045 -0.936873
    15 1.707031 0.000002 0.000002 -0.000424 0.000104 -1.233972
    16 1.002013 -0.000004 0.000004 0.000244 0.000450 0.666183
    17 -0.350242 -1.602874 1.106409 -1.112338 -0.833275 -0.721920
    18 2.515625 0.000000 -0.000004 0.000000 0.000000 0.099261
    19 1.334961 0.000000 0.000000 -0.051019 0.105005 -0.130756
    20 2.033356 1.000772 -1.937609 -0.128272 0.173026 4.244766
    21 6.028136 0.000001 -0.000003 -0.533787 1.082526 -2.279603
    22 11.692558 0.000002 0.000001 0.003262 -0.005512 -1.429009
    23 11.481697 -0.000001 -0.000002 -0.538698 -0.223963 0.475136
    24 3.316691 -0.480214 0.400116 0.097574 -0.050432 -1.166962
    25 1.324282 0.000002 -0.000001 0.000004 0.000002 -1.042258
    26 0.819336 -0.000002 0.000000 0.000000 0.000000 -0.751421
    27 3.746977 -0.410609 -0.412732 0.059306 0.032963 -1.212969
    28 1.601603 0.000011 0.000002 0.000015 -0.000003 -1.240786
    29 0.989258 -0.000001 0.000001 0.000000 0.000000 -0.869201
    30 3.821154 -0.351095 -1.235754 0.028344 0.038712 -1.048129
    31 1.680520 -0.000004 0.000007 0.000013 -0.000015 -1.444903
    32 1.252159 -0.000004 0.000006 0.000001 -0.000011 -0.823070
    33 3.625447 -0.293457 -2.100837 0.062512 0.046075 -0.257906
    34 1.723633 -0.000002 0.000000 0.000000 0.000000 -0.566697
    35 1.002930 0.000000 0.000001 0.000000 0.000000 -0.611497
    36 0.329446 -1.219232 -1.373023 0.374929 0.409839 -0.704770
    37 2.636719 -0.000004 0.000001 0.000000 0.000000 0.556744
    38 1.309570 0.000001 0.000000 0.000000 0.000000 0.431283
    39 -6.894162 -19.759446 -5.668409 1.678427 0.000027 -0.000001
    40 0.075562 -1.768556 0.900875 0.000000 0.000000 0.000000
    41 0.075562 -2.400394 3.259762 0.000000 0.000000 0.000000
    42 0.075563 -1.355474 5.355465 0.000000 0.000000 0.000000
    43 0.661621 1.201162 9.453125 1.570796 -0.000001 0.110042
    44 0.871582 1.617180 7.859375 0.000000 0.000000 0.000000
    45 19.893883 -17.572500 -7.710544 1.570796 0.000000 -1.570796
    46 19.893883 -17.572500 -14.437420 1.570796 0.000000 -1.570796
  time 13
    0 0.496109 -2.207105 -9.187780 -1.570797 -1.242223 -1.570843
    1 2.033348 1.000767 1.937660 3.108501 0.012305 1.243060
    2 6.028139 0.000008 0.000002 -2.735805 -0.237158 -0.517852
    3 11.692572 0.000164 -0.000016 -0.000139 -0.000084 -0.756011
    4 11.481691 -0.000080 -0.000043 -0.264156 0.600641 0.210735
    5 2.472946 -0.974466 -1.047441 -0.168005 0.005628 -1.719422
    6 1.284180 0.000004 -0.000002 -0.002342 0.009091 0.011495
    7 0.842285 -0.000004 0.000000 0.000507 -0.002524 -0.273496
    8 2.934486 -0.941548 -0.267377 -0.032557 0.015712 -1.347157
    9 1.609375 -0.000002 0.000002 0.000724 -0.000503 -0.904390
    10 1.024445 -0.000006 0.000002 -0.000383 -0.000965 0.466043
    11 3.125854 -0.902269 0.552540 -0.004702 0.027432 -1.013415
    12 1.666016 0.000000 -0.000002 0.001011 -0.000012 -1.475007
    13 1.243164 0.000002 -0.000002 -0.001501 -0.001857 0.886861
    14 3.027803 -0.845004 1.434032 0.035323 -0.016913 -0.934869
    15 1.707031 0.000002 0.000002 -0.000424 0.000104 -1.233972
    16 1.002013 -0.000004 0.000004 0.000244 0.000450 0.666183
    17 -0.365867 -1.555997 1.149379 -1.109456 -0.833565 -0.722027
    18 2.515625 0.000000 -0.000004 0.000000 0.000000 0.099261
    19 1.334961 0.000000 0.000000 -0.051019 0.105005 -0.130756
    20 2.033356 1.000772 -1.937609 -0.128272 0.173026 4.244766
    21 6.028136 0.000001 -0.000003 -0.467165 1.085876 -2.187380
    22 11.692558 0.000002 0.000001 0.003082 -0.005200 -1.480694
    23 11.481697 -0.000001 -0.000002 -0.545287 -0.185679 0.479710
    24 3.347942 -0.503652 0.454805 0.098446 -0.048191 -1.168581
    25 1.324282 0.000002 -0.000001 0.000004 0.000002 -1.042258
    26 0.819336 -0.000002 0.000000 0.000000 0.000000 -0.751421
    27 3.774321 -0.430141 -0.354136 0.060073 0.035240 -1.214504
    28 1.601603 0.000011 0.000002 0.000003 -0.000003 -1.240786
    29 0.989258 -0.000001 0.000001 0.000000 0.000000 -0.869201
    30 3.848498 -0.366720 -1.173252 0.029483 0.040846 -1.049649
    31 1.680520 -0.000004 0.000007 0.000001 -0.000015 -1.444969
    32 1.252159 -0.000004 0.000006 0.000001 -0.000011 -0.823070
    33 3.652791 -0.309082 -2.046148 0.064812 0.046758 -0.259357
    34 1.723633 -0.000002 0.000000 0.000000 0.000000 -0.566697
    35 1.002930 0.000000 0.000001 0.000000 0.000000 -0.611497
    36 0.360697 -1.227045 -1.318334 0.376821 0.411481 -0.705609
    37 2.636719 -0.000004 0.000001 0.000000 0.000000 0.556744
    38 1.309570 0.000001 0.000000 0.000000 0.000000 0.431283
    39 -6.718375 -19.087551 -5.781694 1.644293 0.000027 -0.000001
    40 0.075562 -1.768556 0.900875 0.000000 0.000000 0.000000
    41 0.075562 -2.400394 3.259762 0.000000 0.000000 0.000000
    42 0.075563 -1.355474 5.355465 0.000000 0.000000 0.000000
    43 0.661621 1.201162 9.453125 1.570796 -0.000001 0.110042
    44 0.871582 1.617180 7.859375 0.000000 0.000000 0.000000
    45 19.893883 -17.572500 -7.710544 1.570796 0.000000 -1.570796
    46 19.893883 -17.572500 -14.437420 1.570796 0.000000 -1.570796
  time 14
    0 0.496109 -2.043037 -9.172155 -1.570797 -1.258127 -1.570891
    1 2.033348 1.000767 1.937660 3.108501 0.012305 1.243060
    2 6.028139 0.000008 0.000002 -2.725265 -0.217521 -0.564425
    3 11.692572 0.000164 -0.000016 -0.000094 -0.000012 -0.839302
    4 11.481691 -0.000080 -0.000043 -0.261128 0.598590 0.231573
    5 2.515916 -0.853369 -1.047441 -0.166849 0.007689 -1.716382
    6 1.284180 0.000004 -0.000002 -0.002342 0.009091 0.011495
    7 0.842285 -0.000004 0.000000 0.000507 -0.002524 -0.273496
    8 2.969643 -0.824357 -0.263470 -0.030736 0.017210 -1.344096
    9 1.609375 -0.000002 0.000002 0.000724 -0.000503 -0.904390
    10 1.024445 -0.000006 0.000002 -0.000383 -0.000965 0.466043
    11 3.161012 -0.781171 0.556446 -0.002485 0.028259 -1.010330
    12 1.666016 0.000000 -0.000002 0.001011 -0.000012 -1.475007
    13 1.243164 0.000002 -0.000002 -0.001501 -0.001857 0.886861
    14 3.059054 -0.727813 1.437938 0.037600 -0.016278 -0.931848
    15 1.707031 0.000002 0.000002 -0.000424 0.000104 -1.233972
    16 1.002013 -0.000004 0.000004 0.000244 0.000450 0.666212
    17 -0.330710 -1.446619 1.141567 -1.105941 -0.833399 -0.721597
    18 2.515625 0.000000 -0.000004 0.000000 0.000000 0.099261
    19 1.334961 0.000000 0.000000 -0.051019 0.105005 -0.130756
    20 2.033356 1.000772 -1.937609 -0.128272 0.173026 4.244766
    21 6.028136 0.000001 -0.000003 -0.414782 1.085427 -2.111816
    22 11.692558 0.000002 0.000001 0.003286 -0.004793 -1.526624
    23 11.481697 -0.000001 -0.000002 -0.553344 -0.152591 0.487839
    24 3.367474 -0.464589 0.579809 0.100068 -0.045039 -1.169901
    25 1.324282 0.000002 -0.000001 0.000004 0.000002 -1.042258
    26 0.819336 -0.000002 0.000000 0.000000 0.000000 -0.751421
    27 3.797759 -0.391077 -0.236945 0.061547 0.038464 -1.215692
    28 1.597696 0.000011 0.000002 0.000003 -0.000003 -1.240847
    29 0.989258 -0.000001 0.000001 0.000000 0.000000 -0.869201
    30 3.871936 -0.323750 -1.056061 0.031460 0.043770 -1.050805
    31 1.672707 -0.000004 0.000007 0.000001 -0.000003 -1.444936
    32 1.252159 -0.000004 0.000006 0.000001 -0.000011 -0.823070
    33 3.676230 -0.262206 -1.928957 0.068297 0.047418 -0.260435
    34 1.723633 -0.000002 0.000000 0.000000 0.000000 -0.566697
    35 1.002930 0.000000 0.000001 0.000000 0.000000 -0.611497
    36 0.380228 -1.180168 -1.212862 0.380020 0.413567 -0.705525
    37 2.636719 -0.000004 0.000001 0.000000 0.000000 0.556744
    38 1.309570 0.000001 0.000000 0.000000 0.000000 0.431283
    39 -6.562121 -18.466438 -5.894979 1.613864 0.000027 -0.000001
    40 0.075562 -1.768556 0.900875 0.000000 0.000000 0.000000
    41 0.075562 -2.400394 3.259762 0.000000 0.000000 0.000000
    42 0.075563 -1.355474 5.355465 0.000000 0.000000 0.000000
    43 0.661621 1.201162 9.453125 1.570796 -0.000001 0.110042
    44 0.871582 1.617180 7.859375 0.000000 0.000000 0.000000
    45 19.893883 -17.572500 -7.710544 1.570796 0.000000 -1.570796
    46 19.893883 -17.572500 -14.437420 1.570796 0.000000 -1.570796
  time 15
    0 0.496109 -1.871157 -9.164342 -1.570797 -1.274258 -1.570843
    1 2.033348 1.000767 1.937660 3.108501 0.012305 1.243060
    2 6.028139 0.000008 0.000002 -2.721624 -0.200247 -0.592236
    3 11.692572 0.000164 -0.000016 -0.000184 -0.000048 -0.897670
    4 11.481691 -0.000080 -0.000043 -0.262358 0.601995 0.246915
    5 2.601856 -0.642425 -1.106036 -0.166338 0.010230 -1.712786
    6 1.284180 0.000004 -0.000002 -0.002342 0.009091 0.011495
    7 0.842285 -0.000004 0.000000 0.000507 -0.002524 -0.273496
    8 3.059490 -0.613413 -0.325972 -0.029321 0.019391 -1.340484
    9 1.609375 -0.000002 0.000002 0.000724 -0.000503 -0.904390
    10 1.020539 -0.000006 0.000002 -0.000383 -0.000965 0.466043
    11 3.250858 -0.574134 0.497850 -0.000448 0.029853 -1.006687
    12 1.666016 0.000000 -0.000002 0.001011 -0.000012 -1.475007
    13 1.243164 0.000002 -0.000002 -0.001501 -0.001857 0.886861
    14 3.144994 -0.520775 1.379343 0.039770 -0.014840 -0.928276
    15 1.707031 0.000002 0.000002 -0.000424 0.000104 -1.233972
    16 1.002013 -0.000004 0.000004 0.000244 0.000450 0.666183
    17 -0.240863 -1.251301 1.082971 -1.102356 -0.832466 -0.720629
    18 2.515625 0.000000 -0.000004 0.000000 0.000000 0.099261
    19 1.334961 0.000000 0.000000 -0.051019 0.105005 -0.130756
    20 2.033356 1.000772 -1.937609 -0.128272 0.173026 4.244766
    21 6.028136 0.000001 -0.000003 -0.389977 1.081801 -2.074002
    22 11.692558 0.000002 0.000001 0.003382 -0.004469 -1.559371
    23 11.481697 -0.000001 -0.000002 -0.561847 -0.131549 0.501530
    24 3.363567 -0.355210 0.786847 0.102083 -0.040869 -1.170817
    25 1.324282 0.000002 -0.000001 0.000004 0.000002 -1.042239
    26 0.819336 -0.000002 0.000000 0.000000 0.000000 -0.751421
    27 3.793853 -0.277792 -0.026001 0.063368 0.042730 -1.216442
    28 1.605509 0.000011 0.000002 0.000003 -0.000003 -1.240786
    29 0.989258 -0.000001 0.000001 0.000000 0.000000 -0.869201
    30 3.868030 -0.210466 -0.845117 0.033977 0.047689 -1.051518
    31 1.680520 -0.000004 0.000007 0.000001 -0.000015 -1.444936
    32 1.252159 -0.000004 0.000006 0.000001 -0.000011 -0.823070
    33 3.672323 -0.148921 -1.718013 0.072854 0.048400 -0.261046
    34 1.723633 -0.000002 0.000000 0.000000 0.000000 -0.566697
    35 1.002930 0.000000 0.000001 0.000000 0.000000 -0.611497
    36 0.376322 -1.062977 -1.001918 0.383964 0.416407 -0.704758
    37 2.636719 -0.000004 0.000001 0.000000 0.000000 0.556744
    38 1.309570 0.000001 0.000000 0.000000 0.000000 0.431283
    39 -6.444929 -17.970329 -5.930136 1.588064 0.000027 -0.000001
    40 0.075562 -1.768556 0.900875 0.000000 0.000000 0.000000
    41 0.075562 -2.400394 3.259762 0.000000 0.000000 0.000000
    42 0.075563 -1.355474 5.355465 0.000000 0.000000 0.000000
    43 0.661621 1.201162 9.453125 1.570796 -0.000001 0.110042
    44 0.871582 1.617180 7.859375 0.000000 0.000000 0.000000
    45 19.893883 -17.572500 -7.710544 1.570796 0.000000 -1.570796
    46 19.893883 -17.572500 -14.437420 1.570796 0.000000 -1.570796
  time 16
    0 0.496109 -1.710996 -9.152623 -1.570797 -1.290354 -1.570843
    1 2.033348 1.000767 1.937660 3.108501 0.012305 1.243060
    2 6.028139 0.000008 0.000002 -2.730631 -0.188041 -0.582616
    3 11.692572 0.000164 -0.000016 -0.000184 0.000288 -0.910491
    4 11.481691 -0.000080 -0.000043 -0.271064 0.615731 0.252716
    5 2.781549 -0.294758 -1.274010 -0.166822 0.013190 -1.707634
    6 1.284180 0.000004 -0.000002 -0.002342 0.009091 0.011495
    7 0.842285 -0.000004 0.000000 0.000507 -0.002524 -0.273496
    8 3.239183 -0.265746 -0.493946 -0.028698 0.022327 -1.335311
    9 1.609375 -0.000002 0.000002 0.000724 -0.000503 -0.904390
    10 1.024445 -0.000006 0.000002 -0.000383 -0.000965 0.466043
    11 3.426645 -0.226467 0.325970 0.001110 0.032429 -1.001487
    12 1.666016 0.000000 -0.000002 0.001011 -0.000012 -1.475007
    13 1.243164 0.000002 -0.000002 -0.001501 -0.001857 0.886861
    14 3.324687 -0.177015 1.211369 0.041507 -0.012395 -0.923193
    15 1.707031 0.000002 0.000002 -0.000424 0.000104 -1.233972
    16 1.002013 -0.000004 0.000004 0.000244 0.000450 0.666183
    17 -0.057264 -0.927072 0.903278 -1.099075 -0.830433 -0.717914
    18 2.515625 0.000000 -0.000004 0.000000 0.000000 0.099261
    19 1.334961 0.000000 0.000000 -0.051019 0.105005 -0.130756
    20 2.033356 1.000772 -1.937609 -0.128272 0.173026 4.244766
    21 6.028136 0.000001 -0.000003 -0.422126 1.073756 -2.113209
    22 11.692558 0.000002 0.000001 0.003346 -0.004218 -1.565597
    23 11.481697 -0.000001 -0.000002 -0.568613 -0.130050 0.527530
    24 3.320597 -0.120828 1.130607 0.103962 -0.035452 -1.172478
    25 1.324282 0.000002 -0.000001 0.000004 0.000002 -1.042239
    26 0.819336 -0.000002 0.000000 0.000000 0.000000 -0.751421
    27 3.750883 -0.031691 0.317759 0.064986 0.048231 -1.217959
    28 1.601603 0.000011 0.000002 0.000003 -0.000015 -1.240816
    29 0.989258 -0.000001 0.000001 0.000000 0.000000 -0.869201
    30 3.825060 0.035636 -0.501357 0.036482 0.052854 -1.052990
    31 1.680520 -0.000004 0.000007 0.000001 -0.000027 -1.444969
    32 1.252159 -0.000004 0.000006 0.000001 -0.000011 -0.823070
    33 3.629353 0.104993 -1.366439 0.078282 0.050246 -0.262365
    34 1.723633 -0.000002 0.000000 0.000000 0.000000 -0.566697
    35 1.002930 0.000000 0.000001 0.000000 0.000000 -0.611497
    36 0.329446 -0.801251 -0.662064 0.388496 0.420398 -0.704531
    37 2.636719 -0.000004 0.000001 0.000000 0.000000 0.556744
    38 1.309570 0.000001 0.000000 0.000000 0.000000 0.431283
    39 -6.394147 -17.739853 -5.754349 1.568156 0.000027 -0.000001
    40 0.075562 -1.768556 0.900875 0.000000 0.000000 0.000000
    41 0.075562 -2.400394 3.259762 0.000000 0.000000 0.000000
    42 0.075563 -1.355474 5.355465 0.000000 0.000000 0.000000
    43 0.661621 1.201162 9.453125 1.570796 -0.000001 0.110042
    44 0.871582 1.617180 7.859375 0.000000 0.000000 0.000000
    45 19.893883 -17.572500 -7.710544 1.570796 0.000000 -1.570796
    46 19.893883 -17.572500 -14.437420 1.570796 0.000000 -1.570796
  time 17
    0 0.496109 -1.543022 -9.140904 -1.570797 -1.306137 -1.570891
    1 2.033348 1.000767 1.937660 3.108501 0.012305 1.243060
    2 6.028139 0.000008 0.000002 -2.742033 -0.185187 -0.555187
    3 11.692572 0.000164 -0.000016 -0.000094 0.000000 -0.883098
    4 11.481691 -0.000080 -0.000043 -0.283366 0.630318 0.241267
    5 2.922178 -0.033031 -1.406827 -0.166203 0.016797 -1.702148
    6 1.284180 0.000004 -0.000002 -0.002342 0.009091 0.011495
    7 0.842285 -0.000004 0.000000 0.000507 -0.002524 -0.273496
    8 3.375906 0.003793 -0.622856 -0.026817 0.025455 -1.329801
    9 1.609375 -0.000002 0.000002 0.000724 -0.000503 -0.904390
    10 1.024445 -0.000006 0.000002 -0.000383 -0.000965 0.466043
    11 3.563368 0.031353 0.200966 0.003926 0.034754 -0.995905
    12 1.666016 0.000000 -0.000002 0.001011 -0.000012 -1.475007
    13 1.243164 0.000002 -0.000002 -0.001501 -0.001857 0.886861
    14 3.461410 0.076899 1.078552 0.044504 -0.010286 -0.917732
    15 1.707031 0.000002 0.000002 -0.000424 0.000104 -1.233972
    16 1.002013 -0.000004 0.000004 0.000244 0.000450 0.666183
    17 0.079459 -0.680971 0.766555 -1.094108 -0.828961 -0.716112
    18 2.515625 0.000000 -0.000004 0.000000 0.000000 0.099261
    19 1.334961 0.000000 0.000000 -0.051019 0.105005 -0.130756
    20 2.033356 1.000772 -1.937609 -0.128272 0.173026 4.244766
    21 6.028136 0.000001 -0.000003 -0.468289 1.062291 -2.175916
    22 11.692558 0.000002 0.000001 0.003262 -0.003978 -1.546764
    23 11.481697 -0.000001 -0.000002 -0.577516 -0.140726 0.541879
    24 3.285440 0.054958 1.384521 0.106997 -0.029699 -1.172201
    25 1.324282 0.000002 -0.000001 0.000004 0.000002 -1.042258
    26 0.819336 -0.000002 0.000000 0.000000 0.000000 -0.751421
    27 3.711819 0.140189 0.571673 0.067767 0.054104 -1.217465
    28 1.601603 0.000011 0.000002 0.000003 -0.000015 -1.240816
    29 0.989258 -0.000001 0.000001 0.000000 0.000000 -0.869201
    30 3.789903 0.219235 -0.243536 0.040185 0.058187 -1.052420
    31 1.680520 -0.000004 0.000007 0.000001 -0.000027 -1.444936
    32 1.252159 -0.000004 0.000006 0.000001 -0.000011 -0.823070
    33 3.594196 0.296405 -1.108619 0.084696 0.051361 -0.261682
    34 1.723633 -0.000002 0.000000 0.000000 0.000000 -0.566697
    35 1.002930 0.000000 0.000001 0.000000 0.000000 -0.611497
    36 0.294288 -0.617651 -0.404244 0.394280 0.424137 -0.701774
    37 2.636719 -0.000004 0.000001 0.000000 0.000000 0.556744
    38 1.309570 0.000001 0.000000 0.000000 0.000000 0.431283
    39 -6.394147 -17.712509 -5.449653 1.554604 0.000027 -0.000001
    40 0.075562 -1.768556 0.900875 0.000000 0.000000 0.000000
    41 0.075562 -2.400394 3.259762 0.000000 0.000000 0.000000
    42 0.075563 -1.355474 5.355465 0.000000 0.000000 0.000000
    43 0.661621 1.201162 9.453125 1.570796 -0.000001 0.110042
    44 0.871582 1.617180 7.859375 0.000000 0.000000 0.000000
    45 19.893883 -17.572500 -7.710544 1.570796 0.000000 -1.570796
    46 19.893883 -17.572500 -14.437420 1.570796 0.000000 -1.570796
  time 18
    0 0.496109 -1.386767 -9.140904 -1.570797 -1.321382 -1.570891
    1 2.033348 1.000767 1.937660 3.108501 0.012305 1.243060
    2 6.028139 0.000008 0.000002 -2.744716 -0.188632 -0.543948
    3 11.692572 0.000164 -0.000016 -0.000094 0.000000 -0.847504
    4 11.481691 -0.000080 -0.000043 -0.293870 0.631479 0.215849
    5 2.914366 -0.001780 -1.399014 -0.166472 0.019889 -1.697218
    6 1.284180 0.000004 -0.000002 -0.002342 0.009091 0.011495
    7 0.842285 -0.000004 0.000000 0.000507 -0.002524 -0.273496
    8 3.368093 0.035044 -0.618950 -0.025930 0.028440 -1.324811
    9 1.609375 -0.000002 0.000002 0.000724 -0.000503 -0.904390
    10 1.020539 -0.000006 0.000002 -0.000383 -0.000965 0.466043
    11 3.559461 0.062604 0.200966 0.005736 0.037283 -0.990881
    12 1.666016 0.000000 -0.000002 0.001011 -0.000012 -1.475007
    13 1.243164 0.000002 -0.000002 -0.001501 -0.001857 0.886861
    14 3.453597 0.104244 1.082459 0.046517 -0.007913 -0.912795
    15 1.707031 0.000002 0.000002 -0.000424 0.000104 -1.233972
    16 1.002013 -0.000004 0.000004 0.000244 0.000450 0.666183
    17 0.079459 -0.669252 0.770462 -1.090499 -0.827032 -0.713800
    18 2.515625 0.000000 -0.000004 0.000000 0.000000 0.099261
    19 1.334961 0.000000 0.000000 -0.051019 0.105005 -0.130756
    20 2.033356 1.000772 -1.937609 -0.128272 0.173026 4.244766
    21 6.028136 0.000001 -0.000003 -0.481479 1.053072 -2.194347
    22 11.692558 0.000002 0.000001 0.002974 -0.003642 -1.526572
    23 11.481697 -0.000001 -0.000002 -0.589180 -0.147369 0.539148
    24 3.285440 0.035426 1.411866 0.109343 -0.024354 -1.172521
    25 1.324282 0.000002 -0.000001 0.000004 0.000002 -1.042258
    26 0.819336 -0.000002 0.000000 0.000000 0.000000 -0.751421
    27 3.711819 0.124564 0.602924 0.069876 0.059557 -1.217593
    28 1.601603 0.000011 0.000002 0.000003 -0.000003 -1.240756
    29 0.989258 -0.000001 0.000001 0.000000 0.000000 -0.869201
    30 3.789903 0.207516 -0.212285 0.043145 0.063221 -1.052500
    31 1.680520 0.003903 0.000007 0.000001 -0.000015 -1.444969
    32 1.252159 -0.000004 0.000006 0.000001 -0.000011 -0.823098
    33 3.594196 0.292499 -1.081275 0.090352 0.052799 -0.261646
    34 1.723633 -0.000002 0.000000 0.000000 0.000000 -0.566697
    35 1.002930 0.000000 0.000001 0.000000 0.000000 -0.611497
    36 0.302101 -0.625464 -0.376899 0.399237 0.427852 -0.699976
    37 2.636719 -0.000004 0.000001 0.000000 0.000000 0.556744
    38 1.309570 0.000001 0.000000 0.000000 0.000000 0.431283
    39 -6.394147 -17.692977 -5.258241 1.546860 0.000027 -0.000001
    40 0.075562 -1.768556 0.900875 0.000000 0.000000 0.000000
    41 0.075562 -2.400394 3.259762 0.000000 0.000000 0.000000
    42 0.075563 -1.355474 5.355465 0.000000 0.000000 0.000000
    43 0.661621 1.201162 9.453125 1.570796 -0.000001 0.110042
    44 0.871582 1.617180 7.859375 0.000000 0.000000 0.000000
    45 19.893883 -17.572500 -7.710544 1.570796 0.000000 -1.570796
    46 19.893883 -17.572500 -14.437420 1.570796 0.000000 -1.570796
  time 19
    0 0.496109 -1.238325 -9.140904 -1.570797 -1.335775 -1.570891
    1 2.033348 1.000767 1.937660 3.108501 0.012305 1.243060
    2 6.028139 0.000008 0.000002 -2.745674 -0.191289 -0.538234
    3 11.692572 0.000164 -0.000016 -0.000139 -0.000012 -0.810556
    4 11.481691 -0.000080 -0.000043 -0.304848 0.632136 0.187301
    5 2.914366 0.013845 -1.402920 -0.166499 0.022490 -1.693029
    6 1.284180 0.000004 -0.000002 -0.002342 0.009091 0.011495
    7 0.842285 -0.000004 0.000000 0.000507 -0.002524 -0.273496
    8 3.368093 0.046763 -0.622856 -0.025007 0.030860 -1.320618
    9 1.609375 -0.000002 0.000002 0.000724 -0.000503 -0.904390
    10 1.020539 -0.000006 0.000002 -0.000383 -0.000965 0.466043
    11 3.555555 0.074324 0.200966 0.007402 0.039273 -0.986621
    12 1.666016 0.000000 -0.000002 0.001011 -0.000012 -1.475007
    13 1.243164 0.000002 -0.000002 -0.001501 -0.001857 0.886861
    14 3.449691 0.112057 1.082459 0.048327 -0.006055 -0.908612
    15 1.707031 0.000002 0.000002 -0.000424 0.000104 -1.233972
    16 1.002013 -0.000004 0.000004 0.000244 0.000450 0.666183
    17 0.079459 -0.673158 0.762649 -1.087335 -0.825580 -0.711945
    18 2.515625 0.000000 -0.000004 0.000000 0.000000 0.099261
    19 1.334961 0.000000 0.000000 -0.051019 0.105005 -0.130756
    20 2.033356 1.000772 -1.937609 -0.128225 0.173026 4.244806
    21 6.028136 0.000001 -0.000003 -0.489797 1.043196 -2.204545
    22 11.692558 0.000002 0.000001 0.002603 -0.003750 -1.507425
    23 11.481697 -0.000001 -0.000002 -0.600487 -0.153444 0.536350
    24 3.281534 0.019801 1.431398 0.111591 -0.020051 -1.172648
    25 1.324282 0.000002 -0.000001 0.000004 0.000002 -1.042258
    26 0.819336 -0.000002 0.000000 0.000000 0.000000 -0.751421
    27 3.711819 0.112844 0.618550 0.071925 0.063943 -1.217538
    28 1.601603 0.000011 0.000002 0.000015 -0.000003 -1.240847
    29 0.989258 -0.000001 0.000001 0.000000 0.000000 -0.869201
    30 3.789903 0.203610 -0.200566 0.045902 0.067212 -1.052389
    31 1.680520 -0.000004 0.000007 0.000001 -0.000027 -1.444936
    32 1.252159 -0.000004 0.000006 0.000001 -0.000011 -0.823070
    33 3.594196 0.288592 -1.065649 0.095138 0.053650 -0.261454
    34 1.723633 -0.000002 0.000000 0.000000 0.000000 -0.566697
    35 1.002930 0.000000 0.000001 0.000000 0.000000 -0.611497
    36 0.298195 -0.629370 -0.372993 0.403609 0.430657 -0.698299
    37 2.636719 -0.000004 0.000001 0.000000 0.000000 0.556744
    38 1.309570 0.000001 0.000000 0.000000 0.000000 0.431283
    39 -6.394147 -17.689070 -5.148862 1.544040 0.000027 -0.000001
    40 0.075562 -1.768556 0.900875 0.000000 0.000000 0.000000
    41 0.075562 -2.400394 3.259762 0.000000 0.000000 0.000000
    42 0.075563 -1.355474 5.355465 0.000000 0.000000 0.000000
    43 0.661621 1.201162 9.453125 1.570796 -0.000001 0.110042
    44 0.871582 1.617180 7.859375 0.000000 0.000000 0.000000
    45 19.893883 -17.572500 -7.710544 1.570796 0.000000 -1.570796
    46 19.893883 -17.572500 -14.437420 1.570796 0.000000 -1.570796
  time 20
    0 0.496109 -1.101602 -9.136998 -1.570797 -1.349114 -1.570891
    1 2.033348 1.000767 1.937660 3.108501 0.012305 1.243060
    2 6.028139 0.000008 0.000002 -2.745674 -0.193406 -0.535853
    3 11.692572 0.000164 -0.000016 -0.000094 0.000228 -0.773927
    4 11.481691 -0.000080 -0.000043 -0.315446 0.631904 0.159059
    5 2.914366 0.029471 -1.402920 -0.166930 0.024431 -1.689841
    6 1.284180 0.000004 -0.000002 -0.002342 0.009091 0.011495
    7 0.842285 -0.000004 0.000000 0.000507 -0.002524 -0.273496
    8 3.368093 0.062389 -0.618950 -0.024683 0.032838 -1.317404
    9 1.609375 -0.000002 0.000002 0.000724 -0.000503 -0.904390
    10 1.024445 -0.000006 0.000002 -0.000383 -0.000965 0.466043
    11 3.555555 0.093855 0.200966 0.008349 0.041034 -0.983419
    12 1.666016 0.000000 -0.000002 0.001011 -0.000012 -1.475007
    13 1.243164 0.000002 -0.000002 -0.001501 -0.001857 0.886861
    14 3.449691 0.127682 1.082459 0.049393 -0.004377 -0.905446
    15 1.707031 0.000002 0.000002 -0.000424 0.000104 -1.233972
    16 1.002013 -0.000004 0.000004 0.000244 0.000450 0.666183
    17 0.079459 -0.665345 0.766555 -1.085297 -0.824128 -0.710278
    18 2.515625 0.000000 -0.000004 0.000000 0.000000 0.099261
    19 1.334961 0.000000 0.000000 -0.051019 0.105005 -0.130756
    20 2.033356 1.000772 -1.937609 -0.128272 0.173026 4.244766
    21 6.028136 0.000001 -0.000003 -0.494818 1.033078 -2.209042
    22 11.692558 0.000002 0.000001 0.002207 -0.003079 -1.490005
    23 11.481697 -0.000001 -0.000002 -0.611794 -0.160734 0.534968
    24 3.285440 0.008082 1.447023 0.112881 -0.016552 -1.172563
    25 1.324282 0.000002 -0.000001 0.000004 0.000002 -1.042239
    26 0.819336 -0.000002 0.000000 0.000000 0.000000 -0.751421
    27 3.711819 0.105032 0.634175 0.073064 0.067514 -1.217374
    28 1.601603 0.000011 0.000002 0.000003 -0.000003 -1.240816
    29 0.989258 -0.000001 0.000001 0.000000 0.000000 -0.869201
    30 3.789903 0.195797 -0.181034 0.047603 0.070543 -1.052183
    31 1.680520 -0.000004 -0.003899 0.000001 -0.000027 -1.444969
    32 1.252159 -0.000004 0.000006 0.000001 -0.000011 -0.823070
    33 3.594196 0.288592 -1.050024 0.098709 0.054788 -0.261178
    34 1.723633 -0.000002 0.000000 0.000000 0.000000 -0.566697
    35 1.002930 0.000000 0.000001 0.000000 0.000000 -0.611497
    36 0.294288 -0.633277 -0.361274 0.406620 0.433173 -0.696908
    37 2.636719 -0.000004 0.000001 0.000000 0.000000 0.556744
    38 1.309570 0.000001 0.000000 0.000000 0.000000 0.431283
    39 -6.394147 -17.692977 -5.109799 1.544882 0.000027 -0.000001
    40 0.075562 -1.768556 0.900875 0.000000 0.000000 0.000000
    41 0.075562 -2.400394 3.259762 0.000000 0.000000 0.000000
    42 0.075563 -1.355474 5.355465 0.000000 0.000000 0.000000
    43 0.661621 1.201162 9.453125 1.570796 -0.000001 0.110042
    44 0.871582 1.617180 7.859375 0.000000 0.000000 0.000000
    45 19.893883 -17.572500 -7.710544 1.570796 0.000000 -1.570796
    46 19.893883 -17.572500 -14.437420 1.570796 0.000000 -1.570796
  time 21
    0 0.496109 -0.980505 -9.136998 -1.570797 -1.361123 -1.570843
    1 2.033348 1.000767 1.937660 3.108501 0.012305 1.243060
    2 6.028139 0.000008 0.000002 -2.744428 -0.195276 -0.537377
    3 11.692572 0.000164 -0.000016 -0.000184 0.000204 -0.739050
    4 11.481691 -0.000080 -0.000043 -0.325383 0.631517 0.130817
    5 2.910459 0.033377 -1.399014 -0.166930 0.025918 -1.687357
    6 1.284180 0.000004 -0.000002 -0.002342 0.009091 0.011495
    7 0.842285 -0.000004 0.000000 0.000507 -0.002524 -0.273496
    8 3.364187 0.062389 -0.618950 -0.024168 0.034216 -1.314894
    9 1.609375 -0.000002 0.000002 0.000724 -0.000503 -0.904390
    10 1.020539 -0.000006 0.000002 -0.000383 -0.000965 0.466043
    11 3.555555 0.097762 0.204873 0.009296 0.042161 -0.980863
    12 1.666016 0.000000 -0.000002 0.001011 -0.000012 -1.475007
    13 1.243164 0.000002 -0.000002 -0.001501 -0.001857 0.886861
    14 3.449691 0.131589 1.086365 0.050436 -0.003323 -0.902948
    15 1.707031 0.000002 0.000002 -0.000424 0.000104 -1.233972
    16 1.002013 -0.000004 0.000004 0.000244 0.000450 0.666183
    17 0.079459 -0.673158 0.762649 -1.083516 -0.823299 -0.709094
    18 2.515625 0.000000 -0.000004 0.000000 0.000000 0.099261
    19 1.334961 0.000000 0.000000 -0.051019 0.105005 -0.130756
    20 2.033356 1.000772 -1.937609 -0.128272 0.173026 4.244766
    21 6.028136 0.000001 -0.000003 -0.496092 1.023479 -2.208156
    22 11.692558 0.000002 0.000001 0.001752 -0.002732 -1.474783
    23 11.481697 -0.000001 -0.000002 -0.622077 -0.166835 0.533750
    24 3.281534 0.000269 1.443117 0.114355 -0.014191 -1.172606
    25 1.324282 0.000002 -0.000001 0.000004 0.000002 -1.042258
    26 0.819336 -0.000002 0.000000 0.000000 0.000000 -0.751421
    27 3.711819 0.101125 0.638082 0.074430 0.069935 -1.217282
    28 1.601603 0.000011 0.000002 0.000003 -0.000015 -1.240786
    29 0.989258 -0.000001 0.000001 0.000000 0.000000 -0.869201
    30 3.789903 0.191890 -0.181034 0.049353 0.072713 -1.052056
    31 1.680520 -0.000004 0.000007 0.000001 -0.000027 -1.444936
    32 1.252159 -0.000004 0.000006 0.000001 -0.000011 -0.823070
    33 3.594196 0.284686 -1.046117 0.101480 0.055076 -0.261034
    34 1.723633 -0.000002 0.000000 0.000000 0.000000 -0.566697
    35 1.002930 0.000000 0.000001 0.000000 0.000000 -0.611497
    36 0.294288 -0.637183 -0.357367 0.409259 0.434612 -0.695818
    37 2.636719 -0.000004 0.000001 0.000000 0.000000 0.556744
    38 1.309570 0.000001 0.000000 0.000000 0.000000 0.431283
    39 -6.394147 -17.700789 -5.121518 1.548501 0.000027 -0.000001
    40 0.075562 -1.768556 0.900875 0.000000 0.000000 0.000000
    41 0.075562 -2.400394 3.259762 0.000000 0.000000 0.000000
    42 0.075563 -1.355474 5.355465 0.000000 0.000000 0.000000
    43 0.661621 1.201162 9.453125 1.570796 -0.000001 0.110042
    44 0.871582 1.617180 7.859375 0.000000 0.000000 0.000000
    45 19.893883 -17.572500 -7.710544 1.570796 0.000000 -1.570796
    46 19.893883 -17.572500 -14.437420 1.570796 0.000000 -1.570796
  time 22
    0 0.496109 -0.867220 -9.140904 -1.570797 -1.371501 -1.570843
    1 2.033348 1.000767 1.937660 3.108501 0.012305 1.243060
    2 6.028139 0.000008 0.000002 -2.742799 -0.197048 -0.540234
    3 11.692572 0.000164 -0.000016 -0.000094 0.000216 -0.706959
    4 11.481691 -0.000080 -0.000043 -0.333710 0.630782 0.105705
    5 2.910459 0.033377 -1.399014 -0.167172 0.026756 -1.686245
    6 1.284180 0.000004 -0.000002 -0.002342 0.009091 0.011495
    7 0.842285 -0.000004 0.000000 0.000507 -0.002524 -0.273496
    8 3.364187 0.066295 -0.618950 -0.024072 0.035091 -1.313792
    9 1.609375 -0.000002 0.000002 0.000724 -0.000503 -0.904390
    10 1.020539 -0.000006 0.000002 -0.000383 -0.000965 0.466043
    11 3.551648 0.097762 0.208779 0.009655 0.042964 -0.979747
    12 1.666016 0.000000 -0.000002 0.001011 -0.000012 -1.475007
    13 1.243164 0.000002 -0.000002 -0.001501 -0.001857 0.886861
    14 3.445784 0.131589 1.090271 0.050843 -0.002556 -0.901845
    15 1.707031 0.000002 0.000002 -0.000424 0.000104 -1.233972
    16 1.002013 -0.000004 0.000004 0.000244 0.000450 0.666183
    17 0.079459 -0.677064 0.762649 -1.082672 -0.822614 -0.708584
    18 2.515625 0.000000 -0.000004 0.000000 0.000000 0.099261
    19 1.334961 0.000000 0.000000 -0.051019 0.105005 -0.130756
    20 2.033356 1.000772 -1.937609 -0.128272 0.173026 4.244766
    21 6.028136 0.000001 -0.000003 -0.495792 1.015226 -2.204292
    22 11.692558 0.000002 0.000001 0.001380 -0.002348 -1.462385
    23 11.481697 -0.000001 -0.000002 -0.630580 -0.173090 0.534112
    24 3.285440 -0.007544 1.447023 0.114515 -0.012465 -1.172861
    25 1.324282 0.000002 -0.000001 0.000004 0.000002 -1.042258
    26 0.819336 -0.000002 0.000000 0.000000 0.000000 -0.751421
    27 3.711819 0.097219 0.638082 0.074526 0.071661 -1.217538
    28 1.601603 0.000011 0.000002 0.000003 -0.000003 -1.240756
    29 0.989258 -0.000001 0.000001 0.000000 0.000000 -0.869201
    30 3.789903 0.187984 -0.181034 0.049737 0.074390 -1.052294
    31 1.680520 -0.000004 0.000007 0.000013 -0.000015 -1.444969
    32 1.252159 -0.000004 0.000006 0.000001 -0.000011 -0.823070
    33 3.594196 0.284686 -1.046117 0.102937 0.055987 -0.261214
    34 1.723633 -0.000002 0.000000 0.000000 0.000000 -0.566697
    35 1.002930 0.000000 0.000001 0.000000 0.000000 -0.611497
    36 0.294288 -0.641089 -0.361274 0.410272 0.436038 -0.695650
    37 2.636719 -0.000004 0.000001 0.000000 0.000000 0.556744
    38 1.309570 0.000001 0.000000 0.000000 0.000000 0.431283
    39 -6.394147 -17.712509 -5.172300 1.553762 0.000027 -0.000001
    40 0.075562 -1.768556 0.900875 0.000000 0.000000 0.000000
    41 0.075562 -2.400394 3.259762 0.000000 0.000000 0.000000
    42 0.075563 -1.355474 5.355465 0.000000 0.000000 0.000000
    43 0.661621 1.201162 9.453125 1.570796 -0.000001 0.110042
    44 0.871582 1.617180 7.859375 0.000000 0.000000 0.000000
    45 19.893883 -17.572500 -7.710544 1.570796 0.000000 -1.570796
    46 19.893883 -17.572500 -14.437420 1.570796 0.000000 -1.570796
  time 23
    0 0.496109 -0.781280 -9.140904 -1.570797 -1.380034 -1.570843
    1 2.033348 1.000767 1.937660 3.108501 0.012305 1.243060
    2 6.028139 0.000008 0.000002 -2.741171 -0.198672 -0.543758
    3 11.692572 0.000164 -0.000016 -0.000094 0.000204 -0.678452
    4 11.481691 -0.000080 -0.000043 -0.340335 0.630240 0.083645
    5 2.906553 0.029471 -1.399014 -0.167145 0.027116 -1.685689
    6 1.284180 0.000004 -0.000002 -0.002342 0.009091 0.011495
    7 0.842285 -0.000004 0.000000 0.000507 -0.002524 -0.273496
    8 3.364187 0.062389 -0.618950 -0.023916 0.035403 -1.313241
    9 1.609375 -0.000002 0.000002 0.000724 -0.000503 -0.904390
    10 1.024445 -0.000006 0.000002 -0.000383 -0.000965 0.466043
    11 3.551648 0.089949 0.204873 0.009907 0.043216 -0.979189
    12 1.666016 0.000000 -0.000002 0.001011 -0.000012 -1.475007
    13 1.243164 0.000002 -0.000002 -0.001501 -0.001857 0.886861
    14 3.445784 0.123776 1.086365 0.051131 -0.002316 -0.901293
    15 1.707031 0.000002 0.000002 -0.000424 0.000104 -1.233972
    16 1.002013 -0.000004 0.000004 0.000244 0.000450 0.666183
    17 0.079459 -0.684877 0.766555 -1.082227 -0.822448 -0.708342
    18 2.515625 0.000000 -0.000004 0.000000 0.000000 0.099261
    19 1.334961 0.000000 0.000000 -0.051019 0.105005 -0.130756
    20 2.033356 1.000772 -1.937609 -0.128272 0.173026 4.244806
    21 6.028136 0.000001 -0.000003 -0.493844 1.007905 -2.198591
    22 11.692558 0.000002 0.000001 0.001057 -0.001797 -1.452393
    23 11.481697 -0.000001 -0.000002 -0.637702 -0.178286 0.534211
    24 3.285440 -0.007544 1.439210 0.114970 -0.011962 -1.172691
    25 1.324282 0.000002 -0.000001 0.000004 0.000002 -1.042258
    26 0.819336 -0.000002 0.000000 0.000000 0.000000 -0.751421
    27 3.711819 0.093313 0.630269 0.074958 0.072200 -1.217319
    28 1.597696 0.000011 0.000002 0.000003 -0.000003 -1.240816
    29 0.989258 -0.000001 0.000001 0.000000 0.000000 -0.869201
    30 3.789903 0.187984 -0.188847 0.050240 0.074858 -1.052056
    31 1.680520 -0.000004 0.000007 0.000001 -0.000027 -1.445002
    32 1.252159 -0.000004 0.000006 0.000001 -0.000011 -0.823070
    33 3.594196 0.284686 -1.050024 0.103623 0.055951 -0.260975
    34 1.723633 -0.000002 0.000000 0.000000 0.000000 -0.566697
    35 1.002930 0.000000 0.000001 0.000000 0.000000 -0.611497
    36 0.294288 -0.641089 -0.361274 0.410992 0.436301 -0.695111
    37 2.636719 -0.000004 0.000001 0.000000 0.000000 0.556744
    38 1.309570 0.000001 0.000000 0.000000 0.000000 0.431283
    39 -6.394147 -17.724228 -5.234802 1.559697 0.000027 -0.000001
    40 0.075562 -1.768556 0.900875 0.000000 0.000000 0.000000
    41 0.075562 -2.400394 3.259762 0.000000 0.000000 0.000000
    42 0.075563 -1.355474 5.355465 0.000000 0.000000 0.000000
    43 0.661621 1.201162 9.453125 1.570796 -0.000001 0.110042
    44 0.871582 1.617180 7.859375 0.000000 0.000000 0.000000
    45 19.893883 -17.572500 -7.710544 1.570796 0.000000 -1.570796
    46 19.893883 -17.572500 -14.437420 1.570796 0.000000 -1.570796
  time 24
    0 0.496109 -0.718778 -9.140904 -1.570797 -1.386470 -1.570891
    1 2.033348 1.000767 1.937660 3.108501 0.012305 1.243060
    2 6.028139 0.000008 0.000002 -2.739542 -0.200099 -0.547187
    3 11.692572 0.000164 -0.000016 -0.000094 0.000204 -0.655041
    4 11.481691 -0.000080 -0.000043 -0.344404 0.629737 0.066624
    5 2.910459 0.017752 -1.395108 -0.167306 0.026840 -1.686505
    6 1.284180 0.000004 -0.000002 -0.002342 0.009091 0.011495
    7 0.842285 -0.000004 0.000000 0.000507 -0.002524 -0.273496
    8 3.364187 0.050670 -0.618950 -0.024168 0.035211 -1.314037
    9 1.609375 -0.000002 0.000002 0.000724 -0.000503 -0.904390
    10 1.024445 -0.000006 0.000002 -0.000383 -0.000965 0.466043
    11 3.551648 0.082136 0.208779 0.009619 0.043120 -0.980011
    12 1.666016 0.000000 -0.000002 0.001011 -0.000012 -1.475007
    13 1.243164 0.000002 -0.000002 -0.001501 -0.001857 0.886861
    14 3.445784 0.112057 1.090271 0.050819 -0.002400 -0.902106
    15 1.707031 0.000002 0.000002 -0.000424 0.000104 -1.233972
    16 1.002013 -0.000004 0.000004 0.000244 0.000450 0.666183
    17 0.079459 -0.692690 0.770462 -1.082672 -0.822469 -0.708826
    18 2.515625 0.000000 -0.000004 0.000000 0.000000 0.099261
    19 1.334961 0.000000 0.000000 -0.051019 0.105005 -0.130756
    20 2.033356 1.000772 -1.937609 -0.128272 0.173026 4.244766
    21 6.028136 0.000001 -0.000003 -0.488748 1.000930 -2.190547
    22 11.692558 0.000002 0.000001 0.000733 -0.000982 -1.445174
    23 11.481697 -0.000001 -0.000002 -0.644513 -0.182345 0.534738
    24 3.285440 -0.007544 1.427491 0.114798 -0.012321 -1.172691
    25 1.324282 0.000002 -0.000001 0.000004 0.000002 -1.042258
    26 0.819336 -0.000002 0.000000 0.000000 0.000000 -0.751421
    27 3.711819 0.093313 0.622456 0.074790 0.071817 -1.217337
    28 1.601603 0.000011 0.000002 0.000003 -0.000003 -1.240756
    29 0.989258 -0.000001 0.000001 0.000000 0.000000 -0.869201
    30 3.789903 0.187984 -0.200566 0.050024 0.074510 -1.052088
    31 1.680520 0.003903 0.000007 0.000001 -0.000015 -1.444969
    32 1.252159 -0.000004 0.000006 0.000001 -0.000011 -0.823070
    33 3.594196 0.280780 -1.065649 0.103237 0.055855 -0.261010
    34 1.723633 -0.000002 0.000000 0.000000 0.000000 -0.566697
    35 1.002930 0.000000 0.000001 0.000000 0.000000 -0.611497
    36 0.294288 -0.641089 -0.376899 0.410645 0.436062 -0.695302
    37 2.636719 -0.000004 0.000001 0.000000 0.000000 0.556744
    38 1.309570 0.000001 0.000000 0.000000 0.000000 0.431283
    39 -6.394147 -17.732040 -5.309023 1.565168 0.000027 -0.000001
    40 0.075562 -1.768556 0.900875 0.000000 0.000000 0.000000
    41 0.075562 -2.400394 3.259762 0.000000 0.000000 0.000000
    42 0.075563 -1.355474 5.355465 0.000000 0.000000 0.000000
    43 0.661621 1.201162 9.453125 1.570796 -0.000001 0.110042
    44 0.871582 1.617180 7.859375 0.000000 0.000000 0.000000
    45 19.893883 -17.572500 -7.710544 1.570796 0.000000 -1.570796
    46 19.893883 -17.572500 -14.437420 1.570796 0.000000 -1.570796
  time 25
    0 0.496109 -0.675808 -9.140904 -1.570797 -1.390509 -1.570891
    1 2.033348 1.000767 1.937660 3.108501 0.012305 1.243060
    2 6.028139 0.000008 0.000002 -2.738392 -0.200936 -0.550044
    3 11.692572 0.000164 -0.000016 -0.000003 0.000180 -0.639673
    4 11.481691 -0.000080 -0.000043 -0.346486 0.629699 0.055251
    5 2.910459 0.002126 -1.395108 -0.167064 0.026133 -1.687246
    6 1.284180 0.000004 -0.000002 -0.002342 0.009091 0.011495
    7 0.842285 -0.000004 0.000000 0.000507 -0.002524 -0.273496
    8 3.364187 0.038951 -0.615044 -0.024204 0.034456 -1.314802
    9 1.609375 -0.000002 0.000002 0.000724 -0.000503 -0.904390
    10 1.020539 -0.000006 0.000002 -0.000383 -0.000965 0.466043
    11 3.551648 0.062604 0.208779 0.009343 0.042413 -0.980775
    12 1.666016 0.000000 -0.000002 0.001011 -0.000012 -1.475007
    13 1.243164 0.000002 -0.000002 -0.001501 -0.001857 0.886861
    14 3.445784 0.096431 1.090271 0.050508 -0.003083 -0.902832
    15 1.707031 0.000002 0.000002 -0.000424 0.000104 -1.233972
    16 1.002013 -0.000004 0.000004 0.000244 0.000450 0.666212
    17 0.079459 -0.704409 0.770462 -1.083352 -0.823071 -0.709094
    18 2.515625 0.000000 -0.000004 0.000000 0.000000 0.099261
    19 1.334961 0.000000 0.000000 -0.051019 0.105005 -0.130756
    20 2.033356 1.000772 -1.937609 -0.128272 0.173026 4.244766
    21 6.028136 0.000001 -0.000003 -0.483352 0.995336 -2.183516
    22 11.692558 0.000002 0.000001 0.000409 -0.000430 -1.440884
    23 11.481697 -0.000001 -0.000002 -0.649277 -0.185059 0.535955
    24 3.285440 -0.003637 1.411866 0.113962 -0.013544 -1.172883
    25 1.324282 0.000002 -0.000001 0.000004 0.000002 -1.042258
    26 0.819336 -0.000002 0.000000 0.000000 0.000000 -0.751421
    27 3.715726 0.097219 0.602924 0.074011 0.070570 -1.217593
    28 1.601603 0.000011 0.000002 0.000003 -0.000015 -1.240816
    29 0.989258 -0.000001 0.000001 0.000000 0.000000 -0.869201
    30 3.789903 0.191890 -0.212285 0.049041 0.073396 -1.052373
    31 1.676613 -0.000004 -0.003899 0.000001 -0.000027 -1.444936
    32 1.252159 -0.000004 0.000006 0.000001 -0.000011 -0.823098
    33 3.594196 0.284686 -1.081275 0.101751 0.055771 -0.261298
    34 1.723633 -0.000002 0.000000 0.000000 0.000000 -0.566697
    35 1.002930 0.000000 0.000001 0.000000 0.000000 -0.611497
    36 0.294288 -0.637183 -0.392525 0.409233 0.435379 -0.696129
    37 2.636719 -0.000004 0.000001 0.000000 0.000000 0.556744
    38 1.309570 0.000001 0.000000 0.000000 0.000000 0.431283
    39 -6.394147 -17.743760 -5.367619 1.569251 0.000027 -0.000001
    40 0.075562 -1.768556 0.900875 0.000000 0.000000 0.000000
    41 0.075562 -2.400394 3.259762 0.000000 0.000000 0.000000
    42 0.075563 -1.355474 5.355465 0.000000 0.000000 0.000000
    43 0.661621 1.201162 9.453125 1.570796 -0.000001 0.110042
    44 0.871582 1.617180 7.859375 0.000000 0.000000 0.000000
    45 19.893883 -17.572500 -7.710544 1.570796 0.000000 -1.570796
    46 19.893883 -17.572500 -14.437420 1.570796 0.000000 -1.570796
  time 26
    0 0.496109 -0.656276 -9.140904 -1.570797 -1.391899 -1.570843
    1 2.033348 1.000767 1.937660 3.108501 0.012305 1.243060
    2 6.028139 0.000008 0.000002 -2.737721 -0.201034 -0.551949
    3 11.692572 0.000164 -0.000016 -0.000003 0.000180 -0.634497
    4 11.481691 -0.000080 -0.000043 -0.344877 0.630047 0.052961
    5 2.910459 -0.021312 -1.399014 -0.166956 0.024803 -1.689359
    6 1.284180 0.000004 -0.000002 -0.002342 0.009091 0.011495
    7 0.842285 -0.000004 0.000000 0.000507 -0.002524 -0.273496
    8 3.364187 0.019419 -0.618950 -0.024611 0.033197 -1.316914
    9 1.609375 -0.000002 0.000002 0.000724 -0.000503 -0.904390
    10 1.024445 -0.000006 0.000002 -0.000383 -0.000965 0.466043
    11 3.555555 0.043073 0.204873 0.008540 0.041346 -0.982920
    12 1.666016 0.000000 -0.000002 0.001011 -0.000012 -1.475007
    13 1.243164 0.000002 -0.000002 -0.001501 -0.001857 0.886861
    14 3.449691 0.076899 1.086365 0.049621 -0.004078 -0.904952
    15 1.707031 0.000002 0.000002 -0.000424 0.000104 -1.233972
    16 1.002013 -0.000004 0.000004 0.000244 0.000450 0.666183
    17 0.079459 -0.720034 0.770462 -1.084898 -0.823900 -0.710089
    18 2.515625 0.000000 -0.000004 0.000000 0.000000 0.099261
    19 1.334961 0.000000 0.000000 -0.051019 0.105005 -0.130756
    20 2.033356 1.000772 -1.937609 -0.128272 0.173026 4.244766
    21 6.028136 0.000001 -0.000003 -0.479530 0.992643 -2.178829
    22 11.692558 0.000002 0.000001 0.000242 -0.000227 -1.439733
    23 11.481697 -0.000001 -0.000002 -0.649944 -0.185447 0.535758
    24 3.277627 0.004176 1.392334 0.113188 -0.015917 -1.172585
    25 1.324282 0.000002 -0.000001 0.000004 0.000002 -1.042258
    26 0.819336 -0.000002 0.000000 0.000000 0.000000 -0.751421
    27 3.711819 0.105032 0.583393 0.073340 0.068162 -1.217355
    28 1.601603 0.000011 0.000002 0.000003 -0.000003 -1.240847
    29 0.989258 -0.000001 0.000001 0.000000 0.000000 -0.869201
    30 3.789903 0.195797 -0.235723 0.047999 0.071131 -1.052151
    31 1.680520 -0.000004 0.000007 0.000001 -0.000015 -1.444936
    32 1.252159 -0.000004 0.000006 0.000001 -0.000011 -0.823070
    33 3.594196 0.284686 -1.104713 0.099394 0.054932 -0.261142
    34 1.723633 -0.000002 0.000000 0.000000 0.000000 -0.566697
    35 1.002930 0.000000 0.000001 0.000000 0.000000 -0.611497
    36 0.294288 -0.637183 -0.412056 0.407233 0.433593 -0.696609
    37 2.636719 -0.000004 0.000001 0.000000 0.000000 0.556744
    38 1.309570 0.000001 0.000000 0.000000 0.000000 0.431283
    39 -6.394147 -17.743760 -5.387151 1.570850 0.000027 -0.000001
    40 0.075562 -1.768556 0.900875 0.000000 0.000000 0.000000
    41 0.075562 -2.400394 3.259762 0.000000 0.000000 0.000000
    42 0.075563 -1.355474 5.355465 0.000000 0.000000 0.000000
    43 0.661621 1.201162 9.453125 1.570796 -0.000001 0.110042
    44 0.871582 1.617180 7.859375 0.000000 0.000000 0.000000
    45 19.893883 -17.572500 -7.710544 1.570796 0.000000 -1.570796
    46 19.893883 -17.572500 -14.437420 1.570796 0.000000 -1.570796
end
