// Created by Crowbar++ 0.74
version 1
nodes
  0 "ValveBiped.Bip01_Spine4" -1
  1 "ValveBiped.Bip01_L_Clavicle" 0
  2 "ValveBiped.Bip01_L_UpperArm" 1
  3 "ValveBiped.Bip01_L_Forearm" 2
  4 "ValveBiped.Bip01_L_Hand" 3
  5 "ValveBiped.Bip01_L_Finger4" 4
  6 "ValveBiped.Bip01_L_Finger41" 5
  7 "ValveBiped.Bip01_L_Finger42" 6
  8 "ValveBiped.Bip01_L_Finger3" 4
  9 "ValveBiped.Bip01_L_Finger31" 8
  10 "ValveBiped.Bip01_L_Finger32" 9
  11 "ValveBiped.Bip01_L_Finger2" 4
  12 "ValveBiped.Bip01_L_Finger21" 11
  13 "ValveBiped.Bip01_L_Finger22" 12
  14 "ValveBiped.Bip01_L_Finger1" 4
  15 "ValveBiped.Bip01_L_Finger11" 14
  16 "ValveBiped.Bip01_L_Finger12" 15
  17 "ValveBiped.Bip01_L_Finger0" 4
  18 "ValveBiped.Bip01_L_Finger01" 17
  19 "ValveBiped.Bip01_L_Finger02" 18
  20 "ValveBiped.Bip01_L_Wrist" 3
  21 "ValveBiped.Bip01_R_Clavicle" 0
  22 "ValveBiped.Bip01_R_UpperArm" 21
  23 "ValveBiped.Bip01_R_Forearm" 22
  24 "ValveBiped.Bip01_R_Hand" 23
  25 "ValveBiped.Bip01_R_Finger4" 24
  26 "ValveBiped.Bip01_R_Finger41" 25
  27 "ValveBiped.Bip01_R_Finger42" 26
  28 "ValveBiped.Bip01_R_Finger3" 24
  29 "ValveBiped.Bip01_R_Finger31" 28
  30 "ValveBiped.Bip01_R_Finger32" 29
  31 "ValveBiped.Bip01_R_Finger2" 24
  32 "ValveBiped.Bip01_R_Finger21" 31
  33 "ValveBiped.Bip01_R_Finger22" 32
  34 "ValveBiped.Bip01_R_Finger1" 24
  35 "ValveBiped.Bip01_R_Finger11" 34
  36 "ValveBiped.Bip01_R_Finger12" 35
  37 "ValveBiped.Bip01_R_Finger0" 24
  38 "ValveBiped.Bip01_R_Finger01" 37
  39 "ValveBiped.Bip01_R_Finger02" 38
  40 "ValveBiped.Bip01_R_Wrist" 23
  41 "gun" -1
  42 "magazine" 41
  43 "hammer" 41
  44 "trigger" 41
  45 "slide" 41
end
skeleton
  time 0
    0 0.000000 -0.000006 0.000000 -1.570781 -1.391896 -1.570809
    1 -9.648438 -4.734375 3.712891 1.596636 -1.286515 2.942963
    2 6.028145 0.000003 0.000002 -0.431707 -0.801236 -2.342119
    3 11.692553 0.000081 -0.000005 -0.000015 0.000024 -0.913335
    4 11.481672 -0.000089 -0.000024 1.228446 -0.692805 0.585354
    5 3.859703 -1.271357 -1.266196 -0.325620 0.060707 -2.078455
    6 1.312565 -0.000008 0.000004 0.000000 -0.000003 -0.439723
    7 0.729363 -0.000004 0.000003 0.000000 -0.000002 -0.505811
    8 4.075146 -1.101719 -0.318160 -0.129141 0.174999 -1.999283
    9 1.623047 0.003679 -0.022034 -0.000002 0.000006 -0.247791
    10 1.196322 -0.000006 0.000002 0.000003 -0.000005 -1.049532
    11 3.883690 -1.175725 0.357222 0.020826 0.224159 -1.675159
    12 1.602539 0.015594 -0.064087 0.000002 0.005514 -0.366480
    13 1.209181 -0.000006 0.000003 -0.002301 0.002060 -1.057564
    14 3.855469 -1.270508 1.254883 0.206793 0.293012 -1.589312
    15 1.719435 0.000000 -0.000005 -0.000004 0.004079 -0.363004
    16 1.099678 -0.000006 0.000004 -0.001853 0.001816 -1.043047
    17 0.646973 -0.743652 1.289063 -1.434788 -0.785841 -0.547740
    18 1.789783 0.000000 -0.000008 -0.017849 -0.112813 0.695439
    19 1.207001 0.000000 -0.000002 0.012885 -0.000830 0.511142
    20 11.481705 -0.000013 -0.000001 -0.029385 -0.129915 0.079109
    21 -5.480469 -7.855469 -8.593750 -1.668474 1.286518 2.942953
    22 6.028141 0.000000 -0.000002 0.837724 0.980289 -1.577191
    23 11.692554 0.000000 -0.000001 -0.000002 0.000000 -1.207926
    24 11.481703 -0.000001 -0.000004 -1.186779 0.504013 0.752889
    25 3.859676 -0.132545 1.193110 0.578311 -0.053913 -1.438303
    26 1.340820 -0.081116 -0.265625 0.125817 -0.454889 -1.743925
    27 0.729368 -0.000004 -0.000002 0.029291 -0.004975 0.110788
    28 3.942295 0.050346 0.431044 0.222248 0.007471 -1.227783
    29 1.539106 0.000000 0.000001 0.042488 0.013216 -1.748756
    30 1.196321 -0.000002 -0.000002 0.002362 -0.000852 -0.117880
    31 3.883663 -0.050303 -0.431042 0.065776 -0.040813 -1.144344
    32 1.719582 0.000002 0.000006 0.079939 0.050141 -1.972252
    33 1.209183 0.000004 0.000006 0.001100 -0.005446 0.059746
    34 3.859833 -0.148919 -1.331282 -0.298874 0.205420 -0.121204
    35 1.719431 0.000008 0.000010 -0.000992 0.000819 -0.935098
    36 1.099665 0.000002 0.000007 -0.000991 -0.003972 0.099632
    37 0.806023 -0.359832 -1.318335 1.272750 0.291615 -0.693987
    38 1.789785 -0.000004 -0.000004 -0.049815 0.256686 0.362904
    39 1.207003 -0.000002 -0.000008 0.017681 -0.139192 0.735621
    40 11.481705 0.000084 0.000004 0.043039 0.099555 0.117700
    41 -5.529239 -13.332945 -5.436372 1.570796 0.000000 -0.000052
    42 -0.067427 -1.982567 -1.097137 0.256999 0.000000 0.000000
    43 -0.067427 0.572451 -2.207360 -0.529308 0.000000 0.000000
    44 0.022017 -0.771984 1.441430 -0.464939 0.000000 0.000000
    45 -0.011781 1.744501 0.023932 -1.570796 0.000000 0.000000
  time 1
    0 0.000000 -0.000006 0.000000 -1.570781 -1.391896 -1.570809
    1 -9.648438 -4.734375 3.712891 1.596636 -1.286515 2.942963
    2 6.028145 0.000003 0.000002 -0.440224 -0.789478 -2.315764
    3 11.692553 0.000081 -0.000005 -0.000015 0.000024 -0.948573
    4 11.481672 -0.000089 -0.000024 1.257541 -0.701307 0.569281
    5 3.859703 -1.271357 -1.266196 -0.325620 0.060707 -2.078455
    6 1.312565 -0.000008 0.000004 0.000000 -0.000003 -0.439723
    7 0.729363 -0.000004 0.000003 0.000000 -0.000002 -0.505811
    8 4.075146 -1.101719 -0.318160 -0.129141 0.174999 -1.999283
    9 1.623047 0.003679 -0.022034 -0.000002 0.000006 -0.247791
    10 1.196322 -0.000006 0.000002 0.000003 -0.000005 -1.049532
    11 3.883690 -1.175725 0.357222 0.020826 0.224159 -1.675126
    12 1.602539 0.015594 -0.064087 0.000002 0.005514 -0.366480
    13 1.209181 -0.000006 0.000003 -0.002301 0.002060 -1.057590
    14 3.855469 -1.270508 1.254883 0.206793 0.293012 -1.589312
    15 1.719435 0.000000 -0.000005 -0.000004 0.004079 -0.363004
    16 1.099678 -0.000006 0.000004 -0.001853 0.001816 -1.043071
    17 0.646973 -0.743652 1.289063 -1.434788 -0.785841 -0.547740
    18 1.789783 0.000000 -0.000008 -0.017849 -0.112813 0.695439
    19 1.207001 0.000000 -0.000002 0.012885 -0.000830 0.511142
    20 11.481705 -0.000013 -0.000001 -0.024483 -0.130023 0.077779
    21 -5.480469 -7.855469 -8.593750 -1.668474 1.286518 2.942953
    22 6.028141 0.000000 -0.000002 0.852247 0.957065 -1.554217
    23 11.692554 0.000000 -0.000001 -0.000002 0.000000 -1.243394
    24 11.481703 -0.000001 -0.000004 -1.180693 0.517668 0.733295
    25 3.859676 -0.132545 1.193110 0.578311 -0.053913 -1.438303
    26 1.340820 -0.081116 -0.265625 0.125817 -0.454889 -1.743925
    27 0.729368 -0.000004 -0.000002 0.029291 -0.004975 0.110788
    28 3.942295 0.050346 0.431044 0.222248 0.007471 -1.227783
    29 1.539106 0.000000 0.000001 0.042488 0.013216 -1.748756
    30 1.196321 -0.000002 -0.000002 0.002362 -0.000852 -0.117880
    31 3.883663 -0.050303 -0.431042 0.065776 -0.040813 -1.144344
    32 1.719582 0.000002 0.000006 0.079939 0.050141 -1.972301
    33 1.209183 0.000004 0.000006 0.001100 -0.005446 0.059746
    34 3.859833 -0.148919 -1.331282 -0.243002 0.318519 -0.080536
    35 1.719431 0.000008 0.000010 -0.029671 0.052629 -1.729261
    36 1.099665 0.000002 0.000007 -0.009020 -0.003409 0.231871
    37 0.806023 -0.359832 -1.318335 1.272750 0.291615 -0.693987
    38 1.789785 -0.000004 -0.000004 -0.049815 0.256686 0.362904
    39 1.207003 -0.000002 -0.000008 0.017681 -0.139192 0.735621
    40 11.481705 0.000084 0.000004 0.043850 0.102024 0.112918
    41 -5.576115 -13.024342 -5.463716 1.542613 -0.016832 0.002521
    42 -0.067427 -1.982567 -1.097137 0.256999 0.000000 0.000000
    43 -0.067427 0.572451 -2.207360 -0.529308 0.000000 0.000000
    44 0.147021 -0.803235 0.949228 -0.464939 0.000000 0.000000
    45 -0.011781 1.744501 0.023932 -1.570796 0.000000 0.000000
  time 2
    0 0.000000 -0.000006 0.000000 -1.570781 -1.391896 -1.570809
    1 -9.648438 -4.734375 3.712891 1.596636 -1.286515 2.942963
    2 6.028145 0.000003 0.000002 -0.454977 -0.763033 -2.258540
    3 11.692553 0.000081 -0.000005 -0.000015 0.000036 -1.026565
    4 11.481672 -0.000089 -0.000024 1.329226 -0.719540 0.527090
    5 3.859703 -1.271357 -1.266196 -0.325620 0.060707 -2.078455
    6 1.312565 -0.000008 0.000004 0.000000 -0.000003 -0.439723
    7 0.729363 -0.000004 0.000003 0.000000 -0.000002 -0.505811
    8 4.075146 -1.101719 -0.318160 -0.129141 0.174999 -1.999283
    9 1.623047 0.003679 -0.022034 -0.000002 0.000006 -0.247791
    10 1.196322 -0.000006 0.000002 0.000003 -0.000005 -1.049532
    11 3.883690 -1.175725 0.357222 0.020826 0.224159 -1.675126
    12 1.602539 0.015594 -0.064087 0.000002 0.005514 -0.366480
    13 1.209181 -0.000006 0.000003 -0.002301 0.002060 -1.057564
    14 3.855469 -1.270508 1.254883 0.206793 0.293012 -1.589312
    15 1.719435 0.000000 -0.000005 -0.000004 0.004079 -0.363004
    16 1.099678 -0.000006 0.000004 -0.001853 0.001816 -1.043047
    17 0.646973 -0.743652 1.289063 -1.434788 -0.785841 -0.547740
    18 1.789783 0.000000 -0.000008 -0.017849 -0.112813 0.695439
    19 1.207001 0.000000 -0.000002 0.012885 -0.000830 0.511142
    20 11.481705 -0.000013 -0.000001 -0.012810 -0.130059 0.074256
    21 -5.480469 -7.855469 -8.593750 -1.668474 1.286518 2.942953
    22 6.028141 0.000000 -0.000002 0.877983 0.903433 -1.507887
    23 11.692554 0.000000 -0.000001 -0.000002 0.000000 -1.320524
    24 11.481703 -0.000001 -0.000004 -1.168720 0.551762 0.681191
    25 3.859676 -0.132545 1.193110 0.578311 -0.053913 -1.438303
    26 1.340820 -0.081116 -0.265625 0.125817 -0.454889 -1.743925
    27 0.729368 -0.000004 -0.000002 0.029291 -0.004975 0.110788
    28 3.942295 0.050346 0.431044 0.222248 0.007471 -1.227783
    29 1.539106 0.000000 0.000001 0.042488 0.013216 -1.748756
    30 1.196321 -0.000002 -0.000002 0.002362 -0.000852 -0.117880
    31 3.883663 -0.050303 -0.431042 0.065776 -0.040813 -1.144344
    32 1.719582 0.000002 0.000006 0.079939 0.050141 -1.972252
    33 1.209183 0.000004 0.000006 0.001100 -0.005446 0.059746
    34 3.859833 -0.148919 -1.331282 -0.243002 0.318519 -0.080536
    35 1.719431 0.000008 0.000010 -0.029671 0.052629 -1.729303
    36 1.099665 0.000002 0.000007 -0.009020 -0.003409 0.231871
    37 0.806023 -0.359832 -1.318335 1.272750 0.291615 -0.693987
    38 1.789785 -0.000004 -0.000004 -0.049815 0.256686 0.362904
    39 1.207003 -0.000002 -0.000008 0.017681 -0.139192 0.735621
    40 11.481705 0.000084 0.000004 0.045551 0.107848 0.100538
    41 -5.685494 -12.286038 -5.534031 1.474924 -0.056771 0.010500
    42 -0.067427 -1.982567 -1.097137 0.256999 0.000000 0.000000
    43 -0.067427 0.572451 -2.207360 -0.529308 0.000000 0.000000
    44 0.147021 -0.803235 0.949228 -0.464939 0.000000 0.000000
    45 -0.011781 1.744501 0.023932 -1.570796 0.000000 0.000000
  time 3
    0 0.000000 -0.000006 0.000000 -1.570781 -1.391896 -1.570809
    1 -9.648438 -4.734375 3.712891 1.596636 -1.286515 2.942963
    2 6.028145 0.000003 0.000002 -0.464164 -0.734553 -2.198695
    3 11.692553 0.000081 -0.000005 -0.000027 0.000036 -1.110429
    4 11.481672 -0.000089 -0.000024 1.418120 -0.737408 0.471410
    5 3.859703 -1.271357 -1.266196 -0.325620 0.060707 -2.078455
    6 1.312565 -0.000008 0.000004 0.000000 -0.000003 -0.439723
    7 0.729363 -0.000004 0.000003 0.000000 -0.000002 -0.505811
    8 4.075146 -1.101719 -0.318160 -0.129141 0.174999 -1.999283
    9 1.623047 0.003679 -0.022034 -0.000002 0.000006 -0.247791
    10 1.196322 -0.000006 0.000002 0.000003 -0.000005 -1.049532
    11 3.883690 -1.175725 0.357222 0.020826 0.224159 -1.675126
    12 1.602539 0.015594 -0.064087 0.000002 0.005514 -0.366480
    13 1.209181 -0.000006 0.000003 -0.002301 0.002060 -1.057564
    14 3.855469 -1.270508 1.254883 0.206793 0.293012 -1.589312
    15 1.719435 0.000000 -0.000005 -0.000004 0.004079 -0.363004
    16 1.099678 -0.000006 0.000004 -0.001853 0.001816 -1.043047
    17 0.646973 -0.743652 1.289063 -1.434788 -0.785841 -0.547740
    18 1.789783 0.000000 -0.000008 -0.017849 -0.112813 0.695439
    19 1.207001 0.000000 -0.000002 0.012885 -0.000830 0.511142
    20 11.481705 -0.000013 -0.000001 0.001068 -0.129771 0.069629
    21 -5.480469 -7.855469 -8.593750 -1.668474 1.286518 2.942953
    22 6.028141 0.000000 -0.000002 0.896063 0.842740 -1.463904
    23 11.692554 0.000000 -0.000001 -0.000002 0.000000 -1.401062
    24 11.481703 -0.000001 -0.000004 -1.160055 0.594736 0.609756
    25 3.859676 -0.132545 1.193110 0.578311 -0.053913 -1.438303
    26 1.340820 -0.081116 -0.265625 0.125817 -0.454889 -1.743925
    27 0.729368 -0.000004 -0.000002 0.029291 -0.004975 0.110788
    28 3.942295 0.050346 0.431044 0.222248 0.007471 -1.227783
    29 1.539106 0.000000 0.000001 0.042488 0.013216 -1.748756
    30 1.196321 -0.000002 -0.000002 0.002362 -0.000852 -0.117880
    31 3.883663 -0.050303 -0.431042 0.065776 -0.040813 -1.144344
    32 1.719582 0.000002 0.000006 0.079939 0.050141 -1.972252
    33 1.209183 0.000004 0.000006 0.001100 -0.005446 0.059746
    34 3.859833 -0.148919 -1.331282 -0.243002 0.318519 -0.080536
    35 1.719431 0.000008 0.000010 -0.029671 0.052629 -1.729261
    36 1.099665 0.000002 0.000007 -0.009020 -0.003409 0.231871
    37 0.806023 -0.359832 -1.318335 1.272750 0.291615 -0.693987
    38 1.789785 -0.000004 -0.000004 -0.049815 0.256686 0.362904
    39 1.207003 -0.000002 -0.000008 0.017681 -0.139192 0.735621
    40 11.481705 0.000084 0.000004 0.047134 0.114691 0.084227
    41 -5.818310 -11.407105 -5.616065 1.393306 -0.103712 0.023712
    42 -0.067427 -1.982567 -1.097137 0.256999 0.000000 0.000000
    43 -0.067427 0.572451 -2.207360 -0.529308 0.000000 0.000000
    44 0.143114 -0.803235 0.957040 -0.464939 0.000000 0.000000
    45 -0.011781 1.744501 0.023932 -1.570796 0.000000 0.000000
  time 4
    0 0.000000 -0.000006 0.000000 -1.570781 -1.391896 -1.570809
    1 -9.648438 -4.734375 3.712891 1.596636 -1.286515 2.942963
    2 6.028145 0.000003 0.000002 -0.466176 -0.713234 -2.153921
    3 11.692553 0.000081 -0.000005 -0.000027 0.000036 -1.174906
    4 11.481672 -0.000089 -0.000024 1.494696 -0.749032 0.422159
    5 3.859703 -1.271357 -1.266196 -0.325620 0.060707 -2.078455
    6 1.312565 -0.000008 0.000004 0.000000 -0.000003 -0.439723
    7 0.729363 -0.000004 0.000003 0.000000 -0.000002 -0.505811
    8 4.075146 -1.101719 -0.318160 -0.129141 0.174999 -1.999283
    9 1.623047 0.003679 -0.022034 -0.000002 0.000006 -0.247791
    10 1.196322 -0.000006 0.000002 0.000003 -0.000005 -1.049532
    11 3.883690 -1.175725 0.357222 0.020826 0.224159 -1.675126
    12 1.602539 0.015594 -0.064087 0.000002 0.005514 -0.366480
    13 1.209181 -0.000006 0.000003 -0.002301 0.002060 -1.057564
    14 3.855469 -1.270508 1.254883 0.206793 0.293012 -1.589312
    15 1.719435 0.000000 -0.000005 -0.000004 0.004079 -0.363004
    16 1.099678 -0.000006 0.000004 -0.001853 0.001816 -1.043047
    17 0.646973 -0.743652 1.289063 -1.434788 -0.785841 -0.547740
    18 1.789783 0.000000 -0.000008 -0.017849 -0.112813 0.695439
    19 1.207001 0.000000 -0.000002 0.012885 -0.000830 0.511142
    20 11.481705 -0.000013 -0.000001 0.012645 -0.129328 0.065663
    21 -5.480469 -7.855469 -8.593750 -1.668474 1.286518 2.942953
    22 6.028141 0.000000 -0.000002 0.903374 0.794782 -1.433836
    23 11.692554 0.000000 -0.000001 -0.000002 0.000000 -1.460175
    24 11.481703 -0.000001 -0.000004 -1.158268 0.632140 0.542803
    25 3.859676 -0.132545 1.193110 0.578311 -0.053913 -1.438303
    26 1.340820 -0.081116 -0.265625 0.125817 -0.454889 -1.743925
    27 0.729368 -0.000004 -0.000002 0.029291 -0.004975 0.110788
    28 3.942295 0.050346 0.431044 0.222248 0.007471 -1.227783
    29 1.539106 0.000000 0.000001 0.042488 0.013216 -1.748756
    30 1.196321 -0.000002 -0.000002 0.002362 -0.000852 -0.117880
    31 3.883663 -0.050303 -0.431042 0.065776 -0.040813 -1.144344
    32 1.719582 0.000002 0.000006 0.079939 0.050141 -1.972252
    33 1.209183 0.000004 0.000006 0.001100 -0.005446 0.059746
    34 3.859833 -0.148919 -1.331282 -0.243002 0.318519 -0.080536
    35 1.719431 0.000008 0.000010 -0.029671 0.052629 -1.729261
    36 1.099665 0.000002 0.000007 -0.009020 -0.003409 0.231871
    37 0.806023 -0.359832 -1.318335 1.272750 0.291615 -0.693987
    38 1.789785 -0.000004 -0.000004 -0.049815 0.256686 0.362904
    39 1.207003 -0.000002 -0.000008 0.017681 -0.139192 0.735621
    40 11.481705 0.000084 0.000004 0.048024 0.120288 0.069534
    41 -5.931595 -10.668802 -5.686379 1.324150 -0.142018 0.037696
    42 -0.067427 -1.982567 -1.097137 0.256999 0.000000 0.000000
    43 -0.067427 0.572451 -2.207360 -0.529308 0.000000 0.000000
    44 0.143114 -0.803235 0.964853 -0.464939 0.000000 0.000000
    45 -0.011781 1.744501 0.023932 -1.570796 0.000000 0.000000
  time 5
    0 0.000000 -0.000006 0.000000 -1.570781 -1.391896 -1.570809
    1 -9.648438 -4.734375 3.712891 1.596636 -1.286515 2.942963
    2 6.028145 0.000003 0.000002 -0.465639 -0.705016 -2.136448
    3 11.692553 0.000081 -0.000005 -0.000027 0.000036 -1.200546
    4 11.481672 -0.000089 -0.000024 1.527133 -0.753050 0.401207
    5 3.859703 -1.271357 -1.266196 -0.325620 0.060707 -2.078455
    6 1.312565 -0.000008 0.000004 0.000000 -0.000003 -0.439723
    7 0.729363 -0.000004 0.000003 0.000000 -0.000002 -0.505811
    8 4.075146 -1.101719 -0.318160 -0.129141 0.174999 -1.999283
    9 1.623047 0.003679 -0.022034 -0.000002 0.000006 -0.247791
    10 1.196322 -0.000006 0.000002 0.000003 -0.000005 -1.049532
    11 3.883690 -1.175725 0.357222 0.020826 0.224159 -1.675126
    12 1.602539 0.015594 -0.064087 0.000002 0.005514 -0.366480
    13 1.209181 -0.000006 0.000003 -0.002301 0.002060 -1.057564
    14 3.855469 -1.270508 1.254883 0.206793 0.293012 -1.589312
    15 1.719435 0.000000 -0.000005 -0.000004 0.004079 -0.363004
    16 1.099678 -0.000006 0.000004 -0.001853 0.001816 -1.043047
    17 0.646973 -0.743652 1.289063 -1.434788 -0.785841 -0.547740
    18 1.789783 0.000000 -0.000008 -0.017849 -0.112813 0.695439
    19 1.207001 0.000000 -0.000002 0.012885 -0.000830 0.511142
    20 11.481705 -0.000013 -0.000001 0.017487 -0.129100 0.063997
    21 -5.480469 -7.855469 -8.593750 -1.668474 1.286518 2.942953
    22 6.028141 0.000000 -0.000002 0.904757 0.775476 -1.422649
    23 11.692554 0.000000 -0.000001 -0.000002 0.000000 -1.483097
    24 11.481703 -0.000001 -0.000004 -1.159195 0.648014 0.512928
    25 3.859676 -0.132545 1.193110 0.578311 -0.053913 -1.438303
    26 1.340820 -0.081116 -0.265625 0.125817 -0.454889 -1.743925
    27 0.729368 -0.000004 -0.000002 0.029291 -0.004975 0.110788
    28 3.942295 0.050346 0.431044 0.222248 0.007471 -1.227783
    29 1.539106 0.000000 0.000001 0.042488 0.013216 -1.748756
    30 1.196321 -0.000002 -0.000002 0.002362 -0.000852 -0.117880
    31 3.883663 -0.050303 -0.431042 0.065776 -0.040813 -1.144344
    32 1.719582 0.000002 0.000006 0.079939 0.050141 -1.972252
    33 1.209183 0.000004 0.000006 0.001100 -0.005446 0.059746
    34 3.859833 -0.148919 -1.331282 -0.243002 0.318519 -0.080536
    35 1.719431 0.000008 0.000010 -0.029671 0.052629 -1.729261
    36 1.099665 0.000002 0.000007 -0.009020 -0.003409 0.231871
    37 0.806023 -0.359832 -1.318335 1.272750 0.291615 -0.693987
    38 1.789785 -0.000004 -0.000004 -0.049815 0.256686 0.362904
    39 1.207003 -0.000002 -0.000008 0.017681 -0.139192 0.735621
    40 11.481705 0.000084 0.000004 0.048277 0.122577 0.063146
    41 -5.978471 -10.360198 -5.713724 1.294990 -0.157726 0.044387
    42 -0.067427 -1.982567 -1.097137 0.256999 0.000000 0.000000
    43 -0.067427 0.572451 -2.207360 -0.529308 0.000000 0.000000
    44 0.139208 -0.803235 0.976572 -0.464939 0.000000 0.000000
    45 -0.011781 1.744501 0.023932 -1.570796 0.000000 0.000000
  time 6
    0 0.000000 -0.000006 0.000000 -1.570781 -1.391896 -1.570809
    1 -9.648438 -4.734375 3.712891 1.596636 -1.286515 2.942963
    2 6.028145 0.000003 0.000002 -0.464835 -0.705382 -2.137467
    3 11.692553 0.000081 -0.000005 -0.000027 0.000036 -1.197578
    4 11.481672 -0.000089 -0.000024 1.519395 -0.753316 0.401035
    5 3.859703 -1.271357 -1.266196 -0.325620 0.060707 -2.078455
    6 1.312565 -0.000008 0.000004 0.000000 -0.000003 -0.439723
    7 0.729363 -0.000004 0.000003 0.000000 -0.000002 -0.505811
    8 4.075146 -1.101719 -0.318160 -0.129141 0.174999 -1.999283
    9 1.623047 0.003679 -0.022034 -0.000002 0.000006 -0.247791
    10 1.196322 -0.000006 0.000002 0.000003 -0.000005 -1.049532
    11 3.883690 -1.175725 0.357222 0.020826 0.224159 -1.675126
    12 1.602539 0.015594 -0.064087 0.000002 0.005514 -0.366480
    13 1.209181 -0.000006 0.000003 -0.002301 0.002060 -1.057564
    14 3.855469 -1.270508 1.254883 0.206793 0.293012 -1.589312
    15 1.719435 0.000000 -0.000005 -0.000004 0.004079 -0.363004
    16 1.099678 -0.000006 0.000004 -0.001853 0.001816 -1.043047
    17 0.646973 -0.743652 1.289063 -1.434788 -0.785841 -0.547740
    18 1.789783 0.000000 -0.000008 -0.017849 -0.112813 0.695439
    19 1.207001 0.000000 -0.000002 0.012885 -0.000830 0.511142
    20 11.481705 -0.000013 -0.000001 0.016109 -0.129400 0.063397
    21 -5.480469 -7.855469 -8.593750 -1.668474 1.286518 2.942953
    22 6.028141 0.000000 -0.000002 0.905597 0.776211 -1.422430
    23 11.692554 0.000000 -0.000001 -0.000002 0.000000 -1.482839
    24 11.481703 -0.000001 -0.000004 -1.164950 0.647051 0.514158
    25 3.859676 -0.132545 1.193110 0.578311 -0.053913 -1.438303
    26 1.340820 -0.081116 -0.265625 0.125817 -0.454889 -1.743925
    27 0.729368 -0.000004 -0.000002 0.029291 -0.004975 0.110788
    28 3.942295 0.050346 0.431044 0.222248 0.007471 -1.227783
    29 1.539106 0.000000 0.000001 0.042488 0.013216 -1.748802
    30 1.196321 -0.000002 -0.000002 0.002362 -0.000852 -0.117880
    31 3.883663 -0.050303 -0.431042 0.065776 -0.040813 -1.144344
    32 1.719582 0.000002 0.000006 0.079939 0.050141 -1.972301
    33 1.209183 0.000004 0.000006 0.001100 -0.005446 0.059746
    34 3.859833 -0.148919 -1.331282 -0.243002 0.318519 -0.080536
    35 1.719431 0.000008 0.000010 -0.029671 0.052629 -1.729261
    36 1.099665 0.000002 0.000007 -0.009020 -0.003409 0.231871
    37 0.806023 -0.359832 -1.318335 1.272750 0.291615 -0.693987
    38 1.789785 -0.000004 -0.000004 -0.049815 0.256686 0.362904
    39 1.207003 -0.000002 -0.000008 0.017681 -0.139192 0.735621
    40 11.481705 0.000084 0.000004 0.047240 0.122194 0.063829
    41 -5.974565 -10.371917 -5.713724 1.296537 -0.151559 0.042671
    42 -0.067427 -1.982567 -1.097137 0.256999 0.000000 0.000000
    43 -0.067427 0.572451 -2.207360 -0.529308 0.000000 0.000000
    44 0.135302 -0.799329 0.988291 -0.464939 0.000000 0.000000
    45 -0.011781 1.744501 0.023932 -1.570796 0.000000 0.000000
  time 7
    0 0.000000 -0.000006 0.000000 -1.570781 -1.391896 -1.570809
    1 -9.648438 -4.734375 3.712891 1.596636 -1.286515 2.942963
    2 6.028145 0.000003 0.000002 -0.462353 -0.706521 -2.140525
    3 11.692553 0.000081 -0.000005 -0.000027 0.000036 -1.189368
    4 11.481672 -0.000089 -0.000024 1.497976 -0.754013 0.400805
    5 3.859703 -1.271357 -1.266196 -0.325620 0.060707 -2.078455
    6 1.312565 -0.000008 0.000004 0.000000 -0.000003 -0.439723
    7 0.729363 -0.000004 0.000003 0.000000 -0.000002 -0.505811
    8 4.075146 -1.101719 -0.318160 -0.129141 0.174999 -1.999319
    9 1.623047 0.003679 -0.022034 -0.000002 0.000006 -0.247791
    10 1.196322 -0.000006 0.000002 0.000003 -0.000005 -1.049532
    11 3.883690 -1.175725 0.357222 0.020826 0.224159 -1.675126
    12 1.602539 0.015594 -0.064087 0.000002 0.005514 -0.366480
    13 1.209181 -0.000006 0.000003 -0.002301 0.002060 -1.057564
    14 3.855469 -1.270508 1.254883 0.206793 0.293012 -1.589312
    15 1.719435 0.000000 -0.000005 -0.000004 0.004079 -0.363004
    16 1.099678 -0.000006 0.000004 -0.001853 0.001816 -1.043047
    17 0.646973 -0.743652 1.289063 -1.434788 -0.785841 -0.547740
    18 1.789783 0.000000 -0.000008 -0.017849 -0.112813 0.695439
    19 1.207001 0.000000 -0.000002 0.012885 -0.000830 0.511142
    20 11.481705 -0.000013 -0.000001 0.012322 -0.130226 0.061756
    21 -5.480469 -7.855469 -8.593750 -1.668474 1.286518 2.942953
    22 6.028141 0.000000 -0.000002 0.907869 0.778496 -1.421939
    23 11.692554 0.000000 -0.000001 -0.000002 0.000000 -1.481910
    24 11.481703 -0.000001 -0.000004 -1.180759 0.644286 0.517761
    25 3.859676 -0.132545 1.193110 0.578311 -0.053913 -1.438303
    26 1.340820 -0.081116 -0.265625 0.125817 -0.454889 -1.743925
    27 0.729368 -0.000004 -0.000002 0.029291 -0.004975 0.110788
    28 3.942295 0.050346 0.431044 0.222248 0.007471 -1.227783
    29 1.539106 0.000000 0.000001 0.042488 0.013216 -1.748756
    30 1.196321 -0.000002 -0.000002 0.002362 -0.000852 -0.117880
    31 3.883663 -0.050303 -0.431042 0.065776 -0.040813 -1.144344
    32 1.719582 0.000002 0.000006 0.079939 0.050141 -1.972252
    33 1.209183 0.000004 0.000006 0.001100 -0.005446 0.059746
    34 3.859833 -0.148919 -1.331282 -0.243002 0.318519 -0.080536
    35 1.719431 0.000008 0.000010 -0.029671 0.052629 -1.729261
    36 1.099665 0.000002 0.000007 -0.009020 -0.003409 0.231871
    37 0.806023 -0.359832 -1.318335 1.272750 0.291615 -0.693987
    38 1.789785 -0.000004 -0.000004 -0.049815 0.256686 0.362904
    39 1.207003 -0.000002 -0.000008 0.017681 -0.139192 0.735621
    40 11.481705 0.000084 0.000004 0.044395 0.121127 0.065699
    41 -5.970659 -10.414888 -5.709818 1.300936 -0.134691 0.038039
    42 -0.067427 -1.982567 -1.097137 0.256999 0.000000 0.000000
    43 -0.067427 0.572451 -2.207360 -0.529308 0.000000 0.000000
    44 0.131395 -0.799329 1.003917 -0.464939 0.000000 0.000000
    45 -0.011781 1.744501 0.023932 -1.570796 0.000000 0.000000
  time 8
    0 0.000000 -0.000006 0.000000 -1.570781 -1.391896 -1.570809
    1 -9.648438 -4.734375 3.712891 1.596636 -1.286515 2.942963
    2 6.028145 0.000003 0.000002 -0.458531 -0.708311 -2.145548
    3 11.692553 0.000081 -0.000005 -0.000027 0.000036 -1.176738
    4 11.481672 -0.000089 -0.000024 1.465663 -0.754910 0.400863
    5 3.859703 -1.271357 -1.266196 -0.325620 0.060707 -2.078455
    6 1.312565 -0.000008 0.000004 0.000000 -0.000003 -0.439723
    7 0.729363 -0.000004 0.000003 0.000000 -0.000002 -0.505811
    8 4.075146 -1.101719 -0.318160 -0.129141 0.174999 -1.999283
    9 1.623047 0.003679 -0.022034 -0.000002 0.000006 -0.247791
    10 1.196322 -0.000006 0.000002 0.000003 -0.000005 -1.049532
    11 3.883690 -1.175725 0.357222 0.020826 0.224159 -1.675126
    12 1.602539 0.015594 -0.064087 0.000002 0.005514 -0.366480
    13 1.209181 -0.000006 0.000003 -0.002301 0.002060 -1.057564
    14 3.855469 -1.270508 1.254883 0.206793 0.293012 -1.589312
    15 1.719435 0.000000 -0.000005 -0.000004 0.004079 -0.363004
    16 1.099678 -0.000006 0.000004 -0.001853 0.001816 -1.043047
    17 0.646973 -0.743652 1.289063 -1.434788 -0.785841 -0.547740
    18 1.789783 0.000000 -0.000008 -0.017849 -0.112813 0.695439
    19 1.207001 0.000000 -0.000002 0.012885 -0.000830 0.511142
    20 11.481705 -0.000013 -0.000001 0.006605 -0.131413 0.059347
    21 -5.480469 -7.855469 -8.593750 -1.668474 1.286518 2.942953
    22 6.028141 0.000000 -0.000002 0.911129 0.782211 -1.421503
    23 11.692554 0.000000 -0.000001 -0.000002 0.000000 -1.480206
    24 11.481703 -0.000001 -0.000004 -1.204176 0.640014 0.523648
    25 3.859676 -0.132545 1.193110 0.578311 -0.053913 -1.438303
    26 1.340820 -0.081116 -0.265625 0.125817 -0.454889 -1.743925
    27 0.729368 -0.000004 -0.000002 0.029291 -0.004975 0.110788
    28 3.942295 0.050346 0.431044 0.222248 0.007471 -1.227783
    29 1.539106 0.000000 0.000001 0.042488 0.013216 -1.748756
    30 1.196321 -0.000002 -0.000002 0.002362 -0.000852 -0.117880
    31 3.883663 -0.050303 -0.431042 0.065776 -0.040813 -1.144344
    32 1.719582 0.000002 0.000006 0.079939 0.050141 -1.972252
    33 1.209183 0.000004 0.000006 0.001100 -0.005446 0.059746
    34 3.859833 -0.148919 -1.331282 -0.243002 0.318519 -0.080536
    35 1.719431 0.000008 0.000010 -0.029671 0.052629 -1.729303
    36 1.099665 0.000002 0.000007 -0.009020 -0.003409 0.231871
    37 0.806023 -0.359832 -1.318335 1.272750 0.291615 -0.693987
    38 1.789785 -0.000004 -0.000004 -0.049815 0.256686 0.362904
    39 1.207003 -0.000002 -0.000008 0.017681 -0.139192 0.735621
    40 11.481705 0.000084 0.000004 0.040154 0.119497 0.068575
    41 -5.958940 -10.477389 -5.702005 1.307615 -0.109371 0.031175
    42 -0.067427 -1.982567 -1.097137 0.256999 0.000000 0.000000
    43 -0.067427 0.572451 -2.207360 -0.529308 0.000000 0.000000
    44 0.127489 -0.799329 1.023449 -0.464939 0.000000 0.000000
    45 -0.011781 1.744501 0.023932 -1.570796 0.000000 0.000000
  time 9
    0 0.000000 -0.000006 0.000000 -1.570781 -1.391896 -1.570809
    1 -9.648438 -4.734375 3.712891 1.596636 -1.286515 2.942963
    2 6.028145 0.000003 0.000002 -0.453367 -0.710915 -2.152683
    3 11.692553 0.000081 -0.000005 -0.000027 0.000036 -1.160066
    4 11.481672 -0.000089 -0.000024 1.425239 -0.755707 0.401552
    5 3.859703 -1.271357 -1.266196 -0.325620 0.060707 -2.078455
    6 1.312565 -0.000008 0.000004 0.000000 -0.000003 -0.439723
    7 0.729363 -0.000004 0.000003 0.000000 -0.000002 -0.505811
    8 4.075146 -1.101719 -0.318160 -0.129141 0.174999 -1.999283
    9 1.623047 0.003679 -0.022034 -0.000002 0.000006 -0.247791
    10 1.196322 -0.000006 0.000002 0.000003 -0.000005 -1.049532
    11 3.883690 -1.175725 0.357222 0.020826 0.224159 -1.675126
    12 1.602539 0.015594 -0.064087 0.000002 0.005514 -0.366480
    13 1.209181 -0.000006 0.000003 -0.002301 0.002060 -1.057564
    14 3.855469 -1.270508 1.254883 0.206793 0.293012 -1.589312
    15 1.719435 0.000000 -0.000005 -0.000004 0.004079 -0.363004
    16 1.099678 -0.000006 0.000004 -0.001853 0.001816 -1.043047
    17 0.646973 -0.743652 1.289063 -1.434788 -0.785841 -0.547740
    18 1.789783 0.000000 -0.000008 -0.017849 -0.112813 0.695439
    19 1.207001 0.000000 -0.000002 0.012885 -0.000830 0.511142
    20 11.481705 -0.000013 -0.000001 -0.000502 -0.132839 0.056446
    21 -5.480469 -7.855469 -8.593750 -1.668474 1.286518 2.942953
    22 6.028141 0.000000 -0.000002 0.914883 0.787353 -1.421394
    23 11.692554 0.000000 -0.000001 -0.000002 0.000000 -1.477470
    24 11.481703 -0.000001 -0.000004 -1.232885 0.634611 0.531468
    25 3.859676 -0.132545 1.193110 0.578311 -0.053913 -1.438303
    26 1.340820 -0.081116 -0.265625 0.125817 -0.454889 -1.743925
    27 0.729368 -0.000004 -0.000002 0.029291 -0.004975 0.110788
    28 3.942295 0.050346 0.431044 0.222248 0.007471 -1.227783
    29 1.539106 0.000000 0.000001 0.042488 0.013216 -1.748756
    30 1.196321 -0.000002 -0.000002 0.002362 -0.000852 -0.117880
    31 3.883663 -0.050303 -0.431042 0.065776 -0.040813 -1.144344
    32 1.719582 0.000002 0.000006 0.079939 0.050141 -1.972252
    33 1.209183 0.000004 0.000006 0.001100 -0.005446 0.059746
    34 3.859833 -0.148919 -1.331282 -0.243002 0.318519 -0.080536
    35 1.719431 0.000008 0.000010 -0.029671 0.052629 -1.729261
    36 1.099665 0.000002 0.000007 -0.009020 -0.003409 0.231871
    37 0.806023 -0.359832 -1.318335 1.272750 0.291615 -0.693987
    38 1.789785 -0.000004 -0.000004 -0.049815 0.256686 0.362904
    39 1.207003 -0.000002 -0.000008 0.017681 -0.139192 0.735621
    40 11.481705 0.000084 0.000004 0.034929 0.117460 0.072230
    41 -5.947220 -10.563330 -5.694192 1.316249 -0.077956 0.022940
    42 -0.067427 -1.982567 -1.097137 0.256999 0.000000 0.000000
    43 -0.067427 0.572451 -2.207360 -0.529308 0.000000 0.000000
    44 0.123583 -0.795422 1.042980 -0.464939 0.000000 0.000000
    45 -0.011781 1.744501 0.023932 -1.570796 0.000000 0.000000
  time 10
    0 0.000000 -0.000006 0.000000 -1.570781 -1.391896 -1.570809
    1 -9.648438 -4.734375 3.712891 1.596636 -1.286515 2.942963
    2 6.028145 0.000003 0.000002 -0.447399 -0.714048 -2.161347
    3 11.692553 0.000081 -0.000005 -0.000027 0.000036 -1.140994
    4 11.481672 -0.000089 -0.000024 1.379554 -0.756106 0.403388
    5 3.859703 -1.271357 -1.266196 -0.325620 0.060707 -2.078455
    6 1.312565 -0.000008 0.000004 0.000000 -0.000003 -0.439723
    7 0.729363 -0.000004 0.000003 0.000000 -0.000002 -0.505811
    8 4.075146 -1.101719 -0.318160 -0.129141 0.174999 -1.999283
    9 1.623047 0.003679 -0.022034 -0.000002 0.000006 -0.247791
    10 1.196322 -0.000006 0.000002 0.000003 -0.000005 -1.049532
    11 3.883690 -1.175725 0.357222 0.020826 0.224159 -1.675126
    12 1.602539 0.015594 -0.064087 0.000002 0.005514 -0.366480
    13 1.209181 -0.000006 0.000003 -0.002301 0.002060 -1.057564
    14 3.855469 -1.270508 1.254883 0.206793 0.293012 -1.589312
    15 1.719435 0.000000 -0.000005 -0.000004 0.004079 -0.363004
    16 1.099678 -0.000006 0.000004 -0.001853 0.001816 -1.043047
    17 0.646973 -0.743652 1.289063 -1.434788 -0.785841 -0.547740
    18 1.789783 0.000000 -0.000008 -0.017849 -0.112813 0.695439
    19 1.207001 0.000000 -0.000002 0.012885 -0.000830 0.511142
    20 11.481705 -0.000013 -0.000001 -0.008519 -0.134349 0.053366
    21 -5.480469 -7.855469 -8.593750 -1.668474 1.286518 2.942953
    22 6.028141 0.000000 -0.000002 0.918687 0.793884 -1.421939
    23 11.692554 0.000000 -0.000001 -0.000002 0.000000 -1.473443
    24 11.481703 -0.000001 -0.000004 -1.264438 0.628412 0.541309
    25 3.859676 -0.132545 1.193110 0.578311 -0.053913 -1.438303
    26 1.340820 -0.081116 -0.265625 0.125817 -0.454889 -1.743925
    27 0.729368 -0.000004 -0.000002 0.029291 -0.004975 0.110788
    28 3.942295 0.050346 0.431044 0.222248 0.007471 -1.227783
    29 1.539106 0.000000 0.000001 0.042488 0.013216 -1.748756
    30 1.196321 -0.000002 -0.000002 0.002362 -0.000852 -0.117880
    31 3.883663 -0.050303 -0.431042 0.065776 -0.040813 -1.144344
    32 1.719582 0.000002 0.000006 0.079939 0.050141 -1.972252
    33 1.209183 0.000004 0.000006 0.001100 -0.005446 0.059746
    34 3.859833 -0.148919 -1.331282 -0.243002 0.318519 -0.080536
    35 1.719431 0.000008 0.000010 -0.029671 0.052629 -1.729261
    36 1.099665 0.000002 0.000007 -0.009020 -0.003409 0.231871
    37 0.806023 -0.359832 -1.318335 1.272750 0.291615 -0.693987
    38 1.789785 -0.000004 -0.000004 -0.049815 0.256686 0.362904
    39 1.207003 -0.000002 -0.000008 0.017681 -0.139192 0.735621
    40 11.481705 0.000084 0.000004 0.029145 0.115135 0.076437
    41 -5.931595 -10.668802 -5.686379 1.326513 -0.042841 0.014103
    42 -0.067427 -1.982567 -1.097137 0.256999 0.000000 0.000000
    43 -0.067427 0.572451 -2.207360 -0.529308 0.000000 0.000000
    44 0.115770 -0.795422 1.062512 -0.464939 0.000000 0.000000
    45 -0.011781 1.744501 0.023932 -1.570796 0.000000 0.000000
  time 11
    0 0.000000 -0.000006 0.000000 -1.570781 -1.391896 -1.570809
    1 -9.648438 -4.734375 3.712891 1.596636 -1.286515 2.942963
    2 6.028145 0.000003 0.000002 -0.440827 -0.717791 -2.171685
    3 11.692553 0.000081 -0.000005 -0.000027 0.000036 -1.119902
    4 11.481672 -0.000089 -0.000024 1.331455 -0.755840 0.406488
    5 3.859703 -1.271357 -1.266196 -0.325620 0.060707 -2.078455
    6 1.312565 -0.000008 0.000004 0.000000 -0.000003 -0.439723
    7 0.729363 -0.000004 0.000003 0.000000 -0.000002 -0.505811
    8 4.075146 -1.101719 -0.318160 -0.129141 0.174999 -1.999283
    9 1.623047 0.003679 -0.022034 -0.000002 0.000006 -0.247791
    10 1.196322 -0.000006 0.000002 0.000003 -0.000005 -1.049532
    11 3.883690 -1.175725 0.357222 0.020826 0.224159 -1.675126
    12 1.602539 0.015594 -0.064087 0.000002 0.005514 -0.366480
    13 1.209181 -0.000006 0.000003 -0.002301 0.002060 -1.057564
    14 3.855469 -1.270508 1.254883 0.206793 0.293012 -1.589312
    15 1.719435 0.000000 -0.000005 -0.000004 0.004079 -0.363004
    16 1.099678 -0.000006 0.000004 -0.001853 0.001816 -1.043047
    17 0.646973 -0.743652 1.289063 -1.434788 -0.785841 -0.547740
    18 1.789783 0.000000 -0.000008 -0.017849 -0.112813 0.695439
    19 1.207001 0.000000 -0.000002 0.012885 -0.000830 0.511142
    20 11.481705 -0.000013 -0.000001 -0.016897 -0.135799 0.050358
    21 -5.480469 -7.855469 -8.593750 -1.668474 1.286518 2.942953
    22 6.028141 0.000000 -0.000002 0.922046 0.801721 -1.423413
    23 11.692554 0.000000 -0.000001 -0.000002 0.000000 -1.467867
    24 11.481703 -0.000001 -0.000004 -1.296454 0.621752 0.552731
    25 3.859676 -0.132545 1.193110 0.578311 -0.053913 -1.438303
    26 1.340820 -0.081116 -0.265625 0.125817 -0.454889 -1.743925
    27 0.729368 -0.000004 -0.000002 0.029291 -0.004975 0.110788
    28 3.942295 0.050346 0.431044 0.222248 0.007471 -1.227783
    29 1.539106 0.000000 0.000001 0.042488 0.013216 -1.748756
    30 1.196321 -0.000002 -0.000002 0.002362 -0.000852 -0.117880
    31 3.883663 -0.050303 -0.431042 0.065776 -0.040813 -1.144344
    32 1.719582 0.000002 0.000006 0.079939 0.050141 -1.972252
    33 1.209183 0.000004 0.000006 0.001100 -0.005446 0.059746
    34 3.859833 -0.148919 -1.331282 -0.243002 0.318519 -0.080536
    35 1.719431 0.000008 0.000010 -0.029671 0.052629 -1.729261
    36 1.099665 0.000002 0.000007 -0.009020 -0.003409 0.231871
    37 0.806023 -0.359832 -1.318335 1.272750 0.291615 -0.693987
    38 1.789785 -0.000004 -0.000004 -0.049815 0.256686 0.362904
    39 1.207003 -0.000002 -0.000008 0.017681 -0.139192 0.735621
    40 11.481705 0.000084 0.000004 0.023242 0.112654 0.080979
    41 -5.912063 -10.789899 -5.674660 1.337998 -0.006384 0.005267
    42 -0.067427 -1.982567 -1.097137 0.256999 0.000000 0.000000
    43 -0.067427 0.572451 -2.207360 -0.529308 0.000000 0.000000
    44 0.111863 -0.795422 1.085950 -0.464939 0.000000 0.000000
    45 -0.011781 1.744501 0.023932 -1.570796 0.000000 0.000000
  time 12
    0 0.000000 -0.000006 0.000000 -1.570781 -1.391896 -1.570809
    1 -9.648438 -4.734375 3.712891 1.596636 -1.286515 2.942963
    2 6.028145 0.000003 0.000002 -0.434054 -0.721981 -2.183261
    3 11.692553 0.000081 -0.000005 -0.000027 0.000036 -1.097862
    4 11.481672 -0.000089 -0.000024 1.284098 -0.754678 0.411080
    5 3.859703 -1.271357 -1.266196 -0.325620 0.060707 -2.078455
    6 1.312565 -0.000008 0.000004 0.000000 -0.000003 -0.439723
    7 0.729363 -0.000004 0.000003 0.000000 -0.000002 -0.505811
    8 4.075146 -1.101719 -0.318160 -0.129141 0.174999 -1.999283
    9 1.623047 0.003679 -0.022034 -0.000002 0.000006 -0.247791
    10 1.196322 -0.000006 0.000002 0.000003 -0.000005 -1.049532
    11 3.883690 -1.175725 0.357222 0.020826 0.224159 -1.675126
    12 1.602539 0.015594 -0.064087 0.000002 0.005514 -0.366480
    13 1.209181 -0.000006 0.000003 -0.002301 0.002060 -1.057564
    14 3.855469 -1.270508 1.254883 0.206793 0.293012 -1.589312
    15 1.719435 0.000000 -0.000005 -0.000004 0.004079 -0.363004
    16 1.099678 -0.000006 0.000004 -0.001853 0.001816 -1.043047
    17 0.646973 -0.743652 1.289063 -1.434788 -0.785841 -0.547740
    18 1.789783 0.000000 -0.000008 -0.017849 -0.112813 0.695439
    19 1.207001 0.000000 -0.000002 0.012885 -0.000830 0.511142
    20 11.481705 -0.000013 -0.000001 -0.025118 -0.137070 0.047698
    21 -5.480469 -7.855469 -8.593750 -1.668474 1.286518 2.942953
    22 6.028141 0.000000 -0.000002 0.924615 0.810822 -1.426032
    23 11.692554 0.000000 -0.000001 -0.000002 0.000000 -1.460536
    24 11.481703 -0.000001 -0.000004 -1.326486 0.614883 0.565560
    25 3.859676 -0.132545 1.193110 0.578311 -0.053913 -1.438303
    26 1.340820 -0.081116 -0.265625 0.125817 -0.454889 -1.743925
    27 0.729368 -0.000004 -0.000002 0.029291 -0.004975 0.110788
    28 3.942295 0.050346 0.431044 0.222248 0.007471 -1.227783
    29 1.539106 0.000000 0.000001 0.042488 0.013216 -1.748756
    30 1.196321 -0.000002 -0.000002 0.002362 -0.000852 -0.117880
    31 3.883663 -0.050303 -0.431042 0.065776 -0.040813 -1.144344
    32 1.719582 0.000002 0.000006 0.079939 0.050141 -1.972252
    33 1.209183 0.000004 0.000006 0.001100 -0.005446 0.059746
    34 3.859833 -0.148919 -1.331282 -0.243002 0.318519 -0.080536
    35 1.719431 0.000008 0.000010 -0.029671 0.052629 -1.729261
    36 1.099665 0.000002 0.000007 -0.009020 -0.003409 0.231871
    37 0.806023 -0.359832 -1.318335 1.272750 0.291615 -0.693987
    38 1.789785 -0.000004 -0.000004 -0.049815 0.256686 0.362904
    39 1.207003 -0.000002 -0.000008 0.017681 -0.139192 0.735621
    40 11.481705 0.000084 0.000004 0.017632 0.110185 0.085629
    41 -5.892531 -10.926622 -5.659035 1.350542 0.028912 -0.002798
    42 -0.067427 -1.982567 -1.097137 0.256999 0.000000 0.000000
    43 -0.067427 0.572451 -2.207360 -0.529308 0.000000 0.000000
    44 0.104051 -0.791516 1.109389 -0.464939 0.000000 0.000000
    45 -0.011781 1.744501 0.023932 -1.570796 0.000000 0.000000
  time 13
    0 0.000000 -0.000006 0.000000 -1.570781 -1.391896 -1.570809
    1 -9.648438 -4.734375 3.712891 1.596636 -1.286515 2.942963
    2 6.028145 0.000003 0.000002 -0.427818 -0.726579 -2.195637
    3 11.692553 0.000081 -0.000005 -0.000027 0.000036 -1.076012
    4 11.481672 -0.000089 -0.000024 1.240518 -0.752419 0.417280
    5 3.859703 -1.271357 -1.266196 -0.325620 0.060707 -2.078455
    6 1.312565 -0.000008 0.000004 0.000000 -0.000003 -0.439723
    7 0.729363 -0.000004 0.000003 0.000000 -0.000002 -0.505811
    8 4.075146 -1.101719 -0.318160 -0.129141 0.174999 -1.999283
    9 1.623047 0.003679 -0.022034 -0.000002 0.000006 -0.247791
    10 1.196322 -0.000006 0.000002 0.000003 -0.000005 -1.049532
    11 3.883690 -1.175725 0.357222 0.020826 0.224159 -1.675126
    12 1.602539 0.015594 -0.064087 0.000002 0.005514 -0.366480
    13 1.209181 -0.000006 0.000003 -0.002301 0.002060 -1.057564
    14 3.855469 -1.270508 1.254883 0.206793 0.293012 -1.589312
    15 1.719435 0.000000 -0.000005 -0.000004 0.004079 -0.363004
    16 1.099678 -0.000006 0.000004 -0.001853 0.001816 -1.043047
    17 0.646973 -0.743652 1.289063 -1.434788 -0.785841 -0.547740
    18 1.789783 0.000000 -0.000008 -0.017849 -0.112813 0.695439
    19 1.207001 0.000000 -0.000002 0.012885 -0.000830 0.511142
    20 11.481705 -0.000013 -0.000001 -0.032632 -0.138064 0.045672
    21 -5.480469 -7.855469 -8.593750 -1.668474 1.286518 2.942953
    22 6.028141 0.000000 -0.000002 0.925998 0.820945 -1.430016
    23 11.692554 0.000000 -0.000001 -0.000002 0.000000 -1.451244
    24 11.481703 -0.000001 -0.000004 -1.352152 0.608014 0.579442
    25 3.859676 -0.132545 1.193110 0.578311 -0.053913 -1.438303
    26 1.340820 -0.081116 -0.265625 0.125817 -0.454889 -1.743925
    27 0.729368 -0.000004 -0.000002 0.029291 -0.004975 0.110788
    28 3.942295 0.050346 0.431044 0.222248 0.007471 -1.227783
    29 1.539106 0.000000 0.000001 0.042488 0.013216 -1.748756
    30 1.196321 -0.000002 -0.000002 0.002362 -0.000852 -0.117880
    31 3.883663 -0.050303 -0.431042 0.065776 -0.040813 -1.144344
    32 1.719582 0.000002 0.000006 0.079939 0.050141 -1.972252
    33 1.209183 0.000004 0.000006 0.001100 -0.005446 0.059746
    34 3.859833 -0.148919 -1.331282 -0.243002 0.318519 -0.080536
    35 1.719431 0.000008 0.000010 -0.029671 0.052629 -1.729261
    36 1.099665 0.000002 0.000007 -0.009020 -0.003409 0.231871
    37 0.806023 -0.359832 -1.318335 1.272750 0.291615 -0.693987
    38 1.789785 -0.000004 -0.000004 -0.049815 0.256686 0.362904
    39 1.207003 -0.000002 -0.000008 0.017681 -0.139192 0.735621
    40 11.481705 0.000084 0.000004 0.012792 0.107848 0.090171
    41 -5.869093 -11.078970 -5.647316 1.363982 0.060725 -0.009661
    42 -0.067427 -1.982567 -1.097137 0.256999 0.000000 0.000000
    43 -0.067427 0.572451 -2.207360 -0.529308 0.000000 0.000000
    44 0.100144 -0.791516 1.132827 -0.464939 0.000000 0.000000
    45 -0.011781 1.744501 0.023932 -1.570796 0.000000 0.000000
  time 14
    0 0.000000 -0.000006 0.000000 -1.570781 -1.391896 -1.570809
    1 -9.648438 -4.734375 3.712891 1.596636 -1.286515 2.942963
    2 6.028145 0.000003 0.000002 -0.422722 -0.731461 -2.208233
    3 11.692553 0.000081 -0.000005 -0.000015 0.000036 -1.055551
    4 11.481672 -0.000089 -0.000024 1.203685 -0.749032 0.425259
    5 3.859703 -1.271357 -1.266196 -0.325620 0.060707 -2.078455
    6 1.312565 -0.000008 0.000004 0.000000 -0.000003 -0.439723
    7 0.729363 -0.000004 0.000003 0.000000 -0.000002 -0.505811
    8 4.075146 -1.101719 -0.318160 -0.129141 0.174999 -1.999283
    9 1.623047 0.003679 -0.022034 -0.000002 0.000006 -0.247791
    10 1.196322 -0.000006 0.000002 0.000003 -0.000005 -1.049532
    11 3.883690 -1.175725 0.357222 0.020826 0.224159 -1.675126
    12 1.602539 0.015594 -0.064087 0.000002 0.005514 -0.366480
    13 1.209181 -0.000006 0.000003 -0.002301 0.002060 -1.057564
    14 3.855469 -1.270508 1.254883 0.206793 0.293012 -1.589312
    15 1.719435 0.000000 -0.000005 -0.000004 0.004079 -0.363004
    16 1.099678 -0.000006 0.000004 -0.001853 0.001816 -1.043047
    17 0.646973 -0.743652 1.289063 -1.434788 -0.785841 -0.547740
    18 1.789783 0.000000 -0.000008 -0.017849 -0.112813 0.695439
    19 1.207001 0.000000 -0.000002 0.012885 -0.000830 0.511142
    20 11.481705 -0.000013 -0.000001 -0.038888 -0.138688 0.044558
    21 -5.480469 -7.855469 -8.593750 -1.668474 1.286518 2.942953
    22 6.028141 0.000000 -0.000002 0.925899 0.831965 -1.435473
    23 11.692554 0.000000 -0.000001 -0.000002 0.000000 -1.439782
    24 11.481703 -0.000001 -0.000004 -1.370872 0.601228 0.594028
    25 3.859676 -0.132545 1.193110 0.578311 -0.053913 -1.438303
    26 1.340820 -0.081116 -0.265625 0.125817 -0.454889 -1.743925
    27 0.729368 -0.000004 -0.000002 0.029291 -0.004975 0.110788
    28 3.942295 0.050346 0.431044 0.222248 0.007471 -1.227783
    29 1.539106 0.000000 0.000001 0.042488 0.013216 -1.748756
    30 1.196321 -0.000002 -0.000002 0.002362 -0.000852 -0.117880
    31 3.883663 -0.050303 -0.431042 0.065776 -0.040813 -1.144344
    32 1.719582 0.000002 0.000006 0.079939 0.050141 -1.972301
    33 1.209183 0.000004 0.000006 0.001100 -0.005446 0.059746
    34 3.859833 -0.148919 -1.331282 -0.243458 0.317668 -0.080887
    35 1.719431 0.000008 0.000010 -0.029323 0.052353 -1.723340
    36 1.099665 0.000002 0.000007 -0.008960 -0.003421 0.230865
    37 0.806023 -0.359832 -1.318335 1.272750 0.291615 -0.693987
    38 1.789785 -0.000004 -0.000004 -0.049815 0.256686 0.362904
    39 1.207003 -0.000002 -0.000008 0.017681 -0.139192 0.735621
    40 11.481705 0.000084 0.000004 0.009176 0.105799 0.094390
    41 -5.845655 -11.239131 -5.631690 1.378318 0.086517 -0.014637
    42 -0.067427 -1.982567 -1.097137 0.256999 0.000000 0.000000
    43 -0.067427 0.572451 -2.207360 -0.529308 0.000000 0.000000
    44 0.092332 -0.787610 1.156265 -0.464939 0.000000 0.000000
    45 -0.011781 1.744501 0.023932 -1.570796 0.000000 0.000000
  time 15
    0 0.000000 -0.000006 0.000000 -1.570781 -1.391896 -1.570809
    1 -9.648438 -4.734375 3.712891 1.596636 -1.286515 2.942963
    2 6.028145 0.000003 0.000002 -0.419570 -0.736465 -2.220391
    3 11.692553 0.000081 -0.000005 -0.000015 0.000036 -1.037490
    4 11.481672 -0.000089 -0.000024 1.176756 -0.744648 0.435189
    5 3.859703 -1.271357 -1.266196 -0.325620 0.060707 -2.078455
    6 1.312565 -0.000008 0.000004 0.000000 -0.000003 -0.439723
    7 0.729363 -0.000004 0.000003 0.000000 -0.000002 -0.505811
    8 4.075146 -1.101719 -0.318160 -0.129141 0.174999 -1.999283
    9 1.623047 0.003679 -0.022034 -0.000002 0.000006 -0.247791
    10 1.196322 -0.000006 0.000002 0.000003 -0.000005 -1.049532
    11 3.883690 -1.175725 0.357222 0.020826 0.224159 -1.675126
    12 1.602539 0.015594 -0.064087 0.000002 0.005514 -0.366480
    13 1.209181 -0.000006 0.000003 -0.002301 0.002060 -1.057564
    14 3.855469 -1.270508 1.254883 0.206793 0.293012 -1.589312
    15 1.719435 0.000000 -0.000005 -0.000004 0.004079 -0.363004
    16 1.099678 -0.000006 0.000004 -0.001853 0.001816 -1.043047
    17 0.646973 -0.743652 1.289063 -1.434788 -0.785841 -0.547740
    18 1.789783 0.000000 -0.000008 -0.017849 -0.112813 0.695439
    19 1.207001 0.000000 -0.000002 0.012885 -0.000830 0.511142
    20 11.481705 -0.000013 -0.000001 -0.043371 -0.138891 0.044582
    21 -5.480469 -7.855469 -8.593750 -1.668474 1.286518 2.942953
    22 6.028141 0.000000 -0.000002 0.924121 0.843638 -1.442512
    23 11.692554 0.000000 -0.000001 -0.000002 0.000000 -1.426153
    24 11.481703 -0.000001 -0.000004 -1.380331 0.594443 0.609053
    25 3.859676 -0.132545 1.193110 0.578311 -0.053913 -1.438303
    26 1.340820 -0.081116 -0.265625 0.125817 -0.454889 -1.743925
    27 0.729368 -0.000004 -0.000002 0.029291 -0.004975 0.110788
    28 3.942295 0.050346 0.431044 0.222248 0.007471 -1.227783
    29 1.539106 0.000000 0.000001 0.042488 0.013216 -1.748802
    30 1.196321 -0.000002 -0.000002 0.002362 -0.000852 -0.117880
    31 3.883663 -0.050303 -0.431042 0.065776 -0.040813 -1.144344
    32 1.719582 0.000002 0.000006 0.079939 0.050141 -1.972301
    33 1.209183 0.000004 0.000006 0.001100 -0.005446 0.059746
    34 3.859833 -0.148919 -1.331282 -0.244824 0.315079 -0.081898
    35 1.719431 0.000008 0.000010 -0.028257 0.051490 -1.705411
    36 1.099665 0.000002 0.000007 -0.008781 -0.003445 0.227817
    37 0.806023 -0.359832 -1.318335 1.272750 0.291615 -0.693987
    38 1.789785 -0.000004 -0.000004 -0.049815 0.256686 0.362904
    39 1.207003 -0.000002 -0.000008 0.017681 -0.139192 0.735621
    40 11.481705 0.000084 0.000004 0.007235 0.104169 0.098105
    41 -5.818310 -11.407105 -5.616065 1.393387 0.103857 -0.017554
    42 -0.067427 -1.982567 -1.097137 0.256999 0.000000 0.000000
    43 -0.067427 0.572451 -2.207360 -0.529308 0.000000 0.000000
    44 0.084519 -0.787610 1.183610 -0.464939 0.000000 0.000000
    45 -0.011781 1.744501 0.023932 -1.570796 0.000000 0.000000
  time 16
    0 0.000000 -0.000006 0.000000 -1.570781 -1.391896 -1.570809
    1 -9.648438 -4.734375 3.712891 1.596636 -1.286515 2.942963
    2 6.028145 0.000003 0.000002 -0.418966 -0.741551 -2.231603
    3 11.692553 0.000081 -0.000005 -0.000015 0.000024 -1.022965
    4 11.481672 -0.000089 -0.000024 1.162580 -0.739434 0.447186
    5 3.859703 -1.271357 -1.266196 -0.325620 0.060707 -2.078491
    6 1.312565 -0.000008 0.000004 0.000000 -0.000003 -0.439723
    7 0.729363 -0.000004 0.000003 0.000000 -0.000002 -0.505811
    8 4.075146 -1.101719 -0.318160 -0.129141 0.174999 -1.999283
    9 1.623047 0.003679 -0.022034 -0.000002 0.000006 -0.247791
    10 1.196322 -0.000006 0.000002 0.000003 -0.000005 -1.049532
    11 3.883690 -1.175725 0.357222 0.020826 0.224159 -1.675126
    12 1.602539 0.015594 -0.064087 0.000002 0.005514 -0.366480
    13 1.209181 -0.000006 0.000003 -0.002301 0.002060 -1.057564
    14 3.855469 -1.270508 1.254883 0.206793 0.293012 -1.589312
    15 1.719435 0.000000 -0.000005 -0.000004 0.004079 -0.363004
    16 1.099678 -0.000006 0.000004 -0.001853 0.001816 -1.043047
    17 0.646973 -0.743652 1.289063 -1.434788 -0.785841 -0.547740
    18 1.789783 0.000000 -0.000008 -0.017849 -0.112813 0.695439
    19 1.207001 0.000000 -0.000002 0.012885 -0.000830 0.511142
    20 11.481705 -0.000013 -0.000001 -0.045528 -0.138604 0.046032
    21 -5.480469 -7.855469 -8.593750 -1.668474 1.286518 2.942953
    22 6.028141 0.000000 -0.000002 0.920416 0.855760 -1.451134
    23 11.692554 0.000000 -0.000001 -0.000002 0.000000 -1.410252
    24 11.481703 -0.000001 -0.000004 -1.378082 0.587574 0.624254
    25 3.859676 -0.132545 1.193110 0.578311 -0.053913 -1.438303
    26 1.340820 -0.081116 -0.265625 0.125817 -0.454889 -1.743925
    27 0.729368 -0.000004 -0.000002 0.029291 -0.004975 0.110788
    28 3.942295 0.050346 0.431044 0.222248 0.007471 -1.227783
    29 1.539106 0.000000 0.000001 0.042488 0.013216 -1.748756
    30 1.196321 -0.000002 -0.000002 0.002362 -0.000852 -0.117880
    31 3.883663 -0.050303 -0.431042 0.065776 -0.040813 -1.144344
    32 1.719582 0.000002 0.000006 0.079939 0.050141 -1.972252
    33 1.209183 0.000004 0.000006 0.001100 -0.005446 0.059746
    34 3.859833 -0.148919 -1.331282 -0.247089 0.310765 -0.083611
    35 1.719431 0.000008 0.000010 -0.026507 0.049992 -1.675347
    36 1.099665 0.000002 0.000007 -0.008469 -0.003481 0.222727
    37 0.806023 -0.359832 -1.318335 1.272750 0.291615 -0.693987
    38 1.789785 -0.000004 -0.000004 -0.049815 0.256686 0.362904
    39 1.207003 -0.000002 -0.000008 0.017681 -0.139192 0.735621
    40 11.481705 0.000084 0.000004 0.007448 0.103066 0.101101
    41 -5.794872 -11.578986 -5.600439 1.409271 0.110277 -0.017983
    42 -0.067427 -1.982567 -1.097137 0.256999 0.000000 0.000000
    43 -0.067427 0.572451 -2.207360 -0.529308 0.000000 0.000000
    44 0.080613 -0.787610 1.210954 -0.464939 0.000000 0.000000
    45 -0.011781 1.744501 0.023932 -1.570796 0.000000 0.000000
  time 17
    0 0.000000 -0.000006 0.000000 -1.570781 -1.391896 -1.570809
    1 -9.648438 -4.734375 3.712891 1.596636 -1.286515 2.942963
    2 6.028145 0.000003 0.000002 -0.419972 -0.746799 -2.242232
    3 11.692553 0.000081 -0.000005 -0.000015 0.000036 -1.010588
    4 11.481672 -0.000089 -0.000024 1.157690 -0.733887 0.460504
    5 3.859703 -1.271357 -1.266196 -0.325620 0.060707 -2.078455
    6 1.312565 -0.000008 0.000004 0.000000 -0.000003 -0.439723
    7 0.729363 -0.000004 0.000003 0.000000 -0.000002 -0.505811
    8 4.075146 -1.101719 -0.318160 -0.129141 0.174999 -1.999283
    9 1.623047 0.003679 -0.022034 -0.000002 0.000006 -0.247791
    10 1.196322 -0.000006 0.000002 0.000003 -0.000005 -1.049532
    11 3.883690 -1.175725 0.357222 0.020826 0.224159 -1.675126
    12 1.602539 0.015594 -0.064087 0.000002 0.005514 -0.366480
    13 1.209181 -0.000006 0.000003 -0.002301 0.002060 -1.057564
    14 3.855469 -1.270508 1.254883 0.206793 0.293012 -1.589312
    15 1.719435 0.000000 -0.000005 -0.000004 0.004079 -0.363004
    16 1.099678 -0.000006 0.000004 -0.001853 0.001816 -1.043047
    17 0.646973 -0.743652 1.289063 -1.434788 -0.785841 -0.547740
    18 1.789783 0.000000 -0.000008 -0.017849 -0.112813 0.695439
    19 1.207001 0.000000 -0.000002 0.012885 -0.000830 0.511142
    20 11.481705 -0.000013 -0.000001 -0.045995 -0.137992 0.048429
    21 -5.480469 -7.855469 -8.593750 -1.668474 1.286518 2.942953
    22 6.028141 0.000000 -0.000002 0.915328 0.868087 -1.461011
    23 11.692554 0.000000 -0.000001 -0.000002 0.000000 -1.392647
    24 11.481703 -0.000001 -0.000004 -1.367498 0.580495 0.639455
    25 3.859676 -0.132545 1.193110 0.578311 -0.053913 -1.438303
    26 1.340820 -0.081116 -0.265625 0.125817 -0.454889 -1.743925
    27 0.729368 -0.000004 -0.000002 0.029291 -0.004975 0.110788
    28 3.942295 0.050346 0.431044 0.222248 0.007471 -1.227783
    29 1.539106 0.000000 0.000001 0.042488 0.013216 -1.748756
    30 1.196321 -0.000002 -0.000002 0.002362 -0.000852 -0.117880
    31 3.883663 -0.050303 -0.431042 0.065776 -0.040813 -1.144344
    32 1.719582 0.000002 0.000006 0.079939 0.050141 -1.972252
    33 1.209183 0.000004 0.000006 0.001100 -0.005446 0.059746
    34 3.859833 -0.148919 -1.331282 -0.250217 0.304773 -0.085946
    35 1.719431 0.000008 0.000010 -0.024146 0.047823 -1.633358
    36 1.099665 0.000002 0.000007 -0.008050 -0.003541 0.215656
    37 0.806023 -0.359832 -1.318335 1.272750 0.291615 -0.693987
    38 1.789785 -0.000004 -0.000004 -0.049815 0.256686 0.362904
    39 1.207003 -0.000002 -0.000008 0.017681 -0.139192 0.735621
    40 11.481705 0.000084 0.000004 0.009203 0.102347 0.103594
    41 -5.767527 -11.754772 -5.580907 1.425562 0.108790 -0.016867
    42 -0.067427 -1.982567 -1.097137 0.256999 0.000000 0.000000
    43 -0.067427 0.572451 -2.207360 -0.529308 0.000000 0.000000
    44 0.072800 -0.783703 1.234393 -0.464939 0.000000 0.000000
    45 -0.011781 1.744501 0.023932 -1.570796 0.000000 0.000000
  time 18
    0 0.000000 -0.000006 0.000000 -1.570781 -1.391896 -1.570809
    1 -9.648438 -4.734375 3.712891 1.596636 -1.286515 2.942963
    2 6.028145 0.000003 0.000002 -0.421582 -0.752129 -2.252643
    3 11.692553 0.000081 -0.000005 -0.000015 0.000036 -0.999157
    4 11.481672 -0.000089 -0.000024 1.156266 -0.728208 0.474338
    5 3.859703 -1.271357 -1.266196 -0.325620 0.060707 -2.078455
    6 1.312565 -0.000008 0.000004 0.000000 -0.000003 -0.439723
    7 0.729363 -0.000004 0.000003 0.000000 -0.000002 -0.505811
    8 4.075146 -1.101719 -0.318160 -0.129141 0.174999 -1.999283
    9 1.623047 0.003679 -0.022034 -0.000002 0.000006 -0.247791
    10 1.196322 -0.000006 0.000002 0.000003 -0.000005 -1.049532
    11 3.883690 -1.175725 0.357222 0.020826 0.224159 -1.675126
    12 1.602539 0.015594 -0.064087 0.000002 0.005514 -0.366480
    13 1.209181 -0.000006 0.000003 -0.002301 0.002060 -1.057564
    14 3.855469 -1.270508 1.254883 0.206793 0.293012 -1.589312
    15 1.719435 0.000000 -0.000005 -0.000004 0.004079 -0.363004
    16 1.099678 -0.000006 0.000004 -0.001853 0.001816 -1.043047
    17 0.646973 -0.743652 1.289063 -1.434788 -0.785841 -0.547740
    18 1.789783 0.000000 -0.000008 -0.017849 -0.112813 0.695439
    19 1.207001 0.000000 -0.000002 0.012885 -0.000830 0.511142
    20 11.481705 -0.000013 -0.000001 -0.045828 -0.137273 0.051197
    21 -5.480469 -7.855469 -8.593750 -1.668474 1.286518 2.942953
    22 6.028141 0.000000 -0.000002 0.909400 0.880535 -1.471543
    23 11.692554 0.000000 -0.000001 -0.000002 0.000000 -1.374268
    24 11.481703 -0.000001 -0.000004 -1.354004 0.573207 0.654216
    25 3.859676 -0.132545 1.193110 0.578311 -0.053913 -1.438303
    26 1.340820 -0.081116 -0.265625 0.125817 -0.454889 -1.743925
    27 0.729368 -0.000004 -0.000002 0.029291 -0.004975 0.110788
    28 3.942295 0.050346 0.431044 0.222248 0.007471 -1.227795
    29 1.539106 0.000000 0.000001 0.042488 0.013216 -1.748756
    30 1.196321 -0.000002 -0.000002 0.002362 -0.000852 -0.117880
    31 3.883663 -0.050303 -0.431042 0.065776 -0.040813 -1.144344
    32 1.719582 0.000002 0.000006 0.079939 0.050141 -1.972252
    33 1.209183 0.000004 0.000006 0.001100 -0.005446 0.059746
    34 3.859833 -0.148919 -1.331282 -0.254124 0.297222 -0.088864
    35 1.719431 0.000008 0.000010 -0.021282 0.044935 -1.580194
    36 1.099665 0.000002 0.000007 -0.007510 -0.003601 0.206760
    37 0.806023 -0.359832 -1.318335 1.272750 0.291615 -0.693987
    38 1.789785 -0.000004 -0.000004 -0.049815 0.256686 0.362904
    39 1.207003 -0.000002 -0.000008 0.017681 -0.139192 0.735621
    40 11.481705 0.000084 0.000004 0.011516 0.101772 0.105859
    41 -5.740183 -11.934465 -5.565282 1.442097 0.104401 -0.015237
    42 -0.067427 -1.982567 -1.097137 0.256999 0.000000 0.000000
    43 -0.067427 0.572451 -2.207360 -0.529308 0.000000 0.000000
    44 0.064987 -0.783703 1.257831 -0.464939 0.000000 0.000000
    45 -0.011781 1.744501 0.023932 -1.570796 0.000000 0.000000
  time 19
    0 0.000000 -0.000006 0.000000 -1.570781 -1.391896 -1.570809
    1 -9.648438 -4.734375 3.712891 1.596636 -1.286515 2.942963
    2 6.028145 0.000003 0.000002 -0.423325 -0.757622 -2.262981
    3 11.692553 0.000081 -0.000005 -0.000015 0.000024 -0.988232
    4 11.481672 -0.000089 -0.000024 1.157876 -0.722695 0.488229
    5 3.859703 -1.271357 -1.266196 -0.325620 0.060707 -2.078455
    6 1.312565 -0.000008 0.000004 0.000000 -0.000003 -0.439723
    7 0.729363 -0.000004 0.000003 0.000000 -0.000002 -0.505811
    8 4.075146 -1.101719 -0.318160 -0.129141 0.174999 -1.999283
    9 1.623047 0.003679 -0.022034 -0.000002 0.000006 -0.247791
    10 1.196322 -0.000006 0.000002 0.000003 -0.000005 -1.049532
    11 3.883690 -1.175725 0.357222 0.020826 0.224159 -1.675126
    12 1.602539 0.015594 -0.064087 0.000002 0.005514 -0.366480
    13 1.209181 -0.000006 0.000003 -0.002301 0.002060 -1.057564
    14 3.855469 -1.270508 1.254883 0.206793 0.293012 -1.589312
    15 1.719435 0.000000 -0.000005 -0.000004 0.004079 -0.363004
    16 1.099678 -0.000006 0.000004 -0.001853 0.001816 -1.043047
    17 0.646973 -0.743652 1.289063 -1.434788 -0.785841 -0.547740
    18 1.789783 0.000000 -0.000008 -0.017849 -0.112813 0.695439
    19 1.207001 0.000000 -0.000002 0.012885 -0.000830 0.511142
    20 11.481705 -0.000013 -0.000001 -0.045132 -0.136470 0.054205
    21 -5.480469 -7.855469 -8.593750 -1.668474 1.286518 2.942953
    22 6.028141 0.000000 -0.000002 0.902830 0.892984 -1.482621
    23 11.692554 0.000000 -0.000001 -0.000002 0.000000 -1.355321
    24 11.481703 -0.000001 -0.000004 -1.338327 0.565794 0.668538
    25 3.859676 -0.132545 1.193110 0.578311 -0.053913 -1.438303
    26 1.340820 -0.081116 -0.265625 0.125817 -0.454889 -1.743925
    27 0.729368 -0.000004 -0.000002 0.029291 -0.004975 0.110788
    28 3.942295 0.050346 0.431044 0.222248 0.007471 -1.227783
    29 1.539106 0.000000 0.000001 0.042488 0.013216 -1.748756
    30 1.196321 -0.000002 -0.000002 0.002362 -0.000852 -0.117880
    31 3.883663 -0.050303 -0.431042 0.065776 -0.040813 -1.144344
    32 1.719582 0.000002 0.000006 0.079939 0.050141 -1.972252
    33 1.209183 0.000004 0.000006 0.001100 -0.005446 0.059746
    34 3.859833 -0.148919 -1.331282 -0.258690 0.288318 -0.092250
    35 1.719431 0.000008 0.000010 -0.018094 0.041315 -1.517190
    36 1.099665 0.000002 0.000007 -0.006875 -0.003661 0.196301
    37 0.806023 -0.359832 -1.318335 1.272750 0.291615 -0.693987
    38 1.789785 -0.000004 -0.000004 -0.049815 0.256686 0.362904
    39 1.207003 -0.000002 -0.000008 0.017681 -0.139192 0.735621
    40 11.481705 0.000084 0.000004 0.014295 0.101305 0.107920
    41 -5.712838 -12.110252 -5.549657 1.458470 0.097581 -0.013436
    42 -0.067427 -1.982567 -1.097137 0.256999 0.000000 0.000000
    43 -0.067427 0.572451 -2.207360 -0.529308 0.000000 0.000000
    44 0.061081 -0.779797 1.285175 -0.464939 0.000000 0.000000
    45 -0.011781 1.744501 0.023932 -1.570796 0.000000 0.000000
  time 20
    0 0.000000 -0.000006 0.000000 -1.570781 -1.391896 -1.570809
    1 -9.648438 -4.734375 3.712891 1.596636 -1.286515 2.942963
    2 6.028145 0.000003 0.000002 -0.425069 -0.763155 -2.273247
    3 11.692553 0.000081 -0.000005 -0.000015 0.000024 -0.977749
    4 11.481672 -0.000089 -0.000024 1.161961 -0.717415 0.502006
    5 3.859703 -1.271357 -1.266196 -0.325620 0.060707 -2.078455
    6 1.312565 -0.000008 0.000004 0.000000 -0.000003 -0.439723
    7 0.729363 -0.000004 0.000003 0.000000 -0.000002 -0.505811
    8 4.075146 -1.101719 -0.318160 -0.129141 0.174999 -1.999283
    9 1.623047 0.003679 -0.022034 -0.000002 0.000006 -0.247791
    10 1.196322 -0.000006 0.000002 0.000003 -0.000005 -1.049532
    11 3.883690 -1.175725 0.357222 0.020826 0.224159 -1.675126
    12 1.602539 0.015594 -0.064087 0.000002 0.005514 -0.366480
    13 1.209181 -0.000006 0.000003 -0.002301 0.002060 -1.057564
    14 3.855469 -1.270508 1.254883 0.206793 0.293012 -1.589312
    15 1.719435 0.000000 -0.000005 -0.000004 0.004079 -0.363004
    16 1.099678 -0.000006 0.000004 -0.001853 0.001816 -1.043047
    17 0.646973 -0.743652 1.289063 -1.434788 -0.785841 -0.547740
    18 1.789783 0.000000 -0.000008 -0.017849 -0.112813 0.695439
    19 1.207001 0.000000 -0.000002 0.012885 -0.000830 0.511142
    20 11.481705 -0.000013 -0.000001 -0.043994 -0.135632 0.057357
    21 -5.480469 -7.855469 -8.593750 -1.668474 1.286518 2.942953
    22 6.028141 0.000000 -0.000002 0.895618 0.905351 -1.494245
    23 11.692554 0.000000 -0.000001 -0.000002 0.000000 -1.335909
    24 11.481703 -0.000001 -0.000004 -1.321062 0.558213 0.682069
    25 3.859676 -0.132545 1.193110 0.578311 -0.053913 -1.438303
    26 1.340820 -0.081116 -0.265625 0.125817 -0.454889 -1.743925
    27 0.729368 -0.000004 -0.000002 0.029291 -0.004975 0.110788
    28 3.942295 0.050346 0.431044 0.222248 0.007471 -1.227783
    29 1.539106 0.000000 0.000001 0.042488 0.013216 -1.748802
    30 1.196321 -0.000002 -0.000002 0.002362 -0.000852 -0.117880
    31 3.883663 -0.050303 -0.431042 0.065776 -0.040813 -1.144344
    32 1.719582 0.000002 0.000006 0.079939 0.050141 -1.972301
    33 1.209183 0.000004 0.000006 0.001100 -0.005446 0.059746
    34 3.859833 -0.148919 -1.331282 -0.263736 0.278347 -0.095967
    35 1.719431 0.000008 0.000010 -0.014786 0.037025 -1.446388
    36 1.099665 0.000002 0.000007 -0.006168 -0.003733 0.184604
    37 0.806023 -0.359832 -1.318335 1.272750 0.291615 -0.693987
    38 1.789785 -0.000004 -0.000004 -0.049815 0.256686 0.362904
    39 1.207003 -0.000002 -0.000008 0.017681 -0.139192 0.735621
    40 11.481705 0.000084 0.000004 0.017406 0.100933 0.109742
    41 -5.685494 -12.286038 -5.534031 1.474516 0.088766 -0.011548
    42 -0.067427 -1.982567 -1.097137 0.256999 0.000000 0.000000
    43 -0.067427 0.572451 -2.207360 -0.529308 0.000000 0.000000
    44 0.053268 -0.779797 1.308614 -0.464939 0.000000 0.000000
    45 -0.011781 1.744501 0.023932 -1.570796 0.000000 0.000000
  time 21
    0 0.000000 -0.000006 0.000000 -1.570781 -1.391896 -1.570809
    1 -9.648438 -4.734375 3.712891 1.596636 -1.286515 2.942963
    2 6.028145 0.000003 0.000002 -0.426745 -0.768729 -2.283439
    3 11.692553 0.000081 -0.000005 -0.000015 0.000024 -0.967708
    4 11.481672 -0.000089 -0.000024 1.168028 -0.712533 0.515380
    5 3.859703 -1.271357 -1.266196 -0.325620 0.060707 -2.078455
    6 1.312565 -0.000008 0.000004 0.000000 -0.000003 -0.439723
    7 0.729363 -0.000004 0.000003 0.000000 -0.000002 -0.505811
    8 4.075146 -1.101719 -0.318160 -0.129141 0.174999 -1.999283
    9 1.623047 0.003679 -0.022034 -0.000002 0.000006 -0.247791
    10 1.196322 -0.000006 0.000002 0.000003 -0.000005 -1.049532
    11 3.883690 -1.175725 0.357222 0.020826 0.224159 -1.675126
    12 1.602539 0.015594 -0.064087 0.000002 0.005514 -0.366480
    13 1.209181 -0.000006 0.000003 -0.002301 0.002060 -1.057564
    14 3.855469 -1.270508 1.254883 0.206793 0.293012 -1.589312
    15 1.719435 0.000000 -0.000005 -0.000004 0.004079 -0.363004
    16 1.099678 -0.000006 0.000004 -0.001853 0.001816 -1.043047
    17 0.646973 -0.743652 1.289063 -1.434788 -0.785841 -0.547740
    18 1.789783 0.000000 -0.000008 -0.017849 -0.112813 0.695439
    19 1.207001 0.000000 -0.000002 0.012885 -0.000830 0.511142
    20 11.481705 -0.000013 -0.000001 -0.042508 -0.134769 0.060569
    21 -5.480469 -7.855469 -8.593750 -1.668474 1.286518 2.942953
    22 6.028141 0.000000 -0.000002 0.888061 0.917229 -1.505868
    23 11.692554 0.000000 -0.000001 -0.000002 0.000000 -1.316807
    24 11.481703 -0.000001 -0.000004 -1.302804 0.550548 0.694810
    25 3.859676 -0.132545 1.193110 0.578311 -0.053913 -1.438303
    26 1.340820 -0.081116 -0.265625 0.125817 -0.454889 -1.743925
    27 0.729368 -0.000004 -0.000002 0.029291 -0.004975 0.110788
    28 3.942295 0.050346 0.431044 0.222248 0.007471 -1.227783
    29 1.539106 0.000000 0.000001 0.042488 0.013216 -1.748756
    30 1.196321 -0.000002 -0.000002 0.002362 -0.000852 -0.117880
    31 3.883663 -0.050303 -0.431042 0.065776 -0.040813 -1.144344
    32 1.719582 0.000002 0.000006 0.079939 0.050141 -1.972252
    33 1.209183 0.000004 0.000006 0.001100 -0.005446 0.059746
    34 3.859833 -0.148919 -1.331282 -0.269057 0.267692 -0.099878
    35 1.719431 0.000008 0.000010 -0.011598 0.032183 -1.370624
    36 1.099665 0.000002 0.000007 -0.005401 -0.003792 0.172118
    37 0.806023 -0.359832 -1.318335 1.272750 0.291615 -0.693987
    38 1.789785 -0.000004 -0.000004 -0.049815 0.256686 0.362904
    39 1.207003 -0.000002 -0.000008 0.017681 -0.139192 0.735621
    40 11.481705 0.000084 0.000004 0.020756 0.100634 0.111384
    41 -5.662055 -12.454012 -5.518406 1.490074 0.078500 -0.009575
    42 -0.067427 -1.982567 -1.097137 0.256999 0.000000 0.000000
    43 -0.067427 0.572451 -2.207360 -0.529308 0.000000 0.000000
    44 0.049362 -0.775890 1.332052 -0.464939 0.000000 0.000000
    45 -0.011781 1.744501 0.023932 -1.570796 0.000000 0.000000
  time 22
    0 0.000000 -0.000006 0.000000 -1.570781 -1.391896 -1.570809
    1 -9.648438 -4.734375 3.712891 1.596636 -1.286515 2.942963
    2 6.028145 0.000003 0.000002 -0.428220 -0.774181 -2.293341
    3 11.692553 0.000081 -0.000005 -0.000015 0.000024 -0.958172
    4 11.481672 -0.000089 -0.000024 1.175580 -0.708149 0.528181
    5 3.859703 -1.271357 -1.266196 -0.325620 0.060707 -2.078455
    6 1.312565 -0.000008 0.000004 0.000000 -0.000003 -0.439723
    7 0.729363 -0.000004 0.000003 0.000000 -0.000002 -0.505811
    8 4.075146 -1.101719 -0.318160 -0.129141 0.174999 -1.999283
    9 1.623047 0.003679 -0.022034 -0.000002 0.000006 -0.247791
    10 1.196322 -0.000006 0.000002 0.000003 -0.000005 -1.049532
    11 3.883690 -1.175725 0.357222 0.020826 0.224159 -1.675126
    12 1.602539 0.015594 -0.064087 0.000002 0.005514 -0.366480
    13 1.209181 -0.000006 0.000003 -0.002301 0.002060 -1.057564
    14 3.855469 -1.270508 1.254883 0.206793 0.293012 -1.589312
    15 1.719435 0.000000 -0.000005 -0.000004 0.004079 -0.363004
    16 1.099678 -0.000006 0.000004 -0.001853 0.001816 -1.043047
    17 0.646973 -0.743652 1.289063 -1.434788 -0.785841 -0.547740
    18 1.789783 0.000000 -0.000008 -0.017849 -0.112813 0.695439
    19 1.207001 0.000000 -0.000002 0.012885 -0.000830 0.511142
    20 11.481705 -0.000013 -0.000001 -0.040770 -0.133918 0.063733
    21 -5.480469 -7.855469 -8.593750 -1.668474 1.286518 2.942953
    22 6.028141 0.000000 -0.000002 0.880305 0.928616 -1.517546
    23 11.692554 0.000000 -0.000001 -0.000002 0.000000 -1.298067
    24 11.481703 -0.000001 -0.000004 -1.284150 0.542925 0.706408
    25 3.859676 -0.132545 1.193110 0.578311 -0.053913 -1.438303
    26 1.340820 -0.081116 -0.265625 0.125817 -0.454889 -1.743925
    27 0.729368 -0.000004 -0.000002 0.029291 -0.004975 0.110788
    28 3.942295 0.050346 0.431044 0.222248 0.007471 -1.227783
    29 1.539106 0.000000 0.000001 0.042488 0.013216 -1.748756
    30 1.196321 -0.000002 -0.000002 0.002362 -0.000852 -0.117880
    31 3.883663 -0.050303 -0.431042 0.065776 -0.040813 -1.144344
    32 1.719582 0.000002 0.000006 0.079939 0.050141 -1.972252
    33 1.209183 0.000004 0.000006 0.001100 -0.005446 0.059746
    34 3.859833 -0.148919 -1.331282 -0.274426 0.256798 -0.103789
    35 1.719431 0.000008 0.000010 -0.008734 0.026982 -1.293109
    36 1.099665 0.000002 0.000007 -0.004634 -0.003852 0.159384
    37 0.806023 -0.359832 -1.318335 1.272750 0.291615 -0.693987
    38 1.789785 -0.000004 -0.000004 -0.049815 0.256686 0.362904
    39 1.207003 -0.000002 -0.000008 0.017681 -0.139192 0.735621
    40 11.481705 0.000084 0.000004 0.024226 0.100382 0.112798
    41 -5.638617 -12.614173 -5.502780 1.504818 0.067255 -0.007688
    42 -0.067427 -1.982567 -1.097137 0.256999 0.000000 0.000000
    43 -0.067427 0.572451 -2.207360 -0.529308 0.000000 0.000000
    44 0.045455 -0.775890 1.351584 -0.464939 0.000000 0.000000
    45 -0.011781 1.744501 0.023932 -1.570796 0.000000 0.000000
  time 23
    0 0.000000 -0.000006 0.000000 -1.570781 -1.391896 -1.570809
    1 -9.648438 -4.734375 3.712891 1.596636 -1.286515 2.942963
    2 6.028145 0.000003 0.000002 -0.429494 -0.779470 -2.302878
    3 11.692553 0.000081 -0.000005 -0.000015 0.000024 -0.949142
    4 11.481672 -0.000089 -0.000024 1.183999 -0.704330 0.540121
    5 3.859703 -1.271357 -1.266196 -0.325620 0.060707 -2.078455
    6 1.312565 -0.000008 0.000004 0.000000 -0.000003 -0.439723
    7 0.729363 -0.000004 0.000003 0.000000 -0.000002 -0.505811
    8 4.075146 -1.101719 -0.318160 -0.129141 0.174999 -1.999283
    9 1.623047 0.003679 -0.022034 -0.000002 0.000006 -0.247791
    10 1.196322 -0.000006 0.000002 0.000003 -0.000005 -1.049532
    11 3.883690 -1.175725 0.357222 0.020826 0.224159 -1.675126
    12 1.602539 0.015594 -0.064087 0.000002 0.005514 -0.366480
    13 1.209181 -0.000006 0.000003 -0.002301 0.002060 -1.057564
    14 3.855469 -1.270508 1.254883 0.206793 0.293012 -1.589312
    15 1.719435 0.000000 -0.000005 -0.000004 0.004079 -0.363004
    16 1.099678 -0.000006 0.000004 -0.001853 0.001816 -1.043047
    17 0.646973 -0.743652 1.289063 -1.434788 -0.785841 -0.547740
    18 1.789783 0.000000 -0.000008 -0.017849 -0.112813 0.695439
    19 1.207001 0.000000 -0.000002 0.012885 -0.000830 0.511142
    20 11.481705 -0.000013 -0.000001 -0.038888 -0.133103 0.066801
    21 -5.480469 -7.855469 -8.593750 -1.668474 1.286518 2.942953
    22 6.028141 0.000000 -0.000002 0.872500 0.939310 -1.528951
    23 11.692554 0.000000 -0.000001 -0.000002 0.000000 -1.280152
    24 11.481703 -0.000001 -0.000004 -1.265629 0.535511 0.716952
    25 3.859676 -0.132545 1.193110 0.578311 -0.053913 -1.438303
    26 1.340820 -0.081116 -0.265625 0.125817 -0.454889 -1.743925
    27 0.729368 -0.000004 -0.000002 0.029291 -0.004975 0.110788
    28 3.942295 0.050346 0.431044 0.222248 0.007471 -1.227783
    29 1.539106 0.000000 0.000001 0.042488 0.013216 -1.748756
    30 1.196321 -0.000002 -0.000002 0.002362 -0.000852 -0.117880
    31 3.883663 -0.050303 -0.431042 0.065776 -0.040813 -1.144344
    32 1.719582 0.000002 0.000006 0.079939 0.050141 -1.972301
    33 1.209183 0.000004 0.000006 0.001100 -0.005446 0.059746
    34 3.859833 -0.148919 -1.331282 -0.279639 0.246108 -0.107544
    35 1.719431 0.000008 0.000010 -0.006325 0.021709 -1.217346
    36 1.099665 0.000002 0.000007 -0.003879 -0.003888 0.146899
    37 0.806023 -0.359832 -1.318335 1.272750 0.291615 -0.693987
    38 1.789785 -0.000004 -0.000004 -0.049815 0.256686 0.362904
    39 1.207003 -0.000002 -0.000008 0.017681 -0.139192 0.735621
    40 11.481705 0.000084 0.000004 0.027710 0.100178 0.114020
    41 -5.615179 -12.762615 -5.487155 1.518665 0.055465 -0.005972
    42 -0.067427 -1.982567 -1.097137 0.256999 0.000000 0.000000
    43 -0.067427 0.572451 -2.207360 -0.529308 0.000000 0.000000
    44 0.037642 -0.775890 1.371115 -0.464939 0.000000 0.000000
    45 -0.011781 1.744501 0.023932 -1.570796 0.000000 0.000000
  time 24
    0 0.000000 -0.000006 0.000000 -1.570781 -1.391896 -1.570809
    1 -9.648438 -4.734375 3.712891 1.596636 -1.286515 2.942963
    2 6.028145 0.000003 0.000002 -0.430366 -0.784474 -2.311833
    3 11.692553 0.000081 -0.000005 -0.000015 0.000024 -0.940743
    4 11.481672 -0.000089 -0.000024 1.192975 -0.701075 0.551085
    5 3.859703 -1.271357 -1.266196 -0.325620 0.060707 -2.078455
    6 1.312565 -0.000008 0.000004 0.000000 -0.000003 -0.439723
    7 0.729363 -0.000004 0.000003 0.000000 -0.000002 -0.505811
    8 4.075146 -1.101719 -0.318160 -0.129141 0.174999 -1.999283
    9 1.623047 0.003679 -0.022034 -0.000002 0.000006 -0.247791
    10 1.196322 -0.000006 0.000002 0.000003 -0.000005 -1.049532
    11 3.883690 -1.175725 0.357222 0.020826 0.224159 -1.675126
    12 1.602539 0.015594 -0.064087 0.000002 0.005514 -0.366480
    13 1.209181 -0.000006 0.000003 -0.002301 0.002060 -1.057564
    14 3.855469 -1.270508 1.254883 0.206793 0.293012 -1.589312
    15 1.719435 0.000000 -0.000005 -0.000004 0.004079 -0.363004
    16 1.099678 -0.000006 0.000004 -0.001853 0.001816 -1.043047
    17 0.646973 -0.743652 1.289063 -1.434788 -0.785841 -0.547740
    18 1.789783 0.000000 -0.000008 -0.017849 -0.112813 0.695439
    19 1.207001 0.000000 -0.000002 0.012885 -0.000830 0.511142
    20 11.481705 -0.000013 -0.000001 -0.036935 -0.132348 0.069677
    21 -5.480469 -7.855469 -8.593750 -1.668474 1.286518 2.942953
    22 6.028141 0.000000 -0.000002 0.864893 0.949146 -1.539865
    23 11.692554 0.000000 -0.000001 -0.000002 0.000000 -1.263322
    24 11.481703 -0.000001 -0.000004 -1.247901 0.528391 0.726266
    25 3.859676 -0.132545 1.193110 0.578311 -0.053913 -1.438303
    26 1.340820 -0.081116 -0.265625 0.125817 -0.454889 -1.743925
    27 0.729368 -0.000004 -0.000002 0.029291 -0.004975 0.110788
    28 3.942295 0.050346 0.431044 0.222248 0.007471 -1.227783
    29 1.539106 0.000000 0.000001 0.042488 0.013216 -1.748756
    30 1.196321 -0.000002 -0.000002 0.002362 -0.000852 -0.117880
    31 3.883663 -0.050303 -0.431042 0.065776 -0.040813 -1.144344
    32 1.719582 0.000002 0.000006 0.079939 0.050141 -1.972252
    33 1.209183 0.000004 0.000006 0.001100 -0.005446 0.059746
    34 3.859833 -0.148919 -1.331282 -0.284469 0.236065 -0.111008
    35 1.719431 0.000008 0.000010 -0.004431 0.016639 -1.146669
    36 1.099665 0.000002 0.000007 -0.003160 -0.003924 0.135202
    37 0.806023 -0.359832 -1.318335 1.272750 0.291615 -0.693987
    38 1.789785 -0.000004 -0.000004 -0.049815 0.256686 0.362904
    39 1.207003 -0.000002 -0.000008 0.017681 -0.139192 0.735621
    40 11.481705 0.000084 0.000004 0.031100 0.100010 0.115051
    41 -5.595647 -12.899338 -5.475435 1.531290 0.043676 -0.004428
    42 -0.067427 -1.982567 -1.097137 0.256999 0.000000 0.000000
    43 -0.067427 0.572451 -2.207360 -0.529308 0.000000 0.000000
    44 0.033736 -0.771984 1.386741 -0.464939 0.000000 0.000000
    45 -0.011781 1.744501 0.023932 -1.570796 0.000000 0.000000
  time 25
    0 0.000000 -0.000006 0.000000 -1.570781 -1.391896 -1.570809
    1 -9.648438 -4.734375 3.712891 1.596636 -1.286515 2.942963
    2 6.028145 0.000003 0.000002 -0.431037 -0.789071 -2.320132
    3 11.692553 0.000081 -0.000005 -0.000015 0.000024 -0.933164
    4 11.481672 -0.000089 -0.000024 1.201828 -0.698418 0.560843
    5 3.859703 -1.271357 -1.266196 -0.325620 0.060707 -2.078455
    6 1.312565 -0.000008 0.000004 0.000000 -0.000003 -0.439723
    7 0.729363 -0.000004 0.000003 0.000000 -0.000002 -0.505811
    8 4.075146 -1.101719 -0.318160 -0.129141 0.174999 -1.999283
    9 1.623047 0.003679 -0.022034 -0.000002 0.000006 -0.247791
    10 1.196322 -0.000006 0.000002 0.000003 -0.000005 -1.049532
    11 3.883690 -1.175725 0.357222 0.020826 0.224159 -1.675126
    12 1.602539 0.015594 -0.064087 0.000002 0.005514 -0.366480
    13 1.209181 -0.000006 0.000003 -0.002301 0.002060 -1.057564
    14 3.855469 -1.270508 1.254883 0.206793 0.293012 -1.589312
    15 1.719435 0.000000 -0.000005 -0.000004 0.004079 -0.363004
    16 1.099678 -0.000006 0.000004 -0.001853 0.001816 -1.043047
    17 0.646973 -0.743652 1.289063 -1.434788 -0.785841 -0.547740
    18 1.789783 0.000000 -0.000008 -0.017849 -0.112813 0.695439
    19 1.207001 0.000000 -0.000002 0.012885 -0.000830 0.511142
    20 11.481705 -0.000013 -0.000001 -0.035029 -0.131665 0.072278
    21 -5.480469 -7.855469 -8.593750 -1.668474 1.286518 2.942953
    22 6.028141 0.000000 -0.000002 0.857681 0.957922 -1.549961
    23 11.692554 0.000000 -0.000001 -0.000002 0.000000 -1.247989
    24 11.481703 -0.000001 -0.000004 -1.231429 0.521815 0.734174
    25 3.859676 -0.132545 1.193110 0.578311 -0.053913 -1.438303
    26 1.340820 -0.081116 -0.265625 0.125817 -0.454889 -1.743925
    27 0.729368 -0.000004 -0.000002 0.029291 -0.004975 0.110788
    28 3.942295 0.050346 0.431044 0.222248 0.007471 -1.227783
    29 1.539106 0.000000 0.000001 0.042488 0.013216 -1.748756
    30 1.196321 -0.000002 -0.000002 0.002362 -0.000852 -0.117880
    31 3.883663 -0.050303 -0.431042 0.065776 -0.040813 -1.144344
    32 1.719582 0.000002 0.000006 0.079939 0.050141 -1.972252
    33 1.209183 0.000004 0.000006 0.001100 -0.005446 0.059746
    34 3.859833 -0.148919 -1.331282 -0.288747 0.227065 -0.114063
    35 1.719431 0.000008 0.000010 -0.003065 0.012013 -1.083748
    36 1.099665 0.000002 0.000007 -0.002525 -0.003948 0.124743
    37 0.806023 -0.359832 -1.318335 1.272750 0.291615 -0.693987
    38 1.789785 -0.000004 -0.000004 -0.049815 0.256686 0.362904
    39 1.207003 -0.000002 -0.000008 0.017681 -0.139192 0.735621
    40 11.481705 0.000084 0.000004 0.034277 0.099867 0.115902
    41 -5.576115 -13.024342 -5.463716 1.542531 0.032358 -0.003141
    42 -0.067427 -1.982567 -1.097137 0.256999 0.000000 0.000000
    43 -0.067427 0.572451 -2.207360 -0.529308 0.000000 0.000000
    44 0.029830 -0.771984 1.406273 -0.464939 0.000000 0.000000
    45 -0.011781 1.744501 0.023932 -1.570796 0.000000 0.000000
  time 26
    0 0.000000 -0.000006 0.000000 -1.570781 -1.391896 -1.570809
    1 -9.648438 -4.734375 3.712891 1.596636 -1.286515 2.942963
    2 6.028145 0.000003 0.000002 -0.431372 -0.793140 -2.327413
    3 11.692553 0.000081 -0.000005 -0.000015 0.000024 -0.926470
    4 11.481672 -0.000089 -0.000024 1.210123 -0.696293 0.569166
    5 3.859703 -1.271357 -1.266196 -0.325620 0.060707 -2.078455
    6 1.312565 -0.000008 0.000004 0.000000 -0.000003 -0.439723
    7 0.729363 -0.000004 0.000003 0.000000 -0.000002 -0.505811
    8 4.075146 -1.101719 -0.318160 -0.129141 0.174999 -1.999283
    9 1.623047 0.003679 -0.022034 -0.000002 0.000006 -0.247791
    10 1.196322 -0.000006 0.000002 0.000003 -0.000005 -1.049532
    11 3.883690 -1.175725 0.357222 0.020826 0.224159 -1.675159
    12 1.602539 0.015594 -0.064087 0.000002 0.005514 -0.366480
    13 1.209181 -0.000006 0.000003 -0.002301 0.002060 -1.057564
    14 3.855469 -1.270508 1.254883 0.206793 0.293012 -1.589312
    15 1.719435 0.000000 -0.000005 -0.000004 0.004079 -0.363004
    16 1.099678 -0.000006 0.000004 -0.001853 0.001816 -1.043047
    17 0.646973 -0.743652 1.289063 -1.434788 -0.785841 -0.547740
    18 1.789783 0.000000 -0.000008 -0.017849 -0.112813 0.695439
    19 1.207001 0.000000 -0.000002 0.012885 -0.000830 0.511142
    20 11.481705 -0.000013 -0.000001 -0.033244 -0.131077 0.074567
    21 -5.480469 -7.855469 -8.593750 -1.668474 1.286518 2.942953
    22 6.028141 0.000000 -0.000002 0.851210 0.965514 -1.558910
    23 11.692554 0.000000 -0.000001 -0.000002 0.000000 -1.234566
    24 11.481703 -0.000001 -0.000004 -1.216811 0.515951 0.740763
    25 3.859676 -0.132545 1.193110 0.578311 -0.053913 -1.438303
    26 1.340820 -0.081116 -0.265625 0.125817 -0.454889 -1.743925
    27 0.729368 -0.000004 -0.000002 0.029291 -0.004975 0.110788
    28 3.942295 0.050346 0.431044 0.222248 0.007471 -1.227783
    29 1.539106 0.000000 0.000001 0.042488 0.013216 -1.748756
    30 1.196321 -0.000002 -0.000002 0.002362 -0.000852 -0.117880
    31 3.883663 -0.050303 -0.431042 0.065776 -0.040813 -1.144344
    32 1.719582 0.000002 0.000006 0.079939 0.050141 -1.972252
    33 1.209183 0.000004 0.000006 0.001100 -0.005446 0.059746
    34 3.859833 -0.148919 -1.331282 -0.292355 0.219406 -0.116631
    35 1.719431 0.000008 0.000010 -0.002130 0.008058 -1.030709
    36 1.099665 0.000002 0.000007 -0.001985 -0.003960 0.115846
    37 0.806023 -0.359832 -1.318335 1.272750 0.291615 -0.693987
    38 1.789785 -0.000004 -0.000004 -0.049815 0.256686 0.362904
    39 1.207003 -0.000002 -0.000008 0.017681 -0.139192 0.735621
    40 11.481705 0.000084 0.000004 0.037136 0.099747 0.116573
    41 -5.560490 -13.129814 -5.451997 1.552143 0.021983 -0.002026
    42 -0.067427 -1.982567 -1.097137 0.256999 0.000000 0.000000
    43 -0.067427 0.572451 -2.207360 -0.529308 0.000000 0.000000
    44 0.025923 -0.771984 1.417992 -0.464939 0.000000 0.000000
    45 -0.011781 1.744501 0.023932 -1.570796 0.000000 0.000000
  time 27
    0 0.000000 -0.000006 0.000000 -1.570781 -1.391896 -1.570809
    1 -9.648438 -4.734375 3.712891 1.596636 -1.286515 2.942963
    2 6.028145 0.000003 0.000002 -0.431573 -0.796476 -2.333528
    3 11.692553 0.000081 -0.000005 -0.000015 0.000024 -0.920976
    4 11.481672 -0.000089 -0.000024 1.217427 -0.694732 0.575997
    5 3.859703 -1.271357 -1.266196 -0.325620 0.060707 -2.078455
    6 1.312565 -0.000008 0.000004 0.000000 -0.000003 -0.439723
    7 0.729363 -0.000004 0.000003 0.000000 -0.000002 -0.505811
    8 4.075146 -1.101719 -0.318160 -0.129141 0.174999 -1.999283
    9 1.623047 0.003679 -0.022034 -0.000002 0.000006 -0.247791
    10 1.196322 -0.000006 0.000002 0.000003 -0.000005 -1.049532
    11 3.883690 -1.175725 0.357222 0.020826 0.224159 -1.675126
    12 1.602539 0.015594 -0.064087 0.000002 0.005514 -0.366480
    13 1.209181 -0.000006 0.000003 -0.002301 0.002060 -1.057590
    14 3.855469 -1.270508 1.254883 0.206793 0.293012 -1.589312
    15 1.719435 0.000000 -0.000005 -0.000004 0.004079 -0.363004
    16 1.099678 -0.000006 0.000004 -0.001853 0.001816 -1.043071
    17 0.646973 -0.743652 1.289063 -1.434788 -0.785841 -0.547740
    18 1.789783 0.000000 -0.000008 -0.017849 -0.112813 0.695439
    19 1.207001 0.000000 -0.000002 0.012885 -0.000830 0.511142
    20 11.481705 -0.000013 -0.000001 -0.031698 -0.130586 0.076449
    21 -5.480469 -7.855469 -8.593750 -1.668474 1.286518 2.942953
    22 6.028141 0.000000 -0.000002 0.845677 0.971718 -1.566496
    23 11.692554 0.000000 -0.000001 -0.000002 0.000000 -1.223466
    24 11.481703 -0.000001 -0.000004 -1.204441 0.511008 0.745948
    25 3.859676 -0.132545 1.193110 0.578311 -0.053913 -1.438303
    26 1.340820 -0.081116 -0.265625 0.125817 -0.454889 -1.743925
    27 0.729368 -0.000004 -0.000002 0.029291 -0.004975 0.110788
    28 3.942295 0.050346 0.431044 0.222248 0.007471 -1.227783
    29 1.539106 0.000000 0.000001 0.042488 0.013216 -1.748756
    30 1.196321 -0.000002 -0.000002 0.002362 -0.000852 -0.117880
    31 3.883663 -0.050303 -0.431042 0.065776 -0.040813 -1.144344
    32 1.719582 0.000002 0.000006 0.079939 0.050141 -1.972252
    33 1.209183 0.000004 0.000006 0.001100 -0.005446 0.059746
    34 3.859833 -0.148919 -1.331282 -0.295207 0.213318 -0.118635
    35 1.719431 0.000008 0.000010 -0.001555 0.004906 -0.988845
    36 1.099665 0.000002 0.000007 -0.001554 -0.003960 0.108776
    37 0.806023 -0.359832 -1.318335 1.272750 0.291615 -0.693987
    38 1.789785 -0.000004 -0.000004 -0.049815 0.256686 0.362904
    39 1.207003 -0.000002 -0.000008 0.017681 -0.139192 0.735621
    40 11.481705 0.000084 0.000004 0.039542 0.099663 0.117076
    41 -5.544864 -13.215754 -5.444185 1.560044 0.013095 -0.001168
    42 -0.067427 -1.982567 -1.097137 0.256999 0.000000 0.000000
    43 -0.067427 0.572451 -2.207360 -0.529308 0.000000 0.000000
    44 0.022017 -0.771984 1.429711 -0.464939 0.000000 0.000000
    45 -0.011781 1.744501 0.023932 -1.570796 0.000000 0.000000
  time 28
    0 0.000000 -0.000006 0.000000 -1.570781 -1.391896 -1.570809
    1 -9.648438 -4.734375 3.712891 1.596636 -1.286515 2.942963
    2 6.028145 0.000003 0.000002 -0.431640 -0.799039 -2.338115
    3 11.692553 0.000081 -0.000005 -0.000015 0.000024 -0.916872
    4 11.481672 -0.000089 -0.000024 1.223246 -0.693636 0.581049
    5 3.859703 -1.271357 -1.266196 -0.325620 0.060707 -2.078455
    6 1.312565 -0.000008 0.000004 0.000000 -0.000003 -0.439723
    7 0.729363 -0.000004 0.000003 0.000000 -0.000002 -0.505811
    8 4.075146 -1.101719 -0.318160 -0.129141 0.174999 -1.999283
    9 1.623047 0.003679 -0.022034 -0.000002 0.000006 -0.247791
    10 1.196322 -0.000006 0.000002 0.000003 -0.000005 -1.049532
    11 3.883690 -1.175725 0.357222 0.020826 0.224159 -1.675126
    12 1.602539 0.015594 -0.064087 0.000002 0.005514 -0.366480
    13 1.209181 -0.000006 0.000003 -0.002301 0.002060 -1.057564
    14 3.855469 -1.270508 1.254883 0.206793 0.293012 -1.589312
    15 1.719435 0.000000 -0.000005 -0.000004 0.004079 -0.363004
    16 1.099678 -0.000006 0.000004 -0.001853 0.001816 -1.043047
    17 0.646973 -0.743652 1.289063 -1.434788 -0.785841 -0.547740
    18 1.789783 0.000000 -0.000008 -0.017849 -0.112813 0.695439
    19 1.207001 0.000000 -0.000002 0.012885 -0.000830 0.511142
    20 11.481705 -0.000013 -0.000001 -0.030475 -0.130226 0.077875
    21 -5.480469 -7.855469 -8.593750 -1.668474 1.286518 2.942953
    22 6.028141 0.000000 -0.000002 0.841429 0.976370 -1.572225
    23 11.692554 0.000000 -0.000001 -0.000002 0.000000 -1.215102
    24 11.481703 -0.000001 -0.000004 -1.195047 0.507239 0.749814
    25 3.859676 -0.132545 1.193110 0.578311 -0.053913 -1.438303
    26 1.340820 -0.081116 -0.265625 0.125817 -0.454889 -1.743925
    27 0.729368 -0.000004 -0.000002 0.029291 -0.004975 0.110788
    28 3.942295 0.050346 0.431044 0.222248 0.007471 -1.227783
    29 1.539106 0.000000 0.000001 0.042488 0.013216 -1.748756
    30 1.196321 -0.000002 -0.000002 0.002362 -0.000852 -0.117880
    31 3.883663 -0.050303 -0.431042 0.065776 -0.040813 -1.144344
    32 1.719582 0.000002 0.000006 0.079939 0.050141 -1.972252
    33 1.209183 0.000004 0.000006 0.001100 -0.005446 0.059746
    34 3.859833 -0.148919 -1.331282 -0.297256 0.208932 -0.120056
    35 1.719431 0.000008 0.000010 -0.001219 0.002629 -0.958865
    36 1.099665 0.000002 0.000007 -0.001242 -0.003972 0.103685
    37 0.806023 -0.359832 -1.318335 1.272750 0.291615 -0.693987
    38 1.789785 -0.000004 -0.000004 -0.049815 0.256686 0.362904
    39 1.207003 -0.000002 -0.000008 0.017681 -0.139192 0.735621
    40 11.481705 0.000084 0.000004 0.041403 0.099603 0.117424
    41 -5.537052 -13.278256 -5.440278 1.565909 0.006131 -0.000567
    42 -0.067427 -1.982567 -1.097137 0.256999 0.000000 0.000000
    43 -0.067427 0.572451 -2.207360 -0.529308 0.000000 0.000000
    44 0.022017 -0.771984 1.437524 -0.464939 0.000000 0.000000
    45 -0.011781 1.744501 0.023932 -1.570796 0.000000 0.000000
  time 29
    0 0.000000 -0.000006 0.000000 -1.570781 -1.391896 -1.570809
    1 -9.648438 -4.734375 3.712891 1.596636 -1.286515 2.942963
    2 6.028145 0.000003 0.000002 -0.431707 -0.800667 -2.341100
    3 11.692553 0.000081 -0.000005 -0.000015 0.000024 -0.914219
    4 11.481672 -0.000089 -0.000024 1.227084 -0.693005 0.584263
    5 3.859703 -1.271357 -1.266196 -0.325620 0.060707 -2.078455
    6 1.312565 -0.000008 0.000004 0.000000 -0.000003 -0.439723
    7 0.729363 -0.000004 0.000003 0.000000 -0.000002 -0.505811
    8 4.075146 -1.101719 -0.318160 -0.129141 0.174999 -1.999283
    9 1.623047 0.003679 -0.022034 -0.000002 0.000006 -0.247791
    10 1.196322 -0.000006 0.000002 0.000003 -0.000005 -1.049532
    11 3.883690 -1.175725 0.357222 0.020826 0.224159 -1.675126
    12 1.602539 0.015594 -0.064087 0.000002 0.005514 -0.366480
    13 1.209181 -0.000006 0.000003 -0.002301 0.002060 -1.057564
    14 3.855469 -1.270508 1.254883 0.206793 0.293012 -1.589312
    15 1.719435 0.000000 -0.000005 -0.000004 0.004079 -0.363004
    16 1.099678 -0.000006 0.000004 -0.001853 0.001816 -1.043047
    17 0.646973 -0.743652 1.289063 -1.434788 -0.785841 -0.547740
    18 1.789783 0.000000 -0.000008 -0.017849 -0.112813 0.695439
    19 1.207001 0.000000 -0.000002 0.012885 -0.000830 0.511142
    20 11.481705 -0.000013 -0.000001 -0.029672 -0.129999 0.078786
    21 -5.480469 -7.855469 -8.593750 -1.668474 1.286518 2.942953
    22 6.028141 0.000000 -0.000002 0.838663 0.979268 -1.575936
    23 11.692554 0.000000 -0.000001 -0.000002 0.000000 -1.209785
    24 11.481703 -0.000001 -0.000004 -1.188962 0.504851 0.752098
    25 3.859676 -0.132545 1.193110 0.578311 -0.053913 -1.438303
    26 1.340820 -0.081116 -0.265625 0.125817 -0.454889 -1.743925
    27 0.729368 -0.000004 -0.000002 0.029291 -0.004975 0.110788
    28 3.942295 0.050346 0.431044 0.222248 0.007471 -1.227783
    29 1.539106 0.000000 0.000001 0.042488 0.013216 -1.748756
    30 1.196321 -0.000002 -0.000002 0.002362 -0.000852 -0.117880
    31 3.883663 -0.050303 -0.431042 0.065776 -0.040813 -1.144344
    32 1.719582 0.000002 0.000006 0.079939 0.050141 -1.972252
    33 1.209183 0.000004 0.000006 0.001100 -0.005446 0.059746
    34 3.859833 -0.148919 -1.331282 -0.298479 0.206295 -0.120912
    35 1.719431 0.000008 0.000010 -0.001052 0.001275 -0.940977
    36 1.099665 0.000002 0.000007 -0.001063 -0.003972 0.100637
    37 0.806023 -0.359832 -1.318335 1.272750 0.291615 -0.693987
    38 1.789785 -0.000004 -0.000004 -0.049815 0.256686 0.362904
    39 1.207003 -0.000002 -0.000008 0.017681 -0.139192 0.735621
    40 11.481705 0.000084 0.000004 0.042613 0.099567 0.117628
    41 -5.529239 -13.317320 -5.436372 1.569574 0.001596 -0.000138
    42 -0.067427 -1.982567 -1.097137 0.256999 0.000000 0.000000
    43 -0.067427 0.572451 -2.207360 -0.529308 0.000000 0.000000
    44 0.022017 -0.771984 1.441430 -0.464939 0.000000 0.000000
    45 -0.011781 1.744501 0.023932 -1.570796 0.000000 0.000000
  time 30
    0 0.000000 -0.000006 0.000000 -1.570781 -1.391896 -1.570809
    1 -9.648438 -4.734375 3.712891 1.596636 -1.286515 2.942963
    2 6.028145 0.000003 0.000002 -0.431707 -0.801236 -2.342119
    3 11.692553 0.000081 -0.000005 -0.000015 0.000024 -0.913335
    4 11.481672 -0.000089 -0.000024 1.228446 -0.692805 0.585354
    5 3.859703 -1.271357 -1.266196 -0.325620 0.060707 -2.078455
    6 1.312565 -0.000008 0.000004 0.000000 -0.000003 -0.439723
    7 0.729363 -0.000004 0.000003 0.000000 -0.000002 -0.505811
    8 4.075146 -1.101719 -0.318160 -0.129141 0.174999 -1.999283
    9 1.623047 0.003679 -0.022034 -0.000002 0.000006 -0.247791
    10 1.196322 -0.000006 0.000002 0.000003 -0.000005 -1.049532
    11 3.883690 -1.175725 0.357222 0.020826 0.224159 -1.675159
    12 1.602539 0.015594 -0.064087 0.000002 0.005514 -0.366480
    13 1.209181 -0.000006 0.000003 -0.002301 0.002060 -1.057564
    14 3.855469 -1.270508 1.254883 0.206793 0.293012 -1.589312
    15 1.719435 0.000000 -0.000005 -0.000004 0.004079 -0.363004
    16 1.099678 -0.000006 0.000004 -0.001853 0.001816 -1.043047
    17 0.646973 -0.743652 1.289063 -1.434788 -0.785841 -0.547740
    18 1.789783 0.000000 -0.000008 -0.017849 -0.112813 0.695439
    19 1.207001 0.000000 -0.000002 0.012885 -0.000830 0.511142
    20 11.481705 -0.000013 -0.000001 -0.029385 -0.129915 0.079109
    21 -5.480469 -7.855469 -8.593750 -1.668474 1.286518 2.942953
    22 6.028141 0.000000 -0.000002 0.837724 0.980289 -1.577191
    23 11.692554 0.000000 -0.000001 -0.000002 0.000000 -1.207926
    24 11.481703 -0.000001 -0.000004 -1.186779 0.504013 0.752889
    25 3.859676 -0.132545 1.193110 0.578311 -0.053913 -1.438303
    26 1.340820 -0.081116 -0.265625 0.125817 -0.454889 -1.743925
    27 0.729368 -0.000004 -0.000002 0.029291 -0.004975 0.110788
    28 3.942295 0.050346 0.431044 0.222248 0.007471 -1.227783
    29 1.539106 0.000000 0.000001 0.042488 0.013216 -1.748756
    30 1.196321 -0.000002 -0.000002 0.002362 -0.000852 -0.117880
    31 3.883663 -0.050303 -0.431042 0.065776 -0.040813 -1.144344
    32 1.719582 0.000002 0.000006 0.079939 0.050141 -1.972252
    33 1.209183 0.000004 0.000006 0.001100 -0.005446 0.059746
    34 3.859833 -0.148919 -1.331282 -0.298874 0.205420 -0.121204
    35 1.719431 0.000008 0.000010 -0.000992 0.000819 -0.935098
    36 1.099665 0.000002 0.000007 -0.000991 -0.003972 0.099632
    37 0.806023 -0.359832 -1.318335 1.272750 0.291615 -0.693987
    38 1.789785 -0.000004 -0.000004 -0.049815 0.256686 0.362904
    39 1.207003 -0.000002 -0.000008 0.017681 -0.139192 0.735621
    40 11.481705 0.000084 0.000004 0.043039 0.099555 0.117700
    41 -5.529239 -13.332945 -5.436372 1.570796 0.000000 -0.000052
    42 -0.067427 -1.982567 -1.097137 0.256999 0.000000 0.000000
    43 -0.067427 0.572451 -2.207360 -0.529308 0.000000 0.000000
    44 0.022017 -0.771984 1.441430 -0.464939 0.000000 0.000000
    45 -0.011781 1.744501 0.023932 -1.570796 0.000000 0.000000
end
