// Created by Crowbar++ 0.74
version 1
nodes
  0 "ValveBiped.Bip01_Spine4" -1
  1 "ValveBiped.Bip01_L_Clavicle" 0
  2 "ValveBiped.Bip01_L_UpperArm" 1
  3 "ValveBiped.Bip01_L_Forearm" 2
  4 "ValveBiped.Bip01_L_Hand" 3
  5 "ValveBiped.Bip01_L_Finger4" 4
  6 "ValveBiped.Bip01_L_Finger41" 5
  7 "ValveBiped.Bip01_L_Finger42" 6
  8 "ValveBiped.Bip01_L_Finger3" 4
  9 "ValveBiped.Bip01_L_Finger31" 8
  10 "ValveBiped.Bip01_L_Finger32" 9
  11 "ValveBiped.Bip01_L_Finger2" 4
  12 "ValveBiped.Bip01_L_Finger21" 11
  13 "ValveBiped.Bip01_L_Finger22" 12
  14 "ValveBiped.Bip01_L_Finger1" 4
  15 "ValveBiped.Bip01_L_Finger11" 14
  16 "ValveBiped.Bip01_L_Finger12" 15
  17 "ValveBiped.Bip01_L_Finger0" 4
  18 "ValveBiped.Bip01_L_Finger01" 17
  19 "ValveBiped.Bip01_L_Finger02" 18
  20 "ValveBiped.Bip01_R_Clavicle" 0
  21 "ValveBiped.Bip01_R_UpperArm" 20
  22 "ValveBiped.Bip01_R_Forearm" 21
  23 "ValveBiped.Bip01_R_Hand" 22
  24 "ValveBiped.Bip01_R_Finger4" 23
  25 "ValveBiped.Bip01_R_Finger41" 24
  26 "ValveBiped.Bip01_R_Finger42" 25
  27 "ValveBiped.Bip01_R_Finger3" 23
  28 "ValveBiped.Bip01_R_Finger31" 27
  29 "ValveBiped.Bip01_R_Finger32" 28
  30 "ValveBiped.Bip01_R_Finger2" 23
  31 "ValveBiped.Bip01_R_Finger21" 30
  32 "ValveBiped.Bip01_R_Finger22" 31
  33 "ValveBiped.Bip01_R_Finger1" 23
  34 "ValveBiped.Bip01_R_Finger11" 33
  35 "ValveBiped.Bip01_R_Finger12" 34
  36 "ValveBiped.Bip01_R_Finger0" 23
  37 "ValveBiped.Bip01_R_Finger01" 36
  38 "ValveBiped.Bip01_R_Finger02" 37
  39 "v_weapon.sg550_Parent" -1
  40 "v_weapon.sg550_Trigger" 39
  41 "v_weapon.sg550_Release" 39
  42 "v_weapon.sg550_Clip" 39
  43 "v_weapon.sg550_Chamber" 39
  44 "v_weapon.sg550_Clip2" -1
end
skeleton
  time 0
    0 0.000005 -2.660156 -8.640625 -1.570760 -1.391893 -1.570827
    1 2.033348 1.000767 1.937660 2.672854 -0.672605 2.029088
    2 6.028145 0.000003 0.000002 -2.035043 -0.295808 -0.688142
    3 11.692553 0.000081 -0.000006 0.028532 0.074149 -0.441277
    4 11.481672 -0.000089 -0.000022 1.241374 -0.000604 0.901477
    5 3.281560 0.002116 -1.379481 0.034452 -0.072777 -0.740260
    6 1.324282 -0.000010 0.000004 0.000000 0.078268 -0.251584
    7 0.815305 0.000000 0.000002 -0.649205 -0.000003 -0.000015
    8 3.711854 0.109256 -0.568167 -0.069889 -0.145346 -0.847493
    9 1.609408 0.000006 -0.000007 -0.000002 0.100269 -0.501090
    10 0.993193 -0.000006 0.000002 -0.621521 -0.000414 -0.006522
    11 3.786031 0.203222 0.243938 -0.121300 -0.368220 -0.412889
    12 1.684422 -0.000010 0.000009 0.000002 0.176966 -0.416594
    13 1.252153 -0.000008 0.000004 -0.630069 0.011013 0.007546
    14 3.594223 0.299549 1.109803 -0.123481 -0.497142 -0.115269
    15 1.719437 -0.000004 -0.000005 -0.000004 0.273876 -0.210036
    16 1.005921 -0.000006 0.000003 -0.602115 0.000018 -0.000012
    17 0.298212 -0.634095 0.426700 -1.600316 -0.709086 -0.196655
    18 2.633559 0.000000 -0.000008 -0.000002 -0.082237 0.225580
    19 1.308566 -0.000001 -0.000002 -0.001544 -0.004843 0.324429
    20 2.033356 1.000772 -1.937610 -0.128177 0.172990 -2.038336
    21 6.028141 0.000000 -0.000002 -0.101057 0.949484 -1.486321
    22 11.692556 0.000000 -0.000002 0.026412 -0.048442 -1.002091
    23 11.481703 -0.000001 -0.000005 -0.873727 -0.184730 0.587277
    24 3.859676 -0.132545 1.193110 0.266247 -0.058069 -1.578804
    25 1.312559 -0.000004 -0.000001 0.000000 0.000000 -0.939669
    26 0.729365 -0.000002 -0.000001 0.000000 0.000000 -0.144267
    27 3.942299 0.050347 0.431044 0.150075 -0.079193 -1.210201
    28 1.539106 0.000000 0.000001 0.000003 -0.000003 -1.447698
    29 1.196321 -0.000004 -0.000002 -0.000003 0.000002 -0.430764
    30 3.883663 -0.050304 -0.431042 -0.005920 -0.006422 -1.287674
    31 1.719582 0.000002 0.000006 0.000002 -0.007972 -1.666396
    32 1.209183 0.000002 0.000006 0.000002 -0.004469 -0.216370
    33 3.449668 0.054213 -1.089087 0.067313 0.340727 -0.193675
    34 1.711616 0.000008 0.000011 0.000003 -0.241845 -0.529005
    35 1.099665 0.000000 0.000006 0.000004 -0.004212 -0.244311
    36 0.075534 -0.738749 -0.755817 1.223300 0.521136 -0.542810
    37 2.512460 -0.000008 -0.000004 -0.000002 -0.000001 0.359147
    38 1.277317 0.347665 -0.152356 0.026430 -0.002016 1.000585
    39 -13.531787 -15.040909 -22.749610 0.731513 -0.226829 -3.427598
    40 0.000000 3.263673 -0.760246 0.000000 0.000000 0.000000
    41 0.000001 2.373053 -2.818354 0.000000 0.000000 0.000000
    42 0.000000 3.857430 -4.597647 0.000000 0.000000 0.000000
    43 0.000000 5.988286 -2.427719 0.000000 0.000000 0.000000
    44 -3.715750 27.385479 -10.540455 1.570743 0.000000 -4.712372
  time 1
    0 0.000005 -2.660156 -8.640625 -1.570760 -1.391893 -1.570827
    1 2.033348 1.000767 1.937660 2.674258 -0.671114 2.028206
    2 6.028145 0.000003 0.000002 -2.036910 -0.293767 -0.687832
    3 11.692553 0.000081 -0.000006 0.028412 0.074412 -0.442907
    4 11.481672 -0.000089 -0.000022 1.241374 -0.000387 0.901146
    5 3.277654 0.006022 -1.383388 0.034244 -0.072276 -0.739771
    6 1.324282 -0.000010 0.000004 0.000000 0.078268 -0.251584
    7 0.815305 0.000000 0.000002 -0.649205 -0.000003 -0.000015
    8 3.707947 0.109256 -0.568167 -0.070165 -0.144873 -0.847004
    9 1.609408 0.000006 -0.000007 -0.000002 0.100269 -0.501090
    10 0.993193 -0.000006 0.000002 -0.621521 -0.000414 -0.006522
    11 3.786031 0.203222 0.243938 -0.121348 -0.367693 -0.412456
    12 1.684422 -0.000010 0.000009 0.000002 0.176966 -0.416594
    13 1.252153 -0.000008 0.000004 -0.630069 0.011013 0.007546
    14 3.590316 0.299549 1.109803 -0.123335 -0.496618 -0.114894
    15 1.719437 -0.000004 -0.000005 -0.000004 0.273876 -0.210036
    16 1.005921 -0.000006 0.000003 -0.602115 0.000018 -0.000012
    17 0.294305 -0.634095 0.426700 -1.600181 -0.708535 -0.196325
    18 2.633559 0.000000 -0.000008 -0.000002 -0.082237 0.225580
    19 1.308566 -0.000001 -0.000002 -0.001544 -0.004843 0.324429
    20 2.033356 1.000772 -1.937610 -0.128177 0.172990 -2.038336
    21 6.028141 0.000000 -0.000002 -0.101057 0.949484 -1.486321
    22 11.692556 0.000000 -0.000002 0.026412 -0.048442 -1.002091
    23 11.481703 -0.000001 -0.000005 -0.873727 -0.184730 0.587277
    24 3.859676 -0.132545 1.193110 0.266247 -0.058069 -1.578804
    25 1.312559 -0.000004 -0.000001 0.000000 0.000000 -0.939669
    26 0.729365 -0.000002 -0.000001 0.000000 0.000000 -0.144267
    27 3.942299 0.050347 0.431044 0.150075 -0.079193 -1.210201
    28 1.539106 0.000000 0.000001 0.000003 -0.000003 -1.447698
    29 1.196321 -0.000004 -0.000002 -0.000003 0.000002 -0.430764
    30 3.883663 -0.050304 -0.431042 -0.005920 -0.006422 -1.287674
    31 1.719582 0.000002 0.000006 0.000002 -0.007972 -1.666396
    32 1.209183 0.000002 0.000006 0.000002 -0.004469 -0.216370
    33 3.449668 0.054213 -1.089087 0.067313 0.340727 -0.193675
    34 1.711616 0.000008 0.000011 0.000003 -0.241845 -0.529005
    35 1.099665 0.000000 0.000006 0.000004 -0.004212 -0.244311
    36 0.075534 -0.738749 -0.755817 1.223300 0.521136 -0.542810
    37 2.512460 -0.000008 -0.000004 -0.000002 -0.000001 0.359147
    38 1.277317 0.347665 -0.152356 0.026430 -0.002016 1.000585
    39 -13.531787 -15.040909 -22.749610 0.731513 -0.226829 -3.427598
    40 0.000000 3.263673 -0.760246 0.000000 0.000000 0.000000
    41 0.000001 2.373053 -2.818354 0.000000 0.000000 0.000000
    42 0.000000 3.857430 -4.597647 0.000000 0.000000 0.000000
    43 0.000000 5.988286 -2.427719 0.000000 0.000000 0.000000
    44 -3.715750 27.385479 -10.540455 1.570743 0.000000 -4.712372
  time 2
    0 0.000005 -2.660156 -8.640625 -1.570760 -1.391893 -1.570827
    1 2.033348 1.000767 1.937660 2.678365 -0.666710 2.025672
    2 6.028145 0.000003 0.000002 -2.083707 -0.249663 -0.671437
    3 11.692553 0.000081 -0.000006 0.026818 0.077636 -0.463876
    4 11.481672 -0.000089 -0.000022 1.290969 -0.002482 0.901950
    5 3.281560 0.002116 -1.379481 0.034487 -0.072659 -0.740518
    6 1.324282 -0.000010 0.000004 0.000000 0.078172 -0.251281
    7 0.815305 0.000000 0.000002 -0.649205 -0.000003 -0.000015
    8 3.711854 0.109256 -0.568167 -0.069853 -0.145231 -0.847677
    9 1.609408 0.000006 -0.000007 -0.000002 0.100173 -0.500833
    10 0.993193 -0.000006 0.000002 -0.621521 -0.000414 -0.006522
    11 3.786031 0.203222 0.243938 -0.121276 -0.368127 -0.413222
    12 1.684422 -0.000010 0.000009 0.000002 0.176894 -0.416347
    13 1.252153 -0.000008 0.000004 -0.630028 0.011013 0.007546
    14 3.594223 0.299549 1.113710 -0.123444 -0.497070 -0.115615
    15 1.719437 -0.000004 -0.000005 -0.000004 0.273804 -0.209741
    16 1.005921 -0.000006 0.000003 -0.602115 0.000018 -0.000012
    17 0.298212 -0.634095 0.430606 -1.600181 -0.709007 -0.196919
    18 2.633559 0.000000 -0.000008 -0.000002 -0.082389 0.225528
    19 1.308566 -0.000001 -0.000002 -0.001544 -0.004831 0.324429
    20 2.033356 1.000772 -1.937610 -0.128177 0.172990 -2.038336
    21 6.028141 0.000000 -0.000002 -0.120958 0.971599 -1.532524
    22 11.692556 0.000000 -0.000002 0.026915 -0.048753 -1.012585
    23 11.481703 -0.000001 -0.000005 -0.870620 -0.218944 0.613203
    24 3.859676 -0.132545 1.193110 0.266247 -0.058069 -1.578825
    25 1.312559 -0.000004 -0.000001 0.000000 0.000000 -0.939669
    26 0.729365 -0.000002 -0.000001 0.000000 0.000000 -0.144267
    27 3.942299 0.050347 0.431044 0.150075 -0.079193 -1.210201
    28 1.539106 0.000000 0.000001 0.000003 -0.000003 -1.447698
    29 1.196321 -0.000004 -0.000002 -0.000003 0.000002 -0.430764
    30 3.883663 -0.050304 -0.431042 -0.005920 -0.006422 -1.287695
    31 1.719582 0.000002 0.000006 0.000002 -0.007972 -1.666396
    32 1.209183 0.000002 0.000006 0.000002 -0.004469 -0.216370
    33 3.445761 0.054213 -1.089087 0.067573 0.345353 -0.191337
    34 1.715523 0.000008 0.000011 0.000003 -0.244601 -0.528796
    35 1.099665 0.000000 0.000006 0.000004 -0.004212 -0.244311
    36 0.075534 -0.738749 -0.759723 1.223671 0.523658 -0.540868
    37 2.512460 -0.000008 -0.000004 -0.000002 -0.000001 0.359159
    38 1.277317 0.347665 -0.144543 0.025016 -0.003598 0.999486
    39 -13.516162 -15.497955 -21.987868 0.735802 -0.215902 -3.425373
    40 0.000000 3.263673 -0.760246 0.000000 0.000000 0.000000
    41 0.000001 2.373053 -2.818354 0.000000 0.000000 0.000000
    42 0.000000 3.857430 -4.597647 0.000000 0.000000 0.000000
    43 0.000000 5.988286 -2.427719 0.000000 0.000000 0.000000
    44 -3.715750 27.385479 -10.540455 1.570743 0.000000 -4.712372
  time 3
    0 0.000005 -2.660156 -8.640625 -1.570760 -1.391893 -1.570827
    1 2.033348 1.000767 1.937660 2.684957 -0.659706 2.021595
    2 6.028145 0.000003 0.000002 -2.139954 -0.189940 -0.657439
    3 11.692553 0.000081 -0.000006 0.024230 0.082598 -0.496107
    4 11.481672 -0.000089 -0.000022 1.354779 -0.027950 0.918400
    5 3.281560 0.002116 -1.379481 0.034625 -0.072217 -0.741811
    6 1.324282 -0.000010 0.000004 0.000000 0.077753 -0.249915
    7 0.815305 0.000000 0.000002 -0.649205 -0.000003 -0.000015
    8 3.711854 0.109256 -0.568167 -0.069733 -0.144822 -0.848594
    9 1.609408 0.000006 -0.000007 -0.000002 0.099790 -0.499641
    10 0.993193 -0.000006 0.000002 -0.621521 -0.000414 -0.006522
    11 3.786031 0.203222 0.243938 -0.121180 -0.367709 -0.414419
    12 1.684422 -0.000010 0.000009 0.000002 0.176594 -0.415289
    13 1.252153 -0.000008 0.000004 -0.630069 0.011013 0.007546
    14 3.594223 0.299549 1.113710 -0.123353 -0.496763 -0.117231
    15 1.719437 -0.000004 -0.000005 -0.000004 0.273541 -0.208393
    16 1.005921 -0.000006 0.000003 -0.602115 0.000018 -0.000012
    17 0.298212 -0.634095 0.426700 -1.599435 -0.708771 -0.198041
    18 2.633559 0.000000 -0.000008 -0.000002 -0.082997 0.225349
    19 1.308566 -0.000001 -0.000002 -0.001556 -0.004843 0.324404
    20 2.033356 1.000772 -1.937610 -0.128177 0.172990 -2.038336
    21 6.028141 0.000000 -0.000002 -0.161121 0.999271 -1.608539
    22 11.692556 0.000000 -0.000002 0.027802 -0.049305 -1.030504
    23 11.481703 -0.000001 -0.000005 -0.859119 -0.252213 0.633865
    24 3.859676 -0.132545 1.193110 0.266247 -0.058069 -1.578825
    25 1.312559 -0.000004 -0.000001 0.000000 0.000000 -0.939669
    26 0.729365 -0.000002 -0.000001 0.000000 0.000000 -0.144267
    27 3.942299 0.050347 0.431044 0.150075 -0.079193 -1.210201
    28 1.539106 0.000000 0.000001 0.000003 -0.000003 -1.447735
    29 1.196321 -0.000004 -0.000002 -0.000003 0.000002 -0.430764
    30 3.883663 -0.050304 -0.431042 -0.005920 -0.006422 -1.287674
    31 1.719582 0.000002 0.000006 0.000002 -0.007972 -1.666436
    32 1.209183 0.000002 0.000006 0.000002 -0.004469 -0.216370
    33 3.445761 0.054213 -1.089087 0.067847 0.353430 -0.188692
    34 1.711616 0.000008 0.000011 0.000003 -0.249419 -0.527728
    35 1.099665 0.000000 0.000006 0.000004 -0.004212 -0.244311
    36 0.075534 -0.738749 -0.759723 1.223743 0.528063 -0.538711
    37 2.512460 -0.000008 -0.000004 -0.000002 -0.000001 0.359147
    38 1.277317 0.347665 -0.140637 0.022871 -0.005994 0.997848
    39 -13.356001 -16.244071 -20.800332 0.766145 -0.197980 -3.417793
    40 0.000000 3.263673 -0.760246 0.000000 0.000000 0.000000
    41 0.000001 2.373053 -2.818354 0.000000 0.000000 0.000000
    42 0.000000 3.857430 -4.597647 0.000000 0.000000 0.000000
    43 0.000000 5.988286 -2.427719 0.000000 0.000000 0.000000
    44 -3.715750 27.385479 -10.540455 1.570743 0.000000 -4.712372
  time 4
    0 0.000005 -2.660156 -8.640625 -1.570760 -1.391893 -1.570827
    1 2.033348 1.000767 1.937660 2.693711 -0.650100 2.016306
    2 6.028145 0.000003 0.000002 -2.194447 -0.139047 -0.644988
    3 11.692553 0.000081 -0.000006 0.022384 0.085906 -0.518007
    4 11.481672 -0.000089 -0.000022 1.412654 -0.052081 0.927334
    5 3.281560 0.002116 -1.379481 0.034816 -0.071613 -0.743563
    6 1.324282 -0.000010 0.000004 0.000000 0.077202 -0.248125
    7 0.815305 0.000000 0.000002 -0.649205 -0.000003 -0.000015
    8 3.711854 0.109256 -0.568167 -0.069578 -0.144247 -0.849817
    9 1.609408 0.000006 -0.000007 -0.000002 0.099250 -0.498063
    10 0.993193 -0.000006 0.000002 -0.621521 -0.000414 -0.006522
    11 3.786031 0.203222 0.247844 -0.121048 -0.367166 -0.416049
    12 1.684422 -0.000010 0.000009 0.000002 0.176187 -0.413914
    13 1.252153 -0.000008 0.000004 -0.630069 0.011013 0.007546
    14 3.594223 0.299549 1.113710 -0.123207 -0.496311 -0.119309
    15 1.719437 -0.000004 -0.000005 -0.000004 0.273169 -0.206583
    16 1.005921 -0.000006 0.000003 -0.602115 0.000018 -0.000012
    17 0.298212 -0.634095 0.430606 -1.598485 -0.708456 -0.199559
    18 2.637466 0.000000 -0.000008 -0.000002 -0.083823 0.225144
    19 1.308566 -0.000001 -0.000002 -0.001544 -0.004843 0.324429
    20 2.033356 1.000772 -1.937610 -0.128177 0.172990 -2.038336
    21 6.028141 0.000000 -0.000002 -0.205970 1.023689 -1.688236
    22 11.692556 0.000000 -0.000002 0.028521 -0.049784 -1.044986
    23 11.481703 -0.000001 -0.000005 -0.848344 -0.281925 0.649077
    24 3.859676 -0.132545 1.193110 0.266247 -0.058069 -1.578804
    25 1.312559 -0.000004 -0.000001 0.000000 0.000000 -0.939669
    26 0.729365 -0.000002 -0.000001 0.000000 0.000000 -0.144267
    27 3.942299 0.050347 0.431044 0.150075 -0.079193 -1.210201
    28 1.539106 0.000000 0.000001 0.000003 -0.000003 -1.447698
    29 1.196321 -0.000004 -0.000002 -0.000003 0.000002 -0.430764
    30 3.883663 -0.050304 -0.431042 -0.005920 -0.006422 -1.287674
    31 1.719582 0.000002 0.000006 0.000002 -0.007972 -1.666396
    32 1.209183 0.000002 0.000006 0.000002 -0.004469 -0.216370
    33 3.445761 0.054213 -1.089087 0.068285 0.360621 -0.185546
    34 1.711616 0.000008 0.000011 0.000003 -0.254296 -0.526322
    35 1.099665 0.000000 0.000006 0.000004 -0.004212 -0.244311
    36 0.075534 -0.738749 -0.763630 1.224043 0.531732 -0.535691
    37 2.508554 -0.000008 -0.000004 -0.000002 -0.000001 0.359159
    38 1.277317 0.339852 -0.136731 0.020905 -0.008176 0.996562
    39 -13.176308 -16.904248 -19.644047 0.797512 -0.182862 -3.409030
    40 0.000000 3.263673 -0.760246 0.000000 0.000000 0.000000
    41 0.000001 2.373053 -2.818354 0.000000 0.000000 0.000000
    42 0.000000 3.857430 -4.597647 0.000000 0.000000 0.000000
    43 0.000000 5.988286 -2.427719 0.000000 0.000000 0.000000
    44 -3.715750 27.385479 -10.540455 1.570743 0.000000 -4.712372
  time 5
    0 0.000005 -2.660156 -8.640625 -1.570760 -1.391893 -1.570827
    1 2.033348 1.000767 1.937660 2.704356 -0.638206 2.009860
    2 6.028145 0.000003 0.000002 -2.232983 -0.116683 -0.632769
    3 11.692553 0.000081 -0.000006 0.022504 0.085714 -0.516765
    4 11.481672 -0.000089 -0.000022 1.440927 -0.045253 0.914382
    5 3.281560 0.002116 -1.383388 0.034972 -0.071142 -0.744941
    6 1.324282 -0.000010 0.000004 0.000000 0.076746 -0.246698
    7 0.815305 0.000000 0.000002 -0.649205 -0.000003 -0.000015
    8 3.711854 0.109256 -0.568167 -0.069446 -0.143800 -0.850764
    9 1.609408 0.000006 -0.000007 -0.000002 0.098831 -0.496806
    10 0.993193 -0.000006 0.000002 -0.621521 -0.000414 -0.006522
    11 3.786031 0.203222 0.243938 -0.120916 -0.366717 -0.417380
    12 1.684422 -0.000010 0.000009 0.000002 0.175875 -0.412785
    13 1.252153 -0.000008 0.000004 -0.630069 0.011013 0.007546
    14 3.594223 0.299549 1.109803 -0.123079 -0.495968 -0.121011
    15 1.719437 -0.000004 -0.000005 -0.000004 0.272881 -0.205151
    16 1.005921 -0.000006 0.000003 -0.602115 0.000018 -0.000012
    17 0.298212 -0.634095 0.426700 -1.597739 -0.708220 -0.200746
    18 2.633559 0.000000 -0.000008 -0.000002 -0.084497 0.224940
    19 1.308566 -0.000001 -0.000002 -0.001556 -0.004843 0.324429
    20 2.033356 1.000772 -1.937610 -0.128177 0.172990 -2.038336
    21 6.028141 0.000000 -0.000002 -0.252117 1.044050 -1.766270
    22 11.692556 0.000000 -0.000002 0.029145 -0.050084 -1.057689
    23 11.481703 -0.000001 -0.000005 -0.838825 -0.306528 0.663363
    24 3.859676 -0.132545 1.193110 0.266247 -0.058069 -1.578825
    25 1.312559 -0.000004 -0.000001 0.000000 0.000000 -0.939669
    26 0.729365 -0.000002 -0.000001 0.000000 0.000000 -0.144267
    27 3.942299 0.050347 0.431044 0.150075 -0.079193 -1.210201
    28 1.539106 0.000000 0.000001 0.000003 -0.000003 -1.447698
    29 1.196321 -0.000004 -0.000002 -0.000003 0.000002 -0.430764
    30 3.883663 -0.050304 -0.431042 -0.005920 -0.006422 -1.287695
    31 1.719582 0.000002 0.000006 0.000002 -0.007972 -1.666396
    32 1.209183 0.000002 0.000006 0.000002 -0.004469 -0.216370
    33 3.445761 0.054213 -1.089087 0.068285 0.367668 -0.184488
    34 1.715523 0.000008 0.000011 0.000003 -0.258431 -0.525228
    35 1.099665 0.000000 0.000006 0.000004 -0.004212 -0.244311
    36 0.075534 -0.738749 -0.759723 1.223515 0.535628 -0.535020
    37 2.512460 -0.000008 -0.000004 -0.000002 -0.000001 0.359147
    38 1.277317 0.339852 -0.136731 0.019287 -0.009985 0.995608
    39 -12.996615 -17.458952 -18.558076 0.828367 -0.170291 -3.400615
    40 0.000000 3.263673 -0.760246 0.000000 0.000000 0.000000
    41 0.000001 2.373053 -2.818354 0.000000 0.000000 0.000000
    42 0.000000 3.857430 -4.597647 0.000000 0.000000 0.000000
    43 0.000000 5.988286 -2.427719 0.000000 0.000000 0.000000
    44 -3.715750 27.385479 -10.540455 1.570743 0.000000 -4.712372
  time 6
    0 0.000005 -2.660156 -8.640625 -1.570760 -1.391893 -1.570827
    1 2.033348 1.000767 1.937660 2.716676 -0.624058 2.002588
    2 6.028145 0.000003 0.000002 -2.241414 -0.138798 -0.620008
    3 11.692553 0.000081 -0.000006 0.024625 0.081867 -0.491291
    4 11.481672 -0.000089 -0.000022 1.412888 0.020601 0.872217
    5 3.281560 0.002116 -1.383388 0.035162 -0.070921 -0.745573
    6 1.324282 -0.000010 0.000004 0.000000 0.076626 -0.246304
    7 0.815305 0.000000 0.000002 -0.649205 -0.000003 -0.000015
    8 3.711854 0.105349 -0.568167 -0.069230 -0.143557 -0.851376
    9 1.609408 0.000006 -0.000007 -0.000002 0.098699 -0.496452
    10 0.993193 -0.000006 0.000002 -0.621521 -0.000414 -0.006522
    11 3.786031 0.203222 0.243938 -0.120688 -0.366547 -0.418112
    12 1.684422 -0.000010 0.000009 0.000002 0.175779 -0.412468
    13 1.252153 -0.000008 0.000004 -0.630069 0.011013 0.007546
    14 3.594223 0.299549 1.109803 -0.122842 -0.495914 -0.121877
    15 1.719437 -0.000004 -0.000005 -0.000004 0.272797 -0.204772
    16 1.005921 -0.000006 0.000003 -0.602115 0.000018 -0.000012
    17 0.298212 -0.634095 0.426700 -1.597264 -0.708141 -0.201538
    18 2.633559 0.000000 -0.000008 -0.000002 -0.084693 0.224888
    19 1.308566 -0.000001 -0.000002 -0.001544 -0.004843 0.324429
    20 2.033356 1.000772 -1.937610 -0.128177 0.172990 -2.038336
    21 6.028141 0.000000 -0.000002 -0.296533 1.060683 -1.839196
    22 11.692556 0.000000 -0.000002 0.029756 -0.050419 -1.069778
    23 11.481703 -0.000001 -0.000005 -0.827191 -0.324378 0.669184
    24 3.859676 -0.132545 1.193110 0.266247 -0.058069 -1.578804
    25 1.312559 -0.000004 -0.000001 0.000000 0.000000 -0.939669
    26 0.729365 -0.000002 -0.000001 0.000000 0.000000 -0.144267
    27 3.942299 0.050347 0.431044 0.150075 -0.079193 -1.210201
    28 1.539106 0.000000 0.000001 0.000003 -0.000003 -1.447698
    29 1.196321 -0.000004 -0.000002 -0.000003 0.000002 -0.430764
    30 3.883663 -0.050304 -0.431042 -0.005920 -0.006422 -1.287674
    31 1.719582 0.000002 0.000006 0.000002 -0.007972 -1.666396
    32 1.209183 0.000002 0.000006 0.000002 -0.004469 -0.216370
    33 3.449668 0.054213 -1.089087 0.068887 0.371743 -0.181787
    34 1.711616 0.000008 0.000011 0.000003 -0.261068 -0.525020
    35 1.099665 0.000000 0.000006 0.000004 -0.004212 -0.244311
    36 0.075534 -0.738749 -0.763630 1.224138 0.537922 -0.532587
    37 2.512460 -0.000008 -0.000004 -0.000002 -0.000001 0.359159
    38 1.277317 0.339852 -0.128918 0.018149 -0.011256 0.995007
    39 -12.809109 -17.931623 -17.550233 0.863063 -0.159106 -3.392756
    40 0.000000 3.263673 -0.760246 0.000000 0.000000 0.000000
    41 0.000001 2.373053 -2.818354 0.000000 0.000000 0.000000
    42 0.000000 3.857430 -4.597647 0.000000 0.000000 0.000000
    43 0.000000 5.988286 -2.427719 0.000000 0.000000 0.000000
    44 -3.715750 27.385479 -10.540455 1.570743 0.000000 -4.712372
  time 7
    0 0.000005 -2.660156 -8.640625 -1.570760 -1.391893 -1.570827
    1 2.033348 1.000767 1.937660 2.730347 -0.607969 1.994710
    2 6.028145 0.000003 0.000002 -2.263030 -0.120931 -0.618307
    3 11.692553 0.000081 -0.000006 0.022013 0.086553 -0.522357
    4 11.481672 -0.000089 -0.000022 1.406405 0.057230 0.873541
    5 3.281560 0.002116 -1.383388 0.034868 -0.071481 -0.743994
    6 1.324282 -0.000010 0.000004 0.000000 0.077058 -0.247700
    7 0.815305 0.000000 0.000002 -0.649205 -0.000003 -0.000015
    8 3.711854 0.109256 -0.572073 -0.069530 -0.144119 -0.850092
    9 1.609408 0.000006 -0.000007 -0.000002 0.099119 -0.497644
    10 0.993193 -0.000006 0.000002 -0.621521 -0.000414 -0.006522
    11 3.786031 0.203222 0.243938 -0.121012 -0.367011 -0.416448
    12 1.684422 -0.000010 0.000009 0.000002 0.176091 -0.413561
    13 1.252153 -0.000008 0.000004 -0.630069 0.011013 0.007546
    14 3.594223 0.299549 1.109803 -0.123152 -0.496221 -0.119857
    15 1.719437 -0.000004 -0.000005 -0.000004 0.273073 -0.206120
    16 1.005921 -0.000006 0.000003 -0.602115 0.000018 -0.000012
    17 0.298212 -0.634095 0.426700 -1.598281 -0.708404 -0.199954
    18 2.637466 0.000000 -0.000008 -0.000002 -0.084041 0.225068
    19 1.308566 -0.000001 -0.000002 -0.001544 -0.004843 0.324429
    20 2.033356 1.000772 -1.937610 -0.128177 0.172990 -2.038336
    21 6.028141 0.000000 -0.000002 -0.340373 1.073842 -1.908738
    22 11.692556 0.000000 -0.000002 0.030307 -0.050719 -1.080701
    23 11.481703 -0.000001 -0.000005 -0.811525 -0.332346 0.667067
    24 3.859676 -0.132545 1.193110 0.266247 -0.058069 -1.578804
    25 1.312559 -0.000004 -0.000001 0.000000 0.000000 -0.939669
    26 0.729365 -0.000002 -0.000001 0.000000 0.000000 -0.144267
    27 3.942299 0.050347 0.431044 0.150075 -0.079193 -1.210201
    28 1.539106 0.000000 0.000001 0.000003 -0.000003 -1.447698
    29 1.196321 -0.000004 -0.000002 -0.000003 0.000002 -0.430764
    30 3.883663 -0.050304 -0.431042 -0.005920 -0.006422 -1.287674
    31 1.719582 0.000002 0.000006 0.000002 -0.007972 -1.666396
    32 1.209183 0.000002 0.000006 0.000002 -0.004469 -0.216370
    33 3.445761 0.054213 -1.089087 0.068914 0.373049 -0.180534
    34 1.711616 0.000008 0.000011 0.000003 -0.261403 -0.526244
    35 1.099665 0.000000 0.000006 0.000004 -0.004212 -0.244311
    36 0.075534 -0.738749 -0.759723 1.224426 0.538857 -0.532047
    37 2.512460 -0.000008 -0.000004 -0.000002 -0.000001 0.359159
    38 1.277317 0.339852 -0.128918 0.017633 -0.011843 0.994779
    39 -12.609884 -18.341791 -16.589266 0.905824 -0.147921 -3.385524
    40 0.000000 3.263673 -0.760246 0.000000 0.000000 0.000000
    41 0.000001 2.373053 -2.818354 0.000000 0.000000 0.000000
    42 0.000000 3.857430 -4.597647 0.000000 0.000000 0.000000
    43 0.000000 5.988286 -2.427719 0.000000 0.000000 0.000000
    44 -3.715750 27.385479 -10.540455 1.570743 0.000000 -4.712372
  time 8
    0 0.000005 -2.660156 -8.640625 -1.570760 -1.391893 -1.570827
    1 2.033348 1.000767 1.937660 2.745153 -0.590110 1.986391
    2 6.028145 0.000003 0.000002 -2.257202 -0.126053 -0.623952
    3 11.692553 0.000081 -0.000006 0.016344 0.095697 -0.584720
    4 11.481672 -0.000089 -0.000022 1.341111 0.145553 0.871603
    5 3.281560 0.002116 -1.383388 0.034521 -0.072453 -0.740317
    6 1.324282 -0.000010 0.000004 0.000000 0.078268 -0.251584
    7 0.815305 0.000000 0.000002 -0.649205 -0.000003 -0.000015
    8 3.711854 0.109256 -0.568167 -0.069853 -0.145001 -0.847585
    9 1.609408 0.000006 -0.000007 -0.000002 0.100269 -0.501090
    10 0.993193 -0.000006 0.000002 -0.621521 -0.000414 -0.006522
    11 3.786031 0.203222 0.243938 -0.121120 -0.367941 -0.413055
    12 1.684422 -0.000010 0.000009 0.000002 0.176966 -0.416594
    13 1.252153 -0.000008 0.000004 -0.630028 0.011013 0.007546
    14 3.594223 0.299549 1.113710 -0.123189 -0.496943 -0.115500
    15 1.719437 -0.000004 -0.000005 -0.000004 0.273864 -0.210036
    16 1.005921 -0.000006 0.000003 -0.602115 0.000018 -0.000012
    17 0.298212 -0.634095 0.426700 -1.599977 -0.708824 -0.196919
    18 2.637466 0.000000 -0.000008 -0.000002 -0.082237 0.225580
    19 1.308566 -0.000001 -0.000002 -0.001556 -0.004843 0.324429
    20 2.033356 1.000772 -1.937610 -0.128177 0.172990 -2.038336
    21 6.028141 0.000000 -0.000002 -0.379959 1.084589 -1.970975
    22 11.692556 0.000000 -0.000002 0.030978 -0.051054 -1.093957
    23 11.481703 -0.000001 -0.000005 -0.789117 -0.328475 0.652887
    24 3.859676 -0.132545 1.193110 0.266247 -0.058069 -1.578825
    25 1.312559 -0.000004 -0.000001 0.000000 0.000000 -0.939669
    26 0.729365 -0.000002 -0.000001 0.000000 0.000000 -0.144267
    27 3.942299 0.050347 0.431044 0.150075 -0.079193 -1.210201
    28 1.539106 0.000000 0.000001 0.000003 -0.000003 -1.447698
    29 1.196321 -0.000004 -0.000002 -0.000003 0.000002 -0.430764
    30 3.883663 -0.050304 -0.431042 -0.005920 -0.006422 -1.287695
    31 1.719582 0.000002 0.000006 0.000002 -0.007972 -1.666396
    32 1.209183 0.000002 0.000006 0.000002 -0.004469 -0.216370
    33 3.445761 0.054213 -1.085181 0.068982 0.369430 -0.178335
    34 1.711616 0.000008 0.000011 0.000003 -0.258671 -0.529499
    35 1.099665 0.000000 0.000006 0.000004 -0.004212 -0.244311
    36 0.075534 -0.738749 -0.759723 1.225672 0.537143 -0.530813
    37 2.508554 -0.000008 -0.000004 -0.000002 -0.000001 0.359159
    38 1.277317 0.339852 -0.128918 0.017873 -0.011567 0.995007
    39 -12.395034 -18.712896 -15.659550 0.960813 -0.135543 -3.378500
    40 0.000000 3.263673 -0.760246 0.000000 0.000000 0.000000
    41 0.000001 2.373053 -2.818354 0.000000 0.000000 0.000000
    42 0.000000 3.857430 -4.597647 0.000000 0.000000 0.000000
    43 0.000000 5.988286 -2.427719 0.000000 0.000000 0.000000
    44 -3.715750 27.385479 -10.540455 1.570743 0.000000 -4.712372
  time 9
    0 0.000005 -2.660156 -8.640625 -1.570760 -1.391893 -1.570827
    1 2.033348 1.000767 1.937660 2.760769 -0.570518 1.977797
    2 6.028145 0.000003 0.000002 -2.247639 -0.128636 -0.631763
    3 11.692553 0.000081 -0.000006 0.006529 0.109060 -0.680633
    4 11.481672 -0.000089 -0.000022 1.257541 0.229397 0.879261
    5 3.277654 0.002116 -1.383388 0.033950 -0.073262 -0.737359
    6 1.324282 -0.000010 0.000004 0.000000 0.079119 -0.254164
    7 0.815305 0.000000 0.000002 -0.649205 -0.000003 -0.000015
    8 3.707947 0.109256 -0.568167 -0.070429 -0.145780 -0.845262
    9 1.609408 0.000006 -0.000007 -0.000002 0.101060 -0.503345
    10 0.993193 -0.000006 0.000002 -0.621521 -0.000414 -0.006522
    11 3.786031 0.203222 0.243938 -0.121575 -0.368561 -0.410128
    12 1.684422 -0.000010 0.000009 0.000002 0.177565 -0.418604
    13 1.252153 -0.000008 0.000004 -0.630069 0.011013 0.007546
    14 3.590316 0.299549 1.109803 -0.123590 -0.497305 -0.111806
    15 1.719437 -0.000004 -0.000005 -0.000004 0.274427 -0.212520
    16 1.005921 -0.000006 0.000003 -0.602115 0.000018 -0.000012
    17 0.294305 -0.634095 0.426700 -1.601605 -0.709060 -0.194081
    18 2.633559 0.000000 -0.000008 -0.000002 -0.081063 0.225938
    19 1.308566 -0.000001 -0.000002 -0.001556 -0.004843 0.324429
    20 2.033356 1.000772 -1.937610 -0.128177 0.172990 -2.038336
    21 6.028141 0.000000 -0.000002 -0.415001 1.093655 -2.025967
    22 11.692556 0.000000 -0.000002 0.031781 -0.051474 -1.109360
    23 11.481703 -0.000001 -0.000005 -0.769022 -0.318728 0.638495
    24 3.859676 -0.132545 1.193110 0.266247 -0.058069 -1.578825
    25 1.312559 -0.000004 -0.000001 0.000000 0.000000 -0.939669
    26 0.729365 -0.000002 -0.000001 0.000000 0.000000 -0.144267
    27 3.942299 0.050347 0.431044 0.150075 -0.079193 -1.210201
    28 1.539106 0.000000 0.000001 0.000003 -0.000003 -1.447698
    29 1.196321 -0.000004 -0.000002 -0.000003 0.000002 -0.430764
    30 3.883663 -0.050304 -0.431042 -0.005920 -0.006422 -1.287695
    31 1.719582 0.000002 0.000006 0.000002 -0.007972 -1.666396
    32 1.209183 0.000002 0.000006 0.000002 -0.004469 -0.216370
    33 3.445761 0.054213 -1.089087 0.068996 0.365031 -0.177026
    34 1.711616 0.000008 0.000011 0.000003 -0.255567 -0.532338
    35 1.099665 0.000000 0.000006 0.000004 -0.004212 -0.244311
    36 0.075534 -0.738749 -0.759723 1.226679 0.534933 -0.530214
    37 2.512460 -0.000008 -0.000004 -0.000002 -0.000001 0.359147
    38 1.277317 0.339852 -0.136731 0.018436 -0.010932 0.995401
    39 -12.172371 -19.009781 -14.804055 1.016825 -0.127098 -3.371406
    40 0.000000 3.263673 -0.760246 0.000000 0.000000 0.000000
    41 0.000001 2.373053 -2.818354 0.000000 0.000000 0.000000
    42 0.000000 3.857430 -4.597647 0.000000 0.000000 0.000000
    43 0.000000 5.988286 -2.427719 0.000000 0.000000 0.000000
    44 -3.715750 27.385479 -10.540455 1.570743 0.000000 -4.712372
  time 10
    0 0.000005 -2.660156 -8.640625 -1.570760 -1.391893 -1.570827
    1 2.033348 1.000767 1.937660 2.777087 -0.549539 1.969147
    2 6.028145 0.000003 0.000002 -2.240509 -0.129802 -0.636481
    3 11.692553 0.000081 -0.000006 -0.005971 0.122770 -0.788818
    4 11.481672 -0.000089 -0.000022 1.168270 0.305943 0.891976
    5 3.281560 0.002116 -1.379481 0.033777 -0.075559 -0.733883
    6 1.324282 -0.000010 0.000004 0.000000 0.080821 -0.258413
    7 0.815305 0.000000 0.000002 -0.649205 -0.000003 -0.000015
    8 3.711854 0.109256 -0.568167 -0.070500 -0.147888 -0.843030
    9 1.609408 0.000006 -0.000007 -0.000002 0.102570 -0.507081
    10 0.993193 -0.000006 0.000002 -0.621521 -0.000414 -0.006522
    11 3.786031 0.203222 0.247844 -0.121815 -0.370731 -0.406801
    12 1.684422 -0.000010 0.000009 0.000002 0.178751 -0.421954
    13 1.252153 -0.000008 0.000004 -0.630028 0.011013 0.007546
    14 3.594223 0.299549 1.113710 -0.124010 -0.499255 -0.107247
    15 1.719437 -0.000004 -0.000005 -0.000004 0.275626 -0.216772
    16 1.005921 -0.000006 0.000003 -0.602115 0.000018 -0.000012
    17 0.298212 -0.634095 0.430606 -1.603912 -0.710556 -0.190979
    18 2.633559 0.000000 -0.000008 -0.000002 -0.079106 0.226681
    19 1.308566 -0.000001 -0.000002 -0.001556 -0.004831 0.324429
    20 2.033356 1.000772 -1.937610 -0.128177 0.172990 -2.038336
    21 6.028141 0.000000 -0.000002 -0.445934 1.100966 -2.074308
    22 11.692556 0.000000 -0.000002 0.032716 -0.051917 -1.127585
    23 11.481703 -0.000001 -0.000005 -0.742912 -0.293157 0.611960
    24 3.859676 -0.132545 1.193110 0.266247 -0.058069 -1.578804
    25 1.312559 -0.000004 -0.000001 0.000000 0.000000 -0.939669
    26 0.729365 -0.000002 -0.000001 0.000000 0.000000 -0.144267
    27 3.942299 0.050347 0.431044 0.150075 -0.079193 -1.210201
    28 1.539106 0.000000 0.000001 0.000003 -0.000003 -1.447698
    29 1.196321 -0.000004 -0.000002 -0.000003 0.000002 -0.430764
    30 3.883663 -0.050304 -0.431042 -0.005920 -0.006422 -1.287695
    31 1.719582 0.000002 0.000006 0.000002 -0.007972 -1.666396
    32 1.209183 0.000002 0.000006 0.000002 -0.004469 -0.216370
    33 3.445761 0.054213 -1.085181 0.068887 0.355300 -0.175578
    34 1.711616 0.000008 0.000011 0.000003 -0.248927 -0.537625
    35 1.099665 0.000000 0.000006 0.000004 -0.004212 -0.244311
    36 0.075534 -0.738749 -0.755817 1.228309 0.529975 -0.529914
    37 2.512460 -0.000008 -0.000004 -0.000002 -0.000001 0.359159
    38 1.277317 0.339852 -0.136731 0.019994 -0.009182 0.996521
    39 -11.926269 -19.275414 -13.940748 1.089674 -0.117621 -3.364173
    40 0.000000 3.263673 -0.760246 0.000000 0.000000 0.000000
    41 0.000001 2.373053 -2.818354 0.000000 0.000000 0.000000
    42 0.000000 3.857430 -4.597647 0.000000 0.000000 0.000000
    43 0.000000 5.988286 -2.427719 0.000000 0.000000 0.000000
    44 -3.715750 27.385479 -10.540455 1.570743 0.000000 -4.712372
  time 11
    0 0.000005 -2.660156 -8.640625 -1.570760 -1.391893 -1.570827
    1 2.033348 1.000767 1.937660 2.793784 -0.527311 1.960553
    2 6.028145 0.000003 0.000002 -2.236661 -0.135841 -0.634238
    3 11.692553 0.000081 -0.000006 -0.019502 0.134779 -0.894129
    4 11.481672 -0.000089 -0.000022 1.073999 0.369558 0.901052
    5 3.281560 0.002116 -1.379481 0.033430 -0.077459 -0.730724
    6 1.324282 -0.000010 0.000004 0.000000 0.082547 -0.261994
    7 0.815305 0.000000 0.000002 -0.649205 -0.000003 -0.000015
    8 3.711854 0.109256 -0.568167 -0.070812 -0.149574 -0.840829
    9 1.609408 0.000006 -0.000007 -0.000002 0.103996 -0.510174
    10 0.993193 -0.000006 0.000002 -0.621521 -0.000414 -0.006522
    11 3.786031 0.203222 0.243938 -0.122103 -0.372404 -0.403641
    12 1.684422 -0.000010 0.000009 0.000002 0.179938 -0.424705
    13 1.252153 -0.000008 0.000004 -0.630069 0.011013 0.007546
    14 3.594223 0.299549 1.113710 -0.124320 -0.500754 -0.103063
    15 1.719437 -0.000004 -0.000005 -0.000004 0.276884 -0.220267
    16 1.005921 -0.000006 0.000003 -0.602115 0.000018 -0.000012
    17 0.298212 -0.634095 0.426700 -1.605743 -0.711606 -0.188010
    18 2.637466 0.000000 -0.000008 -0.000002 -0.077498 0.227449
    19 1.308566 -0.000001 -0.000002 -0.001544 -0.004843 0.324429
    20 2.033356 1.000772 -1.937610 -0.128177 0.172990 -2.038336
    21 6.028141 0.000000 -0.000002 -0.469873 1.108057 -2.113265
    22 11.692556 0.000000 -0.000002 0.033926 -0.052493 -1.150904
    23 11.481703 -0.000001 -0.000005 -0.717793 -0.258043 0.583361
    24 3.859676 -0.132545 1.193110 0.266247 -0.058069 -1.578804
    25 1.312559 -0.000004 -0.000001 0.000000 0.000000 -0.939669
    26 0.729365 -0.000002 -0.000001 0.000000 0.000000 -0.144267
    27 3.942299 0.050347 0.431044 0.150075 -0.079193 -1.210201
    28 1.539106 0.000000 0.000001 0.000003 -0.000003 -1.447698
    29 1.196321 -0.000004 -0.000002 -0.000003 0.000002 -0.430764
    30 3.883663 -0.050304 -0.431042 -0.005920 -0.006422 -1.287674
    31 1.719582 0.000002 0.000006 0.000002 -0.007972 -1.666396
    32 1.209183 0.000002 0.000006 0.000002 -0.004469 -0.216370
    33 3.445761 0.054213 -1.089087 0.068722 0.343459 -0.174827
    34 1.715523 0.000008 0.000011 0.000003 -0.240982 -0.543694
    35 1.099665 0.000000 0.000006 0.000004 -0.004212 -0.244311
    36 0.075534 -0.738749 -0.759723 1.229843 0.523969 -0.530322
    37 2.512460 -0.000008 -0.000004 -0.000002 -0.000001 0.359159
    38 1.277317 0.347665 -0.140637 0.022164 -0.006773 0.998366
    39 -11.656730 -19.490264 -13.096972 1.169500 -0.110401 -3.356732
    40 0.000000 3.263673 -0.760246 0.000000 0.000000 0.000000
    41 0.000001 2.373053 -2.818354 0.000000 0.000000 0.000000
    42 0.000000 3.857430 -4.597647 0.000000 0.000000 0.000000
    43 0.000000 5.988286 -2.427719 0.000000 0.000000 0.000000
    44 -3.715750 27.385479 -10.540455 1.570743 0.000000 -4.712372
  time 12
    0 0.000005 -2.660156 -8.640625 -1.570760 -1.391893 -1.570827
    1 2.033348 1.000767 1.937660 2.810751 -0.504009 1.952234
    2 6.028145 0.000003 0.000002 -2.235416 -0.149584 -0.624107
    3 11.692553 0.000081 -0.000006 -0.032829 0.144354 -0.989809
    4 11.481672 -0.000089 -0.000022 0.974574 0.421576 0.903415
    5 3.281560 0.002116 -1.383388 0.033119 -0.079417 -0.727823
    6 1.324282 -0.000010 0.000004 0.000000 0.084285 -0.265333
    7 0.815305 0.000000 0.000002 -0.649205 -0.000003 -0.000015
    8 3.711854 0.109256 -0.568167 -0.071088 -0.151273 -0.838872
    9 1.609408 0.000006 -0.000007 -0.000002 0.105422 -0.513040
    10 0.993193 -0.000006 0.000002 -0.621521 -0.000414 -0.006522
    11 3.786031 0.203222 0.243938 -0.122366 -0.374078 -0.400747
    12 1.684422 -0.000010 0.000009 0.000002 0.181124 -0.427315
    13 1.252153 -0.000008 0.000004 -0.630069 0.011013 0.007546
    14 3.594223 0.299549 1.109803 -0.124612 -0.502290 -0.099138
    15 1.719437 -0.000004 -0.000005 -0.000004 0.278179 -0.223509
    16 1.005921 -0.000006 0.000003 -0.602115 0.000018 -0.000012
    17 0.298212 -0.634095 0.426700 -1.607439 -0.712656 -0.185238
    18 2.633559 0.000000 -0.000008 -0.000002 -0.075976 0.228217
    19 1.308566 -0.000001 -0.000002 -0.001568 -0.004831 0.324404
    20 2.033356 1.000772 -1.937610 -0.128177 0.172990 -2.038336
    21 6.028141 0.000000 -0.000002 -0.482852 1.115039 -2.137317
    22 11.692556 0.000000 -0.000002 0.035688 -0.053236 -1.184104
    23 11.481703 -0.000001 -0.000005 -0.694129 -0.214352 0.557435
    24 3.859676 -0.132545 1.193110 0.266247 -0.058069 -1.578804
    25 1.312559 -0.000004 -0.000001 0.000000 0.000000 -0.939669
    26 0.729365 -0.000002 -0.000001 0.000000 0.000000 -0.144267
    27 3.942299 0.050347 0.431044 0.150075 -0.079193 -1.210201
    28 1.539106 0.000000 0.000001 0.000003 -0.000003 -1.447698
    29 1.196321 -0.000004 -0.000002 -0.000003 0.000002 -0.430764
    30 3.883663 -0.050304 -0.431042 -0.005920 -0.006422 -1.287674
    31 1.719582 0.000002 0.000006 0.000002 -0.007972 -1.666396
    32 1.209183 0.000002 0.000006 0.000002 -0.004469 -0.216370
    33 3.449668 0.054213 -1.089087 0.068504 0.330612 -0.174493
    34 1.711616 0.000008 0.000011 0.000003 -0.232401 -0.550387
    35 1.099665 0.000000 0.000006 0.000004 -0.004212 -0.244311
    36 0.075534 -0.738749 -0.759723 1.231209 0.517481 -0.531268
    37 2.512460 -0.000008 -0.000004 -0.000002 -0.000001 0.359159
    38 1.277317 0.347665 -0.144543 0.024728 -0.003921 1.000896
    39 -11.332501 -19.599642 -12.303979 1.253039 -0.104147 -3.348665
    40 0.000000 3.263673 -0.760246 0.000000 0.000000 0.000000
    41 0.000001 2.373053 -2.818354 0.000000 0.000000 0.000000
    42 0.000000 3.857430 -4.597647 0.000000 0.000000 0.000000
    43 0.000000 5.988286 -2.427719 0.000000 0.000000 0.000000
    44 -3.715750 27.385479 -10.540455 1.570743 0.000000 -4.712372
  time 13
    0 0.000005 -2.660156 -8.640625 -1.570760 -1.391893 -1.570827
    1 2.033348 1.000767 1.937660 2.827772 -0.479874 1.944135
    2 6.028145 0.000003 0.000002 -2.237906 -0.172574 -0.604541
    3 11.692553 0.000081 -0.000006 -0.044706 0.151413 -1.070346
    4 11.481672 -0.000089 -0.000022 0.871166 0.463949 0.895994
    5 3.281560 0.002116 -1.383388 0.032772 -0.081405 -0.724692
    6 1.324282 -0.000010 0.000004 0.000000 0.086082 -0.268914
    7 0.815305 0.000000 0.000002 -0.649205 -0.000003 -0.000015
    8 3.711854 0.109256 -0.568167 -0.071375 -0.153036 -0.836732
    9 1.609408 0.000006 -0.000007 -0.000002 0.106909 -0.516165
    10 0.993193 -0.000006 0.000002 -0.621521 -0.000414 -0.006522
    11 3.786031 0.203222 0.243938 -0.122654 -0.375814 -0.397653
    12 1.684422 -0.000010 0.000009 0.000002 0.182347 -0.430066
    13 1.252153 -0.000008 0.000004 -0.630069 0.011013 0.007546
    14 3.594223 0.299549 1.109803 -0.124941 -0.503897 -0.094983
    15 1.719437 -0.000004 -0.000005 -0.000004 0.279497 -0.227046
    16 1.005921 -0.000006 0.000003 -0.602115 0.000018 -0.000012
    17 0.298212 -0.634095 0.426700 -1.609203 -0.713732 -0.182268
    18 2.633559 0.000000 -0.000008 -0.000002 -0.074389 0.228985
    19 1.308566 -0.000001 -0.000002 -0.001556 -0.004843 0.324429
    20 2.033356 1.000772 -1.937610 -0.128177 0.172990 -2.038336
    21 6.028141 0.000000 -0.000002 -0.482419 1.123118 -2.144265
    22 11.692556 0.000000 -0.000002 0.038121 -0.054146 -1.229515
    23 11.481703 -0.000001 -0.000005 -0.672447 -0.165687 0.537169
    24 3.859676 -0.132545 1.193110 0.266247 -0.058069 -1.578804
    25 1.312559 -0.000004 -0.000001 0.000000 0.000000 -0.939669
    26 0.729365 -0.000002 -0.000001 0.000000 0.000000 -0.144267
    27 3.942299 0.050347 0.431044 0.150075 -0.079193 -1.210201
    28 1.539106 0.000000 0.000001 0.000003 -0.000003 -1.447698
    29 1.196321 -0.000004 -0.000002 -0.000003 0.000002 -0.430764
    30 3.883663 -0.050304 -0.431042 -0.005920 -0.006422 -1.287674
    31 1.719582 0.000002 0.000006 0.000002 -0.007972 -1.666396
    32 1.209183 0.000002 0.000006 0.000002 -0.004469 -0.216370
    33 3.449668 0.054213 -1.085181 0.068285 0.317728 -0.174298
    34 1.711616 0.000008 0.000011 0.000003 -0.223784 -0.557679
    35 1.099665 0.000000 0.000006 0.000004 -0.004212 -0.244311
    36 0.075534 -0.738749 -0.759723 1.232420 0.511121 -0.532491
    37 2.512460 -0.000008 -0.000004 -0.000002 -0.000001 0.359147
    38 1.273411 0.351571 -0.152356 0.027449 -0.000877 1.004110
    39 -10.937958 -19.591830 -11.581301 1.336898 -0.098023 -3.339276
    40 0.000000 3.263673 -0.760246 0.000000 0.000000 0.000000
    41 0.000001 2.373053 -2.818354 0.000000 0.000000 0.000000
    42 0.000000 3.857430 -4.597647 0.000000 0.000000 0.000000
    43 0.000000 5.988286 -2.427719 0.000000 0.000000 0.000000
    44 -3.715750 27.385479 -10.540455 1.570743 0.000000 -4.712372
  time 14
    0 0.000005 -2.660156 -8.640625 -1.570760 -1.391893 -1.570827
    1 2.033348 1.000767 1.937660 2.844739 -0.455046 1.936532
    2 6.028145 0.000003 0.000002 -2.244243 -0.204559 -0.575849
    3 11.692553 0.000081 -0.000006 -0.054449 0.156279 -1.133951
    4 11.481672 -0.000089 -0.000022 0.763697 0.497364 0.875999
    5 3.281560 0.002116 -1.383388 0.032357 -0.083436 -0.720900
    6 1.324282 -0.000010 0.000004 0.000000 0.087988 -0.273254
    7 0.815305 0.000000 0.000002 -0.649205 -0.000003 -0.000015
    8 3.711854 0.109256 -0.568167 -0.071747 -0.154863 -0.834164
    9 1.609408 0.000006 -0.000007 -0.000002 0.108503 -0.519901
    10 0.993193 -0.000006 0.000002 -0.621521 -0.000414 -0.006522
    11 3.786031 0.203222 0.243938 -0.122965 -0.377627 -0.393894
    12 1.684422 -0.000010 0.000009 0.000002 0.183641 -0.433416
    13 1.252153 -0.000008 0.000004 -0.630069 0.011013 0.007546
    14 3.594223 0.299549 1.109803 -0.125269 -0.505468 -0.089991
    15 1.719437 -0.000004 -0.000005 -0.000004 0.280827 -0.231215
    16 1.005921 -0.000006 0.000003 -0.602115 0.000018 -0.000012
    17 0.298212 -0.634095 0.430606 -1.611441 -0.714861 -0.178770
    18 2.633559 0.000000 -0.000008 -0.000002 -0.072476 0.229855
    19 1.308566 -0.000001 -0.000002 -0.001544 -0.004843 0.324429
    20 2.033356 1.000772 -1.937610 -0.128177 0.172990 -2.038336
    21 6.028141 0.000000 -0.000002 -0.473046 1.131196 -2.139277
    22 11.692556 0.000000 -0.000002 0.041069 -0.055105 -1.283394
    23 11.481703 -0.000001 -0.000005 -0.652551 -0.115671 0.523042
    24 3.859676 -0.132545 1.193110 0.266247 -0.058069 -1.578804
    25 1.312559 -0.000004 -0.000001 0.000000 0.000000 -0.939669
    26 0.729365 -0.000002 -0.000001 0.000000 0.000000 -0.144267
    27 3.942299 0.050347 0.431044 0.150075 -0.079193 -1.210201
    28 1.539106 0.000000 0.000001 0.000003 -0.000003 -1.447698
    29 1.196321 -0.000004 -0.000002 -0.000003 0.000002 -0.430764
    30 3.883663 -0.050304 -0.431042 -0.005920 -0.006422 -1.287695
    31 1.719582 0.000002 0.000006 0.000002 -0.007972 -1.666396
    32 1.209183 0.000002 0.000006 0.000002 -0.004469 -0.216370
    33 3.445761 0.054213 -1.089087 0.068107 0.305767 -0.173825
    34 1.711616 0.000008 0.000011 0.000003 -0.215694 -0.565311
    35 1.099665 0.000000 0.000006 0.000004 -0.004212 -0.244311
    36 0.075534 -0.738749 -0.759723 1.233498 0.505355 -0.533665
    37 2.512460 -0.000008 -0.000004 -0.000002 -0.000001 0.359159
    38 1.273411 0.355478 -0.156262 0.030049 0.001987 1.007594
    39 -10.480913 -19.482451 -10.905499 1.418004 -0.091028 -3.327941
    40 0.000000 3.263673 -0.760246 0.000000 0.000000 0.000000
    41 0.000001 2.373053 -2.818354 0.000000 0.000000 0.000000
    42 0.000000 3.857430 -4.597647 0.000000 0.000000 0.000000
    43 0.000000 5.988286 -2.427719 0.000000 0.000000 0.000000
    44 -3.715750 27.385479 -10.540455 1.570743 0.000000 -4.712372
  time 15
    0 0.000005 -2.660156 -8.640625 -1.570760 -1.391893 -1.570827
    1 2.033348 1.000767 1.937660 2.861490 -0.429836 1.929315
    2 6.028145 0.000003 0.000002 -2.255787 -0.244748 -0.537103
    3 11.692553 0.000081 -0.000006 -0.061352 0.159287 -1.177909
    4 11.481672 -0.000089 -0.000022 0.653103 0.522867 0.840500
    5 3.281560 0.002116 -1.379481 0.031820 -0.085542 -0.715989
    6 1.324282 -0.000010 0.000004 0.000000 0.090013 -0.278839
    7 0.815305 0.000000 0.000002 -0.649205 -0.000003 -0.000015
    8 3.711854 0.109256 -0.568167 -0.072202 -0.156805 -0.830740
    9 1.609408 0.000006 -0.000007 -0.000002 0.110312 -0.524797
    10 0.993193 -0.000006 0.000002 -0.621521 -0.000414 -0.006522
    11 3.786031 0.203222 0.243938 -0.123385 -0.379548 -0.389137
    12 1.684422 -0.000010 0.000009 0.000002 0.185031 -0.437754
    13 1.252153 -0.000008 0.000004 -0.630069 0.011013 0.007546
    14 3.594223 0.299549 1.109803 -0.125707 -0.507094 -0.083671
    15 1.719437 -0.000004 -0.000005 -0.000004 0.282181 -0.236646
    16 1.005921 -0.000006 0.000003 -0.602115 0.000018 -0.000012
    17 0.298212 -0.634095 0.426700 -1.614290 -0.716042 -0.174283
    18 2.633559 0.000000 -0.000008 -0.000002 -0.070085 0.230828
    19 1.308566 -0.000001 -0.000002 -0.001544 -0.004843 0.324429
    20 2.033356 1.000772 -1.937610 -0.128177 0.172990 -2.038336
    21 6.028141 0.000000 -0.000002 -0.458553 1.139202 -2.127756
    22 11.692556 0.000000 -0.000002 0.044365 -0.055992 -1.342797
    23 11.481703 -0.000001 -0.000005 -0.633778 -0.069234 0.515264
    24 3.859676 -0.132545 1.193110 0.266247 -0.058069 -1.578804
    25 1.312559 -0.000004 -0.000001 0.000000 0.000000 -0.939669
    26 0.729365 -0.000002 -0.000001 0.000000 0.000000 -0.144267
    27 3.942299 0.050347 0.431044 0.150075 -0.079193 -1.210201
    28 1.539106 0.000000 0.000001 0.000003 -0.000003 -1.447698
    29 1.196321 -0.000004 -0.000002 -0.000003 0.000002 -0.430764
    30 3.883663 -0.050304 -0.431042 -0.005920 -0.006422 -1.287674
    31 1.719582 0.000002 0.000006 0.000002 -0.007972 -1.666396
    32 1.209183 0.000002 0.000006 0.000002 -0.004469 -0.216370
    33 3.445761 0.054213 -1.089087 0.068025 0.295581 -0.172767
    34 1.711616 0.000008 0.000011 0.000003 -0.208695 -0.572942
    35 1.099665 0.000000 0.000006 0.000004 -0.004212 -0.244311
    36 0.075534 -0.738749 -0.755817 1.234553 0.500610 -0.534372
    37 2.512460 -0.000008 -0.000004 -0.000002 -0.000001 0.359159
    38 1.273411 0.363290 -0.160169 0.032219 0.004408 1.010994
    39 -9.973085 -19.302758 -10.280480 1.492837 -0.082454 -3.313614
    40 0.000000 3.263673 -0.760246 0.000000 0.000000 0.000000
    41 0.000001 2.373053 -2.818354 0.000000 0.000000 0.000000
    42 0.000000 3.857430 -4.597647 0.000000 0.000000 0.000000
    43 0.000000 5.988286 -2.427719 0.000000 0.000000 0.000000
    44 -3.715750 27.385479 -10.540455 1.570743 0.000000 -4.712372
  time 16
    0 0.000005 -2.660156 -8.640625 -1.570760 -1.391893 -1.570827
    1 2.033348 1.000767 1.937660 2.877971 -0.404384 1.922649
    2 6.028145 0.000003 0.000002 -2.272876 -0.290602 -0.489619
    3 11.692553 0.000081 -0.000006 -0.065271 0.160833 -1.202450
    4 11.481672 -0.000089 -0.000022 0.539932 0.540026 0.786282
    5 3.281560 0.002116 -1.383388 0.031110 -0.087721 -0.709498
    6 1.324282 -0.000010 0.000004 0.000000 0.092230 -0.286244
    7 0.815305 0.000000 0.000002 -0.649205 -0.000003 -0.000015
    8 3.711854 0.109256 -0.568167 -0.072825 -0.158913 -0.826307
    9 1.609408 0.000006 -0.000007 -0.000002 0.112409 -0.531271
    10 0.993193 -0.000006 0.000002 -0.621521 -0.000414 -0.006522
    11 3.786031 0.203222 0.243938 -0.123876 -0.381656 -0.382850
    12 1.684422 -0.000010 0.000009 0.000002 0.186577 -0.443538
    13 1.252153 -0.000008 0.000004 -0.630069 0.011013 0.007546
    14 3.594223 0.299549 1.113710 -0.126218 -0.508719 -0.075447
    15 1.719437 -0.000004 -0.000005 -0.000004 0.283572 -0.243762
    16 1.005921 -0.000006 0.000003 -0.602115 0.000018 -0.000012
    17 0.298212 -0.634095 0.430606 -1.617953 -0.717302 -0.168475
    18 2.633559 0.000000 -0.000008 -0.000002 -0.066976 0.231955
    19 1.308566 -0.000001 -0.000002 -0.001544 -0.004831 0.324429
    20 2.033356 1.000772 -1.937610 -0.128177 0.172990 -2.038336
    21 6.028141 0.000000 -0.000002 -0.444997 1.146330 -2.117185
    22 11.692556 0.000000 -0.000002 0.047781 -0.056651 -1.403304
    23 11.481703 -0.000001 -0.000005 -0.614939 -0.030901 0.513518
    24 3.859676 -0.132545 1.193110 0.266247 -0.058069 -1.578804
    25 1.312559 -0.000004 -0.000001 0.000000 0.000000 -0.939669
    26 0.729365 -0.000002 -0.000001 0.000000 0.000000 -0.144267
    27 3.942299 0.050347 0.431044 0.150075 -0.079193 -1.210201
    28 1.539106 0.000000 0.000001 0.000003 -0.000003 -1.447735
    29 1.196321 -0.000004 -0.000002 -0.000003 0.000002 -0.430764
    30 3.883663 -0.050304 -0.431042 -0.005920 -0.006422 -1.287695
    31 1.719582 0.000002 0.000006 0.000002 -0.007972 -1.666396
    32 1.209183 0.000002 0.000006 0.000002 -0.004469 -0.216370
    33 3.445761 0.054213 -1.089087 0.068052 0.287982 -0.170651
    34 1.711616 0.000008 0.000011 0.000003 -0.203290 -0.580130
    35 1.099665 0.000000 0.000006 0.000004 -0.004212 -0.244311
    36 0.075534 -0.738749 -0.759723 1.235716 0.497210 -0.534169
    37 2.512460 -0.000008 -0.000004 -0.000002 -0.000001 0.359159
    38 1.265598 0.363290 -0.160169 0.033633 0.005978 1.013773
    39 -9.426193 -19.060563 -9.698431 1.558132 -0.071656 -3.295115
    40 0.000000 3.263673 -0.760246 0.000000 0.000000 0.000000
    41 0.000001 2.373053 -2.818354 0.000000 0.000000 0.000000
    42 0.000000 3.857430 -4.597647 0.000000 0.000000 0.000000
    43 0.000000 5.988286 -2.427719 0.000000 0.000000 0.000000
    44 -3.715750 27.385479 -10.540455 1.570743 0.000000 -4.712372
  time 17
    0 0.000005 -2.660156 -8.640625 -1.570760 -1.391893 -1.570827
    1 2.033348 1.000767 1.937660 2.894019 -0.378966 1.916534
    2 6.028145 0.000003 0.000002 -2.296925 -0.339704 -0.433318
    3 11.692553 0.000081 -0.000006 -0.066362 0.161253 -1.209207
    4 11.481672 -0.000089 -0.000022 0.424886 0.548660 0.712305
    5 3.281560 0.002116 -1.383388 0.030192 -0.090003 -0.700996
    6 1.324282 -0.000010 0.000004 0.000000 0.094723 -0.296047
    7 0.815305 0.000000 0.000002 -0.649205 -0.000003 -0.000015
    8 3.711854 0.109256 -0.568167 -0.073616 -0.161225 -0.820438
    9 1.609408 0.000006 -0.000007 -0.000002 0.114878 -0.539775
    10 0.993193 -0.000006 0.000002 -0.621521 -0.000414 -0.006522
    11 3.786031 0.203222 0.243938 -0.124523 -0.383996 -0.374733
    12 1.684422 -0.000010 0.000009 0.000002 0.188327 -0.451085
    13 1.252153 -0.000008 0.000004 -0.630028 0.011013 0.007546
    14 3.594223 0.299549 1.113710 -0.126820 -0.510381 -0.064828
    15 1.719437 -0.000004 -0.000005 -0.000004 0.285034 -0.253067
    16 1.005921 -0.000006 0.000003 -0.602115 0.000018 -0.000012
    17 0.298212 -0.634095 0.426700 -1.580034 -0.823396 -0.209062
    18 2.633559 0.000000 -0.000008 -0.000002 -0.053281 0.199387
    19 1.308566 -0.000001 -0.000002 0.000985 0.003307 0.284313
    20 2.033356 1.000772 -1.937610 -0.128177 0.172990 -2.038336
    21 6.028141 0.000000 -0.000002 -0.417309 1.149291 -2.083156
    22 11.692556 0.000000 -0.000002 0.050309 -0.057035 -1.447733
    23 11.481703 -0.000001 -0.000005 -0.607271 -0.012376 0.524973
    24 3.859676 -0.132545 1.193110 0.266247 -0.058069 -1.578804
    25 1.312559 -0.000004 -0.000001 0.000000 0.000000 -0.939669
    26 0.729365 -0.000002 -0.000001 0.000000 0.000000 -0.144267
    27 3.942299 0.050347 0.431044 0.150075 -0.079193 -1.210201
    28 1.539106 0.000000 0.000001 0.000003 -0.000003 -1.447698
    29 1.196321 -0.000004 -0.000002 -0.000003 0.000002 -0.430764
    30 3.883663 -0.050304 -0.431042 -0.005920 -0.006422 -1.287674
    31 1.719582 0.000002 0.000006 0.000002 -0.007972 -1.666396
    32 1.209183 0.000002 0.000006 0.000002 -0.004469 -0.216370
    33 3.445761 0.054213 -1.089087 0.068120 0.285406 -0.168924
    34 1.711616 0.000008 0.000011 0.000003 -0.201337 -0.583568
    35 1.099665 0.000000 0.000006 0.000004 -0.004212 -0.244311
    36 0.075534 -0.738749 -0.759723 1.236447 0.496148 -0.533474
    37 2.512460 -0.000008 -0.000004 -0.000002 -0.000001 0.359159
    38 1.265598 0.367197 -0.160169 0.033908 0.006302 1.014644
    39 -9.094152 -18.822275 -9.596865 1.578745 -0.065628 -3.286839
    40 0.000000 3.263673 -0.760246 0.000000 0.000000 0.000000
    41 0.000001 2.373053 -2.818354 0.000000 0.000000 0.000000
    42 0.000000 3.857430 -4.597647 0.000000 0.000000 0.000000
    43 0.000000 5.988286 -2.427719 0.000000 0.000000 0.000000
    44 -3.715750 27.385479 -10.540455 1.570743 0.000000 -4.712372
  time 18
    0 0.000005 -2.660156 -8.640625 -1.570760 -1.391893 -1.570827
    1 2.033348 1.000767 1.937660 2.909527 -0.353791 1.910969
    2 6.028145 0.000003 0.000002 -2.328218 -0.388140 -0.369902
    3 11.692553 0.000081 -0.000006 -0.064828 0.160666 -1.199654
    4 11.481672 -0.000089 -0.000022 0.309606 0.547757 0.615828
    5 3.281560 0.002116 -1.383388 0.028997 -0.092447 -0.690052
    6 1.324282 -0.000010 0.000004 0.000000 0.097587 -0.308885
    7 0.815305 0.000000 0.000002 -0.649205 -0.000003 -0.000015
    8 3.711854 0.109256 -0.568167 -0.074647 -0.163819 -0.812978
    9 1.609408 0.000006 -0.000007 -0.000002 0.117850 -0.550919
    10 0.993193 -0.000006 0.000002 -0.621521 -0.000414 -0.006522
    11 3.786031 0.203222 0.243938 -0.125314 -0.386692 -0.364288
    12 1.684422 -0.000010 0.000009 0.000002 0.190376 -0.460959
    13 1.252153 -0.000008 0.000004 -0.630028 0.011013 0.007546
    14 3.594223 0.299549 1.113710 -0.127605 -0.512169 -0.051179
    15 1.719437 -0.000004 -0.000005 -0.000004 0.286604 -0.265067
    16 1.005921 -0.000006 0.000003 -0.602115 0.000018 -0.000012
    17 0.298212 -0.634095 0.426700 -1.540419 -0.913427 -0.246876
    18 2.633559 0.000000 -0.000008 -0.000002 -0.040151 0.167689
    19 1.308566 -0.000001 -0.000002 0.003885 0.014321 0.231085
    20 2.033356 1.000772 -1.937610 -0.128177 0.172990 -2.038336
    21 6.028141 0.000000 -0.000002 -0.406709 1.153385 -2.073892
    22 11.692556 0.000000 -0.000002 0.052946 -0.057286 -1.494065
    23 11.481703 -0.000001 -0.000005 -0.594910 -0.003462 0.538069
    24 3.859676 -0.132545 1.193110 0.266247 -0.058069 -1.578804
    25 1.312559 -0.000004 -0.000001 0.000000 0.000000 -0.939669
    26 0.729365 -0.000002 -0.000001 0.000000 0.000000 -0.144267
    27 3.942299 0.050347 0.431044 0.150075 -0.079193 -1.210201
    28 1.539106 0.000000 0.000001 0.000003 -0.000003 -1.447698
    29 1.196321 -0.000004 -0.000002 -0.000003 0.000002 -0.430764
    30 3.883663 -0.050304 -0.431042 -0.005920 -0.006422 -1.287674
    31 1.719582 0.000002 0.000006 0.000002 -0.007972 -1.666396
    32 1.209183 0.000002 0.000006 0.000002 -0.004469 -0.216370
    33 3.445761 0.054213 -1.089087 0.068312 0.285885 -0.166474
    34 1.711616 0.000008 0.000011 0.000003 -0.201385 -0.585365
    35 1.099665 0.000000 0.000006 0.000004 -0.004212 -0.244311
    36 0.075534 -0.734842 -0.759723 1.237262 0.496544 -0.531808
    37 2.512460 -0.000008 -0.000004 -0.000002 -0.000001 0.359159
    38 1.265598 0.367197 -0.160169 0.033273 0.005583 1.014250
    39 -8.656638 -18.587893 -9.284356 1.602558 -0.057215 -3.269453
    40 0.000000 3.263673 -0.760246 0.000000 0.000000 0.000000
    41 0.000001 2.373053 -2.818354 0.000000 0.000000 0.000000
    42 0.000000 3.857430 -4.597647 0.000000 0.000000 0.000000
    43 0.000000 5.988286 -2.427719 0.000000 0.000000 0.000000
    44 -3.715750 27.385479 -10.540455 1.570743 0.000000 -4.712372
  time 19
    0 0.000005 -2.660156 -8.640625 -1.570760 -1.391893 -1.570827
    1 2.033348 1.000767 1.937660 2.924441 -0.329032 1.906011
    2 6.028145 0.000003 0.000002 -2.366131 -0.432286 -0.301227
    3 11.692553 0.000081 -0.000006 -0.061424 0.159311 -1.178297
    4 11.481672 -0.000089 -0.000022 0.200340 0.532476 0.506257
    5 3.281560 0.002116 -1.383388 0.027733 -0.094185 -0.678621
    6 1.324282 -0.000010 0.000004 0.000000 0.099972 -0.322573
    7 0.815305 0.000000 0.000002 -0.649205 -0.000003 -0.000015
    8 3.711854 0.109256 -0.572073 -0.075714 -0.165914 -0.805274
    9 1.609408 0.000006 -0.000007 -0.000002 0.120607 -0.562773
    10 0.993193 -0.000006 0.000002 -0.621521 -0.000414 -0.006522
    11 3.786031 0.203222 0.243938 -0.126117 -0.388939 -0.353444
    12 1.684422 -0.000010 0.000009 0.000002 0.192138 -0.471434
    13 1.252153 -0.000008 0.000004 -0.630069 0.011013 0.007546
    14 3.594223 0.299549 1.109803 -0.128298 -0.513397 -0.037068
    15 1.719437 -0.000004 -0.000005 -0.000004 0.287766 -0.277783
    16 1.005921 -0.000006 0.000003 -0.602115 0.000018 -0.000012
    17 0.298212 -0.634095 0.426700 -1.509147 -0.970726 -0.275518
    18 2.633559 0.000000 -0.000008 -0.000002 -0.029674 0.145337
    19 1.308566 -0.000001 -0.000002 0.005850 0.023693 0.186271
    20 2.033356 1.000772 -1.937610 -0.128177 0.172990 -2.038336
    21 6.028141 0.000000 -0.000002 -0.403825 1.155651 -2.072942
    22 11.692556 0.000000 -0.000002 0.054899 -0.057406 -1.528061
    23 11.481703 -0.000001 -0.000005 -0.585457 -0.010980 0.556271
    24 3.859676 -0.132545 1.193110 0.266247 -0.058069 -1.578804
    25 1.312559 -0.000004 -0.000001 0.000000 0.000000 -0.939669
    26 0.729365 -0.000002 -0.000001 0.000000 0.000000 -0.144267
    27 3.942299 0.050347 0.431044 0.150075 -0.079193 -1.210201
    28 1.539106 0.000000 0.000001 0.000003 -0.000003 -1.447735
    29 1.196321 -0.000004 -0.000002 -0.000003 0.000002 -0.430764
    30 3.883663 -0.050304 -0.431042 -0.005920 -0.006422 -1.287674
    31 1.719582 0.000002 0.000006 0.000002 -0.007972 -1.666436
    32 1.209183 0.000002 0.000006 0.000002 -0.004469 -0.216370
    33 3.449668 0.054213 -1.089087 0.068531 0.290235 -0.164219
    34 1.711616 0.000008 0.000011 0.000003 -0.204069 -0.584245
    35 1.099665 0.000000 0.000006 0.000004 -0.004212 -0.244311
    36 0.075534 -0.738749 -0.759723 1.237813 0.498726 -0.529686
    37 2.508554 -0.000008 -0.000004 -0.000002 -0.000001 0.359159
    38 1.265598 0.363290 -0.160169 0.031727 0.003857 1.012321
    39 -8.297252 -18.404293 -9.085131 1.605311 -0.050220 -3.253527
    40 0.000000 3.263673 -0.760246 0.000000 0.000000 0.000000
    41 0.000001 2.373053 -2.818354 0.000000 0.000000 0.000000
    42 0.000000 3.857430 -4.597647 0.000000 0.000000 0.000000
    43 0.000000 5.988286 -2.427719 0.000000 0.000000 0.000000
    44 -3.715750 27.385479 -10.540455 1.570743 0.000000 -4.712372
  time 20
    0 0.000005 -2.660156 -8.640625 -1.570760 -1.391893 -1.570827
    1 2.033348 1.000767 1.937660 2.938652 -0.305036 1.901548
    2 6.028145 0.000003 0.000002 -2.409816 -0.469560 -0.229304
    3 11.692553 0.000081 -0.000006 -0.056558 0.157250 -1.147465
    4 11.481672 -0.000089 -0.000022 0.087013 0.505600 0.358824
    5 3.281560 0.002116 -1.383388 0.042331 -0.155244 -0.813934
    6 1.324282 -0.000010 0.000004 0.000000 0.026327 -0.552897
    7 0.815305 0.000000 0.000002 -0.854037 -0.000003 -0.000015
    8 3.711854 0.109256 -0.568167 -0.065059 -0.206079 -0.883109
    9 1.609408 0.000006 -0.000007 -0.000002 0.097788 -0.681627
    10 0.993193 -0.000006 0.000002 -0.576739 -0.000151 -0.006138
    11 3.786031 0.203222 0.247844 -0.122618 -0.395324 -0.409596
    12 1.684422 -0.000010 0.000009 0.000002 0.177421 -0.664342
    13 1.252153 -0.000008 0.000004 -0.575649 0.010641 0.006985
    14 3.594223 0.299549 1.113710 -0.129429 -0.514716 -0.013521
    15 1.719437 -0.000004 -0.000005 -0.000004 0.273073 -0.437615
    16 1.005921 -0.000006 0.000003 -0.771709 0.000018 -0.000012
    17 0.298212 -0.634095 0.426700 -1.510097 -0.987341 -0.271558
    18 2.633559 0.000000 -0.000008 -0.000002 -0.019304 0.134507
    19 1.308566 -0.000001 -0.000002 0.007229 0.031758 0.148064
    20 2.033356 1.000772 -1.937610 -0.128177 0.172990 -2.038336
    21 6.028141 0.000000 -0.000002 -0.403897 1.156017 -2.073833
    22 11.692556 0.000000 -0.000002 0.056206 -0.057454 -1.550828
    23 11.481703 -0.000001 -0.000005 -0.578318 -0.028987 0.575715
    24 3.859676 -0.132545 1.193110 0.266247 -0.058069 -1.578804
    25 1.312559 -0.000004 -0.000001 0.000000 0.000000 -0.939669
    26 0.729365 -0.000002 -0.000001 0.000000 0.000000 -0.144267
    27 3.942299 0.050347 0.431044 0.150075 -0.079193 -1.210201
    28 1.539106 0.000000 0.000001 0.000003 -0.000003 -1.447698
    29 1.196321 -0.000004 -0.000002 -0.000003 0.000002 -0.430764
    30 3.883663 -0.050304 -0.431042 -0.005920 -0.006422 -1.287674
    31 1.719582 0.000002 0.000006 0.000002 -0.007972 -1.666436
    32 1.209183 0.000002 0.000006 0.000002 -0.004469 -0.216370
    33 3.449668 0.054213 -1.089087 0.068791 0.296803 -0.162048
    34 1.711616 0.000008 0.000011 0.000003 -0.208240 -0.581588
    35 1.099665 0.000000 0.000006 0.000004 -0.004212 -0.244311
    36 0.075534 -0.738749 -0.759723 1.238184 0.501956 -0.527313
    37 2.508554 -0.000008 -0.000004 -0.000002 -0.000001 0.359159
    38 1.273411 0.363290 -0.156262 0.029702 0.001616 1.009729
    39 -8.031619 -18.279289 -9.014816 1.592060 -0.043935 -3.239897
    40 0.000000 3.263673 -0.760246 0.000000 0.000000 0.000000
    41 0.000001 2.373053 -2.818354 0.000000 0.000000 0.000000
    42 0.000000 3.857430 -4.597647 0.000000 0.000000 0.000000
    43 0.000000 5.988286 -2.427719 0.000000 0.000000 0.000000
    44 -3.715750 27.385479 -10.540455 1.570743 0.000000 -4.712372
  time 21
    0 0.000005 -2.660156 -8.640625 -1.570760 -1.391893 -1.570827
    1 2.033348 1.000767 1.937660 2.952053 -0.281873 1.897692
    2 6.028145 0.000003 0.000002 -2.456952 -0.494757 -0.159005
    3 11.692553 0.000081 -0.000006 -0.051752 0.155021 -1.116555
    4 11.481672 -0.000089 -0.000022 -0.011084 0.461457 0.210823
    5 3.281560 0.002116 -1.379481 0.056445 -0.213049 -0.949419
    6 1.324282 -0.000010 0.000004 0.000000 -0.047965 -0.769231
    7 0.815305 0.000000 0.000002 -1.056332 -0.000003 -0.000015
    8 3.711854 0.109256 -0.568167 -0.053794 -0.245555 -0.962748
    9 1.609408 0.000006 -0.000007 -0.000002 0.072740 -0.797036
    10 0.993193 -0.000006 0.000002 -0.532444 0.000077 -0.005728
    11 3.786031 0.203222 0.247844 -0.118591 -0.401337 -0.467245
    12 1.684422 -0.000010 0.000009 0.000002 0.153991 -0.860178
    13 1.252153 -0.000008 0.000004 -0.521875 0.010306 0.006425
    14 3.594223 0.299549 1.113710 -0.130360 -0.515565 0.008727
    15 1.719437 -0.000004 -0.000005 -0.000004 0.248984 -0.595383
    16 1.005921 -0.000006 0.000003 -0.939266 0.000018 -0.000012
    17 0.298212 -0.634095 0.430606 -1.534110 -0.967629 -0.245952
    18 2.633559 0.000000 -0.000008 -0.000002 -0.012587 0.132202
    19 1.308566 -0.000001 -0.000002 0.008163 0.038901 0.114404
    20 2.033356 1.000772 -1.937610 -0.128177 0.172990 -2.038336
    21 6.028141 0.000000 -0.000002 -0.403897 1.154847 -2.072645
    22 11.692556 0.000000 -0.000002 0.057117 -0.057454 -1.566722
    23 11.481703 -0.000001 -0.000005 -0.572303 -0.050844 0.594129
    24 3.859676 -0.132545 1.193110 0.266247 -0.058069 -1.578804
    25 1.312559 -0.000004 -0.000001 0.000000 0.000000 -0.939669
    26 0.729365 -0.000002 -0.000001 0.000000 0.000000 -0.144267
    27 3.942299 0.050347 0.431044 0.150075 -0.079193 -1.210201
    28 1.539106 0.000000 0.000001 0.000003 -0.000003 -1.447698
    29 1.196321 -0.000004 -0.000002 -0.000003 0.000002 -0.430764
    30 3.883663 -0.050304 -0.431042 -0.005920 -0.006422 -1.287674
    31 1.719582 0.000002 0.000006 0.000002 -0.007972 -1.666436
    32 1.209183 0.000002 0.000006 0.000002 -0.004469 -0.216370
    33 3.449668 0.054213 -1.085181 0.069065 0.303826 -0.159820
    34 1.711616 0.000008 0.000011 0.000003 -0.212698 -0.578906
    35 1.099665 0.000000 0.000006 0.000004 -0.004212 -0.244311
    36 0.075534 -0.738749 -0.755817 1.238496 0.505483 -0.524905
    37 2.512460 -0.000008 -0.000004 -0.000002 -0.000001 0.359159
    38 1.273411 0.355478 -0.152356 0.027616 -0.000697 1.007262
    39 -7.816769 -18.193349 -9.046067 1.570615 -0.037069 -3.228004
    40 0.000000 3.263673 -0.760246 0.000000 0.000000 0.000000
    41 0.000001 2.373053 -2.818354 0.000000 0.000000 0.000000
    42 0.000000 3.857430 -4.597647 0.000000 0.000000 0.000000
    43 0.000000 5.988286 -2.427719 0.000000 0.000000 0.000000
    44 -3.715750 27.385479 -10.540455 1.570743 0.000000 -4.712372
  time 22
    0 0.000005 -2.660156 -8.640625 -1.570760 -1.391893 -1.570827
    1 2.033348 1.000767 1.937660 2.964643 -0.259922 1.894331
    2 6.028145 0.000003 0.000002 -2.503862 -0.504794 -0.096208
    3 11.692553 0.000081 -0.000006 -0.048121 0.153199 -1.092868
    4 11.481672 -0.000089 -0.000022 -0.084970 0.404923 0.085512
    5 3.281560 0.002116 -1.383388 0.066870 -0.253494 -1.053539
    6 1.324282 -0.000010 0.000004 0.000000 -0.101009 -0.926594
    7 0.815305 0.000000 0.000002 -1.208215 -0.000003 -0.000015
    8 3.711854 0.109256 -0.568167 -0.044770 -0.274249 -1.024930
    9 1.609408 0.000006 -0.000007 -0.000002 0.052714 -0.880717
    10 0.993193 -0.000006 0.000002 -0.499240 0.000269 -0.005427
    11 3.786031 0.203222 0.243938 -0.115080 -0.404901 -0.513284
    12 1.684422 -0.000010 0.000009 0.000002 0.130106 -1.009568
    13 1.252153 -0.000008 0.000004 -0.481584 0.010066 0.005976
    14 3.594223 0.299549 1.109803 -0.130908 -0.515438 0.022636
    15 1.719437 -0.000004 -0.000005 -0.000004 0.224979 -0.711383
    16 1.005921 -0.000006 0.000003 -1.065051 0.000018 -0.000012
    17 0.298212 -0.634095 0.426700 -1.561787 -0.929412 -0.217575
    18 2.633559 0.000000 -0.000008 -0.000002 -0.010479 0.132766
    19 1.308566 -0.000001 -0.000002 0.008823 0.045493 0.083457
    20 2.033356 1.000772 -1.937610 -0.128177 0.172990 -2.038336
    21 6.028141 0.000000 -0.000002 -0.404114 1.152325 -2.070151
    22 11.692556 0.000000 -0.000002 0.057644 -0.057466 -1.575866
    23 11.481703 -0.000001 -0.000005 -0.565759 -0.070967 0.606854
    24 3.859676 -0.132545 1.193110 0.266247 -0.058069 -1.578804
    25 1.312559 -0.000004 -0.000001 0.000000 0.000000 -0.939669
    26 0.729365 -0.000002 -0.000001 0.000000 0.000000 -0.144267
    27 3.942299 0.050347 0.431044 0.150075 -0.079193 -1.210201
    28 1.539106 0.000000 0.000001 0.000003 -0.000003 -1.447771
    29 1.196321 -0.000004 -0.000002 -0.000003 0.000002 -0.430764
    30 3.883663 -0.050304 -0.431042 -0.005920 -0.006422 -1.287653
    31 1.719582 0.000002 0.000006 0.000002 -0.007972 -1.666396
    32 1.209183 0.000002 0.000006 0.000002 -0.004469 -0.216370
    33 3.449668 0.054213 -1.085181 0.069325 0.309531 -0.157398
    34 1.711616 0.000008 0.000011 0.000003 -0.216209 -0.577473
    35 1.099665 0.000000 0.000006 0.000004 -0.004212 -0.244311
    36 0.075534 -0.738749 -0.755817 1.238939 0.508429 -0.522627
    37 2.512460 -0.000008 -0.000004 -0.000002 -0.000001 0.359147
    38 1.273411 0.355478 -0.144543 0.025831 -0.002687 1.005354
    39 -7.656608 -18.146473 -9.132007 1.548722 -0.028817 -3.217225
    40 0.000000 3.263673 -0.760246 0.000000 0.000000 0.000000
    41 0.000001 2.373053 -2.818354 0.000000 0.000000 0.000000
    42 0.000000 3.857430 -4.597647 0.000000 0.000000 0.000000
    43 0.000000 5.988286 -2.427719 0.000000 0.000000 0.000000
    44 -3.715750 27.385479 -10.540455 1.570743 0.000000 -4.712372
  time 23
    0 0.000005 -2.660156 -8.640625 -1.570760 -1.391893 -1.570827
    1 2.033348 1.000767 1.937660 2.976315 -0.239255 1.891411
    2 6.028145 0.000003 0.000002 -2.547547 -0.496548 -0.047022
    3 11.692553 0.000081 -0.000006 -0.046743 0.152504 -1.083859
    4 11.481672 -0.000089 -0.000022 -0.133081 0.345680 0.002081
    5 3.281560 0.002116 -1.383388 0.074420 -0.278112 -1.132641
    6 1.324282 -0.000010 0.000004 0.000000 -0.136208 -1.028570
    7 0.815305 0.000000 0.000002 -1.319429 -0.000003 -0.000015
    8 3.711854 0.109256 -0.568167 -0.037519 -0.291981 -1.073661
    9 1.609408 0.000006 -0.000007 -0.000002 0.036931 -0.930997
    10 0.993193 -0.000006 0.000002 -0.474902 0.000376 -0.005207
    11 3.786031 0.203222 0.243938 -0.111568 -0.404452 -0.554533
    12 1.684422 -0.000010 0.000009 0.000002 0.109888 -1.109125
    13 1.252153 -0.000008 0.000004 -0.452033 0.009910 0.005677
    14 3.594223 0.299549 1.109803 -0.130725 -0.513813 0.021135
    15 1.719437 -0.000004 -0.000005 -0.000004 0.206007 -0.784310
    16 1.005921 -0.000006 0.000003 -1.157102 0.000018 -0.000012
    17 0.298212 -0.634095 0.426700 -1.571962 -0.900985 -0.208732
    18 2.633559 0.000000 -0.000008 -0.000002 -0.012870 0.128413
    19 1.308566 -0.000001 -0.000002 0.009266 0.051916 0.053238
    20 2.033356 1.000772 -1.937610 -0.128177 0.172990 -2.038336
    21 6.028141 0.000000 -0.000002 -0.405916 1.148815 -2.068547
    22 11.692556 0.000000 -0.000002 0.057824 -0.057478 -1.579057
    23 11.481703 -0.000001 -0.000005 -0.556769 -0.083978 0.611034
    24 3.859676 -0.132545 1.193110 0.266247 -0.058069 -1.578804
    25 1.312559 -0.000004 -0.000001 0.000000 0.000000 -0.939669
    26 0.729365 -0.000002 -0.000001 0.000000 0.000000 -0.144267
    27 3.942299 0.050347 0.431044 0.150075 -0.079193 -1.210201
    28 1.539106 0.000000 0.000001 0.000003 -0.000003 -1.447698
    29 1.196321 -0.000004 -0.000002 -0.000003 0.000002 -0.430764
    30 3.883663 -0.050304 -0.431042 -0.005920 -0.006422 -1.287674
    31 1.719582 0.000002 0.000006 0.000002 -0.007972 -1.666396
    32 1.209183 0.000002 0.000006 0.000002 -0.004469 -0.216370
    33 3.453574 0.054213 -1.089087 0.069366 0.312311 -0.155199
    34 1.711616 0.000008 0.000011 0.000003 -0.217528 -0.578489
    35 1.099665 0.000000 0.000006 0.000004 -0.004212 -0.244311
    36 0.079440 -0.734842 -0.759723 1.239419 0.510087 -0.521237
    37 2.512460 -0.000008 -0.000004 -0.000002 -0.000001 0.359159
    38 1.273411 0.351571 -0.144543 0.024704 -0.003945 1.004504
    39 -7.531604 -18.130847 -9.214041 1.534447 -0.018341 -3.206932
    40 0.000000 3.263673 -0.760246 0.000000 0.000000 0.000000
    41 0.000001 2.373053 -2.818354 0.000000 0.000000 0.000000
    42 0.000000 3.857430 -4.597647 0.000000 0.000000 0.000000
    43 0.000000 5.988286 -2.427719 0.000000 0.000000 0.000000
    44 -3.715750 27.385479 -10.540455 1.570743 0.000000 -4.712372
  time 24
    0 0.000005 -2.660156 -8.640625 -1.570760 -1.391893 -1.570827
    1 2.033348 1.000767 1.937660 2.986960 -0.220218 1.888987
    2 6.028145 0.000003 0.000002 -2.569955 -0.469227 -0.034107
    3 11.692553 0.000081 -0.000006 -0.050027 0.154170 -1.105294
    4 11.481672 -0.000089 -0.000022 -0.136908 0.364753 0.071473
    5 3.281560 0.002116 -1.383388 0.075615 -0.274593 -1.146687
    6 1.324282 -0.000010 0.000004 0.004554 -0.136819 -1.051605
    7 0.815305 0.000000 0.000002 -1.161305 0.004659 -0.023924
    8 3.711854 0.109256 -0.568167 -0.035769 -0.288659 -1.084911
    9 1.609408 0.000006 -0.000007 -0.000973 0.033898 -0.957023
    10 0.993193 -0.000006 0.000002 -0.472294 0.008418 0.010509
    11 3.786031 0.203222 0.243938 -0.109902 -0.400066 -0.571798
    12 1.684422 -0.000010 0.000009 -0.008171 0.106820 -1.170489
    13 1.252153 -0.000008 0.000004 -0.449167 0.015375 0.016962
    14 3.594223 0.299549 1.109803 -0.145141 -0.506444 0.033630
    15 1.719437 -0.000004 -0.000005 -0.014937 0.203131 -0.840984
    16 1.005921 -0.000006 0.000003 -1.014344 0.001133 -0.055303
    17 0.298212 -0.634095 0.426700 -1.484863 -0.945476 -0.261527
    18 2.633559 0.000000 -0.000008 -0.003993 -0.020109 0.181259
    19 1.308566 -0.000001 -0.000002 0.008511 0.052564 0.035554
    20 2.033356 1.000772 -1.937610 -0.128177 0.172990 -2.038336
    21 6.028141 0.000000 -0.000002 -0.423005 1.142711 -2.084760
    22 11.692556 0.000000 -0.000002 0.056877 -0.057454 -1.562488
    23 11.481703 -0.000001 -0.000005 -0.553662 -0.083370 0.592753
    24 3.859676 -0.132545 1.193110 0.266247 -0.058069 -1.578804
    25 1.312559 -0.000004 -0.000001 0.000000 0.000000 -0.939669
    26 0.729365 -0.000002 -0.000001 0.000000 0.000000 -0.144267
    27 3.942299 0.050347 0.431044 0.150075 -0.079193 -1.210201
    28 1.539106 0.000000 0.000001 0.000003 -0.000003 -1.447735
    29 1.196321 -0.000004 -0.000002 -0.000003 0.000002 -0.430764
    30 3.883663 -0.050304 -0.431042 -0.005920 -0.006422 -1.287674
    31 1.719582 0.000002 0.000006 0.000002 -0.007972 -1.666436
    32 1.209183 0.000002 0.000006 0.000002 -0.004469 -0.216370
    33 3.449668 0.054213 -1.089087 0.069653 0.309387 -0.152610
    34 1.711616 0.000008 0.000011 0.006067 -0.214843 -0.612790
    35 1.099665 0.000000 0.000006 0.000004 -0.004212 -0.244311
    36 0.075534 -0.738749 -0.759723 1.240569 0.508784 -0.519607
    37 2.512460 -0.000008 -0.000004 -0.000002 -0.000001 0.359159
    38 1.273411 0.355478 -0.144543 0.024908 -0.003717 1.005292
    39 -7.500353 -18.259758 -9.245292 1.537775 -0.015053 -3.197683
    40 0.000000 3.263673 -0.760246 0.000000 0.000000 0.000000
    41 0.000001 2.373053 -2.818354 0.000000 0.000000 0.000000
    42 0.000000 3.857430 -4.597647 0.000000 0.000000 0.000000
    43 0.000000 5.988286 -2.427719 0.000000 0.000000 0.000000
    44 -3.715750 27.385479 -10.540455 1.570743 0.000000 -4.712372
  time 25
    0 0.000005 -2.660156 -8.640625 -1.570760 -1.391893 -1.570827
    1 2.033348 1.000767 1.937660 2.996470 -0.203019 1.887004
    2 6.028145 0.000003 0.000002 -2.590892 -0.443031 -0.022506
    3 11.692553 0.000081 -0.000006 -0.053490 0.155848 -1.127738
    4 11.481672 -0.000089 -0.000022 -0.137533 0.392207 0.157739
    5 3.281560 0.002116 -1.379481 0.076533 -0.269160 -1.158348
    6 1.324282 -0.000010 0.000004 0.010055 -0.135357 -1.072911
    7 0.815305 0.000000 0.000002 -0.965332 0.010280 -0.052529
    8 3.711854 0.109256 -0.568167 -0.034223 -0.283843 -1.095122
    9 1.609408 0.000006 -0.000007 -0.002147 0.031274 -0.985078
    10 0.993193 -0.000006 0.000002 -0.470764 0.018042 0.029265
    11 3.786031 0.203222 0.243938 -0.108296 -0.395014 -0.589495
    12 1.684422 -0.000010 0.000009 -0.017951 0.104399 -1.237708
    13 1.252153 -0.000008 0.000004 -0.447552 0.021931 0.030489
    14 3.594223 0.299549 1.113710 -0.162714 -0.497756 0.049069
    15 1.719437 -0.000004 -0.000005 -0.032830 0.200878 -0.904268
    16 1.005921 -0.000006 0.000003 -0.837817 0.002475 -0.121454
    17 0.298212 -0.630189 0.426700 -1.368459 -0.998050 -0.334648
    18 2.633559 0.000000 -0.000008 -0.008799 -0.028630 0.244706
    19 1.308566 -0.000001 -0.000002 0.007576 0.052947 0.016287
    20 2.033356 1.000772 -1.937610 -0.128177 0.172990 -2.038336
    21 6.028141 0.000000 -0.000002 -0.442185 1.135473 -2.102992
    22 11.692556 0.000000 -0.000002 0.055762 -0.057430 -1.543035
    23 11.481703 -0.000001 -0.000005 -0.550423 -0.081592 0.572461
    24 3.859676 -0.132545 1.193110 0.266247 -0.058069 -1.578804
    25 1.312559 -0.000004 -0.000001 0.000000 0.000000 -0.939669
    26 0.729365 -0.000002 -0.000001 0.000000 0.000000 -0.144267
    27 3.942299 0.050347 0.431044 0.150075 -0.079193 -1.210201
    28 1.539106 0.000000 0.000001 0.000003 -0.000003 -1.447698
    29 1.196321 -0.000004 -0.000002 -0.000003 0.000002 -0.430764
    30 3.883663 -0.050304 -0.431042 -0.005920 -0.006422 -1.287674
    31 1.719582 0.000002 0.000006 0.000002 -0.007972 -1.666436
    32 1.209183 0.000002 0.000006 0.000002 -0.004469 -0.216370
    33 3.453574 0.054213 -1.089087 0.069585 0.306367 -0.151023
    34 1.711616 0.000008 0.000011 0.013366 -0.211535 -0.653784
    35 1.099665 0.000000 0.000006 0.000004 -0.004212 -0.244311
    36 0.079440 -0.734842 -0.755817 1.241240 0.507579 -0.519332
    37 2.512460 -0.000008 -0.000004 -0.000002 -0.000001 0.359159
    38 1.273411 0.355478 -0.144543 0.025220 -0.003370 1.006329
    39 -7.473009 -18.404293 -9.276543 1.542705 -0.011830 -3.187251
    40 0.000000 3.263673 -0.760246 0.000000 0.000000 0.000000
    41 0.000001 2.373053 -2.818354 0.000000 0.000000 0.000000
    42 0.000000 3.857430 -4.597647 0.000000 0.000000 0.000000
    43 0.000000 5.988286 -2.427719 0.000000 0.000000 0.000000
    44 -3.715750 27.385479 -10.540455 1.570743 0.000000 -4.712372
  time 26
    0 0.000005 -2.660156 -8.640625 -1.570760 -1.391893 -1.570827
    1 2.033348 1.000767 1.937660 3.004845 -0.187830 1.885406
    2 6.028145 0.000003 0.000002 -2.610188 -0.418751 -0.012221
    3 11.692553 0.000081 -0.000006 -0.056978 0.157430 -1.150105
    4 11.481672 -0.000089 -0.000022 -0.134799 0.424791 0.253838
    5 3.281560 0.002116 -1.383388 0.077260 -0.262005 -1.168143
    6 1.324282 -0.000010 0.000004 0.015987 -0.132445 -1.092001
    7 0.815305 0.000000 0.000002 -0.749547 0.016320 -0.083395
    8 3.711854 0.109256 -0.572073 -0.032797 -0.277647 -1.104477
    9 1.609408 0.000006 -0.000007 -0.003442 0.029033 -1.013455
    10 0.993193 -0.000006 0.000002 -0.469999 0.028396 0.049499
    11 3.786031 0.207129 0.243938 -0.106511 -0.389296 -0.607325
    12 1.684422 -0.000010 0.000009 -0.028509 0.102553 -1.306513
    13 1.252153 -0.000008 0.000004 -0.446987 0.029002 0.045137
    14 3.594223 0.303455 1.109803 -0.181272 -0.488364 0.065372
    15 1.719437 -0.000004 -0.000005 -0.052125 0.199140 -0.969784
    16 1.005921 -0.000006 0.000003 -0.643817 0.003901 -0.192901
    17 0.298212 -0.630189 0.426700 -1.223837 -1.051386 -0.430142
    18 2.633559 0.000000 -0.000008 -0.013988 -0.037738 0.313452
    19 1.308566 -0.000001 -0.000002 0.006569 0.053103 -0.003382
    20 2.033356 1.000772 -1.937610 -0.128177 0.172990 -2.038336
    21 6.028141 0.000000 -0.000002 -0.462735 1.127614 -2.122886
    22 11.692556 0.000000 -0.000002 0.054480 -0.057382 -1.520697
    23 11.481703 -0.000001 -0.000005 -0.547250 -0.079521 0.548360
    24 3.859676 -0.132545 1.193110 0.266247 -0.058069 -1.578804
    25 1.312559 -0.000004 -0.000001 0.000000 0.000000 -0.939669
    26 0.729365 -0.000002 -0.000001 0.000000 0.000000 -0.144267
    27 3.942299 0.050347 0.431044 0.150075 -0.079193 -1.210201
    28 1.539106 0.000000 0.000001 0.000003 -0.000003 -1.447735
    29 1.196321 -0.000004 -0.000002 -0.000003 0.000002 -0.430764
    30 3.883663 -0.050304 -0.431042 -0.005920 -0.006422 -1.287674
    31 1.719582 0.000002 0.000006 0.000002 -0.007972 -1.666396
    32 1.209183 0.000002 0.000006 0.000002 -0.004469 -0.216370
    33 3.449668 0.054213 -1.089087 0.069831 0.302436 -0.148266
    34 1.711616 0.000008 0.000011 0.021240 -0.207928 -0.697955
    35 1.099665 0.000000 0.000006 0.000004 -0.004212 -0.244311
    36 0.075534 -0.738749 -0.759723 1.242487 0.505823 -0.517798
    37 2.512460 -0.000008 -0.000004 -0.000002 -0.000001 0.359159
    38 1.273411 0.355478 -0.144543 0.025603 -0.002950 1.007511
    39 -7.449570 -18.572267 -9.307794 1.548594 -0.008768 -3.176402
    40 0.000000 3.263673 -0.760246 0.000000 0.000000 0.000000
    41 0.000001 2.373053 -2.818354 0.000000 0.000000 0.000000
    42 0.000000 3.857430 -4.597647 0.000000 0.000000 0.000000
    43 0.000000 5.988286 -2.427719 0.000000 0.000000 0.000000
    44 -3.715750 27.385479 -10.540455 1.570743 0.000000 -4.712372
  time 27
    0 0.000005 -2.660156 -8.640625 -1.570760 -1.391893 -1.570827
    1 2.033348 1.000767 1.937660 3.011870 -0.174896 1.884139
    2 6.028145 0.000003 0.000002 -2.627221 -0.397302 -0.003172
    3 11.692553 0.000081 -0.000006 -0.060262 0.158844 -1.170919
    4 11.481672 -0.000089 -0.000022 -0.128942 0.459362 0.352442
    5 3.281560 0.002116 -1.383388 0.078005 -0.253951 -1.176530
    6 1.324282 -0.000010 0.000004 0.021884 -0.128706 -1.108511
    7 0.815305 0.000000 0.000002 -0.532192 0.022336 -0.114110
    8 3.711854 0.105349 -0.568167 -0.031323 -0.270684 -1.113220
    9 1.609408 0.000006 -0.000007 -0.004724 0.027163 -1.040447
    10 0.993193 -0.000006 0.000002 -0.469826 0.038703 0.069624
    11 3.786031 0.203222 0.247844 -0.104377 -0.383392 -0.624756
    12 1.684422 -0.000010 0.000009 -0.039032 0.101211 -1.372532
    13 1.252153 -0.000008 0.000004 -0.447108 0.036049 0.059672
    14 3.594223 0.299549 1.113710 -0.199264 -0.479099 0.080839
    15 1.719437 -0.000004 -0.000005 -0.071324 0.197894 -1.033194
    16 1.005921 -0.000006 0.000003 -0.448565 0.005351 -0.263899
    17 0.298212 -0.634095 0.430606 -1.056423 -1.098922 -0.546688
    18 2.633559 0.000000 -0.000008 -0.019130 -0.046760 0.381917
    19 1.308566 -0.000001 -0.000002 0.005539 0.053091 -0.022221
    20 2.033356 1.000772 -1.937610 -0.128177 0.172990 -2.038336
    21 6.028141 0.000000 -0.000002 -0.482131 1.119755 -2.141712
    22 11.692556 0.000000 -0.000002 0.053246 -0.057310 -1.499158
    23 11.481703 -0.000001 -0.000005 -0.544276 -0.077022 0.525608
    24 3.859676 -0.132545 1.193110 0.266247 -0.058069 -1.578804
    25 1.312559 -0.000004 -0.000001 0.000000 0.000000 -0.939669
    26 0.729365 -0.000002 -0.000001 0.000000 0.000000 -0.144267
    27 3.942299 0.050347 0.431044 0.150075 -0.079193 -1.210201
    28 1.539106 0.000000 0.000001 0.000003 -0.000003 -1.447698
    29 1.196321 -0.000004 -0.000002 -0.000003 0.000002 -0.430764
    30 3.883663 -0.050304 -0.431042 -0.005920 -0.006422 -1.287695
    31 1.719582 0.000002 0.000006 0.000002 -0.007972 -1.666396
    32 1.209183 0.000002 0.000006 0.000002 -0.004469 -0.216370
    33 3.449668 0.054213 -1.085181 0.069913 0.298733 -0.146123
    34 1.711616 0.000008 0.000011 0.029066 -0.204297 -0.741892
    35 1.099665 0.000000 0.000006 0.000004 -0.004212 -0.244311
    36 0.075534 -0.738749 -0.759723 1.243434 0.504222 -0.516959
    37 2.512460 -0.000008 -0.000004 -0.000002 -0.000001 0.359159
    38 1.273411 0.355478 -0.144543 0.026011 -0.002495 1.008672
    39 -7.426132 -18.732428 -9.339045 1.554867 -0.005931 -3.165831
    40 0.000000 3.263673 -0.760246 0.000000 0.000000 0.000000
    41 0.000001 2.373053 -2.818354 0.000000 0.000000 0.000000
    42 0.000000 3.857430 -4.597647 0.000000 0.000000 0.000000
    43 0.000000 5.988286 -2.427719 0.000000 0.000000 0.000000
    44 -3.715750 27.385479 -10.540455 1.570743 0.000000 -4.712372
  time 28
    0 0.000005 -2.660156 -8.640625 -1.570760 -1.391893 -1.570827
    1 2.033348 1.000767 1.937660 3.017544 -0.164459 1.883148
    2 6.028145 0.000003 0.000002 -2.641707 -0.379144 0.004175
    3 11.692553 0.000081 -0.000006 -0.063066 0.159970 -1.188626
    4 11.481672 -0.000089 -0.000022 -0.120038 0.492379 0.442916
    5 3.281560 0.002116 -1.379481 0.078265 -0.247001 -1.181930
    6 1.324282 -0.000010 0.000004 0.027289 -0.124727 -1.122047
    7 0.815305 0.000000 0.000002 -0.331508 0.027837 -0.142238
    8 3.711854 0.109256 -0.568167 -0.030460 -0.264820 -1.119334
    9 1.609408 0.000006 -0.000007 -0.005875 0.025725 -1.064411
    10 0.993193 -0.000006 0.000002 -0.470034 0.048147 0.088051
    11 3.786031 0.207129 0.247844 -0.103239 -0.378510 -0.638828
    12 1.684422 -0.000010 0.000009 -0.048643 0.100300 -1.431463
    13 1.252153 -0.000008 0.000004 -0.447673 0.042496 0.072975
    14 3.594223 0.303455 1.113710 -0.216691 -0.470592 0.096480
    15 1.719437 -0.000004 -0.000005 -0.088918 0.197043 -1.090079
    16 1.005921 -0.000006 0.000003 -0.268394 0.006670 -0.328943
    17 0.298212 -0.630189 0.430606 -0.881953 -1.136325 -0.671548
    18 2.633559 0.000000 -0.000008 -0.023852 -0.054955 0.444646
    19 1.308566 -0.000001 -0.000002 0.004592 0.052995 -0.039001
    20 2.033356 1.000772 -1.937610 -0.128177 0.172990 -2.038336
    21 6.028141 0.000000 -0.000002 -0.498787 1.112553 -2.157865
    22 11.692556 0.000000 -0.000002 0.052119 -0.057214 -1.479459
    23 11.481703 -0.000001 -0.000005 -0.541499 -0.074591 0.504629
    24 3.859676 -0.132545 1.193110 0.266247 -0.058069 -1.578804
    25 1.312559 -0.000004 -0.000001 0.000000 0.000000 -0.939669
    26 0.729365 -0.000002 -0.000001 0.000000 0.000000 -0.144267
    27 3.942299 0.050347 0.431044 0.150075 -0.079193 -1.210201
    28 1.539106 0.000000 0.000001 0.000003 -0.000003 -1.447698
    29 1.196321 -0.000004 -0.000002 -0.000003 0.000002 -0.430764
    30 3.883663 -0.050304 -0.431042 -0.005920 -0.006422 -1.287674
    31 1.719582 0.000002 0.000006 0.000002 -0.007972 -1.666436
    32 1.209183 0.000002 0.000006 0.000002 -0.004469 -0.216370
    33 3.449668 0.054213 -1.089087 0.069981 0.295305 -0.144202
    34 1.711616 0.000008 0.000011 0.036232 -0.200953 -0.782131
    35 1.099665 0.000000 0.000006 0.000004 -0.004212 -0.244311
    36 0.075534 -0.734842 -0.759723 1.244285 0.502735 -0.516228
    37 2.512460 -0.000008 -0.000004 -0.000002 -0.000001 0.359159
    38 1.273411 0.363290 -0.152356 0.026394 -0.002052 1.009729
    39 -7.406600 -18.880870 -9.366389 1.560821 -0.003481 -3.156373
    40 0.000000 3.263673 -0.760246 0.000000 0.000000 0.000000
    41 0.000001 2.373053 -2.818354 0.000000 0.000000 0.000000
    42 0.000000 3.857430 -4.597647 0.000000 0.000000 0.000000
    43 0.000000 5.988286 -2.427719 0.000000 0.000000 0.000000
    44 -3.715750 27.385479 -10.540455 1.570743 0.000000 -4.712372
  time 29
    0 0.000005 -2.660156 -8.640625 -1.570760 -1.391893 -1.570827
    1 2.033348 1.000767 1.937660 3.021758 -0.156760 1.882486
    2 6.028145 0.000003 0.000002 -2.652628 -0.365567 0.009898
    3 11.692553 0.000081 -0.000006 -0.065355 0.160857 -1.202994
    4 11.481672 -0.000089 -0.000022 -0.110665 0.519689 0.520344
    5 3.281560 0.002116 -1.383388 0.078576 -0.240449 -1.186267
    6 1.324282 -0.000010 0.000004 0.031687 -0.121119 -1.132245
    7 0.815305 0.000000 0.000002 -0.165612 0.032367 -0.165319
    8 3.711854 0.109256 -0.568167 -0.029597 -0.259250 -1.124654
    9 1.609408 0.000006 -0.000007 -0.006833 0.024682 -1.083608
    10 0.993193 -0.000006 0.000002 -0.470451 0.055901 0.103165
    11 3.786031 0.203222 0.247844 -0.101825 -0.374047 -0.650837
    12 1.684422 -0.000010 0.000009 -0.056541 0.099737 -1.478861
    13 1.252153 -0.000008 0.000004 -0.448400 0.047794 0.083923
    14 3.594223 0.299549 1.109803 -0.230249 -0.463638 0.108311
    15 1.719437 -0.000004 -0.000005 -0.103347 0.196516 -1.136184
    16 1.005921 -0.000006 0.000003 -0.119561 0.007748 -0.382379
    17 0.298212 -0.634095 0.426700 -0.720712 -1.160499 -0.790866
    18 2.633559 0.000000 -0.000008 -0.027735 -0.061672 0.496212
    19 1.308566 -0.000001 -0.000002 0.003801 0.052851 -0.052465
    20 2.033356 1.000772 -1.937610 -0.128177 0.172990 -2.038336
    21 6.028141 0.000000 -0.000002 -0.512703 1.106522 -2.171583
    22 11.692556 0.000000 -0.000002 0.051172 -0.057143 -1.462952
    23 11.481703 -0.000001 -0.000005 -0.539384 -0.072566 0.487406
    24 3.859676 -0.132545 1.193110 0.266247 -0.058069 -1.578804
    25 1.312559 -0.000004 -0.000001 0.000000 0.000000 -0.939669
    26 0.729365 -0.000002 -0.000001 0.000000 0.000000 -0.144267
    27 3.942299 0.050347 0.431044 0.150075 -0.079193 -1.210201
    28 1.539106 0.000000 0.000001 0.000003 -0.000003 -1.447698
    29 1.196321 -0.000004 -0.000002 -0.000003 0.000002 -0.430764
    30 3.883663 -0.050304 -0.431042 -0.005920 -0.006422 -1.287674
    31 1.719582 0.000002 0.000006 0.000002 -0.007972 -1.666396
    32 1.209183 0.000002 0.000006 0.000002 -0.004469 -0.216370
    33 3.449668 0.054213 -1.089087 0.070050 0.292477 -0.142670
    34 1.711616 0.000008 0.000011 0.042117 -0.198209 -0.815155
    35 1.099665 0.000000 0.000006 0.000004 -0.004212 -0.244311
    36 0.075534 -0.738749 -0.759723 1.244980 0.501502 -0.515640
    37 2.512460 -0.000008 -0.000004 -0.000002 -0.000001 0.359159
    38 1.273411 0.363290 -0.152356 0.026730 -0.001680 1.010642
    39 -7.394881 -19.005874 -9.385921 1.565942 -0.001644 -3.148654
    40 0.000000 3.263673 -0.760246 0.000000 0.000000 0.000000
    41 0.000001 2.373053 -2.818354 0.000000 0.000000 0.000000
    42 0.000000 3.857430 -4.597647 0.000000 0.000000 0.000000
    43 0.000000 5.988286 -2.427719 0.000000 0.000000 0.000000
    44 -3.715750 27.385479 -10.540455 1.570743 0.000000 -4.712372
  time 30
    0 0.000005 -2.660156 -8.640625 -1.570760 -1.391893 -1.570827
    1 2.033348 1.000767 1.937660 3.024298 -0.151940 1.882101
    2 6.028145 0.000003 0.000002 -2.659815 -0.356821 0.013610
    3 11.692553 0.000081 -0.000006 -0.066829 0.161409 -1.212158
    4 11.481672 -0.000089 -0.000022 -0.102933 0.538545 0.573238
    5 3.281560 0.002116 -1.383388 0.078732 -0.236076 -1.188679
    6 1.324282 -0.000010 0.000004 0.034695 -0.118531 -1.138648
    7 0.815305 0.000000 0.000002 -0.052747 0.035423 -0.180965
    8 3.711854 0.109256 -0.568167 -0.029118 -0.255571 -1.127803
    9 1.609408 0.000006 -0.000007 -0.007492 0.024047 -1.096363
    10 0.993193 -0.000006 0.000002 -0.470834 0.061138 0.113432
    11 3.786031 0.203222 0.243938 -0.101010 -0.371165 -0.658587
    12 1.684422 -0.000010 0.000009 -0.061886 0.099461 -1.510531
    13 1.252153 -0.000008 0.000004 -0.449046 0.051389 0.091359
    14 3.594223 0.299549 1.113710 -0.239647 -0.458960 0.116593
    15 1.719437 -0.000004 -0.000005 -0.113138 0.196240 -1.167047
    16 1.005921 -0.000006 0.000003 -0.018327 0.008479 -0.418551
    17 0.298212 -0.634095 0.430606 -0.603630 -1.173230 -0.878704
    18 2.633559 0.000000 -0.000008 -0.030371 -0.066194 0.531161
    19 1.308566 -0.000001 -0.000002 0.003286 0.052707 -0.061483
    20 2.033356 1.000772 -1.937610 -0.128177 0.172990 -2.038336
    21 6.028141 0.000000 -0.000002 -0.521717 1.102318 -2.180372
    22 11.692556 0.000000 -0.000002 0.050525 -0.057059 -1.451660
    23 11.481703 -0.000001 -0.000005 -0.537930 -0.070990 0.475898
    24 3.859676 -0.132545 1.193110 0.266247 -0.058069 -1.578804
    25 1.312559 -0.000004 -0.000001 0.000000 0.000000 -0.939669
    26 0.729365 -0.000002 -0.000001 0.000000 0.000000 -0.144267
    27 3.942299 0.050347 0.431044 0.150075 -0.079193 -1.210201
    28 1.539106 0.000000 0.000001 0.000003 -0.000003 -1.447698
    29 1.196321 -0.000004 -0.000002 -0.000003 0.000002 -0.430764
    30 3.883663 -0.050304 -0.431042 -0.005920 -0.006422 -1.287674
    31 1.719582 0.000002 0.000006 0.000002 -0.007972 -1.666436
    32 1.209183 0.000002 0.000006 0.000002 -0.004469 -0.216370
    33 3.449668 0.054213 -1.089087 0.070009 0.290715 -0.141974
    34 1.711616 0.000008 0.000011 0.046108 -0.196327 -0.837501
    35 1.099665 0.000000 0.000006 0.000004 -0.004212 -0.244311
    36 0.075534 -0.738749 -0.755817 1.245279 0.500780 -0.515628
    37 2.512460 -0.000008 -0.000004 -0.000002 -0.000001 0.359159
    38 1.273411 0.363290 -0.152356 0.026957 -0.001428 1.011243
    39 -7.387068 -19.087908 -9.397640 1.569463 -0.000387 -3.143507
    40 0.000000 3.263673 -0.760246 0.000000 0.000000 0.000000
    41 0.000001 2.373053 -2.818354 0.000000 0.000000 0.000000
    42 0.000000 3.857430 -4.597647 0.000000 0.000000 0.000000
    43 0.000000 5.988286 -2.427719 0.000000 0.000000 0.000000
    44 -3.715750 27.385479 -10.540455 1.570743 0.000000 -4.712372
  time 31
    0 0.000005 -2.660156 -8.640625 -1.570760 -1.391893 -1.570827
    1 2.033348 1.000767 1.937660 3.025217 -0.150276 1.881935
    2 6.028145 0.000003 0.000002 -2.662474 -0.353864 0.015234
    3 11.692553 0.000081 -0.000006 -0.067320 0.161588 -1.215187
    4 11.481672 -0.000089 -0.000022 -0.099731 0.545481 0.592571
    5 3.281560 0.006022 -1.379481 0.078680 -0.234766 -1.189082
    6 1.324282 -0.000010 0.000004 0.035810 -0.117524 -1.140864
    7 0.815305 0.000000 0.000002 -0.011072 0.036550 -0.186716
    8 3.711854 0.109256 -0.568167 -0.029070 -0.254498 -1.128506
    9 1.609408 0.000006 -0.000007 -0.007732 0.023831 -1.100969
    10 0.993193 -0.000006 0.000002 -0.471008 0.063092 0.117184
    11 3.786031 0.207129 0.247844 -0.100974 -0.370328 -0.660916
    12 1.684422 -0.000010 0.000009 -0.063876 0.099377 -1.522098
    13 1.252153 -0.000008 0.000004 -0.449247 0.052707 0.094087
    14 3.594223 0.303455 1.113710 -0.243479 -0.457208 0.120171
    15 1.719437 -0.000004 -0.000005 -0.116746 0.196168 -1.178247
    16 1.005921 -0.000006 0.000003 0.018980 0.008755 -0.431865
    17 0.298212 -0.630189 0.430606 -0.559470 -1.177351 -0.911569
    18 2.633559 0.000000 -0.000008 -0.031330 -0.067868 0.544014
    19 1.308566 -0.000001 -0.000002 0.003082 0.052647 -0.064724
    20 2.033356 1.000772 -1.937610 -0.128177 0.172990 -2.038336
    21 6.028141 0.000000 -0.000002 -0.524961 1.100856 -2.183579
    22 11.692556 0.000000 -0.000002 0.050297 -0.057035 -1.447610
    23 11.481703 -0.000001 -0.000005 -0.537467 -0.070472 0.471321
    24 3.859676 -0.132545 1.193110 0.266247 -0.058069 -1.578804
    25 1.312559 -0.000004 -0.000001 0.000000 0.000000 -0.939669
    26 0.729365 -0.000002 -0.000001 0.000000 0.000000 -0.144267
    27 3.942299 0.050347 0.431044 0.150075 -0.079193 -1.210201
    28 1.539106 0.000000 0.000001 0.000003 -0.000003 -1.447698
    29 1.196321 -0.000004 -0.000002 -0.000003 0.000002 -0.430764
    30 3.883663 -0.050304 -0.431042 -0.005920 -0.006422 -1.287674
    31 1.719582 0.000002 0.000006 0.000002 -0.007972 -1.666436
    32 1.209183 0.000002 0.000006 0.000002 -0.004469 -0.216370
    33 3.449668 0.054213 -1.085181 0.070105 0.289828 -0.141278
    34 1.711616 0.000008 0.000011 0.047570 -0.195644 -0.845705
    35 1.099665 0.000000 0.000006 0.000004 -0.004212 -0.244311
    36 0.075534 -0.738749 -0.755817 1.245603 0.500355 -0.515125
    37 2.512460 -0.000008 -0.000004 -0.000002 -0.000001 0.359159
    38 1.273411 0.363290 -0.152356 0.027041 -0.001332 1.011451
    39 -7.387068 -19.115252 -9.397640 1.570743 0.000000 -3.141630
    40 0.000000 3.263673 -0.760246 0.000000 0.000000 0.000000
    41 0.000001 2.373053 -2.818354 0.000000 0.000000 0.000000
    42 0.000000 3.857430 -4.597647 0.000000 0.000000 0.000000
    43 0.000000 5.988286 -2.427719 0.000000 0.000000 0.000000
    44 -3.715750 27.385479 -10.540455 1.570743 0.000000 -4.712372
end
