// Created by Crowbar++ 0.74
version 1
nodes
  0 "ValveBiped.Bip01_Spine4" -1
  1 "ValveBiped.Bip01_L_Clavicle" 0
  2 "ValveBiped.Bip01_L_UpperArm" 1
  3 "ValveBiped.Bip01_L_Forearm" 2
  4 "ValveBiped.Bip01_L_Hand" 3
  5 "ValveBiped.Bip01_L_Finger4" 4
  6 "ValveBiped.Bip01_L_Finger41" 5
  7 "ValveBiped.Bip01_L_Finger42" 6
  8 "ValveBiped.Bip01_L_Finger3" 4
  9 "ValveBiped.Bip01_L_Finger31" 8
  10 "ValveBiped.Bip01_L_Finger32" 9
  11 "ValveBiped.Bip01_L_Finger2" 4
  12 "ValveBiped.Bip01_L_Finger21" 11
  13 "ValveBiped.Bip01_L_Finger22" 12
  14 "ValveBiped.Bip01_L_Finger1" 4
  15 "ValveBiped.Bip01_L_Finger11" 14
  16 "ValveBiped.Bip01_L_Finger12" 15
  17 "ValveBiped.Bip01_L_Finger0" 4
  18 "ValveBiped.Bip01_L_Finger01" 17
  19 "ValveBiped.Bip01_L_Finger02" 18
  20 "ValveBiped.Bip01_R_Clavicle" 0
  21 "ValveBiped.Bip01_R_UpperArm" 20
  22 "ValveBiped.Bip01_R_Forearm" 21
  23 "ValveBiped.Bip01_R_Hand" 22
  24 "ValveBiped.Bip01_R_Finger4" 23
  25 "ValveBiped.Bip01_R_Finger41" 24
  26 "ValveBiped.Bip01_R_Finger42" 25
  27 "ValveBiped.Bip01_R_Finger3" 23
  28 "ValveBiped.Bip01_R_Finger31" 27
  29 "ValveBiped.Bip01_R_Finger32" 28
  30 "ValveBiped.Bip01_R_Finger2" 23
  31 "ValveBiped.Bip01_R_Finger21" 30
  32 "ValveBiped.Bip01_R_Finger22" 31
  33 "ValveBiped.Bip01_R_Finger1" 23
  34 "ValveBiped.Bip01_R_Finger11" 33
  35 "ValveBiped.Bip01_R_Finger12" 34
  36 "ValveBiped.Bip01_R_Finger0" 23
  37 "ValveBiped.Bip01_R_Finger01" 36
  38 "ValveBiped.Bip01_R_Finger02" 37
  39 "v_weapon.Glock_Parent" -1
  40 "v_weapon.Glock_Trigger" 39
  41 "v_weapon.Glock_Clip" 39
  42 "v_weapon.Glock_Slide" 39
end
skeleton
  time 0
    0 0.000005 -2.660156 -8.640625 -1.570760 -1.391893 -1.570827
    1 2.033348 1.000767 1.937660 1.596636 -1.286515 2.942963
    2 6.028145 0.000003 0.000002 -0.662046 -0.711529 -1.995497
    3 11.692549 0.000081 -0.000005 -0.000003 0.000024 -1.075595
    4 11.481670 -0.000089 -0.000024 -0.116946 0.458568 0.149884
    5 3.281560 0.002122 -1.383387 0.060410 -0.190574 -0.991217
    6 1.328125 0.000000 0.000002 0.000002 -0.054909 -0.582390
    7 0.819336 -0.000002 0.000002 0.000000 0.000000 -0.523574
    8 3.711854 0.109258 -0.568167 -0.040000 -0.149184 -1.054587
    9 1.610352 0.000000 0.000000 -0.000002 0.001797 -0.427537
    10 0.993190 -0.000002 0.000002 0.001475 0.002258 -0.454063
    11 3.786034 0.203230 0.243937 0.056180 -0.075516 -0.596960
    12 1.684419 -0.000008 0.000009 -0.003018 0.005442 -1.095140
    13 1.256836 0.000005 -0.000003 0.000000 0.000000 -0.532315
    14 3.594223 0.299557 1.109803 -0.102248 -0.060105 -0.286564
    15 1.719431 0.000004 -0.000003 0.000000 0.000010 -0.778830
    16 1.005918 -0.000004 0.000005 0.097715 0.123148 0.228531
    17 0.298218 -0.634091 0.426700 -1.023890 -0.921604 -0.498679
    18 2.633561 0.000000 -0.000004 0.031002 -0.045087 0.423761
    19 1.308566 0.000001 0.000002 0.029208 -0.053608 -0.355923
    20 2.033356 1.000772 -1.937610 -1.668474 1.286518 2.942953
    21 6.028141 0.000000 -0.000002 1.682819 0.860203 -0.497712
    22 11.692554 0.000000 -0.000001 0.000046 -0.000012 -1.784031
    23 11.481701 -0.000001 -0.000007 -0.845959 0.122373 1.091715
    24 2.914335 -0.023163 1.404053 0.005700 0.149255 -0.956695
    25 1.284180 -0.000002 0.000001 0.000007 -0.000008 -0.611443
    26 0.838744 0.000000 0.000000 0.053883 0.391803 -1.610229
    27 3.368063 0.007376 0.622456 0.036044 0.099261 -1.009923
    28 1.610352 0.000002 0.000000 -0.000007 0.259441 -1.086926
    29 1.015625 0.000002 0.000000 0.015558 0.182264 -1.340754
    30 3.555528 0.023919 -0.204473 0.012560 0.053537 -0.903374
    31 1.666992 0.000002 0.000000 -0.000009 0.314488 -1.208296
    32 1.243164 -0.000002 0.000000 -0.000007 0.196340 -1.483473
    33 3.449668 0.054214 -1.085181 0.053336 0.070642 -0.350277
    34 1.711616 0.000006 0.000011 0.000003 -0.028087 -0.750050
    35 1.005912 0.000000 0.000005 0.024776 -0.031393 -1.142624
    36 0.075534 -0.738747 -0.759723 1.293529 0.406464 -0.475804
    37 2.512460 -0.000006 -0.000004 -0.000002 -0.000001 0.359160
    38 1.330078 0.052032 -0.119690 -0.334975 0.008687 -0.059326
    39 -5.716088 -22.724349 -6.699415 1.370871 -0.290371 1.583305
    40 -0.163176 2.333985 0.382082 3.101636 0.166381 -1.515363
    41 1.417019 1.884747 0.307373 -0.111807 0.161678 -1.589027
    42 3.896555 2.185501 0.361817 -3.110087 -0.046555 2.851964
  time 1
    0 0.000005 -2.660156 -8.640625 -1.570760 -1.391893 -1.570827
    1 2.033348 1.000767 1.937660 1.596636 -1.286515 2.942963
    2 6.028145 0.000003 0.000002 -0.662046 -0.711529 -1.995497
    3 11.692549 0.000081 -0.000005 -0.000003 0.000024 -1.075595
    4 11.481670 -0.000089 -0.000024 -0.116946 0.458568 0.149884
    5 3.281560 0.002122 -1.383387 0.060410 -0.190574 -0.991217
    6 1.328125 0.000000 0.000002 0.000002 -0.054909 -0.582390
    7 0.819336 -0.000002 0.000002 0.000000 0.000000 -0.523574
    8 3.711854 0.109258 -0.568167 -0.040000 -0.149184 -1.054587
    9 1.610352 0.000000 0.000000 -0.000002 0.001797 -0.427537
    10 0.993190 -0.000002 0.000002 0.001475 0.002258 -0.454063
    11 3.786034 0.203230 0.243937 0.056180 -0.075516 -0.596960
    12 1.684419 -0.000008 0.000009 -0.003018 0.005442 -1.095140
    13 1.256836 0.000005 -0.000003 0.000000 0.000000 -0.532315
    14 3.594223 0.299557 1.109803 -0.102248 -0.060105 -0.286564
    15 1.719431 0.000004 -0.000003 0.000000 0.000010 -0.778830
    16 1.005918 -0.000004 0.000005 0.097715 0.123148 0.228531
    17 0.298218 -0.634091 0.426700 -1.023890 -0.921604 -0.498679
    18 2.633561 0.000000 -0.000004 0.031002 -0.045087 0.423761
    19 1.308566 0.000001 0.000002 0.029208 -0.053608 -0.355923
    20 2.033356 1.000772 -1.937610 -1.668474 1.286518 2.942953
    21 6.028141 0.000000 -0.000002 1.682819 0.860203 -0.497712
    22 11.692554 0.000000 -0.000001 0.000046 -0.000012 -1.784031
    23 11.481701 -0.000001 -0.000007 -0.845959 0.122373 1.091715
    24 2.914335 -0.023163 1.404053 0.005700 0.149255 -0.956695
    25 1.284180 -0.000002 0.000001 0.000007 -0.000008 -0.611443
    26 0.838744 0.000000 0.000000 0.053883 0.391803 -1.610229
    27 3.368063 0.007376 0.622456 0.036044 0.099261 -1.009923
    28 1.610352 0.000002 0.000000 -0.000007 0.259441 -1.086926
    29 1.015625 0.000002 0.000000 0.015558 0.182264 -1.340754
    30 3.555528 0.023919 -0.204473 0.012560 0.053537 -0.903374
    31 1.666992 0.000002 0.000000 -0.000009 0.314488 -1.208296
    32 1.243164 -0.000002 0.000000 -0.000007 0.196340 -1.483473
    33 3.449668 0.054214 -1.085181 0.053336 0.070642 -0.350277
    34 1.711616 0.000006 0.000011 0.000003 -0.028087 -0.750050
    35 1.005912 0.000000 0.000005 0.024776 -0.031393 -1.142624
    36 0.075534 -0.738747 -0.759723 1.293529 0.406464 -0.475804
    37 2.512460 -0.000006 -0.000004 -0.000002 -0.000001 0.359160
    38 1.330078 0.052032 -0.119690 -0.334975 0.008687 -0.059326
    39 -5.716088 -22.724349 -6.699415 1.370871 -0.290371 1.583305
    40 -0.163176 2.333985 0.382082 3.101636 0.166381 -1.515363
    41 1.417019 1.884747 0.307373 -0.111807 0.161678 -1.589027
    42 3.896555 2.185501 0.361817 -3.110087 -0.046555 2.851964
  time 2
    0 0.000005 -2.660156 -8.640625 -1.570760 -1.391893 -1.570827
    1 2.033348 1.000767 1.937660 1.596636 -1.286515 2.942963
    2 6.028145 0.000003 0.000002 -0.670347 -0.693390 -1.987991
    3 11.692549 0.000081 -0.000005 -0.000015 0.000036 -1.107996
    4 11.481670 -0.000089 -0.000024 -0.108041 0.454324 0.168561
    5 3.281560 0.002122 -1.383387 0.060410 -0.190574 -0.991217
    6 1.328125 0.000000 0.000002 0.000002 -0.054909 -0.582390
    7 0.819336 -0.000002 0.000002 0.000000 0.000000 -0.523574
    8 3.711854 0.109258 -0.568167 -0.040000 -0.149172 -1.054587
    9 1.610352 0.000000 0.000000 -0.000002 0.001797 -0.427537
    10 0.993190 -0.000002 0.000002 0.001475 0.002258 -0.454063
    11 3.786034 0.203230 0.243937 0.056180 -0.075516 -0.596960
    12 1.684419 -0.000008 0.000009 -0.003018 0.005442 -1.095140
    13 1.256836 0.000005 -0.000003 0.000000 0.000000 -0.532315
    14 3.594223 0.299557 1.109803 -0.102262 -0.060105 -0.286564
    15 1.719431 0.000004 -0.000003 0.000000 0.000010 -0.778830
    16 1.005918 -0.000004 0.000005 0.097715 0.123148 0.228531
    17 0.298218 -0.634091 0.426700 -1.023890 -0.921604 -0.498701
    18 2.633561 0.000000 -0.000004 0.031002 -0.045087 0.423761
    19 1.308566 0.000001 0.000002 0.029208 -0.053608 -0.355901
    20 2.033356 1.000772 -1.937610 -1.668474 1.286518 2.942953
    21 6.028141 0.000000 -0.000002 1.686369 0.849563 -0.493153
    22 11.692554 0.000000 -0.000001 0.000046 -0.000024 -1.810436
    23 11.481701 -0.000001 -0.000007 -0.870287 0.097710 1.103182
    24 2.914335 -0.023163 1.404053 0.005832 0.148976 -0.956514
    25 1.284180 -0.000002 0.000001 0.000007 -0.000008 -0.611443
    26 0.838744 0.000000 0.000000 0.053883 0.391803 -1.610229
    27 3.368063 0.007376 0.622456 0.036187 0.098985 -1.009757
    28 1.610352 0.000002 0.000000 -0.000007 0.259441 -1.086926
    29 1.015625 0.000002 0.000000 0.015558 0.182264 -1.340754
    30 3.555528 0.023919 -0.204473 0.012668 0.053250 -0.903202
    31 1.666992 0.000002 0.000000 -0.000009 0.314488 -1.208296
    32 1.243164 -0.000002 0.000000 -0.000007 0.196340 -1.483473
    33 3.449668 0.054214 -1.089088 0.053286 0.070330 -0.350133
    34 1.711616 0.000006 0.000011 0.000003 -0.028087 -0.750077
    35 1.005912 0.000000 0.000005 0.024776 -0.031393 -1.142624
    36 0.075534 -0.738747 -0.759723 1.293517 0.406165 -0.475660
    37 2.512460 -0.000006 -0.000004 -0.000002 -0.000001 0.359160
    38 1.330078 0.052032 -0.119690 -0.334975 0.008687 -0.059326
    39 -5.661399 -22.466529 -6.754104 1.397623 -0.304432 1.593875
    40 -0.163176 2.333985 0.382082 3.101636 0.166381 -1.515363
    41 1.417019 1.884747 0.307373 -0.111807 0.161678 -1.589027
    42 4.552825 1.990182 0.330566 -3.110087 -0.046555 2.851964
  time 3
    0 0.000005 -2.660156 -8.640625 -1.570760 -1.391893 -1.570827
    1 2.033348 1.000767 1.937660 1.596636 -1.286515 2.942963
    2 6.028145 0.000003 0.000002 -0.665981 -0.703735 -1.991801
    3 11.692549 0.000081 -0.000005 -0.000003 0.000024 -1.089566
    4 11.481670 -0.000089 -0.000024 -0.121638 0.454942 0.148459
    5 3.281560 0.002122 -1.379481 0.060428 -0.190574 -0.991217
    6 1.328125 0.000000 0.000002 0.000002 -0.054909 -0.582390
    7 0.819336 -0.000002 0.000002 0.000000 0.000000 -0.523574
    8 3.711854 0.109258 -0.568167 -0.040000 -0.149172 -1.054587
    9 1.610352 0.000000 0.000000 -0.000002 0.001797 -0.427537
    10 0.993190 -0.000002 0.000002 0.001475 0.002258 -0.454063
    11 3.786034 0.203230 0.243937 0.056180 -0.075516 -0.596960
    12 1.684419 -0.000008 0.000009 -0.003018 0.005442 -1.095140
    13 1.256836 0.000005 -0.000003 0.000000 0.000000 -0.532315
    14 3.594223 0.299557 1.109803 -0.102248 -0.060105 -0.286564
    15 1.719431 0.000004 -0.000003 0.000000 0.000010 -0.778830
    16 1.005918 -0.000004 0.000005 0.097715 0.123148 0.228531
    17 0.298218 -0.634091 0.426700 -1.023890 -0.921604 -0.498701
    18 2.633561 0.000000 -0.000004 0.031002 -0.045087 0.423761
    19 1.308566 0.000001 0.000002 0.029208 -0.053608 -0.355901
    20 2.033356 1.000772 -1.937610 -1.668474 1.286518 2.942953
    21 6.028141 0.000000 -0.000002 1.697959 0.857441 -0.478139
    22 11.692554 0.000000 -0.000001 0.000034 -0.000012 -1.802288
    23 11.481701 -0.000001 -0.000007 -0.876524 0.082599 1.102084
    24 2.914335 -0.023163 1.400147 0.005700 0.149255 -0.956695
    25 1.284180 -0.000002 0.000001 0.000007 -0.000008 -0.611443
    26 0.838744 0.000000 0.000000 0.053883 0.391803 -1.610229
    27 3.368063 0.007376 0.618550 0.036044 0.099261 -1.009923
    28 1.610352 0.000002 0.000000 -0.000007 0.259441 -1.086926
    29 1.015625 0.000002 0.000000 0.015558 0.182264 -1.340754
    30 3.555528 0.023919 -0.200566 0.012560 0.053537 -0.903374
    31 1.666992 0.000002 0.000000 -0.000009 0.314488 -1.208296
    32 1.243164 -0.000002 0.000000 -0.000007 0.196340 -1.483473
    33 3.449668 0.054214 -1.089088 0.053336 0.070642 -0.350277
    34 1.711616 0.000006 0.000011 0.000003 -0.028135 -0.751284
    35 1.002005 0.000000 0.000005 0.024860 -0.031429 -1.144240
    36 0.075534 -0.738747 -0.759723 1.293529 0.406464 -0.475804
    37 2.512460 -0.000006 -0.000004 -0.000002 -0.000001 0.359160
    38 1.330078 0.052032 -0.119690 -0.334975 0.008687 -0.059326
    39 -5.634054 -22.525124 -6.664257 1.409123 -0.309197 1.597970
    40 -0.163176 2.333985 0.382082 3.101636 0.166381 -1.515363
    41 1.417019 1.884747 0.307373 -0.111807 0.161678 -1.589027
    42 3.205127 2.388632 0.393068 -3.110087 -0.046555 2.851964
  time 4
    0 0.000005 -2.660156 -8.640625 -1.570760 -1.391893 -1.570827
    1 2.033348 1.000767 1.937660 1.596636 -1.286515 2.942963
    2 6.028145 0.000003 0.000002 -0.646468 -0.742517 -2.009768
    3 11.692549 0.000081 -0.000005 -0.000003 0.000024 -1.017680
    4 11.481670 -0.000089 -0.000024 -0.153430 0.460536 0.092525
    5 3.281560 0.002122 -1.383387 0.060410 -0.190574 -0.991217
    6 1.328125 0.000000 0.000002 0.000002 -0.054909 -0.582390
    7 0.819336 -0.000002 0.000002 0.000000 0.000000 -0.523574
    8 3.711854 0.109258 -0.568167 -0.040000 -0.149172 -1.054587
    9 1.610352 0.000000 0.000000 -0.000002 0.001797 -0.427537
    10 0.993190 -0.000002 0.000002 0.001475 0.002258 -0.454063
    11 3.786034 0.203230 0.243937 0.056180 -0.075516 -0.596960
    12 1.684419 -0.000008 0.000009 -0.003018 0.005442 -1.095140
    13 1.256836 0.000005 -0.000003 0.000000 0.000000 -0.532315
    14 3.594223 0.299557 1.109803 -0.102262 -0.060105 -0.286564
    15 1.719431 0.000004 -0.000003 0.000000 0.000010 -0.778830
    16 1.005918 -0.000004 0.000005 0.097715 0.123148 0.228531
    17 0.298218 -0.634091 0.426700 -1.023890 -0.921604 -0.498701
    18 2.633561 0.000000 -0.000004 0.031002 -0.045087 0.423761
    19 1.308566 0.000001 0.000002 0.029208 -0.053608 -0.355923
    20 2.033356 1.000772 -1.937610 -1.668474 1.286518 2.942953
    21 6.028141 0.000000 -0.000002 1.680487 0.872848 -0.500699
    22 11.692554 0.000000 -0.000001 0.000034 -0.000024 -1.757627
    23 11.481701 -0.000001 -0.000007 -0.813314 0.160731 1.077334
    24 2.914335 -0.023163 1.404053 0.005700 0.149255 -0.956695
    25 1.284180 -0.000002 0.000001 0.000007 -0.000008 -0.611443
    26 0.838744 0.000000 0.000000 0.053883 0.391803 -1.610229
    27 3.368063 0.007376 0.622456 0.036044 0.099261 -1.009923
    28 1.610352 0.000002 0.000000 -0.000007 0.259441 -1.086926
    29 1.015625 0.000002 0.000000 0.015558 0.182264 -1.340754
    30 3.551622 0.023919 -0.200566 0.012560 0.053537 -0.903374
    31 1.666992 0.000002 0.000000 -0.000009 0.314488 -1.208296
    32 1.243164 -0.000002 0.000000 -0.000007 0.196340 -1.483473
    33 3.449668 0.054214 -1.089088 0.053336 0.070642 -0.350277
    34 1.711616 0.000006 0.000011 0.000003 -0.028279 -0.754450
    35 1.005912 0.000000 0.000005 0.025040 -0.031513 -1.148323
    36 0.075534 -0.738747 -0.759723 1.293529 0.406464 -0.475804
    37 2.512460 -0.000006 -0.000004 -0.000002 -0.000001 0.359160
    38 1.330078 0.052032 -0.119690 -0.334975 0.008687 -0.059326
    39 -5.802028 -22.974357 -6.558785 1.337326 -0.262146 1.567021
    40 -0.163176 2.333985 0.382082 3.101636 0.166381 -1.515338
    41 1.417019 1.884747 0.307373 -0.111807 0.161678 -1.589027
    42 4.474697 2.013620 0.334472 -3.110087 -0.046555 2.851964
  time 5
    0 0.000005 -2.660156 -8.640625 -1.570760 -1.391893 -1.570827
    1 2.033348 1.000767 1.937660 1.596636 -1.286515 2.942963
    2 6.028145 0.000003 0.000002 -0.673150 -0.693529 -1.986456
    3 11.692549 0.000081 -0.000005 -0.000003 0.000024 -1.101704
    4 11.481670 -0.000089 -0.000024 -0.123745 0.452469 0.143740
    5 3.281560 0.002122 -1.379481 0.060428 -0.190574 -0.991217
    6 1.328125 0.000000 0.000002 0.000002 -0.054909 -0.582390
    7 0.819336 -0.000002 0.000002 0.000000 0.000000 -0.523574
    8 3.711854 0.109258 -0.568167 -0.040000 -0.149172 -1.054587
    9 1.610352 0.000000 0.000000 -0.000002 0.001797 -0.427537
    10 0.993190 -0.000002 0.000002 0.001475 0.002258 -0.454063
    11 3.786034 0.203230 0.247844 0.056180 -0.075516 -0.596960
    12 1.684419 -0.000008 0.000009 -0.003018 0.005442 -1.095198
    13 1.256836 0.000005 -0.000003 0.000000 0.000000 -0.532315
    14 3.594223 0.299557 1.109803 -0.102248 -0.060105 -0.286564
    15 1.719431 0.000004 -0.000003 0.000000 0.000010 -0.778830
    16 1.005918 -0.000004 0.000005 0.097715 0.123148 0.228531
    17 0.298218 -0.634091 0.426700 -1.023890 -0.921604 -0.498701
    18 2.633561 0.000000 -0.000004 0.031002 -0.045087 0.423761
    19 1.308566 0.000001 0.000002 0.029208 -0.053608 -0.355923
    20 2.033356 1.000772 -1.937610 -1.668474 1.286518 2.942953
    21 6.028141 0.000000 -0.000002 1.693608 0.855842 -0.483838
    22 11.692554 0.000000 -0.000001 0.000046 -0.000024 -1.808295
    23 11.481701 -0.000001 -0.000007 -0.875595 0.090118 1.099473
    24 2.914335 -0.023163 1.400147 0.005700 0.149255 -0.956695
    25 1.284180 -0.000002 0.000001 0.000007 -0.000008 -0.611443
    26 0.838744 0.000000 0.000000 0.053883 0.391803 -1.610229
    27 3.368063 0.007376 0.618550 0.036044 0.099261 -1.009923
    28 1.610352 0.000002 0.000000 -0.000007 0.259441 -1.086926
    29 1.015625 0.000002 0.000000 0.015558 0.182264 -1.340754
    30 3.555528 0.023919 -0.200566 0.012560 0.053537 -0.903374
    31 1.666992 0.000002 0.000000 -0.000009 0.314488 -1.208296
    32 1.243164 -0.000002 0.000000 -0.000007 0.196340 -1.483473
    33 3.449668 0.054214 -1.089088 0.053336 0.070642 -0.350277
    34 1.711616 0.000006 0.000011 0.000003 -0.028459 -0.758823
    35 1.002005 0.000000 0.000005 0.025268 -0.031633 -1.153937
    36 0.075534 -0.738747 -0.759723 1.293529 0.406464 -0.475804
    37 2.508554 -0.000006 -0.000004 -0.000002 -0.000001 0.359160
    38 1.330078 0.052032 -0.119690 -0.334975 0.008687 -0.059326
    39 -5.602803 -22.466529 -6.644725 1.406441 -0.300775 1.599494
    40 -0.163176 2.333985 0.382082 3.101636 0.166381 -1.515338
    41 1.417019 1.884747 0.307373 -0.111807 0.161678 -1.589027
    42 3.462948 2.306598 0.381349 -3.110087 -0.046555 2.851964
  time 6
    0 0.000005 -2.660156 -8.640625 -1.570760 -1.391893 -1.570827
    1 2.033348 1.000767 1.937660 1.596636 -1.286515 2.942963
    2 6.028145 0.000003 0.000002 -0.667598 -0.724286 -1.997089
    3 11.692549 0.000081 -0.000005 -0.000003 0.000024 -1.019166
    4 11.481670 -0.000089 -0.000024 -0.135906 0.465792 0.083973
    5 3.281560 0.002122 -1.383387 0.060428 -0.190574 -0.991217
    6 1.328125 0.000000 0.000002 0.000002 -0.054909 -0.582390
    7 0.819336 -0.000002 0.000002 0.000000 0.000000 -0.523574
    8 3.711854 0.109258 -0.568167 -0.040000 -0.149172 -1.054587
    9 1.610352 0.000000 0.000000 -0.000002 0.001797 -0.427537
    10 0.993190 -0.000002 0.000002 0.001487 0.002258 -0.454063
    11 3.786034 0.203230 0.247844 0.056180 -0.075516 -0.596960
    12 1.684419 -0.000008 0.000009 -0.003018 0.005442 -1.095140
    13 1.256836 0.000005 -0.000003 0.000000 0.000000 -0.532315
    14 3.594223 0.299557 1.113710 -0.102248 -0.060105 -0.286564
    15 1.719431 0.000004 -0.000003 0.000000 0.000010 -0.778830
    16 1.005918 -0.000004 0.000005 0.097715 0.123148 0.228531
    17 0.298218 -0.634091 0.430606 -1.023890 -0.921604 -0.498679
    18 2.633561 0.000000 -0.000004 0.031002 -0.045099 0.423761
    19 1.308566 0.000001 0.000002 0.029208 -0.053608 -0.355901
    20 2.033356 1.000772 -1.937610 -1.668474 1.286518 2.942953
    21 6.028141 0.000000 -0.000002 1.655567 0.865290 -0.533164
    22 11.692554 0.000000 -0.000001 0.000034 -0.000024 -1.755307
    23 11.481701 -0.000001 -0.000007 -0.841359 0.153757 1.069916
    24 2.914335 -0.023163 1.404053 0.005700 0.149255 -0.956695
    25 1.284180 -0.000002 0.000001 0.000007 -0.000008 -0.611443
    26 0.838744 0.000000 0.000000 0.053883 0.391803 -1.610229
    27 3.368063 0.007376 0.622456 0.036044 0.099261 -1.009923
    28 1.610352 0.000002 0.000000 -0.000007 0.259441 -1.086926
    29 1.015625 0.000002 0.000000 0.015558 0.182264 -1.340754
    30 3.551622 0.023919 -0.200566 0.012560 0.053537 -0.903374
    31 1.666992 0.000002 0.000000 -0.000009 0.314488 -1.208296
    32 1.243164 -0.000002 0.000000 -0.000007 0.196340 -1.483473
    33 3.449668 0.054214 -1.089088 0.053336 0.070642 -0.350277
    34 1.711616 0.000006 0.000011 0.000003 -0.028663 -0.763706
    35 1.005912 0.000000 0.000005 0.025531 -0.031765 -1.160203
    36 0.075534 -0.738747 -0.759723 1.293529 0.406464 -0.475804
    37 2.512460 -0.000006 -0.000004 -0.000002 -0.000001 0.359160
    38 1.330078 0.052032 -0.119690 -0.334975 0.008687 -0.059326
    39 -5.692650 -23.013420 -6.902546 1.351686 -0.283958 1.575591
    40 -0.163176 2.333985 0.382082 3.101636 0.166381 -1.515363
    41 1.417019 1.884747 0.307373 -0.111807 0.161678 -1.589027
    42 4.521574 1.997995 0.330566 -3.110087 -0.046555 2.851964
  time 7
    0 0.000005 -2.660156 -8.640625 -1.570760 -1.391893 -1.570827
    1 2.033348 1.000767 1.937660 1.596636 -1.286515 2.942963
    2 6.028145 0.000003 0.000002 -0.665604 -0.699560 -1.991289
    3 11.692549 0.000081 -0.000005 -0.000003 0.000036 -1.102101
    4 11.481670 -0.000089 -0.000024 -0.109764 0.454830 0.169741
    5 3.281560 0.002122 -1.379481 0.060428 -0.190574 -0.991217
    6 1.328125 0.000000 0.000002 0.000002 -0.054909 -0.582390
    7 0.819336 -0.000002 0.000002 0.000000 0.000000 -0.523574
    8 3.711854 0.109258 -0.568167 -0.040000 -0.149172 -1.054587
    9 1.610352 0.000000 0.000000 -0.000002 0.001797 -0.427537
    10 0.993190 -0.000002 0.000002 0.001475 0.002258 -0.454063
    11 3.786034 0.203230 0.247844 0.056180 -0.075516 -0.596960
    12 1.684419 -0.000008 0.000009 -0.003018 0.005442 -1.095140
    13 1.256836 0.000005 -0.000003 0.000000 0.000000 -0.532315
    14 3.594223 0.299557 1.113710 -0.102248 -0.060105 -0.286564
    15 1.719431 0.000004 -0.000003 0.000000 0.000010 -0.778830
    16 1.005918 -0.000004 0.000005 0.097715 0.123148 0.228531
    17 0.298218 -0.634091 0.426700 -1.023890 -0.921604 -0.498679
    18 2.633561 0.000000 -0.000004 0.031002 -0.045087 0.423761
    19 1.308566 0.000001 0.000002 0.029208 -0.053608 -0.355901
    20 2.033356 1.000772 -1.937610 -1.668474 1.286518 2.942953
    21 6.028141 0.000000 -0.000002 1.708853 0.855813 -0.464108
    22 11.692554 0.000000 -0.000001 0.000034 -0.000024 -1.810555
    23 11.481701 -0.000001 -0.000007 -0.862060 0.078276 1.122369
    24 2.914335 -0.023163 1.404053 0.005700 0.149255 -0.956695
    25 1.284180 -0.000002 0.000001 0.000007 -0.000008 -0.611443
    26 0.838744 0.000000 0.000000 0.053883 0.391803 -1.610270
    27 3.368063 0.007376 0.622456 0.036044 0.099261 -1.009923
    28 1.610352 0.000002 0.000000 -0.000007 0.259441 -1.086926
    29 1.015625 0.000002 0.000000 0.015558 0.182264 -1.340754
    30 3.551622 0.023919 -0.200566 0.012560 0.053537 -0.903374
    31 1.666992 0.000002 0.000000 -0.000009 0.314488 -1.208296
    32 1.243164 -0.000002 0.000000 -0.000007 0.196340 -1.483473
    33 3.449668 0.054214 -1.085181 0.053336 0.070642 -0.350277
    34 1.711616 0.000006 0.000011 0.000003 -0.028854 -0.768320
    35 1.005912 0.000000 0.000005 0.025807 -0.031896 -1.166157
    36 0.075534 -0.738747 -0.759723 1.293529 0.406464 -0.475804
    37 2.512460 -0.000006 -0.000004 -0.000002 -0.000001 0.359160
    38 1.330078 0.052032 -0.119690 -0.334975 0.008687 -0.059326
    39 -5.712182 -22.446997 -6.597849 1.399768 -0.315094 1.590923
    40 -0.163176 2.333985 0.382082 3.101636 0.166381 -1.515363
    41 1.417019 1.884747 0.307373 -0.111807 0.161678 -1.589027
    42 4.056716 2.130811 0.350098 -3.110087 -0.046555 2.851964
  time 8
    0 0.000005 -2.660156 -8.640625 -1.570760 -1.391893 -1.570827
    1 2.033348 1.000767 1.937660 1.596636 -1.286515 2.942963
    2 6.028145 0.000003 0.000002 -0.647870 -0.686896 -2.006356
    3 11.692549 0.000081 -0.000005 -0.000015 0.000036 -1.151594
    4 11.481670 -0.000089 -0.000024 -0.053651 0.450557 0.312917
    5 3.281560 0.006028 -1.379481 0.060235 -0.190562 -0.990857
    6 1.328125 0.000000 0.000002 0.000002 -0.054909 -0.582390
    7 0.819336 -0.000002 0.000002 0.000000 0.000000 -0.523574
    8 3.711854 0.109258 -0.568167 -0.040167 -0.149172 -1.054271
    9 1.610352 0.000000 0.000000 -0.000002 0.001797 -0.427537
    10 0.993190 -0.000002 0.000002 0.001475 0.002258 -0.454063
    11 3.786034 0.207136 0.247844 0.056024 -0.075444 -0.596657
    12 1.684419 -0.000008 0.000009 -0.003018 0.005442 -1.095140
    13 1.256836 0.000005 -0.000003 0.000000 0.000000 -0.532315
    14 3.594223 0.303463 1.113710 -0.102377 -0.059973 -0.286259
    15 1.719431 0.000004 -0.000003 0.000000 0.000010 -0.778830
    16 1.005918 -0.000004 0.000005 0.097715 0.123148 0.228531
    17 0.298218 -0.630185 0.426700 -1.024144 -0.921509 -0.498191
    18 2.633561 0.000000 -0.000004 0.031002 -0.045087 0.423761
    19 1.308566 0.000001 0.000002 0.029208 -0.053608 -0.355923
    20 2.033356 1.000772 -1.937610 -1.668474 1.286518 2.942953
    21 6.028141 0.000000 -0.000002 1.754690 0.858837 -0.405271
    22 11.692554 0.000000 -0.000001 0.000034 -0.000012 -1.823341
    23 11.481701 -0.000001 -0.000007 -0.850338 -0.011734 1.190074
    24 2.914335 -0.023163 1.404053 0.005700 0.149255 -0.956695
    25 1.284180 -0.000002 0.000001 0.000007 -0.000008 -0.611443
    26 0.838744 0.000000 0.000000 0.053883 0.391803 -1.610229
    27 3.368063 0.007376 0.622456 0.036044 0.099261 -1.009923
    28 1.610352 0.000002 0.000000 -0.000007 0.259441 -1.086926
    29 1.015625 0.000002 0.000000 0.015558 0.182264 -1.340754
    30 3.555528 0.023919 -0.200566 0.012560 0.053537 -0.903374
    31 1.666992 0.000002 0.000000 -0.000009 0.314488 -1.208296
    32 1.243164 -0.000002 0.000000 -0.000007 0.196340 -1.483473
    33 3.449668 0.054214 -1.089088 0.053336 0.070642 -0.350277
    34 1.711616 0.000006 0.000011 0.000003 -0.028998 -0.771969
    35 1.005912 0.000000 0.000005 0.025999 -0.031992 -1.170892
    36 0.075534 -0.738747 -0.759723 1.293541 0.406464 -0.475804
    37 2.512460 -0.000006 -0.000004 -0.000002 -0.000001 0.359160
    38 1.330078 0.052032 -0.119690 -0.334975 0.008687 -0.059326
    39 -5.770777 -22.279023 -6.535347 1.401675 -0.389211 1.604636
    40 -0.163176 2.333985 0.382082 3.101636 0.166381 -1.515363
    41 1.417019 1.884747 0.307373 -0.111807 0.161678 -1.589027
    42 3.205127 2.369100 0.393068 -3.110087 -0.046555 2.851964
  time 9
    0 0.000005 -2.660156 -8.640625 -1.570760 -1.391893 -1.570827
    1 2.033348 1.000767 1.937660 1.596636 -1.286515 2.942963
    2 6.028145 0.000003 0.000002 -0.633693 -0.683092 -2.016477
    3 11.692549 0.000081 -0.000005 -0.000015 0.000024 -1.182211
    4 11.481670 -0.000089 -0.000024 0.038276 0.446735 0.440955
    5 3.281560 0.002122 -1.379481 0.060410 -0.190574 -0.991217
    6 1.328125 0.000000 0.000002 0.000002 -0.054909 -0.582390
    7 0.819336 -0.000002 0.000002 0.000000 0.000000 -0.523574
    8 3.711854 0.109258 -0.568167 -0.040000 -0.149184 -1.054587
    9 1.610352 0.000000 0.000000 -0.000002 0.001797 -0.427537
    10 0.993190 -0.000002 0.000002 0.001475 0.002258 -0.454063
    11 3.786034 0.203230 0.247844 0.056180 -0.075516 -0.596960
    12 1.684419 -0.000008 0.000009 -0.003018 0.005442 -1.095140
    13 1.256836 0.000005 -0.000003 0.000000 0.000000 -0.532315
    14 3.594223 0.299557 1.113710 -0.102262 -0.060105 -0.286564
    15 1.719431 0.000004 -0.000003 0.000000 0.000010 -0.778830
    16 1.005918 -0.000004 0.000005 0.097715 0.123148 0.228531
    17 0.298218 -0.634091 0.430606 -1.023890 -0.921604 -0.498701
    18 2.633561 0.000000 -0.000004 0.031014 -0.045087 0.423761
    19 1.308566 0.000001 0.000002 0.029208 -0.053608 -0.355923
    20 2.033356 1.000772 -1.937610 -1.668474 1.286518 2.942953
    21 6.028141 0.000000 -0.000002 1.805401 0.857703 -0.340971
    22 11.692554 0.000000 -0.000001 0.000046 -0.000012 -1.852124
    23 11.481701 -0.000001 -0.000007 -0.827646 -0.100799 1.268299
    24 2.914335 -0.023163 1.404053 0.005700 0.149255 -0.956695
    25 1.284180 -0.000002 0.000001 0.000007 -0.000008 -0.611443
    26 0.838744 0.000000 0.000000 0.053883 0.391803 -1.610229
    27 3.368063 0.007376 0.618550 0.036044 0.099261 -1.009923
    28 1.610352 0.000002 0.000000 -0.000007 0.259441 -1.086926
    29 1.015625 0.000002 0.000000 0.015558 0.182264 -1.340754
    30 3.551622 0.023919 -0.200566 0.012560 0.053537 -0.903374
    31 1.666992 0.000002 0.000000 -0.000009 0.314488 -1.208296
    32 1.243164 -0.000002 0.000000 -0.000007 0.196340 -1.483473
    33 3.449668 0.054214 -1.089088 0.053336 0.070642 -0.350277
    34 1.711616 0.000006 0.000011 0.000003 -0.029082 -0.773927
    35 1.005912 0.000000 0.000005 0.026106 -0.032052 -1.173359
    36 0.075534 -0.738747 -0.759723 1.293541 0.406464 -0.475804
    37 2.512460 -0.000006 -0.000004 -0.000002 -0.000001 0.359160
    38 1.330078 0.052032 -0.119690 -0.334975 0.008687 -0.059326
    39 -5.809841 -21.911824 -6.371280 1.387196 -0.456298 1.620254
    40 -0.163176 2.333985 0.382082 3.101636 0.166381 -1.515363
    41 1.417019 1.884747 0.307373 -0.111807 0.161678 -1.589027
    42 2.744176 2.498010 0.412600 -3.110087 -0.046555 2.851964
  time 10
    0 0.000005 -2.660156 -8.640625 -1.570760 -1.391893 -1.570827
    1 2.033348 1.000767 1.937660 1.596636 -1.286515 2.942963
    2 6.028145 0.000003 0.000002 -0.640970 -0.687035 -1.997714
    3 11.692549 0.000081 -0.000005 -0.000015 0.000024 -1.203961
    4 11.481670 -0.000089 -0.000024 0.167166 0.454970 0.426406
    5 3.281560 0.002122 -1.383387 0.060586 -0.190514 -0.991542
    6 1.328125 0.000000 0.000002 0.000002 -0.054909 -0.582390
    7 0.819336 -0.000002 0.000002 0.000000 0.000000 -0.523574
    8 3.711854 0.105351 -0.568167 -0.039832 -0.149100 -1.054902
    9 1.610352 0.000000 0.000000 -0.000002 0.001797 -0.427537
    10 0.993190 -0.000002 0.000002 0.001475 0.002258 -0.454063
    11 3.786034 0.203230 0.243937 0.056360 -0.075528 -0.597264
    12 1.684419 -0.000008 0.000009 -0.003018 0.005442 -1.095140
    13 1.256836 0.000005 -0.000003 0.000000 0.000000 -0.532315
    14 3.594223 0.299557 1.109803 -0.102074 -0.060165 -0.286869
    15 1.719431 0.000004 -0.000003 0.000000 0.000010 -0.778830
    16 1.005918 -0.000004 0.000005 0.097715 0.123148 0.228531
    17 0.298218 -0.634091 0.426700 -1.023607 -0.921628 -0.499210
    18 2.633561 0.000000 -0.000004 0.031014 -0.045087 0.423761
    19 1.308566 0.000001 0.000002 0.029208 -0.053608 -0.355923
    20 2.033356 1.000772 -1.937610 -1.668474 1.286518 2.942953
    21 6.028141 0.000000 -0.000002 1.845322 0.846627 -0.289917
    22 11.692554 0.000000 -0.000001 0.000046 -0.000012 -1.869489
    23 11.481701 -0.000001 -0.000007 -0.777264 -0.125536 1.282907
    24 2.914335 -0.027070 1.396240 0.005584 0.149722 -0.956816
    25 1.284180 -0.000002 0.000001 0.000007 -0.000008 -0.611443
    26 0.838744 0.000000 0.000000 0.053883 0.391803 -1.610229
    27 3.368063 0.007376 0.622456 0.035912 0.099716 -1.010033
    28 1.610352 0.000002 0.000000 -0.000007 0.259441 -1.086926
    29 1.015625 0.000002 0.000000 0.015558 0.182264 -1.340754
    30 3.555528 0.023919 -0.208379 0.012477 0.054017 -0.903466
    31 1.666992 0.000002 0.000000 -0.000009 0.314488 -1.208296
    32 1.243164 -0.000002 0.000000 -0.000007 0.196340 -1.483473
    33 3.449668 0.054214 -1.089088 0.053535 0.071085 -0.350361
    34 1.711616 0.000006 0.000011 0.000003 -0.029058 -0.773444
    35 1.005912 0.000000 0.000005 0.026082 -0.032028 -1.172792
    36 0.075534 -0.734840 -0.759723 1.293661 0.406936 -0.475840
    37 2.512460 -0.000006 -0.000004 -0.000002 -0.000001 0.359160
    38 1.330078 0.052032 -0.119690 -0.334975 0.008687 -0.059326
    39 -6.009066 -21.716506 -6.082208 1.352818 -0.448675 1.626444
    40 -0.163176 2.333985 0.382082 3.101636 0.166381 -1.515363
    41 1.417019 1.884747 0.307373 -0.111807 0.161678 -1.589027
    42 2.744176 2.498010 0.412600 -3.110087 -0.046555 2.851964
  time 11
    0 0.000005 -2.660156 -8.640625 -1.570760 -1.391893 -1.570827
    1 2.033348 1.000767 1.937660 1.596636 -1.286515 2.942963
    2 6.028145 0.000003 0.000002 -0.622966 -0.707864 -2.014032
    3 11.692549 0.000081 -0.000005 -0.000015 0.000024 -1.175622
    4 11.481670 -0.000089 -0.000024 0.264168 0.466804 0.362510
    5 3.281560 0.002122 -1.379481 0.060568 -0.190478 -0.991542
    6 1.328125 0.000000 0.000002 0.000002 -0.054909 -0.582390
    7 0.819336 -0.000002 0.000002 0.000000 0.000000 -0.523574
    8 3.711854 0.105351 -0.568167 -0.039844 -0.149064 -1.054902
    9 1.610352 0.000000 0.000000 -0.000002 0.001797 -0.427537
    10 0.993190 -0.000002 0.000002 0.001475 0.002258 -0.454063
    11 3.786034 0.203230 0.247844 0.056360 -0.075492 -0.597264
    12 1.684419 -0.000008 0.000009 -0.003018 0.005442 -1.095198
    13 1.256836 0.000005 -0.000003 0.000000 0.000000 -0.532315
    14 3.594223 0.299557 1.109803 -0.102060 -0.060141 -0.286869
    15 1.719431 0.000004 -0.000003 0.000000 0.000010 -0.778830
    16 1.005918 -0.000004 0.000005 0.097715 0.123148 0.228531
    17 0.298218 -0.634091 0.426700 -1.023592 -0.921592 -0.499233
    18 2.633561 0.000000 -0.000004 0.031002 -0.045087 0.423761
    19 1.308566 0.000001 0.000002 0.029208 -0.053608 -0.355923
    20 2.033356 1.000772 -1.937610 -1.668474 1.286518 2.942953
    21 6.028141 0.000000 -0.000002 1.866204 0.824331 -0.263073
    22 11.692554 0.000000 -0.000001 0.000046 -0.000024 -1.902792
    23 11.481701 -0.000001 -0.000007 -0.650004 0.024663 1.221939
    24 2.914335 -0.023163 1.404053 0.005700 0.149255 -0.956695
    25 1.284180 -0.000002 0.000001 0.000007 -0.000008 -0.611443
    26 0.838744 0.000000 0.000000 0.053883 0.391803 -1.610270
    27 3.368063 0.007376 0.622456 0.036044 0.099261 -1.009923
    28 1.610352 0.000002 0.000000 -0.000007 0.259441 -1.086926
    29 1.015625 0.000002 0.000000 0.015558 0.182264 -1.340754
    30 3.555528 0.023919 -0.200566 0.012560 0.053537 -0.903374
    31 1.666992 0.000002 0.000000 -0.000009 0.314488 -1.208296
    32 1.243164 -0.000002 0.000000 -0.000007 0.196340 -1.483473
    33 3.449668 0.054214 -1.089088 0.053336 0.070642 -0.350277
    34 1.711616 0.000006 0.000011 0.000003 -0.028914 -0.769796
    35 1.005912 0.000000 0.000005 0.025891 -0.031932 -1.168057
    36 0.075534 -0.738747 -0.755817 1.293541 0.406464 -0.475804
    37 2.512460 -0.000006 -0.000004 -0.000002 -0.000001 0.359160
    38 1.330078 0.052032 -0.119690 -0.334975 0.008687 -0.059326
    39 -6.458298 -21.435247 -5.132961 1.269701 -0.258926 1.587781
    40 -0.163176 2.333985 0.382082 3.101636 0.166381 -1.515363
    41 1.417019 1.884747 0.307373 -0.111807 0.161678 -1.589027
    42 2.744176 2.498010 0.412600 -3.110087 -0.046555 2.851964
  time 12
    0 0.000005 -2.660156 -8.640625 -1.570760 -1.391893 -1.570827
    1 2.033348 1.000767 1.937660 1.596636 -1.286515 2.942963
    2 6.028145 0.000003 0.000002 -0.606525 -0.713802 -2.033249
    3 11.692549 0.000081 -0.000005 -0.000015 0.000036 -1.164178
    4 11.481670 -0.000089 -0.000024 0.285522 0.467788 0.344914
    5 3.281560 0.002122 -1.383387 0.060410 -0.190574 -0.991217
    6 1.328125 0.000000 0.000002 0.000002 -0.054909 -0.582390
    7 0.819336 -0.000002 0.000002 0.000000 0.000000 -0.523574
    8 3.711854 0.109258 -0.568167 -0.040000 -0.149172 -1.054587
    9 1.610352 0.000000 0.000000 -0.000002 0.001797 -0.427537
    10 0.993190 -0.000002 0.000002 0.001475 0.002258 -0.454063
    11 3.786034 0.203230 0.247844 0.056180 -0.075516 -0.596960
    12 1.684419 -0.000008 0.000009 -0.003030 0.005442 -1.095140
    13 1.256836 0.000005 -0.000003 0.000000 0.000000 -0.532315
    14 3.594223 0.299557 1.113710 -0.102262 -0.060105 -0.286564
    15 1.719431 0.000004 -0.000003 0.000000 0.000010 -0.778830
    16 1.005918 -0.000004 0.000005 0.097715 0.123148 0.228531
    17 0.298218 -0.634091 0.426700 -1.023890 -0.921604 -0.498701
    18 2.633561 0.000000 -0.000004 0.031002 -0.045087 0.423761
    19 1.308566 0.000001 0.000002 0.029208 -0.053608 -0.355901
    20 2.033356 1.000772 -1.937610 -1.668474 1.286518 2.942953
    21 6.028141 0.000000 -0.000002 1.865543 0.799505 -0.264016
    22 11.692554 0.000000 -0.000001 0.000046 -0.000012 -1.942577
    23 11.481701 -0.000001 -0.000007 -0.547559 0.208569 1.175503
    24 2.914335 -0.023163 1.404053 0.005700 0.149255 -0.956695
    25 1.284180 -0.000002 0.000001 0.000007 -0.000008 -0.611443
    26 0.838744 0.000000 0.000000 0.053883 0.391803 -1.610229
    27 3.368063 0.007376 0.622456 0.036044 0.099261 -1.009923
    28 1.610352 0.000002 0.000000 -0.000007 0.259441 -1.086926
    29 1.015625 0.000002 0.000000 0.015558 0.182264 -1.340754
    30 3.555528 0.023919 -0.200566 0.012560 0.053537 -0.903374
    31 1.666992 0.000002 0.000000 -0.000009 0.314488 -1.208296
    32 1.243164 -0.000002 0.000000 -0.000007 0.196340 -1.483473
    33 3.449668 0.054214 -1.085181 0.053336 0.070642 -0.350277
    34 1.711616 0.000006 0.000011 0.000003 -0.028603 -0.762257
    35 1.005912 0.000000 0.000005 0.025459 -0.031729 -1.158360
    36 0.075534 -0.738747 -0.759723 1.293529 0.406464 -0.475804
    37 2.512460 -0.000006 -0.000004 -0.000002 -0.000001 0.359160
    38 1.330078 0.052032 -0.119690 -0.334975 0.008687 -0.059326
    39 -6.930969 -20.915700 -4.347780 1.187597 -0.061426 1.529310
    40 -0.163176 2.333985 0.382082 3.051888 0.156374 -1.823754
    41 1.417019 1.884747 0.307373 -0.111807 0.161678 -1.589027
    42 2.744176 2.498010 0.412600 -3.110087 -0.046555 2.851964
  time 13
    0 0.000005 -2.660156 -8.640625 -1.570760 -1.391893 -1.570827
    1 2.033348 1.000767 1.937660 1.596636 -1.286515 2.942963
    2 6.028145 0.000003 0.000002 -0.591810 -0.708792 -2.054172
    3 11.692549 0.000081 -0.000005 -0.000003 0.000024 -1.164822
    4 11.481670 -0.000089 -0.000024 0.277765 0.457950 0.360151
    5 3.281560 0.002122 -1.383387 0.060410 -0.190574 -0.991217
    6 1.328125 0.000000 0.000002 0.000002 -0.054909 -0.582390
    7 0.819336 -0.000002 0.000002 0.000000 0.000000 -0.523574
    8 3.711854 0.109258 -0.568167 -0.040000 -0.149172 -1.054587
    9 1.610352 0.000000 0.000000 -0.000002 0.001797 -0.427537
    10 0.993190 -0.000002 0.000002 0.001475 0.002258 -0.454063
    11 3.786034 0.203230 0.247844 0.056180 -0.075516 -0.596960
    12 1.684419 -0.000008 0.000009 -0.003018 0.005442 -1.095198
    13 1.256836 0.000005 -0.000003 0.000000 0.000000 -0.532315
    14 3.594223 0.299557 1.109803 -0.102262 -0.060105 -0.286564
    15 1.719431 0.000004 -0.000003 0.000000 0.000010 -0.778830
    16 1.005918 -0.000004 0.000005 0.097715 0.123148 0.228531
    17 0.298218 -0.634091 0.426700 -1.023890 -0.921604 -0.498701
    18 2.633561 0.000000 -0.000004 0.031002 -0.045087 0.423761
    19 1.308566 0.000001 0.000002 0.029208 -0.053608 -0.355923
    20 2.033356 1.000772 -1.937610 -1.668474 1.286518 2.942953
    21 6.028141 0.000000 -0.000002 1.848767 0.778458 -0.285751
    22 11.692554 0.000000 -0.000001 0.000046 -0.000012 -1.977783
    23 11.481701 -0.000001 -0.000007 -0.529468 0.264217 1.171832
    24 2.914335 -0.023163 1.400147 0.005700 0.149255 -0.956695
    25 1.284180 -0.000002 0.000001 0.000007 -0.000008 -0.611443
    26 0.838744 0.000000 0.000000 0.053883 0.391803 -1.610229
    27 3.368063 0.007376 0.618550 0.036044 0.099261 -1.009923
    28 1.610352 0.000002 0.000000 -0.000007 0.259441 -1.086926
    29 1.015625 0.000002 0.000000 0.015558 0.182264 -1.340754
    30 3.555528 0.023919 -0.200566 0.012560 0.053537 -0.903374
    31 1.666992 0.000002 0.000000 -0.000009 0.314488 -1.208296
    32 1.243164 -0.000002 0.000000 -0.000007 0.196340 -1.483473
    33 3.449668 0.054214 -1.089088 0.053336 0.070642 -0.350277
    34 1.711616 0.000006 0.000011 0.000003 -0.028087 -0.750050
    35 1.002005 0.000000 0.000005 0.024776 -0.031393 -1.142624
    36 0.075534 -0.738747 -0.759723 1.293529 0.406464 -0.475804
    37 2.512460 -0.000006 -0.000004 -0.000002 -0.000001 0.359148
    38 1.330078 0.052032 -0.119690 -0.334975 0.008687 -0.059326
    39 -7.067692 -20.552408 -4.332155 1.165015 -0.012572 1.512073
    40 -0.163176 2.333985 0.382082 3.041905 0.154360 -1.885655
    41 1.417019 1.884747 0.307373 -0.111807 0.161678 -1.589027
    42 2.744176 2.498010 0.412600 -3.110087 -0.046555 2.851964
  time 14
    0 0.000005 -2.660156 -8.640625 -1.570760 -1.391893 -1.570827
    1 2.033348 1.000767 1.937660 1.596636 -1.286515 2.942963
    2 6.028145 0.000003 0.000002 -0.584533 -0.703828 -2.065316
    3 11.692549 0.000081 -0.000005 -0.000003 0.000048 -1.168686
    4 11.481670 -0.000089 -0.000024 0.252390 0.446903 0.387970
    5 3.285467 0.006028 -1.383387 0.060621 -0.190430 -0.991650
    6 1.328125 0.000000 0.000002 0.000002 -0.054909 -0.582390
    7 0.819336 -0.000002 0.000002 0.000000 0.000000 -0.523574
    8 3.711854 0.109258 -0.568167 -0.039784 -0.149016 -1.055043
    9 1.610352 0.000000 0.000000 -0.000002 0.001797 -0.427537
    10 0.993190 -0.000002 0.000002 0.001475 0.002258 -0.454063
    11 3.789941 0.207136 0.243937 0.056444 -0.075468 -0.597401
    12 1.684419 -0.000008 0.000009 -0.003018 0.005442 -1.095198
    13 1.256836 0.000005 -0.000003 0.000000 0.000000 -0.532315
    14 3.594223 0.303463 1.113710 -0.102002 -0.060129 -0.287000
    15 1.719431 0.000004 -0.000003 0.000000 0.000010 -0.778830
    16 1.005918 -0.000004 0.000005 0.097715 0.123148 0.228549
    17 0.298218 -0.630185 0.426700 -1.023465 -0.921580 -0.499454
    18 2.633561 0.000000 -0.000004 0.031002 -0.045087 0.423761
    19 1.308566 0.000001 0.000002 0.029208 -0.053608 -0.355901
    20 2.033356 1.000772 -1.937610 -1.668474 1.286518 2.942953
    21 6.028141 0.000000 -0.000002 1.833488 0.770958 -0.305481
    22 11.692554 0.000000 -0.000001 0.000046 -0.000012 -1.991580
    23 11.481701 -0.000001 -0.000007 -0.525752 0.297853 1.165588
    24 2.914335 -0.023163 1.404053 0.005700 0.149255 -0.956695
    25 1.284180 -0.000002 0.000001 0.000007 -0.000008 -0.611443
    26 0.838744 0.000000 0.000000 0.053883 0.391803 -1.610270
    27 3.368063 0.007376 0.618550 0.036044 0.099261 -1.009923
    28 1.610352 0.000002 0.000000 -0.000007 0.259441 -1.086926
    29 1.015625 0.000002 0.000000 0.015558 0.182264 -1.340754
    30 3.551622 0.023919 -0.200566 0.012560 0.053537 -0.903374
    31 1.666992 0.000002 0.000000 -0.000009 0.314488 -1.208296
    32 1.243164 -0.000002 0.000000 -0.000007 0.196340 -1.483473
    33 3.449668 0.054214 -1.085181 0.053336 0.070642 -0.350277
    34 1.711616 0.000006 0.000011 0.000003 -0.027428 -0.734355
    35 1.005912 0.000000 0.000005 0.023913 -0.030938 -1.122465
    36 0.075534 -0.738747 -0.759723 1.293541 0.406464 -0.475804
    37 2.512460 -0.000006 -0.000004 -0.000002 -0.000001 0.359160
    38 1.330078 0.052032 -0.119690 -0.334975 0.008687 -0.059326
    39 -7.098943 -20.396153 -4.355593 1.153516 0.012356 1.503217
    40 -0.163176 2.333985 0.382082 3.036093 0.153222 -1.921791
    41 1.417019 1.884747 0.307373 -0.111807 0.161678 -1.589027
    42 2.744176 2.498010 0.412600 -3.110087 -0.046555 2.851964
  time 15
    0 0.000005 -2.660156 -8.640625 -1.570760 -1.391893 -1.570827
    1 2.033348 1.000767 1.937660 1.596636 -1.286515 2.942963
    2 6.028145 0.000003 0.000002 -0.585719 -0.704199 -2.063156
    3 11.692549 0.000081 -0.000005 -0.000003 0.000156 -1.170123
    4 11.481670 -0.000089 -0.000024 0.213321 0.442406 0.408220
    5 3.285467 0.006028 -1.379481 0.060586 -0.190191 -0.991650
    6 1.328125 0.000000 0.000002 0.000002 -0.054909 -0.582390
    7 0.819336 -0.000002 0.000002 0.000000 0.000000 -0.523574
    8 3.711854 0.109258 -0.568167 -0.039832 -0.148777 -1.055043
    9 1.610352 0.000000 0.000000 -0.000002 0.001797 -0.427537
    10 0.993190 -0.000002 0.000002 0.001475 0.002258 -0.454063
    11 3.789941 0.207136 0.243937 0.056516 -0.075240 -0.597401
    12 1.684419 -0.000008 0.000009 -0.003018 0.005442 -1.095198
    13 1.256836 0.000005 -0.000003 0.000000 0.000000 -0.532315
    14 3.594223 0.303463 1.113710 -0.101858 -0.059937 -0.287000
    15 1.719431 0.000004 -0.000003 0.000000 0.000010 -0.778830
    16 1.005918 -0.000004 0.000005 0.097715 0.123148 0.228531
    17 0.298218 -0.630185 0.430606 -1.023338 -0.921353 -0.499565
    18 2.633561 0.000000 -0.000004 0.031014 -0.045087 0.423761
    19 1.308566 0.000001 0.000002 0.029208 -0.053608 -0.355901
    20 2.033356 1.000772 -1.937610 -1.668474 1.286518 2.942953
    21 6.028141 0.000000 -0.000002 1.814798 0.775348 -0.329416
    22 11.692554 0.000000 -0.000001 0.000046 -0.000012 -1.986941
    23 11.481701 -0.000001 -0.000007 -0.541897 0.304791 1.156240
    24 2.914335 -0.023163 1.404053 0.005700 0.149255 -0.956695
    25 1.284180 -0.000002 0.000001 0.000007 -0.000008 -0.611443
    26 0.838744 0.000000 0.000000 0.053883 0.391803 -1.610229
    27 3.368063 0.007376 0.622456 0.036044 0.099261 -1.009923
    28 1.610352 0.000002 0.000000 -0.000007 0.259441 -1.086926
    29 1.015625 0.000002 0.000000 0.015558 0.182264 -1.340754
    30 3.551622 0.023919 -0.200566 0.012560 0.053537 -0.903374
    31 1.666992 0.000002 0.000000 -0.000009 0.314488 -1.208296
    32 1.243164 -0.000002 0.000000 -0.000007 0.196340 -1.483473
    33 3.449668 0.054214 -1.085181 0.053336 0.070642 -0.350277
    34 1.711616 0.000006 0.000011 0.000003 -0.026685 -0.716810
    35 1.005912 0.000000 0.000005 0.022966 -0.030410 -1.099896
    36 0.075534 -0.738747 -0.759723 1.293529 0.406464 -0.475804
    37 2.512460 -0.000006 -0.000004 -0.000002 -0.000001 0.359160
    38 1.330078 0.052032 -0.119690 -0.334975 0.008687 -0.059326
    39 -6.989565 -20.466468 -4.492316 1.157746 0.007669 1.507407
    40 -0.163176 2.333985 0.382082 3.032497 0.152503 -1.944133
    41 1.417019 1.884747 0.307373 -0.111807 0.161678 -1.589027
    42 2.744176 2.498010 0.412600 -3.110087 -0.046555 2.851964
  time 16
    0 0.000005 -2.660156 -8.640625 -1.570760 -1.391893 -1.570827
    1 2.033348 1.000767 1.937660 1.596636 -1.286515 2.942963
    2 6.028145 0.000003 0.000002 -0.591702 -0.703874 -2.055366
    3 11.692549 0.000081 -0.000005 -0.000015 0.000036 -1.172501
    4 11.481670 -0.000089 -0.000024 0.170134 0.440916 0.427881
    5 3.281560 0.002122 -1.379481 0.060410 -0.190574 -0.991217
    6 1.328125 0.000000 0.000002 0.000002 -0.054909 -0.582390
    7 0.819336 -0.000002 0.000002 0.000000 0.000000 -0.523574
    8 3.711854 0.109258 -0.568167 -0.040000 -0.149172 -1.054587
    9 1.610352 0.000000 0.000000 -0.000002 0.001797 -0.427537
    10 0.993190 -0.000002 0.000002 0.001475 0.002258 -0.454063
    11 3.786034 0.203230 0.243937 0.056180 -0.075516 -0.596960
    12 1.684419 -0.000008 0.000009 -0.003030 0.005442 -1.095198
    13 1.256836 0.000005 -0.000003 0.000000 0.000000 -0.532315
    14 3.594223 0.299557 1.113710 -0.102262 -0.060105 -0.286564
    15 1.719431 0.000004 -0.000003 0.000000 0.000010 -0.778830
    16 1.005918 -0.000004 0.000005 0.097715 0.123148 0.228531
    17 0.298218 -0.634091 0.426700 -1.023890 -0.921604 -0.498701
    18 2.633561 0.000000 -0.000004 0.031002 -0.045087 0.423761
    19 1.308566 0.000001 0.000002 0.029208 -0.053608 -0.355923
    20 2.033356 1.000772 -1.937610 -1.668474 1.286518 2.942953
    21 6.028141 0.000000 -0.000002 1.790052 0.782760 -0.361055
    22 11.692554 0.000000 -0.000001 0.000046 -0.000024 -1.976177
    23 11.481701 -0.000001 -0.000007 -0.570472 0.300214 1.143108
    24 2.914335 -0.023163 1.404053 0.005700 0.149255 -0.956695
    25 1.284180 -0.000002 0.000001 0.000007 -0.000008 -0.611443
    26 0.838744 0.000000 0.000000 0.053883 0.391803 -1.610229
    27 3.368063 0.007376 0.622456 0.036044 0.099261 -1.009923
    28 1.610352 0.000002 0.000000 -0.000007 0.259441 -1.086926
    29 1.015625 0.000002 0.000000 0.015558 0.182264 -1.340754
    30 3.555528 0.023919 -0.200566 0.012560 0.053537 -0.903374
    31 1.666992 0.000002 0.000000 -0.000009 0.314488 -1.208296
    32 1.243164 -0.000002 0.000000 -0.000007 0.196340 -1.483473
    33 3.449668 0.054214 -1.085181 0.053336 0.070642 -0.350277
    34 1.711616 0.000006 0.000011 0.000003 -0.025858 -0.697601
    35 1.005912 0.000000 0.000005 0.021948 -0.029799 -1.075144
    36 0.075534 -0.738747 -0.759723 1.293529 0.406464 -0.475804
    37 2.512460 -0.000006 -0.000004 -0.000002 -0.000001 0.359160
    38 1.330078 0.052032 -0.119690 -0.334975 0.008687 -0.059326
    39 -6.809872 -20.622723 -4.714979 1.170318 -0.010924 1.519406
    40 -0.163176 2.333985 0.382082 3.030304 0.152059 -1.957654
    41 1.417019 1.884747 0.307373 -0.111807 0.161678 -1.589027
    42 2.744176 2.498010 0.412600 -3.110087 -0.046555 2.851964
  time 17
    0 0.000005 -2.660156 -8.640625 -1.570760 -1.391893 -1.570827
    1 2.033348 1.000767 1.937660 1.596636 -1.286515 2.942963
    2 6.028145 0.000003 0.000002 -0.603130 -0.699235 -2.044564
    3 11.692549 0.000081 -0.000005 -0.000015 0.000036 -1.173987
    4 11.481670 -0.000089 -0.000024 0.128863 0.440804 0.446165
    5 3.281560 0.002122 -1.379481 0.060410 -0.190574 -0.991217
    6 1.328125 0.000000 0.000002 0.000002 -0.054909 -0.582390
    7 0.819336 -0.000002 0.000002 0.000000 0.000000 -0.523574
    8 3.711854 0.109258 -0.568167 -0.040000 -0.149172 -1.054587
    9 1.610352 0.000000 0.000000 -0.000002 0.001797 -0.427537
    10 0.993190 -0.000002 0.000002 0.001475 0.002258 -0.454063
    11 3.786034 0.203230 0.247844 0.056180 -0.075516 -0.596960
    12 1.684419 -0.000008 0.000009 -0.003018 0.005442 -1.095198
    13 1.256836 0.000005 -0.000003 0.000000 0.000000 -0.532315
    14 3.594223 0.299557 1.113710 -0.102262 -0.060105 -0.286564
    15 1.719431 0.000004 -0.000003 0.000000 0.000010 -0.778830
    16 1.005918 -0.000004 0.000005 0.097715 0.123148 0.228531
    17 0.298218 -0.634091 0.426700 -1.023890 -0.921604 -0.498701
    18 2.633561 0.000000 -0.000004 0.031014 -0.045087 0.423761
    19 1.308566 0.000001 0.000002 0.029208 -0.053608 -0.355923
    20 2.033356 1.000772 -1.937610 -1.668474 1.286518 2.942953
    21 6.028141 0.000000 -0.000002 1.762382 0.791569 -0.396350
    22 11.692554 0.000000 -0.000001 0.000046 -0.000012 -1.960656
    23 11.481701 -0.000001 -0.000007 -0.605948 0.282089 1.128613
    24 2.914335 -0.023163 1.400147 0.005700 0.149255 -0.956695
    25 1.284180 -0.000002 0.000001 0.000007 -0.000008 -0.611443
    26 0.838744 0.000000 0.000000 0.053883 0.391803 -1.610229
    27 3.368063 0.007376 0.618550 0.036044 0.099261 -1.009923
    28 1.610352 0.000002 0.000000 -0.000007 0.259441 -1.086926
    29 1.015625 0.000002 0.000000 0.015558 0.182264 -1.340754
    30 3.551622 0.023919 -0.200566 0.012560 0.053537 -0.903374
    31 1.666992 0.000002 0.000000 -0.000009 0.314488 -1.208296
    32 1.243164 -0.000002 0.000000 -0.000007 0.196340 -1.483473
    33 3.449668 0.054214 -1.089088 0.053336 0.070642 -0.350277
    34 1.711616 0.000006 0.000011 0.000003 -0.024959 -0.676889
    35 1.005912 0.000000 0.000005 0.020845 -0.029128 -1.048520
    36 0.075534 -0.738747 -0.759723 1.293541 0.406464 -0.475804
    37 2.512460 -0.000006 -0.000004 -0.000002 -0.000001 0.359160
    38 1.330078 0.052032 -0.119690 -0.334975 0.008687 -0.059326
    39 -6.567677 -20.841479 -5.019676 1.188431 -0.042472 1.539595
    40 -0.163176 2.333985 0.382082 3.028926 0.151784 -1.966214
    41 1.417019 1.884747 0.307373 -0.111807 0.161678 -1.589027
    42 2.744176 2.498010 0.412600 -3.110087 -0.046555 2.851964
  time 18
    0 0.000005 -2.660156 -8.640625 -1.570760 -1.391893 -1.570827
    1 2.033348 1.000767 1.937660 1.596636 -1.286515 2.942963
    2 6.028145 0.000003 0.000002 -0.620001 -0.691442 -2.029781
    3 11.692549 0.000081 -0.000005 -0.000015 0.000036 -1.174037
    4 11.481670 -0.000089 -0.000024 0.089698 0.443109 0.459435
    5 3.281560 0.006028 -1.383387 0.060235 -0.190622 -0.990857
    6 1.328125 0.000000 0.000002 0.000002 -0.054909 -0.582390
    7 0.819336 -0.000002 0.000002 0.000000 0.000000 -0.523574
    8 3.711854 0.109258 -0.568167 -0.040156 -0.149232 -1.054271
    9 1.610352 0.000000 0.000000 -0.000002 0.001797 -0.427537
    10 0.993190 -0.000002 0.000002 0.001475 0.002258 -0.454063
    11 3.786034 0.207136 0.247844 0.056012 -0.075504 -0.596657
    12 1.684419 -0.000008 0.000009 -0.003018 0.005442 -1.095198
    13 1.256836 0.000005 -0.000003 0.000000 0.000000 -0.532315
    14 3.594223 0.303463 1.113710 -0.102406 -0.060033 -0.286259
    15 1.719431 0.000004 -0.000003 0.000000 0.000010 -0.778830
    16 1.005918 -0.000004 0.000005 0.097715 0.123148 0.228531
    17 0.298218 -0.630185 0.430606 -1.024173 -0.921580 -0.498169
    18 2.633561 0.000000 -0.000004 0.031014 -0.045087 0.423761
    19 1.308566 0.000001 0.000002 0.029208 -0.053608 -0.355923
    20 2.033356 1.000772 -1.937610 -1.668474 1.286518 2.942953
    21 6.028141 0.000000 -0.000002 1.734747 0.800319 -0.431605
    22 11.692554 0.000000 -0.000001 0.000046 -0.000012 -1.942636
    23 11.481701 -0.000001 -0.000007 -0.647704 0.242677 1.118622
    24 2.914335 -0.023163 1.404053 0.005700 0.149255 -0.956695
    25 1.284180 -0.000002 0.000001 0.000007 -0.000008 -0.611443
    26 0.838744 0.000000 0.000000 0.053883 0.391803 -1.610229
    27 3.368063 0.007376 0.622456 0.036044 0.099261 -1.009923
    28 1.610352 0.000002 0.000000 -0.000007 0.259441 -1.086926
    29 1.015625 0.000002 0.000000 0.015558 0.182264 -1.340754
    30 3.551622 0.023919 -0.200566 0.012560 0.053537 -0.903374
    31 1.666992 0.000002 0.000000 -0.000009 0.314488 -1.208296
    32 1.243164 -0.000002 0.000000 -0.000007 0.196340 -1.483473
    33 3.449668 0.054214 -1.085181 0.053336 0.070642 -0.350277
    34 1.711616 0.000006 0.000011 0.000003 -0.023989 -0.654836
    35 1.002005 0.000000 0.000005 0.019707 -0.028373 -1.020167
    36 0.075534 -0.738747 -0.759723 1.293529 0.406464 -0.475804
    37 2.512460 -0.000006 -0.000004 -0.000002 -0.000001 0.359160
    38 1.330078 0.052032 -0.119690 -0.334975 0.008687 -0.059326
    39 -6.274699 -21.083674 -5.398594 1.212979 -0.093231 1.569687
    40 -0.163176 2.333985 0.382082 3.028087 0.151616 -1.971474
    41 1.417019 1.884747 0.307373 -0.111807 0.161678 -1.589027
    42 2.744176 2.498010 0.412600 -3.110087 -0.046555 2.851964
  time 19
    0 0.000005 -2.660156 -8.640625 -1.570760 -1.391893 -1.570827
    1 2.033348 1.000767 1.937660 1.596636 -1.286515 2.942963
    2 6.028145 0.000003 0.000002 -0.640269 -0.681700 -2.012497
    3 11.692549 0.000081 -0.000005 -0.000015 0.000036 -1.172699
    4 11.481670 -0.000089 -0.000024 0.053023 0.447887 0.468282
    5 3.281560 0.002122 -1.379481 0.060410 -0.190574 -0.991217
    6 1.328125 0.000000 0.000002 0.000002 -0.054909 -0.582390
    7 0.819336 -0.000002 0.000002 0.000000 0.000000 -0.523574
    8 3.711854 0.109258 -0.568167 -0.040000 -0.149184 -1.054587
    9 1.610352 0.000000 0.000000 -0.000002 0.001797 -0.427537
    10 0.993190 -0.000002 0.000002 0.001475 0.002258 -0.454063
    11 3.786034 0.203230 0.247844 0.056180 -0.075516 -0.596960
    12 1.684419 -0.000008 0.000009 -0.003018 0.005442 -1.095198
    13 1.256836 0.000005 -0.000003 0.000000 0.000000 -0.532315
    14 3.594223 0.299557 1.113710 -0.102262 -0.060105 -0.286564
    15 1.719431 0.000004 -0.000003 0.000000 0.000010 -0.778830
    16 1.005918 -0.000004 0.000005 0.097715 0.123148 0.228531
    17 0.298218 -0.634091 0.430606 -1.023890 -0.921604 -0.498701
    18 2.633561 0.000000 -0.000004 0.031002 -0.045087 0.423761
    19 1.308566 0.000001 0.000002 0.029208 -0.053608 -0.355901
    20 2.033356 1.000772 -1.937610 -1.668474 1.286518 2.942953
    21 6.028141 0.000000 -0.000002 1.712124 0.808313 -0.460492
    22 11.692554 0.000000 -0.000001 0.000046 -0.000012 -1.924439
    23 11.481701 -0.000001 -0.000007 -0.693751 0.197818 1.114005
    24 2.914335 -0.023163 1.404053 0.005700 0.149255 -0.956695
    25 1.284180 -0.000002 0.000001 0.000007 -0.000008 -0.611443
    26 0.838744 0.000000 0.000000 0.053871 0.391803 -1.610229
    27 3.368063 0.007376 0.618550 0.036044 0.099261 -1.009923
    28 1.610352 0.000002 0.000000 -0.000007 0.259441 -1.086926
    29 1.015625 0.000002 0.000000 0.015558 0.182264 -1.340754
    30 3.551622 0.023919 -0.200566 0.012560 0.053537 -0.903374
    31 1.666992 0.000002 0.000000 -0.000009 0.314488 -1.208296
    32 1.243164 -0.000002 0.000000 -0.000007 0.196340 -1.483473
    33 3.449668 0.054214 -1.089088 0.053348 0.070642 -0.350277
    34 1.711616 0.000006 0.000011 0.000003 -0.022970 -0.631630
    35 1.002005 0.000000 0.000005 0.018520 -0.027546 -0.990311
    36 0.075534 -0.738747 -0.759723 1.293529 0.406464 -0.475804
    37 2.512460 -0.000006 -0.000004 -0.000002 -0.000001 0.359160
    38 1.330078 0.052032 -0.119690 -0.334975 0.008687 -0.059326
    39 -5.997347 -21.306337 -5.777511 1.243723 -0.148575 1.597209
    40 -0.163176 2.333985 0.382082 3.027632 0.151520 -1.974302
    41 1.417019 1.884747 0.307373 -0.111807 0.161678 -1.589027
    42 2.744176 2.498010 0.412600 -3.110087 -0.046555 2.851964
  time 20
    0 0.000005 -2.660156 -8.640625 -1.570760 -1.391893 -1.570827
    1 2.033348 1.000767 1.937660 1.596636 -1.286515 2.942963
    2 6.028145 0.000003 0.000002 -0.661022 -0.671077 -1.995724
    3 11.692549 0.000081 -0.000005 -0.000015 0.000024 -1.169528
    4 11.481670 -0.000089 -0.000024 0.019699 0.453734 0.471723
    5 3.281560 0.002122 -1.379481 0.060428 -0.190574 -0.991217
    6 1.328125 0.000000 0.000002 0.000002 -0.054909 -0.582390
    7 0.819336 -0.000002 0.000002 0.000000 0.000000 -0.523574
    8 3.711854 0.109258 -0.568167 -0.040000 -0.149172 -1.054587
    9 1.610352 0.000000 0.000000 -0.000002 0.001797 -0.427537
    10 0.993190 -0.000002 0.000002 0.001475 0.002258 -0.454063
    11 3.786034 0.203230 0.247844 0.056180 -0.075516 -0.596960
    12 1.684419 -0.000008 0.000009 -0.003018 0.005442 -1.095140
    13 1.256836 0.000005 -0.000003 0.000000 0.000000 -0.532315
    14 3.594223 0.299557 1.113710 -0.102248 -0.060105 -0.286564
    15 1.719431 0.000004 -0.000003 0.000000 0.000010 -0.778830
    16 1.005918 -0.000004 0.000005 0.097715 0.123148 0.228531
    17 0.298218 -0.634091 0.426700 -1.023890 -0.921604 -0.498701
    18 2.633561 0.000000 -0.000004 0.031002 -0.045087 0.423761
    19 1.308566 0.000001 0.000002 0.029208 -0.053608 -0.355923
    20 2.033356 1.000772 -1.937610 -1.668474 1.286518 2.942953
    21 6.028141 0.000000 -0.000002 1.691624 0.814040 -0.486747
    22 11.692554 0.000000 -0.000001 0.000046 -0.000024 -1.907728
    23 11.481701 -0.000001 -0.000007 -0.758421 0.165635 1.108972
    24 2.914335 -0.023163 1.404053 0.005700 0.149255 -0.956695
    25 1.284180 -0.000002 0.000001 0.000007 -0.000008 -0.611443
    26 0.838744 0.000000 0.000000 0.053883 0.391803 -1.610229
    27 3.368063 0.007376 0.622456 0.036044 0.099261 -1.009923
    28 1.610352 0.000002 0.000000 -0.000007 0.259441 -1.086926
    29 1.015625 0.000002 0.000000 0.015558 0.182264 -1.340754
    30 3.555528 0.023919 -0.200566 0.012560 0.053537 -0.903374
    31 1.666992 0.000002 0.000000 -0.000009 0.314488 -1.208296
    32 1.243164 -0.000002 0.000000 -0.000007 0.196340 -1.483473
    33 3.449668 0.054214 -1.085181 0.053336 0.070642 -0.350277
    34 1.711616 0.000006 0.000011 0.000003 -0.021879 -0.607431
    35 1.005912 0.000000 0.000005 0.017334 -0.026647 -0.959179
    36 0.075534 -0.738747 -0.759723 1.293529 0.406464 -0.475804
    37 2.512460 -0.000006 -0.000004 -0.000002 -0.000001 0.359160
    38 1.330078 0.052032 -0.119690 -0.334975 0.008687 -0.059326
    39 -5.774684 -21.505562 -6.144710 1.294427 -0.196166 1.608826
    40 -0.163176 2.333985 0.382082 3.027476 0.151496 -1.975257
    41 1.417019 1.884747 0.307373 -0.111807 0.161678 -1.589027
    42 2.744176 2.498010 0.412600 -3.110087 -0.046555 2.851964
  time 21
    0 0.000005 -2.660156 -8.640625 -1.570760 -1.391893 -1.570827
    1 2.033348 1.000767 1.937660 1.596636 -1.286515 2.942963
    2 6.028145 0.000003 0.000002 -0.680266 -0.660964 -1.980032
    3 11.692549 0.000081 -0.000005 -0.000015 0.000024 -1.166407
    4 11.481670 -0.000089 -0.000024 -0.010943 0.459946 0.470887
    5 3.281560 0.002122 -1.383387 0.060340 -0.190227 -0.991181
    6 1.328125 0.000000 0.000002 0.000002 -0.054909 -0.582390
    7 0.819336 -0.000002 0.000002 0.000000 0.000000 -0.523574
    8 3.711854 0.109258 -0.568167 -0.040084 -0.148848 -1.054587
    9 1.610352 0.000000 0.000000 -0.000002 0.001797 -0.427537
    10 0.993190 -0.000002 0.000002 0.001475 0.002258 -0.454063
    11 3.782128 0.203230 0.243937 0.056264 -0.075180 -0.596988
    12 1.684419 -0.000008 0.000009 -0.003030 0.005442 -1.095140
    13 1.256836 0.000005 -0.000003 0.000000 0.000000 -0.532315
    14 3.594223 0.299557 1.113710 -0.102074 -0.059805 -0.286586
    15 1.719431 0.000004 -0.000003 0.000000 0.000010 -0.778830
    16 1.005918 -0.000004 0.000005 0.097715 0.123148 0.228531
    17 0.298218 -0.634091 0.426700 -1.023720 -0.921281 -0.498834
    18 2.633561 0.000000 -0.000004 0.031014 -0.045087 0.423761
    19 1.308566 0.000001 0.000002 0.029208 -0.053608 -0.355923
    20 2.033356 1.000772 -1.937610 -1.668474 1.286518 2.942953
    21 6.028141 0.000000 -0.000002 1.668897 0.816075 -0.515988
    22 11.692554 0.000000 -0.000001 0.000046 -0.000012 -1.893158
    23 11.481701 -0.000001 -0.000007 -0.852284 0.144967 1.103257
    24 2.914335 -0.023163 1.404053 0.005700 0.149255 -0.956695
    25 1.284180 -0.000002 0.000001 0.000007 -0.000008 -0.611443
    26 0.838744 0.000000 0.000000 0.053883 0.391803 -1.610229
    27 3.368063 0.007376 0.622456 0.036044 0.099261 -1.009923
    28 1.610352 0.000002 0.000000 -0.000007 0.259441 -1.086926
    29 1.015625 0.000002 0.000000 0.015558 0.182264 -1.340754
    30 3.555528 0.023919 -0.200566 0.012560 0.053537 -0.903374
    31 1.666992 0.000002 0.000000 -0.000009 0.314488 -1.208296
    32 1.243164 -0.000002 0.000000 -0.000007 0.196340 -1.483473
    33 3.449668 0.054214 -1.089088 0.053336 0.070642 -0.350277
    34 1.711616 0.000006 0.000011 0.000003 -0.020741 -0.582400
    35 1.002005 0.000000 0.000005 0.016099 -0.025676 -0.926885
    36 0.075534 -0.738747 -0.759723 1.293529 0.406464 -0.475804
    37 2.508554 -0.000006 -0.000004 -0.000002 -0.000001 0.359160
    38 1.330078 0.052032 -0.119690 -0.334975 0.008687 -0.059326
    39 -5.591084 -21.677442 -6.554879 1.373969 -0.240230 1.603017
    40 -0.163176 2.333985 0.382082 3.027584 0.151508 -1.974724
    41 1.417019 1.884747 0.307373 -0.111807 0.161678 -1.589027
    42 2.744176 2.498010 0.412600 -3.110087 -0.046555 2.851964
  time 22
    0 0.000005 -2.660156 -8.640625 -1.570760 -1.391893 -1.570827
    1 2.033348 1.000767 1.937660 1.596636 -1.286515 2.942963
    2 6.028145 0.000003 0.000002 -0.695844 -0.652521 -1.967409
    3 11.692549 0.000081 -0.000005 -0.000003 0.000024 -1.163732
    4 11.481670 -0.000089 -0.000024 -0.037372 0.466073 0.465972
    5 3.281560 0.002122 -1.383387 0.060410 -0.190574 -0.991217
    6 1.328125 0.000000 0.000002 0.000002 -0.054909 -0.582390
    7 0.819336 -0.000002 0.000002 0.000000 0.000000 -0.523574
    8 3.711854 0.109258 -0.568167 -0.040000 -0.149172 -1.054587
    9 1.610352 0.000000 0.000000 -0.000002 0.001797 -0.427537
    10 0.993190 -0.000002 0.000002 0.001475 0.002258 -0.454063
    11 3.786034 0.203230 0.243937 0.056180 -0.075516 -0.596960
    12 1.684419 -0.000008 0.000009 -0.003018 0.005442 -1.095140
    13 1.256836 0.000005 -0.000003 0.000000 0.000000 -0.532315
    14 3.594223 0.299557 1.109803 -0.102248 -0.060105 -0.286564
    15 1.719431 0.000004 -0.000003 0.000000 0.000010 -0.778830
    16 1.005918 -0.000004 0.000005 0.097715 0.123148 0.228531
    17 0.298218 -0.634091 0.430606 -1.023890 -0.921604 -0.498701
    18 2.633561 0.000000 -0.000004 0.031014 -0.045087 0.423761
    19 1.308566 0.000001 0.000002 0.029208 -0.053608 -0.355923
    20 2.033356 1.000772 -1.937610 -1.668474 1.286518 2.942953
    21 6.028141 0.000000 -0.000002 1.650207 0.816336 -0.540160
    22 11.692554 0.000000 -0.000001 0.000046 -0.000024 -1.879599
    23 11.481701 -0.000001 -0.000007 -0.946900 0.125897 1.101516
    24 2.914335 -0.023163 1.404053 0.005700 0.149255 -0.956695
    25 1.284180 -0.000002 0.000001 0.000007 -0.000008 -0.611443
    26 0.838744 0.000000 0.000000 0.053883 0.391803 -1.610270
    27 3.368063 0.007376 0.622456 0.036044 0.099261 -1.009923
    28 1.610352 0.000002 0.000000 -0.000007 0.259441 -1.086926
    29 1.015625 0.000002 0.000000 0.015558 0.182264 -1.340754
    30 3.555528 0.023919 -0.200566 0.012560 0.053537 -0.903374
    31 1.666992 0.000002 0.000000 -0.000009 0.314488 -1.208296
    32 1.243164 -0.000002 0.000000 -0.000007 0.196340 -1.483473
    33 3.449668 0.054214 -1.085181 0.053336 0.070642 -0.350277
    34 1.711616 0.000006 0.000011 0.000003 -0.019566 -0.556672
    35 1.005912 0.000000 0.000005 0.014901 -0.024634 -0.893882
    36 0.075534 -0.738747 -0.759723 1.293529 0.406464 -0.475804
    37 2.512460 -0.000006 -0.000004 -0.000002 -0.000001 0.359160
    38 1.330078 0.052032 -0.119690 -0.334975 0.008687 -0.059326
    39 -5.466081 -21.818071 -6.961141 1.458754 -0.282285 1.589781
    40 -0.163176 2.333985 0.382082 3.027859 0.151568 -1.972913
    41 1.417019 1.884747 0.307373 -0.111807 0.161678 -1.589027
    42 2.744176 2.498010 0.412600 -3.110087 -0.046555 2.851964
  time 23
    0 0.000005 -2.660156 -8.640625 -1.570760 -1.391893 -1.570827
    1 2.033348 1.000767 1.937660 1.596636 -1.286515 2.942963
    2 6.028145 0.000003 0.000002 -0.705924 -0.646444 -1.959393
    3 11.692549 0.000081 -0.000005 -0.000003 0.000024 -1.162692
    4 11.481670 -0.000089 -0.000024 -0.059779 0.470093 0.457764
    5 3.281560 0.002122 -1.383387 0.060428 -0.190574 -0.991217
    6 1.328125 0.000000 0.000002 0.000002 -0.054909 -0.582390
    7 0.819336 -0.000002 0.000002 0.000000 0.000000 -0.523574
    8 3.711854 0.109258 -0.568167 -0.040000 -0.149172 -1.054587
    9 1.610352 0.000000 0.000000 -0.000002 0.001797 -0.427537
    10 0.993190 -0.000002 0.000002 0.001475 0.002258 -0.454063
    11 3.786034 0.203230 0.247844 0.056180 -0.075516 -0.596960
    12 1.684419 -0.000008 0.000009 -0.003030 0.005442 -1.095140
    13 1.256836 0.000005 -0.000003 0.000000 0.000000 -0.532315
    14 3.594223 0.299557 1.113710 -0.102248 -0.060105 -0.286564
    15 1.719431 0.000004 -0.000003 0.000000 0.000010 -0.778830
    16 1.005918 -0.000004 0.000005 0.097715 0.123148 0.228531
    17 0.298218 -0.634091 0.426700 -1.023890 -0.921604 -0.498701
    18 2.633561 0.000000 -0.000004 0.031002 -0.045087 0.423761
    19 1.308566 0.000001 0.000002 0.029208 -0.053608 -0.355901
    20 2.033356 1.000772 -1.937610 -1.668474 1.286518 2.942953
    21 6.028141 0.000000 -0.000002 1.642411 0.819389 -0.550300
    22 11.692554 0.000000 -0.000001 0.000046 -0.000024 -1.865802
    23 11.481701 -0.000001 -0.000007 -1.008782 0.106500 1.104695
    24 2.914335 -0.023163 1.400147 0.005700 0.149255 -0.956695
    25 1.284180 -0.000002 0.000001 0.000007 -0.000008 -0.611443
    26 0.838744 0.000000 0.000000 0.053883 0.391803 -1.610229
    27 3.368063 0.007376 0.618550 0.036044 0.099261 -1.009923
    28 1.610352 0.000002 0.000000 -0.000007 0.259441 -1.086926
    29 1.015625 0.000002 0.000000 0.015558 0.182264 -1.340754
    30 3.551622 0.023919 -0.204473 0.012560 0.053537 -0.903374
    31 1.666992 0.000002 0.000000 -0.000009 0.314488 -1.208296
    32 1.243164 -0.000002 0.000000 -0.000007 0.196340 -1.483473
    33 3.449668 0.054214 -1.089088 0.053336 0.070642 -0.350277
    34 1.711616 0.000006 0.000011 0.000003 -0.018356 -0.530460
    35 1.005912 0.000000 0.000005 0.013690 -0.023531 -0.860142
    36 0.075534 -0.738747 -0.759723 1.293541 0.406464 -0.475804
    37 2.512460 -0.000006 -0.000004 -0.000002 -0.000001 0.359160
    38 1.330078 0.052032 -0.119690 -0.334975 0.008687 -0.059326
    39 -5.403579 -21.950888 -7.222868 1.517443 -0.315635 1.579496
    40 -0.163176 2.333985 0.382082 3.028339 0.151664 -1.970047
    41 1.417019 1.884747 0.307373 -0.111807 0.161678 -1.589027
    42 2.744176 2.498010 0.412600 -3.110087 -0.046555 2.851964
  time 24
    0 0.000005 -2.660156 -8.640625 -1.570760 -1.391893 -1.570827
    1 2.033348 1.000767 1.937660 1.596636 -1.286515 2.942963
    2 6.028145 0.000003 0.000002 -0.711907 -0.641156 -1.954560
    3 11.692549 0.000081 -0.000005 -0.000015 0.000024 -1.165912
    4 11.481670 -0.000089 -0.000024 -0.074717 0.471414 0.444297
    5 3.281560 0.002122 -1.379481 0.060410 -0.190574 -0.991217
    6 1.328125 0.000000 0.000002 0.000002 -0.054909 -0.582390
    7 0.819336 -0.000002 0.000002 0.000000 0.000000 -0.523574
    8 3.711854 0.109258 -0.568167 -0.040000 -0.149184 -1.054587
    9 1.610352 0.000000 0.000000 -0.000002 0.001797 -0.427537
    10 0.993190 -0.000002 0.000002 0.001487 0.002258 -0.454063
    11 3.786034 0.203230 0.243937 0.056180 -0.075516 -0.596960
    12 1.684419 -0.000008 0.000009 -0.003018 0.005442 -1.095140
    13 1.256836 0.000005 -0.000003 0.000000 0.000000 -0.532315
    14 3.594223 0.299557 1.113710 -0.102248 -0.060105 -0.286564
    15 1.719431 0.000004 -0.000003 0.000000 0.000010 -0.778830
    16 1.005918 -0.000004 0.000005 0.097715 0.123148 0.228531
    17 0.298218 -0.634091 0.430606 -1.023890 -0.921604 -0.498701
    18 2.633561 0.000000 -0.000004 0.031014 -0.045087 0.423761
    19 1.308566 0.000001 0.000002 0.029208 -0.053608 -0.355923
    20 2.033356 1.000772 -1.937610 -1.668474 1.286518 2.942953
    21 6.028141 0.000000 -0.000002 1.646309 0.826889 -0.545191
    22 11.692554 0.000000 -0.000001 0.000046 -0.000012 -1.851648
    23 11.481701 -0.000001 -0.000007 -1.033244 0.090336 1.108215
    24 2.914335 -0.023163 1.404053 0.005700 0.149255 -0.956695
    25 1.284180 -0.000002 0.000001 0.000007 -0.000008 -0.611443
    26 0.838744 0.000000 0.000000 0.053883 0.391803 -1.610229
    27 3.368063 0.007376 0.622456 0.036044 0.099261 -1.009923
    28 1.610352 0.000002 0.000000 -0.000007 0.259441 -1.086926
    29 1.015625 0.000002 0.000000 0.015558 0.182264 -1.340754
    30 3.555528 0.023919 -0.200566 0.012560 0.053537 -0.903374
    31 1.666992 0.000002 0.000000 -0.000009 0.314488 -1.208296
    32 1.243164 -0.000002 0.000000 -0.000007 0.196340 -1.483473
    33 3.449668 0.054214 -1.089088 0.053336 0.070642 -0.350277
    34 1.711616 0.000006 0.000011 0.000003 -0.017109 -0.503900
    35 1.002005 0.000000 0.000005 0.012516 -0.022381 -0.826004
    36 0.075534 -0.738747 -0.759723 1.293529 0.406464 -0.475804
    37 2.512460 -0.000006 -0.000004 -0.000002 -0.000001 0.359160
    38 1.330078 0.052032 -0.119690 -0.334975 0.008687 -0.059326
    39 -5.384047 -22.075892 -7.289276 1.544672 -0.334383 1.574734
    40 -0.163176 2.333985 0.382082 3.028926 0.151784 -1.966263
    41 1.417019 1.884747 0.307373 -0.111807 0.161678 -1.589027
    42 2.744176 2.498010 0.412600 -3.110087 -0.046555 2.851964
  time 25
    0 0.000005 -2.660156 -8.640625 -1.570760 -1.391893 -1.570827
    1 2.033348 1.000767 1.937660 1.596636 -1.286515 2.942963
    2 6.028145 0.000003 0.000002 -0.715734 -0.636749 -1.951262
    3 11.692549 0.000081 -0.000005 -0.000015 0.000036 -1.170470
    4 11.481670 -0.000089 -0.000024 -0.082091 0.471217 0.421933
    5 3.281560 0.002122 -1.379481 0.060428 -0.190574 -0.991217
    6 1.328125 0.000000 0.000002 0.000002 -0.054909 -0.582390
    7 0.819336 -0.000002 0.000002 0.000000 0.000000 -0.523574
    8 3.711854 0.109258 -0.568167 -0.040000 -0.149172 -1.054587
    9 1.610352 0.000000 0.000000 -0.000002 0.001797 -0.427537
    10 0.993190 -0.000002 0.000002 0.001475 0.002258 -0.454063
    11 3.786034 0.203230 0.247844 0.056180 -0.075516 -0.596960
    12 1.684419 -0.000008 0.000009 -0.003030 0.005442 -1.095198
    13 1.256836 0.000005 -0.000003 0.000000 0.000000 -0.532315
    14 3.594223 0.299557 1.113710 -0.102248 -0.060105 -0.286564
    15 1.719431 0.000004 -0.000003 0.000000 0.000010 -0.778830
    16 1.005918 -0.000004 0.000005 0.097715 0.123148 0.228531
    17 0.298218 -0.634091 0.430606 -1.023890 -0.921604 -0.498701
    18 2.633561 0.000000 -0.000004 0.031002 -0.045087 0.423761
    19 1.308566 0.000001 0.000002 0.029208 -0.053608 -0.355901
    20 2.033356 1.000772 -1.937610 -1.668474 1.286518 2.942953
    21 6.028141 0.000000 -0.000002 1.647423 0.833488 -0.543697
    22 11.692554 0.000000 -0.000001 0.000046 -0.000024 -1.837256
    23 11.481701 -0.000001 -0.000007 -1.037357 0.083689 1.106323
    24 2.914335 -0.023163 1.404053 0.005716 0.149588 -0.956575
    25 1.284180 -0.000002 0.000001 0.000007 -0.000008 -0.611443
    26 0.838744 0.000000 0.000000 0.053883 0.391803 -1.610229
    27 3.368063 0.007376 0.622456 0.036044 0.099584 -1.009812
    28 1.610352 0.000002 0.000000 -0.000007 0.259441 -1.086926
    29 1.015625 0.000002 0.000000 0.015558 0.182264 -1.340754
    30 3.555528 0.023919 -0.200566 0.012596 0.053861 -0.903255
    31 1.666992 0.000002 0.000000 -0.000009 0.314488 -1.208296
    32 1.243164 -0.000002 0.000000 -0.000007 0.196340 -1.483473
    33 3.449668 0.054214 -1.085181 0.053560 0.070893 -0.350145
    34 1.711616 0.000006 0.000011 0.000003 -0.015851 -0.477206
    35 1.005912 0.000000 0.000005 0.011365 -0.021182 -0.791640
    36 0.075534 -0.734840 -0.755817 1.293721 0.406747 -0.475612
    37 2.508554 -0.000006 -0.000004 -0.000002 -0.000001 0.359160
    38 1.330078 0.052032 -0.119690 -0.334975 0.008687 -0.059326
    39 -5.380140 -22.208708 -7.320527 1.548783 -0.342985 1.574258
    40 -0.163176 2.333985 0.382082 3.029681 0.151939 -1.961661
    41 1.417019 1.884747 0.307373 -0.111807 0.161678 -1.589027
    42 2.744176 2.498010 0.412600 -3.110087 -0.046555 2.851964
  time 26
    0 0.000005 -2.660156 -8.640625 -1.570760 -1.391893 -1.570827
    1 2.033348 1.000767 1.937660 1.596636 -1.286515 2.942963
    2 6.028145 0.000003 0.000002 -0.715950 -0.637166 -1.951319
    3 11.692549 0.000081 -0.000005 -0.000015 0.000024 -1.168488
    4 11.481670 -0.000089 -0.000024 -0.085538 0.470486 0.388265
    5 3.281560 0.002122 -1.379481 0.060428 -0.190574 -0.991217
    6 1.328125 0.000000 0.000002 0.000002 -0.054909 -0.582390
    7 0.819336 -0.000002 0.000002 0.000000 0.000000 -0.523574
    8 3.711854 0.109258 -0.568167 -0.040000 -0.149172 -1.054587
    9 1.610352 0.000000 0.000000 -0.000002 0.001797 -0.427537
    10 0.993190 -0.000002 0.000002 0.001475 0.002258 -0.454063
    11 3.786034 0.203230 0.247844 0.056180 -0.075516 -0.596960
    12 1.684419 -0.000008 0.000009 -0.003030 0.005442 -1.095140
    13 1.256836 0.000005 -0.000003 0.000000 0.000000 -0.532315
    14 3.594223 0.299557 1.113710 -0.102248 -0.060105 -0.286564
    15 1.719431 0.000004 -0.000003 0.000000 0.000010 -0.778830
    16 1.005918 -0.000004 0.000005 0.097715 0.123148 0.228531
    17 0.298218 -0.634091 0.426700 -1.023890 -0.921604 -0.498701
    18 2.633561 0.000000 -0.000004 0.031002 -0.045087 0.423761
    19 1.308566 0.000001 0.000002 0.029208 -0.053608 -0.355923
    20 2.033356 1.000772 -1.937610 -1.668474 1.286518 2.942953
    21 6.028141 0.000000 -0.000002 1.650033 0.840319 -0.540317
    22 11.692554 0.000000 -0.000001 0.000046 -0.000012 -1.823400
    23 11.481701 -0.000001 -0.000007 -1.024662 0.079221 1.103447
    24 2.914335 -0.023163 1.404053 0.005700 0.149255 -0.956695
    25 1.284180 -0.000002 0.000001 0.000007 -0.000008 -0.611443
    26 0.838744 0.000000 0.000000 0.053883 0.391803 -1.610229
    27 3.368063 0.007376 0.622456 0.036044 0.099261 -1.009923
    28 1.610352 0.000002 0.000000 -0.000007 0.259441 -1.086926
    29 1.015625 0.000002 0.000000 0.015558 0.182264 -1.340754
    30 3.551622 0.023919 -0.200566 0.012560 0.053537 -0.903374
    31 1.666992 0.000002 0.000000 -0.000009 0.314488 -1.208296
    32 1.243164 -0.000002 0.000000 -0.000007 0.196340 -1.483473
    33 3.449668 0.054214 -1.085181 0.053348 0.070642 -0.350265
    34 1.711616 0.000006 0.000011 0.000003 -0.014593 -0.450512
    35 1.002005 0.000000 0.000005 0.010275 -0.019948 -0.757305
    36 0.075534 -0.738747 -0.759723 1.293541 0.406464 -0.475804
    37 2.512460 -0.000006 -0.000004 -0.000002 -0.000001 0.359160
    38 1.330078 0.052032 -0.119690 -0.334975 0.008687 -0.059326
    39 -5.372328 -22.333712 -7.300995 1.536568 -0.347157 1.578448
    40 -0.163176 2.333985 0.382082 3.030532 0.152107 -1.956302
    41 1.417019 1.884747 0.307373 -0.111807 0.161678 -1.589027
    42 2.744176 2.498010 0.412600 -3.110087 -0.046555 2.851964
  time 27
    0 0.000005 -2.660156 -8.640625 -1.570760 -1.391893 -1.570827
    1 2.033348 1.000767 1.937660 1.596636 -1.286515 2.942963
    2 6.028145 0.000003 0.000002 -0.712608 -0.643150 -1.953991
    3 11.692549 0.000081 -0.000005 -0.000015 0.000024 -1.160660
    4 11.481670 -0.000089 -0.000024 -0.088123 0.469587 0.345996
    5 3.281560 0.002122 -1.383387 0.060428 -0.190574 -0.991217
    6 1.328125 0.000000 0.000002 0.000002 -0.054909 -0.582390
    7 0.819336 -0.000002 0.000002 0.000000 0.000000 -0.523574
    8 3.711854 0.109258 -0.568167 -0.040000 -0.149172 -1.054587
    9 1.610352 0.000000 0.000000 -0.000002 0.001797 -0.427537
    10 0.993190 -0.000002 0.000002 0.001475 0.002258 -0.454063
    11 3.786034 0.203230 0.247844 0.056180 -0.075516 -0.596960
    12 1.684419 -0.000008 0.000009 -0.003018 0.005442 -1.095140
    13 1.256836 0.000005 -0.000003 0.000000 0.000000 -0.532315
    14 3.594223 0.299557 1.113710 -0.102248 -0.060105 -0.286564
    15 1.719431 0.000004 -0.000003 0.000000 0.000010 -0.778830
    16 1.005918 -0.000004 0.000005 0.097715 0.123148 0.228531
    17 0.298218 -0.634091 0.430606 -1.023890 -0.921604 -0.498701
    18 2.633561 0.000000 -0.000004 0.031002 -0.045087 0.423761
    19 1.308566 0.000001 0.000002 0.029208 -0.053608 -0.355923
    20 2.033356 1.000772 -1.937610 -1.668474 1.286518 2.942953
    21 6.028141 0.000000 -0.000002 1.657063 0.845058 -0.531159
    22 11.692554 0.000000 -0.000001 0.000082 0.000156 -1.814361
    23 11.481701 -0.000001 -0.000007 -0.985958 0.087139 1.100041
    24 2.918241 -0.027070 1.404053 0.005534 0.149815 -0.956876
    25 1.284180 -0.000002 0.000001 0.000007 -0.000008 -0.611443
    26 0.838744 0.000000 0.000000 0.053883 0.391803 -1.610229
    27 3.368063 0.003470 0.622456 0.035852 0.099812 -1.010088
    28 1.610352 0.000002 0.000000 -0.000007 0.259441 -1.086926
    29 1.015625 0.000002 0.000000 0.015558 0.182264 -1.340754
    30 3.555528 0.023919 -0.200566 0.012441 0.054101 -0.903531
    31 1.666992 0.000002 0.000000 -0.000009 0.314488 -1.208296
    32 1.243164 -0.000002 0.000000 -0.000007 0.196340 -1.483473
    33 3.453574 0.054214 -1.085181 0.053522 0.071181 -0.350421
    34 1.711616 0.000006 0.000011 0.000003 -0.013322 -0.423952
    35 1.005912 0.000000 0.000005 0.009208 -0.018677 -0.723168
    36 0.079440 -0.738747 -0.755817 1.293661 0.407046 -0.475912
    37 2.512460 -0.000006 -0.000004 -0.000002 -0.000001 0.359160
    38 1.330078 0.052032 -0.119690 -0.334975 0.008687 -0.059326
    39 -5.434830 -22.431371 -7.172085 1.499806 -0.335593 1.581686
    40 -0.163176 2.333985 0.382082 3.031503 0.152299 -1.950323
    41 1.417019 1.884747 0.307373 -0.111807 0.161678 -1.589027
    42 2.740269 2.505823 0.412600 -3.110087 -0.046555 2.851964
  time 28
    0 0.000005 -2.660156 -8.640625 -1.570760 -1.391893 -1.570827
    1 2.033348 1.000767 1.937660 1.596636 -1.286515 2.942963
    2 6.028145 0.000003 0.000002 -0.705708 -0.654006 -1.959279
    3 11.692549 0.000081 -0.000005 -0.000015 0.000036 -1.147482
    4 11.481670 -0.000089 -0.000024 -0.091283 0.468181 0.298368
    5 3.281560 0.002122 -1.383387 0.060410 -0.190574 -0.991217
    6 1.328125 0.000000 0.000002 0.000002 -0.054909 -0.582390
    7 0.819336 -0.000002 0.000002 0.000000 0.000000 -0.523574
    8 3.711854 0.109258 -0.568167 -0.040000 -0.149172 -1.054587
    9 1.610352 0.000000 0.000000 -0.000002 0.001797 -0.427537
    10 0.993190 -0.000002 0.000002 0.001475 0.002258 -0.454063
    11 3.786034 0.203230 0.243937 0.056180 -0.075516 -0.596960
    12 1.684419 -0.000008 0.000009 -0.003030 0.005442 -1.095198
    13 1.256836 0.000005 -0.000003 0.000000 0.000000 -0.532315
    14 3.594223 0.299557 1.109803 -0.102262 -0.060105 -0.286564
    15 1.719431 0.000004 -0.000003 0.000000 0.000010 -0.778830
    16 1.005918 -0.000004 0.000005 0.097715 0.123148 0.228531
    17 0.298218 -0.634091 0.430606 -1.023890 -0.921604 -0.498701
    18 2.633561 0.000000 -0.000004 0.031002 -0.045087 0.423761
    19 1.308566 0.000001 0.000002 0.029208 -0.053608 -0.355923
    20 2.033356 1.000772 -1.937610 -1.668474 1.286518 2.942953
    21 6.028141 0.000000 -0.000002 1.665799 0.850813 -0.519801
    22 11.692554 0.000000 -0.000001 0.000046 -0.000012 -1.802942
    23 11.481701 -0.000001 -0.000007 -0.938363 0.098182 1.095121
    24 2.914335 -0.023163 1.404053 0.005700 0.149255 -0.956695
    25 1.284180 -0.000002 0.000001 0.000007 -0.000008 -0.611443
    26 0.838744 0.000000 0.000000 0.053883 0.391803 -1.610270
    27 3.368063 0.007376 0.622456 0.036044 0.099261 -1.009923
    28 1.610352 0.000002 0.000000 -0.000007 0.259441 -1.086926
    29 1.015625 0.000002 0.000000 0.015558 0.182264 -1.340754
    30 3.555528 0.023919 -0.200566 0.012560 0.053537 -0.903374
    31 1.666992 0.000002 0.000000 -0.000009 0.314488 -1.208296
    32 1.243164 -0.000002 0.000000 -0.000007 0.196340 -1.483473
    33 3.449668 0.054214 -1.089088 0.053336 0.070642 -0.350277
    34 1.711616 0.000006 0.000011 0.000003 -0.012064 -0.397767
    35 1.002005 0.000000 0.000005 0.008213 -0.017395 -0.689456
    36 0.075534 -0.738747 -0.759723 1.293541 0.406464 -0.475804
    37 2.512460 -0.000006 -0.000004 -0.000002 -0.000001 0.359160
    38 1.330078 0.052032 -0.119690 -0.334975 0.008687 -0.059326
    39 -5.524676 -22.536843 -7.008018 1.455954 -0.320760 1.583972
    40 -0.163176 2.333985 0.382082 3.032569 0.152515 -1.943723
    41 1.417019 1.884747 0.307373 -0.111807 0.161678 -1.589027
    42 2.728550 2.513636 0.412600 -3.110087 -0.046555 2.851964
  time 29
    0 0.000005 -2.660156 -8.640625 -1.570760 -1.391893 -1.570827
    1 2.033348 1.000767 1.937660 1.596636 -1.286515 2.942963
    2 6.028145 0.000003 0.000002 -0.695305 -0.668989 -1.967694
    3 11.692549 0.000081 -0.000005 -0.000015 0.000036 -1.129101
    4 11.481670 -0.000089 -0.000024 -0.095784 0.465961 0.248038
    5 3.281560 0.002122 -1.383387 0.060428 -0.190574 -0.991217
    6 1.328125 0.000000 0.000002 0.000002 -0.054909 -0.582390
    7 0.819336 -0.000002 0.000002 0.000000 0.000000 -0.523574
    8 3.711854 0.109258 -0.568167 -0.040000 -0.149172 -1.054587
    9 1.610352 0.000000 0.000000 -0.000002 0.001797 -0.427537
    10 0.993190 -0.000002 0.000002 0.001475 0.002258 -0.454063
    11 3.786034 0.203230 0.243937 0.056180 -0.075516 -0.596960
    12 1.684419 -0.000008 0.000009 -0.003018 0.005442 -1.095198
    13 1.256836 0.000005 -0.000003 0.000000 0.000000 -0.532315
    14 3.594223 0.299557 1.113710 -0.102248 -0.060105 -0.286564
    15 1.719431 0.000004 -0.000003 0.000000 0.000010 -0.778830
    16 1.005918 -0.000004 0.000005 0.097715 0.123148 0.228531
    17 0.298218 -0.634091 0.426700 -1.023890 -0.921604 -0.498701
    18 2.633561 0.000000 -0.000004 0.031002 -0.045087 0.423761
    19 1.308566 0.000001 0.000002 0.029208 -0.053608 -0.355945
    20 2.033356 1.000772 -1.937610 -1.668474 1.286518 2.942953
    21 6.028141 0.000000 -0.000002 1.674083 0.855552 -0.509032
    22 11.692554 0.000000 -0.000001 0.000034 -0.000024 -1.793487
    23 11.481701 -0.000001 -0.000007 -0.893244 0.109624 1.092736
    24 2.914335 -0.023163 1.404053 0.005700 0.149255 -0.956695
    25 1.284180 -0.000002 0.000001 0.000007 -0.000008 -0.611443
    26 0.838744 0.000000 0.000000 0.053883 0.391803 -1.610229
    27 3.368063 0.007376 0.622456 0.036044 0.099261 -1.009923
    28 1.610352 0.000002 0.000000 -0.000007 0.259441 -1.086926
    29 1.015625 0.000002 0.000000 0.015558 0.182264 -1.340754
    30 3.551622 0.023919 -0.200566 0.012560 0.053537 -0.903374
    31 1.666992 0.000002 0.000000 -0.000009 0.314488 -1.208296
    32 1.243164 -0.000002 0.000000 -0.000007 0.196340 -1.483473
    33 3.449668 0.054214 -1.085181 0.053336 0.070642 -0.350277
    34 1.711616 0.000006 0.000011 0.000003 -0.010818 -0.372066
    35 1.005912 0.000000 0.000005 0.007291 -0.016101 -0.656424
    36 0.075534 -0.738747 -0.759723 1.293541 0.406464 -0.475804
    37 2.512460 -0.000006 -0.000004 -0.000002 -0.000001 0.359160
    38 1.330078 0.052032 -0.119690 -0.334975 0.008687 -0.059326
    39 -5.614523 -22.630596 -6.855669 1.414247 -0.305977 1.584448
    40 -0.163176 2.333985 0.382082 3.033720 0.152742 -1.936566
    41 1.417019 1.884747 0.307373 -0.111807 0.161678 -1.589027
    42 2.724644 2.525355 0.412600 -3.110087 -0.046555 2.851964
  time 30
    0 0.000005 -2.660156 -8.640625 -1.570760 -1.391893 -1.570827
    1 2.033348 1.000767 1.937660 1.596636 -1.286515 2.942963
    2 6.028145 0.000003 0.000002 -0.680912 -0.688056 -1.979690
    3 11.692549 0.000081 -0.000005 -0.000003 0.000216 -1.105073
    4 11.481670 -0.000089 -0.000024 -0.103732 0.462222 0.197020
    5 3.281560 0.002122 -1.383387 0.060095 -0.190550 -0.990640
    6 1.328125 0.000000 0.000002 0.000002 -0.054909 -0.582390
    7 0.819336 -0.000002 0.000002 0.000000 0.000000 -0.523574
    8 3.711854 0.105351 -0.568167 -0.040299 -0.149172 -1.054026
    9 1.610352 0.000000 0.000000 -0.000002 0.001797 -0.427537
    10 0.993190 -0.000002 0.000002 0.001475 0.002270 -0.454063
    11 3.786034 0.203230 0.247844 0.055917 -0.075384 -0.596437
    12 1.684419 -0.000008 0.000009 -0.003018 0.005442 -1.095140
    13 1.256836 0.000005 -0.000003 0.000000 0.000000 -0.532315
    14 3.590316 0.299557 1.113710 -0.102464 -0.059889 -0.286041
    15 1.719431 0.000004 -0.000003 0.000000 0.000010 -0.778830
    16 1.005918 -0.000004 0.000005 0.097715 0.123148 0.228531
    17 0.298218 -0.634091 0.426700 -1.024328 -0.921449 -0.497836
    18 2.633561 0.000000 -0.000004 0.031002 -0.045087 0.423761
    19 1.308566 0.000001 0.000002 0.029208 -0.053608 -0.355901
    20 2.033356 1.000772 -1.937610 -1.668474 1.286518 2.942953
    21 6.028141 0.000000 -0.000002 1.680522 0.859127 -0.500660
    22 11.692554 0.000000 -0.000001 0.000046 -0.000024 -1.786410
    23 11.481701 -0.000001 -0.000007 -0.859140 0.118632 1.091488
    24 2.914335 -0.023163 1.404053 0.005849 0.148989 -0.956514
    25 1.284180 -0.000002 0.000001 0.000007 -0.000008 -0.611443
    26 0.838744 0.000000 0.000000 0.053883 0.391803 -1.610229
    27 3.368063 0.007376 0.622456 0.036199 0.098997 -1.009739
    28 1.610352 0.000002 0.000000 -0.000007 0.259441 -1.086926
    29 1.015625 0.000002 0.000000 0.015558 0.182264 -1.340754
    30 3.551622 0.023919 -0.200566 0.012680 0.053262 -0.903189
    31 1.666992 0.000002 0.000000 -0.000009 0.314488 -1.208296
    32 1.243164 -0.000002 0.000000 -0.000007 0.196340 -1.483473
    33 3.449668 0.054214 -1.085181 0.053311 0.070342 -0.350109
    34 1.711616 0.000006 0.000011 0.000003 -0.009607 -0.347089
    35 1.005912 0.000000 0.000005 0.006416 -0.014806 -0.624215
    36 0.075534 -0.738747 -0.759723 1.293529 0.406165 -0.475636
    37 2.512460 -0.000006 -0.000004 -0.000002 -0.000001 0.359160
    38 1.330078 0.052032 -0.119690 -0.334975 0.008687 -0.059326
    39 -5.684837 -22.697005 -6.742385 1.382966 -0.294775 1.583781
    40 -0.163176 2.333985 0.382082 3.034930 0.152994 -1.928999
    41 1.417019 1.884747 0.307373 -0.111807 0.161678 -1.589027
    42 2.720737 2.529261 0.412600 -3.110087 -0.046555 2.851964
  time 31
    0 0.000005 -2.660156 -8.640625 -1.570760 -1.391893 -1.570827
    1 2.033348 1.000767 1.937660 1.596636 -1.286515 2.942963
    2 6.028145 0.000003 0.000002 -0.662046 -0.711529 -1.995497
    3 11.692549 0.000081 -0.000005 -0.000003 0.000024 -1.075595
    4 11.481670 -0.000089 -0.000024 -0.116850 0.458877 0.150081
    5 3.285467 0.002122 -1.383387 0.060568 -0.190826 -0.991398
    6 1.328125 0.000000 0.000002 0.000002 -0.054909 -0.582390
    7 0.819336 -0.000002 0.000002 0.000000 0.000000 -0.523574
    8 3.711854 0.105351 -0.568167 -0.039832 -0.149424 -1.054797
    9 1.610352 0.000000 0.000000 -0.000002 0.001797 -0.427537
    10 0.993190 -0.000002 0.000002 0.001475 0.002258 -0.454063
    11 3.786034 0.203230 0.243937 0.056228 -0.075815 -0.597153
    12 1.684419 -0.000008 0.000009 -0.003018 0.005442 -1.095140
    13 1.256836 0.000005 -0.000003 0.000000 0.000000 -0.532315
    14 3.594223 0.299557 1.109803 -0.102291 -0.060392 -0.286738
    15 1.719431 0.000004 -0.000003 0.000000 0.000010 -0.778830
    16 1.005918 -0.000004 0.000005 0.097715 0.123148 0.228531
    17 0.298218 -0.634091 0.426700 -1.023875 -0.921904 -0.498878
    18 2.633561 0.000000 -0.000004 0.031002 -0.045087 0.423761
    19 1.308566 0.000001 0.000002 0.029208 -0.053608 -0.355923
    20 2.033356 1.000772 -1.937610 -1.668474 1.286518 2.942953
    21 6.028141 0.000000 -0.000002 1.682819 0.860203 -0.497712
    22 11.692554 0.000000 -0.000001 0.000046 -0.000012 -1.784031
    23 11.481701 -0.000001 -0.000007 -0.845959 0.122373 1.091715
    24 2.914335 -0.023163 1.404053 0.005700 0.149255 -0.956695
    25 1.284180 -0.000002 0.000001 0.000007 -0.000008 -0.611443
    26 0.838744 0.000000 0.000000 0.053883 0.391803 -1.610229
    27 3.368063 0.007376 0.622456 0.036044 0.099261 -1.009923
    28 1.610352 0.000002 0.000000 -0.000007 0.259441 -1.086926
    29 1.015625 0.000002 0.000000 0.015558 0.182264 -1.340754
    30 3.555528 0.023919 -0.204473 0.012560 0.053537 -0.903374
    31 1.666992 0.000002 0.000000 -0.000009 0.314488 -1.208296
    32 1.243164 -0.000002 0.000000 -0.000007 0.196340 -1.483473
    33 3.449668 0.054214 -1.085181 0.053336 0.070642 -0.350277
    34 1.711616 0.000006 0.000011 0.000003 -0.008421 -0.322863
    35 1.005912 0.000000 0.000005 0.005613 -0.013536 -0.593055
    36 0.075534 -0.738747 -0.759723 1.293529 0.406464 -0.475804
    37 2.512460 -0.000006 -0.000004 -0.000002 -0.000001 0.359160
    38 1.330078 0.052032 -0.119690 -0.334975 0.008687 -0.059326
    39 -5.716088 -22.724349 -6.699415 1.370871 -0.290371 1.583305
    40 -0.163176 2.333985 0.382082 3.036093 0.153222 -1.921791
    41 1.417019 1.884747 0.307373 -0.111807 0.161678 -1.589027
    42 2.720737 2.529261 0.412600 -3.110087 -0.046555 2.851964
end
