// Created by Crowbar++ 0.74
version 1
nodes
  0 "ValveBiped.Bip01_Spine4" -1
  1 "ValveBiped.Bip01_L_Clavicle" 0
  2 "ValveBiped.Bip01_L_UpperArm" 1
  3 "ValveBiped.Bip01_L_Forearm" 2
  4 "ValveBiped.Bip01_L_Hand" 3
  5 "ValveBiped.Bip01_L_Finger4" 4
  6 "ValveBiped.Bip01_L_Finger41" 5
  7 "ValveBiped.Bip01_L_Finger42" 6
  8 "ValveBiped.Bip01_L_Finger3" 4
  9 "ValveBiped.Bip01_L_Finger31" 8
  10 "ValveBiped.Bip01_L_Finger32" 9
  11 "ValveBiped.Bip01_L_Finger2" 4
  12 "ValveBiped.Bip01_L_Finger21" 11
  13 "ValveBiped.Bip01_L_Finger22" 12
  14 "ValveBiped.Bip01_L_Finger1" 4
  15 "ValveBiped.Bip01_L_Finger11" 14
  16 "ValveBiped.Bip01_L_Finger12" 15
  17 "ValveBiped.Bip01_L_Finger0" 4
  18 "ValveBiped.Bip01_L_Finger01" 17
  19 "ValveBiped.Bip01_L_Finger02" 18
  20 "ValveBiped.Bip01_R_Clavicle" 0
  21 "ValveBiped.Bip01_R_UpperArm" 20
  22 "ValveBiped.Bip01_R_Forearm" 21
  23 "ValveBiped.Bip01_R_Hand" 22
  24 "ValveBiped.Bip01_R_Finger4" 23
  25 "ValveBiped.Bip01_R_Finger41" 24
  26 "ValveBiped.Bip01_R_Finger42" 25
  27 "ValveBiped.Bip01_R_Finger3" 23
  28 "ValveBiped.Bip01_R_Finger31" 27
  29 "ValveBiped.Bip01_R_Finger32" 28
  30 "ValveBiped.Bip01_R_Finger2" 23
  31 "ValveBiped.Bip01_R_Finger21" 30
  32 "ValveBiped.Bip01_R_Finger22" 31
  33 "ValveBiped.Bip01_R_Finger1" 23
  34 "ValveBiped.Bip01_R_Finger11" 33
  35 "ValveBiped.Bip01_R_Finger12" 34
  36 "ValveBiped.Bip01_R_Finger0" 23
  37 "ValveBiped.Bip01_R_Finger01" 36
  38 "ValveBiped.Bip01_R_Finger02" 37
  39 "v_weapon.Glock_Parent" -1
  40 "v_weapon.Glock_Trigger" 39
  41 "v_weapon.Glock_Clip" 39
  42 "v_weapon.Glock_Slide" 39
end
skeleton
  time 0
    0 0.000005 -2.660156 -8.640625 -1.570760 -1.391893 -1.570827
    1 2.033348 1.000767 1.937660 1.596636 -1.286515 2.942963
    2 6.028145 0.000003 0.000002 -0.662046 -0.711529 -1.995497
    3 11.692549 0.000081 -0.000005 -0.000003 0.000024 -1.075595
    4 11.481670 -0.000089 -0.000024 -0.116946 0.458568 0.149884
    5 3.281560 0.002122 -1.383387 0.060410 -0.190574 -0.991217
    6 1.328125 0.000000 0.000002 0.000002 -0.054909 -0.582390
    7 0.819336 -0.000002 0.000002 0.000000 0.000000 -0.523574
    8 3.711854 0.109258 -0.568167 -0.040000 -0.149184 -1.054587
    9 1.609410 0.000004 -0.000005 -0.000002 0.001792 -0.427486
    10 0.993190 -0.000002 0.000002 0.001475 0.002258 -0.454063
    11 3.786034 0.203230 0.243937 0.056180 -0.075516 -0.596960
    12 1.684419 -0.000008 0.000009 -0.003018 0.005442 -1.095140
    13 1.256836 0.000005 -0.000003 0.000000 0.000000 -0.532315
    14 3.594223 0.299557 1.109803 -0.102248 -0.060105 -0.286564
    15 1.719431 0.000004 -0.000003 -0.000004 0.000016 -0.778825
    16 1.005918 -0.000004 0.000005 0.097715 0.123148 0.228531
    17 0.298218 -0.634091 0.426700 -1.023890 -0.921604 -0.498679
    18 2.633561 0.000000 -0.000004 0.031002 -0.045087 0.423761
    19 1.308566 0.000001 0.000002 0.029208 -0.053608 -0.355923
    20 2.033356 1.000772 -1.937610 -1.668474 1.286518 2.942953
    21 6.028141 0.000000 -0.000002 1.682819 0.860203 -0.497712
    22 11.692554 0.000000 -0.000001 0.000046 -0.000012 -1.784031
    23 11.481701 -0.000001 -0.000007 -0.845959 0.122373 1.091715
    24 2.914335 -0.023163 1.404053 0.005700 0.149255 -0.956695
    25 1.284180 -0.000002 0.000001 0.000007 -0.000008 -0.611443
    26 0.838744 0.000000 0.000000 0.053883 0.391803 -1.610229
    27 3.368063 0.007376 0.622456 0.036044 0.099261 -1.009923
    28 1.610352 0.000002 0.000000 -0.000007 0.259441 -1.086926
    29 1.015625 0.000002 0.000000 0.015558 0.182264 -1.340754
    30 3.555528 0.023919 -0.204473 0.012560 0.053537 -0.903374
    31 1.666992 0.000002 0.000000 -0.000009 0.314488 -1.208296
    32 1.243164 -0.000002 0.000000 -0.000007 0.196340 -1.483473
    33 3.449668 0.054214 -1.085181 0.053336 0.070642 -0.350277
    34 1.711616 0.000006 0.000011 0.000003 -0.028087 -0.750050
    35 1.005912 0.000000 0.000005 0.024776 -0.031393 -1.142624
    36 0.075534 -0.738747 -0.759723 1.293529 0.406464 -0.475804
    37 2.512460 -0.000006 -0.000004 -0.000002 -0.000001 0.359160
    38 1.328098 0.050782 -0.113290 -0.334965 0.008685 -0.059316
    39 -5.716088 -22.724349 -6.699415 1.370871 -0.290371 1.583305
    40 -0.163176 2.333985 0.382082 3.101636 0.166381 -1.515363
    41 1.417019 1.884747 0.307373 -0.111807 0.161678 -1.589027
    42 3.896555 2.185501 0.361817 -3.110087 -0.046555 2.851964
  time 1
    0 0.000005 -2.660156 -8.640625 -1.570760 -1.391893 -1.570827
    1 2.033348 1.000767 1.937660 1.596636 -1.286515 2.942963
    2 6.028145 0.000003 0.000002 -0.662046 -0.711529 -1.995497
    3 11.692549 0.000081 -0.000005 -0.000003 0.000024 -1.075595
    4 11.481670 -0.000089 -0.000024 -0.116946 0.458568 0.149884
    5 3.281560 0.002122 -1.383387 0.060410 -0.190574 -0.991217
    6 1.328125 0.000000 0.000002 0.000002 -0.054909 -0.582390
    7 0.819336 -0.000002 0.000002 0.000000 0.000000 -0.523574
    8 3.711854 0.109258 -0.568167 -0.040000 -0.149184 -1.054587
    9 1.609410 0.000004 -0.000005 -0.000002 0.001792 -0.427486
    10 0.993190 -0.000002 0.000002 0.001475 0.002258 -0.454063
    11 3.786034 0.203230 0.243937 0.056180 -0.075516 -0.596960
    12 1.684419 -0.000008 0.000009 -0.003018 0.005442 -1.095140
    13 1.256836 0.000005 -0.000003 0.000000 0.000000 -0.532315
    14 3.594223 0.299557 1.109803 -0.102248 -0.060105 -0.286564
    15 1.719431 0.000004 -0.000003 -0.000004 0.000016 -0.778825
    16 1.005918 -0.000004 0.000005 0.097715 0.123148 0.228531
    17 0.298218 -0.634091 0.426700 -1.023890 -0.921604 -0.498679
    18 2.633561 0.000000 -0.000004 0.031002 -0.045087 0.423761
    19 1.308566 0.000001 0.000002 0.029208 -0.053608 -0.355923
    20 2.033356 1.000772 -1.937610 -1.668474 1.286518 2.942953
    21 6.028141 0.000000 -0.000002 1.682819 0.860203 -0.497712
    22 11.692554 0.000000 -0.000001 0.000046 -0.000012 -1.784031
    23 11.481701 -0.000001 -0.000007 -0.845959 0.122373 1.091715
    24 2.914335 -0.023163 1.404053 0.005700 0.149255 -0.956695
    25 1.284180 -0.000002 0.000001 0.000007 -0.000008 -0.611443
    26 0.838744 0.000000 0.000000 0.053883 0.391803 -1.610229
    27 3.368063 0.007376 0.622456 0.036044 0.099261 -1.009923
    28 1.610352 0.000002 0.000000 -0.000007 0.259441 -1.086926
    29 1.015625 0.000002 0.000000 0.015558 0.182264 -1.340754
    30 3.555528 0.023919 -0.204473 0.012560 0.053537 -0.903374
    31 1.666992 0.000002 0.000000 -0.000009 0.314488 -1.208296
    32 1.243164 -0.000002 0.000000 -0.000007 0.196340 -1.483473
    33 3.449668 0.054214 -1.085181 0.053336 0.070642 -0.350277
    34 1.711616 0.000006 0.000011 0.000003 -0.028087 -0.750050
    35 1.005912 0.000000 0.000005 0.024776 -0.031393 -1.142624
    36 0.075534 -0.738747 -0.759723 1.293529 0.406464 -0.475804
    37 2.512460 -0.000006 -0.000004 -0.000002 -0.000001 0.359160
    38 1.328098 0.050782 -0.113290 -0.334965 0.008685 -0.059316
    39 -5.716088 -22.724349 -6.699415 1.370871 -0.290371 1.583305
    40 -0.163176 2.333985 0.382082 3.101636 0.166381 -1.515363
    41 1.417019 1.884747 0.307373 -0.111807 0.161678 -1.589027
    42 3.896555 2.185501 0.361817 -3.110087 -0.046555 2.851964
  time 2
    0 0.000005 -2.660156 -8.640625 -1.570760 -1.391893 -1.570827
    1 2.033348 1.000767 1.937660 1.596636 -1.286515 2.942963
    2 6.028145 0.000003 0.000002 -0.670347 -0.693390 -1.987991
    3 11.692549 0.000081 -0.000005 -0.000015 0.000036 -1.107996
    4 11.481670 -0.000089 -0.000024 -0.108041 0.454324 0.168561
    5 3.281560 0.002122 -1.383387 0.060410 -0.190574 -0.991217
    6 1.328125 0.000000 0.000002 0.000002 -0.054909 -0.582390
    7 0.819336 -0.000002 0.000002 0.000000 0.000000 -0.523574
    8 3.711854 0.109258 -0.568167 -0.040000 -0.149172 -1.054587
    9 1.609410 0.000004 -0.000005 -0.000002 0.001792 -0.427486
    10 0.993190 -0.000002 0.000002 0.001475 0.002258 -0.454063
    11 3.786034 0.203230 0.243937 0.053376 -0.075911 -0.600874
    12 1.684419 -0.000008 0.000009 -0.002958 0.005454 -1.085073
    13 1.256836 0.000005 -0.000003 0.000000 0.000000 -0.532315
    14 3.594223 0.299557 1.109803 -0.101482 -0.061375 -0.298989
    15 1.719431 0.000004 -0.000003 -0.000004 0.000016 -0.769106
    16 1.005918 -0.000004 0.000005 0.095798 0.120715 0.215206
    17 0.298218 -0.634091 0.426700 -1.026423 -0.920082 -0.500562
    18 2.633561 0.000000 -0.000004 0.030654 -0.047172 0.424628
    19 1.308566 0.000001 0.000002 0.028549 -0.053620 -0.344801
    20 2.033356 1.000772 -1.937610 -1.668474 1.286518 2.942953
    21 6.028141 0.000000 -0.000002 1.685151 0.849534 -0.494725
    22 11.692554 0.000000 -0.000001 0.000046 -0.000024 -1.810495
    23 11.481701 -0.000001 -0.000007 -0.849807 0.098327 1.105415
    24 2.914335 -0.023163 1.404053 0.005700 0.149255 -0.956695
    25 1.284180 -0.000002 0.000001 0.000007 -0.000008 -0.611443
    26 0.838744 0.000000 0.000000 0.053883 0.391803 -1.610229
    27 3.368063 0.007376 0.622456 0.036044 0.099261 -1.009923
    28 1.610352 0.000002 0.000000 -0.000007 0.259441 -1.086926
    29 1.015625 0.000002 0.000000 0.015558 0.182264 -1.340754
    30 3.551622 0.023919 -0.200566 0.012560 0.053537 -0.903374
    31 1.666992 0.000002 0.000000 -0.000009 0.314488 -1.208296
    32 1.243164 -0.000002 0.000000 -0.000007 0.196340 -1.483473
    33 3.449668 0.054214 -1.089088 0.053336 0.070642 -0.350277
    34 1.711616 0.000006 0.000011 0.000003 -0.028087 -0.750050
    35 1.005912 0.000000 0.000005 0.024776 -0.031393 -1.142624
    36 0.075534 -0.738747 -0.759723 1.293541 0.406464 -0.475804
    37 2.512460 -0.000006 -0.000004 -0.000002 -0.000001 0.359160
    38 1.328098 0.050782 -0.113290 -0.334965 0.008685 -0.059316
    39 -5.661399 -22.466529 -6.742385 1.375399 -0.303170 1.599780
    40 -0.163176 2.333985 0.382082 3.101636 0.166381 -1.515363
    41 1.417019 1.884747 0.307373 -0.111807 0.161678 -1.589027
    42 4.552825 1.990182 0.330566 -3.110087 -0.046555 2.851964
  time 3
    0 0.000005 -2.660156 -8.640625 -1.570760 -1.391893 -1.570827
    1 2.033348 1.000767 1.937660 1.596636 -1.286515 2.942963
    2 6.028145 0.000003 0.000002 -0.665981 -0.703735 -1.991801
    3 11.692549 0.000081 -0.000005 -0.000003 0.000024 -1.089566
    4 11.481670 -0.000089 -0.000024 -0.121638 0.454942 0.148459
    5 3.281560 0.002122 -1.379481 0.060428 -0.190574 -0.991217
    6 1.328125 0.000000 0.000002 0.000002 -0.054909 -0.582390
    7 0.819336 -0.000002 0.000002 0.000000 0.000000 -0.523574
    8 3.711854 0.109258 -0.568167 -0.040000 -0.149172 -1.054587
    9 1.609410 0.000004 -0.000005 -0.000002 0.001792 -0.427486
    10 0.993190 -0.000002 0.000002 0.001475 0.002258 -0.454063
    11 3.786034 0.203230 0.243937 0.045550 -0.077002 -0.611651
    12 1.684419 -0.000008 0.000009 -0.002790 0.005502 -1.056896
    13 1.256836 0.000005 -0.000003 0.000000 0.000000 -0.532315
    14 3.594223 0.299557 1.109803 -0.099317 -0.064839 -0.333495
    15 1.719431 0.000004 -0.000003 -0.000004 0.000016 -0.742044
    16 1.005918 -0.000004 0.000005 0.090405 0.113920 0.178095
    17 0.298218 -0.634091 0.426700 -1.033597 -0.915756 -0.505815
    18 2.633561 0.000000 -0.000004 0.029624 -0.053081 0.427179
    19 1.308566 0.000001 0.000002 0.026716 -0.053680 -0.313323
    20 2.033356 1.000772 -1.937610 -1.668474 1.286518 2.942953
    21 6.028141 0.000000 -0.000002 1.696079 0.857470 -0.480576
    22 11.692554 0.000000 -0.000001 0.000046 -0.000012 -1.802288
    23 11.481701 -0.000001 -0.000007 -0.842553 0.085251 1.103257
    24 2.914335 -0.023163 1.400147 0.005700 0.149255 -0.956695
    25 1.284180 -0.000002 0.000001 0.000007 -0.000008 -0.611443
    26 0.838744 0.000000 0.000000 0.053883 0.391803 -1.610229
    27 3.368063 0.007376 0.622456 0.036044 0.099261 -1.009923
    28 1.610352 0.000002 0.000000 -0.000007 0.259441 -1.086926
    29 1.015625 0.000002 0.000000 0.015558 0.182264 -1.340754
    30 3.551622 0.023919 -0.204473 0.012560 0.053537 -0.903374
    31 1.666992 0.000002 0.000000 -0.000009 0.314488 -1.208296
    32 1.243164 -0.000002 0.000000 -0.000007 0.196340 -1.483473
    33 3.449668 0.054214 -1.089088 0.053336 0.070642 -0.350277
    34 1.711616 0.000006 0.000011 0.000003 -0.028135 -0.751284
    35 1.005912 0.000000 0.000005 0.024860 -0.031429 -1.144212
    36 0.075534 -0.738747 -0.759723 1.293541 0.406464 -0.475804
    37 2.512460 -0.000006 -0.000004 -0.000002 -0.000001 0.359160
    38 1.328098 0.050782 -0.113290 -0.334965 0.008685 -0.059316
    39 -5.634054 -22.525124 -6.629100 1.372897 -0.304587 1.607779
    40 -0.163176 2.333985 0.382082 3.101636 0.166381 -1.515363
    41 1.417019 1.884747 0.307373 -0.111807 0.161678 -1.589027
    42 3.205127 2.388632 0.393068 -3.110087 -0.046555 2.851964
  time 4
    0 0.000005 -2.660156 -8.640625 -1.570760 -1.391893 -1.570827
    1 2.033348 1.000767 1.937660 1.596636 -1.286515 2.942963
    2 6.028145 0.000003 0.000002 -0.646468 -0.742517 -2.009768
    3 11.692549 0.000081 -0.000005 -0.000003 0.000024 -1.017680
    4 11.481670 -0.000089 -0.000024 -0.153430 0.460536 0.092525
    5 3.281560 0.002122 -1.383387 0.060410 -0.190574 -0.991217
    6 1.328125 0.000000 0.000002 0.000002 -0.054909 -0.582390
    7 0.819336 -0.000002 0.000002 0.000000 0.000000 -0.523574
    8 3.711854 0.109258 -0.568167 -0.040000 -0.149172 -1.054587
    9 1.609410 0.000004 -0.000005 -0.000002 0.001792 -0.427486
    10 0.993190 -0.000002 0.000002 0.001475 0.002258 -0.454063
    11 3.786034 0.203230 0.243937 0.033637 -0.078644 -0.628078
    12 1.684419 -0.000008 0.000009 -0.002551 0.005538 -1.014140
    13 1.256836 0.000005 -0.000003 0.000000 0.000000 -0.532315
    14 3.594223 0.299557 1.109803 -0.095765 -0.069968 -0.386028
    15 1.719431 0.000004 -0.000003 -0.000004 0.000016 -0.700927
    16 1.005918 -0.000004 0.000005 0.082207 0.103601 0.121628
    17 0.298218 -0.634091 0.426700 -1.044932 -0.909021 -0.513904
    18 2.633561 0.000000 -0.000004 0.028006 -0.062261 0.431133
    19 1.308566 0.000001 0.000002 0.023815 -0.053752 -0.264230
    20 2.033356 1.000772 -1.937610 -1.668474 1.286518 2.942953
    21 6.028141 0.000000 -0.000002 1.680905 0.873430 -0.500189
    22 11.692554 0.000000 -0.000001 0.000034 -0.000024 -1.756972
    23 11.481701 -0.000001 -0.000007 -0.806414 0.172863 1.064920
    24 2.914335 -0.023163 1.404053 0.005700 0.149255 -0.956695
    25 1.284180 -0.000002 0.000001 0.000007 -0.000008 -0.611443
    26 0.838744 0.000000 0.000000 0.053883 0.391803 -1.610270
    27 3.368063 0.007376 0.622456 0.036044 0.099261 -1.009923
    28 1.610352 0.000002 0.000000 -0.000007 0.259441 -1.086926
    29 1.015625 0.000002 0.000000 0.015558 0.182264 -1.340754
    30 3.555528 0.023919 -0.200566 0.012560 0.053537 -0.903374
    31 1.666992 0.000002 0.000000 -0.000009 0.314488 -1.208296
    32 1.243164 -0.000002 0.000000 -0.000007 0.196340 -1.483473
    33 3.449668 0.054214 -1.085181 0.053348 0.070642 -0.350277
    34 1.711616 0.000006 0.000011 0.000003 -0.028267 -0.754450
    35 1.005912 0.000000 0.000005 0.025040 -0.031513 -1.148323
    36 0.075534 -0.738747 -0.759723 1.293529 0.406464 -0.475804
    37 2.512460 -0.000006 -0.000004 -0.000002 -0.000001 0.359160
    38 1.324192 0.050782 -0.113290 -0.334965 0.008685 -0.059316
    39 -5.805935 -22.966544 -6.465032 1.331070 -0.243655 1.567687
    40 -0.163176 2.333985 0.382082 3.101636 0.166381 -1.515363
    41 1.417019 1.884747 0.307373 -0.111807 0.161678 -1.589027
    42 4.474697 2.013620 0.334472 -3.110087 -0.046555 2.851964
  time 5
    0 0.000005 -2.660156 -8.640625 -1.570760 -1.391893 -1.570827
    1 2.033348 1.000767 1.937660 1.596636 -1.286515 2.942963
    2 6.028145 0.000003 0.000002 -0.673150 -0.693529 -1.986456
    3 11.692549 0.000081 -0.000005 -0.000003 0.000024 -1.101704
    4 11.481670 -0.000089 -0.000024 -0.123745 0.452469 0.143740
    5 3.281560 0.002122 -1.379481 0.060428 -0.190574 -0.991217
    6 1.328125 0.000000 0.000002 0.000002 -0.054909 -0.582390
    7 0.819336 -0.000002 0.000002 0.000000 0.000000 -0.523574
    8 3.711854 0.109258 -0.568167 -0.040000 -0.149172 -1.054587
    9 1.609410 0.000004 -0.000005 -0.000002 0.001792 -0.427486
    10 0.993190 -0.000002 0.000002 0.001475 0.002258 -0.454063
    11 3.786034 0.203230 0.247844 0.018644 -0.080681 -0.648859
    12 1.684419 -0.000008 0.000009 -0.002215 0.005622 -0.960043
    13 1.256836 0.000005 -0.000003 0.000000 0.000000 -0.532315
    14 3.594223 0.299557 1.113710 -0.090914 -0.076188 -0.452533
    15 1.719431 0.000004 -0.000003 -0.000004 0.000016 -0.648874
    16 1.005918 -0.000004 0.000005 0.071853 0.090550 0.050236
    17 0.298218 -0.634091 0.426700 -1.059961 -0.900200 -0.524231
    18 2.633561 0.000000 -0.000004 0.025897 -0.074245 0.436312
    19 1.308566 0.000001 0.000002 0.020052 -0.053872 -0.200264
    20 2.033356 1.000772 -1.937610 -1.668474 1.286518 2.942953
    21 6.028141 0.000000 -0.000002 1.692808 0.855029 -0.484860
    22 11.692554 0.000000 -0.000001 0.000046 -0.000024 -1.809306
    23 11.481701 -0.000001 -0.000007 -0.883159 0.072428 1.118395
    24 2.914335 -0.023163 1.404053 0.005700 0.149255 -0.956695
    25 1.284180 -0.000002 0.000001 0.000007 -0.000008 -0.611443
    26 0.838744 0.000000 0.000000 0.053883 0.391803 -1.610229
    27 3.368063 0.007376 0.622456 0.036044 0.099261 -1.009923
    28 1.610352 0.000002 0.000000 -0.000007 0.259441 -1.086926
    29 1.015625 0.000002 0.000000 0.015558 0.182264 -1.340754
    30 3.555528 0.023919 -0.200566 0.012560 0.053537 -0.903374
    31 1.666992 0.000002 0.000000 -0.000009 0.314488 -1.208296
    32 1.243164 -0.000002 0.000000 -0.000007 0.196340 -1.483473
    33 3.449668 0.054214 -1.085181 0.053336 0.070642 -0.350277
    34 1.711616 0.000006 0.000011 0.000003 -0.028459 -0.758823
    35 1.002005 0.000000 0.000005 0.025268 -0.031633 -1.153937
    36 0.075534 -0.738747 -0.759723 1.293529 0.406464 -0.475804
    37 2.512460 -0.000006 -0.000004 -0.000002 -0.000001 0.359160
    38 1.324192 0.050782 -0.113290 -0.334965 0.008685 -0.059316
    39 -5.598897 -22.462622 -6.769729 1.412042 -0.327790 1.598923
    40 -0.163176 2.333985 0.382082 3.101636 0.166381 -1.515338
    41 1.417019 1.884747 0.307373 -0.111807 0.161678 -1.589027
    42 3.462948 2.306598 0.381349 -3.110087 -0.046555 2.851964
  time 6
    0 0.000005 -2.660156 -8.640625 -1.570760 -1.391893 -1.570827
    1 2.033348 1.000767 1.937660 1.596636 -1.286515 2.942963
    2 6.028145 0.000003 0.000002 -0.667598 -0.724286 -1.997089
    3 11.692549 0.000081 -0.000005 -0.000003 0.000024 -1.019166
    4 11.481670 -0.000089 -0.000024 -0.135906 0.465792 0.083973
    5 3.281560 0.002122 -1.383387 0.060428 -0.190574 -0.991217
    6 1.328125 0.000000 0.000002 0.000002 -0.054909 -0.582390
    7 0.819336 -0.000002 0.000002 0.000000 0.000000 -0.523574
    8 3.711854 0.109258 -0.568167 -0.040000 -0.149172 -1.054587
    9 1.609410 0.000004 -0.000005 -0.000002 0.001792 -0.427486
    10 0.993190 -0.000002 0.000002 0.001487 0.002258 -0.454063
    11 3.786034 0.203230 0.247844 0.001507 -0.082970 -0.672700
    12 1.684419 -0.000008 0.000009 -0.001856 0.005718 -0.897903
    13 1.256836 0.000005 -0.000003 0.000000 0.000000 -0.532315
    14 3.594223 0.299557 1.113710 -0.084836 -0.082899 -0.528913
    15 1.719431 0.000004 -0.000003 -0.000004 0.000016 -0.589171
    16 1.005918 -0.000004 0.000005 0.059964 0.075569 -0.031721
    17 0.298218 -0.634091 0.430606 -1.078173 -0.889701 -0.536265
    18 2.633561 0.000000 -0.000004 0.023404 -0.088495 0.442435
    19 1.308566 0.000001 0.000002 0.015594 -0.053991 -0.124211
    20 2.033356 1.000772 -1.937610 -1.668474 1.286518 2.942953
    21 6.028141 0.000000 -0.000002 1.656820 0.866162 -0.531552
    22 11.692554 0.000000 -0.000001 0.000046 -0.000024 -1.754415
    23 11.481701 -0.000001 -0.000007 -0.843791 0.170720 1.050539
    24 2.914335 -0.023163 1.404053 0.005700 0.149255 -0.956695
    25 1.284180 -0.000002 0.000001 0.000007 -0.000008 -0.611443
    26 0.838744 0.000000 0.000000 0.053883 0.391803 -1.610229
    27 3.368063 0.007376 0.622456 0.036044 0.099261 -1.009923
    28 1.610352 0.000002 0.000000 -0.000007 0.259441 -1.086926
    29 1.015625 0.000002 0.000000 0.015558 0.182264 -1.340754
    30 3.551622 0.023919 -0.200566 0.012560 0.053537 -0.903374
    31 1.666992 0.000002 0.000000 -0.000009 0.314488 -1.208296
    32 1.243164 -0.000002 0.000000 -0.000007 0.196340 -1.483473
    33 3.449668 0.054214 -1.085181 0.053336 0.070642 -0.350277
    34 1.711616 0.000006 0.000011 0.000003 -0.028663 -0.763706
    35 1.002005 0.000000 0.000005 0.025531 -0.031765 -1.160203
    36 0.075534 -0.738747 -0.759723 1.293541 0.406464 -0.475804
    37 2.512460 -0.000006 -0.000004 -0.000002 -0.000001 0.359160
    38 1.328098 0.050782 -0.113290 -0.334965 0.008685 -0.059316
    39 -5.696556 -23.009514 -6.785355 1.355499 -0.258077 1.573211
    40 -0.163176 2.333985 0.382082 3.101636 0.166381 -1.515363
    41 1.417019 1.884747 0.307373 -0.111807 0.161678 -1.589027
    42 4.521574 1.997995 0.330566 -3.110087 -0.046555 2.851964
  time 7
    0 0.000005 -2.660156 -8.640625 -1.570760 -1.391893 -1.570827
    1 2.033348 1.000767 1.937660 1.596636 -1.286515 2.942963
    2 6.028145 0.000003 0.000002 -0.665604 -0.699560 -1.991289
    3 11.692549 0.000081 -0.000005 -0.000003 0.000036 -1.102101
    4 11.481670 -0.000089 -0.000024 -0.109764 0.454830 0.169741
    5 3.281560 0.002122 -1.379481 0.060428 -0.190574 -0.991217
    6 1.328125 0.000000 0.000002 0.000002 -0.054909 -0.582390
    7 0.819336 -0.000002 0.000002 0.000000 0.000000 -0.523574
    8 3.711854 0.109258 -0.568167 -0.040000 -0.149172 -1.054587
    9 1.609410 0.000004 -0.000005 -0.000002 0.001792 -0.427486
    10 0.993190 -0.000002 0.000002 0.001475 0.002258 -0.454063
    11 3.786034 0.203230 0.247844 -0.016890 -0.085379 -0.698360
    12 1.684419 -0.000008 0.000009 -0.001448 0.005826 -0.831193
    13 1.256836 0.000005 -0.000003 0.000000 0.000000 -0.532315
    14 3.594223 0.299557 1.113710 -0.077762 -0.089575 -0.611004
    15 1.719431 0.000004 -0.000003 -0.000004 0.000016 -0.524987
    16 1.005918 -0.000004 0.000005 0.047176 0.059462 -0.119779
    17 0.298218 -0.634091 0.426700 -1.099032 -0.877885 -0.549518
    18 2.633561 0.000000 -0.000004 0.020599 -0.104495 0.449348
    19 1.308566 0.000001 0.000002 0.010560 -0.054111 -0.038835
    20 2.033356 1.000772 -1.937610 -1.668474 1.286518 2.942953
    21 6.028141 0.000000 -0.000002 1.708853 0.855813 -0.464108
    22 11.692554 0.000000 -0.000001 0.000034 -0.000024 -1.810555
    23 11.481701 -0.000001 -0.000007 -0.862060 0.078276 1.122369
    24 2.914335 -0.023163 1.404053 0.005700 0.149255 -0.956695
    25 1.284180 -0.000002 0.000001 0.000007 -0.000008 -0.611443
    26 0.838744 0.000000 0.000000 0.053883 0.391803 -1.610229
    27 3.368063 0.007376 0.622456 0.036044 0.099261 -1.009923
    28 1.610352 0.000002 0.000000 -0.000007 0.259441 -1.086926
    29 1.015625 0.000002 0.000000 0.015558 0.182264 -1.340754
    30 3.551622 0.023919 -0.200566 0.012560 0.053537 -0.903374
    31 1.666992 0.000002 0.000000 -0.000009 0.314488 -1.208296
    32 1.243164 -0.000002 0.000000 -0.000007 0.196340 -1.483473
    33 3.449668 0.054214 -1.085181 0.053336 0.070642 -0.350277
    34 1.711616 0.000006 0.000011 0.000003 -0.028842 -0.768320
    35 1.005912 0.000000 0.000005 0.025807 -0.031896 -1.166157
    36 0.075534 -0.738747 -0.759723 1.293529 0.406464 -0.475804
    37 2.512460 -0.000006 -0.000004 -0.000002 -0.000001 0.359160
    38 1.324192 0.050782 -0.113290 -0.334965 0.008685 -0.059316
    39 -5.712182 -22.446997 -6.597849 1.399768 -0.315094 1.590923
    40 -0.163176 2.333985 0.382082 3.087746 0.163588 -1.601504
    41 1.417019 1.884747 0.307373 -0.111807 0.161678 -1.589027
    42 4.056716 2.130811 0.350098 -3.110087 -0.046555 2.851964
  time 8
    0 0.000005 -2.660156 -8.640625 -1.570760 -1.391893 -1.570827
    1 2.033348 1.000767 1.937660 1.596636 -1.286515 2.942963
    2 6.028145 0.000003 0.000002 -0.654284 -0.684947 -1.998055
    3 11.692549 0.000081 -0.000005 -0.000015 0.000024 -1.157143
    4 11.481670 -0.000089 -0.000024 -0.054704 0.453284 0.312376
    5 3.281560 0.002122 -1.383387 0.060586 -0.190538 -0.991542
    6 1.328125 0.000000 0.000002 0.000002 -0.054909 -0.582390
    7 0.819336 -0.000002 0.000002 0.000000 0.000000 -0.523574
    8 3.711854 0.105351 -0.568167 -0.039832 -0.149124 -1.054902
    9 1.609410 0.000004 -0.000005 -0.000002 0.001792 -0.427486
    10 0.993190 -0.000002 0.000002 0.001475 0.002258 -0.454063
    11 3.786034 0.203230 0.243937 -0.035370 -0.087776 -0.724847
    12 1.684419 -0.000008 0.000009 -0.001053 0.005933 -0.763153
    13 1.256836 0.000005 -0.000003 0.000000 0.000000 -0.532315
    14 3.594223 0.299557 1.109803 -0.069821 -0.095771 -0.695209
    15 1.719431 0.000004 -0.000003 -0.000004 0.000016 -0.459585
    16 1.005918 -0.000004 0.000005 0.034149 0.043055 -0.209524
    17 0.298218 -0.634091 0.426700 -1.121716 -0.865157 -0.563923
    18 2.633561 0.000000 -0.000004 0.017567 -0.121704 0.456772
    19 1.308566 0.000001 0.000002 0.005155 -0.054267 0.053122
    20 2.033356 1.000772 -1.937610 -1.668474 1.286518 2.942953
    21 6.028141 0.000000 -0.000002 1.755038 0.858953 -0.404839
    22 11.692554 0.000000 -0.000001 0.000046 -0.000012 -1.823578
    23 11.481701 -0.000001 -0.000007 -0.830035 -0.011152 1.192988
    24 2.914335 -0.023163 1.404053 0.005700 0.149255 -0.956695
    25 1.284180 -0.000002 0.000001 0.000007 -0.000008 -0.611443
    26 0.838744 0.000000 0.000000 0.053883 0.391803 -1.610229
    27 3.368063 0.007376 0.622456 0.036044 0.099261 -1.009923
    28 1.610352 0.000002 0.000000 -0.000007 0.259441 -1.086926
    29 1.015625 0.000002 0.000000 0.015558 0.182264 -1.340754
    30 3.551622 0.023919 -0.200566 0.012560 0.053537 -0.903374
    31 1.666992 0.000002 0.000000 -0.000009 0.314488 -1.208296
    32 1.243164 -0.000002 0.000000 -0.000007 0.196340 -1.483473
    33 3.449668 0.054214 -1.089088 0.053336 0.070642 -0.350277
    34 1.711616 0.000006 0.000011 0.000003 -0.028998 -0.771969
    35 1.002005 0.000000 0.000005 0.025999 -0.031992 -1.170864
    36 0.075534 -0.738747 -0.759723 1.293541 0.406464 -0.475804
    37 2.508554 -0.000006 -0.000004 -0.000002 -0.000001 0.359160
    38 1.324192 0.050782 -0.113290 -0.334965 0.008685 -0.059316
    39 -5.778590 -22.279023 -6.508003 1.379987 -0.387743 1.609493
    40 -0.163176 2.333985 0.382082 3.066665 0.159346 -1.732142
    41 1.417019 1.884747 0.307373 -0.111807 0.161678 -1.589027
    42 3.205127 2.369100 0.393068 -3.110087 -0.046555 2.851964
  time 9
    0 0.000005 -2.660156 -8.640625 -1.570760 -1.391893 -1.570827
    1 2.033348 1.000767 1.937660 1.596636 -1.286515 2.942963
    2 6.028145 0.000003 0.000002 -0.633693 -0.683092 -2.016477
    3 11.692549 0.000081 -0.000005 -0.000015 0.000024 -1.182211
    4 11.481670 -0.000089 -0.000024 0.038276 0.446735 0.440955
    5 3.281560 0.002122 -1.379481 0.060410 -0.190574 -0.991217
    6 1.328125 0.000000 0.000002 0.000002 -0.054909 -0.582390
    7 0.819336 -0.000002 0.000002 0.000000 0.000000 -0.523574
    8 3.711854 0.109258 -0.568167 -0.040000 -0.149184 -1.054587
    9 1.609410 0.000004 -0.000005 -0.000002 0.001792 -0.427486
    10 0.993190 -0.000002 0.000002 0.001475 0.002258 -0.454063
    11 3.786034 0.203230 0.247844 -0.053611 -0.090017 -0.749900
    12 1.684419 -0.000008 0.000009 -0.000645 0.006029 -0.697137
    13 1.256836 0.000005 -0.000003 0.000000 0.000000 -0.532315
    14 3.594223 0.299557 1.113710 -0.061982 -0.101116 -0.776341
    15 1.719431 0.000004 -0.000003 -0.000004 0.000016 -0.396132
    16 1.005918 -0.000004 0.000005 0.021517 0.027127 -0.296579
    17 0.298218 -0.634091 0.430606 -1.146367 -0.851830 -0.577574
    18 2.633561 0.000000 -0.000004 0.014415 -0.139645 0.464476
    19 1.308566 0.000001 0.000002 -0.000418 -0.054423 0.148874
    20 2.033356 1.000772 -1.937610 -1.668474 1.286518 2.942953
    21 6.028141 0.000000 -0.000002 1.807628 0.858081 -0.338142
    22 11.692554 0.000000 -0.000001 0.000034 -0.000012 -1.852481
    23 11.481701 -0.000001 -0.000007 -0.782838 -0.098620 1.269359
    24 2.914335 -0.023163 1.404053 0.005700 0.149255 -0.956695
    25 1.284180 -0.000002 0.000001 0.000007 -0.000008 -0.611443
    26 0.838744 0.000000 0.000000 0.053883 0.391803 -1.610229
    27 3.368063 0.007376 0.622456 0.036044 0.099261 -1.009923
    28 1.610352 0.000002 0.000000 -0.000007 0.259441 -1.086926
    29 1.015625 0.000002 0.000000 0.015558 0.182264 -1.340754
    30 3.555528 0.023919 -0.200566 0.012560 0.053537 -0.903374
    31 1.666992 0.000002 0.000000 -0.000009 0.314488 -1.208296
    32 1.243164 -0.000002 0.000000 -0.000007 0.196340 -1.483473
    33 3.449668 0.054214 -1.085181 0.053336 0.070642 -0.350277
    34 1.711616 0.000006 0.000011 0.000003 -0.029082 -0.773954
    35 1.005912 0.000000 0.000005 0.026106 -0.032052 -1.173387
    36 0.075534 -0.738747 -0.759723 1.293529 0.406464 -0.475804
    37 2.512460 -0.000006 -0.000004 -0.000002 -0.000001 0.359160
    38 1.324192 0.050782 -0.113290 -0.334965 0.008685 -0.059316
    39 -5.833279 -21.915731 -6.285339 1.340007 -0.447413 1.632920
    40 -0.163176 2.333985 0.382082 3.053782 0.156757 -1.811932
    41 1.417019 1.884747 0.307373 -0.111807 0.161678 -1.589027
    42 2.744176 2.498010 0.412600 -3.110087 -0.046555 2.851964
  time 10
    0 0.000005 -2.660156 -8.640625 -1.570760 -1.391893 -1.570827
    1 2.033348 1.000767 1.937660 1.596636 -1.286515 2.942963
    2 6.028145 0.000003 0.000002 -0.602914 -0.698215 -2.046554
    3 11.692549 0.000081 -0.000005 -0.000015 0.000036 -1.170916
    4 11.481670 -0.000089 -0.000024 0.171475 0.440860 0.431911
    5 3.281560 0.002122 -1.379481 0.060410 -0.190574 -0.991217
    6 1.328125 0.000000 0.000002 0.000002 -0.054909 -0.582390
    7 0.819336 -0.000002 0.000002 0.000000 0.000000 -0.523574
    8 3.711854 0.109258 -0.568167 -0.040000 -0.149172 -1.054587
    9 1.609410 0.000004 -0.000005 -0.000002 0.001792 -0.427486
    10 0.993190 -0.000002 0.000002 0.001475 0.002258 -0.454063
    11 3.786034 0.203230 0.247844 -0.070113 -0.092043 -0.773217
    12 1.684419 -0.000008 0.000009 -0.000298 0.006125 -0.636560
    13 1.256836 0.000005 -0.000003 0.000000 0.000000 -0.532315
    14 3.594223 0.299557 1.109803 -0.054258 -0.105454 -0.851195
    15 1.719431 0.000004 -0.000003 -0.000004 0.000016 -0.337891
    16 1.005918 -0.000004 0.000005 0.009904 0.012506 -0.376568
    17 0.298218 -0.634091 0.426700 -1.171542 -0.838347 -0.591536
    18 2.633561 0.000000 -0.000004 0.011239 -0.157766 0.472308
    19 1.308566 0.000001 0.000002 -0.006110 -0.054591 0.245657
    20 2.033356 1.000772 -1.937610 -1.668474 1.286518 2.942953
    21 6.028141 0.000000 -0.000002 1.849568 0.846744 -0.284532
    22 11.692554 0.000000 -0.000001 0.000010 -0.000096 -1.870321
    23 11.481701 -0.000001 -0.000007 -0.723299 -0.125572 1.284232
    24 2.918241 -0.023163 1.400147 0.005402 0.149282 -0.957258
    25 1.284180 -0.000002 0.000001 0.000007 -0.000008 -0.611443
    26 0.838744 0.000000 0.000000 0.053883 0.391803 -1.610229
    27 3.371969 0.007376 0.622456 0.035744 0.099273 -1.010475
    28 1.610352 0.000002 0.000000 -0.000007 0.259441 -1.086926
    29 1.015625 0.000002 0.000000 0.015558 0.182264 -1.340754
    30 3.555528 0.023919 -0.200566 0.012273 0.053585 -0.903900
    31 1.666992 0.000002 0.000000 -0.000009 0.314488 -1.208296
    32 1.243164 -0.000002 0.000000 -0.000007 0.196340 -1.483473
    33 3.453574 0.054214 -1.089088 0.053124 0.070834 -0.350816
    34 1.711616 0.000006 0.000011 0.000003 -0.029058 -0.773444
    35 1.002005 0.000000 0.000005 0.026082 -0.032028 -1.172792
    36 0.079440 -0.734840 -0.759723 1.293254 0.406637 -0.476427
    37 2.512460 -0.000006 -0.000004 -0.000002 -0.000001 0.359160
    38 1.324192 0.050782 -0.113290 -0.334965 0.008685 -0.059316
    39 -6.028598 -21.716506 -5.972830 1.297347 -0.438348 1.642919
    40 -0.163176 2.333985 0.382082 3.045908 0.155175 -1.860795
    41 1.417019 1.884747 0.307373 -0.111807 0.161678 -1.589027
    42 2.744176 2.498010 0.412600 -3.110087 -0.046555 2.851964
  time 11
    0 0.000005 -2.660156 -8.640625 -1.570760 -1.391893 -1.570827
    1 2.033348 1.000767 1.937660 1.596636 -1.286515 2.942963
    2 6.028145 0.000003 0.000002 -0.562217 -0.724889 -2.090561
    3 11.692549 0.000081 -0.000005 -0.000015 0.000036 -1.123850
    4 11.481670 -0.000089 -0.000024 0.270200 0.446566 0.370423
    5 3.281560 0.002122 -1.383387 0.060410 -0.190574 -0.991217
    6 1.328125 0.000000 0.000002 0.000002 -0.054909 -0.582390
    7 0.819336 -0.000002 0.000002 0.000000 0.000000 -0.523574
    8 3.711854 0.109258 -0.568167 -0.040000 -0.149184 -1.054587
    9 1.609410 0.000004 -0.000005 -0.000002 0.001792 -0.427486
    10 0.993190 -0.000002 0.000002 0.001475 0.002258 -0.454063
    11 3.786034 0.203230 0.243937 -0.084231 -0.093732 -0.793200
    12 1.684419 -0.000008 0.000009 0.000002 0.006209 -0.584662
    13 1.256836 0.000005 -0.000003 0.000000 0.000000 -0.532315
    14 3.594223 0.299557 1.109803 -0.047400 -0.108702 -0.915368
    15 1.719431 0.000004 -0.000003 -0.000004 0.000016 -0.288005
    16 1.005918 -0.000004 0.000005 0.000005 0.000018 -0.445024
    17 0.298218 -0.634091 0.426700 -1.196773 -0.825105 -0.604944
    18 2.633561 0.000000 -0.000004 0.008123 -0.175575 0.479962
    19 1.308566 0.000001 0.000002 -0.011695 -0.054735 0.340750
    20 2.033356 1.000772 -1.937610 -1.668474 1.286518 2.942953
    21 6.028141 0.000000 -0.000002 1.867631 0.822964 -0.261225
    22 11.692554 0.000000 -0.000001 0.000046 -0.000012 -1.905349
    23 11.481701 -0.000001 -0.000007 -0.648854 -0.047004 1.255356
    24 2.914335 -0.023163 1.404053 0.005700 0.149255 -0.956695
    25 1.284180 -0.000002 0.000001 0.000007 -0.000008 -0.611443
    26 0.838744 0.000000 0.000000 0.053883 0.391803 -1.610229
    27 3.368063 0.007376 0.622456 0.036044 0.099261 -1.009923
    28 1.610352 0.000002 0.000000 -0.000007 0.259441 -1.086926
    29 1.015625 0.000002 0.000000 0.015558 0.182264 -1.340754
    30 3.555528 0.023919 -0.200566 0.012560 0.053537 -0.903374
    31 1.666992 0.000002 0.000000 -0.000009 0.314488 -1.208296
    32 1.243164 -0.000002 0.000000 -0.000007 0.196340 -1.483473
    33 3.449668 0.054214 -1.089088 0.053336 0.070642 -0.350277
    34 1.711616 0.000006 0.000011 0.000003 -0.028902 -0.769796
    35 1.005912 0.000000 0.000005 0.025891 -0.031932 -1.168057
    36 0.075534 -0.738747 -0.759723 1.293541 0.406464 -0.475804
    37 2.508554 -0.000006 -0.000004 -0.000002 -0.000001 0.359160
    38 1.324192 0.050782 -0.113290 -0.334965 0.008685 -0.059316
    39 -6.356733 -21.415715 -5.429845 1.256295 -0.330366 1.617588
    40 -0.163176 2.333985 0.382082 3.040335 0.154049 -1.895381
    41 1.417019 1.884747 0.307373 -0.111807 0.161678 -1.589027
    42 2.744176 2.498010 0.412600 -3.110087 -0.046555 2.851964
  time 12
    0 0.000005 -2.660156 -8.640625 -1.570760 -1.391893 -1.570827
    1 2.033348 1.000767 1.937660 1.596636 -1.286515 2.942963
    2 6.028145 0.000003 0.000002 -0.539631 -0.728136 -2.122173
    3 11.692549 0.000081 -0.000005 -0.000003 0.000024 -1.099623
    4 11.481670 -0.000089 -0.000024 0.298257 0.444964 0.349731
    5 3.281560 0.002122 -1.379481 0.060410 -0.190574 -0.991217
    6 1.328125 0.000000 0.000002 0.000002 -0.054909 -0.582390
    7 0.819336 -0.000002 0.000002 0.000000 0.000000 -0.523574
    8 3.711854 0.109258 -0.568167 -0.040000 -0.149172 -1.054587
    9 1.609410 0.000004 -0.000005 -0.000002 0.001792 -0.427486
    10 0.993190 -0.000002 0.000002 0.001475 0.002258 -0.454063
    11 3.786034 0.203230 0.247844 -0.084231 -0.093732 -0.793200
    12 1.684419 -0.000008 0.000009 0.000002 0.006209 -0.584662
    13 1.256836 0.000005 -0.000003 0.000000 0.000000 -0.532315
    14 3.594223 0.299557 1.109803 -0.047400 -0.108702 -0.915368
    15 1.719431 0.000004 -0.000003 -0.000004 0.000016 -0.288005
    16 1.005918 -0.000004 0.000005 0.000005 0.000018 -0.445024
    17 0.298218 -0.634091 0.426700 -1.221198 -0.812485 -0.617465
    18 2.633561 0.000000 -0.000004 0.005127 -0.192545 0.487283
    19 1.308566 0.000001 0.000002 -0.017028 -0.054866 0.431303
    20 2.033356 1.000772 -1.937610 -1.668474 1.286518 2.942953
    21 6.028141 0.000000 -0.000002 1.860427 0.798284 -0.270579
    22 11.692554 0.000000 -0.000001 0.000046 -0.000012 -1.945134
    23 11.481701 -0.000001 -0.000007 -0.592014 0.100615 1.213008
    24 2.914335 -0.023163 1.404053 0.005700 0.149255 -0.956695
    25 1.284180 -0.000002 0.000001 0.000007 -0.000008 -0.611443
    26 0.838744 0.000000 0.000000 0.053883 0.391803 -1.610229
    27 3.368063 0.007376 0.622456 0.036044 0.099261 -1.009923
    28 1.610352 0.000002 0.000000 -0.000007 0.259441 -1.086926
    29 1.015625 0.000002 0.000000 0.015558 0.182264 -1.340754
    30 3.555528 0.023919 -0.200566 0.012560 0.053537 -0.903374
    31 1.666992 0.000002 0.000000 -0.000009 0.314488 -1.208296
    32 1.243164 -0.000002 0.000000 -0.000007 0.196340 -1.483473
    33 3.449668 0.054214 -1.085181 0.053336 0.070642 -0.350277
    34 1.711616 0.000006 0.000011 0.000003 -0.028603 -0.762257
    35 1.005912 0.000000 0.000005 0.025459 -0.031729 -1.158360
    36 0.075534 -0.738747 -0.759723 1.293541 0.406464 -0.475804
    37 2.508554 -0.000006 -0.000004 -0.000002 -0.000001 0.359160
    38 1.328098 0.050782 -0.113290 -0.334965 0.008685 -0.059316
    39 -6.712212 -21.013359 -4.879047 1.222154 -0.175899 1.567211
    40 -0.163176 2.333985 0.382082 3.036093 0.153222 -1.921791
    41 1.417019 1.884747 0.307373 -0.111807 0.161678 -1.589027
    42 2.744176 2.498010 0.412600 -3.110087 -0.046555 2.851964
  time 13
    0 0.000005 -2.660156 -8.640625 -1.570760 -1.391893 -1.570827
    1 2.033348 1.000767 1.937660 1.596636 -1.286515 2.942963
    2 6.028145 0.000003 0.000002 -0.533486 -0.714869 -2.140651
    3 11.692549 0.000081 -0.000005 -0.000003 0.000024 -1.094867
    4 11.481670 -0.000089 -0.000024 0.299311 0.435295 0.358185
    5 3.281560 0.002122 -1.383387 0.060410 -0.190574 -0.991217
    6 1.328125 0.000000 0.000002 0.000002 -0.054909 -0.582390
    7 0.819336 -0.000002 0.000002 0.000000 0.000000 -0.523574
    8 3.711854 0.109258 -0.572073 -0.040000 -0.149172 -1.054587
    9 1.609410 0.000004 -0.000005 -0.000002 0.001792 -0.427486
    10 0.993190 -0.000002 0.000002 0.001475 0.002258 -0.454063
    11 3.786034 0.203230 0.243937 -0.084231 -0.093732 -0.793200
    12 1.684419 -0.000008 0.000009 0.000002 0.006209 -0.584662
    13 1.256836 0.000005 -0.000003 0.000000 0.000000 -0.532315
    14 3.594223 0.299557 1.109803 -0.047400 -0.108702 -0.915368
    15 1.719431 0.000004 -0.000003 -0.000004 0.000016 -0.287980
    16 1.005918 -0.000004 0.000005 0.000005 0.000018 -0.445024
    17 0.298218 -0.634091 0.426700 -1.244010 -0.800872 -0.628768
    18 2.633561 0.000000 -0.000004 0.002407 -0.208161 0.493967
    19 1.308566 0.000001 0.000002 -0.021942 -0.055010 0.514661
    20 2.033356 1.000772 -1.937610 -1.668474 1.286518 2.942953
    21 6.028141 0.000000 -0.000002 1.844695 0.777935 -0.290939
    22 11.692554 0.000000 -0.000001 0.000046 0.000012 -1.978972
    23 11.481701 -0.000001 -0.000007 -0.565474 0.212238 1.185494
    24 2.918241 -0.027070 1.404053 0.005369 0.149668 -0.957198
    25 1.284180 -0.000002 0.000001 0.000007 -0.000008 -0.611443
    26 0.838744 0.000000 0.000000 0.053883 0.391803 -1.610229
    27 3.371969 0.007376 0.622456 0.035708 0.099656 -1.010419
    28 1.610352 0.000002 0.000000 -0.000007 0.259441 -1.086926
    29 1.015625 0.000002 0.000000 0.015558 0.182264 -1.340754
    30 3.555528 0.023919 -0.200566 0.012273 0.053969 -0.903847
    31 1.666992 0.000002 0.000000 -0.000009 0.314488 -1.208296
    32 1.243164 -0.000002 0.000000 -0.000007 0.196340 -1.483473
    33 3.453574 0.054214 -1.089088 0.053311 0.071157 -0.350732
    34 1.711616 0.000006 0.000011 0.000003 -0.028087 -0.750050
    35 1.005912 0.000000 0.000005 0.024776 -0.031393 -1.142624
    36 0.079440 -0.734840 -0.759723 1.293433 0.406983 -0.476295
    37 2.512460 -0.000006 -0.000004 -0.000002 -0.000001 0.359148
    38 1.324192 0.050782 -0.113290 -0.334965 0.008685 -0.059316
    39 -6.934875 -20.622723 -4.601694 1.197428 -0.068199 1.530072
    40 -0.163176 2.333985 0.382082 3.033372 0.152670 -1.938737
    41 1.417019 1.884747 0.307373 -0.111807 0.161678 -1.589027
    42 2.744176 2.498010 0.412600 -3.110087 -0.046555 2.851964
  time 14
    0 0.000005 -2.660156 -8.640625 -1.570760 -1.391893 -1.570827
    1 2.033348 1.000767 1.937660 1.596636 -1.286515 2.942963
    2 6.028145 0.000003 0.000002 -0.538391 -0.702343 -2.142755
    3 11.692549 0.000081 -0.000005 -0.000015 0.000024 -1.099822
    4 11.481670 -0.000089 -0.000024 0.279585 0.425710 0.379910
    5 3.281560 0.002122 -1.383387 0.060586 -0.190550 -0.991542
    6 1.328125 0.000000 0.000002 0.000002 -0.054909 -0.582390
    7 0.819336 -0.000002 0.000002 0.000000 0.000000 -0.523574
    8 3.711854 0.105351 -0.568167 -0.039820 -0.149148 -1.054902
    9 1.609410 0.000004 -0.000005 -0.000002 0.001792 -0.427486
    10 0.993190 -0.000002 0.000002 0.001475 0.002258 -0.454063
    11 3.786034 0.203230 0.247844 -0.084063 -0.093744 -0.793503
    12 1.684419 -0.000008 0.000009 0.000002 0.006209 -0.584662
    13 1.256836 0.000005 -0.000003 0.000000 0.000000 -0.532315
    14 3.594223 0.299557 1.109803 -0.047227 -0.108690 -0.915673
    15 1.719431 0.000004 -0.000003 -0.000004 0.000016 -0.288005
    16 1.005918 -0.000004 0.000005 0.000005 0.000018 -0.445024
    17 0.298218 -0.634091 0.426700 -1.264133 -0.790697 -0.639029
    18 2.633561 0.000000 -0.000004 -0.000002 -0.221908 0.499860
    19 1.308566 0.000001 0.000002 -0.026232 -0.055118 0.588016
    20 2.033356 1.000772 -1.937610 -1.668474 1.286518 2.942953
    21 6.028141 0.000000 -0.000002 1.829973 0.770377 -0.309961
    22 11.692554 0.000000 -0.000001 0.000046 -0.000012 -1.992056
    23 11.481701 -0.000001 -0.000007 -0.570340 0.257207 1.169373
    24 2.914335 -0.023163 1.400147 0.005882 0.149242 -0.956374
    25 1.284180 -0.000002 0.000001 0.000007 -0.000008 -0.611443
    26 0.838744 0.000000 0.000000 0.053883 0.391803 -1.610229
    27 3.368063 0.007376 0.622456 0.036223 0.099261 -1.009610
    28 1.610352 0.000002 0.000000 -0.000007 0.259441 -1.086926
    29 1.015625 0.000002 0.000000 0.015558 0.182264 -1.340754
    30 3.551622 0.027826 -0.200566 0.012728 0.053513 -0.903058
    31 1.666992 0.000002 0.000000 -0.000009 0.314488 -1.208296
    32 1.243164 -0.000002 0.000000 -0.000007 0.196340 -1.483473
    33 3.449668 0.054214 -1.089088 0.053473 0.070522 -0.349977
    34 1.711616 0.000006 0.000011 0.000003 -0.027428 -0.734355
    35 1.005912 0.000000 0.000005 0.023913 -0.030938 -1.122437
    36 0.075534 -0.734840 -0.759723 1.293697 0.406369 -0.475444
    37 2.512460 -0.000006 -0.000004 -0.000002 -0.000001 0.359160
    38 1.324192 0.050782 -0.113290 -0.334965 0.008685 -0.059316
    39 -6.973939 -20.462561 -4.574350 1.195342 -0.030934 1.516835
    40 -0.163176 2.333985 0.382082 3.031862 0.152371 -1.948028
    41 1.417019 1.884747 0.307373 -0.111807 0.161678 -1.589027
    42 2.744176 2.498010 0.412600 -3.110087 -0.046555 2.851964
  time 15
    0 0.000005 -2.660156 -8.640625 -1.570760 -1.391893 -1.570827
    1 2.033348 1.000767 1.937660 1.596636 -1.286515 2.942963
    2 6.028145 0.000003 0.000002 -0.552730 -0.697890 -2.125812
    3 11.692549 0.000081 -0.000005 -0.000015 0.000036 -1.110771
    4 11.481670 -0.000089 -0.000024 0.240803 0.424445 0.397555
    5 3.281560 0.002122 -1.379481 0.060410 -0.190574 -0.991217
    6 1.328125 0.000000 0.000002 0.000002 -0.054909 -0.582390
    7 0.819336 -0.000002 0.000002 0.000000 0.000000 -0.523574
    8 3.711854 0.109258 -0.568167 -0.040000 -0.149184 -1.054587
    9 1.609410 0.000004 -0.000005 -0.000002 0.001792 -0.427486
    10 0.993190 -0.000002 0.000002 0.001475 0.002258 -0.454063
    11 3.786034 0.203230 0.247844 -0.084231 -0.093732 -0.793200
    12 1.684419 -0.000008 0.000009 0.000002 0.006209 -0.584662
    13 1.256836 0.000005 -0.000003 0.000000 0.000000 -0.532315
    14 3.594223 0.299557 1.113710 -0.047400 -0.108702 -0.915368
    15 1.719431 0.000004 -0.000003 -0.000004 0.000016 -0.288005
    16 1.005918 -0.000004 0.000005 0.000005 0.000018 -0.445024
    17 0.298218 -0.634091 0.430606 -1.264359 -0.790649 -0.638563
    18 2.633561 0.000000 -0.000004 -0.000002 -0.221920 0.499860
    19 1.308566 0.000001 0.000002 -0.026232 -0.055118 0.588016
    20 2.033356 1.000772 -1.937610 -1.668474 1.286518 2.942953
    21 6.028141 0.000000 -0.000002 1.813789 0.775057 -0.330713
    22 11.692554 0.000000 -0.000001 0.000046 -0.000012 -1.986822
    23 11.481701 -0.000001 -0.000007 -0.590554 0.297344 1.144584
    24 2.914335 -0.027070 1.404053 0.005567 0.149109 -0.956997
    25 1.284180 -0.000002 0.000001 0.000007 -0.000008 -0.611443
    26 0.838744 0.000000 0.000000 0.053883 0.391803 -1.610229
    27 3.368063 0.007376 0.622456 0.035912 0.099093 -1.010199
    28 1.610352 0.000002 0.000000 -0.000007 0.259441 -1.086926
    29 1.015625 0.000002 0.000000 0.015558 0.182264 -1.340754
    30 3.551622 0.023919 -0.200566 0.012429 0.053393 -0.903650
    31 1.666992 0.000002 0.000000 -0.000009 0.314488 -1.208296
    32 1.243164 -0.000002 0.000000 -0.000007 0.196340 -1.483473
    33 3.449668 0.054214 -1.085181 0.053149 0.070582 -0.350564
    34 1.711616 0.000006 0.000011 0.000003 -0.026685 -0.716810
    35 1.005912 0.000000 0.000005 0.022966 -0.030410 -1.099896
    36 0.075534 -0.738747 -0.759723 1.293326 0.406401 -0.476163
    37 2.512460 -0.000006 -0.000004 -0.000002 -0.000001 0.359160
    38 1.324192 0.050782 -0.113290 -0.334965 0.008685 -0.059316
    39 -6.919250 -20.489906 -4.554818 1.204041 -0.000056 1.506931
    40 -0.163176 2.333985 0.382082 3.031035 0.152203 -1.953201
    41 1.417019 1.884747 0.307373 -0.111807 0.161678 -1.589027
    42 2.744176 2.498010 0.412600 -3.110087 -0.046555 2.851964
  time 16
    0 0.000005 -2.660156 -8.640625 -1.570760 -1.391893 -1.570827
    1 2.033348 1.000767 1.937660 1.596636 -1.286515 2.942963
    2 6.028145 0.000003 0.000002 -0.572997 -0.692834 -2.101022
    3 11.692549 0.000081 -0.000005 -0.000003 0.000024 -1.125039
    4 11.481670 -0.000089 -0.000024 0.196755 0.426497 0.415888
    5 3.281560 0.002122 -1.383387 0.060410 -0.190574 -0.991217
    6 1.328125 0.000000 0.000002 0.000002 -0.054909 -0.582390
    7 0.819336 -0.000002 0.000002 0.000000 0.000000 -0.523574
    8 3.711854 0.109258 -0.568167 -0.040000 -0.149172 -1.054587
    9 1.609410 0.000004 -0.000005 -0.000002 0.001792 -0.427486
    10 0.993190 -0.000002 0.000002 0.001475 0.002258 -0.454063
    11 3.786034 0.203230 0.243937 -0.084231 -0.093732 -0.793200
    12 1.684419 -0.000008 0.000009 0.000002 0.006209 -0.584662
    13 1.256836 0.000005 -0.000003 0.000000 0.000000 -0.532315
    14 3.594223 0.299557 1.113710 -0.047400 -0.108702 -0.915368
    15 1.719431 0.000004 -0.000003 -0.000004 0.000016 -0.288005
    16 1.005918 -0.000004 0.000005 0.000005 0.000018 -0.445024
    17 0.298218 -0.634091 0.426700 -1.264373 -0.790649 -0.638563
    18 2.633561 0.000000 -0.000004 -0.000002 -0.221908 0.499860
    19 1.308566 0.000001 0.000002 -0.026232 -0.055118 0.588016
    20 2.033356 1.000772 -1.937610 -1.668474 1.286518 2.942953
    21 6.028141 0.000000 -0.000002 1.791792 0.782353 -0.358815
    22 11.692554 0.000000 -0.000001 0.000046 -0.000012 -1.975642
    23 11.481701 -0.000001 -0.000007 -0.627534 0.320555 1.117146
    24 2.914335 -0.023163 1.404053 0.005700 0.149255 -0.956695
    25 1.284180 -0.000002 0.000001 0.000007 -0.000008 -0.611443
    26 0.838744 0.000000 0.000000 0.053883 0.391803 -1.610229
    27 3.368063 0.007376 0.618550 0.036044 0.099261 -1.009923
    28 1.610352 0.000002 0.000000 -0.000007 0.259441 -1.086926
    29 1.015625 0.000002 0.000000 0.015558 0.182264 -1.340754
    30 3.551622 0.023919 -0.204473 0.012560 0.053537 -0.903374
    31 1.666992 0.000002 0.000000 -0.000009 0.314488 -1.208296
    32 1.243164 -0.000002 0.000000 -0.000007 0.196340 -1.483473
    33 3.449668 0.054214 -1.089088 0.053336 0.070642 -0.350277
    34 1.711616 0.000006 0.000011 0.000003 -0.025858 -0.697601
    35 1.005912 0.000000 0.000005 0.021948 -0.029799 -1.075172
    36 0.075534 -0.738747 -0.759723 1.293541 0.406464 -0.475804
    37 2.512460 -0.000006 -0.000004 -0.000002 -0.000001 0.359148
    38 1.324192 0.050782 -0.113290 -0.334965 0.008685 -0.059316
    39 -6.790340 -20.603191 -4.648571 1.224299 0.011146 1.504931
    40 -0.163176 2.333985 0.382082 3.030640 0.152131 -1.955719
    41 1.417019 1.884747 0.307373 -0.111807 0.161678 -1.589027
    42 2.744176 2.498010 0.412600 -3.110087 -0.046555 2.851964
  time 17
    0 0.000005 -2.660156 -8.640625 -1.570760 -1.391893 -1.570827
    1 2.033348 1.000767 1.937660 1.596636 -1.286515 2.942963
    2 6.028145 0.000003 0.000002 -0.598548 -0.681051 -2.074641
    3 11.692549 0.000081 -0.000005 -0.000015 0.000036 -1.139406
    4 11.481670 -0.000089 -0.000024 0.157111 0.428858 0.433926
    5 3.281560 0.002122 -1.383387 0.060410 -0.190574 -0.991217
    6 1.328125 0.000000 0.000002 0.000002 -0.054909 -0.582390
    7 0.819336 -0.000002 0.000002 0.000000 0.000000 -0.523574
    8 3.711854 0.109258 -0.568167 -0.040000 -0.149172 -1.054587
    9 1.609410 0.000004 -0.000005 -0.000002 0.001792 -0.427486
    10 0.993190 -0.000002 0.000002 0.001475 0.002258 -0.454063
    11 3.786034 0.203230 0.247844 -0.084231 -0.093732 -0.793200
    12 1.684419 -0.000008 0.000009 0.000002 0.006209 -0.584662
    13 1.256836 0.000005 -0.000003 0.000000 0.000000 -0.532315
    14 3.594223 0.299557 1.113710 -0.047400 -0.108702 -0.915368
    15 1.719431 0.000004 -0.000003 -0.000004 0.000016 -0.288005
    16 1.005918 -0.000004 0.000005 0.000005 0.000018 -0.445024
    17 0.298218 -0.634091 0.426700 -1.264359 -0.790649 -0.638563
    18 2.633561 0.000000 -0.000004 -0.000002 -0.221908 0.499860
    19 1.308566 0.000001 0.000002 -0.026232 -0.055118 0.588016
    20 2.033356 1.000772 -1.937610 -1.668474 1.286518 2.942953
    21 6.028141 0.000000 -0.000002 1.765863 0.790580 -0.391869
    22 11.692554 0.000000 -0.000001 0.000046 -0.000012 -1.959883
    23 11.481701 -0.000001 -0.000007 -0.676014 0.328510 1.090844
    24 2.914335 -0.023163 1.400147 0.005700 0.149255 -0.956695
    25 1.284180 -0.000002 0.000001 0.000007 -0.000008 -0.611443
    26 0.838744 0.000000 0.000000 0.053883 0.391803 -1.610229
    27 3.368063 0.007376 0.618550 0.036044 0.099261 -1.009923
    28 1.610352 0.000002 0.000000 -0.000007 0.259441 -1.086926
    29 1.015625 0.000002 0.000000 0.015558 0.182264 -1.340754
    30 3.551622 0.023919 -0.204473 0.012560 0.053537 -0.903374
    31 1.666992 0.000002 0.000000 -0.000009 0.314488 -1.208296
    32 1.243164 -0.000002 0.000000 -0.000007 0.196340 -1.483473
    33 3.449668 0.054214 -1.089088 0.053336 0.070642 -0.350277
    34 1.711616 0.000006 0.000011 0.000003 -0.024959 -0.676889
    35 1.005912 0.000000 0.000005 0.020845 -0.029128 -1.048520
    36 0.075534 -0.738747 -0.759723 1.293529 0.406464 -0.475804
    37 2.512460 -0.000006 -0.000004 -0.000002 -0.000001 0.359160
    38 1.324192 0.050782 -0.113290 -0.334965 0.008685 -0.059316
    39 -6.614553 -20.790696 -4.847796 1.254090 0.004450 1.508455
    40 -0.163176 2.333985 0.382082 3.030532 0.152107 -1.956451
    41 1.417019 1.884747 0.307373 -0.111807 0.161678 -1.589027
    42 2.744176 2.498010 0.412600 -3.110087 -0.046555 2.851964
  time 18
    0 0.000005 -2.660156 -8.640625 -1.570760 -1.391893 -1.570827
    1 2.033348 1.000767 1.937660 1.596636 -1.286515 2.942963
    2 6.028145 0.000003 0.000002 -0.630890 -0.663191 -2.043711
    3 11.692549 0.000081 -0.000005 -0.000003 -0.000192 -1.154517
    4 11.481670 -0.000089 -0.000024 0.122160 0.434086 0.448966
    5 3.285467 0.002122 -1.383387 0.060761 -0.190874 -0.991794
    6 1.328125 0.000000 0.000002 0.000002 -0.054909 -0.582390
    7 0.819336 -0.000002 0.000002 0.000000 0.000000 -0.523574
    8 3.715760 0.109258 -0.568167 -0.039604 -0.149448 -1.055148
    9 1.609410 0.000004 -0.000005 -0.000002 0.001792 -0.427486
    10 0.993190 -0.000002 0.000002 0.001487 0.002258 -0.454063
    11 3.786034 0.203230 0.243937 -0.083956 -0.094092 -0.793723
    12 1.684419 -0.000008 0.000009 0.000002 0.006209 -0.584662
    13 1.256836 0.000005 -0.000003 0.000000 0.000000 -0.532315
    14 3.594223 0.299557 1.113710 -0.047068 -0.109026 -0.915913
    15 1.719431 0.000004 -0.000003 -0.000004 0.000016 -0.288005
    16 1.005918 -0.000004 0.000005 0.000005 0.000018 -0.445024
    17 0.298218 -0.630185 0.426700 -1.264048 -0.791056 -0.639295
    18 2.633561 0.000000 -0.000004 -0.000002 -0.221908 0.499911
    19 1.308566 0.000001 0.000002 -0.026232 -0.055118 0.588016
    20 2.033356 1.000772 -1.937610 -1.668474 1.286518 2.942953
    21 6.028141 0.000000 -0.000002 1.737810 0.798138 -0.427635
    22 11.692554 0.000000 -0.000001 0.000046 -0.000012 -1.941507
    23 11.481701 -0.000001 -0.000007 -0.731880 0.324733 1.068402
    24 2.914335 -0.023163 1.400147 0.005700 0.149255 -0.956695
    25 1.284180 -0.000002 0.000001 0.000007 -0.000008 -0.611443
    26 0.838744 0.000000 0.000000 0.053883 0.391803 -1.610229
    27 3.368063 0.007376 0.618550 0.036044 0.099261 -1.009923
    28 1.610352 0.000002 0.000000 -0.000007 0.259441 -1.086926
    29 1.015625 0.000002 0.000000 0.015558 0.182264 -1.340754
    30 3.551622 0.023919 -0.204473 0.012560 0.053537 -0.903374
    31 1.666992 0.000002 0.000000 -0.000009 0.314488 -1.208296
    32 1.243164 -0.000002 0.000000 -0.000007 0.196340 -1.483473
    33 3.449668 0.054214 -1.089088 0.053336 0.070642 -0.350277
    34 1.711616 0.000006 0.000011 0.000003 -0.023989 -0.654836
    35 1.002005 0.000000 0.000005 0.019707 -0.028373 -1.020167
    36 0.075534 -0.738747 -0.759723 1.293541 0.406464 -0.475804
    37 2.512460 -0.000006 -0.000004 -0.000002 -0.000001 0.359160
    38 1.324192 0.050782 -0.113290 -0.334965 0.008685 -0.059316
    39 -6.415328 -21.013359 -5.129054 1.290793 -0.016538 1.513978
    40 -0.163176 2.333985 0.382082 3.030604 0.152119 -1.955856
    41 1.417019 1.884747 0.307373 -0.111807 0.161678 -1.589027
    42 2.744176 2.498010 0.412600 -3.110087 -0.046555 2.851964
  time 19
    0 0.000005 -2.660156 -8.640625 -1.570760 -1.391893 -1.570827
    1 2.033348 1.000767 1.937660 1.596636 -1.286515 2.942963
    2 6.028145 0.000003 0.000002 -0.665011 -0.642084 -2.012553
    3 11.692549 0.000081 -0.000005 -0.000015 0.000036 -1.167894
    4 11.481670 -0.000089 -0.000024 0.089985 0.439820 0.458305
    5 3.281560 0.002122 -1.379481 0.060656 -0.190454 -0.991650
    6 1.328125 0.000000 0.000002 0.000002 -0.054909 -0.582390
    7 0.819336 -0.000002 0.000002 0.000000 0.000000 -0.523574
    8 3.711854 0.105351 -0.568167 -0.039748 -0.149052 -1.055043
    9 1.609410 0.000004 -0.000005 -0.000002 0.001792 -0.427486
    10 0.993190 -0.000002 0.000002 0.001475 0.002258 -0.454063
    11 3.786034 0.203230 0.243937 -0.083980 -0.093660 -0.793641
    12 1.684419 -0.000008 0.000009 0.000002 0.006209 -0.584662
    13 1.256836 0.000005 -0.000003 0.000000 0.000000 -0.532315
    14 3.594223 0.299557 1.109803 -0.047140 -0.108594 -0.915804
    15 1.719431 0.000004 -0.000003 -0.000004 0.000016 -0.288005
    16 1.005918 -0.000004 0.000005 0.000005 0.000018 -0.445024
    17 0.298218 -0.634091 0.426700 -1.263977 -0.790625 -0.639250
    18 2.633561 0.000000 -0.000004 -0.000002 -0.221908 0.499860
    19 1.308566 0.000001 0.000002 -0.026232 -0.055118 0.588016
    20 2.033356 1.000772 -1.937610 -1.668474 1.286518 2.942953
    21 6.028141 0.000000 -0.000002 1.709966 0.804127 -0.463204
    22 11.692554 0.000000 -0.000001 0.000046 -0.000012 -1.922774
    23 11.481701 -0.000001 -0.000007 -0.789251 0.313799 1.050653
    24 2.914335 -0.023163 1.404053 0.005898 0.149216 -0.956394
    25 1.284180 -0.000002 0.000001 0.000007 -0.000008 -0.611443
    26 0.838744 0.000000 0.000000 0.053883 0.391803 -1.610270
    27 3.368063 0.007376 0.622456 0.036235 0.099213 -1.009628
    28 1.610352 0.000002 0.000000 -0.000007 0.259441 -1.086926
    29 1.015625 0.000002 0.000000 0.015558 0.182264 -1.340754
    30 3.551622 0.027826 -0.200566 0.012740 0.053477 -0.903071
    31 1.666992 0.000002 0.000000 -0.000009 0.314488 -1.208296
    32 1.243164 -0.000002 0.000000 -0.000007 0.196340 -1.483473
    33 3.449668 0.054214 -1.085181 0.053473 0.070486 -0.349989
    34 1.711616 0.000006 0.000011 0.000003 -0.022970 -0.631630
    35 1.005912 0.000000 0.000005 0.018520 -0.027546 -0.990311
    36 0.075534 -0.734840 -0.759723 1.293697 0.406338 -0.475456
    37 2.512460 -0.000006 -0.000004 -0.000002 -0.000001 0.359148
    38 1.324192 0.050782 -0.113290 -0.334965 0.008685 -0.059316
    39 -6.216103 -21.255554 -5.465002 1.330117 -0.045845 1.519882
    40 -0.163176 2.333985 0.382082 3.030855 0.152167 -1.954305
    41 1.417019 1.884747 0.307373 -0.111807 0.161678 -1.589027
    42 2.744176 2.498010 0.412600 -3.110087 -0.046555 2.851964
  time 20
    0 0.000005 -2.660156 -8.640625 -1.570760 -1.391893 -1.570827
    1 2.033348 1.000767 1.937660 1.596636 -1.286515 2.942963
    2 6.028145 0.000003 0.000002 -0.697838 -0.620605 -1.983386
    3 11.692549 0.000081 -0.000005 -0.000015 0.000036 -1.178298
    4 11.481670 -0.000089 -0.000024 0.061067 0.447381 0.462188
    5 3.281560 0.002122 -1.383387 0.060410 -0.190574 -0.991217
    6 1.328125 0.000000 0.000002 0.000002 -0.054909 -0.582390
    7 0.819336 -0.000002 0.000002 0.000000 0.000000 -0.523574
    8 3.711854 0.109258 -0.568167 -0.040000 -0.149172 -1.054587
    9 1.609410 0.000004 -0.000005 -0.000002 0.001792 -0.427486
    10 0.993190 -0.000002 0.000002 0.001475 0.002258 -0.454063
    11 3.786034 0.203230 0.243937 -0.084231 -0.093732 -0.793200
    12 1.684419 -0.000008 0.000009 0.000002 0.006209 -0.584662
    13 1.256836 0.000005 -0.000003 0.000000 0.000000 -0.532315
    14 3.594223 0.299557 1.113710 -0.047400 -0.108702 -0.915368
    15 1.719431 0.000004 -0.000003 -0.000004 0.000016 -0.288005
    16 1.005918 -0.000004 0.000005 0.000005 0.000018 -0.445024
    17 0.298218 -0.634091 0.426700 -1.264373 -0.790649 -0.638563
    18 2.633561 0.000000 -0.000004 -0.000002 -0.221908 0.499911
    19 1.308566 0.000001 0.000002 -0.026232 -0.055118 0.588016
    20 2.033356 1.000772 -1.937610 -1.668474 1.286518 2.942953
    21 6.028141 0.000000 -0.000002 1.682958 0.807354 -0.497909
    22 11.692554 0.000000 -0.000001 0.000046 -0.000024 -1.905706
    23 11.481701 -0.000001 -0.000007 -0.846622 0.291024 1.043614
    24 2.914335 -0.023163 1.404053 0.005700 0.149255 -0.956695
    25 1.284180 -0.000002 0.000001 0.000007 -0.000008 -0.611443
    26 0.838744 0.000000 0.000000 0.053883 0.391803 -1.610229
    27 3.368063 0.007376 0.618550 0.036044 0.099261 -1.009923
    28 1.610352 0.000002 0.000000 -0.000007 0.259441 -1.086926
    29 1.015625 0.000002 0.000000 0.015558 0.182264 -1.340754
    30 3.551622 0.023919 -0.200566 0.012560 0.053537 -0.903374
    31 1.666992 0.000002 0.000000 -0.000009 0.314488 -1.208296
    32 1.243164 -0.000002 0.000000 -0.000007 0.196340 -1.483473
    33 3.449668 0.054214 -1.085181 0.053336 0.070642 -0.350277
    34 1.711616 0.000006 0.000011 0.000003 -0.021879 -0.607404
    35 1.005912 0.000000 0.000005 0.017334 -0.026647 -0.959151
    36 0.075534 -0.738747 -0.759723 1.293541 0.406464 -0.475804
    37 2.512460 -0.000006 -0.000004 -0.000002 -0.000001 0.359160
    38 1.324192 0.050782 -0.113290 -0.334965 0.008685 -0.059316
    39 -6.024691 -21.489936 -5.867358 1.372122 -0.089111 1.527215
    40 -0.163176 2.333985 0.382082 3.031215 0.152251 -1.952022
    41 1.417019 1.884747 0.307373 -0.111807 0.161678 -1.589027
    42 2.744176 2.498010 0.412600 -3.110087 -0.046555 2.851964
  time 21
    0 0.000005 -2.660156 -8.640625 -1.570760 -1.391893 -1.570827
    1 2.033348 1.000767 1.937660 1.596636 -1.286515 2.942963
    2 6.028145 0.000003 0.000002 -0.725760 -0.602003 -1.959393
    3 11.692549 0.000081 -0.000005 -0.000015 0.000036 -1.183698
    4 11.481670 -0.000089 -0.000024 0.034159 0.455673 0.460517
    5 3.281560 0.002122 -1.379481 0.060410 -0.190574 -0.991217
    6 1.328125 0.000000 0.000002 0.000002 -0.054909 -0.582390
    7 0.819336 -0.000002 0.000002 0.000000 0.000000 -0.523574
    8 3.711854 0.109258 -0.568167 -0.040000 -0.149172 -1.054587
    9 1.609410 0.000004 -0.000005 -0.000002 0.001792 -0.427486
    10 0.993190 -0.000002 0.000002 0.001475 0.002258 -0.454063
    11 3.786034 0.203230 0.247844 -0.084231 -0.093732 -0.793200
    12 1.684419 -0.000008 0.000009 0.000002 0.006209 -0.584662
    13 1.256836 0.000005 -0.000003 0.000000 0.000000 -0.532315
    14 3.594223 0.299557 1.113710 -0.047400 -0.108702 -0.915368
    15 1.719431 0.000004 -0.000003 -0.000004 0.000016 -0.288005
    16 1.005918 -0.000004 0.000005 0.000005 0.000018 -0.445024
    17 0.298218 -0.634091 0.430606 -1.264359 -0.790649 -0.638563
    18 2.633561 0.000000 -0.000004 -0.000002 -0.221920 0.499911
    19 1.308566 0.000001 0.000002 -0.026232 -0.055118 0.588016
    20 2.033356 1.000772 -1.937610 -1.668474 1.286518 2.942953
    21 6.028141 0.000000 -0.000002 1.659013 0.808313 -0.528841
    22 11.692554 0.000000 -0.000001 0.000046 -0.000024 -1.891255
    23 11.481701 -0.000001 -0.000007 -0.899216 0.262292 1.046301
    24 2.914335 -0.023163 1.404053 0.005700 0.149255 -0.956695
    25 1.284180 -0.000002 0.000001 0.000007 -0.000008 -0.611443
    26 0.838744 0.000000 0.000000 0.053883 0.391803 -1.610229
    27 3.368063 0.007376 0.622456 0.036044 0.099261 -1.009923
    28 1.610352 0.000002 0.000000 -0.000007 0.259441 -1.086926
    29 1.015625 0.000002 0.000000 0.015558 0.182264 -1.340754
    30 3.555528 0.023919 -0.200566 0.012560 0.053537 -0.903374
    31 1.666992 0.000002 0.000000 -0.000009 0.314488 -1.208296
    32 1.243164 -0.000002 0.000000 -0.000007 0.196340 -1.483473
    33 3.449668 0.054214 -1.089088 0.053336 0.070642 -0.350277
    34 1.711616 0.000006 0.000011 0.000003 -0.020741 -0.582400
    35 1.005912 0.000000 0.000005 0.016099 -0.025676 -0.926885
    36 0.075534 -0.738747 -0.755817 1.293529 0.406464 -0.475804
    37 2.512460 -0.000006 -0.000004 -0.000002 -0.000001 0.359160
    38 1.324192 0.050782 -0.113290 -0.334965 0.008685 -0.059316
    39 -5.852811 -21.685255 -6.304871 1.412280 -0.139561 1.533595
    40 -0.163176 2.333985 0.382082 3.031682 0.152335 -1.949219
    41 1.417019 1.884747 0.307373 -0.111807 0.161678 -1.589027
    42 2.744176 2.498010 0.412600 -3.110087 -0.046555 2.851964
  time 22
    0 0.000005 -2.660156 -8.640625 -1.570760 -1.391893 -1.570827
    1 2.033348 1.000767 1.937660 1.596636 -1.286515 2.942963
    2 6.028145 0.000003 0.000002 -0.746190 -0.589571 -1.941881
    3 11.692549 0.000081 -0.000005 -0.000015 0.000036 -1.183945
    4 11.481670 -0.000089 -0.000024 0.008496 0.463740 0.453242
    5 3.281560 0.002122 -1.379481 0.060428 -0.190574 -0.991217
    6 1.328125 0.000000 0.000002 0.000002 -0.054909 -0.582390
    7 0.819336 -0.000002 0.000002 0.000000 0.000000 -0.523574
    8 3.711854 0.109258 -0.568167 -0.040000 -0.149172 -1.054587
    9 1.609410 0.000004 -0.000005 -0.000002 0.001792 -0.427486
    10 0.993190 -0.000002 0.000002 0.001487 0.002258 -0.454063
    11 3.786034 0.203230 0.247844 -0.084231 -0.093732 -0.793200
    12 1.684419 -0.000008 0.000009 0.000002 0.006209 -0.584662
    13 1.256836 0.000005 -0.000003 0.000000 0.000000 -0.532315
    14 3.594223 0.299557 1.113710 -0.047400 -0.108702 -0.915368
    15 1.719431 0.000004 -0.000003 -0.000004 0.000016 -0.288005
    16 1.005918 -0.000004 0.000005 0.000005 0.000018 -0.445024
    17 0.298218 -0.634091 0.426700 -1.237783 -0.804012 -0.625732
    18 2.633561 0.000000 -0.000004 0.003150 -0.203943 0.492182
    19 1.308566 0.000001 0.000002 -0.020600 -0.054974 0.492067
    20 2.033356 1.000772 -1.937610 -1.668474 1.286518 2.942953
    21 6.028141 0.000000 -0.000002 1.639592 0.808487 -0.554152
    22 11.692554 0.000000 -0.000001 0.000046 -0.000024 -1.878112
    23 11.481701 -0.000001 -0.000007 -0.943626 0.230945 1.056557
    24 2.914335 -0.023163 1.400147 0.005700 0.149255 -0.956695
    25 1.284180 -0.000002 0.000001 0.000007 -0.000008 -0.611443
    26 0.838744 0.000000 0.000000 0.053883 0.391803 -1.610229
    27 3.368063 0.007376 0.618550 0.036044 0.099261 -1.009923
    28 1.610352 0.000002 0.000000 -0.000007 0.259441 -1.086926
    29 1.015625 0.000002 0.000000 0.015558 0.182264 -1.340754
    30 3.551622 0.023919 -0.204473 0.012560 0.053537 -0.903374
    31 1.666992 0.000002 0.000000 -0.000009 0.314488 -1.208296
    32 1.243164 -0.000002 0.000000 -0.000007 0.196340 -1.483473
    33 3.449668 0.054214 -1.089088 0.053336 0.070642 -0.350277
    34 1.711616 0.000006 0.000011 0.000003 -0.019566 -0.556672
    35 1.005912 0.000000 0.000005 0.014901 -0.024634 -0.893882
    36 0.075534 -0.738747 -0.759723 1.293529 0.406464 -0.475804
    37 2.512460 -0.000006 -0.000004 -0.000002 -0.000001 0.359160
    38 1.324192 0.050782 -0.113290 -0.334965 0.008685 -0.059316
    39 -5.716088 -21.853229 -6.722853 1.447553 -0.192690 1.538547
    40 -0.163176 2.333985 0.382082 3.032210 0.152443 -1.946043
    41 1.417019 1.884747 0.307373 -0.111807 0.161678 -1.589027
    42 2.744176 2.498010 0.412600 -3.110087 -0.046555 2.851964
  time 23
    0 0.000005 -2.660156 -8.640625 -1.570760 -1.391893 -1.570827
    1 2.033348 1.000767 1.937660 1.596636 -1.286515 2.942963
    2 6.028145 0.000003 0.000002 -0.757779 -0.584468 -1.931419
    3 11.692549 0.000081 -0.000005 -0.000015 0.000036 -1.181221
    4 11.481670 -0.000089 -0.000024 -0.015731 0.470261 0.441594
    5 3.281560 0.002122 -1.383387 0.060428 -0.190574 -0.991217
    6 1.328125 0.000000 0.000002 0.000002 -0.054909 -0.582390
    7 0.819336 -0.000002 0.000002 0.000000 0.000000 -0.523574
    8 3.711854 0.109258 -0.568167 -0.040000 -0.149184 -1.054587
    9 1.609410 0.000004 -0.000005 -0.000002 0.001792 -0.427486
    10 0.993190 -0.000002 0.000002 0.001475 0.002258 -0.454063
    11 3.786034 0.203230 0.243937 -0.068495 -0.091851 -0.770930
    12 1.684419 -0.000008 0.000009 -0.000334 0.006113 -0.642519
    13 1.256836 0.000005 -0.000003 0.000000 0.000000 -0.532315
    14 3.594223 0.299557 1.113710 -0.055023 -0.105047 -0.843849
    15 1.719431 0.000004 -0.000003 -0.000004 0.000016 -0.343615
    16 1.005918 -0.000004 0.000005 0.011067 0.013944 -0.368692
    17 0.298218 -0.634091 0.426700 -1.207316 -0.819628 -0.610396
    18 2.633561 0.000000 -0.000004 0.006817 -0.182946 0.483151
    19 1.308566 0.000001 0.000002 -0.014008 -0.054794 0.379972
    20 2.033356 1.000772 -1.937610 -1.668474 1.286518 2.942953
    21 6.028141 0.000000 -0.000002 1.627375 0.810464 -0.570109
    22 11.692554 0.000000 -0.000001 0.000034 -0.000024 -1.864672
    23 11.481701 -0.000001 -0.000007 -0.975519 0.198435 1.072527
    24 2.914335 -0.023163 1.404053 0.005700 0.149255 -0.956695
    25 1.284180 -0.000002 0.000001 0.000007 -0.000008 -0.611443
    26 0.838744 0.000000 0.000000 0.053883 0.391803 -1.610229
    27 3.368063 0.007376 0.622456 0.036044 0.099261 -1.009923
    28 1.610352 0.000002 0.000000 -0.000007 0.259441 -1.086926
    29 1.015625 0.000002 0.000000 0.015558 0.182264 -1.340754
    30 3.551622 0.023919 -0.200566 0.012560 0.053537 -0.903374
    31 1.666992 0.000002 0.000000 -0.000009 0.314488 -1.208296
    32 1.243164 -0.000002 0.000000 -0.000007 0.196340 -1.483473
    33 3.449668 0.054214 -1.089088 0.053336 0.070642 -0.350277
    34 1.711616 0.000006 0.000011 0.000003 -0.018356 -0.530460
    35 1.005912 0.000000 0.000005 0.013690 -0.023531 -0.860142
    36 0.075534 -0.738747 -0.759723 1.293529 0.406464 -0.475804
    37 2.512460 -0.000006 -0.000004 -0.000002 -0.000001 0.359160
    38 1.324192 0.050782 -0.113290 -0.334965 0.008685 -0.059316
    39 -5.618429 -22.005577 -7.062707 1.474484 -0.244093 1.542737
    40 -0.163176 2.333985 0.382082 3.032737 0.152551 -1.942632
    41 1.417019 1.884747 0.307373 -0.111807 0.161678 -1.589027
    42 2.744176 2.498010 0.412600 -3.110087 -0.046555 2.851964
  time 24
    0 0.000005 -2.660156 -8.640625 -1.570760 -1.391893 -1.570827
    1 2.033348 1.000767 1.937660 1.596636 -1.286515 2.942963
    2 6.028145 0.000003 0.000002 -0.760474 -0.587622 -1.928235
    3 11.692549 0.000081 -0.000005 -0.000015 0.000036 -1.173690
    4 11.481670 -0.000089 -0.000024 -0.036510 0.474927 0.421344
    5 3.281560 0.002122 -1.383387 0.060428 -0.190574 -0.991217
    6 1.328125 0.000000 0.000002 0.000002 -0.054909 -0.582390
    7 0.819336 -0.000002 0.000002 0.000000 0.000000 -0.523574
    8 3.711854 0.109258 -0.568167 -0.040000 -0.149184 -1.054587
    9 1.609410 0.000004 -0.000005 -0.000002 0.001792 -0.427486
    10 0.993190 -0.000002 0.000002 0.001475 0.002258 -0.454063
    11 3.786034 0.203230 0.243937 -0.049859 -0.089562 -0.744636
    12 1.684419 -0.000008 0.000009 -0.000741 0.006005 -0.710849
    13 1.256836 0.000005 -0.000003 0.000000 0.000000 -0.532315
    14 3.594223 0.299557 1.109803 -0.063685 -0.100049 -0.759426
    15 1.719431 0.000004 -0.000003 -0.000004 0.000016 -0.409285
    16 1.005918 -0.000004 0.000005 0.024154 0.030435 -0.278525
    17 0.298218 -0.634091 0.426700 -1.174797 -0.836634 -0.593309
    18 2.633561 0.000000 -0.000004 0.010844 -0.160079 0.473278
    19 1.308566 0.000001 0.000002 -0.006841 -0.054603 0.258007
    20 2.033356 1.000772 -1.937610 -1.668474 1.286518 2.942953
    21 6.028141 0.000000 -0.000002 1.628454 0.817121 -0.568655
    22 11.692554 0.000000 -0.000001 0.000046 -0.000024 -1.851113
    23 11.481701 -0.000001 -0.000007 -0.989452 0.166470 1.091185
    24 2.914335 -0.023163 1.400147 0.005700 0.149255 -0.956695
    25 1.284180 -0.000002 0.000001 0.000007 -0.000008 -0.611443
    26 0.838744 0.000000 0.000000 0.053883 0.391803 -1.610270
    27 3.368063 0.007376 0.622456 0.036044 0.099261 -1.009923
    28 1.610352 0.000002 0.000000 -0.000007 0.259441 -1.086926
    29 1.015625 0.000002 0.000000 0.015558 0.182264 -1.340754
    30 3.555528 0.023919 -0.204473 0.012560 0.053537 -0.903374
    31 1.666992 0.000002 0.000000 -0.000009 0.314488 -1.208296
    32 1.243164 -0.000002 0.000000 -0.000007 0.196340 -1.483473
    33 3.449668 0.054214 -1.089088 0.053336 0.070642 -0.350277
    34 1.711616 0.000006 0.000011 0.000003 -0.017109 -0.503900
    35 1.005912 0.000000 0.000005 0.012516 -0.022381 -0.826004
    36 0.075534 -0.738747 -0.759723 1.293529 0.406464 -0.475804
    37 2.512460 -0.000006 -0.000004 -0.000002 -0.000001 0.359160
    38 1.324192 0.050782 -0.113290 -0.334965 0.008685 -0.059316
    39 -5.571553 -22.134487 -7.238494 1.490392 -0.285272 1.546070
    40 -0.163176 2.333985 0.382082 3.033312 0.152670 -1.939109
    41 1.417019 1.884747 0.307373 -0.111807 0.161678 -1.589027
    42 2.744176 2.498010 0.412600 -3.110087 -0.046555 2.851964
  time 25
    0 0.000005 -2.660156 -8.640625 -1.570760 -1.391893 -1.570827
    1 2.033348 1.000767 1.937660 1.596636 -1.286515 2.942963
    2 6.028145 0.000003 0.000002 -0.758534 -0.594302 -1.929372
    3 11.692549 0.000081 -0.000005 -0.000015 0.000024 -1.164029
    4 11.481670 -0.000089 -0.000024 -0.050395 0.477570 0.391558
    5 3.281560 0.002122 -1.383387 0.060428 -0.190574 -0.991217
    6 1.328125 0.000000 0.000002 0.000002 -0.054909 -0.582390
    7 0.819336 -0.000002 0.000002 0.000000 0.000000 -0.523574
    8 3.711854 0.109258 -0.568167 -0.040000 -0.149172 -1.054587
    9 1.609410 0.000004 -0.000005 -0.000002 0.001792 -0.427535
    10 0.993190 -0.000002 0.000002 0.001475 0.002258 -0.454063
    11 3.786034 0.203230 0.247844 -0.029546 -0.086997 -0.716082
    12 1.684419 -0.000008 0.000009 -0.001184 0.005898 -0.785081
    13 1.256836 0.000005 -0.000003 0.000000 0.000000 -0.532315
    14 3.594223 0.299557 1.113710 -0.072550 -0.093829 -0.667853
    15 1.719431 0.000004 -0.000003 -0.000004 0.000016 -0.480679
    16 1.005918 -0.000004 0.000005 0.038356 0.048340 -0.180623
    17 0.298218 -0.634091 0.426700 -1.142079 -0.854143 -0.575137
    18 2.633561 0.000000 -0.000004 0.014979 -0.136517 0.463150
    19 1.308566 0.000001 0.000002 0.000517 -0.054387 0.132202
    20 2.033356 1.000772 -1.937610 -1.668474 1.286518 2.942953
    21 6.028141 0.000000 -0.000002 1.626679 0.822790 -0.571013
    22 11.692554 0.000000 -0.000001 0.000082 -0.000168 -1.837673
    23 11.481701 -0.000001 -0.000007 -1.000688 0.138501 1.108291
    24 2.918241 -0.023163 1.404053 0.005352 0.149415 -0.957318
    25 1.284180 -0.000002 0.000001 0.000007 -0.000008 -0.611443
    26 0.838744 0.000000 0.000000 0.053883 0.391803 -1.610270
    27 3.371969 0.007376 0.622456 0.035684 0.099392 -1.010530
    28 1.610352 0.000002 0.000000 -0.000007 0.259441 -1.086926
    29 1.015625 0.000002 0.000000 0.015558 0.182264 -1.340754
    30 3.559435 0.023919 -0.200566 0.012225 0.053717 -0.903966
    31 1.666992 0.000002 0.000000 -0.000009 0.314488 -1.208296
    32 1.243164 -0.000002 0.000000 -0.000007 0.196340 -1.483473
    33 3.453574 0.054214 -1.085181 0.053149 0.070965 -0.350864
    34 1.711616 0.000006 0.000011 0.000003 -0.015863 -0.477206
    35 1.005912 0.000000 0.000005 0.011365 -0.021182 -0.791640
    36 0.079440 -0.734840 -0.759723 1.293278 0.406763 -0.476487
    37 2.512460 -0.000006 -0.000004 -0.000002 -0.000001 0.359148
    38 1.324192 0.050782 -0.113290 -0.334965 0.008685 -0.059316
    39 -5.524676 -22.259491 -7.425999 1.501117 -0.323927 1.550356
    40 -0.163176 2.333985 0.382082 3.033888 0.152778 -1.935573
    41 1.417019 1.884747 0.307373 -0.111807 0.161678 -1.589027
    42 2.744176 2.498010 0.412600 -3.110087 -0.046555 2.851964
  time 26
    0 0.000005 -2.660156 -8.640625 -1.570760 -1.391893 -1.570827
    1 2.033348 1.000767 1.937660 1.596636 -1.286515 2.942963
    2 6.028145 0.000003 0.000002 -0.752443 -0.605621 -1.933068
    3 11.692549 0.000081 -0.000005 -0.000015 0.000036 -1.152337
    4 11.481670 -0.000089 -0.000024 -0.061215 0.478975 0.354007
    5 3.281560 0.002122 -1.383387 0.060410 -0.190574 -0.991217
    6 1.328125 0.000000 0.000002 0.000002 -0.054909 -0.582390
    7 0.819336 -0.000002 0.000002 0.000000 0.000000 -0.523574
    8 3.711854 0.109258 -0.568167 -0.040000 -0.149184 -1.054587
    9 1.609410 0.000004 -0.000005 -0.000002 0.001792 -0.427486
    10 0.993190 -0.000002 0.000002 0.001475 0.002258 -0.454063
    11 3.786034 0.203230 0.247844 -0.008788 -0.084324 -0.687087
    12 1.684419 -0.000008 0.000009 -0.001640 0.005778 -0.860585
    13 1.256836 0.000005 -0.000003 0.000000 0.000000 -0.532315
    14 3.594223 0.299557 1.113710 -0.080938 -0.086698 -0.574820
    15 1.719431 0.000004 -0.000003 -0.000004 0.000016 -0.553243
    16 1.005918 -0.000004 0.000005 0.052797 0.066557 -0.080980
    17 0.298218 -0.634091 0.426700 -1.110834 -0.871281 -0.556787
    18 2.633561 0.000000 -0.000004 0.019029 -0.113399 0.453175
    19 1.308566 0.000001 0.000002 0.007780 -0.054195 0.008789
    20 2.033356 1.000772 -1.937610 -1.668474 1.286518 2.942953
    21 6.028141 0.000000 -0.000002 1.628872 0.829941 -0.568104
    22 11.692554 0.000000 -0.000001 0.000046 -0.000012 -1.824114
    23 11.481701 -0.000001 -0.000007 -0.996662 0.114636 1.119001
    24 2.914335 -0.023163 1.404053 0.005700 0.149255 -0.956695
    25 1.284180 -0.000002 0.000001 0.000007 -0.000008 -0.611443
    26 0.838744 0.000000 0.000000 0.053883 0.391803 -1.610229
    27 3.368063 0.007376 0.622456 0.036044 0.099261 -1.009923
    28 1.610352 0.000002 0.000000 -0.000007 0.259441 -1.086926
    29 1.015625 0.000002 0.000000 0.015558 0.182264 -1.340754
    30 3.551622 0.023919 -0.200566 0.012560 0.053537 -0.903374
    31 1.666992 0.000002 0.000000 -0.000009 0.314488 -1.208296
    32 1.243164 -0.000002 0.000000 -0.000007 0.196340 -1.483473
    33 3.449668 0.054214 -1.085181 0.053336 0.070642 -0.350277
    34 1.711616 0.000006 0.000011 0.000003 -0.014593 -0.450512
    35 1.005912 0.000000 0.000005 0.010275 -0.019948 -0.757305
    36 0.075534 -0.738747 -0.759723 1.293529 0.406464 -0.475804
    37 2.512460 -0.000006 -0.000004 -0.000002 -0.000001 0.359160
    38 1.328098 0.050782 -0.113290 -0.334965 0.008685 -0.059316
    39 -5.489519 -22.372776 -7.515846 1.497185 -0.351226 1.558069
    40 -0.163176 2.333985 0.382082 3.034427 0.152886 -1.932162
    41 1.417019 1.884747 0.307373 -0.111807 0.161678 -1.589027
    42 2.744176 2.498010 0.412600 -3.110087 -0.046555 2.851964
  time 27
    0 0.000005 -2.660156 -8.640625 -1.570760 -1.391893 -1.570827
    1 2.033348 1.000767 1.937660 1.596636 -1.286515 2.942963
    2 6.028145 0.000003 0.000002 -0.743117 -0.619724 -1.938924
    3 11.692549 0.000081 -0.000005 -0.000015 0.000036 -1.140447
    4 11.481670 -0.000089 -0.000024 -0.069355 0.478666 0.312082
    5 3.281560 0.002122 -1.379481 0.060428 -0.190574 -0.991217
    6 1.328125 0.000000 0.000002 0.000002 -0.054909 -0.582390
    7 0.819336 -0.000002 0.000002 0.000000 0.000000 -0.523574
    8 3.711854 0.109258 -0.568167 -0.040000 -0.149184 -1.054587
    9 1.609410 0.000004 -0.000005 -0.000002 0.001792 -0.427486
    10 0.993190 -0.000002 0.000002 0.001475 0.002258 -0.454063
    11 3.786034 0.203230 0.247844 0.011094 -0.081700 -0.659360
    12 1.684419 -0.000008 0.000009 -0.002047 0.005670 -0.932676
    13 1.256836 0.000005 -0.000003 0.000000 0.000000 -0.532315
    14 3.594223 0.299557 1.113710 -0.088301 -0.079196 -0.486124
    15 1.719431 0.000004 -0.000003 -0.000004 0.000016 -0.622591
    16 1.005918 -0.000004 0.000005 0.066615 0.083958 0.014198
    17 0.298218 -0.634091 0.430606 -1.082574 -0.887197 -0.539124
    18 2.633561 0.000000 -0.000004 0.022805 -0.091911 0.443914
    19 1.308566 0.000001 0.000002 0.014515 -0.054003 -0.106025
    20 2.033356 1.000772 -1.937610 -1.668474 1.286518 2.942953
    21 6.028141 0.000000 -0.000002 1.635867 0.838342 -0.558868
    22 11.692554 0.000000 -0.000001 0.000046 -0.000012 -1.812220
    23 11.481701 -0.000001 -0.000007 -0.974723 0.101996 1.121007
    24 2.914335 -0.023163 1.404053 0.005700 0.149255 -0.956695
    25 1.284180 -0.000002 0.000001 0.000007 -0.000008 -0.611443
    26 0.838744 0.000000 0.000000 0.053883 0.391803 -1.610229
    27 3.368063 0.007376 0.622456 0.036044 0.099261 -1.009923
    28 1.610352 0.000002 0.000000 -0.000007 0.259441 -1.086926
    29 1.015625 0.000002 0.000000 0.015558 0.182264 -1.340754
    30 3.551622 0.023919 -0.200566 0.012560 0.053537 -0.903374
    31 1.666992 0.000002 0.000000 -0.000009 0.314488 -1.208296
    32 1.243164 -0.000002 0.000000 -0.000007 0.196340 -1.483473
    33 3.445761 0.054214 -1.089088 0.053336 0.070642 -0.350277
    34 1.711616 0.000006 0.000011 0.000003 -0.013322 -0.423952
    35 1.005912 0.000000 0.000005 0.009208 -0.018677 -0.723168
    36 0.075534 -0.738747 -0.759723 1.293529 0.406464 -0.475804
    37 2.512460 -0.000006 -0.000004 -0.000002 -0.000001 0.359160
    38 1.328098 0.050782 -0.113290 -0.334965 0.008685 -0.059316
    39 -5.477800 -22.478248 -7.453344 1.477165 -0.358205 1.568164
    40 -0.163176 2.333985 0.382082 3.034930 0.152994 -1.928986
    41 1.417019 1.884747 0.307373 -0.111807 0.161678 -1.589027
    42 2.744176 2.498010 0.412600 -3.110087 -0.046555 2.851964
  time 28
    0 0.000005 -2.660156 -8.640625 -1.570760 -1.391893 -1.570827
    1 2.033348 1.000767 1.937660 1.596636 -1.286515 2.942963
    2 6.028145 0.000003 0.000002 -0.729911 -0.637630 -1.947510
    3 11.692549 0.000081 -0.000005 -0.000003 0.000024 -1.126922
    4 11.481670 -0.000089 -0.000024 -0.077590 0.476501 0.267600
    5 3.281560 0.006028 -1.383387 0.060235 -0.190538 -0.990857
    6 1.328125 0.000000 0.000002 0.000002 -0.054909 -0.582390
    7 0.819336 -0.000002 0.000002 0.000000 0.000000 -0.523574
    8 3.711854 0.109258 -0.568167 -0.040167 -0.149160 -1.054271
    9 1.609410 0.000004 -0.000005 -0.000002 0.001792 -0.427535
    10 0.993190 -0.000002 0.000002 0.001475 0.002258 -0.454063
    11 3.786034 0.207136 0.243937 0.028712 -0.079207 -0.634417
    12 1.684419 -0.000008 0.000009 -0.002443 0.005562 -0.996840
    13 1.256836 0.000005 -0.000003 0.000000 0.000000 -0.532315
    14 3.594223 0.303463 1.109803 -0.094408 -0.071874 -0.406954
    15 1.719431 0.000004 -0.000003 -0.000004 0.000016 -0.684291
    16 1.005918 -0.000004 0.000005 0.078900 0.099430 0.098809
    17 0.298218 -0.630185 0.426700 -1.058814 -0.900895 -0.522813
    18 2.633561 0.000000 -0.000004 0.026076 -0.073155 0.435853
    19 1.308566 0.000001 0.000002 0.020412 -0.053860 -0.206077
    20 2.033356 1.000772 -1.937610 -1.668474 1.286518 2.942953
    21 6.028141 0.000000 -0.000002 1.645752 0.846976 -0.545898
    22 11.692554 0.000000 -0.000001 0.000034 -0.000024 -1.801456
    23 11.481701 -0.000001 -0.000007 -0.945484 0.090735 1.121915
    24 2.914335 -0.023163 1.404053 0.005700 0.149255 -0.956695
    25 1.284180 -0.000002 0.000001 0.000007 -0.000008 -0.611443
    26 0.838744 0.000000 0.000000 0.053883 0.391803 -1.610229
    27 3.368063 0.007376 0.622456 0.036044 0.099261 -1.009923
    28 1.610352 0.000002 0.000000 -0.000007 0.259441 -1.086926
    29 1.015625 0.000002 0.000000 0.015558 0.182264 -1.340754
    30 3.551622 0.023919 -0.200566 0.012560 0.053537 -0.903374
    31 1.666992 0.000002 0.000000 -0.000009 0.314488 -1.208296
    32 1.243164 -0.000002 0.000000 -0.000007 0.196340 -1.483473
    33 3.449668 0.054214 -1.085181 0.053336 0.070642 -0.350277
    34 1.711616 0.000006 0.000011 0.000003 -0.012064 -0.397767
    35 1.005912 0.000000 0.000005 0.008213 -0.017395 -0.689456
    36 0.075534 -0.738747 -0.755817 1.293541 0.406464 -0.475804
    37 2.512460 -0.000006 -0.000004 -0.000002 -0.000001 0.359160
    38 1.324192 0.050782 -0.113290 -0.334965 0.008685 -0.059316
    39 -5.477800 -22.568094 -7.336153 1.450890 -0.360110 1.579496
    40 -0.163176 2.333985 0.382082 3.035410 0.153090 -1.926195
    41 1.417019 1.884747 0.307373 -0.111807 0.161678 -1.589027
    42 2.744176 2.498010 0.412600 -3.110087 -0.046555 2.851964
  time 29
    0 0.000005 -2.660156 -8.640625 -1.570760 -1.391893 -1.570827
    1 2.033348 1.000767 1.937660 1.596636 -1.286515 2.942963
    2 6.028145 0.000003 0.000002 -0.712177 -0.658923 -1.959563
    3 11.692549 0.000081 -0.000005 -0.000003 0.000036 -1.111960
    4 11.481670 -0.000089 -0.000024 -0.086974 0.472594 0.224642
    5 3.281560 0.002122 -1.379481 0.060410 -0.190574 -0.991217
    6 1.328125 0.000000 0.000002 0.000002 -0.054909 -0.582390
    7 0.819336 -0.000002 0.000002 0.000000 0.000000 -0.523574
    8 3.711854 0.109258 -0.568167 -0.040000 -0.149184 -1.054587
    9 1.609410 0.000004 -0.000005 -0.000002 0.001792 -0.427486
    10 0.993190 -0.000002 0.000002 0.001475 0.002258 -0.454063
    11 3.786034 0.203230 0.247844 0.043177 -0.077337 -0.614931
    12 1.684419 -0.000008 0.000009 -0.002742 0.005514 -1.048391
    13 1.256836 0.000005 -0.000003 0.000000 0.000000 -0.532315
    14 3.594223 0.299557 1.113710 -0.098624 -0.065881 -0.343980
    15 1.719431 0.000004 -0.000003 -0.000004 0.000016 -0.733860
    16 1.005918 -0.000004 0.000005 0.088775 0.111859 0.166826
    17 0.298218 -0.634091 0.430606 -1.040078 -0.911897 -0.510446
    18 2.633561 0.000000 -0.000004 0.028677 -0.058330 0.429424
    19 1.308566 0.000001 0.000002 0.025062 -0.053716 -0.285201
    20 2.033356 1.000772 -1.937610 -1.668474 1.286518 2.942953
    21 6.028141 0.000000 -0.000002 1.657307 0.854941 -0.530845
    22 11.692554 0.000000 -0.000001 0.000046 -0.000024 -1.792476
    23 11.481701 -0.000001 -0.000007 -0.906780 0.095893 1.113248
    24 2.914335 -0.023163 1.404053 0.005700 0.149255 -0.956695
    25 1.284180 -0.000002 0.000001 0.000007 -0.000008 -0.611443
    26 0.838744 0.000000 0.000000 0.053883 0.391803 -1.610229
    27 3.368063 0.007376 0.622456 0.036044 0.099261 -1.009923
    28 1.610352 0.000002 0.000000 -0.000007 0.259441 -1.086926
    29 1.015625 0.000002 0.000000 0.015558 0.182264 -1.340754
    30 3.555528 0.023919 -0.200566 0.012560 0.053537 -0.903374
    31 1.666992 0.000002 0.000000 -0.000009 0.314488 -1.208296
    32 1.243164 -0.000002 0.000000 -0.000007 0.196340 -1.483473
    33 3.449668 0.054214 -1.085181 0.053336 0.070642 -0.350277
    34 1.711616 0.000006 0.000011 0.000003 -0.010818 -0.372066
    35 1.002005 0.000000 0.000005 0.007291 -0.016101 -0.656424
    36 0.075534 -0.738747 -0.755817 1.293529 0.406464 -0.475804
    37 2.512460 -0.000006 -0.000004 -0.000002 -0.000001 0.359160
    38 1.324192 0.050782 -0.113290 -0.334965 0.008685 -0.059316
    39 -5.520770 -22.646222 -7.125209 1.417226 -0.341259 1.586828
    40 -0.163176 2.333985 0.382082 3.035757 0.153162 -1.923900
    41 1.417019 1.884747 0.307373 -0.111807 0.161678 -1.589027
    42 2.744176 2.498010 0.412600 -3.110087 -0.046555 2.851964
  time 30
    0 0.000005 -2.660156 -8.640625 -1.570760 -1.391893 -1.570827
    1 2.033348 1.000767 1.937660 1.596636 -1.286515 2.942963
    2 6.028145 0.000003 0.000002 -0.689699 -0.683463 -1.975426
    3 11.692549 0.000081 -0.000005 -0.000015 0.000036 -1.095115
    4 11.481670 -0.000089 -0.000024 -0.099231 0.466467 0.184634
    5 3.281560 0.002122 -1.379481 0.060410 -0.190574 -0.991217
    6 1.328125 0.000000 0.000002 0.000002 -0.054909 -0.582390
    7 0.819336 -0.000002 0.000002 0.000000 0.000000 -0.523574
    8 3.711854 0.109258 -0.568167 -0.040000 -0.149172 -1.054587
    9 1.609410 0.000004 -0.000005 -0.000002 0.001792 -0.427486
    10 0.993190 -0.000002 0.000002 0.001475 0.002258 -0.454063
    11 3.786034 0.203230 0.247844 0.052729 -0.075995 -0.601756
    12 1.684419 -0.000008 0.000009 -0.002946 0.005454 -1.082701
    13 1.256836 0.000005 -0.000003 0.000000 0.000000 -0.532315
    14 3.594223 0.299557 1.113710 -0.101309 -0.061663 -0.301866
    15 1.719431 0.000004 -0.000003 -0.000004 0.000016 -0.766841
    16 1.005918 -0.000004 0.000005 0.095331 0.120140 0.212112
    17 0.298218 -0.634091 0.430606 -1.028149 -0.919040 -0.501825
    18 2.633561 0.000000 -0.000004 0.030403 -0.048598 0.425240
    19 1.308566 0.000001 0.000002 0.028118 -0.053632 -0.337190
    20 2.033356 1.000772 -1.937610 -1.668474 1.286518 2.942953
    21 6.028141 0.000000 -0.000002 1.667400 0.860406 -0.517718
    22 11.692554 0.000000 -0.000001 0.000034 -0.000024 -1.786767
    23 11.481701 -0.000001 -0.000007 -0.865820 0.112021 1.100684
    24 2.914335 -0.023163 1.404053 0.005849 0.149002 -0.956494
    25 1.284180 -0.000002 0.000001 0.000007 -0.000008 -0.611443
    26 0.838744 0.000000 0.000000 0.053883 0.391803 -1.610229
    27 3.368063 0.007376 0.622456 0.036199 0.099009 -1.009720
    28 1.610352 0.000002 0.000000 -0.000007 0.259441 -1.086926
    29 1.015625 0.000002 0.000000 0.015558 0.182264 -1.340754
    30 3.551622 0.023919 -0.200566 0.012692 0.053274 -0.903189
    31 1.666992 0.000002 0.000000 -0.000009 0.314488 -1.208296
    32 1.243164 -0.000002 0.000000 -0.000007 0.196340 -1.483473
    33 3.449668 0.054214 -1.089088 0.053311 0.070342 -0.350097
    34 1.711616 0.000006 0.000011 0.000003 -0.009607 -0.347089
    35 1.005912 0.000000 0.000005 0.006416 -0.014806 -0.624215
    36 0.075534 -0.738747 -0.759723 1.293541 0.406180 -0.475612
    37 2.512460 -0.000006 -0.000004 -0.000002 -0.000001 0.359160
    38 1.324192 0.050782 -0.113290 -0.334965 0.008685 -0.059316
    39 -5.583272 -22.697005 -6.879108 1.381536 -0.311875 1.589876
    40 -0.163176 2.333985 0.382082 3.036033 0.153210 -1.922362
    41 1.417019 1.884747 0.307373 -0.111807 0.161678 -1.589027
    42 2.744176 2.498010 0.412600 -3.110087 -0.046555 2.851964
  time 31
    0 0.000005 -2.660156 -8.640625 -1.570760 -1.391893 -1.570827
    1 2.033348 1.000767 1.937660 1.596636 -1.286515 2.942963
    2 6.028145 0.000003 0.000002 -0.662046 -0.711529 -1.995497
    3 11.692549 0.000081 -0.000005 -0.000003 0.000024 -1.075595
    4 11.481670 -0.000089 -0.000024 -0.116850 0.458877 0.150081
    5 3.285467 0.002122 -1.383387 0.060568 -0.190826 -0.991398
    6 1.328125 0.000000 0.000002 0.000002 -0.054909 -0.582390
    7 0.819336 -0.000002 0.000002 0.000000 0.000000 -0.523574
    8 3.711854 0.105351 -0.568167 -0.039832 -0.149424 -1.054797
    9 1.609410 0.000004 -0.000005 -0.000002 0.001792 -0.427486
    10 0.993190 -0.000002 0.000002 0.001475 0.002258 -0.454063
    11 3.786034 0.203230 0.243937 0.056228 -0.075815 -0.597153
    12 1.684419 -0.000008 0.000009 -0.003018 0.005442 -1.095198
    13 1.256836 0.000005 -0.000003 0.000000 0.000000 -0.532315
    14 3.594223 0.299557 1.109803 -0.102291 -0.060392 -0.286738
    15 1.719431 0.000004 -0.000003 -0.000004 0.000016 -0.778825
    16 1.005918 -0.000004 0.000005 0.097715 0.123148 0.228531
    17 0.298218 -0.634091 0.426700 -1.023875 -0.921904 -0.498878
    18 2.633561 0.000000 -0.000004 0.031002 -0.045087 0.423761
    19 1.308566 0.000001 0.000002 0.029208 -0.053608 -0.355923
    20 2.033356 1.000772 -1.937610 -1.668474 1.286518 2.942953
    21 6.028141 0.000000 -0.000002 1.682819 0.860203 -0.497712
    22 11.692554 0.000000 -0.000001 0.000046 -0.000012 -1.784031
    23 11.481701 -0.000001 -0.000007 -0.845959 0.122373 1.091715
    24 2.914335 -0.023163 1.404053 0.005700 0.149255 -0.956695
    25 1.284180 -0.000002 0.000001 0.000007 -0.000008 -0.611443
    26 0.838744 0.000000 0.000000 0.053883 0.391803 -1.610229
    27 3.368063 0.007376 0.622456 0.036044 0.099261 -1.009923
    28 1.610352 0.000002 0.000000 -0.000007 0.259441 -1.086926
    29 1.015625 0.000002 0.000000 0.015558 0.182264 -1.340754
    30 3.555528 0.023919 -0.204473 0.012560 0.053537 -0.903374
    31 1.666992 0.000002 0.000000 -0.000009 0.314488 -1.208296
    32 1.243164 -0.000002 0.000000 -0.000007 0.196340 -1.483473
    33 3.449668 0.054214 -1.085181 0.053336 0.070642 -0.350277
    34 1.711616 0.000006 0.000011 0.000003 -0.008421 -0.322863
    35 1.005912 0.000000 0.000005 0.005613 -0.013536 -0.593055
    36 0.075534 -0.738747 -0.759723 1.293529 0.406464 -0.475804
    37 2.512460 -0.000006 -0.000004 -0.000002 -0.000001 0.359160
    38 1.328098 0.050782 -0.113290 -0.334965 0.008685 -0.059316
    39 -5.716088 -22.724349 -6.699415 1.370871 -0.290371 1.583305
    40 -0.163176 2.333985 0.382082 3.036093 0.153222 -1.921791
    41 1.417019 1.884747 0.307373 -0.111807 0.161678 -1.589027
    42 2.720737 2.529261 0.412600 -3.110087 -0.046555 2.851964
end
