// Created by Crowbar++ 0.74
version 1
nodes
  0 "ValveBiped.Bip01_Spine4" -1
  1 "ValveBiped.Bip01_L_Clavicle" 0
  2 "ValveBiped.Bip01_L_UpperArm" 1
  3 "ValveBiped.Bip01_L_Forearm" 2
  4 "ValveBiped.Bip01_L_Hand" 3
  5 "ValveBiped.Bip01_L_Finger4" 4
  6 "ValveBiped.Bip01_L_Finger41" 5
  7 "ValveBiped.Bip01_L_Finger42" 6
  8 "ValveBiped.Bip01_L_Finger3" 4
  9 "ValveBiped.Bip01_L_Finger31" 8
  10 "ValveBiped.Bip01_L_Finger32" 9
  11 "ValveBiped.Bip01_L_Finger2" 4
  12 "ValveBiped.Bip01_L_Finger21" 11
  13 "ValveBiped.Bip01_L_Finger22" 12
  14 "ValveBiped.Bip01_L_Finger1" 4
  15 "ValveBiped.Bip01_L_Finger11" 14
  16 "ValveBiped.Bip01_L_Finger12" 15
  17 "ValveBiped.Bip01_L_Finger0" 4
  18 "ValveBiped.Bip01_L_Finger01" 17
  19 "ValveBiped.Bip01_L_Finger02" 18
  20 "ValveBiped.Bip01_R_Clavicle" 0
  21 "ValveBiped.Bip01_R_UpperArm" 20
  22 "ValveBiped.Bip01_R_Forearm" 21
  23 "ValveBiped.Bip01_R_Hand" 22
  24 "ValveBiped.Bip01_R_Finger4" 23
  25 "ValveBiped.Bip01_R_Finger41" 24
  26 "ValveBiped.Bip01_R_Finger42" 25
  27 "ValveBiped.Bip01_R_Finger3" 23
  28 "ValveBiped.Bip01_R_Finger31" 27
  29 "ValveBiped.Bip01_R_Finger32" 28
  30 "ValveBiped.Bip01_R_Finger2" 23
  31 "ValveBiped.Bip01_R_Finger21" 30
  32 "ValveBiped.Bip01_R_Finger22" 31
  33 "ValveBiped.Bip01_R_Finger1" 23
  34 "ValveBiped.Bip01_R_Finger11" 33
  35 "ValveBiped.Bip01_R_Finger12" 34
  36 "ValveBiped.Bip01_R_Finger0" 23
  37 "ValveBiped.Bip01_R_Finger01" 36
  38 "ValveBiped.Bip01_R_Finger02" 37
  39 "v_weapon.Glock_Parent" -1
  40 "v_weapon.Glock_Trigger" 39
  41 "v_weapon.Glock_Clip" 39
  42 "v_weapon.Glock_Slide" 39
end
skeleton
  time 0
    0 0.000005 -2.660156 -8.640625 -1.570760 -1.391893 -1.570827
    1 2.033348 1.000767 1.937660 1.596636 -1.286515 2.942963
    2 6.028145 0.000003 0.000002 -0.662046 -0.711529 -1.995497
    3 11.692549 0.000081 -0.000005 -0.000003 0.000024 -1.075595
    4 11.481670 -0.000089 -0.000024 -0.116850 0.458877 0.150081
    5 3.285467 0.002122 -1.383387 0.060568 -0.190826 -0.991398
    6 1.328125 -0.000002 0.000001 0.000002 -0.054909 -0.582390
    7 0.819336 -0.000003 0.000000 0.000000 0.000000 -0.523574
    8 3.711854 0.105351 -0.568167 -0.039832 -0.149412 -1.054797
    9 1.610352 -0.000004 0.000000 -0.000003 0.001795 -0.427537
    10 0.993190 -0.000002 0.000002 0.001475 0.002258 -0.454063
    11 3.786034 0.203230 0.243937 0.056228 -0.075815 -0.597153
    12 1.684419 -0.000008 0.000009 -0.003018 0.005442 -1.095198
    13 1.256836 0.000004 0.000000 0.000000 0.000000 -0.532315
    14 3.594223 0.299557 1.109803 -0.102291 -0.060392 -0.286738
    15 1.719431 0.000004 -0.000003 0.000000 0.000010 -0.778830
    16 1.002930 0.000000 0.000004 0.097733 0.123153 0.228558
    17 0.298218 -0.634091 0.426700 -1.023875 -0.921904 -0.498878
    18 2.633561 0.000000 -0.000004 0.031002 -0.045087 0.423761
    19 1.308566 0.000001 0.000002 0.029208 -0.053608 -0.355923
    20 2.033356 1.000772 -1.937610 -1.668474 1.286518 2.942953
    21 6.028141 0.000000 -0.000002 1.682819 0.860203 -0.497712
    22 11.692554 0.000000 -0.000001 0.000046 -0.000012 -1.784031
    23 11.481701 -0.000001 -0.000007 -0.845959 0.122373 1.091715
    24 2.914335 -0.023163 1.404053 0.005700 0.149255 -0.956695
    25 1.284180 -0.000002 0.000001 0.000007 -0.000008 -0.611443
    26 0.838744 0.000000 0.000000 0.053883 0.391803 -1.610229
    27 3.368063 0.007376 0.622456 0.036044 0.099261 -1.009923
    28 1.610352 0.000002 0.000000 -0.000007 0.259441 -1.086926
    29 1.015625 0.000002 0.000000 0.015558 0.182264 -1.340754
    30 3.555528 0.023919 -0.204473 0.012560 0.053537 -0.903374
    31 1.666992 0.000002 0.000000 -0.000009 0.314488 -1.208296
    32 1.243164 -0.000002 0.000000 -0.000007 0.196340 -1.483473
    33 3.449668 0.054214 -1.085181 0.053336 0.070642 -0.350277
    34 1.711616 0.000006 0.000011 0.000003 -0.008421 -0.322863
    35 1.005912 0.000000 0.000005 0.005613 -0.013536 -0.593055
    36 0.075534 -0.738747 -0.759723 1.293529 0.406464 -0.475804
    37 2.512460 -0.000006 -0.000004 -0.000002 -0.000001 0.359160
    38 1.330078 0.052032 -0.119690 -0.334975 0.008687 -0.059326
    39 -5.716088 -22.724349 -6.699415 1.370871 -0.290371 1.583305
    40 -0.163176 2.333985 0.382082 3.101636 0.166381 -1.515363
    41 1.417019 1.884747 0.307373 -0.111807 0.161678 -1.589027
    42 3.462948 2.306598 0.381349 -3.110087 -0.046555 2.851964
  time 1
    0 0.000005 -2.660156 -8.640625 -1.570760 -1.391893 -1.570827
    1 2.033348 1.000767 1.937660 1.596636 -1.286515 2.942963
    2 6.028145 0.000003 0.000002 -0.662046 -0.711529 -1.995497
    3 11.692549 0.000081 -0.000005 -0.000003 0.000024 -1.075595
    4 11.481670 -0.000089 -0.000024 -0.116850 0.458877 0.150081
    5 3.285467 0.002122 -1.383387 0.060568 -0.190826 -0.991398
    6 1.328125 -0.000002 0.000001 0.000002 -0.054909 -0.582390
    7 0.819336 -0.000003 0.000000 0.000000 0.000000 -0.523574
    8 3.711854 0.105351 -0.568167 -0.039832 -0.149412 -1.054797
    9 1.610352 -0.000004 0.000000 -0.000003 0.001795 -0.427537
    10 0.993190 -0.000002 0.000002 0.001475 0.002258 -0.454063
    11 3.786034 0.203230 0.243937 0.056228 -0.075815 -0.597153
    12 1.684419 -0.000008 0.000009 -0.003018 0.005442 -1.095198
    13 1.256836 0.000004 0.000000 0.000000 0.000000 -0.532315
    14 3.594223 0.299557 1.109803 -0.102291 -0.060392 -0.286738
    15 1.719431 0.000004 -0.000003 0.000000 0.000010 -0.778830
    16 1.002930 0.000000 0.000004 0.097733 0.123153 0.228558
    17 0.298218 -0.634091 0.426700 -1.023875 -0.921904 -0.498878
    18 2.633561 0.000000 -0.000004 0.031002 -0.045087 0.423761
    19 1.308566 0.000001 0.000002 0.029208 -0.053608 -0.355923
    20 2.033356 1.000772 -1.937610 -1.668474 1.286518 2.942953
    21 6.028141 0.000000 -0.000002 1.682819 0.860203 -0.497712
    22 11.692554 0.000000 -0.000001 0.000046 -0.000012 -1.784031
    23 11.481701 -0.000001 -0.000007 -0.845959 0.122373 1.091715
    24 2.914335 -0.023163 1.404053 0.005700 0.149255 -0.956695
    25 1.284180 -0.000002 0.000001 0.000007 -0.000008 -0.611443
    26 0.838744 0.000000 0.000000 0.053883 0.391803 -1.610229
    27 3.368063 0.007376 0.622456 0.036044 0.099261 -1.009923
    28 1.610352 0.000002 0.000000 -0.000007 0.259441 -1.086926
    29 1.015625 0.000002 0.000000 0.015558 0.182264 -1.340754
    30 3.555528 0.023919 -0.204473 0.012560 0.053537 -0.903374
    31 1.666992 0.000002 0.000000 -0.000009 0.314488 -1.208296
    32 1.243164 -0.000002 0.000000 -0.000007 0.196340 -1.483473
    33 3.449668 0.054214 -1.085181 0.053336 0.070642 -0.350277
    34 1.711616 0.000006 0.000011 0.000003 -0.008421 -0.322863
    35 1.005912 0.000000 0.000005 0.005613 -0.013536 -0.593055
    36 0.075534 -0.738747 -0.759723 1.293529 0.406464 -0.475804
    37 2.512460 -0.000006 -0.000004 -0.000002 -0.000001 0.359160
    38 1.330078 0.052032 -0.119690 -0.334975 0.008687 -0.059326
    39 -5.716088 -22.724349 -6.699415 1.370871 -0.290371 1.583305
    40 -0.163176 2.333985 0.382082 3.101636 0.166381 -1.515363
    41 1.417019 1.884747 0.307373 -0.111807 0.161678 -1.589027
    42 3.462948 2.306598 0.381349 -3.110087 -0.046555 2.851964
  time 2
    0 0.000005 -2.660156 -8.640625 -1.570760 -1.391893 -1.570827
    1 2.033348 1.000767 1.937660 1.596636 -1.286515 2.942963
    2 6.028145 0.000003 0.000002 -0.663825 -0.705173 -1.993222
    3 11.692549 0.000081 -0.000005 -0.000003 0.000024 -1.090161
    4 11.481670 -0.000089 -0.000024 -0.118957 0.455364 0.166989
    5 3.281560 0.002122 -1.383387 0.060586 -0.190550 -0.991542
    6 1.328125 -0.000002 0.000001 0.000002 -0.054909 -0.582390
    7 0.819336 -0.000003 0.000000 0.000000 0.000000 -0.523574
    8 3.711854 0.105351 -0.568167 -0.039820 -0.149136 -1.054902
    9 1.610352 -0.000004 0.000000 -0.000003 0.001795 -0.427537
    10 0.993190 -0.000002 0.000002 0.001475 0.002258 -0.454063
    11 3.786034 0.203230 0.243937 0.056360 -0.075564 -0.597264
    12 1.684419 -0.000008 0.000009 -0.003018 0.005442 -1.095140
    13 1.256836 0.000004 0.000000 0.000000 0.000000 -0.532315
    14 3.594223 0.299557 1.109803 -0.102103 -0.060201 -0.286869
    15 1.719431 0.000004 -0.000003 0.000000 0.000010 -0.778830
    16 1.002930 0.000000 0.000004 0.097733 0.123153 0.228558
    17 0.298218 -0.634091 0.426700 -1.023621 -0.921664 -0.499210
    18 2.633561 0.000000 -0.000004 0.031002 -0.045087 0.423761
    19 1.308566 0.000001 0.000002 0.029208 -0.053608 -0.355923
    20 2.033356 1.000772 -1.937610 -1.668474 1.286518 2.942953
    21 6.028141 0.000000 -0.000002 1.692773 0.858343 -0.484860
    22 11.692554 0.000000 -0.000001 0.000046 -0.000024 -1.797947
    23 11.481701 -0.000001 -0.000007 -0.836227 0.143151 1.077334
    24 2.914335 -0.023163 1.404053 0.005700 0.149255 -0.956695
    25 1.284180 -0.000002 0.000001 0.000007 -0.000008 -0.611443
    26 0.838744 0.000000 0.000000 0.053883 0.391803 -1.610229
    27 3.368063 0.007376 0.618550 0.036044 0.099261 -1.009923
    28 1.610352 0.000002 0.000000 -0.000007 0.259441 -1.086926
    29 1.015625 0.000002 0.000000 0.015558 0.182264 -1.340754
    30 3.555528 0.023919 -0.204473 0.012560 0.053537 -0.903374
    31 1.666992 0.000002 0.000000 -0.000009 0.314488 -1.208296
    32 1.243164 -0.000002 0.000000 -0.000007 0.196340 -1.483473
    33 3.449668 0.054214 -1.089088 0.053336 0.070642 -0.350277
    34 1.711616 0.000006 0.000011 0.000003 -0.009320 -0.341213
    35 1.005912 0.000000 0.000005 0.006212 -0.014507 -0.616673
    36 0.075534 -0.738747 -0.759723 1.293529 0.406464 -0.475804
    37 2.512460 -0.000006 -0.000004 -0.000002 -0.000001 0.359160
    38 1.330078 0.052032 -0.119690 -0.334975 0.008687 -0.059326
    39 -5.743433 -22.572001 -6.425969 1.368369 -0.250634 1.581686
    40 -0.163176 2.333985 0.382082 3.101636 0.166381 -1.515363
    41 1.417019 1.884747 0.307373 -0.111807 0.161678 -1.589027
    42 4.521574 1.997995 0.330566 -3.110087 -0.046555 2.851964
  time 3
    0 0.000005 -2.660156 -8.640625 -1.570760 -1.391893 -1.570827
    1 2.033348 1.000767 1.937660 1.596636 -1.286515 2.942963
    2 6.028145 0.000003 0.000002 -0.665604 -0.699560 -1.991289
    3 11.692549 0.000081 -0.000005 -0.000003 0.000036 -1.102101
    4 11.481670 -0.000089 -0.000024 -0.109764 0.454830 0.169741
    5 3.281560 0.002122 -1.379481 0.060428 -0.190574 -0.991217
    6 1.328125 -0.000002 0.000001 0.000002 -0.054909 -0.582390
    7 0.819336 -0.000003 0.000000 0.000000 0.000000 -0.523574
    8 3.711854 0.109258 -0.568167 -0.040000 -0.149172 -1.054587
    9 1.610352 -0.000004 0.000000 -0.000003 0.001795 -0.427537
    10 0.993190 -0.000002 0.000002 0.001475 0.002258 -0.454063
    11 3.786034 0.203230 0.247844 0.056180 -0.075516 -0.596960
    12 1.684419 -0.000008 0.000009 -0.003018 0.005442 -1.095140
    13 1.256836 0.000004 0.000000 0.000000 0.000000 -0.532315
    14 3.594223 0.299557 1.113710 -0.102248 -0.060105 -0.286564
    15 1.719431 0.000004 -0.000003 0.000000 0.000010 -0.778830
    16 1.002930 0.000000 0.000004 0.097733 0.123153 0.228558
    17 0.298218 -0.634091 0.426700 -1.023890 -0.921604 -0.498679
    18 2.633561 0.000000 -0.000004 0.031002 -0.045087 0.423761
    19 1.308566 0.000001 0.000002 0.029208 -0.053608 -0.355901
    20 2.033356 1.000772 -1.937610 -1.668474 1.286518 2.942953
    21 6.028141 0.000000 -0.000002 1.713551 0.854040 -0.458173
    22 11.692554 0.000000 -0.000001 0.000046 -0.000024 -1.826671
    23 11.481701 -0.000001 -0.000007 -0.824904 0.173917 1.055005
    24 2.914335 -0.023163 1.404053 0.005700 0.149255 -0.956695
    25 1.284180 -0.000002 0.000001 0.000007 -0.000008 -0.611443
    26 0.838744 0.000000 0.000000 0.053883 0.391803 -1.610229
    27 3.368063 0.007376 0.622456 0.036044 0.099261 -1.009923
    28 1.610352 0.000002 0.000000 -0.000007 0.259441 -1.086926
    29 1.015625 0.000002 0.000000 0.015558 0.182264 -1.340754
    30 3.551622 0.023919 -0.200566 0.012560 0.053537 -0.903374
    31 1.666992 0.000002 0.000000 -0.000009 0.314488 -1.208296
    32 1.243164 -0.000002 0.000000 -0.000007 0.196340 -1.483473
    33 3.449668 0.054214 -1.085181 0.053336 0.070642 -0.350277
    34 1.711616 0.000006 0.000011 0.000003 -0.011668 -0.389558
    35 1.005912 0.000000 0.000005 0.007914 -0.016988 -0.678937
    36 0.075534 -0.738747 -0.759723 1.293541 0.406464 -0.475804
    37 2.512460 -0.000006 -0.000004 -0.000002 -0.000001 0.359160
    38 1.330078 0.052032 -0.119690 -0.334975 0.008687 -0.059326
    39 -5.778590 -22.243866 -5.925954 1.370573 -0.183032 1.581305
    40 -0.163176 2.333985 0.382082 3.101636 0.166381 -1.515363
    41 1.417019 1.884747 0.307373 -0.111807 0.161678 -1.589027
    42 4.056716 2.130811 0.350098 -3.110087 -0.046555 2.851964
  time 4
    0 0.000005 -2.660156 -8.640625 -1.570760 -1.391893 -1.570827
    1 2.033348 1.000767 1.937660 1.596636 -1.286515 2.942963
    2 6.028145 0.000003 0.000002 -0.665011 -0.702065 -1.992313
    3 11.692549 0.000081 -0.000005 -0.000015 0.000036 -1.095511
    4 11.481670 -0.000089 -0.000024 -0.072898 0.466804 0.108254
    5 3.281560 0.002122 -1.383387 0.060410 -0.190574 -0.991217
    6 1.328125 -0.000002 0.000001 0.000002 -0.054909 -0.582390
    7 0.819336 -0.000003 0.000000 0.000000 0.000000 -0.523574
    8 3.711854 0.109258 -0.568167 -0.040000 -0.149172 -1.054587
    9 1.610352 -0.000004 0.000000 -0.000003 0.001795 -0.427537
    10 0.993190 -0.000002 0.000002 0.001475 0.002258 -0.454063
    11 3.786034 0.203230 0.247844 0.056180 -0.075516 -0.596960
    12 1.684419 -0.000008 0.000009 -0.003018 0.005442 -1.095198
    13 1.256836 0.000004 0.000000 0.000000 0.000000 -0.532315
    14 3.594223 0.299557 1.113710 -0.102262 -0.060105 -0.286564
    15 1.719431 0.000004 -0.000003 0.000000 0.000010 -0.778830
    16 1.002930 0.000000 0.000004 0.097733 0.123153 0.228558
    17 0.298218 -0.634091 0.426700 -1.023890 -0.921604 -0.498701
    18 2.633561 0.000000 -0.000004 0.031014 -0.045087 0.423761
    19 1.308566 0.000001 0.000002 0.029208 -0.053608 -0.355923
    20 2.033356 1.000772 -1.937610 -1.668474 1.286518 2.942953
    21 6.028141 0.000000 -0.000002 1.732763 0.851337 -0.433688
    22 11.692554 0.000000 -0.000001 0.000082 -0.000192 -1.849923
    23 11.481701 -0.000001 -0.000007 -0.844013 0.181399 1.021739
    24 2.918241 -0.023163 1.400147 0.005402 0.149322 -0.957258
    25 1.284180 -0.000002 0.000001 0.000007 -0.000008 -0.611443
    26 0.838744 0.000000 0.000000 0.053883 0.391803 -1.610229
    27 3.371969 0.007376 0.618550 0.035744 0.099309 -1.010475
    28 1.610352 0.000002 0.000000 -0.000007 0.259441 -1.086926
    29 1.015625 0.000002 0.000000 0.015558 0.182264 -1.340754
    30 3.555528 0.023919 -0.200566 0.012273 0.053609 -0.903900
    31 1.666992 0.000002 0.000000 -0.000009 0.314488 -1.208296
    32 1.243164 -0.000002 0.000000 -0.000007 0.196340 -1.483473
    33 3.453574 0.054214 -1.085181 0.053124 0.070857 -0.350804
    34 1.711616 0.000006 0.000011 0.000003 -0.014940 -0.457970
    35 1.005912 0.000000 0.000005 0.010562 -0.020295 -0.766945
    36 0.079440 -0.734840 -0.759723 1.293278 0.406668 -0.476427
    37 2.512460 -0.000006 -0.000004 -0.000002 -0.000001 0.359160
    38 1.330078 0.052032 -0.119690 -0.334975 0.008687 -0.059326
    39 -5.696556 -21.943075 -5.550942 1.402747 -0.130779 1.595780
    40 -0.163176 2.333985 0.382082 3.101636 0.166381 -1.515363
    41 1.417019 1.884747 0.307373 -0.111807 0.161678 -1.589027
    42 3.205127 2.369100 0.393068 -3.110087 -0.046555 2.851964
  time 5
    0 0.000005 -2.660156 -8.640625 -1.570760 -1.391893 -1.570827
    1 2.033348 1.000767 1.937660 1.596636 -1.286515 2.942963
    2 6.028145 0.000003 0.000002 -0.664795 -0.704709 -1.992881
    3 11.692549 0.000081 -0.000005 -0.000255 -0.000084 -1.088774
    4 11.481670 -0.000089 -0.000024 -0.018795 0.482882 0.065837
    5 3.285467 0.006028 -1.383387 0.060410 -0.190574 -0.991217
    6 1.328125 -0.000002 0.000001 0.000002 -0.054909 -0.582390
    7 0.819336 -0.000003 0.000000 0.000000 0.000000 -0.523574
    8 3.711854 0.109258 -0.572073 -0.040000 -0.149184 -1.054587
    9 1.610352 -0.000004 0.000000 -0.000003 0.001795 -0.427537
    10 0.993190 -0.000002 0.000002 0.001475 0.002258 -0.454063
    11 3.789941 0.207136 0.247844 0.056180 -0.075516 -0.596960
    12 1.684419 -0.000008 0.000009 -0.003018 0.005442 -1.095198
    13 1.256836 0.000004 0.000000 0.000000 0.000000 -0.532315
    14 3.594223 0.303463 1.109803 -0.102262 -0.060105 -0.286564
    15 1.719431 0.000004 -0.000003 0.000000 0.000010 -0.778830
    16 1.002930 0.000000 0.000004 0.097733 0.123153 0.228558
    17 0.298218 -0.630185 0.426700 -1.023890 -0.921604 -0.498679
    18 2.633561 0.000000 -0.000004 0.031002 -0.045087 0.423761
    19 1.308566 0.000001 0.000002 0.029208 -0.053608 -0.355901
    20 2.033356 1.000772 -1.937610 -1.668474 1.286518 2.942953
    21 6.028141 0.000000 -0.000002 1.722809 0.848633 -0.446383
    22 11.692554 0.000000 -0.000001 0.000034 0.000132 -1.846890
    23 11.481701 -0.000001 -0.000007 -0.833485 0.150379 1.053832
    24 2.918241 -0.027070 1.400147 0.005485 0.149868 -0.956977
    25 1.284180 -0.000002 0.000001 0.000007 -0.000008 -0.611443
    26 0.838744 0.000000 0.000000 0.053883 0.391803 -1.610229
    27 3.368063 0.003470 0.618550 0.035792 0.099860 -1.010180
    28 1.610352 0.000002 0.000000 -0.000007 0.259441 -1.086926
    29 1.015625 0.000002 0.000000 0.015558 0.182264 -1.340754
    30 3.555528 0.023919 -0.204473 0.012381 0.054160 -0.903610
    31 1.666992 0.000002 0.000000 -0.000009 0.314488 -1.208296
    32 1.243164 -0.000002 0.000000 -0.000007 0.196340 -1.483473
    33 3.453574 0.054214 -1.089088 0.053510 0.071265 -0.350504
    34 1.711616 0.000006 0.000011 0.000003 -0.018632 -0.536416
    35 1.005912 0.000000 0.000005 0.013954 -0.023795 -0.867797
    36 0.079440 -0.738747 -0.759723 1.293637 0.407125 -0.475995
    37 2.512460 -0.000006 -0.000004 -0.000002 -0.000001 0.359160
    38 1.330078 0.052032 -0.119690 -0.334975 0.008687 -0.059326
    39 -5.696556 -22.025109 -5.851732 1.385349 -0.182491 1.601589
    40 -0.163176 2.333985 0.382082 3.101636 0.166381 -1.515363
    41 1.417019 1.884747 0.307373 -0.111807 0.161678 -1.589027
    42 2.720737 2.529261 0.412600 -3.110087 -0.046555 2.851964
  time 6
    0 0.000005 -2.660156 -8.640625 -1.570760 -1.391893 -1.570827
    1 2.033348 1.000767 1.937660 1.596636 -1.286515 2.942963
    2 6.028145 0.000003 0.000002 -0.667706 -0.705220 -1.990323
    3 11.692549 0.000081 -0.000005 -0.000015 0.000036 -1.084166
    4 11.481670 -0.000089 -0.000024 0.058098 0.491539 0.133124
    5 3.281560 0.002122 -1.379481 0.060410 -0.190574 -0.991217
    6 1.328125 -0.000002 0.000001 0.000002 -0.054909 -0.582390
    7 0.819336 -0.000003 0.000000 0.000000 0.000000 -0.523574
    8 3.711854 0.109258 -0.568167 -0.040000 -0.149172 -1.054587
    9 1.610352 -0.000004 0.000000 -0.000003 0.001795 -0.427537
    10 0.993190 -0.000002 0.000002 0.001475 0.002258 -0.454063
    11 3.786034 0.203230 0.247844 0.056180 -0.075516 -0.596960
    12 1.684419 -0.000008 0.000009 -0.003018 0.005442 -1.095140
    13 1.256836 0.000004 0.000000 0.000000 0.000000 -0.532315
    14 3.594223 0.299557 1.113710 -0.102262 -0.060105 -0.286564
    15 1.719431 0.000004 -0.000003 0.000000 0.000010 -0.778830
    16 1.002930 0.000000 0.000004 0.097733 0.123153 0.228558
    17 0.298218 -0.634091 0.426700 -1.023890 -0.921604 -0.498701
    18 2.633561 0.000000 -0.000004 0.031002 -0.045087 0.423761
    19 1.308566 0.000001 0.000002 0.029208 -0.053608 -0.355923
    20 2.033356 1.000772 -1.937610 -1.668474 1.286518 2.942953
    21 6.028141 0.000000 -0.000002 1.708957 0.844418 -0.464148
    22 11.692554 0.000000 -0.000001 0.000034 -0.000024 -1.844393
    23 11.481701 -0.000001 -0.000007 -0.811103 0.105047 1.111091
    24 2.914335 -0.023163 1.404053 0.005865 0.149016 -0.956474
    25 1.284180 -0.000002 0.000001 0.000007 -0.000008 -0.611443
    26 0.838744 0.000000 0.000000 0.053883 0.391803 -1.610229
    27 3.368063 0.007376 0.622456 0.036211 0.099033 -1.009702
    28 1.610352 0.000002 0.000000 -0.000007 0.259441 -1.086926
    29 1.015625 0.000002 0.000000 0.015558 0.182264 -1.340754
    30 3.551622 0.023919 -0.200566 0.012692 0.053298 -0.903176
    31 1.666992 0.000002 0.000000 -0.000009 0.314488 -1.208296
    32 1.243164 -0.000002 0.000000 -0.000007 0.196340 -1.483473
    33 3.449668 0.054214 -1.089088 0.053336 0.070354 -0.350085
    34 1.711616 0.000006 0.000011 0.000003 -0.022215 -0.614835
    35 1.005912 0.000000 0.000005 0.017681 -0.026923 -0.968706
    36 0.075534 -0.738747 -0.759723 1.293565 0.406196 -0.475600
    37 2.512460 -0.000006 -0.000004 -0.000002 -0.000001 0.359160
    38 1.330078 0.052032 -0.119690 -0.334975 0.008687 -0.059326
    39 -5.700463 -22.114956 -6.308778 1.351507 -0.264515 1.607969
    40 -0.163176 2.333985 0.382082 3.101636 0.166381 -1.515338
    41 1.417019 1.884747 0.307373 -0.111807 0.161678 -1.589027
    42 2.720737 2.529261 0.412600 -3.110087 -0.046555 2.851964
  time 7
    0 0.000005 -2.660156 -8.640625 -1.570760 -1.391893 -1.570827
    1 2.033348 1.000767 1.937660 1.596636 -1.286515 2.942963
    2 6.028145 0.000003 0.000002 -0.670832 -0.705312 -1.987480
    3 11.692549 0.000081 -0.000005 -0.000003 0.000024 -1.080698
    4 11.481670 -0.000089 -0.000024 0.124458 0.492242 0.210979
    5 3.281560 0.002122 -1.383387 0.060428 -0.190574 -0.991217
    6 1.328125 -0.000002 0.000001 0.000002 -0.054909 -0.582390
    7 0.819336 -0.000003 0.000000 0.000000 0.000000 -0.523574
    8 3.711854 0.109258 -0.568167 -0.040000 -0.149172 -1.054587
    9 1.610352 -0.000004 0.000000 -0.000003 0.001795 -0.427537
    10 0.993190 -0.000002 0.000002 0.001475 0.002258 -0.454063
    11 3.786034 0.203230 0.243937 0.056180 -0.075516 -0.596960
    12 1.684419 -0.000008 0.000009 -0.003018 0.005442 -1.095198
    13 1.256836 0.000004 0.000000 0.000000 0.000000 -0.532315
    14 3.594223 0.299557 1.113710 -0.102248 -0.060105 -0.286564
    15 1.719431 0.000004 -0.000003 0.000000 0.000010 -0.778830
    16 1.002930 0.000000 0.000004 0.097733 0.123153 0.228558
    17 0.298218 -0.634091 0.426700 -1.023890 -0.921604 -0.498701
    18 2.633561 0.000000 -0.000004 0.031002 -0.045087 0.423761
    19 1.308566 0.000001 0.000002 0.029208 -0.053620 -0.355923
    20 2.033356 1.000772 -1.937610 -1.668474 1.286518 2.942953
    21 6.028141 0.000000 -0.000002 1.695279 0.840319 -0.481716
    22 11.692554 0.000000 -0.000001 0.000046 -0.000012 -1.842371
    23 11.481701 -0.000001 -0.000007 -0.792480 0.062803 1.166421
    24 2.914335 -0.023163 1.404053 0.005700 0.149255 -0.956695
    25 1.284180 -0.000002 0.000001 0.000007 -0.000008 -0.611443
    26 0.838744 0.000000 0.000000 0.053883 0.391803 -1.610229
    27 3.368063 0.007376 0.622456 0.036044 0.099261 -1.009923
    28 1.610352 0.000002 0.000000 -0.000007 0.259441 -1.086926
    29 1.015625 0.000002 0.000000 0.015558 0.182264 -1.340754
    30 3.555528 0.023919 -0.200566 0.012560 0.053537 -0.903374
    31 1.666992 0.000002 0.000000 -0.000009 0.314488 -1.208296
    32 1.243164 -0.000002 0.000000 -0.000007 0.196340 -1.483473
    33 3.449668 0.054214 -1.089088 0.053336 0.070642 -0.350277
    34 1.711616 0.000006 0.000011 0.000003 -0.025247 -0.683301
    35 1.005912 0.000000 0.000005 0.021193 -0.029344 -1.056714
    36 0.075534 -0.738747 -0.759723 1.293529 0.406464 -0.475804
    37 2.512460 -0.000006 -0.000004 -0.000002 -0.000001 0.359160
    38 1.330078 0.052032 -0.119690 -0.334975 0.008687 -0.059326
    39 -5.708275 -22.177457 -6.754104 1.317545 -0.341311 1.615493
    40 -0.163176 2.333985 0.382082 3.101636 0.166381 -1.515338
    41 1.417019 1.884747 0.307373 -0.111807 0.161678 -1.589027
    42 2.720737 2.529261 0.412600 -3.110087 -0.046555 2.851964
  time 8
    0 0.000005 -2.660156 -8.640625 -1.570760 -1.391893 -1.570827
    1 2.033348 1.000767 1.937660 1.596636 -1.286515 2.942963
    2 6.028145 0.000003 0.000002 -0.671641 -0.706101 -1.987252
    3 11.692549 0.000081 -0.000005 -0.000003 -0.000120 -1.076140
    4 11.481670 -0.000089 -0.000024 0.139300 0.495390 0.206850
    5 3.285467 0.002122 -1.383387 0.060288 -0.191042 -0.990821
    6 1.328125 -0.000002 0.000001 0.000002 -0.054909 -0.582390
    7 0.819336 -0.000003 0.000000 0.000000 0.000000 -0.523574
    8 3.711854 0.105351 -0.568167 -0.040084 -0.149651 -1.054236
    9 1.610352 -0.000004 0.000000 -0.000003 0.001795 -0.427537
    10 0.993190 -0.000002 0.000002 0.001475 0.002258 -0.454063
    11 3.786034 0.203230 0.243937 0.055905 -0.075911 -0.596602
    12 1.684419 -0.000008 0.000009 -0.003030 0.005442 -1.095198
    13 1.256836 0.000004 0.000000 0.000000 0.000000 -0.532315
    14 3.594223 0.299557 1.113710 -0.102637 -0.060392 -0.286193
    15 1.719431 0.000004 -0.000003 0.000000 0.000010 -0.778830
    16 1.002930 0.000000 0.000004 0.097733 0.123153 0.228558
    17 0.298218 -0.634091 0.426700 -1.024441 -0.921964 -0.497903
    18 2.633561 0.000000 -0.000004 0.031002 -0.045087 0.423761
    19 1.308566 0.000001 0.000002 0.029208 -0.053608 -0.355923
    20 2.033356 1.000772 -1.937610 -1.668474 1.286518 2.942953
    21 6.028141 0.000000 -0.000002 1.685603 0.838430 -0.494214
    22 11.692554 0.000000 -0.000001 0.000046 -0.000012 -1.838267
    23 11.481701 -0.000001 -0.000007 -0.786730 0.044568 1.188711
    24 2.914335 -0.023163 1.404053 0.005700 0.149255 -0.956695
    25 1.284180 -0.000002 0.000001 0.000007 -0.000008 -0.611443
    26 0.838744 0.000000 0.000000 0.053883 0.391803 -1.610229
    27 3.368063 0.007376 0.622456 0.036044 0.099261 -1.009923
    28 1.610352 0.000002 0.000000 -0.000007 0.259441 -1.086926
    29 1.015625 0.000002 0.000000 0.015558 0.182264 -1.340754
    30 3.551622 0.023919 -0.200566 0.012560 0.053537 -0.903374
    31 1.666992 0.000002 0.000000 -0.000009 0.314488 -1.208296
    32 1.243164 -0.000002 0.000000 -0.000007 0.196340 -1.483473
    33 3.449668 0.054214 -1.089088 0.053336 0.070642 -0.350277
    34 1.711616 0.000006 0.000011 0.000003 -0.027320 -0.731699
    35 1.002005 0.000000 0.000005 0.023769 -0.030854 -1.119034
    36 0.075534 -0.738747 -0.759723 1.293541 0.406464 -0.475804
    37 2.512460 -0.000006 -0.000004 -0.000002 -0.000001 0.359160
    38 1.330078 0.052032 -0.119690 -0.334975 0.008687 -0.059326
    39 -5.696556 -22.224334 -6.992392 1.301637 -0.377906 1.620159
    40 -0.163176 2.333985 0.382082 3.101636 0.166381 -1.515363
    41 1.417019 1.884747 0.307373 -0.111807 0.161678 -1.589027
    42 2.720737 2.529261 0.412600 -3.110087 -0.046555 2.851964
  time 9
    0 0.000005 -2.660156 -8.640625 -1.570760 -1.391893 -1.570827
    1 2.033348 1.000767 1.937660 1.596636 -1.286515 2.942963
    2 6.028145 0.000003 0.000002 -0.671533 -0.706750 -1.987878
    3 11.692549 0.000081 -0.000005 -0.000003 0.000024 -1.073564
    4 11.481670 -0.000089 -0.000024 0.126277 0.496262 0.186305
    5 3.281560 0.002122 -1.383387 0.060410 -0.190574 -0.991217
    6 1.328125 -0.000002 0.000001 0.000002 -0.054909 -0.582390
    7 0.819336 -0.000003 0.000000 0.000000 0.000000 -0.523574
    8 3.711854 0.109258 -0.568167 -0.040000 -0.149184 -1.054587
    9 1.610352 -0.000004 0.000000 -0.000003 0.001795 -0.427537
    10 0.993190 -0.000002 0.000002 0.001475 0.002258 -0.454063
    11 3.786034 0.203230 0.247844 0.056180 -0.075516 -0.596960
    12 1.684419 -0.000008 0.000009 -0.003030 0.005442 -1.095198
    13 1.256836 0.000004 0.000000 0.000000 0.000000 -0.532315
    14 3.594223 0.299557 1.113710 -0.102262 -0.060105 -0.286564
    15 1.719431 0.000004 -0.000003 0.000000 0.000010 -0.778830
    16 1.002930 0.000000 0.000004 0.097733 0.123153 0.228558
    17 0.298218 -0.634091 0.426700 -1.023890 -0.921604 -0.498701
    18 2.633561 0.000000 -0.000004 0.031002 -0.045087 0.423761
    19 1.308566 0.000001 0.000002 0.029208 -0.053608 -0.355901
    20 2.033356 1.000772 -1.937610 -1.668474 1.286518 2.942953
    21 6.028141 0.000000 -0.000002 1.680765 0.838953 -0.500503
    22 11.692554 0.000000 -0.000001 0.000046 -0.000024 -1.832737
    23 11.481701 -0.000001 -0.000007 -0.789340 0.045621 1.184548
    24 2.914335 -0.023163 1.404053 0.005849 0.148989 -0.956514
    25 1.284180 -0.000002 0.000001 0.000007 -0.000008 -0.611443
    26 0.838744 0.000000 0.000000 0.053883 0.391803 -1.610229
    27 3.368063 0.007376 0.622456 0.036199 0.098997 -1.009757
    28 1.610352 0.000002 0.000000 -0.000007 0.259441 -1.086926
    29 1.015625 0.000002 0.000000 0.015558 0.182264 -1.340754
    30 3.551622 0.023919 -0.200566 0.012680 0.053262 -0.903202
    31 1.666992 0.000002 0.000000 -0.000009 0.314488 -1.208296
    32 1.243164 -0.000002 0.000000 -0.000007 0.196340 -1.483473
    33 3.449668 0.054214 -1.085181 0.053311 0.070330 -0.350121
    34 1.711616 0.000006 0.000011 0.000003 -0.028087 -0.750050
    35 1.005912 0.000000 0.000005 0.024776 -0.031393 -1.142624
    36 0.075534 -0.738747 -0.755817 1.293529 0.406165 -0.475648
    37 2.512460 -0.000006 -0.000004 -0.000002 -0.000001 0.359160
    38 1.330078 0.052032 -0.119690 -0.334975 0.008687 -0.059326
    39 -5.680931 -22.279023 -7.054894 1.301458 -0.380867 1.621111
    40 -0.163176 2.333985 0.382082 3.101636 0.166381 -1.515326
    41 1.417019 1.884747 0.307373 -0.111807 0.161678 -1.589027
    42 2.720737 2.529261 0.412600 -3.110087 -0.046555 2.851964
  time 10
    0 0.000005 -2.660156 -8.640625 -1.570760 -1.391893 -1.570827
    1 2.033348 1.000767 1.937660 1.596636 -1.286515 2.942963
    2 6.028145 0.000003 0.000002 -0.671318 -0.707075 -1.988219
    3 11.692549 0.000081 -0.000005 -0.000003 0.000036 -1.072474
    4 11.481670 -0.000089 -0.000024 0.107796 0.493957 0.181537
    5 3.281560 0.002122 -1.383387 0.060410 -0.190574 -0.991217
    6 1.328125 -0.000002 0.000001 0.000002 -0.054909 -0.582390
    7 0.819336 -0.000003 0.000000 0.000000 0.000000 -0.523574
    8 3.711854 0.109258 -0.568167 -0.040000 -0.149184 -1.054587
    9 1.610352 -0.000004 0.000000 -0.000003 0.001795 -0.427537
    10 0.993190 -0.000002 0.000002 0.001475 0.002258 -0.454063
    11 3.786034 0.203230 0.247844 0.056180 -0.075516 -0.596960
    12 1.684419 -0.000008 0.000009 -0.003018 0.005442 -1.095198
    13 1.256836 0.000004 0.000000 0.000000 0.000000 -0.532315
    14 3.594223 0.299557 1.109803 -0.102262 -0.060105 -0.286564
    15 1.719431 0.000004 -0.000003 0.000000 0.000010 -0.778830
    16 1.002930 0.000000 0.000004 0.097733 0.123153 0.228558
    17 0.298218 -0.634091 0.426700 -1.023890 -0.921604 -0.498701
    18 2.633561 0.000000 -0.000004 0.031002 -0.045087 0.423761
    19 1.308566 0.000001 0.000002 0.029208 -0.053608 -0.355901
    20 2.033356 1.000772 -1.937610 -1.668474 1.286518 2.942953
    21 6.028141 0.000000 -0.000002 1.677911 0.840290 -0.504158
    22 11.692554 0.000000 -0.000001 0.000046 -0.000024 -1.827206
    23 11.481701 -0.000001 -0.000007 -0.792259 0.049181 1.178531
    24 2.914335 -0.023163 1.400147 0.005849 0.149016 -0.956474
    25 1.284180 -0.000002 0.000001 0.000007 -0.000008 -0.611443
    26 0.838744 0.000000 0.000000 0.053883 0.391803 -1.610229
    27 3.368063 0.007376 0.622456 0.036199 0.099021 -1.009702
    28 1.610352 0.000002 0.000000 -0.000007 0.259441 -1.086926
    29 1.015625 0.000002 0.000000 0.015558 0.182264 -1.340754
    30 3.551622 0.023919 -0.200566 0.012692 0.053286 -0.903163
    31 1.666992 0.000002 0.000000 -0.000009 0.314488 -1.208296
    32 1.243164 -0.000002 0.000000 -0.000007 0.196340 -1.483473
    33 3.449668 0.054214 -1.085181 0.053323 0.070354 -0.350085
    34 1.711616 0.000006 0.000011 0.000003 -0.027848 -0.744362
    35 1.002005 0.000000 0.000005 0.024465 -0.031225 -1.135337
    36 0.075534 -0.738747 -0.759723 1.293553 0.406196 -0.475600
    37 2.508554 -0.000006 -0.000004 -0.000002 -0.000001 0.359160
    38 1.330078 0.052032 -0.119690 -0.334975 0.008687 -0.059326
    39 -5.677024 -22.333712 -7.070520 1.303245 -0.379013 1.620349
    40 -0.163176 2.333985 0.382082 3.101636 0.166381 -1.515338
    41 1.417019 1.884747 0.307373 -0.111807 0.161678 -1.589027
    42 2.720737 2.529261 0.412600 -3.110087 -0.046555 2.851964
  time 11
    0 0.000005 -2.660156 -8.640625 -1.570760 -1.391893 -1.570827
    1 2.033348 1.000767 1.937660 1.596636 -1.286515 2.942963
    2 6.028145 0.000003 0.000002 -0.670671 -0.707586 -1.988844
    3 11.692549 0.000081 -0.000005 -0.000003 0.000024 -1.071929
    4 11.481670 -0.000089 -0.000024 0.088357 0.491343 0.177507
    5 3.281560 0.002122 -1.379481 0.060410 -0.190574 -0.991217
    6 1.328125 -0.000002 0.000001 0.000002 -0.054909 -0.582390
    7 0.819336 -0.000003 0.000000 0.000000 0.000000 -0.523574
    8 3.711854 0.109258 -0.568167 -0.040000 -0.149172 -1.054587
    9 1.610352 -0.000004 0.000000 -0.000003 0.001795 -0.427537
    10 0.993190 -0.000002 0.000002 0.001487 0.002258 -0.454063
    11 3.786034 0.203230 0.243937 0.056180 -0.075516 -0.596960
    12 1.684419 -0.000008 0.000009 -0.003018 0.005442 -1.095198
    13 1.256836 0.000004 0.000000 0.000000 0.000000 -0.532315
    14 3.594223 0.299557 1.113710 -0.102262 -0.060105 -0.286564
    15 1.719431 0.000004 -0.000003 0.000000 0.000010 -0.778830
    16 1.002930 0.000000 0.000004 0.097733 0.123153 0.228558
    17 0.298218 -0.634091 0.426700 -1.023890 -0.921604 -0.498701
    18 2.633561 0.000000 -0.000004 0.031014 -0.045087 0.423761
    19 1.308566 0.000001 0.000002 0.029208 -0.053608 -0.355901
    20 2.033356 1.000772 -1.937610 -1.668474 1.286518 2.942953
    21 6.028141 0.000000 -0.000002 1.676276 0.842470 -0.506281
    22 11.692554 0.000000 -0.000001 0.000034 -0.000012 -1.820962
    23 11.481701 -0.000001 -0.000007 -0.795842 0.055066 1.170243
    24 2.914335 -0.023163 1.404053 0.005931 0.148989 -0.956334
    25 1.284180 -0.000002 0.000001 0.000007 -0.000008 -0.611443
    26 0.838744 0.000000 0.000000 0.053883 0.391803 -1.610270
    27 3.368063 0.007376 0.622456 0.036283 0.098997 -1.009555
    28 1.610352 0.000002 0.000000 -0.000007 0.259441 -1.086926
    29 1.015625 0.000002 0.000000 0.015558 0.182264 -1.340754
    30 3.551622 0.027826 -0.200566 0.012764 0.053250 -0.903018
    31 1.666992 0.000002 0.000000 -0.000009 0.314488 -1.208296
    32 1.243164 -0.000002 0.000000 -0.000007 0.196340 -1.483473
    33 3.449668 0.054214 -1.085181 0.053361 0.070282 -0.349941
    34 1.711616 0.000006 0.000011 0.000003 -0.027177 -0.728292
    35 1.005912 0.000000 0.000005 0.023602 -0.030758 -1.114668
    36 0.075534 -0.738747 -0.759723 1.293601 0.406117 -0.475444
    37 2.508554 -0.000006 -0.000004 -0.000002 -0.000001 0.359160
    38 1.330078 0.052032 -0.119690 -0.334975 0.008687 -0.059326
    39 -5.669212 -22.388401 -7.066613 1.306999 -0.373579 1.618159
    40 -0.163176 2.333985 0.382082 3.101636 0.166381 -1.515338
    41 1.417019 1.884747 0.307373 -0.111807 0.161678 -1.589027
    42 2.720737 2.529261 0.412600 -3.110087 -0.046555 2.851964
  time 12
    0 0.000005 -2.660156 -8.640625 -1.570760 -1.391893 -1.570827
    1 2.033348 1.000767 1.937660 1.596636 -1.286515 2.942963
    2 6.028145 0.000003 0.000002 -0.670132 -0.707910 -1.989356
    3 11.692549 0.000081 -0.000005 -0.000003 0.000024 -1.071681
    4 11.481670 -0.000089 -0.000024 0.068631 0.488476 0.173329
    5 3.281560 0.006028 -1.379481 0.060235 -0.190610 -0.990857
    6 1.328125 -0.000002 0.000001 0.000002 -0.054909 -0.582390
    7 0.819336 -0.000003 0.000000 0.000000 0.000000 -0.523574
    8 3.711854 0.109258 -0.568167 -0.040167 -0.149232 -1.054271
    9 1.610352 -0.000004 0.000000 -0.000003 0.001795 -0.427537
    10 0.993190 -0.000002 0.000002 0.001475 0.002258 -0.454063
    11 3.786034 0.207136 0.243937 0.056012 -0.075492 -0.596657
    12 1.684419 -0.000008 0.000009 -0.003018 0.005442 -1.095140
    13 1.256836 0.000004 0.000000 0.000000 0.000000 -0.532315
    14 3.594223 0.303463 1.113710 -0.102392 -0.060021 -0.286259
    15 1.719431 0.000004 -0.000003 0.000000 0.000010 -0.778830
    16 1.002930 0.000000 0.000004 0.097733 0.123153 0.228558
    17 0.298218 -0.630185 0.426700 -1.024173 -0.921556 -0.498169
    18 2.633561 0.000000 -0.000004 0.031002 -0.045087 0.423761
    19 1.308566 0.000001 0.000002 0.029208 -0.053608 -0.355901
    20 2.033356 1.000772 -1.937610 -1.668474 1.286518 2.942953
    21 6.028141 0.000000 -0.000002 1.675197 0.844796 -0.507656
    22 11.692554 0.000000 -0.000001 0.000034 -0.000024 -1.815253
    23 11.481701 -0.000001 -0.000007 -0.800266 0.063020 1.161425
    24 2.914335 -0.023163 1.404053 0.005700 0.149255 -0.956695
    25 1.284180 -0.000002 0.000001 0.000007 -0.000008 -0.611443
    26 0.838744 0.000000 0.000000 0.053883 0.391803 -1.610229
    27 3.368063 0.007376 0.622456 0.036044 0.099261 -1.009923
    28 1.610352 0.000002 0.000000 -0.000007 0.259441 -1.086926
    29 1.015625 0.000002 0.000000 0.015558 0.182264 -1.340754
    30 3.551622 0.023919 -0.200566 0.012560 0.053537 -0.903374
    31 1.666992 0.000002 0.000000 -0.000009 0.314488 -1.208296
    32 1.243164 -0.000002 0.000000 -0.000007 0.196340 -1.483473
    33 3.449668 0.054214 -1.085181 0.053336 0.070642 -0.350277
    34 1.711616 0.000006 0.000011 0.000003 -0.026110 -0.703315
    35 1.002005 0.000000 0.000005 0.022235 -0.029991 -1.082544
    36 0.075534 -0.738747 -0.759723 1.293541 0.406464 -0.475804
    37 2.512460 -0.000006 -0.000004 -0.000002 -0.000001 0.359148
    38 1.330078 0.052032 -0.119690 -0.334975 0.008687 -0.059326
    39 -5.669212 -22.443091 -7.047081 1.312004 -0.365338 1.614826
    40 -0.163176 2.333985 0.382082 3.101636 0.166381 -1.515363
    41 1.417019 1.884747 0.307373 -0.111807 0.161678 -1.589027
    42 2.720737 2.529261 0.412600 -3.110087 -0.046555 2.851964
  time 13
    0 0.000005 -2.660156 -8.640625 -1.570760 -1.391893 -1.570827
    1 2.033348 1.000767 1.937660 1.596636 -1.286515 2.942963
    2 6.028145 0.000003 0.000002 -0.669431 -0.708235 -1.989925
    3 11.692549 0.000081 -0.000005 -0.000003 0.000024 -1.071731
    4 11.481670 -0.000089 -0.000024 0.048618 0.485693 0.170626
    5 3.281560 0.002122 -1.379481 0.060586 -0.190526 -0.991542
    6 1.328125 -0.000002 0.000001 0.000002 -0.054909 -0.582390
    7 0.819336 -0.000003 0.000000 0.000000 0.000000 -0.523574
    8 3.711854 0.105351 -0.568167 -0.039832 -0.149112 -1.054902
    9 1.610352 -0.000004 0.000000 -0.000003 0.001795 -0.427537
    10 0.993190 -0.000002 0.000002 0.001475 0.002258 -0.454063
    11 3.786034 0.203230 0.247844 0.056372 -0.075552 -0.597264
    12 1.684419 -0.000008 0.000009 -0.003018 0.005442 -1.095198
    13 1.256836 0.000004 0.000000 0.000000 0.000000 -0.532315
    14 3.594223 0.299557 1.113710 -0.102089 -0.060177 -0.286869
    15 1.719431 0.000004 -0.000003 0.000000 0.000010 -0.778830
    16 1.002930 0.000000 0.000004 0.097733 0.123153 0.228558
    17 0.298218 -0.634091 0.426700 -1.023621 -0.921652 -0.499210
    18 2.633561 0.000000 -0.000004 0.031014 -0.045087 0.423761
    19 1.308566 0.000001 0.000002 0.029208 -0.053608 -0.355901
    20 2.033356 1.000772 -1.937610 -1.668474 1.286518 2.942953
    21 6.028141 0.000000 -0.000002 1.674605 0.847151 -0.508403
    22 11.692554 0.000000 -0.000001 0.000046 -0.000024 -1.810019
    23 11.481701 -0.000001 -0.000007 -0.804999 0.072283 1.151358
    24 2.914335 -0.023163 1.404053 0.005700 0.149255 -0.956695
    25 1.284180 -0.000002 0.000001 0.000007 -0.000008 -0.611443
    26 0.838744 0.000000 0.000000 0.053883 0.391803 -1.610229
    27 3.368063 0.007376 0.622456 0.036044 0.099261 -1.009923
    28 1.610352 0.000002 0.000000 -0.000007 0.259441 -1.086926
    29 1.015625 0.000002 0.000000 0.015558 0.182264 -1.340754
    30 3.551622 0.023919 -0.200566 0.012560 0.053537 -0.903374
    31 1.666992 0.000002 0.000000 -0.000009 0.314488 -1.208296
    32 1.243164 -0.000002 0.000000 -0.000007 0.196340 -1.483473
    33 3.449668 0.054214 -1.089088 0.053336 0.070642 -0.350277
    34 1.711616 0.000006 0.000011 0.000003 -0.024708 -0.670933
    35 1.005912 0.000000 0.000005 0.020546 -0.028924 -1.040865
    36 0.075534 -0.738747 -0.759723 1.293529 0.406464 -0.475804
    37 2.508554 -0.000006 -0.000004 -0.000002 -0.000001 0.359160
    38 1.330078 0.052032 -0.119690 -0.334975 0.008687 -0.059326
    39 -5.669212 -22.493873 -7.008018 1.318022 -0.355088 1.610922
    40 -0.163176 2.333985 0.382082 3.101636 0.166381 -1.515363
    41 1.417019 1.884747 0.307373 -0.111807 0.161678 -1.589027
    42 2.720737 2.529261 0.412600 -3.110087 -0.046555 2.851964
  time 14
    0 0.000005 -2.660156 -8.640625 -1.570760 -1.391893 -1.570827
    1 2.033348 1.000767 1.937660 1.596636 -1.286515 2.942963
    2 6.028145 0.000003 0.000002 -0.668676 -0.708606 -1.990550
    3 11.692549 0.000081 -0.000005 -0.000003 0.000024 -1.072028
    4 11.481670 -0.000089 -0.000024 0.028126 0.482460 0.167234
    5 3.281560 0.002122 -1.383387 0.060410 -0.190574 -0.991217
    6 1.328125 -0.000002 0.000001 0.000002 -0.054909 -0.582390
    7 0.819336 -0.000003 0.000000 0.000000 0.000000 -0.523574
    8 3.711854 0.109258 -0.568167 -0.040000 -0.149172 -1.054587
    9 1.610352 -0.000004 0.000000 -0.000003 0.001795 -0.427537
    10 0.993190 -0.000002 0.000002 0.001475 0.002258 -0.454063
    11 3.786034 0.203230 0.247844 0.056180 -0.075516 -0.596960
    12 1.684419 -0.000008 0.000009 -0.003018 0.005442 -1.095140
    13 1.256836 0.000004 0.000000 0.000000 0.000000 -0.532315
    14 3.594223 0.299557 1.113710 -0.102248 -0.060105 -0.286564
    15 1.719431 0.000004 -0.000003 0.000000 0.000010 -0.778830
    16 1.002930 0.000000 0.000004 0.097733 0.123153 0.228558
    17 0.298218 -0.634091 0.426700 -1.023890 -0.921604 -0.498679
    18 2.633561 0.000000 -0.000004 0.031002 -0.045087 0.423761
    19 1.308566 0.000001 0.000002 0.029208 -0.053620 -0.355923
    20 2.033356 1.000772 -1.937610 -1.668474 1.286518 2.942953
    21 6.028141 0.000000 -0.000002 1.673909 0.849447 -0.509307
    22 11.692554 0.000000 -0.000001 0.000046 -0.000012 -1.804845
    23 11.481701 -0.000001 -0.000007 -0.810307 0.082599 1.139967
    24 2.914335 -0.023163 1.404053 0.005865 0.149082 -0.956434
    25 1.284180 -0.000002 0.000001 0.000007 -0.000008 -0.611443
    26 0.838744 0.000000 0.000000 0.053883 0.391803 -1.610270
    27 3.368063 0.007376 0.622456 0.036223 0.099093 -1.009647
    28 1.610352 0.000002 0.000000 -0.000007 0.259441 -1.086926
    29 1.015625 0.000002 0.000000 0.015558 0.182264 -1.340754
    30 3.551622 0.027826 -0.200566 0.012716 0.053357 -0.903110
    31 1.666992 0.000002 0.000000 -0.000009 0.314488 -1.208296
    32 1.243164 -0.000002 0.000000 -0.000007 0.196340 -1.483473
    33 3.449668 0.054214 -1.089088 0.053373 0.070402 -0.350025
    34 1.711616 0.000006 0.000011 0.000003 -0.023006 -0.632569
    35 1.005912 0.000000 0.000005 0.018568 -0.027582 -0.991530
    36 0.075534 -0.738747 -0.759723 1.293601 0.406243 -0.475528
    37 2.512460 -0.000006 -0.000004 -0.000002 -0.000001 0.359148
    38 1.330078 0.052032 -0.119690 -0.334975 0.008687 -0.059326
    39 -5.669212 -22.544656 -6.965048 1.324635 -0.343525 1.606636
    40 -0.163176 2.333985 0.382082 3.101636 0.166381 -1.515338
    41 1.417019 1.884747 0.307373 -0.111807 0.161678 -1.589027
    42 2.720737 2.529261 0.412600 -3.110087 -0.046555 2.851964
  time 15
    0 0.000005 -2.660156 -8.640625 -1.570760 -1.391893 -1.570827
    1 2.033348 1.000767 1.937660 1.596636 -1.286515 2.942963
    2 6.028145 0.000003 0.000002 -0.667598 -0.709348 -1.991346
    3 11.692549 0.000081 -0.000005 -0.000003 0.000024 -1.071830
    4 11.481670 -0.000089 -0.000024 0.007155 0.479172 0.163646
    5 3.281560 0.006028 -1.379481 0.060253 -0.190646 -0.990857
    6 1.328125 -0.000002 0.000001 0.000002 -0.054909 -0.582390
    7 0.819336 -0.000003 0.000000 0.000000 0.000000 -0.523574
    8 3.711854 0.109258 -0.568167 -0.040156 -0.149256 -1.054271
    9 1.610352 -0.000004 0.000000 -0.000003 0.001795 -0.427537
    10 0.993190 -0.000002 0.000002 0.001475 0.002258 -0.454063
    11 3.786034 0.207136 0.243937 0.056000 -0.075528 -0.596657
    12 1.684419 -0.000008 0.000009 -0.003030 0.005442 -1.095198
    13 1.256836 0.000004 0.000000 0.000000 0.000000 -0.532315
    14 3.594223 0.303463 1.109803 -0.102421 -0.060057 -0.286259
    15 1.719431 0.000004 -0.000003 0.000000 0.000010 -0.778830
    16 1.002930 0.000000 0.000004 0.097733 0.123153 0.228558
    17 0.298218 -0.630185 0.426700 -1.024187 -0.921604 -0.498169
    18 2.633561 0.000000 -0.000004 0.031002 -0.045087 0.423761
    19 1.308566 0.000001 0.000002 0.029208 -0.053608 -0.355923
    20 2.033356 1.000772 -1.937610 -1.668474 1.286518 2.942953
    21 6.028141 0.000000 -0.000002 1.674327 0.852412 -0.508757
    22 11.692554 0.000000 -0.000001 0.000046 -0.000012 -1.799553
    23 11.481701 -0.000001 -0.000007 -0.815349 0.092515 1.129938
    24 2.914335 -0.027070 1.404053 0.005551 0.149495 -0.956936
    25 1.284180 -0.000002 0.000001 0.000007 -0.000008 -0.611443
    26 0.838744 0.000000 0.000000 0.053883 0.391803 -1.610229
    27 3.368063 0.007376 0.622456 0.035888 0.099488 -1.010143
    28 1.610352 0.000002 0.000000 -0.000007 0.259441 -1.086926
    29 1.015625 0.000002 0.000000 0.015558 0.182264 -1.340754
    30 3.551622 0.023919 -0.200566 0.012441 0.053789 -0.903584
    31 1.666992 0.000002 0.000000 -0.000009 0.314488 -1.208296
    32 1.243164 -0.000002 0.000000 -0.000007 0.196340 -1.483473
    33 3.449668 0.054214 -1.089088 0.053361 0.070917 -0.350480
    34 1.711616 0.000006 0.000011 0.000003 -0.021076 -0.589804
    35 1.005912 0.000000 0.000005 0.016471 -0.025964 -0.936497
    36 0.075534 -0.734840 -0.755817 1.293517 0.406747 -0.476019
    37 2.512460 -0.000006 -0.000004 -0.000002 -0.000001 0.359148
    38 1.330078 0.052032 -0.119690 -0.334975 0.008687 -0.059326
    39 -5.669212 -22.587626 -6.914265 1.331249 -0.331576 1.602351
    40 -0.163176 2.333985 0.382082 3.101636 0.166381 -1.515363
    41 1.417019 1.884747 0.307373 -0.111807 0.161678 -1.589027
    42 2.720737 2.529261 0.412600 -3.110087 -0.046555 2.851964
  time 16
    0 0.000005 -2.660156 -8.640625 -1.570760 -1.391893 -1.570827
    1 2.033348 1.000767 1.937660 1.596636 -1.286515 2.942963
    2 6.028145 0.000003 0.000002 -0.666682 -0.709673 -1.992028
    3 11.692549 0.000081 -0.000005 -0.000003 0.000024 -1.072474
    4 11.481670 -0.000089 -0.000024 -0.013624 0.476108 0.161730
    5 3.285467 0.002122 -1.379481 0.060586 -0.190694 -0.991506
    6 1.328125 -0.000002 0.000001 0.000002 -0.054909 -0.582390
    7 0.819336 -0.000003 0.000000 0.000000 0.000000 -0.523574
    8 3.711854 0.105351 -0.568167 -0.039808 -0.149292 -1.054867
    9 1.610352 -0.000004 0.000000 -0.000003 0.001795 -0.427537
    10 0.993190 -0.000002 0.000002 0.001475 0.002258 -0.454063
    11 3.786034 0.203230 0.247844 0.056300 -0.075708 -0.597236
    12 1.684419 -0.000008 0.000009 -0.003018 0.005442 -1.095140
    13 1.256836 0.000004 0.000000 0.000000 0.000000 -0.532315
    14 3.594223 0.299557 1.113710 -0.102190 -0.060320 -0.286826
    15 1.719431 0.000004 -0.000003 0.000000 0.000010 -0.778830
    16 1.002930 0.000000 0.000004 0.097733 0.123153 0.228558
    17 0.298218 -0.634091 0.426700 -1.023734 -0.921808 -0.499077
    18 2.633561 0.000000 -0.000004 0.031014 -0.045087 0.423761
    19 1.308566 0.000001 0.000002 0.029208 -0.053608 -0.355923
    20 2.033356 1.000772 -1.937610 -1.668474 1.286518 2.942953
    21 6.028141 0.000000 -0.000002 1.674361 0.854709 -0.508678
    22 11.692554 0.000000 -0.000001 0.000046 -0.000012 -1.795509
    23 11.481701 -0.000001 -0.000007 -0.820215 0.102250 1.119569
    24 2.914335 -0.023163 1.404053 0.005700 0.149255 -0.956695
    25 1.284180 -0.000002 0.000001 0.000007 -0.000008 -0.611443
    26 0.838744 0.000000 0.000000 0.053883 0.391803 -1.610270
    27 3.368063 0.007376 0.622456 0.036044 0.099261 -1.009923
    28 1.610352 0.000002 0.000000 -0.000007 0.259441 -1.086926
    29 1.015625 0.000002 0.000000 0.015558 0.182264 -1.340754
    30 3.551622 0.023919 -0.200566 0.012560 0.053537 -0.903374
    31 1.666992 0.000002 0.000000 -0.000009 0.314488 -1.208296
    32 1.243164 -0.000002 0.000000 -0.000007 0.196340 -1.483473
    33 3.449668 0.054214 -1.089088 0.053336 0.070642 -0.350277
    34 1.711616 0.000006 0.000011 0.000003 -0.018979 -0.544062
    35 1.005912 0.000000 0.000005 0.014314 -0.024106 -0.877664
    36 0.075534 -0.738747 -0.759723 1.293529 0.406464 -0.475804
    37 2.512460 -0.000006 -0.000004 -0.000002 -0.000001 0.359160
    38 1.330078 0.052032 -0.119690 -0.334975 0.008687 -0.059326
    39 -5.669212 -22.622784 -6.855669 1.337505 -0.319910 1.598351
    40 -0.163176 2.333985 0.382082 3.101636 0.166381 -1.515363
    41 1.417019 1.884747 0.307373 -0.111807 0.161678 -1.589027
    42 2.720737 2.529261 0.412600 -3.110087 -0.046555 2.851964
  time 17
    0 0.000005 -2.660156 -8.640625 -1.570760 -1.391893 -1.570827
    1 2.033348 1.000767 1.937660 1.596636 -1.286515 2.942963
    2 6.028145 0.000003 0.000002 -0.665496 -0.710230 -1.992881
    3 11.692549 0.000081 -0.000005 -0.000003 0.000024 -1.073267
    4 11.481670 -0.000089 -0.000024 -0.034786 0.472426 0.159272
    5 3.281560 0.002122 -1.383387 0.060410 -0.190574 -0.991217
    6 1.328125 -0.000002 0.000001 0.000002 -0.054909 -0.582390
    7 0.819336 -0.000003 0.000000 0.000000 0.000000 -0.523574
    8 3.711854 0.109258 -0.568167 -0.040000 -0.149184 -1.054587
    9 1.610352 -0.000004 0.000000 -0.000003 0.001795 -0.427537
    10 0.993190 -0.000002 0.000002 0.001475 0.002258 -0.454063
    11 3.786034 0.203230 0.243937 0.056180 -0.075516 -0.596960
    12 1.684419 -0.000008 0.000009 -0.003018 0.005442 -1.095198
    13 1.256836 0.000004 0.000000 0.000000 0.000000 -0.532315
    14 3.594223 0.299557 1.109803 -0.102262 -0.060105 -0.286564
    15 1.719431 0.000004 -0.000003 0.000000 0.000010 -0.778830
    16 1.002930 0.000000 0.000004 0.097733 0.123153 0.228558
    17 0.298218 -0.634091 0.426700 -1.023890 -0.921604 -0.498701
    18 2.633561 0.000000 -0.000004 0.031002 -0.045087 0.423761
    19 1.308566 0.000001 0.000002 0.029208 -0.053608 -0.355901
    20 2.033356 1.000772 -1.937610 -1.668474 1.286518 2.942953
    21 6.028141 0.000000 -0.000002 1.674361 0.857034 -0.508717
    22 11.692554 0.000000 -0.000001 0.000034 -0.000024 -1.791465
    23 11.481701 -0.000001 -0.000007 -0.824771 0.110895 1.110221
    24 2.914335 -0.023163 1.404053 0.005700 0.149255 -0.956695
    25 1.284180 -0.000002 0.000001 0.000007 -0.000008 -0.611443
    26 0.838744 0.000000 0.000000 0.053883 0.391803 -1.610229
    27 3.368063 0.007376 0.622456 0.036044 0.099261 -1.009923
    28 1.610352 0.000002 0.000000 -0.000007 0.259441 -1.086926
    29 1.015625 0.000002 0.000000 0.015558 0.182264 -1.340754
    30 3.551622 0.023919 -0.200566 0.012560 0.053537 -0.903374
    31 1.666992 0.000002 0.000000 -0.000009 0.314488 -1.208296
    32 1.243164 -0.000002 0.000000 -0.000007 0.196340 -1.483473
    33 3.449668 0.054214 -1.089088 0.053336 0.070642 -0.350277
    34 1.711616 0.000006 0.000011 0.000003 -0.016786 -0.496871
    35 1.005912 0.000000 0.000005 0.012204 -0.022069 -0.816931
    36 0.075534 -0.738747 -0.759723 1.293541 0.406464 -0.475804
    37 2.512460 -0.000006 -0.000004 -0.000002 -0.000001 0.359160
    38 1.330078 0.052032 -0.119690 -0.334975 0.008687 -0.059326
    39 -5.669212 -22.654034 -6.808793 1.342987 -0.309300 1.595018
    40 -0.163176 2.333985 0.382082 3.101636 0.166381 -1.515363
    41 1.417019 1.884747 0.307373 -0.111807 0.161678 -1.589027
    42 2.720737 2.529261 0.412600 -3.110087 -0.046555 2.851964
  time 18
    0 0.000005 -2.660156 -8.640625 -1.570760 -1.391893 -1.570827
    1 2.033348 1.000767 1.937660 1.596636 -1.286515 2.942963
    2 6.028145 0.000003 0.000002 -0.664580 -0.710554 -1.993507
    3 11.692549 0.000081 -0.000005 -0.000003 0.000024 -1.074010
    4 11.481670 -0.000089 -0.000024 -0.055662 0.468940 0.156962
    5 3.281560 0.002122 -1.383387 0.060410 -0.190574 -0.991217
    6 1.328125 -0.000002 0.000001 0.000002 -0.054909 -0.582390
    7 0.819336 -0.000003 0.000000 0.000000 0.000000 -0.523574
    8 3.711854 0.109258 -0.568167 -0.040000 -0.149184 -1.054587
    9 1.610352 -0.000004 0.000000 -0.000003 0.001795 -0.427537
    10 0.993190 -0.000002 0.000002 0.001487 0.002258 -0.454063
    11 3.786034 0.203230 0.243937 0.056180 -0.075516 -0.596960
    12 1.684419 -0.000008 0.000009 -0.003018 0.005442 -1.095198
    13 1.256836 0.000004 0.000000 0.000000 0.000000 -0.532315
    14 3.594223 0.299557 1.109803 -0.102262 -0.060105 -0.286564
    15 1.719431 0.000004 -0.000003 0.000000 0.000010 -0.778830
    16 1.002930 0.000000 0.000004 0.097733 0.123153 0.228558
    17 0.298218 -0.634091 0.426700 -1.023890 -0.921604 -0.498701
    18 2.633561 0.000000 -0.000004 0.031002 -0.045087 0.423761
    19 1.308566 0.000001 0.000002 0.029208 -0.053608 -0.355923
    20 2.033356 1.000772 -1.937610 -1.668474 1.286518 2.942953
    21 6.028141 0.000000 -0.000002 1.674466 0.859098 -0.508560
    22 11.692554 0.000000 -0.000001 0.000130 -0.000204 -1.788908
    23 11.481701 -0.000001 -0.000007 -0.829239 0.114709 1.104885
    24 2.918241 -0.023163 1.396240 0.005352 0.149242 -0.957359
    25 1.284180 -0.000002 0.000001 0.000007 -0.000008 -0.611443
    26 0.838744 0.000000 0.000000 0.053883 0.391803 -1.610229
    27 3.371969 0.007376 0.622456 0.035708 0.099225 -1.010548
    28 1.610352 0.000002 0.000000 -0.000007 0.259441 -1.086926
    29 1.015625 0.000002 0.000000 0.015558 0.182264 -1.340754
    30 3.555528 0.023919 -0.200566 0.012225 0.053549 -0.903992
    31 1.666992 0.000002 0.000000 -0.000009 0.314488 -1.208296
    32 1.243164 -0.000002 0.000000 -0.000007 0.196340 -1.483473
    33 3.453574 0.054214 -1.089088 0.053049 0.070822 -0.350900
    34 1.711616 0.000006 0.000011 0.000003 -0.014545 -0.449627
    35 1.005912 0.000000 0.000005 0.010239 -0.019900 -0.756171
    36 0.079440 -0.734840 -0.755817 1.293194 0.406621 -0.476535
    37 2.512460 -0.000006 -0.000004 -0.000002 -0.000001 0.359160
    38 1.330078 0.052032 -0.119690 -0.334975 0.008687 -0.059326
    39 -5.653586 -22.681379 -6.777542 1.348349 -0.303737 1.594256
    40 -0.163176 2.333985 0.382082 3.101636 0.166381 -1.515363
    41 1.417019 1.884747 0.307373 -0.111807 0.161678 -1.589027
    42 2.720737 2.529261 0.412600 -3.110087 -0.046555 2.851964
  time 19
    0 0.000005 -2.660156 -8.640625 -1.570760 -1.391893 -1.570827
    1 2.033348 1.000767 1.937660 1.596636 -1.286515 2.942963
    2 6.028145 0.000003 0.000002 -0.663717 -0.710879 -1.994189
    3 11.692549 0.000081 -0.000005 -0.000003 0.000036 -1.074703
    4 11.481670 -0.000089 -0.000024 -0.076441 0.465455 0.154652
    5 3.281560 0.002122 -1.379481 0.060428 -0.190574 -0.991217
    6 1.328125 -0.000002 0.000001 0.000002 -0.054909 -0.582390
    7 0.819336 -0.000003 0.000000 0.000000 0.000000 -0.523574
    8 3.711854 0.109258 -0.568167 -0.040000 -0.149172 -1.054587
    9 1.610352 -0.000004 0.000000 -0.000003 0.001795 -0.427537
    10 0.993190 -0.000002 0.000002 0.001475 0.002270 -0.454063
    11 3.786034 0.203230 0.247844 0.056180 -0.075516 -0.596960
    12 1.684419 -0.000008 0.000009 -0.003018 0.005442 -1.095198
    13 1.256836 0.000004 0.000000 0.000000 0.000000 -0.532315
    14 3.594223 0.299557 1.109803 -0.102248 -0.060105 -0.286564
    15 1.719431 0.000004 -0.000003 0.000000 0.000010 -0.778830
    16 1.002930 0.000000 0.000004 0.097733 0.123153 0.228558
    17 0.298218 -0.634091 0.430606 -1.023890 -0.921604 -0.498701
    18 2.633561 0.000000 -0.000004 0.031002 -0.045087 0.423761
    19 1.308566 0.000001 0.000002 0.029208 -0.053608 -0.355923
    20 2.033356 1.000772 -1.937610 -1.668474 1.286518 2.942953
    21 6.028141 0.000000 -0.000002 1.677389 0.859593 -0.504748
    22 11.692554 0.000000 -0.000001 0.000046 -0.000024 -1.786707
    23 11.481701 -0.000001 -0.000007 -0.836935 0.118232 1.098186
    24 2.914335 -0.023163 1.404053 0.005700 0.149255 -0.956695
    25 1.284180 -0.000002 0.000001 0.000007 -0.000008 -0.611443
    26 0.838744 0.000000 0.000000 0.053883 0.391803 -1.610229
    27 3.368063 0.007376 0.622456 0.036044 0.099261 -1.009923
    28 1.610352 0.000002 0.000000 -0.000007 0.259441 -1.086926
    29 1.015625 0.000002 0.000000 0.015558 0.182264 -1.340754
    30 3.551622 0.023919 -0.200566 0.012560 0.053537 -0.903374
    31 1.666992 0.000002 0.000000 -0.000009 0.314488 -1.208296
    32 1.243164 -0.000002 0.000000 -0.000007 0.196340 -1.483473
    33 3.449668 0.054214 -1.089088 0.053336 0.070642 -0.350277
    34 1.711616 0.000006 0.000011 0.000003 -0.012364 -0.403911
    35 1.005912 0.000000 0.000005 0.008441 -0.017695 -0.697338
    36 0.075534 -0.738747 -0.759723 1.293541 0.406464 -0.475804
    37 2.508554 -0.000006 -0.000004 -0.000002 -0.000001 0.359160
    38 1.330078 0.052032 -0.119690 -0.334975 0.008687 -0.059326
    39 -5.677024 -22.700911 -6.742385 1.357942 -0.297659 1.589876
    40 -0.163176 2.333985 0.382082 3.101636 0.166381 -1.515363
    41 1.417019 1.884747 0.307373 -0.111807 0.161678 -1.589027
    42 2.720737 2.529261 0.412600 -3.110087 -0.046555 2.851964
  time 20
    0 0.000005 -2.660156 -8.640625 -1.570760 -1.391893 -1.570827
    1 2.033348 1.000767 1.937660 1.596636 -1.286515 2.942963
    2 6.028145 0.000003 0.000002 -0.662855 -0.711204 -1.994871
    3 11.692549 0.000081 -0.000005 -0.000003 0.000036 -1.075248
    4 11.481670 -0.000089 -0.000024 -0.096837 0.461997 0.152391
    5 3.281560 0.002122 -1.383387 0.060410 -0.190574 -0.991217
    6 1.328125 -0.000002 0.000001 0.000002 -0.054909 -0.582390
    7 0.819336 -0.000003 0.000000 0.000000 0.000000 -0.523574
    8 3.711854 0.109258 -0.568167 -0.040000 -0.149172 -1.054587
    9 1.610352 -0.000004 0.000000 -0.000003 0.001795 -0.427537
    10 0.993190 -0.000002 0.000002 0.001487 0.002258 -0.454063
    11 3.786034 0.203230 0.243937 0.056180 -0.075516 -0.596960
    12 1.684419 -0.000008 0.000009 -0.003018 0.005442 -1.095140
    13 1.256836 0.000004 0.000000 0.000000 0.000000 -0.532315
    14 3.594223 0.299557 1.109803 -0.102248 -0.060105 -0.286564
    15 1.719431 0.000004 -0.000003 0.000000 0.000010 -0.778830
    16 1.002930 0.000000 0.000004 0.097733 0.123153 0.228558
    17 0.298218 -0.634091 0.426700 -1.023890 -0.921604 -0.498701
    18 2.633561 0.000000 -0.000004 0.031002 -0.045087 0.423761
    19 1.308566 0.000001 0.000002 0.029208 -0.053608 -0.355923
    20 2.033356 1.000772 -1.937610 -1.668474 1.286518 2.942953
    21 6.028141 0.000000 -0.000002 1.681113 0.860087 -0.499913
    22 11.692554 0.000000 -0.000001 0.000034 -0.000024 -1.784745
    23 11.481701 -0.000001 -0.000007 -0.843216 0.121175 1.093531
    24 2.914335 -0.023163 1.404053 0.005700 0.149255 -0.956695
    25 1.284180 -0.000002 0.000001 0.000007 -0.000008 -0.611443
    26 0.838744 0.000000 0.000000 0.053883 0.391803 -1.610270
    27 3.368063 0.007376 0.622456 0.036044 0.099261 -1.009923
    28 1.610352 0.000002 0.000000 -0.000007 0.259441 -1.086926
    29 1.015625 0.000002 0.000000 0.015558 0.182264 -1.340754
    30 3.551622 0.023919 -0.200566 0.012560 0.053537 -0.903374
    31 1.666992 0.000002 0.000000 -0.000009 0.314488 -1.208296
    32 1.243164 -0.000002 0.000000 -0.000007 0.196340 -1.483473
    33 3.449668 0.054214 -1.089088 0.053336 0.070642 -0.350277
    34 1.711616 0.000006 0.000011 0.000003 -0.010290 -0.361174
    35 1.005912 0.000000 0.000005 0.006895 -0.015537 -0.642333
    36 0.075534 -0.738747 -0.759723 1.293529 0.406464 -0.475804
    37 2.512460 -0.000006 -0.000004 -0.000002 -0.000001 0.359160
    38 1.330078 0.052032 -0.119690 -0.334975 0.008687 -0.059326
    39 -5.700463 -22.716536 -6.711134 1.366939 -0.292483 1.585305
    40 -0.163176 2.333985 0.382082 3.101636 0.166381 -1.515338
    41 1.417019 1.884747 0.307373 -0.111807 0.161678 -1.589027
    42 2.720737 2.529261 0.412600 -3.110087 -0.046555 2.851964
  time 21
    0 0.000005 -2.660156 -8.640625 -1.570760 -1.391893 -1.570827
    1 2.033348 1.000767 1.937660 1.596636 -1.286515 2.942963
    2 6.028145 0.000003 0.000002 -0.662046 -0.711529 -1.995497
    3 11.692549 0.000081 -0.000005 -0.000003 0.000024 -1.075595
    4 11.481670 -0.000089 -0.000024 -0.116850 0.458877 0.150081
    5 3.285467 0.002122 -1.383387 0.060568 -0.190826 -0.991398
    6 1.328125 -0.000002 0.000001 0.000002 -0.054909 -0.582390
    7 0.819336 -0.000003 0.000000 0.000000 0.000000 -0.523574
    8 3.711854 0.105351 -0.568167 -0.039832 -0.149424 -1.054797
    9 1.610352 -0.000004 0.000000 -0.000003 0.001795 -0.427537
    10 0.993190 -0.000002 0.000002 0.001475 0.002258 -0.454063
    11 3.786034 0.203230 0.243937 0.056228 -0.075815 -0.597153
    12 1.684419 -0.000008 0.000009 -0.003018 0.005442 -1.095140
    13 1.256836 0.000004 0.000000 0.000000 0.000000 -0.532315
    14 3.594223 0.299557 1.109803 -0.102291 -0.060392 -0.286738
    15 1.719431 0.000004 -0.000003 0.000000 0.000010 -0.778830
    16 1.002930 0.000000 0.000004 0.097733 0.123153 0.228558
    17 0.298218 -0.634091 0.426700 -1.023875 -0.921904 -0.498878
    18 2.633561 0.000000 -0.000004 0.031002 -0.045087 0.423761
    19 1.308566 0.000001 0.000002 0.029208 -0.053608 -0.355923
    20 2.033356 1.000772 -1.937610 -1.668474 1.286518 2.942953
    21 6.028141 0.000000 -0.000002 1.682819 0.860203 -0.497712
    22 11.692554 0.000000 -0.000001 0.000046 -0.000012 -1.784031
    23 11.481701 -0.000001 -0.000007 -0.845959 0.122373 1.091715
    24 2.914335 -0.023163 1.404053 0.005700 0.149255 -0.956695
    25 1.284180 -0.000002 0.000001 0.000007 -0.000008 -0.611443
    26 0.838744 0.000000 0.000000 0.053883 0.391803 -1.610229
    27 3.368063 0.007376 0.622456 0.036044 0.099261 -1.009923
    28 1.610352 0.000002 0.000000 -0.000007 0.259441 -1.086926
    29 1.015625 0.000002 0.000000 0.015558 0.182264 -1.340754
    30 3.555528 0.023919 -0.204473 0.012560 0.053537 -0.903374
    31 1.666992 0.000002 0.000000 -0.000009 0.314488 -1.208296
    32 1.243164 -0.000002 0.000000 -0.000007 0.196340 -1.483473
    33 3.449668 0.054214 -1.085181 0.053336 0.070642 -0.350277
    34 1.711616 0.000006 0.000011 0.000003 -0.008421 -0.322863
    35 1.005912 0.000000 0.000005 0.005613 -0.013536 -0.593055
    36 0.075534 -0.738747 -0.759723 1.293529 0.406464 -0.475804
    37 2.512460 -0.000006 -0.000004 -0.000002 -0.000001 0.359160
    38 1.330078 0.052032 -0.119690 -0.334975 0.008687 -0.059326
    39 -5.716088 -22.724349 -6.699415 1.370871 -0.290371 1.583305
    40 -0.163176 2.333985 0.382082 3.101636 0.166381 -1.515363
    41 1.417019 1.884747 0.307373 -0.111807 0.161678 -1.589027
    42 2.720737 2.529261 0.412600 -3.110087 -0.046555 2.851964
end
