// Created by Crowbar++ 0.74
version 1
nodes
  0 "ValveBiped.Bip01_Spine4" -1
  1 "ValveBiped.Bip01_L_Clavicle" 0
  2 "ValveBiped.Bip01_L_UpperArm" 1
  3 "ValveBiped.Bip01_L_Forearm" 2
  4 "ValveBiped.Bip01_L_Hand" 3
  5 "ValveBiped.Bip01_L_Finger4" 4
  6 "ValveBiped.Bip01_L_Finger41" 5
  7 "ValveBiped.Bip01_L_Finger42" 6
  8 "ValveBiped.Bip01_L_Finger3" 4
  9 "ValveBiped.Bip01_L_Finger31" 8
  10 "ValveBiped.Bip01_L_Finger32" 9
  11 "ValveBiped.Bip01_L_Finger2" 4
  12 "ValveBiped.Bip01_L_Finger21" 11
  13 "ValveBiped.Bip01_L_Finger22" 12
  14 "ValveBiped.Bip01_L_Finger1" 4
  15 "ValveBiped.Bip01_L_Finger11" 14
  16 "ValveBiped.Bip01_L_Finger12" 15
  17 "ValveBiped.Bip01_L_Finger0" 4
  18 "ValveBiped.Bip01_L_Finger01" 17
  19 "ValveBiped.Bip01_L_Finger02" 18
  20 "ValveBiped.Bip01_R_Clavicle" 0
  21 "ValveBiped.Bip01_R_UpperArm" 20
  22 "ValveBiped.Bip01_R_Forearm" 21
  23 "ValveBiped.Bip01_R_Hand" 22
  24 "ValveBiped.Bip01_R_Finger4" 23
  25 "ValveBiped.Bip01_R_Finger41" 24
  26 "ValveBiped.Bip01_R_Finger42" 25
  27 "ValveBiped.Bip01_R_Finger3" 23
  28 "ValveBiped.Bip01_R_Finger31" 27
  29 "ValveBiped.Bip01_R_Finger32" 28
  30 "ValveBiped.Bip01_R_Finger2" 23
  31 "ValveBiped.Bip01_R_Finger21" 30
  32 "ValveBiped.Bip01_R_Finger22" 31
  33 "ValveBiped.Bip01_R_Finger1" 23
  34 "ValveBiped.Bip01_R_Finger11" 33
  35 "ValveBiped.Bip01_R_Finger12" 34
  36 "ValveBiped.Bip01_R_Finger0" 23
  37 "ValveBiped.Bip01_R_Finger01" 36
  38 "ValveBiped.Bip01_R_Finger02" 37
  39 "v_weapon.MP5_Parent" -1
  40 "v_weapon.MP5_Clip" 39
  41 "v_weapon.MP5_Bolt" 39
  42 "v_weapon.MP5_ClipRelease" 39
  43 "v_weapon.MP5_Trigger" 39
  44 "v_weapon.MP5_Clip2" 39
end
skeleton
  time 0
    0 1.000000 0.335938 -9.140625 -1.570760 -1.391893 -1.570827
    1 2.033348 1.000767 1.937660 3.099206 -0.162014 1.679995
    2 6.028145 0.000003 0.000002 -2.179788 -0.114235 -0.660893
    3 11.692553 0.000081 -0.000005 0.078916 0.219690 -0.811772
    4 11.481672 -0.000089 -0.000024 1.070396 -0.206336 0.813709
    5 3.281560 0.002120 -1.383388 0.099709 -0.198220 -1.489135
    6 1.324282 -0.000010 0.000004 0.000000 -0.046935 -1.565501
    7 0.819210 0.000000 0.000003 0.000001 -0.000003 -1.581169
    8 3.711854 0.109256 -0.568167 0.035575 -0.139373 -1.548439
    9 1.609408 0.000006 -0.000006 -0.000002 0.029021 -1.474473
    10 0.993191 -0.000006 0.000003 0.000504 0.020702 -1.569138
    11 3.786031 0.203223 0.243937 -0.024512 -0.110103 -1.301767
    12 1.684424 -0.000010 0.000009 0.000002 0.022197 -1.671944
    13 1.252151 -0.000006 0.000003 -0.011661 0.010042 -1.186651
    14 3.594223 0.299550 1.109803 -0.057101 -0.103964 -0.824212
    15 1.719435 0.000000 -0.000005 -0.000004 0.000021 -1.555001
    16 1.005925 -0.000006 0.000003 0.000005 0.000012 -0.837671
    17 0.298214 -0.634094 0.426700 -1.709413 -0.669736 -0.026689
    18 2.633559 0.000000 -0.000008 -0.000002 0.010785 0.560353
    19 1.308566 0.000001 -0.000002 -0.007093 0.145672 -0.397632
    20 2.033356 1.000772 -1.937610 -0.128177 0.172990 -2.038336
    21 6.028141 0.000000 -0.000002 -0.348969 0.863089 -1.723629
    22 11.692556 0.000000 -0.000002 0.024135 -0.036325 -1.169354
    23 11.481703 -0.000001 -0.000005 -0.972630 -0.335328 0.675816
    24 2.914335 -0.023166 1.400148 -0.005263 -0.206929 -1.324872
    25 1.284180 -0.000004 0.000001 0.000007 0.149810 -0.524417
    26 0.842285 0.000006 -0.000003 -0.072546 0.052861 -1.162485
    27 3.368063 0.007377 0.618550 0.028697 -0.175678 -1.457868
    28 1.610352 0.000000 -0.000001 -0.000008 0.158685 -0.726008
    29 1.020534 -0.000004 -0.000002 0.015301 -0.014044 -1.343778
    30 3.551622 0.023917 -0.200566 -0.009120 -0.241475 -1.194131
    31 1.668799 0.000002 0.000006 0.000002 0.186670 -0.954616
    32 1.240434 0.000002 0.000006 0.000002 -0.000011 -1.431094
    33 3.445761 0.054213 -1.089087 0.050378 -0.036667 -0.392337
    34 1.711616 0.000008 0.000011 0.000003 -0.026050 -0.688976
    35 1.002005 0.000000 0.000006 0.005613 -0.013536 -0.593093
    36 0.075534 -0.738749 -0.759723 1.210212 0.533398 -0.558222
    37 2.512460 -0.000008 -0.000004 -0.000002 -0.000001 0.359159
    38 1.156220 0.667987 -0.000008 -0.082330 -0.117571 1.427043
    39 -6.728843 -12.651251 -18.199960 0.693670 -0.074453 -3.033573
    40 0.028150 2.046865 -7.394535 -0.000007 0.000000 0.000000
    41 0.028148 5.078109 -12.500008 -0.000007 0.000000 0.000000
    42 0.028150 1.326164 -6.433592 -0.000007 0.000000 0.000000
    43 0.025025 1.444311 -3.791368 -0.000007 0.000000 0.000000
    44 5.028150 2.046713 -7.394381 -0.000007 0.000000 -0.000003
  time 1
    0 1.000000 0.335938 -9.140625 -1.570760 -1.391893 -1.570827
    1 2.033348 1.000767 1.937660 3.099206 -0.162014 1.679995
    2 6.028145 0.000003 0.000002 -2.179788 -0.114235 -0.660893
    3 11.692553 0.000081 -0.000005 0.078916 0.219690 -0.811772
    4 11.481672 -0.000089 -0.000024 1.070396 -0.206336 0.813709
    5 3.281560 0.002120 -1.383388 0.099709 -0.198220 -1.489135
    6 1.324282 -0.000010 0.000004 0.000000 -0.046935 -1.565501
    7 0.819210 0.000000 0.000003 0.000001 -0.000003 -1.581169
    8 3.711854 0.109256 -0.568167 0.035575 -0.139373 -1.548439
    9 1.609408 0.000006 -0.000006 -0.000002 0.029021 -1.474473
    10 0.993191 -0.000006 0.000003 0.000504 0.020702 -1.569138
    11 3.786031 0.203223 0.243937 -0.024512 -0.110103 -1.301767
    12 1.684424 -0.000010 0.000009 0.000002 0.022197 -1.671944
    13 1.252151 -0.000006 0.000003 -0.011661 0.010042 -1.186651
    14 3.594223 0.299550 1.109803 -0.057101 -0.103964 -0.824212
    15 1.719435 0.000000 -0.000005 -0.000004 0.000021 -1.555001
    16 1.005925 -0.000006 0.000003 0.000005 0.000012 -0.837671
    17 0.298214 -0.634094 0.426700 -1.709413 -0.669736 -0.026689
    18 2.633559 0.000000 -0.000008 -0.000002 0.010785 0.560353
    19 1.308566 0.000001 -0.000002 -0.007093 0.145672 -0.397632
    20 2.033356 1.000772 -1.937610 -0.128177 0.172990 -2.038336
    21 6.028141 0.000000 -0.000002 -0.348969 0.863089 -1.723629
    22 11.692556 0.000000 -0.000002 0.024135 -0.036325 -1.169354
    23 11.481703 -0.000001 -0.000005 -0.972630 -0.335328 0.675816
    24 2.914335 -0.023166 1.400148 -0.005263 -0.206929 -1.324872
    25 1.284180 -0.000004 0.000001 0.000007 0.149810 -0.524417
    26 0.842285 0.000006 -0.000003 -0.072546 0.052861 -1.162485
    27 3.368063 0.007377 0.618550 0.028697 -0.175678 -1.457868
    28 1.610352 0.000000 -0.000001 -0.000008 0.158685 -0.726008
    29 1.020534 -0.000004 -0.000002 0.015301 -0.014044 -1.343778
    30 3.551622 0.023917 -0.200566 -0.009120 -0.241475 -1.194131
    31 1.668799 0.000002 0.000006 0.000002 0.186670 -0.954616
    32 1.240434 0.000002 0.000006 0.000002 -0.000011 -1.431094
    33 3.445761 0.054213 -1.089087 0.050378 -0.036667 -0.392337
    34 1.711616 0.000008 0.000011 0.000003 -0.026050 -0.688976
    35 1.002005 0.000000 0.000006 0.005613 -0.013536 -0.593093
    36 0.075534 -0.738749 -0.759723 1.210212 0.533398 -0.558222
    37 2.512460 -0.000008 -0.000004 -0.000002 -0.000001 0.359159
    38 1.156220 0.667987 -0.000008 -0.082330 -0.117571 1.427043
    39 -6.728843 -12.651251 -18.199960 0.693670 -0.074453 -3.033573
    40 0.028150 2.046865 -7.394535 -0.000007 0.000000 0.000000
    41 0.028148 5.078109 -12.500008 -0.000007 0.000000 0.000000
    42 0.028150 1.326164 -6.433592 -0.000007 0.000000 0.000000
    43 0.025025 1.444311 -3.791368 -0.000007 0.000000 0.000000
    44 5.028150 2.046713 -7.394381 -0.000007 0.000000 -0.000003
  time 2
    0 1.000000 0.335938 -9.140625 -1.570760 -1.391893 -1.570827
    1 2.033348 1.000767 1.937660 3.099206 -0.162014 1.679995
    2 6.028145 0.000003 0.000002 -2.229428 -0.047884 -0.637945
    3 11.692553 0.000081 -0.000005 0.048211 0.244474 -0.945042
    4 11.481672 -0.000089 -0.000024 1.070396 -0.251269 0.817185
    5 3.281560 0.002120 -1.379481 0.099865 -0.198520 -1.489100
    6 1.324282 -0.000010 0.000004 0.000000 -0.046935 -1.567244
    7 0.819210 0.000000 0.000003 0.000001 -0.000003 -1.583170
    8 3.711854 0.109256 -0.568167 0.035767 -0.139662 -1.548368
    9 1.609408 0.000006 -0.000006 -0.000002 0.029056 -1.476413
    10 0.993191 -0.000006 0.000003 0.000480 0.020738 -1.571206
    11 3.786031 0.203223 0.243937 -0.024404 -0.110427 -1.301696
    12 1.684424 -0.000010 0.000009 0.000002 0.022209 -1.673764
    13 1.252151 -0.000006 0.000003 -0.011697 0.010054 -1.187910
    14 3.594223 0.299550 1.113710 -0.057142 -0.104299 -0.824138
    15 1.719435 0.000000 -0.000005 -0.000004 0.000021 -1.555738
    16 1.005925 -0.000006 0.000003 0.000005 0.000012 -0.838389
    17 0.298214 -0.630188 0.430606 -1.709701 -0.669414 -0.026491
    18 2.633559 0.000000 -0.000008 -0.000002 0.010725 0.561065
    19 1.308566 0.000001 -0.000002 -0.007213 0.145935 -0.399070
    20 2.033356 1.000772 -1.937610 -0.128177 0.172990 -2.038336
    21 6.028141 0.000000 -0.000002 -0.371579 0.874122 -1.766766
    22 11.692556 0.000000 -0.000002 0.025537 -0.036901 -1.207644
    23 11.481703 -0.000001 -0.000005 -0.968241 -0.296311 0.657196
    24 2.914335 -0.023166 1.400148 -0.005249 -0.206929 -1.324872
    25 1.284180 -0.000004 0.000001 0.000007 0.149810 -0.524417
    26 0.842285 0.000006 -0.000003 -0.072546 0.052861 -1.162485
    27 3.368063 0.007377 0.618550 0.028697 -0.175678 -1.457848
    28 1.610352 0.000000 -0.000001 -0.000008 0.158685 -0.726008
    29 1.020534 -0.000004 -0.000002 0.015301 -0.014044 -1.343747
    30 3.551622 0.023917 -0.204473 -0.009120 -0.241475 -1.194131
    31 1.668799 0.000002 0.000006 0.000002 0.186682 -0.954616
    32 1.240434 0.000002 0.000006 0.000002 -0.000011 -1.431168
    33 3.449668 0.054213 -1.089087 0.052272 -0.036693 -0.368482
    34 1.711616 0.000008 0.000011 0.000003 -0.026601 -0.665827
    35 1.002005 0.000000 0.000006 0.005121 -0.012721 -0.573484
    36 0.075534 -0.738749 -0.759723 1.210212 0.533398 -0.558222
    37 2.512460 -0.000008 -0.000004 -0.000002 -0.000001 0.359159
    38 1.156220 0.667987 -0.000008 -0.082330 -0.117571 1.427043
    39 -6.357738 -12.901259 -17.293683 0.783509 -0.105218 -3.014641
    40 0.028150 2.046865 -7.394535 -0.000007 0.000000 0.000000
    41 0.028148 5.078109 -12.500008 -0.000007 0.000000 0.000000
    42 0.028150 1.326164 -6.433592 -0.000007 0.000000 0.000000
    43 0.025025 1.444311 -3.791368 -0.000007 0.000000 0.000000
    44 5.028150 2.046713 -7.394381 -0.000007 0.000000 -0.000003
  time 3
    0 1.000000 0.335938 -9.140625 -1.570760 -1.391893 -1.570827
    1 2.033348 1.000767 1.937660 3.099206 -0.162014 1.679995
    2 6.028145 0.000003 0.000002 -2.287606 0.008302 -0.610659
    3 11.692553 0.000081 -0.000005 0.016692 0.263733 -1.070292
    4 11.481672 -0.000089 -0.000024 1.069147 -0.286468 0.820376
    5 3.281560 0.002120 -1.379481 0.099709 -0.198220 -1.489135
    6 1.324282 -0.000010 0.000004 0.000000 -0.046923 -1.572014
    7 0.819210 0.000000 0.000003 0.000001 -0.000003 -1.588477
    8 3.711854 0.109256 -0.568167 0.035575 -0.139373 -1.548439
    9 1.609408 0.000006 -0.000006 -0.000002 0.029159 -1.481704
    10 0.993191 -0.000006 0.000003 0.000432 0.020822 -1.576882
    11 3.786031 0.203223 0.243937 -0.024524 -0.110103 -1.301767
    12 1.684424 -0.000010 0.000009 0.000002 0.022233 -1.678737
    13 1.252151 -0.000006 0.000003 -0.011769 0.010090 -1.191202
    14 3.594223 0.299550 1.113710 -0.057101 -0.103964 -0.824212
    15 1.719435 0.000000 -0.000005 -0.000004 0.000021 -1.557675
    16 1.005925 -0.000006 0.000003 0.000005 0.000012 -0.840432
    17 0.298214 -0.634094 0.430606 -1.709160 -0.667870 -0.026986
    18 2.633559 0.000000 -0.000008 -0.000002 0.010545 0.562955
    19 1.308566 0.000001 -0.000002 -0.007524 0.146714 -0.403081
    20 2.033356 1.000772 -1.937610 -0.128177 0.172990 -2.038336
    21 6.028141 0.000000 -0.000002 -0.395053 0.884798 -1.811890
    22 11.692556 0.000000 -0.000002 0.027023 -0.037428 -1.247774
    23 11.481703 -0.000001 -0.000005 -0.964906 -0.256093 0.638645
    24 2.914335 -0.023166 1.400148 -0.005263 -0.206929 -1.324872
    25 1.284180 -0.000004 0.000001 0.000007 0.149810 -0.524417
    26 0.842285 0.000006 -0.000003 -0.072546 0.052861 -1.162485
    27 3.368063 0.007377 0.618550 0.028697 -0.175678 -1.457848
    28 1.610352 0.000000 -0.000001 -0.000008 0.158685 -0.726008
    29 1.020534 -0.000004 -0.000002 0.015301 -0.014044 -1.343778
    30 3.551622 0.023917 -0.200566 -0.009120 -0.241475 -1.194131
    31 1.668799 0.000002 0.000006 0.000002 0.186670 -0.954616
    32 1.240434 0.000002 0.000006 0.000002 -0.000011 -1.431094
    33 3.449668 0.054213 -1.089087 0.054098 -0.036693 -0.345190
    34 1.711616 0.000008 0.000011 0.000003 -0.026817 -0.639278
    35 1.002005 0.000000 0.000006 0.004630 -0.011834 -0.552234
    36 0.075534 -0.738749 -0.759723 1.210212 0.533398 -0.558222
    37 2.512460 -0.000008 -0.000004 -0.000002 -0.000001 0.359159
    38 1.156220 0.667987 -0.000008 -0.082342 -0.117571 1.427043
    39 -5.963195 -13.092671 -16.348341 0.876503 -0.137354 -2.997957
    40 0.028150 2.046865 -7.394535 -0.000007 0.000000 0.000000
    41 0.028148 5.078109 -12.500008 -0.000007 0.000000 0.000000
    42 0.028150 1.326164 -6.433592 -0.000007 0.000000 0.000000
    43 0.025025 1.444311 -3.791368 -0.000007 0.000000 0.000000
    44 5.028150 2.046713 -7.394381 -0.000007 0.000000 -0.000003
  time 4
    0 1.000000 0.335938 -9.140625 -1.570760 -1.391893 -1.570827
    1 2.033348 1.000767 1.937660 3.099206 -0.162014 1.679995
    2 6.028145 0.000003 0.000002 -2.353859 0.054062 -0.579400
    3 11.692553 0.000081 -0.000005 -0.014444 0.277947 -1.186604
    4 11.481672 -0.000089 -0.000024 1.067540 -0.311716 0.825472
    5 3.285467 0.002120 -1.383388 0.099969 -0.198364 -1.489343
    6 1.324282 -0.000010 0.000004 0.000000 -0.046923 -1.579214
    7 0.819210 0.000000 0.000003 0.000001 -0.000003 -1.596569
    8 3.711854 0.105349 -0.568167 0.035851 -0.139494 -1.548652
    9 1.609408 0.000006 -0.000006 -0.000002 0.029296 -1.489698
    10 0.993191 -0.000006 0.000003 0.000348 0.020942 -1.585378
    11 3.786031 0.203223 0.243937 -0.024284 -0.110295 -1.301980
    12 1.684424 -0.000010 0.000009 0.000002 0.022280 -1.686285
    13 1.252151 -0.000006 0.000003 -0.011889 0.010138 -1.196159
    14 3.594223 0.299550 1.113710 -0.056976 -0.104222 -0.824412
    15 1.719435 0.000000 -0.000005 -0.000004 0.000021 -1.560625
    16 1.005925 -0.000006 0.000003 0.000005 0.000012 -0.843383
    17 0.298214 -0.634094 0.430606 -1.708979 -0.666068 -0.027448
    18 2.633559 0.000000 -0.000008 -0.000002 0.010318 0.565802
    19 1.308566 0.000001 -0.000002 -0.008052 0.147889 -0.409084
    20 2.033356 1.000772 -1.937610 -0.128177 0.172990 -2.038336
    21 6.028141 0.000000 -0.000002 -0.419103 0.894822 -1.857865
    22 11.692556 0.000000 -0.000002 0.028593 -0.037907 -1.289285
    23 11.481703 -0.000001 -0.000005 -0.962683 -0.214930 0.620229
    24 2.914335 -0.023166 1.400148 -0.005249 -0.206929 -1.324872
    25 1.284180 -0.000004 0.000001 0.000007 0.149810 -0.524417
    26 0.842285 0.000006 -0.000003 -0.072546 0.052861 -1.162485
    27 3.368063 0.007377 0.622456 0.028697 -0.175678 -1.457848
    28 1.610352 0.000000 -0.000001 -0.000008 0.158685 -0.726008
    29 1.020534 -0.000004 -0.000002 0.015301 -0.014044 -1.343747
    30 3.551622 0.023917 -0.200566 -0.009120 -0.241475 -1.194131
    31 1.668799 0.000002 0.000006 0.000002 0.186670 -0.954616
    32 1.240434 0.000002 0.000006 0.000002 -0.000011 -1.431094
    33 3.449668 0.054213 -1.085181 0.055856 -0.036693 -0.322407
    34 1.711616 0.000008 0.000011 0.000003 -0.026721 -0.609835
    35 1.005912 0.000000 0.000006 0.004115 -0.010863 -0.529620
    36 0.075534 -0.738749 -0.759723 1.210212 0.533398 -0.558222
    37 2.512460 -0.000008 -0.000004 -0.000002 -0.000001 0.359159
    38 1.156220 0.667987 -0.000008 -0.082330 -0.117571 1.427043
    39 -5.549120 -13.217675 -15.395187 0.971671 -0.170206 -2.984175
    40 0.028150 2.046865 -7.394535 -0.000007 0.000000 0.000000
    41 0.028148 5.078109 -12.500008 -0.000007 0.000000 0.000000
    42 0.028150 1.326164 -6.433592 -0.000007 0.000000 0.000000
    43 0.025025 1.444311 -3.791368 -0.000007 0.000000 0.000000
    44 5.028150 2.046713 -7.394381 -0.000007 0.000000 -0.000003
  time 5
    0 1.000000 0.335938 -9.140625 -1.570760 -1.391893 -1.570827
    1 2.033348 1.000767 1.937660 3.099206 -0.162014 1.679995
    2 6.028145 0.000003 0.000002 -2.431430 0.091403 -0.541743
    3 11.692553 0.000081 -0.000005 -0.044454 0.287858 -1.293981
    4 11.481672 -0.000089 -0.000024 1.067808 -0.323388 0.832520
    5 3.281560 0.006026 -1.383388 0.099206 -0.197945 -1.488614
    6 1.324282 -0.000010 0.000004 0.000000 -0.046923 -1.588111
    7 0.819210 0.000000 0.000003 0.000001 -0.000003 -1.606618
    8 3.707947 0.109256 -0.568167 0.035060 -0.139115 -1.547943
    9 1.609408 0.000006 -0.000006 -0.000002 0.029485 -1.499632
    10 0.993191 -0.000006 0.000003 0.000241 0.021098 -1.595904
    11 3.786031 0.203223 0.247844 -0.024955 -0.109744 -1.301304
    12 1.684424 -0.000010 0.000009 0.000002 0.022340 -1.695565
    13 1.252151 -0.000006 0.000003 -0.012021 0.010186 -1.202376
    14 3.590316 0.299550 1.109803 -0.057323 -0.103434 -0.823789
    15 1.719435 0.000000 -0.000005 -0.000004 0.000021 -1.564360
    16 1.005925 -0.000006 0.000003 0.000005 0.000012 -0.847090
    17 0.294307 -0.634094 0.430606 -1.708221 -0.662743 -0.027580
    18 2.633559 0.000000 -0.000008 -0.000002 0.010006 0.569383
    19 1.308566 0.000001 -0.000002 -0.008687 0.149339 -0.416525
    20 2.033356 1.000772 -1.937610 -0.128177 0.172990 -2.038336
    21 6.028141 0.000000 -0.000002 -0.442937 0.904391 -1.904124
    22 11.692556 0.000000 -0.000002 0.030235 -0.038351 -1.332347
    23 11.481703 -0.000001 -0.000005 -0.961629 -0.173665 0.602732
    24 2.914335 -0.023166 1.400148 -0.005249 -0.206929 -1.324872
    25 1.284180 -0.000004 0.000001 0.000007 0.149810 -0.524417
    26 0.842285 0.000006 -0.000003 -0.072546 0.052861 -1.162485
    27 3.368063 0.007377 0.622456 0.028697 -0.175678 -1.457848
    28 1.610352 0.000000 -0.000001 -0.000008 0.158685 -0.726008
    29 1.020534 -0.000004 -0.000002 0.015301 -0.014044 -1.343747
    30 3.551622 0.023917 -0.200566 -0.009120 -0.241475 -1.194131
    31 1.668799 0.000002 0.000006 0.000002 0.186670 -0.954616
    32 1.240434 0.000002 0.000006 0.000002 -0.000011 -1.431094
    33 3.449668 0.054213 -1.089087 0.057546 -0.036680 -0.299991
    34 1.715523 0.000008 0.000011 0.000003 -0.026338 -0.578222
    35 1.002005 0.000000 0.000006 0.003575 -0.009845 -0.505919
    36 0.075534 -0.738749 -0.759723 1.210212 0.533398 -0.558222
    37 2.512460 -0.000008 -0.000004 -0.000002 -0.000001 0.359159
    38 1.156220 0.667987 -0.000008 -0.082330 -0.117571 1.427043
    39 -5.123326 -13.260645 -14.438127 1.068065 -0.203057 -2.973730
    40 0.028150 2.046865 -7.394535 -0.000007 0.000000 0.000000
    41 0.028148 5.078109 -12.500008 -0.000007 0.000000 0.000000
    42 0.028150 1.326164 -6.433592 -0.000007 0.000000 0.000000
    43 0.025025 1.444311 -3.791368 -0.000007 0.000000 0.000000
    44 5.028150 2.046713 -7.394381 -0.000007 0.000000 -0.000003
  time 6
    0 1.000000 0.335938 -9.140625 -1.570760 -1.391893 -1.570827
    1 2.033348 1.000767 1.937660 3.099206 -0.162014 1.679995
    2 6.028145 0.000003 0.000002 -2.516149 0.117751 -0.498349
    3 11.692553 0.000081 -0.000005 -0.071467 0.293874 -1.388129
    4 11.481672 -0.000089 -0.000024 1.067986 -0.326059 0.845141
    5 3.281560 0.002120 -1.379481 0.099709 -0.198220 -1.489135
    6 1.324282 -0.000010 0.000004 0.000000 -0.046911 -1.598155
    7 0.819210 0.000000 0.000003 0.000001 -0.000003 -1.617798
    8 3.711854 0.109256 -0.568167 0.035587 -0.139373 -1.548439
    9 1.609408 0.000006 -0.000006 -0.000002 0.029708 -1.510742
    10 0.993191 -0.000006 0.000003 0.000121 0.021266 -1.607745
    11 3.786031 0.203223 0.243937 -0.024512 -0.110103 -1.301767
    12 1.684424 -0.000010 0.000009 0.000002 0.022388 -1.706088
    13 1.252151 -0.000006 0.000003 -0.012152 0.010246 -1.209324
    14 3.594223 0.299550 1.109803 -0.057101 -0.103964 -0.824212
    15 1.719435 0.000000 -0.000005 -0.000004 0.000021 -1.568417
    16 1.005925 -0.000006 0.000003 0.000005 0.000012 -0.851251
    17 0.298214 -0.634094 0.426700 -1.708077 -0.660405 -0.028306
    18 2.633559 0.000000 -0.000008 -0.000002 0.009671 0.573364
    19 1.308566 0.000001 -0.000002 -0.009418 0.150945 -0.424900
    20 2.033356 1.000772 -1.937610 -0.128177 0.172990 -2.038336
    21 6.028141 0.000000 -0.000002 -0.466267 0.913211 -1.949758
    22 11.692556 0.000000 -0.000002 0.031925 -0.038710 -1.376157
    23 11.481703 -0.000001 -0.000005 -0.961629 -0.132528 0.586018
    24 2.914335 -0.023166 1.400148 -0.005249 -0.206929 -1.324872
    25 1.284180 -0.000004 0.000001 0.000007 0.149810 -0.524417
    26 0.842285 0.000006 -0.000003 -0.072546 0.052861 -1.162485
    27 3.368063 0.007377 0.622456 0.028697 -0.175678 -1.457848
    28 1.610352 0.000000 -0.000001 -0.000008 0.158685 -0.726008
    29 1.020534 -0.000004 -0.000002 0.015301 -0.014044 -1.343778
    30 3.551622 0.023917 -0.204473 -0.009120 -0.241475 -1.194131
    31 1.668799 0.000002 0.000006 0.000002 0.186670 -0.954616
    32 1.240434 0.000002 0.000006 0.000002 -0.000011 -1.431094
    33 3.449668 0.054213 -1.089087 0.059209 -0.036642 -0.277886
    34 1.711616 0.000008 0.000011 0.000003 -0.025666 -0.544800
    35 1.002005 0.000000 0.000006 0.003072 -0.008778 -0.481386
    36 0.075534 -0.738749 -0.759723 1.210212 0.533398 -0.558222
    37 2.512460 -0.000008 -0.000004 -0.000002 -0.000001 0.359159
    38 1.156220 0.667987 -0.000008 -0.082330 -0.117571 1.427043
    39 -4.697531 -13.233300 -13.504505 1.164489 -0.235100 -2.966767
    40 0.028150 2.046865 -7.394535 -0.000007 0.000000 0.000000
    41 0.028148 5.078109 -12.500008 -0.000007 0.000000 0.000000
    42 0.028150 1.326164 -6.433592 -0.000007 0.000000 0.000000
    43 0.025025 1.444311 -3.791368 -0.000007 0.000000 0.000000
    44 5.028150 2.046713 -7.394381 -0.000007 0.000000 -0.000003
  time 7
    0 1.000000 0.335938 -9.140625 -1.570760 -1.391893 -1.570827
    1 2.033348 1.000767 1.937660 3.099206 -0.162014 1.679995
    2 6.028145 0.000003 0.000002 -2.595309 0.134721 -0.457897
    3 11.692553 0.000081 -0.000005 -0.096083 0.297218 -1.472637
    4 11.481672 -0.000089 -0.000024 1.062094 -0.333597 0.859952
    5 3.281560 0.002120 -1.379481 0.099709 -0.198220 -1.489135
    6 1.324282 -0.000010 0.000004 0.000000 -0.046899 -1.608612
    7 0.819210 0.000000 0.000003 0.000001 -0.000003 -1.629500
    8 3.711854 0.109256 -0.568167 0.035575 -0.139373 -1.548439
    9 1.609408 0.000006 -0.000006 -0.000002 0.029914 -1.522323
    10 0.993191 -0.000006 0.000003 0.000001 0.021421 -1.620151
    11 3.786031 0.203223 0.247844 -0.024512 -0.110103 -1.301767
    12 1.684424 -0.000010 0.000009 0.000002 0.022448 -1.716966
    13 1.252151 -0.000006 0.000003 -0.012320 0.010306 -1.216557
    14 3.594223 0.299550 1.113710 -0.057101 -0.103964 -0.824212
    15 1.719435 0.000000 -0.000005 -0.000004 0.000021 -1.572705
    16 1.005925 -0.000006 0.000003 0.000005 0.000012 -0.855601
    17 0.298214 -0.634094 0.430606 -1.707644 -0.657402 -0.028801
    18 2.637466 0.000000 -0.000008 -0.000002 0.009311 0.577523
    19 1.308566 0.000001 -0.000002 -0.010185 0.152623 -0.433653
    20 2.033356 1.000772 -1.937610 -0.128177 0.172990 -2.038336
    21 6.028141 0.000000 -0.000002 -0.488733 0.921055 -1.994088
    22 11.692556 0.000000 -0.000002 0.033627 -0.039022 -1.420024
    23 11.481703 -0.000001 -0.000005 -0.962566 -0.091748 0.570394
    24 2.914335 -0.023166 1.400148 -0.005249 -0.206929 -1.324872
    25 1.284180 -0.000004 0.000001 0.000007 0.149810 -0.524417
    26 0.842285 0.000006 -0.000003 -0.072546 0.052861 -1.162485
    27 3.368063 0.007377 0.622456 0.028697 -0.175678 -1.457848
    28 1.610352 0.000000 -0.000001 -0.000008 0.158685 -0.726008
    29 1.020534 -0.000004 -0.000002 0.015301 -0.014044 -1.343747
    30 3.551622 0.023917 -0.200566 -0.009120 -0.241475 -1.194131
    31 1.668799 0.000002 0.000006 0.000002 0.186670 -0.954616
    32 1.240434 0.000002 0.000006 0.000002 -0.000011 -1.431094
    33 3.449668 0.054213 -1.089087 0.060803 -0.036592 -0.255978
    34 1.711616 0.000008 0.000011 0.000003 -0.024756 -0.510294
    35 1.002005 0.000000 0.000006 0.002581 -0.007675 -0.456300
    36 0.075534 -0.738749 -0.759723 1.210212 0.533398 -0.558222
    37 2.512460 -0.000008 -0.000004 -0.000002 -0.000001 0.359159
    38 1.156220 0.667987 -0.000008 -0.082342 -0.117583 1.427043
    39 -4.275644 -13.127828 -12.609946 1.259994 -0.265647 -2.963212
    40 0.028150 2.046865 -7.394535 -0.000007 0.000000 0.000000
    41 0.028148 5.078109 -12.500008 -0.000007 0.000000 0.000000
    42 0.028150 1.326164 -6.433592 -0.000007 0.000000 0.000000
    43 0.025025 1.444311 -3.791368 -0.000007 0.000000 0.000000
    44 5.028150 2.046713 -7.394381 -0.000007 0.000000 -0.000003
  time 8
    0 1.000000 0.335938 -9.140625 -1.570760 -1.391893 -1.570827
    1 2.033348 1.000767 1.937660 3.099206 -0.162014 1.679995
    2 6.028145 0.000003 0.000002 -2.660304 0.146673 -0.429654
    3 11.692553 0.000081 -0.000005 -0.122761 0.298548 -1.563407
    4 11.481672 -0.000089 -0.000024 1.047722 -0.357270 0.883287
    5 3.281560 0.006026 -1.379481 0.099466 -0.198076 -1.488892
    6 1.324282 -0.000010 0.000004 0.000000 -0.046875 -1.618839
    7 0.819210 0.000000 0.000003 0.000001 -0.000003 -1.641028
    8 3.711854 0.109256 -0.568167 0.035323 -0.139236 -1.548226
    9 1.609408 0.000006 -0.000006 -0.000002 0.030102 -1.533668
    10 0.993191 -0.000006 0.000003 -0.000119 0.021589 -1.632218
    11 3.786031 0.203223 0.247844 -0.024740 -0.109912 -1.301518
    12 1.684424 -0.000010 0.000009 0.000002 0.022508 -1.727622
    13 1.252151 -0.000006 0.000003 -0.012488 0.010366 -1.223668
    14 3.594223 0.299550 1.113710 -0.057198 -0.103680 -0.824013
    15 1.719435 0.000000 -0.000005 -0.000004 0.000021 -1.576900
    16 1.005925 -0.000006 0.000003 0.000005 0.000012 -0.859876
    17 0.298214 -0.634094 0.430606 -1.707102 -0.654207 -0.029197
    18 2.633559 0.000000 -0.000008 -0.000002 0.008952 0.581593
    19 1.308566 0.000001 -0.000002 -0.010964 0.154253 -0.442153
    20 2.033356 1.000772 -1.937610 -0.128177 0.172990 -2.038336
    21 6.028141 0.000000 -0.000002 -0.509759 0.928085 -2.036203
    22 11.692556 0.000000 -0.000002 0.035317 -0.039238 -1.463087
    23 11.481703 -0.000001 -0.000005 -0.964555 -0.051939 0.555552
    24 2.914335 -0.023166 1.400148 -0.005249 -0.206929 -1.324872
    25 1.284180 -0.000004 0.000001 0.000007 0.149810 -0.524417
    26 0.842285 0.000006 -0.000003 -0.072546 0.052861 -1.162485
    27 3.368063 0.007377 0.622456 0.028697 -0.175678 -1.457848
    28 1.610352 0.000000 -0.000001 -0.000008 0.158685 -0.726008
    29 1.020534 -0.000004 -0.000002 0.015301 -0.014044 -1.343778
    30 3.551622 0.023917 -0.200566 -0.009120 -0.241475 -1.194131
    31 1.668799 0.000002 0.000006 0.000002 0.186670 -0.954616
    32 1.240434 0.000002 0.000006 0.000002 -0.000011 -1.431094
    33 3.449668 0.054213 -1.089087 0.062371 -0.036529 -0.234183
    34 1.711616 0.000008 0.000011 0.000003 -0.023629 -0.475172
    35 1.005912 0.000000 0.000006 0.002101 -0.006549 -0.430936
    36 0.075534 -0.738749 -0.759723 1.210212 0.533398 -0.558222
    37 2.512460 -0.000008 -0.000004 -0.000002 -0.000001 0.359159
    38 1.156220 0.667987 -0.000008 -0.082330 -0.117571 1.427043
    39 -3.873288 -12.963761 -11.773983 1.353355 -0.294077 -2.962995
    40 0.028150 2.046865 -7.394535 -0.000007 0.000000 0.000000
    41 0.028148 5.078109 -12.500008 -0.000007 0.000000 0.000000
    42 0.028150 1.326164 -6.433592 -0.000007 0.000000 0.000000
    43 0.025025 1.444311 -3.791368 -0.000007 0.000000 0.000000
    44 5.028150 2.046713 -7.394381 -0.000007 0.000000 -0.000003
  time 9
    0 1.000000 0.335938 -9.140625 -1.570760 -1.391893 -1.570827
    1 2.033348 1.000767 1.937660 3.099206 -0.162014 1.679995
    2 6.028145 0.000003 0.000002 -2.722454 0.153740 -0.402956
    3 11.692553 0.000081 -0.000005 -0.147833 0.297697 -1.648759
    4 11.481672 -0.000089 -0.000024 1.034421 -0.383725 0.911433
    5 3.281560 0.002120 -1.379481 0.099709 -0.198220 -1.489135
    6 1.324282 -0.000010 0.000004 0.000000 -0.046851 -1.628149
    7 0.819210 0.000000 0.000003 0.000001 -0.000003 -1.651469
    8 3.711854 0.109256 -0.568167 0.035575 -0.139373 -1.548439
    9 1.609408 0.000006 -0.000006 -0.000002 0.030291 -1.544072
    10 0.993191 -0.000006 0.000003 -0.000239 0.021733 -1.643270
    11 3.786031 0.203223 0.243937 -0.024512 -0.110103 -1.301767
    12 1.684424 -0.000010 0.000009 0.000002 0.022556 -1.737390
    13 1.252151 -0.000006 0.000003 -0.012656 0.010414 -1.230129
    14 3.594223 0.299550 1.109803 -0.057101 -0.103964 -0.824212
    15 1.719435 0.000000 -0.000005 -0.000004 0.000021 -1.580773
    16 1.005925 -0.000006 0.000003 0.000005 0.000012 -0.863772
    17 0.298214 -0.634094 0.430606 -1.706849 -0.651804 -0.029758
    18 2.633559 0.000000 -0.000008 -0.000002 0.008640 0.585307
    19 1.308566 0.000001 -0.000002 -0.011683 0.155739 -0.449998
    20 2.033356 1.000772 -1.937610 -0.128177 0.172990 -2.038336
    21 6.028141 0.000000 -0.000002 -0.529273 0.934041 -2.075537
    22 11.692556 0.000000 -0.000002 0.036935 -0.039369 -1.504482
    23 11.481703 -0.000001 -0.000005 -0.967305 -0.013355 0.541664
    24 2.914335 -0.023166 1.400148 -0.005263 -0.206929 -1.324872
    25 1.284180 -0.000004 0.000001 0.000007 0.149810 -0.524417
    26 0.842285 0.000006 -0.000003 -0.072546 0.052861 -1.162485
    27 3.368063 0.007377 0.618550 0.028697 -0.175678 -1.457848
    28 1.610352 0.000000 -0.000001 -0.000008 0.158685 -0.726008
    29 1.024440 -0.000004 -0.000002 0.015301 -0.014044 -1.343747
    30 3.551622 0.023917 -0.200566 -0.009120 -0.241475 -1.194131
    31 1.668799 0.000002 0.000006 0.000002 0.186670 -0.954616
    32 1.240434 0.000002 0.000006 0.000002 -0.000011 -1.431094
    33 3.449668 0.054213 -1.089087 0.063910 -0.036454 -0.212360
    34 1.711616 0.000008 0.000011 0.000003 -0.022323 -0.440123
    35 1.002005 0.000000 0.000006 0.001670 -0.005410 -0.405594
    36 0.075534 -0.738749 -0.759723 1.210212 0.533398 -0.558222
    37 2.512460 -0.000008 -0.000004 -0.000002 -0.000001 0.359159
    38 1.156220 0.667987 -0.000008 -0.082330 -0.117571 1.427043
    39 -3.486557 -12.748910 -11.000522 1.443286 -0.319673 -2.965896
    40 0.028150 2.046865 -7.394535 -0.000007 0.000000 0.000000
    41 0.028148 5.078109 -12.500008 -0.000007 0.000000 0.000000
    42 0.028150 1.326164 -6.433592 -0.000007 0.000000 0.000000
    43 0.025025 1.444311 -3.791368 -0.000007 0.000000 0.000000
    44 5.028150 2.046713 -7.394381 -0.000007 0.000000 -0.000003
  time 10
    0 1.000000 0.335938 -9.140625 -1.570760 -1.391893 -1.570827
    1 2.033348 1.000767 1.937660 3.099206 -0.162014 1.679995
    2 6.028145 0.000003 0.000002 -2.788310 0.155223 -0.367873
    3 11.692553 0.000081 -0.000005 -0.165942 0.295816 -1.710610
    4 11.481672 -0.000089 -0.000024 1.027190 -0.403264 0.934959
    5 3.281560 0.002120 -1.379481 0.099726 -0.198220 -1.489135
    6 1.324282 -0.000010 0.000004 0.000000 -0.046827 -1.636037
    7 0.819210 0.000000 0.000003 0.000001 -0.000003 -1.660256
    8 3.711854 0.109256 -0.568167 0.035575 -0.139373 -1.548439
    9 1.609408 0.000006 -0.000006 -0.000002 0.030463 -1.552713
    10 0.993191 -0.000006 0.000003 -0.000347 0.021877 -1.652518
    11 3.786031 0.203223 0.243937 -0.024512 -0.110103 -1.301767
    12 1.684424 -0.000010 0.000009 0.000002 0.022592 -1.745560
    13 1.252151 -0.000006 0.000003 -0.012776 0.010462 -1.235614
    14 3.594223 0.299550 1.113710 -0.057101 -0.103964 -0.824212
    15 1.719435 0.000000 -0.000005 -0.000004 0.000021 -1.584001
    16 1.005925 -0.000006 0.000003 0.000005 0.000012 -0.867063
    17 0.298214 -0.634094 0.426700 -1.706524 -0.649552 -0.030122
    18 2.633559 0.000000 -0.000008 -0.000002 0.008352 0.588443
    19 1.308566 0.000001 -0.000002 -0.012282 0.156973 -0.456582
    20 2.033356 1.000772 -1.937610 -0.128177 0.172990 -2.038336
    21 6.028141 0.000000 -0.000002 -0.546338 0.939346 -2.111012
    22 11.692556 0.000000 -0.000002 0.038481 -0.039453 -1.543348
    23 11.481703 -0.000001 -0.000005 -0.970816 0.023466 0.529103
    24 2.914335 -0.023166 1.400148 -0.005724 -0.206701 -1.325241
    25 1.284180 -0.000004 0.000001 0.000007 0.149810 -0.524417
    26 0.842285 0.000006 -0.000003 -0.072546 0.052861 -1.162485
    27 3.368063 0.007377 0.622456 0.028218 -0.175510 -1.458264
    28 1.610352 0.000000 -0.000001 -0.000008 0.158685 -0.726008
    29 1.024440 -0.000004 -0.000002 0.015301 -0.014044 -1.343747
    30 3.555528 0.023917 -0.200566 -0.009527 -0.241188 -1.194520
    31 1.668799 0.000002 0.000006 0.000002 0.186670 -0.954616
    32 1.240434 0.000002 0.000006 0.000002 -0.000011 -1.431094
    33 3.453574 0.054213 -1.089087 0.065450 -0.035875 -0.190932
    34 1.711616 0.000008 0.000011 0.000003 -0.020897 -0.405616
    35 1.005912 0.000000 0.000006 0.001238 -0.004260 -0.380507
    36 0.079440 -0.734842 -0.759723 1.210033 0.533878 -0.558797
    37 2.512460 -0.000008 -0.000004 -0.000002 -0.000001 0.359159
    38 1.156220 0.667987 -0.000008 -0.082342 -0.117571 1.427043
    39 -3.146703 -12.502809 -10.324720 1.528469 -0.342093 -2.971336
    40 0.028150 2.046865 -7.394535 -0.000007 0.000000 0.000000
    41 0.028148 5.078109 -12.500008 -0.000007 0.000000 0.000000
    42 0.028150 1.326164 -6.433592 -0.000007 0.000000 0.000000
    43 0.025025 1.444311 -3.791368 -0.000007 0.000000 0.000000
    44 5.028150 2.046713 -7.394381 -0.000007 0.000000 -0.000003
  time 11
    0 1.000000 0.335938 -9.140625 -1.570760 -1.391893 -1.570827
    1 2.033348 1.000767 1.937660 3.099206 -0.162014 1.679995
    2 6.028145 0.000003 0.000002 -2.851849 0.154264 -0.330657
    3 11.692553 0.000081 -0.000005 -0.179688 0.293635 -1.757895
    4 11.481672 -0.000089 -0.000024 1.023352 -0.422840 0.957533
    5 3.281560 0.002120 -1.379481 0.099709 -0.198220 -1.489135
    6 1.324282 -0.000010 0.000004 0.000000 -0.046815 -1.641633
    7 0.819210 0.000000 0.000003 0.000001 -0.000003 -1.666564
    8 3.711854 0.109256 -0.568167 0.035575 -0.139373 -1.548439
    9 1.609408 0.000006 -0.000006 -0.000002 0.030566 -1.559003
    10 0.993191 -0.000006 0.000003 -0.000407 0.021961 -1.659247
    11 3.786031 0.203223 0.243937 -0.024512 -0.110103 -1.301767
    12 1.684424 -0.000010 0.000009 0.000002 0.022616 -1.751465
    13 1.252151 -0.000006 0.000003 -0.012835 0.010497 -1.239515
    14 3.594223 0.299550 1.109803 -0.057101 -0.103964 -0.824212
    15 1.719435 0.000000 -0.000005 -0.000004 0.000021 -1.586306
    16 1.005925 -0.000006 0.000003 0.000005 0.000012 -0.869371
    17 0.298214 -0.634094 0.426700 -1.706344 -0.647943 -0.030386
    18 2.633559 0.000000 -0.000008 -0.000002 0.008173 0.590689
    19 1.308566 0.000001 -0.000002 -0.012750 0.157884 -0.461324
    20 2.033356 1.000772 -1.937610 -0.128177 0.172990 -2.038336
    21 6.028141 0.000000 -0.000002 -0.561244 0.943643 -2.142230
    22 11.692556 0.000000 -0.000002 0.039835 -0.039453 -1.578016
    23 11.481703 -0.000001 -0.000005 -0.974561 0.058015 0.515283
    24 2.914335 -0.023166 1.400148 -0.005249 -0.206929 -1.324872
    25 1.284180 -0.000004 0.000001 0.000007 0.149810 -0.524417
    26 0.842285 0.000006 -0.000003 -0.072546 0.052861 -1.162485
    27 3.368063 0.007377 0.618550 0.028697 -0.175678 -1.457848
    28 1.610352 0.000000 -0.000001 -0.000008 0.158685 -0.726008
    29 1.020534 -0.000004 -0.000002 0.015301 -0.014044 -1.343747
    30 3.551622 0.023917 -0.204473 -0.009120 -0.241475 -1.194131
    31 1.668799 0.000002 0.000006 0.000002 0.186670 -0.954616
    32 1.240434 0.000002 0.000006 0.000002 -0.000011 -1.431094
    33 3.449668 0.054213 -1.089087 0.066909 -0.036265 -0.168375
    34 1.711616 0.000008 0.000011 0.000003 -0.019387 -0.372267
    35 1.005912 0.000000 0.000006 0.000879 -0.003169 -0.355975
    36 0.075534 -0.738749 -0.759723 1.210212 0.533398 -0.558222
    37 2.512460 -0.000008 -0.000004 -0.000002 -0.000001 0.359159
    38 1.156220 0.667987 -0.000008 -0.082342 -0.117571 1.427043
    39 -2.842006 -12.241082 -9.730952 1.607342 -0.360964 -2.978880
    40 0.028150 2.046865 -7.394535 -0.000007 0.000000 0.000000
    41 0.028148 5.078109 -12.500008 -0.000007 0.000000 0.000000
    42 0.028150 1.326164 -6.433592 -0.000007 0.000000 0.000000
    43 0.025025 1.444311 -3.791368 -0.000007 0.000000 0.000000
    44 5.028150 2.046713 -7.394381 -0.000007 0.000000 -0.000003
  time 12
    0 1.000000 0.335938 -9.140625 -1.570760 -1.391893 -1.570827
    1 2.033348 1.000767 1.937660 3.099206 -0.162014 1.679995
    2 6.028145 0.000003 0.000002 -2.912542 0.154351 -0.295280
    3 11.692553 0.000081 -0.000005 -0.191445 0.291262 -1.798707
    4 11.481672 -0.000089 -0.000024 1.022816 -0.443331 0.983821
    5 3.281560 0.002120 -1.379481 0.099726 -0.198220 -1.489135
    6 1.324282 -0.000010 0.000004 0.000000 -0.046803 -1.644476
    7 0.819210 0.000000 0.000003 0.000001 -0.000003 -1.669783
    8 3.711854 0.109256 -0.568167 0.035575 -0.139373 -1.548439
    9 1.609408 0.000006 -0.000006 -0.000002 0.030617 -1.562177
    10 0.993191 -0.000006 0.000003 -0.000443 0.022009 -1.662630
    11 3.786031 0.203223 0.247844 -0.024512 -0.110103 -1.301767
    12 1.684424 -0.000010 0.000009 0.000002 0.022628 -1.754396
    13 1.252151 -0.000006 0.000003 -0.012883 0.010509 -1.241466
    14 3.594223 0.299550 1.113710 -0.057101 -0.103964 -0.824212
    15 1.719435 0.000000 -0.000005 -0.000004 0.000021 -1.587459
    16 1.005925 -0.000006 0.000003 0.000005 0.000012 -0.870543
    17 0.298214 -0.634094 0.426700 -1.706199 -0.647150 -0.030551
    18 2.633559 0.000000 -0.000008 -0.000002 0.008077 0.591801
    19 1.308566 0.000001 -0.000002 -0.012953 0.158316 -0.463695
    20 2.033356 1.000772 -1.937610 -0.128177 0.172990 -2.038336
    21 6.028141 0.000000 -0.000002 -0.573413 0.943870 -2.164252
    22 11.692556 0.000000 -0.000002 0.040470 -0.039441 -1.593884
    23 11.481703 -0.000001 -0.000005 -0.978306 0.086283 0.504390
    24 2.914335 -0.023166 1.400148 -0.005249 -0.206929 -1.324872
    25 1.284180 -0.000004 0.000001 0.000007 0.149810 -0.524417
    26 0.842285 0.000006 -0.000003 -0.072546 0.052861 -1.162485
    27 3.368063 0.007377 0.618550 0.028697 -0.175678 -1.457848
    28 1.610352 0.000000 -0.000001 -0.000008 0.158685 -0.726008
    29 1.020534 -0.000004 -0.000002 0.015301 -0.014044 -1.343747
    30 3.551622 0.023917 -0.204473 -0.009120 -0.241475 -1.194131
    31 1.668799 0.000002 0.000006 0.000002 0.186670 -0.954616
    32 1.240434 0.000002 0.000006 0.000002 -0.000011 -1.431094
    33 3.449668 0.054213 -1.089087 0.068394 -0.036165 -0.145959
    34 1.711616 0.000008 0.000011 0.000003 -0.017853 -0.340690
    35 1.005912 0.000000 0.000006 0.000531 -0.002067 -0.332274
    36 0.075534 -0.738749 -0.759723 1.210212 0.533398 -0.558222
    37 2.512460 -0.000008 -0.000004 -0.000002 -0.000001 0.359159
    38 1.156220 0.667987 -0.000008 -0.082330 -0.117571 1.427043
    39 -2.658407 -12.116079 -9.395004 1.661374 -0.372049 -2.989833
    40 0.028150 2.046865 -7.394535 -0.000007 0.000000 0.000000
    41 0.028148 5.078109 -12.500008 -0.000007 0.000000 0.000000
    42 0.028150 1.326164 -6.433592 -0.000007 0.000000 0.000000
    43 0.025025 1.444311 -3.791368 -0.000007 0.000000 0.000000
    44 5.028150 2.046713 -7.394381 -0.000007 0.000000 -0.000003
  time 13
    0 1.000000 0.335938 -9.140625 -1.570760 -1.391893 -1.570827
    1 2.033348 1.000767 1.937660 3.099206 -0.162014 1.679995
    2 6.028145 0.000003 0.000002 -2.943716 0.152606 -0.268141
    3 11.692553 0.000081 -0.000005 -0.189791 0.291621 -1.793007
    4 11.481672 -0.000089 -0.000024 1.051561 -0.467919 1.028731
    5 3.285467 0.002120 -1.379481 0.100177 -0.198472 -1.489517
    6 1.324282 -0.000010 0.000004 0.000000 -0.046803 -1.643834
    7 0.819210 0.000000 0.000003 0.000001 -0.000003 -1.669000
    8 3.715760 0.105349 -0.568167 0.036043 -0.139601 -1.548793
    9 1.609408 0.000006 -0.000006 -0.000002 0.030617 -1.561472
    10 0.993191 -0.000006 0.000003 -0.000431 0.021997 -1.661803
    11 3.789937 0.203223 0.243937 -0.024141 -0.110439 -1.302087
    12 1.684424 -0.000010 0.000009 0.000002 0.022628 -1.753774
    13 1.252151 -0.000006 0.000003 -0.012871 0.010509 -1.241019
    14 3.594223 0.299550 1.109803 -0.056892 -0.104428 -0.824536
    15 1.719435 0.000000 -0.000005 -0.000004 0.000021 -1.587182
    16 1.005925 -0.000006 0.000003 0.000005 0.000012 -0.870279
    17 0.302120 -0.634094 0.426700 -1.706488 -0.647793 -0.030683
    18 2.633559 0.000000 -0.000008 -0.000002 0.008101 0.591557
    19 1.308566 0.000001 -0.000002 -0.012906 0.158220 -0.463140
    20 2.033356 1.000772 -1.937610 -0.128177 0.172990 -2.038336
    21 6.028141 0.000000 -0.000002 -0.580109 0.940388 -2.172199
    22 11.692556 0.000000 -0.000002 0.040218 -0.039453 -1.587560
    23 11.481703 -0.000001 -0.000005 -0.980822 0.107171 0.495233
    24 2.910429 -0.023166 1.400148 -0.005263 -0.206929 -1.324872
    25 1.284180 -0.000004 0.000001 0.000007 0.149810 -0.524417
    26 0.842285 0.000006 -0.000003 -0.072546 0.052861 -1.162485
    27 3.368063 0.007377 0.618550 0.028697 -0.175678 -1.457848
    28 1.610352 0.000000 -0.000001 -0.000008 0.158685 -0.726008
    29 1.024440 -0.000004 -0.000002 0.015301 -0.014044 -1.343747
    30 3.551622 0.023917 -0.200566 -0.009120 -0.241475 -1.194131
    31 1.668799 0.000002 0.000006 0.000002 0.186670 -0.954616
    32 1.240434 0.000002 0.000006 0.000002 -0.000011 -1.431168
    33 3.449668 0.054213 -1.089087 0.069866 -0.036039 -0.123176
    34 1.711616 0.000008 0.000011 0.000003 -0.016342 -0.311356
    35 1.005912 0.000000 0.000006 0.000244 -0.001024 -0.309681
    36 0.075534 -0.738749 -0.759723 1.210212 0.533398 -0.558222
    37 2.512460 -0.000008 -0.000004 -0.000002 -0.000001 0.359159
    38 1.156220 0.667987 -0.000008 -0.082342 -0.117571 1.427043
    39 -2.631062 -12.174674 -9.363753 1.684653 -0.374322 -3.003615
    40 0.028150 2.046865 -7.394535 -0.000007 0.000000 0.000000
    41 0.028148 5.078109 -12.500008 -0.000007 0.000000 0.000000
    42 0.028150 1.326164 -6.433592 -0.000007 0.000000 0.000000
    43 0.025025 1.444311 -3.791368 -0.000007 0.000000 0.000000
    44 5.028150 2.046713 -7.394381 -0.000007 0.000000 -0.000003
  time 14
    0 1.000000 0.335938 -9.140625 -1.570760 -1.391893 -1.570827
    1 2.033348 1.000767 1.937660 3.099206 -0.162014 1.679995
    2 6.028145 0.000003 0.000002 -2.928758 0.142355 -0.275348
    3 11.692553 0.000081 -0.000005 -0.194441 0.290578 -1.809120
    4 11.481672 -0.000089 -0.000024 1.087089 -0.512084 1.102786
    5 3.281560 0.002120 -1.379481 0.099709 -0.198220 -1.489135
    6 1.324282 -0.000010 0.000004 0.000000 -0.046815 -1.639064
    7 0.819210 0.000000 0.000003 0.000001 -0.000003 -1.663693
    8 3.711854 0.109256 -0.568167 0.035575 -0.139373 -1.548439
    9 1.609408 0.000006 -0.000006 -0.000002 0.030514 -1.556123
    10 0.993191 -0.000006 0.000003 -0.000383 0.021925 -1.656126
    11 3.786031 0.203223 0.243937 -0.024512 -0.110103 -1.301767
    12 1.684424 -0.000010 0.000009 0.000002 0.022604 -1.748757
    13 1.252151 -0.000006 0.000003 -0.012824 0.010474 -1.237727
    14 3.594223 0.299550 1.113710 -0.057101 -0.103964 -0.824212
    15 1.719435 0.000000 -0.000005 -0.000004 0.000021 -1.585199
    16 1.005925 -0.000006 0.000003 0.000005 0.000012 -0.868274
    17 0.298214 -0.634094 0.430606 -1.706416 -0.648694 -0.030254
    18 2.633559 0.000000 -0.000008 -0.000002 0.008244 0.589644
    19 1.308566 0.000001 -0.000002 -0.012534 0.157465 -0.459104
    20 2.033356 1.000772 -1.937610 -0.128177 0.172990 -2.038336
    21 6.028141 0.000000 -0.000002 -0.577373 0.938826 -2.165444
    22 11.692556 0.000000 -0.000002 0.039775 -0.039453 -1.576234
    23 11.481703 -0.000001 -0.000005 -0.990419 0.106992 0.494144
    24 2.914335 -0.023166 1.400148 -0.005249 -0.206929 -1.324872
    25 1.284180 -0.000004 0.000001 0.000007 0.149810 -0.524417
    26 0.842285 0.000006 -0.000003 -0.072546 0.052861 -1.162485
    27 3.368063 0.007377 0.618550 0.028697 -0.175678 -1.457848
    28 1.610352 0.000000 -0.000001 -0.000008 0.158685 -0.726008
    29 1.020534 -0.000004 -0.000002 0.015301 -0.014044 -1.343747
    30 3.551622 0.023917 -0.200566 -0.009120 -0.241475 -1.194131
    31 1.668799 0.000002 0.000006 0.000002 0.186670 -0.954616
    32 1.240434 0.000002 0.000006 0.000002 -0.000011 -1.431094
    33 3.449668 0.054213 -1.089087 0.071310 -0.035888 -0.099884
    34 1.711616 0.000008 0.000011 0.000003 -0.014928 -0.284915
    35 1.005912 0.000000 0.000006 0.000004 -0.000041 -0.288431
    36 0.075534 -0.738749 -0.755817 1.210212 0.533398 -0.558222
    37 2.512460 -0.000008 -0.000004 -0.000002 -0.000001 0.359159
    38 1.156220 0.667987 -0.000008 -0.082330 -0.117571 1.427043
    39 -2.713096 -12.268427 -9.516102 1.672738 -0.380706 -3.008838
    40 0.028150 2.046865 -7.394535 -0.000007 0.000000 0.000000
    41 0.028148 5.078109 -12.500008 -0.000007 0.000000 0.000000
    42 0.028150 1.326164 -6.433592 -0.000007 0.000000 0.000000
    43 0.025025 1.444311 -3.791368 -0.000007 0.000000 0.000000
    44 5.028150 2.046713 -7.394381 -0.000007 0.000000 -0.000003
  time 15
    0 1.000000 0.335938 -9.140625 -1.570760 -1.391893 -1.570827
    1 2.033348 1.000767 1.937660 3.099206 -0.162014 1.679995
    2 6.028145 0.000003 0.000002 -2.869455 0.123946 -0.335806
    3 11.692553 0.000081 -0.000005 -0.232648 0.278977 -1.944924
    4 11.481672 -0.000089 -0.000024 1.103068 -0.595949 1.197415
    5 3.281560 0.006026 -1.379481 0.099362 -0.198088 -1.488718
    6 1.324282 -0.000010 0.000004 0.000000 -0.046851 -1.629479
    7 0.819210 0.000000 0.000003 0.000001 -0.000003 -1.652948
    8 3.711854 0.109256 -0.572074 0.035252 -0.139266 -1.548049
    9 1.609408 0.000006 -0.000006 -0.000002 0.030325 -1.545542
    10 0.993191 -0.000006 0.000003 -0.000251 0.021769 -1.644811
    11 3.786031 0.207130 0.243937 -0.024824 -0.109912 -1.301375
    12 1.684424 -0.000010 0.000009 0.000002 0.022556 -1.738767
    13 1.252151 -0.000006 0.000003 -0.012668 0.010426 -1.231063
    14 3.594223 0.303456 1.109803 -0.057253 -0.103654 -0.823839
    15 1.719435 0.000000 -0.000005 -0.000004 0.000021 -1.581280
    16 1.005925 -0.000006 0.000003 0.000005 0.000012 -0.864302
    17 0.298214 -0.634094 0.426700 -1.706705 -0.651075 -0.029560
    18 2.633559 0.000000 -0.000008 -0.000002 0.008592 0.585841
    19 1.308566 0.000001 -0.000002 -0.011791 0.155955 -0.451108
    20 2.033356 1.000772 -1.937610 -0.128177 0.172990 -2.038336
    21 6.028141 0.000000 -0.000002 -0.562036 0.944098 -2.144273
    22 11.692556 0.000000 -0.000002 0.039835 -0.039453 -1.577844
    23 11.481703 -0.000001 -0.000005 -0.976434 0.103085 0.491761
    24 2.914335 -0.023166 1.400148 -0.005047 -0.207121 -1.324720
    25 1.284180 -0.000004 0.000001 0.000007 0.149810 -0.524417
    26 0.842285 0.000006 -0.000003 -0.072546 0.052861 -1.162485
    27 3.368063 0.007377 0.618550 0.028937 -0.175846 -1.457730
    28 1.610352 0.000000 -0.000001 -0.000008 0.158685 -0.726008
    29 1.024440 -0.000004 -0.000002 0.015301 -0.014044 -1.343747
    30 3.551622 0.023917 -0.200566 -0.008928 -0.241691 -1.193983
    31 1.668799 0.000002 0.000006 0.000002 0.186670 -0.954616
    32 1.240434 0.000002 0.000006 0.000002 -0.000011 -1.431094
    33 3.449668 0.054213 -1.089087 0.072673 -0.035989 -0.075831
    34 1.711616 0.000008 0.000011 0.000003 -0.013682 -0.261838
    35 1.005912 0.000000 0.000006 -0.000200 0.000882 -0.268865
    36 0.075534 -0.738749 -0.759723 1.210236 0.533111 -0.558018
    37 2.512460 -0.000008 -0.000004 -0.000002 -0.000001 0.359147
    38 1.156220 0.667987 -0.000008 -0.082342 -0.117571 1.427043
    39 -2.853725 -12.233270 -9.660637 1.662293 -0.364700 -3.006444
    40 0.028150 2.046865 -7.394535 -0.000007 0.000000 0.000000
    41 0.028148 5.078109 -11.206999 -0.000007 0.000000 0.000000
    42 0.028150 1.326164 -6.433592 -0.000007 0.000000 0.000000
    43 0.025025 1.444311 -3.791368 -0.000007 0.000000 0.000000
    44 5.028150 2.046713 -7.394381 -0.000007 0.000000 -0.000003
  time 16
    0 1.000000 0.335938 -9.140625 -1.570760 -1.391893 -1.570827
    1 2.033348 1.000767 1.937660 3.099206 -0.162014 1.679995
    2 6.028145 0.000003 0.000002 -2.803268 0.064968 -0.380229
    3 11.692553 0.000081 -0.000005 -0.298264 0.244318 -2.197322
    4 11.481672 -0.000089 -0.000024 1.139401 -0.699243 1.405674
    5 3.281560 0.002120 -1.383388 0.099778 -0.198124 -1.489448
    6 1.324282 -0.000010 0.000004 0.000000 -0.046887 -1.614482
    7 0.819210 0.000000 0.000003 0.000001 -0.000003 -1.636069
    8 3.711854 0.105349 -0.568167 0.035647 -0.139266 -1.548758
    9 1.609408 0.000006 -0.000006 -0.000002 0.030017 -1.528848
    10 0.993191 -0.000006 0.000003 -0.000059 0.021517 -1.627068
    11 3.786031 0.203223 0.243937 -0.024416 -0.110019 -1.302087
    12 1.684424 -0.000010 0.000009 0.000002 0.022484 -1.723049
    13 1.252151 -0.000006 0.000003 -0.012416 0.010342 -1.220621
    14 3.594223 0.299550 1.109803 -0.056976 -0.103925 -0.824536
    15 1.719435 0.000000 -0.000005 -0.000004 0.000021 -1.575102
    16 1.005925 -0.000006 0.000003 0.000005 0.000012 -0.858098
    17 0.298214 -0.634094 0.426700 -1.718222 -0.746909 -0.012598
    18 2.633559 0.000000 -0.000008 -0.000002 0.009143 0.579280
    19 1.308566 0.000001 -0.000002 0.030047 0.146103 -0.159538
    20 2.033356 1.000772 -1.937610 -0.128177 0.172990 -2.038336
    21 6.028141 0.000000 -0.000002 -0.522648 0.960892 -2.096254
    22 11.692556 0.000000 -0.000002 0.040686 -0.039441 -1.599519
    23 11.481703 -0.000001 -0.000005 -0.878304 0.127829 0.468886
    24 2.914335 -0.023166 1.400148 -0.005249 -0.206929 -1.324872
    25 1.284180 -0.000004 0.000001 0.000007 0.149810 -0.524417
    26 0.842285 0.000006 -0.000003 -0.072546 0.052861 -1.162485
    27 3.368063 0.007377 0.618550 0.028697 -0.175678 -1.457848
    28 1.610352 0.000000 -0.000001 -0.000008 0.158685 -0.726008
    29 1.020534 -0.000004 -0.000002 0.015301 -0.014044 -1.343778
    30 3.551622 0.023917 -0.200566 -0.009120 -0.241475 -1.194131
    31 1.668799 0.000002 0.000006 0.000002 0.186670 -0.954616
    32 1.240434 0.000002 0.000006 0.000002 -0.000011 -1.431094
    33 3.449668 0.054213 -1.089087 0.074240 -0.035523 -0.051467
    34 1.711616 0.000008 0.000011 0.000003 -0.012663 -0.242776
    35 1.005912 0.000000 0.000006 -0.000379 0.001720 -0.251174
    36 0.075534 -0.738749 -0.759723 1.210212 0.533398 -0.558222
    37 2.512460 -0.000008 -0.000004 -0.000002 -0.000001 0.359159
    38 1.156220 0.667987 -0.000008 -0.082342 -0.117583 1.427043
    39 -3.158422 -11.967637 -9.691888 1.699110 -0.266924 -3.004268
    40 0.028150 2.046865 -7.394535 -0.000007 0.000000 0.000000
    41 0.028148 5.078109 -8.800676 -0.000007 0.000000 0.000000
    42 0.028150 1.326164 -6.433592 -0.000007 0.000000 0.000000
    43 0.025025 1.444311 -3.791368 -0.000007 0.000000 0.000000
    44 5.028150 2.046713 -7.394381 -0.000007 0.000000 -0.000003
  time 17
    0 1.000000 0.335938 -9.140625 -1.570760 -1.391893 -1.570827
    1 2.033348 1.000767 1.937660 3.099206 -0.162014 1.679995
    2 6.028145 0.000003 0.000002 -2.721792 -0.015298 -0.382730
    3 11.692553 0.000081 -0.000005 -0.322221 0.225538 -2.300125
    4 11.481672 -0.000089 -0.000024 1.160022 -0.790462 1.522353
    5 3.281560 0.002120 -1.379481 0.099709 -0.198220 -1.489135
    6 1.324282 -0.000010 0.000004 0.000000 -0.046923 -1.593340
    7 0.815304 0.000000 0.000003 0.000001 -0.000003 -1.612447
    8 3.711854 0.109256 -0.568167 0.035575 -0.139373 -1.548439
    9 1.609408 0.000006 -0.000006 -0.000002 0.029588 -1.505393
    10 0.993191 -0.000006 0.000003 0.000181 0.021182 -1.602069
    11 3.786031 0.203223 0.247844 -0.024524 -0.110103 -1.301767
    12 1.684424 -0.000010 0.000009 0.000002 0.022364 -1.701026
    13 1.252151 -0.000006 0.000003 -0.012080 0.010222 -1.205992
    14 3.594223 0.299550 1.113710 -0.057087 -0.103964 -0.824212
    15 1.719435 0.000000 -0.000005 -0.000004 0.000021 -1.566435
    16 1.005925 -0.000006 0.000003 0.000005 0.000012 -0.849284
    17 0.298214 -0.634094 0.430606 -1.729451 -0.817091 0.003243
    18 2.633559 0.000000 -0.000008 -0.000002 0.009814 0.571451
    19 1.308566 0.000001 -0.000002 0.060512 0.137810 0.055198
    20 2.033356 1.000772 -1.937610 -0.128177 0.172990 -2.038336
    21 6.028141 0.000000 -0.000002 -0.468716 0.981657 -2.032627
    22 11.692556 0.000000 -0.000002 0.041728 -0.039393 -1.625965
    23 11.481703 -0.000001 -0.000005 -0.786377 0.149329 0.445636
    24 2.914335 -0.023166 1.400148 -0.005249 -0.206929 -1.324872
    25 1.284180 -0.000004 0.000001 0.000007 0.149810 -0.524417
    26 0.842285 0.000006 -0.000003 -0.072546 0.052861 -1.162485
    27 3.368063 0.007377 0.618550 0.028697 -0.175678 -1.457848
    28 1.610352 0.000000 -0.000001 -0.000008 0.158685 -0.726008
    29 1.020534 -0.000004 -0.000002 0.015301 -0.014044 -1.343747
    30 3.551622 0.023917 -0.200566 -0.009120 -0.241475 -1.194131
    31 1.668799 0.000002 0.000006 0.000002 0.186670 -0.954616
    32 1.240434 0.000002 0.000006 0.000002 -0.000011 -1.431094
    33 3.449668 0.054213 -1.089087 0.075699 -0.035335 -0.026115
    34 1.711616 0.000008 0.000011 0.000003 -0.011944 -0.228272
    35 1.005912 0.000000 0.000006 -0.000511 0.002451 -0.235743
    36 0.075534 -0.738749 -0.755817 1.210212 0.533398 -0.558222
    37 2.512460 -0.000008 -0.000004 -0.000002 -0.000001 0.359159
    38 1.156220 0.667987 -0.000008 -0.082330 -0.117571 1.427043
    39 -3.552965 -11.631689 -9.770016 1.731456 -0.175593 -2.998973
    40 0.028150 2.046865 -7.394535 -0.000007 0.000000 0.000000
    41 0.028148 5.078109 -7.495949 -0.000007 0.000000 0.000000
    42 0.028150 1.326164 -6.433592 -0.000007 0.000000 0.000000
    43 0.025025 1.444311 -3.791368 -0.000007 0.000000 0.000000
    44 5.028150 2.046713 -7.394381 -0.000007 0.000000 -0.000003
  time 18
    0 1.000000 0.335938 -9.140625 -1.570760 -1.391893 -1.570827
    1 2.033348 1.000767 1.937660 3.099206 -0.162014 1.679995
    2 6.028145 0.000003 0.000002 -2.693265 -0.041167 -0.382068
    3 11.692553 0.000081 -0.000005 -0.324833 0.223237 -2.311876
    4 11.481672 -0.000089 -0.000024 1.148774 -0.798183 1.551070
    5 3.281560 0.002120 -1.379481 0.099709 -0.198220 -1.489135
    6 1.324282 -0.000010 0.000004 0.000000 -0.046935 -1.565501
    7 0.819210 0.000000 0.000003 0.000001 -0.000003 -1.581169
    8 3.711854 0.109256 -0.568167 0.035575 -0.139373 -1.548439
    9 1.609408 0.000006 -0.000006 -0.000002 0.029021 -1.474473
    10 0.993191 -0.000006 0.000003 0.000504 0.020702 -1.569138
    11 3.786031 0.203223 0.243937 -0.024524 -0.110103 -1.301767
    12 1.684424 -0.000010 0.000009 0.000002 0.022197 -1.671944
    13 1.252151 -0.000006 0.000003 -0.011649 0.010042 -1.186651
    14 3.594223 0.299550 1.109803 -0.057087 -0.103964 -0.824212
    15 1.719435 0.000000 -0.000005 -0.000004 0.000021 -1.555001
    16 1.005925 -0.000006 0.000003 0.000005 0.000012 -0.837671
    17 0.298214 -0.634094 0.430606 -1.720822 -0.760572 -0.009364
    18 2.633559 0.000000 -0.000008 -0.000002 0.010809 0.560086
    19 1.308566 0.000001 -0.000002 0.033535 0.138349 -0.119355
    20 2.033356 1.000772 -1.937610 -0.128177 0.172990 -2.038336
    21 6.028141 0.000000 -0.000002 -0.430696 0.994611 -1.988639
    22 11.692556 0.000000 -0.000002 0.042387 -0.039357 -1.642639
    23 11.481703 -0.000001 -0.000005 -0.784622 0.145729 0.438386
    24 2.914335 -0.023166 1.400148 -0.005263 -0.206929 -1.324872
    25 1.284180 -0.000004 0.000001 0.000007 0.149810 -0.524417
    26 0.842285 0.000006 -0.000003 -0.072546 0.052861 -1.162485
    27 3.368063 0.007377 0.618550 0.028697 -0.175678 -1.457848
    28 1.610352 0.000000 -0.000001 -0.000008 0.158685 -0.726008
    29 1.020534 -0.000004 -0.000002 0.015301 -0.014044 -1.343747
    30 3.551622 0.023917 -0.200566 -0.009120 -0.241475 -1.194131
    31 1.668799 0.000002 0.000006 0.000002 0.186670 -0.954616
    32 1.240434 0.000002 0.000006 0.000002 -0.000011 -1.431094
    33 3.449668 0.054213 -1.089087 0.077157 -0.035109 0.000113
    34 1.711616 0.000008 0.000011 0.000003 -0.011621 -0.218904
    35 1.005912 0.000000 0.000006 -0.000631 0.003075 -0.222699
    36 0.075534 -0.738749 -0.759723 1.210212 0.533398 -0.558222
    37 2.512460 -0.000008 -0.000004 -0.000002 -0.000001 0.359159
    38 1.156220 0.667987 -0.000008 -0.082330 -0.117571 1.427043
    39 -3.783441 -11.432464 -9.914551 1.727964 -0.173102 -2.999553
    40 0.028150 2.046865 -7.394535 -0.000007 0.000000 0.000000
    41 0.028148 5.078109 -7.495949 -0.000007 0.000000 0.000000
    42 0.028150 1.326164 -6.433592 -0.000007 0.000000 0.000000
    43 0.025025 1.444311 -3.791368 -0.000007 0.000000 0.000000
    44 5.028150 2.046713 -7.394381 -0.000007 0.000000 -0.000003
  time 19
    0 1.000000 0.335938 -9.140625 -1.570760 -1.391893 -1.570827
    1 2.033348 1.000767 1.937660 3.099206 -0.162014 1.679995
    2 6.028145 0.000003 0.000002 -2.771829 0.054324 -0.397587
    3 11.692553 0.000081 -0.000005 -0.309421 0.236073 -2.244185
    4 11.481672 -0.000089 -0.000024 1.078877 -0.647541 1.480825
    5 3.281560 0.002120 -1.379481 0.099726 -0.198220 -1.489135
    6 1.324282 -0.000010 0.000004 0.000000 -0.046887 -1.527940
    7 0.819210 0.000000 0.000003 0.000001 -0.000003 -1.539102
    8 3.711854 0.109256 -0.568167 0.035575 -0.139373 -1.548439
    9 1.609408 0.000006 -0.000006 -0.000002 0.028232 -1.432796
    10 0.993191 -0.000006 0.000003 0.000948 0.020055 -1.524817
    11 3.786031 0.203223 0.243937 -0.024512 -0.110103 -1.301767
    12 1.684424 -0.000010 0.000009 0.000002 0.021933 -1.632827
    13 1.252151 -0.000006 0.000003 -0.011098 0.009802 -1.160645
    14 3.594223 0.299550 1.109803 -0.057087 -0.103964 -0.824212
    15 1.719435 0.000000 -0.000005 -0.000004 0.000021 -1.539602
    16 1.005925 -0.000006 0.000003 0.000005 0.000012 -0.822047
    17 0.298214 -0.634094 0.430606 -1.711037 -0.680439 -0.024808
    18 2.633559 0.000000 -0.000008 -0.000002 0.012068 0.545430
    19 1.308566 0.000001 -0.000002 -0.004600 0.139524 -0.366278
    20 2.033356 1.000772 -1.937610 -0.128177 0.172990 -2.038336
    21 6.028141 0.000000 -0.000002 -0.435017 0.992365 -1.992328
    22 11.692556 0.000000 -0.000002 0.042364 -0.039357 -1.641949
    23 11.481703 -0.000001 -0.000005 -0.830205 0.131148 0.446794
    24 2.914335 -0.023166 1.400148 -0.005249 -0.206929 -1.324872
    25 1.284180 -0.000004 0.000001 0.000007 0.149810 -0.524417
    26 0.842285 0.000006 -0.000003 -0.072546 0.052861 -1.162485
    27 3.368063 0.007377 0.618550 0.028697 -0.175678 -1.457868
    28 1.610352 0.000000 -0.000001 -0.000008 0.158685 -0.726008
    29 1.024440 -0.000004 -0.000002 0.015301 -0.014044 -1.343747
    30 3.551622 0.023917 -0.204473 -0.009120 -0.241475 -1.194131
    31 1.668799 0.000002 0.000006 0.000002 0.186670 -0.954616
    32 1.240434 0.000002 0.000006 0.000002 -0.000011 -1.431094
    33 3.449668 0.054213 -1.089087 0.078615 -0.034845 0.027300
    34 1.711616 0.000008 0.000011 0.000003 -0.011752 -0.215214
    35 1.005912 0.000000 0.000006 -0.000715 0.003554 -0.212468
    36 0.075534 -0.738749 -0.759723 1.210212 0.533398 -0.558222
    37 2.512460 -0.000008 -0.000004 -0.000002 -0.000001 0.359159
    38 1.156220 0.667987 -0.000008 -0.082330 -0.117571 1.427043
    39 -3.705314 -11.463715 -9.988772 1.706492 -0.217226 -3.000424
    40 0.028150 2.046865 -7.394535 -0.000007 0.000000 0.000000
    41 0.028148 5.078109 -10.003838 -0.000007 0.000000 0.000000
    42 0.028150 1.326164 -6.433592 -0.000007 0.000000 0.000000
    43 0.025025 1.444311 -3.791368 -0.000007 0.000000 0.000000
    44 5.028150 2.046713 -7.394381 -0.000007 0.000000 -0.000003
  time 20
    0 1.000000 0.335938 -9.140625 -1.570760 -1.391893 -1.570827
    1 2.033348 1.000767 1.937660 3.099206 -0.162014 1.679995
    2 6.028145 0.000003 0.000002 -2.851386 0.193044 -0.435170
    3 11.692553 0.000081 -0.000005 -0.269021 0.262403 -2.080728
    4 11.481672 -0.000089 -0.000024 0.955240 -0.447722 1.306712
    5 3.281560 0.002120 -1.379481 0.099709 -0.198220 -1.489135
    6 1.324282 -0.000010 0.000004 0.000000 -0.046731 -1.479235
    7 0.819210 0.000000 0.000003 0.000001 -0.000003 -1.484464
    8 3.711854 0.109256 -0.568167 0.035575 -0.139373 -1.548439
    9 1.609408 0.000006 -0.000006 -0.000002 0.027134 -1.378716
    10 0.993191 -0.000006 0.000003 0.001451 0.019192 -1.467188
    11 3.786031 0.203223 0.243937 -0.024524 -0.110103 -1.301767
    12 1.684424 -0.000010 0.000009 0.000002 0.021549 -1.581944
    13 1.252151 -0.000006 0.000003 -0.010367 0.009467 -1.126797
    14 3.594223 0.299550 1.109803 -0.057101 -0.103964 -0.824212
    15 1.719435 0.000000 -0.000005 -0.000004 0.000021 -1.519592
    16 1.005925 -0.000006 0.000003 0.000005 0.000012 -0.801771
    17 0.298214 -0.634094 0.426700 -1.713131 -0.694359 -0.022267
    18 2.633559 0.000000 -0.000008 -0.000002 0.013709 0.526014
    19 1.308566 0.000001 -0.000002 -0.001652 0.131446 -0.325717
    20 2.033356 1.000772 -1.937610 -0.128177 0.172990 -2.038336
    21 6.028141 0.000000 -0.000002 -0.466988 0.980746 -2.028086
    22 11.692556 0.000000 -0.000002 0.041884 -0.039381 -1.629760
    23 11.481703 -0.000001 -0.000005 -0.883746 0.111384 0.463337
    24 2.914335 -0.023166 1.400148 -0.005249 -0.206929 -1.324872
    25 1.284180 -0.000004 0.000001 0.000007 0.149810 -0.524417
    26 0.842285 0.000006 -0.000003 -0.072546 0.052861 -1.162485
    27 3.368063 0.007377 0.618550 0.028697 -0.175678 -1.457848
    28 1.610352 0.000000 -0.000001 -0.000008 0.158685 -0.726008
    29 1.020534 -0.000004 -0.000002 0.015301 -0.014044 -1.343747
    30 3.551622 0.023917 -0.200566 -0.009120 -0.241475 -1.194131
    31 1.668799 0.000002 0.000006 0.000002 0.186670 -0.954616
    32 1.240434 0.000002 0.000006 0.000002 -0.000011 -1.431094
    33 3.449668 0.054213 -1.089087 0.080059 -0.034555 0.055616
    34 1.711616 0.000008 0.000011 0.000003 -0.012459 -0.217819
    35 1.005912 0.000000 0.000006 -0.000775 0.003902 -0.205179
    36 0.075534 -0.738749 -0.759723 1.210212 0.533398 -0.558222
    37 2.512460 -0.000008 -0.000004 -0.000002 -0.000001 0.359147
    38 1.156220 0.667987 -0.000008 -0.082330 -0.117571 1.427043
    39 -3.455306 -11.635595 -9.973147 1.679384 -0.270100 -2.995636
    40 0.028150 2.046865 -7.394535 -0.000007 0.000000 0.000000
    41 0.028148 5.078109 -12.500008 -0.000007 0.000000 0.000000
    42 0.028150 1.326164 -6.433592 -0.000007 0.000000 0.000000
    43 0.025025 1.444311 -3.791368 -0.000007 0.000000 0.000000
    44 5.028150 2.046713 -7.394381 -0.000007 0.000000 -0.000003
  time 21
    0 1.000000 0.335938 -9.140625 -1.570760 -1.391893 -1.570827
    1 2.033348 1.000767 1.937660 3.099206 -0.162014 1.679995
    2 6.028145 0.000003 0.000002 -2.856085 0.258435 -0.458118
    3 11.692553 0.000081 -0.000005 -0.229832 0.280044 -1.934721
    4 11.481672 -0.000089 -0.000024 0.834550 -0.329059 1.117026
    5 3.281560 0.002120 -1.383388 0.099709 -0.198220 -1.489135
    6 1.324282 -0.000010 0.000004 0.000000 -0.046395 -1.420714
    7 0.819210 0.000000 0.000003 0.000001 -0.000003 -1.418949
    8 3.711854 0.109256 -0.572074 0.035575 -0.139373 -1.548439
    9 1.609408 0.000006 -0.000006 -0.000002 0.025813 -1.313820
    10 0.993191 -0.000006 0.000003 0.002002 0.018138 -1.398057
    11 3.786031 0.203223 0.243937 -0.024512 -0.110103 -1.301767
    12 1.684424 -0.000010 0.000009 0.000002 0.021010 -1.520938
    13 1.252151 -0.000006 0.000003 -0.009492 0.009035 -1.086285
    14 3.594223 0.299550 1.109803 -0.057101 -0.103964 -0.824212
    15 1.719435 0.000000 -0.000005 -0.000004 0.000021 -1.495571
    16 1.005925 -0.000006 0.000003 0.000005 0.000012 -0.777448
    17 0.298214 -0.634094 0.426700 -1.715803 -0.711068 -0.019198
    18 2.633559 0.000000 -0.000008 -0.000002 0.015711 0.502728
    19 1.308566 0.000001 -0.000002 0.001392 0.121607 -0.277109
    20 2.033356 1.000772 -1.937610 -0.128177 0.172990 -2.038336
    21 6.028141 0.000000 -0.000002 -0.505799 0.966588 -2.074345
    22 11.692556 0.000000 -0.000002 0.041177 -0.039417 -1.611822
    23 11.481703 -0.000001 -0.000005 -0.923770 0.087304 0.483762
    24 2.914335 -0.023166 1.400148 -0.005249 -0.206929 -1.324872
    25 1.284180 -0.000004 0.000001 0.000007 0.149810 -0.524417
    26 0.842285 0.000006 -0.000003 -0.072546 0.052861 -1.162485
    27 3.368063 0.007377 0.618550 0.028697 -0.175678 -1.457848
    28 1.610352 0.000000 -0.000001 -0.000008 0.158685 -0.726008
    29 1.020534 -0.000004 -0.000002 0.015301 -0.014044 -1.343747
    30 3.551622 0.023917 -0.204473 -0.009120 -0.241475 -1.194131
    31 1.668799 0.000002 0.000006 0.000002 0.186682 -0.954616
    32 1.240434 0.000002 0.000006 0.000002 -0.000011 -1.431094
    33 3.449668 0.054213 -1.089087 0.081504 -0.034229 0.085090
    34 1.711616 0.000008 0.000011 0.000003 -0.013802 -0.227187
    35 1.005912 0.000000 0.000006 -0.000799 0.004093 -0.201214
    36 0.075534 -0.738749 -0.759723 1.210212 0.533398 -0.558222
    37 2.512460 -0.000008 -0.000004 -0.000002 -0.000001 0.359159
    38 1.156220 0.667987 -0.000008 -0.082342 -0.117571 1.427043
    39 -3.189673 -11.862165 -9.879394 1.649428 -0.310550 -2.986351
    40 0.028150 2.046865 -7.394535 -0.000007 0.000000 0.000000
    41 0.028148 5.078109 -12.671888 -0.000007 0.000000 0.000000
    42 0.028150 1.326164 -6.433592 -0.000007 0.000000 0.000000
    43 0.025025 1.444311 -3.791368 -0.000007 0.000000 0.000000
    44 5.028150 2.046713 -7.394381 -0.000007 0.000000 -0.000003
  time 22
    0 1.000000 0.335938 -9.140625 -1.570760 -1.391893 -1.570827
    1 2.033348 1.000767 1.937660 3.099206 -0.162014 1.679995
    2 6.028145 0.000003 0.000002 -2.831662 0.260834 -0.458486
    3 11.692553 0.000081 -0.000005 -0.209625 0.286624 -1.862527
    4 11.481672 -0.000089 -0.000024 0.742693 -0.262172 0.986631
    5 3.281560 0.002120 -1.383388 0.099709 -0.198220 -1.489135
    6 1.324282 -0.000010 0.000004 0.000000 -0.045820 -1.354077
    7 0.819210 0.000000 0.000003 0.000001 -0.000003 -1.344126
    8 3.711854 0.109256 -0.568167 0.035575 -0.139373 -1.548439
    9 1.609408 0.000006 -0.000006 -0.000002 0.024217 -1.239753
    10 0.993191 -0.000006 0.000003 0.002542 0.016855 -1.319226
    11 3.786031 0.203223 0.243937 -0.024524 -0.110103 -1.301767
    12 1.684424 -0.000010 0.000009 0.000002 0.020303 -1.451318
    13 1.252151 -0.000006 0.000003 -0.008497 0.008496 -1.040003
    14 3.594223 0.299550 1.113710 -0.057101 -0.103964 -0.824212
    15 1.719435 0.000000 -0.000005 -0.000004 0.000021 -1.468185
    16 1.005925 -0.000006 0.000003 0.000005 0.000012 -0.749682
    17 0.298214 -0.634094 0.430606 -1.718980 -0.730136 -0.015502
    18 2.633559 0.000000 -0.000008 -0.000002 0.017952 0.476173
    19 1.308566 0.000001 -0.000002 0.004316 0.110197 -0.221716
    20 2.033356 1.000772 -1.937610 -0.128177 0.172990 -2.038336
    21 6.028141 0.000000 -0.000002 -0.534169 0.958972 -2.114247
    22 11.692556 0.000000 -0.000002 0.040494 -0.039441 -1.594689
    23 11.481703 -0.000001 -0.000005 -0.946474 0.057454 0.506568
    24 2.914335 -0.023166 1.400148 -0.005249 -0.206929 -1.324872
    25 1.284180 -0.000004 0.000001 0.000007 0.149810 -0.524417
    26 0.842285 0.000006 -0.000003 -0.072546 0.052861 -1.162485
    27 3.368063 0.007377 0.618550 0.028697 -0.175678 -1.457848
    28 1.610352 0.000000 -0.000001 -0.000008 0.158685 -0.726008
    29 1.024440 -0.000004 -0.000002 0.015301 -0.014044 -1.343747
    30 3.551622 0.023917 -0.200566 -0.009120 -0.241475 -1.194131
    31 1.668799 0.000002 0.000006 0.000002 0.186682 -0.954616
    32 1.240434 0.000002 0.000006 0.000002 -0.000011 -1.431094
    33 3.449668 0.054213 -1.089087 0.082921 -0.033877 0.115807
    34 1.711616 0.000008 0.000011 0.000003 -0.015887 -0.244006
    35 1.005912 0.000000 0.000006 -0.000811 0.004117 -0.200831
    36 0.075534 -0.738749 -0.759723 1.210212 0.533398 -0.558222
    37 2.512460 -0.000008 -0.000004 -0.000002 -0.000001 0.359159
    38 1.156220 0.667987 -0.000008 -0.082342 -0.117583 1.427043
    39 -3.068576 -12.061389 -9.727046 1.616745 -0.334713 -2.978880
    40 0.028150 2.046865 -7.394535 -0.000007 0.000000 0.000000
    41 0.028148 5.078109 -13.125027 -0.000007 0.000000 0.000000
    42 0.028150 1.326164 -6.433592 -0.000007 0.000000 0.000000
    43 0.025025 1.444311 -3.791368 -0.000007 0.000000 0.000000
    44 5.028150 2.046713 -7.394381 -0.000007 0.000000 -0.000003
  time 23
    0 1.000000 0.335938 -9.140625 -1.570760 -1.391893 -1.570827
    1 2.033348 1.000767 1.937660 3.099206 -0.162014 1.679995
    2 6.028145 0.000003 0.000002 -2.805452 0.249710 -0.455470
    3 11.692553 0.000081 -0.000005 -0.197185 0.289931 -1.818690
    4 11.481672 -0.000089 -0.000024 0.651461 -0.192651 0.914529
    5 3.281560 0.002120 -1.379481 0.099709 -0.198220 -1.489135
    6 1.324282 -0.000010 0.000004 0.000000 -0.044957 -1.280468
    7 0.819210 0.000000 0.000003 0.000001 -0.000003 -1.261646
    8 3.711854 0.109256 -0.568167 0.035575 -0.139373 -1.548439
    9 1.609408 0.000006 -0.000006 -0.000002 0.022398 -1.158162
    10 0.993191 -0.000006 0.000003 0.003009 0.015417 -1.232275
    11 3.786031 0.203223 0.243937 -0.024512 -0.110103 -1.301767
    12 1.684424 -0.000010 0.000009 0.000002 0.019404 -1.374549
    13 1.252151 -0.000006 0.000003 -0.007454 0.007849 -0.988967
    14 3.594223 0.299550 1.113710 -0.057101 -0.103964 -0.824212
    15 1.719435 0.000000 -0.000005 -0.000004 0.000021 -1.437986
    16 1.005925 -0.000006 0.000003 0.000005 0.000012 -0.719079
    17 0.298214 -0.634094 0.430606 -1.722627 -0.751113 -0.011278
    18 2.633559 0.000000 -0.000008 -0.000002 0.020409 0.446860
    19 1.308566 0.000001 -0.000002 0.006797 0.097470 -0.160799
    20 2.033356 1.000772 -1.937610 -0.128177 0.172990 -2.038336
    21 6.028141 0.000000 -0.000002 -0.551523 0.960599 -2.148416
    22 11.692556 0.000000 -0.000002 0.039883 -0.039453 -1.579223
    23 11.481703 -0.000001 -0.000005 -0.945245 0.025509 0.527231
    24 2.914335 -0.023166 1.400148 -0.005249 -0.206929 -1.324872
    25 1.284180 -0.000004 0.000001 0.000007 0.149810 -0.524417
    26 0.842285 0.000006 -0.000003 -0.072546 0.052861 -1.162485
    27 3.368063 0.007377 0.618550 0.028697 -0.175678 -1.457848
    28 1.610352 0.000000 -0.000001 -0.000008 0.158685 -0.726008
    29 1.020534 -0.000004 -0.000002 0.015301 -0.014044 -1.343778
    30 3.551622 0.023917 -0.204473 -0.009120 -0.241475 -1.194131
    31 1.668799 0.000002 0.000006 0.000002 0.186682 -0.954616
    32 1.240434 0.000002 0.000006 0.000002 -0.000011 -1.431094
    33 3.449668 0.054213 -1.089087 0.085947 -0.032946 0.187402
    34 1.711616 0.000008 0.000011 0.000003 -0.031946 -0.396357
    35 1.005912 0.000000 0.000006 -0.000284 0.001277 -0.260510
    36 0.075534 -0.738749 -0.759723 1.210212 0.533398 -0.558222
    37 2.512460 -0.000008 -0.000004 -0.000002 -0.000001 0.359147
    38 1.156220 0.667987 -0.000008 -0.082330 -0.117571 1.427043
    39 -3.134984 -12.221551 -9.477038 1.589607 -0.336551 -2.976994
    40 0.028150 2.046865 -7.394535 -0.000007 0.000000 0.000000
    41 0.028148 5.078109 -13.753952 -0.000007 0.000000 0.000000
    42 0.028150 1.326164 -6.433592 -0.000007 0.000000 0.000000
    43 0.025025 1.444311 -3.791368 -0.000007 0.000000 0.000000
    44 5.028150 2.046713 -7.394381 -0.000007 0.000000 -0.000003
  time 24
    0 1.000000 0.335938 -9.140625 -1.570760 -1.391893 -1.570827
    1 2.033348 1.000767 1.937660 3.099206 -0.162014 1.679995
    2 6.028145 0.000003 0.000002 -2.779772 0.227681 -0.447747
    3 11.692553 0.000081 -0.000005 -0.189479 0.291705 -1.791881
    4 11.481672 -0.000089 -0.000024 0.564424 -0.126386 0.852808
    5 3.281560 0.006026 -1.379481 0.099414 -0.198232 -1.488649
    6 1.324282 -0.000010 0.000004 0.000000 -0.043771 -1.201585
    7 0.819210 0.000000 0.000003 0.000001 -0.000003 -1.173249
    8 3.711854 0.109256 -0.572074 0.035299 -0.139403 -1.547978
    9 1.609408 0.000006 -0.000006 -0.000002 0.020408 -1.070517
    10 0.993191 -0.000006 0.000003 0.003381 0.013835 -1.139009
    11 3.786031 0.207130 0.243937 -0.024800 -0.110067 -1.301304
    12 1.684424 -0.000010 0.000009 0.000002 0.018314 -1.292231
    13 1.252151 -0.000006 0.000003 -0.006412 0.007094 -0.934233
    14 3.594223 0.303456 1.109803 -0.057323 -0.103796 -0.823789
    15 1.719435 0.000000 -0.000005 -0.000004 0.000021 -1.405575
    16 1.005925 -0.000006 0.000003 0.000005 0.000012 -0.686243
    17 0.298214 -0.630188 0.426700 -1.726815 -0.773335 -0.006064
    18 2.633559 0.000000 -0.000008 -0.000002 0.023009 0.415434
    19 1.308566 0.000001 -0.000002 0.008595 0.083663 -0.095518
    20 2.033356 1.000772 -1.937610 -0.128177 0.172990 -2.038336
    21 6.028141 0.000000 -0.000002 -0.566932 0.966132 -2.184515
    22 11.692556 0.000000 -0.000002 0.039295 -0.039465 -1.564103
    23 11.481703 -0.000001 -0.000005 -0.927983 -0.004290 0.546906
    24 2.914335 -0.023166 1.400148 -0.005710 -0.206725 -1.325262
    25 1.284180 -0.000004 0.000001 0.000007 0.149810 -0.524417
    26 0.842285 0.000006 -0.000003 -0.072546 0.052861 -1.162485
    27 3.368063 0.007377 0.618550 0.028230 -0.175534 -1.458284
    28 1.610352 0.000000 -0.000001 -0.000008 0.158685 -0.726008
    29 1.020534 -0.000004 -0.000002 0.015301 -0.014044 -1.343778
    30 3.555528 0.023917 -0.200566 -0.009527 -0.241212 -1.194520
    31 1.668799 0.000002 0.000006 0.000002 0.186670 -0.954616
    32 1.240434 0.000002 0.000006 0.000002 -0.000011 -1.431094
    33 3.453574 0.054213 -1.089087 0.089967 -0.030860 0.297845
    34 1.711616 0.000008 0.000011 0.000003 -0.064209 -0.710136
    35 1.005912 0.000000 0.000006 0.001466 -0.004895 -0.394276
    36 0.079440 -0.734842 -0.759723 1.210021 0.533854 -0.558821
    37 2.512460 -0.000008 -0.000004 -0.000002 -0.000001 0.359147
    38 1.156220 0.667987 -0.000008 -0.082330 -0.117571 1.427043
    39 -3.279519 -12.366086 -9.133277 1.570953 -0.323161 -2.980403
    40 0.028150 2.046865 -7.394535 -0.000007 0.000000 0.000000
    41 0.028148 5.078109 -14.457099 -0.000007 0.000000 0.000000
    42 0.028150 1.326164 -6.433592 -0.000007 0.000000 0.000000
    43 0.025025 1.444311 -3.791368 -0.000007 0.000000 0.000000
    44 5.028150 2.046713 -7.394381 -0.000007 0.000000 -0.000003
  time 25
    0 1.000000 0.335938 -9.140625 -1.570760 -1.391893 -1.570827
    1 2.033348 1.000767 1.937660 3.099206 -0.162014 1.679995
    2 6.028145 0.000003 0.000002 -2.754621 0.195226 -0.433626
    3 11.692553 0.000081 -0.000005 -0.182960 0.293023 -1.769224
    4 11.481672 -0.000089 -0.000024 0.475870 -0.062719 0.800803
    5 3.281560 0.002120 -1.379481 0.099709 -0.198220 -1.489135
    6 1.324282 -0.000010 0.000004 0.000000 -0.042225 -1.118804
    7 0.819210 0.000000 0.000003 0.000001 -0.000003 -1.080416
    8 3.711854 0.109256 -0.568167 0.035575 -0.139373 -1.548439
    9 1.609408 0.000006 -0.000006 -0.000002 0.018263 -0.978698
    10 0.993191 -0.000006 0.000003 0.003596 0.012133 -1.041157
    11 3.786031 0.203223 0.243937 -0.024512 -0.110103 -1.301767
    12 1.684424 -0.000010 0.000009 0.000002 0.017043 -1.205827
    13 1.252151 -0.000006 0.000003 -0.005297 0.006243 -0.876817
    14 3.594223 0.299550 1.109803 -0.057101 -0.103964 -0.824212
    15 1.719435 0.000000 -0.000005 -0.000004 0.000021 -1.371595
    16 1.005925 -0.000006 0.000003 0.000005 0.000012 -0.651744
    17 0.298214 -0.634094 0.426700 -1.731364 -0.797229 -0.001278
    18 2.633559 0.000000 -0.000008 -0.000002 0.025742 0.382451
    19 1.308566 0.000001 -0.000002 0.009494 0.069102 -0.027160
    20 2.033356 1.000772 -1.937610 -0.128177 0.172990 -2.038336
    21 6.028141 0.000000 -0.000002 -0.579533 0.974367 -2.218628
    22 11.692556 0.000000 -0.000002 0.038624 -0.039441 -1.547257
    23 11.481703 -0.000001 -0.000005 -0.897907 -0.029723 0.559603
    24 2.910429 -0.023166 1.400148 -0.005263 -0.206929 -1.324872
    25 1.284180 -0.000004 0.000001 0.000007 0.149810 -0.524417
    26 0.842285 0.000006 -0.000003 -0.072546 0.052861 -1.162485
    27 3.368063 0.007377 0.618550 0.028697 -0.175678 -1.457848
    28 1.610352 0.000000 -0.000001 -0.000008 0.158685 -0.726008
    29 1.020534 -0.000004 -0.000002 0.015301 -0.014044 -1.343747
    30 3.551622 0.023917 -0.200566 -0.009120 -0.241475 -1.194131
    31 1.668799 0.000002 0.000006 0.000002 0.186682 -0.954616
    32 1.240434 0.000002 0.000006 0.000002 -0.000011 -1.431094
    33 3.449668 0.054213 -1.089087 0.091997 -0.029766 0.387340
    34 1.711616 0.000008 0.000011 0.000003 -0.091953 -1.032126
    35 1.002005 0.000000 0.000006 0.004306 -0.011259 -0.538636
    36 0.075534 -0.738749 -0.759723 1.210212 0.533398 -0.558222
    37 2.512460 -0.000008 -0.000004 -0.000002 -0.000001 0.359159
    38 1.156220 0.667987 -0.000008 -0.082342 -0.117571 1.427043
    39 -3.498276 -12.498903 -8.762172 1.560631 -0.297191 -2.989253
    40 0.028150 2.046865 -7.394535 -0.000007 0.000000 0.000000
    41 0.028148 5.078109 -15.125088 -0.000007 0.000000 0.000000
    42 0.028150 1.326164 -6.433592 -0.000007 0.000000 0.000000
    43 0.025025 1.444311 -3.791368 -0.000007 0.000000 0.000000
    44 5.028150 2.046713 -7.394381 -0.000007 0.000000 -0.000003
  time 26
    0 1.000000 0.335938 -9.140625 -1.570760 -1.391893 -1.570827
    1 2.033348 1.000767 1.937660 3.099206 -0.162014 1.679995
    2 6.028145 0.000003 0.000002 -2.729734 0.150599 -0.409870
    3 11.692553 0.000081 -0.000005 -0.172150 0.294917 -1.732001
    4 11.481672 -0.000089 -0.000024 0.381692 -0.001504 0.750798
    5 3.281560 0.002120 -1.379481 0.099709 -0.198220 -1.489135
    6 1.324282 -0.000010 0.000004 0.000000 -0.040319 -1.033638
    7 0.819210 0.000000 0.000003 0.000001 -0.000003 -0.984885
    8 3.711854 0.109256 -0.568167 0.035575 -0.139373 -1.548439
    9 1.609408 0.000006 -0.000006 -0.000002 0.015998 -0.884116
    10 0.993191 -0.000006 0.000003 0.003656 0.010396 -0.940410
    11 3.786031 0.203223 0.243937 -0.024512 -0.110103 -1.301767
    12 1.684424 -0.000010 0.000009 0.000002 0.015605 -1.116893
    13 1.252151 -0.000006 0.000003 -0.004255 0.005308 -0.817695
    14 3.594223 0.299550 1.109803 -0.057101 -0.103964 -0.824212
    15 1.719435 0.000000 -0.000005 -0.000004 0.000021 -1.336556
    16 1.005925 -0.000006 0.000003 0.000005 0.000012 -0.616261
    17 0.298214 -0.634094 0.426700 -1.736419 -0.821488 0.004431
    18 2.633559 0.000000 -0.000008 -0.000002 0.028486 0.348490
    19 1.308566 0.000001 -0.000002 0.009374 0.054086 0.043141
    20 2.033356 1.000772 -1.937610 -0.128177 0.172990 -2.038336
    21 6.028141 0.000000 -0.000002 -0.589326 0.982341 -2.246724
    22 11.692556 0.000000 -0.000002 0.037917 -0.039417 -1.529262
    23 11.481703 -0.000001 -0.000005 -0.859228 -0.045402 0.567773
    24 2.910429 -0.023166 1.400148 -0.005249 -0.206929 -1.324872
    25 1.284180 -0.000004 0.000001 0.000007 0.149810 -0.524417
    26 0.842285 0.000006 -0.000003 -0.072546 0.052861 -1.162485
    27 3.368063 0.007377 0.618550 0.028697 -0.175678 -1.457848
    28 1.610352 0.000000 -0.000001 -0.000008 0.158685 -0.726008
    29 1.020534 -0.000004 -0.000002 0.015301 -0.014044 -1.343778
    30 3.551622 0.023917 -0.200566 -0.009120 -0.241475 -1.194131
    31 1.668799 0.000002 0.000006 0.000002 0.186670 -0.954616
    32 1.240434 0.000002 0.000006 0.000002 -0.000011 -1.431094
    33 3.445761 0.054213 -1.089087 0.092120 -0.029653 0.393071
    34 1.711616 0.000008 0.000011 0.000003 -0.102044 -1.207372
    35 1.005912 0.000000 0.000006 0.006572 -0.015046 -0.629945
    36 0.075534 -0.738749 -0.755817 1.210212 0.533398 -0.558222
    37 2.512460 -0.000008 -0.000004 -0.000002 -0.000001 0.359159
    38 1.156220 0.667987 -0.000008 -0.082342 -0.117571 1.427043
    39 -3.752190 -12.631719 -8.445756 1.558303 -0.261443 -3.003543
    40 0.028150 2.046865 -7.394535 -0.000007 0.000000 0.000000
    41 0.028148 5.078109 -15.644635 -0.000007 0.000000 0.000000
    42 0.028150 1.326164 -6.433592 -0.000007 0.000000 0.000000
    43 0.025025 1.444311 -3.791368 -0.000007 0.000000 0.000000
    44 5.028150 2.046713 -7.394381 -0.000007 0.000000 -0.000003
  time 27
    0 1.000000 0.335938 -9.140625 -1.570760 -1.391893 -1.570827
    1 2.033348 1.000767 1.937660 3.099206 -0.162014 1.679995
    2 6.028145 0.000003 0.000002 -2.707827 0.094064 -0.376773
    3 11.692553 0.000081 -0.000005 -0.157241 0.296846 -1.680846
    4 11.481672 -0.000089 -0.000024 0.283765 0.058431 0.698411
    5 3.281560 0.002120 -1.379481 0.099726 -0.198220 -1.489135
    6 1.324282 -0.000010 0.000004 0.000000 -0.038114 -0.947509
    7 0.819210 0.000000 0.000003 0.000001 -0.000003 -0.888223
    8 3.711854 0.109256 -0.568167 0.035575 -0.139373 -1.548439
    9 1.609408 0.000006 -0.000006 -0.000002 0.013699 -0.788477
    10 0.993191 -0.000006 0.000003 0.003524 0.008622 -0.838535
    11 3.786031 0.203223 0.243937 -0.024512 -0.110103 -1.301767
    12 1.684424 -0.000010 0.000009 0.000002 0.014011 -1.026982
    13 1.252151 -0.000006 0.000003 -0.003236 0.004301 -0.757922
    14 3.594223 0.299550 1.113710 -0.057101 -0.103964 -0.824212
    15 1.719435 0.000000 -0.000005 -0.000004 0.000021 -1.301147
    16 1.005925 -0.000006 0.000003 0.000005 0.000012 -0.580400
    17 0.298214 -0.634094 0.426700 -1.741907 -0.846047 0.010536
    18 2.633559 0.000000 -0.000008 -0.000002 0.031243 0.314128
    19 1.308566 0.000001 -0.000002 0.008163 0.038937 0.114173
    20 2.033356 1.000772 -1.937610 -0.128177 0.172990 -2.038336
    21 6.028141 0.000000 -0.000002 -0.595662 0.988264 -2.265341
    22 11.692556 0.000000 -0.000002 0.037162 -0.039381 -1.510059
    23 11.481703 -0.000001 -0.000005 -0.813528 -0.046500 0.570564
    24 2.914335 -0.023166 1.400148 -0.005249 -0.206929 -1.324872
    25 1.284180 -0.000004 0.000001 0.000007 0.149810 -0.524417
    26 0.842285 0.000006 -0.000003 -0.072546 0.052861 -1.162485
    27 3.368063 0.007377 0.622456 0.028697 -0.175678 -1.457848
    28 1.610352 0.000000 -0.000001 -0.000008 0.158685 -0.726008
    29 1.020534 -0.000004 -0.000002 0.015301 -0.014044 -1.343747
    30 3.551622 0.023917 -0.200566 -0.009120 -0.241475 -1.194131
    31 1.668799 0.000002 0.000006 0.000002 0.186670 -0.954616
    32 1.240434 0.000002 0.000006 0.000002 -0.000011 -1.431094
    33 3.449668 0.054213 -1.089087 0.089803 -0.031249 0.300358
    34 1.711616 0.000008 0.000011 0.000003 -0.097802 -1.201693
    35 1.002005 0.000000 0.000006 0.007255 -0.016053 -0.655202
    36 0.075534 -0.738749 -0.759723 1.210212 0.533398 -0.558222
    37 2.512460 -0.000008 -0.000004 -0.000002 -0.000001 0.359159
    38 1.156220 0.667987 -0.000008 -0.082342 -0.117571 1.427043
    39 -4.017823 -12.768442 -8.227000 1.564980 -0.217413 -3.023780
    40 0.028150 2.046865 -7.394535 -0.000007 0.000000 0.000000
    41 0.028148 5.078109 -15.925893 -0.000007 0.000000 0.000000
    42 0.028150 1.326164 -6.433592 -0.000007 0.000000 0.000000
    43 0.025025 1.444311 -3.791368 -0.000007 0.000000 0.000000
    44 5.028150 2.046713 -7.394381 -0.000007 0.000000 -0.000003
  time 28
    0 1.000000 0.335938 -9.140625 -1.570760 -1.391893 -1.570827
    1 2.033348 1.000767 1.937660 3.099206 -0.162014 1.679995
    2 6.028145 0.000003 0.000002 -2.692273 0.029721 -0.337497
    3 11.692553 0.000081 -0.000005 -0.141541 0.298117 -1.627298
    4 11.481672 -0.000089 -0.000024 0.185481 0.118366 0.641405
    5 3.281560 0.002120 -1.383388 0.099726 -0.198220 -1.489135
    6 1.324282 -0.000010 0.000004 0.000000 -0.035621 -0.861838
    7 0.815304 0.000000 0.000003 0.000001 -0.000003 -0.792170
    8 3.711854 0.109256 -0.568167 0.035575 -0.139373 -1.548439
    9 1.609408 0.000006 -0.000006 -0.000002 0.011417 -0.693307
    10 0.993191 -0.000006 0.000003 0.003237 0.006860 -0.737224
    11 3.786031 0.203223 0.243937 -0.024512 -0.110103 -1.301767
    12 1.684424 -0.000010 0.000009 0.000002 0.012321 -0.937559
    13 1.252151 -0.000006 0.000003 -0.002289 0.003235 -0.698475
    14 3.594223 0.299550 1.109803 -0.057101 -0.103964 -0.824212
    15 1.719435 0.000000 -0.000005 -0.000004 0.000021 -1.265969
    16 1.005925 -0.000006 0.000003 0.000005 0.000012 -0.544727
    17 0.298214 -0.634094 0.426700 -1.747720 -0.870413 0.017037
    18 2.633559 0.000000 -0.000008 -0.000002 0.033915 0.279966
    19 1.308566 0.000001 -0.000002 0.005910 0.023992 0.184802
    20 2.033356 1.000772 -1.937610 -0.128177 0.172990 -2.038336
    21 6.028141 0.000000 -0.000002 -0.596815 0.990933 -2.270449
    22 11.692556 0.000000 -0.000002 0.036311 -0.039322 -1.488556
    23 11.481703 -0.000001 -0.000005 -0.763615 -0.035520 0.571109
    24 2.914335 -0.023166 1.400148 -0.005249 -0.206929 -1.324872
    25 1.284180 -0.000004 0.000001 0.000007 0.149810 -0.524417
    26 0.842285 0.000006 -0.000003 -0.072546 0.052861 -1.162485
    27 3.368063 0.007377 0.618550 0.028697 -0.175678 -1.457848
    28 1.610352 0.000000 -0.000001 -0.000008 0.158685 -0.726008
    29 1.020534 -0.000004 -0.000002 0.015301 -0.014044 -1.343747
    30 3.551622 0.023917 -0.200566 -0.009120 -0.241475 -1.194131
    31 1.668799 0.000002 0.000006 0.000002 0.186670 -0.954616
    32 1.240434 0.000002 0.000006 0.000002 -0.000011 -1.431131
    33 3.449668 0.054213 -1.089087 0.084475 -0.033424 0.151350
    34 1.711616 0.000008 0.000011 0.000003 -0.085266 -1.110001
    35 1.002005 0.000000 0.000006 0.007159 -0.015921 -0.651898
    36 0.075534 -0.738749 -0.759723 1.210212 0.533398 -0.558222
    37 2.512460 -0.000008 -0.000004 -0.000002 -0.000001 0.359159
    38 1.156220 0.667987 -0.000008 -0.082342 -0.117571 1.427043
    39 -4.283456 -12.924697 -8.176217 1.572730 -0.166313 -3.048805
    40 0.028150 2.046865 -7.394535 -0.000007 0.000000 0.000000
    41 0.028148 5.078109 -15.859485 -0.000007 0.000000 0.000000
    42 0.028150 1.326164 -6.433592 -0.000007 0.000000 0.000000
    43 0.025025 1.444311 -3.791368 -0.000007 0.000000 0.000000
    44 5.028150 2.046713 -7.394381 -0.000007 0.000000 -0.000003
  time 29
    0 1.000000 0.335938 -9.140625 -1.570760 -1.391893 -1.570827
    1 2.033348 1.000767 1.937660 3.099206 -0.162014 1.679995
    2 6.028145 0.000003 0.000002 -2.688632 -0.059750 -0.272995
    3 11.692553 0.000081 -0.000005 -0.115630 0.298416 -1.539131
    4 11.481672 -0.000089 -0.000024 0.060773 0.191803 0.578875
    5 3.281560 0.002120 -1.383388 0.099709 -0.198220 -1.489135
    6 1.324282 -0.000010 0.000004 0.000000 -0.032290 -0.763647
    7 0.819210 0.000000 0.000003 0.000001 -0.000003 -0.681979
    8 3.711854 0.109256 -0.568167 0.035575 -0.139373 -1.548439
    9 1.609408 0.000006 -0.000006 -0.000002 0.008911 -0.584265
    10 0.993191 -0.000006 0.000003 0.002566 0.004979 -0.621065
    11 3.786031 0.203223 0.243937 -0.024512 -0.110103 -1.301767
    12 1.684424 -0.000010 0.000009 0.000002 0.010212 -0.834994
    13 1.252151 -0.000006 0.000003 -0.001306 0.001929 -0.630332
    14 3.594223 0.299550 1.113710 -0.057837 -0.191091 -0.819132
    15 1.719435 0.000000 -0.000005 -0.000004 0.000021 -1.225627
    16 1.005925 -0.000006 0.000003 0.000005 0.000012 -0.307468
    17 0.298214 -0.634094 0.426700 -1.570698 -0.903466 -0.031079
    18 2.633559 0.000000 -0.000008 0.002994 -0.000936 0.320756
    19 1.308566 0.000001 -0.000002 0.005059 0.007154 0.047707
    20 2.033356 1.000772 -1.937610 -0.128177 0.172990 -2.038336
    21 6.028141 0.000000 -0.000002 -0.587958 0.992398 -2.256373
    22 11.692556 0.000000 -0.000002 0.035377 -0.039250 -1.464812
    23 11.481703 -0.000001 -0.000005 -0.700770 -0.017262 0.574989
    24 2.914335 -0.023166 1.400148 -0.005249 -0.206929 -1.324872
    25 1.284180 -0.000004 0.000001 0.000007 0.149810 -0.524417
    26 0.842285 0.000006 -0.000003 -0.072546 0.052861 -1.162485
    27 3.368063 0.007377 0.618550 0.028697 -0.175678 -1.457848
    28 1.610352 0.000000 -0.000001 -0.000008 0.158685 -0.726008
    29 1.020534 -0.000004 -0.000002 0.015301 -0.014044 -1.343747
    30 3.551622 0.023917 -0.200566 -0.009120 -0.241475 -1.194131
    31 1.668799 0.000002 0.000006 0.000002 0.186670 -0.954616
    32 1.240434 0.000002 0.000006 0.000002 -0.000011 -1.431094
    33 3.449668 0.054213 -1.089087 0.073327 -0.032959 -0.066797
    34 1.711616 0.000008 0.000011 0.000003 -0.061944 -0.943906
    35 1.002005 0.000000 0.000006 0.006584 -0.015022 -0.629753
    36 0.075534 -0.738749 -0.759723 1.210212 0.533398 -0.558222
    37 2.512460 -0.000008 -0.000004 -0.000002 -0.000001 0.359159
    38 1.156220 0.667987 -0.000008 -0.082330 -0.117571 1.427043
    39 -4.623310 -13.100484 -8.340284 1.573342 -0.098492 -3.081955
    40 0.028150 2.046865 -7.394535 -0.000007 0.000000 0.000000
    41 0.028148 5.078109 -14.601634 -0.000007 0.000000 0.000000
    42 0.028150 1.326164 -6.433592 -0.000007 0.000000 0.000000
    43 0.025025 1.444311 -3.791368 -0.000007 0.000000 0.000000
    44 5.028150 2.046713 -7.394381 -0.000007 0.000000 -0.000003
  time 30
    0 1.000000 0.335938 -9.140625 -1.570760 -1.391893 -1.570827
    1 2.033348 1.000767 1.937660 3.099206 -0.162014 1.679995
    2 6.028145 0.000003 0.000002 -2.689228 -0.145600 -0.211361
    3 11.692553 0.000081 -0.000005 -0.087227 0.296235 -1.442310
    4 11.481672 -0.000089 -0.000024 -0.060275 0.271204 0.512535
    5 3.281560 0.002120 -1.379481 0.099709 -0.198220 -1.489135
    6 1.324282 -0.000010 0.000004 0.000000 -0.028910 -0.666511
    7 0.819210 0.000000 0.000003 0.000001 -0.000003 -0.572876
    8 3.711854 0.109256 -0.568167 0.035575 -0.139373 -1.548439
    9 1.609408 0.000006 -0.000006 -0.000002 0.006406 -0.476339
    10 0.993191 -0.000006 0.000003 0.001835 0.003109 -0.506070
    11 3.786031 0.203223 0.243937 -0.024512 -0.110103 -1.301767
    12 1.684424 -0.000010 0.000009 0.000002 0.008091 -0.733539
    13 1.252151 -0.000006 0.000003 -0.000395 0.000610 -0.562798
    14 3.594223 0.299550 1.109803 -0.059267 -0.291254 -0.813106
    15 1.719435 0.000000 -0.000005 -0.000004 0.000021 -1.185654
    16 1.005925 -0.000006 0.000003 0.000005 0.000012 -0.041231
    17 0.298214 -0.634094 0.426700 -1.360171 -0.935425 -0.092230
    18 2.633559 0.000000 -0.000008 0.006482 -0.041564 0.373977
    19 1.308566 0.000001 -0.000002 0.004472 -0.009433 -0.122987
    20 2.033356 1.000772 -1.937610 -0.128177 0.172990 -2.038336
    21 6.028141 0.000000 -0.000002 -0.576293 0.994123 -2.237983
    22 11.692556 0.000000 -0.000002 0.034502 -0.039142 -1.442274
    23 11.481703 -0.000001 -0.000005 -0.637749 0.004060 0.583976
    24 2.910429 -0.023166 1.400148 -0.005249 -0.206929 -1.324872
    25 1.284180 -0.000004 0.000001 0.000007 0.149810 -0.524417
    26 0.842285 0.000006 -0.000003 -0.072546 0.052861 -1.162485
    27 3.368063 0.007377 0.618550 0.028697 -0.175678 -1.457848
    28 1.610352 0.000000 -0.000001 -0.000008 0.158685 -0.726008
    29 1.020534 -0.000004 -0.000002 0.015301 -0.014044 -1.343747
    30 3.551622 0.023917 -0.200566 -0.009120 -0.241475 -1.194131
    31 1.668799 0.000002 0.000006 0.000002 0.186682 -0.954616
    32 1.240434 0.000002 0.000006 0.000002 -0.000011 -1.431094
    33 3.445761 0.054213 -1.089087 0.058296 -0.034744 -0.290025
    34 1.711616 0.000008 0.000011 0.000003 -0.037411 -0.769636
    35 1.002005 0.000000 0.000006 0.005912 -0.014015 -0.604879
    36 0.075534 -0.738749 -0.759723 1.210212 0.533398 -0.558222
    37 2.512460 -0.000008 -0.000004 -0.000002 -0.000001 0.359159
    38 1.156220 0.667987 -0.000008 -0.082330 -0.117571 1.427043
    39 -4.986603 -13.260645 -8.543416 1.572025 -0.030609 -3.121414
    40 0.028150 2.046865 -7.394535 -0.000007 0.000000 0.000000
    41 0.028148 5.078109 -13.175810 -0.000007 0.000000 0.000000
    42 0.028150 1.326164 -6.433592 -0.000007 0.000000 0.000000
    43 0.025025 1.444311 -3.791368 -0.000007 0.000000 0.000000
    44 5.028150 2.046713 -7.394381 -0.000007 0.000000 -0.000003
  time 31
    0 1.000000 0.335938 -9.140625 -1.570760 -1.391893 -1.570827
    1 2.033348 1.000767 1.937660 3.099206 -0.162014 1.679995
    2 6.028145 0.000003 0.000002 -2.690221 -0.183115 -0.184736
    3 11.692553 0.000081 -0.000005 -0.073744 0.294282 -1.395939
    4 11.481672 -0.000089 -0.000024 -0.113657 0.309404 0.481198
    5 3.281560 0.002120 -1.383388 0.099709 -0.198220 -1.489135
    6 1.324282 -0.000010 0.000004 0.000000 -0.027376 -0.622484
    7 0.819210 0.000000 0.000003 0.000001 -0.000003 -0.523501
    8 3.711854 0.109256 -0.568167 0.035575 -0.139373 -1.548439
    9 1.609408 0.000006 -0.000006 -0.000002 0.005257 -0.427432
    10 0.993191 -0.000006 0.000003 0.001475 0.002258 -0.454043
    11 3.786031 0.203223 0.243937 -0.024524 -0.110103 -1.301767
    12 1.684424 -0.000010 0.000009 0.000002 0.007120 -0.687584
    13 1.252151 -0.000006 0.000003 0.000000 0.000011 -0.532282
    14 3.594223 0.299550 1.113710 -0.060226 -0.339173 -0.810067
    15 1.719435 0.000000 -0.000005 -0.000004 0.000021 -1.167535
    16 1.005925 -0.000006 0.000003 0.000005 0.000012 0.085078
    17 0.298214 -0.634094 0.430606 -1.257200 -0.949324 -0.123416
    18 2.637466 0.000000 -0.000008 0.008147 -0.061050 0.400421
    19 1.308566 0.000001 -0.000002 0.004280 -0.016947 -0.206632
    20 2.033356 1.000772 -1.937610 -0.128177 0.172990 -2.038336
    21 6.028141 0.000000 -0.000002 -0.569812 0.995327 -2.228107
    22 11.692556 0.000000 -0.000002 0.034130 -0.039094 -1.432788
    23 11.481703 -0.000001 -0.000005 -0.609018 0.014580 0.589933
    24 2.914335 -0.023166 1.400148 -0.005249 -0.206929 -1.324872
    25 1.284180 -0.000004 0.000001 0.000007 0.149810 -0.524417
    26 0.842285 0.000006 -0.000003 -0.072546 0.052861 -1.162485
    27 3.368063 0.007377 0.622456 0.028697 -0.175678 -1.457848
    28 1.610352 0.000000 -0.000001 -0.000008 0.158685 -0.726008
    29 1.020534 -0.000004 -0.000002 0.015301 -0.014044 -1.343778
    30 3.551622 0.023917 -0.200566 -0.009120 -0.241475 -1.194131
    31 1.668799 0.000002 0.000006 0.000002 0.186682 -0.954616
    32 1.240434 0.000002 0.000006 0.000002 -0.000011 -1.431094
    33 3.449668 0.054213 -1.089087 0.050378 -0.036667 -0.392337
    34 1.711616 0.000008 0.000011 0.000003 -0.026050 -0.688976
    35 1.002005 0.000000 0.000006 0.005613 -0.013536 -0.593093
    36 0.075534 -0.738749 -0.755817 1.210212 0.533398 -0.558222
    37 2.512460 -0.000008 -0.000004 -0.000002 -0.000001 0.359159
    38 1.156220 0.667987 -0.000008 -0.082330 -0.117571 1.427043
    39 -5.158483 -13.327053 -8.648888 1.570831 -0.000031 -3.141580
    40 0.028150 2.046865 -7.394535 -0.000007 0.000000 0.000000
    41 0.028148 5.078109 -12.500008 -0.000007 0.000000 0.000000
    42 0.028150 1.326164 -6.433592 -0.000007 0.000000 0.000000
    43 0.025025 1.444311 -3.791368 -0.000007 0.000000 0.000000
    44 5.028150 2.046713 -7.394381 -0.000007 0.000000 -0.000003
end
