// Created by Crowbar++ 0.74
version 1
nodes
  0 "ValveBiped.Bip01_Spine4" -1
  1 "ValveBiped.Bip01_L_Clavicle" 0
  2 "ValveBiped.Bip01_L_UpperArm" 1
  3 "ValveBiped.Bip01_L_Forearm" 2
  4 "ValveBiped.Bip01_L_Hand" 3
  5 "ValveBiped.Bip01_L_Finger4" 4
  6 "ValveBiped.Bip01_L_Finger41" 5
  7 "ValveBiped.Bip01_L_Finger42" 6
  8 "ValveBiped.Bip01_L_Finger3" 4
  9 "ValveBiped.Bip01_L_Finger31" 8
  10 "ValveBiped.Bip01_L_Finger32" 9
  11 "ValveBiped.Bip01_L_Finger2" 4
  12 "ValveBiped.Bip01_L_Finger21" 11
  13 "ValveBiped.Bip01_L_Finger22" 12
  14 "ValveBiped.Bip01_L_Finger1" 4
  15 "ValveBiped.Bip01_L_Finger11" 14
  16 "ValveBiped.Bip01_L_Finger12" 15
  17 "ValveBiped.Bip01_L_Finger0" 4
  18 "ValveBiped.Bip01_L_Finger01" 17
  19 "ValveBiped.Bip01_L_Finger02" 18
  20 "ValveBiped.Bip01_R_Clavicle" 0
  21 "ValveBiped.Bip01_R_UpperArm" 20
  22 "ValveBiped.Bip01_R_Forearm" 21
  23 "ValveBiped.Bip01_R_Hand" 22
  24 "ValveBiped.Bip01_R_Finger4" 23
  25 "ValveBiped.Bip01_R_Finger41" 24
  26 "ValveBiped.Bip01_R_Finger42" 25
  27 "ValveBiped.Bip01_R_Finger3" 23
  28 "ValveBiped.Bip01_R_Finger31" 27
  29 "ValveBiped.Bip01_R_Finger32" 28
  30 "ValveBiped.Bip01_R_Finger2" 23
  31 "ValveBiped.Bip01_R_Finger21" 30
  32 "ValveBiped.Bip01_R_Finger22" 31
  33 "ValveBiped.Bip01_R_Finger1" 23
  34 "ValveBiped.Bip01_R_Finger11" 33
  35 "ValveBiped.Bip01_R_Finger12" 34
  36 "ValveBiped.Bip01_R_Finger0" 23
  37 "ValveBiped.Bip01_R_Finger01" 36
  38 "ValveBiped.Bip01_R_Finger02" 37
  39 "v_weapon.Deagle_Parent" -1
  40 "v_weapon.Deagle_Trigger" 39
  41 "v_weapon.Deagle_Slide" 39
  42 "v_weapon.Deagle_Hammer" 39
  43 "v_weapon.Deagle_ClipRelease" 39
  44 "v_weapon.Deagle_Clip" 39
  45 "v_weapon.Deagle_Clip2" -1
end
skeleton
  time 0
    0 0.500000 -3.660156 -8.140625 -1.570760 -1.391893 -1.570827
    1 2.033348 1.000767 1.937660 1.596636 -1.286515 2.942963
    2 6.028145 0.000003 0.000002 -1.391538 -0.431709 -1.032373
    3 11.692553 0.000081 -0.000005 -0.000003 0.000024 -0.881645
    4 11.481672 -0.000089 -0.000024 2.037868 0.290327 0.743660
    5 3.281559 0.002119 -1.383387 -0.049496 -0.068116 0.021703
    6 1.324282 -0.000006 0.000005 0.000000 -0.042033 -0.320226
    7 0.819336 0.000000 0.000000 0.000000 0.000000 -0.523564
    8 3.711852 0.109257 -0.568167 -0.136008 -0.074880 -0.246333
    9 1.609408 0.000006 -0.000007 -0.000002 -0.004225 -0.312298
    10 0.993192 -0.000004 0.000003 0.001032 0.001467 -0.401746
    11 3.786029 0.203226 0.243938 -0.121192 -0.054747 -0.317019
    12 1.684420 -0.000011 0.000009 0.000002 -0.000874 -0.343933
    13 1.256836 0.000000 -0.000001 0.000000 0.000000 -0.532321
    14 3.594224 0.299551 1.109803 -0.102866 -0.059027 -0.276138
    15 1.723633 0.000002 0.000001 0.000000 0.000000 -0.287983
    16 1.002930 -0.000010 0.000000 0.000000 0.000000 -0.445035
    17 0.298214 -0.634093 0.426699 -1.588329 -0.717363 -0.213734
    18 2.637464 0.000002 -0.000006 -0.000002 -0.117905 0.256017
    19 1.308564 0.000000 -0.000002 -0.002024 -0.006209 0.331225
    20 2.033356 1.000772 -1.937610 -1.668474 1.286518 2.942953
    21 6.028141 0.000000 -0.000002 1.298027 -0.240201 -1.411786
    22 11.692554 0.000000 -0.000001 0.000034 -0.000048 -1.820531
    23 11.481699 -0.000001 -0.000007 -2.394567 0.376583 1.235889
    24 2.914337 -0.027074 1.400147 -0.183864 -0.133164 -0.008676
    25 1.285216 -0.000004 -0.000001 0.000002 -0.020612 -0.034926
    26 0.838747 -0.000002 -0.000002 0.022255 -0.084476 0.204479
    27 3.371967 0.003471 0.618550 0.026959 -0.189161 0.030341
    28 1.605515 0.000000 0.000001 0.000003 0.008830 0.097687
    29 1.024438 -0.000002 -0.000003 -0.000590 0.010548 0.195319
    30 3.555526 0.023915 -0.200566 0.068768 -0.207379 0.070919
    31 1.668803 0.000002 0.000006 0.000002 0.006613 0.127203
    32 1.240434 0.000004 0.000006 0.000002 -0.000011 0.082000
    33 3.453572 0.050307 -1.089087 -0.025021 0.104007 -1.220037
    34 1.711614 0.000008 0.000011 0.000003 0.033178 0.261569
    35 1.005912 0.000002 0.000008 -0.000919 0.018211 0.092023
    36 0.079440 -0.738750 -0.759723 1.346792 1.063744 -0.280353
    37 2.508554 -0.000010 -0.000006 -0.000002 -0.000001 0.359159
    38 1.234347 -0.457047 -0.152354 0.038978 0.053150 0.183289
    39 -2.722701 -12.522563 -23.736075 0.048963 -0.202661 -2.115700
    40 0.000000 2.847656 -0.358400 0.000000 0.000000 0.000000
    41 -0.000001 3.923547 1.282475 0.000000 0.000000 0.000000
    42 0.000000 3.251565 2.448801 0.785371 0.000001 -0.000001
    43 0.000000 2.659132 1.094103 0.000000 0.000000 -0.000009
    44 0.000000 1.659210 1.354694 0.000000 0.000000 0.000000
    45 -18.013046 11.653858 -4.763837 1.570796 0.000000 -4.712349
  time 1
    0 0.500000 -3.660156 -8.140625 -1.570760 -1.391893 -1.570827
    1 2.033348 1.000767 1.937660 1.596636 -1.286515 2.942963
    2 6.028145 0.000003 0.000002 -1.391538 -0.431709 -1.032373
    3 11.692553 0.000081 -0.000005 -0.000003 0.000024 -0.881645
    4 11.481672 -0.000089 -0.000024 2.037868 0.290327 0.743660
    5 3.281559 0.002119 -1.383387 -0.049496 -0.068116 0.021703
    6 1.324282 -0.000006 0.000005 0.000000 -0.042033 -0.320226
    7 0.819336 0.000000 0.000000 0.000000 0.000000 -0.523564
    8 3.711852 0.109257 -0.568167 -0.136008 -0.074880 -0.246333
    9 1.609408 0.000006 -0.000007 -0.000002 -0.004225 -0.312298
    10 0.993192 -0.000004 0.000003 0.001032 0.001467 -0.401746
    11 3.786029 0.203226 0.243938 -0.121192 -0.054747 -0.317019
    12 1.684420 -0.000011 0.000009 0.000002 -0.000874 -0.343933
    13 1.256836 0.000000 -0.000001 0.000000 0.000000 -0.532321
    14 3.594224 0.299551 1.109803 -0.102866 -0.059027 -0.276138
    15 1.723633 0.000002 0.000001 0.000000 0.000000 -0.287983
    16 1.002930 -0.000010 0.000000 0.000000 0.000000 -0.445035
    17 0.298214 -0.634093 0.426699 -1.588329 -0.717363 -0.213734
    18 2.637464 0.000002 -0.000006 -0.000002 -0.117905 0.256017
    19 1.308564 0.000000 -0.000002 -0.002024 -0.006209 0.331225
    20 2.033356 1.000772 -1.937610 -1.668474 1.286518 2.942953
    21 6.028141 0.000000 -0.000002 1.298027 -0.240201 -1.411786
    22 11.692554 0.000000 -0.000001 0.000034 -0.000048 -1.820531
    23 11.481699 -0.000001 -0.000007 -2.394567 0.376583 1.235889
    24 2.914337 -0.027074 1.400147 -0.183864 -0.133164 -0.008676
    25 1.285216 -0.000004 -0.000001 0.000002 -0.020612 -0.034926
    26 0.838747 -0.000002 -0.000002 0.022255 -0.084476 0.204479
    27 3.371967 0.003471 0.618550 0.026959 -0.189161 0.030341
    28 1.605515 0.000000 0.000001 0.000003 0.008830 0.097687
    29 1.024438 -0.000002 -0.000003 -0.000590 0.010548 0.195319
    30 3.555526 0.023915 -0.200566 0.068768 -0.207379 0.070919
    31 1.668803 0.000002 0.000006 0.000002 0.006613 0.127203
    32 1.240434 0.000004 0.000006 0.000002 -0.000011 0.082000
    33 3.453572 0.050307 -1.089087 -0.025021 0.104007 -1.220037
    34 1.711614 0.000008 0.000011 0.000003 0.033178 0.261569
    35 1.005912 0.000002 0.000008 -0.000919 0.018211 0.092023
    36 0.079440 -0.738750 -0.759723 1.346792 1.063744 -0.280353
    37 2.508554 -0.000010 -0.000006 -0.000002 -0.000001 0.359159
    38 1.234347 -0.457047 -0.152354 0.038978 0.053150 0.183289
    39 -2.722701 -12.522563 -23.736075 0.048963 -0.202661 -2.115700
    40 0.000000 2.847656 -0.358400 0.000000 0.000000 0.000000
    41 -0.000001 3.923547 1.282475 0.000000 0.000000 0.000000
    42 0.000000 3.251565 2.448801 0.785371 0.000001 -0.000001
    43 0.000000 2.659132 1.094103 0.000000 0.000000 -0.000009
    44 0.000000 1.659210 1.354694 0.000000 0.000000 0.000000
    45 -18.013046 11.653858 -4.763837 1.570796 0.000000 -4.712349
  time 2
    0 0.500000 -3.660156 -8.140625 -1.570760 -1.391893 -1.570827
    1 2.033348 1.000767 1.937660 1.596636 -1.286515 2.942963
    2 6.028145 0.000003 0.000002 -1.395919 -0.429491 -1.022894
    3 11.692553 0.000081 -0.000005 -0.000003 0.000024 -0.883118
    4 11.481672 -0.000089 -0.000024 1.995230 0.251938 0.742156
    5 3.281559 0.002119 -1.383387 -0.049496 -0.068116 0.021703
    6 1.324282 -0.000006 0.000005 0.000000 -0.042033 -0.320259
    7 0.819336 0.000000 0.000000 0.000000 0.000000 -0.523564
    8 3.711852 0.109257 -0.568167 -0.136008 -0.074892 -0.246333
    9 1.609408 0.000006 -0.000007 -0.000002 -0.004225 -0.312298
    10 0.993192 -0.000004 0.000003 0.001032 0.001479 -0.401746
    11 3.786029 0.203226 0.243938 -0.121192 -0.054747 -0.317019
    12 1.684420 -0.000011 0.000009 0.000002 -0.000874 -0.343933
    13 1.256836 0.000000 -0.000001 0.000000 0.000000 -0.532321
    14 3.594224 0.299551 1.113710 -0.102866 -0.059027 -0.276138
    15 1.723633 0.000002 0.000001 0.000000 0.000000 -0.287983
    16 1.002930 -0.000010 0.000000 0.000000 0.000000 -0.445035
    17 0.298214 -0.634093 0.426699 -1.588341 -0.717363 -0.213734
    18 2.633557 0.000002 -0.000006 -0.000002 -0.117905 0.256017
    19 1.308564 0.000000 -0.000002 -0.002024 -0.006209 0.331225
    20 2.033356 1.000772 -1.937610 -1.668474 1.286518 2.942953
    21 6.028141 0.000000 -0.000002 1.258027 -0.086505 -1.380748
    22 11.692554 0.000000 -0.000001 0.000046 -0.000024 -1.807896
    23 11.481699 -0.000001 -0.000007 -2.235078 0.309076 1.351033
    24 2.910431 -0.023168 1.400147 -0.183903 -0.133212 -0.007112
    25 1.285216 -0.000004 -0.000001 0.000002 -0.020816 -0.033982
    26 0.838747 -0.000002 -0.000002 0.022231 -0.084788 0.206824
    27 3.368061 0.007377 0.618550 0.026923 -0.189209 0.032091
    28 1.605515 0.000000 0.000001 0.000003 0.008854 0.099652
    29 1.024438 -0.000002 -0.000003 -0.000578 0.010596 0.197910
    30 3.551620 0.023915 -0.200566 0.068816 -0.207403 0.072559
    31 1.668803 0.000002 0.000006 0.000002 0.006781 0.129422
    32 1.240434 0.000004 0.000006 0.000002 -0.000011 0.084591
    33 3.449666 0.054213 -1.085181 -0.022042 0.108058 -1.187351
    34 1.711614 0.000008 0.000011 0.000003 0.021433 0.141505
    35 1.002005 0.000002 0.000008 -0.001302 0.014101 0.006674
    36 0.075534 -0.738750 -0.755817 1.346792 1.063744 -0.280353
    37 2.512460 -0.000010 -0.000006 -0.000002 -0.000001 0.359159
    38 1.234347 -0.457047 -0.152354 0.038978 0.053150 0.183289
    39 -2.175810 -13.928856 -22.157902 0.043997 -0.194758 -2.213490
    40 0.000000 2.847656 -0.358400 0.000000 0.000000 0.000000
    41 -0.000001 3.923547 1.282475 0.000000 0.000000 0.000000
    42 0.000000 3.251565 2.448801 0.785371 0.000001 -0.000001
    43 0.000000 2.659132 1.094103 0.000000 0.000000 -0.000009
    44 0.000000 1.659210 1.354694 0.000000 0.000000 0.000000
    45 -18.013046 11.653858 -4.763837 1.570796 0.000000 -4.712349
  time 3
    0 0.500000 -3.660156 -8.140625 -1.570760 -1.391893 -1.570827
    1 2.033348 1.000767 1.937660 1.596636 -1.286515 2.942963
    2 6.028145 0.000003 0.000002 -1.403322 -0.424976 -1.006306
    3 11.692553 0.000081 -0.000005 -0.000003 0.000024 -0.889152
    4 11.481672 -0.000089 -0.000024 1.957922 0.205673 0.747984
    5 3.281559 0.002119 -1.379481 -0.049496 -0.068116 0.021703
    6 1.324282 -0.000006 0.000005 0.000000 -0.042033 -0.320259
    7 0.819336 0.000000 0.000000 0.000000 0.000000 -0.523564
    8 3.711852 0.109257 -0.568167 -0.136008 -0.074880 -0.246333
    9 1.609408 0.000006 -0.000007 -0.000002 -0.004225 -0.312298
    10 0.993192 -0.000004 0.000003 0.001032 0.001467 -0.401746
    11 3.786029 0.203226 0.247844 -0.121192 -0.054747 -0.317019
    12 1.684420 -0.000011 0.000009 0.000002 -0.000874 -0.343971
    13 1.256836 0.000000 -0.000001 0.000000 0.000000 -0.532321
    14 3.594224 0.299551 1.113710 -0.102866 -0.059027 -0.276138
    15 1.723633 0.000002 0.000001 0.000000 0.000000 -0.287983
    16 1.002930 -0.000010 0.000000 0.000000 0.000000 -0.445035
    17 0.298214 -0.634093 0.426699 -1.588329 -0.717363 -0.213734
    18 2.637464 0.000002 -0.000006 -0.000002 -0.117905 0.256017
    19 1.308564 0.000000 -0.000002 -0.002024 -0.006221 0.331225
    20 2.033356 1.000772 -1.937610 -1.668474 1.286518 2.942953
    21 6.028141 0.000000 -0.000002 1.230386 0.077732 -1.340494
    22 11.692554 0.000000 -0.000001 0.000034 -0.000024 -1.787582
    23 11.481699 -0.000001 -0.000007 -2.076313 0.214416 1.458463
    24 2.914337 -0.023168 1.400147 -0.184123 -0.133356 -0.002744
    25 1.285216 -0.000004 -0.000001 0.000002 -0.021403 -0.031351
    26 0.842653 -0.000002 -0.000002 0.022160 -0.085651 0.213374
    27 3.368061 0.007377 0.622456 0.026791 -0.189328 0.036996
    28 1.605515 0.000000 0.000001 0.000003 0.008937 0.105162
    29 1.024438 -0.000002 -0.000003 -0.000554 0.010740 0.205016
    30 3.555526 0.023915 -0.200566 0.068960 -0.207463 0.077134
    31 1.668803 0.000002 0.000006 0.000002 0.007248 0.135599
    32 1.240434 0.000004 0.000006 0.000002 -0.000011 0.091822
    33 3.449666 0.054213 -1.089087 -0.018714 0.112384 -1.151159
    34 1.711614 0.000008 0.000011 0.000003 0.008262 0.008829
    35 1.002005 0.000002 0.000008 -0.001338 0.009546 -0.087688
    36 0.075534 -0.738750 -0.759723 1.346792 1.063744 -0.280353
    37 2.512460 -0.000010 -0.000006 -0.000002 -0.000001 0.359159
    38 1.238254 -0.457047 -0.152354 0.038978 0.053150 0.183289
    39 -1.804705 -15.382025 -20.505508 0.018213 -0.168691 -2.314528
    40 0.000000 2.847656 -0.358400 0.000000 0.000000 0.000000
    41 -0.000001 3.923547 1.282475 0.000000 0.000000 0.000000
    42 0.000000 3.251565 2.448801 0.785371 0.000001 -0.000001
    43 0.000000 2.659132 1.094103 0.000000 0.000000 -0.000009
    44 0.000000 1.659210 1.354694 0.000000 0.000000 0.000000
    45 -18.013046 11.653858 -4.763837 1.570796 0.000000 -4.712349
  time 4
    0 0.500000 -3.660156 -8.140625 -1.570760 -1.391893 -1.570827
    1 2.033348 1.000767 1.937660 1.596636 -1.286515 2.942963
    2 6.028145 0.000003 0.000002 -1.410222 -0.419877 -0.990508
    3 11.692553 0.000081 -0.000005 -0.000003 0.000024 -0.897562
    4 11.481672 -0.000089 -0.000024 1.920117 0.157756 0.756412
    5 3.281559 0.002119 -1.379481 -0.049496 -0.068128 0.021703
    6 1.324282 -0.000006 0.000005 0.000000 -0.042033 -0.320259
    7 0.819336 0.000000 0.000000 0.000000 0.000000 -0.523564
    8 3.711852 0.109257 -0.568167 -0.136008 -0.074892 -0.246333
    9 1.609408 0.000006 -0.000007 -0.000002 -0.004225 -0.312298
    10 0.993192 -0.000004 0.000003 0.001032 0.001467 -0.401746
    11 3.786029 0.203226 0.243938 -0.121192 -0.054747 -0.316992
    12 1.684420 -0.000011 0.000009 0.000002 -0.000874 -0.343971
    13 1.256836 0.000000 -0.000001 0.000000 0.000000 -0.532321
    14 3.594224 0.299551 1.113710 -0.102866 -0.059027 -0.276138
    15 1.723633 0.000002 0.000001 0.000000 0.000000 -0.287983
    16 1.002930 -0.000010 0.000000 0.000000 0.000000 -0.445035
    17 0.298214 -0.634093 0.426699 -1.588317 -0.717363 -0.213774
    18 2.633557 0.000002 -0.000006 -0.000002 -0.117905 0.256029
    19 1.308564 0.000000 -0.000002 -0.002024 -0.006209 0.331225
    20 2.033356 1.000772 -1.937610 -1.668474 1.286518 2.942953
    21 6.028141 0.000000 -0.000002 1.220232 0.246470 -1.284708
    22 11.692554 0.000000 -0.000001 0.000046 -0.000024 -1.761658
    23 11.481699 -0.000001 -0.000007 -1.926289 0.090229 1.547503
    24 2.914337 -0.023168 1.400147 -0.184422 -0.133559 0.003837
    25 1.285216 -0.000004 -0.000001 0.000002 -0.022302 -0.027360
    26 0.842653 -0.000002 -0.000002 0.022052 -0.086957 0.223279
    27 3.368061 0.007377 0.618550 0.026588 -0.189496 0.044425
    28 1.605515 0.000000 0.000001 0.000003 0.009081 0.113490
    29 1.024438 -0.000002 -0.000003 -0.000506 0.010968 0.215799
    30 3.551620 0.023915 -0.200566 0.069176 -0.207571 0.084062
    31 1.668803 0.000002 0.000006 0.000002 0.007991 0.144956
    32 1.240434 0.000004 0.000006 0.000002 -0.000011 0.102804
    33 3.449666 0.054213 -1.085181 -0.015511 0.116363 -1.116608
    34 1.711614 0.000008 0.000011 0.000003 -0.004190 -0.117421
    35 1.002005 0.000002 0.000008 -0.000979 0.005232 -0.177556
    36 0.075534 -0.738750 -0.759723 1.346792 1.063744 -0.280353
    37 2.508554 -0.000010 -0.000006 -0.000002 -0.000001 0.359159
    38 1.234347 -0.457047 -0.152354 0.038978 0.053150 0.183289
    39 -1.640637 -16.835194 -18.802331 0.001978 -0.129650 -2.412238
    40 0.000000 2.847656 -0.358400 0.000000 0.000000 0.000000
    41 -0.000001 3.923547 1.282475 0.000000 0.000000 0.000000
    42 0.000000 3.251565 2.448801 0.785371 0.000001 -0.000001
    43 0.000000 2.659132 1.094103 0.000000 0.000000 -0.000009
    44 0.000000 1.659210 1.354694 0.000000 0.000000 0.000000
    45 -18.013046 11.653858 -4.763837 1.570796 0.000000 -4.712349
  time 5
    0 0.500000 -3.660156 -8.140625 -1.570760 -1.391893 -1.570827
    1 2.033348 1.000767 1.937660 1.596636 -1.286515 2.942963
    2 6.028145 0.000003 0.000002 -1.413495 -0.416725 -0.983116
    3 11.692553 0.000081 -0.000005 -0.000003 0.000024 -0.903026
    4 11.481672 -0.000089 -0.000024 1.876425 0.114793 0.761362
    5 3.281559 0.002119 -1.379481 -0.049496 -0.068116 0.021703
    6 1.324282 -0.000006 0.000005 0.000000 -0.042021 -0.320226
    7 0.819336 0.000000 0.000000 0.000000 0.000000 -0.523564
    8 3.711852 0.109257 -0.568167 -0.136008 -0.074880 -0.246333
    9 1.609408 0.000006 -0.000007 -0.000002 -0.004225 -0.312298
    10 0.993192 -0.000004 0.000003 0.001032 0.001467 -0.401746
    11 3.786029 0.203226 0.243938 -0.121192 -0.054747 -0.317019
    12 1.684420 -0.000011 0.000009 0.000002 -0.000874 -0.343933
    13 1.256836 0.000000 -0.000001 0.000000 0.000000 -0.532321
    14 3.594224 0.299551 1.113710 -0.102866 -0.059027 -0.276138
    15 1.723633 0.000002 0.000001 0.000000 0.000000 -0.287983
    16 1.002930 -0.000010 0.000000 0.000000 0.000000 -0.445035
    17 0.298214 -0.634093 0.426699 -1.588329 -0.717363 -0.213734
    18 2.633557 0.000002 -0.000006 -0.000002 -0.117905 0.256017
    19 1.308564 0.000000 -0.000002 -0.002024 -0.006209 0.331225
    20 2.033356 1.000772 -1.937610 -1.668474 1.286518 2.942953
    21 6.028141 0.000000 -0.000002 1.234845 0.410437 -1.205663
    22 11.692554 0.000000 -0.000001 0.000046 -0.000024 -1.731486
    23 11.481699 -0.000001 -0.000007 -1.788808 -0.059591 1.607817
    24 2.914337 -0.023168 1.400147 -0.184781 -0.133811 0.012159
    25 1.285216 -0.000004 -0.000001 0.000002 -0.023429 -0.022298
    26 0.842653 -0.000002 -0.000002 0.021872 -0.088599 0.235811
    27 3.368061 0.007377 0.622456 0.026336 -0.189700 0.053833
    28 1.605515 0.000000 0.000001 0.000003 0.009273 0.123991
    29 1.024438 -0.000002 -0.000003 -0.000446 0.011244 0.229453
    30 3.555526 0.023915 -0.204473 0.069415 -0.207667 0.092842
    31 1.668803 0.000002 0.000006 0.000002 0.008962 0.156831
    32 1.240434 0.000004 0.000006 0.000002 -0.000011 0.116687
    33 3.449666 0.054213 -1.089087 -0.012931 0.119431 -1.089037
    34 1.711614 0.000008 0.000011 0.000003 -0.013898 -0.218485
    35 1.005912 0.000002 0.000008 -0.000391 0.001804 -0.249373
    36 0.075534 -0.738750 -0.755817 1.346792 1.063744 -0.280353
    37 2.512460 -0.000010 -0.000006 -0.000002 -0.000001 0.359159
    38 1.234347 -0.457047 -0.152354 0.038978 0.053150 0.183289
    39 -1.691420 -18.229768 -17.083529 0.025948 -0.084405 -2.500597
    40 0.000000 2.847656 -0.358400 0.000000 0.000000 0.000000
    41 -0.000001 3.923547 1.282475 0.000000 0.000000 0.000000
    42 0.000000 3.251565 2.448801 0.785371 0.000001 -0.000001
    43 0.000000 2.659132 1.094103 0.000000 0.000000 -0.000009
    44 0.000000 1.659210 1.354694 0.000000 0.000000 0.000000
    45 -18.013046 11.653858 -4.763837 1.570796 0.000000 -4.712349
  time 6
    0 0.500000 -3.660156 -8.140625 -1.570760 -1.391893 -1.570827
    1 2.033348 1.000767 1.937660 1.596636 -1.286515 2.942963
    2 6.028145 0.000003 0.000002 -1.409466 -0.417231 -0.992257
    3 11.692553 0.000081 -0.000005 -0.000003 0.000024 -0.903121
    4 11.481672 -0.000089 -0.000024 1.821144 0.082906 0.760015
    5 3.281559 0.002119 -1.383387 -0.049496 -0.068128 0.021703
    6 1.324282 -0.000006 0.000005 0.000000 -0.042033 -0.320226
    7 0.819336 0.000000 0.000000 0.000000 0.000000 -0.523564
    8 3.711852 0.109257 -0.568167 -0.136008 -0.074892 -0.246361
    9 1.609408 0.000006 -0.000007 -0.000002 -0.004225 -0.312298
    10 0.993192 -0.000004 0.000003 0.001032 0.001467 -0.401746
    11 3.786029 0.203226 0.247844 -0.121192 -0.054747 -0.317019
    12 1.684420 -0.000011 0.000009 0.000002 -0.000874 -0.343933
    13 1.256836 0.000000 -0.000001 0.000000 0.000000 -0.532321
    14 3.594224 0.299551 1.109803 -0.102866 -0.059039 -0.276166
    15 1.723633 0.000002 0.000001 0.000000 0.000000 -0.287983
    16 1.002930 -0.000010 0.000000 0.000000 0.000000 -0.445035
    17 0.298214 -0.634093 0.426699 -1.588317 -0.717363 -0.213774
    18 2.633557 0.000002 -0.000006 -0.000002 -0.117905 0.256017
    19 1.308564 0.000000 -0.000002 -0.002024 -0.006209 0.331225
    20 2.033356 1.000772 -1.937610 -1.668474 1.286518 2.942953
    21 6.028141 0.000000 -0.000002 1.281755 0.560209 -1.095476
    22 11.692554 0.000000 -0.000001 0.000034 -0.000024 -1.698917
    23 11.481699 -0.000001 -0.000007 -1.660610 -0.226039 1.634116
    24 2.914337 -0.023168 1.400147 -0.185180 -0.134087 0.021721
    25 1.285216 -0.000004 -0.000001 0.000002 -0.024699 -0.016492
    26 0.838747 -0.000002 -0.000002 0.021644 -0.090481 0.250163
    27 3.368061 0.007377 0.622456 0.026048 -0.189916 0.064619
    28 1.605515 0.000000 0.000001 0.000003 0.009549 0.136070
    29 1.024438 -0.000002 -0.000003 -0.000362 0.011567 0.245057
    30 3.551620 0.023915 -0.200566 0.069715 -0.207775 0.102891
    31 1.668803 0.000002 0.000006 0.000002 0.010137 0.170386
    32 1.240434 0.000004 0.000006 0.000002 0.000001 0.132580
    33 3.449666 0.054213 -1.089087 -0.011485 0.121121 -1.073499
    34 1.711614 0.000008 0.000011 0.000003 -0.019231 -0.275283
    35 1.005912 0.000002 0.000008 0.000004 -0.000101 -0.289684
    36 0.075534 -0.738750 -0.759723 1.346792 1.063744 -0.280353
    37 2.512460 -0.000010 -0.000006 -0.000002 -0.000001 0.359159
    38 1.234347 -0.457047 -0.152354 0.038978 0.053150 0.183289
    39 -1.945334 -19.526683 -15.399884 0.121827 -0.041666 -2.576277
    40 0.000000 2.847656 -0.358400 0.000000 0.000000 0.000000
    41 -0.000001 3.923547 1.282475 0.000000 0.000000 0.000000
    42 0.000000 3.251565 2.448801 0.785371 0.000001 -0.000001
    43 0.000000 2.659132 1.094103 0.000000 0.000000 -0.000009
    44 0.000000 1.659210 1.354694 0.000000 0.000000 0.000000
    45 -18.013046 11.653858 -4.763837 1.570796 0.000000 -4.712349
  time 7
    0 0.500000 -3.660156 -8.140625 -1.570760 -1.391893 -1.570827
    1 2.033348 1.000767 1.937660 1.596636 -1.286515 2.942963
    2 6.028145 0.000003 0.000002 -1.394811 -0.423497 -1.025658
    3 11.692553 0.000081 -0.000005 -0.000003 0.000024 -0.894331
    4 11.481672 -0.000089 -0.000024 1.748635 0.068596 0.748798
    5 3.281559 0.002119 -1.383387 -0.049496 -0.068116 0.021703
    6 1.324282 -0.000006 0.000005 0.000000 -0.042033 -0.320259
    7 0.819336 0.000000 0.000000 0.000000 0.000000 -0.523564
    8 3.711852 0.109257 -0.568167 -0.136008 -0.074892 -0.246333
    9 1.609408 0.000006 -0.000007 -0.000002 -0.004225 -0.312298
    10 0.993192 -0.000004 0.000003 0.001032 0.001467 -0.401746
    11 3.786029 0.203226 0.243938 -0.121192 -0.054747 -0.317019
    12 1.684420 -0.000011 0.000009 0.000002 -0.000874 -0.343933
    13 1.256836 0.000000 -0.000001 0.000000 0.000000 -0.532321
    14 3.594224 0.299551 1.109803 -0.102866 -0.059027 -0.276138
    15 1.723633 0.000002 0.000001 0.000000 0.000000 -0.287983
    16 1.002930 -0.000010 0.000000 0.000000 0.000000 -0.445035
    17 0.298214 -0.634093 0.426699 -1.588317 -0.717363 -0.213734
    18 2.633557 0.000002 -0.000006 -0.000002 -0.117905 0.256017
    19 1.308564 0.000000 -0.000002 -0.002024 -0.006209 0.331225
    20 2.033356 1.000772 -1.937610 -1.668474 1.286518 2.942953
    21 6.028141 0.000000 -0.000002 1.366856 0.684820 -0.948297
    22 11.692554 0.000000 -0.000001 0.000034 -0.000024 -1.666349
    23 11.481699 -0.000001 -0.000007 -1.533001 -0.396631 1.621646
    24 2.910431 -0.023168 1.404053 -0.185599 -0.134374 0.031961
    25 1.285216 -0.000004 -0.000001 0.000002 -0.026053 -0.010270
    26 0.838747 -0.000002 -0.000002 0.021381 -0.092506 0.265607
    27 3.368061 0.007377 0.622456 0.025725 -0.190131 0.076179
    28 1.605515 0.000000 0.000001 0.000003 0.009872 0.148977
    29 1.024438 -0.000002 -0.000003 -0.000279 0.011915 0.261831
    30 3.551620 0.023915 -0.200566 0.070003 -0.207883 0.113681
    31 1.668803 0.000002 0.000006 0.000002 0.011455 0.184960
    32 1.240434 0.000004 0.000006 0.000002 -0.000011 0.149633
    33 3.445760 0.054213 -1.085181 -0.011037 0.121624 -1.068770
    34 1.711614 0.000008 0.000011 0.000003 -0.021376 -0.298300
    35 1.005912 0.000002 0.000008 0.000196 -0.000820 -0.305488
    36 0.075534 -0.738750 -0.759723 1.351030 1.050742 -0.275159
    37 2.512460 -0.000010 -0.000006 -0.000002 -0.000001 0.359159
    38 1.234347 -0.457047 -0.152354 0.040368 0.072565 0.113542
    39 -2.378941 -20.729844 -13.958433 0.359804 -0.024785 -2.649263
    40 0.000000 2.847656 -0.358400 0.000000 0.000000 0.000000
    41 -0.000001 3.923547 1.282475 0.000000 0.000000 0.000000
    42 0.000000 3.251565 2.448801 0.785371 0.000001 -0.000001
    43 0.000000 2.659132 1.094103 0.000000 0.000000 -0.000009
    44 0.000000 1.659210 1.354694 0.000000 0.000000 0.000000
    45 -18.013046 11.653858 -4.763837 1.570796 0.000000 -4.712349
  time 8
    0 0.500000 -3.660156 -8.140625 -1.570760 -1.391893 -1.570827
    1 2.033348 1.000767 1.937660 1.596636 -1.286515 2.942963
    2 6.028145 0.000003 0.000002 -1.371948 -0.431592 -1.076720
    3 11.692553 0.000081 -0.000005 -0.000003 0.000036 -0.885493
    4 11.481672 -0.000089 -0.000024 1.663172 0.067633 0.735577
    5 3.281559 0.006025 -1.383387 -0.049134 -0.067588 0.021965
    6 1.324282 -0.000006 0.000005 0.000000 -0.042021 -0.320226
    7 0.819336 0.000000 0.000000 0.000000 0.000000 -0.523564
    8 3.707945 0.109257 -0.568167 -0.135817 -0.074280 -0.246078
    9 1.609408 0.000006 -0.000007 -0.000002 -0.004225 -0.312298
    10 0.993192 -0.000004 0.000003 0.001032 0.001467 -0.401746
    11 3.786029 0.207132 0.243938 -0.121024 -0.054135 -0.316769
    12 1.684420 -0.000011 0.000009 0.000002 -0.000874 -0.343933
    13 1.256836 0.000000 -0.000001 0.000000 0.000000 -0.532321
    14 3.590318 0.299551 1.109803 -0.102693 -0.058414 -0.275885
    15 1.723633 0.000002 0.000001 0.000000 0.000000 -0.287983
    16 1.002930 -0.000010 0.000000 0.000000 0.000000 -0.445035
    17 0.294307 -0.630187 0.426699 -1.588038 -0.716764 -0.213676
    18 2.633557 0.000002 -0.000006 -0.000002 -0.117905 0.256017
    19 1.308564 0.000000 -0.000002 -0.002024 -0.006209 0.331225
    20 2.033356 1.000772 -1.937610 -1.668474 1.286518 2.942953
    21 6.028141 0.000000 -0.000002 1.489902 0.773267 -0.764938
    22 11.692554 0.000000 -0.000001 0.000034 -0.000012 -1.635578
    23 11.481699 -0.000001 -0.000007 -1.392395 -0.557196 1.563661
    24 2.910431 -0.023168 1.404053 -0.185978 -0.134638 0.042378
    25 1.285216 -0.000004 -0.000001 0.000002 -0.027420 -0.003992
    26 0.842653 -0.000002 -0.000002 0.021069 -0.094555 0.281253
    27 3.368061 0.007377 0.622456 0.025401 -0.190335 0.087939
    28 1.605515 0.000000 0.000001 0.000003 0.010244 0.162142
    29 1.024438 -0.000002 -0.000003 -0.000183 0.012250 0.278884
    30 3.551620 0.023915 -0.200566 0.070290 -0.207955 0.124655
    31 1.668803 0.000002 0.000006 0.000002 0.012869 0.199745
    32 1.240434 0.000004 0.000006 0.000002 -0.000011 0.166995
    33 3.449666 0.054213 -1.085181 -0.011086 0.121576 -1.069188
    34 1.711614 0.000008 0.000011 0.000003 -0.022682 -0.311917
    35 1.002005 0.000002 0.000008 0.000292 -0.001192 -0.313494
    36 0.075534 -0.738750 -0.755817 1.360184 1.036118 -0.264213
    37 2.512460 -0.000010 -0.000006 -0.000002 -0.000001 0.359159
    38 1.234347 -0.468766 -0.156260 0.040548 0.094556 0.032424
    39 -2.898488 -21.878317 -12.798242 0.742172 -0.025829 -2.733659
    40 0.000000 2.847656 -0.358400 0.000000 0.000000 0.000000
    41 -0.000001 3.923547 1.282475 0.000000 0.000000 0.000000
    42 0.000000 3.251565 2.448801 0.785371 0.000001 -0.000001
    43 0.000000 2.659132 1.094103 0.000000 0.000000 -0.000009
    44 0.000000 1.659210 1.354694 0.000000 0.000000 0.000000
    45 -18.013046 11.653858 -4.763837 1.570796 0.000000 -4.712349
  time 9
    0 0.500000 -3.660156 -8.140625 -1.570760 -1.391893 -1.570827
    1 2.033348 1.000767 1.937660 1.596636 -1.286515 2.942963
    2 6.028145 0.000003 0.000002 -1.346012 -0.436457 -1.132183
    3 11.692553 0.000081 -0.000005 -0.000003 0.000000 -0.888392
    4 11.481672 -0.000089 -0.000024 1.574239 0.071417 0.732757
    5 3.281559 0.006025 -1.383387 -0.049220 -0.067600 0.022064
    6 1.324282 -0.000006 0.000005 0.000000 -0.042021 -0.320226
    7 0.819336 0.000000 0.000000 0.000000 0.000000 -0.523564
    8 3.707945 0.109257 -0.572073 -0.135876 -0.074316 -0.245993
    9 1.609408 0.000006 -0.000007 -0.000002 -0.004225 -0.312298
    10 0.993192 -0.000004 0.000003 0.001032 0.001467 -0.401746
    11 3.786029 0.203226 0.243938 -0.121108 -0.054159 -0.316685
    12 1.684420 -0.000011 0.000009 0.000002 -0.000874 -0.343933
    13 1.256836 0.000000 -0.000001 0.000000 0.000000 -0.532321
    14 3.590318 0.299551 1.113710 -0.102751 -0.058453 -0.275800
    15 1.723633 0.000002 0.000001 0.000000 0.000000 -0.287983
    16 1.002930 -0.000010 0.000000 0.000000 0.000000 -0.445035
    17 0.294307 -0.634093 0.426699 -1.588123 -0.716788 -0.213518
    18 2.633557 0.000002 -0.000006 -0.000002 -0.117905 0.256017
    19 1.308564 0.000000 -0.000002 -0.002024 -0.006209 0.331225
    20 2.033356 1.000772 -1.937610 -1.668474 1.286518 2.942953
    21 6.028141 0.000000 -0.000002 1.635312 0.819779 -0.562288
    22 11.692554 0.000000 -0.000001 0.000034 -0.000024 -1.608020
    23 11.481699 -0.000001 -0.000007 -1.223895 -0.690084 1.453320
    24 2.910431 -0.023168 1.404053 -0.186336 -0.134890 0.052442
    25 1.285216 -0.000004 -0.000001 0.000002 -0.028726 0.002176
    26 0.838747 -0.000002 -0.000002 0.020745 -0.096521 0.296373
    27 3.368061 0.007377 0.622456 0.025078 -0.190491 0.099298
    28 1.605515 0.000000 0.000001 0.000003 0.010651 0.174868
    29 1.024438 -0.000002 -0.000003 -0.000099 0.012586 0.295379
    30 3.555526 0.023915 -0.200566 0.070578 -0.207991 0.135286
    31 1.668803 0.000002 0.000006 0.000002 0.014307 0.214049
    32 1.240434 0.000004 0.000006 0.000002 0.000001 0.183700
    33 3.449666 0.054213 -1.089087 -0.011510 0.121097 -1.073724
    34 1.711614 0.000008 0.000011 0.000003 -0.023270 -0.317541
    35 1.005912 0.000002 0.000008 0.000316 -0.001276 -0.315069
    36 0.075534 -0.738750 -0.755817 1.372081 1.020332 -0.249804
    37 2.508554 -0.000010 -0.000006 -0.000002 -0.000001 0.359159
    38 1.230441 -0.480485 -0.156260 0.038918 0.118118 -0.056434
    39 -3.441473 -22.991632 -11.727896 1.200174 -0.015091 -2.816868
    40 0.000000 2.847656 -0.358400 0.000000 0.000000 0.000000
    41 -0.000001 3.923547 1.282475 0.000000 0.000000 0.000000
    42 0.000000 3.251565 2.448801 0.785371 0.000001 -0.000001
    43 0.000000 2.659132 1.094103 0.000000 0.000000 -0.000009
    44 0.000000 1.659210 1.354694 0.000000 0.000000 0.000000
    45 -18.013046 11.653858 -4.763837 1.570796 0.000000 -4.712349
  time 10
    0 0.500000 -3.660156 -8.140625 -1.570760 -1.391893 -1.570827
    1 2.033348 1.000767 1.937660 1.596636 -1.286515 2.942963
    2 6.028145 0.000003 0.000002 -1.316853 -0.438793 -1.191934
    3 11.692553 0.000081 -0.000005 -0.000003 0.000024 -0.901981
    4 11.481672 -0.000089 -0.000024 1.481464 0.078675 0.739963
    5 3.281559 0.002119 -1.383387 -0.049496 -0.068128 0.021703
    6 1.324282 -0.000006 0.000005 0.000000 -0.042033 -0.320259
    7 0.819336 0.000000 0.000000 0.000000 0.000000 -0.523564
    8 3.711852 0.109257 -0.568167 -0.136008 -0.074892 -0.246333
    9 1.609408 0.000006 -0.000007 -0.000002 -0.004225 -0.312298
    10 0.993192 -0.000004 0.000003 0.001032 0.001467 -0.401746
    11 3.786029 0.203226 0.243938 -0.121192 -0.054747 -0.317019
    12 1.684420 -0.000011 0.000009 0.000002 -0.000874 -0.343971
    13 1.256836 0.000000 -0.000001 0.000000 0.000000 -0.532321
    14 3.594224 0.299551 1.113710 -0.102866 -0.059027 -0.276138
    15 1.723633 0.000002 0.000001 0.000000 0.000000 -0.287983
    16 1.002930 -0.000010 0.000000 0.000000 0.000000 -0.445035
    17 0.298214 -0.634093 0.430606 -1.588329 -0.717363 -0.213734
    18 2.633557 0.000002 -0.000006 -0.000002 -0.117905 0.256017
    19 1.308564 0.000000 -0.000002 -0.002024 -0.006209 0.331225
    20 2.033356 1.000772 -1.937610 -1.668474 1.286518 2.942953
    21 6.028141 0.000000 -0.000002 1.777627 0.828012 -0.366946
    22 11.692554 0.000000 -0.000001 0.000034 -0.000024 -1.584437
    23 11.481699 -0.000001 -0.000007 -1.020888 -0.776153 1.291787
    24 2.910431 -0.023168 1.404053 -0.186656 -0.135094 0.061649
    25 1.285216 -0.000004 -0.000001 0.000002 -0.029900 0.007764
    26 0.838747 -0.000002 -0.000002 0.020434 -0.098319 0.310240
    27 3.368061 0.007377 0.622456 0.024790 -0.190611 0.109711
    28 1.605515 0.000000 0.000001 0.000003 0.011059 0.186481
    29 1.024438 -0.000002 -0.000003 -0.000003 0.012897 0.310454
    30 3.551620 0.023915 -0.200566 0.070806 -0.208002 0.144938
    31 1.668803 0.000002 0.000006 0.000002 0.015674 0.227094
    32 1.240434 0.000004 0.000006 0.000002 -0.000011 0.199052
    33 3.449666 0.054213 -1.085181 -0.012208 0.120282 -1.081188
    34 1.711614 0.000008 0.000011 0.000003 -0.023282 -0.316737
    35 1.005912 0.000002 0.000008 0.000268 -0.001108 -0.311583
    36 0.075534 -0.738750 -0.755817 1.384930 1.003956 -0.234054
    37 2.512460 -0.000010 -0.000006 -0.000002 -0.000001 0.359159
    38 1.226534 -0.488298 -0.156260 0.035167 0.142207 -0.149340
    39 -4.031335 -24.073696 -10.536454 1.696660 0.004623 -2.895321
    40 0.000000 2.847656 -0.358400 0.000000 0.000000 0.000000
    41 -0.000001 3.923547 1.282475 0.000000 0.000000 0.000000
    42 0.000000 3.251565 2.448801 0.785371 0.000001 -0.000001
    43 0.000000 2.659132 1.094103 0.000000 0.000000 -0.000009
    44 0.000000 1.659210 1.354694 0.000000 0.000000 0.000000
    45 -18.013046 11.653858 -4.763837 1.570796 0.000000 -4.712349
  time 11
    0 0.500000 -3.660156 -8.140625 -1.570760 -1.391893 -1.570827
    1 2.033348 1.000767 1.937660 1.596636 -1.286515 2.942963
    2 6.028145 0.000003 0.000002 -1.284370 -0.439804 -1.255296
    3 11.692553 0.000081 -0.000005 -0.000003 0.000024 -0.922317
    4 11.481672 -0.000089 -0.000024 1.384908 0.090267 0.753153
    5 3.281559 0.002119 -1.383387 -0.049496 -0.068128 0.021703
    6 1.324282 -0.000006 0.000005 0.000000 -0.042021 -0.320226
    7 0.819336 0.000000 0.000000 0.000000 0.000000 -0.523564
    8 3.711852 0.109257 -0.572073 -0.136008 -0.074892 -0.246333
    9 1.609408 0.000006 -0.000007 -0.000002 -0.004225 -0.312298
    10 0.993192 -0.000004 0.000003 0.001032 0.001467 -0.401746
    11 3.786029 0.203226 0.243938 -0.121192 -0.054747 -0.317019
    12 1.684420 -0.000011 0.000009 0.000002 -0.000874 -0.343933
    13 1.256836 0.000000 -0.000001 0.000000 0.000000 -0.532321
    14 3.594224 0.299551 1.109803 -0.102866 -0.059027 -0.276138
    15 1.723633 0.000002 0.000001 0.000000 0.000000 -0.287983
    16 1.002930 -0.000010 0.000000 0.000000 0.000000 -0.445035
    17 0.298214 -0.634093 0.426699 -1.588329 -0.717363 -0.213734
    18 2.633557 0.000002 -0.000006 -0.000002 -0.117905 0.256017
    19 1.308564 0.000000 -0.000002 -0.002024 -0.006209 0.331225
    20 2.033356 1.000772 -1.937610 -1.668474 1.286518 2.942953
    21 6.028141 0.000000 -0.000002 1.894654 0.808853 -0.203087
    22 11.692554 0.000000 -0.000001 0.000034 -0.000012 -1.565539
    23 11.481699 -0.000001 -0.000007 -0.801036 -0.798499 1.102742
    24 2.910431 -0.023168 1.404053 -0.186935 -0.135273 0.069440
    25 1.285216 -0.000004 -0.000001 0.000002 -0.030895 0.012500
    26 0.838747 -0.000002 -0.000002 0.020122 -0.099853 0.322005
    27 3.368061 0.007377 0.622456 0.024538 -0.190707 0.118488
    28 1.605515 0.000000 0.000001 0.000003 0.011430 0.196336
    29 1.024438 -0.000002 -0.000003 0.000057 0.013149 0.323244
    30 3.555526 0.023915 -0.200566 0.071009 -0.208014 0.153189
    31 1.668803 0.000002 0.000006 0.000002 0.016884 0.238160
    32 1.240434 0.000004 0.000006 0.000002 -0.000011 0.212045
    33 3.449666 0.054213 -1.085181 -0.013081 0.119275 -1.090549
    34 1.711614 0.000008 0.000011 0.000003 -0.022814 -0.310832
    35 1.002005 0.000002 0.000008 0.000184 -0.000772 -0.304301
    36 0.075534 -0.738750 -0.755817 1.397045 0.987524 -0.218863
    37 2.508554 -0.000010 -0.000006 -0.000002 -0.000001 0.359159
    38 1.218722 -0.503924 -0.156260 0.029306 0.165781 -0.242663
    39 -4.734482 -25.042476 -9.032502 2.233447 0.031227 -2.986850
    40 0.000000 2.847656 -0.358400 0.000000 0.000000 0.000000
    41 -0.000001 3.923547 1.282475 0.000000 0.000000 0.000000
    42 0.000000 3.251565 2.448801 0.785371 0.000001 -0.000001
    43 0.000000 2.659132 1.094103 0.000000 0.000000 -0.000009
    44 0.000000 1.659210 1.354694 0.000000 0.000000 0.000000
    45 -18.013046 11.653858 -4.763837 1.570796 0.000000 -4.712349
  time 12
    0 0.500000 -3.660156 -8.140625 -1.570760 -1.391893 -1.570827
    1 2.033348 1.000767 1.937660 1.596636 -1.286515 2.942963
    2 6.028145 0.000003 0.000002 -1.248513 -0.439649 -1.321592
    3 11.692553 0.000081 -0.000005 -0.000003 0.000024 -0.950065
    4 11.481672 -0.000089 -0.000024 1.284820 0.105402 0.772986
    5 3.281559 0.002119 -1.383387 -0.049496 -0.068128 0.021703
    6 1.324282 -0.000006 0.000005 0.000000 -0.042033 -0.320226
    7 0.819336 0.000000 0.000000 0.000000 0.000000 -0.523564
    8 3.711852 0.109257 -0.568167 -0.136008 -0.074892 -0.246333
    9 1.609408 0.000006 -0.000007 -0.000002 -0.004225 -0.312298
    10 0.993192 -0.000004 0.000003 0.001032 0.001467 -0.401746
    11 3.786029 0.203226 0.243938 -0.121192 -0.054747 -0.317019
    12 1.684420 -0.000011 0.000009 0.000002 -0.000874 -0.343933
    13 1.256836 0.000000 -0.000001 0.000000 0.000000 -0.532321
    14 3.594224 0.299551 1.109803 -0.102866 -0.059027 -0.276138
    15 1.723633 0.000002 0.000001 0.000000 0.000000 -0.287983
    16 1.002930 -0.000010 0.000000 0.000000 0.000000 -0.445035
    17 0.298214 -0.634093 0.426699 -1.588329 -0.717363 -0.213734
    18 2.633557 0.000002 -0.000006 -0.000002 -0.117905 0.256017
    19 1.308564 0.000000 -0.000002 -0.002024 -0.006209 0.331225
    20 2.033356 1.000772 -1.937610 -1.668474 1.286518 2.942953
    21 6.028141 0.000000 -0.000002 1.981241 0.779076 -0.076453
    22 11.692554 0.000000 -0.000001 0.000034 -0.000024 -1.547185
    23 11.481699 -0.000001 -0.000007 -0.589154 -0.706878 0.906418
    24 2.910431 -0.023168 1.400147 -0.187094 -0.135393 0.075343
    25 1.285216 -0.000004 -0.000001 0.000002 -0.031638 0.016074
    26 0.838747 -0.000002 -0.000002 0.019894 -0.101003 0.330899
    27 3.368061 0.007377 0.618550 0.024347 -0.190767 0.125172
    28 1.605515 0.000000 0.000001 0.000003 0.011730 0.203785
    29 1.024438 -0.000002 -0.000003 0.000129 0.013341 0.332885
    30 3.551620 0.023915 -0.200566 0.071153 -0.208002 0.159377
    31 1.668803 0.000002 0.000006 0.000002 0.017807 0.246527
    32 1.240434 0.000004 0.000006 0.000002 0.000001 0.221866
    33 3.449666 0.054213 -1.089087 -0.014015 0.118149 -1.100587
    34 1.711614 0.000008 0.000011 0.000003 -0.022023 -0.301473
    35 1.002005 0.000002 0.000008 0.000064 -0.000329 -0.294642
    36 0.075534 -0.738750 -0.759723 1.407068 0.971628 -0.206018
    37 2.512460 -0.000010 -0.000006 -0.000002 -0.000001 0.359159
    38 1.214815 -0.515643 -0.160167 0.021612 0.187916 -0.332652
    39 -5.703261 -26.003443 -6.864467 2.845771 0.071163 -3.098349
    40 0.000000 2.847656 -0.358400 0.000000 0.000000 0.000000
    41 -0.000001 3.923547 1.282475 0.000000 0.000000 0.000000
    42 0.000000 3.251565 2.448801 0.785371 0.000001 -0.000001
    43 0.000000 2.659132 1.094103 0.000000 0.000000 -0.000009
    44 0.000000 1.659210 1.354694 0.000000 0.000000 0.000000
    45 -18.013046 11.653858 -4.763837 1.570796 0.000000 -4.712349
  time 13
    0 0.500000 -3.660156 -8.140625 -1.570760 -1.391893 -1.570827
    1 2.033348 1.000767 1.937660 1.596636 -1.286515 2.942963
    2 6.028145 0.000003 0.000002 -1.209483 -0.439688 -1.389355
    3 11.692553 0.000081 -0.000005 -0.000003 0.000012 -0.982326
    4 11.481672 -0.000089 -0.000024 1.181818 0.124424 0.797863
    5 3.285465 0.002119 -1.379481 -0.049686 -0.068619 0.021308
    6 1.324282 -0.000006 0.000005 0.000000 -0.042033 -0.320226
    7 0.819336 0.000000 0.000000 0.000000 0.000000 -0.523564
    8 3.715758 0.105350 -0.568167 -0.136056 -0.075431 -0.246757
    9 1.609408 0.000006 -0.000007 -0.000002 -0.004225 -0.312298
    10 0.993192 -0.000004 0.000003 0.001032 0.001467 -0.401746
    11 3.789935 0.203226 0.243938 -0.121204 -0.055286 -0.317465
    12 1.684420 -0.000011 0.000009 0.000002 -0.000874 -0.343933
    13 1.256836 0.000000 -0.000001 0.000000 0.000000 -0.532321
    14 3.594224 0.299551 1.113710 -0.102895 -0.059575 -0.276588
    15 1.723633 0.000002 0.000001 0.000000 0.000000 -0.287983
    16 1.002930 -0.000010 0.000000 0.000000 0.000000 -0.445035
    17 0.302120 -0.630187 0.426699 -1.588402 -0.717890 -0.214127
    18 2.633557 0.000002 -0.000006 -0.000002 -0.117905 0.256017
    19 1.308564 0.000000 -0.000002 -0.002024 -0.006209 0.331225
    20 2.033356 1.000772 -1.937610 -1.668474 1.286518 2.942953
    21 6.028141 0.000000 -0.000002 2.041030 0.750491 0.015670
    22 11.692554 0.000000 -0.000001 0.000034 -0.000024 -1.528777
    23 11.481699 -0.000001 -0.000007 -0.442345 -0.491152 0.765702
    24 2.910431 -0.023168 1.400147 -0.187234 -0.135465 0.078825
    25 1.285216 -0.000004 -0.000001 0.000002 -0.032070 0.018197
    26 0.838747 -0.000002 -0.000002 0.019763 -0.101674 0.336114
    27 3.368061 0.007377 0.622456 0.024227 -0.190802 0.129101
    28 1.605515 0.000000 0.000001 0.000003 0.011922 0.208182
    29 1.024438 -0.000002 -0.000003 0.000165 0.013449 0.338569
    30 3.551620 0.023915 -0.200566 0.071249 -0.208002 0.163053
    31 1.668803 0.000002 0.000006 0.000002 0.018370 0.251475
    32 1.240434 0.000004 0.000006 0.000002 -0.000011 0.227667
    33 3.449666 0.054213 -1.085181 -0.014913 0.117082 -1.110238
    34 1.711614 0.000008 0.000011 0.000003 -0.021016 -0.290025
    35 1.005912 0.000002 0.000008 -0.000032 0.000174 -0.283874
    36 0.075534 -0.738750 -0.759723 1.413804 0.956856 -0.197026
    37 2.512460 -0.000010 -0.000006 -0.000002 -0.000001 0.359159
    38 1.210909 -0.519549 -0.160167 0.012672 0.207823 -0.415526
    39 -6.992363 -26.542522 -4.044068 3.534397 0.137195 -3.218327
    40 0.000000 2.847656 -0.358400 0.000000 0.000000 0.000000
    41 -0.000001 3.923547 1.282475 0.000000 0.000000 0.000000
    42 0.000000 3.251565 2.448801 0.785371 0.000001 -0.000001
    43 0.000000 2.659132 1.094103 0.000000 0.000000 -0.000009
    44 0.000000 1.659210 1.354694 0.000000 0.000000 0.000000
    45 -18.013046 11.653858 -4.763837 1.570796 0.000000 -4.712349
  time 14
    0 0.500000 -3.660156 -8.140625 -1.570760 -1.391893 -1.570827
    1 2.033348 1.000767 1.937660 1.596636 -1.286515 2.942963
    2 6.028145 0.000003 0.000002 -1.167231 -0.440972 -1.458416
    3 11.692553 0.000081 -0.000005 -0.000003 0.000024 -1.015111
    4 11.481672 -0.000089 -0.000024 1.075285 0.147540 0.822175
    5 3.281559 0.002119 -1.383387 -0.049496 -0.068116 0.021703
    6 1.324282 -0.000006 0.000005 0.000000 -0.042033 -0.320226
    7 0.819336 0.000000 0.000000 0.000000 0.000000 -0.523564
    8 3.711852 0.109257 -0.568167 -0.136008 -0.074880 -0.246333
    9 1.609408 0.000006 -0.000007 -0.000002 -0.004225 -0.312298
    10 0.993192 -0.000004 0.000003 0.001032 0.001467 -0.401746
    11 3.786029 0.203226 0.243938 -0.121192 -0.054747 -0.317019
    12 1.684420 -0.000011 0.000009 0.000002 -0.000874 -0.343933
    13 1.256836 0.000000 -0.000001 0.000000 0.000000 -0.532321
    14 3.594224 0.299551 1.109803 -0.102866 -0.059027 -0.276138
    15 1.723633 0.000002 0.000001 0.000000 0.000000 -0.287983
    16 1.002930 -0.000010 0.000000 0.000000 0.000000 -0.445035
    17 0.298214 -0.634093 0.426699 -1.588317 -0.717363 -0.213754
    18 2.633557 0.000002 -0.000006 -0.000002 -0.117905 0.256017
    19 1.308564 0.000000 -0.000002 -0.002024 -0.006209 0.331225
    20 2.033356 1.000772 -1.937610 -1.668474 1.286518 2.942953
    21 6.028141 0.000000 -0.000002 2.080460 0.729255 0.078791
    22 11.692554 0.000000 -0.000001 0.000034 -0.000024 -1.513909
    23 11.481699 -0.000001 -0.000007 -0.370978 -0.218140 0.697430
    24 2.914337 -0.023168 1.404053 -0.187254 -0.135477 0.079356
    25 1.285216 -0.000004 -0.000001 0.000002 -0.032130 0.018487
    26 0.838747 -0.000002 -0.000002 0.019739 -0.101770 0.336923
    27 3.368061 0.007377 0.622456 0.024215 -0.190802 0.129704
    28 1.605515 0.000000 0.000001 0.000003 0.011946 0.208829
    29 1.024438 -0.000002 -0.000003 0.000177 0.013473 0.339433
    30 3.551620 0.023915 -0.200566 0.071261 -0.208002 0.163609
    31 1.668803 0.000002 0.000006 0.000002 0.018454 0.252225
    32 1.240434 0.000004 0.000006 0.000002 -0.000011 0.228518
    33 3.449666 0.054213 -1.085181 -0.015673 0.116147 -1.118441
    34 1.711614 0.000008 0.000011 0.000003 -0.019914 -0.277934
    35 1.002005 0.000002 0.000008 -0.000152 0.000678 -0.273312
    36 0.075534 -0.738750 -0.759723 1.416168 0.943836 -0.193396
    37 2.512460 -0.000010 -0.000006 -0.000002 -0.000001 0.359147
    38 1.210909 -0.527362 -0.160167 0.003216 0.224877 -0.487357
    39 -8.304903 -26.058132 -1.258827 4.242504 0.222674 -3.312392
    40 0.000000 2.847656 -0.358400 0.000000 0.000000 0.000000
    41 -0.000001 3.923547 1.282475 0.000000 0.000000 0.000000
    42 0.000000 3.251565 2.448801 0.785371 0.000001 -0.000001
    43 0.000000 2.659132 1.094103 0.000000 0.000000 -0.000009
    44 0.000000 1.659210 1.354694 0.000000 0.000000 0.000000
    45 -18.013046 11.653858 -4.763837 1.570796 0.000000 -4.712349
  time 15
    0 0.500000 -3.660156 -8.140625 -1.570760 -1.391893 -1.570827
    1 2.033348 1.000767 1.937660 1.596636 -1.286515 2.942963
    2 6.028145 0.000003 0.000002 -1.121855 -0.444669 -1.527759
    3 11.692553 0.000081 -0.000005 -0.000003 0.000024 -1.047848
    4 11.481672 -0.000089 -0.000024 0.966024 0.174474 0.847209
    5 3.281559 0.002119 -1.383387 -0.049496 -0.068116 0.021703
    6 1.324282 -0.000006 0.000005 0.000000 -0.042033 -0.320226
    7 0.819336 0.000000 0.000000 0.000000 0.000000 -0.523564
    8 3.711852 0.109257 -0.568167 -0.136008 -0.074892 -0.246333
    9 1.609408 0.000006 -0.000007 -0.000002 -0.004225 -0.312298
    10 0.993192 -0.000004 0.000003 0.001032 0.001467 -0.401746
    11 3.786029 0.203226 0.243938 -0.121192 -0.054747 -0.317019
    12 1.684420 -0.000011 0.000009 0.000002 -0.000874 -0.343933
    13 1.256836 0.000000 -0.000001 0.000000 0.000000 -0.532321
    14 3.594224 0.299551 1.109803 -0.102866 -0.059027 -0.276138
    15 1.723633 0.000002 0.000001 0.000000 0.000000 -0.287983
    16 1.002930 -0.000010 0.000000 0.000000 0.000000 -0.445035
    17 0.298214 -0.634093 0.426699 -1.588329 -0.717363 -0.213734
    18 2.637464 0.000002 -0.000006 -0.000002 -0.117905 0.256017
    19 1.308564 0.000000 -0.000002 -0.002024 -0.006209 0.331225
    20 2.033356 1.000772 -1.937610 -1.668474 1.286518 2.942953
    21 6.028141 0.000000 -0.000002 2.104064 0.717636 0.116512
    22 11.692554 0.000000 -0.000001 0.000034 -0.000024 -1.507101
    23 11.481699 -0.000001 -0.000007 -0.349559 0.052691 0.672101
    24 2.914337 -0.023168 1.400147 -0.187134 -0.135417 0.076405
    25 1.285216 -0.000004 -0.000001 0.000002 -0.031770 0.016709
    26 0.838747 -0.000002 -0.000002 0.019847 -0.101195 0.332476
    27 3.368061 0.007377 0.618550 0.024311 -0.190791 0.126348
    28 1.605515 0.000000 0.000001 0.000003 0.011790 0.205104
    29 1.024438 -0.000002 -0.000003 0.000141 0.013377 0.334612
    30 3.555526 0.023915 -0.204473 0.071177 -0.208014 0.160488
    31 1.668803 0.000002 0.000006 0.000002 0.017975 0.247996
    32 1.240434 0.000004 0.000006 0.000002 -0.000011 0.223607
    33 3.449666 0.054213 -1.089087 -0.016197 0.115524 -1.123975
    34 1.711614 0.000008 0.000011 0.000003 -0.018883 -0.266727
    35 1.005912 0.000002 0.000008 -0.000248 0.001097 -0.264351
    36 0.075534 -0.738750 -0.759723 1.413153 0.933103 -0.196579
    37 2.512460 -0.000010 -0.000006 -0.000002 -0.000001 0.359159
    38 1.210909 -0.519549 -0.160167 -0.005809 0.238575 -0.544155
    39 -9.179930 -24.698715 0.745140 -1.361140 0.301084 -3.363426
    40 0.000000 2.847656 -0.358400 0.000000 0.000000 0.000000
    41 -0.000001 3.923547 1.282475 0.000000 0.000000 0.000000
    42 0.000000 3.251565 2.448801 0.785371 0.000001 -0.000001
    43 0.000000 2.659132 1.094103 0.000000 0.000000 -0.000009
    44 0.000000 1.659210 1.354694 0.000000 0.000000 0.000000
    45 -18.013046 11.653858 -4.763837 1.570796 0.000000 -4.712349
  time 16
    0 0.500000 -3.660156 -8.140625 -1.570760 -1.391893 -1.570827
    1 2.033348 1.000767 1.937660 1.596636 -1.286515 2.942963
    2 6.028145 0.000003 0.000002 -1.073962 -0.451792 -1.595691
    3 11.692553 0.000081 -0.000005 -0.000003 0.000024 -1.078019
    4 11.481672 -0.000089 -0.000024 0.853665 0.206257 0.869015
    5 3.281559 0.002119 -1.383387 -0.049496 -0.068116 0.021703
    6 1.324282 -0.000006 0.000005 0.000000 -0.042021 -0.320226
    7 0.819336 0.000000 0.000000 0.000000 0.000000 -0.523564
    8 3.711852 0.109257 -0.568167 -0.136008 -0.074880 -0.246333
    9 1.609408 0.000006 -0.000007 -0.000002 -0.004225 -0.312298
    10 0.993192 -0.000004 0.000003 0.001032 0.001479 -0.401746
    11 3.786029 0.203226 0.247844 -0.121192 -0.054747 -0.317019
    12 1.684420 -0.000011 0.000009 0.000002 -0.000874 -0.343971
    13 1.256836 0.000000 -0.000001 0.000000 0.000000 -0.532321
    14 3.594224 0.299551 1.109803 -0.102866 -0.059027 -0.276138
    15 1.723633 0.000002 0.000001 0.000000 0.000000 -0.287983
    16 1.002930 -0.000010 0.000000 0.000000 0.000000 -0.445035
    17 0.298214 -0.634093 0.426699 -1.588329 -0.717363 -0.213734
    18 2.633557 0.000002 -0.000006 -0.000002 -0.117905 0.256017
    19 1.308564 0.000000 -0.000002 -0.002024 -0.006209 0.331225
    20 2.033356 1.000772 -1.937610 -1.668474 1.286518 2.942953
    21 6.028141 0.000000 -0.000002 2.085166 0.678664 0.087980
    22 11.692554 0.000000 -0.000001 0.000034 -0.000012 -1.593206
    23 11.481699 -0.000001 -0.000007 -0.368442 0.276759 0.697673
    24 2.914337 -0.023168 1.400147 -0.186935 -0.135273 0.069440
    25 1.285216 -0.000004 -0.000001 0.000002 -0.030895 0.012500
    26 0.838747 -0.000002 -0.000002 0.020134 -0.099853 0.322005
    27 3.368061 0.007377 0.622456 0.024538 -0.190707 0.118488
    28 1.605515 0.000000 0.000001 0.000003 0.011442 0.196336
    29 1.024438 -0.000002 -0.000003 0.000057 0.013149 0.323244
    30 3.555526 0.023915 -0.200566 0.071009 -0.208014 0.153189
    31 1.668803 0.000002 0.000006 0.000002 0.016872 0.238160
    32 1.240434 0.000004 0.000006 0.000002 -0.000011 0.212045
    33 3.449666 0.054213 -1.089087 -0.016359 0.115320 -1.125808
    34 1.711614 0.000008 0.000011 0.000003 -0.018020 -0.257850
    35 1.002005 0.000002 0.000008 -0.000308 0.001385 -0.258308
    36 0.075534 -0.738750 -0.759723 1.403727 0.925229 -0.208056
    37 2.512460 -0.000010 -0.000006 -0.000002 -0.000001 0.359159
    38 1.214815 -0.511736 -0.156260 -0.013467 0.248450 -0.581900
    39 -9.343997 -22.667403 1.260781 -0.764859 0.347402 -3.378483
    40 0.000000 2.847656 -0.358400 0.000000 0.000000 0.000000
    41 -0.000001 3.923547 1.282475 0.000000 0.000000 0.000000
    42 0.000000 3.251565 2.448801 0.785371 0.000001 -0.000001
    43 0.000000 2.659132 1.094103 0.000000 0.000000 -0.000009
    44 0.000000 1.659210 1.354694 0.000000 0.000000 0.000000
    45 -18.013046 11.653858 -4.763837 1.570796 0.000000 -4.712349
  time 17
    0 0.500000 -3.660156 -8.140625 -1.570760 -1.391893 -1.570827
    1 2.033348 1.000767 1.937660 1.596636 -1.286515 2.942963
    2 6.028145 0.000003 0.000002 -1.024357 -0.462067 -1.661592
    3 11.692553 0.000081 -0.000005 -0.000015 0.000036 -1.104247
    4 11.481672 -0.000089 -0.000024 0.738889 0.242307 0.884963
    5 3.281559 0.002119 -1.383387 -0.049496 -0.068128 0.021703
    6 1.324282 -0.000006 0.000005 0.000000 -0.042033 -0.320259
    7 0.819336 0.000000 0.000000 0.000000 0.000000 -0.523564
    8 3.711852 0.109257 -0.568167 -0.136008 -0.074892 -0.246333
    9 1.609408 0.000006 -0.000007 -0.000002 -0.004225 -0.312298
    10 0.993192 -0.000004 0.000003 0.001032 0.001467 -0.401746
    11 3.786029 0.203226 0.243938 -0.121192 -0.054747 -0.317019
    12 1.684420 -0.000011 0.000009 0.000002 -0.000874 -0.343933
    13 1.256836 0.000000 -0.000001 0.000000 0.000000 -0.532321
    14 3.594224 0.299551 1.109803 -0.102866 -0.059027 -0.276138
    15 1.723633 0.000002 0.000001 0.000000 0.000000 -0.287983
    16 1.002930 -0.000010 0.000000 0.000000 0.000000 -0.445035
    17 0.298214 -0.634093 0.430606 -1.588329 -0.717363 -0.213734
    18 2.633557 0.000002 -0.000006 -0.000002 -0.117905 0.256017
    19 1.308564 0.000000 -0.000002 -0.002024 -0.006209 0.331225
    20 2.033356 1.000772 -1.937610 -1.668474 1.286518 2.942953
    21 6.028141 0.000000 -0.000002 2.061191 0.661429 0.048588
    22 11.692554 0.000000 -0.000001 -0.000038 0.000060 -1.660467
    23 11.481699 -0.000001 -0.000007 -0.414767 0.397051 0.718101
    24 2.910431 -0.023168 1.400147 -0.186297 -0.134518 0.057547
    25 1.285216 -0.000004 -0.000001 0.000002 -0.029433 0.005515
    26 0.838747 -0.000002 -0.000002 0.020566 -0.097611 0.304782
    27 3.368061 0.007377 0.618550 0.025162 -0.190083 0.105092
    28 1.605515 0.000000 0.000001 0.000003 0.010891 0.181903
    29 1.024438 -0.000002 -0.000003 -0.000039 0.012778 0.304491
    30 3.555526 0.023915 -0.204473 0.070985 -0.207523 0.140628
    31 1.668803 0.000002 0.000006 0.000002 0.015122 0.221906
    32 1.236527 0.000004 0.000006 0.000002 -0.000011 0.192981
    33 3.453572 0.054213 -1.085181 -0.016458 0.116063 -1.123267
    34 1.711614 0.000008 0.000011 0.000003 -0.017505 -0.252789
    35 1.002005 0.000002 0.000008 -0.000332 0.001469 -0.256448
    36 0.079440 -0.734843 -0.755817 1.386750 0.921245 -0.229726
    37 2.512460 -0.000010 -0.000006 -0.000002 -0.000001 0.359159
    38 1.226534 -0.484392 -0.156260 -0.018764 0.253987 -0.596517
    39 -9.035394 -21.444710 0.823268 -0.292342 0.346597 -3.379989
    40 0.000000 2.847656 -0.358400 0.000000 0.000000 0.000000
    41 -0.000001 3.923547 1.282475 0.000000 0.000000 0.000000
    42 0.000000 3.251565 2.448801 0.785371 0.000001 -0.000001
    43 0.000000 2.659132 1.094103 0.000000 0.000000 -0.000009
    44 0.000000 1.659210 1.354694 0.000000 0.000000 0.000000
    45 -18.013046 11.653858 -4.763837 1.570796 0.000000 -4.712349
  time 18
    0 0.500000 -3.660156 -8.140625 -1.570760 -1.391893 -1.570827
    1 2.033348 1.000767 1.937660 1.596636 -1.286515 2.942963
    2 6.028145 0.000003 0.000002 -0.973794 -0.475961 -1.723882
    3 11.692553 0.000081 -0.000005 -0.000015 0.000036 -1.126483
    4 11.481672 -0.000089 -0.000024 0.621510 0.282793 0.893453
    5 3.281559 0.002119 -1.383387 -0.049496 -0.068116 0.021703
    6 1.324282 -0.000006 0.000005 0.000000 -0.042033 -0.320259
    7 0.819336 0.000000 0.000000 0.000000 0.000000 -0.523564
    8 3.711852 0.109257 -0.572073 -0.136008 -0.074892 -0.246333
    9 1.609408 0.000006 -0.000007 -0.000002 -0.004225 -0.312298
    10 0.993192 -0.000004 0.000003 0.001032 0.001467 -0.401746
    11 3.786029 0.203226 0.243938 -0.121192 -0.054747 -0.317019
    12 1.684420 -0.000011 0.000009 0.000002 -0.000874 -0.343971
    13 1.256836 0.000000 -0.000001 0.000000 0.000000 -0.532321
    14 3.594224 0.299551 1.113710 -0.102866 -0.059027 -0.276138
    15 1.723633 0.000002 0.000001 0.000000 0.000000 -0.287983
    16 1.002930 -0.000010 0.000000 0.000000 0.000000 -0.445035
    17 0.298214 -0.634093 0.426699 -1.588329 -0.717363 -0.213734
    18 2.633557 0.000002 -0.000006 -0.000002 -0.117905 0.256017
    19 1.308564 0.000000 -0.000002 -0.002024 -0.006209 0.331225
    20 2.033356 1.000772 -1.937610 -1.668474 1.286518 2.942953
    21 6.028141 0.000000 -0.000002 2.029290 0.663699 -0.003386
    22 11.692554 0.000000 -0.000001 0.000034 -0.000024 -1.706923
    23 11.481699 -0.000001 -0.000007 -0.480655 0.398764 0.750805
    24 2.914337 -0.023168 1.400147 -0.185958 -0.134614 0.041493
    25 1.285216 -0.000004 -0.000001 0.000002 -0.027300 -0.004518
    26 0.838747 -0.000002 -0.000002 0.021105 -0.094376 0.279959
    27 3.368061 0.007377 0.618550 0.025425 -0.190323 0.086935
    28 1.605515 0.000000 0.000001 0.000003 0.010208 0.161056
    29 1.024438 -0.000002 -0.000003 -0.000195 0.012226 0.277491
    30 3.551620 0.023915 -0.200566 0.070266 -0.207931 0.123730
    31 1.668803 0.000002 0.000006 0.000002 0.012749 0.198515
    32 1.240434 0.000004 0.000006 0.000002 -0.000011 0.165526
    33 3.449666 0.054213 -1.089087 -0.015249 0.116675 -1.113841
    34 1.711614 0.000008 0.000011 0.000003 -0.017457 -0.253030
    35 1.005912 0.000002 0.000008 -0.000296 0.001289 -0.260167
    36 0.075534 -0.738750 -0.759723 1.360347 0.919807 -0.262481
    37 2.512460 -0.000010 -0.000006 -0.000002 -0.000001 0.359147
    38 1.242160 -0.453141 -0.152354 -0.020777 0.254395 -0.584074
    39 -8.519753 -21.112669 -0.231452 0.040463 0.303679 -3.396155
    40 0.000000 2.847656 -0.358400 0.000000 0.000000 0.000000
    41 -0.000001 3.923547 1.282475 0.000000 0.000000 0.000000
    42 0.000000 3.251565 2.448801 0.785371 0.000001 -0.000001
    43 0.000000 2.659132 1.094103 0.000000 0.000000 -0.000009
    44 0.000000 1.659210 1.354694 0.000000 0.000000 0.000000
    45 -18.013046 11.653858 -4.763837 1.570796 0.000000 -4.712349
  time 19
    0 0.500000 -3.660156 -8.140625 -1.570760 -1.391893 -1.570827
    1 2.033348 1.000767 1.937660 1.596636 -1.286515 2.942963
    2 6.028145 0.000003 0.000002 -0.923635 -0.493358 -1.781207
    3 11.692553 0.000081 -0.000005 -0.000015 0.000036 -1.143350
    4 11.481672 -0.000089 -0.000024 0.502085 0.327270 0.891511
    5 3.281559 0.002119 -1.379481 -0.049496 -0.068116 0.021703
    6 1.324282 -0.000006 0.000005 0.000000 -0.042033 -0.320226
    7 0.819336 0.000000 0.000000 0.000000 0.000000 -0.523564
    8 3.711852 0.109257 -0.568167 -0.136008 -0.074892 -0.246333
    9 1.609408 0.000006 -0.000007 -0.000002 -0.004225 -0.312298
    10 0.993192 -0.000004 0.000003 0.001032 0.001467 -0.401746
    11 3.786029 0.203226 0.243938 -0.121192 -0.054747 -0.317019
    12 1.684420 -0.000011 0.000009 0.000002 -0.000874 -0.343933
    13 1.256836 0.000000 -0.000001 0.000000 0.000000 -0.532321
    14 3.594224 0.299551 1.109803 -0.102866 -0.059027 -0.276138
    15 1.723633 0.000002 0.000001 0.000000 0.000000 -0.287983
    16 1.002930 -0.000010 0.000000 0.000000 0.000000 -0.445035
    17 0.298214 -0.634093 0.430606 -1.588317 -0.717363 -0.213734
    18 2.633557 0.000002 -0.000006 -0.000002 -0.117905 0.256017
    19 1.308564 0.000000 -0.000002 -0.002024 -0.006209 0.331225
    20 2.033356 1.000772 -1.937610 -1.668474 1.286518 2.942953
    21 6.028141 0.000000 -0.000002 1.989464 0.678549 -0.065542
    22 11.692554 0.000000 -0.000001 0.000034 -0.000012 -1.735298
    23 11.481699 -0.000001 -0.000007 -0.558135 0.323881 0.815195
    24 2.914337 -0.023168 1.404053 -0.185060 -0.134015 0.019478
    25 1.285216 -0.000004 -0.000001 0.000002 -0.024400 -0.017871
    26 0.842653 -0.000002 -0.000002 0.021704 -0.090037 0.246767
    27 3.368061 0.007377 0.622456 0.026120 -0.189880 0.062095
    28 1.605515 0.000000 0.000001 0.000003 0.009477 0.133225
    29 1.024438 -0.000002 -0.000003 -0.000386 0.011495 0.241378
    30 3.555526 0.023915 -0.200566 0.069643 -0.207763 0.100511
    31 1.668803 0.000002 0.000006 0.000002 0.009849 0.167177
    32 1.240434 0.000004 0.000006 0.000002 -0.000011 0.128829
    33 3.449666 0.054213 -1.089087 -0.013754 0.118472 -1.097756
    34 1.711614 0.000008 0.000011 0.000003 -0.017996 -0.260019
    35 1.005912 0.000002 0.000008 -0.000176 0.000786 -0.270832
    36 0.075534 -0.738750 -0.759723 1.294666 0.939927 -0.343547
    37 2.512460 -0.000010 -0.000006 -0.000002 -0.000001 0.359159
    38 1.265598 -0.371107 -0.140635 -0.009236 0.232127 -0.459881
    39 -7.968955 -21.335332 -1.614307 0.264021 0.233172 -3.429042
    40 0.000000 2.847656 -0.358400 0.000000 0.000000 0.000000
    41 -0.000001 3.923547 1.282475 0.000000 0.000000 0.000000
    42 0.000000 3.251565 2.448801 0.785371 0.000001 -0.000001
    43 0.000000 2.659132 1.094103 0.000000 0.000000 -0.000009
    44 0.000000 1.659210 1.354694 0.000000 0.000000 0.000000
    45 -18.013046 11.653858 -4.763837 1.570796 0.000000 -4.712349
  time 20
    0 0.500000 -3.660156 -8.140625 -1.570760 -1.391893 -1.570827
    1 2.033348 1.000767 1.937660 1.596636 -1.286515 2.942963
    2 6.028145 0.000003 0.000002 -0.875389 -0.512974 -1.832720
    3 11.692553 0.000081 -0.000005 -0.000015 0.000036 -1.155656
    4 11.481672 -0.000089 -0.000024 0.381483 0.374052 0.877976
    5 3.281559 0.002119 -1.379481 -0.049496 -0.068128 0.021703
    6 1.324282 -0.000006 0.000005 0.000000 -0.042021 -0.320259
    7 0.819336 0.000000 0.000000 0.000000 0.000000 -0.523564
    8 3.711852 0.109257 -0.568167 -0.136008 -0.074892 -0.246333
    9 1.609408 0.000006 -0.000007 -0.000002 -0.004225 -0.312298
    10 0.993192 -0.000004 0.000003 0.001032 0.001467 -0.401746
    11 3.786029 0.203226 0.243938 -0.121192 -0.054747 -0.317019
    12 1.684420 -0.000011 0.000009 0.000002 -0.000874 -0.343933
    13 1.256836 0.000000 -0.000001 0.000000 0.000000 -0.532321
    14 3.594224 0.299551 1.109803 -0.102866 -0.059027 -0.276138
    15 1.723633 0.000002 0.000001 0.000000 0.000000 -0.287983
    16 1.002930 -0.000010 0.000000 0.000000 0.000000 -0.445035
    17 0.298214 -0.634093 0.426699 -1.588329 -0.717363 -0.213734
    18 2.637464 0.000002 -0.000006 -0.000002 -0.117905 0.256017
    19 1.308564 0.000000 -0.000002 -0.002024 -0.006209 0.331225
    20 2.033356 1.000772 -1.937610 -1.668474 1.286518 2.942953
    21 6.028141 0.000000 -0.000002 1.944461 0.701132 -0.132944
    22 11.692554 0.000000 -0.000001 0.000046 -0.000012 -1.746354
    23 11.481699 -0.000001 -0.000007 -0.646529 0.214969 0.907291
    24 2.910431 -0.023168 1.404053 -0.183864 -0.133164 -0.008676
    25 1.285216 -0.000004 -0.000001 0.000002 -0.020612 -0.034926
    26 0.838747 -0.000002 -0.000002 0.022255 -0.084476 0.204479
    27 3.368061 0.007377 0.622456 0.026959 -0.189161 0.030341
    28 1.605515 0.000000 0.000001 0.000003 0.008830 0.097687
    29 1.024438 -0.000002 -0.000003 -0.000590 0.010548 0.195319
    30 3.551620 0.023915 -0.200566 0.068768 -0.207379 0.070919
    31 1.668803 0.000002 0.000006 0.000002 0.006613 0.127203
    32 1.240434 0.000004 0.000006 0.000002 -0.000011 0.082000
    33 3.449666 0.054213 -1.089087 -0.011485 0.121121 -1.073499
    34 1.711614 0.000008 0.000011 0.000003 -0.019231 -0.275283
    35 1.005912 0.000002 0.000008 0.000004 -0.000101 -0.289684
    36 0.075534 -0.738750 -0.759723 1.164010 0.980719 -0.496517
    37 2.512460 -0.000010 -0.000006 -0.000002 -0.000001 0.359159
    38 1.308568 -0.230478 -0.105478 0.011473 0.169688 -0.198100
    39 -7.441595 -21.768939 -3.118259 0.417293 0.141878 -3.461374
    40 0.000000 2.847656 -0.358400 0.000000 0.000000 0.000000
    41 -0.000001 3.923547 1.282475 0.000000 0.000000 0.000000
    42 0.000000 3.251565 2.448801 0.785371 0.000001 -0.000001
    43 0.000000 2.659132 1.094103 0.000000 0.000000 -0.000009
    44 0.000000 1.659210 1.354694 0.000000 0.000000 0.000000
    45 -18.013046 11.653858 -4.763837 1.570796 0.000000 -4.712349
  time 21
    0 0.500000 -3.660156 -8.140625 -1.570760 -1.391893 -1.570827
    1 2.033348 1.000767 1.937660 1.596636 -1.286515 2.942963
    2 6.028145 0.000003 0.000002 -0.830921 -0.534108 -1.876786
    3 11.692553 0.000081 -0.000005 -0.000015 0.000024 -1.163639
    4 11.481672 -0.000089 -0.000024 0.260510 0.422003 0.851720
    5 3.281559 0.002119 -1.379481 -0.049496 -0.068128 0.021703
    6 1.324282 -0.000006 0.000005 0.000000 -0.042033 -0.320226
    7 0.819336 0.000000 0.000000 0.000000 0.000000 -0.523564
    8 3.711852 0.109257 -0.568167 -0.136008 -0.074892 -0.246333
    9 1.609408 0.000006 -0.000007 -0.000002 -0.004225 -0.312298
    10 0.993192 -0.000004 0.000003 0.001032 0.001467 -0.401746
    11 3.786029 0.203226 0.247844 -0.121192 -0.054747 -0.317019
    12 1.684420 -0.000011 0.000009 0.000002 -0.000874 -0.343933
    13 1.256836 0.000000 -0.000001 0.000000 0.000000 -0.532321
    14 3.594224 0.299551 1.109803 -0.102866 -0.059027 -0.276138
    15 1.723633 0.000002 0.000001 0.000000 0.000000 -0.287983
    16 1.002930 -0.000010 0.000000 0.000000 0.000000 -0.445035
    17 0.298214 -0.634093 0.430606 -1.588329 -0.717363 -0.213734
    18 2.633557 0.000002 -0.000006 -0.000002 -0.117905 0.256017
    19 1.308564 0.000000 -0.000002 -0.002024 -0.006209 0.331225
    20 2.033356 1.000772 -1.937610 -1.668474 1.286518 2.942953
    21 6.028141 0.000000 -0.000002 1.894604 0.721291 -0.205019
    22 11.692554 0.000000 -0.000001 0.000046 -0.000012 -1.753216
    23 11.481699 -0.000001 -0.000007 -0.743934 0.111222 1.018603
    24 2.910431 -0.023168 1.400147 -0.181809 -0.131726 -0.049372
    25 1.285216 -0.000004 -0.000001 0.000002 -0.014956 -0.059564
    26 0.838747 -0.000002 -0.000002 0.022663 -0.076399 0.143271
    27 3.368061 0.007377 0.622456 0.028146 -0.187806 -0.015612
    28 1.605515 0.000000 0.000001 0.000003 0.008482 0.046267
    29 1.020532 -0.000002 -0.000003 -0.000818 0.009158 0.128640
    30 3.551620 0.023915 -0.200566 0.067414 -0.206492 0.028026
    31 1.668803 0.000002 0.000006 0.000002 0.002898 0.069205
    32 1.240434 0.000004 0.000006 0.000002 -0.000011 0.014175
    33 3.449666 0.054213 -1.089087 -0.008195 0.124812 -1.038400
    34 1.711614 0.000008 0.000011 0.000003 -0.021148 -0.299425
    35 1.005912 0.000002 0.000008 0.000364 -0.001420 -0.318297
    36 0.075534 -0.738750 -0.759723 0.981091 1.015316 -0.698887
    37 2.512460 -0.000010 -0.000006 -0.000002 -0.000001 0.359159
    38 1.328100 -0.058597 -0.035163 0.015320 0.072469 0.117323
    39 -6.976737 -22.210358 -4.590960 0.534085 0.041218 -3.479601
    40 0.000000 2.847656 -0.358400 0.000000 0.000000 0.000000
    41 -0.000001 3.923547 1.282475 0.000000 0.000000 0.000000
    42 0.000000 3.251565 2.448801 0.785371 0.000001 -0.000001
    43 0.000000 2.659132 1.094103 0.000000 0.000000 -0.000009
    44 0.000000 1.659210 1.354694 0.000000 0.000000 0.000000
    45 -18.013046 11.653858 -4.763837 1.570796 0.000000 -4.712349
  time 22
    0 0.500000 -3.660156 -8.140625 -1.570760 -1.391893 -1.570827
    1 2.033348 1.000767 1.937660 1.596636 -1.286515 2.942963
    2 6.028145 0.000003 0.000002 -0.791992 -0.555825 -1.913121
    3 11.692553 0.000081 -0.000005 -0.000015 0.000072 -1.165967
    4 11.481672 -0.000089 -0.000024 0.140838 0.469094 0.812275
    5 3.285465 0.006025 -1.379481 -0.038688 -0.086116 -0.078614
    6 1.324282 -0.000006 0.000005 0.000000 -0.046228 -0.346128
    7 0.819336 0.000000 0.000000 0.000000 0.000000 -0.523564
    8 3.715758 0.109257 -0.568167 -0.129177 -0.085953 -0.327039
    9 1.609408 0.000006 -0.000007 -0.000002 -0.003769 -0.323841
    10 0.993192 -0.000004 0.000003 0.001079 0.001551 -0.407001
    11 3.789935 0.203226 0.243938 -0.118220 -0.059361 -0.365088
    12 1.684420 -0.000011 0.000009 0.000002 -0.000143 -0.367983
    13 1.256836 0.000000 -0.000001 0.000000 0.000000 -0.532321
    14 3.594224 0.299551 1.113710 -0.098499 -0.065392 -0.340414
    15 1.723633 0.000002 0.000001 0.000000 0.000000 -0.287983
    16 1.002930 -0.000010 0.000000 0.000000 0.000000 -0.445035
    17 0.298214 -0.630187 0.430606 -1.541972 -0.759213 -0.274441
    18 2.633557 0.000002 -0.000006 -0.000002 -0.116491 0.255933
    19 1.308564 0.000000 -0.000002 -0.002467 -0.007455 0.337400
    20 2.033356 1.000772 -1.937610 -1.668474 1.286518 2.942953
    21 6.028141 0.000000 -0.000002 1.842667 0.734564 -0.278295
    22 11.692554 0.000000 -0.000001 0.000034 -0.000012 -1.762910
    23 11.481699 -0.000001 -0.000007 -0.840886 0.042444 1.126906
    24 2.910431 -0.023168 1.400147 -0.178319 -0.129413 -0.106772
    25 1.285216 -0.000004 -0.000001 0.000002 -0.006710 -0.094434
    26 0.838747 -0.000002 -0.000002 0.022351 -0.064929 0.056592
    27 3.368061 0.007377 0.622456 0.029812 -0.185409 -0.080381
    28 1.605515 0.000000 0.000001 0.000003 0.009177 -0.026647
    29 1.020532 -0.000002 -0.000003 -0.000986 0.007169 0.034152
    30 3.551620 0.027821 -0.200566 0.065341 -0.204767 -0.032428
    31 1.668803 0.000002 0.000006 0.000002 -0.000362 -0.012994
    32 1.240434 0.000004 0.000006 0.000002 -0.000011 -0.081956
    33 3.449666 0.054213 -1.089087 -0.003633 0.129450 -0.991431
    34 1.711614 0.000008 0.000011 0.000003 -0.023497 -0.331599
    35 1.005912 0.000002 0.000008 0.000879 -0.003181 -0.356285
    36 0.075534 -0.734843 -0.759723 0.789535 1.022084 -0.903183
    37 2.512460 -0.000010 -0.000006 -0.000002 -0.000001 0.359159
    38 1.328100 0.089845 0.039058 -0.011921 -0.034050 0.410986
    39 -6.609539 -22.612714 -6.020691 0.642665 -0.051806 -3.479046
    40 0.000000 2.847656 -0.358400 0.000000 0.000000 0.000000
    41 -0.000001 3.923547 1.282475 0.000000 0.000000 0.000000
    42 0.000000 3.251565 2.448801 0.785371 0.000001 -0.000001
    43 0.000000 2.659132 1.094103 0.000000 0.000000 -0.000009
    44 0.000000 1.659210 1.354694 0.000000 0.000000 0.000000
    45 -18.013046 11.653858 -4.763837 1.570796 0.000000 -4.712349
  time 23
    0 0.500000 -3.660156 -8.140625 -1.570760 -1.391893 -1.570827
    1 2.033348 1.000767 1.937660 1.596636 -1.286515 2.942963
    2 6.028145 0.000003 0.000002 -0.764041 -0.574584 -1.939301
    3 11.692553 0.000081 -0.000005 -0.000015 0.000036 -1.158080
    4 11.481672 -0.000089 -0.000024 0.028230 0.514156 0.752809
    5 3.281559 0.002119 -1.379481 -0.028293 -0.103182 -0.178044
    6 1.324282 -0.000006 0.000005 0.000000 -0.050027 -0.372094
    7 0.819336 0.000000 0.000000 0.000000 0.000000 -0.523564
    8 3.711852 0.109257 -0.568167 -0.122298 -0.096488 -0.406697
    9 1.609408 0.000006 -0.000007 -0.000002 -0.003290 -0.335383
    10 0.993192 -0.000004 0.000003 0.001127 0.001647 -0.412207
    11 3.786029 0.203226 0.247844 -0.115787 -0.063999 -0.412014
    12 1.684420 -0.000011 0.000009 0.000002 0.000588 -0.392072
    13 1.256836 0.000000 -0.000001 0.000000 0.000000 -0.532321
    14 3.594224 0.299551 1.109803 -0.094537 -0.071654 -0.403566
    15 1.723633 0.000002 0.000001 0.000000 0.000000 -0.287983
    16 1.002930 -0.000010 0.000000 0.000000 0.000000 -0.445035
    17 0.298214 -0.634093 0.426699 -1.486183 -0.803484 -0.341647
    18 2.633557 0.000002 -0.000006 -0.000002 -0.112752 0.252553
    19 1.308564 0.000000 -0.000002 -0.002695 -0.008126 0.340720
    20 2.033356 1.000772 -1.937610 -1.668474 1.286518 2.942953
    21 6.028141 0.000000 -0.000002 1.795113 0.741758 -0.344261
    22 11.692554 0.000000 -0.000001 0.000058 0.000000 -1.773694
    23 11.481699 -0.000001 -0.000007 -0.919227 0.024075 1.195615
    24 2.914337 -0.027074 1.404053 -0.173414 -0.125170 -0.179370
    25 1.285216 -0.000004 -0.000001 0.000002 0.003884 -0.137832
    26 0.842653 -0.000002 -0.000002 0.020602 -0.050740 -0.051513
    27 3.371967 0.007377 0.622456 0.031513 -0.180640 -0.162189
    28 1.605515 0.000000 0.000001 0.000003 0.012006 -0.117588
    29 1.020532 -0.000002 -0.000003 -0.000926 0.004688 -0.083770
    30 3.555526 0.023915 -0.200566 0.062249 -0.200836 -0.108827
    31 1.668803 0.000002 0.000006 0.000002 -0.001081 -0.115734
    32 1.240434 0.000004 0.000006 0.000002 -0.000011 -0.201946
    33 3.453572 0.054213 -1.089087 0.001228 0.134987 -0.935840
    34 1.711614 0.000008 0.000011 0.000003 -0.026074 -0.370402
    35 1.005912 0.000002 0.000008 0.001610 -0.005243 -0.402122
    36 0.079440 -0.734843 -0.759723 0.659585 0.992393 -1.043839
    37 2.512460 -0.000010 -0.000006 -0.000002 -0.000001 0.359159
    38 1.308568 0.214848 0.117185 -0.051674 -0.112645 0.615344
    39 -6.320467 -22.851003 -7.227759 0.770248 -0.119241 -3.462008
    40 0.000000 2.847656 -0.358400 0.000000 0.000000 0.000000
    41 -0.000001 3.923547 1.282475 0.000000 0.000000 0.000000
    42 0.000000 3.251565 2.448801 0.785371 0.000001 -0.000001
    43 0.000000 2.659132 1.094103 0.000000 0.000000 -0.000009
    44 0.000000 1.659210 1.354694 0.000000 0.000000 0.000000
    45 -18.013046 11.653858 -4.763837 1.570796 0.000000 -4.712349
  time 24
    0 0.500000 -3.660156 -8.140625 -1.570760 -1.391893 -1.570827
    1 2.033348 1.000767 1.937660 1.596636 -1.286515 2.942963
    2 6.028145 0.000003 0.000002 -0.747825 -0.590075 -1.956059
    3 11.692553 0.000081 -0.000005 -0.000015 0.000036 -1.139122
    4 11.481672 -0.000089 -0.000024 -0.075390 0.556362 0.677740
    5 3.281559 0.002119 -1.383387 -0.017174 -0.119254 -0.278460
    6 1.324282 -0.000006 0.000005 0.000000 -0.053322 -0.398060
    7 0.819336 0.000000 0.000000 0.000000 0.000000 -0.523564
    8 3.711852 0.109257 -0.568167 -0.114220 -0.106231 -0.487148
    9 1.609408 0.000006 -0.000007 -0.000002 -0.002750 -0.346887
    10 0.993192 -0.000004 0.000003 0.001163 0.001719 -0.417463
    11 3.786029 0.203226 0.247844 -0.112683 -0.068397 -0.459554
    12 1.684420 -0.000011 0.000009 0.000002 0.001331 -0.416122
    13 1.256836 0.000000 -0.000001 0.000000 0.000000 -0.532321
    14 3.594224 0.299551 1.113710 -0.089781 -0.077522 -0.467336
    15 1.723633 0.000002 0.000001 0.000000 0.000000 -0.287983
    16 1.002930 -0.000010 0.000000 0.000000 0.000000 -0.445035
    17 0.298214 -0.634093 0.426699 -1.420806 -0.845131 -0.416176
    18 2.633557 0.000002 -0.000006 -0.000002 -0.108485 0.249389
    19 1.308564 0.000000 -0.000002 -0.002922 -0.008810 0.344041
    20 2.033356 1.000772 -1.937610 -1.668474 1.286518 2.942953
    21 6.028141 0.000000 -0.000002 1.755509 0.745259 -0.398689
    22 11.692554 0.000000 -0.000001 0.000034 -0.000012 -1.782789
    23 11.481699 -0.000001 -0.000007 -0.972118 0.037886 1.213908
    24 2.914337 -0.023168 1.400147 -0.166613 -0.120436 -0.262385
    25 1.285216 -0.000004 -0.000001 0.000002 0.016420 -0.188124
    26 0.842653 -0.000002 -0.000002 0.016647 -0.034596 -0.177003
    27 3.368061 0.007377 0.618550 0.033275 -0.174791 -0.255758
    28 1.605515 0.000000 0.000001 0.000003 0.017902 -0.223118
    29 1.024438 -0.000002 -0.000003 -0.000482 0.001836 -0.220751
    30 3.555526 0.023915 -0.200566 0.058210 -0.195946 -0.196174
    31 1.668803 0.000002 0.000006 0.000002 0.002790 -0.234999
    32 1.240434 0.000004 0.000006 0.000002 -0.000011 -0.341232
    33 3.449666 0.054213 -1.089087 0.007584 0.140057 -0.870984
    34 1.711614 0.000008 0.000011 0.000003 -0.028579 -0.414668
    35 1.002005 0.000002 0.000008 0.002545 -0.007592 -0.454390
    36 0.075534 -0.738750 -0.759723 0.621801 0.912486 -1.100331
    37 2.512460 -0.000010 -0.000006 -0.000002 -0.000001 0.359159
    38 1.277317 0.324227 0.175781 -0.079729 -0.156521 0.745579
    39 -6.078273 -22.976007 -8.020752 0.906140 -0.157536 -3.434510
    40 0.000000 2.847656 -0.358400 0.000000 0.000000 0.000000
    41 -0.000001 3.923547 1.282475 0.000000 0.000000 0.000000
    42 0.000000 3.251565 2.448801 0.785371 0.000001 -0.000001
    43 0.000000 2.659132 1.094103 0.000000 0.000000 -0.000009
    44 0.000000 1.659210 1.354694 0.000000 0.000000 0.000000
    45 -18.013046 11.653858 -4.763837 1.570796 0.000000 -4.712349
  time 25
    0 0.500000 -3.660156 -8.140625 -1.570760 -1.391893 -1.570827
    1 2.033348 1.000767 1.937660 1.596636 -1.286515 2.942963
    2 6.028145 0.000003 0.000002 -0.741480 -0.604241 -1.967061
    3 11.692553 0.000081 -0.000005 -0.000003 0.000024 -1.102536
    4 11.481672 -0.000089 -0.000024 -0.146599 0.582127 0.571935
    5 3.281559 0.002119 -1.383387 -0.005848 -0.134127 -0.379204
    6 1.324282 -0.000006 0.000005 0.000000 -0.056019 -0.424189
    7 0.819336 0.000000 0.000000 0.000000 0.000000 -0.523564
    8 3.711852 0.109257 -0.568167 -0.105400 -0.115172 -0.567769
    9 1.609408 0.000006 -0.000007 -0.000002 -0.002187 -0.358391
    10 0.993192 -0.000004 0.000003 0.001211 0.001803 -0.422669
    11 3.786029 0.203226 0.243938 -0.109315 -0.072592 -0.507149
    12 1.684420 -0.000011 0.000009 0.000002 0.002074 -0.440211
    13 1.256836 0.000000 -0.000001 0.000000 0.000000 -0.532321
    14 3.594224 0.299551 1.109803 -0.084651 -0.083096 -0.531191
    15 1.723633 0.000002 0.000001 0.000000 0.000000 -0.287983
    16 1.002930 -0.000010 0.000000 0.000000 0.000000 -0.445035
    17 0.298214 -0.634093 0.426699 -1.350482 -0.879718 -0.493257
    18 2.633557 0.000002 -0.000006 -0.000002 -0.105561 0.249904
    19 1.308564 0.000000 -0.000002 -0.003390 -0.010032 0.350216
    20 2.033356 1.000772 -1.937610 -1.668474 1.286518 2.942953
    21 6.028141 0.000000 -0.000002 1.728983 0.746837 -0.435001
    22 11.692554 0.000000 -0.000001 0.000046 -0.000024 -1.791558
    23 11.481699 -0.000001 -0.000007 -1.000828 0.054791 1.210220
    24 2.910431 -0.023168 1.400147 -0.157738 -0.113653 -0.354578
    25 1.285216 -0.000004 -0.000001 0.000002 0.030274 -0.243786
    26 0.842653 -0.000002 -0.000002 0.009935 -0.017470 -0.315834
    27 3.368061 0.007377 0.618550 0.034893 -0.166198 -0.359538
    28 1.605515 0.000000 0.000001 0.000003 0.027394 -0.339717
    29 1.024438 -0.000002 -0.000003 0.000417 -0.001172 -0.372360
    30 3.551620 0.023915 -0.200566 0.053224 -0.188348 -0.293068
    31 1.668803 0.000002 0.000006 0.000002 0.012749 -0.366828
    32 1.240434 0.000004 0.000006 0.000002 -0.000011 -0.495445
    33 3.449666 0.054213 -1.089087 0.014202 0.145234 -0.800433
    34 1.711614 0.000008 0.000011 0.000003 -0.030772 -0.463232
    35 1.005912 0.000002 0.000008 0.003695 -0.010096 -0.511591
    36 0.075534 -0.738750 -0.759723 0.650703 0.795179 -1.107116
    37 2.512460 -0.000010 -0.000006 -0.000002 -0.000001 0.359159
    38 1.246066 0.429699 0.195313 -0.093823 -0.174725 0.853816
    39 -5.898580 -23.101010 -8.469985 1.024651 -0.173731 -3.401860
    40 0.000000 2.847656 -0.358400 0.000000 0.000000 0.000000
    41 -0.000001 3.923547 1.282475 0.000000 0.000000 0.000000
    42 0.000000 3.251565 2.448801 0.785371 0.000001 -0.000001
    43 0.000000 2.659132 1.094103 0.000000 0.000000 -0.000009
    44 0.000000 1.659210 1.354694 0.000000 0.000000 0.000000
    45 -18.013046 11.653858 -4.763837 1.570796 0.000000 -4.712349
  time 26
    0 0.500000 -3.660156 -8.140625 -1.570760 -1.391893 -1.570827
    1 2.033348 1.000767 1.937660 1.596636 -1.286515 2.942963
    2 6.028145 0.000003 0.000002 -0.739667 -0.620393 -1.977838
    3 11.692553 0.000081 -0.000005 -0.000003 0.000024 -1.045425
    4 11.481672 -0.000089 -0.000024 -0.172566 0.582780 0.437180
    5 3.281559 0.002119 -1.379481 0.005600 -0.147669 -0.480309
    6 1.324282 -0.000006 0.000005 0.000000 -0.058008 -0.450252
    7 0.819336 0.000000 0.000000 0.000000 0.000000 -0.523564
    8 3.711852 0.109257 -0.568167 -0.095872 -0.123261 -0.648560
    9 1.609408 0.000006 -0.000007 -0.000002 -0.001576 -0.369934
    10 0.993192 -0.000004 0.000003 0.001247 0.001875 -0.427924
    11 3.786029 0.203226 0.247844 -0.105720 -0.076630 -0.554744
    12 1.684420 -0.000011 0.000009 0.000002 0.002817 -0.464300
    13 1.256836 0.000000 -0.000001 0.000000 0.000000 -0.532321
    14 3.594224 0.299551 1.113710 -0.079175 -0.088326 -0.595017
    15 1.723633 0.000002 0.000001 0.000000 0.000000 -0.287983
    16 1.002930 -0.000010 0.000000 0.000000 0.000000 -0.445035
    17 0.298214 -0.634093 0.426699 -1.282497 -0.903448 -0.566588
    18 2.633557 0.000002 -0.000006 -0.000002 -0.105813 0.257611
    19 1.308564 0.000000 -0.000002 -0.004253 -0.012405 0.362058
    20 2.033356 1.000772 -1.937610 -1.668474 1.286518 2.942953
    21 6.028141 0.000000 -0.000002 1.713132 0.749491 -0.456668
    22 11.692554 0.000000 -0.000001 0.000046 -0.000012 -1.797984
    23 11.481699 -0.000001 -0.000007 -1.003318 0.067939 1.188821
    24 2.914337 -0.023168 1.404053 -0.146929 -0.105276 -0.452792
    25 1.285216 -0.000004 -0.000001 0.000002 0.044608 -0.303276
    26 0.842653 -0.000002 -0.000002 0.000264 -0.000392 -0.464247
    27 3.368061 0.007377 0.618550 0.036199 -0.155184 -0.470002
    28 1.605515 0.000000 0.000001 0.000003 0.040457 -0.464128
    29 1.020532 -0.000002 -0.000003 0.001903 -0.004241 -0.534224
    30 3.555526 0.023915 -0.200566 0.047388 -0.178341 -0.396204
    31 1.668803 0.000002 0.000006 0.000002 0.029276 -0.507234
    32 1.240434 0.000004 0.000006 0.000002 -0.000011 -0.660136
    33 3.449666 0.054213 -1.089087 0.021145 0.149908 -0.725507
    34 1.711614 0.000008 0.000011 0.000003 -0.032414 -0.514768
    35 1.002005 0.000002 0.000008 0.005085 -0.012673 -0.572252
    36 0.075534 -0.738750 -0.759723 0.730726 0.674829 -1.076455
    37 2.512460 -0.000010 -0.000006 -0.000002 -0.000001 0.359147
    38 1.214815 0.507826 0.175781 -0.087040 -0.160799 0.923265
    39 -5.773576 -23.237733 -8.630146 1.127501 -0.165648 -3.362792
    40 0.000000 2.847656 -0.358400 0.000000 0.000000 0.000000
    41 -0.000001 3.923547 1.282475 0.000000 0.000000 0.000000
    42 0.000000 3.251565 2.448801 0.785371 0.000001 -0.000001
    43 0.000000 2.659132 1.094103 0.000000 0.000000 -0.000009
    44 0.000000 1.659210 1.354694 0.000000 0.000000 0.000000
    45 -18.013046 11.653858 -4.763837 1.570796 0.000000 -4.712349
  time 27
    0 0.500000 -3.660156 -8.140625 -1.570760 -1.391893 -1.570827
    1 2.033348 1.000767 1.937660 1.596636 -1.286515 2.942963
    2 6.028145 0.000003 0.000002 -0.733120 -0.639698 -1.995328
    3 11.692553 0.000081 -0.000005 -0.000003 0.000024 -0.979238
    4 11.481672 -0.000089 -0.000024 -0.166245 0.565375 0.307126
    5 3.281559 0.002119 -1.383387 0.017203 -0.159738 -0.582203
    6 1.324282 -0.000006 0.000005 0.000000 -0.059219 -0.476511
    7 0.819336 0.000000 0.000000 0.000000 0.000000 -0.523564
    8 3.711852 0.105350 -0.572073 -0.085517 -0.130452 -0.729832
    9 1.609408 0.000006 -0.000007 -0.000002 -0.000953 -0.381437
    10 0.993192 -0.000004 0.000003 0.001295 0.001946 -0.433106
    11 3.786029 0.203226 0.243938 -0.101705 -0.080501 -0.602672
    12 1.684420 -0.000011 0.000009 0.000002 0.003537 -0.488351
    13 1.256836 0.000000 -0.000001 0.000000 0.000000 -0.532321
    14 3.594224 0.299551 1.109803 -0.073209 -0.093211 -0.659294
    15 1.723633 0.000002 0.000001 0.000000 0.000000 -0.287983
    16 1.002930 -0.000010 0.000000 0.000000 0.000000 -0.445035
    17 0.298214 -0.634093 0.426699 -1.226430 -0.913455 -0.628257
    18 2.633557 0.000002 -0.000006 -0.000002 -0.111170 0.276007
    19 1.308564 0.000000 -0.000002 -0.005847 -0.016480 0.382445
    20 2.033356 1.000772 -1.937610 -1.668474 1.286518 2.942953
    21 6.028141 0.000000 -0.000002 1.703349 0.755108 -0.470007
    22 11.692554 0.000000 -0.000001 0.000034 -0.000024 -1.800653
    23 11.481699 -0.000001 -0.000007 -0.983529 0.075341 1.155874
    24 2.914337 -0.027074 1.400147 -0.134246 -0.095077 -0.554399
    25 1.285216 -0.000004 -0.000001 0.000002 0.058522 -0.365125
    26 0.838747 -0.000002 -0.000002 -0.012284 0.015547 -0.618239
    27 3.368061 0.007377 0.618550 0.037182 -0.141594 -0.584051
    28 1.605515 0.000000 0.000001 0.000003 0.056408 -0.592962
    29 1.020532 -0.000002 -0.000003 0.003952 -0.007117 -0.701967
    30 3.555526 0.023915 -0.200566 0.040940 -0.165721 -0.502618
    31 1.668803 0.000002 0.000006 0.000002 0.051711 -0.652348
    32 1.240434 0.000004 0.000006 0.000002 -0.000011 -0.830744
    33 3.449666 0.054213 -1.089087 0.028299 0.154138 -0.647976
    34 1.711614 0.000008 0.000011 0.000003 -0.033337 -0.567951
    35 1.005912 0.000002 0.000008 0.006691 -0.015238 -0.634901
    36 0.075534 -0.734843 -0.759723 0.836337 0.584778 -1.015691
    37 2.512460 -0.000010 -0.000006 -0.000002 -0.000001 0.359147
    38 1.214815 0.535171 0.113279 -0.064293 -0.122317 0.935827
    39 -5.675917 -23.378363 -8.583269 1.216695 -0.136808 -3.315799
    40 0.000000 2.847656 -0.358400 0.000000 0.000000 0.000000
    41 -0.000001 3.923547 1.282475 0.000000 0.000000 0.000000
    42 0.000000 3.251565 2.448801 0.785371 0.000001 -0.000001
    43 0.000000 2.659132 1.094103 0.000000 0.000000 -0.000009
    44 0.000000 1.659210 1.354694 0.000000 0.000000 0.000000
    45 -18.013046 11.653858 -4.763837 1.570796 0.000000 -4.712349
  time 28
    0 0.500000 -3.660156 -8.140625 -1.570760 -1.391893 -1.570827
    1 2.033348 1.000767 1.937660 1.596636 -1.286515 2.942963
    2 6.028145 0.000003 0.000002 -0.716501 -0.660909 -2.019251
    3 11.692553 0.000081 -0.000005 -0.000003 -0.000108 -0.925690
    4 11.481672 -0.000089 -0.000024 -0.145421 0.538303 0.214918
    5 3.285465 0.006025 -1.379481 0.028667 -0.170092 -0.684326
    6 1.324282 -0.000006 0.000005 0.000000 -0.059554 -0.502900
    7 0.819336 0.000000 0.000000 0.000000 0.000000 -0.523564
    8 3.715758 0.109257 -0.568167 -0.074635 -0.136612 -0.811104
    9 1.609408 0.000006 -0.000007 -0.000002 -0.000294 -0.392941
    10 0.993192 -0.000004 0.000003 0.001343 0.002018 -0.438336
    11 3.789935 0.207132 0.247844 -0.097474 -0.084097 -0.650546
    12 1.684420 -0.000011 0.000009 0.000002 0.004244 -0.512440
    13 1.256836 0.000000 -0.000001 0.000000 0.000000 -0.532321
    14 3.594224 0.303457 1.113710 -0.066984 -0.097662 -0.723542
    15 1.723633 0.000002 0.000001 0.000000 0.000000 -0.287983
    16 1.002930 -0.000010 0.000000 0.000000 0.000000 -0.445035
    17 0.298214 -0.630187 0.430606 -1.204439 -0.901075 -0.658827
    18 2.637464 0.000002 -0.000006 -0.000002 -0.127301 0.314693
    19 1.308564 0.000000 -0.000002 -0.008927 -0.023706 0.419305
    20 2.033356 1.000772 -1.937610 -1.668474 1.286518 2.942953
    21 6.028141 0.000000 -0.000002 1.698123 0.763841 -0.477108
    22 11.692554 0.000000 -0.000001 0.000034 -0.000012 -1.799727
    23 11.481699 -0.000001 -0.000007 -0.947393 0.080783 1.116910
    24 2.914337 -0.023168 1.400147 -0.120365 -0.084363 -0.656686
    25 1.289123 -0.000004 -0.000001 0.000002 0.071130 -0.427809
    26 0.842653 -0.000002 -0.000002 -0.027325 0.029509 -0.773767
    27 3.368061 0.007377 0.622456 0.037470 -0.126829 -0.698617
    28 1.605515 0.000000 0.000001 0.000003 0.074026 -0.722856
    29 1.020532 -0.000002 -0.000003 0.006469 -0.009634 -0.871187
    30 3.551620 0.023915 -0.200566 0.033737 -0.151759 -0.609482
    31 1.668803 0.000002 0.000006 0.000002 0.078269 -0.798482
    32 1.240434 0.000004 0.000006 0.000002 -0.000011 -1.002860
    33 3.449666 0.054213 -1.089087 0.035191 0.156751 -0.569865
    34 1.711614 0.000008 0.000011 0.000003 -0.033432 -0.621656
    35 1.005912 0.000002 0.000008 0.008465 -0.017719 -0.698041
    36 0.075534 -0.738750 -0.759723 0.958138 0.533252 -0.911951
    37 2.512460 -0.000010 -0.000006 -0.000002 -0.000001 0.359147
    38 1.242160 0.476575 0.039058 -0.034572 -0.071035 0.877601
    39 -5.609508 -23.534617 -8.348887 1.300350 -0.095858 -3.264527
    40 0.000000 2.847656 -0.358400 0.000000 0.000000 0.000000
    41 -0.000001 3.923547 1.282475 0.000000 0.000000 0.000000
    42 0.000000 3.251565 2.448801 0.785371 0.000001 -0.000001
    43 0.000000 2.659132 1.094103 0.000000 0.000000 -0.000009
    44 0.000000 1.659210 1.354694 0.000000 0.000000 0.000000
    45 -18.013046 11.653858 -4.763837 1.570796 0.000000 -4.712349
  time 29
    0 0.500000 -3.660156 -8.140625 -1.570760 -1.391893 -1.570827
    1 2.033348 1.000767 1.937660 1.596636 -1.286515 2.942963
    2 6.028145 0.000003 0.000002 -0.675154 -0.686090 -2.056659
    3 11.692553 0.000081 -0.000005 -0.000003 0.000012 -0.909203
    4 11.481672 -0.000089 -0.000024 -0.118153 0.500878 0.147369
    5 3.281559 0.002119 -1.379481 0.041859 -0.179764 -0.808852
    6 1.324282 -0.000006 0.000005 0.000000 -0.057877 -0.535236
    7 0.819336 0.000000 0.000000 0.000000 0.000000 -0.523564
    8 3.711852 0.109257 -0.568167 -0.061141 -0.142796 -0.909871
    9 1.609408 0.000006 -0.000007 -0.000002 0.000521 -0.407032
    10 0.993192 -0.000004 0.000003 0.001403 0.002114 -0.444727
    11 3.786029 0.203226 0.243938 -0.092501 -0.088255 -0.708328
    12 1.684420 -0.000011 0.000009 0.000002 0.005059 -0.541886
    13 1.256836 0.000000 -0.000001 0.000000 0.000000 -0.532321
    14 3.594224 0.299551 1.113710 -0.059447 -0.102637 -0.801315
    15 1.723633 0.000002 0.000001 0.000000 0.000000 -0.287983
    16 1.002930 -0.000010 0.000000 0.000000 0.000000 -0.445035
    17 0.298214 -0.634093 0.426699 -1.225763 -0.858805 -0.652426
    18 2.633557 0.000002 -0.000006 -0.000002 -0.164130 0.387607
    19 1.308564 0.000000 -0.000002 -0.015686 -0.036146 0.485877
    20 2.033356 1.000772 -1.937610 -1.668474 1.286518 2.942953
    21 6.028141 0.000000 -0.000002 1.711175 0.778114 -0.459539
    22 11.692554 0.000000 -0.000001 0.000046 -0.000012 -1.781046
    23 11.481699 -0.000001 -0.000007 -0.893415 0.077827 1.070377
    24 2.910431 -0.023168 1.400147 -0.102836 -0.071120 -0.773786
    25 1.285216 -0.000004 -0.000001 0.000002 0.081412 -0.500344
    26 0.842653 -0.000002 -0.000002 -0.047950 0.040295 -0.952460
    27 3.368061 0.007377 0.622456 0.037302 -0.106755 -0.828988
    28 1.605515 0.000000 0.000001 0.000003 0.093740 -0.872124
    29 1.020532 -0.000002 -0.000003 0.010016 -0.011539 -1.065011
    30 3.551620 0.023915 -0.200566 0.025288 -0.131709 -0.730784
    31 1.668803 0.000002 0.000006 0.000002 0.110520 -0.966478
    32 1.240434 0.000004 0.000006 0.000002 -0.000011 -1.200034
    33 3.449666 0.054213 -1.089087 0.042968 0.158525 -0.479723
    34 1.711614 0.000008 0.000011 0.000003 -0.031851 -0.683556
    35 1.005912 0.000002 0.000008 0.010790 -0.020343 -0.770840
    36 0.075534 -0.738750 -0.759723 1.111177 0.497789 -0.734183
    37 2.508554 -0.000010 -0.000006 -0.000002 -0.000001 0.359147
    38 1.292943 0.316414 -0.019538 -0.008637 -0.024175 0.741888
    39 -5.863422 -23.808063 -7.864497 1.407783 -0.055952 -3.213176
    40 0.000000 2.847656 -0.358400 0.000000 0.000000 0.000000
    41 -0.000001 3.923547 1.282475 0.000000 0.000000 0.000000
    42 0.000000 3.251565 2.448801 0.785371 0.000001 -0.000001
    43 0.000000 2.659132 1.094103 0.000000 0.000000 -0.000009
    44 0.000000 1.659210 1.354694 0.000000 0.000000 0.000000
    45 -18.013046 11.653858 -4.763837 1.570796 0.000000 -4.712349
  time 30
    0 0.500000 -3.660156 -8.140625 -1.570760 -1.391893 -1.570827
    1 2.033348 1.000767 1.937660 1.596636 -1.286515 2.942963
    2 6.028145 0.000003 0.000002 -0.628973 -0.710765 -2.097001
    3 11.692553 0.000081 -0.000005 -0.000003 0.000024 -0.898322
    4 11.481672 -0.000089 -0.000024 -0.080906 0.463969 0.093605
    5 3.281559 0.002119 -1.383387 0.054791 -0.187566 -0.934199
    6 1.324282 -0.000006 0.000005 0.000000 -0.055863 -0.567637
    7 0.819336 0.000000 0.000000 0.000000 0.000000 -0.523564
    8 3.711852 0.109257 -0.572073 -0.046699 -0.147518 -1.009373
    9 1.609408 0.000006 -0.000007 -0.000002 0.001384 -0.421122
    10 0.993192 -0.000004 0.000003 0.001451 0.002210 -0.451142
    11 3.786029 0.203226 0.243938 -0.086892 -0.092090 -0.766638
    12 1.684420 -0.000011 0.000009 0.000002 0.005838 -0.571294
    13 1.256836 0.000000 -0.000001 0.000000 0.000000 -0.532321
    14 3.594224 0.299551 1.109803 -0.051248 -0.106961 -0.879706
    15 1.723633 0.000002 0.000001 0.000000 0.000000 -0.287983
    16 1.002930 -0.000010 0.000000 0.000000 0.000000 -0.445035
    17 0.298214 -0.634093 0.426699 -1.251924 -0.812473 -0.643022
    18 2.637464 0.000002 -0.000006 -0.000002 -0.203523 0.464345
    19 1.308564 0.000000 -0.000002 -0.022889 -0.049138 0.555686
    20 2.033356 1.000772 -1.937610 -1.668474 1.286518 2.942953
    21 6.028141 0.000000 -0.000002 1.727225 0.792233 -0.437977
    22 11.692554 0.000000 -0.000001 0.000034 -0.000024 -1.759643
    23 11.481699 -0.000001 -0.000007 -0.836267 0.078518 1.025687
    24 2.910431 -0.023168 1.400147 -0.084249 -0.056127 -0.889146
    25 1.285216 -0.000004 -0.000001 0.000002 0.090928 -0.572316
    26 0.838747 -0.000002 -0.000002 -0.068923 0.050123 -1.129375
    27 3.368061 0.007377 0.618550 0.036523 -0.086513 -0.957924
    28 1.605515 0.000000 0.000001 0.000003 0.113203 -1.019968
    29 1.020532 -0.000002 -0.000003 0.013636 -0.013277 -1.256912
    30 3.551620 0.023915 -0.200566 0.016611 -0.112150 -0.850897
    31 1.668803 0.000002 0.000006 0.000002 0.142746 -1.132914
    32 1.240434 0.000004 0.000006 0.000002 -0.000011 -1.395119
    33 3.449666 0.054213 -1.089087 0.050347 0.159448 -0.390320
    34 1.711614 0.000008 0.000011 0.000003 -0.030017 -0.744933
    35 1.002005 0.000002 0.000008 0.013151 -0.022896 -0.842992
    36 0.075534 -0.738750 -0.759723 1.243001 0.440030 -0.555075
    37 2.512460 -0.000010 -0.000006 -0.000002 -0.000001 0.359147
    38 1.324194 0.132815 -0.082039 0.015212 0.020539 0.597334
    39 -6.172025 -24.101041 -7.348857 1.519132 -0.017299 -3.163806
    40 0.000000 2.847656 -0.358400 0.000000 0.000000 0.000000
    41 -0.000001 3.923547 1.282475 0.000000 0.000000 0.000000
    42 0.000000 3.251565 2.448801 0.785371 0.000001 -0.000001
    43 0.000000 2.659132 1.094103 0.000000 0.000000 -0.000009
    44 0.000000 1.659210 1.354694 0.000000 0.000000 0.000000
    45 -18.013046 11.653858 -4.763837 1.570796 0.000000 -4.712349
  time 31
    0 0.500000 -3.660156 -8.140625 -1.570760 -1.391893 -1.570827
    1 2.033348 1.000767 1.937660 1.596636 -1.286515 2.942963
    2 6.028145 0.000003 0.000002 -0.606361 -0.722130 -2.116580
    3 11.692553 0.000081 -0.000005 -0.000003 0.000024 -0.893476
    4 11.481672 -0.000089 -0.000024 -0.061136 0.447733 0.072081
    5 3.281559 0.002119 -1.383387 0.060420 -0.190574 -0.991222
    6 1.324282 -0.000006 0.000005 0.000000 -0.054892 -0.582358
    7 0.819336 0.000000 0.000000 0.000000 0.000000 -0.523564
    8 3.711852 0.109257 -0.568167 -0.040000 -0.149184 -1.054609
    9 1.609408 0.000006 -0.000007 -0.000002 0.001792 -0.427492
    10 0.993192 -0.000004 0.000003 0.001487 0.002258 -0.454028
    11 3.786029 0.203226 0.243938 -0.084231 -0.093732 -0.793163
    12 1.684420 -0.000011 0.000009 0.000002 0.006209 -0.584668
    13 1.256836 0.000000 -0.000001 0.000000 0.000000 -0.532321
    14 3.594224 0.299551 1.109803 -0.047400 -0.108708 -0.915331
    15 1.723633 0.000002 0.000001 0.000000 0.000000 -0.287983
    16 1.002930 -0.000010 0.000000 0.000000 0.000000 -0.445035
    17 0.298214 -0.634093 0.426699 -1.264362 -0.790649 -0.638565
    18 2.633557 0.000002 -0.000006 -0.000002 -0.221908 0.499915
    19 1.308564 0.000000 -0.000002 -0.026232 -0.055118 0.587999
    20 2.033356 1.000772 -1.937610 -1.668474 1.286518 2.942953
    21 6.028141 0.000000 -0.000002 1.734655 0.798466 -0.428031
    22 11.692554 0.000000 -0.000001 0.000034 -0.000012 -1.749622
    23 11.481699 -0.000001 -0.000007 -0.809867 0.080672 1.006327
    24 2.910431 -0.023168 1.400147 -0.075434 -0.048649 -0.941116
    25 1.285216 -0.000004 -0.000001 0.000002 0.095123 -0.604919
    26 0.838747 -0.000002 -0.000002 -0.078511 0.054425 -1.209504
    27 3.368061 0.007377 0.618550 0.035972 -0.077320 -1.016268
    28 1.605515 0.000000 0.000001 0.000003 0.122000 -1.086881
    29 1.020532 -0.000002 -0.000003 0.015301 -0.014044 -1.343737
    30 3.555526 0.023915 -0.204473 0.012608 -0.103497 -0.905347
    31 1.668803 0.000002 0.000006 0.000002 0.157391 -1.208275
    32 1.240434 0.000004 0.000006 0.000002 -0.000011 -1.483439
    33 3.449666 0.054213 -1.089087 0.053550 0.159639 -0.349817
    34 1.711614 0.000008 0.000011 0.000003 -0.029142 -0.772730
    35 1.005912 0.000002 0.000008 0.014242 -0.024046 -0.875660
    36 0.075534 -0.738750 -0.759723 1.293525 0.406485 -0.475825
    37 2.512460 -0.000010 -0.000006 -0.000002 -0.000001 0.359159
    38 1.324194 0.050781 -0.113290 0.025651 0.040518 0.530147
    39 -6.320467 -24.237764 -7.110568 1.570796 0.000000 -3.141617
    40 0.000000 2.847656 -0.358400 0.000000 0.000000 0.000000
    41 -0.000001 3.923547 1.282475 0.000000 0.000000 0.000000
    42 0.000000 3.251565 2.448801 0.785371 0.000001 -0.000001
    43 0.000000 2.659132 1.094103 0.000000 0.000000 -0.000009
    44 0.000000 1.659210 1.354694 0.000000 0.000000 0.000000
    45 -18.013046 11.653858 -4.763837 1.570796 0.000000 -4.712349
end
