// Created by Crowbar++ 0.74
version 1
nodes
  0 "ValveBiped.Bip01_Spine4" -1
  1 "ValveBiped.Bip01_L_Clavicle" 0
  2 "ValveBiped.Bip01_L_UpperArm" 1
  3 "ValveBiped.Bip01_L_Forearm" 2
  4 "ValveBiped.Bip01_L_Hand" 3
  5 "ValveBiped.Bip01_L_Finger4" 4
  6 "ValveBiped.Bip01_L_Finger41" 5
  7 "ValveBiped.Bip01_L_Finger42" 6
  8 "ValveBiped.Bip01_L_Finger3" 4
  9 "ValveBiped.Bip01_L_Finger31" 8
  10 "ValveBiped.Bip01_L_Finger32" 9
  11 "ValveBiped.Bip01_L_Finger2" 4
  12 "ValveBiped.Bip01_L_Finger21" 11
  13 "ValveBiped.Bip01_L_Finger22" 12
  14 "ValveBiped.Bip01_L_Finger1" 4
  15 "ValveBiped.Bip01_L_Finger11" 14
  16 "ValveBiped.Bip01_L_Finger12" 15
  17 "ValveBiped.Bip01_L_Finger0" 4
  18 "ValveBiped.Bip01_L_Finger01" 17
  19 "ValveBiped.Bip01_L_Finger02" 18
  20 "ValveBiped.Bip01_R_Clavicle" 0
  21 "ValveBiped.Bip01_R_UpperArm" 20
  22 "ValveBiped.Bip01_R_Forearm" 21
  23 "ValveBiped.Bip01_R_Hand" 22
  24 "ValveBiped.Bip01_R_Finger4" 23
  25 "ValveBiped.Bip01_R_Finger41" 24
  26 "ValveBiped.Bip01_R_Finger42" 25
  27 "ValveBiped.Bip01_R_Finger3" 23
  28 "ValveBiped.Bip01_R_Finger31" 27
  29 "ValveBiped.Bip01_R_Finger32" 28
  30 "ValveBiped.Bip01_R_Finger2" 23
  31 "ValveBiped.Bip01_R_Finger21" 30
  32 "ValveBiped.Bip01_R_Finger22" 31
  33 "ValveBiped.Bip01_R_Finger1" 23
  34 "ValveBiped.Bip01_R_Finger11" 33
  35 "ValveBiped.Bip01_R_Finger12" 34
  36 "ValveBiped.Bip01_R_Finger0" 23
  37 "ValveBiped.Bip01_R_Finger01" 36
  38 "ValveBiped.Bip01_R_Finger02" 37
  39 "v_weapon.Deagle_Parent" -1
  40 "v_weapon.Deagle_Trigger" 39
  41 "v_weapon.Deagle_Slide" 39
  42 "v_weapon.Deagle_Hammer" 39
  43 "v_weapon.Deagle_ClipRelease" 39
  44 "v_weapon.Deagle_Clip" 39
  45 "v_weapon.Deagle_Clip2" -1
end
skeleton
  time 0
    0 0.500000 -3.660156 -8.140625 -1.570760 -1.391893 -1.570827
    1 2.033348 1.000767 1.937660 1.596636 -1.286515 2.942963
    2 6.028145 0.000003 0.000002 -0.606361 -0.722130 -2.116580
    3 11.692553 0.000081 -0.000005 -0.000003 0.000024 -0.893476
    4 11.481672 -0.000089 -0.000024 -0.061136 0.447733 0.072081
    5 3.281559 0.002119 -1.383387 0.060420 -0.190574 -0.991222
    6 1.327148 0.000000 0.000000 0.000000 -0.054909 -0.582372
    7 0.819336 0.000004 0.000002 0.000000 0.000000 -0.523564
    8 3.711852 0.109257 -0.568167 -0.040000 -0.149184 -1.054609
    9 1.610352 -0.000004 0.000004 -0.000003 0.001795 -0.427542
    10 0.993192 -0.000004 0.000003 0.001487 0.002258 -0.454028
    11 3.786029 0.203226 0.243938 -0.084231 -0.093732 -0.793163
    12 1.683594 -0.000006 -0.000002 -0.000001 0.006210 -0.584698
    13 1.255859 0.000002 0.000000 0.000000 0.000000 -0.532321
    14 3.594224 0.299551 1.109803 -0.047400 -0.108708 -0.915331
    15 1.723633 0.000000 -0.000002 0.000000 0.000000 -0.287983
    16 1.002930 -0.000002 0.000000 0.000000 0.000000 -0.445035
    17 0.298214 -0.634093 0.426699 -1.264362 -0.790649 -0.638565
    18 2.633557 0.000002 -0.000006 -0.000002 -0.221908 0.499915
    19 1.308594 -0.000002 0.000004 -0.026244 -0.055139 0.588026
    20 2.033356 1.000772 -1.937610 -1.668474 1.286518 2.942953
    21 6.028141 0.000000 -0.000002 1.734655 0.798466 -0.428031
    22 11.692554 0.000000 -0.000001 0.000058 0.000192 -1.749894
    23 11.481699 -0.000001 -0.000007 -0.810455 0.080313 1.007055
    24 2.910431 -0.027074 1.400147 -0.075614 -0.047990 -0.941293
    25 1.285216 -0.000004 -0.000001 0.000002 0.095123 -0.604919
    26 0.842285 0.000000 0.000001 -0.078526 0.054444 -1.209532
    27 3.368061 0.003471 0.618550 0.035756 -0.076685 -1.016412
    28 1.605515 0.000000 0.000001 0.000003 0.122000 -1.086881
    29 1.020532 -0.000002 -0.000003 0.015301 -0.014044 -1.343793
    30 3.555526 0.023915 -0.204473 0.012465 -0.102838 -0.905480
    31 1.666992 0.000000 0.000000 -0.000008 0.157406 -1.208297
    32 1.240434 0.000004 0.000006 0.000002 -0.000011 -1.483439
    33 3.453572 0.054213 -1.085181 0.053787 0.160275 -0.349946
    34 1.711614 0.000008 0.000011 0.000003 -0.044590 -1.228281
    35 1.002005 0.000002 0.000008 0.021924 -0.029787 -1.074609
    36 0.079440 -0.738750 -0.759723 1.293688 0.407130 -0.475909
    37 2.512460 -0.000010 -0.000006 -0.000002 -0.000001 0.359159
    38 1.324194 0.050781 -0.113290 0.025663 0.040518 0.530147
    39 -6.320467 -24.237764 -7.110568 1.570796 0.000000 -3.141617
    40 0.000000 2.847656 -0.358400 -0.183232 0.000000 0.000000
    41 -0.000001 3.923547 1.282475 0.000000 0.000000 0.000000
    42 0.000000 3.251565 2.448801 0.000000 0.000001 -0.000001
    43 0.000000 2.659132 1.094103 0.000000 0.000000 -0.000009
    44 0.000000 1.659210 1.354694 0.000000 0.000000 0.000000
    45 -18.013046 11.653858 -4.763837 1.570796 0.000000 -4.712349
  time 1
    0 0.500000 -3.660156 -8.140625 -1.570760 -1.391893 -1.570827
    1 2.033348 1.000767 1.937660 1.596636 -1.286515 2.942963
    2 6.028145 0.000003 0.000002 -0.606361 -0.722130 -2.116580
    3 11.692553 0.000081 -0.000005 -0.000003 0.000024 -0.893476
    4 11.481672 -0.000089 -0.000024 -0.061136 0.447733 0.072081
    5 3.281559 0.002119 -1.383387 0.060420 -0.190574 -0.991222
    6 1.327148 0.000000 0.000000 0.000000 -0.054909 -0.582372
    7 0.819336 0.000004 0.000002 0.000000 0.000000 -0.523564
    8 3.711852 0.109257 -0.568167 -0.040000 -0.149184 -1.054609
    9 1.610352 -0.000004 0.000004 -0.000003 0.001795 -0.427542
    10 0.993192 -0.000004 0.000003 0.001487 0.002258 -0.454028
    11 3.786029 0.203226 0.243938 -0.084231 -0.093732 -0.793163
    12 1.683594 -0.000006 -0.000002 -0.000001 0.006210 -0.584698
    13 1.255859 0.000002 0.000000 0.000000 0.000000 -0.532321
    14 3.594224 0.299551 1.109803 -0.047400 -0.108708 -0.915331
    15 1.723633 0.000000 -0.000002 0.000000 0.000000 -0.287983
    16 1.002930 -0.000002 0.000000 0.000000 0.000000 -0.445035
    17 0.298214 -0.634093 0.426699 -1.264362 -0.790649 -0.638565
    18 2.633557 0.000002 -0.000006 -0.000002 -0.221908 0.499915
    19 1.308594 -0.000002 0.000004 -0.026244 -0.055139 0.588026
    20 2.033356 1.000772 -1.937610 -1.668474 1.286518 2.942953
    21 6.028141 0.000000 -0.000002 1.734655 0.798466 -0.428031
    22 11.692554 0.000000 -0.000001 0.000058 0.000192 -1.749894
    23 11.481699 -0.000001 -0.000007 -0.810455 0.080313 1.007055
    24 2.910431 -0.027074 1.400147 -0.075614 -0.047990 -0.941293
    25 1.285216 -0.000004 -0.000001 0.000002 0.095123 -0.604919
    26 0.842285 0.000000 0.000001 -0.078526 0.054444 -1.209532
    27 3.368061 0.003471 0.618550 0.035756 -0.076685 -1.016412
    28 1.605515 0.000000 0.000001 0.000003 0.122000 -1.086881
    29 1.020532 -0.000002 -0.000003 0.015301 -0.014044 -1.343793
    30 3.555526 0.023915 -0.204473 0.012465 -0.102838 -0.905480
    31 1.666992 0.000000 0.000000 -0.000008 0.157406 -1.208297
    32 1.240434 0.000004 0.000006 0.000002 -0.000011 -1.483439
    33 3.453572 0.054213 -1.085181 0.053787 0.160275 -0.349946
    34 1.711614 0.000008 0.000011 0.000003 -0.044590 -1.228281
    35 1.002005 0.000002 0.000008 0.021924 -0.029787 -1.074609
    36 0.079440 -0.738750 -0.759723 1.293688 0.407130 -0.475909
    37 2.512460 -0.000010 -0.000006 -0.000002 -0.000001 0.359159
    38 1.324194 0.050781 -0.113290 0.025663 0.040518 0.530147
    39 -6.320467 -24.237764 -7.110568 1.570796 0.000000 -3.141617
    40 0.000000 2.847656 -0.358400 -0.183232 0.000000 0.000000
    41 -0.000001 3.923547 1.282475 0.000000 0.000000 0.000000
    42 0.000000 3.251565 2.448801 0.000000 0.000001 -0.000001
    43 0.000000 2.659132 1.094103 0.000000 0.000000 -0.000009
    44 0.000000 1.659210 1.354694 0.000000 0.000000 0.000000
    45 -18.013046 11.653858 -4.763837 1.570796 0.000000 -4.712349
  time 2
    0 0.500000 -3.660156 -8.140625 -1.570760 -1.391893 -1.570827
    1 2.033348 1.000767 1.937660 1.596636 -1.286515 2.942963
    2 6.028145 0.000003 0.000002 -0.513043 -0.790357 -2.220904
    3 11.692553 0.000081 -0.000005 -0.000003 0.000024 -0.734257
    4 11.481672 -0.000089 -0.000024 -0.006971 0.434696 -0.074830
    5 3.281559 0.002119 -1.383387 0.060402 -0.190574 -0.991222
    6 1.327148 0.000000 0.000000 0.000000 -0.054909 -0.582372
    7 0.819336 0.000004 0.000002 0.000000 0.000000 -0.523564
    8 3.711852 0.109257 -0.568167 -0.040000 -0.149184 -1.054609
    9 1.610352 -0.000004 0.000004 -0.000003 0.001795 -0.427542
    10 0.993192 -0.000004 0.000003 0.001475 0.002258 -0.454028
    11 3.786029 0.203226 0.243938 -0.084231 -0.093732 -0.793163
    12 1.683594 -0.000006 -0.000002 -0.000001 0.006210 -0.584698
    13 1.255859 0.000002 0.000000 0.000000 0.000000 -0.532321
    14 3.594224 0.299551 1.109803 -0.047400 -0.108708 -0.915331
    15 1.723633 0.000000 -0.000002 0.000000 0.000000 -0.287983
    16 1.002930 -0.000002 0.000000 0.000000 0.000000 -0.445035
    17 0.298214 -0.634093 0.426699 -1.264362 -0.790649 -0.638565
    18 2.633557 0.000002 -0.000006 -0.000002 -0.221908 0.499915
    19 1.308594 -0.000002 0.000004 -0.026244 -0.055139 0.588026
    20 2.033356 1.000772 -1.937610 -1.668474 1.286518 2.942953
    21 6.028141 0.000000 -0.000002 1.719200 0.801005 -0.448523
    22 11.692554 0.000000 -0.000001 0.000034 -0.000012 -1.733065
    23 11.481699 -0.000001 -0.000007 -0.812674 0.233144 0.879633
    24 2.910431 -0.023168 1.400147 -0.075275 -0.048733 -0.940850
    25 1.285216 -0.000004 -0.000001 0.000002 0.095123 -0.604919
    26 0.842285 0.000000 0.000001 -0.078526 0.054444 -1.209532
    27 3.368061 0.007377 0.622456 0.036151 -0.077392 -1.015981
    28 1.605515 0.000000 0.000001 0.000003 0.122000 -1.086881
    29 1.020532 -0.000002 -0.000003 0.015301 -0.014044 -1.343765
    30 3.551620 0.027821 -0.200566 0.012764 -0.103581 -0.905083
    31 1.666992 0.000000 0.000000 -0.000008 0.157406 -1.208297
    32 1.240434 0.000004 0.000006 0.000002 -0.000011 -1.483439
    33 3.449666 0.054213 -1.089087 0.053650 0.159484 -0.349527
    34 1.711614 0.000008 0.000011 0.000003 -0.044854 -1.238685
    35 1.005912 0.000002 0.000008 0.022068 -0.029871 -1.078147
    36 0.075534 -0.738750 -0.759723 1.293634 0.406337 -0.475490
    37 2.512460 -0.000010 -0.000006 -0.000002 -0.000001 0.359159
    38 1.324194 0.050781 -0.113290 0.025663 0.040518 0.530147
    39 -6.425939 -24.386206 -6.516800 1.747369 0.005249 -3.172523
    40 0.000000 2.847656 -0.358400 -0.187415 0.000000 0.000000
    41 -0.000001 3.923547 2.024685 0.000000 0.000000 0.000000
    42 0.000000 3.251565 2.448801 0.392686 0.000001 -0.000001
    43 0.000000 2.659132 1.094103 0.000000 0.000000 -0.000009
    44 0.000000 1.659210 1.354694 0.000000 0.000000 0.000000
    45 -18.013046 11.653858 -4.763837 1.570796 0.000000 -4.712349
  time 3
    0 0.500000 -3.660156 -8.140625 -1.570760 -1.391893 -1.570827
    1 2.033348 1.000767 1.937660 1.596636 -1.286515 2.942963
    2 6.028145 0.000003 0.000002 -0.423551 -0.834687 -2.319925
    3 11.692553 0.000081 -0.000005 -0.000003 0.000012 -0.611862
    4 11.481672 -0.000089 -0.000024 0.037155 0.424824 -0.171110
    5 3.281559 0.002119 -1.379481 0.060420 -0.190574 -0.991222
    6 1.327148 0.000000 0.000000 0.000000 -0.054909 -0.582372
    7 0.819336 0.000004 0.000002 0.000000 0.000000 -0.523564
    8 3.711852 0.109257 -0.568167 -0.040000 -0.149172 -1.054609
    9 1.610352 -0.000004 0.000004 -0.000003 0.001795 -0.427542
    10 0.993192 -0.000004 0.000003 0.001475 0.002258 -0.454028
    11 3.786029 0.203226 0.243938 -0.084231 -0.093732 -0.793163
    12 1.683594 -0.000006 -0.000002 -0.000001 0.006210 -0.584698
    13 1.255859 0.000002 0.000000 0.000000 0.000000 -0.532321
    14 3.594224 0.299551 1.113710 -0.047400 -0.108708 -0.915331
    15 1.723633 0.000000 -0.000002 0.000000 0.000000 -0.287983
    16 1.002930 -0.000002 0.000000 0.000000 0.000000 -0.445035
    17 0.298214 -0.634093 0.426699 -1.264362 -0.790649 -0.638565
    18 2.633557 0.000002 -0.000006 -0.000002 -0.221908 0.499915
    19 1.308594 -0.000002 0.000004 -0.026244 -0.055139 0.588026
    20 2.033356 1.000772 -1.937610 -1.668474 1.286518 2.942953
    21 6.028141 0.000000 -0.000002 1.775844 0.797273 -0.371880
    22 11.692554 0.000000 -0.000001 0.000034 -0.000012 -1.722227
    23 11.481699 -0.000001 -0.000007 -0.772327 0.418651 0.757986
    24 2.910431 -0.023168 1.404053 -0.075434 -0.048649 -0.941116
    25 1.285216 -0.000004 -0.000001 0.000002 0.095123 -0.604919
    26 0.842285 0.000000 0.000001 -0.078526 0.054444 -1.209532
    27 3.368061 0.007377 0.618550 0.035972 -0.077320 -1.016268
    28 1.605515 0.000000 0.000001 0.000003 0.121988 -1.086881
    29 1.020532 -0.000002 -0.000003 0.015301 -0.014044 -1.343737
    30 3.555526 0.023915 -0.200566 0.012608 -0.103497 -0.905374
    31 1.666992 0.000000 0.000000 -0.000008 0.157406 -1.208297
    32 1.240434 0.000004 0.000006 0.000002 -0.000011 -1.483439
    33 3.449666 0.054213 -1.089087 0.053550 0.159639 -0.349817
    34 1.711614 0.000008 0.000011 0.000003 -0.045357 -1.259572
    35 1.005912 0.000002 0.000008 0.022355 -0.030051 -1.085223
    36 0.075534 -0.738750 -0.755817 1.293525 0.406485 -0.475825
    37 2.512460 -0.000010 -0.000006 -0.000002 -0.000001 0.359159
    38 1.324194 0.050781 -0.113290 0.025663 0.040518 0.530147
    39 -7.140805 -24.214326 -5.075350 1.990408 0.035611 -3.238218
    40 0.000000 2.847656 -0.358400 -0.195792 0.000000 0.000000
    41 -0.000001 3.923547 3.411446 0.000000 0.000000 0.000000
    42 0.000000 3.251565 2.448801 0.785371 0.000001 -0.000001
    43 0.000000 2.659132 1.094103 0.000000 0.000000 -0.000009
    44 0.000000 1.659210 1.354694 0.000000 0.000000 0.000000
    45 -18.013046 11.653858 -4.763837 1.570796 0.000000 -4.712349
  time 4
    0 0.500000 -3.660156 -8.140625 -1.570760 -1.391893 -1.570827
    1 2.033348 1.000767 1.937660 1.596636 -1.286515 2.942963
    2 6.028145 0.000003 0.000002 -0.369816 -0.848231 -2.372002
    3 11.692553 0.000081 -0.000005 -0.000003 0.000012 -0.587963
    4 11.481672 -0.000089 -0.000024 0.051905 0.417566 -0.151811
    5 3.281559 0.002119 -1.383387 0.060402 -0.190574 -0.991222
    6 1.327148 0.000000 0.000000 0.000000 -0.054909 -0.582372
    7 0.819336 0.000004 0.000002 0.000000 0.000000 -0.523564
    8 3.711852 0.109257 -0.568167 -0.040000 -0.149172 -1.054609
    9 1.610352 -0.000004 0.000004 -0.000003 0.001795 -0.427542
    10 0.993192 -0.000004 0.000003 0.001475 0.002258 -0.454028
    11 3.786029 0.203226 0.243938 -0.084231 -0.093732 -0.793163
    12 1.683594 -0.000006 -0.000002 -0.000001 0.006210 -0.584698
    13 1.255859 0.000002 0.000000 0.000000 0.000000 -0.532321
    14 3.594224 0.299551 1.109803 -0.047400 -0.108708 -0.915331
    15 1.723633 0.000000 -0.000002 0.000000 0.000000 -0.287983
    16 1.002930 -0.000002 0.000000 0.000000 0.000000 -0.445035
    17 0.298214 -0.634093 0.426699 -1.264362 -0.790649 -0.638565
    18 2.633557 0.000002 -0.000006 -0.000002 -0.221920 0.499915
    19 1.308594 -0.000002 0.000004 -0.026244 -0.055139 0.588026
    20 2.033356 1.000772 -1.937610 -1.668474 1.286518 2.942953
    21 6.028141 0.000000 -0.000002 1.815794 0.801775 -0.318887
    22 11.692554 0.000000 -0.000001 0.000034 -0.000012 -1.731486
    23 11.481699 -0.000001 -0.000007 -0.745972 0.467293 0.743333
    24 2.914337 -0.023168 1.404053 -0.075434 -0.048649 -0.941116
    25 1.285216 -0.000004 -0.000001 0.000002 0.095123 -0.604919
    26 0.842285 0.000000 0.000001 -0.078526 0.054444 -1.209532
    27 3.368061 0.007377 0.622456 0.035972 -0.077320 -1.016268
    28 1.605515 0.000000 0.000001 0.000003 0.122000 -1.086881
    29 1.020532 -0.000002 -0.000003 0.015301 -0.014044 -1.343737
    30 3.555526 0.023915 -0.200566 0.012608 -0.103497 -0.905347
    31 1.666992 0.000000 0.000000 -0.000008 0.157406 -1.208297
    32 1.240434 0.000004 0.000006 0.000002 0.000001 -1.483439
    33 3.449666 0.054213 -1.089087 0.053550 0.159639 -0.349817
    34 1.711614 0.000008 0.000011 0.000003 -0.045729 -1.275238
    35 1.002005 0.000002 0.000008 0.022583 -0.030183 -1.090491
    36 0.075534 -0.738750 -0.759723 1.293525 0.406485 -0.475825
    37 2.512460 -0.000010 -0.000006 -0.000002 -0.000001 0.359159
    38 1.324194 0.050781 -0.113290 0.025663 0.040518 0.530147
    39 -7.285341 -23.944786 -4.305795 2.072821 0.048883 -3.249867
    40 0.000000 2.847656 -0.358400 -0.202084 0.000000 0.000000
    41 -0.000001 3.923547 4.161469 0.000000 0.000000 0.000000
    42 0.000000 3.251565 2.448801 0.785371 0.000001 -0.000001
    43 0.000000 2.659132 1.094103 0.000000 0.000000 -0.000009
    44 0.000000 1.659210 1.354694 0.000000 0.000000 0.000000
    45 -18.013046 11.653858 -4.763837 1.570796 0.000000 -4.712349
  time 5
    0 0.500000 -3.660156 -8.140625 -1.570760 -1.391893 -1.570827
    1 2.033348 1.000767 1.937660 1.596636 -1.286515 2.942963
    2 6.028145 0.000003 0.000002 -0.361960 -0.837450 -2.369238
    3 11.692553 0.000081 -0.000005 -0.000003 0.000012 -0.653864
    4 11.481672 -0.000089 -0.000024 0.064485 0.409482 -0.062768
    5 3.281559 0.002119 -1.383387 0.060575 -0.190478 -0.991551
    6 1.327148 0.000000 0.000000 0.000000 -0.054909 -0.582372
    7 0.819336 0.000004 0.000002 0.000000 0.000000 -0.523564
    8 3.711852 0.105350 -0.572073 -0.039844 -0.149076 -1.054920
    9 1.610352 -0.000004 0.000004 -0.000003 0.001795 -0.427542
    10 0.993192 -0.000004 0.000003 0.001475 0.002258 -0.454028
    11 3.786029 0.203226 0.243938 -0.084063 -0.093672 -0.793497
    12 1.683594 -0.000006 -0.000002 -0.000001 0.006210 -0.584698
    13 1.255859 0.000002 0.000000 0.000000 0.000000 -0.532321
    14 3.594224 0.299551 1.109803 -0.047227 -0.108619 -0.915668
    15 1.723633 0.000000 -0.000002 0.000000 0.000000 -0.287983
    16 1.002930 -0.000002 0.000000 0.000000 0.000000 -0.445035
    17 0.298214 -0.634093 0.426699 -1.264119 -0.790613 -0.639036
    18 2.633557 0.000002 -0.000006 -0.000002 -0.221908 0.499915
    19 1.308594 -0.000002 0.000004 -0.026244 -0.055139 0.588026
    20 2.033356 1.000772 -1.937610 -1.668474 1.286518 2.942953
    21 6.028141 0.000000 -0.000002 1.857032 0.800159 -0.264825
    22 11.692554 0.000000 -0.000001 0.000034 -0.000012 -1.753652
    23 11.481699 -0.000001 -0.000007 -0.713277 0.455195 0.780016
    24 2.910431 -0.023168 1.400147 -0.075434 -0.048649 -0.941116
    25 1.285216 -0.000004 -0.000001 0.000002 0.095123 -0.604919
    26 0.842285 0.000000 0.000001 -0.078526 0.054444 -1.209532
    27 3.368061 0.007377 0.618550 0.035972 -0.077320 -1.016268
    28 1.605515 0.000000 0.000001 0.000003 0.121988 -1.086881
    29 1.020532 -0.000002 -0.000003 0.015301 -0.014044 -1.343737
    30 3.551620 0.023915 -0.200566 0.012608 -0.103497 -0.905347
    31 1.666992 0.000000 0.000000 -0.000008 0.157406 -1.208297
    32 1.240434 0.000004 0.000006 0.000002 -0.000011 -1.483439
    33 3.449666 0.054213 -1.089087 0.053550 0.159639 -0.349817
    34 1.711614 0.000008 0.000011 0.000003 -0.045609 -1.269976
    35 1.002005 0.000002 0.000008 0.022511 -0.030135 -1.088761
    36 0.075534 -0.738750 -0.759723 1.293525 0.406485 -0.475825
    37 2.512460 -0.000010 -0.000006 -0.000002 -0.000001 0.359159
    38 1.324194 0.050781 -0.113290 0.025663 0.040518 0.530147
    39 -7.336123 -23.663528 -3.805780 2.085809 0.051478 -3.250025
    40 0.000000 2.847656 -0.358400 -0.200011 0.000000 0.000000
    41 -0.000001 3.923547 3.411446 0.000000 0.000000 0.000000
    42 0.000000 3.251565 2.448801 0.785371 0.000001 -0.000001
    43 0.000000 2.659132 1.094103 0.000000 0.000000 -0.000009
    44 0.000000 1.659210 1.354694 0.000000 0.000000 0.000000
    45 -18.013046 11.653858 -4.763837 1.570796 0.000000 -4.712349
  time 6
    0 0.500000 -3.660156 -8.140625 -1.570760 -1.391893 -1.570827
    1 2.033348 1.000767 1.937660 1.596636 -1.286515 2.942963
    2 6.028145 0.000003 0.000002 -0.376011 -0.817212 -2.344355
    3 11.692553 0.000081 -0.000005 -0.000003 0.000024 -0.742477
    4 11.481672 -0.000089 -0.000024 0.076694 0.401261 0.040092
    5 3.281559 0.002119 -1.383387 0.060178 -0.190838 -0.990697
    6 1.327148 0.000000 0.000000 0.000000 -0.054909 -0.582372
    7 0.819336 0.000004 0.000002 0.000000 0.000000 -0.523564
    8 3.711852 0.105350 -0.572073 -0.040203 -0.149448 -1.054099
    9 1.610352 -0.000004 0.000004 -0.000003 0.001795 -0.427542
    10 0.993192 -0.000004 0.000003 0.001475 0.002258 -0.454028
    11 3.786029 0.203226 0.243938 -0.084531 -0.093948 -0.792662
    12 1.683594 -0.000006 -0.000002 -0.000001 0.006210 -0.584698
    13 1.255859 0.000002 0.000000 0.000000 0.000000 -0.532321
    14 3.594224 0.299551 1.109803 -0.047674 -0.108951 -0.914825
    15 1.723633 0.000000 -0.000002 0.000000 0.000000 -0.287983
    16 1.002930 -0.000002 0.000000 0.000000 0.000000 -0.445035
    17 0.298214 -0.634093 0.426699 -1.264823 -0.790817 -0.637760
    18 2.633557 0.000002 -0.000006 -0.000002 -0.221920 0.499915
    19 1.308594 -0.000002 0.000004 -0.026244 -0.055139 0.588026
    20 2.033356 1.000772 -1.937610 -1.668474 1.286518 2.942953
    21 6.028141 0.000000 -0.000002 1.894703 0.794773 -0.215957
    22 11.692554 0.000000 -0.000001 0.000034 -0.000012 -1.781319
    23 11.481699 -0.000001 -0.000007 -0.686378 0.400421 0.842805
    24 2.914337 -0.023168 1.400147 -0.075434 -0.048649 -0.941116
    25 1.285216 -0.000004 -0.000001 0.000002 0.095123 -0.604919
    26 0.842285 0.000000 0.000001 -0.078526 0.054444 -1.209532
    27 3.368061 0.007377 0.622456 0.035972 -0.077320 -1.016268
    28 1.605515 0.000000 0.000001 0.000003 0.122000 -1.086881
    29 1.020532 -0.000002 -0.000003 0.015301 -0.014044 -1.343765
    30 3.555526 0.023915 -0.200566 0.012608 -0.103497 -0.905347
    31 1.666992 0.000000 0.000000 -0.000008 0.157406 -1.208297
    32 1.240434 0.000004 0.000006 0.000002 -0.000011 -1.483439
    33 3.449666 0.054213 -1.089087 0.053550 0.159639 -0.349817
    34 1.711614 0.000008 0.000011 0.000003 -0.044590 -1.228321
    35 1.005912 0.000002 0.000008 0.021924 -0.029787 -1.074609
    36 0.075534 -0.738750 -0.759723 1.293525 0.406485 -0.475825
    37 2.512460 -0.000010 -0.000006 -0.000002 -0.000001 0.359159
    38 1.324194 0.050781 -0.113290 0.025663 0.040518 0.530147
    39 -7.332217 -23.413520 -3.555772 2.049616 0.042560 -3.244716
    40 0.000000 2.847656 -0.358400 -0.183232 0.000000 0.000000
    41 -0.000001 3.923547 2.020778 0.000000 0.000000 0.000000
    42 0.000000 3.251565 2.448801 0.785371 0.000001 -0.000001
    43 0.000000 2.659132 1.094103 0.000000 0.000000 -0.000009
    44 0.000000 1.659210 1.354694 0.000000 0.000000 0.000000
    45 -18.013046 11.653858 -4.763837 1.570796 0.000000 -4.712349
  time 7
    0 0.500000 -3.660156 -8.140625 -1.570760 -1.391893 -1.570827
    1 2.033348 1.000767 1.937660 1.596636 -1.286515 2.942963
    2 6.028145 0.000003 0.000002 -0.399227 -0.796779 -2.317386
    3 11.692553 0.000081 -0.000005 -0.000003 0.000024 -0.805718
    4 11.481672 -0.000089 -0.000024 0.090886 0.395035 0.114127
    5 3.281559 0.002119 -1.383387 0.060402 -0.190574 -0.991222
    6 1.327148 0.000000 0.000000 0.000000 -0.054909 -0.582372
    7 0.819336 0.000004 0.000002 0.000000 0.000000 -0.523564
    8 3.711852 0.109257 -0.568167 -0.040000 -0.149172 -1.054609
    9 1.610352 -0.000004 0.000004 -0.000003 0.001795 -0.427542
    10 0.993192 -0.000004 0.000003 0.001475 0.002258 -0.454028
    11 3.786029 0.203226 0.243938 -0.084231 -0.093732 -0.793163
    12 1.683594 -0.000006 -0.000002 -0.000001 0.006210 -0.584698
    13 1.255859 0.000002 0.000000 0.000000 0.000000 -0.532321
    14 3.594224 0.299551 1.113710 -0.047400 -0.108696 -0.915331
    15 1.723633 0.000000 -0.000002 0.000000 0.000000 -0.287983
    16 1.002930 -0.000002 0.000000 0.000000 0.000000 -0.445035
    17 0.298214 -0.634093 0.426699 -1.264362 -0.790649 -0.638565
    18 2.637464 0.000002 -0.000006 -0.000002 -0.221908 0.499915
    19 1.308594 -0.000002 0.000004 -0.026244 -0.055139 0.588026
    20 2.033356 1.000772 -1.937610 -1.668474 1.286518 2.942953
    21 6.028141 0.000000 -0.000002 1.920486 0.786578 -0.182882
    22 11.692554 0.000000 -0.000001 0.000046 -0.000012 -1.808169
    23 11.481699 -0.000001 -0.000007 -0.674242 0.316230 0.912580
    24 2.910431 -0.023168 1.400147 -0.075434 -0.048637 -0.941116
    25 1.285216 -0.000004 -0.000001 0.000002 0.095123 -0.604919
    26 0.842285 0.000000 0.000001 -0.078526 0.054444 -1.209532
    27 3.368061 0.007377 0.618550 0.035972 -0.077320 -1.016268
    28 1.605515 0.000000 0.000001 0.000003 0.121988 -1.086881
    29 1.020532 -0.000002 -0.000003 0.015301 -0.014044 -1.343737
    30 3.551620 0.023915 -0.204473 0.012608 -0.103497 -0.905347
    31 1.666992 0.000000 0.000000 -0.000008 0.157406 -1.208297
    32 1.240434 0.000004 0.000006 0.000002 -0.000011 -1.483439
    33 3.449666 0.054213 -1.089087 0.053550 0.159639 -0.349817
    34 1.711614 0.000008 0.000011 0.000003 -0.037387 -0.989118
    35 1.002005 0.000002 0.000008 0.020198 -0.028708 -1.032696
    36 0.075534 -0.738750 -0.759723 1.293525 0.406485 -0.475825
    37 2.512460 -0.000010 -0.000006 -0.000002 -0.000001 0.359159
    38 1.324194 0.050781 -0.113290 0.025663 0.040518 0.530147
    39 -7.273622 -23.241640 -3.606555 1.974556 0.025709 -3.234335
    40 0.000000 2.847656 -0.358400 -0.087044 0.000000 0.000000
    41 -0.000001 3.923547 1.282475 0.000000 0.000000 0.000000
    42 0.000000 3.251565 2.448801 0.785371 0.000001 -0.000001
    43 0.000000 2.659132 1.094103 0.000000 0.000000 -0.000009
    44 0.000000 1.659210 1.354694 0.000000 0.000000 0.000000
    45 -18.013046 11.653858 -4.763837 1.570796 0.000000 -4.712349
  time 8
    0 0.500000 -3.660156 -8.140625 -1.570760 -1.391893 -1.570827
    1 2.033348 1.000767 1.937660 1.596636 -1.286515 2.942963
    2 6.028145 0.000003 0.000002 -0.435285 -0.775606 -2.280542
    3 11.692553 0.000081 -0.000005 -0.000003 0.000024 -0.854895
    4 11.481672 -0.000089 -0.000024 0.108177 0.391629 0.162658
    5 3.281559 0.002119 -1.383387 0.060402 -0.190574 -0.991222
    6 1.327148 0.000000 0.000000 0.000000 -0.054909 -0.582372
    7 0.819336 0.000004 0.000002 0.000000 0.000000 -0.523564
    8 3.711852 0.109257 -0.572073 -0.040000 -0.149172 -1.054609
    9 1.610352 -0.000004 0.000004 -0.000003 0.001795 -0.427542
    10 0.993192 -0.000004 0.000003 0.001487 0.002258 -0.454028
    11 3.786029 0.203226 0.243938 -0.084231 -0.093732 -0.793163
    12 1.683594 -0.000006 -0.000002 -0.000001 0.006210 -0.584698
    13 1.255859 0.000002 0.000000 0.000000 0.000000 -0.532321
    14 3.594224 0.299551 1.109803 -0.047400 -0.108708 -0.915331
    15 1.723633 0.000000 -0.000002 0.000000 0.000000 -0.287983
    16 1.002930 -0.000002 0.000000 0.000000 0.000000 -0.445035
    17 0.298214 -0.634093 0.426699 -1.264362 -0.790649 -0.638565
    18 2.633557 0.000002 -0.000006 -0.000002 -0.221920 0.499915
    19 1.308594 -0.000002 0.000004 -0.026244 -0.055139 0.588026
    20 2.033356 1.000772 -1.937610 -1.668474 1.286518 2.942953
    21 6.028141 0.000000 -0.000002 1.926975 0.779461 -0.174868
    22 11.692554 0.000000 -0.000001 -0.000002 -0.000144 -1.827666
    23 11.481699 -0.000001 -0.000007 -0.684159 0.216350 0.980949
    24 2.914337 -0.023168 1.400147 -0.075753 -0.048517 -0.941617
    25 1.285216 -0.000004 -0.000001 0.000002 0.095123 -0.604919
    26 0.842285 0.000000 0.000001 -0.078526 0.054444 -1.209532
    27 3.371967 0.007377 0.622456 0.035660 -0.077225 -1.016756
    28 1.605515 0.000000 0.000001 0.000003 0.122000 -1.086881
    29 1.020532 -0.000002 -0.000003 0.015301 -0.014044 -1.343737
    30 3.559433 0.023915 -0.200566 0.012321 -0.103353 -0.905797
    31 1.666992 0.000000 0.000000 -0.000008 0.157406 -1.208297
    32 1.240434 0.000004 0.000006 0.000002 -0.000011 -1.483439
    33 3.453572 0.054213 -1.089087 0.053376 0.159915 -0.350332
    34 1.711614 0.000008 0.000011 0.000003 -0.029142 -0.772730
    35 1.005912 0.000002 0.000008 0.017669 -0.026911 -0.968368
    36 0.079440 -0.734843 -0.759723 1.293308 0.406743 -0.476412
    37 2.512460 -0.000010 -0.000006 -0.000002 -0.000001 0.359159
    38 1.324194 0.050781 -0.113290 0.025663 0.040518 0.530147
    39 -7.187681 -23.179138 -4.012817 1.867504 0.002953 -3.219912
    40 0.000000 2.847656 -0.358400 0.000000 0.000000 0.000000
    41 -0.000001 3.923547 1.282475 0.000000 0.000000 0.000000
    42 0.000000 3.251565 2.448801 0.785371 0.000001 -0.000001
    43 0.000000 2.659132 1.094103 0.000000 0.000000 -0.000009
    44 0.000000 1.659210 1.354694 0.000000 0.000000 0.000000
    45 -18.013046 11.653858 -4.763837 1.570796 0.000000 -4.712349
  time 9
    0 0.500000 -3.660156 -8.140625 -1.570760 -1.391893 -1.570827
    1 2.033348 1.000767 1.937660 1.596636 -1.286515 2.942963
    2 6.028145 0.000003 0.000002 -0.473862 -0.752838 -2.240821
    3 11.692553 0.000081 -0.000005 -0.000003 0.000024 -0.904356
    4 11.481672 -0.000089 -0.000024 0.125902 0.388499 0.210281
    5 3.281559 0.006025 -1.383387 0.060247 -0.190610 -0.990894
    6 1.327148 0.000000 0.000000 0.000000 -0.054909 -0.582372
    7 0.819336 0.000004 0.000002 0.000000 0.000000 -0.523564
    8 3.711852 0.109257 -0.568167 -0.040167 -0.149220 -1.054298
    9 1.610352 -0.000004 0.000004 -0.000003 0.001795 -0.427542
    10 0.993192 -0.000004 0.000003 0.001475 0.002258 -0.454028
    11 3.786029 0.207132 0.243938 -0.084423 -0.093732 -0.792857
    12 1.683594 -0.000006 -0.000002 -0.000001 0.006210 -0.584698
    13 1.255859 0.000002 0.000000 0.000000 0.000000 -0.532321
    14 3.594224 0.303457 1.109803 -0.047573 -0.108734 -0.915022
    15 1.723633 0.000000 -0.000002 0.000000 0.000000 -0.287983
    16 1.002930 -0.000002 0.000000 0.000000 0.000000 -0.445035
    17 0.298214 -0.630187 0.426699 -1.264616 -0.790625 -0.638094
    18 2.633557 0.000002 -0.000006 -0.000002 -0.221908 0.499915
    19 1.308594 -0.000002 0.000004 -0.026244 -0.055139 0.588026
    20 2.033356 1.000772 -1.937610 -1.668474 1.286518 2.942953
    21 6.028141 0.000000 -0.000002 1.918233 0.774306 -0.186563
    22 11.692554 0.000000 -0.000001 0.000046 -0.000012 -1.838395
    23 11.481699 -0.000001 -0.000007 -0.711782 0.117050 1.042040
    24 2.910431 -0.023168 1.400147 -0.075434 -0.048649 -0.941116
    25 1.285216 -0.000004 -0.000001 0.000002 0.095123 -0.604919
    26 0.842285 0.000000 0.000001 -0.078526 0.054444 -1.209532
    27 3.368061 0.007377 0.618550 0.035972 -0.077320 -1.016268
    28 1.605515 0.000000 0.000001 0.000003 0.122000 -1.086881
    29 1.020532 -0.000002 -0.000003 0.015301 -0.014044 -1.343737
    30 3.551620 0.023915 -0.204473 0.012608 -0.103497 -0.905347
    31 1.666992 0.000000 0.000000 -0.000008 0.157406 -1.208297
    32 1.240434 0.000004 0.000006 0.000002 -0.000011 -1.483439
    33 3.449666 0.054213 -1.089087 0.053550 0.159639 -0.349817
    34 1.711614 0.000008 0.000011 0.000003 -0.028399 -0.754735
    35 1.002005 0.000002 0.000008 0.015380 -0.025065 -0.907449
    36 0.075534 -0.738750 -0.759723 1.293525 0.406485 -0.475825
    37 2.512460 -0.000010 -0.000006 -0.000002 -0.000001 0.359159
    38 1.324194 0.050781 -0.113290 0.025663 0.040518 0.530147
    39 -7.082209 -23.190857 -4.633930 1.747178 -0.020221 -3.202399
    40 0.000000 2.847656 -0.358400 0.007227 0.000000 0.000000
    41 -0.000001 3.923547 1.282475 0.000000 0.000000 0.000000
    42 0.000000 3.251565 2.448801 0.785371 0.000001 -0.000001
    43 0.000000 2.659132 1.094103 0.000000 0.000000 -0.000009
    44 0.000000 1.659210 1.354694 0.000000 0.000000 0.000000
    45 -18.013046 11.653858 -4.763837 1.570796 0.000000 -4.712349
  time 10
    0 0.500000 -3.660156 -8.140625 -1.570760 -1.391893 -1.570827
    1 2.033348 1.000767 1.937660 1.596636 -1.286515 2.942963
    2 6.028145 0.000003 0.000002 -0.504834 -0.730926 -2.211087
    3 11.692553 0.000081 -0.000005 -0.000003 0.000024 -0.942937
    4 11.481672 -0.000089 -0.000024 0.144122 0.383511 0.255649
    5 3.281559 0.002119 -1.383387 0.060402 -0.190574 -0.991222
    6 1.327148 0.000000 0.000000 0.000000 -0.054909 -0.582372
    7 0.819336 0.000004 0.000002 0.000000 0.000000 -0.523564
    8 3.711852 0.109257 -0.568167 -0.040000 -0.149184 -1.054609
    9 1.610352 -0.000004 0.000004 -0.000003 0.001795 -0.427542
    10 0.993192 -0.000004 0.000003 0.001475 0.002258 -0.454028
    11 3.786029 0.203226 0.243938 -0.084231 -0.093732 -0.793163
    12 1.683594 -0.000006 -0.000002 -0.000001 0.006210 -0.584698
    13 1.255859 0.000002 0.000000 0.000000 0.000000 -0.532321
    14 3.594224 0.299551 1.109803 -0.047400 -0.108696 -0.915331
    15 1.723633 0.000000 -0.000002 0.000000 0.000000 -0.287983
    16 1.002930 -0.000002 0.000000 0.000000 0.000000 -0.445035
    17 0.298214 -0.634093 0.426699 -1.264362 -0.790649 -0.638565
    18 2.633557 0.000002 -0.000006 -0.000002 -0.221908 0.499915
    19 1.308594 -0.000002 0.000004 -0.026244 -0.055139 0.588026
    20 2.033356 1.000772 -1.937610 -1.668474 1.286518 2.942953
    21 6.028141 0.000000 -0.000002 1.904784 0.771766 -0.204314
    22 11.692554 0.000000 -0.000001 0.000046 -0.000024 -1.843950
    23 11.481699 -0.000001 -0.000007 -0.743843 0.033743 1.096676
    24 2.910431 -0.023168 1.400147 -0.075434 -0.048649 -0.941116
    25 1.285216 -0.000004 -0.000001 0.000002 0.095123 -0.604919
    26 0.842285 0.000000 0.000001 -0.078526 0.054444 -1.209532
    27 3.368061 0.007377 0.622456 0.035972 -0.077320 -1.016268
    28 1.605515 0.000000 0.000001 0.000003 0.121988 -1.086881
    29 1.020532 -0.000002 -0.000003 0.015301 -0.014044 -1.343765
    30 3.551620 0.023915 -0.200566 0.012608 -0.103497 -0.905347
    31 1.666992 0.000000 0.000000 -0.000008 0.157406 -1.208297
    32 1.240434 0.000004 0.000006 0.000002 -0.000011 -1.483439
    33 3.449666 0.054213 -1.085181 0.053550 0.159639 -0.349817
    34 1.711614 0.000008 0.000011 0.000003 -0.027788 -0.740314
    35 1.005912 0.000002 0.000008 0.014254 -0.024046 -0.875660
    36 0.075534 -0.738750 -0.755817 1.293525 0.406485 -0.475825
    37 2.512460 -0.000010 -0.000006 -0.000002 -0.000001 0.359159
    38 1.324194 0.050781 -0.113290 0.025663 0.040518 0.530147
    39 -6.988457 -23.183044 -5.247230 1.638026 -0.038564 -3.184251
    40 0.000000 2.847656 -0.358400 0.013015 0.000000 0.000000
    41 -0.000001 3.923547 1.282475 0.000000 0.000000 0.000000
    42 0.000000 3.251565 2.448801 0.785371 0.000001 -0.000001
    43 0.000000 2.659132 1.094103 0.000000 0.000000 -0.000009
    44 0.000000 1.659210 1.354694 0.000000 0.000000 0.000000
    45 -18.013046 11.653858 -4.763837 1.570796 0.000000 -4.712349
  time 11
    0 0.500000 -3.660156 -8.140625 -1.570760 -1.391893 -1.570827
    1 2.033348 1.000767 1.937660 1.596636 -1.286515 2.942963
    2 6.028145 0.000003 0.000002 -0.532835 -0.710182 -2.184850
    3 11.692553 0.000081 -0.000005 -0.000003 0.000024 -0.975722
    4 11.481672 -0.000089 -0.000024 0.161289 0.378248 0.297946
    5 3.281559 0.002119 -1.383387 0.060592 -0.190622 -0.991551
    6 1.327148 0.000000 0.000000 0.000000 -0.054909 -0.582372
    7 0.819336 0.000004 0.000002 0.000000 0.000000 -0.523564
    8 3.711852 0.105350 -0.572073 -0.039808 -0.149220 -1.054920
    9 1.610352 -0.000004 0.000004 -0.000003 0.001795 -0.427542
    10 0.993192 -0.000004 0.000003 0.001475 0.002258 -0.454028
    11 3.786029 0.203226 0.243938 -0.084063 -0.093816 -0.793470
    12 1.683594 -0.000006 -0.000002 -0.000001 0.006210 -0.584698
    13 1.255859 0.000002 0.000000 0.000000 0.000000 -0.532321
    14 3.594224 0.299551 1.109803 -0.047213 -0.108772 -0.915668
    15 1.723633 0.000000 -0.000002 0.000000 0.000000 -0.287983
    16 1.002930 -0.000002 0.000000 0.000000 0.000000 -0.445035
    17 0.298214 -0.634093 0.426699 -1.264156 -0.790757 -0.638997
    18 2.633557 0.000002 -0.000006 -0.000002 -0.221920 0.499915
    19 1.308594 -0.000002 0.000004 -0.026244 -0.055139 0.588026
    20 2.033356 1.000772 -1.937610 -1.668474 1.286518 2.942953
    21 6.028141 0.000000 -0.000002 1.889552 0.771112 -0.224389
    22 11.692554 0.000000 -0.000001 0.000046 -0.000024 -1.844985
    23 11.481699 -0.000001 -0.000007 -0.772553 -0.022854 1.136417
    24 2.914337 -0.023168 1.400147 -0.075434 -0.048649 -0.941116
    25 1.285216 -0.000004 -0.000001 0.000002 0.095123 -0.604937
    26 0.842285 0.000000 0.000001 -0.078526 0.054444 -1.209532
    27 3.368061 0.007377 0.622456 0.035972 -0.077320 -1.016268
    28 1.605515 0.000000 0.000001 0.000003 0.122000 -1.086881
    29 1.020532 -0.000002 -0.000003 0.015301 -0.014044 -1.343765
    30 3.551620 0.023915 -0.200566 0.012608 -0.103497 -0.905347
    31 1.666992 0.000000 0.000000 -0.000008 0.157406 -1.208297
    32 1.240434 0.000004 0.000006 0.000002 -0.000011 -1.483439
    33 3.449666 0.054213 -1.089087 0.053550 0.159639 -0.349817
    34 1.711614 0.000008 0.000011 0.000003 -0.027308 -0.729107
    35 1.005912 0.000002 0.000008 0.013966 -0.023795 -0.867913
    36 0.075534 -0.738750 -0.759723 1.293525 0.406485 -0.475825
    37 2.512460 -0.000010 -0.000006 -0.000002 -0.000001 0.359159
    38 1.324194 0.050781 -0.113290 0.025663 0.040518 0.530147
    39 -6.906423 -23.190857 -5.758964 1.556567 -0.049987 -3.169591
    40 0.000000 2.847656 -0.358400 0.017533 0.000000 0.000000
    41 -0.000001 3.923547 1.282475 0.000000 0.000000 0.000000
    42 0.000000 3.251565 2.448801 0.785371 0.000001 -0.000001
    43 0.000000 2.659132 1.094103 0.000000 0.000000 -0.000009
    44 0.000000 1.659210 1.354694 0.000000 0.000000 0.000000
    45 -18.013046 11.653858 -4.763837 1.570796 0.000000 -4.712349
  time 12
    0 0.500000 -3.660156 -8.140625 -1.570760 -1.391893 -1.570827
    1 2.033348 1.000767 1.937660 1.596636 -1.286515 2.942963
    2 6.028145 0.000003 0.000002 -0.555547 -0.696209 -2.161999
    3 11.692553 0.000081 -0.000005 -0.000003 0.000024 -0.998196
    4 11.481672 -0.000089 -0.000024 0.172320 0.374740 0.332284
    5 3.281559 0.002119 -1.383387 0.060333 -0.190814 -0.990992
    6 1.327148 0.000000 0.000000 0.000000 -0.054909 -0.582372
    7 0.819336 0.000004 0.000002 0.000000 0.000000 -0.523564
    8 3.711852 0.109257 -0.568167 -0.040060 -0.149424 -1.054383
    9 1.610352 -0.000004 0.000004 -0.000003 0.001795 -0.427542
    10 0.993192 -0.000004 0.000003 0.001475 0.002258 -0.454028
    11 3.786029 0.207132 0.243938 -0.084363 -0.093960 -0.792941
    12 1.683594 -0.000006 -0.000002 -0.000001 0.006210 -0.584698
    13 1.255859 0.000002 0.000000 0.000000 0.000000 -0.532321
    14 3.594224 0.303457 1.109803 -0.047501 -0.108951 -0.915106
    15 1.723633 0.000000 -0.000002 0.000000 0.000000 -0.287983
    16 1.002930 -0.000002 0.000000 0.000000 0.000000 -0.445035
    17 0.298214 -0.630187 0.426699 -1.264592 -0.790853 -0.638172
    18 2.633557 0.000002 -0.000006 -0.000002 -0.221908 0.499915
    19 1.308594 -0.000002 0.000004 -0.026244 -0.055139 0.588026
    20 2.033356 1.000772 -1.937610 -1.668474 1.286518 2.942953
    21 6.028141 0.000000 -0.000002 1.873155 0.772536 -0.245820
    22 11.692554 0.000000 -0.000001 0.000010 0.000144 -1.839484
    23 11.481699 -0.000001 -0.000007 -0.789942 -0.035146 1.143549
    24 2.906524 -0.027074 1.400147 -0.074956 -0.048661 -0.940319
    25 1.285216 -0.000004 -0.000001 0.000002 0.095123 -0.604919
    26 0.842285 0.000000 0.000001 -0.078526 0.054444 -1.209532
    27 3.360248 0.007377 0.618550 0.036463 -0.077308 -1.015465
    28 1.605515 0.000000 0.000001 0.000003 0.122000 -1.086881
    29 1.020532 -0.000002 -0.000003 0.015301 -0.014044 -1.343737
    30 3.551620 0.023915 -0.200566 0.013112 -0.103533 -0.904554
    31 1.666992 0.000000 0.000000 -0.000008 0.157406 -1.208297
    32 1.240434 0.000004 0.000006 0.000002 -0.000011 -1.483439
    33 3.445760 0.054213 -1.085181 0.053974 0.159352 -0.348916
    34 1.711614 0.000008 0.000011 0.000003 -0.026961 -0.720832
    35 1.005912 0.000002 0.000008 0.013750 -0.023591 -0.861818
    36 0.071627 -0.738750 -0.759723 1.293987 0.406245 -0.474792
    37 2.512460 -0.000010 -0.000006 -0.000002 -0.000001 0.359159
    38 1.324194 0.050781 -0.113290 0.025663 0.040518 0.530147
    39 -6.851734 -23.245546 -6.044129 1.526581 -0.054132 -3.163806
    40 0.000000 2.847656 -0.358400 0.020853 0.000000 0.000000
    41 -0.000001 3.923547 1.282475 0.000000 0.000000 0.000000
    42 0.000000 3.251565 2.448801 0.785371 0.000001 -0.000001
    43 0.000000 2.659132 1.094103 0.000000 0.000000 -0.000009
    44 0.000000 1.659210 1.354694 0.000000 0.000000 0.000000
    45 -18.013046 11.653858 -4.763837 1.570796 0.000000 -4.712349
  time 13
    0 0.500000 -3.660156 -8.140625 -1.570760 -1.391893 -1.570827
    1 2.033348 1.000767 1.937660 1.596636 -1.286515 2.942963
    2 6.028145 0.000003 0.000002 -0.572821 -0.693057 -2.140615
    3 11.692553 0.000081 -0.000005 -0.000003 0.000024 -1.008601
    4 11.481672 -0.000089 -0.000024 0.172878 0.375634 0.357756
    5 3.281559 0.002119 -1.383387 0.060402 -0.190574 -0.991222
    6 1.327148 0.000000 0.000000 0.000000 -0.054909 -0.582372
    7 0.819336 0.000004 0.000002 0.000000 0.000000 -0.523564
    8 3.711852 0.109257 -0.572073 -0.040000 -0.149172 -1.054609
    9 1.610352 -0.000004 0.000004 -0.000003 0.001795 -0.427542
    10 0.993192 -0.000004 0.000003 0.001475 0.002258 -0.454028
    11 3.786029 0.203226 0.243938 -0.084231 -0.093732 -0.793163
    12 1.683594 -0.000006 -0.000002 -0.000001 0.006210 -0.584698
    13 1.255859 0.000002 0.000000 0.000000 0.000000 -0.532321
    14 3.594224 0.299551 1.109803 -0.047400 -0.108708 -0.915331
    15 1.723633 0.000000 -0.000002 0.000000 0.000000 -0.287983
    16 1.002930 -0.000002 0.000000 0.000000 0.000000 -0.445035
    17 0.298214 -0.634093 0.426699 -1.264362 -0.790649 -0.638565
    18 2.633557 0.000002 -0.000006 -0.000002 -0.221908 0.499915
    19 1.308594 -0.000002 0.000004 -0.026244 -0.055139 0.588026
    20 2.033356 1.000772 -1.937610 -1.668474 1.286518 2.942953
    21 6.028141 0.000000 -0.000002 1.854728 0.775267 -0.269915
    22 11.692554 0.000000 -0.000001 0.000034 -0.000012 -1.831478
    23 11.481699 -0.000001 -0.000007 -0.802938 -0.039013 1.148402
    24 2.914337 -0.023168 1.400147 -0.075434 -0.048649 -0.941116
    25 1.285216 -0.000004 -0.000001 0.000002 0.095123 -0.604919
    26 0.842285 0.000000 0.000001 -0.078526 0.054444 -1.209532
    27 3.368061 0.007377 0.622456 0.035972 -0.077320 -1.016268
    28 1.605515 0.000000 0.000001 0.000003 0.122000 -1.086881
    29 1.020532 -0.000002 -0.000003 0.015301 -0.014044 -1.343765
    30 3.551620 0.023915 -0.200566 0.012608 -0.103497 -0.905347
    31 1.666992 0.000000 0.000000 -0.000008 0.157406 -1.208297
    32 1.240434 0.000004 0.000006 0.000002 -0.000011 -1.483439
    33 3.449666 0.054213 -1.089087 0.053550 0.159639 -0.349817
    34 1.711614 0.000008 0.000011 0.000003 -0.026721 -0.715249
    35 1.002005 0.000002 0.000008 0.013583 -0.023435 -0.857247
    36 0.075534 -0.738750 -0.759723 1.293525 0.406485 -0.475825
    37 2.512460 -0.000010 -0.000006 -0.000002 -0.000001 0.359159
    38 1.324194 0.050781 -0.113290 0.025663 0.040518 0.530147
    39 -6.797045 -23.339299 -6.317575 1.503184 -0.054162 -3.159923
    40 0.000000 2.847656 -0.358400 0.023094 0.000000 0.000000
    41 -0.000001 3.923547 1.282475 0.000000 0.000000 0.000000
    42 0.000000 3.251565 2.448801 0.785371 0.000001 -0.000001
    43 0.000000 2.659132 1.094103 0.000000 0.000000 -0.000009
    44 0.000000 1.659210 1.354694 0.000000 0.000000 0.000000
    45 -18.013046 11.653858 -4.763837 1.570796 0.000000 -4.712349
  time 14
    0 0.500000 -3.660156 -8.140625 -1.570760 -1.391893 -1.570827
    1 2.033348 1.000767 1.937660 1.596636 -1.286515 2.942963
    2 6.028145 0.000003 0.000002 -0.585965 -0.694497 -2.123463
    3 11.692553 0.000081 -0.000005 -0.000003 0.000024 -1.009694
    4 11.481672 -0.000089 -0.000024 0.170399 0.378180 0.376806
    5 3.281559 0.002119 -1.379481 0.060402 -0.190574 -0.991222
    6 1.327148 0.000000 0.000000 0.000000 -0.054909 -0.582372
    7 0.819336 0.000004 0.000002 0.000000 0.000000 -0.523564
    8 3.711852 0.109257 -0.568167 -0.040000 -0.149172 -1.054609
    9 1.610352 -0.000004 0.000004 -0.000003 0.001795 -0.427542
    10 0.993192 -0.000004 0.000003 0.001475 0.002258 -0.454028
    11 3.786029 0.203226 0.243938 -0.084231 -0.093732 -0.793163
    12 1.683594 -0.000006 -0.000002 -0.000001 0.006210 -0.584698
    13 1.255859 0.000002 0.000000 0.000000 0.000000 -0.532321
    14 3.594224 0.299551 1.113710 -0.047400 -0.108708 -0.915331
    15 1.723633 0.000000 -0.000002 0.000000 0.000000 -0.287983
    16 1.002930 -0.000002 0.000000 0.000000 0.000000 -0.445035
    17 0.298214 -0.634093 0.426699 -1.264362 -0.790649 -0.638565
    18 2.633557 0.000002 -0.000006 -0.000002 -0.221920 0.499915
    19 1.308594 -0.000002 0.000004 -0.026244 -0.055139 0.588026
    20 2.033356 1.000772 -1.937610 -1.668474 1.286518 2.942953
    21 6.028141 0.000000 -0.000002 1.835707 0.778999 -0.294715
    22 11.692554 0.000000 -0.000001 0.000046 -0.000012 -1.819606
    23 11.481699 -0.000001 -0.000007 -0.805655 -0.019760 1.133311
    24 2.910431 -0.023168 1.400147 -0.075434 -0.048649 -0.941116
    25 1.285216 -0.000004 -0.000001 0.000002 0.095123 -0.604919
    26 0.842285 0.000000 0.000001 -0.078526 0.054444 -1.209532
    27 3.368061 0.007377 0.618550 0.035972 -0.077320 -1.016268
    28 1.605515 0.000000 0.000001 0.000003 0.122000 -1.086881
    29 1.020532 -0.000002 -0.000003 0.015301 -0.014044 -1.343765
    30 3.555526 0.023915 -0.200566 0.012608 -0.103497 -0.905347
    31 1.666992 0.000000 0.000000 -0.000008 0.157406 -1.208297
    32 1.240434 0.000004 0.000006 0.000002 -0.000011 -1.483439
    33 3.449666 0.054213 -1.089087 0.053550 0.159639 -0.349817
    34 1.711614 0.000008 0.000011 0.000003 -0.026589 -0.712116
    35 1.002005 0.000002 0.000008 0.013487 -0.023339 -0.854097
    36 0.075534 -0.738750 -0.759723 1.293525 0.406485 -0.475825
    37 2.508554 -0.000010 -0.000006 -0.000002 -0.000001 0.359147
    38 1.324194 0.050781 -0.113290 0.025651 0.040518 0.530147
    39 -6.754074 -23.479928 -6.458204 1.508723 -0.047481 -3.161666
    40 0.000000 2.847656 -0.358400 0.024389 0.000000 0.000000
    41 -0.000001 3.923547 1.282475 0.000000 0.000000 0.000000
    42 0.000000 3.251565 2.448801 0.785371 0.000001 -0.000001
    43 0.000000 2.659132 1.094103 0.000000 0.000000 -0.000009
    44 0.000000 1.659210 1.354694 0.000000 0.000000 0.000000
    45 -18.013046 11.653858 -4.763837 1.570796 0.000000 -4.712349
  time 15
    0 0.500000 -3.660156 -8.140625 -1.570760 -1.391893 -1.570827
    1 2.033348 1.000767 1.937660 1.596636 -1.286515 2.942963
    2 6.028145 0.000003 0.000002 -0.593066 -0.696404 -2.117426
    3 11.692553 0.000081 -0.000005 -0.000003 0.000024 -0.998338
    4 11.481672 -0.000089 -0.000024 0.170957 0.378592 0.390090
    5 3.281559 0.002119 -1.379481 0.060420 -0.190574 -0.991222
    6 1.327148 0.000000 0.000000 0.000000 -0.054909 -0.582372
    7 0.819336 0.000004 0.000002 0.000000 0.000000 -0.523564
    8 3.711852 0.109257 -0.568167 -0.040000 -0.149184 -1.054609
    9 1.610352 -0.000004 0.000004 -0.000003 0.001795 -0.427542
    10 0.993192 -0.000004 0.000003 0.001475 0.002258 -0.454028
    11 3.786029 0.203226 0.247844 -0.084231 -0.093732 -0.793163
    12 1.683594 -0.000006 -0.000002 -0.000001 0.006210 -0.584698
    13 1.255859 0.000002 0.000000 0.000000 0.000000 -0.532321
    14 3.594224 0.299551 1.113710 -0.047400 -0.108708 -0.915331
    15 1.723633 0.000000 -0.000002 0.000000 0.000000 -0.287983
    16 1.002930 -0.000002 0.000000 0.000000 0.000000 -0.445035
    17 0.298214 -0.634093 0.430606 -1.264362 -0.790649 -0.638565
    18 2.633557 0.000002 -0.000006 -0.000002 -0.221908 0.499915
    19 1.308594 -0.000002 0.000004 -0.026244 -0.055139 0.588026
    20 2.033356 1.000772 -1.937610 -1.668474 1.286518 2.942953
    21 6.028141 0.000000 -0.000002 1.817577 0.783385 -0.318418
    22 11.692554 0.000000 -0.000001 0.000034 -0.000012 -1.805500
    23 11.481699 -0.000001 -0.000007 -0.801353 0.014380 1.105847
    24 2.914337 -0.023168 1.400147 -0.075434 -0.048649 -0.941116
    25 1.285216 -0.000004 -0.000001 0.000002 0.095123 -0.604919
    26 0.842285 0.000000 0.000001 -0.078526 0.054444 -1.209532
    27 3.368061 0.007377 0.622456 0.035972 -0.077320 -1.016268
    28 1.605515 0.000000 0.000001 0.000003 0.122000 -1.086881
    29 1.020532 -0.000002 -0.000003 0.015301 -0.014044 -1.343765
    30 3.555526 0.023915 -0.200566 0.012608 -0.103497 -0.905347
    31 1.666992 0.000000 0.000000 -0.000008 0.157406 -1.208297
    32 1.240434 0.000004 0.000006 0.000002 0.000001 -1.483439
    33 3.449666 0.054213 -1.089087 0.053550 0.159639 -0.349817
    34 1.711614 0.000008 0.000011 0.000003 -0.026541 -0.711112
    35 1.002005 0.000002 0.000008 0.013415 -0.023267 -0.852186
    36 0.075534 -0.738750 -0.759723 1.293525 0.406485 -0.475825
    37 2.512460 -0.000010 -0.000006 -0.000002 -0.000001 0.359159
    38 1.324194 0.050781 -0.113290 0.025663 0.040518 0.530147
    39 -6.718917 -23.651809 -6.508987 1.533934 -0.036387 -3.167055
    40 0.000000 2.847656 -0.358400 0.024760 0.000000 0.000000
    41 -0.000001 3.923547 1.282475 0.000000 0.000000 0.000000
    42 0.000000 3.251565 2.448801 0.785371 0.000001 -0.000001
    43 0.000000 2.659132 1.094103 0.000000 0.000000 -0.000009
    44 0.000000 1.659210 1.354694 0.000000 0.000000 0.000000
    45 -18.013046 11.653858 -4.763837 1.570796 0.000000 -4.712349
  time 16
    0 0.500000 -3.660156 -8.140625 -1.570760 -1.391893 -1.570827
    1 2.033348 1.000767 1.937660 1.596636 -1.286515 2.942963
    2 6.028145 0.000003 0.000002 -0.593721 -0.700413 -2.121037
    3 11.692553 0.000081 -0.000005 -0.000003 0.000024 -0.976150
    4 11.481672 -0.000089 -0.000024 0.171763 0.377801 0.397766
    5 3.281559 0.002119 -1.383387 0.060575 -0.190514 -0.991551
    6 1.327148 0.000000 0.000000 0.000000 -0.054909 -0.582372
    7 0.819336 0.000004 0.000002 0.000000 0.000000 -0.523564
    8 3.711852 0.105350 -0.568167 -0.039832 -0.149100 -1.054920
    9 1.610352 -0.000004 0.000004 -0.000003 0.001795 -0.427542
    10 0.993192 -0.000004 0.000003 0.001487 0.002258 -0.454028
    11 3.786029 0.203226 0.243938 -0.084063 -0.093708 -0.793497
    12 1.683594 -0.000006 -0.000002 -0.000001 0.006210 -0.584698
    13 1.255859 0.000002 0.000000 0.000000 0.000000 -0.532321
    14 3.594224 0.299551 1.113710 -0.047227 -0.108657 -0.915668
    15 1.723633 0.000000 -0.000002 0.000000 0.000000 -0.287983
    16 1.002930 -0.000002 0.000000 0.000000 0.000000 -0.445035
    17 0.298214 -0.634093 0.430606 -1.264132 -0.790649 -0.639036
    18 2.633557 0.000002 -0.000006 -0.000002 -0.221920 0.499915
    19 1.308594 -0.000002 0.000004 -0.026244 -0.055139 0.588026
    20 2.033356 1.000772 -1.937610 -1.668474 1.286518 2.942953
    21 6.028141 0.000000 -0.000002 1.800066 0.788617 -0.341364
    22 11.692554 0.000000 -0.000001 0.000046 -0.000012 -1.789760
    23 11.481699 -0.000001 -0.000007 -0.794334 0.056144 1.071493
    24 2.914337 -0.023168 1.400147 -0.075434 -0.048649 -0.941116
    25 1.285216 -0.000004 -0.000001 0.000002 0.095123 -0.604919
    26 0.842285 0.000000 0.000001 -0.078526 0.054444 -1.209532
    27 3.368061 0.007377 0.622456 0.035972 -0.077320 -1.016268
    28 1.605515 0.000000 0.000001 0.000003 0.122000 -1.086881
    29 1.020532 -0.000002 -0.000003 0.015301 -0.014044 -1.343737
    30 3.555526 0.023915 -0.200566 0.012608 -0.103497 -0.905347
    31 1.666992 0.000000 0.000000 -0.000008 0.157406 -1.208297
    32 1.240434 0.000004 0.000006 0.000002 0.000001 -1.483439
    33 3.449666 0.054213 -1.089087 0.053550 0.159639 -0.349817
    34 1.711614 0.000008 0.000011 0.000003 -0.026589 -0.712035
    35 1.002005 0.000002 0.000008 0.013391 -0.023243 -0.851385
    36 0.075534 -0.738750 -0.759723 1.293525 0.406485 -0.475825
    37 2.508554 -0.000010 -0.000006 -0.000002 -0.000001 0.359159
    38 1.324194 0.050781 -0.113290 0.025663 0.040518 0.530147
    39 -6.691573 -23.835408 -6.516800 1.569746 -0.022995 -3.173712
    40 0.000000 2.847656 -0.358400 0.024425 0.000000 0.000000
    41 -0.000001 3.923547 1.282475 0.000000 0.000000 0.000000
    42 0.000000 3.251565 2.448801 0.785371 0.000001 -0.000001
    43 0.000000 2.659132 1.094103 0.000000 0.000000 -0.000009
    44 0.000000 1.659210 1.354694 0.000000 0.000000 0.000000
    45 -18.013046 11.653858 -4.763837 1.570796 0.000000 -4.712349
  time 17
    0 0.500000 -3.660156 -8.140625 -1.570760 -1.391893 -1.570827
    1 2.033348 1.000767 1.937660 1.596636 -1.286515 2.942963
    2 6.028145 0.000003 0.000002 -0.591757 -0.706251 -2.127525
    3 11.692553 0.000081 -0.000005 -0.000003 0.000168 -0.950825
    4 11.481672 -0.000089 -0.000024 0.170027 0.377354 0.400805
    5 3.285465 0.006025 -1.383387 0.060592 -0.190167 -0.991682
    6 1.327148 0.000000 0.000000 0.000000 -0.054909 -0.582372
    7 0.819336 0.000004 0.000002 0.000000 0.000000 -0.523564
    8 3.711852 0.109257 -0.568167 -0.039844 -0.148765 -1.055034
    9 1.610352 -0.000004 0.000004 -0.000003 0.001795 -0.427542
    10 0.993192 -0.000004 0.000003 0.001475 0.002258 -0.454028
    11 3.789935 0.207132 0.243938 -0.084004 -0.093373 -0.793609
    12 1.683594 -0.000006 -0.000002 -0.000001 0.006210 -0.584698
    13 1.255859 0.000002 0.000000 0.000000 0.000000 -0.532321
    14 3.594224 0.303457 1.109803 -0.047213 -0.108326 -0.915781
    15 1.723633 0.000000 -0.000002 0.000000 0.000000 -0.287983
    16 1.002930 -0.000002 0.000000 0.000000 0.000000 -0.445035
    17 0.298214 -0.630187 0.426699 -1.263950 -0.790337 -0.639272
    18 2.633557 0.000002 -0.000006 -0.000002 -0.221920 0.499915
    19 1.308594 -0.000002 0.000004 -0.026244 -0.055139 0.588026
    20 2.033356 1.000772 -1.937610 -1.668474 1.286518 2.942953
    21 6.028141 0.000000 -0.000002 1.784215 0.793388 -0.362221
    22 11.692554 0.000000 -0.000001 0.000058 -0.000312 -1.774075
    23 11.481699 -0.000001 -0.000007 -0.786817 0.097825 1.036605
    24 2.910431 -0.023168 1.396241 -0.075713 -0.048948 -0.941676
    25 1.285216 -0.000004 -0.000001 0.000002 0.095123 -0.604919
    26 0.842285 0.000000 0.000001 -0.078526 0.054444 -1.209532
    27 3.368061 0.007377 0.622456 0.035720 -0.077656 -1.016785
    28 1.605515 0.000000 0.000001 0.000003 0.121988 -1.086881
    29 1.020532 -0.000002 -0.000003 0.015301 -0.014044 -1.343737
    30 3.555526 0.027821 -0.204473 0.012333 -0.103796 -0.905850
    31 1.666992 0.000000 0.000000 -0.000008 0.157406 -1.208297
    32 1.240434 0.000004 0.000006 0.000002 -0.000011 -1.483439
    33 3.453572 0.054213 -1.089087 0.053139 0.159543 -0.350428
    34 1.711614 0.000008 0.000011 0.000003 -0.026697 -0.714526
    35 1.002005 0.000002 0.000008 0.013391 -0.023243 -0.851514
    36 0.079440 -0.734843 -0.759723 1.293090 0.406319 -0.476523
    37 2.508554 -0.000010 -0.000006 -0.000002 -0.000001 0.359159
    38 1.324194 0.050781 -0.113290 0.025663 0.040518 0.530147
    39 -6.672041 -24.007288 -6.501174 1.606321 -0.009514 -3.179734
    40 0.000000 2.847656 -0.358400 0.023406 0.000000 0.000000
    41 -0.000001 3.923547 1.282475 0.000000 0.000000 0.000000
    42 0.000000 3.251565 2.448801 0.785371 0.000001 -0.000001
    43 0.000000 2.659132 1.094103 0.000000 0.000000 -0.000009
    44 0.000000 1.659210 1.354694 0.000000 0.000000 0.000000
    45 -18.013046 11.653858 -4.763837 1.570796 0.000000 -4.712349
  time 18
    0 0.500000 -3.660156 -8.140625 -1.570760 -1.391893 -1.570827
    1 2.033348 1.000767 1.937660 1.596636 -1.286515 2.942963
    2 6.028145 0.000003 0.000002 -0.589440 -0.713490 -2.132547
    3 11.692553 0.000081 -0.000005 -0.000003 -0.000024 -0.927068
    4 11.481672 -0.000089 -0.000024 0.165503 0.379693 0.400178
    5 3.285465 0.006025 -1.379481 0.060765 -0.190502 -0.991879
    6 1.327148 0.000000 0.000000 0.000000 -0.054909 -0.582372
    7 0.819336 0.000004 0.000002 0.000000 0.000000 -0.523564
    8 3.715758 0.109257 -0.568167 -0.039640 -0.149076 -1.055260
    9 1.610352 -0.000004 0.000004 -0.000003 0.001795 -0.427542
    10 0.993192 -0.000004 0.000003 0.001475 0.002258 -0.454028
    11 3.789935 0.207132 0.243938 -0.083896 -0.093720 -0.793804
    12 1.683594 -0.000006 -0.000002 -0.000001 0.006210 -0.584698
    13 1.255859 0.000002 0.000000 0.000000 0.000000 -0.532321
    14 3.594224 0.303457 1.113710 -0.047069 -0.108657 -0.915978
    15 1.723633 0.000000 -0.000002 0.000000 0.000000 -0.287983
    16 1.002930 -0.000002 0.000000 0.000000 0.000000 -0.445035
    17 0.298214 -0.630187 0.426699 -1.263889 -0.790697 -0.639507
    18 2.633557 0.000002 -0.000006 -0.000002 -0.221908 0.499915
    19 1.308594 -0.000002 0.000004 -0.026244 -0.055139 0.588026
    20 2.033356 1.000772 -1.937610 -1.668474 1.286518 2.942953
    21 6.028141 0.000000 -0.000002 1.770023 0.797850 -0.380938
    22 11.692554 0.000000 -0.000001 0.000022 -0.000036 -1.758553
    23 11.481699 -0.000001 -0.000007 -0.783738 0.130502 1.004240
    24 2.910431 -0.023168 1.404053 -0.075115 -0.049032 -0.940702
    25 1.285216 -0.000004 -0.000001 0.000002 0.095123 -0.604919
    26 0.842285 0.000000 0.000001 -0.078526 0.054444 -1.209532
    27 3.364154 0.007377 0.622456 0.036331 -0.077680 -1.015809
    28 1.605515 0.000000 0.000001 0.000003 0.122000 -1.086881
    29 1.020532 -0.000002 -0.000003 0.015301 -0.014044 -1.343765
    30 3.551620 0.023915 -0.200566 0.012932 -0.103892 -0.904898
    31 1.666992 0.000000 0.000000 -0.000008 0.157406 -1.208297
    32 1.240434 0.000004 0.000006 0.000002 0.000001 -1.483439
    33 3.449666 0.054213 -1.089087 0.053625 0.159148 -0.349334
    34 1.711614 0.000008 0.000011 0.000003 -0.026853 -0.718422
    35 1.002005 0.000002 0.000008 0.013427 -0.023279 -0.852470
    36 0.075534 -0.738750 -0.759723 1.293634 0.405987 -0.475295
    37 2.512460 -0.000010 -0.000006 -0.000002 -0.000001 0.359159
    38 1.324194 0.050781 -0.113290 0.025663 0.040518 0.530147
    39 -6.644696 -24.159636 -6.505081 1.635447 0.001461 -3.183617
    40 0.000000 2.847656 -0.358400 0.021860 0.000000 0.000000
    41 -0.000001 3.923547 1.282475 0.000000 0.000000 0.000000
    42 0.000000 3.251565 2.448801 0.785371 0.000001 -0.000001
    43 0.000000 2.659132 1.094103 0.000000 0.000000 -0.000009
    44 0.000000 1.659210 1.354694 0.000000 0.000000 0.000000
    45 -18.013046 11.653858 -4.763837 1.570796 0.000000 -4.712349
  time 19
    0 0.500000 -3.660156 -8.140625 -1.570760 -1.391893 -1.570827
    1 2.033348 1.000767 1.937660 1.596636 -1.286515 2.942963
    2 6.028145 0.000003 0.000002 -0.587325 -0.722441 -2.134917
    3 11.692553 0.000081 -0.000005 -0.000003 0.000024 -0.905734
    4 11.481672 -0.000089 -0.000024 0.155835 0.383993 0.393474
    5 3.281559 0.006025 -1.379481 0.060230 -0.190562 -0.990894
    6 1.327148 0.000000 0.000000 0.000000 -0.054909 -0.582372
    7 0.819336 0.000004 0.000002 0.000000 0.000000 -0.523564
    8 3.711852 0.109257 -0.568167 -0.040167 -0.149172 -1.054269
    9 1.610352 -0.000004 0.000004 -0.000003 0.001795 -0.427542
    10 0.993192 -0.000004 0.000003 0.001475 0.002258 -0.454028
    11 3.786029 0.207132 0.247844 -0.084411 -0.093684 -0.792857
    12 1.683594 -0.000006 -0.000002 -0.000001 0.006210 -0.584698
    13 1.255859 0.000002 0.000000 0.000000 0.000000 -0.532321
    14 3.594224 0.303457 1.113710 -0.047573 -0.108683 -0.915022
    15 1.723633 0.000000 -0.000002 0.000000 0.000000 -0.287983
    16 1.002930 -0.000002 0.000000 0.000000 0.000000 -0.445035
    17 0.298214 -0.630187 0.426699 -1.264592 -0.790577 -0.638094
    18 2.633557 0.000002 -0.000006 -0.000002 -0.221908 0.499915
    19 1.308594 -0.000002 0.000004 -0.026244 -0.055139 0.588026
    20 2.033356 1.000772 -1.937610 -1.668474 1.286518 2.942953
    21 6.028141 0.000000 -0.000002 1.758060 0.801698 -0.396679
    22 11.692554 0.000000 -0.000001 0.000034 -0.000024 -1.745047
    23 11.481699 -0.000001 -0.000007 -0.785097 0.147765 0.984443
    24 2.910431 -0.023168 1.400147 -0.075295 -0.048637 -0.940820
    25 1.285216 -0.000004 -0.000001 0.000002 0.095123 -0.604937
    26 0.842285 0.000000 0.000001 -0.078526 0.054444 -1.209532
    27 3.368061 0.007377 0.622456 0.036116 -0.077308 -1.015953
    28 1.605515 0.000000 0.000001 0.000003 0.122000 -1.086881
    29 1.020532 -0.000002 -0.000003 0.015301 -0.014044 -1.343737
    30 3.551620 0.027821 -0.200566 0.012752 -0.103485 -0.905056
    31 1.666992 0.000000 0.000000 -0.000008 0.157406 -1.208297
    32 1.240434 0.000004 0.000006 0.000002 -0.000011 -1.483439
    33 3.449666 0.054213 -1.089087 0.053700 0.159567 -0.349495
    34 1.711614 0.000008 0.000011 0.000003 -0.027069 -0.723363
    35 1.002005 0.000002 0.000008 0.013487 -0.023339 -0.854097
    36 0.075534 -0.734843 -0.759723 1.293661 0.406430 -0.475462
    37 2.508554 -0.000010 -0.000006 -0.000002 -0.000001 0.359159
    38 1.324194 0.050781 -0.113290 0.025663 0.040518 0.530147
    39 -6.613445 -24.288547 -6.571489 1.647480 0.007456 -3.184014
    40 0.000000 2.847656 -0.358400 0.019846 0.000000 0.000000
    41 -0.000001 3.923547 1.282475 0.000000 0.000000 0.000000
    42 0.000000 3.251565 2.448801 0.785371 0.000001 -0.000001
    43 0.000000 2.659132 1.094103 0.000000 0.000000 -0.000009
    44 0.000000 1.659210 1.354694 0.000000 0.000000 0.000000
    45 -18.013046 11.653858 -4.763837 1.570796 0.000000 -4.712349
  time 20
    0 0.500000 -3.660156 -8.140625 -1.570760 -1.391893 -1.570827
    1 2.033348 1.000767 1.937660 1.596636 -1.286515 2.942963
    2 6.028145 0.000003 0.000002 -0.585361 -0.730537 -2.135932
    3 11.692553 0.000081 -0.000005 -0.000003 0.000024 -0.889627
    4 11.481672 -0.000089 -0.000024 0.143626 0.389737 0.385516
    5 3.281559 0.002119 -1.383387 0.060402 -0.190574 -0.991222
    6 1.327148 0.000000 0.000000 0.000000 -0.054909 -0.582372
    7 0.819336 0.000004 0.000002 0.000000 0.000000 -0.523564
    8 3.711852 0.109257 -0.568167 -0.040000 -0.149172 -1.054609
    9 1.610352 -0.000004 0.000004 -0.000003 0.001795 -0.427542
    10 0.993192 -0.000004 0.000003 0.001487 0.002258 -0.454028
    11 3.786029 0.203226 0.243938 -0.084231 -0.093732 -0.793163
    12 1.683594 -0.000006 -0.000002 -0.000001 0.006210 -0.584698
    13 1.255859 0.000002 0.000000 0.000000 0.000000 -0.532321
    14 3.594224 0.299551 1.109803 -0.047400 -0.108708 -0.915331
    15 1.723633 0.000000 -0.000002 0.000000 0.000000 -0.287983
    16 1.002930 -0.000002 0.000000 0.000000 0.000000 -0.445035
    17 0.298214 -0.634093 0.426699 -1.264362 -0.790649 -0.638565
    18 2.633557 0.000002 -0.000006 -0.000002 -0.221920 0.499915
    19 1.308594 -0.000002 0.000004 -0.026244 -0.055139 0.588026
    20 2.033356 1.000772 -1.937610 -1.668474 1.286518 2.942953
    21 6.028141 0.000000 -0.000002 1.748327 0.805237 -0.409601
    22 11.692554 0.000000 -0.000001 0.000034 -0.000012 -1.734154
    23 11.481699 -0.000001 -0.000007 -0.789172 0.152986 0.974059
    24 2.910431 -0.023168 1.404053 -0.075434 -0.048649 -0.941116
    25 1.285216 -0.000004 -0.000001 0.000002 0.095123 -0.604919
    26 0.842285 0.000000 0.000001 -0.078526 0.054444 -1.209532
    27 3.368061 0.007377 0.622456 0.035972 -0.077320 -1.016268
    28 1.605515 0.000000 0.000001 0.000003 0.122000 -1.086881
    29 1.020532 -0.000002 -0.000003 0.015301 -0.014044 -1.343765
    30 3.551620 0.023915 -0.200566 0.012608 -0.103497 -0.905347
    31 1.666992 0.000000 0.000000 -0.000008 0.157406 -1.208297
    32 1.240434 0.000004 0.000006 0.000002 -0.000011 -1.483439
    33 3.449666 0.054213 -1.089087 0.053550 0.159639 -0.349817
    34 1.711614 0.000008 0.000011 0.000003 -0.027308 -0.729067
    35 1.002005 0.000002 0.000008 0.013559 -0.023411 -0.856240
    36 0.075534 -0.738750 -0.759723 1.293525 0.406485 -0.475825
    37 2.508554 -0.000010 -0.000006 -0.000002 -0.000001 0.359159
    38 1.324194 0.050781 -0.113290 0.025663 0.040518 0.530147
    39 -6.570475 -24.394019 -6.665242 1.646907 0.009425 -3.181795
    40 0.000000 2.847656 -0.358400 0.017533 0.000000 0.000000
    41 -0.000001 3.923547 1.282475 0.000000 0.000000 0.000000
    42 0.000000 3.251565 2.448801 0.785371 0.000001 -0.000001
    43 0.000000 2.659132 1.094103 0.000000 0.000000 -0.000009
    44 0.000000 1.659210 1.354694 0.000000 0.000000 0.000000
    45 -18.013046 11.653858 -4.763837 1.570796 0.000000 -4.712349
  time 21
    0 0.500000 -3.660156 -8.140625 -1.570760 -1.391893 -1.570827
    1 2.033348 1.000767 1.937660 1.596636 -1.286515 2.942963
    2 6.028145 0.000003 0.000002 -0.584605 -0.734429 -2.135425
    3 11.692553 0.000081 -0.000005 -0.000003 0.000024 -0.884116
    4 11.481672 -0.000089 -0.000024 0.129124 0.394897 0.374644
    5 3.281559 0.002119 -1.383387 0.060402 -0.190574 -0.991222
    6 1.327148 0.000000 0.000000 0.000000 -0.054909 -0.582372
    7 0.819336 0.000004 0.000002 0.000000 0.000000 -0.523564
    8 3.711852 0.109257 -0.568167 -0.040000 -0.149184 -1.054609
    9 1.610352 -0.000004 0.000004 -0.000003 0.001795 -0.427542
    10 0.993192 -0.000004 0.000003 0.001475 0.002258 -0.454028
    11 3.786029 0.203226 0.247844 -0.084231 -0.093732 -0.793163
    12 1.683594 -0.000006 -0.000002 -0.000001 0.006210 -0.584698
    13 1.255859 0.000002 0.000000 0.000000 0.000000 -0.532321
    14 3.594224 0.299551 1.113710 -0.047400 -0.108708 -0.915331
    15 1.723633 0.000000 -0.000002 0.000000 0.000000 -0.287983
    16 1.002930 -0.000002 0.000000 0.000000 0.000000 -0.445035
    17 0.298214 -0.634093 0.430606 -1.264362 -0.790649 -0.638565
    18 2.633557 0.000002 -0.000006 -0.000002 -0.221920 0.499915
    19 1.308594 -0.000002 0.000004 -0.026244 -0.055139 0.588026
    20 2.033356 1.000772 -1.937610 -1.668474 1.286518 2.942953
    21 6.028141 0.000000 -0.000002 1.741838 0.808122 -0.418242
    22 11.692554 0.000000 -0.000001 0.000034 -0.000012 -1.725822
    23 11.481699 -0.000001 -0.000007 -0.792659 0.153317 0.967314
    24 2.914337 -0.023168 1.404053 -0.075434 -0.048649 -0.941116
    25 1.285216 -0.000004 -0.000001 0.000002 0.095123 -0.604919
    26 0.842285 0.000000 0.000001 -0.078526 0.054444 -1.209532
    27 3.368061 0.007377 0.622456 0.035972 -0.077320 -1.016268
    28 1.605515 0.000000 0.000001 0.000003 0.122000 -1.086881
    29 1.020532 -0.000002 -0.000003 0.015301 -0.014044 -1.343793
    30 3.555526 0.023915 -0.200566 0.012608 -0.103497 -0.905347
    31 1.666992 0.000000 0.000000 -0.000008 0.157406 -1.208297
    32 1.240434 0.000004 0.000006 0.000002 -0.000011 -1.483478
    33 3.449666 0.054213 -1.089087 0.053550 0.159639 -0.349817
    34 1.711614 0.000008 0.000011 0.000003 -0.027584 -0.735333
    35 1.002005 0.000002 0.000008 0.013642 -0.023495 -0.858797
    36 0.075534 -0.738750 -0.759723 1.293525 0.406485 -0.475825
    37 2.512460 -0.000010 -0.000006 -0.000002 -0.000001 0.359147
    38 1.324194 0.050781 -0.113290 0.025663 0.040518 0.530147
    39 -6.531411 -24.472146 -6.743369 1.643564 0.010260 -3.178783
    40 0.000000 2.847656 -0.358400 0.015029 0.000000 0.000000
    41 -0.000001 3.923547 1.282475 0.000000 0.000000 0.000000
    42 0.000000 3.251565 2.448801 0.785371 0.000001 -0.000001
    43 0.000000 2.659132 1.094103 0.000000 0.000000 -0.000009
    44 0.000000 1.659210 1.354694 0.000000 0.000000 0.000000
    45 -18.013046 11.653858 -4.763837 1.570796 0.000000 -4.712349
  time 22
    0 0.500000 -3.660156 -8.140625 -1.570760 -1.391893 -1.570827
    1 2.033348 1.000767 1.937660 1.596636 -1.286515 2.942963
    2 6.028145 0.000003 0.000002 -0.585210 -0.735596 -2.132603
    3 11.692553 0.000081 -0.000005 -0.000003 0.000024 -0.887537
    4 11.481672 -0.000089 -0.000024 0.109850 0.400814 0.357318
    5 3.281559 0.002119 -1.383387 0.060420 -0.190574 -0.991222
    6 1.327148 0.000000 0.000000 0.000000 -0.054909 -0.582372
    7 0.819336 0.000004 0.000002 0.000000 0.000000 -0.523564
    8 3.711852 0.109257 -0.568167 -0.040000 -0.149172 -1.054609
    9 1.610352 -0.000004 0.000004 -0.000003 0.001795 -0.427542
    10 0.993192 -0.000004 0.000003 0.001475 0.002258 -0.454028
    11 3.786029 0.203226 0.243938 -0.084231 -0.093732 -0.793163
    12 1.683594 -0.000006 -0.000002 -0.000001 0.006210 -0.584698
    13 1.255859 0.000002 0.000000 0.000000 0.000000 -0.532321
    14 3.594224 0.299551 1.109803 -0.047400 -0.108708 -0.915331
    15 1.723633 0.000000 -0.000002 0.000000 0.000000 -0.287983
    16 1.002930 -0.000002 0.000000 0.000000 0.000000 -0.445035
    17 0.298214 -0.634093 0.426699 -1.264362 -0.790649 -0.638565
    18 2.633557 0.000002 -0.000006 -0.000002 -0.221920 0.499915
    19 1.308594 -0.000002 0.000004 -0.026244 -0.055139 0.588026
    20 2.033356 1.000772 -1.937610 -1.668474 1.286518 2.942953
    21 6.028141 0.000000 -0.000002 1.737181 0.809507 -0.424429
    22 11.692554 0.000000 -0.000001 0.000046 -0.000012 -1.721301
    23 11.481699 -0.000001 -0.000007 -0.795693 0.150003 0.964451
    24 2.910431 -0.023168 1.400147 -0.075374 -0.048984 -0.941116
    25 1.285216 -0.000004 -0.000001 0.000002 0.095123 -0.604919
    26 0.842285 0.000000 0.000001 -0.078526 0.054444 -1.209532
    27 3.368061 0.007377 0.618550 0.036068 -0.077656 -1.016240
    28 1.605515 0.000000 0.000001 0.000003 0.122000 -1.086881
    29 1.020532 -0.000002 -0.000003 0.015301 -0.014044 -1.343737
    30 3.551620 0.023915 -0.200566 0.012668 -0.103832 -0.905321
    31 1.666992 0.000000 0.000000 -0.000008 0.157406 -1.208297
    32 1.240434 0.000004 0.000006 0.000002 -0.000011 -1.483439
    33 3.449666 0.054213 -1.089087 0.053438 0.159316 -0.349817
    34 1.711614 0.000008 0.000011 0.000003 -0.027860 -0.741921
    35 1.002005 0.000002 0.000008 0.013738 -0.023579 -0.861560
    36 0.075534 -0.738750 -0.759723 1.293416 0.406153 -0.475825
    37 2.512460 -0.000010 -0.000006 -0.000002 -0.000001 0.359159
    38 1.324194 0.050781 -0.113290 0.025663 0.040518 0.530147
    39 -6.500160 -24.519022 -6.817590 1.637644 0.010081 -3.175059
    40 0.000000 2.847656 -0.358400 0.012368 0.000000 0.000000
    41 -0.000001 3.923547 1.282475 0.000000 0.000000 0.000000
    42 0.000000 3.251565 2.448801 0.785371 0.000001 -0.000001
    43 0.000000 2.659132 1.094103 0.000000 0.000000 -0.000009
    44 0.000000 1.659210 1.354694 0.000000 0.000000 0.000000
    45 -18.013046 11.653858 -4.763837 1.570796 0.000000 -4.712349
  time 23
    0 0.500000 -3.660156 -8.140625 -1.570760 -1.391893 -1.570827
    1 2.033348 1.000767 1.937660 1.596636 -1.286515 2.942963
    2 6.028145 0.000003 0.000002 -0.589742 -0.733222 -2.126228
    3 11.692553 0.000081 -0.000005 -0.000003 0.000024 -0.895899
    4 11.481672 -0.000089 -0.000024 0.088779 0.407625 0.331501
    5 3.281559 0.002119 -1.379481 0.060402 -0.190574 -0.991222
    6 1.327148 0.000000 0.000000 0.000000 -0.054909 -0.582372
    7 0.819336 0.000004 0.000002 0.000000 0.000000 -0.523564
    8 3.711852 0.109257 -0.568167 -0.040000 -0.149172 -1.054609
    9 1.610352 -0.000004 0.000004 -0.000003 0.001795 -0.427542
    10 0.993192 -0.000004 0.000003 0.001475 0.002258 -0.454028
    11 3.786029 0.203226 0.243938 -0.084231 -0.093732 -0.793163
    12 1.683594 -0.000006 -0.000002 -0.000001 0.006210 -0.584698
    13 1.255859 0.000002 0.000000 0.000000 0.000000 -0.532321
    14 3.594224 0.299551 1.113710 -0.047400 -0.108708 -0.915331
    15 1.723633 0.000000 -0.000002 0.000000 0.000000 -0.287983
    16 1.002930 -0.000002 0.000000 0.000000 0.000000 -0.445035
    17 0.298214 -0.634093 0.426699 -1.264362 -0.790649 -0.638565
    18 2.637464 0.000002 -0.000006 -0.000002 -0.221920 0.499915
    19 1.308594 -0.000002 0.000004 -0.026244 -0.055139 0.588026
    20 2.033356 1.000772 -1.937610 -1.668474 1.286518 2.942953
    21 6.028141 0.000000 -0.000002 1.734556 0.809507 -0.427927
    22 11.692554 0.000000 -0.000001 0.000034 -0.000024 -1.720321
    23 11.481699 -0.000001 -0.000007 -0.798772 0.142904 0.966150
    24 2.910431 -0.027074 1.400147 -0.075574 -0.048337 -0.941234
    25 1.285216 -0.000004 -0.000001 0.000002 0.095123 -0.604919
    26 0.842285 0.000000 0.000001 -0.078526 0.054444 -1.209532
    27 3.368061 0.007377 0.622456 0.035816 -0.077033 -1.016354
    28 1.605515 0.000000 0.000001 0.000003 0.122000 -1.086881
    29 1.020532 -0.000002 -0.000003 0.015301 -0.014044 -1.343737
    30 3.551620 0.023915 -0.200566 0.012477 -0.103185 -0.905427
    31 1.666992 0.000000 0.000000 -0.000008 0.157406 -1.208297
    32 1.240434 0.000004 0.000006 0.000002 -0.000011 -1.483439
    33 3.449666 0.054213 -1.089087 0.053625 0.159963 -0.349913
    34 1.711614 0.000008 0.000011 0.000003 -0.028135 -0.748468
    35 1.002005 0.000002 0.000008 0.013834 -0.023675 -0.864426
    36 0.075534 -0.734843 -0.759723 1.293525 0.406798 -0.475909
    37 2.512460 -0.000010 -0.000006 -0.000002 -0.000001 0.359159
    38 1.324194 0.050781 -0.113290 0.025663 0.040518 0.530147
    39 -6.468910 -24.522929 -6.880092 1.629717 0.009097 -3.170700
    40 0.000000 2.847656 -0.358400 0.009731 0.000000 0.000000
    41 -0.000001 3.923547 1.282475 0.000000 0.000000 0.000000
    42 0.000000 3.251565 2.448801 0.785371 0.000001 -0.000001
    43 0.000000 2.659132 1.094103 0.000000 0.000000 -0.000009
    44 0.000000 1.659210 1.354694 0.000000 0.000000 0.000000
    45 -18.013046 11.653858 -4.763837 1.570796 0.000000 -4.712349
  time 24
    0 0.500000 -3.660156 -8.140625 -1.570760 -1.391893 -1.570827
    1 2.033348 1.000767 1.937660 1.596636 -1.286515 2.942963
    2 6.028145 0.000003 0.000002 -0.601376 -0.726061 -2.113589
    3 11.692553 0.000081 -0.000005 -0.000063 0.000000 -0.909440
    4 11.481672 -0.000089 -0.000024 0.067770 0.415880 0.297256
    5 3.281559 0.002119 -1.379481 0.060195 -0.190886 -0.990730
    6 1.327148 0.000000 0.000000 0.000000 -0.054909 -0.582372
    7 0.819336 0.000004 0.000002 0.000000 0.000000 -0.523564
    8 3.711852 0.105350 -0.568167 -0.040179 -0.149496 -1.054128
    9 1.610352 -0.000004 0.000004 -0.000003 0.001795 -0.427542
    10 0.993192 -0.000004 0.000003 0.001475 0.002258 -0.454028
    11 3.786029 0.203226 0.243938 -0.084519 -0.093996 -0.792690
    12 1.683594 -0.000006 -0.000002 -0.000001 0.006210 -0.584698
    13 1.255859 0.000002 0.000000 0.000000 0.000000 -0.532321
    14 3.594224 0.299551 1.113710 -0.047645 -0.108989 -0.914853
    15 1.723633 0.000000 -0.000002 0.000000 0.000000 -0.287983
    16 1.002930 -0.000002 0.000000 0.000000 0.000000 -0.445035
    17 0.298214 -0.634093 0.426699 -1.264810 -0.790877 -0.637779
    18 2.633557 0.000002 -0.000006 -0.000002 -0.221920 0.499915
    19 1.308594 -0.000002 0.000004 -0.026244 -0.055139 0.588026
    20 2.033356 1.000772 -1.937610 -1.668474 1.286518 2.942953
    21 6.028141 0.000000 -0.000002 1.734085 0.808122 -0.428605
    22 11.692554 0.000000 -0.000001 0.000034 -0.000024 -1.723534
    23 11.481699 -0.000001 -0.000007 -0.800629 0.133347 0.971148
    24 2.910431 -0.023168 1.404053 -0.075434 -0.048649 -0.941116
    25 1.285216 -0.000004 -0.000001 0.000002 0.095123 -0.604919
    26 0.842285 0.000000 0.000001 -0.078526 0.054444 -1.209532
    27 3.368061 0.007377 0.622456 0.035972 -0.077320 -1.016268
    28 1.605515 0.000000 0.000001 0.000003 0.122000 -1.086881
    29 1.020532 -0.000002 -0.000003 0.015301 -0.014044 -1.343737
    30 3.551620 0.023915 -0.200566 0.012608 -0.103497 -0.905347
    31 1.666992 0.000000 0.000000 -0.000008 0.157406 -1.208297
    32 1.240434 0.000004 0.000006 0.000002 -0.000011 -1.483439
    33 3.449666 0.054213 -1.089087 0.053550 0.159639 -0.349817
    34 1.711614 0.000008 0.000011 0.000003 -0.028399 -0.754735
    35 1.002005 0.000002 0.000008 0.013942 -0.023771 -0.867267
    36 0.075534 -0.738750 -0.759723 1.293525 0.406485 -0.475825
    37 2.512460 -0.000010 -0.000006 -0.000002 -0.000001 0.359159
    38 1.324194 0.050781 -0.113290 0.025663 0.040518 0.530147
    39 -6.441565 -24.491678 -6.926969 1.620263 0.007605 -3.166025
    40 0.000000 2.847656 -0.358400 0.007227 0.000000 0.000000
    41 -0.000001 3.923547 1.282475 0.000000 0.000000 0.000000
    42 0.000000 3.251565 2.448801 0.785371 0.000001 -0.000001
    43 0.000000 2.659132 1.094103 0.000000 0.000000 -0.000009
    44 0.000000 1.659210 1.354694 0.000000 0.000000 0.000000
    45 -18.013046 11.653858 -4.763837 1.570796 0.000000 -4.712349
  time 25
    0 0.500000 -3.660156 -8.140625 -1.570760 -1.391893 -1.570827
    1 2.033348 1.000767 1.937660 1.596636 -1.286515 2.942963
    2 6.028145 0.000003 0.000002 -0.611851 -0.718822 -2.102813
    3 11.692553 0.000081 -0.000005 -0.000003 0.000024 -0.921984
    4 11.481672 -0.000089 -0.000024 0.044406 0.424067 0.258907
    5 3.281559 0.002119 -1.383387 0.060420 -0.190574 -0.991222
    6 1.327148 0.000000 0.000000 0.000000 -0.054909 -0.582372
    7 0.819336 0.000004 0.000002 0.000000 0.000000 -0.523564
    8 3.711852 0.109257 -0.572073 -0.040000 -0.149172 -1.054609
    9 1.610352 -0.000004 0.000004 -0.000003 0.001795 -0.427542
    10 0.993192 -0.000004 0.000003 0.001475 0.002258 -0.454028
    11 3.786029 0.203226 0.243938 -0.084231 -0.093732 -0.793163
    12 1.683594 -0.000006 -0.000002 -0.000001 0.006210 -0.584698
    13 1.255859 0.000002 0.000000 0.000000 0.000000 -0.532321
    14 3.594224 0.299551 1.109803 -0.047400 -0.108708 -0.915331
    15 1.723633 0.000000 -0.000002 0.000000 0.000000 -0.287983
    16 1.002930 -0.000002 0.000000 0.000000 0.000000 -0.445035
    17 0.298214 -0.634093 0.426699 -1.264362 -0.790649 -0.638565
    18 2.633557 0.000002 -0.000006 -0.000002 -0.221920 0.499915
    19 1.308594 -0.000002 0.000004 -0.026244 -0.055139 0.588026
    20 2.033356 1.000772 -1.937610 -1.668474 1.286518 2.942953
    21 6.028141 0.000000 -0.000002 1.735150 0.806507 -0.427196
    22 11.692554 0.000000 -0.000001 0.000034 -0.000012 -1.729144
    23 11.481699 -0.000001 -0.000007 -0.802123 0.121718 0.979154
    24 2.914337 -0.023168 1.400147 -0.075434 -0.048649 -0.941116
    25 1.285216 -0.000004 -0.000001 0.000002 0.095123 -0.604937
    26 0.842285 0.000000 0.000001 -0.078526 0.054444 -1.209532
    27 3.368061 0.007377 0.622456 0.035972 -0.077320 -1.016268
    28 1.605515 0.000000 0.000001 0.000003 0.122000 -1.086881
    29 1.020532 -0.000002 -0.000003 0.015301 -0.014044 -1.343737
    30 3.551620 0.023915 -0.200566 0.012608 -0.103497 -0.905347
    31 1.666992 0.000000 0.000000 -0.000008 0.157406 -1.208297
    32 1.240434 0.000004 0.000006 0.000002 -0.000011 -1.483439
    33 3.449666 0.054213 -1.089087 0.053550 0.159639 -0.349817
    34 1.711614 0.000008 0.000011 0.000003 -0.028639 -0.760519
    35 1.005912 0.000002 0.000008 0.014038 -0.023855 -0.869901
    36 0.075534 -0.738750 -0.759723 1.293525 0.406485 -0.475825
    37 2.512460 -0.000010 -0.000006 -0.000002 -0.000001 0.359159
    38 1.324194 0.050781 -0.113290 0.025663 0.040518 0.530147
    39 -6.414220 -24.433082 -6.946501 1.609854 0.005756 -3.161032
    40 0.000000 2.847656 -0.358400 0.004914 0.000000 0.000000
    41 -0.000001 3.923547 1.282475 0.000000 0.000000 0.000000
    42 0.000000 3.251565 2.448801 0.785371 0.000001 -0.000001
    43 0.000000 2.659132 1.094103 0.000000 0.000000 -0.000009
    44 0.000000 1.659210 1.354694 0.000000 0.000000 0.000000
    45 -18.013046 11.653858 -4.763837 1.570796 0.000000 -4.712349
  time 26
    0 0.500000 -3.660156 -8.140625 -1.570760 -1.391893 -1.570827
    1 2.033348 1.000767 1.937660 1.596636 -1.286515 2.942963
    2 6.028145 0.000003 0.000002 -0.610995 -0.719289 -2.106706
    3 11.692553 0.000081 -0.000005 -0.000003 0.000000 -0.912909
    4 11.481672 -0.000089 -0.000024 0.002945 0.433733 0.186564
    5 3.285465 0.006025 -1.379481 0.060661 -0.190358 -0.991781
    6 1.327148 0.000000 0.000000 0.000000 -0.054909 -0.582372
    7 0.819336 0.000004 0.000002 0.000000 0.000000 -0.523564
    8 3.711852 0.109257 -0.568167 -0.039736 -0.148944 -1.055147
    9 1.610352 -0.000004 0.000004 -0.000003 0.001795 -0.427542
    10 0.993192 -0.000004 0.000003 0.001475 0.002258 -0.454028
    11 3.789935 0.207132 0.247844 -0.083956 -0.093565 -0.793692
    12 1.683594 -0.000006 -0.000002 -0.000001 0.006210 -0.584698
    13 1.255859 0.000002 0.000000 0.000000 0.000000 -0.532321
    14 3.594224 0.303457 1.113710 -0.047141 -0.108504 -0.915893
    15 1.723633 0.000000 -0.000002 0.000000 0.000000 -0.287983
    16 1.002930 -0.000002 0.000000 0.000000 0.000000 -0.445035
    17 0.298214 -0.630187 0.426699 -1.263925 -0.790541 -0.639370
    18 2.637464 0.000002 -0.000006 -0.000002 -0.221920 0.499915
    19 1.308594 -0.000002 0.000004 -0.026244 -0.055139 0.588026
    20 2.033356 1.000772 -1.937610 -1.668474 1.286518 2.942953
    21 6.028141 0.000000 -0.000002 1.735497 0.803429 -0.426804
    22 11.692554 0.000000 -0.000001 0.000034 -0.000012 -1.737259
    23 11.481699 -0.000001 -0.000007 -0.804750 0.104979 0.990217
    24 2.910431 -0.023168 1.400147 -0.075434 -0.048649 -0.941116
    25 1.285216 -0.000004 -0.000001 0.000002 0.095123 -0.604919
    26 0.842285 0.000000 0.000001 -0.078526 0.054444 -1.209532
    27 3.368061 0.007377 0.618550 0.035972 -0.077320 -1.016268
    28 1.605515 0.000000 0.000001 0.000003 0.122000 -1.086881
    29 1.020532 -0.000002 -0.000003 0.015301 -0.014044 -1.343737
    30 3.551620 0.023915 -0.200566 0.012608 -0.103497 -0.905347
    31 1.666992 0.000000 0.000000 -0.000008 0.157406 -1.208297
    32 1.240434 0.000004 0.000006 0.000002 -0.000011 -1.483439
    33 3.449666 0.054213 -1.089087 0.053550 0.159639 -0.349817
    34 1.711614 0.000008 0.000011 0.000003 -0.028854 -0.765660
    35 1.002005 0.000002 0.000008 0.014134 -0.023939 -0.872328
    36 0.075534 -0.738750 -0.759723 1.293525 0.406485 -0.475825
    37 2.512460 -0.000010 -0.000006 -0.000002 -0.000001 0.359159
    38 1.324194 0.050781 -0.113290 0.025663 0.040518 0.530147
    39 -6.379063 -24.354955 -7.009002 1.594193 0.003400 -3.153266
    40 0.000000 2.847656 -0.358400 0.002804 0.000000 0.000000
    41 -0.000001 3.923547 1.282475 0.000000 0.000000 0.000000
    42 0.000000 3.251565 2.448801 0.785371 0.000001 -0.000001
    43 0.000000 2.659132 1.094103 0.000000 0.000000 -0.000009
    44 0.000000 1.659210 1.354694 0.000000 0.000000 0.000000
    45 -18.013046 11.653858 -4.763837 1.570796 0.000000 -4.712349
  time 27
    0 0.500000 -3.660156 -8.140625 -1.570760 -1.391893 -1.570827
    1 2.033348 1.000767 1.937660 1.596636 -1.286515 2.942963
    2 6.028145 0.000003 0.000002 -0.608124 -0.720962 -2.113251
    3 11.692553 0.000081 -0.000005 -0.000003 0.000024 -0.899653
    4 11.481672 -0.000089 -0.000024 -0.040499 0.443192 0.107735
    5 3.281559 0.006025 -1.379481 0.060264 -0.190682 -0.990894
    6 1.327148 0.000000 0.000000 0.000000 -0.054909 -0.582372
    7 0.819336 0.000004 0.000002 0.000000 0.000000 -0.523564
    8 3.711852 0.109257 -0.568167 -0.040144 -0.149292 -1.054298
    9 1.610352 -0.000004 0.000004 -0.000003 0.001795 -0.427542
    10 0.993192 -0.000004 0.000003 0.001475 0.002258 -0.454028
    11 3.786029 0.207132 0.243938 -0.084411 -0.093804 -0.792857
    12 1.683594 -0.000006 -0.000002 -0.000001 0.006210 -0.584698
    13 1.255859 0.000002 0.000000 0.000000 0.000000 -0.532321
    14 3.594224 0.303457 1.113710 -0.047559 -0.108798 -0.915050
    15 1.723633 0.000000 -0.000002 0.000000 0.000000 -0.287983
    16 1.002930 -0.000002 0.000000 0.000000 0.000000 -0.445035
    17 0.298214 -0.630187 0.426699 -1.264629 -0.790709 -0.638094
    18 2.633557 0.000002 -0.000006 -0.000002 -0.221908 0.499915
    19 1.308594 -0.000002 0.000004 -0.026244 -0.055139 0.588026
    20 2.033356 1.000772 -1.937610 -1.668474 1.286518 2.942953
    21 6.028141 0.000000 -0.000002 1.735150 0.800120 -0.427352
    22 11.692554 0.000000 -0.000001 0.000034 -0.000012 -1.745428
    23 11.481699 -0.000001 -0.000007 -0.808055 0.088185 1.001086
    24 2.910431 -0.023168 1.400147 -0.075434 -0.048649 -0.941116
    25 1.285216 -0.000004 -0.000001 0.000002 0.095123 -0.604919
    26 0.842285 0.000000 0.000001 -0.078526 0.054444 -1.209532
    27 3.368061 0.007377 0.622456 0.035972 -0.077320 -1.016268
    28 1.605515 0.000000 0.000001 0.000003 0.122000 -1.086881
    29 1.020532 -0.000002 -0.000003 0.015301 -0.014044 -1.343737
    30 3.551620 0.023915 -0.200566 0.012608 -0.103497 -0.905347
    31 1.666992 0.000000 0.000000 -0.000008 0.157406 -1.208297
    32 1.240434 0.000004 0.000006 0.000002 -0.000011 -1.483439
    33 3.449666 0.054213 -1.089087 0.053550 0.159639 -0.349817
    34 1.715521 0.000008 0.000011 0.000003 -0.029046 -0.770521
    35 1.002005 0.000002 0.000008 0.014206 -0.024010 -0.874627
    36 0.075534 -0.738750 -0.759723 1.293525 0.406485 -0.475825
    37 2.512460 -0.000010 -0.000006 -0.000002 -0.000001 0.359159
    38 1.324194 0.050781 -0.113290 0.025663 0.040518 0.530147
    39 -6.343906 -24.272921 -7.079317 1.577958 0.001074 -3.145342
    40 0.000000 2.847656 -0.358400 0.000863 0.000000 0.000000
    41 -0.000001 3.923547 1.282475 0.000000 0.000000 0.000000
    42 0.000000 3.251565 2.448801 0.785371 0.000001 -0.000001
    43 0.000000 2.659132 1.094103 0.000000 0.000000 -0.000009
    44 0.000000 1.659210 1.354694 0.000000 0.000000 0.000000
    45 -18.013046 11.653858 -4.763837 1.570796 0.000000 -4.712349
  time 28
    0 0.500000 -3.660156 -8.140625 -1.570760 -1.391893 -1.570827
    1 2.033348 1.000767 1.937660 1.596636 -1.286515 2.942963
    2 6.028145 0.000003 0.000002 -0.606361 -0.722130 -2.116580
    3 11.692553 0.000081 -0.000005 -0.000003 0.000024 -0.893476
    4 11.481672 -0.000089 -0.000024 -0.061136 0.447733 0.072081
    5 3.281559 0.002119 -1.383387 0.060420 -0.190574 -0.991222
    6 1.327148 0.000000 0.000000 0.000000 -0.054909 -0.582372
    7 0.819336 0.000004 0.000002 0.000000 0.000000 -0.523564
    8 3.711852 0.109257 -0.568167 -0.040000 -0.149184 -1.054609
    9 1.610352 -0.000004 0.000004 -0.000003 0.001795 -0.427542
    10 0.993192 -0.000004 0.000003 0.001487 0.002258 -0.454028
    11 3.786029 0.203226 0.243938 -0.084231 -0.093732 -0.793163
    12 1.683594 -0.000006 -0.000002 -0.000001 0.006210 -0.584698
    13 1.255859 0.000002 0.000000 0.000000 0.000000 -0.532321
    14 3.594224 0.299551 1.109803 -0.047400 -0.108708 -0.915331
    15 1.723633 0.000000 -0.000002 0.000000 0.000000 -0.287983
    16 1.002930 -0.000002 0.000000 0.000000 0.000000 -0.445035
    17 0.298214 -0.634093 0.426699 -1.264362 -0.790649 -0.638565
    18 2.633557 0.000002 -0.000006 -0.000002 -0.221908 0.499915
    19 1.308594 -0.000002 0.000004 -0.026244 -0.055139 0.588026
    20 2.033356 1.000772 -1.937610 -1.668474 1.286518 2.942953
    21 6.028141 0.000000 -0.000002 1.734655 0.798466 -0.428031
    22 11.692554 0.000000 -0.000001 0.000058 0.000192 -1.749894
    23 11.481699 -0.000001 -0.000007 -0.810455 0.080313 1.007055
    24 2.910431 -0.027074 1.400147 -0.075614 -0.047990 -0.941293
    25 1.285216 -0.000004 -0.000001 0.000002 0.095123 -0.604919
    26 0.842285 0.000000 0.000001 -0.078526 0.054444 -1.209532
    27 3.368061 0.003471 0.618550 0.035756 -0.076685 -1.016412
    28 1.605515 0.000000 0.000001 0.000003 0.122000 -1.086881
    29 1.020532 -0.000002 -0.000003 0.015301 -0.014044 -1.343793
    30 3.555526 0.023915 -0.204473 0.012465 -0.102838 -0.905480
    31 1.666992 0.000000 0.000000 -0.000008 0.157406 -1.208297
    32 1.240434 0.000004 0.000006 0.000002 -0.000011 -1.483439
    33 3.453572 0.054213 -1.085181 0.053787 0.160275 -0.349946
    34 1.711614 0.000008 0.000011 0.000003 -0.029142 -0.772730
    35 1.002005 0.000002 0.000008 0.014242 -0.024046 -0.875660
    36 0.079440 -0.738750 -0.759723 1.293688 0.407130 -0.475909
    37 2.512460 -0.000010 -0.000006 -0.000002 -0.000001 0.359159
    38 1.324194 0.050781 -0.113290 0.025651 0.040518 0.530147
    39 -6.320467 -24.237764 -7.110568 1.570796 0.000000 -3.141617
    40 0.000000 2.847656 -0.358400 0.000000 0.000000 0.000000
    41 -0.000001 3.923547 1.282475 0.000000 0.000000 0.000000
    42 0.000000 3.251565 2.448801 0.785371 0.000001 -0.000001
    43 0.000000 2.659132 1.094103 0.000000 0.000000 -0.000009
    44 0.000000 1.659210 1.354694 0.000000 0.000000 0.000000
    45 -18.013046 11.653858 -4.763837 1.570796 0.000000 -4.712349
end
