// Created by Crowbar++ 0.74
version 1
nodes
  0 "ValveBiped.Bip01_L_Clavicle" -1
  1 "ValveBiped.Bip01_L_UpperArm" 0
  2 "ValveBiped.Bip01_L_Forearm" 1
  3 "ValveBiped.Bip01_L_Hand" 2
  4 "ValveBiped.Bip01_L_Finger0" 3
  5 "ValveBiped.Bip01_L_Finger01" 4
  6 "ValveBiped.Bip01_L_Finger02" 5
  7 "ValveBiped.Bip01_L_Finger1" 3
  8 "ValveBiped.Bip01_L_Finger11" 7
  9 "ValveBiped.Bip01_L_Finger12" 8
  10 "ValveBiped.Bip01_L_Finger2" 3
  11 "ValveBiped.Bip01_L_Finger21" 10
  12 "ValveBiped.Bip01_L_Finger22" 11
  13 "ValveBiped.Bip01_L_Finger3" 3
  14 "ValveBiped.Bip01_L_Finger31" 13
  15 "ValveBiped.Bip01_L_Finger32" 14
  16 "ValveBiped.Bip01_L_Finger4" 3
  17 "ValveBiped.Bip01_L_Finger41" 16
  18 "ValveBiped.Bip01_L_Finger42" 17
  19 "ValveBiped.Bip01_R_Clavicle" -1
  20 "ValveBiped.Bip01_R_UpperArm" 19
  21 "ValveBiped.Bip01_R_Forearm" 20
  22 "ValveBiped.Bip01_R_Hand" 21
  23 "ValveBiped.Bip01_R_Finger0" 22
  24 "ValveBiped.Bip01_R_Finger01" 23
  25 "ValveBiped.Bip01_R_Finger02" 24
  26 "ValveBiped.Bip01_R_Finger1" 22
  27 "ValveBiped.Bip01_R_Finger11" 26
  28 "ValveBiped.Bip01_R_Finger12" 27
  29 "ValveBiped.Bip01_R_Finger2" 22
  30 "ValveBiped.Bip01_R_Finger21" 29
  31 "ValveBiped.Bip01_R_Finger22" 30
  32 "ValveBiped.Bip01_R_Finger3" 22
  33 "ValveBiped.Bip01_R_Finger31" 32
  34 "ValveBiped.Bip01_R_Finger32" 33
  35 "ValveBiped.Bip01_R_Finger4" 22
  36 "ValveBiped.Bip01_R_Finger41" 35
  37 "ValveBiped.Bip01_R_Finger42" 36
  38 "control" -1
  39 "v_weapon.AK47_Clip" 38
  40 "v_weapon.AK47_Bolt" 38
  41 "v_weapon.AK47_Trigger" 38
  42 "v_weapon.AK47_ClipRelease" 38
  43 "v_weapon.AK47_Parent" 38
end
skeleton
  time 0
    0 1.437500 3.820313 -4.980469 1.367756 0.437846 -0.664806
    1 6.028142 -0.000009 0.000000 -1.740386 -0.925533 -0.427282
    2 11.692563 0.000017 0.000007 0.000002 0.000000 -0.828723
    3 11.481678 -0.000021 -0.000026 0.090952 0.245859 0.520930
    4 0.806049 -0.348926 1.321255 -1.285557 -0.482391 -0.836327
    5 1.789782 0.000008 0.000000 -0.036204 -0.507634 0.207512
    6 1.207001 0.000000 0.000000 0.000000 0.000000 -0.099339
    7 3.859859 -0.137941 1.332452 0.220371 0.182989 -0.556456
    8 1.719431 0.000004 -0.000005 -0.003327 0.002349 -1.319039
    9 1.099663 0.000006 -0.000006 -0.001215 0.002294 -0.731179
    10 3.883686 -0.046764 0.431428 0.075188 0.100037 -0.899140
    11 1.719576 0.000013 -0.000007 -0.004128 0.003658 -1.212436
    12 1.209181 0.000002 -0.000001 -0.001162 0.002855 -0.603175
    13 3.942318 0.046774 -0.431457 -0.167073 0.021105 -1.132534
    14 1.539097 0.000000 0.000004 0.000000 0.000000 -1.178726
    15 1.196321 0.000000 0.000000 -0.000001 0.000002 -0.430800
    16 3.859699 -0.142406 -1.191988 -0.459717 -0.176936 -1.511901
    17 1.312572 -0.000002 0.000001 0.000000 0.000000 -0.913975
    18 0.729363 0.000011 0.000000 0.000000 0.000000 -0.749574
    19 -1.937500 4.609375 -5.496094 1.380186 0.205234 -3.734945
    20 6.028141 0.000005 -0.000003 0.864926 1.101341 -1.015090
    21 11.692562 0.000004 0.000010 0.000000 0.000024 -1.875990
    22 11.481714 -0.000034 0.000002 -0.784507 -0.048396 0.884651
    23 0.806011 -0.359833 -1.318336 1.281002 0.188695 -0.782321
    24 1.789787 0.000002 0.000002 -0.234630 0.004987 -0.004830
    25 1.207003 0.000006 -0.000004 0.000000 0.000000 1.203867
    26 3.859829 -0.148937 -1.331286 -0.043023 0.215207 -0.035988
    27 1.719431 -0.000004 -0.000003 0.005942 -0.002898 -1.480254
    28 1.099665 -0.000002 -0.000001 0.001977 -0.003717 -0.734284
    29 3.883659 -0.050333 -0.431045 0.106877 -0.073665 -0.993181
    30 1.719576 -0.000013 -0.000003 0.006890 -0.004008 -1.411133
    31 1.209177 -0.000002 -0.000003 0.003530 -0.002726 -1.130131
    32 3.942287 0.050325 0.431041 0.279874 0.036174 -1.245777
    33 1.539104 0.000002 -0.000004 0.000000 0.000000 -1.043759
    34 1.196321 0.000004 0.000004 0.000003 -0.000002 -1.228600
    35 3.859676 -0.132571 1.193106 0.344457 0.138292 -1.575074
    36 1.312571 -0.000002 0.000004 0.000000 0.000000 -0.580528
    37 0.729367 0.000000 -0.000005 0.000000 0.000000 -0.978374
    38 -4.003418 -12.996490 -3.996216 0.000000 0.000000 -0.000037
    39 -0.000007 -2.562422 -1.340640 1.570796 0.000000 3.141592
    40 -0.000005 -1.784786 0.363803 1.570796 0.000000 3.141592
    41 -0.000002 1.640970 -1.348884 1.221733 0.000000 3.141592
    42 -0.000004 -0.403343 -3.067159 1.570796 0.000000 3.141592
    43 0.000000 3.034649 -4.869442 1.570796 0.000000 3.141592
  time 1
    0 1.437500 3.820313 -4.980469 1.367756 0.437846 -0.664806
    1 6.028142 -0.000009 0.000000 -1.702385 -0.854970 -0.466846
    2 11.692563 0.000017 0.000007 0.000002 0.000000 -0.966261
    3 11.481678 -0.000021 -0.000026 0.085575 0.256732 0.629197
    4 0.806049 -0.348926 1.321255 -1.285557 -0.482391 -0.836327
    5 1.789782 0.000008 0.000000 -0.036204 -0.507634 0.207512
    6 1.207001 0.000000 0.000000 0.000000 0.000000 -0.099339
    7 3.859859 -0.137941 1.332452 0.220371 0.182989 -0.556456
    8 1.719431 0.000004 -0.000005 -0.003327 0.002349 -1.319039
    9 1.099663 0.000006 -0.000006 -0.001215 0.002294 -0.731179
    10 3.883686 -0.046764 0.431428 0.075188 0.100037 -0.899140
    11 1.719576 0.000013 -0.000007 -0.004128 0.003658 -1.212436
    12 1.209181 0.000002 -0.000001 -0.001162 0.002855 -0.603175
    13 3.942318 0.046774 -0.431457 -0.167073 0.021105 -1.132534
    14 1.539097 0.000000 0.000004 0.000000 0.000000 -1.178726
    15 1.196321 0.000000 0.000000 -0.000001 0.000002 -0.430800
    16 3.859699 -0.142406 -1.191988 -0.459717 -0.176936 -1.511901
    17 1.312572 -0.000002 0.000001 0.000000 0.000000 -0.913975
    18 0.729363 0.000011 0.000000 0.000000 0.000000 -0.749574
    19 -1.937500 4.609375 -5.496094 1.380186 0.205234 -3.734945
    20 6.028141 0.000005 -0.000003 0.914025 1.095859 -0.964569
    21 11.692562 0.000004 0.000010 0.000000 0.000024 -1.957080
    22 11.481714 -0.000034 0.000002 -0.755964 -0.096913 0.977545
    23 0.806011 -0.359833 -1.318336 1.281002 0.188695 -0.782321
    24 1.789787 0.000002 0.000002 -0.234630 0.004987 -0.004830
    25 1.207003 0.000006 -0.000004 0.000000 0.000000 1.203867
    26 3.859829 -0.148937 -1.331286 -0.043023 0.215207 -0.035988
    27 1.719431 -0.000004 -0.000003 0.005942 -0.002898 -1.480254
    28 1.099665 -0.000002 -0.000001 0.001977 -0.003717 -0.734284
    29 3.883659 -0.050333 -0.431045 0.106877 -0.073665 -0.993181
    30 1.719576 -0.000013 -0.000003 0.006890 -0.004008 -1.411101
    31 1.209177 -0.000002 -0.000003 0.003530 -0.002726 -1.130131
    32 3.942287 0.050325 0.431041 0.279874 0.036174 -1.245777
    33 1.539104 0.000002 -0.000004 0.000000 0.000000 -1.043759
    34 1.196321 0.000004 0.000004 0.000003 -0.000002 -1.228600
    35 3.859676 -0.132571 1.193106 0.344457 0.138292 -1.575074
    36 1.312571 -0.000002 0.000004 0.000000 0.000000 -0.580528
    37 0.729367 0.000000 -0.000005 0.000000 0.000000 -0.978374
    38 -4.003418 -12.426160 -3.996216 0.050968 -0.013753 -0.000037
    39 -0.000007 -2.562422 -1.340640 1.570796 0.000000 3.141592
    40 -0.000005 -1.784786 0.363803 1.570796 0.000000 3.141592
    41 -0.000002 1.640970 -1.348884 1.221733 0.000000 3.141592
    42 -0.000004 -0.403343 -3.067159 1.570796 0.000000 3.141592
    43 0.000000 3.034649 -4.869442 1.570796 0.000000 3.141592
  time 2
    0 1.437500 3.820313 -4.980469 1.367756 0.437846 -0.664806
    1 6.028142 -0.000009 0.000000 -1.673495 -0.795243 -0.498109
    2 11.692563 0.000017 0.000007 0.000002 0.000000 -1.144607
    3 11.481678 -0.000021 -0.000026 0.084268 0.236057 0.719215
    4 0.806049 -0.348926 1.321255 -1.285557 -0.482391 -0.836327
    5 1.789782 0.000008 0.000000 -0.036204 -0.507634 0.207512
    6 1.207001 0.000000 0.000000 0.000000 0.000000 -0.099339
    7 3.859859 -0.137941 1.332452 0.220371 0.182989 -0.556456
    8 1.719431 0.000004 -0.000005 -0.003327 0.002349 -1.319039
    9 1.099663 0.000006 -0.000006 -0.001215 0.002294 -0.731179
    10 3.883686 -0.046764 0.431428 0.075188 0.100037 -0.899140
    11 1.719576 0.000013 -0.000007 -0.004128 0.003658 -1.212436
    12 1.209181 0.000002 -0.000001 -0.001162 0.002855 -0.603175
    13 3.942318 0.046774 -0.431457 -0.167073 0.021105 -1.132534
    14 1.539097 0.000000 0.000004 0.000000 0.000000 -1.178726
    15 1.196321 0.000000 0.000000 -0.000001 0.000002 -0.430800
    16 3.859699 -0.142406 -1.191988 -0.459717 -0.176936 -1.511901
    17 1.312572 -0.000002 0.000001 0.000000 0.000000 -0.913975
    18 0.729363 0.000011 0.000000 0.000000 0.000000 -0.749574
    19 -1.937500 4.609375 -5.496094 1.380186 0.205234 -3.734945
    20 6.028141 0.000005 -0.000003 0.956612 1.048101 -0.904327
    21 11.692562 0.000004 0.000010 0.000000 0.000024 -2.077945
    22 11.481714 -0.000034 0.000002 -0.766370 -0.062715 1.035204
    23 0.806011 -0.359833 -1.318336 1.281002 0.188695 -0.782321
    24 1.789787 0.000002 0.000002 -0.234630 0.004987 -0.004830
    25 1.207003 0.000006 -0.000004 0.000000 0.000000 1.203867
    26 3.859829 -0.148937 -1.331286 -0.043023 0.215207 -0.035988
    27 1.719431 -0.000004 -0.000003 0.005942 -0.002898 -1.480220
    28 1.099665 -0.000002 -0.000001 0.001977 -0.003717 -0.734284
    29 3.883659 -0.050333 -0.431045 0.106877 -0.073665 -0.993181
    30 1.719576 -0.000013 -0.000003 0.006890 -0.004008 -1.411133
    31 1.209177 -0.000002 -0.000003 0.003530 -0.002726 -1.130131
    32 3.942287 0.050325 0.431041 0.279874 0.036174 -1.245777
    33 1.539104 0.000002 -0.000004 0.000000 0.000000 -1.043759
    34 1.196321 0.000004 0.000004 0.000003 -0.000002 -1.228600
    35 3.859676 -0.132571 1.193106 0.344457 0.138292 -1.575074
    36 1.312571 -0.000002 0.000004 0.000000 0.000000 -0.580528
    37 0.729367 0.000000 -0.000005 0.000000 0.000000 -0.978374
    38 -4.003418 -11.168310 -3.859493 0.027468 -0.004094 -0.008283
    39 -0.000007 -2.562422 -1.340640 1.570796 0.000000 3.141592
    40 -0.000005 -1.784786 0.363803 1.570796 0.000000 3.141592
    41 -0.000002 1.640970 -1.348884 1.221733 0.000000 3.141592
    42 -0.000004 -0.403343 -3.067159 1.570796 0.000000 3.141592
    43 0.000000 3.034649 -4.869442 1.570796 0.000000 3.141592
  time 3
    0 1.437500 3.820313 -4.980469 1.367756 0.437846 -0.664806
    1 6.028142 -0.000009 0.000000 -1.681533 -0.834549 -0.489056
    2 11.692563 0.000017 0.000007 0.000002 0.000000 -1.069966
    3 11.481678 -0.000021 -0.000026 0.076663 0.226099 0.629749
    4 0.806049 -0.348926 1.321255 -1.285557 -0.482391 -0.836327
    5 1.789782 0.000008 0.000000 -0.036204 -0.507634 0.207512
    6 1.207001 0.000000 0.000000 0.000000 0.000000 -0.099339
    7 3.859859 -0.137941 1.332452 0.220371 0.182989 -0.556456
    8 1.719431 0.000004 -0.000005 -0.003327 0.002349 -1.319039
    9 1.099663 0.000006 -0.000006 -0.001215 0.002294 -0.731179
    10 3.883686 -0.046764 0.431428 0.075188 0.100037 -0.899140
    11 1.719576 0.000013 -0.000007 -0.004128 0.003658 -1.212436
    12 1.209181 0.000002 -0.000001 -0.001162 0.002855 -0.603175
    13 3.942318 0.046774 -0.431457 -0.167073 0.021105 -1.132534
    14 1.539097 0.000000 0.000004 0.000000 0.000000 -1.178726
    15 1.196321 0.000000 0.000000 -0.000001 0.000002 -0.430800
    16 3.859699 -0.142406 -1.191988 -0.459717 -0.176936 -1.511901
    17 1.312572 -0.000002 0.000001 0.000000 0.000000 -0.913975
    18 0.729363 0.000011 0.000000 0.000000 0.000000 -0.749574
    19 -1.937500 4.609375 -5.496094 1.380186 0.205234 -3.734945
    20 6.028141 0.000005 -0.000003 0.914259 1.033441 -0.936857
    21 11.692562 0.000004 0.000010 0.000000 0.000012 -2.033429
    22 11.481714 -0.000034 0.000002 -0.808492 0.003422 0.973688
    23 0.806011 -0.359833 -1.318336 1.281002 0.188695 -0.782321
    24 1.789787 0.000002 0.000002 -0.234630 0.004987 -0.004830
    25 1.207003 0.000006 -0.000004 0.000000 0.000000 1.203867
    26 3.859829 -0.148937 -1.331286 -0.043023 0.215207 -0.035988
    27 1.719431 -0.000004 -0.000003 0.005942 -0.002898 -1.480254
    28 1.099665 -0.000002 -0.000001 0.001977 -0.003717 -0.734284
    29 3.883659 -0.050333 -0.431045 0.106877 -0.073665 -0.993181
    30 1.719576 -0.000013 -0.000003 0.006890 -0.004008 -1.411101
    31 1.209177 -0.000002 -0.000003 0.003530 -0.002726 -1.130131
    32 3.942287 0.050325 0.431041 0.279874 0.036174 -1.245777
    33 1.539104 0.000002 -0.000004 0.000000 0.000000 -1.043759
    34 1.196321 0.000004 0.000004 0.000003 -0.000002 -1.228600
    35 3.859676 -0.132571 1.193106 0.344457 0.138292 -1.575074
    36 1.312571 -0.000002 0.000004 0.000000 0.000000 -0.580528
    37 0.729367 0.000000 -0.000005 0.000000 0.000000 -0.978374
    38 -4.003418 -11.433943 -4.004028 -0.018643 0.021206 -0.024082
    39 -0.000007 -2.562422 -1.340640 1.570796 0.000000 3.141592
    40 -0.000005 -1.784786 0.363803 1.570796 0.000000 3.141592
    41 -0.000002 1.640970 -1.348884 1.221733 0.000000 3.141592
    42 -0.000004 -0.403343 -3.067159 1.570796 0.000000 3.141592
    43 0.000000 3.034649 -4.869442 1.570796 0.000000 3.141592
  time 4
    0 1.437500 3.820313 -4.980469 1.367756 0.437846 -0.664806
    1 6.028142 -0.000009 0.000000 -1.702093 -0.898400 -0.465979
    2 11.692563 0.000017 0.000007 0.000002 0.000000 -0.916648
    3 11.481678 -0.000021 -0.000026 0.063295 0.234498 0.519784
    4 0.806049 -0.348926 1.321255 -1.285557 -0.482391 -0.836327
    5 1.789782 0.000008 0.000000 -0.036204 -0.507634 0.207512
    6 1.207001 0.000000 0.000000 0.000000 0.000000 -0.099339
    7 3.859859 -0.137941 1.332452 0.220371 0.182989 -0.556456
    8 1.719431 0.000004 -0.000005 -0.003327 0.002349 -1.319039
    9 1.099663 0.000006 -0.000006 -0.001215 0.002294 -0.731179
    10 3.883686 -0.046764 0.431428 0.075188 0.100037 -0.899140
    11 1.719576 0.000013 -0.000007 -0.004128 0.003658 -1.212436
    12 1.209181 0.000002 -0.000001 -0.001162 0.002855 -0.603175
    13 3.942318 0.046774 -0.431457 -0.167073 0.021105 -1.132534
    14 1.539097 0.000000 0.000004 0.000000 0.000000 -1.178726
    15 1.196321 0.000000 0.000000 -0.000001 0.000002 -0.430800
    16 3.859699 -0.142406 -1.191988 -0.459717 -0.176936 -1.511901
    17 1.312572 -0.000002 0.000001 0.000000 0.000000 -0.913975
    18 0.729363 0.000011 0.000000 0.000000 0.000000 -0.749574
    19 -1.937500 4.609375 -5.496094 1.380186 0.205234 -3.734945
    20 6.028141 0.000005 -0.000003 0.873255 1.059350 -0.986227
    21 11.692562 0.000004 0.000010 0.000000 0.000024 -1.944889
    22 11.481714 -0.000034 0.000002 -0.830395 0.016599 0.923090
    23 0.806011 -0.359833 -1.318336 1.281002 0.188695 -0.782321
    24 1.789787 0.000002 0.000002 -0.234630 0.004987 -0.004830
    25 1.207003 0.000006 -0.000004 0.000000 0.000000 1.203867
    26 3.859829 -0.148937 -1.331286 -0.043023 0.215207 -0.035988
    27 1.719431 -0.000004 -0.000003 0.005942 -0.002898 -1.480254
    28 1.099665 -0.000002 -0.000001 0.001977 -0.003717 -0.734284
    29 3.883659 -0.050333 -0.431045 0.106877 -0.073665 -0.993181
    30 1.719576 -0.000013 -0.000003 0.006890 -0.004008 -1.411133
    31 1.209177 -0.000002 -0.000003 0.003530 -0.002726 -1.130131
    32 3.942287 0.050325 0.431041 0.279874 0.036174 -1.245777
    33 1.539104 0.000002 -0.000004 0.000000 0.000000 -1.043759
    34 1.196321 0.000004 0.000004 0.000003 -0.000002 -1.228600
    35 3.859676 -0.132571 1.193106 0.344457 0.138292 -1.575074
    36 1.312571 -0.000002 0.000004 0.000000 0.000000 -0.580528
    37 0.729367 0.000000 -0.000005 0.000000 0.000000 -0.978374
    38 -4.003418 -12.265999 -4.105594 -0.029376 0.038738 -0.034255
    39 -0.000007 -2.562422 -1.340640 1.570796 0.000000 3.141592
    40 -0.000005 -1.784786 0.363803 1.570796 0.000000 3.141592
    41 -0.000002 1.640970 -1.348884 1.221733 0.000000 3.141592
    42 -0.000004 -0.403343 -3.067159 1.570796 0.000000 3.141592
    43 0.000000 3.034649 -4.869442 1.570796 0.000000 3.141592
  time 5
    0 1.437500 3.820313 -4.980469 1.367756 0.437846 -0.664806
    1 6.028142 -0.000009 0.000000 -1.713176 -0.922581 -0.453483
    2 11.692563 0.000017 0.000007 0.000002 0.000000 -0.847878
    3 11.481678 -0.000021 -0.000026 0.062987 0.239915 0.484473
    4 0.806049 -0.348926 1.321255 -1.285557 -0.482391 -0.836327
    5 1.789782 0.000008 0.000000 -0.036204 -0.507634 0.207512
    6 1.207001 0.000000 0.000000 0.000000 0.000000 -0.099339
    7 3.859859 -0.137941 1.332452 0.220371 0.182989 -0.556456
    8 1.719431 0.000004 -0.000005 -0.003327 0.002349 -1.319039
    9 1.099663 0.000006 -0.000006 -0.001215 0.002294 -0.731179
    10 3.883686 -0.046764 0.431428 0.075188 0.100037 -0.899140
    11 1.719576 0.000013 -0.000007 -0.004128 0.003658 -1.212436
    12 1.209181 0.000002 -0.000001 -0.001162 0.002855 -0.603175
    13 3.942318 0.046774 -0.431457 -0.167073 0.021105 -1.132534
    14 1.539097 0.000000 0.000004 0.000000 0.000000 -1.178726
    15 1.196321 0.000000 0.000000 -0.000001 0.000002 -0.430800
    16 3.859699 -0.142406 -1.191988 -0.459717 -0.176936 -1.511901
    17 1.312572 -0.000002 0.000001 0.000000 0.000000 -0.913975
    18 0.729363 0.000011 0.000000 0.000000 0.000000 -0.749574
    19 -1.937500 4.609375 -5.496094 1.380186 0.205234 -3.734945
    20 6.028141 0.000005 -0.000003 0.856830 1.074335 -1.008524
    21 11.692562 0.000004 0.000010 0.000000 0.000024 -1.904559
    22 11.481714 -0.000034 0.000002 -0.827075 0.005605 0.903216
    23 0.806011 -0.359833 -1.318336 1.281002 0.188695 -0.782321
    24 1.789787 0.000002 0.000002 -0.234630 0.004987 -0.004830
    25 1.207003 0.000006 -0.000004 0.000000 0.000000 1.203867
    26 3.859829 -0.148937 -1.331286 -0.043023 0.215207 -0.035988
    27 1.719431 -0.000004 -0.000003 0.005942 -0.002898 -1.480254
    28 1.099665 -0.000002 -0.000001 0.001977 -0.003717 -0.734284
    29 3.883659 -0.050333 -0.431045 0.106877 -0.073665 -0.993181
    30 1.719576 -0.000013 -0.000003 0.006890 -0.004008 -1.411101
    31 1.209177 -0.000002 -0.000003 0.003530 -0.002726 -1.130131
    32 3.942287 0.050325 0.431041 0.279874 0.036174 -1.245777
    33 1.539104 0.000002 -0.000004 0.000000 0.000000 -1.043759
    34 1.196321 0.000004 0.000004 0.000003 -0.000002 -1.228600
    35 3.859676 -0.132571 1.193106 0.344457 0.138292 -1.575074
    36 1.312571 -0.000002 0.000004 0.000000 0.000000 -0.580528
    37 0.729367 0.000000 -0.000005 0.000000 0.000000 -0.978374
    38 -4.003418 -12.676168 -4.168096 -0.021949 0.035983 -0.030478
    39 -0.000007 -2.562422 -1.340640 1.570796 0.000000 3.141592
    40 -0.000005 -1.784786 0.363803 1.570796 0.000000 3.141592
    41 -0.000002 1.640970 -1.348884 1.221733 0.000000 3.141592
    42 -0.000004 -0.403343 -3.067159 1.570796 0.000000 3.141592
    43 0.000000 3.034649 -4.869442 1.570796 0.000000 3.141592
  time 6
    0 1.437500 3.820313 -4.980469 1.367756 0.437846 -0.664806
    1 6.028142 -0.000009 0.000000 -1.722993 -0.930507 -0.443016
    2 11.692563 0.000017 0.000007 0.000002 0.000000 -0.812723
    3 11.481678 -0.000021 -0.000026 0.070363 0.245060 0.482776
    4 0.806049 -0.348926 1.321255 -1.285557 -0.482391 -0.836327
    5 1.789782 0.000008 0.000000 -0.036204 -0.507634 0.207512
    6 1.207001 0.000000 0.000000 0.000000 0.000000 -0.099339
    7 3.859859 -0.137941 1.332452 0.220371 0.182989 -0.556456
    8 1.719431 0.000004 -0.000005 -0.003327 0.002349 -1.319039
    9 1.099663 0.000006 -0.000006 -0.001215 0.002294 -0.731179
    10 3.883686 -0.046764 0.431428 0.075188 0.100037 -0.899140
    11 1.719576 0.000013 -0.000007 -0.004128 0.003658 -1.212436
    12 1.209181 0.000002 -0.000001 -0.001162 0.002855 -0.603175
    13 3.942318 0.046774 -0.431457 -0.167073 0.021105 -1.132534
    14 1.539097 0.000000 0.000004 0.000000 0.000000 -1.178726
    15 1.196321 0.000000 0.000000 -0.000001 0.000002 -0.430800
    16 3.859699 -0.142406 -1.191988 -0.459717 -0.176936 -1.511901
    17 1.312572 -0.000002 0.000001 0.000000 0.000000 -0.913975
    18 0.729363 0.000011 0.000000 0.000000 0.000000 -0.749574
    19 -1.937500 4.609375 -5.496094 1.380186 0.205234 -3.734945
    20 6.028141 0.000005 -0.000003 0.851551 1.088589 -1.020590
    21 11.692562 0.000004 0.000010 0.000000 0.000024 -1.878822
    22 11.481714 -0.000034 0.000002 -0.810474 -0.020341 0.892561
    23 0.806011 -0.359833 -1.318336 1.281002 0.188695 -0.782321
    24 1.789787 0.000002 0.000002 -0.234630 0.004987 -0.004830
    25 1.207003 0.000006 -0.000004 0.000000 0.000000 1.203867
    26 3.859829 -0.148937 -1.331286 -0.043023 0.215207 -0.035988
    27 1.719431 -0.000004 -0.000003 0.005942 -0.002898 -1.480220
    28 1.099665 -0.000002 -0.000001 0.001977 -0.003717 -0.734284
    29 3.883659 -0.050333 -0.431045 0.106877 -0.073665 -0.993181
    30 1.719576 -0.000013 -0.000003 0.006890 -0.004008 -1.411101
    31 1.209177 -0.000002 -0.000003 0.003530 -0.002726 -1.130131
    32 3.942287 0.050325 0.431041 0.279874 0.036174 -1.245777
    33 1.539104 0.000002 -0.000004 0.000000 0.000000 -1.043759
    34 1.196321 0.000004 0.000004 0.000003 -0.000002 -1.228600
    35 3.859676 -0.132571 1.193106 0.344457 0.138292 -1.575074
    36 1.312571 -0.000002 0.000004 0.000000 0.000000 -0.580528
    37 0.729367 0.000000 -0.000005 0.000000 0.000000 -0.978374
    38 -4.003418 -12.965239 -4.191534 -0.005723 0.022282 -0.018533
    39 -0.000007 -2.562422 -1.340640 1.570796 0.000000 3.141592
    40 -0.000005 -1.784786 0.363803 1.570796 0.000000 3.141592
    41 -0.000002 1.640970 -1.348884 1.221733 0.000000 3.141592
    42 -0.000004 -0.403343 -3.067159 1.570796 0.000000 3.141592
    43 0.000000 3.034649 -4.869442 1.570796 0.000000 3.141592
  time 7
    0 1.437500 3.820313 -4.980469 1.367756 0.437846 -0.664806
    1 6.028142 -0.000009 0.000000 -1.730813 -0.931073 -0.434989
    2 11.692563 0.000017 0.000007 0.000002 0.000000 -0.797384
    3 11.481678 -0.000021 -0.000026 0.079352 0.248782 0.494404
    4 0.806049 -0.348926 1.321255 -1.285557 -0.482391 -0.836327
    5 1.789782 0.000008 0.000000 -0.036204 -0.507634 0.207512
    6 1.207001 0.000000 0.000000 0.000000 0.000000 -0.099339
    7 3.859859 -0.137941 1.332452 0.220371 0.182989 -0.556456
    8 1.719431 0.000004 -0.000005 -0.003327 0.002349 -1.319039
    9 1.099663 0.000006 -0.000006 -0.001215 0.002294 -0.731179
    10 3.883686 -0.046764 0.431428 0.075188 0.100037 -0.899140
    11 1.719576 0.000013 -0.000007 -0.004128 0.003658 -1.212436
    12 1.209181 0.000002 -0.000001 -0.001162 0.002855 -0.603175
    13 3.942318 0.046774 -0.431457 -0.167073 0.021105 -1.132534
    14 1.539097 0.000000 0.000004 0.000000 0.000000 -1.178726
    15 1.196321 0.000000 0.000000 -0.000001 0.000002 -0.430800
    16 3.859699 -0.142406 -1.191988 -0.459717 -0.176936 -1.511901
    17 1.312572 -0.000002 0.000001 0.000000 0.000000 -0.913975
    18 0.729363 0.000011 0.000000 0.000000 0.000000 -0.749574
    19 -1.937500 4.609375 -5.496094 1.380186 0.205234 -3.734945
    20 6.028141 0.000005 -0.000003 0.852079 1.100042 -1.026004
    21 11.692562 0.000004 0.000010 0.000000 0.000024 -1.863368
    22 11.481714 -0.000034 0.000002 -0.792386 -0.046974 0.886448
    23 0.806011 -0.359833 -1.318336 1.281002 0.188695 -0.782321
    24 1.789787 0.000002 0.000002 -0.234630 0.004987 -0.004830
    25 1.207003 0.000006 -0.000004 0.000000 0.000000 1.203867
    26 3.859829 -0.148937 -1.331286 -0.043023 0.215207 -0.035988
    27 1.719431 -0.000004 -0.000003 0.005942 -0.002898 -1.480254
    28 1.099665 -0.000002 -0.000001 0.001977 -0.003717 -0.734284
    29 3.883659 -0.050333 -0.431045 0.106877 -0.073665 -0.993181
    30 1.719576 -0.000013 -0.000003 0.006890 -0.004008 -1.411101
    31 1.209177 -0.000002 -0.000003 0.003530 -0.002726 -1.130131
    32 3.942287 0.050325 0.431041 0.279874 0.036174 -1.245777
    33 1.539104 0.000002 -0.000004 0.000000 0.000000 -1.043759
    34 1.196321 0.000004 0.000004 0.000003 -0.000002 -1.228600
    35 3.859676 -0.132571 1.193106 0.344457 0.138292 -1.575074
    36 1.312571 -0.000002 0.000004 0.000000 0.000000 -0.580528
    37 0.729367 0.000000 -0.000005 0.000000 0.000000 -0.978374
    38 -4.003418 -13.152745 -4.183721 0.009944 0.007139 -0.005894
    39 -0.000007 -2.562422 -1.340640 1.570796 0.000000 3.141592
    40 -0.000005 -1.784786 0.363803 1.570796 0.000000 3.141592
    41 -0.000002 1.640970 -1.348884 1.221733 0.000000 3.141592
    42 -0.000004 -0.403343 -3.067159 1.570796 0.000000 3.141592
    43 0.000000 3.034649 -4.869442 1.570796 0.000000 3.141592
  time 8
    0 1.437500 3.820313 -4.980469 1.367756 0.437846 -0.664806
    1 6.028142 -0.000009 0.000000 -1.736391 -0.933823 -0.429288
    2 11.692563 0.000017 0.000007 0.000002 0.000000 -0.786521
    3 11.481678 -0.000021 -0.000026 0.084268 0.250516 0.497842
    4 0.806049 -0.348926 1.321255 -1.285557 -0.482391 -0.836327
    5 1.789782 0.000008 0.000000 -0.036204 -0.507634 0.207512
    6 1.207001 0.000000 0.000000 0.000000 0.000000 -0.099339
    7 3.859859 -0.137941 1.332452 0.220371 0.182989 -0.556456
    8 1.719431 0.000004 -0.000005 -0.003327 0.002349 -1.319039
    9 1.099663 0.000006 -0.000006 -0.001215 0.002294 -0.731179
    10 3.883686 -0.046764 0.431428 0.075188 0.100037 -0.899140
    11 1.719576 0.000013 -0.000007 -0.004128 0.003658 -1.212436
    12 1.209181 0.000002 -0.000001 -0.001162 0.002855 -0.603175
    13 3.942318 0.046774 -0.431457 -0.167073 0.021105 -1.132534
    14 1.539097 0.000000 0.000004 0.000000 0.000000 -1.178726
    15 1.196321 0.000000 0.000000 -0.000001 0.000002 -0.430800
    16 3.859699 -0.142406 -1.191988 -0.459717 -0.176936 -1.511901
    17 1.312572 -0.000002 0.000001 0.000000 0.000000 -0.913975
    18 0.729363 0.000011 0.000000 0.000000 0.000000 -0.749574
    19 -1.937500 4.609375 -5.496094 1.380186 0.205234 -3.734945
    20 6.028141 0.000005 -0.000003 0.851316 1.106458 -1.029927
    21 11.692562 0.000004 0.000010 0.000000 0.000024 -1.853948
    22 11.481714 -0.000034 0.000002 -0.783962 -0.058754 0.881447
    23 0.806011 -0.359833 -1.318336 1.281002 0.188695 -0.782321
    24 1.789787 0.000002 0.000002 -0.234630 0.004987 -0.004830
    25 1.207003 0.000006 -0.000004 0.000000 0.000000 1.203867
    26 3.859829 -0.148937 -1.331286 -0.043023 0.215207 -0.035988
    27 1.719431 -0.000004 -0.000003 0.005942 -0.002898 -1.480254
    28 1.099665 -0.000002 -0.000001 0.001977 -0.003717 -0.734284
    29 3.883659 -0.050333 -0.431045 0.106877 -0.073665 -0.993181
    30 1.719576 -0.000013 -0.000003 0.006890 -0.004008 -1.411101
    31 1.209177 -0.000002 -0.000003 0.003530 -0.002726 -1.130131
    32 3.942287 0.050325 0.431041 0.279874 0.036174 -1.245777
    33 1.539104 0.000002 -0.000004 0.000000 0.000000 -1.043759
    34 1.196321 0.000004 0.000004 0.000003 -0.000002 -1.228600
    35 3.859676 -0.132571 1.193106 0.344457 0.138292 -1.575074
    36 1.312571 -0.000002 0.000004 0.000000 0.000000 -0.580528
    37 0.729367 0.000000 -0.000005 0.000000 0.000000 -0.978374
    38 -4.003418 -13.258217 -4.164190 0.015820 0.000000 -0.000037
    39 -0.000007 -2.562422 -1.340640 1.570796 0.000000 3.141592
    40 -0.000005 -1.784786 0.363803 1.570796 0.000000 3.141592
    41 -0.000002 1.640970 -1.348884 1.221733 0.000000 3.141592
    42 -0.000004 -0.403343 -3.067159 1.570796 0.000000 3.141592
    43 0.000000 3.034649 -4.869442 1.570796 0.000000 3.141592
  time 9
    0 1.437500 3.820313 -4.980469 1.367756 0.437846 -0.664806
    1 6.028142 -0.000009 0.000000 -1.741726 -0.940900 -0.423907
    2 11.692563 0.000017 0.000007 0.000002 0.000000 -0.775513
    3 11.481678 -0.000021 -0.000026 0.086650 0.249659 0.490033
    4 0.806049 -0.348926 1.321255 -1.285557 -0.482391 -0.836327
    5 1.789782 0.000008 0.000000 -0.036204 -0.507634 0.207512
    6 1.207001 0.000000 0.000000 0.000000 0.000000 -0.099339
    7 3.859859 -0.137941 1.332452 0.220371 0.182989 -0.556456
    8 1.719431 0.000004 -0.000005 -0.003327 0.002349 -1.319039
    9 1.099663 0.000006 -0.000006 -0.001215 0.002294 -0.731179
    10 3.883686 -0.046764 0.431428 0.075188 0.100037 -0.899140
    11 1.719576 0.000013 -0.000007 -0.004128 0.003658 -1.212436
    12 1.209181 0.000002 -0.000001 -0.001162 0.002855 -0.603175
    13 3.942318 0.046774 -0.431457 -0.167073 0.021105 -1.132534
    14 1.539097 0.000000 0.000004 0.000000 0.000000 -1.178726
    15 1.196321 0.000000 0.000000 -0.000001 0.000002 -0.430800
    16 3.859699 -0.142406 -1.191988 -0.459717 -0.176936 -1.511901
    17 1.312572 -0.000002 0.000001 0.000000 0.000000 -0.913975
    18 0.729363 0.000011 0.000000 0.000000 0.000000 -0.749574
    19 -1.937500 4.609375 -5.496094 1.380186 0.205234 -3.734945
    20 6.028141 0.000005 -0.000003 0.847269 1.107595 -1.034233
    21 11.692562 0.000004 0.000010 0.000000 0.000024 -1.847729
    22 11.481714 -0.000034 0.000002 -0.785052 -0.053702 0.873341
    23 0.806011 -0.359833 -1.318336 1.281002 0.188695 -0.782321
    24 1.789787 0.000002 0.000002 -0.234630 0.004987 -0.004830
    25 1.207003 0.000006 -0.000004 0.000000 0.000000 1.203867
    26 3.859829 -0.148937 -1.331286 -0.043551 0.215111 -0.038455
    27 1.719431 -0.000004 -0.000003 0.005882 -0.003018 -1.460853
    28 1.099665 -0.000002 -0.000001 0.001953 -0.003741 -0.727540
    29 3.883659 -0.050333 -0.431045 0.106877 -0.073665 -0.993181
    30 1.719576 -0.000013 -0.000003 0.006890 -0.004008 -1.411101
    31 1.209177 -0.000002 -0.000003 0.003530 -0.002726 -1.130131
    32 3.942287 0.050325 0.431041 0.279874 0.036174 -1.245777
    33 1.539104 0.000002 -0.000004 0.000000 0.000000 -1.043759
    34 1.196321 0.000004 0.000004 0.000003 -0.000002 -1.228600
    35 3.859676 -0.132571 1.193106 0.344457 0.138292 -1.575074
    36 1.312571 -0.000002 0.000004 0.000000 0.000000 -0.580528
    37 0.729367 0.000000 -0.000005 0.000000 0.000000 -0.978374
    38 -4.003418 -13.289468 -4.140751 0.009716 0.000000 -0.000037
    39 -0.000007 -2.562422 -1.340640 1.570796 0.000000 3.141592
    40 -0.000005 -1.784786 0.363803 1.570796 0.000000 3.141592
    41 -0.000002 1.640970 -1.348884 1.241076 0.000000 3.141592
    42 -0.000004 -0.403343 -3.067159 1.570796 0.000000 3.141592
    43 0.000000 3.034649 -4.869442 1.570796 0.000000 3.141592
  time 10
    0 1.437500 3.820313 -4.980469 1.367756 0.437846 -0.664806
    1 6.028142 -0.000009 0.000000 -1.746671 -0.945267 -0.419209
    2 11.692563 0.000017 0.000007 0.000002 0.000000 -0.773164
    3 11.481678 -0.000021 -0.000026 0.090338 0.247067 0.485449
    4 0.806049 -0.348926 1.321255 -1.285557 -0.482391 -0.836327
    5 1.789782 0.000008 0.000000 -0.036204 -0.507634 0.207512
    6 1.207001 0.000000 0.000000 0.000000 0.000000 -0.099339
    7 3.859859 -0.137941 1.332452 0.220371 0.182989 -0.556456
    8 1.719431 0.000004 -0.000005 -0.003327 0.002349 -1.319039
    9 1.099663 0.000006 -0.000006 -0.001215 0.002294 -0.731179
    10 3.883686 -0.046764 0.431428 0.075188 0.100037 -0.899140
    11 1.719576 0.000013 -0.000007 -0.004128 0.003658 -1.212436
    12 1.209181 0.000002 -0.000001 -0.001162 0.002855 -0.603175
    13 3.942318 0.046774 -0.431457 -0.167073 0.021105 -1.132534
    14 1.539097 0.000000 0.000004 0.000000 0.000000 -1.178726
    15 1.196321 0.000000 0.000000 -0.000001 0.000002 -0.430800
    16 3.859699 -0.142406 -1.191988 -0.459717 -0.176936 -1.511901
    17 1.312572 -0.000002 0.000001 0.000000 0.000000 -0.913975
    18 0.729363 0.000011 0.000000 0.000000 0.000000 -0.749574
    19 -1.937500 4.609375 -5.496094 1.380186 0.205234 -3.734945
    20 6.028141 0.000005 -0.000003 0.844453 1.105686 -1.036194
    21 11.692562 0.000004 0.000010 0.000000 0.000024 -1.845451
    22 11.481714 -0.000034 0.000002 -0.787183 -0.044664 0.863797
    23 0.806011 -0.359833 -1.318336 1.281002 0.188695 -0.782321
    24 1.789787 0.000002 0.000002 -0.234630 0.004987 -0.004830
    25 1.207003 0.000006 -0.000004 0.000000 0.000000 1.203867
    26 3.859829 -0.148937 -1.331286 -0.044932 0.214835 -0.044809
    27 1.719431 -0.000004 -0.000003 0.005727 -0.003305 -1.410867
    28 1.099665 -0.000002 -0.000001 0.001882 -0.003765 -0.710170
    29 3.883659 -0.050333 -0.431045 0.106877 -0.073665 -0.993181
    30 1.719576 -0.000013 -0.000003 0.006890 -0.004008 -1.411101
    31 1.209177 -0.000002 -0.000003 0.003530 -0.002726 -1.130131
    32 3.942287 0.050325 0.431041 0.279874 0.036174 -1.245777
    33 1.539104 0.000002 -0.000004 0.000000 0.000000 -1.043759
    34 1.196321 0.000004 0.000004 0.000003 -0.000002 -1.228600
    35 3.859676 -0.132571 1.193106 0.344457 0.138292 -1.575074
    36 1.312571 -0.000002 0.000004 0.000000 0.000000 -0.580528
    37 0.729367 0.000000 -0.000005 0.000000 0.000000 -0.978374
    38 -4.003418 -13.269936 -4.109500 0.000000 0.000000 -0.000037
    39 -0.000007 -2.562422 -1.340640 1.570796 0.000000 3.141592
    40 -0.000005 -1.784786 0.363803 1.570796 0.000000 3.141592
    41 -0.000002 1.640970 -1.348884 1.290944 0.000000 3.141592
    42 -0.000004 -0.403343 -3.067159 1.570796 0.000000 3.141592
    43 0.000000 3.034649 -4.869442 1.570796 0.000000 3.141592
  time 11
    0 1.437500 3.820313 -4.980469 1.367756 0.437846 -0.664806
    1 6.028142 -0.000009 0.000000 -1.748985 -0.945186 -0.417339
    2 11.692563 0.000017 0.000007 0.000002 0.000000 -0.779843
    3 11.481678 -0.000021 -0.000026 0.093104 0.244904 0.487189
    4 0.806049 -0.348926 1.321255 -1.285557 -0.482391 -0.836327
    5 1.789782 0.000008 0.000000 -0.036204 -0.507634 0.207512
    6 1.207001 0.000000 0.000000 0.000000 0.000000 -0.099339
    7 3.859859 -0.137941 1.332452 0.220371 0.182989 -0.556456
    8 1.719431 0.000004 -0.000005 -0.003327 0.002349 -1.319039
    9 1.099663 0.000006 -0.000006 -0.001215 0.002294 -0.731179
    10 3.883686 -0.046764 0.431428 0.075188 0.100037 -0.899140
    11 1.719576 0.000013 -0.000007 -0.004128 0.003658 -1.212436
    12 1.209181 0.000002 -0.000001 -0.001162 0.002855 -0.603175
    13 3.942318 0.046774 -0.431457 -0.167073 0.021105 -1.132534
    14 1.539097 0.000000 0.000004 0.000000 0.000000 -1.178726
    15 1.196321 0.000000 0.000000 -0.000001 0.000002 -0.430800
    16 3.859699 -0.142406 -1.191988 -0.459717 -0.176936 -1.511901
    17 1.312572 -0.000002 0.000001 0.000000 0.000000 -0.913975
    18 0.729363 0.000011 0.000000 0.000000 0.000000 -0.749574
    19 -1.937500 4.609375 -5.496094 1.380186 0.205234 -3.734945
    20 6.028141 0.000005 -0.000003 0.845157 1.103250 -1.034616
    21 11.692562 0.000004 0.000010 0.000000 0.000024 -1.848221
    22 11.481714 -0.000034 0.000002 -0.788571 -0.038342 0.859547
    23 0.806011 -0.359833 -1.318336 1.281002 0.188695 -0.782321
    24 1.789787 0.000002 0.000002 -0.234630 0.004987 -0.004830
    25 1.207003 0.000006 -0.000004 0.000000 0.000000 1.203867
    26 3.859829 -0.148937 -1.331286 -0.046802 0.214440 -0.053476
    27 1.719431 -0.000004 -0.000003 0.005487 -0.003689 -1.342537
    28 1.099665 -0.000002 -0.000001 0.001798 -0.003813 -0.686402
    29 3.883659 -0.050333 -0.431045 0.106877 -0.073665 -0.993181
    30 1.719576 -0.000013 -0.000003 0.006890 -0.004008 -1.411101
    31 1.209177 -0.000002 -0.000003 0.003530 -0.002726 -1.130131
    32 3.942287 0.050325 0.431041 0.279874 0.036174 -1.245777
    33 1.539104 0.000002 -0.000004 0.000000 0.000000 -1.043759
    34 1.196321 0.000004 0.000004 0.000003 -0.000002 -1.228600
    35 3.859676 -0.132571 1.193106 0.344457 0.138292 -1.575074
    36 1.312571 -0.000002 0.000004 0.000000 0.000000 -0.580528
    37 0.729367 0.000000 -0.000005 0.000000 0.000000 -0.978374
    38 -4.003418 -13.219153 -4.078249 -0.007020 0.000000 -0.000037
    39 -0.000007 -2.562422 -1.340640 1.570796 0.000000 3.141592
    40 -0.000005 -1.784786 0.363803 1.570796 0.000000 3.141592
    41 -0.000002 1.640970 -1.348884 1.359124 0.000000 3.141592
    42 -0.000004 -0.403343 -3.067159 1.570796 0.000000 3.141592
    43 0.000000 3.034649 -4.869442 1.570796 0.000000 3.141592
  time 12
    0 1.437500 3.820313 -4.980469 1.367756 0.437846 -0.664806
    1 6.028142 -0.000009 0.000000 -1.747767 -0.940455 -0.419072
    2 11.692563 0.000017 0.000007 0.000002 0.000000 -0.793861
    3 11.481678 -0.000021 -0.000026 0.093641 0.244339 0.495763
    4 0.806049 -0.348926 1.321255 -1.285557 -0.482391 -0.836327
    5 1.789782 0.000008 0.000000 -0.036204 -0.507634 0.207512
    6 1.207001 0.000000 0.000000 0.000000 0.000000 -0.099339
    7 3.859859 -0.137941 1.332452 0.220371 0.182989 -0.556456
    8 1.719431 0.000004 -0.000005 -0.003327 0.002349 -1.319039
    9 1.099663 0.000006 -0.000006 -0.001215 0.002294 -0.731179
    10 3.883686 -0.046764 0.431428 0.075188 0.100037 -0.899140
    11 1.719576 0.000013 -0.000007 -0.004128 0.003658 -1.212436
    12 1.209181 0.000002 -0.000001 -0.001162 0.002855 -0.603175
    13 3.942318 0.046774 -0.431457 -0.167073 0.021105 -1.132534
    14 1.539097 0.000000 0.000004 0.000000 0.000000 -1.178726
    15 1.196321 0.000000 0.000000 -0.000001 0.000002 -0.430800
    16 3.859699 -0.142406 -1.191988 -0.459717 -0.176936 -1.511901
    17 1.312572 -0.000002 0.000001 0.000000 0.000000 -0.913975
    18 0.729363 0.000011 0.000000 0.000000 0.000000 -0.749574
    19 -1.937500 4.609375 -5.496094 1.380186 0.205234 -3.734945
    20 6.028141 0.000005 -0.000003 0.850084 1.101869 -1.029458
    21 11.692562 0.000004 0.000010 0.000000 0.000024 -1.855733
    22 11.481714 -0.000034 0.000002 -0.788125 -0.038367 0.863895
    23 0.806011 -0.359833 -1.318336 1.281002 0.188695 -0.782321
    24 1.789787 0.000002 0.000002 -0.234630 0.004987 -0.004830
    25 1.207003 0.000006 -0.000004 0.000000 0.000000 1.203867
    26 3.859829 -0.148937 -1.331286 -0.048815 0.213996 -0.062946
    27 1.719431 -0.000004 -0.000003 0.005199 -0.004084 -1.268070
    28 1.099665 -0.000002 -0.000001 0.001690 -0.003860 -0.660512
    29 3.883659 -0.050333 -0.431045 0.106877 -0.073665 -0.993181
    30 1.719576 -0.000013 -0.000003 0.006890 -0.004008 -1.411101
    31 1.209177 -0.000002 -0.000003 0.003530 -0.002726 -1.130131
    32 3.942287 0.050325 0.431041 0.279874 0.036174 -1.245777
    33 1.539104 0.000002 -0.000004 0.000000 0.000000 -1.043759
    34 1.196321 0.000004 0.000004 0.000003 -0.000002 -1.228624
    35 3.859676 -0.132571 1.193106 0.344457 0.138292 -1.575074
    36 1.312571 -0.000002 0.000004 0.000000 0.000000 -0.580528
    37 0.729367 0.000000 -0.000005 0.000000 0.000000 -0.978374
    38 -4.003418 -13.148839 -4.046999 -0.007935 0.000000 -0.000037
    39 -0.000007 -2.562422 -1.340640 1.570796 0.000000 3.141592
    40 -0.000005 -1.784786 0.363803 1.570796 0.000000 3.141592
    41 -0.000002 1.640970 -1.348884 1.433417 0.000000 3.141592
    42 -0.000004 -0.403343 -3.067159 1.570796 0.000000 3.141592
    43 0.000000 3.034649 -4.869442 1.570796 0.000000 3.141592
  time 13
    0 1.437500 3.820313 -4.980469 1.367756 0.437846 -0.664806
    1 6.028142 -0.000009 0.000000 -1.744771 -0.933904 -0.422493
    2 11.692563 0.000017 0.000007 0.000002 0.000000 -0.810007
    3 11.481678 -0.000021 -0.000026 0.092796 0.244748 0.507009
    4 0.806049 -0.348926 1.321255 -1.285557 -0.482391 -0.836327
    5 1.789782 0.000008 0.000000 -0.036204 -0.507634 0.207512
    6 1.207001 0.000000 0.000000 0.000000 0.000000 -0.099339
    7 3.859859 -0.137941 1.332452 0.220371 0.182989 -0.556456
    8 1.719431 0.000004 -0.000005 -0.003327 0.002349 -1.319039
    9 1.099663 0.000006 -0.000006 -0.001215 0.002294 -0.731179
    10 3.883686 -0.046764 0.431428 0.075188 0.100037 -0.899140
    11 1.719576 0.000013 -0.000007 -0.004128 0.003658 -1.212436
    12 1.209181 0.000002 -0.000001 -0.001162 0.002855 -0.603175
    13 3.942318 0.046774 -0.431457 -0.167073 0.021105 -1.132534
    14 1.539097 0.000000 0.000004 0.000000 0.000000 -1.178726
    15 1.196321 0.000000 0.000000 -0.000001 0.000002 -0.430800
    16 3.859699 -0.142406 -1.191988 -0.459717 -0.176936 -1.511901
    17 1.312572 -0.000002 0.000001 0.000000 0.000000 -0.913975
    18 0.729363 0.000011 0.000000 0.000000 0.000000 -0.749574
    19 -1.937500 4.609375 -5.496094 1.380186 0.205234 -3.734945
    20 6.028141 0.000005 -0.000003 0.856654 1.101341 -1.022935
    21 11.692562 0.000004 0.000010 0.000000 0.000024 -1.864969
    22 11.481714 -0.000034 0.000002 -0.786688 -0.041972 0.872459
    23 0.806011 -0.359833 -1.318336 1.281002 0.188695 -0.782321
    24 1.789787 0.000002 0.000002 -0.234630 0.004987 -0.004830
    25 1.207003 0.000006 -0.000004 0.000000 0.000000 1.203867
    26 3.859829 -0.148937 -1.331286 -0.050634 0.213577 -0.071644
    27 1.719431 -0.000004 -0.000003 0.004900 -0.004432 -1.199705
    28 1.099665 -0.000002 -0.000001 0.001606 -0.003896 -0.636744
    29 3.883659 -0.050333 -0.431045 0.106877 -0.073665 -0.993181
    30 1.719576 -0.000013 -0.000003 0.006890 -0.004008 -1.411101
    31 1.209177 -0.000002 -0.000003 0.003530 -0.002726 -1.130131
    32 3.942287 0.050325 0.431041 0.279874 0.036174 -1.245777
    33 1.539104 0.000002 -0.000004 0.000000 0.000000 -1.043759
    34 1.196321 0.000004 0.000004 0.000003 -0.000002 -1.228600
    35 3.859676 -0.132571 1.193106 0.344457 0.138292 -1.575074
    36 1.312571 -0.000002 0.000004 0.000000 0.000000 -0.580528
    37 0.729367 0.000000 -0.000005 0.000000 0.000000 -0.978374
    38 -4.003418 -13.074618 -4.023560 -0.005290 0.000000 -0.000037
    39 -0.000007 -2.562422 -1.340640 1.570796 0.000000 3.141592
    40 -0.000005 -1.784786 0.363803 1.570796 0.000000 3.141592
    41 -0.000002 1.640970 -1.348884 1.501597 0.000000 3.141592
    42 -0.000004 -0.403343 -3.067159 1.570796 0.000000 3.141592
    43 0.000000 3.034649 -4.869442 1.570796 0.000000 3.141592
  time 14
    0 1.437500 3.820313 -4.980469 1.367756 0.437846 -0.664806
    1 6.028142 -0.000009 0.000000 -1.741750 -0.928000 -0.425822
    2 11.692563 0.000017 0.000007 0.000002 0.000000 -0.823365
    3 11.481678 -0.000021 -0.000026 0.091567 0.245469 0.516856
    4 0.806049 -0.348926 1.321255 -1.285557 -0.482391 -0.836327
    5 1.789782 0.000008 0.000000 -0.036204 -0.507634 0.207512
    6 1.207001 0.000000 0.000000 0.000000 0.000000 -0.099339
    7 3.859859 -0.137941 1.332452 0.220371 0.182989 -0.556456
    8 1.719431 0.000004 -0.000005 -0.003327 0.002349 -1.319039
    9 1.099663 0.000006 -0.000006 -0.001215 0.002294 -0.731179
    10 3.883686 -0.046764 0.431428 0.075188 0.100037 -0.899140
    11 1.719576 0.000013 -0.000007 -0.004128 0.003658 -1.212436
    12 1.209181 0.000002 -0.000001 -0.001162 0.002855 -0.603175
    13 3.942318 0.046774 -0.431457 -0.167073 0.021105 -1.132534
    14 1.539097 0.000000 0.000004 0.000000 0.000000 -1.178726
    15 1.196321 0.000000 0.000000 -0.000001 0.000002 -0.430800
    16 3.859699 -0.142406 -1.191988 -0.459717 -0.176936 -1.511901
    17 1.312572 -0.000002 0.000001 0.000000 0.000000 -0.913975
    18 0.729363 0.000011 0.000000 0.000000 0.000000 -0.749574
    19 -1.937500 4.609375 -5.496094 1.380186 0.205234 -3.734945
    20 6.028141 0.000005 -0.000003 0.862462 1.101260 -1.017435
    21 11.692562 0.000004 0.000010 0.000000 0.000024 -1.872727
    22 11.481714 -0.000034 0.000002 -0.785201 -0.046314 0.880859
    23 0.806011 -0.359833 -1.318336 1.281002 0.188695 -0.782321
    24 1.789787 0.000002 0.000002 -0.234630 0.004987 -0.004830
    25 1.207003 0.000006 -0.000004 0.000000 0.000000 1.203867
    26 3.859829 -0.148937 -1.331286 -0.051963 0.213265 -0.077967
    27 1.719431 -0.000004 -0.000003 0.004672 -0.004671 -1.149719
    28 1.099665 -0.000002 -0.000001 0.001534 -0.003920 -0.619358
    29 3.883659 -0.050333 -0.431045 0.106877 -0.073665 -0.993181
    30 1.719576 -0.000013 -0.000003 0.006890 -0.004008 -1.411101
    31 1.209177 -0.000002 -0.000003 0.003530 -0.002726 -1.130131
    32 3.942287 0.050325 0.431041 0.279874 0.036174 -1.245777
    33 1.539104 0.000002 -0.000004 0.000000 0.000000 -1.043759
    34 1.196321 0.000004 0.000004 0.000003 -0.000002 -1.228600
    35 3.859676 -0.132571 1.193106 0.344457 0.138292 -1.575074
    36 1.312571 -0.000002 0.000004 0.000000 0.000000 -0.580528
    37 0.729367 0.000000 -0.000005 0.000000 0.000000 -0.978374
    38 -4.003418 -13.019929 -4.004028 -0.001755 0.000000 -0.000037
    39 -0.000007 -2.562422 -1.340640 1.570796 0.000000 3.141592
    40 -0.000005 -1.784786 0.363803 1.570796 0.000000 3.141592
    41 -0.000002 1.640970 -1.348884 1.551465 0.000000 3.141592
    42 -0.000004 -0.403343 -3.067159 1.570796 0.000000 3.141592
    43 0.000000 3.034649 -4.869442 1.570796 0.000000 3.141592
  time 15
    0 1.437500 3.820313 -4.980469 1.367756 0.437846 -0.664806
    1 6.028142 -0.000009 0.000000 -1.740386 -0.925533 -0.427282
    2 11.692563 0.000017 0.000007 0.000002 0.000000 -0.828723
    3 11.481678 -0.000021 -0.000026 0.090952 0.245859 0.520930
    4 0.806049 -0.348926 1.321255 -1.285557 -0.482391 -0.836327
    5 1.789782 0.000008 0.000000 -0.036204 -0.507634 0.207512
    6 1.207001 0.000000 0.000000 0.000000 0.000000 -0.099339
    7 3.859859 -0.137941 1.332452 0.220371 0.182989 -0.556456
    8 1.719431 0.000004 -0.000005 -0.003327 0.002349 -1.319039
    9 1.099663 0.000006 -0.000006 -0.001215 0.002294 -0.731179
    10 3.883686 -0.046764 0.431428 0.075188 0.100037 -0.899140
    11 1.719576 0.000013 -0.000007 -0.004128 0.003658 -1.212436
    12 1.209181 0.000002 -0.000001 -0.001162 0.002855 -0.603175
    13 3.942318 0.046774 -0.431457 -0.167073 0.021105 -1.132534
    14 1.539097 0.000000 0.000004 0.000000 0.000000 -1.178726
    15 1.196321 0.000000 0.000000 -0.000001 0.000002 -0.430800
    16 3.859699 -0.142406 -1.191988 -0.459717 -0.176936 -1.511901
    17 1.312572 -0.000002 0.000001 0.000000 0.000000 -0.913975
    18 0.729363 0.000011 0.000000 0.000000 0.000000 -0.749574
    19 -1.937500 4.609375 -5.496094 1.380186 0.205234 -3.734945
    20 6.028141 0.000005 -0.000003 0.864926 1.101341 -1.015090
    21 11.692562 0.000004 0.000010 0.000000 0.000024 -1.875990
    22 11.481714 -0.000034 0.000002 -0.784507 -0.048396 0.884651
    23 0.806011 -0.359833 -1.318336 1.281002 0.188695 -0.782321
    24 1.789787 0.000002 0.000002 -0.234630 0.004987 -0.004830
    25 1.207003 0.000006 -0.000004 0.000000 0.000000 1.203867
    26 3.859829 -0.148937 -1.331286 -0.052466 0.213134 -0.080435
    27 1.719431 -0.000004 -0.000003 0.004588 -0.004767 -1.130352
    28 1.099665 -0.000002 -0.000001 0.001510 -0.003932 -0.612630
    29 3.883659 -0.050333 -0.431045 0.106877 -0.073665 -0.993181
    30 1.719576 -0.000013 -0.000003 0.006890 -0.004008 -1.411133
    31 1.209177 -0.000002 -0.000003 0.003530 -0.002726 -1.130131
    32 3.942287 0.050325 0.431041 0.279874 0.036174 -1.245777
    33 1.539104 0.000002 -0.000004 0.000000 0.000000 -1.043759
    34 1.196321 0.000004 0.000004 0.000003 -0.000002 -1.228600
    35 3.859676 -0.132571 1.193106 0.344457 0.138292 -1.575074
    36 1.312571 -0.000002 0.000004 0.000000 0.000000 -0.580528
    37 0.729367 0.000000 -0.000005 0.000000 0.000000 -0.978374
    38 -4.003418 -12.996490 -3.996216 0.000000 0.000000 -0.000037
    39 -0.000007 -2.562422 -1.340640 1.570796 0.000000 3.141592
    40 -0.000005 -1.784786 0.363803 1.570796 0.000000 3.141592
    41 -0.000002 1.640970 -1.348884 1.570796 0.000000 3.141592
    42 -0.000004 -0.403343 -3.067159 1.570796 0.000000 3.141592
    43 0.000000 3.034649 -4.869442 1.570796 0.000000 3.141592
end
