// Created by Crowbar++ 0.74
version 1
nodes
  0 "ValveBiped.Bip01_L_Clavicle" -1
  1 "ValveBiped.Bip01_L_UpperArm" 0
  2 "ValveBiped.Bip01_L_Forearm" 1
  3 "ValveBiped.Bip01_L_Hand" 2
  4 "ValveBiped.Bip01_L_Finger0" 3
  5 "ValveBiped.Bip01_L_Finger01" 4
  6 "ValveBiped.Bip01_L_Finger02" 5
  7 "ValveBiped.Bip01_L_Finger1" 3
  8 "ValveBiped.Bip01_L_Finger11" 7
  9 "ValveBiped.Bip01_L_Finger12" 8
  10 "ValveBiped.Bip01_L_Finger2" 3
  11 "ValveBiped.Bip01_L_Finger21" 10
  12 "ValveBiped.Bip01_L_Finger22" 11
  13 "ValveBiped.Bip01_L_Finger3" 3
  14 "ValveBiped.Bip01_L_Finger31" 13
  15 "ValveBiped.Bip01_L_Finger32" 14
  16 "ValveBiped.Bip01_L_Finger4" 3
  17 "ValveBiped.Bip01_L_Finger41" 16
  18 "ValveBiped.Bip01_L_Finger42" 17
  19 "ValveBiped.Bip01_R_Clavicle" -1
  20 "ValveBiped.Bip01_R_UpperArm" 19
  21 "ValveBiped.Bip01_R_Forearm" 20
  22 "ValveBiped.Bip01_R_Hand" 21
  23 "ValveBiped.Bip01_R_Finger0" 22
  24 "ValveBiped.Bip01_R_Finger01" 23
  25 "ValveBiped.Bip01_R_Finger02" 24
  26 "ValveBiped.Bip01_R_Finger1" 22
  27 "ValveBiped.Bip01_R_Finger11" 26
  28 "ValveBiped.Bip01_R_Finger12" 27
  29 "ValveBiped.Bip01_R_Finger2" 22
  30 "ValveBiped.Bip01_R_Finger21" 29
  31 "ValveBiped.Bip01_R_Finger22" 30
  32 "ValveBiped.Bip01_R_Finger3" 22
  33 "ValveBiped.Bip01_R_Finger31" 32
  34 "ValveBiped.Bip01_R_Finger32" 33
  35 "ValveBiped.Bip01_R_Finger4" 22
  36 "ValveBiped.Bip01_R_Finger41" 35
  37 "ValveBiped.Bip01_R_Finger42" 36
  38 "control" -1
  39 "v_weapon.AK47_Clip" 38
  40 "v_weapon.AK47_Bolt" 38
  41 "v_weapon.AK47_Trigger" 38
  42 "v_weapon.AK47_ClipRelease" 38
  43 "v_weapon.AK47_Parent" 38
end
skeleton
  time 0
    0 1.437500 3.820313 -4.980469 1.367756 0.437846 -0.664806
    1 6.028142 -0.000009 0.000000 -1.740386 -0.925533 -0.427282
    2 11.692563 0.000017 0.000007 0.000002 0.000000 -0.828723
    3 11.481678 -0.000021 -0.000026 0.090952 0.245859 0.520930
    4 0.806049 -0.348926 1.321255 -1.285557 -0.482391 -0.836327
    5 1.789782 0.000008 0.000000 -0.036204 -0.507634 0.207512
    6 1.207001 0.000000 0.000000 0.000000 0.000000 -0.099339
    7 3.859859 -0.137941 1.332452 0.220371 0.182989 -0.556456
    8 1.719431 0.000004 -0.000005 -0.003327 0.002349 -1.319039
    9 1.099663 0.000006 -0.000006 -0.001211 0.002294 -0.731158
    10 3.883686 -0.046764 0.431428 0.075188 0.100037 -0.899140
    11 1.719576 0.000013 -0.000007 -0.004128 0.003658 -1.212436
    12 1.209181 0.000002 -0.000001 -0.001162 0.002855 -0.603175
    13 3.942318 0.046774 -0.431457 -0.167073 0.021105 -1.132534
    14 1.539097 0.000000 0.000004 0.000000 0.000000 -1.178726
    15 1.196321 0.000000 0.000000 -0.000001 0.000002 -0.430800
    16 3.859699 -0.142406 -1.191988 -0.459717 -0.176936 -1.511901
    17 1.312572 -0.000002 0.000001 0.000000 0.000000 -0.913975
    18 0.729363 0.000011 0.000000 0.000000 0.000000 -0.749574
    19 -1.937500 4.609375 -5.496094 1.380186 0.205234 -3.734945
    20 6.028141 0.000005 -0.000003 0.864926 1.101341 -1.015090
    21 11.692562 0.000004 0.000010 0.000000 0.000024 -1.875990
    22 11.481714 -0.000034 0.000002 -0.784507 -0.048396 0.884651
    23 0.806011 -0.359833 -1.318336 1.281002 0.188695 -0.782321
    24 1.789787 0.000002 0.000002 -0.234630 0.004987 -0.004830
    25 1.207003 0.000006 -0.000004 0.000001 0.000000 1.203843
    26 3.859829 -0.148937 -1.331286 -0.043023 0.215207 -0.035988
    27 1.719431 -0.000004 -0.000003 0.005942 -0.002898 -1.480254
    28 1.099665 -0.000002 -0.000001 0.001977 -0.003717 -0.734284
    29 3.883659 -0.050333 -0.431045 0.106877 -0.073665 -0.993181
    30 1.719576 -0.000013 -0.000003 0.006890 -0.004008 -1.411133
    31 1.209177 -0.000002 -0.000003 0.003530 -0.002726 -1.130131
    32 3.942287 0.050325 0.431041 0.279874 0.036174 -1.245777
    33 1.539104 0.000002 -0.000004 0.000000 0.000000 -1.043759
    34 1.196321 0.000004 0.000004 0.000003 -0.000002 -1.228600
    35 3.859676 -0.132571 1.193106 0.344457 0.138292 -1.575074
    36 1.312571 -0.000002 0.000004 0.000000 0.000000 -0.580528
    37 0.729367 0.000000 -0.000005 0.000002 0.000003 -0.978353
    38 -4.003418 -12.996490 -3.996216 0.000000 0.000000 -0.000037
    39 -0.000007 -2.562422 -1.340640 1.570796 0.000000 3.141592
    40 -0.000005 -1.784786 0.363803 1.570796 0.000000 3.141592
    41 -0.000002 1.640970 -1.348884 1.221733 0.000000 3.141592
    42 -0.000004 -0.403343 -3.067159 1.570796 0.000000 3.141592
    43 0.000000 3.034649 -4.869442 1.570796 0.000000 3.141592
  time 1
    0 1.437500 3.820313 -4.980469 1.367756 0.437846 -0.664806
    1 6.028142 -0.000009 0.000000 -1.686576 -0.857679 -0.481007
    2 11.692563 0.000017 0.000007 0.000002 0.000000 -0.958335
    3 11.481678 -0.000021 -0.000026 0.026725 0.244339 0.595754
    4 0.806049 -0.348926 1.321255 -1.285557 -0.482391 -0.836327
    5 1.789782 0.000008 0.000000 -0.036204 -0.507634 0.207512
    6 1.207001 0.000000 0.000000 0.000000 0.000000 -0.099339
    7 3.859859 -0.137941 1.332452 0.220371 0.182989 -0.556456
    8 1.719431 0.000004 -0.000005 -0.003327 0.002349 -1.319039
    9 1.099663 0.000006 -0.000006 -0.001211 0.002294 -0.731158
    10 3.883686 -0.046764 0.431428 0.075188 0.100037 -0.899140
    11 1.719576 0.000013 -0.000007 -0.004128 0.003658 -1.212436
    12 1.209181 0.000002 -0.000001 -0.001162 0.002855 -0.603175
    13 3.942318 0.046774 -0.431457 -0.167073 0.021105 -1.132534
    14 1.539097 0.000000 0.000004 0.000000 0.000000 -1.178726
    15 1.196321 0.000000 0.000000 -0.000001 0.000002 -0.430800
    16 3.859699 -0.142406 -1.191988 -0.459717 -0.176936 -1.511901
    17 1.312572 -0.000002 0.000001 0.000000 0.000000 -0.913975
    18 0.729363 0.000011 0.000000 0.000000 0.000000 -0.749574
    19 -1.937500 4.609375 -5.496094 1.380186 0.205234 -3.734945
    20 6.028141 0.000005 -0.000003 0.950629 1.098214 -0.941419
    21 11.692562 0.000004 0.000010 0.000000 0.000024 -1.961513
    22 11.481714 -0.000034 0.000002 -0.812952 -0.122124 0.992712
    23 0.806011 -0.359833 -1.318336 1.281002 0.188695 -0.782321
    24 1.789787 0.000002 0.000002 -0.234630 0.004987 -0.004830
    25 1.207003 0.000006 -0.000004 0.000001 0.000000 1.203843
    26 3.859829 -0.148937 -1.331286 -0.043023 0.215207 -0.035988
    27 1.719431 -0.000004 -0.000003 0.005942 -0.002898 -1.480254
    28 1.099665 -0.000002 -0.000001 0.001977 -0.003717 -0.734284
    29 3.883659 -0.050333 -0.431045 0.106877 -0.073665 -0.993181
    30 1.719576 -0.000013 -0.000003 0.006890 -0.004008 -1.411101
    31 1.209177 -0.000002 -0.000003 0.003530 -0.002726 -1.130131
    32 3.942287 0.050325 0.431041 0.279874 0.036174 -1.245777
    33 1.539104 0.000002 -0.000004 0.000000 0.000000 -1.043759
    34 1.196321 0.000004 0.000004 0.000003 -0.000002 -1.228600
    35 3.859676 -0.132571 1.193106 0.344457 0.138292 -1.575074
    36 1.312571 -0.000002 0.000004 0.000000 0.000000 -0.580528
    37 0.729367 0.000000 -0.000005 0.000002 0.000003 -0.978353
    38 -4.003418 -12.426160 -3.996216 0.057683 0.042728 -0.000037
    39 -0.000007 -2.562422 -1.340640 1.570796 0.000000 3.141592
    40 -0.000005 -1.784786 0.363803 1.570796 0.000000 3.141592
    41 -0.000002 1.640970 -1.348884 1.221733 0.000000 3.141592
    42 -0.000004 -0.403343 -3.067159 1.570796 0.000000 3.141592
    43 0.000000 3.034649 -4.869442 1.570796 0.000000 3.141592
  time 2
    0 1.437500 3.820313 -4.980469 1.367756 0.437846 -0.664806
    1 6.028142 -0.000009 0.000000 -1.678026 -0.816594 -0.492705
    2 11.692563 0.000017 0.000007 0.000002 0.000000 -1.093012
    3 11.481678 -0.000021 -0.000026 0.042628 0.228613 0.674609
    4 0.806049 -0.348926 1.321255 -1.285557 -0.482391 -0.836327
    5 1.789782 0.000008 0.000000 -0.036204 -0.507634 0.207512
    6 1.207001 0.000000 0.000000 0.000000 0.000000 -0.099339
    7 3.859859 -0.137941 1.332452 0.220371 0.182989 -0.556456
    8 1.719431 0.000004 -0.000005 -0.003327 0.002349 -1.319039
    9 1.099663 0.000006 -0.000006 -0.001211 0.002294 -0.731158
    10 3.883686 -0.046764 0.431428 0.075188 0.100037 -0.899140
    11 1.719576 0.000013 -0.000007 -0.004128 0.003658 -1.212436
    12 1.209181 0.000002 -0.000001 -0.001162 0.002855 -0.603175
    13 3.942318 0.046774 -0.431457 -0.167073 0.021105 -1.132534
    14 1.539097 0.000000 0.000004 0.000000 0.000000 -1.178726
    15 1.196321 0.000000 0.000000 -0.000001 0.000002 -0.430800
    16 3.859699 -0.142406 -1.191988 -0.459717 -0.176936 -1.511901
    17 1.312572 -0.000002 0.000001 0.000000 0.000000 -0.913975
    18 0.729363 0.000011 0.000000 0.000000 0.000000 -0.749574
    19 -1.937500 4.609375 -5.496094 1.380186 0.205234 -3.734945
    20 6.028141 0.000005 -0.000003 0.984183 1.066091 -0.898358
    21 11.692562 0.000004 0.000010 0.000000 0.000024 -2.045373
    22 11.481714 -0.000034 0.000002 -0.807550 -0.099198 1.019907
    23 0.806011 -0.359833 -1.318336 1.281002 0.188695 -0.782321
    24 1.789787 0.000002 0.000002 -0.234630 0.004987 -0.004830
    25 1.207003 0.000006 -0.000004 0.000001 0.000000 1.203868
    26 3.859829 -0.148937 -1.331286 -0.043023 0.215207 -0.035988
    27 1.719431 -0.000004 -0.000003 0.005942 -0.002898 -1.480220
    28 1.099665 -0.000002 -0.000001 0.001977 -0.003717 -0.734284
    29 3.883659 -0.050333 -0.431045 0.106877 -0.073665 -0.993181
    30 1.719576 -0.000013 -0.000003 0.006890 -0.004008 -1.411101
    31 1.209177 -0.000002 -0.000003 0.003530 -0.002726 -1.130131
    32 3.942287 0.050325 0.431041 0.279874 0.036174 -1.245777
    33 1.539104 0.000002 -0.000004 0.000000 0.000000 -1.043759
    34 1.196321 0.000004 0.000004 0.000003 -0.000002 -1.228600
    35 3.859676 -0.132571 1.193106 0.344457 0.138292 -1.575074
    36 1.312571 -0.000002 0.000004 0.000000 0.000000 -0.580528
    37 0.729367 0.000000 -0.000005 0.000002 0.000003 -0.978353
    38 -4.003418 -11.515976 -3.785272 0.032275 0.036613 -0.000037
    39 -0.000007 -2.562422 -1.340640 1.570796 0.000000 3.141592
    40 -0.000005 -1.784786 0.363803 1.570796 0.000000 3.141592
    41 -0.000002 1.640970 -1.348884 1.221733 0.000000 3.141592
    42 -0.000004 -0.403343 -3.067159 1.570796 0.000000 3.141592
    43 0.000000 3.034649 -4.869442 1.570796 0.000000 3.141592
  time 3
    0 1.437500 3.820313 -4.980469 1.367756 0.437846 -0.664806
    1 6.028142 -0.000009 0.000000 -1.703165 -0.839280 -0.469308
    2 11.692563 0.000017 0.000007 0.000002 0.000000 -1.050443
    3 11.481678 -0.000021 -0.000026 0.101017 0.223001 0.641633
    4 0.806049 -0.348926 1.321255 -1.285557 -0.482391 -0.836327
    5 1.789782 0.000008 0.000000 -0.036204 -0.507634 0.207512
    6 1.207001 0.000000 0.000000 0.000000 0.000000 -0.099339
    7 3.859859 -0.137941 1.332452 0.220371 0.182989 -0.556456
    8 1.719431 0.000004 -0.000005 -0.003327 0.002349 -1.319039
    9 1.099663 0.000006 -0.000006 -0.001211 0.002294 -0.731158
    10 3.883686 -0.046764 0.431428 0.075188 0.100037 -0.899140
    11 1.719576 0.000013 -0.000007 -0.004128 0.003658 -1.212436
    12 1.209181 0.000002 -0.000001 -0.001162 0.002855 -0.603175
    13 3.942318 0.046774 -0.431457 -0.167073 0.021105 -1.132534
    14 1.539097 0.000000 0.000004 0.000000 0.000000 -1.178726
    15 1.196321 0.000000 0.000000 -0.000001 0.000002 -0.430800
    16 3.859699 -0.142406 -1.191988 -0.459717 -0.176936 -1.511901
    17 1.312572 -0.000002 0.000001 0.000000 0.000000 -0.913975
    18 0.729363 0.000011 0.000000 0.000000 0.000000 -0.749574
    19 -1.937500 4.609375 -5.496094 1.380186 0.205234 -3.734945
    20 6.028141 0.000005 -0.000003 0.913673 1.041928 -0.945554
    21 11.692562 0.000004 0.000010 0.000000 0.000024 -2.003751
    22 11.481714 -0.000034 0.000002 -0.786737 -0.017955 0.932503
    23 0.806011 -0.359833 -1.318336 1.281002 0.188695 -0.782321
    24 1.789787 0.000002 0.000002 -0.234630 0.004987 -0.004830
    25 1.207003 0.000006 -0.000004 0.000001 0.000000 1.203843
    26 3.859829 -0.148937 -1.331286 -0.043023 0.215207 -0.035988
    27 1.719431 -0.000004 -0.000003 0.005942 -0.002898 -1.480254
    28 1.099665 -0.000002 -0.000001 0.001977 -0.003717 -0.734284
    29 3.883659 -0.050333 -0.431045 0.106877 -0.073665 -0.993181
    30 1.719576 -0.000013 -0.000003 0.006890 -0.004008 -1.411101
    31 1.209177 -0.000002 -0.000003 0.003530 -0.002726 -1.130131
    32 3.942287 0.050325 0.431041 0.279874 0.036174 -1.245777
    33 1.539104 0.000002 -0.000004 0.000000 0.000000 -1.043759
    34 1.196321 0.000004 0.000004 0.000003 -0.000002 -1.228600
    35 3.859676 -0.132571 1.193106 0.344457 0.138292 -1.575074
    36 1.312571 -0.000002 0.000004 0.000000 0.000000 -0.580528
    37 0.729367 0.000000 -0.000005 0.000002 0.000003 -0.978353
    38 -4.003418 -11.691763 -3.961058 -0.018643 -0.003648 -0.000037
    39 -0.000007 -2.562422 -1.340640 1.570796 0.000000 3.141592
    40 -0.000005 -1.784786 0.363803 1.570796 0.000000 3.141592
    41 -0.000002 1.640970 -1.348884 1.221733 0.000000 3.141592
    42 -0.000004 -0.403343 -3.067159 1.570796 0.000000 3.141592
    43 0.000000 3.034649 -4.869442 1.570796 0.000000 3.141592
  time 4
    0 1.437500 3.820313 -4.980469 1.367756 0.437846 -0.664806
    1 6.028142 -0.000009 0.000000 -1.727889 -0.876846 -0.443609
    2 11.692563 0.000017 0.000007 0.000002 0.000000 -0.954298
    3 11.481678 -0.000021 -0.000026 0.135435 0.233485 0.592062
    4 0.806049 -0.348926 1.321255 -1.285557 -0.482391 -0.836327
    5 1.789782 0.000008 0.000000 -0.036204 -0.507634 0.207512
    6 1.207001 0.000000 0.000000 0.000000 0.000000 -0.099339
    7 3.859859 -0.137941 1.332452 0.220371 0.182989 -0.556456
    8 1.719431 0.000004 -0.000005 -0.003327 0.002349 -1.319039
    9 1.099663 0.000006 -0.000006 -0.001211 0.002294 -0.731158
    10 3.883686 -0.046764 0.431428 0.075188 0.100037 -0.899140
    11 1.719576 0.000013 -0.000007 -0.004128 0.003658 -1.212436
    12 1.209181 0.000002 -0.000001 -0.001162 0.002855 -0.603175
    13 3.942318 0.046774 -0.431457 -0.167073 0.021105 -1.132534
    14 1.539097 0.000000 0.000004 0.000000 0.000000 -1.178726
    15 1.196321 0.000000 0.000000 -0.000001 0.000002 -0.430800
    16 3.859699 -0.142406 -1.191988 -0.459717 -0.176936 -1.511901
    17 1.312572 -0.000002 0.000001 0.000000 0.000000 -0.913975
    18 0.729363 0.000011 0.000000 0.000000 0.000000 -0.749574
    19 -1.937500 4.609375 -5.496094 1.380186 0.205234 -3.734945
    20 6.028141 0.000005 -0.000003 0.857945 1.054802 -0.996843
    21 11.692562 0.000004 0.000010 0.000000 0.000024 -1.935776
    22 11.481714 -0.000034 0.000002 -0.763100 0.009084 0.878734
    23 0.806011 -0.359833 -1.318336 1.281002 0.188695 -0.782321
    24 1.789787 0.000002 0.000002 -0.234630 0.004987 -0.004830
    25 1.207003 0.000006 -0.000004 0.000001 0.000000 1.203843
    26 3.859829 -0.148937 -1.331286 -0.043023 0.215207 -0.035988
    27 1.719431 -0.000004 -0.000003 0.005942 -0.002898 -1.480220
    28 1.099665 -0.000002 -0.000001 0.001977 -0.003717 -0.734284
    29 3.883659 -0.050333 -0.431045 0.106877 -0.073665 -0.993181
    30 1.719576 -0.000013 -0.000003 0.006890 -0.004008 -1.411101
    31 1.209177 -0.000002 -0.000003 0.003530 -0.002726 -1.130131
    32 3.942287 0.050325 0.431041 0.279874 0.036174 -1.245777
    33 1.539104 0.000002 -0.000004 0.000000 0.000000 -1.043759
    34 1.196321 0.000004 0.000004 0.000003 -0.000002 -1.228600
    35 3.859676 -0.132571 1.193106 0.344457 0.138292 -1.575074
    36 1.312571 -0.000002 0.000004 0.000000 0.000000 -0.580528
    37 0.729367 0.000000 -0.000005 0.000002 0.000003 -0.978353
    38 -4.003418 -12.265999 -4.089969 -0.030902 -0.034172 -0.000037
    39 -0.000007 -2.562422 -1.340640 1.570796 0.000000 3.141592
    40 -0.000005 -1.784786 0.363803 1.570796 0.000000 3.141592
    41 -0.000002 1.640970 -1.348884 1.221733 0.000000 3.141592
    42 -0.000004 -0.403343 -3.067159 1.570796 0.000000 3.141592
    43 0.000000 3.034649 -4.869442 1.570796 0.000000 3.141592
  time 5
    0 1.437500 3.820313 -4.980469 1.367756 0.437846 -0.664806
    1 6.028142 -0.000009 0.000000 -1.732201 -0.891444 -0.437794
    2 11.692563 0.000017 0.000007 0.000002 0.000000 -0.907767
    3 11.481678 -0.000021 -0.000026 0.133207 0.238064 0.566257
    4 0.806049 -0.348926 1.321255 -1.285557 -0.482391 -0.836327
    5 1.789782 0.000008 0.000000 -0.036204 -0.507634 0.207512
    6 1.207001 0.000000 0.000000 0.000000 0.000000 -0.099339
    7 3.859859 -0.137941 1.332452 0.220371 0.182989 -0.556456
    8 1.719431 0.000004 -0.000005 -0.003327 0.002349 -1.319039
    9 1.099663 0.000006 -0.000006 -0.001211 0.002294 -0.731158
    10 3.883686 -0.046764 0.431428 0.075188 0.100037 -0.899140
    11 1.719576 0.000013 -0.000007 -0.004128 0.003658 -1.212436
    12 1.209181 0.000002 -0.000001 -0.001162 0.002855 -0.603175
    13 3.942318 0.046774 -0.431457 -0.167073 0.021105 -1.132534
    14 1.539097 0.000000 0.000004 0.000000 0.000000 -1.178726
    15 1.196321 0.000000 0.000000 -0.000001 0.000002 -0.430800
    16 3.859699 -0.142406 -1.191988 -0.459717 -0.176936 -1.511901
    17 1.312572 -0.000002 0.000001 0.000000 0.000000 -0.913975
    18 0.729363 0.000011 0.000000 0.000000 0.000000 -0.749574
    19 -1.937500 4.609375 -5.496094 1.380186 0.205234 -3.734945
    20 6.028141 0.000005 -0.000003 0.844922 1.064264 -1.013129
    21 11.692562 0.000004 0.000010 0.000000 0.000024 -1.908438
    22 11.481714 -0.000034 0.000002 -0.761514 0.002660 0.868307
    23 0.806011 -0.359833 -1.318336 1.281002 0.188695 -0.782321
    24 1.789787 0.000002 0.000002 -0.234630 0.004987 -0.004830
    25 1.207003 0.000006 -0.000004 0.000001 0.000000 1.203843
    26 3.859829 -0.148937 -1.331286 -0.043023 0.215207 -0.035988
    27 1.719431 -0.000004 -0.000003 0.005942 -0.002898 -1.480254
    28 1.099665 -0.000002 -0.000001 0.001977 -0.003717 -0.734284
    29 3.883659 -0.050333 -0.431045 0.106877 -0.073665 -0.993181
    30 1.719576 -0.000013 -0.000003 0.006890 -0.004008 -1.411101
    31 1.209177 -0.000002 -0.000003 0.003530 -0.002726 -1.130131
    32 3.942287 0.050325 0.431041 0.279874 0.036174 -1.245777
    33 1.539104 0.000002 -0.000004 0.000000 0.000000 -1.043759
    34 1.196321 0.000004 0.000004 0.000003 -0.000002 -1.228600
    35 3.859676 -0.132571 1.193106 0.344457 0.138292 -1.575074
    36 1.312571 -0.000002 0.000004 0.000000 0.000000 -0.580528
    37 0.729367 0.000000 -0.000005 0.000002 0.000003 -0.978353
    38 -4.003418 -12.555071 -4.164190 -0.023678 -0.035012 -0.000037
    39 -0.000007 -2.562422 -1.340640 1.570796 0.000000 3.141592
    40 -0.000005 -1.784786 0.363803 1.570796 0.000000 3.141592
    41 -0.000002 1.640970 -1.348884 1.221733 0.000000 3.141592
    42 -0.000004 -0.403343 -3.067159 1.570796 0.000000 3.141592
    43 0.000000 3.034649 -4.869442 1.570796 0.000000 3.141592
  time 6
    0 1.437500 3.820313 -4.980469 1.367756 0.437846 -0.664806
    1 6.028142 -0.000009 0.000000 -1.729838 -0.900260 -0.438638
    2 11.692563 0.000017 0.000007 0.000002 0.000000 -0.874814
    3 11.481678 -0.000021 -0.000026 0.114615 0.242098 0.547711
    4 0.806049 -0.348926 1.321255 -1.285557 -0.482391 -0.836327
    5 1.789782 0.000008 0.000000 -0.036204 -0.507634 0.207512
    6 1.207001 0.000000 0.000000 0.000000 0.000000 -0.099339
    7 3.859859 -0.137941 1.332452 0.220371 0.182989 -0.556456
    8 1.719431 0.000004 -0.000005 -0.003327 0.002349 -1.319039
    9 1.099663 0.000006 -0.000006 -0.001211 0.002294 -0.731158
    10 3.883686 -0.046764 0.431428 0.075188 0.100037 -0.899140
    11 1.719576 0.000013 -0.000007 -0.004128 0.003658 -1.212436
    12 1.209181 0.000002 -0.000001 -0.001162 0.002855 -0.603175
    13 3.942318 0.046774 -0.431457 -0.167073 0.021105 -1.132534
    14 1.539097 0.000000 0.000004 0.000000 0.000000 -1.178726
    15 1.196321 0.000000 0.000000 -0.000001 0.000002 -0.430800
    16 3.859699 -0.142406 -1.191988 -0.459717 -0.176936 -1.511901
    17 1.312572 -0.000002 0.000001 0.000000 0.000000 -0.913975
    18 0.729363 0.000011 0.000000 0.000000 0.000000 -0.749574
    19 -1.937500 4.609375 -5.496094 1.380186 0.205234 -3.734945
    20 6.028141 0.000005 -0.000003 0.850260 1.076772 -1.015516
    21 11.692562 0.000004 0.000010 0.000000 0.000024 -1.894215
    22 11.481714 -0.000034 0.000002 -0.768947 -0.021027 0.876904
    23 0.806011 -0.359833 -1.318336 1.281002 0.188695 -0.782321
    24 1.789787 0.000002 0.000002 -0.234630 0.004987 -0.004830
    25 1.207003 0.000006 -0.000004 0.000001 0.000000 1.203843
    26 3.859829 -0.148937 -1.331286 -0.043023 0.215207 -0.035988
    27 1.719431 -0.000004 -0.000003 0.005942 -0.002898 -1.480254
    28 1.099665 -0.000002 -0.000001 0.001977 -0.003717 -0.734284
    29 3.883659 -0.050333 -0.431045 0.106877 -0.073665 -0.993181
    30 1.719576 -0.000013 -0.000003 0.006890 -0.004008 -1.411101
    31 1.209177 -0.000002 -0.000003 0.003530 -0.002726 -1.130131
    32 3.942287 0.050325 0.431041 0.279874 0.036174 -1.245777
    33 1.539104 0.000002 -0.000004 0.000000 0.000000 -1.043759
    34 1.196321 0.000004 0.000004 0.000003 -0.000002 -1.228624
    35 3.859676 -0.132571 1.193106 0.344457 0.138292 -1.575074
    36 1.312571 -0.000002 0.000004 0.000000 0.000000 -0.580528
    37 0.729367 0.000000 -0.000005 0.000002 0.000003 -0.978353
    38 -4.003418 -12.769921 -4.191534 -0.006867 -0.022571 -0.000037
    39 -0.000007 -2.562422 -1.340640 1.570796 0.000000 3.141592
    40 -0.000005 -1.784786 0.363803 1.570796 0.000000 3.141592
    41 -0.000002 1.640970 -1.348884 1.221733 0.000000 3.141592
    42 -0.000004 -0.403343 -3.067159 1.570796 0.000000 3.141592
    43 0.000000 3.034649 -4.869442 1.570796 0.000000 3.141592
  time 7
    0 1.437500 3.820313 -4.980469 1.367756 0.437846 -0.664806
    1 6.028142 -0.000009 0.000000 -1.726038 -0.906245 -0.441283
    2 11.692563 0.000017 0.000007 0.000002 0.000000 -0.852282
    3 11.481678 -0.000021 -0.000026 0.093565 0.245372 0.534681
    4 0.806049 -0.348926 1.321255 -1.285557 -0.482391 -0.836327
    5 1.789782 0.000008 0.000000 -0.036204 -0.507634 0.207512
    6 1.207001 0.000000 0.000000 0.000000 0.000000 -0.099339
    7 3.859859 -0.137941 1.332452 0.220371 0.182989 -0.556456
    8 1.719431 0.000004 -0.000005 -0.003327 0.002349 -1.319039
    9 1.099663 0.000006 -0.000006 -0.001211 0.002294 -0.731158
    10 3.883686 -0.046764 0.431428 0.075188 0.100037 -0.899140
    11 1.719576 0.000013 -0.000007 -0.004128 0.003658 -1.212436
    12 1.209181 0.000002 -0.000001 -0.001162 0.002855 -0.603175
    13 3.942318 0.046774 -0.431457 -0.167073 0.021105 -1.132534
    14 1.539097 0.000000 0.000004 0.000000 0.000000 -1.178726
    15 1.196321 0.000000 0.000000 -0.000001 0.000002 -0.430800
    16 3.859699 -0.142406 -1.191988 -0.459717 -0.176936 -1.511901
    17 1.312572 -0.000002 0.000001 0.000000 0.000000 -0.913975
    18 0.729363 0.000011 0.000000 0.000000 0.000000 -0.749574
    19 -1.937500 4.609375 -5.496094 1.380186 0.205234 -3.734945
    20 6.028141 0.000005 -0.000003 0.861113 1.088833 -1.012702
    21 11.692562 0.000004 0.000010 0.000000 0.000024 -1.886765
    22 11.481714 -0.000034 0.000002 -0.778908 -0.046009 0.890599
    23 0.806011 -0.359833 -1.318336 1.281002 0.188695 -0.782321
    24 1.789787 0.000002 0.000002 -0.234630 0.004987 -0.004830
    25 1.207003 0.000006 -0.000004 0.000001 0.000000 1.203843
    26 3.859829 -0.148937 -1.331286 -0.043023 0.215207 -0.035988
    27 1.719431 -0.000004 -0.000003 0.005942 -0.002898 -1.480254
    28 1.099665 -0.000002 -0.000001 0.001977 -0.003717 -0.734284
    29 3.883659 -0.050333 -0.431045 0.106877 -0.073665 -0.993181
    30 1.719576 -0.000013 -0.000003 0.006890 -0.004008 -1.411101
    31 1.209177 -0.000002 -0.000003 0.003530 -0.002726 -1.130131
    32 3.942287 0.050325 0.431041 0.279874 0.036174 -1.245777
    33 1.539104 0.000002 -0.000004 0.000000 0.000000 -1.043759
    34 1.196321 0.000004 0.000004 0.000003 -0.000002 -1.228600
    35 3.859676 -0.132571 1.193106 0.344457 0.138292 -1.575074
    36 1.312571 -0.000002 0.000004 0.000000 0.000000 -0.580528
    37 0.729367 0.000000 -0.000005 0.000002 0.000003 -0.978353
    38 -4.003418 -12.918363 -4.183721 0.009563 -0.007401 -0.000037
    39 -0.000007 -2.562422 -1.340640 1.570796 0.000000 3.141592
    40 -0.000005 -1.784786 0.363803 1.570796 0.000000 3.141592
    41 -0.000002 1.640970 -1.348884 1.221733 0.000000 3.141592
    42 -0.000004 -0.403343 -3.067159 1.570796 0.000000 3.141592
    43 0.000000 3.034649 -4.869442 1.570796 0.000000 3.141592
  time 8
    0 1.437500 3.820313 -4.980469 1.367756 0.437846 -0.664806
    1 6.028142 -0.000009 0.000000 -1.726501 -0.912755 -0.440280
    2 11.692563 0.000017 0.000007 0.000002 0.000000 -0.835328
    3 11.481678 -0.000021 -0.000026 0.084115 0.247145 0.524792
    4 0.806049 -0.348926 1.321255 -1.285557 -0.482391 -0.836327
    5 1.789782 0.000008 0.000000 -0.036204 -0.507634 0.207512
    6 1.207001 0.000000 0.000000 0.000000 0.000000 -0.099339
    7 3.859859 -0.137941 1.332452 0.220371 0.182989 -0.556456
    8 1.719431 0.000004 -0.000005 -0.003327 0.002349 -1.319039
    9 1.099663 0.000006 -0.000006 -0.001211 0.002294 -0.731158
    10 3.883686 -0.046764 0.431428 0.075188 0.100037 -0.899140
    11 1.719576 0.000013 -0.000007 -0.004128 0.003658 -1.212436
    12 1.209181 0.000002 -0.000001 -0.001162 0.002855 -0.603175
    13 3.942318 0.046774 -0.431457 -0.167073 0.021105 -1.132534
    14 1.539097 0.000000 0.000004 0.000000 0.000000 -1.178726
    15 1.196321 0.000000 0.000000 -0.000001 0.000002 -0.430800
    16 3.859699 -0.142406 -1.191988 -0.459717 -0.176936 -1.511901
    17 1.312572 -0.000002 0.000001 0.000000 0.000000 -0.913975
    18 0.729363 0.000011 0.000000 0.000000 0.000000 -0.749574
    19 -1.937500 4.609375 -5.496094 1.380186 0.205234 -3.734945
    20 6.028141 0.000005 -0.000003 0.864632 1.096224 -1.013470
    21 11.692562 0.000004 0.000010 0.000000 0.000024 -1.879684
    22 11.481714 -0.000034 0.000002 -0.784111 -0.057002 0.894620
    23 0.806011 -0.359833 -1.318336 1.281002 0.188695 -0.782321
    24 1.789787 0.000002 0.000002 -0.234630 0.004987 -0.004830
    25 1.207003 0.000006 -0.000004 0.000001 0.000000 1.203843
    26 3.859829 -0.148937 -1.331286 -0.043023 0.215207 -0.035988
    27 1.719431 -0.000004 -0.000003 0.005942 -0.002898 -1.480254
    28 1.099665 -0.000002 -0.000001 0.001977 -0.003717 -0.734284
    29 3.883659 -0.050333 -0.431045 0.106877 -0.073665 -0.993181
    30 1.719576 -0.000013 -0.000003 0.006890 -0.004008 -1.411101
    31 1.209177 -0.000002 -0.000003 0.003530 -0.002726 -1.130131
    32 3.942287 0.050325 0.431041 0.279874 0.036174 -1.245777
    33 1.539104 0.000002 -0.000004 0.000000 0.000000 -1.043759
    34 1.196321 0.000004 0.000004 0.000003 -0.000002 -1.228600
    35 3.859676 -0.132571 1.193106 0.344457 0.138292 -1.575074
    36 1.312571 -0.000002 0.000004 0.000000 0.000000 -0.580528
    37 0.729367 0.000000 -0.000005 0.000002 0.000003 -0.978353
    38 -4.003418 -13.016022 -4.164190 0.015820 0.000000 -0.000037
    39 -0.000007 -2.562422 -1.340640 1.570796 0.000000 3.141592
    40 -0.000005 -1.784786 0.363803 1.570796 0.000000 3.141592
    41 -0.000002 1.640970 -1.348884 1.221733 0.000000 3.141592
    42 -0.000004 -0.403343 -3.067159 1.570796 0.000000 3.141592
    43 0.000000 3.034649 -4.869442 1.570796 0.000000 3.141592
  time 9
    0 1.437500 3.820313 -4.980469 1.367756 0.437846 -0.664806
    1 6.028142 -0.000009 0.000000 -1.732323 -0.921166 -0.434373
    2 11.692563 0.000017 0.000007 0.000002 0.000000 -0.821310
    3 11.481678 -0.000021 -0.000026 0.086496 0.246580 0.515243
    4 0.806049 -0.348926 1.321255 -1.285557 -0.482391 -0.836327
    5 1.789782 0.000008 0.000000 -0.036204 -0.507634 0.207512
    6 1.207001 0.000000 0.000000 0.000000 0.000000 -0.099339
    7 3.859859 -0.137941 1.332452 0.220371 0.182989 -0.556456
    8 1.719431 0.000004 -0.000005 -0.003327 0.002349 -1.319039
    9 1.099663 0.000006 -0.000006 -0.001211 0.002294 -0.731158
    10 3.883686 -0.046764 0.431428 0.075188 0.100037 -0.899140
    11 1.719576 0.000013 -0.000007 -0.004128 0.003658 -1.212436
    12 1.209181 0.000002 -0.000001 -0.001162 0.002855 -0.603175
    13 3.942318 0.046774 -0.431457 -0.167073 0.021105 -1.132534
    14 1.539097 0.000000 0.000004 0.000000 0.000000 -1.178726
    15 1.196321 0.000000 0.000000 -0.000001 0.000002 -0.430800
    16 3.859699 -0.142406 -1.191988 -0.459717 -0.176936 -1.511901
    17 1.312572 -0.000002 0.000001 0.000000 0.000000 -0.913975
    18 0.729363 0.000011 0.000000 0.000000 0.000000 -0.749574
    19 -1.937500 4.609375 -5.496094 1.380186 0.205234 -3.734945
    20 6.028141 0.000005 -0.000003 0.859705 1.098133 -1.018884
    21 11.692562 0.000004 0.000010 0.000000 0.000024 -1.871495
    22 11.481714 -0.000034 0.000002 -0.785201 -0.052102 0.885468
    23 0.806011 -0.359833 -1.318336 1.281002 0.188695 -0.782321
    24 1.789787 0.000002 0.000002 -0.234630 0.004987 -0.004830
    25 1.207003 0.000006 -0.000004 0.000001 0.000000 1.203843
    26 3.859829 -0.148937 -1.331286 -0.043551 0.215099 -0.038455
    27 1.719431 -0.000004 -0.000003 0.005882 -0.003018 -1.460853
    28 1.099665 -0.000002 -0.000001 0.001953 -0.003741 -0.727540
    29 3.883659 -0.050333 -0.431045 0.106877 -0.073665 -0.993181
    30 1.719576 -0.000013 -0.000003 0.006890 -0.004008 -1.411101
    31 1.209177 -0.000002 -0.000003 0.003530 -0.002726 -1.130131
    32 3.942287 0.050325 0.431041 0.279874 0.036174 -1.245777
    33 1.539104 0.000002 -0.000004 0.000000 0.000000 -1.043759
    34 1.196321 0.000004 0.000004 0.000003 -0.000002 -1.228600
    35 3.859676 -0.132571 1.193106 0.344457 0.138292 -1.575074
    36 1.312571 -0.000002 0.000004 0.000000 0.000000 -0.580528
    37 0.729367 0.000000 -0.000005 0.000002 0.000003 -0.978353
    38 -4.003418 -13.070711 -4.140751 0.009716 0.000000 -0.000037
    39 -0.000007 -2.562422 -1.340640 1.570796 0.000000 3.141592
    40 -0.000005 -1.784786 0.363803 1.570796 0.000000 3.141592
    41 -0.000002 1.640970 -1.348884 1.241076 0.000000 3.141592
    42 -0.000004 -0.403343 -3.067159 1.570796 0.000000 3.141592
    43 0.000000 3.034649 -4.869442 1.570796 0.000000 3.141592
  time 10
    0 1.437500 3.820313 -4.980469 1.367756 0.437846 -0.664806
    1 6.028142 -0.000009 0.000000 -1.738681 -0.928849 -0.428148
    2 11.692563 0.000017 0.000007 0.000002 0.000000 -0.811328
    3 11.481678 -0.000021 -0.000026 0.090261 0.244534 0.506500
    4 0.806049 -0.348926 1.321255 -1.285557 -0.482391 -0.836327
    5 1.789782 0.000008 0.000000 -0.036204 -0.507634 0.207512
    6 1.207001 0.000000 0.000000 0.000000 0.000000 -0.099339
    7 3.859859 -0.137941 1.332452 0.220371 0.182989 -0.556456
    8 1.719431 0.000004 -0.000005 -0.003327 0.002349 -1.319039
    9 1.099663 0.000006 -0.000006 -0.001211 0.002294 -0.731158
    10 3.883686 -0.046764 0.431428 0.075188 0.100037 -0.899140
    11 1.719576 0.000013 -0.000007 -0.004128 0.003658 -1.212436
    12 1.209181 0.000002 -0.000001 -0.001162 0.002855 -0.603175
    13 3.942318 0.046774 -0.431457 -0.167073 0.021105 -1.132534
    14 1.539097 0.000000 0.000004 0.000000 0.000000 -1.178726
    15 1.196321 0.000000 0.000000 -0.000001 0.000002 -0.430800
    16 3.859699 -0.142406 -1.191988 -0.459717 -0.176936 -1.511901
    17 1.312572 -0.000002 0.000001 0.000000 0.000000 -0.913975
    18 0.729363 0.000011 0.000000 0.000000 0.000000 -0.749574
    19 -1.937500 4.609375 -5.496094 1.380186 0.205234 -3.734945
    20 6.028141 0.000005 -0.000003 0.854895 1.097767 -1.023361
    21 11.692562 0.000004 0.000010 0.000000 0.000024 -1.865338
    22 11.481714 -0.000034 0.000002 -0.787332 -0.043318 0.873897
    23 0.806011 -0.359833 -1.318336 1.281002 0.188695 -0.782321
    24 1.789787 0.000002 0.000002 -0.234630 0.004987 -0.004830
    25 1.207003 0.000006 -0.000004 0.000001 0.000000 1.203843
    26 3.859829 -0.148937 -1.331286 -0.044932 0.214835 -0.044809
    27 1.719431 -0.000004 -0.000003 0.005727 -0.003305 -1.410867
    28 1.099665 -0.000002 -0.000001 0.001882 -0.003765 -0.710170
    29 3.883659 -0.050333 -0.431045 0.106877 -0.073665 -0.993181
    30 1.719576 -0.000013 -0.000003 0.006890 -0.004008 -1.411101
    31 1.209177 -0.000002 -0.000003 0.003530 -0.002726 -1.130131
    32 3.942287 0.050325 0.431041 0.279874 0.036174 -1.245777
    33 1.539104 0.000002 -0.000004 0.000000 0.000000 -1.043759
    34 1.196321 0.000004 0.000004 0.000003 -0.000002 -1.228600
    35 3.859676 -0.132571 1.193106 0.344457 0.138292 -1.575074
    36 1.312571 -0.000002 0.000004 0.000000 0.000000 -0.580528
    37 0.729367 0.000000 -0.000005 0.000002 0.000003 -0.978353
    38 -4.003418 -13.090243 -4.109500 0.000000 0.000000 -0.000037
    39 -0.000007 -2.562422 -1.340640 1.570796 0.000000 3.141592
    40 -0.000005 -1.784786 0.363803 1.570796 0.000000 3.141592
    41 -0.000002 1.640970 -1.348884 1.290944 0.000000 3.141592
    42 -0.000004 -0.403343 -3.067159 1.570796 0.000000 3.141592
    43 0.000000 3.034649 -4.869442 1.570796 0.000000 3.141592
  time 11
    0 1.437500 3.820313 -4.980469 1.367756 0.437846 -0.664806
    1 6.028142 -0.000009 0.000000 -1.742968 -0.932974 -0.424066
    2 11.692563 0.000017 0.000007 0.000002 0.000000 -0.808319
    3 11.481678 -0.000021 -0.000026 0.093027 0.243014 0.502893
    4 0.806049 -0.348926 1.321255 -1.285557 -0.482391 -0.836327
    5 1.789782 0.000008 0.000000 -0.036204 -0.507634 0.207512
    6 1.207001 0.000000 0.000000 0.000000 0.000000 -0.099339
    7 3.859859 -0.137941 1.332452 0.220371 0.182989 -0.556456
    8 1.719431 0.000004 -0.000005 -0.003327 0.002349 -1.319039
    9 1.099663 0.000006 -0.000006 -0.001211 0.002294 -0.731158
    10 3.883686 -0.046764 0.431428 0.075188 0.100037 -0.899140
    11 1.719576 0.000013 -0.000007 -0.004128 0.003658 -1.212436
    12 1.209181 0.000002 -0.000001 -0.001162 0.002855 -0.603175
    13 3.942318 0.046774 -0.431457 -0.167073 0.021105 -1.132534
    14 1.539097 0.000000 0.000004 0.000000 0.000000 -1.178726
    15 1.196321 0.000000 0.000000 -0.000001 0.000002 -0.430800
    16 3.859699 -0.142406 -1.191988 -0.459717 -0.176936 -1.511901
    17 1.312572 -0.000002 0.000001 0.000000 0.000000 -0.913975
    18 0.729363 0.000011 0.000000 0.000000 0.000000 -0.749574
    19 -1.937500 4.609375 -5.496094 1.380186 0.205234 -3.734945
    20 6.028141 0.000005 -0.000003 0.852900 1.097321 -1.025066
    21 11.692562 0.000004 0.000010 0.000000 0.000024 -1.863060
    22 11.481714 -0.000034 0.000002 -0.788670 -0.037326 0.867098
    23 0.806011 -0.359833 -1.318336 1.281002 0.188695 -0.782321
    24 1.789787 0.000002 0.000002 -0.234630 0.004987 -0.004830
    25 1.207003 0.000006 -0.000004 0.000001 0.000000 1.203843
    26 3.859829 -0.148937 -1.331286 -0.046802 0.214440 -0.053476
    27 1.719431 -0.000004 -0.000003 0.005487 -0.003689 -1.342537
    28 1.099665 -0.000002 -0.000001 0.001798 -0.003813 -0.686402
    29 3.883659 -0.050333 -0.431045 0.106877 -0.073665 -0.993181
    30 1.719576 -0.000013 -0.000003 0.006890 -0.004008 -1.411101
    31 1.209177 -0.000002 -0.000003 0.003530 -0.002726 -1.130131
    32 3.942287 0.050325 0.431041 0.279874 0.036174 -1.245777
    33 1.539104 0.000002 -0.000004 0.000000 0.000000 -1.043759
    34 1.196321 0.000004 0.000004 0.000003 -0.000002 -1.228600
    35 3.859676 -0.132571 1.193106 0.344457 0.138292 -1.575074
    36 1.312571 -0.000002 0.000004 0.000000 0.000000 -0.580528
    37 0.729367 0.000000 -0.000005 0.000002 0.000003 -0.978375
    38 -4.003418 -13.082430 -4.078249 -0.007020 0.000000 -0.000037
    39 -0.000007 -2.562422 -1.340640 1.570796 0.000000 3.141592
    40 -0.000005 -1.784786 0.363803 1.570796 0.000000 3.141592
    41 -0.000002 1.640970 -1.348884 1.359124 0.000000 3.141592
    42 -0.000004 -0.403343 -3.067159 1.570796 0.000000 3.141592
    43 0.000000 3.034649 -4.869442 1.570796 0.000000 3.141592
  time 12
    0 1.437500 3.820313 -4.980469 1.367756 0.437846 -0.664806
    1 6.028142 -0.000009 0.000000 -1.743869 -0.932489 -0.423428
    2 11.692563 0.000017 0.000007 0.000002 0.000000 -0.812503
    3 11.481678 -0.000021 -0.000026 0.093565 0.243131 0.506033
    4 0.806049 -0.348926 1.321255 -1.285557 -0.482391 -0.836327
    5 1.789782 0.000008 0.000000 -0.036204 -0.507634 0.207512
    6 1.207001 0.000000 0.000000 0.000000 0.000000 -0.099339
    7 3.859859 -0.137941 1.332452 0.220371 0.182989 -0.556456
    8 1.719431 0.000004 -0.000005 -0.003327 0.002349 -1.319039
    9 1.099663 0.000006 -0.000006 -0.001211 0.002294 -0.731158
    10 3.883686 -0.046764 0.431428 0.075188 0.100037 -0.899140
    11 1.719576 0.000013 -0.000007 -0.004128 0.003658 -1.212436
    12 1.209181 0.000002 -0.000001 -0.001162 0.002855 -0.603175
    13 3.942318 0.046774 -0.431457 -0.167073 0.021105 -1.132534
    14 1.539097 0.000000 0.000004 0.000000 0.000000 -1.178726
    15 1.196321 0.000000 0.000000 -0.000001 0.000002 -0.430800
    16 3.859699 -0.142406 -1.191988 -0.459717 -0.176936 -1.511901
    17 1.312572 -0.000002 0.000001 0.000000 0.000000 -0.913975
    18 0.729363 0.000011 0.000000 0.000000 0.000000 -0.749574
    19 -1.937500 4.609375 -5.496094 1.380186 0.205234 -3.734945
    20 6.028141 0.000005 -0.000003 0.855012 1.098092 -1.023361
    21 11.692562 0.000004 0.000010 0.000000 0.000024 -1.865277
    22 11.481714 -0.000034 0.000002 -0.788174 -0.037707 0.868732
    23 0.806011 -0.359833 -1.318336 1.281002 0.188695 -0.782321
    24 1.789787 0.000002 0.000002 -0.234630 0.004987 -0.004830
    25 1.207003 0.000006 -0.000004 0.000001 0.000000 1.203843
    26 3.859829 -0.148937 -1.331286 -0.048815 0.213996 -0.062946
    27 1.719431 -0.000004 -0.000003 0.005199 -0.004084 -1.268070
    28 1.099665 -0.000002 -0.000001 0.001702 -0.003860 -0.660512
    29 3.883659 -0.050333 -0.431045 0.106877 -0.073665 -0.993181
    30 1.719576 -0.000013 -0.000003 0.006890 -0.004008 -1.411101
    31 1.209177 -0.000002 -0.000003 0.003530 -0.002726 -1.130131
    32 3.942287 0.050325 0.431041 0.279874 0.036174 -1.245777
    33 1.539104 0.000002 -0.000004 0.000000 0.000000 -1.043759
    34 1.196321 0.000004 0.000004 0.000003 -0.000002 -1.228600
    35 3.859676 -0.132571 1.193106 0.344457 0.138292 -1.575074
    36 1.312571 -0.000002 0.000004 0.000000 0.000000 -0.580528
    37 0.729367 0.000000 -0.000005 0.000002 0.000003 -0.978353
    38 -4.003418 -13.058992 -4.046999 -0.007935 0.000000 -0.000037
    39 -0.000007 -2.562422 -1.340640 1.570796 0.000000 3.141592
    40 -0.000005 -1.784786 0.363803 1.570796 0.000000 3.141592
    41 -0.000002 1.640970 -1.348884 1.433417 0.000000 3.141592
    42 -0.000004 -0.403343 -3.067159 1.570796 0.000000 3.141592
    43 0.000000 3.034649 -4.869442 1.570796 0.000000 3.141592
  time 13
    0 1.437500 3.820313 -4.980469 1.367756 0.437846 -0.664806
    1 6.028142 -0.000009 0.000000 -1.742846 -0.929941 -0.424636
    2 11.692563 0.000017 0.000007 0.000002 0.000000 -0.819255
    3 11.481678 -0.000021 -0.000026 0.092719 0.244144 0.512145
    4 0.806049 -0.348926 1.321255 -1.285557 -0.482391 -0.836327
    5 1.789782 0.000008 0.000000 -0.036204 -0.507634 0.207512
    6 1.207001 0.000000 0.000000 0.000000 0.000000 -0.099339
    7 3.859859 -0.137941 1.332452 0.220371 0.182989 -0.556456
    8 1.719431 0.000004 -0.000005 -0.003327 0.002349 -1.319039
    9 1.099663 0.000006 -0.000006 -0.001211 0.002306 -0.731158
    10 3.883686 -0.046764 0.431428 0.075188 0.100037 -0.899140
    11 1.719576 0.000013 -0.000007 -0.004128 0.003658 -1.212436
    12 1.209181 0.000002 -0.000001 -0.001162 0.002855 -0.603175
    13 3.942318 0.046774 -0.431457 -0.167073 0.021105 -1.132534
    14 1.539097 0.000000 0.000004 0.000000 0.000000 -1.178726
    15 1.196321 0.000000 0.000000 -0.000001 0.000002 -0.430800
    16 3.859699 -0.142406 -1.191988 -0.459717 -0.176936 -1.511901
    17 1.312572 -0.000002 0.000001 0.000000 0.000000 -0.913975
    18 0.729363 0.000011 0.000000 0.000000 0.000000 -0.749574
    19 -1.937500 4.609375 -5.496094 1.380186 0.205234 -3.734945
    20 6.028141 0.000005 -0.000003 0.859118 1.099432 -1.019950
    21 11.692562 0.000004 0.000010 0.000000 0.000024 -1.869710
    22 11.481714 -0.000034 0.000002 -0.786737 -0.041668 0.874877
    23 0.806011 -0.359833 -1.318336 1.281002 0.188695 -0.782321
    24 1.789787 0.000002 0.000002 -0.234630 0.004987 -0.004830
    25 1.207003 0.000006 -0.000004 0.000001 0.000000 1.203843
    26 3.859829 -0.148937 -1.331286 -0.050634 0.213577 -0.071644
    27 1.719431 -0.000004 -0.000003 0.004900 -0.004432 -1.199705
    28 1.099665 -0.000002 -0.000001 0.001606 -0.003896 -0.636744
    29 3.883659 -0.050333 -0.431045 0.106877 -0.073665 -0.993181
    30 1.719576 -0.000013 -0.000003 0.006890 -0.004008 -1.411101
    31 1.209177 -0.000002 -0.000003 0.003530 -0.002726 -1.130131
    32 3.942287 0.050325 0.431041 0.279874 0.036174 -1.245777
    33 1.539104 0.000002 -0.000004 0.000000 0.000000 -1.043759
    34 1.196321 0.000004 0.000004 0.000003 -0.000002 -1.228600
    35 3.859676 -0.132571 1.193106 0.344457 0.138292 -1.575074
    36 1.312571 -0.000002 0.000004 0.000000 0.000000 -0.580528
    37 0.729367 0.000000 -0.000005 0.000002 0.000003 -0.978353
    38 -4.003418 -13.031648 -4.023560 -0.005290 0.000000 -0.000037
    39 -0.000007 -2.562422 -1.340640 1.570796 0.000000 3.141592
    40 -0.000005 -1.784786 0.363803 1.570796 0.000000 3.141592
    41 -0.000002 1.640970 -1.348884 1.501597 0.000000 3.141592
    42 -0.000004 -0.403343 -3.067159 1.570796 0.000000 3.141592
    43 0.000000 3.034649 -4.869442 1.570796 0.000000 3.141592
  time 14
    0 1.437500 3.820313 -4.980469 1.367756 0.437846 -0.664806
    1 6.028142 -0.000009 0.000000 -1.741239 -0.926989 -0.426392
    2 11.692563 0.000017 0.000007 0.000002 0.000000 -0.825787
    3 11.481678 -0.000021 -0.000026 0.091567 0.245313 0.518172
    4 0.806049 -0.348926 1.321255 -1.285557 -0.482391 -0.836327
    5 1.789782 0.000008 0.000000 -0.036204 -0.507634 0.207512
    6 1.207001 0.000000 0.000000 0.000000 0.000000 -0.099339
    7 3.859859 -0.137941 1.332452 0.220371 0.182989 -0.556456
    8 1.719431 0.000004 -0.000005 -0.003327 0.002349 -1.319039
    9 1.099663 0.000006 -0.000006 -0.001211 0.002294 -0.731158
    10 3.883686 -0.046764 0.431428 0.075188 0.100037 -0.899140
    11 1.719576 0.000013 -0.000007 -0.004128 0.003658 -1.212436
    12 1.209181 0.000002 -0.000001 -0.001162 0.002855 -0.603175
    13 3.942318 0.046774 -0.431457 -0.167073 0.021105 -1.132534
    14 1.539097 0.000000 0.000004 0.000000 0.000000 -1.178726
    15 1.196321 0.000000 0.000000 -0.000001 0.000002 -0.430800
    16 3.859699 -0.142406 -1.191988 -0.459717 -0.176936 -1.511901
    17 1.312572 -0.000002 0.000001 0.000000 0.000000 -0.913975
    18 0.729363 0.000011 0.000000 0.000000 0.000000 -0.749574
    19 -1.937500 4.609375 -5.496094 1.380186 0.205234 -3.734945
    20 6.028141 0.000005 -0.000003 0.863107 1.100773 -1.016582
    21 11.692562 0.000004 0.000010 0.000000 0.000024 -1.874020
    22 11.481714 -0.000034 0.000002 -0.785201 -0.046212 0.881545
    23 0.806011 -0.359833 -1.318336 1.281002 0.188695 -0.782321
    24 1.789787 0.000002 0.000002 -0.234630 0.004987 -0.004830
    25 1.207003 0.000006 -0.000004 0.000001 0.000000 1.203843
    26 3.859829 -0.148937 -1.331286 -0.051963 0.213265 -0.077967
    27 1.719431 -0.000004 -0.000003 0.004672 -0.004671 -1.149719
    28 1.099665 -0.000002 -0.000001 0.001534 -0.003920 -0.619358
    29 3.883659 -0.050333 -0.431045 0.106877 -0.073665 -0.993181
    30 1.719576 -0.000013 -0.000003 0.006890 -0.004008 -1.411101
    31 1.209177 -0.000002 -0.000003 0.003530 -0.002726 -1.130131
    32 3.942287 0.050325 0.431041 0.279874 0.036174 -1.245777
    33 1.539104 0.000002 -0.000004 0.000000 0.000000 -1.043759
    34 1.196321 0.000004 0.000004 0.000003 -0.000002 -1.228600
    35 3.859676 -0.132571 1.193106 0.344457 0.138292 -1.575074
    36 1.312571 -0.000002 0.000004 0.000000 0.000000 -0.580528
    37 0.729367 0.000000 -0.000005 0.000002 0.000003 -0.978353
    38 -4.003418 -13.008209 -4.004028 -0.001755 0.000000 -0.000037
    39 -0.000007 -2.562422 -1.340640 1.570796 0.000000 3.141592
    40 -0.000005 -1.784786 0.363803 1.570796 0.000000 3.141592
    41 -0.000002 1.640970 -1.348884 1.551465 0.000000 3.141592
    42 -0.000004 -0.403343 -3.067159 1.570796 0.000000 3.141592
    43 0.000000 3.034649 -4.869442 1.570796 0.000000 3.141592
  time 15
    0 1.437500 3.820313 -4.980469 1.367756 0.437846 -0.664806
    1 6.028142 -0.000009 0.000000 -1.740386 -0.925533 -0.427282
    2 11.692563 0.000017 0.000007 0.000002 0.000000 -0.828723
    3 11.481678 -0.000021 -0.000026 0.090952 0.245859 0.520930
    4 0.806049 -0.348926 1.321255 -1.285557 -0.482391 -0.836327
    5 1.789782 0.000008 0.000000 -0.036204 -0.507634 0.207512
    6 1.207001 0.000000 0.000000 0.000000 0.000000 -0.099339
    7 3.859859 -0.137941 1.332452 0.220371 0.182989 -0.556456
    8 1.719431 0.000004 -0.000005 -0.003327 0.002349 -1.319039
    9 1.099663 0.000006 -0.000006 -0.001211 0.002294 -0.731158
    10 3.883686 -0.046764 0.431428 0.075188 0.100037 -0.899140
    11 1.719576 0.000013 -0.000007 -0.004128 0.003658 -1.212436
    12 1.209181 0.000002 -0.000001 -0.001162 0.002855 -0.603175
    13 3.942318 0.046774 -0.431457 -0.167073 0.021105 -1.132534
    14 1.539097 0.000000 0.000004 0.000000 0.000000 -1.178726
    15 1.196321 0.000000 0.000000 -0.000001 0.000002 -0.430800
    16 3.859699 -0.142406 -1.191988 -0.459717 -0.176936 -1.511901
    17 1.312572 -0.000002 0.000001 0.000000 0.000000 -0.913975
    18 0.729363 0.000011 0.000000 0.000000 0.000000 -0.749574
    19 -1.937500 4.609375 -5.496094 1.380186 0.205234 -3.734945
    20 6.028141 0.000005 -0.000003 0.864926 1.101341 -1.015090
    21 11.692562 0.000004 0.000010 0.000000 0.000024 -1.875990
    22 11.481714 -0.000034 0.000002 -0.784507 -0.048396 0.884651
    23 0.806011 -0.359833 -1.318336 1.281002 0.188695 -0.782321
    24 1.789787 0.000002 0.000002 -0.234630 0.004987 -0.004830
    25 1.207003 0.000006 -0.000004 0.000001 0.000000 1.203843
    26 3.859829 -0.148937 -1.331286 -0.052466 0.213134 -0.080435
    27 1.719431 -0.000004 -0.000003 0.004588 -0.004767 -1.130352
    28 1.099665 -0.000002 -0.000001 0.001510 -0.003932 -0.612630
    29 3.883659 -0.050333 -0.431045 0.106877 -0.073665 -0.993181
    30 1.719576 -0.000013 -0.000003 0.006890 -0.004008 -1.411133
    31 1.209177 -0.000002 -0.000003 0.003530 -0.002726 -1.130131
    32 3.942287 0.050325 0.431041 0.279874 0.036174 -1.245777
    33 1.539104 0.000002 -0.000004 0.000000 0.000000 -1.043759
    34 1.196321 0.000004 0.000004 0.000003 -0.000002 -1.228600
    35 3.859676 -0.132571 1.193106 0.344457 0.138292 -1.575074
    36 1.312571 -0.000002 0.000004 0.000000 0.000000 -0.580528
    37 0.729367 0.000000 -0.000005 0.000002 0.000003 -0.978353
    38 -4.003418 -12.996490 -3.996216 0.000000 0.000000 -0.000037
    39 -0.000007 -2.562422 -1.340640 1.570796 0.000000 3.141592
    40 -0.000005 -1.784786 0.363803 1.570796 0.000000 3.141592
    41 -0.000002 1.640970 -1.348884 1.570796 0.000000 3.141592
    42 -0.000004 -0.403343 -3.067159 1.570796 0.000000 3.141592
    43 0.000000 3.034649 -4.869442 1.570796 0.000000 3.141592
end
