// Created by Crowbar++ 0.74
version 1
nodes
  0 "ValveBiped.Bip01_L_Clavicle" -1
  1 "ValveBiped.Bip01_L_UpperArm" 0
  2 "ValveBiped.Bip01_L_Forearm" 1
  3 "ValveBiped.Bip01_L_Hand" 2
  4 "ValveBiped.Bip01_L_Finger0" 3
  5 "ValveBiped.Bip01_L_Finger01" 4
  6 "ValveBiped.Bip01_L_Finger02" 5
  7 "ValveBiped.Bip01_L_Finger1" 3
  8 "ValveBiped.Bip01_L_Finger11" 7
  9 "ValveBiped.Bip01_L_Finger12" 8
  10 "ValveBiped.Bip01_L_Finger2" 3
  11 "ValveBiped.Bip01_L_Finger21" 10
  12 "ValveBiped.Bip01_L_Finger22" 11
  13 "ValveBiped.Bip01_L_Finger3" 3
  14 "ValveBiped.Bip01_L_Finger31" 13
  15 "ValveBiped.Bip01_L_Finger32" 14
  16 "ValveBiped.Bip01_L_Finger4" 3
  17 "ValveBiped.Bip01_L_Finger41" 16
  18 "ValveBiped.Bip01_L_Finger42" 17
  19 "ValveBiped.Bip01_R_Clavicle" -1
  20 "ValveBiped.Bip01_R_UpperArm" 19
  21 "ValveBiped.Bip01_R_Forearm" 20
  22 "ValveBiped.Bip01_R_Hand" 21
  23 "ValveBiped.Bip01_R_Finger0" 22
  24 "ValveBiped.Bip01_R_Finger01" 23
  25 "ValveBiped.Bip01_R_Finger02" 24
  26 "ValveBiped.Bip01_R_Finger1" 22
  27 "ValveBiped.Bip01_R_Finger11" 26
  28 "ValveBiped.Bip01_R_Finger12" 27
  29 "ValveBiped.Bip01_R_Finger2" 22
  30 "ValveBiped.Bip01_R_Finger21" 29
  31 "ValveBiped.Bip01_R_Finger22" 30
  32 "ValveBiped.Bip01_R_Finger3" 22
  33 "ValveBiped.Bip01_R_Finger31" 32
  34 "ValveBiped.Bip01_R_Finger32" 33
  35 "ValveBiped.Bip01_R_Finger4" 22
  36 "ValveBiped.Bip01_R_Finger41" 35
  37 "ValveBiped.Bip01_R_Finger42" 36
  38 "control" -1
  39 "v_weapon.AK47_Clip" 38
  40 "v_weapon.AK47_Bolt" 38
  41 "v_weapon.AK47_Trigger" 38
  42 "v_weapon.AK47_ClipRelease" 38
  43 "v_weapon.AK47_Parent" 38
end
skeleton
  time 0
    0 1.437500 3.820313 -4.980469 1.367756 0.437846 -0.664806
    1 6.028142 -0.000009 0.000000 -1.740386 -0.925533 -0.427282
    2 11.692563 0.000017 0.000007 0.000002 0.000000 -0.828723
    3 11.481678 -0.000021 -0.000026 0.090952 0.245859 0.520930
    4 0.806049 -0.348926 1.321255 -1.285557 -0.482391 -0.836327
    5 1.789782 0.000008 0.000000 -0.036204 -0.507634 0.207512
    6 1.207001 0.000000 0.000000 0.000000 0.000000 -0.099339
    7 3.859859 -0.137941 1.332452 0.220371 0.182989 -0.556456
    8 1.719431 0.000004 -0.000005 -0.003327 0.002349 -1.319039
    9 1.099663 0.000006 -0.000006 -0.001215 0.002294 -0.731179
    10 3.883686 -0.046764 0.431428 0.075188 0.100037 -0.899140
    11 1.719576 0.000013 -0.000007 -0.004128 0.003658 -1.212436
    12 1.209181 0.000002 -0.000001 -0.001162 0.002855 -0.603175
    13 3.942318 0.046774 -0.431457 -0.167073 0.021105 -1.132534
    14 1.539097 0.000000 0.000004 0.000000 0.000000 -1.178726
    15 1.196321 0.000000 0.000000 -0.000001 0.000002 -0.430800
    16 3.859699 -0.142406 -1.191988 -0.459717 -0.176936 -1.511901
    17 1.312572 -0.000002 0.000001 0.000000 0.000000 -0.913975
    18 0.729363 0.000011 0.000000 0.000000 0.000000 -0.749574
    19 -1.937500 4.609375 -5.496094 1.380186 0.205234 -3.734945
    20 6.028141 0.000005 -0.000003 0.864926 1.101341 -1.015090
    21 11.692562 0.000004 0.000010 0.000000 0.000024 -1.875990
    22 11.481714 -0.000034 0.000002 -0.784507 -0.048396 0.884651
    23 0.806011 -0.359833 -1.318336 1.281002 0.188695 -0.782321
    24 1.789787 0.000002 0.000002 -0.234630 0.004987 -0.004830
    25 1.207003 0.000006 -0.000004 0.000000 0.000000 1.203867
    26 3.859829 -0.148937 -1.331286 -0.043023 0.215207 -0.035988
    27 1.719431 -0.000004 -0.000003 0.005942 -0.002898 -1.480254
    28 1.099665 -0.000002 -0.000001 0.001977 -0.003717 -0.734284
    29 3.883659 -0.050333 -0.431045 0.106877 -0.073665 -0.993181
    30 1.719576 -0.000013 -0.000003 0.006890 -0.004008 -1.411133
    31 1.209177 -0.000002 -0.000003 0.003530 -0.002726 -1.130131
    32 3.942287 0.050325 0.431041 0.279874 0.036174 -1.245777
    33 1.539104 0.000002 -0.000004 0.000000 0.000000 -1.043759
    34 1.196321 0.000004 0.000004 0.000003 -0.000002 -1.228600
    35 3.859676 -0.132571 1.193106 0.344457 0.138292 -1.575074
    36 1.312571 -0.000002 0.000004 0.000000 0.000000 -0.580528
    37 0.729367 0.000000 -0.000005 0.000000 0.000000 -0.978374
    38 -4.003418 -12.996490 -3.996216 0.000000 0.000000 -0.000037
    39 -0.000007 -2.562422 -1.340640 1.570796 0.000000 3.141592
    40 -0.000005 -1.784786 0.363803 1.570796 0.000000 3.141592
    41 -0.000002 1.640970 -1.348884 1.221733 0.000000 3.141592
    42 -0.000004 -0.403343 -3.067159 1.570796 0.000000 3.141592
    43 0.000000 3.034649 -4.869442 1.570796 0.000000 3.141592
  time 1
    0 1.437500 3.820313 -4.980469 1.367756 0.437846 -0.664806
    1 6.028142 -0.000009 0.000000 -1.680169 -0.800258 -0.491245
    2 11.692563 0.000017 0.000007 0.000002 0.000000 -1.111140
    3 11.481678 -0.000021 -0.000026 0.117765 0.258389 0.726133
    4 0.806049 -0.348926 1.321255 -1.285557 -0.482391 -0.836327
    5 1.789782 0.000008 0.000000 -0.036204 -0.507634 0.207512
    6 1.207001 0.000000 0.000000 0.000000 0.000000 -0.099339
    7 3.859859 -0.137941 1.332452 0.220371 0.182989 -0.556456
    8 1.719431 0.000004 -0.000005 -0.003327 0.002349 -1.319039
    9 1.099663 0.000006 -0.000006 -0.001215 0.002294 -0.731179
    10 3.883686 -0.046764 0.431428 0.075188 0.100037 -0.899140
    11 1.719576 0.000013 -0.000007 -0.004128 0.003658 -1.212436
    12 1.209181 0.000002 -0.000001 -0.001162 0.002855 -0.603175
    13 3.942318 0.046774 -0.431457 -0.167073 0.021105 -1.132534
    14 1.539097 0.000000 0.000004 0.000000 0.000000 -1.178726
    15 1.196321 0.000000 0.000000 -0.000001 0.000002 -0.430800
    16 3.859699 -0.142406 -1.191988 -0.459717 -0.176936 -1.511901
    17 1.312572 -0.000002 0.000001 0.000000 0.000000 -0.913975
    18 0.729363 0.000011 0.000000 0.000000 0.000000 -0.749574
    19 -1.937500 4.609375 -5.496094 1.380186 0.205234 -3.734945
    20 6.028141 0.000005 -0.000003 0.922354 1.065320 -0.932210
    21 11.692562 0.000004 0.000010 0.000000 0.000024 -2.052454
    22 11.481714 -0.000034 0.000002 -0.719195 -0.063806 1.041414
    23 0.806011 -0.359833 -1.318336 1.281002 0.188695 -0.782321
    24 1.789787 0.000002 0.000002 -0.234630 0.004987 -0.004830
    25 1.207003 0.000006 -0.000004 0.000000 0.000000 1.203867
    26 3.859829 -0.148937 -1.331286 -0.043023 0.215207 -0.035988
    27 1.719431 -0.000004 -0.000003 0.005942 -0.002898 -1.480254
    28 1.099665 -0.000002 -0.000001 0.001977 -0.003717 -0.734284
    29 3.883659 -0.050333 -0.431045 0.106877 -0.073665 -0.993181
    30 1.719576 -0.000013 -0.000003 0.006890 -0.004008 -1.411101
    31 1.209177 -0.000002 -0.000003 0.003530 -0.002726 -1.130131
    32 3.942287 0.050325 0.431041 0.279874 0.036174 -1.245777
    33 1.539104 0.000002 -0.000004 0.000000 0.000000 -1.043759
    34 1.196321 0.000004 0.000004 0.000003 -0.000002 -1.228600
    35 3.859676 -0.132571 1.193106 0.344457 0.138292 -1.575074
    36 1.312571 -0.000002 0.000004 0.000000 0.000000 -0.580528
    37 0.729367 0.000000 -0.000005 0.000000 0.000000 -0.978374
    38 -4.003418 -11.484725 -3.949339 0.047866 -0.044617 -0.013601
    39 -0.000007 -2.562422 -1.340640 1.570796 0.000000 3.141592
    40 -0.000005 3.188022 0.512245 1.570796 0.000000 3.141592
    41 -0.000002 1.640970 -1.348884 1.221733 0.000000 3.141592
    42 -0.000004 -0.403343 -3.067159 1.570796 0.000000 3.141592
    43 0.000000 3.034649 -4.869442 1.570796 0.000000 3.141592
  time 2
    0 1.437500 3.820313 -4.980469 1.367756 0.437846 -0.664806
    1 6.028142 -0.000009 0.000000 -1.686746 -0.823792 -0.484678
    2 11.692563 0.000017 0.000007 0.000002 0.000000 -1.079507
    3 11.481678 -0.000021 -0.000026 0.090799 0.239857 0.672572
    4 0.806049 -0.348926 1.321255 -1.285557 -0.482391 -0.836327
    5 1.789782 0.000008 0.000000 -0.036204 -0.507634 0.207512
    6 1.207001 0.000000 0.000000 0.000000 0.000000 -0.099339
    7 3.859859 -0.137941 1.332452 0.220371 0.182989 -0.556456
    8 1.719431 0.000004 -0.000005 -0.003327 0.002349 -1.319039
    9 1.099663 0.000006 -0.000006 -0.001215 0.002294 -0.731179
    10 3.883686 -0.046764 0.431428 0.075188 0.100037 -0.899140
    11 1.719576 0.000013 -0.000007 -0.004128 0.003658 -1.212436
    12 1.209181 0.000002 -0.000001 -0.001162 0.002855 -0.603175
    13 3.942318 0.046774 -0.431457 -0.167073 0.021105 -1.132534
    14 1.539097 0.000000 0.000004 0.000000 0.000000 -1.178726
    15 1.196321 0.000000 0.000000 -0.000001 0.000002 -0.430800
    16 3.859699 -0.142406 -1.191988 -0.459717 -0.176936 -1.511901
    17 1.312572 -0.000002 0.000001 0.000000 0.000000 -0.913975
    18 0.729363 0.000011 0.000000 0.000000 0.000000 -0.749574
    19 -1.937500 4.609375 -5.496094 1.380186 0.205234 -3.734945
    20 6.028141 0.000005 -0.000003 0.928338 1.055695 -0.931741
    21 11.692562 0.000004 0.000010 0.000000 0.000024 -2.034352
    22 11.481714 -0.000034 0.000002 -0.769988 -0.042963 0.999870
    23 0.806011 -0.359833 -1.318336 1.281002 0.188695 -0.782321
    24 1.789787 0.000002 0.000002 -0.234630 0.004987 -0.004830
    25 1.207003 0.000006 -0.000004 0.000000 0.000000 1.203867
    26 3.859829 -0.148937 -1.331286 -0.043023 0.215207 -0.035988
    27 1.719431 -0.000004 -0.000003 0.005942 -0.002898 -1.480254
    28 1.099665 -0.000002 -0.000001 0.001977 -0.003717 -0.734284
    29 3.883659 -0.050333 -0.431045 0.106877 -0.073665 -0.993181
    30 1.719576 -0.000013 -0.000003 0.006890 -0.004008 -1.411101
    31 1.209177 -0.000002 -0.000003 0.003530 -0.002726 -1.130131
    32 3.942287 0.050325 0.431041 0.279874 0.036174 -1.245777
    33 1.539104 0.000002 -0.000004 0.000000 0.000000 -1.043759
    34 1.196321 0.000004 0.000004 0.000003 -0.000002 -1.228600
    35 3.859676 -0.132571 1.193106 0.344457 0.138292 -1.575074
    36 1.312571 -0.000002 0.000004 0.000000 0.000000 -0.580528
    37 0.729367 0.000000 -0.000005 0.000000 0.000000 -0.978374
    38 -4.003418 -11.547227 -3.902463 0.014065 -0.005118 -0.012137
    39 -0.000007 -2.562422 -1.340640 1.570796 0.000000 3.141592
    40 -0.000005 3.188022 0.512245 1.570796 0.000000 3.141592
    41 -0.000002 1.640970 -1.348884 1.221733 0.000000 3.141592
    42 -0.000004 -0.403343 -3.067159 1.570796 0.000000 3.141592
    43 0.000000 3.034649 -4.869442 1.570796 0.000000 3.141592
  time 3
    0 1.437500 3.820313 -4.980469 1.367756 0.437846 -0.664806
    1 6.028142 -0.000009 0.000000 -1.706989 -0.847246 -0.465683
    2 11.692563 0.000017 0.000007 0.000002 0.000000 -1.041563
    3 11.481678 -0.000021 -0.000026 0.114154 0.233465 0.642227
    4 0.806049 -0.348926 1.321255 -1.285557 -0.482391 -0.836327
    5 1.789782 0.000008 0.000000 -0.036204 -0.507634 0.207512
    6 1.207001 0.000000 0.000000 0.000000 0.000000 -0.099339
    7 3.859859 -0.137941 1.332452 0.220371 0.182989 -0.556456
    8 1.719431 0.000004 -0.000005 -0.003327 0.002349 -1.319039
    9 1.099663 0.000006 -0.000006 -0.001215 0.002294 -0.731179
    10 3.883686 -0.046764 0.431428 0.075188 0.100037 -0.899140
    11 1.719576 0.000013 -0.000007 -0.004128 0.003658 -1.212436
    12 1.209181 0.000002 -0.000001 -0.001162 0.002855 -0.603175
    13 3.942318 0.046774 -0.431457 -0.167073 0.021105 -1.132534
    14 1.539097 0.000000 0.000004 0.000000 0.000000 -1.178726
    15 1.196321 0.000000 0.000000 -0.000001 0.000002 -0.430800
    16 3.859699 -0.142406 -1.191988 -0.459717 -0.176936 -1.511901
    17 1.312572 -0.000002 0.000001 0.000000 0.000000 -0.913975
    18 0.729363 0.000011 0.000000 0.000000 0.000000 -0.749574
    19 -1.937500 4.609375 -5.496094 1.380186 0.205234 -3.734945
    20 6.028141 0.000005 -0.000003 0.899477 1.049035 -0.955104
    21 11.692562 0.000004 0.000010 0.000000 0.000024 -2.002396
    22 11.481714 -0.000034 0.000002 -0.771078 -0.005210 0.943911
    23 0.806011 -0.359833 -1.318336 1.281002 0.188695 -0.782321
    24 1.789787 0.000002 0.000002 -0.234630 0.004987 -0.004830
    25 1.207003 0.000006 -0.000004 0.000000 0.000000 1.203867
    26 3.859829 -0.148937 -1.331286 -0.043023 0.215207 -0.035988
    27 1.719431 -0.000004 -0.000003 0.005942 -0.002898 -1.480254
    28 1.099665 -0.000002 -0.000001 0.001977 -0.003717 -0.734284
    29 3.883659 -0.050333 -0.431045 0.106877 -0.073665 -0.993181
    30 1.719576 -0.000013 -0.000003 0.006890 -0.004008 -1.411101
    31 1.209177 -0.000002 -0.000003 0.003530 -0.002726 -1.130131
    32 3.942287 0.050325 0.431041 0.279874 0.036174 -1.245777
    33 1.539104 0.000002 -0.000004 0.000000 0.000000 -1.043759
    34 1.196321 0.000004 0.000004 0.000003 -0.000002 -1.228600
    35 3.859676 -0.132571 1.193106 0.344457 0.138292 -1.575074
    36 1.312571 -0.000002 0.000004 0.000000 0.000000 -0.580528
    37 0.729367 0.000000 -0.000005 0.000000 0.000000 -0.978374
    38 -4.003418 -11.707389 -3.906369 -0.019736 -0.015852 -0.009054
    39 -0.000007 -2.562422 -1.340640 1.570796 0.000000 3.141592
    40 -0.000005 0.699665 0.438024 1.570796 0.000000 3.141592
    41 -0.000002 1.640970 -1.348884 1.221733 0.000000 3.141592
    42 -0.000004 -0.403343 -3.067159 1.570796 0.000000 3.141592
    43 0.000000 3.034649 -4.869442 1.570796 0.000000 3.141592
  time 4
    0 1.437500 3.820313 -4.980469 1.367756 0.437846 -0.664806
    1 6.028142 -0.000009 0.000000 -1.715490 -0.856304 -0.457040
    2 11.692563 0.000017 0.000007 0.000002 0.000000 -1.012940
    3 11.481678 -0.000021 -0.000026 0.126908 0.241065 0.637686
    4 0.806049 -0.348926 1.321255 -1.285557 -0.482391 -0.836327
    5 1.789782 0.000008 0.000000 -0.036204 -0.507634 0.207512
    6 1.207001 0.000000 0.000000 0.000000 0.000000 -0.099339
    7 3.859859 -0.137941 1.332452 0.220371 0.182989 -0.556456
    8 1.719431 0.000004 -0.000005 -0.003327 0.002349 -1.319039
    9 1.099663 0.000006 -0.000006 -0.001215 0.002294 -0.731179
    10 3.883686 -0.046764 0.431428 0.075188 0.100037 -0.899140
    11 1.719576 0.000013 -0.000007 -0.004128 0.003658 -1.212436
    12 1.209181 0.000002 -0.000001 -0.001162 0.002855 -0.603175
    13 3.942318 0.046774 -0.431457 -0.167073 0.021105 -1.132534
    14 1.539097 0.000000 0.000004 0.000000 0.000000 -1.178726
    15 1.196321 0.000000 0.000000 -0.000001 0.000002 -0.430800
    16 3.859699 -0.142406 -1.191988 -0.459717 -0.176936 -1.511901
    17 1.312572 -0.000002 0.000001 0.000000 0.000000 -0.913975
    18 0.729363 0.000011 0.000000 0.000000 0.000000 -0.749574
    19 -1.937500 4.609375 -5.496094 1.380186 0.205234 -3.734945
    20 6.028141 0.000005 -0.000003 0.886513 1.060122 -0.969514
    21 11.692562 0.000004 0.000010 0.000000 0.000024 -1.981524
    22 11.481714 -0.000034 0.000002 -0.753685 -0.010973 0.936556
    23 0.806011 -0.359833 -1.318336 1.281002 0.188695 -0.782321
    24 1.789787 0.000002 0.000002 -0.234630 0.004987 -0.004830
    25 1.207003 0.000006 -0.000004 0.000000 0.000000 1.203867
    26 3.859829 -0.148937 -1.331286 -0.043023 0.215207 -0.035988
    27 1.719431 -0.000004 -0.000003 0.005942 -0.002898 -1.480220
    28 1.099665 -0.000002 -0.000001 0.001977 -0.003717 -0.734284
    29 3.883659 -0.050333 -0.431045 0.106877 -0.073665 -0.993181
    30 1.719576 -0.000013 -0.000003 0.006890 -0.004008 -1.411101
    31 1.209177 -0.000002 -0.000003 0.003530 -0.002726 -1.130131
    32 3.942287 0.050325 0.431041 0.279874 0.036174 -1.245777
    33 1.539104 0.000002 -0.000004 0.000000 0.000000 -1.043759
    34 1.196321 0.000004 0.000004 0.000003 -0.000002 -1.228600
    35 3.859676 -0.132571 1.193106 0.344457 0.138292 -1.575074
    36 1.312571 -0.000002 0.000004 0.000000 0.000000 -0.580528
    37 0.729367 0.000000 -0.000005 0.000000 0.000000 -0.978374
    38 -4.003418 -11.930052 -3.914182 -0.013073 -0.031127 -0.006588
    39 -0.000007 -2.562422 -1.340640 1.570796 0.000000 3.141592
    40 -0.000005 -1.784786 0.363803 1.570796 0.000000 3.141592
    41 -0.000002 1.640970 -1.348884 1.221733 0.000000 3.141592
    42 -0.000004 -0.403343 -3.067159 1.570796 0.000000 3.141592
    43 0.000000 3.034649 -4.869442 1.570796 0.000000 3.141592
  time 5
    0 1.437500 3.820313 -4.980469 1.367756 0.437846 -0.664806
    1 6.028142 -0.000009 0.000000 -1.719753 -0.865605 -0.451955
    2 11.692563 0.000017 0.000007 0.000002 0.000000 -0.980647
    3 11.481678 -0.000021 -0.000026 0.127215 0.248704 0.627712
    4 0.806049 -0.348926 1.321255 -1.285557 -0.482391 -0.836327
    5 1.789782 0.000008 0.000000 -0.036204 -0.507634 0.207512
    6 1.207001 0.000000 0.000000 0.000000 0.000000 -0.099339
    7 3.859859 -0.137941 1.332452 0.220371 0.182989 -0.556456
    8 1.719431 0.000004 -0.000005 -0.003327 0.002349 -1.319039
    9 1.099663 0.000006 -0.000006 -0.001215 0.002294 -0.731179
    10 3.883686 -0.046764 0.431428 0.075188 0.100037 -0.899140
    11 1.719576 0.000013 -0.000007 -0.004128 0.003658 -1.212436
    12 1.209181 0.000002 -0.000001 -0.001162 0.002855 -0.603175
    13 3.942318 0.046774 -0.431457 -0.167073 0.021105 -1.132534
    14 1.539097 0.000000 0.000004 0.000000 0.000000 -1.178726
    15 1.196321 0.000000 0.000000 -0.000001 0.000002 -0.430800
    16 3.859699 -0.142406 -1.191988 -0.459717 -0.176936 -1.511901
    17 1.312572 -0.000002 0.000001 0.000000 0.000000 -0.913975
    18 0.729363 0.000011 0.000000 0.000000 0.000000 -0.749574
    19 -1.937500 4.609375 -5.496094 1.380186 0.205234 -3.734945
    20 6.028141 0.000005 -0.000003 0.880705 1.073726 -0.979917
    21 11.692562 0.000004 0.000010 0.000000 0.000024 -1.962006
    22 11.481714 -0.000034 0.000002 -0.744765 -0.026257 0.937602
    23 0.806011 -0.359833 -1.318336 1.281002 0.188695 -0.782321
    24 1.789787 0.000002 0.000002 -0.234630 0.004987 -0.004830
    25 1.207003 0.000006 -0.000004 0.000000 0.000000 1.203867
    26 3.859829 -0.148937 -1.331286 -0.043023 0.215207 -0.035988
    27 1.719431 -0.000004 -0.000003 0.005942 -0.002898 -1.480254
    28 1.099665 -0.000002 -0.000001 0.001977 -0.003717 -0.734284
    29 3.883659 -0.050333 -0.431045 0.106877 -0.073665 -0.993181
    30 1.719576 -0.000013 -0.000003 0.006890 -0.004008 -1.411101
    31 1.209177 -0.000002 -0.000003 0.003530 -0.002726 -1.130131
    32 3.942287 0.050325 0.431041 0.279874 0.036174 -1.245777
    33 1.539104 0.000002 -0.000004 0.000000 0.000000 -1.043759
    34 1.196321 0.000004 0.000004 0.000003 -0.000002 -1.228600
    35 3.859676 -0.132571 1.193106 0.344457 0.138292 -1.575074
    36 1.312571 -0.000002 0.000004 0.000000 0.000000 -0.580528
    37 0.729367 0.000000 -0.000005 0.000000 0.000000 -0.978374
    38 -4.003418 -12.172246 -3.925901 -0.000229 -0.036061 -0.005663
    39 -0.000007 -2.562422 -1.340640 1.570796 0.000000 3.141592
    40 -0.000005 -1.542591 0.363803 1.570796 0.000000 3.141592
    41 -0.000002 1.640970 -1.348884 1.221733 0.000000 3.141592
    42 -0.000004 -0.403343 -3.067159 1.570796 0.000000 3.141592
    43 0.000000 3.034649 -4.869442 1.570796 0.000000 3.141592
  time 6
    0 1.437500 3.820313 -4.980469 1.367756 0.437846 -0.664806
    1 6.028142 -0.000009 0.000000 -1.723359 -0.876927 -0.447394
    2 11.692563 0.000017 0.000007 0.000002 0.000000 -0.946739
    3 11.481678 -0.000021 -0.000026 0.122452 0.253498 0.610820
    4 0.806049 -0.348926 1.321255 -1.285557 -0.482391 -0.836327
    5 1.789782 0.000008 0.000000 -0.036204 -0.507634 0.207512
    6 1.207001 0.000000 0.000000 0.000000 0.000000 -0.099339
    7 3.859859 -0.137941 1.332452 0.220371 0.182989 -0.556456
    8 1.719431 0.000004 -0.000005 -0.003327 0.002349 -1.319039
    9 1.099663 0.000006 -0.000006 -0.001215 0.002294 -0.731179
    10 3.883686 -0.046764 0.431428 0.075188 0.100037 -0.899140
    11 1.719576 0.000013 -0.000007 -0.004128 0.003658 -1.212436
    12 1.209181 0.000002 -0.000001 -0.001162 0.002855 -0.603175
    13 3.942318 0.046774 -0.431457 -0.167073 0.021105 -1.132534
    14 1.539097 0.000000 0.000004 0.000000 0.000000 -1.178726
    15 1.196321 0.000000 0.000000 -0.000001 0.000002 -0.430800
    16 3.859699 -0.142406 -1.191988 -0.459717 -0.176936 -1.511901
    17 1.312572 -0.000002 0.000001 0.000000 0.000000 -0.913975
    18 0.729363 0.000011 0.000000 0.000000 0.000000 -0.749574
    19 -1.937500 4.609375 -5.496094 1.380186 0.205234 -3.734945
    20 6.028141 0.000005 -0.000003 0.876012 1.084853 -0.989424
    21 11.692562 0.000004 0.000010 0.000000 0.000024 -1.942487
    22 11.481714 -0.000034 0.000002 -0.744368 -0.037910 0.934988
    23 0.806011 -0.359833 -1.318336 1.281002 0.188695 -0.782321
    24 1.789787 0.000002 0.000002 -0.234630 0.004987 -0.004830
    25 1.207003 0.000006 -0.000004 0.000000 0.000000 1.203867
    26 3.859829 -0.148937 -1.331286 -0.043023 0.215207 -0.035988
    27 1.719431 -0.000004 -0.000003 0.005942 -0.002898 -1.480254
    28 1.099665 -0.000002 -0.000001 0.001977 -0.003717 -0.734284
    29 3.883659 -0.050333 -0.431045 0.106877 -0.073665 -0.993181
    30 1.719576 -0.000013 -0.000003 0.006890 -0.004008 -1.411101
    31 1.209177 -0.000002 -0.000003 0.003530 -0.002726 -1.130131
    32 3.942287 0.050325 0.431041 0.279874 0.036174 -1.245777
    33 1.539104 0.000002 -0.000004 0.000000 0.000000 -1.043759
    34 1.196321 0.000004 0.000004 0.000003 -0.000002 -1.228600
    35 3.859676 -0.132571 1.193106 0.344457 0.138292 -1.575074
    36 1.312571 -0.000002 0.000004 0.000000 0.000000 -0.580528
    37 0.729367 0.000000 -0.000005 0.000000 0.000000 -0.978374
    38 -4.003418 -12.394910 -3.941527 0.008190 -0.034224 -0.005509
    39 -0.000007 -2.562422 -1.340640 1.570796 0.000000 3.141592
    40 -0.000005 -1.296490 0.363803 1.570796 0.000000 3.141592
    41 -0.000002 1.640970 -1.348884 1.221733 0.000000 3.141592
    42 -0.000004 -0.403343 -3.067159 1.570796 0.000000 3.141592
    43 0.000000 3.034649 -4.869442 1.570796 0.000000 3.141592
  time 7
    0 1.437500 3.820313 -4.980469 1.367756 0.437846 -0.664806
    1 6.028142 -0.000009 0.000000 -1.727743 -0.889867 -0.442218
    2 11.692563 0.000017 0.000007 0.000002 0.000000 -0.915767
    3 11.481678 -0.000021 -0.000026 0.116613 0.253498 0.588114
    4 0.806049 -0.348926 1.321255 -1.285557 -0.482391 -0.836327
    5 1.789782 0.000008 0.000000 -0.036204 -0.507634 0.207512
    6 1.207001 0.000000 0.000000 0.000000 0.000000 -0.099339
    7 3.859859 -0.137941 1.332452 0.220371 0.182989 -0.556456
    8 1.719431 0.000004 -0.000005 -0.003327 0.002349 -1.319039
    9 1.099663 0.000006 -0.000006 -0.001215 0.002294 -0.731179
    10 3.883686 -0.046764 0.431428 0.075188 0.100037 -0.899140
    11 1.719576 0.000013 -0.000007 -0.004128 0.003658 -1.212436
    12 1.209181 0.000002 -0.000001 -0.001162 0.002855 -0.603175
    13 3.942318 0.046774 -0.431457 -0.167073 0.021105 -1.132534
    14 1.539097 0.000000 0.000004 0.000000 0.000000 -1.178726
    15 1.196321 0.000000 0.000000 -0.000001 0.000002 -0.430800
    16 3.859699 -0.142406 -1.191988 -0.459717 -0.176936 -1.511901
    17 1.312572 -0.000002 0.000001 0.000000 0.000000 -0.913975
    18 0.729363 0.000011 0.000000 0.000000 0.000000 -0.749574
    19 -1.937500 4.609375 -5.496094 1.380186 0.205234 -3.734945
    20 6.028141 0.000005 -0.000003 0.870616 1.089727 -0.997738
    21 11.692562 0.000004 0.000010 0.000000 0.000024 -1.925247
    22 11.481714 -0.000034 0.000002 -0.751950 -0.038596 0.923972
    23 0.806011 -0.359833 -1.318336 1.281002 0.188695 -0.782321
    24 1.789787 0.000002 0.000002 -0.234630 0.004987 -0.004830
    25 1.207003 0.000006 -0.000004 0.000000 0.000000 1.203867
    26 3.859829 -0.148937 -1.331286 -0.043023 0.215207 -0.035988
    27 1.719431 -0.000004 -0.000003 0.005942 -0.002898 -1.480254
    28 1.099665 -0.000002 -0.000001 0.001977 -0.003717 -0.734284
    29 3.883659 -0.050333 -0.431045 0.106877 -0.073665 -0.993181
    30 1.719576 -0.000013 -0.000003 0.006890 -0.004008 -1.411101
    31 1.209177 -0.000002 -0.000003 0.003530 -0.002726 -1.130131
    32 3.942287 0.050325 0.431041 0.279874 0.036174 -1.245777
    33 1.539104 0.000002 -0.000004 0.000000 0.000000 -1.043759
    34 1.196321 0.000004 0.000004 0.000003 -0.000002 -1.228600
    35 3.859676 -0.132571 1.193106 0.344457 0.138292 -1.575074
    36 1.312571 -0.000002 0.000004 0.000000 0.000000 -0.580528
    37 0.729367 0.000000 -0.000005 0.000000 0.000000 -0.978374
    38 -4.003418 -12.558977 -3.953246 0.006384 -0.027715 -0.005663
    39 -0.000007 -2.562422 -1.340640 1.570796 0.000000 3.141592
    40 -0.000005 -1.542591 0.363803 1.570796 0.000000 3.141592
    41 -0.000002 1.640970 -1.348884 1.221733 0.000000 3.141592
    42 -0.000004 -0.403343 -3.067159 1.570796 0.000000 3.141592
    43 0.000000 3.034649 -4.869442 1.570796 0.000000 3.141592
  time 8
    0 1.437500 3.820313 -4.980469 1.367756 0.437846 -0.664806
    1 6.028142 -0.000009 0.000000 -1.729863 -0.897793 -0.439709
    2 11.692563 0.000017 0.000007 0.000002 0.000000 -0.899474
    3 11.481678 -0.000021 -0.000026 0.109775 0.250048 0.570374
    4 0.806049 -0.348926 1.321255 -1.285557 -0.482391 -0.836327
    5 1.789782 0.000008 0.000000 -0.036204 -0.507634 0.207512
    6 1.207001 0.000000 0.000000 0.000000 0.000000 -0.099339
    7 3.859859 -0.137941 1.332452 0.220371 0.182989 -0.556456
    8 1.719431 0.000004 -0.000005 -0.003327 0.002349 -1.319039
    9 1.099663 0.000006 -0.000006 -0.001215 0.002294 -0.731179
    10 3.883686 -0.046764 0.431428 0.075188 0.100037 -0.899140
    11 1.719576 0.000013 -0.000007 -0.004128 0.003658 -1.212436
    12 1.209181 0.000002 -0.000001 -0.001162 0.002855 -0.603175
    13 3.942318 0.046774 -0.431457 -0.167073 0.021105 -1.132534
    14 1.539097 0.000000 0.000004 0.000000 0.000000 -1.178726
    15 1.196321 0.000000 0.000000 -0.000001 0.000002 -0.430800
    16 3.859699 -0.142406 -1.191988 -0.459717 -0.176936 -1.511901
    17 1.312572 -0.000002 0.000001 0.000000 0.000000 -0.913975
    18 0.729363 0.000011 0.000000 0.000000 0.000000 -0.749574
    19 -1.937500 4.609375 -5.496094 1.380186 0.205234 -3.734945
    20 6.028141 0.000005 -0.000003 0.869032 1.089199 -1.000808
    21 11.692562 0.000004 0.000010 0.000000 0.000024 -1.916196
    22 11.481714 -0.000034 0.000002 -0.763496 -0.034584 0.912957
    23 0.806011 -0.359833 -1.318336 1.281002 0.188695 -0.782321
    24 1.789787 0.000002 0.000002 -0.234630 0.004987 -0.004830
    25 1.207003 0.000006 -0.000004 0.000000 0.000000 1.203867
    26 3.859829 -0.148937 -1.331286 -0.043023 0.215207 -0.035988
    27 1.719431 -0.000004 -0.000003 0.005942 -0.002898 -1.480220
    28 1.099665 -0.000002 -0.000001 0.001977 -0.003717 -0.734284
    29 3.883659 -0.050333 -0.431045 0.106877 -0.073665 -0.993181
    30 1.719576 -0.000013 -0.000003 0.006890 -0.004008 -1.411101
    31 1.209177 -0.000002 -0.000003 0.003530 -0.002726 -1.130131
    32 3.942287 0.050325 0.431041 0.279874 0.036174 -1.245777
    33 1.539104 0.000002 -0.000004 0.000000 0.000000 -1.043759
    34 1.196321 0.000004 0.000004 0.000003 -0.000002 -1.228600
    35 3.859676 -0.132571 1.193106 0.344457 0.138292 -1.575074
    36 1.312571 -0.000002 0.000004 0.000000 0.000000 -0.580528
    37 0.729367 0.000000 -0.000005 0.000000 0.000000 -0.978374
    38 -4.003418 -12.621479 -3.964965 0.000153 -0.018661 -0.005817
    39 -0.000007 -2.562422 -1.340640 1.570796 0.000000 3.141592
    40 -0.000005 -1.784786 0.363803 1.570796 0.000000 3.141592
    41 -0.000002 1.640970 -1.348884 1.221733 0.000000 3.141592
    42 -0.000004 -0.403343 -3.067159 1.570796 0.000000 3.141592
    43 0.000000 3.034649 -4.869442 1.570796 0.000000 3.141592
  time 9
    0 1.437500 3.820313 -4.980469 1.367756 0.437846 -0.664806
    1 6.028142 -0.000009 0.000000 -1.729741 -0.901675 -0.439550
    2 11.692563 0.000017 0.000007 0.000002 0.000000 -0.891767
    3 11.481678 -0.000021 -0.000026 0.101631 0.246307 0.558745
    4 0.806049 -0.348926 1.321255 -1.285557 -0.482391 -0.836327
    5 1.789782 0.000008 0.000000 -0.036204 -0.507634 0.207512
    6 1.207001 0.000000 0.000000 0.000000 0.000000 -0.099339
    7 3.859859 -0.137941 1.332452 0.220371 0.182989 -0.556456
    8 1.719431 0.000004 -0.000005 -0.003327 0.002349 -1.319039
    9 1.099663 0.000006 -0.000006 -0.001215 0.002294 -0.731179
    10 3.883686 -0.046764 0.431428 0.075188 0.100037 -0.899140
    11 1.719576 0.000013 -0.000007 -0.004128 0.003658 -1.212436
    12 1.209181 0.000002 -0.000001 -0.001162 0.002855 -0.603175
    13 3.942318 0.046774 -0.431457 -0.167073 0.021105 -1.132534
    14 1.539097 0.000000 0.000004 0.000000 0.000000 -1.178726
    15 1.196321 0.000000 0.000000 -0.000001 0.000002 -0.430800
    16 3.859699 -0.142406 -1.191988 -0.459717 -0.176936 -1.511901
    17 1.312572 -0.000002 0.000001 0.000000 0.000000 -0.913975
    18 0.729363 0.000011 0.000000 0.000000 0.000000 -0.749574
    19 -1.937500 4.609375 -5.496094 1.380186 0.205234 -3.734945
    20 6.028141 0.000005 -0.000003 0.871730 1.087940 -0.999742
    21 11.692562 0.000004 0.000010 0.000000 0.000024 -1.912625
    22 11.481714 -0.000034 0.000002 -0.774696 -0.033899 0.906812
    23 0.806011 -0.359833 -1.318336 1.281002 0.188695 -0.782321
    24 1.789787 0.000002 0.000002 -0.234630 0.004987 -0.004830
    25 1.207003 0.000006 -0.000004 0.000000 0.000000 1.203867
    26 3.859829 -0.148937 -1.331286 -0.043551 0.215111 -0.038455
    27 1.719431 -0.000004 -0.000003 0.005882 -0.003018 -1.460853
    28 1.099665 -0.000002 -0.000001 0.001953 -0.003741 -0.727540
    29 3.883659 -0.050333 -0.431045 0.106877 -0.073665 -0.993181
    30 1.719576 -0.000013 -0.000003 0.006890 -0.004008 -1.411101
    31 1.209177 -0.000002 -0.000003 0.003530 -0.002726 -1.130131
    32 3.942287 0.050325 0.431041 0.279874 0.036174 -1.245777
    33 1.539104 0.000002 -0.000004 0.000000 0.000000 -1.043759
    34 1.196321 0.000004 0.000004 0.000003 -0.000002 -1.228600
    35 3.859676 -0.132571 1.193106 0.344457 0.138292 -1.575074
    36 1.312571 -0.000002 0.000004 0.000000 0.000000 -0.580528
    37 0.729367 0.000000 -0.000005 0.000000 0.000000 -0.978374
    38 -4.003418 -12.641011 -3.972777 -0.003612 -0.009160 -0.005509
    39 -0.000007 -2.562422 -1.340640 1.570796 0.000000 3.141592
    40 -0.000005 -1.784786 0.363803 1.570796 0.000000 3.141592
    41 -0.000002 1.640970 -1.348884 1.241076 0.000000 3.141592
    42 -0.000004 -0.403343 -3.067159 1.570796 0.000000 3.141592
    43 0.000000 3.034649 -4.869442 1.570796 0.000000 3.141592
  time 10
    0 1.437500 3.820313 -4.980469 1.367756 0.437846 -0.664806
    1 6.028142 -0.000009 0.000000 -1.729156 -0.904829 -0.439732
    2 11.692563 0.000017 0.000007 0.000002 0.000000 -0.882373
    3 11.481678 -0.000021 -0.000026 0.092950 0.245079 0.550384
    4 0.806049 -0.348926 1.321255 -1.285557 -0.482391 -0.836327
    5 1.789782 0.000008 0.000000 -0.036204 -0.507634 0.207512
    6 1.207001 0.000000 0.000000 0.000000 0.000000 -0.099339
    7 3.859859 -0.137941 1.332452 0.220371 0.182989 -0.556456
    8 1.719431 0.000004 -0.000005 -0.003327 0.002349 -1.319039
    9 1.099663 0.000006 -0.000006 -0.001215 0.002294 -0.731179
    10 3.883686 -0.046764 0.431428 0.075188 0.100037 -0.899140
    11 1.719576 0.000013 -0.000007 -0.004128 0.003658 -1.212436
    12 1.209181 0.000002 -0.000001 -0.001162 0.002855 -0.603175
    13 3.942318 0.046774 -0.431457 -0.167073 0.021105 -1.132534
    14 1.539097 0.000000 0.000004 0.000000 0.000000 -1.178726
    15 1.196321 0.000000 0.000000 -0.000001 0.000002 -0.430800
    16 3.859699 -0.142406 -1.191988 -0.459717 -0.176936 -1.511901
    17 1.312572 -0.000002 0.000001 0.000000 0.000000 -0.913975
    18 0.729363 0.000011 0.000000 0.000000 0.000000 -0.749574
    19 -1.937500 4.609375 -5.496094 1.380186 0.205234 -3.734945
    20 6.028141 0.000005 -0.000003 0.875778 1.090457 -0.998719
    21 11.692562 0.000004 0.000010 0.000000 0.000024 -1.908254
    22 11.481714 -0.000034 0.000002 -0.782178 -0.040398 0.906093
    23 0.806011 -0.359833 -1.318336 1.281002 0.188695 -0.782321
    24 1.789787 0.000002 0.000002 -0.234630 0.004987 -0.004830
    25 1.207003 0.000006 -0.000004 0.000000 0.000000 1.203867
    26 3.859829 -0.148937 -1.331286 -0.044932 0.214835 -0.044809
    27 1.719431 -0.000004 -0.000003 0.005727 -0.003305 -1.410867
    28 1.099665 -0.000002 -0.000001 0.001882 -0.003765 -0.710170
    29 3.883659 -0.050333 -0.431045 0.106877 -0.073665 -0.993181
    30 1.719576 -0.000013 -0.000003 0.006890 -0.004008 -1.411101
    31 1.209177 -0.000002 -0.000003 0.003530 -0.002726 -1.130131
    32 3.942287 0.050325 0.431041 0.279874 0.036174 -1.245777
    33 1.539104 0.000002 -0.000004 0.000000 0.000000 -1.043759
    34 1.196321 0.000004 0.000004 0.000003 -0.000002 -1.228624
    35 3.859676 -0.132571 1.193106 0.344457 0.138292 -1.575074
    36 1.312571 -0.000002 0.000004 0.000000 0.000000 -0.580528
    37 0.729367 0.000000 -0.000005 0.000000 0.000000 -0.978374
    38 -4.003418 -12.695700 -3.976684 -0.001272 -0.001391 -0.004661
    39 -0.000007 -2.562422 -1.340640 1.570796 0.000000 3.141592
    40 -0.000005 -1.784786 0.363803 1.570796 0.000000 3.141592
    41 -0.000002 1.640970 -1.348884 1.290944 0.000000 3.141592
    42 -0.000004 -0.403343 -3.067159 1.570796 0.000000 3.141592
    43 0.000000 3.034649 -4.869442 1.570796 0.000000 3.141592
  time 11
    0 1.437500 3.820313 -4.980469 1.367756 0.437846 -0.664806
    1 6.028142 -0.000009 0.000000 -1.729327 -0.908064 -0.439162
    2 11.692563 0.000017 0.000007 0.000002 0.000000 -0.871364
    3 11.481678 -0.000021 -0.000026 0.087265 0.245742 0.544527
    4 0.806049 -0.348926 1.321255 -1.285557 -0.482391 -0.836327
    5 1.789782 0.000008 0.000000 -0.036204 -0.507634 0.207512
    6 1.207001 0.000000 0.000000 0.000000 0.000000 -0.099339
    7 3.859859 -0.137941 1.332452 0.220371 0.182989 -0.556456
    8 1.719431 0.000004 -0.000005 -0.003327 0.002349 -1.319039
    9 1.099663 0.000006 -0.000006 -0.001215 0.002294 -0.731179
    10 3.883686 -0.046764 0.431428 0.075188 0.100037 -0.899140
    11 1.719576 0.000013 -0.000007 -0.004128 0.003658 -1.212436
    12 1.209181 0.000002 -0.000001 -0.001162 0.002855 -0.603175
    13 3.942318 0.046774 -0.431457 -0.167073 0.021105 -1.132534
    14 1.539097 0.000000 0.000004 0.000000 0.000000 -1.178726
    15 1.196321 0.000000 0.000000 -0.000001 0.000002 -0.430800
    16 3.859699 -0.142406 -1.191988 -0.459717 -0.176936 -1.511901
    17 1.312572 -0.000002 0.000001 0.000000 0.000000 -0.913975
    18 0.729363 0.000011 0.000000 0.000000 0.000000 -0.749574
    19 -1.937500 4.609375 -5.496094 1.380186 0.205234 -3.734945
    20 6.028141 0.000005 -0.000003 0.878066 1.094762 -0.999358
    21 11.692562 0.000004 0.000010 0.000000 0.000024 -1.902589
    22 11.481714 -0.000034 0.000002 -0.785052 -0.048675 0.906845
    23 0.806011 -0.359833 -1.318336 1.281002 0.188695 -0.782321
    24 1.789787 0.000002 0.000002 -0.234630 0.004987 -0.004830
    25 1.207003 0.000006 -0.000004 0.000000 0.000000 1.203867
    26 3.859829 -0.148937 -1.331286 -0.046802 0.214440 -0.053476
    27 1.719431 -0.000004 -0.000003 0.005487 -0.003689 -1.342537
    28 1.099665 -0.000002 -0.000001 0.001798 -0.003813 -0.686402
    29 3.883659 -0.050333 -0.431045 0.106877 -0.073665 -0.993181
    30 1.719576 -0.000013 -0.000003 0.006890 -0.004008 -1.411101
    31 1.209177 -0.000002 -0.000003 0.003530 -0.002726 -1.130131
    32 3.942287 0.050325 0.431041 0.279874 0.036174 -1.245777
    33 1.539104 0.000002 -0.000004 0.000000 0.000000 -1.043759
    34 1.196321 0.000004 0.000004 0.000003 -0.000002 -1.228600
    35 3.859676 -0.132571 1.193106 0.344457 0.138292 -1.575074
    36 1.312571 -0.000002 0.000004 0.000000 0.000000 -0.580528
    37 0.729367 0.000000 -0.000005 0.000000 0.000000 -0.978374
    38 -4.003418 -12.769921 -3.980590 0.003459 0.002546 -0.003582
    39 -0.000007 -2.562422 -1.340640 1.570796 0.000000 3.141592
    40 -0.000005 -1.784786 0.363803 1.570796 0.000000 3.141592
    41 -0.000002 1.640970 -1.348884 1.359124 0.000000 3.141592
    42 -0.000004 -0.403343 -3.067159 1.570796 0.000000 3.141592
    43 0.000000 3.034649 -4.869442 1.570796 0.000000 3.141592
  time 12
    0 1.437500 3.820313 -4.980469 1.367756 0.437846 -0.664806
    1 6.028142 -0.000009 0.000000 -1.731227 -0.912270 -0.436905
    2 11.692563 0.000017 0.000007 0.000002 0.000000 -0.858740
    3 11.481678 -0.000021 -0.000026 0.085805 0.246775 0.538798
    4 0.806049 -0.348926 1.321255 -1.285557 -0.482391 -0.836327
    5 1.789782 0.000008 0.000000 -0.036204 -0.507634 0.207512
    6 1.207001 0.000000 0.000000 0.000000 0.000000 -0.099339
    7 3.859859 -0.137941 1.332452 0.220371 0.182989 -0.556456
    8 1.719431 0.000004 -0.000005 -0.003327 0.002349 -1.319039
    9 1.099663 0.000006 -0.000006 -0.001215 0.002294 -0.731179
    10 3.883686 -0.046764 0.431428 0.075188 0.100037 -0.899140
    11 1.719576 0.000013 -0.000007 -0.004128 0.003658 -1.212436
    12 1.209181 0.000002 -0.000001 -0.001162 0.002855 -0.603175
    13 3.942318 0.046774 -0.431457 -0.167073 0.021105 -1.132534
    14 1.539097 0.000000 0.000004 0.000000 0.000000 -1.178726
    15 1.196321 0.000000 0.000000 -0.000001 0.000002 -0.430800
    16 3.859699 -0.142406 -1.191988 -0.459717 -0.176936 -1.511901
    17 1.312572 -0.000002 0.000001 0.000000 0.000000 -0.913975
    18 0.729363 0.000011 0.000000 0.000000 0.000000 -0.749574
    19 -1.937500 4.609375 -5.496094 1.380186 0.205234 -3.734945
    20 6.028141 0.000005 -0.000003 0.876658 1.098539 -1.002641
    21 11.692562 0.000004 0.000010 0.000000 0.000024 -1.895262
    22 11.481714 -0.000034 0.000002 -0.784854 -0.053600 0.904426
    23 0.806011 -0.359833 -1.318336 1.281002 0.188695 -0.782321
    24 1.789787 0.000002 0.000002 -0.234630 0.004987 -0.004830
    25 1.207003 0.000006 -0.000004 0.000000 0.000000 1.203867
    26 3.859829 -0.148937 -1.331286 -0.048815 0.213996 -0.062946
    27 1.719431 -0.000004 -0.000003 0.005199 -0.004084 -1.268070
    28 1.099665 -0.000002 -0.000001 0.001702 -0.003860 -0.660512
    29 3.883659 -0.050333 -0.431045 0.106877 -0.073665 -0.993181
    30 1.719576 -0.000013 -0.000003 0.006890 -0.004008 -1.411101
    31 1.209177 -0.000002 -0.000003 0.003530 -0.002726 -1.130131
    32 3.942287 0.050325 0.431041 0.279874 0.036174 -1.245777
    33 1.539104 0.000002 -0.000004 0.000000 0.000000 -1.043759
    34 1.196321 0.000004 0.000004 0.000003 -0.000002 -1.228600
    35 3.859676 -0.132571 1.193106 0.344457 0.138292 -1.575074
    36 1.312571 -0.000002 0.000004 0.000000 0.000000 -0.580528
    37 0.729367 0.000000 -0.000005 0.000000 0.000000 -0.978374
    38 -4.003418 -12.848048 -3.984497 0.006384 0.002913 -0.002349
    39 -0.000007 -2.562422 -1.340640 1.570796 0.000000 3.141592
    40 -0.000005 -1.784786 0.363803 1.570796 0.000000 3.141592
    41 -0.000002 1.640970 -1.348884 1.433417 0.000000 3.141592
    42 -0.000004 -0.403343 -3.067159 1.570796 0.000000 3.141592
    43 0.000000 3.034649 -4.869442 1.570796 0.000000 3.141592
  time 13
    0 1.437500 3.820313 -4.980469 1.367756 0.437846 -0.664806
    1 6.028142 -0.000009 0.000000 -1.734905 -0.918052 -0.432982
    2 11.692563 0.000017 0.000007 0.000002 0.000000 -0.844869
    3 11.481678 -0.000021 -0.000026 0.087188 0.246755 0.531074
    4 0.806049 -0.348926 1.321255 -1.285557 -0.482391 -0.836327
    5 1.789782 0.000008 0.000000 -0.036204 -0.507634 0.207512
    6 1.207001 0.000000 0.000000 0.000000 0.000000 -0.099339
    7 3.859859 -0.137941 1.332452 0.220371 0.182989 -0.556456
    8 1.719431 0.000004 -0.000005 -0.003327 0.002349 -1.319039
    9 1.099663 0.000006 -0.000006 -0.001215 0.002294 -0.731179
    10 3.883686 -0.046764 0.431428 0.075188 0.100037 -0.899140
    11 1.719576 0.000013 -0.000007 -0.004128 0.003658 -1.212436
    12 1.209181 0.000002 -0.000001 -0.001162 0.002855 -0.603175
    13 3.942318 0.046774 -0.431457 -0.167073 0.021105 -1.132534
    14 1.539097 0.000000 0.000004 0.000000 0.000000 -1.178726
    15 1.196321 0.000000 0.000000 -0.000001 0.000002 -0.430800
    16 3.859699 -0.142406 -1.191988 -0.459717 -0.176936 -1.511901
    17 1.312572 -0.000002 0.000001 0.000000 0.000000 -0.913975
    18 0.729363 0.000011 0.000000 0.000000 0.000000 -0.749574
    19 -1.937500 4.609375 -5.496094 1.380186 0.205234 -3.734945
    20 6.028141 0.000005 -0.000003 0.872141 1.100529 -1.007885
    21 11.692562 0.000004 0.000010 0.000000 0.000024 -1.886519
    22 11.481714 -0.000034 0.000002 -0.784606 -0.053169 0.896908
    23 0.806011 -0.359833 -1.318336 1.281002 0.188695 -0.782321
    24 1.789787 0.000002 0.000002 -0.234630 0.004987 -0.004830
    25 1.207003 0.000006 -0.000004 0.000000 0.000000 1.203867
    26 3.859829 -0.148937 -1.331286 -0.050634 0.213577 -0.071644
    27 1.719431 -0.000004 -0.000003 0.004900 -0.004432 -1.199705
    28 1.099665 -0.000002 -0.000001 0.001606 -0.003896 -0.636744
    29 3.883659 -0.050333 -0.431045 0.106877 -0.073665 -0.993181
    30 1.719576 -0.000013 -0.000003 0.006890 -0.004008 -1.411101
    31 1.209177 -0.000002 -0.000003 0.003530 -0.002726 -1.130131
    32 3.942287 0.050325 0.431041 0.279874 0.036174 -1.245777
    33 1.539104 0.000002 -0.000004 0.000000 0.000000 -1.043759
    34 1.196321 0.000004 0.000004 0.000003 -0.000002 -1.228600
    35 3.859676 -0.132571 1.193106 0.344457 0.138292 -1.575074
    36 1.312571 -0.000002 0.000004 0.000000 0.000000 -0.580528
    37 0.729367 0.000000 -0.000005 0.000000 0.000000 -0.978374
    38 -4.003418 -12.922269 -3.992309 0.005010 0.001942 -0.001193
    39 -0.000007 -2.562422 -1.340640 1.570796 0.000000 3.141592
    40 -0.000005 -1.784786 0.363803 1.570796 0.000000 3.141592
    41 -0.000002 1.640970 -1.348884 1.501597 0.000000 3.141592
    42 -0.000004 -0.403343 -3.067159 1.570796 0.000000 3.141592
    43 0.000000 3.034649 -4.869442 1.570796 0.000000 3.141592
  time 14
    0 1.437500 3.820313 -4.980469 1.367756 0.437846 -0.664806
    1 6.028142 -0.000009 0.000000 -1.738656 -0.923269 -0.429060
    2 11.692563 0.000017 0.000007 0.000002 0.000000 -0.833493
    3 11.481678 -0.000021 -0.000026 0.089646 0.246210 0.523986
    4 0.806049 -0.348926 1.321255 -1.285557 -0.482391 -0.836327
    5 1.789782 0.000008 0.000000 -0.036204 -0.507634 0.207512
    6 1.207001 0.000000 0.000000 0.000000 0.000000 -0.099339
    7 3.859859 -0.137941 1.332452 0.220371 0.182989 -0.556456
    8 1.719431 0.000004 -0.000005 -0.003327 0.002349 -1.319039
    9 1.099663 0.000006 -0.000006 -0.001215 0.002294 -0.731179
    10 3.883686 -0.046764 0.431428 0.075188 0.100037 -0.899140
    11 1.719576 0.000013 -0.000007 -0.004128 0.003658 -1.212436
    12 1.209181 0.000002 -0.000001 -0.001162 0.002855 -0.603175
    13 3.942318 0.046774 -0.431457 -0.167073 0.021105 -1.132534
    14 1.539097 0.000000 0.000004 0.000000 0.000000 -1.178726
    15 1.196321 0.000000 0.000000 -0.000001 0.000002 -0.430800
    16 3.859699 -0.142406 -1.191988 -0.459717 -0.176936 -1.511901
    17 1.312572 -0.000002 0.000001 0.000000 0.000000 -0.913975
    18 0.729363 0.000011 0.000000 0.000000 0.000000 -0.749574
    19 -1.937500 4.609375 -5.496094 1.380186 0.205234 -3.734945
    20 6.028141 0.000005 -0.000003 0.867272 1.101260 -1.012873
    21 11.692562 0.000004 0.000010 0.000000 0.000024 -1.879130
    22 11.481714 -0.000034 0.000002 -0.784507 -0.050198 0.888573
    23 0.806011 -0.359833 -1.318336 1.281002 0.188695 -0.782321
    24 1.789787 0.000002 0.000002 -0.234630 0.004987 -0.004830
    25 1.207003 0.000006 -0.000004 0.000000 0.000000 1.203867
    26 3.859829 -0.148937 -1.331286 -0.051963 0.213265 -0.077967
    27 1.719431 -0.000004 -0.000003 0.004672 -0.004671 -1.149719
    28 1.099665 -0.000002 -0.000001 0.001534 -0.003920 -0.619358
    29 3.883659 -0.050333 -0.431045 0.106877 -0.073665 -0.993181
    30 1.719576 -0.000013 -0.000003 0.006890 -0.004008 -1.411101
    31 1.209177 -0.000002 -0.000003 0.003530 -0.002726 -1.130131
    32 3.942287 0.050325 0.431041 0.279874 0.036174 -1.245777
    33 1.539104 0.000002 -0.000004 0.000000 0.000000 -1.043759
    34 1.196321 0.000004 0.000004 0.000003 -0.000002 -1.228600
    35 3.859676 -0.132571 1.193106 0.344457 0.138292 -1.575074
    36 1.312571 -0.000002 0.000004 0.000000 0.000000 -0.580528
    37 0.729367 0.000000 -0.000005 0.000000 0.000000 -0.978374
    38 -4.003418 -12.976959 -3.996216 0.001780 0.000630 -0.000346
    39 -0.000007 -2.562422 -1.340640 1.570796 0.000000 3.141592
    40 -0.000005 -1.784786 0.363803 1.570796 0.000000 3.141592
    41 -0.000002 1.640970 -1.348884 1.551465 0.000000 3.141592
    42 -0.000004 -0.403343 -3.067159 1.570796 0.000000 3.141592
    43 0.000000 3.034649 -4.869442 1.570796 0.000000 3.141592
  time 15
    0 1.437500 3.820313 -4.980469 1.367756 0.437846 -0.664806
    1 6.028142 -0.000009 0.000000 -1.740386 -0.925533 -0.427282
    2 11.692563 0.000017 0.000007 0.000002 0.000000 -0.828723
    3 11.481678 -0.000021 -0.000026 0.090952 0.245859 0.520930
    4 0.806049 -0.348926 1.321255 -1.285557 -0.482391 -0.836327
    5 1.789782 0.000008 0.000000 -0.036204 -0.507634 0.207512
    6 1.207001 0.000000 0.000000 0.000000 0.000000 -0.099339
    7 3.859859 -0.137941 1.332452 0.220371 0.182989 -0.556456
    8 1.719431 0.000004 -0.000005 -0.003327 0.002349 -1.319039
    9 1.099663 0.000006 -0.000006 -0.001215 0.002294 -0.731179
    10 3.883686 -0.046764 0.431428 0.075188 0.100037 -0.899140
    11 1.719576 0.000013 -0.000007 -0.004128 0.003658 -1.212436
    12 1.209181 0.000002 -0.000001 -0.001162 0.002855 -0.603175
    13 3.942318 0.046774 -0.431457 -0.167073 0.021105 -1.132534
    14 1.539097 0.000000 0.000004 0.000000 0.000000 -1.178726
    15 1.196321 0.000000 0.000000 -0.000001 0.000002 -0.430800
    16 3.859699 -0.142406 -1.191988 -0.459717 -0.176936 -1.511901
    17 1.312572 -0.000002 0.000001 0.000000 0.000000 -0.913975
    18 0.729363 0.000011 0.000000 0.000000 0.000000 -0.749574
    19 -1.937500 4.609375 -5.496094 1.380186 0.205234 -3.734945
    20 6.028141 0.000005 -0.000003 0.864926 1.101341 -1.015090
    21 11.692562 0.000004 0.000010 0.000000 0.000024 -1.875990
    22 11.481714 -0.000034 0.000002 -0.784507 -0.048396 0.884651
    23 0.806011 -0.359833 -1.318336 1.281002 0.188695 -0.782321
    24 1.789787 0.000002 0.000002 -0.234630 0.004987 -0.004830
    25 1.207003 0.000006 -0.000004 0.000000 0.000000 1.203867
    26 3.859829 -0.148937 -1.331286 -0.052466 0.213134 -0.080435
    27 1.719431 -0.000004 -0.000003 0.004588 -0.004767 -1.130352
    28 1.099665 -0.000002 -0.000001 0.001510 -0.003932 -0.612630
    29 3.883659 -0.050333 -0.431045 0.106877 -0.073665 -0.993181
    30 1.719576 -0.000013 -0.000003 0.006890 -0.004008 -1.411133
    31 1.209177 -0.000002 -0.000003 0.003530 -0.002726 -1.130131
    32 3.942287 0.050325 0.431041 0.279874 0.036174 -1.245777
    33 1.539104 0.000002 -0.000004 0.000000 0.000000 -1.043759
    34 1.196321 0.000004 0.000004 0.000003 -0.000002 -1.228600
    35 3.859676 -0.132571 1.193106 0.344457 0.138292 -1.575074
    36 1.312571 -0.000002 0.000004 0.000000 0.000000 -0.580528
    37 0.729367 0.000000 -0.000005 0.000000 0.000000 -0.978374
    38 -4.003418 -12.996490 -3.996216 0.000000 0.000000 -0.000037
    39 -0.000007 -2.562422 -1.340640 1.570796 0.000000 3.141592
    40 -0.000005 -1.784786 0.363803 1.570796 0.000000 3.141592
    41 -0.000002 1.640970 -1.348884 1.570796 0.000000 3.141592
    42 -0.000004 -0.403343 -3.067159 1.570796 0.000000 3.141592
    43 0.000000 3.034649 -4.869442 1.570796 0.000000 3.141592
end
