// Created by Crowbar++ 0.74
version 1
nodes
  0 "ValveBiped.Bip01_L_Clavicle" -1
  1 "ValveBiped.Bip01_L_UpperArm" 0
  2 "ValveBiped.Bip01_L_Forearm" 1
  3 "ValveBiped.Bip01_L_Hand" 2
  4 "ValveBiped.Bip01_L_Finger0" 3
  5 "ValveBiped.Bip01_L_Finger01" 4
  6 "ValveBiped.Bip01_L_Finger02" 5
  7 "ValveBiped.Bip01_L_Finger1" 3
  8 "ValveBiped.Bip01_L_Finger11" 7
  9 "ValveBiped.Bip01_L_Finger12" 8
  10 "ValveBiped.Bip01_L_Finger2" 3
  11 "ValveBiped.Bip01_L_Finger21" 10
  12 "ValveBiped.Bip01_L_Finger22" 11
  13 "ValveBiped.Bip01_L_Finger3" 3
  14 "ValveBiped.Bip01_L_Finger31" 13
  15 "ValveBiped.Bip01_L_Finger32" 14
  16 "ValveBiped.Bip01_L_Finger4" 3
  17 "ValveBiped.Bip01_L_Finger41" 16
  18 "ValveBiped.Bip01_L_Finger42" 17
  19 "ValveBiped.Bip01_R_Clavicle" -1
  20 "ValveBiped.Bip01_R_UpperArm" 19
  21 "ValveBiped.Bip01_R_Forearm" 20
  22 "ValveBiped.Bip01_R_Hand" 21
  23 "ValveBiped.Bip01_R_Finger0" 22
  24 "ValveBiped.Bip01_R_Finger01" 23
  25 "ValveBiped.Bip01_R_Finger02" 24
  26 "ValveBiped.Bip01_R_Finger1" 22
  27 "ValveBiped.Bip01_R_Finger11" 26
  28 "ValveBiped.Bip01_R_Finger12" 27
  29 "ValveBiped.Bip01_R_Finger2" 22
  30 "ValveBiped.Bip01_R_Finger21" 29
  31 "ValveBiped.Bip01_R_Finger22" 30
  32 "ValveBiped.Bip01_R_Finger3" 22
  33 "ValveBiped.Bip01_R_Finger31" 32
  34 "ValveBiped.Bip01_R_Finger32" 33
  35 "ValveBiped.Bip01_R_Finger4" 22
  36 "ValveBiped.Bip01_R_Finger41" 35
  37 "ValveBiped.Bip01_R_Finger42" 36
  38 "control" -1
  39 "v_weapon.AK47_Clip" 38
  40 "v_weapon.AK47_Bolt" 38
  41 "v_weapon.AK47_Trigger" 38
  42 "v_weapon.AK47_ClipRelease" 38
  43 "v_weapon.AK47_Parent" 38
end
skeleton
  time 0
    0 1.437500 3.820313 -4.980469 1.367756 0.437846 -0.664806
    1 6.028142 -0.000009 0.000000 -1.740386 -0.925533 -0.427282
    2 11.692563 0.000017 0.000007 0.000002 0.000000 -0.828723
    3 11.481678 -0.000021 -0.000026 0.090952 0.245859 0.520930
    4 0.806049 -0.348926 1.321255 -1.285557 -0.482391 -0.836327
    5 1.789782 0.000008 0.000000 -0.036204 -0.507634 0.207512
    6 1.207001 0.000000 0.000000 0.000000 0.000000 -0.099339
    7 3.859859 -0.137941 1.332452 0.220371 0.182989 -0.556456
    8 1.719431 0.000004 -0.000005 -0.003327 0.002349 -1.319039
    9 1.099663 0.000006 -0.000006 -0.001215 0.002294 -0.731179
    10 3.883686 -0.046764 0.431428 0.075188 0.100037 -0.899140
    11 1.719576 0.000013 -0.000007 -0.004128 0.003658 -1.212436
    12 1.209181 0.000002 -0.000001 -0.001162 0.002855 -0.603175
    13 3.942318 0.046774 -0.431457 -0.167073 0.021105 -1.132534
    14 1.539097 0.000000 0.000004 0.000000 0.000000 -1.178726
    15 1.196321 0.000000 0.000000 -0.000001 0.000002 -0.430800
    16 3.859699 -0.142406 -1.191988 -0.459717 -0.176936 -1.511901
    17 1.312572 -0.000002 0.000001 0.000000 0.000000 -0.913975
    18 0.729363 0.000011 0.000000 0.000000 0.000000 -0.749574
    19 -1.937500 4.609375 -5.496094 1.380186 0.205234 -3.734945
    20 6.028141 0.000005 -0.000003 0.864926 1.101341 -1.015090
    21 11.692562 0.000004 0.000010 0.000000 0.000024 -1.875990
    22 11.481714 -0.000034 0.000002 -0.784507 -0.048396 0.884651
    23 0.806011 -0.359833 -1.318336 1.281002 0.188695 -0.782321
    24 1.789787 0.000002 0.000002 -0.234630 0.004987 -0.004830
    25 1.207003 0.000006 -0.000004 0.000000 0.000000 1.203867
    26 3.859829 -0.148937 -1.331286 -0.043023 0.215207 -0.035988
    27 1.719431 -0.000004 -0.000003 0.005942 -0.002898 -1.480254
    28 1.099665 -0.000002 -0.000001 0.001977 -0.003717 -0.734284
    29 3.883659 -0.050333 -0.431045 0.106877 -0.073665 -0.993181
    30 1.719576 -0.000013 -0.000003 0.006890 -0.004008 -1.411133
    31 1.209177 -0.000002 -0.000003 0.003530 -0.002726 -1.130131
    32 3.942287 0.050325 0.431041 0.279874 0.036174 -1.245777
    33 1.539104 0.000002 -0.000004 0.000000 0.000000 -1.043759
    34 1.196321 0.000004 0.000004 0.000003 -0.000002 -1.228600
    35 3.859676 -0.132571 1.193106 0.344457 0.138292 -1.575074
    36 1.312571 -0.000002 0.000004 0.000000 0.000000 -0.580528
    37 0.729367 0.000000 -0.000005 0.000000 0.000000 -0.978374
    38 -4.003418 -12.996490 -3.996216 0.000000 0.000000 -0.000037
    39 -0.000007 -2.562422 -1.340640 1.570796 0.000000 3.141592
    40 -0.000005 -1.784786 0.363803 1.570796 0.000000 3.141592
    41 -0.000002 1.640970 -1.348884 1.221733 0.000000 3.141592
    42 -0.000004 -0.403343 -3.067159 1.570796 0.000000 3.141592
    43 0.000000 3.034649 -4.869442 1.570796 0.000000 3.141592
  time 1
    0 1.437500 3.820313 -4.980469 1.367756 0.437846 -0.664806
    1 6.028142 -0.000009 0.000000 -1.676174 -0.821973 -0.493161
    2 11.692563 0.000017 0.000007 0.000002 0.000000 -1.056388
    3 11.481678 -0.000021 -0.000026 0.029337 0.231926 0.654280
    4 0.806049 -0.348926 1.321255 -1.285557 -0.482391 -0.836327
    5 1.789782 0.000008 0.000000 -0.036204 -0.507634 0.207512
    6 1.207001 0.000000 0.000000 0.000000 0.000000 -0.099339
    7 3.859859 -0.137941 1.332452 0.220371 0.182989 -0.556456
    8 1.719431 0.000004 -0.000005 -0.003327 0.002349 -1.319039
    9 1.099663 0.000006 -0.000006 -0.001215 0.002294 -0.731179
    10 3.883686 -0.046764 0.431428 0.075188 0.100037 -0.899140
    11 1.719576 0.000013 -0.000007 -0.004128 0.003658 -1.212436
    12 1.209181 0.000002 -0.000001 -0.001162 0.002855 -0.603175
    13 3.942318 0.046774 -0.431457 -0.167073 0.021105 -1.132534
    14 1.539097 0.000000 0.000004 0.000000 0.000000 -1.178726
    15 1.196321 0.000000 0.000000 -0.000001 0.000002 -0.430800
    16 3.859699 -0.142406 -1.191988 -0.459717 -0.176936 -1.511901
    17 1.312572 -0.000002 0.000001 0.000000 0.000000 -0.913975
    18 0.729363 0.000011 0.000000 0.000000 0.000000 -0.749574
    19 -1.937500 4.609375 -5.496094 1.380186 0.205234 -3.734945
    20 6.028141 0.000005 -0.000003 0.983303 1.076731 -0.905819
    21 11.692562 0.000004 0.000010 0.000000 0.000024 -2.020006
    22 11.481714 -0.000034 0.000002 -0.813051 -0.121362 1.015298
    23 0.806011 -0.359833 -1.318336 1.281002 0.188695 -0.782321
    24 1.789787 0.000002 0.000002 -0.234630 0.004987 -0.004830
    25 1.207003 0.000006 -0.000004 0.000000 0.000000 1.203867
    26 3.859829 -0.148937 -1.331286 -0.043023 0.215207 -0.035988
    27 1.719431 -0.000004 -0.000003 0.005942 -0.002898 -1.480254
    28 1.099665 -0.000002 -0.000001 0.001977 -0.003717 -0.734284
    29 3.883659 -0.050333 -0.431045 0.106877 -0.073665 -0.993181
    30 1.719576 -0.000013 -0.000003 0.006890 -0.004008 -1.411101
    31 1.209177 -0.000002 -0.000003 0.003530 -0.002726 -1.130131
    32 3.942287 0.050325 0.431041 0.279874 0.036174 -1.245777
    33 1.539104 0.000002 -0.000004 0.000000 0.000000 -1.043759
    34 1.196321 0.000004 0.000004 0.000003 -0.000002 -1.228600
    35 3.859676 -0.132571 1.193106 0.344457 0.138292 -1.575074
    36 1.312571 -0.000002 0.000004 0.000000 0.000000 -0.580528
    37 0.729367 0.000000 -0.000005 0.000000 0.000000 -0.978374
    38 -4.003418 -11.824580 -3.890744 0.049875 0.042728 0.004510
    39 -0.000007 -2.562422 -1.340640 1.570796 0.000000 3.141592
    40 -0.000005 3.188022 0.512245 1.570796 0.000000 3.141592
    41 -0.000002 1.640970 -1.348884 1.221733 0.000000 3.141592
    42 -0.000004 -0.403343 -3.067159 1.570796 0.000000 3.141592
    43 0.000000 3.034649 -4.869442 1.570796 0.000000 3.141592
  time 2
    0 1.437500 3.820313 -4.980469 1.367756 0.437846 -0.664806
    1 6.028142 -0.000009 0.000000 -1.711885 -0.838107 -0.461396
    2 11.692563 0.000017 0.000007 0.000002 0.000000 -1.046040
    3 11.481678 -0.000021 -0.000026 0.109929 0.238941 0.675755
    4 0.806049 -0.348926 1.321255 -1.285557 -0.482391 -0.836327
    5 1.789782 0.000008 0.000000 -0.036204 -0.507634 0.207512
    6 1.207001 0.000000 0.000000 0.000000 0.000000 -0.099339
    7 3.859859 -0.137941 1.332452 0.220371 0.182989 -0.556456
    8 1.719431 0.000004 -0.000005 -0.003327 0.002349 -1.319039
    9 1.099663 0.000006 -0.000006 -0.001215 0.002294 -0.731179
    10 3.883686 -0.046764 0.431428 0.075188 0.100037 -0.899140
    11 1.719576 0.000013 -0.000007 -0.004128 0.003658 -1.212436
    12 1.209181 0.000002 -0.000001 -0.001162 0.002855 -0.603175
    13 3.942318 0.046774 -0.431457 -0.167073 0.021105 -1.132534
    14 1.539097 0.000000 0.000004 0.000000 0.000000 -1.178726
    15 1.196321 0.000000 0.000000 -0.000001 0.000002 -0.430800
    16 3.859699 -0.142406 -1.191988 -0.459717 -0.176936 -1.511901
    17 1.312572 -0.000002 0.000001 0.000000 0.000000 -0.913975
    18 0.729363 0.000011 0.000000 0.000000 0.000000 -0.749574
    19 -1.937500 4.609375 -5.496094 1.380186 0.205234 -3.734945
    20 6.028141 0.000005 -0.000003 0.930919 1.072142 -0.940950
    21 11.692562 0.000004 0.000010 0.000000 0.000024 -1.998948
    22 11.481714 -0.000034 0.000002 -0.752198 -0.067919 0.961398
    23 0.806011 -0.359833 -1.318336 1.281002 0.188695 -0.782321
    24 1.789787 0.000002 0.000002 -0.234630 0.004987 -0.004830
    25 1.207003 0.000006 -0.000004 0.000000 0.000000 1.203867
    26 3.859829 -0.148937 -1.331286 -0.043023 0.215207 -0.035988
    27 1.719431 -0.000004 -0.000003 0.005942 -0.002898 -1.480254
    28 1.099665 -0.000002 -0.000001 0.001977 -0.003717 -0.734284
    29 3.883659 -0.050333 -0.431045 0.106877 -0.073665 -0.993181
    30 1.719576 -0.000013 -0.000003 0.006890 -0.004008 -1.411101
    31 1.209177 -0.000002 -0.000003 0.003530 -0.002726 -1.130131
    32 3.942287 0.050325 0.431041 0.279874 0.036174 -1.245777
    33 1.539104 0.000002 -0.000004 0.000000 0.000000 -1.043759
    34 1.196321 0.000004 0.000004 0.000003 -0.000002 -1.228600
    35 3.859676 -0.132571 1.193106 0.344457 0.138292 -1.575074
    36 1.312571 -0.000002 0.000004 0.000000 0.000000 -0.580528
    37 0.729367 0.000000 -0.000005 0.000000 0.000000 -0.978374
    38 -4.003418 -11.867550 -3.785272 0.013378 -0.023910 0.009056
    39 -0.000007 -2.562422 -1.340640 1.570796 0.000000 3.141592
    40 -0.000005 3.188022 0.512245 1.570796 0.000000 3.141592
    41 -0.000002 1.640970 -1.348884 1.221733 0.000000 3.141592
    42 -0.000004 -0.403343 -3.067159 1.570796 0.000000 3.141592
    43 0.000000 3.034649 -4.869442 1.570796 0.000000 3.141592
  time 3
    0 1.437500 3.820313 -4.980469 1.367756 0.437846 -0.664806
    1 6.028142 -0.000009 0.000000 -1.724674 -0.864230 -0.448626
    2 11.692563 0.000017 0.000007 0.000002 0.000000 -1.004866
    3 11.481678 -0.000021 -0.000026 0.108008 0.226996 0.625293
    4 0.806049 -0.348926 1.321255 -1.285557 -0.482391 -0.836327
    5 1.789782 0.000008 0.000000 -0.036204 -0.507634 0.207512
    6 1.207001 0.000000 0.000000 0.000000 0.000000 -0.099339
    7 3.859859 -0.137941 1.332452 0.220371 0.182989 -0.556456
    8 1.719431 0.000004 -0.000005 -0.003327 0.002349 -1.319039
    9 1.099663 0.000006 -0.000006 -0.001215 0.002294 -0.731179
    10 3.883686 -0.046764 0.431428 0.075188 0.100037 -0.899140
    11 1.719576 0.000013 -0.000007 -0.004128 0.003658 -1.212436
    12 1.209181 0.000002 -0.000001 -0.001162 0.002855 -0.603175
    13 3.942318 0.046774 -0.431457 -0.167073 0.021105 -1.132534
    14 1.539097 0.000000 0.000004 0.000000 0.000000 -1.178726
    15 1.196321 0.000000 0.000000 -0.000001 0.000002 -0.430800
    16 3.859699 -0.142406 -1.191988 -0.459717 -0.176936 -1.511901
    17 1.312572 -0.000002 0.000001 0.000000 0.000000 -0.913975
    18 0.729363 0.000011 0.000000 0.000000 0.000000 -0.749574
    19 -1.937500 4.609375 -5.496094 1.380186 0.205234 -3.734945
    20 6.028141 0.000005 -0.000003 0.912147 1.063289 -0.957150
    21 11.692562 0.000004 0.000010 0.000000 0.000024 -1.971857
    22 11.481714 -0.000034 0.000002 -0.780047 -0.030573 0.912499
    23 0.806011 -0.359833 -1.318336 1.281002 0.188695 -0.782321
    24 1.789787 0.000002 0.000002 -0.234630 0.004987 -0.004830
    25 1.207003 0.000006 -0.000004 0.000000 0.000000 1.203867
    26 3.859829 -0.148937 -1.331286 -0.043023 0.215207 -0.035988
    27 1.719431 -0.000004 -0.000003 0.005942 -0.002898 -1.480220
    28 1.099665 -0.000002 -0.000001 0.001977 -0.003717 -0.734284
    29 3.883659 -0.050333 -0.431045 0.106877 -0.073665 -0.993181
    30 1.719576 -0.000013 -0.000003 0.006890 -0.004008 -1.411101
    31 1.209177 -0.000002 -0.000003 0.003530 -0.002726 -1.130131
    32 3.942287 0.050325 0.431041 0.279874 0.036174 -1.245777
    33 1.539104 0.000002 -0.000004 0.000000 0.000000 -1.043759
    34 1.196321 0.000004 0.000004 0.000003 -0.000002 -1.228600
    35 3.859676 -0.132571 1.193106 0.344457 0.138292 -1.575074
    36 1.312571 -0.000002 0.000004 0.000000 0.000000 -0.580528
    37 0.729367 0.000000 -0.000005 0.000000 0.000000 -0.978374
    38 -4.003418 -11.984741 -3.796991 -0.023119 -0.007847 0.006744
    39 -0.000007 -2.562422 -1.340640 1.570796 0.000000 3.141592
    40 -0.000005 0.699665 0.438024 1.570796 0.000000 3.141592
    41 -0.000002 1.640970 -1.348884 1.221733 0.000000 3.141592
    42 -0.000004 -0.403343 -3.067159 1.570796 0.000000 3.141592
    43 0.000000 3.034649 -4.869442 1.570796 0.000000 3.141592
  time 4
    0 1.437500 3.820313 -4.980469 1.367756 0.437846 -0.664806
    1 6.028142 -0.000009 0.000000 -1.717147 -0.871468 -0.454281
    2 11.692563 0.000017 0.000007 0.000002 0.000000 -0.977417
    3 11.481678 -0.000021 -0.000026 0.081042 0.230815 0.602162
    4 0.806049 -0.348926 1.321255 -1.285557 -0.482391 -0.836327
    5 1.789782 0.000008 0.000000 -0.036204 -0.507634 0.207512
    6 1.207001 0.000000 0.000000 0.000000 0.000000 -0.099339
    7 3.859859 -0.137941 1.332452 0.220371 0.182989 -0.556456
    8 1.719431 0.000004 -0.000005 -0.003327 0.002349 -1.319039
    9 1.099663 0.000006 -0.000006 -0.001215 0.002294 -0.731179
    10 3.883686 -0.046764 0.431428 0.075188 0.100037 -0.899140
    11 1.719576 0.000013 -0.000007 -0.004128 0.003658 -1.212436
    12 1.209181 0.000002 -0.000001 -0.001162 0.002855 -0.603175
    13 3.942318 0.046774 -0.431457 -0.167073 0.021105 -1.132534
    14 1.539097 0.000000 0.000004 0.000000 0.000000 -1.178726
    15 1.196321 0.000000 0.000000 -0.000001 0.000002 -0.430800
    16 3.859699 -0.142406 -1.191988 -0.459717 -0.176936 -1.511901
    17 1.312572 -0.000002 0.000001 0.000000 0.000000 -0.913975
    18 0.729363 0.000011 0.000000 0.000000 0.000000 -0.749574
    19 -1.937500 4.609375 -5.496094 1.380186 0.205234 -3.734945
    20 6.028141 0.000005 -0.000003 0.921005 1.074457 -0.955573
    21 11.692562 0.000004 0.000010 0.000000 0.000024 -1.962991
    22 11.481714 -0.000034 0.000002 -0.796450 -0.050427 0.929169
    23 0.806011 -0.359833 -1.318336 1.281002 0.188695 -0.782321
    24 1.789787 0.000002 0.000002 -0.234630 0.004987 -0.004830
    25 1.207003 0.000006 -0.000004 0.000000 0.000000 1.203867
    26 3.859829 -0.148937 -1.331286 -0.043023 0.215207 -0.035988
    27 1.719431 -0.000004 -0.000003 0.005942 -0.002898 -1.480254
    28 1.099665 -0.000002 -0.000001 0.001977 -0.003717 -0.734284
    29 3.883659 -0.050333 -0.431045 0.106877 -0.073665 -0.993181
    30 1.719576 -0.000013 -0.000003 0.006890 -0.004008 -1.411101
    31 1.209177 -0.000002 -0.000003 0.003530 -0.002726 -1.130131
    32 3.942287 0.050325 0.431041 0.279874 0.036174 -1.245777
    33 1.539104 0.000002 -0.000004 0.000000 0.000000 -1.043759
    34 1.196321 0.000004 0.000004 0.000003 -0.000002 -1.228600
    35 3.859676 -0.132571 1.193106 0.344457 0.138292 -1.575074
    36 1.312571 -0.000002 0.000004 0.000000 0.000000 -0.580528
    37 0.729367 0.000000 -0.000005 0.000000 0.000000 -0.978374
    38 -4.003418 -12.152715 -3.824335 -0.007249 0.013333 0.001658
    39 -0.000007 -2.562422 -1.340640 1.570796 0.000000 3.141592
    40 -0.000005 -1.784786 0.363803 1.570796 0.000000 3.141592
    41 -0.000002 1.640970 -1.348884 1.221733 0.000000 3.141592
    42 -0.000004 -0.403343 -3.067159 1.570796 0.000000 3.141592
    43 0.000000 3.034649 -4.869442 1.570796 0.000000 3.141592
  time 5
    0 1.437500 3.820313 -4.980469 1.367756 0.437846 -0.664806
    1 6.028142 -0.000009 0.000000 -1.712762 -0.877938 -0.457131
    2 11.692563 0.000017 0.000007 0.000002 0.000000 -0.948941
    3 11.481678 -0.000021 -0.000026 0.071285 0.241611 0.589982
    4 0.806049 -0.348926 1.321255 -1.285557 -0.482391 -0.836327
    5 1.789782 0.000008 0.000000 -0.036204 -0.507634 0.207512
    6 1.207001 0.000000 0.000000 0.000000 0.000000 -0.099339
    7 3.859859 -0.137941 1.332452 0.220371 0.182989 -0.556456
    8 1.719431 0.000004 -0.000005 -0.003327 0.002349 -1.319039
    9 1.099663 0.000006 -0.000006 -0.001215 0.002294 -0.731179
    10 3.883686 -0.046764 0.431428 0.075188 0.100037 -0.899140
    11 1.719576 0.000013 -0.000007 -0.004128 0.003658 -1.212436
    12 1.209181 0.000002 -0.000001 -0.001162 0.002855 -0.603175
    13 3.942318 0.046774 -0.431457 -0.167073 0.021105 -1.132534
    14 1.539097 0.000000 0.000004 0.000000 0.000000 -1.178726
    15 1.196321 0.000000 0.000000 -0.000001 0.000002 -0.430800
    16 3.859699 -0.142406 -1.191988 -0.459717 -0.176936 -1.511901
    17 1.312572 -0.000002 0.000001 0.000000 0.000000 -0.913975
    18 0.729363 0.000011 0.000000 0.000000 0.000000 -0.749574
    19 -1.937500 4.609375 -5.496094 1.380186 0.205234 -3.734945
    20 6.028141 0.000005 -0.000003 0.917310 1.088305 -0.962650
    21 11.692562 0.000004 0.000010 0.000000 0.000024 -1.951415
    22 11.481714 -0.000034 0.000002 -0.793031 -0.066523 0.947899
    23 0.806011 -0.359833 -1.318336 1.281002 0.188695 -0.782321
    24 1.789787 0.000002 0.000002 -0.234630 0.004987 -0.004830
    25 1.207003 0.000006 -0.000004 0.000000 0.000000 1.203867
    26 3.859829 -0.148937 -1.331286 -0.043023 0.215207 -0.035988
    27 1.719431 -0.000004 -0.000003 0.005942 -0.002898 -1.480254
    28 1.099665 -0.000002 -0.000001 0.001977 -0.003717 -0.734284
    29 3.883659 -0.050333 -0.431045 0.106877 -0.073665 -0.993181
    30 1.719576 -0.000013 -0.000003 0.006890 -0.004008 -1.411101
    31 1.209177 -0.000002 -0.000003 0.003530 -0.002726 -1.130131
    32 3.942287 0.050325 0.431041 0.279874 0.036174 -1.245777
    33 1.539104 0.000002 -0.000004 0.000000 0.000000 -1.043759
    34 1.196321 0.000004 0.000004 0.000003 -0.000002 -1.228600
    35 3.859676 -0.132571 1.193106 0.344457 0.138292 -1.575074
    36 1.312571 -0.000002 0.000004 0.000000 0.000000 -0.580528
    37 0.729367 0.000000 -0.000005 0.000000 0.000000 -0.978374
    38 -4.003418 -12.351939 -3.863399 0.012462 0.015774 -0.003659
    39 -0.000007 -2.562422 -1.340640 1.570796 0.000000 3.141592
    40 -0.000005 -1.542591 0.363803 1.570796 0.000000 3.141592
    41 -0.000002 1.640970 -1.348884 1.221733 0.000000 3.141592
    42 -0.000004 -0.403343 -3.067159 1.570796 0.000000 3.141592
    43 0.000000 3.034649 -4.869442 1.570796 0.000000 3.141592
  time 6
    0 1.437500 3.820313 -4.980469 1.367756 0.437846 -0.664806
    1 6.028142 -0.000009 0.000000 -1.720021 -0.893021 -0.449150
    2 11.692563 0.000017 0.000007 0.000002 0.000000 -0.910556
    3 11.481678 -0.000021 -0.000026 0.080197 0.247184 0.569271
    4 0.806049 -0.348926 1.321255 -1.285557 -0.482391 -0.836327
    5 1.789782 0.000008 0.000000 -0.036204 -0.507634 0.207512
    6 1.207001 0.000000 0.000000 0.000000 0.000000 -0.099339
    7 3.859859 -0.137941 1.332452 0.220371 0.182989 -0.556456
    8 1.719431 0.000004 -0.000005 -0.003327 0.002349 -1.319039
    9 1.099663 0.000006 -0.000006 -0.001215 0.002294 -0.731179
    10 3.883686 -0.046764 0.431428 0.075188 0.100037 -0.899140
    11 1.719576 0.000013 -0.000007 -0.004128 0.003658 -1.212436
    12 1.209181 0.000002 -0.000001 -0.001162 0.002855 -0.603175
    13 3.942318 0.046774 -0.431457 -0.167073 0.021105 -1.132534
    14 1.539097 0.000000 0.000004 0.000000 0.000000 -1.178726
    15 1.196321 0.000000 0.000000 -0.000001 0.000002 -0.430800
    16 3.859699 -0.142406 -1.191988 -0.459717 -0.176936 -1.511901
    17 1.312572 -0.000002 0.000001 0.000000 0.000000 -0.913975
    18 0.729363 0.000011 0.000000 0.000000 0.000000 -0.749574
    19 -1.937500 4.609375 -5.496094 1.380186 0.205234 -3.734945
    20 6.028141 0.000005 -0.000003 0.896309 1.093909 -0.981750
    21 11.692562 0.000004 0.000010 0.000000 0.000024 -1.928819
    22 11.481714 -0.000034 0.000002 -0.785498 -0.057739 0.934857
    23 0.806011 -0.359833 -1.318336 1.281002 0.188695 -0.782321
    24 1.789787 0.000002 0.000002 -0.234630 0.004987 -0.004830
    25 1.207003 0.000006 -0.000004 0.000000 0.000000 1.203867
    26 3.859829 -0.148937 -1.331286 -0.043023 0.215207 -0.035988
    27 1.719431 -0.000004 -0.000003 0.005942 -0.002898 -1.480254
    28 1.099665 -0.000002 -0.000001 0.001977 -0.003717 -0.734284
    29 3.883659 -0.050333 -0.431045 0.106877 -0.073665 -0.993181
    30 1.719576 -0.000013 -0.000003 0.006890 -0.004008 -1.411101
    31 1.209177 -0.000002 -0.000003 0.003530 -0.002726 -1.130131
    32 3.942287 0.050325 0.431041 0.279874 0.036174 -1.245777
    33 1.539104 0.000002 -0.000004 0.000000 0.000000 -1.043759
    34 1.196321 0.000004 0.000004 0.000003 -0.000002 -1.228600
    35 3.859676 -0.132571 1.193106 0.344457 0.138292 -1.575074
    36 1.312571 -0.000002 0.000004 0.000000 0.000000 -0.580528
    37 0.729367 0.000000 -0.000005 0.000000 0.000000 -0.978374
    38 -4.003418 -12.562883 -3.910276 0.010860 0.007375 -0.006357
    39 -0.000007 -2.562422 -1.340640 1.570796 0.000000 3.141592
    40 -0.000005 -1.296490 0.363803 1.570796 0.000000 3.141592
    41 -0.000002 1.640970 -1.348884 1.221733 0.000000 3.141592
    42 -0.000004 -0.403343 -3.067159 1.570796 0.000000 3.141592
    43 0.000000 3.034649 -4.869442 1.570796 0.000000 3.141592
  time 7
    0 1.437500 3.820313 -4.980469 1.367756 0.437846 -0.664806
    1 6.028142 -0.000009 0.000000 -1.733054 -0.910733 -0.435696
    2 11.692563 0.000017 0.000007 0.000002 0.000000 -0.870263
    3 11.481678 -0.000021 -0.000026 0.096023 0.247846 0.546268
    4 0.806049 -0.348926 1.321255 -1.285557 -0.482391 -0.836327
    5 1.789782 0.000008 0.000000 -0.036204 -0.507634 0.207512
    6 1.207001 0.000000 0.000000 0.000000 0.000000 -0.099339
    7 3.859859 -0.137941 1.332452 0.220371 0.182989 -0.556456
    8 1.719431 0.000004 -0.000005 -0.003327 0.002349 -1.319039
    9 1.099663 0.000006 -0.000006 -0.001215 0.002294 -0.731179
    10 3.883686 -0.046764 0.431428 0.075188 0.100037 -0.899140
    11 1.719576 0.000013 -0.000007 -0.004128 0.003658 -1.212436
    12 1.209181 0.000002 -0.000001 -0.001162 0.002855 -0.603175
    13 3.942318 0.046774 -0.431457 -0.167073 0.021105 -1.132534
    14 1.539097 0.000000 0.000004 0.000000 0.000000 -1.178726
    15 1.196321 0.000000 0.000000 -0.000001 0.000002 -0.430800
    16 3.859699 -0.142406 -1.191988 -0.459717 -0.176936 -1.511901
    17 1.312572 -0.000002 0.000001 0.000000 0.000000 -0.913975
    18 0.729363 0.000011 0.000000 0.000000 0.000000 -0.749574
    19 -1.937500 4.609375 -5.496094 1.380186 0.205234 -3.734945
    20 6.028141 0.000005 -0.000003 0.871378 1.095006 -1.003792
    21 11.692562 0.000004 0.000010 0.000000 0.000024 -1.901727
    22 11.481714 -0.000034 0.000002 -0.778214 -0.040931 0.904818
    23 0.806011 -0.359833 -1.318336 1.281002 0.188695 -0.782321
    24 1.789787 0.000002 0.000002 -0.234630 0.004987 -0.004830
    25 1.207003 0.000006 -0.000004 0.000000 0.000000 1.203867
    26 3.859829 -0.148937 -1.331286 -0.043023 0.215207 -0.035988
    27 1.719431 -0.000004 -0.000003 0.005942 -0.002898 -1.480254
    28 1.099665 -0.000002 -0.000001 0.001977 -0.003717 -0.734284
    29 3.883659 -0.050333 -0.431045 0.106877 -0.073665 -0.993181
    30 1.719576 -0.000013 -0.000003 0.006890 -0.004008 -1.411101
    31 1.209177 -0.000002 -0.000003 0.003530 -0.002726 -1.130131
    32 3.942287 0.050325 0.431041 0.279874 0.036174 -1.245777
    33 1.539104 0.000002 -0.000004 0.000000 0.000000 -1.043759
    34 1.196321 0.000004 0.000004 0.000003 -0.000002 -1.228600
    35 3.859676 -0.132571 1.193106 0.344457 0.138292 -1.575074
    36 1.312571 -0.000002 0.000004 0.000000 0.000000 -0.580528
    37 0.729367 0.000000 -0.000005 0.000000 0.000000 -0.978374
    38 -4.003418 -12.762108 -3.957152 -0.000738 -0.004436 -0.005278
    39 -0.000007 -2.562422 -1.340640 1.570796 0.000000 3.141592
    40 -0.000005 -1.542591 0.363803 1.570796 0.000000 3.141592
    41 -0.000002 1.640970 -1.348884 1.221733 0.000000 3.141592
    42 -0.000004 -0.403343 -3.067159 1.570796 0.000000 3.141592
    43 0.000000 3.034649 -4.869442 1.570796 0.000000 3.141592
  time 8
    0 1.437500 3.820313 -4.980469 1.367756 0.437846 -0.664806
    1 6.028142 -0.000009 0.000000 -1.743772 -0.924725 -0.424477
    2 11.692563 0.000017 0.000007 0.000002 0.000000 -0.836943
    3 11.481678 -0.000021 -0.000026 0.106702 0.247028 0.527211
    4 0.806049 -0.348926 1.321255 -1.285557 -0.482391 -0.836327
    5 1.789782 0.000008 0.000000 -0.036204 -0.507634 0.207512
    6 1.207001 0.000000 0.000000 0.000000 0.000000 -0.099339
    7 3.859859 -0.137941 1.332452 0.220371 0.182989 -0.556456
    8 1.719431 0.000004 -0.000005 -0.003327 0.002349 -1.319039
    9 1.099663 0.000006 -0.000006 -0.001215 0.002294 -0.731179
    10 3.883686 -0.046764 0.431428 0.075188 0.100037 -0.899140
    11 1.719576 0.000013 -0.000007 -0.004128 0.003658 -1.212436
    12 1.209181 0.000002 -0.000001 -0.001162 0.002855 -0.603175
    13 3.942318 0.046774 -0.431457 -0.167073 0.021105 -1.132534
    14 1.539097 0.000000 0.000004 0.000000 0.000000 -1.178726
    15 1.196321 0.000000 0.000000 -0.000001 0.000002 -0.430800
    16 3.859699 -0.142406 -1.191988 -0.459717 -0.176936 -1.511901
    17 1.312572 -0.000002 0.000001 0.000000 0.000000 -0.913975
    18 0.729363 0.000011 0.000000 0.000000 0.000000 -0.749574
    19 -1.937500 4.609375 -5.496094 1.380186 0.205234 -3.734945
    20 6.028141 0.000005 -0.000003 0.853721 1.096143 -1.020590
    21 11.692562 0.000004 0.000010 0.000000 0.000024 -1.878884
    22 11.481714 -0.000034 0.000002 -0.774250 -0.030903 0.879159
    23 0.806011 -0.359833 -1.318336 1.281002 0.188695 -0.782321
    24 1.789787 0.000002 0.000002 -0.234630 0.004987 -0.004830
    25 1.207003 0.000006 -0.000004 0.000000 0.000000 1.203867
    26 3.859829 -0.148937 -1.331286 -0.043023 0.215207 -0.035988
    27 1.719431 -0.000004 -0.000003 0.005942 -0.002898 -1.480220
    28 1.099665 -0.000002 -0.000001 0.001977 -0.003717 -0.734284
    29 3.883659 -0.050333 -0.431045 0.106877 -0.073665 -0.993181
    30 1.719576 -0.000013 -0.000003 0.006890 -0.004008 -1.411101
    31 1.209177 -0.000002 -0.000003 0.003530 -0.002726 -1.130131
    32 3.942287 0.050325 0.431041 0.279874 0.036174 -1.245777
    33 1.539104 0.000002 -0.000004 0.000000 0.000000 -1.043759
    34 1.196321 0.000004 0.000004 0.000003 -0.000002 -1.228600
    35 3.859676 -0.132571 1.193106 0.344457 0.138292 -1.575074
    36 1.312571 -0.000002 0.000004 0.000000 0.000000 -0.580528
    37 0.729367 0.000000 -0.000005 0.000000 0.000000 -0.978374
    38 -4.003418 -12.930082 -3.996216 -0.009232 -0.012309 -0.002503
    39 -0.000007 -2.562422 -1.340640 1.570796 0.000000 3.141592
    40 -0.000005 -1.784786 0.363803 1.570796 0.000000 3.141592
    41 -0.000002 1.640970 -1.348884 1.221733 0.000000 3.141592
    42 -0.000004 -0.403343 -3.067159 1.570796 0.000000 3.141592
    43 0.000000 3.034649 -4.869442 1.570796 0.000000 3.141592
  time 9
    0 1.437500 3.820313 -4.980469 1.367756 0.437846 -0.664806
    1 6.028142 -0.000009 0.000000 -1.747669 -0.931842 -0.420007
    2 11.692563 0.000017 0.000007 0.000002 0.000000 -0.816466
    3 11.481678 -0.000021 -0.000026 0.108085 0.247671 0.516474
    4 0.806049 -0.348926 1.321255 -1.285557 -0.482391 -0.836327
    5 1.789782 0.000008 0.000000 -0.036204 -0.507634 0.207512
    6 1.207001 0.000000 0.000000 0.000000 0.000000 -0.099339
    7 3.859859 -0.137941 1.332452 0.220371 0.182989 -0.556456
    8 1.719431 0.000004 -0.000005 -0.003327 0.002349 -1.319039
    9 1.099663 0.000006 -0.000006 -0.001215 0.002294 -0.731179
    10 3.883686 -0.046764 0.431428 0.075188 0.100037 -0.899140
    11 1.719576 0.000013 -0.000007 -0.004128 0.003658 -1.212436
    12 1.209181 0.000002 -0.000001 -0.001162 0.002855 -0.603175
    13 3.942318 0.046774 -0.431457 -0.167073 0.021105 -1.132534
    14 1.539097 0.000000 0.000004 0.000000 0.000000 -1.178726
    15 1.196321 0.000000 0.000000 -0.000001 0.000002 -0.430800
    16 3.859699 -0.142406 -1.191988 -0.459717 -0.176936 -1.511901
    17 1.312572 -0.000002 0.000001 0.000000 0.000000 -0.913975
    18 0.729363 0.000011 0.000000 0.000000 0.000000 -0.749574
    19 -1.937500 4.609375 -5.496094 1.380186 0.205234 -3.734945
    20 6.028141 0.000005 -0.000003 0.846741 1.099148 -1.028562
    21 11.692562 0.000004 0.000010 0.000000 0.000024 -1.866139
    22 11.481714 -0.000034 0.000002 -0.773110 -0.032071 0.870236
    23 0.806011 -0.359833 -1.318336 1.281002 0.188695 -0.782321
    24 1.789787 0.000002 0.000002 -0.234630 0.004987 -0.004830
    25 1.207003 0.000006 -0.000004 0.000000 0.000000 1.203867
    26 3.859829 -0.148937 -1.331286 -0.043551 0.215111 -0.038455
    27 1.719431 -0.000004 -0.000003 0.005882 -0.003018 -1.460853
    28 1.099665 -0.000002 -0.000001 0.001953 -0.003741 -0.727540
    29 3.883659 -0.050333 -0.431045 0.106877 -0.073665 -0.993181
    30 1.719576 -0.000013 -0.000003 0.006890 -0.004008 -1.411101
    31 1.209177 -0.000002 -0.000003 0.003530 -0.002726 -1.130131
    32 3.942287 0.050325 0.431041 0.279874 0.036174 -1.245777
    33 1.539104 0.000002 -0.000004 0.000000 0.000000 -1.043759
    34 1.196321 0.000004 0.000004 0.000003 -0.000002 -1.228624
    35 3.859676 -0.132571 1.193106 0.344457 0.138292 -1.575074
    36 1.312571 -0.000002 0.000004 0.000000 0.000000 -0.580528
    37 0.729367 0.000000 -0.000005 0.000000 0.000000 -0.978374
    38 -4.003418 -13.047273 -4.023560 -0.008546 -0.014173 -0.000962
    39 -0.000007 -2.562422 -1.340640 1.570796 0.000000 3.141592
    40 -0.000005 -1.784786 0.363803 1.570796 0.000000 3.141592
    41 -0.000002 1.640970 -1.348884 1.241076 0.000000 3.141592
    42 -0.000004 -0.403343 -3.067159 1.570796 0.000000 3.141592
    43 0.000000 3.034649 -4.869442 1.570796 0.000000 3.141592
  time 10
    0 1.437500 3.820313 -4.980469 1.367756 0.437846 -0.664806
    1 6.028142 -0.000009 0.000000 -1.746768 -0.932933 -0.420600
    2 11.692563 0.000017 0.000007 0.000002 0.000000 -0.810227
    3 11.481678 -0.000021 -0.000026 0.105473 0.249269 0.514522
    4 0.806049 -0.348926 1.321255 -1.285557 -0.482391 -0.836327
    5 1.789782 0.000008 0.000000 -0.036204 -0.507634 0.207512
    6 1.207001 0.000000 0.000000 0.000000 0.000000 -0.099339
    7 3.859859 -0.137941 1.332452 0.220371 0.182989 -0.556456
    8 1.719431 0.000004 -0.000005 -0.003327 0.002349 -1.319039
    9 1.099663 0.000006 -0.000006 -0.001215 0.002294 -0.731179
    10 3.883686 -0.046764 0.431428 0.075188 0.100037 -0.899140
    11 1.719576 0.000013 -0.000007 -0.004128 0.003658 -1.212436
    12 1.209181 0.000002 -0.000001 -0.001162 0.002855 -0.603175
    13 3.942318 0.046774 -0.431457 -0.167073 0.021105 -1.132534
    14 1.539097 0.000000 0.000004 0.000000 0.000000 -1.178726
    15 1.196321 0.000000 0.000000 -0.000001 0.000002 -0.430800
    16 3.859699 -0.142406 -1.191988 -0.459717 -0.176936 -1.511901
    17 1.312572 -0.000002 0.000001 0.000000 0.000000 -0.913975
    18 0.729363 0.000011 0.000000 0.000000 0.000000 -0.749574
    19 -1.937500 4.609375 -5.496094 1.380186 0.205234 -3.734945
    20 6.028141 0.000005 -0.000003 0.847093 1.101869 -1.029415
    21 11.692562 0.000004 0.000010 0.000000 0.000024 -1.863737
    22 11.481714 -0.000034 0.000002 -0.772664 -0.037606 0.873406
    23 0.806011 -0.359833 -1.318336 1.281002 0.188695 -0.782321
    24 1.789787 0.000002 0.000002 -0.234630 0.004987 -0.004830
    25 1.207003 0.000006 -0.000004 0.000000 0.000000 1.203867
    26 3.859829 -0.148937 -1.331286 -0.044932 0.214835 -0.044809
    27 1.719431 -0.000004 -0.000003 0.005727 -0.003305 -1.410867
    28 1.099665 -0.000002 -0.000001 0.001882 -0.003765 -0.710170
    29 3.883659 -0.050333 -0.431045 0.106877 -0.073665 -0.993181
    30 1.719576 -0.000013 -0.000003 0.006890 -0.004008 -1.411101
    31 1.209177 -0.000002 -0.000003 0.003530 -0.002726 -1.130131
    32 3.942287 0.050325 0.431041 0.279874 0.036174 -1.245777
    33 1.539104 0.000002 -0.000004 0.000000 0.000000 -1.043759
    34 1.196321 0.000004 0.000004 0.000003 -0.000002 -1.228600
    35 3.859676 -0.132571 1.193106 0.344457 0.138292 -1.575074
    36 1.312571 -0.000002 0.000004 0.000000 0.000000 -0.580528
    37 0.729367 0.000000 -0.000005 0.000000 0.000000 -0.978374
    38 -4.003418 -13.090243 -4.035279 -0.003561 -0.013385 -0.000885
    39 -0.000007 -2.562422 -1.340640 1.570796 0.000000 3.141592
    40 -0.000005 -1.784786 0.363803 1.570796 0.000000 3.141592
    41 -0.000002 1.640970 -1.348884 1.290944 0.000000 3.141592
    42 -0.000004 -0.403343 -3.067159 1.570796 0.000000 3.141592
    43 0.000000 3.034649 -4.869442 1.570796 0.000000 3.141592
  time 11
    0 1.437500 3.820313 -4.980469 1.367756 0.437846 -0.664806
    1 6.028142 -0.000009 0.000000 -1.743504 -0.929375 -0.423815
    2 11.692563 0.000017 0.000007 0.000002 0.000000 -0.815659
    3 11.481678 -0.000021 -0.000026 0.100786 0.250204 0.519020
    4 0.806049 -0.348926 1.321255 -1.285557 -0.482391 -0.836327
    5 1.789782 0.000008 0.000000 -0.036204 -0.507634 0.207512
    6 1.207001 0.000000 0.000000 0.000000 0.000000 -0.099339
    7 3.859859 -0.137941 1.332452 0.220371 0.182989 -0.556456
    8 1.719431 0.000004 -0.000005 -0.003327 0.002349 -1.319039
    9 1.099663 0.000006 -0.000006 -0.001215 0.002294 -0.731179
    10 3.883686 -0.046764 0.431428 0.075188 0.100037 -0.899140
    11 1.719576 0.000013 -0.000007 -0.004128 0.003658 -1.212436
    12 1.209181 0.000002 -0.000001 -0.001162 0.002855 -0.603175
    13 3.942318 0.046774 -0.431457 -0.167073 0.021105 -1.132534
    14 1.539097 0.000000 0.000004 0.000000 0.000000 -1.178726
    15 1.196321 0.000000 0.000000 -0.000001 0.000002 -0.430800
    16 3.859699 -0.142406 -1.191988 -0.459717 -0.176936 -1.511901
    17 1.312572 -0.000002 0.000001 0.000000 0.000000 -0.913975
    18 0.729363 0.000011 0.000000 0.000000 0.000000 -0.749574
    19 -1.937500 4.609375 -5.496094 1.380186 0.205234 -3.734945
    20 6.028141 0.000005 -0.000003 0.852724 1.103493 -1.025237
    21 11.692562 0.000004 0.000010 0.000000 0.000024 -1.867555
    22 11.481714 -0.000034 0.000002 -0.773407 -0.045095 0.881219
    23 0.806011 -0.359833 -1.318336 1.281002 0.188695 -0.782321
    24 1.789787 0.000002 0.000002 -0.234630 0.004987 -0.004830
    25 1.207003 0.000006 -0.000004 0.000000 0.000000 1.203867
    26 3.859829 -0.148937 -1.331286 -0.046802 0.214440 -0.053476
    27 1.719431 -0.000004 -0.000003 0.005487 -0.003689 -1.342537
    28 1.099665 -0.000002 -0.000001 0.001798 -0.003813 -0.686402
    29 3.883659 -0.050333 -0.431045 0.106877 -0.073665 -0.993181
    30 1.719576 -0.000013 -0.000003 0.006890 -0.004008 -1.411101
    31 1.209177 -0.000002 -0.000003 0.003530 -0.002726 -1.130131
    32 3.942287 0.050325 0.431041 0.279874 0.036174 -1.245777
    33 1.539104 0.000002 -0.000004 0.000000 0.000000 -1.043759
    34 1.196321 0.000004 0.000004 0.000003 -0.000002 -1.228600
    35 3.859676 -0.132571 1.193106 0.344457 0.138292 -1.575074
    36 1.312571 -0.000002 0.000004 0.000000 0.000000 -0.580528
    37 0.729367 0.000000 -0.000005 0.000000 0.000000 -0.978374
    38 -4.003418 -13.078524 -4.031373 0.002162 -0.010839 -0.000731
    39 -0.000007 -2.562422 -1.340640 1.570796 0.000000 3.141592
    40 -0.000005 -1.784786 0.363803 1.570796 0.000000 3.141592
    41 -0.000002 1.640970 -1.348884 1.359124 0.000000 3.141592
    42 -0.000004 -0.403343 -3.067159 1.570796 0.000000 3.141592
    43 0.000000 3.034649 -4.869442 1.570796 0.000000 3.141592
  time 12
    0 1.437500 3.820313 -4.980469 1.367756 0.437846 -0.664806
    1 6.028142 -0.000009 0.000000 -1.740995 -0.926544 -0.426369
    2 11.692563 0.000017 0.000007 0.000002 0.000000 -0.821383
    3 11.481678 -0.000021 -0.000026 0.096254 0.249990 0.522203
    4 0.806049 -0.348926 1.321255 -1.285557 -0.482391 -0.836327
    5 1.789782 0.000008 0.000000 -0.036204 -0.507634 0.207512
    6 1.207001 0.000000 0.000000 0.000000 0.000000 -0.099339
    7 3.859859 -0.137941 1.332452 0.220371 0.182989 -0.556456
    8 1.719431 0.000004 -0.000005 -0.003327 0.002349 -1.319039
    9 1.099663 0.000006 -0.000006 -0.001215 0.002294 -0.731179
    10 3.883686 -0.046764 0.431428 0.075188 0.100037 -0.899140
    11 1.719576 0.000013 -0.000007 -0.004128 0.003658 -1.212436
    12 1.209181 0.000002 -0.000001 -0.001162 0.002855 -0.603175
    13 3.942318 0.046774 -0.431457 -0.167073 0.021105 -1.132534
    14 1.539097 0.000000 0.000004 0.000000 0.000000 -1.178726
    15 1.196321 0.000000 0.000000 -0.000001 0.000002 -0.430800
    16 3.859699 -0.142406 -1.191988 -0.459717 -0.176936 -1.511901
    17 1.312572 -0.000002 0.000001 0.000000 0.000000 -0.913975
    18 0.729363 0.000011 0.000000 0.000000 0.000000 -0.749574
    19 -1.937500 4.609375 -5.496094 1.380186 0.205234 -3.734945
    20 6.028141 0.000005 -0.000003 0.858414 1.104103 -1.020760
    21 11.692562 0.000004 0.000010 0.000000 0.000024 -1.871619
    22 11.481714 -0.000034 0.000002 -0.775885 -0.050198 0.886710
    23 0.806011 -0.359833 -1.318336 1.281002 0.188695 -0.782321
    24 1.789787 0.000002 0.000002 -0.234630 0.004987 -0.004830
    25 1.207003 0.000006 -0.000004 0.000000 0.000000 1.203867
    26 3.859829 -0.148937 -1.331286 -0.048815 0.213996 -0.062946
    27 1.719431 -0.000004 -0.000003 0.005199 -0.004084 -1.268070
    28 1.099665 -0.000002 -0.000001 0.001702 -0.003860 -0.660512
    29 3.883659 -0.050333 -0.431045 0.106877 -0.073665 -0.993181
    30 1.719576 -0.000013 -0.000003 0.006890 -0.004008 -1.411101
    31 1.209177 -0.000002 -0.000003 0.003530 -0.002726 -1.130131
    32 3.942287 0.050325 0.431041 0.279874 0.036174 -1.245777
    33 1.539104 0.000002 -0.000004 0.000000 0.000000 -1.043759
    34 1.196321 0.000004 0.000004 0.000003 -0.000002 -1.228600
    35 3.859676 -0.132571 1.193106 0.344457 0.138292 -1.575074
    36 1.312571 -0.000002 0.000004 0.000000 0.000000 -0.580528
    37 0.729367 0.000000 -0.000005 0.000000 0.000000 -0.978374
    38 -4.003418 -13.055086 -4.023560 0.005239 -0.007375 -0.000500
    39 -0.000007 -2.562422 -1.340640 1.570796 0.000000 3.141592
    40 -0.000005 -1.784786 0.363803 1.570796 0.000000 3.141592
    41 -0.000002 1.640970 -1.348884 1.433417 0.000000 3.141592
    42 -0.000004 -0.403343 -3.067159 1.570796 0.000000 3.141592
    43 0.000000 3.034649 -4.869442 1.570796 0.000000 3.141592
  time 13
    0 1.437500 3.820313 -4.980469 1.367756 0.437846 -0.664806
    1 6.028142 -0.000009 0.000000 -1.740142 -0.925493 -0.427350
    2 11.692563 0.000017 0.000007 0.000002 0.000000 -0.825493
    3 11.481678 -0.000021 -0.000026 0.093180 0.248451 0.522500
    4 0.806049 -0.348926 1.321255 -1.285557 -0.482391 -0.836327
    5 1.789782 0.000008 0.000000 -0.036204 -0.507634 0.207512
    6 1.207001 0.000000 0.000000 0.000000 0.000000 -0.099339
    7 3.859859 -0.137941 1.332452 0.220371 0.182989 -0.556456
    8 1.719431 0.000004 -0.000005 -0.003327 0.002349 -1.319039
    9 1.099663 0.000006 -0.000006 -0.001215 0.002294 -0.731179
    10 3.883686 -0.046764 0.431428 0.075188 0.100037 -0.899140
    11 1.719576 0.000013 -0.000007 -0.004128 0.003658 -1.212436
    12 1.209181 0.000002 -0.000001 -0.001162 0.002855 -0.603175
    13 3.942318 0.046774 -0.431457 -0.167073 0.021105 -1.132534
    14 1.539097 0.000000 0.000004 0.000000 0.000000 -1.178726
    15 1.196321 0.000000 0.000000 -0.000001 0.000002 -0.430800
    16 3.859699 -0.142406 -1.191988 -0.459717 -0.176936 -1.511901
    17 1.312572 -0.000002 0.000001 0.000000 0.000000 -0.913975
    18 0.729363 0.000011 0.000000 0.000000 0.000000 -0.749574
    19 -1.937500 4.609375 -5.496094 1.380186 0.205234 -3.734945
    20 6.028141 0.000005 -0.000003 0.862227 1.103250 -1.017605
    21 11.692562 0.000004 0.000010 0.000000 0.000024 -1.874205
    22 11.481714 -0.000034 0.000002 -0.779601 -0.050833 0.887364
    23 0.806011 -0.359833 -1.318336 1.281002 0.188695 -0.782321
    24 1.789787 0.000002 0.000002 -0.234630 0.004987 -0.004830
    25 1.207003 0.000006 -0.000004 0.000000 0.000000 1.203867
    26 3.859829 -0.148937 -1.331286 -0.050634 0.213577 -0.071644
    27 1.719431 -0.000004 -0.000003 0.004900 -0.004432 -1.199705
    28 1.099665 -0.000002 -0.000001 0.001606 -0.003896 -0.636744
    29 3.883659 -0.050333 -0.431045 0.106877 -0.073665 -0.993181
    30 1.719576 -0.000013 -0.000003 0.006890 -0.004008 -1.411133
    31 1.209177 -0.000002 -0.000003 0.003530 -0.002726 -1.130131
    32 3.942287 0.050325 0.431041 0.279874 0.036174 -1.245777
    33 1.539104 0.000002 -0.000004 0.000000 0.000000 -1.043759
    34 1.196321 0.000004 0.000004 0.000003 -0.000002 -1.228600
    35 3.859676 -0.132571 1.193106 0.344457 0.138292 -1.575074
    36 1.312571 -0.000002 0.000004 0.000000 0.000000 -0.580528
    37 0.729367 0.000000 -0.000005 0.000000 0.000000 -0.978374
    38 -4.003418 -13.031648 -4.011841 0.004120 -0.003832 -0.000269
    39 -0.000007 -2.562422 -1.340640 1.570796 0.000000 3.141592
    40 -0.000005 -1.784786 0.363803 1.570796 0.000000 3.141592
    41 -0.000002 1.640970 -1.348884 1.501597 0.000000 3.141592
    42 -0.000004 -0.403343 -3.067159 1.570796 0.000000 3.141592
    43 0.000000 3.034649 -4.869442 1.570796 0.000000 3.141592
  time 14
    0 1.437500 3.820313 -4.980469 1.367756 0.437846 -0.664806
    1 6.028142 -0.000009 0.000000 -1.740191 -0.925412 -0.427418
    2 11.692563 0.000017 0.000007 0.000002 0.000000 -0.827915
    3 11.481678 -0.000021 -0.000026 0.091490 0.246697 0.521567
    4 0.806049 -0.348926 1.321255 -1.285557 -0.482391 -0.836327
    5 1.789782 0.000008 0.000000 -0.036204 -0.507634 0.207512
    6 1.207001 0.000000 0.000000 0.000000 0.000000 -0.099339
    7 3.859859 -0.137941 1.332452 0.220371 0.182989 -0.556456
    8 1.719431 0.000004 -0.000005 -0.003327 0.002349 -1.319039
    9 1.099663 0.000006 -0.000006 -0.001215 0.002294 -0.731179
    10 3.883686 -0.046764 0.431428 0.075188 0.100037 -0.899140
    11 1.719576 0.000013 -0.000007 -0.004128 0.003658 -1.212436
    12 1.209181 0.000002 -0.000001 -0.001162 0.002855 -0.603175
    13 3.942318 0.046774 -0.431457 -0.167073 0.021105 -1.132534
    14 1.539097 0.000000 0.000004 0.000000 0.000000 -1.178726
    15 1.196321 0.000000 0.000000 -0.000001 0.000002 -0.430800
    16 3.859699 -0.142406 -1.191988 -0.459717 -0.176936 -1.511901
    17 1.312572 -0.000002 0.000001 0.000000 0.000000 -0.913975
    18 0.729363 0.000011 0.000000 0.000000 0.000000 -0.749574
    19 -1.937500 4.609375 -5.496094 1.380186 0.205234 -3.734945
    20 6.028141 0.000005 -0.000003 0.864280 1.101991 -1.015729
    21 11.692562 0.000004 0.000010 0.000000 0.000024 -1.875559
    22 11.481714 -0.000034 0.000002 -0.783021 -0.049411 0.885795
    23 0.806011 -0.359833 -1.318336 1.281002 0.188695 -0.782321
    24 1.789787 0.000002 0.000002 -0.234630 0.004987 -0.004830
    25 1.207003 0.000006 -0.000004 0.000000 0.000000 1.203867
    26 3.859829 -0.148937 -1.331286 -0.051963 0.213265 -0.077967
    27 1.719431 -0.000004 -0.000003 0.004672 -0.004671 -1.149719
    28 1.099665 -0.000002 -0.000001 0.001534 -0.003920 -0.619358
    29 3.883659 -0.050333 -0.431045 0.106877 -0.073665 -0.993181
    30 1.719576 -0.000013 -0.000003 0.006890 -0.004008 -1.411101
    31 1.209177 -0.000002 -0.000003 0.003530 -0.002726 -1.130131
    32 3.942287 0.050325 0.431041 0.279874 0.036174 -1.245777
    33 1.539104 0.000002 -0.000004 0.000000 0.000000 -1.043759
    34 1.196321 0.000004 0.000004 0.000003 -0.000002 -1.228600
    35 3.859676 -0.132571 1.193106 0.344457 0.138292 -1.575074
    36 1.312571 -0.000002 0.000004 0.000000 0.000000 -0.580528
    37 0.729367 0.000000 -0.000005 0.000000 0.000000 -0.978374
    38 -4.003418 -13.008209 -4.000122 0.001475 -0.001102 -0.000114
    39 -0.000007 -2.562422 -1.340640 1.570796 0.000000 3.141592
    40 -0.000005 -1.784786 0.363803 1.570796 0.000000 3.141592
    41 -0.000002 1.640970 -1.348884 1.551465 0.000000 3.141592
    42 -0.000004 -0.403343 -3.067159 1.570796 0.000000 3.141592
    43 0.000000 3.034649 -4.869442 1.570796 0.000000 3.141592
  time 15
    0 1.437500 3.820313 -4.980469 1.367756 0.437846 -0.664806
    1 6.028142 -0.000009 0.000000 -1.740386 -0.925533 -0.427282
    2 11.692563 0.000017 0.000007 0.000002 0.000000 -0.828723
    3 11.481678 -0.000021 -0.000026 0.090952 0.245859 0.520930
    4 0.806049 -0.348926 1.321255 -1.285557 -0.482391 -0.836327
    5 1.789782 0.000008 0.000000 -0.036204 -0.507634 0.207512
    6 1.207001 0.000000 0.000000 0.000000 0.000000 -0.099339
    7 3.859859 -0.137941 1.332452 0.220371 0.182989 -0.556456
    8 1.719431 0.000004 -0.000005 -0.003327 0.002349 -1.319039
    9 1.099663 0.000006 -0.000006 -0.001215 0.002294 -0.731179
    10 3.883686 -0.046764 0.431428 0.075188 0.100037 -0.899140
    11 1.719576 0.000013 -0.000007 -0.004128 0.003658 -1.212436
    12 1.209181 0.000002 -0.000001 -0.001162 0.002855 -0.603175
    13 3.942318 0.046774 -0.431457 -0.167073 0.021105 -1.132534
    14 1.539097 0.000000 0.000004 0.000000 0.000000 -1.178726
    15 1.196321 0.000000 0.000000 -0.000001 0.000002 -0.430800
    16 3.859699 -0.142406 -1.191988 -0.459717 -0.176936 -1.511901
    17 1.312572 -0.000002 0.000001 0.000000 0.000000 -0.913975
    18 0.729363 0.000011 0.000000 0.000000 0.000000 -0.749574
    19 -1.937500 4.609375 -5.496094 1.380186 0.205234 -3.734945
    20 6.028141 0.000005 -0.000003 0.864926 1.101341 -1.015090
    21 11.692562 0.000004 0.000010 0.000000 0.000024 -1.875990
    22 11.481714 -0.000034 0.000002 -0.784507 -0.048396 0.884651
    23 0.806011 -0.359833 -1.318336 1.281002 0.188695 -0.782321
    24 1.789787 0.000002 0.000002 -0.234630 0.004987 -0.004830
    25 1.207003 0.000006 -0.000004 0.000000 0.000000 1.203867
    26 3.859829 -0.148937 -1.331286 -0.052466 0.213134 -0.080435
    27 1.719431 -0.000004 -0.000003 0.004588 -0.004767 -1.130352
    28 1.099665 -0.000002 -0.000001 0.001510 -0.003932 -0.612630
    29 3.883659 -0.050333 -0.431045 0.106877 -0.073665 -0.993181
    30 1.719576 -0.000013 -0.000003 0.006890 -0.004008 -1.411133
    31 1.209177 -0.000002 -0.000003 0.003530 -0.002726 -1.130131
    32 3.942287 0.050325 0.431041 0.279874 0.036174 -1.245777
    33 1.539104 0.000002 -0.000004 0.000000 0.000000 -1.043759
    34 1.196321 0.000004 0.000004 0.000003 -0.000002 -1.228600
    35 3.859676 -0.132571 1.193106 0.344457 0.138292 -1.575074
    36 1.312571 -0.000002 0.000004 0.000000 0.000000 -0.580528
    37 0.729367 0.000000 -0.000005 0.000000 0.000000 -0.978374
    38 -4.003418 -12.996490 -3.996216 0.000000 0.000000 -0.000037
    39 -0.000007 -2.562422 -1.340640 1.570796 0.000000 3.141592
    40 -0.000005 -1.784786 0.363803 1.570796 0.000000 3.141592
    41 -0.000002 1.640970 -1.348884 1.570796 0.000000 3.141592
    42 -0.000004 -0.403343 -3.067159 1.570796 0.000000 3.141592
    43 0.000000 3.034649 -4.869442 1.570796 0.000000 3.141592
end
