// Created by Crowbar++ 0.74
version 1
nodes
  0 "ValveBiped.Bip01_Spine4" -1
  1 "ValveBiped.Bip01_L_Clavicle" 0
  2 "ValveBiped.Bip01_L_UpperArm" 1
  3 "ValveBiped.Bip01_L_Forearm" 2
  4 "ValveBiped.Bip01_L_Hand" 3
  5 "ValveBiped.Bip01_L_Finger4" 4
  6 "ValveBiped.Bip01_L_Finger41" 5
  7 "ValveBiped.Bip01_L_Finger42" 6
  8 "ValveBiped.Bip01_L_Finger3" 4
  9 "ValveBiped.Bip01_L_Finger31" 8
  10 "ValveBiped.Bip01_L_Finger32" 9
  11 "ValveBiped.Bip01_L_Finger2" 4
  12 "ValveBiped.Bip01_L_Finger21" 11
  13 "ValveBiped.Bip01_L_Finger22" 12
  14 "ValveBiped.Bip01_L_Finger1" 4
  15 "ValveBiped.Bip01_L_Finger11" 14
  16 "ValveBiped.Bip01_L_Finger12" 15
  17 "ValveBiped.Bip01_L_Finger0" 4
  18 "ValveBiped.Bip01_L_Finger01" 17
  19 "ValveBiped.Bip01_L_Finger02" 18
  20 "ValveBiped.Bip01_R_Clavicle" 0
  21 "ValveBiped.Bip01_R_UpperArm" 20
  22 "ValveBiped.Bip01_R_Forearm" 21
  23 "ValveBiped.Bip01_R_Hand" 22
  24 "ValveBiped.Bip01_R_Finger4" 23
  25 "ValveBiped.Bip01_R_Finger41" 24
  26 "ValveBiped.Bip01_R_Finger42" 25
  27 "ValveBiped.Bip01_R_Finger3" 23
  28 "ValveBiped.Bip01_R_Finger31" 27
  29 "ValveBiped.Bip01_R_Finger32" 28
  30 "ValveBiped.Bip01_R_Finger2" 23
  31 "ValveBiped.Bip01_R_Finger21" 30
  32 "ValveBiped.Bip01_R_Finger22" 31
  33 "ValveBiped.Bip01_R_Finger1" 23
  34 "ValveBiped.Bip01_R_Finger11" 33
  35 "ValveBiped.Bip01_R_Finger12" 34
  36 "ValveBiped.Bip01_R_Finger0" 23
  37 "ValveBiped.Bip01_R_Finger01" 36
  38 "ValveBiped.Bip01_R_Finger02" 37
  39 "ValveBiped.parent" -1
  40 "ValveBiped.square" 39
  41 "ValveBiped.clip" 39
  42 "ValveBiped.hammer" 39
  43 "ValveBiped.trigger" 39
  44 "ValveBiped.clip2" 39
end
skeleton
  time 0
    0 0.000005 3.335938 -8.640625 -1.570760 -1.391893 -1.570827
    1 2.033348 1.000767 1.937659 1.596635 -1.286515 2.942964
    2 6.028141 0.000005 0.000002 -1.579224 0.358000 -1.145027
    3 11.692560 0.000013 -0.000006 0.000000 0.000000 -1.541523
    4 11.481678 0.000006 -0.000039 1.573165 -0.028073 0.044377
    5 3.859705 -0.142418 -1.191975 -0.476790 0.134331 -0.965119
    6 1.312563 -0.000013 0.000002 0.000000 0.000000 -0.279215
    7 0.729365 -0.000006 -0.000001 0.000000 0.000000 -0.096880
    8 3.942327 0.046753 -0.431444 -0.145079 0.087431 -0.741677
    9 1.539093 0.000008 -0.000006 0.000000 0.000000 -0.309316
    10 1.196323 -0.000006 0.000002 0.000000 0.000000 -0.521199
    11 3.883688 -0.046781 0.431443 0.085902 0.021835 -0.587865
    12 1.719580 -0.000010 0.000009 0.000002 0.005514 -0.366480
    13 1.209183 -0.000006 0.000003 0.000000 0.003091 -0.216394
    14 3.859854 -0.137962 1.332467 0.354450 -0.042751 -0.531725
    15 1.719431 0.000000 -0.000006 -0.000004 0.004079 -0.363004
    16 1.099672 0.000000 0.000004 0.000005 0.002595 -0.244332
    17 0.806046 -0.348927 1.321259 -1.166380 -0.626620 -0.921966
    18 1.789780 0.000002 -0.000006 0.000000 0.000000 0.189103
    19 1.207005 0.000001 -0.000004 0.000000 0.000000 0.306013
    20 2.033356 1.000772 -1.937610 -1.668474 1.286519 2.942954
    21 6.028142 0.000001 -0.000001 1.415743 0.359472 -1.181150
    22 11.692555 0.000031 0.000001 0.000000 0.000000 -1.106112
    23 11.481703 0.000105 0.000003 -1.715381 -0.567218 0.743357
    24 3.859676 -0.132545 1.193109 0.432208 -0.155862 -0.861348
    25 1.312563 0.000000 -0.000001 0.000002 0.000001 -1.191950
    26 0.729366 0.000002 0.000000 0.000000 0.000003 -1.063371
    27 3.942295 0.050345 0.431044 0.232421 0.000609 -0.853329
    28 1.539101 -0.000002 0.000002 0.000000 0.000000 -0.973378
    29 1.196321 -0.000004 -0.000002 -0.000003 0.000001 -1.451261
    30 3.883659 -0.050304 -0.431042 0.066988 0.050241 -0.694790
    31 1.719584 0.000006 0.000006 0.000000 0.000000 -1.251037
    32 1.209185 0.000002 0.000006 0.000002 -0.000011 -1.141117
    33 3.859833 -0.148918 -1.331282 -0.248853 0.263128 -0.072119
    34 1.719429 0.000006 0.000011 0.000000 0.000000 -0.676754
    35 1.099661 0.000002 0.000007 0.000000 0.000000 -1.021285
    36 0.806019 -0.359832 -1.318334 1.349682 0.343492 -0.771448
    37 1.789782 -0.000008 -0.000008 0.000000 0.000000 0.397500
    38 1.207003 -0.000002 -0.000002 0.000000 0.000000 0.989031
    39 -20.282417 5.667645 -2.906060 1.576458 0.027153 -1.548649
    40 23.247209 -20.562581 -18.175833 -2.538342 0.904716 2.811900
    41 20.243214 -20.749082 -15.987350 -2.538343 0.904716 2.811903
    42 0.030305 0.405413 -1.879908 -0.000001 0.000000 0.000000
    43 -0.022060 -0.697964 1.867962 -0.000001 0.000000 0.000000
    44 -9.511650 -2.501287 -20.389124 -0.000014 0.000000 0.000000
  time 1
    0 0.000005 3.335938 -8.640625 -1.570760 -1.391893 -1.570827
    1 2.033348 1.000767 1.937659 1.596635 -1.286515 2.942964
    2 6.028141 0.000005 0.000002 -1.579224 0.358000 -1.145027
    3 11.692560 0.000013 -0.000006 0.000000 0.000000 -1.541523
    4 11.481678 0.000006 -0.000039 1.573165 -0.028073 0.044377
    5 3.859705 -0.142418 -1.191975 -0.476790 0.134331 -0.965119
    6 1.312563 -0.000013 0.000002 0.000000 0.000000 -0.279215
    7 0.729365 -0.000006 -0.000001 0.000000 0.000000 -0.096880
    8 3.942327 0.046753 -0.431444 -0.145079 0.087431 -0.741677
    9 1.539093 0.000008 -0.000006 0.000000 0.000000 -0.309316
    10 1.196323 -0.000006 0.000002 0.000000 0.000000 -0.521199
    11 3.883688 -0.046781 0.431443 0.085902 0.021835 -0.587865
    12 1.719580 -0.000010 0.000009 0.000002 0.005514 -0.366480
    13 1.209183 -0.000006 0.000003 0.000000 0.003091 -0.216394
    14 3.859854 -0.137962 1.332467 0.354450 -0.042751 -0.531725
    15 1.719431 0.000000 -0.000006 -0.000004 0.004079 -0.363004
    16 1.099672 0.000000 0.000004 0.000005 0.002595 -0.244332
    17 0.806046 -0.348927 1.321259 -1.166380 -0.626620 -0.921966
    18 1.789780 0.000002 -0.000006 0.000000 0.000000 0.189103
    19 1.207005 0.000001 -0.000004 0.000000 0.000000 0.306013
    20 2.033356 1.000772 -1.937610 -1.668474 1.286519 2.942954
    21 6.028142 0.000001 -0.000001 1.415743 0.359472 -1.181150
    22 11.692555 0.000031 0.000001 0.000000 0.000000 -1.106112
    23 11.481703 0.000105 0.000003 -1.715381 -0.567218 0.743357
    24 3.859676 -0.132545 1.193109 0.432208 -0.155862 -0.861348
    25 1.312563 0.000000 -0.000001 0.000002 0.000001 -1.191950
    26 0.729366 0.000002 0.000000 0.000000 0.000003 -1.063371
    27 3.942295 0.050345 0.431044 0.232421 0.000609 -0.853329
    28 1.539101 -0.000002 0.000002 0.000000 0.000000 -0.973378
    29 1.196321 -0.000004 -0.000002 -0.000003 0.000001 -1.451261
    30 3.883659 -0.050304 -0.431042 0.066988 0.050241 -0.694790
    31 1.719584 0.000006 0.000006 0.000000 0.000000 -1.251037
    32 1.209185 0.000002 0.000006 0.000002 -0.000011 -1.141117
    33 3.859833 -0.148918 -1.331282 -0.248853 0.263128 -0.072119
    34 1.719429 0.000006 0.000011 0.000000 0.000000 -0.676754
    35 1.099661 0.000002 0.000007 0.000000 0.000000 -1.021285
    36 0.806019 -0.359832 -1.318334 1.349682 0.343492 -0.771448
    37 1.789782 -0.000008 -0.000008 0.000000 0.000000 0.397500
    38 1.207003 -0.000002 -0.000002 0.000000 0.000000 0.989031
    39 -20.282417 5.667645 -2.906060 1.576458 0.027153 -1.548649
    40 23.247209 -20.562581 -18.175833 -2.538342 0.904716 2.811900
    41 20.243214 -20.749082 -15.987350 -2.538343 0.904716 2.811903
    42 0.030305 0.405413 -1.879908 -0.000001 0.000000 0.000000
    43 -0.022060 -0.697964 1.867962 -0.000001 0.000000 0.000000
    44 -9.511650 -2.501287 -20.389124 -0.000014 0.000000 0.000000
  time 2
    0 0.000005 3.335938 -8.640625 -1.570760 -1.391893 -1.570827
    1 2.033348 1.000767 1.937659 1.596635 -1.286515 2.942964
    2 6.028141 0.000005 0.000002 -1.579224 0.358000 -1.145027
    3 11.692560 0.000013 -0.000006 0.000000 0.000000 -1.541523
    4 11.481678 0.000006 -0.000039 1.573165 -0.028073 0.044377
    5 3.859705 -0.142418 -1.191975 -0.476790 0.134331 -0.965119
    6 1.312563 -0.000013 0.000002 0.000000 0.000000 -0.279215
    7 0.729365 -0.000006 -0.000001 0.000000 0.000000 -0.096880
    8 3.942327 0.046753 -0.431444 -0.145079 0.087431 -0.741677
    9 1.539093 0.000008 -0.000006 0.000000 0.000000 -0.309316
    10 1.196323 -0.000006 0.000002 0.000000 0.000000 -0.521199
    11 3.883688 -0.046781 0.431443 0.085902 0.021835 -0.587865
    12 1.719580 -0.000010 0.000009 0.000002 0.005514 -0.366480
    13 1.209183 -0.000006 0.000003 0.000000 0.003091 -0.216394
    14 3.859854 -0.137962 1.332467 0.354450 -0.042751 -0.531725
    15 1.719431 0.000000 -0.000006 -0.000004 0.004079 -0.363004
    16 1.099672 0.000000 0.000004 0.000005 0.002595 -0.244332
    17 0.806046 -0.348927 1.321259 -1.166380 -0.626620 -0.921966
    18 1.789780 0.000002 -0.000006 0.000000 0.000000 0.189103
    19 1.207005 0.000001 -0.000004 0.000000 0.000000 0.306013
    20 2.033356 1.000772 -1.937610 -1.668474 1.286519 2.942954
    21 6.028142 0.000001 -0.000001 1.415306 0.372605 -1.183003
    22 11.692555 0.000031 0.000001 0.000000 0.000000 -1.099487
    23 11.481703 0.000105 0.000003 -1.652886 -0.561440 0.765099
    24 3.859676 -0.132545 1.193109 0.432208 -0.155862 -0.861348
    25 1.312563 0.000000 -0.000001 0.000002 0.000001 -1.191950
    26 0.729366 0.000002 0.000000 0.000000 0.000003 -1.063371
    27 3.942295 0.050345 0.431044 0.232421 0.000609 -0.853329
    28 1.539101 -0.000002 0.000002 0.000000 0.000000 -0.973378
    29 1.196321 -0.000004 -0.000002 -0.000003 0.000001 -1.451261
    30 3.883659 -0.050304 -0.431042 0.066988 0.050241 -0.694790
    31 1.719584 0.000006 0.000006 0.000000 0.000000 -1.251037
    32 1.209185 0.000002 0.000006 0.000002 -0.000011 -1.141145
    33 3.859833 -0.148918 -1.331282 -0.248853 0.263128 -0.072119
    34 1.719429 0.000006 0.000011 0.000000 0.000000 -0.676754
    35 1.099661 0.000002 0.000007 0.000000 0.000000 -1.021285
    36 0.806019 -0.359832 -1.318334 1.349682 0.343492 -0.771448
    37 1.789782 -0.000008 -0.000008 0.000000 0.000000 0.397500
    38 1.207003 -0.000002 -0.000002 0.000000 0.000000 0.989031
    39 -20.282417 5.667645 -2.906060 1.576458 0.027153 -1.548649
    40 23.594876 -20.531330 -18.023485 -2.601921 0.946504 2.716431
    41 20.469783 -20.624078 -15.999070 -2.601922 0.946504 2.716391
    42 0.030305 0.405413 -1.879908 -0.000001 0.000000 0.000000
    43 -0.022060 -0.697964 1.867962 -0.000001 0.000000 0.000000
    44 -9.511650 -2.501287 -20.389124 -0.000014 0.000000 0.000000
  time 3
    0 0.000005 3.335938 -8.640625 -1.570760 -1.391893 -1.570827
    1 2.033348 1.000767 1.937659 1.596635 -1.286515 2.942964
    2 6.028141 0.000005 0.000002 -1.579224 0.358000 -1.145027
    3 11.692560 0.000013 -0.000006 0.000000 0.000000 -1.541523
    4 11.481678 0.000006 -0.000039 1.573165 -0.028073 0.044377
    5 3.859705 -0.142418 -1.191975 -0.476790 0.134331 -0.965119
    6 1.312563 -0.000013 0.000002 0.000000 0.000000 -0.279215
    7 0.729365 -0.000006 -0.000001 0.000000 0.000000 -0.096880
    8 3.942327 0.046753 -0.431444 -0.145079 0.087431 -0.741677
    9 1.539093 0.000008 -0.000006 0.000000 0.000000 -0.309316
    10 1.196323 -0.000006 0.000002 0.000000 0.000000 -0.521199
    11 3.883688 -0.046781 0.431443 0.085902 0.021835 -0.587865
    12 1.719580 -0.000010 0.000009 0.000002 0.005514 -0.366480
    13 1.209183 -0.000006 0.000003 0.000000 0.003091 -0.216394
    14 3.859854 -0.137962 1.332467 0.354450 -0.042751 -0.531725
    15 1.719431 0.000000 -0.000006 -0.000004 0.004079 -0.363004
    16 1.099672 0.000000 0.000004 0.000005 0.002595 -0.244332
    17 0.806046 -0.348927 1.321259 -1.166380 -0.626620 -0.921966
    18 1.789780 0.000002 -0.000006 0.000000 0.000000 0.189103
    19 1.207005 0.000001 -0.000004 0.000000 0.000000 0.306013
    20 2.033356 1.000772 -1.937610 -1.668474 1.286519 2.942954
    21 6.028142 0.000001 -0.000001 1.418911 0.416584 -1.183151
    22 11.692555 0.000031 0.000001 0.000000 0.000000 -1.079718
    23 11.481703 0.000105 0.000003 -1.547385 -0.545750 0.763312
    24 3.859676 -0.132545 1.193109 0.432208 -0.155862 -0.861348
    25 1.312563 0.000000 -0.000001 0.000002 0.000001 -1.191973
    26 0.729366 0.000002 0.000000 0.000000 0.000003 -1.063371
    27 3.942295 0.050345 0.431044 0.232421 0.000609 -0.853329
    28 1.539101 -0.000002 0.000002 0.000000 0.000000 -0.973378
    29 1.196321 -0.000004 -0.000002 -0.000003 0.000001 -1.451261
    30 3.883659 -0.050304 -0.431042 0.066988 0.050241 -0.694790
    31 1.719584 0.000006 0.000006 0.000000 0.000000 -1.251037
    32 1.209185 0.000002 0.000006 0.000002 -0.000011 -1.141145
    33 3.859833 -0.148918 -1.331282 -0.248853 0.263128 -0.072119
    34 1.719429 0.000006 0.000011 0.000000 0.000000 -0.676754
    35 1.099661 0.000002 0.000007 0.000000 0.000000 -1.021285
    36 0.806019 -0.359832 -1.318334 1.349682 0.343492 -0.771448
    37 1.789782 -0.000008 -0.000008 0.000000 0.000000 0.397500
    38 1.207003 -0.000002 -0.000002 0.000000 0.000000 0.989031
    39 -20.282417 5.667645 -2.906060 1.576458 0.027153 -1.548649
    40 24.536311 -20.007876 -17.671912 -2.731725 1.010042 2.587077
    41 21.243244 -20.096719 -15.944380 -2.731725 1.010042 2.587068
    42 0.030305 0.405413 -1.879908 -0.000001 0.000000 0.000000
    43 -0.022060 -0.697964 1.867962 -0.000001 0.000000 0.000000
    44 -9.511650 -2.501287 -20.389124 -0.000014 0.000000 0.000000
  time 4
    0 0.000005 3.335938 -8.640625 -1.570760 -1.391893 -1.570827
    1 2.033348 1.000767 1.937659 1.596635 -1.286515 2.942964
    2 6.028141 0.000005 0.000002 -1.579224 0.358000 -1.145027
    3 11.692560 0.000013 -0.000006 0.000000 0.000000 -1.541523
    4 11.481678 0.000006 -0.000039 1.573165 -0.028073 0.044377
    5 3.859705 -0.142418 -1.191975 -0.476790 0.134331 -0.965119
    6 1.312563 -0.000013 0.000002 0.000000 0.000000 -0.279215
    7 0.729365 -0.000006 -0.000001 0.000000 0.000000 -0.096880
    8 3.942327 0.046753 -0.431444 -0.145079 0.087431 -0.741677
    9 1.539093 0.000008 -0.000006 0.000000 0.000000 -0.309316
    10 1.196323 -0.000006 0.000002 0.000000 0.000000 -0.521199
    11 3.883688 -0.046781 0.431443 0.085902 0.021835 -0.587865
    12 1.719580 -0.000010 0.000009 0.000002 0.005514 -0.366480
    13 1.209183 -0.000006 0.000003 0.000000 0.003091 -0.216394
    14 3.859854 -0.137962 1.332467 0.354450 -0.042751 -0.531725
    15 1.719431 0.000000 -0.000006 -0.000004 0.004079 -0.363004
    16 1.099672 0.000000 0.000004 0.000005 0.002595 -0.244332
    17 0.806046 -0.348927 1.321259 -1.166380 -0.626620 -0.921966
    18 1.789780 0.000002 -0.000006 0.000000 0.000000 0.189103
    19 1.207005 0.000001 -0.000004 0.000000 0.000000 0.306013
    20 2.033356 1.000772 -1.937610 -1.668474 1.286519 2.942954
    21 6.028142 0.000001 -0.000001 1.429043 0.511926 -1.178928
    22 11.692555 0.000031 0.000001 0.000000 0.000000 -1.049235
    23 11.481703 0.000105 0.000003 -1.480294 -0.520354 0.729190
    24 3.859676 -0.132545 1.193109 0.432208 -0.155862 -0.861348
    25 1.312563 0.000000 -0.000001 0.000002 0.000001 -1.191950
    26 0.729366 0.000002 0.000000 0.000000 0.000003 -1.063371
    27 3.942295 0.050345 0.431044 0.232421 0.000609 -0.853329
    28 1.539101 -0.000002 0.000002 0.000000 0.000000 -0.973378
    29 1.196321 -0.000004 -0.000002 -0.000003 0.000001 -1.451261
    30 3.883659 -0.050304 -0.431042 0.066988 0.050241 -0.694790
    31 1.719584 0.000006 0.000006 0.000000 0.000000 -1.251037
    32 1.209185 0.000002 0.000006 0.000002 -0.000011 -1.141145
    33 3.859833 -0.148918 -1.331282 -0.248853 0.263128 -0.072119
    34 1.719429 0.000006 0.000011 0.000000 0.000000 -0.676754
    35 1.099661 0.000002 0.000007 0.000000 0.000000 -1.021285
    36 0.806019 -0.359832 -1.318334 1.349682 0.343492 -0.771448
    37 1.789782 -0.000008 -0.000008 0.000000 0.000000 0.397500
    38 1.207003 -0.000002 -0.000002 0.000000 0.000000 0.989031
    39 -20.282417 5.667645 -2.906060 1.576458 0.027153 -1.548649
    40 26.071514 -18.359388 -17.351589 -2.824212 1.054780 2.581067
    41 22.688601 -18.717770 -15.835002 -2.824212 1.054780 2.581061
    42 0.030305 0.405413 -1.879908 -0.000001 0.000000 0.000000
    43 -0.022060 -0.697964 1.867962 -0.000001 0.000000 0.000000
    44 -9.511650 -2.501287 -20.389124 -0.000014 0.000000 0.000000
  time 5
    0 0.000005 3.335938 -8.640625 -1.570760 -1.391893 -1.570827
    1 2.033348 1.000767 1.937659 1.596635 -1.286515 2.942964
    2 6.028141 0.000005 0.000002 -1.579224 0.358000 -1.145027
    3 11.692560 0.000013 -0.000006 0.000000 0.000000 -1.541523
    4 11.481678 0.000006 -0.000039 1.573165 -0.028073 0.044377
    5 3.859705 -0.142418 -1.191975 -0.476790 0.134331 -0.965119
    6 1.312563 -0.000013 0.000002 0.000000 0.000000 -0.279215
    7 0.729365 -0.000006 -0.000001 0.000000 0.000000 -0.096880
    8 3.942327 0.046753 -0.431444 -0.145079 0.087431 -0.741677
    9 1.539093 0.000008 -0.000006 0.000000 0.000000 -0.309316
    10 1.196323 -0.000006 0.000002 0.000000 0.000000 -0.521199
    11 3.883688 -0.046781 0.431443 0.085902 0.021835 -0.587865
    12 1.719580 -0.000010 0.000009 0.000002 0.005514 -0.366480
    13 1.209183 -0.000006 0.000003 0.000000 0.003091 -0.216394
    14 3.859854 -0.137962 1.332467 0.354450 -0.042751 -0.531725
    15 1.719431 0.000000 -0.000006 -0.000004 0.004079 -0.363004
    16 1.099672 0.000000 0.000004 0.000005 0.002595 -0.244332
    17 0.806046 -0.348927 1.321259 -1.166380 -0.626620 -0.921966
    18 1.789780 0.000002 -0.000006 0.000000 0.000000 0.189103
    19 1.207005 0.000001 -0.000004 0.000000 0.000000 0.306013
    20 2.033356 1.000772 -1.937610 -1.668474 1.286519 2.942954
    21 6.028142 0.000001 -0.000001 1.442098 0.650405 -1.170630
    22 11.692555 0.000031 0.000001 0.000000 0.000000 -0.992564
    23 11.481703 0.000105 0.000003 -1.440099 -0.494732 0.686487
    24 3.859676 -0.132545 1.193109 0.432208 -0.155862 -0.861348
    25 1.312563 0.000000 -0.000001 0.000002 0.000001 -1.191950
    26 0.729366 0.000002 0.000000 0.000000 0.000003 -1.063346
    27 3.942295 0.050345 0.431044 0.232421 0.000609 -0.853329
    28 1.539101 -0.000002 0.000002 0.000000 0.000000 -0.973378
    29 1.196321 -0.000004 -0.000002 -0.000003 0.000001 -1.451261
    30 3.883659 -0.050304 -0.431042 0.066988 0.050241 -0.694790
    31 1.719584 0.000006 0.000006 0.000000 0.000000 -1.251037
    32 1.209185 0.000002 0.000006 0.000002 -0.000011 -1.141117
    33 3.859833 -0.148918 -1.331282 -0.248853 0.263128 -0.072119
    34 1.719429 0.000006 0.000011 0.000000 0.000000 -0.676754
    35 1.099661 0.000002 0.000007 0.000000 0.000000 -1.021285
    36 0.806019 -0.359832 -1.318334 1.349682 0.343492 -0.771448
    37 1.789782 -0.000008 -0.000008 0.000000 0.000000 0.397500
    38 1.207003 -0.000002 -0.000002 0.000000 0.000000 0.989031
    39 -20.282417 5.667645 -2.906060 1.576458 0.027153 -1.548649
    40 27.837193 -15.949159 -17.093769 -2.878533 1.089095 2.646136
    41 24.454280 -16.698177 -15.725624 -2.878533 1.089095 2.646108
    42 0.030305 0.405413 -1.879908 -0.000001 0.000000 0.000000
    43 -0.022060 -0.697964 1.867962 -0.000001 0.000000 0.000000
    44 -9.511650 -2.501287 -20.389124 -0.000014 0.000000 0.000000
  time 6
    0 0.000005 3.335938 -8.640625 -1.570760 -1.391893 -1.570827
    1 2.033348 1.000767 1.937659 1.596635 -1.286515 2.942964
    2 6.028141 0.000005 0.000002 -1.579224 0.358000 -1.145027
    3 11.692560 0.000013 -0.000006 0.000000 0.000000 -1.541523
    4 11.481678 0.000006 -0.000039 1.573165 -0.028073 0.044377
    5 3.859705 -0.142418 -1.191975 -0.476790 0.134331 -0.965119
    6 1.312563 -0.000013 0.000002 0.000000 0.000000 -0.279215
    7 0.729365 -0.000006 -0.000001 0.000000 0.000000 -0.096880
    8 3.942327 0.046753 -0.431444 -0.145079 0.087431 -0.741677
    9 1.539093 0.000008 -0.000006 0.000000 0.000000 -0.309316
    10 1.196323 -0.000006 0.000002 0.000000 0.000000 -0.521199
    11 3.883688 -0.046781 0.431443 0.085902 0.021835 -0.587865
    12 1.719580 -0.000010 0.000009 0.000002 0.005514 -0.366480
    13 1.209183 -0.000006 0.000003 0.000000 0.003091 -0.216394
    14 3.859854 -0.137962 1.332467 0.354450 -0.042751 -0.531725
    15 1.719431 0.000000 -0.000006 -0.000004 0.004079 -0.363004
    16 1.099672 0.000000 0.000004 0.000005 0.002595 -0.244332
    17 0.806046 -0.348927 1.321259 -1.166380 -0.626620 -0.921966
    18 1.789780 0.000002 -0.000006 0.000000 0.000000 0.189103
    19 1.207005 0.000001 -0.000004 0.000000 0.000000 0.306013
    20 2.033356 1.000772 -1.937610 -1.668474 1.286519 2.942954
    21 6.028142 0.000001 -0.000001 1.453487 0.782108 -1.160257
    22 11.692555 0.000031 0.000001 0.000000 0.000000 -0.920782
    23 11.481703 0.000105 0.000003 -1.397132 -0.459775 0.632359
    24 3.859676 -0.132545 1.193109 0.432208 -0.155862 -0.861348
    25 1.312563 0.000000 -0.000001 0.000002 0.000001 -1.191950
    26 0.729366 0.000002 0.000000 0.000000 0.000003 -1.063371
    27 3.942295 0.050345 0.431044 0.232421 0.000609 -0.853329
    28 1.539101 -0.000002 0.000002 0.000000 0.000000 -0.973378
    29 1.196321 -0.000004 -0.000002 -0.000003 0.000001 -1.451230
    30 3.883659 -0.050304 -0.431042 0.066988 0.050241 -0.694790
    31 1.719584 0.000006 0.000006 0.000000 0.000000 -1.251037
    32 1.209185 0.000002 0.000006 0.000002 -0.000011 -1.141117
    33 3.859833 -0.148918 -1.331282 -0.248853 0.263128 -0.072119
    34 1.719429 0.000006 0.000011 0.000000 0.000000 -0.676754
    35 1.099661 0.000002 0.000007 0.000000 0.000000 -1.021285
    36 0.806019 -0.359832 -1.318334 1.349682 0.343492 -0.771448
    37 1.789782 -0.000008 -0.000008 0.000000 0.000000 0.397500
    38 1.207003 -0.000002 -0.000002 0.000000 0.000000 0.989031
    39 -20.282417 5.667645 -2.906060 1.576458 0.027153 -1.548649
    40 29.294269 -13.667839 -16.789072 -2.940222 1.130026 2.695090
    41 25.946513 -14.776244 -15.588901 -2.940223 1.130026 2.695109
    42 0.030305 0.405413 -1.879908 -0.000001 0.000000 0.000000
    43 -0.022060 -0.697964 1.867962 -0.000001 0.000000 0.000000
    44 -9.511650 -2.501287 -20.389124 -0.000014 0.000000 0.000000
  time 7
    0 0.000005 3.335938 -8.640625 -1.570760 -1.391893 -1.570827
    1 2.033348 1.000767 1.937659 1.596635 -1.286515 2.942964
    2 6.028141 0.000005 0.000002 -1.579224 0.358000 -1.145027
    3 11.692560 0.000013 -0.000006 0.000000 0.000000 -1.541523
    4 11.481678 0.000006 -0.000039 1.573165 -0.028073 0.044377
    5 3.859705 -0.142418 -1.191975 -0.476790 0.134331 -0.965119
    6 1.312563 -0.000013 0.000002 0.000000 0.000000 -0.279215
    7 0.729365 -0.000006 -0.000001 0.000000 0.000000 -0.096880
    8 3.942327 0.046753 -0.431444 -0.145079 0.087431 -0.741677
    9 1.539093 0.000008 -0.000006 0.000000 0.000000 -0.309316
    10 1.196323 -0.000006 0.000002 0.000000 0.000000 -0.521199
    11 3.883688 -0.046781 0.431443 0.085902 0.021835 -0.587865
    12 1.719580 -0.000010 0.000009 0.000002 0.005514 -0.366480
    13 1.209183 -0.000006 0.000003 0.000000 0.003091 -0.216394
    14 3.859854 -0.137962 1.332467 0.354450 -0.042751 -0.531725
    15 1.719431 0.000000 -0.000006 -0.000004 0.004079 -0.363004
    16 1.099672 0.000000 0.000004 0.000005 0.002595 -0.244332
    17 0.806046 -0.348927 1.321259 -1.166380 -0.626620 -0.921966
    18 1.789780 0.000002 -0.000006 0.000000 0.000000 0.189103
    19 1.207005 0.000001 -0.000004 0.000000 0.000000 0.306013
    20 2.033356 1.000772 -1.937610 -1.668474 1.286519 2.942954
    21 6.028142 0.000001 -0.000001 1.464138 0.892733 -1.147847
    22 11.692555 0.000031 0.000001 0.000000 0.000000 -0.854744
    23 11.481703 0.000105 0.000003 -1.354050 -0.413795 0.571991
    24 3.859676 -0.132545 1.193109 0.432208 -0.155862 -0.861348
    25 1.312563 0.000000 -0.000001 0.000002 0.000001 -1.191950
    26 0.729366 0.000002 0.000000 0.000000 0.000003 -1.063396
    27 3.942295 0.050345 0.431044 0.232421 0.000609 -0.853329
    28 1.539101 -0.000002 0.000002 0.000000 0.000000 -0.973378
    29 1.196321 -0.000004 -0.000002 -0.000003 0.000001 -1.451261
    30 3.883659 -0.050304 -0.431042 0.066988 0.050241 -0.694790
    31 1.719584 0.000006 0.000006 0.000000 0.000000 -1.251037
    32 1.209185 0.000002 0.000006 0.000002 -0.000011 -1.141117
    33 3.859833 -0.148918 -1.331282 -0.248853 0.263128 -0.072119
    34 1.719429 0.000006 0.000011 0.000000 0.000000 -0.676754
    35 1.099661 0.000002 0.000007 0.000000 0.000000 -1.021285
    36 0.806019 -0.359832 -1.318334 1.349682 0.343492 -0.771448
    37 1.789782 -0.000008 -0.000008 0.000000 0.000000 0.397500
    38 1.207003 -0.000002 -0.000002 0.000000 0.000000 0.989031
    39 -20.282417 5.667645 -2.906060 1.576458 0.027153 -1.548649
    40 30.376333 -11.605276 -16.441405 -3.012398 1.176764 2.728016
    41 27.094985 -13.049628 -15.432646 -3.012399 1.176764 2.727976
    42 0.030305 0.405413 -1.879908 -0.000001 0.000000 0.000000
    43 -0.022060 -0.697964 1.867962 -0.000001 0.000000 0.000000
    44 -9.511650 -2.501287 -20.389124 -0.000014 0.000000 0.000000
  time 8
    0 0.000005 3.335938 -8.640625 -1.570760 -1.391893 -1.570827
    1 2.033348 1.000767 1.937659 1.596635 -1.286515 2.942964
    2 6.028141 0.000005 0.000002 -1.579224 0.358000 -1.145027
    3 11.692560 0.000013 -0.000006 0.000000 0.000000 -1.541523
    4 11.481678 0.000006 -0.000039 1.573165 -0.028073 0.044377
    5 3.859705 -0.142418 -1.191975 -0.476790 0.134331 -0.965119
    6 1.312563 -0.000013 0.000002 0.000000 0.000000 -0.279215
    7 0.729365 -0.000006 -0.000001 0.000000 0.000000 -0.096880
    8 3.942327 0.046753 -0.431444 -0.145079 0.087431 -0.741677
    9 1.539093 0.000008 -0.000006 0.000000 0.000000 -0.309316
    10 1.196323 -0.000006 0.000002 0.000000 0.000000 -0.521199
    11 3.883688 -0.046781 0.431443 0.085902 0.021835 -0.587865
    12 1.719580 -0.000010 0.000009 0.000002 0.005514 -0.366480
    13 1.209183 -0.000006 0.000003 0.000000 0.003091 -0.216394
    14 3.859854 -0.137962 1.332467 0.354450 -0.042751 -0.531725
    15 1.719431 0.000000 -0.000006 -0.000004 0.004079 -0.363004
    16 1.099672 0.000000 0.000004 0.000005 0.002595 -0.244332
    17 0.806046 -0.348927 1.321259 -1.166380 -0.626620 -0.921966
    18 1.789780 0.000002 -0.000006 0.000000 0.000000 0.189103
    19 1.207005 0.000001 -0.000004 0.000000 0.000000 0.306013
    20 2.033356 1.000772 -1.937610 -1.668474 1.286519 2.942954
    21 6.028142 0.000001 -0.000001 1.475582 0.987000 -1.132955
    22 11.692555 0.000031 0.000001 0.000000 0.000000 -0.796522
    23 11.481703 0.000105 0.000003 -1.314160 -0.357061 0.509106
    24 3.859676 -0.132545 1.193109 0.432208 -0.155862 -0.861348
    25 1.312563 0.000000 -0.000001 0.000002 0.000001 -1.191950
    26 0.729366 0.000002 0.000000 0.000000 0.000003 -1.063371
    27 3.942295 0.050345 0.431044 0.232421 0.000609 -0.853329
    28 1.539101 -0.000002 0.000002 0.000000 0.000000 -0.973378
    29 1.196321 -0.000004 -0.000002 -0.000003 0.000001 -1.451261
    30 3.883659 -0.050304 -0.431042 0.066988 0.050241 -0.694790
    31 1.719584 0.000006 0.000006 0.000000 0.000000 -1.251037
    32 1.209185 0.000002 0.000006 0.000002 -0.000011 -1.141117
    33 3.859833 -0.148918 -1.331282 -0.248853 0.263128 -0.072119
    34 1.719429 0.000006 0.000011 0.000000 0.000000 -0.676754
    35 1.099661 0.000002 0.000007 0.000000 0.000000 -1.021285
    36 0.806019 -0.359832 -1.318334 1.349682 0.343492 -0.771448
    37 1.789782 -0.000008 -0.000008 0.000000 0.000000 0.397500
    38 1.207003 -0.000002 -0.000002 0.000000 0.000000 0.989031
    39 -20.282417 5.667645 -2.906060 1.576458 0.027153 -1.548649
    40 31.165420 -9.691155 -16.054675 -3.095627 1.228737 2.748661
    41 27.985637 -11.455830 -15.252953 -3.095628 1.228737 2.748658
    42 0.030305 0.405413 -1.879908 -0.000001 0.000000 0.000000
    43 -0.022060 -0.697964 1.867962 -0.000001 0.000000 0.000000
    44 -9.511650 -2.501287 -20.389124 -0.000014 0.000000 0.000000
  time 9
    0 0.000005 3.335938 -8.640625 -1.570760 -1.391893 -1.570827
    1 2.033348 1.000767 1.937659 1.596635 -1.286515 2.942964
    2 6.028141 0.000005 0.000002 -1.579224 0.358000 -1.145027
    3 11.692560 0.000013 -0.000006 0.000000 0.000000 -1.541523
    4 11.481678 0.000006 -0.000039 1.573165 -0.028073 0.044377
    5 3.859705 -0.142418 -1.191975 -0.476790 0.134331 -0.965119
    6 1.312563 -0.000013 0.000002 0.000000 0.000000 -0.279215
    7 0.729365 -0.000006 -0.000001 0.000000 0.000000 -0.096880
    8 3.942327 0.046753 -0.431444 -0.145079 0.087431 -0.741677
    9 1.539093 0.000008 -0.000006 0.000000 0.000000 -0.309316
    10 1.196323 -0.000006 0.000002 0.000000 0.000000 -0.521199
    11 3.883688 -0.046781 0.431443 0.085902 0.021835 -0.587865
    12 1.719580 -0.000010 0.000009 0.000002 0.005514 -0.366480
    13 1.209183 -0.000006 0.000003 0.000000 0.003091 -0.216394
    14 3.859854 -0.137962 1.332467 0.354450 -0.042751 -0.531725
    15 1.719431 0.000000 -0.000006 -0.000004 0.004079 -0.363004
    16 1.099672 0.000000 0.000004 0.000005 0.002595 -0.244332
    17 0.806046 -0.348927 1.321259 -1.166380 -0.626620 -0.921966
    18 1.789780 0.000002 -0.000006 0.000000 0.000000 0.189103
    19 1.207005 0.000001 -0.000004 0.000000 0.000000 0.306013
    20 2.033356 1.000772 -1.937610 -1.668474 1.286519 2.942954
    21 6.028142 0.000001 -0.000001 1.488937 1.072480 -1.115026
    22 11.692555 0.000031 0.000001 0.000000 0.000000 -0.739386
    23 11.481703 0.000105 0.000003 -1.280576 -0.291382 0.446297
    24 3.859676 -0.132545 1.193109 0.432208 -0.155862 -0.861348
    25 1.312563 0.000000 -0.000001 0.000002 0.000001 -1.191950
    26 0.729366 0.000002 0.000000 0.000000 0.000003 -1.063371
    27 3.942295 0.050345 0.431044 0.232421 0.000609 -0.853329
    28 1.539101 -0.000002 0.000002 0.000000 0.000000 -0.973378
    29 1.196321 -0.000004 -0.000002 -0.000003 0.000001 -1.451292
    30 3.883659 -0.050304 -0.431042 0.066988 0.050241 -0.694790
    31 1.719584 0.000006 0.000006 0.000000 0.000000 -1.251037
    32 1.209185 0.000002 0.000006 0.000002 -0.000011 -1.141145
    33 3.859833 -0.148918 -1.331282 -0.248853 0.263128 -0.072119
    34 1.719429 0.000006 0.000011 0.000000 0.000000 -0.676754
    35 1.099661 0.000002 0.000007 0.000000 0.000000 -1.021285
    36 0.806019 -0.359832 -1.318334 1.349682 0.343492 -0.771448
    37 1.789782 -0.000008 -0.000008 0.000000 0.000000 0.397500
    38 1.207003 -0.000002 -0.000002 0.000000 0.000000 0.989031
    39 -20.282417 5.667645 -2.906060 1.576458 0.027153 -1.548649
    40 31.747469 -7.894225 -15.636693 3.092892 1.285564 2.755803
    41 28.712222 -9.967503 -15.042009 3.092888 1.285564 2.755780
    42 0.030305 0.405413 -1.879908 -0.000001 0.000000 0.000000
    43 -0.022060 -0.697964 1.867962 -0.000001 0.000000 0.000000
    44 -9.511650 -2.501287 -20.389124 -0.000014 0.000000 0.000000
  time 10
    0 0.000005 3.335938 -8.640625 -1.570760 -1.391893 -1.570827
    1 2.033348 1.000767 1.937659 1.596635 -1.286515 2.942964
    2 6.028141 0.000005 0.000002 -1.579224 0.358000 -1.145027
    3 11.692560 0.000013 -0.000006 0.000000 0.000000 -1.541523
    4 11.481678 0.000006 -0.000039 1.573165 -0.028073 0.044377
    5 3.859705 -0.142418 -1.191975 -0.476790 0.134331 -0.965119
    6 1.312563 -0.000013 0.000002 0.000000 0.000000 -0.279215
    7 0.729365 -0.000006 -0.000001 0.000000 0.000000 -0.096880
    8 3.942327 0.046753 -0.431444 -0.145079 0.087431 -0.741677
    9 1.539093 0.000008 -0.000006 0.000000 0.000000 -0.309316
    10 1.196323 -0.000006 0.000002 0.000000 0.000000 -0.521199
    11 3.883688 -0.046781 0.431443 0.085902 0.021835 -0.587865
    12 1.719580 -0.000010 0.000009 0.000002 0.005514 -0.366480
    13 1.209183 -0.000006 0.000003 0.000000 0.003091 -0.216394
    14 3.859854 -0.137962 1.332467 0.354450 -0.042751 -0.531725
    15 1.719431 0.000000 -0.000006 -0.000004 0.004079 -0.363004
    16 1.099672 0.000000 0.000004 0.000005 0.002595 -0.244332
    17 0.806046 -0.348927 1.321259 -1.166380 -0.626620 -0.921966
    18 1.789780 0.000002 -0.000006 0.000000 0.000000 0.189103
    19 1.207005 0.000001 -0.000004 0.000000 0.000000 0.306013
    20 2.033356 1.000772 -1.937610 -1.668474 1.286519 2.942954
    21 6.028142 0.000001 -0.000001 1.505734 1.153007 -1.092688
    22 11.692555 0.000031 0.000001 0.000000 0.000000 -0.680128
    23 11.481703 0.000105 0.000003 -1.255730 -0.220131 0.384821
    24 3.859676 -0.132545 1.193109 0.432208 -0.155862 -0.861348
    25 1.312563 0.000000 -0.000001 0.000002 0.000001 -1.191950
    26 0.729366 0.000002 0.000000 0.000000 0.000003 -1.063346
    27 3.942295 0.050345 0.431044 0.232421 0.000609 -0.853329
    28 1.539101 -0.000002 0.000002 0.000000 0.000000 -0.973378
    29 1.196321 -0.000004 -0.000002 -0.000003 0.000001 -1.451261
    30 3.883659 -0.050304 -0.431042 0.066988 0.050241 -0.694790
    31 1.719584 0.000006 0.000006 0.000000 0.000000 -1.251037
    32 1.209185 0.000002 0.000006 0.000002 -0.000011 -1.141145
    33 3.859833 -0.148918 -1.331282 -0.248853 0.263128 -0.072119
    34 1.719429 0.000006 0.000011 0.000000 0.000000 -0.676754
    35 1.099661 0.000002 0.000007 0.000000 0.000000 -1.021285
    36 0.806019 -0.359832 -1.318334 1.349682 0.343492 -0.771448
    37 1.789782 -0.000008 -0.000008 0.000000 0.000000 0.397500
    38 1.207003 -0.000002 -0.000002 0.000000 0.000000 0.989031
    39 -20.282417 5.667645 -2.906060 1.576458 0.027153 -1.548649
    40 32.157637 -6.202767 -15.206993 2.986328 1.345294 2.747267
    41 29.302084 -8.557304 -14.811533 2.986325 1.345294 2.747284
    42 0.030305 0.405413 -1.879908 -0.000001 0.000000 0.000000
    43 -0.022060 -0.697964 1.867962 -0.000001 0.000000 0.000000
    44 -9.511650 -2.501287 -20.389124 -0.000014 0.000000 0.000000
  time 11
    0 0.000005 3.335938 -8.640625 -1.570760 -1.391893 -1.570827
    1 2.033348 1.000767 1.937659 1.596635 -1.286515 2.942964
    2 6.028141 0.000005 0.000002 -1.579224 0.358000 -1.145027
    3 11.692560 0.000013 -0.000006 0.000000 0.000000 -1.541523
    4 11.481678 0.000006 -0.000039 1.573165 -0.028073 0.044377
    5 3.859705 -0.142418 -1.191975 -0.476790 0.134331 -0.965119
    6 1.312563 -0.000013 0.000002 0.000000 0.000000 -0.279215
    7 0.729365 -0.000006 -0.000001 0.000000 0.000000 -0.096880
    8 3.942327 0.046753 -0.431444 -0.145079 0.087431 -0.741677
    9 1.539093 0.000008 -0.000006 0.000000 0.000000 -0.309316
    10 1.196323 -0.000006 0.000002 0.000000 0.000000 -0.521199
    11 3.883688 -0.046781 0.431443 0.085902 0.021835 -0.587865
    12 1.719580 -0.000010 0.000009 0.000002 0.005514 -0.366480
    13 1.209183 -0.000006 0.000003 0.000000 0.003091 -0.216394
    14 3.859854 -0.137962 1.332467 0.354450 -0.042751 -0.531725
    15 1.719431 0.000000 -0.000006 -0.000004 0.004079 -0.363004
    16 1.099672 0.000000 0.000004 0.000005 0.002595 -0.244332
    17 0.806046 -0.348927 1.321259 -1.166380 -0.626620 -0.921966
    18 1.789780 0.000002 -0.000006 0.000000 0.000000 0.189103
    19 1.207005 0.000001 -0.000004 0.000000 0.000000 0.306013
    20 2.033356 1.000772 -1.937610 -1.668474 1.286519 2.942954
    21 6.028142 0.000001 -0.000001 1.527856 1.227738 -1.064423
    22 11.692555 0.000031 0.000001 0.000000 0.000000 -0.620508
    23 11.481703 0.000105 0.000003 -1.241028 -0.147830 0.324931
    24 3.859676 -0.132545 1.193109 0.432208 -0.155862 -0.861348
    25 1.312563 0.000000 -0.000001 0.000002 0.000001 -1.191950
    26 0.729366 0.000002 0.000000 0.000000 0.000003 -1.063371
    27 3.942295 0.050345 0.431044 0.232421 0.000609 -0.853329
    28 1.539101 -0.000002 0.000002 0.000000 0.000000 -0.973378
    29 1.196321 -0.000004 -0.000002 -0.000003 0.000001 -1.451261
    30 3.883659 -0.050304 -0.431042 0.066988 0.050241 -0.694790
    31 1.719584 0.000006 0.000006 0.000000 0.000000 -1.251037
    32 1.209185 0.000002 0.000006 0.000002 -0.000011 -1.141145
    33 3.859833 -0.148918 -1.331282 -0.248853 0.263128 -0.072119
    34 1.719429 0.000006 0.000011 0.000000 0.000000 -0.676754
    35 1.099661 0.000002 0.000007 0.000000 0.000000 -1.021285
    36 0.806019 -0.359832 -1.318334 1.349682 0.343492 -0.771448
    37 1.789782 -0.000008 -0.000008 0.000000 0.000000 0.397500
    38 1.207003 -0.000002 -0.000002 0.000000 0.000000 0.989031
    39 -20.282417 5.667645 -2.906060 1.576458 0.027153 -1.548649
    40 32.407645 -4.644126 -14.804637 2.866067 1.404549 2.720699
    41 29.759129 -7.248670 -14.577151 2.866063 1.404549 2.720682
    42 0.030305 0.405413 -1.879908 -0.000001 0.000000 0.000000
    43 -0.022060 -0.697964 1.867962 -0.000001 0.000000 0.000000
    44 -9.511650 -2.501287 -20.389124 -0.000014 0.000000 0.000000
  time 12
    0 0.000005 3.335938 -8.640625 -1.570760 -1.391893 -1.570827
    1 2.033348 1.000767 1.937659 1.596635 -1.286515 2.942964
    2 6.028141 0.000005 0.000002 -1.579224 0.358000 -1.145027
    3 11.692560 0.000013 -0.000006 0.000000 0.000000 -1.541523
    4 11.481678 0.000006 -0.000039 1.573165 -0.028073 0.044377
    5 3.859705 -0.142418 -1.191975 -0.476790 0.134331 -0.965119
    6 1.312563 -0.000013 0.000002 0.000000 0.000000 -0.279215
    7 0.729365 -0.000006 -0.000001 0.000000 0.000000 -0.096880
    8 3.942327 0.046753 -0.431444 -0.145079 0.087431 -0.741677
    9 1.539093 0.000008 -0.000006 0.000000 0.000000 -0.309316
    10 1.196323 -0.000006 0.000002 0.000000 0.000000 -0.521199
    11 3.883688 -0.046781 0.431443 0.085902 0.021835 -0.587865
    12 1.719580 -0.000010 0.000009 0.000002 0.005514 -0.366480
    13 1.209183 -0.000006 0.000003 0.000000 0.003091 -0.216394
    14 3.859854 -0.137962 1.332467 0.354450 -0.042751 -0.531725
    15 1.719431 0.000000 -0.000006 -0.000004 0.004079 -0.363004
    16 1.099672 0.000000 0.000004 0.000005 0.002595 -0.244332
    17 0.806046 -0.348927 1.321259 -1.166380 -0.626620 -0.921966
    18 1.789780 0.000002 -0.000006 0.000000 0.000000 0.189103
    19 1.207005 0.000001 -0.000004 0.000000 0.000000 0.306013
    20 2.033356 1.000772 -1.937610 -1.668474 1.286519 2.942954
    21 6.028142 0.000001 -0.000001 1.557434 1.295319 -1.028453
    22 11.692555 0.000031 0.000001 0.000000 0.000000 -0.561922
    23 11.481703 0.000105 0.000003 -1.236849 -0.079910 0.266047
    24 3.859676 -0.132545 1.193109 0.432208 -0.155862 -0.861348
    25 1.312563 0.000000 -0.000001 0.000002 0.000001 -1.191950
    26 0.729366 0.000002 0.000000 0.000000 0.000003 -1.063371
    27 3.942295 0.050345 0.431044 0.232421 0.000609 -0.853329
    28 1.539101 -0.000002 0.000002 0.000000 0.000000 -0.973378
    29 1.196321 -0.000004 -0.000002 -0.000003 0.000001 -1.451261
    30 3.883659 -0.050304 -0.431042 0.066988 0.050241 -0.694790
    31 1.719584 0.000006 0.000006 0.000000 0.000000 -1.251037
    32 1.209185 0.000002 0.000006 0.000002 -0.000011 -1.141145
    33 3.859833 -0.148918 -1.331282 -0.248853 0.263128 -0.072119
    34 1.719429 0.000006 0.000011 0.000000 0.000000 -0.676754
    35 1.099661 0.000002 0.000007 0.000000 0.000000 -1.021285
    36 0.806019 -0.359832 -1.318334 1.349682 0.343492 -0.771448
    37 1.789782 -0.000008 -0.000008 0.000000 0.000000 0.397500
    38 1.207003 -0.000002 -0.000002 0.000000 0.000000 0.989031
    39 -20.282417 5.667645 -2.906060 1.576458 0.027153 -1.548649
    40 32.517023 -3.257365 -14.460876 2.730973 1.459615 2.672703
    41 30.087264 -6.080666 -14.362301 2.730969 1.459615 2.672711
    42 0.030305 0.405413 -1.879908 -0.000001 0.000000 0.000000
    43 -0.022060 -0.697964 1.867962 -0.000001 0.000000 0.000000
    44 -9.511650 -2.501287 -20.389124 -0.000014 0.000000 0.000000
  time 13
    0 0.000005 3.335938 -8.640625 -1.570760 -1.391893 -1.570827
    1 2.033348 1.000767 1.937659 1.596635 -1.286515 2.942964
    2 6.028141 0.000005 0.000002 -1.579224 0.358000 -1.145027
    3 11.692560 0.000013 -0.000006 0.000000 0.000000 -1.541523
    4 11.481678 0.000006 -0.000039 1.573165 -0.028073 0.044377
    5 3.859705 -0.142418 -1.191975 -0.476790 0.134331 -0.965119
    6 1.312563 -0.000013 0.000002 0.000000 0.000000 -0.279215
    7 0.729365 -0.000006 -0.000001 0.000000 0.000000 -0.096880
    8 3.942327 0.046753 -0.431444 -0.145079 0.087431 -0.741677
    9 1.539093 0.000008 -0.000006 0.000000 0.000000 -0.309316
    10 1.196323 -0.000006 0.000002 0.000000 0.000000 -0.521199
    11 3.883688 -0.046781 0.431443 0.085902 0.021835 -0.587865
    12 1.719580 -0.000010 0.000009 0.000002 0.005514 -0.366480
    13 1.209183 -0.000006 0.000003 0.000000 0.003091 -0.216394
    14 3.859854 -0.137962 1.332467 0.354450 -0.042751 -0.531725
    15 1.719431 0.000000 -0.000006 -0.000004 0.004079 -0.363004
    16 1.099672 0.000000 0.000004 0.000005 0.002595 -0.244332
    17 0.806046 -0.348927 1.321259 -1.166380 -0.626620 -0.921966
    18 1.789780 0.000002 -0.000006 0.000000 0.000000 0.189103
    19 1.207005 0.000001 -0.000004 0.000000 0.000000 0.306013
    20 2.033356 1.000772 -1.937610 -1.668474 1.286519 2.942954
    21 6.028142 0.000001 -0.000001 1.598402 1.354814 -0.981184
    22 11.692555 0.000031 0.000001 0.000000 0.000000 -0.506753
    23 11.481703 0.000105 0.000003 -1.242509 -0.022086 0.207365
    24 3.859676 -0.132545 1.193109 0.432208 -0.155862 -0.861348
    25 1.312563 0.000000 -0.000001 0.000002 0.000001 -1.191950
    26 0.729366 0.000002 0.000000 0.000000 0.000003 -1.063371
    27 3.942295 0.050345 0.431044 0.232421 0.000609 -0.853329
    28 1.539101 -0.000002 0.000002 0.000000 0.000000 -0.973378
    29 1.196321 -0.000004 -0.000002 -0.000003 0.000001 -1.451261
    30 3.883659 -0.050304 -0.431042 0.066988 0.050241 -0.694790
    31 1.719584 0.000006 0.000006 0.000000 0.000000 -1.251037
    32 1.209185 0.000002 0.000006 0.000002 -0.000011 -1.141145
    33 3.859833 -0.148918 -1.331282 -0.248853 0.263128 -0.072119
    34 1.719429 0.000006 0.000011 0.000000 0.000000 -0.676754
    35 1.099661 0.000002 0.000007 0.000000 0.000000 -1.021285
    36 0.806019 -0.359832 -1.318334 1.349682 0.343492 -0.771448
    37 1.789782 -0.000008 -0.000008 0.000000 0.000000 0.397500
    38 1.207003 -0.000002 -0.000002 0.000000 0.000000 0.989031
    39 -20.282417 5.667645 -2.906060 1.576458 0.027153 -1.548649
    40 32.505304 -2.054203 -14.218681 2.595501 1.506686 2.617303
    41 30.306021 -5.057197 -14.194327 2.595498 1.506686 2.617275
    42 0.030305 0.405413 -1.879908 -0.000001 0.000000 0.000000
    43 -0.022060 -0.697964 1.867962 -0.000001 0.000000 0.000000
    44 -9.511650 -2.501287 -20.389124 -0.000014 0.000000 0.000000
  time 14
    0 0.000005 3.335938 -8.640625 -1.570760 -1.391893 -1.570827
    1 2.033348 1.000767 1.937659 1.596635 -1.286515 2.942964
    2 6.028141 0.000005 0.000002 -1.579224 0.358000 -1.145027
    3 11.692560 0.000013 -0.000006 0.000000 0.000000 -1.541523
    4 11.481678 0.000006 -0.000039 1.573165 -0.028073 0.044377
    5 3.859705 -0.142418 -1.191975 -0.476790 0.134331 -0.965119
    6 1.312563 -0.000013 0.000002 0.000000 0.000000 -0.279215
    7 0.729365 -0.000006 -0.000001 0.000000 0.000000 -0.096880
    8 3.942327 0.046753 -0.431444 -0.145079 0.087431 -0.741677
    9 1.539093 0.000008 -0.000006 0.000000 0.000000 -0.309316
    10 1.196323 -0.000006 0.000002 0.000000 0.000000 -0.521199
    11 3.883688 -0.046781 0.431443 0.085902 0.021835 -0.587865
    12 1.719580 -0.000010 0.000009 0.000002 0.005514 -0.366480
    13 1.209183 -0.000006 0.000003 0.000000 0.003091 -0.216394
    14 3.859854 -0.137962 1.332467 0.354450 -0.042751 -0.531725
    15 1.719431 0.000000 -0.000006 -0.000004 0.004079 -0.363004
    16 1.099672 0.000000 0.000004 0.000005 0.002595 -0.244332
    17 0.806046 -0.348927 1.321259 -1.166380 -0.626620 -0.921966
    18 1.789780 0.000002 -0.000006 0.000000 0.000000 0.189103
    19 1.207005 0.000001 -0.000004 0.000000 0.000000 0.306013
    20 2.033356 1.000772 -1.937610 -1.668474 1.286519 2.942954
    21 6.028142 0.000001 -0.000001 1.656329 1.405056 -0.917394
    22 11.692555 0.000031 0.000001 0.000000 0.000000 -0.457173
    23 11.481703 0.000105 0.000003 -1.256224 0.020110 0.148280
    24 3.859676 -0.132545 1.193109 0.432208 -0.155862 -0.861348
    25 1.312563 0.000000 -0.000001 0.000002 0.000001 -1.191950
    26 0.729366 0.000002 0.000000 0.000000 0.000003 -1.063371
    27 3.942295 0.050345 0.431044 0.232421 0.000609 -0.853329
    28 1.539101 -0.000002 0.000002 0.000000 0.000000 -0.973378
    29 1.196321 -0.000004 -0.000002 -0.000003 0.000001 -1.451261
    30 3.883659 -0.050304 -0.431042 0.066988 0.050241 -0.694790
    31 1.719584 0.000006 0.000006 0.000000 0.000000 -1.251037
    32 1.209185 0.000002 0.000006 0.000002 -0.000011 -1.141145
    33 3.859833 -0.148918 -1.331282 -0.248853 0.263128 -0.072119
    34 1.719429 0.000006 0.000011 0.000000 0.000000 -0.676754
    35 1.099661 0.000002 0.000007 0.000000 0.000000 -1.021285
    36 0.806019 -0.359832 -1.318334 1.349682 0.343492 -0.771448
    37 1.789782 -0.000008 -0.000008 0.000000 0.000000 0.397500
    38 1.207003 -0.000002 -0.000002 0.000000 0.000000 0.989031
    39 -20.282417 5.667645 -2.906060 1.576458 0.027153 -1.548649
    40 32.399832 -1.038547 -14.101490 2.597485 1.542667 2.691606
    41 30.423212 -4.193889 -14.088855 2.597482 1.542667 2.691676
    42 0.030305 0.405413 -1.879908 -0.000001 0.000000 0.000000
    43 -0.022060 -0.697964 1.867962 -0.000001 0.000000 0.000000
    44 -9.511650 -2.501287 -20.389124 -0.000014 0.000000 0.000000
  time 15
    0 0.000005 3.335938 -8.640625 -1.570760 -1.391893 -1.570827
    1 2.033348 1.000767 1.937659 1.596635 -1.286515 2.942964
    2 6.028141 0.000005 0.000002 -1.579224 0.358000 -1.145027
    3 11.692560 0.000013 -0.000006 0.000000 0.000000 -1.541523
    4 11.481678 0.000006 -0.000039 1.573165 -0.028073 0.044377
    5 3.859705 -0.142418 -1.191975 -0.476790 0.134331 -0.965119
    6 1.312563 -0.000013 0.000002 0.000000 0.000000 -0.279215
    7 0.729365 -0.000006 -0.000001 0.000000 0.000000 -0.096880
    8 3.942327 0.046753 -0.431444 -0.145079 0.087431 -0.741677
    9 1.539093 0.000008 -0.000006 0.000000 0.000000 -0.309316
    10 1.196323 -0.000006 0.000002 0.000000 0.000000 -0.521199
    11 3.883688 -0.046781 0.431443 0.085902 0.021835 -0.587865
    12 1.719580 -0.000010 0.000009 0.000002 0.005514 -0.366480
    13 1.209183 -0.000006 0.000003 0.000000 0.003091 -0.216394
    14 3.859854 -0.137962 1.332467 0.354450 -0.042751 -0.531725
    15 1.719431 0.000000 -0.000006 -0.000004 0.004079 -0.363004
    16 1.099672 0.000000 0.000004 0.000005 0.002595 -0.244332
    17 0.806046 -0.348927 1.321259 -1.166380 -0.626620 -0.921966
    18 1.789780 0.000002 -0.000006 0.000000 0.000000 0.189103
    19 1.207005 0.000001 -0.000004 0.000000 0.000000 0.306013
    20 2.033356 1.000772 -1.937610 -1.668474 1.286519 2.942954
    21 6.028142 0.000001 -0.000001 1.737881 1.445436 -0.830784
    22 11.692555 0.000031 0.000001 0.000000 0.000000 -0.415097
    23 11.481703 0.000105 0.000003 -1.273738 0.041722 0.111214
    24 3.859676 -0.132545 1.193109 0.432208 -0.155862 -0.861348
    25 1.312563 0.000000 -0.000001 0.000002 0.000001 -1.191950
    26 0.729366 0.000002 0.000000 0.000000 0.000003 -1.063371
    27 3.942295 0.050345 0.431044 0.232421 0.000609 -0.853329
    28 1.539101 -0.000002 0.000002 0.000000 0.000000 -0.973378
    29 1.196321 -0.000004 -0.000002 -0.000003 0.000001 -1.451261
    30 3.883659 -0.050304 -0.431042 0.066988 0.050241 -0.694790
    31 1.719584 0.000006 0.000006 0.000000 0.000000 -1.251037
    32 1.209185 0.000002 0.000006 0.000002 -0.000011 -1.141145
    33 3.859833 -0.148918 -1.331282 -0.248853 0.263128 -0.072119
    34 1.719429 0.000006 0.000011 0.000000 0.000000 -0.676754
    35 1.099661 0.000002 0.000007 0.000000 0.000000 -1.021285
    36 0.806019 -0.359832 -1.318334 1.349682 0.343492 -0.771448
    37 1.789782 -0.000008 -0.000008 0.000000 0.000000 0.397500
    38 1.207003 -0.000002 -0.000002 0.000000 0.000000 0.989031
    39 -20.282417 5.667645 -2.906060 1.576458 0.027153 -1.548649
    40 32.337330 -0.331494 -14.085865 -2.384921 1.559515 -2.247708
    41 30.497433 -3.568870 -14.041979 -2.384922 1.559515 -2.247669
    42 0.030305 0.405413 -1.879908 -0.000001 0.000000 0.000000
    43 -0.022060 -0.697964 1.867962 -0.000001 0.000000 0.000000
    44 -9.511650 -2.501287 -20.389124 -0.000014 0.000000 0.000000
  time 16
    0 0.000005 3.335938 -8.640625 -1.570760 -1.391893 -1.570827
    1 2.033348 1.000767 1.937659 1.596635 -1.286515 2.942964
    2 6.028141 0.000005 0.000002 -1.579224 0.358000 -1.145027
    3 11.692560 0.000013 -0.000006 0.000000 0.000000 -1.541523
    4 11.481678 0.000006 -0.000039 1.573165 -0.028073 0.044377
    5 3.859705 -0.142418 -1.191975 -0.476790 0.134331 -0.965119
    6 1.312563 -0.000013 0.000002 0.000000 0.000000 -0.279215
    7 0.729365 -0.000006 -0.000001 0.000000 0.000000 -0.096880
    8 3.942327 0.046753 -0.431444 -0.145079 0.087431 -0.741677
    9 1.539093 0.000008 -0.000006 0.000000 0.000000 -0.309316
    10 1.196323 -0.000006 0.000002 0.000000 0.000000 -0.521199
    11 3.883688 -0.046781 0.431443 0.085902 0.021835 -0.587865
    12 1.719580 -0.000010 0.000009 0.000002 0.005514 -0.366480
    13 1.209183 -0.000006 0.000003 0.000000 0.003091 -0.216394
    14 3.859854 -0.137962 1.332467 0.354450 -0.042751 -0.531725
    15 1.719431 0.000000 -0.000006 -0.000004 0.004079 -0.363004
    16 1.099672 0.000000 0.000004 0.000005 0.002595 -0.244332
    17 0.806046 -0.348927 1.321259 -1.166380 -0.626620 -0.921966
    18 1.789780 0.000002 -0.000006 0.000000 0.000000 0.189103
    19 1.207005 0.000001 -0.000004 0.000000 0.000000 0.306013
    20 2.033356 1.000772 -1.937610 -1.668474 1.286519 2.942954
    21 6.028142 0.000001 -0.000001 1.846881 1.475440 -0.717724
    22 11.692555 0.000031 0.000001 0.000000 0.000000 -0.381820
    23 11.481703 0.000105 0.000003 -1.290416 0.046102 0.099009
    24 3.859676 -0.132545 1.193109 0.432208 -0.155862 -0.861348
    25 1.312563 0.000000 -0.000001 0.000002 0.000001 -1.191950
    26 0.729366 0.000002 0.000000 0.000000 0.000003 -1.063371
    27 3.942295 0.050345 0.431044 0.232421 0.000609 -0.853329
    28 1.539101 -0.000002 0.000002 0.000000 0.000000 -0.973378
    29 1.196321 -0.000004 -0.000002 -0.000003 0.000001 -1.451261
    30 3.883659 -0.050304 -0.431042 0.066988 0.050241 -0.694790
    31 1.719584 0.000006 0.000006 0.000000 0.000000 -1.251037
    32 1.209185 0.000002 0.000006 0.000002 -0.000011 -1.141145
    33 3.859833 -0.148918 -1.331282 -0.248853 0.263128 -0.072119
    34 1.719429 0.000006 0.000011 0.000000 0.000000 -0.676754
    35 1.099661 0.000002 0.000007 0.000000 0.000000 -1.021285
    36 0.806019 -0.359832 -1.318334 1.349682 0.343492 -0.771448
    37 1.789782 -0.000008 -0.000008 0.000000 0.000000 0.397500
    38 1.207003 -0.000002 -0.000002 0.000000 0.000000 0.989031
    39 -20.282417 5.667645 -2.906060 1.576458 0.027153 -1.548649
    40 32.349049 0.082581 -14.128835 -1.672987 1.541810 -1.522804
    41 30.552122 -3.178234 -14.034166 -1.672988 1.541810 -1.522789
    42 0.030305 0.405413 -1.879908 -0.000001 0.000000 0.000000
    43 -0.022060 -0.697964 1.867962 -0.000001 0.000000 0.000000
    44 -9.511650 -2.501287 -20.389124 -0.000014 0.000000 0.000000
  time 17
    0 0.000005 3.335938 -8.640625 -1.570760 -1.391893 -1.570827
    1 2.033348 1.000767 1.937659 1.596635 -1.286515 2.942964
    2 6.028141 0.000005 0.000002 -1.579224 0.358000 -1.145027
    3 11.692560 0.000013 -0.000006 0.000000 0.000000 -1.541523
    4 11.481678 0.000006 -0.000039 1.573165 -0.028073 0.044377
    5 3.859705 -0.142418 -1.191975 -0.476790 0.134331 -0.965119
    6 1.312563 -0.000013 0.000002 0.000000 0.000000 -0.279215
    7 0.729365 -0.000006 -0.000001 0.000000 0.000000 -0.096880
    8 3.942327 0.046753 -0.431444 -0.145079 0.087431 -0.741677
    9 1.539093 0.000008 -0.000006 0.000000 0.000000 -0.309316
    10 1.196323 -0.000006 0.000002 0.000000 0.000000 -0.521199
    11 3.883688 -0.046781 0.431443 0.085902 0.021835 -0.587865
    12 1.719580 -0.000010 0.000009 0.000002 0.005514 -0.366480
    13 1.209183 -0.000006 0.000003 0.000000 0.003091 -0.216394
    14 3.859854 -0.137962 1.332467 0.354450 -0.042751 -0.531725
    15 1.719431 0.000000 -0.000006 -0.000004 0.004079 -0.363004
    16 1.099672 0.000000 0.000004 0.000005 0.002595 -0.244332
    17 0.806046 -0.348927 1.321259 -1.166380 -0.626620 -0.921966
    18 1.789780 0.000002 -0.000006 0.000000 0.000000 0.189103
    19 1.207005 0.000001 -0.000004 0.000000 0.000000 0.306013
    20 2.033356 1.000772 -1.937610 -1.668474 1.286519 2.942954
    21 6.028142 0.000001 -0.000001 1.975710 1.495677 -0.585957
    22 11.692555 0.000031 0.000001 0.000000 0.000000 -0.357392
    23 11.481703 0.000105 0.000003 -1.304054 0.044148 0.099437
    24 3.859676 -0.132545 1.193109 0.432208 -0.155862 -0.861348
    25 1.312563 0.000000 -0.000001 0.000002 0.000001 -1.191950
    26 0.729366 0.000002 0.000000 0.000000 0.000003 -1.063371
    27 3.942295 0.050345 0.431044 0.232421 0.000609 -0.853329
    28 1.539101 -0.000002 0.000002 0.000000 0.000000 -0.973378
    29 1.196321 -0.000004 -0.000002 -0.000003 0.000001 -1.451261
    30 3.883659 -0.050304 -0.431042 0.066988 0.050241 -0.694790
    31 1.719584 0.000006 0.000006 0.000000 0.000000 -1.251037
    32 1.209185 0.000002 0.000006 0.000002 -0.000011 -1.141145
    33 3.859833 -0.148918 -1.331282 -0.248853 0.263128 -0.072119
    34 1.719429 0.000006 0.000011 0.000000 0.000000 -0.676754
    35 1.099661 0.000002 0.000007 0.000000 0.000000 -1.021285
    36 0.806019 -0.359832 -1.318334 1.349682 0.343492 -0.771448
    37 1.789782 -0.000008 -0.000008 0.000000 0.000000 0.397500
    38 1.207003 -0.000002 -0.000002 0.000000 0.000000 0.989031
    39 -20.282417 5.667645 -2.906060 1.576458 0.027153 -1.548649
    40 32.399832 0.305244 -14.179618 -1.597599 1.524772 -1.449199
    41 30.598998 -2.951664 -14.038072 -1.597600 1.524772 -1.449160
    42 0.030305 0.405413 -1.879908 -0.000001 0.000000 0.000000
    43 -0.022060 -0.697964 1.867962 -0.000001 0.000000 0.000000
    44 -9.511650 -2.501287 -20.389124 -0.000014 0.000000 0.000000
  time 18
    0 0.000005 3.335938 -8.640625 -1.570760 -1.391893 -1.570827
    1 2.033348 1.000767 1.937659 1.596635 -1.286515 2.942964
    2 6.028141 0.000005 0.000002 -1.579224 0.358000 -1.145027
    3 11.692560 0.000013 -0.000006 0.000000 0.000000 -1.541523
    4 11.481678 0.000006 -0.000039 1.573165 -0.028073 0.044377
    5 3.859705 -0.142418 -1.191975 -0.476790 0.134331 -0.965119
    6 1.312563 -0.000013 0.000002 0.000000 0.000000 -0.279215
    7 0.729365 -0.000006 -0.000001 0.000000 0.000000 -0.096880
    8 3.942327 0.046753 -0.431444 -0.145079 0.087431 -0.741677
    9 1.539093 0.000008 -0.000006 0.000000 0.000000 -0.309316
    10 1.196323 -0.000006 0.000002 0.000000 0.000000 -0.521199
    11 3.883688 -0.046781 0.431443 0.085902 0.021835 -0.587865
    12 1.719580 -0.000010 0.000009 0.000002 0.005514 -0.366480
    13 1.209183 -0.000006 0.000003 0.000000 0.003091 -0.216394
    14 3.859854 -0.137962 1.332467 0.354450 -0.042751 -0.531725
    15 1.719431 0.000000 -0.000006 -0.000004 0.004079 -0.363004
    16 1.099672 0.000000 0.000004 0.000005 0.002595 -0.244332
    17 0.806046 -0.348927 1.321259 -1.166380 -0.626620 -0.921966
    18 1.789780 0.000002 -0.000006 0.000000 0.000000 0.189103
    19 1.207005 0.000001 -0.000004 0.000000 0.000000 0.306013
    20 2.033356 1.000772 -1.937610 -1.668474 1.286519 2.942954
    21 6.028142 0.000001 -0.000001 2.101288 1.507969 -0.458487
    22 11.692555 0.000031 0.000001 0.000000 0.000000 -0.340055
    23 11.481703 0.000105 0.000003 -1.312868 0.039254 0.107565
    24 3.859676 -0.132545 1.193109 0.432208 -0.155862 -0.861348
    25 1.312563 0.000000 -0.000001 0.000002 0.000001 -1.191950
    26 0.729366 0.000002 0.000000 0.000000 0.000003 -1.063371
    27 3.942295 0.050345 0.431044 0.232421 0.000609 -0.853329
    28 1.539101 -0.000002 0.000002 0.000000 0.000000 -0.973378
    29 1.196321 -0.000004 -0.000002 -0.000003 0.000001 -1.451261
    30 3.883659 -0.050304 -0.431042 0.066988 0.050241 -0.694790
    31 1.719584 0.000006 0.000006 0.000000 0.000000 -1.251037
    32 1.209185 0.000002 0.000006 0.000002 -0.000011 -1.141145
    33 3.859833 -0.148918 -1.331282 -0.248853 0.263128 -0.072119
    34 1.719429 0.000006 0.000011 0.000000 0.000000 -0.676754
    35 1.099661 0.000002 0.000007 0.000000 0.000000 -1.021285
    36 0.806019 -0.359832 -1.318334 1.349682 0.343492 -0.771448
    37 1.789782 -0.000008 -0.000008 0.000000 0.000000 0.397500
    38 1.207003 -0.000002 -0.000002 0.000000 0.000000 0.989031
    39 -20.282417 5.667645 -2.906060 1.576458 0.027153 -1.548649
    40 32.474053 0.379465 -14.214775 -1.587207 1.513587 -1.449809
    41 30.638062 -2.854005 -14.045885 -1.587208 1.513587 -1.449760
    42 0.030305 0.405413 -1.879908 -0.000001 0.000000 0.000000
    43 -0.022060 -0.697964 1.867962 -0.000001 0.000000 0.000000
    44 -9.511650 -2.501287 -20.389124 -0.000014 0.000000 0.000000
  time 19
    0 0.000005 3.335938 -8.640625 -1.570760 -1.391893 -1.570827
    1 2.033348 1.000767 1.937659 1.596635 -1.286515 2.942964
    2 6.028141 0.000005 0.000002 -1.579224 0.358000 -1.145027
    3 11.692560 0.000013 -0.000006 0.000000 0.000000 -1.541523
    4 11.481678 0.000006 -0.000039 1.573165 -0.028073 0.044377
    5 3.859705 -0.142418 -1.191975 -0.476790 0.134331 -0.965119
    6 1.312563 -0.000013 0.000002 0.000000 0.000000 -0.279215
    7 0.729365 -0.000006 -0.000001 0.000000 0.000000 -0.096880
    8 3.942327 0.046753 -0.431444 -0.145079 0.087431 -0.741677
    9 1.539093 0.000008 -0.000006 0.000000 0.000000 -0.309316
    10 1.196323 -0.000006 0.000002 0.000000 0.000000 -0.521199
    11 3.883688 -0.046781 0.431443 0.085902 0.021835 -0.587865
    12 1.719580 -0.000010 0.000009 0.000002 0.005514 -0.366480
    13 1.209183 -0.000006 0.000003 0.000000 0.003091 -0.216394
    14 3.859854 -0.137962 1.332467 0.354450 -0.042751 -0.531725
    15 1.719431 0.000000 -0.000006 -0.000004 0.004079 -0.363004
    16 1.099672 0.000000 0.000004 0.000005 0.002595 -0.244332
    17 0.806046 -0.348927 1.321259 -1.166380 -0.626620 -0.921966
    18 1.789780 0.000002 -0.000006 0.000000 0.000000 0.189103
    19 1.207005 0.000001 -0.000004 0.000000 0.000000 0.306013
    20 2.033356 1.000772 -1.937610 -1.668474 1.286519 2.942954
    21 6.028142 0.000001 -0.000001 2.202750 1.515353 -0.356170
    22 11.692555 0.000031 0.000001 0.000000 0.000000 -0.326392
    23 11.481703 0.000105 0.000003 -1.312868 0.032900 0.120801
    24 3.859676 -0.132545 1.193109 0.432208 -0.155862 -0.861348
    25 1.312563 0.000000 -0.000001 0.000002 0.000001 -1.191950
    26 0.729366 0.000002 0.000000 0.000000 0.000003 -1.063371
    27 3.942295 0.050345 0.431044 0.232421 0.000609 -0.853329
    28 1.539101 -0.000002 0.000002 0.000000 0.000000 -0.973378
    29 1.196321 -0.000004 -0.000002 -0.000003 0.000001 -1.451261
    30 3.883659 -0.050304 -0.431042 0.066988 0.050241 -0.694790
    31 1.719584 0.000006 0.000006 0.000000 0.000000 -1.251037
    32 1.209185 0.000002 0.000006 0.000002 -0.000011 -1.141145
    33 3.859833 -0.148918 -1.331282 -0.248853 0.263128 -0.072119
    34 1.719429 0.000006 0.000011 0.000000 0.000000 -0.676754
    35 1.099661 0.000002 0.000007 0.000000 0.000000 -1.021285
    36 0.806019 -0.359832 -1.318334 1.349682 0.343492 -0.771448
    37 1.789782 -0.000008 -0.000008 0.000000 0.000000 0.397500
    38 1.207003 -0.000002 -0.000002 0.000000 0.000000 0.989031
    39 -20.282417 5.667645 -2.906060 1.576458 0.027153 -1.548649
    40 32.575619 0.340401 -14.218681 -1.587680 1.512207 -1.468537
    41 30.677126 -2.857911 -14.045885 -1.587586 1.512207 -1.468468
    42 0.030305 0.405413 -1.879908 -0.000001 0.000000 0.000000
    43 -0.022060 -0.697964 1.867962 -0.000001 0.000000 0.000000
    44 -9.511650 -2.501287 -20.389124 -0.000014 0.000000 0.000000
  time 20
    0 0.000005 3.335938 -8.640625 -1.570760 -1.391893 -1.570827
    1 2.033348 1.000767 1.937659 1.596635 -1.286515 2.942964
    2 6.028141 0.000005 0.000002 -1.579224 0.358000 -1.145027
    3 11.692560 0.000013 -0.000006 0.000000 0.000000 -1.541523
    4 11.481678 0.000006 -0.000039 1.573165 -0.028073 0.044377
    5 3.859705 -0.142418 -1.191975 -0.476790 0.134331 -0.965119
    6 1.312563 -0.000013 0.000002 0.000000 0.000000 -0.279215
    7 0.729365 -0.000006 -0.000001 0.000000 0.000000 -0.096880
    8 3.942327 0.046753 -0.431444 -0.145079 0.087431 -0.741677
    9 1.539093 0.000008 -0.000006 0.000000 0.000000 -0.309316
    10 1.196323 -0.000006 0.000002 0.000000 0.000000 -0.521199
    11 3.883688 -0.046781 0.431443 0.085902 0.021835 -0.587865
    12 1.719580 -0.000010 0.000009 0.000002 0.005514 -0.366480
    13 1.209183 -0.000006 0.000003 0.000000 0.003091 -0.216394
    14 3.859854 -0.137962 1.332467 0.354450 -0.042751 -0.531725
    15 1.719431 0.000000 -0.000006 -0.000004 0.004079 -0.363004
    16 1.099672 0.000000 0.000004 0.000005 0.002595 -0.244332
    17 0.806046 -0.348927 1.321259 -1.166380 -0.626620 -0.921966
    18 1.789780 0.000002 -0.000006 0.000000 0.000000 0.189103
    19 1.207005 0.000001 -0.000004 0.000000 0.000000 0.306013
    20 2.033356 1.000772 -1.937610 -1.668474 1.286519 2.942954
    21 6.028142 0.000001 -0.000001 2.288699 1.520961 -0.270079
    22 11.692555 0.000031 0.000001 0.000000 0.000000 -0.311642
    23 11.481703 0.000105 0.000003 -1.305726 0.026012 0.137409
    24 3.859676 -0.132545 1.193109 0.432208 -0.155862 -0.861348
    25 1.312563 0.000000 -0.000001 0.000002 0.000001 -1.191950
    26 0.729366 0.000002 0.000000 0.000000 0.000003 -1.063371
    27 3.942295 0.050345 0.431044 0.232421 0.000609 -0.853329
    28 1.539101 -0.000002 0.000002 0.000000 0.000000 -0.973378
    29 1.196321 -0.000004 -0.000002 -0.000003 0.000001 -1.451261
    30 3.883659 -0.050304 -0.431042 0.066988 0.050241 -0.694790
    31 1.719584 0.000006 0.000006 0.000000 0.000000 -1.251037
    32 1.209185 0.000002 0.000006 0.000002 -0.000011 -1.141145
    33 3.859833 -0.148918 -1.331282 -0.248853 0.263128 -0.072119
    34 1.719429 0.000006 0.000011 0.000000 0.000000 -0.676754
    35 1.099661 0.000002 0.000007 0.000000 0.000000 -1.021285
    36 0.806019 -0.359832 -1.318334 1.349682 0.343492 -0.771448
    37 1.789782 -0.000008 -0.000008 0.000000 0.000000 0.397500
    38 1.207003 -0.000002 -0.000002 0.000000 0.000000 0.989031
    39 -20.282417 5.667645 -2.906060 1.576458 0.027153 -1.548649
    40 32.704529 0.211491 -14.191337 -1.577949 1.518870 -1.483780
    41 30.727909 -2.939945 -14.038072 -1.577950 1.518870 -1.483743
    42 0.030305 0.405413 -1.879908 -0.000001 0.000000 0.000000
    43 -0.022060 -0.697964 1.867962 -0.000001 0.000000 0.000000
    44 -9.511650 -2.501287 -20.389124 -0.000014 0.000000 0.000000
  time 21
    0 0.000005 3.335938 -8.640625 -1.570760 -1.391893 -1.570827
    1 2.033348 1.000767 1.937659 1.596635 -1.286515 2.942964
    2 6.028141 0.000005 0.000002 -1.579224 0.358000 -1.145027
    3 11.692560 0.000013 -0.000006 0.000000 0.000000 -1.541523
    4 11.481678 0.000006 -0.000039 1.573165 -0.028073 0.044377
    5 3.859705 -0.142418 -1.191975 -0.476790 0.134331 -0.965119
    6 1.312563 -0.000013 0.000002 0.000000 0.000000 -0.279215
    7 0.729365 -0.000006 -0.000001 0.000000 0.000000 -0.096880
    8 3.942327 0.046753 -0.431444 -0.145079 0.087431 -0.741677
    9 1.539093 0.000008 -0.000006 0.000000 0.000000 -0.309316
    10 1.196323 -0.000006 0.000002 0.000000 0.000000 -0.521199
    11 3.883688 -0.046781 0.431443 0.085902 0.021835 -0.587865
    12 1.719580 -0.000010 0.000009 0.000002 0.005514 -0.366480
    13 1.209183 -0.000006 0.000003 0.000000 0.003091 -0.216394
    14 3.859854 -0.137962 1.332467 0.354450 -0.042751 -0.531725
    15 1.719431 0.000000 -0.000006 -0.000004 0.004079 -0.363004
    16 1.099672 0.000000 0.000004 0.000005 0.002595 -0.244332
    17 0.806046 -0.348927 1.321259 -1.166380 -0.626620 -0.921966
    18 1.789780 0.000002 -0.000006 0.000000 0.000000 0.189103
    19 1.207005 0.000001 -0.000004 0.000000 0.000000 0.306013
    20 2.033356 1.000772 -1.937610 -1.668474 1.286519 2.942954
    21 6.028142 0.000001 -0.000001 2.314536 1.523345 -0.244666
    22 11.692555 0.000031 0.000001 0.000000 0.000000 -0.302585
    23 11.481703 0.000105 0.000003 -1.299153 0.019329 0.155905
    24 3.859676 -0.132545 1.193109 0.432208 -0.155862 -0.861348
    25 1.312563 0.000000 -0.000001 0.000002 0.000001 -1.191950
    26 0.729366 0.000002 0.000000 0.000000 0.000003 -1.063371
    27 3.942295 0.050345 0.431044 0.232421 0.000609 -0.853329
    28 1.539101 -0.000002 0.000002 0.000000 0.000000 -0.973378
    29 1.196321 -0.000004 -0.000002 -0.000003 0.000001 -1.451261
    30 3.883659 -0.050304 -0.431042 0.066988 0.050241 -0.694790
    31 1.719584 0.000006 0.000006 0.000000 0.000000 -1.251037
    32 1.209185 0.000002 0.000006 0.000002 -0.000011 -1.141145
    33 3.859833 -0.148918 -1.331282 -0.248853 0.263128 -0.072119
    34 1.719429 0.000006 0.000011 0.000000 0.000000 -0.676754
    35 1.099661 0.000002 0.000007 0.000000 0.000000 -1.021285
    36 0.806019 -0.359832 -1.318334 1.349682 0.343492 -0.771448
    37 1.789782 -0.000008 -0.000008 0.000000 0.000000 0.397500
    38 1.207003 -0.000002 -0.000002 0.000000 0.000000 0.989031
    39 -20.282417 5.667645 -2.906060 1.576458 0.027153 -1.548649
    40 32.829533 0.027892 -14.163992 -1.566990 1.525724 -1.498763
    41 30.770879 -3.072762 -14.030259 -1.566991 1.525724 -1.498761
    42 0.030305 0.405413 -1.879908 -0.000001 0.000000 0.000000
    43 -0.022060 -0.697964 1.867962 -0.000001 0.000000 0.000000
    44 -9.511650 -2.501287 -20.389124 -0.000014 0.000000 0.000000
  time 22
    0 0.000005 3.335938 -8.640625 -1.570760 -1.391893 -1.570827
    1 2.033348 1.000767 1.937659 1.596635 -1.286515 2.942964
    2 6.028141 0.000005 0.000002 -1.579224 0.358000 -1.145027
    3 11.692560 0.000013 -0.000006 0.000000 0.000000 -1.541523
    4 11.481678 0.000006 -0.000039 1.573165 -0.028073 0.044377
    5 3.859705 -0.142418 -1.191975 -0.476790 0.134331 -0.965119
    6 1.312563 -0.000013 0.000002 0.000000 0.000000 -0.279215
    7 0.729365 -0.000006 -0.000001 0.000000 0.000000 -0.096880
    8 3.942327 0.046753 -0.431444 -0.145079 0.087431 -0.741677
    9 1.539093 0.000008 -0.000006 0.000000 0.000000 -0.309316
    10 1.196323 -0.000006 0.000002 0.000000 0.000000 -0.521199
    11 3.883688 -0.046781 0.431443 0.085902 0.021835 -0.587865
    12 1.719580 -0.000010 0.000009 0.000002 0.005514 -0.366480
    13 1.209183 -0.000006 0.000003 0.000000 0.003091 -0.216394
    14 3.859854 -0.137962 1.332467 0.354450 -0.042751 -0.531725
    15 1.719431 0.000000 -0.000006 -0.000004 0.004079 -0.363004
    16 1.099672 0.000000 0.000004 0.000005 0.002595 -0.244332
    17 0.806046 -0.348927 1.321259 -1.166380 -0.626620 -0.921966
    18 1.789780 0.000002 -0.000006 0.000000 0.000000 0.189103
    19 1.207005 0.000001 -0.000004 0.000000 0.000000 0.306013
    20 2.033356 1.000772 -1.937610 -1.668474 1.286519 2.942954
    21 6.028142 0.000001 -0.000001 2.245875 1.520868 -0.314088
    22 11.692555 0.000031 0.000001 0.000000 0.000000 -0.305380
    23 11.481703 0.000105 0.000003 -1.293759 0.013468 0.174803
    24 3.859676 -0.132545 1.193109 0.432208 -0.155862 -0.861348
    25 1.312563 0.000000 -0.000001 0.000002 0.000001 -1.191950
    26 0.729366 0.000002 0.000000 0.000000 0.000003 -1.063371
    27 3.942295 0.050345 0.431044 0.232421 0.000609 -0.853329
    28 1.539101 -0.000002 0.000002 0.000000 0.000000 -0.973378
    29 1.196321 -0.000004 -0.000002 -0.000003 0.000001 -1.451261
    30 3.883659 -0.050304 -0.431042 0.066988 0.050241 -0.694790
    31 1.719584 0.000006 0.000006 0.000000 0.000000 -1.251037
    32 1.209185 0.000002 0.000006 0.000002 -0.000011 -1.141145
    33 3.859833 -0.148918 -1.331282 -0.248853 0.263128 -0.072119
    34 1.719429 0.000006 0.000011 0.000000 0.000000 -0.676754
    35 1.099661 0.000002 0.000007 0.000000 0.000000 -1.021285
    36 0.806019 -0.359832 -1.318334 1.349682 0.343492 -0.771448
    37 1.789782 -0.000008 -0.000008 0.000000 0.000000 0.397500
    38 1.207003 -0.000002 -0.000002 0.000000 0.000000 0.989031
    39 -20.282417 5.667645 -2.906060 1.576458 0.027153 -1.548649
    40 32.907660 -0.155708 -14.144460 -1.576060 1.531816 -1.529076
    41 30.786504 -3.209484 -14.030259 -1.576061 1.531816 -1.529053
    42 0.030305 0.405413 -1.879908 -0.000001 0.000000 0.000000
    43 -0.022060 -0.697964 1.867962 -0.000001 0.000000 0.000000
    44 -9.511650 -2.501287 -20.389124 -0.000014 0.000000 0.000000
  time 23
    0 0.000005 3.335938 -8.640625 -1.570760 -1.391893 -1.570827
    1 2.033348 1.000767 1.937659 1.596635 -1.286515 2.942964
    2 6.028141 0.000005 0.000002 -1.579224 0.358000 -1.145027
    3 11.692560 0.000013 -0.000006 0.000000 0.000000 -1.541523
    4 11.481678 0.000006 -0.000039 1.573165 -0.028073 0.044377
    5 3.859705 -0.142418 -1.191975 -0.476790 0.134331 -0.965119
    6 1.312563 -0.000013 0.000002 0.000000 0.000000 -0.279215
    7 0.729365 -0.000006 -0.000001 0.000000 0.000000 -0.096880
    8 3.942327 0.046753 -0.431444 -0.145079 0.087431 -0.741677
    9 1.539093 0.000008 -0.000006 0.000000 0.000000 -0.309316
    10 1.196323 -0.000006 0.000002 0.000000 0.000000 -0.521199
    11 3.883688 -0.046781 0.431443 0.085902 0.021835 -0.587865
    12 1.719580 -0.000010 0.000009 0.000002 0.005514 -0.366480
    13 1.209183 -0.000006 0.000003 0.000000 0.003091 -0.216394
    14 3.859854 -0.137962 1.332467 0.354450 -0.042751 -0.531725
    15 1.719431 0.000000 -0.000006 -0.000004 0.004079 -0.363004
    16 1.099672 0.000000 0.000004 0.000005 0.002595 -0.244332
    17 0.806046 -0.348927 1.321259 -1.166380 -0.626620 -0.921966
    18 1.789780 0.000002 -0.000006 0.000000 0.000000 0.189103
    19 1.207005 0.000001 -0.000004 0.000000 0.000000 0.306013
    20 2.033356 1.000772 -1.937610 -1.668474 1.286519 2.942954
    21 6.028142 0.000001 -0.000001 2.163066 1.516475 -0.397660
    22 11.692555 0.000031 0.000001 0.000000 0.000000 -0.312470
    23 11.481703 0.000105 0.000003 -1.290150 0.009170 0.191763
    24 3.859676 -0.132545 1.193109 0.432208 -0.155862 -0.861348
    25 1.312563 0.000000 -0.000001 0.000002 0.000001 -1.191950
    26 0.729366 0.000002 0.000000 0.000000 0.000003 -1.063371
    27 3.942295 0.050345 0.431044 0.232421 0.000609 -0.853329
    28 1.539101 -0.000002 0.000002 0.000000 0.000000 -0.973378
    29 1.196321 -0.000004 -0.000002 -0.000003 0.000001 -1.451261
    30 3.883659 -0.050304 -0.431042 0.066988 0.050241 -0.694790
    31 1.719584 0.000006 0.000006 0.000000 0.000000 -1.251037
    32 1.209185 0.000002 0.000006 0.000002 -0.000011 -1.141145
    33 3.859833 -0.148918 -1.331282 -0.248853 0.263128 -0.072119
    34 1.719429 0.000006 0.000011 0.000000 0.000000 -0.676754
    35 1.099661 0.000002 0.000007 0.000000 0.000000 -1.021285
    36 0.806019 -0.359832 -1.318334 1.349682 0.343492 -0.771448
    37 1.789782 -0.000008 -0.000008 0.000000 0.000000 0.397500
    38 1.207003 -0.000002 -0.000002 0.000000 0.000000 0.989031
    39 -20.282417 5.667645 -2.906060 1.576458 0.027153 -1.548649
    40 32.962349 -0.311963 -14.128835 -1.580122 1.536147 -1.549894
    41 30.790411 -3.330582 -14.026353 -1.580123 1.536147 -1.549906
    42 0.030305 0.405413 -1.879908 -0.000001 0.000000 0.000000
    43 -0.022060 -0.697964 1.867962 -0.000001 0.000000 0.000000
    44 -9.511650 -2.501287 -20.389124 -0.000014 0.000000 0.000000
  time 24
    0 0.000005 3.335938 -8.640625 -1.570760 -1.391893 -1.570827
    1 2.033348 1.000767 1.937659 1.596635 -1.286515 2.942964
    2 6.028141 0.000005 0.000002 -1.579224 0.358000 -1.145027
    3 11.692560 0.000013 -0.000006 0.000000 0.000000 -1.541523
    4 11.481678 0.000006 -0.000039 1.573165 -0.028073 0.044377
    5 3.859705 -0.142418 -1.191975 -0.476790 0.134331 -0.965119
    6 1.312563 -0.000013 0.000002 0.000000 0.000000 -0.279215
    7 0.729365 -0.000006 -0.000001 0.000000 0.000000 -0.096880
    8 3.942327 0.046753 -0.431444 -0.145079 0.087431 -0.741677
    9 1.539093 0.000008 -0.000006 0.000000 0.000000 -0.309316
    10 1.196323 -0.000006 0.000002 0.000000 0.000000 -0.521199
    11 3.883688 -0.046781 0.431443 0.085902 0.021835 -0.587865
    12 1.719580 -0.000010 0.000009 0.000002 0.005514 -0.366480
    13 1.209183 -0.000006 0.000003 0.000000 0.003091 -0.216394
    14 3.859854 -0.137962 1.332467 0.354450 -0.042751 -0.531725
    15 1.719431 0.000000 -0.000006 -0.000004 0.004079 -0.363004
    16 1.099672 0.000000 0.000004 0.000005 0.002595 -0.244332
    17 0.806046 -0.348927 1.321259 -1.166380 -0.626620 -0.921966
    18 1.789780 0.000002 -0.000006 0.000000 0.000000 0.189103
    19 1.207005 0.000001 -0.000004 0.000000 0.000000 0.306013
    20 2.033356 1.000772 -1.937610 -1.668474 1.286519 2.942954
    21 6.028142 0.000001 -0.000001 2.118876 1.513671 -0.442336
    22 11.692555 0.000031 0.000001 0.000000 0.000000 -0.316610
    23 11.481703 0.000105 0.000003 -1.288858 0.007443 0.200671
    24 3.859676 -0.132545 1.193109 0.432208 -0.155862 -0.861348
    25 1.312563 0.000000 -0.000001 0.000002 0.000001 -1.191950
    26 0.729366 0.000002 0.000000 0.000000 0.000003 -1.063371
    27 3.942295 0.050345 0.431044 0.232421 0.000609 -0.853329
    28 1.539101 -0.000002 0.000002 0.000000 0.000000 -0.973378
    29 1.196321 -0.000004 -0.000002 -0.000003 0.000001 -1.451261
    30 3.883659 -0.050304 -0.431042 0.066988 0.050241 -0.694790
    31 1.719584 0.000006 0.000006 0.000000 0.000000 -1.251037
    32 1.209185 0.000002 0.000006 0.000002 -0.000011 -1.141145
    33 3.859833 -0.148918 -1.331282 -0.248853 0.263128 -0.072119
    34 1.719429 0.000006 0.000011 0.000000 0.000000 -0.676754
    35 1.099661 0.000002 0.000007 0.000000 0.000000 -1.021285
    36 0.806019 -0.359832 -1.318334 1.349682 0.343492 -0.771448
    37 1.789782 -0.000008 -0.000008 0.000000 0.000000 0.397500
    38 1.207003 -0.000002 -0.000002 0.000000 0.000000 0.989031
    39 -20.282417 5.667645 -2.906060 1.576458 0.027153 -1.548649
    40 32.989694 -0.401809 -14.121022 -1.569824 1.537955 -1.548327
    41 30.790411 -3.400897 -14.026353 -1.569826 1.537955 -1.548362
    42 0.030305 0.405413 -1.879908 -0.000001 0.000000 0.000000
    43 -0.022060 -0.697964 1.867962 -0.000001 0.000000 0.000000
    44 -9.511650 -2.501287 -20.389124 -0.000014 0.000000 0.000000
end
