// Created by Crowbar++ 0.74
version 1
nodes
  0 "ValveBiped.Bip01_Spine4" -1
  1 "ValveBiped.Bip01_L_Clavicle" 0
  2 "ValveBiped.Bip01_L_UpperArm" 1
  3 "ValveBiped.Bip01_L_Forearm" 2
  4 "ValveBiped.Bip01_L_Hand" 3
  5 "ValveBiped.Bip01_L_Finger4" 4
  6 "ValveBiped.Bip01_L_Finger41" 5
  7 "ValveBiped.Bip01_L_Finger42" 6
  8 "ValveBiped.Bip01_L_Finger3" 4
  9 "ValveBiped.Bip01_L_Finger31" 8
  10 "ValveBiped.Bip01_L_Finger32" 9
  11 "ValveBiped.Bip01_L_Finger2" 4
  12 "ValveBiped.Bip01_L_Finger21" 11
  13 "ValveBiped.Bip01_L_Finger22" 12
  14 "ValveBiped.Bip01_L_Finger1" 4
  15 "ValveBiped.Bip01_L_Finger11" 14
  16 "ValveBiped.Bip01_L_Finger12" 15
  17 "ValveBiped.Bip01_L_Finger0" 4
  18 "ValveBiped.Bip01_L_Finger01" 17
  19 "ValveBiped.Bip01_L_Finger02" 18
  20 "ValveBiped.Bip01_R_Clavicle" 0
  21 "ValveBiped.Bip01_R_UpperArm" 20
  22 "ValveBiped.Bip01_R_Forearm" 21
  23 "ValveBiped.Bip01_R_Hand" 22
  24 "ValveBiped.Bip01_R_Finger4" 23
  25 "ValveBiped.Bip01_R_Finger41" 24
  26 "ValveBiped.Bip01_R_Finger42" 25
  27 "ValveBiped.Bip01_R_Finger3" 23
  28 "ValveBiped.Bip01_R_Finger31" 27
  29 "ValveBiped.Bip01_R_Finger32" 28
  30 "ValveBiped.Bip01_R_Finger2" 23
  31 "ValveBiped.Bip01_R_Finger21" 30
  32 "ValveBiped.Bip01_R_Finger22" 31
  33 "ValveBiped.Bip01_R_Finger1" 23
  34 "ValveBiped.Bip01_R_Finger11" 33
  35 "ValveBiped.Bip01_R_Finger12" 34
  36 "ValveBiped.Bip01_R_Finger0" 23
  37 "ValveBiped.Bip01_R_Finger01" 36
  38 "ValveBiped.Bip01_R_Finger02" 37
  39 "v_weapon.sg552_Parent" -1
  40 "v_weapon.sg552_Trigger" 39
  41 "v_weapon.sg552_Release" 39
  42 "v_weapon.sg552_Clip" 39
  43 "v_weapon.sg552_Chamber" 39
  44 "v_weapon.sg552_Clip2" -1
end
skeleton
  time 0
    0 -2.125065 -5.941594 -10.066713 -1.057822 -0.799781 -1.954829
    1 2.033348 1.000767 1.937660 3.099074 -0.162003 1.680074
    2 6.028145 0.000003 0.000002 -2.450840 0.614109 -0.720094
    3 11.692553 0.000081 -0.000005 -0.293709 0.166634 -1.809125
    4 11.481672 -0.000089 -0.000024 1.465205 0.409617 1.358680
    5 3.285463 0.002119 -1.379481 0.099718 -0.198220 -1.489132
    6 1.324282 -0.000008 0.000005 0.000000 -0.035681 -0.863336
    7 0.819336 -0.000002 0.000004 0.000000 0.000000 -0.523588
    8 3.715760 0.109255 -0.568167 0.058909 -0.134623 -1.706968
    9 1.609408 0.000006 -0.000007 -0.000002 0.005243 -0.427491
    10 0.993191 -0.000008 0.000002 0.001475 0.002258 -0.454029
    11 3.789937 0.203224 0.247844 0.023558 -0.103308 -1.670353
    12 1.684422 -0.000010 0.000009 0.000002 -0.004062 -0.253198
    13 1.252153 -0.000004 0.000003 0.000000 0.000011 -0.532266
    14 3.594223 0.299551 1.113710 0.005265 -0.118434 -1.372048
    15 1.719433 0.000002 -0.000004 -0.000004 0.000016 -0.445042
    16 1.005923 -0.000006 0.000003 0.000005 0.000018 -0.444957
    17 0.298214 -0.634094 0.430606 -1.632181 -1.028944 -0.122299
    18 2.633557 0.000002 -0.000006 -0.000002 -0.002632 0.165653
    19 1.308564 -0.000001 -0.000002 -0.017651 -0.041132 0.510763
    20 2.033356 1.000772 -1.937610 -0.128225 0.173059 4.244766
    21 6.028141 0.000000 -0.000002 3.970633 1.223341 1.497854
    22 11.692554 0.000000 -0.000003 0.026041 0.311683 -1.630221
    23 11.481705 -0.000001 -0.000004 0.356347 0.428755 0.628147
    24 2.914335 -0.023166 1.404053 -0.075472 -0.048649 -0.941149
    25 1.284180 -0.000002 0.000001 0.000007 0.095136 -0.604948
    26 0.841797 -0.000002 0.000000 -0.078526 0.054444 -1.209530
    27 3.368063 0.007379 0.622456 0.035972 -0.077320 -1.016278
    28 1.605513 0.000000 0.000001 0.000003 0.122000 -1.086905
    29 1.020536 0.000002 -0.000003 0.015295 -0.014044 -1.343759
    30 3.551622 0.023919 -0.200566 0.012608 -0.103497 -0.905355
    31 1.666992 0.000000 0.000000 -0.000007 0.157404 -1.208297
    32 1.236531 0.000004 0.000006 0.000002 -0.000011 -1.483435
    33 3.449668 0.054213 -1.085181 0.062096 0.148073 -0.235429
    34 1.711618 0.000004 0.000013 0.000003 -0.028507 -0.767477
    35 0.999023 -0.000002 0.000000 0.005618 -0.013549 -0.593093
    36 0.075535 -0.738746 -0.755817 1.293541 0.406469 -0.475804
    37 2.508557 -0.000006 -0.000010 -0.000002 -0.000001 0.359159
    38 1.328096 0.050782 -0.113292 0.025663 0.040518 0.530179
    39 -18.322670 -11.369174 3.076763 3.142975 0.569502 -2.812282
    40 -0.000002 3.287109 -0.573233 0.000000 0.000000 0.000000
    41 -0.000002 2.156256 -2.244137 0.000000 0.000000 0.000000
    42 -0.000003 2.917979 -4.039055 0.000000 0.000000 0.000000
    43 -0.097351 5.335948 -3.376940 0.000000 0.000000 0.000000
    44 -5.815069 27.963417 -8.904310 1.570757 0.000000 -4.712382
  time 1
    0 -2.113346 -5.945500 -10.062807 -1.059920 -0.799962 -1.953247
    1 2.033348 1.000767 1.937660 3.099074 -0.162003 1.680074
    2 6.028145 0.000003 0.000002 -2.452038 0.614841 -0.720475
    3 11.692553 0.000081 -0.000005 -0.293865 0.166694 -1.810142
    4 11.481672 -0.000089 -0.000024 1.465805 0.408993 1.359968
    5 3.281557 0.002119 -1.379481 0.099718 -0.198220 -1.489132
    6 1.324282 -0.000008 0.000005 0.000000 -0.035681 -0.863336
    7 0.819336 -0.000002 0.000004 0.000000 0.000000 -0.523588
    8 3.711854 0.109255 -0.568167 0.058909 -0.134623 -1.706941
    9 1.609408 0.000006 -0.000007 -0.000002 0.005243 -0.427491
    10 0.993191 -0.000008 0.000002 0.001475 0.002258 -0.454029
    11 3.786031 0.203224 0.243937 0.023558 -0.103308 -1.670320
    12 1.684422 -0.000010 0.000009 0.000002 -0.004062 -0.253198
    13 1.252153 -0.000004 0.000003 0.000000 0.000011 -0.532266
    14 3.594223 0.299551 1.113710 0.005265 -0.118434 -1.372048
    15 1.719433 0.000002 -0.000004 -0.000004 0.000016 -0.445042
    16 1.005923 -0.000006 0.000003 0.000005 0.000018 -0.444957
    17 0.298214 -0.634094 0.426700 -1.632181 -1.028944 -0.122299
    18 2.633557 0.000002 -0.000006 -0.000002 -0.002632 0.165653
    19 1.308564 -0.000001 -0.000002 -0.017651 -0.041132 0.510763
    20 2.033356 1.000772 -1.937610 -0.128225 0.173059 4.244806
    21 6.028141 0.000000 -0.000002 3.966152 1.224654 1.492450
    22 11.692554 0.000000 -0.000003 0.025513 0.310245 -1.629768
    23 11.481705 -0.000001 -0.000004 0.359606 0.428550 0.628185
    24 2.914335 -0.023166 1.400147 -0.075472 -0.048649 -0.941149
    25 1.284180 -0.000002 0.000001 0.000007 0.095136 -0.604948
    26 0.841797 -0.000002 0.000000 -0.078526 0.054444 -1.209530
    27 3.368063 0.007379 0.622456 0.035972 -0.077320 -1.016278
    28 1.605513 0.000000 0.000001 0.000003 0.122000 -1.086905
    29 1.020536 0.000002 -0.000003 0.015295 -0.014044 -1.343759
    30 3.551622 0.023919 -0.200566 0.012608 -0.103497 -0.905355
    31 1.666992 0.000000 0.000000 -0.000007 0.157404 -1.208297
    32 1.240438 0.000004 0.000006 0.000002 -0.000011 -1.483435
    33 3.449668 0.054213 -1.089087 0.062096 0.148073 -0.235429
    34 1.711618 0.000004 0.000013 0.000003 -0.028507 -0.767477
    35 0.999023 -0.000002 0.000000 0.005618 -0.013549 -0.593093
    36 0.075535 -0.738746 -0.755817 1.293541 0.406469 -0.475804
    37 2.508557 -0.000006 -0.000010 -0.000002 -0.000001 0.359159
    38 1.328096 0.050782 -0.113292 0.025663 0.040518 0.530179
    39 -18.322670 -11.369174 3.076763 3.142975 0.569502 -2.812282
    40 -0.000002 3.287109 -0.573233 0.000000 0.000000 0.000000
    41 -0.000002 2.156256 -2.244137 0.000000 0.000000 0.000000
    42 -0.000003 2.917979 -4.039055 0.000000 0.000000 0.000000
    43 -0.097351 5.335948 -3.376940 0.000000 0.000000 0.000000
    44 -5.815069 27.963417 -8.904310 1.570757 0.000000 -4.712382
  time 2
    0 -2.074282 -5.953313 -10.058901 -1.065931 -0.800341 -1.948837
    1 2.033348 1.000767 1.937660 3.099074 -0.162003 1.680074
    2 6.028145 0.000003 0.000002 -2.361429 0.490904 -0.613620
    3 11.692553 0.000081 -0.000005 -0.266960 0.170960 -1.649981
    4 11.481672 -0.000089 -0.000024 1.400585 0.408212 1.244353
    5 3.281557 0.006025 -1.379481 0.094031 -0.202187 -1.398746
    6 1.324282 -0.000008 0.000005 0.000000 -0.044526 -0.848457
    7 0.819336 -0.000002 0.000004 0.000000 0.000000 -0.523588
    8 3.711854 0.109255 -0.568167 0.046673 -0.140459 -1.623216
    9 1.609408 0.000006 -0.000007 -0.000002 0.004944 -0.427491
    10 0.993191 -0.000008 0.000002 0.001487 0.002258 -0.454029
    11 3.786031 0.207131 0.247844 0.013311 -0.106172 -1.592027
    12 1.684422 -0.000010 0.000009 0.000002 -0.003726 -0.253198
    13 1.252153 -0.000004 0.000003 0.000000 0.000011 -0.532266
    14 3.594223 0.303457 1.113710 -0.003355 -0.118589 -1.300162
    15 1.719433 0.000002 -0.000004 -0.000004 0.000016 -0.434267
    16 1.005923 -0.000006 0.000003 0.000005 0.000018 -0.440451
    17 0.298214 -0.630188 0.426700 -1.652703 -1.012285 -0.099040
    18 2.633557 0.000002 -0.000006 -0.000002 0.000101 0.159805
    19 1.308564 -0.000001 -0.000002 -0.015506 -0.037189 0.489691
    20 2.033356 1.000772 -1.937610 -0.128225 0.173059 4.244766
    21 6.028141 0.000000 -0.000002 4.049577 1.233328 1.633990
    22 11.692554 0.000000 -0.000003 0.009274 0.304900 -1.677455
    23 11.481705 -0.000001 -0.000004 0.246534 0.415478 0.594887
    24 2.914335 -0.023166 1.400147 -0.075472 -0.048637 -0.941149
    25 1.284180 -0.000002 0.000001 0.000007 0.095136 -0.604948
    26 0.841797 -0.000002 0.000000 -0.078526 0.054444 -1.209530
    27 3.368063 0.007379 0.618550 0.035972 -0.077320 -1.016278
    28 1.605513 0.000000 0.000001 0.000003 0.122000 -1.086905
    29 1.020536 0.000002 -0.000003 0.015295 -0.014044 -1.343759
    30 3.551622 0.027825 -0.204473 0.012608 -0.103497 -0.905355
    31 1.666992 0.000000 0.000000 -0.000007 0.157404 -1.208297
    32 1.236531 0.000004 0.000006 0.000002 -0.000011 -1.483435
    33 3.449668 0.054213 -1.085181 0.062096 0.148073 -0.235441
    34 1.711618 0.000004 0.000013 0.000003 -0.028507 -0.767477
    35 0.999023 -0.000002 0.000000 0.005618 -0.013549 -0.593093
    36 0.075535 -0.734839 -0.759724 1.293541 0.406469 -0.475804
    37 2.508557 -0.000006 -0.000010 -0.000002 -0.000001 0.359159
    38 1.324190 0.050782 -0.113292 0.025663 0.040518 0.530179
    39 -16.974972 -12.646557 2.693939 2.997629 0.517286 -2.875257
    40 -0.000002 3.287109 -0.573233 0.000000 0.000000 0.000000
    41 -0.000002 2.156256 -2.244137 0.000000 0.000000 0.000000
    42 -0.000003 2.917979 -4.039055 0.000000 0.000000 0.000000
    43 -0.097351 5.335948 -3.376940 0.000000 0.000000 0.000000
    44 -5.815069 27.963417 -8.904310 1.570757 0.000000 -4.712382
  time 3
    0 -2.019593 -5.965032 -10.051088 -1.075403 -0.801010 -1.941838
    1 2.033348 1.000767 1.937660 3.099074 -0.162003 1.680074
    2 6.028145 0.000003 0.000002 -2.304030 0.371648 -0.530521
    3 11.692553 0.000081 -0.000005 -0.239311 0.170912 -1.487787
    4 11.481672 -0.000089 -0.000024 1.343536 0.404505 1.122759
    5 3.281557 0.006025 -1.379481 0.086940 -0.204129 -1.300050
    6 1.324282 -0.000008 0.000005 0.000000 -0.053514 -0.832060
    7 0.819336 -0.000002 0.000004 0.000000 0.000000 -0.523588
    8 3.711854 0.109255 -0.572073 0.032747 -0.145049 -1.531836
    9 1.609408 0.000006 -0.000007 -0.000002 0.004536 -0.427491
    10 0.993191 -0.000008 0.000002 0.001487 0.002258 -0.454029
    11 3.786031 0.203224 0.247844 0.001890 -0.107958 -1.506632
    12 1.684422 -0.000010 0.000009 0.000002 -0.003391 -0.253198
    13 1.252153 -0.000004 0.000003 0.000000 0.000011 -0.532266
    14 3.594223 0.299551 1.109803 -0.012705 -0.117499 -1.221945
    15 1.719433 0.000002 -0.000004 -0.000004 0.000016 -0.422501
    16 1.005923 -0.000006 0.000003 0.000005 0.000018 -0.435536
    17 0.298214 -0.634094 0.430606 -1.672462 -0.993513 -0.076402
    18 2.633557 0.000002 -0.000006 -0.000002 0.003140 0.153354
    19 1.308564 -0.000001 -0.000002 -0.013241 -0.032827 0.466575
    20 2.033356 1.000772 -1.937610 -0.128225 0.173059 4.244766
    21 6.028141 0.000000 -0.000002 4.142059 1.242996 1.792311
    22 11.692554 0.000000 -0.000003 -0.004556 0.296822 -1.715631
    23 11.481705 -0.000001 -0.000004 0.129057 0.397113 0.560405
    24 2.914335 -0.023166 1.400147 -0.075472 -0.048637 -0.941149
    25 1.284180 -0.000002 0.000001 0.000007 0.095136 -0.604948
    26 0.841797 -0.000002 0.000000 -0.078526 0.054444 -1.209530
    27 3.368063 0.007379 0.618550 0.035972 -0.077320 -1.016278
    28 1.605513 0.000000 0.000001 0.000003 0.122000 -1.086905
    29 1.020536 0.000002 -0.000003 0.015295 -0.014044 -1.343759
    30 3.551622 0.023919 -0.200566 0.012608 -0.103497 -0.905355
    31 1.666992 0.000000 0.000000 -0.000007 0.157404 -1.208297
    32 1.236531 0.000004 0.000006 0.000002 -0.000011 -1.483435
    33 3.449668 0.054213 -1.089087 0.062096 0.148073 -0.235429
    34 1.711618 0.000004 0.000013 0.000003 -0.028507 -0.767477
    35 0.999023 -0.000002 0.000000 0.005618 -0.013549 -0.593093
    36 0.075535 -0.738746 -0.759724 1.293541 0.406469 -0.475804
    37 2.508557 -0.000006 -0.000010 -0.000002 -0.000001 0.359159
    38 1.324190 0.050782 -0.113292 0.025663 0.040518 0.530179
    39 -15.619462 -13.994254 2.057201 2.850227 0.457194 -2.933767
    40 -0.000002 3.287109 -0.573233 0.000000 0.000000 0.000000
    41 -0.000002 2.156256 -2.244137 0.000000 0.000000 0.000000
    42 -0.000003 2.917979 -4.039055 0.000000 0.000000 0.000000
    43 -0.097351 5.335948 -3.376940 0.000000 0.000000 0.000000
    44 -5.815069 27.963417 -8.904310 1.570757 0.000000 -4.712382
  time 4
    0 -1.945372 -5.988470 -10.039369 -1.087896 -0.801841 -1.932586
    1 2.033348 1.000767 1.937660 3.099074 -0.162003 1.680074
    2 6.028145 0.000003 0.000002 -2.267867 0.258253 -0.460969
    3 11.692553 0.000081 -0.000005 -0.212082 0.166562 -1.325984
    4 11.481672 -0.000089 -0.000024 1.292109 0.398456 0.999050
    5 3.281557 0.002119 -1.383388 0.078895 -0.204944 -1.194692
    6 1.324282 -0.000008 0.000005 0.000000 -0.062251 -0.814562
    7 0.819336 -0.000002 0.000004 0.000000 0.000000 -0.523588
    8 3.711854 0.109255 -0.568167 0.018197 -0.149196 -1.434221
    9 1.609408 0.000006 -0.000007 -0.000002 0.004081 -0.427491
    10 0.993191 -0.000008 0.000002 0.001475 0.002258 -0.454029
    11 3.786031 0.203224 0.243937 -0.009711 -0.109696 -1.415555
    12 1.684422 -0.000010 0.000009 0.000002 -0.003079 -0.253198
    13 1.252153 -0.000004 0.000003 0.000000 0.000011 -0.532266
    14 3.590316 0.299551 1.109803 -0.022240 -0.116456 -1.138494
    15 1.719433 0.000002 -0.000004 -0.000004 0.000016 -0.409920
    16 1.005923 -0.000006 0.000003 0.000005 0.000018 -0.430256
    17 0.298214 -0.630188 0.426700 -1.692875 -0.973904 -0.052776
    18 2.637464 0.000002 -0.000006 -0.000002 0.006322 0.146443
    19 1.308564 -0.000001 -0.000002 -0.010928 -0.028105 0.441947
    20 2.033356 1.000772 -1.937610 -0.128178 0.173059 4.244766
    21 6.028141 0.000000 -0.000002 4.246459 1.253897 1.969212
    22 11.692554 0.000000 -0.000003 -0.015378 0.286707 -1.742936
    23 11.481705 -0.000001 -0.000004 0.009288 0.374508 0.526292
    24 2.914335 -0.023166 1.400147 -0.075472 -0.048637 -0.941149
    25 1.284180 -0.000002 0.000001 0.000007 0.095136 -0.604948
    26 0.841797 -0.000002 0.000000 -0.078526 0.054444 -1.209530
    27 3.368063 0.007379 0.622456 0.035972 -0.077320 -1.016278
    28 1.605513 0.000000 0.000001 0.000003 0.122000 -1.086905
    29 1.020536 0.000002 -0.000003 0.015295 -0.014044 -1.343759
    30 3.551622 0.023919 -0.200566 0.012608 -0.103497 -0.905355
    31 1.666992 0.000000 0.000000 -0.000007 0.157404 -1.208297
    32 1.236531 0.000004 0.000006 0.000002 0.000001 -1.483435
    33 3.449668 0.054213 -1.085181 0.062096 0.148073 -0.235429
    34 1.711618 0.000004 0.000013 0.000003 -0.028507 -0.767477
    35 0.999023 -0.000002 0.000000 0.005618 -0.013549 -0.593093
    36 0.075535 -0.738746 -0.755817 1.293541 0.406469 -0.475804
    37 2.508557 -0.000006 -0.000010 -0.000002 -0.000001 0.359159
    38 1.328096 0.050782 -0.113292 0.025663 0.040518 0.530179
    39 -14.318641 -15.365390 1.147017 2.703118 0.390975 -2.985841
    40 -0.000002 3.287109 -0.573233 0.000000 0.000000 0.000000
    41 -0.000002 2.156256 -2.244137 0.000000 0.000000 0.000000
    42 -0.000003 2.917979 -4.039055 0.000000 0.000000 0.000000
    43 -0.097351 5.335948 -3.376940 0.000000 0.000000 0.000000
    44 -5.815069 27.963417 -8.904310 1.570757 0.000000 -4.712382
  time 5
    0 -1.859432 -6.015815 -10.027650 -1.102910 -0.802853 -1.921464
    1 2.033348 1.000767 1.937660 3.099074 -0.162003 1.680074
    2 6.028145 0.000003 0.000002 -2.246152 0.149986 -0.398669
    3 11.692553 0.000081 -0.000005 -0.185740 0.157526 -1.164416
    4 11.481672 -0.000089 -0.000024 1.243156 0.390847 0.874696
    5 3.285463 0.002119 -1.379481 0.069481 -0.203422 -1.084777
    6 1.324282 -0.000008 0.000005 0.000000 -0.070281 -0.796171
    7 0.819336 -0.000002 0.000004 0.000000 0.000000 -0.523588
    8 3.715760 0.105348 -0.568167 0.002737 -0.151893 -1.332177
    9 1.609408 0.000006 -0.000007 -0.000002 0.003518 -0.427491
    10 0.993191 -0.000008 0.000002 0.001475 0.002258 -0.454029
    11 3.789937 0.203224 0.247844 -0.021827 -0.110499 -1.320414
    12 1.684422 -0.000010 0.000009 0.000002 -0.002791 -0.253198
    13 1.252153 -0.000004 0.000003 0.000000 0.000011 -0.532266
    14 3.594223 0.299551 1.113710 -0.032086 -0.114503 -1.051398
    15 1.719433 0.000002 -0.000004 -0.000004 0.000016 -0.396844
    16 1.005923 -0.000006 0.000003 0.000005 0.000018 -0.424794
    17 0.302120 -0.634094 0.426700 -1.712179 -0.953020 -0.029884
    18 2.633557 0.000002 -0.000006 -0.000002 0.009626 0.139195
    19 1.308564 -0.000001 -0.000002 -0.008663 -0.023119 0.416231
    20 2.033356 1.000772 -1.937610 -0.128225 0.173059 4.244766
    21 6.028141 0.000000 -0.000002 4.364017 1.265673 2.162704
    22 11.692554 0.000000 -0.000003 -0.022809 0.275094 -1.758400
    23 11.481705 -0.000001 -0.000004 -0.109758 0.347575 0.494106
    24 2.914335 -0.023166 1.404053 -0.075455 -0.048637 -0.941149
    25 1.284180 -0.000002 0.000001 0.000007 0.095136 -0.604948
    26 0.841797 -0.000002 0.000000 -0.078526 0.054444 -1.209530
    27 3.368063 0.007379 0.618550 0.035972 -0.077320 -1.016278
    28 1.605513 0.000000 0.000001 0.000003 0.121988 -1.086905
    29 1.020536 0.000002 -0.000003 0.015295 -0.014044 -1.343759
    30 3.551622 0.023919 -0.200566 0.012608 -0.103497 -0.905355
    31 1.666992 0.000000 0.000000 -0.000007 0.157404 -1.208297
    32 1.236531 0.000004 0.000006 0.000002 -0.000011 -1.483435
    33 3.449668 0.054213 -1.089087 0.062096 0.148073 -0.235429
    34 1.711618 0.000004 0.000013 0.000003 -0.028507 -0.767477
    35 0.999023 -0.000002 0.000000 0.005618 -0.013549 -0.593093
    36 0.075535 -0.738746 -0.759724 1.293541 0.406469 -0.475804
    37 2.508557 -0.000006 -0.000010 -0.000002 -0.000001 0.359159
    38 1.324190 0.050782 -0.113292 0.025663 0.040518 0.530179
    39 -13.131105 -16.697462 -0.036613 2.558066 0.320840 -3.030608
    40 -0.000002 3.287109 -0.573233 0.000000 0.000000 0.000000
    41 -0.000002 2.156256 -2.244137 0.000000 0.000000 0.000000
    42 -0.000003 2.917979 -4.039055 0.000000 0.000000 0.000000
    43 -0.097351 5.335948 -3.376940 0.000000 0.000000 0.000000
    44 -5.815069 27.963417 -8.904310 1.570757 0.000000 -4.712382
  time 6
    0 -1.753960 -6.039253 -10.012024 -1.120006 -0.803919 -1.908808
    1 2.033348 1.000767 1.937660 3.099074 -0.162003 1.680074
    2 6.028145 0.000003 0.000002 -2.234976 0.046847 -0.340375
    3 11.692553 0.000081 -0.000005 -0.161591 0.145026 -1.003317
    4 11.481672 -0.000089 -0.000024 1.193904 0.380974 0.748871
    5 3.281557 0.002119 -1.383388 0.058575 -0.198580 -0.971846
    6 1.324282 -0.000008 0.000005 0.000000 -0.077316 -0.777364
    7 0.819336 -0.000002 0.000004 0.000000 0.000000 -0.523588
    8 3.711854 0.109255 -0.568167 -0.013729 -0.152156 -1.227234
    9 1.609408 0.000006 -0.000007 -0.000002 0.002894 -0.427491
    10 0.993191 -0.000008 0.000002 0.001475 0.002258 -0.454029
    11 3.786031 0.203224 0.243937 -0.034639 -0.109504 -1.222532
    12 1.684422 -0.000010 0.000009 0.000002 -0.002540 -0.253198
    13 1.252153 -0.000004 0.000003 0.000000 0.000011 -0.532266
    14 3.594223 0.299551 1.113710 -0.042319 -0.110776 -0.961890
    15 1.719433 0.000002 -0.000004 -0.000004 0.000016 -0.383390
    16 1.005923 -0.000006 0.000003 0.000005 0.000018 -0.419105
    17 0.298214 -0.634094 0.426700 -1.729193 -0.930562 -0.008432
    18 2.633557 0.000002 -0.000006 -0.000002 0.012971 0.131753
    19 1.308564 -0.000001 -0.000002 -0.006458 -0.017954 0.389905
    20 2.033356 1.000772 -1.937610 -0.128225 0.173059 4.244766
    21 6.028141 0.000000 -0.000002 4.496352 1.277330 2.370890
    22 11.692554 0.000000 -0.000003 -0.026812 0.262415 -1.761506
    23 11.481705 -0.000001 -0.000004 -0.224761 0.317747 0.464957
    24 2.914335 -0.023166 1.400147 -0.075406 -0.048984 -0.941149
    25 1.284180 -0.000002 0.000001 0.000007 0.095136 -0.604948
    26 0.841797 -0.000002 0.000000 -0.078526 0.054444 -1.209530
    27 3.368063 0.007379 0.618550 0.036044 -0.077668 -1.016290
    28 1.605513 0.000000 0.000001 0.000003 0.122000 -1.086905
    29 1.020536 0.000002 -0.000003 0.015295 -0.014044 -1.343759
    30 3.551622 0.023919 -0.204473 0.012632 -0.103844 -0.905355
    31 1.666992 0.000000 0.000000 -0.000007 0.157404 -1.208297
    32 1.236531 0.000004 0.000006 0.000002 -0.000011 -1.483435
    33 3.449668 0.054213 -1.089087 0.061892 0.147791 -0.235465
    34 1.711618 0.000004 0.000013 0.000003 -0.028507 -0.767477
    35 0.999023 -0.000002 0.000000 0.005618 -0.013549 -0.593093
    36 0.075535 -0.738746 -0.759724 1.293409 0.406146 -0.475864
    37 2.508557 -0.000006 -0.000010 -0.000002 -0.000001 0.359147
    38 1.328096 0.050782 -0.113292 0.025663 0.040518 0.530179
    39 -12.103730 -17.931874 -1.462438 2.416246 0.249037 -3.067952
    40 -0.000002 3.287109 -0.573233 0.000000 0.000000 0.000000
    41 -0.000002 2.156256 -2.244137 0.000000 0.000000 0.000000
    42 -0.000003 2.917979 -4.039055 0.000000 0.000000 0.000000
    43 -0.097351 5.335948 -3.376940 0.000000 0.000000 0.000000
    44 -5.815069 27.963417 -8.904310 1.570757 0.000000 -4.712382
  time 7
    0 -1.640675 -6.070504 -9.996399 -1.138730 -0.805112 -1.894906
    1 2.033348 1.000767 1.937660 3.099074 -0.162003 1.680074
    2 6.028145 0.000003 0.000002 -2.232581 -0.052465 -0.282940
    3 11.692553 0.000081 -0.000005 -0.139588 0.128535 -0.842296
    4 11.481672 -0.000089 -0.000024 1.144951 0.370789 0.624840
    5 3.281557 0.002119 -1.379481 0.047132 -0.191641 -0.858845
    6 1.324282 -0.000008 0.000005 0.000000 -0.083080 -0.758437
    7 0.819336 -0.000002 0.000004 0.000000 0.000000 -0.523588
    8 3.707947 0.109255 -0.568167 -0.029873 -0.150934 -1.121827
    9 1.609408 0.000006 -0.000007 -0.000002 0.002223 -0.427491
    10 0.993191 -0.000008 0.000002 0.001475 0.002258 -0.454029
    11 3.786031 0.203224 0.243937 -0.046875 -0.107730 -1.124352
    12 1.684422 -0.000010 0.000009 0.000002 -0.002348 -0.253198
    13 1.252153 -0.000004 0.000003 0.000000 0.000011 -0.532266
    14 3.594223 0.299551 1.113710 -0.052056 -0.106557 -0.872108
    15 1.719433 0.000002 -0.000004 -0.000004 0.000016 -0.369877
    16 1.005923 -0.000006 0.000003 0.000005 0.000018 -0.413462
    17 0.298214 -0.634094 0.426700 -1.744971 -0.908064 0.011948
    18 2.633557 0.000002 -0.000006 -0.000002 0.016275 0.124190
    19 1.308564 -0.000001 -0.000002 -0.004372 -0.012705 0.363472
    20 2.033356 1.000772 -1.937610 -0.128225 0.173059 4.244766
    21 6.028141 0.000000 -0.000002 4.642608 1.286998 -3.693339
    22 11.692554 0.000000 -0.000003 -0.027662 0.249220 -1.752254
    23 11.481705 -0.000001 -0.000004 -0.333971 0.285199 0.439586
    24 2.910429 -0.027073 1.400147 -0.075340 -0.048049 -0.940825
    25 1.284180 -0.000002 0.000001 0.000007 0.095136 -0.604948
    26 0.841797 -0.000002 0.000000 -0.078526 0.054444 -1.209530
    27 3.364156 0.007379 0.626363 0.036044 -0.076721 -1.015966
    28 1.605513 0.000000 0.000001 0.000003 0.122000 -1.086905
    29 1.020536 0.000002 -0.000003 0.015295 -0.014044 -1.343759
    30 3.551622 0.023919 -0.200566 0.012740 -0.102898 -0.905043
    31 1.666992 0.000000 0.000000 -0.000007 0.157404 -1.208297
    32 1.240438 0.000004 0.000006 0.000002 0.000001 -1.483435
    33 3.449668 0.054213 -1.085181 0.062592 0.148458 -0.235046
    34 1.711618 0.000004 0.000013 0.000003 -0.028519 -0.767477
    35 0.999023 -0.000002 0.000000 0.005618 -0.013549 -0.593093
    36 0.075535 -0.738746 -0.759724 1.293937 0.406961 -0.475324
    37 2.508557 -0.000006 -0.000010 -0.000002 -0.000001 0.359147
    38 1.328096 0.050782 -0.113292 0.025663 0.040518 0.530179
    39 -11.279486 -19.021751 -3.083581 2.278611 0.177777 -3.098048
    40 -0.000002 3.287109 -0.573233 0.000000 0.000000 0.000000
    41 -0.000002 2.156256 -2.244137 0.000000 0.000000 0.000000
    42 -0.000003 2.917979 -4.039055 0.000000 0.000000 0.000000
    43 -0.097351 5.335948 -3.376940 0.000000 0.000000 0.000000
    44 -5.815069 27.963417 -8.904310 1.570757 0.000000 -4.712382
  time 8
    0 -1.519578 -6.093942 -9.980773 -1.158629 -0.806286 -1.880093
    1 2.033348 1.000767 1.937660 3.099074 -0.162003 1.680074
    2 6.028145 0.000003 0.000002 -2.237371 -0.149295 -0.224647
    3 11.692553 0.000081 -0.000005 -0.120340 0.108461 -0.679789
    4 11.481672 -0.000089 -0.000024 1.094649 0.360213 0.501775
    5 3.281557 0.002119 -1.379481 0.035308 -0.182449 -0.747422
    6 1.324282 -0.000008 0.000005 0.000000 -0.087503 -0.739808
    7 0.819336 -0.000002 0.000004 0.000000 0.000000 -0.523588
    8 3.711854 0.109255 -0.568167 -0.045477 -0.147902 -1.017787
    9 1.609408 0.000006 -0.000007 -0.000002 0.001528 -0.427491
    10 0.993191 -0.000008 0.000002 0.001475 0.002258 -0.454029
    11 3.786031 0.203224 0.243937 -0.058536 -0.104878 -1.027296
    12 1.684422 -0.000010 0.000009 0.000002 -0.002216 -0.253198
    13 1.252153 -0.000004 0.000003 0.000000 0.000011 -0.532266
    14 3.594223 0.299551 1.109803 -0.061281 -0.101547 -0.783449
    15 1.719433 0.000002 -0.000004 -0.000004 0.000016 -0.356597
    16 1.005923 -0.000006 0.000003 0.000005 0.000018 -0.407818
    17 0.298214 -0.634094 0.426700 -1.758876 -0.885566 0.030662
    18 2.633557 0.000002 -0.000006 -0.000002 0.019478 0.116675
    19 1.308564 -0.000001 -0.000002 -0.002467 -0.007455 0.337385
    20 2.033356 1.000772 -1.937610 -0.128178 0.173059 4.244766
    21 6.028141 0.000000 -0.000002 -1.484492 1.293762 -3.470838
    22 11.692554 0.000000 -0.000003 -0.025985 0.234490 -1.732325
    23 11.481705 -0.000001 -0.000004 -0.432019 0.254084 0.419104
    24 2.914335 -0.023166 1.400147 -0.075472 -0.048637 -0.941149
    25 1.284180 -0.000002 0.000001 0.000007 0.095136 -0.604948
    26 0.841797 -0.000002 0.000000 -0.078526 0.054444 -1.209530
    27 3.368063 0.007379 0.618550 0.035972 -0.077320 -1.016278
    28 1.605513 0.000000 0.000001 0.000003 0.122000 -1.086905
    29 1.020536 0.000002 -0.000003 0.015295 -0.014044 -1.343759
    30 3.551622 0.023919 -0.204473 0.012608 -0.103497 -0.905355
    31 1.666992 0.000000 0.000000 -0.000007 0.157404 -1.208297
    32 1.236531 0.000004 0.000006 0.000002 -0.000011 -1.483435
    33 3.449668 0.054213 -1.089087 0.062096 0.148073 -0.235441
    34 1.711618 0.000004 0.000013 0.000003 -0.028507 -0.767477
    35 0.999023 -0.000002 0.000000 0.005618 -0.013549 -0.593093
    36 0.075535 -0.738746 -0.759724 1.293529 0.406469 -0.475804
    37 2.508557 -0.000006 -0.000010 -0.000002 -0.000001 0.359159
    38 1.328096 0.050782 -0.113292 0.025663 0.040518 0.530179
    39 -10.666186 -19.928029 -4.818009 2.146192 0.109183 -3.121649
    40 -0.000002 3.287109 -0.573233 0.000000 0.000000 0.000000
    41 -0.000002 2.156256 -2.244137 0.000000 0.000000 0.000000
    42 -0.000003 2.917979 -4.039055 0.000000 0.000000 0.000000
    43 -0.097351 5.335948 -3.376940 0.000000 0.000000 0.000000
    44 -5.815069 27.963417 -8.904310 1.570757 0.000000 -4.712382
  time 9
    0 -1.394574 -6.125193 -9.965148 -1.179232 -0.807497 -1.864753
    1 2.033348 1.000767 1.937660 3.099074 -0.162003 1.680074
    2 6.028145 0.000003 0.000002 -2.249585 -0.246654 -0.161869
    3 11.692553 0.000081 -0.000005 -0.103921 0.084312 -0.509697
    4 11.481672 -0.000089 -0.000024 1.042623 0.350848 0.377421
    5 3.281557 0.002119 -1.383388 0.023484 -0.171423 -0.639715
    6 1.324282 -0.000008 0.000005 0.000000 -0.090571 -0.721775
    7 0.819336 -0.000002 0.000004 0.000000 0.000000 -0.523588
    8 3.711854 0.109255 -0.568167 -0.060134 -0.143288 -0.916918
    9 1.609408 0.000006 -0.000007 -0.000002 0.000809 -0.427491
    10 0.993191 -0.000008 0.000002 0.001475 0.002258 -0.454029
    11 3.786031 0.203224 0.243937 -0.069322 -0.101115 -0.933245
    12 1.684422 -0.000010 0.000009 0.000002 -0.002132 -0.253239
    13 1.252153 -0.000004 0.000003 0.000000 0.000011 -0.532266
    14 3.594223 0.299551 1.109803 -0.069763 -0.095939 -0.697504
    15 1.719433 0.000002 -0.000004 -0.000004 0.000016 -0.343667
    16 1.005923 -0.000006 0.000003 0.000005 0.000018 -0.402402
    17 0.298214 -0.634094 0.430606 -1.770946 -0.863506 0.047655
    18 2.633557 0.000002 -0.000006 -0.000002 0.022517 0.109354
    19 1.308564 -0.000001 -0.000002 -0.000717 -0.002314 0.312014
    20 2.033356 1.000772 -1.937610 -0.128225 0.173059 4.244766
    21 6.028141 0.000000 -0.000002 -1.329751 1.295592 -3.258196
    22 11.692554 0.000000 -0.000003 -0.022365 0.219282 -1.703014
    23 11.481705 -0.000001 -0.000004 -0.518603 0.223641 0.403622
    24 2.914335 -0.023166 1.400147 -0.075472 -0.048637 -0.941149
    25 1.284180 -0.000002 0.000001 0.000007 0.095136 -0.604948
    26 0.841797 -0.000002 0.000000 -0.078526 0.054444 -1.209530
    27 3.368063 0.007379 0.622456 0.035972 -0.077320 -1.016278
    28 1.605513 0.000000 0.000001 0.000003 0.121988 -1.086905
    29 1.020536 0.000002 -0.000003 0.015295 -0.014044 -1.343759
    30 3.551622 0.023919 -0.204473 0.012608 -0.103497 -0.905355
    31 1.666992 0.000000 0.000000 -0.000007 0.157404 -1.208297
    32 1.236531 0.000004 0.000006 0.000002 -0.000011 -1.483435
    33 3.449668 0.054213 -1.089087 0.062096 0.148073 -0.235429
    34 1.711618 0.000004 0.000013 0.000003 -0.028507 -0.767477
    35 0.999023 -0.000002 0.000000 0.005618 -0.013549 -0.593093
    36 0.075535 -0.738746 -0.759724 1.293541 0.406469 -0.475804
    37 2.508557 -0.000006 -0.000010 -0.000002 -0.000001 0.359159
    38 1.328096 0.050782 -0.113292 0.025663 0.040518 0.530179
    39 -10.259923 -20.631176 -6.587595 2.020162 0.045215 -3.139510
    40 -0.000002 3.287109 -0.573233 0.000000 0.000000 0.000000
    41 -0.000002 2.156256 -2.244137 0.000000 0.000000 0.000000
    42 -0.000003 2.917979 -4.039055 0.000000 0.000000 0.000000
    43 -0.097351 5.335948 -3.376940 0.000000 0.000000 0.000000
    44 -5.815069 27.963417 -8.904310 1.570757 0.000000 -4.712382
  time 10
    0 -1.269570 -6.152538 -9.953429 -1.200101 -0.808744 -1.849221
    1 2.033348 1.000767 1.937660 3.099074 -0.162003 1.680074
    2 6.028145 0.000003 0.000002 -2.271299 -0.350606 -0.088979
    3 11.692553 0.000081 -0.000005 -0.090619 0.054087 -0.318020
    4 11.481672 -0.000089 -0.000024 0.988573 0.345580 0.245342
    5 3.281557 0.002119 -1.379481 0.012075 -0.159115 -0.537724
    6 1.324282 -0.000008 0.000005 0.000000 -0.092320 -0.704753
    7 0.819336 -0.000002 0.000004 0.000000 0.000000 -0.523588
    8 3.711854 0.109255 -0.568167 -0.073509 -0.137403 -0.821163
    9 1.609408 0.000006 -0.000007 -0.000002 0.000126 -0.427491
    10 0.993191 -0.000008 0.000002 0.001487 0.002258 -0.454029
    11 3.786031 0.203224 0.243937 -0.079006 -0.096645 -0.843919
    12 1.684422 -0.000010 0.000009 0.000002 -0.002108 -0.253239
    13 1.252153 -0.000004 0.000003 0.000000 0.000011 -0.532266
    14 3.594223 0.299551 1.113710 -0.077329 -0.089946 -0.615889
    15 1.719433 0.000002 -0.000004 -0.000004 0.000016 -0.331348
    16 1.005923 -0.000006 0.000003 0.000005 0.000018 -0.397259
    17 0.298214 -0.634094 0.430606 -1.781180 -0.842363 0.062841
    18 2.633557 0.000002 -0.000006 -0.000002 0.025352 0.102347
    19 1.308564 -0.000001 -0.000002 0.000769 0.002564 0.287916
    20 2.033356 1.000772 -1.937610 -0.128225 0.173059 4.244766
    21 6.028141 0.000000 -0.000002 -1.183686 1.293881 -3.063377
    22 11.692554 0.000000 -0.000003 -0.018027 0.203163 -1.668785
    23 11.481705 -0.000001 -0.000004 -0.591551 0.195889 0.393622
    24 2.914335 -0.023166 1.400147 -0.075472 -0.048637 -0.941149
    25 1.284180 -0.000002 0.000001 0.000007 0.095136 -0.604948
    26 0.841797 -0.000002 0.000000 -0.078526 0.054444 -1.209530
    27 3.368063 0.007379 0.622456 0.035972 -0.077320 -1.016278
    28 1.605513 0.000000 0.000001 0.000003 0.122000 -1.086905
    29 1.020536 0.000002 -0.000003 0.015295 -0.014044 -1.343759
    30 3.551622 0.023919 -0.204473 0.012608 -0.103497 -0.905355
    31 1.666992 0.000000 0.000000 -0.000007 0.157404 -1.208297
    32 1.240438 0.000004 0.000006 0.000002 -0.000011 -1.483435
    33 3.449668 0.054213 -1.089087 0.062096 0.148073 -0.235429
    34 1.711618 0.000004 0.000013 0.000003 -0.028507 -0.767477
    35 0.999023 -0.000002 0.000000 0.005618 -0.013549 -0.593093
    36 0.075535 -0.738746 -0.755817 1.293541 0.406469 -0.475804
    37 2.508557 -0.000006 -0.000010 -0.000002 -0.000001 0.359159
    38 1.324190 0.050782 -0.113292 0.025663 0.040518 0.530179
    39 -10.041167 -21.131191 -8.318116 1.901917 -0.012168 -3.152499
    40 -0.000002 3.287109 -0.573233 0.000000 0.000000 0.000000
    41 -0.000002 2.156256 -2.244137 0.000000 0.000000 0.000000
    42 -0.000003 2.917979 -4.039055 0.000000 0.000000 0.000000
    43 -0.097351 5.335948 -3.376940 0.000000 0.000000 0.000000
    44 -5.815069 27.963417 -8.904310 1.570757 0.000000 -4.712382
  time 11
    0 -1.148473 -6.175976 -9.937803 -1.220751 -0.809991 -1.833785
    1 2.033348 1.000767 1.937660 3.099074 -0.162003 1.680074
    2 6.028145 0.000003 0.000002 -2.319997 -0.505192 0.029135
    3 11.692553 0.000081 -0.000005 -0.081906 0.000096 -0.000045
    4 11.481672 -0.000089 -0.000024 0.931299 0.354360 0.059732
    5 3.332339 -0.001788 -1.359949 0.004776 -0.147454 -0.449931
    6 1.324282 -0.000008 0.000005 0.000000 -0.092991 -0.688981
    7 0.819336 -0.000002 0.000004 0.000000 0.000000 -0.523588
    8 3.758730 0.097536 -0.544729 -0.081742 -0.130896 -0.738997
    9 1.605501 0.000006 -0.000007 -0.000002 -0.000509 -0.427491
    10 0.993191 -0.000008 0.000002 0.001475 0.002258 -0.454029
    11 3.832907 0.191505 0.267376 -0.083896 -0.091851 -0.767377
    12 1.684422 -0.000010 0.000009 0.000002 -0.002120 -0.253239
    13 1.252153 -0.000004 0.000003 0.000000 0.000011 -0.532266
    14 3.637193 0.287832 1.137148 -0.080461 -0.084733 -0.546497
    15 1.719433 0.000002 -0.000004 -0.000004 0.000016 -0.319874
    16 1.005923 -0.000006 0.000003 0.000005 0.000018 -0.392480
    17 0.337277 -0.622375 0.438419 -1.786270 -0.825265 0.067583
    18 2.633557 0.000002 -0.000006 -0.000002 0.027902 0.095774
    19 1.308564 -0.000001 -0.000002 0.002063 0.007178 0.265518
    20 2.033356 1.000772 -1.937610 -0.128225 0.173059 4.244766
    21 6.028141 0.000000 -0.000002 -1.056117 1.289306 -2.896430
    22 11.692554 0.000000 -0.000003 -0.013425 0.186217 -1.631321
    23 11.481705 -0.000001 -0.000004 -0.649535 0.171237 0.388473
    24 2.910429 -0.023166 1.400147 -0.075472 -0.048649 -0.941149
    25 1.284180 -0.000002 0.000001 0.000007 0.095136 -0.604948
    26 0.841797 -0.000002 0.000000 -0.078526 0.054444 -1.209530
    27 3.368063 0.007379 0.618550 0.035972 -0.077332 -1.016278
    28 1.605513 0.000000 0.000001 0.000003 0.122000 -1.086879
    29 1.020536 0.000002 -0.000003 0.015295 -0.014044 -1.343759
    30 3.551622 0.023919 -0.200566 0.012608 -0.103497 -0.905355
    31 1.666992 0.000000 0.000000 -0.000007 0.157404 -1.208297
    32 1.236531 0.000004 0.000006 0.000002 -0.000011 -1.483435
    33 3.449668 0.054213 -1.085181 0.062096 0.148073 -0.235429
    34 1.711618 0.000004 0.000013 0.000003 -0.028507 -0.767477
    35 0.999023 -0.000002 0.000000 0.005618 -0.013549 -0.593093
    36 0.075535 -0.738746 -0.755817 1.293529 0.406469 -0.475804
    37 2.508557 -0.000006 -0.000010 -0.000002 -0.000001 0.359159
    38 1.324190 0.050782 -0.113292 0.025663 0.040518 0.530179
    39 -9.966946 -21.443700 -9.927540 1.792925 -0.061384 -3.161487
    40 -0.000002 3.287109 -0.573233 0.000000 0.000000 0.000000
    41 -0.000002 2.156256 -2.244137 0.000000 0.000000 0.000000
    42 -0.000003 2.917979 -4.039055 0.000000 0.000000 0.000000
    43 -0.097351 5.335948 -3.376940 0.000000 0.000000 0.000000
    44 -5.815069 27.963417 -8.904310 1.570757 0.000000 -4.712382
  time 12
    0 -1.023469 -6.195508 -9.922178 -1.240727 -0.811256 -1.818876
    1 2.033348 1.000767 1.937660 3.099074 -0.162003 1.680074
    2 6.028145 0.000003 0.000002 -2.333328 -0.521839 0.058329
    3 11.692553 0.000081 -0.000005 -0.081942 0.000000 -0.000045
    4 11.481672 -0.000089 -0.000024 0.866678 0.315492 0.058444
    5 3.574534 -0.036945 -1.258384 0.009527 -0.143990 -0.395938
    6 1.324282 -0.000008 0.000005 0.000000 -0.092836 -0.674845
    7 0.819336 -0.000002 0.000004 0.000000 0.000000 -0.523588
    8 3.985299 0.046753 -0.439257 -0.075402 -0.128571 -0.689971
    9 1.609408 0.000006 -0.000007 -0.000002 -0.001133 -0.427491
    10 0.993191 -0.000008 0.000002 0.001475 0.002258 -0.454029
    11 4.051664 0.125097 0.376754 -0.074488 -0.091000 -0.722945
    12 1.684422 -0.000010 0.000009 0.000002 -0.002180 -0.253239
    13 1.252153 -0.000004 0.000003 0.000000 0.000011 -0.532266
    14 3.855949 0.217517 1.242620 -0.070755 -0.086363 -0.508457
    15 1.719433 0.000002 -0.000004 -0.000004 0.000016 -0.309535
    16 1.005923 -0.000006 0.000003 0.000005 0.000018 -0.388065
    17 0.540409 -0.591124 0.497014 -1.779926 -0.821539 0.040429
    18 2.633557 0.000002 -0.000006 -0.000002 0.030166 0.089855
    19 1.308564 -0.000001 -0.000002 0.003166 0.011349 0.245295
    20 2.033356 1.000772 -1.937610 -0.128225 0.173059 4.244806
    21 6.028141 0.000000 -0.000002 -0.951145 1.283099 -2.760862
    22 11.692554 0.000000 -0.000003 -0.009242 0.168491 -1.593922
    23 11.481705 -0.000001 -0.000004 -0.691288 0.150533 0.387769
    24 2.914335 -0.023166 1.396241 -0.075455 -0.048984 -0.941221
    25 1.284180 -0.000002 0.000001 0.000007 0.095136 -0.604948
    26 0.841797 -0.000002 0.000000 -0.078526 0.054444 -1.209530
    27 3.368063 0.007379 0.622456 0.035996 -0.077668 -1.016340
    28 1.605513 0.000000 0.000001 0.000003 0.122000 -1.086905
    29 1.020536 0.000002 -0.000003 0.015295 -0.014044 -1.343759
    30 3.551622 0.023919 -0.200566 0.012596 -0.103832 -0.905427
    31 1.666992 0.000000 0.000000 -0.000007 0.157404 -1.208297
    32 1.236531 0.000004 0.000006 0.000002 -0.000011 -1.483435
    33 3.449668 0.054213 -1.085181 0.061867 0.147816 -0.235537
    34 1.711618 0.000004 0.000013 0.000003 -0.028507 -0.767477
    35 0.999023 -0.000002 0.000000 0.005618 -0.013549 -0.593093
    36 0.075535 -0.734839 -0.759724 1.293373 0.406170 -0.475948
    37 2.508557 -0.000006 -0.000010 -0.000002 -0.000001 0.359147
    38 1.328096 0.050782 -0.113292 0.025663 0.040518 0.530179
    39 -9.994290 -21.599955 -11.353365 1.695024 -0.100765 -3.167460
    40 -0.000002 3.287109 -0.573233 0.000000 0.000000 0.000000
    41 -0.000002 2.156256 -2.244137 0.000000 0.000000 0.000000
    42 -0.000003 2.917979 -4.039055 0.000000 0.000000 0.000000
    43 -0.097351 5.335948 -3.376940 0.000000 0.000000 0.000000
    44 -5.815069 27.963417 -8.904310 1.570757 0.000000 -4.712382
  time 13
    0 -0.906278 -6.211133 -9.910459 -1.259577 -0.812593 -1.804782
    1 2.033348 1.000767 1.937660 3.099074 -0.162003 1.680036
    2 6.028145 0.000003 0.000002 -2.348097 -0.537835 0.089241
    3 11.692553 0.000081 -0.000005 -0.081930 0.000000 -0.000045
    4 11.481672 -0.000089 -0.000024 0.801533 0.288878 0.047913
    5 3.711257 -0.068196 -1.203695 0.006961 -0.139795 -0.338017
    6 1.324282 -0.000008 0.000005 0.000000 -0.092105 -0.662585
    7 0.819336 -0.000002 0.000004 0.000000 0.000000 -0.523588
    8 4.114210 0.007689 -0.388474 -0.075930 -0.127276 -0.636460
    9 1.609408 0.000006 -0.000007 -0.000002 -0.001660 -0.427491
    10 0.993191 -0.000008 0.000002 0.001475 0.002258 -0.454029
    11 4.176668 0.082127 0.431443 -0.072283 -0.091395 -0.673723
    12 1.684422 -0.000010 0.000009 0.000002 -0.002240 -0.253239
    13 1.252153 -0.000004 0.000003 0.000000 0.000011 -0.532266
    14 3.965328 0.170641 1.297309 -0.068491 -0.087525 -0.464663
    15 1.719433 0.000002 -0.000004 -0.000004 0.000016 -0.300536
    16 1.005923 -0.000006 0.000003 0.000005 0.000018 -0.384333
    17 0.653693 -0.583312 0.520452 -1.780398 -0.814245 0.031396
    18 2.633557 0.000002 -0.000006 -0.000002 0.032083 0.084635
    19 1.308564 -0.000001 -0.000002 0.004041 0.015016 0.227726
    20 2.033356 1.000772 -1.937610 -0.128225 0.173059 4.244766
    21 6.028141 0.000000 -0.000002 -0.871439 1.277052 -2.658949
    22 11.692554 0.000000 -0.000003 -0.005767 0.150610 -1.560082
    23 11.481705 -0.000001 -0.000004 -0.717233 0.132021 0.391733
    24 2.914335 -0.023166 1.400147 -0.075472 -0.048637 -0.941149
    25 1.284180 -0.000002 0.000001 0.000007 0.095136 -0.604948
    26 0.841797 -0.000002 0.000000 -0.078526 0.054444 -1.209530
    27 3.368063 0.007379 0.618550 0.035972 -0.077320 -1.016278
    28 1.605513 0.000000 0.000001 0.000003 0.122000 -1.086905
    29 1.020536 0.000002 -0.000003 0.015295 -0.014044 -1.343759
    30 3.551622 0.023919 -0.204473 0.012608 -0.103497 -0.905355
    31 1.666992 0.000000 0.000000 -0.000007 0.157404 -1.208297
    32 1.236531 0.000004 0.000006 0.000002 -0.000011 -1.483435
    33 3.445761 0.054213 -1.085181 0.062096 0.148060 -0.235429
    34 1.711618 0.000004 0.000013 0.000003 -0.028507 -0.767477
    35 0.999023 -0.000002 0.000000 0.005618 -0.013549 -0.593093
    36 0.075535 -0.738746 -0.759724 1.293529 0.406469 -0.475804
    37 2.508557 -0.000006 -0.000010 -0.000002 -0.000001 0.359159
    38 1.324190 0.050782 -0.113292 0.025663 0.040518 0.530179
    39 -10.072418 -21.642925 -12.540901 1.609903 -0.128644 -3.171055
    40 -0.000002 3.287109 -0.573233 0.000000 0.000000 0.000000
    41 -0.000002 2.156256 -2.244137 0.000000 0.000000 0.000000
    42 -0.000003 2.917979 -4.039055 0.000000 0.000000 0.000000
    43 -0.097351 5.335948 -3.376940 0.000000 0.000000 0.000000
    44 -5.815069 27.963417 -8.904310 1.570757 0.000000 -4.712382
  time 14
    0 -0.800806 -6.222852 -9.898740 -1.276830 -0.814021 -1.791839
    1 2.033348 1.000767 1.937660 3.099074 -0.162003 1.680074
    2 6.028145 0.000003 0.000002 -2.364782 -0.553057 0.122920
    3 11.692553 0.000081 -0.000005 -0.081942 0.000000 -0.000045
    4 11.481672 -0.000089 -0.000024 0.734813 0.271981 0.028138
    5 3.742508 -0.079915 -1.195882 -0.000234 -0.133384 -0.280623
    6 1.324282 -0.000008 0.000005 0.000000 -0.091098 -0.652556
    7 0.819336 -0.000002 0.000004 0.000000 0.000000 -0.523588
    8 4.145461 -0.004030 -0.380661 -0.081586 -0.124819 -0.582594
    9 1.605501 0.000006 -0.000007 -0.000002 -0.002079 -0.427491
    10 0.993191 -0.000008 0.000002 0.001475 0.002258 -0.454029
    11 4.204012 0.066501 0.435350 -0.075734 -0.090712 -0.623477
    12 1.684422 -0.000010 0.000009 0.000002 -0.002324 -0.253198
    13 1.252153 -0.000004 0.000003 0.000000 0.000011 -0.532266
    14 3.992672 0.158922 1.305122 -0.071639 -0.086399 -0.419059
    15 1.719433 0.000002 -0.000004 -0.000004 0.000016 -0.293110
    16 1.005923 -0.000006 0.000003 0.000005 0.000018 -0.381238
    17 0.681038 -0.583312 0.520452 -1.785106 -0.803903 0.036251
    18 2.633557 0.000002 -0.000006 -0.000002 0.033633 0.080359
    19 1.308564 -0.000001 -0.000002 0.004724 0.018036 0.213236
    20 2.033356 1.000772 -1.937610 -0.128225 0.173059 4.244766
    21 6.028141 0.000000 -0.000002 -0.812994 1.272835 -2.586046
    22 11.692554 0.000000 -0.000003 -0.003394 0.132466 -1.533747
    23 11.481705 -0.000001 -0.000004 -0.725861 0.116055 0.399437
    24 2.914335 -0.023166 1.404053 -0.075455 -0.048649 -0.941149
    25 1.284180 -0.000002 0.000001 0.000007 0.095136 -0.604948
    26 0.841797 -0.000002 0.000000 -0.078526 0.054444 -1.209530
    27 3.368063 0.007379 0.622456 0.035972 -0.077320 -1.016278
    28 1.605513 0.000000 0.000001 0.000003 0.122000 -1.086905
    29 1.020536 0.000002 -0.000003 0.015295 -0.014044 -1.343759
    30 3.551622 0.023919 -0.200566 0.012608 -0.103497 -0.905355
    31 1.666992 0.000000 0.000000 -0.000007 0.157404 -1.208297
    32 1.236531 0.000004 0.000006 0.000002 -0.000011 -1.483435
    33 3.449668 0.054213 -1.085181 0.062096 0.148073 -0.235429
    34 1.711618 0.000004 0.000013 0.000003 -0.028507 -0.767477
    35 0.999023 -0.000002 0.000000 0.005618 -0.013549 -0.593093
    36 0.075535 -0.738746 -0.755817 1.293529 0.406469 -0.475804
    37 2.508557 -0.000006 -0.000010 -0.000002 -0.000001 0.359159
    38 1.328096 0.050782 -0.113292 0.025651 0.040518 0.530179
    39 -10.138826 -21.615581 -13.454992 1.540057 -0.143397 -3.172969
    40 -0.000002 3.287109 -0.573233 0.000000 0.000000 0.000000
    41 -0.000002 2.156256 -2.244137 0.000000 0.000000 0.000000
    42 -0.000003 2.917979 -4.039055 0.000000 0.000000 0.000000
    43 -0.097351 5.335948 -3.376940 0.000000 0.000000 0.000000
    44 -5.815069 27.963417 -8.904310 1.570757 0.000000 -4.712382
  time 15
    0 -0.695334 -6.195508 -9.871395 -1.293018 -0.819351 -1.779710
    1 2.033348 1.000767 1.937660 3.099120 -0.162003 1.680074
    2 6.028145 0.000003 0.000002 -2.380748 -0.567629 0.154309
    3 11.692553 0.000081 -0.000005 -0.081954 0.000204 -0.000358
    4 11.481672 -0.000089 -0.000024 0.665095 0.260313 0.004132
    5 3.726883 -0.076009 -1.207601 -0.007499 -0.126097 -0.232695
    6 1.324282 -0.000008 0.000005 0.000000 -0.090103 -0.645057
    7 0.819336 -0.000002 0.000004 0.000000 0.000000 -0.523588
    8 4.129835 0.003783 -0.392380 -0.088094 -0.121188 -0.537260
    9 1.609408 0.000006 -0.000007 -0.000002 -0.002427 -0.427491
    10 0.993191 -0.000008 0.000002 0.001475 0.002258 -0.454029
    11 4.188387 0.074314 0.431443 -0.080648 -0.088627 -0.581027
    12 1.684422 -0.000010 0.000009 0.000002 -0.002396 -0.253198
    13 1.252153 -0.000004 0.000003 0.000000 0.000011 -0.532266
    14 3.977047 0.166734 1.297309 -0.075996 -0.083582 -0.379978
    15 1.719433 0.000002 -0.000004 -0.000004 0.000016 -0.287548
    16 1.005923 -0.000006 0.000003 0.000005 0.000018 -0.378916
    17 0.665412 -0.583312 0.512640 -1.789850 -0.793540 0.045227
    18 2.633557 0.000002 -0.000006 -0.000002 0.034775 0.077097
    19 1.308564 -0.000001 -0.000002 0.005191 0.020325 0.202302
    20 2.033356 1.000772 -1.937610 -0.128178 0.173059 4.244766
    21 6.028141 0.000000 -0.000002 -0.768850 1.266270 -2.529639
    22 11.692554 0.000000 -0.000003 -0.000493 0.114333 -1.504824
    23 11.481705 -0.000001 -0.000004 -0.725801 0.100351 0.405696
    24 2.914335 -0.023166 1.404053 -0.075472 -0.048637 -0.941149
    25 1.284180 -0.000002 0.000001 0.000007 0.095136 -0.604948
    26 0.841797 -0.000002 0.000000 -0.078526 0.054444 -1.209530
    27 3.368063 0.007379 0.622456 0.035972 -0.077320 -1.016278
    28 1.605513 0.000000 0.000001 0.000003 0.122000 -1.086905
    29 1.020536 0.000002 -0.000003 0.015295 -0.014044 -1.343759
    30 3.551622 0.023919 -0.200566 0.012608 -0.103497 -0.905379
    31 1.666992 0.000000 0.000000 -0.000007 0.157404 -1.208297
    32 1.236531 0.000004 0.000006 0.000002 -0.000011 -1.483435
    33 3.449668 0.054213 -1.085181 0.062096 0.148073 -0.235441
    34 1.711618 0.000004 0.000013 0.000003 -0.028507 -0.767477
    35 0.999023 -0.000002 0.000000 0.005618 -0.013549 -0.593093
    36 0.075535 -0.738746 -0.755817 1.293529 0.406469 -0.475804
    37 2.508557 -0.000006 -0.000010 -0.000002 -0.000001 0.359159
    38 1.324190 0.050782 -0.113292 0.025663 0.040518 0.530179
    39 -10.197422 -21.549172 -14.216734 1.478805 -0.149606 -3.173897
    40 -0.000002 3.287109 -0.573233 0.000000 0.000000 0.000000
    41 -0.000002 2.156256 -2.244137 0.000000 0.000000 0.000000
    42 -0.000003 2.917979 -4.039055 0.000000 0.000000 0.000000
    43 -0.097351 5.335948 -3.376940 0.000000 0.000000 0.000000
    44 -5.815069 27.963417 -8.904310 1.570757 0.000000 -4.712382
  time 16
    0 -0.578143 -6.101755 -9.808893 -1.309143 -0.831802 -1.767582
    1 2.033348 1.000767 1.937660 3.099074 -0.162003 1.680074
    2 6.028145 0.000003 0.000002 -2.393202 -0.581223 0.179114
    3 11.692553 0.000081 -0.000005 -0.081930 0.000000 0.000268
    4 11.481672 -0.000089 -0.000024 0.592603 0.253367 -0.024013
    5 3.687819 -0.072102 -1.227133 -0.013758 -0.120021 -0.198651
    6 1.324282 -0.000008 0.000005 0.000000 -0.089396 -0.640266
    7 0.819336 -0.000002 0.000004 0.000000 0.000000 -0.523588
    8 4.094678 0.007689 -0.411912 -0.094110 -0.118000 -0.504803
    9 1.609408 0.000006 -0.000007 -0.000002 -0.002631 -0.427491
    10 0.993191 -0.000008 0.000002 0.001475 0.002258 -0.454029
    11 4.153229 0.082127 0.415818 -0.085705 -0.086542 -0.550370
    12 1.684422 -0.000010 0.000009 0.000002 -0.002444 -0.253198
    13 1.252153 -0.000004 0.000003 0.000000 0.000011 -0.532266
    14 3.941889 0.174547 1.277777 -0.080569 -0.080670 -0.351585
    15 1.719433 0.000002 -0.000004 -0.000004 0.000016 -0.284024
    16 1.005923 -0.000006 0.000003 0.000005 0.000018 -0.377415
    17 0.634161 -0.591124 0.504827 -1.794558 -0.785290 0.055756
    18 2.633557 0.000002 -0.000006 -0.000002 0.035489 0.075043
    19 1.308564 -0.000001 -0.000002 0.005491 0.021763 0.195429
    20 2.033356 1.000772 -1.937610 -0.128225 0.173025 4.244766
    21 6.028141 0.000000 -0.000002 -0.740343 1.256761 -2.490391
    22 11.692554 0.000000 -0.000003 0.002850 0.096428 -1.473184
    23 11.481705 -0.000001 -0.000004 -0.715725 0.084530 0.408844
    24 2.914335 -0.023166 1.400147 -0.075472 -0.048649 -0.941149
    25 1.284180 -0.000002 0.000001 0.000007 0.095136 -0.604948
    26 0.841797 -0.000002 0.000000 -0.078526 0.054444 -1.209530
    27 3.368063 0.007379 0.618550 0.035972 -0.077320 -1.016278
    28 1.605513 0.000000 0.000001 0.000003 0.122000 -1.086905
    29 1.020536 0.000002 -0.000003 0.015295 -0.014044 -1.343759
    30 3.551622 0.023919 -0.200566 0.012608 -0.103497 -0.905355
    31 1.666992 0.000000 0.000000 -0.000007 0.157404 -1.208297
    32 1.236531 0.000004 0.000006 0.000002 -0.000011 -1.483435
    33 3.449668 0.054213 -1.081275 0.062096 0.148073 -0.235441
    34 1.711618 0.000004 0.000013 0.000003 -0.028519 -0.767477
    35 0.999023 -0.000002 0.000000 0.005618 -0.013549 -0.593093
    36 0.075535 -0.734839 -0.759724 1.293529 0.406469 -0.475804
    37 2.508557 -0.000006 -0.000010 -0.000002 -0.000001 0.359159
    38 1.328096 0.050782 -0.113292 0.025663 0.040518 0.530179
    39 -10.209141 -21.471045 -14.751906 1.430112 -0.146147 -3.173955
    40 -0.000002 3.287109 -0.573233 0.000000 0.000000 0.000000
    41 -0.000002 2.156256 -2.244137 0.000000 0.000000 0.000000
    42 -0.000003 2.917979 -4.039055 0.000000 0.000000 0.000000
    43 -0.097351 5.335948 -3.376940 0.000000 0.000000 0.000000
    44 -5.815069 27.963417 -8.904310 1.570757 0.000000 -4.712382
  time 17
    0 -0.441420 -5.953313 -9.726859 -1.325503 -0.850379 -1.755310
    1 2.033348 1.000767 1.937660 3.099074 -0.162003 1.680074
    2 6.028145 0.000003 0.000002 -2.403101 -0.593637 0.198863
    3 11.692553 0.000081 -0.000005 -0.081942 0.000000 -0.000045
    4 11.481672 -0.000089 -0.000024 0.515913 0.249660 -0.055010
    5 3.625317 -0.056477 -1.250571 -0.017728 -0.115335 -0.181541
    6 1.324282 -0.000008 0.000005 0.000000 -0.089132 -0.638629
    7 0.819336 -0.000002 0.000004 0.000000 0.000000 -0.523588
    8 4.032176 0.027221 -0.431444 -0.098676 -0.114968 -0.488124
    9 1.605501 0.000006 -0.000007 -0.000002 -0.002702 -0.427491
    10 0.993191 -0.000008 0.000002 0.001475 0.002270 -0.454029
    11 4.094634 0.105565 0.384567 -0.090032 -0.084037 -0.534415
    12 1.684422 -0.000010 0.000009 0.000002 -0.002456 -0.253198
    13 1.252153 -0.000004 0.000003 0.000000 0.000011 -0.532266
    14 3.887200 0.197985 1.246526 -0.084306 -0.077410 -0.336402
    15 1.719433 0.000002 -0.000004 -0.000004 0.000016 -0.282772
    16 1.005923 -0.000006 0.000003 0.000005 0.000018 -0.376914
    17 0.579472 -0.591124 0.489201 -1.797776 -0.779531 0.065579
    18 2.633557 0.000002 -0.000006 -0.000002 0.035734 0.074318
    19 1.308564 -0.000001 -0.000002 0.005599 0.022254 0.193040
    20 2.033356 1.000772 -1.937610 -0.128225 0.173059 4.244766
    21 6.028141 0.000000 -0.000002 -0.726137 1.244149 -2.466974
    22 11.692554 0.000000 -0.000003 0.006542 0.078667 -1.438308
    23 11.481705 -0.000001 -0.000004 -0.698287 0.068622 0.407770
    24 2.914335 -0.023166 1.404053 -0.075472 -0.048649 -0.941149
    25 1.284180 -0.000002 0.000001 0.000007 0.095136 -0.604948
    26 0.841797 -0.000002 0.000000 -0.078526 0.054444 -1.209530
    27 3.368063 0.007379 0.622456 0.035972 -0.077320 -1.016278
    28 1.605513 0.000000 0.000001 0.000003 0.121988 -1.086905
    29 1.024442 0.000002 -0.000003 0.015295 -0.014044 -1.343759
    30 3.551622 0.023919 -0.200566 0.012608 -0.103497 -0.905355
    31 1.666992 0.000000 0.000000 -0.000007 0.157404 -1.208297
    32 1.236531 0.000004 0.000006 0.000002 -0.000011 -1.483435
    33 3.449668 0.054213 -1.089087 0.062096 0.148073 -0.235441
    34 1.711618 0.000004 0.000013 0.000003 -0.028507 -0.767477
    35 0.999023 -0.000002 0.000000 0.005618 -0.013549 -0.593093
    36 0.075535 -0.738746 -0.759724 1.293529 0.406469 -0.475804
    37 2.508557 -0.000006 -0.000010 -0.000002 -0.000001 0.359159
    38 1.328096 0.050782 -0.113292 0.025651 0.040518 0.530179
    39 -10.177890 -21.396824 -15.099573 1.392949 -0.135020 -3.173027
    40 -0.000002 3.287109 -0.573233 0.000000 0.000000 0.000000
    41 -0.000002 2.156256 -2.244137 0.000000 0.000000 0.000000
    42 -0.000003 2.917979 -4.039055 0.000000 0.000000 0.000000
    43 -0.097351 5.335948 -3.376940 0.000000 0.000000 0.000000
    44 -5.815069 27.963417 -8.904310 1.570757 0.000000 -4.712382
  time 18
    0 -0.312510 -5.746275 -9.625294 -1.342286 -0.874123 -1.742798
    1 2.033348 1.000767 1.937660 3.099074 -0.162003 1.680074
    2 6.028145 0.000003 0.000002 -2.411244 -0.605156 0.214987
    3 11.692553 0.000081 -0.000005 -0.081942 0.000000 -0.000045
    4 11.481672 -0.000089 -0.000024 0.421681 0.267845 -0.113737
    5 3.539377 -0.033039 -1.281822 -0.018838 -0.112423 -0.185188
    6 1.324282 -0.000008 0.000005 0.000000 -0.089480 -0.640772
    7 0.819336 -0.000002 0.000004 0.000000 0.000000 -0.523588
    8 3.950142 0.050659 -0.462695 -0.101457 -0.112200 -0.490913
    9 1.609408 0.000006 -0.000007 -0.000002 -0.002607 -0.427491
    10 0.993191 -0.000008 0.000002 0.001475 0.002258 -0.454029
    11 4.016506 0.136816 0.349409 -0.093387 -0.080993 -0.536529
    12 1.684422 -0.000010 0.000009 0.000002 -0.002432 -0.253198
    13 1.252153 -0.000004 0.000003 0.000000 0.000011 -0.532266
    14 3.820792 0.229236 1.219182 -0.086988 -0.073707 -0.337691
    15 1.719433 0.000002 -0.000004 -0.000004 0.000016 -0.284374
    16 1.005923 -0.000006 0.000003 0.000005 0.000018 -0.377597
    17 0.509158 -0.591124 0.477482 -1.798866 -0.776722 0.074386
    18 2.637464 0.000002 -0.000006 -0.000002 0.035407 0.075260
    19 1.308564 -0.000001 -0.000002 0.005467 0.021619 0.196145
    20 2.033356 1.000772 -1.937610 -0.128225 0.173059 4.244766
    21 6.028141 0.000000 -0.000002 -0.722227 1.229429 -2.455977
    22 11.692554 0.000000 -0.000003 0.010389 0.061409 -1.401362
    23 11.481705 -0.000001 -0.000004 -0.681875 0.052392 0.402288
    24 2.914335 -0.023166 1.404053 -0.075472 -0.048637 -0.941149
    25 1.284180 -0.000002 0.000001 0.000007 0.095136 -0.604948
    26 0.841797 -0.000002 0.000000 -0.078526 0.054444 -1.209530
    27 3.368063 0.007379 0.622456 0.035972 -0.077320 -1.016278
    28 1.605513 0.000000 0.000001 0.000003 0.122000 -1.086905
    29 1.020536 0.000002 -0.000003 0.015295 -0.014044 -1.343759
    30 3.551622 0.023919 -0.204473 0.012608 -0.103497 -0.905355
    31 1.666992 0.000000 0.000000 -0.000007 0.157404 -1.208297
    32 1.236531 0.000004 0.000006 0.000002 -0.000011 -1.483435
    33 3.449668 0.054213 -1.085181 0.062096 0.148073 -0.235441
    34 1.711618 0.000004 0.000013 0.000003 -0.028507 -0.767477
    35 0.999023 -0.000002 0.000000 0.005618 -0.013549 -0.593093
    36 0.075535 -0.738746 -0.755817 1.293541 0.406469 -0.475804
    37 2.508557 -0.000006 -0.000010 -0.000002 -0.000001 0.359147
    38 1.324190 0.050782 -0.113292 0.025663 0.040518 0.530179
    39 -10.107575 -21.338228 -15.267547 1.365995 -0.124019 -3.170475
    40 -0.000002 3.287109 -0.573233 0.000000 0.000000 0.000000
    41 -0.000002 2.156256 -2.244137 0.000000 0.000000 0.000000
    42 -0.000003 2.917979 -4.039055 0.000000 0.000000 0.000000
    43 -0.097351 5.335948 -3.376940 0.000000 0.000000 0.000000
    44 -5.815069 27.963417 -8.904310 1.570757 0.000000 -4.712382
  time 19
    0 -0.167974 -5.500174 -9.512009 -1.359680 -0.902151 -1.729902
    1 2.033348 1.000767 1.937660 3.099074 -0.162003 1.680074
    2 6.028145 0.000003 0.000002 -2.418029 -0.616227 0.228535
    3 11.692553 0.000081 -0.000005 -0.081942 0.000000 -0.000045
    4 11.481672 -0.000089 -0.000024 0.299112 0.308663 -0.218591
    5 3.433905 -0.005694 -1.316979 -0.018058 -0.112387 -0.210466
    6 1.324282 -0.000008 0.000005 0.000000 -0.090391 -0.646932
    7 0.819336 -0.000002 0.000004 0.000000 0.000000 -0.523588
    8 3.856389 0.081910 -0.505665 -0.102967 -0.110941 -0.513991
    9 1.609408 0.000006 -0.000007 -0.000002 -0.002343 -0.427491
    10 0.993191 -0.000008 0.000002 0.001475 0.002258 -0.454029
    11 3.918847 0.171973 0.310346 -0.096336 -0.078704 -0.557539
    12 1.684422 -0.000010 0.000009 0.000002 -0.002384 -0.253198
    13 1.252153 -0.000004 0.000003 0.000000 0.000011 -0.532266
    14 3.727039 0.268300 1.180118 -0.089361 -0.070675 -0.355943
    15 1.719433 0.000002 -0.000004 -0.000004 0.000016 -0.288917
    16 1.005923 -0.000006 0.000003 0.000005 0.000018 -0.379463
    17 0.419311 -0.595031 0.461857 -1.799012 -0.777678 0.083023
    18 2.633557 0.000002 -0.000006 -0.000002 0.034490 0.077918
    19 1.308564 -0.000001 -0.000002 0.005071 0.019750 0.205062
    20 2.033356 1.000772 -1.937610 -0.128225 0.173059 4.244806
    21 6.028141 0.000000 -0.000002 -0.726232 1.212878 -2.455219
    22 11.692554 0.000000 -0.000003 0.014152 0.044535 -1.362734
    23 11.481705 -0.000001 -0.000004 -0.671497 0.038589 0.390696
    24 2.910429 -0.023166 1.400147 -0.075290 -0.049188 -0.940981
    25 1.284180 -0.000002 0.000001 0.000007 0.095136 -0.604948
    26 0.841797 -0.000002 0.000000 -0.078526 0.054444 -1.209530
    27 3.364156 0.007379 0.618550 0.036187 -0.077860 -1.016116
    28 1.605513 0.000000 0.000001 0.000003 0.122000 -1.086905
    29 1.020536 0.000002 -0.000003 0.015295 -0.014044 -1.343759
    30 3.551622 0.023919 -0.204473 0.012752 -0.104048 -0.905187
    31 1.666992 0.000000 0.000000 -0.000007 0.157404 -1.208297
    32 1.236531 0.000004 0.000006 0.000002 -0.000011 -1.483435
    33 3.449668 0.054213 -1.085181 0.061867 0.147547 -0.235298
    34 1.711618 0.000004 0.000013 0.000003 -0.028507 -0.767477
    35 0.999023 -0.000002 0.000000 0.005618 -0.013549 -0.593093
    36 0.075535 -0.738746 -0.759724 1.293433 0.405906 -0.475672
    37 2.508557 -0.000006 -0.000010 -0.000002 -0.000001 0.359159
    38 1.328096 0.050782 -0.113292 0.025663 0.040518 0.530179
    39 -10.025541 -21.306977 -15.279266 1.350351 -0.118601 -3.165372
    40 -0.000002 3.287109 -0.573233 0.000000 0.000000 0.000000
    41 -0.000002 2.156256 -2.244137 0.000000 0.000000 0.000000
    42 -0.000003 2.917979 -4.039055 0.000000 0.000000 0.000000
    43 -0.097351 5.335948 -3.376940 0.000000 0.000000 0.000000
    44 -5.815069 27.963417 -8.904310 1.570757 0.000000 -4.712382
  time 20
    0 -0.027345 -5.222822 -9.394818 -1.377840 -0.933413 -1.716528
    1 2.033348 1.000767 1.937660 3.099074 -0.162003 1.680074
    2 6.028145 0.000003 0.000002 -2.424975 -0.626728 0.242178
    3 11.692553 0.000081 -0.000005 -0.081942 0.000024 0.000268
    4 11.481672 -0.000089 -0.000024 0.155178 0.347140 -0.363317
    5 3.297182 0.002119 -1.375575 -0.019566 -0.116102 -0.250436
    6 1.324282 -0.000008 0.000005 0.000000 -0.091529 -0.656574
    7 0.819336 -0.000002 0.000004 0.000000 0.000000 -0.523588
    8 3.727479 0.105348 -0.560354 -0.106478 -0.113362 -0.550576
    9 1.609408 0.000006 -0.000007 -0.000002 -0.001912 -0.427491
    10 0.993191 -0.000008 0.000002 0.001475 0.002258 -0.454029
    11 3.801656 0.199318 0.255657 -0.101897 -0.079603 -0.590871
    12 1.684422 -0.000010 0.000009 0.000002 -0.002288 -0.253198
    13 1.252153 -0.000004 0.000003 0.000000 0.000011 -0.532266
    14 3.605942 0.295645 1.121522 -0.094973 -0.070100 -0.385021
    15 1.719433 0.000002 -0.000004 -0.000004 0.000016 -0.296081
    16 1.005923 -0.000006 0.000003 0.000005 0.000018 -0.382512
    17 0.309933 -0.630188 0.434512 -1.803338 -0.781883 0.099056
    18 2.633557 0.000002 -0.000006 -0.000002 0.033021 0.082050
    19 1.308564 -0.000001 -0.000002 0.004448 0.016813 0.219022
    20 2.033356 1.000772 -1.937610 -0.128225 0.173059 4.244766
    21 6.028141 0.000000 -0.000002 -0.738150 1.192906 -2.463656
    22 11.692554 0.000000 -0.000003 0.017747 0.028847 -1.322358
    23 11.481705 -0.000001 -0.000004 -0.666731 0.027184 0.376954
    24 2.914335 -0.027073 1.400147 -0.075588 -0.048409 -0.941353
    25 1.284180 -0.000002 0.000001 0.000007 0.095136 -0.604948
    26 0.841797 -0.000002 0.000000 -0.078526 0.054444 -1.209530
    27 3.368063 0.007379 0.618550 0.035816 -0.077105 -1.016465
    28 1.605513 0.000000 0.000001 0.000003 0.122000 -1.086905
    29 1.020536 0.000002 -0.000003 0.015295 -0.014044 -1.343759
    30 3.551622 0.023919 -0.204473 0.012465 -0.103257 -0.905546
    31 1.666992 0.000000 0.000000 -0.000007 0.157404 -1.208297
    32 1.236531 0.000004 0.000006 0.000002 -0.000011 -1.483435
    33 3.449668 0.054213 -1.085181 0.062134 0.148343 -0.235633
    34 1.711618 0.000004 0.000013 0.000003 -0.028507 -0.767477
    35 0.999023 -0.000002 0.000000 0.005618 -0.013549 -0.593093
    36 0.075535 -0.734839 -0.755817 1.293505 0.406745 -0.476019
    37 2.508557 -0.000006 -0.000010 -0.000002 -0.000001 0.359159
    38 1.324190 0.050782 -0.113292 0.025663 0.040518 0.530179
    39 -9.896631 -21.299165 -15.154262 1.344549 -0.116893 -3.158414
    40 -0.000002 3.287109 -0.573233 0.000000 0.000000 0.000000
    41 -0.000002 2.156256 -2.244137 0.000000 0.000000 0.000000
    42 -0.000003 2.917979 -4.039055 0.000000 0.000000 0.000000
    43 -0.097351 5.335948 -3.376940 0.000000 0.000000 0.000000
    44 -5.815069 27.963417 -8.904310 1.570757 0.000000 -4.712382
  time 21
    0 0.105472 -4.910312 -9.277627 -1.396831 -0.966988 -1.702673
    1 2.033348 1.000767 1.937660 3.099120 -0.162003 1.680074
    2 6.028145 0.000003 0.000002 -2.385219 -0.545975 0.171673
    3 11.692553 0.000081 -0.000005 -0.086424 0.039154 -0.228086
    4 11.481672 -0.000089 -0.000024 0.013792 0.343121 -0.388013
    5 3.281557 0.002119 -1.383388 -0.011712 -0.128027 -0.325431
    6 1.324282 -0.000008 0.000005 0.000000 -0.092572 -0.669370
    7 0.819336 -0.000002 0.000004 0.000000 0.000000 -0.523588
    8 3.711854 0.109255 -0.568167 -0.099048 -0.120313 -0.621258
    9 1.609408 0.000006 -0.000007 -0.000002 -0.001348 -0.427491
    10 0.993191 -0.000008 0.000002 0.001475 0.002258 -0.454029
    11 3.786031 0.203224 0.243937 -0.097079 -0.084301 -0.657007
    12 1.684422 -0.000010 0.000009 0.000002 -0.002204 -0.253239
    13 1.252153 -0.000004 0.000003 0.000000 0.000011 -0.532266
    14 3.594223 0.299551 1.109803 -0.091314 -0.075229 -0.445259
    15 1.719433 0.000002 -0.000004 -0.000004 0.000016 -0.305516
    16 1.005923 -0.000006 0.000003 0.000005 0.000018 -0.386426
    17 0.298214 -0.634094 0.426700 -1.798575 -0.797386 0.091491
    18 2.633557 0.000002 -0.000006 -0.000002 0.031022 0.087511
    19 1.308564 -0.000001 -0.000002 0.003549 0.012978 0.237413
    20 2.033356 1.000772 -1.937610 -0.128225 0.173059 4.244766
    21 6.028141 0.000000 -0.000002 -0.755311 1.169432 -2.478730
    22 11.692554 0.000000 -0.000003 0.021019 0.013830 -1.281336
    23 11.481705 -0.000001 -0.000004 -0.663774 0.019785 0.360361
    24 2.910429 -0.023166 1.404053 -0.075323 -0.048876 -0.940945
    25 1.284180 -0.000002 0.000001 0.000007 0.095136 -0.604948
    26 0.841797 -0.000002 0.000000 -0.078526 0.054444 -1.209530
    27 3.364156 0.007379 0.622456 0.036139 -0.077548 -1.016079
    28 1.605513 0.000000 0.000001 0.000003 0.122000 -1.086905
    29 1.020536 0.000002 -0.000003 0.015295 -0.014044 -1.343759
    30 3.551622 0.023919 -0.204473 0.012752 -0.103737 -0.905163
    31 1.666992 0.000000 0.000000 -0.000007 0.157404 -1.208297
    32 1.236531 0.000004 0.000006 0.000002 -0.000011 -1.483435
    33 3.449668 0.054213 -1.085181 0.062058 0.147804 -0.235238
    34 1.711618 0.000004 0.000013 0.000003 -0.028519 -0.767477
    35 0.999023 -0.000002 0.000000 0.005618 -0.013549 -0.593093
    36 0.075535 -0.738746 -0.759724 1.293565 0.406206 -0.475588
    37 2.508557 -0.000006 -0.000010 -0.000002 -0.000001 0.359159
    38 1.328096 0.050782 -0.113292 0.025663 0.040518 0.530179
    39 -9.713032 -21.318696 -14.923786 1.347340 -0.116976 -3.150353
    40 -0.000002 3.287109 -0.573233 0.000000 0.000000 0.000000
    41 -0.000002 2.156256 -2.244137 0.000000 0.000000 0.000000
    42 -0.000003 2.917979 -4.039055 0.000000 0.000000 0.000000
    43 -0.097351 5.335948 -3.376940 0.000000 0.000000 0.000000
    44 -5.815069 27.963417 -8.904310 1.570757 0.000000 -4.712382
  time 22
    0 0.250008 -4.582177 -9.168249 -1.416713 -1.001882 -1.688148
    1 2.033348 1.000767 1.937660 3.099074 -0.162003 1.680074
    2 6.028145 0.000003 0.000002 -2.372605 -0.505355 0.146104
    3 11.692553 0.000081 -0.000005 -0.092464 0.059408 -0.350475
    4 11.481672 -0.000089 -0.000024 -0.120921 0.330048 -0.455386
    5 3.281557 0.002119 -1.379481 -0.001465 -0.142552 -0.417956
    6 1.324282 -0.000008 0.000005 0.000000 -0.093015 -0.684755
    7 0.819336 -0.000002 0.000004 0.000000 0.000000 -0.523588
    8 3.711854 0.109255 -0.568167 -0.088381 -0.128666 -0.708537
    9 1.609408 0.000006 -0.000007 -0.000002 -0.000689 -0.427491
    10 0.993191 -0.000008 0.000002 0.001475 0.002258 -0.454029
    11 3.786031 0.203224 0.243937 -0.089612 -0.090293 -0.738669
    12 1.684422 -0.000010 0.000009 0.000002 -0.002132 -0.253239
    13 1.252153 -0.000004 0.000003 0.000000 0.000011 -0.532266
    14 3.594223 0.299551 1.113710 -0.085609 -0.082120 -0.519776
    15 1.719433 0.000002 -0.000004 -0.000004 0.000016 -0.316816
    16 1.005923 -0.000006 0.000003 0.000005 0.000018 -0.391205
    17 0.298214 -0.634094 0.430606 -1.791759 -0.817214 0.079636
    18 2.633557 0.000002 -0.000006 -0.000002 0.028595 0.094010
    19 1.308564 -0.000001 -0.000002 0.002411 0.008400 0.259493
    20 2.033356 1.000772 -1.937610 -0.128225 0.173059 4.244806
    21 6.028141 0.000000 -0.000002 -0.774666 1.142975 -2.497406
    22 11.692554 0.000000 -0.000003 0.023847 0.000024 -1.239278
    23 11.481705 -0.000001 -0.000004 -0.661843 0.014901 0.342953
    24 2.914335 -0.023166 1.400147 -0.075290 -0.048745 -0.940873
    25 1.284180 -0.000002 0.000001 0.000007 0.095136 -0.604948
    26 0.841797 -0.000002 0.000000 -0.078526 0.054444 -1.209530
    27 3.368063 0.007379 0.622456 0.036163 -0.077416 -1.016016
    28 1.605513 0.000000 0.000001 0.000003 0.122000 -1.086905
    29 1.020536 0.000002 -0.000003 0.015295 -0.014044 -1.343759
    30 3.551622 0.027825 -0.200566 0.012776 -0.103605 -0.905091
    31 1.666992 0.000000 0.000000 -0.000007 0.157404 -1.208297
    32 1.236531 0.000004 0.000006 0.000002 -0.000011 -1.483435
    33 3.449668 0.054213 -1.085181 0.062159 0.147881 -0.235154
    34 1.711618 0.000004 0.000013 0.000003 -0.028507 -0.767477
    35 0.999023 -0.000002 0.000000 0.005618 -0.013549 -0.593093
    36 0.075535 -0.738746 -0.755817 1.293661 0.406302 -0.475480
    37 2.508557 -0.000006 -0.000010 -0.000002 -0.000001 0.359159
    38 1.328096 0.050782 -0.113292 0.025663 0.040518 0.530179
    39 -9.494275 -21.361667 -14.603464 1.357108 -0.116934 -3.142235
    40 -0.000002 3.287109 -0.573233 0.000000 0.000000 0.000000
    41 -0.000002 2.156256 -2.244137 0.000000 0.000000 0.000000
    42 -0.000003 2.917979 -4.039055 0.000000 0.000000 0.000000
    43 -0.097351 5.335948 -3.376940 0.000000 0.000000 0.000000
    44 -5.815069 27.963417 -8.904310 1.570757 0.000000 -4.712382
  time 23
    0 0.382824 -4.250136 -9.066683 -1.437410 -1.037174 -1.673000
    1 2.033348 1.000767 1.937660 3.099074 -0.162003 1.680074
    2 6.028145 0.000003 0.000002 -2.367416 -0.471369 0.132079
    3 11.692553 0.000081 -0.000005 -0.099511 0.075910 -0.454720
    4 11.481672 -0.000089 -0.000024 -0.228947 0.301171 -0.496178
    5 3.281557 0.002119 -1.383388 0.010498 -0.157293 -0.523699
    6 1.324282 -0.000008 0.000005 0.000000 -0.092476 -0.702402
    7 0.819336 -0.000002 0.000004 0.000000 0.000000 -0.523588
    8 3.711854 0.109255 -0.572073 -0.075282 -0.136480 -0.808093
    9 1.609408 0.000006 -0.000007 -0.000002 0.000018 -0.427491
    10 0.993191 -0.000008 0.000002 0.001487 0.002258 -0.454029
    11 3.786031 0.203224 0.243937 -0.080288 -0.095962 -0.831630
    12 1.684422 -0.000010 0.000009 0.000002 -0.002108 -0.253239
    13 1.252153 -0.000004 0.000003 0.000000 0.000011 -0.532266
    14 3.594223 0.299551 1.109803 -0.078337 -0.089071 -0.604652
    15 1.719433 0.000002 -0.000004 -0.000004 0.000016 -0.329601
    16 1.005923 -0.000006 0.000003 0.000005 0.000018 -0.396530
    17 0.298214 -0.634094 0.426700 -1.782489 -0.839433 0.064845
    18 2.633557 0.000002 -0.000006 -0.000002 0.025719 0.101380
    19 1.308564 -0.000001 -0.000002 0.000961 0.003247 0.284599
    20 2.033356 1.000772 -1.937610 -0.128225 0.173059 4.244766
    21 6.028141 0.000000 -0.000002 -0.793067 1.114727 -2.516082
    22 11.692554 0.000000 -0.000003 0.026160 -0.012512 -1.197220
    23 11.481705 -0.000001 -0.000004 -0.658223 0.012533 0.325286
    24 2.914335 -0.023166 1.404053 -0.075472 -0.048637 -0.941149
    25 1.284180 -0.000002 0.000001 0.000007 0.095136 -0.604948
    26 0.841797 -0.000002 0.000000 -0.078526 0.054444 -1.209530
    27 3.368063 0.007379 0.622456 0.035972 -0.077320 -1.016278
    28 1.605513 0.000000 0.000001 0.000003 0.122000 -1.086956
    29 1.020536 0.000002 -0.000003 0.015295 -0.014044 -1.343759
    30 3.551622 0.023919 -0.200566 0.012608 -0.103497 -0.905355
    31 1.666992 0.000000 0.000000 -0.000007 0.157404 -1.208297
    32 1.236531 0.000004 0.000006 0.000002 -0.000011 -1.483435
    33 3.449668 0.054213 -1.089087 0.062096 0.148073 -0.235429
    34 1.711618 0.000004 0.000013 0.000003 -0.028507 -0.767477
    35 0.999023 -0.000002 0.000000 0.005618 -0.013549 -0.593093
    36 0.075535 -0.738746 -0.755817 1.293541 0.406469 -0.475804
    37 2.508557 -0.000006 -0.000010 -0.000002 -0.000001 0.359159
    38 1.324190 0.050782 -0.113292 0.025651 0.040518 0.530179
    39 -9.248174 -21.412449 -14.224546 1.372458 -0.114767 -3.134987
    40 -0.000002 3.287109 -0.573233 0.000000 0.000000 0.000000
    41 -0.000002 2.156256 -2.244137 0.000000 0.000000 0.000000
    42 -0.000003 2.917979 -4.039055 0.000000 0.000000 0.000000
    43 -0.097351 5.335948 -3.376940 0.000000 0.000000 0.000000
    44 -5.815069 27.963417 -8.904310 1.570757 0.000000 -4.712382
  time 24
    0 0.507828 -3.914188 -8.976836 -1.458812 -1.071815 -1.657276
    1 2.033348 1.000767 1.937660 3.099074 -0.162003 1.680074
    2 6.028145 0.000003 0.000002 -2.367895 -0.439011 0.125973
    3 11.692553 0.000081 -0.000005 -0.107601 0.090592 -0.552161
    4 11.481672 -0.000089 -0.000024 -0.299265 0.267962 -0.482888
    5 3.281557 0.006025 -1.383388 0.023310 -0.171423 -0.639365
    6 1.324282 -0.000008 0.000005 0.000000 -0.090571 -0.721775
    7 0.819336 -0.000002 0.000004 0.000000 0.000000 -0.523588
    8 3.711854 0.109255 -0.568167 -0.060314 -0.143336 -0.916617
    9 1.609408 0.000006 -0.000007 -0.000002 0.000809 -0.427491
    10 0.993191 -0.000008 0.000002 0.001475 0.002258 -0.454029
    11 3.786031 0.207131 0.243937 -0.069490 -0.101175 -0.932948
    12 1.684422 -0.000010 0.000009 0.000002 -0.002132 -0.253239
    13 1.252153 -0.000004 0.000003 0.000000 0.000011 -0.532266
    14 3.594223 0.303457 1.113710 -0.069933 -0.095951 -0.697175
    15 1.719433 0.000002 -0.000004 -0.000004 0.000016 -0.343667
    16 1.005923 -0.000006 0.000003 0.000005 0.000018 -0.402402
    17 0.298214 -0.630188 0.426700 -1.758077 -0.994888 0.076841
    18 2.633557 0.000002 -0.000006 0.033315 0.033429 0.101477
    19 1.308564 -0.000001 -0.000002 0.000313 -0.003249 0.252806
    20 2.033356 1.000772 -1.937610 -0.128225 0.173059 4.244766
    21 6.028141 0.000000 -0.000002 -0.810133 1.085087 -2.534663
    22 11.692554 0.000000 -0.000003 0.027850 -0.023610 -1.154192
    23 11.481705 -0.000001 -0.000004 -0.650922 0.011655 0.306730
    24 2.914335 -0.023166 1.400147 -0.075703 -0.048505 -0.941533
    25 1.284180 -0.000002 0.000001 0.000007 0.095136 -0.604948
    26 0.841797 -0.000002 0.000000 -0.078526 0.054444 -1.209530
    27 3.368063 0.007379 0.622456 0.035720 -0.077201 -1.016664
    28 1.605513 0.000000 0.000001 0.000003 0.122000 -1.086905
    29 1.020536 0.000002 -0.000003 0.015295 -0.014044 -1.343759
    30 3.551622 0.027825 -0.204473 0.012381 -0.103341 -0.905726
    31 1.666992 0.000000 0.000000 -0.000007 0.157404 -1.208297
    32 1.240438 0.000004 0.000006 0.000002 -0.000011 -1.483435
    33 3.449668 0.054213 -1.085181 0.061994 0.148343 -0.235849
    34 1.711618 0.000004 0.000013 0.000003 -0.028507 -0.767477
    35 0.999023 -0.000002 0.000000 0.005618 -0.013549 -0.593093
    36 0.075535 -0.734839 -0.759724 1.293361 0.406709 -0.476271
    37 2.508557 -0.000006 -0.000010 -0.000002 -0.000001 0.359159
    38 1.328096 0.050782 -0.113292 0.025663 0.040518 0.530179
    39 -8.994260 -21.471045 -13.810471 1.391700 -0.108391 -3.129014
    40 -0.000002 3.287109 -0.573233 0.000000 0.000000 0.000000
    41 -0.000002 2.156256 -2.244137 0.000000 0.000000 0.000000
    42 -0.000003 2.917979 -4.039055 0.000000 0.000000 0.000000
    43 -0.097351 5.335948 -3.376940 0.000000 0.000000 0.000000
    44 -5.815069 27.963417 -8.904310 1.570757 0.000000 -4.712382
  time 25
    0 0.625019 -3.586053 -8.898709 -1.480573 -1.104902 -1.641025
    1 2.033348 1.000767 1.937660 3.099074 -0.162003 1.680074
    2 6.028145 0.000003 0.000002 -2.374841 -0.404251 0.127690
    3 11.692553 0.000081 -0.000005 -0.117955 0.105464 -0.657580
    4 11.481672 -0.000089 -0.000024 -0.327977 0.246343 -0.399970
    5 3.281557 0.002119 -1.383388 0.037007 -0.183887 -0.763164
    6 1.324282 -0.000008 0.000005 0.000000 -0.086963 -0.742457
    7 0.819336 -0.000002 0.000004 0.000000 0.000000 -0.523588
    8 3.711854 0.109255 -0.568167 -0.043283 -0.148441 -1.032497
    9 1.609408 0.000006 -0.000007 -0.000002 0.001636 -0.427491
    10 0.993191 -0.000008 0.000002 0.001475 0.002258 -0.454029
    11 3.786031 0.203224 0.243937 -0.056918 -0.105345 -1.041038
    12 1.684422 -0.000010 0.000009 0.000002 -0.002228 -0.253239
    13 1.252153 -0.000004 0.000003 0.000000 0.000011 -0.532266
    14 3.594223 0.299551 1.109803 -0.059995 -0.102302 -0.795974
    15 1.719433 0.000002 -0.000004 -0.000004 0.000016 -0.358461
    16 1.005923 -0.000006 0.000003 0.000005 0.000018 -0.408637
    17 0.298214 -0.634094 0.426700 -1.739136 -1.170768 0.106903
    18 2.633557 0.000002 -0.000006 0.073224 0.042811 0.101114
    19 1.308564 -0.000001 -0.000002 -0.000346 -0.010715 0.213236
    20 2.033356 1.000772 -1.937610 -0.128225 0.173059 4.244766
    21 6.028141 0.000000 -0.000002 -0.824244 1.055049 -2.550590
    22 11.692554 0.000000 -0.000003 0.028869 -0.033030 -1.111034
    23 11.481705 -0.000001 -0.000004 -0.637950 0.012211 0.286692
    24 2.914335 -0.023166 1.400147 -0.075472 -0.048637 -0.941149
    25 1.284180 -0.000002 0.000001 0.000007 0.095136 -0.604948
    26 0.841797 -0.000002 0.000000 -0.078526 0.054444 -1.209530
    27 3.368063 0.007379 0.622456 0.035972 -0.077320 -1.016278
    28 1.605513 0.000000 0.000001 0.000003 0.122000 -1.086879
    29 1.020536 0.000002 -0.000003 0.015295 -0.014044 -1.343759
    30 3.551622 0.023919 -0.200566 0.012608 -0.103497 -0.905355
    31 1.666992 0.000000 0.000000 -0.000007 0.157404 -1.208297
    32 1.236531 0.000004 0.000006 0.000002 -0.000011 -1.483435
    33 3.445761 0.054213 -1.089087 0.062096 0.148073 -0.235441
    34 1.711618 0.000004 0.000013 0.000003 -0.028507 -0.767477
    35 0.999023 -0.000002 0.000000 0.005618 -0.013549 -0.593093
    36 0.075535 -0.738746 -0.755817 1.293541 0.406469 -0.475804
    37 2.508557 -0.000006 -0.000010 -0.000002 -0.000001 0.359159
    38 1.324190 0.050782 -0.113292 0.025651 0.040518 0.530179
    39 -8.744252 -21.525734 -13.380771 1.412999 -0.095681 -3.124549
    40 -0.000002 3.287109 -0.573233 0.000000 0.000000 0.000000
    41 -0.000002 2.156256 -2.244137 0.000000 0.000000 0.000000
    42 -0.000003 2.917979 -4.039055 0.000000 0.000000 0.000000
    43 -0.097351 5.335948 -3.376940 0.000000 0.000000 0.000000
    44 -5.815069 27.963417 -8.904310 1.570757 0.000000 -4.712382
  time 26
    0 0.730491 -3.289169 -8.840114 -1.502209 -1.135460 -1.624630
    1 2.033348 1.000767 1.937660 3.099074 -0.162003 1.680074
    2 6.028145 0.000003 0.000002 -2.389530 -0.386383 0.144959
    3 11.692553 0.000081 -0.000005 -0.123756 0.112523 -0.710836
    4 11.481672 -0.000089 -0.000024 -0.322129 0.247280 -0.307349
    5 3.281557 0.002119 -1.379481 0.050444 -0.194205 -0.890926
    6 1.324282 -0.000008 0.000005 0.000000 -0.081582 -0.763824
    7 0.819336 -0.000002 0.000004 0.000000 0.000000 -0.523588
    8 3.711854 0.109255 -0.568167 -0.025247 -0.151785 -1.151795
    9 1.605501 0.000006 -0.000007 -0.000002 0.002439 -0.427491
    10 0.993191 -0.000008 0.000002 0.001475 0.002258 -0.454029
    11 3.786031 0.203224 0.247844 -0.043388 -0.108677 -1.152267
    12 1.684422 -0.000010 0.000009 0.000002 -0.002408 -0.253198
    13 1.252153 -0.000004 0.000003 0.000000 0.000011 -0.532266
    14 3.594223 0.299551 1.113710 -0.049358 -0.108175 -0.897568
    15 1.719433 0.000002 -0.000004 -0.000004 0.000016 -0.373750
    16 1.005923 -0.000006 0.000003 0.000005 0.000018 -0.415054
    17 0.298214 -0.630188 0.430606 -1.712415 -1.270765 0.136090
    18 2.633557 0.000002 -0.000006 0.116284 0.053051 0.100462
    19 1.308564 -0.000001 -0.000002 -0.001029 -0.018589 0.169580
    20 2.033356 1.000772 -1.937610 -0.128225 0.173059 4.244806
    21 6.028141 0.000000 -0.000002 -0.835876 1.025568 -2.563768
    22 11.692554 0.000000 -0.000003 0.029264 -0.040688 -1.069752
    23 11.481705 -0.000001 -0.000004 -0.608204 0.009170 0.269025
    24 2.910429 -0.023166 1.400147 -0.075720 -0.048529 -0.941533
    25 1.284180 -0.000002 0.000001 0.000007 0.095136 -0.604948
    26 0.841797 -0.000002 0.000000 -0.078526 0.054444 -1.209530
    27 3.368063 0.007379 0.622456 0.035720 -0.077225 -1.016664
    28 1.605513 0.000000 0.000001 0.000003 0.122000 -1.086905
    29 1.020536 0.000002 -0.000003 0.015295 -0.014044 -1.343759
    30 3.551622 0.027825 -0.200566 0.012381 -0.103365 -0.905726
    31 1.666992 0.000000 0.000000 -0.000007 0.157404 -1.208297
    32 1.236531 0.000004 0.000006 0.000002 -0.000011 -1.483435
    33 3.445761 0.054213 -1.085181 0.061981 0.148317 -0.235849
    34 1.711618 0.000004 0.000013 0.000003 -0.028519 -0.767477
    35 0.999023 -0.000002 0.000000 0.005618 -0.013549 -0.593093
    36 0.075535 -0.734839 -0.755817 1.293349 0.406685 -0.476283
    37 2.508557 -0.000006 -0.000010 -0.000002 -0.000001 0.359159
    38 1.328096 0.050782 -0.113292 0.025663 0.040518 0.530179
    39 -8.478619 -21.572610 -12.990134 1.432241 -0.065301 -3.119736
    40 -0.000002 3.287109 -0.573233 0.000000 0.000000 0.000000
    41 -0.000002 2.156256 -2.244137 0.000000 0.000000 0.000000
    42 -0.000003 2.917979 -4.039055 0.000000 0.000000 0.000000
    43 -0.097351 5.335948 -3.376940 0.000000 0.000000 0.000000
    44 -5.815069 27.963417 -8.904310 1.570757 0.000000 -4.712382
  time 27
    0 0.820338 -3.015723 -8.793237 -1.522937 -1.162493 -1.608714
    1 2.033348 1.000767 1.937660 3.099074 -0.162003 1.680074
    2 6.028145 0.000003 0.000002 -2.408609 -0.415770 0.184171
    3 11.692553 0.000081 -0.000005 -0.114636 0.101042 -0.625360
    4 11.481672 -0.000089 -0.000024 -0.257209 0.258323 -0.243609
    5 3.281557 0.002119 -1.383388 0.064245 -0.197777 -1.030958
    6 1.324282 -0.000008 0.000005 0.000000 -0.071323 -0.787095
    7 0.819336 -0.000002 0.000004 0.000000 0.000000 -0.523588
    8 3.711854 0.109255 -0.572073 -0.019374 -0.183400 -1.234890
    9 1.609408 0.000006 -0.000007 -0.000422 0.003002 -0.514393
    10 0.993191 -0.000008 0.000002 0.001475 0.002258 -0.454029
    11 3.786031 0.203224 0.243937 -0.043136 -0.159480 -1.126268
    12 1.684422 -0.000010 0.000009 0.000733 -0.002300 -0.484738
    13 1.252153 -0.000004 0.000003 0.000000 0.000011 -0.391597
    14 3.594223 0.299551 1.109803 -0.065483 -0.169093 -0.742148
    15 1.719433 0.000002 -0.000004 -0.000004 0.000016 -0.543446
    16 1.005923 -0.000006 0.000003 0.000005 0.000018 -0.343461
    17 0.298214 -0.634094 0.426700 -1.642996 -1.262973 0.118335
    18 2.633557 0.000002 -0.000006 0.159105 0.063310 0.099640
    19 1.308564 -0.000001 -0.000002 -0.001664 -0.026307 0.125526
    20 2.033356 1.000772 -1.937610 -0.128225 0.173059 4.244766
    21 6.028141 0.000000 -0.000002 -0.841692 0.997041 -2.568034
    22 11.692554 0.000000 -0.000003 0.028761 -0.046285 -1.023618
    23 11.481705 -0.000001 -0.000004 -0.590887 0.027827 0.242209
    24 2.914335 -0.027073 1.396241 -0.075472 -0.048649 -0.941149
    25 1.284180 -0.000002 0.000001 0.000007 0.095136 -0.604948
    26 0.841797 -0.000002 0.000000 -0.078526 0.054444 -1.209530
    27 3.364156 0.003473 0.622456 0.035972 -0.077320 -1.016278
    28 1.605513 0.000000 0.000001 0.000003 0.122000 -1.086879
    29 1.020536 0.000002 -0.000003 0.015295 -0.014044 -1.343759
    30 3.551622 0.023919 -0.204473 0.012608 -0.103497 -0.905355
    31 1.666992 0.000000 0.000000 -0.000007 0.157404 -1.208297
    32 1.236531 0.000004 0.000006 0.000002 -0.000011 -1.483435
    33 3.449668 0.050307 -1.089087 0.062096 0.148073 -0.235441
    34 1.711618 0.000004 0.000013 0.000003 -0.028519 -0.767477
    35 0.999023 -0.000002 0.000000 0.005618 -0.013549 -0.593093
    36 0.075535 -0.738746 -0.759724 1.293541 0.406469 -0.475804
    37 2.508557 -0.000006 -0.000010 -0.000002 -0.000001 0.359159
    38 1.328096 0.050782 -0.113292 0.025663 0.040518 0.530179
    39 -8.341896 -21.627300 -12.701062 1.463749 -0.048299 -3.123853
    40 -0.000002 3.287109 -0.573233 0.000000 0.000000 0.000000
    41 -0.000002 2.156256 -2.244137 0.000000 0.000000 0.000000
    42 -0.000003 2.917979 -4.039055 0.000000 0.000000 0.000000
    43 -0.097351 5.335948 -3.376940 0.000000 0.000000 0.000000
    44 -5.815069 27.963417 -8.904310 1.570757 0.000000 -4.712382
  time 28
    0 0.894559 -2.789154 -8.758080 -1.541646 -1.185154 -1.594093
    1 2.033348 1.000767 1.937660 3.099074 -0.162003 1.680074
    2 6.028145 0.000003 0.000002 -2.434634 -0.447233 0.235023
    3 11.692553 0.000081 -0.000005 -0.106103 0.088530 -0.535739
    4 11.481672 -0.000089 -0.000024 -0.182843 0.272723 -0.164554
    5 3.281557 0.002119 -1.379481 0.078098 -0.199886 -1.188767
    6 1.324282 -0.000008 0.000005 0.000000 -0.059267 -0.813372
    7 0.819336 -0.000002 0.000004 0.000000 0.000000 -0.523588
    8 3.711854 0.105348 -0.568167 -0.014137 -0.222134 -1.324138
    9 1.609408 0.000006 -0.000007 -0.000985 0.003637 -0.622122
    10 0.993191 -0.000008 0.000002 0.001475 0.002258 -0.454029
    11 3.786031 0.203224 0.243937 -0.044766 -0.222782 -1.079491
    12 1.684422 -0.000010 0.000009 0.001704 -0.002156 -0.772090
    13 1.252153 -0.000004 0.000003 0.000000 0.000011 -0.217174
    14 3.594223 0.299551 1.113710 -0.085469 -0.241024 -0.533945
    15 1.719433 0.000002 -0.000004 -0.000004 0.000016 -0.752138
    16 1.005923 -0.000006 0.000003 0.000005 0.000018 -0.253844
    17 0.298214 -0.634094 0.430606 -1.569197 -1.200939 0.088584
    18 2.633557 0.000002 -0.000006 0.198331 0.072754 0.098771
    19 1.308564 -0.000001 -0.000002 -0.002227 -0.033282 0.084815
    20 2.033356 1.000772 -1.937610 -0.128225 0.173059 4.244766
    21 6.028141 0.000000 -0.000002 -0.847412 0.971738 -2.572584
    22 11.692554 0.000000 -0.000003 0.028018 -0.050096 -0.986478
    23 11.481705 -0.000001 -0.000004 -0.572062 0.052596 0.220357
    24 2.914335 -0.023166 1.400147 -0.075472 -0.048649 -0.941149
    25 1.284180 -0.000002 0.000001 0.000007 0.095136 -0.604948
    26 0.841797 -0.000002 0.000000 -0.078526 0.054444 -1.209530
    27 3.368063 0.007379 0.622456 0.035972 -0.077332 -1.016278
    28 1.605513 0.000000 0.000001 0.000003 0.122000 -1.086905
    29 1.020536 0.000002 -0.000003 0.015295 -0.014044 -1.343759
    30 3.551622 0.023919 -0.200566 0.012608 -0.103497 -0.905355
    31 1.666992 0.000000 0.000000 -0.000007 0.157404 -1.208297
    32 1.236531 0.000004 0.000006 0.000002 -0.000011 -1.483435
    33 3.445761 0.054213 -1.085181 0.062096 0.148073 -0.235441
    34 1.711618 0.000004 0.000013 0.000003 -0.028519 -0.767477
    35 0.999023 -0.000002 0.000000 0.005618 -0.013549 -0.593093
    36 0.075535 -0.734839 -0.759724 1.293529 0.406469 -0.475804
    37 2.508557 -0.000006 -0.000010 -0.000002 -0.000001 0.359159
    38 1.328096 0.050782 -0.113292 0.025663 0.040518 0.530179
    39 -8.209080 -21.678082 -12.388553 1.500324 -0.030796 -3.129536
    40 -0.000002 3.287109 -0.573233 0.000000 0.000000 0.000000
    41 -0.000002 2.156256 -2.244137 0.000000 0.000000 0.000000
    42 -0.000003 2.917979 -4.039055 0.000000 0.000000 0.000000
    43 -0.097351 5.335948 -3.376940 0.000000 0.000000 0.000000
    44 -5.815069 27.963417 -8.904310 1.570757 0.000000 -4.712382
  time 29
    0 0.949248 -2.613367 -8.734642 -1.556910 -1.202429 -1.582013
    1 2.033348 1.000767 1.937660 3.099074 -0.161934 1.680074
    2 6.028145 0.000003 0.000002 -2.460340 -0.471450 0.283203
    3 11.692553 0.000081 -0.000005 -0.100278 0.077444 -0.464573
    4 11.481672 -0.000089 -0.000024 -0.115749 0.289659 -0.083063
    5 3.281557 0.002119 -1.379481 0.089870 -0.200114 -1.336969
    6 1.324282 -0.000008 0.000005 0.000000 -0.047726 -0.837982
    7 0.819336 -0.000002 0.000004 0.000000 0.000000 -0.523588
    8 3.711854 0.109255 -0.568167 -0.009187 -0.259310 -1.406851
    9 1.605501 0.000006 -0.000007 -0.001524 0.004225 -0.727707
    10 0.993191 -0.000008 0.000002 0.001475 0.002258 -0.454029
    11 3.786031 0.203224 0.243937 -0.046935 -0.284743 -1.027593
    12 1.684422 -0.000010 0.000009 0.002627 -0.002000 -1.053595
    13 1.252153 -0.000004 0.000003 0.000000 0.000011 -0.046361
    14 3.594223 0.299551 1.113710 -0.103036 -0.308042 -0.323056
    15 1.719433 0.000002 -0.000004 -0.000004 0.000016 -0.955732
    16 1.005923 -0.000006 0.000003 0.000005 0.000018 -0.165866
    17 0.298214 -0.634094 0.430606 -1.511266 -1.117064 0.064676
    18 2.633557 0.000002 -0.000006 0.230533 0.080525 0.097997
    19 1.308564 -0.000001 -0.000002 -0.002695 -0.038963 0.051137
    20 2.033356 1.000772 -1.937610 -0.128225 0.173059 4.244766
    21 6.028141 0.000000 -0.000002 -0.852179 0.952163 -2.576187
    22 11.692554 0.000000 -0.000003 0.027251 -0.052169 -0.959432
    23 11.481705 -0.000001 -0.000004 -0.554624 0.077512 0.203875
    24 2.914335 -0.023166 1.400147 -0.075455 -0.048649 -0.941149
    25 1.284180 -0.000002 0.000001 0.000007 0.095136 -0.604948
    26 0.841797 -0.000002 0.000000 -0.078526 0.054444 -1.209530
    27 3.368063 0.007379 0.622456 0.035972 -0.077320 -1.016278
    28 1.605513 0.000000 0.000001 0.000003 0.122000 -1.086905
    29 1.020536 0.000002 -0.000003 0.015295 -0.014044 -1.343759
    30 3.551622 0.023919 -0.200566 0.012608 -0.103497 -0.905355
    31 1.666992 0.000000 0.000000 -0.000007 0.157404 -1.208297
    32 1.236531 0.000004 0.000006 0.000002 -0.000011 -1.483435
    33 3.449668 0.054213 -1.089087 0.062096 0.148073 -0.235441
    34 1.711618 0.000004 0.000013 0.000003 -0.028519 -0.767477
    35 0.999023 -0.000002 0.000000 0.005618 -0.013549 -0.593093
    36 0.075535 -0.738746 -0.759724 1.293541 0.406469 -0.475804
    37 2.508557 -0.000006 -0.000010 -0.000002 -0.000001 0.359159
    38 1.328096 0.050782 -0.113292 0.025663 0.040518 0.530179
    39 -8.084076 -21.728865 -12.107294 1.534990 -0.015294 -3.135277
    40 -0.000002 3.287109 -0.573233 0.000000 0.000000 0.000000
    41 -0.000002 2.156256 -2.244137 0.000000 0.000000 0.000000
    42 -0.000003 2.917979 -4.039055 0.000000 0.000000 0.000000
    43 -0.097351 5.335948 -3.376940 0.000000 0.000000 0.000000
    44 -5.815069 27.963417 -8.904310 1.570757 0.000000 -4.712382
  time 30
    0 0.984405 -2.496176 -8.719016 -1.567149 -1.213488 -1.573815
    1 2.033348 1.000767 1.937660 3.099074 -0.162003 1.680074
    2 6.028145 0.000003 0.000002 -2.479500 -0.487080 0.318408
    3 11.692553 0.000081 -0.000005 -0.096874 0.070290 -0.418590
    4 11.481672 -0.000089 -0.000024 -0.068295 0.302966 -0.019552
    5 3.281557 0.002119 -1.379481 0.097100 -0.198628 -1.446569
    6 1.324282 -0.000008 0.000005 0.000000 -0.039085 -0.856224
    7 0.819336 -0.000002 0.000004 0.000000 0.000000 -0.523588
    8 3.711854 0.105348 -0.572073 -0.006083 -0.286468 -1.467525
    9 1.609408 0.000006 -0.000007 -0.001932 0.004632 -0.807926
    10 0.993191 -0.000008 0.000002 0.001475 0.002258 -0.454029
    11 3.786031 0.203224 0.243937 -0.049248 -0.330979 -0.984846
    12 1.684422 -0.000010 0.000009 0.003334 -0.001880 -1.267596
    13 1.252153 -0.000004 0.000003 0.000000 0.000011 0.083577
    14 3.594223 0.299551 1.109803 -0.114199 -0.356328 -0.159552
    15 1.719433 0.000002 -0.000004 -0.000004 0.000016 -1.110227
    16 1.005923 -0.000006 0.000003 0.000005 0.000018 -0.098688
    17 0.298214 -0.634094 0.426700 -1.473694 -1.042674 0.049913
    18 2.633557 0.000002 -0.000006 0.252345 0.085807 0.097442
    19 1.308564 -0.000001 -0.000002 -0.002994 -0.042786 0.028181
    20 2.033356 1.000772 -1.937610 -0.128225 0.173059 4.244766
    21 6.028141 0.000000 -0.000002 -0.856851 0.938835 -2.579410
    22 11.692554 0.000000 -0.000003 0.026496 -0.052517 -0.941120
    23 11.481705 -0.000001 -0.000004 -0.541471 0.096695 0.192837
    24 2.914335 -0.023166 1.400147 -0.075472 -0.048649 -0.941149
    25 1.284180 -0.000002 0.000001 0.000007 0.095136 -0.604948
    26 0.841797 -0.000002 0.000000 -0.078526 0.054444 -1.209530
    27 3.368063 0.007379 0.618550 0.035972 -0.077320 -1.016278
    28 1.605513 0.000000 0.000001 0.000003 0.122000 -1.086879
    29 1.020536 0.000002 -0.000003 0.015295 -0.014044 -1.343759
    30 3.551622 0.023919 -0.204473 0.012608 -0.103497 -0.905355
    31 1.666992 0.000000 0.000000 -0.000007 0.157404 -1.208297
    32 1.240438 0.000004 0.000006 0.000002 -0.000011 -1.483474
    33 3.449668 0.054213 -1.089087 0.062096 0.148073 -0.235441
    34 1.711618 0.000004 0.000013 0.000003 -0.028519 -0.767477
    35 0.999023 -0.000002 0.000000 0.005618 -0.013549 -0.593093
    36 0.075535 -0.738746 -0.759724 1.293529 0.406469 -0.475804
    37 2.508557 -0.000006 -0.000010 -0.000002 -0.000001 0.359159
    38 1.324190 0.050782 -0.113292 0.025663 0.040518 0.530179
    39 -7.998136 -21.767929 -11.896350 1.560769 -0.004209 -3.139800
    40 -0.000002 3.287109 -0.573233 0.000000 0.000000 0.000000
    41 -0.000002 2.156256 -2.244137 0.000000 0.000000 0.000000
    42 -0.000003 2.917979 -4.039055 0.000000 0.000000 0.000000
    43 -0.097351 5.335948 -3.376940 0.000000 0.000000 0.000000
    44 -5.815069 27.963417 -8.904310 1.570757 0.000000 -4.712382
  time 31
    0 0.996124 -2.461019 -8.715110 -1.570797 -1.217392 -1.570843
    1 2.033348 1.000767 1.937660 3.099074 -0.162003 1.680074
    2 6.028145 0.000003 0.000002 -2.486685 -0.491638 0.331383
    3 11.692553 0.000081 -0.000005 -0.095892 0.068025 -0.404357
    4 11.481672 -0.000089 -0.000024 -0.049929 0.308663 0.006753
    5 3.281557 0.002119 -1.383388 0.099700 -0.198220 -1.489132
    6 1.324282 -0.000008 0.000005 0.000000 -0.035657 -0.863336
    7 0.819336 -0.000002 0.000004 0.000000 0.000000 -0.523588
    8 3.711854 0.109255 -0.568167 -0.004825 -0.297517 -1.490876
    9 1.609408 0.000006 -0.000007 -0.002087 0.004812 -0.839808
    10 0.993191 -0.000008 0.000002 0.001475 0.002258 -0.454029
    11 3.786031 0.203224 0.243937 -0.050387 -0.349663 -0.966842
    12 1.684422 -0.000010 0.000009 0.003609 -0.001833 -1.352641
    13 1.252153 -0.000004 0.000003 0.000000 0.000011 0.135231
    14 3.594223 0.299551 1.109803 -0.118432 -0.375299 -0.093640
    15 1.719433 0.000002 -0.000004 -0.000004 0.000016 -1.171500
    16 1.005923 -0.000006 0.000003 0.000005 0.000018 -0.072017
    17 0.298214 -0.634094 0.430606 -1.461079 -1.010830 0.045848
    18 2.633557 0.000002 -0.000006 0.260363 0.087765 0.097200
    19 1.308564 -0.000001 -0.000002 -0.003102 -0.044188 0.019715
    20 2.033356 1.000772 -1.937610 -0.128225 0.173059 4.244766
    21 6.028141 0.000000 -0.000002 -0.858663 0.934180 -2.580169
    22 11.692554 0.000000 -0.000003 0.026196 -0.052301 -0.935426
    23 11.481705 -0.000001 -0.000004 -0.536101 0.104591 0.189430
    24 2.914335 -0.023166 1.400147 -0.075472 -0.048637 -0.941149
    25 1.284180 -0.000002 0.000001 0.000007 0.095136 -0.604948
    26 0.841797 -0.000002 0.000000 -0.078526 0.054444 -1.209530
    27 3.368063 0.007379 0.618550 0.035972 -0.077320 -1.016278
    28 1.605513 0.000000 0.000001 0.000003 0.122000 -1.086905
    29 1.020536 0.000002 -0.000003 0.015295 -0.014044 -1.343759
    30 3.551622 0.023919 -0.204473 0.012608 -0.103497 -0.905355
    31 1.666992 0.000000 0.000000 -0.000007 0.157404 -1.208297
    32 1.236531 0.000004 0.000006 0.000002 -0.000011 -1.483435
    33 3.449668 0.054213 -1.089087 0.062096 0.148073 -0.235441
    34 1.711618 0.000004 0.000013 0.000003 -0.028507 -0.767477
    35 0.999023 -0.000002 0.000000 0.005618 -0.013549 -0.593093
    36 0.075535 -0.734839 -0.759724 1.293529 0.406469 -0.475804
    37 2.508557 -0.000006 -0.000010 -0.000002 -0.000001 0.359159
    38 1.324190 0.050782 -0.113292 0.025663 0.040518 0.530179
    39 -7.966885 -21.775742 -11.822129 1.570757 0.000000 -3.141597
    40 -0.000002 3.287109 -0.573233 0.000000 0.000000 0.000000
    41 -0.000002 2.156256 -2.244137 0.000000 0.000000 0.000000
    42 -0.000003 2.917979 -4.039055 0.000000 0.000000 0.000000
    43 -0.097351 5.335948 -3.376940 0.000000 0.000000 0.000000
    44 -5.815069 27.963417 -8.904310 1.570757 0.000000 -4.712382
end
