// Created by Crowbar++ 0.74
version 1
nodes
  0 "ValveBiped.Bip01_Spine4" -1
  1 "ValveBiped.Bip01_L_Clavicle" 0
  2 "ValveBiped.Bip01_L_UpperArm" 1
  3 "ValveBiped.Bip01_L_Forearm" 2
  4 "ValveBiped.Bip01_L_Hand" 3
  5 "ValveBiped.Bip01_L_Finger4" 4
  6 "ValveBiped.Bip01_L_Finger41" 5
  7 "ValveBiped.Bip01_L_Finger42" 6
  8 "ValveBiped.Bip01_L_Finger3" 4
  9 "ValveBiped.Bip01_L_Finger31" 8
  10 "ValveBiped.Bip01_L_Finger32" 9
  11 "ValveBiped.Bip01_L_Finger2" 4
  12 "ValveBiped.Bip01_L_Finger21" 11
  13 "ValveBiped.Bip01_L_Finger22" 12
  14 "ValveBiped.Bip01_L_Finger1" 4
  15 "ValveBiped.Bip01_L_Finger11" 14
  16 "ValveBiped.Bip01_L_Finger12" 15
  17 "ValveBiped.Bip01_L_Finger0" 4
  18 "ValveBiped.Bip01_L_Finger01" 17
  19 "ValveBiped.Bip01_L_Finger02" 18
  20 "ValveBiped.Bip01_R_Clavicle" 0
  21 "ValveBiped.Bip01_R_UpperArm" 20
  22 "ValveBiped.Bip01_R_Forearm" 21
  23 "ValveBiped.Bip01_R_Hand" 22
  24 "ValveBiped.Bip01_R_Finger4" 23
  25 "ValveBiped.Bip01_R_Finger41" 24
  26 "ValveBiped.Bip01_R_Finger42" 25
  27 "ValveBiped.Bip01_R_Finger3" 23
  28 "ValveBiped.Bip01_R_Finger31" 27
  29 "ValveBiped.Bip01_R_Finger32" 28
  30 "ValveBiped.Bip01_R_Finger2" 23
  31 "ValveBiped.Bip01_R_Finger21" 30
  32 "ValveBiped.Bip01_R_Finger22" 31
  33 "ValveBiped.Bip01_R_Finger1" 23
  34 "ValveBiped.Bip01_R_Finger11" 33
  35 "ValveBiped.Bip01_R_Finger12" 34
  36 "ValveBiped.Bip01_R_Finger0" 23
  37 "ValveBiped.Bip01_R_Finger01" 36
  38 "ValveBiped.Bip01_R_Finger02" 37
  39 "v_weapon.sg552_Parent" -1
  40 "v_weapon.sg552_Trigger" 39
  41 "v_weapon.sg552_Release" 39
  42 "v_weapon.sg552_Clip" 39
  43 "v_weapon.sg552_Chamber" 39
  44 "v_weapon.sg552_Clip2" -1
end
skeleton
  time 0
    0 1.000000 -2.460938 -8.710938 -1.570783 -1.217361 -1.570804
    1 2.033348 1.000767 1.937660 3.099206 -0.162014 1.679995
    2 6.028145 0.000003 0.000002 -2.486685 -0.491638 0.331383
    3 11.692553 0.000081 -0.000005 -0.095892 0.068025 -0.404357
    4 11.481672 -0.000089 -0.000024 -0.049929 0.308663 0.006753
    5 3.281557 0.002119 -1.379481 0.099718 -0.198220 -1.489132
    6 1.324282 -0.000008 0.000005 0.000000 -0.035657 -0.863336
    7 0.819336 -0.000001 -0.000002 0.000000 0.000000 -0.523588
    8 3.711854 0.109255 -0.568167 -0.004825 -0.297517 -1.490876
    9 1.609408 0.000006 -0.000007 -0.002087 0.004812 -0.839808
    10 0.993191 -0.000008 0.000002 0.001475 0.002258 -0.454029
    11 3.786031 0.203224 0.243937 -0.050387 -0.349663 -0.966842
    12 1.680664 -0.000008 -0.000002 0.003628 -0.001845 -1.352714
    13 1.255859 0.000004 0.000000 0.000000 0.000000 0.135256
    14 3.594223 0.299551 1.113710 -0.118448 -0.375299 -0.093640
    15 1.719433 0.000002 -0.000004 -0.000004 0.000016 -1.171500
    16 1.002930 0.000000 0.000000 0.000000 0.000000 -0.071985
    17 0.298214 -0.634094 0.426700 -1.461079 -1.010830 0.045848
    18 2.633557 0.000002 -0.000006 0.260363 0.087765 0.097200
    19 1.308564 -0.000001 -0.000002 -0.003102 -0.044188 0.019715
    20 2.033356 1.000772 -1.937610 -0.128177 0.172990 -2.038336
    21 6.028141 0.000000 -0.000002 -0.849796 0.928173 -2.567275
    22 11.692554 0.000000 -0.000003 0.017388 -0.035403 -0.936009
    23 11.481705 -0.000001 -0.000004 -0.536161 0.094502 0.189948
    24 2.914335 -0.023166 1.400147 -0.075472 -0.048637 -0.941149
    25 1.285220 -0.000004 -0.000002 0.000002 0.103404 -0.651571
    26 0.838745 -0.000004 0.000000 -0.151749 0.050986 -1.774228
    27 3.368063 0.007379 0.622456 0.035972 -0.077320 -1.016278
    28 1.605513 0.000000 0.000001 0.000003 0.122000 -1.086905
    29 1.016602 -0.000004 0.000000 0.015303 -0.014053 -1.343777
    30 3.551622 0.023919 -0.204473 0.012608 -0.103497 -0.905355
    31 1.666992 0.000000 -0.000001 -0.000008 0.157406 -1.208297
    32 1.236531 0.000004 0.000006 0.000002 -0.000011 -1.483435
    33 3.449668 0.054213 -1.089087 0.060556 0.148343 -0.256606
    34 1.711618 0.000004 0.000013 0.000003 -0.045717 -1.228296
    35 1.005912 0.000000 0.000007 0.009867 -0.019480 -0.744829
    36 0.075535 -0.738746 -0.759724 1.318769 0.360556 -0.448671
    37 2.508557 -0.000006 -0.000010 -0.000002 -0.000001 0.359159
    38 1.296845 0.285164 -0.113292 0.026718 0.040506 0.717846
    39 -7.966885 -21.775742 -11.822129 1.570757 0.000000 -3.141597
    40 -0.000002 3.287109 -0.573233 -0.376954 0.000000 0.000000
    41 -0.000002 2.156256 -2.244137 0.000000 0.000000 0.000000
    42 -0.000003 2.917979 -4.039055 0.000000 0.000000 0.000000
    43 -0.097351 5.335948 -3.376940 0.000000 0.000000 0.000000
    44 -5.815069 27.963417 -8.904310 1.570757 0.000000 -4.712382
  time 1
    0 1.000000 -2.460938 -8.710938 -1.570783 -1.217361 -1.570804
    1 2.033348 1.000767 1.937660 3.099206 -0.162014 1.679995
    2 6.028145 0.000003 0.000002 -2.486685 -0.491638 0.331383
    3 11.692553 0.000081 -0.000005 -0.095892 0.068025 -0.404357
    4 11.481672 -0.000089 -0.000024 -0.049929 0.308663 0.006753
    5 3.281557 0.002119 -1.379481 0.099718 -0.198220 -1.489132
    6 1.324282 -0.000008 0.000005 0.000000 -0.035657 -0.863336
    7 0.819336 -0.000001 -0.000002 0.000000 0.000000 -0.523588
    8 3.711854 0.109255 -0.568167 -0.004825 -0.297517 -1.490876
    9 1.609408 0.000006 -0.000007 -0.002087 0.004812 -0.839808
    10 0.993191 -0.000008 0.000002 0.001475 0.002258 -0.454029
    11 3.786031 0.203224 0.243937 -0.050387 -0.349663 -0.966842
    12 1.680664 -0.000008 -0.000002 0.003628 -0.001845 -1.352714
    13 1.255859 0.000004 0.000000 0.000000 0.000000 0.135256
    14 3.594223 0.299551 1.113710 -0.118448 -0.375299 -0.093640
    15 1.719433 0.000002 -0.000004 -0.000004 0.000016 -1.171500
    16 1.002930 0.000000 0.000000 0.000000 0.000000 -0.071985
    17 0.298214 -0.634094 0.426700 -1.461079 -1.010830 0.045848
    18 2.633557 0.000002 -0.000006 0.260363 0.087765 0.097200
    19 1.308564 -0.000001 -0.000002 -0.003102 -0.044188 0.019715
    20 2.033356 1.000772 -1.937610 -0.128177 0.172990 -2.038336
    21 6.028141 0.000000 -0.000002 -0.849796 0.928173 -2.567275
    22 11.692554 0.000000 -0.000003 0.017388 -0.035403 -0.936009
    23 11.481705 -0.000001 -0.000004 -0.536161 0.094502 0.189948
    24 2.914335 -0.023166 1.400147 -0.075472 -0.048637 -0.941149
    25 1.285220 -0.000004 -0.000002 0.000002 0.103404 -0.651571
    26 0.838745 -0.000004 0.000000 -0.151749 0.050986 -1.774228
    27 3.368063 0.007379 0.622456 0.035972 -0.077320 -1.016278
    28 1.605513 0.000000 0.000001 0.000003 0.122000 -1.086905
    29 1.016602 -0.000004 0.000000 0.015303 -0.014053 -1.343777
    30 3.551622 0.023919 -0.204473 0.012608 -0.103497 -0.905355
    31 1.666992 0.000000 -0.000001 -0.000008 0.157406 -1.208297
    32 1.236531 0.000004 0.000006 0.000002 -0.000011 -1.483435
    33 3.449668 0.054213 -1.089087 0.060556 0.148343 -0.256606
    34 1.711618 0.000004 0.000013 0.000003 -0.045717 -1.228296
    35 1.005912 0.000000 0.000007 0.009867 -0.019480 -0.744829
    36 0.075535 -0.738746 -0.759724 1.318769 0.360556 -0.448671
    37 2.508557 -0.000006 -0.000010 -0.000002 -0.000001 0.359159
    38 1.296845 0.285164 -0.113292 0.026718 0.040506 0.717846
    39 -7.966885 -21.775742 -11.822129 1.570757 0.000000 -3.141597
    40 -0.000002 3.287109 -0.573233 -0.376954 0.000000 0.000000
    41 -0.000002 2.156256 -2.244137 0.000000 0.000000 0.000000
    42 -0.000003 2.917979 -4.039055 0.000000 0.000000 0.000000
    43 -0.097351 5.335948 -3.376940 0.000000 0.000000 0.000000
    44 -5.815069 27.963417 -8.904310 1.570757 0.000000 -4.712382
  time 2
    0 1.000000 -2.460938 -8.710938 -1.570783 -1.217361 -1.570804
    1 2.033348 1.000767 1.937660 3.099206 -0.162014 1.679995
    2 6.028145 0.000003 0.000002 -2.473353 -0.432458 0.293411
    3 11.692553 0.000081 -0.000005 -0.110477 0.095050 -0.582895
    4 11.481672 -0.000089 -0.000024 -0.003675 0.300664 0.172404
    5 3.281557 0.002119 -1.383388 0.099700 -0.198220 -1.489132
    6 1.324282 -0.000008 0.000005 0.000000 -0.035669 -0.863336
    7 0.819336 -0.000001 -0.000002 0.000000 0.000000 -0.523588
    8 3.711854 0.109255 -0.568167 -0.004825 -0.297517 -1.490876
    9 1.609408 0.000006 -0.000007 -0.002087 0.004800 -0.839808
    10 0.993191 -0.000008 0.000002 0.001475 0.002258 -0.454029
    11 3.786031 0.203224 0.243937 -0.050387 -0.349663 -0.966842
    12 1.680664 -0.000008 -0.000002 0.003628 -0.001845 -1.352714
    13 1.255859 0.000004 0.000000 0.000000 0.000000 0.135256
    14 3.594223 0.299551 1.109803 -0.118448 -0.375299 -0.093640
    15 1.719433 0.000002 -0.000004 -0.000004 0.000016 -1.171500
    16 1.002930 0.000000 0.000000 0.000000 0.000000 -0.071985
    17 0.298214 -0.634094 0.426700 -1.461079 -1.010830 0.045848
    18 2.637464 0.000002 -0.000006 0.260363 0.087765 0.097200
    19 1.308564 -0.000001 -0.000002 -0.003102 -0.044188 0.019715
    20 2.033356 1.000772 -1.937610 -0.128177 0.172990 -2.038336
    21 6.028141 0.000000 -0.000002 -0.822051 0.977308 -2.532009
    22 11.692554 0.000000 -0.000003 0.022721 -0.039477 -1.042900
    23 11.481705 -0.000001 -0.000004 -0.504424 0.090642 0.238468
    24 2.914335 -0.023166 1.396241 -0.075488 -0.049308 -0.941317
    25 1.285220 -0.000004 -0.000002 0.000002 0.102829 -0.648225
    26 0.838745 -0.000004 0.000000 -0.152180 0.050830 -1.777817
    27 3.368063 0.007379 0.614643 0.036008 -0.077992 -1.016452
    28 1.605513 0.000000 0.000001 0.000003 0.122000 -1.086905
    29 1.016602 -0.000004 0.000000 0.015303 -0.014053 -1.343777
    30 3.555528 0.023919 -0.208379 0.012560 -0.104156 -0.905522
    31 1.666992 0.000000 -0.000001 -0.000008 0.157406 -1.208297
    32 1.240438 0.000004 0.000006 0.000002 -0.000011 -1.483435
    33 3.449668 0.054213 -1.089087 0.060098 0.147829 -0.257146
    34 1.711618 0.000004 0.000013 0.000003 -0.045872 -1.233624
    35 1.005912 0.000000 0.000007 0.009915 -0.019540 -0.746308
    36 0.075535 -0.734839 -0.763630 1.316396 0.363816 -0.451199
    37 2.508557 -0.000006 -0.000010 -0.000002 -0.000001 0.359159
    38 1.296845 0.289070 -0.113292 0.026358 0.039907 0.722100
    39 -7.826255 -21.240569 -11.443211 1.579423 0.019503 -3.134117
    40 -0.000002 3.287109 -0.573233 -0.381595 0.000000 0.000000
    41 -0.000002 2.156256 -2.244137 0.000000 0.000000 0.000000
    42 -0.000003 2.917979 -4.039055 0.000000 0.000000 0.000000
    43 -0.097351 5.335948 -1.302658 0.000000 0.000000 0.000000
    44 -5.815069 27.963417 -8.904310 1.570757 0.000000 -4.712382
  time 3
    0 1.000000 -2.460938 -8.710938 -1.570783 -1.217361 -1.570804
    1 2.033348 1.000767 1.937660 3.099206 -0.162014 1.679995
    2 6.028145 0.000003 0.000002 -2.426092 -0.349711 0.188369
    3 11.692553 0.000081 -0.000005 -0.142584 0.131219 -0.865601
    4 11.481672 -0.000089 -0.000024 0.019940 0.245172 0.350196
    5 3.285463 0.006025 -1.379481 0.099579 -0.197681 -1.489518
    6 1.324282 -0.000008 0.000005 0.000000 -0.035669 -0.863336
    7 0.819336 -0.000001 -0.000002 0.000000 0.000000 -0.523588
    8 3.711854 0.109255 -0.568167 -0.004957 -0.296978 -1.491231
    9 1.609408 0.000006 -0.000007 -0.002087 0.004800 -0.839808
    10 0.993191 -0.000008 0.000002 0.001475 0.002258 -0.454029
    11 3.789937 0.207131 0.243937 -0.050207 -0.349124 -0.967304
    12 1.680664 -0.000008 -0.000002 0.003628 -0.001845 -1.352714
    13 1.255859 0.000004 0.000000 0.000000 0.000000 0.135256
    14 3.594223 0.303457 1.113710 -0.117890 -0.375084 -0.094216
    15 1.719433 0.000002 -0.000004 -0.000004 0.000016 -1.171500
    16 1.002930 0.000000 0.000000 0.000000 0.000000 -0.071985
    17 0.298214 -0.630188 0.430606 -1.460061 -1.010691 0.044578
    18 2.633557 0.000002 -0.000006 0.260363 0.087745 0.097200
    19 1.308564 -0.000001 -0.000002 -0.003102 -0.044188 0.019715
    20 2.033356 1.000772 -1.937610 -0.128177 0.172990 -2.038336
    21 6.028141 0.000000 -0.000002 -0.671887 1.061016 -2.351410
    22 11.692554 0.000000 -0.000003 0.034813 -0.049568 -1.230090
    23 11.481705 -0.000001 -0.000004 -0.495494 0.111902 0.289840
    24 2.914335 -0.023166 1.400147 -0.075472 -0.048637 -0.941149
    25 1.285220 -0.000004 -0.000002 0.000002 0.102242 -0.644879
    26 0.838745 -0.000004 0.000000 -0.153355 0.050422 -1.787032
    27 3.368063 0.007379 0.622456 0.035972 -0.077320 -1.016278
    28 1.605513 0.000000 0.000001 0.000003 0.122000 -1.086905
    29 1.016602 -0.000004 0.000000 0.015303 -0.014053 -1.343777
    30 3.551622 0.023919 -0.200566 0.012608 -0.103497 -0.905355
    31 1.666992 0.000000 -0.000001 -0.000008 0.157406 -1.208297
    32 1.236531 0.000004 0.000006 0.000002 -0.000011 -1.483435
    33 3.449668 0.054213 -1.089087 0.060492 0.148355 -0.257553
    34 1.711618 0.000004 0.000013 0.000003 -0.046220 -1.245341
    35 1.005912 0.000000 0.000007 0.010035 -0.019660 -0.749642
    36 0.075535 -0.738746 -0.755817 1.314718 0.368227 -0.453129
    37 2.508557 -0.000006 -0.000010 -0.000002 -0.000001 0.359159
    38 1.292939 0.292977 -0.113292 0.025951 0.039152 0.729399
    39 -7.791098 -19.916310 -11.720564 1.588384 0.034297 -3.127158
    40 -0.000002 3.287109 -0.573233 -0.392346 0.000000 0.000000
    41 -0.000002 2.156256 -2.244137 0.000000 0.000000 0.000000
    42 -0.000003 2.917979 -4.039055 0.000000 0.000000 0.000000
    43 -0.097351 5.335948 -2.341752 0.000000 0.000000 0.000000
    44 -5.815069 27.963417 -8.904310 1.570757 0.000000 -4.712382
  time 4
    0 1.000000 -2.460938 -8.710938 -1.570783 -1.217361 -1.570804
    1 2.033348 1.000767 1.937660 3.099206 -0.162014 1.679995
    2 6.028145 0.000003 0.000002 -2.444214 -0.365096 0.222715
    3 11.692553 0.000081 -0.000005 -0.132888 0.122279 -0.788805
    4 11.481672 -0.000089 -0.000024 0.018515 0.276664 0.308301
    5 3.281557 0.002119 -1.383388 0.099700 -0.198220 -1.489132
    6 1.324282 -0.000008 0.000005 0.000000 -0.035681 -0.863336
    7 0.819336 -0.000001 -0.000002 0.000000 0.000000 -0.523588
    8 3.711854 0.109255 -0.572073 -0.004825 -0.297517 -1.490876
    9 1.609408 0.000006 -0.000007 -0.002087 0.004812 -0.839808
    10 0.993191 -0.000008 0.000002 0.001475 0.002258 -0.454029
    11 3.786031 0.203224 0.243937 -0.050387 -0.349663 -0.966842
    12 1.680664 -0.000008 -0.000002 0.003628 -0.001845 -1.352714
    13 1.255859 0.000004 0.000000 0.000000 0.000000 0.135256
    14 3.594223 0.299551 1.109803 -0.118448 -0.375299 -0.093640
    15 1.719433 0.000002 -0.000004 -0.000004 0.000016 -1.171500
    16 1.002930 0.000000 0.000000 0.000000 0.000000 -0.071985
    17 0.298214 -0.634094 0.426700 -1.461079 -1.010830 0.045848
    18 2.633557 0.000002 -0.000006 0.260363 0.087765 0.097200
    19 1.308564 -0.000001 -0.000002 -0.003102 -0.044188 0.019715
    20 2.033356 1.000772 -1.937610 -0.128177 0.172990 -2.038336
    21 6.028141 0.000000 -0.000002 -0.744061 1.031018 -2.437775
    22 11.692554 0.000000 -0.000003 0.033902 -0.050827 -1.158268
    23 11.481705 -0.000001 -0.000004 -0.493261 0.106989 0.270618
    24 2.910429 -0.023166 1.400147 -0.075224 -0.048912 -0.940825
    25 1.285220 -0.000004 -0.000002 0.000002 0.101654 -0.641546
    26 0.838745 -0.000004 0.000000 -0.154889 0.049859 -1.799642
    27 3.364156 0.007379 0.622456 0.036223 -0.077584 -1.015966
    28 1.605513 0.000000 0.000001 0.000003 0.122000 -1.086905
    29 1.016602 -0.000004 0.000000 0.015303 -0.014053 -1.343777
    30 3.547715 0.027825 -0.204473 0.012824 -0.103773 -0.905043
    31 1.666992 0.000000 -0.000001 -0.000008 0.157406 -1.208297
    32 1.236531 0.000004 0.000006 0.000002 -0.000011 -1.483435
    33 3.445761 0.054213 -1.081275 0.060454 0.147996 -0.257853
    34 1.711618 0.000004 0.000013 0.000003 -0.046568 -1.257088
    35 1.005912 0.000000 0.000007 0.010131 -0.019780 -0.752954
    36 0.071629 -0.734839 -0.759724 1.312753 0.371714 -0.454998
    37 2.508557 -0.000006 -0.000010 -0.000002 -0.000001 0.359159
    38 1.292939 0.308602 -0.113292 0.025531 0.038301 0.737956
    39 -7.759847 -20.463202 -11.548683 1.587870 0.033797 -3.127448
    40 -0.000002 3.287109 -0.573233 -0.404683 0.000000 0.000000
    41 -0.000002 2.156256 -2.244137 0.000000 0.000000 0.000000
    42 -0.000003 2.917979 -4.039055 0.000000 0.000000 0.000000
    43 -0.097351 5.335948 -3.376940 0.000000 0.000000 0.000000
    44 -5.815069 27.963417 -8.904310 1.570757 0.000000 -4.712382
  time 5
    0 1.000000 -2.460938 -8.710938 -1.570783 -1.217361 -1.570804
    1 2.033348 1.000767 1.937660 3.099206 -0.162014 1.679995
    2 6.028145 0.000003 0.000002 -2.455949 -0.390860 0.251051
    3 11.692553 0.000081 -0.000005 -0.122521 0.111145 -0.699809
    4 11.481672 -0.000089 -0.000024 0.010044 0.298673 0.249435
    5 3.281557 0.006025 -1.383388 0.099614 -0.197693 -1.489553
    6 1.324282 -0.000008 0.000005 0.000000 -0.035669 -0.863336
    7 0.819336 -0.000001 -0.000002 0.000000 0.000000 -0.523588
    8 3.711854 0.109255 -0.568167 -0.004921 -0.296990 -1.491259
    9 1.609408 0.000006 -0.000007 -0.002087 0.004812 -0.839808
    10 0.993191 -0.000008 0.000002 0.001475 0.002258 -0.454029
    11 3.789937 0.207131 0.247844 -0.050195 -0.349160 -0.967337
    12 1.680664 -0.000008 -0.000002 0.003628 -0.001845 -1.352714
    13 1.255859 0.000004 0.000000 0.000000 0.000000 0.135256
    14 3.594223 0.303457 1.109803 -0.117905 -0.375120 -0.094243
    15 1.719433 0.000002 -0.000004 -0.000004 0.000016 -1.171500
    16 1.002930 0.000000 0.000000 0.000000 0.000000 -0.071985
    17 0.298214 -0.630188 0.430606 -1.460097 -1.010711 0.044578
    18 2.637464 0.000002 -0.000006 0.260363 0.087765 0.097200
    19 1.308564 -0.000001 -0.000002 -0.003102 -0.044188 0.019715
    20 2.033356 1.000772 -1.937610 -0.128177 0.172990 -2.038336
    21 6.028141 0.000000 -0.000002 -0.786107 0.998712 -2.489253
    22 11.692554 0.000000 -0.000003 0.029588 -0.048598 -1.090393
    23 11.481705 -0.000001 -0.000004 -0.500019 0.104240 0.247802
    24 2.914335 -0.023166 1.400147 -0.075472 -0.048637 -0.941149
    25 1.285220 -0.000004 -0.000002 0.000002 0.101067 -0.638227
    26 0.838745 -0.000004 0.000000 -0.156531 0.049236 -1.812882
    27 3.368063 0.007379 0.622456 0.035972 -0.077320 -1.016278
    28 1.605513 0.000000 0.000001 0.000003 0.122000 -1.086905
    29 1.016602 -0.000004 0.000000 0.015303 -0.014053 -1.343777
    30 3.551622 0.023919 -0.200566 0.012608 -0.103497 -0.905355
    31 1.666992 0.000000 -0.000001 -0.000008 0.157406 -1.208297
    32 1.236531 0.000004 0.000006 0.000002 -0.000011 -1.483435
    33 3.449668 0.054213 -1.089087 0.060429 0.148355 -0.258500
    34 1.711618 0.000004 0.000013 0.000003 -0.046723 -1.262446
    35 1.005912 0.000000 0.000007 0.010179 -0.019840 -0.754434
    36 0.075535 -0.738746 -0.755817 1.310607 0.375897 -0.457611
    37 2.508557 -0.000006 -0.000010 -0.000002 -0.000001 0.359159
    38 1.292939 0.316415 -0.113292 0.025100 0.037438 0.745985
    39 -7.763754 -20.924153 -11.572122 1.585593 0.029546 -3.129594
    40 -0.000002 3.287109 -0.573233 -0.413888 0.000000 0.000000
    41 -0.000002 2.156256 -2.244137 0.000000 0.000000 0.000000
    42 -0.000003 2.917979 -4.039055 0.000000 0.000000 0.000000
    43 -0.097351 5.335948 -3.376940 0.000000 0.000000 0.000000
    44 -5.815069 27.963417 -8.904310 1.570757 0.000000 -4.712382
  time 6
    0 1.000000 -2.460938 -8.710938 -1.570783 -1.217361 -1.570804
    1 2.033348 1.000767 1.937660 3.099206 -0.162014 1.679995
    2 6.028145 0.000003 0.000002 -2.466407 -0.420736 0.278433
    3 11.692553 0.000081 -0.000005 -0.112466 0.097998 -0.603541
    4 11.481672 -0.000089 -0.000024 -0.002325 0.318341 0.178935
    5 3.281557 0.002119 -1.379481 0.099700 -0.198220 -1.489132
    6 1.324282 -0.000008 0.000005 0.000000 -0.035669 -0.863336
    7 0.819336 -0.000001 -0.000002 0.000000 0.000000 -0.523588
    8 3.711854 0.109255 -0.568167 -0.004825 -0.297517 -1.490876
    9 1.609408 0.000006 -0.000007 -0.002087 0.004812 -0.839808
    10 0.993191 -0.000008 0.000002 0.001475 0.002258 -0.454029
    11 3.786031 0.203224 0.247844 -0.050387 -0.349663 -0.966842
    12 1.680664 -0.000008 -0.000002 0.003628 -0.001845 -1.352714
    13 1.255859 0.000004 0.000000 0.000000 0.000000 0.135256
    14 3.594223 0.299551 1.113710 -0.118448 -0.375299 -0.093640
    15 1.719433 0.000002 -0.000004 -0.000004 0.000016 -1.171500
    16 1.002930 0.000000 0.000000 0.000000 0.000000 -0.071985
    17 0.298214 -0.634094 0.430606 -1.461079 -1.010830 0.045848
    18 2.637464 0.000002 -0.000006 0.260363 0.087765 0.097200
    19 1.308564 -0.000001 -0.000002 -0.003090 -0.044188 0.019715
    20 2.033356 1.000772 -1.937610 -0.128177 0.172990 -2.038336
    21 6.028141 0.000000 -0.000002 -0.813280 0.968634 -2.522434
    22 11.692554 0.000000 -0.000003 0.026592 -0.046584 -1.027630
    23 11.481705 -0.000001 -0.000004 -0.511604 0.105468 0.222542
    24 2.910429 -0.023166 1.400147 -0.075472 -0.048637 -0.941149
    25 1.285220 -0.000004 -0.000002 0.000002 0.100480 -0.634881
    26 0.838745 -0.000004 0.000000 -0.157969 0.048684 -1.824522
    27 3.364156 0.007379 0.622456 0.035972 -0.077320 -1.016278
    28 1.605513 0.000000 0.000001 0.000003 0.122000 -1.086905
    29 1.016602 -0.000004 0.000000 0.015303 -0.014053 -1.343777
    30 3.547715 0.027825 -0.200566 0.012608 -0.103497 -0.905355
    31 1.666992 0.000000 -0.000001 -0.000008 0.157406 -1.208297
    32 1.236531 0.000004 0.000006 0.000002 -0.000011 -1.483435
    33 3.445761 0.054213 -1.089087 0.060454 0.148355 -0.258080
    34 1.711618 0.000004 0.000013 0.000003 -0.046508 -1.254999
    35 1.005912 0.000000 0.000007 0.010119 -0.019768 -0.752336
    36 0.071629 -0.734839 -0.759724 1.308534 0.379732 -0.459864
    37 2.508557 -0.000006 -0.000010 -0.000002 -0.000001 0.359147
    38 1.292939 0.324228 -0.109386 0.024680 0.036659 0.751714
    39 -7.795004 -21.291352 -11.697125 1.582508 0.023253 -3.132493
    40 -0.000002 3.287109 -0.573233 -0.415460 0.000000 0.000000
    41 -0.000002 2.156256 -2.244137 0.000000 0.000000 0.000000
    42 -0.000003 2.917979 -4.039055 0.000000 0.000000 0.000000
    43 -0.097351 5.335948 -3.376940 0.000000 0.000000 0.000000
    44 -5.815069 27.963417 -8.904310 1.570757 0.000000 -4.712382
  time 7
    0 1.000000 -2.460938 -8.710938 -1.570783 -1.217361 -1.570804
    1 2.033348 1.000767 1.937660 3.099206 -0.162014 1.679995
    2 6.028145 0.000003 0.000002 -2.478542 -0.445808 0.306196
    3 11.692553 0.000081 -0.000005 -0.104401 0.085151 -0.515406
    4 11.481672 -0.000089 -0.000024 -0.018218 0.338594 0.111239
    5 3.281557 0.002119 -1.379481 0.099718 -0.198220 -1.489132
    6 1.324282 -0.000008 0.000005 0.000000 -0.035657 -0.863336
    7 0.819336 -0.000001 -0.000002 0.000000 0.000000 -0.523588
    8 3.711854 0.109255 -0.568167 -0.004825 -0.297517 -1.490876
    9 1.609408 0.000006 -0.000007 -0.002087 0.004812 -0.839808
    10 0.993191 -0.000008 0.000002 0.001475 0.002258 -0.454029
    11 3.786031 0.203224 0.247844 -0.050387 -0.349663 -0.966842
    12 1.680664 -0.000008 -0.000002 0.003628 -0.001845 -1.352714
    13 1.255859 0.000004 0.000000 0.000000 0.000000 0.135256
    14 3.594223 0.299551 1.113710 -0.118448 -0.375299 -0.093640
    15 1.719433 0.000002 -0.000004 -0.000004 0.000016 -1.171500
    16 1.002930 0.000000 0.000000 0.000000 0.000000 -0.071985
    17 0.298214 -0.634094 0.430606 -1.461079 -1.010830 0.045848
    18 2.637464 0.000002 -0.000006 0.260363 0.087765 0.097200
    19 1.308564 -0.000001 -0.000002 -0.003102 -0.044188 0.019715
    20 2.033356 1.000772 -1.937610 -0.128177 0.172990 -2.038336
    21 6.028141 0.000000 -0.000002 -0.825198 0.938596 -2.535517
    22 11.692554 0.000000 -0.000003 0.017388 -0.032346 -0.974249
    23 11.481705 -0.000001 -0.000004 -0.522947 0.100234 0.199023
    24 2.910429 -0.023166 1.400147 -0.075307 -0.048828 -0.940909
    25 1.285220 -0.000004 -0.000002 0.000002 0.099893 -0.631561
    26 0.838745 -0.000004 0.000000 -0.158904 0.048301 -1.832233
    27 3.364156 0.007379 0.622456 0.036151 -0.077488 -1.016041
    28 1.605513 0.000000 0.000001 0.000003 0.121988 -1.086905
    29 1.016602 -0.000004 0.000000 0.015303 -0.014053 -1.343777
    30 3.547715 0.027825 -0.204473 0.012764 -0.103677 -0.905127
    31 1.666992 0.000000 -0.000001 -0.000008 0.157406 -1.208297
    32 1.236531 0.000004 0.000006 0.000002 -0.000011 -1.483435
    33 3.445761 0.054213 -1.089087 0.060569 0.148099 -0.256367
    34 1.711618 0.000004 0.000013 0.000003 -0.045717 -1.228296
    35 1.005912 0.000000 0.000007 0.009867 -0.019480 -0.744829
    36 0.075535 -0.734839 -0.759724 1.306497 0.383315 -0.461854
    37 2.508557 -0.000006 -0.000010 -0.000002 -0.000001 0.359159
    38 1.285126 0.324228 -0.109386 0.024321 0.036048 0.753356
    39 -7.834068 -21.580423 -11.841661 1.579570 0.016878 -3.135219
    40 -0.000002 3.287109 -0.573233 -0.404683 0.000000 0.000000
    41 -0.000002 2.156256 -2.244137 0.000000 0.000000 0.000000
    42 -0.000003 2.917979 -4.039055 0.000000 0.000000 0.000000
    43 -0.097351 5.335948 -3.376940 0.000000 0.000000 0.000000
    44 -5.815069 27.963417 -8.904310 1.570757 0.000000 -4.712382
  time 8
    0 1.000000 -2.460938 -8.710938 -1.570783 -1.217361 -1.570804
    1 2.033348 1.000767 1.937660 3.099206 -0.162014 1.679995
    2 6.028145 0.000003 0.000002 -2.489798 -0.469415 0.331383
    3 11.692553 0.000081 -0.000005 -0.098013 0.072759 -0.434387
    4 11.481672 -0.000089 -0.000024 -0.032761 0.354633 0.048143
    5 3.281557 0.002119 -1.383388 0.099805 -0.198604 -1.488852
    6 1.324282 -0.000008 0.000005 0.000000 -0.035669 -0.863336
    7 0.819336 -0.000001 -0.000002 0.000000 0.000000 -0.523588
    8 3.711854 0.109255 -0.568167 -0.004717 -0.297901 -1.490603
    9 1.609408 0.000006 -0.000007 -0.002087 0.004812 -0.839808
    10 0.993191 -0.000008 0.000002 0.001475 0.002258 -0.454029
    11 3.786031 0.207131 0.243937 -0.050495 -0.350047 -0.966511
    12 1.680664 -0.000008 -0.000002 0.003628 -0.001845 -1.352714
    13 1.255859 0.000004 0.000000 0.000000 0.000000 0.135256
    14 3.594223 0.303457 1.109803 -0.118835 -0.375467 -0.093202
    15 1.719433 0.000002 -0.000004 -0.000004 0.000016 -1.171500
    16 1.002930 0.000000 0.000000 0.000000 0.000000 -0.071985
    17 0.298214 -0.630188 0.426700 -1.461788 -1.010950 0.046780
    18 2.633557 0.000002 -0.000006 0.260363 0.087765 0.097200
    19 1.308564 -0.000001 -0.000002 -0.003102 -0.044188 0.019715
    20 2.033356 1.000772 -1.937610 -0.128177 0.172990 -2.038336
    21 6.028141 0.000000 -0.000002 -0.842836 0.921807 -2.559596
    22 11.692554 0.000000 -0.000003 0.018658 -0.037404 -0.932967
    23 11.481705 -0.000001 -0.000004 -0.530007 0.103948 0.181800
    24 2.914335 -0.023166 1.400147 -0.075472 -0.048637 -0.941149
    25 1.285220 -0.000004 -0.000002 0.000002 0.099293 -0.628229
    26 0.838745 -0.000004 0.000000 -0.159047 0.048241 -1.833494
    27 3.368063 0.007379 0.618550 0.035972 -0.077320 -1.016278
    28 1.605513 0.000000 0.000001 0.000003 0.122000 -1.086905
    29 1.016602 -0.000004 0.000000 0.015303 -0.014053 -1.343777
    30 3.551622 0.023919 -0.204473 0.012608 -0.103497 -0.905355
    31 1.666992 0.000000 -0.000001 -0.000008 0.157406 -1.208297
    32 1.236531 0.000004 0.000006 0.000002 -0.000011 -1.483435
    33 3.449668 0.054213 -1.089087 0.060823 0.148291 -0.253095
    34 1.711618 0.000004 0.000013 0.000003 -0.044099 -1.178130
    35 1.005912 0.000000 0.000007 0.009496 -0.019013 -0.732066
    36 0.075535 -0.738746 -0.759724 1.304327 0.387378 -0.464382
    37 2.508557 -0.000006 -0.000010 -0.000002 -0.000001 0.359147
    38 1.292939 0.320321 -0.109386 0.024033 0.035688 0.749149
    39 -7.857506 -21.791367 -11.915882 1.577514 0.012669 -3.136726
    40 -0.000002 3.287109 -0.573233 -0.376954 0.000000 0.000000
    41 -0.000002 2.156256 -2.244137 0.000000 0.000000 0.000000
    42 -0.000003 2.917979 -4.039055 0.000000 0.000000 0.000000
    43 -0.097351 5.335948 -3.376940 0.000000 0.000000 0.000000
    44 -5.815069 27.963417 -8.904310 1.570757 0.000000 -4.712382
  time 9
    0 1.000000 -2.460938 -8.710938 -1.570783 -1.217361 -1.570804
    1 2.033348 1.000767 1.937660 3.099206 -0.162014 1.679995
    2 6.028145 0.000003 0.000002 -2.499697 -0.490865 0.353136
    3 11.692553 0.000081 -0.000005 -0.093519 0.062200 -0.367523
    4 11.481672 -0.000089 -0.000024 -0.043107 0.363842 0.000407
    5 3.281557 0.006025 -1.383388 0.099562 -0.197825 -1.489343
    6 1.324282 -0.000008 0.000005 0.000000 -0.035657 -0.863336
    7 0.819336 -0.000001 -0.000002 0.000000 0.000000 -0.523588
    8 3.711854 0.109255 -0.568167 -0.004957 -0.297122 -1.491067
    9 1.609408 0.000006 -0.000007 -0.002087 0.004812 -0.839808
    10 0.993191 -0.000008 0.000002 0.001475 0.002258 -0.454029
    11 3.786031 0.207131 0.243937 -0.050291 -0.349244 -0.967106
    12 1.680664 -0.000008 -0.000002 0.003628 -0.001845 -1.352714
    13 1.255859 0.000004 0.000000 0.000000 0.000000 0.135256
    14 3.594223 0.303457 1.113710 -0.118045 -0.375108 -0.094024
    15 1.719433 0.000002 -0.000004 -0.000004 0.000016 -1.171500
    16 1.002930 0.000000 0.000000 0.000000 0.000000 -0.071985
    17 0.298214 -0.630188 0.426700 -1.460333 -1.010671 0.044973
    18 2.637464 0.000002 -0.000006 0.260363 0.087765 0.097200
    19 1.308564 -0.000001 -0.000002 -0.003102 -0.044188 0.019715
    20 2.033356 1.000772 -1.937610 -0.128177 0.172990 -2.038336
    21 6.028141 0.000000 -0.000002 -0.858853 0.907206 -2.579789
    22 11.692554 0.000000 -0.000003 0.017615 -0.035954 -0.900874
    23 11.481705 -0.000001 -0.000004 -0.532179 0.101988 0.169577
    24 2.914335 -0.023166 1.400147 -0.075472 -0.048637 -0.941149
    25 1.285220 -0.000004 -0.000002 0.000002 0.098706 -0.624909
    26 0.838745 -0.000004 0.000000 -0.158113 0.048625 -1.825783
    27 3.368063 0.007379 0.622456 0.035972 -0.077320 -1.016278
    28 1.605513 0.000000 0.000001 0.000003 0.122000 -1.086905
    29 1.016602 -0.000004 0.000000 0.015303 -0.014053 -1.343777
    30 3.551622 0.023919 -0.204473 0.012608 -0.103497 -0.905355
    31 1.666992 0.000000 -0.000001 -0.000008 0.157406 -1.208297
    32 1.240438 0.000004 0.000006 0.000002 -0.000011 -1.483435
    33 3.449668 0.054213 -1.085181 0.061218 0.148227 -0.247606
    34 1.711618 0.000004 0.000013 0.000003 -0.041666 -1.108800
    35 1.005912 0.000000 0.000007 0.008992 -0.018414 -0.716012
    36 0.075535 -0.738746 -0.759724 1.302194 0.391189 -0.466659
    37 2.508557 -0.000006 -0.000010 -0.000002 -0.000001 0.359147
    38 1.292939 0.308602 -0.109386 0.023865 0.035712 0.737297
    39 -7.869226 -21.971060 -11.908069 1.576486 0.010418 -3.137248
    40 -0.000002 3.287109 -0.573233 -0.290409 0.000000 0.000000
    41 -0.000002 2.156256 -2.244137 0.000000 0.000000 0.000000
    42 -0.000003 2.917979 -4.039055 0.000000 0.000000 0.000000
    43 -0.097351 5.335948 -3.376940 0.000000 0.000000 0.000000
    44 -5.815069 27.963417 -8.904310 1.570757 0.000000 -4.712382
  time 10
    0 1.000000 -2.460938 -8.710938 -1.570783 -1.217361 -1.570804
    1 2.033348 1.000767 1.937660 3.099206 -0.162014 1.679995
    2 6.028145 0.000003 0.000002 -2.506084 -0.503401 0.366588
    3 11.692553 0.000081 -0.000005 -0.091290 0.056112 -0.330220
    4 11.481672 -0.000089 -0.000024 -0.048054 0.367238 -0.025807
    5 3.281557 0.002119 -1.383388 0.099718 -0.198220 -1.489132
    6 1.324282 -0.000008 0.000005 0.000000 -0.035669 -0.863336
    7 0.819336 -0.000001 -0.000002 0.000000 0.000000 -0.523588
    8 3.711854 0.109255 -0.572073 -0.004825 -0.297517 -1.490876
    9 1.609408 0.000006 -0.000007 -0.002087 0.004812 -0.839808
    10 0.993191 -0.000008 0.000002 0.001475 0.002258 -0.454029
    11 3.786031 0.203224 0.243937 -0.050387 -0.349663 -0.966842
    12 1.680664 -0.000008 -0.000002 0.003628 -0.001845 -1.352714
    13 1.255859 0.000004 0.000000 0.000000 0.000000 0.135256
    14 3.594223 0.299551 1.109803 -0.118448 -0.375299 -0.093640
    15 1.719433 0.000002 -0.000004 -0.000004 0.000016 -1.171500
    16 1.002930 0.000000 0.000000 0.000000 0.000000 -0.071985
    17 0.298214 -0.634094 0.426700 -1.461079 -1.010830 0.045848
    18 2.633557 0.000002 -0.000006 0.260363 0.087765 0.097200
    19 1.308564 -0.000001 -0.000002 -0.003102 -0.044188 0.019715
    20 2.033356 1.000772 -1.937610 -0.128177 0.172990 -2.038336
    21 6.028141 0.000000 -0.000002 -0.868674 0.895469 -2.592398
    22 11.692554 0.000000 -0.000003 0.014835 -0.032047 -0.878033
    23 11.481705 -0.000001 -0.000004 -0.532963 0.098684 0.161429
    24 2.914335 -0.023166 1.396241 -0.075488 -0.049224 -0.941305
    25 1.285220 -0.000004 -0.000002 0.000002 0.098107 -0.621563
    26 0.838745 -0.000004 0.000000 -0.155788 0.049523 -1.806819
    27 3.368063 0.007379 0.618550 0.035996 -0.077908 -1.016427
    28 1.605513 0.000000 0.000001 0.000003 0.122000 -1.086905
    29 1.016602 -0.000004 0.000000 0.015303 -0.014053 -1.343777
    30 3.551622 0.023919 -0.204473 0.012572 -0.104072 -0.905499
    31 1.666992 0.000000 -0.000001 -0.000008 0.157406 -1.208297
    32 1.236531 0.000004 0.000006 0.000002 -0.000011 -1.483435
    33 3.449668 0.054213 -1.085181 0.061294 0.147714 -0.241530
    34 1.711618 0.000004 0.000013 0.000003 -0.038586 -1.026633
    35 1.005912 0.000000 0.000007 0.008441 -0.017695 -0.697420
    36 0.075535 -0.734839 -0.759724 1.299749 0.394521 -0.469200
    37 2.508557 -0.000006 -0.000010 -0.000002 -0.000001 0.359159
    38 1.300752 0.269539 -0.109386 0.024117 0.036695 0.703201
    39 -7.873132 -22.096064 -11.884631 1.575531 0.008626 -3.137538
    40 -0.000002 3.287109 -0.573233 -0.145198 0.000000 0.000000
    41 -0.000002 2.156256 -2.244137 0.000000 0.000000 0.000000
    42 -0.000003 2.917979 -4.039055 0.000000 0.000000 0.000000
    43 -0.097351 5.335948 -3.376940 0.000000 0.000000 0.000000
    44 -5.815069 27.963417 -8.904310 1.570757 0.000000 -4.712382
  time 11
    0 1.000000 -2.460938 -8.710938 -1.570783 -1.217361 -1.570804
    1 2.033348 1.000767 1.937660 3.099206 -0.162014 1.679995
    2 6.028145 0.000003 0.000002 -2.508399 -0.506006 0.370977
    3 11.692553 0.000081 -0.000005 -0.090894 0.054913 -0.322947
    4 11.481672 -0.000089 -0.000024 -0.051503 0.365599 -0.032429
    5 3.281557 0.002119 -1.379481 0.099822 -0.198088 -1.489413
    6 1.324282 -0.000008 0.000005 0.000000 -0.035669 -0.863336
    7 0.819336 -0.000001 -0.000002 0.000000 0.000000 -0.523588
    8 3.711854 0.105348 -0.568167 -0.004693 -0.297385 -1.491204
    9 1.609408 0.000006 -0.000007 -0.002087 0.004812 -0.839808
    10 0.993191 -0.000008 0.000002 0.001475 0.002258 -0.454029
    11 3.786031 0.203224 0.243937 -0.050219 -0.349603 -0.967172
    12 1.680664 -0.000008 -0.000002 0.003628 -0.001845 -1.352714
    13 1.255859 0.000004 0.000000 0.000000 0.000000 0.135256
    14 3.594223 0.299551 1.113710 -0.118293 -0.375383 -0.093996
    15 1.719433 0.000002 -0.000004 -0.000004 0.000016 -1.171500
    16 1.002930 0.000000 0.000000 0.000000 0.000000 -0.071985
    17 0.298214 -0.634094 0.430606 -1.460824 -1.010930 0.045340
    18 2.633557 0.000002 -0.000006 0.260363 0.087765 0.097200
    19 1.308564 -0.000001 -0.000002 -0.003102 -0.044188 0.019715
    20 2.033356 1.000772 -1.937610 -0.128177 0.172990 -2.038336
    21 6.028141 0.000000 -0.000002 -0.881068 0.898851 -2.610600
    22 11.692554 0.000000 -0.000003 0.022517 -0.048250 -0.871240
    23 11.481705 -0.000001 -0.000004 -0.534411 0.105615 0.159318
    24 2.914335 -0.023166 1.400147 -0.075472 -0.048637 -0.941149
    25 1.285220 -0.000004 -0.000002 0.000002 0.097520 -0.618244
    26 0.838745 -0.000004 0.000000 -0.151749 0.050986 -1.774131
    27 3.368063 0.007379 0.618550 0.035972 -0.077320 -1.016278
    28 1.605513 0.000000 0.000001 0.000003 0.122000 -1.086905
    29 1.016602 -0.000004 0.000000 0.015303 -0.014053 -1.343777
    30 3.551622 0.023919 -0.204473 0.012608 -0.103497 -0.905355
    31 1.666992 0.000000 -0.000001 -0.000008 0.157406 -1.208297
    32 1.236531 0.000004 0.000006 0.000002 -0.000011 -1.483435
    33 3.449668 0.054213 -1.085181 0.062096 0.148073 -0.235429
    34 1.711618 0.000004 0.000013 0.000003 -0.035098 -0.938138
    35 1.005912 0.000000 0.000007 0.007866 -0.016916 -0.677083
    36 0.075535 -0.738746 -0.755817 1.297892 0.398847 -0.471214
    37 2.508557 -0.000006 -0.000010 -0.000002 -0.000001 0.359159
    38 1.312471 0.199224 -0.109386 0.025040 0.039931 0.641312
    39 -7.880945 -22.135128 -11.853380 1.574723 0.007126 -3.137712
    40 -0.000002 3.287109 -0.573233 0.000000 0.000000 0.000000
    41 -0.000002 2.156256 -2.244137 0.000000 0.000000 0.000000
    42 -0.000003 2.917979 -4.039055 0.000000 0.000000 0.000000
    43 -0.097351 5.335948 -3.376940 0.000000 0.000000 0.000000
    44 -5.815069 27.963417 -8.904310 1.570757 0.000000 -4.712382
  time 12
    0 1.000000 -2.460938 -8.710938 -1.570783 -1.217361 -1.570804
    1 2.033348 1.000767 1.937660 3.099206 -0.162014 1.679995
    2 6.028145 0.000003 0.000002 -2.508079 -0.506006 0.370405
    3 11.692553 0.000081 -0.000005 -0.091074 0.055477 -0.326388
    4 11.481672 -0.000089 -0.000024 -0.053002 0.360018 -0.032843
    5 3.281557 0.002119 -1.383388 0.099718 -0.198220 -1.489132
    6 1.324282 -0.000008 0.000005 0.000000 -0.035681 -0.863336
    7 0.819336 -0.000001 -0.000002 0.000000 0.000000 -0.523588
    8 3.711854 0.109255 -0.568167 -0.004825 -0.297517 -1.490876
    9 1.609408 0.000006 -0.000007 -0.002087 0.004800 -0.839808
    10 0.993191 -0.000008 0.000002 0.001487 0.002258 -0.454029
    11 3.786031 0.203224 0.243937 -0.050387 -0.349663 -0.966842
    12 1.680664 -0.000008 -0.000002 0.003628 -0.001845 -1.352714
    13 1.255859 0.000004 0.000000 0.000000 0.000000 0.135256
    14 3.594223 0.299551 1.113710 -0.118432 -0.375299 -0.093640
    15 1.719433 0.000002 -0.000004 -0.000004 0.000016 -1.171500
    16 1.002930 0.000000 0.000000 0.000000 0.000000 -0.071985
    17 0.298214 -0.634094 0.430606 -1.461079 -1.010830 0.045848
    18 2.633557 0.000002 -0.000006 0.260363 0.087765 0.097200
    19 1.308564 -0.000001 -0.000002 -0.003102 -0.044188 0.019715
    20 2.033356 1.000772 -1.937610 -0.128177 0.172990 -2.038336
    21 6.028141 0.000000 -0.000002 -0.877827 0.899447 -2.605007
    22 11.692554 0.000000 -0.000003 0.019389 -0.041083 -0.876675
    23 11.481705 -0.000001 -0.000004 -0.534291 0.100029 0.162948
    24 2.914335 -0.027073 1.400147 -0.075621 -0.048457 -0.941377
    25 1.285220 -0.000004 -0.000002 0.000002 0.096920 -0.614911
    26 0.838745 -0.000004 0.000000 -0.141095 0.054125 -1.689791
    27 3.368063 0.007379 0.618550 0.035804 -0.077153 -1.016502
    28 1.605513 0.000000 0.000001 0.000003 0.122000 -1.086905
    29 1.016602 -0.000004 0.000000 0.015303 -0.014053 -1.343777
    30 3.551622 0.023919 -0.204473 0.012453 -0.103305 -0.905582
    31 1.666992 0.000000 -0.000001 -0.000008 0.157406 -1.208297
    32 1.236531 0.000004 0.000006 0.000002 -0.000011 -1.483435
    33 3.449668 0.054213 -1.089087 0.062096 0.148317 -0.235669
    34 1.711618 0.000004 0.000013 0.000003 -0.031791 -0.849614
    35 1.005912 0.000000 0.000007 0.007267 -0.016065 -0.655686
    36 0.075535 -0.738746 -0.759724 1.295663 0.402898 -0.473778
    37 2.508557 -0.000006 -0.000010 -0.000002 -0.000001 0.359159
    38 1.324190 0.121096 -0.113292 0.026334 0.044964 0.569464
    39 -7.888757 -22.111689 -11.826036 1.574209 0.005876 -3.137712
    40 -0.000002 3.287109 -0.573233 0.000000 0.000000 0.000000
    41 -0.000002 2.156256 -2.244137 0.000000 0.000000 0.000000
    42 -0.000003 2.917979 -4.039055 0.000000 0.000000 0.000000
    43 -0.097351 5.335948 -3.376940 0.000000 0.000000 0.000000
    44 -5.815069 27.963417 -8.904310 1.570757 0.000000 -4.712382
  time 13
    0 1.000000 -2.460938 -8.710938 -1.570783 -1.217361 -1.570804
    1 2.033348 1.000767 1.937660 3.099206 -0.162014 1.679995
    2 6.028145 0.000003 0.000002 -2.506722 -0.506739 0.368210
    3 11.692553 0.000081 -0.000005 -0.091314 0.056172 -0.330611
    4 11.481672 -0.000089 -0.000024 -0.053152 0.352018 -0.031831
    5 3.281557 0.002119 -1.383388 0.099718 -0.198220 -1.489132
    6 1.324282 -0.000008 0.000005 0.000000 -0.035657 -0.863336
    7 0.819336 -0.000001 -0.000002 0.000000 0.000000 -0.523588
    8 3.711854 0.109255 -0.568167 -0.004825 -0.297517 -1.490876
    9 1.609408 0.000006 -0.000007 -0.002087 0.004812 -0.839808
    10 0.993191 -0.000008 0.000002 0.001475 0.002258 -0.454029
    11 3.786031 0.203224 0.243937 -0.050387 -0.349663 -0.966842
    12 1.680664 -0.000008 -0.000002 0.003628 -0.001845 -1.352714
    13 1.255859 0.000004 0.000000 0.000000 0.000000 0.135256
    14 3.594223 0.299551 1.109803 -0.118448 -0.375299 -0.093640
    15 1.719433 0.000002 -0.000004 -0.000004 0.000016 -1.171500
    16 1.002930 0.000000 0.000000 0.000000 0.000000 -0.071985
    17 0.298214 -0.634094 0.426700 -1.461079 -1.010830 0.045848
    18 2.637464 0.000002 -0.000006 0.260363 0.087765 0.097200
    19 1.308564 -0.000001 -0.000002 -0.003102 -0.044188 0.019715
    20 2.033356 1.000772 -1.937610 -0.128177 0.172990 -2.038336
    21 6.028141 0.000000 -0.000002 -0.872774 0.906131 -2.598465
    22 11.692554 0.000000 -0.000003 0.018718 -0.040244 -0.890780
    23 11.481705 -0.000001 -0.000004 -0.533325 0.098275 0.169392
    24 2.914335 -0.023166 1.396241 -0.075555 -0.049032 -0.941413
    25 1.285220 -0.000004 -0.000002 0.000002 0.096321 -0.611592
    26 0.838745 -0.000004 0.000000 -0.121991 0.057421 -1.542305
    27 3.368063 0.007379 0.622456 0.035888 -0.077716 -1.016552
    28 1.605513 0.000000 0.000001 0.000003 0.122000 -1.086905
    29 1.016602 -0.000004 0.000000 0.015303 -0.014053 -1.343777
    30 3.551622 0.027825 -0.204473 0.012477 -0.103880 -0.905618
    31 1.666992 0.000000 -0.000001 -0.000008 0.157406 -1.208297
    32 1.236531 0.000004 0.000006 0.000002 -0.000011 -1.483435
    33 3.449668 0.054213 -1.089087 0.061752 0.147855 -0.235765
    34 1.711618 0.000004 0.000013 0.000003 -0.028507 -0.767477
    35 1.005912 0.000000 0.000007 0.006667 -0.015202 -0.634047
    36 0.075535 -0.734839 -0.763630 1.293242 0.406182 -0.476199
    37 2.508557 -0.000006 -0.000010 -0.000002 -0.000001 0.359159
    38 1.328096 0.058595 -0.113292 0.027353 0.049530 0.511351
    39 -7.896570 -22.037468 -11.806504 1.573474 0.004792 -3.137596
    40 -0.000002 3.287109 -0.573233 0.000000 0.000000 0.000000
    41 -0.000002 2.156256 -2.244137 0.000000 0.000000 0.000000
    42 -0.000003 2.917979 -4.039055 0.000000 0.000000 0.000000
    43 -0.097351 5.335948 -3.376940 0.000000 0.000000 0.000000
    44 -5.815069 27.963417 -8.904310 1.570757 0.000000 -4.712382
  time 14
    0 1.000000 -2.460938 -8.710938 -1.570783 -1.217361 -1.570804
    1 2.033348 1.000767 1.937660 3.099206 -0.162014 1.679995
    2 6.028145 0.000003 0.000002 -2.498899 -0.501000 0.353804
    3 11.692553 0.000081 -0.000005 -0.092991 0.060930 -0.359312
    4 11.481672 -0.000089 -0.000024 -0.052327 0.334536 -0.016609
    5 3.281557 0.006025 -1.383388 0.099458 -0.197645 -1.489343
    6 1.324282 -0.000008 0.000005 0.000000 -0.035657 -0.863336
    7 0.819336 -0.000001 -0.000002 0.000000 0.000000 -0.523588
    8 3.711854 0.109255 -0.572073 -0.005077 -0.296942 -1.491067
    9 1.609408 0.000006 -0.000007 -0.002087 0.004812 -0.839808
    10 0.993191 -0.000008 0.000002 0.001475 0.002258 -0.454029
    11 3.786031 0.207131 0.243937 -0.050303 -0.349028 -0.967139
    12 1.680664 -0.000008 -0.000002 0.003628 -0.001845 -1.352714
    13 1.255859 0.000004 0.000000 0.000000 0.000000 0.135256
    14 3.594223 0.303457 1.109803 -0.117874 -0.374952 -0.094106
    15 1.719433 0.000002 -0.000004 -0.000004 0.000016 -1.171500
    16 1.002930 0.000000 0.000000 0.000000 0.000000 -0.071985
    17 0.298214 -0.630188 0.426700 -1.460006 -1.010571 0.044663
    18 2.637464 0.000002 -0.000006 0.260363 0.087765 0.097200
    19 1.308564 -0.000001 -0.000002 -0.003102 -0.044188 0.019715
    20 2.033356 1.000772 -1.937610 -0.128177 0.172990 -2.038336
    21 6.028141 0.000000 -0.000002 -0.862953 0.913890 -2.584245
    22 11.692554 0.000000 -0.000003 0.016824 -0.034600 -0.908833
    23 11.481705 -0.000001 -0.000004 -0.534592 0.094385 0.177504
    24 2.914335 -0.023166 1.400147 -0.075472 -0.048649 -0.941149
    25 1.285220 -0.000004 -0.000002 0.000002 0.095806 -0.608756
    26 0.838745 -0.000004 0.000000 -0.103775 0.056678 -1.402677
    27 3.368063 0.007379 0.622456 0.035972 -0.077320 -1.016278
    28 1.605513 0.000000 0.000001 0.000003 0.122000 -1.086905
    29 1.016602 -0.000004 0.000000 0.015303 -0.014053 -1.343777
    30 3.551622 0.023919 -0.204473 0.012608 -0.103497 -0.905355
    31 1.666992 0.000000 -0.000001 -0.000008 0.157406 -1.208297
    32 1.236531 0.000004 0.000006 0.000002 -0.000011 -1.483435
    33 3.449668 0.054213 -1.089087 0.062096 0.148073 -0.235441
    34 1.711618 0.000004 0.000013 0.000003 -0.028147 -0.758394
    35 1.005912 0.000000 0.000007 0.006224 -0.014495 -0.616470
    36 0.075535 -0.738746 -0.759724 1.293290 0.406901 -0.476055
    37 2.508557 -0.000006 -0.000010 -0.000002 -0.000001 0.359159
    38 1.328096 0.050782 -0.113292 0.026849 0.046702 0.511878
    39 -7.927821 -21.931996 -11.814317 1.572446 0.002875 -3.139046
    40 -0.000002 3.287109 -0.573233 0.000000 0.000000 0.000000
    41 -0.000002 2.156256 -2.244137 0.000000 0.000000 0.000000
    42 -0.000003 2.917979 -4.039055 0.000000 0.000000 0.000000
    43 -0.097351 5.335948 -3.376940 0.000000 0.000000 0.000000
    44 -5.815069 27.963417 -8.904310 1.570757 0.000000 -4.712382
  time 15
    0 1.000000 -2.460938 -8.710938 -1.570783 -1.217361 -1.570804
    1 2.033348 1.000767 1.937660 3.099206 -0.162014 1.679995
    2 6.028145 0.000003 0.000002 -2.490596 -0.494569 0.338634
    3 11.692553 0.000081 -0.000005 -0.094945 0.065760 -0.390046
    4 11.481672 -0.000089 -0.000024 -0.050528 0.317053 -0.000697
    5 3.281557 0.002119 -1.383388 0.099700 -0.198220 -1.489132
    6 1.324282 -0.000008 0.000005 0.000000 -0.035657 -0.863336
    7 0.819336 -0.000001 -0.000002 0.000000 0.000000 -0.523588
    8 3.711854 0.109255 -0.568167 -0.004825 -0.297517 -1.490876
    9 1.609408 0.000006 -0.000007 -0.002087 0.004812 -0.839808
    10 0.993191 -0.000008 0.000002 0.001475 0.002258 -0.454029
    11 3.786031 0.203224 0.243937 -0.050387 -0.349663 -0.966842
    12 1.680664 -0.000008 -0.000002 0.003628 -0.001845 -1.352714
    13 1.255859 0.000004 0.000000 0.000000 0.000000 0.135256
    14 3.594223 0.299551 1.109803 -0.118448 -0.375299 -0.093640
    15 1.719433 0.000002 -0.000004 -0.000004 0.000016 -1.171529
    16 1.002930 0.000000 0.000000 0.000000 0.000000 -0.071985
    17 0.298214 -0.634094 0.426700 -1.461079 -1.010830 0.045848
    18 2.637464 0.000002 -0.000006 0.260363 0.087765 0.097200
    19 1.308564 -0.000001 -0.000002 -0.003102 -0.044188 0.019715
    20 2.033356 1.000772 -1.937610 -0.128177 0.172990 -2.038336
    21 6.028141 0.000000 -0.000002 -0.853228 0.922443 -2.570499
    22 11.692554 0.000000 -0.000003 0.015590 -0.031052 -0.927338
    23 11.481705 -0.000001 -0.000004 -0.535377 0.092104 0.186096
    24 2.914335 -0.023166 1.400147 -0.075472 -0.048637 -0.941149
    25 1.285220 -0.000004 -0.000002 0.000002 0.095338 -0.606109
    26 0.838745 -0.000004 0.000000 -0.086325 0.055216 -1.269062
    27 3.368063 0.007379 0.622456 0.035972 -0.077320 -1.016278
    28 1.605513 0.000000 0.000001 0.000003 0.122000 -1.086905
    29 1.016602 -0.000004 0.000000 0.015303 -0.014053 -1.343777
    30 3.551622 0.023919 -0.200566 0.012608 -0.103497 -0.905355
    31 1.666992 0.000000 -0.000001 -0.000008 0.157406 -1.208297
    32 1.236531 0.000004 0.000006 0.000002 -0.000011 -1.483474
    33 3.449668 0.054213 -1.085181 0.062096 0.148073 -0.235441
    34 1.711618 0.000004 0.000013 0.000003 -0.028327 -0.762936
    35 1.005912 0.000000 0.000007 0.005805 -0.013824 -0.600218
    36 0.075535 -0.738746 -0.755817 1.293409 0.406685 -0.475936
    37 2.508557 -0.000006 -0.000010 -0.000002 -0.000001 0.359159
    38 1.328096 0.050782 -0.113292 0.026070 0.042603 0.523120
    39 -7.959072 -21.822618 -11.822129 1.571198 0.000875 -3.140785
    40 -0.000002 3.287109 -0.573233 0.000000 0.000000 0.000000
    41 -0.000002 2.156256 -2.244137 0.000000 0.000000 0.000000
    42 -0.000003 2.917979 -4.039055 0.000000 0.000000 0.000000
    43 -0.097351 5.335948 -3.376940 0.000000 0.000000 0.000000
    44 -5.815069 27.963417 -8.904310 1.570757 0.000000 -4.712382
  time 16
    0 1.000000 -2.460938 -8.710938 -1.570783 -1.217361 -1.570804
    1 2.033348 1.000767 1.937660 3.099206 -0.162014 1.679995
    2 6.028145 0.000003 0.000002 -2.486685 -0.491638 0.331383
    3 11.692553 0.000081 -0.000005 -0.095892 0.068025 -0.404357
    4 11.481672 -0.000089 -0.000024 -0.049929 0.308663 0.006753
    5 3.281557 0.002119 -1.379481 0.099718 -0.198220 -1.489132
    6 1.324282 -0.000008 0.000005 0.000000 -0.035657 -0.863336
    7 0.819336 -0.000001 -0.000002 0.000000 0.000000 -0.523588
    8 3.711854 0.109255 -0.568167 -0.004825 -0.297517 -1.490876
    9 1.609408 0.000006 -0.000007 -0.002087 0.004812 -0.839808
    10 0.993191 -0.000008 0.000002 0.001475 0.002258 -0.454029
    11 3.786031 0.203224 0.243937 -0.050387 -0.349663 -0.966842
    12 1.680664 -0.000008 -0.000002 0.003628 -0.001845 -1.352714
    13 1.255859 0.000004 0.000000 0.000000 0.000000 0.135256
    14 3.594223 0.299551 1.113710 -0.118448 -0.375299 -0.093640
    15 1.719433 0.000002 -0.000004 -0.000004 0.000016 -1.171500
    16 1.002930 0.000000 0.000000 0.000000 0.000000 -0.071985
    17 0.298214 -0.634094 0.426700 -1.461079 -1.010830 0.045848
    18 2.633557 0.000002 -0.000006 0.260363 0.087765 0.097200
    19 1.308564 -0.000001 -0.000002 -0.003102 -0.044188 0.019715
    20 2.033356 1.000772 -1.937610 -0.128177 0.172990 -2.038336
    21 6.028141 0.000000 -0.000002 -0.849796 0.928173 -2.567275
    22 11.692554 0.000000 -0.000003 0.017388 -0.035403 -0.936009
    23 11.481705 -0.000001 -0.000004 -0.536161 0.094502 0.189948
    24 2.914335 -0.023166 1.400147 -0.075472 -0.048637 -0.941149
    25 1.285220 -0.000004 -0.000002 0.000002 0.095123 -0.604926
    26 0.838745 -0.000004 0.000000 -0.078523 0.054425 -1.209456
    27 3.368063 0.007379 0.622456 0.035972 -0.077320 -1.016278
    28 1.605513 0.000000 0.000001 0.000003 0.122000 -1.086905
    29 1.016602 -0.000004 0.000000 0.015303 -0.014053 -1.343777
    30 3.551622 0.023919 -0.204473 0.012608 -0.103497 -0.905355
    31 1.666992 0.000000 -0.000001 -0.000008 0.157406 -1.208297
    32 1.236531 0.000004 0.000006 0.000002 -0.000011 -1.483435
    33 3.449668 0.054213 -1.089087 0.062096 0.148073 -0.235441
    34 1.711618 0.000004 0.000013 0.000003 -0.028507 -0.767477
    35 1.005912 0.000000 0.000007 0.005613 -0.013536 -0.593086
    36 0.075535 -0.738746 -0.759724 1.293529 0.406469 -0.475804
    37 2.508557 -0.000006 -0.000010 -0.000002 -0.000001 0.359159
    38 1.328096 0.050782 -0.113292 0.025663 0.040518 0.530179
    39 -7.966885 -21.775742 -11.822129 1.570757 0.000000 -3.141597
    40 -0.000002 3.287109 -0.573233 0.000000 0.000000 0.000000
    41 -0.000002 2.156256 -2.244137 0.000000 0.000000 0.000000
    42 -0.000003 2.917979 -4.039055 0.000000 0.000000 0.000000
    43 -0.097351 5.335948 -3.376940 0.000000 0.000000 0.000000
    44 -5.815069 27.963417 -8.904310 1.570757 0.000000 -4.712382
end
