// Created by Crowbar++ 0.74
version 1
nodes
  0 "ValveBiped.Bip01_Spine4" -1
  1 "ValveBiped.Bip01_L_Clavicle" 0
  2 "ValveBiped.Bip01_L_UpperArm" 1
  3 "ValveBiped.Bip01_L_Forearm" 2
  4 "ValveBiped.Bip01_L_Hand" 3
  5 "ValveBiped.Bip01_L_Finger4" 4
  6 "ValveBiped.Bip01_L_Finger41" 5
  7 "ValveBiped.Bip01_L_Finger42" 6
  8 "ValveBiped.Bip01_L_Finger3" 4
  9 "ValveBiped.Bip01_L_Finger31" 8
  10 "ValveBiped.Bip01_L_Finger32" 9
  11 "ValveBiped.Bip01_L_Finger2" 4
  12 "ValveBiped.Bip01_L_Finger21" 11
  13 "ValveBiped.Bip01_L_Finger22" 12
  14 "ValveBiped.Bip01_L_Finger1" 4
  15 "ValveBiped.Bip01_L_Finger11" 14
  16 "ValveBiped.Bip01_L_Finger12" 15
  17 "ValveBiped.Bip01_L_Finger0" 4
  18 "ValveBiped.Bip01_L_Finger01" 17
  19 "ValveBiped.Bip01_L_Finger02" 18
  20 "ValveBiped.Bip01_R_Clavicle" 0
  21 "ValveBiped.Bip01_R_UpperArm" 20
  22 "ValveBiped.Bip01_R_Forearm" 21
  23 "ValveBiped.Bip01_R_Hand" 22
  24 "ValveBiped.Bip01_R_Finger4" 23
  25 "ValveBiped.Bip01_R_Finger41" 24
  26 "ValveBiped.Bip01_R_Finger42" 25
  27 "ValveBiped.Bip01_R_Finger3" 23
  28 "ValveBiped.Bip01_R_Finger31" 27
  29 "ValveBiped.Bip01_R_Finger32" 28
  30 "ValveBiped.Bip01_R_Finger2" 23
  31 "ValveBiped.Bip01_R_Finger21" 30
  32 "ValveBiped.Bip01_R_Finger22" 31
  33 "ValveBiped.Bip01_R_Finger1" 23
  34 "ValveBiped.Bip01_R_Finger11" 33
  35 "ValveBiped.Bip01_R_Finger12" 34
  36 "ValveBiped.Bip01_R_Finger0" 23
  37 "ValveBiped.Bip01_R_Finger01" 36
  38 "ValveBiped.Bip01_R_Finger02" 37
  39 "v_weapon.sg552_Parent" -1
  40 "v_weapon.sg552_Trigger" 39
  41 "v_weapon.sg552_Release" 39
  42 "v_weapon.sg552_Clip" 39
  43 "v_weapon.sg552_Chamber" 39
  44 "v_weapon.sg552_Clip2" -1
end
skeleton
  time 0
    0 1.000000 -2.460938 -8.710938 -1.570783 -1.217361 -1.570804
    1 2.033348 1.000767 1.937660 3.099206 -0.162014 1.679995
    2 6.028145 0.000003 0.000002 -2.486685 -0.491638 0.331383
    3 11.692553 0.000081 -0.000005 -0.095892 0.068025 -0.404357
    4 11.481672 -0.000089 -0.000024 -0.049929 0.308663 0.006753
    5 3.281557 0.002119 -1.379481 0.099718 -0.198220 -1.489132
    6 1.324282 -0.000008 0.000005 0.000000 -0.035657 -0.863336
    7 0.819336 -0.000001 -0.000002 0.000000 0.000000 -0.523588
    8 3.711854 0.109255 -0.568167 -0.004825 -0.297517 -1.490876
    9 1.609408 0.000006 -0.000007 -0.002087 0.004812 -0.839808
    10 0.993191 -0.000008 0.000002 0.001475 0.002258 -0.454029
    11 3.786031 0.203224 0.243937 -0.050387 -0.349663 -0.966842
    12 1.680664 -0.000008 -0.000002 0.003628 -0.001845 -1.352714
    13 1.255859 0.000004 0.000000 0.000000 0.000000 0.135256
    14 3.594223 0.299551 1.113710 -0.118448 -0.375299 -0.093640
    15 1.719433 0.000002 -0.000004 -0.000004 0.000016 -1.171500
    16 1.002930 0.000000 0.000000 0.000000 0.000000 -0.071985
    17 0.298214 -0.634094 0.426700 -1.461079 -1.010830 0.045848
    18 2.633557 0.000002 -0.000006 0.260363 0.087765 0.097200
    19 1.308564 -0.000001 -0.000002 -0.003102 -0.044188 0.019715
    20 2.033356 1.000772 -1.937610 -0.128177 0.172990 -2.038336
    21 6.028141 0.000000 -0.000002 -0.849796 0.928173 -2.567275
    22 11.692554 0.000000 -0.000003 0.017388 -0.035403 -0.936009
    23 11.481705 -0.000001 -0.000004 -0.536161 0.094502 0.189948
    24 2.914335 -0.023166 1.400147 -0.075472 -0.048637 -0.941149
    25 1.285220 -0.000004 -0.000002 0.000002 0.103404 -0.651571
    26 0.838745 -0.000004 0.000000 -0.151749 0.050986 -1.774228
    27 3.368063 0.007379 0.622456 0.035972 -0.077320 -1.016278
    28 1.605513 0.000000 0.000001 0.000003 0.122000 -1.086905
    29 1.020508 0.000006 0.000000 0.015302 -0.014046 -1.343762
    30 3.551622 0.023919 -0.204473 0.012608 -0.103497 -0.905355
    31 1.666992 0.000000 -0.000001 -0.000008 0.157406 -1.208297
    32 1.236531 0.000004 0.000006 0.000002 -0.000011 -1.483435
    33 3.449668 0.054213 -1.089087 0.060556 0.148343 -0.256606
    34 1.711618 0.000004 0.000013 0.000003 -0.045717 -1.228296
    35 1.005912 0.000000 0.000007 0.009867 -0.019480 -0.744829
    36 0.075535 -0.738746 -0.759724 1.318769 0.360556 -0.448671
    37 2.508557 -0.000006 -0.000010 -0.000002 -0.000001 0.359159
    38 1.296845 0.285164 -0.113292 0.026718 0.040506 0.717846
    39 -7.966885 -21.775742 -11.822129 1.570757 0.000000 -3.141597
    40 -0.000002 3.287109 -0.573233 -0.376954 0.000000 0.000000
    41 -0.000002 2.156256 -2.244137 0.000000 0.000000 0.000000
    42 -0.000003 2.917979 -4.039055 0.000000 0.000000 0.000000
    43 -0.097351 5.335948 -3.376940 0.000000 0.000000 0.000000
    44 -5.815069 27.963417 -8.904310 1.570757 0.000000 -4.712382
  time 1
    0 1.000000 -2.460938 -8.710938 -1.570783 -1.217361 -1.570804
    1 2.033348 1.000767 1.937660 3.099206 -0.162014 1.679995
    2 6.028145 0.000003 0.000002 -2.486685 -0.491638 0.331383
    3 11.692553 0.000081 -0.000005 -0.095892 0.068025 -0.404357
    4 11.481672 -0.000089 -0.000024 -0.049929 0.308663 0.006753
    5 3.281557 0.002119 -1.379481 0.099718 -0.198220 -1.489132
    6 1.324282 -0.000008 0.000005 0.000000 -0.035657 -0.863336
    7 0.819336 -0.000001 -0.000002 0.000000 0.000000 -0.523588
    8 3.711854 0.109255 -0.568167 -0.004825 -0.297517 -1.490876
    9 1.609408 0.000006 -0.000007 -0.002087 0.004812 -0.839808
    10 0.993191 -0.000008 0.000002 0.001475 0.002258 -0.454029
    11 3.786031 0.203224 0.243937 -0.050387 -0.349663 -0.966842
    12 1.680664 -0.000008 -0.000002 0.003628 -0.001845 -1.352714
    13 1.255859 0.000004 0.000000 0.000000 0.000000 0.135256
    14 3.594223 0.299551 1.113710 -0.118448 -0.375299 -0.093640
    15 1.719433 0.000002 -0.000004 -0.000004 0.000016 -1.171500
    16 1.002930 0.000000 0.000000 0.000000 0.000000 -0.071985
    17 0.298214 -0.634094 0.426700 -1.461079 -1.010830 0.045848
    18 2.633557 0.000002 -0.000006 0.260363 0.087765 0.097200
    19 1.308564 -0.000001 -0.000002 -0.003102 -0.044188 0.019715
    20 2.033356 1.000772 -1.937610 -0.128177 0.172990 -2.038336
    21 6.028141 0.000000 -0.000002 -0.849796 0.928173 -2.567275
    22 11.692554 0.000000 -0.000003 0.017388 -0.035403 -0.936009
    23 11.481705 -0.000001 -0.000004 -0.536161 0.094502 0.189948
    24 2.914335 -0.023166 1.400147 -0.075472 -0.048637 -0.941149
    25 1.285220 -0.000004 -0.000002 0.000002 0.103404 -0.651571
    26 0.838745 -0.000004 0.000000 -0.151749 0.050986 -1.774228
    27 3.368063 0.007379 0.622456 0.035972 -0.077320 -1.016278
    28 1.605513 0.000000 0.000001 0.000003 0.122000 -1.086905
    29 1.020508 0.000006 0.000000 0.015302 -0.014046 -1.343762
    30 3.551622 0.023919 -0.204473 0.012608 -0.103497 -0.905355
    31 1.666992 0.000000 -0.000001 -0.000008 0.157406 -1.208297
    32 1.236531 0.000004 0.000006 0.000002 -0.000011 -1.483435
    33 3.449668 0.054213 -1.089087 0.060556 0.148343 -0.256606
    34 1.711618 0.000004 0.000013 0.000003 -0.045717 -1.228296
    35 1.005912 0.000000 0.000007 0.009867 -0.019480 -0.744829
    36 0.075535 -0.738746 -0.759724 1.318769 0.360556 -0.448671
    37 2.508557 -0.000006 -0.000010 -0.000002 -0.000001 0.359159
    38 1.296845 0.285164 -0.113292 0.026718 0.040506 0.717846
    39 -7.966885 -21.775742 -11.822129 1.570757 0.000000 -3.141597
    40 -0.000002 3.287109 -0.573233 -0.376954 0.000000 0.000000
    41 -0.000002 2.156256 -2.244137 0.000000 0.000000 0.000000
    42 -0.000003 2.917979 -4.039055 0.000000 0.000000 0.000000
    43 -0.097351 5.335948 -3.376940 0.000000 0.000000 0.000000
    44 -5.815069 27.963417 -8.904310 1.570757 0.000000 -4.712382
  time 2
    0 1.000000 -2.460938 -8.710938 -1.570783 -1.217361 -1.570804
    1 2.033348 1.000767 1.937660 3.099206 -0.162014 1.679995
    2 6.028145 0.000003 0.000002 -2.468084 -0.397780 0.273281
    3 11.692553 0.000081 -0.000005 -0.117632 0.105045 -0.654373
    4 11.481672 -0.000089 -0.000024 -0.003825 0.307337 0.205470
    5 3.281557 0.002119 -1.383388 0.099718 -0.198220 -1.489132
    6 1.324282 -0.000008 0.000005 0.000000 -0.035669 -0.863336
    7 0.819336 -0.000001 -0.000002 0.000000 0.000000 -0.523588
    8 3.711854 0.109255 -0.568167 -0.004825 -0.297517 -1.490876
    9 1.609408 0.000006 -0.000007 -0.002087 0.004812 -0.839808
    10 0.993191 -0.000008 0.000002 0.001475 0.002258 -0.454029
    11 3.786031 0.203224 0.243937 -0.050387 -0.349663 -0.966842
    12 1.680664 -0.000008 -0.000002 0.003628 -0.001845 -1.352714
    13 1.255859 0.000004 0.000000 0.000000 0.000000 0.135256
    14 3.594223 0.299551 1.109803 -0.118432 -0.375299 -0.093640
    15 1.719433 0.000002 -0.000004 -0.000004 0.000016 -1.171529
    16 1.002930 0.000000 0.000000 0.000000 0.000000 -0.071985
    17 0.298214 -0.634094 0.430606 -1.461079 -1.010830 0.045848
    18 2.633557 0.000002 -0.000006 0.260363 0.087765 0.097200
    19 1.308564 -0.000001 -0.000002 -0.003102 -0.044188 0.019715
    20 2.033356 1.000772 -1.937610 -0.128177 0.172990 -2.038336
    21 6.028141 0.000000 -0.000002 -0.823577 0.977626 -2.534569
    22 11.692554 0.000000 -0.000003 0.023524 -0.041167 -1.042253
    23 11.481705 -0.000001 -0.000004 -0.517517 0.090203 0.223875
    24 2.914335 -0.023166 1.400147 -0.075472 -0.048637 -0.941149
    25 1.285220 -0.000004 -0.000002 0.000002 0.102829 -0.648225
    26 0.838745 -0.000004 0.000000 -0.152180 0.050830 -1.777817
    27 3.368063 0.007379 0.622456 0.035972 -0.077320 -1.016278
    28 1.605513 0.000000 0.000001 0.000003 0.121988 -1.086905
    29 1.020508 0.000006 0.000000 0.015302 -0.014046 -1.343762
    30 3.551622 0.023919 -0.204473 0.012608 -0.103497 -0.905355
    31 1.666992 0.000000 -0.000001 -0.000008 0.157406 -1.208297
    32 1.236531 0.000004 0.000006 0.000002 -0.000011 -1.483435
    33 3.449668 0.054213 -1.089087 0.060543 0.148330 -0.256894
    34 1.711618 0.000004 0.000013 0.000003 -0.045884 -1.233624
    35 1.005912 0.000000 0.000007 0.009915 -0.019540 -0.746308
    36 0.075535 -0.738746 -0.759724 1.316755 0.364392 -0.450900
    37 2.508557 -0.000006 -0.000010 -0.000002 -0.000001 0.359159
    38 1.292939 0.289070 -0.113292 0.026358 0.039907 0.722100
    39 -7.775473 -21.240569 -11.415867 1.584785 0.006793 -3.121823
    40 -0.000002 3.287109 -0.573233 -0.381595 0.000000 0.000000
    41 -0.000002 2.156256 -2.244137 0.000000 0.000000 0.000000
    42 -0.000003 2.917979 -4.039055 0.000000 0.000000 0.000000
    43 -0.097351 5.335948 -1.302658 0.000000 0.000000 0.000000
    44 -5.815069 27.963417 -8.904310 1.570757 0.000000 -4.712382
  time 3
    0 1.000000 -2.460938 -8.710938 -1.570783 -1.217361 -1.570804
    1 2.033348 1.000767 1.937660 3.099206 -0.162014 1.679995
    2 6.028145 0.000003 0.000002 -2.427290 -0.304817 0.170337
    3 11.692553 0.000081 -0.000005 -0.154017 0.139968 -0.949982
    4 11.481672 -0.000089 -0.000024 0.019790 0.261523 0.388045
    5 3.285463 0.002119 -1.383388 0.099926 -0.198220 -1.489413
    6 1.324282 -0.000008 0.000005 0.000000 -0.035681 -0.863336
    7 0.819336 -0.000001 -0.000002 0.000000 0.000000 -0.523588
    8 3.711854 0.105348 -0.568167 -0.004585 -0.297517 -1.491204
    9 1.609408 0.000006 -0.000007 -0.002087 0.004800 -0.839808
    10 0.993191 -0.000008 0.000002 0.001475 0.002258 -0.454029
    11 3.786031 0.203224 0.243937 -0.050171 -0.349759 -0.967172
    12 1.680664 -0.000008 -0.000002 0.003628 -0.001845 -1.352714
    13 1.255859 0.000004 0.000000 0.000000 0.000000 0.135256
    14 3.594223 0.299551 1.113710 -0.118401 -0.375515 -0.093914
    15 1.719433 0.000002 -0.000004 -0.000004 0.000016 -1.171500
    16 1.002930 0.000000 0.000000 0.000000 0.000000 -0.071985
    17 0.298214 -0.634094 0.430606 -1.461060 -1.011029 0.045566
    18 2.637464 0.000002 -0.000006 0.260363 0.087765 0.097200
    19 1.308564 -0.000001 -0.000002 -0.003102 -0.044188 0.019715
    20 2.033356 1.000772 -1.937610 -0.128177 0.172990 -2.038336
    21 6.028141 0.000000 -0.000002 -0.674365 1.060897 -2.354159
    22 11.692554 0.000000 -0.000003 0.035161 -0.049832 -1.228796
    23 11.481705 -0.000001 -0.000004 -0.517517 0.111317 0.264395
    24 2.910429 -0.027073 1.396241 -0.075224 -0.048840 -0.940777
    25 1.285220 -0.000004 -0.000002 0.000002 0.102242 -0.644879
    26 0.838745 -0.000004 0.000000 -0.153355 0.050422 -1.787080
    27 3.364156 0.003473 0.622456 0.036235 -0.077512 -1.015929
    28 1.605513 0.000000 0.000001 0.000003 0.122000 -1.086905
    29 1.020508 0.000006 0.000000 0.015302 -0.014046 -1.343762
    30 3.551622 0.023919 -0.204473 0.012836 -0.103701 -0.905007
    31 1.666992 0.000000 -0.000001 -0.000008 0.157406 -1.208297
    32 1.236531 0.000004 0.000006 0.000002 -0.000011 -1.483474
    33 3.449668 0.050307 -1.085181 0.060556 0.148035 -0.257169
    34 1.711618 0.000004 0.000013 0.000003 -0.046220 -1.245341
    35 1.005912 0.000000 0.000007 0.010035 -0.019660 -0.749642
    36 0.075535 -0.738746 -0.759724 1.314850 0.367939 -0.452709
    37 2.508557 -0.000006 -0.000010 -0.000002 -0.000001 0.359159
    38 1.296845 0.292977 -0.113292 0.025951 0.039152 0.729399
    39 -7.712971 -19.912404 -11.681500 1.597711 0.012043 -3.106688
    40 -0.000002 3.287109 -0.573233 -0.392346 0.000000 0.000000
    41 -0.000002 2.156256 -2.244137 0.000000 0.000000 0.000000
    42 -0.000003 2.917979 -4.039055 0.000000 0.000000 0.000000
    43 -0.097351 5.335948 -2.341752 0.000000 0.000000 0.000000
    44 -5.815069 27.963417 -8.904310 1.570757 0.000000 -4.712382
  time 4
    0 1.000000 -2.460938 -8.710938 -1.570783 -1.217361 -1.570804
    1 2.033348 1.000767 1.937660 3.099206 -0.162014 1.679995
    2 6.028145 0.000003 0.000002 -2.441260 -0.330785 0.203825
    3 11.692553 0.000081 -0.000005 -0.139755 0.128679 -0.843626
    4 11.481672 -0.000089 -0.000024 0.020614 0.289698 0.324764
    5 3.281557 0.002119 -1.379481 0.099700 -0.198220 -1.489132
    6 1.324282 -0.000008 0.000005 0.000000 -0.035669 -0.863336
    7 0.819336 -0.000001 -0.000002 0.000000 0.000000 -0.523588
    8 3.711854 0.109255 -0.568167 -0.004825 -0.297517 -1.490876
    9 1.609408 0.000006 -0.000007 -0.002087 0.004812 -0.839808
    10 0.993191 -0.000008 0.000002 0.001475 0.002258 -0.454029
    11 3.786031 0.203224 0.247844 -0.050387 -0.349663 -0.966842
    12 1.680664 -0.000008 -0.000002 0.003628 -0.001845 -1.352714
    13 1.255859 0.000004 0.000000 0.000000 0.000000 0.135256
    14 3.594223 0.299551 1.113710 -0.118448 -0.375299 -0.093640
    15 1.719433 0.000002 -0.000004 -0.000004 0.000016 -1.171500
    16 1.002930 0.000000 0.000000 0.000000 0.000000 -0.071985
    17 0.298214 -0.634094 0.430606 -1.461079 -1.010830 0.045848
    18 2.633557 0.000002 -0.000006 0.260363 0.087765 0.097200
    19 1.308564 -0.000001 -0.000002 -0.003102 -0.044188 0.019715
    20 2.033356 1.000772 -1.937610 -0.128177 0.172990 -2.038336
    21 6.028141 0.000000 -0.000002 -0.740247 1.027915 -2.433509
    22 11.692554 0.000000 -0.000003 0.028677 -0.044822 -1.157880
    23 11.481705 -0.000001 -0.000004 -0.513353 0.101521 0.248543
    24 2.914335 -0.023166 1.400147 -0.075472 -0.048649 -0.941149
    25 1.285220 -0.000004 -0.000002 0.000002 0.101654 -0.641546
    26 0.838745 -0.000004 0.000000 -0.154889 0.049859 -1.799642
    27 3.368063 0.007379 0.622456 0.035972 -0.077320 -1.016278
    28 1.605513 0.000000 0.000001 0.000003 0.122000 -1.086905
    29 1.020508 0.000006 0.000000 0.015302 -0.014046 -1.343762
    30 3.551622 0.023919 -0.204473 0.012608 -0.103497 -0.905355
    31 1.666992 0.000000 -0.000001 -0.000008 0.157406 -1.208297
    32 1.236531 0.000004 0.000006 0.000002 -0.000011 -1.483435
    33 3.449668 0.054213 -1.089087 0.060454 0.148355 -0.258188
    34 1.711618 0.000004 0.000013 0.000003 -0.046568 -1.257088
    35 1.005912 0.000000 0.000007 0.010131 -0.019780 -0.752954
    36 0.075535 -0.738746 -0.759724 1.312681 0.372062 -0.455358
    37 2.508557 -0.000006 -0.000010 -0.000002 -0.000001 0.359159
    38 1.292939 0.308602 -0.113292 0.025531 0.038301 0.737956
    39 -7.681720 -20.463202 -11.517432 1.596609 0.013210 -3.108428
    40 -0.000002 3.287109 -0.573233 -0.404683 0.000000 0.000000
    41 -0.000002 2.156256 -2.244137 0.000000 0.000000 0.000000
    42 -0.000003 2.917979 -4.039055 0.000000 0.000000 0.000000
    43 -0.097351 5.335948 -3.376940 0.000000 0.000000 0.000000
    44 -5.815069 27.963417 -8.904310 1.570757 0.000000 -4.712382
  time 5
    0 1.000000 -2.460938 -8.710938 -1.570783 -1.217361 -1.570804
    1 2.033348 1.000767 1.937660 3.099206 -0.162014 1.679995
    2 6.028145 0.000003 0.000002 -2.452038 -0.360985 0.233591
    3 11.692553 0.000081 -0.000005 -0.127651 0.116886 -0.744855
    4 11.481672 -0.000089 -0.000024 0.012593 0.310302 0.260472
    5 3.281557 0.002119 -1.379481 0.099822 -0.198508 -1.488992
    6 1.324282 -0.000008 0.000005 0.000000 -0.035681 -0.863336
    7 0.819336 -0.000001 -0.000002 0.000000 0.000000 -0.523588
    8 3.711854 0.109255 -0.568167 -0.004705 -0.297805 -1.490739
    9 1.609408 0.000006 -0.000007 -0.002087 0.004812 -0.839808
    10 0.993191 -0.000008 0.000002 0.001475 0.002258 -0.454029
    11 3.786031 0.203224 0.247844 -0.050435 -0.349963 -0.966643
    12 1.680664 -0.000008 -0.000002 0.003628 -0.001845 -1.352714
    13 1.255859 0.000004 0.000000 0.000000 0.000000 0.135256
    14 3.594223 0.299551 1.113710 -0.118727 -0.375467 -0.093339
    15 1.719433 0.000002 -0.000004 -0.000004 0.000016 -1.171500
    16 1.002930 0.000000 0.000000 0.000000 0.000000 -0.071985
    17 0.298214 -0.630188 0.430606 -1.461606 -1.010950 0.046469
    18 2.633557 0.000002 -0.000006 0.260363 0.087765 0.097200
    19 1.308564 -0.000001 -0.000002 -0.003102 -0.044188 0.019715
    20 2.033356 1.000772 -1.937610 -0.128177 0.172990 -2.038336
    21 6.028141 0.000000 -0.000002 -0.783342 0.995410 -2.484702
    22 11.692554 0.000000 -0.000003 0.024914 -0.041023 -1.089811
    23 11.481705 -0.000001 -0.000004 -0.515103 0.098830 0.230468
    24 2.914335 -0.023166 1.400147 -0.075472 -0.048649 -0.941149
    25 1.285220 -0.000004 -0.000002 0.000002 0.101067 -0.638227
    26 0.838745 -0.000004 0.000000 -0.156531 0.049248 -1.812882
    27 3.368063 0.007379 0.618550 0.035972 -0.077320 -1.016278
    28 1.605513 0.000000 0.000001 0.000003 0.121988 -1.086905
    29 1.020508 0.000006 0.000000 0.015302 -0.014046 -1.343762
    30 3.551622 0.023919 -0.204473 0.012608 -0.103497 -0.905355
    31 1.666992 0.000000 -0.000001 -0.000008 0.157406 -1.208297
    32 1.236531 0.000004 0.000006 0.000002 -0.000011 -1.483435
    33 3.449668 0.054213 -1.085181 0.060429 0.148355 -0.258500
    34 1.711618 0.000004 0.000013 0.000003 -0.046723 -1.262446
    35 1.005912 0.000000 0.000007 0.010179 -0.019840 -0.754478
    36 0.075535 -0.738746 -0.759724 1.310607 0.375897 -0.457611
    37 2.508557 -0.000006 -0.000010 -0.000002 -0.000001 0.359159
    38 1.292939 0.316415 -0.113292 0.025088 0.037438 0.745985
    39 -7.709064 -20.916340 -11.540871 1.592203 0.014002 -3.114981
    40 -0.000002 3.287109 -0.573233 -0.413888 0.000000 0.000000
    41 -0.000002 2.156256 -2.244137 0.000000 0.000000 0.000000
    42 -0.000003 2.917979 -4.039055 0.000000 0.000000 0.000000
    43 -0.097351 5.335948 -3.376940 0.000000 0.000000 0.000000
    44 -5.815069 27.963417 -8.904310 1.570757 0.000000 -4.712382
  time 6
    0 1.000000 -2.460938 -8.710938 -1.570783 -1.217361 -1.570804
    1 2.033348 1.000767 1.937660 3.099206 -0.162014 1.679995
    2 6.028145 0.000003 0.000002 -2.461777 -0.391959 0.261259
    3 11.692553 0.000081 -0.000005 -0.117356 0.104673 -0.651792
    4 11.481672 -0.000089 -0.000024 -0.001576 0.326536 0.194893
    5 3.281557 0.002119 -1.383388 0.099752 -0.198472 -1.488887
    6 1.324282 -0.000008 0.000005 0.000000 -0.035657 -0.863336
    7 0.819336 -0.000001 -0.000002 0.000000 0.000000 -0.523588
    8 3.711854 0.109255 -0.572073 -0.004777 -0.297781 -1.490657
    9 1.609408 0.000006 -0.000007 -0.002087 0.004812 -0.839808
    10 0.993191 -0.000008 0.000002 0.001475 0.002258 -0.454029
    11 3.786031 0.207131 0.247844 -0.050483 -0.349903 -0.966577
    12 1.680664 -0.000008 -0.000002 0.003628 -0.001845 -1.352714
    13 1.255859 0.000004 0.000000 0.000000 0.000000 0.135256
    14 3.594223 0.303457 1.113710 -0.118711 -0.375383 -0.093284
    15 1.719433 0.000002 -0.000004 -0.000004 0.000016 -1.171500
    16 1.002930 0.000000 0.000000 0.000000 0.000000 -0.071985
    17 0.298214 -0.630188 0.426700 -1.461551 -1.010870 0.046526
    18 2.633557 0.000002 -0.000006 0.260363 0.087765 0.097200
    19 1.308564 -0.000001 -0.000002 -0.003102 -0.044188 0.019715
    20 2.033356 1.000772 -1.937610 -0.128177 0.172990 -2.038336
    21 6.028141 0.000000 -0.000002 -0.811564 0.967202 -2.520822
    22 11.692554 0.000000 -0.000003 0.024363 -0.044007 -1.027242
    23 11.481705 -0.000001 -0.000004 -0.520534 0.103100 0.211653
    24 2.910429 -0.023166 1.400147 -0.075224 -0.048900 -0.940813
    25 1.285220 -0.000004 -0.000002 0.000002 0.100480 -0.634881
    26 0.838745 -0.000004 0.000000 -0.157969 0.048684 -1.824522
    27 3.364156 0.007379 0.618550 0.036223 -0.077572 -1.015954
    28 1.605513 0.000000 0.000001 0.000003 0.122000 -1.086905
    29 1.020508 0.000006 0.000000 0.015302 -0.014046 -1.343762
    30 3.547715 0.027825 -0.200566 0.012824 -0.103761 -0.905031
    31 1.666992 0.000000 -0.000001 -0.000008 0.157406 -1.208297
    32 1.240438 0.000004 0.000006 0.000002 -0.000011 -1.483435
    33 3.445761 0.054213 -1.081275 0.060467 0.147996 -0.257733
    34 1.711618 0.000004 0.000013 0.000003 -0.046508 -1.254999
    35 1.005912 0.000000 0.000007 0.010119 -0.019768 -0.752336
    36 0.075535 -0.734839 -0.759724 1.308618 0.379396 -0.459481
    37 2.508557 -0.000006 -0.000010 -0.000002 -0.000001 0.359147
    38 1.289033 0.324228 -0.109386 0.024680 0.036659 0.751714
    39 -7.759847 -21.287446 -11.681500 1.586474 0.014085 -3.123737
    40 -0.000002 3.287109 -0.573233 -0.415435 0.000000 0.000000
    41 -0.000002 2.156256 -2.244137 0.000000 0.000000 0.000000
    42 -0.000003 2.917979 -4.039055 0.000000 0.000000 0.000000
    43 -0.097351 5.335948 -3.376940 0.000000 0.000000 0.000000
    44 -5.815069 27.963417 -8.904310 1.570757 0.000000 -4.712382
  time 7
    0 1.000000 -2.460938 -8.710938 -1.570783 -1.217361 -1.570804
    1 2.033348 1.000767 1.937660 3.099206 -0.162014 1.679995
    2 6.028145 0.000003 0.000002 -2.472075 -0.420451 0.287782
    3 11.692553 0.000081 -0.000005 -0.108895 0.092617 -0.566003
    4 11.481672 -0.000089 -0.000024 -0.018293 0.340819 0.131658
    5 3.281557 0.002119 -1.379481 0.099718 -0.198220 -1.489132
    6 1.324282 -0.000008 0.000005 0.000000 -0.035669 -0.863336
    7 0.819336 -0.000001 -0.000002 0.000000 0.000000 -0.523588
    8 3.711854 0.109255 -0.568167 -0.004825 -0.297517 -1.490876
    9 1.609408 0.000006 -0.000007 -0.002087 0.004812 -0.839808
    10 0.993191 -0.000008 0.000002 0.001475 0.002258 -0.454029
    11 3.786031 0.203224 0.247844 -0.050387 -0.349663 -0.966842
    12 1.680664 -0.000008 -0.000002 0.003628 -0.001845 -1.352714
    13 1.255859 0.000004 0.000000 0.000000 0.000000 0.135256
    14 3.594223 0.299551 1.113710 -0.118448 -0.375299 -0.093640
    15 1.719433 0.000002 -0.000004 -0.000004 0.000016 -1.171500
    16 1.002930 0.000000 0.000000 0.000000 0.000000 -0.071985
    17 0.298214 -0.634094 0.430606 -1.461079 -1.010830 0.045848
    18 2.637464 0.000002 -0.000006 0.260363 0.087765 0.097200
    19 1.308564 -0.000001 -0.000002 -0.003102 -0.044188 0.019715
    20 2.033356 1.000772 -1.937610 -0.128177 0.172990 -2.038336
    21 6.028141 0.000000 -0.000002 -0.830823 0.942456 -2.543859
    22 11.692554 0.000000 -0.000003 0.023368 -0.042953 -0.973731
    23 11.481705 -0.000001 -0.000004 -0.526567 0.106404 0.194615
    24 2.910429 -0.023166 1.404053 -0.075224 -0.048900 -0.940813
    25 1.285220 -0.000004 -0.000002 0.000002 0.099893 -0.631561
    26 0.838745 -0.000004 0.000000 -0.158904 0.048301 -1.832233
    27 3.364156 0.007379 0.622456 0.036223 -0.077560 -1.015954
    28 1.605513 0.000000 0.000001 0.000003 0.122000 -1.086905
    29 1.020508 0.000006 0.000000 0.015302 -0.014046 -1.343762
    30 3.547715 0.027825 -0.200566 0.012824 -0.103761 -0.905031
    31 1.666992 0.000000 -0.000001 -0.000008 0.157406 -1.208297
    32 1.236531 0.000004 0.000006 0.000002 -0.000011 -1.483435
    33 3.445761 0.054213 -1.081275 0.060581 0.147996 -0.256259
    34 1.711618 0.000004 0.000013 0.000003 -0.045717 -1.228296
    35 1.005912 0.000000 0.000007 0.009867 -0.019480 -0.744829
    36 0.075535 -0.734839 -0.755817 1.306521 0.383219 -0.461746
    37 2.508557 -0.000006 -0.000010 -0.000002 -0.000001 0.359159
    38 1.285126 0.324228 -0.109386 0.024321 0.036048 0.753368
    39 -7.822349 -21.580423 -11.829942 1.580966 0.013544 -3.131855
    40 -0.000002 3.287109 -0.573233 -0.404683 0.000000 0.000000
    41 -0.000002 2.156256 -2.244137 0.000000 0.000000 0.000000
    42 -0.000003 2.917979 -4.039055 0.000000 0.000000 0.000000
    43 -0.097351 5.335948 -3.376940 0.000000 0.000000 0.000000
    44 -5.815069 27.963417 -8.904310 1.570757 0.000000 -4.712382
  time 8
    0 1.000000 -2.460938 -8.710938 -1.570783 -1.217361 -1.570804
    1 2.033348 1.000767 1.937660 3.099206 -0.162014 1.679995
    2 6.028145 0.000003 0.000002 -2.480857 -0.448576 0.310871
    3 11.692553 0.000081 -0.000005 -0.102196 0.081160 -0.488738
    4 11.481672 -0.000089 -0.000024 -0.032986 0.349404 0.074448
    5 3.281557 0.002119 -1.383388 0.099718 -0.198220 -1.489132
    6 1.324282 -0.000008 0.000005 0.000000 -0.035669 -0.863336
    7 0.819336 -0.000001 -0.000002 0.000000 0.000000 -0.523588
    8 3.711854 0.109255 -0.568167 -0.004825 -0.297517 -1.490876
    9 1.609408 0.000006 -0.000007 -0.002087 0.004812 -0.839808
    10 0.993191 -0.000008 0.000002 0.001475 0.002258 -0.454029
    11 3.786031 0.203224 0.243937 -0.050387 -0.349663 -0.966842
    12 1.680664 -0.000008 -0.000002 0.003628 -0.001845 -1.352714
    13 1.255859 0.000004 0.000000 0.000000 0.000000 0.135256
    14 3.594223 0.299551 1.113710 -0.118448 -0.375299 -0.093640
    15 1.719433 0.000002 -0.000004 -0.000004 0.000016 -1.171500
    16 1.002930 0.000000 0.000000 0.000000 0.000000 -0.071985
    17 0.298214 -0.634094 0.430606 -1.461079 -1.010830 0.045848
    18 2.637464 0.000002 -0.000006 0.260363 0.087765 0.097200
    19 1.308564 -0.000001 -0.000002 -0.003102 -0.044188 0.019715
    20 2.033356 1.000772 -1.937610 -0.128177 0.172990 -2.038336
    21 6.028141 0.000000 -0.000002 -0.842836 0.921807 -2.559596
    22 11.692554 0.000000 -0.000003 0.018658 -0.037404 -0.932967
    23 11.481705 -0.000001 -0.000004 -0.530007 0.103948 0.181800
    24 2.914335 -0.023166 1.400147 -0.075472 -0.048637 -0.941149
    25 1.285220 -0.000004 -0.000002 0.000002 0.099293 -0.628229
    26 0.838745 -0.000004 0.000000 -0.159047 0.048241 -1.833494
    27 3.368063 0.007379 0.618550 0.035972 -0.077320 -1.016278
    28 1.605513 0.000000 0.000001 0.000003 0.122000 -1.086905
    29 1.020508 0.000006 0.000000 0.015302 -0.014046 -1.343762
    30 3.551622 0.023919 -0.204473 0.012608 -0.103497 -0.905355
    31 1.666992 0.000000 -0.000001 -0.000008 0.157406 -1.208297
    32 1.236531 0.000004 0.000006 0.000002 -0.000011 -1.483435
    33 3.449668 0.054213 -1.089087 0.060823 0.148291 -0.253095
    34 1.711618 0.000004 0.000013 0.000003 -0.044099 -1.178130
    35 1.005912 0.000000 0.000007 0.009496 -0.019013 -0.732066
    36 0.075535 -0.738746 -0.759724 1.304327 0.387378 -0.464382
    37 2.508557 -0.000006 -0.000010 -0.000002 -0.000001 0.359147
    38 1.292939 0.320321 -0.109386 0.024033 0.035688 0.749149
    39 -7.857506 -21.791367 -11.915882 1.577514 0.012669 -3.136726
    40 -0.000002 3.287109 -0.573233 -0.376954 0.000000 0.000000
    41 -0.000002 2.156256 -2.244137 0.000000 0.000000 0.000000
    42 -0.000003 2.917979 -4.039055 0.000000 0.000000 0.000000
    43 -0.097351 5.335948 -3.376940 0.000000 0.000000 0.000000
    44 -5.815069 27.963417 -8.904310 1.570757 0.000000 -4.712382
  time 9
    0 1.000000 -2.460938 -8.710938 -1.570783 -1.217361 -1.570804
    1 2.033348 1.000767 1.937660 3.099206 -0.162014 1.679995
    2 6.028145 0.000003 0.000002 -2.488840 -0.472590 0.330525
    3 11.692553 0.000081 -0.000005 -0.097354 0.071320 -0.425237
    4 11.481672 -0.000089 -0.000024 -0.042582 0.354165 0.030023
    5 3.281557 0.002119 -1.379481 0.099700 -0.198220 -1.489132
    6 1.324282 -0.000008 0.000005 0.000000 -0.035669 -0.863336
    7 0.819336 -0.000001 -0.000002 0.000000 0.000000 -0.523588
    8 3.711854 0.109255 -0.568167 -0.004825 -0.297517 -1.490876
    9 1.609408 0.000006 -0.000007 -0.002087 0.004812 -0.839808
    10 0.993191 -0.000008 0.000002 0.001475 0.002258 -0.454029
    11 3.786031 0.203224 0.243937 -0.050387 -0.349663 -0.966842
    12 1.680664 -0.000008 -0.000002 0.003628 -0.001845 -1.352714
    13 1.255859 0.000004 0.000000 0.000000 0.000000 0.135256
    14 3.594223 0.299551 1.109803 -0.118448 -0.375299 -0.093640
    15 1.719433 0.000002 -0.000004 -0.000004 0.000016 -1.171500
    16 1.002930 0.000000 0.000000 0.000000 0.000000 -0.071985
    17 0.298214 -0.634094 0.426700 -1.461079 -1.010830 0.045848
    18 2.637464 0.000002 -0.000006 0.260363 0.087765 0.097200
    19 1.308564 -0.000001 -0.000002 -0.003102 -0.044188 0.019715
    20 2.033356 1.000772 -1.937610 -0.128177 0.172990 -2.038336
    21 6.028141 0.000000 -0.000002 -0.860665 0.908757 -2.582823
    22 11.692554 0.000000 -0.000003 0.019773 -0.040328 -0.900809
    23 11.481705 -0.000001 -0.000004 -0.531093 0.104650 0.170874
    24 2.914335 -0.023166 1.400147 -0.075472 -0.048649 -0.941149
    25 1.285220 -0.000004 -0.000002 0.000002 0.098706 -0.624909
    26 0.838745 -0.000004 0.000000 -0.158113 0.048625 -1.825783
    27 3.368063 0.007379 0.622456 0.035972 -0.077320 -1.016278
    28 1.605513 0.000000 0.000001 0.000003 0.122000 -1.086905
    29 1.020508 0.000006 0.000000 0.015302 -0.014046 -1.343762
    30 3.551622 0.023919 -0.200566 0.012608 -0.103497 -0.905355
    31 1.666992 0.000000 -0.000001 -0.000008 0.157406 -1.208297
    32 1.236531 0.000004 0.000006 0.000002 -0.000011 -1.483435
    33 3.449668 0.054213 -1.085181 0.061218 0.148227 -0.247606
    34 1.711618 0.000004 0.000013 0.000003 -0.041666 -1.108800
    35 1.005912 0.000000 0.000007 0.008992 -0.018414 -0.716012
    36 0.075535 -0.738746 -0.759724 1.302194 0.391189 -0.466659
    37 2.508557 -0.000006 -0.000010 -0.000002 -0.000001 0.359159
    38 1.292939 0.308602 -0.109386 0.023865 0.035712 0.737297
    39 -7.873132 -21.971060 -11.908069 1.575898 0.011627 -3.138466
    40 -0.000002 3.287109 -0.573233 -0.290409 0.000000 0.000000
    41 -0.000002 2.156256 -2.244137 0.000000 0.000000 0.000000
    42 -0.000003 2.917979 -4.039055 0.000000 0.000000 0.000000
    43 -0.097351 5.335948 -3.376940 0.000000 0.000000 0.000000
    44 -5.815069 27.963417 -8.904310 1.570757 0.000000 -4.712382
  time 10
    0 1.000000 -2.460938 -8.710938 -1.570783 -1.217361 -1.570804
    1 2.033348 1.000767 1.937660 3.099206 -0.162014 1.679995
    2 6.028145 0.000003 0.000002 -2.498100 -0.491272 0.350560
    3 11.692553 0.000081 -0.000005 -0.093746 0.062763 -0.371433
    4 11.481672 -0.000089 -0.000024 -0.047755 0.359121 -0.003594
    5 3.281557 0.002119 -1.383388 0.099700 -0.198220 -1.489132
    6 1.324282 -0.000008 0.000005 0.000000 -0.035669 -0.863336
    7 0.819336 -0.000001 -0.000002 0.000000 0.000000 -0.523588
    8 3.711854 0.109255 -0.572073 -0.004825 -0.297517 -1.490876
    9 1.609408 0.000006 -0.000007 -0.002087 0.004812 -0.839808
    10 0.993191 -0.000008 0.000002 0.001475 0.002258 -0.454029
    11 3.786031 0.203224 0.243937 -0.050387 -0.349663 -0.966842
    12 1.680664 -0.000008 -0.000002 0.003628 -0.001845 -1.352714
    13 1.255859 0.000004 0.000000 0.000000 0.000000 0.135256
    14 3.594223 0.299551 1.109803 -0.118448 -0.375299 -0.093640
    15 1.719433 0.000002 -0.000004 -0.000004 0.000016 -1.171500
    16 1.002930 0.000000 0.000000 0.000000 0.000000 -0.071985
    17 0.298214 -0.634094 0.426700 -1.461079 -1.010830 0.045848
    18 2.633557 0.000002 -0.000006 0.260363 0.087765 0.097200
    19 1.308564 -0.000001 -0.000002 -0.003102 -0.044188 0.019715
    20 2.033356 1.000772 -1.937610 -0.128177 0.172990 -2.038336
    21 6.028141 0.000000 -0.000002 -0.867911 0.895190 -2.591640
    22 11.692554 0.000000 -0.000003 0.014236 -0.030884 -0.878228
    23 11.481705 -0.000001 -0.000004 -0.531636 0.097602 0.163725
    24 2.914335 -0.023166 1.400147 -0.075472 -0.048649 -0.941149
    25 1.285220 -0.000004 -0.000002 0.000002 0.098107 -0.621563
    26 0.838745 -0.000004 0.000000 -0.155788 0.049523 -1.806868
    27 3.368063 0.007379 0.618550 0.035972 -0.077320 -1.016278
    28 1.605513 0.000000 0.000001 0.000003 0.122000 -1.086905
    29 1.020508 0.000006 0.000000 0.015302 -0.014046 -1.343762
    30 3.551622 0.023919 -0.204473 0.012608 -0.103497 -0.905355
    31 1.666992 0.000000 -0.000001 -0.000008 0.157406 -1.208297
    32 1.236531 0.000004 0.000006 0.000002 -0.000011 -1.483435
    33 3.449668 0.054213 -1.089087 0.061663 0.148150 -0.241314
    34 1.711618 0.000004 0.000013 0.000003 -0.038586 -1.026633
    35 1.005912 0.000000 0.000007 0.008441 -0.017695 -0.697420
    36 0.075535 -0.738746 -0.759724 1.300049 0.395024 -0.468937
    37 2.508557 -0.000006 -0.000010 -0.000002 -0.000001 0.359159
    38 1.300752 0.269539 -0.109386 0.024117 0.036695 0.703201
    39 -7.880945 -22.096064 -11.888538 1.574723 0.010460 -3.139452
    40 -0.000002 3.287109 -0.573233 -0.145198 0.000000 0.000000
    41 -0.000002 2.156256 -2.244137 0.000000 0.000000 0.000000
    42 -0.000003 2.917979 -4.039055 0.000000 0.000000 0.000000
    43 -0.097351 5.335948 -3.376940 0.000000 0.000000 0.000000
    44 -5.815069 27.963417 -8.904310 1.570757 0.000000 -4.712382
  time 11
    0 1.000000 -2.460938 -8.710938 -1.570783 -1.217361 -1.570804
    1 2.033348 1.000767 1.937660 3.099206 -0.162014 1.679995
    2 6.028145 0.000003 0.000002 -2.506004 -0.502506 0.366302
    3 11.692553 0.000081 -0.000005 -0.091577 0.056915 -0.335147
    4 11.481672 -0.000089 -0.000024 -0.051653 0.362516 -0.025945
    5 3.281557 0.002119 -1.383388 0.099700 -0.198220 -1.489132
    6 1.324282 -0.000008 0.000005 0.000000 -0.035669 -0.863336
    7 0.819336 -0.000001 -0.000002 0.000000 0.000000 -0.523588
    8 3.711854 0.109255 -0.572073 -0.004825 -0.297517 -1.490876
    9 1.609408 0.000006 -0.000007 -0.002087 0.004812 -0.839808
    10 0.993191 -0.000008 0.000002 0.001475 0.002258 -0.454029
    11 3.786031 0.203224 0.243937 -0.050387 -0.349663 -0.966842
    12 1.680664 -0.000008 -0.000002 0.003628 -0.001845 -1.352714
    13 1.255859 0.000004 0.000000 0.000000 0.000000 0.135256
    14 3.594223 0.299551 1.109803 -0.118448 -0.375299 -0.093640
    15 1.719433 0.000002 -0.000004 -0.000004 0.000016 -1.171500
    16 1.002930 0.000000 0.000000 0.000000 0.000000 -0.071985
    17 0.298214 -0.634094 0.430606 -1.461079 -1.010830 0.045848
    18 2.637464 0.000002 -0.000006 0.260363 0.087765 0.097200
    19 1.308564 -0.000001 -0.000002 -0.003102 -0.044188 0.019715
    20 2.033356 1.000772 -1.937610 -0.128177 0.172990 -2.038336
    21 6.028141 0.000000 -0.000002 -0.870390 0.890893 -2.593346
    22 11.692554 0.000000 -0.000003 0.011048 -0.023969 -0.872081
    23 11.481705 -0.000001 -0.000004 -0.531515 0.091899 0.162466
    24 2.914335 -0.023166 1.400147 -0.075472 -0.048637 -0.941149
    25 1.285220 -0.000004 -0.000002 0.000002 0.097520 -0.618244
    26 0.838745 -0.000004 0.000000 -0.151749 0.050986 -1.774180
    27 3.368063 0.007379 0.622456 0.035972 -0.077320 -1.016278
    28 1.605513 0.000000 0.000001 0.000003 0.122000 -1.086905
    29 1.020508 0.000006 0.000000 0.015302 -0.014046 -1.343762
    30 3.551622 0.023919 -0.204473 0.012608 -0.103497 -0.905355
    31 1.666992 0.000000 -0.000001 -0.000008 0.157406 -1.208297
    32 1.236531 0.000004 0.000006 0.000002 -0.000011 -1.483435
    33 3.449668 0.054213 -1.089087 0.062096 0.148073 -0.235429
    34 1.711618 0.000004 0.000013 0.000003 -0.035098 -0.938138
    35 1.005912 0.000000 0.000007 0.007866 -0.016916 -0.677083
    36 0.075535 -0.738746 -0.759724 1.297892 0.398847 -0.471214
    37 2.508557 -0.000006 -0.000010 -0.000002 -0.000001 0.359159
    38 1.308564 0.199224 -0.109386 0.025040 0.039931 0.641312
    39 -7.888757 -22.135128 -11.857287 1.573915 0.009126 -3.139742
    40 -0.000002 3.287109 -0.573233 0.000000 0.000000 0.000000
    41 -0.000002 2.156256 -2.244137 0.000000 0.000000 0.000000
    42 -0.000003 2.917979 -4.039055 0.000000 0.000000 0.000000
    43 -0.097351 5.335948 -3.376940 0.000000 0.000000 0.000000
    44 -5.815069 27.963417 -8.904310 1.570757 0.000000 -4.712382
  time 12
    0 1.000000 -2.460938 -8.710938 -1.570783 -1.217361 -1.570804
    1 2.033348 1.000767 1.937660 3.099206 -0.162014 1.679995
    2 6.028145 0.000003 0.000002 -2.508399 -0.505965 0.370977
    3 11.692553 0.000081 -0.000005 -0.091026 0.055309 -0.325371
    4 11.481672 -0.000089 -0.000024 -0.053452 0.359784 -0.033349
    5 3.281557 0.002119 -1.383388 0.099718 -0.198220 -1.489132
    6 1.324282 -0.000008 0.000005 0.000000 -0.035669 -0.863336
    7 0.819336 -0.000001 -0.000002 0.000000 0.000000 -0.523588
    8 3.711854 0.109255 -0.572073 -0.004825 -0.297517 -1.490876
    9 1.609408 0.000006 -0.000007 -0.002087 0.004812 -0.839808
    10 0.993191 -0.000008 0.000002 0.001487 0.002258 -0.454029
    11 3.786031 0.203224 0.243937 -0.050387 -0.349663 -0.966842
    12 1.680664 -0.000008 -0.000002 0.003628 -0.001845 -1.352714
    13 1.255859 0.000004 0.000000 0.000000 0.000000 0.135256
    14 3.594223 0.299551 1.109803 -0.118432 -0.375299 -0.093640
    15 1.719433 0.000002 -0.000004 -0.000004 0.000016 -1.171500
    16 1.002930 0.000000 0.000000 0.000000 0.000000 -0.071985
    17 0.298214 -0.634094 0.426700 -1.461079 -1.010830 0.045848
    18 2.633557 0.000002 -0.000006 0.260363 0.087745 0.097200
    19 1.308564 -0.000001 -0.000002 -0.003090 -0.044188 0.019715
    20 2.033356 1.000772 -1.937610 -0.128177 0.172990 -2.038336
    21 6.028141 0.000000 -0.000002 -0.877159 0.899089 -2.604912
    22 11.692554 0.000000 -0.000003 0.018778 -0.041107 -0.876222
    23 11.481705 -0.000001 -0.000004 -0.532360 0.100029 0.164651
    24 2.910429 -0.023166 1.404053 -0.075472 -0.048637 -0.941149
    25 1.285220 -0.000004 -0.000002 0.000002 0.096920 -0.614911
    26 0.838745 -0.000004 0.000000 -0.141095 0.054125 -1.689791
    27 3.364156 0.007379 0.618550 0.035972 -0.077320 -1.016278
    28 1.605513 0.000000 0.000001 0.000003 0.122000 -1.086905
    29 1.020508 0.000006 0.000000 0.015302 -0.014046 -1.343762
    30 3.547715 0.023919 -0.204473 0.012608 -0.103497 -0.905355
    31 1.666992 0.000000 -0.000001 -0.000008 0.157406 -1.208297
    32 1.236531 0.000004 0.000006 0.000002 -0.000011 -1.483435
    33 3.445761 0.054213 -1.089087 0.062096 0.148073 -0.235429
    34 1.711618 0.000004 0.000013 0.000003 -0.031791 -0.849614
    35 1.005912 0.000000 0.000007 0.007267 -0.016065 -0.655686
    36 0.071629 -0.734839 -0.759724 1.295722 0.402658 -0.473503
    37 2.508557 -0.000006 -0.000010 -0.000002 -0.000001 0.359159
    38 1.320284 0.121096 -0.113292 0.026334 0.044964 0.569464
    39 -7.896570 -22.111689 -11.829942 1.573328 0.007751 -3.139626
    40 -0.000002 3.287109 -0.573233 0.000000 0.000000 0.000000
    41 -0.000002 2.156256 -2.244137 0.000000 0.000000 0.000000
    42 -0.000003 2.917979 -4.039055 0.000000 0.000000 0.000000
    43 -0.097351 5.335948 -3.376940 0.000000 0.000000 0.000000
    44 -5.815069 27.963417 -8.904310 1.570757 0.000000 -4.712382
  time 13
    0 1.000000 -2.460938 -8.710938 -1.570783 -1.217361 -1.570804
    1 2.033348 1.000767 1.937660 3.099206 -0.162014 1.679995
    2 6.028145 0.000003 0.000002 -2.502092 -0.498069 0.358670
    3 11.692553 0.000081 -0.000005 -0.092740 0.060163 -0.355167
    4 11.481672 -0.000089 -0.000024 -0.053377 0.348155 -0.019322
    5 3.281557 0.002119 -1.379481 0.099718 -0.198220 -1.489132
    6 1.324282 -0.000008 0.000005 0.000000 -0.035669 -0.863336
    7 0.819336 -0.000001 -0.000002 0.000000 0.000000 -0.523588
    8 3.711854 0.109255 -0.568167 -0.004825 -0.297517 -1.490876
    9 1.609408 0.000006 -0.000007 -0.002087 0.004812 -0.839808
    10 0.993191 -0.000008 0.000002 0.001475 0.002258 -0.454029
    11 3.786031 0.203224 0.243937 -0.050387 -0.349663 -0.966842
    12 1.680664 -0.000008 -0.000002 0.003628 -0.001845 -1.352714
    13 1.255859 0.000004 0.000000 0.000000 0.000000 0.135256
    14 3.594223 0.299551 1.113710 -0.118448 -0.375299 -0.093640
    15 1.719433 0.000002 -0.000004 -0.000004 0.000016 -1.171500
    16 1.002930 0.000000 0.000000 0.000000 0.000000 -0.071985
    17 0.298214 -0.634094 0.430606 -1.461079 -1.010830 0.045848
    18 2.637464 0.000002 -0.000006 0.260363 0.087765 0.097200
    19 1.308564 -0.000001 -0.000002 -0.003102 -0.044188 0.019715
    20 2.033356 1.000772 -1.937610 -0.128177 0.172990 -2.038336
    21 6.028141 0.000000 -0.000002 -0.871248 0.904619 -2.595053
    22 11.692554 0.000000 -0.000003 0.016836 -0.034815 -0.890910
    23 11.481705 -0.000001 -0.000004 -0.532179 0.095175 0.171022
    24 2.914335 -0.023166 1.400147 -0.075472 -0.048637 -0.941149
    25 1.285220 -0.000004 -0.000002 0.000002 0.096321 -0.611592
    26 0.838745 -0.000004 0.000000 -0.121991 0.057421 -1.542305
    27 3.368063 0.007379 0.618550 0.035972 -0.077320 -1.016278
    28 1.605513 0.000000 0.000001 0.000003 0.122000 -1.086879
    29 1.020508 0.000006 0.000000 0.015302 -0.014046 -1.343762
    30 3.551622 0.023919 -0.204473 0.012608 -0.103497 -0.905355
    31 1.666992 0.000000 -0.000001 -0.000008 0.157406 -1.208297
    32 1.236531 0.000004 0.000006 0.000002 -0.000011 -1.483435
    33 3.449668 0.054213 -1.089087 0.062096 0.148073 -0.235441
    34 1.711618 0.000004 0.000013 0.000003 -0.028507 -0.767477
    35 1.005912 0.000000 0.000007 0.006667 -0.015202 -0.634047
    36 0.075535 -0.738746 -0.759724 1.293529 0.406469 -0.475804
    37 2.508557 -0.000006 -0.000010 -0.000002 -0.000001 0.359159
    38 1.328096 0.058595 -0.113292 0.027353 0.049530 0.511351
    39 -7.900476 -22.037468 -11.814317 1.572960 0.006251 -3.139104
    40 -0.000002 3.287109 -0.573233 0.000000 0.000000 0.000000
    41 -0.000002 2.156256 -2.244137 0.000000 0.000000 0.000000
    42 -0.000003 2.917979 -4.039055 0.000000 0.000000 0.000000
    43 -0.097351 5.335948 -3.376940 0.000000 0.000000 0.000000
    44 -5.815069 27.963417 -8.904310 1.570757 0.000000 -4.712382
  time 14
    0 1.000000 -2.460938 -8.710938 -1.570783 -1.217361 -1.570804
    1 2.033348 1.000767 1.937660 3.099206 -0.162014 1.679995
    2 6.028145 0.000003 0.000002 -2.495386 -0.494325 0.346553
    3 11.692553 0.000081 -0.000005 -0.094154 0.063818 -0.377846
    4 11.481672 -0.000089 -0.000024 -0.052103 0.332155 -0.007365
    5 3.281557 0.002119 -1.379481 0.099822 -0.198100 -1.489413
    6 1.324282 -0.000008 0.000005 0.000000 -0.035669 -0.863336
    7 0.819336 -0.000001 -0.000002 0.000000 0.000000 -0.523588
    8 3.711854 0.105348 -0.568167 -0.004693 -0.297397 -1.491204
    9 1.609408 0.000006 -0.000007 -0.002087 0.004812 -0.839808
    10 0.993191 -0.000008 0.000002 0.001475 0.002258 -0.454029
    11 3.786031 0.203224 0.243937 -0.050219 -0.349603 -0.967205
    12 1.680664 -0.000008 -0.000002 0.003628 -0.001845 -1.352714
    13 1.255859 0.000004 0.000000 0.000000 0.000000 0.135256
    14 3.594223 0.299551 1.113710 -0.118293 -0.375383 -0.093996
    15 1.719433 0.000002 -0.000004 -0.000004 0.000016 -1.171500
    16 1.002930 0.000000 0.000000 0.000000 0.000000 -0.071985
    17 0.298214 -0.634094 0.426700 -1.460842 -1.010930 0.045340
    18 2.633557 0.000002 -0.000006 0.260363 0.087765 0.097200
    19 1.308564 -0.000001 -0.000002 -0.003102 -0.044188 0.019715
    20 2.033356 1.000772 -1.937610 -0.128177 0.172990 -2.038336
    21 6.028141 0.000000 -0.000002 -0.862476 0.913571 -2.583392
    22 11.692554 0.000000 -0.000003 0.016333 -0.033521 -0.908897
    23 11.481705 -0.000001 -0.000004 -0.533627 0.093888 0.178615
    24 2.914335 -0.023166 1.400147 -0.075472 -0.048637 -0.941149
    25 1.285220 -0.000004 -0.000002 0.000002 0.095806 -0.608756
    26 0.842651 -0.000004 0.000000 -0.103775 0.056678 -1.402677
    27 3.368063 0.007379 0.618550 0.035972 -0.077320 -1.016278
    28 1.605513 0.000000 0.000001 0.000003 0.122000 -1.086905
    29 1.020508 0.000006 0.000000 0.015302 -0.014046 -1.343762
    30 3.551622 0.023919 -0.204473 0.012608 -0.103497 -0.905355
    31 1.666992 0.000000 -0.000001 -0.000008 0.157406 -1.208297
    32 1.236531 0.000004 0.000006 0.000002 -0.000011 -1.483435
    33 3.449668 0.054213 -1.089087 0.062096 0.148073 -0.235441
    34 1.711618 0.000004 0.000013 0.000003 -0.028147 -0.758394
    35 1.005912 0.000000 0.000007 0.006224 -0.014495 -0.616470
    36 0.075535 -0.738746 -0.759724 1.293290 0.406901 -0.476055
    37 2.508557 -0.000006 -0.000010 -0.000002 -0.000001 0.359159
    38 1.328096 0.050782 -0.113292 0.026849 0.046702 0.511878
    39 -7.927821 -21.931996 -11.814317 1.572079 0.003792 -3.139974
    40 -0.000002 3.287109 -0.573233 0.000000 0.000000 0.000000
    41 -0.000002 2.156256 -2.244137 0.000000 0.000000 0.000000
    42 -0.000003 2.917979 -4.039055 0.000000 0.000000 0.000000
    43 -0.097351 5.335948 -3.376940 0.000000 0.000000 0.000000
    44 -5.815069 27.963417 -8.904310 1.570757 0.000000 -4.712382
  time 15
    0 1.000000 -2.460938 -8.710938 -1.570783 -1.217361 -1.570804
    1 2.033348 1.000767 1.937660 3.099206 -0.162014 1.679995
    2 6.028145 0.000003 0.000002 -2.489558 -0.492656 0.336344
    3 11.692553 0.000081 -0.000005 -0.095328 0.066694 -0.395911
    4 11.481672 -0.000089 -0.000024 -0.050528 0.316000 0.002338
    5 3.281557 0.002119 -1.383388 0.099718 -0.198220 -1.489132
    6 1.324282 -0.000008 0.000005 0.000000 -0.035669 -0.863336
    7 0.819336 -0.000001 -0.000002 0.000000 0.000000 -0.523588
    8 3.711854 0.109255 -0.568167 -0.004825 -0.297517 -1.490876
    9 1.609408 0.000006 -0.000007 -0.002087 0.004812 -0.839808
    10 0.993191 -0.000008 0.000002 0.001475 0.002258 -0.454029
    11 3.786031 0.203224 0.243937 -0.050387 -0.349663 -0.966842
    12 1.680664 -0.000008 -0.000002 0.003628 -0.001845 -1.352714
    13 1.255859 0.000004 0.000000 0.000000 0.000000 0.135256
    14 3.594223 0.299551 1.109803 -0.118448 -0.375299 -0.093640
    15 1.719433 0.000002 -0.000004 -0.000004 0.000016 -1.171500
    16 1.002930 0.000000 0.000000 0.000000 0.000000 -0.071985
    17 0.298214 -0.634094 0.430606 -1.461079 -1.010830 0.045848
    18 2.633557 0.000002 -0.000006 0.260363 0.087765 0.097200
    19 1.308564 -0.000001 -0.000002 -0.003102 -0.044188 0.019715
    20 2.033356 1.000772 -1.937610 -0.128177 0.172990 -2.038336
    21 6.028141 0.000000 -0.000002 -0.856184 0.925388 -2.576566
    22 11.692554 0.000000 -0.000003 0.019353 -0.040184 -0.927144
    23 11.481705 -0.000001 -0.000004 -0.535316 0.097046 0.186208
    24 2.914335 -0.023166 1.400147 -0.075472 -0.048649 -0.941149
    25 1.285220 -0.000004 -0.000002 0.000002 0.095338 -0.606109
    26 0.838745 -0.000004 0.000000 -0.086325 0.055216 -1.269062
    27 3.368063 0.007379 0.618550 0.035972 -0.077320 -1.016278
    28 1.605513 0.000000 0.000001 0.000003 0.122000 -1.086905
    29 1.020508 0.000006 0.000000 0.015302 -0.014046 -1.343762
    30 3.551622 0.023919 -0.204473 0.012608 -0.103497 -0.905355
    31 1.666992 0.000000 -0.000001 -0.000008 0.157406 -1.208297
    32 1.236531 0.000004 0.000006 0.000002 -0.000011 -1.483435
    33 3.449668 0.054213 -1.089087 0.062096 0.148073 -0.235441
    34 1.711618 0.000004 0.000013 0.000003 -0.028327 -0.762966
    35 1.005912 0.000000 0.000007 0.005805 -0.013824 -0.600218
    36 0.075535 -0.738746 -0.759724 1.293409 0.406685 -0.475936
    37 2.508557 -0.000006 -0.000010 -0.000002 -0.000001 0.359159
    38 1.328096 0.050782 -0.113292 0.026070 0.042615 0.523120
    39 -7.959072 -21.822618 -11.822129 1.571124 0.001167 -3.141075
    40 -0.000002 3.287109 -0.573233 0.000000 0.000000 0.000000
    41 -0.000002 2.156256 -2.244137 0.000000 0.000000 0.000000
    42 -0.000003 2.917979 -4.039055 0.000000 0.000000 0.000000
    43 -0.097351 5.335948 -3.376940 0.000000 0.000000 0.000000
    44 -5.815069 27.963417 -8.904310 1.570757 0.000000 -4.712382
  time 16
    0 1.000000 -2.460938 -8.710938 -1.570783 -1.217361 -1.570804
    1 2.033348 1.000767 1.937660 3.099206 -0.162014 1.679995
    2 6.028145 0.000003 0.000002 -2.486685 -0.491638 0.331383
    3 11.692553 0.000081 -0.000005 -0.095892 0.068025 -0.404357
    4 11.481672 -0.000089 -0.000024 -0.049929 0.308663 0.006753
    5 3.281557 0.002119 -1.379481 0.099718 -0.198220 -1.489132
    6 1.324282 -0.000008 0.000005 0.000000 -0.035657 -0.863336
    7 0.819336 -0.000001 -0.000002 0.000000 0.000000 -0.523588
    8 3.711854 0.109255 -0.568167 -0.004825 -0.297517 -1.490876
    9 1.609408 0.000006 -0.000007 -0.002087 0.004812 -0.839808
    10 0.993191 -0.000008 0.000002 0.001475 0.002258 -0.454029
    11 3.786031 0.203224 0.243937 -0.050387 -0.349663 -0.966842
    12 1.680664 -0.000008 -0.000002 0.003628 -0.001845 -1.352714
    13 1.255859 0.000004 0.000000 0.000000 0.000000 0.135256
    14 3.594223 0.299551 1.113710 -0.118448 -0.375299 -0.093640
    15 1.719433 0.000002 -0.000004 -0.000004 0.000016 -1.171500
    16 1.002930 0.000000 0.000000 0.000000 0.000000 -0.071985
    17 0.298214 -0.634094 0.426700 -1.461079 -1.010830 0.045848
    18 2.633557 0.000002 -0.000006 0.260363 0.087765 0.097200
    19 1.308564 -0.000001 -0.000002 -0.003102 -0.044188 0.019715
    20 2.033356 1.000772 -1.937610 -0.128177 0.172990 -2.038336
    21 6.028141 0.000000 -0.000002 -0.849796 0.928173 -2.567275
    22 11.692554 0.000000 -0.000003 0.017388 -0.035403 -0.936009
    23 11.481705 -0.000001 -0.000004 -0.536161 0.094502 0.189948
    24 2.914335 -0.023166 1.400147 -0.075472 -0.048637 -0.941149
    25 1.285220 -0.000004 -0.000002 0.000002 0.095123 -0.604926
    26 0.838745 -0.000004 0.000000 -0.078523 0.054425 -1.209456
    27 3.368063 0.007379 0.622456 0.035972 -0.077320 -1.016278
    28 1.605513 0.000000 0.000001 0.000003 0.122000 -1.086905
    29 1.020508 0.000006 0.000000 0.015302 -0.014046 -1.343762
    30 3.551622 0.023919 -0.204473 0.012608 -0.103497 -0.905355
    31 1.666992 0.000000 -0.000001 -0.000008 0.157406 -1.208297
    32 1.236531 0.000004 0.000006 0.000002 -0.000011 -1.483435
    33 3.449668 0.054213 -1.089087 0.062096 0.148073 -0.235441
    34 1.711618 0.000004 0.000013 0.000003 -0.028507 -0.767477
    35 1.005912 0.000000 0.000007 0.005613 -0.013536 -0.593086
    36 0.075535 -0.738746 -0.759724 1.293529 0.406469 -0.475804
    37 2.508557 -0.000006 -0.000010 -0.000002 -0.000001 0.359159
    38 1.328096 0.050782 -0.113292 0.025663 0.040518 0.530179
    39 -7.966885 -21.775742 -11.822129 1.570757 0.000000 -3.141597
    40 -0.000002 3.287109 -0.573233 0.000000 0.000000 0.000000
    41 -0.000002 2.156256 -2.244137 0.000000 0.000000 0.000000
    42 -0.000003 2.917979 -4.039055 0.000000 0.000000 0.000000
    43 -0.097351 5.335948 -3.376940 0.000000 0.000000 0.000000
    44 -5.815069 27.963417 -8.904310 1.570757 0.000000 -4.712382
end
