// Created by Crowbar++ 0.74
version 1
nodes
  0 "ValveBiped.Bip01_Spine4" -1
  1 "ValveBiped.Bip01_L_Clavicle" 0
  2 "ValveBiped.Bip01_L_UpperArm" 1
  3 "ValveBiped.Bip01_L_Forearm" 2
  4 "ValveBiped.Bip01_L_Hand" 3
  5 "ValveBiped.Bip01_L_Finger4" 4
  6 "ValveBiped.Bip01_L_Finger41" 5
  7 "ValveBiped.Bip01_L_Finger42" 6
  8 "ValveBiped.Bip01_L_Finger3" 4
  9 "ValveBiped.Bip01_L_Finger31" 8
  10 "ValveBiped.Bip01_L_Finger32" 9
  11 "ValveBiped.Bip01_L_Finger2" 4
  12 "ValveBiped.Bip01_L_Finger21" 11
  13 "ValveBiped.Bip01_L_Finger22" 12
  14 "ValveBiped.Bip01_L_Finger1" 4
  15 "ValveBiped.Bip01_L_Finger11" 14
  16 "ValveBiped.Bip01_L_Finger12" 15
  17 "ValveBiped.Bip01_L_Finger0" 4
  18 "ValveBiped.Bip01_L_Finger01" 17
  19 "ValveBiped.Bip01_L_Finger02" 18
  20 "ValveBiped.Bip01_R_Clavicle" 0
  21 "ValveBiped.Bip01_R_UpperArm" 20
  22 "ValveBiped.Bip01_R_Forearm" 21
  23 "ValveBiped.Bip01_R_Hand" 22
  24 "ValveBiped.Bip01_R_Finger4" 23
  25 "ValveBiped.Bip01_R_Finger41" 24
  26 "ValveBiped.Bip01_R_Finger42" 25
  27 "ValveBiped.Bip01_R_Finger3" 23
  28 "ValveBiped.Bip01_R_Finger31" 27
  29 "ValveBiped.Bip01_R_Finger32" 28
  30 "ValveBiped.Bip01_R_Finger2" 23
  31 "ValveBiped.Bip01_R_Finger21" 30
  32 "ValveBiped.Bip01_R_Finger22" 31
  33 "ValveBiped.Bip01_R_Finger1" 23
  34 "ValveBiped.Bip01_R_Finger11" 33
  35 "ValveBiped.Bip01_R_Finger12" 34
  36 "ValveBiped.Bip01_R_Finger0" 23
  37 "ValveBiped.Bip01_R_Finger01" 36
  38 "ValveBiped.Bip01_R_Finger02" 37
  39 "v_weapon.sg552_Parent" -1
  40 "v_weapon.sg552_Trigger" 39
  41 "v_weapon.sg552_Release" 39
  42 "v_weapon.sg552_Clip" 39
  43 "v_weapon.sg552_Chamber" 39
  44 "v_weapon.sg552_Clip2" -1
end
skeleton
  time 0
    0 1.000000 -2.460938 -8.710938 -1.570783 -1.217361 -1.570804
    1 2.033348 1.000767 1.937660 3.099206 -0.162014 1.679995
    2 6.028145 0.000003 0.000002 -2.486685 -0.491638 0.331383
    3 11.692553 0.000081 -0.000005 -0.095892 0.068025 -0.404357
    4 11.481672 -0.000089 -0.000024 -0.049929 0.308663 0.006753
    5 3.281557 0.002119 -1.379481 0.099718 -0.198220 -1.489132
    6 1.324282 -0.000008 0.000005 0.000000 -0.035681 -0.863336
    7 0.819336 -0.000002 0.000001 0.000000 0.000000 -0.523588
    8 3.711854 0.109255 -0.568167 -0.004825 -0.297517 -1.490876
    9 1.609408 0.000006 -0.000007 -0.002087 0.004812 -0.839808
    10 0.993191 -0.000008 0.000002 0.001475 0.002258 -0.454029
    11 3.786031 0.203224 0.243937 -0.050387 -0.349663 -0.966842
    12 1.680664 -0.000008 -0.000002 0.003628 -0.001845 -1.352714
    13 1.255859 0.000004 0.000000 0.000000 0.000000 0.135256
    14 3.594223 0.299551 1.113710 -0.118448 -0.375299 -0.093640
    15 1.719433 0.000002 -0.000004 0.000001 0.000010 -1.171526
    16 1.002930 -0.000004 0.000000 0.000000 0.000000 -0.071985
    17 0.298214 -0.634094 0.426700 -1.461079 -1.010830 0.045848
    18 2.633557 0.000002 -0.000006 0.260363 0.087765 0.097200
    19 1.308564 -0.000001 -0.000002 -0.003102 -0.044188 0.019715
    20 2.033356 1.000772 -1.937610 -0.128177 0.172990 -2.038336
    21 6.028141 0.000000 -0.000002 -0.849796 0.928173 -2.567275
    22 11.692554 0.000000 -0.000003 0.017388 -0.035403 -0.936009
    23 11.481705 -0.000001 -0.000004 -0.536161 0.094502 0.189948
    24 2.914335 -0.023166 1.400147 -0.075472 -0.048637 -0.941149
    25 1.284180 -0.000002 0.000001 0.000007 0.095136 -0.604946
    26 0.842285 -0.000002 -0.000001 -0.078528 0.054443 -1.209530
    27 3.368063 0.007379 0.622456 0.035972 -0.077320 -1.016278
    28 1.605513 0.000000 0.000001 0.000003 0.122000 -1.086905
    29 1.020536 0.000002 -0.000003 0.015295 -0.014044 -1.343759
    30 3.551622 0.023919 -0.204473 0.012608 -0.103497 -0.905355
    31 1.666992 0.000000 -0.000001 -0.000008 0.157406 -1.208297
    32 1.236531 0.000004 0.000006 0.000002 -0.000011 -1.483435
    33 3.449668 0.054213 -1.089087 0.062096 0.148073 -0.235429
    34 1.711618 0.000004 0.000013 0.000003 -0.046088 -1.317396
    35 0.999023 0.000004 0.000001 0.005618 -0.013549 -0.593093
    36 0.075535 -0.738746 -0.759724 1.293529 0.406469 -0.475804
    37 2.508557 -0.000006 -0.000010 -0.000002 -0.000001 0.359159
    38 1.328096 0.050782 -0.113292 0.025663 0.040518 0.530179
    39 -7.966885 -21.775742 -11.822129 1.570757 0.000000 -3.141597
    40 -0.000002 3.287109 -0.573233 -0.335089 0.000000 0.000000
    41 -0.000002 2.156256 -2.244137 0.000000 0.000000 0.000000
    42 -0.000003 2.917979 -4.039055 0.000000 0.000000 0.000000
    43 -0.097351 5.335948 -3.376940 0.000000 0.000000 0.000000
    44 -5.815069 27.963417 -8.904310 1.570757 0.000000 -4.712382
  time 1
    0 1.000000 -2.460938 -8.710938 -1.570783 -1.217361 -1.570804
    1 2.033348 1.000767 1.937660 3.099206 -0.162014 1.679995
    2 6.028145 0.000003 0.000002 -2.486685 -0.491638 0.331383
    3 11.692553 0.000081 -0.000005 -0.095892 0.068025 -0.404357
    4 11.481672 -0.000089 -0.000024 -0.049929 0.308663 0.006753
    5 3.281557 0.002119 -1.379481 0.099718 -0.198220 -1.489132
    6 1.324282 -0.000008 0.000005 0.000000 -0.035681 -0.863336
    7 0.819336 -0.000002 0.000001 0.000000 0.000000 -0.523588
    8 3.711854 0.109255 -0.568167 -0.004825 -0.297517 -1.490876
    9 1.609408 0.000006 -0.000007 -0.002087 0.004812 -0.839808
    10 0.993191 -0.000008 0.000002 0.001475 0.002258 -0.454029
    11 3.786031 0.203224 0.243937 -0.050387 -0.349663 -0.966842
    12 1.680664 -0.000008 -0.000002 0.003628 -0.001845 -1.352714
    13 1.255859 0.000004 0.000000 0.000000 0.000000 0.135256
    14 3.594223 0.299551 1.113710 -0.118448 -0.375299 -0.093640
    15 1.719433 0.000002 -0.000004 0.000001 0.000010 -1.171526
    16 1.002930 -0.000004 0.000000 0.000000 0.000000 -0.071985
    17 0.298214 -0.634094 0.426700 -1.461079 -1.010830 0.045848
    18 2.633557 0.000002 -0.000006 0.260363 0.087765 0.097200
    19 1.308564 -0.000001 -0.000002 -0.003102 -0.044188 0.019715
    20 2.033356 1.000772 -1.937610 -0.128177 0.172990 -2.038336
    21 6.028141 0.000000 -0.000002 -0.849796 0.928173 -2.567275
    22 11.692554 0.000000 -0.000003 0.017388 -0.035403 -0.936009
    23 11.481705 -0.000001 -0.000004 -0.536161 0.094502 0.189948
    24 2.914335 -0.023166 1.400147 -0.075472 -0.048637 -0.941149
    25 1.284180 -0.000002 0.000001 0.000007 0.095136 -0.604946
    26 0.842285 -0.000002 -0.000001 -0.078528 0.054443 -1.209530
    27 3.368063 0.007379 0.622456 0.035972 -0.077320 -1.016278
    28 1.605513 0.000000 0.000001 0.000003 0.122000 -1.086905
    29 1.020536 0.000002 -0.000003 0.015295 -0.014044 -1.343759
    30 3.551622 0.023919 -0.204473 0.012608 -0.103497 -0.905355
    31 1.666992 0.000000 -0.000001 -0.000008 0.157406 -1.208297
    32 1.236531 0.000004 0.000006 0.000002 -0.000011 -1.483435
    33 3.449668 0.054213 -1.089087 0.062096 0.148073 -0.235429
    34 1.711618 0.000004 0.000013 0.000003 -0.046088 -1.317396
    35 0.999023 0.000004 0.000001 0.005618 -0.013549 -0.593093
    36 0.075535 -0.738746 -0.759724 1.293529 0.406469 -0.475804
    37 2.508557 -0.000006 -0.000010 -0.000002 -0.000001 0.359159
    38 1.328096 0.050782 -0.113292 0.025663 0.040518 0.530179
    39 -7.966885 -21.775742 -11.822129 1.570757 0.000000 -3.141597
    40 -0.000002 3.287109 -0.573233 -0.335089 0.000000 0.000000
    41 -0.000002 2.156256 -2.244137 0.000000 0.000000 0.000000
    42 -0.000003 2.917979 -4.039055 0.000000 0.000000 0.000000
    43 -0.097351 5.335948 -3.376940 0.000000 0.000000 0.000000
    44 -5.815069 27.963417 -8.904310 1.570757 0.000000 -4.712382
  time 2
    0 1.000000 -2.460938 -8.710938 -1.570783 -1.217361 -1.570804
    1 2.033348 1.000767 1.937660 3.099206 -0.162014 1.679995
    2 6.028145 0.000003 0.000002 -2.520134 -0.530793 0.395020
    3 11.692553 0.000081 -0.000005 -0.090163 0.052684 -0.309418
    4 11.481672 -0.000089 -0.000024 -0.082164 0.321112 -0.020886
    5 3.281557 0.002119 -1.383388 0.099718 -0.198220 -1.489132
    6 1.324282 -0.000008 0.000005 0.000000 -0.035669 -0.863336
    7 0.819336 -0.000002 0.000001 0.000000 0.000000 -0.523588
    8 3.711854 0.109255 -0.568167 -0.004825 -0.297517 -1.490876
    9 1.609408 0.000006 -0.000007 -0.002087 0.004812 -0.839808
    10 0.993191 -0.000008 0.000002 0.001475 0.002258 -0.454029
    11 3.786031 0.203224 0.243937 -0.050387 -0.349663 -0.966842
    12 1.680664 -0.000008 -0.000002 0.003628 -0.001845 -1.352714
    13 1.255859 0.000004 0.000000 0.000000 0.000000 0.135256
    14 3.594223 0.299551 1.113710 -0.118448 -0.375299 -0.093640
    15 1.719433 0.000002 -0.000004 0.000001 0.000010 -1.171526
    16 1.002930 -0.000004 0.000000 0.000000 0.000000 -0.071985
    17 0.298214 -0.634094 0.430606 -1.461079 -1.010830 0.045848
    18 2.633557 0.000002 -0.000006 0.260363 0.087745 0.097200
    19 1.308564 -0.000001 -0.000002 -0.003102 -0.044188 0.019715
    20 2.033356 1.000772 -1.937610 -0.128177 0.172990 -2.038336
    21 6.028141 0.000000 -0.000002 -0.848080 0.925427 -2.563483
    22 11.692554 0.000000 -0.000003 0.014320 -0.028320 -0.935426
    23 11.481705 -0.000001 -0.000004 -0.523731 0.108451 0.180874
    24 2.914335 -0.023166 1.404053 -0.075472 -0.048637 -0.941149
    25 1.284180 -0.000002 0.000001 0.000007 0.095136 -0.604946
    26 0.842285 -0.000002 -0.000001 -0.078528 0.054443 -1.209530
    27 3.368063 0.007379 0.622456 0.035972 -0.077320 -1.016278
    28 1.605513 0.000000 0.000001 0.000003 0.121988 -1.086905
    29 1.020536 0.000002 -0.000003 0.015295 -0.014044 -1.343759
    30 3.551622 0.023919 -0.204473 0.012608 -0.103497 -0.905355
    31 1.666992 0.000000 -0.000001 -0.000008 0.157406 -1.208297
    32 1.240438 0.000004 0.000006 0.000002 -0.000011 -1.483435
    33 3.449668 0.054213 -1.089087 0.062096 0.148073 -0.235441
    34 1.711618 0.000004 0.000013 0.000003 -0.046220 -1.323239
    35 0.999023 0.000004 0.000001 0.005618 -0.013549 -0.593093
    36 0.075535 -0.738746 -0.759724 1.293541 0.406469 -0.475804
    37 2.508557 -0.000006 -0.000010 -0.000002 -0.000001 0.359159
    38 1.328096 0.050782 -0.113292 0.025663 0.040518 0.530179
    39 -7.966885 -21.791367 -11.720564 1.592350 0.010418 -3.142351
    40 -0.000002 3.287109 -0.573233 -0.338652 0.000000 0.000000
    41 -0.000002 2.156256 -2.244137 0.000000 0.000000 0.000000
    42 -0.000003 2.917979 -4.039055 0.000000 0.000000 0.000000
    43 -0.097351 5.335948 -2.853486 0.000000 0.000000 0.000000
    44 -5.815069 27.963417 -8.904310 1.570757 0.000000 -4.712382
  time 3
    0 1.000000 -2.460938 -8.710938 -1.570783 -1.217361 -1.570804
    1 2.033348 1.000767 1.937660 3.099206 -0.162014 1.679995
    2 6.028145 0.000003 0.000002 -2.521571 -0.523793 0.395974
    3 11.692553 0.000081 -0.000005 -0.092296 0.058940 -0.347737
    4 11.481672 -0.000089 -0.000024 -0.111550 0.315610 0.026298
    5 3.281557 0.002119 -1.383388 0.099718 -0.198220 -1.489132
    6 1.324282 -0.000008 0.000005 0.000000 -0.035669 -0.863336
    7 0.819336 -0.000002 0.000001 0.000000 0.000000 -0.523588
    8 3.711854 0.109255 -0.568167 -0.004825 -0.297517 -1.490876
    9 1.609408 0.000006 -0.000007 -0.002087 0.004812 -0.839808
    10 0.993191 -0.000008 0.000002 0.001475 0.002258 -0.454029
    11 3.786031 0.203224 0.243937 -0.050387 -0.349663 -0.966842
    12 1.680664 -0.000008 -0.000002 0.003628 -0.001845 -1.352714
    13 1.255859 0.000004 0.000000 0.000000 0.000000 0.135256
    14 3.594223 0.299551 1.109803 -0.118448 -0.375299 -0.093640
    15 1.719433 0.000002 -0.000004 0.000001 0.000010 -1.171526
    16 1.002930 -0.000004 0.000000 0.000000 0.000000 -0.071985
    17 0.298214 -0.634094 0.430606 -1.461079 -1.010830 0.045848
    18 2.633557 0.000002 -0.000006 0.260363 0.087765 0.097200
    19 1.308564 -0.000001 -0.000002 -0.003102 -0.044188 0.019715
    20 2.033356 1.000772 -1.937610 -0.128177 0.172990 -2.038336
    21 6.028141 0.000000 -0.000002 -0.863049 0.936249 -2.584340
    22 11.692554 0.000000 -0.000003 0.021978 -0.043828 -0.940150
    23 11.481705 -0.000001 -0.000004 -0.506897 0.133835 0.176281
    24 2.910429 -0.027073 1.396241 -0.075257 -0.049140 -0.940897
    25 1.284180 -0.000002 0.000001 0.000007 0.095136 -0.604946
    26 0.842285 -0.000002 -0.000001 -0.078528 0.054443 -1.209530
    27 3.368063 0.007379 0.622456 0.036223 -0.077812 -1.016041
    28 1.605513 0.000000 0.000001 0.000003 0.121988 -1.086905
    29 1.020536 0.000002 -0.000003 0.015295 -0.014044 -1.343759
    30 3.551622 0.023919 -0.204473 0.012800 -0.104000 -0.905115
    31 1.666992 0.000000 -0.000001 -0.000008 0.157406 -1.208297
    32 1.240438 0.000004 0.000006 0.000002 -0.000011 -1.483474
    33 3.449668 0.054213 -1.085181 0.061918 0.147560 -0.235214
    34 1.711618 0.000004 0.000013 0.000003 -0.046484 -1.336197
    35 0.999023 0.000004 0.000001 0.005618 -0.013549 -0.593093
    36 0.075535 -0.738746 -0.763630 1.293493 0.405930 -0.475576
    37 2.508557 -0.000006 -0.000010 -0.000002 -0.000001 0.359159
    38 1.328096 0.050782 -0.113292 0.025663 0.040518 0.530179
    39 -7.998136 -21.787461 -11.454931 1.617027 0.019670 -3.144613
    40 -0.000002 3.287109 -0.573233 -0.346538 0.000000 0.000000
    41 -0.000002 2.156256 -2.244137 0.000000 0.000000 0.000000
    42 -0.000003 2.917979 -4.039055 0.000000 0.000000 0.000000
    43 -0.097351 5.335948 -1.279220 0.000000 0.000000 0.000000
    44 -5.815069 27.963417 -8.904310 1.570757 0.000000 -4.712382
  time 4
    0 1.000000 -2.460938 -8.710938 -1.570783 -1.217361 -1.570804
    1 2.033348 1.000767 1.937660 3.099206 -0.162014 1.679995
    2 6.028145 0.000003 0.000002 -2.492991 -0.484800 0.340065
    3 11.692553 0.000081 -0.000005 -0.101884 0.080572 -0.484985
    4 11.481672 -0.000089 -0.000024 -0.126993 0.294186 0.126646
    5 3.281557 0.002119 -1.383388 0.099718 -0.198220 -1.489132
    6 1.324282 -0.000008 0.000005 0.000000 -0.035669 -0.863336
    7 0.819336 -0.000002 0.000001 0.000000 0.000000 -0.523588
    8 3.711854 0.109255 -0.572073 -0.004825 -0.297517 -1.490876
    9 1.609408 0.000006 -0.000007 -0.002087 0.004812 -0.839808
    10 0.993191 -0.000008 0.000002 0.001475 0.002258 -0.454029
    11 3.786031 0.203224 0.243937 -0.050387 -0.349663 -0.966842
    12 1.680664 -0.000008 -0.000002 0.003628 -0.001845 -1.352714
    13 1.255859 0.000004 0.000000 0.000000 0.000000 0.135256
    14 3.594223 0.299551 1.109803 -0.118432 -0.375299 -0.093640
    15 1.719433 0.000002 -0.000004 0.000001 0.000010 -1.171526
    16 1.002930 -0.000004 0.000000 0.000000 0.000000 -0.071985
    17 0.298214 -0.634094 0.426700 -1.461079 -1.010830 0.045848
    18 2.633557 0.000002 -0.000006 0.260363 0.087745 0.097200
    19 1.308564 -0.000001 -0.000002 -0.003102 -0.044188 0.019715
    20 2.033356 1.000772 -1.937610 -0.128177 0.172990 -2.038336
    21 6.028141 0.000000 -0.000002 -0.823577 0.976512 -2.534663
    22 11.692554 0.000000 -0.000003 0.029288 -0.052121 -1.018895
    23 11.481705 -0.000001 -0.000004 -0.506897 0.140239 0.207245
    24 2.914335 -0.023166 1.400147 -0.075472 -0.048637 -0.941149
    25 1.284180 -0.000002 0.000001 0.000007 0.095136 -0.604946
    26 0.842285 -0.000002 -0.000001 -0.078528 0.054443 -1.209530
    27 3.368063 0.007379 0.618550 0.035972 -0.077320 -1.016278
    28 1.605513 0.000000 0.000001 0.000003 0.122000 -1.086905
    29 1.020536 0.000002 -0.000003 0.015295 -0.014044 -1.343759
    30 3.551622 0.023919 -0.200566 0.012608 -0.103497 -0.905355
    31 1.666992 0.000000 -0.000001 -0.000008 0.157406 -1.208297
    32 1.236531 0.000004 0.000006 0.000002 -0.000011 -1.483435
    33 3.449668 0.054213 -1.089087 0.062096 0.148073 -0.235441
    34 1.711618 0.000004 0.000013 0.000003 -0.046747 -1.349154
    35 0.999023 0.000004 0.000001 0.005618 -0.013549 -0.593093
    36 0.075535 -0.738746 -0.759724 1.293541 0.406469 -0.475804
    37 2.508557 -0.000006 -0.000010 -0.000002 -0.000001 0.359159
    38 1.328096 0.050782 -0.113292 0.025663 0.040518 0.530179
    39 -8.021574 -21.314790 -11.517432 1.616072 0.019378 -3.145598
    40 -0.000002 3.287109 -0.573233 -0.354411 0.000000 0.000000
    41 -0.000002 2.156256 -2.244137 0.000000 0.000000 0.000000
    42 -0.000003 2.917979 -4.039055 0.000000 0.000000 0.000000
    43 -0.097351 5.335948 -1.513602 0.000000 0.000000 0.000000
    44 -5.815069 27.963417 -8.904310 1.570757 0.000000 -4.712382
  time 5
    0 1.000000 -2.460938 -8.710938 -1.570783 -1.217361 -1.570804
    1 2.033348 1.000767 1.937660 3.099206 -0.162014 1.679995
    2 6.028145 0.000003 0.000002 -2.465529 -0.451466 0.286447
    3 11.692553 0.000081 -0.000005 -0.111963 0.097267 -0.598380
    4 11.481672 -0.000089 -0.000024 -0.123620 0.270420 0.184223
    5 3.281557 0.002119 -1.383388 0.099700 -0.198220 -1.489132
    6 1.324282 -0.000008 0.000005 0.000000 -0.035681 -0.863336
    7 0.819336 -0.000002 0.000001 0.000000 0.000000 -0.523588
    8 3.711854 0.109255 -0.568167 -0.004825 -0.297517 -1.490876
    9 1.609408 0.000006 -0.000007 -0.002087 0.004812 -0.839808
    10 0.993191 -0.000008 0.000002 0.001475 0.002258 -0.454029
    11 3.786031 0.203224 0.243937 -0.050387 -0.349663 -0.966842
    12 1.680664 -0.000008 -0.000002 0.003628 -0.001845 -1.352714
    13 1.255859 0.000004 0.000000 0.000000 0.000000 0.135256
    14 3.594223 0.299551 1.113710 -0.118448 -0.375299 -0.093640
    15 1.719433 0.000002 -0.000004 0.000001 0.000010 -1.171526
    16 1.002930 -0.000004 0.000000 0.000000 0.000000 -0.071985
    17 0.298214 -0.634094 0.426700 -1.461079 -1.010830 0.045848
    18 2.633557 0.000002 -0.000006 0.260363 0.087765 0.097200
    19 1.308564 -0.000001 -0.000002 -0.003102 -0.044188 0.019715
    20 2.033356 1.000772 -1.937610 -0.128177 0.172990 -2.038336
    21 6.028141 0.000000 -0.000002 -0.778861 0.993381 -2.476739
    22 11.692554 0.000000 -0.000003 0.023584 -0.039106 -1.069817
    23 11.481705 -0.000001 -0.000004 -0.515465 0.122371 0.231431
    24 2.914335 -0.027073 1.400147 -0.075621 -0.048445 -0.941377
    25 1.284180 -0.000002 0.000001 0.000007 0.095136 -0.604946
    26 0.842285 -0.000002 -0.000001 -0.078528 0.054443 -1.209530
    27 3.368063 0.007379 0.622456 0.035804 -0.077141 -1.016502
    28 1.605513 0.000000 0.000001 0.000003 0.122000 -1.086905
    29 1.020536 0.000002 -0.000003 0.015295 -0.014044 -1.343759
    30 3.551622 0.023919 -0.204473 0.012453 -0.103293 -0.905570
    31 1.666992 0.000000 -0.000001 -0.000008 0.157406 -1.208297
    32 1.240438 0.000004 0.000006 0.000002 -0.000011 -1.483435
    33 3.449668 0.054213 -1.089087 0.062096 0.148330 -0.235669
    34 1.711618 0.000004 0.000013 0.000003 -0.046855 -1.355028
    35 0.999023 0.000004 0.000001 0.005618 -0.013549 -0.593093
    36 0.075535 -0.738746 -0.759724 1.293481 0.406721 -0.476067
    37 2.508557 -0.000006 -0.000010 -0.000002 -0.000001 0.359159
    38 1.328096 0.050782 -0.113292 0.025663 0.040518 0.530179
    39 -8.021574 -20.974936 -11.708845 1.599253 0.014210 -3.145019
    40 -0.000002 3.287109 -0.573233 -0.357987 0.000000 0.000000
    41 -0.000002 2.156256 -2.244137 0.000000 0.000000 0.000000
    42 -0.000003 2.917979 -4.039055 0.000000 0.000000 0.000000
    43 -0.097351 5.335948 -2.216748 0.000000 0.000000 0.000000
    44 -5.815069 27.963417 -8.904310 1.570757 0.000000 -4.712382
  time 6
    0 1.000000 -2.460938 -8.710938 -1.570783 -1.217361 -1.570804
    1 2.033348 1.000767 1.937660 3.099206 -0.162014 1.679995
    2 6.028145 0.000003 0.000002 -2.449962 -0.437383 0.257443
    3 11.692553 0.000081 -0.000005 -0.115391 0.102073 -0.632789
    4 11.481672 -0.000089 -0.000024 -0.107277 0.257348 0.170565
    5 3.281557 0.002119 -1.383388 0.099770 -0.198484 -1.488922
    6 1.324282 -0.000008 0.000005 0.000000 -0.035681 -0.863336
    7 0.819336 -0.000002 0.000001 0.000000 0.000000 -0.523588
    8 3.711854 0.109255 -0.568167 -0.004765 -0.297781 -1.490657
    9 1.609408 0.000006 -0.000007 -0.002087 0.004812 -0.839808
    10 0.993191 -0.000008 0.000002 0.001475 0.002258 -0.454029
    11 3.786031 0.203224 0.243937 -0.050471 -0.349915 -0.966577
    12 1.680664 -0.000008 -0.000002 0.003628 -0.001845 -1.352714
    13 1.255859 0.000004 0.000000 0.000000 0.000000 0.135256
    14 3.594223 0.299551 1.109803 -0.118711 -0.375407 -0.093284
    15 1.719433 0.000002 -0.000004 0.000001 0.000010 -1.171526
    16 1.002930 -0.000004 0.000000 0.000000 0.000000 -0.071985
    17 0.298214 -0.630188 0.430606 -1.461569 -1.010890 0.046526
    18 2.633557 0.000002 -0.000006 0.260363 0.087745 0.097200
    19 1.308564 -0.000001 -0.000002 -0.003102 -0.044188 0.019715
    20 2.033356 1.000772 -1.937610 -0.128177 0.172990 -2.038336
    21 6.028141 0.000000 -0.000002 -0.760937 1.001259 -2.455883
    22 11.692554 0.000000 -0.000003 0.024806 -0.041563 -1.088905
    23 11.481705 -0.000001 -0.000004 -0.525059 0.110440 0.244061
    24 2.914335 -0.023166 1.400147 -0.075472 -0.048637 -0.941149
    25 1.284180 -0.000002 0.000001 0.000007 0.095136 -0.604946
    26 0.842285 -0.000002 -0.000001 -0.078528 0.054443 -1.209530
    27 3.368063 0.007379 0.622456 0.035972 -0.077320 -1.016278
    28 1.605513 0.000000 0.000001 0.000003 0.122000 -1.086905
    29 1.020536 0.000002 -0.000003 0.015295 -0.014044 -1.343759
    30 3.551622 0.023919 -0.204473 0.012608 -0.103497 -0.905355
    31 1.666992 0.000000 -0.000001 -0.000008 0.157406 -1.208297
    32 1.240438 0.000004 0.000006 0.000002 -0.000011 -1.483435
    33 3.449668 0.054213 -1.089087 0.062096 0.148073 -0.235441
    34 1.711618 0.000004 0.000013 0.000003 -0.046699 -1.346763
    35 0.999023 0.000004 0.000001 0.005618 -0.013549 -0.593093
    36 0.075535 -0.738746 -0.759724 1.293541 0.406469 -0.475804
    37 2.508557 -0.000006 -0.000010 -0.000002 -0.000001 0.359159
    38 1.328096 0.050782 -0.113292 0.025651 0.040518 0.530179
    39 -8.009855 -20.830400 -11.861193 1.580599 0.008376 -3.144091
    40 -0.000002 3.287109 -0.573233 -0.352979 0.000000 0.000000
    41 -0.000002 2.156256 -2.244137 0.000000 0.000000 0.000000
    42 -0.000003 2.917979 -4.039055 0.000000 0.000000 0.000000
    43 -0.097351 5.335948 -3.376940 0.000000 0.000000 0.000000
    44 -5.815069 27.963417 -8.904310 1.570757 0.000000 -4.712382
  time 7
    0 1.000000 -2.460938 -8.710938 -1.570783 -1.217361 -1.570804
    1 2.033348 1.000767 1.937660 3.099206 -0.162014 1.679995
    2 6.028145 0.000003 0.000002 -2.442378 -0.430585 0.243228
    3 11.692553 0.000081 -0.000005 -0.115930 0.102816 -0.638107
    4 11.481672 -0.000089 -0.000024 -0.093559 0.253679 0.150284
    5 3.281557 0.002119 -1.383388 0.099718 -0.198220 -1.489132
    6 1.324282 -0.000008 0.000005 0.000000 -0.035669 -0.863336
    7 0.819336 -0.000002 0.000001 0.000000 0.000000 -0.523588
    8 3.711854 0.109255 -0.568167 -0.004825 -0.297517 -1.490876
    9 1.609408 0.000006 -0.000007 -0.002087 0.004812 -0.839808
    10 0.993191 -0.000008 0.000002 0.001475 0.002258 -0.454029
    11 3.786031 0.203224 0.243937 -0.050387 -0.349663 -0.966842
    12 1.680664 -0.000008 -0.000002 0.003628 -0.001845 -1.352714
    13 1.255859 0.000004 0.000000 0.000000 0.000000 0.135256
    14 3.594223 0.299551 1.113710 -0.118448 -0.375299 -0.093640
    15 1.719433 0.000002 -0.000004 0.000001 0.000010 -1.171526
    16 1.002930 -0.000004 0.000000 0.000000 0.000000 -0.071985
    17 0.298214 -0.634094 0.430606 -1.461079 -1.010830 0.045848
    18 2.637464 0.000002 -0.000006 0.260363 0.087765 0.097200
    19 1.308564 -0.000001 -0.000002 -0.003102 -0.044188 0.019715
    20 2.033356 1.000772 -1.937610 -0.128177 0.172990 -2.038336
    21 6.028141 0.000000 -0.000002 -0.767134 0.994097 -2.462898
    22 11.692554 0.000000 -0.000003 0.023596 -0.039657 -1.076223
    23 11.481705 -0.000001 -0.000004 -0.531032 0.099678 0.243950
    24 2.914335 -0.023166 1.400147 -0.075472 -0.048637 -0.941149
    25 1.284180 -0.000002 0.000001 0.000007 0.095136 -0.604946
    26 0.842285 -0.000002 -0.000001 -0.078528 0.054443 -1.209530
    27 3.368063 0.007379 0.622456 0.035972 -0.077320 -1.016278
    28 1.605513 0.000000 0.000001 0.000003 0.122000 -1.086905
    29 1.020536 0.000002 -0.000003 0.015295 -0.014044 -1.343759
    30 3.551622 0.023919 -0.200566 0.012608 -0.103497 -0.905355
    31 1.666992 0.000000 -0.000001 -0.000008 0.157406 -1.208297
    32 1.240438 0.000004 0.000006 0.000002 -0.000011 -1.483435
    33 3.449668 0.054213 -1.089087 0.062096 0.148073 -0.235441
    34 1.711618 0.000004 0.000013 0.000003 -0.046088 -1.317396
    35 0.999023 0.000004 0.000001 0.005618 -0.013549 -0.593093
    36 0.075535 -0.738746 -0.759724 1.293541 0.406469 -0.475804
    37 2.508557 -0.000006 -0.000010 -0.000002 -0.000001 0.359147
    38 1.324190 0.050782 -0.113292 0.025663 0.040518 0.530179
    39 -7.998136 -20.900715 -11.935414 1.568701 0.004542 -3.143105
    40 -0.000002 3.287109 -0.573233 -0.335089 0.000000 0.000000
    41 -0.000002 2.156256 -2.244137 0.000000 0.000000 0.000000
    42 -0.000003 2.917979 -4.039055 0.000000 0.000000 0.000000
    43 -0.097351 5.335948 -3.376940 0.000000 0.000000 0.000000
    44 -5.815069 27.963417 -8.904310 1.570757 0.000000 -4.712382
  time 8
    0 1.000000 -2.460938 -8.710938 -1.570783 -1.217361 -1.570804
    1 2.033348 1.000767 1.937660 3.099206 -0.162014 1.679995
    2 6.028145 0.000003 0.000002 -2.449403 -0.444098 0.258302
    3 11.692553 0.000081 -0.000005 -0.110717 0.095397 -0.585320
    4 11.481672 -0.000089 -0.000024 -0.085537 0.267377 0.128485
    5 3.281557 0.002119 -1.383388 0.099700 -0.198220 -1.489132
    6 1.324282 -0.000008 0.000005 0.000000 -0.035669 -0.863336
    7 0.819336 -0.000002 0.000001 0.000000 0.000000 -0.523588
    8 3.711854 0.109255 -0.572073 -0.004825 -0.297517 -1.490876
    9 1.609408 0.000006 -0.000007 -0.002087 0.004800 -0.839808
    10 0.993191 -0.000008 0.000002 0.001475 0.002258 -0.454029
    11 3.786031 0.203224 0.243937 -0.050387 -0.349663 -0.966842
    12 1.680664 -0.000008 -0.000002 0.003628 -0.001845 -1.352714
    13 1.255859 0.000004 0.000000 0.000000 0.000000 0.135256
    14 3.594223 0.299551 1.109803 -0.118448 -0.375299 -0.093640
    15 1.719433 0.000002 -0.000004 0.000001 0.000010 -1.171526
    16 1.002930 -0.000004 0.000000 0.000000 0.000000 -0.071985
    17 0.298214 -0.634094 0.426700 -1.461079 -1.010830 0.045848
    18 2.633557 0.000002 -0.000006 0.260363 0.087765 0.097200
    19 1.308564 -0.000001 -0.000002 -0.003102 -0.044188 0.019715
    20 2.033356 1.000772 -1.937610 -0.128177 0.172990 -2.038336
    21 6.028141 0.000000 -0.000002 -0.791828 0.981366 -2.494183
    22 11.692554 0.000000 -0.000003 0.026208 -0.045170 -1.043612
    23 11.481705 -0.000001 -0.000004 -0.533808 0.097309 0.234320
    24 2.910429 -0.023166 1.400147 -0.075472 -0.048649 -0.941149
    25 1.284180 -0.000002 0.000001 0.000007 0.095136 -0.604946
    26 0.842285 -0.000002 -0.000001 -0.078528 0.054443 -1.209530
    27 3.368063 0.007379 0.622456 0.035972 -0.077320 -1.016278
    28 1.605513 0.000000 0.000001 0.000003 0.122000 -1.086905
    29 1.020536 0.000002 -0.000003 0.015295 -0.014044 -1.343759
    30 3.551622 0.023919 -0.200566 0.012608 -0.103497 -0.905355
    31 1.666992 0.000000 -0.000001 -0.000008 0.157406 -1.208297
    32 1.236531 0.000004 0.000006 0.000002 -0.000011 -1.483435
    33 3.449668 0.054213 -1.089087 0.062096 0.148073 -0.235441
    34 1.711618 0.000004 0.000013 0.000003 -0.044806 -1.260297
    35 0.999023 0.000004 0.000001 0.005618 -0.013549 -0.593093
    36 0.075535 -0.738746 -0.759724 1.293541 0.406469 -0.475804
    37 2.508557 -0.000006 -0.000010 -0.000002 -0.000001 0.359159
    38 1.328096 0.050782 -0.113292 0.025663 0.040518 0.530179
    39 -7.982510 -21.111659 -11.935414 1.563045 0.002792 -3.142351
    40 -0.000002 3.287109 -0.573233 -0.300311 0.000000 0.000000
    41 -0.000002 2.156256 -2.244137 0.000000 0.000000 0.000000
    42 -0.000003 2.917979 -4.039055 0.000000 0.000000 0.000000
    43 -0.097351 5.335948 -3.376940 0.000000 0.000000 0.000000
    44 -5.815069 27.963417 -8.904310 1.570757 0.000000 -4.712382
  time 9
    0 1.000000 -2.460938 -8.710938 -1.570783 -1.217361 -1.570804
    1 2.033348 1.000767 1.937660 3.099206 -0.162014 1.679995
    2 6.028145 0.000003 0.000002 -2.463294 -0.466810 0.287019
    3 11.692553 0.000081 -0.000005 -0.103658 0.083832 -0.506569
    4 11.481672 -0.000089 -0.000024 -0.077816 0.287630 0.101628
    5 3.281557 0.002119 -1.379481 0.099770 -0.198484 -1.488887
    6 1.324282 -0.000008 0.000005 0.000000 -0.035669 -0.863336
    7 0.819336 -0.000002 0.000001 0.000000 0.000000 -0.523588
    8 3.711854 0.109255 -0.568167 -0.004753 -0.297781 -1.490657
    9 1.609408 0.000006 -0.000007 -0.002087 0.004812 -0.839808
    10 0.993191 -0.000008 0.000002 0.001475 0.002258 -0.454029
    11 3.786031 0.203224 0.247844 -0.050483 -0.349903 -0.966577
    12 1.680664 -0.000008 -0.000002 0.003628 -0.001845 -1.352714
    13 1.255859 0.000004 0.000000 0.000000 0.000000 0.135256
    14 3.594223 0.303457 1.113710 -0.118711 -0.375395 -0.093284
    15 1.719433 0.000002 -0.000004 0.000001 0.000010 -1.171526
    16 1.002930 -0.000004 0.000000 0.000000 0.000000 -0.071985
    17 0.298214 -0.630188 0.430606 -1.461551 -1.010890 0.046526
    18 2.633557 0.000002 -0.000006 0.260363 0.087765 0.097200
    19 1.308564 -0.000001 -0.000002 -0.003102 -0.044188 0.019715
    20 2.033356 1.000772 -1.937610 -0.128177 0.172990 -2.038336
    21 6.028141 0.000000 -0.000002 -0.823386 0.965412 -2.535706
    22 11.692554 0.000000 -0.000003 0.029516 -0.054554 -1.000972
    23 11.481705 -0.000001 -0.000004 -0.534894 0.097251 0.220579
    24 2.914335 -0.023166 1.396241 -0.075439 -0.049128 -0.941209
    25 1.284180 -0.000002 0.000001 0.000007 0.095136 -0.604946
    26 0.842285 -0.000002 -0.000001 -0.078528 0.054443 -1.209530
    27 3.368063 0.007379 0.618550 0.036044 -0.077812 -1.016328
    28 1.605513 0.000000 0.000001 0.000003 0.122000 -1.086905
    29 1.020536 0.000002 -0.000003 0.015295 -0.014044 -1.343759
    30 3.551622 0.023919 -0.204473 0.012620 -0.103976 -0.905415
    31 1.666992 0.000000 -0.000001 -0.000008 0.157406 -1.208297
    32 1.236531 0.000004 0.000006 0.000002 -0.000011 -1.483435
    33 3.449668 0.054213 -1.089087 0.061803 0.147688 -0.235525
    34 1.711618 0.000004 0.000013 0.000003 -0.042768 -1.180098
    35 0.999023 0.000004 0.000001 0.005618 -0.013549 -0.593093
    36 0.075535 -0.734839 -0.759724 1.293326 0.406026 -0.475948
    37 2.508557 -0.000006 -0.000010 -0.000002 -0.000001 0.359159
    38 1.328096 0.050782 -0.113292 0.025663 0.040518 0.530179
    39 -7.974697 -21.381198 -11.908069 1.558639 0.001375 -3.141655
    40 -0.000002 3.287109 -0.573233 -0.251472 0.000000 0.000000
    41 -0.000002 2.156256 -2.244137 0.000000 0.000000 0.000000
    42 -0.000003 2.917979 -4.039055 0.000000 0.000000 0.000000
    43 -0.097351 5.335948 -3.376940 0.000000 0.000000 0.000000
    44 -5.815069 27.963417 -8.904310 1.570757 0.000000 -4.712382
  time 10
    0 1.000000 -2.460938 -8.710938 -1.570783 -1.217361 -1.570804
    1 2.033348 1.000767 1.937660 3.099206 -0.162014 1.679995
    2 6.028145 0.000003 0.000002 -2.476546 -0.485736 0.313351
    3 11.692553 0.000081 -0.000005 -0.098492 0.073789 -0.440956
    4 11.481672 -0.000089 -0.000024 -0.070994 0.305971 0.085670
    5 3.281557 0.002119 -1.383388 0.099718 -0.198220 -1.489132
    6 1.324282 -0.000008 0.000005 0.000000 -0.035681 -0.863336
    7 0.819336 -0.000002 0.000001 0.000000 0.000000 -0.523588
    8 3.711854 0.109255 -0.568167 -0.004825 -0.297517 -1.490876
    9 1.609408 0.000006 -0.000007 -0.002087 0.004812 -0.839808
    10 0.993191 -0.000008 0.000002 0.001475 0.002270 -0.454029
    11 3.786031 0.203224 0.243937 -0.050387 -0.349663 -0.966842
    12 1.680664 -0.000008 -0.000002 0.003628 -0.001845 -1.352714
    13 1.255859 0.000004 0.000000 0.000000 0.000000 0.135256
    14 3.594223 0.299551 1.109803 -0.118448 -0.375299 -0.093640
    15 1.719433 0.000002 -0.000004 0.000001 0.000010 -1.171526
    16 1.002930 -0.000004 0.000000 0.000000 0.000000 -0.071985
    17 0.298214 -0.634094 0.426700 -1.461079 -1.010830 0.045848
    18 2.637464 0.000002 -0.000006 0.260363 0.087765 0.097200
    19 1.308564 -0.000001 -0.000002 -0.003090 -0.044188 0.019715
    20 2.033356 1.000772 -1.937610 -0.128177 0.172990 -2.038336
    21 6.028141 0.000000 -0.000002 -0.844552 0.942336 -2.560829
    22 11.692554 0.000000 -0.000003 0.022793 -0.043648 -0.958849
    23 11.481705 -0.000001 -0.000004 -0.535799 0.086519 0.206319
    24 2.910429 -0.023166 1.400147 -0.075307 -0.048816 -0.940909
    25 1.284180 -0.000002 0.000001 0.000007 0.095136 -0.604946
    26 0.842285 -0.000002 -0.000001 -0.078528 0.054443 -1.209530
    27 3.364156 0.007379 0.618550 0.036151 -0.077488 -1.016041
    28 1.605513 0.000000 0.000001 0.000003 0.122000 -1.086905
    29 1.020536 0.000002 -0.000003 0.015295 -0.014044 -1.343759
    30 3.547715 0.027825 -0.204473 0.012764 -0.103677 -0.905115
    31 1.666992 0.000000 -0.000001 -0.000008 0.157406 -1.208297
    32 1.236531 0.000004 0.000006 0.000002 -0.000011 -1.483435
    33 3.445761 0.054213 -1.089087 0.062108 0.147842 -0.235190
    34 1.711618 0.000004 0.000013 0.000003 -0.040060 -1.086366
    35 0.999023 0.000004 0.000001 0.005618 -0.013549 -0.593093
    36 0.075535 -0.734839 -0.759724 1.293613 0.406242 -0.475528
    37 2.508557 -0.000006 -0.000010 -0.000002 -0.000001 0.359159
    38 1.328096 0.050782 -0.113292 0.025663 0.040518 0.530179
    39 -7.966885 -21.635112 -11.857287 1.556289 0.000458 -3.141249
    40 -0.000002 3.287109 -0.573233 -0.194354 0.000000 0.000000
    41 -0.000002 2.156256 -2.244137 0.000000 0.000000 0.000000
    42 -0.000003 2.917979 -4.039055 0.000000 0.000000 0.000000
    43 -0.097351 5.335948 -3.376940 0.000000 0.000000 0.000000
    44 -5.815069 27.963417 -8.904310 1.570757 0.000000 -4.712382
  time 11
    0 1.000000 -2.460938 -8.710938 -1.570783 -1.217361 -1.570804
    1 2.033348 1.000767 1.937660 3.099206 -0.162014 1.679995
    2 6.028145 0.000003 0.000002 -2.489878 -0.503686 0.339397
    3 11.692553 0.000081 -0.000005 -0.094334 0.064261 -0.380661
    4 11.481672 -0.000089 -0.000024 -0.064622 0.322361 0.071965
    5 3.281557 0.002119 -1.379481 0.099718 -0.198220 -1.489132
    6 1.324282 -0.000008 0.000005 0.000000 -0.035669 -0.863336
    7 0.819336 -0.000002 0.000001 0.000000 0.000000 -0.523588
    8 3.711854 0.109255 -0.568167 -0.004825 -0.297517 -1.490876
    9 1.609408 0.000006 -0.000007 -0.002087 0.004812 -0.839808
    10 0.993191 -0.000008 0.000002 0.001475 0.002258 -0.454029
    11 3.786031 0.203224 0.243937 -0.050387 -0.349663 -0.966842
    12 1.680664 -0.000008 -0.000002 0.003628 -0.001845 -1.352714
    13 1.255859 0.000004 0.000000 0.000000 0.000000 0.135256
    14 3.594223 0.299551 1.113710 -0.118432 -0.375299 -0.093640
    15 1.719433 0.000002 -0.000004 0.000001 0.000010 -1.171526
    16 1.002930 -0.000004 0.000000 0.000000 0.000000 -0.071985
    17 0.298214 -0.634094 0.430606 -1.461079 -1.010830 0.045848
    18 2.633557 0.000002 -0.000006 0.260363 0.087765 0.097200
    19 1.308564 -0.000001 -0.000002 -0.003102 -0.044188 0.019715
    20 2.033356 1.000772 -1.937610 -0.128177 0.172990 -2.038336
    21 6.028141 0.000000 -0.000002 -0.859616 0.930639 -2.580643
    22 11.692554 0.000000 -0.000003 0.021882 -0.043840 -0.932967
    23 11.481705 -0.000001 -0.000004 -0.535739 0.084355 0.197541
    24 2.914335 -0.023166 1.400147 -0.075472 -0.048637 -0.941149
    25 1.284180 -0.000002 0.000001 0.000007 0.095136 -0.604946
    26 0.842285 -0.000002 -0.000001 -0.078528 0.054443 -1.209530
    27 3.368063 0.007379 0.618550 0.035972 -0.077320 -1.016278
    28 1.605513 0.000000 0.000001 0.000003 0.121988 -1.086905
    29 1.020536 0.000002 -0.000003 0.015295 -0.014044 -1.343759
    30 3.551622 0.023919 -0.204473 0.012608 -0.103497 -0.905355
    31 1.666992 0.000000 -0.000001 -0.000008 0.157406 -1.208297
    32 1.240438 0.000004 0.000006 0.000002 -0.000011 -1.483435
    33 3.449668 0.054213 -1.089087 0.062096 0.148073 -0.235441
    34 1.711618 0.000004 0.000013 0.000003 -0.036884 -0.988668
    35 0.999023 0.000004 0.000001 0.005618 -0.013549 -0.593093
    36 0.075535 -0.738746 -0.759724 1.293541 0.406469 -0.475804
    37 2.508557 -0.000006 -0.000010 -0.000002 -0.000001 0.359159
    38 1.324190 0.050782 -0.113292 0.025663 0.040518 0.530179
    39 -7.966885 -21.787461 -11.822129 1.555628 0.000000 -3.141133
    40 -0.000002 3.287109 -0.573233 -0.134827 0.000000 0.000000
    41 -0.000002 2.156256 -2.244137 0.000000 0.000000 0.000000
    42 -0.000003 2.917979 -4.039055 0.000000 0.000000 0.000000
    43 -0.097351 5.335948 -3.376940 0.000000 0.000000 0.000000
    44 -5.815069 27.963417 -8.904310 1.570757 0.000000 -4.712382
  time 12
    0 1.000000 -2.460938 -8.710938 -1.570783 -1.217361 -1.570804
    1 2.033348 1.000767 1.937660 3.099206 -0.162014 1.679995
    2 6.028145 0.000003 0.000002 -2.500815 -0.520292 0.360864
    3 11.692553 0.000081 -0.000005 -0.091170 0.055716 -0.327952
    4 11.481672 -0.000089 -0.000024 -0.058999 0.334107 0.055869
    5 3.281557 0.002119 -1.379481 0.099700 -0.198220 -1.489132
    6 1.324282 -0.000008 0.000005 0.000000 -0.035669 -0.863336
    7 0.819336 -0.000002 0.000001 0.000000 0.000000 -0.523588
    8 3.711854 0.109255 -0.568167 -0.004825 -0.297517 -1.490876
    9 1.609408 0.000006 -0.000007 -0.002087 0.004812 -0.839808
    10 0.993191 -0.000008 0.000002 0.001475 0.002258 -0.454029
    11 3.786031 0.203224 0.243937 -0.050387 -0.349663 -0.966842
    12 1.680664 -0.000008 -0.000002 0.003628 -0.001845 -1.352714
    13 1.255859 0.000004 0.000000 0.000000 0.000000 0.135256
    14 3.594223 0.299551 1.113710 -0.118448 -0.375299 -0.093640
    15 1.719433 0.000002 -0.000004 0.000001 0.000010 -1.171526
    16 1.002930 -0.000004 0.000000 0.000000 0.000000 -0.071985
    17 0.298214 -0.634094 0.426700 -1.461079 -1.010830 0.045848
    18 2.633557 0.000002 -0.000006 0.260363 0.087745 0.097200
    19 1.308564 -0.000001 -0.000002 -0.003102 -0.044188 0.019715
    20 2.033356 1.000772 -1.937610 -0.128177 0.172990 -2.038336
    21 6.028141 0.000000 -0.000002 -0.871057 0.926024 -2.595811
    22 11.692554 0.000000 -0.000003 0.024638 -0.049460 -0.918344
    23 11.481705 -0.000001 -0.000004 -0.535859 0.086987 0.192023
    24 2.914335 -0.023166 1.400147 -0.075472 -0.048637 -0.941149
    25 1.284180 -0.000002 0.000001 0.000007 0.095136 -0.604946
    26 0.842285 -0.000002 -0.000001 -0.078528 0.054443 -1.209530
    27 3.368063 0.007379 0.618550 0.035972 -0.077320 -1.016278
    28 1.605513 0.000000 0.000001 0.000003 0.122000 -1.086905
    29 1.020536 0.000002 -0.000003 0.015295 -0.014044 -1.343759
    30 3.551622 0.023919 -0.204473 0.012608 -0.103497 -0.905355
    31 1.666992 0.000000 -0.000001 -0.000008 0.157406 -1.208297
    32 1.236531 0.000004 0.000006 0.000002 -0.000011 -1.483435
    33 3.449668 0.054213 -1.089087 0.062096 0.148073 -0.235429
    34 1.711618 0.000004 0.000013 0.000003 -0.033576 -0.896601
    35 0.999023 0.000004 0.000001 0.005618 -0.013549 -0.593093
    36 0.075535 -0.738746 -0.759724 1.293529 0.406469 -0.475804
    37 2.508557 -0.000006 -0.000010 -0.000002 -0.000001 0.359159
    38 1.328096 0.050782 -0.113292 0.025663 0.040518 0.530179
    39 -7.966885 -21.869495 -11.806504 1.555774 -0.000292 -3.141017
    40 -0.000002 3.287109 -0.573233 -0.078698 0.000000 0.000000
    41 -0.000002 2.156256 -2.244137 0.000000 0.000000 0.000000
    42 -0.000003 2.917979 -4.039055 0.000000 0.000000 0.000000
    43 -0.097351 5.335948 -3.376940 0.000000 0.000000 0.000000
    44 -5.815069 27.963417 -8.904310 1.570757 0.000000 -4.712382
  time 13
    0 1.000000 -2.460938 -8.710938 -1.570783 -1.217361 -1.570804
    1 2.033348 1.000767 1.937660 3.099206 -0.162014 1.679995
    2 6.028145 0.000003 0.000002 -2.509596 -0.533643 0.377846
    3 11.692553 0.000081 -0.000005 -0.089025 0.049017 -0.287130
    4 11.481672 -0.000089 -0.000024 -0.054951 0.341755 0.038163
    5 3.285463 0.002119 -1.379481 0.099909 -0.198508 -1.489097
    6 1.324282 -0.000008 0.000005 0.000000 -0.035657 -0.863336
    7 0.819336 -0.000002 0.000001 0.000000 0.000000 -0.523588
    8 3.711854 0.109255 -0.568167 -0.004609 -0.297805 -1.490849
    9 1.609408 0.000006 -0.000007 -0.002087 0.004812 -0.839808
    10 0.993191 -0.000008 0.000002 0.001487 0.002258 -0.454029
    11 3.786031 0.203224 0.243937 -0.050363 -0.349999 -0.966776
    12 1.680664 -0.000008 -0.000002 0.003628 -0.001845 -1.352714
    13 1.255859 0.000004 0.000000 0.000000 0.000000 0.135256
    14 3.594223 0.299551 1.113710 -0.118711 -0.375539 -0.093448
    15 1.719433 0.000002 -0.000004 0.000001 0.000010 -1.171526
    16 1.002930 -0.000004 0.000000 0.000000 0.000000 -0.071985
    17 0.298214 -0.630188 0.430606 -1.461588 -1.011029 0.046385
    18 2.633557 0.000002 -0.000006 0.260363 0.087765 0.097200
    19 1.308564 -0.000001 -0.000002 -0.003102 -0.044188 0.019715
    20 2.033356 1.000772 -1.937610 -0.128177 0.172990 -2.038336
    21 6.028141 0.000000 -0.000002 -0.877445 0.921449 -2.604722
    22 11.692554 0.000000 -0.000003 0.024758 -0.051270 -0.907280
    23 11.481705 -0.000001 -0.000004 -0.535799 0.087805 0.187541
    24 2.914335 -0.023166 1.400147 -0.075472 -0.048649 -0.941149
    25 1.284180 -0.000002 0.000001 0.000007 0.095136 -0.604946
    26 0.842285 -0.000002 -0.000001 -0.078528 0.054443 -1.209530
    27 3.368063 0.007379 0.622456 0.035972 -0.077332 -1.016278
    28 1.605513 0.000000 0.000001 0.000003 0.122000 -1.086905
    29 1.020536 0.000002 -0.000003 0.015295 -0.014044 -1.343809
    30 3.551622 0.023919 -0.204473 0.012608 -0.103497 -0.905355
    31 1.666992 0.000000 -0.000001 -0.000008 0.157406 -1.208297
    32 1.236531 0.000004 0.000006 0.000002 -0.000011 -1.483435
    33 3.449668 0.054213 -1.089087 0.062096 0.148073 -0.235429
    34 1.711618 0.000004 0.000013 0.000003 -0.030616 -0.819671
    35 0.999023 0.000004 0.000001 0.005618 -0.013549 -0.593093
    36 0.075535 -0.738746 -0.759724 1.293529 0.406469 -0.475804
    37 2.508557 -0.000006 -0.000010 -0.000002 -0.000001 0.359159
    38 1.324190 0.050782 -0.113292 0.025663 0.040518 0.530179
    39 -7.966885 -21.931996 -11.786972 1.556435 -0.000500 -3.141017
    40 -0.000002 3.287109 -0.573233 -0.031799 0.000000 0.000000
    41 -0.000002 2.156256 -2.244137 0.000000 0.000000 0.000000
    42 -0.000003 2.917979 -4.039055 0.000000 0.000000 0.000000
    43 -0.097351 5.335948 -3.376940 0.000000 0.000000 0.000000
    44 -5.815069 27.963417 -8.904310 1.570757 0.000000 -4.712382
  time 14
    0 1.000000 -2.460938 -8.710938 -1.570783 -1.217361 -1.570804
    1 2.033348 1.000767 1.937660 3.099206 -0.162014 1.679995
    2 6.028145 0.000003 0.000002 -2.515663 -0.540643 0.389104
    3 11.692553 0.000081 -0.000005 -0.087886 0.044978 -0.262809
    4 11.481672 -0.000089 -0.000024 -0.053002 0.346204 0.022711
    5 3.281557 0.002119 -1.383388 0.099718 -0.198220 -1.489132
    6 1.324282 -0.000008 0.000005 0.000000 -0.035669 -0.863336
    7 0.819336 -0.000002 0.000001 0.000000 0.000000 -0.523588
    8 3.711854 0.109255 -0.568167 -0.004825 -0.297517 -1.490876
    9 1.609408 0.000006 -0.000007 -0.002087 0.004812 -0.839808
    10 0.993191 -0.000008 0.000002 0.001475 0.002258 -0.454029
    11 3.786031 0.203224 0.243937 -0.050387 -0.349663 -0.966842
    12 1.680664 -0.000008 -0.000002 0.003628 -0.001845 -1.352714
    13 1.255859 0.000004 0.000000 0.000000 0.000000 0.135256
    14 3.594223 0.299551 1.109803 -0.118448 -0.375299 -0.093640
    15 1.719433 0.000002 -0.000004 0.000001 0.000010 -1.171526
    16 1.002930 -0.000004 0.000000 0.000000 0.000000 -0.071985
    17 0.298214 -0.634094 0.430606 -1.461079 -1.010830 0.045848
    18 2.633557 0.000002 -0.000006 0.260363 0.087765 0.097200
    19 1.308564 -0.000001 -0.000002 -0.003102 -0.044188 0.019715
    20 2.033356 1.000772 -1.937610 -0.128177 0.172990 -2.038336
    21 6.028141 0.000000 -0.000002 -0.875443 0.912656 -2.599698
    22 11.692554 0.000000 -0.000003 0.017603 -0.036265 -0.899321
    23 11.481705 -0.000001 -0.000004 -0.535377 0.080056 0.184207
    24 2.914335 -0.023166 1.404053 -0.075472 -0.048649 -0.941149
    25 1.284180 -0.000002 0.000001 0.000007 0.095136 -0.604946
    26 0.842285 -0.000002 -0.000001 -0.078528 0.054443 -1.209530
    27 3.368063 0.007379 0.618550 0.035972 -0.077320 -1.016278
    28 1.605513 0.000000 0.000001 0.000003 0.122000 -1.086905
    29 1.020536 0.000002 -0.000003 0.015295 -0.014044 -1.343759
    30 3.551622 0.023919 -0.200566 0.012608 -0.103497 -0.905355
    31 1.666992 0.000000 -0.000001 -0.000008 0.157406 -1.208297
    32 1.240438 0.000004 0.000006 0.000002 -0.000011 -1.483435
    33 3.449668 0.054213 -1.089087 0.062096 0.148073 -0.235441
    34 1.711618 0.000004 0.000013 0.000003 -0.028507 -0.767477
    35 0.999023 0.000004 0.000001 0.005618 -0.013549 -0.593093
    36 0.075535 -0.738746 -0.755817 1.293529 0.406469 -0.475804
    37 2.508557 -0.000006 -0.000010 -0.000002 -0.000001 0.359159
    38 1.328096 0.050782 -0.113292 0.025663 0.040518 0.530179
    39 -7.966885 -21.986686 -11.771346 1.557537 -0.000542 -3.141017
    40 -0.000002 3.287109 -0.573233 0.000000 0.000000 0.000000
    41 -0.000002 2.156256 -2.244137 0.000000 0.000000 0.000000
    42 -0.000003 2.917979 -4.039055 0.000000 0.000000 0.000000
    43 -0.097351 5.335948 -3.376940 0.000000 0.000000 0.000000
    44 -5.815069 27.963417 -8.904310 1.570757 0.000000 -4.712382
  time 15
    0 1.000000 -2.460938 -8.710938 -1.570783 -1.217361 -1.570804
    1 2.033348 1.000767 1.937660 3.099206 -0.162014 1.679995
    2 6.028145 0.000003 0.000002 -2.519016 -0.543045 0.395115
    3 11.692553 0.000081 -0.000005 -0.087407 0.043145 -0.251938
    4 11.481672 -0.000089 -0.000024 -0.051878 0.348350 0.010892
    5 3.281557 0.002119 -1.383388 0.099700 -0.198220 -1.489132
    6 1.324282 -0.000008 0.000005 0.000000 -0.035681 -0.863336
    7 0.819336 -0.000002 0.000001 0.000000 0.000000 -0.523588
    8 3.711854 0.109255 -0.568167 -0.004825 -0.297517 -1.490876
    9 1.609408 0.000006 -0.000007 -0.002087 0.004812 -0.839808
    10 0.993191 -0.000008 0.000002 0.001475 0.002258 -0.454029
    11 3.786031 0.203224 0.243937 -0.050387 -0.349663 -0.966842
    12 1.680664 -0.000008 -0.000002 0.003628 -0.001845 -1.352714
    13 1.255859 0.000004 0.000000 0.000000 0.000000 0.135256
    14 3.594223 0.299551 1.109803 -0.118448 -0.375299 -0.093640
    15 1.719433 0.000002 -0.000004 0.000001 0.000010 -1.171526
    16 1.002930 -0.000004 0.000000 0.000000 0.000000 -0.071985
    17 0.298214 -0.634094 0.426700 -1.461079 -1.010830 0.045848
    18 2.633557 0.000002 -0.000006 0.260363 0.087765 0.097200
    19 1.308564 -0.000001 -0.000002 -0.003102 -0.044188 0.019715
    20 2.033356 1.000772 -1.937610 -0.128177 0.172990 -2.038336
    21 6.028141 0.000000 -0.000002 -0.878780 0.910150 -2.603869
    22 11.692554 0.000000 -0.000003 0.017579 -0.036349 -0.893433
    23 11.481705 -0.000001 -0.000004 -0.534713 0.081518 0.180726
    24 2.910429 -0.027073 1.396241 -0.075273 -0.049164 -0.940933
    25 1.284180 -0.000002 0.000001 0.000007 0.095136 -0.604946
    26 0.842285 -0.000002 -0.000001 -0.078528 0.054443 -1.209530
    27 3.368063 0.007379 0.618550 0.036199 -0.077836 -1.016066
    28 1.605513 0.000000 0.000001 0.000003 0.122000 -1.086905
    29 1.020536 0.000002 -0.000003 0.015295 -0.014044 -1.343759
    30 3.551622 0.023919 -0.204473 0.012776 -0.104024 -0.905151
    31 1.666992 0.000000 -0.000001 -0.000008 0.157406 -1.208297
    32 1.240438 0.000004 0.000006 0.000002 -0.000011 -1.483435
    33 3.449668 0.054213 -1.089087 0.061892 0.147547 -0.235250
    34 1.711618 0.000004 0.000013 0.000003 -0.027344 -0.739472
    35 0.999023 0.000004 0.000001 0.005618 -0.013549 -0.593093
    36 0.075535 -0.738746 -0.759724 1.293457 0.405918 -0.475612
    37 2.508557 -0.000006 -0.000010 -0.000002 -0.000001 0.359159
    38 1.328096 0.050782 -0.113292 0.025663 0.040518 0.530179
    39 -7.966885 -22.017937 -11.755721 1.559079 -0.000500 -3.141075
    40 -0.000002 3.287109 -0.573233 0.017104 0.000000 0.000000
    41 -0.000002 2.156256 -2.244137 0.000000 0.000000 0.000000
    42 -0.000003 2.917979 -4.039055 0.000000 0.000000 0.000000
    43 -0.097351 5.335948 -3.376940 0.000000 0.000000 0.000000
    44 -5.815069 27.963417 -8.904310 1.570757 0.000000 -4.712382
  time 16
    0 1.000000 -2.460938 -8.710938 -1.570783 -1.217361 -1.570804
    1 2.033348 1.000767 1.937660 3.099206 -0.162014 1.679995
    2 6.028145 0.000003 0.000002 -2.519735 -0.542027 0.396355
    3 11.692553 0.000081 -0.000005 -0.087419 0.043181 -0.252173
    4 11.481672 -0.000089 -0.000024 -0.051278 0.348233 0.002430
    5 3.285463 0.002119 -1.383388 0.099978 -0.198304 -1.489413
    6 1.324282 -0.000008 0.000005 0.000000 -0.035669 -0.863336
    7 0.819336 -0.000002 0.000001 0.000000 0.000000 -0.523588
    8 3.711854 0.105348 -0.572073 -0.004549 -0.297601 -1.491177
    9 1.609408 0.000006 -0.000007 -0.002087 0.004812 -0.839808
    10 0.993191 -0.000008 0.000002 0.001487 0.002258 -0.454029
    11 3.786031 0.203224 0.243937 -0.050207 -0.349855 -0.967106
    12 1.680664 -0.000008 -0.000002 0.003628 -0.001845 -1.352714
    13 1.255859 0.000004 0.000000 0.000000 0.000000 0.135256
    14 3.594223 0.299551 1.109803 -0.118494 -0.375551 -0.093832
    15 1.719433 0.000002 -0.000004 0.000001 0.000010 -1.171526
    16 1.002930 -0.000004 0.000000 0.000000 0.000000 -0.071985
    17 0.298214 -0.634094 0.426700 -1.461224 -1.011069 0.045764
    18 2.633557 0.000002 -0.000006 0.260363 0.087765 0.097200
    19 1.308564 -0.000001 -0.000002 -0.003102 -0.044188 0.019715
    20 2.033356 1.000772 -1.937610 -0.128177 0.172990 -2.038336
    21 6.028141 0.000000 -0.000002 -0.879352 0.909513 -2.605670
    22 11.692554 0.000000 -0.000003 0.017543 -0.037608 -0.891686
    23 11.481705 -0.000001 -0.000004 -0.534834 0.082980 0.180096
    24 2.914335 -0.027073 1.400147 -0.075621 -0.048469 -0.941389
    25 1.284180 -0.000002 0.000001 0.000007 0.095136 -0.604946
    26 0.842285 -0.000002 -0.000001 -0.078528 0.054443 -1.209530
    27 3.368063 0.007379 0.622456 0.035804 -0.077165 -1.016514
    28 1.605513 0.000000 0.000001 0.000003 0.122000 -1.086905
    29 1.020536 0.000002 -0.000003 0.015295 -0.014044 -1.343759
    30 3.551622 0.023919 -0.204473 0.012453 -0.103305 -0.905582
    31 1.666992 0.000000 -0.000001 -0.000008 0.157406 -1.208297
    32 1.236531 0.000004 0.000006 0.000002 0.000001 -1.483435
    33 3.449668 0.054213 -1.089087 0.062083 0.148317 -0.235681
    34 1.711618 0.000004 0.000013 0.000003 -0.026793 -0.726273
    35 0.999023 0.000004 0.000001 0.005618 -0.013549 -0.593093
    36 0.075535 -0.738746 -0.759724 1.293469 0.406709 -0.476079
    37 2.508557 -0.000006 -0.000010 -0.000002 -0.000001 0.359147
    38 1.328096 0.050782 -0.113292 0.025663 0.040518 0.530179
    39 -7.966885 -22.033562 -11.751815 1.560842 -0.000417 -3.141191
    40 -0.000002 3.287109 -0.573233 0.025117 0.000000 0.000000
    41 -0.000002 2.156256 -2.244137 0.000000 0.000000 0.000000
    42 -0.000003 2.917979 -4.039055 0.000000 0.000000 0.000000
    43 -0.097351 5.335948 -3.376940 0.000000 0.000000 0.000000
    44 -5.815069 27.963417 -8.904310 1.570757 0.000000 -4.712382
  time 17
    0 1.000000 -2.460938 -8.710938 -1.570783 -1.217361 -1.570804
    1 2.033348 1.000767 1.937660 3.099206 -0.162014 1.679995
    2 6.028145 0.000003 0.000002 -2.518697 -0.539463 0.394066
    3 11.692553 0.000081 -0.000005 -0.087730 0.044415 -0.259446
    4 11.481672 -0.000089 -0.000024 -0.051128 0.345423 -0.004652
    5 3.281557 0.002119 -1.383388 0.099874 -0.198508 -1.489062
    6 1.324282 -0.000008 0.000005 0.000000 -0.035669 -0.863336
    7 0.819336 -0.000002 0.000001 0.000000 0.000000 -0.523588
    8 3.711854 0.109255 -0.568167 -0.004645 -0.297817 -1.490821
    9 1.609408 0.000006 -0.000007 -0.002087 0.004812 -0.839808
    10 0.993191 -0.000008 0.000002 0.001475 0.002258 -0.454029
    11 3.786031 0.203224 0.243937 -0.050399 -0.349987 -0.966743
    12 1.680664 -0.000008 -0.000002 0.003628 -0.001845 -1.352714
    13 1.255859 0.000004 0.000000 0.000000 0.000000 0.135256
    14 3.594223 0.299551 1.109803 -0.118727 -0.375515 -0.093421
    15 1.719433 0.000002 -0.000004 0.000001 0.000010 -1.171526
    16 1.002930 -0.000004 0.000000 0.000000 0.000000 -0.071985
    17 0.298214 -0.630188 0.426700 -1.461606 -1.010990 0.046385
    18 2.633557 0.000002 -0.000006 0.260363 0.087765 0.097200
    19 1.308564 -0.000001 -0.000002 -0.003102 -0.044188 0.019715
    20 2.033356 1.000772 -1.937610 -0.128177 0.172990 -2.038336
    21 6.028141 0.000000 -0.000002 -0.879161 0.909036 -2.604817
    22 11.692554 0.000000 -0.000003 0.017268 -0.036277 -0.891492
    23 11.481705 -0.000001 -0.000004 -0.534592 0.084267 0.178689
    24 2.914335 -0.023166 1.400147 -0.075472 -0.048649 -0.941149
    25 1.284180 -0.000002 0.000001 0.000007 0.095136 -0.604946
    26 0.842285 -0.000002 -0.000001 -0.078528 0.054443 -1.209530
    27 3.368063 0.007379 0.622456 0.035972 -0.077320 -1.016278
    28 1.605513 0.000000 0.000001 0.000003 0.122000 -1.086905
    29 1.020536 0.000002 -0.000003 0.015295 -0.014044 -1.343759
    30 3.551622 0.023919 -0.204473 0.012608 -0.103497 -0.905355
    31 1.666992 0.000000 -0.000001 -0.000008 0.157406 -1.208297
    32 1.240438 0.000004 0.000006 0.000002 -0.000011 -1.483435
    33 3.449668 0.054213 -1.089087 0.062096 0.148073 -0.235429
    34 1.711618 0.000004 0.000013 0.000003 -0.026721 -0.724547
    35 0.999023 0.000004 0.000001 0.005618 -0.013549 -0.593093
    36 0.075535 -0.738746 -0.759724 1.293541 0.406469 -0.475804
    37 2.508557 -0.000006 -0.000010 -0.000002 -0.000001 0.359159
    38 1.328096 0.050782 -0.113292 0.025663 0.040518 0.530179
    39 -7.966885 -22.033562 -11.744002 1.562825 -0.000250 -3.141249
    40 -0.000002 3.287109 -0.573233 0.026156 0.000000 0.000000
    41 -0.000002 2.156256 -2.244137 0.000000 0.000000 0.000000
    42 -0.000003 2.917979 -4.039055 0.000000 0.000000 0.000000
    43 -0.097351 5.335948 -3.376940 0.000000 0.000000 0.000000
    44 -5.815069 27.963417 -8.904310 1.570757 0.000000 -4.712382
  time 18
    0 1.000000 -2.460938 -8.710938 -1.570783 -1.217361 -1.570804
    1 2.033348 1.000767 1.937660 3.099206 -0.162014 1.679995
    2 6.028145 0.000003 0.000002 -2.515105 -0.533480 0.387196
    3 11.692553 0.000081 -0.000005 -0.088545 0.047351 -0.277120
    4 11.481672 -0.000089 -0.000024 -0.051503 0.340428 -0.007549
    5 3.281557 0.002119 -1.379481 0.099718 -0.198220 -1.489132
    6 1.324282 -0.000008 0.000005 0.000000 -0.035669 -0.863336
    7 0.819336 -0.000002 0.000001 0.000000 0.000000 -0.523588
    8 3.711854 0.109255 -0.568167 -0.004825 -0.297517 -1.490876
    9 1.609408 0.000006 -0.000007 -0.002087 0.004812 -0.839808
    10 0.993191 -0.000008 0.000002 0.001475 0.002258 -0.454029
    11 3.786031 0.203224 0.243937 -0.050387 -0.349663 -0.966842
    12 1.680664 -0.000008 -0.000002 0.003628 -0.001845 -1.352714
    13 1.255859 0.000004 0.000000 0.000000 0.000000 0.135256
    14 3.594223 0.299551 1.109803 -0.118448 -0.375299 -0.093640
    15 1.719433 0.000002 -0.000004 0.000001 0.000010 -1.171526
    16 1.002930 -0.000004 0.000000 0.000000 0.000000 -0.071985
    17 0.298214 -0.634094 0.430606 -1.461079 -1.010830 0.045848
    18 2.637464 0.000002 -0.000006 0.260363 0.087765 0.097200
    19 1.308564 -0.000001 -0.000002 -0.003102 -0.044188 0.019715
    20 2.033356 1.000772 -1.937610 -0.128177 0.172990 -2.038336
    21 6.028141 0.000000 -0.000002 -0.877445 0.911184 -2.603206
    22 11.692554 0.000000 -0.000003 0.017975 -0.038183 -0.894986
    23 11.481705 -0.000001 -0.000004 -0.534532 0.087250 0.178948
    24 2.914335 -0.023166 1.400147 -0.075472 -0.048637 -0.941149
    25 1.284180 -0.000002 0.000001 0.000007 0.095136 -0.604946
    26 0.842285 -0.000002 -0.000001 -0.078528 0.054443 -1.209530
    27 3.368063 0.007379 0.618550 0.035972 -0.077320 -1.016278
    28 1.605513 0.000000 0.000001 0.000003 0.122000 -1.086905
    29 1.020536 0.000002 -0.000003 0.015295 -0.014044 -1.343759
    30 3.551622 0.023919 -0.204473 0.012608 -0.103497 -0.905355
    31 1.666992 0.000000 -0.000001 -0.000008 0.157406 -1.208297
    32 1.236531 0.000004 0.000006 0.000002 -0.000011 -1.483435
    33 3.449668 0.054213 -1.089087 0.062096 0.148073 -0.235441
    34 1.711618 0.000004 0.000013 0.000003 -0.026997 -0.730844
    35 0.999023 0.000004 0.000001 0.005618 -0.013549 -0.593093
    36 0.075535 -0.738746 -0.759724 1.293541 0.406469 -0.475804
    37 2.508557 -0.000006 -0.000010 -0.000002 -0.000001 0.359159
    38 1.328096 0.050782 -0.113292 0.025663 0.040518 0.530179
    39 -7.966885 -22.010124 -11.744002 1.564735 -0.000083 -3.141307
    40 -0.000002 3.287109 -0.573233 0.022327 0.000000 0.000000
    41 -0.000002 2.156256 -2.244137 0.000000 0.000000 0.000000
    42 -0.000003 2.917979 -4.039055 0.000000 0.000000 0.000000
    43 -0.097351 5.335948 -3.376940 0.000000 0.000000 0.000000
    44 -5.815069 27.963417 -8.904310 1.570757 0.000000 -4.712382
  time 19
    0 1.000000 -2.460938 -8.710938 -1.570783 -1.217361 -1.570804
    1 2.033348 1.000767 1.937660 3.099206 -0.162014 1.679995
    2 6.028145 0.000003 0.000002 -2.502571 -0.515205 0.362868
    3 11.692553 0.000081 -0.000005 -0.091421 0.056483 -0.332566
    4 11.481672 -0.000089 -0.000024 -0.051128 0.327239 0.000545
    5 3.281557 0.002119 -1.379481 0.099718 -0.198220 -1.489132
    6 1.324282 -0.000008 0.000005 0.000000 -0.035681 -0.863336
    7 0.819336 -0.000002 0.000001 0.000000 0.000000 -0.523588
    8 3.711854 0.109255 -0.568167 -0.004825 -0.297517 -1.490876
    9 1.609408 0.000006 -0.000007 -0.002087 0.004812 -0.839808
    10 0.993191 -0.000008 0.000002 0.001475 0.002258 -0.454029
    11 3.786031 0.203224 0.243937 -0.050387 -0.349663 -0.966842
    12 1.680664 -0.000008 -0.000002 0.003628 -0.001845 -1.352714
    13 1.255859 0.000004 0.000000 0.000000 0.000000 0.135256
    14 3.594223 0.299551 1.109803 -0.118432 -0.375299 -0.093640
    15 1.719433 0.000002 -0.000004 0.000001 0.000010 -1.171526
    16 1.002930 -0.000004 0.000000 0.000000 0.000000 -0.071985
    17 0.298214 -0.634094 0.430606 -1.461079 -1.010830 0.045848
    18 2.633557 0.000002 -0.000006 0.260363 0.087765 0.097200
    19 1.308564 -0.000001 -0.000002 -0.003102 -0.044188 0.019715
    20 2.033356 1.000772 -1.937610 -0.128177 0.172990 -2.038336
    21 6.028141 0.000000 -0.000002 -0.869818 0.919459 -2.593062
    22 11.692554 0.000000 -0.000003 0.020540 -0.041371 -0.910774
    23 11.481705 -0.000001 -0.000004 -0.535196 0.092894 0.183096
    24 2.914335 -0.023166 1.400147 -0.075472 -0.048637 -0.941149
    25 1.284180 -0.000002 0.000001 0.000007 0.095136 -0.604946
    26 0.842285 -0.000002 -0.000001 -0.078528 0.054443 -1.209530
    27 3.368063 0.007379 0.618550 0.035972 -0.077320 -1.016278
    28 1.605513 0.000000 0.000001 0.000003 0.121988 -1.086879
    29 1.020536 0.000002 -0.000003 0.015295 -0.014044 -1.343759
    30 3.551622 0.023919 -0.204473 0.012608 -0.103497 -0.905355
    31 1.666992 0.000000 -0.000001 -0.000008 0.157406 -1.208297
    32 1.236531 0.000004 0.000006 0.000002 -0.000011 -1.483435
    33 3.449668 0.054213 -1.089087 0.062096 0.148073 -0.235441
    34 1.711618 0.000004 0.000013 0.000003 -0.027584 -0.745134
    35 0.999023 0.000004 0.000001 0.005618 -0.013549 -0.593093
    36 0.075535 -0.738746 -0.759724 1.293541 0.406469 -0.475804
    37 2.508557 -0.000006 -0.000010 -0.000002 -0.000001 0.359159
    38 1.328096 0.050782 -0.113292 0.025663 0.040518 0.530179
    39 -7.966885 -21.924184 -11.775253 1.567232 -0.000042 -3.141481
    40 -0.000002 3.287109 -0.573233 0.013630 0.000000 0.000000
    41 -0.000002 2.156256 -2.244137 0.000000 0.000000 0.000000
    42 -0.000003 2.917979 -4.039055 0.000000 0.000000 0.000000
    43 -0.097351 5.335948 -3.376940 0.000000 0.000000 0.000000
    44 -5.815069 27.963417 -8.904310 1.570757 0.000000 -4.712382
  time 20
    0 1.000000 -2.460938 -8.710938 -1.570783 -1.217361 -1.570804
    1 2.033348 1.000767 1.937660 3.099206 -0.162014 1.679995
    2 6.028145 0.000003 0.000002 -2.491474 -0.498639 0.340829
    3 11.692553 0.000081 -0.000005 -0.094478 0.064645 -0.383007
    4 11.481672 -0.000089 -0.000024 -0.050378 0.314439 0.005557
    5 3.281557 0.002119 -1.383388 0.099718 -0.198220 -1.489132
    6 1.324282 -0.000008 0.000005 0.000000 -0.035669 -0.863336
    7 0.819336 -0.000002 0.000001 0.000000 0.000000 -0.523588
    8 3.711854 0.109255 -0.568167 -0.004825 -0.297517 -1.490876
    9 1.609408 0.000006 -0.000007 -0.002087 0.004812 -0.839808
    10 0.993191 -0.000008 0.000002 0.001475 0.002258 -0.454029
    11 3.786031 0.203224 0.243937 -0.050387 -0.349663 -0.966842
    12 1.680664 -0.000008 -0.000002 0.003628 -0.001845 -1.352714
    13 1.255859 0.000004 0.000000 0.000000 0.000000 0.135256
    14 3.594223 0.299551 1.113710 -0.118432 -0.375299 -0.093640
    15 1.719433 0.000002 -0.000004 0.000001 0.000010 -1.171526
    16 1.002930 -0.000004 0.000000 0.000000 0.000000 -0.071985
    17 0.298214 -0.634094 0.430606 -1.461079 -1.010830 0.045848
    18 2.633557 0.000002 -0.000006 0.260363 0.087765 0.097200
    19 1.308564 -0.000001 -0.000002 -0.003102 -0.044188 0.019715
    20 2.033356 1.000772 -1.937610 -0.128177 0.172990 -2.038336
    21 6.028141 0.000000 -0.000002 -0.856756 0.925029 -2.575713
    22 11.692554 0.000000 -0.000003 0.018442 -0.036745 -0.927338
    23 11.481705 -0.000001 -0.000004 -0.535859 0.093859 0.187504
    24 2.914335 -0.023166 1.400147 -0.075472 -0.048649 -0.941149
    25 1.284180 -0.000002 0.000001 0.000007 0.095136 -0.604946
    26 0.842285 -0.000002 -0.000001 -0.078528 0.054443 -1.209530
    27 3.368063 0.007379 0.618550 0.035972 -0.077320 -1.016278
    28 1.605513 0.000000 0.000001 0.000003 0.122000 -1.086905
    29 1.020536 0.000002 -0.000003 0.015295 -0.014044 -1.343759
    30 3.551622 0.023919 -0.204473 0.012608 -0.103497 -0.905355
    31 1.666992 0.000000 -0.000001 -0.000008 0.157406 -1.208297
    32 1.236531 0.000004 0.000006 0.000002 -0.000011 -1.483435
    33 3.449668 0.054213 -1.089087 0.062096 0.148073 -0.235441
    34 1.711618 0.000004 0.000013 0.000003 -0.028219 -0.760393
    35 0.999023 0.000004 0.000001 0.005618 -0.013549 -0.593093
    36 0.075535 -0.738746 -0.759724 1.293529 0.406469 -0.475804
    37 2.508557 -0.000006 -0.000010 -0.000002 -0.000001 0.359159
    38 1.328096 0.050782 -0.113292 0.025663 0.040518 0.530179
    39 -7.966885 -21.822618 -11.806504 1.569655 0.000000 -3.141539
    40 -0.000002 3.287109 -0.573233 0.004311 0.000000 0.000000
    41 -0.000002 2.156256 -2.244137 0.000000 0.000000 0.000000
    42 -0.000003 2.917979 -4.039055 0.000000 0.000000 0.000000
    43 -0.097351 5.335948 -3.376940 0.000000 0.000000 0.000000
    44 -5.815069 27.963417 -8.904310 1.570757 0.000000 -4.712382
  time 21
    0 1.000000 -2.460938 -8.710938 -1.570783 -1.217361 -1.570804
    1 2.033348 1.000767 1.937660 3.099206 -0.162014 1.679995
    2 6.028145 0.000003 0.000002 -2.486685 -0.491638 0.331383
    3 11.692553 0.000081 -0.000005 -0.095892 0.068025 -0.404357
    4 11.481672 -0.000089 -0.000024 -0.049929 0.308663 0.006753
    5 3.281557 0.002119 -1.379481 0.099718 -0.198220 -1.489132
    6 1.324282 -0.000008 0.000005 0.000000 -0.035657 -0.863336
    7 0.819336 -0.000002 0.000001 0.000000 0.000000 -0.523588
    8 3.711854 0.109255 -0.568167 -0.004825 -0.297517 -1.490876
    9 1.609408 0.000006 -0.000007 -0.002087 0.004812 -0.839808
    10 0.993191 -0.000008 0.000002 0.001475 0.002258 -0.454029
    11 3.786031 0.203224 0.243937 -0.050387 -0.349663 -0.966842
    12 1.680664 -0.000008 -0.000002 0.003628 -0.001845 -1.352714
    13 1.255859 0.000004 0.000000 0.000000 0.000000 0.135256
    14 3.594223 0.299551 1.113710 -0.118448 -0.375299 -0.093640
    15 1.719433 0.000002 -0.000004 0.000001 0.000010 -1.171526
    16 1.002930 -0.000004 0.000000 0.000000 0.000000 -0.071985
    17 0.298214 -0.634094 0.426700 -1.461079 -1.010830 0.045848
    18 2.633557 0.000002 -0.000006 0.260363 0.087765 0.097200
    19 1.308564 -0.000001 -0.000002 -0.003102 -0.044188 0.019715
    20 2.033356 1.000772 -1.937610 -0.128177 0.172990 -2.038336
    21 6.028141 0.000000 -0.000002 -0.849796 0.928173 -2.567275
    22 11.692554 0.000000 -0.000003 0.017388 -0.035403 -0.936009
    23 11.481705 -0.000001 -0.000004 -0.536161 0.094502 0.189948
    24 2.914335 -0.023166 1.400147 -0.075472 -0.048637 -0.941149
    25 1.284180 -0.000002 0.000001 0.000007 0.095136 -0.604946
    26 0.842285 -0.000002 -0.000001 -0.078528 0.054443 -1.209530
    27 3.368063 0.007379 0.622456 0.035972 -0.077320 -1.016278
    28 1.605513 0.000000 0.000001 0.000003 0.122000 -1.086905
    29 1.020536 0.000002 -0.000003 0.015295 -0.014044 -1.343759
    30 3.551622 0.023919 -0.204473 0.012608 -0.103497 -0.905355
    31 1.666992 0.000000 -0.000001 -0.000008 0.157406 -1.208297
    32 1.236531 0.000004 0.000006 0.000002 -0.000011 -1.483435
    33 3.449668 0.054213 -1.089087 0.062096 0.148073 -0.235441
    34 1.711618 0.000004 0.000013 0.000003 -0.028507 -0.767477
    35 0.999023 0.000004 0.000001 0.005618 -0.013549 -0.593093
    36 0.075535 -0.738746 -0.759724 1.293529 0.406469 -0.475804
    37 2.508557 -0.000006 -0.000010 -0.000002 -0.000001 0.359159
    38 1.328096 0.050782 -0.113292 0.025663 0.040518 0.530179
    39 -7.966885 -21.775742 -11.822129 1.570757 0.000000 -3.141597
    40 -0.000002 3.287109 -0.573233 0.000000 0.000000 0.000000
    41 -0.000002 2.156256 -2.244137 0.000000 0.000000 0.000000
    42 -0.000003 2.917979 -4.039055 0.000000 0.000000 0.000000
    43 -0.097351 5.335948 -3.376940 0.000000 0.000000 0.000000
    44 -5.815069 27.963417 -8.904310 1.570757 0.000000 -4.712382
end
