// Created by Crowbar++ 0.74
version 1
nodes
  0 "ValveBiped.Bip01_Spine4" -1
  1 "ValveBiped.Bip01_L_Clavicle" 0
  2 "ValveBiped.Bip01_L_UpperArm" 1
  3 "ValveBiped.Bip01_L_Forearm" 2
  4 "ValveBiped.Bip01_L_Hand" 3
  5 "ValveBiped.Bip01_L_Finger4" 4
  6 "ValveBiped.Bip01_L_Finger41" 5
  7 "ValveBiped.Bip01_L_Finger42" 6
  8 "ValveBiped.Bip01_L_Finger3" 4
  9 "ValveBiped.Bip01_L_Finger31" 8
  10 "ValveBiped.Bip01_L_Finger32" 9
  11 "ValveBiped.Bip01_L_Finger2" 4
  12 "ValveBiped.Bip01_L_Finger21" 11
  13 "ValveBiped.Bip01_L_Finger22" 12
  14 "ValveBiped.Bip01_L_Finger1" 4
  15 "ValveBiped.Bip01_L_Finger11" 14
  16 "ValveBiped.Bip01_L_Finger12" 15
  17 "ValveBiped.Bip01_L_Finger0" 4
  18 "ValveBiped.Bip01_L_Finger01" 17
  19 "ValveBiped.Bip01_L_Finger02" 18
  20 "ValveBiped.Bip01_R_Clavicle" 0
  21 "ValveBiped.Bip01_R_UpperArm" 20
  22 "ValveBiped.Bip01_R_Forearm" 21
  23 "ValveBiped.Bip01_R_Hand" 22
  24 "ValveBiped.Bip01_R_Finger4" 23
  25 "ValveBiped.Bip01_R_Finger41" 24
  26 "ValveBiped.Bip01_R_Finger42" 25
  27 "ValveBiped.Bip01_R_Finger3" 23
  28 "ValveBiped.Bip01_R_Finger31" 27
  29 "ValveBiped.Bip01_R_Finger32" 28
  30 "ValveBiped.Bip01_R_Finger2" 23
  31 "ValveBiped.Bip01_R_Finger21" 30
  32 "ValveBiped.Bip01_R_Finger22" 31
  33 "ValveBiped.Bip01_R_Finger1" 23
  34 "ValveBiped.Bip01_R_Finger11" 33
  35 "ValveBiped.Bip01_R_Finger12" 34
  36 "ValveBiped.Bip01_R_Finger0" 23
  37 "ValveBiped.Bip01_R_Finger01" 36
  38 "ValveBiped.Bip01_R_Finger02" 37
  39 "v_weapon.xm1014_Parent" -1
  40 "v_weapon.xm1014_Shell" 39
  41 "v_weapon.xm1014_Trigger" 39
  42 "v_weapon.xm1014_Loader" 39
  43 "v_weapon.xm1014_Bolt" 39
end
skeleton
  time 0
    0 0.000005 -1.663086 -9.445313 -1.570760 -1.391893 -1.570827
    1 2.033348 1.000767 1.937660 1.596636 -1.286515 2.942963
    2 6.028145 0.000003 0.000002 -1.217103 -0.060396 -0.646106
    3 11.692553 0.000081 -0.000005 -0.233499 0.083233 -2.374669
    4 11.481672 -0.000089 -0.000025 2.612534 -0.188733 0.501445
    5 3.281559 0.002119 -1.379481 -0.047211 -0.070081 -0.000649
    6 1.324284 -0.000010 0.000005 0.000000 -0.078487 -0.565830
    7 0.819336 -0.000001 -0.000004 0.000000 0.000000 -0.523574
    8 3.711852 0.109256 -0.568167 -0.137794 -0.071392 -0.222097
    9 1.609406 0.000006 -0.000007 -0.000002 -0.003841 -0.134400
    10 0.993191 -0.000006 0.000002 0.001475 0.002270 -0.454066
    11 3.786029 0.203223 0.243937 -0.126693 -0.041516 -0.190175
    12 1.684422 -0.000008 0.000009 0.000002 -0.009143 0.039925
    13 1.256836 0.000001 -0.000001 0.000000 0.000000 -0.532299
    14 3.594221 0.299551 1.109803 -0.119143 -0.177182 0.115178
    15 1.719435 0.000000 -0.000005 -0.000004 0.004283 -0.151844
    16 1.002930 -0.000003 0.000002 0.000000 0.000000 -0.445037
    17 0.298212 -0.634095 0.426700 -1.372009 -1.032585 -0.422779
    18 2.633557 0.000002 -0.000010 -0.000002 -0.044440 0.246549
    19 1.308566 -0.000001 -0.000004 -0.001676 -0.005178 0.326112
    20 2.033356 1.000772 -1.937610 -0.128177 0.172990 -2.038336
    21 6.028141 0.000000 -0.000002 -0.389315 0.975540 -2.016343
    22 11.692556 0.000000 -0.000002 0.045719 -0.026798 -2.082894
    23 11.481703 -0.000001 -0.000005 0.257309 0.014701 1.222644
    24 2.910429 -0.023166 1.400148 -0.075443 -0.048637 -0.941154
    25 1.284180 0.000001 0.000000 0.000007 0.095136 -0.604946
    26 0.842650 0.000000 -0.000001 -0.098885 0.057637 -1.366356
    27 3.368063 0.007377 0.622456 0.035972 -0.077320 -1.016274
    28 1.610352 -0.000001 0.000000 -0.000004 0.124901 -1.144888
    29 1.015625 0.000001 -0.000001 0.005990 -0.009220 -0.841138
    30 3.551622 0.023917 -0.200566 0.019452 -0.119964 -0.811971
    31 1.666992 0.000000 0.000000 -0.000006 0.145216 -1.293764
    32 1.243164 0.000001 0.000000 -0.000005 -0.000002 -0.886591
    33 3.449668 0.054213 -1.085181 0.053708 0.185826 -0.349671
    34 1.707031 -0.000001 0.000000 0.000011 -0.008526 -0.322849
    35 0.998535 -0.000001 0.000000 0.005620 -0.013548 -0.593079
    36 0.075534 -0.738749 -0.755818 1.279016 0.268834 -0.630105
    37 2.515625 0.000000 0.000001 0.000000 0.000000 0.359160
    38 1.292945 -0.042972 -0.335952 0.105001 0.186790 0.461843
    39 -3.079916 -13.212096 -7.617504 1.633339 0.910922 -3.143821
    40 1.347698 -9.973074 0.672381 1.753018 0.215317 -0.576740
    41 0.000000 2.996095 -1.358396 0.000000 0.000000 0.000000
    42 0.000000 2.746097 -5.042964 -0.033100 0.000000 0.000000
    43 0.000001 4.265628 -4.203120 0.000000 0.000000 0.000000
  time 1
    0 0.000005 -1.663086 -9.445313 -1.570760 -1.391893 -1.570827
    1 2.033348 1.000767 1.937660 1.680133 -1.285176 2.862833
    2 6.028145 0.000003 0.000002 -1.228833 -0.037075 -0.641898
    3 11.692553 0.000081 -0.000005 -0.234374 0.082310 -2.385264
    4 11.481672 -0.000089 -0.000025 2.615824 -0.195397 0.501027
    5 3.281559 0.002119 -1.379481 -0.047211 -0.070081 -0.000649
    6 1.324284 -0.000010 0.000005 0.000000 -0.078487 -0.565830
    7 0.819336 -0.000001 -0.000004 0.000000 0.000000 -0.523574
    8 3.711852 0.109256 -0.568167 -0.137794 -0.071392 -0.222097
    9 1.609406 0.000006 -0.000007 -0.000002 -0.003841 -0.134400
    10 0.993191 -0.000006 0.000002 0.001475 0.002270 -0.454066
    11 3.786029 0.203223 0.243937 -0.126693 -0.041516 -0.190175
    12 1.684422 -0.000008 0.000009 0.000002 -0.009143 0.039925
    13 1.256836 0.000001 -0.000001 0.000000 0.000000 -0.532299
    14 3.594221 0.299551 1.109803 -0.119143 -0.177182 0.115178
    15 1.719435 0.000000 -0.000005 -0.000004 0.004283 -0.151844
    16 1.002930 -0.000003 0.000002 0.000000 0.000000 -0.445037
    17 0.298212 -0.634095 0.426700 -1.372009 -1.032585 -0.422755
    18 2.633557 0.000002 -0.000010 -0.000002 -0.044440 0.246549
    19 1.308566 -0.000001 -0.000004 -0.001676 -0.005178 0.326112
    20 2.033356 1.000772 -1.937610 -0.128177 0.172990 -2.038336
    21 6.028141 0.000000 -0.000002 -0.389315 0.975540 -2.016343
    22 11.692556 0.000000 -0.000002 0.045719 -0.026798 -2.082894
    23 11.481703 -0.000001 -0.000005 0.257309 0.014701 1.222644
    24 2.910429 -0.023166 1.400148 -0.075443 -0.048637 -0.941154
    25 1.284180 0.000001 0.000000 0.000007 0.095136 -0.604946
    26 0.842650 0.000000 -0.000001 -0.098885 0.057637 -1.366356
    27 3.368063 0.007377 0.622456 0.035972 -0.077320 -1.016274
    28 1.610352 -0.000001 0.000000 -0.000004 0.124901 -1.144888
    29 1.015625 0.000001 -0.000001 0.005990 -0.009220 -0.841138
    30 3.551622 0.023917 -0.200566 0.019452 -0.119964 -0.811971
    31 1.666992 0.000000 0.000000 -0.000006 0.145216 -1.293764
    32 1.243164 0.000001 0.000000 -0.000005 -0.000002 -0.886591
    33 3.449668 0.054213 -1.085181 0.053708 0.185826 -0.349671
    34 1.707031 -0.000001 0.000000 0.000011 -0.008526 -0.322849
    35 0.998535 -0.000001 0.000000 0.005620 -0.013548 -0.593079
    36 0.075534 -0.738749 -0.755818 1.279016 0.268834 -0.630105
    37 2.515625 0.000000 0.000001 0.000000 0.000000 0.359160
    38 1.292945 -0.042972 -0.335952 0.105001 0.186790 0.461843
    39 -3.079916 -13.212096 -7.617504 1.633339 0.910922 -3.143821
    40 1.347698 -9.973074 0.672381 1.753018 0.215317 -0.576740
    41 0.000000 2.996095 -1.358396 0.000000 0.000000 0.000000
    42 0.000000 2.746097 -5.042964 -0.033100 0.000000 0.000000
    43 0.000001 4.265628 -4.203120 0.000000 0.000000 0.000000
  time 2
    0 0.000005 -1.663086 -9.445313 -1.570760 -1.391893 -1.570827
    1 2.033348 1.000767 1.937660 1.902793 -1.271654 2.649538
    2 6.028145 0.000003 0.000002 -1.223998 -0.105766 -0.682541
    3 11.692553 0.000081 -0.000005 -0.237502 0.078883 -2.424085
    4 11.481672 -0.000089 -0.000025 2.415118 -0.235256 0.691585
    5 3.281559 0.002119 -1.379481 -0.034395 -0.093103 -0.121930
    6 1.324284 -0.000010 0.000005 0.000000 -0.083064 -0.589984
    7 0.819336 -0.000001 -0.000004 0.000000 0.000000 -0.523574
    8 3.711852 0.109256 -0.568167 -0.128039 -0.088422 -0.344374
    9 1.609406 0.000006 -0.000007 -0.000002 -0.003601 -0.158842
    10 0.993191 -0.000006 0.000002 0.001475 0.002258 -0.454066
    11 3.786029 0.203223 0.243937 -0.121407 -0.054315 -0.312668
    12 1.684422 -0.000008 0.000009 0.000002 -0.008712 0.015495
    13 1.256836 0.000001 -0.000001 0.000000 0.000000 -0.532299
    14 3.594221 0.299551 1.113710 -0.116064 -0.178476 -0.009260
    15 1.719435 0.000000 -0.000005 -0.000004 0.006224 -0.176228
    16 1.002930 -0.000003 0.000002 0.000000 0.000000 -0.445037
    17 0.298212 -0.634095 0.426700 -1.372028 -1.032585 -0.422755
    18 2.637464 0.000002 -0.000010 -0.000002 -0.044440 0.246549
    19 1.308566 -0.000001 -0.000004 -0.001676 -0.005178 0.326112
    20 2.033356 1.000772 -1.937610 -0.128177 0.172990 -2.038336
    21 6.028141 0.000000 -0.000002 -0.385789 1.002933 -2.023734
    22 11.692556 0.000000 -0.000002 0.059885 -0.035810 -2.064504
    23 11.481703 -0.000001 -0.000005 0.281014 -0.036997 1.192943
    24 2.906522 -0.023166 1.400148 -0.075509 -0.048960 -0.941285
    25 1.284180 0.000001 0.000000 0.000007 0.095136 -0.604946
    26 0.842650 0.000000 -0.000001 -0.098885 0.057637 -1.366356
    27 3.364156 0.011284 0.618550 0.035960 -0.077644 -1.016418
    28 1.610352 -0.000001 0.000000 -0.000004 0.124901 -1.144888
    29 1.015625 0.000001 -0.000001 0.005990 -0.009220 -0.841138
    30 3.551622 0.027823 -0.200566 0.019380 -0.120275 -0.812103
    31 1.666992 0.000000 0.000000 -0.000006 0.145216 -1.293764
    32 1.243164 0.000001 0.000000 -0.000005 -0.000002 -0.886591
    33 3.449668 0.058119 -1.089087 0.053483 0.185586 -0.349861
    34 1.707031 -0.000001 0.000000 0.000011 -0.008526 -0.322849
    35 0.998535 -0.000001 0.000000 0.005620 -0.013548 -0.593079
    36 0.075534 -0.734842 -0.759724 1.278884 0.268537 -0.630285
    37 2.515625 0.000000 0.000001 0.000000 0.000000 0.359160
    38 1.292945 -0.042972 -0.335952 0.105001 0.186790 0.461843
    39 -3.232265 -13.387883 -7.719070 1.582167 0.924381 -3.155753
    40 1.347698 -9.973074 0.672381 1.753018 0.215317 -0.576740
    41 0.000000 2.996095 -1.358396 0.000000 0.000000 0.000000
    42 0.000000 2.746097 -5.042964 -0.033100 0.000000 0.000000
    43 0.000001 4.265628 -4.203120 0.000000 0.000000 0.000000
  time 3
    0 0.000005 -1.663086 -9.445313 -1.570760 -1.391893 -1.570827
    1 2.033348 1.000767 1.937660 2.188501 -1.227897 2.378198
    2 6.028145 0.000003 0.000002 -1.265364 -0.171866 -0.715917
    3 11.692553 0.000081 -0.000005 -0.239311 0.076761 -2.447274
    4 11.481672 -0.000089 -0.000025 2.148497 -0.230105 0.871997
    5 3.281559 0.002119 -1.379481 -0.021042 -0.114736 -0.243700
    6 1.324284 -0.000010 0.000005 0.000000 -0.086469 -0.614284
    7 0.819336 -0.000001 -0.000004 0.000000 0.000000 -0.523574
    8 3.711852 0.109256 -0.568167 -0.116342 -0.103846 -0.466925
    9 1.609406 0.000006 -0.000007 -0.000002 -0.003254 -0.183239
    10 0.993191 -0.000006 0.000002 0.001475 0.002258 -0.454066
    11 3.786029 0.203223 0.243937 -0.114301 -0.066168 -0.435360
    12 1.684422 -0.000008 0.000009 0.000002 -0.008184 -0.008936
    13 1.256836 0.000001 -0.000001 0.000000 0.000000 -0.532299
    14 3.594221 0.299551 1.113710 -0.111206 -0.178512 -0.133752
    15 1.719435 0.000000 -0.000005 -0.000004 0.008178 -0.200578
    16 1.002930 -0.000003 0.000002 0.000000 0.000000 -0.445037
    17 0.298212 -0.634095 0.430606 -1.371970 -1.032585 -0.422779
    18 2.633557 0.000002 -0.000010 -0.000002 -0.044440 0.246549
    19 1.308566 -0.000001 -0.000004 -0.001676 -0.005178 0.326112
    20 2.033356 1.000772 -1.937610 -0.128177 0.172990 -2.038336
    21 6.028141 0.000000 -0.000002 -0.379807 1.029434 -2.026117
    22 11.692556 0.000000 -0.000002 0.069796 -0.042569 -2.045556
    23 11.481703 -0.000001 -0.000005 0.275225 -0.070234 1.166652
    24 2.906522 -0.023166 1.400148 -0.075509 -0.049092 -0.941343
    25 1.284180 0.000001 0.000000 0.000007 0.095136 -0.604946
    26 0.842650 0.000000 -0.000001 -0.098885 0.057637 -1.366356
    27 3.364156 0.011284 0.618550 0.035948 -0.077776 -1.016466
    28 1.610352 -0.000001 0.000000 -0.000004 0.124901 -1.144888
    29 1.015625 0.000001 -0.000001 0.005990 -0.009220 -0.841138
    30 3.551622 0.027823 -0.200566 0.019344 -0.120395 -0.812151
    31 1.666992 0.000000 0.000000 -0.000006 0.145216 -1.293764
    32 1.243164 0.000001 0.000000 -0.000005 -0.000002 -0.886591
    33 3.449668 0.054213 -1.089087 0.053396 0.185490 -0.349929
    34 1.707031 -0.000001 0.000000 0.000011 -0.008526 -0.322849
    35 0.998535 -0.000001 0.000000 0.005620 -0.013548 -0.593079
    36 0.075534 -0.734842 -0.759724 1.278824 0.268401 -0.630345
    37 2.515625 0.000000 0.000001 0.000000 0.000000 0.359160
    38 1.292945 -0.042972 -0.335952 0.105001 0.186778 0.461843
    39 -3.462740 -13.559763 -7.805010 1.544872 0.907526 -3.172946
    40 1.347698 -9.973074 0.672381 1.753018 0.215317 -0.576740
    41 0.000000 2.996095 -1.358396 0.000000 0.000000 0.000000
    42 0.000000 2.746097 -5.042964 -0.033100 0.000000 0.000000
    43 0.000001 4.265628 -4.203120 0.000000 0.000000 0.000000
  time 4
    0 0.000005 -1.663086 -9.445313 -1.570760 -1.391893 -1.570827
    1 2.033348 1.000767 1.937660 2.446192 -1.145359 2.138887
    2 6.028145 0.000003 0.000002 -1.354991 -0.232030 -0.728540
    3 11.692553 0.000081 -0.000005 -0.239791 0.076174 -2.453720
    4 11.481672 -0.000089 -0.000025 1.876811 -0.192339 1.023584
    5 3.281559 0.002119 -1.379481 -0.007324 -0.134702 -0.366081
    6 1.324284 -0.000010 0.000005 0.000000 -0.088497 -0.638730
    7 0.819336 -0.000001 -0.000004 0.000000 0.000000 -0.523574
    8 3.711852 0.109256 -0.568167 -0.102847 -0.117497 -0.589968
    9 1.609406 0.000006 -0.000007 -0.000002 -0.002750 -0.207681
    10 0.993191 -0.000006 0.000002 0.001475 0.002270 -0.454066
    11 3.786029 0.203223 0.243937 -0.105432 -0.076918 -0.558250
    12 1.684422 -0.000008 0.000009 0.000002 -0.007609 -0.033397
    13 1.256836 0.000001 -0.000001 0.000000 0.000000 -0.532299
    14 3.594221 0.299551 1.109803 -0.104672 -0.177278 -0.258163
    15 1.719435 0.000000 -0.000005 -0.000004 0.009987 -0.224962
    16 1.002930 -0.000003 0.000002 0.000000 0.000000 -0.445037
    17 0.298212 -0.634095 0.430606 -1.371970 -1.032585 -0.422779
    18 2.637464 0.000002 -0.000010 -0.000002 -0.044440 0.246549
    19 1.308566 -0.000001 -0.000004 -0.001676 -0.005178 0.326112
    20 2.033356 1.000772 -1.937610 -0.128177 0.172990 -2.038336
    21 6.028141 0.000000 -0.000002 -0.370802 1.049482 -2.019066
    22 11.692556 0.000000 -0.000002 0.062534 -0.039034 -2.025061
    23 11.481703 -0.000001 -0.000005 0.214163 -0.075628 1.149931
    24 2.914335 -0.023166 1.400148 -0.075443 -0.048637 -0.941154
    25 1.284180 0.000001 0.000000 0.000007 0.095136 -0.604946
    26 0.842650 0.000000 -0.000001 -0.098885 0.057637 -1.366356
    27 3.368063 0.007377 0.622456 0.035972 -0.077320 -1.016274
    28 1.610352 -0.000001 0.000000 -0.000004 0.124901 -1.144888
    29 1.015625 0.000001 -0.000001 0.005990 -0.009220 -0.841138
    30 3.551622 0.023917 -0.200566 0.019452 -0.119964 -0.811971
    31 1.666992 0.000000 0.000000 -0.000006 0.145216 -1.293764
    32 1.243164 0.000001 0.000000 -0.000005 -0.000002 -0.886591
    33 3.445761 0.054213 -1.085181 0.053708 0.185826 -0.349671
    34 1.707031 -0.000001 0.000000 0.000011 -0.008526 -0.322849
    35 0.998535 -0.000001 0.000000 0.005620 -0.013548 -0.593079
    36 0.075534 -0.738749 -0.755818 1.279028 0.268809 -0.630105
    37 2.515625 0.000000 0.000001 0.000000 0.000000 0.359160
    38 1.292945 -0.042972 -0.335952 0.105001 0.186778 0.461843
    39 -3.826033 -13.743363 -7.855793 1.539795 0.837545 -3.192769
    40 1.347698 -9.973074 0.672381 1.753018 0.215317 -0.576663
    41 0.000000 2.996095 -1.358396 0.000000 0.000000 0.000000
    42 0.000000 2.746097 -5.042964 -0.033100 0.000000 0.000000
    43 0.000001 4.265628 -4.203120 0.000000 0.000000 0.000000
  time 5
    0 0.000005 -1.663086 -9.445313 -1.570760 -1.391893 -1.570827
    1 2.033348 1.000767 1.937660 2.638773 -1.030045 1.967951
    2 6.028145 0.000003 0.000002 -1.491178 -0.277259 -0.709796
    3 11.692553 0.000081 -0.000005 -0.238916 0.077253 -2.442162
    4 11.481672 -0.000089 -0.000025 1.609664 -0.124211 1.132022
    5 3.285465 0.002119 -1.379481 0.006446 -0.152966 -0.488981
    6 1.324284 -0.000010 0.000005 0.000000 -0.089061 -0.663369
    7 0.819336 -0.000001 -0.000004 0.000000 0.000000 -0.523574
    8 3.711852 0.109256 -0.568167 -0.087818 -0.129433 -0.713312
    9 1.609406 0.000006 -0.000007 -0.000002 -0.002139 -0.232168
    10 0.993191 -0.000006 0.000002 0.001475 0.002258 -0.454066
    11 3.786029 0.203223 0.243937 -0.095053 -0.086709 -0.681239
    12 1.684422 -0.000008 0.000009 0.000002 -0.007010 -0.057828
    13 1.256836 0.000001 -0.000001 0.000000 0.000000 -0.532299
    14 3.594221 0.299551 1.113710 -0.096735 -0.175097 -0.382465
    15 1.719435 0.000000 -0.000005 -0.000004 0.011533 -0.249346
    16 1.002930 -0.000003 0.000002 0.000000 0.000000 -0.445037
    17 0.298212 -0.630189 0.426700 -1.372296 -1.032897 -0.422442
    18 2.637464 0.000002 -0.000010 -0.000002 -0.044428 0.246549
    19 1.308566 -0.000001 -0.000004 -0.001676 -0.005178 0.326112
    20 2.033356 1.000772 -1.937610 -0.128177 0.172990 -2.038336
    21 6.028141 0.000000 -0.000002 -0.361797 1.074927 -2.015370
    22 11.692556 0.000000 -0.000002 0.065973 -0.042210 -2.003080
    23 11.481703 -0.000001 -0.000005 0.146216 -0.061728 1.132936
    24 2.910429 -0.023166 1.400148 -0.075443 -0.048637 -0.941154
    25 1.284180 0.000001 0.000000 0.000007 0.095136 -0.604946
    26 0.842650 0.000000 -0.000001 -0.098885 0.057637 -1.366356
    27 3.368063 0.007377 0.618550 0.035984 -0.077320 -1.016274
    28 1.610352 -0.000001 0.000000 -0.000004 0.124901 -1.144888
    29 1.015625 0.000001 -0.000001 0.005990 -0.009220 -0.841138
    30 3.551622 0.023917 -0.200566 0.019452 -0.119964 -0.811971
    31 1.666992 0.000000 0.000000 -0.000006 0.145216 -1.293764
    32 1.243164 0.000001 0.000000 -0.000005 -0.000002 -0.886591
    33 3.449668 0.054213 -1.089087 0.053708 0.185826 -0.349671
    34 1.707031 -0.000001 0.000000 0.000011 -0.008526 -0.322849
    35 0.998535 -0.000001 0.000000 0.005620 -0.013548 -0.593079
    36 0.075534 -0.738749 -0.755818 1.279028 0.268834 -0.630105
    37 2.515625 0.000000 0.000001 0.000000 0.000000 0.359160
    38 1.292945 -0.042972 -0.335952 0.105001 0.186790 0.461843
    39 -4.244014 -13.930868 -7.879231 1.546226 0.754692 -3.212499
    40 1.347698 -9.973074 0.672381 1.753018 0.215317 -0.576663
    41 0.000000 2.996095 -1.358396 0.000000 0.000000 0.000000
    42 0.000000 2.746097 -5.042964 -0.033100 0.000000 0.000000
    43 0.000001 4.265628 -4.203120 0.000000 0.000000 0.000000
  time 6
    0 0.000005 -1.663086 -9.445313 -1.570760 -1.391893 -1.570827
    1 2.033348 1.000767 1.937660 2.775047 -0.893522 1.855830
    2 6.028145 0.000003 0.000002 -1.666493 -0.293466 -0.658060
    3 11.692553 0.000081 -0.000005 -0.236543 0.079961 -2.412009
    4 11.481672 -0.000089 -0.000025 1.351727 -0.032741 1.186629
    5 3.281559 0.002119 -1.383388 0.020476 -0.168319 -0.612706
    6 1.324284 -0.000010 0.000005 0.000000 -0.088076 -0.688154
    7 0.819336 -0.000001 -0.000004 0.000000 0.000000 -0.523574
    8 3.711852 0.109256 -0.568167 -0.071315 -0.138470 -0.837121
    9 1.609406 0.000006 -0.000007 -0.000002 -0.001420 -0.256476
    10 0.993191 -0.000006 0.000002 0.001475 0.002258 -0.454066
    11 3.786029 0.203223 0.243937 -0.083093 -0.094404 -0.804558
    12 1.684422 -0.000008 0.000009 0.000002 -0.006387 -0.082258
    13 1.256836 0.000001 -0.000001 0.000000 0.000000 -0.532299
    14 3.594221 0.299551 1.113710 -0.087005 -0.171118 -0.506848
    15 1.719435 0.000000 -0.000005 -0.000004 0.012660 -0.273764
    16 1.002930 -0.000003 0.000002 0.000000 0.000000 -0.445037
    17 0.298212 -0.634095 0.430606 -1.372009 -1.032585 -0.422755
    18 2.633557 0.000002 -0.000010 -0.000002 -0.044440 0.246549
    19 1.308566 -0.000001 -0.000004 -0.001676 -0.005178 0.326112
    20 2.033356 1.000772 -1.937610 -0.128177 0.172990 -2.038336
    21 6.028141 0.000000 -0.000002 -0.354240 1.104431 -2.015808
    22 11.692556 0.000000 -0.000002 0.078233 -0.051174 -1.980603
    23 11.481703 -0.000001 -0.000005 0.074246 -0.035681 1.110990
    24 2.914335 -0.023166 1.400148 -0.075443 -0.048637 -0.941154
    25 1.284180 0.000001 0.000000 0.000007 0.095136 -0.604946
    26 0.842650 0.000000 -0.000001 -0.098885 0.057637 -1.366390
    27 3.368063 0.007377 0.622456 0.035972 -0.077320 -1.016274
    28 1.610352 -0.000001 0.000000 -0.000004 0.124901 -1.144888
    29 1.015625 0.000001 -0.000001 0.005990 -0.009220 -0.841138
    30 3.551622 0.023917 -0.200566 0.019452 -0.119964 -0.811971
    31 1.666992 0.000000 0.000000 -0.000006 0.145216 -1.293764
    32 1.243164 0.000001 0.000000 -0.000005 -0.000002 -0.886591
    33 3.449668 0.054213 -1.085181 0.053708 0.185826 -0.349671
    34 1.707031 -0.000001 0.000000 0.000011 -0.008526 -0.322849
    35 0.998535 -0.000001 0.000000 0.005620 -0.013548 -0.593079
    36 0.075534 -0.734842 -0.755818 1.279016 0.268834 -0.630105
    37 2.515625 0.000000 0.000001 0.000000 0.000000 0.359160
    38 1.292945 -0.042972 -0.335952 0.105001 0.186790 0.461843
    39 -4.669808 -14.106655 -7.890950 1.560237 0.663875 -3.228377
    40 1.347698 -9.973074 0.672381 1.753018 0.215317 -0.576663
    41 0.000000 2.996095 -1.358396 0.000000 0.000000 0.000000
    42 0.000000 2.746097 -5.042964 -0.033100 0.000000 0.000000
    43 0.000001 4.265628 -4.203120 0.000000 0.000000 0.000000
  time 7
    0 0.000005 -1.663086 -9.445313 -1.570760 -1.391893 -1.570827
    1 2.033348 1.000767 1.937660 2.872850 -0.747081 1.784103
    2 6.028145 0.000003 0.000002 -1.860342 -0.274809 -0.585284
    3 11.692553 0.000081 -0.000005 -0.232312 0.084443 -2.360519
    4 11.481672 -0.000089 -0.000025 1.101947 0.068774 1.188181
    5 3.281559 0.002119 -1.379481 0.034177 -0.181454 -0.736951
    6 1.324284 -0.000010 0.000005 0.000000 -0.085440 -0.713036
    7 0.819336 -0.000001 -0.000004 0.000000 0.000000 -0.523574
    8 3.711852 0.109256 -0.568167 -0.053770 -0.145517 -0.961176
    9 1.609406 0.000006 -0.000007 -0.000002 -0.000605 -0.280962
    10 0.993191 -0.000006 0.000002 0.001475 0.002258 -0.454066
    11 3.786029 0.203223 0.243937 -0.069922 -0.100875 -0.928043
    12 1.684422 -0.000008 0.000009 0.000002 -0.005799 -0.106688
    13 1.256836 0.000001 -0.000001 0.000000 0.000000 -0.532299
    14 3.594221 0.299551 1.109803 -0.076191 -0.166276 -0.630906
    15 1.719435 0.000000 -0.000005 -0.000004 0.013259 -0.298215
    16 1.002930 -0.000003 0.000002 0.000000 0.000000 -0.445037
    17 0.298212 -0.634095 0.426700 -1.372009 -1.032585 -0.422755
    18 2.633557 0.000002 -0.000010 -0.000002 -0.044428 0.246549
    19 1.308566 -0.000001 -0.000004 -0.001664 -0.005178 0.326112
    20 2.033356 1.000772 -1.937610 -0.128177 0.172990 -2.038336
    21 6.028141 0.000000 -0.000002 -0.340953 1.105729 -1.992321
    22 11.692556 0.000000 -0.000002 0.040194 -0.027169 -1.955711
    23 11.481703 -0.000001 -0.000005 -0.020028 -0.038882 1.081729
    24 2.906522 -0.023166 1.400148 -0.075459 -0.048637 -0.941154
    25 1.284180 0.000001 0.000000 0.000007 0.095136 -0.604946
    26 0.838744 0.000000 -0.000001 -0.098885 0.057637 -1.366356
    27 3.364156 0.011284 0.622456 0.035972 -0.077320 -1.016274
    28 1.610352 -0.000001 0.000000 -0.000004 0.124901 -1.144888
    29 1.015625 0.000001 -0.000001 0.005990 -0.009220 -0.841138
    30 3.551622 0.027823 -0.200566 0.019452 -0.119964 -0.811971
    31 1.666992 0.000000 0.000000 -0.000006 0.145216 -1.293764
    32 1.243164 0.000001 0.000000 -0.000005 -0.000002 -0.886591
    33 3.449668 0.058119 -1.089087 0.053695 0.185826 -0.349671
    34 1.707031 -0.000001 0.000000 0.000011 -0.008526 -0.322849
    35 0.998535 -0.000001 0.000000 0.005620 -0.013548 -0.593079
    36 0.075534 -0.734842 -0.755818 1.279028 0.268809 -0.630105
    37 2.515625 0.000000 0.000001 0.000000 0.000000 0.359160
    38 1.292945 -0.042972 -0.335952 0.105001 0.186790 0.461843
    39 -5.076071 -14.278535 -7.902669 1.576617 0.569662 -3.237490
    40 1.347698 -9.973074 0.672381 1.753018 0.215317 -0.576663
    41 0.000000 2.996095 -1.358396 0.000000 0.000000 0.000000
    42 0.000000 2.746097 -5.042964 -0.033100 0.000000 0.000000
    43 0.000001 4.265628 -4.203120 0.000000 0.000000 0.000000
  time 8
    0 0.000005 -1.663086 -9.445313 -1.570760 -1.391893 -1.570827
    1 2.033348 1.000767 1.937660 2.945343 -0.600640 1.738738
    2 6.028145 0.000003 0.000002 -2.047475 -0.226895 -0.507536
    3 11.692553 0.000081 -0.000005 -0.225421 0.090843 -2.281764
    4 11.481672 -0.000089 -0.000025 0.855916 0.165814 1.140377
    5 3.281559 0.002119 -1.379481 0.047426 -0.191844 -0.861684
    6 1.324284 -0.000010 0.000005 0.000000 -0.081138 -0.738112
    7 0.819336 -0.000001 -0.000004 0.000000 0.000000 -0.523574
    8 3.711852 0.109256 -0.568167 -0.035374 -0.150071 -1.085451
    9 1.609406 0.000006 -0.000007 -0.000002 0.000258 -0.305359
    10 0.993191 -0.000006 0.000002 0.001475 0.002258 -0.454066
    11 3.786029 0.203223 0.247844 -0.055660 -0.105705 -1.051627
    12 1.684422 -0.000008 0.000009 0.000002 -0.005248 -0.131086
    13 1.256836 0.000001 -0.000001 0.000000 0.000000 -0.532299
    14 3.594221 0.299551 1.113710 -0.064265 -0.160368 -0.754909
    15 1.719435 0.000000 -0.000005 -0.000004 0.013199 -0.322666
    16 1.002930 -0.000003 0.000002 0.000000 0.000000 -0.445037
    17 0.298212 -0.634095 0.430606 -1.372028 -1.032585 -0.422755
    18 2.633557 0.000002 -0.000010 -0.000002 -0.044428 0.246549
    19 1.308566 -0.000001 -0.000004 -0.001664 -0.005178 0.326112
    20 2.033356 1.000772 -1.937610 -0.128177 0.172990 -2.038336
    21 6.028141 0.000000 -0.000002 -0.332767 1.132838 -1.990960
    22 11.692556 0.000000 -0.000002 0.051915 -0.036074 -1.931006
    23 11.481703 -0.000001 -0.000005 -0.095044 -0.021518 1.038662
    24 2.910429 -0.023166 1.400148 -0.075443 -0.048637 -0.941154
    25 1.284180 0.000001 0.000000 0.000007 0.095136 -0.604946
    26 0.842650 0.000000 -0.000001 -0.098885 0.057637 -1.366356
    27 3.368063 0.007377 0.618550 0.035972 -0.077320 -1.016274
    28 1.610352 -0.000001 0.000000 -0.000004 0.124901 -1.144888
    29 1.015625 0.000001 -0.000001 0.005990 -0.009220 -0.841138
    30 3.551622 0.023917 -0.200566 0.019452 -0.119964 -0.811971
    31 1.666992 0.000000 0.000000 -0.000006 0.145216 -1.293764
    32 1.243164 0.000001 0.000000 -0.000005 -0.000002 -0.886591
    33 3.449668 0.054213 -1.089087 0.053708 0.185826 -0.349671
    34 1.707031 -0.000001 0.000000 0.000011 -0.008526 -0.322849
    35 0.998535 -0.000001 0.000000 0.005620 -0.013548 -0.593079
    36 0.075534 -0.738749 -0.755818 1.279028 0.268809 -0.630105
    37 2.515625 0.000000 0.000001 0.000000 0.000000 0.359160
    38 1.292945 -0.042972 -0.335952 0.105001 0.186790 0.461843
    39 -5.431550 -14.446509 -7.922201 1.589545 0.476591 -3.236926
    40 1.347698 -9.973074 0.672381 1.753018 0.215317 -0.576663
    41 0.000000 2.996095 -1.358396 0.000000 0.000000 0.000000
    42 0.000000 2.746097 -5.042964 -0.033100 0.000000 0.000000
    43 0.000001 4.265628 -4.203120 0.000000 0.000000 0.000000
  time 9
    0 0.000005 -1.663086 -9.445313 -1.570760 -1.391893 -1.570827
    1 2.033348 1.000767 1.937660 3.000458 -0.463053 1.710717
    2 6.028145 0.000003 0.000002 -2.208554 -0.166260 -0.434378
    3 11.692553 0.000081 -0.000005 -0.214875 0.098945 -2.170708
    4 11.481672 -0.000089 -0.000025 0.609886 0.246499 1.050499
    5 3.277652 0.002119 -1.379481 0.059670 -0.199287 -0.986203
    6 1.324284 -0.000010 0.000005 0.000000 -0.075141 -0.763236
    7 0.819336 -0.000001 -0.000004 0.000000 0.000000 -0.523574
    8 3.707945 0.109256 -0.568167 -0.016762 -0.152132 -1.209260
    9 1.609406 0.000006 -0.000007 -0.000002 0.001204 -0.329757
    10 0.993191 -0.000006 0.000002 0.001475 0.002258 -0.454066
    11 3.786029 0.203223 0.243937 -0.040931 -0.108833 -1.174715
    12 1.684422 -0.000008 0.000009 0.000002 -0.004781 -0.155516
    13 1.256836 0.000001 -0.000001 0.000000 0.000000 -0.532299
    14 3.590314 0.299551 1.113710 -0.051759 -0.153417 -0.878069
    15 1.719435 0.000000 -0.000005 -0.000004 0.012372 -0.347151
    16 1.002930 -0.000003 0.000002 0.000000 0.000000 -0.445037
    17 0.294305 -0.634095 0.430606 -1.372565 -1.032383 -0.421671
    18 2.633557 0.000002 -0.000010 -0.000002 -0.044440 0.246549
    19 1.308566 -0.000001 -0.000004 -0.001664 -0.005178 0.326112
    20 2.033356 1.000772 -1.937610 -0.128177 0.172990 -2.038336
    21 6.028141 0.000000 -0.000002 -0.324329 1.147124 -1.981477
    22 11.692556 0.000000 -0.000002 0.043382 -0.030729 -1.905185
    23 11.481703 -0.000001 -0.000005 -0.177618 -0.028183 0.985530
    24 2.910429 -0.023166 1.400148 -0.075459 -0.048637 -0.941154
    25 1.284180 0.000001 0.000000 0.000007 0.095136 -0.604946
    26 0.838744 0.000000 -0.000001 -0.098885 0.057637 -1.366356
    27 3.368063 0.007377 0.618550 0.035972 -0.077320 -1.016274
    28 1.610352 -0.000001 0.000000 -0.000004 0.124901 -1.144888
    29 1.015625 0.000001 -0.000001 0.005990 -0.009220 -0.841138
    30 3.551622 0.023917 -0.200566 0.019452 -0.119964 -0.811971
    31 1.666992 0.000000 0.000000 -0.000006 0.145216 -1.293764
    32 1.243164 0.000001 0.000000 -0.000005 -0.000002 -0.886591
    33 3.449668 0.054213 -1.089087 0.053708 0.185826 -0.349671
    34 1.707031 -0.000001 0.000000 0.000011 -0.008526 -0.322849
    35 0.998535 -0.000001 0.000000 0.005620 -0.013548 -0.593079
    36 0.075534 -0.738749 -0.755818 1.279028 0.268809 -0.630105
    37 2.515625 0.000000 0.000001 0.000000 0.000000 0.359160
    38 1.292945 -0.042972 -0.335952 0.105001 0.186778 0.461843
    39 -5.720622 -14.610577 -7.976890 1.595773 0.383860 -3.224901
    40 1.347698 -9.973074 0.672381 1.753018 0.215317 -0.576663
    41 0.000000 2.996095 -1.358396 0.000000 0.000000 0.000000
    42 0.000000 2.746097 -5.042964 -0.033100 0.000000 0.000000
    43 0.000001 4.265628 -4.203120 0.000000 0.000000 0.000000
  time 10
    0 0.000005 -1.663086 -9.445313 -1.570760 -1.391893 -1.570827
    1 2.033348 1.000767 1.937660 3.042413 -0.342626 1.694221
    2 6.028145 0.000003 0.000002 -2.330683 -0.115142 -0.365905
    3 11.692553 0.000081 -0.000005 -0.199726 0.107682 -2.024016
    4 11.481672 -0.000089 -0.000025 0.363132 0.300363 0.932035
    5 3.281559 0.002119 -1.379481 0.071775 -0.203733 -1.112373
    6 1.324284 -0.000010 0.000005 0.000000 -0.067507 -0.788312
    7 0.819336 -0.000001 -0.000004 0.000000 0.000000 -0.523574
    8 3.711852 0.109256 -0.568167 0.002797 -0.151521 -1.334355
    9 1.609406 0.000006 -0.000007 -0.000002 0.002211 -0.354243
    10 0.993191 -0.000006 0.000002 0.001475 0.002258 -0.454066
    11 3.786029 0.203223 0.247844 -0.024860 -0.110103 -1.299126
    12 1.684422 -0.000008 0.000009 0.000002 -0.004397 -0.179946
    13 1.256836 0.000001 -0.000001 0.000000 0.000000 -0.532299
    14 3.594221 0.299551 1.113710 -0.037823 -0.145723 -1.002343
    15 1.719435 0.000000 -0.000005 -0.000004 0.010706 -0.371569
    16 1.002930 -0.000003 0.000002 0.000000 0.000000 -0.445037
    17 0.298212 -0.634095 0.430606 -1.372009 -1.032585 -0.422755
    18 2.637464 0.000002 -0.000010 -0.000002 -0.044440 0.246549
    19 1.308566 -0.000001 -0.000004 -0.001676 -0.005178 0.326112
    20 2.033356 1.000772 -1.937610 -0.128177 0.172990 -2.038336
    21 6.028141 0.000000 -0.000002 -0.318157 1.168673 -1.979192
    22 11.692556 0.000000 -0.000002 0.050094 -0.036457 -1.878003
    23 11.481703 -0.000001 -0.000005 -0.258119 -0.034234 0.923047
    24 2.910429 -0.023166 1.400148 -0.075443 -0.048649 -0.941154
    25 1.284180 0.000001 0.000000 0.000007 0.095136 -0.604946
    26 0.842650 0.000000 -0.000001 -0.098885 0.057637 -1.366356
    27 3.368063 0.007377 0.618550 0.035972 -0.077320 -1.016274
    28 1.610352 -0.000001 0.000000 -0.000004 0.124901 -1.144888
    29 1.015625 0.000001 -0.000001 0.005990 -0.009220 -0.841138
    30 3.551622 0.023917 -0.204473 0.019452 -0.119964 -0.811971
    31 1.666992 0.000000 0.000000 -0.000006 0.145216 -1.293764
    32 1.243164 0.000001 0.000000 -0.000005 -0.000002 -0.886591
    33 3.445761 0.054213 -1.089087 0.053708 0.185826 -0.349671
    34 1.707031 -0.000001 0.000000 0.000011 -0.008526 -0.322849
    35 0.998535 -0.000001 0.000000 0.005620 -0.013548 -0.593079
    36 0.075534 -0.738749 -0.755818 1.279016 0.268834 -0.630105
    37 2.515625 0.000000 0.000001 0.000000 0.000000 0.359160
    38 1.292945 -0.042972 -0.335952 0.105001 0.186790 0.461843
    39 -5.978442 -14.766831 -8.058924 1.596314 0.288535 -3.204701
    40 1.347698 -9.973074 0.672381 1.753018 0.215317 -0.576663
    41 0.000000 2.996095 -1.358396 0.000000 0.000000 0.000000
    42 0.000000 2.746097 -5.042964 -0.033100 0.000000 0.000000
    43 0.000001 4.265628 -4.203120 0.000000 0.000000 0.000000
  time 11
    0 0.000005 -1.663086 -9.445313 -1.570760 -1.391893 -1.570827
    1 2.033348 1.000767 1.937660 3.073043 -0.247218 1.685356
    2 6.028145 0.000003 0.000002 -2.411983 -0.094506 -0.293799
    3 11.692553 0.000081 -0.000005 -0.178657 0.115532 -1.835317
    4 11.481672 -0.000089 -0.000025 0.117825 0.326378 0.791608
    5 3.281559 0.002119 -1.379481 0.082441 -0.205040 -1.238022
    6 1.324284 -0.000010 0.000005 0.000000 -0.058337 -0.813436
    7 0.819336 -0.000001 -0.000004 0.000000 0.000000 -0.523574
    8 3.711852 0.109256 -0.568167 0.021973 -0.148369 -1.458739
    9 1.609406 0.000006 -0.000007 -0.000002 0.003242 -0.378641
    10 0.993191 -0.000006 0.000002 0.001487 0.002258 -0.454066
    11 3.786029 0.203223 0.243937 -0.008752 -0.109612 -1.422908
    12 1.684422 -0.000008 0.000009 0.000002 -0.004146 -0.204376
    13 1.256836 0.000001 -0.000001 0.000000 0.000000 -0.532299
    14 3.594221 0.299551 1.113710 -0.023713 -0.137202 -1.125775
    15 1.719435 0.000000 -0.000005 -0.000004 0.008106 -0.396053
    16 1.002930 -0.000003 0.000002 0.000000 0.000000 -0.445037
    17 0.298212 -0.634095 0.430606 -1.371970 -1.032585 -0.422779
    18 2.633557 0.000002 -0.000010 -0.000002 -0.044440 0.246549
    19 1.308566 -0.000001 -0.000004 -0.001676 -0.005178 0.326112
    20 2.033356 1.000772 -1.937610 -0.128177 0.172990 -2.038336
    21 6.028141 0.000000 -0.000002 -0.315765 1.195092 -1.983666
    22 11.692556 0.000000 -0.000002 0.066932 -0.050144 -1.849830
    23 11.481703 -0.000001 -0.000005 -0.337462 -0.040154 0.856219
    24 2.914335 -0.023166 1.400148 -0.075443 -0.048637 -0.941154
    25 1.284180 0.000001 0.000000 0.000007 0.095136 -0.604946
    26 0.842650 0.000000 -0.000001 -0.098885 0.057637 -1.366356
    27 3.368063 0.007377 0.618550 0.035972 -0.077320 -1.016274
    28 1.610352 -0.000001 0.000000 -0.000004 0.124901 -1.144888
    29 1.015625 0.000001 -0.000001 0.005990 -0.009220 -0.841138
    30 3.551622 0.023917 -0.200566 0.019452 -0.119964 -0.811971
    31 1.666992 0.000000 0.000000 -0.000006 0.145216 -1.293764
    32 1.243164 0.000001 0.000000 -0.000005 -0.000002 -0.886591
    33 3.449668 0.054213 -1.089087 0.053708 0.185826 -0.349671
    34 1.707031 -0.000001 0.000000 0.000011 -0.008526 -0.322849
    35 0.998535 -0.000001 0.000000 0.005620 -0.013548 -0.593079
    36 0.075534 -0.738749 -0.755818 1.279028 0.268809 -0.630105
    37 2.515625 0.000000 0.000001 0.000000 0.000000 0.359160
    38 1.292945 -0.042972 -0.335952 0.105001 0.186778 0.461843
    39 -6.220637 -14.919180 -8.183928 1.591373 0.191914 -3.179616
    40 1.347698 -9.973074 0.672381 1.753018 0.215317 -0.576663
    41 0.000000 2.996095 -1.358396 0.000000 0.000000 0.000000
    42 0.000000 2.746097 -5.042964 -0.033100 0.000000 0.000000
    43 0.000001 4.265628 -4.203120 0.000000 0.000000 0.000000
  time 12
    0 0.000005 -1.663086 -9.445313 -1.570760 -1.391893 -1.570827
    1 2.033348 1.000767 1.937660 3.092255 -0.184516 1.681232
    2 6.028145 0.000003 0.000002 -2.455767 -0.122397 -0.210791
    3 11.692553 0.000081 -0.000005 -0.150661 0.119618 -1.597794
    4 11.481672 -0.000089 -0.000025 -0.123140 0.326636 0.634770
    5 3.281559 0.002119 -1.383388 0.091858 -0.202954 -1.363947
    6 1.324284 -0.000010 0.000005 0.000000 -0.047661 -0.838464
    7 0.819336 -0.000001 -0.000004 0.000000 0.000000 -0.523574
    8 3.711852 0.105349 -0.572073 0.040740 -0.142485 -1.583205
    9 1.609406 0.000006 -0.000007 -0.000002 0.004261 -0.403083
    10 0.993191 -0.000006 0.000002 0.001487 0.002258 -0.454066
    11 3.786029 0.203223 0.243937 0.007463 -0.107107 -1.546921
    12 1.684422 -0.000008 0.000009 0.000002 -0.004026 -0.228774
    13 1.256836 0.000001 -0.000001 0.000000 0.000000 -0.532299
    14 3.594221 0.299551 1.109803 -0.009227 -0.127842 -1.249235
    15 1.719435 0.000000 -0.000005 -0.000004 0.004546 -0.420572
    16 1.002930 -0.000003 0.000002 0.000000 0.000000 -0.445037
    17 0.298212 -0.634095 0.426700 -1.371606 -1.032493 -0.423358
    18 2.637464 0.000002 -0.000010 -0.000002 -0.044428 0.246549
    19 1.308566 -0.000001 -0.000004 -0.001676 -0.005178 0.326112
    20 2.033356 1.000772 -1.937610 -0.128177 0.172990 -2.038336
    21 6.028141 0.000000 -0.000002 -0.303359 1.193022 -1.962026
    22 11.692556 0.000000 -0.000002 0.036287 -0.028104 -1.820418
    23 11.481703 -0.000001 -0.000005 -0.428750 -0.081591 0.791482
    24 2.910429 -0.023166 1.400148 -0.075443 -0.048649 -0.941154
    25 1.284180 0.000001 0.000000 0.000007 0.095136 -0.604946
    26 0.842650 0.000000 -0.000001 -0.098885 0.057637 -1.366356
    27 3.368063 0.007377 0.618550 0.035972 -0.077320 -1.016274
    28 1.610352 -0.000001 0.000000 -0.000004 0.124901 -1.144888
    29 1.015625 0.000001 -0.000001 0.005990 -0.009220 -0.841138
    30 3.551622 0.023917 -0.204473 0.019452 -0.119964 -0.811971
    31 1.666992 0.000000 0.000000 -0.000006 0.145216 -1.293764
    32 1.243164 0.000001 0.000000 -0.000005 -0.000002 -0.886591
    33 3.449668 0.054213 -1.089087 0.053708 0.185826 -0.349671
    34 1.707031 -0.000001 0.000000 0.000011 -0.008526 -0.322849
    35 0.998535 -0.000001 0.000000 0.005620 -0.013548 -0.593079
    36 0.075534 -0.738749 -0.755818 1.279028 0.268809 -0.630105
    37 2.515625 0.000000 0.000001 0.000000 0.000000 0.359160
    38 1.292945 -0.042972 -0.335952 0.105001 0.186790 0.461843
    39 -6.478457 -15.063715 -8.328464 1.582100 0.095355 -3.153028
    40 1.347698 -9.973074 0.672381 1.753018 0.215317 -0.576663
    41 0.000000 2.996095 -1.358396 0.000000 0.000000 0.000000
    42 0.000000 2.746097 -5.042964 -0.033100 0.000000 0.000000
    43 0.000001 4.265628 -4.203120 0.000000 0.000000 0.000000
  time 13
    0 0.000005 -1.663086 -9.445313 -1.570760 -1.391893 -1.570827
    1 2.033348 1.000767 1.937660 3.099087 -0.161968 1.679999
    2 6.028145 0.000003 0.000002 -2.475376 -0.221006 -0.105309
    3 11.692553 0.000081 -0.000005 -0.114180 0.114968 -1.288704
    4 11.481672 -0.000089 -0.000025 -0.357921 0.308509 0.455730
    5 3.281559 0.002119 -1.379481 0.099731 -0.197993 -1.489383
    6 1.324284 -0.000010 0.000005 0.000000 -0.035652 -0.863346
    7 0.819336 -0.000001 -0.000004 0.000000 0.000000 -0.523574
    8 3.711852 0.105349 -0.568167 0.058861 -0.134419 -1.707151
    9 1.609406 0.000006 -0.000007 -0.000002 0.005243 -0.427480
    10 0.993191 -0.000006 0.000002 0.001487 0.002258 -0.454066
    11 3.786029 0.203223 0.243937 0.023522 -0.103092 -1.670538
    12 1.684422 -0.000008 0.000009 0.000002 -0.004050 -0.253205
    13 1.256836 0.000001 -0.000001 0.000000 0.000000 -0.532299
    14 3.594221 0.299551 1.109803 0.005287 -0.118206 -1.372259
    15 1.719435 0.000000 -0.000005 -0.000004 0.000016 -0.445023
    16 1.002930 -0.000003 0.000002 0.000000 0.000000 -0.445037
    17 0.298212 -0.634095 0.430606 -1.371606 -1.032493 -0.423334
    18 2.637464 0.000002 -0.000010 -0.000002 -0.044428 0.246549
    19 1.308566 -0.000001 -0.000004 -0.001664 -0.005178 0.326112
    20 2.033356 1.000772 -1.937610 -0.128177 0.172990 -2.038336
    21 6.028141 0.000000 -0.000002 -0.303800 1.220416 -1.970293
    22 11.692556 0.000000 -0.000002 0.057248 -0.045985 -1.789892
    23 11.481703 -0.000001 -0.000005 -0.506813 -0.088081 0.726029
    24 2.910429 -0.023166 1.400148 -0.075443 -0.048637 -0.941154
    25 1.284180 0.000001 0.000000 0.000007 0.095136 -0.604946
    26 0.842650 0.000000 -0.000001 -0.098885 0.057637 -1.366356
    27 3.368063 0.007377 0.622456 0.035972 -0.077320 -1.016274
    28 1.610352 -0.000001 0.000000 -0.000004 0.124901 -1.144888
    29 1.015625 0.000001 -0.000001 0.005990 -0.009220 -0.841138
    30 3.551622 0.023917 -0.200566 0.019452 -0.119964 -0.811971
    31 1.666992 0.000000 0.000000 -0.000006 0.145216 -1.293764
    32 1.243164 0.000001 0.000000 -0.000005 -0.000002 -0.886591
    33 3.449668 0.054213 -1.085181 0.053708 0.185826 -0.349671
    34 1.707031 -0.000001 0.000000 0.000011 -0.008526 -0.322849
    35 0.998535 -0.000001 0.000000 0.005620 -0.013548 -0.593079
    36 0.075534 -0.738749 -0.755818 1.279028 0.268809 -0.630105
    37 2.515625 0.000000 0.000001 0.000000 0.000000 0.359160
    38 1.292945 -0.042972 -0.335952 0.105001 0.186790 0.461843
    39 -6.759716 -15.200438 -8.484718 1.570796 0.000000 -3.127756
    40 1.347698 -9.973074 0.672381 1.753018 0.215317 -0.576663
    41 0.000000 2.996095 -1.358396 0.000000 0.000000 0.000000
    42 0.000000 2.746097 -5.042964 -0.033100 0.000000 0.000000
    43 0.000001 4.265628 -4.203120 0.000000 0.000000 0.000000
end
