// Created by Crowbar++ 0.74
version 1
nodes
  0 "ValveBiped.Bip01_Spine4" -1
  1 "ValveBiped.Bip01_L_Clavicle" 0
  2 "ValveBiped.Bip01_L_UpperArm" 1
  3 "ValveBiped.Bip01_L_Forearm" 2
  4 "ValveBiped.Bip01_L_Hand" 3
  5 "ValveBiped.Bip01_L_Finger4" 4
  6 "ValveBiped.Bip01_L_Finger41" 5
  7 "ValveBiped.Bip01_L_Finger42" 6
  8 "ValveBiped.Bip01_L_Finger3" 4
  9 "ValveBiped.Bip01_L_Finger31" 8
  10 "ValveBiped.Bip01_L_Finger32" 9
  11 "ValveBiped.Bip01_L_Finger2" 4
  12 "ValveBiped.Bip01_L_Finger21" 11
  13 "ValveBiped.Bip01_L_Finger22" 12
  14 "ValveBiped.Bip01_L_Finger1" 4
  15 "ValveBiped.Bip01_L_Finger11" 14
  16 "ValveBiped.Bip01_L_Finger12" 15
  17 "ValveBiped.Bip01_L_Finger0" 4
  18 "ValveBiped.Bip01_L_Finger01" 17
  19 "ValveBiped.Bip01_L_Finger02" 18
  20 "ValveBiped.Bip01_R_Clavicle" 0
  21 "ValveBiped.Bip01_R_UpperArm" 20
  22 "ValveBiped.Bip01_R_Forearm" 21
  23 "ValveBiped.Bip01_R_Hand" 22
  24 "ValveBiped.Bip01_R_Finger4" 23
  25 "ValveBiped.Bip01_R_Finger41" 24
  26 "ValveBiped.Bip01_R_Finger42" 25
  27 "ValveBiped.Bip01_R_Finger3" 23
  28 "ValveBiped.Bip01_R_Finger31" 27
  29 "ValveBiped.Bip01_R_Finger32" 28
  30 "ValveBiped.Bip01_R_Finger2" 23
  31 "ValveBiped.Bip01_R_Finger21" 30
  32 "ValveBiped.Bip01_R_Finger22" 31
  33 "ValveBiped.Bip01_R_Finger1" 23
  34 "ValveBiped.Bip01_R_Finger11" 33
  35 "ValveBiped.Bip01_R_Finger12" 34
  36 "ValveBiped.Bip01_R_Finger0" 23
  37 "ValveBiped.Bip01_R_Finger01" 36
  38 "ValveBiped.Bip01_R_Finger02" 37
  39 "v_weapon.xm1014_Parent" -1
  40 "v_weapon.xm1014_Shell" 39
  41 "v_weapon.xm1014_Trigger" 39
  42 "v_weapon.xm1014_Loader" 39
  43 "v_weapon.xm1014_Bolt" 39
end
skeleton
  time 0
    0 0.000000 -1.660213 -9.445601 -1.570797 -1.391899 -1.570843
    1 2.033348 1.000767 1.937660 3.099087 -0.161968 1.679999
    2 6.028145 0.000003 0.000002 -2.454782 -0.208850 -0.092686
    3 11.692553 0.000081 -0.000005 -0.114192 0.114968 -1.288704
    4 11.481672 -0.000089 -0.000025 -0.387524 0.302778 0.443914
    5 3.281559 0.002119 -1.379481 0.099714 -0.198220 -1.489108
    6 1.324284 -0.000010 0.000005 0.000000 -0.035667 -0.863346
    7 0.819336 0.000000 -0.000001 0.000000 0.000000 -0.523574
    8 3.711852 0.109256 -0.568167 0.058897 -0.134647 -1.706905
    9 1.610352 -0.000006 -0.000003 0.000000 0.005260 -0.427514
    10 0.993191 -0.000006 0.000002 0.001487 0.002270 -0.454066
    11 3.786029 0.203223 0.243937 0.023558 -0.103308 -1.670307
    12 1.684422 -0.000008 0.000009 0.000002 -0.004062 -0.253205
    13 1.256836 0.000004 0.000000 0.000000 0.000000 -0.532299
    14 3.594221 0.299551 1.109803 0.005259 -0.118434 -1.372014
    15 1.723633 -0.000004 0.000000 0.000000 0.000000 -0.445043
    16 1.002930 -0.000002 0.000003 0.000000 0.000000 -0.445037
    17 0.298212 -0.634095 0.430606 -1.372028 -1.032585 -0.422755
    18 2.637464 0.000002 -0.000010 -0.000002 -0.044428 0.246549
    19 1.308566 -0.000001 -0.000004 -0.001664 -0.005178 0.326112
    20 2.033356 1.000772 -1.937610 -0.128177 0.172990 -2.038336
    21 6.028141 0.000000 -0.000002 -0.062744 1.124519 -1.899930
    22 11.692556 0.000000 -0.000002 0.047817 -0.137955 -1.791749
    23 11.481703 -0.000001 -0.000005 -0.612056 -0.130308 0.740770
    24 2.914335 -0.023166 1.400148 -0.075443 -0.048637 -0.941154
    25 1.284180 0.000000 0.000000 0.000008 0.095136 -0.604944
    26 0.838744 0.000000 -0.000001 -0.098885 0.057637 -1.366356
    27 3.368063 0.007377 0.618550 0.035972 -0.077320 -1.016274
    28 1.609375 0.000000 -0.000001 -0.000004 0.124901 -1.144888
    29 1.016602 0.000001 0.000000 0.005990 -0.009220 -0.841138
    30 3.551622 0.023917 -0.204473 0.019452 -0.119964 -0.811971
    31 1.668799 0.000002 0.000006 0.000002 0.145203 -1.293754
    32 1.243164 0.000000 0.000000 -0.000005 -0.000002 -0.886591
    33 3.449668 0.054213 -1.089087 0.050728 0.185874 -0.386953
    34 1.711616 0.000008 0.000011 0.000003 -0.029849 -0.720320
    35 1.002005 0.000000 0.000007 0.010215 -0.019876 -0.755274
    36 0.075534 -0.738749 -0.759724 1.279016 0.268834 -0.630105
    37 2.508557 -0.000006 -0.000004 -0.000002 -0.000001 0.359159
    38 1.292945 -0.042972 -0.335952 0.105001 0.186790 0.461843
    39 -6.759716 -15.200438 -8.484718 1.570796 0.000000 -3.127756
    40 0.000001 3.707031 0.145021 0.000000 0.000000 0.000000
    41 0.000000 2.996095 -1.358396 -0.251317 0.000000 0.000000
    42 0.000000 2.746097 -5.042964 0.000000 0.000000 0.000000
    43 0.000001 4.265628 -4.203120 0.000000 0.000000 0.000000
  time 1
    0 0.000000 -1.660213 -9.445601 -1.570797 -1.391899 -1.570843
    1 2.033348 1.000767 1.937660 3.099087 -0.161968 1.679999
    2 6.028145 0.000003 0.000002 -2.455230 -0.208992 -0.092782
    3 11.692553 0.000081 -0.000005 -0.114348 0.115136 -1.289000
    4 11.481672 -0.000089 -0.000025 -0.387261 0.303100 0.444868
    5 3.285465 0.006025 -1.379481 0.099835 -0.197921 -1.489658
    6 1.324284 -0.000010 0.000005 0.000000 -0.035667 -0.863346
    7 0.819336 0.000000 -0.000001 0.000000 0.000000 -0.523574
    8 3.715758 0.109256 -0.568167 0.058957 -0.134323 -1.707425
    9 1.610352 -0.000006 -0.000003 0.000000 0.005260 -0.427514
    10 0.993191 -0.000006 0.000002 0.001487 0.002270 -0.454066
    11 3.789935 0.207130 0.243937 0.023630 -0.102984 -1.670803
    12 1.684422 -0.000008 0.000009 0.000002 -0.004062 -0.253205
    13 1.256836 0.000004 0.000000 0.000000 0.000000 -0.532299
    14 3.594221 0.299551 1.113710 0.005418 -0.118146 -1.372531
    15 1.723633 -0.000004 0.000000 0.000000 0.000000 -0.445043
    16 1.002930 -0.000002 0.000003 0.000000 0.000000 -0.445037
    17 0.298212 -0.630189 0.430606 -1.371375 -1.032566 -0.423791
    18 2.633557 0.000002 -0.000010 -0.000002 -0.044428 0.246549
    19 1.308566 -0.000001 -0.000004 -0.001664 -0.005178 0.326112
    20 2.033356 1.000772 -1.937610 -0.128177 0.172990 -2.038336
    21 6.028141 0.000000 -0.000002 -0.062744 1.124519 -1.899930
    22 11.692556 0.000000 -0.000002 0.047817 -0.137955 -1.791749
    23 11.481703 -0.000001 -0.000005 -0.612056 -0.130308 0.740770
    24 2.914335 -0.023166 1.400148 -0.075443 -0.048637 -0.941154
    25 1.284180 0.000000 0.000000 0.000008 0.095136 -0.604944
    26 0.838744 0.000000 -0.000001 -0.098885 0.057637 -1.366356
    27 3.368063 0.007377 0.618550 0.035972 -0.077320 -1.016274
    28 1.609375 0.000000 -0.000001 -0.000004 0.124901 -1.144888
    29 1.016602 0.000001 0.000000 0.005990 -0.009220 -0.841138
    30 3.551622 0.023917 -0.204473 0.019452 -0.119964 -0.811971
    31 1.668799 0.000002 0.000006 0.000002 0.145203 -1.293754
    32 1.243164 0.000000 0.000000 -0.000005 -0.000002 -0.886591
    33 3.449668 0.054213 -1.089087 0.050728 0.185874 -0.386953
    34 1.711616 0.000008 0.000011 0.000003 -0.029849 -0.720320
    35 1.002005 0.000000 0.000007 0.010215 -0.019876 -0.755274
    36 0.075534 -0.738749 -0.759724 1.279016 0.268834 -0.630105
    37 2.508557 -0.000006 -0.000004 -0.000002 -0.000001 0.359159
    38 1.292945 -0.042972 -0.335952 0.105001 0.186790 0.461843
    39 -6.759716 -15.200438 -8.484718 1.570796 0.000000 -3.127756
    40 0.000001 3.707031 0.145021 0.000000 0.000000 0.000000
    41 0.000000 2.996095 -1.358396 -0.251317 0.000000 0.000000
    42 0.000000 2.746097 -5.042964 0.000000 0.000000 0.000000
    43 0.000001 4.265628 -4.203120 0.000000 0.000000 0.000000
  time 2
    0 0.000000 -1.660213 -9.445601 -1.570797 -1.391899 -1.570843
    1 2.033348 1.000767 1.937660 3.099087 -0.161968 1.679999
    2 6.028145 0.000003 0.000002 -2.467317 -0.207720 -0.060267
    3 11.692553 0.000081 -0.000005 -0.115223 0.116322 -1.297668
    4 11.481672 -0.000089 -0.000025 -0.374038 0.326925 0.501147
    5 3.285465 0.006025 -1.379481 0.099818 -0.198076 -1.489444
    6 1.324284 -0.000010 0.000005 0.000000 -0.035667 -0.863346
    7 0.819336 0.000000 -0.000001 0.000000 0.000000 -0.523574
    8 3.711852 0.109256 -0.568167 0.058969 -0.134479 -1.707206
    9 1.610352 -0.000006 -0.000003 0.000000 0.005260 -0.427514
    10 0.993191 -0.000006 0.000002 0.001487 0.002258 -0.454066
    11 3.789935 0.203223 0.247844 0.023642 -0.103152 -1.670605
    12 1.684422 -0.000008 0.000009 0.000002 -0.004062 -0.253205
    13 1.256836 0.000004 0.000000 0.000000 0.000000 -0.532299
    14 3.594221 0.299551 1.113710 0.005374 -0.118302 -1.372313
    15 1.723633 -0.000004 0.000000 0.000000 0.000000 -0.445043
    16 1.002930 -0.000002 0.000003 0.000000 0.000000 -0.445037
    17 0.298212 -0.630189 0.430606 -1.371663 -1.032603 -0.423334
    18 2.637464 0.000002 -0.000010 -0.000002 -0.044428 0.246549
    19 1.308566 -0.000001 -0.000004 -0.001676 -0.005178 0.326112
    20 2.033356 1.000772 -1.937610 -0.128177 0.172990 -2.038336
    21 6.028141 0.000000 -0.000002 -0.064759 1.124681 -1.902993
    22 11.692556 0.000000 -0.000002 0.047661 -0.137979 -1.790635
    23 11.481703 -0.000001 -0.000005 -0.609740 -0.102902 0.722344
    24 2.910429 -0.023166 1.400148 -0.075443 -0.048649 -0.941169
    25 1.284180 0.000000 0.000000 0.000008 0.095136 -0.604944
    26 0.842650 0.000000 -0.000001 -0.098885 0.057637 -1.366356
    27 3.368063 0.007377 0.622456 0.035972 -0.077320 -1.016274
    28 1.609375 0.000000 -0.000001 -0.000004 0.124901 -1.144888
    29 1.016602 0.000001 0.000000 0.005990 -0.009220 -0.841138
    30 3.551622 0.023917 -0.200566 0.019452 -0.119964 -0.811971
    31 1.668799 0.000002 0.000006 0.000002 0.145203 -1.293754
    32 1.243164 0.000000 0.000000 -0.000005 -0.000002 -0.886591
    33 3.449668 0.054213 -1.089087 0.050666 0.185886 -0.387968
    34 1.711616 0.000008 0.000011 0.000003 -0.030281 -0.728253
    35 1.005912 0.000000 0.000007 0.010275 -0.019948 -0.757271
    36 0.075534 -0.738749 -0.755818 1.279028 0.268809 -0.630105
    37 2.508557 -0.000006 -0.000004 -0.000002 -0.000001 0.359147
    38 1.292945 -0.042972 -0.335952 0.105001 0.186790 0.461843
    39 -6.767529 -15.212157 -8.336276 1.604233 -0.004167 -3.129259
    40 0.000001 3.707031 0.145021 0.000000 0.000000 0.000000
    41 0.000000 2.996095 -1.358396 -0.258028 0.000000 0.000000
    42 0.000000 2.746097 -5.042964 0.000000 0.000000 0.000000
    43 0.000001 4.265628 -4.203120 0.000000 0.000000 0.000000
  time 3
    0 0.000000 -1.660213 -9.445601 -1.570797 -1.391899 -1.570843
    1 2.033348 1.000767 1.937660 3.099087 -0.161968 1.679999
    2 6.028145 0.000003 0.000002 -2.486031 -0.218509 -0.010252
    3 11.692553 0.000081 -0.000005 -0.114600 0.117521 -1.292705
    4 11.481672 -0.000089 -0.000025 -0.356408 0.350783 0.569361
    5 3.281559 0.002119 -1.379481 0.099714 -0.198220 -1.489138
    6 1.324284 -0.000010 0.000005 0.000000 -0.035667 -0.863346
    7 0.819336 0.000000 -0.000001 0.000000 0.000000 -0.523574
    8 3.711852 0.109256 -0.568167 0.058897 -0.134635 -1.706905
    9 1.610352 -0.000006 -0.000003 0.000000 0.005260 -0.427514
    10 0.993191 -0.000006 0.000002 0.001487 0.002258 -0.454066
    11 3.786029 0.203223 0.247844 0.023558 -0.103296 -1.670274
    12 1.684422 -0.000008 0.000009 0.000002 -0.004062 -0.253205
    13 1.256836 0.000004 0.000000 0.000000 0.000000 -0.532299
    14 3.594221 0.299551 1.113710 0.005259 -0.118434 -1.372014
    15 1.723633 -0.000004 0.000000 0.000000 0.000000 -0.445043
    16 1.002930 -0.000002 0.000003 0.000000 0.000000 -0.445037
    17 0.298212 -0.634095 0.430606 -1.372009 -1.032585 -0.422755
    18 2.633557 0.000002 -0.000010 -0.000002 -0.044428 0.246549
    19 1.308566 -0.000001 -0.000004 -0.001676 -0.005178 0.326112
    20 2.033356 1.000772 -1.937610 -0.128177 0.172990 -2.038336
    21 6.028141 0.000000 -0.000002 -0.071056 1.131134 -1.921228
    22 11.692556 0.000000 -0.000002 0.047493 -0.137751 -1.789335
    23 11.481703 -0.000001 -0.000005 -0.601209 -0.085932 0.710518
    24 2.906522 -0.027073 1.400148 -0.075228 -0.048229 -0.940660
    25 1.284180 0.000000 0.000000 0.000008 0.095136 -0.604944
    26 0.842650 0.000000 -0.000001 -0.098885 0.057637 -1.366356
    27 3.364156 0.003471 0.618550 0.036187 -0.076889 -1.015795
    28 1.609375 0.000000 -0.000001 -0.000004 0.124901 -1.144888
    29 1.016602 0.000001 0.000000 0.005990 -0.009220 -0.841138
    30 3.551622 0.023917 -0.200566 0.019739 -0.119580 -0.811515
    31 1.668799 0.000002 0.000006 0.000002 0.145203 -1.293754
    32 1.243164 0.000000 0.000000 -0.000005 -0.000002 -0.886591
    33 3.449668 0.054213 -1.085181 0.050940 0.186113 -0.389051
    34 1.711616 0.000008 0.000011 0.000003 -0.031143 -0.744170
    35 1.002005 0.000000 0.000007 0.010419 -0.020116 -0.761907
    36 0.075534 -0.738749 -0.755818 1.279387 0.269131 -0.629506
    37 2.508557 -0.000006 -0.000004 -0.000002 -0.000001 0.359159
    38 1.292945 -0.042972 -0.335952 0.105001 0.186778 0.461843
    39 -6.826124 -15.188719 -7.984703 1.638822 -0.002747 -3.133017
    40 0.000001 3.707031 0.145021 0.000000 0.000000 0.000000
    41 0.000000 2.996095 -1.358396 -0.269270 0.000000 0.000000
    42 0.000000 2.746097 -5.042964 0.000000 0.000000 0.000000
    43 0.000001 4.265628 -4.203120 0.000000 0.000000 0.000000
  time 4
    0 0.000000 -1.660213 -9.445601 -1.570797 -1.391899 -1.570843
    1 2.033348 1.000767 1.937660 3.099087 -0.161968 1.679999
    2 6.028145 0.000003 0.000002 -2.487911 -0.221053 -0.026318
    3 11.692553 0.000081 -0.000005 -0.123468 0.121248 -1.367755
    4 11.481672 -0.000089 -0.000025 -0.327135 0.330274 0.676187
    5 3.281559 0.002119 -1.379481 0.099714 -0.198220 -1.489138
    6 1.324284 -0.000010 0.000005 0.000000 -0.035681 -0.863346
    7 0.819336 0.000000 -0.000001 0.000000 0.000000 -0.523574
    8 3.711852 0.109256 -0.572073 0.058897 -0.134623 -1.706905
    9 1.610352 -0.000006 -0.000003 0.000000 0.005260 -0.427514
    10 0.993191 -0.000006 0.000002 0.001487 0.002258 -0.454066
    11 3.786029 0.203223 0.243937 0.023570 -0.103296 -1.670307
    12 1.684422 -0.000008 0.000009 0.000002 -0.004062 -0.253205
    13 1.256836 0.000004 0.000000 0.000000 0.000000 -0.532299
    14 3.594221 0.299551 1.109803 0.005259 -0.118434 -1.372014
    15 1.723633 -0.000004 0.000000 0.000000 0.000000 -0.445043
    16 1.002930 -0.000002 0.000003 0.000000 0.000000 -0.445037
    17 0.298212 -0.634095 0.426700 -1.372009 -1.032585 -0.422755
    18 2.633557 0.000002 -0.000010 -0.000002 -0.044440 0.246549
    19 1.308566 -0.000001 -0.000004 -0.001664 -0.005178 0.326112
    20 2.033356 1.000772 -1.937610 -0.128177 0.172990 -2.038336
    21 6.028141 0.000000 -0.000002 0.047897 1.162180 -1.820327
    22 11.692556 0.000000 -0.000002 0.059501 -0.134815 -1.877631
    23 11.481703 -0.000001 -0.000005 -0.588046 -0.123292 0.755950
    24 2.914335 -0.023166 1.400148 -0.075443 -0.048637 -0.941154
    25 1.284180 0.000000 0.000000 0.000008 0.095136 -0.604944
    26 0.838744 0.000000 -0.000001 -0.098885 0.057637 -1.366356
    27 3.368063 0.007377 0.618550 0.035972 -0.077320 -1.016274
    28 1.609375 0.000000 -0.000001 -0.000004 0.124901 -1.144888
    29 1.016602 0.000001 0.000000 0.005990 -0.009220 -0.841138
    30 3.551622 0.023917 -0.200566 0.019452 -0.119964 -0.811971
    31 1.668799 0.000002 0.000006 0.000002 0.145203 -1.293789
    32 1.243164 0.000000 0.000000 -0.000005 -0.000002 -0.886591
    33 3.449668 0.054213 -1.089087 0.050504 0.185874 -0.389963
    34 1.711616 0.000008 0.000011 0.000003 -0.031707 -0.756121
    35 1.002005 0.000000 0.000007 0.010574 -0.020307 -0.767207
    36 0.075534 -0.738749 -0.755818 1.279028 0.268809 -0.630105
    37 2.508557 -0.000006 -0.000004 -0.000002 -0.000001 0.359159
    38 1.292945 -0.042972 -0.335952 0.105001 0.186790 0.461843
    39 -6.861282 -14.294161 -7.687819 1.634219 0.000833 -3.133956
    40 0.000001 3.707031 0.145021 0.000000 0.000000 0.000000
    41 0.000000 2.996095 -1.358396 -0.271523 0.000000 0.000000
    42 0.000000 2.746097 -5.042964 0.000000 0.000000 0.000000
    43 0.000001 4.265628 -4.203120 0.000000 0.000000 0.000000
  time 5
    0 0.000000 -1.660213 -9.445601 -1.570797 -1.391899 -1.570843
    1 2.033348 1.000767 1.937660 3.099087 -0.161968 1.679999
    2 6.028145 0.000003 0.000002 -2.479405 -0.216247 -0.070117
    3 11.692553 0.000081 -0.000005 -0.132409 0.124460 -1.440952
    4 11.481672 -0.000089 -0.000025 -0.315228 0.294085 0.753294
    5 3.281559 0.002119 -1.383388 0.099714 -0.198220 -1.489138
    6 1.324284 -0.000010 0.000005 0.000000 -0.035681 -0.863346
    7 0.819336 0.000000 -0.000001 0.000000 0.000000 -0.523574
    8 3.711852 0.109256 -0.572073 0.058897 -0.134623 -1.706905
    9 1.610352 -0.000006 -0.000003 0.000000 0.005260 -0.427514
    10 0.993191 -0.000006 0.000002 0.001475 0.002258 -0.454066
    11 3.786029 0.203223 0.243937 0.023558 -0.103308 -1.670274
    12 1.684422 -0.000008 0.000009 0.000002 -0.004062 -0.253205
    13 1.256836 0.000004 0.000000 0.000000 0.000000 -0.532299
    14 3.594221 0.299551 1.109803 0.005259 -0.118434 -1.372041
    15 1.723633 -0.000004 0.000000 0.000000 0.000000 -0.445043
    16 1.002930 -0.000002 0.000003 0.000000 0.000000 -0.445037
    17 0.298212 -0.634095 0.426700 -1.372009 -1.032585 -0.422755
    18 2.633557 0.000002 -0.000010 -0.000002 -0.044428 0.246549
    19 1.308566 -0.000001 -0.000004 -0.001676 -0.005178 0.326112
    20 2.033356 1.000772 -1.937610 -0.128177 0.172990 -2.038336
    21 6.028141 0.000000 -0.000002 0.129257 1.172853 -1.741940
    22 11.692556 0.000000 -0.000002 0.066261 -0.132514 -1.928343
    23 11.481703 -0.000001 -0.000005 -0.587924 -0.161791 0.790327
    24 2.914335 -0.027073 1.400148 -0.075625 -0.048577 -0.941430
    25 1.284180 0.000000 0.000000 0.000008 0.095136 -0.604944
    26 0.842650 0.000000 -0.000001 -0.098885 0.057637 -1.366356
    27 3.368063 0.007377 0.618550 0.035792 -0.077272 -1.016550
    28 1.609375 0.000000 -0.000001 -0.000004 0.124901 -1.144888
    29 1.016602 0.000001 0.000000 0.005990 -0.009220 -0.841138
    30 3.551622 0.023917 -0.200566 0.019296 -0.119880 -0.812246
    31 1.668799 0.000002 0.000006 0.000002 0.145203 -1.293754
    32 1.243164 0.000000 0.000000 -0.000005 -0.000002 -0.886591
    33 3.449668 0.054213 -1.089087 0.050616 0.186017 -0.387279
    34 1.711616 0.000008 0.000011 0.000003 -0.031299 -0.752137
    35 1.005912 0.000000 0.000007 0.010706 -0.020451 -0.771177
    36 0.075534 -0.738749 -0.755818 1.278872 0.268933 -0.630429
    37 2.508557 -0.000006 -0.000004 -0.000002 -0.000001 0.359147
    38 1.292945 -0.042972 -0.335952 0.105001 0.186778 0.461843
    39 -6.845656 -13.790239 -7.781572 1.603624 0.002624 -3.131702
    40 0.000001 3.707031 0.145021 0.000000 0.000000 0.000000
    41 0.000000 2.996095 -1.358396 -0.251317 0.000000 0.000000
    42 0.000000 2.746097 -5.042964 0.000000 0.000000 0.000000
    43 0.000001 4.320317 -2.320250 0.000000 0.000000 0.000000
  time 6
    0 0.000000 -1.660213 -9.445601 -1.570797 -1.391899 -1.570843
    1 2.033348 1.000767 1.937660 3.099087 -0.161968 1.679999
    2 6.028145 0.000003 0.000002 -2.468392 -0.211442 -0.109422
    3 11.692553 0.000081 -0.000005 -0.131774 0.125910 -1.436730
    4 11.481672 -0.000089 -0.000025 -0.322727 0.272707 0.742730
    5 3.285465 0.006025 -1.379481 0.099922 -0.198064 -1.489566
    6 1.324284 -0.000010 0.000005 0.000000 -0.035667 -0.863346
    7 0.819336 0.000000 -0.000001 0.000000 0.000000 -0.523574
    8 3.715758 0.109256 -0.568167 0.059053 -0.134443 -1.707370
    9 1.610352 -0.000006 -0.000003 0.000000 0.005260 -0.427514
    10 0.993191 -0.000006 0.000002 0.001487 0.002258 -0.454066
    11 3.789935 0.207130 0.247844 0.023738 -0.103128 -1.670737
    12 1.684422 -0.000008 0.000009 0.000002 -0.004062 -0.253205
    13 1.256836 0.000004 0.000000 0.000000 0.000000 -0.532299
    14 3.594221 0.303457 1.113710 0.005461 -0.118302 -1.372449
    15 1.723633 -0.000004 0.000000 0.000000 0.000000 -0.445043
    16 1.002930 -0.000002 0.000003 0.000000 0.000000 -0.445037
    17 0.302118 -0.630189 0.430606 -1.371548 -1.032676 -0.423550
    18 2.633557 0.000002 -0.000010 -0.000002 -0.044428 0.246549
    19 1.308566 -0.000001 -0.000004 -0.001664 -0.005178 0.326112
    20 2.033356 1.000772 -1.937610 -0.128177 0.172990 -2.038336
    21 6.028141 0.000000 -0.000002 0.132216 1.166563 -1.727741
    22 11.692556 0.000000 -0.000002 0.066297 -0.132490 -1.928653
    23 11.481703 -0.000001 -0.000005 -0.596456 -0.181567 0.802922
    24 2.910429 -0.023166 1.400148 -0.075443 -0.048637 -0.941154
    25 1.284180 0.000000 0.000000 0.000008 0.095136 -0.604944
    26 0.838744 0.000000 -0.000001 -0.098885 0.057637 -1.366356
    27 3.368063 0.007377 0.622456 0.035972 -0.077320 -1.016274
    28 1.609375 0.000000 -0.000001 -0.000004 0.124901 -1.144888
    29 1.016602 0.000001 0.000000 0.005990 -0.009220 -0.841138
    30 3.551622 0.023917 -0.200566 0.019452 -0.119964 -0.811971
    31 1.668799 0.000002 0.000006 0.000002 0.145203 -1.293754
    32 1.243164 0.000000 0.000000 -0.000005 -0.000002 -0.886591
    33 3.449668 0.054213 -1.089087 0.051489 0.185886 -0.377680
    34 1.711616 0.000008 0.000011 0.000003 -0.029142 -0.720337
    35 1.005912 0.000000 0.000007 0.010718 -0.020475 -0.771818
    36 0.075534 -0.738749 -0.755818 1.279028 0.268809 -0.630093
    37 2.508557 -0.000006 -0.000004 -0.000002 -0.000001 0.359159
    38 1.292945 -0.042972 -0.335952 0.105001 0.186778 0.461843
    39 -6.798780 -13.813677 -8.109707 1.567479 0.003180 -3.128601
    40 0.000001 3.707031 0.145021 0.000000 0.000000 0.000000
    41 0.000000 2.996095 -1.358396 -0.188793 0.000000 0.000000
    42 0.000000 2.746097 -5.042964 0.000000 0.000000 0.000000
    43 0.000001 4.289066 -3.261685 0.000000 0.000000 0.000000
  time 7
    0 0.000000 -1.660213 -9.445601 -1.570797 -1.391899 -1.570843
    1 2.033348 1.000767 1.937660 3.099087 -0.161968 1.679999
    2 6.028145 0.000003 0.000002 -2.460154 -0.207201 -0.137059
    3 11.692553 0.000081 -0.000005 -0.126644 0.126869 -1.398353
    4 11.481672 -0.000089 -0.000025 -0.344896 0.264915 0.694927
    5 3.285465 0.006025 -1.379481 0.099835 -0.197909 -1.489627
    6 1.324284 -0.000010 0.000005 0.000000 -0.035652 -0.863346
    7 0.819336 0.000000 -0.000001 0.000000 0.000000 -0.523574
    8 3.715758 0.109256 -0.568167 0.058945 -0.134299 -1.707425
    9 1.610352 -0.000006 -0.000003 0.000000 0.005260 -0.427514
    10 0.993191 -0.000006 0.000002 0.001475 0.002258 -0.454066
    11 3.789935 0.203223 0.243937 0.023630 -0.102984 -1.670770
    12 1.684422 -0.000008 0.000009 0.000002 -0.004062 -0.253205
    13 1.256836 0.000004 0.000000 0.000000 0.000000 -0.532299
    14 3.594221 0.299551 1.113710 0.005418 -0.118134 -1.372531
    15 1.723633 -0.000004 0.000000 0.000000 0.000000 -0.445043
    16 1.002930 -0.000002 0.000003 0.000000 0.000000 -0.445037
    17 0.302118 -0.630189 0.426700 -1.371375 -1.032548 -0.423791
    18 2.637464 0.000002 -0.000010 -0.000002 -0.044428 0.246549
    19 1.308566 -0.000001 -0.000004 -0.001676 -0.005178 0.326112
    20 2.033356 1.000772 -1.937610 -0.128177 0.172990 -2.038336
    21 6.028141 0.000000 -0.000002 0.063262 1.148585 -1.777000
    22 11.692556 0.000000 -0.000002 0.060077 -0.134623 -1.882275
    23 11.481703 -0.000001 -0.000005 -0.607669 -0.175604 0.790767
    24 2.914335 -0.023166 1.400148 -0.075443 -0.048637 -0.941154
    25 1.284180 0.000000 0.000000 0.000008 0.095136 -0.604944
    26 0.842650 0.000000 -0.000001 -0.098885 0.057637 -1.366356
    27 3.368063 0.007377 0.618550 0.035972 -0.077320 -1.016274
    28 1.609375 0.000000 -0.000001 -0.000004 0.124901 -1.144888
    29 1.016602 0.000001 0.000000 0.005990 -0.009220 -0.841138
    30 3.551622 0.023917 -0.200566 0.019452 -0.119964 -0.811971
    31 1.668799 0.000002 0.000006 0.000002 0.145203 -1.293754
    32 1.243164 0.000000 0.000000 -0.000005 -0.000002 -0.886591
    33 3.449668 0.054213 -1.085181 0.052611 0.185886 -0.363693
    34 1.711616 0.000008 0.000011 0.000003 -0.023761 -0.624626
    35 1.002005 0.000000 0.000007 0.010574 -0.020307 -0.767207
    36 0.075534 -0.738749 -0.755818 1.279016 0.268834 -0.630105
    37 2.508557 -0.000006 -0.000004 -0.000002 -0.000001 0.359159
    38 1.292945 -0.042972 -0.335952 0.105001 0.186778 0.461843
    39 -6.759716 -14.309786 -8.508157 1.541487 0.002470 -3.126065
    40 0.000001 3.707031 0.145021 0.000000 0.000000 0.000000
    41 0.000000 2.996095 -1.358396 -0.094403 0.000000 0.000000
    42 0.000000 2.746097 -5.042964 0.000000 0.000000 0.000000
    43 0.000001 4.265628 -4.203120 0.000000 0.000000 0.000000
  time 8
    0 0.000000 -1.660213 -9.445601 -1.570797 -1.391899 -1.570843
    1 2.033348 1.000767 1.937660 3.099087 -0.161968 1.679999
    2 6.028145 0.000003 0.000002 -2.463109 -0.205694 -0.132086
    3 11.692553 0.000081 -0.000005 -0.118914 0.126845 -1.341009
    4 11.481672 -0.000089 -0.000025 -0.381340 0.281110 0.637634
    5 3.281559 0.002119 -1.383388 0.099679 -0.197969 -1.489352
    6 1.324284 -0.000010 0.000005 0.000000 -0.035667 -0.863346
    7 0.819336 0.000000 -0.000001 0.000000 0.000000 -0.523574
    8 3.711852 0.105349 -0.568167 0.058813 -0.134383 -1.707124
    9 1.610352 -0.000006 -0.000003 0.000000 0.005260 -0.427514
    10 0.993191 -0.000006 0.000002 0.001475 0.002258 -0.454066
    11 3.786029 0.203223 0.243937 0.023486 -0.103056 -1.670505
    12 1.684422 -0.000008 0.000009 0.000002 -0.004062 -0.253205
    13 1.256836 0.000004 0.000000 0.000000 0.000000 -0.532299
    14 3.594221 0.299551 1.109803 0.005259 -0.118170 -1.372232
    15 1.723633 -0.000004 0.000000 0.000000 0.000000 -0.445043
    16 1.002930 -0.000002 0.000003 0.000000 0.000000 -0.445037
    17 0.298212 -0.634095 0.426700 -1.371586 -1.032438 -0.423334
    18 2.633557 0.000002 -0.000010 -0.000002 -0.044428 0.246549
    19 1.308566 -0.000001 -0.000004 -0.001676 -0.005178 0.326112
    20 2.033356 1.000772 -1.937610 -0.128177 0.172990 -2.038336
    21 6.028141 0.000000 -0.000002 -0.023639 1.128456 -1.848239
    22 11.692556 0.000000 -0.000002 0.051580 -0.137056 -1.819180
    23 11.481703 -0.000001 -0.000005 -0.614920 -0.156617 0.765301
    24 2.910429 -0.027073 1.400148 -0.075575 -0.048541 -0.941445
    25 1.284180 0.000000 0.000000 0.000008 0.095136 -0.604944
    26 0.842650 0.000000 -0.000001 -0.098885 0.057637 -1.366356
    27 3.368063 0.007377 0.618550 0.035852 -0.077225 -1.016574
    28 1.609375 0.000000 -0.000001 -0.000004 0.124901 -1.144888
    29 1.016602 0.000001 0.000000 0.005990 -0.009220 -0.841138
    30 3.551622 0.023917 -0.200566 0.019368 -0.119844 -0.812270
    31 1.668799 0.000002 0.000006 0.000002 0.145203 -1.293754
    32 1.243164 0.000000 0.000000 -0.000005 -0.000002 -0.886591
    33 3.449668 0.054213 -1.089087 0.053658 0.185969 -0.349998
    34 1.711616 0.000008 0.000011 0.000003 -0.015815 -0.473733
    35 1.002005 0.000000 0.000007 0.010215 -0.019876 -0.755274
    36 0.075534 -0.738749 -0.755818 1.278956 0.268945 -0.630429
    37 2.508557 -0.000006 -0.000004 -0.000002 -0.000001 0.359147
    38 1.292945 -0.042972 -0.335952 0.105001 0.186778 0.461843
    39 -6.728465 -14.950431 -8.808947 1.532147 0.001327 -3.124843
    40 0.000001 3.707031 0.145021 0.000000 0.000000 0.000000
    41 0.000000 2.996095 -1.358396 0.000000 0.000000 0.000000
    42 0.000000 2.746097 -5.042964 0.000000 0.000000 0.000000
    43 0.000001 4.265628 -4.203120 0.000000 0.000000 0.000000
  time 9
    0 0.000000 -1.660213 -9.445601 -1.570797 -1.391899 -1.570843
    1 2.033348 1.000767 1.937660 3.099087 -0.161968 1.679999
    2 6.028145 0.000003 0.000002 -2.469645 -0.211395 -0.116498
    3 11.692553 0.000081 -0.000005 -0.111352 0.126162 -1.285963
    4 11.481672 -0.000089 -0.000025 -0.414693 0.304452 0.580998
    5 3.281559 0.002119 -1.379481 0.099471 -0.197957 -1.489047
    6 1.324284 -0.000010 0.000005 0.000000 -0.035681 -0.863346
    7 0.819336 0.000000 -0.000001 0.000000 0.000000 -0.523574
    8 3.711852 0.109256 -0.568167 0.058621 -0.134419 -1.706850
    9 1.610352 -0.000006 -0.000003 0.000000 0.005260 -0.427514
    10 0.993191 -0.000006 0.000002 0.001475 0.002258 -0.454066
    11 3.786029 0.203223 0.247844 0.023295 -0.103092 -1.670241
    12 1.684422 -0.000008 0.000009 0.000002 -0.004062 -0.253205
    13 1.256836 0.000004 0.000000 0.000000 0.000000 -0.532299
    14 3.594221 0.299551 1.113710 0.005071 -0.118146 -1.371960
    15 1.723633 -0.000004 0.000000 0.000000 0.000000 -0.445043
    16 1.002930 -0.000002 0.000003 0.000000 0.000000 -0.445037
    17 0.298212 -0.634095 0.430606 -1.371778 -1.032254 -0.422924
    18 2.637464 0.000002 -0.000010 -0.000002 -0.044428 0.246549
    19 1.308566 -0.000001 -0.000004 -0.001676 -0.005178 0.326112
    20 2.033356 1.000772 -1.937610 -0.128177 0.172990 -2.038336
    21 6.028141 0.000000 -0.000002 -0.083714 1.115185 -1.900805
    22 11.692556 0.000000 -0.000002 0.045276 -0.138494 -1.772183
    23 11.481703 -0.000001 -0.000005 -0.616444 -0.140700 0.742585
    24 2.914335 -0.027073 1.400148 -0.075443 -0.048637 -0.941154
    25 1.284180 0.000000 0.000000 0.000008 0.095136 -0.604944
    26 0.842650 0.000000 -0.000001 -0.098885 0.057637 -1.366356
    27 3.368063 0.007377 0.618550 0.035972 -0.077320 -1.016274
    28 1.609375 0.000000 -0.000001 -0.000004 0.124901 -1.144888
    29 1.016602 0.000001 0.000000 0.005990 -0.009220 -0.841138
    30 3.551622 0.023917 -0.200566 0.019452 -0.119964 -0.811971
    31 1.668799 0.000002 0.000006 0.000002 0.145203 -1.293754
    32 1.243164 0.000000 0.000000 -0.000005 -0.000002 -0.886591
    33 3.449668 0.054213 -1.089087 0.053708 0.185826 -0.349671
    34 1.711616 0.000008 0.000011 0.000003 -0.008517 -0.322875
    35 1.002005 0.000000 0.000007 0.009052 -0.018486 -0.718022
    36 0.075534 -0.738749 -0.755818 1.279028 0.268809 -0.630105
    37 2.508557 -0.000006 -0.000004 -0.000002 -0.000001 0.359159
    38 1.292945 -0.042972 -0.335952 0.105001 0.186790 0.461843
    39 -6.716746 -15.407476 -8.949576 1.533230 0.000803 -3.124749
    40 0.000001 3.707031 0.145021 0.000000 0.000000 0.000000
    41 0.000000 2.996095 -1.358396 0.000000 0.000000 0.000000
    42 0.000000 2.746097 -5.042964 0.000000 0.000000 0.000000
    43 0.000001 4.265628 -4.203120 0.000000 0.000000 0.000000
  time 10
    0 0.000000 -1.660213 -9.445601 -1.570797 -1.391899 -1.570843
    1 2.033348 1.000767 1.937660 3.099087 -0.161968 1.679999
    2 6.028145 0.000003 0.000002 -2.474122 -0.214834 -0.110474
    3 11.692553 0.000081 -0.000005 -0.108547 0.126006 -1.268849
    4 11.481672 -0.000089 -0.000025 -0.437125 0.322128 0.547756
    5 3.281559 0.002119 -1.379481 0.099714 -0.198220 -1.489108
    6 1.324284 -0.000010 0.000005 0.000000 -0.035681 -0.863346
    7 0.819336 0.000000 -0.000001 0.000000 0.000000 -0.523574
    8 3.711852 0.109256 -0.568167 0.058909 -0.134623 -1.706932
    9 1.610352 -0.000006 -0.000003 0.000000 0.005260 -0.427514
    10 0.993191 -0.000006 0.000002 0.001475 0.002258 -0.454066
    11 3.786029 0.203223 0.247844 0.023558 -0.103308 -1.670307
    12 1.684422 -0.000008 0.000009 0.000002 -0.004062 -0.253205
    13 1.256836 0.000004 0.000000 0.000000 0.000000 -0.532299
    14 3.594221 0.299551 1.113710 0.005259 -0.118434 -1.372014
    15 1.723633 -0.000004 0.000000 0.000000 0.000000 -0.445043
    16 1.002930 -0.000002 0.000003 0.000000 0.000000 -0.445037
    17 0.298212 -0.634095 0.430606 -1.372009 -1.032585 -0.422755
    18 2.637464 0.000002 -0.000010 -0.000002 -0.044428 0.246549
    19 1.308566 -0.000001 -0.000004 -0.001664 -0.005178 0.326112
    20 2.033356 1.000772 -1.937610 -0.128177 0.172990 -2.038336
    21 6.028141 0.000000 -0.000002 -0.109658 1.111411 -1.924875
    22 11.692556 0.000000 -0.000002 0.042423 -0.139033 -1.752678
    23 11.481703 -0.000001 -0.000005 -0.614250 -0.131141 0.730869
    24 2.914335 -0.023166 1.400148 -0.075443 -0.048637 -0.941154
    25 1.284180 0.000000 0.000000 0.000008 0.095136 -0.604944
    26 0.842650 0.000000 -0.000001 -0.098885 0.057637 -1.366356
    27 3.368063 0.007377 0.622456 0.035972 -0.077320 -1.016274
    28 1.609375 0.000000 -0.000001 -0.000004 0.124901 -1.144888
    29 1.016602 0.000001 0.000000 0.005990 -0.009220 -0.841138
    30 3.551622 0.023917 -0.200566 0.019452 -0.119964 -0.811971
    31 1.668799 0.000002 0.000006 0.000002 0.145203 -1.293754
    32 1.243164 0.000000 0.000000 -0.000005 -0.000002 -0.886591
    33 3.449668 0.054213 -1.085181 0.053708 0.185826 -0.349671
    34 1.711616 0.000008 0.000011 0.000003 -0.008517 -0.322875
    35 1.002005 0.000000 0.000007 0.007267 -0.016065 -0.655572
    36 0.075534 -0.738749 -0.755818 1.279028 0.268809 -0.630105
    37 2.508557 -0.000006 -0.000004 -0.000002 -0.000001 0.359159
    38 1.292945 -0.042972 -0.335952 0.105001 0.186778 0.461843
    39 -6.716746 -15.591075 -8.949576 1.539592 0.000401 -3.125125
    40 0.000001 3.707031 0.145021 0.000000 0.000000 0.000000
    41 0.000000 2.996095 -1.358396 0.000000 0.000000 0.000000
    42 0.000000 2.746097 -5.042964 0.000000 0.000000 0.000000
    43 0.000001 4.265628 -4.203120 0.000000 0.000000 0.000000
  time 11
    0 0.000000 -1.660213 -9.445601 -1.570797 -1.391899 -1.570891
    1 2.033348 1.000767 1.937660 3.099087 -0.161968 1.680038
    2 6.028145 0.000003 0.000002 -2.478510 -0.216200 -0.105405
    3 11.692553 0.000081 -0.000005 -0.107421 0.126138 -1.264996
    4 11.481672 -0.000089 -0.000025 -0.449032 0.332399 0.531524
    5 3.281559 0.002119 -1.383388 0.099731 -0.198220 -1.489108
    6 1.324284 -0.000010 0.000005 0.000000 -0.035667 -0.863346
    7 0.819336 0.000000 -0.000001 0.000000 0.000000 -0.523574
    8 3.711852 0.109256 -0.568167 0.058897 -0.134635 -1.706905
    9 1.610352 -0.000006 -0.000003 0.000000 0.005260 -0.427514
    10 0.993191 -0.000006 0.000002 0.001487 0.002258 -0.454066
    11 3.786029 0.203223 0.243937 0.023558 -0.103308 -1.670274
    12 1.684422 -0.000008 0.000009 0.000002 -0.004062 -0.253205
    13 1.256836 0.000004 0.000000 0.000000 0.000000 -0.532299
    14 3.594221 0.299551 1.109803 0.005259 -0.118434 -1.372014
    15 1.723633 -0.000004 0.000000 0.000000 0.000000 -0.445043
    16 1.002930 -0.000002 0.000003 0.000000 0.000000 -0.445037
    17 0.298212 -0.630189 0.430606 -1.372009 -1.032585 -0.422755
    18 2.633557 0.000002 -0.000010 -0.000002 -0.044428 0.246549
    19 1.308566 -0.000001 -0.000004 -0.001676 -0.005178 0.326112
    20 2.033356 1.000772 -1.937610 -0.128177 0.172990 -2.038336
    21 6.028141 0.000000 -0.000002 -0.122819 1.112060 -1.938734
    22 11.692556 0.000000 -0.000002 0.041369 -0.139225 -1.745062
    23 11.481703 -0.000001 -0.000005 -0.610533 -0.123949 0.724104
    24 2.914335 -0.023166 1.400148 -0.075443 -0.048637 -0.941154
    25 1.284180 0.000000 0.000000 0.000008 0.095136 -0.604944
    26 0.838744 0.000000 -0.000001 -0.098885 0.057637 -1.366390
    27 3.368063 0.007377 0.618550 0.035972 -0.077320 -1.016274
    28 1.609375 0.000000 -0.000001 -0.000004 0.124901 -1.144888
    29 1.016602 0.000001 0.000000 0.005990 -0.009220 -0.841138
    30 3.551622 0.023917 -0.200566 0.019452 -0.119964 -0.811971
    31 1.668799 0.000002 0.000006 0.000002 0.145203 -1.293754
    32 1.243164 0.000000 0.000000 -0.000005 -0.000002 -0.886591
    33 3.449668 0.054213 -1.089087 0.053708 0.185826 -0.349671
    34 1.711616 0.000008 0.000011 0.000003 -0.008517 -0.322875
    35 1.005912 0.000000 0.000007 0.005613 -0.013536 -0.593073
    36 0.075534 -0.738749 -0.755818 1.279028 0.268809 -0.630105
    37 2.508557 -0.000006 -0.000004 -0.000002 -0.000001 0.359147
    38 1.292945 -0.042972 -0.335952 0.105001 0.186790 0.461843
    39 -6.728465 -15.657484 -8.883168 1.548595 0.000123 -3.125783
    40 0.000001 3.707031 0.145021 0.000000 0.000000 0.000000
    41 0.000000 2.996095 -1.358396 0.000000 0.000000 0.000000
    42 0.000000 2.746097 -5.042964 0.000000 0.000000 0.000000
    43 0.000001 4.265628 -4.203120 0.000000 0.000000 0.000000
  time 12
    0 0.000000 -1.660213 -9.445601 -1.570797 -1.391899 -1.570891
    1 2.033348 1.000767 1.937660 3.099087 -0.161968 1.680038
    2 6.028145 0.000003 0.000002 -2.484151 -0.219121 -0.096607
    3 11.692553 0.000081 -0.000005 -0.106894 0.125766 -1.263959
    4 11.481672 -0.000089 -0.000025 -0.451466 0.338258 0.526988
    5 3.281559 0.002119 -1.383388 0.099714 -0.198220 -1.489108
    6 1.324284 -0.000010 0.000005 0.000000 -0.035681 -0.863346
    7 0.819336 0.000000 -0.000001 0.000000 0.000000 -0.523574
    8 3.711852 0.109256 -0.568167 0.058897 -0.134635 -1.706905
    9 1.610352 -0.000006 -0.000003 0.000000 0.005260 -0.427514
    10 0.993191 -0.000006 0.000002 0.001475 0.002258 -0.454066
    11 3.786029 0.203223 0.243937 0.023558 -0.103308 -1.670307
    12 1.684422 -0.000008 0.000009 0.000002 -0.004062 -0.253205
    13 1.256836 0.000004 0.000000 0.000000 0.000000 -0.532299
    14 3.594221 0.299551 1.109803 0.005259 -0.118434 -1.372014
    15 1.723633 -0.000004 0.000000 0.000000 0.000000 -0.445043
    16 1.002930 -0.000002 0.000003 0.000000 0.000000 -0.445037
    17 0.298212 -0.634095 0.426700 -1.372028 -1.032603 -0.422755
    18 2.633557 0.000002 -0.000010 -0.000002 -0.044428 0.246549
    19 1.308566 -0.000001 -0.000004 -0.001676 -0.005178 0.326112
    20 2.033356 1.000772 -1.937610 -0.128177 0.172990 -2.038336
    21 6.028141 0.000000 -0.000002 -0.125338 1.116159 -1.943402
    22 11.692556 0.000000 -0.000002 0.041920 -0.139141 -1.746858
    23 11.481703 -0.000001 -0.000005 -0.606145 -0.119784 0.721904
    24 2.914335 -0.027073 1.400148 -0.075443 -0.048637 -0.941154
    25 1.284180 0.000000 0.000000 0.000008 0.095136 -0.604944
    26 0.842650 0.000000 -0.000001 -0.098885 0.057637 -1.366356
    27 3.368063 0.007377 0.622456 0.035972 -0.077320 -1.016274
    28 1.609375 0.000000 -0.000001 -0.000004 0.124901 -1.144888
    29 1.016602 0.000001 0.000000 0.005990 -0.009220 -0.841138
    30 3.551622 0.023917 -0.200566 0.019452 -0.119964 -0.811971
    31 1.668799 0.000002 0.000006 0.000002 0.145203 -1.293754
    32 1.243164 0.000000 0.000000 -0.000005 -0.000002 -0.886591
    33 3.445761 0.054213 -1.089087 0.053708 0.185826 -0.349671
    34 1.711616 0.000008 0.000011 0.000003 -0.008517 -0.322875
    35 1.002005 0.000000 0.000007 0.005613 -0.013536 -0.593073
    36 0.075534 -0.738749 -0.755818 1.279028 0.268809 -0.630105
    37 2.508557 -0.000006 -0.000004 -0.000002 -0.000001 0.359159
    38 1.292945 -0.042972 -0.335952 0.105001 0.186778 0.461843
    39 -6.736278 -15.637952 -8.773790 1.557597 0.000093 -3.126628
    40 0.000001 3.707031 0.145021 0.000000 0.000000 0.000000
    41 0.000000 2.996095 -1.358396 0.000000 0.000000 0.000000
    42 0.000000 2.746097 -5.042964 0.000000 0.000000 0.000000
    43 0.000001 4.265628 -4.203120 0.000000 0.000000 0.000000
  time 13
    0 0.000000 -1.660213 -9.445601 -1.570797 -1.391899 -1.570891
    1 2.033348 1.000767 1.937660 3.099087 -0.161968 1.680038
    2 6.028145 0.000003 0.000002 -2.489970 -0.221854 -0.087235
    3 11.692553 0.000081 -0.000005 -0.107121 0.125227 -1.268182
    4 11.481672 -0.000089 -0.000025 -0.450150 0.342669 0.528599
    5 3.281559 0.002119 -1.379481 0.099714 -0.198220 -1.489108
    6 1.324284 -0.000010 0.000005 0.000000 -0.035681 -0.863346
    7 0.819336 0.000000 -0.000001 0.000000 0.000000 -0.523574
    8 3.711852 0.109256 -0.568167 0.058897 -0.134635 -1.706905
    9 1.610352 -0.000006 -0.000003 0.000000 0.005260 -0.427514
    10 0.993191 -0.000006 0.000002 0.001475 0.002258 -0.454066
    11 3.786029 0.203223 0.243937 0.023558 -0.103308 -1.670274
    12 1.684422 -0.000008 0.000009 0.000002 -0.004062 -0.253205
    13 1.256836 0.000004 0.000000 0.000000 0.000000 -0.532299
    14 3.594221 0.299551 1.109803 0.005259 -0.118434 -1.372014
    15 1.723633 -0.000004 0.000000 0.000000 0.000000 -0.445043
    16 1.002930 -0.000002 0.000003 0.000000 0.000000 -0.445037
    17 0.298212 -0.634095 0.430606 -1.372009 -1.032585 -0.422755
    18 2.633557 0.000002 -0.000010 -0.000002 -0.044428 0.246549
    19 1.308566 -0.000001 -0.000004 -0.001676 -0.005178 0.326112
    20 2.033356 1.000772 -1.937610 -0.128177 0.172990 -2.038336
    21 6.028141 0.000000 -0.000002 -0.121686 1.122084 -1.942770
    22 11.692556 0.000000 -0.000002 0.042663 -0.138985 -1.754412
    23 11.481703 -0.000001 -0.000005 -0.601209 -0.119828 0.724104
    24 2.910429 -0.023166 1.400148 -0.075443 -0.048637 -0.941154
    25 1.284180 0.000000 0.000000 0.000008 0.095136 -0.604944
    26 0.842650 0.000000 -0.000001 -0.098885 0.057637 -1.366356
    27 3.368063 0.007377 0.622456 0.035972 -0.077320 -1.016274
    28 1.609375 0.000000 -0.000001 -0.000004 0.124901 -1.144888
    29 1.016602 0.000001 0.000000 0.005990 -0.009220 -0.841138
    30 3.551622 0.023917 -0.200566 0.019452 -0.119964 -0.811971
    31 1.668799 0.000002 0.000006 0.000002 0.145203 -1.293754
    32 1.243164 0.000000 0.000000 -0.000005 -0.000002 -0.886591
    33 3.445761 0.054213 -1.089087 0.053708 0.185826 -0.349671
    34 1.711616 0.000008 0.000011 0.000003 -0.008517 -0.322875
    35 1.005912 0.000000 0.000007 0.005613 -0.013536 -0.593073
    36 0.075534 -0.738749 -0.755818 1.279016 0.268834 -0.630105
    37 2.508557 -0.000006 -0.000004 -0.000002 -0.000001 0.359159
    38 1.292945 -0.042972 -0.335952 0.105001 0.186790 0.461843
    39 -6.747997 -15.563731 -8.668318 1.564027 0.000278 -3.127192
    40 0.000001 3.707031 0.145021 0.000000 0.000000 0.000000
    41 0.000000 2.996095 -1.358396 0.000000 0.000000 0.000000
    42 0.000000 2.746097 -5.042964 0.000000 0.000000 0.000000
    43 0.000001 4.265628 -4.203120 0.000000 0.000000 0.000000
  time 14
    0 0.000000 -1.660213 -9.445601 -1.570797 -1.391899 -1.570891
    1 2.033348 1.000767 1.937660 3.099087 -0.161968 1.680038
    2 6.028145 0.000003 0.000002 -2.494000 -0.224304 -0.081019
    3 11.692553 0.000081 -0.000005 -0.107852 0.124292 -1.272775
    4 11.481672 -0.000089 -0.000025 -0.444032 0.344215 0.528599
    5 3.281559 0.002119 -1.383388 0.099714 -0.198220 -1.489108
    6 1.324284 -0.000010 0.000005 0.000000 -0.035681 -0.863346
    7 0.819336 0.000000 -0.000001 0.000000 0.000000 -0.523574
    8 3.711852 0.109256 -0.572073 0.058897 -0.134635 -1.706905
    9 1.610352 -0.000006 -0.000003 0.000000 0.005260 -0.427514
    10 0.993191 -0.000006 0.000002 0.001475 0.002258 -0.454066
    11 3.786029 0.203223 0.243937 0.023558 -0.103308 -1.670307
    12 1.684422 -0.000008 0.000009 0.000002 -0.004062 -0.253205
    13 1.256836 0.000004 0.000000 0.000000 0.000000 -0.532299
    14 3.594221 0.299551 1.113710 0.005259 -0.118434 -1.372014
    15 1.723633 -0.000004 0.000000 0.000000 0.000000 -0.445043
    16 1.002930 -0.000002 0.000003 0.000000 0.000000 -0.445037
    17 0.298212 -0.634095 0.426700 -1.372009 -1.032585 -0.422755
    18 2.637464 0.000002 -0.000010 -0.000002 -0.044428 0.246549
    19 1.308566 -0.000001 -0.000004 -0.001664 -0.005178 0.326112
    20 2.033356 1.000772 -1.937610 -0.128177 0.172990 -2.038336
    21 6.028141 0.000000 -0.000002 -0.113940 1.128415 -1.937178
    22 11.692556 0.000000 -0.000002 0.044041 -0.138734 -1.764381
    23 11.481703 -0.000001 -0.000005 -0.597065 -0.122152 0.728174
    24 2.914335 -0.023166 1.400148 -0.075443 -0.048637 -0.941154
    25 1.284180 0.000000 0.000000 0.000008 0.095136 -0.604944
    26 0.842650 0.000000 -0.000001 -0.098885 0.057637 -1.366356
    27 3.368063 0.007377 0.618550 0.035972 -0.077320 -1.016274
    28 1.609375 0.000000 -0.000001 -0.000004 0.124901 -1.144888
    29 1.016602 0.000001 0.000000 0.005990 -0.009220 -0.841138
    30 3.551622 0.023917 -0.200566 0.019452 -0.119964 -0.811971
    31 1.668799 0.000002 0.000006 0.000002 0.145203 -1.293754
    32 1.243164 0.000000 0.000000 -0.000005 -0.000002 -0.886591
    33 3.445761 0.054213 -1.089087 0.053708 0.185826 -0.349671
    34 1.711616 0.000008 0.000011 0.000003 -0.008517 -0.322875
    35 1.002005 0.000000 0.000007 0.005613 -0.013536 -0.593073
    36 0.075534 -0.738749 -0.755818 1.279016 0.268834 -0.630105
    37 2.508557 -0.000006 -0.000004 -0.000002 -0.000001 0.359159
    38 1.292945 -0.042972 -0.335952 0.105001 0.186790 0.461843
    39 -6.759716 -15.466071 -8.582378 1.567276 0.000370 -3.127568
    40 0.000001 3.707031 0.145021 0.000000 0.000000 0.000000
    41 0.000000 2.996095 -1.358396 0.000000 0.000000 0.000000
    42 0.000000 2.746097 -5.042964 0.000000 0.000000 0.000000
    43 0.000001 4.265628 -4.203120 0.000000 0.000000 0.000000
  time 15
    0 0.000000 -1.660213 -9.445601 -1.570797 -1.391899 -1.570891
    1 2.033348 1.000767 1.937660 3.099087 -0.161968 1.680038
    2 6.028145 0.000003 0.000002 -2.494716 -0.224916 -0.081880
    3 11.692553 0.000081 -0.000005 -0.108751 0.123010 -1.277517
    4 11.481672 -0.000089 -0.000025 -0.433112 0.341897 0.523347
    5 3.281559 0.002119 -1.383388 0.099714 -0.198220 -1.489138
    6 1.324284 -0.000010 0.000005 0.000000 -0.035667 -0.863346
    7 0.819336 0.000000 -0.000001 0.000000 0.000000 -0.523574
    8 3.711852 0.109256 -0.572073 0.058897 -0.134635 -1.706905
    9 1.610352 -0.000006 -0.000003 0.000000 0.005260 -0.427514
    10 0.993191 -0.000006 0.000002 0.001475 0.002258 -0.454066
    11 3.786029 0.203223 0.243937 0.023558 -0.103308 -1.670307
    12 1.684422 -0.000008 0.000009 0.000002 -0.004062 -0.253205
    13 1.256836 0.000004 0.000000 0.000000 0.000000 -0.532299
    14 3.594221 0.299551 1.109803 0.005259 -0.118434 -1.372014
    15 1.723633 -0.000004 0.000000 0.000000 0.000000 -0.445043
    16 1.002930 -0.000002 0.000003 0.000000 0.000000 -0.445037
    17 0.298212 -0.634095 0.426700 -1.372009 -1.032585 -0.422755
    18 2.633557 0.000002 -0.000010 -0.000002 -0.044428 0.246549
    19 1.308566 -0.000001 -0.000004 -0.001664 -0.005178 0.326112
    20 2.033356 1.000772 -1.937610 -0.128177 0.172990 -2.038336
    21 6.028141 0.000000 -0.000002 -0.106384 1.133894 -1.930759
    22 11.692556 0.000000 -0.000002 0.045216 -0.138494 -1.773483
    23 11.481703 -0.000001 -0.000005 -0.593470 -0.124607 0.731914
    24 2.914335 -0.023166 1.400148 -0.075443 -0.048637 -0.941154
    25 1.284180 0.000000 0.000000 0.000008 0.095136 -0.604944
    26 0.842650 0.000000 -0.000001 -0.098885 0.057637 -1.366356
    27 3.368063 0.007377 0.618550 0.035972 -0.077320 -1.016274
    28 1.609375 0.000000 -0.000001 -0.000004 0.124901 -1.144888
    29 1.016602 0.000001 0.000000 0.005990 -0.009220 -0.841138
    30 3.551622 0.023917 -0.200566 0.019452 -0.119964 -0.811971
    31 1.668799 0.000002 0.000006 0.000002 0.145203 -1.293754
    32 1.243164 0.000000 0.000000 -0.000005 -0.000002 -0.886591
    33 3.449668 0.054213 -1.089087 0.053708 0.185826 -0.349671
    34 1.711616 0.000008 0.000011 0.000003 -0.008517 -0.322875
    35 1.002005 0.000000 0.000007 0.005613 -0.013536 -0.593073
    36 0.075534 -0.734842 -0.755818 1.279028 0.268809 -0.630105
    37 2.508557 -0.000006 -0.000004 -0.000002 -0.000001 0.359159
    38 1.292945 -0.042972 -0.335952 0.105001 0.186790 0.461843
    39 -6.759716 -15.376225 -8.519876 1.568901 0.000370 -3.127756
    40 0.000001 3.707031 0.145021 0.000000 0.000000 0.000000
    41 0.000000 2.996095 -1.358396 0.000000 0.000000 0.000000
    42 0.000000 2.746097 -5.042964 0.000000 0.000000 0.000000
    43 0.000001 4.265628 -4.203120 0.000000 0.000000 0.000000
  time 16
    0 0.000000 -1.660213 -9.445601 -1.570797 -1.391899 -1.570891
    1 2.033348 1.000767 1.937660 3.099087 -0.161968 1.680038
    2 6.028145 0.000003 0.000002 -2.493283 -0.224021 -0.086566
    3 11.692553 0.000081 -0.000005 -0.110069 0.121476 -1.283370
    4 11.481672 -0.000089 -0.000025 -0.419495 0.337550 0.515828
    5 3.281559 0.002119 -1.379481 0.099731 -0.198220 -1.489108
    6 1.324284 -0.000010 0.000005 0.000000 -0.035652 -0.863346
    7 0.819336 0.000000 -0.000001 0.000000 0.000000 -0.523574
    8 3.711852 0.109256 -0.568167 0.058897 -0.134623 -1.706905
    9 1.610352 -0.000006 -0.000003 0.000000 0.005260 -0.427514
    10 0.993191 -0.000006 0.000002 0.001475 0.002258 -0.454066
    11 3.786029 0.203223 0.243937 0.023558 -0.103308 -1.670307
    12 1.684422 -0.000008 0.000009 0.000002 -0.004050 -0.253205
    13 1.256836 0.000004 0.000000 0.000000 0.000000 -0.532299
    14 3.594221 0.299551 1.113710 0.005259 -0.118434 -1.372014
    15 1.723633 -0.000004 0.000000 0.000000 0.000000 -0.445043
    16 1.002930 -0.000002 0.000003 0.000000 0.000000 -0.445037
    17 0.298212 -0.634095 0.430606 -1.372009 -1.032585 -0.422755
    18 2.637464 0.000002 -0.000010 -0.000002 -0.044428 0.246549
    19 1.308566 -0.000001 -0.000004 -0.001676 -0.005178 0.326112
    20 2.033356 1.000772 -1.937610 -0.128177 0.172990 -2.038336
    21 6.028141 0.000000 -0.000002 -0.102920 1.137790 -1.927258
    22 11.692556 0.000000 -0.000002 0.045995 -0.138326 -1.778561
    23 11.481703 -0.000001 -0.000005 -0.590605 -0.125660 0.733784
    24 2.914335 -0.023166 1.400148 -0.075443 -0.048649 -0.941154
    25 1.284180 0.000000 0.000000 0.000008 0.095136 -0.604944
    26 0.838744 0.000000 -0.000001 -0.098885 0.057637 -1.366356
    27 3.368063 0.007377 0.622456 0.035972 -0.077320 -1.016274
    28 1.609375 0.000000 -0.000001 -0.000004 0.124901 -1.144888
    29 1.016602 0.000001 0.000000 0.005990 -0.009220 -0.841138
    30 3.551622 0.023917 -0.200566 0.019452 -0.119964 -0.811971
    31 1.668799 0.000002 0.000006 0.000002 0.145203 -1.293754
    32 1.243164 0.000000 0.000000 -0.000005 -0.000002 -0.886591
    33 3.449668 0.054213 -1.089087 0.053708 0.185826 -0.349671
    34 1.711616 0.000008 0.000011 0.000003 -0.008517 -0.322875
    35 1.002005 0.000000 0.000007 0.005613 -0.013536 -0.593073
    36 0.075534 -0.738749 -0.755818 1.279028 0.268809 -0.630105
    37 2.508557 -0.000006 -0.000004 -0.000002 -0.000001 0.359159
    38 1.292945 -0.042972 -0.335952 0.105001 0.186778 0.461843
    39 -6.759716 -15.329349 -8.488625 1.569781 0.000340 -3.127756
    40 0.000001 3.707031 0.145021 0.000000 0.000000 0.000000
    41 0.000000 2.996095 -1.358396 0.000000 0.000000 0.000000
    42 0.000000 2.746097 -5.042964 0.000000 0.000000 0.000000
    43 0.000001 4.265628 -4.203120 0.000000 0.000000 0.000000
  time 17
    0 0.000000 -1.660213 -9.445601 -1.570797 -1.391899 -1.570891
    1 2.033348 1.000767 1.937660 3.099087 -0.161968 1.680038
    2 6.028145 0.000003 0.000002 -2.491314 -0.224068 -0.091156
    3 11.692553 0.000081 -0.000005 -0.111352 0.119738 -1.287296
    4 11.481672 -0.000089 -0.000025 -0.404430 0.332238 0.507234
    5 3.281559 0.002119 -1.379481 0.099714 -0.198220 -1.489108
    6 1.324284 -0.000010 0.000005 0.000000 -0.035667 -0.863346
    7 0.819336 0.000000 -0.000001 0.000000 0.000000 -0.523574
    8 3.711852 0.109256 -0.572073 0.058897 -0.134635 -1.706905
    9 1.610352 -0.000006 -0.000003 0.000000 0.005260 -0.427514
    10 0.993191 -0.000006 0.000002 0.001475 0.002258 -0.454066
    11 3.786029 0.203223 0.243937 0.023558 -0.103308 -1.670307
    12 1.684422 -0.000008 0.000009 0.000002 -0.004062 -0.253205
    13 1.256836 0.000004 0.000000 0.000000 0.000000 -0.532299
    14 3.594221 0.299551 1.109803 0.005259 -0.118434 -1.372014
    15 1.723633 -0.000004 0.000000 0.000000 0.000000 -0.445043
    16 1.002930 -0.000002 0.000003 0.000000 0.000000 -0.445037
    17 0.298212 -0.634095 0.426700 -1.372009 -1.032585 -0.422755
    18 2.633557 0.000002 -0.000010 -0.000002 -0.044428 0.246549
    19 1.308566 -0.000001 -0.000004 -0.001676 -0.005178 0.326112
    20 2.033356 1.000772 -1.937610 -0.128177 0.172990 -2.038336
    21 6.028141 0.000000 -0.000002 -0.103298 1.140143 -1.926675
    22 11.692556 0.000000 -0.000002 0.046259 -0.138278 -1.780418
    23 11.481703 -0.000001 -0.000005 -0.588168 -0.125572 0.734279
    24 2.914335 -0.023166 1.400148 -0.075443 -0.048637 -0.941154
    25 1.284180 0.000000 0.000000 0.000008 0.095136 -0.604944
    26 0.838744 0.000000 -0.000001 -0.098885 0.057637 -1.366390
    27 3.368063 0.007377 0.622456 0.035972 -0.077320 -1.016274
    28 1.609375 0.000000 -0.000001 -0.000004 0.124901 -1.144888
    29 1.016602 0.000001 0.000000 0.005990 -0.009220 -0.841138
    30 3.551622 0.023917 -0.200566 0.019452 -0.119964 -0.811971
    31 1.668799 0.000002 0.000006 0.000002 0.145203 -1.293754
    32 1.243164 0.000000 0.000000 -0.000005 -0.000002 -0.886591
    33 3.449668 0.054213 -1.089087 0.053708 0.185826 -0.349671
    34 1.711616 0.000008 0.000011 0.000003 -0.008517 -0.322875
    35 1.002005 0.000000 0.000007 0.005613 -0.013536 -0.593073
    36 0.075534 -0.738749 -0.755818 1.279028 0.268809 -0.630105
    37 2.508557 -0.000006 -0.000004 -0.000002 -0.000001 0.359159
    38 1.292945 -0.042972 -0.335952 0.105001 0.186778 0.461843
    39 -6.763622 -15.309817 -8.484718 1.570187 0.000340 -3.127756
    40 0.000001 3.707031 0.145021 0.000000 0.000000 0.000000
    41 0.000000 2.996095 -1.358396 0.000000 0.000000 0.000000
    42 0.000000 2.746097 -5.042964 0.000000 0.000000 0.000000
    43 0.000001 4.265628 -4.203120 0.000000 0.000000 0.000000
  time 18
    0 0.000000 -1.660213 -9.445601 -1.570797 -1.391899 -1.570891
    1 2.033348 1.000767 1.937660 3.099087 -0.161968 1.680038
    2 6.028145 0.000003 0.000002 -2.489254 -0.224068 -0.095172
    3 11.692553 0.000081 -0.000005 -0.112502 0.118012 -1.290186
    4 11.481672 -0.000089 -0.000025 -0.389234 0.326925 0.497924
    5 3.281559 0.002119 -1.383388 0.099714 -0.198220 -1.489108
    6 1.324284 -0.000010 0.000005 0.000000 -0.035667 -0.863346
    7 0.819336 0.000000 -0.000001 0.000000 0.000000 -0.523574
    8 3.711852 0.109256 -0.568167 0.058897 -0.134623 -1.706905
    9 1.610352 -0.000006 -0.000003 0.000000 0.005260 -0.427514
    10 0.993191 -0.000006 0.000002 0.001487 0.002258 -0.454066
    11 3.786029 0.203223 0.243937 0.023558 -0.103296 -1.670307
    12 1.684422 -0.000008 0.000009 0.000002 -0.004062 -0.253205
    13 1.256836 0.000004 0.000000 0.000000 0.000000 -0.532299
    14 3.594221 0.299551 1.113710 0.005259 -0.118434 -1.372014
    15 1.723633 -0.000004 0.000000 0.000000 0.000000 -0.445043
    16 1.002930 -0.000002 0.000003 0.000000 0.000000 -0.445037
    17 0.298212 -0.630189 0.426700 -1.371970 -1.032585 -0.422779
    18 2.633557 0.000002 -0.000010 -0.000002 -0.044428 0.246549
    19 1.308566 -0.000001 -0.000004 -0.001676 -0.005178 0.326112
    20 2.033356 1.000772 -1.937610 -0.128177 0.172990 -2.038336
    21 6.028141 0.000000 -0.000002 -0.102416 1.142254 -1.924681
    22 11.692556 0.000000 -0.000002 0.046546 -0.138218 -1.782585
    23 11.481703 -0.000001 -0.000005 -0.586096 -0.125660 0.734664
    24 2.914335 -0.023166 1.400148 -0.075443 -0.048637 -0.941154
    25 1.284180 0.000000 0.000000 0.000008 0.095136 -0.604944
    26 0.842650 0.000000 -0.000001 -0.098885 0.057637 -1.366356
    27 3.368063 0.007377 0.622456 0.035972 -0.077320 -1.016274
    28 1.609375 0.000000 -0.000001 -0.000004 0.124901 -1.144888
    29 1.016602 0.000001 0.000000 0.005990 -0.009220 -0.841138
    30 3.551622 0.023917 -0.200566 0.019452 -0.119964 -0.811971
    31 1.668799 0.000002 0.000006 0.000002 0.145203 -1.293754
    32 1.243164 0.000000 0.000000 -0.000005 -0.000002 -0.886591
    33 3.449668 0.054213 -1.085181 0.053708 0.185826 -0.349671
    34 1.711616 0.000008 0.000011 0.000003 -0.008517 -0.322875
    35 1.002005 0.000000 0.000007 0.005613 -0.013536 -0.593073
    36 0.075534 -0.738749 -0.755818 1.279028 0.268809 -0.630105
    37 2.508557 -0.000006 -0.000004 -0.000002 -0.000001 0.359159
    38 1.292945 -0.042972 -0.335952 0.105001 0.186790 0.461843
    39 -6.763622 -15.282472 -8.484718 1.570390 0.000247 -3.127756
    40 0.000001 3.707031 0.145021 0.000000 0.000000 0.000000
    41 0.000000 2.996095 -1.358396 0.000000 0.000000 0.000000
    42 0.000000 2.746097 -5.042964 0.000000 0.000000 0.000000
    43 0.000001 4.265628 -4.203120 0.000000 0.000000 0.000000
  time 19
    0 0.000000 -1.660213 -9.445601 -1.570797 -1.391899 -1.570891
    1 2.033348 1.000767 1.937660 3.099087 -0.161968 1.680038
    2 6.028145 0.000003 0.000002 -2.486747 -0.224539 -0.099476
    3 11.692553 0.000081 -0.000005 -0.113629 0.116514 -1.291445
    4 11.481672 -0.000089 -0.000025 -0.374104 0.320905 0.487122
    5 3.281559 0.002119 -1.379481 0.099731 -0.198220 -1.489108
    6 1.324284 -0.000010 0.000005 0.000000 -0.035667 -0.863346
    7 0.819336 0.000000 -0.000001 0.000000 0.000000 -0.523574
    8 3.711852 0.109256 -0.568167 0.058897 -0.134623 -1.706905
    9 1.610352 -0.000006 -0.000003 0.000000 0.005260 -0.427514
    10 0.993191 -0.000006 0.000002 0.001475 0.002258 -0.454066
    11 3.786029 0.203223 0.243937 0.023558 -0.103308 -1.670307
    12 1.684422 -0.000008 0.000009 0.000002 -0.004062 -0.253205
    13 1.256836 0.000004 0.000000 0.000000 0.000000 -0.532299
    14 3.594221 0.299551 1.109803 0.005259 -0.118434 -1.372014
    15 1.723633 -0.000004 0.000000 0.000000 0.000000 -0.445043
    16 1.002930 -0.000002 0.000003 0.000000 0.000000 -0.445037
    17 0.298212 -0.634095 0.426700 -1.372009 -1.032585 -0.422755
    18 2.633557 0.000002 -0.000010 -0.000002 -0.044428 0.246549
    19 1.308566 -0.000001 -0.000004 -0.001676 -0.005178 0.326112
    20 2.033356 1.000772 -1.937610 -0.128177 0.172990 -2.038336
    21 6.028141 0.000000 -0.000002 -0.100023 1.144039 -1.921180
    22 11.692556 0.000000 -0.000002 0.046954 -0.138134 -1.785434
    23 11.481703 -0.000001 -0.000005 -0.584572 -0.125660 0.735764
    24 2.910429 -0.027073 1.400148 -0.075625 -0.048553 -0.941430
    25 1.284180 0.000000 0.000000 0.000008 0.095136 -0.604944
    26 0.842650 0.000000 -0.000001 -0.098885 0.057637 -1.366356
    27 3.368063 0.007377 0.618550 0.035792 -0.077260 -1.016550
    28 1.609375 0.000000 -0.000001 -0.000004 0.124901 -1.144888
    29 1.016602 0.000001 0.000000 0.005990 -0.009220 -0.841138
    30 3.551622 0.023917 -0.204473 0.019296 -0.119856 -0.812246
    31 1.668799 0.000002 0.000006 0.000002 0.145203 -1.293754
    32 1.243164 0.000000 0.000000 -0.000005 -0.000002 -0.886591
    33 3.445761 0.054213 -1.089087 0.053596 0.185993 -0.349981
    34 1.711616 0.000008 0.000011 0.000003 -0.008517 -0.322875
    35 1.002005 0.000000 0.000007 0.005613 -0.013536 -0.593073
    36 0.075534 -0.738749 -0.755818 1.278884 0.268945 -0.630429
    37 2.508557 -0.000006 -0.000004 -0.000002 -0.000001 0.359159
    38 1.292945 -0.042972 -0.335952 0.105001 0.186790 0.461843
    39 -6.759716 -15.262940 -8.484718 1.570390 0.000093 -3.127756
    40 0.000001 3.707031 0.145021 0.000000 0.000000 0.000000
    41 0.000000 2.996095 -1.358396 0.000000 0.000000 0.000000
    42 0.000000 2.746097 -5.042964 0.000000 0.000000 0.000000
    43 0.000001 4.265628 -4.203120 0.000000 0.000000 0.000000
  time 20
    0 0.000000 -1.660213 -9.445601 -1.570797 -1.391899 -1.570891
    1 2.033348 1.000767 1.937660 3.099087 -0.161968 1.680038
    2 6.028145 0.000003 0.000002 -2.484061 -0.224728 -0.104162
    3 11.692553 0.000081 -0.000005 -0.114324 0.115412 -1.290778
    4 11.481672 -0.000089 -0.000025 -0.360290 0.315206 0.474052
    5 3.281559 0.002119 -1.379481 0.099714 -0.198220 -1.489108
    6 1.324284 -0.000010 0.000005 0.000000 -0.035667 -0.863346
    7 0.819336 0.000000 -0.000001 0.000000 0.000000 -0.523574
    8 3.711852 0.109256 -0.568167 0.058897 -0.134635 -1.706905
    9 1.610352 -0.000006 -0.000003 0.000000 0.005260 -0.427514
    10 0.993191 -0.000006 0.000002 0.001475 0.002258 -0.454066
    11 3.786029 0.203223 0.247844 0.023558 -0.103308 -1.670274
    12 1.684422 -0.000008 0.000009 0.000002 -0.004062 -0.253205
    13 1.256836 0.000004 0.000000 0.000000 0.000000 -0.532299
    14 3.594221 0.299551 1.113710 0.005259 -0.118434 -1.372014
    15 1.723633 -0.000004 0.000000 0.000000 0.000000 -0.445043
    16 1.002930 -0.000002 0.000003 0.000000 0.000000 -0.445037
    17 0.298212 -0.634095 0.430606 -1.372009 -1.032585 -0.422755
    18 2.637464 0.000002 -0.000010 -0.000002 -0.044428 0.246549
    19 1.308566 -0.000001 -0.000004 -0.001676 -0.005178 0.326112
    20 2.033356 1.000772 -1.937610 -0.128177 0.172990 -2.038336
    21 6.028141 0.000000 -0.000002 -0.096182 1.145500 -1.916414
    22 11.692556 0.000000 -0.000002 0.047409 -0.138051 -1.788592
    23 11.481703 -0.000001 -0.000005 -0.583597 -0.125572 0.736149
    24 2.910429 -0.023166 1.400148 -0.075459 -0.048649 -0.941154
    25 1.284180 0.000000 0.000000 0.000008 0.095136 -0.604944
    26 0.838744 0.000000 -0.000001 -0.098885 0.057637 -1.366356
    27 3.368063 0.007377 0.622456 0.035972 -0.077320 -1.016274
    28 1.609375 0.000000 -0.000001 -0.000004 0.124901 -1.144888
    29 1.016602 0.000001 0.000000 0.005990 -0.009220 -0.841138
    30 3.551622 0.023917 -0.200566 0.019452 -0.119964 -0.811971
    31 1.668799 0.000002 0.000006 0.000002 0.145203 -1.293754
    32 1.243164 0.000000 0.000000 -0.000005 -0.000002 -0.886591
    33 3.449668 0.054213 -1.089087 0.053695 0.185826 -0.349671
    34 1.711616 0.000008 0.000011 0.000003 -0.008517 -0.322875
    35 1.002005 0.000000 0.000007 0.005613 -0.013536 -0.593073
    36 0.075534 -0.738749 -0.755818 1.279016 0.268834 -0.630105
    37 2.508557 -0.000006 -0.000004 -0.000002 -0.000001 0.359147
    38 1.292945 -0.042972 -0.335952 0.105001 0.186778 0.461843
    39 -6.759716 -15.231689 -8.484718 1.570525 0.000062 -3.127756
    40 0.000001 3.707031 0.145021 0.000000 0.000000 0.000000
    41 0.000000 2.996095 -1.358396 0.000000 0.000000 0.000000
    42 0.000000 2.746097 -5.042964 0.000000 0.000000 0.000000
    43 0.000001 4.265628 -4.203120 0.000000 0.000000 0.000000
  time 21
    0 0.000000 -1.660213 -9.445601 -1.570797 -1.391899 -1.570891
    1 2.033348 1.000767 1.937660 3.099087 -0.161968 1.680038
    2 6.028145 0.000003 0.000002 -2.481464 -0.224633 -0.109039
    3 11.692553 0.000081 -0.000005 -0.114180 0.114980 -1.288704
    4 11.481672 -0.000089 -0.000025 -0.348975 0.310054 0.458953
    5 3.281559 0.002119 -1.383388 0.099714 -0.198220 -1.489108
    6 1.324284 -0.000010 0.000005 0.000000 -0.035667 -0.863346
    7 0.819336 0.000000 -0.000001 0.000000 0.000000 -0.523574
    8 3.711852 0.109256 -0.568167 0.058897 -0.134635 -1.706905
    9 1.610352 -0.000006 -0.000003 0.000000 0.005260 -0.427514
    10 0.993191 -0.000006 0.000002 0.001487 0.002270 -0.454066
    11 3.786029 0.203223 0.243937 0.023558 -0.103296 -1.670307
    12 1.684422 -0.000008 0.000009 0.000002 -0.004062 -0.253205
    13 1.256836 0.000004 0.000000 0.000000 0.000000 -0.532299
    14 3.594221 0.299551 1.113710 0.005259 -0.118434 -1.372014
    15 1.723633 -0.000004 0.000000 0.000000 0.000000 -0.445043
    16 1.002930 -0.000002 0.000003 0.000000 0.000000 -0.445037
    17 0.298212 -0.634095 0.430606 -1.372009 -1.032585 -0.422755
    18 2.633557 0.000002 -0.000010 -0.000002 -0.044428 0.246549
    19 1.308566 -0.000001 -0.000004 -0.001664 -0.005178 0.326112
    20 2.033356 1.000772 -1.937610 -0.128177 0.172990 -2.038336
    21 6.028141 0.000000 -0.000002 -0.091711 1.146474 -1.911503
    22 11.692556 0.000000 -0.000002 0.047817 -0.137955 -1.791749
    23 11.481703 -0.000001 -0.000005 -0.583171 -0.125440 0.736699
    24 2.914335 -0.023166 1.400148 -0.075443 -0.048637 -0.941154
    25 1.284180 0.000000 0.000000 0.000008 0.095136 -0.604944
    26 0.838744 0.000000 -0.000001 -0.098885 0.057637 -1.366356
    27 3.368063 0.007377 0.618550 0.035972 -0.077320 -1.016274
    28 1.609375 0.000000 -0.000001 -0.000004 0.124901 -1.144888
    29 1.016602 0.000001 0.000000 0.005990 -0.009220 -0.841138
    30 3.551622 0.023917 -0.200566 0.019452 -0.119964 -0.811971
    31 1.668799 0.000002 0.000006 0.000002 0.145203 -1.293754
    32 1.243164 0.000000 0.000000 -0.000005 -0.000002 -0.886591
    33 3.449668 0.054213 -1.089087 0.053708 0.185826 -0.349671
    34 1.711616 0.000008 0.000011 0.000003 -0.008517 -0.322875
    35 1.002005 0.000000 0.000007 0.005613 -0.013536 -0.593073
    36 0.075534 -0.738749 -0.755818 1.279028 0.268809 -0.630105
    37 2.508557 -0.000006 -0.000004 -0.000002 -0.000001 0.359159
    38 1.292945 -0.042972 -0.335952 0.105001 0.186790 0.461843
    39 -6.759716 -15.200438 -8.484718 1.570796 0.000000 -3.127756
    40 0.000001 3.707031 0.145021 0.000000 0.000000 0.000000
    41 0.000000 2.996095 -1.358396 0.000000 0.000000 0.000000
    42 0.000000 2.746097 -5.042964 0.000000 0.000000 0.000000
    43 0.000001 4.265628 -4.203120 0.000000 0.000000 0.000000
end
