// Created by Crowbar++ 0.74
version 1
nodes
  0 "ValveBiped.Bip01_Spine4" -1
  1 "ValveBiped.Bip01_L_Clavicle" 0
  2 "ValveBiped.Bip01_L_UpperArm" 1
  3 "ValveBiped.Bip01_L_Forearm" 2
  4 "ValveBiped.Bip01_L_Hand" 3
  5 "ValveBiped.Bip01_L_Finger4" 4
  6 "ValveBiped.Bip01_L_Finger41" 5
  7 "ValveBiped.Bip01_L_Finger42" 6
  8 "ValveBiped.Bip01_L_Finger3" 4
  9 "ValveBiped.Bip01_L_Finger31" 8
  10 "ValveBiped.Bip01_L_Finger32" 9
  11 "ValveBiped.Bip01_L_Finger2" 4
  12 "ValveBiped.Bip01_L_Finger21" 11
  13 "ValveBiped.Bip01_L_Finger22" 12
  14 "ValveBiped.Bip01_L_Finger1" 4
  15 "ValveBiped.Bip01_L_Finger11" 14
  16 "ValveBiped.Bip01_L_Finger12" 15
  17 "ValveBiped.Bip01_L_Finger0" 4
  18 "ValveBiped.Bip01_L_Finger01" 17
  19 "ValveBiped.Bip01_L_Finger02" 18
  20 "ValveBiped.Bip01_R_Clavicle" 0
  21 "ValveBiped.Bip01_R_UpperArm" 20
  22 "ValveBiped.Bip01_R_Forearm" 21
  23 "ValveBiped.Bip01_R_Hand" 22
  24 "ValveBiped.Bip01_R_Finger4" 23
  25 "ValveBiped.Bip01_R_Finger41" 24
  26 "ValveBiped.Bip01_R_Finger42" 25
  27 "ValveBiped.Bip01_R_Finger3" 23
  28 "ValveBiped.Bip01_R_Finger31" 27
  29 "ValveBiped.Bip01_R_Finger32" 28
  30 "ValveBiped.Bip01_R_Finger2" 23
  31 "ValveBiped.Bip01_R_Finger21" 30
  32 "ValveBiped.Bip01_R_Finger22" 31
  33 "ValveBiped.Bip01_R_Finger1" 23
  34 "ValveBiped.Bip01_R_Finger11" 33
  35 "ValveBiped.Bip01_R_Finger12" 34
  36 "ValveBiped.Bip01_R_Finger0" 23
  37 "ValveBiped.Bip01_R_Finger01" 36
  38 "ValveBiped.Bip01_R_Finger02" 37
  39 "v_weapon.xm1014_Parent" -1
  40 "v_weapon.xm1014_Shell" 39
  41 "v_weapon.xm1014_Trigger" 39
  42 "v_weapon.xm1014_Loader" 39
  43 "v_weapon.xm1014_Bolt" 39
end
skeleton
  time 0
    0 0.000005 -1.663086 -9.445313 -1.570760 -1.391893 -1.570827
    1 2.033348 1.000767 1.937660 3.099087 -0.161968 1.679999
    2 6.028145 0.000003 0.000002 -2.475376 -0.221006 -0.105309
    3 11.692553 0.000081 -0.000005 -0.114180 0.114968 -1.288704
    4 11.481672 -0.000089 -0.000025 -0.357921 0.308509 0.455730
    5 3.281559 0.002119 -1.379481 0.099731 -0.197993 -1.489383
    6 1.324284 -0.000010 0.000005 0.000000 -0.035667 -0.863346
    7 0.819210 0.000000 0.000003 0.000001 -0.000003 -0.523567
    8 3.711852 0.105349 -0.568167 0.058861 -0.134407 -1.707151
    9 1.609406 0.000006 -0.000007 -0.000002 0.005243 -0.427480
    10 0.993191 -0.000006 0.000002 0.001487 0.002270 -0.454066
    11 3.786029 0.203223 0.243937 0.023522 -0.103092 -1.670538
    12 1.684422 -0.000008 0.000009 0.000002 -0.004062 -0.253205
    13 1.252151 -0.000006 0.000003 0.000000 0.000011 -0.532286
    14 3.594221 0.299551 1.109803 0.005287 -0.118206 -1.372259
    15 1.719435 0.000000 -0.000005 -0.000004 0.000016 -0.445023
    16 1.005925 -0.000006 0.000003 0.000005 0.000018 -0.444992
    17 0.298212 -0.634095 0.430606 -1.371625 -1.032493 -0.423334
    18 2.637464 0.000002 -0.000010 -0.000002 -0.044428 0.246549
    19 1.308566 -0.000001 -0.000004 -0.001664 -0.005178 0.326112
    20 2.033356 1.000772 -1.937610 -0.128177 0.172990 -2.038336
    21 6.028141 0.000000 -0.000002 -0.299644 1.209215 -1.959935
    22 11.692556 0.000000 -0.000002 0.038732 -0.031172 -1.789458
    23 11.481703 -0.000001 -0.000005 -0.510348 -0.100797 0.726579
    24 2.910429 -0.023166 1.400148 -0.075294 -0.048792 -0.940893
    25 1.284180 0.000001 0.000001 0.000007 0.095136 -0.604946
    26 0.838744 0.000000 -0.000001 -0.098885 0.057637 -1.366356
    27 3.364156 0.011284 0.626363 0.036151 -0.077452 -1.016023
    28 1.609375 -0.000002 -0.000001 -0.000004 0.124901 -1.144888
    29 1.016602 -0.000001 0.000002 0.005990 -0.009220 -0.841138
    30 3.547715 0.027823 -0.200566 0.019595 -0.120131 -0.811731
    31 1.666992 0.000001 0.000000 -0.000006 0.145216 -1.293764
    32 1.242188 0.000000 0.000000 -0.000005 -0.000002 -0.886591
    33 3.449668 0.058119 -1.081275 0.053758 0.185610 -0.349396
    34 1.707031 -0.000001 -0.000002 0.000011 -0.008526 -0.322849
    35 0.998535 0.000000 0.000000 0.005618 -0.013549 -0.593079
    36 0.075534 -0.734842 -0.755818 1.279148 0.268636 -0.629806
    37 2.508557 -0.000006 -0.000004 -0.000002 -0.000001 0.359159
    38 1.292945 -0.042972 -0.335952 0.105001 0.186790 0.461843
    39 -6.759716 -15.200438 -8.484718 1.570796 0.000000 -3.127756
    40 0.000001 -3.879138 14.645464 0.000000 0.000000 0.000000
    41 0.000000 2.996095 -1.358396 0.000000 0.000000 0.000000
    42 0.000000 2.746097 -5.042964 0.000000 0.000000 0.000000
    43 0.000001 4.265628 -4.203120 0.000000 0.000000 0.000000
  time 1
    0 0.000005 -1.663086 -9.445313 -1.570760 -1.391893 -1.570827
    1 2.033348 1.000767 1.937660 3.096428 -0.170788 1.680462
    2 6.028145 0.000003 0.000002 -2.470988 -0.233114 -0.104736
    3 11.692553 0.000081 -0.000005 -0.113665 0.114824 -1.284111
    4 11.481672 -0.000089 -0.000025 -0.357264 0.306706 0.454417
    5 3.281559 0.002119 -1.383388 0.099714 -0.198220 -1.489108
    6 1.324284 -0.000010 0.000005 0.000000 -0.035667 -0.863346
    7 0.819210 0.000000 0.000003 0.000001 -0.000003 -0.523567
    8 3.711852 0.109256 -0.572073 0.058897 -0.134635 -1.706905
    9 1.609406 0.000006 -0.000007 -0.000002 0.005243 -0.427480
    10 0.993191 -0.000006 0.000002 0.001487 0.002270 -0.454066
    11 3.786029 0.203223 0.243937 0.023558 -0.103308 -1.670307
    12 1.684422 -0.000008 0.000009 0.000002 -0.004062 -0.253205
    13 1.252151 -0.000006 0.000003 0.000000 0.000011 -0.532286
    14 3.594221 0.299551 1.109803 0.005259 -0.118434 -1.372014
    15 1.719435 0.000000 -0.000005 -0.000004 0.000016 -0.445023
    16 1.005925 -0.000006 0.000003 0.000005 0.000018 -0.444992
    17 0.298212 -0.634095 0.430606 -1.372028 -1.032585 -0.422755
    18 2.633557 0.000002 -0.000010 -0.000002 -0.044428 0.246549
    19 1.308566 -0.000001 -0.000004 -0.001664 -0.005178 0.326112
    20 2.033356 1.000772 -1.937610 -0.128177 0.172990 -2.038336
    21 6.028141 0.000000 -0.000002 -0.394794 1.308521 -2.115007
    22 11.692556 0.000000 -0.000002 0.212485 -0.170709 -1.792926
    23 11.481703 -0.000001 -0.000005 -0.477867 0.018779 0.714038
    24 2.914335 -0.023166 1.400148 -0.075443 -0.048637 -0.941154
    25 1.284180 0.000001 0.000001 0.000007 0.095136 -0.604946
    26 0.838744 0.000000 -0.000001 -0.098885 0.057637 -1.366356
    27 3.368063 0.007377 0.622456 0.035972 -0.077320 -1.016274
    28 1.609375 -0.000002 -0.000001 -0.000004 0.124901 -1.144888
    29 1.016602 -0.000001 0.000002 0.005990 -0.009220 -0.841138
    30 3.551622 0.023917 -0.200566 0.019452 -0.119964 -0.811971
    31 1.666992 0.000001 0.000000 -0.000006 0.145216 -1.293764
    32 1.242188 0.000000 0.000000 -0.000005 -0.000002 -0.886591
    33 3.449668 0.054213 -1.085181 0.053708 0.185826 -0.349671
    34 1.707031 -0.000001 -0.000002 0.000011 -0.008526 -0.322849
    35 0.998535 0.000000 0.000000 0.005618 -0.013549 -0.593079
    36 0.075534 -0.734842 -0.755818 1.279016 0.268834 -0.630105
    37 2.508557 -0.000006 -0.000004 -0.000002 -0.000001 0.359159
    38 1.292945 -0.042972 -0.335952 0.105001 0.186790 0.461843
    39 -6.759716 -15.200438 -8.484718 1.570796 0.000000 -3.127756
    40 0.000001 -3.879138 14.645464 0.000000 0.000000 0.000000
    41 0.000000 2.996095 -1.358396 0.000000 0.000000 0.000000
    42 0.000000 2.746097 -5.042964 0.000000 0.000000 0.000000
    43 0.000001 4.265628 -4.203120 0.000000 0.000000 0.000000
  time 2
    0 0.000005 -1.663086 -9.445313 -1.570760 -1.391893 -1.570827
    1 2.033348 1.000767 1.937660 3.088770 -0.196082 1.681888
    2 6.028145 0.000003 0.000002 -2.444306 -0.242725 -0.139259
    3 11.692553 0.000081 -0.000005 -0.119657 0.116406 -1.336120
    4 11.481672 -0.000089 -0.000025 -0.207080 0.251199 0.569361
    5 3.281559 0.002119 -1.379481 0.086013 -0.204716 -1.284060
    6 1.324284 -0.000010 0.000005 0.000000 -0.054484 -0.820469
    7 0.819210 0.000000 0.000003 0.000001 -0.000003 -0.521564
    8 3.711852 0.109256 -0.568167 0.028948 -0.146583 -1.504487
    9 1.609406 0.000006 -0.000007 -0.000002 0.003518 -0.382938
    10 0.993191 -0.000006 0.000002 0.001451 0.002210 -0.450762
    11 3.786029 0.203223 0.247844 -0.002712 -0.108977 -1.469049
    12 1.684422 -0.000008 0.000009 0.000002 -0.004194 -0.208448
    13 1.252151 -0.000006 0.000003 0.000036 -0.000049 -0.528847
    14 3.594221 0.299551 1.113710 -0.018523 -0.134277 -1.170363
    15 1.719435 0.000000 -0.000005 -0.000004 0.006979 -0.400017
    16 1.005925 -0.000006 0.000003 0.000005 0.000018 -0.441368
    17 0.298212 -0.634095 0.430606 -1.371068 -1.034567 -0.423309
    18 2.637464 0.000002 -0.000010 -0.000002 -0.043565 0.243068
    19 1.308566 -0.000001 -0.000004 -0.001568 -0.004915 0.324756
    20 2.033356 1.000772 -1.937610 -0.128177 0.172990 -2.038336
    21 6.028141 0.000000 -0.000002 -0.408585 1.310753 -2.136792
    22 11.692556 0.000000 -0.000002 0.213420 -0.170277 -1.810201
    23 11.481703 -0.000001 -0.000005 -0.458245 -0.020729 0.735159
    24 2.910429 -0.023166 1.400148 -0.075443 -0.048637 -0.941154
    25 1.284180 0.000001 0.000001 0.000007 0.095136 -0.604946
    26 0.838744 0.000000 -0.000001 -0.098885 0.057637 -1.366356
    27 3.368063 0.007377 0.618550 0.035972 -0.077320 -1.016274
    28 1.609375 -0.000002 -0.000001 -0.000004 0.124901 -1.144888
    29 1.016602 -0.000001 0.000002 0.005990 -0.009220 -0.841138
    30 3.551622 0.023917 -0.200566 0.019452 -0.119964 -0.811971
    31 1.666992 0.000001 0.000000 -0.000006 0.145216 -1.293764
    32 1.242188 0.000000 0.000000 -0.000005 -0.000002 -0.886591
    33 3.445761 0.054213 -1.089087 0.053708 0.185826 -0.349671
    34 1.707031 -0.000001 -0.000002 0.000011 -0.008526 -0.322849
    35 0.998535 0.000000 0.000000 0.005618 -0.013549 -0.593079
    36 0.075534 -0.738749 -0.755818 1.279028 0.268809 -0.630093
    37 2.508557 -0.000006 -0.000004 -0.000002 -0.000001 0.359147
    38 1.292945 -0.042972 -0.335952 0.105001 0.186790 0.461843
    39 -6.533147 -15.071528 -8.422216 1.544398 0.017812 -3.112442
    40 0.062503 -4.179928 13.942317 0.087793 -0.016279 -0.030984
    41 0.000000 2.996095 -1.358396 0.000000 0.000000 0.000000
    42 0.000000 2.746097 -5.042964 0.000000 0.000000 0.000000
    43 0.000001 4.265628 -4.203120 0.000000 0.000000 0.000000
  time 3
    0 0.000005 -1.663086 -9.445313 -1.570760 -1.391893 -1.570827
    1 2.033348 1.000767 1.937660 3.076482 -0.236098 1.684508
    2 6.028145 0.000003 0.000002 -2.408849 -0.267083 -0.174355
    3 11.692553 0.000081 -0.000005 -0.125170 0.117617 -1.383313
    4 11.481672 -0.000089 -0.000025 -0.067750 0.175699 0.673084
    5 3.285465 0.006025 -1.379481 0.066798 -0.201708 -1.055520
    6 1.324284 -0.000010 0.000005 0.000000 -0.070694 -0.769638
    7 0.819210 0.000000 0.000003 0.000001 -0.000003 -0.516669
    8 3.715758 0.109256 -0.568167 -0.005712 -0.151665 -1.278703
    9 1.609406 0.000006 -0.000007 -0.000002 0.001492 -0.327116
    10 0.993191 -0.000006 0.000002 0.001379 0.002090 -0.442772
    11 3.789935 0.203223 0.247844 -0.031583 -0.109324 -1.245712
    12 1.684422 -0.000008 0.000009 0.000002 -0.004949 -0.151985
    13 1.252151 -0.000006 0.000003 0.000132 -0.000229 -0.520430
    14 3.594221 0.299551 1.113710 -0.044010 -0.150373 -0.944461
    15 1.719435 0.000000 -0.000005 -0.000004 0.011426 -0.343255
    16 1.005925 -0.000006 0.000003 0.000005 0.000018 -0.432613
    17 0.298212 -0.630189 0.430606 -1.367940 -1.039229 -0.426080
    18 2.637464 0.000002 -0.000010 -0.000002 -0.041432 0.234628
    19 1.308566 -0.000001 -0.000004 -0.001340 -0.004220 0.321396
    20 2.033356 1.000772 -1.937610 -0.128177 0.172990 -2.038336
    21 6.028141 0.000000 -0.000002 -0.419731 1.313391 -2.157070
    22 11.692556 0.000000 -0.000002 0.212413 -0.169630 -1.826115
    23 11.481703 -0.000001 -0.000005 -0.442278 -0.068305 0.749570
    24 2.914335 -0.023166 1.400148 -0.075443 -0.048637 -0.941154
    25 1.284180 0.000001 0.000001 0.000007 0.095136 -0.604946
    26 0.838744 0.000000 -0.000001 -0.098885 0.057637 -1.366356
    27 3.368063 0.007377 0.618550 0.035972 -0.077320 -1.016274
    28 1.609375 -0.000002 -0.000001 -0.000004 0.124901 -1.144888
    29 1.016602 -0.000001 0.000002 0.005990 -0.009220 -0.841138
    30 3.551622 0.023917 -0.200566 0.019452 -0.119964 -0.811971
    31 1.666992 0.000001 0.000000 -0.000006 0.145216 -1.293764
    32 1.242188 0.000000 0.000000 -0.000005 -0.000002 -0.886591
    33 3.449668 0.054213 -1.089087 0.053708 0.185826 -0.349671
    34 1.707031 -0.000001 -0.000002 0.000011 -0.008526 -0.322849
    35 0.998535 0.000000 0.000000 0.005618 -0.013549 -0.593079
    36 0.075534 -0.738749 -0.755818 1.279016 0.268834 -0.630105
    37 2.508557 -0.000006 -0.000004 -0.000002 -0.000001 0.359159
    38 1.292945 -0.042972 -0.335952 0.105001 0.186790 0.461843
    39 -6.310483 -14.915273 -8.363621 1.514819 0.032258 -3.091491
    40 0.128911 -4.488531 13.243077 0.176281 -0.029761 -0.063354
    41 0.000000 2.996095 -1.358396 0.000000 0.000000 0.000000
    42 0.000000 2.746097 -5.042964 0.000000 0.000000 0.000000
    43 0.000001 4.265628 -4.203120 0.000000 0.000000 0.000000
  time 4
    0 0.000005 -1.663086 -9.445313 -1.570760 -1.391893 -1.570827
    1 2.033348 1.000767 1.937660 3.059837 -0.289053 1.688787
    2 6.028145 0.000003 0.000002 -2.364260 -0.304302 -0.210122
    3 11.692553 0.000081 -0.000005 -0.130216 0.118432 -1.426135
    4 11.481672 -0.000089 -0.000025 0.061712 0.084035 0.760634
    5 3.285465 0.006025 -1.379481 0.043091 -0.188333 -0.817540
    6 1.324284 -0.000010 0.000005 0.000000 -0.081630 -0.715703
    7 0.819210 0.000000 0.000003 0.000001 -0.000003 -0.510686
    8 3.715758 0.109256 -0.568167 -0.041546 -0.148573 -1.042795
    9 1.609406 0.000006 -0.000007 -0.000002 -0.000401 -0.266816
    10 0.993191 -0.000006 0.000002 0.001295 0.001935 -0.432911
    11 3.789935 0.203223 0.243937 -0.059986 -0.104159 -1.012889
    12 1.684422 -0.000008 0.000009 0.000002 -0.006207 -0.090878
    13 1.252151 -0.000006 0.000003 0.000264 -0.000444 -0.510022
    14 3.594221 0.299551 1.113710 -0.068674 -0.165150 -0.707357
    15 1.719435 0.000000 -0.000005 -0.000004 0.012456 -0.281690
    16 1.005925 -0.000006 0.000003 0.000005 0.000018 -0.421795
    17 0.302118 -0.630189 0.426700 -1.365196 -1.045286 -0.427791
    18 2.633557 0.000002 -0.000010 -0.000002 -0.038639 0.224271
    19 1.308566 -0.000001 -0.000004 -0.001077 -0.003405 0.317270
    20 2.033356 1.000772 -1.937610 -0.128177 0.172990 -2.038336
    21 6.028141 0.000000 -0.000002 -0.423761 1.316678 -2.170685
    22 11.692556 0.000000 -0.000002 0.209944 -0.168899 -1.841409
    23 11.481703 -0.000001 -0.000005 -0.421071 -0.113163 0.759030
    24 2.914335 -0.023166 1.400148 -0.075443 -0.048637 -0.941154
    25 1.284180 0.000001 0.000001 0.000007 0.095136 -0.604946
    26 0.842650 0.000000 -0.000001 -0.098885 0.057637 -1.366390
    27 3.368063 0.007377 0.622456 0.035972 -0.077320 -1.016274
    28 1.609375 -0.000002 -0.000001 -0.000004 0.124901 -1.144888
    29 1.016602 -0.000001 0.000002 0.005990 -0.009220 -0.841138
    30 3.551622 0.023917 -0.200566 0.019452 -0.119964 -0.811971
    31 1.666992 0.000001 0.000000 -0.000006 0.145216 -1.293764
    32 1.242188 0.000000 0.000000 -0.000005 -0.000002 -0.886591
    33 3.449668 0.054213 -1.085181 0.053708 0.185826 -0.349671
    34 1.707031 -0.000001 -0.000002 0.000011 -0.008526 -0.322849
    35 0.998535 0.000000 0.000000 0.005618 -0.013549 -0.593079
    36 0.075534 -0.738749 -0.755818 1.279028 0.268809 -0.630105
    37 2.508557 -0.000006 -0.000004 -0.000002 -0.000001 0.359159
    38 1.292945 -0.042972 -0.335952 0.105001 0.186790 0.461843
    39 -6.111259 -14.751206 -8.281587 1.490993 0.051397 -3.071573
    40 0.195319 -4.789322 12.547744 0.265144 -0.040323 -0.096804
    41 0.000000 2.996095 -1.358396 0.000000 0.000000 0.000000
    42 0.000000 2.746097 -5.042964 0.000000 0.000000 0.000000
    43 0.000001 4.265628 -4.203120 0.000000 0.000000 0.000000
  time 5
    0 0.000005 -1.663086 -9.445313 -1.570760 -1.391893 -1.570827
    1 2.033348 1.000767 1.937660 3.038928 -0.353128 1.695416
    2 6.028145 0.000003 0.000002 -2.310268 -0.352829 -0.247035
    3 11.692553 0.000081 -0.000005 -0.134938 0.119019 -1.465994
    4 11.481672 -0.000089 -0.000025 0.183411 -0.019218 0.830699
    5 3.281559 0.002119 -1.379481 0.017424 -0.165071 -0.585273
    6 1.324284 -0.000010 0.000005 0.000000 -0.086353 -0.663563
    7 0.819210 0.000000 0.000003 0.000001 -0.000003 -0.505246
    8 3.711852 0.109256 -0.568167 -0.074827 -0.136732 -0.811511
    9 1.609406 0.000006 -0.000007 -0.000002 -0.001923 -0.208756
    10 0.993191 -0.000006 0.000002 0.001223 0.001815 -0.424024
    11 3.786029 0.203223 0.243937 -0.085118 -0.093181 -0.784363
    12 1.684422 -0.000008 0.000009 0.000002 -0.007609 -0.032061
    13 1.252151 -0.000006 0.000003 0.000360 -0.000648 -0.500610
    14 3.594221 0.299551 1.109803 -0.089709 -0.175852 -0.473897
    15 1.719435 0.000000 -0.000005 -0.000004 0.010778 -0.222611
    16 1.005925 -0.000006 0.000003 0.000005 0.000018 -0.412009
    17 0.298212 -0.634095 0.426700 -1.363200 -1.050628 -0.428345
    18 2.633557 0.000002 -0.000010 -0.000002 -0.036015 0.214928
    19 1.308566 -0.000001 -0.000004 -0.000825 -0.002638 0.313557
    20 2.033356 1.000772 -1.937610 -0.128177 0.172990 -2.038336
    21 6.028141 0.000000 -0.000002 -0.419542 1.320006 -2.176423
    22 11.692556 0.000000 -0.000002 0.206492 -0.168060 -1.857136
    23 11.481703 -0.000001 -0.000005 -0.386580 -0.144690 0.768601
    24 2.914335 -0.027073 1.400148 -0.075443 -0.048637 -0.941154
    25 1.284180 0.000001 0.000001 0.000007 0.095136 -0.604946
    26 0.838744 0.000000 -0.000001 -0.098885 0.057637 -1.366356
    27 3.368063 0.007377 0.618550 0.035972 -0.077320 -1.016274
    28 1.609375 -0.000002 -0.000001 -0.000004 0.124901 -1.144888
    29 1.016602 -0.000001 0.000002 0.005990 -0.009220 -0.841138
    30 3.551622 0.023917 -0.200566 0.019452 -0.119964 -0.811971
    31 1.666992 0.000001 0.000000 -0.000006 0.145216 -1.293764
    32 1.242188 0.000000 0.000000 -0.000005 -0.000002 -0.886591
    33 3.449668 0.054213 -1.085181 0.053708 0.185826 -0.349671
    34 1.707031 -0.000001 -0.000002 0.000011 -0.008526 -0.322849
    35 0.998535 0.000000 0.000000 0.005618 -0.013549 -0.593079
    36 0.075534 -0.738749 -0.755818 1.279028 0.268809 -0.630105
    37 2.508557 -0.000006 -0.000004 -0.000002 -0.000001 0.359159
    38 1.292945 -0.042972 -0.335952 0.105001 0.186790 0.461843
    39 -5.966723 -14.594951 -8.140958 1.480704 0.082730 -3.060017
    40 0.265634 -5.097925 11.848504 0.354274 -0.047904 -0.131102
    41 0.000000 2.996095 -1.358396 0.000000 0.000000 0.000000
    42 0.000000 2.746097 -5.042964 0.000000 0.000000 0.000000
    43 0.000001 4.265628 -4.203120 0.000000 0.000000 0.000000
  time 6
    0 0.000005 -1.663086 -9.445313 -1.570760 -1.391893 -1.570827
    1 2.033348 1.000767 1.937660 3.013664 -0.426537 1.705013
    2 6.028145 0.000003 0.000002 -2.245264 -0.411203 -0.287392
    3 11.692553 0.000081 -0.000005 -0.139600 0.119403 -1.505186
    4 11.481672 -0.000089 -0.000025 0.300638 -0.130682 0.883933
    5 3.281559 0.002119 -1.379481 -0.006370 -0.136008 -0.374513
    6 1.324284 -0.000010 0.000005 0.000000 -0.085933 -0.618067
    7 0.819210 0.000000 0.000003 0.000001 -0.000003 -0.502081
    8 3.711852 0.109256 -0.568167 -0.101600 -0.118575 -0.600584
    9 1.609406 0.000006 -0.000007 -0.000002 -0.002870 -0.159693
    10 0.993191 -0.000006 0.000002 0.001175 0.001731 -0.418825
    11 3.786029 0.203223 0.247844 -0.104114 -0.078284 -0.574975
    12 1.684422 -0.000008 0.000009 0.000002 -0.008784 0.017403
    13 1.252151 -0.000006 0.000003 0.000407 -0.000756 -0.495179
    14 3.594221 0.299551 1.113710 -0.104599 -0.181616 -0.260202
    15 1.719435 0.000000 -0.000005 -0.000004 0.007998 -0.172970
    16 1.005925 -0.000006 0.000003 0.000005 0.000018 -0.406321
    17 0.298212 -0.634095 0.430606 -1.361569 -1.053730 -0.429453
    18 2.637464 0.000002 -0.000010 -0.000002 -0.034433 0.209529
    19 1.308566 -0.000001 -0.000004 -0.000681 -0.002194 0.311435
    20 2.033356 1.000772 -1.937610 -0.128177 0.172990 -2.038336
    21 6.028141 0.000000 -0.000002 -0.405877 1.321629 -2.172193
    22 11.692556 0.000000 -0.000002 0.201735 -0.167077 -1.872926
    23 11.481703 -0.000001 -0.000005 -0.331551 -0.152977 0.784056
    24 2.910429 -0.023166 1.400148 -0.075443 -0.048637 -0.941154
    25 1.284180 0.000001 0.000001 0.000007 0.095136 -0.604946
    26 0.842650 0.000000 -0.000001 -0.098885 0.057637 -1.366356
    27 3.368063 0.007377 0.618550 0.035972 -0.077320 -1.016274
    28 1.609375 -0.000002 -0.000001 -0.000004 0.124901 -1.144888
    29 1.016602 -0.000001 0.000002 0.005990 -0.009220 -0.841138
    30 3.551622 0.023917 -0.200566 0.019452 -0.119964 -0.811971
    31 1.666992 0.000001 0.000000 -0.000006 0.145216 -1.293764
    32 1.242188 0.000000 0.000000 -0.000005 -0.000002 -0.886591
    33 3.449668 0.054213 -1.089087 0.053708 0.185826 -0.349671
    34 1.707031 -0.000001 -0.000002 0.000011 -0.008526 -0.322849
    35 0.998535 0.000000 0.000000 0.005618 -0.013549 -0.593079
    36 0.075534 -0.738749 -0.755818 1.279028 0.268809 -0.630105
    37 2.508557 -0.000006 -0.000004 -0.000002 -0.000001 0.359159
    38 1.292945 -0.042972 -0.335952 0.105001 0.186790 0.461843
    39 -5.900315 -14.466041 -7.933920 1.490654 0.133973 -3.064715
    40 0.332042 -5.398715 11.149264 0.443725 -0.052377 -0.165939
    41 0.000000 2.996095 -1.358396 0.000000 0.000000 0.000000
    42 0.000000 2.746097 -5.042964 0.000000 0.000000 0.000000
    43 0.000001 4.265628 -4.203120 0.000000 0.000000 0.000000
  time 7
    0 0.000005 -1.663086 -9.445313 -1.570760 -1.391893 -1.570827
    1 2.033348 1.000767 1.937660 2.983676 -0.507428 1.718542
    2 6.028145 0.000003 0.000002 -2.167724 -0.478104 -0.333104
    3 11.692553 0.000081 -0.000005 -0.144214 0.119618 -1.543859
    4 11.481672 -0.000089 -0.000025 0.418851 -0.246525 0.917115
    5 3.285465 0.002119 -1.379481 -0.026088 -0.106826 -0.198090
    6 1.324284 -0.000010 0.000005 0.000000 -0.082717 -0.583776
    7 0.819210 0.000000 0.000003 0.000001 -0.000003 -0.502947
    8 3.711852 0.109256 -0.568167 -0.120716 -0.098537 -0.423092
    9 1.609406 0.000006 -0.000007 -0.000002 -0.003374 -0.126477
    10 0.993191 -0.000006 0.000002 0.001187 0.001755 -0.420233
    11 3.789935 0.203223 0.243937 -0.116686 -0.062608 -0.397382
    12 1.684422 -0.000008 0.000009 0.000002 -0.009467 0.050549
    13 1.252151 -0.000006 0.000003 0.000396 -0.000732 -0.496688
    14 3.594221 0.299551 1.109803 -0.113548 -0.182839 -0.080872
    15 1.719435 0.000000 -0.000005 -0.000004 0.005589 -0.139954
    16 1.005925 -0.000006 0.000003 0.000005 0.000018 -0.407883
    17 0.298212 -0.630189 0.426700 -1.362010 -1.052885 -0.429140
    18 2.637464 0.000002 -0.000010 -0.000002 -0.034864 0.211005
    19 1.308566 -0.000001 -0.000004 -0.000717 -0.002314 0.312025
    20 2.033356 1.000772 -1.937610 -0.128177 0.172990 -2.038336
    21 6.028141 0.000000 -0.000002 -0.384656 1.321710 -2.159987
    22 11.692556 0.000000 -0.000002 0.196138 -0.165999 -1.888343
    23 11.481703 -0.000001 -0.000005 -0.254158 -0.128729 0.815683
    24 2.914335 -0.023166 1.400148 -0.075443 -0.048637 -0.941154
    25 1.284180 0.000001 0.000001 0.000007 0.095136 -0.604946
    26 0.842650 0.000000 -0.000001 -0.098885 0.057637 -1.366356
    27 3.368063 0.007377 0.622456 0.035972 -0.077320 -1.016274
    28 1.609375 -0.000002 -0.000001 -0.000004 0.124901 -1.144888
    29 1.016602 -0.000001 0.000002 0.005990 -0.009220 -0.841138
    30 3.551622 0.023917 -0.200566 0.019452 -0.119964 -0.811971
    31 1.666992 0.000001 0.000000 -0.000006 0.145216 -1.293764
    32 1.242188 0.000000 0.000000 -0.000005 -0.000002 -0.886591
    33 3.449668 0.054213 -1.089087 0.053708 0.185826 -0.349671
    34 1.707031 -0.000001 -0.000002 0.000011 -0.008526 -0.322849
    35 0.998535 0.000000 0.000000 0.005618 -0.013549 -0.593079
    36 0.075534 -0.738749 -0.755818 1.279028 0.268809 -0.630105
    37 2.508557 -0.000006 -0.000004 -0.000002 -0.000001 0.359159
    38 1.292945 -0.042972 -0.335952 0.105001 0.186790 0.461843
    39 -5.955004 -14.368382 -7.637036 1.525310 0.207627 -3.094215
    40 0.398451 -5.707319 10.453930 0.533283 -0.053713 -0.201007
    41 0.000000 2.996095 -1.358396 0.000000 0.000000 0.000000
    42 0.000000 2.746097 -5.042964 0.000000 0.000000 0.000000
    43 0.000001 4.265628 -4.203120 0.000000 0.000000 0.000000
  time 8
    0 0.000005 -1.663086 -9.445313 -1.570760 -1.391893 -1.570827
    1 2.033348 1.000767 1.937660 2.948324 -0.593810 1.737081
    2 6.028145 0.000003 0.000002 -2.076306 -0.547502 -0.387996
    3 11.692553 0.000081 -0.000005 -0.148840 0.119654 -1.582607
    4 11.481672 -0.000089 -0.000025 0.542129 -0.363752 0.928573
    5 3.281559 0.002119 -1.383388 -0.040049 -0.083240 -0.069110
    6 1.324284 -0.000010 0.000005 0.000000 -0.079414 -0.564860
    7 0.819210 0.000000 0.000003 0.000001 -0.000003 -0.509524
    8 3.711852 0.109256 -0.568167 -0.132413 -0.081387 -0.292525
    9 1.609406 0.000006 -0.000007 -0.000002 -0.003613 -0.115778
    10 0.993191 -0.000006 0.000002 0.001283 0.001923 -0.431016
    11 3.786029 0.203223 0.243937 -0.123697 -0.049413 -0.264775
    12 1.684422 -0.000008 0.000009 0.000002 -0.009587 0.060378
    13 1.252151 -0.000006 0.000003 0.000288 -0.000492 -0.508031
    14 3.594221 0.299551 1.113710 -0.117784 -0.180813 0.049221
    15 1.719435 0.000000 -0.000005 -0.000004 0.004283 -0.130550
    16 1.005925 -0.000006 0.000003 0.000005 0.000018 -0.419732
    17 0.298212 -0.634095 0.430606 -1.365349 -1.046406 -0.426923
    18 2.637464 0.000002 -0.000010 -0.000002 -0.038088 0.222310
    19 1.308566 -0.000001 -0.000004 -0.001029 -0.003237 0.316504
    20 2.033356 1.000772 -1.937610 -0.128177 0.172990 -2.038336
    21 6.028141 0.000000 -0.000002 -0.353233 1.318342 -2.135917
    22 11.692556 0.000000 -0.000002 0.189918 -0.164668 -1.904938
    23 11.481703 -0.000001 -0.000005 -0.162992 -0.080583 0.867935
    24 2.914335 -0.023166 1.400148 -0.075327 -0.048936 -0.941024
    25 1.284180 0.000001 0.000001 0.000007 0.095136 -0.604946
    26 0.842650 0.000000 -0.000001 -0.098885 0.057637 -1.366356
    27 3.368063 0.007377 0.622456 0.036116 -0.077620 -1.016154
    28 1.609375 -0.000002 -0.000001 -0.000004 0.124901 -1.144888
    29 1.016602 -0.000001 0.000002 0.005990 -0.009220 -0.841138
    30 3.551622 0.023917 -0.200566 0.019523 -0.120275 -0.811851
    31 1.666992 0.000001 0.000000 -0.000006 0.145216 -1.293764
    32 1.242188 0.000000 0.000000 -0.000005 -0.000002 -0.886591
    33 3.449668 0.054213 -1.089087 0.053633 0.185514 -0.349568
    34 1.707031 -0.000001 -0.000002 0.000011 -0.008526 -0.322849
    35 0.998535 0.000000 0.000000 0.005618 -0.013549 -0.593079
    36 0.075534 -0.738749 -0.755818 1.279052 0.268500 -0.629973
    37 2.508557 -0.000006 -0.000004 -0.000002 -0.000001 0.359159
    38 1.292945 -0.042972 -0.335952 0.105001 0.186790 0.461843
    39 -6.138603 -14.282442 -7.297182 1.573707 0.298568 -3.142976
    40 0.468765 -6.008109 9.754690 0.622788 -0.051942 -0.236076
    41 0.000000 2.996095 -1.358396 0.000000 0.000000 0.000000
    42 0.000000 2.746097 -5.042964 0.000000 0.000000 0.000000
    43 0.000001 4.265628 -4.203120 0.000000 0.000000 0.000000
  time 9
    0 0.000005 -1.663086 -9.445313 -1.570760 -1.391893 -1.570827
    1 2.033348 1.000767 1.937660 2.906460 -0.683796 1.762056
    2 6.028145 0.000003 0.000002 -1.970652 -0.612896 -0.454365
    3 11.692553 0.000081 -0.000005 -0.153262 0.119522 -1.619724
    4 11.481672 -0.000089 -0.000025 0.660276 -0.414075 0.904105
    5 3.281559 0.002119 -1.379481 -0.047211 -0.070093 -0.000649
    6 1.324284 -0.000010 0.000005 0.000000 -0.078487 -0.565830
    7 0.819210 0.000000 0.000003 0.000001 -0.000003 -0.523567
    8 3.711852 0.109256 -0.568167 -0.137794 -0.071392 -0.222097
    9 1.609406 0.000006 -0.000007 -0.000002 -0.003841 -0.134400
    10 0.993191 -0.000006 0.000002 0.001475 0.002258 -0.454066
    11 3.786029 0.203223 0.243937 -0.126693 -0.041516 -0.190175
    12 1.684422 -0.000008 0.000009 0.000002 -0.009143 0.039925
    13 1.252151 -0.000006 0.000003 0.000000 0.000011 -0.532286
    14 3.594221 0.299551 1.109803 -0.119143 -0.177182 0.115178
    15 1.719435 0.000000 -0.000005 -0.000004 0.004283 -0.151844
    16 1.005925 -0.000006 0.000003 0.000005 0.000018 -0.444992
    17 0.298212 -0.634095 0.430606 -1.372009 -1.032585 -0.422755
    18 2.633557 0.000002 -0.000010 -0.000002 -0.044440 0.246549
    19 1.308566 -0.000001 -0.000004 -0.001676 -0.005178 0.326112
    20 2.033356 1.000772 -1.937610 -0.128177 0.172990 -2.038336
    21 6.028141 0.000000 -0.000002 -0.316331 1.310753 -2.104601
    22 11.692556 0.000000 -0.000002 0.183182 -0.162967 -1.922523
    23 11.481703 -0.000001 -0.000005 -0.064270 -0.029674 0.935588
    24 2.910429 -0.027073 1.400148 -0.075443 -0.048649 -0.941154
    25 1.284180 0.000001 0.000001 0.000007 0.095136 -0.604946
    26 0.842650 0.000000 -0.000001 -0.098885 0.057637 -1.366356
    27 3.368063 0.007377 0.618550 0.035972 -0.077320 -1.016274
    28 1.609375 -0.000002 -0.000001 -0.000004 0.124901 -1.144888
    29 1.016602 -0.000001 0.000002 0.005990 -0.009220 -0.841138
    30 3.551622 0.023917 -0.200566 0.019452 -0.119964 -0.811971
    31 1.666992 0.000001 0.000000 -0.000006 0.145216 -1.293764
    32 1.242188 0.000000 0.000000 -0.000005 -0.000002 -0.886591
    33 3.449668 0.054213 -1.085181 0.053708 0.185826 -0.349671
    34 1.707031 -0.000001 -0.000002 0.000011 -0.008526 -0.322849
    35 0.998535 0.000000 0.000000 0.005618 -0.013549 -0.593079
    36 0.075534 -0.738749 -0.755818 1.279028 0.268809 -0.630105
    37 2.508557 -0.000006 -0.000004 -0.000002 -0.000001 0.359159
    38 1.292945 -0.042972 -0.335952 0.105001 0.186790 0.461843
    39 -6.361266 -14.180876 -7.031549 1.620005 0.401826 -3.197561
    40 0.535174 -6.316712 9.051543 0.712132 -0.047034 -0.270836
    41 0.000000 2.996095 -1.358396 0.000000 0.000000 0.000000
    42 0.000000 2.746097 -5.042964 0.000000 0.000000 0.000000
    43 0.000001 4.265628 -4.203120 0.000000 0.000000 0.000000
  time 10
    0 0.000005 -1.663086 -9.445313 -1.570760 -1.391893 -1.570827
    1 2.033348 1.000767 1.937660 2.856481 -0.775292 1.795357
    2 6.028145 0.000003 0.000002 -1.853000 -0.668537 -0.531157
    3 11.692553 0.000081 -0.000005 -0.157852 0.119223 -1.658249
    4 11.481672 -0.000089 -0.000025 0.785002 -0.456349 0.870803
    5 3.281559 0.002119 -1.379481 -0.049067 -0.066570 0.017375
    6 1.324284 -0.000010 0.000005 0.000000 -0.080283 -0.583339
    7 0.819210 0.000000 0.000003 0.000001 -0.000003 -0.543816
    8 3.711852 0.109256 -0.568167 -0.139196 -0.068444 -0.201986
    9 1.609406 0.000006 -0.000007 -0.000002 -0.004093 -0.177688
    10 0.993191 -0.000006 0.000002 0.001763 0.002773 -0.487361
    11 3.786029 0.203223 0.243937 -0.127568 -0.038687 -0.164196
    12 1.684422 -0.000008 0.000009 0.000002 -0.008280 -0.005945
    13 1.252151 -0.000006 0.000003 -0.000407 0.000718 -0.567312
    14 3.594221 0.299551 1.109803 -0.119273 -0.173023 0.127277
    15 1.719435 0.000000 -0.000005 -0.000004 0.005301 -0.198899
    16 1.005925 -0.000006 0.000003 0.000005 0.000018 -0.481517
    17 0.298212 -0.634095 0.430606 -1.380529 -1.012523 -0.417937
    18 2.637464 0.000002 -0.000010 -0.000002 -0.052266 0.282093
    19 1.308566 -0.000001 -0.000004 -0.002647 -0.007995 0.339992
    20 2.033356 1.000772 -1.937610 -0.128177 0.172990 -2.038336
    21 6.028141 0.000000 -0.000002 -0.279430 1.296752 -2.070514
    22 11.692556 0.000000 -0.000002 0.176004 -0.161265 -1.940665
    23 11.481703 -0.000001 -0.000005 0.034879 0.009790 1.006430
    24 2.914335 -0.023166 1.400148 -0.075443 -0.048637 -0.941154
    25 1.284180 0.000001 0.000001 0.000007 0.095136 -0.604946
    26 0.842650 0.000000 -0.000001 -0.098885 0.057637 -1.366356
    27 3.368063 0.007377 0.618550 0.035972 -0.077320 -1.016274
    28 1.609375 -0.000002 -0.000001 -0.000004 0.124901 -1.144888
    29 1.016602 -0.000001 0.000002 0.005990 -0.009220 -0.841138
    30 3.551622 0.023917 -0.200566 0.019452 -0.119964 -0.811971
    31 1.666992 0.000001 0.000000 -0.000006 0.145216 -1.293764
    32 1.242188 0.000000 0.000000 -0.000005 -0.000002 -0.886591
    33 3.449668 0.054213 -1.089087 0.053708 0.185826 -0.349671
    34 1.707031 -0.000001 -0.000002 0.000011 -0.008526 -0.322849
    35 0.998535 0.000000 0.000000 0.005618 -0.013549 -0.593079
    36 0.075534 -0.738749 -0.755818 1.279028 0.268809 -0.630105
    37 2.508557 -0.000006 -0.000004 -0.000002 -0.000001 0.359147
    38 1.292945 -0.042972 -0.335952 0.105001 0.186778 0.461843
    39 -6.533147 -14.055872 -6.887013 1.652427 0.509559 -3.245382
    40 0.601582 -6.617503 8.352303 0.801262 -0.039019 -0.305057
    41 0.000000 2.996095 -1.358396 0.000000 0.000000 0.000000
    42 0.000000 2.746097 -5.042964 0.000000 0.000000 0.000000
    43 0.000001 4.265628 -4.203120 0.000000 0.000000 0.000000
  time 11
    0 0.000005 -1.663086 -9.445313 -1.570760 -1.391893 -1.570827
    1 2.033348 1.000767 1.937660 2.796185 -0.866067 1.839565
    2 6.028145 0.000003 0.000002 -1.726214 -0.709055 -0.615791
    3 11.692553 0.000081 -0.000005 -0.162862 0.118659 -1.700331
    4 11.481672 -0.000089 -0.000025 0.916174 -0.488674 0.828729
    5 3.281559 0.002119 -1.379481 -0.047957 -0.068679 0.006622
    6 1.324284 -0.000010 0.000005 0.000000 -0.083716 -0.610258
    7 0.819210 0.000000 0.000003 0.000001 -0.000003 -0.567676
    8 3.711852 0.109256 -0.568167 -0.138621 -0.069690 -0.210414
    9 1.609406 0.000006 -0.000007 -0.000002 -0.004260 -0.235033
    10 0.993191 -0.000006 0.000002 0.002050 0.003397 -0.526521
    11 3.786029 0.203223 0.243937 -0.127520 -0.038879 -0.165948
    12 1.684422 -0.000008 0.000009 0.000002 -0.007118 -0.066384
    13 1.252151 -0.000006 0.000003 -0.000983 0.001545 -0.608522
    14 3.594221 0.299551 1.109803 -0.118868 -0.168613 0.108789
    15 1.719435 0.000000 -0.000005 -0.000004 0.006991 -0.260665
    16 1.005925 -0.000006 0.000003 0.000005 0.000018 -0.524398
    17 0.298212 -0.634095 0.426700 -1.389165 -0.988882 -0.413913
    18 2.637464 0.000002 -0.000010 -0.000002 -0.059433 0.324468
    19 1.308566 -0.000001 -0.000004 -0.003821 -0.011254 0.356319
    20 2.033356 1.000772 -1.937610 -0.128177 0.172990 -2.038336
    21 6.028141 0.000000 -0.000002 -0.253171 1.263109 -2.038420
    22 11.692556 0.000000 -0.000002 0.168693 -0.159060 -1.960541
    23 11.481703 -0.000001 -0.000005 0.104899 0.029829 1.067263
    24 2.914335 -0.023166 1.400148 -0.075443 -0.048637 -0.941154
    25 1.284180 0.000001 0.000001 0.000007 0.095136 -0.604946
    26 0.842650 0.000000 -0.000001 -0.098885 0.057637 -1.366390
    27 3.368063 0.007377 0.618550 0.035972 -0.077320 -1.016274
    28 1.609375 -0.000002 -0.000001 -0.000004 0.124901 -1.144888
    29 1.016602 -0.000001 0.000002 0.005990 -0.009220 -0.841138
    30 3.551622 0.023917 -0.200566 0.019452 -0.119964 -0.811971
    31 1.666992 0.000001 0.000000 -0.000006 0.145216 -1.293764
    32 1.242188 0.000000 0.000000 -0.000005 -0.000002 -0.886591
    33 3.449668 0.054213 -1.089087 0.053708 0.185826 -0.349671
    34 1.707031 -0.000001 -0.000002 0.000011 -0.008526 -0.322849
    35 0.998535 0.000000 0.000000 0.005618 -0.013549 -0.593079
    36 0.075534 -0.738749 -0.755818 1.279028 0.268809 -0.630105
    37 2.508557 -0.000006 -0.000004 -0.000002 -0.000001 0.359159
    38 1.292945 -0.042972 -0.335952 0.105001 0.186778 0.461843
    39 -6.384704 -13.969932 -7.023736 1.654931 0.598432 -3.272909
    40 0.671896 -6.926106 7.656969 0.890125 -0.028052 -0.338352
    41 0.000000 2.996095 -1.358396 0.000000 0.000000 0.000000
    42 0.000000 2.746097 -5.042964 0.000000 0.000000 0.000000
    43 0.000001 4.265628 -4.203120 0.000000 0.000000 0.000000
  time 12
    0 0.000005 -1.663086 -9.445313 -1.570760 -1.391893 -1.570827
    1 2.033348 1.000767 1.937660 2.722316 -0.953856 1.897919
    2 6.028145 0.000003 0.000002 -1.595668 -0.731434 -0.702720
    3 11.692553 0.000081 -0.000005 -0.168482 0.117797 -1.747968
    4 11.481672 -0.000089 -0.000025 1.052807 -0.510793 0.779553
    5 3.281559 0.002119 -1.379481 -0.044298 -0.075534 -0.028785
    6 1.324284 -0.000010 0.000005 0.000000 -0.088540 -0.645229
    7 0.819210 0.000000 0.000003 0.000001 -0.000003 -0.594576
    8 3.711852 0.109256 -0.572073 -0.136236 -0.074472 -0.243466
    9 1.609406 0.000006 -0.000007 -0.000002 -0.004237 -0.304330
    10 0.993191 -0.000006 0.000002 0.002362 0.004104 -0.570701
    11 3.786029 0.203223 0.243937 -0.126645 -0.041647 -0.191398
    12 1.684422 -0.000008 0.000009 0.000002 -0.005644 -0.139198
    13 1.252151 -0.000006 0.000003 -0.001642 0.002444 -0.654981
    14 3.594221 0.299551 1.109803 -0.117856 -0.163963 0.064065
    15 1.719435 0.000000 -0.000005 -0.000004 0.009388 -0.334993
    16 1.005925 -0.000006 0.000003 0.000005 0.000018 -0.572827
    17 0.298212 -0.634095 0.430606 -1.397321 -0.962120 -0.411287
    18 2.633557 0.000002 -0.000010 -0.000002 -0.064886 0.372947
    19 1.308566 -0.000001 -0.000004 -0.005235 -0.014934 0.374709
    20 2.033356 1.000772 -1.937610 -0.128177 0.172990 -2.038336
    21 6.028141 0.000000 -0.000002 -0.244481 1.208931 -2.012793
    22 11.692556 0.000000 -0.000002 0.161155 -0.156519 -1.981036
    23 11.481703 -0.000001 -0.000005 0.151517 0.031671 1.108790
    24 2.914335 -0.023166 1.400148 -0.075476 -0.048637 -0.941154
    25 1.284180 0.000001 0.000001 0.000007 0.095136 -0.604946
    26 0.842650 0.000000 -0.000001 -0.098885 0.057637 -1.366390
    27 3.368063 0.007377 0.618550 0.035972 -0.077320 -1.016274
    28 1.609375 -0.000002 -0.000001 -0.000004 0.124901 -1.144888
    29 1.016602 -0.000001 0.000002 0.005990 -0.009220 -0.841138
    30 3.551622 0.023917 -0.200566 0.019452 -0.119964 -0.811971
    31 1.666992 0.000001 0.000000 -0.000006 0.145216 -1.293764
    32 1.242188 0.000000 0.000000 -0.000005 -0.000002 -0.886591
    33 3.449668 0.054213 -1.085181 0.053708 0.185826 -0.349671
    34 1.707031 -0.000001 -0.000002 0.000011 -0.008526 -0.322849
    35 0.998535 0.000000 0.000000 0.005618 -0.013549 -0.593079
    36 0.075534 -0.738749 -0.755818 1.279028 0.268809 -0.630105
    37 2.508557 -0.000006 -0.000004 -0.000002 -0.000001 0.359159
    38 1.292945 -0.042972 -0.335952 0.105001 0.186778 0.461843
    39 -5.837813 -13.950400 -7.433905 1.627789 0.673259 -3.276479
    40 0.738305 -7.226896 6.957729 0.978506 -0.014166 -0.370569
    41 0.000000 2.996095 -1.358396 0.000000 0.000000 0.000000
    42 0.000000 2.746097 -5.042964 0.000000 0.000000 0.000000
    43 0.000001 4.265628 -4.203120 0.000000 0.000000 0.000000
  time 13
    0 0.000005 -1.663086 -9.445313 -1.570760 -1.391893 -1.570827
    1 2.033348 1.000767 1.937660 2.631024 -1.036085 1.974580
    2 6.028145 0.000003 0.000002 -1.470226 -0.733224 -0.782955
    3 11.692553 0.000081 -0.000005 -0.174846 0.116490 -1.802422
    4 11.481672 -0.000089 -0.000025 1.193583 -0.521032 0.723752
    5 3.281559 0.002119 -1.379481 -0.038384 -0.086200 -0.084813
    6 1.324284 -0.000010 0.000005 0.000000 -0.094233 -0.687038
    7 0.819210 0.000000 0.000003 0.000001 -0.000003 -0.624023
    8 3.711852 0.109256 -0.568167 -0.132041 -0.081998 -0.296957
    9 1.609406 0.000006 -0.000007 -0.000002 -0.003889 -0.383744
    10 0.993191 -0.000006 0.000002 0.002673 0.004895 -0.619056
    11 3.786029 0.203223 0.243937 -0.124895 -0.046465 -0.236680
    12 1.684422 -0.000008 0.000009 0.000002 -0.003810 -0.222412
    13 1.252151 -0.000006 0.000003 -0.002409 0.003367 -0.705905
    14 3.594221 0.299551 1.113710 -0.115962 -0.158930 -0.002436
    15 1.719435 0.000000 -0.000005 -0.000004 0.012408 -0.419766
    16 1.005925 -0.000006 0.000003 0.000005 0.000018 -0.625802
    17 0.298212 -0.634095 0.430606 -1.404595 -0.932789 -0.410468
    18 2.633557 0.000002 -0.000010 -0.000002 -0.067654 0.426605
    19 1.308566 -0.000001 -0.000004 -0.006853 -0.018937 0.394897
    20 2.033356 1.000772 -1.937610 -0.128177 0.172990 -2.038336
    21 6.028141 0.000000 -0.000002 -0.250841 1.149802 -1.997038
    22 11.692556 0.000000 -0.000002 0.153209 -0.153738 -2.000169
    23 11.481703 -0.000001 -0.000005 0.203865 0.022857 1.137061
    24 2.914335 -0.023166 1.400148 -0.075443 -0.048637 -0.941154
    25 1.284180 0.000001 0.000001 0.000007 0.095136 -0.604946
    26 0.838744 0.000000 -0.000001 -0.098885 0.057637 -1.366356
    27 3.368063 0.007377 0.618550 0.035984 -0.077320 -1.016274
    28 1.609375 -0.000002 -0.000001 -0.000004 0.124901 -1.144888
    29 1.016602 -0.000001 0.000002 0.005990 -0.009220 -0.841138
    30 3.551622 0.023917 -0.204473 0.019452 -0.119964 -0.811971
    31 1.666992 0.000001 0.000000 -0.000006 0.145216 -1.293764
    32 1.242188 0.000000 0.000000 -0.000005 -0.000002 -0.886591
    33 3.449668 0.054213 -1.089087 0.053708 0.185826 -0.349671
    34 1.707031 -0.000001 -0.000002 0.000011 -0.008526 -0.322849
    35 0.998535 0.000000 0.000000 0.005618 -0.013549 -0.593079
    36 0.075534 -0.738749 -0.755818 1.279028 0.268834 -0.630105
    37 2.508557 -0.000006 -0.000004 -0.000002 -0.000001 0.359159
    38 1.292945 -0.042972 -0.335952 0.105001 0.186790 0.461843
    39 -5.142479 -13.934775 -7.871418 1.590290 0.754692 -3.268212
    40 0.808619 -7.535499 6.258489 1.066352 0.002454 -0.401398
    41 0.000000 2.996095 -1.358396 0.000000 0.000000 0.000000
    42 0.000000 2.746097 -5.042964 0.000000 0.000000 0.000000
    43 0.000001 4.265628 -4.203120 0.000000 0.000000 0.000000
  time 14
    0 0.000005 -1.663086 -9.445313 -1.570760 -1.391893 -1.570827
    1 2.033348 1.000767 1.937660 2.517676 -1.110010 2.074251
    2 6.028145 0.000003 0.000002 -1.358573 -0.715650 -0.847315
    3 11.692553 0.000081 -0.000005 -0.181941 0.114609 -1.863988
    4 11.481672 -0.000089 -0.000025 1.336531 -0.518714 0.663476
    5 3.281559 0.002119 -1.379481 -0.030545 -0.099587 -0.157428
    6 1.324284 -0.000010 0.000005 0.000000 -0.100273 -0.734328
    7 0.819210 0.000000 0.000003 0.000001 -0.000003 -0.655497
    8 3.711852 0.109256 -0.568167 -0.126001 -0.091406 -0.366974
    9 1.609406 0.000006 -0.000007 -0.000002 -0.003134 -0.471216
    10 0.993191 -0.000006 0.000002 0.002937 0.005758 -0.670765
    11 3.786029 0.203223 0.243937 -0.122150 -0.052805 -0.297762
    12 1.684422 -0.000008 0.000009 0.000002 -0.001617 -0.313866
    13 1.252151 -0.000006 0.000003 -0.003284 0.004337 -0.760268
    14 3.594221 0.299551 1.113710 -0.112897 -0.153393 -0.086364
    15 1.719435 0.000000 -0.000005 -0.000004 0.015668 -0.513003
    16 1.005925 -0.000006 0.000003 0.000005 0.000018 -0.682484
    17 0.298212 -0.634095 0.430606 -1.410813 -0.901439 -0.411745
    18 2.637464 0.000002 -0.000010 -0.000002 -0.067031 0.484515
    19 1.308566 -0.000001 -0.000004 -0.008687 -0.023155 0.416469
    20 2.033356 1.000772 -1.937610 -0.128177 0.172990 -2.038336
    21 6.028141 0.000000 -0.000002 -0.264002 1.103294 -1.992953
    22 11.692556 0.000000 -0.000002 0.144952 -0.150766 -2.017755
    23 11.481703 -0.000001 -0.000005 0.270837 0.006458 1.154717
    24 2.910429 -0.023166 1.400148 -0.075443 -0.048637 -0.941154
    25 1.284180 0.000001 0.000001 0.000007 0.095136 -0.604946
    26 0.842650 0.000000 -0.000001 -0.098885 0.057637 -1.366356
    27 3.368063 0.007377 0.618550 0.035972 -0.077320 -1.016274
    28 1.609375 -0.000002 -0.000001 -0.000004 0.124901 -1.144888
    29 1.016602 -0.000001 0.000002 0.005990 -0.009220 -0.841138
    30 3.551622 0.023917 -0.200566 0.019452 -0.119964 -0.811971
    31 1.666992 0.000001 0.000000 -0.000006 0.145216 -1.293764
    32 1.242188 0.000000 0.000000 -0.000005 -0.000002 -0.886591
    33 3.449668 0.054213 -1.089087 0.053708 0.185826 -0.349671
    34 1.707031 -0.000001 -0.000002 0.000011 -0.008526 -0.322849
    35 0.998535 0.000000 0.000000 0.005618 -0.013549 -0.593079
    36 0.075534 -0.738749 -0.755818 1.279028 0.268809 -0.630105
    37 2.508557 -0.000006 -0.000004 -0.000002 -0.000001 0.359159
    38 1.292945 -0.042972 -0.335952 0.105001 0.186790 0.461843
    39 -4.517460 -13.860554 -8.137051 1.561523 0.843596 -3.253649
    40 0.875028 -7.836290 5.563156 1.153610 0.021777 -0.430686
    41 0.000000 2.996095 -1.358396 0.000000 0.000000 0.000000
    42 0.000000 2.746097 -5.042964 0.000000 0.000000 0.000000
    43 0.000001 4.265628 -4.203120 0.000000 0.000000 0.000000
  time 15
    0 0.000005 -1.663086 -9.445313 -1.570760 -1.391893 -1.570827
    1 2.033348 1.000767 1.937660 2.378835 -1.172746 2.200632
    2 6.028145 0.000003 0.000002 -1.267334 -0.679043 -0.888819
    3 11.692553 0.000081 -0.000005 -0.189767 0.111960 -1.933111
    4 11.481672 -0.000089 -0.000025 1.479676 -0.503742 0.599021
    5 3.281559 0.002119 -1.379481 -0.021163 -0.114580 -0.242692
    6 1.324284 -0.000010 0.000005 0.000000 -0.105995 -0.785790
    7 0.819210 0.000000 0.000003 0.000001 -0.000003 -0.688479
    8 3.711852 0.109256 -0.568167 -0.118103 -0.101761 -0.449413
    9 1.609406 0.000006 -0.000007 -0.000002 -0.001864 -0.564686
    10 0.993191 -0.000006 0.000002 0.003189 0.006656 -0.724959
    11 3.786029 0.203223 0.243937 -0.118255 -0.060068 -0.370874
    12 1.684422 -0.000008 0.000009 0.000002 0.000876 -0.411491
    13 1.252151 -0.000006 0.000003 -0.004255 0.005308 -0.817317
    14 3.594221 0.299551 1.109803 -0.108430 -0.147221 -0.183261
    15 1.719435 0.000000 -0.000005 -0.000004 0.018580 -0.612588
    16 1.005925 -0.000006 0.000003 0.000005 0.000018 -0.741899
    17 0.298212 -0.634095 0.426700 -1.415879 -0.868620 -0.415142
    18 2.633557 0.000002 -0.000010 -0.000002 -0.062441 0.545532
    19 1.308566 -0.000001 -0.000004 -0.010676 -0.027554 0.439103
    20 2.033356 1.000772 -1.937610 -0.128177 0.172990 -2.038336
    21 6.028141 0.000000 -0.000002 -0.279871 1.072208 -2.000053
    22 11.692556 0.000000 -0.000002 0.136574 -0.147518 -2.034287
    23 11.481703 -0.000001 -0.000005 0.340918 -0.008889 1.166542
    24 2.910429 -0.023166 1.400148 -0.075443 -0.048637 -0.941154
    25 1.284180 0.000001 0.000001 0.000007 0.095136 -0.604946
    26 0.838744 0.000000 -0.000001 -0.098885 0.057637 -1.366356
    27 3.368063 0.007377 0.622456 0.035972 -0.077320 -1.016274
    28 1.609375 -0.000002 -0.000001 -0.000004 0.124901 -1.144888
    29 1.016602 -0.000001 0.000002 0.005990 -0.009220 -0.841138
    30 3.551622 0.023917 -0.200566 0.019452 -0.119964 -0.811971
    31 1.666992 0.000001 0.000000 -0.000006 0.145216 -1.293764
    32 1.242188 0.000000 0.000000 -0.000005 -0.000002 -0.886591
    33 3.449668 0.054213 -1.085181 0.053708 0.185826 -0.349671
    34 1.707031 -0.000001 -0.000002 0.000011 -0.008526 -0.322849
    35 0.998535 0.000000 0.000000 0.005618 -0.013549 -0.593079
    36 0.075534 -0.738749 -0.755818 1.279016 0.268834 -0.630105
    37 2.508557 -0.000006 -0.000004 -0.000002 -0.000001 0.359147
    38 1.292945 -0.042972 -0.335952 0.105001 0.186778 0.461843
    39 -4.048696 -13.743363 -8.172209 1.553739 0.926727 -3.232135
    40 0.941436 -8.144893 4.863915 1.240386 0.043554 -0.458201
    41 0.000000 2.996095 -1.358396 0.000000 0.000000 0.000000
    42 0.000000 2.746097 -5.042964 0.000000 0.000000 0.000000
    43 0.000001 4.265628 -4.203120 0.000000 0.000000 0.000000
  time 16
    0 0.000005 -1.663086 -9.445313 -1.570760 -1.391893 -1.570827
    1 2.033348 1.000767 1.937660 2.215324 -1.221685 2.352914
    2 6.028145 0.000003 0.000002 -1.201255 -0.625287 -0.903259
    3 11.692553 0.000081 -0.000005 -0.198096 0.108461 -2.008902
    4 11.481672 -0.000089 -0.000025 1.620584 -0.474991 0.530330
    5 3.281559 0.002119 -1.379481 -0.010653 -0.130052 -0.336479
    6 1.324284 -0.000010 0.000005 0.000000 -0.110834 -0.840113
    7 0.819210 0.000000 0.000003 0.000001 -0.000003 -0.722525
    8 3.711852 0.109256 -0.568167 -0.108480 -0.112224 -0.540362
    9 1.609406 0.000006 -0.000007 -0.000002 -0.000090 -0.662140
    10 0.993191 -0.000006 0.000002 0.003393 0.007615 -0.780844
    11 3.786029 0.203223 0.243937 -0.113186 -0.067702 -0.451952
    12 1.684422 -0.000008 0.000009 0.000002 0.003608 -0.513347
    13 1.252151 -0.000006 0.000003 -0.005285 0.006243 -0.876084
    14 3.594221 0.299551 1.113710 -0.102445 -0.140377 -0.288776
    15 1.719435 0.000000 -0.000005 -0.000004 0.020402 -0.716404
    16 1.005925 -0.000006 0.000003 0.000005 0.000018 -0.803098
    17 0.298212 -0.634095 0.426700 -1.419909 -0.834921 -0.420635
    18 2.637464 0.000002 -0.000010 -0.000002 -0.053692 0.608599
    19 1.308566 -0.000001 -0.000004 -0.012846 -0.032048 0.462474
    20 2.033356 1.000772 -1.937610 -0.128177 0.172990 -2.038336
    21 6.028141 0.000000 -0.000002 -0.297881 1.048345 -2.013571
    22 11.692556 0.000000 -0.000002 0.128329 -0.143923 -2.050819
    23 11.481703 -0.000001 -0.000005 0.386988 -0.013143 1.182603
    24 2.914335 -0.027073 1.400148 -0.075542 -0.048313 -0.941227
    25 1.284180 0.000001 0.000001 0.000007 0.095136 -0.604946
    26 0.842650 0.000000 -0.000001 -0.098885 0.057637 -1.366356
    27 3.368063 0.007377 0.618550 0.035864 -0.077009 -1.016346
    28 1.609375 -0.000002 -0.000001 -0.000004 0.124901 -1.144888
    29 1.016602 -0.000001 0.000002 0.005990 -0.009220 -0.841138
    30 3.551622 0.023917 -0.200566 0.019416 -0.119628 -0.812055
    31 1.666992 0.000001 0.000000 -0.000006 0.145216 -1.293764
    32 1.242188 0.000000 0.000000 -0.000005 -0.000002 -0.886591
    33 3.449668 0.054213 -1.089087 0.053820 0.186137 -0.349740
    34 1.707031 -0.000001 -0.000002 0.000011 -0.008526 -0.322849
    35 0.998535 0.000000 0.000000 0.005618 -0.013549 -0.593079
    36 0.075534 -0.734842 -0.755818 1.279052 0.269143 -0.630177
    37 2.508557 -0.000006 -0.000004 -0.000002 -0.000001 0.359159
    38 1.292945 -0.042972 -0.335952 0.105001 0.186790 0.461843
    39 -3.673684 -13.594921 -8.097988 1.564163 0.980439 -3.208177
    40 1.011751 -8.445683 4.160769 1.326681 0.067630 -0.483713
    41 0.000000 2.996095 -1.358396 0.000000 0.000000 0.000000
    42 0.000000 2.746097 -5.042964 0.000000 0.000000 0.000000
    43 0.000001 4.265628 -4.203120 0.000000 0.000000 0.000000
  time 17
    0 0.000005 -1.663086 -9.445313 -1.570760 -1.391893 -1.570827
    1 2.033348 1.000767 1.937660 2.037187 -1.255490 2.521384
    2 6.028145 0.000003 0.000002 -1.160784 -0.555323 -0.890923
    3 11.692553 0.000081 -0.000005 -0.206569 0.104086 -2.088620
    4 11.481672 -0.000089 -0.000025 1.757546 -0.432556 0.456029
    5 3.281559 0.002119 -1.379481 0.000446 -0.145033 -0.434817
    6 1.324284 -0.000010 0.000005 0.000000 -0.114281 -0.895988
    7 0.819210 0.000000 0.000003 0.000001 -0.000003 -0.757040
    8 3.711852 0.109256 -0.568167 -0.097430 -0.122039 -0.635633
    9 1.609406 0.000006 -0.000007 -0.000002 0.002139 -0.761609
    10 0.993191 -0.000006 0.000002 0.003524 0.008598 -0.837573
    11 3.786029 0.203223 0.243937 -0.107086 -0.075156 -0.537129
    12 1.684422 -0.000008 0.000009 0.000002 0.006401 -0.617238
    13 1.252151 -0.000006 0.000003 -0.006436 0.007118 -0.935818
    14 3.594221 0.299551 1.109803 -0.095087 -0.132971 -0.398478
    15 1.719435 0.000000 -0.000005 -0.000004 0.020438 -0.822337
    16 1.005925 -0.000006 0.000003 0.000005 0.000018 -0.865273
    17 0.298212 -0.634095 0.426700 -1.423037 -0.800891 -0.428056
    18 2.633557 0.000002 -0.000010 -0.000002 -0.040880 0.672503
    19 1.308566 -0.000001 -0.000004 -0.015147 -0.036530 0.486198
    20 2.033356 1.000772 -1.937610 -0.128177 0.172990 -2.038336
    21 6.028141 0.000000 -0.000002 -0.298699 1.054149 -2.025290
    22 11.692556 0.000000 -0.000002 0.118394 -0.140915 -2.054039
    23 11.481703 -0.000001 -0.000005 0.406794 -0.029411 1.178368
    24 2.914335 -0.023166 1.400148 -0.075443 -0.048649 -0.941154
    25 1.284180 0.000001 0.000001 0.000007 0.095136 -0.604946
    26 0.838744 0.000000 -0.000001 -0.098885 0.057637 -1.366356
    27 3.368063 0.007377 0.622456 0.035972 -0.077320 -1.016274
    28 1.609375 -0.000002 -0.000001 -0.000004 0.124901 -1.144888
    29 1.016602 -0.000001 0.000002 0.005990 -0.009220 -0.841138
    30 3.551622 0.023917 -0.200566 0.019452 -0.119964 -0.811971
    31 1.666992 0.000001 0.000000 -0.000006 0.145216 -1.293764
    32 1.242188 0.000000 0.000000 -0.000005 -0.000002 -0.886591
    33 3.449668 0.054213 -1.085181 0.053708 0.185826 -0.349671
    34 1.707031 -0.000001 -0.000002 0.000011 -0.008526 -0.322849
    35 0.998535 0.000000 0.000000 0.005618 -0.013549 -0.593079
    36 0.075534 -0.738749 -0.755818 1.279028 0.268809 -0.630105
    37 2.508557 -0.000006 -0.000004 -0.000002 -0.000001 0.359159
    38 1.292945 -0.042972 -0.335952 0.105001 0.186778 0.461843
    39 -3.716654 -13.540231 -7.859699 1.587650 0.997232 -3.184502
    40 1.078159 -8.754287 3.461529 1.412494 0.093788 -0.507143
    41 0.000000 2.996095 -1.358396 0.000000 0.000000 0.000000
    42 0.000000 2.746097 -5.042964 0.000000 0.000000 0.000000
    43 0.000001 4.265628 -4.203120 0.000000 0.000000 0.000000
  time 18
    0 0.000005 -1.663086 -9.445313 -1.570760 -1.391893 -1.570827
    1 2.033348 1.000767 1.937660 1.864827 -1.275018 2.685845
    2 6.028145 0.000003 0.000002 -1.146100 -0.466232 -0.852766
    3 11.692553 0.000081 -0.000005 -0.214851 0.098945 -2.170338
    4 11.481672 -0.000089 -0.000025 1.888258 -0.374924 0.372298
    5 3.281559 0.002119 -1.379481 0.011614 -0.158587 -0.533644
    6 1.324284 -0.000010 0.000005 0.000000 -0.116063 -0.952009
    7 0.819210 0.000000 0.000003 0.000001 -0.000003 -0.791581
    8 3.711852 0.109256 -0.568167 -0.085481 -0.130572 -0.731069
    9 1.609406 0.000006 -0.000007 -0.000002 0.004776 -0.861123
    10 0.993191 -0.000006 0.000002 0.003620 0.009593 -0.894302
    11 3.786029 0.203223 0.247844 -0.100195 -0.082011 -0.622273
    12 1.684422 -0.000008 0.000009 0.000002 0.009145 -0.721161
    13 1.252151 -0.000006 0.000003 -0.007586 0.007933 -0.995460
    14 3.594221 0.299551 1.113710 -0.086644 -0.125157 -0.508099
    15 1.719435 0.000000 -0.000005 -0.000004 0.018257 -0.928337
    16 1.005925 -0.000006 0.000003 0.000005 0.000018 -0.927448
    17 0.298212 -0.634095 0.430606 -1.425398 -0.767099 -0.437163
    18 2.637464 0.000002 -0.000010 -0.000002 -0.024390 0.736143
    19 1.308566 -0.000001 -0.000004 -0.017568 -0.040964 0.509922
    20 2.033356 1.000772 -1.937610 -0.128177 0.172990 -2.038336
    21 6.028141 0.000000 -0.000002 -0.297944 1.061170 -2.036134
    22 11.692556 0.000000 -0.000002 0.109058 -0.137499 -2.057692
    23 11.481703 -0.000001 -0.000005 0.400639 -0.039978 1.176222
    24 2.914335 -0.023166 1.396242 -0.075691 -0.048721 -0.941561
    25 1.284180 0.000001 0.000001 0.000007 0.095136 -0.604946
    26 0.842650 0.000000 -0.000001 -0.098885 0.057637 -1.366356
    27 3.371969 0.007377 0.618550 0.035756 -0.077428 -1.016682
    28 1.609375 -0.000002 -0.000001 -0.000004 0.124901 -1.144888
    29 1.016602 -0.000001 0.000002 0.005990 -0.009220 -0.841138
    30 3.555528 0.023917 -0.204473 0.019224 -0.120024 -0.812366
    31 1.666992 0.000001 0.000000 -0.000006 0.145216 -1.293764
    32 1.242188 0.000000 0.000000 -0.000005 -0.000002 -0.886591
    33 3.453574 0.054213 -1.089087 0.053471 0.185886 -0.350136
    34 1.707031 -0.000001 -0.000002 0.000011 -0.008526 -0.322849
    35 0.998535 0.000000 0.000000 0.005618 -0.013549 -0.593079
    36 0.079440 -0.734842 -0.759724 1.278776 0.268809 -0.630585
    37 2.508557 -0.000006 -0.000004 -0.000002 -0.000001 0.359159
    38 1.292945 -0.042972 -0.335952 0.105001 0.186790 0.461843
    39 -3.779156 -13.477730 -7.617504 1.614319 0.987539 -3.162330
    40 1.144567 -9.055077 2.766195 1.497879 0.121871 -0.528338
    41 0.000000 2.996095 -1.358396 0.000000 0.000000 0.000000
    42 0.000000 2.746097 -5.042964 0.000000 0.000000 0.000000
    43 0.000001 4.265628 -4.203120 0.000000 0.000000 0.000000
  time 19
    0 0.000005 -1.663086 -9.445313 -1.570760 -1.391893 -1.570827
    1 2.033348 1.000767 1.937660 1.722547 -1.283666 2.822170
    2 6.028145 0.000003 0.000002 -1.156038 -0.353866 -0.792518
    3 11.692553 0.000081 -0.000005 -0.222569 0.093216 -2.250722
    4 11.481672 -0.000089 -0.000025 2.009562 -0.300615 0.274244
    5 3.281559 0.002119 -1.379481 0.022262 -0.170152 -0.628592
    6 1.324284 -0.000010 0.000005 0.000000 -0.116193 -1.006768
    7 0.819210 0.000000 0.000003 0.000001 -0.000003 -0.825626
    8 3.711852 0.109256 -0.568167 -0.073317 -0.137511 -0.822620
    9 1.609406 0.000006 -0.000007 -0.000002 0.007604 -0.958577
    10 0.993191 -0.000006 0.000002 0.003656 0.010551 -0.950187
    11 3.786029 0.203223 0.247844 -0.092920 -0.087944 -0.703649
    12 1.684422 -0.000008 0.000009 0.000002 0.011710 -0.823017
    13 1.252151 -0.000006 0.000003 -0.008821 0.008664 -1.054289
    14 3.594221 0.299551 1.113710 -0.077608 -0.117187 -0.613125
    15 1.719435 0.000000 -0.000005 -0.000004 0.013798 -1.032188
    16 1.005925 -0.000006 0.000003 0.000005 0.000018 -0.988647
    17 0.298212 -0.634095 0.430606 -1.427259 -0.734061 -0.447595
    18 2.637464 0.000002 -0.000010 -0.000002 -0.004831 0.798504
    19 1.308566 -0.000001 -0.000004 -0.020048 -0.045291 0.533322
    20 2.033356 1.000772 -1.937610 -0.128177 0.172990 -2.038336
    21 6.028141 0.000000 -0.000002 -0.296054 1.066770 -2.044255
    22 11.692556 0.000000 -0.000002 0.099997 -0.133640 -2.060169
    23 11.481703 -0.000001 -0.000005 0.378274 -0.046380 1.173472
    24 2.910429 -0.023166 1.400148 -0.075443 -0.048637 -0.941154
    25 1.284180 0.000001 0.000001 0.000007 0.095136 -0.604946
    26 0.838744 0.000000 -0.000001 -0.098885 0.057637 -1.366356
    27 3.368063 0.007377 0.622456 0.035972 -0.077320 -1.016274
    28 1.609375 -0.000002 -0.000001 -0.000004 0.124901 -1.144888
    29 1.016602 -0.000001 0.000002 0.005990 -0.009220 -0.841138
    30 3.551622 0.023917 -0.200566 0.019452 -0.119964 -0.811971
    31 1.666992 0.000001 0.000000 -0.000006 0.145216 -1.293764
    32 1.242188 0.000000 0.000000 -0.000005 -0.000002 -0.886591
    33 3.445761 0.054213 -1.085181 0.053708 0.185826 -0.349671
    34 1.707031 -0.000001 -0.000002 0.000011 -0.008526 -0.322849
    35 0.998535 0.000000 0.000000 0.005618 -0.013549 -0.593079
    36 0.075534 -0.738749 -0.755818 1.279028 0.268809 -0.630105
    37 2.508557 -0.000006 -0.000004 -0.000002 -0.000001 0.359159
    38 1.292945 -0.042972 -0.335952 0.105001 0.186790 0.461843
    39 -3.826033 -13.415228 -7.414373 1.635843 0.962937 -3.145982
    40 1.214882 -9.363680 2.066955 1.582997 0.151632 -0.546990
    41 0.000000 2.996095 -1.358396 0.000000 0.000000 0.000000
    42 0.000000 2.746097 -5.042964 0.000000 0.000000 0.000000
    43 0.000001 4.265628 -4.203120 0.000000 0.000000 0.000000
  time 20
    0 0.000005 -1.663086 -9.445313 -1.570760 -1.391893 -1.570827
    1 2.033348 1.000767 1.937660 1.629374 -1.286240 2.911550
    2 6.028145 0.000003 0.000002 -1.188093 -0.212996 -0.716969
    3 11.692553 0.000081 -0.000005 -0.229184 0.087476 -2.324068
    4 11.481672 -0.000089 -0.000025 2.116658 -0.208147 0.155242
    5 3.281559 0.002119 -1.379481 0.031835 -0.179392 -0.715505
    6 1.324284 -0.000010 0.000005 0.000000 -0.114962 -1.058812
    7 0.819210 0.000000 0.000003 0.000001 -0.000003 -0.858609
    8 3.711852 0.109256 -0.568167 -0.061692 -0.142688 -0.906016
    9 1.609406 0.000006 -0.000007 -0.000002 0.010469 -1.052048
    10 0.993191 -0.000006 0.000002 0.003632 0.011498 -1.004381
    11 3.786029 0.203223 0.247844 -0.085849 -0.092750 -0.777125
    12 1.684422 -0.000008 0.000009 0.000002 0.013963 -0.920706
    13 1.252151 -0.000006 0.000003 -0.010007 0.009311 -1.111307
    14 3.594221 0.299551 1.113710 -0.068616 -0.109409 -0.709451
    15 1.719435 0.000000 -0.000005 -0.000004 0.007447 -1.131840
    16 1.005925 -0.000006 0.000003 0.000005 0.000018 -1.048061
    17 0.298212 -0.634095 0.426700 -1.428699 -0.702325 -0.459015
    18 2.637464 0.000002 -0.000010 -0.000002 0.016933 0.858574
    19 1.308566 -0.000001 -0.000004 -0.022553 -0.049413 0.556014
    20 2.033356 1.000772 -1.937610 -0.128177 0.172990 -2.038336
    21 6.028141 0.000000 -0.000002 -0.292402 1.063239 -2.038614
    22 11.692556 0.000000 -0.000002 0.091213 -0.129553 -2.059860
    23 11.481703 -0.000001 -0.000005 0.345184 -0.051248 1.171217
    24 2.910429 -0.027073 1.400148 -0.075591 -0.048385 -0.941329
    25 1.284180 0.000001 0.000001 0.000007 0.095136 -0.604946
    26 0.842650 0.000000 -0.000001 -0.098885 0.057637 -1.366356
    27 3.368063 0.007377 0.618550 0.035816 -0.077081 -1.016454
    28 1.609375 -0.000002 -0.000001 -0.000004 0.124901 -1.144888
    29 1.016602 -0.000001 0.000002 0.005990 -0.009220 -0.841138
    30 3.551622 0.023917 -0.200566 0.019356 -0.119700 -0.812151
    31 1.666992 0.000001 0.000000 -0.000006 0.145216 -1.293764
    32 1.242188 0.000000 0.000000 -0.000005 -0.000002 -0.886591
    33 3.449668 0.054213 -1.089087 0.053733 0.186113 -0.349861
    34 1.707031 -0.000001 -0.000002 0.000011 -0.008526 -0.322849
    35 0.998535 0.000000 0.000000 0.005618 -0.013549 -0.593079
    36 0.075534 -0.734842 -0.755818 1.278968 0.269106 -0.630309
    37 2.508557 -0.000006 -0.000004 -0.000002 -0.000001 0.359159
    38 1.292945 -0.042972 -0.335952 0.105001 0.186790 0.461843
    39 -3.806501 -13.419134 -7.437811 1.631173 0.932962 -3.147673
    40 1.281290 -9.664471 1.367715 1.667954 0.182854 -0.563175
    41 0.000000 2.996095 -1.358396 0.000000 0.000000 0.000000
    42 0.000000 2.746097 -5.042964 0.000000 0.000000 0.000000
    43 0.000001 4.265628 -4.203120 0.000000 0.000000 0.000000
  time 21
    0 0.000005 -1.663086 -9.445313 -1.570760 -1.391893 -1.570827
    1 2.033348 1.000767 1.937660 1.596636 -1.286515 2.942963
    2 6.028145 0.000003 0.000002 -1.241457 -0.037546 -0.634534
    3 11.692553 0.000081 -0.000005 -0.234194 0.082526 -2.382893
    4 11.481672 -0.000089 -0.000025 2.202440 -0.096812 0.006043
    5 3.281559 0.002119 -1.379481 0.039882 -0.186224 -0.789954
    6 1.324284 -0.000010 0.000005 0.000000 -0.112977 -1.106829
    7 0.819210 0.000000 0.000003 0.000001 -0.000003 -0.890083
    8 3.711852 0.109256 -0.568167 -0.051457 -0.146236 -0.977046
    9 1.609406 0.000006 -0.000007 -0.000002 0.013141 -1.139475
    10 0.993191 -0.000006 0.000002 0.003572 0.012397 -1.056090
    11 3.786029 0.203223 0.243937 -0.079557 -0.096357 -0.838669
    12 1.684422 -0.000008 0.000009 0.000002 0.015881 -1.012223
    13 1.252151 -0.000006 0.000003 -0.011218 0.009850 -1.165670
    14 3.594221 0.299551 1.109803 -0.060332 -0.102111 -0.792672
    15 1.719435 0.000000 -0.000005 -0.000004 0.000016 -1.225178
    16 1.005925 -0.000006 0.000003 0.000005 0.000018 -1.104772
    17 0.298212 -0.634095 0.426700 -1.429946 -0.672388 -0.470989
    18 2.633557 0.000002 -0.000010 -0.000002 0.040016 0.915515
    19 1.308566 -0.000001 -0.000004 -0.025046 -0.053296 0.577705
    20 2.033356 1.000772 -1.937610 -0.128177 0.172990 -2.038336
    21 6.028141 0.000000 -0.000002 -0.290072 1.059587 -2.033606
    22 11.692556 0.000000 -0.000002 0.083135 -0.124963 -2.059612
    23 11.481703 -0.000001 -0.000005 0.319467 -0.055940 1.168082
    24 2.910429 -0.023166 1.400148 -0.075294 -0.048828 -0.940907
    25 1.284180 0.000001 0.000001 0.000007 0.095136 -0.604946
    26 0.838744 0.000000 -0.000001 -0.098885 0.057637 -1.366356
    27 3.368063 0.007377 0.622456 0.036151 -0.077500 -1.016047
    28 1.609375 -0.000002 -0.000001 -0.000004 0.124901 -1.144888
    29 1.016602 -0.000001 0.000002 0.005990 -0.009220 -0.841138
    30 3.551622 0.027823 -0.200566 0.019583 -0.120179 -0.811755
    31 1.666992 0.000001 0.000000 -0.000006 0.145216 -1.293764
    32 1.242188 0.000000 0.000000 -0.000005 -0.000002 -0.886591
    33 3.449668 0.054213 -1.085181 0.053733 0.185574 -0.349430
    34 1.707031 -0.000001 -0.000002 0.000011 -0.008526 -0.322849
    35 0.998535 0.000000 0.000000 0.005618 -0.013549 -0.593079
    36 0.075534 -0.738749 -0.755818 1.279124 0.268599 -0.629830
    37 2.508557 -0.000006 -0.000004 -0.000002 -0.000001 0.359147
    38 1.292945 -0.042972 -0.335952 0.105001 0.186790 0.461843
    39 -3.779156 -13.419134 -7.453437 1.626976 0.910335 -3.147767
    40 1.351605 -9.973074 0.672381 1.753018 0.215317 -0.576663
    41 0.000000 2.996095 -1.358396 0.000000 0.000000 0.000000
    42 0.000000 2.746097 -5.042964 0.000000 0.000000 0.000000
    43 0.000001 4.265628 -4.203120 0.000000 0.000000 0.000000
end
