// Created by Crowbar++ 0.74
version 1
nodes
  0 "ValveBiped.Bip01_Spine4" -1
  1 "ValveBiped.Bip01_L_Clavicle" 0
  2 "ValveBiped.Bip01_L_UpperArm" 1
  3 "ValveBiped.Bip01_L_Forearm" 2
  4 "ValveBiped.Bip01_L_Hand" 3
  5 "ValveBiped.Bip01_L_Finger4" 4
  6 "ValveBiped.Bip01_L_Finger41" 5
  7 "ValveBiped.Bip01_L_Finger42" 6
  8 "ValveBiped.Bip01_L_Finger3" 4
  9 "ValveBiped.Bip01_L_Finger31" 8
  10 "ValveBiped.Bip01_L_Finger32" 9
  11 "ValveBiped.Bip01_L_Finger2" 4
  12 "ValveBiped.Bip01_L_Finger21" 11
  13 "ValveBiped.Bip01_L_Finger22" 12
  14 "ValveBiped.Bip01_L_Finger1" 4
  15 "ValveBiped.Bip01_L_Finger11" 14
  16 "ValveBiped.Bip01_L_Finger12" 15
  17 "ValveBiped.Bip01_L_Finger0" 4
  18 "ValveBiped.Bip01_L_Finger01" 17
  19 "ValveBiped.Bip01_L_Finger02" 18
  20 "ValveBiped.Bip01_L_Ulna" 3
  21 "ValveBiped.Bip01_L_Wrist" 3
  22 "ValveBiped.Bip01_R_Clavicle" 0
  23 "ValveBiped.Bip01_R_UpperArm" 22
  24 "ValveBiped.Bip01_R_Forearm" 23
  25 "ValveBiped.Bip01_R_Hand" 24
  26 "ValveBiped.Bip01_R_Finger4" 25
  27 "ValveBiped.Bip01_R_Finger41" 26
  28 "ValveBiped.Bip01_R_Finger42" 27
  29 "ValveBiped.Bip01_R_Finger3" 25
  30 "ValveBiped.Bip01_R_Finger31" 29
  31 "ValveBiped.Bip01_R_Finger32" 30
  32 "ValveBiped.Bip01_R_Finger2" 25
  33 "ValveBiped.Bip01_R_Finger21" 32
  34 "ValveBiped.Bip01_R_Finger22" 33
  35 "ValveBiped.Bip01_R_Finger1" 25
  36 "ValveBiped.Bip01_R_Finger11" 35
  37 "ValveBiped.Bip01_R_Finger12" 36
  38 "ValveBiped.Bip01_R_Finger0" 25
  39 "ValveBiped.Bip01_R_Finger01" 38
  40 "ValveBiped.Bip01_R_Finger02" 39
  41 "ValveBiped.Bip01_R_Wrist" 24
end
skeleton
  time 0
    0 0.000000 -0.000006 0.000000 -1.570781 -1.391896 -1.570809
    1 -0.007130 -3.427927 3.666488 1.596636 -1.286515 2.942963
    2 6.028141 0.000002 0.000004 -1.396883 -0.673811 -1.163788
    3 11.692554 0.000081 -0.000005 -0.000034 0.000034 -1.324444
    4 11.481044 -0.000314 -0.000026 2.543662 -0.272481 -0.249620
    5 3.859704 -0.142418 -1.191975 -0.527412 0.076566 -1.851148
    6 1.312564 -0.000015 0.000004 -0.305209 0.247795 -1.370046
    7 0.729366 -0.000005 0.000001 -0.371385 0.124168 -1.159679
    8 3.942332 0.046754 -0.431442 -0.206058 0.038499 -1.791856
    9 1.539094 0.000008 -0.000005 -0.101097 0.093292 -1.223380
    10 1.196325 -0.000005 0.000003 -0.134941 0.026215 -1.403449
    11 3.760302 0.047151 0.406523 0.069865 0.098022 -1.574084
    12 1.719580 -0.000010 0.000008 0.029397 -0.041950 -1.346587
    13 1.209185 -0.000007 0.000006 0.046678 -0.028024 -1.196524
    14 3.736467 -0.044027 1.307549 0.390895 0.147966 -1.525764
    15 1.719433 0.000000 -0.000006 0.213979 -0.159964 -1.445844
    16 1.099671 -0.000003 0.000002 0.251512 -0.116961 -1.205904
    17 1.129154 -0.382525 1.323140 -1.433613 -0.084569 -0.935073
    18 1.789781 0.000000 -0.000006 0.032723 0.214905 0.673180
    19 1.206999 0.000002 0.000000 -0.020081 0.009625 1.442749
    20 5.740854 0.000000 -0.000004 0.424917 0.000000 0.000007
    21 11.481708 0.000006 -0.000007 0.606730 0.000000 -0.000007
    22 -0.052494 -4.826363 -3.490045 -1.668474 1.286518 2.942953
    23 6.028141 0.000001 -0.000004 1.443078 0.756132 -1.258364
    24 11.692554 0.000000 0.000002 -0.000002 0.000000 -1.319801
    25 11.480655 -0.000290 -0.000002 -2.586077 0.088469 -0.221315
    26 3.858962 -0.145456 1.102058 0.286037 -0.145973 -1.806702
    27 1.312561 -0.000004 0.000000 0.435350 -0.123146 -1.534681
    28 0.729366 0.000001 -0.000002 0.447726 0.059181 -1.298534
    29 3.942293 0.050349 0.431044 0.291485 -0.127848 -1.751651
    30 1.539099 0.000000 0.000002 0.232606 -0.069764 -1.427277
    31 1.196322 -0.000002 -0.000001 0.231245 0.074201 -1.593497
    32 3.886489 -0.036605 -0.333118 0.029981 -0.143970 -1.528924
    33 1.719582 0.000002 0.000006 0.086981 -0.005236 -1.571495
    34 1.209187 0.000003 0.000007 0.076289 0.024240 -1.420556
    35 3.874262 -0.142787 -1.066241 -0.180395 -0.179857 -1.442767
    36 1.719428 0.000006 0.000011 -0.106408 0.064831 -1.669043
    37 1.099662 0.000004 0.000008 -0.108984 0.067962 -1.078666
    38 1.001908 -0.270364 -1.355073 1.380641 -0.087869 -0.893601
    39 1.789783 -0.000008 -0.000006 0.039818 -0.058237 0.171533
    40 1.207003 -0.000002 -0.000006 0.003375 -0.011581 1.420049
    41 11.480655 -0.000290 -0.000002 -0.720462 0.000000 0.000014
  time 1
    0 0.000000 -0.000006 0.000000 -1.570781 -1.391896 -1.570809
    1 0.008496 -3.318549 3.701645 1.596636 -1.286515 2.942963
    2 6.028141 0.000002 0.000004 -1.326686 -0.642989 -1.219269
    3 11.692554 0.000081 -0.000005 -0.000034 0.000034 -1.352992
    4 11.481044 -0.000314 -0.000026 2.969530 -0.223478 -0.688761
    5 3.859704 -0.142418 -1.191975 -0.527232 0.111153 -1.672278
    6 1.312564 -0.000015 0.000004 -0.242350 0.236877 -1.183665
    7 0.729366 -0.000005 0.000001 -0.309880 0.135262 -0.980432
    8 3.942332 0.046754 -0.431442 -0.201037 0.054654 -1.606301
    9 1.539094 0.000008 -0.000005 -0.079585 0.088522 -1.036640
    10 1.196325 -0.000005 0.000003 -0.114196 0.033394 -1.218049
    11 3.760302 0.047151 0.406523 0.080507 0.085858 -1.386301
    12 1.719580 -0.000010 0.000008 0.021727 -0.037684 -1.159992
    13 1.209185 -0.000007 0.000006 0.037845 -0.027449 -1.009970
    14 3.736467 -0.044027 1.307549 0.405432 0.104738 -1.339172
    15 1.719433 0.000000 -0.000006 0.170679 -0.156369 -1.242349
    16 1.099671 -0.000003 0.000002 0.207145 -0.120341 -1.020317
    17 1.129154 -0.382525 1.323140 -1.394500 -0.175031 -0.913920
    18 1.789781 0.000000 -0.000006 0.018389 0.185723 0.571319
    19 1.206999 0.000002 0.000000 -0.018283 0.006797 1.259227
    20 5.740854 0.000000 -0.000004 0.632020 0.000000 0.000007
    21 11.481708 0.000006 -0.000007 0.902536 0.000000 -0.000007
    22 -0.036869 -4.716985 -3.454888 -1.668474 1.286518 2.942953
    23 6.028141 0.000001 -0.000004 1.351563 0.725903 -1.324459
    24 11.692554 0.000000 0.000002 -0.000002 0.000000 -1.306095
    25 11.480655 -0.000290 -0.000002 -2.913393 0.174744 -0.686802
    26 3.858962 -0.145456 1.102058 0.313422 -0.151594 -1.635597
    27 1.312561 -0.000004 0.000000 0.365785 -0.143747 -1.335935
    28 0.729366 0.000001 -0.000002 0.391596 0.014112 -1.111100
    29 3.942293 0.050349 0.431044 0.267324 -0.137747 -1.575591
    30 1.539099 0.000000 0.000002 0.195334 -0.081617 -1.218043
    31 1.196322 -0.000002 -0.000001 0.207024 0.043587 -1.388499
    32 3.886489 -0.036605 -0.333118 0.002584 -0.133735 -1.350883
    33 1.719582 0.000002 0.000006 0.075488 -0.013769 -1.359449
    34 1.209187 0.000003 0.000007 0.068715 0.013322 -1.208677
    35 3.874262 -0.142787 -1.066241 -0.224738 -0.149632 -1.268130
    36 1.719428 0.000006 0.000011 -0.085866 0.066005 -1.443083
    37 1.099662 0.000004 0.000008 -0.088526 0.065146 -0.916995
    38 1.001908 -0.270364 -1.355073 1.352801 0.016775 -0.870962
    39 1.789783 -0.000008 -0.000006 0.034509 -0.049261 0.143297
    40 1.207003 -0.000002 -0.000006 0.003926 -0.009747 1.230325
    41 11.480655 -0.000290 -0.000002 -0.868360 0.000000 0.000014
  time 2
    0 0.000000 -0.000006 0.000000 -1.570781 -1.391896 -1.570809
    1 0.051466 -3.025571 3.803211 1.596636 -1.286515 2.942963
    2 6.028141 0.000002 0.000004 -1.244711 -0.608208 -1.287394
    3 11.692554 0.000081 -0.000005 -0.000034 0.000034 -1.393643
    4 11.481044 -0.000314 -0.000026 3.343619 0.014246 -1.032889
    5 3.859704 -0.142418 -1.191975 -0.503035 0.187328 -1.253032
    6 1.312564 -0.000015 0.000004 -0.112832 0.170267 -0.758940
    7 0.729366 -0.000005 0.000001 -0.166484 0.118379 -0.563769
    8 3.942332 0.046754 -0.431442 -0.178518 0.086737 -1.173109
    9 1.539094 0.000008 -0.000005 -0.035613 0.062851 -0.602894
    10 1.196325 -0.000005 0.000003 -0.063369 0.034640 -0.785896
    11 3.760302 0.047151 0.406523 0.095260 0.051486 -0.949740
    12 1.719580 -0.000010 0.000008 0.007849 -0.022835 -0.725519
    13 1.209185 -0.000007 0.000006 0.018790 -0.019911 -0.575535
    14 3.736467 -0.044027 1.307549 0.406775 -0.001015 -0.907206
    15 1.719433 0.000000 -0.000006 0.078421 -0.115118 -0.766666
    16 1.099671 -0.000003 0.000002 0.107026 -0.096839 -0.589215
    17 1.129154 -0.382525 1.323140 -1.310959 -0.379957 -0.877211
    18 1.789781 0.000000 -0.000006 -0.002188 0.116020 0.346531
    19 1.206999 0.000002 0.000000 -0.012303 0.001787 0.833027
    20 5.740854 0.000000 -0.000004 1.127299 0.000000 0.000007
    21 11.481708 0.000006 -0.000007 1.610134 0.000000 -0.000007
    22 0.006102 -4.424007 -3.353322 -1.668474 1.286518 2.942953
    23 6.028141 0.000001 -0.000004 1.268495 0.685082 -1.379857
    24 11.692554 0.000000 0.000002 -0.000002 0.000000 -1.303298
    25 11.480655 -0.000290 -0.000002 -3.248412 0.090434 -1.142885
    26 3.858962 -0.145456 1.102058 0.370433 -0.181483 -1.239429
    27 1.312561 -0.000004 0.000000 0.195958 -0.136209 -0.865046
    28 0.729366 0.000001 -0.000002 0.233947 -0.044993 -0.661512
    29 3.942293 0.050349 0.431044 0.207449 -0.143704 -1.167451
    30 1.539099 0.000000 0.000002 0.103484 -0.077578 -0.721528
    31 1.196322 -0.000002 -0.000001 0.129160 -0.004776 -0.900814
    32 3.886489 -0.036605 -0.333118 -0.050711 -0.093107 -0.941559
    33 1.719582 0.000002 0.000006 0.043117 -0.023117 -0.855762
    34 1.209187 0.000003 0.000007 0.043032 -0.004499 -0.705465
    35 3.874262 -0.142787 -1.066241 -0.302134 -0.054570 -0.872770
    36 1.719428 0.000006 0.000011 -0.039582 0.050378 -0.901293
    37 1.099662 0.000004 0.000008 -0.045178 0.046641 -0.546703
    38 1.001908 -0.270364 -1.355073 1.297516 0.254696 -0.829795
    39 1.789783 -0.000008 -0.000006 0.021877 -0.029965 0.080941
    40 1.207003 -0.000002 -0.000006 0.003830 -0.005277 0.787784
    41 11.480655 -0.000290 -0.000002 -1.197223 0.000000 0.000014
  time 3
    0 0.000000 -0.000006 0.000000 -1.570781 -1.391896 -1.570809
    1 0.110061 -2.627122 3.936027 1.596636 -1.286515 2.942963
    2 6.028141 0.000002 0.000004 -1.226853 -0.639151 -1.320513
    3 11.692554 0.000081 -0.000005 -0.000034 0.000034 -1.365890
    4 11.481044 -0.000314 -0.000026 3.354673 0.012566 -0.958743
    5 3.859704 -0.142418 -1.191975 -0.448565 0.246987 -0.825042
    6 1.312564 -0.000015 0.000004 -0.023092 0.057791 -0.349632
    7 0.729366 -0.000005 0.000001 -0.042360 0.045600 -0.154502
    8 3.942332 0.046754 -0.431442 -0.144445 0.106392 -0.737566
    9 1.539094 0.000008 -0.000005 -0.006503 0.021073 -0.170623
    10 1.196325 -0.000005 0.000003 -0.016629 0.014470 -0.353700
    11 3.760302 0.047151 0.406523 0.094074 0.014070 -0.513616
    12 1.719580 -0.000010 0.000008 0.001497 -0.003492 -0.290784
    13 1.209185 -0.000007 0.000006 0.004660 -0.005026 -0.140707
    14 3.736467 -0.044027 1.307549 0.363486 -0.097682 -0.472502
    15 1.719433 0.000000 -0.000006 0.015490 -0.036655 -0.297928
    16 1.099671 -0.000003 0.000002 0.025962 -0.033944 -0.163053
    17 1.129154 -0.382525 1.323140 -1.228243 -0.588004 -0.853949
    18 1.789781 0.000000 -0.000006 -0.006443 0.042854 0.124328
    19 1.206999 0.000002 0.000000 -0.004705 -0.000298 0.406651
    20 5.740854 0.000000 -0.000004 1.066975 0.000000 0.000007
    21 11.481708 0.000006 -0.000007 1.523958 0.000000 -0.000007
    22 0.064697 -4.025557 -3.220506 -1.668474 1.286518 2.942953
    23 6.028141 0.000001 -0.000004 1.278983 0.707547 -1.374726
    24 11.692554 0.000000 0.000002 -0.000002 0.000000 -1.270172
    25 11.480655 -0.000290 -0.000002 -3.229823 0.100960 -1.094202
    26 3.858962 -0.145456 1.102058 0.411683 -0.230812 -0.841817
    27 1.312561 -0.000004 0.000000 0.048321 -0.053635 -0.403333
    28 0.729366 0.000001 -0.000002 0.066022 -0.029173 -0.207585
    29 3.942293 0.050349 0.431044 0.150091 -0.125619 -0.759619
    30 1.539099 0.000000 0.000002 0.024625 -0.030419 -0.227472
    31 1.196322 -0.000002 -0.000001 0.037574 -0.010892 -0.410286
    32 3.886489 -0.036605 -0.333118 -0.083321 -0.034754 -0.535712
    33 1.719582 0.000002 0.000006 0.010208 -0.015651 -0.351462
    34 1.209187 0.000003 0.000007 0.011896 -0.007711 -0.201405
    35 3.874262 -0.142787 -1.066241 -0.337105 0.062795 -0.485010
    36 1.719428 0.000006 0.000011 -0.007979 0.013106 -0.360557
    37 1.099662 0.000004 0.000008 -0.011441 0.013708 -0.177450
    38 1.001908 -0.270364 -1.355073 1.247588 0.498312 -0.799570
    39 1.789783 -0.000008 -0.000006 0.008011 -0.011305 0.018382
    40 1.207003 -0.000002 -0.000006 0.001805 -0.001274 0.344738
    41 11.480655 -0.000290 -0.000002 -1.151722 0.000000 0.000014
  time 4
    0 0.000000 -0.000006 0.000000 -1.570781 -1.391896 -1.570809
    1 0.172563 -2.193515 4.084469 1.596636 -1.286515 2.942963
    2 6.028141 0.000002 0.000004 -1.217164 -0.730469 -1.359859
    3 11.692554 0.000081 -0.000005 -0.000022 0.000034 -1.228410
    4 11.481044 -0.000314 -0.000026 3.345291 -0.009681 -0.846112
    5 3.859704 -0.142418 -1.191975 -0.417825 0.264520 -0.638149
    6 1.312564 -0.000015 0.000004 -0.000009 0.000002 -0.177449
    7 0.729366 -0.000005 0.000001 -0.000006 0.000009 0.017972
    8 3.942332 0.046754 -0.431442 -0.127799 0.109951 -0.550184
    9 1.539094 0.000008 -0.000005 -0.000007 0.000016 0.014469
    10 1.196325 -0.000005 0.000003 -0.000006 0.000005 -0.168560
    11 3.760302 0.047151 0.406523 0.088609 -0.001150 -0.326575
    12 1.719580 -0.000010 0.000008 0.001437 0.005317 -0.104233
    13 1.209185 -0.000007 0.000006 0.000813 0.002980 0.045846
    14 3.736467 -0.044027 1.307549 0.332758 -0.131563 -0.283927
    15 1.719433 0.000000 -0.000006 0.001061 0.003937 -0.100771
    16 1.099671 -0.000003 0.000002 0.000687 0.002501 0.017937
    17 1.129154 -0.382525 1.323140 -1.192927 -0.683765 -0.842360
    18 1.789781 0.000000 -0.000006 -0.002643 0.008770 0.025396
    19 1.206999 0.000002 0.000000 -0.001121 -0.000143 0.222952
    20 5.740854 0.000000 -0.000004 0.964131 0.000000 0.000007
    21 11.481708 0.000006 -0.000007 1.377037 0.000000 -0.000007
    22 0.127199 -3.591950 -3.072064 -1.668474 1.286518 2.942953
    23 6.028141 0.000001 -0.000004 1.286965 0.809147 -1.384031
    24 11.692554 0.000000 0.000002 -0.000002 0.000000 -1.102064
    25 11.480655 -0.000290 -0.000002 -3.186114 0.117868 -1.014103
    26 3.858962 -0.145456 1.102058 0.422889 -0.256243 -0.669078
    27 1.312561 -0.000004 0.000000 0.000004 -0.000004 -0.212240
    28 0.729366 0.000001 -0.000002 0.000014 0.000013 -0.016874
    29 3.942293 0.050349 0.431044 0.128519 -0.110914 -0.583954
    30 1.539099 0.000000 0.000002 0.000009 -0.000014 -0.020370
    31 1.196322 -0.000002 -0.000001 0.000002 0.000010 -0.203362
    32 3.886489 -0.036605 -0.333118 -0.089625 -0.006387 -0.361108
    33 1.719582 0.000002 0.000006 -0.001789 -0.007765 -0.139039
    34 1.209187 0.000003 0.000007 -0.001000 -0.004343 0.011039
    35 3.874262 -0.142787 -1.066241 -0.337777 0.116019 -0.317484
    36 1.719428 0.000006 0.000011 -0.001495 -0.006429 -0.135552
    37 1.099662 0.000004 0.000008 -0.000955 -0.004101 -0.016890
    38 1.001908 -0.270364 -1.355073 1.225201 0.616614 -0.789934
    39 1.789783 -0.000008 -0.000006 0.001156 -0.002700 -0.010105
    40 1.207003 -0.000002 -0.000006 0.000379 0.000080 0.154788
    41 11.480655 -0.000290 -0.000002 -1.095591 0.000000 0.000014
  time 5
    0 0.000000 -0.000006 0.000000 -1.570781 -1.391896 -1.570809
    1 0.231159 -1.795065 4.221192 1.596636 -1.286515 2.942963
    2 6.028141 0.000002 0.000004 -1.200636 -0.852700 -1.407131
    3 11.692554 0.000081 -0.000005 -0.000022 0.000034 -1.022862
    4 11.481044 -0.000314 -0.000026 3.324929 -0.034528 -0.739080
    5 3.859704 -0.142418 -1.191975 -0.419443 0.261836 -0.644346
    6 1.312564 -0.000015 0.000004 -0.000009 0.000002 -0.184044
    7 0.729366 -0.000005 0.000001 -0.000006 0.000009 0.011366
    8 3.942332 0.046754 -0.431442 -0.128518 0.109112 -0.556797
    9 1.539094 0.000008 -0.000005 -0.000007 0.000016 0.007874
    10 1.196325 -0.000005 0.000003 -0.000006 0.000005 -0.175141
    11 3.760302 0.047151 0.406523 0.088621 -0.000563 -0.333168
    12 1.719580 -0.000010 0.000008 0.001401 0.005329 -0.110805
    13 1.209185 -0.000007 0.000006 0.000789 0.002980 0.039274
    14 3.736467 -0.044027 1.307549 0.333573 -0.129405 -0.290207
    15 1.719433 0.000000 -0.000006 0.001037 0.003937 -0.107310
    16 1.099671 -0.000003 0.000002 0.000663 0.002501 0.011322
    17 1.129154 -0.382525 1.323140 -1.199036 -0.686741 -0.831023
    18 1.789781 0.000000 -0.000006 -0.001960 0.006589 0.030357
    19 1.206999 0.000002 0.000000 -0.000846 -0.000107 0.226266
    20 5.740854 0.000000 -0.000004 0.896302 0.000000 0.000007
    21 11.481708 0.000006 -0.000007 1.280138 0.000000 -0.000007
    22 0.185795 -3.193501 -2.935341 -1.668474 1.286518 2.942953
    23 6.028141 0.000001 -0.000004 1.275363 0.961280 -1.413513
    24 11.692554 0.000000 0.000002 -0.000002 0.000000 -0.834657
    25 11.480655 -0.000290 -0.000002 -3.135204 0.125709 -0.950732
    26 3.858962 -0.145456 1.102058 0.424219 -0.253930 -0.674360
    27 1.312561 -0.000004 0.000000 0.000004 -0.000004 -0.217882
    28 0.729366 0.000001 -0.000002 0.000014 0.000013 -0.022491
    29 3.942293 0.050349 0.431044 0.129130 -0.110195 -0.589583
    30 1.539099 0.000000 0.000002 0.000009 -0.000014 -0.025982
    31 1.196322 -0.000002 -0.000001 0.000002 0.000010 -0.208957
    32 3.886489 -0.036605 -0.333118 -0.089589 -0.006890 -0.366694
    33 1.719582 0.000002 0.000006 -0.001753 -0.007777 -0.144650
    34 1.209187 0.000003 0.000007 -0.000976 -0.004355 0.005431
    35 3.874262 -0.142787 -1.066241 -0.338388 0.114161 -0.322788
    36 1.719428 0.000006 0.000011 -0.001459 -0.006441 -0.141178
    37 1.099662 0.000004 0.000008 -0.000931 -0.004101 -0.022517
    38 1.001908 -0.270364 -1.355073 1.224302 0.630798 -0.790797
    39 1.789783 -0.000008 -0.000006 0.000856 -0.002029 -0.004557
    40 1.207003 -0.000002 -0.000006 0.000283 0.000068 0.159901
    41 11.480655 -0.000290 -0.000002 -1.061829 0.000000 0.000014
  time 6
    0 0.000000 -0.000006 0.000000 -1.570781 -1.391896 -1.570809
    1 0.274129 -1.502087 4.318852 1.596636 -1.286515 2.942963
    2 6.028141 0.000002 0.000004 -1.167390 -0.972876 -1.464027
    3 11.692554 0.000081 -0.000005 -0.000022 0.000034 -0.804660
    4 11.481044 -0.000314 -0.000026 3.304348 -0.050241 -0.676584
    5 3.859704 -0.142418 -1.191975 -0.423530 0.254897 -0.660391
    6 1.312564 -0.000015 0.000004 -0.000009 0.000002 -0.201015
    7 0.729366 -0.000005 0.000001 -0.000006 0.000009 -0.005587
    8 3.942332 0.046754 -0.431442 -0.130339 0.106919 -0.573721
    9 1.539094 0.000008 -0.000005 -0.000007 0.000016 -0.009091
    10 1.196325 -0.000005 0.000003 -0.000006 0.000005 -0.192113
    11 3.760302 0.047151 0.406523 0.088621 0.000935 -0.350064
    12 1.719580 -0.000010 0.000008 0.001305 0.005353 -0.127780
    13 1.209185 -0.000007 0.000006 0.000741 0.002992 0.022298
    14 3.736467 -0.044027 1.307549 0.335610 -0.123833 -0.306354
    15 1.719433 0.000000 -0.000006 0.000965 0.003961 -0.124294
    16 1.099671 -0.000003 0.000002 0.000627 0.002513 -0.005648
    17 1.129154 -0.382525 1.323140 -1.204336 -0.688338 -0.821315
    18 1.789781 0.000000 -0.000006 -0.001397 0.004815 0.043438
    19 1.206999 0.000002 0.000000 -0.000618 -0.000071 0.235234
    20 5.740854 0.000000 -0.000004 0.863174 0.000000 0.000007
    21 11.481708 0.000006 -0.000007 1.232812 0.000000 -0.000007
    22 0.228765 -2.900523 -2.837681 -1.668474 1.286518 2.942953
    23 6.028141 0.000001 -0.000004 1.213735 1.137932 -1.489609
    24 11.692554 0.000000 0.000002 -0.000002 0.000000 -0.502436
    25 11.480655 -0.000290 -0.000002 -3.094844 0.122772 -0.954019
    26 3.858962 -0.145456 1.102058 0.427647 -0.247878 -0.688153
    27 1.312561 -0.000004 0.000000 0.000004 -0.000004 -0.232551
    28 0.729366 0.000001 -0.000002 0.000014 0.000013 -0.037128
    29 3.942293 0.050349 0.431044 0.130736 -0.108289 -0.604181
    30 1.539099 0.000000 0.000002 0.000009 -0.000014 -0.040635
    31 1.196322 -0.000002 -0.000001 0.000002 0.000010 -0.223633
    32 3.886489 -0.036605 -0.333118 -0.089481 -0.008197 -0.381303
    33 1.719582 0.000002 0.000006 -0.001633 -0.007801 -0.159315
    34 1.209187 0.000003 0.000007 -0.000916 -0.004367 -0.009225
    35 3.874262 -0.142787 -1.066241 -0.339934 0.109271 -0.336746
    36 1.719428 0.000006 0.000011 -0.001363 -0.006465 -0.155847
    37 1.099662 0.000004 0.000008 -0.000871 -0.004113 -0.037175
    38 1.001908 -0.270364 -1.355073 1.223547 0.642399 -0.791516
    39 1.789783 -0.000008 -0.000006 0.000616 -0.001490 0.010664
    40 1.207003 -0.000002 -0.000006 0.000211 0.000056 0.173328
    41 11.480655 -0.000290 -0.000002 -1.043073 0.000000 0.000014
  time 7
    0 0.000000 -0.000006 0.000000 -1.570781 -1.391896 -1.570809
    1 0.289754 -1.388803 4.357915 1.596636 -1.286515 2.942963
    2 6.028141 0.000002 0.000004 -1.140698 -1.032012 -1.500449
    3 11.692554 0.000081 -0.000005 -0.000022 0.000034 -0.691570
    4 11.481044 -0.000314 -0.000026 3.293294 -0.053784 -0.662611
    5 3.859704 -0.142418 -1.191975 -0.429354 0.244530 -0.683906
    6 1.312564 -0.000015 0.000004 -0.000009 0.000002 -0.226050
    7 0.729366 -0.000005 0.000001 -0.000006 0.000009 -0.030642
    8 3.942332 0.046754 -0.431442 -0.132964 0.103623 -0.598694
    9 1.539094 0.000008 -0.000005 -0.000007 0.000016 -0.034126
    10 1.196325 -0.000005 0.000003 -0.000006 0.000005 -0.217139
    11 3.760302 0.047151 0.406523 0.088561 0.003152 -0.374994
    12 1.719580 -0.000010 0.000008 0.001173 0.005377 -0.152807
    13 1.209185 -0.000007 0.000006 0.000657 0.003016 -0.002729
    14 3.736467 -0.044027 1.307549 0.338450 -0.115551 -0.330197
    15 1.719433 0.000000 -0.000006 0.000869 0.003985 -0.149338
    16 1.099671 -0.000003 0.000002 0.000567 0.002525 -0.030693
    17 1.129154 -0.382525 1.323140 -1.208855 -0.688797 -0.813130
    18 1.789781 0.000000 -0.000006 -0.000954 0.003389 0.062819
    19 1.206999 0.000002 0.000000 -0.000438 -0.000047 0.248576
    20 5.740854 0.000000 -0.000004 0.852759 0.000000 0.000007
    21 11.481708 0.000006 -0.000007 1.217934 0.000000 -0.000007
    22 0.244390 -2.787238 -2.798618 -1.668474 1.286518 2.942953
    23 6.028141 0.000001 -0.000004 1.107742 1.258022 -1.603884
    24 11.692554 0.000000 0.000002 -0.000002 0.000000 -0.261122
    25 11.480655 -0.000290 -0.000002 -3.077679 0.118714 -1.006738
    26 3.858962 -0.145456 1.102058 0.432537 -0.238818 -0.708520
    27 1.312561 -0.000004 0.000000 0.000004 -0.000004 -0.254236
    28 0.729366 0.000001 -0.000002 0.000014 0.000013 -0.058871
    29 3.942293 0.050349 0.431044 0.133037 -0.105437 -0.625859
    30 1.539099 0.000000 0.000002 0.000009 -0.000014 -0.062338
    31 1.196322 -0.000002 -0.000001 0.000002 0.000010 -0.245325
    32 3.886489 -0.036605 -0.333118 -0.089290 -0.010138 -0.402942
    33 1.719582 0.000002 0.000006 -0.001465 -0.007825 -0.181005
    34 1.209187 0.000003 0.000007 -0.000820 -0.004391 -0.030950
    35 3.874262 -0.142787 -1.066241 -0.342103 0.102009 -0.357324
    36 1.719428 0.000006 0.000011 -0.001219 -0.006489 -0.177549
    37 1.099662 0.000004 0.000008 -0.000775 -0.004137 -0.058894
    38 1.001908 -0.270364 -1.355073 1.222924 0.651680 -0.792116
    39 1.789783 -0.000008 -0.000006 0.000425 -0.001059 0.033423
    40 1.207003 -0.000002 -0.000006 0.000151 0.000044 0.193160
    41 11.480655 -0.000290 -0.000002 -1.035501 0.000000 0.000014
  time 8
    0 0.000000 -0.000006 0.000000 -1.570781 -1.391896 -1.570809
    1 0.285848 -1.404428 4.354009 1.596636 -1.286515 2.942963
    2 6.028141 0.000002 0.000004 -1.140413 -1.028114 -1.500071
    3 11.692554 0.000081 -0.000005 -0.000022 0.000034 -0.696552
    4 11.481044 -0.000314 -0.000026 3.296494 -0.046813 -0.690372
    5 3.859704 -0.142418 -1.191975 -0.436149 0.231599 -0.712728
    6 1.312564 -0.000015 0.000004 -0.000009 0.000002 -0.256925
    7 0.729366 -0.000005 0.000001 -0.000006 0.000009 -0.061513
    8 3.942332 0.046754 -0.431442 -0.136080 0.099489 -0.629409
    9 1.539094 0.000008 -0.000005 -0.000007 0.000016 -0.064974
    10 1.196325 -0.000005 0.000003 -0.000006 0.000005 -0.248011
    11 3.760302 0.047151 0.406523 0.088429 0.005884 -0.405731
    12 1.719580 -0.000010 0.000008 0.001005 0.005413 -0.183667
    13 1.209185 -0.000007 0.000006 0.000573 0.003028 -0.033589
    14 3.736467 -0.044027 1.307549 0.341674 -0.105256 -0.359423
    15 1.719433 0.000000 -0.000006 0.000749 0.004009 -0.180212
    16 1.099671 -0.000003 0.000002 0.000483 0.002549 -0.061538
    17 1.129154 -0.382525 1.323140 -1.212624 -0.688362 -0.806383
    18 1.789781 0.000000 -0.000006 -0.000606 0.002286 0.086744
    19 1.206999 0.000002 0.000000 -0.000294 -0.000023 0.265099
    20 5.740854 0.000000 -0.000004 0.859362 0.000000 0.000007
    21 11.481708 0.000006 -0.000007 1.227366 0.000000 -0.000007
    22 0.240484 -2.802864 -2.802524 -1.668474 1.286518 2.942953
    23 6.028141 0.000001 -0.000004 1.124726 1.251992 -1.586316
    24 11.692554 0.000000 0.000002 -0.000002 0.000000 -0.278504
    25 11.480655 -0.000290 -0.000002 -3.082703 0.116748 -1.025921
    26 3.858962 -0.145456 1.102058 0.438301 -0.227528 -0.733447
    27 1.312561 -0.000004 0.000000 0.000004 -0.000004 -0.281023
    28 0.729366 0.000001 -0.000002 0.000014 0.000013 -0.085635
    29 3.942293 0.050349 0.431044 0.135793 -0.101841 -0.652505
    30 1.539099 0.000000 0.000002 0.000009 -0.000014 -0.089095
    31 1.196322 -0.000002 -0.000001 0.000002 0.000010 -0.272108
    32 3.886489 -0.036605 -0.333118 -0.088978 -0.012523 -0.429621
    33 1.719582 0.000002 0.000006 -0.001250 -0.007873 -0.207788
    34 1.209187 0.000003 0.000007 -0.000700 -0.004403 -0.057718
    35 3.874262 -0.142787 -1.066241 -0.344572 0.092996 -0.382643
    36 1.719428 0.000006 0.000011 -0.001051 -0.006525 -0.204324
    37 1.099662 0.000004 0.000008 -0.000667 -0.004149 -0.085666
    38 1.001908 -0.270364 -1.355073 1.222432 0.658930 -0.792583
    39 1.789783 -0.000008 -0.000006 0.000281 -0.000711 0.061574
    40 1.207003 -0.000002 -0.000006 0.000103 0.000032 0.217655
    41 11.480655 -0.000290 -0.000002 -1.041058 0.000000 0.000014
  time 9
    0 0.000000 -0.000006 0.000000 -1.570781 -1.391896 -1.570809
    1 0.281941 -1.447398 4.338383 1.596636 -1.286515 2.942963
    2 6.028141 0.000002 0.000004 -1.140033 -1.016782 -1.498373
    3 11.692554 0.000081 -0.000005 -0.000022 0.000034 -0.711437
    4 11.481044 -0.000314 -0.000026 3.309293 -0.033768 -0.755431
    5 3.859704 -0.142418 -1.191975 -0.443244 0.216977 -0.744605
    6 1.312564 -0.000015 0.000004 -0.000009 0.000002 -0.291244
    7 0.729366 -0.000005 0.000001 -0.000006 0.000009 -0.095833
    8 3.942332 0.046754 -0.431442 -0.139400 0.094779 -0.663605
    9 1.539094 0.000008 -0.000005 -0.000007 0.000016 -0.099337
    10 1.196325 -0.000005 0.000003 -0.000006 0.000005 -0.282346
    11 3.760302 0.047151 0.406523 0.088177 0.008905 -0.439961
    12 1.719580 -0.000010 0.000008 0.000826 0.005449 -0.218009
    13 1.209185 -0.000007 0.000006 0.000466 0.003052 -0.067932
    14 3.736467 -0.044027 1.307549 0.344910 -0.093691 -0.391954
    15 1.719433 0.000000 -0.000006 0.000605 0.004033 -0.214533
    16 1.099671 -0.000003 0.000002 0.000399 0.002561 -0.095863
    17 1.129154 -0.382525 1.323140 -1.215686 -0.687249 -0.800942
    18 1.789781 0.000000 -0.000006 -0.000366 0.001447 0.113392
    19 1.206999 0.000002 0.000000 -0.000187 -0.000011 0.283478
    20 5.740854 0.000000 -0.000004 0.877400 0.000000 0.000007
    21 11.481708 0.000006 -0.000007 1.253135 0.000000 -0.000007
    22 0.236577 -2.845834 -2.818150 -1.668474 1.286518 2.942953
    23 6.028141 0.000001 -0.000004 1.148487 1.239318 -1.561705
    24 11.692554 0.000000 0.000002 -0.000002 0.000000 -0.305836
    25 11.480655 -0.000290 -0.000002 -3.097691 0.112690 -1.082260
    26 3.858962 -0.145456 1.102058 0.444365 -0.214789 -0.761072
    27 1.312561 -0.000004 0.000000 0.000004 -0.000004 -0.310853
    28 0.729366 0.000001 -0.000002 0.000014 0.000013 -0.115421
    29 3.942293 0.050349 0.431044 0.138753 -0.097767 -0.682186
    30 1.539099 0.000000 0.000002 0.000009 -0.000014 -0.118913
    31 1.196322 -0.000002 -0.000001 0.000002 0.000010 -0.301917
    32 3.886489 -0.036605 -0.333118 -0.088571 -0.015160 -0.459308
    33 1.719582 0.000002 0.000006 -0.001022 -0.007897 -0.237588
    34 1.209187 0.000003 0.000007 -0.000568 -0.004427 -0.087549
    35 3.874262 -0.142787 -1.066241 -0.347053 0.082893 -0.410784
    36 1.719428 0.000006 0.000011 -0.000848 -0.006549 -0.234114
    37 1.099662 0.000004 0.000008 -0.000547 -0.004173 -0.115484
    38 1.001908 -0.270364 -1.355073 1.222061 0.664361 -0.792943
    39 1.789783 -0.000008 -0.000006 0.000173 -0.000459 0.092986
    40 1.207003 -0.000002 -0.000006 0.000067 0.000032 0.244959
    41 11.480655 -0.000290 -0.000002 -1.056272 0.000000 0.000014
  time 10
    0 0.000000 -0.000006 0.000000 -1.570781 -1.391896 -1.570809
    1 0.270222 -1.513806 4.314945 1.596636 -1.286515 2.942963
    2 6.028141 0.000002 0.000004 -1.140128 -0.998894 -1.494976
    3 11.692554 0.000081 -0.000005 -0.000022 0.000034 -0.735644
    4 11.481044 -0.000314 -0.000026 3.325947 -0.018331 -0.830131
    5 3.859704 -0.142418 -1.191975 -0.450052 0.201625 -0.777374
    6 1.312564 -0.000015 0.000004 -0.000009 0.000002 -0.326781
    7 0.729366 -0.000005 0.000001 -0.000006 0.000009 -0.131359
    8 3.942332 0.046754 -0.431442 -0.142648 0.089781 -0.698889
    9 1.539094 0.000008 -0.000005 -0.000007 0.000016 -0.134872
    10 1.196325 -0.000005 0.000003 -0.000006 0.000005 -0.317893
    11 3.760302 0.047151 0.406523 0.087806 0.012033 -0.475326
    12 1.719580 -0.000010 0.000008 0.000634 0.005473 -0.253526
    13 1.209185 -0.000007 0.000006 0.000358 0.003064 -0.103449
    14 3.736467 -0.044027 1.307549 0.347846 -0.081635 -0.425476
    15 1.719433 0.000000 -0.000006 0.000461 0.004045 -0.250071
    16 1.099671 -0.000003 0.000002 0.000303 0.002573 -0.131391
    17 1.129154 -0.382525 1.323140 -1.218100 -0.685725 -0.796699
    18 1.789781 0.000000 -0.000006 -0.000199 0.000836 0.140939
    19 1.206999 0.000002 0.000000 -0.000115 -0.000011 0.302475
    20 5.740854 0.000000 -0.000004 0.902983 0.000000 0.000007
    21 11.481708 0.000006 -0.000007 1.289682 0.000000 -0.000007
    22 0.224858 -2.912242 -2.841588 -1.668474 1.286518 2.942953
    23 6.028141 0.000001 -0.000004 1.177166 1.219762 -1.532049
    24 11.692554 0.000000 0.000002 -0.000002 0.000000 -0.343918
    25 11.480655 -0.000290 -0.000002 -3.115862 0.106730 -1.147962
    26 3.858962 -0.145456 1.102058 0.450238 -0.201450 -0.789494
    27 1.312561 -0.000004 0.000000 0.000004 -0.000004 -0.341663
    28 0.729366 0.000001 -0.000002 0.000014 0.000013 -0.146270
    29 3.942293 0.050349 0.431044 0.141690 -0.093452 -0.712878
    30 1.539099 0.000000 0.000002 0.000009 -0.000014 -0.149751
    31 1.196322 -0.000002 -0.000001 0.000002 0.000010 -0.332782
    32 3.886489 -0.036605 -0.333118 -0.088067 -0.017880 -0.490049
    33 1.719582 0.000002 0.000006 -0.000770 -0.007933 -0.268426
    34 1.209187 0.000003 0.000007 -0.000424 -0.004439 -0.118369
    35 3.874262 -0.142787 -1.066241 -0.349306 0.072371 -0.439865
    36 1.719428 0.000006 0.000011 -0.000644 -0.006573 -0.264959
    37 1.099662 0.000004 0.000008 -0.000416 -0.004185 -0.146306
    38 1.001908 -0.270364 -1.355073 1.221785 0.668263 -0.793194
    39 1.789783 -0.000008 -0.000006 0.000089 -0.000268 0.125476
    40 1.207003 -0.000002 -0.000006 0.000043 0.000020 0.273219
    41 11.480655 -0.000290 -0.000002 -1.077877 0.000000 0.000014
  time 11
    0 0.000000 -0.000006 0.000000 -1.570781 -1.391896 -1.570809
    1 0.258503 -1.599746 4.283694 1.596636 -1.286515 2.942963
    2 6.028141 0.000002 0.000004 -1.140698 -0.975505 -1.489692
    3 11.692554 0.000081 -0.000005 -0.000022 0.000034 -0.768257
    4 11.481044 -0.000314 -0.000026 3.341873 -0.005632 -0.887767
    5 3.859704 -0.142418 -1.191975 -0.456128 0.186584 -0.808869
    6 1.312564 -0.000015 0.000004 -0.000009 0.000002 -0.361142
    7 0.729366 -0.000005 0.000001 -0.000006 0.000009 -0.165720
    8 3.942332 0.046754 -0.431442 -0.145632 0.084843 -0.733042
    9 1.539094 0.000008 -0.000005 -0.000007 0.000016 -0.169235
    10 1.196325 -0.000005 0.000003 -0.000006 0.000005 -0.352228
    11 3.760302 0.047151 0.406523 0.087338 0.015041 -0.509599
    12 1.719580 -0.000010 0.000008 0.000442 0.005497 -0.287911
    13 1.209185 -0.000007 0.000006 0.000250 0.003076 -0.137835
    14 3.736467 -0.044027 1.307549 0.350291 -0.069878 -0.457865
    15 1.719433 0.000000 -0.000006 0.000318 0.004057 -0.284443
    16 1.099671 -0.000003 0.000002 0.000219 0.002585 -0.165759
    17 1.129154 -0.382525 1.323140 -1.219925 -0.683959 -0.793511
    18 1.789781 0.000000 -0.000006 -0.000091 0.000429 0.167610
    19 1.206999 0.000002 0.000000 -0.000055 0.000001 0.320854
    20 5.740854 0.000000 -0.000004 0.928527 0.000000 0.000007
    21 11.481708 0.000006 -0.000007 1.326174 0.000000 -0.000007
    22 0.213139 -2.998182 -2.872839 -1.668474 1.286518 2.942953
    23 6.028141 0.000001 -0.000004 1.207795 1.193641 -1.500045
    24 11.692554 0.000000 0.000002 -0.000002 0.000000 -0.392468
    25 11.480655 -0.000290 -0.000002 -3.130766 0.100495 -1.196021
    26 3.858962 -0.145456 1.102058 0.455535 -0.188398 -0.816815
    27 1.312561 -0.000004 0.000000 0.000004 -0.000004 -0.371492
    28 0.729366 0.000001 -0.000002 0.000014 0.000013 -0.176098
    29 3.942293 0.050349 0.431044 0.144386 -0.089210 -0.742514
    30 1.539099 0.000000 0.000002 0.000009 -0.000014 -0.179615
    31 1.196322 -0.000002 -0.000001 0.000002 0.000010 -0.362591
    32 3.886489 -0.036605 -0.333118 -0.087492 -0.020505 -0.519736
    33 1.719582 0.000002 0.000006 -0.000531 -0.007945 -0.298274
    34 1.209187 0.000003 0.000007 -0.000293 -0.004451 -0.148200
    35 3.874262 -0.142787 -1.066241 -0.351187 0.062136 -0.467930
    36 1.719428 0.000006 0.000011 -0.000452 -0.006585 -0.294799
    37 1.099662 0.000004 0.000008 -0.000284 -0.004197 -0.176124
    38 1.001908 -0.270364 -1.355073 1.221605 0.670874 -0.793374
    39 1.789783 -0.000008 -0.000006 0.000053 -0.000136 0.156888
    40 1.207003 -0.000002 -0.000006 0.000031 0.000008 0.300523
    41 11.480655 -0.000290 -0.000002 -1.099968 0.000000 0.000014
  time 12
    0 0.000000 -0.000006 0.000000 -1.570781 -1.391896 -1.570809
    1 0.242878 -1.709125 4.248537 1.596636 -1.286515 2.942963
    2 6.028141 0.000002 0.000004 -1.141933 -0.947372 -1.482238
    3 11.692554 0.000081 -0.000005 -0.000022 0.000034 -0.808847
    4 11.481044 -0.000314 -0.000026 3.353727 -0.002411 -0.902639
    5 3.859704 -0.142418 -1.191975 -0.461149 0.172934 -0.836969
    6 1.312564 -0.000015 0.000004 -0.000009 0.000002 -0.392017
    7 0.729366 -0.000005 0.000001 -0.000006 0.000009 -0.196592
    8 3.942332 0.046754 -0.431442 -0.148149 0.080325 -0.763670
    9 1.539094 0.000008 -0.000005 -0.000007 0.000016 -0.200083
    10 1.196325 -0.000005 0.000003 -0.000006 0.000005 -0.383099
    11 3.760302 0.047151 0.406523 0.086835 0.017725 -0.540293
    12 1.719580 -0.000010 0.000008 0.000274 0.005497 -0.318771
    13 1.209185 -0.000007 0.000006 0.000154 0.003076 -0.168651
    14 3.736467 -0.044027 1.307549 0.352173 -0.059272 -0.486902
    15 1.719433 0.000000 -0.000006 0.000198 0.004069 -0.315266
    16 1.099671 -0.000003 0.000002 0.000135 0.002585 -0.196604
    17 1.129154 -0.382525 1.323140 -1.221235 -0.682217 -0.791270
    18 1.789781 0.000000 -0.000006 -0.000031 0.000189 0.191512
    19 1.206999 0.000002 0.000000 -0.000031 0.000001 0.337333
    20 5.740854 0.000000 -0.000004 0.940631 0.000000 0.000007
    21 11.481708 0.000006 -0.000007 1.343465 0.000000 -0.000007
    22 0.197514 -3.107561 -2.907996 -1.668474 1.286518 2.942953
    23 6.028141 0.000001 -0.000004 1.238052 1.161571 -1.468302
    24 11.692554 0.000000 0.000002 -0.000002 0.000000 -0.450529
    25 11.480655 -0.000290 -0.000002 -3.136628 0.097071 -1.200681
    26 3.858962 -0.145456 1.102058 0.459969 -0.176570 -0.841248
    27 1.312561 -0.000004 0.000000 0.000004 -0.000004 -0.398279
    28 0.729366 0.000001 -0.000002 0.000014 0.000013 -0.202862
    29 3.942293 0.050349 0.431044 0.146699 -0.085327 -0.769117
    30 1.539099 0.000000 0.000002 0.000009 -0.000014 -0.206372
    31 1.196322 -0.000002 -0.000001 0.000002 0.000010 -0.389374
    32 3.886489 -0.036605 -0.333118 -0.086917 -0.022830 -0.546415
    33 1.719582 0.000002 0.000006 -0.000327 -0.007957 -0.325010
    34 1.209187 0.000003 0.000007 -0.000173 -0.004463 -0.174967
    35 3.874262 -0.142787 -1.066241 -0.352638 0.052908 -0.493099
    36 1.719428 0.000006 0.000011 -0.000272 -0.006597 -0.321574
    37 1.099662 0.000004 0.000008 -0.000176 -0.004197 -0.202896
    38 1.001908 -0.270364 -1.355073 1.221498 0.672456 -0.793482
    39 1.789783 -0.000008 -0.000006 0.000017 -0.000064 0.185028
    40 1.207003 -0.000002 -0.000006 0.000019 0.000008 0.325018
    41 11.480655 -0.000290 -0.000002 -1.110874 0.000000 0.000014
  time 13
    0 0.000000 -0.000006 0.000000 -1.570781 -1.391896 -1.570809
    1 0.223346 -1.830222 4.209473 1.596636 -1.286515 2.942963
    2 6.028141 0.000002 0.000004 -1.143833 -0.915765 -1.472897
    3 11.692554 0.000081 -0.000005 -0.000022 0.000034 -0.856009
    4 11.481044 -0.000314 -0.000026 3.367035 -0.021483 -0.820490
    5 3.859704 -0.142418 -1.191975 -0.464924 0.161788 -0.859593
    6 1.312564 -0.000015 0.000004 -0.000009 0.000002 -0.416968
    7 0.729366 -0.000005 0.000001 -0.000006 0.000009 -0.221522
    8 3.942332 0.046754 -0.431442 -0.150090 0.076622 -0.788425
    9 1.539094 0.000008 -0.000005 -0.000007 0.000016 -0.225031
    10 1.196325 -0.000005 0.000003 -0.000006 0.000005 -0.408038
    11 3.760302 0.047151 0.406523 0.086368 0.019882 -0.565179
    12 1.719580 -0.000010 0.000008 0.000131 0.005509 -0.343711
    13 1.209185 -0.000007 0.000006 0.000082 0.003088 -0.193635
    14 3.736467 -0.044027 1.307549 0.353455 -0.050643 -0.510368
    15 1.719433 0.000000 -0.000006 0.000090 0.004069 -0.340260
    16 1.099671 -0.000003 0.000002 0.000075 0.002585 -0.221564
    17 1.129154 -0.382525 1.323140 -1.222089 -0.680692 -0.789820
    18 1.789781 0.000000 -0.000006 -0.000007 0.000057 0.210870
    19 1.206999 0.000002 0.000000 -0.000007 0.000001 0.350675
    20 5.740854 0.000000 -0.000004 0.921021 0.000000 0.000007
    21 11.481708 0.000006 -0.000007 1.315451 0.000000 -0.000007
    22 0.177982 -3.228658 -2.947060 -1.668474 1.286518 2.942953
    23 6.028141 0.000001 -0.000004 1.266267 1.124218 -1.438385
    24 11.692554 0.000000 0.000002 -0.000002 0.000000 -0.517141
    25 11.480655 -0.000290 -0.000002 -3.136042 0.095634 -1.105686
    26 3.858962 -0.145456 1.102058 0.463325 -0.166922 -0.860931
    27 1.312561 -0.000004 0.000000 0.000004 -0.000004 -0.419915
    28 0.729366 0.000001 -0.000002 0.000014 0.000013 -0.224520
    29 3.942293 0.050349 0.431044 0.148497 -0.082139 -0.790619
    30 1.539099 0.000000 0.000002 0.000009 -0.000014 -0.228028
    31 1.196322 -0.000002 -0.000001 0.000002 0.000010 -0.411020
    32 3.886489 -0.036605 -0.333118 -0.086401 -0.024699 -0.568016
    33 1.719582 0.000002 0.000006 -0.000147 -0.007968 -0.346700
    34 1.209187 0.000003 0.000007 -0.000077 -0.004463 -0.196598
    35 3.874262 -0.142787 -1.066241 -0.353632 0.045417 -0.513452
    36 1.719428 0.000006 0.000011 -0.000129 -0.006609 -0.343226
    37 1.099662 0.000004 0.000008 -0.000092 -0.004209 -0.224543
    38 1.001908 -0.270364 -1.355073 1.221438 0.673273 -0.793530
    39 1.789783 -0.000008 -0.000006 0.000005 -0.000028 0.207786
    40 1.207003 -0.000002 -0.000006 0.000007 -0.000004 0.344850
    41 11.480655 -0.000290 -0.000002 -1.103719 0.000000 0.000014
  time 14
    0 0.000000 -0.000006 0.000000 -1.570781 -1.391896 -1.570809
    1 0.203814 -1.963039 4.162597 1.596636 -1.286515 2.942963
    2 6.028141 0.000002 0.000004 -1.146588 -0.881377 -1.461385
    3 11.692554 0.000081 -0.000005 -0.000022 0.000034 -0.909466
    4 11.481044 -0.000314 -0.000026 3.377944 -0.065103 -0.640819
    5 3.859704 -0.142418 -1.191975 -0.467297 0.154274 -0.874704
    6 1.312564 -0.000015 0.000004 -0.000009 0.000002 -0.433645
    7 0.729366 -0.000005 0.000001 -0.000006 0.000009 -0.238225
    8 3.942332 0.046754 -0.431442 -0.151336 0.074117 -0.804958
    9 1.539094 0.000008 -0.000005 -0.000007 0.000016 -0.241735
    10 1.196325 -0.000005 0.000003 -0.000006 0.000005 -0.424751
    11 3.760302 0.047151 0.406523 0.086032 0.021321 -0.581814
    12 1.719580 -0.000010 0.000008 0.000047 0.005509 -0.360425
    13 1.209185 -0.000007 0.000006 0.000022 0.003088 -0.210306
    14 3.736467 -0.044027 1.307549 0.354210 -0.044854 -0.526043
    15 1.719433 0.000000 -0.000006 0.000030 0.004069 -0.356939
    16 1.099671 -0.000003 0.000002 0.000027 0.002585 -0.238275
    17 1.129154 -0.382525 1.323140 -1.222546 -0.679604 -0.789053
    18 1.789781 0.000000 -0.000006 0.000005 0.000009 0.223813
    19 1.206999 0.000002 0.000000 -0.000007 0.000001 0.359644
    20 5.740854 0.000000 -0.000004 0.885456 0.000000 0.000007
    21 11.481708 0.000006 -0.000007 1.264644 0.000000 -0.000007
    22 0.158450 -3.361475 -2.993936 -1.668474 1.286518 2.942953
    23 6.028141 0.000001 -0.000004 1.291606 1.082303 -1.411078
    24 11.692554 0.000000 0.000002 -0.000002 0.000000 -0.591545
    25 11.480655 -0.000290 -0.000002 -3.131855 0.093478 -0.910079
    26 3.858962 -0.145456 1.102058 0.465470 -0.160438 -0.874040
    27 1.312561 -0.000004 0.000000 0.000004 -0.000004 -0.434388
    28 0.729366 0.000001 -0.000002 0.000014 0.000013 -0.239030
    29 3.942293 0.050349 0.431044 0.149671 -0.079982 -0.804997
    30 1.539099 0.000000 0.000002 0.000009 -0.000014 -0.242496
    31 1.196322 -0.000002 -0.000001 0.000002 0.000010 -0.425512
    32 3.886489 -0.036605 -0.333118 -0.086042 -0.025958 -0.582429
    33 1.719582 0.000002 0.000006 -0.000039 -0.007968 -0.361176
    34 1.209187 0.000003 0.000007 -0.000017 -0.004463 -0.211113
    35 3.874262 -0.142787 -1.066241 -0.354219 0.040396 -0.527070
    36 1.719428 0.000006 0.000011 -0.000033 -0.006609 -0.357693
    37 1.099662 0.000004 0.000008 -0.000020 -0.004209 -0.239058
    38 1.001908 -0.270364 -1.355073 1.221414 0.673563 -0.793554
    39 1.789783 -0.000008 -0.000006 0.000005 -0.000004 0.222995
    40 1.207003 -0.000002 -0.000006 0.000007 -0.000004 0.358109
    41 11.480655 -0.000290 -0.000002 -1.090520 0.000000 0.000014
  time 15
    0 0.000000 -0.000006 0.000000 -1.570781 -1.391896 -1.570809
    1 0.184282 -2.107574 4.111814 1.596636 -1.286515 2.942963
    2 6.028141 0.000002 0.000004 -1.150292 -0.845146 -1.447704
    3 11.692554 0.000081 -0.000005 -0.000022 0.000034 -0.968426
    4 11.481044 -0.000314 -0.000026 3.370017 -0.119191 -0.420654
    5 3.859704 -0.142418 -1.191975 -0.468136 0.151530 -0.880222
    6 1.312564 -0.000015 0.000004 -0.000009 0.000002 -0.439736
    7 0.729366 -0.000005 0.000001 -0.000006 0.000009 -0.244333
    8 3.942332 0.046754 -0.431442 -0.151792 0.073194 -0.811005
    9 1.539094 0.000008 -0.000005 -0.000007 0.000016 -0.247810
    10 1.196325 -0.000005 0.000003 -0.000006 0.000005 -0.430813
    11 3.760302 0.047151 0.406523 0.085900 0.021836 -0.587882
    12 1.719580 -0.000010 0.000008 0.000011 0.005509 -0.366519
    13 1.209185 -0.000007 0.000006 0.000010 0.003088 -0.216400
    14 3.736467 -0.044027 1.307549 0.354462 -0.042745 -0.531756
    15 1.719433 0.000000 -0.000006 0.000006 0.004069 -0.363022
    16 1.099671 -0.000003 0.000002 0.000015 0.002585 -0.244333
    17 1.129154 -0.382525 1.323140 -1.222693 -0.679192 -0.788825
    18 1.789781 0.000000 -0.000006 0.000005 0.000009 0.228543
    19 1.206999 0.000002 0.000000 -0.000007 0.000001 0.362869
    20 5.740854 0.000000 -0.000004 0.855471 0.000000 0.000007
    21 11.481708 0.000006 -0.000007 1.221808 0.000000 -0.000007
    22 0.138918 -3.506010 -3.044719 -1.668474 1.286518 2.942953
    23 6.028141 0.000001 -0.000004 1.313974 1.036439 -1.386553
    24 11.692554 0.000000 0.000002 -0.000002 0.000000 -0.673181
    25 11.480655 -0.000290 -0.000002 -3.119044 0.089610 -0.673570
    26 3.858962 -0.145456 1.102058 0.466225 -0.158065 -0.878828
    27 1.312561 -0.000004 0.000000 0.000004 -0.000004 -0.439687
    28 0.729366 0.000001 -0.000002 0.000014 0.000013 -0.244306
    29 3.942293 0.050349 0.431044 0.150079 -0.079191 -0.810230
    30 1.539099 0.000000 0.000002 0.000009 -0.000014 -0.247783
    31 1.196322 -0.000002 -0.000001 0.000002 0.000010 -0.430786
    32 3.886489 -0.036605 -0.333118 -0.085898 -0.026401 -0.587702
    33 1.719582 0.000002 0.000006 0.000009 -0.007968 -0.366457
    34 1.209187 0.000003 0.000007 0.000007 -0.004463 -0.216391
    35 3.874262 -0.142787 -1.066241 -0.354411 0.038562 -0.532036
    36 1.719428 0.000006 0.000011 -0.000009 -0.006609 -0.363018
    37 1.099662 0.000004 0.000008 0.000004 -0.004209 -0.244326
    38 1.001908 -0.270364 -1.355073 1.221414 0.673616 -0.793554
    39 1.789783 -0.000008 -0.000006 0.000005 -0.000004 0.228544
    40 1.207003 -0.000002 -0.000006 0.000007 -0.000004 0.362940
    41 11.480655 -0.000290 -0.000002 -1.077390 0.000000 0.000014
  time 16
    0 0.000000 -0.000006 0.000000 -1.570781 -1.391896 -1.570809
    1 0.160844 -2.256016 4.061031 1.596636 -1.286515 2.942963
    2 6.028141 0.000002 0.000004 -1.155422 -0.807736 -1.431758
    3 11.692554 0.000081 -0.000005 -0.000022 0.000034 -1.032917
    4 11.481044 -0.000314 -0.000026 3.337146 -0.163478 -0.217659
    5 3.859704 -0.142418 -1.191975 -0.468136 0.151530 -0.880222
    6 1.312564 -0.000015 0.000004 -0.000009 0.000002 -0.439736
    7 0.729366 -0.000005 0.000001 -0.000006 0.000009 -0.244333
    8 3.942332 0.046754 -0.431442 -0.151792 0.073194 -0.811005
    9 1.539094 0.000008 -0.000005 -0.000007 0.000016 -0.247810
    10 1.196325 -0.000005 0.000003 -0.000006 0.000005 -0.430813
    11 3.760302 0.047151 0.406523 0.085900 0.021836 -0.587882
    12 1.719580 -0.000010 0.000008 0.000011 0.005509 -0.366519
    13 1.209185 -0.000007 0.000006 0.000010 0.003088 -0.216400
    14 3.736467 -0.044027 1.307549 0.354462 -0.042745 -0.531756
    15 1.719433 0.000000 -0.000006 0.000006 0.004069 -0.363022
    16 1.099671 -0.000003 0.000002 0.000015 0.002585 -0.244333
    17 1.129154 -0.382525 1.323140 -1.222693 -0.679192 -0.788825
    18 1.789781 0.000000 -0.000006 0.000005 0.000009 0.228543
    19 1.206999 0.000002 0.000000 -0.000007 0.000001 0.362869
    20 5.740854 0.000000 -0.000004 0.832010 0.000000 0.000007
    21 11.481708 0.000006 -0.000007 1.188292 0.000000 -0.000007
    22 0.115480 -3.654452 -3.095502 -1.668474 1.286518 2.942953
    23 6.028141 0.000001 -0.000004 1.333465 0.987213 -1.364637
    24 11.692554 0.000000 0.000002 -0.000002 0.000000 -0.761611
    25 11.480655 -0.000290 -0.000002 -3.092667 0.081473 -0.457866
    26 3.858962 -0.145456 1.102058 0.466225 -0.158065 -0.878828
    27 1.312561 -0.000004 0.000000 0.000004 -0.000004 -0.439687
    28 0.729366 0.000001 -0.000002 0.000000 0.000013 -0.244306
    29 3.942293 0.050349 0.431044 0.150079 -0.079191 -0.810230
    30 1.539099 0.000000 0.000002 0.000009 -0.000014 -0.247783
    31 1.196322 -0.000002 -0.000001 0.000002 0.000010 -0.430786
    32 3.886489 -0.036605 -0.333118 -0.085898 -0.026401 -0.587702
    33 1.719582 0.000002 0.000006 0.000009 -0.007968 -0.366457
    34 1.209187 0.000003 0.000007 0.000007 -0.004463 -0.216391
    35 3.874262 -0.142787 -1.066241 -0.354411 0.038562 -0.532036
    36 1.719428 0.000006 0.000011 -0.000009 -0.006609 -0.363018
    37 1.099662 0.000004 0.000008 -0.000008 -0.004209 -0.244326
    38 1.001908 -0.270364 -1.355073 1.221414 0.673616 -0.793554
    39 1.789783 -0.000008 -0.000006 0.000005 -0.000004 0.228544
    40 1.207003 -0.000002 -0.000006 0.000007 -0.000004 0.362940
    41 11.480655 -0.000290 -0.000002 -1.060648 0.000000 0.000014
  time 17
    0 0.000000 -0.000006 0.000000 -1.570781 -1.391896 -1.570809
    1 0.141312 -2.408365 4.010248 1.596636 -1.286515 2.942963
    2 6.028141 0.000002 0.000004 -1.162356 -0.769964 -1.413358
    3 11.692554 0.000081 -0.000005 -0.000022 0.000034 -1.102452
    4 11.481044 -0.000314 -0.000026 3.284204 -0.180801 -0.088703
    5 3.859704 -0.142418 -1.191975 -0.468136 0.151530 -0.880222
    6 1.312564 -0.000015 0.000004 -0.000009 0.000002 -0.439736
    7 0.729366 -0.000005 0.000001 -0.000006 0.000009 -0.244333
    8 3.942332 0.046754 -0.431442 -0.151792 0.073194 -0.811005
    9 1.539094 0.000008 -0.000005 -0.000007 0.000016 -0.247810
    10 1.196325 -0.000005 0.000003 -0.000006 0.000005 -0.430813
    11 3.760302 0.047151 0.406523 0.085900 0.021836 -0.587882
    12 1.719580 -0.000010 0.000008 0.000011 0.005509 -0.366519
    13 1.209185 -0.000007 0.000006 0.000010 0.003088 -0.216400
    14 3.736467 -0.044027 1.307549 0.354462 -0.042745 -0.531756
    15 1.719433 0.000000 -0.000006 0.000006 0.004069 -0.363022
    16 1.099671 -0.000003 0.000002 0.000015 0.002585 -0.244333
    17 1.129154 -0.382525 1.323140 -1.222693 -0.679192 -0.788825
    18 1.789781 0.000000 -0.000006 0.000005 0.000009 0.228543
    19 1.206999 0.000002 0.000000 -0.000007 0.000001 0.362869
    20 5.740854 0.000000 -0.000004 0.807959 0.000000 0.000007
    21 11.481708 0.000006 -0.000007 1.153934 0.000000 -0.000007
    22 0.095948 -3.806801 -3.146285 -1.668474 1.286518 2.942953
    23 6.028141 0.000001 -0.000004 1.350171 0.935133 -1.345244
    24 11.692554 0.000000 0.000002 -0.000002 0.000000 -0.856554
    25 11.480655 -0.000290 -0.000002 -3.046781 0.067819 -0.320970
    26 3.858962 -0.145456 1.102058 0.466225 -0.158065 -0.878828
    27 1.312561 -0.000004 0.000000 0.000004 -0.000004 -0.439687
    28 0.729366 0.000001 -0.000002 0.000014 0.000013 -0.244306
    29 3.942293 0.050349 0.431044 0.150079 -0.079191 -0.810230
    30 1.539099 0.000000 0.000002 0.000009 -0.000014 -0.247783
    31 1.196322 -0.000002 -0.000001 0.000002 0.000010 -0.430786
    32 3.886489 -0.036605 -0.333118 -0.085898 -0.026401 -0.587702
    33 1.719582 0.000002 0.000006 0.000009 -0.007968 -0.366457
    34 1.209187 0.000003 0.000007 0.000007 -0.004463 -0.216391
    35 3.874262 -0.142787 -1.066241 -0.354411 0.038562 -0.532036
    36 1.719428 0.000006 0.000011 -0.000009 -0.006609 -0.363018
    37 1.099662 0.000004 0.000008 0.000004 -0.004209 -0.244326
    38 1.001908 -0.270364 -1.355073 1.221414 0.673616 -0.793554
    39 1.789783 -0.000008 -0.000006 0.000005 -0.000004 0.228544
    40 1.207003 -0.000002 -0.000006 0.000007 -0.000004 0.362940
    41 11.480655 -0.000290 -0.000002 -1.033278 0.000000 0.000014
  time 18
    0 0.000000 -0.000006 0.000000 -1.570781 -1.391896 -1.570809
    1 0.117874 -2.560713 3.959466 1.596636 -1.286515 2.942963
    2 6.028141 0.000002 0.000004 -1.175369 -0.729986 -1.388354
    3 11.692554 0.000081 -0.000005 -0.000022 0.000034 -1.175135
    4 11.481044 -0.000314 -0.000026 3.220280 -0.181561 -0.038093
    5 3.859704 -0.142418 -1.191975 -0.468136 0.151530 -0.880222
    6 1.312564 -0.000015 0.000004 -0.000009 0.000002 -0.439736
    7 0.729366 -0.000005 0.000001 -0.000006 0.000009 -0.244333
    8 3.942332 0.046754 -0.431442 -0.151792 0.073194 -0.811005
    9 1.539094 0.000008 -0.000005 -0.000007 0.000016 -0.247810
    10 1.196325 -0.000005 0.000003 -0.000006 0.000005 -0.430813
    11 3.760302 0.047151 0.406523 0.085900 0.021836 -0.587882
    12 1.719580 -0.000010 0.000008 0.000011 0.005509 -0.366519
    13 1.209185 -0.000007 0.000006 0.000010 0.003088 -0.216400
    14 3.736467 -0.044027 1.307549 0.354462 -0.042745 -0.531756
    15 1.719433 0.000000 -0.000006 0.000006 0.004069 -0.363022
    16 1.099671 -0.000003 0.000002 0.000015 0.002585 -0.244333
    17 1.129154 -0.382525 1.323140 -1.222693 -0.679192 -0.788825
    18 1.789781 0.000000 -0.000006 0.000005 0.000009 0.228543
    19 1.206999 0.000002 0.000000 -0.000007 0.000001 0.362869
    20 5.740854 0.000000 -0.000004 0.778171 0.000000 0.000007
    21 11.481708 0.000006 -0.000007 1.111379 0.000000 -0.000007
    22 0.072510 -3.959149 -3.197067 -1.668474 1.286518 2.942953
    23 6.028141 0.000001 -0.000004 1.367156 0.882145 -1.325763
    24 11.692554 0.000000 0.000002 -0.000002 0.000000 -0.958410
    25 11.480655 -0.000290 -0.000002 -2.990512 0.054821 -0.252772
    26 3.858962 -0.145456 1.102058 0.466225 -0.158065 -0.878828
    27 1.312561 -0.000004 0.000000 0.000004 -0.000004 -0.439687
    28 0.729366 0.000001 -0.000002 0.000014 0.000013 -0.244306
    29 3.942293 0.050349 0.431044 0.150079 -0.079191 -0.810230
    30 1.539099 0.000000 0.000002 0.000009 -0.000014 -0.247783
    31 1.196322 -0.000002 -0.000001 0.000002 0.000010 -0.430786
    32 3.886489 -0.036605 -0.333118 -0.085898 -0.026401 -0.587702
    33 1.719582 0.000002 0.000006 0.000009 -0.007968 -0.366457
    34 1.209187 0.000003 0.000007 0.000007 -0.004463 -0.216391
    35 3.874262 -0.142787 -1.066241 -0.354411 0.038562 -0.532036
    36 1.719428 0.000006 0.000011 -0.000009 -0.006609 -0.363018
    37 1.099662 0.000004 0.000008 0.000004 -0.004209 -0.244326
    38 1.001908 -0.270364 -1.355073 1.221414 0.673616 -0.793554
    39 1.789783 -0.000008 -0.000006 0.000005 -0.000004 0.228544
    40 1.207003 -0.000002 -0.000006 0.000007 -0.000004 0.362940
    41 11.480655 -0.000290 -0.000002 -0.998752 0.000000 0.000014
  time 19
    0 0.000000 -0.000006 0.000000 -1.570781 -1.391896 -1.570809
    1 0.094436 -2.713062 3.908683 1.596636 -1.286515 2.942963
    2 6.028141 0.000002 0.000004 -1.195887 -0.689645 -1.356462
    3 11.692554 0.000081 -0.000005 -0.000034 0.000034 -1.243203
    4 11.481044 -0.000314 -0.000026 3.149956 -0.183953 -0.027501
    5 3.859704 -0.142418 -1.191975 -0.468136 0.151530 -0.880222
    6 1.312564 -0.000015 0.000004 -0.000009 0.000002 -0.439736
    7 0.729366 -0.000005 0.000001 -0.000006 0.000009 -0.244333
    8 3.942332 0.046754 -0.431442 -0.151792 0.073194 -0.811005
    9 1.539094 0.000008 -0.000005 -0.000007 0.000016 -0.247810
    10 1.196325 -0.000005 0.000003 -0.000006 0.000005 -0.430813
    11 3.760302 0.047151 0.406523 0.085900 0.021836 -0.587882
    12 1.719580 -0.000010 0.000008 0.000011 0.005509 -0.366519
    13 1.209185 -0.000007 0.000006 0.000010 0.003088 -0.216400
    14 3.736467 -0.044027 1.307549 0.354462 -0.042745 -0.531756
    15 1.719433 0.000000 -0.000006 0.000006 0.004069 -0.363022
    16 1.099671 -0.000003 0.000002 0.000015 0.002585 -0.244333
    17 1.129154 -0.382525 1.323140 -1.222693 -0.679192 -0.788825
    18 1.789781 0.000000 -0.000006 0.000005 0.000009 0.228543
    19 1.206999 0.000002 0.000000 -0.000007 0.000001 0.362869
    20 5.740854 0.000000 -0.000004 0.743274 0.000000 0.000007
    21 11.481708 0.000006 -0.000007 1.061526 0.000000 -0.000007
    22 0.049072 -4.111498 -3.247850 -1.668474 1.286518 2.942953
    23 6.028141 0.000001 -0.000004 1.385162 0.833159 -1.306283
    24 11.692554 0.000000 0.000002 -0.000002 0.000000 -1.059587
    25 11.480655 -0.000290 -0.000002 -2.937843 0.047318 -0.206211
    26 3.858962 -0.145456 1.102058 0.466225 -0.158065 -0.878828
    27 1.312561 -0.000004 0.000000 0.000004 -0.000004 -0.439687
    28 0.729366 0.000001 -0.000002 0.000014 0.000013 -0.244306
    29 3.942293 0.050349 0.431044 0.150079 -0.079191 -0.810230
    30 1.539099 0.000000 0.000002 0.000009 -0.000014 -0.247783
    31 1.196322 -0.000002 -0.000001 0.000002 0.000010 -0.430786
    32 3.886489 -0.036605 -0.333118 -0.085898 -0.026401 -0.587702
    33 1.719582 0.000002 0.000006 0.000009 -0.007968 -0.366457
    34 1.209187 0.000003 0.000007 0.000007 -0.004463 -0.216391
    35 3.874262 -0.142787 -1.066241 -0.354411 0.038562 -0.532036
    36 1.719428 0.000006 0.000011 -0.000009 -0.006609 -0.363018
    37 1.099662 0.000004 0.000008 0.000004 -0.004209 -0.244326
    38 1.001908 -0.270364 -1.355073 1.221414 0.673616 -0.793554
    39 1.789783 -0.000008 -0.000006 0.000005 -0.000004 0.228544
    40 1.207003 -0.000002 -0.000006 0.000007 -0.000004 0.362940
    41 11.480655 -0.000290 -0.000002 -0.965199 0.000000 0.000014
  time 20
    0 0.000000 -0.000006 0.000000 -1.570781 -1.391896 -1.570809
    1 0.074904 -2.853691 3.857900 1.596636 -1.286515 2.942963
    2 6.028141 0.000002 0.000004 -1.221629 -0.654472 -1.321928
    3 11.692554 0.000081 -0.000005 -0.000034 0.000034 -1.299534
    4 11.481044 -0.000314 -0.000026 3.072724 -0.189406 -0.047893
    5 3.859704 -0.142418 -1.191975 -0.468136 0.151530 -0.880222
    6 1.312564 -0.000015 0.000004 -0.000009 0.000002 -0.439736
    7 0.729366 -0.000005 0.000001 -0.000006 0.000009 -0.244333
    8 3.942332 0.046754 -0.431442 -0.151792 0.073194 -0.811005
    9 1.539094 0.000008 -0.000005 -0.000007 0.000016 -0.247810
    10 1.196325 -0.000005 0.000003 -0.000006 0.000005 -0.430813
    11 3.760302 0.047151 0.406523 0.085900 0.021836 -0.587882
    12 1.719580 -0.000010 0.000008 0.000011 0.005509 -0.366519
    13 1.209185 -0.000007 0.000006 0.000010 0.003088 -0.216400
    14 3.736467 -0.044027 1.307549 0.354462 -0.042745 -0.531756
    15 1.719433 0.000000 -0.000006 0.000006 0.004069 -0.363022
    16 1.099671 -0.000003 0.000002 0.000015 0.002585 -0.244333
    17 1.129154 -0.382525 1.323140 -1.222693 -0.679192 -0.788825
    18 1.789781 0.000000 -0.000006 0.000005 0.000009 0.228543
    19 1.206999 0.000002 0.000000 -0.000007 0.000001 0.362869
    20 5.740854 0.000000 -0.000004 0.703622 0.000000 0.000007
    21 11.481708 0.000006 -0.000007 1.004880 0.000000 -0.000007
    22 0.029540 -4.252127 -3.298633 -1.668474 1.286518 2.942953
    23 6.028141 0.000001 -0.000004 1.402797 0.792365 -1.288541
    24 11.692554 0.000000 0.000002 -0.000002 0.000000 -1.150294
    25 11.480655 -0.000290 -0.000002 -2.886431 0.045141 -0.179747
    26 3.858962 -0.145456 1.102058 0.466225 -0.158065 -0.878828
    27 1.312561 -0.000004 0.000000 0.000004 -0.000004 -0.439687
    28 0.729366 0.000001 -0.000002 0.000014 0.000013 -0.244306
    29 3.942293 0.050349 0.431044 0.150079 -0.079191 -0.810230
    30 1.539099 0.000000 0.000002 0.000009 -0.000014 -0.247783
    31 1.196322 -0.000002 -0.000001 0.000002 0.000010 -0.430786
    32 3.886489 -0.036605 -0.333118 -0.085898 -0.026401 -0.587702
    33 1.719582 0.000002 0.000006 0.000009 -0.007968 -0.366457
    34 1.209187 0.000003 0.000007 0.000007 -0.004463 -0.216391
    35 3.874262 -0.142787 -1.066241 -0.354411 0.038562 -0.532036
    36 1.719428 0.000006 0.000011 -0.000009 -0.006609 -0.363018
    37 1.099662 0.000004 0.000008 0.000004 -0.004209 -0.244326
    38 1.001908 -0.270364 -1.355073 1.221414 0.673616 -0.793554
    39 1.789783 -0.000008 -0.000006 0.000005 -0.000004 0.228544
    40 1.207003 -0.000002 -0.000006 0.000007 -0.000004 0.362940
    41 11.480655 -0.000290 -0.000002 -0.931576 0.000000 0.000014
  time 21
    0 0.000000 -0.000006 0.000000 -1.570781 -1.391896 -1.570809
    1 0.055372 -2.990414 3.814930 1.596636 -1.286515 2.942963
    2 6.028141 0.000002 0.000004 -1.250980 -0.630328 -1.287960
    3 11.692554 0.000081 -0.000005 -0.000034 0.000034 -1.337679
    4 11.481044 -0.000314 -0.000026 2.988002 -0.198493 -0.088598
    5 3.859704 -0.142418 -1.191975 -0.472978 0.149241 -0.932559
    6 1.312564 -0.000015 0.000004 -0.009393 0.019500 -0.486992
    7 0.729366 -0.000005 0.000001 -0.015778 0.014806 -0.291617
    8 3.942332 0.046754 -0.431442 -0.155363 0.072823 -0.863604
    9 1.539094 0.000008 -0.000005 -0.002727 0.007171 -0.299701
    10 1.196325 -0.000005 0.000003 -0.006095 0.004643 -0.482727
    11 3.760302 0.047151 0.406523 0.087015 0.026031 -0.640537
    12 1.719580 -0.000010 0.000008 0.000286 0.002405 -0.418924
    13 1.209185 -0.000007 0.000006 0.001556 0.000367 -0.268849
    14 3.736467 -0.044027 1.307549 0.361077 -0.034200 -0.585014
    15 1.719433 0.000000 -0.000006 0.005891 -0.009689 -0.419295
    16 1.099671 -0.000003 0.000002 0.009639 -0.009483 -0.294725
    17 1.129154 -0.382525 1.323140 -1.233542 -0.646143 -0.794218
    18 1.789781 0.000000 -0.000006 -0.000714 0.012018 0.252675
    19 1.206999 0.000002 0.000000 -0.001241 -0.000071 0.420258
    20 5.740854 0.000000 -0.000004 0.659450 0.000000 0.000007
    21 11.481708 0.000006 -0.000007 0.941778 0.000000 -0.000007
    22 0.010008 -4.388850 -3.341603 -1.668474 1.286518 2.942953
    23 6.028141 0.000001 -0.000004 1.418946 0.762402 -1.273757
    24 11.692554 0.000000 0.000002 -0.000002 0.000000 -1.223460
    25 11.480655 -0.000290 -0.000002 -2.834432 0.047339 -0.170218
    26 3.858962 -0.145456 1.102058 0.457429 -0.153236 -0.928529
    27 1.312561 -0.000004 0.000000 0.017584 -0.017789 -0.495273
    28 0.729366 0.000001 -0.000002 0.023324 -0.009036 -0.299834
    29 3.942293 0.050349 0.431044 0.155999 -0.085015 -0.860357
    30 1.539099 0.000000 0.000002 0.008950 -0.010165 -0.309181
    31 1.196322 -0.000002 -0.000001 0.013137 -0.003218 -0.492148
    32 3.886489 -0.036605 -0.333118 -0.082914 -0.035078 -0.637662
    33 1.719582 0.000002 0.000006 0.004179 -0.010461 -0.429783
    34 1.209187 0.000003 0.000007 0.004465 -0.005410 -0.279729
    35 3.874262 -0.142787 -1.066241 -0.350696 0.023533 -0.579815
    36 1.719428 0.000006 0.000011 -0.002538 0.000102 -0.430786
    37 1.099662 0.000004 0.000008 -0.004059 0.001819 -0.289161
    38 1.001908 -0.270364 -1.355073 1.229539 0.632037 -0.796322
    39 1.789783 -0.000008 -0.000006 0.002126 -0.003288 0.225452
    40 1.207003 -0.000002 -0.000006 0.000487 -0.000483 0.419234
    41 11.480655 -0.000290 -0.000002 -0.896911 0.000000 0.000014
  time 22
    0 0.000000 -0.000006 0.000000 -1.570781 -1.391896 -1.570809
    1 0.035840 -3.111511 3.771960 1.596636 -1.286515 2.942963
    2 6.028141 0.000002 0.000004 -1.282707 -0.623166 -1.256823
    3 11.692554 0.000081 -0.000005 -0.000034 0.000034 -1.351891
    4 11.481044 -0.000314 -0.000026 2.894989 -0.210710 -0.138125
    5 3.859704 -0.142418 -1.191975 -0.485083 0.142062 -1.070044
    6 1.312564 -0.000015 0.000004 -0.038396 0.068410 -0.612339
    7 0.729366 -0.000005 0.000001 -0.060457 0.049993 -0.417098
    8 3.942332 0.046754 -0.431442 -0.164627 0.070941 -1.001954
    9 1.539094 0.000008 -0.000005 -0.011632 0.025219 -0.436372
    10 1.196325 -0.000005 0.000003 -0.023161 0.015297 -0.619417
    11 3.760302 0.047151 0.406523 0.088872 0.037284 -0.779159
    12 1.719580 -0.000010 0.000008 0.001796 -0.005625 -0.556857
    13 1.209185 -0.000007 0.000006 0.006290 -0.006344 -0.406784
    14 3.736467 -0.044027 1.307549 0.376262 -0.010135 -0.725053
    15 1.719433 0.000000 -0.000006 0.025090 -0.044241 -0.568444
    16 1.099671 -0.000003 0.000002 0.037767 -0.038786 -0.427900
    17 1.129154 -0.382525 1.323140 -1.261629 -0.560350 -0.809690
    18 1.789781 0.000000 -0.000006 -0.001229 0.043202 0.315200
    19 1.206999 0.000002 0.000000 -0.004525 0.000061 0.571882
    20 5.740854 0.000000 -0.000004 0.610995 0.000000 0.000007
    21 11.481708 0.000006 -0.000007 0.872557 0.000000 -0.000007
    22 -0.009524 -4.509947 -3.384573 -1.668474 1.286518 2.942953
    23 6.028141 0.000001 -0.000004 1.432683 0.745834 -1.262538
    24 11.692554 0.000000 0.000002 -0.000002 0.000000 -1.272370
    25 11.480655 -0.000290 -0.000002 -2.780005 0.052517 -0.174879
    26 3.858962 -0.145456 1.102058 0.433292 -0.142689 -1.059166
    27 1.312561 -0.000004 0.000000 0.068709 -0.059915 -0.644173
    28 0.729366 0.000001 -0.000002 0.087159 -0.026592 -0.447909
    29 3.942293 0.050349 0.431044 0.172874 -0.098797 -0.992358
    30 1.539099 0.000000 0.000002 0.035543 -0.034290 -0.472738
    31 1.196322 -0.000002 -0.000001 0.048744 -0.007842 -0.655321
    32 3.886489 -0.036605 -0.333118 -0.073039 -0.057034 -0.769142
    33 1.719582 0.000002 0.000006 0.015948 -0.015770 -0.598166
    34 1.209187 0.000003 0.000007 0.016498 -0.006560 -0.448110
    35 3.874262 -0.142787 -1.066241 -0.337573 -0.014913 -0.705620
    36 1.719428 0.000006 0.000011 -0.011454 0.017024 -0.611936
    37 1.099662 0.000004 0.000008 -0.015888 0.016692 -0.406571
    38 1.001908 -0.270364 -1.355073 1.250404 0.523544 -0.805035
    39 1.789783 -0.000008 -0.000006 0.007627 -0.011725 0.217434
    40 1.207003 -0.000002 -0.000006 0.001601 -0.001861 0.567721
    41 11.480655 -0.000290 -0.000002 -0.860024 0.000000 0.000014
  time 23
    0 0.000000 -0.000006 0.000000 -1.570781 -1.391896 -1.570809
    1 0.020215 -3.216983 3.736803 1.596636 -1.286515 2.942963
    2 6.028141 0.000002 0.000004 -1.315288 -0.630721 -1.228894
    3 11.692554 0.000081 -0.000005 -0.000034 0.000034 -1.349293
    4 11.481044 -0.000314 -0.000026 2.796012 -0.225457 -0.182448
    5 3.859704 -0.142418 -1.191975 -0.500075 0.129430 -1.261988
    6 1.312564 -0.000015 0.000004 -0.089043 0.129879 -0.790949
    7 0.729366 -0.000005 0.000001 -0.129787 0.089174 -0.595555
    8 3.942332 0.046754 -0.431442 -0.176960 0.066207 -1.195471
    9 1.539094 0.000008 -0.000005 -0.028051 0.048086 -0.628059
    10 1.196325 -0.000005 0.000003 -0.049167 0.026083 -0.811052
    11 3.760302 0.047151 0.406523 0.088837 0.053248 -0.973317
    12 1.719580 -0.000010 0.000008 0.005739 -0.016375 -0.749937
    13 1.209185 -0.000007 0.000006 0.014380 -0.014517 -0.599910
    14 3.736467 -0.044027 1.307549 0.391578 0.026658 -0.920757
    15 1.719433 0.000000 -0.000006 0.060468 -0.087242 -0.780151
    16 1.099671 -0.000003 0.000002 0.083224 -0.072954 -0.615979
    17 1.129154 -0.382525 1.323140 -1.300787 -0.442451 -0.834283
    18 1.789781 0.000000 -0.000006 0.001264 0.086011 0.401396
    19 1.206999 0.000002 0.000000 -0.009019 0.001080 0.785181
    20 5.740854 0.000000 -0.000004 0.559475 0.000000 0.000007
    21 11.481708 0.000006 -0.000007 0.798956 0.000000 -0.000007
    22 -0.025149 -4.615419 -3.419730 -1.668474 1.286518 2.942953
    23 6.028141 0.000001 -0.000004 1.441500 0.741084 -1.256277
    24 11.692554 0.000000 0.000002 -0.000002 0.000000 -1.299342
    25 11.480655 -0.000290 -0.000002 -2.723652 0.060041 -0.186737
    26 3.858962 -0.145456 1.102058 0.397673 -0.133305 -1.242051
    27 1.312561 -0.000004 0.000000 0.150639 -0.105361 -0.858570
    28 0.729366 0.000001 -0.000002 0.180276 -0.034908 -0.658406
    29 3.942293 0.050349 0.431044 0.199228 -0.114102 -1.177388
    30 1.539099 0.000000 0.000002 0.079179 -0.060344 -0.705576
    31 1.196322 -0.000002 -0.000001 0.099414 -0.004386 -0.886414
    32 3.886489 -0.036605 -0.333118 -0.054570 -0.085138 -0.953512
    33 1.719582 0.000002 0.000006 0.033793 -0.019761 -0.836901
    34 1.209187 0.000003 0.000007 0.033528 -0.004703 -0.686709
    35 3.874262 -0.142787 -1.066241 -0.311339 -0.065224 -0.882514
    36 1.719428 0.000006 0.000011 -0.029119 0.037770 -0.870749
    37 1.099662 0.000004 0.000008 -0.035087 0.034849 -0.570213
    38 1.001908 -0.270364 -1.355073 1.279335 0.373235 -0.820435
    39 1.789783 -0.000008 -0.000006 0.015274 -0.023194 0.206396
    40 1.207003 -0.000002 -0.000006 0.002800 -0.004043 0.776435
    41 11.480655 -0.000290 -0.000002 -0.821121 0.000000 0.000014
  time 24
    0 0.000000 -0.000006 0.000000 -1.570781 -1.391896 -1.570809
    1 0.008496 -3.306830 3.705552 1.596636 -1.286515 2.942963
    2 6.028141 0.000002 0.000004 -1.345969 -0.643563 -1.203889
    3 11.692554 0.000081 -0.000005 -0.000034 0.000034 -1.342691
    4 11.481044 -0.000314 -0.000026 2.700963 -0.241860 -0.214621
    5 3.859704 -0.142418 -1.191975 -0.513402 0.112532 -1.472566
    6 1.312564 -0.000015 0.000004 -0.157115 0.185823 -0.992705
    7 0.729366 -0.000005 0.000001 -0.213068 0.117219 -0.795161
    8 3.942332 0.046754 -0.431442 -0.189196 0.058381 -1.408347
    9 1.539094 0.000008 -0.000005 -0.050810 0.069131 -0.839747
    10 1.196325 -0.000005 0.000003 -0.079572 0.031992 -1.022257
    11 3.760302 0.047151 0.406523 0.085229 0.070445 -1.187296
    12 1.719580 -0.000010 0.000008 0.012367 -0.027077 -0.962603
    13 1.209185 -0.000007 0.000006 0.024902 -0.021540 -0.812579
    14 3.736467 -0.044027 1.307549 0.399835 0.069766 -1.136102
    15 1.719433 0.000000 -0.000006 0.109234 -0.124825 -1.016396
    16 1.099671 -0.000003 0.000002 0.139816 -0.099967 -0.825107
    17 1.129154 -0.382525 1.323140 -1.345067 -0.314512 -0.865455
    18 1.789781 0.000000 -0.000006 0.008239 0.132343 0.496151
    19 1.206999 0.000002 0.000000 -0.013609 0.003273 1.020481
    20 5.740854 0.000000 -0.000004 0.509369 0.000000 0.000007
    21 11.481708 0.000006 -0.000007 0.727377 0.000000 -0.000007
    22 -0.036869 -4.705266 -3.450981 -1.668474 1.286518 2.942953
    23 6.028141 0.000001 -0.000004 1.445120 0.742979 -1.254537
    24 11.692554 0.000000 0.000002 -0.000002 0.000000 -1.313807
    25 11.480655 -0.000290 -0.000002 -2.670816 0.069383 -0.199220
    26 3.858962 -0.145456 1.102058 0.357261 -0.130597 -1.443365
    27 1.312561 -0.000004 0.000000 0.250551 -0.133872 -1.100000
    28 0.729366 0.000001 -0.000002 0.282643 -0.021255 -0.890774
    29 3.942293 0.050349 0.431044 0.230975 -0.125044 -1.381590
    30 1.539099 0.000000 0.000002 0.133074 -0.076535 -0.964615
    31 1.196322 -0.000002 -0.000001 0.152866 0.012794 -1.141538
    32 3.886489 -0.036605 -0.333118 -0.028600 -0.111552 -1.157412
    33 1.719582 0.000002 0.000006 0.054011 -0.019126 -1.101146
    34 1.209187 0.000003 0.000007 0.051253 0.001973 -0.950756
    35 3.874262 -0.142787 -1.066241 -0.272592 -0.114217 -1.079348
    36 1.719428 0.000006 0.000011 -0.054227 0.054656 -1.158649
    37 1.099662 0.000004 0.000008 -0.059272 0.050872 -0.750378
    38 1.001908 -0.270364 -1.355073 1.312317 0.208926 -0.841624
    39 1.789783 -0.000008 -0.000006 0.023747 -0.035598 0.194256
    40 1.207003 -0.000002 -0.000006 0.003555 -0.006679 1.006554
    41 11.480655 -0.000290 -0.000002 -0.783470 0.000000 0.000014
  time 25
    0 0.000000 -0.000006 0.000000 -1.570781 -1.391896 -1.570809
    1 0.000683 -3.373238 3.682113 1.596636 -1.286515 2.942963
    2 6.028141 0.000002 0.000004 -1.371996 -0.657614 -1.183320
    3 11.692554 0.000081 -0.000005 -0.000034 0.000034 -1.334592
    4 11.481044 -0.000314 -0.000026 2.620385 -0.257182 -0.235277
    5 3.859704 -0.142418 -1.191975 -0.522175 0.095082 -1.663364
    6 1.312564 -0.000015 0.000004 -0.228400 0.223862 -1.180850
    7 0.729366 -0.000005 0.000001 -0.292430 0.127884 -0.978480
    8 3.942332 0.046754 -0.431442 -0.198652 0.049177 -1.601559
    9 1.539094 0.000008 -0.000005 -0.074959 0.083704 -1.032691
    10 1.196325 -0.000005 0.000003 -0.107736 0.031728 -1.214282
    11 3.760302 0.047151 0.406523 0.078829 0.085079 -1.381935
    12 1.719580 -0.000010 0.000008 0.020229 -0.035383 -1.155901
    13 1.209185 -0.000007 0.000006 0.035556 -0.025855 -1.005923
    14 3.736467 -0.044027 1.307549 0.399176 0.109615 -1.331996
    15 1.719433 0.000000 -0.000006 0.160192 -0.148171 -1.232717
    16 1.099671 -0.000003 0.000002 0.195232 -0.113833 -1.016580
    17 1.129154 -0.382525 1.323140 -1.387787 -0.198863 -0.898041
    18 1.789781 0.000000 -0.000006 0.018533 0.174002 0.583754
    19 1.206999 0.000002 0.000000 -0.017217 0.006137 1.233780
    20 5.740854 0.000000 -0.000004 0.466337 0.000000 0.000007
    21 11.481708 0.000006 -0.000007 0.665902 0.000000 -0.000007
    22 -0.044681 -4.771674 -3.474420 -1.668474 1.286518 2.942953
    23 6.028141 0.000001 -0.000004 1.445305 0.748235 -1.255494
    24 11.692554 0.000000 0.000002 -0.000002 0.000000 -1.319561
    25 11.480655 -0.000290 -0.000002 -2.626940 0.078662 -0.210288
    26 3.858962 -0.145456 1.102058 0.320708 -0.135127 -1.626325
    27 1.312561 -0.000004 0.000000 0.344752 -0.138438 -1.320431
    28 0.729366 0.000001 -0.000002 0.370322 0.011037 -1.098845
    29 3.942293 0.050349 0.431044 0.261284 -0.129226 -1.567676
    30 1.539099 0.000000 0.000002 0.183961 -0.078872 -1.199354
    31 1.196322 -0.000002 -0.000001 0.196082 0.039499 -1.371209
    32 3.886489 -0.036605 -0.333118 -0.000688 -0.130571 -1.343851
    33 1.719582 0.000002 0.000006 0.071569 -0.014021 -1.339880
    34 1.209187 0.000003 0.000007 0.065275 0.011800 -1.189167
    35 3.874262 -0.142787 -1.066241 -0.229364 -0.151382 -1.260907
    36 1.719428 0.000006 0.000011 -0.080150 0.063177 -1.418518
    37 1.099662 0.000004 0.000008 -0.083505 0.061490 -0.914916
    38 1.001908 -0.270364 -1.355073 1.344759 0.059803 -0.865234
    39 1.789783 -0.000008 -0.000006 0.031656 -0.046888 0.183026
    40 1.207003 -0.000002 -0.000006 0.003723 -0.009172 1.215268
    41 11.480655 -0.000290 -0.000002 -0.751306 0.000000 0.000014
  time 26
    0 0.000000 -0.000006 0.000000 -1.570781 -1.391896 -1.570809
    1 -0.007130 -3.416208 3.670394 1.596636 -1.286515 2.942963
    2 6.028141 0.000002 0.000004 -1.390139 -0.669067 -1.169072
    3 11.692554 0.000081 -0.000005 -0.000034 0.000034 -1.327470
    4 11.481044 -0.000314 -0.000026 2.564534 -0.268294 -0.246292
    5 3.859704 -0.142418 -1.191975 -0.526322 0.081755 -1.799448
    6 1.312564 -0.000015 0.000004 -0.283565 0.242618 -1.317622
    7 0.729366 -0.000005 0.000001 -0.349729 0.126600 -1.109819
    8 3.942332 0.046754 -0.431442 -0.204224 0.041579 -1.739474
    9 1.539094 0.000008 -0.000005 -0.093726 0.091159 -1.170838
    10 1.196325 -0.000005 0.000003 -0.127558 0.028240 -1.351362
    11 3.760302 0.047151 0.406523 0.072573 0.094642 -1.521168
    12 1.719580 -0.000010 0.000008 0.026748 -0.040320 -1.294051
    13 1.209185 -0.000007 0.000006 0.043586 -0.027641 -1.144031
    14 3.736467 -0.044027 1.307549 0.393915 0.137587 -1.472317
    15 1.719433 0.000000 -0.000006 0.198974 -0.157867 -1.387239
    16 1.099671 -0.000003 0.000002 0.235968 -0.117153 -1.153751
    17 1.129154 -0.382525 1.323140 -1.420541 -0.116118 -0.924323
    18 1.789781 0.000000 -0.000006 0.028397 0.203651 0.648147
    19 1.206999 0.000002 0.000000 -0.019374 0.008618 1.385404
    20 5.740854 0.000000 -0.000004 0.436235 0.000000 0.000007
    21 11.481708 0.000006 -0.000007 0.622899 0.000000 -0.000007
    22 -0.052494 -4.814644 -3.486139 -1.668474 1.286518 2.942953
    23 6.028141 0.000001 -0.000004 1.444006 0.753651 -1.257320
    24 11.692554 0.000000 0.000002 -0.000002 0.000000 -1.320361
    25 11.480655 -0.000290 -0.000002 -2.597130 0.085700 -0.218236
    26 3.858962 -0.145456 1.102058 0.295385 -0.142378 -1.757039
    27 1.312561 -0.000004 0.000000 0.410916 -0.129234 -1.476200
    28 0.729366 0.000001 -0.000002 0.427490 0.044477 -1.244197
    29 3.942293 0.050349 0.431044 0.283192 -0.128771 -1.700952
    30 1.539099 0.000000 0.000002 0.219531 -0.073347 -1.364998
    31 1.196322 -0.000002 -0.000001 0.222400 0.063948 -1.532777
    32 3.886489 -0.036605 -0.333118 0.021280 -0.140842 -1.477832
    33 1.719582 0.000002 0.000006 0.082978 -0.007980 -1.508216
    34 1.209187 0.000003 0.000007 0.073568 0.020597 -1.357313
    35 3.874262 -0.142787 -1.066241 -0.194429 -0.172894 -1.392392
    36 1.719428 0.000006 0.000011 -0.099229 0.065023 -1.600823
    37 1.099662 0.000004 0.000008 -0.101841 0.066596 -1.033365
    38 1.001908 -0.270364 -1.355073 1.370274 -0.047108 -0.885212
    39 1.789783 -0.000008 -0.000006 0.037529 -0.055073 0.174745
    40 1.207003 -0.000002 -0.000006 0.003519 -0.010934 1.363812
    41 11.480655 -0.000290 -0.000002 -0.728867 0.000000 0.000014
  time 27
    0 0.000000 -0.000006 0.000000 -1.570781 -1.391896 -1.570809
    1 -0.007130 -3.427927 3.666488 1.596636 -1.286515 2.942963
    2 6.028141 0.000002 0.000004 -1.396883 -0.673811 -1.163788
    3 11.692554 0.000081 -0.000005 -0.000034 0.000034 -1.324444
    4 11.481044 -0.000314 -0.000026 2.543662 -0.272481 -0.249620
    5 3.859704 -0.142418 -1.191975 -0.527412 0.076566 -1.851148
    6 1.312564 -0.000015 0.000004 -0.305209 0.247795 -1.370046
    7 0.729366 -0.000005 0.000001 -0.371385 0.124168 -1.159679
    8 3.942332 0.046754 -0.431442 -0.206058 0.038499 -1.791856
    9 1.539094 0.000008 -0.000005 -0.101097 0.093292 -1.223380
    10 1.196325 -0.000005 0.000003 -0.134941 0.026215 -1.403449
    11 3.760302 0.047151 0.406523 0.069865 0.098022 -1.574084
    12 1.719580 -0.000010 0.000008 0.029397 -0.041950 -1.346587
    13 1.209185 -0.000007 0.000006 0.046678 -0.028024 -1.196524
    14 3.736467 -0.044027 1.307549 0.390895 0.147966 -1.525764
    15 1.719433 0.000000 -0.000006 0.213979 -0.159964 -1.445844
    16 1.099671 -0.000003 0.000002 0.251512 -0.116961 -1.205904
    17 1.129154 -0.382525 1.323140 -1.433613 -0.084569 -0.935073
    18 1.789781 0.000000 -0.000006 0.032723 0.214905 0.673180
    19 1.206999 0.000002 0.000000 -0.020081 0.009625 1.442749
    20 5.740854 0.000000 -0.000004 0.424917 0.000000 0.000007
    21 11.481708 0.000006 -0.000007 0.606730 0.000000 -0.000007
    22 -0.052494 -4.826363 -3.490045 -1.668474 1.286518 2.942953
    23 6.028141 0.000001 -0.000004 1.443078 0.756132 -1.258364
    24 11.692554 0.000000 0.000002 -0.000002 0.000000 -1.319801
    25 11.480655 -0.000290 -0.000002 -2.586077 0.088469 -0.221315
    26 3.858962 -0.145456 1.102058 0.286037 -0.145973 -1.806702
    27 1.312561 -0.000004 0.000000 0.435350 -0.123146 -1.534681
    28 0.729366 0.000001 -0.000002 0.447726 0.059181 -1.298534
    29 3.942293 0.050349 0.431044 0.291485 -0.127848 -1.751651
    30 1.539099 0.000000 0.000002 0.232606 -0.069764 -1.427277
    31 1.196322 -0.000002 -0.000001 0.231245 0.074201 -1.593497
    32 3.886489 -0.036605 -0.333118 0.029981 -0.143970 -1.528924
    33 1.719582 0.000002 0.000006 0.086981 -0.005236 -1.571495
    34 1.209187 0.000003 0.000007 0.076289 0.024240 -1.420556
    35 3.874262 -0.142787 -1.066241 -0.180395 -0.179857 -1.442767
    36 1.719428 0.000006 0.000011 -0.106408 0.064831 -1.669043
    37 1.099662 0.000004 0.000008 -0.108984 0.067962 -1.078666
    38 1.001908 -0.270364 -1.355073 1.380641 -0.087869 -0.893601
    39 1.789783 -0.000008 -0.000006 0.039818 -0.058237 0.171533
    40 1.207003 -0.000002 -0.000006 0.003375 -0.011581 1.420049
    41 11.480655 -0.000290 -0.000002 -0.720462 0.000000 0.000014
end
