// Created by Crowbar++ 0.74
version 1
nodes
  0 "ValveBiped.Bip01_Spine4" -1
  1 "ValveBiped.Bip01_L_Clavicle" 0
  2 "ValveBiped.Bip01_L_UpperArm" 1
  3 "ValveBiped.Bip01_L_Forearm" 2
  4 "ValveBiped.Bip01_L_Hand" 3
  5 "ValveBiped.Bip01_L_Finger4" 4
  6 "ValveBiped.Bip01_L_Finger41" 5
  7 "ValveBiped.Bip01_L_Finger42" 6
  8 "ValveBiped.Bip01_L_Finger3" 4
  9 "ValveBiped.Bip01_L_Finger31" 8
  10 "ValveBiped.Bip01_L_Finger32" 9
  11 "ValveBiped.Bip01_L_Finger2" 4
  12 "ValveBiped.Bip01_L_Finger21" 11
  13 "ValveBiped.Bip01_L_Finger22" 12
  14 "ValveBiped.Bip01_L_Finger1" 4
  15 "ValveBiped.Bip01_L_Finger11" 14
  16 "ValveBiped.Bip01_L_Finger12" 15
  17 "ValveBiped.Bip01_L_Finger0" 4
  18 "ValveBiped.Bip01_L_Finger01" 17
  19 "ValveBiped.Bip01_L_Finger02" 18
  20 "ValveBiped.Bip01_L_Ulna" 3
  21 "ValveBiped.Bip01_L_Wrist" 3
  22 "ValveBiped.Bip01_R_Clavicle" 0
  23 "ValveBiped.Bip01_R_UpperArm" 22
  24 "ValveBiped.Bip01_R_Forearm" 23
  25 "ValveBiped.Bip01_R_Hand" 24
  26 "ValveBiped.Bip01_R_Finger4" 25
  27 "ValveBiped.Bip01_R_Finger41" 26
  28 "ValveBiped.Bip01_R_Finger42" 27
  29 "ValveBiped.Bip01_R_Finger3" 25
  30 "ValveBiped.Bip01_R_Finger31" 29
  31 "ValveBiped.Bip01_R_Finger32" 30
  32 "ValveBiped.Bip01_R_Finger2" 25
  33 "ValveBiped.Bip01_R_Finger21" 32
  34 "ValveBiped.Bip01_R_Finger22" 33
  35 "ValveBiped.Bip01_R_Finger1" 25
  36 "ValveBiped.Bip01_R_Finger11" 35
  37 "ValveBiped.Bip01_R_Finger12" 36
  38 "ValveBiped.Bip01_R_Finger0" 25
  39 "ValveBiped.Bip01_R_Finger01" 38
  40 "ValveBiped.Bip01_R_Finger02" 39
  41 "ValveBiped.Bip01_R_Wrist" 24
end
skeleton
  time 0
    0 0.000000 -0.000006 0.000000 -1.570781 -1.391896 -1.570809
    1 -0.007130 -3.427927 3.666488 1.596636 -1.286515 2.942963
    2 6.028141 0.000002 0.000004 -1.396883 -0.673811 -1.163788
    3 11.692554 0.000081 -0.000005 -0.000034 0.000034 -1.324444
    4 11.481044 -0.000314 -0.000026 2.543662 -0.272481 -0.249620
    5 3.859704 -0.142418 -1.191975 -0.527412 0.076566 -1.851148
    6 1.312564 -0.000015 0.000004 -0.305209 0.247795 -1.370046
    7 0.729366 -0.000005 0.000001 -0.371385 0.124168 -1.159679
    8 3.942332 0.046754 -0.431442 -0.206058 0.038499 -1.791856
    9 1.539094 0.000008 -0.000005 -0.101097 0.093292 -1.223380
    10 1.196325 -0.000005 0.000003 -0.134941 0.026215 -1.403449
    11 3.760302 0.047151 0.406523 0.069865 0.098022 -1.574084
    12 1.719580 -0.000010 0.000008 0.029397 -0.041950 -1.346587
    13 1.209185 -0.000007 0.000006 0.046678 -0.028024 -1.196524
    14 3.736467 -0.044027 1.307549 0.390895 0.147966 -1.525764
    15 1.719433 0.000000 -0.000006 0.213979 -0.159964 -1.445844
    16 1.099671 -0.000003 0.000002 0.251512 -0.116961 -1.205904
    17 1.129154 -0.382525 1.323140 -1.433613 -0.084569 -0.935073
    18 1.789781 0.000000 -0.000006 0.032723 0.214905 0.673180
    19 1.206999 0.000002 0.000000 -0.020081 0.009625 1.442749
    20 5.740854 0.000000 -0.000004 0.424917 0.000000 0.000007
    21 11.481708 0.000006 -0.000007 0.606730 0.000000 -0.000007
    22 -0.052494 -4.826363 -3.490045 -1.668474 1.286518 2.942953
    23 6.028141 0.000001 -0.000004 1.443078 0.756132 -1.258364
    24 11.692554 0.000000 0.000002 -0.000002 0.000000 -1.319801
    25 11.480655 -0.000290 -0.000002 -2.586077 0.088469 -0.221315
    26 3.858962 -0.145456 1.102058 0.286037 -0.145973 -1.806702
    27 1.312561 -0.000004 0.000000 0.435350 -0.123146 -1.534681
    28 0.729366 0.000001 -0.000002 0.447726 0.059181 -1.298534
    29 3.942293 0.050349 0.431044 0.291485 -0.127848 -1.751651
    30 1.539099 0.000000 0.000002 0.232606 -0.069764 -1.427277
    31 1.196322 -0.000002 -0.000001 0.231245 0.074201 -1.593497
    32 3.886489 -0.036605 -0.333118 0.029981 -0.143970 -1.528924
    33 1.719582 0.000002 0.000006 0.086981 -0.005236 -1.571495
    34 1.209187 0.000003 0.000007 0.076289 0.024240 -1.420556
    35 3.874262 -0.142787 -1.066241 -0.180395 -0.179857 -1.442767
    36 1.719428 0.000006 0.000011 -0.106408 0.064831 -1.669043
    37 1.099662 0.000004 0.000008 -0.108984 0.067962 -1.078666
    38 1.001908 -0.270364 -1.355073 1.380641 -0.087869 -0.893601
    39 1.789783 -0.000008 -0.000006 0.039818 -0.058237 0.171533
    40 1.207003 -0.000002 -0.000006 0.003375 -0.011581 1.420049
    41 11.480655 -0.000290 -0.000002 -0.720462 0.000000 0.000014
  time 1
    0 0.000000 -0.000006 0.000000 -1.570781 -1.391896 -1.570809
    1 -0.018849 -3.427927 3.666488 1.596636 -1.286515 2.942963
    2 6.028141 0.000002 0.000004 -1.394413 -0.672633 -1.166241
    3 11.692554 0.000081 -0.000005 -0.000034 0.000034 -1.326706
    4 11.481044 -0.000314 -0.000026 2.538354 -0.269974 -0.247877
    5 3.859704 -0.142418 -1.191975 -0.527077 0.077585 -1.848856
    6 1.312564 -0.000015 0.000004 -0.301554 0.249221 -1.352193
    7 0.729366 -0.000005 0.000001 -0.368053 0.139779 -1.156480
    8 3.942332 0.046754 -0.431442 -0.205027 0.040884 -1.790072
    9 1.539094 0.000008 -0.000005 -0.096447 0.095869 -1.210190
    10 1.196325 -0.000005 0.000003 -0.134677 0.026335 -1.402496
    11 3.760302 0.047151 0.406523 0.069218 0.096488 -1.571814
    12 1.719580 -0.000010 -0.007805 0.029073 -0.042777 -1.339579
    13 1.209185 -0.000007 0.000006 0.046702 -0.028036 -1.196089
    14 3.736467 -0.044027 1.307549 0.391902 0.149296 -1.524678
    15 1.719433 0.000000 -0.000006 0.213044 -0.158933 -1.441129
    16 1.099671 -0.000003 0.000002 0.248804 -0.122007 -1.185498
    17 1.129154 -0.382525 1.323140 -1.434511 -0.082391 -0.941281
    18 1.789781 0.000000 -0.000006 0.032627 0.217122 0.673434
    19 1.206999 0.000002 0.000000 -0.020369 0.009625 1.442749
    20 5.740854 0.000000 -0.000004 0.423306 0.000000 0.000007
    21 11.481708 0.000006 -0.000007 0.604428 0.000000 -0.000007
    22 -0.064213 -4.826363 -3.490045 -1.668474 1.286518 2.942953
    23 6.028141 0.000001 -0.000004 1.440386 0.755225 -1.261321
    24 11.692554 0.000000 0.000002 -0.000002 0.000000 -1.320680
    25 11.480655 -0.000290 -0.000002 -2.580383 0.086735 -0.220608
    26 3.858962 -0.145456 1.102058 0.285797 -0.143936 -1.798038
    27 1.312561 -0.000004 0.000000 0.435390 -0.121936 -1.533651
    28 0.729366 0.000001 -0.000002 0.447084 0.038869 -1.268323
    29 3.942293 0.050349 0.431044 0.288896 -0.131635 -1.738108
    30 1.539099 0.000000 -0.003904 0.230688 -0.073012 -1.430755
    31 1.196322 -0.000002 -0.000001 0.230694 0.054684 -1.570016
    32 3.886489 -0.036605 -0.333118 0.028279 -0.145324 -1.524002
    33 1.719582 0.000002 0.000006 0.086981 -0.006219 -1.567487
    34 1.209187 0.000003 0.000007 0.075666 0.017912 -1.407832
    35 3.874262 -0.142787 -1.066241 -0.180083 -0.180037 -1.444573
    36 1.719428 0.000006 0.000011 -0.106240 0.064831 -1.666883
    37 1.099662 0.000004 0.000008 -0.108397 0.068813 -1.070889
    38 1.001908 -0.270364 -1.355073 1.381240 -0.091402 -0.896166
    39 1.789783 -0.000008 -0.000006 0.039650 -0.060826 0.177585
    40 1.207003 -0.000002 -0.000006 0.003651 -0.011581 1.420049
    41 11.480655 -0.000290 -0.000002 -0.717475 0.000000 0.000014
  time 2
    0 0.000000 -0.000006 0.000000 -1.570781 -1.391896 -1.570809
    1 -0.061819 -3.420115 3.678207 1.596636 -1.286515 2.942963
    2 6.028141 0.000002 0.000004 -1.387479 -0.669429 -1.173318
    3 11.692554 0.000081 -0.000005 -0.000034 0.000034 -1.333216
    4 11.481044 -0.000314 -0.000026 2.522718 -0.262773 -0.242911
    5 3.859704 -0.142418 -1.191975 -0.526166 0.080341 -1.842574
    6 1.312564 -0.007828 0.007817 -0.291570 0.252733 -1.304054
    7 0.729366 -0.000005 0.000001 -0.358777 0.181709 -1.147463
    8 3.942332 0.046754 -0.431442 -0.202235 0.047284 -1.785287
    9 1.539094 0.000008 0.007808 -0.083779 0.102508 -1.174569
    10 1.196325 -0.000005 0.000003 -0.133934 0.026682 -1.399985
    11 3.760302 0.047151 0.406523 0.067432 0.092377 -1.565701
    12 1.719580 -0.003917 -0.039056 0.028139 -0.045006 -1.320689
    13 1.209185 -0.000007 0.000006 0.046774 -0.028096 -1.194870
    14 3.736467 -0.044027 1.307549 0.394610 0.152880 -1.521609
    15 1.719433 0.000000 -0.000006 0.210551 -0.156153 -1.428354
    16 1.099671 -0.000003 0.000002 0.240966 -0.135357 -1.130252
    17 1.129154 -0.382525 1.323140 -1.437014 -0.076536 -0.957952
    18 1.789781 0.000000 -0.000006 0.032376 0.223078 0.674126
    19 1.206999 0.000002 0.000000 -0.021160 0.009625 1.442616
    20 5.740854 0.000000 -0.000004 0.418354 0.000000 0.000007
    21 11.481708 0.000006 -0.000007 0.597355 0.000000 -0.000007
    22 -0.107183 -4.818550 -3.478326 -1.668474 1.286518 2.942953
    23 6.028141 0.000001 -0.000004 1.432868 0.752771 -1.269583
    24 11.692554 0.000000 0.000002 -0.000002 0.000000 -1.323158
    25 11.480655 -0.000290 -0.000002 -2.563386 0.081705 -0.218569
    26 3.858962 -0.145456 1.102058 0.285246 -0.138435 -1.774746
    27 1.312561 -0.000004 0.000000 0.435511 -0.118700 -1.530854
    28 0.729366 0.000001 -0.000002 0.442220 -0.016317 -1.185903
    29 3.942293 0.050349 0.431044 0.281658 -0.141666 -1.701568
    30 1.539099 0.000000 -0.019530 0.225583 -0.081761 -1.440122
    31 1.196322 -0.000002 -0.000001 0.226859 0.001843 -1.506316
    32 3.886489 -0.036605 -0.333118 0.023665 -0.148932 -1.510800
    33 1.719582 0.000002 0.000006 0.086981 -0.008879 -1.556689
    34 1.209187 0.000003 0.000007 0.073568 0.000954 -1.373571
    35 3.874262 -0.142787 -1.066241 -0.179232 -0.180540 -1.449464
    36 1.719428 0.000006 0.000011 -0.105761 0.064855 -1.661106
    37 1.099662 0.000004 0.000008 -0.106791 0.071090 -1.049959
    38 1.001908 -0.270364 -1.355073 1.382894 -0.100946 -0.903081
    39 1.789783 -0.000008 -0.000006 0.039099 -0.067777 0.193836
    40 1.207003 -0.000002 -0.000006 0.004406 -0.011581 1.419993
    41 11.480655 -0.000290 -0.000002 -0.708374 0.000000 0.000014
  time 3
    0 0.000000 -0.000006 0.000000 -1.570781 -1.391896 -1.570809
    1 -0.128227 -3.412302 3.693833 1.596636 -1.286515 2.942963
    2 6.028141 0.000002 0.000004 -1.376556 -0.664534 -1.184546
    3 11.692554 0.000081 -0.000005 -0.000034 0.000034 -1.343333
    4 11.481044 -0.000314 -0.000026 2.496610 -0.251316 -0.235304
    5 3.859704 -0.142418 -1.191975 -0.524799 0.084320 -1.833533
    6 1.308658 -0.015641 0.019536 -0.276758 0.257023 -1.233820
    7 0.729366 -0.000005 0.000001 -0.344443 0.242524 -1.133461
    8 3.942332 0.046754 -0.431442 -0.198136 0.056536 -1.778282
    9 1.535188 0.000008 0.015621 -0.064951 0.111329 -1.122634
    10 1.196325 -0.000005 0.000003 -0.132868 0.027186 -1.396261
    11 3.760302 0.047151 0.406523 0.064795 0.086445 -1.556795
    12 1.719580 -0.011730 -0.082026 0.026724 -0.048206 -1.293311
    13 1.209185 -0.000007 0.000006 0.046882 -0.028180 -1.193085
    14 3.736467 -0.044027 1.307549 0.398565 0.158045 -1.517171
    15 1.719433 0.000000 -0.000006 0.207004 -0.152054 -1.409850
    16 1.099671 -0.000003 0.000002 0.228202 -0.154005 -1.049272
    17 1.129154 -0.382525 1.323140 -1.440812 -0.068141 -0.982125
    18 1.789781 0.000000 -0.000006 0.032004 0.231695 0.675141
    19 1.206999 0.000002 0.000000 -0.022298 0.009625 1.442484
    20 5.740854 0.000000 -0.000004 0.409865 0.000000 0.000007
    21 11.481708 0.000006 -0.000007 0.585228 0.000000 -0.000007
    22 -0.173591 -4.810738 -3.462700 -1.668474 1.286518 2.942953
    23 6.028141 0.000001 -0.000004 1.421266 0.749009 -1.282280
    24 11.692554 0.000000 0.000002 -0.000002 0.000000 -1.327114
    25 11.480655 -0.000290 -0.000002 -2.535000 0.073462 -0.215490
    26 3.858962 -0.145456 1.102058 0.284659 -0.130441 -1.741041
    27 1.312561 -0.000004 0.000000 0.435699 -0.114002 -1.526831
    28 0.729366 0.000001 -0.000002 0.426602 -0.097072 -1.062507
    29 3.942293 0.050349 0.431044 0.270476 -0.155748 -1.648275
    30 1.539099 -0.007813 -0.039062 0.218332 -0.094512 -1.453570
    31 1.196322 -0.000002 -0.000001 0.215090 -0.075268 -1.411888
    32 3.886489 -0.036605 -0.333118 0.016894 -0.154049 -1.491620
    33 1.719582 0.000002 0.000006 0.086921 -0.012714 -1.540987
    34 1.209187 0.000003 0.000007 0.069482 -0.023543 -1.323665
    35 3.874262 -0.142787 -1.066241 -0.177986 -0.181271 -1.456536
    36 1.719428 0.000006 0.000011 -0.105066 0.064879 -1.652666
    37 1.099662 0.000004 0.000008 -0.104358 0.074326 -1.019603
    38 1.001908 -0.270364 -1.355073 1.385423 -0.114709 -0.913148
    39 1.789783 -0.000008 -0.000006 0.038104 -0.077820 0.217398
    40 1.207003 -0.000002 -0.000006 0.005484 -0.011581 1.419881
    41 11.480655 -0.000290 -0.000002 -0.693091 0.000000 0.000014
  time 4
    0 0.000000 -0.000006 0.000000 -1.570781 -1.391896 -1.570809
    1 -0.218074 -3.396676 3.713364 1.596636 -1.286515 2.942963
    2 6.028141 0.000002 0.000004 -1.362212 -0.658188 -1.199172
    3 11.692554 0.000081 -0.000005 -0.000034 0.000034 -1.356782
    4 11.481044 -0.000314 -0.000026 2.459812 -0.235855 -0.225583
    5 3.859704 -0.142418 -1.191975 -0.523134 0.089030 -1.822751
    6 1.308658 -0.027360 0.031255 -0.258733 0.260786 -1.150060
    7 0.729366 -0.000005 0.000001 -0.325879 0.314641 -1.115345
    8 3.942332 0.046754 -0.431442 -0.193187 0.067466 -1.769929
    9 1.531281 0.000008 0.027340 -0.041977 0.120545 -1.060633
    10 1.196325 -0.000005 0.000003 -0.131597 0.027773 -1.391888
    11 3.760302 0.047151 0.406523 0.061620 0.079434 -1.546229
    12 1.719580 -0.019542 -0.132809 0.024939 -0.051957 -1.260841
    13 1.209185 -0.000007 0.000006 0.047002 -0.028288 -1.190953
    14 3.736467 -0.044027 1.307549 0.403287 0.164145 -1.511883
    15 1.719433 0.000000 -0.000006 0.202893 -0.147117 -1.388000
    16 1.099671 -0.000003 0.000002 0.210980 -0.174823 -0.952054
    17 1.129154 -0.382525 1.323140 -1.445581 -0.058318 -1.010816
    18 1.789781 0.000000 -0.000006 0.031573 0.241918 0.676364
    19 1.206999 0.000002 0.000000 -0.023640 0.009625 1.442307
    20 5.740854 0.000000 -0.000004 0.397604 0.000000 0.000007
    21 11.481708 0.000006 -0.000007 0.567712 0.000000 -0.000007
    22 -0.263438 -4.795112 -3.443169 -1.668474 1.286518 2.942953
    23 6.028141 0.000001 -0.000004 1.406509 0.744313 -1.298977
    24 11.692554 0.000000 0.000002 -0.000002 0.000000 -1.332308
    25 11.480655 -0.000290 -0.000002 -2.494640 0.061986 -0.211745
    26 3.858962 -0.145456 1.102058 0.284323 -0.120937 -1.701105
    27 1.312561 -0.000004 0.000000 0.435955 -0.108429 -1.522072
    28 0.729366 0.000001 -0.000002 0.394069 -0.191352 -0.909368
    29 3.942293 0.050349 0.431044 0.256190 -0.171688 -1.584561
    30 1.535193 -0.011719 -0.062500 0.209955 -0.109757 -1.469476
    31 1.196322 -0.000002 -0.000001 0.191109 -0.166039 -1.295906
    32 3.886489 -0.036605 -0.333118 0.008720 -0.159945 -1.468809
    33 1.719582 0.000002 0.000006 0.086777 -0.017269 -1.522409
    34 1.209187 0.000003 0.000007 0.063034 -0.052354 -1.264192
    35 3.874262 -0.142787 -1.066241 -0.176512 -0.182122 -1.464926
    36 1.719428 0.000006 0.000011 -0.104251 0.064903 -1.642720
    37 1.099662 0.000004 0.000008 -0.101362 0.078065 -0.983548
    38 1.001908 -0.270364 -1.355073 1.388611 -0.131029 -0.925133
    39 1.789783 -0.000008 -0.000006 0.036606 -0.089709 0.245394
    40 1.207003 -0.000002 -0.000006 0.006779 -0.011581 1.419768
    41 11.480655 -0.000290 -0.000002 -0.671278 0.000000 0.000014
  time 5
    0 0.000000 -0.000006 0.000000 -1.570781 -1.391896 -1.570809
    1 -0.331359 -3.381051 3.740709 1.596636 -1.286515 2.942963
    2 6.028141 0.000002 0.000004 -1.344924 -0.651118 -1.217005
    3 11.692554 0.000081 -0.000005 -0.000034 0.000034 -1.372339
    4 11.481044 -0.000314 -0.000026 2.411888 -0.216668 -0.214885
    5 3.859704 -0.142418 -1.191975 -0.521336 0.093956 -1.811418
    6 1.304752 -0.039079 0.046881 -0.239426 0.263171 -1.061637
    7 0.729366 -0.000005 0.000001 -0.304271 0.390252 -1.094113
    8 3.942332 0.046754 -0.431442 -0.187877 0.078911 -1.761054
    9 1.531281 0.000008 0.039059 -0.017181 0.128694 -0.995074
    10 1.196325 -0.000005 0.000003 -0.130267 0.028384 -1.387256
    11 3.760302 0.047151 0.406523 0.058192 0.072087 -1.535095
    12 1.719580 -0.027355 -0.183592 0.022913 -0.055828 -1.226630
    13 1.209185 -0.000007 0.000006 0.047134 -0.028384 -1.188733
    14 3.736467 -0.044027 1.307549 0.408285 0.170533 -1.506312
    15 1.719433 0.000000 -0.000006 0.198699 -0.141831 -1.365034
    16 1.099671 -0.000003 0.000002 0.190606 -0.194885 -0.848692
    17 1.129154 -0.382525 1.323140 -1.450895 -0.048108 -1.041053
    18 1.789781 0.000000 -0.000006 0.031129 0.252668 0.677610
    19 1.206999 0.000002 0.000000 -0.025067 0.009625 1.442175
    20 5.740854 0.000000 -0.000004 0.381217 0.000000 0.000007
    21 11.481708 0.000006 -0.000007 0.544302 0.000000 -0.000007
    22 -0.376723 -4.779487 -3.415824 -1.668474 1.286518 2.942953
    23 6.028141 0.000001 -0.000004 1.389339 0.738977 -1.318806
    24 11.692554 0.000000 0.000002 -0.000002 0.000000 -1.338542
    25 11.480655 -0.000290 -0.000002 -2.441804 0.047297 -0.207917
    26 3.858962 -0.145456 1.102058 0.284395 -0.110918 -1.659080
    27 1.312561 -0.000004 0.000000 0.436250 -0.102568 -1.517019
    28 0.729366 0.000001 -0.000002 0.342859 -0.284597 -0.739720
    29 3.942293 0.050349 0.431044 0.240011 -0.187471 -1.517021
    30 1.531286 -0.015625 -0.089845 0.201374 -0.125948 -1.486078
    31 1.196322 -0.000002 -0.000001 0.153609 -0.258303 -1.168275
    32 3.886489 -0.036605 -0.333118 -0.000016 -0.165950 -1.444708
    33 1.719582 0.000002 0.000006 0.086526 -0.022062 -1.502888
    34 1.209187 0.000003 0.000007 0.054393 -0.082231 -1.201184
    35 3.874262 -0.142787 -1.066241 -0.174942 -0.182997 -1.473729
    36 1.719428 0.000006 0.000011 -0.103388 0.064915 -1.632220
    37 1.099662 0.000004 0.000008 -0.098054 0.081876 -0.945595
    38 1.001908 -0.270364 -1.355073 1.392182 -0.148140 -0.937848
    39 1.789783 -0.000008 -0.000006 0.034677 -0.102161 0.274912
    40 1.207003 -0.000002 -0.000006 0.008133 -0.011581 1.419656
    41 11.480655 -0.000290 -0.000002 -0.642449 0.000000 0.000014
  time 6
    0 0.000000 -0.000006 0.000000 -1.570781 -1.391896 -1.570809
    1 -0.460269 -3.365425 3.768054 1.596636 -1.286515 2.942963
    2 6.028141 0.000002 0.000004 -1.325357 -0.643593 -1.237574
    3 11.692554 0.000081 -0.000005 -0.000034 0.000034 -1.389547
    4 11.481044 -0.000314 -0.000026 2.352182 -0.194076 -0.204055
    5 3.859704 -0.142418 -1.191975 -0.519562 0.098618 -1.800637
    6 1.300845 -0.050798 0.058600 -0.220981 0.263902 -0.977666
    7 0.729366 -0.000005 0.000001 -0.281405 0.461567 -1.071635
    8 3.942332 0.046754 -0.431442 -0.182724 0.089757 -1.752570
    9 1.527375 0.000008 0.050778 0.006824 0.134914 -0.932553
    10 1.196325 -0.000005 0.000003 -0.128985 0.028960 -1.382882
    11 3.760302 0.047151 0.406523 0.054860 0.065148 -1.524486
    12 1.719580 -0.031261 -0.234375 0.020876 -0.059448 -1.194116
    13 1.209185 -0.000007 0.000006 0.047253 -0.028491 -1.186644
    14 3.736467 -0.044027 1.307549 0.413090 0.176585 -1.500929
    15 1.719433 0.000000 -0.000006 0.194828 -0.136714 -1.343235
    16 1.099671 -0.000003 0.000002 0.169358 -0.211879 -0.749971
    17 1.129154 -0.382525 1.323140 -1.456224 -0.038551 -1.069816
    18 1.789781 0.000000 -0.000006 0.030734 0.262891 0.678809
    19 1.206999 0.000002 0.000000 -0.026409 0.009625 1.441998
    20 5.740854 0.000000 -0.000004 0.360231 0.000000 0.000007
    21 11.481708 0.000006 -0.000007 0.514322 0.000000 -0.000007
    22 -0.505633 -4.763861 -3.388479 -1.668474 1.286518 2.942953
    23 6.028141 0.000001 -0.000004 1.370405 0.733240 -1.341156
    24 11.692554 0.000000 0.000002 -0.000002 0.000000 -1.345575
    25 11.480655 -0.000290 -0.000002 -2.375403 0.029437 -0.204630
    26 3.858962 -0.145456 1.102058 0.284839 -0.101414 -1.619220
    27 1.312561 -0.000004 0.000000 0.436560 -0.096996 -1.512260
    28 0.729366 0.000001 -0.000002 0.278449 -0.363328 -0.570710
    29 3.942293 0.050349 0.431044 0.223628 -0.201421 -1.452472
    30 1.531286 -0.019532 -0.113283 0.193464 -0.141456 -1.501752
    31 1.196322 -0.000002 -0.000001 0.106042 -0.340411 -1.041103
    32 3.886489 -0.036605 -0.333118 -0.008478 -0.171463 -1.421740
    33 1.719582 0.000002 0.000006 0.086202 -0.026617 -1.484310
    34 1.209187 0.000003 0.000007 0.044434 -0.110047 -1.141004
    35 3.874262 -0.142787 -1.066241 -0.173444 -0.183812 -1.482119
    36 1.719428 0.000006 0.000011 -0.102573 0.064915 -1.622274
    37 1.099662 0.000004 0.000008 -0.094770 0.085388 -0.909504
    38 1.001908 -0.270364 -1.355073 1.395790 -0.164355 -0.950013
    39 1.789783 -0.000008 -0.000006 0.032495 -0.113941 0.303016
    40 1.207003 -0.000002 -0.000006 0.009427 -0.011581 1.419543
    41 11.480655 -0.000290 -0.000002 -0.606186 0.000000 0.000014
  time 7
    0 0.000000 -0.000006 0.000000 -1.570781 -1.391896 -1.570809
    1 -0.600898 -3.341987 3.799304 1.596636 -1.286515 2.942963
    2 6.028141 0.000002 0.000004 -1.303889 -0.635948 -1.260503
    3 11.692554 0.000081 -0.000005 -0.000034 0.000034 -1.407855
    4 11.481044 -0.000314 -0.000026 2.280113 -0.168654 -0.194203
    5 3.859704 -0.142418 -1.191975 -0.518040 0.102537 -1.791553
    6 1.300845 -0.062517 0.070319 -0.205485 0.263351 -0.907180
    7 0.729366 -0.000005 0.000001 -0.260096 0.521097 -1.050610
    8 3.942332 0.046754 -0.431442 -0.178314 0.098865 -1.745391
    9 1.523468 -0.003899 0.058591 0.027306 0.138989 -0.879837
    10 1.196325 -0.000005 0.000003 -0.127918 0.029439 -1.379202
    11 3.760302 0.047151 0.406523 0.051996 0.059324 -1.515535
    12 1.719580 -0.039074 -0.277345 0.019066 -0.062444 -1.166695
    13 1.209185 -0.000007 0.000006 0.047361 -0.028575 -1.184859
    14 3.736467 -0.044027 1.307549 0.417165 0.181667 -1.496397
    15 1.719433 0.000000 -0.000006 0.191652 -0.132328 -1.324883
    16 1.099671 -0.000003 0.000002 0.150230 -0.224487 -0.666714
    17 1.129154 -0.382525 1.323140 -1.460935 -0.030640 -1.094097
    18 1.789781 0.000000 -0.000006 0.030398 0.271520 0.679825
    19 1.206999 0.000002 0.000000 -0.027547 0.009625 1.441865
    20 5.740854 0.000000 -0.000004 0.334294 0.000000 0.000007
    21 11.481708 0.000006 -0.000007 0.477270 0.000000 -0.000007
    22 -0.646262 -4.740423 -3.357229 -1.668474 1.286518 2.942953
    23 6.028141 0.000001 -0.000004 1.350542 0.727291 -1.365159
    24 11.692554 0.000000 0.000002 -0.000002 0.000000 -1.353727
    25 11.480655 -0.000290 -0.000002 -2.294432 0.008703 -0.202549
    26 3.858962 -0.145456 1.102058 0.285510 -0.093433 -1.585667
    27 1.312561 -0.000004 0.000000 0.436828 -0.092310 -1.508188
    28 0.729366 0.000001 -0.000002 0.213520 -0.419581 -0.423400
    29 3.942293 0.050349 0.431044 0.209127 -0.212339 -1.397860
    30 1.527380 -0.023438 -0.132815 0.186969 -0.154639 -1.514922
    31 1.196322 -0.000002 -0.000001 0.057025 -0.403667 -0.929248
    32 3.886489 -0.036605 -0.333118 -0.015704 -0.175969 -1.402326
    33 1.719582 0.000002 0.000006 0.085866 -0.030440 -1.468655
    34 1.209187 0.000003 0.000007 0.034726 -0.132938 -1.089967
    35 3.874262 -0.142787 -1.066241 -0.172186 -0.184495 -1.489229
    36 1.719428 0.000006 0.000011 -0.101878 0.064915 -1.613834
    37 1.099662 0.000004 0.000008 -0.091918 0.088252 -0.879077
    38 1.001908 -0.270364 -1.355073 1.398989 -0.178012 -0.960343
    39 1.789783 -0.000008 -0.000006 0.030398 -0.123817 0.326757
    40 1.207003 -0.000002 -0.000006 0.010506 -0.011593 1.419487
    41 11.480655 -0.000290 -0.000002 -0.561726 0.000000 0.000014
  time 8
    0 0.000000 -0.000006 0.000000 -1.570781 -1.391896 -1.570809
    1 -0.761059 -3.318549 3.838368 1.596636 -1.286515 2.942963
    2 6.028141 0.000002 0.000004 -1.280902 -0.628605 -1.285412
    3 11.692554 0.000081 -0.000005 -0.000034 0.000034 -1.426683
    4 11.481044 -0.000314 -0.000026 2.195100 -0.141162 -0.186437
    5 3.859704 -0.142418 -1.191975 -0.516962 0.105233 -1.785271
    6 1.296939 -0.066424 0.074225 -0.194879 0.262368 -0.858747
    7 0.729366 -0.000005 0.000001 -0.244144 0.561770 -1.034863
    8 3.942332 0.046754 -0.431442 -0.175222 0.105133 -1.740388
    9 1.523468 -0.003899 0.066404 0.041532 0.141170 -0.843521
    10 1.196325 -0.000005 0.000003 -0.127175 0.029774 -1.376648
    11 3.760302 0.047151 0.406523 0.049982 0.055321 -1.509379
    12 1.719580 -0.042981 -0.308596 0.017772 -0.064481 -1.147762
    13 1.209185 -0.000007 0.000006 0.047433 -0.028635 -1.183640
    14 3.736467 -0.044027 1.307549 0.419994 0.185166 -1.493233
    15 1.719433 0.000000 -0.000006 0.189506 -0.129284 -1.312259
    16 1.099671 -0.000003 0.000002 0.136508 -0.232205 -0.609363
    17 1.129154 -0.382525 1.323140 -1.464291 -0.025245 -1.110875
    18 1.789781 0.000000 -0.000006 0.030170 0.277465 0.680540
    19 1.206999 0.000002 0.000000 -0.028338 0.009625 1.441733
    20 5.740854 0.000000 -0.000004 0.302934 0.000000 0.000007
    21 11.481708 0.000006 -0.000007 0.432469 0.000000 -0.000007
    22 -0.806423 -4.716985 -3.318165 -1.668474 1.286518 2.942953
    23 6.028141 0.000001 -0.000004 1.330309 0.721714 -1.390467
    24 11.692554 0.000000 0.000002 -0.000002 0.000000 -1.362318
    25 11.480655 -0.000290 -0.000002 -2.198306 -0.014356 -0.202799
    26 3.858962 -0.145456 1.102058 0.286121 -0.087944 -1.562527
    27 1.312561 -0.000004 0.000000 0.437043 -0.089062 -1.505441
    28 0.729366 0.000001 -0.000002 0.164044 -0.452113 -0.320046
    29 3.942293 0.050349 0.431044 0.198772 -0.219386 -1.360088
    30 1.527380 -0.027345 -0.148440 0.182570 -0.163771 -1.523964
    31 1.196322 -0.000002 -0.000001 0.018674 -0.443464 -0.849680
    32 3.886489 -0.036605 -0.333118 -0.020762 -0.178989 -1.388889
    33 1.719582 0.000002 0.000006 0.085603 -0.033076 -1.457810
    34 1.209187 0.000003 0.000007 0.027356 -0.148386 -1.054669
    35 3.874262 -0.142787 -1.066241 -0.171311 -0.184962 -1.494120
    36 1.719428 0.000006 0.000011 -0.101398 0.064915 -1.608057
    37 1.099662 0.000004 0.000008 -0.089893 0.090169 -0.858075
    38 1.001908 -0.270364 -1.355073 1.401290 -0.187425 -0.967510
    39 1.789783 -0.000008 -0.000006 0.028804 -0.130612 0.343176
    40 1.207003 -0.000002 -0.000006 0.011261 -0.011593 1.419375
    41 11.480655 -0.000290 -0.000002 -0.508583 0.000000 0.000014
  time 9
    0 0.000000 -0.000006 0.000000 -1.570781 -1.391896 -1.570809
    1 -0.929033 -3.295111 3.877432 1.596636 -1.286515 2.942963
    2 6.028141 0.000002 0.000004 -1.256965 -0.621897 -1.311926
    3 11.692554 0.000081 -0.000005 -0.000034 0.000034 -1.445633
    4 11.481044 -0.000314 -0.000026 2.096850 -0.112933 -0.181867
    5 3.859704 -0.142418 -1.191975 -0.516554 0.106240 -1.782894
    6 1.296939 -0.070330 0.078132 -0.190960 0.261877 -0.840768
    7 0.729366 -0.000005 0.000001 -0.237912 0.576842 -1.028714
    8 3.942332 0.046754 -0.431442 -0.174059 0.107470 -1.738517
    9 1.519562 -0.003899 0.070310 0.046841 0.141853 -0.829984
    10 1.196325 -0.000005 0.000003 -0.126887 0.029894 -1.375695
    11 3.760302 0.047151 0.406523 0.049227 0.053823 -1.507065
    12 1.723486 -0.046887 -0.320315 0.017281 -0.065224 -1.140710
    13 1.209185 -0.000007 0.000006 0.047457 -0.028647 -1.183161
    14 3.736467 -0.044027 1.307549 0.421048 0.186472 -1.492053
    15 1.719433 0.000000 -0.000006 0.188715 -0.128133 -1.307545
    16 1.099671 -0.000003 0.000002 0.131295 -0.234877 -0.588055
    17 1.129154 -0.382525 1.323140 -1.465572 -0.023236 -1.117131
    18 1.789781 0.000000 -0.000006 0.030086 0.279694 0.680794
    19 1.206999 0.000002 0.000000 -0.028638 0.009625 1.441733
    20 5.740854 0.000000 -0.000004 0.265797 0.000000 0.000007
    21 11.481708 0.000006 -0.000007 0.379416 0.000000 -0.000007
    22 -0.974397 -4.693547 -3.279101 -1.668474 1.286518 2.942953
    23 6.028141 0.000001 -0.000004 1.310354 0.716725 -1.416470
    24 11.692554 0.000000 0.000002 -0.000002 0.000000 -1.371708
    25 11.480655 -0.000290 -0.000002 -2.086521 -0.038662 -0.205961
    26 3.858962 -0.145456 1.102058 0.286385 -0.085894 -1.553901
    27 1.312561 -0.000004 0.000000 0.437111 -0.087851 -1.504361
    28 0.729366 0.000001 -0.000002 0.144806 -0.462834 -0.281282
    29 3.942293 0.050349 0.431044 0.194853 -0.221915 -1.346018
    30 1.527380 -0.027345 -0.152346 0.180952 -0.167199 -1.527350
    31 1.196322 -0.000002 -0.000001 0.003478 -0.457400 -0.819549
    32 3.886489 -0.036605 -0.333118 -0.022655 -0.180104 -1.383850
    33 1.719582 0.000002 0.000006 0.085495 -0.034071 -1.453755
    34 1.209187 0.000003 0.000007 0.024468 -0.154067 -1.041474
    35 3.874262 -0.142787 -1.066241 -0.170975 -0.185142 -1.495926
    36 1.719428 0.000006 0.000011 -0.101219 0.064903 -1.605897
    37 1.099662 0.000004 0.000008 -0.089126 0.090877 -0.850226
    38 1.001908 -0.270364 -1.355073 1.402165 -0.190905 -0.970207
    39 1.789783 -0.000008 -0.000006 0.028193 -0.133129 0.349312
    40 1.207003 -0.000002 -0.000006 0.011536 -0.011593 1.419375
    41 11.480655 -0.000290 -0.000002 -0.446200 0.000000 0.000014
  time 10
    0 0.000000 -0.000006 0.000000 -1.570781 -1.391896 -1.570809
    1 -1.104820 -3.267766 3.916496 1.596636 -1.286515 2.942963
    2 6.028141 0.000002 0.000004 -1.232458 -0.616186 -1.339856
    3 11.692554 0.000081 -0.000005 -0.000034 0.000034 -1.464308
    4 11.481044 -0.000314 -0.000026 1.985438 -0.085740 -0.181207
    5 3.859704 -0.142418 -1.191975 -0.516554 0.106240 -1.782894
    6 1.296939 -0.070330 0.078132 -0.190960 0.261877 -0.840768
    7 0.729366 -0.000005 0.000001 -0.237912 0.576842 -1.028714
    8 3.942332 0.046754 -0.431442 -0.174059 0.107470 -1.738517
    9 1.519562 -0.003899 0.070310 0.046841 0.141853 -0.829984
    10 1.196325 -0.000005 0.000003 -0.126887 0.029894 -1.375695
    11 3.760302 0.047151 0.406523 0.049227 0.053823 -1.507065
    12 1.723486 -0.046887 -0.320315 0.017281 -0.065224 -1.140710
    13 1.209185 -0.000007 0.000006 0.047457 -0.028647 -1.183161
    14 3.736467 -0.044027 1.307549 0.421048 0.186472 -1.492053
    15 1.719433 0.000000 -0.000006 0.188715 -0.128133 -1.307545
    16 1.099671 -0.000003 0.000002 0.131295 -0.234877 -0.588055
    17 1.129154 -0.382525 1.323140 -1.465572 -0.023236 -1.117131
    18 1.789781 0.000000 -0.000006 0.030086 0.279694 0.680794
    19 1.206999 0.000002 0.000000 -0.028638 0.009625 1.441733
    20 5.740854 0.000000 -0.000004 0.222608 0.000000 0.000007
    21 11.481708 0.000006 -0.000007 0.317661 0.000000 -0.000007
    22 -1.150184 -4.666202 -3.240037 -1.668474 1.286518 2.942953
    23 6.028141 0.000001 -0.000004 1.291327 0.712616 -1.442821
    24 11.692554 0.000000 0.000002 -0.000002 0.000000 -1.382018
    25 11.480655 -0.000290 -0.000002 -1.959162 -0.062587 -0.212660
    26 3.858962 -0.145456 1.102058 0.286385 -0.085894 -1.553901
    27 1.312561 -0.000004 0.000000 0.437111 -0.087851 -1.504361
    28 0.729366 0.000001 -0.000002 0.144806 -0.462834 -0.281282
    29 3.942293 0.050349 0.431044 0.194853 -0.221915 -1.346018
    30 1.527380 -0.027345 -0.152346 0.180952 -0.167199 -1.527350
    31 1.196322 -0.000002 -0.000001 0.003478 -0.457400 -0.819549
    32 3.886489 -0.036605 -0.333118 -0.022655 -0.180104 -1.383850
    33 1.719582 0.000002 0.000006 0.085495 -0.034071 -1.453755
    34 1.209187 0.000003 0.000007 0.024468 -0.154067 -1.041474
    35 3.874262 -0.142787 -1.066241 -0.170975 -0.185142 -1.495926
    36 1.719428 0.000006 0.000011 -0.101231 0.064903 -1.605897
    37 1.099662 0.000004 0.000008 -0.089126 0.090877 -0.850226
    38 1.001908 -0.270364 -1.355073 1.402165 -0.190905 -0.970207
    39 1.789783 -0.000008 -0.000006 0.028193 -0.133129 0.349312
    40 1.207003 -0.000002 -0.000006 0.011536 -0.011593 1.419375
    41 11.480655 -0.000290 -0.000002 -0.374301 0.000000 0.000014
  time 11
    0 0.000000 -0.000006 0.000000 -1.570781 -1.391896 -1.570809
    1 -1.288419 -3.244328 3.959466 1.596636 -1.286515 2.942963
    2 6.028141 0.000002 0.000004 -1.207855 -0.611865 -1.368917
    3 11.692554 0.000081 -0.000005 -0.000034 0.000034 -1.482433
    4 11.481044 -0.000314 -0.000026 1.861809 -0.061882 -0.184773
    5 3.859704 -0.142418 -1.191975 -0.516554 0.106240 -1.782894
    6 1.296939 -0.070330 0.078132 -0.190960 0.261877 -0.840768
    7 0.729366 -0.000005 0.000001 -0.237912 0.576842 -1.028714
    8 3.942332 0.046754 -0.431442 -0.174059 0.107470 -1.738517
    9 1.519562 -0.003899 0.070310 0.046841 0.141853 -0.829984
    10 1.196325 -0.000005 0.000003 -0.126887 0.029894 -1.375695
    11 3.760302 0.047151 0.406523 0.049227 0.053823 -1.507065
    12 1.723486 -0.046887 -0.320315 0.017281 -0.065224 -1.140710
    13 1.209185 -0.000007 0.000006 0.047457 -0.028647 -1.183161
    14 3.736467 -0.044027 1.307549 0.421048 0.186472 -1.492053
    15 1.719433 0.000000 -0.000006 0.188715 -0.128133 -1.307545
    16 1.099671 -0.000003 0.000002 0.131295 -0.234877 -0.588055
    17 1.129154 -0.382525 1.323140 -1.465572 -0.023236 -1.117131
    18 1.789781 0.000000 -0.000006 0.030086 0.279694 0.680794
    19 1.206999 0.000002 0.000000 -0.028638 0.009625 1.441689
    20 5.740854 0.000000 -0.000004 0.172974 0.000000 0.000007
    21 11.481708 0.000006 -0.000007 0.246812 0.000000 -0.000007
    22 -1.333783 -4.642764 -3.197067 -1.668474 1.286518 2.942953
    23 6.028141 0.000001 -0.000004 1.273693 0.709868 -1.468911
    24 11.692554 0.000000 0.000002 -0.000002 0.000000 -1.393406
    25 11.480655 -0.000290 -0.000002 -1.817484 -0.083955 -0.222813
    26 3.858962 -0.145456 1.102058 0.286385 -0.085894 -1.553901
    27 1.312561 -0.000004 0.000000 0.437111 -0.087851 -1.504361
    28 0.729366 0.000001 -0.000002 0.144806 -0.462834 -0.281282
    29 3.942293 0.050349 0.431044 0.194853 -0.221915 -1.346018
    30 1.527380 -0.027345 -0.152346 0.180952 -0.167199 -1.527350
    31 1.196322 -0.000002 -0.000001 0.003478 -0.457400 -0.819549
    32 3.886489 -0.036605 -0.333118 -0.022655 -0.180104 -1.383850
    33 1.719582 0.000002 0.000006 0.085495 -0.034071 -1.453755
    34 1.209187 0.000003 0.000007 0.024468 -0.154067 -1.041474
    35 3.874262 -0.142787 -1.066241 -0.170975 -0.185142 -1.495926
    36 1.719428 0.000006 0.000011 -0.101219 0.064903 -1.605897
    37 1.099662 0.000004 0.000008 -0.089126 0.090877 -0.850226
    38 1.001908 -0.270364 -1.355073 1.402165 -0.190905 -0.970207
    39 1.789783 -0.000008 -0.000006 0.028193 -0.133129 0.349312
    40 1.207003 -0.000002 -0.000006 0.011536 -0.011593 1.419375
    41 11.480655 -0.000290 -0.000002 -0.292536 0.000000 0.000014
  time 12
    0 0.000000 -0.000006 0.000000 -1.570781 -1.391896 -1.570809
    1 -1.472018 -3.216983 3.998529 1.596636 -1.286515 2.942963
    2 6.028141 0.000002 0.000004 -1.183538 -0.609326 -1.398828
    3 11.692554 0.000081 -0.000005 -0.000034 0.000034 -1.499855
    4 11.481044 -0.000314 -0.000026 1.727562 -0.044006 -0.191958
    5 3.859704 -0.142418 -1.191975 -0.516554 0.106240 -1.782894
    6 1.296939 -0.070330 0.078132 -0.190960 0.261877 -0.840768
    7 0.729366 -0.000005 0.000001 -0.237912 0.576842 -1.028714
    8 3.942332 0.046754 -0.431442 -0.174059 0.107470 -1.738517
    9 1.519562 -0.003899 0.070310 0.046841 0.141853 -0.829984
    10 1.196325 -0.000005 0.000003 -0.126887 0.029894 -1.375695
    11 3.760302 0.047151 0.406523 0.049227 0.053823 -1.507065
    12 1.723486 -0.046887 -0.320315 0.017281 -0.065224 -1.140710
    13 1.209185 -0.000007 0.000006 0.047457 -0.028647 -1.183161
    14 3.736467 -0.044027 1.307549 0.421048 0.186472 -1.492053
    15 1.719433 0.000000 -0.000006 0.188715 -0.128133 -1.307545
    16 1.099671 -0.000003 0.000002 0.131295 -0.234877 -0.588055
    17 1.129154 -0.382525 1.323140 -1.465572 -0.023236 -1.117131
    18 1.789781 0.000000 -0.000006 0.030086 0.279694 0.680794
    19 1.206999 0.000002 0.000000 -0.028638 0.009625 1.441733
    20 5.740854 0.000000 -0.000004 0.116542 0.000000 0.000007
    21 11.481708 0.000006 -0.000007 0.166194 0.000000 -0.000007
    22 -1.517382 -4.615419 -3.158004 -1.668474 1.286518 2.942953
    23 6.028141 0.000001 -0.000004 1.257914 0.708881 -1.494479
    24 11.692554 0.000000 0.000002 -0.000002 0.000000 -1.406073
    25 11.480655 -0.000290 -0.000002 -1.663749 -0.100272 -0.235504
    26 3.858962 -0.145456 1.102058 0.286385 -0.085894 -1.553901
    27 1.312561 -0.000004 0.000000 0.437111 -0.087851 -1.504361
    28 0.729366 0.000001 -0.000002 0.144806 -0.462850 -0.281282
    29 3.942293 0.050349 0.431044 0.194853 -0.221915 -1.346018
    30 1.527380 -0.027345 -0.152346 0.180952 -0.167199 -1.527350
    31 1.196322 -0.000002 -0.000001 0.003478 -0.457400 -0.819549
    32 3.886489 -0.036605 -0.333118 -0.022655 -0.180104 -1.383850
    33 1.719582 0.000002 0.000006 0.085495 -0.034071 -1.453755
    34 1.209187 0.000003 0.000007 0.024468 -0.154067 -1.041474
    35 3.874262 -0.142787 -1.066241 -0.170975 -0.185142 -1.495926
    36 1.719428 0.000006 0.000011 -0.101231 0.064903 -1.605897
    37 1.099662 0.000004 0.000008 -0.089126 0.090877 -0.850226
    38 1.001908 -0.270364 -1.355073 1.402165 -0.190905 -0.970207
    39 1.789783 -0.000008 -0.000006 0.028193 -0.133129 0.349312
    40 1.207003 -0.000002 -0.000006 0.011536 -0.011593 1.419375
    41 11.480655 -0.000290 -0.000002 -0.200630 0.000000 0.000014
  time 13
    0 0.000000 -0.000006 0.000000 -1.570781 -1.391896 -1.570809
    1 -1.659524 -3.189639 4.041499 1.596636 -1.286515 2.942963
    2 6.028141 0.000002 0.000004 -1.159316 -0.608601 -1.429682
    3 11.692554 0.000081 -0.000005 -0.000046 0.000034 -1.515932
    4 11.481044 -0.000314 -0.000026 1.586042 -0.034597 -0.201942
    5 3.859704 -0.142418 -1.191975 -0.516554 0.106240 -1.782894
    6 1.296939 -0.070330 0.078132 -0.190960 0.261877 -0.840768
    7 0.729366 -0.000005 0.000001 -0.237912 0.576842 -1.028714
    8 3.942332 0.046754 -0.431442 -0.174059 0.107470 -1.738517
    9 1.519562 -0.003899 0.070310 0.046841 0.141853 -0.829984
    10 1.196325 -0.000005 0.000003 -0.126887 0.029894 -1.375695
    11 3.760302 0.047151 0.406523 0.049227 0.053823 -1.507065
    12 1.723486 -0.046887 -0.320315 0.017281 -0.065224 -1.140710
    13 1.209185 -0.000007 0.000006 0.047457 -0.028647 -1.183161
    14 3.736467 -0.044027 1.307549 0.421048 0.186472 -1.492053
    15 1.719433 0.000000 -0.000006 0.188715 -0.128133 -1.307545
    16 1.099671 -0.000003 0.000002 0.131295 -0.234877 -0.588055
    17 1.129154 -0.382525 1.323140 -1.465572 -0.023236 -1.117131
    18 1.789781 0.000000 -0.000006 0.030086 0.279694 0.680794
    19 1.206999 0.000002 0.000000 -0.028638 0.009625 1.441733
    20 5.740854 0.000000 -0.000004 0.053114 0.000000 0.000007
    21 11.481708 0.000006 -0.000007 0.075582 0.000000 -0.000007
    22 -1.704888 -4.588075 -3.115034 -1.668474 1.286518 2.942953
    23 6.028141 0.000001 -0.000004 1.243157 0.709468 -1.519961
    24 11.692554 0.000000 0.000002 -0.000002 0.000000 -1.419060
    25 11.480655 -0.000290 -0.000002 -1.502477 -0.108790 -0.250192
    26 3.858962 -0.145456 1.102058 0.286385 -0.085894 -1.553901
    27 1.312561 -0.000004 0.000000 0.437111 -0.087851 -1.504361
    28 0.729366 0.000001 -0.000002 0.144806 -0.462834 -0.281282
    29 3.942293 0.050349 0.431044 0.194853 -0.221915 -1.346018
    30 1.527380 -0.027345 -0.152346 0.180952 -0.167199 -1.527350
    31 1.196322 -0.000002 -0.000001 0.003478 -0.457400 -0.819549
    32 3.886489 -0.036605 -0.333118 -0.022655 -0.180104 -1.383850
    33 1.719582 0.000002 0.000006 0.085495 -0.034071 -1.453755
    34 1.209187 0.000003 0.000007 0.024468 -0.154067 -1.041474
    35 3.874262 -0.142787 -1.066241 -0.170975 -0.185142 -1.495926
    36 1.719428 0.000006 0.000011 -0.101219 0.064903 -1.605897
    37 1.099662 0.000004 0.000008 -0.089126 0.090877 -0.850226
    38 1.001908 -0.270364 -1.355073 1.402165 -0.190905 -0.970207
    39 1.789783 -0.000008 -0.000006 0.028193 -0.133129 0.349312
    40 1.207003 -0.000002 -0.000006 0.011536 -0.011593 1.419375
    41 11.480655 -0.000290 -0.000002 -0.098442 0.000000 0.000014
  time 14
    0 0.000000 -0.000006 0.000000 -1.570781 -1.391896 -1.570809
    1 -1.847030 -3.162294 4.084469 1.596636 -1.286515 2.942963
    2 6.028141 0.000002 0.000004 -1.135094 -0.609296 -1.461574
    3 11.692554 0.000081 -0.000005 -0.000046 0.000034 -1.530084
    4 11.481044 -0.000314 -0.000026 1.442341 -0.034413 -0.213274
    5 3.859704 -0.142418 -1.191975 -0.516554 0.106240 -1.782894
    6 1.296939 -0.070330 0.078132 -0.190960 0.261877 -0.840768
    7 0.729366 -0.000005 0.000001 -0.237912 0.576842 -1.028714
    8 3.942332 0.046754 -0.431442 -0.174059 0.107470 -1.738517
    9 1.519562 -0.003899 0.070310 0.046841 0.141853 -0.829984
    10 1.196325 -0.000005 0.000003 -0.126887 0.029894 -1.375695
    11 3.760302 0.047151 0.406523 0.049227 0.053823 -1.507065
    12 1.723486 -0.046887 -0.320315 0.017281 -0.065224 -1.140710
    13 1.209185 -0.000007 0.000006 0.047457 -0.028647 -1.183161
    14 3.736467 -0.044027 1.307549 0.421048 0.186472 -1.492053
    15 1.719433 0.000000 -0.000006 0.188715 -0.128133 -1.307545
    16 1.099671 -0.000003 0.000002 0.131295 -0.234877 -0.588055
    17 1.129154 -0.382525 1.323140 -1.465572 -0.023236 -1.117131
    18 1.789781 0.000000 -0.000006 0.030086 0.279694 0.680794
    19 1.206999 0.000002 0.000000 -0.028638 0.009625 1.441733
    20 5.740854 0.000000 -0.000004 -0.016759 -0.000024 0.000007
    21 11.481708 0.000006 -0.000007 -0.024180 0.000000 -0.000007
    22 -1.892394 -4.560730 -3.072064 -1.668474 1.286518 2.942953
    23 6.028141 0.000001 -0.000004 1.228585 0.710962 -1.545790
    24 11.692554 0.000000 0.000002 -0.000002 0.000000 -1.431088
    25 11.480655 -0.000290 -0.000002 -1.340034 -0.108346 -0.265796
    26 3.858962 -0.145456 1.102058 0.286385 -0.085894 -1.553901
    27 1.312561 -0.000004 0.000000 0.437111 -0.087851 -1.504361
    28 0.729366 0.000001 -0.000002 0.144806 -0.462834 -0.281282
    29 3.942293 0.050349 0.431044 0.194853 -0.221915 -1.346018
    30 1.527380 -0.027345 -0.152346 0.180952 -0.167199 -1.527350
    31 1.196322 -0.000002 -0.000001 0.003478 -0.457400 -0.819549
    32 3.886489 -0.036605 -0.333118 -0.022655 -0.180104 -1.383850
    33 1.719582 0.000002 0.000006 0.085495 -0.034071 -1.453755
    34 1.209187 0.000003 0.000007 0.024468 -0.154067 -1.041474
    35 3.874262 -0.142787 -1.066241 -0.170975 -0.185142 -1.495926
    36 1.719428 0.000006 0.000011 -0.101231 0.064903 -1.605897
    37 1.099662 0.000004 0.000008 -0.089126 0.090877 -0.850226
    38 1.001908 -0.270364 -1.355073 1.402165 -0.190905 -0.970207
    39 1.789783 -0.000008 -0.000006 0.028193 -0.133129 0.349312
    40 1.207003 -0.000002 -0.000006 0.011536 -0.011593 1.419375
    41 11.480655 -0.000290 -0.000002 0.013125 -0.000012 0.000014
  time 15
    0 0.000000 -0.000006 0.000000 -1.570781 -1.391896 -1.570809
    1 -2.030629 -3.134950 4.127439 1.596636 -1.286515 2.942963
    2 6.028141 0.000002 0.000004 -1.110872 -0.611109 -1.494221
    3 11.692554 0.000081 -0.000005 -0.000046 0.000034 -1.542126
    4 11.481044 -0.000314 -0.000026 1.301694 -0.042649 -0.223840
    5 3.859704 -0.142418 -1.191975 -0.516554 0.106240 -1.782894
    6 1.296939 -0.070330 0.078132 -0.190960 0.261877 -0.840768
    7 0.729366 -0.000005 0.000001 -0.237912 0.576842 -1.028714
    8 3.942332 0.046754 -0.431442 -0.174059 0.107470 -1.738517
    9 1.519562 -0.003899 0.070310 0.046841 0.141853 -0.829984
    10 1.196325 -0.000005 0.000003 -0.126887 0.029894 -1.375695
    11 3.760302 0.047151 0.406523 0.049227 0.053823 -1.507065
    12 1.723486 -0.046887 -0.320315 0.017281 -0.065224 -1.140710
    13 1.209185 -0.000007 0.000006 0.047457 -0.028647 -1.183161
    14 3.736467 -0.044027 1.307549 0.421048 0.186472 -1.492053
    15 1.719433 0.000000 -0.000006 0.188715 -0.128133 -1.307545
    16 1.099671 -0.000003 0.000002 0.131295 -0.234877 -0.588055
    17 1.129154 -0.382525 1.323140 -1.465572 -0.023236 -1.117131
    18 1.789781 0.000000 -0.000006 0.030086 0.279694 0.680794
    19 1.206999 0.000002 0.000000 -0.028638 0.009625 1.441733
    20 5.740854 0.000000 -0.000004 -0.092055 0.000000 0.000007
    21 11.481708 0.000006 -0.000007 -0.131801 0.000000 -0.000007
    22 -2.075993 -4.533385 -3.029094 -1.668474 1.286518 2.942953
    23 6.028141 0.000001 -0.000004 1.214199 0.713177 -1.571793
    24 11.692554 0.000000 0.000002 -0.000002 0.000000 -1.442036
    25 11.480655 -0.000290 -0.000002 -1.182195 -0.099744 -0.279735
    26 3.858962 -0.145456 1.102058 0.286385 -0.085894 -1.553901
    27 1.312561 -0.000004 0.000000 0.437111 -0.087851 -1.504361
    28 0.729366 0.000001 -0.000002 0.144806 -0.462834 -0.281282
    29 3.942293 0.050349 0.431044 0.194853 -0.221915 -1.346018
    30 1.527380 -0.027345 -0.152346 0.180952 -0.167199 -1.527350
    31 1.196322 -0.000002 -0.000001 0.003478 -0.457400 -0.819549
    32 3.886489 -0.036605 -0.333118 -0.022655 -0.180104 -1.383850
    33 1.719582 0.000002 0.000006 0.085495 -0.034071 -1.453755
    34 1.209187 0.000003 0.000007 0.024468 -0.154067 -1.041474
    35 3.874262 -0.142787 -1.066241 -0.170975 -0.185142 -1.495926
    36 1.719428 0.000006 0.000011 -0.101231 0.064903 -1.605897
    37 1.099662 0.000004 0.000008 -0.089126 0.090877 -0.850226
    38 1.001908 -0.270364 -1.355073 1.402165 -0.190905 -0.970207
    39 1.789783 -0.000008 -0.000006 0.028193 -0.133129 0.349312
    40 1.207003 -0.000002 -0.000006 0.011536 -0.011593 1.419375
    41 11.480655 -0.000290 -0.000002 0.132680 0.000000 0.000014
  time 16
    0 0.000000 -0.000006 0.000000 -1.570781 -1.391896 -1.570809
    1 -2.206416 -3.107605 4.166503 1.596636 -1.286515 2.942963
    2 6.028141 0.000002 0.000004 -1.087030 -0.613678 -1.527245
    3 11.692554 0.000081 -0.000005 -0.000046 0.000034 -1.552060
    4 11.481044 -0.000314 -0.000026 1.168610 -0.057672 -0.232081
    5 3.859704 -0.142418 -1.191975 -0.516554 0.106240 -1.782894
    6 1.296939 -0.070330 0.078132 -0.190960 0.261877 -0.840768
    7 0.729366 -0.000005 0.000001 -0.237912 0.576842 -1.028714
    8 3.942332 0.046754 -0.431442 -0.174059 0.107470 -1.738517
    9 1.519562 -0.003899 0.070310 0.046841 0.141853 -0.829984
    10 1.196325 -0.000005 0.000003 -0.126887 0.029894 -1.375695
    11 3.760302 0.047151 0.406523 0.049227 0.053823 -1.507065
    12 1.723486 -0.046887 -0.320315 0.017281 -0.065224 -1.140710
    13 1.209185 -0.000007 0.000006 0.047457 -0.028647 -1.183161
    14 3.736467 -0.044027 1.307549 0.421048 0.186472 -1.492053
    15 1.719433 0.000000 -0.000006 0.188715 -0.128133 -1.307545
    16 1.099671 -0.000003 0.000002 0.131295 -0.234877 -0.588055
    17 1.129154 -0.382525 1.323140 -1.465572 -0.023236 -1.117131
    18 1.789781 0.000000 -0.000006 0.030086 0.279694 0.680794
    19 1.206999 0.000002 0.000000 -0.028638 0.009625 1.441733
    20 5.740854 0.000000 -0.000004 -0.171477 0.000000 0.000007
    21 11.481708 0.000006 -0.000007 -0.245262 0.000000 -0.000007
    22 -2.251780 -4.506041 -2.990030 -1.668474 1.286518 2.942953
    23 6.028141 0.000001 -0.000004 1.199998 0.715978 -1.597535
    24 11.692554 0.000000 0.000002 -0.000002 0.000000 -1.451787
    25 11.480655 -0.000290 -0.000002 -1.034070 -0.084737 -0.290137
    26 3.858962 -0.145456 1.102058 0.286385 -0.085894 -1.553901
    27 1.312561 -0.000004 0.000000 0.437111 -0.087851 -1.504361
    28 0.729366 0.000001 -0.000002 0.144806 -0.462834 -0.281282
    29 3.942293 0.050349 0.431044 0.194853 -0.221915 -1.346018
    30 1.527380 -0.027345 -0.152346 0.180952 -0.167199 -1.527350
    31 1.196322 -0.000002 -0.000001 0.003478 -0.457400 -0.819549
    32 3.886489 -0.036605 -0.333118 -0.022655 -0.180104 -1.383850
    33 1.719582 0.000002 0.000006 0.085495 -0.034071 -1.453755
    34 1.209187 0.000003 0.000007 0.024468 -0.154067 -1.041474
    35 3.874262 -0.142787 -1.066241 -0.170975 -0.185142 -1.495926
    36 1.719428 0.000006 0.000011 -0.101231 0.064903 -1.605897
    37 1.099662 0.000004 0.000008 -0.089126 0.090877 -0.850226
    38 1.001908 -0.270364 -1.355073 1.402165 -0.190905 -0.970207
    39 1.789783 -0.000008 -0.000006 0.028193 -0.133129 0.349312
    40 1.207003 -0.000002 -0.000006 0.011536 -0.011593 1.419375
    41 11.480655 -0.000290 -0.000002 0.257792 0.000000 0.000014
  time 17
    0 0.000000 -0.000006 0.000000 -1.570781 -1.391896 -1.570809
    1 -2.374390 -3.084167 4.205567 1.596636 -1.286515 2.942963
    2 6.028141 0.000002 0.000004 -1.063757 -0.616790 -1.560081
    3 11.692554 0.000081 -0.000005 -0.000046 0.000034 -1.559884
    4 11.481044 -0.000314 -0.000026 1.046799 -0.077319 -0.237021
    5 3.859704 -0.142418 -1.191975 -0.516554 0.106240 -1.782894
    6 1.296939 -0.070330 0.078132 -0.190960 0.261877 -0.840768
    7 0.729366 -0.000005 0.000001 -0.237912 0.576842 -1.028714
    8 3.942332 0.046754 -0.431442 -0.174059 0.107470 -1.738517
    9 1.519562 -0.003899 0.070310 0.046841 0.141853 -0.829984
    10 1.196325 -0.000005 0.000003 -0.126887 0.029894 -1.375695
    11 3.760302 0.047151 0.406523 0.049227 0.053823 -1.507065
    12 1.723486 -0.046887 -0.320315 0.017281 -0.065224 -1.140710
    13 1.209185 -0.000007 0.000006 0.047457 -0.028647 -1.183161
    14 3.736467 -0.044027 1.307549 0.421048 0.186472 -1.492053
    15 1.719433 0.000000 -0.000006 0.188715 -0.128133 -1.307545
    16 1.099671 -0.000003 0.000002 0.131295 -0.234877 -0.588055
    17 1.129154 -0.382525 1.323140 -1.465572 -0.023236 -1.117131
    18 1.789781 0.000000 -0.000006 0.030086 0.279694 0.680794
    19 1.206999 0.000002 0.000000 -0.028638 0.009625 1.441733
    20 5.740854 0.000000 -0.000004 -0.252864 0.000000 0.000007
    21 11.481708 0.000006 -0.000007 -0.361529 0.000000 -0.000007
    22 -2.419754 -4.482603 -2.950966 -1.668474 1.286518 2.942953
    23 6.028141 0.000001 -0.000004 1.186169 0.719126 -1.622756
    24 11.692554 0.000000 0.000002 -0.000002 0.000000 -1.460338
    25 11.480655 -0.000290 -0.000002 -0.899426 -0.065631 -0.296088
    26 3.858962 -0.145456 1.102058 0.286385 -0.085894 -1.553901
    27 1.312561 -0.000004 0.000000 0.437111 -0.087851 -1.504361
    28 0.729366 0.000001 -0.000002 0.144806 -0.462850 -0.281282
    29 3.942293 0.050349 0.431044 0.194853 -0.221915 -1.346018
    30 1.527380 -0.027345 -0.152346 0.180952 -0.167199 -1.527350
    31 1.196322 -0.000002 -0.000001 0.003478 -0.457400 -0.819549
    32 3.886489 -0.036605 -0.333118 -0.022655 -0.180104 -1.383850
    33 1.719582 0.000002 0.000006 0.085495 -0.034071 -1.453755
    34 1.209187 0.000003 0.000007 0.024468 -0.154067 -1.041474
    35 3.874262 -0.142787 -1.066241 -0.170975 -0.185142 -1.495926
    36 1.719428 0.000006 0.000011 -0.101231 0.064903 -1.605897
    37 1.099662 0.000004 0.000008 -0.089126 0.090877 -0.850226
    38 1.001908 -0.270364 -1.355073 1.402165 -0.190905 -0.970207
    39 1.789783 -0.000008 -0.000006 0.028193 -0.133129 0.349312
    40 1.207003 -0.000002 -0.000006 0.011536 -0.011593 1.419375
    41 11.480655 -0.000290 -0.000002 0.384433 0.000000 0.000014
  time 18
    0 0.000000 -0.000006 0.000000 -1.570781 -1.391896 -1.570809
    1 -2.530644 -3.060729 4.240724 1.596636 -1.286515 2.942963
    2 6.028141 0.000002 0.000004 -1.041435 -0.620114 -1.592068
    3 11.692554 0.000081 -0.000005 -0.000046 0.000034 -1.565722
    4 11.481044 -0.000314 -0.000026 0.938441 -0.099313 -0.238579
    5 3.859704 -0.142418 -1.191975 -0.516554 0.106240 -1.782894
    6 1.296939 -0.070330 0.078132 -0.190960 0.261877 -0.840768
    7 0.729366 -0.000005 0.000001 -0.237912 0.576842 -1.028714
    8 3.942332 0.046754 -0.431442 -0.174059 0.107470 -1.738517
    9 1.519562 -0.003899 0.070310 0.046841 0.141853 -0.829984
    10 1.196325 -0.000005 0.000003 -0.126887 0.029894 -1.375695
    11 3.760302 0.047151 0.406523 0.049227 0.053823 -1.507065
    12 1.723486 -0.046887 -0.320315 0.017281 -0.065224 -1.140710
    13 1.209185 -0.000007 0.000006 0.047457 -0.028647 -1.183161
    14 3.736467 -0.044027 1.307549 0.421048 0.186472 -1.492053
    15 1.719433 0.000000 -0.000006 0.188715 -0.128133 -1.307545
    16 1.099671 -0.000003 0.000002 0.131295 -0.234877 -0.588055
    17 1.129154 -0.382525 1.323140 -1.465572 -0.023236 -1.117131
    18 1.789781 0.000000 -0.000006 0.030086 0.279694 0.680794
    19 1.206999 0.000002 0.000000 -0.028638 0.009625 1.441733
    20 5.740854 0.000000 -0.000004 -0.333072 0.000000 0.000007
    21 11.481708 0.000006 -0.000007 -0.476113 0.000000 -0.000007
    22 -2.576009 -4.459164 -2.915809 -1.668474 1.286518 2.942953
    23 6.028141 0.000001 -0.000004 1.172990 0.722515 -1.647019
    24 11.692554 0.000000 0.000002 -0.000002 0.000000 -1.467650
    25 11.480655 -0.000290 -0.000002 -0.780356 -0.044685 -0.297710
    26 3.858962 -0.145456 1.102058 0.286385 -0.085894 -1.553901
    27 1.312561 -0.000004 0.000000 0.437111 -0.087851 -1.504361
    28 0.729366 0.000001 -0.000002 0.144806 -0.462834 -0.281282
    29 3.942293 0.050349 0.431044 0.194853 -0.221915 -1.346018
    30 1.527380 -0.027345 -0.152346 0.180952 -0.167199 -1.527350
    31 1.196322 -0.000002 -0.000001 0.003478 -0.457400 -0.819549
    32 3.886489 -0.036605 -0.333118 -0.022655 -0.180104 -1.383850
    33 1.719582 0.000002 0.000006 0.085495 -0.034071 -1.453755
    34 1.209187 0.000003 0.000007 0.024468 -0.154067 -1.041474
    35 3.874262 -0.142787 -1.066241 -0.170975 -0.185142 -1.495926
    36 1.719428 0.000006 0.000011 -0.101231 0.064903 -1.605897
    37 1.099662 0.000004 0.000008 -0.089126 0.090877 -0.850226
    38 1.001908 -0.270364 -1.355073 1.402165 -0.190905 -0.970207
    39 1.789783 -0.000008 -0.000006 0.028193 -0.133129 0.349312
    40 1.207003 -0.000002 -0.000006 0.011536 -0.011593 1.419375
    41 11.480655 -0.000290 -0.000002 0.507114 0.000000 0.000014
  time 19
    0 0.000000 -0.000006 0.000000 -1.570781 -1.391896 -1.570809
    1 -2.675180 -3.041197 4.275882 1.596636 -1.286515 2.942963
    2 6.028141 0.000002 0.000004 -1.020537 -0.623438 -1.622545
    3 11.692554 0.000081 -0.000005 -0.000046 0.000034 -1.569787
    4 11.481044 -0.000314 -0.000026 0.844774 -0.121652 -0.237205
    5 3.859704 -0.142418 -1.191975 -0.516554 0.106240 -1.782894
    6 1.296939 -0.070330 0.078132 -0.190960 0.261877 -0.840768
    7 0.729366 -0.000005 0.000001 -0.237912 0.576842 -1.028714
    8 3.942332 0.046754 -0.431442 -0.174059 0.107470 -1.738517
    9 1.519562 -0.003899 0.070310 0.046841 0.141853 -0.829984
    10 1.196325 -0.000005 0.000003 -0.126887 0.029894 -1.375695
    11 3.760302 0.047151 0.406523 0.049227 0.053823 -1.507065
    12 1.723486 -0.046887 -0.320315 0.017281 -0.065224 -1.140710
    13 1.209185 -0.000007 0.000006 0.047457 -0.028647 -1.183161
    14 3.736467 -0.044027 1.307549 0.421048 0.186472 -1.492053
    15 1.719433 0.000000 -0.000006 0.188715 -0.128133 -1.307545
    16 1.099671 -0.000003 0.000002 0.131295 -0.234877 -0.588055
    17 1.129154 -0.382525 1.323140 -1.465572 -0.023236 -1.117131
    18 1.789781 0.000000 -0.000006 0.030086 0.279694 0.680794
    19 1.206999 0.000002 0.000000 -0.028638 0.009625 1.441733
    20 5.740854 0.000000 -0.000004 -0.408643 0.000000 0.000007
    21 11.481708 0.000006 -0.000007 -0.584071 0.000000 -0.000007
    22 -2.720544 -4.439633 -2.880651 -1.668474 1.286518 2.942953
    23 6.028141 0.000001 -0.000004 1.160553 0.725930 -1.669805
    24 11.692554 0.000000 0.000002 -0.000002 0.000000 -1.473764
    25 11.480655 -0.000290 -0.000002 -0.677866 -0.023803 -0.295671
    26 3.858962 -0.145456 1.102058 0.286385 -0.085894 -1.553901
    27 1.312561 -0.000004 0.000000 0.437111 -0.087851 -1.504361
    28 0.729366 0.000001 -0.000002 0.144806 -0.462834 -0.281282
    29 3.942293 0.050349 0.431044 0.194853 -0.221915 -1.346018
    30 1.527380 -0.027345 -0.152346 0.180952 -0.167199 -1.527350
    31 1.196322 -0.000002 -0.000001 0.003478 -0.457416 -0.819549
    32 3.886489 -0.036605 -0.333118 -0.022655 -0.180104 -1.383850
    33 1.719582 0.000002 0.000006 0.085495 -0.034071 -1.453755
    34 1.209187 0.000003 0.000007 0.024468 -0.154067 -1.041474
    35 3.874262 -0.142787 -1.066241 -0.170975 -0.185142 -1.495926
    36 1.719428 0.000006 0.000011 -0.101231 0.064903 -1.605897
    37 1.099662 0.000004 0.000008 -0.089126 0.090877 -0.850226
    38 1.001908 -0.270364 -1.355073 1.402165 -0.190905 -0.970207
    39 1.789783 -0.000008 -0.000006 0.028193 -0.133129 0.349312
    40 1.207003 -0.000002 -0.000006 0.011536 -0.011593 1.419375
    41 11.480655 -0.000290 -0.000002 0.620278 0.000000 0.000014
  time 20
    0 0.000000 -0.000006 0.000000 -1.570781 -1.391896 -1.570809
    1 -2.804090 -3.021665 4.303226 1.596636 -1.286515 2.942963
    2 6.028141 0.000002 0.000004 -1.001635 -0.626430 -1.650662
    3 11.692554 0.000081 -0.000005 -0.000046 0.000034 -1.572661
    4 11.481044 -0.000314 -0.000026 0.766014 -0.142795 -0.233640
    5 3.859704 -0.142418 -1.191975 -0.516554 0.106240 -1.782894
    6 1.296939 -0.070330 0.078132 -0.190960 0.261877 -0.840768
    7 0.729366 -0.000005 0.000001 -0.237912 0.576842 -1.028714
    8 3.942332 0.046754 -0.431442 -0.174059 0.107470 -1.738517
    9 1.519562 -0.003899 0.070310 0.046841 0.141853 -0.829984
    10 1.196325 -0.000005 0.000003 -0.126887 0.029894 -1.375695
    11 3.760302 0.047151 0.406523 0.049227 0.053823 -1.507065
    12 1.723486 -0.046887 -0.320315 0.017281 -0.065224 -1.140710
    13 1.209185 -0.000007 0.000006 0.047457 -0.028647 -1.183161
    14 3.736467 -0.044027 1.307549 0.421048 0.186472 -1.492053
    15 1.719433 0.000000 -0.000006 0.188715 -0.128133 -1.307545
    16 1.099671 -0.000003 0.000002 0.131295 -0.234877 -0.588055
    17 1.129154 -0.382525 1.323140 -1.465572 -0.023236 -1.117131
    18 1.789781 0.000000 -0.000006 0.030086 0.279694 0.680794
    19 1.206999 0.000002 0.000000 -0.028638 0.009625 1.441733
    20 5.740854 0.000000 -0.000004 -0.476198 0.000000 0.000007
    21 11.481708 0.000006 -0.000007 -0.680521 0.000000 -0.000007
    22 -2.849454 -4.420101 -2.853307 -1.668474 1.286518 2.942953
    23 6.028141 0.000001 -0.000004 1.149229 0.729212 -1.690677
    24 11.692554 0.000000 0.000002 -0.000002 0.000000 -1.478719
    25 11.480655 -0.000290 -0.000002 -0.592122 -0.004422 -0.291136
    26 3.858962 -0.145456 1.102058 0.286385 -0.085894 -1.553901
    27 1.312561 -0.000004 0.000000 0.437111 -0.087851 -1.504361
    28 0.729366 0.000001 -0.000002 0.144806 -0.462834 -0.281282
    29 3.942293 0.050349 0.431044 0.194853 -0.221915 -1.346018
    30 1.527380 -0.027345 -0.152346 0.180952 -0.167199 -1.527350
    31 1.196322 -0.000002 -0.000001 0.003478 -0.457400 -0.819549
    32 3.886489 -0.036605 -0.333118 -0.022655 -0.180104 -1.383850
    33 1.719582 0.000002 0.000006 0.085495 -0.034071 -1.453755
    34 1.209187 0.000003 0.000007 0.024468 -0.154067 -1.041474
    35 3.874262 -0.142787 -1.066241 -0.170975 -0.185142 -1.495926
    36 1.719428 0.000006 0.000011 -0.101231 0.064903 -1.605897
    37 1.099662 0.000004 0.000008 -0.089126 0.090877 -0.850226
    38 1.001908 -0.270364 -1.355073 1.402165 -0.190905 -0.970207
    39 1.789783 -0.000008 -0.000006 0.028193 -0.133129 0.349312
    40 1.207003 -0.000002 -0.000006 0.011536 -0.011593 1.419375
    41 11.480655 -0.000290 -0.000002 0.719132 0.000000 0.000014
  time 21
    0 0.000000 -0.000006 0.000000 -1.570781 -1.391896 -1.570809
    1 -2.913469 -3.006039 4.330571 1.596636 -1.286515 2.942963
    2 6.028141 0.000002 0.000004 -0.985012 -0.629240 -1.675572
    3 11.692554 0.000081 -0.000005 -0.000046 0.000034 -1.574066
    4 11.481044 -0.000314 -0.000026 0.702090 -0.161568 -0.229017
    5 3.859704 -0.142418 -1.191975 -0.516554 0.106240 -1.782894
    6 1.296939 -0.070330 0.078132 -0.190960 0.261877 -0.840768
    7 0.729366 -0.000005 0.000001 -0.237912 0.576856 -1.028714
    8 3.942332 0.046754 -0.431442 -0.174059 0.107470 -1.738517
    9 1.519562 -0.003899 0.070310 0.046841 0.141853 -0.829984
    10 1.196325 -0.000005 0.000003 -0.126887 0.029894 -1.375695
    11 3.760302 0.047151 0.406523 0.049227 0.053823 -1.507065
    12 1.723486 -0.046887 -0.320315 0.017281 -0.065224 -1.140710
    13 1.209185 -0.000007 0.000006 0.047457 -0.028647 -1.183161
    14 3.736467 -0.044027 1.307549 0.421048 0.186472 -1.492053
    15 1.719433 0.000000 -0.000006 0.188715 -0.128133 -1.307545
    16 1.099671 -0.000003 0.000002 0.131295 -0.234877 -0.588055
    17 1.129154 -0.382525 1.323140 -1.465572 -0.023236 -1.117131
    18 1.789781 0.000000 -0.000006 0.030086 0.279694 0.680794
    19 1.206999 0.000002 0.000000 -0.028638 0.009625 1.441733
    20 5.740854 0.000000 -0.000004 -0.533220 0.000000 0.000007
    21 11.481708 0.000006 -0.000007 -0.762038 0.000000 -0.000007
    22 -2.958833 -4.404475 -2.825962 -1.668474 1.286518 2.942953
    23 6.028141 0.000001 -0.000004 1.139205 0.732227 -1.708940
    24 11.692554 0.000000 0.000002 -0.000002 0.000000 -1.482595
    25 11.480655 -0.000290 -0.000002 -0.522623 0.012507 -0.285311
    26 3.858962 -0.145456 1.102058 0.286385 -0.085894 -1.553901
    27 1.312561 -0.000004 0.000000 0.437111 -0.087851 -1.504361
    28 0.729366 0.000001 -0.000002 0.144806 -0.462834 -0.281282
    29 3.942293 0.050349 0.431044 0.194853 -0.221915 -1.346018
    30 1.527380 -0.027345 -0.152346 0.180952 -0.167199 -1.527350
    31 1.196322 -0.000002 -0.000001 0.003478 -0.457400 -0.819549
    32 3.886489 -0.036605 -0.333118 -0.022655 -0.180104 -1.383850
    33 1.719582 0.000002 0.000006 0.085495 -0.034071 -1.453755
    34 1.209187 0.000003 0.000007 0.024468 -0.154067 -1.041474
    35 3.874262 -0.142787 -1.066241 -0.170975 -0.185142 -1.495926
    36 1.719428 0.000006 0.000011 -0.101219 0.064903 -1.605897
    37 1.099662 0.000004 0.000008 -0.089126 0.090877 -0.850226
    38 1.001908 -0.270364 -1.355073 1.402165 -0.190905 -0.970207
    39 1.789783 -0.000008 -0.000006 0.028193 -0.133129 0.349312
    40 1.207003 -0.000002 -0.000006 0.011536 -0.011593 1.419375
    41 11.480655 -0.000290 -0.000002 0.800896 0.000000 0.000014
  time 22
    0 0.000000 -0.000006 0.000000 -1.570781 -1.391896 -1.570809
    1 -3.003315 -2.990414 4.350103 1.596636 -1.286515 2.942963
    2 6.028141 0.000002 0.000004 -0.971238 -0.631597 -1.696425
    3 11.692554 0.000081 -0.000005 -0.000046 0.000034 -1.574647
    4 11.481044 -0.000314 -0.000026 0.652420 -0.177189 -0.224183
    5 3.859704 -0.142418 -1.191975 -0.516554 0.106240 -1.782894
    6 1.296939 -0.070330 0.078132 -0.190960 0.261877 -0.840768
    7 0.729366 -0.000005 0.000001 -0.237912 0.576842 -1.028714
    8 3.942332 0.046754 -0.431442 -0.174059 0.107470 -1.738517
    9 1.519562 -0.003899 0.070310 0.046841 0.141853 -0.829984
    10 1.196325 -0.000005 0.000003 -0.126887 0.029894 -1.375695
    11 3.760302 0.047151 0.406523 0.049227 0.053823 -1.507065
    12 1.723486 -0.046887 -0.320315 0.017281 -0.065224 -1.140710
    13 1.209185 -0.000007 0.000006 0.047457 -0.028647 -1.183161
    14 3.736467 -0.044027 1.307549 0.421048 0.186472 -1.492053
    15 1.719433 0.000000 -0.000006 0.188715 -0.128133 -1.307545
    16 1.099671 -0.000003 0.000002 0.131295 -0.234877 -0.588055
    17 1.129154 -0.382525 1.323140 -1.465572 -0.023236 -1.117131
    18 1.789781 0.000000 -0.000006 0.030086 0.279694 0.680794
    19 1.206999 0.000002 0.000000 -0.028638 0.009625 1.441733
    20 5.740854 0.000000 -0.000004 -0.578374 0.000000 0.000007
    21 11.481708 0.000006 -0.000007 -0.826543 0.000000 -0.000007
    22 -3.048679 -4.388850 -2.806430 -1.668474 1.286518 2.942953
    23 6.028141 0.000001 -0.000004 1.130945 0.734815 -1.724246
    24 11.692554 0.000000 0.000002 -0.000002 0.000000 -1.485472
    25 11.480655 -0.000290 -0.000002 -0.468782 0.026393 -0.279277
    26 3.858962 -0.145456 1.102058 0.286385 -0.085894 -1.553901
    27 1.312561 -0.000004 0.000000 0.437111 -0.087851 -1.504361
    28 0.729366 0.000001 -0.000002 0.144806 -0.462834 -0.281282
    29 3.942293 0.050349 0.431044 0.194853 -0.221915 -1.346018
    30 1.527380 -0.027345 -0.152346 0.180952 -0.167199 -1.527350
    31 1.196322 -0.000002 -0.000001 0.003478 -0.457400 -0.819549
    32 3.886489 -0.036605 -0.333118 -0.022655 -0.180104 -1.383850
    33 1.719582 0.000002 0.000006 0.085495 -0.034071 -1.453755
    34 1.209187 0.000003 0.000007 0.024468 -0.154067 -1.041474
    35 3.874262 -0.142787 -1.066241 -0.170975 -0.185142 -1.495926
    36 1.719428 0.000006 0.000011 -0.101231 0.064903 -1.605897
    37 1.099662 0.000004 0.000008 -0.089126 0.090877 -0.850226
    38 1.001908 -0.270364 -1.355073 1.402165 -0.190905 -0.970207
    39 1.789783 -0.000008 -0.000006 0.028193 -0.133129 0.349312
    40 1.207003 -0.000002 -0.000006 0.011536 -0.011593 1.419375
    41 11.480655 -0.000290 -0.000002 0.864529 0.000000 0.000014
  time 23
    0 0.000000 -0.000006 0.000000 -1.570781 -1.391896 -1.570809
    1 -3.073630 -2.982601 4.365728 1.596636 -1.286515 2.942963
    2 6.028141 0.000002 0.000004 -0.960789 -0.633410 -1.712371
    3 11.692554 0.000081 -0.000005 -0.000046 0.000034 -1.574769
    4 11.481044 -0.000314 -0.000026 0.616859 -0.189015 -0.219957
    5 3.859704 -0.142418 -1.191975 -0.516554 0.106240 -1.782894
    6 1.296939 -0.070330 0.078132 -0.190960 0.261877 -0.840768
    7 0.729366 -0.000005 0.000001 -0.237912 0.576842 -1.028714
    8 3.942332 0.046754 -0.431442 -0.174059 0.107470 -1.738517
    9 1.519562 -0.003899 0.070310 0.046841 0.141853 -0.829984
    10 1.196325 -0.000005 0.000003 -0.126887 0.029894 -1.375695
    11 3.760302 0.047151 0.406523 0.049227 0.053823 -1.507065
    12 1.723486 -0.046887 -0.320315 0.017281 -0.065224 -1.140710
    13 1.209185 -0.000007 0.000006 0.047457 -0.028647 -1.183161
    14 3.736467 -0.044027 1.307549 0.421048 0.186472 -1.492053
    15 1.719433 0.000000 -0.000006 0.188715 -0.128133 -1.307545
    16 1.099671 -0.000003 0.000002 0.131295 -0.234877 -0.588055
    17 1.129154 -0.382525 1.323140 -1.465572 -0.023236 -1.117131
    18 1.789781 0.000000 -0.000006 0.030086 0.279694 0.680794
    19 1.206999 0.000002 0.000000 -0.028638 0.009625 1.441733
    20 5.740854 0.000000 -0.000004 -0.611070 0.000000 0.000007
    21 11.481708 0.000006 -0.000007 -0.873252 0.000000 -0.000007
    22 -3.118994 -4.381037 -2.790805 -1.668474 1.286518 2.942953
    23 6.028141 0.000001 -0.000004 1.124634 0.736869 -1.735726
    24 11.692554 0.000000 0.000002 -0.000002 0.000000 -1.487470
    25 11.480655 -0.000290 -0.000002 -0.430181 0.036771 -0.274076
    26 3.858962 -0.145456 1.102058 0.286385 -0.085894 -1.553901
    27 1.312561 -0.000004 0.000000 0.437111 -0.087851 -1.504361
    28 0.729366 0.000001 -0.000002 0.144806 -0.462834 -0.281282
    29 3.942293 0.050349 0.431044 0.194853 -0.221915 -1.346018
    30 1.527380 -0.027345 -0.152346 0.180952 -0.167199 -1.527350
    31 1.196322 -0.000002 -0.000001 0.003478 -0.457416 -0.819549
    32 3.886489 -0.036605 -0.333118 -0.022655 -0.180104 -1.383850
    33 1.719582 0.000002 0.000006 0.085495 -0.034071 -1.453755
    34 1.209187 0.000003 0.000007 0.024468 -0.154067 -1.041474
    35 3.874262 -0.142787 -1.066241 -0.170975 -0.185142 -1.495926
    36 1.719428 0.000006 0.000011 -0.101219 0.064903 -1.605897
    37 1.099662 0.000004 0.000008 -0.089126 0.090877 -0.850226
    38 1.001908 -0.270364 -1.355073 1.402165 -0.190905 -0.970207
    39 1.789783 -0.000008 -0.000006 0.028193 -0.133129 0.349312
    40 1.207003 -0.000002 -0.000006 0.011536 -0.011593 1.419375
    41 11.480655 -0.000290 -0.000002 0.910031 0.000000 0.000014
  time 24
    0 0.000000 -0.000006 0.000000 -1.570781 -1.391896 -1.570809
    1 -3.112693 -2.974788 4.377447 1.596636 -1.286515 2.942963
    2 6.028141 0.000002 0.000004 -0.954235 -0.634619 -1.722467
    3 11.692554 0.000081 -0.000005 -0.000046 0.000034 -1.574647
    4 11.481044 -0.000314 -0.000026 0.595115 -0.196538 -0.216998
    5 3.859704 -0.142418 -1.191975 -0.516554 0.106240 -1.782894
    6 1.296939 -0.070330 0.078132 -0.190960 0.261877 -0.840768
    7 0.729366 -0.000005 0.000001 -0.237912 0.576842 -1.028714
    8 3.942332 0.046754 -0.431442 -0.174059 0.107470 -1.738517
    9 1.519562 -0.003899 0.070310 0.046841 0.141853 -0.829984
    10 1.196325 -0.000005 0.000003 -0.126887 0.029894 -1.375695
    11 3.760302 0.047151 0.406523 0.049227 0.053823 -1.507065
    12 1.723486 -0.046887 -0.320315 0.017281 -0.065224 -1.140710
    13 1.209185 -0.000007 0.000006 0.047457 -0.028647 -1.183161
    14 3.736467 -0.044027 1.307549 0.421048 0.186472 -1.492053
    15 1.719433 0.000000 -0.000006 0.188715 -0.128133 -1.307545
    16 1.099671 -0.000003 0.000002 0.131295 -0.234877 -0.588055
    17 1.129154 -0.382525 1.323140 -1.465572 -0.023236 -1.117131
    18 1.789781 0.000000 -0.000006 0.030086 0.279694 0.680794
    19 1.206999 0.000002 0.000000 -0.028638 0.009625 1.441733
    20 5.740854 0.000000 -0.000004 -0.631073 0.000000 0.000007
    21 11.481708 0.000006 -0.000007 -0.901828 0.000000 -0.000007
    22 -3.158058 -4.373224 -2.779086 -1.668474 1.286518 2.942953
    23 6.028141 0.000001 -0.000004 1.120643 0.738203 -1.743118
    24 11.692554 0.000000 0.000002 -0.000002 0.000000 -1.488629
    25 11.480655 -0.000290 -0.000002 -0.406736 0.043323 -0.270498
    26 3.858962 -0.145456 1.102058 0.286385 -0.085894 -1.553901
    27 1.312561 -0.000004 0.000000 0.437111 -0.087851 -1.504361
    28 0.729366 0.000001 -0.000002 0.144806 -0.462834 -0.281282
    29 3.942293 0.050349 0.431044 0.194853 -0.221915 -1.346018
    30 1.527380 -0.027345 -0.152346 0.180952 -0.167199 -1.527350
    31 1.196322 -0.000002 -0.000001 0.003478 -0.457400 -0.819549
    32 3.886489 -0.036605 -0.333118 -0.022655 -0.180104 -1.383850
    33 1.719582 0.000002 0.000006 0.085495 -0.034071 -1.453755
    34 1.209187 0.000003 0.000007 0.024468 -0.154067 -1.041474
    35 3.874262 -0.142787 -1.066241 -0.170975 -0.185142 -1.495926
    36 1.719428 0.000006 0.000011 -0.101219 0.064903 -1.605897
    37 1.099662 0.000004 0.000008 -0.089126 0.090877 -0.850226
    38 1.001908 -0.270364 -1.355073 1.402165 -0.190905 -0.970207
    39 1.789783 -0.000008 -0.000006 0.028193 -0.133129 0.349312
    40 1.207003 -0.000002 -0.000006 0.011536 -0.011593 1.419375
    41 11.480655 -0.000290 -0.000002 0.937610 0.000000 0.000014
  time 25
    0 0.000000 -0.000006 0.000000 -1.570781 -1.391896 -1.570809
    1 -3.128319 -2.974788 4.377447 1.596636 -1.286515 2.942963
    2 6.028141 0.000002 0.000004 -0.951956 -0.635072 -1.726052
    3 11.692554 0.000081 -0.000005 -0.000046 0.000034 -1.574586
    4 11.481044 -0.000314 -0.000026 0.587697 -0.199183 -0.215889
    5 3.859704 -0.142418 -1.191975 -0.516554 0.106240 -1.782894
    6 1.296939 -0.070330 0.078132 -0.190960 0.261877 -0.840768
    7 0.729366 -0.000005 0.000001 -0.237912 0.576842 -1.028714
    8 3.942332 0.046754 -0.431442 -0.174059 0.107470 -1.738517
    9 1.519562 -0.003899 0.070310 0.046841 0.141853 -0.829984
    10 1.196325 -0.000005 0.000003 -0.126887 0.029894 -1.375695
    11 3.760302 0.047151 0.406523 0.049227 0.053823 -1.507065
    12 1.723486 -0.046887 -0.320315 0.017281 -0.065224 -1.140710
    13 1.209185 -0.000007 0.000006 0.047457 -0.028647 -1.183161
    14 3.736467 -0.044027 1.307549 0.421048 0.186472 -1.492053
    15 1.719433 0.000000 -0.000006 0.188715 -0.128133 -1.307545
    16 1.099671 -0.000003 0.000002 0.131295 -0.234877 -0.588055
    17 1.129154 -0.382525 1.323140 -1.465572 -0.023236 -1.117131
    18 1.789781 0.000000 -0.000006 0.030086 0.279694 0.680794
    19 1.206999 0.000002 0.000000 -0.028638 0.009625 1.441733
    20 5.740854 0.000000 -0.000004 -0.637911 0.000000 0.000007
    21 11.481708 0.000006 -0.000007 -0.911596 0.000000 -0.000007
    22 -3.173683 -4.373224 -2.779086 -1.668474 1.286518 2.942953
    23 6.028141 0.000001 -0.000004 1.119250 0.738683 -1.745640
    24 11.692554 0.000000 0.000002 -0.000002 0.000000 -1.489028
    25 11.480655 -0.000290 -0.000002 -0.398697 0.045606 -0.269208
    26 3.858962 -0.145456 1.102058 0.286385 -0.085894 -1.553901
    27 1.312561 -0.000004 0.000000 0.437111 -0.087851 -1.504361
    28 0.729366 0.000001 -0.000002 0.144806 -0.462834 -0.281282
    29 3.942293 0.050349 0.431044 0.194853 -0.221915 -1.346018
    30 1.527380 -0.027345 -0.152346 0.180952 -0.167199 -1.527350
    31 1.196322 -0.000002 -0.000001 0.003478 -0.457400 -0.819549
    32 3.886489 -0.036605 -0.333118 -0.022655 -0.180104 -1.383850
    33 1.719582 0.000002 0.000006 0.085495 -0.034071 -1.453755
    34 1.209187 0.000003 0.000007 0.024468 -0.154067 -1.041474
    35 3.874262 -0.142787 -1.066241 -0.170975 -0.185142 -1.495926
    36 1.719428 0.000006 0.000011 -0.101219 0.064903 -1.605897
    37 1.099662 0.000004 0.000008 -0.089126 0.090877 -0.850226
    38 1.001908 -0.270364 -1.355073 1.402165 -0.190905 -0.970207
    39 1.789783 -0.000008 -0.000006 0.028193 -0.133129 0.349312
    40 1.207003 -0.000002 -0.000006 0.011536 -0.011593 1.419375
    41 11.480655 -0.000290 -0.000002 0.946988 0.000000 0.000014
end
