// Created by Crowbar++ 0.74
version 1
nodes
  0 "ValveBiped.Bip01_Spine4" -1
  1 "ValveBiped.Bip01_L_Clavicle" 0
  2 "ValveBiped.Bip01_L_UpperArm" 1
  3 "ValveBiped.Bip01_L_Forearm" 2
  4 "ValveBiped.Bip01_L_Hand" 3
  5 "ValveBiped.Bip01_L_Finger4" 4
  6 "ValveBiped.Bip01_L_Finger41" 5
  7 "ValveBiped.Bip01_L_Finger42" 6
  8 "ValveBiped.Bip01_L_Finger3" 4
  9 "ValveBiped.Bip01_L_Finger31" 8
  10 "ValveBiped.Bip01_L_Finger32" 9
  11 "ValveBiped.Bip01_L_Finger2" 4
  12 "ValveBiped.Bip01_L_Finger21" 11
  13 "ValveBiped.Bip01_L_Finger22" 12
  14 "ValveBiped.Bip01_L_Finger1" 4
  15 "ValveBiped.Bip01_L_Finger11" 14
  16 "ValveBiped.Bip01_L_Finger12" 15
  17 "ValveBiped.Bip01_L_Finger0" 4
  18 "ValveBiped.Bip01_L_Finger01" 17
  19 "ValveBiped.Bip01_L_Finger02" 18
  20 "ValveBiped.Bip01_R_Clavicle" 0
  21 "ValveBiped.Bip01_R_UpperArm" 20
  22 "ValveBiped.Bip01_R_Forearm" 21
  23 "ValveBiped.Bip01_R_Hand" 22
  24 "ValveBiped.Bip01_R_Finger4" 23
  25 "ValveBiped.Bip01_R_Finger41" 24
  26 "ValveBiped.Bip01_R_Finger42" 25
  27 "ValveBiped.Bip01_R_Finger3" 23
  28 "ValveBiped.Bip01_R_Finger31" 27
  29 "ValveBiped.Bip01_R_Finger32" 28
  30 "ValveBiped.Bip01_R_Finger2" 23
  31 "ValveBiped.Bip01_R_Finger21" 30
  32 "ValveBiped.Bip01_R_Finger22" 31
  33 "ValveBiped.Bip01_R_Finger1" 23
  34 "ValveBiped.Bip01_R_Finger11" 33
  35 "ValveBiped.Bip01_R_Finger12" 34
  36 "ValveBiped.Bip01_R_Finger0" 23
  37 "ValveBiped.Bip01_R_Finger01" 36
  38 "ValveBiped.Bip01_R_Finger02" 37
  39 "v_weapon.aug_Parent" -1
  40 "v_weapon.aug_Trigger" 39
  41 "v_weapon.aug_Bolt" 39
  42 "v_weapon.aug_Handle" 39
  43 "v_weapon.aug_Clip" 39
  44 "v_weapon.aug_Clip2" -1
end
skeleton
  time 0
    0 0.000005 -2.660156 -9.640625 -1.570760 -1.391893 -1.570827
    1 2.033348 1.000767 1.937659 3.124101 -0.078364 1.677017
    2 6.028134 0.000014 0.000009 -2.574590 -0.200879 -0.427030
    3 11.692564 0.000000 -0.000005 -0.000027 0.000036 -1.540672
    4 11.481682 -0.000157 -0.000034 1.504767 -0.526469 0.797555
    5 3.277664 -0.001774 -1.383349 -0.015719 -0.103563 -0.770421
    6 1.324286 -0.000002 0.000011 0.018603 -0.017188 -1.394980
    7 0.819336 -0.000002 0.000002 0.000000 0.000000 -0.523588
    8 3.711852 0.105361 -0.572033 -0.038533 -0.141222 -1.026108
    9 1.609375 0.000000 -0.000001 -0.005847 0.005405 -1.372530
    10 0.988770 -0.000002 0.000002 0.003620 0.009215 -0.872888
    11 3.786029 0.203236 0.243976 -0.040626 -0.195458 -1.025468
    12 1.679688 0.000002 0.000000 0.000347 -0.000323 -1.318600
    13 1.252149 -0.000011 0.000009 -0.009347 0.066322 -0.855946
    14 3.594213 0.299563 1.109842 -0.114285 -0.230121 -0.906167
    15 1.722656 0.000000 0.000001 0.000000 0.000000 -1.437568
    16 1.002930 0.000000 0.000000 -0.006126 0.150906 -0.769055
    17 0.298200 -0.637994 0.426709 -1.446038 -0.562745 -0.535666
    18 2.636719 -0.000002 -0.000002 -0.071570 0.102224 0.439656
    19 1.309570 0.000001 -0.000002 -0.111730 -0.128700 1.128963
    20 2.033356 1.000772 -1.937610 -1.668474 1.286518 2.942954
    21 6.028141 0.000001 -0.000004 1.705930 0.704930 -0.467813
    22 11.692552 0.000002 0.000001 0.000045 -0.000012 -1.929219
    23 11.481703 0.000003 -0.000010 -0.671851 0.041347 0.931355
    24 2.910444 -0.023190 1.404025 0.007759 -0.317833 -1.311026
    25 1.284180 -0.000002 -0.000002 0.000007 0.080537 -0.654315
    26 0.842285 -0.000002 -0.000002 -0.097520 0.057547 -1.355925
    27 3.368066 0.011261 0.622427 0.064394 -0.373923 -1.195602
    28 1.610352 0.000000 0.000001 -0.000005 0.132572 -1.223781
    29 1.016602 -0.000002 0.000000 0.008353 -0.011044 -0.982500
    30 3.555528 0.027795 -0.200594 -0.007878 -0.461253 -0.987216
    31 1.666016 0.000000 0.000001 -0.000009 0.154434 -1.288062
    32 1.243164 -0.000001 -0.000001 -0.000007 0.000000 -1.195502
    33 3.449653 0.058096 -1.085208 0.048552 -0.125588 -0.422613
    34 1.715521 0.000010 0.000014 0.000002 -0.046221 -1.301662
    35 1.005910 0.000002 0.000006 0.002592 -0.007712 -0.457076
    36 0.079430 -0.734848 -0.755822 0.955321 0.184396 -0.646906
    37 2.512462 -0.000010 -0.000006 -0.000002 0.000000 0.359150
    38 1.281222 0.328124 -0.191418 0.015920 0.058269 0.066195
    39 -6.043296 -20.978373 -8.704807 1.570773 -0.000013 -3.141678
    40 0.365084 2.075997 0.229135 0.000000 0.000000 -0.000002
    41 0.431396 3.837891 -3.351563 0.000001 -0.000001 -0.000001
    42 0.028107 2.679688 -6.453125 0.000000 0.000000 -0.000001
    43 0.688565 1.574635 6.342477 0.000034 -0.000045 0.000105
    44 5.711969 27.821880 -5.747292 1.525053 -0.184055 -4.522769
  time 1
    0 0.000005 -2.660156 -9.640625 -1.570760 -1.391893 -1.570827
    1 2.033348 1.000767 1.937659 3.124101 -0.078364 1.677017
    2 6.028134 0.000014 0.000009 -2.574590 -0.200879 -0.427030
    3 11.692564 0.000000 -0.000005 -0.000027 0.000036 -1.540672
    4 11.481682 -0.000157 -0.000034 1.504767 -0.526469 0.797555
    5 3.277664 -0.001774 -1.383349 -0.015719 -0.103563 -0.770421
    6 1.324286 -0.000002 0.000011 0.018603 -0.017188 -1.394980
    7 0.819336 -0.000002 0.000002 0.000000 0.000000 -0.523588
    8 3.711852 0.105361 -0.572033 -0.038533 -0.141222 -1.026108
    9 1.609375 0.000000 -0.000001 -0.005847 0.005405 -1.372530
    10 0.988770 -0.000002 0.000002 0.003620 0.009215 -0.872888
    11 3.786029 0.203236 0.243976 -0.040626 -0.195458 -1.025468
    12 1.679688 0.000002 0.000000 0.000347 -0.000323 -1.318600
    13 1.252149 -0.000011 0.000009 -0.009347 0.066322 -0.855946
    14 3.594213 0.299563 1.109842 -0.114285 -0.230121 -0.906167
    15 1.722656 0.000000 0.000001 0.000000 0.000000 -1.437568
    16 1.002930 0.000000 0.000000 -0.006126 0.150906 -0.769055
    17 0.298200 -0.637994 0.426709 -1.446038 -0.562745 -0.535666
    18 2.636719 -0.000002 -0.000002 -0.071570 0.102224 0.439656
    19 1.309570 0.000001 -0.000002 -0.111730 -0.128700 1.128963
    20 2.033356 1.000772 -1.937610 -1.668474 1.286518 2.942954
    21 6.028141 0.000001 -0.000004 1.705930 0.704930 -0.467813
    22 11.692552 0.000002 0.000001 0.000045 -0.000012 -1.929219
    23 11.481703 0.000003 -0.000010 -0.671851 0.041347 0.931355
    24 2.910444 -0.023190 1.404025 0.007759 -0.317833 -1.311026
    25 1.284180 -0.000002 -0.000002 0.000007 0.080537 -0.654315
    26 0.842285 -0.000002 -0.000002 -0.097520 0.057547 -1.355925
    27 3.368066 0.011261 0.622427 0.064394 -0.373923 -1.195602
    28 1.610352 0.000000 0.000001 -0.000005 0.132572 -1.223781
    29 1.016602 -0.000002 0.000000 0.008353 -0.011044 -0.982500
    30 3.555528 0.027795 -0.200594 -0.007878 -0.461253 -0.987216
    31 1.666016 0.000000 0.000001 -0.000009 0.154434 -1.288062
    32 1.243164 -0.000001 -0.000001 -0.000007 0.000000 -1.195502
    33 3.449653 0.058096 -1.085208 0.048552 -0.125588 -0.422613
    34 1.715521 0.000010 0.000014 0.000002 -0.046221 -1.301662
    35 1.005910 0.000002 0.000006 0.002592 -0.007712 -0.457076
    36 0.079430 -0.734848 -0.755822 0.955321 0.184396 -0.646906
    37 2.512462 -0.000010 -0.000006 -0.000002 0.000000 0.359150
    38 1.281222 0.328124 -0.191418 0.015920 0.058269 0.066195
    39 -6.043296 -20.978373 -8.704807 1.570773 -0.000013 -3.141678
    40 0.365084 2.075997 0.229135 0.000000 0.000000 -0.000002
    41 0.431396 3.837891 -3.351563 0.000001 -0.000001 -0.000001
    42 0.028107 2.679688 -6.453125 0.000000 0.000000 -0.000001
    43 0.688565 1.574635 6.342477 0.000034 -0.000045 0.000105
    44 5.711969 27.821880 -5.747292 1.525053 -0.184055 -4.522769
  time 2
    0 0.000005 -2.660156 -9.640625 -1.570760 -1.391893 -1.570827
    1 2.033348 1.000767 1.937659 3.124101 -0.078364 1.677017
    2 6.028134 0.000014 0.000009 -2.572543 -0.203271 -0.431567
    3 11.692564 0.000000 -0.000005 -0.000027 0.000024 -1.558730
    4 11.481682 -0.000157 -0.000034 1.491590 -0.527898 0.846182
    5 3.277664 -0.001774 -1.383349 -0.015776 -0.103888 -0.770351
    6 1.324286 -0.000002 0.000011 0.018591 -0.017188 -1.394980
    7 0.819336 -0.000002 0.000002 0.000000 0.000000 -0.523588
    8 3.711852 0.105361 -0.572033 -0.038509 -0.141554 -1.026022
    9 1.609375 0.000000 -0.000001 -0.005847 0.005405 -1.372530
    10 0.988770 -0.000002 0.000002 0.003620 0.009215 -0.872888
    11 3.786029 0.203236 0.243976 -0.040602 -0.195821 -1.025414
    12 1.679688 0.000002 0.000000 0.000347 -0.000323 -1.318600
    13 1.252149 -0.000011 0.000009 -0.009347 0.066322 -0.855946
    14 3.594213 0.299563 1.109842 -0.114285 -0.230457 -0.906167
    15 1.722656 0.000000 0.000001 0.000000 0.000000 -1.437568
    16 1.002930 0.000000 0.000000 -0.006126 0.150906 -0.769055
    17 0.298200 -0.634088 0.426709 -1.446229 -0.563034 -0.535477
    18 2.636719 -0.000002 -0.000002 -0.071570 0.102224 0.439656
    19 1.309570 0.000001 -0.000002 -0.111730 -0.128700 1.128963
    20 2.033356 1.000772 -1.937610 -1.668474 1.286518 2.942954
    21 6.028141 0.000001 -0.000004 1.704298 0.693557 -0.470162
    22 11.692552 0.000002 0.000001 0.000045 -0.000012 -1.947970
    23 11.481703 0.000003 -0.000010 -0.672250 0.041478 0.938850
    24 2.910444 -0.023190 1.404025 0.007547 -0.317593 -1.311117
    25 1.284180 -0.000002 -0.000002 0.000007 0.080537 -0.654315
    26 0.842285 -0.000002 -0.000002 -0.097520 0.057547 -1.355925
    27 3.368066 0.011261 0.622427 0.064202 -0.373671 -1.195695
    28 1.610352 0.000000 0.000001 -0.000005 0.132572 -1.223781
    29 1.016602 -0.000002 0.000000 0.008353 -0.011044 -0.982500
    30 3.551622 0.027795 -0.200594 -0.008010 -0.460974 -0.987304
    31 1.666016 0.000000 0.000001 -0.000009 0.154434 -1.288062
    32 1.243164 -0.000001 -0.000001 -0.000007 0.000000 -1.195502
    33 3.449653 0.058096 -1.085208 0.051768 -0.031353 -0.419224
    34 1.711614 0.000010 0.000014 0.000002 -0.046293 -1.303471
    35 1.005910 0.000002 0.000006 0.002580 -0.007688 -0.456570
    36 0.079430 -0.734848 -0.755822 0.955321 0.184709 -0.647062
    37 2.512462 -0.000010 -0.000006 -0.000002 0.000000 0.359150
    38 1.281222 0.328124 -0.191418 0.015920 0.058269 0.066195
    39 -6.074547 -20.798680 -8.693088 1.575741 0.001484 -3.143148
    40 0.368990 2.075997 0.518206 0.000000 0.000000 -0.000002
    41 0.431396 3.837891 -3.351563 0.000001 -0.000001 -0.000001
    42 0.028107 2.679688 -6.453125 0.000000 0.000000 -0.000001
    43 0.688565 1.574635 6.338571 0.000034 -0.000009 -0.000095
    44 5.711969 27.821880 -5.747292 1.525053 -0.184055 -4.522769
  time 3
    0 0.000005 -2.660156 -9.640625 -1.570760 -1.391893 -1.570827
    1 2.033348 1.000767 1.937659 3.124101 -0.078364 1.677017
    2 6.028134 0.000014 0.000009 -2.567766 -0.208820 -0.439553
    3 11.692564 0.000000 -0.000005 -0.000027 0.000036 -1.597350
    4 11.481682 -0.000157 -0.000034 1.479455 -0.533874 0.913119
    5 3.277664 -0.001774 -1.383349 -0.015719 -0.103563 -0.770421
    6 1.324286 -0.000002 0.000011 0.018591 -0.017188 -1.394980
    7 0.819336 -0.000002 0.000002 0.000000 0.000000 -0.523588
    8 3.711852 0.105361 -0.572033 -0.038533 -0.141222 -1.026108
    9 1.609375 0.000000 -0.000001 -0.005847 0.005405 -1.372530
    10 0.988770 -0.000002 0.000002 0.003620 0.009215 -0.872888
    11 3.786029 0.203236 0.243976 -0.040626 -0.195458 -1.025468
    12 1.679688 0.000002 0.000000 0.000347 -0.000323 -1.318600
    13 1.252149 -0.000011 0.000009 -0.009347 0.066322 -0.855946
    14 3.594213 0.299563 1.109842 -0.114285 -0.230121 -0.906167
    15 1.722656 0.000000 0.000001 0.000000 0.000000 -1.437568
    16 1.002930 0.000000 0.000000 -0.006126 0.150906 -0.769055
    17 0.298200 -0.637994 0.426709 -1.446038 -0.562745 -0.535666
    18 2.636719 -0.000002 -0.000002 -0.071570 0.102224 0.439656
    19 1.309570 0.000001 -0.000002 -0.111730 -0.128700 1.128963
    20 2.033356 1.000772 -1.937610 -1.668474 1.286518 2.942954
    21 6.028141 0.000001 -0.000004 1.701522 0.667629 -0.474461
    22 11.692552 0.000002 0.000001 0.000045 -0.000012 -1.989953
    23 11.481703 0.000003 -0.000010 -0.672051 0.041507 0.954408
    24 2.910444 -0.023190 1.404025 0.007759 -0.317653 -1.310905
    25 1.284180 -0.000002 -0.000002 0.000007 0.080537 -0.654315
    26 0.842285 -0.000002 -0.000002 -0.097520 0.057547 -1.355925
    27 3.368066 0.011261 0.622427 0.064406 -0.373743 -1.195492
    28 1.610352 0.000000 0.000001 -0.000005 0.132572 -1.223781
    29 1.016602 -0.000002 0.000000 0.008353 -0.011044 -0.982500
    30 3.555528 0.031702 -0.200594 -0.007830 -0.461080 -0.987111
    31 1.666016 0.000000 0.000001 -0.000009 0.154434 -1.288062
    32 1.243164 -0.000001 -0.000001 -0.000007 0.000000 -1.195502
    33 3.449653 0.058096 -1.085208 0.059159 0.091429 -0.414580
    34 1.715521 0.000010 0.000014 0.000002 -0.046461 -1.308029
    35 1.005910 0.000002 0.000006 0.002556 -0.007640 -0.455303
    36 0.079430 -0.734848 -0.755822 0.955441 0.184560 -0.646763
    37 2.512462 -0.000010 -0.000006 -0.000002 0.000000 0.359150
    38 1.281222 0.328124 -0.191418 0.015920 0.058269 0.066195
    39 -6.152674 -20.408043 -8.665744 1.586766 0.004901 -3.146306
    40 0.365084 2.075997 0.924469 0.000000 0.000000 -0.000002
    41 0.431396 3.837891 -3.351563 0.000001 -0.000001 -0.000001
    42 0.028107 2.679688 -6.453125 0.000000 0.000000 -0.000001
    43 0.684659 1.574635 6.338571 0.000034 -0.000021 -0.000095
    44 5.711969 27.821880 -5.747292 1.525053 -0.184055 -4.522769
  time 4
    0 0.000005 -2.660156 -9.640625 -1.570760 -1.391893 -1.570827
    1 2.033348 1.000767 1.937659 3.124101 -0.078364 1.677017
    2 6.028134 0.000014 0.000009 -2.562232 -0.216220 -0.447266
    3 11.692564 0.000000 -0.000005 -0.000039 0.000036 -1.638170
    4 11.481682 -0.000157 -0.000034 1.480987 -0.543781 0.955107
    5 3.277664 -0.001774 -1.383349 -0.015719 -0.103563 -0.770421
    6 1.324286 -0.000002 0.000011 0.018591 -0.017188 -1.394980
    7 0.819336 -0.000002 0.000002 0.000000 0.000000 -0.523588
    8 3.711852 0.109267 -0.572033 -0.038533 -0.141222 -1.026108
    9 1.609375 0.000000 -0.000001 -0.005847 0.005405 -1.372530
    10 0.988770 -0.000002 0.000002 0.003620 0.009215 -0.872888
    11 3.786029 0.203236 0.243976 -0.040626 -0.195458 -1.025468
    12 1.679688 0.000002 0.000000 0.000347 -0.000323 -1.318600
    13 1.252149 -0.000011 0.000009 -0.009347 0.066322 -0.855946
    14 3.594213 0.299563 1.109842 -0.114285 -0.230121 -0.906167
    15 1.722656 0.000000 0.000001 0.000000 0.000000 -1.437568
    16 1.002930 0.000000 0.000000 -0.006126 0.150906 -0.769055
    17 0.298200 -0.637994 0.426709 -1.446038 -0.562745 -0.535666
    18 2.636719 -0.000002 -0.000002 -0.071570 0.102224 0.439656
    19 1.309570 0.000001 -0.000002 -0.111730 -0.128700 1.128963
    20 2.033356 1.000772 -1.937610 -1.668474 1.286518 2.942954
    21 6.028141 0.000001 -0.000004 1.698039 0.640428 -0.479735
    22 11.692552 0.000002 0.000001 0.000045 -0.000012 -2.032946
    23 11.481703 0.000003 -0.000010 -0.672517 0.042078 0.970234
    24 2.910444 -0.023190 1.404025 0.007547 -0.317593 -1.311117
    25 1.284180 -0.000002 -0.000002 0.000007 0.080537 -0.654315
    26 0.842285 -0.000002 -0.000002 -0.097520 0.057547 -1.355925
    27 3.368066 0.011261 0.622427 0.064202 -0.373671 -1.195695
    28 1.610352 0.000000 0.000001 -0.000005 0.132572 -1.223781
    29 1.016602 -0.000002 0.000000 0.008353 -0.011044 -0.982500
    30 3.555528 0.027795 -0.200594 -0.008010 -0.460974 -0.987304
    31 1.666016 0.000000 0.000001 -0.000009 0.154434 -1.288062
    32 1.243164 -0.000001 -0.000001 -0.000007 0.000000 -1.195502
    33 3.449653 0.058096 -1.085208 0.064592 0.123080 -0.414988
    34 1.715521 0.000010 0.000014 0.000002 -0.046701 -1.314496
    35 1.005910 0.000002 0.000006 0.002508 -0.007556 -0.453482
    36 0.079430 -0.734848 -0.755822 0.955321 0.184709 -0.647062
    37 2.512462 -0.000010 -0.000006 -0.000002 0.000000 0.359162
    38 1.281222 0.328124 -0.191418 0.015920 0.058269 0.066195
    39 -6.226895 -19.997874 -8.646212 1.597618 0.008357 -3.149539
    40 0.365084 2.075997 0.924469 0.000000 0.000000 -0.000002
    41 0.431396 3.837891 -3.351563 0.000001 -0.000001 -0.000001
    42 0.028107 2.679688 -6.453125 0.000000 0.000000 -0.000001
    43 0.688565 1.570728 6.338571 0.000034 0.000003 0.000105
    44 5.711969 27.821880 -5.747292 1.525053 -0.184055 -4.522769
  time 5
    0 0.000005 -2.660156 -9.640625 -1.570760 -1.391893 -1.570827
    1 2.033348 1.000767 1.937659 3.124101 -0.078364 1.677017
    2 6.028134 0.000014 0.000009 -2.559048 -0.221453 -0.451531
    3 11.692564 0.000000 -0.000005 -0.000039 0.000024 -1.660932
    4 11.481682 -0.000157 -0.000034 1.478903 -0.549497 0.986017
    5 3.277664 -0.001774 -1.383349 -0.015719 -0.103563 -0.770421
    6 1.324286 -0.000002 0.000011 0.018591 -0.017188 -1.394980
    7 0.819336 -0.000002 0.000002 0.000000 0.000000 -0.523588
    8 3.711852 0.105361 -0.572033 -0.038533 -0.141222 -1.026108
    9 1.609375 0.000000 -0.000001 -0.005847 0.005405 -1.372530
    10 0.988770 -0.000002 0.000002 0.003620 0.009215 -0.872888
    11 3.786029 0.203236 0.243976 -0.040626 -0.195458 -1.025468
    12 1.679688 0.000002 0.000000 0.000347 -0.000323 -1.318600
    13 1.252149 -0.000011 0.000009 -0.009347 0.066322 -0.855946
    14 3.594213 0.299563 1.109842 -0.114285 -0.230121 -0.906167
    15 1.722656 0.000000 0.000001 0.000000 0.000000 -1.437568
    16 1.002930 0.000000 0.000000 -0.006126 0.150906 -0.769055
    17 0.298200 -0.637994 0.426709 -1.446038 -0.562745 -0.535666
    18 2.636719 -0.000002 -0.000002 -0.071570 0.102224 0.439656
    19 1.309570 0.000001 -0.000002 -0.111730 -0.128700 1.128963
    20 2.033356 1.000772 -1.937610 -1.668474 1.286518 2.942954
    21 6.028141 0.000001 -0.000004 1.696188 0.626552 -0.482571
    22 11.692552 0.000002 0.000001 0.000045 0.000000 -2.055737
    23 11.481703 0.000003 -0.000010 -0.672849 0.042473 0.979000
    24 2.910444 -0.023190 1.404025 0.007547 -0.317593 -1.311117
    25 1.284180 -0.000002 -0.000002 0.000007 0.080537 -0.654315
    26 0.842285 -0.000002 -0.000002 -0.097520 0.057547 -1.355925
    27 3.368066 0.011261 0.622427 0.064202 -0.373671 -1.195695
    28 1.610352 0.000000 0.000001 -0.000005 0.132572 -1.223781
    29 1.016602 -0.000002 0.000000 0.008353 -0.011044 -0.982500
    30 3.555528 0.027795 -0.200594 -0.008010 -0.460974 -0.987304
    31 1.666016 0.000000 0.000001 -0.000009 0.154434 -1.288062
    32 1.243164 -0.000001 -0.000001 -0.000007 0.000000 -1.195502
    33 3.449653 0.058096 -1.085208 0.066494 0.098081 -0.417467
    34 1.715521 0.000010 0.000014 0.000002 -0.046988 -1.322270
    35 1.005910 0.000002 0.000006 0.002460 -0.007472 -0.451344
    36 0.079430 -0.734848 -0.755822 0.955321 0.184724 -0.647062
    37 2.512462 -0.000010 -0.000006 -0.000002 0.000000 0.359150
    38 1.281222 0.328124 -0.191418 0.015920 0.058269 0.066195
    39 -6.262052 -19.775211 -8.634493 1.602290 0.010084 -3.150934
    40 0.365084 2.075997 0.924469 0.000000 0.000000 -0.000002
    41 0.431396 3.837891 -3.351563 0.000001 -0.000001 -0.000001
    42 0.028107 2.679688 -6.453125 0.000000 0.000000 -0.000001
    43 0.684659 1.570728 6.342477 0.000034 -0.000009 -0.000095
    44 5.711969 27.821880 -5.747292 1.525053 -0.184055 -4.522769
  time 6
    0 0.000005 -2.660156 -9.640625 -1.570760 -1.391893 -1.570827
    1 2.033348 1.000767 1.937659 3.124101 -0.078364 1.677017
    2 6.028134 0.000014 0.000009 -2.560109 -0.219333 -0.451440
    3 11.692564 0.000000 -0.000005 -0.000063 0.000192 -1.653876
    4 11.481682 -0.000157 -0.000034 1.475777 -0.547224 0.982423
    5 3.277664 0.002132 -1.383349 -0.015606 -0.102886 -0.770596
    6 1.324286 -0.000002 0.000011 0.018591 -0.017188 -1.394980
    7 0.819336 -0.000002 0.000002 0.000000 0.000000 -0.523588
    8 3.711852 0.105361 -0.572033 -0.038593 -0.140556 -1.026236
    9 1.609375 0.000000 -0.000001 -0.005847 0.005405 -1.372530
    10 0.988770 -0.000002 0.000002 0.003620 0.009215 -0.872888
    11 3.786029 0.207142 0.243976 -0.040686 -0.194796 -1.025577
    12 1.679688 0.000002 0.000000 0.000347 -0.000323 -1.318600
    13 1.252149 -0.000011 0.000009 -0.009347 0.066322 -0.855946
    14 3.590307 0.303470 1.109842 -0.114246 -0.229428 -0.906350
    15 1.722656 0.000000 0.000001 0.000000 0.000000 -1.437568
    16 1.002930 0.000000 0.000000 -0.006126 0.150906 -0.769055
    17 0.298200 -0.634088 0.426709 -1.445753 -0.562113 -0.535951
    18 2.636719 -0.000002 -0.000002 -0.071570 0.102224 0.439656
    19 1.309570 0.000001 -0.000002 -0.111730 -0.128700 1.128963
    20 2.033356 1.000772 -1.937610 -1.668474 1.286518 2.942954
    21 6.028141 0.000001 -0.000004 1.696352 0.636015 -0.482128
    22 11.692552 0.000002 0.000001 0.000045 0.000000 -2.043047
    23 11.481703 0.000003 -0.000010 -0.673581 0.042897 0.975286
    24 2.910444 -0.023190 1.404025 0.007729 -0.317605 -1.310845
    25 1.284180 -0.000002 -0.000002 0.000007 0.080537 -0.654315
    26 0.842285 -0.000002 -0.000002 -0.097520 0.057547 -1.355925
    27 3.368066 0.011261 0.622427 0.064382 -0.373707 -1.195455
    28 1.610352 0.000000 0.000001 -0.000005 0.132572 -1.223781
    29 1.016602 -0.000002 0.000000 0.008353 -0.011044 -0.982500
    30 3.551622 0.031702 -0.200594 -0.007842 -0.461027 -0.987093
    31 1.666016 0.000000 0.000001 -0.000009 0.154434 -1.288062
    32 1.243164 -0.000001 -0.000001 -0.000007 0.000000 -1.195502
    33 3.449653 0.058096 -1.085208 0.067740 0.079025 -0.418910
    34 1.715521 0.000010 0.000014 0.000002 -0.047300 -1.330781
    35 1.005910 0.000002 0.000006 0.002400 -0.007376 -0.448969
    36 0.079430 -0.730942 -0.755822 0.955441 0.184605 -0.646739
    37 2.512462 -0.000010 -0.000006 -0.000002 0.000000 0.359150
    38 1.281222 0.328124 -0.191418 0.015920 0.058269 0.066195
    39 -6.222989 -19.892402 -8.657931 1.595122 0.008472 -3.148804
    40 0.365084 2.075997 0.928375 0.000000 0.000000 -0.000002
    41 0.431396 3.837891 -3.351563 0.000001 -0.000001 -0.000001
    42 0.028107 2.679688 -6.453125 0.000000 0.000000 -0.000001
    43 0.684659 1.574635 6.342477 0.000034 -0.000033 -0.000095
    44 5.711969 27.821880 -5.747292 1.525053 -0.184055 -4.522769
  time 7
    0 0.000005 -2.660156 -9.640625 -1.570760 -1.391893 -1.570827
    1 2.033348 1.000767 1.937659 3.124101 -0.078364 1.677017
    2 6.028134 0.000014 0.000009 -2.563142 -0.213287 -0.450079
    3 11.692564 0.000000 -0.000005 -0.000027 0.000036 -1.634907
    4 11.481682 -0.000157 -0.000034 1.477064 -0.541182 0.957179
    5 3.277664 -0.001774 -1.383349 -0.015719 -0.103563 -0.770421
    6 1.324286 -0.000002 0.000011 0.018591 -0.017188 -1.395022
    7 0.819336 -0.000002 0.000002 0.000000 0.000000 -0.523588
    8 3.711852 0.105361 -0.572033 -0.038533 -0.141222 -1.026108
    9 1.609375 0.000000 -0.000001 -0.005847 0.005405 -1.372530
    10 0.988770 -0.000002 0.000002 0.003620 0.009215 -0.872888
    11 3.786029 0.203236 0.243976 -0.040626 -0.195458 -1.025468
    12 1.679688 0.000002 0.000000 0.000347 -0.000323 -1.318600
    13 1.252149 -0.000011 0.000009 -0.009347 0.066322 -0.855946
    14 3.594213 0.299563 1.109842 -0.114285 -0.230100 -0.906167
    15 1.722656 0.000000 0.000001 0.000000 0.000000 -1.437568
    16 1.002930 0.000000 0.000000 -0.006126 0.150906 -0.769055
    17 0.298200 -0.637994 0.426709 -1.446038 -0.562745 -0.535666
    18 2.636719 -0.000002 -0.000002 -0.071570 0.102224 0.439656
    19 1.309570 0.000001 -0.000002 -0.111730 -0.128700 1.128963
    20 2.033356 1.000772 -1.937610 -1.668474 1.286518 2.942954
    21 6.028141 0.000001 -0.000004 1.698474 0.660033 -0.478760
    22 11.692552 0.000002 0.000001 0.000045 -0.000012 -2.008135
    23 11.481703 0.000003 -0.000010 -0.673914 0.043044 0.964914
    24 2.910444 -0.023190 1.404025 0.007547 -0.317593 -1.311117
    25 1.284180 -0.000002 -0.000002 0.000007 0.080537 -0.654315
    26 0.842285 -0.000002 -0.000002 -0.097520 0.057547 -1.355925
    27 3.368066 0.011261 0.622427 0.064202 -0.373671 -1.195695
    28 1.610352 0.000000 0.000001 -0.000005 0.132572 -1.223781
    29 1.016602 -0.000002 0.000000 0.008353 -0.011044 -0.982500
    30 3.551622 0.027795 -0.200594 -0.008010 -0.460974 -0.987304
    31 1.666016 0.000000 0.000001 -0.000009 0.154434 -1.288062
    32 1.243164 -0.000001 -0.000001 -0.000007 0.000000 -1.195502
    33 3.449653 0.058096 -1.085208 0.068274 0.064500 -0.420448
    34 1.715521 0.000010 0.000014 0.000002 -0.047623 -1.339695
    35 1.005910 0.000002 0.000006 0.002340 -0.007268 -0.446499
    36 0.079430 -0.734848 -0.755822 0.955321 0.184724 -0.647062
    37 2.512462 -0.000010 -0.000006 -0.000002 0.000000 0.359150
    38 1.281222 0.328124 -0.191418 0.015920 0.058269 0.066195
    39 -6.129236 -20.220537 -8.689182 1.580611 0.004824 -3.144396
    40 0.368990 2.075997 0.928375 0.000000 0.000000 -0.000002
    41 0.431396 3.837891 -3.351563 0.000001 -0.000001 -0.000001
    42 0.028107 2.679688 -6.453125 0.000000 0.000000 -0.000001
    43 0.688565 1.574635 6.338571 0.000034 -0.000009 0.000105
    44 5.711969 27.821880 -5.747292 1.525053 -0.184055 -4.522769
  time 8
    0 0.000005 -2.660156 -9.640625 -1.570760 -1.391893 -1.570827
    1 2.033348 1.000767 1.937659 3.124101 -0.078364 1.677017
    2 6.028134 0.000014 0.000009 -2.566781 -0.206474 -0.448445
    3 11.692564 0.000000 -0.000005 -0.000027 0.000036 -1.611462
    4 11.481682 -0.000157 -0.000034 1.480068 -0.534881 0.922548
    5 3.277664 -0.001774 -1.383349 -0.015776 -0.103888 -0.770351
    6 1.324286 -0.000002 0.000011 0.018591 -0.017188 -1.394980
    7 0.819336 -0.000002 0.000002 0.000000 0.000000 -0.523588
    8 3.711852 0.105361 -0.572033 -0.038521 -0.141554 -1.026022
    9 1.609375 0.000000 -0.000001 -0.005847 0.005405 -1.372530
    10 0.988770 -0.000002 0.000002 0.003620 0.009215 -0.872888
    11 3.786029 0.203236 0.243976 -0.040614 -0.195821 -1.025359
    12 1.679688 0.000002 0.000000 0.000347 -0.000323 -1.318600
    13 1.252149 -0.000011 0.000009 -0.009347 0.066322 -0.855946
    14 3.594213 0.299563 1.109842 -0.114304 -0.230436 -0.906106
    15 1.722656 0.000000 0.000001 0.000000 0.000000 -1.437568
    16 1.002930 0.000000 0.000000 -0.006126 0.150906 -0.769055
    17 0.298200 -0.634088 0.426709 -1.446229 -0.563034 -0.535477
    18 2.636719 -0.000002 -0.000002 -0.071570 0.102224 0.439656
    19 1.309570 0.000001 -0.000002 -0.111730 -0.128700 1.128963
    20 2.033356 1.000772 -1.937610 -1.668474 1.286518 2.942954
    21 6.028141 0.000001 -0.000004 1.700706 0.681251 -0.475391
    22 11.692552 0.000002 0.000001 0.000045 -0.000012 -1.976127
    23 11.481703 0.000003 -0.000010 -0.674047 0.043000 0.954241
    24 2.910444 -0.023190 1.404025 0.007547 -0.317593 -1.311117
    25 1.284180 -0.000002 -0.000002 0.000007 0.080537 -0.654315
    26 0.842285 -0.000002 -0.000002 -0.097520 0.057547 -1.355925
    27 3.364160 0.011261 0.622427 0.064202 -0.373671 -1.195695
    28 1.610352 0.000000 0.000001 -0.000005 0.132572 -1.223781
    29 1.016602 -0.000002 0.000000 0.008353 -0.011044 -0.982500
    30 3.551622 0.027795 -0.200594 -0.008010 -0.460974 -0.987304
    31 1.666016 0.000000 0.000001 -0.000009 0.154434 -1.288062
    32 1.243164 -0.000001 -0.000001 -0.000007 0.000000 -1.195502
    33 3.449653 0.058096 -1.085208 0.068465 0.053042 -0.421295
    34 1.715521 0.000010 0.000014 0.000002 -0.047959 -1.348642
    35 1.005910 0.000002 0.000006 0.002280 -0.007160 -0.443997
    36 0.079430 -0.734848 -0.755822 0.955333 0.184709 -0.647062
    37 2.512462 -0.000010 -0.000006 -0.000002 0.000000 0.359162
    38 1.281222 0.328124 -0.191418 0.015920 0.058269 0.066195
    39 -6.051108 -20.517421 -8.712620 1.567905 0.001638 -3.140650
    40 0.365084 2.075997 0.904937 0.000000 0.000000 -0.000002
    41 0.431396 3.837891 -3.351563 0.000001 -0.000001 -0.000001
    42 0.028107 2.679688 -6.453125 0.000000 0.000000 -0.000001
    43 0.688565 1.570728 6.342477 0.000034 0.000003 -0.000095
    44 5.711969 27.821880 -5.747292 1.525053 -0.184055 -4.522769
  time 9
    0 0.000005 -2.660156 -9.640625 -1.570760 -1.391893 -1.570827
    1 2.033348 1.000767 1.937659 3.124101 -0.078364 1.677017
    2 6.028134 0.000014 0.000009 -2.568676 -0.203902 -0.447084
    3 11.692564 0.000000 -0.000005 -0.000027 0.000036 -1.597957
    4 11.481682 -0.000157 -0.000034 1.484174 -0.532673 0.898319
    5 3.277664 -0.001774 -1.383349 -0.015719 -0.103563 -0.770421
    6 1.324286 -0.000002 0.000011 0.018591 -0.017188 -1.394980
    7 0.819336 -0.000002 0.000002 0.000000 0.000000 -0.523588
    8 3.711852 0.109267 -0.572033 -0.038533 -0.141222 -1.026108
    9 1.609375 0.000000 -0.000001 -0.005847 0.005405 -1.372530
    10 0.988770 -0.000002 0.000002 0.003620 0.009215 -0.872888
    11 3.786029 0.203236 0.243976 -0.040626 -0.195458 -1.025468
    12 1.679688 0.000002 0.000000 0.000347 -0.000323 -1.318600
    13 1.252149 -0.000011 0.000009 -0.009347 0.066322 -0.855946
    14 3.594213 0.299563 1.109842 -0.114285 -0.230121 -0.906167
    15 1.722656 0.000000 0.000001 0.000000 0.000000 -1.437568
    16 1.002930 0.000000 0.000000 -0.006126 0.150906 -0.769055
    17 0.298200 -0.637994 0.426709 -1.446038 -0.562745 -0.535666
    18 2.636719 -0.000002 -0.000002 -0.071570 0.102224 0.439656
    19 1.309570 0.000001 -0.000002 -0.111730 -0.128700 1.128963
    20 2.033356 1.000772 -1.937610 -1.668474 1.286518 2.942954
    21 6.028141 0.000001 -0.000004 1.702447 0.685197 -0.472954
    22 11.692552 0.000002 0.000001 0.000045 -0.000012 -1.969498
    23 11.481703 0.000003 -0.000010 -0.673049 0.042107 0.951865
    24 2.910444 -0.023190 1.404025 0.007547 -0.317593 -1.311117
    25 1.284180 -0.000002 -0.000002 0.000007 0.080537 -0.654315
    26 0.842285 -0.000002 -0.000002 -0.097520 0.057547 -1.355925
    27 3.368066 0.011261 0.622427 0.064202 -0.373671 -1.195695
    28 1.610352 0.000000 0.000001 -0.000005 0.132572 -1.223781
    29 1.016602 -0.000002 0.000000 0.008353 -0.011044 -0.982500
    30 3.551622 0.027795 -0.200594 -0.008010 -0.460974 -0.987304
    31 1.666016 0.000000 0.000001 -0.000009 0.154434 -1.288062
    32 1.243164 -0.000001 -0.000001 -0.000007 0.000000 -1.195502
    33 3.449653 0.058096 -1.085208 0.068246 0.044138 -0.421798
    34 1.715521 0.000010 0.000014 0.000002 -0.048282 -1.357321
    35 1.005910 0.000002 0.000006 0.002208 -0.007064 -0.441590
    36 0.079430 -0.734848 -0.755822 0.955321 0.184709 -0.647062
    37 2.512462 -0.000010 -0.000006 -0.000002 0.000000 0.359162
    38 1.281222 0.328124 -0.191418 0.015920 0.058269 0.066195
    39 -6.051108 -20.579923 -8.693088 1.567510 0.001484 -3.140283
    40 0.365084 2.075997 0.842435 0.000000 0.000000 -0.000002
    41 0.431396 3.837891 -3.351563 0.000001 -0.000001 -0.000001
    42 0.028107 2.679688 -6.453125 0.000000 0.000000 -0.000001
    43 0.688565 1.566822 6.342477 0.000034 -0.000033 -0.000095
    44 5.711969 27.821880 -5.747292 1.525053 -0.184055 -4.522769
  time 10
    0 0.000005 -2.660156 -9.640625 -1.570760 -1.391893 -1.570827
    1 2.033348 1.000767 1.937659 3.124101 -0.078364 1.677017
    2 6.028134 0.000014 0.000009 -2.568221 -0.203496 -0.443182
    3 11.692564 0.000000 -0.000005 -0.000027 0.000036 -1.598336
    4 11.481682 -0.000157 -0.000034 1.484358 -0.532218 0.896416
    5 3.277664 -0.001774 -1.383349 -0.015719 -0.103563 -0.770421
    6 1.324286 -0.000002 0.000011 0.018591 -0.017188 -1.394980
    7 0.819336 -0.000002 0.000002 0.000000 0.000000 -0.523588
    8 3.711852 0.105361 -0.572033 -0.038533 -0.141222 -1.026108
    9 1.609375 0.000000 -0.000001 -0.005847 0.005405 -1.372530
    10 0.988770 -0.000002 0.000002 0.003620 0.009215 -0.872888
    11 3.786029 0.203236 0.243976 -0.040626 -0.195458 -1.025468
    12 1.679688 0.000002 0.000000 0.000347 -0.000323 -1.318600
    13 1.252149 -0.000011 0.000009 -0.009347 0.066322 -0.855946
    14 3.594213 0.299563 1.109842 -0.114285 -0.230121 -0.906167
    15 1.722656 0.000000 0.000001 0.000000 0.000000 -1.437568
    16 1.002930 0.000000 0.000000 -0.006126 0.150906 -0.769055
    17 0.298200 -0.637994 0.426709 -1.446038 -0.562745 -0.535666
    18 2.636719 -0.000002 -0.000002 -0.071570 0.102224 0.439656
    19 1.309570 0.000001 -0.000002 -0.111730 -0.128700 1.128963
    20 2.033356 1.000772 -1.937610 -1.668474 1.286518 2.942954
    21 6.028141 0.000001 -0.000004 1.702883 0.685919 -0.472378
    22 11.692552 0.000002 0.000001 0.000045 -0.000012 -1.968425
    23 11.481703 0.000003 -0.000010 -0.672849 0.041815 0.951196
    24 2.910444 -0.023190 1.404025 0.007729 -0.317605 -1.310845
    25 1.284180 -0.000002 -0.000002 0.000007 0.080537 -0.654315
    26 0.842285 -0.000002 -0.000002 -0.097520 0.057547 -1.355925
    27 3.368066 0.011261 0.622427 0.064382 -0.373707 -1.195455
    28 1.610352 0.000000 0.000001 -0.000005 0.132572 -1.223781
    29 1.016602 -0.000002 0.000000 0.008353 -0.011044 -0.982500
    30 3.551622 0.031702 -0.200594 -0.007842 -0.461027 -0.987093
    31 1.666016 0.000000 0.000001 -0.000009 0.154434 -1.288062
    32 1.243164 -0.000001 -0.000001 -0.000007 0.000000 -1.195502
    33 3.449653 0.058096 -1.085208 0.067808 0.037211 -0.421735
    34 1.715521 0.000010 0.000014 0.000002 -0.048570 -1.365296
    35 1.005910 0.000002 0.000006 0.002160 -0.006969 -0.439373
    36 0.079430 -0.734848 -0.755822 0.955441 0.184605 -0.646739
    37 2.512462 -0.000010 -0.000006 -0.000002 0.000000 0.359150
    38 1.281222 0.328124 -0.191418 0.015920 0.058269 0.066195
    39 -6.055015 -20.591642 -8.673556 1.569216 0.001830 -3.140723
    40 0.365084 2.075997 0.772120 0.000000 0.000000 -0.000002
    41 0.431396 3.837891 -3.351563 0.000001 -0.000001 -0.000001
    42 0.028107 2.679688 -6.453125 0.000000 0.000000 -0.000001
    43 0.684659 1.570728 6.346384 0.000034 -0.000045 -0.000095
    44 5.711969 27.821880 -5.747292 1.525053 -0.184055 -4.522769
  time 11
    0 0.000005 -2.660156 -9.640625 -1.570760 -1.391893 -1.570827
    1 2.033348 1.000767 1.937659 3.124101 -0.078364 1.677017
    2 6.028134 0.000014 0.000009 -2.567615 -0.202594 -0.439099
    3 11.692564 0.000000 -0.000005 -0.000027 0.000036 -1.599474
    4 11.481682 -0.000157 -0.000034 1.481048 -0.530886 0.901998
    5 3.281570 -0.001774 -1.383349 -0.015719 -0.103563 -0.770421
    6 1.324286 -0.000002 0.000011 0.018603 -0.017188 -1.394980
    7 0.819336 -0.000002 0.000002 0.000000 0.000000 -0.523588
    8 3.711852 0.109267 -0.572033 -0.038533 -0.141222 -1.026108
    9 1.609375 0.000000 -0.000001 -0.005847 0.005405 -1.372530
    10 0.988770 -0.000002 0.000002 0.003620 0.009215 -0.872888
    11 3.786029 0.203236 0.243976 -0.040626 -0.195458 -1.025468
    12 1.679688 0.000002 0.000000 0.000347 -0.000323 -1.318600
    13 1.252149 -0.000011 0.000009 -0.009347 0.066322 -0.855946
    14 3.594213 0.299563 1.109842 -0.114285 -0.230121 -0.906167
    15 1.722656 0.000000 0.000001 0.000000 0.000000 -1.437568
    16 1.002930 0.000000 0.000000 -0.006126 0.150906 -0.769055
    17 0.298200 -0.637994 0.426709 -1.446038 -0.562745 -0.535666
    18 2.636719 -0.000002 -0.000002 -0.071570 0.102224 0.439656
    19 1.309570 0.000001 -0.000002 -0.111730 -0.128700 1.128963
    20 2.033356 1.000772 -1.937610 -1.668474 1.286518 2.942954
    21 6.028141 0.000001 -0.000004 1.702828 0.684264 -0.472511
    22 11.692552 0.000002 0.000001 0.000045 -0.000012 -1.972213
    23 11.481703 0.000003 -0.000010 -0.672716 0.041727 0.953304
    24 2.910444 -0.023190 1.404025 0.007729 -0.317605 -1.310845
    25 1.284180 -0.000002 -0.000002 0.000007 0.080537 -0.654315
    26 0.842285 -0.000002 -0.000002 -0.097520 0.057547 -1.355925
    27 3.368066 0.011261 0.622427 0.064382 -0.373707 -1.195455
    28 1.610352 0.000000 0.000001 -0.000005 0.132572 -1.223781
    29 1.016602 -0.000002 0.000000 0.008353 -0.011044 -0.982500
    30 3.551622 0.031702 -0.200594 -0.007842 -0.461027 -0.987093
    31 1.666016 0.000000 0.000001 -0.000009 0.154434 -1.288062
    32 1.243164 -0.000001 -0.000001 -0.000007 0.000000 -1.195502
    33 3.449653 0.058096 -1.085208 0.066932 0.032165 -0.421735
    34 1.715521 0.000010 0.000014 0.000002 -0.048822 -1.372199
    35 1.005910 0.000002 0.000006 0.002112 -0.006897 -0.437442
    36 0.079430 -0.730942 -0.755822 0.955441 0.184605 -0.646739
    37 2.512462 -0.000010 -0.000006 -0.000002 0.000000 0.359162
    38 1.281222 0.328124 -0.191418 0.015920 0.058269 0.066195
    39 -6.058921 -20.560391 -8.650118 1.572058 0.002521 -3.141384
    40 0.365084 2.075997 0.693993 0.000000 0.000000 -0.000002
    41 0.431396 3.837891 -3.351563 0.000001 -0.000001 -0.000001
    42 0.028107 2.679688 -6.453125 0.000000 0.000000 -0.000001
    43 0.688565 1.570728 6.338571 0.000034 -0.000009 -0.000095
    44 5.711969 27.821880 -5.747292 1.525053 -0.184055 -4.522769
  time 12
    0 0.000005 -2.660156 -9.640625 -1.570760 -1.391893 -1.570827
    1 2.033348 1.000767 1.937659 3.124101 -0.078364 1.677017
    2 6.028134 0.000014 0.000009 -2.567539 -0.202413 -0.437828
    3 11.692564 0.000000 -0.000005 -0.000027 0.000036 -1.599398
    4 11.481682 -0.000157 -0.000034 1.477922 -0.530107 0.908045
    5 3.277664 -0.001774 -1.383349 -0.015719 -0.103563 -0.770421
    6 1.324286 -0.000002 0.000011 0.018591 -0.017188 -1.394980
    7 0.819336 -0.000002 0.000002 0.000000 0.000000 -0.523588
    8 3.711852 0.109267 -0.572033 -0.038533 -0.141222 -1.026108
    9 1.609375 0.000000 -0.000001 -0.005847 0.005405 -1.372530
    10 0.988770 -0.000002 0.000002 0.003620 0.009215 -0.872888
    11 3.786029 0.203236 0.243976 -0.040626 -0.195458 -1.025468
    12 1.679688 0.000002 0.000000 0.000347 -0.000323 -1.318600
    13 1.252149 -0.000011 0.000009 -0.009347 0.066322 -0.855946
    14 3.594213 0.299563 1.109842 -0.114285 -0.230121 -0.906167
    15 1.722656 0.000000 0.000001 0.000000 0.000000 -1.437568
    16 1.002930 0.000000 0.000000 -0.006126 0.150906 -0.769055
    17 0.298200 -0.637994 0.426709 -1.446038 -0.562745 -0.535666
    18 2.636719 -0.000002 -0.000002 -0.071570 0.102224 0.439656
    19 1.309570 0.000001 -0.000002 -0.111730 -0.128700 1.128963
    20 2.033356 1.000772 -1.937610 -1.668474 1.286518 2.942954
    21 6.028141 0.000001 -0.000004 1.701903 0.681081 -0.473796
    22 11.692552 0.000002 0.000001 0.000045 -0.000012 -1.978210
    23 11.481703 0.000003 -0.000010 -0.673115 0.042166 0.956349
    24 2.910444 -0.023190 1.404025 0.007547 -0.317593 -1.311117
    25 1.284180 -0.000002 -0.000002 0.000007 0.080537 -0.654315
    26 0.842285 -0.000002 -0.000002 -0.097520 0.057547 -1.355925
    27 3.368066 0.011261 0.622427 0.064202 -0.373671 -1.195695
    28 1.610352 0.000000 0.000001 -0.000005 0.132572 -1.223781
    29 1.016602 -0.000002 0.000000 0.008353 -0.011044 -0.982500
    30 3.551622 0.027795 -0.200594 -0.008010 -0.460974 -0.987304
    31 1.666016 0.000000 0.000001 -0.000009 0.154434 -1.288062
    32 1.243164 -0.000001 -0.000001 -0.000007 0.000000 -1.195502
    33 3.449653 0.058096 -1.085208 0.065618 0.028822 -0.421829
    34 1.715521 0.000010 0.000014 0.000002 -0.049014 -1.377393
    35 1.005910 0.000002 0.000006 0.002076 -0.006837 -0.436001
    36 0.079430 -0.734848 -0.755822 0.955321 0.184709 -0.647062
    37 2.512462 -0.000010 -0.000006 -0.000002 0.000000 0.359150
    38 1.281222 0.328124 -0.191418 0.015920 0.058269 0.066195
    39 -6.066734 -20.501796 -8.630586 1.575346 0.003327 -3.142266
    40 0.365084 2.079904 0.631491 0.000000 0.000000 -0.000002
    41 0.431396 3.837891 -3.351563 0.000001 -0.000001 -0.000001
    42 0.028107 2.679688 -6.453125 0.000000 0.000000 -0.000001
    43 0.684659 1.574635 6.338571 0.000034 -0.000009 0.000105
    44 5.711969 27.821880 -5.747292 1.525053 -0.184055 -4.522769
  time 13
    0 0.000005 -2.660156 -9.640625 -1.570760 -1.391893 -1.570827
    1 2.033348 1.000767 1.937659 3.124101 -0.078364 1.677017
    2 6.028134 0.000014 0.000009 -2.566553 -0.202459 -0.436649
    3 11.692564 0.000000 -0.000005 -0.000075 -0.000096 -1.604861
    4 11.481682 -0.000157 -0.000034 1.473203 -0.529262 0.921999
    5 3.273757 0.002132 -1.383349 -0.015928 -0.103021 -0.770035
    6 1.324286 -0.000002 0.000011 0.018591 -0.017188 -1.394980
    7 0.819336 -0.000002 0.000002 0.000000 0.000000 -0.523588
    8 3.707945 0.109267 -0.572033 -0.038868 -0.140770 -1.025636
    9 1.609375 0.000000 -0.000001 -0.005847 0.005405 -1.372530
    10 0.988770 -0.000002 0.000002 0.003620 0.009215 -0.872888
    11 3.786029 0.207142 0.243976 -0.040962 -0.194988 -1.025033
    12 1.679688 0.000002 0.000000 0.000347 -0.000323 -1.318600
    13 1.252149 -0.000011 0.000009 -0.009347 0.066322 -0.855946
    14 3.590307 0.299563 1.109842 -0.114556 -0.229617 -0.905740
    15 1.722656 0.000000 0.000001 0.000000 0.000000 -1.437568
    16 1.002930 0.000000 0.000000 -0.006126 0.150906 -0.769055
    17 0.294294 -0.637994 0.426709 -1.446133 -0.562166 -0.535192
    18 2.636719 -0.000002 -0.000002 -0.071570 0.102224 0.439656
    19 1.309570 0.000001 -0.000002 -0.111730 -0.128700 1.128963
    20 2.033356 1.000772 -1.937610 -1.668474 1.286518 2.942954
    21 6.028141 0.000001 -0.000004 1.700978 0.677686 -0.475081
    22 11.692552 0.000002 0.000001 0.000045 -0.000012 -1.984713
    23 11.481703 0.000003 -0.000010 -0.673514 0.042546 0.959327
    24 2.910444 -0.023190 1.404025 0.007547 -0.317593 -1.311117
    25 1.284180 -0.000002 -0.000002 0.000007 0.080537 -0.654315
    26 0.842285 -0.000002 -0.000002 -0.097520 0.057547 -1.355925
    27 3.368066 0.011261 0.622427 0.064202 -0.373671 -1.195695
    28 1.610352 0.000000 0.000001 -0.000005 0.132572 -1.223781
    29 1.016602 -0.000002 0.000000 0.008353 -0.011044 -0.982500
    30 3.555528 0.027795 -0.200594 -0.008010 -0.460974 -0.987304
    31 1.666016 0.000000 0.000001 -0.000009 0.154434 -1.288062
    32 1.243164 -0.000001 -0.000001 -0.000007 0.000000 -1.195502
    33 3.449653 0.058096 -1.085208 0.064017 0.026748 -0.421358
    34 1.715521 0.000010 0.000014 0.000002 -0.049121 -1.380107
    35 1.005910 0.000002 0.000006 0.002052 -0.006801 -0.435241
    36 0.079430 -0.734848 -0.755822 0.955321 0.184709 -0.647062
    37 2.512462 -0.000010 -0.000006 -0.000002 0.000000 0.359150
    38 1.281222 0.328124 -0.191418 0.015920 0.058269 0.066195
    39 -6.070640 -20.447107 -8.614961 1.578238 0.004056 -3.143001
    40 0.368990 2.075997 0.611959 0.000000 0.000000 -0.000002
    41 0.431396 3.837891 -3.351563 0.000001 -0.000001 -0.000001
    42 0.028107 2.679688 -6.453125 0.000000 0.000000 -0.000001
    43 0.688565 1.574635 6.338571 0.000034 -0.000009 0.000105
    44 5.711969 27.821880 -5.747292 1.525053 -0.184055 -4.522769
  time 14
    0 0.000005 -2.660156 -9.640625 -1.570760 -1.391893 -1.570827
    1 2.033348 1.000767 1.937659 3.124101 -0.078364 1.677017
    2 6.028134 0.000014 0.000009 -2.565340 -0.202639 -0.435651
    3 11.692564 0.000000 -0.000005 -0.000027 0.000036 -1.613131
    4 11.481682 -0.000157 -0.000034 1.468055 -0.529554 0.939885
    5 3.277664 -0.001774 -1.383349 -0.015719 -0.103563 -0.770421
    6 1.324286 -0.000002 0.000011 0.018591 -0.017188 -1.394980
    7 0.819336 -0.000002 0.000002 0.000000 0.000000 -0.523588
    8 3.711852 0.105361 -0.572033 -0.038533 -0.141222 -1.026108
    9 1.609375 0.000000 -0.000001 -0.005847 0.005405 -1.372530
    10 0.988770 -0.000002 0.000002 0.003620 0.009215 -0.872888
    11 3.786029 0.203236 0.243976 -0.040626 -0.195458 -1.025468
    12 1.679688 0.000002 0.000000 0.000347 -0.000323 -1.318600
    13 1.256055 -0.000011 0.000009 -0.009347 0.066322 -0.855946
    14 3.594213 0.299563 1.109842 -0.114285 -0.230121 -0.906167
    15 1.722656 0.000000 0.000001 0.000000 0.000000 -1.437568
    16 1.002930 0.000000 0.000000 -0.006126 0.150906 -0.769055
    17 0.298200 -0.637994 0.426709 -1.446038 -0.562745 -0.535666
    18 2.636719 -0.000002 -0.000002 -0.071570 0.102224 0.439656
    19 1.309570 0.000001 -0.000002 -0.111730 -0.128700 1.128963
    20 2.033356 1.000772 -1.937610 -1.668474 1.286518 2.942954
    21 6.028141 0.000001 -0.000004 1.700542 0.675268 -0.475790
    22 11.692552 0.000002 0.000001 0.000045 -0.000012 -1.989574
    23 11.481703 0.000003 -0.000010 -0.673714 0.042692 0.961702
    24 2.910444 -0.023190 1.404025 0.007547 -0.317593 -1.311117
    25 1.284180 -0.000002 -0.000002 0.000007 0.080537 -0.654315
    26 0.842285 -0.000002 -0.000002 -0.097520 0.057547 -1.355925
    27 3.368066 0.011261 0.622427 0.064202 -0.373671 -1.195695
    28 1.610352 0.000000 0.000001 -0.000005 0.132572 -1.223781
    29 1.016602 -0.000002 0.000000 0.008353 -0.011044 -0.982500
    30 3.551622 0.027795 -0.200594 -0.008010 -0.460974 -0.987304
    31 1.666016 0.000000 0.000001 -0.000009 0.154434 -1.288062
    32 1.243164 -0.000001 -0.000001 -0.000007 0.000000 -1.195502
    33 3.449653 0.058096 -1.085208 0.061992 0.025969 -0.420636
    34 1.715521 0.000010 0.000014 0.000002 -0.049073 -1.379035
    35 1.005910 0.000002 0.000006 0.002064 -0.006813 -0.435541
    36 0.079430 -0.734848 -0.755822 0.955321 0.184724 -0.647062
    37 2.512462 -0.000010 -0.000006 -0.000002 0.000000 0.359150
    38 1.281222 0.328124 -0.191418 0.015920 0.058269 0.066195
    39 -6.074547 -20.392417 -8.603242 1.579820 0.004517 -3.143368
    40 0.361177 2.075997 0.608053 0.000000 0.000000 -0.000002
    41 0.431396 3.837891 -3.351563 0.000001 -0.000001 -0.000001
    42 0.028107 2.679688 -6.453125 0.000000 0.000000 -0.000001
    43 0.684659 1.570728 6.342477 0.000034 -0.000009 0.000105
    44 5.711969 27.821880 -5.747292 1.525053 -0.184055 -4.522769
  time 15
    0 0.000005 -2.660156 -9.640625 -1.570760 -1.391893 -1.570827
    1 2.033348 1.000767 1.937659 3.124101 -0.078364 1.677017
    2 6.028134 0.000014 0.000009 -2.564355 -0.202729 -0.434199
    3 11.692564 0.000000 -0.000005 -0.000027 0.000024 -1.618898
    4 11.481682 -0.000157 -0.000034 1.464194 -0.529295 0.952317
    5 3.277664 -0.001774 -1.383349 -0.015719 -0.103563 -0.770421
    6 1.324286 -0.000002 0.000011 0.018591 -0.017188 -1.394980
    7 0.819336 -0.000002 0.000002 0.000000 0.000000 -0.523588
    8 3.711852 0.105361 -0.572033 -0.038533 -0.141222 -1.026108
    9 1.609375 0.000000 -0.000001 -0.005847 0.005405 -1.372530
    10 0.988770 -0.000002 0.000002 0.003620 0.009215 -0.872888
    11 3.786029 0.203236 0.243976 -0.040626 -0.195458 -1.025468
    12 1.679688 0.000002 0.000000 0.000347 -0.000323 -1.318600
    13 1.252149 -0.000011 0.000009 -0.009347 0.066322 -0.855946
    14 3.594213 0.299563 1.109842 -0.114285 -0.230121 -0.906228
    15 1.722656 0.000000 0.000001 0.000000 0.000000 -1.437568
    16 1.002930 0.000000 0.000000 -0.006126 0.150906 -0.769055
    17 0.298200 -0.637994 0.426709 -1.446038 -0.562745 -0.535666
    18 2.636719 -0.000002 -0.000002 -0.071570 0.102224 0.439656
    19 1.309570 0.000001 -0.000002 -0.111730 -0.128700 1.128963
    20 2.033356 1.000772 -1.937610 -1.668474 1.286518 2.942954
    21 6.028141 0.000001 -0.000004 1.700052 0.673825 -0.476411
    22 11.692552 0.000002 0.000001 0.000237 -0.000144 -1.992036
    23 11.481703 0.000003 -0.000010 -0.673780 0.043248 0.962204
    24 2.906538 -0.023190 1.400119 0.007880 -0.317869 -1.310936
    25 1.284180 -0.000002 -0.000002 0.000007 0.080537 -0.654315
    26 0.842285 -0.000002 -0.000002 -0.097520 0.057547 -1.355925
    27 3.364160 0.011261 0.622427 0.064502 -0.373971 -1.195547
    28 1.610352 0.000000 0.000001 -0.000005 0.132572 -1.223781
    29 1.016602 -0.000002 0.000000 0.008353 -0.011044 -0.982500
    30 3.551622 0.027795 -0.200594 -0.007770 -0.461332 -0.987163
    31 1.666016 0.000000 0.000001 -0.000009 0.154434 -1.288062
    32 1.243164 -0.000001 -0.000001 -0.000007 0.000000 -1.195502
    33 3.449653 0.058096 -1.085208 0.059350 0.026029 -0.419318
    34 1.715521 0.000010 0.000014 0.000002 -0.048822 -1.371998
    35 1.005910 0.000002 0.000006 0.002112 -0.006897 -0.437521
    36 0.079430 -0.734848 -0.759728 0.955393 0.184291 -0.646787
    37 2.512462 -0.000010 -0.000006 -0.000002 0.000000 0.359162
    38 1.281222 0.328124 -0.191418 0.015920 0.058269 0.066195
    39 -6.074547 -20.372886 -8.603242 1.580166 0.004556 -3.143368
    40 0.365084 2.075997 0.611959 0.000000 0.000000 -0.000002
    41 0.431396 3.837891 -3.351563 0.000001 -0.000001 -0.000001
    42 0.028107 2.679688 -6.453125 0.000000 0.000000 -0.000001
    43 0.684659 1.574635 6.342477 0.000034 -0.000009 -0.000095
    44 5.711969 27.821880 -5.747292 1.525053 -0.184055 -4.522769
  time 16
    0 0.000005 -2.660156 -9.640625 -1.570760 -1.391893 -1.570827
    1 2.033348 1.000767 1.937659 3.124101 -0.078364 1.677017
    2 6.028134 0.000014 0.000009 -2.564203 -0.202639 -0.433201
    3 11.692564 0.000000 -0.000005 -0.000027 0.000036 -1.619277
    4 11.481682 -0.000157 -0.000034 1.463520 -0.529067 0.953627
    5 3.281570 -0.001774 -1.383349 -0.015719 -0.103563 -0.770421
    6 1.324286 -0.000002 0.000011 0.018591 -0.017188 -1.394980
    7 0.819336 -0.000002 0.000002 0.000000 0.000000 -0.523588
    8 3.711852 0.109267 -0.572033 -0.038533 -0.141222 -1.026108
    9 1.609375 0.000000 -0.000001 -0.005847 0.005405 -1.372530
    10 0.988770 -0.000002 0.000002 0.003620 0.009215 -0.872888
    11 3.786029 0.203236 0.243976 -0.040626 -0.195458 -1.025468
    12 1.679688 0.000002 0.000000 0.000347 -0.000323 -1.318600
    13 1.252149 -0.000011 0.000009 -0.009347 0.066322 -0.855946
    14 3.594213 0.299563 1.109842 -0.114285 -0.230121 -0.906167
    15 1.722656 0.000000 0.000001 0.000000 0.000000 -1.437568
    16 1.002930 0.000000 0.000000 -0.006126 0.150906 -0.769055
    17 0.298200 -0.637994 0.426709 -1.446038 -0.562745 -0.535666
    18 2.636719 -0.000002 -0.000002 -0.071570 0.102224 0.439656
    19 1.309570 0.000001 -0.000002 -0.111730 -0.128700 1.128963
    20 2.033356 1.000772 -1.937610 -1.668474 1.286518 2.942954
    21 6.028141 0.000001 -0.000004 1.700052 0.673825 -0.476411
    22 11.692552 0.000002 0.000001 0.000237 -0.000144 -1.992036
    23 11.481703 0.000003 -0.000010 -0.673780 0.043248 0.962204
    24 2.906538 -0.023190 1.400119 0.007880 -0.317869 -1.310936
    25 1.284180 -0.000002 -0.000002 0.000007 0.080537 -0.654315
    26 0.842285 -0.000002 -0.000002 -0.097520 0.057547 -1.355925
    27 3.364160 0.011261 0.622427 0.064502 -0.373971 -1.195547
    28 1.610352 0.000000 0.000001 -0.000005 0.132572 -1.223781
    29 1.016602 -0.000002 0.000000 0.008353 -0.011044 -0.982500
    30 3.551622 0.027795 -0.200594 -0.007770 -0.461332 -0.987163
    31 1.666016 0.000000 0.000001 -0.000009 0.154434 -1.288062
    32 1.243164 -0.000001 -0.000001 -0.000007 0.000000 -1.195502
    33 3.449653 0.058096 -1.085208 0.055710 0.027755 -0.417875
    34 1.715521 0.000010 0.000014 0.000002 -0.048139 -1.353601
    35 1.005910 0.000002 0.000006 0.002232 -0.007112 -0.442604
    36 0.079430 -0.734848 -0.759728 0.955393 0.184291 -0.646787
    37 2.512462 -0.000010 -0.000006 -0.000002 0.000000 0.359162
    38 1.281222 0.328124 -0.191418 0.015920 0.058269 0.066195
    39 -6.074547 -20.368979 -8.603242 1.580067 0.004479 -3.143368
    40 0.361177 2.075997 0.608053 0.000000 0.000000 -0.000002
    41 0.431396 3.837891 -3.351563 0.000001 -0.000001 -0.000001
    42 0.028107 2.679688 -6.453125 0.000000 0.000000 -0.000001
    43 0.684659 1.570728 6.338571 0.000034 -0.000009 0.000105
    44 5.711969 27.821880 -5.747292 1.525053 -0.184055 -4.522769
  time 17
    0 0.000005 -2.660156 -9.640625 -1.570760 -1.391893 -1.570827
    1 2.033348 1.000767 1.937659 3.124101 -0.078364 1.677017
    2 6.028134 0.000014 0.000009 -2.564355 -0.202504 -0.432747
    3 11.692564 0.000000 -0.000005 -0.000027 0.000024 -1.617684
    4 11.481682 -0.000157 -0.000034 1.464194 -0.528970 0.950625
    5 3.277664 -0.001774 -1.383349 -0.015719 -0.103563 -0.770421
    6 1.324286 -0.000002 0.000011 0.018591 -0.017188 -1.394980
    7 0.819336 -0.000002 0.000002 0.000000 0.000000 -0.523588
    8 3.711852 0.105361 -0.572033 -0.038533 -0.141222 -1.026108
    9 1.609375 0.000000 -0.000001 -0.005847 0.005405 -1.372530
    10 0.988770 -0.000002 0.000002 0.003620 0.009215 -0.872888
    11 3.786029 0.203236 0.243976 -0.040626 -0.195458 -1.025468
    12 1.679688 0.000002 0.000000 0.000347 -0.000323 -1.318600
    13 1.252149 -0.000011 0.000009 -0.009347 0.066322 -0.855946
    14 3.594213 0.299563 1.109842 -0.114285 -0.230121 -0.906228
    15 1.722656 0.000000 0.000001 0.000000 0.000000 -1.437568
    16 1.002930 0.000000 0.000000 -0.006126 0.150906 -0.769055
    17 0.298200 -0.637994 0.426709 -1.446038 -0.562745 -0.535666
    18 2.636719 -0.000002 -0.000002 -0.071570 0.102224 0.439656
    19 1.309570 0.000001 -0.000002 -0.111730 -0.128700 1.128963
    20 2.033356 1.000772 -1.937610 -1.668474 1.286518 2.942954
    21 6.028141 0.000001 -0.000004 1.700052 0.674037 -0.476411
    22 11.692552 0.000002 0.000001 0.000045 -0.000012 -1.991721
    23 11.481703 0.000003 -0.000010 -0.673980 0.042897 0.962237
    24 2.910444 -0.023190 1.404025 0.007759 -0.317677 -1.310905
    25 1.284180 -0.000002 -0.000002 0.000007 0.080537 -0.654315
    26 0.842285 -0.000002 -0.000002 -0.097520 0.057547 -1.355925
    27 3.368066 0.011261 0.622427 0.064406 -0.373767 -1.195492
    28 1.610352 0.000000 0.000001 -0.000005 0.132572 -1.223781
    29 1.016602 -0.000002 0.000000 0.008353 -0.011044 -0.982500
    30 3.551622 0.031702 -0.200594 -0.007830 -0.461107 -0.987128
    31 1.666016 0.000000 0.000001 -0.000009 0.154434 -1.288062
    32 1.243164 -0.000001 -0.000001 -0.000007 0.000000 -1.195502
    33 3.449653 0.058096 -1.085208 0.048305 0.031410 -0.414894
    34 1.715521 0.000010 0.000014 0.000002 -0.046221 -1.301628
    35 1.005910 0.000002 0.000006 0.002592 -0.007712 -0.457076
    36 0.079430 -0.734848 -0.755822 0.955417 0.184530 -0.646775
    37 2.512462 -0.000010 -0.000006 -0.000002 0.000000 0.359150
    38 1.281222 0.328124 -0.191418 0.015920 0.058269 0.066195
    39 -6.074547 -20.372886 -8.611054 1.579820 0.004325 -3.143368
    40 0.361177 2.075997 0.608053 0.000000 0.000000 -0.000002
    41 0.431396 3.837891 -3.351563 0.000001 -0.000001 -0.000001
    42 0.028107 2.679688 -6.453125 0.000000 0.000000 -0.000001
    43 0.684659 1.570728 6.338571 0.000034 -0.000009 0.000105
    44 5.711969 27.821880 -5.747292 1.525053 -0.184055 -4.522769
  time 18
    0 0.000005 -2.660156 -9.640625 -1.570760 -1.391893 -1.570827
    1 2.033348 1.000767 1.937659 3.124101 -0.078364 1.677017
    2 6.028134 0.000014 0.000009 -2.563976 -0.202684 -0.433382
    3 11.692564 0.000000 -0.000005 -0.000027 0.000036 -1.620339
    4 11.481682 -0.000157 -0.000034 1.464133 -0.529392 0.953331
    5 3.277664 -0.001774 -1.383349 -0.015719 -0.103563 -0.770421
    6 1.324286 -0.000002 0.000011 0.018591 -0.017188 -1.394980
    7 0.819336 -0.000002 0.000002 0.000000 0.000000 -0.523588
    8 3.711852 0.105361 -0.572033 -0.038533 -0.141222 -1.026108
    9 1.609375 0.000000 -0.000001 -0.005847 0.005405 -1.372530
    10 0.988770 -0.000002 0.000002 0.003620 0.009215 -0.872888
    11 3.786029 0.203236 0.243976 -0.040626 -0.195458 -1.025468
    12 1.679688 0.000002 0.000000 0.000347 -0.000323 -1.318600
    13 1.252149 -0.000011 0.000009 -0.009347 0.066322 -0.855946
    14 3.594213 0.299563 1.109842 -0.114285 -0.230121 -0.906167
    15 1.722656 0.000000 0.000001 0.000000 0.000000 -1.437568
    16 1.002930 0.000000 0.000000 -0.006126 0.150906 -0.769055
    17 0.298200 -0.637994 0.426709 -1.446038 -0.562745 -0.535666
    18 2.636719 -0.000002 -0.000002 -0.071570 0.102224 0.439656
    19 1.309570 0.000001 -0.000002 -0.111730 -0.128700 1.128963
    20 2.033356 1.000772 -1.937610 -1.668474 1.286518 2.942954
    21 6.028141 0.000001 -0.000004 1.700488 0.674589 -0.475835
    22 11.692552 0.000002 0.000001 0.000045 -0.000012 -1.991152
    23 11.481703 0.000003 -0.000010 -0.673647 0.042663 0.962605
    24 2.910444 -0.023190 1.404025 0.007547 -0.317593 -1.311117
    25 1.284180 -0.000002 -0.000002 0.000007 0.080537 -0.654315
    26 0.842285 -0.000002 -0.000002 -0.097520 0.057547 -1.355925
    27 3.368066 0.011261 0.622427 0.064202 -0.373671 -1.195695
    28 1.610352 0.000000 0.000001 -0.000005 0.132572 -1.223781
    29 1.016602 -0.000002 0.000000 0.008353 -0.011044 -0.982500
    30 3.555528 0.027795 -0.200594 -0.008010 -0.460974 -0.987304
    31 1.666016 0.000000 0.000001 -0.000009 0.154434 -1.288062
    32 1.243164 -0.000001 -0.000001 -0.000007 0.000000 -1.195502
    33 3.449653 0.058096 -1.085208 0.021508 0.027923 -0.405542
    34 1.715521 0.000010 0.000014 0.000002 -0.041475 -1.172786
    35 1.005910 0.000002 0.000006 0.003466 -0.009210 -0.492941
    36 0.079430 -0.734848 -0.755822 0.955321 0.184709 -0.647062
    37 2.512462 -0.000010 -0.000006 -0.000002 0.000000 0.359150
    38 1.281222 0.324217 -0.191418 0.015920 0.058269 0.066195
    39 -6.070640 -20.384605 -8.614961 1.579474 0.004095 -3.143294
    40 0.368990 2.075997 0.608053 0.000000 0.000000 -0.000002
    41 0.431396 3.837891 -3.351563 0.000001 -0.000001 -0.000001
    42 0.028107 2.679688 -6.453125 0.000000 0.000000 -0.000001
    43 0.684659 1.574635 6.342477 0.000034 -0.000009 0.000105
    44 5.711969 27.821880 -5.747292 1.525053 -0.184055 -4.522769
  time 19
    0 0.000005 -2.660156 -9.640625 -1.570760 -1.391893 -1.570827
    1 2.033348 1.000767 1.937659 3.124101 -0.078364 1.677017
    2 6.028134 0.000014 0.000009 -2.563673 -0.202955 -0.434290
    3 11.692564 0.000000 -0.000005 -0.000027 0.000084 -1.623981
    4 11.481682 -0.000157 -0.000034 1.464071 -0.530172 0.957518
    5 3.281570 -0.001774 -1.383349 -0.015625 -0.104104 -0.770666
    6 1.324286 -0.000002 0.000011 0.018591 -0.017188 -1.394980
    7 0.819336 -0.000002 0.000002 0.000000 0.000000 -0.523588
    8 3.715758 0.101454 -0.572033 -0.038293 -0.141720 -1.026365
    9 1.609375 0.000000 -0.000001 -0.005847 0.005405 -1.372530
    10 0.988770 -0.000002 0.000002 0.003620 0.009215 -0.872888
    11 3.789935 0.203236 0.243976 -0.040387 -0.195970 -1.025741
    12 1.679688 0.000002 0.000000 0.000347 -0.000323 -1.318600
    13 1.252149 -0.000011 0.000009 -0.009347 0.066322 -0.855946
    14 3.594213 0.299563 1.109842 -0.114091 -0.230646 -0.906472
    15 1.722656 0.000000 0.000001 0.000000 0.000000 -1.437568
    16 1.002930 0.000000 0.000000 -0.006126 0.150906 -0.769055
    17 0.302107 -0.637994 0.422803 -1.446133 -0.563297 -0.535856
    18 2.636719 -0.000002 -0.000002 -0.071570 0.102224 0.439656
    19 1.309570 0.000001 -0.000002 -0.111730 -0.128700 1.128963
    20 2.033356 1.000772 -1.937610 -1.668474 1.286518 2.942954
    21 6.028141 0.000001 -0.000004 1.700542 0.675268 -0.475790
    22 11.692552 0.000002 0.000001 0.000045 -0.000012 -1.989574
    23 11.481703 0.000003 -0.000010 -0.673714 0.042692 0.961702
    24 2.910444 -0.023190 1.404025 0.007547 -0.317593 -1.311117
    25 1.284180 -0.000002 -0.000002 0.000007 0.080537 -0.654315
    26 0.842285 -0.000002 -0.000002 -0.097520 0.057547 -1.355925
    27 3.368066 0.011261 0.622427 0.064202 -0.373671 -1.195695
    28 1.610352 0.000000 0.000001 -0.000005 0.132572 -1.223781
    29 1.016602 -0.000002 0.000000 0.008353 -0.011044 -0.982500
    30 3.551622 0.027795 -0.200594 -0.008010 -0.460974 -0.987304
    31 1.666016 0.000000 0.000001 -0.000009 0.154434 -1.288062
    32 1.243164 -0.000001 -0.000001 -0.000007 0.000000 -1.195502
    33 3.449653 0.058096 -1.085208 -0.013611 0.008640 -0.393711
    34 1.715521 0.000010 0.000014 0.000002 -0.035243 -1.003631
    35 1.005910 0.000002 0.000006 0.004593 -0.011163 -0.540001
    36 0.079430 -0.734848 -0.755822 0.955321 0.184724 -0.647062
    37 2.512462 -0.000010 -0.000006 -0.000002 0.000000 0.359150
    38 1.281222 0.328124 -0.191418 0.015920 0.058269 0.066195
    39 -6.070640 -20.400230 -8.618867 1.579029 0.003865 -3.143221
    40 0.361177 2.075997 0.608053 0.000000 0.000000 -0.000002
    41 0.431396 3.837891 -3.351563 0.000001 -0.000001 -0.000001
    42 0.028107 2.679688 -6.453125 0.000000 0.000000 -0.000001
    43 0.684659 1.570728 6.342477 0.000034 -0.000009 0.000105
    44 5.711969 27.821880 -5.747292 1.525053 -0.184055 -4.522769
  time 20
    0 0.000005 -2.660156 -9.640625 -1.570760 -1.391893 -1.570827
    1 2.033348 1.000767 1.937659 3.124101 -0.078364 1.677017
    2 6.028134 0.000014 0.000009 -2.563521 -0.203090 -0.434834
    3 11.692564 0.000000 -0.000005 -0.000027 0.000036 -1.624740
    4 11.481682 -0.000157 -0.000034 1.464684 -0.530464 0.955995
    5 3.281570 -0.001774 -1.383349 -0.015663 -0.103211 -0.770491
    6 1.324286 -0.000002 0.000011 0.018591 -0.017188 -1.394980
    7 0.819336 -0.000002 0.000002 0.000000 0.000000 -0.523588
    8 3.711852 0.105361 -0.572033 -0.038569 -0.140889 -1.026150
    9 1.609375 0.000000 -0.000001 -0.005847 0.005405 -1.372530
    10 0.988770 -0.000002 0.000002 0.003620 0.009215 -0.872888
    11 3.786029 0.203236 0.243976 -0.040674 -0.195116 -1.025523
    12 1.679688 0.000002 0.000000 0.000347 -0.000323 -1.318600
    13 1.252149 -0.000011 0.000009 -0.009347 0.066322 -0.855946
    14 3.594213 0.299563 1.109842 -0.114285 -0.229764 -0.906228
    15 1.722656 0.000000 0.000001 0.000000 0.000000 -1.437568
    16 1.002930 0.000000 0.000000 -0.006126 0.150906 -0.769055
    17 0.298200 -0.637994 0.426709 -1.445943 -0.562403 -0.535761
    18 2.636719 -0.000002 -0.000002 -0.071570 0.102224 0.439656
    19 1.309570 0.000001 -0.000002 -0.111730 -0.128700 1.128963
    20 2.033356 1.000772 -1.937610 -1.668474 1.286518 2.942954
    21 6.028141 0.000001 -0.000004 1.700978 0.676498 -0.475170
    22 11.692552 0.000002 0.000001 0.000045 0.000000 -1.987364
    23 11.481703 0.000003 -0.000010 -0.673448 0.042488 0.960799
    24 2.910444 -0.023190 1.404025 0.007547 -0.317593 -1.311117
    25 1.284180 -0.000002 -0.000002 0.000007 0.080537 -0.654315
    26 0.842285 -0.000002 -0.000002 -0.097520 0.057547 -1.355925
    27 3.368066 0.011261 0.622427 0.064202 -0.373671 -1.195695
    28 1.610352 0.000000 0.000001 -0.000005 0.132572 -1.223781
    29 1.016602 -0.000002 0.000000 0.008353 -0.011044 -0.982500
    30 3.551622 0.027795 -0.200594 -0.008010 -0.460974 -0.987304
    31 1.666016 0.000000 0.000001 -0.000009 0.154434 -1.288062
    32 1.243164 -0.000001 -0.000001 -0.000007 0.000000 -1.195502
    33 3.449653 0.058096 -1.085208 -0.053944 -0.021981 -0.380531
    34 1.711614 0.000010 0.000014 0.000002 -0.028076 -0.809312
    35 1.005910 0.000002 0.000006 0.005899 -0.013416 -0.594076
    36 0.079430 -0.734848 -0.755822 0.955321 0.184709 -0.647062
    37 2.512462 -0.000010 -0.000006 -0.000002 0.000000 0.359150
    38 1.281222 0.328124 -0.191418 0.015920 0.058269 0.066195
    39 -6.070640 -20.419762 -8.630586 1.578510 0.003596 -3.143148
    40 0.365084 2.075997 0.611959 0.000000 0.000000 -0.000002
    41 0.431396 3.837891 -3.351563 0.000001 -0.000001 -0.000001
    42 0.028107 2.679688 -6.453125 0.000000 0.000000 -0.000001
    43 0.684659 1.570728 6.346384 0.000034 -0.000009 0.000105
    44 5.711969 27.821880 -5.747292 1.525053 -0.184055 -4.522769
  time 21
    0 0.000005 -2.660156 -9.640625 -1.570760 -1.391893 -1.570827
    1 2.033348 1.000767 1.937659 3.124101 -0.078364 1.677017
    2 6.028134 0.000014 0.000009 -2.564127 -0.202910 -0.434925
    3 11.692564 0.000000 -0.000005 -0.000027 0.000024 -1.621098
    4 11.481682 -0.000157 -0.000034 1.467442 -0.530431 0.947665
    5 3.277664 -0.001774 -1.383349 -0.015719 -0.103563 -0.770421
    6 1.324286 -0.000002 0.000011 0.018591 -0.017188 -1.394980
    7 0.819336 -0.000002 0.000002 0.000000 0.000000 -0.523588
    8 3.711852 0.109267 -0.572033 -0.038533 -0.141222 -1.026108
    9 1.609375 0.000000 -0.000001 -0.005847 0.005405 -1.372530
    10 0.988770 -0.000002 0.000002 0.003620 0.009215 -0.872888
    11 3.786029 0.203236 0.243976 -0.040626 -0.195458 -1.025468
    12 1.679688 0.000002 0.000000 0.000347 -0.000323 -1.318600
    13 1.252149 -0.000011 0.000009 -0.009347 0.066322 -0.855946
    14 3.594213 0.299563 1.109842 -0.114285 -0.230121 -0.906167
    15 1.722656 0.000000 0.000001 0.000000 0.000000 -1.437568
    16 1.002930 0.000000 0.000000 -0.006126 0.150906 -0.769055
    17 0.298200 -0.637994 0.426709 -1.446038 -0.562745 -0.535666
    18 2.636719 -0.000002 -0.000002 -0.071570 0.102224 0.439656
    19 1.309570 0.000001 -0.000002 -0.111730 -0.128700 1.128963
    20 2.033356 1.000772 -1.937610 -1.668474 1.286518 2.942954
    21 6.028141 0.000001 -0.000004 1.700978 0.677686 -0.475081
    22 11.692552 0.000002 0.000001 0.000045 -0.000012 -1.984713
    23 11.481703 0.000003 -0.000010 -0.673514 0.042546 0.959327
    24 2.910444 -0.023190 1.404025 0.007547 -0.317593 -1.311117
    25 1.284180 -0.000002 -0.000002 0.000007 0.080537 -0.654315
    26 0.842285 -0.000002 -0.000002 -0.097520 0.057547 -1.355925
    27 3.368066 0.011261 0.622427 0.064202 -0.373671 -1.195695
    28 1.610352 0.000000 0.000001 -0.000005 0.132572 -1.223781
    29 1.016602 -0.000002 0.000000 0.008353 -0.011044 -0.982500
    30 3.555528 0.027795 -0.200594 -0.008010 -0.460974 -0.987304
    31 1.666016 0.000000 0.000001 -0.000009 0.154434 -1.288062
    32 1.243164 -0.000001 -0.000001 -0.000007 0.000000 -1.195502
    33 3.449653 0.058096 -1.085208 -0.095003 -0.058570 -0.367476
    34 1.711614 0.000010 0.000014 0.000002 -0.020766 -0.611239
    35 1.005910 0.000002 0.000006 0.007242 -0.015717 -0.649196
    36 0.079430 -0.734848 -0.755822 0.955321 0.184709 -0.647062
    37 2.512462 -0.000010 -0.000006 -0.000002 0.000000 0.359150
    38 1.281222 0.328124 -0.191418 0.015920 0.058269 0.066195
    39 -6.066734 -20.439294 -8.634493 1.577917 0.003289 -3.143074
    40 0.365084 2.075997 0.608053 0.000000 0.000000 -0.000002
    41 0.431396 3.837891 -3.351563 0.000001 -0.000001 -0.000001
    42 0.028107 2.679688 -6.453125 0.000000 0.000000 -0.000001
    43 0.692472 1.574635 6.338571 0.000034 -0.000009 -0.000095
    44 5.711969 27.821880 -5.747292 1.525053 -0.184055 -4.522769
  time 22
    0 0.000005 -2.660156 -9.640625 -1.570760 -1.391893 -1.570827
    1 2.033348 1.000767 1.937659 3.124101 -0.078364 1.677017
    2 6.028134 0.000014 0.000009 -2.564961 -0.202594 -0.434290
    3 11.692564 0.000000 -0.000005 -0.000027 0.000036 -1.614725
    4 11.481682 -0.000157 -0.000034 1.471242 -0.530269 0.933796
    5 3.277664 -0.001774 -1.383349 -0.015719 -0.103563 -0.770421
    6 1.324286 -0.000002 0.000011 0.018591 -0.017188 -1.394980
    7 0.819336 -0.000002 0.000002 0.000000 0.000000 -0.523588
    8 3.711852 0.109267 -0.572033 -0.038533 -0.141222 -1.026108
    9 1.609375 0.000000 -0.000001 -0.005847 0.005405 -1.372530
    10 0.988770 -0.000002 0.000002 0.003620 0.009215 -0.872888
    11 3.786029 0.203236 0.243976 -0.040626 -0.195458 -1.025468
    12 1.679688 0.000002 0.000000 0.000347 -0.000323 -1.318600
    13 1.252149 -0.000011 0.000009 -0.009347 0.066322 -0.855946
    14 3.594213 0.299563 1.109842 -0.114285 -0.230121 -0.906167
    15 1.722656 0.000000 0.000001 0.000000 0.000000 -1.437568
    16 1.002930 0.000000 0.000000 -0.006126 0.150906 -0.769055
    17 0.298200 -0.637994 0.426709 -1.446038 -0.562745 -0.535666
    18 2.636719 -0.000002 -0.000002 -0.071570 0.102224 0.439656
    19 1.309570 0.000001 -0.000002 -0.111730 -0.128700 1.128963
    20 2.033356 1.000772 -1.937610 -1.668474 1.286518 2.942954
    21 6.028141 0.000001 -0.000004 1.701467 0.679384 -0.474461
    22 11.692552 0.000002 0.000001 0.000045 -0.000012 -1.981430
    23 11.481703 0.000003 -0.000010 -0.673315 0.042356 0.957821
    24 2.910444 -0.023190 1.404025 0.007547 -0.317593 -1.311117
    25 1.284180 -0.000002 -0.000002 0.000007 0.080537 -0.654315
    26 0.842285 -0.000002 -0.000002 -0.097520 0.057547 -1.355925
    27 3.368066 0.011261 0.622427 0.064202 -0.373671 -1.195695
    28 1.610352 0.000000 0.000001 -0.000005 0.132572 -1.223781
    29 1.016602 -0.000002 0.000000 0.008353 -0.011044 -0.982500
    30 3.551622 0.027795 -0.200594 -0.008010 -0.460974 -0.987304
    31 1.666016 0.000000 0.000001 -0.000009 0.154434 -1.288062
    32 1.243164 -0.000001 -0.000001 -0.000007 0.000000 -1.195502
    33 3.449653 0.058096 -1.085208 -0.123292 -0.086183 -0.358658
    34 1.711614 0.000010 0.000014 0.000002 -0.015732 -0.474488
    35 1.005910 0.000002 0.000006 0.008140 -0.017311 -0.687246
    36 0.079430 -0.734848 -0.755822 0.955321 0.184709 -0.647062
    37 2.512462 -0.000010 -0.000006 -0.000002 0.000000 0.359150
    38 1.281222 0.328124 -0.191418 0.015920 0.058269 0.066195
    39 -6.066734 -20.470545 -8.646212 1.577249 0.002981 -3.142927
    40 0.365084 2.075997 0.608053 0.000000 0.000000 -0.000002
    41 0.431396 3.837891 -3.351563 0.000001 -0.000001 -0.000001
    42 0.028107 2.679688 -6.453125 0.000000 0.000000 -0.000001
    43 0.684659 1.574635 6.342477 0.000034 -0.000009 0.000105
    44 5.711969 27.821880 -5.747292 1.525053 -0.184055 -4.522769
  time 23
    0 0.000005 -2.660156 -9.640625 -1.570760 -1.391893 -1.570827
    1 2.033348 1.000767 1.937659 3.124101 -0.078364 1.677017
    2 6.028134 0.000014 0.000009 -2.565795 -0.202188 -0.432928
    3 11.692564 0.000000 -0.000005 -0.000027 0.000024 -1.607668
    4 11.481682 -0.000157 -0.000034 1.475042 -0.529944 0.918954
    5 3.281570 -0.001774 -1.383349 -0.015719 -0.103563 -0.770421
    6 1.324286 -0.000002 0.000011 0.018591 -0.017188 -1.394980
    7 0.819336 -0.000002 0.000002 0.000000 0.000000 -0.523588
    8 3.711852 0.105361 -0.572033 -0.038533 -0.141222 -1.026108
    9 1.609375 0.000000 -0.000001 -0.005847 0.005405 -1.372530
    10 0.988770 -0.000002 0.000002 0.003620 0.009215 -0.872888
    11 3.786029 0.203236 0.243976 -0.040626 -0.195458 -1.025468
    12 1.679688 0.000002 0.000000 0.000347 -0.000323 -1.318600
    13 1.252149 -0.000011 0.000009 -0.009347 0.066322 -0.855946
    14 3.594213 0.299563 1.109842 -0.114285 -0.230100 -0.906167
    15 1.722656 0.000000 0.000001 0.000000 0.000000 -1.437568
    16 1.002930 0.000000 0.000000 -0.006126 0.150906 -0.769055
    17 0.298200 -0.637994 0.426709 -1.446038 -0.562745 -0.535666
    18 2.636719 -0.000002 -0.000002 -0.071570 0.102224 0.439656
    19 1.309570 0.000001 -0.000002 -0.111730 -0.128700 1.128963
    20 2.033356 1.000772 -1.937610 -1.668474 1.286518 2.942954
    21 6.028141 0.000001 -0.000004 1.701903 0.681081 -0.473796
    22 11.692552 0.000002 0.000001 0.000045 -0.000012 -1.978210
    23 11.481703 0.000003 -0.000010 -0.673115 0.042166 0.956349
    24 2.910444 -0.023190 1.404025 0.007547 -0.317593 -1.311117
    25 1.284180 -0.000002 -0.000002 0.000007 0.080537 -0.654315
    26 0.842285 -0.000002 -0.000002 -0.097520 0.057547 -1.355925
    27 3.368066 0.011261 0.622427 0.064202 -0.373671 -1.195695
    28 1.610352 0.000000 0.000001 -0.000005 0.132572 -1.223781
    29 1.016602 -0.000002 0.000000 0.008353 -0.011044 -0.982500
    30 3.551622 0.027795 -0.200594 -0.008010 -0.460974 -0.987304
    31 1.666016 0.000000 0.000001 -0.000009 0.154434 -1.288062
    32 1.243164 -0.000001 -0.000001 -0.000007 0.000000 -1.195502
    33 3.449653 0.058096 -1.085208 -0.127891 -0.090413 -0.357215
    34 1.711614 0.000010 0.000014 0.000002 -0.014905 -0.452238
    35 1.005910 0.000002 0.000006 0.008296 -0.017563 -0.693453
    36 0.079430 -0.734848 -0.755822 0.955321 0.184709 -0.647062
    37 2.512462 -0.000010 -0.000006 -0.000002 0.000000 0.359150
    38 1.281222 0.328124 -0.191418 0.015920 0.058269 0.066195
    39 -6.058921 -20.509609 -8.650118 1.576532 0.002674 -3.142780
    40 0.365084 2.075997 0.608053 0.000000 0.000000 -0.000002
    41 0.431396 3.837891 -3.351563 0.000001 -0.000001 -0.000001
    42 0.028107 2.679688 -6.453125 0.000000 0.000000 -0.000001
    43 0.688565 1.574635 6.342477 0.000034 -0.000009 0.000105
    44 5.711969 27.821880 -5.747292 1.525053 -0.184055 -4.522769
  time 24
    0 0.000005 -2.660156 -9.640625 -1.570760 -1.391893 -1.570827
    1 2.033348 1.000767 1.937659 3.124101 -0.078364 1.677017
    2 6.028134 0.000014 0.000009 -2.566629 -0.201782 -0.431477
    3 11.692564 0.000000 -0.000005 -0.000027 0.000036 -1.600612
    4 11.481682 -0.000157 -0.000034 1.478964 -0.529782 0.903309
    5 3.277664 -0.001774 -1.383349 -0.015625 -0.103265 -0.770561
    6 1.324286 -0.000002 0.000011 0.018591 -0.017188 -1.394980
    7 0.819336 -0.000002 0.000002 0.000000 0.000000 -0.523588
    8 3.711852 0.101454 -0.572033 -0.038521 -0.140913 -1.026236
    9 1.609375 0.000000 -0.000001 -0.005847 0.005405 -1.372530
    10 0.988770 -0.000002 0.000002 0.003620 0.009215 -0.872888
    11 3.786029 0.203236 0.243976 -0.040614 -0.195159 -1.025632
    12 1.679688 0.000002 0.000000 0.000347 -0.000323 -1.318600
    13 1.252149 -0.000011 0.000009 -0.009347 0.066322 -0.855946
    14 3.594213 0.299563 1.109842 -0.114227 -0.229806 -0.906350
    15 1.722656 0.000000 0.000001 0.000000 0.000000 -1.437568
    16 1.002930 0.000000 0.000000 -0.006126 0.150906 -0.769055
    17 0.298200 -0.637994 0.426709 -1.445848 -0.562455 -0.535856
    18 2.636719 -0.000002 -0.000002 -0.071570 0.102224 0.439656
    19 1.309570 0.000001 -0.000002 -0.111730 -0.128700 1.128963
    20 2.033356 1.000772 -1.937610 -1.668474 1.286518 2.942954
    21 6.028141 0.000001 -0.000004 1.701957 0.682991 -0.473663
    22 11.692552 0.000002 0.000001 0.000045 -0.000012 -1.973854
    23 11.481703 0.000003 -0.000010 -0.673248 0.042283 0.953940
    24 2.910444 -0.023190 1.404025 0.007547 -0.317593 -1.311117
    25 1.284180 -0.000002 -0.000002 0.000007 0.080537 -0.654315
    26 0.842285 -0.000002 -0.000002 -0.097520 0.057547 -1.355925
    27 3.368066 0.011261 0.622427 0.064202 -0.373671 -1.195695
    28 1.610352 0.000000 0.000001 -0.000005 0.132572 -1.223781
    29 1.016602 -0.000002 0.000000 0.008353 -0.011044 -0.982500
    30 3.551622 0.027795 -0.200594 -0.008010 -0.460974 -0.987304
    31 1.666016 0.000000 0.000001 -0.000009 0.154434 -1.288062
    32 1.243164 -0.000001 -0.000001 -0.000007 0.000000 -1.195502
    33 3.449653 0.058096 -1.085208 -0.132134 -0.094308 -0.355865
    34 1.711614 0.000010 0.000014 0.000002 -0.014150 -0.431731
    35 1.005910 0.000002 0.000006 0.008428 -0.017803 -0.699169
    36 0.079430 -0.734848 -0.755822 0.955321 0.184724 -0.647062
    37 2.512462 -0.000010 -0.000006 -0.000002 0.000000 0.359150
    38 1.281222 0.328124 -0.191418 0.015920 0.058269 0.066195
    39 -6.058921 -20.548672 -8.661837 1.575766 0.002290 -3.142633
    40 0.365084 2.079904 0.611959 0.000000 0.000000 -0.000002
    41 0.431396 3.837891 -3.351563 0.000001 -0.000001 -0.000001
    42 0.028107 2.679688 -6.453125 0.000000 0.000000 -0.000001
    43 0.684659 1.574635 6.342477 0.000034 -0.000009 -0.000095
    44 5.711969 27.821880 -5.747292 1.525053 -0.184055 -4.522769
  time 25
    0 0.000005 -2.660156 -9.640625 -1.570760 -1.391893 -1.570827
    1 2.033348 1.000767 1.937659 3.124101 -0.078364 1.677017
    2 6.028134 0.000014 0.000009 -2.567615 -0.201376 -0.429843
    3 11.692564 0.000000 -0.000005 -0.000027 0.000024 -1.592494
    4 11.481682 -0.000157 -0.000034 1.483377 -0.529165 0.886818
    5 3.277664 -0.001774 -1.383349 -0.015719 -0.103563 -0.770421
    6 1.324286 -0.000002 0.000011 0.018591 -0.017188 -1.394980
    7 0.819336 -0.000002 0.000002 0.000000 0.000000 -0.523588
    8 3.711852 0.105361 -0.572033 -0.038533 -0.141222 -1.026108
    9 1.609375 0.000000 -0.000001 -0.005847 0.005405 -1.372530
    10 0.988770 -0.000002 0.000002 0.003620 0.009215 -0.872888
    11 3.786029 0.203236 0.243976 -0.040626 -0.195458 -1.025468
    12 1.679688 0.000002 0.000000 0.000347 -0.000323 -1.318600
    13 1.252149 -0.000011 0.000009 -0.009347 0.066322 -0.855946
    14 3.594213 0.299563 1.109842 -0.114285 -0.230121 -0.906167
    15 1.722656 0.000000 0.000001 0.000000 0.000000 -1.437568
    16 1.002930 0.000000 0.000000 -0.006126 0.150906 -0.769055
    17 0.298200 -0.637994 0.426709 -1.446038 -0.562745 -0.535666
    18 2.636719 -0.000002 -0.000002 -0.071570 0.102224 0.439656
    19 1.309570 0.000001 -0.000002 -0.111730 -0.128700 1.128963
    20 2.033356 1.000772 -1.937610 -1.668474 1.286518 2.942954
    21 6.028141 0.000001 -0.000004 1.702447 0.685409 -0.472954
    22 11.692552 0.000002 0.000001 0.000045 -0.000012 -1.969056
    23 11.481703 0.000003 -0.000010 -0.673049 0.042122 0.951564
    24 2.910444 -0.023190 1.404025 0.007547 -0.317593 -1.311117
    25 1.284180 -0.000002 -0.000002 0.000007 0.080537 -0.654315
    26 0.842285 -0.000002 -0.000002 -0.097520 0.057547 -1.355925
    27 3.368066 0.011261 0.622427 0.064202 -0.373671 -1.195695
    28 1.610352 0.000000 0.000001 -0.000005 0.132572 -1.223781
    29 1.016602 -0.000002 0.000000 0.008353 -0.011044 -0.982500
    30 3.551622 0.027795 -0.200594 -0.008010 -0.460974 -0.987304
    31 1.666016 0.000000 0.000001 -0.000009 0.154434 -1.288062
    32 1.243164 -0.000001 -0.000001 -0.000007 0.000000 -1.195502
    33 3.449653 0.058096 -1.085208 -0.135884 -0.097748 -0.354704
    34 1.711614 0.000010 0.000014 0.000002 -0.013479 -0.413602
    35 1.005910 0.000002 0.000006 0.008572 -0.018006 -0.704205
    36 0.079430 -0.734848 -0.755822 0.955321 0.184709 -0.647062
    37 2.512462 -0.000010 -0.000006 -0.000002 0.000000 0.359150
    38 1.281222 0.328124 -0.191418 0.015920 0.058269 0.066195
    39 -6.058921 -20.591642 -8.665744 1.575049 0.001945 -3.142413
    40 0.361177 2.075997 0.608053 0.000000 0.000000 -0.000002
    41 0.431396 3.837891 -3.351563 0.000001 -0.000001 -0.000001
    42 0.028107 2.679688 -6.453125 0.000000 0.000000 -0.000001
    43 0.684659 1.570728 6.338571 0.000034 -0.000009 -0.000095
    44 5.711969 27.821880 -5.747292 1.525053 -0.184055 -4.522769
  time 26
    0 0.000005 -2.660156 -9.640625 -1.570760 -1.391893 -1.570827
    1 2.033348 1.000767 1.937659 3.124101 -0.078364 1.677017
    2 6.028134 0.000014 0.000009 -2.568828 -0.201060 -0.428845
    3 11.692564 0.000000 -0.000005 -0.000027 0.000024 -1.583237
    4 11.481682 -0.000157 -0.000034 1.488035 -0.528710 0.868551
    5 3.277664 -0.001774 -1.383349 -0.015719 -0.103563 -0.770421
    6 1.324286 -0.000002 0.000011 0.018591 -0.017188 -1.394980
    7 0.819336 -0.000002 0.000002 0.000000 0.000000 -0.523588
    8 3.711852 0.109267 -0.572033 -0.038533 -0.141222 -1.026108
    9 1.609375 0.000000 -0.000001 -0.005847 0.005405 -1.372530
    10 0.988770 -0.000002 0.000002 0.003620 0.009215 -0.872888
    11 3.786029 0.203236 0.243976 -0.040626 -0.195458 -1.025468
    12 1.679688 0.000002 0.000000 0.000347 -0.000323 -1.318600
    13 1.252149 -0.000011 0.000009 -0.009347 0.066322 -0.855946
    14 3.594213 0.299563 1.109842 -0.114285 -0.230121 -0.906167
    15 1.722656 0.000000 0.000001 0.000000 0.000000 -1.437568
    16 1.002930 0.000000 0.000000 -0.006126 0.150906 -0.769055
    17 0.298200 -0.637994 0.426709 -1.446038 -0.562745 -0.535666
    18 2.636719 -0.000002 -0.000002 -0.071570 0.102224 0.439656
    19 1.309570 0.000001 -0.000002 -0.111730 -0.128700 1.128963
    20 2.033356 1.000772 -1.937610 -1.668474 1.286518 2.942954
    21 6.028141 0.000001 -0.000004 1.702937 0.688083 -0.472245
    22 11.692552 0.000002 0.000001 0.000045 -0.000012 -1.963627
    23 11.481703 0.000003 -0.000010 -0.672916 0.041990 0.948854
    24 2.910444 -0.023190 1.404025 0.007547 -0.317593 -1.311117
    25 1.284180 -0.000002 -0.000002 0.000007 0.080537 -0.654315
    26 0.842285 -0.000002 -0.000002 -0.097520 0.057547 -1.355925
    27 3.368066 0.011261 0.622427 0.064202 -0.373671 -1.195695
    28 1.610352 0.000000 0.000001 -0.000005 0.132572 -1.223781
    29 1.016602 -0.000002 0.000000 0.008353 -0.011044 -0.982500
    30 3.555528 0.027795 -0.200594 -0.008010 -0.460974 -0.987304
    31 1.666016 0.000000 0.000001 -0.000009 0.154434 -1.288062
    32 1.243164 -0.000001 -0.000001 -0.000007 0.000000 -1.195502
    33 3.449653 0.058096 -1.085208 -0.138881 -0.100504 -0.353763
    34 1.711614 0.000010 0.000014 0.000002 -0.012952 -0.399059
    35 1.005910 0.000002 0.000006 0.008668 -0.018186 -0.708258
    36 0.079430 -0.734848 -0.755822 0.955321 0.184709 -0.647062
    37 2.512462 -0.000010 -0.000006 -0.000002 0.000000 0.359150
    38 1.281222 0.328124 -0.191418 0.015920 0.058269 0.066195
    39 -6.055015 -20.642425 -8.677463 1.574258 0.001638 -3.142266
    40 0.365084 2.075997 0.608053 0.000000 0.000000 -0.000002
    41 0.431396 3.837891 -3.351563 0.000001 -0.000001 -0.000001
    42 0.028107 2.679688 -6.453125 0.000000 0.000000 -0.000001
    43 0.688565 1.574635 6.342477 0.000034 -0.000009 -0.000095
    44 5.711969 27.821880 -5.747292 1.525053 -0.184055 -4.522769
  time 27
    0 0.000005 -2.660156 -9.640625 -1.570760 -1.391893 -1.570827
    1 2.033348 1.000767 1.937659 3.124101 -0.078364 1.677017
    2 6.028134 0.000014 0.000009 -2.570344 -0.201240 -0.428119
    3 11.692564 0.000000 -0.000005 -0.000027 0.000024 -1.571932
    4 11.481682 -0.000157 -0.000034 1.493367 -0.528255 0.848804
    5 3.277664 -0.001774 -1.383349 -0.015814 -0.103861 -0.770245
    6 1.324286 -0.000002 0.000011 0.018591 -0.017188 -1.394980
    7 0.819336 -0.000002 0.000002 0.000000 0.000000 -0.523588
    8 3.711852 0.109267 -0.572033 -0.038569 -0.141530 -1.025936
    9 1.609375 0.000000 -0.000001 -0.005847 0.005405 -1.372530
    10 0.988770 -0.000002 0.000002 0.003620 0.009215 -0.872888
    11 3.786029 0.203236 0.243976 -0.040662 -0.195757 -1.025305
    12 1.679688 0.000002 0.000000 0.000347 -0.000323 -1.318600
    13 1.252149 -0.000011 0.000009 -0.009347 0.066322 -0.855946
    14 3.594213 0.299563 1.109842 -0.114343 -0.230415 -0.906045
    15 1.722656 0.000000 0.000001 0.000000 0.000000 -1.437568
    16 1.002930 0.000000 0.000000 -0.006126 0.150906 -0.769055
    17 0.298200 -0.634088 0.426709 -1.446229 -0.562981 -0.535382
    18 2.636719 -0.000002 -0.000002 -0.071570 0.102224 0.439656
    19 1.309570 0.000001 -0.000002 -0.111730 -0.128700 1.128963
    20 2.033356 1.000772 -1.937610 -1.668474 1.286518 2.942954
    21 6.028141 0.000001 -0.000004 1.703427 0.690756 -0.471536
    22 11.692552 0.000002 0.000001 0.000021 -0.000264 -1.958387
    23 11.481703 0.000003 -0.000010 -0.672117 0.042254 0.946913
    24 2.910444 -0.023190 1.400119 0.007350 -0.317916 -1.311631
    25 1.284180 -0.000002 -0.000002 0.000007 0.080537 -0.654315
    26 0.842285 -0.000002 -0.000002 -0.097520 0.057547 -1.355925
    27 3.364160 0.011261 0.622427 0.063963 -0.373983 -1.196174
    28 1.610352 0.000000 0.000001 -0.000005 0.132572 -1.223781
    29 1.016602 -0.000002 0.000000 0.008353 -0.011044 -0.982500
    30 3.555528 0.031702 -0.204501 -0.008334 -0.461226 -0.987742
    31 1.666016 0.000000 0.000001 -0.000009 0.154434 -1.288062
    32 1.243164 -0.000001 -0.000001 -0.000007 0.000000 -1.195502
    33 3.453559 0.058096 -1.085208 -0.141098 -0.102218 -0.353731
    34 1.715521 0.000010 0.000014 0.000002 -0.012616 -0.390280
    35 1.005910 0.000002 0.000006 0.008728 -0.018282 -0.710697
    36 0.083337 -0.734848 -0.759728 0.954950 0.184575 -0.647697
    37 2.512462 -0.000010 -0.000006 -0.000002 0.000000 0.359150
    38 1.281222 0.328124 -0.191418 0.015920 0.058269 0.066195
    39 -6.055015 -20.701021 -8.681369 1.573467 0.001215 -3.142119
    40 0.361177 2.075997 0.611959 0.000000 0.000000 -0.000002
    41 0.431396 3.837891 -3.351563 0.000001 -0.000001 -0.000001
    42 0.028107 2.679688 -6.453125 0.000000 0.000000 -0.000001
    43 0.684659 1.574635 6.342477 0.000034 -0.000045 0.000105
    44 5.711969 27.821880 -5.747292 1.525053 -0.184055 -4.522769
  time 28
    0 0.000005 -2.660156 -9.640625 -1.570760 -1.391893 -1.570827
    1 2.033348 1.000767 1.937659 3.124101 -0.078364 1.677017
    2 6.028134 0.000014 0.000009 -2.571785 -0.201060 -0.427756
    3 11.692564 0.000000 -0.000005 -0.000027 0.000036 -1.560930
    4 11.481682 -0.000157 -0.000034 1.497596 -0.527768 0.829691
    5 3.281570 -0.001774 -1.383349 -0.015719 -0.103563 -0.770421
    6 1.324286 -0.000002 0.000011 0.018591 -0.017188 -1.394980
    7 0.819336 -0.000002 0.000002 0.000000 0.000000 -0.523588
    8 3.711852 0.109267 -0.572033 -0.038533 -0.141222 -1.026108
    9 1.609375 0.000000 -0.000001 -0.005847 0.005405 -1.372530
    10 0.988770 -0.000002 0.000002 0.003620 0.009215 -0.872888
    11 3.786029 0.203236 0.243976 -0.040626 -0.195458 -1.025468
    12 1.679688 0.000002 0.000000 0.000347 -0.000323 -1.318600
    13 1.252149 -0.000011 0.000009 -0.009347 0.066322 -0.855946
    14 3.594213 0.299563 1.109842 -0.114285 -0.230121 -0.906167
    15 1.722656 0.000000 0.000001 0.000000 0.000000 -1.437568
    16 1.002930 0.000000 0.000000 -0.006126 0.150906 -0.769055
    17 0.298200 -0.637994 0.426709 -1.446038 -0.562745 -0.535666
    18 2.636719 -0.000002 -0.000002 -0.071570 0.102224 0.439656
    19 1.309570 0.000001 -0.000002 -0.111730 -0.128700 1.128963
    20 2.033356 1.000772 -1.937610 -1.668474 1.286518 2.942954
    21 6.028141 0.000001 -0.000004 1.704352 0.694194 -0.470206
    22 11.692552 0.000002 0.000001 0.000045 -0.000012 -1.951631
    23 11.481703 0.000003 -0.000010 -0.672317 0.041493 0.943133
    24 2.910444 -0.023190 1.404025 0.007547 -0.317593 -1.311117
    25 1.284180 -0.000002 -0.000002 0.000007 0.080537 -0.654315
    26 0.842285 -0.000002 -0.000002 -0.097520 0.057547 -1.355925
    27 3.368066 0.011261 0.622427 0.064202 -0.373671 -1.195695
    28 1.610352 0.000000 0.000001 -0.000005 0.132572 -1.223781
    29 1.016602 -0.000002 0.000000 0.008353 -0.011044 -0.982500
    30 3.551622 0.027795 -0.200594 -0.008010 -0.460974 -0.987304
    31 1.666016 0.000000 0.000001 -0.000009 0.154434 -1.288062
    32 1.243164 -0.000001 -0.000001 -0.000007 0.000000 -1.195502
    33 3.449653 0.058096 -1.085208 -0.140181 -0.101691 -0.353355
    34 1.715521 0.000010 0.000014 0.000002 -0.012712 -0.392827
    35 1.005910 0.000002 0.000006 0.008704 -0.018258 -0.709984
    36 0.079430 -0.734848 -0.755822 0.955321 0.184709 -0.647062
    37 2.512462 -0.000010 -0.000006 -0.000002 0.000000 0.359150
    38 1.281222 0.328124 -0.191418 0.015920 0.058269 0.066195
    39 -6.051108 -20.763523 -8.689182 1.572750 0.000947 -3.142046
    40 0.361177 2.075997 0.611959 0.000000 0.000000 -0.000002
    41 0.431396 3.837891 -3.351563 0.000001 -0.000001 -0.000001
    42 0.028107 2.679688 -6.453125 0.000000 0.000000 -0.000001
    43 0.688565 1.570728 6.342477 0.000034 -0.000009 0.000105
    44 5.711969 27.821880 -5.747292 1.525053 -0.184055 -4.522769
  time 29
    0 0.000005 -2.660156 -9.640625 -1.570760 -1.391893 -1.570827
    1 2.033348 1.000767 1.937659 3.124101 -0.078364 1.677017
    2 6.028134 0.000014 0.000009 -2.573225 -0.200925 -0.427484
    3 11.692564 0.000000 -0.000005 -0.000027 0.000036 -1.550763
    4 11.481682 -0.000157 -0.000034 1.501396 -0.527118 0.813285
    5 3.277664 -0.001774 -1.383349 -0.015719 -0.103563 -0.770421
    6 1.324286 -0.000002 0.000011 0.018591 -0.017188 -1.394980
    7 0.819336 -0.000002 0.000002 0.000000 0.000000 -0.523588
    8 3.711852 0.105361 -0.572033 -0.038533 -0.141222 -1.026108
    9 1.609375 0.000000 -0.000001 -0.005847 0.005405 -1.372530
    10 0.988770 -0.000002 0.000002 0.003620 0.009215 -0.872888
    11 3.786029 0.203236 0.243976 -0.040626 -0.195458 -1.025468
    12 1.679688 0.000002 0.000000 0.000347 -0.000323 -1.318600
    13 1.252149 -0.000011 0.000009 -0.009359 0.066322 -0.855946
    14 3.594213 0.299563 1.109842 -0.114285 -0.230121 -0.906167
    15 1.722656 0.000000 0.000001 0.000000 0.000000 -1.437568
    16 1.002930 0.000000 0.000000 -0.006126 0.150906 -0.769055
    17 0.298200 -0.637994 0.426709 -1.446038 -0.562745 -0.535666
    18 2.636719 -0.000002 -0.000002 -0.071570 0.102224 0.439656
    19 1.309570 0.000001 -0.000002 -0.111730 -0.128700 1.128963
    20 2.033356 1.000772 -1.937610 -1.668474 1.286518 2.942954
    21 6.028141 0.000001 -0.000004 1.704896 0.697588 -0.469408
    22 11.692552 0.000002 0.000001 0.000045 -0.000012 -1.944498
    23 11.481703 0.000003 -0.000010 -0.672250 0.041332 0.939151
    24 2.910444 -0.023190 1.404025 0.007729 -0.317605 -1.310845
    25 1.284180 -0.000002 -0.000002 0.000007 0.080537 -0.654315
    26 0.842285 -0.000002 -0.000002 -0.097520 0.057547 -1.355925
    27 3.368066 0.011261 0.622427 0.064382 -0.373707 -1.195455
    28 1.610352 0.000000 0.000001 -0.000005 0.132572 -1.223781
    29 1.016602 -0.000002 0.000000 0.008353 -0.011044 -0.982500
    30 3.551622 0.031702 -0.200594 -0.007842 -0.461027 -0.987093
    31 1.666016 0.000000 0.000001 -0.000009 0.154434 -1.288062
    32 1.243164 -0.000001 -0.000001 -0.000007 0.000000 -1.195502
    33 3.449653 0.058096 -1.085208 -0.133968 -0.096214 -0.354987
    34 1.715521 0.000010 0.000014 0.000002 -0.013815 -0.422449
    35 1.005910 0.000002 0.000006 0.008512 -0.017910 -0.701750
    36 0.079430 -0.734848 -0.755822 0.955441 0.184605 -0.646739
    37 2.512462 -0.000010 -0.000006 -0.000002 0.000000 0.359150
    38 1.281222 0.328124 -0.191418 0.015920 0.058269 0.066195
    39 -6.051108 -20.826024 -8.693088 1.572034 0.000524 -3.141899
    40 0.365084 2.075997 0.608053 0.000000 0.000000 -0.000002
    41 0.431396 3.837891 -3.351563 0.000001 -0.000001 -0.000001
    42 0.028107 2.679688 -6.453125 0.000000 0.000000 -0.000001
    43 0.680753 1.570728 6.338571 0.000034 -0.000009 -0.000095
    44 5.711969 27.821880 -5.747292 1.525053 -0.184055 -4.522769
  time 30
    0 0.000005 -2.660156 -9.640625 -1.570760 -1.391893 -1.570827
    1 2.033348 1.000767 1.937659 3.124101 -0.078364 1.677017
    2 6.028134 0.000014 0.000009 -2.574211 -0.200925 -0.427484
    3 11.692564 0.000000 -0.000005 -0.000027 0.000024 -1.543479
    4 11.481682 -0.000157 -0.000034 1.504031 -0.526761 0.801572
    5 3.277664 -0.001774 -1.383349 -0.015719 -0.103563 -0.770421
    6 1.324286 -0.000002 0.000011 0.018591 -0.017188 -1.394980
    7 0.819336 -0.000002 0.000002 0.000000 0.000000 -0.523588
    8 3.711852 0.105361 -0.572033 -0.038533 -0.141222 -1.026108
    9 1.609375 0.000000 -0.000001 -0.005847 0.005405 -1.372530
    10 0.988770 -0.000002 0.000002 0.003620 0.009215 -0.872888
    11 3.786029 0.203236 0.243976 -0.040626 -0.195458 -1.025468
    12 1.679688 0.000002 0.000000 0.000347 -0.000323 -1.318600
    13 1.252149 -0.000011 0.000009 -0.009347 0.066322 -0.855946
    14 3.594213 0.299563 1.109842 -0.114285 -0.230121 -0.906167
    15 1.722656 0.000000 0.000001 0.000000 0.000000 -1.437568
    16 1.002930 0.000000 0.000000 -0.006126 0.150906 -0.769055
    17 0.298200 -0.637994 0.426709 -1.446038 -0.562745 -0.535666
    18 2.636719 -0.000002 -0.000002 -0.071570 0.102224 0.439656
    19 1.309570 0.000001 -0.000002 -0.111730 -0.128700 1.128963
    20 2.033356 1.000772 -1.937610 -1.668474 1.286518 2.942954
    21 6.028141 0.000001 -0.000004 1.705386 0.701238 -0.468611
    22 11.692552 0.000002 0.000001 0.000045 -0.000012 -1.936858
    23 11.481703 0.000003 -0.000010 -0.672184 0.041259 0.935236
    24 2.910444 -0.023190 1.404025 0.007729 -0.317605 -1.310845
    25 1.284180 -0.000002 -0.000002 0.000007 0.080537 -0.654315
    26 0.842285 -0.000002 -0.000002 -0.097520 0.057547 -1.355925
    27 3.368066 0.011261 0.622427 0.064382 -0.373707 -1.195455
    28 1.610352 0.000000 0.000001 -0.000005 0.132572 -1.223781
    29 1.016602 -0.000002 0.000000 0.008353 -0.011044 -0.982500
    30 3.551622 0.031702 -0.200594 -0.007842 -0.461027 -0.987093
    31 1.666016 0.000000 0.000001 -0.000009 0.154434 -1.288062
    32 1.243164 -0.000001 -0.000001 -0.000007 0.000000 -1.195502
    33 3.449653 0.058096 -1.085208 -0.125263 -0.088208 -0.357717
    34 1.711614 0.000010 0.000014 0.000002 -0.015361 -0.464570
    35 1.005910 0.000002 0.000006 0.008212 -0.017419 -0.690017
    36 0.079430 -0.730942 -0.755822 0.955441 0.184605 -0.646739
    37 2.512462 -0.000010 -0.000006 -0.000002 0.000000 0.359150
    38 1.281222 0.328124 -0.191418 0.015920 0.058269 0.066195
    39 -6.043296 -20.904152 -8.696995 1.571416 0.000256 -3.141825
    40 0.365084 2.075997 0.416641 0.000000 0.000000 -0.000002
    41 0.431396 3.837891 -3.351563 0.000001 -0.000001 -0.000001
    42 0.028107 2.679688 -6.453125 0.000000 0.000000 -0.000001
    43 0.688565 1.570728 6.342477 0.000034 -0.000009 -0.000095
    44 5.711969 27.821880 -5.747292 1.525053 -0.184055 -4.522769
  time 31
    0 0.000005 -2.660156 -9.640625 -1.570760 -1.391893 -1.570827
    1 2.033348 1.000767 1.937659 3.124101 -0.078364 1.677017
    2 6.028134 0.000014 0.000009 -2.574590 -0.200879 -0.427030
    3 11.692564 0.000000 -0.000005 -0.000027 0.000036 -1.540672
    4 11.481682 -0.000157 -0.000034 1.504767 -0.526469 0.797555
    5 3.277664 -0.001774 -1.383349 -0.015719 -0.103563 -0.770421
    6 1.324286 -0.000002 0.000011 0.018603 -0.017188 -1.394980
    7 0.819336 -0.000002 0.000002 0.000000 0.000000 -0.523588
    8 3.711852 0.105361 -0.572033 -0.038533 -0.141222 -1.026108
    9 1.609375 0.000000 -0.000001 -0.005847 0.005405 -1.372530
    10 0.988770 -0.000002 0.000002 0.003620 0.009215 -0.872888
    11 3.786029 0.203236 0.243976 -0.040626 -0.195458 -1.025468
    12 1.679688 0.000002 0.000000 0.000347 -0.000323 -1.318600
    13 1.252149 -0.000011 0.000009 -0.009347 0.066322 -0.855946
    14 3.594213 0.299563 1.109842 -0.114285 -0.230100 -0.906228
    15 1.722656 0.000000 0.000001 0.000000 0.000000 -1.437568
    16 1.002930 0.000000 0.000000 -0.006126 0.150906 -0.769055
    17 0.298200 -0.637994 0.426709 -1.446038 -0.562745 -0.535666
    18 2.636719 -0.000002 -0.000002 -0.071570 0.102224 0.439656
    19 1.309570 0.000001 -0.000002 -0.111730 -0.128700 1.128963
    20 2.033356 1.000772 -1.937610 -1.668474 1.286518 2.942954
    21 6.028141 0.000001 -0.000004 1.705930 0.704930 -0.467813
    22 11.692552 0.000002 0.000001 0.000045 -0.000012 -1.929219
    23 11.481703 0.000003 -0.000010 -0.671851 0.041347 0.931355
    24 2.910444 -0.023190 1.404025 0.007759 -0.317833 -1.311026
    25 1.284180 -0.000002 -0.000002 0.000007 0.080537 -0.654315
    26 0.842285 -0.000002 -0.000002 -0.097520 0.057547 -1.355925
    27 3.368066 0.011261 0.622427 0.064394 -0.373923 -1.195602
    28 1.610352 0.000000 0.000001 -0.000005 0.132572 -1.223781
    29 1.016602 -0.000002 0.000000 0.008353 -0.011044 -0.982500
    30 3.555528 0.027795 -0.200594 -0.007878 -0.461253 -0.987216
    31 1.666016 0.000000 0.000001 -0.000009 0.154434 -1.288062
    32 1.243164 -0.000001 -0.000001 -0.000007 0.000000 -1.195502
    33 3.449653 0.058096 -1.085208 -0.123374 -0.086482 -0.358501
    34 1.711614 0.000010 0.000014 0.000002 -0.015732 -0.474488
    35 1.005910 0.000002 0.000006 0.008140 -0.017311 -0.687246
    36 0.079430 -0.734848 -0.755822 0.955321 0.184396 -0.646906
    37 2.512462 -0.000010 -0.000006 -0.000002 0.000000 0.359150
    38 1.281222 0.328124 -0.191418 0.015920 0.058269 0.066195
    39 -6.043296 -20.978373 -8.704807 1.570773 -0.000013 -3.141678
    40 0.365084 2.075997 0.229135 0.000000 0.000000 -0.000002
    41 0.431396 3.837891 -3.351563 0.000001 -0.000001 -0.000001
    42 0.028107 2.679688 -6.453125 0.000000 0.000000 -0.000001
    43 0.688565 1.574635 6.342477 0.000034 -0.000045 0.000105
    44 5.711969 27.821880 -5.747292 1.525053 -0.184055 -4.522769
end
