// Created by Crowbar++ 0.74
version 1
nodes
  0 "ValveBiped.Bip01_Spine4" -1
  1 "ValveBiped.Bip01_L_Clavicle" 0
  2 "ValveBiped.Bip01_L_UpperArm" 1
  3 "ValveBiped.Bip01_L_Forearm" 2
  4 "ValveBiped.Bip01_L_Hand" 3
  5 "ValveBiped.Bip01_L_Finger4" 4
  6 "ValveBiped.Bip01_L_Finger41" 5
  7 "ValveBiped.Bip01_L_Finger42" 6
  8 "ValveBiped.Bip01_L_Finger3" 4
  9 "ValveBiped.Bip01_L_Finger31" 8
  10 "ValveBiped.Bip01_L_Finger32" 9
  11 "ValveBiped.Bip01_L_Finger2" 4
  12 "ValveBiped.Bip01_L_Finger21" 11
  13 "ValveBiped.Bip01_L_Finger22" 12
  14 "ValveBiped.Bip01_L_Finger1" 4
  15 "ValveBiped.Bip01_L_Finger11" 14
  16 "ValveBiped.Bip01_L_Finger12" 15
  17 "ValveBiped.Bip01_L_Finger0" 4
  18 "ValveBiped.Bip01_L_Finger01" 17
  19 "ValveBiped.Bip01_L_Finger02" 18
  20 "ValveBiped.Bip01_R_Clavicle" 0
  21 "ValveBiped.Bip01_R_UpperArm" 20
  22 "ValveBiped.Bip01_R_Forearm" 21
  23 "ValveBiped.Bip01_R_Hand" 22
  24 "ValveBiped.Bip01_R_Finger4" 23
  25 "ValveBiped.Bip01_R_Finger41" 24
  26 "ValveBiped.Bip01_R_Finger42" 25
  27 "ValveBiped.Bip01_R_Finger3" 23
  28 "ValveBiped.Bip01_R_Finger31" 27
  29 "ValveBiped.Bip01_R_Finger32" 28
  30 "ValveBiped.Bip01_R_Finger2" 23
  31 "ValveBiped.Bip01_R_Finger21" 30
  32 "ValveBiped.Bip01_R_Finger22" 31
  33 "ValveBiped.Bip01_R_Finger1" 23
  34 "ValveBiped.Bip01_R_Finger11" 33
  35 "ValveBiped.Bip01_R_Finger12" 34
  36 "ValveBiped.Bip01_R_Finger0" 23
  37 "ValveBiped.Bip01_R_Finger01" 36
  38 "ValveBiped.Bip01_R_Finger02" 37
  39 "v_weapon.g3sg1_Parent" -1
  40 "v_weapon.g3sg1_Trigger" 39
  41 "v_weapon.g3sg1_Release" 39
  42 "v_weapon.g3sg1_Clip" 39
  43 "v_weapon.g3sg1_Safety" 39
  44 "v_weapon.g3sg1_Handle" 39
end
skeleton
  time 0
    0 0.992218 -1.460988 -8.715110 -1.570797 -1.217375 -1.570843
    1 2.033348 1.000767 1.937660 3.099074 -0.162002 1.680074
    2 6.028145 0.000003 0.000002 -2.165641 0.153869 -0.574436
    3 11.692553 0.000081 -0.000006 -0.176613 0.120865 -0.673886
    4 11.481674 -0.000089 -0.000023 -0.615223 0.378656 0.284323
    5 3.281559 0.002116 -1.383388 0.099948 -0.198724 -1.488913
    6 1.324282 -0.000010 0.000006 0.000000 -0.035669 -0.863360
    7 0.819336 0.000004 0.000000 0.000000 0.000000 -0.523558
    8 3.711852 0.105348 -0.572073 0.028732 -0.144618 -1.488825
    9 1.610352 0.000000 0.000001 -0.001224 0.005114 -0.663148
    10 0.993193 -0.000004 0.000001 0.001475 0.002258 -0.454046
    11 3.786029 0.203223 0.243937 -0.025986 -0.103248 -1.196287
    12 1.684422 -0.000010 0.000009 0.001620 -0.003714 -0.665474
    13 1.256836 0.000004 0.000000 0.000000 0.000000 -0.807200
    14 3.594221 0.299550 1.109803 -0.089765 -0.078369 -0.471358
    15 1.723633 0.000000 0.000000 0.000000 0.000000 -1.243541
    16 1.001953 -0.000004 0.000000 0.000000 0.000000 0.144005
    17 0.298212 -0.634095 0.426700 -0.521523 -0.862729 -0.524919
    18 2.633559 0.000000 -0.000010 0.012666 0.036504 0.384930
    19 1.307617 0.000000 0.000000 0.000885 -0.017461 -0.010264
    20 2.033356 1.000772 -1.937610 -0.128225 0.173025 4.244766
    21 6.028141 0.000000 -0.000002 -0.458794 0.782938 -1.755092
    22 11.692554 0.000000 -0.000003 0.045240 -0.055093 -1.376723
    23 11.481703 -0.000001 -0.000002 -1.293511 -0.138218 0.533634
    24 2.914335 -0.023167 1.400148 -0.075459 -0.048637 -0.941140
    25 1.284180 -0.000002 0.000000 0.000006 0.095135 -0.604945
    26 0.842285 0.000002 0.000000 -0.078527 0.054443 -1.209521
    27 3.368059 0.007376 0.618550 0.035972 -0.077320 -1.016265
    28 1.605515 0.000000 0.000001 0.000003 0.122000 -1.086904
    29 1.020534 -0.000002 -0.000002 0.015301 -0.014044 -1.343737
    30 3.551622 0.023918 -0.204473 0.012608 -0.103497 -0.905347
    31 1.666992 0.000000 0.000000 -0.000008 0.157406 -1.208295
    32 1.240434 0.000002 0.000006 0.000002 -0.000011 -1.483401
    33 3.449664 0.054212 -1.089087 0.053337 -0.066582 -0.357634
    34 1.711618 0.000008 0.000011 0.000003 -0.008421 -0.322908
    35 0.998535 0.000000 0.000000 0.005619 -0.013548 -0.593057
    36 0.075532 -0.738750 -0.759723 1.293541 0.406469 -0.475804
    37 2.508555 -0.000006 -0.000004 -0.000002 -0.000001 0.359162
    38 1.328098 0.050781 -0.113290 0.025663 0.040518 0.530193
    39 -3.072386 -13.162198 -21.980018 0.758758 -0.285010 -2.572710
    40 0.000000 2.820313 -1.550776 0.000000 0.000000 0.000000
    41 0.000000 2.738285 -4.027338 0.000000 0.000000 0.000000
    42 0.000000 2.919929 -5.820309 0.000000 0.000000 0.000000
    43 -0.642666 3.299407 -1.091387 0.000000 0.000000 0.000000
    44 -0.240766 6.016356 -14.297569 0.000007 -0.000002 -0.470638
  time 1
    0 0.992218 -1.449269 -8.715110 -1.570797 -1.217907 -1.570891
    1 2.033348 1.000767 1.937660 3.099074 -0.162002 1.680074
    2 6.028145 0.000003 0.000002 -2.165413 0.153194 -0.574593
    3 11.692553 0.000081 -0.000006 -0.176432 0.120673 -0.672589
    4 11.481674 -0.000089 -0.000023 -0.615632 0.378734 0.284202
    5 3.281559 0.002116 -1.379481 0.099706 -0.198220 -1.489100
    6 1.324282 -0.000010 0.000006 0.000000 -0.035669 -0.863360
    7 0.819336 0.000004 0.000000 0.000000 0.000000 -0.523558
    8 3.711852 0.109255 -0.568167 0.028504 -0.144115 -1.489001
    9 1.610352 0.000000 0.000001 -0.001224 0.005114 -0.663148
    10 0.993193 -0.000004 0.000001 0.001475 0.002258 -0.454046
    11 3.786029 0.203223 0.247844 -0.026070 -0.102697 -1.196526
    12 1.684422 -0.000010 0.000009 0.001620 -0.003714 -0.665474
    13 1.256836 0.000004 0.000000 0.000000 0.000000 -0.807200
    14 3.594221 0.299550 1.113709 -0.089462 -0.077902 -0.471615
    15 1.723633 0.000000 0.000000 0.000000 0.000000 -1.243541
    16 1.001953 -0.000004 0.000000 0.000000 0.000000 0.144005
    17 0.298212 -0.634095 0.430606 -0.521085 -0.862274 -0.525466
    18 2.637466 0.000000 -0.000010 0.012666 0.036504 0.384930
    19 1.307617 0.000000 0.000000 0.000885 -0.017461 -0.010264
    20 2.033356 1.000772 -1.937610 -0.128225 0.173025 4.244766
    21 6.028141 0.000000 -0.000002 -0.458941 0.782736 -1.755092
    22 11.692554 0.000000 -0.000003 0.045216 -0.055093 -1.376214
    23 11.481703 -0.000001 -0.000002 -1.293588 -0.138432 0.533579
    24 2.914335 -0.023167 1.400148 -0.075443 -0.048637 -0.941140
    25 1.284180 -0.000002 0.000000 0.000006 0.095135 -0.604945
    26 0.842285 0.000002 0.000000 -0.078527 0.054443 -1.209521
    27 3.368059 0.007376 0.622456 0.035972 -0.077320 -1.016265
    28 1.605515 0.000000 0.000001 0.000003 0.122000 -1.086904
    29 1.020534 -0.000002 -0.000002 0.015301 -0.014044 -1.343737
    30 3.551622 0.023918 -0.200567 0.012608 -0.103497 -0.905347
    31 1.666992 0.000000 0.000000 -0.000008 0.157406 -1.208295
    32 1.240434 0.000002 0.000006 0.000002 -0.000011 -1.483401
    33 3.449664 0.054212 -1.085181 0.053337 -0.066582 -0.357634
    34 1.711618 0.000008 0.000011 0.000003 -0.008421 -0.322908
    35 0.998535 0.000000 0.000000 0.005619 -0.013548 -0.593057
    36 0.075532 -0.738750 -0.759723 1.293541 0.406469 -0.475804
    37 2.508555 -0.000006 -0.000004 -0.000002 -0.000001 0.359162
    38 1.324192 0.050781 -0.113290 0.025663 0.040518 0.530193
    39 -3.072386 -13.162198 -21.980018 0.758758 -0.285010 -2.572710
    40 0.000000 2.820313 -1.550776 0.000000 0.000000 0.000000
    41 0.000000 2.738285 -4.027338 0.000000 0.000000 0.000000
    42 0.000000 2.919929 -5.820309 0.000000 0.000000 0.000000
    43 -0.642666 3.299407 -1.091387 0.000000 0.000000 0.000000
    44 -0.240766 6.016356 -14.297569 0.000007 -0.000002 -0.470638
  time 2
    0 0.992218 -1.437550 -8.707297 -1.570797 -1.219476 -1.570891
    1 2.033348 1.000767 1.937660 3.099074 -0.162002 1.680074
    2 6.028145 0.000003 0.000002 -2.166703 0.126622 -0.550223
    3 11.692553 0.000081 -0.000006 -0.172481 0.115544 -0.638987
    4 11.481674 -0.000089 -0.000023 -0.609080 0.380489 0.241928
    5 3.281559 0.002116 -1.383388 0.099983 -0.198796 -1.488882
    6 1.324282 -0.000010 0.000006 0.000000 -0.035669 -0.863360
    7 0.819336 0.000004 0.000000 0.000000 0.000000 -0.523558
    8 3.711852 0.105348 -0.572073 0.028780 -0.144690 -1.488781
    9 1.610352 0.000000 0.000001 -0.001224 0.005114 -0.663148
    10 0.993193 -0.000004 0.000001 0.001475 0.002258 -0.454046
    11 3.786029 0.203223 0.240031 -0.025974 -0.103332 -1.196287
    12 1.684422 -0.000010 0.000009 0.001620 -0.003714 -0.665474
    13 1.256836 0.000004 0.000000 0.000000 0.000000 -0.807200
    14 3.594221 0.299550 1.109803 -0.089808 -0.078429 -0.471315
    15 1.723633 0.000000 0.000000 0.000000 0.000000 -1.243541
    16 1.001953 -0.000004 0.000000 0.000000 0.000000 0.144005
    17 0.298212 -0.634095 0.422793 -0.521615 -0.862813 -0.524837
    18 2.633559 0.000000 -0.000010 0.012666 0.036492 0.384930
    19 1.307617 0.000000 0.000000 0.000885 -0.017461 -0.010264
    20 2.033356 1.000772 -1.937610 -0.128225 0.173025 4.244766
    21 6.028141 0.000000 -0.000002 -0.475610 0.785798 -1.793657
    22 11.692554 0.000000 -0.000003 0.044521 -0.054949 -1.363622
    23 11.481703 -0.000001 -0.000002 -1.263414 -0.139688 0.541255
    24 2.914335 -0.023167 1.400148 -0.075459 -0.048649 -0.941140
    25 1.284180 -0.000002 0.000000 0.000006 0.095135 -0.604945
    26 0.842285 0.000002 0.000000 -0.078527 0.054443 -1.209521
    27 3.368059 0.007376 0.622456 0.035972 -0.077332 -1.016265
    28 1.605515 0.000000 0.000001 0.000003 0.122000 -1.086904
    29 1.020534 -0.000002 -0.000002 0.015301 -0.014044 -1.343737
    30 3.551622 0.023918 -0.200567 0.012608 -0.103497 -0.905347
    31 1.666992 0.000000 0.000000 -0.000008 0.157406 -1.208295
    32 1.240434 0.000002 0.000006 0.000002 -0.000011 -1.483401
    33 3.449664 0.054212 -1.089087 0.053337 -0.066582 -0.357634
    34 1.711618 0.000008 0.000011 0.000003 -0.008421 -0.322908
    35 0.998535 0.000000 0.000000 0.005619 -0.013548 -0.593057
    36 0.075532 -0.738750 -0.759723 1.293529 0.406469 -0.475804
    37 2.512462 -0.000006 -0.000004 -0.000002 -0.000001 0.359162
    38 1.324192 0.050781 -0.113290 0.025663 0.040518 0.530193
    39 -3.076293 -13.568461 -21.620632 0.777963 -0.279756 -2.601914
    40 0.000000 2.820313 -1.550776 0.000000 0.000000 0.000000
    41 0.000000 2.738285 -4.027338 0.000000 0.000000 0.000000
    42 0.000000 2.919929 -5.820309 0.000000 0.000000 0.000000
    43 -0.642666 3.299407 -1.091387 0.000000 0.000000 0.000000
    44 -0.240766 6.016356 -14.297569 0.000007 -0.000002 -0.470638
  time 3
    0 0.992218 -1.414112 -8.707297 -1.570797 -1.221962 -1.570891
    1 2.033348 1.000767 1.937660 3.099074 -0.162002 1.680074
    2 6.028145 0.000003 0.000002 -2.168371 0.102414 -0.526403
    3 11.692553 0.000081 -0.000006 -0.169582 0.111553 -0.613298
    4 11.481674 -0.000089 -0.000023 -0.604370 0.381542 0.205579
    5 3.281559 0.002116 -1.383388 0.099706 -0.198220 -1.489100
    6 1.324282 -0.000010 0.000006 0.000000 -0.035669 -0.863360
    7 0.819336 0.000004 0.000000 0.000000 0.000000 -0.523558
    8 3.711852 0.109255 -0.568167 0.028504 -0.144115 -1.489001
    9 1.610352 0.000000 0.000001 -0.001224 0.005114 -0.663148
    10 0.993193 -0.000004 0.000001 0.001475 0.002258 -0.454046
    11 3.786029 0.203223 0.247844 -0.026058 -0.102697 -1.196526
    12 1.684422 -0.000010 0.000009 0.001620 -0.003714 -0.665474
    13 1.256836 0.000004 0.000000 0.000000 0.000000 -0.807200
    14 3.594221 0.299550 1.113709 -0.089462 -0.077902 -0.471615
    15 1.723633 0.000000 0.000000 0.000000 0.000000 -1.243541
    16 1.001953 -0.000004 0.000000 0.000000 0.000000 0.144005
    17 0.298212 -0.634095 0.430606 -0.521085 -0.862274 -0.525466
    18 2.637466 0.000000 -0.000010 0.012666 0.036504 0.384930
    19 1.307617 0.000000 0.000000 0.000885 -0.017461 -0.010264
    20 2.033356 1.000772 -1.937610 -0.128225 0.173025 4.244766
    21 6.028141 0.000000 -0.000002 -0.491911 0.788739 -1.831621
    22 11.692554 0.000000 -0.000003 0.043790 -0.054806 -1.350216
    23 11.481703 -0.000001 -0.000002 -1.233355 -0.142627 0.550515
    24 2.914335 -0.023167 1.400148 -0.075459 -0.048637 -0.941140
    25 1.284180 -0.000002 0.000000 0.000006 0.095135 -0.604945
    26 0.842285 0.000002 0.000000 -0.078527 0.054443 -1.209521
    27 3.368059 0.007376 0.618550 0.035972 -0.077320 -1.016265
    28 1.605515 0.000000 0.000001 0.000003 0.121988 -1.086904
    29 1.020534 -0.000002 -0.000002 0.015301 -0.014044 -1.343737
    30 3.551622 0.023918 -0.200567 0.012608 -0.103497 -0.905347
    31 1.666992 0.000000 0.000000 -0.000008 0.157406 -1.208295
    32 1.240434 0.000002 0.000006 0.000002 -0.000011 -1.483401
    33 3.449664 0.054212 -1.085181 0.053337 -0.066582 -0.357634
    34 1.711618 0.000008 0.000011 0.000003 -0.008421 -0.322908
    35 0.998535 0.000000 0.000000 0.005619 -0.013548 -0.593057
    36 0.075532 -0.738750 -0.759723 1.293529 0.406469 -0.475804
    37 2.508555 -0.000006 -0.000004 -0.000002 -0.000001 0.359162
    38 1.324192 0.050781 -0.113290 0.025651 0.040518 0.530170
    39 -3.099731 -13.966910 -21.253434 0.795310 -0.273043 -2.631431
    40 0.000000 2.820313 -1.550776 0.000000 0.000000 0.000000
    41 0.000000 2.738285 -4.027338 0.000000 0.000000 0.000000
    42 0.000000 2.919929 -5.820309 0.000000 0.000000 0.000000
    43 -0.642666 3.299407 -1.091387 0.000000 0.000000 0.000000
    44 -0.240766 6.016356 -14.297569 0.000007 -0.000002 -0.470638
  time 4
    0 0.992218 -1.375048 -8.707297 -1.570797 -1.225353 -1.570891
    1 2.033348 1.000767 1.937660 3.099074 -0.162002 1.680074
    2 6.028145 0.000003 0.000002 -2.170571 0.081822 -0.503762
    3 11.692553 0.000081 -0.000006 -0.167734 0.108916 -0.596562
    4 11.481674 -0.000089 -0.000023 -0.600138 0.382050 0.173622
    5 3.281559 0.002116 -1.383388 0.099706 -0.198220 -1.489100
    6 1.324282 -0.000010 0.000006 0.000000 -0.035669 -0.863360
    7 0.819336 0.000004 0.000000 0.000000 0.000000 -0.523558
    8 3.711852 0.109255 -0.568167 0.028504 -0.144115 -1.489001
    9 1.610352 0.000000 0.000001 -0.001224 0.005114 -0.663148
    10 0.989287 -0.000004 0.000001 0.001475 0.002270 -0.454046
    11 3.786029 0.203223 0.243937 -0.026070 -0.102697 -1.196526
    12 1.684422 -0.000010 0.000009 0.001620 -0.003714 -0.665474
    13 1.256836 0.000004 0.000000 0.000000 0.000000 -0.807200
    14 3.594221 0.299550 1.113709 -0.089462 -0.077902 -0.471615
    15 1.723633 0.000000 0.000000 0.000000 0.000000 -1.243541
    16 1.001953 -0.000004 0.000000 0.000000 0.000000 0.144005
    17 0.298212 -0.634095 0.426700 -0.521085 -0.862274 -0.525466
    18 2.637466 0.000000 -0.000010 0.012666 0.036492 0.384930
    19 1.307617 0.000000 0.000000 0.000885 -0.017461 -0.010264
    20 2.033356 1.000772 -1.937610 -0.128225 0.173025 4.244766
    21 6.028141 0.000000 -0.000002 -0.508138 0.791399 -1.869585
    22 11.692554 0.000000 -0.000003 0.042987 -0.054614 -1.335636
    23 11.481703 -0.000001 -0.000002 -1.203450 -0.147312 0.560376
    24 2.914335 -0.023167 1.400148 -0.075459 -0.048649 -0.941140
    25 1.284180 -0.000002 0.000000 0.000006 0.095135 -0.604945
    26 0.842285 0.000002 0.000000 -0.078527 0.054443 -1.209521
    27 3.368059 0.007376 0.618550 0.035972 -0.077320 -1.016265
    28 1.605515 0.000000 0.000001 0.000003 0.121988 -1.086904
    29 1.020534 -0.000002 -0.000002 0.015301 -0.014044 -1.343737
    30 3.551622 0.023918 -0.200567 0.012608 -0.103497 -0.905347
    31 1.666992 0.000000 0.000000 -0.000008 0.157406 -1.208295
    32 1.240434 0.000002 0.000006 0.000002 -0.000011 -1.483401
    33 3.449664 0.054212 -1.089087 0.053337 -0.066582 -0.357634
    34 1.711618 0.000008 0.000011 0.000003 -0.008421 -0.322908
    35 0.998535 0.000000 0.000000 0.005619 -0.013548 -0.593057
    36 0.075532 -0.738750 -0.755817 1.293529 0.406469 -0.475804
    37 2.508555 -0.000006 -0.000004 -0.000002 -0.000001 0.359162
    38 1.324192 0.050781 -0.113290 0.025651 0.040518 0.530193
    39 -3.134888 -14.345828 -20.870609 0.811294 -0.264947 -2.660948
    40 0.000000 2.820313 -1.550776 0.000000 0.000000 0.000000
    41 0.000000 2.738285 -4.027338 0.000000 0.000000 0.000000
    42 0.000000 2.919929 -5.820309 0.000000 0.000000 0.000000
    43 -0.642666 3.299407 -1.091387 0.000000 0.000000 0.000000
    44 -0.240766 6.016356 -14.297569 0.000007 -0.000002 -0.470638
  time 5
    0 0.992218 -1.332078 -8.703391 -1.570797 -1.229541 -1.570891
    1 2.033348 1.000767 1.937660 3.099074 -0.162002 1.680074
    2 6.028145 0.000003 0.000002 -2.172998 0.063256 -0.481751
    3 11.692553 0.000081 -0.000006 -0.166574 0.107202 -0.585924
    4 11.481674 -0.000089 -0.000023 -0.596793 0.382050 0.145453
    5 3.281559 0.002116 -1.379481 0.099706 -0.198220 -1.489100
    6 1.324282 -0.000010 0.000006 0.000000 -0.035669 -0.863360
    7 0.819336 0.000004 0.000000 0.000000 0.000000 -0.523558
    8 3.711852 0.109255 -0.568167 0.028504 -0.144115 -1.489001
    9 1.610352 0.000000 0.000001 -0.001224 0.005114 -0.663148
    10 0.993193 -0.000004 0.000001 0.001475 0.002258 -0.454046
    11 3.786029 0.203223 0.247844 -0.026070 -0.102697 -1.196504
    12 1.684422 -0.000010 0.000009 0.001620 -0.003714 -0.665474
    13 1.256836 0.000004 0.000000 0.000000 0.000000 -0.807200
    14 3.594221 0.299550 1.113709 -0.089462 -0.077902 -0.471615
    15 1.723633 0.000000 0.000000 0.000000 0.000000 -1.243541
    16 1.001953 -0.000004 0.000000 0.000000 0.000000 0.144005
    17 0.298212 -0.634095 0.430606 -0.521085 -0.862274 -0.525466
    18 2.637466 0.000000 -0.000010 0.012666 0.036504 0.384930
    19 1.307617 0.000000 0.000000 0.000885 -0.017461 -0.010264
    20 2.033356 1.000772 -1.937610 -0.128225 0.173025 4.244766
    21 6.028141 0.000000 -0.000002 -0.524217 0.793655 -1.906888
    22 11.692554 0.000000 -0.000003 0.042172 -0.054422 -1.320649
    23 11.481703 -0.000001 -0.000002 -1.173853 -0.152976 0.571603
    24 2.914335 -0.023167 1.400148 -0.075773 -0.048217 -0.941555
    25 1.284180 -0.000002 0.000000 0.000006 0.095135 -0.604945
    26 0.842285 0.000002 0.000000 -0.078527 0.054443 -1.209521
    27 3.368059 0.007376 0.622456 0.035636 -0.076925 -1.016683
    28 1.605515 0.000000 0.000001 0.000003 0.122000 -1.086904
    29 1.020534 -0.000002 -0.000002 0.015301 -0.014044 -1.343737
    30 3.555528 0.023918 -0.200567 0.012321 -0.103053 -0.905749
    31 1.666992 0.000000 0.000000 -0.000008 0.157406 -1.208295
    32 1.240434 0.000002 0.000006 0.000002 -0.000011 -1.483401
    33 3.453570 0.054212 -1.085181 0.053313 -0.066054 -0.358042
    34 1.711618 0.000008 0.000011 0.000003 -0.008421 -0.322908
    35 0.998535 0.000000 0.000000 0.005619 -0.013548 -0.593057
    36 0.079438 -0.734843 -0.755817 1.293445 0.406997 -0.476283
    37 2.508555 -0.000006 -0.000004 -0.000002 -0.000001 0.359162
    38 1.324192 0.050781 -0.113290 0.025663 0.040518 0.530170
    39 -3.181765 -14.709121 -20.479972 0.826509 -0.255544 -2.690387
    40 0.000000 2.820313 -1.550776 0.000000 0.000000 0.000000
    41 0.000000 2.738285 -4.027338 0.000000 0.000000 0.000000
    42 0.000000 2.919929 -5.820309 0.000000 0.000000 0.000000
    43 -0.642666 3.299407 -1.091387 0.000000 0.000000 0.000000
    44 -0.240766 6.016356 -14.297569 0.000007 -0.000002 -0.470638
  time 6
    0 0.992218 -1.281295 -8.695578 -1.570797 -1.234474 -1.570843
    1 2.033348 1.000767 1.937660 3.099074 -0.162002 1.680074
    2 6.028145 0.000003 0.000002 -2.176031 0.048596 -0.460761
    3 11.692553 0.000081 -0.000006 -0.166501 0.107082 -0.585145
    4 11.481674 -0.000089 -0.000023 -0.594200 0.381191 0.123128
    5 3.281559 0.002116 -1.383388 0.099706 -0.198220 -1.489100
    6 1.324282 -0.000010 0.000006 0.000000 -0.035669 -0.863360
    7 0.819336 0.000004 0.000000 0.000000 0.000000 -0.523558
    8 3.711852 0.109255 -0.572073 0.028504 -0.144115 -1.489001
    9 1.610352 0.000000 0.000001 -0.001224 0.005114 -0.663148
    10 0.993193 -0.000004 0.000001 0.001475 0.002258 -0.454046
    11 3.786029 0.203223 0.243937 -0.026058 -0.102697 -1.196526
    12 1.684422 -0.000010 0.000009 0.001620 -0.003714 -0.665474
    13 1.256836 0.000004 0.000000 0.000000 0.000000 -0.807200
    14 3.594221 0.299550 1.109803 -0.089462 -0.077902 -0.471615
    15 1.723633 0.000000 0.000000 0.000000 0.000000 -1.243541
    16 1.001953 -0.000004 0.000000 0.000000 0.000000 0.144005
    17 0.298212 -0.634095 0.426700 -0.521085 -0.862274 -0.525466
    18 2.633559 0.000000 -0.000010 0.012666 0.036504 0.384930
    19 1.307617 0.000000 0.000000 0.000885 -0.017461 -0.010264
    20 2.033356 1.000772 -1.937610 -0.128225 0.173025 4.244766
    21 6.028141 0.000000 -0.000002 -0.540001 0.795871 -1.943951
    22 11.692554 0.000000 -0.000003 0.041249 -0.054158 -1.303572
    23 11.481703 -0.000001 -0.000002 -1.143756 -0.160692 0.579552
    24 2.914335 -0.023167 1.400148 -0.075294 -0.048840 -0.940909
    25 1.284180 -0.000002 0.000000 0.000006 0.095135 -0.604945
    26 0.842285 0.000002 0.000000 -0.078527 0.054443 -1.209521
    27 3.368059 0.007376 0.622456 0.036151 -0.077512 -1.016055
    28 1.605515 0.000000 0.000001 0.000003 0.122000 -1.086955
    29 1.020534 -0.000002 -0.000002 0.015301 -0.014044 -1.343737
    30 3.551622 0.027824 -0.200567 0.012752 -0.103701 -0.905125
    31 1.666992 0.000000 0.000000 -0.000008 0.157406 -1.208295
    32 1.240434 0.000002 0.000006 0.000002 -0.000011 -1.483401
    33 3.449664 0.054212 -1.085181 0.053362 -0.066833 -0.357362
    34 1.711618 0.000008 0.000011 0.000003 -0.008421 -0.322857
    35 0.998535 0.000000 0.000000 0.005619 -0.013548 -0.593057
    36 0.075532 -0.738750 -0.759723 1.293589 0.406218 -0.475552
    37 2.508555 -0.000006 -0.000004 -0.000002 -0.000001 0.359162
    38 1.328098 0.050781 -0.113290 0.025663 0.040518 0.530170
    39 -3.244267 -15.064600 -20.081523 0.841452 -0.244959 -2.719591
    40 0.000000 2.820313 -1.550776 0.000000 0.000000 0.000000
    41 0.000000 2.738285 -4.027338 0.000000 0.000000 0.000000
    42 0.000000 2.919929 -5.820309 0.000000 0.000000 0.000000
    43 -0.642666 3.299407 -1.091387 0.000000 0.000000 0.000000
    44 -0.240766 6.016356 -14.297569 0.000007 -0.000002 -0.470638
  time 7
    0 0.992218 -1.226606 -8.691671 -1.570797 -1.240058 -1.570843
    1 2.033348 1.000767 1.937660 3.099074 -0.162002 1.680074
    2 6.028145 0.000003 0.000002 -2.179444 0.035816 -0.440007
    3 11.692553 0.000081 -0.000006 -0.167045 0.107885 -0.590205
    4 11.481674 -0.000089 -0.000023 -0.592357 0.379904 0.104752
    5 3.281559 0.002116 -1.379481 0.099706 -0.198220 -1.489100
    6 1.324282 -0.000010 0.000006 0.000000 -0.035669 -0.863360
    7 0.819336 0.000004 0.000000 0.000000 0.000000 -0.523558
    8 3.711852 0.109255 -0.568167 0.028504 -0.144115 -1.489001
    9 1.610352 0.000000 0.000001 -0.001224 0.005114 -0.663148
    10 0.993193 -0.000004 0.000001 0.001475 0.002258 -0.454046
    11 3.786029 0.203223 0.247844 -0.026058 -0.102697 -1.196526
    12 1.684422 -0.000010 0.000009 0.001620 -0.003714 -0.665474
    13 1.256836 0.000004 0.000000 0.000000 0.000000 -0.807200
    14 3.594221 0.299550 1.109803 -0.089462 -0.077902 -0.471615
    15 1.723633 0.000000 0.000000 0.000000 0.000000 -1.243541
    16 1.001953 -0.000004 0.000000 0.000000 0.000000 0.144005
    17 0.298212 -0.634095 0.430606 -0.521085 -0.862274 -0.525466
    18 2.633559 0.000000 -0.000010 0.012666 0.036504 0.384930
    19 1.307617 0.000000 0.000000 0.000885 -0.017461 -0.010264
    20 2.033356 1.000772 -1.937610 -0.128225 0.173025 4.244766
    21 6.028141 0.000000 -0.000002 -0.555564 0.797724 -1.980294
    22 11.692554 0.000000 -0.000003 0.040314 -0.053907 -1.286241
    23 11.481703 -0.000001 -0.000002 -1.114274 -0.168530 0.588211
    24 2.914335 -0.023167 1.400148 -0.075443 -0.048637 -0.941140
    25 1.284180 -0.000002 0.000000 0.000006 0.095135 -0.604945
    26 0.842285 0.000002 0.000000 -0.078527 0.054443 -1.209521
    27 3.368059 0.007376 0.618550 0.035972 -0.077320 -1.016265
    28 1.605515 0.000000 0.000001 0.000003 0.121988 -1.086904
    29 1.020534 -0.000002 -0.000002 0.015301 -0.014044 -1.343737
    30 3.551622 0.023918 -0.200567 0.012608 -0.103497 -0.905347
    31 1.666992 0.000000 0.000000 -0.000008 0.157406 -1.208295
    32 1.240434 0.000002 0.000006 0.000002 0.000001 -1.483439
    33 3.449664 0.054212 -1.089087 0.053337 -0.066582 -0.357634
    34 1.711618 0.000008 0.000011 0.000003 -0.008421 -0.322908
    35 0.998535 0.000000 0.000000 0.005619 -0.013548 -0.593057
    36 0.075532 -0.738750 -0.759723 1.293529 0.406469 -0.475804
    37 2.508555 -0.000006 -0.000004 -0.000002 -0.000001 0.359162
    38 1.324192 0.050781 -0.113290 0.025663 0.040518 0.530170
    39 -3.310675 -15.404454 -19.675260 0.856643 -0.233268 -2.748403
    40 0.000000 2.820313 -1.550776 0.000000 0.000000 0.000000
    41 0.000000 2.738285 -4.027338 0.000000 0.000000 0.000000
    42 0.000000 2.919929 -5.820309 0.000000 0.000000 0.000000
    43 -0.642666 3.299407 -1.091387 0.000000 0.000000 0.000000
    44 -0.240766 6.016356 -14.297569 0.000007 -0.000002 -0.470638
  time 8
    0 0.992218 -1.164104 -8.687765 -1.570797 -1.246241 -1.570891
    1 2.033348 1.000767 1.937660 3.099074 -0.162002 1.680074
    2 6.028145 0.000003 0.000002 -2.183236 0.024242 -0.419253
    3 11.692553 0.000081 -0.000006 -0.168060 0.109395 -0.599676
    4 11.481674 -0.000089 -0.000023 -0.591265 0.378422 0.089761
    5 3.281559 0.002116 -1.383388 0.099706 -0.198220 -1.489100
    6 1.324282 -0.000010 0.000006 0.000000 -0.035681 -0.863360
    7 0.819336 0.000004 0.000000 0.000000 0.000000 -0.523558
    8 3.711852 0.109255 -0.568167 0.028516 -0.144115 -1.489045
    9 1.610352 0.000000 0.000001 -0.001224 0.005114 -0.663148
    10 0.993193 -0.000004 0.000001 0.001475 0.002258 -0.454046
    11 3.786029 0.203223 0.243937 -0.026070 -0.102697 -1.196526
    12 1.684422 -0.000010 0.000009 0.001608 -0.003714 -0.665474
    13 1.256836 0.000004 0.000000 0.000000 0.000000 -0.807200
    14 3.594221 0.299550 1.109803 -0.089462 -0.077902 -0.471615
    15 1.723633 0.000000 0.000000 0.000000 0.000000 -1.243541
    16 1.001953 -0.000004 0.000000 0.000000 0.000000 0.144005
    17 0.298212 -0.634095 0.430606 -0.521085 -0.862274 -0.525466
    18 2.633559 0.000000 -0.000010 0.012666 0.036504 0.384930
    19 1.307617 0.000000 0.000000 0.000885 -0.017461 -0.010264
    20 2.033356 1.000772 -1.937610 -0.128225 0.173025 4.244766
    21 6.028141 0.000000 -0.000002 -0.571127 0.799336 -2.016396
    22 11.692554 0.000000 -0.000003 0.039307 -0.053595 -1.267634
    23 11.481703 -0.000001 -0.000002 -1.084715 -0.176920 0.594521
    24 2.914335 -0.023167 1.400148 -0.075443 -0.048637 -0.941140
    25 1.284180 -0.000002 0.000000 0.000006 0.095135 -0.604945
    26 0.842285 0.000002 0.000000 -0.078527 0.054443 -1.209521
    27 3.368059 0.007376 0.622456 0.035972 -0.077320 -1.016265
    28 1.605515 0.000000 0.000001 0.000003 0.121988 -1.086904
    29 1.020534 -0.000002 -0.000002 0.015301 -0.014044 -1.343737
    30 3.551622 0.023918 -0.204473 0.012608 -0.103497 -0.905347
    31 1.666992 0.000000 0.000000 -0.000008 0.157406 -1.208295
    32 1.240434 0.000002 0.000006 0.000002 -0.000011 -1.483478
    33 3.449664 0.054212 -1.085181 0.053337 -0.066582 -0.357634
    34 1.711618 0.000008 0.000011 0.000003 -0.008421 -0.322908
    35 0.998535 0.000000 0.000000 0.005619 -0.013548 -0.593057
    36 0.075532 -0.738750 -0.759723 1.293529 0.406469 -0.475804
    37 2.508555 -0.000006 -0.000004 -0.000002 -0.000001 0.359162
    38 1.324192 0.050781 -0.113290 0.025651 0.040518 0.530170
    39 -3.396615 -15.732589 -19.257279 0.872676 -0.220621 -2.776667
    40 0.000000 2.820313 -1.550776 0.000000 0.000000 0.000000
    41 0.000000 2.738285 -4.027338 0.000000 0.000000 0.000000
    42 0.000000 2.919929 -5.820309 0.000000 0.000000 0.000000
    43 -0.642666 3.299407 -1.091387 0.000000 0.000000 0.000000
    44 -0.240766 6.016356 -14.297569 0.000007 -0.000002 -0.470638
  time 9
    0 0.992218 -1.089883 -8.676046 -1.570797 -1.252982 -1.570891
    1 2.033348 1.000767 1.937660 3.099074 -0.162002 1.680074
    2 6.028145 0.000003 0.000002 -2.187635 0.014549 -0.398421
    3 11.692553 0.000081 -0.000006 -0.169691 0.111744 -0.614531
    4 11.481674 -0.000089 -0.000023 -0.590719 0.376589 0.078638
    5 3.281559 0.002116 -1.379481 0.099723 -0.198220 -1.489100
    6 1.324282 -0.000010 0.000006 0.000000 -0.035681 -0.863360
    7 0.819336 0.000004 0.000000 0.000000 0.000000 -0.523558
    8 3.711852 0.109255 -0.568167 0.028504 -0.144115 -1.489001
    9 1.610352 0.000000 0.000001 -0.001224 0.005114 -0.663148
    10 0.993193 -0.000004 0.000001 0.001475 0.002258 -0.454046
    11 3.786029 0.203223 0.243937 -0.026070 -0.102697 -1.196504
    12 1.684422 -0.000010 0.000009 0.001620 -0.003714 -0.665474
    13 1.256836 0.000004 0.000000 0.000000 0.000000 -0.807200
    14 3.594221 0.299550 1.113709 -0.089462 -0.077902 -0.471615
    15 1.723633 0.000000 0.000000 0.000000 0.000000 -1.243541
    16 1.001953 -0.000004 0.000000 0.000000 0.000000 0.144005
    17 0.298212 -0.634095 0.426700 -0.521085 -0.862274 -0.525466
    18 2.633559 0.000000 -0.000010 0.012666 0.036504 0.384930
    19 1.307617 0.000000 0.000000 0.000885 -0.017461 -0.010264
    20 2.033356 1.000772 -1.937610 -0.128225 0.173025 4.244766
    21 6.028141 0.000000 -0.000002 -0.586247 0.800826 -2.051597
    22 11.692554 0.000000 -0.000003 0.038277 -0.053272 -1.248416
    23 11.481703 -0.000001 -0.000002 -1.055157 -0.185218 0.598563
    24 2.914335 -0.023167 1.400148 -0.075459 -0.048637 -0.941140
    25 1.284180 -0.000002 0.000000 0.000006 0.095135 -0.604945
    26 0.842285 0.000002 0.000000 -0.078527 0.054443 -1.209521
    27 3.368059 0.007376 0.622456 0.035972 -0.077320 -1.016265
    28 1.605515 0.000000 0.000001 0.000003 0.121988 -1.086904
    29 1.020534 -0.000002 -0.000002 0.015301 -0.014044 -1.343737
    30 3.551622 0.023918 -0.200567 0.012608 -0.103497 -0.905347
    31 1.666992 0.000000 0.000000 -0.000008 0.157406 -1.208295
    32 1.240434 0.000002 0.000006 0.000002 -0.000011 -1.483401
    33 3.449664 0.054212 -1.085181 0.053337 -0.066582 -0.357634
    34 1.711618 0.000008 0.000011 0.000003 -0.008421 -0.322908
    35 0.998535 0.000000 0.000000 0.005619 -0.013548 -0.593057
    36 0.075532 -0.738750 -0.755817 1.293541 0.406469 -0.475804
    37 2.508555 -0.000006 -0.000004 -0.000002 -0.000001 0.359162
    38 1.324192 0.050781 -0.113290 0.025663 0.040518 0.530193
    39 -3.482555 -16.045099 -18.819766 0.889974 -0.207145 -2.804305
    40 0.000000 2.820313 -1.550776 0.000000 0.000000 0.000000
    41 0.000000 2.738285 -4.027338 0.000000 0.000000 0.000000
    42 0.000000 2.919929 -5.820309 0.000000 0.000000 0.000000
    43 -0.642666 3.299407 -1.091387 0.000000 0.000000 0.000000
    44 -0.240766 6.016356 -14.297569 0.000007 -0.000002 -0.470638
  time 10
    0 0.992218 -1.015662 -8.676046 -1.570797 -1.260135 -1.570843
    1 2.033348 1.000767 1.937660 3.099074 -0.162002 1.680074
    2 6.028145 0.000003 0.000002 -2.192717 0.005531 -0.376724
    3 11.692553 0.000081 -0.000006 -0.171684 0.114501 -0.632110
    4 11.481674 -0.000089 -0.000023 -0.590923 0.375107 0.070296
    5 3.281559 0.002116 -1.379481 0.099706 -0.198220 -1.489100
    6 1.324282 -0.000010 0.000006 0.000000 -0.035669 -0.863360
    7 0.819336 0.000004 0.000000 0.000000 0.000000 -0.523558
    8 3.711852 0.109255 -0.568167 0.028504 -0.144115 -1.489001
    9 1.610352 0.000000 0.000001 -0.001224 0.005114 -0.663148
    10 0.993193 -0.000004 0.000001 0.001475 0.002258 -0.454046
    11 3.786029 0.203223 0.247844 -0.026082 -0.102697 -1.196504
    12 1.684422 -0.000010 0.000009 0.001608 -0.003714 -0.665474
    13 1.256836 0.000004 0.000000 0.000000 0.000000 -0.807200
    14 3.594221 0.299550 1.109803 -0.089462 -0.077902 -0.471615
    15 1.723633 0.000000 0.000000 0.000000 0.000000 -1.243541
    16 1.001953 -0.000004 0.000000 0.000000 0.000000 0.144005
    17 0.298212 -0.634095 0.426700 -0.521085 -0.862274 -0.525466
    18 2.633559 0.000000 -0.000010 0.012666 0.036504 0.384930
    19 1.307617 0.000000 0.000000 0.000885 -0.017461 -0.010264
    20 2.033356 1.000772 -1.937610 -0.128225 0.173025 4.244766
    21 6.028141 0.000000 -0.000002 -0.600925 0.802277 -2.085957
    22 11.692554 0.000000 -0.000003 0.037234 -0.052912 -1.228586
    23 11.481703 -0.000001 -0.000002 -1.025483 -0.192933 0.599465
    24 2.914335 -0.023167 1.400148 -0.075294 -0.048864 -0.940932
    25 1.284180 -0.000002 0.000000 0.000006 0.095135 -0.604945
    26 0.842285 0.000002 0.000000 -0.078527 0.054443 -1.209521
    27 3.368059 0.007376 0.622456 0.036139 -0.077536 -1.016076
    28 1.605515 0.000000 0.000001 0.000003 0.122000 -1.086904
    29 1.020534 -0.000002 -0.000002 0.015301 -0.014044 -1.343737
    30 3.551622 0.023918 -0.200567 0.012752 -0.103725 -0.905146
    31 1.666992 0.000000 0.000000 -0.000008 0.157406 -1.208295
    32 1.240434 0.000002 0.000006 0.000002 -0.000011 -1.483401
    33 3.449664 0.054212 -1.089087 0.053337 -0.066857 -0.357408
    34 1.711618 0.000008 0.000011 0.000003 -0.008421 -0.322908
    35 0.998535 0.000000 0.000000 0.005619 -0.013548 -0.593057
    36 0.075532 -0.738750 -0.759723 1.293577 0.406206 -0.475576
    37 2.508555 -0.000006 -0.000004 -0.000002 -0.000001 0.359162
    38 1.324192 0.050781 -0.113290 0.025651 0.040518 0.530170
    39 -3.584121 -16.349796 -18.382252 0.909228 -0.192965 -2.831161
    40 0.000000 2.820313 -1.550776 0.000000 0.000000 0.000000
    41 0.000000 2.738285 -4.027338 0.000000 0.000000 0.000000
    42 0.000000 2.919929 -5.820309 0.000000 0.000000 0.000000
    43 -0.642666 3.299407 -1.091387 0.000000 0.000000 0.000000
    44 -0.240766 6.016356 -14.297569 0.000007 -0.000002 -0.470638
  time 11
    0 0.992218 -0.941441 -8.668233 -1.570797 -1.267714 -1.570843
    1 2.033348 1.000767 1.937660 3.099074 -0.162002 1.680074
    2 6.028145 0.000003 0.000002 -2.198329 -0.003679 -0.354240
    3 11.692553 0.000081 -0.000006 -0.173895 0.117401 -0.650987
    4 11.481674 -0.000089 -0.000023 -0.591879 0.373742 0.063969
    5 3.281559 0.002116 -1.383388 0.099706 -0.198220 -1.489100
    6 1.324282 -0.000010 0.000006 0.000000 -0.035681 -0.863360
    7 0.819336 0.000004 0.000000 0.000000 0.000000 -0.523558
    8 3.711852 0.109255 -0.568167 0.028516 -0.144115 -1.489045
    9 1.610352 0.000000 0.000001 -0.001224 0.005114 -0.663148
    10 0.993193 -0.000004 0.000001 0.001475 0.002258 -0.454046
    11 3.786029 0.203223 0.243937 -0.026058 -0.102697 -1.196526
    12 1.684422 -0.000010 0.000009 0.001608 -0.003714 -0.665474
    13 1.256836 0.000004 0.000000 0.000000 0.000000 -0.807200
    14 3.594221 0.299550 1.113709 -0.089462 -0.077902 -0.471615
    15 1.723633 0.000000 0.000000 0.000000 0.000000 -1.243541
    16 1.001953 -0.000004 0.000000 0.000000 0.000000 0.144005
    17 0.298212 -0.634095 0.430606 -0.521085 -0.862274 -0.525466
    18 2.633559 0.000000 -0.000010 0.012666 0.036504 0.384930
    19 1.307617 0.000000 0.000000 0.000885 -0.017461 -0.010264
    20 2.033356 1.000772 -1.937610 -0.128225 0.173025 4.244806
    21 6.028141 0.000000 -0.000002 -0.615529 0.803445 -2.119956
    22 11.692554 0.000000 -0.000003 0.036120 -0.052505 -1.207584
    23 11.481703 -0.000001 -0.000002 -0.995885 -0.199394 0.597553
    24 2.914335 -0.023167 1.400148 -0.075443 -0.048637 -0.941140
    25 1.284180 -0.000002 0.000000 0.000006 0.095135 -0.604945
    26 0.842285 0.000002 0.000000 -0.078527 0.054443 -1.209521
    27 3.368059 0.007376 0.618550 0.035972 -0.077320 -1.016265
    28 1.605515 0.000000 0.000001 0.000003 0.122000 -1.086904
    29 1.020534 -0.000002 -0.000002 0.015301 -0.014044 -1.343737
    30 3.551622 0.023918 -0.204473 0.012608 -0.103497 -0.905347
    31 1.666992 0.000000 0.000000 -0.000008 0.157406 -1.208295
    32 1.240434 0.000002 0.000006 0.000002 -0.000011 -1.483439
    33 3.449664 0.054212 -1.089087 0.053337 -0.066582 -0.357634
    34 1.711618 0.000008 0.000011 0.000003 -0.008421 -0.322908
    35 0.998535 0.000000 0.000000 0.005619 -0.013548 -0.593057
    36 0.075532 -0.738750 -0.755817 1.293529 0.406469 -0.475804
    37 2.508555 -0.000006 -0.000004 -0.000002 -0.000001 0.359149
    38 1.324192 0.050781 -0.113290 0.025651 0.040518 0.530170
    39 -3.685686 -16.646680 -17.929113 0.930986 -0.178282 -2.857233
    40 0.000000 2.820313 -1.550776 0.000000 0.000000 0.000000
    41 0.000000 2.738285 -4.027338 0.000000 0.000000 0.000000
    42 0.000000 2.919929 -5.820309 0.000000 0.000000 0.000000
    43 -0.642666 3.299407 -1.091387 0.000000 0.000000 0.000000
    44 -0.240766 6.016356 -14.297569 0.000007 -0.000002 -0.470638
  time 12
    0 0.992218 -0.863314 -8.664327 -1.570797 -1.275585 -1.570891
    1 2.033348 1.000767 1.937660 3.099074 -0.162002 1.680074
    2 6.028145 0.000003 0.000002 -2.204776 -0.014048 -0.330106
    3 11.692553 0.000081 -0.000006 -0.175997 0.120074 -0.668697
    4 11.481674 -0.000089 -0.000023 -0.593585 0.372962 0.058690
    5 3.281559 0.002116 -1.379481 0.099723 -0.198220 -1.489100
    6 1.324282 -0.000010 0.000006 0.000000 -0.035681 -0.863360
    7 0.819336 0.000004 0.000000 0.000000 0.000000 -0.523558
    8 3.711852 0.109255 -0.568167 0.028504 -0.144115 -1.489001
    9 1.610352 0.000000 0.000001 -0.001224 0.005114 -0.663148
    10 0.993193 -0.000004 0.000001 0.001475 0.002258 -0.454046
    11 3.786029 0.203223 0.247844 -0.026058 -0.102697 -1.196526
    12 1.684422 -0.000010 0.000009 0.001620 -0.003714 -0.665474
    13 1.256836 0.000004 0.000000 0.000000 0.000000 -0.807200
    14 3.594221 0.299550 1.113709 -0.089462 -0.077902 -0.471615
    15 1.723633 0.000000 0.000000 0.000000 0.000000 -1.243541
    16 1.001953 -0.000004 0.000000 0.000000 0.000000 0.144005
    17 0.298212 -0.634095 0.430606 -0.521085 -0.862274 -0.525466
    18 2.633559 0.000000 -0.000010 0.012666 0.036504 0.384930
    19 1.307617 0.000000 0.000000 0.000885 -0.017461 -0.010264
    20 2.033356 1.000772 -1.937610 -0.128225 0.173025 4.244766
    21 6.028141 0.000000 -0.000002 -0.629986 0.804372 -2.153115
    22 11.692554 0.000000 -0.000003 0.035017 -0.052073 -1.186327
    23 11.481703 -0.000001 -0.000002 -0.965827 -0.203864 0.591598
    24 2.914335 -0.023167 1.400148 -0.075294 -0.048804 -0.940886
    25 1.284180 -0.000002 0.000000 0.000006 0.095135 -0.604945
    26 0.842285 0.000002 0.000000 -0.078527 0.054443 -1.209521
    27 3.368059 0.007376 0.622456 0.036151 -0.077476 -1.016035
    28 1.605515 0.000000 0.000001 0.000003 0.121988 -1.086904
    29 1.020534 -0.000002 -0.000002 0.015301 -0.014044 -1.343737
    30 3.551622 0.027824 -0.204473 0.012764 -0.103665 -0.905105
    31 1.666992 0.000000 0.000000 -0.000008 0.157406 -1.208295
    32 1.240434 0.000002 0.000006 0.000002 -0.000011 -1.483401
    33 3.449664 0.054212 -1.089087 0.053387 -0.066810 -0.357362
    34 1.711618 0.000008 0.000011 0.000003 -0.008421 -0.322908
    35 0.998535 0.000000 0.000000 0.005619 -0.013548 -0.593057
    36 0.075532 -0.738750 -0.759723 1.293613 0.406254 -0.475516
    37 2.508555 -0.000006 -0.000004 -0.000002 -0.000001 0.359149
    38 1.324192 0.050781 -0.113290 0.025663 0.040518 0.530170
    39 -3.802877 -16.939657 -17.460349 0.955767 -0.163222 -2.882444
    40 0.000000 2.820313 -1.550776 0.000000 0.000000 0.000000
    41 0.000000 2.738285 -4.027338 0.000000 0.000000 0.000000
    42 0.000000 2.919929 -5.820309 0.000000 0.000000 0.000000
    43 -0.642666 3.299407 -1.091387 0.000000 0.000000 0.000000
    44 -0.240766 6.016356 -14.297569 0.000007 -0.000002 -0.470638
  time 13
    0 0.992218 -0.773467 -8.656514 -1.570797 -1.283709 -1.570891
    1 2.033348 1.000767 1.937660 3.099074 -0.162002 1.680074
    2 6.028145 0.000003 0.000002 -2.212209 -0.025525 -0.304006
    3 11.692553 0.000081 -0.000006 -0.177918 0.122471 -0.684719
    4 11.481674 -0.000089 -0.000023 -0.596043 0.373118 0.054338
    5 3.281559 0.002116 -1.379481 0.099723 -0.198220 -1.489100
    6 1.324282 -0.000010 0.000006 0.000000 -0.035681 -0.863360
    7 0.819336 0.000004 0.000000 0.000000 0.000000 -0.523558
    8 3.711852 0.109255 -0.568167 0.028504 -0.144115 -1.489001
    9 1.610352 0.000000 0.000001 -0.001224 0.005114 -0.663148
    10 0.993193 -0.000004 0.000001 0.001475 0.002258 -0.454046
    11 3.786029 0.203223 0.247844 -0.026070 -0.102697 -1.196504
    12 1.684422 -0.000010 0.000009 0.001608 -0.003714 -0.665474
    13 1.256836 0.000004 0.000000 0.000000 0.000000 -0.807200
    14 3.594221 0.299550 1.113709 -0.089462 -0.077902 -0.471615
    15 1.723633 0.000000 0.000000 0.000000 0.000000 -1.243541
    16 1.001953 -0.000004 0.000000 0.000000 0.000000 0.144005
    17 0.298212 -0.634095 0.430606 -0.521085 -0.862274 -0.525466
    18 2.633559 0.000000 -0.000010 0.012666 0.036504 0.384930
    19 1.307617 0.000000 0.000000 0.000885 -0.017461 -0.010264
    20 2.033356 1.000772 -1.937610 -0.128225 0.173025 4.244766
    21 6.028141 0.000000 -0.000002 -0.644148 0.805298 -2.185793
    22 11.692554 0.000000 -0.000003 0.033830 -0.051702 -1.163745
    23 11.481703 -0.000001 -0.000002 -0.935422 -0.205671 0.581573
    24 2.910429 -0.023167 1.400148 -0.075376 -0.048972 -0.941094
    25 1.284180 -0.000002 0.000000 0.000006 0.095135 -0.604945
    26 0.842285 0.000002 0.000000 -0.078527 0.054443 -1.209521
    27 3.364152 0.007376 0.622456 0.036068 -0.077656 -1.016244
    28 1.605515 0.000000 0.000001 0.000003 0.122000 -1.086904
    29 1.020534 -0.000002 -0.000002 0.015301 -0.014044 -1.343737
    30 3.551622 0.023918 -0.200567 0.012668 -0.103832 -0.905307
    31 1.666992 0.000000 0.000000 -0.000008 0.157406 -1.208295
    32 1.240434 0.000002 0.000006 0.000002 0.000001 -1.483401
    33 3.449664 0.054212 -1.089087 0.053213 -0.066905 -0.357544
    34 1.711618 0.000008 0.000011 0.000003 -0.008421 -0.322908
    35 0.998535 0.000000 0.000000 0.005619 -0.013548 -0.593057
    36 0.075532 -0.734843 -0.759723 1.293433 0.406146 -0.475804
    37 2.508555 -0.000006 -0.000004 -0.000002 -0.000001 0.359162
    38 1.324192 0.050781 -0.113290 0.025663 0.040518 0.530193
    39 -3.927881 -17.220916 -16.987678 0.984265 -0.147961 -2.906715
    40 0.000000 2.820313 -1.550776 0.000000 0.000000 0.000000
    41 0.000000 2.738285 -4.027338 0.000000 0.000000 0.000000
    42 0.000000 2.919929 -5.820309 0.000000 0.000000 0.000000
    43 -0.642666 3.299407 -1.091387 0.000000 0.000000 0.000000
    44 -0.240766 6.016356 -14.297569 0.000007 -0.000002 -0.470638
  time 14
    0 0.992218 -0.687527 -8.652608 -1.570797 -1.292019 -1.570891
    1 2.033348 1.000767 1.937660 3.099074 -0.162002 1.680074
    2 6.028145 0.000003 0.000002 -2.220552 -0.038546 -0.275784
    3 11.692553 0.000081 -0.000006 -0.179657 0.124544 -0.698666
    4 11.481674 -0.000089 -0.000023 -0.599387 0.374015 0.050671
    5 3.281559 0.002116 -1.383388 0.099706 -0.198220 -1.489100
    6 1.324282 -0.000010 0.000006 0.000000 -0.035681 -0.863360
    7 0.819336 0.000004 0.000000 0.000000 0.000000 -0.523558
    8 3.711852 0.109255 -0.568167 0.028504 -0.144115 -1.489001
    9 1.610352 0.000000 0.000001 -0.001224 0.005114 -0.663148
    10 0.993193 -0.000004 0.000001 0.001475 0.002258 -0.454046
    11 3.786029 0.203223 0.243937 -0.026070 -0.102697 -1.196504
    12 1.684422 -0.000010 0.000009 0.001608 -0.003714 -0.665474
    13 1.256836 0.000004 0.000000 0.000000 0.000000 -0.807200
    14 3.594221 0.299550 1.113709 -0.089462 -0.077902 -0.471615
    15 1.723633 0.000000 0.000000 0.000000 0.000000 -1.243541
    16 1.001953 -0.000004 0.000000 0.000000 0.000000 0.144005
    17 0.298212 -0.634095 0.426700 -0.521085 -0.862274 -0.525466
    18 2.633559 0.000000 -0.000010 0.012666 0.036504 0.384930
    19 1.307617 0.000000 0.000000 0.000885 -0.017461 -0.010264
    20 2.033356 1.000772 -1.937610 -0.128225 0.173025 4.244766
    21 6.028141 0.000000 -0.000002 -0.658162 0.805983 -2.217630
    22 11.692554 0.000000 -0.000003 0.032680 -0.051054 -1.141162
    23 11.481703 -0.000001 -0.000002 -0.905133 -0.204569 0.567697
    24 2.914335 -0.023167 1.400148 -0.075294 -0.048757 -0.940863
    25 1.284180 -0.000002 0.000000 0.000006 0.095135 -0.604945
    26 0.842285 0.000002 0.000000 -0.078527 0.054443 -1.209521
    27 3.368059 0.007376 0.618550 0.036163 -0.077428 -1.016014
    28 1.605515 0.000000 0.000001 0.000003 0.122000 -1.086904
    29 1.020534 -0.000002 -0.000002 0.015301 -0.014044 -1.343737
    30 3.551622 0.027824 -0.200567 0.012776 -0.103617 -0.905085
    31 1.666992 0.000000 0.000000 -0.000008 0.157406 -1.208295
    32 1.240434 0.000002 0.000006 0.000002 -0.000011 -1.483439
    33 3.449664 0.054212 -1.089087 0.053425 -0.066774 -0.357362
    34 1.711618 0.000008 0.000011 0.000003 -0.008421 -0.322908
    35 0.998535 0.000000 0.000000 0.005619 -0.013548 -0.593057
    36 0.075532 -0.738750 -0.755817 1.293649 0.406290 -0.475480
    37 2.508555 -0.000006 -0.000004 -0.000002 -0.000001 0.359149
    38 1.324192 0.050781 -0.113290 0.025663 0.040518 0.530170
    39 -4.060698 -17.498268 -16.487663 1.017001 -0.132700 -2.929968
    40 0.000000 2.820313 -1.550776 0.000000 0.000000 0.000000
    41 0.000000 2.738285 -4.027338 0.000000 0.000000 0.000000
    42 0.000000 2.919929 -5.820309 0.000000 0.000000 0.000000
    43 -0.642666 3.299407 -1.091387 0.000000 0.000000 0.000000
    44 -0.240766 6.016356 -14.297569 0.000007 -0.000002 -0.470638
  time 15
    0 0.992218 -0.601587 -8.644795 -1.570797 -1.300422 -1.570891
    1 2.033348 1.000767 1.937660 3.099074 -0.162002 1.680074
    2 6.028145 0.000003 0.000002 -2.230184 -0.053977 -0.244889
    3 11.692553 0.000081 -0.000006 -0.180745 0.125850 -0.707683
    4 11.481674 -0.000089 -0.000023 -0.603483 0.376199 0.046238
    5 3.281559 0.002116 -1.379481 0.099706 -0.198220 -1.489100
    6 1.324282 -0.000010 0.000006 0.000000 -0.035669 -0.863360
    7 0.819336 0.000004 0.000000 0.000000 0.000000 -0.523558
    8 3.711852 0.109255 -0.568167 0.028516 -0.144115 -1.489045
    9 1.610352 0.000000 0.000001 -0.001224 0.005114 -0.663148
    10 0.989287 -0.000004 0.000001 0.001475 0.002258 -0.454046
    11 3.786029 0.203223 0.243937 -0.026058 -0.102697 -1.196526
    12 1.684422 -0.000010 0.000009 0.001620 -0.003714 -0.665474
    13 1.256836 0.000004 0.000000 0.000000 0.000000 -0.807200
    14 3.594221 0.299550 1.113709 -0.089462 -0.077902 -0.471615
    15 1.723633 0.000000 0.000000 0.000000 0.000000 -1.243541
    16 1.001953 -0.000004 0.000000 0.000000 0.000000 0.144005
    17 0.298212 -0.634095 0.430606 -0.521085 -0.862274 -0.525466
    18 2.633559 0.000000 -0.000010 0.012666 0.036504 0.384930
    19 1.307617 0.000000 0.000000 0.000885 -0.017461 -0.010264
    20 2.033356 1.000772 -1.937610 -0.128225 0.173025 4.244766
    21 6.028141 0.000000 -0.000002 -0.672102 0.806426 -2.249047
    22 11.692554 0.000000 -0.000003 0.031482 -0.050503 -1.117560
    23 11.481703 -0.000001 -0.000002 -0.874383 -0.198812 0.549313
    24 2.914335 -0.027074 1.400148 -0.075443 -0.048637 -0.941140
    25 1.284180 -0.000002 0.000000 0.000006 0.095135 -0.604945
    26 0.842285 0.000002 0.000000 -0.078527 0.054443 -1.209521
    27 3.368059 0.007376 0.622456 0.035972 -0.077320 -1.016265
    28 1.605515 0.000000 0.000001 0.000003 0.122000 -1.086904
    29 1.020534 -0.000002 -0.000002 0.015301 -0.014044 -1.343765
    30 3.555528 0.023918 -0.200567 0.012608 -0.103497 -0.905347
    31 1.666992 0.000000 0.000000 -0.000008 0.157406 -1.208295
    32 1.240434 0.000002 0.000006 0.000002 -0.000011 -1.483401
    33 3.449664 0.054212 -1.085181 0.053337 -0.066582 -0.357634
    34 1.711618 0.000008 0.000011 0.000003 -0.008421 -0.322908
    35 0.998535 0.000000 0.000000 0.005619 -0.013548 -0.593057
    36 0.075532 -0.738750 -0.759723 1.293529 0.406469 -0.475804
    37 2.508555 -0.000006 -0.000004 -0.000002 -0.000001 0.359162
    38 1.324192 0.050781 -0.113290 0.025663 0.040518 0.530193
    39 -4.201327 -17.767808 -15.975929 1.054990 -0.117665 -2.952361
    40 0.000000 2.820313 -1.550776 0.000000 0.000000 0.000000
    41 0.000000 2.738285 -4.027338 0.000000 0.000000 0.000000
    42 0.000000 2.919929 -5.820309 0.000000 0.000000 0.000000
    43 -0.642666 3.299407 -1.091387 0.000000 0.000000 0.000000
    44 -0.240766 6.016356 -14.297569 0.000007 -0.000002 -0.470638
  time 16
    0 0.992218 -0.515647 -8.644795 -1.570797 -1.308865 -1.570843
    1 2.033348 1.000767 1.937660 3.099074 -0.162002 1.680074
    2 6.028145 0.000003 0.000002 -2.241105 -0.072399 -0.210771
    3 11.692553 0.000081 -0.000006 -0.181107 0.126282 -0.710602
    4 11.481674 -0.000089 -0.000023 -0.608670 0.379709 0.040999
    5 3.281559 0.002116 -1.379481 0.099550 -0.197933 -1.489162
    6 1.324282 -0.000010 0.000006 0.000000 -0.035669 -0.863360
    7 0.819336 0.000004 0.000000 0.000000 0.000000 -0.523558
    8 3.711852 0.109255 -0.568167 0.028348 -0.143815 -1.489110
    9 1.610352 0.000000 0.000001 -0.001224 0.005114 -0.663148
    10 0.989287 -0.000004 0.000001 0.001475 0.002258 -0.454046
    11 3.786029 0.203223 0.247844 -0.026118 -0.102373 -1.196657
    12 1.684422 -0.000010 0.000009 0.001620 -0.003714 -0.665474
    13 1.256836 0.000004 0.000000 0.000000 0.000000 -0.807200
    14 3.594221 0.299550 1.113709 -0.089290 -0.077626 -0.471722
    15 1.723633 0.000000 0.000000 0.000000 0.000000 -1.243541
    16 1.001953 -0.000004 0.000000 0.000000 0.000000 0.144005
    17 0.298212 -0.634095 0.426700 -0.520877 -0.861971 -0.525768
    18 2.633559 0.000000 -0.000010 0.012666 0.036504 0.384930
    19 1.307617 0.000000 0.000000 0.000885 -0.017461 -0.010264
    20 2.033356 1.000772 -1.937610 -0.128225 0.173025 4.244766
    21 6.028141 0.000000 -0.000002 -0.685600 0.806990 -2.279502
    22 11.692554 0.000000 -0.000003 0.030295 -0.049904 -1.093958
    23 11.481703 -0.000001 -0.000002 -0.843479 -0.188555 0.526669
    24 2.914335 -0.023167 1.400148 -0.075443 -0.048637 -0.941140
    25 1.284180 -0.000002 0.000000 0.000006 0.095135 -0.604945
    26 0.842285 0.000002 0.000000 -0.078527 0.054443 -1.209521
    27 3.368059 0.007376 0.618550 0.035972 -0.077320 -1.016265
    28 1.605515 0.000000 0.000001 0.000003 0.122000 -1.086904
    29 1.020534 -0.000002 -0.000002 0.015301 -0.014044 -1.343737
    30 3.551622 0.023918 -0.200567 0.012608 -0.103497 -0.905347
    31 1.666992 0.000000 0.000000 -0.000008 0.157406 -1.208295
    32 1.240434 0.000002 0.000006 0.000002 -0.000011 -1.483401
    33 3.449664 0.054212 -1.089087 0.053337 -0.066582 -0.357634
    34 1.711618 0.000008 0.000011 0.000003 -0.008421 -0.322908
    35 0.998535 0.000000 0.000000 0.005619 -0.013548 -0.593057
    36 0.075532 -0.734843 -0.759723 1.293541 0.406469 -0.475804
    37 2.508555 -0.000006 -0.000004 -0.000002 -0.000001 0.359162
    38 1.324192 0.050781 -0.113290 0.025663 0.040518 0.530193
    39 -4.357582 -18.029534 -15.444663 1.097986 -0.102906 -2.973813
    40 0.000000 2.820313 -1.550776 0.000000 0.000000 0.000000
    41 0.000000 2.738285 -4.027338 0.000000 0.000000 0.000000
    42 0.000000 2.919929 -5.820309 0.000000 0.000000 0.000000
    43 -0.642666 3.299407 -1.091387 0.000000 0.000000 0.000000
    44 -0.240766 6.016356 -14.297569 0.000007 -0.000002 -0.470638
  time 17
    0 0.992218 -0.433613 -8.644795 -1.570797 -1.317268 -1.570891
    1 2.033348 1.000767 1.937660 3.099074 -0.162002 1.680074
    2 6.028145 0.000003 0.000002 -2.253468 -0.093569 -0.173351
    3 11.692553 0.000081 -0.000006 -0.180600 0.125635 -0.706451
    4 11.481674 -0.000089 -0.000023 -0.613653 0.385248 0.032657
    5 3.285465 0.002116 -1.387294 0.100174 -0.198987 -1.488976
    6 1.324282 -0.000010 0.000006 0.000000 -0.035681 -0.863360
    7 0.819336 0.000004 0.000000 0.000000 0.000000 -0.523558
    8 3.711852 0.105348 -0.572073 0.028960 -0.144882 -1.488847
    9 1.610352 0.000000 0.000001 -0.001224 0.005114 -0.663148
    10 0.993193 -0.000004 0.000001 0.001475 0.002270 -0.454046
    11 3.789935 0.203223 0.240031 -0.025866 -0.103560 -1.196287
    12 1.684422 -0.000010 0.000009 0.001608 -0.003714 -0.665474
    13 1.256836 0.000004 0.000000 0.000000 0.000000 -0.807200
    14 3.594221 0.299550 1.109803 -0.089880 -0.078681 -0.471337
    15 1.723633 0.000000 0.000000 0.000000 0.000000 -1.243541
    16 1.001953 -0.000004 0.000000 0.000000 0.000000 0.144005
    17 0.298212 -0.634095 0.426700 -0.521684 -0.863066 -0.524782
    18 2.633559 0.000000 -0.000010 0.012666 0.036492 0.384930
    19 1.307617 0.000000 0.000000 0.000885 -0.017461 -0.010264
    20 2.033356 1.000772 -1.937610 -0.128225 0.173025 4.244766
    21 6.028141 0.000000 -0.000002 -0.699097 0.807313 -2.309477
    22 11.692554 0.000000 -0.000003 0.029097 -0.049269 -1.069745
    23 11.481703 -0.000001 -0.000002 -0.812844 -0.174042 0.500855
    24 2.914335 -0.023167 1.400148 -0.075459 -0.048649 -0.941140
    25 1.284180 -0.000002 0.000000 0.000006 0.095135 -0.604945
    26 0.842285 0.000002 0.000000 -0.078527 0.054443 -1.209521
    27 3.368059 0.007376 0.622456 0.035972 -0.077320 -1.016265
    28 1.605515 0.000000 0.000001 0.000003 0.122000 -1.086904
    29 1.020534 -0.000002 -0.000002 0.015301 -0.014044 -1.343765
    30 3.551622 0.023918 -0.204473 0.012608 -0.103497 -0.905347
    31 1.666992 0.000000 0.000000 -0.000008 0.157406 -1.208295
    32 1.240434 0.000002 0.000006 0.000002 -0.000011 -1.483478
    33 3.449664 0.054212 -1.089087 0.053337 -0.066582 -0.357634
    34 1.711618 0.000008 0.000011 0.000003 -0.008421 -0.322908
    35 0.998535 0.000000 0.000000 0.005619 -0.013548 -0.593057
    36 0.079438 -0.738750 -0.759723 1.293541 0.406469 -0.475804
    37 2.508555 -0.000006 -0.000004 -0.000002 -0.000001 0.359162
    38 1.324192 0.050781 -0.113290 0.025651 0.040518 0.530193
    39 -4.525556 -18.279542 -14.897771 1.145144 -0.088475 -2.994483
    40 0.000000 2.820313 -1.550776 0.000000 0.000000 0.000000
    41 0.000000 2.738285 -4.027338 0.000000 0.000000 0.000000
    42 0.000000 2.919929 -5.820309 0.000000 0.000000 0.000000
    43 -0.642666 3.299407 -1.091387 0.000000 0.000000 0.000000
    44 -0.240766 6.016356 -14.297569 0.000007 -0.000002 -0.470638
  time 18
    0 0.992218 -0.347673 -8.640889 -1.570797 -1.325565 -1.570843
    1 2.033348 1.000767 1.937660 3.099074 -0.162002 1.680074
    2 6.028145 0.000003 0.000002 -2.268485 -0.119755 -0.129721
    3 11.692553 0.000081 -0.000006 -0.178679 0.123417 -0.691141
    4 11.481674 -0.000089 -0.000023 -0.621024 0.393204 0.023147
    5 3.281559 0.002116 -1.383388 0.099706 -0.198220 -1.489100
    6 1.324282 -0.000010 0.000006 0.000000 -0.035681 -0.863360
    7 0.819336 0.000004 0.000000 0.000000 0.000000 -0.523558
    8 3.711852 0.109255 -0.568167 0.028504 -0.144115 -1.489001
    9 1.610352 0.000000 0.000001 -0.001224 0.005114 -0.663148
    10 0.993193 -0.000004 0.000001 0.001487 0.002258 -0.454046
    11 3.786029 0.203223 0.243937 -0.026082 -0.102697 -1.196504
    12 1.684422 -0.000010 0.000009 0.001620 -0.003714 -0.665474
    13 1.256836 0.000004 0.000000 0.000000 0.000000 -0.807200
    14 3.594221 0.299550 1.109803 -0.089462 -0.077902 -0.471615
    15 1.723633 0.000000 0.000000 0.000000 0.000000 -1.243541
    16 1.001953 -0.000004 0.000000 0.000000 0.000000 0.144005
    17 0.298212 -0.634095 0.426700 -0.521085 -0.862274 -0.525466
    18 2.633559 0.000000 -0.000010 0.012666 0.036504 0.384930
    19 1.307617 0.000000 0.000000 0.000885 -0.017461 -0.010264
    20 2.033356 1.000772 -1.937610 -0.128225 0.173025 4.244766
    21 6.028141 0.000000 -0.000002 -0.712005 0.807917 -2.338310
    22 11.692554 0.000000 -0.000003 0.027934 -0.048622 -1.045939
    23 11.481703 -0.000001 -0.000002 -0.782900 -0.155609 0.473676
    24 2.914335 -0.027074 1.400148 -0.075624 -0.048529 -0.941417
    25 1.284180 -0.000002 0.000000 0.000006 0.095135 -0.604945
    26 0.842285 0.000002 0.000000 -0.078527 0.054443 -1.209521
    27 3.368059 0.007376 0.618550 0.035792 -0.077225 -1.016536
    28 1.605515 0.000000 0.000001 0.000003 0.122000 -1.086904
    29 1.020534 -0.000002 -0.000002 0.015301 -0.014044 -1.343765
    30 3.555528 0.023918 -0.200567 0.012441 -0.103377 -0.905609
    31 1.666992 0.000000 0.000000 -0.000008 0.157406 -1.208295
    32 1.240434 0.000002 0.000006 0.000002 0.000001 -1.483401
    33 3.449664 0.054212 -1.085181 0.053263 -0.066390 -0.357906
    34 1.711618 0.000008 0.000011 0.000003 -0.008421 -0.322908
    35 0.998535 0.000000 0.000000 0.005619 -0.013548 -0.593057
    36 0.075532 -0.738750 -0.759723 1.293421 0.406649 -0.476127
    37 2.512462 -0.000006 -0.000004 -0.000002 -0.000001 0.359162
    38 1.328098 0.050781 -0.113290 0.025663 0.040518 0.530193
    39 -4.701342 -18.513924 -14.339160 1.195549 -0.074295 -3.014370
    40 0.000000 2.820313 -1.550776 0.000000 0.000000 0.000000
    41 0.000000 2.738285 -4.027338 0.000000 0.000000 0.000000
    42 0.000000 2.919929 -5.820309 0.000000 0.000000 0.000000
    43 -0.642666 3.299407 -1.091387 0.000000 0.000000 0.000000
    44 -0.240766 6.016356 -14.297569 0.000007 -0.000002 -0.470638
  time 19
    0 0.992218 -0.261733 -8.640889 -1.570797 -1.333702 -1.570843
    1 2.033348 1.000767 1.937660 3.099120 -0.162002 1.680074
    2 6.028145 0.000003 0.000002 -2.286308 -0.151342 -0.079409
    3 11.692553 0.000081 -0.000006 -0.175055 0.118899 -0.660912
    4 11.481674 -0.000089 -0.000023 -0.628942 0.405218 0.007712
    5 3.281559 0.002116 -1.383388 0.099706 -0.198220 -1.489100
    6 1.324282 -0.000010 0.000006 0.000000 -0.035669 -0.863360
    7 0.819336 0.000004 0.000000 0.000000 0.000000 -0.523558
    8 3.711852 0.109255 -0.572073 0.028504 -0.144115 -1.489001
    9 1.610352 0.000000 0.000001 -0.001224 0.005114 -0.663148
    10 0.993193 -0.000004 0.000001 0.001475 0.002258 -0.454046
    11 3.786029 0.203223 0.243937 -0.026058 -0.102697 -1.196526
    12 1.684422 -0.000010 0.000009 0.001608 -0.003714 -0.665474
    13 1.256836 0.000004 0.000000 0.000000 0.000000 -0.807200
    14 3.594221 0.299550 1.109803 -0.089462 -0.077902 -0.471615
    15 1.723633 0.000000 0.000000 0.000000 0.000000 -1.243541
    16 1.001953 -0.000004 0.000000 0.000000 0.000000 0.144005
    17 0.298212 -0.634095 0.426700 -0.521085 -0.862274 -0.525466
    18 2.633559 0.000000 -0.000010 0.012666 0.036504 0.384930
    19 1.307617 0.000000 0.000000 0.000885 -0.017461 -0.010264
    20 2.033356 1.000772 -1.937610 -0.128225 0.173025 4.244806
    21 6.028141 0.000000 -0.000002 -0.724396 0.808683 -2.365883
    22 11.692554 0.000000 -0.000003 0.026676 -0.047998 -1.023203
    23 11.481703 -0.000001 -0.000002 -0.753687 -0.133748 0.445432
    24 2.914335 -0.023167 1.400148 -0.075443 -0.048649 -0.941140
    25 1.284180 -0.000002 0.000000 0.000006 0.095135 -0.604945
    26 0.842285 0.000002 0.000000 -0.078527 0.054443 -1.209521
    27 3.368059 0.007376 0.622456 0.035972 -0.077320 -1.016265
    28 1.605515 0.000000 0.000001 0.000003 0.122000 -1.086904
    29 1.020534 -0.000002 -0.000002 0.015301 -0.014044 -1.343737
    30 3.551622 0.027824 -0.200567 0.012608 -0.103497 -0.905347
    31 1.666992 0.000000 0.000000 -0.000008 0.157406 -1.208295
    32 1.240434 0.000002 0.000006 0.000002 -0.000011 -1.483401
    33 3.449664 0.054212 -1.085181 0.053337 -0.066582 -0.357634
    34 1.711618 0.000008 0.000011 0.000003 -0.008421 -0.322908
    35 0.998535 0.000000 0.000000 0.005619 -0.013548 -0.593057
    36 0.075532 -0.734843 -0.759723 1.293541 0.406469 -0.475804
    37 2.508555 -0.000006 -0.000004 -0.000002 -0.000001 0.359162
    38 1.324192 0.050781 -0.113290 0.025663 0.040518 0.530170
    39 -4.896661 -18.724868 -13.772737 1.248134 -0.060341 -3.033552
    40 0.000000 2.820313 -1.550776 0.000000 0.000000 0.000000
    41 0.000000 2.738285 -4.027338 0.000000 0.000000 0.000000
    42 0.000000 2.919929 -5.820309 0.000000 0.000000 0.000000
    43 -0.642666 3.299407 -1.091387 0.000000 0.000000 0.000000
    44 -0.240766 6.016356 -14.297569 0.000007 -0.000002 -0.470638
  time 20
    0 0.992218 -0.175793 -8.640889 -1.570797 -1.341574 -1.570891
    1 2.033348 1.000767 1.937660 3.099120 -0.162002 1.680074
    2 6.028145 0.000003 0.000002 -2.305497 -0.187462 -0.025795
    3 11.692553 0.000081 -0.000006 -0.170234 0.112463 -0.619137
    4 11.481674 -0.000089 -0.000023 -0.637065 0.417426 -0.012921
    5 3.281559 0.002116 -1.379481 0.099706 -0.198220 -1.489100
    6 1.324282 -0.000010 0.000006 0.000000 -0.035681 -0.863360
    7 0.819336 0.000004 0.000000 0.000000 0.000000 -0.523558
    8 3.711852 0.109255 -0.568167 0.028504 -0.144115 -1.489001
    9 1.610352 0.000000 0.000001 -0.001224 0.005114 -0.663148
    10 0.993193 -0.000004 0.000001 0.001475 0.002258 -0.454046
    11 3.786029 0.203223 0.247844 -0.026070 -0.102697 -1.196504
    12 1.684422 -0.000010 0.000009 0.001608 -0.003714 -0.665474
    13 1.256836 0.000004 0.000000 0.000000 0.000000 -0.807200
    14 3.594221 0.299550 1.113709 -0.089462 -0.077902 -0.471615
    15 1.723633 0.000000 0.000000 0.000000 0.000000 -1.243541
    16 1.001953 -0.000004 0.000000 0.000000 0.000000 0.144005
    17 0.298212 -0.634095 0.430606 -0.521085 -0.862274 -0.525466
    18 2.633559 0.000000 -0.000010 0.012666 0.036504 0.384930
    19 1.307617 0.000000 0.000000 0.000885 -0.017461 -0.010264
    20 2.033356 1.000772 -1.937610 -0.128225 0.173025 4.244766
    21 6.028141 0.000000 -0.000002 -0.736493 0.809650 -2.392794
    22 11.692554 0.000000 -0.000003 0.025741 -0.047267 -1.000213
    23 11.481703 -0.000001 -0.000002 -0.726089 -0.109283 0.416942
    24 2.914335 -0.023167 1.400148 -0.075443 -0.048637 -0.941140
    25 1.284180 -0.000002 0.000000 0.000006 0.095135 -0.604945
    26 0.842285 0.000002 0.000000 -0.078527 0.054443 -1.209521
    27 3.368059 0.007376 0.622456 0.035972 -0.077320 -1.016265
    28 1.605515 0.000000 0.000001 0.000003 0.121988 -1.086904
    29 1.020534 -0.000002 -0.000002 0.015301 -0.014044 -1.343737
    30 3.551622 0.023918 -0.200567 0.012608 -0.103497 -0.905347
    31 1.666992 0.000000 0.000000 -0.000008 0.157406 -1.208295
    32 1.240434 0.000002 0.000006 0.000002 -0.000011 -1.483401
    33 3.449664 0.054212 -1.089087 0.053337 -0.066582 -0.357634
    34 1.711618 0.000008 0.000011 0.000003 -0.008421 -0.322908
    35 0.998535 0.000000 0.000000 0.005619 -0.013548 -0.593057
    36 0.075532 -0.738750 -0.755817 1.293541 0.406469 -0.475804
    37 2.508555 -0.000006 -0.000004 -0.000002 -0.000001 0.359162
    38 1.328098 0.050781 -0.113290 0.025663 0.040518 0.530170
    39 -5.099792 -18.908467 -13.202407 1.302082 -0.046613 -3.052108
    40 0.000000 2.820313 -1.550776 0.000000 0.000000 0.000000
    41 0.000000 2.738285 -4.027338 0.000000 0.000000 0.000000
    42 0.000000 2.919929 -5.820309 0.000000 0.000000 0.000000
    43 -0.642666 3.299407 -1.091387 0.000000 0.000000 0.000000
    44 -0.240766 6.016356 -14.297569 0.000007 -0.000002 -0.470638
  time 21
    0 0.992218 -0.101572 -8.636982 -1.570797 -1.349152 -1.570843
    1 2.033348 1.000767 1.937660 3.099074 -0.162002 1.680074
    2 6.028145 0.000003 0.000002 -2.323927 -0.224305 0.025382
    3 11.692553 0.000081 -0.000006 -0.165487 0.105536 -0.575544
    4 11.481674 -0.000089 -0.000023 -0.644300 0.425772 -0.035891
    5 3.281559 0.002116 -1.383388 0.099706 -0.198220 -1.489100
    6 1.324282 -0.000010 0.000006 0.000000 -0.035681 -0.863360
    7 0.819336 0.000004 0.000000 0.000000 0.000000 -0.523558
    8 3.711852 0.109255 -0.568167 0.028516 -0.144115 -1.489045
    9 1.610352 0.000000 0.000001 -0.001224 0.005114 -0.663148
    10 0.993193 -0.000004 0.000001 0.001475 0.002258 -0.454046
    11 3.786029 0.203223 0.243937 -0.026070 -0.102697 -1.196526
    12 1.684422 -0.000010 0.000009 0.001608 -0.003714 -0.665474
    13 1.256836 0.000004 0.000000 0.000000 0.000000 -0.807200
    14 3.594221 0.299550 1.113709 -0.089462 -0.077902 -0.471615
    15 1.723633 0.000000 0.000000 0.000000 0.000000 -1.243541
    16 1.001953 -0.000004 0.000000 0.000000 0.000000 0.144005
    17 0.298212 -0.634095 0.430606 -0.521085 -0.862274 -0.525466
    18 2.633559 0.000000 -0.000010 0.012666 0.036504 0.384930
    19 1.307617 0.000000 0.000000 0.000885 -0.017461 -0.010264
    20 2.033356 1.000772 -1.937610 -0.128225 0.173025 4.244766
    21 6.028141 0.000000 -0.000002 -0.748368 0.810536 -2.418804
    22 11.692554 0.000000 -0.000003 0.024698 -0.046596 -0.977886
    23 11.481703 -0.000001 -0.000002 -0.699682 -0.082706 0.389353
    24 2.914335 -0.023167 1.400148 -0.075443 -0.048637 -0.941140
    25 1.284180 -0.000002 0.000000 0.000006 0.095135 -0.604945
    26 0.842285 0.000002 0.000000 -0.078527 0.054443 -1.209521
    27 3.368059 0.007376 0.622456 0.035972 -0.077320 -1.016265
    28 1.605515 0.000000 0.000001 0.000003 0.122000 -1.086904
    29 1.020534 -0.000002 -0.000002 0.015301 -0.014044 -1.343737
    30 3.555528 0.023918 -0.200567 0.012608 -0.103497 -0.905347
    31 1.666992 0.000000 0.000000 -0.000008 0.157406 -1.208295
    32 1.240434 0.000002 0.000006 0.000002 0.000001 -1.483401
    33 3.449664 0.054212 -1.085181 0.053337 -0.066582 -0.357634
    34 1.711618 0.000008 0.000011 0.000003 -0.008421 -0.322908
    35 0.998535 0.000000 0.000000 0.005619 -0.013548 -0.593057
    36 0.075532 -0.738750 -0.759723 1.293529 0.406469 -0.475804
    37 2.512462 -0.000006 -0.000004 -0.000002 -0.000001 0.359149
    38 1.324192 0.050781 -0.113290 0.025651 0.040518 0.530193
    39 -5.318549 -19.076441 -12.635983 1.356377 -0.033012 -3.070038
    40 0.000000 2.820313 -1.550776 0.000000 0.000000 0.000000
    41 0.000000 2.738285 -4.027338 0.000000 0.000000 0.000000
    42 0.000000 2.919929 -5.820309 0.000000 0.000000 0.000000
    43 -0.642666 3.299407 -1.091387 0.000000 0.000000 0.000000
    44 -0.240766 6.016356 -14.297569 0.000007 -0.000002 -0.470638
  time 22
    0 0.992218 -0.031257 -8.636982 -1.570797 -1.356332 -1.570843
    1 2.033348 1.000767 1.937660 3.099074 -0.162002 1.680074
    2 6.028145 0.000003 0.000002 -2.342357 -0.265392 0.076481
    3 11.692553 0.000081 -0.000006 -0.160594 0.097603 -0.527217
    4 11.481674 -0.000089 -0.000023 -0.650443 0.429985 -0.060110
    5 3.281559 0.002116 -1.379481 0.099706 -0.198220 -1.489100
    6 1.324282 -0.000010 0.000006 0.000000 -0.035669 -0.863360
    7 0.819336 0.000004 0.000000 0.000000 0.000000 -0.523558
    8 3.711852 0.109255 -0.568167 0.028504 -0.144115 -1.489001
    9 1.610352 0.000000 0.000001 -0.001224 0.005114 -0.663148
    10 0.993193 -0.000004 0.000001 0.001475 0.002258 -0.454046
    11 3.786029 0.203223 0.243937 -0.026070 -0.102697 -1.196526
    12 1.684422 -0.000010 0.000009 0.001620 -0.003714 -0.665474
    13 1.256836 0.000004 0.000000 0.000000 0.000000 -0.807200
    14 3.594221 0.299550 1.113709 -0.089462 -0.077902 -0.471615
    15 1.723633 0.000000 0.000000 0.000000 0.000000 -1.243541
    16 1.001953 -0.000004 0.000000 0.000000 0.000000 0.144005
    17 0.298212 -0.634095 0.430606 -0.521085 -0.862274 -0.525466
    18 2.633559 0.000000 -0.000010 0.012666 0.036504 0.384930
    19 1.307617 0.000000 0.000000 0.000885 -0.017461 -0.010264
    20 2.033356 1.000772 -1.937610 -0.128225 0.173025 4.244766
    21 6.028141 0.000000 -0.000002 -0.759431 0.812067 -2.443373
    22 11.692554 0.000000 -0.000003 0.023739 -0.045937 -0.957138
    23 11.481703 -0.000001 -0.000002 -0.674774 -0.054905 0.363458
    24 2.914335 -0.023167 1.400148 -0.075443 -0.048649 -0.941140
    25 1.284180 -0.000002 0.000000 0.000006 0.095135 -0.604945
    26 0.842285 0.000002 0.000000 -0.078527 0.054443 -1.209521
    27 3.368059 0.007376 0.622456 0.035972 -0.077332 -1.016265
    28 1.605515 0.000000 0.000001 0.000003 0.122000 -1.086904
    29 1.020534 -0.000002 -0.000002 0.015301 -0.014044 -1.343737
    30 3.551622 0.023918 -0.200567 0.012608 -0.103497 -0.905347
    31 1.666992 0.000000 0.000000 -0.000008 0.157406 -1.208295
    32 1.240434 0.000002 0.000006 0.000002 -0.000011 -1.483401
    33 3.449664 0.054212 -1.085181 0.053337 -0.066582 -0.357634
    34 1.711618 0.000008 0.000011 0.000003 -0.008421 -0.322908
    35 0.998535 0.000000 0.000000 0.005619 -0.013548 -0.593057
    36 0.075532 -0.738750 -0.759723 1.293529 0.406469 -0.475804
    37 2.508555 -0.000006 -0.000004 -0.000002 -0.000001 0.359162
    38 1.324192 0.050781 -0.113290 0.025663 0.040518 0.530193
    39 -5.541212 -19.205351 -12.073466 1.410128 -0.019561 -3.087341
    40 0.000000 2.820313 -1.550776 0.000000 0.000000 0.000000
    41 0.000000 2.738285 -4.027338 0.000000 0.000000 0.000000
    42 0.000000 2.919929 -5.820309 0.000000 0.000000 0.000000
    43 -0.642666 3.299407 -1.091387 0.000000 0.000000 0.000000
    44 -0.240766 6.016356 -14.297569 0.000007 -0.000002 -0.470638
  time 23
    0 0.992218 0.031245 -8.640889 -1.570797 -1.363033 -1.570891
    1 2.033348 1.000767 1.937660 3.099074 -0.162002 1.680074
    2 6.028145 0.000003 0.000002 -2.362455 -0.312411 0.130567
    3 11.692553 0.000081 -0.000006 -0.155012 0.087416 -0.467083
    4 11.481674 -0.000089 -0.000023 -0.655357 0.432793 -0.089367
    5 3.281559 0.002116 -1.383388 0.099879 -0.198508 -1.489038
    6 1.324282 -0.000010 0.000006 0.000000 -0.035669 -0.863360
    7 0.819336 0.000004 0.000000 0.000000 0.000000 -0.523558
    8 3.711852 0.109255 -0.568167 0.028672 -0.144402 -1.488979
    9 1.610352 0.000000 0.000001 -0.001224 0.005114 -0.663148
    10 0.993193 -0.000004 0.000001 0.001475 0.002258 -0.454046
    11 3.786029 0.203223 0.247844 -0.025986 -0.103020 -1.196461
    12 1.684422 -0.000010 0.000009 0.001620 -0.003714 -0.665474
    13 1.256836 0.000004 0.000000 0.000000 0.000000 -0.807200
    14 3.594221 0.299550 1.113709 -0.089621 -0.078201 -0.471529
    15 1.723633 0.000000 0.000000 0.000000 0.000000 -1.243541
    16 1.001953 -0.000004 0.000000 0.000000 0.000000 0.144005
    17 0.298212 -0.630189 0.430606 -0.521315 -0.862561 -0.525220
    18 2.633559 0.000000 -0.000010 0.012666 0.036504 0.384930
    19 1.307617 0.000000 0.000000 0.000885 -0.017461 -0.010264
    20 2.033356 1.000772 -1.937610 -0.128225 0.173025 4.244806
    21 6.028141 0.000000 -0.000002 -0.769684 0.814243 -2.466259
    22 11.692554 0.000000 -0.000003 0.022889 -0.045386 -0.938430
    23 11.481703 -0.000001 -0.000002 -0.651404 -0.026613 0.339939
    24 2.914335 -0.023167 1.400148 -0.075459 -0.048649 -0.941140
    25 1.284180 -0.000002 0.000000 0.000006 0.095135 -0.604945
    26 0.842285 0.000002 0.000000 -0.078527 0.054443 -1.209521
    27 3.368059 0.007376 0.622456 0.035972 -0.077320 -1.016265
    28 1.605515 0.000000 0.000001 0.000003 0.121988 -1.086904
    29 1.020534 -0.000002 -0.000002 0.015301 -0.014044 -1.343737
    30 3.555528 0.027824 -0.200567 0.012608 -0.103497 -0.905347
    31 1.666992 0.000000 0.000000 -0.000008 0.157406 -1.208295
    32 1.240434 0.000002 0.000006 0.000002 -0.000011 -1.483401
    33 3.449664 0.054212 -1.089087 0.053337 -0.066582 -0.357634
    34 1.711618 0.000008 0.000011 0.000003 -0.008421 -0.322908
    35 0.998535 0.000000 0.000000 0.005619 -0.013548 -0.593057
    36 0.075532 -0.734843 -0.755817 1.293541 0.406469 -0.475804
    37 2.508555 -0.000006 -0.000004 -0.000002 -0.000001 0.359162
    38 1.324192 0.050781 -0.113290 0.025663 0.040518 0.530193
    39 -5.771688 -19.314730 -11.530481 1.462316 -0.006160 -3.104018
    40 0.000000 2.820313 -1.550776 0.000000 0.000000 0.000000
    41 0.000000 2.738285 -4.027338 0.000000 0.000000 0.000000
    42 0.000000 2.919929 -5.820309 0.000000 0.000000 0.000000
    43 -0.642666 3.299407 -1.091387 0.000000 0.000000 0.000000
    44 -0.240766 6.016356 -14.297569 0.000007 -0.000002 -0.470638
  time 24
    0 0.992218 0.101560 -8.640889 -1.570797 -1.369229 -1.570843
    1 2.033348 1.000767 1.937660 3.099120 -0.162002 1.680074
    2 6.028145 0.000003 0.000002 -2.382705 -0.354125 0.181115
    3 11.692553 0.000081 -0.000006 -0.150700 0.078331 -0.415123
    4 11.481674 -0.000089 -0.000023 -0.659726 0.432637 -0.115843
    5 3.281559 0.002116 -1.383388 0.099706 -0.198220 -1.489100
    6 1.324282 -0.000010 0.000006 0.000000 -0.035669 -0.863360
    7 0.819336 0.000004 0.000000 0.000000 0.000000 -0.523558
    8 3.711852 0.109255 -0.568167 0.028516 -0.144115 -1.489045
    9 1.610352 0.000000 0.000001 -0.001224 0.005114 -0.663148
    10 0.993193 -0.000004 0.000001 0.001475 0.002258 -0.454046
    11 3.786029 0.203223 0.243937 -0.026058 -0.102697 -1.196526
    12 1.684422 -0.000010 0.000009 0.001620 -0.003714 -0.665474
    13 1.256836 0.000004 0.000000 0.000000 0.000000 -0.807200
    14 3.594221 0.299550 1.109803 -0.089462 -0.077902 -0.471615
    15 1.723633 0.000000 0.000000 0.000000 0.000000 -1.243541
    16 1.001953 -0.000004 0.000000 0.000000 0.000000 0.144005
    17 0.298212 -0.634095 0.426700 -0.521085 -0.862274 -0.525466
    18 2.633559 0.000000 -0.000010 0.012666 0.036504 0.384930
    19 1.307617 0.000000 0.000000 0.000885 -0.017461 -0.010264
    20 2.033356 1.000772 -1.937610 -0.128225 0.173025 4.244766
    21 6.028141 0.000000 -0.000002 -0.777207 0.819158 -2.485061
    22 11.692554 0.000000 -0.000003 0.022385 -0.045002 -0.926807
    23 11.481703 -0.000001 -0.000002 -0.629494 0.001311 0.321474
    24 2.914335 -0.023167 1.396242 -0.075443 -0.048637 -0.941140
    25 1.284180 -0.000002 0.000000 0.000006 0.095135 -0.604945
    26 0.842285 0.000002 0.000000 -0.078527 0.054443 -1.209521
    27 3.368059 0.007376 0.622456 0.035972 -0.077320 -1.016265
    28 1.605515 0.000000 0.000001 0.000003 0.121988 -1.086904
    29 1.020534 -0.000002 -0.000002 0.015301 -0.014044 -1.343737
    30 3.551622 0.023918 -0.200567 0.012608 -0.103497 -0.905347
    31 1.666992 0.000000 0.000000 -0.000008 0.157406 -1.208295
    32 1.240434 0.000002 0.000006 0.000002 -0.000011 -1.483401
    33 3.449664 0.054212 -1.085181 0.053337 -0.066582 -0.357634
    34 1.711618 0.000008 0.000011 0.000003 -0.008421 -0.322908
    35 0.998535 0.000000 0.000000 0.005619 -0.013548 -0.593057
    36 0.075532 -0.734843 -0.759723 1.293541 0.406469 -0.475804
    37 2.508555 -0.000006 -0.000004 -0.000002 -0.000001 0.359162
    38 1.324192 0.050781 -0.113290 0.025663 0.040518 0.530193
    39 -5.998257 -19.361606 -11.003121 1.512102 0.007115 -3.119990
    40 0.000000 2.820313 -1.550776 0.000000 0.000000 0.000000
    41 0.000000 2.738285 -4.027338 0.000000 0.000000 0.000000
    42 0.000000 2.919929 -5.820309 0.000000 0.000000 0.000000
    43 -0.642666 3.299407 -1.091387 0.000000 0.000000 0.000000
    44 -0.240766 6.016356 -14.297569 0.000007 -0.000002 -0.470638
  time 25
    0 0.992218 0.156249 -8.640889 -1.570797 -1.374840 -1.570843
    1 2.033348 1.000767 1.937660 3.099074 -0.162002 1.680074
    2 6.028145 0.000003 0.000002 -2.383615 -0.361166 0.184495
    3 11.692553 0.000081 -0.000006 -0.150627 0.078116 -0.413890
    4 11.481674 -0.000089 -0.000023 -0.657200 0.414071 -0.124749
    5 3.281559 0.002116 -1.379481 0.099706 -0.198220 -1.489100
    6 1.324282 -0.000010 0.000006 0.000000 -0.035669 -0.863360
    7 0.819336 0.000004 0.000000 0.000000 0.000000 -0.523558
    8 3.711852 0.109255 -0.568167 0.028504 -0.144115 -1.489001
    9 1.610352 0.000000 0.000001 -0.001224 0.005114 -0.663148
    10 0.993193 -0.000004 0.000001 0.001475 0.002270 -0.454046
    11 3.786029 0.203223 0.243937 -0.026058 -0.102697 -1.196526
    12 1.684422 -0.000010 0.000009 0.001620 -0.003714 -0.665474
    13 1.256836 0.000004 0.000000 0.000000 0.000000 -0.807200
    14 3.594221 0.299550 1.113709 -0.089462 -0.077902 -0.471615
    15 1.723633 0.000000 0.000000 0.000000 0.000000 -1.243541
    16 1.001953 -0.000004 0.000000 0.000000 0.000000 0.144005
    17 0.298212 -0.634095 0.430606 -0.521085 -0.862274 -0.525466
    18 2.633559 0.000000 -0.000010 0.012666 0.036504 0.384930
    19 1.307617 0.000000 0.000000 0.000885 -0.017461 -0.010264
    20 2.033356 1.000772 -1.937610 -0.128225 0.173025 4.244766
    21 6.028141 0.000000 -0.000002 -0.773888 0.823993 -2.481577
    22 11.692554 0.000000 -0.000003 0.022733 -0.045218 -0.935167
    23 11.481703 -0.000001 -0.000002 -0.627880 0.008537 0.323987
    24 2.914335 -0.023167 1.400148 -0.075443 -0.048637 -0.941140
    25 1.284180 -0.000002 0.000000 0.000006 0.095135 -0.604945
    26 0.842285 0.000002 0.000000 -0.078527 0.054443 -1.209521
    27 3.368059 0.007376 0.618550 0.035972 -0.077320 -1.016265
    28 1.605515 0.000000 0.000001 0.000003 0.121988 -1.086904
    29 1.020534 -0.000002 -0.000002 0.015301 -0.014044 -1.343737
    30 3.555528 0.023918 -0.204473 0.012608 -0.103497 -0.905347
    31 1.666992 0.000000 0.000000 -0.000008 0.157406 -1.208295
    32 1.240434 0.000002 0.000006 0.000002 -0.000011 -1.483401
    33 3.449664 0.054212 -1.089087 0.053337 -0.066582 -0.357634
    34 1.711618 0.000008 0.000011 0.000003 -0.008421 -0.322908
    35 0.998535 0.000000 0.000000 0.005619 -0.013548 -0.593057
    36 0.075532 -0.738750 -0.759723 1.293529 0.406469 -0.475804
    37 2.508555 -0.000006 -0.000004 -0.000002 -0.000001 0.359149
    38 1.328098 0.050781 -0.113290 0.025663 0.040518 0.530193
    39 -6.045133 -19.271760 -10.846866 1.525260 0.007291 -3.124609
    40 0.000000 2.820313 -1.550776 0.000000 0.000000 0.000000
    41 0.000000 2.738285 -4.027338 0.000000 0.000000 0.000000
    42 0.000000 2.919929 -5.820309 0.000000 0.000000 0.000000
    43 -0.642666 3.299407 -1.091387 0.000000 0.000000 0.000000
    44 -0.240766 6.016356 -14.297569 0.000007 -0.000002 -0.470638
  time 26
    0 0.992218 0.207032 -8.640889 -1.570797 -1.379746 -1.570843
    1 2.033348 1.000767 1.937660 3.099074 -0.162002 1.680074
    2 6.028145 0.000003 0.000002 -2.383085 -0.364011 0.184102
    3 11.692553 0.000081 -0.000006 -0.151424 0.079937 -0.424269
    4 11.481674 -0.000089 -0.000023 -0.652900 0.390279 -0.128941
    5 3.281559 0.002116 -1.379481 0.099706 -0.198220 -1.489100
    6 1.324282 -0.000010 0.000006 0.000000 -0.035681 -0.863360
    7 0.819336 0.000004 0.000000 0.000000 0.000000 -0.523558
    8 3.711852 0.109255 -0.568167 0.028504 -0.144115 -1.489001
    9 1.610352 0.000000 0.000001 -0.001224 0.005114 -0.663148
    10 0.993193 -0.000004 0.000001 0.001475 0.002258 -0.454046
    11 3.786029 0.203223 0.243937 -0.026070 -0.102697 -1.196504
    12 1.684422 -0.000010 0.000009 0.001608 -0.003714 -0.665474
    13 1.256836 0.000004 0.000000 0.000000 0.000000 -0.807200
    14 3.594221 0.299550 1.113709 -0.089462 -0.077902 -0.471615
    15 1.723633 0.000000 0.000000 0.000000 0.000000 -1.243541
    16 1.001953 -0.000004 0.000000 0.000000 0.000000 0.144005
    17 0.298212 -0.634095 0.430606 -0.521085 -0.862274 -0.525466
    18 2.633559 0.000000 -0.000010 0.012666 0.036504 0.384930
    19 1.307617 0.000000 0.000000 0.000885 -0.017461 -0.010264
    20 2.033356 1.000772 -1.937610 -0.128225 0.172991 4.244766
    21 6.028141 0.000000 -0.000002 -0.768725 0.830963 -2.475871
    22 11.692554 0.000000 -0.000003 0.023356 -0.045649 -0.948778
    23 11.481703 -0.000001 -0.000002 -0.627226 0.015396 0.329122
    24 2.914335 -0.023167 1.400148 -0.075443 -0.048637 -0.941140
    25 1.284180 -0.000002 0.000000 0.000006 0.095135 -0.604945
    26 0.842285 0.000002 0.000000 -0.078527 0.054443 -1.209521
    27 3.368059 0.007376 0.622456 0.035972 -0.077320 -1.016265
    28 1.605515 0.000000 0.000001 0.000003 0.121988 -1.086904
    29 1.020534 -0.000002 -0.000002 0.015301 -0.014044 -1.343737
    30 3.551622 0.023918 -0.200567 0.012608 -0.103497 -0.905347
    31 1.666992 0.000000 0.000000 -0.000008 0.157406 -1.208295
    32 1.240434 0.000002 0.000006 0.000002 -0.000011 -1.483401
    33 3.449664 0.054212 -1.089087 0.053337 -0.066582 -0.357634
    34 1.711618 0.000008 0.000011 0.000003 -0.008421 -0.322908
    35 0.998535 0.000000 0.000000 0.005619 -0.013548 -0.593057
    36 0.075532 -0.738750 -0.755817 1.293529 0.406469 -0.475804
    37 2.512462 -0.000006 -0.000004 -0.000002 -0.000001 0.359162
    38 1.324192 0.050781 -0.113290 0.025663 0.040518 0.530193
    39 -6.084197 -19.162381 -10.698424 1.537527 0.006487 -3.129072
    40 0.000000 2.820313 -1.550776 0.000000 0.000000 0.000000
    41 0.000000 2.738285 -4.027338 0.000000 0.000000 0.000000
    42 0.000000 2.919929 -5.820309 0.000000 0.000000 0.000000
    43 -0.642666 3.299407 -1.091387 0.000000 0.000000 0.000000
    44 -0.240766 6.016356 -14.297569 0.000007 -0.000002 -0.470638
  time 27
    0 0.992218 0.250002 -8.644795 -1.570797 -1.383948 -1.570843
    1 2.033348 1.000767 1.937660 3.099120 -0.161967 1.680074
    2 6.028145 0.000003 0.000002 -2.381568 -0.363046 0.180879
    3 11.692553 0.000081 -0.000006 -0.153019 0.083329 -0.443536
    4 11.481674 -0.000089 -0.000023 -0.647713 0.364498 -0.129102
    5 3.281559 0.002116 -1.379481 0.099706 -0.198220 -1.489100
    6 1.324282 -0.000010 0.000006 0.000000 -0.035681 -0.863360
    7 0.819336 0.000004 0.000000 0.000000 0.000000 -0.523558
    8 3.711852 0.109255 -0.568167 0.028504 -0.144115 -1.489001
    9 1.610352 0.000000 0.000001 -0.001224 0.005114 -0.663148
    10 0.993193 -0.000004 0.000001 0.001475 0.002258 -0.454046
    11 3.786029 0.203223 0.243937 -0.026070 -0.102697 -1.196504
    12 1.684422 -0.000010 0.000009 0.001620 -0.003714 -0.665474
    13 1.256836 0.000004 0.000000 0.000000 0.000000 -0.807200
    14 3.594221 0.299550 1.113709 -0.089462 -0.077902 -0.471615
    15 1.723633 0.000000 0.000000 0.000000 0.000000 -1.243541
    16 1.001953 -0.000004 0.000000 0.000000 0.000000 0.144005
    17 0.298212 -0.634095 0.426700 -0.521085 -0.862274 -0.525466
    18 2.633559 0.000000 -0.000010 0.012666 0.036504 0.384930
    19 1.307617 0.000000 0.000000 0.000885 -0.017461 -0.010264
    20 2.033356 1.000772 -1.937610 -0.128225 0.173025 4.244806
    21 6.028141 0.000000 -0.000002 -0.762308 0.838980 -2.468542
    22 11.692554 0.000000 -0.000003 0.024159 -0.046213 -0.966008
    23 11.481703 -0.000001 -0.000002 -0.627111 0.021856 0.336142
    24 2.914335 -0.023167 1.400148 -0.075393 -0.048972 -0.941094
    25 1.284180 -0.000002 0.000000 0.000006 0.095135 -0.604945
    26 0.842285 0.000002 0.000000 -0.078527 0.054443 -1.209521
    27 3.368059 0.007376 0.622456 0.036080 -0.077656 -1.016223
    28 1.605515 0.000000 0.000001 0.000003 0.121988 -1.086904
    29 1.020534 -0.000002 -0.000002 0.015301 -0.014044 -1.343737
    30 3.551622 0.023918 -0.200567 0.012668 -0.103832 -0.905286
    31 1.666992 0.000000 0.000000 -0.000008 0.157406 -1.208295
    32 1.240434 0.000002 0.000006 0.000002 -0.000011 -1.483401
    33 3.449664 0.054212 -1.085181 0.053213 -0.066905 -0.357544
    34 1.711618 0.000008 0.000011 0.000003 -0.008421 -0.322908
    35 0.998535 0.000000 0.000000 0.005619 -0.013548 -0.593057
    36 0.075532 -0.738750 -0.759723 1.293445 0.406146 -0.475780
    37 2.508555 -0.000006 -0.000004 -0.000002 -0.000001 0.359162
    38 1.324192 0.050781 -0.113290 0.025663 0.040518 0.530193
    39 -6.115448 -19.045190 -10.557795 1.548431 0.005079 -3.133143
    40 0.000000 2.820313 -1.550776 0.000000 0.000000 0.000000
    41 0.000000 2.738285 -4.027338 0.000000 0.000000 0.000000
    42 0.000000 2.919929 -5.820309 0.000000 0.000000 0.000000
    43 -0.642666 3.299407 -1.091387 0.000000 0.000000 0.000000
    44 -0.240766 6.016356 -14.297569 0.000007 -0.000002 -0.470638
  time 28
    0 0.992218 0.285159 -8.644795 -1.570797 -1.387325 -1.570891
    1 2.033348 1.000767 1.937660 3.099074 -0.162002 1.680074
    2 6.028145 0.000003 0.000002 -2.379217 -0.359960 0.175612
    3 11.692553 0.000081 -0.000006 -0.155049 0.087452 -0.467278
    4 11.481674 -0.000089 -0.000023 -0.642116 0.338951 -0.126643
    5 3.281559 0.002116 -1.383388 0.099706 -0.198220 -1.489100
    6 1.324282 -0.000010 0.000006 0.000000 -0.035669 -0.863360
    7 0.819336 0.000004 0.000000 0.000000 0.000000 -0.523558
    8 3.711852 0.109255 -0.568167 0.028504 -0.144115 -1.489001
    9 1.610352 0.000000 0.000001 -0.001224 0.005114 -0.663148
    10 0.993193 -0.000004 0.000001 0.001475 0.002258 -0.454046
    11 3.786029 0.203223 0.243937 -0.026058 -0.102697 -1.196526
    12 1.684422 -0.000010 0.000009 0.001620 -0.003714 -0.665474
    13 1.256836 0.000004 0.000000 0.000000 0.000000 -0.807200
    14 3.594221 0.299550 1.113709 -0.089462 -0.077902 -0.471615
    15 1.723633 0.000000 0.000000 0.000000 0.000000 -1.243541
    16 1.001953 -0.000004 0.000000 0.000000 0.000000 0.144005
    17 0.298212 -0.634095 0.426700 -0.521085 -0.862274 -0.525466
    18 2.633559 0.000000 -0.000010 0.012666 0.036504 0.384930
    19 1.307617 0.000000 0.000000 0.000885 -0.017461 -0.010264
    20 2.033356 1.000772 -1.937610 -0.128225 0.173025 4.244806
    21 6.028141 0.000000 -0.000002 -0.756186 0.846474 -2.461454
    22 11.692554 0.000000 -0.000003 0.024914 -0.046740 -0.982677
    23 11.481703 -0.000001 -0.000002 -0.627880 0.027092 0.343681
    24 2.914335 -0.023167 1.400148 -0.075459 -0.048637 -0.941140
    25 1.284180 -0.000002 0.000000 0.000006 0.095135 -0.604945
    26 0.842285 0.000002 0.000000 -0.078527 0.054443 -1.209521
    27 3.368059 0.007376 0.618550 0.035972 -0.077320 -1.016265
    28 1.605515 0.000000 0.000001 0.000003 0.121988 -1.086904
    29 1.020534 -0.000002 -0.000002 0.015301 -0.014044 -1.343737
    30 3.551622 0.023918 -0.200567 0.012608 -0.103497 -0.905347
    31 1.666992 0.000000 0.000000 -0.000008 0.157406 -1.208295
    32 1.240434 0.000002 0.000006 0.000002 -0.000011 -1.483478
    33 3.449664 0.054212 -1.089087 0.053337 -0.066582 -0.357634
    34 1.711618 0.000008 0.000011 0.000003 -0.008421 -0.322908
    35 0.998535 0.000000 0.000000 0.005619 -0.013548 -0.593057
    36 0.075532 -0.738750 -0.759723 1.293541 0.406469 -0.475804
    37 2.508555 -0.000006 -0.000004 -0.000002 -0.000001 0.359162
    38 1.324192 0.050781 -0.113290 0.025663 0.040518 0.530193
    39 -6.134980 -18.927999 -10.444510 1.557624 0.003369 -3.136510
    40 0.000000 2.820313 -1.550776 0.000000 0.000000 0.000000
    41 0.000000 2.738285 -4.027338 0.000000 0.000000 0.000000
    42 0.000000 2.919929 -5.820309 0.000000 0.000000 0.000000
    43 -0.642666 3.299407 -1.091387 0.000000 0.000000 0.000000
    44 -0.240766 6.016356 -14.297569 0.000007 -0.000002 -0.470638
  time 29
    0 0.992218 0.312504 -8.644795 -1.570797 -1.389838 -1.570843
    1 2.033348 1.000767 1.937660 3.099074 -0.162002 1.680036
    2 6.028145 0.000003 0.000002 -2.376941 -0.355813 0.170266
    3 11.692553 0.000081 -0.000006 -0.157115 0.091455 -0.490695
    4 11.481674 -0.000089 -0.000023 -0.637201 0.317265 -0.122855
    5 3.281559 0.002116 -1.383388 0.099706 -0.198220 -1.489100
    6 1.324282 -0.000010 0.000006 0.000000 -0.035681 -0.863360
    7 0.819336 0.000004 0.000000 0.000000 0.000000 -0.523558
    8 3.711852 0.109255 -0.568167 0.028504 -0.144115 -1.489001
    9 1.610352 0.000000 0.000001 -0.001224 0.005114 -0.663148
    10 0.993193 -0.000004 0.000001 0.001475 0.002258 -0.454046
    11 3.786029 0.203223 0.247844 -0.026058 -0.102697 -1.196526
    12 1.684422 -0.000010 0.000009 0.001620 -0.003714 -0.665474
    13 1.256836 0.000004 0.000000 0.000000 0.000000 -0.807200
    14 3.594221 0.299550 1.113709 -0.089462 -0.077902 -0.471615
    15 1.723633 0.000000 0.000000 0.000000 0.000000 -1.243541
    16 1.001953 -0.000004 0.000000 0.000000 0.000000 0.144005
    17 0.298212 -0.634095 0.430606 -0.521085 -0.862274 -0.525466
    18 2.633559 0.000000 -0.000010 0.012666 0.036504 0.384930
    19 1.307617 0.000000 0.000000 0.000885 -0.017461 -0.010264
    20 2.033356 1.000772 -1.937610 -0.128225 0.173025 4.244766
    21 6.028141 0.000000 -0.000002 -0.750875 0.852719 -2.455387
    22 11.692554 0.000000 -0.000003 0.025585 -0.047171 -0.996900
    23 11.481703 -0.000001 -0.000002 -0.628649 0.031256 0.349746
    24 2.914335 -0.023167 1.400148 -0.075294 -0.048733 -0.940863
    25 1.284180 -0.000002 0.000000 0.000006 0.095135 -0.604945
    26 0.842285 0.000002 0.000000 -0.078527 0.054443 -1.209521
    27 3.368059 0.007376 0.618550 0.036163 -0.077404 -1.016014
    28 1.605515 0.000000 0.000001 0.000003 0.122000 -1.086904
    29 1.020534 -0.000002 -0.000002 0.015301 -0.014044 -1.343737
    30 3.555528 0.027824 -0.200567 0.012776 -0.103581 -0.905065
    31 1.666992 0.000000 0.000000 -0.000008 0.157406 -1.208295
    32 1.240434 0.000002 0.000006 0.000002 -0.000011 -1.483401
    33 3.449664 0.054212 -1.089087 0.053437 -0.066750 -0.357317
    34 1.711618 0.000008 0.000011 0.000003 -0.008421 -0.322908
    35 0.998535 0.000000 0.000000 0.005619 -0.013548 -0.593057
    36 0.075532 -0.734843 -0.759723 1.293661 0.406314 -0.475468
    37 2.508555 -0.000006 -0.000004 -0.000002 -0.000001 0.359162
    38 1.324192 0.050781 -0.113290 0.025663 0.040518 0.530193
    39 -6.150605 -18.834246 -10.346851 1.564662 0.001710 -3.139250
    40 0.000000 2.820313 -1.550776 0.000000 0.000000 0.000000
    41 0.000000 2.738285 -4.027338 0.000000 0.000000 0.000000
    42 0.000000 2.919929 -5.820309 0.000000 0.000000 0.000000
    43 -0.642666 3.299407 -1.091387 0.000000 0.000000 0.000000
    44 -0.240766 6.016356 -14.297569 0.000007 -0.000002 -0.470638
  time 30
    0 0.992218 0.328129 -8.644795 -1.570797 -1.391367 -1.570843
    1 2.033348 1.000767 1.937660 3.099120 -0.161967 1.680074
    2 6.028145 0.000003 0.000002 -2.375273 -0.352389 0.166257
    3 11.692553 0.000081 -0.000006 -0.158637 0.094199 -0.507043
    4 11.481674 -0.000089 -0.000023 -0.633174 0.302755 -0.121082
    5 3.285465 0.002116 -1.383388 0.100087 -0.198796 -1.489069
    6 1.324282 -0.000010 0.000006 0.000000 -0.035669 -0.863360
    7 0.819336 0.000004 0.000000 0.000000 0.000000 -0.523558
    8 3.711852 0.105348 -0.575980 0.028900 -0.144678 -1.488979
    9 1.610352 0.000000 0.000001 -0.001224 0.005114 -0.663148
    10 0.993193 -0.000004 0.000001 0.001475 0.002258 -0.454046
    11 3.789935 0.203223 0.240031 -0.025866 -0.103356 -1.196439
    12 1.684422 -0.000010 0.000009 0.001620 -0.003714 -0.665474
    13 1.256836 0.000004 0.000000 0.000000 0.000000 -0.807200
    14 3.594221 0.299550 1.105897 -0.089736 -0.078525 -0.471486
    15 1.723633 0.000000 0.000000 0.000000 0.000000 -1.243541
    16 1.001953 -0.000004 0.000000 0.000000 0.000000 0.144005
    17 0.298212 -0.634095 0.422793 -0.521477 -0.862898 -0.525056
    18 2.633559 0.000000 -0.000010 0.012666 0.036504 0.384930
    19 1.307617 0.000000 0.000000 0.000885 -0.017461 -0.010264
    20 2.033356 1.000772 -1.937610 -0.128225 0.173025 4.244766
    21 6.028141 0.000000 -0.000002 -0.746745 0.857513 -2.450641
    22 11.692554 0.000000 -0.000003 0.026088 -0.047507 -1.007656
    23 11.481703 -0.000001 -0.000002 -0.629225 0.033890 0.354881
    24 2.914335 -0.023167 1.400148 -0.075443 -0.048649 -0.941140
    25 1.284180 -0.000002 0.000000 0.000006 0.095135 -0.604945
    26 0.842285 0.000002 0.000000 -0.078527 0.054443 -1.209521
    27 3.368059 0.007376 0.622456 0.035972 -0.077320 -1.016265
    28 1.605515 0.000000 0.000001 0.000003 0.122000 -1.086904
    29 1.020534 -0.000002 -0.000002 0.015301 -0.014044 -1.343737
    30 3.551622 0.023918 -0.200567 0.012608 -0.103497 -0.905347
    31 1.666992 0.000000 0.000000 -0.000008 0.157406 -1.208295
    32 1.240434 0.000002 0.000006 0.000002 -0.000011 -1.483401
    33 3.449664 0.054212 -1.085181 0.053337 -0.066582 -0.357634
    34 1.711618 0.000008 0.000011 0.000003 -0.008421 -0.322908
    35 0.998535 0.000000 0.000000 0.005619 -0.013548 -0.593057
    36 0.075532 -0.738750 -0.759723 1.293541 0.406469 -0.475804
    37 2.508555 -0.000006 -0.000004 -0.000002 -0.000001 0.359162
    38 1.324192 0.050781 -0.113290 0.025663 0.040518 0.530193
    39 -6.162324 -18.763932 -10.292162 1.569172 0.000453 -3.141051
    40 0.000000 2.820313 -1.550776 0.000000 0.000000 0.000000
    41 0.000000 2.738285 -4.027338 0.000000 0.000000 0.000000
    42 0.000000 2.919929 -5.820309 0.000000 0.000000 0.000000
    43 -0.642666 3.299407 -1.091387 0.000000 0.000000 0.000000
    44 -0.240766 6.016356 -14.297569 0.000007 -0.000002 -0.470638
  time 31
    0 0.992218 0.335942 -8.644795 -1.570797 -1.391899 -1.570843
    1 2.033348 1.000767 1.937660 3.099074 -0.162002 1.680074
    2 6.028145 0.000003 0.000002 -2.374514 -0.351231 0.164528
    3 11.692553 0.000081 -0.000006 -0.159217 0.095302 -0.513465
    4 11.481674 -0.000089 -0.000023 -0.631672 0.296905 -0.120115
    5 3.285465 0.002116 -1.383388 0.100087 -0.198867 -1.489038
    6 1.324282 -0.000010 0.000006 0.000000 -0.035681 -0.863360
    7 0.819336 0.000004 0.000000 0.000000 0.000000 -0.523558
    8 3.711852 0.105348 -0.572073 0.028900 -0.144762 -1.488891
    9 1.610352 0.000000 0.000001 -0.001224 0.005114 -0.663148
    10 0.993193 -0.000004 0.000001 0.001475 0.002258 -0.454046
    11 3.789935 0.203223 0.240031 -0.025878 -0.103428 -1.196374
    12 1.684422 -0.000010 0.000009 0.001608 -0.003714 -0.665474
    13 1.256836 0.000004 0.000000 0.000000 0.000000 -0.807200
    14 3.594221 0.299550 1.109803 -0.089808 -0.078573 -0.471422
    15 1.723633 0.000000 0.000000 0.000000 0.000000 -1.243541
    16 1.001953 -0.000004 0.000000 0.000000 0.000000 0.144005
    17 0.298212 -0.634095 0.426700 -0.521592 -0.862948 -0.524919
    18 2.633559 0.000000 -0.000010 0.012666 0.036504 0.384930
    19 1.307617 0.000000 0.000000 0.000885 -0.017461 -0.010264
    20 2.033356 1.000772 -1.937610 -0.128225 0.173025 4.244766
    21 6.028141 0.000000 -0.000002 -0.745344 0.859044 -2.448899
    22 11.692554 0.000000 -0.000003 0.026292 -0.047651 -1.011581
    23 11.481703 -0.000001 -0.000002 -0.629571 0.034992 0.356766
    24 2.914335 -0.027074 1.396242 -0.075443 -0.048637 -0.941140
    25 1.284180 -0.000002 0.000000 0.000006 0.095135 -0.604945
    26 0.842285 0.000002 0.000000 -0.078527 0.054443 -1.209521
    27 3.368059 0.007376 0.622456 0.035972 -0.077320 -1.016265
    28 1.605515 0.000000 0.000001 0.000003 0.122000 -1.086904
    29 1.020534 -0.000002 -0.000002 0.015301 -0.014044 -1.343737
    30 3.551622 0.023918 -0.200567 0.012608 -0.103497 -0.905347
    31 1.666992 0.000000 0.000000 -0.000008 0.157406 -1.208295
    32 1.240434 0.000002 0.000006 0.000002 -0.000011 -1.483439
    33 3.449664 0.054212 -1.089087 0.053337 -0.066582 -0.357634
    34 1.711618 0.000008 0.000011 0.000003 -0.008421 -0.322908
    35 0.998535 0.000000 0.000000 0.005619 -0.013548 -0.593057
    36 0.075532 -0.738750 -0.759723 1.293541 0.406469 -0.475804
    37 2.508555 -0.000006 -0.000004 -0.000002 -0.000001 0.359162
    38 1.324192 0.050781 -0.113290 0.025663 0.040518 0.530193
    39 -6.162324 -18.740494 -10.272630 1.570783 0.000000 -3.141599
    40 0.000000 2.820313 -1.550776 0.000000 0.000000 0.000000
    41 0.000000 2.738285 -4.027338 0.000000 0.000000 0.000000
    42 0.000000 2.919929 -5.820309 0.000000 0.000000 0.000000
    43 -0.642666 3.299407 -1.091387 0.000000 0.000000 0.000000
    44 -0.240766 6.016356 -14.297569 0.000007 -0.000002 -0.470638
end
