// Created by Crowbar++ 0.74
version 1
nodes
  0 "ValveBiped.Bip01_Spine4" -1
  1 "ValveBiped.Bip01_L_Clavicle" 0
  2 "ValveBiped.Bip01_L_UpperArm" 1
  3 "ValveBiped.Bip01_L_Forearm" 2
  4 "ValveBiped.Bip01_L_Hand" 3
  5 "ValveBiped.Bip01_L_Finger4" 4
  6 "ValveBiped.Bip01_L_Finger41" 5
  7 "ValveBiped.Bip01_L_Finger42" 6
  8 "ValveBiped.Bip01_L_Finger3" 4
  9 "ValveBiped.Bip01_L_Finger31" 8
  10 "ValveBiped.Bip01_L_Finger32" 9
  11 "ValveBiped.Bip01_L_Finger2" 4
  12 "ValveBiped.Bip01_L_Finger21" 11
  13 "ValveBiped.Bip01_L_Finger22" 12
  14 "ValveBiped.Bip01_L_Finger1" 4
  15 "ValveBiped.Bip01_L_Finger11" 14
  16 "ValveBiped.Bip01_L_Finger12" 15
  17 "ValveBiped.Bip01_L_Finger0" 4
  18 "ValveBiped.Bip01_L_Finger01" 17
  19 "ValveBiped.Bip01_L_Finger02" 18
  20 "ValveBiped.Bip01_R_Clavicle" 0
  21 "ValveBiped.Bip01_R_UpperArm" 20
  22 "ValveBiped.Bip01_R_Forearm" 21
  23 "ValveBiped.Bip01_R_Hand" 22
  24 "ValveBiped.Bip01_R_Finger4" 23
  25 "ValveBiped.Bip01_R_Finger41" 24
  26 "ValveBiped.Bip01_R_Finger42" 25
  27 "ValveBiped.Bip01_R_Finger3" 23
  28 "ValveBiped.Bip01_R_Finger31" 27
  29 "ValveBiped.Bip01_R_Finger32" 28
  30 "ValveBiped.Bip01_R_Finger2" 23
  31 "ValveBiped.Bip01_R_Finger21" 30
  32 "ValveBiped.Bip01_R_Finger22" 31
  33 "ValveBiped.Bip01_R_Finger1" 23
  34 "ValveBiped.Bip01_R_Finger11" 33
  35 "ValveBiped.Bip01_R_Finger12" 34
  36 "ValveBiped.Bip01_R_Finger0" 23
  37 "ValveBiped.Bip01_R_Finger01" 36
  38 "ValveBiped.Bip01_R_Finger02" 37
  39 "v_weapon.g3sg1_Parent" -1
  40 "v_weapon.g3sg1_Trigger" 39
  41 "v_weapon.g3sg1_Release" 39
  42 "v_weapon.g3sg1_Clip" 39
  43 "v_weapon.g3sg1_Safety" 39
  44 "v_weapon.g3sg1_Handle" 39
end
skeleton
  time 0
    0 1.000000 0.335938 -8.640625 -1.570760 -1.391893 -1.570827
    1 2.033348 1.000767 1.937660 3.099206 -0.162014 1.679995
    2 6.028145 0.000003 0.000002 -2.374514 -0.351231 0.164528
    3 11.692553 0.000081 -0.000006 -0.159217 0.095302 -0.513465
    4 11.481674 -0.000089 -0.000023 -0.631672 0.296905 -0.120115
    5 3.285465 0.002116 -1.383388 0.100087 -0.198867 -1.489007
    6 1.324282 -0.000010 0.000006 0.000000 -0.035681 -0.863360
    7 0.818848 0.000000 0.000000 0.000000 0.000000 -0.523558
    8 3.711852 0.105348 -0.572073 0.028900 -0.144762 -1.488891
    9 1.610352 -0.000004 -0.000002 -0.001224 0.005114 -0.663150
    10 0.993193 -0.000004 0.000001 0.001475 0.002258 -0.454046
    11 3.789935 0.203223 0.240031 -0.025878 -0.103428 -1.196374
    12 1.684422 -0.000010 0.000009 0.001608 -0.003714 -0.665474
    13 1.256836 0.000002 0.000002 0.000000 0.000000 -0.807200
    14 3.594221 0.299550 1.109803 -0.089808 -0.078573 -0.471422
    15 1.723633 0.000006 0.000000 0.000000 0.000000 -1.243541
    16 1.001953 0.000002 -0.000002 0.000000 0.000000 0.144005
    17 0.298212 -0.634095 0.426700 -0.521592 -0.862948 -0.524919
    18 2.633559 0.000000 -0.000010 0.012666 0.036504 0.384930
    19 1.307617 0.000000 0.000000 0.000885 -0.017461 -0.010264
    20 2.033356 1.000772 -1.937610 -0.128177 0.172990 -2.038336
    21 6.028141 0.000000 -0.000002 -0.745344 0.859044 -2.448899
    22 11.692554 0.000000 -0.000003 0.026292 -0.047651 -1.011581
    23 11.481703 -0.000001 -0.000002 -0.629571 0.034992 0.356766
    24 2.914335 -0.027074 1.396242 -0.075443 -0.048637 -0.941140
    25 1.284180 -0.000002 -0.000001 0.000006 0.095135 -0.604945
    26 0.842285 0.000000 0.000001 -0.078529 0.054442 -1.209521
    27 3.368059 0.007376 0.618550 0.035972 -0.077320 -1.016265
    28 1.605515 0.000000 0.000001 0.000003 0.122000 -1.086904
    29 1.020534 -0.000002 -0.000002 0.015301 -0.014044 -1.343737
    30 3.551622 0.023918 -0.204473 0.012608 -0.103497 -0.905347
    31 1.666992 0.000004 0.000001 -0.000008 0.157406 -1.208295
    32 1.240434 0.000002 0.000006 0.000002 -0.000011 -1.483401
    33 3.449664 0.054212 -1.089087 0.053350 0.070642 -0.350295
    34 1.711618 0.000008 0.000011 0.000003 -0.015563 -0.471020
    35 1.005912 0.000000 0.000007 0.042477 -0.036534 -1.526816
    36 0.075532 -0.738750 -0.759723 1.293541 0.406469 -0.475804
    37 2.508555 -0.000006 -0.000004 -0.000002 -0.000001 0.359162
    38 1.324192 0.050781 -0.113290 0.025663 0.040518 0.530193
    39 -6.162324 -18.740494 -10.272630 1.570783 0.000000 -3.141599
    40 0.000000 2.820313 -1.550776 -0.410117 0.000000 0.000000
    41 0.000000 2.738285 -4.027338 0.000000 0.000000 0.000000
    42 0.000000 2.919929 -5.820309 0.000000 0.000000 0.000000
    43 -0.642666 3.299407 -1.091387 0.000000 0.000000 0.000000
    44 -0.240766 6.016356 -14.297569 0.000007 -0.000002 -0.470638
  time 1
    0 1.000000 0.335938 -8.640625 -1.570760 -1.391893 -1.570827
    1 2.033348 1.000767 1.937660 3.099206 -0.162014 1.679995
    2 6.028145 0.000003 0.000002 -2.374514 -0.351231 0.164528
    3 11.692553 0.000081 -0.000006 -0.159217 0.095302 -0.513465
    4 11.481674 -0.000089 -0.000023 -0.631672 0.296905 -0.120115
    5 3.285465 0.002116 -1.383388 0.100087 -0.198867 -1.489007
    6 1.324282 -0.000010 0.000006 0.000000 -0.035681 -0.863360
    7 0.818848 0.000000 0.000000 0.000000 0.000000 -0.523558
    8 3.711852 0.105348 -0.572073 0.028900 -0.144762 -1.488891
    9 1.610352 -0.000004 -0.000002 -0.001224 0.005114 -0.663150
    10 0.993193 -0.000004 0.000001 0.001475 0.002258 -0.454046
    11 3.789935 0.203223 0.240031 -0.025878 -0.103428 -1.196374
    12 1.684422 -0.000010 0.000009 0.001608 -0.003714 -0.665474
    13 1.256836 0.000002 0.000002 0.000000 0.000000 -0.807200
    14 3.594221 0.299550 1.109803 -0.089808 -0.078573 -0.471422
    15 1.723633 0.000006 0.000000 0.000000 0.000000 -1.243541
    16 1.001953 0.000002 -0.000002 0.000000 0.000000 0.144005
    17 0.298212 -0.634095 0.426700 -0.521592 -0.862948 -0.524919
    18 2.633559 0.000000 -0.000010 0.012666 0.036504 0.384930
    19 1.307617 0.000000 0.000000 0.000885 -0.017461 -0.010264
    20 2.033356 1.000772 -1.937610 -0.128177 0.172990 -2.038336
    21 6.028141 0.000000 -0.000002 -0.745344 0.859044 -2.448899
    22 11.692554 0.000000 -0.000003 0.026292 -0.047651 -1.011581
    23 11.481703 -0.000001 -0.000002 -0.629571 0.034992 0.356766
    24 2.914335 -0.027074 1.396242 -0.075443 -0.048637 -0.941140
    25 1.284180 -0.000002 -0.000001 0.000006 0.095135 -0.604945
    26 0.842285 0.000000 0.000001 -0.078529 0.054442 -1.209521
    27 3.368059 0.007376 0.618550 0.035972 -0.077320 -1.016265
    28 1.605515 0.000000 0.000001 0.000003 0.122000 -1.086904
    29 1.020534 -0.000002 -0.000002 0.015301 -0.014044 -1.343737
    30 3.551622 0.023918 -0.204473 0.012608 -0.103497 -0.905347
    31 1.666992 0.000004 0.000001 -0.000008 0.157406 -1.208295
    32 1.240434 0.000002 0.000006 0.000002 -0.000011 -1.483401
    33 3.449664 0.054212 -1.089087 0.053350 0.070642 -0.350295
    34 1.711618 0.000008 0.000011 0.000003 -0.015563 -0.471020
    35 1.005912 0.000000 0.000007 0.042477 -0.036534 -1.526816
    36 0.075532 -0.738750 -0.759723 1.293541 0.406469 -0.475804
    37 2.508555 -0.000006 -0.000004 -0.000002 -0.000001 0.359162
    38 1.324192 0.050781 -0.113290 0.025663 0.040518 0.530193
    39 -6.162324 -18.740494 -10.272630 1.570783 0.000000 -3.141599
    40 0.000000 2.820313 -1.550776 -0.410117 0.000000 0.000000
    41 0.000000 2.738285 -4.027338 0.000000 0.000000 0.000000
    42 0.000000 2.919929 -5.820309 0.000000 0.000000 0.000000
    43 -0.642666 3.299407 -1.091387 0.000000 0.000000 0.000000
    44 -0.240766 6.016356 -14.297569 0.000007 -0.000002 -0.470638
  time 2
    0 1.000000 0.335938 -8.640625 -1.570760 -1.391893 -1.570827
    1 2.033348 1.000767 1.937660 3.099206 -0.162014 1.679995
    2 6.028145 0.000003 0.000002 -2.349713 -0.298715 0.103996
    3 11.692553 0.000081 -0.000006 -0.182267 0.127600 -0.719684
    4 11.481674 -0.000089 -0.000023 -0.543075 0.251973 0.046238
    5 3.281559 0.002116 -1.383388 0.099706 -0.198220 -1.489100
    6 1.324282 -0.000010 0.000006 0.000000 -0.035669 -0.863360
    7 0.818848 0.000000 0.000000 0.000000 0.000000 -0.523558
    8 3.711852 0.109255 -0.568167 0.028516 -0.144115 -1.489045
    9 1.610352 -0.000004 -0.000002 -0.001224 0.005114 -0.663150
    10 0.993193 -0.000004 0.000001 0.001475 0.002258 -0.454046
    11 3.786029 0.203223 0.243937 -0.026058 -0.102697 -1.196526
    12 1.684422 -0.000010 0.000009 0.001620 -0.003714 -0.665474
    13 1.256836 0.000002 0.000002 0.000000 0.000000 -0.807200
    14 3.594221 0.299550 1.113709 -0.089462 -0.077902 -0.471615
    15 1.723633 0.000006 0.000000 0.000000 0.000000 -1.243541
    16 1.001953 0.000002 -0.000002 0.000000 0.000000 0.144005
    17 0.298212 -0.634095 0.426700 -0.517280 -0.865830 -0.527903
    18 2.633559 0.000000 -0.000010 0.012666 0.036504 0.384930
    19 1.307617 0.000000 0.000000 0.000885 -0.017461 -0.010264
    20 2.033356 1.000772 -1.937610 -0.128177 0.172990 -2.038336
    21 6.028141 0.000000 -0.000002 -0.666054 0.926932 -2.352847
    22 11.692554 0.000000 -0.000003 0.033783 -0.051474 -1.162470
    23 11.481703 -0.000001 -0.000002 -0.609161 0.030338 0.426038
    24 2.914335 -0.023167 1.400148 -0.075757 -0.048349 -0.941555
    25 1.284180 -0.000002 -0.000001 0.000006 0.095135 -0.604945
    26 0.842285 0.000000 0.000001 -0.078529 0.054442 -1.209521
    27 3.368059 0.007376 0.622456 0.035672 -0.077057 -1.016683
    28 1.605515 0.000000 0.000001 0.000003 0.122000 -1.086904
    29 1.020534 -0.000002 -0.000002 0.015301 -0.014044 -1.343737
    30 3.551622 0.027824 -0.200567 0.012345 -0.103185 -0.905749
    31 1.666992 0.000004 0.000001 -0.000008 0.157406 -1.208295
    32 1.240434 0.000002 0.000006 0.000002 -0.000011 -1.483401
    33 3.453570 0.054212 -1.085181 0.053275 0.071037 -0.350748
    34 1.711618 0.000008 0.000011 0.000003 -0.015623 -0.472234
    35 1.005912 0.000000 0.000007 0.042849 -0.036558 -1.534415
    36 0.075532 -0.734843 -0.755817 1.293397 0.406865 -0.476295
    37 2.508555 -0.000006 -0.000004 -0.000002 -0.000001 0.359162
    38 1.328098 0.050781 -0.113290 0.025651 0.040518 0.530193
    39 -6.291235 -17.783433 -10.253098 1.569247 0.018052 -3.147784
    40 0.000000 2.820313 -1.550776 -0.413470 0.000000 0.000000
    41 0.000000 2.738285 -4.027338 0.000000 0.000000 0.000000
    42 0.000000 2.919929 -5.820309 0.000000 0.000000 0.000000
    43 -0.642666 3.299407 -1.091387 0.000000 0.000000 0.000000
    44 -0.240766 6.016356 -14.297569 0.000007 -0.000002 -0.470638
  time 3
    0 1.000000 0.335938 -8.640625 -1.570760 -1.391893 -1.570827
    1 2.033348 1.000767 1.937660 3.099206 -0.162014 1.679995
    2 6.028145 0.000003 0.000002 -2.356160 -0.308553 0.118460
    3 11.692553 0.000081 -0.000006 -0.177410 0.121859 -0.680633
    4 11.481674 -0.000089 -0.000023 -0.545874 0.265039 0.024920
    5 3.281559 0.002116 -1.383388 0.099706 -0.198220 -1.489100
    6 1.324282 -0.000010 0.000006 0.000000 -0.035681 -0.863360
    7 0.818848 0.000000 0.000000 0.000000 0.000000 -0.523558
    8 3.711852 0.109255 -0.568167 0.028504 -0.144115 -1.489001
    9 1.610352 -0.000004 -0.000002 -0.001224 0.005114 -0.663150
    10 0.993193 -0.000004 0.000001 0.001475 0.002258 -0.454046
    11 3.786029 0.203223 0.243937 -0.026070 -0.102697 -1.196526
    12 1.684422 -0.000010 0.000009 0.001608 -0.003714 -0.665474
    13 1.256836 0.000002 0.000002 0.000000 0.000000 -0.807200
    14 3.594221 0.299550 1.113709 -0.089462 -0.077902 -0.471615
    15 1.723633 0.000006 0.000000 0.000000 0.000000 -1.243541
    16 1.001953 0.000002 -0.000002 0.000000 0.000000 0.144005
    17 0.298212 -0.634095 0.430606 -0.507618 -0.874694 -0.534119
    18 2.633559 0.000000 -0.000010 0.012666 0.036504 0.384930
    19 1.307617 0.000000 0.000000 0.000885 -0.017461 -0.010264
    20 2.033356 1.000772 -1.937610 -0.128177 0.172990 -2.038336
    21 6.028141 0.000000 -0.000002 -0.682207 0.916859 -2.374052
    22 11.692554 0.000000 -0.000003 0.032488 -0.050899 -1.137186
    23 11.481703 -0.000001 -0.000002 -0.609660 0.027766 0.417516
    24 2.914335 -0.023167 1.400148 -0.075790 -0.048301 -0.941625
    25 1.284180 -0.000002 -0.000001 0.000006 0.095135 -0.604945
    26 0.842285 0.000000 0.000001 -0.078529 0.054442 -1.209521
    27 3.368059 0.007376 0.618550 0.035624 -0.077009 -1.016746
    28 1.605515 0.000000 0.000001 0.000003 0.122000 -1.086904
    29 1.020534 -0.000002 -0.000002 0.015301 -0.014044 -1.343765
    30 3.551622 0.027824 -0.200567 0.012297 -0.103137 -0.905810
    31 1.666992 0.000004 0.000001 -0.000008 0.157406 -1.208295
    32 1.240434 0.000002 0.000006 0.000002 -0.000011 -1.483401
    33 3.453570 0.054212 -1.089087 0.053275 0.071109 -0.350794
    34 1.711618 0.000008 0.000011 0.000003 -0.015755 -0.475067
    35 1.002005 0.000000 0.000007 0.043712 -0.036630 -1.552203
    36 0.075532 -0.734843 -0.759723 1.293385 0.406925 -0.476367
    37 2.508555 -0.000006 -0.000004 -0.000002 -0.000001 0.359162
    38 1.324192 0.050781 -0.113290 0.025663 0.040518 0.530170
    39 -6.287328 -17.951407 -10.206221 1.568280 0.017700 -3.147628
    40 0.000000 2.820313 -1.550776 -0.421275 0.000000 0.000000
    41 0.000000 2.738285 -4.027338 0.000000 0.000000 0.000000
    42 0.000000 2.919929 -5.820309 0.000000 0.000000 0.000000
    43 -0.642666 3.299407 -1.091387 0.000000 0.000000 0.000000
    44 -0.240766 6.016356 -14.297569 0.000007 -0.000002 -0.470638
  time 4
    0 1.000000 0.335938 -8.640625 -1.570760 -1.391893 -1.570827
    1 2.033348 1.000767 1.937660 3.099206 -0.162014 1.679995
    2 6.028145 0.000003 0.000002 -2.360407 -0.315449 0.128287
    3 11.692553 0.000081 -0.000006 -0.174112 0.117725 -0.653128
    4 11.481674 -0.000089 -0.000023 -0.549696 0.273893 0.008035
    5 3.281559 0.002116 -1.379481 0.099706 -0.198220 -1.489100
    6 1.324282 -0.000010 0.000006 0.000000 -0.035669 -0.863360
    7 0.818848 0.000000 0.000000 0.000000 0.000000 -0.523558
    8 3.711852 0.109255 -0.568167 0.028516 -0.144115 -1.489045
    9 1.610352 -0.000004 -0.000002 -0.001224 0.005114 -0.663150
    10 0.993193 -0.000004 0.000001 0.001475 0.002258 -0.454046
    11 3.786029 0.203223 0.247844 -0.026070 -0.102697 -1.196526
    12 1.684422 -0.000010 0.000009 0.001620 -0.003714 -0.665474
    13 1.256836 0.000002 0.000002 0.000000 0.000000 -0.807200
    14 3.594221 0.299550 1.113709 -0.089462 -0.077902 -0.471615
    15 1.723633 0.000006 0.000000 0.000000 0.000000 -1.243541
    16 1.001953 0.000002 -0.000002 0.000000 0.000000 0.144005
    17 0.298212 -0.634095 0.430606 -0.494796 -0.886186 -0.542470
    18 2.633559 0.000000 -0.000010 0.012666 0.036492 0.384930
    19 1.307617 0.000000 0.000000 0.000885 -0.017461 -0.010264
    20 2.033356 1.000772 -1.937610 -0.128177 0.172990 -2.038336
    21 6.028141 0.000000 -0.000002 -0.695704 0.906948 -2.390812
    22 11.692554 0.000000 -0.000003 0.031290 -0.050383 -1.113380
    23 11.481703 -0.000001 -0.000002 -0.611198 0.026847 0.407436
    24 2.914335 -0.023167 1.400148 -0.075443 -0.048649 -0.941140
    25 1.284180 -0.000002 -0.000001 0.000006 0.095135 -0.604945
    26 0.842285 0.000000 0.000001 -0.078529 0.054442 -1.209521
    27 3.368059 0.007376 0.622456 0.035972 -0.077320 -1.016265
    28 1.605515 0.000000 0.000001 0.000003 0.122000 -1.086904
    29 1.020534 -0.000002 -0.000002 0.015301 -0.014044 -1.343737
    30 3.551622 0.023918 -0.200567 0.012608 -0.103497 -0.905347
    31 1.666992 0.000004 0.000001 -0.000008 0.157406 -1.208295
    32 1.240434 0.000002 0.000006 0.000002 -0.000011 -1.483401
    33 3.449664 0.054212 -1.089087 0.053350 0.070642 -0.350295
    34 1.711618 0.000008 0.000011 0.000003 -0.015911 -0.478254
    35 1.005912 0.000000 0.000007 0.044683 -0.036678 -1.572496
    36 0.075532 -0.738750 -0.759723 1.293529 0.406469 -0.475804
    37 2.508555 -0.000006 -0.000004 -0.000002 -0.000001 0.359162
    38 1.324192 0.050781 -0.113290 0.025663 0.040518 0.530193
    39 -6.275609 -18.099849 -10.194502 1.567239 0.016468 -3.147158
    40 0.000000 2.820313 -1.550776 -0.430214 0.000000 0.000000
    41 0.000000 2.738285 -4.027338 0.000000 0.000000 0.000000
    42 0.000000 2.919929 -5.820309 0.000000 0.000000 0.000000
    43 -0.642666 3.299407 -1.091387 0.000000 0.000000 0.000000
    44 -0.240766 6.016356 -14.297569 0.000007 -0.000002 -0.470638
  time 5
    0 1.000000 0.335938 -8.640625 -1.570760 -1.391893 -1.570827
    1 2.033348 1.000767 1.937660 3.099206 -0.162014 1.679995
    2 6.028145 0.000003 0.000002 -2.363365 -0.326444 0.136934
    3 11.692553 0.000081 -0.000006 -0.170379 0.112703 -0.620629
    4 11.481674 -0.000089 -0.000023 -0.553724 0.280172 -0.012840
    5 3.281559 0.002116 -1.383388 0.099706 -0.198220 -1.489100
    6 1.324282 -0.000010 0.000006 0.000000 -0.035681 -0.863360
    7 0.818848 0.000000 0.000000 0.000000 0.000000 -0.523558
    8 3.711852 0.109255 -0.568167 0.028504 -0.144115 -1.489001
    9 1.610352 -0.000004 -0.000002 -0.001224 0.005114 -0.663150
    10 0.993193 -0.000004 0.000001 0.001475 0.002258 -0.454046
    11 3.786029 0.203223 0.247844 -0.026058 -0.102697 -1.196526
    12 1.684422 -0.000010 0.000009 0.001620 -0.003714 -0.665474
    13 1.256836 0.000002 0.000002 0.000000 0.000000 -0.807200
    14 3.594221 0.299550 1.113709 -0.089462 -0.077902 -0.471615
    15 1.723633 0.000006 0.000000 0.000000 0.000000 -1.243541
    16 1.001953 0.000002 -0.000002 0.000000 0.000000 0.144005
    17 0.298212 -0.634095 0.426700 -0.481675 -0.897612 -0.551095
    18 2.633559 0.000000 -0.000010 0.012666 0.036504 0.384930
    19 1.307617 0.000000 0.000000 0.000885 -0.017461 -0.010264
    20 2.033356 1.000772 -1.937610 -0.128177 0.172990 -2.038336
    21 6.028141 0.000000 -0.000002 -0.706694 0.897520 -2.403907
    22 11.692554 0.000000 -0.000003 0.030223 -0.049856 -1.092225
    23 11.481703 -0.000001 -0.000002 -0.613581 0.026755 0.398422
    24 2.914335 -0.023167 1.400148 -0.075443 -0.048649 -0.941140
    25 1.284180 -0.000002 -0.000001 0.000006 0.095135 -0.604945
    26 0.842285 0.000000 0.000001 -0.078529 0.054442 -1.209521
    27 3.368059 0.007376 0.622456 0.035972 -0.077332 -1.016265
    28 1.605515 0.000000 0.000001 0.000003 0.121988 -1.086904
    29 1.020534 -0.000002 -0.000002 0.015301 -0.014044 -1.343737
    30 3.551622 0.023918 -0.200567 0.012608 -0.103497 -0.905347
    31 1.666992 0.000004 0.000001 -0.000008 0.157406 -1.208295
    32 1.240434 0.000002 0.000006 0.000002 -0.000011 -1.483401
    33 3.449664 0.054212 -1.089087 0.053350 0.070642 -0.350295
    34 1.711618 0.000008 0.000011 0.000003 -0.016019 -0.480682
    35 1.002005 0.000000 0.000007 0.045426 -0.036702 -1.587778
    36 0.075532 -0.738750 -0.759723 1.293529 0.406469 -0.475804
    37 2.512462 -0.000006 -0.000004 -0.000002 -0.000001 0.359149
    38 1.324192 0.050781 -0.113290 0.025651 0.040518 0.530193
    39 -6.259984 -18.240478 -10.210128 1.566174 0.014633 -3.146453
    40 0.000000 2.820313 -1.550776 -0.436902 0.000000 0.000000
    41 0.000000 2.738285 -4.027338 0.000000 0.000000 0.000000
    42 0.000000 2.919929 -5.820309 0.000000 0.000000 0.000000
    43 -0.642666 3.299407 -1.091387 0.000000 0.000000 0.000000
    44 -0.240766 6.016356 -14.297569 0.000007 -0.000002 -0.470638
  time 6
    0 1.000000 0.335938 -8.640625 -1.570760 -1.391893 -1.570827
    1 2.033348 1.000767 1.937660 3.099206 -0.162014 1.679995
    2 6.028145 0.000003 0.000002 -2.365110 -0.337729 0.143459
    3 11.692553 0.000081 -0.000006 -0.167045 0.107921 -0.590399
    4 11.481674 -0.000089 -0.000023 -0.558365 0.284112 -0.033916
    5 3.281559 0.002116 -1.379481 0.099706 -0.198220 -1.489100
    6 1.324282 -0.000010 0.000006 0.000000 -0.035681 -0.863360
    7 0.818848 0.000000 0.000000 0.000000 0.000000 -0.523558
    8 3.711852 0.109255 -0.568167 0.028504 -0.144115 -1.489001
    9 1.610352 -0.000004 -0.000002 -0.001224 0.005114 -0.663150
    10 0.993193 -0.000004 0.000001 0.001475 0.002258 -0.454046
    11 3.786029 0.203223 0.243937 -0.026070 -0.102697 -1.196504
    12 1.684422 -0.000010 0.000009 0.001620 -0.003714 -0.665474
    13 1.256836 0.000002 0.000002 0.000000 0.000000 -0.807200
    14 3.594221 0.299550 1.113709 -0.089462 -0.077902 -0.471615
    15 1.723633 0.000006 0.000000 0.000000 0.000000 -1.243541
    16 1.001953 0.000002 -0.000002 0.000000 0.000000 0.144005
    17 0.298212 -0.634095 0.430606 -0.471298 -0.906358 -0.557995
    18 2.633559 0.000000 -0.000010 0.012666 0.036504 0.384930
    19 1.307617 0.000000 0.000000 0.000885 -0.017461 -0.010264
    20 2.033356 1.000772 -1.937610 -0.128177 0.172990 -2.038336
    21 6.028141 0.000000 -0.000002 -0.715693 0.888455 -2.413758
    22 11.692554 0.000000 -0.000003 0.029252 -0.049377 -1.072650
    23 11.481703 -0.000001 -0.000002 -0.616464 0.027735 0.388698
    24 2.910429 -0.023167 1.400148 -0.075227 -0.048888 -0.940794
    25 1.284180 -0.000002 -0.000001 0.000006 0.095135 -0.604945
    26 0.842285 0.000000 0.000001 -0.078529 0.054442 -1.209521
    27 3.364152 0.007376 0.622456 0.036223 -0.077548 -1.015930
    28 1.605515 0.000000 0.000001 0.000003 0.122000 -1.086904
    29 1.020534 -0.000002 -0.000002 0.015301 -0.014044 -1.343737
    30 3.551622 0.023918 -0.200567 0.012848 -0.103749 -0.905005
    31 1.666992 0.000004 0.000001 -0.000008 0.157406 -1.208295
    32 1.240434 0.000002 0.000006 0.000002 -0.000011 -1.483401
    33 3.449664 0.054212 -1.089087 0.053412 0.070306 -0.349933
    34 1.711618 0.000008 0.000011 0.000003 -0.016043 -0.481086
    35 1.005912 0.000000 0.000007 0.045533 -0.036714 -1.590407
    36 0.075532 -0.738750 -0.759723 1.293637 0.406146 -0.475408
    37 2.508555 -0.000006 -0.000004 -0.000002 -0.000001 0.359162
    38 1.324192 0.050781 -0.113290 0.025663 0.040518 0.530170
    39 -6.244358 -18.361576 -10.253098 1.565108 0.012345 -3.145592
    40 0.000000 2.820313 -1.550776 -0.438036 0.000000 0.000000
    41 0.000000 2.738285 -4.027338 0.000000 0.000000 0.000000
    42 0.000000 2.919929 -5.820309 0.000000 0.000000 0.000000
    43 -0.642666 3.299407 -1.091387 0.000000 0.000000 0.000000
    44 -0.240766 6.016356 -14.297569 0.000007 -0.000002 -0.470638
  time 7
    0 1.000000 0.335938 -8.640625 -1.570760 -1.391893 -1.570827
    1 2.033348 1.000767 1.937660 3.099206 -0.162014 1.679995
    2 6.028145 0.000003 0.000002 -2.365944 -0.344191 0.146761
    3 11.692553 0.000081 -0.000006 -0.164762 0.104410 -0.568603
    4 11.481674 -0.000089 -0.000023 -0.564167 0.287271 -0.053421
    5 3.281559 0.002116 -1.383388 0.099706 -0.198220 -1.489100
    6 1.324282 -0.000010 0.000006 0.000000 -0.035681 -0.863360
    7 0.818848 0.000000 0.000000 0.000000 0.000000 -0.523558
    8 3.711852 0.109255 -0.568167 0.028504 -0.144115 -1.489001
    9 1.610352 -0.000004 -0.000002 -0.001224 0.005114 -0.663150
    10 0.993193 -0.000004 0.000001 0.001487 0.002258 -0.454046
    11 3.786029 0.203223 0.243937 -0.026082 -0.102697 -1.196504
    12 1.684422 -0.000010 0.000009 0.001620 -0.003714 -0.665474
    13 1.256836 0.000002 0.000002 0.000000 0.000000 -0.807200
    14 3.594221 0.299550 1.113709 -0.089462 -0.077902 -0.471615
    15 1.723633 0.000006 0.000000 0.000000 0.000000 -1.243541
    16 1.001953 0.000002 -0.000002 0.000000 0.000000 0.144005
    17 0.298212 -0.634095 0.430606 -0.467078 -0.909829 -0.560816
    18 2.633559 0.000000 -0.000010 0.012666 0.036504 0.384930
    19 1.307617 0.000000 0.000000 0.000885 -0.017461 -0.010264
    20 2.033356 1.000772 -1.937610 -0.128177 0.172990 -2.038336
    21 6.028141 0.000000 -0.000002 -0.722626 0.880438 -2.420786
    22 11.692554 0.000000 -0.000003 0.028449 -0.048897 -1.056236
    23 11.481703 -0.000001 -0.000002 -0.619769 0.029052 0.380967
    24 2.914335 -0.023167 1.400148 -0.075443 -0.048649 -0.941140
    25 1.284180 -0.000002 -0.000001 0.000006 0.095135 -0.604945
    26 0.842285 0.000000 0.000001 -0.078529 0.054442 -1.209521
    27 3.368059 0.007376 0.622456 0.035972 -0.077332 -1.016265
    28 1.605515 0.000000 0.000001 0.000003 0.122000 -1.086904
    29 1.020534 -0.000002 -0.000002 0.015301 -0.014044 -1.343737
    30 3.551622 0.023918 -0.200567 0.012608 -0.103497 -0.905347
    31 1.666992 0.000004 0.000001 -0.000008 0.157406 -1.208295
    32 1.240434 0.000002 0.000006 0.000002 -0.000011 -1.483401
    33 3.449664 0.054212 -1.089087 0.053350 0.070642 -0.350295
    34 1.711618 0.000008 0.000011 0.000003 -0.015911 -0.478254
    35 1.002005 0.000000 0.000007 0.044683 -0.036678 -1.572496
    36 0.075532 -0.738750 -0.759723 1.293529 0.406469 -0.475804
    37 2.508555 -0.000006 -0.000004 -0.000002 -0.000001 0.359162
    38 1.324192 0.050781 -0.113290 0.025663 0.040518 0.530193
    39 -6.224826 -18.459235 -10.303881 1.564142 0.009805 -3.144653
    40 0.000000 2.820313 -1.550776 -0.430214 0.000000 0.000000
    41 0.000000 2.738285 -4.027338 0.000000 0.000000 0.000000
    42 0.000000 2.919929 -5.820309 0.000000 0.000000 0.000000
    43 -0.642666 3.299407 -1.091387 0.000000 0.000000 0.000000
    44 -0.240766 6.016356 -14.297569 0.000007 -0.000002 -0.470638
  time 8
    0 1.000000 0.335938 -8.640625 -1.570760 -1.391893 -1.570827
    1 2.033348 1.000767 1.937660 3.099206 -0.162014 1.679995
    2 6.028145 0.000003 0.000002 -2.365261 -0.341972 0.144874
    3 11.692553 0.000081 -0.000006 -0.163964 0.103163 -0.560949
    4 11.481674 -0.000089 -0.000023 -0.571061 0.289650 -0.069500
    5 3.281559 0.002116 -1.383388 0.099706 -0.198220 -1.489100
    6 1.324282 -0.000010 0.000006 0.000000 -0.035669 -0.863360
    7 0.818848 0.000000 0.000000 0.000000 0.000000 -0.523558
    8 3.711852 0.109255 -0.568167 0.028516 -0.144115 -1.489045
    9 1.610352 -0.000004 -0.000002 -0.001224 0.005114 -0.663150
    10 0.993193 -0.000004 0.000001 0.001475 0.002258 -0.454046
    11 3.786029 0.203223 0.243937 -0.026058 -0.102697 -1.196526
    12 1.684422 -0.000010 0.000009 0.001620 -0.003714 -0.665474
    13 1.256836 0.000002 0.000002 0.000000 0.000000 -0.807200
    14 3.594221 0.299550 1.109803 -0.089462 -0.077902 -0.471615
    15 1.723633 0.000006 0.000000 0.000000 0.000000 -1.243541
    16 1.001953 0.000002 -0.000002 0.000000 0.000000 0.144005
    17 0.298212 -0.634095 0.430606 -0.469084 -0.908211 -0.559501
    18 2.633559 0.000000 -0.000010 0.012666 0.036492 0.384930
    19 1.307617 0.000000 0.000000 0.000885 -0.017461 -0.010264
    20 2.033356 1.000772 -1.937610 -0.128177 0.172990 -2.038336
    21 6.028141 0.000000 -0.000002 -0.727420 0.873669 -2.424871
    22 11.692554 0.000000 -0.000003 0.027790 -0.048526 -1.042931
    23 11.481703 -0.000001 -0.000002 -0.623075 0.030950 0.373510
    24 2.914335 -0.023167 1.400148 -0.075459 -0.048649 -0.941140
    25 1.284180 -0.000002 -0.000001 0.000006 0.095135 -0.604945
    26 0.842285 0.000000 0.000001 -0.078529 0.054442 -1.209521
    27 3.368059 0.007376 0.618550 0.035972 -0.077320 -1.016265
    28 1.605515 0.000000 0.000001 0.000003 0.122000 -1.086904
    29 1.020534 -0.000002 -0.000002 0.015301 -0.014044 -1.343737
    30 3.551622 0.023918 -0.204473 0.012608 -0.103497 -0.905347
    31 1.666992 0.000004 0.000001 -0.000008 0.157406 -1.208295
    32 1.240434 0.000002 0.000006 0.000002 -0.000011 -1.483401
    33 3.449664 0.054212 -1.089087 0.053350 0.070642 -0.350295
    34 1.711618 0.000008 0.000011 0.000003 -0.015563 -0.471020
    35 1.005912 0.000000 0.000007 0.042477 -0.036534 -1.526816
    36 0.075532 -0.738750 -0.759723 1.293529 0.406469 -0.475804
    37 2.508555 -0.000006 -0.000004 -0.000002 -0.000001 0.359162
    38 1.324192 0.050781 -0.113290 0.025663 0.040518 0.530193
    39 -6.201388 -18.537362 -10.366383 1.563274 0.007241 -3.143635
    40 0.000000 2.820313 -1.550776 -0.410117 0.000000 0.000000
    41 0.000000 2.738285 -4.027338 0.000000 0.000000 0.000000
    42 0.000000 2.919929 -5.820309 0.000000 0.000000 0.000000
    43 -0.642666 3.299407 -1.091387 0.000000 0.000000 0.000000
    44 -0.240766 6.016356 -14.297569 0.000007 -0.000002 -0.470638
  time 9
    0 1.000000 0.335938 -8.640625 -1.570760 -1.391893 -1.570827
    1 2.033348 1.000767 1.937660 3.099206 -0.162014 1.679995
    2 6.028145 0.000003 0.000002 -2.363365 -0.334208 0.139057
    3 11.692553 0.000081 -0.000006 -0.164254 0.103667 -0.563933
    4 11.481674 -0.000089 -0.000023 -0.578432 0.290586 -0.082396
    5 3.281559 0.002116 -1.383388 0.099706 -0.198220 -1.489100
    6 1.324282 -0.000010 0.000006 0.000000 -0.035669 -0.863360
    7 0.818848 0.000000 0.000000 0.000000 0.000000 -0.523558
    8 3.711852 0.109255 -0.572073 0.028504 -0.144115 -1.489001
    9 1.610352 -0.000004 -0.000002 -0.001224 0.005114 -0.663150
    10 0.993193 -0.000004 0.000001 0.001475 0.002258 -0.454046
    11 3.786029 0.203223 0.243937 -0.026082 -0.102697 -1.196504
    12 1.684422 -0.000010 0.000009 0.001620 -0.003714 -0.665474
    13 1.256836 0.000002 0.000002 0.000000 0.000000 -0.807200
    14 3.594221 0.299550 1.109803 -0.089462 -0.077902 -0.471615
    15 1.723633 0.000006 0.000000 0.000000 0.000000 -1.243541
    16 1.001953 0.000002 -0.000002 0.000000 0.000000 0.144005
    17 0.298212 -0.634095 0.426700 -0.474250 -0.903897 -0.556051
    18 2.633559 0.000000 -0.000010 0.012666 0.036504 0.384930
    19 1.307617 0.000000 0.000000 0.000885 -0.017461 -0.010264
    20 2.033356 1.000772 -1.937610 -0.128177 0.172990 -2.038336
    21 6.028141 0.000000 -0.000002 -0.730518 0.868472 -2.426854
    22 11.692554 0.000000 -0.000003 0.027335 -0.048190 -1.033399
    23 11.481703 -0.000001 -0.000002 -0.626342 0.032849 0.368457
    24 2.914335 -0.023167 1.400148 -0.075790 -0.048289 -0.941625
    25 1.284180 -0.000002 -0.000001 0.000006 0.095135 -0.604945
    26 0.842285 0.000000 0.000001 -0.078529 0.054442 -1.209521
    27 3.368059 0.007376 0.618550 0.035624 -0.076997 -1.016746
    28 1.605515 0.000000 0.000001 0.000003 0.122000 -1.086904
    29 1.020534 -0.000002 -0.000002 0.015301 -0.014044 -1.343737
    30 3.551622 0.027824 -0.200567 0.012309 -0.103125 -0.905810
    31 1.666992 0.000004 0.000001 -0.000008 0.157406 -1.208295
    32 1.240434 0.000002 0.000006 0.000002 -0.000011 -1.483401
    33 3.449664 0.054212 -1.089087 0.053275 0.071109 -0.350794
    34 1.711618 0.000008 0.000011 0.000003 -0.015000 -0.459133
    35 1.002005 0.000000 0.000007 0.038894 -0.036067 -1.451722
    36 0.075532 -0.734843 -0.755817 1.293385 0.406937 -0.476355
    37 2.508555 -0.000006 -0.000004 -0.000002 -0.000001 0.359162
    38 1.324192 0.050781 -0.113290 0.025663 0.040518 0.530193
    39 -6.181856 -18.599864 -10.428885 1.562630 0.004802 -3.142617
    40 0.000000 2.820313 -1.550776 -0.377187 0.000000 0.000000
    41 0.000000 2.738285 -4.027338 0.000000 0.000000 0.000000
    42 0.000000 2.919929 -5.820309 0.000000 0.000000 0.000000
    43 -0.642666 3.299407 -1.091387 0.000000 0.000000 0.000000
    44 -0.240766 6.016356 -14.297569 0.000007 -0.000002 -0.470638
  time 10
    0 1.000000 0.335938 -8.640625 -1.570760 -1.391893 -1.570827
    1 2.033348 1.000767 1.937660 3.099206 -0.162014 1.679995
    2 6.028145 0.000003 0.000002 -2.362607 -0.329772 0.136306
    3 11.692553 0.000081 -0.000006 -0.164182 0.103547 -0.563219
    4 11.481674 -0.000089 -0.000023 -0.586487 0.291639 -0.095291
    5 3.281559 0.002116 -1.383388 0.099706 -0.198220 -1.489100
    6 1.324282 -0.000010 0.000006 0.000000 -0.035681 -0.863360
    7 0.818848 0.000000 0.000000 0.000000 0.000000 -0.523558
    8 3.711852 0.109255 -0.572073 0.028504 -0.144115 -1.489001
    9 1.610352 -0.000004 -0.000002 -0.001224 0.005114 -0.663150
    10 0.993193 -0.000004 0.000001 0.001475 0.002258 -0.454046
    11 3.786029 0.203223 0.243937 -0.026070 -0.102697 -1.196526
    12 1.684422 -0.000010 0.000009 0.001620 -0.003714 -0.665474
    13 1.256836 0.000002 0.000002 0.000000 0.000000 -0.807200
    14 3.594221 0.299550 1.109803 -0.089462 -0.077902 -0.471615
    15 1.723633 0.000006 0.000000 0.000000 0.000000 -1.243541
    16 1.001953 0.000002 -0.000002 0.000000 0.000000 0.144005
    17 0.298212 -0.634095 0.426700 -0.481652 -0.897612 -0.551095
    18 2.633559 0.000000 -0.000010 0.012666 0.036492 0.384930
    19 1.307617 0.000000 0.000000 0.000885 -0.017461 -0.010264
    20 2.033356 1.000772 -1.937610 -0.128177 0.172990 -2.038336
    21 6.028141 0.000000 -0.000002 -0.732215 0.864524 -2.427154
    22 11.692554 0.000000 -0.000003 0.026975 -0.048034 -1.026007
    23 11.481703 -0.000001 -0.000002 -0.628687 0.035329 0.362393
    24 2.914335 -0.023167 1.400148 -0.075443 -0.048984 -0.941140
    25 1.284180 -0.000002 -0.000001 0.000006 0.095135 -0.604945
    26 0.842285 0.000000 0.000001 -0.078529 0.054442 -1.209521
    27 3.368059 0.007376 0.618550 0.036008 -0.077668 -1.016285
    28 1.605515 0.000000 0.000001 0.000003 0.122000 -1.086904
    29 1.020534 -0.000002 -0.000002 0.015301 -0.014044 -1.343765
    30 3.551622 0.023918 -0.200567 0.012608 -0.103844 -0.905347
    31 1.666992 0.000004 0.000001 -0.000008 0.157406 -1.208295
    32 1.240434 0.000002 0.000006 0.000002 -0.000011 -1.483401
    33 3.449664 0.054212 -1.085181 0.053163 0.070342 -0.350295
    34 1.711618 0.000008 0.000011 0.000003 -0.014269 -0.443704
    35 1.005912 0.000000 0.000007 0.034316 -0.035072 -1.354528
    36 0.075532 -0.738750 -0.759723 1.293373 0.406158 -0.475876
    37 2.508555 -0.000006 -0.000004 -0.000002 -0.000001 0.359162
    38 1.324192 0.050781 -0.113290 0.025663 0.040518 0.530170
    39 -6.166231 -18.638928 -10.491386 1.562184 0.002690 -3.141834
    40 0.000000 2.820313 -1.550776 -0.334504 0.000000 0.000000
    41 0.000000 2.738285 -4.027338 0.000000 0.000000 0.000000
    42 0.000000 2.919929 -5.820309 0.000000 0.000000 0.000000
    43 -0.642666 3.299407 -1.091387 0.000000 0.000000 0.000000
    44 -0.240766 6.016356 -14.297569 0.000007 -0.000002 -0.470638
  time 11
    0 1.000000 0.335938 -8.640625 -1.570760 -1.391893 -1.570827
    1 2.033348 1.000767 1.937660 3.099206 -0.162014 1.679995
    2 6.028145 0.000003 0.000002 -2.363138 -0.329868 0.137328
    3 11.692553 0.000081 -0.000006 -0.163856 0.103020 -0.560106
    4 11.481674 -0.000089 -0.000023 -0.594746 0.291718 -0.105366
    5 3.281559 0.002116 -1.383388 0.099706 -0.198220 -1.489100
    6 1.324282 -0.000010 0.000006 0.000000 -0.035669 -0.863360
    7 0.818848 0.000000 0.000000 0.000000 0.000000 -0.523558
    8 3.711852 0.109255 -0.572073 0.028516 -0.144115 -1.489045
    9 1.610352 -0.000004 -0.000002 -0.001224 0.005114 -0.663150
    10 0.993193 -0.000004 0.000001 0.001475 0.002258 -0.454046
    11 3.786029 0.203223 0.243937 -0.026070 -0.102697 -1.196504
    12 1.684422 -0.000010 0.000009 0.001608 -0.003714 -0.665474
    13 1.256836 0.000002 0.000002 0.000000 0.000000 -0.807200
    14 3.594221 0.299550 1.109803 -0.089462 -0.077902 -0.471615
    15 1.723633 0.000006 0.000000 0.000000 0.000000 -1.243541
    16 1.001953 0.000002 -0.000002 0.000000 0.000000 0.144005
    17 0.298212 -0.634095 0.426700 -0.490323 -0.890147 -0.545400
    18 2.633559 0.000000 -0.000010 0.012666 0.036492 0.384930
    19 1.307617 0.000000 0.000000 0.000885 -0.017461 -0.010264
    20 2.033356 1.000772 -1.937610 -0.128177 0.172990 -2.038336
    21 6.028141 0.000000 -0.000002 -0.732362 0.862469 -2.425892
    22 11.692554 0.000000 -0.000003 0.026831 -0.047950 -1.022949
    23 11.481703 -0.000001 -0.000002 -0.630993 0.037013 0.359552
    24 2.914335 -0.023167 1.400148 -0.075459 -0.048649 -0.941140
    25 1.284180 -0.000002 -0.000001 0.000006 0.095135 -0.604945
    26 0.842285 0.000000 0.000001 -0.078529 0.054442 -1.209521
    27 3.368059 0.007376 0.622456 0.035972 -0.077320 -1.016265
    28 1.605515 0.000000 0.000001 0.000003 0.122000 -1.086904
    29 1.020534 -0.000002 -0.000002 0.015301 -0.014044 -1.343737
    30 3.551622 0.023918 -0.200567 0.012608 -0.103497 -0.905347
    31 1.666992 0.000004 0.000001 -0.000008 0.157406 -1.208295
    32 1.240434 0.000002 0.000006 0.000002 -0.000011 -1.483401
    33 3.449664 0.054212 -1.089087 0.053350 0.070642 -0.350295
    34 1.711618 0.000008 0.000011 0.000003 -0.013394 -0.425595
    35 1.002005 0.000000 0.000007 0.029079 -0.033335 -1.240327
    36 0.075532 -0.738750 -0.759723 1.293541 0.406469 -0.475804
    37 2.508555 -0.000006 -0.000004 -0.000002 -0.000001 0.359162
    38 1.324192 0.050781 -0.113290 0.025663 0.040518 0.530193
    39 -6.162324 -18.654553 -10.538263 1.562134 0.001081 -3.141286
    40 0.000000 2.820313 -1.550776 -0.284372 0.000000 0.000000
    41 0.000000 2.738285 -4.027338 0.000000 0.000000 0.000000
    42 0.000000 2.919929 -5.820309 0.000000 0.000000 0.000000
    43 -0.642666 3.299407 -1.091387 0.000000 0.000000 0.000000
    44 -0.240766 6.016356 -14.297569 0.000007 -0.000002 -0.470638
  time 12
    0 1.000000 0.335938 -8.640625 -1.570760 -1.391893 -1.570827
    1 2.033348 1.000767 1.937660 3.099206 -0.162014 1.679995
    2 6.028145 0.000003 0.000002 -2.364503 -0.333099 0.140865
    3 11.692553 0.000081 -0.000006 -0.163312 0.102121 -0.554527
    4 11.481674 -0.000089 -0.000023 -0.602936 0.291327 -0.114352
    5 3.281559 0.002116 -1.379481 0.099706 -0.198220 -1.489100
    6 1.324282 -0.000010 0.000006 0.000000 -0.035669 -0.863360
    7 0.818848 0.000000 0.000000 0.000000 0.000000 -0.523558
    8 3.711852 0.109255 -0.568167 0.028516 -0.144115 -1.489045
    9 1.610352 -0.000004 -0.000002 -0.001224 0.005114 -0.663150
    10 0.993193 -0.000004 0.000001 0.001475 0.002258 -0.454046
    11 3.786029 0.203223 0.243937 -0.026058 -0.102697 -1.196526
    12 1.684422 -0.000010 0.000009 0.001620 -0.003714 -0.665474
    13 1.256836 0.000002 0.000002 0.000000 0.000000 -0.807200
    14 3.594221 0.299550 1.113709 -0.089462 -0.077902 -0.471615
    15 1.723633 0.000006 0.000000 0.000000 0.000000 -1.243541
    16 1.001953 0.000002 -0.000002 0.000000 0.000000 0.144005
    17 0.298212 -0.634095 0.430606 -0.499270 -0.882243 -0.539568
    18 2.633559 0.000000 -0.000010 0.012666 0.036492 0.384930
    19 1.307617 0.000000 0.000000 0.000885 -0.017461 -0.010264
    20 2.033356 1.000772 -1.937610 -0.128177 0.172990 -2.038336
    21 6.028141 0.000000 -0.000002 -0.736345 0.860777 -2.432440
    22 11.692554 0.000000 -0.000003 0.026628 -0.047855 -1.018565
    23 11.481703 -0.000001 -0.000002 -0.631378 0.035482 0.358323
    24 2.910429 -0.023167 1.400148 -0.075227 -0.048900 -0.940817
    25 1.284180 -0.000002 -0.000001 0.000006 0.095135 -0.604945
    26 0.842285 0.000000 0.000001 -0.078529 0.054442 -1.209521
    27 3.364152 0.007376 0.622456 0.036223 -0.077560 -1.015951
    28 1.605515 0.000000 0.000001 0.000003 0.122000 -1.086904
    29 1.020534 -0.000002 -0.000002 0.015301 -0.014044 -1.343737
    30 3.551622 0.023918 -0.200567 0.012824 -0.103761 -0.905025
    31 1.666992 0.000004 0.000001 -0.000008 0.157406 -1.208295
    32 1.240434 0.000002 0.000006 0.000002 -0.000011 -1.483401
    33 3.449664 0.054212 -1.089087 0.053400 0.070294 -0.349933
    34 1.711618 0.000008 0.000011 0.000003 -0.012435 -0.405563
    35 1.002005 0.000000 0.000007 0.023578 -0.030746 -1.114253
    36 0.075532 -0.738750 -0.763630 1.293637 0.406146 -0.475420
    37 2.508555 -0.000006 -0.000004 -0.000002 -0.000001 0.359162
    38 1.324192 0.050781 -0.113290 0.025663 0.040518 0.530193
    39 -6.154512 -18.689711 -10.475761 1.562853 0.000176 -3.140973
    40 0.000000 2.820313 -1.550776 -0.228991 0.000000 0.000000
    41 0.000000 2.738285 -4.027338 0.000000 0.000000 0.000000
    42 0.000000 2.919929 -5.820309 0.000000 0.000000 0.000000
    43 -0.642666 3.299407 -1.091387 0.000000 0.000000 0.000000
    44 -0.240766 6.016356 -14.297569 0.000007 -0.000002 -0.470638
  time 13
    0 1.000000 0.335938 -8.640625 -1.570760 -1.391893 -1.570827
    1 2.033348 1.000767 1.937660 3.099206 -0.162014 1.679995
    2 6.028145 0.000003 0.000002 -2.367461 -0.338789 0.148019
    3 11.692553 0.000081 -0.000006 -0.162044 0.100083 -0.542137
    4 11.481674 -0.000089 -0.000023 -0.611469 0.292927 -0.117012
    5 3.285465 0.002116 -1.379481 0.099914 -0.198496 -1.489100
    6 1.324282 -0.000010 0.000006 0.000000 -0.035681 -0.863360
    7 0.818848 0.000000 0.000000 0.000000 0.000000 -0.523558
    8 3.711852 0.109255 -0.568167 0.028720 -0.144390 -1.489023
    9 1.610352 -0.000004 -0.000002 -0.001224 0.005114 -0.663150
    10 0.993193 -0.000004 0.000001 0.001475 0.002258 -0.454046
    11 3.786029 0.203223 0.243937 -0.025950 -0.103020 -1.196504
    12 1.684422 -0.000010 0.000009 0.001608 -0.003714 -0.665474
    13 1.256836 0.000002 0.000002 0.000000 0.000000 -0.807200
    14 3.594221 0.299550 1.113709 -0.089578 -0.078225 -0.471572
    15 1.723633 0.000006 0.000000 0.000000 0.000000 -1.243541
    16 1.001953 0.000002 -0.000002 0.000000 0.000000 0.144005
    17 0.298212 -0.630189 0.426700 -0.507825 -0.875014 -0.533955
    18 2.633559 0.000000 -0.000010 0.012666 0.036504 0.384930
    19 1.307617 0.000000 0.000000 0.000885 -0.017461 -0.010264
    20 2.033356 1.000772 -1.937610 -0.128177 0.172990 -2.038336
    21 6.028141 0.000000 -0.000002 -0.739517 0.859890 -2.438147
    22 11.692554 0.000000 -0.000003 0.026484 -0.047747 -1.015761
    23 11.481703 -0.000001 -0.000002 -0.630993 0.035022 0.358131
    24 2.914335 -0.023167 1.400148 -0.075459 -0.048649 -0.941140
    25 1.284180 -0.000002 -0.000001 0.000006 0.095135 -0.604945
    26 0.842285 0.000000 0.000001 -0.078529 0.054442 -1.209521
    27 3.368059 0.007376 0.618550 0.035972 -0.077320 -1.016265
    28 1.605515 0.000000 0.000001 0.000003 0.122000 -1.086904
    29 1.020534 -0.000002 -0.000002 0.015301 -0.014044 -1.343737
    30 3.551622 0.023918 -0.200567 0.012608 -0.103497 -0.905347
    31 1.666992 0.000004 0.000001 -0.000008 0.157406 -1.208295
    32 1.240434 0.000002 0.000006 0.000002 -0.000011 -1.483401
    33 3.449664 0.054212 -1.089087 0.053250 0.033789 -0.352289
    34 1.711618 0.000008 0.000011 0.000003 -0.011249 -0.381080
    35 1.002005 0.000000 0.000007 0.018137 -0.025832 -0.959959
    36 0.075532 -0.738750 -0.755817 1.293529 0.406469 -0.475804
    37 2.512462 -0.000006 -0.000004 -0.000002 -0.000001 0.359162
    38 1.328098 0.050781 -0.113290 0.025663 0.040518 0.530193
    39 -6.154512 -18.705336 -10.413259 1.565034 0.000025 -3.141129
    40 0.000000 2.820313 -1.550776 -0.161199 0.000000 0.000000
    41 0.000000 2.738285 -4.027338 0.000000 0.000000 0.000000
    42 0.000000 2.919929 -5.820309 0.000000 0.000000 0.000000
    43 -0.642666 3.299407 -1.091387 0.000000 0.000000 0.000000
    44 -0.240766 6.016356 -14.297569 0.000007 -0.000002 -0.470638
  time 14
    0 1.000000 0.335938 -8.640625 -1.570760 -1.391893 -1.570827
    1 2.033348 1.000767 1.937660 3.099206 -0.162014 1.679995
    2 6.028145 0.000003 0.000002 -2.370646 -0.344094 0.155330
    3 11.692553 0.000081 -0.000006 -0.160884 0.098118 -0.530201
    4 11.481674 -0.000089 -0.000023 -0.621229 0.294331 -0.117737
    5 3.281559 0.002116 -1.383388 0.099706 -0.198220 -1.489100
    6 1.324282 -0.000010 0.000006 0.000000 -0.035681 -0.863360
    7 0.818848 0.000000 0.000000 0.000000 0.000000 -0.523558
    8 3.711852 0.109255 -0.568167 0.028516 -0.144115 -1.489045
    9 1.610352 -0.000004 -0.000002 -0.001224 0.005114 -0.663150
    10 0.993193 -0.000004 0.000001 0.001475 0.002258 -0.454046
    11 3.786029 0.203223 0.243937 -0.026082 -0.102697 -1.196504
    12 1.684422 -0.000010 0.000009 0.001620 -0.003714 -0.665474
    13 1.256836 0.000002 0.000002 0.000000 0.000000 -0.807200
    14 3.594221 0.299550 1.113709 -0.089462 -0.077902 -0.471615
    15 1.723633 0.000006 0.000000 0.000000 0.000000 -1.243541
    16 1.001953 0.000002 -0.000002 0.000000 0.000000 0.144005
    17 0.298212 -0.634095 0.430606 -0.514605 -0.868341 -0.529628
    18 2.633559 0.000000 -0.000010 0.012666 0.036504 0.384930
    19 1.307617 0.000000 0.000000 0.000885 -0.017461 -0.010264
    20 2.033356 1.000772 -1.937610 -0.128177 0.172990 -2.038336
    21 6.028141 0.000000 -0.000002 -0.742319 0.859407 -2.443313
    22 11.692554 0.000000 -0.000003 0.026388 -0.047711 -1.013569
    23 11.481703 -0.000001 -0.000002 -0.630340 0.034992 0.357339
    24 2.914335 -0.027074 1.396242 -0.075443 -0.048637 -0.941140
    25 1.284180 -0.000002 -0.000001 0.000006 0.095135 -0.604945
    26 0.842285 0.000000 0.000001 -0.078529 0.054442 -1.209521
    27 3.368059 0.007376 0.618550 0.035972 -0.077320 -1.016265
    28 1.605515 0.000000 0.000001 0.000003 0.122000 -1.086904
    29 1.020534 -0.000002 -0.000002 0.015301 -0.014044 -1.343737
    30 3.551622 0.023918 -0.200567 0.012608 -0.103497 -0.905347
    31 1.666992 0.000004 0.000001 -0.000008 0.157406 -1.208295
    32 1.240434 0.000002 0.000006 0.000002 -0.000011 -1.483478
    33 3.449664 0.054212 -1.089087 0.053225 -0.011680 -0.354690
    34 1.711618 0.000008 0.000011 0.000003 -0.009931 -0.353967
    35 1.005912 0.000000 0.000007 0.012240 -0.020163 -0.788903
    36 0.075532 -0.738750 -0.759723 1.293541 0.406469 -0.475804
    37 2.508555 -0.000006 -0.000004 -0.000002 -0.000001 0.359162
    38 1.324192 0.050781 -0.113290 0.025663 0.040518 0.530193
    39 -6.162324 -18.724868 -10.346851 1.567685 0.000000 -3.141364
    40 0.000000 2.820313 -1.550776 -0.086043 0.000000 0.000000
    41 0.000000 2.738285 -4.027338 0.000000 0.000000 0.000000
    42 0.000000 2.919929 -5.820309 0.000000 0.000000 0.000000
    43 -0.642666 3.299407 -1.091387 0.000000 0.000000 0.000000
    44 -0.240766 6.016356 -14.297569 0.000007 -0.000002 -0.470638
  time 15
    0 1.000000 0.335938 -8.640625 -1.570760 -1.391893 -1.570827
    1 2.033348 1.000767 1.937660 3.099206 -0.162014 1.679995
    2 6.028145 0.000003 0.000002 -2.373452 -0.349109 0.161855
    3 11.692553 0.000081 -0.000006 -0.159760 0.096188 -0.518719
    4 11.481674 -0.000089 -0.000023 -0.628942 0.295930 -0.118785
    5 3.281559 0.002116 -1.383388 0.099706 -0.198220 -1.489100
    6 1.324282 -0.000010 0.000006 0.000000 -0.035681 -0.863360
    7 0.818848 0.000000 0.000000 0.000000 0.000000 -0.523558
    8 3.711852 0.109255 -0.572073 0.028504 -0.144115 -1.489001
    9 1.610352 -0.000004 -0.000002 -0.001224 0.005114 -0.663150
    10 0.993193 -0.000004 0.000001 0.001475 0.002258 -0.454046
    11 3.786029 0.203223 0.243937 -0.026082 -0.102697 -1.196504
    12 1.684422 -0.000010 0.000009 0.001620 -0.003714 -0.665474
    13 1.256836 0.000002 0.000002 0.000000 0.000000 -0.807200
    14 3.594221 0.299550 1.109803 -0.089462 -0.077902 -0.471615
    15 1.723633 0.000006 0.000000 0.000000 0.000000 -1.243541
    16 1.001953 0.000002 -0.000002 0.000000 0.000000 0.144005
    17 0.298212 -0.634095 0.426700 -0.519355 -0.863909 -0.526589
    18 2.633559 0.000000 -0.000010 0.012666 0.036492 0.384930
    19 1.307617 0.000000 0.000000 0.000885 -0.017461 -0.010264
    20 2.033356 1.000772 -1.937610 -0.128177 0.172990 -2.038336
    21 6.028141 0.000000 -0.000002 -0.744532 0.859246 -2.447458
    22 11.692554 0.000000 -0.000003 0.026328 -0.047675 -1.012294
    23 11.481703 -0.000001 -0.000002 -0.629725 0.034808 0.357175
    24 2.914335 -0.027074 1.396242 -0.075459 -0.048637 -0.941140
    25 1.284180 -0.000002 -0.000001 0.000006 0.095135 -0.604945
    26 0.842285 0.000000 0.000001 -0.078529 0.054442 -1.209521
    27 3.368059 0.007376 0.618550 0.035984 -0.077320 -1.016265
    28 1.605515 0.000000 0.000001 0.000003 0.122000 -1.086904
    29 1.020534 -0.000002 -0.000002 0.015301 -0.014044 -1.343737
    30 3.555528 0.023918 -0.200567 0.012608 -0.103497 -0.905347
    31 1.666992 0.000004 0.000001 -0.000008 0.157406 -1.208295
    32 1.240434 0.000002 0.000006 0.000002 -0.000011 -1.483401
    33 3.449664 0.054212 -1.089087 0.053288 -0.050283 -0.356728
    34 1.711618 0.000008 0.000011 0.000003 -0.008864 -0.331963
    35 1.002005 0.000000 0.000007 0.007530 -0.015477 -0.650177
    36 0.075532 -0.738750 -0.759723 1.293541 0.406469 -0.475804
    37 2.508555 -0.000006 -0.000004 -0.000002 -0.000001 0.359162
    38 1.324192 0.050781 -0.113290 0.025663 0.040518 0.530193
    39 -6.162324 -18.736587 -10.292162 1.569891 0.000000 -3.141521
    40 0.000000 2.820313 -1.550776 -0.025092 0.000000 0.000000
    41 0.000000 2.738285 -4.027338 0.000000 0.000000 0.000000
    42 0.000000 2.919929 -5.820309 0.000000 0.000000 0.000000
    43 -0.642666 3.299407 -1.091387 0.000000 0.000000 0.000000
    44 -0.240766 6.016356 -14.297569 0.000007 -0.000002 -0.470638
  time 16
    0 1.000000 0.335938 -8.640625 -1.570760 -1.391893 -1.570827
    1 2.033348 1.000767 1.937660 3.099206 -0.162014 1.679995
    2 6.028145 0.000003 0.000002 -2.374514 -0.351231 0.164528
    3 11.692553 0.000081 -0.000006 -0.159217 0.095302 -0.513465
    4 11.481674 -0.000089 -0.000023 -0.631672 0.296905 -0.120115
    5 3.285465 0.002116 -1.383388 0.100087 -0.198867 -1.489007
    6 1.324282 -0.000010 0.000006 0.000000 -0.035681 -0.863360
    7 0.818848 0.000000 0.000000 0.000000 0.000000 -0.523558
    8 3.711852 0.105348 -0.572073 0.028900 -0.144762 -1.488891
    9 1.610352 -0.000004 -0.000002 -0.001224 0.005114 -0.663150
    10 0.993193 -0.000004 0.000001 0.001475 0.002258 -0.454046
    11 3.789935 0.203223 0.240031 -0.025878 -0.103428 -1.196374
    12 1.684422 -0.000010 0.000009 0.001608 -0.003714 -0.665474
    13 1.256836 0.000002 0.000002 0.000000 0.000000 -0.807200
    14 3.594221 0.299550 1.109803 -0.089808 -0.078573 -0.471422
    15 1.723633 0.000006 0.000000 0.000000 0.000000 -1.243541
    16 1.001953 0.000002 -0.000002 0.000000 0.000000 0.144005
    17 0.298212 -0.634095 0.426700 -0.521592 -0.862948 -0.524919
    18 2.633559 0.000000 -0.000010 0.012666 0.036504 0.384930
    19 1.307617 0.000000 0.000000 0.000885 -0.017461 -0.010264
    20 2.033356 1.000772 -1.937610 -0.128177 0.172990 -2.038336
    21 6.028141 0.000000 -0.000002 -0.745344 0.859044 -2.448899
    22 11.692554 0.000000 -0.000003 0.026292 -0.047651 -1.011581
    23 11.481703 -0.000001 -0.000002 -0.629571 0.034992 0.356766
    24 2.914335 -0.027074 1.396242 -0.075443 -0.048637 -0.941140
    25 1.284180 -0.000002 -0.000001 0.000006 0.095135 -0.604945
    26 0.842285 0.000000 0.000001 -0.078529 0.054442 -1.209521
    27 3.368059 0.007376 0.618550 0.035972 -0.077320 -1.016265
    28 1.605515 0.000000 0.000001 0.000003 0.122000 -1.086904
    29 1.020534 -0.000002 -0.000002 0.015301 -0.014044 -1.343737
    30 3.551622 0.023918 -0.204473 0.012608 -0.103497 -0.905347
    31 1.666992 0.000004 0.000001 -0.000008 0.157406 -1.208295
    32 1.240434 0.000002 0.000006 0.000002 -0.000011 -1.483401
    33 3.449664 0.054212 -1.089087 0.053337 -0.066582 -0.357634
    34 1.711618 0.000008 0.000011 0.000003 -0.008421 -0.322908
    35 1.005912 0.000000 0.000007 0.005613 -0.013536 -0.593036
    36 0.075532 -0.738750 -0.759723 1.293541 0.406469 -0.475804
    37 2.508555 -0.000006 -0.000004 -0.000002 -0.000001 0.359162
    38 1.324192 0.050781 -0.113290 0.025663 0.040518 0.530193
    39 -6.162324 -18.740494 -10.272630 1.570783 0.000000 -3.141599
    40 0.000000 2.820313 -1.550776 0.000000 0.000000 0.000000
    41 0.000000 2.738285 -4.027338 0.000000 0.000000 0.000000
    42 0.000000 2.919929 -5.820309 0.000000 0.000000 0.000000
    43 -0.642666 3.299407 -1.091387 0.000000 0.000000 0.000000
    44 -0.240766 6.016356 -14.297569 0.000007 -0.000002 -0.470638
end
