// Created by Crowbar++ 0.74
version 1
nodes
  0 "ValveBiped.Bip01_Spine4" -1
  1 "ValveBiped.Bip01_L_Clavicle" 0
  2 "ValveBiped.Bip01_L_UpperArm" 1
  3 "ValveBiped.Bip01_L_Forearm" 2
  4 "ValveBiped.Bip01_L_Hand" 3
  5 "ValveBiped.Bip01_L_Finger4" 4
  6 "ValveBiped.Bip01_L_Finger41" 5
  7 "ValveBiped.Bip01_L_Finger42" 6
  8 "ValveBiped.Bip01_L_Finger3" 4
  9 "ValveBiped.Bip01_L_Finger31" 8
  10 "ValveBiped.Bip01_L_Finger32" 9
  11 "ValveBiped.Bip01_L_Finger2" 4
  12 "ValveBiped.Bip01_L_Finger21" 11
  13 "ValveBiped.Bip01_L_Finger22" 12
  14 "ValveBiped.Bip01_L_Finger1" 4
  15 "ValveBiped.Bip01_L_Finger11" 14
  16 "ValveBiped.Bip01_L_Finger12" 15
  17 "ValveBiped.Bip01_L_Finger0" 4
  18 "ValveBiped.Bip01_L_Finger01" 17
  19 "ValveBiped.Bip01_L_Finger02" 18
  20 "ValveBiped.Bip01_R_Clavicle" 0
  21 "ValveBiped.Bip01_R_UpperArm" 20
  22 "ValveBiped.Bip01_R_Forearm" 21
  23 "ValveBiped.Bip01_R_Hand" 22
  24 "ValveBiped.Bip01_R_Finger4" 23
  25 "ValveBiped.Bip01_R_Finger41" 24
  26 "ValveBiped.Bip01_R_Finger42" 25
  27 "ValveBiped.Bip01_R_Finger3" 23
  28 "ValveBiped.Bip01_R_Finger31" 27
  29 "ValveBiped.Bip01_R_Finger32" 28
  30 "ValveBiped.Bip01_R_Finger2" 23
  31 "ValveBiped.Bip01_R_Finger21" 30
  32 "ValveBiped.Bip01_R_Finger22" 31
  33 "ValveBiped.Bip01_R_Finger1" 23
  34 "ValveBiped.Bip01_R_Finger11" 33
  35 "ValveBiped.Bip01_R_Finger12" 34
  36 "ValveBiped.Bip01_R_Finger0" 23
  37 "ValveBiped.Bip01_R_Finger01" 36
  38 "ValveBiped.Bip01_R_Finger02" 37
  39 "v_weapon.ump45_Parent" -1
  40 "v_weapon.ump45_Trigger" 39
  41 "v_weapon.ump45_Release" 39
  42 "v_weapon.ump45_Clip" 39
  43 "v_weapon.ump45_Eject" 39
  44 "v_weapon.ump45_Bolt" 39
end
skeleton
  time 0
    0 1.000000 -4.351563 -9.648438 -1.570781 -1.130097 -1.570808
    1 2.033348 1.000767 1.937660 3.099206 -0.162014 1.679995
    2 6.028145 0.000003 0.000002 -3.005766 0.534373 -1.018966
    3 11.770680 0.027426 0.015620 0.111418 0.152959 -0.828437
    4 11.567611 -0.062591 -0.257842 1.593352 0.667796 0.445847
    5 2.984676 -0.060384 -1.383388 -0.065167 -0.217630 0.201772
    6 1.324282 -0.000010 0.000006 0.000000 0.192692 -0.402714
    7 0.819210 0.000000 0.000002 0.037703 -0.068159 -0.490770
    8 3.426689 0.046753 -0.579886 -0.154937 -0.190112 0.247133
    9 1.609408 0.000006 -0.000006 -0.000002 0.167658 -0.493844
    10 0.993190 -0.000006 0.000002 0.016524 0.020043 -0.355491
    11 3.512585 0.140720 0.232218 -0.132179 -0.309626 0.299408
    12 1.684422 -0.000008 0.000009 0.000002 0.196297 -0.330049
    13 1.252155 -0.000008 0.000004 -0.013436 0.008748 -0.538904
    14 3.332496 0.237048 1.101991 -0.122485 -0.398101 0.398982
    15 1.719435 0.000000 -0.000004 -0.000004 0.293909 -0.396964
    16 1.005859 0.000000 -0.000003 0.013705 0.022046 -0.156759
    17 0.024768 -0.688784 0.473576 -1.722175 -0.753567 -0.015847
    18 2.637464 0.000000 -0.000006 -0.000002 0.016282 0.043797
    19 1.308568 0.000001 -0.000002 0.005599 0.104205 -0.192891
    20 2.033356 1.000772 -1.937610 -0.128177 0.172990 -2.038336
    21 6.028141 0.000000 -0.000002 -0.304229 0.928774 -1.695599
    22 11.563644 0.042970 -0.000003 0.044677 -0.040879 -1.709524
    23 11.411390 0.023437 0.082029 -1.505326 -0.599278 0.578653
    24 2.722927 0.004182 1.388428 -0.119935 0.023810 -0.638980
    25 1.285216 -0.000008 0.000000 0.000002 0.073802 -0.492011
    26 0.838746 -0.000002 0.000002 -0.008940 0.065103 -1.181947
    27 3.184463 0.034724 0.610737 0.039531 -0.016175 -0.463689
    28 1.605513 -0.000002 0.000001 0.000003 0.022768 -1.242398
    29 1.020536 -0.000004 -0.000001 0.067818 -0.007225 -1.146347
    30 3.375835 0.055168 -0.212285 0.043349 0.116468 -0.510269
    31 1.668799 0.000000 0.000006 0.000002 -0.011268 -1.234285
    32 1.236531 0.000008 0.000005 -0.010053 -0.051628 -1.310945
    33 3.277788 0.085466 -1.089088 0.064117 0.291193 -0.265185
    34 1.711616 0.000004 0.000010 0.000003 -0.274586 -0.110838
    35 1.005910 0.000006 0.000008 0.001382 0.029045 -0.755495
    36 -0.096345 -0.707497 -0.787068 1.322915 0.531583 -0.366006
    37 2.512460 -0.000008 -0.000004 -0.000002 -0.000001 0.359147
    38 1.332003 -0.082036 0.039058 -0.038443 -0.076020 0.467717
    39 -2.551419 -13.613205 -20.652569 0.709249 -0.144325 4.191204
    40 0.156010 3.699208 -1.304714 -0.000013 0.000002 0.000000
    41 0.135008 2.974574 -4.394554 -0.000003 0.000002 0.000000
    42 0.179075 3.964799 -5.582058 -0.000016 0.000002 0.000000
    43 0.247072 5.746066 -3.626993 0.000000 0.000000 0.000000
    44 0.304680 6.812409 -11.546934 -0.000006 0.000002 0.000000
  time 1
    0 1.000000 -4.351563 -9.648438 -1.570781 -1.130097 -1.570808
    1 2.033348 1.000767 1.937660 3.099206 -0.162014 1.679995
    2 6.028145 0.000003 0.000002 -3.005766 0.534373 -1.018966
    3 11.770680 0.027426 0.015620 0.111418 0.152959 -0.828437
    4 11.567611 -0.062591 -0.257842 1.593352 0.667796 0.445847
    5 2.984676 -0.060384 -1.383388 -0.065167 -0.217630 0.201772
    6 1.324282 -0.000010 0.000006 0.000000 0.192692 -0.402714
    7 0.819210 0.000000 0.000002 0.037703 -0.068159 -0.490770
    8 3.426689 0.046753 -0.579886 -0.154937 -0.190112 0.247133
    9 1.609408 0.000006 -0.000006 -0.000002 0.167658 -0.493844
    10 0.993190 -0.000006 0.000002 0.016524 0.020043 -0.355491
    11 3.512585 0.140720 0.232218 -0.132179 -0.309626 0.299408
    12 1.684422 -0.000008 0.000009 0.000002 0.196297 -0.330049
    13 1.252155 -0.000008 0.000004 -0.013436 0.008748 -0.538904
    14 3.332496 0.237048 1.101991 -0.122485 -0.398101 0.398982
    15 1.719435 0.000000 -0.000004 -0.000004 0.293909 -0.396964
    16 1.005859 0.000000 -0.000003 0.013705 0.022046 -0.156759
    17 0.024768 -0.688784 0.473576 -1.722175 -0.753567 -0.015847
    18 2.637464 0.000000 -0.000006 -0.000002 0.016282 0.043797
    19 1.308568 0.000001 -0.000002 0.005599 0.104205 -0.192891
    20 2.033356 1.000772 -1.937610 -0.128177 0.172990 -2.038336
    21 6.028141 0.000000 -0.000002 -0.304229 0.928774 -1.695599
    22 11.563644 0.042970 -0.000003 0.044665 -0.040903 -1.709172
    23 11.411390 0.023437 0.082029 -1.504676 -0.599627 0.577620
    24 2.722927 0.004182 1.388428 -0.119822 0.023235 -0.638607
    25 1.285216 -0.000008 0.000000 0.000002 0.073802 -0.492011
    26 0.838746 -0.000002 0.000002 -0.008940 0.065103 -1.181947
    27 3.184463 0.034724 0.610737 0.039543 -0.016762 -0.463315
    28 1.605513 -0.000002 0.000001 0.000003 0.022768 -1.242398
    29 1.020536 -0.000004 -0.000001 0.067818 -0.007225 -1.146347
    30 3.371929 0.055168 -0.212285 0.043373 0.115881 -0.509908
    31 1.668799 0.000000 0.000006 0.000002 -0.011268 -1.234285
    32 1.236531 0.000008 0.000005 -0.010053 -0.051628 -1.310945
    33 3.277788 0.085466 -1.096900 0.064002 0.290607 -0.264841
    34 1.711616 0.000004 0.000010 0.000003 -0.274586 -0.110838
    35 1.005910 0.000006 0.000008 0.001382 0.029045 -0.755495
    36 -0.096345 -0.707497 -0.790974 1.322856 0.531002 -0.365661
    37 2.512460 -0.000008 -0.000004 -0.000002 -0.000001 0.359147
    38 1.332003 -0.082036 0.039058 -0.038443 -0.076020 0.467717
    39 -2.551419 -13.613205 -20.652569 0.709249 -0.144325 4.191204
    40 0.156010 3.699208 -1.304714 -0.000013 0.000002 0.000000
    41 0.135008 2.974574 -4.394554 -0.000003 0.000002 0.000000
    42 0.179075 3.964799 -5.582058 -0.000016 0.000002 0.000000
    43 0.247072 5.746066 -3.626993 0.000000 0.000000 0.000000
    44 0.304680 6.812409 -11.546934 -0.000006 0.000002 0.000000
  time 2
    0 1.000000 -4.351563 -9.648438 -1.570781 -1.130097 -1.570808
    1 2.033348 1.000767 1.937660 3.099206 -0.162014 1.679995
    2 6.028145 0.000003 0.000002 -3.007604 0.536704 -1.021717
    3 11.770680 0.027426 0.015620 0.113863 0.150802 -0.812992
    4 11.567611 -0.066497 -0.257842 1.603480 0.672361 0.442701
    5 2.984676 -0.060384 -1.379481 -0.063168 -0.218156 0.193494
    6 1.324282 -0.000010 0.000006 -0.001870 0.193207 -0.410229
    7 0.819210 0.000000 0.000002 0.036696 -0.068471 -0.476867
    8 3.426689 0.046753 -0.575980 -0.153176 -0.191446 0.238736
    9 1.609408 0.000006 -0.000006 -0.001296 0.168270 -0.500486
    10 0.993190 -0.000006 0.000002 0.016676 0.019887 -0.347644
    11 3.512585 0.140720 0.236125 -0.129649 -0.310718 0.292739
    12 1.684422 -0.000008 0.000009 -0.002838 0.196920 -0.341962
    13 1.252155 -0.000008 0.000004 -0.013337 0.008904 -0.523827
    14 3.332496 0.237048 1.105897 -0.120443 -0.399169 0.394205
    15 1.719435 0.000000 -0.000004 -0.003599 0.294950 -0.405119
    16 1.005859 0.000000 -0.000003 0.013705 0.022046 -0.156759
    17 0.024768 -0.688784 0.477483 -1.732734 -0.756594 -0.003704
    18 2.633557 0.000000 -0.000006 0.000214 0.016237 0.057262
    19 1.308568 0.000001 -0.000002 0.006545 0.105404 -0.184975
    20 2.033356 1.000772 -1.937610 -0.128177 0.172990 -2.038336
    21 6.028141 0.000000 -0.000002 -0.386012 0.924075 -1.815168
    22 11.567551 0.039064 -0.000003 0.043945 -0.040963 -1.690802
    23 11.415296 0.019531 0.082029 -1.413639 -0.585769 0.554987
    24 2.722927 0.004182 1.392334 -0.120572 0.027394 -0.633938
    25 1.285216 -0.000008 0.000000 0.000002 0.071801 -0.497572
    26 0.838746 -0.000002 0.000002 -0.008940 0.065103 -1.181947
    27 3.184463 0.034724 0.614643 0.039483 -0.013466 -0.459237
    28 1.605513 -0.000002 0.000001 0.000003 0.022180 -1.247646
    29 1.020536 -0.000004 -0.000001 0.067818 -0.007225 -1.146323
    30 3.371929 0.055168 -0.208379 0.043589 0.119033 -0.506242
    31 1.668799 0.000000 0.000006 0.000002 -0.011471 -1.238744
    32 1.236531 0.000008 0.000005 -0.010053 -0.051628 -1.310945
    33 3.277788 0.085466 -1.092994 0.064384 0.294040 -0.260266
    34 1.711616 0.000004 0.000010 0.000003 -0.277822 -0.115105
    35 1.005910 0.000006 0.000008 0.001394 0.029045 -0.755495
    36 -0.096345 -0.707497 -0.790974 1.324126 0.533013 -0.362726
    37 2.512460 -0.000008 -0.000004 -0.000002 -0.000001 0.359159
    38 1.332003 -0.082036 0.039058 -0.039449 -0.077722 0.468504
    39 -1.902962 -14.464793 -19.883014 0.776963 -0.145400 4.153987
    40 0.156010 3.699208 -1.304714 -0.000013 0.000002 0.000000
    41 0.135008 2.974574 -4.394554 -0.000003 0.000002 0.000000
    42 0.179075 3.964799 -5.582058 -0.000016 0.000002 0.000000
    43 0.247072 5.746066 -3.626993 0.000000 0.000000 0.000000
    44 0.304680 6.812409 -11.546934 -0.000006 0.000002 0.000000
  time 3
    0 1.000000 -4.351563 -9.648438 -1.570781 -1.130097 -1.570808
    1 2.033348 1.000767 1.937660 3.099206 -0.162014 1.679995
    2 6.028145 0.000003 0.000002 -3.011739 0.542330 -1.027447
    3 11.774586 0.031332 0.019526 0.120310 0.144582 -0.771010
    4 11.571517 -0.070404 -0.257842 1.629827 0.683600 0.433699
    5 2.984676 -0.064291 -1.383388 -0.057172 -0.219787 0.168031
    6 1.324282 -0.000010 0.000006 -0.007467 0.194576 -0.433272
    7 0.815304 0.000000 0.000002 0.033619 -0.069358 -0.435320
    8 3.426689 0.046753 -0.575980 -0.147825 -0.195523 0.212648
    9 1.609408 0.000006 -0.000006 -0.005299 0.169924 -0.520865
    10 0.993190 -0.000006 0.000002 0.017080 0.019456 -0.324214
    11 3.516491 0.136814 0.236125 -0.121882 -0.313966 0.271811
    12 1.684422 -0.000008 0.000009 -0.011323 0.198538 -0.377783
    13 1.252155 -0.000008 0.000004 -0.012742 0.009395 -0.478732
    14 3.336402 0.237048 1.105897 -0.114174 -0.402263 0.379469
    15 1.719435 0.000000 -0.000004 -0.014445 0.297772 -0.430356
    16 1.005859 0.000000 -0.000003 0.013705 0.022046 -0.156759
    17 0.028674 -0.688784 0.477483 -1.762700 -0.764575 0.030555
    18 2.633557 0.000000 -0.000006 0.000873 0.016101 0.098194
    19 1.308568 0.000001 -0.000002 0.009398 0.108699 -0.161001
    20 2.033356 1.000772 -1.937610 -0.128177 0.172990 -2.038336
    21 6.028141 0.000000 -0.000002 -0.496963 0.939796 -2.026581
    22 11.571457 0.039064 -0.000003 0.043226 -0.041011 -1.672533
    23 11.423109 0.003905 0.085936 -1.229345 -0.595928 0.490084
    24 2.722927 0.004182 1.392334 -0.122933 0.040001 -0.619624
    25 1.285216 -0.000008 0.000000 0.000002 0.065916 -0.515153
    26 0.842652 -0.000002 0.000002 -0.008940 0.065103 -1.181947
    27 3.184463 0.034724 0.614643 0.039279 -0.003519 -0.446681
    28 1.605513 -0.000002 0.000001 0.000003 0.020551 -1.264446
    29 1.020536 -0.000004 -0.000001 0.067818 -0.007225 -1.146323
    30 3.371929 0.055168 -0.208379 0.044260 0.128621 -0.494940
    31 1.668799 0.000000 0.000006 0.000002 -0.011939 -1.253213
    32 1.236531 0.000008 0.000005 -0.010053 -0.051628 -1.310945
    33 3.277788 0.085466 -1.096900 0.065531 0.304463 -0.246012
    34 1.711616 0.000004 0.000010 0.000003 -0.287805 -0.128516
    35 1.005910 0.000006 0.000008 0.001382 0.029045 -0.755495
    36 -0.096345 -0.707497 -0.790974 1.328105 0.539260 -0.353620
    37 2.512460 -0.000008 -0.000004 -0.000002 -0.000001 0.359159
    38 1.332003 -0.078129 0.050777 -0.042565 -0.082959 0.471094
    39 -1.180283 -15.894524 -17.773575 0.912144 -0.139777 4.099455
    40 0.156010 3.699208 -1.304714 -0.000013 0.000002 0.000000
    41 0.135008 2.974574 -4.394554 -0.000003 0.000002 0.000000
    42 0.179075 3.964799 -5.582058 -0.000016 0.000002 0.000000
    43 0.247072 5.746066 -3.626993 0.000000 0.000000 0.000000
    44 0.304680 6.812409 -11.546934 -0.000006 0.000002 0.000000
  time 4
    0 1.000000 -4.351563 -9.648438 -1.570781 -1.130097 -1.570808
    1 2.033348 1.000767 1.937660 3.099206 -0.162014 1.679995
    2 6.028145 0.000003 0.000002 -3.015338 0.548760 -1.031115
    3 11.778493 0.035239 0.019526 0.129371 0.135090 -0.708910
    4 11.571517 -0.074310 -0.261748 1.667369 0.697909 0.421463
    5 2.984676 -0.064291 -1.383388 -0.047451 -0.222154 0.126495
    6 1.324282 -0.000010 0.000006 -0.016263 0.196331 -0.470414
    7 0.819210 0.000000 0.000002 0.028825 -0.070736 -0.370697
    8 3.426689 0.046753 -0.579886 -0.138719 -0.201892 0.169767
    9 1.609408 0.000006 -0.000006 -0.011615 0.172117 -0.553697
    10 0.993190 -0.000006 0.000002 0.017737 0.018773 -0.287793
    11 3.516491 0.136814 0.236125 -0.109257 -0.318865 0.237086
    12 1.684422 -0.000008 0.000009 -0.024375 0.200503 -0.434300
    13 1.252155 -0.000008 0.000004 -0.011948 0.010162 -0.408703
    14 3.336402 0.237048 1.105897 -0.104063 -0.406835 0.355448
    15 1.719435 0.000000 -0.000004 -0.031248 0.301319 -0.471537
    16 1.005859 0.000000 -0.000003 0.013705 0.022046 -0.156759
    17 0.028674 -0.688784 0.473576 -1.805709 -0.774643 0.078964
    18 2.637464 0.000000 -0.000006 0.001915 0.015851 0.163379
    19 1.308568 0.000001 -0.000002 0.013784 0.113206 -0.123204
    20 2.033356 1.000772 -1.937610 -0.128177 0.172990 -2.038336
    21 6.028141 0.000000 -0.000002 -0.577929 0.952926 -2.191006
    22 11.571457 0.039064 -0.000003 0.042771 -0.041023 -1.660756
    23 11.427016 -0.000001 0.089842 -1.086865 -0.610107 0.426374
    24 2.722927 0.004182 1.392334 -0.125613 0.054359 -0.603271
    25 1.285216 -0.000008 0.000000 0.000002 0.059421 -0.536258
    26 0.838746 -0.000002 0.000002 -0.008940 0.065103 -1.181947
    27 3.184463 0.034724 0.614643 0.039052 0.007674 -0.432170
    28 1.605513 -0.000002 0.000001 0.000003 0.018993 -1.285043
    29 1.020536 -0.000004 -0.000001 0.067818 -0.007225 -1.146323
    30 3.371929 0.055168 -0.212285 0.045039 0.139527 -0.481985
    31 1.668799 0.000000 0.000006 0.000002 -0.012215 -1.270818
    32 1.236531 0.000008 0.000005 -0.010053 -0.051628 -1.310945
    33 3.277788 0.085466 -1.092994 0.066869 0.316385 -0.229379
    34 1.711616 0.000004 0.000010 0.000003 -0.299442 -0.144366
    35 1.005910 0.000006 0.000008 0.001394 0.029045 -0.755495
    36 -0.096345 -0.707497 -0.790974 1.332791 0.546555 -0.343104
    37 2.508554 -0.000008 -0.000004 -0.000002 -0.000001 0.359159
    38 1.332003 -0.074223 0.054683 -0.046161 -0.088976 0.474533
    39 -0.758396 -16.761738 -15.914143 1.016723 -0.132179 4.077857
    40 0.156010 3.699208 -1.304714 -0.000013 0.000002 0.000000
    41 0.135008 2.974574 -4.394554 -0.000003 0.000002 0.000000
    42 0.179075 3.964799 -5.582058 -0.000016 0.000002 0.000000
    43 0.247072 5.746066 -3.626993 0.000000 0.000000 0.000000
    44 0.304680 6.812409 -11.546934 -0.000006 0.000002 0.000000
  time 5
    0 1.000000 -4.351563 -9.648438 -1.570781 -1.130097 -1.570808
    1 2.033348 1.000767 1.937660 3.099206 -0.162014 1.679995
    2 6.028145 0.000003 0.000002 -3.016486 0.553985 -1.029357
    3 11.782399 0.043051 0.019526 0.139438 0.123094 -0.634532
    4 11.575423 -0.078216 -0.261748 1.709327 0.711910 0.406868
    5 2.984676 -0.060384 -1.379481 -0.035186 -0.224653 0.073713
    6 1.324282 -0.000010 0.000006 -0.026786 0.197732 -0.516932
    7 0.815304 0.000000 0.000002 0.023084 -0.072366 -0.293760
    8 3.426689 0.046753 -0.575980 -0.126921 -0.209619 0.114623
    9 1.609408 0.000006 -0.000006 -0.019261 0.174046 -0.594756
    10 0.993190 -0.000006 0.000002 0.018495 0.017934 -0.244426
    11 3.512585 0.140720 0.236125 -0.093319 -0.324499 0.192057
    12 1.684422 -0.000008 0.000009 -0.039667 0.201929 -0.502851
    13 1.252155 -0.000008 0.000004 -0.011006 0.011073 -0.325262
    14 3.332496 0.237048 1.105897 -0.091316 -0.411819 0.324894
    15 1.719435 0.000000 -0.000004 -0.051166 0.304141 -0.524079
    16 1.005859 0.000000 -0.000003 0.013705 0.022046 -0.156759
    17 0.024768 -0.688784 0.477483 -1.849701 -0.783266 0.127650
    18 2.633557 0.000000 -0.000006 0.003198 0.015533 0.243637
    19 1.308568 0.000001 -0.000002 0.019009 0.117484 -0.077327
    20 2.033356 1.000772 -1.937610 -0.128177 0.172990 -2.038336
    21 6.028141 0.000000 -0.000002 -0.637734 0.966401 -2.319745
    22 11.575363 0.035157 -0.000003 0.042316 -0.041047 -1.649181
    23 11.430922 -0.011720 0.093749 -0.969105 -0.618282 0.363300
    24 2.719020 0.004182 1.392334 -0.128050 0.067338 -0.587992
    25 1.285216 -0.000008 0.000000 0.000002 0.053596 -0.556716
    26 0.838746 -0.000002 0.000002 -0.008940 0.065103 -1.181947
    27 3.184463 0.034724 0.610737 0.038836 0.017586 -0.418577
    28 1.605513 -0.000002 0.000001 0.000003 0.017842 -1.305111
    29 1.020536 -0.000004 -0.000001 0.067818 -0.007225 -1.146323
    30 3.371929 0.055168 -0.208379 0.045758 0.149294 -0.469829
    31 1.668799 0.000000 0.000006 0.000002 -0.012238 -1.288106
    32 1.236531 0.000008 0.000005 -0.010053 -0.051628 -1.310978
    33 3.277788 0.085466 -1.096900 0.068054 0.327135 -0.213661
    34 1.711616 0.000004 0.000010 0.000003 -0.310456 -0.159470
    35 1.005910 0.000006 0.000008 0.001382 0.029045 -0.755495
    36 -0.096345 -0.707497 -0.790974 1.337189 0.553170 -0.333177
    37 2.512460 -0.000008 -0.000004 -0.000002 -0.000001 0.359159
    38 1.332003 -0.066410 0.066403 -0.049492 -0.094573 0.478158
    39 -0.574796 -17.324256 -14.339876 1.101242 -0.126155 4.065719
    40 0.156010 3.699208 -1.304714 -0.000013 0.000002 0.000000
    41 0.135008 2.974574 -4.394554 -0.000003 0.000002 0.000000
    42 0.179075 3.964799 -5.582058 -0.000016 0.000002 0.000000
    43 0.247072 5.746066 -3.626993 0.000000 0.000000 0.000000
    44 0.304680 6.812409 -11.546934 -0.000006 0.000002 0.000000
  time 6
    0 1.000000 -4.351563 -9.648438 -1.570781 -1.130097 -1.570808
    1 2.033348 1.000767 1.937660 3.099206 -0.162014 1.679995
    2 6.028145 0.000003 0.000002 -3.014036 0.556677 -1.020647
    3 11.790212 0.050864 0.023432 0.148882 0.109623 -0.557460
    4 11.579330 -0.086029 -0.265655 1.748315 0.723495 0.390350
    5 2.984676 -0.064291 -1.379481 -0.022013 -0.226731 0.016662
    6 1.324282 -0.000010 0.000006 -0.037332 0.198182 -0.566543
    7 0.815304 0.000000 0.000002 0.017343 -0.073996 -0.217354
    8 3.426689 0.046753 -0.575980 -0.113761 -0.217422 0.054012
    9 1.609408 0.000006 -0.000006 -0.027063 0.175053 -0.638457
    10 0.993190 -0.000006 0.000002 0.019303 0.017119 -0.201322
    11 3.516491 0.136814 0.236125 -0.076141 -0.329778 0.141878
    12 1.684422 -0.000008 0.000009 -0.054504 0.202013 -0.572785
    13 1.252155 -0.000008 0.000004 -0.010064 0.011972 -0.242362
    14 3.336402 0.237048 1.105897 -0.077733 -0.416145 0.291770
    15 1.719435 0.000000 -0.000004 -0.070893 0.304986 -0.581287
    16 1.005859 0.000000 -0.000003 0.013705 0.022046 -0.156759
    17 0.028674 -0.688784 0.473576 -1.881220 -0.788541 0.162188
    18 2.633557 0.000000 -0.000006 0.004516 0.015192 0.327394
    19 1.308568 0.000001 -0.000002 0.024175 0.120157 -0.030404
    20 2.033356 1.000772 -1.937610 -0.128177 0.172990 -2.038336
    21 6.028141 0.000000 -0.000002 -0.686265 0.982191 -2.428579
    22 11.583176 0.031251 -0.000003 0.041369 -0.041059 -1.624872
    23 11.434828 -0.023439 0.093749 -0.861623 -0.611233 0.300809
    24 2.722927 0.004182 1.388428 -0.129961 0.077717 -0.576768
    25 1.285216 -0.000008 0.000000 0.000002 0.049258 -0.572991
    26 0.838746 -0.000002 0.000002 -0.008940 0.065103 -1.181947
    27 3.184463 0.034724 0.610737 0.038668 0.025567 -0.408484
    28 1.605513 -0.000002 0.000001 0.000003 0.017159 -1.321152
    29 1.020536 -0.000004 -0.000001 0.067818 -0.007225 -1.146323
    30 3.371929 0.055168 -0.212285 0.046273 0.157228 -0.460920
    31 1.668799 0.000000 0.000006 0.000002 -0.012095 -1.301943
    32 1.236531 0.000008 0.000005 -0.010053 -0.051628 -1.310945
    33 3.277788 0.085466 -1.096900 0.069067 0.335828 -0.201833
    34 1.711616 0.000004 0.000010 0.000003 -0.319049 -0.171357
    35 1.005910 0.000006 0.000008 0.001382 0.029045 -0.755495
    36 -0.096345 -0.707497 -0.790974 1.340665 0.558808 -0.325884
    37 2.512460 -0.000008 -0.000004 -0.000002 -0.000001 0.359159
    38 1.332003 -0.066410 0.070309 -0.052057 -0.098851 0.481224
    39 -0.680268 -17.851615 -12.992179 1.178567 -0.117208 4.039479
    40 0.156010 3.699208 -1.304714 -0.000013 0.000002 0.000000
    41 0.135008 2.974574 -4.394554 -0.000003 0.000002 0.000000
    42 0.179075 3.964799 -5.582058 -0.000016 0.000002 0.000000
    43 0.247072 5.746066 -3.626993 0.000000 0.000000 0.000000
    44 0.304680 6.812409 -11.546934 -0.000006 0.000002 0.000000
  time 7
    0 1.000000 -4.351563 -9.648438 -1.570781 -1.130097 -1.570808
    1 2.033348 1.000767 1.937660 3.099206 -0.162014 1.679995
    2 6.028145 0.000003 0.000002 -3.010054 0.557119 -1.010561
    3 11.794118 0.058677 0.023432 0.155185 0.099292 -0.500588
    4 11.579330 -0.089935 -0.265655 1.774662 0.730285 0.377502
    5 2.984676 -0.064291 -1.383388 -0.009431 -0.228020 -0.038831
    6 1.324282 -0.000010 0.000006 -0.046608 0.197329 -0.613826
    7 0.819210 0.000000 0.000002 0.012489 -0.075410 -0.151059
    8 3.426689 0.046753 -0.579886 -0.100634 -0.224294 -0.006053
    9 1.609408 0.000006 -0.000006 -0.034098 0.174693 -0.680007
    10 0.993190 -0.000006 0.000002 0.019960 0.016412 -0.163925
    11 3.516491 0.136814 0.236125 -0.059519 -0.333915 0.091468
    12 1.684422 -0.000008 0.000009 -0.066944 0.200348 -0.635766
    13 1.252155 -0.000008 0.000004 -0.009222 0.012751 -0.170533
    14 3.336402 0.237048 1.105897 -0.064712 -0.419102 0.259457
    15 1.719435 0.000000 -0.000004 -0.087863 0.303115 -0.637360
    16 1.005859 0.000000 -0.000003 0.013705 0.022046 -0.156759
    17 0.028674 -0.688784 0.473576 -1.891416 -0.790032 0.173218
    18 2.633557 0.000000 -0.000006 0.005738 0.014852 0.405016
    19 1.308568 0.000001 -0.000002 0.028585 0.120444 0.011966
    20 2.033356 1.000772 -1.937610 -0.128177 0.172990 -2.038336
    21 6.028141 0.000000 -0.000002 -0.731119 1.003026 -2.529594
    22 11.590989 0.031251 -0.000003 0.039331 -0.041011 -1.573034
    23 11.442641 -0.035158 0.089842 -0.751220 -0.579872 0.237576
    24 2.722927 0.004182 1.388428 -0.130880 0.082655 -0.571135
    25 1.285216 -0.000008 0.000000 0.000002 0.047196 -0.581236
    26 0.838746 -0.000002 0.000002 -0.008940 0.065103 -1.181947
    27 3.184463 0.034724 0.614643 0.038584 0.029283 -0.403437
    28 1.605513 -0.000002 0.000001 0.000003 0.016895 -1.329338
    29 1.020536 -0.000004 -0.000001 0.067818 -0.007225 -1.146347
    30 3.371929 0.055168 -0.208379 0.046549 0.160955 -0.456438
    31 1.668799 0.000000 0.000006 0.000002 -0.011963 -1.309048
    32 1.236531 0.000008 0.000005 -0.010053 -0.051628 -1.310945
    33 3.277788 0.085466 -1.092994 0.069544 0.339956 -0.195861
    34 1.711616 0.000004 0.000010 0.000003 -0.323316 -0.177351
    35 1.005910 0.000006 0.000008 0.001394 0.029045 -0.755495
    36 -0.096345 -0.707497 -0.787068 1.342390 0.561471 -0.322172
    37 2.512460 -0.000008 -0.000004 -0.000002 -0.000001 0.359159
    38 1.332003 -0.062504 0.074215 -0.053327 -0.100972 0.482840
    39 -1.207628 -18.558668 -11.792924 1.260823 -0.096089 3.977272
    40 0.156010 3.699208 -1.304714 -0.000013 0.000002 0.000000
    41 0.135008 2.974574 -4.394554 -0.000003 0.000002 0.000000
    42 0.179075 3.964799 -5.582058 -0.000016 0.000002 0.000000
    43 0.247072 5.746066 -3.626993 0.000000 0.000000 0.000000
    44 0.304680 6.812409 -11.546934 -0.000006 0.000002 0.000000
  time 8
    0 1.000000 -4.351563 -9.648438 -1.570781 -1.130097 -1.570808
    1 2.033348 1.000767 1.937660 3.099206 -0.162014 1.679995
    2 6.028145 0.000003 0.000002 -3.009135 0.557039 -1.008116
    3 11.794118 0.058677 0.023432 0.156276 0.097375 -0.490211
    4 11.579330 -0.089935 -0.265655 1.779231 0.731513 0.375055
    5 2.984676 -0.064291 -1.383388 0.001744 -0.228467 -0.089238
    6 1.324282 -0.000010 0.000006 -0.053955 0.195139 -0.655656
    7 0.819210 0.000000 0.000002 0.008701 -0.076513 -0.099727
    8 3.426689 0.046753 -0.575980 -0.088304 -0.229756 -0.061822
    9 1.609408 0.000006 -0.000006 -0.039887 0.172920 -0.716726
    10 0.993190 -0.000006 0.000002 0.020466 0.015861 -0.134976
    11 3.516491 0.136814 0.240031 -0.044618 -0.336529 0.043818
    12 1.684422 -0.000008 0.000009 -0.076004 0.196920 -0.687444
    13 1.252155 -0.000008 0.000004 -0.008528 0.013362 -0.114861
    14 3.336402 0.237048 1.105897 -0.053155 -0.420280 0.230074
    15 1.719435 0.000000 -0.000004 -0.100818 0.298482 -0.688725
    16 1.005859 0.000000 -0.000003 0.013705 0.022046 -0.156759
    17 0.028674 -0.688784 0.477483 -1.877700 -0.787968 0.158289
    18 2.633557 0.000000 -0.000006 0.006733 0.014556 0.471272
    19 1.308568 0.000001 -0.000002 0.031989 0.118155 0.046850
    20 2.033356 1.000772 -1.937610 -0.128177 0.172990 -2.038336
    21 6.028141 0.000000 -0.000002 -0.769519 1.023377 -2.609283
    22 11.598802 0.019532 -0.000003 0.036479 -0.040784 -1.500007
    23 11.450454 -0.042971 0.082029 -0.656449 -0.523422 0.192894
    24 2.722927 0.004182 1.388428 -0.130505 0.080425 -0.573524
    25 1.285216 -0.000008 0.000000 0.000002 0.048167 -0.577713
    26 0.838746 -0.000002 0.000002 -0.008940 0.065103 -1.181947
    27 3.184463 0.034724 0.610737 0.038620 0.027593 -0.405578
    28 1.605513 -0.000002 0.000001 0.000003 0.017015 -1.325806
    29 1.020536 -0.000004 -0.000001 0.067818 -0.007225 -1.146323
    30 3.371929 0.055168 -0.212285 0.046429 0.159265 -0.458337
    31 1.668799 0.000000 0.000006 0.000002 -0.012011 -1.306028
    32 1.236531 0.000008 0.000005 -0.010053 -0.051628 -1.310978
    33 3.277788 0.085466 -1.096900 0.069353 0.338090 -0.198401
    34 1.711616 0.000004 0.000010 0.000003 -0.321410 -0.174811
    35 1.002004 0.000006 0.000008 0.001382 0.029045 -0.755495
    36 -0.096345 -0.707497 -0.790974 1.341659 0.560281 -0.323769
    37 2.512460 -0.000008 -0.000004 -0.000002 -0.000001 0.359159
    38 1.332003 -0.066410 0.074215 -0.052788 -0.100073 0.482115
    39 -2.090467 -19.410257 -10.886646 1.340629 -0.061599 3.881775
    40 0.156010 3.699208 -1.304714 -0.000013 0.000002 0.000000
    41 0.135008 2.974574 -4.394554 -0.000003 0.000002 0.000000
    42 0.179075 3.964799 -5.582058 -0.000016 0.000002 0.000000
    43 0.247072 5.746066 -3.626993 0.000000 0.000000 0.000000
    44 0.304680 6.812409 -11.546934 -0.000006 0.000002 0.000000
  time 9
    0 1.000000 -4.351563 -9.648438 -1.570781 -1.130097 -1.570808
    1 2.033348 1.000767 1.937660 3.099206 -0.162014 1.679995
    2 6.028145 0.000003 0.000002 -3.013500 0.556798 -1.019272
    3 11.790212 0.050864 0.023432 0.149852 0.108125 -0.549064
    4 11.579330 -0.086029 -0.265655 1.752427 0.724569 0.388602
    5 2.984676 -0.064291 -1.379481 0.011147 -0.228125 -0.133075
    6 1.324282 -0.000010 0.000006 -0.059192 0.191726 -0.690969
    7 0.815304 0.000000 0.000002 0.005979 -0.077256 -0.064459
    8 3.426689 0.046753 -0.575980 -0.077437 -0.233683 -0.111655
    9 1.609408 0.000006 -0.000006 -0.044249 0.169816 -0.747634
    10 0.993190 -0.000006 0.000002 0.020819 0.015477 -0.115113
    11 3.516491 0.136814 0.236125 -0.031867 -0.337595 0.000400
    12 1.684422 -0.000008 0.000009 -0.081541 0.191910 -0.726518
    13 1.252155 -0.000008 0.000004 -0.008131 0.013781 -0.076606
    14 3.336402 0.237048 1.105897 -0.043413 -0.419841 0.204387
    15 1.719435 0.000000 -0.000004 -0.109555 0.291343 -0.733924
    16 1.005859 0.000000 -0.000003 0.013705 0.022046 -0.156759
    17 0.028674 -0.688784 0.477483 -1.841989 -0.781890 0.119127
    18 2.637464 0.000000 -0.000006 0.007548 0.014307 0.524475
    19 1.308568 0.000001 -0.000002 0.034242 0.113457 0.073409
    20 2.033356 1.000772 -1.937610 -0.128177 0.172990 -2.038336
    21 6.028141 0.000000 -0.000002 -0.794601 1.034260 -2.653784
    22 11.614427 0.011719 -0.000003 0.033890 -0.040376 -1.432970
    23 11.462173 -0.042971 0.070310 -0.598083 -0.456895 0.181154
    24 2.722927 0.004182 1.392334 -0.128949 0.072216 -0.582862
    25 1.285216 -0.000008 0.000000 0.000002 0.051643 -0.564206
    26 0.838746 -0.000002 0.000002 -0.008940 0.065103 -1.181947
    27 3.184463 0.034724 0.610737 0.038752 0.021373 -0.413989
    28 1.605513 -0.000002 0.000001 0.000003 0.017518 -1.312471
    29 1.020536 -0.000004 -0.000001 0.067818 -0.007225 -1.146323
    30 3.371929 0.055168 -0.212285 0.045973 0.153057 -0.465783
    31 1.668799 0.000000 0.000006 0.000002 -0.012179 -1.294492
    32 1.240438 0.000008 0.000005 -0.010053 -0.051628 -1.310978
    33 3.277788 0.085466 -1.096900 0.068551 0.331250 -0.208285
    34 1.711616 0.000004 0.000010 0.000003 -0.314363 -0.164990
    35 1.005910 0.000006 0.000008 0.001382 0.029045 -0.755495
    36 -0.096345 -0.707497 -0.790974 1.338819 0.555876 -0.329883
    37 2.512460 -0.000008 -0.000004 -0.000002 -0.000001 0.359159
    38 1.332003 -0.066410 0.070309 -0.050679 -0.096550 0.479526
    39 -2.945962 -20.152467 -10.433507 1.402298 -0.026784 3.782083
    40 0.156010 3.699208 -1.304714 -0.000013 0.000002 0.000000
    41 0.135008 2.974574 -4.394554 -0.000003 0.000002 0.000000
    42 0.179075 3.964799 -5.582058 -0.000016 0.000002 0.000000
    43 0.247072 5.746066 -3.626993 0.000000 0.000000 0.000000
    44 0.304680 6.812409 -11.546934 -0.000006 0.000002 0.000000
  time 10
    0 1.000000 -4.351563 -9.648438 -1.570781 -1.130097 -1.570808
    1 2.033348 1.000767 1.937660 3.099206 -0.162014 1.679995
    2 6.028145 0.000003 0.000002 -3.016486 0.551855 -1.030962
    3 11.782399 0.039145 0.019526 0.134812 0.128882 -0.669542
    4 11.575423 -0.078216 -0.261748 1.690061 0.705696 0.413772
    5 2.984676 -0.060384 -1.379481 0.018687 -0.227178 -0.170193
    6 1.324282 -0.000010 0.000006 -0.062416 0.187266 -0.719698
    7 0.819210 0.000000 0.000002 0.004558 -0.077675 -0.044399
    8 3.426689 0.046753 -0.575980 -0.068098 -0.236149 -0.155122
    9 1.609408 0.000006 -0.000006 -0.047281 0.165573 -0.772730
    10 0.993190 -0.000006 0.000002 0.021021 0.015261 -0.103811
    11 3.512585 0.140720 0.236125 -0.021393 -0.337240 -0.038327
    12 1.684422 -0.000008 0.000009 -0.083770 0.185547 -0.753475
    13 1.252155 -0.000008 0.000004 -0.007883 0.014009 -0.054914
    14 3.332496 0.237048 1.101991 -0.035537 -0.417870 0.182574
    15 1.719435 0.000000 -0.000004 -0.114229 0.282046 -0.772711
    16 1.005859 0.000000 -0.000003 0.013705 0.022046 -0.156759
    17 0.024768 -0.688784 0.477483 -1.788474 -0.770813 0.059578
    18 2.633557 0.000000 -0.000006 0.008123 0.014079 0.564871
    19 1.308568 0.000001 -0.000002 0.035440 0.106662 0.091928
    20 2.033356 1.000772 -1.937610 -0.128177 0.172990 -2.038336
    21 6.028141 0.000000 -0.000002 -0.818458 1.043037 -2.687835
    22 11.630053 0.003906 -0.000003 0.030019 -0.039429 -1.331256
    23 11.466079 -0.046878 0.062498 -0.537283 -0.394012 0.175403
    24 2.722927 0.004182 1.392334 -0.127244 0.063096 -0.593494
    25 1.285216 -0.000008 0.000000 0.000002 0.055526 -0.549405
    26 0.838746 -0.000002 0.000002 -0.008940 0.065103 -1.181947
    27 3.184463 0.034724 0.610737 0.038908 0.014410 -0.423487
    28 1.605513 -0.000002 0.000001 0.000003 0.018202 -1.297849
    29 1.020536 -0.000004 -0.000001 0.067818 -0.007225 -1.146323
    30 3.371929 0.055168 -0.212285 0.045494 0.146154 -0.474236
    31 1.668799 0.000000 0.000006 0.000002 -0.012262 -1.281893
    32 1.240438 0.000008 0.000005 -0.010053 -0.051628 -1.310945
    33 3.277788 0.085466 -1.096900 0.067671 0.323634 -0.219358
    34 1.711616 0.000004 0.000010 0.000003 -0.306633 -0.154085
    35 1.005910 0.000006 0.000008 0.001382 0.029045 -0.755495
    36 -0.096345 -0.707497 -0.787068 1.335643 0.551060 -0.336788
    37 2.512460 -0.000008 -0.000004 -0.000002 -0.000001 0.359159
    38 1.332003 -0.074223 0.066403 -0.048318 -0.092607 0.476853
    39 -4.270221 -21.039213 -10.347567 1.441178 0.033298 3.655438
    40 0.156010 3.699208 -1.304714 -0.000013 0.000002 0.000000
    41 0.135008 2.974574 -4.394554 -0.000003 0.000002 0.000000
    42 0.179075 3.964799 -5.582058 -0.000016 0.000002 0.000000
    43 0.247072 5.746066 -3.626993 0.000000 0.000000 0.000000
    44 0.304680 6.812409 -11.546934 -0.000006 0.000002 0.000000
  time 11
    0 1.000000 -4.351563 -9.648438 -1.570781 -1.130097 -1.570808
    1 2.033348 1.000767 1.937660 3.099206 -0.162014 1.679995
    2 6.028145 0.000003 0.000002 -3.006073 0.533811 -1.015910
    3 11.790212 0.035239 0.019526 0.112736 0.153487 -0.830576
    4 11.563704 -0.058684 -0.257842 1.587413 0.668525 0.440953
    5 2.984676 -0.079916 -1.465421 0.022775 -0.218235 -0.201336
    6 1.324282 -0.000010 0.000006 -0.063842 0.181937 -0.742242
    7 0.815304 0.000000 0.000002 0.004026 -0.077819 -0.038121
    8 3.434501 0.031127 -0.661920 -0.061950 -0.229832 -0.192965
    9 1.609408 0.000006 -0.000006 -0.049079 0.160384 -0.792316
    10 0.993190 -0.000006 0.000002 0.021072 0.015189 -0.100244
    11 3.528210 0.121189 0.154091 -0.013803 -0.327976 -0.073099
    12 1.684422 -0.000008 0.000009 -0.083051 0.178056 -0.769372
    13 1.252155 -0.000008 0.000004 -0.007734 0.014093 -0.048073
    14 3.355934 0.217516 1.023863 -0.028223 -0.407027 0.163106
    15 1.719435 0.000000 -0.000004 -0.115308 0.270939 -0.805373
    16 1.005859 0.000000 -0.000003 0.013705 0.022046 -0.156759
    17 0.044300 -0.704409 0.414981 -1.722589 -0.745930 -0.016460
    18 2.633557 0.000000 -0.000006 0.008507 0.013898 0.593490
    19 1.308568 0.000001 -0.000002 0.035692 0.098081 0.103064
    20 2.033356 1.000772 -1.937610 -0.128177 0.172990 -2.038336
    21 6.028141 0.000000 -0.000002 -0.827445 1.040860 -2.690180
    22 11.649584 0.000000 -0.000003 0.027107 -0.037835 -1.239357
    23 11.481705 -0.027346 0.042966 -0.500771 -0.311884 0.207841
    24 2.742459 -0.011443 1.450930 -0.123083 0.040756 -0.616029
    25 1.285216 -0.000008 0.000000 0.000002 0.063651 -0.520139
    26 0.842652 -0.000002 0.000002 -0.008940 0.065103 -1.181947
    27 3.207901 0.019098 0.673239 0.039112 -0.003735 -0.443588
    28 1.605513 -0.000002 0.000001 0.000003 0.020011 -1.269166
    29 1.020536 -0.000004 -0.000001 0.067818 -0.007225 -1.146323
    30 3.399273 0.035636 -0.145877 0.044511 0.128237 -0.492205
    31 1.668799 0.000000 0.000006 0.000002 -0.012107 -1.257154
    32 1.236531 0.000008 0.000005 -0.010053 -0.051628 -1.310945
    33 3.309039 0.065934 -1.034398 0.064977 0.304477 -0.242695
    34 1.711616 0.000004 0.000010 0.000003 -0.291149 -0.132174
    35 1.005910 0.000006 0.000008 0.001382 0.029045 -0.755495
    36 -0.069000 -0.727029 -0.736285 1.328632 0.537730 -0.351764
    37 2.512460 -0.000008 -0.000004 -0.000002 -0.000001 0.359159
    38 1.332003 -0.078129 0.050777 -0.043452 -0.084446 0.471985
    39 -5.520260 -21.855644 -10.753829 1.461331 0.087133 3.508890
    40 0.156010 3.699208 -1.304714 -0.000013 0.000002 0.000000
    41 0.135008 2.974574 -4.394554 -0.000003 0.000002 0.000000
    42 0.179075 3.964799 -5.582058 -0.000016 0.000002 0.000000
    43 0.247072 5.746066 -3.626993 0.000000 0.000000 0.000000
    44 0.304680 6.812409 -11.546934 -0.000006 0.000002 0.000000
  time 12
    0 1.000000 -4.351563 -9.648438 -1.570781 -1.130097 -1.570808
    1 2.033348 1.000767 1.937660 3.099206 -0.162014 1.679995
    2 6.028145 0.000003 0.000002 -2.987849 0.511507 -0.984354
    3 11.770680 0.023519 0.015620 0.093369 0.168527 -0.944876
    4 11.544172 -0.031340 -0.195340 1.510350 0.628476 0.465599
    5 3.039366 -0.083822 -1.520110 0.023139 -0.210870 -0.214624
    6 1.324282 -0.000010 0.000006 -0.053451 0.171970 -0.705200
    7 0.819210 0.000000 0.000002 0.003966 -0.077867 -0.036082
    8 3.493097 0.027221 -0.720515 -0.060521 -0.223363 -0.210266
    9 1.609408 0.000006 -0.000006 -0.042991 0.150257 -0.756049
    10 0.993190 -0.000006 0.000002 0.021123 0.015153 -0.098480
    11 3.594619 0.117282 0.091589 -0.011703 -0.319727 -0.089841
    12 1.684422 -0.000008 0.000009 -0.064151 0.162452 -0.686590
    13 1.252155 -0.000008 0.000004 -0.007685 0.014117 -0.046002
    14 3.426249 0.213610 0.961361 -0.025281 -0.397718 0.154318
    15 1.719435 0.000000 -0.000004 -0.095485 0.248315 -0.780664
    16 1.005859 0.000000 -0.000003 0.013705 0.022046 -0.156759
    17 0.106802 -0.704409 0.379823 -1.545793 -0.679445 -0.239784
    18 2.633557 0.000000 -0.000006 0.008603 0.013830 0.599708
    19 1.308568 0.000001 -0.000002 0.033283 0.077815 0.038873
    20 2.033356 1.000772 -1.937610 -0.128177 0.172990 -2.038336
    21 6.028141 0.000000 -0.000002 -0.823687 1.031289 -2.669849
    22 11.676929 0.000000 -0.000003 0.024291 -0.036541 -1.159486
    23 11.481705 -0.007814 0.019528 -0.478593 -0.230989 0.260182
    24 2.793241 -0.019256 1.474368 -0.119579 0.018896 -0.643342
    25 1.285216 -0.000008 0.000000 0.000002 0.073443 -0.487996
    26 0.838746 -0.000002 0.000002 -0.008940 0.065103 -1.181982
    27 3.258684 0.011286 0.696677 0.038656 -0.020837 -0.467665
    28 1.605513 -0.000002 0.000001 0.000003 0.022840 -1.238173
    29 1.020536 -0.000004 -0.000001 0.067818 -0.007225 -1.146323
    30 3.450056 0.027823 -0.122439 0.042462 0.111639 -0.514049
    31 1.668799 0.000000 0.000006 0.000002 -0.011340 -1.230459
    32 1.236531 0.000008 0.000005 -0.010053 -0.051628 -1.310945
    33 3.359821 0.054215 -1.007054 0.062053 0.286587 -0.270126
    34 1.711616 0.000004 0.000010 0.000003 -0.273759 -0.107452
    35 1.005910 0.000006 0.000008 0.001382 0.029045 -0.755495
    36 -0.018217 -0.730935 -0.712847 1.320279 0.526908 -0.369976
    37 2.508554 -0.000008 -0.000004 -0.000002 -0.000001 0.359159
    38 1.332003 -0.082036 0.035152 -0.037783 -0.074918 0.467468
    39 -6.653107 -22.508008 -11.472601 1.461424 0.130170 3.361449
    40 0.156010 3.699208 -1.304714 -0.000013 0.000002 0.000000
    41 0.135008 2.974574 -4.394554 -0.000003 0.000002 0.000000
    42 0.179075 3.964799 -5.582058 -0.000016 0.000002 0.000000
    43 0.247072 5.746066 -3.626993 0.000000 0.000000 0.000000
    44 0.304680 6.812409 -11.546934 -0.000006 0.000002 0.000000
  time 13
    0 1.000000 -4.351563 -9.648438 -1.570781 -1.130097 -1.570808
    1 2.033348 1.000767 1.937660 3.099206 -0.162014 1.679995
    2 6.028145 0.000003 0.000002 -2.974449 0.496155 -0.963572
    3 11.735523 0.007894 0.007807 0.079994 0.176042 -1.010383
    4 11.520734 -0.000089 -0.085962 1.469763 0.600090 0.484739
    5 3.148744 -0.072103 -1.551361 0.022321 -0.205820 -0.222345
    6 1.324282 -0.000010 0.000006 -0.037955 0.158284 -0.652829
    7 0.819210 0.000000 0.000002 0.003730 -0.077915 -0.033962
    8 3.602475 0.038940 -0.755673 -0.060322 -0.218479 -0.222450
    9 1.609408 0.000006 -0.000006 -0.033607 0.136199 -0.705820
    10 0.993190 -0.000006 0.000002 0.021173 0.015118 -0.095551
    11 3.707903 0.129001 0.052525 -0.011627 -0.312976 -0.102719
    12 1.684422 -0.000008 0.000009 -0.036263 0.141719 -0.571646
    13 1.252155 -0.000008 0.000004 -0.007685 0.014129 -0.044022
    14 3.543440 0.229235 0.930110 -0.024558 -0.389750 0.149271
    15 1.719435 0.000000 -0.000004 -0.065248 0.217844 -0.743134
    16 1.005859 0.000000 -0.000003 0.013705 0.022046 -0.156759
    17 0.223993 -0.692690 0.360291 -1.373551 -0.568675 -0.495139
    18 2.637464 0.000000 -0.000006 0.008531 0.013784 0.596332
    19 1.308568 0.000001 -0.000002 0.028381 0.050263 -0.047385
    20 2.033356 1.000772 -1.937610 -0.128177 0.172990 -2.038336
    21 6.028141 0.000000 -0.000002 -0.812739 1.020440 -2.639851
    22 11.692554 0.000000 -0.000003 0.021774 -0.035450 -1.092348
    23 11.481705 -0.000001 0.003902 -0.460526 -0.151515 0.318539
    24 2.855743 -0.027069 1.458743 -0.116693 -0.001669 -0.672081
    25 1.285216 -0.000008 0.000000 0.000002 0.084241 -0.455673
    26 0.842652 -0.000002 0.000002 -0.008940 0.065103 -1.181947
    27 3.317280 0.003473 0.681052 0.037697 -0.036549 -0.492558
    28 1.605513 -0.000002 0.000001 0.000003 0.026699 -1.207840
    29 1.020536 -0.000004 -0.000001 0.067818 -0.007225 -1.146323
    30 3.508652 0.020010 -0.141971 0.039670 0.096694 -0.536766
    31 1.668799 0.000000 0.000006 0.000002 -0.009842 -1.204310
    32 1.236531 0.000008 0.000005 -0.010053 -0.051628 -1.310945
    33 3.414510 0.046402 -1.026586 0.059034 0.270455 -0.298176
    34 1.711616 0.000004 0.000010 0.000003 -0.255914 -0.081713
    35 1.005910 0.000006 0.000008 0.001382 0.029045 -0.755495
    36 0.036472 -0.738748 -0.716753 1.311302 0.518678 -0.388606
    37 2.508554 -0.000008 -0.000004 -0.000002 -0.000001 0.359159
    38 1.328096 -0.089848 0.019526 -0.031695 -0.064671 0.463967
    39 -7.684388 -22.961146 -12.277313 1.454386 0.159012 3.217936
    40 0.156010 3.699208 -1.304714 -0.000013 0.000002 0.000000
    41 0.135008 2.974574 -4.394554 -0.000003 0.000002 0.000000
    42 0.179075 3.964799 -5.582058 -0.000016 0.000002 0.000000
    43 0.247072 5.746066 -3.626993 0.000000 0.000000 0.000000
    44 0.304680 6.812409 -11.546934 -0.000006 0.000002 0.000000
  time 14
    0 1.000000 -4.351563 -9.648438 -1.570781 -1.130097 -1.570808
    1 2.033348 1.000767 1.937660 3.099206 -0.162014 1.679995
    2 6.028145 0.000003 0.000002 -2.962657 0.482411 -0.939580
    3 11.731616 0.007894 0.007807 0.073427 0.180236 -1.046502
    4 11.516828 -0.000089 -0.082055 1.441816 0.579950 0.497411
    5 3.144837 -0.068197 -1.551361 0.022503 -0.203663 -0.230882
    6 1.324282 -0.000010 0.000006 -0.023909 0.142651 -0.624566
    7 0.815304 0.000000 0.000002 0.003670 -0.077963 -0.032372
    8 3.602475 0.042847 -0.755673 -0.058760 -0.216290 -0.236978
    9 1.609408 0.000006 -0.000006 -0.025385 0.120116 -0.678912
    10 0.993190 -0.000006 0.000002 0.021224 0.015046 -0.092021
    11 3.707903 0.132908 0.052525 -0.011071 -0.308408 -0.118633
    12 1.684422 -0.000008 0.000009 -0.009118 0.119799 -0.486465
    13 1.252155 -0.000008 0.000004 -0.007685 0.014153 -0.042852
    14 3.539533 0.233142 0.922298 -0.024252 -0.383699 0.143908
    15 1.719435 0.000000 -0.000004 -0.035550 0.184672 -0.731570
    16 1.005859 0.000000 -0.000003 0.013705 0.022046 -0.156759
    17 0.220086 -0.684877 0.352479 -1.266417 -0.451071 -0.704760
    18 2.637464 0.000000 -0.000006 0.008339 0.013739 0.588672
    19 1.308568 0.000001 -0.000002 0.021658 0.021056 -0.106962
    20 2.033356 1.000772 -1.937610 -0.128177 0.172990 -2.038336
    21 6.028141 0.000000 -0.000002 -0.807674 1.008658 -2.620302
    22 11.692554 0.000000 -0.000003 0.019509 -0.034312 -1.029840
    23 11.481705 -0.000001 -0.000004 -0.438023 -0.071103 0.370482
    24 2.855743 -0.030975 1.458743 -0.111670 -0.024200 -0.700600
    25 1.285216 -0.000008 0.000000 0.000002 0.095159 -0.425269
    26 0.838746 -0.000002 0.000002 -0.008940 0.065103 -1.181947
    27 3.317280 -0.000434 0.681052 0.038285 -0.054969 -0.516992
    28 1.605513 -0.000002 0.000001 0.000003 0.031349 -1.180312
    29 1.020536 -0.000004 -0.000001 0.067818 -0.007225 -1.146323
    30 3.508652 0.020010 -0.145877 0.038555 0.079376 -0.558857
    31 1.668799 0.000000 0.000006 0.000002 -0.007720 -1.180693
    32 1.236531 0.000008 0.000005 -0.010053 -0.051628 -1.310945
    33 3.414510 0.046402 -1.026586 0.057046 0.251775 -0.325013
    34 1.711616 0.000004 0.000010 0.000003 -0.239004 -0.056449
    35 1.005910 0.000006 0.000008 0.001382 0.029045 -0.755495
    36 0.036472 -0.742654 -0.720660 1.303944 0.508225 -0.405854
    37 2.512460 -0.000008 -0.000004 -0.000002 -0.000001 0.359159
    38 1.332003 -0.089848 0.003901 -0.025583 -0.054388 0.461895
    39 -8.621917 -23.242405 -12.937490 1.453052 0.177007 3.084418
    40 0.156010 3.699208 -1.304714 -0.000013 0.000002 0.000000
    41 0.135008 2.974574 -4.394554 -0.000003 0.000002 0.000000
    42 0.179075 3.964799 -5.582058 -0.000016 0.000002 0.000000
    43 0.247072 5.746066 -3.626993 0.000000 0.000000 0.000000
    44 0.304680 6.812409 -11.546934 -0.000006 0.000002 0.000000
  time 15
    0 1.000000 -4.351563 -9.648438 -1.570781 -1.130097 -1.570808
    1 2.033348 1.000767 1.937660 3.099206 -0.162014 1.679995
    2 6.028145 0.000003 0.000002 -2.950329 0.467903 -0.914672
    3 11.731616 0.003988 0.007807 0.067698 0.183304 -1.077394
    4 11.516828 -0.000089 -0.078149 1.416078 0.560387 0.508948
    5 3.144837 -0.068197 -1.551361 0.022321 -0.200717 -0.240681
    6 1.324282 -0.000010 0.000006 -0.013615 0.125471 -0.635373
    7 0.819210 0.000000 0.000002 0.003611 -0.077999 -0.031475
    8 3.602475 0.042847 -0.755673 -0.057098 -0.213219 -0.254474
    9 1.609408 0.000006 -0.000006 -0.019896 0.102426 -0.689404
    10 0.993190 -0.000006 0.000002 0.021274 0.014962 -0.088041
    11 3.707903 0.132908 0.056432 -0.010742 -0.302291 -0.138134
    12 1.684422 -0.000008 0.000009 0.014060 0.097855 -0.453735
    13 1.252155 -0.000008 0.000004 -0.007685 0.014153 -0.042582
    14 3.539533 0.233142 0.926204 -0.024236 -0.375649 0.137869
    15 1.719435 0.000000 -0.000004 -0.009999 0.150277 -0.760864
    16 1.005859 0.000000 -0.000003 0.013705 0.022046 -0.156759
    17 0.220086 -0.684877 0.356385 -1.216215 -0.349108 -0.860736
    18 2.633557 0.000000 -0.000006 0.008087 0.013693 0.577801
    19 1.308568 0.000001 -0.000002 0.013197 -0.008150 -0.121666
    20 2.033356 1.000772 -1.937610 -0.128177 0.172990 -2.038336
    21 6.028141 0.000000 -0.000002 -0.805141 1.004719 -2.611274
    22 11.692554 0.000000 -0.000003 0.018203 -0.033557 -0.992899
    23 11.481705 0.003905 -0.000004 -0.409462 0.004700 0.420411
    24 2.855743 -0.030975 1.458743 -0.107135 -0.043987 -0.727957
    25 1.285216 -0.000008 0.000000 0.000002 0.105070 -0.398219
    26 0.842652 -0.000002 0.000002 -0.008940 0.065103 -1.181947
    27 3.317280 -0.000434 0.681052 0.038656 -0.071340 -0.540253
    28 1.605513 -0.000002 0.000001 0.000003 0.036262 -1.156778
    29 1.020536 -0.000004 -0.000001 0.067818 -0.007225 -1.146323
    30 3.508652 0.020010 -0.145877 0.037321 0.064180 -0.580017
    31 1.668799 0.000000 0.000006 0.000002 -0.005251 -1.160471
    32 1.236531 0.000008 0.000005 -0.010053 -0.051628 -1.310978
    33 3.414510 0.046402 -1.026586 0.055059 0.235507 -0.350272
    34 1.711616 0.000004 0.000010 0.000003 -0.224323 -0.032878
    35 1.005910 0.000006 0.000008 0.001382 0.029045 -0.755495
    36 0.036472 -0.742654 -0.720660 1.296945 0.499556 -0.422369
    37 2.512460 -0.000008 -0.000004 -0.000002 -0.000001 0.359159
    38 1.332003 -0.089848 -0.000006 -0.019866 -0.044753 0.461253
    39 -9.387565 -23.371315 -13.218748 1.470322 0.189503 2.973838
    40 0.156010 3.699208 -1.304714 -0.000013 0.000002 0.000000
    41 0.135008 2.974574 -4.394554 -0.000003 0.000002 0.000000
    42 0.179075 3.964799 -5.582058 -0.000016 0.000002 0.000000
    43 0.247072 5.746066 -3.626993 0.000000 0.000000 0.000000
    44 0.304680 6.812409 -11.546934 -0.000006 0.000002 0.000000
  time 16
    0 1.000000 -4.351563 -9.648438 -1.570781 -1.130097 -1.570808
    1 2.033348 1.000767 1.937660 3.099206 -0.162014 1.679995
    2 6.028145 0.000003 0.000002 -2.936470 0.450703 -0.884797
    3 11.727710 0.003988 0.007807 0.062137 0.185965 -1.106860
    4 11.516828 0.003817 -0.078149 1.390340 0.538981 0.522145
    5 3.144837 -0.068197 -1.555268 0.022049 -0.197113 -0.252411
    6 1.324282 -0.000010 0.000006 -0.008773 0.106826 -0.697918
    7 0.819210 0.000000 0.000002 0.003611 -0.078023 -0.031312
    8 3.602475 0.042847 -0.755673 -0.055104 -0.209393 -0.275837
    9 1.609408 0.000006 -0.000006 -0.018315 0.083215 -0.749407
    10 0.993190 -0.000006 0.000002 0.021325 0.014866 -0.083611
    11 3.707903 0.132908 0.052525 -0.010362 -0.294703 -0.162051
    12 1.684422 -0.000008 0.000009 0.031102 0.076547 -0.492076
    13 1.252155 -0.000008 0.000004 -0.007685 0.014153 -0.043257
    14 3.543440 0.229235 0.930110 -0.024301 -0.365627 0.130568
    15 1.719435 0.000000 -0.000004 0.008889 0.115338 -0.843755
    16 1.005859 0.000000 -0.000003 0.013705 0.022046 -0.156759
    17 0.220086 -0.688784 0.352479 -1.204052 -0.274550 -0.958667
    18 2.633557 0.000000 -0.000006 0.007740 0.013603 0.564047
    19 1.308568 0.000001 -0.000002 0.002818 -0.036458 -0.076281
    20 2.033356 1.000772 -1.937610 -0.128177 0.172990 -2.038336
    21 6.028141 0.000000 -0.000002 -0.802036 1.004822 -2.605089
    22 11.692554 0.000000 -0.000003 0.017735 -0.033269 -0.979562
    23 11.477798 0.003905 -0.000004 -0.391071 0.069673 0.464378
    24 2.855743 -0.030975 1.458743 -0.103199 -0.059147 -0.751785
    25 1.285216 -0.000008 0.000000 0.000002 0.112596 -0.375760
    26 0.838746 -0.000002 0.000002 -0.008940 0.065103 -1.181947
    27 3.317280 -0.000434 0.681052 0.038956 -0.084032 -0.560372
    28 1.605513 -0.000002 0.000001 0.000003 0.040685 -1.137733
    29 1.020536 -0.000004 -0.000001 0.067818 -0.007225 -1.146323
    30 3.508652 0.020010 -0.141971 0.036242 0.052495 -0.598347
    31 1.668799 0.000000 0.000006 0.000002 -0.002926 -1.144017
    32 1.236531 0.000008 0.000005 -0.010053 -0.051628 -1.310978
    33 3.414510 0.046402 -1.026586 0.053377 0.223095 -0.371961
    34 1.711616 0.000004 0.000010 0.000003 -0.213165 -0.012322
    35 1.005910 0.000006 0.000008 0.001382 0.029045 -0.755495
    36 0.036472 -0.742654 -0.720660 1.290797 0.493210 -0.436582
    37 2.508554 -0.000008 -0.000004 -0.000002 -0.000001 0.359159
    38 1.332003 -0.089848 -0.011725 -0.014965 -0.036483 0.461792
    39 -9.899300 -23.414285 -13.265625 1.495746 0.190903 2.894406
    40 0.156010 3.699208 -1.304714 -0.000013 0.000002 0.000000
    41 0.135008 2.974574 -4.394554 -0.000003 0.000002 0.000000
    42 0.179075 3.964799 -5.582058 -0.000016 0.000002 0.000000
    43 0.247072 5.746066 -3.626993 0.000000 0.000000 0.000000
    44 0.304680 6.812409 -11.546934 -0.000006 0.000002 0.000000
  time 17
    0 1.000000 -4.351563 -9.648438 -1.570781 -1.130097 -1.570808
    1 2.033348 1.000767 1.937660 3.099206 -0.162014 1.679995
    2 6.028145 0.000003 0.000002 -2.920390 0.429444 -0.848351
    3 11.727710 0.003988 0.007807 0.056420 0.188697 -1.136881
    4 11.516828 0.007724 -0.074242 1.362545 0.513817 0.537526
    5 3.144837 -0.068197 -1.555268 0.021731 -0.192773 -0.266442
    6 1.324282 -0.000010 0.000006 -0.009264 0.105667 -0.723588
    7 0.819210 0.000000 0.000002 0.003611 -0.078035 -0.031923
    8 3.602475 0.042847 -0.755673 -0.052678 -0.204786 -0.301300
    9 1.609408 0.000006 -0.000006 -0.018698 0.081477 -0.779296
    10 0.993190 -0.000006 0.000002 0.021426 0.014746 -0.078730
    11 3.707903 0.132908 0.052525 -0.009881 -0.285642 -0.190568
    12 1.684422 -0.000008 0.000009 0.032780 0.076247 -0.499192
    13 1.252155 -0.000008 0.000004 -0.007734 0.014141 -0.044967
    14 3.539533 0.233142 0.922298 -0.024397 -0.353662 0.121915
    15 1.719435 0.000000 -0.000004 0.013191 0.112275 -0.829636
    16 1.005859 0.000000 -0.000003 0.013705 0.022046 -0.156759
    17 0.220086 -0.684877 0.352479 -1.203845 -0.269137 -0.966855
    18 2.633557 0.000000 -0.000006 0.007332 0.013512 0.547700
    19 1.308568 0.000001 -0.000002 -0.000561 -0.038843 -0.045683
    20 2.033356 1.000772 -1.937610 -0.128177 0.172990 -2.038336
    21 6.028141 0.000000 -0.000002 -0.801791 1.004719 -2.604165
    22 11.692554 0.000000 -0.000003 0.017555 -0.033149 -0.974428
    23 11.477798 0.007812 -0.000004 -0.378738 0.073988 0.474077
    24 2.855743 -0.030975 1.454836 -0.107641 -0.054485 -0.743411
    25 1.285216 -0.000008 0.000000 0.001968 0.113112 -0.357076
    26 0.838746 -0.000002 0.000002 -0.008940 0.065103 -1.181947
    27 3.317280 -0.000434 0.677145 0.037410 -0.086441 -0.543159
    28 1.605513 -0.000002 0.000001 0.000003 0.040864 -1.136644
    29 1.020536 -0.000004 -0.000001 0.067818 -0.007225 -1.146323
    30 3.508652 0.020010 -0.145877 0.035307 0.057648 -0.588869
    31 1.668799 0.000000 0.000006 0.000002 -0.002843 -1.142981
    32 1.236531 0.000008 0.000005 -0.010053 -0.051628 -1.310978
    33 3.414510 0.046402 -1.026586 0.053339 0.226705 -0.372945
    34 1.711616 0.000004 0.000010 -0.003556 -0.223520 0.005831
    35 1.005910 0.000006 0.000008 0.001382 0.029045 -0.755495
    36 0.036472 -0.742654 -0.724566 1.293613 0.494655 -0.430670
    37 2.512460 -0.000008 -0.000004 -0.000002 -0.000001 0.359159
    38 1.328096 -0.125006 -0.011725 -0.015528 -0.035656 0.447601
    39 -10.008678 -23.449443 -13.308595 1.506598 0.200150 2.877359
    40 0.156010 3.699208 -1.304714 -0.000013 0.000002 0.000000
    41 0.135008 2.974574 -4.394554 -0.000003 0.000002 0.000000
    42 0.179075 3.964799 -5.582058 -0.000016 0.000002 0.000000
    43 0.247072 5.746066 -3.626993 0.000000 0.000000 0.000000
    44 0.304680 6.812409 -11.546934 -0.000006 0.000002 0.000000
  time 18
    0 1.000000 -4.351563 -9.648438 -1.570781 -1.130097 -1.570808
    1 2.033348 1.000767 1.937660 3.099206 -0.162014 1.679995
    2 6.028145 0.000003 0.000002 -2.900941 0.401755 -0.802431
    3 11.723804 0.003988 0.007807 0.050967 0.190915 -1.165080
    4 11.516828 0.011630 -0.066430 1.332466 0.483589 0.555006
    5 3.144837 -0.068197 -1.555268 0.021367 -0.187697 -0.282922
    6 1.324282 -0.000010 0.000006 -0.009672 0.107953 -0.720263
    7 0.819210 0.000000 0.000002 0.003730 -0.078035 -0.033350
    8 3.602475 0.042847 -0.759579 -0.049720 -0.199375 -0.331137
    9 1.609408 0.000006 -0.000006 -0.018734 0.083634 -0.778126
    10 0.993190 -0.000006 0.000002 0.021476 0.014638 -0.073436
    11 3.707903 0.132908 0.052525 -0.009148 -0.275084 -0.223914
    12 1.684422 -0.000008 0.000009 0.031533 0.079063 -0.490572
    13 1.252155 -0.000008 0.000004 -0.007784 0.014117 -0.047713
    14 3.543440 0.229235 0.926204 -0.024494 -0.339725 0.111821
    15 1.719435 0.000000 -0.000004 0.011897 0.118976 -0.795595
    16 1.005859 0.000000 -0.000003 0.013705 0.022046 -0.156759
    17 0.220086 -0.688784 0.352479 -1.203483 -0.275444 -0.960784
    18 2.637464 0.000000 -0.000006 0.006817 0.013398 0.528716
    19 1.308568 0.000001 -0.000002 -0.000274 -0.035883 -0.045478
    20 2.033356 1.000772 -1.937610 -0.128177 0.172990 -2.038336
    21 6.028141 0.000000 -0.000002 -0.802118 1.004408 -2.604378
    22 11.692554 0.000000 -0.000003 0.017484 -0.033101 -0.972063
    23 11.477798 0.007812 -0.000004 -0.373545 0.073157 0.476675
    24 2.855743 -0.030975 1.454836 -0.110039 -0.051489 -0.738238
    25 1.285216 -0.000008 0.000000 0.002926 0.113028 -0.348891
    26 0.842652 -0.000002 0.000002 -0.008940 0.065103 -1.181947
    27 3.317280 -0.000434 0.681052 0.036631 -0.087064 -0.533746
    28 1.605513 -0.000002 0.000001 0.000003 0.040757 -1.136941
    29 1.020536 -0.000004 -0.000001 0.067818 -0.007225 -1.146323
    30 3.508652 0.020010 -0.141971 0.034912 0.060716 -0.583360
    31 1.668799 0.000000 0.000006 0.000002 -0.002903 -1.143240
    32 1.236531 0.000008 0.000005 -0.010053 -0.051628 -1.310978
    33 3.414510 0.046402 -1.026586 0.053396 0.229062 -0.372441
    34 1.711616 0.000004 0.000010 -0.005318 -0.229129 0.013823
    35 1.005910 0.000006 0.000008 0.001382 0.029045 -0.755495
    36 0.036472 -0.742654 -0.720660 1.295267 0.495646 -0.427131
    37 2.512460 -0.000008 -0.000004 -0.000002 -0.000001 0.359159
    38 1.328096 -0.144538 -0.011725 -0.016019 -0.035620 0.440557
    39 -10.039929 -23.465068 -13.328127 1.516147 0.204699 2.872450
    40 0.156010 3.699208 -1.304714 -0.000013 0.000002 0.000000
    41 0.135008 2.974574 -4.394554 -0.000003 0.000002 0.000000
    42 0.179075 3.964799 -5.582058 -0.000016 0.000002 0.000000
    43 0.247072 5.746066 -3.626993 0.000000 0.000000 0.000000
    44 0.304680 6.812409 -11.546934 -0.000006 0.000002 0.000000
  time 19
    0 1.000000 -4.351563 -9.648438 -1.570781 -1.130097 -1.570808
    1 2.033348 1.000767 1.937660 3.099206 -0.162014 1.679995
    2 6.028145 0.000003 0.000002 -2.878735 0.366269 -0.745355
    3 11.723804 0.000081 0.007807 0.046054 0.192976 -1.190110
    4 11.512921 0.015537 -0.062523 1.300789 0.448029 0.575369
    5 3.144837 -0.068197 -1.555268 0.021049 -0.181831 -0.301927
    6 1.324282 -0.000010 0.000006 -0.009492 0.108404 -0.710454
    7 0.819210 0.000000 0.000002 0.003966 -0.078023 -0.035593
    8 3.602475 0.042847 -0.759579 -0.046131 -0.193157 -0.365465
    9 1.609408 0.000006 -0.000006 -0.018578 0.084318 -0.766729
    10 0.993190 -0.000006 0.000002 0.021577 0.014518 -0.067691
    11 3.707903 0.132908 0.052525 -0.008111 -0.263003 -0.262273
    12 1.684422 -0.000008 0.000009 0.030898 0.079195 -0.487807
    13 1.252155 -0.000008 0.000004 -0.007883 0.014081 -0.051583
    14 3.543440 0.233142 0.922298 -0.024590 -0.323789 0.100103
    15 1.719435 0.000000 -0.000004 0.010195 0.120258 -0.800666
    16 1.005859 0.000000 -0.000003 0.013705 0.022046 -0.156759
    17 0.220086 -0.684877 0.352479 -1.203586 -0.277554 -0.957664
    18 2.633557 0.000000 -0.000006 0.006242 0.013285 0.507139
    19 1.308568 0.000001 -0.000002 0.001009 -0.034948 -0.057106
    20 2.033356 1.000772 -1.937610 -0.128177 0.172990 -2.038336
    21 6.028141 0.000000 -0.000002 -0.801954 1.004788 -2.604520
    22 11.692554 0.000000 -0.000003 0.017567 -0.033161 -0.974680
    23 11.477798 0.007812 -0.000004 -0.378413 0.071415 0.472885
    24 2.855743 -0.027069 1.458743 -0.108147 -0.053359 -0.741154
    25 1.285216 -0.000008 0.000000 0.002183 0.112824 -0.356105
    26 0.838746 -0.000002 0.000002 -0.008940 0.065103 -1.181947
    27 3.317280 0.003473 0.681052 0.037374 -0.086225 -0.540067
    28 1.605513 -0.000002 0.000001 0.000003 0.040685 -1.137403
    29 1.020536 -0.000004 -0.000001 0.067818 -0.007225 -1.146323
    30 3.508652 0.020010 -0.141971 0.035415 0.058643 -0.586703
    31 1.668799 0.000000 0.000006 0.000002 -0.002938 -1.143643
    32 1.236531 0.000008 0.000005 -0.010053 -0.051628 -1.310945
    33 3.414510 0.046402 -1.026586 0.053530 0.227564 -0.371732
    34 1.711616 0.000004 0.000010 -0.003940 -0.225150 0.006847
    35 1.005910 0.000006 0.000008 0.001382 0.029045 -0.755495
    36 0.036472 -0.742654 -0.720660 1.294332 0.494994 -0.429016
    37 2.512460 -0.000008 -0.000004 -0.000002 -0.000001 0.359159
    38 1.328096 -0.128912 -0.011725 -0.015816 -0.035944 0.446026
    39 -9.996959 -23.449443 -13.312501 1.525666 0.201150 2.879144
    40 0.156010 3.699208 -1.304714 -0.000013 0.000002 0.000000
    41 0.135008 2.974574 -4.394554 -0.000003 0.000002 0.000000
    42 0.179075 3.964799 -5.582058 -0.000016 0.000002 0.000000
    43 0.247072 5.746066 -3.626993 0.000000 0.000000 0.000000
    44 0.304680 6.812409 -11.546934 -0.000006 0.000002 0.000000
  time 20
    0 1.000000 -4.351563 -9.648438 -1.570781 -1.130097 -1.570808
    1 2.033348 1.000767 1.937660 3.099206 -0.162014 1.679995
    2 6.028145 0.000003 0.000002 -2.854003 0.320737 -0.676055
    3 11.719897 0.000081 0.007807 0.042542 0.194150 -1.208011
    4 11.512921 0.019443 -0.058617 1.268197 0.406254 0.596956
    5 3.144837 -0.068197 -1.551361 0.020686 -0.175176 -0.323641
    6 1.324282 -0.000010 0.000006 -0.008773 0.106826 -0.697918
    7 0.815304 0.000000 0.000002 0.004262 -0.077987 -0.038773
    8 3.602475 0.042847 -0.755673 -0.041811 -0.186034 -0.404519
    9 1.609408 0.000006 -0.000006 -0.018315 0.083215 -0.749407
    10 0.993190 -0.000006 0.000002 0.021678 0.014386 -0.061495
    11 3.707903 0.132908 0.056432 -0.006643 -0.249324 -0.305967
    12 1.684422 -0.000008 0.000009 0.031102 0.076547 -0.492076
    13 1.252155 -0.000008 0.000004 -0.007933 0.014033 -0.056579
    14 3.543440 0.229235 0.930110 -0.024670 -0.305772 0.086764
    15 1.719435 0.000000 -0.000004 0.008889 0.115338 -0.843755
    16 1.005859 0.000000 -0.000003 0.013705 0.022046 -0.156759
    17 0.220086 -0.688784 0.352479 -1.204052 -0.274550 -0.958667
    18 2.633557 0.000000 -0.000006 0.005571 0.013126 0.482926
    19 1.308568 0.000001 -0.000002 0.002818 -0.036458 -0.076281
    20 2.033356 1.000772 -1.937610 -0.128177 0.172990 -2.038336
    21 6.028141 0.000000 -0.000002 -0.802036 1.004822 -2.605089
    22 11.692554 0.000000 -0.000003 0.017735 -0.033269 -0.979562
    23 11.477798 0.003905 -0.000004 -0.391071 0.069673 0.464378
    24 2.855743 -0.030975 1.458743 -0.103199 -0.059147 -0.751785
    25 1.285216 -0.000008 0.000000 0.000002 0.112596 -0.375760
    26 0.838746 -0.000002 0.000002 -0.008940 0.065103 -1.181947
    27 3.317280 -0.000434 0.681052 0.038956 -0.084032 -0.560372
    28 1.605513 -0.000002 0.000001 0.000003 0.040685 -1.137733
    29 1.020536 -0.000004 -0.000001 0.067818 -0.007225 -1.146323
    30 3.508652 0.020010 -0.141971 0.036242 0.052495 -0.598347
    31 1.668799 0.000000 0.000006 0.000002 -0.002926 -1.144017
    32 1.236531 0.000008 0.000005 -0.010053 -0.051628 -1.310978
    33 3.414510 0.046402 -1.026586 0.053377 0.223095 -0.371961
    34 1.711616 0.000004 0.000010 0.000003 -0.213165 -0.012322
    35 1.005910 0.000006 0.000008 0.001382 0.029045 -0.755495
    36 0.036472 -0.742654 -0.720660 1.290797 0.493210 -0.436582
    37 2.508554 -0.000008 -0.000004 -0.000002 -0.000001 0.359159
    38 1.332003 -0.089848 -0.011725 -0.014965 -0.036483 0.461792
    39 -9.899300 -23.414285 -13.265625 1.534967 0.190903 2.894406
    40 0.156010 3.699208 -1.304714 -0.000013 0.000002 0.000000
    41 0.135008 2.974574 -4.394554 -0.000003 0.000002 0.000000
    42 0.179075 3.964799 -5.582058 -0.000016 0.000002 0.000000
    43 0.247072 5.746066 -3.626993 0.000000 0.000000 0.000000
    44 0.304680 6.812409 -11.546934 -0.000006 0.000002 0.000000
  time 21
    0 1.000000 -4.351563 -9.648438 -1.570781 -1.130097 -1.570808
    1 2.033348 1.000767 1.937660 3.099206 -0.162014 1.679995
    2 6.028145 0.000003 0.000002 -2.825595 0.257040 -0.584596
    3 11.719897 0.000081 0.007807 0.041296 0.194606 -1.214269
    4 11.509015 0.023349 -0.050804 1.232864 0.353393 0.620466
    5 3.144837 -0.068197 -1.551361 0.020232 -0.166838 -0.350589
    6 1.324282 -0.000010 0.000006 -0.007514 0.103316 -0.681958
    7 0.819210 0.000000 0.000002 0.004617 -0.077939 -0.043788
    8 3.602475 0.042847 -0.755673 -0.036161 -0.177048 -0.453180
    9 1.609408 0.000006 -0.000006 -0.017967 0.080483 -0.725519
    10 0.993190 -0.000006 0.000002 0.021779 0.014219 -0.053235
    11 3.707903 0.132908 0.056432 -0.004594 -0.232192 -0.360424
    12 1.684422 -0.000008 0.000009 0.032037 0.071226 -0.503217
    13 1.252155 -0.000008 0.000004 -0.008032 0.013961 -0.064275
    14 3.543440 0.229235 0.926204 -0.024831 -0.283293 0.070134
    15 1.719435 0.000000 -0.000004 0.007750 0.105740 -0.916665
    16 1.005859 0.000000 -0.000003 0.013705 0.022046 -0.156759
    17 0.220086 -0.688784 0.356385 -1.204984 -0.267028 -0.963179
    18 2.633557 0.000000 -0.000006 0.004624 0.012898 0.449571
    19 1.308568 0.000001 -0.000002 0.005251 -0.040161 -0.103373
    20 2.033356 1.000772 -1.937610 -0.128177 0.172990 -2.038336
    21 6.028141 0.000000 -0.000002 -0.802363 1.004788 -2.606084
    22 11.692554 0.000000 -0.000003 0.017975 -0.033425 -0.986507
    23 11.477798 0.003905 -0.000004 -0.410328 0.067716 0.450862
    24 2.855743 -0.030975 1.454836 -0.095234 -0.068255 -0.767919
    25 1.285216 -0.000008 0.000000 -0.003354 0.112309 -0.405662
    26 0.842652 -0.000002 0.000002 -0.008940 0.065103 -1.181947
    27 3.317280 -0.000434 0.681052 0.041592 -0.080940 -0.591262
    28 1.605513 -0.000002 0.000001 0.000003 0.040733 -1.138129
    29 1.020536 -0.000004 -0.000001 0.067818 -0.007225 -1.146323
    30 3.508652 0.020010 -0.145877 0.037740 0.042751 -0.615955
    31 1.668799 0.000000 0.000006 0.000002 -0.002891 -1.144362
    32 1.236531 0.000008 0.000005 -0.010053 -0.051628 -1.310945
    33 3.414510 0.046402 -1.026586 0.053319 0.215942 -0.372029
    34 1.711616 0.000004 0.000010 0.006043 -0.194673 -0.041480
    35 1.005910 0.000006 0.000008 0.001382 0.029045 -0.755495
    36 0.036472 -0.742654 -0.720660 1.285583 0.490221 -0.447688
    37 2.512460 -0.000008 -0.000004 -0.000002 -0.000001 0.359147
    38 1.332003 -0.027346 -0.011725 -0.013611 -0.037202 0.485969
    39 -9.754764 -23.351783 -13.199216 1.544516 0.174957 2.916986
    40 0.156010 3.699208 -1.304714 -0.000013 0.000002 0.000000
    41 0.135008 2.974574 -4.394554 -0.000003 0.000002 0.000000
    42 0.179075 3.964799 -5.582058 -0.000016 0.000002 0.000000
    43 0.247072 5.746066 -3.626993 0.000000 0.000000 0.000000
    44 0.304680 6.812409 -11.546934 -0.000006 0.000002 0.000000
  time 22
    0 1.000000 -4.351563 -9.648438 -1.570781 -1.130097 -1.570808
    1 2.033348 1.000767 1.937660 3.099206 -0.162014 1.679995
    2 6.028145 0.000003 0.000002 -2.794431 0.159625 -0.454629
    3 11.723804 0.000081 0.007807 0.044999 0.192976 -1.195496
    4 11.505109 0.027256 -0.039085 1.194256 0.281851 0.643277
    5 3.144837 -0.072103 -1.551361 0.019278 -0.155291 -0.386854
    6 1.324282 -0.000010 0.000006 -0.005621 0.097053 -0.659978
    7 0.819210 0.000000 0.000002 0.005387 -0.077807 -0.053940
    8 3.602475 0.038940 -0.755673 -0.028418 -0.164412 -0.519220
    9 1.609408 0.000006 -0.000006 -0.017488 0.075425 -0.690460
    10 0.993190 -0.000006 0.000002 0.021982 0.013907 -0.039267
    11 3.703997 0.129001 0.052525 -0.001659 -0.208513 -0.434521
    12 1.684422 -0.000008 0.000009 0.033739 0.062021 -0.525458
    13 1.252155 -0.000008 0.000004 -0.008180 0.013829 -0.079172
    14 3.539533 0.229235 0.930110 -0.025506 -0.252215 0.048052
    15 1.719435 0.000000 -0.000004 0.006372 0.092051 -1.018787
    16 1.005859 0.000000 -0.000003 0.013705 0.022046 -0.156759
    17 0.220086 -0.692690 0.356385 -1.207054 -0.254322 -0.970588
    18 2.633557 0.000000 -0.000006 0.002994 0.012535 0.391386
    19 1.308568 0.000001 -0.000002 0.008787 -0.046669 -0.143282
    20 2.033356 1.000772 -1.937610 -0.128177 0.172990 -2.038336
    21 6.028141 0.000000 -0.000002 -0.802281 1.004961 -2.607008
    22 11.692554 0.000000 -0.000003 0.018346 -0.033653 -0.997177
    23 11.477798 0.003905 -0.000004 -0.436563 0.064848 0.432390
    24 2.855743 -0.030975 1.458743 -0.084233 -0.080791 -0.790322
    25 1.285216 -0.000008 0.000000 -0.007992 0.111913 -0.447033
    26 0.838746 -0.000002 0.000002 -0.008940 0.065103 -1.181947
    27 3.317280 -0.000434 0.681052 0.045176 -0.076649 -0.633962
    28 1.605513 -0.000002 0.000001 0.000003 0.040805 -1.138657
    29 1.020536 -0.000004 -0.000001 0.067818 -0.007225 -1.146323
    30 3.508652 0.020010 -0.141971 0.039765 0.029280 -0.640269
    31 1.668799 0.000000 0.000006 0.000002 -0.002843 -1.144937
    32 1.236531 0.000008 0.000005 -0.010053 -0.051628 -1.311045
    33 3.414510 0.046402 -1.026586 0.053224 0.206050 -0.372144
    34 1.711616 0.000004 0.000010 0.014432 -0.169086 -0.081849
    35 1.005910 0.000006 0.000008 0.001382 0.029045 -0.755495
    36 0.036472 -0.742654 -0.720660 1.278441 0.485986 -0.463038
    37 2.512460 -0.000008 -0.000004 -0.000002 -0.000001 0.359159
    38 1.332003 0.054687 -0.011725 -0.011681 -0.038185 0.519385
    39 -9.555539 -23.269750 -13.105464 1.554810 0.152514 2.947777
    40 0.156010 3.699208 -1.304714 -0.000013 0.000002 0.000000
    41 0.135008 2.974574 -4.394554 -0.000003 0.000002 0.000000
    42 0.179075 3.964799 -5.582058 -0.000016 0.000002 0.000000
    43 0.247072 5.746066 -3.626993 0.000000 0.000000 0.000000
    44 0.304680 6.812409 -11.546934 -0.000006 0.000002 0.000000
  time 23
    0 1.000000 -4.351563 -9.648438 -1.570781 -1.130097 -1.570808
    1 2.033348 1.000767 1.937660 3.099206 -0.162014 1.679995
    2 6.028145 0.000003 0.000002 -2.769775 0.010410 -0.270949
    3 11.727710 0.003988 0.007807 0.059848 0.187032 -1.118980
    4 11.497296 0.027256 -0.027366 1.156182 0.184262 0.650531
    5 3.144837 -0.068197 -1.555268 0.018505 -0.138983 -0.437558
    6 1.324282 -0.000010 0.000006 -0.002793 0.084816 -0.632713
    7 0.819210 0.000000 0.000002 0.007754 -0.077364 -0.084152
    8 3.602475 0.042847 -0.755673 -0.016354 -0.146012 -0.611309
    9 1.609408 0.000006 -0.000006 -0.017152 0.065310 -0.639853
    10 0.993190 -0.000006 0.000002 0.022335 0.013368 -0.014599
    11 3.707903 0.132908 0.052525 0.003755 -0.175138 -0.538099
    12 1.684422 -0.000008 0.000009 0.036759 0.044847 -0.577176
    13 1.252155 -0.000008 0.000004 -0.008726 0.013422 -0.120307
    14 3.543440 0.229235 0.930110 -0.026053 -0.209227 0.016505
    15 1.719435 0.000000 -0.000004 0.004646 0.073171 -1.157994
    16 1.005859 0.000000 -0.000003 0.013705 0.022046 -0.156759
    17 0.220086 -0.688784 0.356385 -1.211298 -0.231434 -0.983790
    18 2.633557 0.000000 -0.000006 -0.000565 0.011740 0.268303
    19 1.308568 0.000001 -0.000002 0.014120 -0.058785 -0.203330
    20 2.033356 1.000772 -1.937610 -0.128177 0.172990 -2.038336
    21 6.028141 0.000000 -0.000002 -0.802363 1.005202 -2.608359
    22 11.692554 0.000000 -0.000003 0.018850 -0.033928 -1.011319
    23 11.477798 -0.000001 -0.000004 -0.471398 0.060559 0.406551
    24 2.855743 -0.030975 1.458743 -0.069277 -0.097582 -0.820727
    25 1.285216 -0.000008 0.000000 -0.014272 0.111386 -0.502869
    26 0.842652 -0.000002 0.000002 -0.008940 0.065103 -1.181947
    27 3.317280 -0.000434 0.681052 0.049886 -0.070825 -0.691598
    28 1.605513 -0.000002 0.000001 0.000003 0.040900 -1.139416
    29 1.020536 -0.000004 -0.000001 0.067818 -0.007225 -1.146323
    30 3.508652 0.020010 -0.141971 0.042522 0.011016 -0.673015
    31 1.668799 0.000000 0.000006 0.000002 -0.002771 -1.145570
    32 1.236531 0.000008 0.000005 -0.010053 -0.051628 -1.310978
    33 3.414510 0.046402 -1.026586 0.053128 0.192697 -0.372281
    34 1.711616 0.000004 0.000010 0.025746 -0.134558 -0.136305
    35 1.002004 0.000006 0.000008 0.001382 0.029045 -0.755495
    36 0.036472 -0.742654 -0.720660 1.268949 0.480121 -0.483624
    37 2.508554 -0.000008 -0.000004 -0.000002 -0.000001 0.359159
    38 1.324190 0.175785 -0.011725 -0.009020 -0.039467 0.564527
    39 -9.286000 -23.160371 -12.980460 1.564731 0.121548 2.988832
    40 0.156010 3.699208 -1.304714 -0.000013 0.000002 0.000000
    41 0.135008 2.974574 -4.394554 -0.000003 0.000002 0.000000
    42 0.179075 3.964799 -5.582058 -0.000016 0.000002 0.000000
    43 0.247072 5.746066 -3.626993 0.000000 0.000000 0.000000
    44 0.304680 6.812409 -11.546934 -0.000006 0.000002 0.000000
  time 24
    0 1.000000 -4.351563 -9.648438 -1.570781 -1.130097 -1.570808
    1 2.033348 1.000767 1.937660 3.099206 -0.162014 1.679995
    2 6.028145 0.000003 0.000002 -2.777662 -0.208773 -0.013842
    3 11.739429 0.011800 0.011713 0.095107 0.166418 -0.924202
    4 11.493389 0.019443 -0.015647 1.132881 0.059744 0.601414
    5 3.148744 -0.068197 -1.555268 0.017188 -0.116230 -0.506413
    6 1.324282 -0.000010 0.000006 -0.004938 0.060246 -0.686779
    7 0.819210 0.000000 0.000002 0.011542 -0.076405 -0.134791
    8 3.602475 0.042847 -0.755673 0.001293 -0.119457 -0.736633
    9 1.609408 0.000006 -0.000006 -0.021538 0.043390 -0.658005
    10 0.993190 -0.000006 0.000002 0.022184 0.013392 -0.018166
    11 3.707903 0.132908 0.052525 0.012382 -0.128312 -0.679117
    12 1.684422 -0.000008 0.000009 0.037670 0.015761 -0.759777
    13 1.252155 -0.000008 0.000004 -0.009470 0.012799 -0.180164
    14 3.543440 0.229235 0.930110 -0.027419 -0.150002 -0.025992
    15 1.719435 0.000000 -0.000004 0.002573 0.047952 -1.342358
    16 1.005859 0.000000 -0.000003 0.013705 0.022046 -0.156759
    17 0.220086 -0.684877 0.356385 -1.228636 -0.190910 -0.978442
    18 2.633557 0.000000 -0.000006 -0.004149 0.010945 0.169515
    19 1.308568 0.000001 -0.000002 0.017919 -0.085966 -0.229047
    20 2.033356 1.000772 -1.937610 -0.128177 0.172990 -2.038336
    21 6.028141 0.000000 -0.000002 -0.801791 1.005894 -2.609354
    22 11.692554 0.000000 -0.000003 0.019545 -0.034336 -1.030897
    23 11.481705 -0.000001 -0.000004 -0.516187 0.054421 0.371304
    24 2.855743 -0.027069 1.458743 -0.049318 -0.119442 -0.860689
    25 1.285216 -0.000008 0.000000 -0.022529 0.110691 -0.576358
    26 0.838746 -0.000002 0.000002 -0.008940 0.065103 -1.181947
    27 3.317280 0.003473 0.681052 0.056046 -0.063155 -0.767125
    28 1.605513 -0.000002 0.000001 0.000003 0.041020 -1.140340
    29 1.020536 -0.000004 -0.000001 0.067818 -0.007225 -1.146323
    30 3.508652 0.020010 -0.141971 0.046261 -0.013157 -0.715678
    31 1.668799 0.000000 0.000006 0.000002 -0.002675 -1.146490
    32 1.236531 0.000008 0.000005 -0.010053 -0.051628 -1.310978
    33 3.414510 0.046402 -1.026586 0.053147 0.175026 -0.372144
    34 1.711616 0.000004 0.000010 0.040643 -0.089137 -0.207932
    35 1.005910 0.000006 0.000008 0.001382 0.029045 -0.755495
    36 0.036472 -0.742654 -0.720660 1.256892 0.472061 -0.510166
    37 2.512460 -0.000008 -0.000004 -0.000002 -0.000001 0.359159
    38 1.289033 0.332039 -0.011725 -0.005425 -0.041061 0.623860
    39 -8.930520 -23.011929 -12.812486 1.572173 0.079935 3.042203
    40 0.156010 3.699208 -1.304714 -0.000013 0.000002 0.000000
    41 0.135008 2.974574 -4.394554 -0.000003 0.000002 0.000000
    42 0.179075 3.964799 -5.582058 -0.000016 0.000002 0.000000
    43 0.247072 5.746066 -3.626993 0.000000 0.000000 0.000000
    44 0.304680 6.812409 -11.546934 -0.000006 0.000002 0.000000
  time 25
    0 1.000000 -4.351563 -9.648438 -1.570781 -1.130097 -1.570808
    1 2.033348 1.000767 1.937660 3.099206 -0.162014 1.679995
    2 6.028145 0.000003 0.000002 -2.863804 -0.456528 0.307600
    3 11.758961 0.035239 0.015620 0.147180 0.111553 -0.564906
    4 11.489483 -0.000089 -0.007834 1.144531 -0.058368 0.443749
    5 3.144837 -0.068197 -1.551361 0.015235 -0.091269 -0.579351
    6 1.324282 -0.000010 0.000006 -0.031592 0.042101 -1.122968
    7 0.819210 0.000000 0.000002 0.025096 -0.072150 -0.318794
    8 3.602475 0.042847 -0.759579 0.021366 -0.089025 -0.870118
    9 1.609408 0.000006 -0.000006 -0.040989 0.020488 -1.116714
    10 0.993190 -0.000006 0.000002 0.019354 0.016747 -0.188818
    11 3.707903 0.132908 0.052525 0.023134 -0.076334 -0.829794
    12 1.684422 -0.000008 0.000009 0.026428 0.013735 -1.135468
    13 1.252155 -0.000008 0.000004 -0.011552 0.010701 -0.366308
    14 3.543440 0.229235 0.926204 -0.029686 -0.085794 -0.070923
    15 1.719435 0.000000 -0.000004 0.000272 0.017707 -1.561818
    16 1.005859 0.000000 -0.000003 0.013705 0.022046 -0.156759
    17 0.220086 -0.688784 0.356385 -1.268953 -0.196346 -0.811826
    18 2.633557 0.000000 -0.000006 -0.003813 0.010945 0.289510
    19 1.308568 0.000001 -0.000002 -0.016046 -0.105813 0.243443
    20 2.033356 1.000772 -1.937610 -0.128177 0.172990 -2.038336
    21 6.028141 0.000000 -0.000002 -0.800402 1.007414 -2.609852
    22 11.692554 0.000000 -0.000003 0.020444 -0.034803 -1.055860
    23 11.481705 -0.000001 -0.000004 -0.567251 0.046085 0.329139
    24 2.855743 -0.027069 1.454836 -0.025704 -0.144957 -0.908673
    25 1.285216 -0.000008 0.000000 -0.032296 0.109864 -0.663294
    26 0.838746 -0.000002 0.000002 -0.008940 0.065103 -1.181947
    27 3.317280 0.003473 0.677145 0.062841 -0.053998 -0.856756
    28 1.605513 -0.000002 0.000001 0.000003 0.041164 -1.141430
    29 1.020536 -0.000004 -0.000001 0.067818 -0.007225 -1.146323
    30 3.508652 0.020010 -0.145877 0.050468 -0.041848 -0.766375
    31 1.668799 0.000000 0.000006 0.000002 -0.002567 -1.147584
    32 1.236531 0.000008 0.000005 -0.010053 -0.051628 -1.310945
    33 3.414510 0.046402 -1.026586 0.053014 0.154207 -0.372373
    34 1.711616 0.000004 0.000010 0.058272 -0.035386 -0.292733
    35 1.005910 0.000006 0.000008 0.001382 0.029045 -0.755495
    36 0.036472 -0.742654 -0.724566 1.242810 0.462231 -0.541714
    37 2.512460 -0.000008 -0.000004 -0.000002 -0.000001 0.359147
    38 1.230437 0.507826 -0.011725 -0.001027 -0.042823 0.694111
    39 -8.512538 -22.836143 -12.621074 1.573506 0.029874 3.104678
    40 0.156010 3.699208 -1.304714 -0.000013 0.000002 0.000000
    41 0.135008 2.974574 -4.394554 -0.000003 0.000002 0.000000
    42 0.179075 3.964799 -5.582058 -0.000016 0.000002 0.000000
    43 0.247072 5.746066 -3.626993 0.000000 0.000000 0.000000
    44 0.304680 6.812409 -11.546934 -0.000006 0.000002 0.000000
  time 26
    0 1.000000 -4.351563 -9.648438 -1.570781 -1.130097 -1.570808
    1 2.033348 1.000767 1.937660 3.099206 -0.162014 1.679995
    2 6.028145 0.000003 0.000002 -2.944893 -0.559448 0.484480
    3 11.766774 0.050864 0.019526 0.169387 0.066287 -0.329336
    4 11.485577 -0.007902 -0.003928 1.159228 -0.097381 0.324015
    5 3.144837 -0.072103 -1.551361 0.014190 -0.081747 -0.606151
    6 1.324282 -0.000010 0.000006 -0.051738 0.031667 -1.462994
    7 0.819210 0.000000 0.000002 0.037703 -0.068159 -0.490770
    8 3.602475 0.038940 -0.755673 0.029043 -0.077094 -0.919561
    9 1.609408 0.000006 -0.000006 -0.055203 0.005579 -1.483152
    10 0.993190 -0.000006 0.000002 0.016524 0.020043 -0.355491
    11 3.703997 0.129001 0.056432 0.027359 -0.056360 -0.885677
    12 1.684422 -0.000008 0.000009 0.019093 0.016935 -1.393329
    13 1.252155 -0.000008 0.000004 -0.013436 0.008748 -0.538904
    14 3.539533 0.229235 0.922298 -0.030907 -0.061452 -0.087327
    15 1.719435 0.000000 -0.000004 -0.001011 -0.000328 -1.692463
    16 1.005859 0.000000 -0.000003 0.013705 0.022046 -0.156759
    17 0.220086 -0.692690 0.360291 -1.306631 -0.213775 -0.655516
    18 2.633557 0.000000 -0.000006 -0.001992 0.011286 0.499479
    19 1.308568 0.000001 -0.000002 -0.052563 -0.115448 0.730103
    20 2.033356 1.000772 -1.937610 -0.128177 0.172990 -2.038336
    21 6.028141 0.000000 -0.000002 -0.799585 1.008416 -2.610136
    22 11.692554 0.000000 -0.000003 0.020983 -0.035103 -1.071008
    23 11.481705 -0.000001 -0.000004 -0.596515 0.040671 0.303883
    24 2.855743 -0.030975 1.458743 -0.011779 -0.159818 -0.937587
    25 1.285216 -0.000008 0.000000 -0.038085 0.109372 -0.714840
    26 0.838746 -0.000002 0.000002 -0.008940 0.065103 -1.181947
    27 3.317280 -0.000434 0.681052 0.066544 -0.048509 -0.910195
    28 1.605513 -0.000002 0.000001 0.000003 0.041248 -1.142090
    29 1.020536 -0.000004 -0.000001 0.067818 -0.007225 -1.146323
    30 3.508652 0.020010 -0.141971 0.052757 -0.058866 -0.796614
    31 1.668799 0.000000 0.000006 0.000002 -0.002495 -1.148274
    32 1.236531 0.000008 0.000005 -0.010053 -0.051628 -1.310945
    33 3.414510 0.046402 -1.026586 0.052842 0.142026 -0.372830
    34 1.711616 0.000004 0.000010 0.068723 -0.003543 -0.342956
    35 1.005910 0.000006 0.000008 0.001382 0.029045 -0.755495
    36 0.036472 -0.742654 -0.720660 1.234505 0.456352 -0.560645
    37 2.512460 -0.000008 -0.000004 -0.000002 -0.000001 0.359147
    38 1.195280 0.605485 -0.003912 0.001610 -0.043782 0.735732
    39 -8.270344 -22.738483 -12.507789 1.570746 -0.000017 3.141627
    40 0.156010 3.699208 -1.304714 -0.000013 0.000002 0.000000
    41 0.135008 2.974574 -4.394554 -0.000003 0.000002 0.000000
    42 0.179075 3.964799 -5.582058 -0.000016 0.000002 0.000000
    43 0.247072 5.746066 -3.626993 0.000000 0.000000 0.000000
    44 0.304680 6.812409 -11.546934 -0.000006 0.000002 0.000000
end
