// Created by Crowbar++ 0.74
version 1
nodes
  0 "ValveBiped.Bip01_Spine4" -1
  1 "ValveBiped.Bip01_L_Clavicle" 0
  2 "ValveBiped.Bip01_L_UpperArm" 1
  3 "ValveBiped.Bip01_L_Forearm" 2
  4 "ValveBiped.Bip01_L_Hand" 3
  5 "ValveBiped.Bip01_L_Finger4" 4
  6 "ValveBiped.Bip01_L_Finger41" 5
  7 "ValveBiped.Bip01_L_Finger42" 6
  8 "ValveBiped.Bip01_L_Finger3" 4
  9 "ValveBiped.Bip01_L_Finger31" 8
  10 "ValveBiped.Bip01_L_Finger32" 9
  11 "ValveBiped.Bip01_L_Finger2" 4
  12 "ValveBiped.Bip01_L_Finger21" 11
  13 "ValveBiped.Bip01_L_Finger22" 12
  14 "ValveBiped.Bip01_L_Finger1" 4
  15 "ValveBiped.Bip01_L_Finger11" 14
  16 "ValveBiped.Bip01_L_Finger12" 15
  17 "ValveBiped.Bip01_L_Finger0" 4
  18 "ValveBiped.Bip01_L_Finger01" 17
  19 "ValveBiped.Bip01_L_Finger02" 18
  20 "ValveBiped.Bip01_R_Clavicle" 0
  21 "ValveBiped.Bip01_R_UpperArm" 20
  22 "ValveBiped.Bip01_R_Forearm" 21
  23 "ValveBiped.Bip01_R_Hand" 22
  24 "ValveBiped.Bip01_R_Finger4" 23
  25 "ValveBiped.Bip01_R_Finger41" 24
  26 "ValveBiped.Bip01_R_Finger42" 25
  27 "ValveBiped.Bip01_R_Finger3" 23
  28 "ValveBiped.Bip01_R_Finger31" 27
  29 "ValveBiped.Bip01_R_Finger32" 28
  30 "ValveBiped.Bip01_R_Finger2" 23
  31 "ValveBiped.Bip01_R_Finger21" 30
  32 "ValveBiped.Bip01_R_Finger22" 31
  33 "ValveBiped.Bip01_R_Finger1" 23
  34 "ValveBiped.Bip01_R_Finger11" 33
  35 "ValveBiped.Bip01_R_Finger12" 34
  36 "ValveBiped.Bip01_R_Finger0" 23
  37 "ValveBiped.Bip01_R_Finger01" 36
  38 "ValveBiped.Bip01_R_Finger02" 37
  39 "v_weapon.USP_Parent" -1
  40 "v_weapon.USP_Clip" 39
  41 "v_weapon.USP_Hammer" 39
  42 "v_weapon.USP_Release" 39
  43 "v_weapon.USP_Slide" 39
  44 "v_weapon.USP_Switch" 39
  45 "v_weapon.USP_Trigger" 39
  46 "v_weapon.USP_Silencer" 39
end
skeleton
  time 0
    0 0.000005 -2.660156 -8.640625 -1.570760 -1.391893 -1.570827
    1 2.033348 1.000767 1.937660 1.596636 -1.286515 2.942963
    2 6.028145 0.000003 0.000002 -0.633417 -0.744579 -2.045568
    3 11.692553 0.000081 -0.000007 -0.000003 0.000024 -0.951543
    4 11.481672 -0.000089 -0.000024 -0.117051 0.464617 0.075601
    5 3.281560 0.002122 -1.379481 0.060417 -0.190574 -0.991193
    6 1.328125 -0.000002 -0.000002 0.000002 -0.054909 -0.582384
    7 0.819336 0.000000 0.000001 0.000000 0.000000 -0.523584
    8 3.711854 0.109258 -0.568166 -0.039988 -0.149172 -1.054600
    9 1.610352 0.000000 0.000000 -0.000003 0.001795 -0.427550
    10 0.993190 -0.000004 0.000004 0.001476 0.002258 -0.454039
    11 3.786034 0.203230 0.247844 -0.084242 -0.093732 -0.793190
    12 1.680664 0.000002 0.000000 -0.000001 0.006216 -0.584702
    13 1.256836 0.000006 -0.000002 0.000000 0.000000 -0.532315
    14 3.594226 0.299555 1.113710 -0.047418 -0.108690 -0.915309
    15 1.723633 0.000004 -0.000004 0.000000 0.000000 -0.288008
    16 1.002930 -0.000004 0.000004 0.000000 0.000000 -0.445039
    17 0.298214 -0.637996 0.430606 -1.264353 -0.790633 -0.638569
    18 2.636719 0.000000 -0.000004 -0.000002 -0.221920 0.499922
    19 1.309570 -0.000002 -0.000002 -0.026244 -0.055141 0.588010
    20 2.033356 1.000772 -1.937610 -1.668474 1.286518 2.942953
    21 6.028141 0.000000 -0.000002 1.708951 0.868279 -0.463200
    22 11.692554 0.000000 0.000000 0.000118 0.000276 -1.699151
    23 11.481705 -0.000001 -0.000009 -0.833155 0.105604 1.018887
    24 2.906526 -0.027078 1.404053 -0.101425 0.018849 -0.788479
    25 1.283203 -0.000004 -0.000002 0.000007 0.148980 -0.924032
    26 0.842285 0.000002 -0.000001 -0.059567 0.048353 -1.058030
    27 3.364156 0.003467 0.622456 0.036139 -0.076937 -1.015871
    28 1.605509 -0.000002 0.000002 0.000003 0.122000 -1.086872
    29 1.016602 0.000000 0.000001 0.012870 -0.013332 -1.223347
    30 3.551622 0.023914 -0.200566 0.012824 -0.103125 -0.904951
    31 1.666992 0.000002 0.000000 -0.000007 0.157404 -1.208300
    32 1.240436 0.000000 0.000005 0.000002 -0.000011 -1.279228
    33 3.449664 0.054208 -1.085181 0.053722 0.070841 -0.349852
    34 1.711614 0.000008 0.000012 0.000003 -0.030101 -0.798916
    35 1.005910 0.000002 0.000008 0.022799 -0.030302 -1.095530
    36 0.075535 -0.738752 -0.755818 1.327489 0.288916 -0.483077
    37 2.508557 -0.000008 -0.000006 -0.000002 -0.000001 0.359162
    38 1.312475 0.101566 -0.187510 0.052053 0.066392 0.654807
    39 -6.116521 -23.810024 -7.188386 1.570663 0.000045 -3.141681
    40 -0.003810 2.312519 1.197218 0.000000 0.000000 0.000000
    41 0.001230 3.011752 2.415958 -0.000025 0.000000 0.000000
    42 0.001228 2.742167 -1.331091 0.000000 0.000000 0.000000
    43 0.001229 3.617197 0.625910 -0.000001 0.000000 0.000000
    44 0.001260 2.691445 2.738224 0.000000 0.000000 0.000000
    45 0.001231 2.716781 -0.958050 -0.403146 0.000000 0.000000
    46 0.001230 -1.629678 24.004111 0.000000 -0.000001 0.000000
  time 1
    0 0.000005 -2.660156 -8.640625 -1.570760 -1.391893 -1.570827
    1 2.033348 1.000767 1.937660 1.596636 -1.286515 2.942963
    2 6.028145 0.000003 0.000002 -0.633417 -0.744579 -2.045568
    3 11.692553 0.000081 -0.000007 -0.000003 0.000024 -0.951543
    4 11.481672 -0.000089 -0.000024 -0.117051 0.464617 0.075601
    5 3.281560 0.002122 -1.379481 0.060417 -0.190574 -0.991193
    6 1.328125 -0.000002 -0.000002 0.000002 -0.054909 -0.582384
    7 0.819336 0.000000 0.000001 0.000000 0.000000 -0.523584
    8 3.711854 0.109258 -0.568166 -0.039988 -0.149172 -1.054600
    9 1.610352 0.000000 0.000000 -0.000003 0.001795 -0.427550
    10 0.993190 -0.000004 0.000004 0.001476 0.002258 -0.454039
    11 3.786034 0.203230 0.247844 -0.084242 -0.093732 -0.793190
    12 1.680664 0.000002 0.000000 -0.000001 0.006216 -0.584702
    13 1.256836 0.000006 -0.000002 0.000000 0.000000 -0.532315
    14 3.594226 0.299555 1.113710 -0.047418 -0.108690 -0.915309
    15 1.723633 0.000004 -0.000004 0.000000 0.000000 -0.288008
    16 1.002930 -0.000004 0.000004 0.000000 0.000000 -0.445039
    17 0.298214 -0.637996 0.430606 -1.264353 -0.790633 -0.638569
    18 2.636719 0.000000 -0.000004 -0.000002 -0.221920 0.499922
    19 1.309570 -0.000002 -0.000002 -0.026244 -0.055141 0.588010
    20 2.033356 1.000772 -1.937610 -1.668474 1.286518 2.942953
    21 6.028141 0.000000 -0.000002 1.708951 0.868279 -0.463200
    22 11.692554 0.000000 0.000000 0.000118 0.000276 -1.699151
    23 11.481705 -0.000001 -0.000009 -0.833155 0.105604 1.018887
    24 2.906526 -0.027078 1.404053 -0.101425 0.018849 -0.788479
    25 1.283203 -0.000004 -0.000002 0.000007 0.148980 -0.924032
    26 0.842285 0.000002 -0.000001 -0.059567 0.048353 -1.058030
    27 3.364156 0.003467 0.622456 0.036139 -0.076937 -1.015871
    28 1.605509 -0.000002 0.000002 0.000003 0.122000 -1.086872
    29 1.016602 0.000000 0.000001 0.012870 -0.013332 -1.223347
    30 3.551622 0.023914 -0.200566 0.012824 -0.103125 -0.904951
    31 1.666992 0.000002 0.000000 -0.000007 0.157404 -1.208300
    32 1.240436 0.000000 0.000005 0.000002 -0.000011 -1.279228
    33 3.449664 0.054208 -1.085181 0.053722 0.070841 -0.349852
    34 1.711614 0.000008 0.000012 0.000003 -0.030101 -0.798916
    35 1.005910 0.000002 0.000008 0.022799 -0.030302 -1.095530
    36 0.075535 -0.738752 -0.755818 1.327489 0.288916 -0.483077
    37 2.508557 -0.000008 -0.000006 -0.000002 -0.000001 0.359162
    38 1.312475 0.101566 -0.187510 0.052053 0.066392 0.654807
    39 -6.116521 -23.810024 -7.188386 1.570663 0.000045 -3.141681
    40 -0.003810 2.312519 1.197218 0.000000 0.000000 0.000000
    41 0.001230 3.011752 2.415958 -0.000025 0.000000 0.000000
    42 0.001228 2.742167 -1.331091 0.000000 0.000000 0.000000
    43 0.001229 3.617197 0.625910 -0.000001 0.000000 0.000000
    44 0.001260 2.691445 2.738224 0.000000 0.000000 0.000000
    45 0.001231 2.716781 -0.958050 -0.403146 0.000000 0.000000
    46 0.001230 -1.629678 24.004111 0.000000 -0.000001 0.000000
  time 2
    0 0.000005 -2.660156 -8.640625 -1.570760 -1.391893 -1.570827
    1 2.033348 1.000767 1.937660 1.596636 -1.286515 2.942963
    2 6.028145 0.000003 0.000002 -0.572558 -0.783978 -2.092572
    3 11.692553 0.000081 -0.000007 -0.000003 0.000024 -0.935223
    4 11.481672 -0.000089 -0.000024 -0.034934 0.471139 0.097516
    5 3.281560 0.002122 -1.379481 0.060417 -0.190574 -0.991193
    6 1.328125 -0.000002 -0.000002 0.000002 -0.054909 -0.582384
    7 0.819336 0.000000 0.000001 0.000000 0.000000 -0.523584
    8 3.711854 0.109258 -0.568166 -0.039988 -0.149172 -1.054600
    9 1.610352 0.000000 0.000000 -0.000003 0.001795 -0.427550
    10 0.993190 -0.000004 0.000004 0.001476 0.002258 -0.454039
    11 3.786034 0.203230 0.247844 -0.084242 -0.093732 -0.793190
    12 1.680664 0.000002 0.000000 -0.000001 0.006216 -0.584702
    13 1.256836 0.000006 -0.000002 0.000000 0.000000 -0.532315
    14 3.594226 0.299555 1.113710 -0.047403 -0.108702 -0.915365
    15 1.723633 0.000004 -0.000004 0.000000 0.000000 -0.288008
    16 1.002930 -0.000004 0.000004 0.000000 0.000000 -0.445039
    17 0.298214 -0.637996 0.426700 -1.264353 -0.790633 -0.638569
    18 2.636719 0.000000 -0.000004 -0.000002 -0.221920 0.499922
    19 1.309570 -0.000002 -0.000002 -0.026244 -0.055141 0.588010
    20 2.033356 1.000772 -1.937610 -1.668474 1.286518 2.942953
    21 6.028141 0.000000 -0.000002 1.716056 0.874460 -0.453918
    22 11.692554 0.000000 0.000000 0.000034 -0.000012 -1.692815
    23 11.481705 -0.000001 -0.000009 -0.743560 0.298180 0.876228
    24 2.914339 -0.023172 1.404053 -0.101667 0.018501 -0.788905
    25 1.283203 -0.000004 -0.000002 0.000007 0.148980 -0.924032
    26 0.842285 0.000002 -0.000001 -0.059567 0.048353 -1.058030
    27 3.368063 0.007373 0.618550 0.035972 -0.077320 -1.016266
    28 1.605509 -0.000002 0.000002 0.000003 0.122000 -1.086872
    29 1.016602 0.000000 0.000001 0.012870 -0.013332 -1.223347
    30 3.555528 0.023914 -0.200566 0.012608 -0.103497 -0.905346
    31 1.666992 0.000002 0.000000 -0.000007 0.157404 -1.208300
    32 1.240436 0.000000 0.000005 0.000002 -0.000011 -1.279228
    33 3.449664 0.054208 -1.089087 0.053338 0.070644 -0.350285
    34 1.711614 0.000008 0.000012 0.000003 -0.030101 -0.798916
    35 1.005910 0.000002 0.000008 0.022799 -0.030302 -1.095530
    36 0.075535 -0.738752 -0.755818 1.327116 0.288669 -0.483586
    37 2.508557 -0.000008 -0.000006 -0.000002 -0.000001 0.359146
    38 1.312475 0.101566 -0.187510 0.052053 0.066392 0.654807
    39 -6.331371 -23.755335 -5.918816 1.820334 0.087475 -3.169389
    40 -0.003810 2.312519 1.197218 0.000000 0.000000 0.000000
    41 0.001230 3.011752 2.415958 -0.701585 0.000000 0.000000
    42 0.001228 2.742167 -1.331091 0.000000 0.000000 0.000000
    43 0.001229 3.617197 0.961603 -0.000001 0.000000 0.000000
    44 0.001260 2.691445 2.738224 0.000000 0.000000 0.000000
    45 0.001231 2.716781 -0.958050 -0.408226 0.000000 0.000000
    46 0.001230 -1.633585 24.004111 0.000000 -0.000001 0.000000
  time 3
    0 0.000005 -2.660156 -8.640625 -1.570760 -1.391893 -1.570827
    1 2.033348 1.000767 1.937660 1.596636 -1.286515 2.942963
    2 6.028145 0.000003 0.000002 -0.532287 -0.810926 -2.115565
    3 11.692553 0.000081 -0.000007 -0.000003 0.000024 -0.944341
    4 11.481672 -0.000089 -0.000024 0.050820 0.477066 0.124925
    5 3.281560 0.006028 -1.379481 0.060247 -0.190646 -0.990875
    6 1.328125 -0.000002 -0.000002 0.000002 -0.054909 -0.582384
    7 0.819336 0.000000 0.000001 0.000000 0.000000 -0.523584
    8 3.711854 0.109258 -0.568166 -0.040156 -0.149256 -1.054279
    9 1.610352 0.000000 0.000000 -0.000003 0.001795 -0.427550
    10 0.993190 -0.000004 0.000004 0.001476 0.002258 -0.454039
    11 3.786034 0.207136 0.247844 -0.084422 -0.093768 -0.792881
    12 1.680664 0.000002 0.000000 -0.000001 0.006216 -0.584702
    13 1.256836 0.000006 -0.000002 0.000000 0.000000 -0.532315
    14 3.594226 0.303461 1.109803 -0.047577 -0.108762 -0.915027
    15 1.723633 0.000004 -0.000004 0.000000 0.000000 -0.288008
    16 1.002930 -0.000004 0.000004 0.000000 0.000000 -0.445039
    17 0.298214 -0.634090 0.426700 -1.264594 -0.790633 -0.638107
    18 2.636719 0.000000 -0.000004 -0.000002 -0.221920 0.499922
    19 1.309570 -0.000002 -0.000002 -0.026244 -0.055141 0.588010
    20 2.033356 1.000772 -1.937610 -1.668474 1.286518 2.942953
    21 6.028141 0.000000 -0.000002 1.757289 0.884623 -0.400930
    22 11.692554 0.000000 0.000000 0.000034 -0.000012 -1.727372
    23 11.481705 -0.000001 -0.000009 -0.697060 0.377318 0.825696
    24 2.914339 -0.023172 1.404053 -0.101529 0.018669 -0.788649
    25 1.283203 -0.000004 -0.000002 0.000007 0.148980 -0.924032
    26 0.842285 0.000002 -0.000001 -0.059567 0.048353 -1.058030
    27 3.368063 0.007373 0.618550 0.036080 -0.077129 -1.016019
    28 1.605509 -0.000002 0.000002 0.000003 0.122000 -1.086872
    29 1.016602 0.000000 0.000001 0.012870 -0.013332 -1.223347
    30 3.555528 0.027820 -0.200566 0.012740 -0.103305 -0.905095
    31 1.666992 0.000002 0.000000 -0.000007 0.157404 -1.208300
    32 1.240436 0.000000 0.000005 0.000002 -0.000011 -1.279260
    33 3.449664 0.054208 -1.089087 0.053537 0.070729 -0.350032
    34 1.711614 0.000008 0.000012 0.000003 -0.030460 -0.807818
    35 1.005910 0.000002 0.000008 0.023146 -0.030506 -1.104148
    36 0.075535 -0.734846 -0.755818 1.327340 0.288792 -0.483295
    37 2.508557 -0.000008 -0.000006 -0.000002 -0.000001 0.359146
    38 1.312475 0.101566 -0.187510 0.052053 0.066424 0.654807
    39 -6.272776 -23.153754 -4.696122 1.972312 0.120077 -3.146858
    40 -0.003810 2.312519 1.197218 0.000000 0.000000 0.000000
    41 0.001230 3.011752 2.415958 -0.571649 0.000000 0.000000
    42 0.001228 2.742167 -1.331091 0.000000 0.000000 0.000000
    43 0.001229 3.617197 1.968684 -0.000001 0.000000 0.000000
    44 0.001260 2.691445 2.738224 0.000000 0.000000 0.000000
    45 0.001231 2.716781 -0.958050 -0.419435 0.000000 0.000000
    46 0.001230 -1.629678 24.004111 0.000000 -0.000001 0.000000
  time 4
    0 0.000005 -2.660156 -8.640625 -1.570760 -1.391893 -1.570827
    1 2.033348 1.000767 1.937660 1.596636 -1.286515 2.942963
    2 6.028145 0.000003 0.000002 -0.524578 -0.820764 -2.113432
    3 11.692553 0.000081 -0.000007 0.000165 0.000108 -0.956294
    4 11.481672 -0.000089 -0.000024 0.103523 0.482595 0.161017
    5 3.281560 0.006028 -1.379481 0.060553 -0.190239 -0.991546
    6 1.328125 -0.000002 -0.000002 0.000002 -0.054909 -0.582384
    7 0.819336 0.000000 0.000001 0.000000 0.000000 -0.523584
    8 3.711854 0.109258 -0.568166 -0.039877 -0.148825 -1.054952
    9 1.610352 0.000000 0.000000 -0.000003 0.001795 -0.427550
    10 0.993190 -0.000004 0.000004 0.001476 0.002258 -0.454039
    11 3.786034 0.207136 0.247844 -0.084049 -0.093433 -0.793554
    12 1.680664 0.000002 0.000000 -0.000001 0.006216 -0.584702
    13 1.256836 0.000006 -0.000002 0.000000 0.000000 -0.532315
    14 3.594226 0.303461 1.109803 -0.047245 -0.108379 -0.915703
    15 1.723633 0.000004 -0.000004 0.000000 0.000000 -0.288008
    16 1.002930 -0.000004 0.000004 0.000000 0.000000 -0.445039
    17 0.298214 -0.630183 0.426700 -1.263967 -0.790384 -0.639146
    18 2.636719 0.000000 -0.000004 -0.000002 -0.221920 0.499922
    19 1.309570 -0.000002 -0.000002 -0.026244 -0.055141 0.588010
    20 2.033356 1.000772 -1.937610 -1.668474 1.286518 2.942953
    21 6.028141 0.000000 -0.000002 1.785761 0.864717 -0.363942
    22 11.692554 0.000000 0.000000 0.000034 -0.000012 -1.765038
    23 11.481705 -0.000001 -0.000009 -0.727196 0.310798 0.877269
    24 2.910432 -0.023172 1.404053 -0.101667 0.018501 -0.788905
    25 1.283203 -0.000004 -0.000002 0.000007 0.148980 -0.924032
    26 0.842285 0.000002 -0.000001 -0.059567 0.048353 -1.058030
    27 3.368063 0.007373 0.622456 0.035972 -0.077320 -1.016266
    28 1.605509 -0.000002 0.000002 0.000003 0.122000 -1.086872
    29 1.016602 0.000000 0.000001 0.012870 -0.013332 -1.223347
    30 3.551622 0.023914 -0.200566 0.012608 -0.103497 -0.905346
    31 1.666992 0.000002 0.000000 -0.000007 0.157404 -1.208300
    32 1.240436 0.000000 0.000005 0.000002 0.000001 -1.279228
    33 3.449664 0.054208 -1.085181 0.053338 0.070644 -0.350285
    34 1.711614 0.000008 0.000012 0.000003 -0.031060 -0.822715
    35 1.005910 0.000002 0.000008 0.023745 -0.030842 -1.118385
    36 0.075535 -0.738752 -0.755818 1.327116 0.288669 -0.483586
    37 2.508557 -0.000008 -0.000006 -0.000002 -0.000001 0.359162
    38 1.312475 0.101566 -0.187510 0.052053 0.066424 0.654807
    39 -6.350903 -22.899840 -4.813313 1.914257 0.064226 -3.151556
    40 -0.003810 2.312519 1.197218 0.000000 0.000000 0.000000
    41 0.001230 3.011752 2.415958 -0.285811 0.000000 0.000000
    42 0.001228 2.742167 -1.331091 0.000000 0.000000 0.000000
    43 0.001229 3.617197 1.816096 -0.000001 0.000000 0.000000
    44 0.001260 2.691445 2.738224 0.000000 0.000000 0.000000
    45 0.001231 2.716781 -0.958050 -0.430645 0.000000 0.000000
    46 0.001230 -1.629678 24.004111 0.000000 -0.000001 0.000000
  time 5
    0 0.000005 -2.660156 -8.640625 -1.570760 -1.391893 -1.570827
    1 2.033348 1.000767 1.937660 1.596636 -1.286515 2.942963
    2 6.028145 0.000003 0.000002 -0.560676 -0.807409 -2.080984
    3 11.692553 0.000081 -0.000007 -0.000003 0.000024 -0.958976
    4 11.481672 -0.000089 -0.000024 0.114688 0.493918 0.207151
    5 3.281560 0.002122 -1.383387 0.060434 -0.190574 -0.991193
    6 1.328125 -0.000002 -0.000002 0.000002 -0.054909 -0.582384
    7 0.819336 0.000000 0.000001 0.000000 0.000000 -0.523584
    8 3.711854 0.109258 -0.568166 -0.039988 -0.149172 -1.054600
    9 1.610352 0.000000 0.000000 -0.000003 0.001795 -0.427550
    10 0.993190 -0.000004 0.000004 0.001491 0.002258 -0.454039
    11 3.786034 0.203230 0.247844 -0.084242 -0.093732 -0.793190
    12 1.680664 0.000002 0.000000 -0.000001 0.006216 -0.584702
    13 1.256836 0.000006 -0.000002 0.000000 0.000000 -0.532315
    14 3.594226 0.299555 1.113710 -0.047403 -0.108702 -0.915365
    15 1.723633 0.000004 -0.000004 0.000000 0.000000 -0.288008
    16 1.002930 -0.000004 0.000004 0.000000 0.000000 -0.445039
    17 0.298214 -0.637996 0.426700 -1.264353 -0.790633 -0.638569
    18 2.636719 0.000000 -0.000004 -0.000002 -0.221920 0.499922
    19 1.309570 -0.000002 -0.000002 -0.026244 -0.055141 0.588010
    20 2.033356 1.000772 -1.937610 -1.668474 1.286518 2.942953
    21 6.028141 0.000000 -0.000002 1.743778 0.885670 -0.418515
    22 11.692554 0.000000 0.000000 0.000034 -0.000012 -1.725529
    23 11.481705 -0.000001 -0.000009 -0.833317 0.219006 0.947883
    24 2.910432 -0.023172 1.400147 -0.101667 0.018501 -0.788905
    25 1.283203 -0.000004 -0.000002 0.000007 0.148980 -0.924032
    26 0.842285 0.000002 -0.000001 -0.059567 0.048353 -1.058030
    27 3.368063 0.007373 0.618550 0.035972 -0.077320 -1.016266
    28 1.605509 -0.000002 0.000002 0.000003 0.122000 -1.086872
    29 1.016602 0.000000 0.000001 0.012870 -0.013332 -1.223347
    30 3.551622 0.023914 -0.200566 0.012608 -0.103497 -0.905346
    31 1.666992 0.000002 0.000000 -0.000007 0.157404 -1.208300
    32 1.240436 0.000000 0.000005 0.000002 -0.000011 -1.279228
    33 3.449664 0.054208 -1.089087 0.053338 0.070644 -0.350285
    34 1.711614 0.000008 0.000012 0.000003 -0.031179 -0.825712
    35 1.005910 0.000002 0.000008 0.023865 -0.030902 -1.121249
    36 0.075535 -0.738752 -0.755818 1.327116 0.288669 -0.483586
    37 2.508557 -0.000008 -0.000006 -0.000002 -0.000001 0.359146
    38 1.312475 0.101566 -0.187510 0.052053 0.066424 0.654807
    39 -6.065738 -23.474077 -5.871940 1.747459 -0.018617 -3.163349
    40 -0.003810 2.312519 1.197218 0.000000 0.000000 0.000000
    41 0.001230 3.011752 2.415958 -0.000025 0.000000 0.000000
    42 0.001228 2.742167 -1.331091 0.000000 0.000000 0.000000
    43 0.001229 3.617197 1.358332 -0.000001 0.000000 0.000000
    44 0.001260 2.691445 2.738224 0.000000 0.000000 0.000000
    45 0.001231 2.716781 -0.958050 -0.435751 0.000000 0.000000
    46 0.001230 -1.629678 24.004111 0.000000 -0.000001 0.000000
  time 6
    0 0.000005 -2.660156 -8.640625 -1.570760 -1.391893 -1.570827
    1 2.033348 1.000767 1.937660 1.596636 -1.286515 2.942963
    2 6.028145 0.000003 0.000002 -0.605572 -0.786022 -2.045754
    3 11.692553 0.000081 -0.000007 -0.000003 0.000024 -0.953919
    4 11.481672 -0.000089 -0.000024 0.101034 0.506697 0.266930
    5 3.281560 0.002122 -1.379481 0.060434 -0.190574 -0.991193
    6 1.328125 -0.000002 -0.000002 0.000002 -0.054909 -0.582384
    7 0.819336 0.000000 0.000001 0.000000 0.000000 -0.523584
    8 3.711854 0.109258 -0.568166 -0.039988 -0.149172 -1.054600
    9 1.610352 0.000000 0.000000 -0.000003 0.001795 -0.427550
    10 0.993190 -0.000004 0.000004 0.001476 0.002258 -0.454039
    11 3.786034 0.203230 0.247844 -0.084242 -0.093732 -0.793190
    12 1.680664 0.000002 0.000000 -0.000001 0.006216 -0.584702
    13 1.256836 0.000006 -0.000002 0.000000 0.000000 -0.532315
    14 3.594226 0.299555 1.113710 -0.047403 -0.108702 -0.915365
    15 1.723633 0.000004 -0.000004 0.000000 0.000000 -0.288008
    16 1.002930 -0.000004 0.000004 0.000000 0.000000 -0.445039
    17 0.298214 -0.637996 0.426700 -1.264353 -0.790633 -0.638569
    18 2.636719 0.000000 -0.000004 -0.000002 -0.221920 0.499922
    19 1.309570 -0.000002 -0.000002 -0.026244 -0.055141 0.588010
    20 2.033356 1.000772 -1.937610 -1.668474 1.286518 2.942953
    21 6.028141 0.000000 -0.000002 1.711953 0.880607 -0.459515
    22 11.692554 0.000000 0.000000 0.000058 0.000012 -1.700590
    23 11.481705 -0.000001 -0.000009 -0.904605 0.144697 1.012164
    24 2.914339 -0.027078 1.400147 -0.101893 0.019016 -0.789332
    25 1.283203 -0.000004 -0.000002 0.000007 0.148980 -0.924032
    26 0.842285 0.000002 -0.000001 -0.059567 0.048353 -1.058030
    27 3.371969 0.007373 0.618550 0.035648 -0.076877 -1.016662
    28 1.605509 -0.000002 0.000002 0.000003 0.122000 -1.086872
    29 1.016602 0.000000 0.000001 0.012870 -0.013332 -1.223347
    30 3.555528 0.023914 -0.204472 0.012345 -0.103017 -0.905741
    31 1.666992 0.000002 0.000000 -0.000007 0.157404 -1.208300
    32 1.240436 0.000000 0.000005 0.000002 0.000001 -1.279260
    33 3.453570 0.054208 -1.085181 0.053365 0.071192 -0.350717
    34 1.711614 0.000008 0.000012 0.000003 -0.030101 -0.798916
    35 1.005910 0.000002 0.000008 0.022799 -0.030302 -1.095530
    36 0.079442 -0.734846 -0.755818 1.327079 0.289224 -0.484022
    37 2.508557 -0.000008 -0.000006 -0.000002 -0.000001 0.359162
    38 1.312475 0.101566 -0.187510 0.052053 0.066424 0.654807
    39 -6.081363 -23.794399 -6.946191 1.603550 -0.073355 -3.162486
    40 -0.003810 2.312519 1.197218 0.000000 0.000000 0.000000
    41 0.001230 3.011752 2.415958 -0.000025 0.000000 0.000000
    42 0.001228 2.742167 -1.331091 0.000000 0.000000 0.000000
    43 0.001229 3.617197 0.625910 -0.000001 0.000000 0.000000
    44 0.001260 2.691445 2.738224 0.000000 0.000000 0.000000
    45 0.001231 2.716781 -0.958050 -0.428597 0.000000 0.000000
    46 0.001230 -1.629678 24.004111 0.000000 -0.000001 0.000000
  time 7
    0 0.000005 -2.660156 -8.640625 -1.570760 -1.391893 -1.570827
    1 2.033348 1.000767 1.937660 1.596636 -1.286515 2.942963
    2 6.028145 0.000003 0.000002 -0.628882 -0.772049 -2.029251
    3 11.692553 0.000081 -0.000007 -0.000003 0.000024 -0.951620
    4 11.481672 -0.000089 -0.000024 0.072131 0.514875 0.333443
    5 3.281560 0.002122 -1.383387 0.060417 -0.190574 -0.991193
    6 1.328125 -0.000002 -0.000002 0.000002 -0.054909 -0.582384
    7 0.819336 0.000000 0.000001 0.000000 0.000000 -0.523584
    8 3.711854 0.109258 -0.568166 -0.039988 -0.149172 -1.054600
    9 1.610352 0.000000 0.000000 -0.000003 0.001795 -0.427550
    10 0.993190 -0.000004 0.000004 0.001476 0.002258 -0.454039
    11 3.786034 0.203230 0.247844 -0.084242 -0.093732 -0.793190
    12 1.680664 0.000002 0.000000 -0.000001 0.006216 -0.584702
    13 1.256836 0.000006 -0.000002 0.000000 0.000000 -0.532315
    14 3.594226 0.299555 1.113710 -0.047403 -0.108702 -0.915365
    15 1.723633 0.000004 -0.000004 0.000000 0.000000 -0.288008
    16 1.002930 -0.000004 0.000004 0.000000 0.000000 -0.445039
    17 0.298214 -0.637996 0.426700 -1.264353 -0.790633 -0.638569
    18 2.636719 0.000000 -0.000004 -0.000002 -0.221920 0.499922
    19 1.309570 -0.000002 -0.000002 -0.026244 -0.055141 0.588010
    20 2.033356 1.000772 -1.937610 -1.668474 1.286518 2.942953
    21 6.028141 0.000000 -0.000002 1.694589 0.877918 -0.482090
    22 11.692554 0.000000 0.000000 0.000034 -0.000012 -1.679972
    23 11.481705 -0.000001 -0.000009 -0.924209 0.118671 1.026261
    24 2.914339 -0.023172 1.404053 -0.101667 0.018501 -0.788905
    25 1.283203 -0.000004 -0.000002 0.000007 0.148980 -0.924032
    26 0.842285 0.000002 -0.000001 -0.059567 0.048353 -1.058030
    27 3.368063 0.007373 0.622456 0.035972 -0.077320 -1.016266
    28 1.605509 -0.000002 0.000002 0.000003 0.122000 -1.086872
    29 1.016602 0.000000 0.000001 0.012870 -0.013332 -1.223347
    30 3.551622 0.023914 -0.200566 0.012608 -0.103497 -0.905346
    31 1.666992 0.000002 0.000000 -0.000007 0.157404 -1.208300
    32 1.240436 0.000000 0.000005 0.000002 -0.000011 -1.279228
    33 3.449664 0.054208 -1.089087 0.053338 0.070644 -0.350285
    34 1.711614 0.000008 0.000012 0.000003 -0.027728 -0.741565
    35 1.005910 0.000002 0.000008 0.020617 -0.028984 -1.042916
    36 0.075535 -0.738752 -0.755818 1.327116 0.288669 -0.483586
    37 2.508557 -0.000008 -0.000006 -0.000002 -0.000001 0.359162
    38 1.312475 0.101566 -0.187510 0.052053 0.066392 0.654807
    39 -6.112614 -23.981905 -7.454019 1.546898 -0.082708 -3.157788
    40 -0.003810 2.312519 1.197218 0.000000 0.000000 0.000000
    41 0.001230 3.011752 2.415958 -0.000025 0.000000 0.000000
    42 0.001228 2.742167 -1.331091 0.000000 0.000000 0.000000
    43 0.001229 3.617197 0.625910 -0.000001 0.000000 0.000000
    44 0.001260 2.691445 2.738224 0.000000 0.000000 0.000000
    45 0.001231 2.716781 -0.958050 -0.403146 0.000000 0.000000
    46 0.001230 -1.629678 24.004111 0.000000 -0.000001 0.000000
  time 8
    0 0.000005 -2.660156 -8.640625 -1.570760 -1.391893 -1.570827
    1 2.033348 1.000767 1.937660 1.596636 -1.286515 2.942963
    2 6.028145 0.000003 0.000002 -0.637408 -0.765205 -2.021371
    3 11.692553 0.000081 -0.000007 -0.000003 0.000024 -0.960661
    4 11.481672 -0.000089 -0.000024 0.048906 0.519411 0.376919
    5 3.281560 0.002122 -1.379481 0.060417 -0.190574 -0.991193
    6 1.328125 -0.000002 -0.000002 0.000002 -0.054909 -0.582384
    7 0.819336 0.000000 0.000001 0.000000 0.000000 -0.523584
    8 3.711854 0.109258 -0.572072 -0.039988 -0.149184 -1.054600
    9 1.610352 0.000000 0.000000 -0.000003 0.001795 -0.427550
    10 0.993190 -0.000004 0.000004 0.001476 0.002270 -0.454039
    11 3.786034 0.203230 0.243937 -0.084242 -0.093732 -0.793190
    12 1.680664 0.000002 0.000000 -0.000001 0.006216 -0.584702
    13 1.256836 0.000006 -0.000002 0.000000 0.000000 -0.532315
    14 3.594226 0.299555 1.113710 -0.047403 -0.108702 -0.915365
    15 1.723633 0.000004 -0.000004 0.000000 0.000000 -0.288008
    16 1.002930 -0.000004 0.000004 0.000000 0.000000 -0.445039
    17 0.298214 -0.634090 0.426700 -1.264353 -0.790633 -0.638569
    18 2.636719 0.000000 -0.000004 -0.000002 -0.221920 0.499922
    19 1.309570 -0.000002 -0.000002 -0.026244 -0.055141 0.588010
    20 2.033356 1.000772 -1.937610 -1.668474 1.286518 2.942953
    21 6.028141 0.000000 -0.000002 1.691337 0.882423 -0.486428
    22 11.692554 0.000000 0.000000 0.000034 -0.000012 -1.666380
    23 11.481705 -0.000001 -0.000009 -0.916190 0.111240 1.018367
    24 2.910432 -0.023172 1.404053 -0.101667 0.018501 -0.788905
    25 1.283203 -0.000004 -0.000002 0.000007 0.148980 -0.924032
    26 0.842285 0.000002 -0.000001 -0.059567 0.048353 -1.058030
    27 3.368063 0.007373 0.622456 0.035972 -0.077332 -1.016266
    28 1.605509 -0.000002 0.000002 0.000003 0.122000 -1.086872
    29 1.016602 0.000000 0.000001 0.012870 -0.013332 -1.223347
    30 3.551622 0.023914 -0.200566 0.012608 -0.103497 -0.905346
    31 1.666992 0.000002 0.000000 -0.000007 0.157404 -1.208300
    32 1.240436 0.000000 0.000005 0.000002 -0.000011 -1.279228
    33 3.449664 0.054208 -1.089087 0.053338 0.070644 -0.350285
    34 1.711614 0.000008 0.000012 0.000003 -0.024588 -0.668378
    35 1.005910 0.000002 0.000008 0.018077 -0.027210 -0.978554
    36 0.075535 -0.738752 -0.755818 1.327116 0.288669 -0.483586
    37 2.508557 -0.000008 -0.000006 -0.000002 -0.000001 0.359162
    38 1.312475 0.101566 -0.187510 0.052053 0.066424 0.654807
    39 -6.069644 -24.095189 -7.512615 1.540321 -0.071974 -3.150693
    40 -0.003810 2.312519 1.197218 0.000000 0.000000 0.000000
    41 0.001230 3.011752 2.415958 -0.000025 0.000000 0.000000
    42 0.001228 2.742167 -1.331091 0.000000 0.000000 0.000000
    43 0.001229 3.617197 0.625910 -0.000001 0.000000 0.000000
    44 0.001260 2.691445 2.738224 0.000000 0.000000 0.000000
    45 0.001231 2.716781 -0.958050 -0.350662 0.000000 0.000000
    46 0.001230 -1.629678 24.004111 0.000000 -0.000001 0.000000
  time 9
    0 0.000005 -2.660156 -8.640625 -1.570760 -1.391893 -1.570827
    1 2.033348 1.000767 1.937660 1.596636 -1.286515 2.942963
    2 6.028145 0.000003 0.000002 -0.628973 -0.769198 -2.028324
    3 11.692553 0.000081 -0.000007 -0.000003 0.000024 -0.961504
    4 11.481672 -0.000089 -0.000024 0.035060 0.520801 0.383417
    5 3.281560 0.002122 -1.383387 0.060417 -0.190574 -0.991193
    6 1.328125 -0.000002 -0.000002 0.000002 -0.054909 -0.582384
    7 0.819336 0.000000 0.000001 0.000000 0.000000 -0.523584
    8 3.711854 0.109258 -0.568166 -0.039988 -0.149172 -1.054600
    9 1.610352 0.000000 0.000000 -0.000003 0.001795 -0.427550
    10 0.993190 -0.000004 0.000004 0.001476 0.002258 -0.454039
    11 3.786034 0.203230 0.243937 -0.084242 -0.093732 -0.793190
    12 1.680664 0.000002 0.000000 -0.000001 0.006216 -0.584702
    13 1.256836 0.000006 -0.000002 0.000000 0.000000 -0.532315
    14 3.594226 0.299555 1.109803 -0.047403 -0.108702 -0.915365
    15 1.723633 0.000004 -0.000004 0.000000 0.000000 -0.288008
    16 1.002930 -0.000004 0.000004 0.000000 0.000000 -0.445039
    17 0.298214 -0.637996 0.426700 -1.264353 -0.790633 -0.638569
    18 2.636719 0.000000 -0.000004 -0.000002 -0.221920 0.499922
    19 1.309570 -0.000002 -0.000002 -0.026244 -0.055141 0.588010
    20 2.033356 1.000772 -1.937610 -1.668474 1.286518 2.942953
    21 6.028141 0.000000 -0.000002 1.699443 0.884134 -0.475700
    22 11.692554 0.000000 0.000000 0.000034 -0.000012 -1.662521
    23 11.481705 -0.000001 -0.000009 -0.889538 0.112604 0.997764
    24 2.910432 -0.023172 1.404053 -0.101667 0.018501 -0.788905
    25 1.283203 -0.000004 -0.000002 0.000007 0.148980 -0.924032
    26 0.842285 0.000002 -0.000001 -0.059567 0.048353 -1.058030
    27 3.368063 0.007373 0.618550 0.035972 -0.077320 -1.016266
    28 1.605509 -0.000002 0.000002 0.000003 0.122000 -1.086872
    29 1.016602 0.000000 0.000001 0.012870 -0.013332 -1.223347
    30 3.555528 0.023914 -0.200566 0.012608 -0.103497 -0.905346
    31 1.666992 0.000002 0.000000 -0.000007 0.157404 -1.208300
    32 1.240436 0.000000 0.000005 0.000002 -0.000011 -1.279228
    33 3.449664 0.054208 -1.089087 0.053338 0.070644 -0.350285
    34 1.711614 0.000008 0.000012 0.000003 -0.020849 -0.584634
    35 1.005910 0.000002 0.000008 0.015320 -0.025005 -0.905734
    36 0.075535 -0.738752 -0.755818 1.327116 0.288669 -0.483586
    37 2.508557 -0.000008 -0.000006 -0.000002 -0.000001 0.359146
    38 1.312475 0.101566 -0.187510 0.052053 0.066424 0.654807
    39 -6.069644 -24.126440 -7.344641 1.562420 -0.050106 -3.143311
    40 -0.003810 2.312519 1.197218 0.000000 0.000000 0.000000
    41 0.001230 3.011752 2.415958 -0.000025 0.000000 0.000000
    42 0.001228 2.742167 -1.331091 0.000000 0.000000 0.000000
    43 0.001229 3.617197 0.625910 -0.000001 0.000000 0.000000
    44 0.001260 2.691445 2.738224 0.000000 0.000000 0.000000
    45 0.001231 2.716781 -0.958050 -0.273551 0.000000 0.000000
    46 0.001230 -1.629678 24.004111 0.000000 -0.000001 0.000000
  time 10
    0 0.000005 -2.660156 -8.640625 -1.570760 -1.391893 -1.570827
    1 2.033348 1.000767 1.937660 1.596636 -1.286515 2.942963
    2 6.028145 0.000003 0.000002 -0.612012 -0.778275 -2.044085
    3 11.692553 0.000081 -0.000007 -0.000003 0.000024 -0.953995
    4 11.481672 -0.000089 -0.000024 0.022235 0.520768 0.371839
    5 3.281560 0.002122 -1.379481 0.060417 -0.190574 -0.991193
    6 1.328125 -0.000002 -0.000002 0.000002 -0.054909 -0.582384
    7 0.819336 0.000000 0.000001 0.000000 0.000000 -0.523584
    8 3.711854 0.109258 -0.568166 -0.039988 -0.149172 -1.054600
    9 1.610352 0.000000 0.000000 -0.000003 0.001795 -0.427550
    10 0.993190 -0.000004 0.000004 0.001476 0.002258 -0.454039
    11 3.786034 0.203230 0.247844 -0.084242 -0.093732 -0.793190
    12 1.680664 0.000002 0.000000 -0.000001 0.006216 -0.584702
    13 1.256836 0.000006 -0.000002 0.000000 0.000000 -0.532315
    14 3.594226 0.299555 1.109803 -0.047403 -0.108702 -0.915365
    15 1.723633 0.000004 -0.000004 0.000000 0.000000 -0.288008
    16 1.002930 -0.000004 0.000004 0.000000 0.000000 -0.445039
    17 0.298214 -0.637996 0.426700 -1.264353 -0.790633 -0.638569
    18 2.636719 0.000000 -0.000004 -0.000002 -0.221920 0.499922
    19 1.309570 -0.000002 -0.000002 -0.026244 -0.055141 0.588010
    20 2.033356 1.000772 -1.937610 -1.668474 1.286518 2.942953
    21 6.028141 0.000000 -0.000002 1.714955 0.883051 -0.455317
    22 11.692554 0.000000 0.000000 0.000034 -0.000012 -1.665977
    23 11.481705 -0.000001 -0.000009 -0.853327 0.118348 0.972910
    24 2.910432 -0.023172 1.404053 -0.101667 0.018501 -0.788905
    25 1.283203 -0.000004 -0.000002 0.000007 0.148980 -0.924032
    26 0.842285 0.000002 -0.000001 -0.059567 0.048353 -1.058030
    27 3.368063 0.007373 0.618550 0.035972 -0.077320 -1.016266
    28 1.605509 -0.000002 0.000002 0.000003 0.122000 -1.086872
    29 1.016602 0.000000 0.000001 0.012870 -0.013332 -1.223347
    30 3.551622 0.023914 -0.204472 0.012608 -0.103497 -0.905346
    31 1.666992 0.000002 0.000000 -0.000007 0.157404 -1.208300
    32 1.240436 0.000000 0.000005 0.000002 -0.000011 -1.279228
    33 3.449664 0.054208 -1.089087 0.053338 0.070644 -0.350285
    34 1.711614 0.000008 0.000012 0.000003 -0.016726 -0.495566
    35 1.005910 0.000002 0.000008 0.012576 -0.022441 -0.827536
    36 0.075535 -0.738752 -0.755818 1.327116 0.288669 -0.483586
    37 2.508557 -0.000008 -0.000006 -0.000002 -0.000001 0.359162
    38 1.312475 0.101566 -0.187510 0.052053 0.066424 0.654807
    39 -6.100895 -24.087376 -7.047757 1.598902 -0.023828 -3.135258
    40 -0.003810 2.312519 1.197218 0.000000 0.000000 0.000000
    41 0.001230 3.011752 2.415958 -0.000025 0.000000 0.000000
    42 0.001228 2.742167 -1.331091 0.000000 0.000000 0.000000
    43 0.001229 3.617197 0.625910 -0.000001 0.000000 0.000000
    44 0.001260 2.691445 2.738224 0.000000 0.000000 0.000000
    45 0.001231 2.716781 -0.958050 -0.182359 0.000000 0.000000
    46 0.001230 -1.629678 24.004111 0.000000 -0.000001 0.000000
  time 11
    0 0.000005 -2.660156 -8.640625 -1.570760 -1.391893 -1.570827
    1 2.033348 1.000767 1.937660 1.596636 -1.286515 2.942963
    2 6.028145 0.000003 0.000002 -0.593237 -0.789254 -2.062349
    3 11.692553 0.000081 -0.000007 -0.000003 0.000024 -0.939743
    4 11.481672 -0.000089 -0.000024 0.011133 0.520437 0.344548
    5 3.281560 0.002122 -1.379481 0.060434 -0.190574 -0.991193
    6 1.328125 -0.000002 -0.000002 0.000002 -0.054909 -0.582384
    7 0.819336 0.000000 0.000001 0.000000 0.000000 -0.523584
    8 3.711854 0.109258 -0.568166 -0.039988 -0.149172 -1.054600
    9 1.610352 0.000000 0.000000 -0.000003 0.001795 -0.427550
    10 0.993190 -0.000004 0.000004 0.001476 0.002258 -0.454039
    11 3.786034 0.203230 0.247844 -0.084242 -0.093732 -0.793190
    12 1.680664 0.000002 0.000000 -0.000001 0.006216 -0.584702
    13 1.256836 0.000006 -0.000002 0.000000 0.000000 -0.532315
    14 3.594226 0.299555 1.109803 -0.047403 -0.108702 -0.915365
    15 1.723633 0.000004 -0.000004 0.000000 0.000000 -0.288008
    16 1.002930 -0.000004 0.000004 0.000000 0.000000 -0.445039
    17 0.298214 -0.637996 0.426700 -1.264305 -0.790633 -0.638569
    18 2.636719 0.000000 -0.000004 -0.000002 -0.221920 0.499922
    19 1.309570 -0.000002 -0.000002 -0.026244 -0.055141 0.588010
    20 2.033356 1.000772 -1.937610 -1.668474 1.286518 2.942953
    21 6.028141 0.000000 -0.000002 1.732269 0.881026 -0.432555
    22 11.692554 0.000000 0.000000 0.000034 -0.000012 -1.672888
    23 11.481705 -0.000001 -0.000009 -0.817926 0.124307 0.951960
    24 2.914339 -0.023172 1.404053 -0.101494 0.018417 -0.788621
    25 1.283203 -0.000004 -0.000002 0.000007 0.148980 -0.924032
    26 0.842285 0.000002 -0.000001 -0.059567 0.048353 -1.058030
    27 3.368063 0.007373 0.618550 0.036175 -0.077368 -1.015994
    28 1.605509 -0.000002 0.000002 0.000003 0.121988 -1.086911
    29 1.016602 0.000000 0.000001 0.012870 -0.013332 -1.223347
    30 3.551622 0.027820 -0.204472 0.012800 -0.103557 -0.905095
    31 1.666992 0.000002 0.000000 -0.000007 0.157404 -1.208300
    32 1.240436 0.000000 0.000005 0.000002 -0.000011 -1.279228
    33 3.449664 0.054208 -1.089087 0.053457 0.070490 -0.349996
    34 1.711614 0.000008 0.000012 0.000003 -0.012483 -0.406542
    35 1.005910 0.000002 0.000008 0.009951 -0.019576 -0.747250
    36 0.075535 -0.734846 -0.755818 1.327265 0.288546 -0.483271
    37 2.508557 -0.000008 -0.000006 -0.000002 -0.000001 0.359162
    38 1.312475 0.101566 -0.187510 0.052053 0.066424 0.654807
    39 -6.143865 -24.009249 -6.727434 1.635208 0.000179 -3.126917
    40 -0.003810 2.312519 1.197218 0.000000 0.000000 0.000000
    41 0.001230 3.011752 2.415958 -0.000025 0.000000 0.000000
    42 0.001228 2.742167 -1.331091 0.000000 0.000000 0.000000
    43 0.001229 3.617197 0.625910 -0.000001 0.000000 0.000000
    44 0.001260 2.691445 2.738224 0.000000 0.000000 0.000000
    45 0.001231 2.716781 -0.958050 -0.087656 0.000000 0.000000
    46 0.001230 -1.629678 24.004111 0.000000 -0.000001 0.000000
  time 12
    0 0.000005 -2.660156 -8.640625 -1.570760 -1.391893 -1.570827
    1 2.033348 1.000767 1.937660 1.596636 -1.286515 2.942963
    2 6.028145 0.000003 0.000002 -0.577274 -0.798806 -2.077646
    3 11.692553 0.000081 -0.000007 -0.000003 0.000024 -0.927407
    4 11.481672 -0.000089 -0.000024 0.001435 0.519146 0.310465
    5 3.281560 0.006028 -1.379481 0.060281 -0.190322 -0.990981
    6 1.328125 -0.000002 -0.000002 0.000002 -0.054909 -0.582384
    7 0.819336 0.000000 0.000001 0.000000 0.000000 -0.523584
    8 3.711854 0.109258 -0.568166 -0.040170 -0.148944 -1.054376
    9 1.610352 0.000000 0.000000 -0.000003 0.001795 -0.427550
    10 0.993190 -0.000004 0.000004 0.001476 0.002258 -0.454039
    11 3.786034 0.203230 0.243937 -0.084332 -0.093457 -0.792993
    12 1.680664 0.000002 0.000000 -0.000001 0.006216 -0.584702
    13 1.256836 0.000006 -0.000002 0.000000 0.000000 -0.532315
    14 3.594226 0.299555 1.109803 -0.047533 -0.108439 -0.915168
    15 1.723633 0.000004 -0.000004 0.000000 0.000000 -0.288008
    16 1.002930 -0.000004 0.000004 0.000000 0.000000 -0.445039
    17 0.298214 -0.637996 0.430606 -1.264401 -0.790363 -0.638338
    18 2.636719 0.000000 -0.000004 -0.000002 -0.221920 0.499922
    19 1.309570 -0.000002 -0.000002 -0.026244 -0.055141 0.588010
    20 2.033356 1.000772 -1.937610 -1.668474 1.286518 2.942953
    21 6.028141 0.000000 -0.000002 1.748082 0.878476 -0.411798
    22 11.692554 0.000000 0.000000 0.000010 0.000000 -1.680663
    23 11.481705 -0.000001 -0.000009 -0.791922 0.123696 0.943805
    24 2.914339 -0.027078 1.400147 -0.101875 0.018908 -0.789303
    25 1.283203 -0.000004 -0.000002 0.000007 0.148980 -0.924032
    26 0.842285 0.000002 -0.000001 -0.059567 0.048353 -1.058030
    27 3.371969 0.007373 0.618550 0.035684 -0.076973 -1.016637
    28 1.605509 -0.000002 0.000002 0.000003 0.122000 -1.086872
    29 1.016602 0.000000 0.000001 0.012870 -0.013332 -1.223347
    30 3.555528 0.023914 -0.204472 0.012369 -0.103113 -0.905705
    31 1.666992 0.000002 0.000000 -0.000007 0.157404 -1.208300
    32 1.240436 0.000000 0.000005 0.000002 -0.000011 -1.279228
    33 3.453570 0.054208 -1.089087 0.053325 0.071094 -0.350681
    34 1.711614 0.000008 0.000012 0.000003 -0.008421 -0.322887
    35 1.005910 0.000002 0.000008 0.007602 -0.016556 -0.668007
    36 0.079442 -0.734846 -0.755818 1.327041 0.289121 -0.484022
    37 2.508557 -0.000008 -0.000006 -0.000002 -0.000001 0.359162
    38 1.312475 0.101566 -0.187510 0.052053 0.066424 0.654807
    39 -6.182929 -23.923309 -6.496959 1.656693 0.015767 -3.119822
    40 -0.003810 2.312519 1.197218 0.000000 0.000000 0.000000
    41 0.001230 3.011752 2.415958 -0.000025 0.000000 0.000000
    42 0.001228 2.742167 -1.331091 0.000000 0.000000 0.000000
    43 0.001229 3.617197 0.625910 -0.000001 0.000000 0.000000
    44 0.001260 2.691445 2.738224 0.000000 0.000000 0.000000
    45 0.001231 2.716781 -0.958050 0.000000 0.000000 0.000000
    46 0.001230 -1.629678 24.004111 0.000000 -0.000001 0.000000
  time 13
    0 0.000005 -2.660156 -8.640625 -1.570760 -1.391893 -1.570827
    1 2.033348 1.000767 1.937660 1.596636 -1.286515 2.942963
    2 6.028145 0.000003 0.000002 -0.573283 -0.800993 -2.079964
    3 11.692553 0.000081 -0.000007 -0.000003 0.000024 -0.929399
    4 11.481672 -0.000089 -0.000024 -0.004499 0.518053 0.280221
    5 3.281560 0.002122 -1.379481 0.060417 -0.190574 -0.991193
    6 1.328125 -0.000002 -0.000002 0.000002 -0.054909 -0.582384
    7 0.819336 0.000000 0.000001 0.000000 0.000000 -0.523584
    8 3.711854 0.109258 -0.568166 -0.039988 -0.149172 -1.054600
    9 1.610352 0.000000 0.000000 -0.000003 0.001795 -0.427550
    10 0.993190 -0.000004 0.000004 0.001476 0.002258 -0.454039
    11 3.786034 0.203230 0.247844 -0.084242 -0.093732 -0.793190
    12 1.680664 0.000002 0.000000 -0.000001 0.006216 -0.584702
    13 1.256836 0.000006 -0.000002 0.000000 0.000000 -0.532315
    14 3.594226 0.299555 1.113710 -0.047403 -0.108702 -0.915365
    15 1.723633 0.000004 -0.000004 0.000000 0.000000 -0.288008
    16 1.002930 -0.000004 0.000004 0.000000 0.000000 -0.445039
    17 0.298214 -0.637996 0.430606 -1.264353 -0.790633 -0.638569
    18 2.636719 0.000000 -0.000004 -0.000002 -0.221920 0.499922
    19 1.309570 -0.000002 -0.000002 -0.026244 -0.055141 0.588010
    20 2.033356 1.000772 -1.937610 -1.668474 1.286518 2.942953
    21 6.028141 0.000000 -0.000002 1.756989 0.876835 -0.400091
    22 11.692554 0.000000 0.000000 0.000034 -0.000012 -1.684407
    23 11.481705 -0.000001 -0.000009 -0.779933 0.120466 0.942808
    24 2.910432 -0.023172 1.400147 -0.101667 0.018501 -0.788905
    25 1.283203 -0.000004 -0.000002 0.000007 0.148980 -0.924032
    26 0.842285 0.000002 -0.000001 -0.059567 0.048353 -1.058030
    27 3.368063 0.007373 0.618550 0.035972 -0.077320 -1.016266
    28 1.605509 -0.000002 0.000002 0.000003 0.121988 -1.086911
    29 1.016602 0.000000 0.000001 0.012870 -0.013332 -1.223347
    30 3.551622 0.023914 -0.204472 0.012608 -0.103497 -0.905346
    31 1.666992 0.000002 0.000000 -0.000007 0.157404 -1.208300
    32 1.240436 0.000000 0.000005 0.000002 -0.000011 -1.279228
    33 3.449664 0.054208 -1.089087 0.053338 0.070644 -0.350285
    34 1.711614 0.000008 0.000012 0.000003 -0.008421 -0.322887
    35 1.005910 0.000002 0.000008 0.005613 -0.013536 -0.593074
    36 0.075535 -0.738752 -0.755818 1.327116 0.288669 -0.483586
    37 2.508557 -0.000008 -0.000006 -0.000002 -0.000001 0.359162
    38 1.312475 0.101566 -0.187510 0.052053 0.066392 0.654807
    39 -6.214180 -23.872526 -6.391487 1.662481 0.022003 -3.117521
    40 -0.003810 2.312519 1.197218 0.000000 0.000000 0.000000
    41 0.001230 3.011752 2.415958 -0.000025 0.000000 0.000000
    42 0.001228 2.742167 -1.331091 0.000000 0.000000 0.000000
    43 0.001229 3.617197 0.625910 -0.000001 0.000000 0.000000
    44 0.001260 2.691445 2.738224 0.000000 0.000000 0.000000
    45 0.001231 2.716781 -0.958050 0.000000 0.000000 0.000000
    46 0.001230 -1.629678 24.004111 0.000000 -0.000001 0.000000
  time 14
    0 0.000005 -2.660156 -8.640625 -1.570760 -1.391893 -1.570827
    1 2.033348 1.000767 1.937660 1.596636 -1.286515 2.942963
    2 6.028145 0.000003 0.000002 -0.574553 -0.799614 -2.078017
    3 11.692553 0.000081 -0.000007 -0.000003 0.000024 -0.934686
    4 11.481672 -0.000089 -0.000024 -0.009157 0.516067 0.254348
    5 3.281560 0.002122 -1.383387 0.060417 -0.190574 -0.991193
    6 1.328125 -0.000002 -0.000002 0.000002 -0.054909 -0.582384
    7 0.819336 0.000000 0.000001 0.000000 0.000000 -0.523584
    8 3.711854 0.109258 -0.572072 -0.039988 -0.149172 -1.054600
    9 1.610352 0.000000 0.000000 -0.000003 0.001795 -0.427550
    10 0.993190 -0.000004 0.000004 0.001476 0.002258 -0.454039
    11 3.786034 0.203230 0.247844 -0.084242 -0.093732 -0.793190
    12 1.680664 0.000002 0.000000 -0.000001 0.006216 -0.584702
    13 1.256836 0.000006 -0.000002 0.000000 0.000000 -0.532315
    14 3.594226 0.299555 1.109803 -0.047403 -0.108702 -0.915365
    15 1.723633 0.000004 -0.000004 0.000000 0.000000 -0.288008
    16 1.002930 -0.000004 0.000004 0.000000 0.000000 -0.445039
    17 0.298214 -0.637996 0.426700 -1.264353 -0.790633 -0.638569
    18 2.636719 0.000000 -0.000004 -0.000002 -0.221920 0.499922
    19 1.309570 -0.000002 -0.000002 -0.026244 -0.055141 0.588010
    20 2.033356 1.000772 -1.937610 -1.668474 1.286518 2.942953
    21 6.028141 0.000000 -0.000002 1.758890 0.876381 -0.397619
    22 11.692554 0.000000 0.000000 0.000034 -0.000012 -1.686710
    23 11.481705 -0.000001 -0.000009 -0.777826 0.121291 0.946972
    24 2.910432 -0.023172 1.404053 -0.101529 0.018297 -0.788678
    25 1.283203 -0.000004 -0.000002 0.000007 0.148980 -0.924032
    26 0.842285 0.000002 -0.000001 -0.059567 0.048353 -1.058030
    27 3.368063 0.007373 0.618550 0.036163 -0.077488 -1.016044
    28 1.605509 -0.000002 0.000002 0.000003 0.122000 -1.086872
    29 1.016602 0.000000 0.000001 0.012870 -0.013332 -1.223347
    30 3.551622 0.027820 -0.204472 0.012776 -0.103677 -0.905131
    31 1.666992 0.000002 0.000000 -0.000007 0.157404 -1.208300
    32 1.240436 0.000000 0.000005 0.000002 -0.000011 -1.279228
    33 3.449664 0.054208 -1.089087 0.053378 0.070406 -0.350032
    34 1.711614 0.000008 0.000012 0.000003 -0.008421 -0.322887
    35 1.005910 0.000002 0.000008 0.005613 -0.013536 -0.593074
    36 0.075535 -0.738752 -0.755818 1.327191 0.288443 -0.483343
    37 2.508557 -0.000008 -0.000006 -0.000002 -0.000001 0.359162
    38 1.312475 0.101566 -0.187510 0.052053 0.066424 0.654807
    39 -6.229805 -23.856901 -6.368048 1.662394 0.023116 -3.120397
    40 -0.003810 2.312519 1.197218 0.000000 0.000000 0.000000
    41 0.001230 3.011752 2.415958 -0.000025 0.000000 0.000000
    42 0.001228 2.742167 -1.331091 0.000000 0.000000 0.000000
    43 0.001229 3.617197 0.625910 -0.000001 0.000000 0.000000
    44 0.001260 2.691445 2.738224 0.000000 0.000000 0.000000
    45 0.001231 2.716781 -0.958050 0.000000 0.000000 0.000000
    46 0.001230 -1.629678 24.004111 0.000000 -0.000001 0.000000
  time 15
    0 0.000005 -2.660156 -8.640625 -1.570760 -1.391893 -1.570827
    1 2.033348 1.000767 1.937660 1.596636 -1.286515 2.942963
    2 6.028145 0.000003 0.000002 -0.576367 -0.796668 -2.076997
    3 11.692553 0.000081 -0.000007 -0.000003 0.000036 -0.938364
    4 11.481672 -0.000089 -0.000024 -0.013878 0.513286 0.237158
    5 3.281560 0.002122 -1.379481 0.060434 -0.190574 -0.991193
    6 1.328125 -0.000002 -0.000002 0.000002 -0.054909 -0.582384
    7 0.819336 0.000000 0.000001 0.000000 0.000000 -0.523584
    8 3.711854 0.109258 -0.568166 -0.039988 -0.149172 -1.054600
    9 1.610352 0.000000 0.000000 -0.000003 0.001795 -0.427550
    10 0.993190 -0.000004 0.000004 0.001476 0.002258 -0.454039
    11 3.786034 0.203230 0.247844 -0.084242 -0.093732 -0.793190
    12 1.680664 0.000002 0.000000 -0.000001 0.006216 -0.584702
    13 1.256836 0.000006 -0.000002 0.000000 0.000000 -0.532315
    14 3.594226 0.299555 1.109803 -0.047403 -0.108702 -0.915365
    15 1.723633 0.000004 -0.000004 0.000000 0.000000 -0.288008
    16 1.002930 -0.000004 0.000004 0.000000 0.000000 -0.445039
    17 0.298214 -0.637996 0.430606 -1.264305 -0.790633 -0.638569
    18 2.636719 0.000000 -0.000004 -0.000002 -0.221920 0.499922
    19 1.309570 -0.000002 -0.000002 -0.026244 -0.055141 0.588010
    20 2.033356 1.000772 -1.937610 -1.668474 1.286518 2.942953
    21 6.028141 0.000000 -0.000002 1.758040 0.876381 -0.398785
    22 11.692554 0.000000 0.000000 0.000034 -0.000012 -1.689072
    23 11.481705 -0.000001 -0.000009 -0.781391 0.123302 0.955430
    24 2.910432 -0.023172 1.400147 -0.101667 0.018501 -0.788905
    25 1.283203 -0.000004 -0.000002 0.000007 0.148980 -0.924032
    26 0.842285 0.000002 -0.000001 -0.059567 0.048353 -1.058030
    27 3.368063 0.007373 0.618550 0.035972 -0.077320 -1.016266
    28 1.605509 -0.000002 0.000002 0.000003 0.122000 -1.086872
    29 1.016602 0.000000 0.000001 0.012870 -0.013332 -1.223347
    30 3.555528 0.023914 -0.204472 0.012608 -0.103497 -0.905346
    31 1.666992 0.000002 0.000000 -0.000007 0.157404 -1.208300
    32 1.240436 0.000000 0.000005 0.000002 -0.000011 -1.279228
    33 3.449664 0.054208 -1.089087 0.053338 0.070644 -0.350285
    34 1.711614 0.000008 0.000012 0.000003 -0.008421 -0.322887
    35 1.005910 0.000002 0.000008 0.005613 -0.013536 -0.593074
    36 0.075535 -0.738752 -0.755818 1.327116 0.288669 -0.483586
    37 2.508557 -0.000008 -0.000006 -0.000002 -0.000001 0.359146
    38 1.312475 0.101566 -0.187510 0.052053 0.066424 0.654807
    39 -6.245431 -23.841275 -6.383674 1.658623 0.020577 -3.125958
    40 -0.003810 2.312519 1.197218 0.000000 0.000000 0.000000
    41 0.001230 3.011752 2.415958 -0.000025 0.000000 0.000000
    42 0.001228 2.742167 -1.331091 0.000000 0.000000 0.000000
    43 0.001229 3.617197 0.625910 -0.000001 0.000000 0.000000
    44 0.001260 2.691445 2.738224 0.000000 0.000000 0.000000
    45 0.001231 2.716781 -0.958050 0.000000 0.000000 0.000000
    46 0.001230 -1.629678 24.004111 0.000000 -0.000001 0.000000
  time 16
    0 0.000005 -2.660156 -8.640625 -1.570760 -1.391893 -1.570827
    1 2.033348 1.000767 1.937660 1.596636 -1.286515 2.942963
    2 6.028145 0.000003 0.000002 -0.578998 -0.792533 -2.076533
    3 11.692553 0.000081 -0.000007 -0.000015 -0.000060 -0.939973
    4 11.481672 -0.000089 -0.000024 -0.018153 0.510505 0.224931
    5 3.281560 0.002122 -1.383387 0.060247 -0.191089 -0.990734
    6 1.328125 -0.000002 -0.000002 0.000002 -0.054909 -0.582384
    7 0.819336 0.000000 0.000001 0.000000 0.000000 -0.523584
    8 3.711854 0.105351 -0.572072 -0.040114 -0.149711 -1.054151
    9 1.610352 0.000000 0.000000 -0.000003 0.001795 -0.427550
    10 0.993190 -0.000004 0.000004 0.001476 0.002258 -0.454039
    11 3.786034 0.203230 0.243937 -0.084500 -0.094212 -0.792741
    12 1.680664 0.000002 0.000000 -0.000001 0.006216 -0.584702
    13 1.256836 0.000006 -0.000002 0.000000 0.000000 -0.532315
    14 3.594226 0.299555 1.109803 -0.047605 -0.109206 -0.914915
    15 1.723633 0.000004 -0.000004 0.000000 0.000000 -0.288008
    16 1.002930 -0.000004 0.000004 0.000000 0.000000 -0.445039
    17 0.298214 -0.637996 0.426700 -1.264787 -0.791068 -0.637818
    18 2.636719 0.000000 -0.000004 -0.000002 -0.221920 0.499922
    19 1.309570 -0.000002 -0.000002 -0.026244 -0.055141 0.588010
    20 2.033356 1.000772 -1.937610 -1.668474 1.286518 2.942953
    21 6.028141 0.000000 -0.000002 1.755187 0.876416 -0.402563
    22 11.692554 0.000000 0.000000 0.000034 -0.000012 -1.691030
    23 11.481705 -0.000001 -0.000009 -0.788277 0.125958 0.964712
    24 2.910432 -0.023172 1.400147 -0.101633 0.018177 -0.788791
    25 1.283203 -0.000004 -0.000002 0.000007 0.148980 -0.924032
    26 0.842285 0.000002 -0.000001 -0.059567 0.048353 -1.058030
    27 3.368063 0.007373 0.618550 0.036092 -0.077632 -1.016167
    28 1.605509 -0.000002 0.000002 0.000003 0.122000 -1.086872
    29 1.016602 0.000000 0.000001 0.012870 -0.013332 -1.223347
    30 3.551622 0.023914 -0.204472 0.012692 -0.103808 -0.905238
    31 1.666992 0.000002 0.000000 -0.000007 0.157404 -1.208300
    32 1.240436 0.000000 0.000005 0.000002 -0.000011 -1.279260
    33 3.449664 0.054208 -1.089087 0.053246 0.070336 -0.350176
    34 1.711614 0.000008 0.000012 0.000003 -0.008421 -0.322887
    35 1.005910 0.000002 0.000008 0.005613 -0.013536 -0.593074
    36 0.075535 -0.738752 -0.755818 1.327079 0.288361 -0.483489
    37 2.508557 -0.000008 -0.000006 -0.000002 -0.000001 0.359162
    38 1.312475 0.101566 -0.187510 0.052053 0.066392 0.654807
    39 -6.253244 -23.833462 -6.430550 1.652484 0.015678 -3.132957
    40 -0.003810 2.312519 1.197218 0.000000 0.000000 0.000000
    41 0.001230 3.011752 2.415958 -0.000025 0.000000 0.000000
    42 0.001228 2.742167 -1.331091 0.000000 0.000000 0.000000
    43 0.001229 3.617197 0.625910 -0.000001 0.000000 0.000000
    44 0.001260 2.691445 2.738224 0.000000 0.000000 0.000000
    45 0.001231 2.716781 -0.958050 0.000000 0.000000 0.000000
    46 0.001230 -1.629678 24.004111 0.000000 -0.000001 0.000000
  time 17
    0 0.000005 -2.660156 -8.640625 -1.570760 -1.391893 -1.570827
    1 2.033348 1.000767 1.937660 1.596636 -1.286515 2.942963
    2 6.028145 0.000003 0.000002 -0.582716 -0.788113 -2.074957
    3 11.692553 0.000081 -0.000007 -0.000027 0.000024 -0.941965
    4 11.481672 -0.000089 -0.000024 -0.023002 0.507359 0.213589
    5 3.281560 0.002122 -1.383387 0.060145 -0.190934 -0.990593
    6 1.328125 -0.000002 -0.000002 0.000002 -0.054909 -0.582384
    7 0.819336 0.000000 0.000001 0.000000 0.000000 -0.523584
    8 3.711854 0.105351 -0.572072 -0.040226 -0.149556 -1.054023
    9 1.610352 0.000000 0.000000 -0.000003 0.001795 -0.427550
    10 0.993190 -0.000004 0.000004 0.001476 0.002258 -0.454039
    11 3.786034 0.203230 0.243937 -0.084564 -0.094032 -0.792629
    12 1.680664 0.000002 0.000000 -0.000001 0.006216 -0.584702
    13 1.256836 0.000006 -0.000002 0.000000 0.000000 -0.532315
    14 3.594226 0.299555 1.109803 -0.047692 -0.109038 -0.914802
    15 1.723633 0.000004 -0.000004 0.000000 0.000000 -0.288008
    16 1.002930 -0.000004 0.000004 0.000000 0.000000 -0.445039
    17 0.298214 -0.634090 0.426700 -1.264836 -0.790881 -0.637645
    18 2.636719 0.000000 -0.000004 -0.000002 -0.221920 0.499922
    19 1.309570 -0.000002 -0.000002 -0.026244 -0.055141 0.588010
    20 2.033356 1.000772 -1.937610 -1.668474 1.286518 2.942953
    21 6.028141 0.000000 -0.000002 1.750484 0.876032 -0.408767
    22 11.692554 0.000000 0.000000 0.000034 -0.000012 -1.693564
    23 11.481705 -0.000001 -0.000009 -0.797431 0.128614 0.975252
    24 2.914339 -0.023172 1.404053 -0.101667 0.018501 -0.788905
    25 1.283203 -0.000004 -0.000002 0.000007 0.148980 -0.924032
    26 0.842285 0.000002 -0.000001 -0.059567 0.048353 -1.058030
    27 3.368063 0.007373 0.618550 0.035972 -0.077320 -1.016266
    28 1.605509 -0.000002 0.000002 0.000003 0.122000 -1.086872
    29 1.016602 0.000000 0.000001 0.012870 -0.013332 -1.223347
    30 3.551622 0.023914 -0.200566 0.012608 -0.103497 -0.905346
    31 1.666992 0.000002 0.000000 -0.000007 0.157404 -1.208300
    32 1.240436 0.000000 0.000005 0.000002 -0.000011 -1.279228
    33 3.449664 0.054208 -1.089087 0.053338 0.070644 -0.350285
    34 1.711614 0.000008 0.000012 0.000003 -0.008421 -0.322887
    35 1.005910 0.000002 0.000008 0.005613 -0.013536 -0.593074
    36 0.075535 -0.738752 -0.755818 1.327116 0.288669 -0.483586
    37 2.508557 -0.000008 -0.000006 -0.000002 -0.000001 0.359162
    38 1.312475 0.101566 -0.187510 0.052053 0.066392 0.654807
    39 -6.245431 -23.817837 -6.496959 1.644767 0.009933 -3.139860
    40 -0.003810 2.312519 1.197218 0.000000 0.000000 0.000000
    41 0.001230 3.011752 2.415958 -0.000025 0.000000 0.000000
    42 0.001228 2.742167 -1.331091 0.000000 0.000000 0.000000
    43 0.001229 3.617197 0.625910 -0.000001 0.000000 0.000000
    44 0.001260 2.691445 2.738224 0.000000 0.000000 0.000000
    45 0.001231 2.716781 -0.958050 0.000000 0.000000 0.000000
    46 0.001230 -1.633585 24.004111 0.000000 -0.000001 0.000000
  time 18
    0 0.000005 -2.660156 -8.640625 -1.570760 -1.391893 -1.570827
    1 2.033348 1.000767 1.937660 1.596636 -1.286515 2.942963
    2 6.028145 0.000003 0.000002 -0.588430 -0.783598 -2.071064
    3 11.692553 0.000081 -0.000007 -0.000003 0.000024 -0.944724
    4 11.481672 -0.000089 -0.000024 -0.028426 0.505274 0.202839
    5 3.281560 0.002122 -1.383387 0.060417 -0.190574 -0.991193
    6 1.328125 -0.000002 -0.000002 0.000002 -0.054909 -0.582384
    7 0.819336 0.000000 0.000001 0.000000 0.000000 -0.523584
    8 3.711854 0.109258 -0.568166 -0.039988 -0.149172 -1.054600
    9 1.610352 0.000000 0.000000 -0.000003 0.001795 -0.427550
    10 0.993190 -0.000004 0.000004 0.001476 0.002258 -0.454039
    11 3.786034 0.203230 0.247844 -0.084242 -0.093732 -0.793190
    12 1.680664 0.000002 0.000000 -0.000001 0.006216 -0.584702
    13 1.256836 0.000006 -0.000002 0.000000 0.000000 -0.532315
    14 3.594226 0.299555 1.109803 -0.047403 -0.108702 -0.915365
    15 1.723633 0.000004 -0.000004 0.000000 0.000000 -0.288008
    16 1.002930 -0.000004 0.000004 0.000000 0.000000 -0.445039
    17 0.298214 -0.637996 0.430606 -1.264353 -0.790633 -0.638569
    18 2.636719 0.000000 -0.000004 -0.000002 -0.221920 0.499922
    19 1.309570 -0.000002 -0.000002 -0.026244 -0.055141 0.588010
    20 2.033356 1.000772 -1.937610 -1.668474 1.286518 2.942953
    21 6.028141 0.000000 -0.000002 1.744829 0.875857 -0.416230
    22 11.692554 0.000000 0.000000 0.000034 -0.000012 -1.695983
    23 11.481705 -0.000001 -0.000009 -0.806260 0.130697 0.984491
    24 2.910432 -0.023172 1.404053 -0.101442 0.018309 -0.788536
    25 1.283203 -0.000004 -0.000002 0.000007 0.148980 -0.924032
    26 0.842285 0.000002 -0.000001 -0.059567 0.048353 -1.058030
    27 3.368063 0.007373 0.618550 0.036247 -0.077452 -1.015920
    28 1.605509 -0.000002 0.000002 0.000003 0.122000 -1.086872
    29 1.016602 0.000000 0.000001 0.012870 -0.013332 -1.223347
    30 3.551622 0.027820 -0.204472 0.012872 -0.103653 -0.904987
    31 1.666992 0.000002 0.000000 -0.000007 0.157404 -1.208300
    32 1.240436 0.000000 0.000005 0.000002 -0.000011 -1.279228
    33 3.449664 0.054208 -1.089087 0.053484 0.070364 -0.349888
    34 1.711614 0.000008 0.000012 0.000003 -0.008421 -0.322887
    35 1.005910 0.000002 0.000008 0.005613 -0.013536 -0.593074
    36 0.075535 -0.734846 -0.755818 1.327302 0.288422 -0.483150
    37 2.508557 -0.000008 -0.000006 -0.000002 -0.000001 0.359162
    38 1.312475 0.101566 -0.187510 0.052053 0.066424 0.654807
    39 -6.237618 -23.810024 -6.567273 1.636699 0.004766 -3.145420
    40 -0.003810 2.312519 1.197218 0.000000 0.000000 0.000000
    41 0.001230 3.011752 2.415958 -0.000025 0.000000 0.000000
    42 0.001228 2.742167 -1.331091 0.000000 0.000000 0.000000
    43 0.001229 3.617197 0.625910 -0.000001 0.000000 0.000000
    44 0.001260 2.691445 2.738224 0.000000 0.000000 0.000000
    45 0.001231 2.716781 -0.958050 0.000000 0.000000 0.000000
    46 0.001230 -1.629678 24.004111 0.000000 -0.000001 0.000000
  time 19
    0 0.000005 -2.660156 -8.640625 -1.570760 -1.391893 -1.570827
    1 2.033348 1.000767 1.937660 1.596636 -1.286515 2.942963
    2 6.028145 0.000003 0.000002 -0.594779 -0.779131 -2.066150
    3 11.692553 0.000081 -0.000007 -0.000003 0.000024 -0.947329
    4 11.481672 -0.000089 -0.000024 -0.034360 0.503287 0.191379
    5 3.281560 0.002122 -1.379481 0.060417 -0.190574 -0.991193
    6 1.328125 -0.000002 -0.000002 0.000002 -0.054909 -0.582384
    7 0.819336 0.000000 0.000001 0.000000 0.000000 -0.523584
    8 3.711854 0.109258 -0.568166 -0.039988 -0.149172 -1.054600
    9 1.610352 0.000000 0.000000 -0.000003 0.001795 -0.427550
    10 0.993190 -0.000004 0.000004 0.001476 0.002258 -0.454039
    11 3.786034 0.203230 0.247844 -0.084242 -0.093732 -0.793190
    12 1.680664 0.000002 0.000000 -0.000001 0.006216 -0.584702
    13 1.256836 0.000006 -0.000002 0.000000 0.000000 -0.532315
    14 3.594226 0.299555 1.113710 -0.047403 -0.108702 -0.915365
    15 1.723633 0.000004 -0.000004 0.000000 0.000000 -0.288008
    16 1.002930 -0.000004 0.000004 0.000000 0.000000 -0.445039
    17 0.298214 -0.637996 0.426700 -1.264353 -0.790633 -0.638569
    18 2.636719 0.000000 -0.000004 -0.000002 -0.221920 0.499922
    19 1.309570 -0.000002 -0.000002 -0.026244 -0.055141 0.588010
    20 2.033356 1.000772 -1.937610 -1.668474 1.286518 2.942953
    21 6.028141 0.000000 -0.000002 1.739425 0.875543 -0.423366
    22 11.692554 0.000000 0.000000 0.000034 -0.000012 -1.697653
    23 11.481705 -0.000001 -0.000009 -0.812417 0.131289 0.992125
    24 2.914339 -0.023172 1.404053 -0.101667 0.018501 -0.788905
    25 1.283203 -0.000004 -0.000002 0.000007 0.148980 -0.924032
    26 0.842285 0.000002 -0.000001 -0.059567 0.048353 -1.058030
    27 3.368063 0.007373 0.622456 0.035972 -0.077320 -1.016266
    28 1.605509 -0.000002 0.000002 0.000003 0.121988 -1.086911
    29 1.016602 0.000000 0.000001 0.012870 -0.013332 -1.223347
    30 3.555528 0.023914 -0.204472 0.012608 -0.103497 -0.905346
    31 1.666992 0.000002 0.000000 -0.000007 0.157404 -1.208300
    32 1.240436 0.000000 0.000005 0.000002 -0.000011 -1.279228
    33 3.449664 0.054208 -1.089087 0.053338 0.070644 -0.350285
    34 1.711614 0.000008 0.000012 0.000003 -0.008421 -0.322887
    35 1.005910 0.000002 0.000008 0.005613 -0.013536 -0.593074
    36 0.075535 -0.738752 -0.755818 1.327116 0.288669 -0.483586
    37 2.508557 -0.000008 -0.000006 -0.000002 -0.000001 0.359146
    38 1.312475 0.101566 -0.187510 0.052053 0.066392 0.654807
    39 -6.221993 -23.806118 -6.633682 1.629244 0.001827 -3.148488
    40 -0.003810 2.312519 1.197218 0.000000 0.000000 0.000000
    41 0.001230 3.011752 2.415958 -0.000025 0.000000 0.000000
    42 0.001228 2.742167 -1.331091 0.000000 0.000000 0.000000
    43 0.001229 3.617197 0.625910 -0.000001 0.000000 0.000000
    44 0.001260 2.691445 2.738224 0.000000 0.000000 0.000000
    45 0.001231 2.716781 -0.958050 0.000000 0.000000 0.000000
    46 0.001230 -1.629678 24.004111 0.000000 -0.000001 0.000000
  time 20
    0 0.000005 -2.660156 -8.640625 -1.570760 -1.391893 -1.570827
    1 2.033348 1.000767 1.937660 1.596636 -1.286515 2.942963
    2 6.028145 0.000003 0.000002 -0.600856 -0.774758 -2.061607
    3 11.692553 0.000081 -0.000007 -0.000003 0.000024 -0.949781
    4 11.481672 -0.000089 -0.000024 -0.040357 0.501201 0.181101
    5 3.285467 0.006028 -1.383387 0.060672 -0.190215 -0.991758
    6 1.328125 -0.000002 -0.000002 0.000002 -0.054909 -0.582384
    7 0.819336 0.000000 0.000001 0.000000 0.000000 -0.523584
    8 3.711854 0.109258 -0.568166 -0.039765 -0.148801 -1.055176
    9 1.610352 0.000000 0.000000 -0.000003 0.001795 -0.427550
    10 0.993190 -0.000004 0.000004 0.001476 0.002258 -0.454039
    11 3.789941 0.207136 0.247844 -0.083920 -0.093421 -0.793750
    12 1.680664 0.000002 0.000000 -0.000001 0.006216 -0.584702
    13 1.256836 0.000006 -0.000002 0.000000 0.000000 -0.532315
    14 3.594226 0.303461 1.109803 -0.047115 -0.108355 -0.915929
    15 1.723633 0.000004 -0.000004 0.000000 0.000000 -0.288008
    16 1.002930 -0.000004 0.000004 0.000000 0.000000 -0.445039
    17 0.298214 -0.634090 0.426700 -1.263822 -0.790384 -0.639492
    18 2.636719 0.000000 -0.000004 -0.000002 -0.221920 0.499922
    19 1.309570 -0.000002 -0.000002 -0.026244 -0.055141 0.588010
    20 2.033356 1.000772 -1.937610 -1.668474 1.286518 2.942953
    21 6.028141 0.000000 -0.000002 1.734771 0.875333 -0.429430
    22 11.692554 0.000000 0.000000 0.000034 -0.000012 -1.699093
    23 11.481705 -0.000001 -0.000009 -0.816306 0.130535 0.997677
    24 2.910432 -0.023172 1.400147 -0.101667 0.018501 -0.788905
    25 1.283203 -0.000004 -0.000002 0.000007 0.148980 -0.924032
    26 0.842285 0.000002 -0.000001 -0.059567 0.048353 -1.058030
    27 3.368063 0.007373 0.618550 0.035972 -0.077320 -1.016266
    28 1.605509 -0.000002 0.000002 0.000003 0.122000 -1.086872
    29 1.016602 0.000000 0.000001 0.012870 -0.013332 -1.223347
    30 3.551622 0.023914 -0.204472 0.012608 -0.103497 -0.905346
    31 1.666992 0.000002 0.000000 -0.000007 0.157404 -1.208300
    32 1.240436 0.000000 0.000005 0.000002 -0.000011 -1.279228
    33 3.449664 0.054208 -1.089087 0.053338 0.070644 -0.350285
    34 1.711614 0.000008 0.000012 0.000003 -0.008421 -0.322887
    35 1.005910 0.000002 0.000008 0.005613 -0.013536 -0.593074
    36 0.075535 -0.738752 -0.755818 1.327116 0.288669 -0.483586
    37 2.508557 -0.000008 -0.000006 -0.000002 -0.000001 0.359162
    38 1.312475 0.101566 -0.187510 0.052053 0.066424 0.654807
    39 -6.198555 -23.794399 -6.696183 1.622667 0.000669 -3.149351
    40 -0.003810 2.312519 1.197218 0.000000 0.000000 0.000000
    41 0.001230 3.011752 2.415958 -0.000025 0.000000 0.000000
    42 0.001228 2.742167 -1.331091 0.000000 0.000000 0.000000
    43 0.001229 3.617197 0.625910 -0.000001 0.000000 0.000000
    44 0.001260 2.691445 2.738224 0.000000 0.000000 0.000000
    45 0.001231 2.716781 -0.958050 0.000000 0.000000 0.000000
    46 0.001230 -1.629678 24.004111 0.000000 -0.000001 0.000000
  time 21
    0 0.000005 -2.660156 -8.640625 -1.570760 -1.391893 -1.570827
    1 2.033348 1.000767 1.937660 1.596636 -1.286515 2.942963
    2 6.028145 0.000003 0.000002 -0.605935 -0.771004 -2.058455
    3 11.692553 0.000081 -0.000007 -0.000003 0.000036 -0.949168
    4 11.481672 -0.000089 -0.000024 -0.046355 0.498784 0.167692
    5 3.281560 0.002122 -1.379481 0.060179 -0.190862 -0.990663
    6 1.328125 -0.000002 -0.000002 0.000002 -0.054909 -0.582384
    7 0.819336 0.000000 0.000001 0.000000 0.000000 -0.523584
    8 3.711854 0.105351 -0.568166 -0.040198 -0.149496 -1.054087
    9 1.610352 0.000000 0.000000 -0.000003 0.001795 -0.427550
    10 0.993190 -0.000004 0.000004 0.001476 0.002258 -0.454039
    11 3.786034 0.203230 0.247844 -0.084512 -0.093984 -0.792685
    12 1.680664 0.000002 0.000000 -0.000001 0.006216 -0.584702
    13 1.256836 0.000006 -0.000002 0.000000 0.000000 -0.532315
    14 3.594226 0.299555 1.113710 -0.047663 -0.108990 -0.914858
    15 1.723633 0.000004 -0.000004 0.000000 0.000000 -0.288008
    16 1.002930 -0.000004 0.000004 0.000000 0.000000 -0.445039
    17 0.298214 -0.637996 0.430606 -1.264787 -0.790840 -0.637761
    18 2.636719 0.000000 -0.000004 -0.000002 -0.221920 0.499922
    19 1.309570 -0.000002 -0.000002 -0.026244 -0.055141 0.588010
    20 2.033356 1.000772 -1.937610 -1.668474 1.286518 2.942953
    21 6.028141 0.000000 -0.000002 1.731519 0.874705 -0.433721
    22 11.692554 0.000000 0.000000 0.000034 -0.000024 -1.699899
    23 11.481705 -0.000001 -0.000009 -0.819060 0.129027 1.001624
    24 2.910432 -0.023172 1.404053 -0.101667 0.018501 -0.788905
    25 1.283203 -0.000004 -0.000002 0.000007 0.148980 -0.924032
    26 0.842285 0.000002 -0.000001 -0.059567 0.048353 -1.058030
    27 3.368063 0.007373 0.622456 0.035972 -0.077320 -1.016266
    28 1.605509 -0.000002 0.000002 0.000003 0.122000 -1.086872
    29 1.016602 0.000000 0.000001 0.012870 -0.013332 -1.223347
    30 3.551622 0.023914 -0.200566 0.012608 -0.103497 -0.905346
    31 1.666992 0.000002 0.000000 -0.000007 0.157404 -1.208300
    32 1.240436 0.000000 0.000005 0.000002 -0.000011 -1.279228
    33 3.449664 0.054208 -1.089087 0.053338 0.070644 -0.350285
    34 1.711614 0.000008 0.000012 0.000003 -0.008421 -0.322887
    35 1.005910 0.000002 0.000008 0.005613 -0.013536 -0.593074
    36 0.075535 -0.738752 -0.755818 1.327116 0.288669 -0.483586
    37 2.508557 -0.000008 -0.000006 -0.000002 -0.000001 0.359146
    38 1.312475 0.101566 -0.187510 0.052053 0.066424 0.654807
    39 -6.190742 -23.790492 -6.750873 1.616792 -0.000089 -3.149926
    40 -0.003810 2.312519 1.197218 0.000000 0.000000 0.000000
    41 0.001230 3.011752 2.415958 -0.000025 0.000000 0.000000
    42 0.001228 2.742167 -1.331091 0.000000 0.000000 0.000000
    43 0.001229 3.617197 0.625910 -0.000001 0.000000 0.000000
    44 0.001260 2.691445 2.738224 0.000000 0.000000 0.000000
    45 0.001231 2.716781 -0.958050 0.000000 0.000000 0.000000
    46 0.001230 -1.629678 24.004111 0.000000 -0.000001 0.000000
  time 22
    0 0.000005 -2.660156 -8.640625 -1.570760 -1.391893 -1.570827
    1 2.033348 1.000767 1.937660 1.596636 -1.286515 2.942963
    2 6.028145 0.000003 0.000002 -0.610833 -0.767154 -2.055395
    3 11.692553 0.000081 -0.000007 -0.000003 0.000036 -0.949781
    4 11.481672 -0.000089 -0.000024 -0.052544 0.496235 0.157118
    5 3.281560 0.002122 -1.379481 0.060196 -0.190898 -0.990699
    6 1.328125 -0.000002 -0.000002 0.000002 -0.054909 -0.582384
    7 0.819336 0.000000 0.000001 0.000000 0.000000 -0.523584
    8 3.711854 0.105351 -0.568166 -0.040184 -0.149508 -1.054087
    9 1.610352 0.000000 0.000000 -0.000003 0.001795 -0.427550
    10 0.993190 -0.000004 0.000004 0.001491 0.002258 -0.454039
    11 3.786034 0.203230 0.247844 -0.084512 -0.094008 -0.792713
    12 1.680664 0.000002 0.000000 -0.000001 0.006216 -0.584702
    13 1.256836 0.000006 -0.000002 0.000000 0.000000 -0.532315
    14 3.594226 0.299555 1.113710 -0.047649 -0.109002 -0.914887
    15 1.723633 0.000004 -0.000004 0.000000 0.000000 -0.288008
    16 1.002930 -0.000004 0.000004 0.000000 0.000000 -0.445039
    17 0.298214 -0.637996 0.430606 -1.264787 -0.790861 -0.637818
    18 2.636719 0.000000 -0.000004 -0.000002 -0.221920 0.499922
    19 1.309570 -0.000002 -0.000002 -0.026244 -0.055141 0.588010
    20 2.033356 1.000772 -1.937610 -1.668474 1.286518 2.942953
    21 6.028141 0.000000 -0.000002 1.728716 0.873971 -0.437406
    22 11.692554 0.000000 0.000000 0.000034 -0.000012 -1.700590
    23 11.481705 -0.000001 -0.000009 -0.821085 0.127268 1.004834
    24 2.914339 -0.023172 1.404053 -0.101667 0.018501 -0.788905
    25 1.283203 -0.000004 -0.000002 0.000007 0.148980 -0.924032
    26 0.842285 0.000002 -0.000001 -0.059567 0.048353 -1.058030
    27 3.368063 0.007373 0.618550 0.035972 -0.077320 -1.016266
    28 1.605509 -0.000002 0.000002 0.000003 0.122000 -1.086872
    29 1.016602 0.000000 0.000001 0.012870 -0.013332 -1.223347
    30 3.555528 0.023914 -0.204472 0.012608 -0.103497 -0.905346
    31 1.666992 0.000002 0.000000 -0.000007 0.157404 -1.208300
    32 1.240436 0.000000 0.000005 0.000002 -0.000011 -1.279228
    33 3.449664 0.054208 -1.089087 0.053338 0.070644 -0.350285
    34 1.711614 0.000008 0.000012 0.000003 -0.008421 -0.322887
    35 1.005910 0.000002 0.000008 0.005613 -0.013536 -0.593074
    36 0.075535 -0.738752 -0.755818 1.327116 0.288669 -0.483586
    37 2.508557 -0.000008 -0.000006 -0.000002 -0.000001 0.359146
    38 1.312475 0.101566 -0.187510 0.052053 0.066392 0.654807
    39 -6.179023 -23.782680 -6.801655 1.611618 -0.000534 -3.149831
    40 -0.003810 2.312519 1.197218 0.000000 0.000000 0.000000
    41 0.001230 3.011752 2.415958 -0.000025 0.000000 0.000000
    42 0.001228 2.742167 -1.331091 0.000000 0.000000 0.000000
    43 0.001229 3.617197 0.625910 -0.000001 0.000000 0.000000
    44 0.001260 2.691445 2.738224 0.000000 0.000000 0.000000
    45 0.001231 2.716781 -0.958050 0.000000 0.000000 0.000000
    46 0.001230 -1.629678 24.004111 0.000000 -0.000001 0.000000
  time 23
    0 0.000005 -2.660156 -8.640625 -1.570760 -1.391893 -1.570827
    1 2.033348 1.000767 1.937660 1.596636 -1.286515 2.942963
    2 6.028145 0.000003 0.000002 -0.615005 -0.763542 -2.053356
    3 11.692553 0.000081 -0.000007 -0.000003 0.000024 -0.949781
    4 11.481672 -0.000089 -0.000024 -0.058988 0.493520 0.147962
    5 3.281560 0.002122 -1.379481 0.060570 -0.190502 -0.991511
    6 1.328125 -0.000002 -0.000002 0.000002 -0.054909 -0.582384
    7 0.819336 0.000000 0.000001 0.000000 0.000000 -0.523584
    8 3.711854 0.105351 -0.568166 -0.039835 -0.149100 -1.054952
    9 1.610352 0.000000 0.000000 -0.000003 0.001795 -0.427550
    10 0.993190 -0.000004 0.000004 0.001476 0.002258 -0.454039
    11 3.786034 0.203230 0.247844 -0.084075 -0.093696 -0.793498
    12 1.680664 0.000002 0.000000 -0.000001 0.006216 -0.584702
    13 1.256836 0.000006 -0.000002 0.000000 0.000000 -0.532315
    14 3.594226 0.299555 1.113710 -0.047245 -0.108642 -0.915675
    15 1.723633 0.000004 -0.000004 0.000000 0.000000 -0.288008
    16 1.002930 -0.000004 0.000004 0.000000 0.000000 -0.445039
    17 0.298214 -0.637996 0.430606 -1.264063 -0.790633 -0.639030
    18 2.636719 0.000000 -0.000004 -0.000002 -0.221920 0.499922
    19 1.309570 -0.000002 -0.000002 -0.026244 -0.055141 0.588010
    20 2.033356 1.000772 -1.937610 -1.668474 1.286518 2.942953
    21 6.028141 0.000000 -0.000002 1.725764 0.873483 -0.441231
    22 11.692554 0.000000 0.000000 0.000058 0.000132 -1.701512
    23 11.481705 -0.000001 -0.000009 -0.823434 0.125348 1.008477
    24 2.914339 -0.027078 1.400147 -0.101789 0.019136 -0.789161
    25 1.283203 -0.000004 -0.000002 0.000007 0.148980 -0.924032
    26 0.842285 0.000002 -0.000001 -0.059567 0.048353 -1.058030
    27 3.368063 0.003467 0.618550 0.035720 -0.076733 -1.016489
    28 1.605509 -0.000002 0.000002 0.000003 0.122000 -1.086872
    29 1.016602 0.000000 0.000001 0.012870 -0.013332 -1.223347
    30 3.555528 0.023914 -0.204472 0.012429 -0.102886 -0.905579
    31 1.666992 0.000002 0.000000 -0.000007 0.157404 -1.208300
    32 1.240436 0.000000 0.000005 0.000002 -0.000011 -1.279228
    33 3.453570 0.054208 -1.089087 0.053497 0.071262 -0.350537
    34 1.711614 0.000008 0.000012 0.000003 -0.008421 -0.322887
    35 1.005910 0.000002 0.000008 0.005613 -0.013536 -0.593074
    36 0.079442 -0.738752 -0.755818 1.327191 0.289306 -0.483828
    37 2.508557 -0.000008 -0.000006 -0.000002 -0.000001 0.359146
    38 1.312475 0.101566 -0.187510 0.052053 0.066392 0.654807
    39 -6.167304 -23.786586 -6.840719 1.606794 -0.000712 -3.149447
    40 -0.003810 2.312519 1.197218 0.000000 0.000000 0.000000
    41 0.001230 3.011752 2.415958 -0.000025 0.000000 0.000000
    42 0.001228 2.742167 -1.331091 0.000000 0.000000 0.000000
    43 0.001229 3.617197 0.625910 -0.000001 0.000000 0.000000
    44 0.001260 2.691445 2.738224 0.000000 0.000000 0.000000
    45 0.001231 2.716781 -0.958050 0.000000 0.000000 0.000000
    46 0.001230 -1.629678 24.004111 0.000000 -0.000001 0.000000
  time 24
    0 0.000005 -2.660156 -8.640625 -1.570760 -1.391893 -1.570827
    1 2.033348 1.000767 1.937660 1.596636 -1.286515 2.942963
    2 6.028145 0.000003 0.000002 -0.618996 -0.760168 -2.051409
    3 11.692553 0.000081 -0.000007 -0.000003 0.000036 -0.949781
    4 11.481672 -0.000089 -0.000024 -0.065624 0.490342 0.138216
    5 3.285467 0.006028 -1.383387 0.060570 -0.190287 -0.991582
    6 1.328125 -0.000002 -0.000002 0.000002 -0.054909 -0.582384
    7 0.819336 0.000000 0.000001 0.000000 0.000000 -0.523584
    8 3.711854 0.109258 -0.568166 -0.039835 -0.148872 -1.055016
    9 1.610352 0.000000 0.000000 -0.000003 0.001795 -0.427550
    10 0.993190 -0.000004 0.000004 0.001491 0.002258 -0.454039
    11 3.789941 0.207136 0.247844 -0.084023 -0.093481 -0.793582
    12 1.680664 0.000002 0.000000 -0.000001 0.006216 -0.584702
    13 1.256836 0.000006 -0.000002 0.000000 0.000000 -0.532315
    14 3.594226 0.303461 1.109803 -0.047216 -0.108427 -0.915760
    15 1.723633 0.000004 -0.000004 0.000000 0.000000 -0.288008
    16 1.002930 -0.000004 0.000004 0.000000 0.000000 -0.445039
    17 0.298214 -0.630183 0.426700 -1.263967 -0.790425 -0.639203
    18 2.636719 0.000000 -0.000004 -0.000002 -0.221920 0.499922
    19 1.309570 -0.000002 -0.000002 -0.026244 -0.055141 0.588010
    20 2.033356 1.000772 -1.937610 -1.668474 1.286518 2.942953
    21 6.028141 0.000000 -0.000002 1.723512 0.872644 -0.444216
    22 11.692554 0.000000 0.000000 0.000034 -0.000012 -1.701800
    23 11.481705 -0.000001 -0.000009 -0.824325 0.123463 1.009778
    24 2.914339 -0.023172 1.404053 -0.101667 0.018501 -0.788905
    25 1.283203 -0.000004 -0.000002 0.000007 0.148980 -0.924032
    26 0.842285 0.000002 -0.000001 -0.059567 0.048353 -1.058030
    27 3.368063 0.007373 0.618550 0.035972 -0.077320 -1.016266
    28 1.605509 -0.000002 0.000002 0.000003 0.121988 -1.086911
    29 1.016602 0.000000 0.000001 0.012870 -0.013332 -1.223347
    30 3.551622 0.023914 -0.204472 0.012608 -0.103497 -0.905346
    31 1.666992 0.000002 0.000000 -0.000007 0.157404 -1.208300
    32 1.240436 0.000000 0.000005 0.000002 -0.000011 -1.279228
    33 3.449664 0.054208 -1.089087 0.053338 0.070644 -0.350285
    34 1.711614 0.000008 0.000012 0.000003 -0.008421 -0.322887
    35 1.005910 0.000002 0.000008 0.005613 -0.013536 -0.593074
    36 0.075535 -0.738752 -0.755818 1.327116 0.288669 -0.483586
    37 2.508557 -0.000008 -0.000006 -0.000002 -0.000001 0.359162
    38 1.312475 0.101566 -0.187510 0.052053 0.066424 0.654807
    39 -6.159491 -23.778773 -6.883689 1.602409 -0.000668 -3.148776
    40 -0.003810 2.312519 1.197218 0.000000 0.000000 0.000000
    41 0.001230 3.011752 2.415958 -0.000025 0.000000 0.000000
    42 0.001228 2.742167 -1.331091 0.000000 0.000000 0.000000
    43 0.001229 3.617197 0.625910 -0.000001 0.000000 0.000000
    44 0.001260 2.691445 2.738224 0.000000 0.000000 0.000000
    45 0.001231 2.716781 -0.958050 0.000000 0.000000 0.000000
    46 0.001230 -1.629678 24.004111 0.000000 -0.000001 0.000000
  time 25
    0 0.000005 -2.660156 -8.640625 -1.570760 -1.391893 -1.570827
    1 2.033348 1.000767 1.937660 1.596636 -1.286515 2.942963
    2 6.028145 0.000003 0.000002 -0.622352 -0.757126 -2.049833
    3 11.692553 0.000081 -0.000007 -0.000003 0.000024 -0.949015
    4 11.481672 -0.000089 -0.000024 -0.072260 0.487031 0.127347
    5 3.281560 0.006028 -1.383387 0.060230 -0.190622 -0.990875
    6 1.328125 -0.000002 -0.000002 0.000002 -0.054909 -0.582384
    7 0.819336 0.000000 0.000001 0.000000 0.000000 -0.523584
    8 3.711854 0.109258 -0.568166 -0.040170 -0.149244 -1.054279
    9 1.610352 0.000000 0.000000 -0.000003 0.001795 -0.427550
    10 0.993190 -0.000004 0.000004 0.001476 0.002258 -0.454039
    11 3.786034 0.207136 0.247844 -0.084422 -0.093756 -0.792881
    12 1.680664 0.000002 0.000000 -0.000001 0.006216 -0.584702
    13 1.256836 0.000006 -0.000002 0.000000 0.000000 -0.532315
    14 3.594226 0.303461 1.113710 -0.047577 -0.108738 -0.915027
    15 1.723633 0.000004 -0.000004 0.000000 0.000000 -0.288008
    16 1.002930 -0.000004 0.000004 0.000000 0.000000 -0.445039
    17 0.298214 -0.630183 0.426700 -1.264594 -0.790633 -0.638107
    18 2.636719 0.000000 -0.000004 -0.000002 -0.221920 0.499922
    19 1.309570 -0.000002 -0.000002 -0.026244 -0.055141 0.588010
    20 2.033356 1.000772 -1.937610 -1.668474 1.286518 2.942953
    21 6.028141 0.000000 -0.000002 1.721411 0.872016 -0.446921
    22 11.692554 0.000000 0.000000 0.000034 -0.000012 -1.701742
    23 11.481705 -0.000001 -0.000009 -0.825298 0.121201 1.011253
    24 2.910432 -0.023172 1.400147 -0.101667 0.018501 -0.788905
    25 1.283203 -0.000004 -0.000002 0.000007 0.148980 -0.924032
    26 0.842285 0.000002 -0.000001 -0.059567 0.048353 -1.058030
    27 3.368063 0.007373 0.618550 0.035972 -0.077320 -1.016266
    28 1.605509 -0.000002 0.000002 0.000003 0.122000 -1.086872
    29 1.016602 0.000000 0.000001 0.012870 -0.013332 -1.223347
    30 3.551622 0.023914 -0.204472 0.012608 -0.103497 -0.905346
    31 1.666992 0.000002 0.000000 -0.000007 0.157404 -1.208300
    32 1.240436 0.000000 0.000005 0.000002 -0.000011 -1.279260
    33 3.449664 0.054208 -1.089087 0.053338 0.070644 -0.350285
    34 1.711614 0.000008 0.000012 0.000003 -0.008421 -0.322887
    35 1.005910 0.000002 0.000008 0.005613 -0.013536 -0.593074
    36 0.075535 -0.738752 -0.755818 1.327116 0.288669 -0.483586
    37 2.508557 -0.000008 -0.000006 -0.000002 -0.000001 0.359162
    38 1.312475 0.101566 -0.187510 0.052053 0.066424 0.654807
    39 -6.147772 -23.786586 -6.926659 1.598112 -0.000534 -3.147721
    40 -0.003810 2.312519 1.197218 0.000000 0.000000 0.000000
    41 0.001230 3.011752 2.415958 -0.000025 0.000000 0.000000
    42 0.001228 2.742167 -1.331091 0.000000 0.000000 0.000000
    43 0.001229 3.617197 0.625910 -0.000001 0.000000 0.000000
    44 0.001260 2.691445 2.738224 0.000000 0.000000 0.000000
    45 0.001231 2.716781 -0.958050 0.000000 0.000000 0.000000
    46 0.001230 -1.629678 24.004111 0.000000 -0.000001 0.000000
  time 26
    0 0.000005 -2.660156 -8.640625 -1.570760 -1.391893 -1.570827
    1 2.033348 1.000767 1.937660 1.596636 -1.286515 2.942963
    2 6.028145 0.000003 0.000002 -0.625617 -0.754274 -2.048257
    3 11.692553 0.000081 -0.000007 0.000009 -0.000252 -0.948632
    4 11.481672 -0.000089 -0.000024 -0.078640 0.484747 0.117836
    5 3.285467 0.002122 -1.379481 0.060536 -0.191413 -0.991158
    6 1.328125 -0.000002 -0.000002 0.000002 -0.054909 -0.582384
    7 0.819336 0.000000 0.000001 0.000000 0.000000 -0.523584
    8 3.715760 0.105351 -0.572072 -0.039821 -0.149999 -1.054568
    9 1.610352 0.000000 0.000000 -0.000003 0.001795 -0.427550
    10 0.993190 -0.000004 0.000004 0.001491 0.002258 -0.454039
    11 3.789941 0.203230 0.247844 -0.084281 -0.094571 -0.793133
    12 1.680664 0.000002 0.000000 -0.000001 0.006216 -0.584702
    13 1.256836 0.000006 -0.000002 0.000000 0.000000 -0.532315
    14 3.594226 0.299555 1.105897 -0.047360 -0.109541 -0.915309
    15 1.723633 0.000004 -0.000004 0.000000 0.000000 -0.288008
    16 1.002930 -0.000004 0.000004 0.000000 0.000000 -0.445039
    17 0.298214 -0.637996 0.422793 -1.264594 -0.791462 -0.638338
    18 2.636719 0.000000 -0.000004 -0.000002 -0.221920 0.499922
    19 1.309570 -0.000002 -0.000002 -0.026244 -0.055141 0.588010
    20 2.033356 1.000772 -1.937610 -1.668474 1.286518 2.942953
    21 6.028141 0.000000 -0.000002 1.719409 0.871352 -0.449533
    22 11.692554 0.000000 0.000000 0.000034 -0.000012 -1.701742
    23 11.481705 -0.000001 -0.000009 -0.826189 0.118832 1.012554
    24 2.910432 -0.023172 1.404053 -0.101667 0.018501 -0.788905
    25 1.283203 -0.000004 -0.000002 0.000007 0.148980 -0.924032
    26 0.842285 0.000002 -0.000001 -0.059567 0.048353 -1.058030
    27 3.368063 0.007373 0.618550 0.035972 -0.077320 -1.016266
    28 1.605509 -0.000002 0.000002 0.000003 0.122000 -1.086872
    29 1.016602 0.000000 0.000001 0.012870 -0.013332 -1.223347
    30 3.551622 0.023914 -0.204472 0.012608 -0.103497 -0.905346
    31 1.666992 0.000002 0.000000 -0.000007 0.157404 -1.208300
    32 1.240436 0.000000 0.000005 0.000002 -0.000011 -1.279228
    33 3.449664 0.054208 -1.089087 0.053338 0.070644 -0.350285
    34 1.711614 0.000008 0.000012 0.000003 -0.008421 -0.322887
    35 1.005910 0.000002 0.000008 0.005613 -0.013536 -0.593074
    36 0.075535 -0.738752 -0.755818 1.327116 0.288669 -0.483586
    37 2.508557 -0.000008 -0.000006 -0.000002 -0.000001 0.359162
    38 1.312475 0.101566 -0.187510 0.052053 0.066424 0.654807
    39 -6.143865 -23.786586 -6.969629 1.593991 -0.000267 -3.146667
    40 -0.003810 2.312519 1.197218 0.000000 0.000000 0.000000
    41 0.001230 3.011752 2.415958 -0.000025 0.000000 0.000000
    42 0.001228 2.742167 -1.331091 0.000000 0.000000 0.000000
    43 0.001229 3.617197 0.625910 -0.000001 0.000000 0.000000
    44 0.001260 2.691445 2.738224 0.000000 0.000000 0.000000
    45 0.001231 2.716781 -0.958050 0.000000 0.000000 0.000000
    46 0.001230 -1.629678 24.004111 0.000000 -0.000001 0.000000
  time 27
    0 0.000005 -2.660156 -8.640625 -1.570760 -1.391893 -1.570827
    1 2.033348 1.000767 1.937660 1.596636 -1.286515 2.942963
    2 6.028145 0.000003 0.000002 -0.628247 -0.751803 -2.046959
    3 11.692553 0.000081 -0.000007 -0.000003 0.000024 -0.948861
    4 11.481672 -0.000089 -0.000024 -0.086488 0.480443 0.109035
    5 3.281560 0.002122 -1.383387 0.060417 -0.190574 -0.991193
    6 1.328125 -0.000002 -0.000002 0.000002 -0.054909 -0.582384
    7 0.819336 0.000000 0.000001 0.000000 0.000000 -0.523584
    8 3.711854 0.109258 -0.568166 -0.039988 -0.149172 -1.054600
    9 1.610352 0.000000 0.000000 -0.000003 0.001795 -0.427550
    10 0.993190 -0.000004 0.000004 0.001476 0.002258 -0.454039
    11 3.786034 0.203230 0.243937 -0.084242 -0.093732 -0.793190
    12 1.680664 0.000002 0.000000 -0.000001 0.006216 -0.584702
    13 1.256836 0.000006 -0.000002 0.000000 0.000000 -0.532315
    14 3.594226 0.299555 1.113710 -0.047418 -0.108690 -0.915309
    15 1.723633 0.000004 -0.000004 0.000000 0.000000 -0.288008
    16 1.002930 -0.000004 0.000004 0.000000 0.000000 -0.445039
    17 0.298214 -0.634090 0.426700 -1.264353 -0.790633 -0.638569
    18 2.636719 0.000000 -0.000004 -0.000002 -0.221920 0.499922
    19 1.309570 -0.000002 -0.000002 -0.026244 -0.055141 0.588010
    20 2.033356 1.000772 -1.937610 -1.668474 1.286518 2.942953
    21 6.028141 0.000000 -0.000002 1.717457 0.870619 -0.452052
    22 11.692554 0.000000 0.000000 0.000034 -0.000012 -1.701685
    23 11.481705 -0.000001 -0.000009 -0.826999 0.116355 1.013812
    24 2.910432 -0.023172 1.404053 -0.101667 0.018501 -0.788905
    25 1.283203 -0.000004 -0.000002 0.000007 0.148980 -0.924032
    26 0.842285 0.000002 -0.000001 -0.059567 0.048353 -1.058030
    27 3.368063 0.007373 0.618550 0.035972 -0.077320 -1.016266
    28 1.605509 -0.000002 0.000002 0.000003 0.122000 -1.086872
    29 1.016602 0.000000 0.000001 0.012870 -0.013332 -1.223347
    30 3.551622 0.023914 -0.204472 0.012608 -0.103497 -0.905346
    31 1.666992 0.000002 0.000000 -0.000007 0.157404 -1.208300
    32 1.240436 0.000000 0.000005 0.000002 -0.000011 -1.279228
    33 3.449664 0.054208 -1.089087 0.053338 0.070644 -0.350285
    34 1.711614 0.000008 0.000012 0.000003 -0.008421 -0.322887
    35 1.005910 0.000002 0.000008 0.005613 -0.013536 -0.593074
    36 0.075535 -0.738752 -0.755818 1.327116 0.288669 -0.483586
    37 2.508557 -0.000008 -0.000006 -0.000002 -0.000001 0.359162
    38 1.312475 0.101566 -0.187510 0.052053 0.066424 0.654807
    39 -6.136053 -23.782680 -7.004787 1.589781 0.000090 -3.145516
    40 -0.003810 2.312519 1.197218 0.000000 0.000000 0.000000
    41 0.001230 3.011752 2.415958 -0.000025 0.000000 0.000000
    42 0.001228 2.742167 -1.331091 0.000000 0.000000 0.000000
    43 0.001229 3.617197 0.625910 -0.000001 0.000000 0.000000
    44 0.001260 2.691445 2.738224 0.000000 0.000000 0.000000
    45 0.001231 2.716781 -0.958050 0.000000 0.000000 0.000000
    46 0.001230 -1.629678 24.004111 0.000000 -0.000001 0.000000
  time 28
    0 0.000005 -2.660156 -8.640625 -1.570760 -1.391893 -1.570827
    1 2.033348 1.000767 1.937660 1.596636 -1.286515 2.942963
    2 6.028145 0.000003 0.000002 -0.630061 -0.749712 -2.046495
    3 11.692553 0.000081 -0.000007 -0.000003 0.000024 -0.948708
    4 11.481672 -0.000089 -0.000024 -0.093953 0.476668 0.100115
    5 3.281560 0.002122 -1.379481 0.060417 -0.190574 -0.991193
    6 1.328125 -0.000002 -0.000002 0.000002 -0.054909 -0.582384
    7 0.819336 0.000000 0.000001 0.000000 0.000000 -0.523584
    8 3.711854 0.109258 -0.568166 -0.039988 -0.149172 -1.054600
    9 1.610352 0.000000 0.000000 -0.000003 0.001795 -0.427550
    10 0.993190 -0.000004 0.000004 0.001491 0.002258 -0.454039
    11 3.786034 0.203230 0.247844 -0.084242 -0.093732 -0.793190
    12 1.680664 0.000002 0.000000 -0.000001 0.006216 -0.584702
    13 1.256836 0.000006 -0.000002 0.000000 0.000000 -0.532315
    14 3.594226 0.299555 1.113710 -0.047403 -0.108702 -0.915365
    15 1.723633 0.000004 -0.000004 0.000000 0.000000 -0.288008
    16 1.002930 -0.000004 0.000004 0.000000 0.000000 -0.445039
    17 0.298214 -0.634090 0.430606 -1.264353 -0.790633 -0.638569
    18 2.636719 0.000000 -0.000004 -0.000002 -0.221920 0.499922
    19 1.309570 -0.000002 -0.000002 -0.026244 -0.055141 0.588010
    20 2.033356 1.000772 -1.937610 -1.668474 1.286518 2.942953
    21 6.028141 0.000000 -0.000002 1.715506 0.870165 -0.454664
    22 11.692554 0.000000 0.000000 0.000034 -0.000012 -1.701051
    23 11.481705 -0.000001 -0.000009 -0.827890 0.113806 1.014766
    24 2.910432 -0.023172 1.400147 -0.101667 0.018501 -0.788905
    25 1.283203 -0.000004 -0.000002 0.000007 0.148980 -0.924032
    26 0.842285 0.000002 -0.000001 -0.059567 0.048353 -1.058030
    27 3.368063 0.007373 0.618550 0.035972 -0.077320 -1.016266
    28 1.605509 -0.000002 0.000002 0.000003 0.122000 -1.086872
    29 1.016602 0.000000 0.000001 0.012870 -0.013332 -1.223347
    30 3.555528 0.023914 -0.204472 0.012608 -0.103497 -0.905346
    31 1.666992 0.000002 0.000000 -0.000007 0.157404 -1.208300
    32 1.240436 0.000000 0.000005 0.000002 -0.000011 -1.279228
    33 3.449664 0.054208 -1.089087 0.053338 0.070644 -0.350285
    34 1.711614 0.000008 0.000012 0.000003 -0.008421 -0.322887
    35 1.005910 0.000002 0.000008 0.005613 -0.013536 -0.593074
    36 0.075535 -0.738752 -0.755818 1.327116 0.288669 -0.483586
    37 2.508557 -0.000008 -0.000006 -0.000002 -0.000001 0.359162
    38 1.312475 0.101566 -0.187510 0.052053 0.066392 0.654807
    39 -6.132146 -23.786586 -7.043850 1.585659 0.000446 -3.144270
    40 -0.003810 2.312519 1.197218 0.000000 0.000000 0.000000
    41 0.001230 3.011752 2.415958 -0.000025 0.000000 0.000000
    42 0.001228 2.742167 -1.331091 0.000000 0.000000 0.000000
    43 0.001229 3.617197 0.625910 -0.000001 0.000000 0.000000
    44 0.001260 2.691445 2.738224 0.000000 0.000000 0.000000
    45 0.001231 2.716781 -0.958050 0.000000 0.000000 0.000000
    46 0.001230 -1.629678 24.004111 0.000000 -0.000001 0.000000
  time 29
    0 0.000005 -2.660156 -8.640625 -1.570760 -1.391893 -1.570827
    1 2.033348 1.000767 1.937660 1.596636 -1.286515 2.942963
    2 6.028145 0.000003 0.000002 -0.631603 -0.747858 -2.046032
    3 11.692553 0.000081 -0.000007 -0.000003 0.000024 -0.949015
    4 11.481672 -0.000089 -0.000024 -0.101610 0.472828 0.091491
    5 3.281560 0.002122 -1.379481 0.060417 -0.190574 -0.991193
    6 1.328125 -0.000002 -0.000002 0.000002 -0.054909 -0.582384
    7 0.819336 0.000000 0.000001 0.000000 0.000000 -0.523584
    8 3.711854 0.109258 -0.568166 -0.039988 -0.149172 -1.054600
    9 1.610352 0.000000 0.000000 -0.000003 0.001795 -0.427550
    10 0.993190 -0.000004 0.000004 0.001476 0.002258 -0.454039
    11 3.786034 0.203230 0.247844 -0.084242 -0.093732 -0.793190
    12 1.680664 0.000002 0.000000 -0.000001 0.006216 -0.584702
    13 1.256836 0.000006 -0.000002 0.000000 0.000000 -0.532315
    14 3.594226 0.299555 1.109803 -0.047403 -0.108702 -0.915365
    15 1.723633 0.000004 -0.000004 0.000000 0.000000 -0.288008
    16 1.002930 -0.000004 0.000004 0.000000 0.000000 -0.445039
    17 0.298214 -0.634090 0.430606 -1.264353 -0.790633 -0.638569
    18 2.636719 0.000000 -0.000004 -0.000002 -0.221920 0.499922
    19 1.309570 -0.000002 -0.000002 -0.026244 -0.055141 0.588010
    20 2.033356 1.000772 -1.937610 -1.668474 1.286518 2.942953
    21 6.028141 0.000000 -0.000002 1.713755 0.869362 -0.456903
    22 11.692554 0.000000 0.000000 0.000034 -0.000012 -1.700418
    23 11.481705 -0.000001 -0.000009 -0.828700 0.110917 1.015764
    24 2.910432 -0.023172 1.404053 -0.101667 0.018501 -0.788905
    25 1.283203 -0.000004 -0.000002 0.000007 0.148980 -0.924032
    26 0.842285 0.000002 -0.000001 -0.059567 0.048353 -1.058030
    27 3.368063 0.007373 0.618550 0.035972 -0.077320 -1.016266
    28 1.605509 -0.000002 0.000002 0.000003 0.122000 -1.086872
    29 1.016602 0.000000 0.000001 0.012870 -0.013332 -1.223347
    30 3.551622 0.023914 -0.204472 0.012608 -0.103497 -0.905346
    31 1.666992 0.000002 0.000000 -0.000007 0.157404 -1.208300
    32 1.240436 0.000000 0.000005 0.000002 -0.000011 -1.279228
    33 3.449664 0.054208 -1.089087 0.053338 0.070644 -0.350285
    34 1.711614 0.000008 0.000012 0.000003 -0.008421 -0.322887
    35 1.005910 0.000002 0.000008 0.005613 -0.013536 -0.593074
    36 0.075535 -0.738752 -0.755818 1.327116 0.288669 -0.483586
    37 2.508557 -0.000008 -0.000006 -0.000002 -0.000001 0.359162
    38 1.312475 0.101566 -0.187510 0.052053 0.066424 0.654807
    39 -6.120427 -23.798305 -7.094633 1.581012 0.000758 -3.143119
    40 -0.003810 2.312519 1.197218 0.000000 0.000000 0.000000
    41 0.001230 3.011752 2.415958 -0.000025 0.000000 0.000000
    42 0.001228 2.742167 -1.331091 0.000000 0.000000 0.000000
    43 0.001229 3.617197 0.625910 -0.000001 0.000000 0.000000
    44 0.001260 2.691445 2.738224 0.000000 0.000000 0.000000
    45 0.001231 2.716781 -0.958050 0.000000 0.000000 0.000000
    46 0.001230 -1.629678 24.004111 0.000000 -0.000001 0.000000
  time 30
    0 0.000005 -2.660156 -8.640625 -1.570760 -1.391893 -1.570827
    1 2.033348 1.000767 1.937660 1.596636 -1.286515 2.942963
    2 6.028145 0.000003 0.000002 -0.633145 -0.745815 -2.045290
    3 11.692553 0.000081 -0.000007 -0.000003 0.000036 -0.950547
    4 11.481672 -0.000089 -0.000024 -0.109139 0.468789 0.083634
    5 3.281560 0.002122 -1.383387 0.060434 -0.190574 -0.991193
    6 1.328125 -0.000002 -0.000002 0.000002 -0.054909 -0.582384
    7 0.819336 0.000000 0.000001 0.000000 0.000000 -0.523584
    8 3.711854 0.109258 -0.568166 -0.039988 -0.149172 -1.054600
    9 1.610352 0.000000 0.000000 -0.000003 0.001795 -0.427550
    10 0.993190 -0.000004 0.000004 0.001476 0.002258 -0.454039
    11 3.786034 0.203230 0.243937 -0.084242 -0.093732 -0.793190
    12 1.680664 0.000002 0.000000 -0.000001 0.006216 -0.584702
    13 1.256836 0.000006 -0.000002 0.000000 0.000000 -0.532315
    14 3.594226 0.299555 1.113710 -0.047403 -0.108702 -0.915365
    15 1.723633 0.000004 -0.000004 0.000000 0.000000 -0.288008
    16 1.002930 -0.000004 0.000004 0.000000 0.000000 -0.445039
    17 0.298214 -0.637996 0.426700 -1.264353 -0.790633 -0.638569
    18 2.636719 0.000000 -0.000004 -0.000002 -0.221920 0.499922
    19 1.309570 -0.000002 -0.000002 -0.026244 -0.055141 0.588010
    20 2.033356 1.000772 -1.937610 -1.668474 1.286518 2.942953
    21 6.028141 0.000000 -0.000002 1.711453 0.868803 -0.459888
    22 11.692554 0.000000 0.000000 0.000034 -0.000012 -1.699842
    23 11.481705 -0.000001 -0.000009 -0.829834 0.108314 1.017326
    24 2.910432 -0.023172 1.404053 -0.101667 0.018501 -0.788905
    25 1.283203 -0.000004 -0.000002 0.000007 0.148980 -0.924032
    26 0.842285 0.000002 -0.000001 -0.059567 0.048353 -1.058030
    27 3.368063 0.007373 0.622456 0.035972 -0.077320 -1.016266
    28 1.605509 -0.000002 0.000002 0.000003 0.122000 -1.086872
    29 1.016602 0.000000 0.000001 0.012870 -0.013332 -1.223347
    30 3.551622 0.023914 -0.200566 0.012608 -0.103497 -0.905346
    31 1.666992 0.000002 0.000000 -0.000007 0.157404 -1.208300
    32 1.240436 0.000000 0.000005 0.000002 -0.000011 -1.279228
    33 3.449664 0.054208 -1.089087 0.053338 0.070644 -0.350285
    34 1.715521 0.000008 0.000012 0.000003 -0.008421 -0.322887
    35 1.005910 0.000002 0.000008 0.005613 -0.013536 -0.593074
    36 0.075535 -0.738752 -0.755818 1.327116 0.288669 -0.483586
    37 2.508557 -0.000008 -0.000006 -0.000002 -0.000001 0.359162
    38 1.312475 0.101566 -0.187510 0.052053 0.066424 0.654807
    39 -6.116521 -23.806118 -7.141510 1.576101 0.001025 -3.142161
    40 -0.003810 2.312519 1.197218 0.000000 0.000000 0.000000
    41 0.001230 3.011752 2.415958 -0.000025 0.000000 0.000000
    42 0.001228 2.742167 -1.331091 0.000000 0.000000 0.000000
    43 0.001229 3.617197 0.625910 -0.000001 0.000000 0.000000
    44 0.001260 2.691445 2.738224 0.000000 0.000000 0.000000
    45 0.001231 2.716781 -0.958050 0.000000 0.000000 0.000000
    46 0.001230 -1.629678 24.004111 0.000000 -0.000001 0.000000
  time 31
    0 0.000005 -2.660156 -8.640625 -1.570760 -1.391893 -1.570827
    1 2.033348 1.000767 1.937660 1.596636 -1.286515 2.942963
    2 6.028145 0.000003 0.000002 -0.633417 -0.744579 -2.045568
    3 11.692553 0.000081 -0.000007 -0.000003 0.000024 -0.951543
    4 11.481672 -0.000089 -0.000024 -0.117051 0.464617 0.075601
    5 3.281560 0.002122 -1.379481 0.060417 -0.190574 -0.991193
    6 1.328125 -0.000002 -0.000002 0.000002 -0.054909 -0.582384
    7 0.819336 0.000000 0.000001 0.000000 0.000000 -0.523584
    8 3.711854 0.109258 -0.568166 -0.039988 -0.149172 -1.054600
    9 1.610352 0.000000 0.000000 -0.000003 0.001795 -0.427550
    10 0.993190 -0.000004 0.000004 0.001476 0.002258 -0.454039
    11 3.786034 0.203230 0.247844 -0.084242 -0.093732 -0.793190
    12 1.680664 0.000002 0.000000 -0.000001 0.006216 -0.584702
    13 1.256836 0.000006 -0.000002 0.000000 0.000000 -0.532315
    14 3.594226 0.299555 1.113710 -0.047403 -0.108702 -0.915365
    15 1.723633 0.000004 -0.000004 0.000000 0.000000 -0.288008
    16 1.002930 -0.000004 0.000004 0.000000 0.000000 -0.445039
    17 0.298214 -0.637996 0.430606 -1.264353 -0.790633 -0.638569
    18 2.636719 0.000000 -0.000004 -0.000002 -0.221920 0.499922
    19 1.309570 -0.000002 -0.000002 -0.026244 -0.055141 0.588010
    20 2.033356 1.000772 -1.937610 -1.668474 1.286518 2.942953
    21 6.028141 0.000000 -0.000002 1.708901 0.868279 -0.463293
    22 11.692554 0.000000 0.000000 0.000034 -0.000012 -1.699266
    23 11.481705 -0.000001 -0.000009 -0.831454 0.105801 1.019408
    24 2.910432 -0.023172 1.404053 -0.101667 0.018501 -0.788905
    25 1.283203 -0.000004 -0.000002 0.000007 0.148980 -0.924032
    26 0.842285 0.000002 -0.000001 -0.059567 0.048353 -1.058030
    27 3.368063 0.007373 0.622456 0.035972 -0.077320 -1.016266
    28 1.605509 -0.000002 0.000002 0.000003 0.122000 -1.086872
    29 1.016602 0.000000 0.000001 0.012870 -0.013332 -1.223347
    30 3.555528 0.023914 -0.204472 0.012608 -0.103497 -0.905346
    31 1.666992 0.000002 0.000000 -0.000007 0.157404 -1.208300
    32 1.240436 0.000000 0.000005 0.000002 -0.000011 -1.279228
    33 3.449664 0.054208 -1.089087 0.053338 0.070644 -0.350285
    34 1.711614 0.000008 0.000012 0.000003 -0.008421 -0.322887
    35 1.005910 0.000002 0.000008 0.005613 -0.013536 -0.593074
    36 0.075535 -0.738752 -0.755818 1.327116 0.288669 -0.483586
    37 2.508557 -0.000008 -0.000006 -0.000002 -0.000001 0.359162
    38 1.312475 0.101566 -0.187510 0.052053 0.066392 0.654807
    39 -6.116521 -23.810024 -7.188386 1.570663 0.001069 -3.141490
    40 -0.003810 2.312519 1.197218 0.000000 0.000000 0.000000
    41 0.001230 3.011752 2.415958 -0.000025 0.000000 0.000000
    42 0.001228 2.742167 -1.331091 0.000000 0.000000 0.000000
    43 0.001229 3.617197 0.625910 -0.000001 0.000000 0.000000
    44 0.001260 2.691445 2.738224 0.000000 0.000000 0.000000
    45 0.001231 2.716781 -0.958050 0.000000 0.000000 0.000000
    46 0.001230 -1.629678 24.004111 0.000000 -0.000001 0.000000
end
