// Created by Crowbar++ 0.74
version 1
nodes
  0 "ValveBiped.Bip01_Spine4" -1
  1 "ValveBiped.Bip01_L_Clavicle" 0
  2 "ValveBiped.Bip01_L_UpperArm" 1
  3 "ValveBiped.Bip01_L_Forearm" 2
  4 "ValveBiped.Bip01_L_Hand" 3
  5 "ValveBiped.Bip01_L_Finger4" 4
  6 "ValveBiped.Bip01_L_Finger41" 5
  7 "ValveBiped.Bip01_L_Finger42" 6
  8 "ValveBiped.Bip01_L_Finger3" 4
  9 "ValveBiped.Bip01_L_Finger31" 8
  10 "ValveBiped.Bip01_L_Finger32" 9
  11 "ValveBiped.Bip01_L_Finger2" 4
  12 "ValveBiped.Bip01_L_Finger21" 11
  13 "ValveBiped.Bip01_L_Finger22" 12
  14 "ValveBiped.Bip01_L_Finger1" 4
  15 "ValveBiped.Bip01_L_Finger11" 14
  16 "ValveBiped.Bip01_L_Finger12" 15
  17 "ValveBiped.Bip01_L_Finger0" 4
  18 "ValveBiped.Bip01_L_Finger01" 17
  19 "ValveBiped.Bip01_L_Finger02" 18
  20 "ValveBiped.Bip01_R_Clavicle" 0
  21 "ValveBiped.Bip01_R_UpperArm" 20
  22 "ValveBiped.Bip01_R_Forearm" 21
  23 "ValveBiped.Bip01_R_Hand" 22
  24 "ValveBiped.Bip01_R_Finger4" 23
  25 "ValveBiped.Bip01_R_Finger41" 24
  26 "ValveBiped.Bip01_R_Finger42" 25
  27 "ValveBiped.Bip01_R_Finger3" 23
  28 "ValveBiped.Bip01_R_Finger31" 27
  29 "ValveBiped.Bip01_R_Finger32" 28
  30 "ValveBiped.Bip01_R_Finger2" 23
  31 "ValveBiped.Bip01_R_Finger21" 30
  32 "ValveBiped.Bip01_R_Finger22" 31
  33 "ValveBiped.Bip01_R_Finger1" 23
  34 "ValveBiped.Bip01_R_Finger11" 33
  35 "ValveBiped.Bip01_R_Finger12" 34
  36 "ValveBiped.Bip01_R_Finger0" 23
  37 "ValveBiped.Bip01_R_Finger01" 36
  38 "ValveBiped.Bip01_R_Finger02" 37
  39 "v_weapon.USP_Parent" -1
  40 "v_weapon.USP_Clip" 39
  41 "v_weapon.USP_Hammer" 39
  42 "v_weapon.USP_Release" 39
  43 "v_weapon.USP_Slide" 39
  44 "v_weapon.USP_Switch" 39
  45 "v_weapon.USP_Trigger" 39
  46 "v_weapon.USP_Silencer" 39
end
skeleton
  time 0
    0 0.000005 -2.660156 -8.640625 -1.570760 -1.391893 -1.570827
    1 2.033348 1.000767 1.937660 1.596636 -1.286515 2.942963
    2 6.028145 0.000003 0.000002 -0.633417 -0.744579 -2.045568
    3 11.692553 0.000081 -0.000007 -0.000003 0.000024 -0.951543
    4 11.481672 -0.000089 -0.000024 -0.117051 0.464617 0.075601
    5 3.281560 0.002122 -1.379481 0.060417 -0.190574 -0.991193
    6 1.328125 -0.000002 -0.000002 0.000002 -0.054909 -0.582384
    7 0.819336 0.000000 0.000001 0.000000 0.000000 -0.523584
    8 3.711854 0.109258 -0.568166 -0.039988 -0.149184 -1.054600
    9 1.609410 0.000004 -0.000005 -0.000002 0.001793 -0.427508
    10 0.993190 -0.000004 0.000004 0.001476 0.002258 -0.454039
    11 3.786034 0.203230 0.247844 -0.084242 -0.093732 -0.793190
    12 1.680664 0.000002 0.000000 -0.000001 0.006216 -0.584702
    13 1.256836 0.000006 -0.000002 0.000000 0.000000 -0.532315
    14 3.594226 0.299555 1.113710 -0.047418 -0.108690 -0.915309
    15 1.723633 0.000004 -0.000004 0.000000 0.000000 -0.288008
    16 1.002930 -0.000004 0.000004 0.000000 0.000000 -0.445039
    17 0.298214 -0.637996 0.430606 -1.264353 -0.790633 -0.638569
    18 2.636719 0.000000 -0.000004 -0.000002 -0.221920 0.499922
    19 1.309570 -0.000002 -0.000002 -0.026244 -0.055141 0.588010
    20 2.033356 1.000772 -1.937610 -1.668474 1.286518 2.942953
    21 6.028141 0.000000 -0.000002 1.708951 0.868279 -0.463200
    22 11.692554 0.000000 0.000000 0.000118 0.000276 -1.699151
    23 11.481705 -0.000001 -0.000009 -0.833155 0.105604 1.018887
    24 2.906526 -0.027078 1.404053 -0.101425 0.018849 -0.788479
    25 1.283203 -0.000004 -0.000002 0.000007 0.148980 -0.924032
    26 0.842285 0.000002 -0.000001 -0.059567 0.048353 -1.058030
    27 3.364156 0.003467 0.622456 0.036139 -0.076937 -1.015871
    28 1.605509 -0.000002 0.000002 0.000003 0.122000 -1.086872
    29 1.016602 0.000000 0.000001 0.012870 -0.013332 -1.223347
    30 3.551622 0.023914 -0.200566 0.012824 -0.103125 -0.904951
    31 1.666992 0.000002 0.000000 -0.000007 0.157404 -1.208300
    32 1.240436 0.000000 0.000005 0.000002 -0.000011 -1.279228
    33 3.449664 0.054208 -1.085181 0.053722 0.070841 -0.349852
    34 1.711614 0.000008 0.000012 0.000003 -0.030101 -0.798916
    35 1.005910 0.000002 0.000008 0.022799 -0.030302 -1.095530
    36 0.075535 -0.738752 -0.755818 1.327489 0.288916 -0.483077
    37 2.508557 -0.000008 -0.000006 -0.000002 -0.000001 0.359162
    38 1.312475 0.101566 -0.187510 0.052053 0.066424 0.654807
    39 -6.116521 -23.810024 -7.188386 1.570663 0.000045 -3.141681
    40 -0.003810 2.312519 1.197218 0.000000 0.000000 0.000000
    41 0.001230 3.011752 2.415958 -0.000025 0.000000 0.000000
    42 0.001228 2.742167 -1.331091 0.000000 0.000000 0.000000
    43 0.001229 3.617197 0.625910 -0.000001 0.000000 0.000000
    44 0.001260 2.691445 2.738224 0.000000 0.000000 0.000000
    45 0.001231 2.716781 -0.958050 -0.403146 0.000000 0.000000
    46 0.001229 -1.469727 23.718750 0.000000 -0.000001 0.000000
  time 1
    0 0.000005 -2.660156 -8.640625 -1.570760 -1.391893 -1.570827
    1 2.033348 1.000767 1.937660 1.596636 -1.286515 2.942963
    2 6.028145 0.000003 0.000002 -0.633417 -0.744579 -2.045568
    3 11.692553 0.000081 -0.000007 -0.000003 0.000024 -0.951543
    4 11.481672 -0.000089 -0.000024 -0.117051 0.464617 0.075601
    5 3.281560 0.002122 -1.379481 0.060417 -0.190574 -0.991193
    6 1.328125 -0.000002 -0.000002 0.000002 -0.054909 -0.582384
    7 0.819336 0.000000 0.000001 0.000000 0.000000 -0.523584
    8 3.711854 0.109258 -0.568166 -0.039988 -0.149184 -1.054600
    9 1.609410 0.000004 -0.000005 -0.000002 0.001793 -0.427508
    10 0.993190 -0.000004 0.000004 0.001476 0.002258 -0.454039
    11 3.786034 0.203230 0.247844 -0.084242 -0.093732 -0.793190
    12 1.680664 0.000002 0.000000 -0.000001 0.006216 -0.584702
    13 1.256836 0.000006 -0.000002 0.000000 0.000000 -0.532315
    14 3.594226 0.299555 1.113710 -0.047418 -0.108690 -0.915309
    15 1.723633 0.000004 -0.000004 0.000000 0.000000 -0.288008
    16 1.002930 -0.000004 0.000004 0.000000 0.000000 -0.445039
    17 0.298214 -0.637996 0.430606 -1.264353 -0.790633 -0.638569
    18 2.636719 0.000000 -0.000004 -0.000002 -0.221920 0.499922
    19 1.309570 -0.000002 -0.000002 -0.026244 -0.055141 0.588010
    20 2.033356 1.000772 -1.937610 -1.668474 1.286518 2.942953
    21 6.028141 0.000000 -0.000002 1.708951 0.868279 -0.463200
    22 11.692554 0.000000 0.000000 0.000118 0.000276 -1.699151
    23 11.481705 -0.000001 -0.000009 -0.833155 0.105604 1.018887
    24 2.906526 -0.027078 1.404053 -0.101425 0.018849 -0.788479
    25 1.283203 -0.000004 -0.000002 0.000007 0.148980 -0.924032
    26 0.842285 0.000002 -0.000001 -0.059567 0.048353 -1.058030
    27 3.364156 0.003467 0.622456 0.036139 -0.076937 -1.015871
    28 1.605509 -0.000002 0.000002 0.000003 0.122000 -1.086872
    29 1.016602 0.000000 0.000001 0.012870 -0.013332 -1.223347
    30 3.551622 0.023914 -0.200566 0.012824 -0.103125 -0.904951
    31 1.666992 0.000002 0.000000 -0.000007 0.157404 -1.208300
    32 1.240436 0.000000 0.000005 0.000002 -0.000011 -1.279228
    33 3.449664 0.054208 -1.085181 0.053722 0.070841 -0.349852
    34 1.711614 0.000008 0.000012 0.000003 -0.030101 -0.798916
    35 1.005910 0.000002 0.000008 0.022799 -0.030302 -1.095530
    36 0.075535 -0.738752 -0.755818 1.327489 0.288916 -0.483077
    37 2.508557 -0.000008 -0.000006 -0.000002 -0.000001 0.359162
    38 1.312475 0.101566 -0.187510 0.052053 0.066424 0.654807
    39 -6.116521 -23.810024 -7.188386 1.570663 0.000045 -3.141681
    40 -0.003810 2.312519 1.197218 0.000000 0.000000 0.000000
    41 0.001230 3.011752 2.415958 -0.000025 0.000000 0.000000
    42 0.001228 2.742167 -1.331091 0.000000 0.000000 0.000000
    43 0.001229 3.617197 0.625910 -0.000001 0.000000 0.000000
    44 0.001260 2.691445 2.738224 0.000000 0.000000 0.000000
    45 0.001231 2.716781 -0.958050 -0.403146 0.000000 0.000000
    46 0.001229 -1.469727 23.718750 0.000000 -0.000001 0.000000
  time 2
    0 0.000005 -2.660156 -8.640625 -1.570760 -1.391893 -1.570827
    1 2.033348 1.000767 1.937660 1.596636 -1.286515 2.942963
    2 6.028145 0.000003 0.000002 -0.574281 -0.793674 -2.082560
    3 11.692553 0.000081 -0.000007 -0.000027 0.000072 -0.936602
    4 11.481672 -0.000089 -0.000024 -0.051651 0.460180 0.091373
    5 3.281560 0.006028 -1.383387 0.060604 -0.190095 -0.991723
    6 1.328125 -0.000002 -0.000002 0.000002 -0.054909 -0.582384
    7 0.819336 0.000000 0.000001 0.000000 0.000000 -0.523584
    8 3.711854 0.109258 -0.572072 -0.039821 -0.148693 -1.055112
    9 1.609410 0.000004 -0.000005 -0.000002 0.001793 -0.427508
    10 0.993190 -0.000004 0.000004 0.001476 0.002258 -0.454039
    11 3.786034 0.207136 0.247844 -0.083959 -0.093301 -0.793694
    12 1.680664 0.000002 0.000000 -0.000001 0.006216 -0.584702
    13 1.256836 0.000006 -0.000002 0.000000 0.000000 -0.532315
    14 3.594226 0.303461 1.109803 -0.047187 -0.108235 -0.915844
    15 1.723633 0.000004 -0.000004 0.000000 0.000000 -0.288008
    16 1.002930 -0.000004 0.000004 0.000000 0.000000 -0.445039
    17 0.298214 -0.634090 0.426700 -1.263822 -0.790260 -0.639376
    18 2.636719 0.000000 -0.000004 -0.000002 -0.221920 0.499922
    19 1.309570 -0.000002 -0.000002 -0.026244 -0.055141 0.588010
    20 2.033356 1.000772 -1.937610 -1.668474 1.286518 2.942953
    21 6.028141 0.000000 -0.000002 1.721911 0.876172 -0.446268
    22 11.692554 0.000000 0.000000 0.000034 -0.000012 -1.691606
    23 11.481705 -0.000001 -0.000009 -0.914569 0.231607 0.830684
    24 2.914339 -0.023172 1.400147 -0.101667 0.018501 -0.788905
    25 1.283203 -0.000004 -0.000002 0.000007 0.148980 -0.924032
    26 0.842285 0.000002 -0.000001 -0.059567 0.048353 -1.058030
    27 3.368063 0.007373 0.618550 0.035972 -0.077320 -1.016266
    28 1.605509 -0.000002 0.000002 0.000003 0.121988 -1.086911
    29 1.016602 0.000000 0.000001 0.012870 -0.013332 -1.223347
    30 3.555528 0.023914 -0.204472 0.012608 -0.103497 -0.905346
    31 1.666992 0.000002 0.000000 -0.000007 0.157404 -1.208300
    32 1.240436 0.000000 0.000005 0.000002 -0.000011 -1.279228
    33 3.449664 0.054208 -1.089087 0.053338 0.070644 -0.350285
    34 1.711614 0.000008 0.000012 0.000003 -0.030101 -0.798916
    35 1.005910 0.000002 0.000008 0.022799 -0.030302 -1.095530
    36 0.075535 -0.738752 -0.755818 1.327116 0.288669 -0.483586
    37 2.508557 -0.000008 -0.000006 -0.000002 -0.000001 0.359162
    38 1.312475 0.101566 -0.187510 0.052053 0.066424 0.654807
    39 -6.038393 -23.767054 -6.133666 1.791132 -0.087474 -3.137942
    40 -0.003810 2.312519 1.197218 0.000000 0.000000 0.000000
    41 0.001230 3.011752 2.415958 -0.701611 0.000000 0.000000
    42 0.001228 2.742167 -1.331091 0.000000 0.000000 0.000000
    43 0.001229 3.617197 0.961603 -0.000001 0.000000 0.000000
    44 0.001260 2.691445 2.738224 0.000000 0.000000 0.000000
    45 0.001231 2.716781 -0.958050 -0.408226 0.000000 0.000000
    46 0.001229 -1.469727 23.718750 0.000000 -0.000001 0.000000
  time 3
    0 0.000005 -2.660156 -8.640625 -1.570760 -1.391893 -1.570827
    1 2.033348 1.000767 1.937660 1.596636 -1.286515 2.942963
    2 6.028145 0.000003 0.000002 -0.536369 -0.830744 -2.094890
    3 11.692553 0.000081 -0.000007 -0.000003 0.000024 -0.946486
    4 11.481672 -0.000089 -0.000024 0.017067 0.455943 0.111220
    5 3.281560 0.002122 -1.383387 0.060434 -0.190574 -0.991193
    6 1.328125 -0.000002 -0.000002 0.000002 -0.054909 -0.582384
    7 0.819336 0.000000 0.000001 0.000000 0.000000 -0.523584
    8 3.711854 0.109258 -0.572072 -0.039988 -0.149184 -1.054600
    9 1.605503 0.000004 -0.000005 -0.000002 0.001793 -0.427508
    10 0.993190 -0.000004 0.000004 0.001476 0.002258 -0.454039
    11 3.786034 0.203230 0.247844 -0.084242 -0.093732 -0.793190
    12 1.680664 0.000002 0.000000 -0.000001 0.006216 -0.584702
    13 1.256836 0.000006 -0.000002 0.000000 0.000000 -0.532315
    14 3.594226 0.299555 1.109803 -0.047403 -0.108702 -0.915365
    15 1.723633 0.000004 -0.000004 0.000000 0.000000 -0.288008
    16 1.002930 -0.000004 0.000004 0.000000 0.000000 -0.445039
    17 0.298214 -0.634090 0.426700 -1.264353 -0.790633 -0.638569
    18 2.636719 0.000000 -0.000004 -0.000002 -0.221920 0.499922
    19 1.309570 -0.000002 -0.000002 -0.026244 -0.055141 0.588010
    20 2.033356 1.000772 -1.937610 -1.668474 1.286518 2.942953
    21 6.028141 0.000000 -0.000002 1.761442 0.895833 -0.395986
    22 11.692554 0.000000 0.000000 0.000034 -0.000012 -1.724031
    23 11.481705 -0.000001 -0.000009 -0.974516 0.288487 0.713095
    24 2.910432 -0.023172 1.400147 -0.101667 0.018501 -0.788905
    25 1.283203 -0.000004 -0.000002 0.000007 0.148980 -0.924032
    26 0.842285 0.000002 -0.000001 -0.059567 0.048353 -1.058030
    27 3.368063 0.007373 0.618550 0.035972 -0.077320 -1.016266
    28 1.605509 -0.000002 0.000002 0.000003 0.122000 -1.086872
    29 1.016602 0.000000 0.000001 0.012870 -0.013332 -1.223347
    30 3.551622 0.023914 -0.204472 0.012608 -0.103497 -0.905346
    31 1.666992 0.000002 0.000000 -0.000007 0.157404 -1.208300
    32 1.240436 0.000000 0.000005 0.000002 -0.000011 -1.279228
    33 3.449664 0.054208 -1.089087 0.053338 0.070644 -0.350285
    34 1.711614 0.000008 0.000012 0.000003 -0.030460 -0.807818
    35 1.005910 0.000002 0.000008 0.023146 -0.030506 -1.104094
    36 0.075535 -0.738752 -0.755818 1.327116 0.288669 -0.483586
    37 2.508557 -0.000008 -0.000006 -0.000002 -0.000001 0.359146
    38 1.312475 0.101566 -0.187510 0.052053 0.066424 0.654807
    39 -5.600880 -23.142035 -4.817220 1.968190 -0.157533 -3.120781
    40 -0.003810 2.312519 1.197218 0.000000 0.000000 0.000000
    41 0.001230 3.011752 2.415958 -0.571649 0.000000 0.000000
    42 0.001228 2.742167 -1.331091 0.000000 0.000000 0.000000
    43 0.001229 3.617197 1.968684 -0.000001 0.000000 0.000000
    44 0.001260 2.691445 2.738224 0.000000 0.000000 0.000000
    45 0.001231 2.716781 -0.958050 -0.419435 0.000000 0.000000
    46 0.001229 -1.469727 23.718750 0.000000 -0.000001 0.000000
  time 4
    0 0.000005 -2.660156 -8.640625 -1.570760 -1.391893 -1.570827
    1 2.033348 1.000767 1.937660 1.596636 -1.286515 2.942963
    2 6.028145 0.000003 0.000002 -0.530292 -0.845192 -2.087473
    3 11.692553 0.000081 -0.000007 -0.000003 0.000024 -0.958516
    4 11.481672 -0.000089 -0.000024 0.061475 0.457962 0.143118
    5 3.281560 0.002122 -1.383387 0.060570 -0.190502 -0.991511
    6 1.328125 -0.000002 -0.000002 0.000002 -0.054909 -0.582384
    7 0.819336 0.000000 0.000001 0.000000 0.000000 -0.523584
    8 3.711854 0.105351 -0.572072 -0.039835 -0.149088 -1.054952
    9 1.609410 0.000004 -0.000005 -0.000002 0.001793 -0.427508
    10 0.993190 -0.000004 0.000004 0.001476 0.002258 -0.454039
    11 3.786034 0.203230 0.247844 -0.084075 -0.093684 -0.793498
    12 1.680664 0.000002 0.000000 -0.000001 0.006216 -0.584702
    13 1.256836 0.000006 -0.000002 0.000000 0.000000 -0.532315
    14 3.594226 0.299555 1.109803 -0.047245 -0.108630 -0.915675
    15 1.723633 0.000004 -0.000004 0.000000 0.000000 -0.288008
    16 1.002930 -0.000004 0.000004 0.000000 0.000000 -0.445039
    17 0.298214 -0.634090 0.426700 -1.264063 -0.790633 -0.639030
    18 2.636719 0.000000 -0.000004 -0.000002 -0.221920 0.499922
    19 1.309570 -0.000002 -0.000002 -0.026244 -0.055141 0.588010
    20 2.033356 1.000772 -1.937610 -1.668474 1.286518 2.942953
    21 6.028141 0.000000 -0.000002 1.776904 0.883645 -0.376256
    22 11.692554 0.000000 0.000000 0.000046 -0.000012 -1.760085
    23 11.481705 -0.000001 -0.000009 -0.969899 0.223188 0.780716
    24 2.910432 -0.023172 1.404053 -0.101667 0.018501 -0.788905
    25 1.283203 -0.000004 -0.000002 0.000007 0.148980 -0.924032
    26 0.842285 0.000002 -0.000001 -0.059567 0.048353 -1.058030
    27 3.368063 0.007373 0.618550 0.035972 -0.077320 -1.016266
    28 1.605509 -0.000002 0.000002 0.000003 0.122000 -1.086872
    29 1.016602 0.000000 0.000001 0.012870 -0.013332 -1.223347
    30 3.551622 0.023914 -0.200566 0.012608 -0.103497 -0.905346
    31 1.666992 0.000002 0.000000 -0.000007 0.157404 -1.208300
    32 1.240436 0.000000 0.000005 0.000002 -0.000011 -1.279260
    33 3.449664 0.054208 -1.089087 0.053338 0.070644 -0.350285
    34 1.711614 0.000008 0.000012 0.000003 -0.031060 -0.822715
    35 1.005910 0.000002 0.000008 0.023745 -0.030842 -1.118358
    36 0.075535 -0.738752 -0.755818 1.327116 0.288669 -0.483586
    37 2.508557 -0.000008 -0.000006 -0.000002 -0.000001 0.359146
    38 1.312475 0.101566 -0.187510 0.052053 0.066424 0.654807
    39 -5.569629 -22.884215 -4.989100 1.900576 -0.176997 -3.099018
    40 -0.003810 2.312519 1.197218 0.000000 0.000000 0.000000
    41 0.001230 3.011752 2.415958 -0.285811 0.000000 0.000000
    42 0.001228 2.742167 -1.331091 0.000000 0.000000 0.000000
    43 0.001229 3.617197 1.816096 -0.000001 0.000000 0.000000
    44 0.001260 2.691445 2.738224 0.000000 0.000000 0.000000
    45 0.001231 2.716781 -0.958050 -0.430645 0.000000 0.000000
    46 0.001229 -1.469727 23.718750 0.000000 -0.000001 0.000000
  time 5
    0 0.000005 -2.660156 -8.640625 -1.570760 -1.391893 -1.570827
    1 2.033348 1.000767 1.937660 1.596636 -1.286515 2.942963
    2 6.028145 0.000003 0.000002 -0.565846 -0.827988 -2.058733
    3 11.692553 0.000081 -0.000007 -0.000003 0.000024 -0.960431
    4 11.481672 -0.000089 -0.000024 0.076788 0.474284 0.190552
    5 3.281560 0.002122 -1.383387 0.060417 -0.190574 -0.991193
    6 1.328125 -0.000002 -0.000002 0.000002 -0.054909 -0.582384
    7 0.819336 0.000000 0.000001 0.000000 0.000000 -0.523584
    8 3.711854 0.109258 -0.568166 -0.039988 -0.149172 -1.054600
    9 1.609410 0.000004 -0.000005 -0.000002 0.001793 -0.427508
    10 0.993190 -0.000004 0.000004 0.001476 0.002258 -0.454039
    11 3.786034 0.203230 0.247844 -0.084242 -0.093732 -0.793190
    12 1.680664 0.000002 0.000000 -0.000001 0.006216 -0.584702
    13 1.256836 0.000006 -0.000002 0.000000 0.000000 -0.532315
    14 3.594226 0.299555 1.109803 -0.047418 -0.108690 -0.915309
    15 1.723633 0.000004 -0.000004 0.000000 0.000000 -0.288008
    16 1.002930 -0.000004 0.000004 0.000000 0.000000 -0.445039
    17 0.298214 -0.634090 0.426700 -1.264353 -0.790633 -0.638569
    18 2.636719 0.000000 -0.000004 -0.000002 -0.221920 0.499922
    19 1.309570 -0.000002 -0.000002 -0.026244 -0.055141 0.588010
    20 2.033356 1.000772 -1.937610 -1.668474 1.286518 2.942953
    21 6.028141 0.000000 -0.000002 1.742477 0.885112 -0.420148
    22 11.692554 0.000000 0.000000 0.000070 -0.000012 -1.722476
    23 11.481705 -0.000001 -0.000009 -0.962851 0.135471 0.885596
    24 2.914339 -0.027078 1.400147 -0.102014 0.019160 -0.789559
    25 1.283203 -0.000004 -0.000002 0.000007 0.148980 -0.924032
    26 0.842285 0.000002 -0.000001 -0.059567 0.048353 -1.058030
    27 3.371969 0.007373 0.618550 0.035492 -0.076757 -1.016860
    28 1.605509 -0.000002 0.000002 0.000003 0.122000 -1.086872
    29 1.016602 0.000000 0.000001 0.012870 -0.013332 -1.223347
    30 3.559435 0.023914 -0.204472 0.012201 -0.102874 -0.905938
    31 1.666992 0.000002 0.000000 -0.000007 0.157404 -1.208300
    32 1.240436 0.000000 0.000005 0.000002 -0.000011 -1.279228
    33 3.453570 0.054208 -1.089087 0.053325 0.071388 -0.350933
    34 1.715521 0.000008 0.000012 0.000003 -0.031179 -0.825667
    35 1.005910 0.000002 0.000008 0.023865 -0.030902 -1.121249
    36 0.079442 -0.734846 -0.755818 1.327004 0.289409 -0.484264
    37 2.508557 -0.000008 -0.000006 -0.000002 -0.000001 0.359162
    38 1.312475 0.101566 -0.187510 0.052053 0.066424 0.654807
    39 -5.663382 -23.454545 -6.141479 1.720010 -0.153658 -3.086362
    40 -0.003810 2.312519 1.197218 0.000000 0.000000 0.000000
    41 0.001230 3.011752 2.415958 -0.000025 0.000000 0.000000
    42 0.001228 2.742167 -1.331091 0.000000 0.000000 0.000000
    43 0.001229 3.617197 1.358332 -0.000001 0.000000 0.000000
    44 0.001260 2.691445 2.738224 0.000000 0.000000 0.000000
    45 0.001231 2.716781 -0.958050 -0.435751 0.000000 0.000000
    46 0.001229 -1.469727 23.718750 0.000000 -0.000001 0.000000
  time 6
    0 0.000005 -2.660156 -8.640625 -1.570760 -1.391893 -1.570827
    1 2.033348 1.000767 1.937660 1.596636 -1.286515 2.942963
    2 6.028145 0.000003 0.000002 -0.608656 -0.798711 -2.032125
    3 11.692553 0.000081 -0.000007 -0.000003 0.000024 -0.954225
    4 11.481672 -0.000089 -0.000024 0.076023 0.495838 0.255234
    5 3.281560 0.002122 -1.383387 0.060417 -0.190574 -0.991193
    6 1.328125 -0.000002 -0.000002 0.000002 -0.054909 -0.582384
    7 0.819336 0.000000 0.000001 0.000000 0.000000 -0.523584
    8 3.711854 0.109258 -0.568166 -0.039988 -0.149172 -1.054600
    9 1.605503 0.000004 -0.000005 -0.000002 0.001793 -0.427508
    10 0.993190 -0.000004 0.000004 0.001476 0.002258 -0.454039
    11 3.786034 0.203230 0.247844 -0.084242 -0.093732 -0.793190
    12 1.680664 0.000002 0.000000 -0.000001 0.006216 -0.584702
    13 1.256836 0.000006 -0.000002 0.000000 0.000000 -0.532315
    14 3.594226 0.299555 1.113710 -0.047403 -0.108690 -0.915365
    15 1.723633 0.000004 -0.000004 0.000000 0.000000 -0.288008
    16 1.002930 -0.000004 0.000004 0.000000 0.000000 -0.445039
    17 0.298214 -0.637996 0.426700 -1.264353 -0.790633 -0.638569
    18 2.636719 0.000000 -0.000004 -0.000002 -0.221920 0.499922
    19 1.309570 -0.000002 -0.000002 -0.026244 -0.055141 0.588010
    20 2.033356 1.000772 -1.937610 -1.668474 1.286518 2.942953
    21 6.028141 0.000000 -0.000002 1.712654 0.868558 -0.458302
    22 11.692554 0.000000 0.000000 0.000034 -0.000012 -1.698229
    23 11.481705 -0.000001 -0.000009 -0.952887 0.069311 0.970568
    24 2.910432 -0.023172 1.400147 -0.101667 0.018501 -0.788905
    25 1.283203 -0.000004 -0.000002 0.000007 0.148980 -0.924032
    26 0.842285 0.000002 -0.000001 -0.059567 0.048353 -1.058030
    27 3.368063 0.007373 0.618550 0.035972 -0.077320 -1.016266
    28 1.605509 -0.000002 0.000002 0.000003 0.122000 -1.086872
    29 1.016602 0.000000 0.000001 0.012870 -0.013332 -1.223347
    30 3.551622 0.023914 -0.204472 0.012608 -0.103497 -0.905346
    31 1.666992 0.000002 0.000000 -0.000007 0.157404 -1.208300
    32 1.240436 0.000000 0.000005 0.000002 -0.000011 -1.279228
    33 3.449664 0.054208 -1.089087 0.053338 0.070644 -0.350285
    34 1.711614 0.000008 0.000012 0.000003 -0.030101 -0.798916
    35 1.005910 0.000002 0.000008 0.022799 -0.030302 -1.095530
    36 0.075535 -0.738752 -0.755818 1.327116 0.288669 -0.483586
    37 2.508557 -0.000008 -0.000006 -0.000002 -0.000001 0.359162
    38 1.312475 0.101566 -0.187510 0.052053 0.066392 0.654807
    39 -5.913390 -23.770961 -7.262607 1.568734 -0.121679 -3.089526
    40 -0.003810 2.312519 1.197218 0.000000 0.000000 0.000000
    41 0.001230 3.011752 2.415958 -0.000025 0.000000 0.000000
    42 0.001228 2.742167 -1.331091 0.000000 0.000000 0.000000
    43 0.001229 3.617197 0.625910 -0.000001 0.000000 0.000000
    44 0.001260 2.691445 2.738224 0.000000 0.000000 0.000000
    45 0.001231 2.716781 -0.958050 -0.428597 0.000000 0.000000
    46 0.001229 -1.469727 23.718750 0.000000 -0.000001 0.000000
  time 7
    0 0.000005 -2.660156 -8.640625 -1.570760 -1.391893 -1.570827
    1 2.033348 1.000767 1.937660 1.596636 -1.286515 2.942963
    2 6.028145 0.000003 0.000002 -0.629971 -0.776802 -2.024245
    3 11.692553 0.000081 -0.000007 -0.000003 0.000024 -0.951620
    4 11.481672 -0.000089 -0.000024 0.062432 0.511366 0.328718
    5 3.281560 0.002122 -1.383387 0.060434 -0.190574 -0.991193
    6 1.328125 -0.000002 -0.000002 0.000002 -0.054909 -0.582384
    7 0.819336 0.000000 0.000001 0.000000 0.000000 -0.523584
    8 3.711854 0.109258 -0.572072 -0.039988 -0.149172 -1.054600
    9 1.609410 0.000004 -0.000005 -0.000002 0.001793 -0.427508
    10 0.993190 -0.000004 0.000004 0.001476 0.002258 -0.454039
    11 3.786034 0.203230 0.243937 -0.084242 -0.093732 -0.793190
    12 1.680664 0.000002 0.000000 -0.000001 0.006216 -0.584702
    13 1.256836 0.000006 -0.000002 0.000000 0.000000 -0.532315
    14 3.594226 0.299555 1.109803 -0.047403 -0.108702 -0.915365
    15 1.723633 0.000004 -0.000004 0.000000 0.000000 -0.288008
    16 1.002930 -0.000004 0.000004 0.000000 0.000000 -0.445039
    17 0.298214 -0.637996 0.426700 -1.264353 -0.790633 -0.638569
    18 2.636719 0.000000 -0.000004 -0.000002 -0.221920 0.499922
    19 1.309570 -0.000002 -0.000002 -0.026244 -0.055141 0.588010
    20 2.033356 1.000772 -1.937610 -1.668474 1.286518 2.942953
    21 6.028141 0.000000 -0.000002 1.698643 0.858815 -0.476493
    22 11.692554 0.000000 0.000000 0.000034 -0.000024 -1.678935
    23 11.481705 -0.000001 -0.000009 -0.944381 0.049674 0.994814
    24 2.914339 -0.023172 1.404053 -0.101667 0.018501 -0.788905
    25 1.283203 -0.000004 -0.000002 0.000007 0.148980 -0.924032
    26 0.842285 0.000002 -0.000001 -0.059567 0.048353 -1.058030
    27 3.368063 0.007373 0.622456 0.035972 -0.077320 -1.016266
    28 1.605509 -0.000002 0.000002 0.000003 0.122000 -1.086872
    29 1.016602 0.000000 0.000001 0.012870 -0.013332 -1.223347
    30 3.551622 0.023914 -0.200566 0.012608 -0.103497 -0.905346
    31 1.666992 0.000002 0.000000 -0.000007 0.157404 -1.208300
    32 1.240436 0.000000 0.000005 0.000002 -0.000011 -1.279260
    33 3.449664 0.054208 -1.089087 0.053338 0.070644 -0.350285
    34 1.711614 0.000008 0.000012 0.000003 -0.027728 -0.741565
    35 1.005910 0.000002 0.000008 0.020617 -0.028984 -1.042916
    36 0.075535 -0.738752 -0.755818 1.327116 0.288669 -0.483586
    37 2.508557 -0.000008 -0.000006 -0.000002 -0.000001 0.359162
    38 1.312475 0.101566 -0.187510 0.052053 0.066424 0.654807
    39 -6.100895 -23.962373 -7.809499 1.510942 -0.101860 -3.098155
    40 -0.003810 2.312519 1.197218 0.000000 0.000000 0.000000
    41 0.001230 3.011752 2.415958 -0.000025 0.000000 0.000000
    42 0.001228 2.742167 -1.331091 0.000000 0.000000 0.000000
    43 0.001229 3.617197 0.625910 -0.000001 0.000000 0.000000
    44 0.001260 2.691445 2.738224 0.000000 0.000000 0.000000
    45 0.001231 2.716781 -0.958050 -0.403146 0.000000 0.000000
    46 0.001229 -1.469727 23.718750 0.000000 -0.000001 0.000000
  time 8
    0 0.000005 -2.660156 -8.640625 -1.570760 -1.391893 -1.570827
    1 2.033348 1.000767 1.937660 1.596636 -1.286515 2.942963
    2 6.028145 0.000003 0.000002 -0.637408 -0.765205 -2.021371
    3 11.692553 0.000081 -0.000007 -0.000003 0.000024 -0.960661
    4 11.481672 -0.000089 -0.000024 0.048906 0.519411 0.376919
    5 3.281560 0.002122 -1.379481 0.060417 -0.190574 -0.991193
    6 1.328125 -0.000002 -0.000002 0.000002 -0.054909 -0.582384
    7 0.819336 0.000000 0.000001 0.000000 0.000000 -0.523584
    8 3.711854 0.109258 -0.572072 -0.039988 -0.149184 -1.054600
    9 1.609410 0.000004 -0.000005 -0.000002 0.001793 -0.427508
    10 0.993190 -0.000004 0.000004 0.001476 0.002270 -0.454039
    11 3.786034 0.203230 0.243937 -0.084242 -0.093732 -0.793190
    12 1.680664 0.000002 0.000000 -0.000001 0.006216 -0.584702
    13 1.256836 0.000006 -0.000002 0.000000 0.000000 -0.532315
    14 3.594226 0.299555 1.113710 -0.047403 -0.108702 -0.915365
    15 1.723633 0.000004 -0.000004 0.000000 0.000000 -0.288008
    16 1.002930 -0.000004 0.000004 0.000000 0.000000 -0.445039
    17 0.298214 -0.634090 0.426700 -1.264353 -0.790633 -0.638569
    18 2.636719 0.000000 -0.000004 -0.000002 -0.221920 0.499922
    19 1.309570 -0.000002 -0.000002 -0.026244 -0.055141 0.588010
    20 2.033356 1.000772 -1.937610 -1.668474 1.286518 2.942953
    21 6.028141 0.000000 -0.000002 1.698693 0.859514 -0.476353
    22 11.692554 0.000000 0.000000 0.000034 -0.000012 -1.666034
    23 11.481705 -0.000001 -0.000009 -0.930042 0.049854 0.991518
    24 2.910432 -0.023172 1.400147 -0.101667 0.018501 -0.788905
    25 1.283203 -0.000004 -0.000002 0.000007 0.148980 -0.924032
    26 0.842285 0.000002 -0.000001 -0.059567 0.048353 -1.058030
    27 3.368063 0.007373 0.622456 0.035972 -0.077332 -1.016266
    28 1.605509 -0.000002 0.000002 0.000003 0.122000 -1.086872
    29 1.016602 0.000000 0.000001 0.012870 -0.013332 -1.223347
    30 3.551622 0.023914 -0.200566 0.012608 -0.103497 -0.905346
    31 1.666992 0.000002 0.000000 -0.000007 0.157404 -1.208300
    32 1.240436 0.000000 0.000005 0.000002 -0.000011 -1.279228
    33 3.449664 0.054208 -1.089087 0.053338 0.070644 -0.350285
    34 1.711614 0.000008 0.000012 0.000003 -0.024588 -0.668378
    35 1.005910 0.000002 0.000008 0.018077 -0.027210 -0.978554
    36 0.075535 -0.738752 -0.755818 1.327116 0.288669 -0.483586
    37 2.508557 -0.000008 -0.000006 -0.000002 -0.000001 0.359162
    38 1.312475 0.101566 -0.187510 0.052053 0.066424 0.654807
    39 -6.163397 -24.083470 -7.879813 1.506382 -0.087296 -3.103715
    40 -0.003810 2.312519 1.197218 0.000000 0.000000 0.000000
    41 0.001230 3.011752 2.415958 -0.000025 0.000000 0.000000
    42 0.001228 2.742167 -1.331091 0.000000 0.000000 0.000000
    43 0.001229 3.617197 0.625910 -0.000001 0.000000 0.000000
    44 0.001260 2.691445 2.738224 0.000000 0.000000 0.000000
    45 0.001231 2.716781 -0.958050 -0.350662 0.000000 0.000000
    46 0.001229 -1.469727 23.718750 0.000000 -0.000001 0.000000
  time 9
    0 0.000005 -2.660156 -8.640625 -1.570760 -1.391893 -1.570827
    1 2.033348 1.000767 1.937660 1.596636 -1.286515 2.942963
    2 6.028145 0.000003 0.000002 -0.628610 -0.767677 -2.029900
    3 11.692553 0.000081 -0.000007 -0.000003 0.000024 -0.961581
    4 11.481672 -0.000089 -0.000024 0.038250 0.521795 0.385012
    5 3.281560 0.002122 -1.383387 0.060417 -0.190574 -0.991193
    6 1.328125 -0.000002 -0.000002 0.000002 -0.054909 -0.582384
    7 0.819336 0.000000 0.000001 0.000000 0.000000 -0.523584
    8 3.711854 0.109258 -0.568166 -0.039988 -0.149184 -1.054600
    9 1.609410 0.000004 -0.000005 -0.000002 0.001793 -0.427508
    10 0.993190 -0.000004 0.000004 0.001476 0.002258 -0.454039
    11 3.786034 0.203230 0.247844 -0.084242 -0.093732 -0.793190
    12 1.680664 0.000002 0.000000 -0.000001 0.006216 -0.584702
    13 1.256836 0.000006 -0.000002 0.000000 0.000000 -0.532315
    14 3.594226 0.299555 1.109803 -0.047403 -0.108702 -0.915365
    15 1.723633 0.000004 -0.000004 0.000000 0.000000 -0.288008
    16 1.002930 -0.000004 0.000004 0.000000 0.000000 -0.445039
    17 0.298214 -0.634090 0.426700 -1.264353 -0.790633 -0.638569
    18 2.636719 0.000000 -0.000004 -0.000002 -0.221920 0.499922
    19 1.309570 -0.000002 -0.000002 -0.026244 -0.055141 0.588010
    20 2.033356 1.000772 -1.937610 -1.668474 1.286518 2.942953
    21 6.028141 0.000000 -0.000002 1.705448 0.862342 -0.467444
    22 11.692554 0.000000 0.000000 0.000058 0.000012 -1.662694
    23 11.481705 -0.000001 -0.000009 -0.913921 0.062562 0.975816
    24 2.918245 -0.027078 1.404053 -0.101962 0.019088 -0.789445
    25 1.283203 -0.000004 -0.000002 0.000007 0.148980 -0.924032
    26 0.842285 0.000002 -0.000001 -0.059567 0.048353 -1.058030
    27 3.371969 0.007373 0.618550 0.035564 -0.076817 -1.016761
    28 1.605509 -0.000002 0.000002 0.000003 0.122000 -1.086872
    29 1.016602 0.000000 0.000001 0.012870 -0.013332 -1.223347
    30 3.555528 0.023914 -0.200566 0.012261 -0.102946 -0.905848
    31 1.666992 0.000002 0.000000 -0.000007 0.157404 -1.208300
    32 1.240436 0.000000 0.000005 0.000002 0.000001 -1.279228
    33 3.453570 0.054208 -1.089087 0.053325 0.071290 -0.350825
    34 1.711614 0.000008 0.000012 0.000003 -0.020849 -0.584634
    35 1.005910 0.000002 0.000008 0.015320 -0.025005 -0.905734
    36 0.079442 -0.734846 -0.755818 1.327041 0.289306 -0.484167
    37 2.508557 -0.000008 -0.000006 -0.000002 -0.000001 0.359162
    38 1.312475 0.101566 -0.187510 0.052053 0.066392 0.654807
    39 -6.190742 -24.122534 -7.696214 1.531726 -0.076651 -3.107359
    40 -0.003810 2.312519 1.197218 0.000000 0.000000 0.000000
    41 0.001230 3.011752 2.415958 -0.000025 0.000000 0.000000
    42 0.001228 2.742167 -1.331091 0.000000 0.000000 0.000000
    43 0.001229 3.617197 0.625910 -0.000001 0.000000 0.000000
    44 0.001260 2.691445 2.738224 0.000000 0.000000 0.000000
    45 0.001231 2.716781 -0.958050 -0.273551 0.000000 0.000000
    46 0.001229 -1.469727 23.718750 0.000000 -0.000001 0.000000
  time 10
    0 0.000005 -2.660156 -8.640625 -1.570760 -1.391893 -1.570827
    1 2.033348 1.000767 1.937660 1.596636 -1.286515 2.942963
    2 6.028145 0.000003 0.000002 -0.611559 -0.776089 -2.046310
    3 11.692553 0.000081 -0.000007 -0.000003 0.000024 -0.954072
    4 11.481672 -0.000089 -0.000024 0.026829 0.522424 0.374379
    5 3.285467 0.002122 -1.383387 0.060587 -0.190670 -0.991511
    6 1.328125 -0.000002 -0.000002 0.000002 -0.054909 -0.582384
    7 0.819336 0.000000 0.000001 0.000000 0.000000 -0.523584
    8 3.711854 0.105351 -0.572072 -0.039807 -0.149268 -1.054920
    9 1.609410 0.000004 -0.000005 -0.000002 0.001793 -0.427508
    10 0.993190 -0.000004 0.000004 0.001476 0.002258 -0.454039
    11 3.786034 0.203230 0.243937 -0.084075 -0.093864 -0.793470
    12 1.680664 0.000002 0.000000 -0.000001 0.006216 -0.584702
    13 1.256836 0.000006 -0.000002 0.000000 0.000000 -0.532315
    14 3.594226 0.299555 1.109803 -0.047216 -0.108822 -0.915647
    15 1.723633 0.000004 -0.000004 0.000000 0.000000 -0.288008
    16 1.002930 -0.000004 0.000004 0.000000 0.000000 -0.445039
    17 0.298214 -0.637996 0.426700 -1.264160 -0.790798 -0.638972
    18 2.636719 0.000000 -0.000004 -0.000002 -0.221920 0.499922
    19 1.309570 -0.000002 -0.000002 -0.026244 -0.055141 0.588010
    20 2.033356 1.000772 -1.937610 -1.668474 1.286518 2.942953
    21 6.028141 0.000000 -0.000002 1.716357 0.865800 -0.453031
    22 11.692554 0.000000 0.000000 0.000010 0.000000 -1.666092
    23 11.481705 -0.000001 -0.000009 -0.896018 0.081624 0.955126
    24 2.914339 -0.027078 1.404053 -0.102014 0.019136 -0.789559
    25 1.283203 -0.000004 -0.000002 0.000007 0.148980 -0.924032
    26 0.842285 0.000002 -0.000001 -0.059567 0.048353 -1.058030
    27 3.371969 0.007373 0.618550 0.035492 -0.076781 -1.016884
    28 1.605509 -0.000002 0.000002 0.000003 0.122000 -1.086872
    29 1.016602 0.000000 0.000001 0.012870 -0.013332 -1.223347
    30 3.555528 0.023914 -0.204472 0.012201 -0.102898 -0.905956
    31 1.666992 0.000002 0.000000 -0.000007 0.157404 -1.208300
    32 1.240436 0.000000 0.000005 0.000002 -0.000011 -1.279228
    33 3.453570 0.054208 -1.089087 0.053312 0.071360 -0.350933
    34 1.711614 0.000008 0.000012 0.000003 -0.016726 -0.495566
    35 1.005910 0.000002 0.000008 0.012576 -0.022441 -0.827536
    36 0.079442 -0.734846 -0.755818 1.326967 0.289389 -0.484288
    37 2.508557 -0.000008 -0.000006 -0.000002 -0.000001 0.359162
    38 1.312475 0.101566 -0.187510 0.052053 0.066424 0.654807
    39 -6.194648 -24.091283 -7.371985 1.572154 -0.067565 -3.109851
    40 -0.003810 2.312519 1.197218 0.000000 0.000000 0.000000
    41 0.001230 3.011752 2.415958 -0.000025 0.000000 0.000000
    42 0.001228 2.742167 -1.331091 0.000000 0.000000 0.000000
    43 0.001229 3.617197 0.625910 -0.000001 0.000000 0.000000
    44 0.001260 2.691445 2.738224 0.000000 0.000000 0.000000
    45 0.001231 2.716781 -0.958050 -0.182359 0.000000 0.000000
    46 0.001229 -1.469727 23.718750 0.000000 -0.000001 0.000000
  time 11
    0 0.000005 -2.660156 -8.640625 -1.570760 -1.391893 -1.570827
    1 2.033348 1.000767 1.937660 1.596636 -1.286515 2.942963
    2 6.028145 0.000003 0.000002 -0.592875 -0.787163 -2.064481
    3 11.692553 0.000081 -0.000007 -0.000003 0.000024 -0.939820
    4 11.481672 -0.000089 -0.000024 0.015600 0.522192 0.346616
    5 3.285467 0.002122 -1.383387 0.060502 -0.190898 -0.991229
    6 1.328125 -0.000002 -0.000002 0.000002 -0.054909 -0.582384
    7 0.819336 0.000000 0.000001 0.000000 0.000000 -0.523584
    8 3.711854 0.109258 -0.572072 -0.039877 -0.149508 -1.054632
    9 1.605503 0.000004 -0.000005 -0.000002 0.001793 -0.427508
    10 0.993190 -0.000004 0.000004 0.001476 0.002258 -0.454039
    11 3.786034 0.203230 0.243937 -0.084216 -0.094068 -0.793218
    12 1.680664 0.000002 0.000000 -0.000001 0.006216 -0.584702
    13 1.256836 0.000006 -0.000002 0.000000 0.000000 -0.532315
    14 3.594226 0.299555 1.109803 -0.047346 -0.109038 -0.915422
    15 1.723633 0.000004 -0.000004 0.000000 0.000000 -0.288008
    16 1.002930 -0.000004 0.000004 0.000000 0.000000 -0.445039
    17 0.298214 -0.634090 0.426700 -1.264353 -0.790985 -0.638569
    18 2.636719 0.000000 -0.000004 -0.000002 -0.221920 0.499922
    19 1.309570 -0.000002 -0.000002 -0.026244 -0.055141 0.588010
    20 2.033356 1.000772 -1.937610 -1.668474 1.286518 2.942953
    21 6.028141 0.000000 -0.000002 1.728967 0.869187 -0.436520
    22 11.692554 0.000000 0.000000 0.000046 -0.000012 -1.672427
    23 11.481705 -0.000001 -0.000009 -0.876819 0.100524 0.936996
    24 2.910432 -0.023172 1.400147 -0.101667 0.018501 -0.788905
    25 1.283203 -0.000004 -0.000002 0.000007 0.148980 -0.924032
    26 0.842285 0.000002 -0.000001 -0.059567 0.048353 -1.058030
    27 3.368063 0.007373 0.622456 0.035972 -0.077320 -1.016266
    28 1.605509 -0.000002 0.000002 0.000003 0.121988 -1.086911
    29 1.016602 0.000000 0.000001 0.012870 -0.013332 -1.223347
    30 3.551622 0.023914 -0.204472 0.012608 -0.103497 -0.905346
    31 1.666992 0.000002 0.000000 -0.000007 0.157404 -1.208300
    32 1.240436 0.000000 0.000005 0.000002 -0.000011 -1.279228
    33 3.449664 0.054208 -1.089087 0.053338 0.070644 -0.350285
    34 1.711614 0.000008 0.000012 0.000003 -0.012483 -0.406542
    35 1.005910 0.000002 0.000008 0.009951 -0.019576 -0.747250
    36 0.075535 -0.738752 -0.755818 1.327116 0.288669 -0.483586
    37 2.508557 -0.000008 -0.000006 -0.000002 -0.000001 0.359162
    38 1.312475 0.101566 -0.187510 0.052053 0.066392 0.654807
    39 -6.190742 -24.020968 -7.020412 1.613108 -0.057544 -3.111961
    40 -0.003810 2.312519 1.197218 0.000000 0.000000 0.000000
    41 0.001230 3.011752 2.415958 -0.000025 0.000000 0.000000
    42 0.001228 2.742167 -1.331091 0.000000 0.000000 0.000000
    43 0.001229 3.617197 0.625910 -0.000001 0.000000 0.000000
    44 0.001260 2.691445 2.738224 0.000000 0.000000 0.000000
    45 0.001231 2.716781 -0.958050 -0.087656 0.000000 0.000000
    46 0.001229 -1.469727 23.718750 0.000000 -0.000001 0.000000
  time 12
    0 0.000005 -2.660156 -8.640625 -1.570760 -1.391893 -1.570827
    1 2.033348 1.000767 1.937660 1.596636 -1.286515 2.942963
    2 6.028145 0.000003 0.000002 -0.576911 -0.797191 -2.079222
    3 11.692553 0.000081 -0.000007 -0.000003 0.000024 -0.927407
    4 11.481672 -0.000089 -0.000024 0.004753 0.520603 0.312119
    5 3.281560 0.002122 -1.383387 0.060417 -0.190574 -0.991193
    6 1.328125 -0.000002 -0.000002 0.000002 -0.054909 -0.582384
    7 0.819336 0.000000 0.000001 0.000000 0.000000 -0.523584
    8 3.711854 0.109258 -0.572072 -0.039988 -0.149184 -1.054600
    9 1.605503 0.000004 -0.000005 -0.000002 0.001793 -0.427508
    10 0.993190 -0.000004 0.000004 0.001476 0.002258 -0.454039
    11 3.786034 0.203230 0.243937 -0.084242 -0.093732 -0.793190
    12 1.680664 0.000002 0.000000 -0.000001 0.006216 -0.584702
    13 1.256836 0.000006 -0.000002 0.000000 0.000000 -0.532315
    14 3.594226 0.299555 1.109803 -0.047403 -0.108702 -0.915365
    15 1.723633 0.000004 -0.000004 0.000000 0.000000 -0.288008
    16 1.002930 -0.000004 0.000004 0.000000 0.000000 -0.445039
    17 0.298214 -0.637996 0.426700 -1.264353 -0.790633 -0.638569
    18 2.636719 0.000000 -0.000004 -0.000002 -0.221920 0.499922
    19 1.309570 -0.000002 -0.000002 -0.026244 -0.055141 0.588010
    20 2.033356 1.000772 -1.937610 -1.668474 1.286518 2.942953
    21 6.028141 0.000000 -0.000002 1.740576 0.871981 -0.421407
    22 11.692554 0.000000 0.000000 0.000034 -0.000012 -1.679741
    23 11.481705 -0.000001 -0.000009 -0.856324 0.112173 0.933005
    24 2.914339 -0.023172 1.400147 -0.101494 0.018429 -0.788621
    25 1.283203 -0.000004 -0.000002 0.000007 0.148980 -0.924032
    26 0.842285 0.000002 -0.000001 -0.059567 0.048353 -1.058030
    27 3.368063 0.007373 0.618550 0.036163 -0.077356 -1.015994
    28 1.605509 -0.000002 0.000002 0.000003 0.122000 -1.086872
    29 1.016602 0.000000 0.000001 0.012870 -0.013332 -1.223347
    30 3.551622 0.027820 -0.204472 0.012788 -0.103545 -0.905077
    31 1.666992 0.000002 0.000000 -0.000007 0.157404 -1.208300
    32 1.240436 0.000000 0.000005 0.000002 -0.000011 -1.279260
    33 3.449664 0.054208 -1.089087 0.053484 0.070504 -0.349996
    34 1.711614 0.000008 0.000012 0.000003 -0.008421 -0.322887
    35 1.005910 0.000002 0.000008 0.007602 -0.016556 -0.668007
    36 0.075535 -0.734846 -0.755818 1.327265 0.288546 -0.483271
    37 2.508557 -0.000008 -0.000006 -0.000002 -0.000001 0.359146
    38 1.312475 0.101566 -0.187510 0.052053 0.066424 0.654807
    39 -6.182929 -23.942841 -6.743060 1.639330 -0.044449 -3.114837
    40 -0.003810 2.312519 1.197218 0.000000 0.000000 0.000000
    41 0.001230 3.011752 2.415958 -0.000025 0.000000 0.000000
    42 0.001228 2.742167 -1.331091 0.000000 0.000000 0.000000
    43 0.001229 3.617197 0.625910 -0.000001 0.000000 0.000000
    44 0.001260 2.691445 2.738224 0.000000 0.000000 0.000000
    45 0.001231 2.716781 -0.958050 0.000000 0.000000 0.000000
    46 0.001229 -1.469727 23.718750 0.000000 -0.000001 0.000000
  time 13
    0 0.000005 -2.660156 -8.640625 -1.570760 -1.391893 -1.570827
    1 2.033348 1.000767 1.937660 1.596636 -1.286515 2.942963
    2 6.028145 0.000003 0.000002 -0.573102 -0.800090 -2.080891
    3 11.692553 0.000081 -0.000007 -0.000003 0.000024 -0.929399
    4 11.481672 -0.000089 -0.000024 -0.002840 0.518782 0.281048
    5 3.281560 0.002122 -1.379481 0.060417 -0.190574 -0.991193
    6 1.328125 -0.000002 -0.000002 0.000002 -0.054909 -0.582384
    7 0.819336 0.000000 0.000001 0.000000 0.000000 -0.523584
    8 3.711854 0.109258 -0.568166 -0.039988 -0.149184 -1.054600
    9 1.609410 0.000004 -0.000005 -0.000002 0.001793 -0.427508
    10 0.993190 -0.000004 0.000004 0.001476 0.002258 -0.454039
    11 3.786034 0.203230 0.247844 -0.084242 -0.093732 -0.793190
    12 1.680664 0.000002 0.000000 -0.000001 0.006216 -0.584702
    13 1.256836 0.000006 -0.000002 0.000000 0.000000 -0.532315
    14 3.594226 0.299555 1.113710 -0.047403 -0.108702 -0.915365
    15 1.723633 0.000004 -0.000004 0.000000 0.000000 -0.288008
    16 1.002930 -0.000004 0.000004 0.000000 0.000000 -0.445039
    17 0.298214 -0.634090 0.430606 -1.264353 -0.790633 -0.638569
    18 2.636719 0.000000 -0.000004 -0.000002 -0.221920 0.499922
    19 1.309570 -0.000002 -0.000002 -0.026244 -0.055141 0.588010
    20 2.033356 1.000772 -1.937610 -1.668474 1.286518 2.942953
    21 6.028141 0.000000 -0.000002 1.747331 0.874006 -0.412638
    22 11.692554 0.000000 0.000000 0.000034 -0.000012 -1.684003
    23 11.481705 -0.000001 -0.000009 -0.838826 0.118240 0.938817
    24 2.910432 -0.023172 1.404053 -0.101667 0.018501 -0.788905
    25 1.283203 -0.000004 -0.000002 0.000007 0.148980 -0.924032
    26 0.842285 0.000002 -0.000001 -0.059567 0.048353 -1.058030
    27 3.368063 0.007373 0.622456 0.035972 -0.077320 -1.016266
    28 1.605509 -0.000002 0.000002 0.000003 0.121988 -1.086911
    29 1.016602 0.000000 0.000001 0.012870 -0.013332 -1.223347
    30 3.551622 0.023914 -0.200566 0.012608 -0.103497 -0.905346
    31 1.666992 0.000002 0.000000 -0.000007 0.157404 -1.208300
    32 1.240436 0.000000 0.000005 0.000002 -0.000011 -1.279228
    33 3.449664 0.054208 -1.089087 0.053338 0.070644 -0.350285
    34 1.715521 0.000008 0.000012 0.000003 -0.008421 -0.322887
    35 1.005910 0.000002 0.000008 0.005613 -0.013536 -0.593074
    36 0.075535 -0.738752 -0.755818 1.327116 0.288669 -0.483586
    37 2.508557 -0.000008 -0.000006 -0.000002 -0.000001 0.359162
    38 1.312475 0.101566 -0.187510 0.052053 0.066392 0.654807
    39 -6.198555 -23.892058 -6.590711 1.649239 -0.030820 -3.119439
    40 -0.003810 2.312519 1.197218 0.000000 0.000000 0.000000
    41 0.001230 3.011752 2.415958 -0.000025 0.000000 0.000000
    42 0.001228 2.742167 -1.331091 0.000000 0.000000 0.000000
    43 0.001229 3.617197 0.625910 -0.000001 0.000000 0.000000
    44 0.001260 2.691445 2.738224 0.000000 0.000000 0.000000
    45 0.001231 2.716781 -0.958050 0.000000 0.000000 0.000000
    46 0.001229 -1.469727 23.718750 0.000000 -0.000001 0.000000
  time 14
    0 0.000005 -2.660156 -8.640625 -1.570760 -1.391893 -1.570827
    1 2.033348 1.000767 1.937660 1.596636 -1.286515 2.942963
    2 6.028145 0.000003 0.000002 -0.574463 -0.799377 -2.078295
    3 11.692553 0.000081 -0.000007 -0.000003 0.000024 -0.934686
    4 11.481672 -0.000089 -0.000024 -0.008710 0.516299 0.254584
    5 3.281560 0.002122 -1.379481 0.060417 -0.190574 -0.991193
    6 1.328125 -0.000002 -0.000002 0.000002 -0.054909 -0.582384
    7 0.819336 0.000000 0.000001 0.000000 0.000000 -0.523584
    8 3.711854 0.109258 -0.568166 -0.039988 -0.149184 -1.054600
    9 1.609410 0.000004 -0.000005 -0.000002 0.001793 -0.427508
    10 0.993190 -0.000004 0.000004 0.001476 0.002258 -0.454039
    11 3.786034 0.203230 0.247844 -0.084242 -0.093732 -0.793190
    12 1.680664 0.000002 0.000000 -0.000001 0.006216 -0.584702
    13 1.256836 0.000006 -0.000002 0.000000 0.000000 -0.532315
    14 3.594226 0.299555 1.113710 -0.047403 -0.108702 -0.915365
    15 1.723633 0.000004 -0.000004 0.000000 0.000000 -0.288008
    16 1.002930 -0.000004 0.000004 0.000000 0.000000 -0.445039
    17 0.298214 -0.637996 0.426700 -1.264353 -0.790633 -0.638569
    18 2.636719 0.000000 -0.000004 -0.000002 -0.221920 0.499922
    19 1.309570 -0.000002 -0.000002 -0.026244 -0.055141 0.588010
    20 2.033356 1.000772 -1.937610 -1.668474 1.286518 2.942953
    21 6.028141 0.000000 -0.000002 1.749633 0.875124 -0.409699
    22 11.692554 0.000000 0.000000 0.000034 -0.000012 -1.686365
    23 11.481705 -0.000001 -0.000009 -0.827647 0.123409 0.946148
    24 2.910432 -0.023172 1.404053 -0.101667 0.018501 -0.788905
    25 1.283203 -0.000004 -0.000002 0.000007 0.148980 -0.924032
    26 0.842285 0.000002 -0.000001 -0.059567 0.048353 -1.058030
    27 3.368063 0.007373 0.622456 0.035972 -0.077320 -1.016266
    28 1.605509 -0.000002 0.000002 0.000003 0.121988 -1.086911
    29 1.016602 0.000000 0.000001 0.012870 -0.013332 -1.223347
    30 3.551622 0.023914 -0.200566 0.012608 -0.103497 -0.905346
    31 1.666992 0.000002 0.000000 -0.000007 0.157404 -1.208300
    32 1.240436 0.000000 0.000005 0.000002 -0.000011 -1.279228
    33 3.449664 0.054208 -1.085181 0.053338 0.070644 -0.350285
    34 1.711614 0.000008 0.000012 0.000003 -0.008421 -0.322887
    35 1.005910 0.000002 0.000008 0.005613 -0.013536 -0.593074
    36 0.075535 -0.738752 -0.755818 1.327116 0.288669 -0.483586
    37 2.508557 -0.000008 -0.000006 -0.000002 -0.000001 0.359162
    38 1.312475 0.101566 -0.187510 0.052053 0.066392 0.654807
    39 -6.214180 -23.872526 -6.528210 1.652396 -0.020710 -3.125287
    40 -0.003810 2.312519 1.197218 0.000000 0.000000 0.000000
    41 0.001230 3.011752 2.415958 -0.000025 0.000000 0.000000
    42 0.001228 2.742167 -1.331091 0.000000 0.000000 0.000000
    43 0.001229 3.617197 0.625910 -0.000001 0.000000 0.000000
    44 0.001260 2.691445 2.738224 0.000000 0.000000 0.000000
    45 0.001231 2.716781 -0.958050 0.000000 0.000000 0.000000
    46 0.001229 -1.469727 23.718750 0.000000 -0.000001 0.000000
  time 15
    0 0.000005 -2.660156 -8.640625 -1.570760 -1.391893 -1.570827
    1 2.033348 1.000767 1.937660 1.596636 -1.286515 2.942963
    2 6.028145 0.000003 0.000002 -0.576367 -0.796668 -2.076997
    3 11.692553 0.000081 -0.000007 -0.000003 0.000036 -0.938364
    4 11.481672 -0.000089 -0.000024 -0.013878 0.513286 0.237158
    5 3.281560 0.002122 -1.379481 0.060434 -0.190574 -0.991193
    6 1.328125 -0.000002 -0.000002 0.000002 -0.054909 -0.582384
    7 0.819336 0.000000 0.000001 0.000000 0.000000 -0.523584
    8 3.711854 0.109258 -0.568166 -0.039988 -0.149172 -1.054600
    9 1.605503 0.000004 -0.000005 -0.000002 0.001793 -0.427508
    10 0.993190 -0.000004 0.000004 0.001476 0.002258 -0.454039
    11 3.786034 0.203230 0.247844 -0.084242 -0.093732 -0.793190
    12 1.680664 0.000002 0.000000 -0.000001 0.006216 -0.584702
    13 1.256836 0.000006 -0.000002 0.000000 0.000000 -0.532315
    14 3.594226 0.299555 1.109803 -0.047403 -0.108702 -0.915365
    15 1.723633 0.000004 -0.000004 0.000000 0.000000 -0.288008
    16 1.002930 -0.000004 0.000004 0.000000 0.000000 -0.445039
    17 0.298214 -0.637996 0.430606 -1.264305 -0.790633 -0.638569
    18 2.636719 0.000000 -0.000004 -0.000002 -0.221920 0.499922
    19 1.309570 -0.000002 -0.000002 -0.026244 -0.055141 0.588010
    20 2.033356 1.000772 -1.937610 -1.668474 1.286518 2.942953
    21 6.028141 0.000000 -0.000002 1.750083 0.875997 -0.409280
    22 11.692554 0.000000 0.000000 0.000034 -0.000012 -1.688841
    23 11.481705 -0.000001 -0.000009 -0.820599 0.126838 0.955386
    24 2.910432 -0.023172 1.400147 -0.101667 0.018501 -0.788905
    25 1.283203 -0.000004 -0.000002 0.000007 0.148980 -0.924032
    26 0.842285 0.000002 -0.000001 -0.059567 0.048353 -1.058030
    27 3.368063 0.007373 0.618550 0.035972 -0.077320 -1.016266
    28 1.605509 -0.000002 0.000002 0.000003 0.122000 -1.086872
    29 1.016602 0.000000 0.000001 0.012870 -0.013332 -1.223347
    30 3.551622 0.023914 -0.204472 0.012608 -0.103497 -0.905346
    31 1.666992 0.000002 0.000000 -0.000007 0.157404 -1.208300
    32 1.240436 0.000000 0.000005 0.000002 -0.000011 -1.279228
    33 3.449664 0.054208 -1.089087 0.053338 0.070644 -0.350285
    34 1.711614 0.000008 0.000012 0.000003 -0.008421 -0.322887
    35 1.005910 0.000002 0.000008 0.005613 -0.013536 -0.593074
    36 0.075535 -0.738752 -0.755818 1.327116 0.288669 -0.483586
    37 2.508557 -0.000008 -0.000006 -0.000002 -0.000001 0.359162
    38 1.312475 0.101566 -0.187510 0.052053 0.066392 0.654807
    39 -6.225899 -23.856901 -6.508678 1.651344 -0.013406 -3.131039
    40 -0.003810 2.312519 1.197218 0.000000 0.000000 0.000000
    41 0.001230 3.011752 2.415958 -0.000025 0.000000 0.000000
    42 0.001228 2.742167 -1.331091 0.000000 0.000000 0.000000
    43 0.001229 3.617197 0.625910 -0.000001 0.000000 0.000000
    44 0.001260 2.691445 2.738224 0.000000 0.000000 0.000000
    45 0.001231 2.716781 -0.958050 0.000000 0.000000 0.000000
    46 0.001229 -1.469727 23.718750 0.000000 -0.000001 0.000000
  time 16
    0 0.000005 -2.660156 -8.640625 -1.570760 -1.391893 -1.570827
    1 2.033348 1.000767 1.937660 1.596636 -1.286515 2.942963
    2 6.028145 0.000003 0.000002 -0.578998 -0.792533 -2.076533
    3 11.692553 0.000081 -0.000007 -0.000015 -0.000060 -0.939973
    4 11.481672 -0.000089 -0.000024 -0.018153 0.510505 0.224931
    5 3.281560 0.002122 -1.383387 0.060247 -0.191089 -0.990734
    6 1.328125 -0.000002 -0.000002 0.000002 -0.054909 -0.582384
    7 0.819336 0.000000 0.000001 0.000000 0.000000 -0.523584
    8 3.711854 0.105351 -0.572072 -0.040114 -0.149699 -1.054151
    9 1.605503 0.000004 -0.000005 -0.000002 0.001793 -0.427508
    10 0.993190 -0.000004 0.000004 0.001476 0.002258 -0.454039
    11 3.786034 0.203230 0.243937 -0.084500 -0.094212 -0.792741
    12 1.680664 0.000002 0.000000 -0.000001 0.006216 -0.584702
    13 1.256836 0.000006 -0.000002 0.000000 0.000000 -0.532315
    14 3.594226 0.299555 1.109803 -0.047605 -0.109206 -0.914915
    15 1.723633 0.000004 -0.000004 0.000000 0.000000 -0.288008
    16 1.002930 -0.000004 0.000004 0.000000 0.000000 -0.445039
    17 0.298214 -0.637996 0.426700 -1.264787 -0.791068 -0.637818
    18 2.636719 0.000000 -0.000004 -0.000002 -0.221920 0.499922
    19 1.309570 -0.000002 -0.000002 -0.026244 -0.055141 0.588010
    20 2.033356 1.000772 -1.937610 -1.668474 1.286518 2.942953
    21 6.028141 0.000000 -0.000002 1.748632 0.876486 -0.411192
    22 11.692554 0.000000 0.000000 0.000034 -0.000012 -1.690800
    23 11.481705 -0.000001 -0.000009 -0.816630 0.129063 0.965102
    24 2.914339 -0.023172 1.404053 -0.101667 0.018501 -0.788905
    25 1.283203 -0.000004 -0.000002 0.000007 0.148980 -0.924032
    26 0.842285 0.000002 -0.000001 -0.059567 0.048353 -1.058030
    27 3.368063 0.007373 0.622456 0.035984 -0.077320 -1.016266
    28 1.605509 -0.000002 0.000002 0.000003 0.122000 -1.086872
    29 1.016602 0.000000 0.000001 0.012870 -0.013332 -1.223347
    30 3.555528 0.023914 -0.200566 0.012608 -0.103497 -0.905346
    31 1.666992 0.000002 0.000000 -0.000007 0.157404 -1.208300
    32 1.240436 0.000000 0.000005 0.000002 -0.000011 -1.279293
    33 3.449664 0.054208 -1.089087 0.053338 0.070644 -0.350285
    34 1.711614 0.000008 0.000012 0.000003 -0.008421 -0.322887
    35 1.005910 0.000002 0.000008 0.005613 -0.013536 -0.593074
    36 0.075535 -0.738752 -0.755818 1.327116 0.288669 -0.483586
    37 2.508557 -0.000008 -0.000006 -0.000002 -0.000001 0.359146
    38 1.312475 0.101566 -0.187510 0.052053 0.066392 0.654807
    39 -6.229805 -23.845182 -6.524303 1.647310 -0.008239 -3.136408
    40 -0.003810 2.312519 1.197218 0.000000 0.000000 0.000000
    41 0.001230 3.011752 2.415958 -0.000025 0.000000 0.000000
    42 0.001228 2.742167 -1.331091 0.000000 0.000000 0.000000
    43 0.001229 3.617197 0.625910 -0.000001 0.000000 0.000000
    44 0.001260 2.691445 2.738224 0.000000 0.000000 0.000000
    45 0.001231 2.716781 -0.958050 0.000000 0.000000 0.000000
    46 0.001229 -1.469727 23.718750 0.000000 -0.000001 0.000000
  time 17
    0 0.000005 -2.660156 -8.640625 -1.570760 -1.391893 -1.570827
    1 2.033348 1.000767 1.937660 1.596636 -1.286515 2.942963
    2 6.028145 0.000003 0.000002 -0.582716 -0.788113 -2.074957
    3 11.692553 0.000081 -0.000007 -0.000027 0.000024 -0.941965
    4 11.481672 -0.000089 -0.000024 -0.023002 0.507359 0.213589
    5 3.281560 0.002122 -1.383387 0.060145 -0.190934 -0.990593
    6 1.328125 -0.000002 -0.000002 0.000002 -0.054909 -0.582384
    7 0.819336 0.000000 0.000001 0.000000 0.000000 -0.523584
    8 3.711854 0.105351 -0.572072 -0.040226 -0.149544 -1.054023
    9 1.605503 0.000004 -0.000005 -0.000002 0.001793 -0.427508
    10 0.993190 -0.000004 0.000004 0.001476 0.002258 -0.454039
    11 3.786034 0.203230 0.243937 -0.084564 -0.094032 -0.792629
    12 1.680664 0.000002 0.000000 -0.000001 0.006216 -0.584702
    13 1.256836 0.000006 -0.000002 0.000000 0.000000 -0.532315
    14 3.594226 0.299555 1.109803 -0.047692 -0.109038 -0.914802
    15 1.723633 0.000004 -0.000004 0.000000 0.000000 -0.288008
    16 1.002930 -0.000004 0.000004 0.000000 0.000000 -0.445039
    17 0.298214 -0.634090 0.426700 -1.264836 -0.790881 -0.637645
    18 2.636719 0.000000 -0.000004 -0.000002 -0.221920 0.499922
    19 1.309570 -0.000002 -0.000002 -0.026244 -0.055141 0.588010
    20 2.033356 1.000772 -1.937610 -1.668474 1.286518 2.942953
    21 6.028141 0.000000 -0.000002 1.745580 0.876311 -0.415250
    22 11.692554 0.000000 0.000000 0.000034 -0.000012 -1.693334
    23 11.481705 -0.000001 -0.000009 -0.815009 0.130391 0.975035
    24 2.910432 -0.023172 1.400147 -0.101667 0.018501 -0.788905
    25 1.283203 -0.000004 -0.000002 0.000007 0.148980 -0.924032
    26 0.842285 0.000002 -0.000001 -0.059567 0.048353 -1.058030
    27 3.368063 0.007373 0.618550 0.035972 -0.077320 -1.016266
    28 1.605509 -0.000002 0.000002 0.000003 0.121988 -1.086911
    29 1.016602 0.000000 0.000001 0.012870 -0.013332 -1.223347
    30 3.551622 0.023914 -0.204472 0.012608 -0.103497 -0.905346
    31 1.666992 0.000002 0.000000 -0.000007 0.157404 -1.208300
    32 1.240436 0.000000 0.000005 0.000002 -0.000011 -1.279228
    33 3.449664 0.054208 -1.089087 0.053338 0.070644 -0.350285
    34 1.711614 0.000008 0.000012 0.000003 -0.008421 -0.322887
    35 1.005910 0.000002 0.000008 0.005613 -0.013536 -0.593074
    36 0.075535 -0.738752 -0.755818 1.327116 0.288669 -0.483586
    37 2.508557 -0.000008 -0.000006 -0.000002 -0.000001 0.359162
    38 1.312475 0.101566 -0.187510 0.052053 0.066424 0.654807
    39 -6.225899 -23.825650 -6.551648 1.641259 -0.004542 -3.141202
    40 -0.003810 2.312519 1.197218 0.000000 0.000000 0.000000
    41 0.001230 3.011752 2.415958 -0.000025 0.000000 0.000000
    42 0.001228 2.742167 -1.331091 0.000000 0.000000 0.000000
    43 0.001229 3.617197 0.625910 -0.000001 0.000000 0.000000
    44 0.001260 2.691445 2.738224 0.000000 0.000000 0.000000
    45 0.001231 2.716781 -0.958050 0.000000 0.000000 0.000000
    46 0.001229 -1.469727 23.718750 0.000000 -0.000001 0.000000
  time 18
    0 0.000005 -2.660156 -8.640625 -1.570760 -1.391893 -1.570827
    1 2.033348 1.000767 1.937660 1.596636 -1.286515 2.942963
    2 6.028145 0.000003 0.000002 -0.588430 -0.783598 -2.071064
    3 11.692553 0.000081 -0.000007 -0.000003 0.000024 -0.944724
    4 11.481672 -0.000089 -0.000024 -0.028426 0.505274 0.202839
    5 3.281560 0.002122 -1.383387 0.060417 -0.190574 -0.991193
    6 1.328125 -0.000002 -0.000002 0.000002 -0.054909 -0.582384
    7 0.819336 0.000000 0.000001 0.000000 0.000000 -0.523584
    8 3.711854 0.109258 -0.568166 -0.039988 -0.149172 -1.054600
    9 1.609410 0.000004 -0.000005 -0.000002 0.001793 -0.427508
    10 0.993190 -0.000004 0.000004 0.001476 0.002258 -0.454039
    11 3.786034 0.203230 0.247844 -0.084242 -0.093732 -0.793190
    12 1.680664 0.000002 0.000000 -0.000001 0.006216 -0.584702
    13 1.256836 0.000006 -0.000002 0.000000 0.000000 -0.532315
    14 3.594226 0.299555 1.109803 -0.047403 -0.108702 -0.915365
    15 1.723633 0.000004 -0.000004 0.000000 0.000000 -0.288008
    16 1.002930 -0.000004 0.000004 0.000000 0.000000 -0.445039
    17 0.298214 -0.637996 0.430606 -1.264353 -0.790633 -0.638569
    18 2.636719 0.000000 -0.000004 -0.000002 -0.221920 0.499922
    19 1.309570 -0.000002 -0.000002 -0.026244 -0.055141 0.588010
    20 2.033356 1.000772 -1.937610 -1.668474 1.286518 2.942953
    21 6.028141 0.000000 -0.000002 1.741927 0.875962 -0.420101
    22 11.692554 0.000000 0.000000 0.000034 -0.000012 -1.695810
    23 11.481705 -0.000001 -0.000009 -0.814361 0.130876 0.984231
    24 2.910432 -0.023172 1.400147 -0.101667 0.018501 -0.788905
    25 1.283203 -0.000004 -0.000002 0.000007 0.148980 -0.924032
    26 0.842285 0.000002 -0.000001 -0.059567 0.048353 -1.058030
    27 3.368063 0.007373 0.618550 0.035972 -0.077332 -1.016266
    28 1.605509 -0.000002 0.000002 0.000003 0.122000 -1.086872
    29 1.016602 0.000000 0.000001 0.012870 -0.013332 -1.223347
    30 3.551622 0.023914 -0.204472 0.012608 -0.103497 -0.905346
    31 1.666992 0.000002 0.000000 -0.000007 0.157404 -1.208300
    32 1.240436 0.000000 0.000005 0.000002 -0.000011 -1.279228
    33 3.449664 0.054208 -1.089087 0.053338 0.070644 -0.350285
    34 1.711614 0.000008 0.000012 0.000003 -0.008421 -0.322887
    35 1.005910 0.000002 0.000008 0.005613 -0.013536 -0.593074
    36 0.075535 -0.738752 -0.755818 1.327116 0.288669 -0.483586
    37 2.508557 -0.000008 -0.000006 -0.000002 -0.000001 0.359162
    38 1.312475 0.101566 -0.187510 0.052053 0.066424 0.654807
    39 -6.221993 -23.810024 -6.602431 1.634594 -0.001647 -3.144845
    40 -0.003810 2.312519 1.197218 0.000000 0.000000 0.000000
    41 0.001230 3.011752 2.415958 -0.000025 0.000000 0.000000
    42 0.001228 2.742167 -1.331091 0.000000 0.000000 0.000000
    43 0.001229 3.617197 0.625910 -0.000001 0.000000 0.000000
    44 0.001260 2.691445 2.738224 0.000000 0.000000 0.000000
    45 0.001231 2.716781 -0.958050 0.000000 0.000000 0.000000
    46 0.001229 -1.469727 23.718750 0.000000 -0.000001 0.000000
  time 19
    0 0.000005 -2.660156 -8.640625 -1.570760 -1.391893 -1.570827
    1 2.033348 1.000767 1.937660 1.596636 -1.286515 2.942963
    2 6.028145 0.000003 0.000002 -0.594779 -0.779131 -2.066150
    3 11.692553 0.000081 -0.000007 -0.000003 0.000024 -0.947329
    4 11.481672 -0.000089 -0.000024 -0.034360 0.503287 0.191379
    5 3.281560 0.002122 -1.379481 0.060417 -0.190574 -0.991193
    6 1.328125 -0.000002 -0.000002 0.000002 -0.054909 -0.582384
    7 0.819336 0.000000 0.000001 0.000000 0.000000 -0.523584
    8 3.711854 0.109258 -0.568166 -0.039988 -0.149172 -1.054600
    9 1.605503 0.000004 -0.000005 -0.000002 0.001793 -0.427508
    10 0.993190 -0.000004 0.000004 0.001476 0.002258 -0.454039
    11 3.786034 0.203230 0.247844 -0.084242 -0.093732 -0.793190
    12 1.680664 0.000002 0.000000 -0.000001 0.006216 -0.584702
    13 1.256836 0.000006 -0.000002 0.000000 0.000000 -0.532315
    14 3.594226 0.299555 1.113710 -0.047403 -0.108702 -0.915365
    15 1.723633 0.000004 -0.000004 0.000000 0.000000 -0.288008
    16 1.002930 -0.000004 0.000004 0.000000 0.000000 -0.445039
    17 0.298214 -0.637996 0.426700 -1.264353 -0.790633 -0.638569
    18 2.636719 0.000000 -0.000004 -0.000002 -0.221920 0.499922
    19 1.309570 -0.000002 -0.000002 -0.026244 -0.055141 0.588010
    20 2.033356 1.000772 -1.937610 -1.668474 1.286518 2.942953
    21 6.028141 0.000000 -0.000002 1.737924 0.875613 -0.425278
    22 11.692554 0.000000 0.000000 0.000034 -0.000012 -1.697538
    23 11.481705 -0.000001 -0.000009 -0.813875 0.130876 0.991431
    24 2.910432 -0.023172 1.404053 -0.101667 0.018501 -0.788905
    25 1.283203 -0.000004 -0.000002 0.000007 0.148980 -0.924032
    26 0.842285 0.000002 -0.000001 -0.059567 0.048353 -1.058030
    27 3.368063 0.007373 0.618550 0.035972 -0.077320 -1.016266
    28 1.605509 -0.000002 0.000002 0.000003 0.122000 -1.086872
    29 1.016602 0.000000 0.000001 0.012870 -0.013332 -1.223347
    30 3.551622 0.023914 -0.204472 0.012608 -0.103497 -0.905346
    31 1.666992 0.000002 0.000000 -0.000007 0.157404 -1.208300
    32 1.240436 0.000000 0.000005 0.000002 -0.000011 -1.279228
    33 3.449664 0.054208 -1.089087 0.053338 0.070644 -0.350285
    34 1.711614 0.000008 0.000012 0.000003 -0.008421 -0.322887
    35 1.005910 0.000002 0.000008 0.005613 -0.013536 -0.593074
    36 0.075535 -0.738752 -0.755818 1.327116 0.288669 -0.483586
    37 2.508557 -0.000008 -0.000006 -0.000002 -0.000001 0.359146
    38 1.312475 0.101566 -0.187510 0.052053 0.066424 0.654783
    39 -6.210274 -23.802212 -6.649307 1.628455 0.001203 -3.147242
    40 -0.003810 2.312519 1.197218 0.000000 0.000000 0.000000
    41 0.001230 3.011752 2.415958 -0.000025 0.000000 0.000000
    42 0.001228 2.742167 -1.331091 0.000000 0.000000 0.000000
    43 0.001229 3.617197 0.625910 -0.000001 0.000000 0.000000
    44 0.001260 2.691445 2.738224 0.000000 0.000000 0.000000
    45 0.001231 2.716781 -0.958050 0.000000 0.000000 0.000000
    46 0.001229 -1.469727 23.718750 0.000000 -0.000001 0.000000
  time 20
    0 0.000005 -2.660156 -8.640625 -1.570760 -1.391893 -1.570827
    1 2.033348 1.000767 1.937660 1.596636 -1.286515 2.942963
    2 6.028145 0.000003 0.000002 -0.600856 -0.774758 -2.061607
    3 11.692553 0.000081 -0.000007 -0.000003 0.000024 -0.949781
    4 11.481672 -0.000089 -0.000024 -0.040357 0.501201 0.181101
    5 3.285467 0.006028 -1.383387 0.060672 -0.190215 -0.991758
    6 1.328125 -0.000002 -0.000002 0.000002 -0.054909 -0.582384
    7 0.819336 0.000000 0.000001 0.000000 0.000000 -0.523584
    8 3.711854 0.109258 -0.568166 -0.039765 -0.148789 -1.055176
    9 1.605503 0.000004 -0.000005 -0.000002 0.001793 -0.427508
    10 0.993190 -0.000004 0.000004 0.001476 0.002258 -0.454039
    11 3.789941 0.207136 0.247844 -0.083920 -0.093421 -0.793750
    12 1.680664 0.000002 0.000000 -0.000001 0.006216 -0.584702
    13 1.256836 0.000006 -0.000002 0.000000 0.000000 -0.532315
    14 3.594226 0.303461 1.109803 -0.047115 -0.108355 -0.915929
    15 1.723633 0.000004 -0.000004 0.000000 0.000000 -0.288008
    16 1.002930 -0.000004 0.000004 0.000000 0.000000 -0.445039
    17 0.298214 -0.634090 0.426700 -1.263822 -0.790384 -0.639492
    18 2.636719 0.000000 -0.000004 -0.000002 -0.221920 0.499922
    19 1.309570 -0.000002 -0.000002 -0.026244 -0.055141 0.588010
    20 2.033356 1.000772 -1.937610 -1.668474 1.286518 2.942953
    21 6.028141 0.000000 -0.000002 1.734621 0.875368 -0.429710
    22 11.692554 0.000000 0.000000 0.000034 -0.000012 -1.699035
    23 11.481705 -0.000001 -0.000009 -0.813146 0.130302 0.996766
    24 2.910432 -0.023172 1.404053 -0.101511 0.018106 -0.788678
    25 1.283203 -0.000004 -0.000002 0.000007 0.148980 -0.924032
    26 0.842285 0.000002 -0.000001 -0.059567 0.048353 -1.058030
    27 3.368063 0.007373 0.618550 0.036223 -0.077668 -1.016044
    28 1.605509 -0.000002 0.000002 0.000003 0.121988 -1.086911
    29 1.016602 0.000000 0.000001 0.012870 -0.013332 -1.223347
    30 3.551622 0.027820 -0.204472 0.012812 -0.103856 -0.905131
    31 1.666992 0.000002 0.000000 -0.000007 0.157404 -1.208300
    32 1.240436 0.000000 0.000005 0.000002 -0.000011 -1.279260
    33 3.449664 0.054208 -1.085181 0.053325 0.070209 -0.350068
    34 1.711614 0.000008 0.000012 0.000003 -0.008433 -0.322887
    35 1.005910 0.000002 0.000008 0.005613 -0.013536 -0.593074
    36 0.075535 -0.738752 -0.755818 1.327153 0.288237 -0.483343
    37 2.508557 -0.000008 -0.000006 -0.000002 -0.000001 0.359146
    38 1.312475 0.101566 -0.187510 0.052053 0.066424 0.654807
    39 -6.194648 -23.794399 -6.696183 1.623018 0.003875 -3.148488
    40 -0.003810 2.312519 1.197218 0.000000 0.000000 0.000000
    41 0.001230 3.011752 2.415958 -0.000025 0.000000 0.000000
    42 0.001228 2.742167 -1.331091 0.000000 0.000000 0.000000
    43 0.001229 3.617197 0.625910 -0.000001 0.000000 0.000000
    44 0.001260 2.691445 2.738224 0.000000 0.000000 0.000000
    45 0.001231 2.716781 -0.958050 0.000000 0.000000 0.000000
    46 0.001229 -1.469727 23.718750 0.000000 -0.000001 0.000000
  time 21
    0 0.000005 -2.660156 -8.640625 -1.570760 -1.391893 -1.570827
    1 2.033348 1.000767 1.937660 1.596636 -1.286515 2.942963
    2 6.028145 0.000003 0.000002 -0.605935 -0.771004 -2.058455
    3 11.692553 0.000081 -0.000007 -0.000003 0.000036 -0.949168
    4 11.481672 -0.000089 -0.000024 -0.046355 0.498784 0.167692
    5 3.281560 0.002122 -1.379481 0.060179 -0.190874 -0.990663
    6 1.328125 -0.000002 -0.000002 0.000002 -0.054909 -0.582384
    7 0.819336 0.000000 0.000001 0.000000 0.000000 -0.523584
    8 3.711854 0.105351 -0.568166 -0.040198 -0.149496 -1.054087
    9 1.605503 0.000004 -0.000005 -0.000002 0.001793 -0.427508
    10 0.993190 -0.000004 0.000004 0.001476 0.002258 -0.454039
    11 3.786034 0.203230 0.247844 -0.084512 -0.093984 -0.792685
    12 1.680664 0.000002 0.000000 -0.000001 0.006216 -0.584702
    13 1.256836 0.000006 -0.000002 0.000000 0.000000 -0.532315
    14 3.594226 0.299555 1.113710 -0.047649 -0.108990 -0.914887
    15 1.723633 0.000004 -0.000004 0.000000 0.000000 -0.288008
    16 1.002930 -0.000004 0.000004 0.000000 0.000000 -0.445039
    17 0.298214 -0.637996 0.430606 -1.264787 -0.790840 -0.637761
    18 2.636719 0.000000 -0.000004 -0.000002 -0.221920 0.499922
    19 1.309570 -0.000002 -0.000002 -0.026244 -0.055141 0.588010
    20 2.033356 1.000772 -1.937610 -1.668474 1.286518 2.942953
    21 6.028141 0.000000 -0.000002 1.732019 0.874914 -0.433115
    22 11.692554 0.000000 0.000000 0.000034 -0.000024 -1.699842
    23 11.481705 -0.000001 -0.000009 -0.813065 0.128902 1.001450
    24 2.910432 -0.023172 1.400147 -0.101667 0.018501 -0.788905
    25 1.283203 -0.000004 -0.000002 0.000007 0.148980 -0.924032
    26 0.842285 0.000002 -0.000001 -0.059567 0.048353 -1.058030
    27 3.368063 0.007373 0.618550 0.035972 -0.077320 -1.016266
    28 1.605509 -0.000002 0.000002 0.000003 0.122000 -1.086872
    29 1.016602 0.000000 0.000001 0.012870 -0.013332 -1.223347
    30 3.551622 0.023914 -0.200566 0.012608 -0.103497 -0.905346
    31 1.666992 0.000002 0.000000 -0.000007 0.157404 -1.208300
    32 1.236529 0.000000 0.000005 0.000002 -0.000011 -1.279228
    33 3.449664 0.054208 -1.089087 0.053338 0.070644 -0.350285
    34 1.711614 0.000008 0.000012 0.000003 -0.008421 -0.322887
    35 1.005910 0.000002 0.000008 0.005613 -0.013536 -0.593074
    36 0.075535 -0.738752 -0.755818 1.327116 0.288669 -0.483586
    37 2.508557 -0.000008 -0.000006 -0.000002 -0.000001 0.359146
    38 1.312475 0.101566 -0.187510 0.052053 0.066424 0.654807
    39 -6.182929 -23.786586 -6.735247 1.618107 0.005523 -3.149159
    40 -0.003810 2.312519 1.197218 0.000000 0.000000 0.000000
    41 0.001230 3.011752 2.415958 -0.000025 0.000000 0.000000
    42 0.001228 2.742167 -1.331091 0.000000 0.000000 0.000000
    43 0.001229 3.617197 0.625910 -0.000001 0.000000 0.000000
    44 0.001260 2.691445 2.738224 0.000000 0.000000 0.000000
    45 0.001231 2.716781 -0.958050 0.000000 0.000000 0.000000
    46 0.001229 -1.469727 23.718750 0.000000 -0.000001 0.000000
  time 22
    0 0.000005 -2.660156 -8.640625 -1.570760 -1.391893 -1.570827
    1 2.033348 1.000767 1.937660 1.596636 -1.286515 2.942963
    2 6.028145 0.000003 0.000002 -0.610833 -0.767154 -2.055395
    3 11.692553 0.000081 -0.000007 -0.000003 0.000036 -0.949781
    4 11.481672 -0.000089 -0.000024 -0.052544 0.496235 0.157118
    5 3.281560 0.002122 -1.379481 0.060196 -0.190898 -0.990699
    6 1.328125 -0.000002 -0.000002 0.000002 -0.054909 -0.582384
    7 0.819336 0.000000 0.000001 0.000000 0.000000 -0.523584
    8 3.711854 0.105351 -0.568166 -0.040184 -0.149508 -1.054087
    9 1.605503 0.000004 -0.000005 -0.000002 0.001793 -0.427508
    10 0.993190 -0.000004 0.000004 0.001491 0.002258 -0.454039
    11 3.786034 0.203230 0.247844 -0.084512 -0.094008 -0.792713
    12 1.680664 0.000002 0.000000 -0.000001 0.006216 -0.584702
    13 1.256836 0.000006 -0.000002 0.000000 0.000000 -0.532315
    14 3.594226 0.299555 1.113710 -0.047649 -0.109002 -0.914887
    15 1.723633 0.000004 -0.000004 0.000000 0.000000 -0.288008
    16 1.002930 -0.000004 0.000004 0.000000 0.000000 -0.445039
    17 0.298214 -0.637996 0.430606 -1.264787 -0.790861 -0.637818
    18 2.636719 0.000000 -0.000004 -0.000002 -0.221920 0.499922
    19 1.309570 -0.000002 -0.000002 -0.026244 -0.055141 0.588010
    20 2.033356 1.000772 -1.937610 -1.668474 1.286518 2.942953
    21 6.028141 0.000000 -0.000002 1.729567 0.874321 -0.436286
    22 11.692554 0.000000 0.000000 0.000034 -0.000012 -1.700590
    23 11.481705 -0.000001 -0.000009 -0.813551 0.127286 1.004834
    24 2.910432 -0.023172 1.400147 -0.101667 0.018501 -0.788905
    25 1.283203 -0.000004 -0.000002 0.000007 0.148980 -0.924032
    26 0.842285 0.000002 -0.000001 -0.059567 0.048353 -1.058030
    27 3.368063 0.007373 0.618550 0.035972 -0.077320 -1.016266
    28 1.605509 -0.000002 0.000002 0.000003 0.122000 -1.086872
    29 1.016602 0.000000 0.000001 0.012870 -0.013332 -1.223347
    30 3.551622 0.023914 -0.204472 0.012608 -0.103497 -0.905346
    31 1.666992 0.000002 0.000000 -0.000007 0.157404 -1.208300
    32 1.236529 0.000000 0.000005 0.000002 -0.000011 -1.279228
    33 3.449664 0.054208 -1.089087 0.053338 0.070644 -0.350285
    34 1.711614 0.000008 0.000012 0.000003 -0.008421 -0.322887
    35 1.005910 0.000002 0.000008 0.005613 -0.013536 -0.593074
    36 0.075535 -0.738752 -0.755818 1.327116 0.288669 -0.483586
    37 2.508557 -0.000008 -0.000006 -0.000002 -0.000001 0.359162
    38 1.312475 0.101566 -0.187510 0.052053 0.066424 0.654807
    39 -6.179023 -23.786586 -6.774311 1.613371 0.006459 -3.149351
    40 -0.003810 2.312519 1.197218 0.000000 0.000000 0.000000
    41 0.001230 3.011752 2.415958 -0.000025 0.000000 0.000000
    42 0.001228 2.742167 -1.331091 0.000000 0.000000 0.000000
    43 0.001229 3.617197 0.625910 -0.000001 0.000000 0.000000
    44 0.001260 2.691445 2.738224 0.000000 0.000000 0.000000
    45 0.001231 2.716781 -0.958050 0.000000 0.000000 0.000000
    46 0.001229 -1.469727 23.718750 0.000000 -0.000001 0.000000
  time 23
    0 0.000005 -2.660156 -8.640625 -1.570760 -1.391893 -1.570827
    1 2.033348 1.000767 1.937660 1.596636 -1.286515 2.942963
    2 6.028145 0.000003 0.000002 -0.615005 -0.763542 -2.053356
    3 11.692553 0.000081 -0.000007 -0.000003 0.000024 -0.949781
    4 11.481672 -0.000089 -0.000024 -0.058988 0.493520 0.147962
    5 3.281560 0.002122 -1.379481 0.060570 -0.190502 -0.991511
    6 1.328125 -0.000002 -0.000002 0.000002 -0.054909 -0.582384
    7 0.819336 0.000000 0.000001 0.000000 0.000000 -0.523584
    8 3.711854 0.105351 -0.568166 -0.039835 -0.149088 -1.054952
    9 1.605503 0.000004 -0.000005 -0.000002 0.001780 -0.427508
    10 0.993190 -0.000004 0.000004 0.001476 0.002258 -0.454039
    11 3.786034 0.203230 0.247844 -0.084075 -0.093696 -0.793498
    12 1.680664 0.000002 0.000000 -0.000001 0.006216 -0.584702
    13 1.256836 0.000006 -0.000002 0.000000 0.000000 -0.532315
    14 3.594226 0.299555 1.113710 -0.047245 -0.108642 -0.915675
    15 1.723633 0.000004 -0.000004 0.000000 0.000000 -0.288008
    16 1.002930 -0.000004 0.000004 0.000000 0.000000 -0.445039
    17 0.298214 -0.637996 0.430606 -1.264063 -0.790633 -0.639030
    18 2.636719 0.000000 -0.000004 -0.000002 -0.221920 0.499922
    19 1.309570 -0.000002 -0.000002 -0.026244 -0.055141 0.588010
    20 2.033356 1.000772 -1.937610 -1.668474 1.286518 2.942953
    21 6.028141 0.000000 -0.000002 1.726865 0.873902 -0.439878
    22 11.692554 0.000000 0.000000 0.000034 -0.000012 -1.701224
    23 11.481705 -0.000001 -0.000009 -0.815009 0.125671 1.007653
    24 2.910432 -0.023172 1.400147 -0.101667 0.018501 -0.788905
    25 1.283203 -0.000004 -0.000002 0.000007 0.148980 -0.924032
    26 0.842285 0.000002 -0.000001 -0.059567 0.048353 -1.058030
    27 3.368063 0.007373 0.618550 0.035972 -0.077320 -1.016266
    28 1.605509 -0.000002 0.000002 0.000003 0.122000 -1.086872
    29 1.016602 0.000000 0.000001 0.012870 -0.013332 -1.223347
    30 3.551622 0.023914 -0.200566 0.012608 -0.103497 -0.905346
    31 1.666992 0.000002 0.000000 -0.000007 0.157404 -1.208300
    32 1.240436 0.000000 0.000005 0.000002 0.000001 -1.279228
    33 3.449664 0.054208 -1.085181 0.053338 0.070644 -0.350285
    34 1.711614 0.000008 0.000012 0.000003 -0.008421 -0.322887
    35 1.005910 0.000002 0.000008 0.005613 -0.013536 -0.593074
    36 0.075535 -0.738752 -0.755818 1.327116 0.288669 -0.483586
    37 2.508557 -0.000008 -0.000006 -0.000002 -0.000001 0.359162
    38 1.312475 0.101566 -0.187510 0.052053 0.066424 0.654807
    39 -6.167304 -23.778773 -6.817281 1.608811 0.006726 -3.148968
    40 -0.003810 2.312519 1.197218 0.000000 0.000000 0.000000
    41 0.001230 3.011752 2.415958 -0.000025 0.000000 0.000000
    42 0.001228 2.742167 -1.331091 0.000000 0.000000 0.000000
    43 0.001229 3.617197 0.625910 -0.000001 0.000000 0.000000
    44 0.001260 2.691445 2.738224 0.000000 0.000000 0.000000
    45 0.001231 2.716781 -0.958050 0.000000 0.000000 0.000000
    46 0.001229 -1.469727 23.718750 0.000000 -0.000001 0.000000
  time 24
    0 0.000005 -2.660156 -8.640625 -1.570760 -1.391893 -1.570827
    1 2.033348 1.000767 1.937660 1.596636 -1.286515 2.942963
    2 6.028145 0.000003 0.000002 -0.618996 -0.760168 -2.051409
    3 11.692553 0.000081 -0.000007 -0.000003 0.000036 -0.949781
    4 11.481672 -0.000089 -0.000024 -0.065624 0.490342 0.138216
    5 3.285467 0.006028 -1.383387 0.060570 -0.190287 -0.991582
    6 1.328125 -0.000002 -0.000002 0.000002 -0.054909 -0.582384
    7 0.819336 0.000000 0.000001 0.000000 0.000000 -0.523584
    8 3.711854 0.109258 -0.568166 -0.039835 -0.148872 -1.055016
    9 1.609410 0.000004 -0.000005 -0.000002 0.001793 -0.427508
    10 0.993190 -0.000004 0.000004 0.001491 0.002258 -0.454039
    11 3.789941 0.207136 0.247844 -0.084023 -0.093481 -0.793582
    12 1.680664 0.000002 0.000000 -0.000001 0.006216 -0.584702
    13 1.256836 0.000006 -0.000002 0.000000 0.000000 -0.532315
    14 3.594226 0.303461 1.109803 -0.047216 -0.108427 -0.915760
    15 1.723633 0.000004 -0.000004 0.000000 0.000000 -0.288008
    16 1.002930 -0.000004 0.000004 0.000000 0.000000 -0.445039
    17 0.298214 -0.630183 0.426700 -1.263967 -0.790425 -0.639203
    18 2.636719 0.000000 -0.000004 -0.000002 -0.221920 0.499922
    19 1.309570 -0.000002 -0.000002 -0.026244 -0.055141 0.588010
    20 2.033356 1.000772 -1.937610 -1.668474 1.286518 2.942953
    21 6.028141 0.000000 -0.000002 1.724663 0.873063 -0.442723
    22 11.692554 0.000000 0.000000 0.000034 -0.000012 -1.701858
    23 11.481705 -0.000001 -0.000009 -0.816468 0.123517 1.009778
    24 2.914339 -0.023172 1.404053 -0.101667 0.018501 -0.788905
    25 1.283203 -0.000004 -0.000002 0.000007 0.148980 -0.924032
    26 0.842285 0.000002 -0.000001 -0.059567 0.048353 -1.058030
    27 3.368063 0.007373 0.618550 0.035972 -0.077332 -1.016266
    28 1.605509 -0.000002 0.000002 0.000003 0.122000 -1.086872
    29 1.016602 0.000000 0.000001 0.012870 -0.013332 -1.223347
    30 3.551622 0.023914 -0.200566 0.012608 -0.103497 -0.905346
    31 1.666992 0.000002 0.000000 -0.000007 0.157404 -1.208300
    32 1.240436 0.000000 0.000005 0.000002 -0.000011 -1.279228
    33 3.449664 0.054208 -1.085181 0.053338 0.070644 -0.350285
    34 1.711614 0.000008 0.000012 0.000003 -0.008421 -0.322887
    35 1.005910 0.000002 0.000008 0.005613 -0.013536 -0.593074
    36 0.075535 -0.738752 -0.755818 1.327116 0.288669 -0.483586
    37 2.508557 -0.000008 -0.000006 -0.000002 -0.000001 0.359146
    38 1.312475 0.101566 -0.187510 0.052053 0.066424 0.654807
    39 -6.159491 -23.778773 -6.860251 1.604426 0.006414 -3.148297
    40 -0.003810 2.312519 1.197218 0.000000 0.000000 0.000000
    41 0.001230 3.011752 2.415958 -0.000025 0.000000 0.000000
    42 0.001228 2.742167 -1.331091 0.000000 0.000000 0.000000
    43 0.001229 3.617197 0.625910 -0.000001 0.000000 0.000000
    44 0.001260 2.691445 2.738224 0.000000 0.000000 0.000000
    45 0.001231 2.716781 -0.958050 0.000000 0.000000 0.000000
    46 0.001229 -1.469727 23.718750 0.000000 -0.000001 0.000000
  time 25
    0 0.000005 -2.660156 -8.640625 -1.570760 -1.391893 -1.570827
    1 2.033348 1.000767 1.937660 1.596636 -1.286515 2.942963
    2 6.028145 0.000003 0.000002 -0.622352 -0.757126 -2.049833
    3 11.692553 0.000081 -0.000007 -0.000003 0.000024 -0.949015
    4 11.481672 -0.000089 -0.000024 -0.072260 0.487031 0.127347
    5 3.281560 0.006028 -1.383387 0.060230 -0.190622 -0.990875
    6 1.328125 -0.000002 -0.000002 0.000002 -0.054909 -0.582384
    7 0.819336 0.000000 0.000001 0.000000 0.000000 -0.523584
    8 3.711854 0.109258 -0.568166 -0.040170 -0.149232 -1.054279
    9 1.605503 0.000004 -0.000005 -0.000002 0.001793 -0.427508
    10 0.993190 -0.000004 0.000004 0.001476 0.002258 -0.454039
    11 3.786034 0.207136 0.247844 -0.084422 -0.093756 -0.792881
    12 1.680664 0.000002 0.000000 -0.000001 0.006216 -0.584702
    13 1.256836 0.000006 -0.000002 0.000000 0.000000 -0.532315
    14 3.594226 0.303461 1.113710 -0.047577 -0.108738 -0.915027
    15 1.723633 0.000004 -0.000004 0.000000 0.000000 -0.288008
    16 1.002930 -0.000004 0.000004 0.000000 0.000000 -0.445039
    17 0.298214 -0.630183 0.426700 -1.264594 -0.790633 -0.638107
    18 2.636719 0.000000 -0.000004 -0.000002 -0.221920 0.499922
    19 1.309570 -0.000002 -0.000002 -0.026244 -0.055141 0.588010
    20 2.033356 1.000772 -1.937610 -1.668474 1.286518 2.942953
    21 6.028141 0.000000 -0.000002 1.722461 0.872435 -0.445568
    22 11.692554 0.000000 0.000000 0.000034 -0.000012 -1.701800
    23 11.481705 -0.000001 -0.000009 -0.818412 0.121148 1.011123
    24 2.914339 -0.023172 1.404053 -0.101667 0.018501 -0.788905
    25 1.283203 -0.000004 -0.000002 0.000007 0.148980 -0.924032
    26 0.842285 0.000002 -0.000001 -0.059567 0.048353 -1.058030
    27 3.368063 0.007373 0.618550 0.035972 -0.077320 -1.016266
    28 1.605509 -0.000002 0.000002 0.000003 0.122000 -1.086872
    29 1.016602 0.000000 0.000001 0.012870 -0.013332 -1.223347
    30 3.555528 0.023914 -0.204472 0.012608 -0.103497 -0.905346
    31 1.666992 0.000002 0.000000 -0.000007 0.157404 -1.208300
    32 1.240436 0.000000 0.000005 0.000002 -0.000011 -1.279228
    33 3.449664 0.054208 -1.085181 0.053338 0.070644 -0.350285
    34 1.711614 0.000008 0.000012 0.000003 -0.008421 -0.322887
    35 1.005910 0.000002 0.000008 0.005613 -0.013536 -0.593074
    36 0.075535 -0.738752 -0.755818 1.327116 0.288669 -0.483586
    37 2.508557 -0.000008 -0.000006 -0.000002 -0.000001 0.359146
    38 1.312475 0.101566 -0.187510 0.052053 0.066424 0.654807
    39 -6.147772 -23.778773 -6.903221 1.599954 0.005702 -3.147242
    40 -0.003810 2.312519 1.197218 0.000000 0.000000 0.000000
    41 0.001230 3.011752 2.415958 -0.000025 0.000000 0.000000
    42 0.001228 2.742167 -1.331091 0.000000 0.000000 0.000000
    43 0.001229 3.617197 0.625910 -0.000001 0.000000 0.000000
    44 0.001260 2.691445 2.738224 0.000000 0.000000 0.000000
    45 0.001231 2.716781 -0.958050 0.000000 0.000000 0.000000
    46 0.001229 -1.469727 23.718750 0.000000 -0.000001 0.000000
  time 26
    0 0.000005 -2.660156 -8.640625 -1.570760 -1.391893 -1.570827
    1 2.033348 1.000767 1.937660 1.596636 -1.286515 2.942963
    2 6.028145 0.000003 0.000002 -0.625617 -0.754274 -2.048257
    3 11.692553 0.000081 -0.000007 0.000009 -0.000252 -0.948632
    4 11.481672 -0.000089 -0.000024 -0.078640 0.484747 0.117836
    5 3.285467 0.002122 -1.379481 0.060536 -0.191413 -0.991158
    6 1.328125 -0.000002 -0.000002 0.000002 -0.054909 -0.582384
    7 0.819336 0.000000 0.000001 0.000000 0.000000 -0.523584
    8 3.715760 0.105351 -0.572072 -0.039821 -0.149999 -1.054568
    9 1.605503 0.000004 -0.000005 -0.000002 0.001793 -0.427508
    10 0.993190 -0.000004 0.000004 0.001491 0.002258 -0.454039
    11 3.789941 0.203230 0.247844 -0.084281 -0.094571 -0.793133
    12 1.680664 0.000002 0.000000 -0.000001 0.006216 -0.584702
    13 1.256836 0.000006 -0.000002 0.000000 0.000000 -0.532315
    14 3.594226 0.299555 1.105897 -0.047360 -0.109541 -0.915309
    15 1.723633 0.000004 -0.000004 0.000000 0.000000 -0.288008
    16 1.002930 -0.000004 0.000004 0.000000 0.000000 -0.445039
    17 0.298214 -0.637996 0.422793 -1.264594 -0.791462 -0.638338
    18 2.636719 0.000000 -0.000004 -0.000002 -0.221920 0.499922
    19 1.309570 -0.000002 -0.000002 -0.026244 -0.055141 0.588010
    20 2.033356 1.000772 -1.937610 -1.668474 1.286518 2.942953
    21 6.028141 0.000000 -0.000002 1.720310 0.871667 -0.448367
    22 11.692554 0.000000 0.000000 0.000034 -0.000012 -1.701742
    23 11.481705 -0.000001 -0.000009 -0.820680 0.118653 1.012294
    24 2.910432 -0.023172 1.404053 -0.101667 0.018501 -0.788905
    25 1.283203 -0.000004 -0.000002 0.000007 0.148980 -0.924032
    26 0.842285 0.000002 -0.000001 -0.059567 0.048353 -1.058030
    27 3.368063 0.007373 0.618550 0.035972 -0.077320 -1.016266
    28 1.605509 -0.000002 0.000002 0.000003 0.122000 -1.086872
    29 1.016602 0.000000 0.000001 0.012870 -0.013332 -1.223347
    30 3.551622 0.023914 -0.204472 0.012608 -0.103497 -0.905346
    31 1.666992 0.000002 0.000000 -0.000007 0.157404 -1.208300
    32 1.240436 0.000000 0.000005 0.000002 -0.000011 -1.279228
    33 3.449664 0.054208 -1.089087 0.053338 0.070644 -0.350285
    34 1.711614 0.000008 0.000012 0.000003 -0.008421 -0.322887
    35 1.005910 0.000002 0.000008 0.005613 -0.013536 -0.593074
    36 0.075535 -0.738752 -0.755818 1.327116 0.288669 -0.483586
    37 2.508557 -0.000008 -0.000006 -0.000002 -0.000001 0.359146
    38 1.312475 0.101566 -0.187510 0.052053 0.066424 0.654807
    39 -6.143865 -23.786586 -6.950097 1.595657 0.004722 -3.146092
    40 -0.003810 2.312519 1.197218 0.000000 0.000000 0.000000
    41 0.001230 3.011752 2.415958 -0.000025 0.000000 0.000000
    42 0.001228 2.742167 -1.331091 0.000000 0.000000 0.000000
    43 0.001229 3.617197 0.625910 -0.000001 0.000000 0.000000
    44 0.001260 2.691445 2.738224 0.000000 0.000000 0.000000
    45 0.001231 2.716781 -0.958050 0.000000 0.000000 0.000000
    46 0.001229 -1.469727 23.718750 0.000000 -0.000001 0.000000
  time 27
    0 0.000005 -2.660156 -8.640625 -1.570760 -1.391893 -1.570827
    1 2.033348 1.000767 1.937660 1.596636 -1.286515 2.942963
    2 6.028145 0.000003 0.000002 -0.628247 -0.751803 -2.046959
    3 11.692553 0.000081 -0.000007 -0.000003 0.000024 -0.948861
    4 11.481672 -0.000089 -0.000024 -0.086488 0.480443 0.109035
    5 3.281560 0.002122 -1.383387 0.060417 -0.190574 -0.991193
    6 1.328125 -0.000002 -0.000002 0.000002 -0.054909 -0.582384
    7 0.819336 0.000000 0.000001 0.000000 0.000000 -0.523584
    8 3.711854 0.109258 -0.568166 -0.039988 -0.149172 -1.054600
    9 1.605503 0.000004 -0.000005 -0.000002 0.001793 -0.427508
    10 0.993190 -0.000004 0.000004 0.001476 0.002258 -0.454039
    11 3.786034 0.203230 0.243937 -0.084242 -0.093732 -0.793190
    12 1.680664 0.000002 0.000000 -0.000001 0.006216 -0.584702
    13 1.256836 0.000006 -0.000002 0.000000 0.000000 -0.532315
    14 3.594226 0.299555 1.113710 -0.047403 -0.108702 -0.915365
    15 1.723633 0.000004 -0.000004 0.000000 0.000000 -0.288008
    16 1.002930 -0.000004 0.000004 0.000000 0.000000 -0.445039
    17 0.298214 -0.634090 0.426700 -1.264353 -0.790633 -0.638569
    18 2.636719 0.000000 -0.000004 -0.000002 -0.221920 0.499922
    19 1.309570 -0.000002 -0.000002 -0.026244 -0.055141 0.588010
    20 2.033356 1.000772 -1.937610 -1.668474 1.286518 2.942953
    21 6.028141 0.000000 -0.000002 1.718108 0.870968 -0.451259
    22 11.692554 0.000000 0.000000 0.000034 -0.000012 -1.701685
    23 11.481705 -0.000001 -0.000009 -0.823110 0.116050 1.013335
    24 2.910432 -0.023172 1.400147 -0.101667 0.018501 -0.788905
    25 1.283203 -0.000004 -0.000002 0.000007 0.148980 -0.924032
    26 0.842285 0.000002 -0.000001 -0.059567 0.048353 -1.058030
    27 3.368063 0.007373 0.618550 0.035972 -0.077320 -1.016266
    28 1.605509 -0.000002 0.000002 0.000003 0.122000 -1.086872
    29 1.016602 0.000000 0.000001 0.012870 -0.013332 -1.223347
    30 3.551622 0.023914 -0.204472 0.012608 -0.103497 -0.905346
    31 1.666992 0.000002 0.000000 -0.000007 0.157404 -1.208300
    32 1.240436 0.000000 0.000005 0.000002 0.000001 -1.279228
    33 3.449664 0.054208 -1.089087 0.053338 0.070644 -0.350285
    34 1.711614 0.000008 0.000012 0.000003 -0.008421 -0.322887
    35 1.005910 0.000002 0.000008 0.005613 -0.013536 -0.593074
    36 0.075535 -0.738752 -0.755818 1.327116 0.288669 -0.483586
    37 2.508557 -0.000008 -0.000006 -0.000002 -0.000001 0.359162
    38 1.312475 0.101566 -0.187510 0.052053 0.066424 0.654807
    39 -6.132146 -23.786586 -6.993068 1.591184 0.003653 -3.144749
    40 -0.003810 2.312519 1.197218 0.000000 0.000000 0.000000
    41 0.001230 3.011752 2.415958 -0.000025 0.000000 0.000000
    42 0.001228 2.742167 -1.331091 0.000000 0.000000 0.000000
    43 0.001229 3.617197 0.625910 -0.000001 0.000000 0.000000
    44 0.001260 2.691445 2.738224 0.000000 0.000000 0.000000
    45 0.001231 2.716781 -0.958050 0.000000 0.000000 0.000000
    46 0.001229 -1.469727 23.718750 0.000000 -0.000001 0.000000
  time 28
    0 0.000005 -2.660156 -8.640625 -1.570760 -1.391893 -1.570827
    1 2.033348 1.000767 1.937660 1.596636 -1.286515 2.942963
    2 6.028145 0.000003 0.000002 -0.630061 -0.749712 -2.046495
    3 11.692553 0.000081 -0.000007 -0.000003 0.000024 -0.948708
    4 11.481672 -0.000089 -0.000024 -0.093953 0.476668 0.100115
    5 3.281560 0.002122 -1.379481 0.060417 -0.190574 -0.991193
    6 1.328125 -0.000002 -0.000002 0.000002 -0.054909 -0.582384
    7 0.819336 0.000000 0.000001 0.000000 0.000000 -0.523584
    8 3.711854 0.109258 -0.568166 -0.039988 -0.149172 -1.054600
    9 1.605503 0.000004 -0.000005 -0.000002 0.001793 -0.427508
    10 0.993190 -0.000004 0.000004 0.001491 0.002258 -0.454039
    11 3.786034 0.203230 0.247844 -0.084242 -0.093732 -0.793190
    12 1.680664 0.000002 0.000000 -0.000001 0.006216 -0.584702
    13 1.256836 0.000006 -0.000002 0.000000 0.000000 -0.532315
    14 3.594226 0.299555 1.113710 -0.047403 -0.108702 -0.915365
    15 1.723633 0.000004 -0.000004 0.000000 0.000000 -0.288008
    16 1.002930 -0.000004 0.000004 0.000000 0.000000 -0.445039
    17 0.298214 -0.634090 0.430606 -1.264353 -0.790633 -0.638569
    18 2.636719 0.000000 -0.000004 -0.000002 -0.221920 0.499922
    19 1.309570 -0.000002 -0.000002 -0.026244 -0.055141 0.588010
    20 2.033356 1.000772 -1.937610 -1.668474 1.286518 2.942953
    21 6.028141 0.000000 -0.000002 1.715906 0.870374 -0.454104
    22 11.692554 0.000000 0.000000 0.000070 -0.000108 -1.701512
    23 11.481705 -0.000001 -0.000009 -0.825379 0.113573 1.015504
    24 2.914339 -0.023172 1.400147 -0.102049 0.018873 -0.789587
    25 1.283203 -0.000004 -0.000002 0.000007 0.148980 -0.924032
    26 0.842285 0.000002 -0.000001 -0.059567 0.048353 -1.058030
    27 3.371969 0.007373 0.618550 0.035528 -0.077045 -1.016909
    28 1.605509 -0.000002 0.000002 0.000003 0.121988 -1.086911
    29 1.016602 0.000000 0.000001 0.012870 -0.013332 -1.223347
    30 3.555528 0.023914 -0.204472 0.012213 -0.103161 -0.905974
    31 1.666992 0.000002 0.000000 -0.000007 0.157404 -1.208300
    32 1.240436 0.000000 0.000005 0.000002 -0.000011 -1.279228
    33 3.453570 0.054208 -1.089087 0.053166 0.071136 -0.350969
    34 1.711614 0.000008 0.000012 0.000003 -0.008421 -0.322887
    35 1.005910 0.000002 0.000008 0.005613 -0.013536 -0.593074
    36 0.079442 -0.734846 -0.755818 1.326892 0.289142 -0.484336
    37 2.508557 -0.000008 -0.000006 -0.000002 -0.000001 0.359146
    38 1.312475 0.101566 -0.187510 0.052053 0.066424 0.654807
    39 -6.128240 -23.790492 -7.036038 1.586361 0.002584 -3.143407
    40 -0.003810 2.312519 1.197218 0.000000 0.000000 0.000000
    41 0.001230 3.011752 2.415958 -0.000025 0.000000 0.000000
    42 0.001228 2.742167 -1.331091 0.000000 0.000000 0.000000
    43 0.001229 3.617197 0.625910 -0.000001 0.000000 0.000000
    44 0.001260 2.691445 2.738224 0.000000 0.000000 0.000000
    45 0.001231 2.716781 -0.958050 0.000000 0.000000 0.000000
    46 0.001229 -1.469727 23.718750 0.000000 -0.000001 0.000000
  time 29
    0 0.000005 -2.660156 -8.640625 -1.570760 -1.391893 -1.570827
    1 2.033348 1.000767 1.937660 1.596636 -1.286515 2.942963
    2 6.028145 0.000003 0.000002 -0.631603 -0.747858 -2.045939
    3 11.692553 0.000081 -0.000007 -0.000003 0.000024 -0.949015
    4 11.481672 -0.000089 -0.000024 -0.101610 0.472662 0.091195
    5 3.281560 0.006028 -1.379481 0.060230 -0.190610 -0.990875
    6 1.328125 -0.000002 -0.000002 0.000002 -0.054909 -0.582384
    7 0.819336 0.000000 0.000001 0.000000 0.000000 -0.523584
    8 3.711854 0.109258 -0.568166 -0.040170 -0.149220 -1.054247
    9 1.609410 0.000004 -0.000005 -0.000002 0.001793 -0.427508
    10 0.993190 -0.000004 0.000004 0.001476 0.002258 -0.454039
    11 3.786034 0.207136 0.247844 -0.084422 -0.093732 -0.792881
    12 1.680664 0.000002 0.000000 -0.000001 0.006216 -0.584702
    13 1.256836 0.000006 -0.000002 0.000000 0.000000 -0.532315
    14 3.594226 0.303461 1.113710 -0.047577 -0.108726 -0.915027
    15 1.723633 0.000004 -0.000004 0.000000 0.000000 -0.288008
    16 1.002930 -0.000004 0.000004 0.000000 0.000000 -0.445039
    17 0.298214 -0.630183 0.426700 -1.264594 -0.790612 -0.638107
    18 2.636719 0.000000 -0.000004 -0.000002 -0.221920 0.499922
    19 1.309570 -0.000002 -0.000002 -0.026244 -0.055141 0.588010
    20 2.033356 1.000772 -1.937610 -1.668474 1.286518 2.942953
    21 6.028141 0.000000 -0.000002 1.714005 0.869466 -0.456623
    22 11.692554 0.000000 0.000000 0.000034 -0.000012 -1.700360
    23 11.481705 -0.000001 -0.000009 -0.827647 0.110396 1.015374
    24 2.914339 -0.027078 1.404053 -0.101737 0.018741 -0.789161
    25 1.283203 -0.000004 -0.000002 0.000007 0.148980 -0.924032
    26 0.842285 0.000002 -0.000001 -0.059567 0.048353 -1.058030
    27 3.368063 0.007373 0.622456 0.035852 -0.077105 -1.016489
    28 1.605509 -0.000002 0.000002 0.000003 0.122000 -1.086872
    29 1.016602 0.000000 0.000001 0.012870 -0.013332 -1.223347
    30 3.551622 0.023914 -0.200566 0.012512 -0.103257 -0.905579
    31 1.666992 0.000002 0.000000 -0.000007 0.157404 -1.208300
    32 1.240436 0.000000 0.000005 0.000002 -0.000011 -1.279228
    33 3.449664 0.054208 -1.085181 0.053378 0.070883 -0.350537
    34 1.711614 0.000008 0.000012 0.000003 -0.008421 -0.322887
    35 1.005910 0.000002 0.000008 0.005613 -0.013536 -0.593074
    36 0.075535 -0.734846 -0.755818 1.327116 0.288916 -0.483828
    37 2.508557 -0.000008 -0.000006 -0.000002 -0.000001 0.359162
    38 1.312475 0.101566 -0.187510 0.052053 0.066424 0.654807
    39 -6.120427 -23.794399 -7.090727 1.581538 0.001648 -3.142257
    40 -0.003810 2.312519 1.197218 0.000000 0.000000 0.000000
    41 0.001230 3.011752 2.415958 -0.000025 0.000000 0.000000
    42 0.001228 2.742167 -1.331091 0.000000 0.000000 0.000000
    43 0.001229 3.617197 0.625910 -0.000001 0.000000 0.000000
    44 0.001260 2.691445 2.738224 0.000000 0.000000 0.000000
    45 0.001231 2.716781 -0.958050 0.000000 0.000000 0.000000
    46 0.001229 -1.469727 23.718750 0.000000 -0.000001 0.000000
  time 30
    0 0.000005 -2.660156 -8.640625 -1.570760 -1.391893 -1.570827
    1 2.033348 1.000767 1.937660 1.596636 -1.286515 2.942963
    2 6.028145 0.000003 0.000002 -0.633145 -0.745815 -2.045290
    3 11.692553 0.000081 -0.000007 -0.000003 0.000036 -0.950547
    4 11.481672 -0.000089 -0.000024 -0.109139 0.468789 0.083634
    5 3.281560 0.002122 -1.383387 0.060434 -0.190574 -0.991193
    6 1.328125 -0.000002 -0.000002 0.000002 -0.054909 -0.582384
    7 0.819336 0.000000 0.000001 0.000000 0.000000 -0.523584
    8 3.711854 0.109258 -0.568166 -0.039988 -0.149184 -1.054600
    9 1.609410 0.000004 -0.000005 -0.000002 0.001793 -0.427508
    10 0.993190 -0.000004 0.000004 0.001476 0.002258 -0.454039
    11 3.786034 0.203230 0.243937 -0.084242 -0.093732 -0.793190
    12 1.680664 0.000002 0.000000 -0.000001 0.006216 -0.584702
    13 1.256836 0.000006 -0.000002 0.000000 0.000000 -0.532315
    14 3.594226 0.299555 1.113710 -0.047403 -0.108702 -0.915365
    15 1.723633 0.000004 -0.000004 0.000000 0.000000 -0.288008
    16 1.002930 -0.000004 0.000004 0.000000 0.000000 -0.445039
    17 0.298214 -0.637996 0.426700 -1.264353 -0.790633 -0.638569
    18 2.636719 0.000000 -0.000004 -0.000002 -0.221920 0.499922
    19 1.309570 -0.000002 -0.000002 -0.026244 -0.055141 0.588010
    20 2.033356 1.000772 -1.937610 -1.668474 1.286518 2.942953
    21 6.028141 0.000000 -0.000002 1.711553 0.868838 -0.459795
    22 11.692554 0.000000 0.000000 0.000034 -0.000012 -1.699784
    23 11.481705 -0.000001 -0.000009 -0.829753 0.107758 1.016198
    24 2.910432 -0.023172 1.400147 -0.101598 0.018213 -0.788735
    25 1.283203 -0.000004 -0.000002 0.000007 0.148980 -0.924032
    26 0.842285 0.000002 -0.000001 -0.059567 0.048353 -1.058030
    27 3.368063 0.007373 0.618550 0.036128 -0.077584 -1.016093
    28 1.605509 -0.000002 0.000002 0.000003 0.122000 -1.086872
    29 1.016602 0.000000 0.000001 0.012870 -0.013332 -1.223347
    30 3.551622 0.023914 -0.204472 0.012728 -0.103773 -0.905185
    31 1.666992 0.000002 0.000000 -0.000007 0.157404 -1.208300
    32 1.240436 0.000000 0.000005 0.000002 -0.000011 -1.279228
    33 3.449664 0.054208 -1.089087 0.053312 0.070350 -0.350140
    34 1.711614 0.000008 0.000012 0.000003 -0.008421 -0.322887
    35 1.005910 0.000002 0.000008 0.005613 -0.013536 -0.593074
    36 0.075535 -0.738752 -0.755818 1.327116 0.288381 -0.483440
    37 2.508557 -0.000008 -0.000006 -0.000002 -0.000001 0.359162
    38 1.312475 0.101566 -0.187510 0.052053 0.066424 0.654807
    39 -6.116521 -23.802212 -7.133697 1.576451 0.001025 -3.141202
    40 -0.003810 2.312519 1.197218 0.000000 0.000000 0.000000
    41 0.001230 3.011752 2.415958 -0.000025 0.000000 0.000000
    42 0.001228 2.742167 -1.331091 0.000000 0.000000 0.000000
    43 0.001229 3.617197 0.625910 -0.000001 0.000000 0.000000
    44 0.001260 2.691445 2.738224 0.000000 0.000000 0.000000
    45 0.001231 2.716781 -0.958050 0.000000 0.000000 0.000000
    46 0.001229 -1.469727 23.718750 0.000000 -0.000001 0.000000
  time 31
    0 0.000005 -2.660156 -8.640625 -1.570760 -1.391893 -1.570827
    1 2.033348 1.000767 1.937660 1.596636 -1.286515 2.942963
    2 6.028145 0.000003 0.000002 -0.633417 -0.744579 -2.045568
    3 11.692553 0.000081 -0.000007 -0.000003 0.000024 -0.951543
    4 11.481672 -0.000089 -0.000024 -0.117051 0.464617 0.075601
    5 3.281560 0.002122 -1.379481 0.060417 -0.190574 -0.991193
    6 1.328125 -0.000002 -0.000002 0.000002 -0.054909 -0.582384
    7 0.819336 0.000000 0.000001 0.000000 0.000000 -0.523584
    8 3.711854 0.109258 -0.568166 -0.039988 -0.149172 -1.054600
    9 1.609410 0.000004 -0.000005 -0.000002 0.001793 -0.427508
    10 0.993190 -0.000004 0.000004 0.001476 0.002258 -0.454039
    11 3.786034 0.203230 0.247844 -0.084242 -0.093732 -0.793190
    12 1.680664 0.000002 0.000000 -0.000001 0.006216 -0.584702
    13 1.256836 0.000006 -0.000002 0.000000 0.000000 -0.532315
    14 3.594226 0.299555 1.113710 -0.047403 -0.108702 -0.915365
    15 1.723633 0.000004 -0.000004 0.000000 0.000000 -0.288008
    16 1.002930 -0.000004 0.000004 0.000000 0.000000 -0.445039
    17 0.298214 -0.637996 0.430606 -1.264353 -0.790633 -0.638569
    18 2.636719 0.000000 -0.000004 -0.000002 -0.221920 0.499922
    19 1.309570 -0.000002 -0.000002 -0.026244 -0.055141 0.588010
    20 2.033356 1.000772 -1.937610 -1.668474 1.286518 2.942953
    21 6.028141 0.000000 -0.000002 1.708901 0.868279 -0.463246
    22 11.692554 0.000000 0.000000 0.000034 -0.000012 -1.699208
    23 11.481705 -0.000001 -0.000009 -0.831697 0.105137 1.018540
    24 2.910432 -0.023172 1.404053 -0.101667 0.018501 -0.788905
    25 1.283203 -0.000004 -0.000002 0.000007 0.148980 -0.924032
    26 0.842285 0.000002 -0.000001 -0.059567 0.048353 -1.058030
    27 3.368063 0.007373 0.622456 0.035972 -0.077320 -1.016266
    28 1.605509 -0.000002 0.000002 0.000003 0.121988 -1.086911
    29 1.016602 0.000000 0.000001 0.012870 -0.013332 -1.223347
    30 3.551622 0.023914 -0.204472 0.012608 -0.103497 -0.905346
    31 1.666992 0.000002 0.000000 -0.000007 0.157404 -1.208300
    32 1.240436 0.000000 0.000005 0.000002 0.000001 -1.279228
    33 3.449664 0.054208 -1.089087 0.053338 0.070644 -0.350285
    34 1.715521 0.000008 0.000012 0.000003 -0.008421 -0.322887
    35 1.005910 0.000002 0.000008 0.005613 -0.013536 -0.593074
    36 0.075535 -0.738752 -0.755818 1.327116 0.288669 -0.483586
    37 2.508557 -0.000008 -0.000006 -0.000002 -0.000001 0.359162
    38 1.312475 0.101566 -0.187510 0.052053 0.066424 0.654807
    39 -6.112614 -23.810024 -7.188386 1.570839 0.000713 -3.140435
    40 -0.003810 2.312519 1.197218 0.000000 0.000000 0.000000
    41 0.001230 3.011752 2.415958 -0.000025 0.000000 0.000000
    42 0.001228 2.742167 -1.331091 0.000000 0.000000 0.000000
    43 0.001229 3.617197 0.625910 -0.000001 0.000000 0.000000
    44 0.001260 2.691445 2.738224 0.000000 0.000000 0.000000
    45 0.001231 2.716781 -0.958050 0.000000 0.000000 0.000000
    46 0.001229 -1.469727 23.718750 0.000000 -0.000001 0.000000
end
