// Created by Crowbar++ 0.74
version 1
nodes
  0 "ValveBiped.Bip01_Spine4" -1
  1 "ValveBiped.Bip01_L_Clavicle" 0
  2 "ValveBiped.Bip01_L_UpperArm" 1
  3 "ValveBiped.Bip01_L_Forearm" 2
  4 "ValveBiped.Bip01_L_Hand" 3
  5 "ValveBiped.Bip01_L_Finger4" 4
  6 "ValveBiped.Bip01_L_Finger41" 5
  7 "ValveBiped.Bip01_L_Finger42" 6
  8 "ValveBiped.Bip01_L_Finger3" 4
  9 "ValveBiped.Bip01_L_Finger31" 8
  10 "ValveBiped.Bip01_L_Finger32" 9
  11 "ValveBiped.Bip01_L_Finger2" 4
  12 "ValveBiped.Bip01_L_Finger21" 11
  13 "ValveBiped.Bip01_L_Finger22" 12
  14 "ValveBiped.Bip01_L_Finger1" 4
  15 "ValveBiped.Bip01_L_Finger11" 14
  16 "ValveBiped.Bip01_L_Finger12" 15
  17 "ValveBiped.Bip01_L_Finger0" 4
  18 "ValveBiped.Bip01_L_Finger01" 17
  19 "ValveBiped.Bip01_L_Finger02" 18
  20 "ValveBiped.Bip01_L_Wrist" 3
  21 "ValveBiped.Bip01_R_Clavicle" 0
  22 "ValveBiped.Bip01_R_UpperArm" 21
  23 "ValveBiped.Bip01_R_Forearm" 22
  24 "ValveBiped.Bip01_R_Hand" 23
  25 "ValveBiped.Bip01_R_Finger4" 24
  26 "ValveBiped.Bip01_R_Finger41" 25
  27 "ValveBiped.Bip01_R_Finger42" 26
  28 "ValveBiped.Bip01_R_Finger3" 24
  29 "ValveBiped.Bip01_R_Finger31" 28
  30 "ValveBiped.Bip01_R_Finger32" 29
  31 "ValveBiped.Bip01_R_Finger2" 24
  32 "ValveBiped.Bip01_R_Finger21" 31
  33 "ValveBiped.Bip01_R_Finger22" 32
  34 "ValveBiped.Bip01_R_Finger1" 24
  35 "ValveBiped.Bip01_R_Finger11" 34
  36 "ValveBiped.Bip01_R_Finger12" 35
  37 "ValveBiped.Bip01_R_Finger0" 24
  38 "ValveBiped.Bip01_R_Finger01" 37
  39 "ValveBiped.Bip01_R_Finger02" 38
  40 "ValveBiped.Bip01_R_Wrist" 23
  41 "gun" -1
  42 "mag" 41
  43 "heatshield_top" 41
  44 "heatshield_l" 41
  45 "heatshield_r" 41
end
skeleton
  time 0
    0 0.000000 -0.000006 0.000000 -1.570781 -1.391896 -1.570809
    1 -4.875000 -0.206787 1.455078 1.596636 -1.286515 2.942963
    2 6.028144 0.000002 0.000002 0.331731 -1.147837 -2.320791
    3 11.692554 0.000081 -0.000006 -0.000003 0.000010 -0.362429
    4 11.482105 0.000429 -0.000029 -0.919679 0.295435 -0.899019
    5 3.859703 -0.142420 -1.191975 -0.489340 0.032119 -1.110105
    6 1.312559 -0.000008 0.000003 0.000000 -0.000003 -0.439723
    7 0.729369 -0.000006 0.000001 0.000001 -0.000003 -0.244304
    8 3.942329 0.046753 -0.431443 -0.168270 -0.006277 -1.293931
    9 1.539093 0.000004 -0.000006 -0.000002 0.000006 -0.247791
    10 1.196321 -0.000004 0.000003 0.000001 -0.000007 -0.430811
    11 3.883690 -0.046782 0.431443 0.053532 0.070672 -1.261345
    12 1.719578 -0.000011 0.000009 0.000002 0.005514 -0.366480
    13 1.209181 -0.000004 0.000004 0.000000 0.003091 -0.216394
    14 3.859856 -0.137962 1.332466 0.384689 0.117685 -1.290614
    15 1.719433 0.000002 -0.000005 -0.000004 0.004079 -0.363004
    16 1.099674 -0.000004 0.000003 0.000005 0.002595 -0.244332
    17 0.806042 -0.348928 1.321258 -1.222684 -0.679216 -0.788820
    18 1.789783 0.000002 -0.000008 -0.000001 0.243466 0.228522
    19 1.207001 -0.000001 0.000002 0.000002 -0.000001 0.362862
    20 11.484137 0.000873 -0.000005 -0.447965 0.221319 -0.084200
    21 -3.501953 -3.718750 -9.851563 -1.668474 1.286518 2.942953
    22 6.028141 0.000000 -0.000001 1.184941 0.444011 -1.860958
    23 11.692556 0.000000 -0.000001 -0.000002 0.000000 -1.384630
    24 11.481203 0.000403 -0.000008 -2.031723 0.226353 0.212125
    25 3.859678 -0.132545 1.193109 0.451068 -0.053980 -1.646235
    26 1.312561 -0.000004 -0.000001 0.000002 0.000001 -0.439674
    27 0.729364 -0.000004 -0.000002 -0.000001 0.000002 -1.254700
    28 3.942293 0.050345 0.431044 0.166894 0.030023 -1.468535
    29 1.539103 -0.000002 0.000001 0.000002 0.000001 -1.012265
    30 1.196321 -0.000004 -0.000003 -0.000001 -0.000001 -1.406099
    31 3.883657 -0.050307 -0.431042 0.006922 0.081092 -1.415357
    32 1.719585 0.000008 0.000006 0.007542 -0.002583 -1.607092
    33 1.209185 0.000002 0.000006 0.000002 -0.004469 -0.216370
    34 3.726563 0.236694 -1.375000 -0.354423 0.038571 -0.532000
    35 1.354492 0.494629 0.077576 0.002691 0.152324 -0.776173
    36 1.099667 0.000002 0.000008 0.000004 -0.004212 -0.244311
    37 0.806021 -0.359832 -1.318335 1.221406 0.673630 -0.793552
    38 1.789785 -0.000011 -0.000004 -0.000001 0.076542 0.859696
    39 1.207001 -0.000001 -0.000006 0.000002 -0.000001 0.869771
    40 11.484729 0.001727 0.000005 -0.094124 0.013833 0.047824
    41 -5.537691 -18.309162 -5.108843 1.570796 0.000000 -0.000066
    42 -1.689684 2.709811 4.387621 0.000000 0.000000 0.000000
    43 -0.448134 1.576904 5.279871 1.544434 0.030232 1.564124
    44 0.233417 0.631622 6.176952 1.544434 0.030232 1.564124
    45 -0.951339 0.466229 6.136072 1.544434 0.030232 1.564124
  time 1
    0 0.000000 -0.000006 0.000000 -1.570781 -1.391896 -1.570809
    1 -4.875000 -0.206787 1.455078 1.596636 -1.286515 2.942963
    2 6.028144 0.000002 0.000002 0.326255 -1.147633 -2.315979
    3 11.692554 0.000081 -0.000006 -0.000003 0.000010 -0.366504
    4 11.482105 0.000429 -0.000029 -0.922340 0.293860 -0.895853
    5 3.859703 -0.142420 -1.191975 -0.489340 0.032119 -1.110105
    6 1.312559 -0.000008 0.000003 0.000000 -0.000003 -0.439723
    7 0.729369 -0.000006 0.000001 0.000001 -0.000003 -0.244304
    8 3.942329 0.046753 -0.431443 -0.168270 -0.006277 -1.293931
    9 1.539093 0.000004 -0.000006 -0.000002 0.000006 -0.247791
    10 1.196321 -0.000004 0.000003 0.000001 -0.000007 -0.430811
    11 3.883690 -0.046782 0.431443 0.053532 0.070672 -1.261345
    12 1.719578 -0.000011 0.000009 0.000002 0.005514 -0.366480
    13 1.209181 -0.000004 0.000004 0.000000 0.003091 -0.216394
    14 3.859856 -0.137962 1.332466 0.384689 0.117685 -1.290614
    15 1.719433 0.000002 -0.000005 -0.000004 0.004079 -0.363004
    16 1.099674 -0.000004 0.000003 0.000005 0.002595 -0.244332
    17 0.806042 -0.348928 1.321258 -1.222684 -0.679216 -0.788820
    18 1.789783 0.000002 -0.000008 -0.000001 0.243466 0.228522
    19 1.207001 -0.000001 0.000002 0.000002 -0.000001 0.362862
    20 11.484137 0.000873 -0.000005 -0.448882 0.220660 -0.083960
    21 -3.501953 -3.718750 -9.851563 -1.668474 1.286518 2.942953
    22 6.028141 0.000000 -0.000001 1.184504 0.443401 -1.861477
    23 11.692556 0.000000 -0.000001 -0.000002 0.000000 -1.384984
    24 11.481203 0.000403 -0.000008 -2.033366 0.228672 0.212956
    25 3.859678 -0.132545 1.193109 0.451068 -0.053980 -1.646235
    26 1.312561 -0.000004 -0.000001 0.000002 0.000001 -0.439674
    27 0.729364 -0.000004 -0.000002 -0.000001 0.000002 -1.254700
    28 3.942293 0.050345 0.431044 0.166894 0.030023 -1.468535
    29 1.539103 -0.000002 0.000001 0.000002 0.000001 -1.012265
    30 1.196321 -0.000004 -0.000003 -0.000001 -0.000001 -1.406099
    31 3.883657 -0.050307 -0.431042 0.006922 0.081092 -1.415357
    32 1.719585 0.000008 0.000006 0.007542 -0.002583 -1.607092
    33 1.209185 0.000002 0.000006 0.000002 -0.004469 -0.216370
    34 3.726563 0.236694 -1.375000 -0.354423 0.038571 -0.532000
    35 1.354492 0.494629 0.077576 0.002691 0.152324 -0.776173
    36 1.099667 0.000002 0.000008 0.000004 -0.004212 -0.244311
    37 0.806021 -0.359832 -1.318335 1.221406 0.673630 -0.793552
    38 1.789785 -0.000011 -0.000004 -0.000001 0.076542 0.859696
    39 1.207001 -0.000001 -0.000006 0.000002 -0.000001 0.869771
    40 11.484729 0.001727 0.000005 -0.094483 0.014228 0.048123
    41 -5.537691 -18.309162 -5.108843 1.574954 0.002077 0.000073
    42 -1.689684 2.709811 4.387621 0.000000 0.000000 0.000000
    43 -0.448134 1.576904 5.279871 1.544422 0.044074 1.563764
    44 0.233417 0.631622 6.176952 1.558672 0.030232 1.564124
    45 -0.951339 0.466229 6.136072 1.539412 0.030232 1.564124
  time 2
    0 0.000000 -0.000006 0.000000 -1.570781 -1.391896 -1.570809
    1 -4.875000 -0.206787 1.455078 1.596636 -1.286515 2.942963
    2 6.028144 0.000002 0.000002 0.313479 -1.146898 -2.305217
    3 11.692554 0.000081 -0.000006 -0.000003 0.000010 -0.375718
    4 11.482105 0.000429 -0.000029 -0.928454 0.289607 -0.888833
    5 3.859703 -0.142420 -1.191975 -0.489340 0.032119 -1.110105
    6 1.312559 -0.000008 0.000003 0.000000 -0.000003 -0.439723
    7 0.729369 -0.000006 0.000001 0.000001 -0.000003 -0.244304
    8 3.942329 0.046753 -0.431443 -0.168270 -0.006277 -1.293931
    9 1.539093 0.000004 -0.000006 -0.000002 0.000006 -0.247791
    10 1.196321 -0.000004 0.000003 0.000001 -0.000007 -0.430811
    11 3.883690 -0.046782 0.431443 0.053532 0.070672 -1.261345
    12 1.719578 -0.000011 0.000009 0.000002 0.005514 -0.366480
    13 1.209181 -0.000004 0.000004 0.000000 0.003091 -0.216394
    14 3.859856 -0.137962 1.332466 0.384689 0.117685 -1.290614
    15 1.719433 0.000002 -0.000005 -0.000004 0.004079 -0.363004
    16 1.099674 -0.000004 0.000003 0.000005 0.002595 -0.244332
    17 0.806042 -0.348928 1.321258 -1.222684 -0.679216 -0.788820
    18 1.789783 0.000002 -0.000008 -0.000001 0.243466 0.228522
    19 1.207001 -0.000001 0.000002 0.000002 -0.000001 0.362862
    20 11.484137 0.000873 -0.000005 -0.451068 0.219126 -0.083577
    21 -3.501953 -3.718750 -9.851563 -1.668474 1.286518 2.942953
    22 6.028141 0.000000 -0.000001 1.183441 0.442087 -1.862602
    23 11.692556 0.000000 -0.000001 -0.000002 0.000000 -1.385988
    24 11.481203 0.000403 -0.000008 -2.037749 0.234058 0.215173
    25 3.859678 -0.132545 1.193109 0.451068 -0.053980 -1.646235
    26 1.312561 -0.000004 -0.000001 0.000002 0.000001 -0.439674
    27 0.729364 -0.000004 -0.000002 -0.000001 0.000002 -1.254700
    28 3.942293 0.050345 0.431044 0.166894 0.030023 -1.468535
    29 1.539103 -0.000002 0.000001 0.000002 0.000001 -1.012265
    30 1.196321 -0.000004 -0.000003 -0.000001 -0.000001 -1.406099
    31 3.883657 -0.050307 -0.431042 0.006922 0.081092 -1.415357
    32 1.719585 0.000008 0.000006 0.007542 -0.002583 -1.607092
    33 1.209185 0.000002 0.000006 0.000002 -0.004469 -0.216370
    34 3.726563 0.236694 -1.375000 -0.354423 0.038571 -0.532000
    35 1.354492 0.494629 0.077576 0.002691 0.152324 -0.776173
    36 1.099667 0.000002 0.000008 0.000004 -0.004212 -0.244311
    37 0.806021 -0.359832 -1.318335 1.221406 0.673630 -0.793552
    38 1.789785 -0.000011 -0.000004 -0.000001 0.076542 0.859696
    39 1.207001 -0.000001 -0.000006 0.000002 -0.000001 0.869771
    40 11.484729 0.001727 0.000005 -0.095430 0.015115 0.048890
    41 -5.537691 -18.309162 -5.108843 1.584861 0.007753 0.000280
    42 -1.689684 2.709811 4.387621 0.000000 0.000000 0.000000
    43 -0.448134 1.576904 5.279871 1.544386 0.069805 1.563081
    44 0.233417 0.631622 6.176952 1.585122 0.030232 1.564124
    45 -0.951339 0.466229 6.136072 1.527152 0.030232 1.564124
  time 3
    0 0.000000 -0.000006 0.000000 -1.570781 -1.391896 -1.570809
    1 -4.875000 -0.206787 1.455078 1.596636 -1.286515 2.942963
    2 6.028144 0.000002 0.000002 0.299817 -1.145304 -2.294506
    3 11.692554 0.000081 -0.000006 -0.000003 0.000010 -0.384932
    4 11.482105 0.000429 -0.000029 -0.935574 0.283385 -0.881766
    5 3.859703 -0.142420 -1.191975 -0.489340 0.032119 -1.110105
    6 1.312559 -0.000008 0.000003 0.000000 -0.000003 -0.439723
    7 0.729369 -0.000006 0.000001 0.000001 -0.000003 -0.244304
    8 3.942329 0.046753 -0.431443 -0.168270 -0.006277 -1.293931
    9 1.539093 0.000004 -0.000006 -0.000002 0.000006 -0.247791
    10 1.196321 -0.000004 0.000003 0.000001 -0.000007 -0.430811
    11 3.883690 -0.046782 0.431443 0.053532 0.070672 -1.261365
    12 1.719578 -0.000011 0.000009 0.000002 0.005514 -0.366480
    13 1.209181 -0.000004 0.000004 0.000000 0.003091 -0.216394
    14 3.859856 -0.137962 1.332466 0.384689 0.117685 -1.290614
    15 1.719433 0.000002 -0.000005 -0.000004 0.004079 -0.363004
    16 1.099674 -0.000004 0.000003 0.000005 0.002595 -0.244332
    17 0.806042 -0.348928 1.321258 -1.222684 -0.679216 -0.788820
    18 1.789783 0.000002 -0.000008 -0.000001 0.243466 0.228522
    19 1.207001 -0.000001 0.000002 0.000002 -0.000001 0.362862
    20 11.484137 0.000873 -0.000005 -0.453660 0.217424 -0.083577
    21 -3.501953 -3.718750 -9.851563 -1.668474 1.286518 2.942953
    22 6.028141 0.000000 -0.000001 1.182441 0.440493 -1.863641
    23 11.692556 0.000000 -0.000001 -0.000002 0.000000 -1.387699
    24 11.481203 0.000403 -0.000008 -2.044070 0.240323 0.218360
    25 3.859678 -0.132545 1.193109 0.451068 -0.053980 -1.646235
    26 1.312561 -0.000004 -0.000001 0.000002 0.000001 -0.439674
    27 0.729364 -0.000004 -0.000002 -0.000001 0.000002 -1.254700
    28 3.942293 0.050345 0.431044 0.166894 0.030023 -1.468535
    29 1.539103 -0.000002 0.000001 0.000002 0.000001 -1.012265
    30 1.196321 -0.000004 -0.000003 -0.000001 -0.000001 -1.406099
    31 3.883657 -0.050307 -0.431042 0.006922 0.081092 -1.415357
    32 1.719585 0.000008 0.000006 0.007542 -0.002583 -1.607092
    33 1.209185 0.000002 0.000006 0.000002 -0.004469 -0.216370
    34 3.726563 0.236694 -1.375000 -0.354423 0.038571 -0.532000
    35 1.354492 0.494629 0.077576 0.002691 0.152324 -0.776173
    36 1.099667 0.000002 0.000008 0.000004 -0.004212 -0.244311
    37 0.806021 -0.359832 -1.318335 1.221406 0.673630 -0.793552
    38 1.789785 -0.000011 -0.000004 -0.000001 0.076542 0.859696
    39 1.207001 -0.000001 -0.000006 0.000002 -0.000001 0.869771
    40 11.484729 0.001727 0.000005 -0.096784 0.016110 0.049957
    41 -5.537691 -18.309162 -5.108843 1.596703 0.016124 0.000694
    42 -1.689684 2.709811 4.387621 0.000000 0.000000 0.000000
    43 -0.448134 1.576904 5.279871 1.544362 0.083671 1.562722
    44 0.233417 0.631622 6.176952 1.599359 0.030232 1.564124
    45 -0.951339 0.466229 6.136072 1.511896 0.030232 1.564124
  time 4
    0 0.000000 -0.000006 0.000000 -1.570781 -1.391896 -1.570809
    1 -4.875000 -0.206787 1.455078 1.596636 -1.286515 2.942963
    2 6.028144 0.000002 0.000002 0.290470 -1.142893 -2.288711
    3 11.692554 0.000081 -0.000006 -0.000003 0.000010 -0.389849
    4 11.482105 0.000429 -0.000029 -0.941184 0.275884 -0.878187
    5 3.859703 -0.142420 -1.191975 -0.489340 0.032119 -1.110105
    6 1.312559 -0.000008 0.000003 0.000000 -0.000003 -0.439723
    7 0.729369 -0.000006 0.000001 0.000001 -0.000003 -0.244304
    8 3.942329 0.046753 -0.431443 -0.168270 -0.006277 -1.293931
    9 1.539093 0.000004 -0.000006 -0.000002 0.000006 -0.247791
    10 1.196321 -0.000004 0.000003 0.000001 -0.000007 -0.430811
    11 3.883690 -0.046782 0.431443 0.053532 0.070672 -1.261345
    12 1.719578 -0.000011 0.000009 0.000002 0.005514 -0.366480
    13 1.209181 -0.000004 0.000004 0.000000 0.003091 -0.216394
    14 3.859856 -0.137962 1.332466 0.384689 0.117685 -1.290614
    15 1.719433 0.000002 -0.000005 -0.000004 0.004079 -0.363004
    16 1.099674 -0.000004 0.000003 0.000005 0.002595 -0.244332
    17 0.806042 -0.348928 1.321258 -1.222684 -0.679216 -0.788820
    18 1.789783 0.000002 -0.000008 -0.000001 0.243466 0.228522
    19 1.207001 -0.000001 0.000002 0.000002 -0.000001 0.362862
    20 11.484137 0.000873 -0.000005 -0.455820 0.216225 -0.084403
    21 -3.501953 -3.718750 -9.851563 -1.668474 1.286518 2.942953
    22 6.028141 0.000000 -0.000001 1.182066 0.439320 -1.863900
    23 11.692556 0.000000 -0.000001 -0.000002 0.000000 -1.390060
    24 11.481203 0.000403 -0.000008 -2.051360 0.245148 0.222136
    25 3.859678 -0.132545 1.193109 0.451068 -0.053980 -1.646235
    26 1.312561 -0.000004 -0.000001 0.000002 0.000001 -0.439674
    27 0.729364 -0.000004 -0.000002 -0.000001 0.000002 -1.254700
    28 3.942293 0.050345 0.431044 0.166894 0.030023 -1.468535
    29 1.539103 -0.000002 0.000001 0.000002 0.000001 -1.012265
    30 1.196321 -0.000004 -0.000003 -0.000001 -0.000001 -1.406099
    31 3.883657 -0.050307 -0.431042 0.006922 0.081092 -1.415357
    32 1.719585 0.000008 0.000006 0.007542 -0.002583 -1.607092
    33 1.209185 0.000002 0.000006 0.000002 -0.004469 -0.216370
    34 3.726563 0.236694 -1.375000 -0.354423 0.038571 -0.532000
    35 1.354492 0.494629 0.077576 0.002691 0.152324 -0.776173
    36 1.099667 0.000002 0.000008 0.000004 -0.004212 -0.244311
    37 0.806021 -0.359832 -1.318335 1.221406 0.673630 -0.793552
    38 1.789785 -0.000011 -0.000004 -0.000001 0.076542 0.859696
    39 1.207001 -0.000001 -0.000006 0.000002 -0.000001 0.869771
    40 11.484729 0.001727 0.000005 -0.098318 0.016757 0.051108
    41 -5.537691 -18.309162 -5.108843 1.606630 0.026325 0.001177
    42 -1.689684 2.709811 4.387621 0.000000 0.000000 0.000000
    43 -0.448134 1.576904 5.279871 1.541066 0.071507 1.504944
    44 0.233417 0.631622 6.176952 1.584439 0.030232 1.564124
    45 -0.951339 0.466229 6.136072 1.497227 0.030232 1.564124
  time 5
    0 0.000000 -0.000006 0.000000 -1.570781 -1.391896 -1.570809
    1 -4.875000 -0.206787 1.455078 1.596636 -1.286515 2.942963
    2 6.028144 0.000002 0.000002 0.290580 -1.139706 -2.292695
    3 11.692554 0.000081 -0.000006 -0.000003 0.000010 -0.386261
    4 11.482105 0.000429 -0.000029 -0.942694 0.267850 -0.881629
    5 3.859703 -0.142420 -1.191975 -0.489340 0.032119 -1.110105
    6 1.312559 -0.000008 0.000003 0.000000 -0.000003 -0.439723
    7 0.729369 -0.000006 0.000001 0.000001 -0.000003 -0.244304
    8 3.942329 0.046753 -0.431443 -0.168270 -0.006277 -1.293931
    9 1.539093 0.000004 -0.000006 -0.000002 0.000006 -0.247791
    10 1.196321 -0.000004 0.000003 0.000001 -0.000007 -0.430811
    11 3.883690 -0.046782 0.431443 0.053532 0.070672 -1.261345
    12 1.719578 -0.000011 0.000009 0.000002 0.005514 -0.366480
    13 1.209181 -0.000004 0.000004 0.000000 0.003091 -0.216394
    14 3.859856 -0.137962 1.332466 0.384689 0.117685 -1.290614
    15 1.719433 0.000002 -0.000005 -0.000004 0.004079 -0.363004
    16 1.099674 -0.000004 0.000003 0.000005 0.002595 -0.244332
    17 0.806042 -0.348928 1.321258 -1.222684 -0.679216 -0.788820
    18 1.789783 0.000002 -0.000008 -0.000001 0.243466 0.228522
    19 1.207001 -0.000001 0.000002 0.000002 -0.000001 0.362862
    20 11.484137 0.000873 -0.000005 -0.456710 0.216213 -0.086549
    21 -3.501953 -3.718750 -9.851563 -1.668474 1.286518 2.942953
    22 6.028141 0.000000 -0.000001 1.182816 0.439038 -1.862862
    23 11.692556 0.000000 -0.000001 -0.000002 0.000000 -1.393071
    24 11.481203 0.000403 -0.000008 -2.058945 0.246401 0.226258
    25 3.859678 -0.132545 1.193109 0.451068 -0.053980 -1.646235
    26 1.312561 -0.000004 -0.000001 0.000002 0.000001 -0.439674
    27 0.729364 -0.000004 -0.000002 -0.000001 0.000002 -1.254700
    28 3.942293 0.050345 0.431044 0.166894 0.030023 -1.468535
    29 1.539103 -0.000002 0.000001 0.000002 0.000001 -1.012265
    30 1.196321 -0.000004 -0.000003 -0.000001 -0.000001 -1.406099
    31 3.883657 -0.050307 -0.431042 0.006922 0.081092 -1.415357
    32 1.719585 0.000008 0.000006 0.007542 -0.002583 -1.607092
    33 1.209185 0.000002 0.000006 0.000002 -0.004469 -0.216370
    34 3.726563 0.236694 -1.375000 -0.354423 0.038571 -0.532000
    35 1.354492 0.494629 0.077576 0.002691 0.152324 -0.776173
    36 1.099667 0.000002 0.000008 0.000004 -0.004212 -0.244311
    37 0.806021 -0.359832 -1.318335 1.221406 0.673630 -0.793552
    38 1.789785 -0.000011 -0.000004 -0.000001 0.076542 0.859696
    39 1.207001 -0.000001 -0.000006 0.000002 -0.000001 0.869771
    40 11.484729 0.001727 0.000005 -0.099852 0.016673 0.052210
    41 -5.537691 -18.309162 -5.108843 1.610809 0.037431 0.001522
    42 -1.689684 2.709811 4.387621 0.000000 0.000000 0.000000
    43 -0.448134 1.576904 5.279871 1.536836 0.048437 1.397706
    44 0.233417 0.631622 6.176952 1.556730 0.030232 1.564124
    45 -0.951339 0.466229 6.136072 1.484056 0.030232 1.564124
  time 6
    0 0.000000 -0.000006 0.000000 -1.570781 -1.391896 -1.570809
    1 -4.875000 -0.206787 1.455078 1.596636 -1.286515 2.942963
    2 6.028144 0.000002 0.000002 0.303633 -1.135743 -2.309667
    3 11.692554 0.000081 -0.000006 -0.000003 0.000010 -0.371067
    4 11.482105 0.000429 -0.000029 -0.938379 0.260014 -0.894523
    5 3.859703 -0.142420 -1.191975 -0.489340 0.032119 -1.110105
    6 1.312559 -0.000008 0.000003 0.000000 -0.000003 -0.439723
    7 0.729369 -0.000006 0.000001 0.000001 -0.000003 -0.244304
    8 3.942329 0.046753 -0.431443 -0.168270 -0.006277 -1.293931
    9 1.539093 0.000004 -0.000006 -0.000002 0.000006 -0.247791
    10 1.196321 -0.000004 0.000003 0.000001 -0.000007 -0.430811
    11 3.883690 -0.046782 0.431443 0.053532 0.070672 -1.261345
    12 1.719578 -0.000011 0.000009 0.000002 0.005514 -0.366480
    13 1.209181 -0.000004 0.000004 0.000000 0.003091 -0.216394
    14 3.859856 -0.137962 1.332466 0.384689 0.117685 -1.290614
    15 1.719433 0.000002 -0.000005 -0.000004 0.004079 -0.363004
    16 1.099674 -0.000004 0.000003 0.000005 0.002595 -0.244332
    17 0.806042 -0.348928 1.321258 -1.222684 -0.679216 -0.788820
    18 1.789783 0.000002 -0.000008 -0.000001 0.243466 0.228522
    19 1.207001 -0.000001 0.000002 0.000002 -0.000001 0.362862
    20 11.484137 0.000873 -0.000005 -0.455768 0.217867 -0.090264
    21 -3.501953 -3.718750 -9.851563 -1.668474 1.286518 2.942953
    22 6.028141 0.000000 -0.000001 1.184879 0.440117 -1.860265
    23 11.692556 0.000000 -0.000001 -0.000002 0.000000 -1.396671
    24 11.481203 0.000403 -0.000008 -2.065856 0.242669 0.230623
    25 3.859678 -0.132545 1.193109 0.451068 -0.053980 -1.646235
    26 1.312561 -0.000004 -0.000001 0.000002 0.000001 -0.439674
    27 0.729364 -0.000004 -0.000002 -0.000001 0.000002 -1.254700
    28 3.942293 0.050345 0.431044 0.166894 0.030023 -1.468535
    29 1.539103 -0.000002 0.000001 0.000002 0.000001 -1.012265
    30 1.196321 -0.000004 -0.000003 -0.000001 -0.000001 -1.406099
    31 3.883657 -0.050307 -0.431042 0.006922 0.081092 -1.415357
    32 1.719585 0.000008 0.000006 0.007542 -0.002583 -1.607092
    33 1.209185 0.000002 0.000006 0.000002 -0.004469 -0.216370
    34 3.726563 0.236694 -1.375000 -0.354423 0.038571 -0.532000
    35 1.354492 0.494629 0.077576 0.002691 0.152324 -0.776173
    36 1.099667 0.000002 0.000008 0.000004 -0.004212 -0.244311
    37 0.806021 -0.359832 -1.318335 1.221406 0.673630 -0.793552
    38 1.789785 -0.000011 -0.000004 -0.000001 0.076542 0.859696
    39 1.207001 -0.000001 -0.000006 0.000002 -0.000001 0.869771
    40 11.484729 0.001727 0.000005 -0.101195 0.015607 0.053157
    41 -5.537691 -18.309162 -5.108843 1.606691 0.048598 0.001591
    42 -1.689684 2.709811 4.387621 0.000000 0.000000 0.000000
    43 -0.448134 1.576904 5.279871 1.535589 0.035889 1.340156
    44 0.233417 0.631622 6.176952 1.541833 0.030232 1.564124
    45 -0.951339 0.466229 6.136072 1.472670 0.030232 1.564124
  time 7
    0 0.000000 -0.000006 0.000000 -1.570781 -1.391896 -1.570809
    1 -4.875000 -0.206787 1.455078 1.596636 -1.286515 2.942963
    2 6.028144 0.000002 0.000002 0.326311 -1.131125 -2.336106
    3 11.692554 0.000081 -0.000006 -0.000003 0.000010 -0.347102
    4 11.482105 0.000429 -0.000029 -0.930323 0.252946 -0.914116
    5 3.859703 -0.142420 -1.191975 -0.489340 0.032119 -1.110105
    6 1.312559 -0.000008 0.000003 0.000000 -0.000003 -0.439723
    7 0.729369 -0.000006 0.000001 0.000001 -0.000003 -0.244304
    8 3.942329 0.046753 -0.431443 -0.168270 -0.006277 -1.293931
    9 1.539093 0.000004 -0.000006 -0.000002 0.000006 -0.247791
    10 1.196321 -0.000004 0.000003 0.000001 -0.000007 -0.430811
    11 3.883690 -0.046782 0.431443 0.053532 0.070672 -1.261345
    12 1.719578 -0.000011 0.000009 0.000002 0.005514 -0.366480
    13 1.209181 -0.000004 0.000004 0.000000 0.003091 -0.216394
    14 3.859856 -0.137962 1.332466 0.384689 0.117685 -1.290614
    15 1.719433 0.000002 -0.000005 -0.000004 0.004079 -0.363004
    16 1.099674 -0.000004 0.000003 0.000005 0.002595 -0.244332
    17 0.806042 -0.348928 1.321258 -1.222684 -0.679216 -0.788820
    18 1.789783 0.000002 -0.000008 -0.000001 0.243466 0.228522
    19 1.207001 -0.000001 0.000002 0.000002 -0.000001 0.362862
    20 11.484137 0.000873 -0.000005 -0.453503 0.220756 -0.094902
    21 -3.501953 -3.718750 -9.851563 -1.668474 1.286518 2.942953
    22 6.028141 0.000000 -0.000001 1.187816 0.442087 -1.856716
    23 11.692556 0.000000 -0.000001 -0.000002 0.000000 -1.400508
    24 11.481203 0.000403 -0.000008 -2.071840 0.235684 0.234953
    25 3.859678 -0.132545 1.193109 0.451068 -0.053980 -1.646235
    26 1.312561 -0.000004 -0.000001 0.000002 0.000001 -0.439674
    27 0.729364 -0.000004 -0.000002 -0.000001 0.000002 -1.254700
    28 3.942293 0.050345 0.431044 0.166894 0.030023 -1.468535
    29 1.539103 -0.000002 0.000001 0.000002 0.000001 -1.012265
    30 1.196321 -0.000004 -0.000003 -0.000001 -0.000001 -1.406099
    31 3.883657 -0.050307 -0.431042 0.006922 0.081092 -1.415357
    32 1.719585 0.000008 0.000006 0.007542 -0.002583 -1.607092
    33 1.209185 0.000002 0.000006 0.000002 -0.004469 -0.216370
    34 3.726563 0.236694 -1.375000 -0.354423 0.038571 -0.532000
    35 1.354492 0.494629 0.077576 0.002691 0.152324 -0.776173
    36 1.099667 0.000002 0.000008 0.000004 -0.004212 -0.244311
    37 0.806021 -0.359832 -1.318335 1.221406 0.673630 -0.793552
    38 1.789785 -0.000011 -0.000004 -0.000001 0.076542 0.859696
    39 1.207001 -0.000001 -0.000006 0.000002 -0.000001 0.869771
    40 11.484729 0.001727 0.000005 -0.102297 0.013917 0.053924
    41 -5.537691 -18.309162 -5.108843 1.596805 0.058881 0.001246
    42 -1.689684 2.709811 4.387621 0.000000 0.000000 0.000000
    43 -0.448134 1.576904 5.279871 1.537027 0.044985 1.388238
    44 0.233417 0.631622 6.176952 1.545836 0.030232 1.564124
    45 -0.951339 0.466229 6.136072 1.463346 0.030232 1.564124
  time 8
    0 0.000000 -0.000006 0.000000 -1.570781 -1.391896 -1.570809
    1 -4.875000 -0.206787 1.455078 1.596636 -1.286515 2.942963
    2 6.028144 0.000002 0.000002 0.352306 -1.126345 -2.365444
    3 11.692554 0.000081 -0.000006 -0.000003 0.000010 -0.320169
    4 11.482105 0.000429 -0.000029 -0.921117 0.247275 -0.935590
    5 3.859703 -0.142420 -1.191975 -0.489340 0.032119 -1.110105
    6 1.312559 -0.000008 0.000003 0.000000 -0.000003 -0.439723
    7 0.729369 -0.000006 0.000001 0.000001 -0.000003 -0.244304
    8 3.942329 0.046753 -0.431443 -0.168270 -0.006277 -1.293931
    9 1.539093 0.000004 -0.000006 -0.000002 0.000006 -0.247791
    10 1.196321 -0.000004 0.000003 0.000001 -0.000007 -0.430811
    11 3.883690 -0.046782 0.431443 0.053532 0.070672 -1.261345
    12 1.719578 -0.000011 0.000009 0.000002 0.005514 -0.366480
    13 1.209181 -0.000004 0.000004 0.000000 0.003091 -0.216394
    14 3.859856 -0.137962 1.332466 0.384689 0.117685 -1.290614
    15 1.719433 0.000002 -0.000005 -0.000004 0.004079 -0.363004
    16 1.099674 -0.000004 0.000003 0.000005 0.002595 -0.244332
    17 0.806042 -0.348928 1.321258 -1.222684 -0.679216 -0.788820
    18 1.789783 0.000002 -0.000008 -0.000001 0.243466 0.228522
    19 1.207001 -0.000001 0.000002 0.000002 -0.000001 0.362862
    20 11.484137 0.000873 -0.000005 -0.450728 0.224063 -0.099540
    21 -3.501953 -3.718750 -9.851563 -1.668474 1.286518 2.942953
    22 6.028141 0.000000 -0.000001 1.190816 0.444292 -1.853168
    23 11.692556 0.000000 -0.000001 -0.000002 0.000000 -1.404049
    24 11.481203 0.000403 -0.000008 -2.076517 0.227792 0.238763
    25 3.859678 -0.132545 1.193109 0.451068 -0.053980 -1.646235
    26 1.312561 -0.000004 -0.000001 0.000002 0.000001 -0.439674
    27 0.729364 -0.000004 -0.000002 -0.000001 0.000002 -1.254700
    28 3.942293 0.050345 0.431044 0.166894 0.030023 -1.468535
    29 1.539103 -0.000002 0.000001 0.000002 0.000001 -1.012265
    30 1.196321 -0.000004 -0.000003 -0.000001 -0.000001 -1.406099
    31 3.883657 -0.050307 -0.431042 0.006922 0.081092 -1.415357
    32 1.719585 0.000008 0.000006 0.007542 -0.002583 -1.607092
    33 1.209185 0.000002 0.000006 0.000002 -0.004469 -0.216370
    34 3.726563 0.236694 -1.375000 -0.354423 0.038571 -0.532000
    35 1.354492 0.494629 0.077576 0.002691 0.152324 -0.776173
    36 1.099667 0.000002 0.000008 0.000004 -0.004212 -0.244311
    37 0.806021 -0.359832 -1.318335 1.221406 0.673630 -0.793552
    38 1.789785 -0.000011 -0.000004 -0.000001 0.076542 0.859696
    39 1.207001 -0.000001 -0.000006 0.000002 -0.000001 0.869771
    40 11.484729 0.001727 0.000005 -0.103136 0.012083 0.054511
    41 -5.537691 -18.309162 -5.108843 1.584983 0.067355 0.000694
    42 -1.689684 2.709811 4.387621 0.000000 0.000000 0.000000
    43 -0.448134 1.576904 5.279871 1.541737 0.064760 1.494577
    44 0.233417 0.631622 6.176952 1.554657 0.030232 1.564124
    45 -0.951339 0.466229 6.136072 1.456347 0.030232 1.564124
  time 9
    0 0.000000 -0.000006 0.000000 -1.570781 -1.391896 -1.570809
    1 -4.875000 -0.206787 1.455078 1.596636 -1.286515 2.942963
    2 6.028144 0.000002 0.000002 0.374430 -1.122259 -2.390021
    3 11.692554 0.000081 -0.000006 -0.000003 0.000010 -0.297267
    4 11.482105 0.000429 -0.000029 -0.913566 0.243495 -0.953302
    5 3.859703 -0.142420 -1.191975 -0.489340 0.032119 -1.110105
    6 1.312559 -0.000008 0.000003 0.000000 -0.000003 -0.439723
    7 0.729369 -0.000006 0.000001 0.000001 -0.000003 -0.244304
    8 3.942329 0.046753 -0.431443 -0.168270 -0.006277 -1.293931
    9 1.539093 0.000004 -0.000006 -0.000002 0.000006 -0.247791
    10 1.196321 -0.000004 0.000003 0.000001 -0.000007 -0.430811
    11 3.883690 -0.046782 0.431443 0.053532 0.070672 -1.261345
    12 1.719578 -0.000011 0.000009 0.000002 0.005514 -0.366480
    13 1.209181 -0.000004 0.000004 0.000000 0.003091 -0.216394
    14 3.859856 -0.137962 1.332466 0.384689 0.117685 -1.290614
    15 1.719433 0.000002 -0.000005 -0.000004 0.004079 -0.363004
    16 1.099674 -0.000004 0.000003 0.000005 0.002595 -0.244332
    17 0.806042 -0.348928 1.321258 -1.222684 -0.679216 -0.788820
    18 1.789783 0.000002 -0.000008 -0.000001 0.243466 0.228522
    19 1.207001 -0.000001 0.000002 0.000002 -0.000001 0.362862
    20 11.484137 0.000873 -0.000005 -0.448332 0.226868 -0.103159
    21 -3.501953 -3.718750 -9.851563 -1.668474 1.286518 2.942953
    22 6.028141 0.000000 -0.000001 1.193191 0.446121 -1.850398
    23 11.692556 0.000000 -0.000001 -0.000002 0.000000 -1.406587
    24 11.481203 0.000403 -0.000008 -2.079594 0.221314 0.241534
    25 3.859678 -0.132545 1.193109 0.451068 -0.053980 -1.646235
    26 1.312561 -0.000004 -0.000001 0.000002 0.000001 -0.439674
    27 0.729364 -0.000004 -0.000002 -0.000001 0.000002 -1.254700
    28 3.942293 0.050345 0.431044 0.166894 0.030023 -1.468535
    29 1.539103 -0.000002 0.000001 0.000002 0.000001 -1.012265
    30 1.196321 -0.000004 -0.000003 -0.000001 -0.000001 -1.406099
    31 3.883657 -0.050307 -0.431042 0.006922 0.081092 -1.415357
    32 1.719585 0.000008 0.000006 0.007542 -0.002583 -1.607092
    33 1.209185 0.000002 0.000006 0.000002 -0.004469 -0.216370
    34 3.726563 0.236694 -1.375000 -0.354423 0.038571 -0.532000
    35 1.354492 0.494629 0.077576 0.002691 0.152324 -0.776173
    36 1.099667 0.000002 0.000008 0.000004 -0.004212 -0.244311
    37 0.806021 -0.359832 -1.318335 1.221406 0.673630 -0.793552
    38 1.789785 -0.000011 -0.000004 -0.000001 0.076542 0.859696
    39 1.207001 -0.000001 -0.000006 0.000002 -0.000001 0.869771
    40 11.484729 0.001727 0.000005 -0.103651 0.010621 0.054895
    41 -5.537691 -18.309162 -5.108843 1.575036 0.073113 0.000211
    42 -1.689684 2.709811 4.387621 0.000000 0.000000 0.000000
    43 -0.448134 1.576904 5.279871 1.548533 0.083923 1.601204
    44 0.233417 0.631622 6.176952 1.563477 0.030232 1.564124
    45 -0.951339 0.466229 6.136072 1.451949 0.030232 1.564124
  time 10
    0 0.000000 -0.000006 0.000000 -1.570781 -1.391896 -1.570809
    1 -4.875000 -0.206787 1.455078 1.596636 -1.286515 2.942963
    2 6.028144 0.000002 0.000002 0.384054 -1.120502 -2.400576
    3 11.692554 0.000081 -0.000006 -0.000003 -0.000002 -0.287345
    4 11.482105 0.000429 -0.000029 -0.910401 0.242117 -0.960873
    5 3.859703 -0.142420 -1.191975 -0.489340 0.032119 -1.110105
    6 1.312559 -0.000008 0.000003 0.000000 -0.000003 -0.439723
    7 0.729369 -0.000006 0.000001 0.000001 -0.000003 -0.244304
    8 3.942329 0.046753 -0.431443 -0.168270 -0.006277 -1.293931
    9 1.539093 0.000004 -0.000006 -0.000002 0.000006 -0.247791
    10 1.196321 -0.000004 0.000003 0.000001 -0.000007 -0.430811
    11 3.883690 -0.046782 0.431443 0.053532 0.070672 -1.261345
    12 1.719578 -0.000011 0.000009 0.000002 0.005514 -0.366480
    13 1.209181 -0.000004 0.000004 0.000000 0.003091 -0.216394
    14 3.859856 -0.137962 1.332466 0.384689 0.117685 -1.290614
    15 1.719433 0.000002 -0.000005 -0.000004 0.004079 -0.363004
    16 1.099674 -0.000004 0.000003 0.000005 0.002595 -0.244332
    17 0.806042 -0.348928 1.321258 -1.222684 -0.679216 -0.788820
    18 1.789783 0.000002 -0.000008 -0.000001 0.243466 0.228522
    19 1.207001 -0.000001 0.000002 0.000002 -0.000001 0.362862
    20 11.484137 0.000873 -0.000005 -0.447285 0.228078 -0.104645
    21 -3.501953 -3.718750 -9.851563 -1.668474 1.286518 2.942953
    22 6.028141 0.000000 -0.000001 1.194128 0.446872 -1.849186
    23 11.692556 0.000000 -0.000001 -0.000002 0.000000 -1.407590
    24 11.481203 0.000403 -0.000008 -2.080689 0.218595 0.242643
    25 3.859678 -0.132545 1.193109 0.451068 -0.053980 -1.646235
    26 1.312561 -0.000004 -0.000001 0.000002 0.000001 -0.439674
    27 0.729364 -0.000004 -0.000002 -0.000001 0.000002 -1.254700
    28 3.942293 0.050345 0.431044 0.166894 0.030023 -1.468535
    29 1.539103 -0.000002 0.000001 0.000002 0.000001 -1.012265
    30 1.196321 -0.000004 -0.000003 -0.000001 -0.000001 -1.406099
    31 3.883657 -0.050307 -0.431042 0.006922 0.081092 -1.415357
    32 1.719585 0.000008 0.000006 0.007542 -0.002583 -1.607092
    33 1.209185 0.000002 0.000006 0.000002 -0.004469 -0.216370
    34 3.726563 0.236694 -1.375000 -0.354423 0.038571 -0.532000
    35 1.354492 0.494629 0.077576 0.002691 0.152324 -0.776173
    36 1.099667 0.000002 0.000008 0.000004 -0.004212 -0.244311
    37 0.806021 -0.359832 -1.318335 1.221406 0.673630 -0.793552
    38 1.789785 -0.000011 -0.000004 -0.000001 0.076542 0.859696
    39 1.207001 -0.000001 -0.000006 0.000002 -0.000001 0.869771
    40 11.484729 0.001727 0.000005 -0.103843 0.010010 0.055027
    41 -5.537691 -18.309162 -5.108843 1.570796 0.075231 -0.000066
    42 -1.689684 2.709811 4.387621 0.000000 0.000000 0.000000
    43 -0.448134 1.576904 5.279871 1.552272 0.092312 1.649562
    44 0.233417 0.631622 6.176952 1.567492 0.030232 1.564124
    45 -0.951339 0.466229 6.136072 1.450415 0.030232 1.564124
  time 11
    0 0.000000 -0.000006 0.000000 -1.570781 -1.391896 -1.570809
    1 -4.875000 -0.206787 1.455078 1.596636 -1.286515 2.942963
    2 6.028144 0.000002 0.000002 0.377417 -1.123199 -2.391469
    3 11.692554 0.000081 -0.000006 -0.000003 0.000010 -0.296071
    4 11.482105 0.000429 -0.000029 -0.909898 0.245700 -0.952705
    5 3.859703 -0.142420 -1.191975 -0.489340 0.032119 -1.110105
    6 1.312559 -0.000008 0.000003 0.000000 -0.000003 -0.439723
    7 0.729369 -0.000006 0.000001 0.000001 -0.000003 -0.244304
    8 3.942329 0.046753 -0.431443 -0.168270 -0.006277 -1.293931
    9 1.539093 0.000004 -0.000006 -0.000002 0.000006 -0.247791
    10 1.196321 -0.000004 0.000003 0.000001 -0.000007 -0.430811
    11 3.883690 -0.046782 0.431443 0.053532 0.070672 -1.261345
    12 1.719578 -0.000011 0.000009 0.000002 0.005514 -0.366480
    13 1.209181 -0.000004 0.000004 0.000000 0.003091 -0.216394
    14 3.859856 -0.137962 1.332466 0.384689 0.117685 -1.290614
    15 1.719433 0.000002 -0.000005 -0.000004 0.004079 -0.363004
    16 1.099674 -0.000004 0.000003 0.000005 0.002595 -0.244332
    17 0.806042 -0.348928 1.321258 -1.222684 -0.679216 -0.788820
    18 1.789783 0.000002 -0.000008 -0.000001 0.243466 0.228522
    19 1.207001 -0.000001 0.000002 0.000002 -0.000001 0.362862
    20 11.484137 0.000873 -0.000005 -0.447455 0.226736 -0.102872
    21 -3.501953 -3.718750 -9.851563 -1.668474 1.286518 2.942953
    22 6.028141 0.000000 -0.000001 1.193816 0.447060 -1.849705
    23 11.692556 0.000000 -0.000001 -0.000002 0.000000 -1.404462
    24 11.481203 0.000403 -0.000008 -2.076222 0.217395 0.238590
    25 3.859678 -0.132545 1.193109 0.451068 -0.053980 -1.646235
    26 1.312561 -0.000004 -0.000001 0.000002 0.000001 -0.439674
    27 0.729364 -0.000004 -0.000002 -0.000001 0.000002 -1.254700
    28 3.942293 0.050345 0.431044 0.166894 0.030023 -1.468535
    29 1.539103 -0.000002 0.000001 0.000002 0.000001 -1.012265
    30 1.196321 -0.000004 -0.000003 -0.000001 -0.000001 -1.406099
    31 3.883657 -0.050307 -0.431042 0.006922 0.081092 -1.415357
    32 1.719585 0.000008 0.000006 0.007542 -0.002583 -1.607092
    33 1.209185 0.000002 0.000006 0.000002 -0.004469 -0.216370
    34 3.726563 0.236694 -1.375000 -0.354423 0.038571 -0.532000
    35 1.354492 0.494629 0.077576 0.002691 0.152324 -0.776173
    36 1.099667 0.000002 0.000008 0.000004 -0.004212 -0.244311
    37 0.806021 -0.359832 -1.318335 1.221406 0.673630 -0.793552
    38 1.789785 -0.000011 -0.000004 -0.000001 0.076542 0.859696
    39 1.207001 -0.000001 -0.000006 0.000002 -0.000001 0.869771
    40 11.484729 0.001727 0.000005 -0.102908 0.010046 0.054056
    41 -5.537691 -18.309162 -5.108843 1.570776 0.069041 0.002006
    42 -1.689684 2.709811 4.387621 0.000000 0.000000 0.000000
    43 -0.448134 1.576904 5.279871 1.551205 0.085864 1.640598
    44 0.233417 0.631622 6.176952 1.565095 0.030232 1.564124
    45 -0.951339 0.466229 6.136072 1.460194 0.030232 1.564124
  time 12
    0 0.000000 -0.000006 0.000000 -1.570781 -1.391896 -1.570809
    1 -4.875000 -0.206787 1.455078 1.596636 -1.286515 2.942963
    2 6.028144 0.000002 0.000002 0.361985 -1.129491 -2.370204
    3 11.692554 0.000081 -0.000006 -0.000003 0.000010 -0.316271
    4 11.482105 0.000429 -0.000029 -0.908675 0.254285 -0.933388
    5 3.859703 -0.142420 -1.191975 -0.489340 0.032119 -1.110105
    6 1.312559 -0.000008 0.000003 0.000000 -0.000003 -0.439723
    7 0.729369 -0.000006 0.000001 0.000001 -0.000003 -0.244304
    8 3.942329 0.046753 -0.431443 -0.168270 -0.006277 -1.293931
    9 1.539093 0.000004 -0.000006 -0.000002 0.000006 -0.247791
    10 1.196321 -0.000004 0.000003 0.000001 -0.000007 -0.430811
    11 3.883690 -0.046782 0.431443 0.053532 0.070672 -1.261345
    12 1.719578 -0.000011 0.000009 0.000002 0.005514 -0.366480
    13 1.209181 -0.000004 0.000004 0.000000 0.003091 -0.216394
    14 3.859856 -0.137962 1.332466 0.384689 0.117685 -1.290614
    15 1.719433 0.000002 -0.000005 -0.000004 0.004079 -0.363004
    16 1.099674 -0.000004 0.000003 0.000005 0.002595 -0.244332
    17 0.806042 -0.348928 1.321258 -1.222684 -0.679216 -0.788820
    18 1.789783 0.000002 -0.000008 -0.000001 0.243466 0.228522
    19 1.207001 -0.000001 0.000002 0.000002 -0.000001 0.362862
    20 11.484137 0.000873 -0.000005 -0.447874 0.223596 -0.098665
    21 -3.501953 -3.718750 -9.851563 -1.668474 1.286518 2.942953
    22 6.028141 0.000000 -0.000001 1.192941 0.447482 -1.850917
    23 11.692556 0.000000 -0.000001 -0.000002 0.000000 -1.396789
    24 11.481203 0.000403 -0.000008 -2.065603 0.214835 0.228925
    25 3.859678 -0.132545 1.193109 0.451068 -0.053980 -1.646235
    26 1.312561 -0.000004 -0.000001 0.000002 0.000001 -0.439674
    27 0.729364 -0.000004 -0.000002 -0.000001 0.000002 -1.254700
    28 3.942293 0.050345 0.431044 0.166894 0.030023 -1.468535
    29 1.539103 -0.000002 0.000001 0.000002 0.000001 -1.012265
    30 1.196321 -0.000004 -0.000003 -0.000001 -0.000001 -1.406099
    31 3.883657 -0.050307 -0.431042 0.006922 0.081092 -1.415357
    32 1.719585 0.000008 0.000006 0.007542 -0.002583 -1.607092
    33 1.209185 0.000002 0.000006 0.000002 -0.004469 -0.216370
    34 3.726563 0.236694 -1.375000 -0.354423 0.038571 -0.532000
    35 1.354492 0.494629 0.077576 0.002691 0.152324 -0.776173
    36 1.099667 0.000002 0.000008 0.000004 -0.004212 -0.244311
    37 0.806021 -0.359832 -1.318335 1.221406 0.673630 -0.793552
    38 1.789785 -0.000011 -0.000004 -0.000001 0.076542 0.859696
    39 1.207001 -0.000001 -0.000006 0.000002 -0.000001 0.869771
    40 11.484729 0.001727 0.000005 -0.100727 0.010166 0.051731
    41 -5.537691 -18.309162 -5.108843 1.570796 0.054254 0.006907
    42 -1.689684 2.709811 4.387621 0.000000 0.000000 0.000000
    43 -0.448134 1.576904 5.279871 1.548904 0.070512 1.619361
    44 0.233417 0.631622 6.176952 1.559379 0.030232 1.564124
    45 -0.951339 0.466229 6.136072 1.483516 0.030232 1.564124
  time 13
    0 0.000000 -0.000006 0.000000 -1.570781 -1.391896 -1.570809
    1 -4.875000 -0.206787 1.455078 1.596636 -1.286515 2.942963
    2 6.028144 0.000002 0.000002 0.344286 -1.136601 -2.345730
    3 11.692554 0.000081 -0.000006 -0.000003 0.000010 -0.339084
    4 11.482105 0.000429 -0.000029 -0.907237 0.264523 -0.910996
    5 3.859703 -0.142420 -1.191975 -0.489340 0.032119 -1.110105
    6 1.312559 -0.000008 0.000003 0.000000 -0.000003 -0.439723
    7 0.729369 -0.000006 0.000001 0.000001 -0.000003 -0.244304
    8 3.942329 0.046753 -0.431443 -0.168270 -0.006277 -1.293931
    9 1.539093 0.000004 -0.000006 -0.000002 0.000006 -0.247791
    10 1.196321 -0.000004 0.000003 0.000001 -0.000007 -0.430811
    11 3.883690 -0.046782 0.431443 0.053532 0.070672 -1.261345
    12 1.719578 -0.000011 0.000009 0.000002 0.005514 -0.366480
    13 1.209181 -0.000004 0.000004 0.000000 0.003091 -0.216394
    14 3.859856 -0.137962 1.332466 0.384689 0.117685 -1.290614
    15 1.719433 0.000002 -0.000005 -0.000004 0.004079 -0.363004
    16 1.099674 -0.000004 0.000003 0.000005 0.002595 -0.244332
    17 0.806042 -0.348928 1.321258 -1.222684 -0.679216 -0.788820
    18 1.789783 0.000002 -0.000008 -0.000001 0.243466 0.228522
    19 1.207001 -0.000001 0.000002 0.000002 -0.000001 0.362862
    20 11.484137 0.000873 -0.000005 -0.448293 0.220013 -0.093703
    21 -3.501953 -3.718750 -9.851563 -1.668474 1.286518 2.942953
    22 6.028141 0.000000 -0.000001 1.191816 0.448045 -1.852562
    23 11.692556 0.000000 -0.000001 -0.000002 0.000000 -1.387522
    24 11.481203 0.000403 -0.000008 -2.053003 0.211930 0.217251
    25 3.859678 -0.132545 1.193109 0.451068 -0.053980 -1.646235
    26 1.312561 -0.000004 -0.000001 0.000002 0.000001 -0.439674
    27 0.729364 -0.000004 -0.000002 -0.000001 0.000002 -1.254700
    28 3.942293 0.050345 0.431044 0.166894 0.030023 -1.468535
    29 1.539103 -0.000002 0.000001 0.000002 0.000001 -1.012265
    30 1.196321 -0.000004 -0.000003 -0.000001 -0.000001 -1.406099
    31 3.883657 -0.050307 -0.431042 0.006922 0.081092 -1.415357
    32 1.719585 0.000008 0.000006 0.007542 -0.002583 -1.607092
    33 1.209185 0.000002 0.000006 0.000002 -0.004469 -0.216370
    34 3.726563 0.236694 -1.375000 -0.354423 0.038571 -0.532000
    35 1.354492 0.494629 0.077576 0.002691 0.152324 -0.776173
    36 1.099667 0.000002 0.000008 0.000004 -0.004212 -0.244311
    37 0.806021 -0.359832 -1.318335 1.221406 0.673630 -0.793552
    38 1.789785 -0.000011 -0.000004 -0.000001 0.076542 0.859696
    39 1.207001 -0.000001 -0.000006 0.000002 -0.000001 0.869771
    40 11.484729 0.001727 0.000005 -0.098138 0.010333 0.048938
    41 -5.537691 -18.309162 -5.108843 1.570816 0.036608 0.012775
    42 -1.689684 2.709811 4.387621 0.000000 0.000000 0.000000
    43 -0.448134 1.576904 5.279871 1.546579 0.052140 1.594085
    44 0.233417 0.631622 6.176952 1.552548 0.030232 1.564124
    45 -0.951339 0.466229 6.136072 1.511344 0.030232 1.564124
  time 14
    0 0.000000 -0.000006 0.000000 -1.570781 -1.391896 -1.570809
    1 -4.875000 -0.206787 1.455078 1.596636 -1.286515 2.942963
    2 6.028144 0.000002 0.000002 0.330293 -1.142239 -2.326224
    3 11.692554 0.000081 -0.000006 -0.000003 0.000010 -0.356980
    4 11.482105 0.000429 -0.000029 -0.905942 0.273107 -0.892825
    5 3.859703 -0.142420 -1.191975 -0.489340 0.032119 -1.110105
    6 1.312559 -0.000008 0.000003 0.000000 -0.000003 -0.439723
    7 0.729369 -0.000006 0.000001 0.000001 -0.000003 -0.244304
    8 3.942329 0.046753 -0.431443 -0.168270 -0.006277 -1.293931
    9 1.539093 0.000004 -0.000006 -0.000002 0.000006 -0.247791
    10 1.196321 -0.000004 0.000003 0.000001 -0.000007 -0.430811
    11 3.883690 -0.046782 0.431443 0.053532 0.070672 -1.261345
    12 1.719578 -0.000011 0.000009 0.000002 0.005514 -0.366480
    13 1.209181 -0.000004 0.000004 0.000000 0.003091 -0.216394
    14 3.859856 -0.137962 1.332466 0.384689 0.117685 -1.290614
    15 1.719433 0.000002 -0.000005 -0.000004 0.004079 -0.363004
    16 1.099674 -0.000004 0.000003 0.000005 0.002595 -0.244332
    17 0.806042 -0.348928 1.321258 -1.222684 -0.679216 -0.788820
    18 1.789783 0.000002 -0.000008 -0.000001 0.243466 0.228522
    19 1.207001 -0.000001 0.000002 0.000002 -0.000001 0.362862
    20 11.484137 0.000873 -0.000005 -0.448594 0.217136 -0.089605
    21 -3.501953 -3.718750 -9.851563 -1.668474 1.286518 2.942953
    22 6.028141 0.000000 -0.000001 1.190816 0.448561 -1.854033
    23 11.692556 0.000000 -0.000001 -0.000002 0.000000 -1.379672
    24 11.481203 0.000403 -0.000008 -2.042595 0.209690 0.207414
    25 3.859678 -0.132545 1.193109 0.451068 -0.053980 -1.646235
    26 1.312561 -0.000004 -0.000001 0.000002 0.000001 -0.439674
    27 0.729364 -0.000004 -0.000002 -0.000001 0.000002 -1.254700
    28 3.942293 0.050345 0.431044 0.166894 0.030023 -1.468535
    29 1.539103 -0.000002 0.000001 0.000002 0.000001 -1.012265
    30 1.196321 -0.000004 -0.000003 -0.000001 -0.000001 -1.406099
    31 3.883657 -0.050307 -0.431042 0.006922 0.081092 -1.415357
    32 1.719585 0.000008 0.000006 0.007542 -0.002583 -1.607092
    33 1.209185 0.000002 0.000006 0.000002 -0.004469 -0.216370
    34 3.726563 0.236694 -1.375000 -0.354423 0.038571 -0.532000
    35 1.354492 0.494629 0.077576 0.002691 0.152324 -0.776173
    36 1.099667 0.000002 0.000008 0.000004 -0.004212 -0.244311
    37 0.806021 -0.359832 -1.318335 1.221406 0.673630 -0.793552
    38 1.789785 -0.000011 -0.000004 -0.000001 0.076542 0.859696
    39 1.207001 -0.000001 -0.000006 0.000002 -0.000001 0.869771
    40 11.484729 0.001727 0.000005 -0.095993 0.010489 0.046601
    41 -5.537691 -18.309162 -5.108843 1.570776 0.021821 0.017676
    42 -1.689684 2.709811 4.387621 0.000000 0.000000 0.000000
    43 -0.448134 1.576904 5.279871 1.544997 0.036704 1.572969
    44 0.233417 0.631622 6.176952 1.546831 0.030232 1.564124
    45 -0.951339 0.466229 6.136072 1.534667 0.030232 1.564124
  time 15
    0 0.000000 -0.000006 0.000000 -1.570781 -1.391896 -1.570809
    1 -4.875000 -0.206787 1.455078 1.596636 -1.286515 2.942963
    2 6.028144 0.000002 0.000002 0.324596 -1.144569 -2.318204
    3 11.692554 0.000081 -0.000006 -0.000003 0.000010 -0.364245
    4 11.482105 0.000429 -0.000029 -0.905438 0.276711 -0.885346
    5 3.859703 -0.142420 -1.191975 -0.489340 0.032119 -1.110105
    6 1.312559 -0.000008 0.000003 0.000000 -0.000003 -0.439723
    7 0.729369 -0.000006 0.000001 0.000001 -0.000003 -0.244304
    8 3.942329 0.046753 -0.431443 -0.168270 -0.006277 -1.293931
    9 1.539093 0.000004 -0.000006 -0.000002 0.000006 -0.247791
    10 1.196321 -0.000004 0.000003 0.000001 -0.000007 -0.430811
    11 3.883690 -0.046782 0.431443 0.053532 0.070672 -1.261345
    12 1.719578 -0.000011 0.000009 0.000002 0.005514 -0.366480
    13 1.209181 -0.000004 0.000004 0.000000 0.003091 -0.216394
    14 3.859856 -0.137962 1.332466 0.384689 0.117685 -1.290614
    15 1.719433 0.000002 -0.000005 -0.000004 0.004079 -0.363004
    16 1.099674 -0.000004 0.000003 0.000005 0.002595 -0.244332
    17 0.806042 -0.348928 1.321258 -1.222684 -0.679216 -0.788820
    18 1.789783 0.000002 -0.000008 -0.000001 0.243466 0.228522
    19 1.207001 -0.000001 0.000002 0.000002 -0.000001 0.362862
    20 11.484137 0.000873 -0.000005 -0.448711 0.215950 -0.087891
    21 -3.501953 -3.718750 -9.851563 -1.668474 1.286518 2.942953
    22 6.028141 0.000000 -0.000001 1.190316 0.448795 -1.854726
    23 11.692556 0.000000 -0.000001 -0.000002 0.000000 -1.376367
    24 11.481203 0.000403 -0.000008 -2.038212 0.208810 0.203291
    25 3.859678 -0.132545 1.193109 0.451068 -0.053980 -1.646235
    26 1.312561 -0.000004 -0.000001 0.000002 0.000001 -0.439674
    27 0.729364 -0.000004 -0.000002 -0.000001 0.000002 -1.254700
    28 3.942293 0.050345 0.431044 0.166894 0.030023 -1.468535
    29 1.539103 -0.000002 0.000001 0.000002 0.000001 -1.012265
    30 1.196321 -0.000004 -0.000003 -0.000001 -0.000001 -1.406099
    31 3.883657 -0.050307 -0.431042 0.006922 0.081092 -1.415357
    32 1.719585 0.000008 0.000006 0.007542 -0.002583 -1.607092
    33 1.209185 0.000002 0.000006 0.000002 -0.004469 -0.216370
    34 3.726563 0.236694 -1.375000 -0.354423 0.038571 -0.532000
    35 1.354492 0.494629 0.077576 0.002691 0.152324 -0.776173
    36 1.099667 0.000002 0.000008 0.000004 -0.004212 -0.244311
    37 0.806021 -0.359832 -1.318335 1.221406 0.673630 -0.793552
    38 1.789785 -0.000011 -0.000004 -0.000001 0.076542 0.859696
    39 1.207001 -0.000001 -0.000006 0.000002 -0.000001 0.869771
    40 11.484729 0.001727 0.000005 -0.095106 0.010561 0.045619
    41 -5.537691 -18.309162 -5.108843 1.570735 0.015630 0.019678
    42 -1.689684 2.709811 4.387621 0.000000 0.000000 0.000000
    43 -0.448134 1.576904 5.279871 1.544434 0.030232 1.564124
    44 0.233417 0.631622 6.176952 1.544434 0.030232 1.564124
    45 -0.951339 0.466229 6.136072 1.544434 0.030232 1.564124
  time 16
    0 0.000000 -0.000006 0.000000 -1.570781 -1.391896 -1.570809
    1 -4.875000 -0.206787 1.455078 1.596636 -1.286515 2.942963
    2 6.028144 0.000002 0.000002 0.323877 -1.144201 -2.317997
    3 11.692554 0.000081 -0.000006 -0.000003 0.000010 -0.364378
    4 11.482105 0.000429 -0.000029 -0.910401 0.277951 -0.888328
    5 3.859703 -0.142420 -1.191975 -0.489340 0.032119 -1.110105
    6 1.312559 -0.000008 0.000003 0.000000 -0.000003 -0.439723
    7 0.729369 -0.000006 0.000001 0.000001 -0.000003 -0.244304
    8 3.942329 0.046753 -0.431443 -0.168270 -0.006277 -1.293931
    9 1.539093 0.000004 -0.000006 -0.000002 0.000006 -0.247791
    10 1.196321 -0.000004 0.000003 0.000001 -0.000007 -0.430811
    11 3.883690 -0.046782 0.431443 0.053532 0.070672 -1.261365
    12 1.719578 -0.000011 0.000009 0.000002 0.005514 -0.366480
    13 1.209181 -0.000004 0.000004 0.000000 0.003091 -0.216394
    14 3.859856 -0.137962 1.332466 0.384689 0.117685 -1.290614
    15 1.719433 0.000002 -0.000005 -0.000004 0.004079 -0.363004
    16 1.099674 -0.000004 0.000003 0.000005 0.002595 -0.244332
    17 0.806042 -0.348928 1.321258 -1.222684 -0.679216 -0.788820
    18 1.789783 0.000002 -0.000008 -0.000001 0.243466 0.228522
    19 1.207001 -0.000001 0.000002 0.000002 -0.000001 0.362862
    20 11.484137 0.000873 -0.000005 -0.449209 0.216932 -0.087591
    21 -3.501953 -3.718750 -9.851563 -1.668474 1.286518 2.942953
    22 6.028141 0.000000 -0.000001 1.189066 0.447294 -1.856110
    23 11.692556 0.000000 -0.000001 -0.000002 0.000000 -1.379495
    24 11.481203 0.000403 -0.000008 -2.039729 0.214329 0.207136
    25 3.859678 -0.132545 1.193109 0.451068 -0.053980 -1.646235
    26 1.312561 -0.000004 -0.000001 0.000002 0.000001 -0.439674
    27 0.729364 -0.000004 -0.000002 -0.000001 0.000002 -1.254700
    28 3.942293 0.050345 0.431044 0.166894 0.030023 -1.468535
    29 1.539103 -0.000002 0.000001 0.000002 0.000001 -1.012265
    30 1.196321 -0.000004 -0.000003 -0.000001 -0.000001 -1.406099
    31 3.883657 -0.050307 -0.431042 0.006922 0.081092 -1.415357
    32 1.719585 0.000008 0.000006 0.007542 -0.002583 -1.607092
    33 1.209185 0.000002 0.000006 0.000002 -0.004469 -0.216370
    34 3.726563 0.236694 -1.375000 -0.354423 0.038571 -0.532000
    35 1.354492 0.494629 0.077576 0.002691 0.152324 -0.776173
    36 1.099667 0.000002 0.000008 0.000004 -0.004212 -0.244311
    37 0.806021 -0.359832 -1.318335 1.221406 0.673630 -0.793552
    38 1.789785 -0.000011 -0.000004 -0.000001 0.076542 0.859696
    39 1.207001 -0.000001 -0.000006 0.000002 -0.000001 0.869771
    40 11.484729 0.001727 0.000005 -0.095502 0.011472 0.046637
    41 -5.537691 -18.309162 -5.108843 1.573874 0.016309 0.015122
    42 -1.689684 2.709811 4.387621 0.000000 0.000000 0.000000
    43 -0.448134 1.576904 5.279871 1.544434 0.036907 1.563956
    44 0.233417 0.631622 6.176952 1.549384 0.034666 1.561176
    45 -0.951339 0.466229 6.136072 1.534954 0.033600 1.558803
  time 17
    0 0.000000 -0.000006 0.000000 -1.570781 -1.391896 -1.570809
    1 -4.875000 -0.206787 1.455078 1.596636 -1.286515 2.942963
    2 6.028144 0.000002 0.000002 0.322328 -1.143506 -2.317428
    3 11.692554 0.000081 -0.000006 -0.000003 0.000010 -0.364777
    4 11.482105 0.000429 -0.000029 -0.921333 0.280648 -0.894890
    5 3.859703 -0.142420 -1.191975 -0.489340 0.032119 -1.110105
    6 1.312559 -0.000008 0.000003 0.000000 -0.000003 -0.439723
    7 0.729369 -0.000006 0.000001 0.000001 -0.000003 -0.244304
    8 3.942329 0.046753 -0.431443 -0.168270 -0.006277 -1.293931
    9 1.539093 0.000004 -0.000006 -0.000002 0.000006 -0.247791
    10 1.196321 -0.000004 0.000003 0.000001 -0.000007 -0.430811
    11 3.883690 -0.046782 0.431443 0.053532 0.070672 -1.261345
    12 1.719578 -0.000011 0.000009 0.000002 0.005514 -0.366480
    13 1.209181 -0.000004 0.000004 0.000000 0.003091 -0.216394
    14 3.859856 -0.137962 1.332466 0.384689 0.117685 -1.290614
    15 1.719433 0.000002 -0.000005 -0.000004 0.004079 -0.363004
    16 1.099674 -0.000004 0.000003 0.000005 0.002595 -0.244332
    17 0.806042 -0.348928 1.321258 -1.222684 -0.679216 -0.788820
    18 1.789783 0.000002 -0.000008 -0.000001 0.243466 0.228522
    19 1.207001 -0.000001 0.000002 0.000002 -0.000001 0.362862
    20 11.484137 0.000873 -0.000005 -0.450322 0.219102 -0.086932
    21 -3.501953 -3.718750 -9.851563 -1.668474 1.286518 2.942953
    22 6.028141 0.000000 -0.000001 1.186316 0.444057 -1.859140
    23 11.692556 0.000000 -0.000001 -0.000002 0.000000 -1.386283
    24 11.481203 0.000403 -0.000008 -2.043143 0.226593 0.215554
    25 3.859678 -0.132545 1.193109 0.451068 -0.053980 -1.646235
    26 1.312561 -0.000004 -0.000001 0.000002 0.000001 -0.439674
    27 0.729364 -0.000004 -0.000002 -0.000001 0.000002 -1.254700
    28 3.942293 0.050345 0.431044 0.166894 0.030023 -1.468535
    29 1.539103 -0.000002 0.000001 0.000002 0.000001 -1.012265
    30 1.196321 -0.000004 -0.000003 -0.000001 -0.000001 -1.406099
    31 3.883657 -0.050307 -0.431042 0.006922 0.081092 -1.415357
    32 1.719585 0.000008 0.000006 0.007542 -0.002583 -1.607092
    33 1.209185 0.000002 0.000006 0.000002 -0.004469 -0.216370
    34 3.726563 0.236694 -1.375000 -0.354423 0.038571 -0.532000
    35 1.354492 0.494629 0.077576 0.002691 0.152324 -0.776173
    36 1.099667 0.000002 0.000008 0.000004 -0.004212 -0.244311
    37 0.806021 -0.359832 -1.318335 1.221406 0.673630 -0.793552
    38 1.789785 -0.000011 -0.000004 -0.000001 0.076542 0.859696
    39 1.207001 -0.000001 -0.000006 0.000002 -0.000001 0.869771
    40 11.484729 0.001727 0.000005 -0.096389 0.013509 0.048867
    41 -5.537691 -18.309162 -5.108843 1.580784 0.017872 0.005112
    42 -1.689684 2.709811 4.387621 0.000000 0.000000 0.000000
    43 -0.448134 1.576904 5.279871 1.544410 0.052859 1.563537
    44 0.233417 0.631622 6.176952 1.561164 0.045333 1.554201
    45 -0.951339 0.466229 6.136072 1.512255 0.041450 1.545967
  time 18
    0 0.000000 -0.000006 0.000000 -1.570781 -1.391896 -1.570809
    1 -4.875000 -0.206787 1.455078 1.596636 -1.286515 2.942963
    2 6.028144 0.000002 0.000002 0.320724 -1.142771 -2.316807
    3 11.692554 0.000081 -0.000006 -0.000003 0.000010 -0.365220
    4 11.482105 0.000429 -0.000029 -0.932337 0.283267 -0.901451
    5 3.859703 -0.142420 -1.191975 -0.489340 0.032119 -1.110105
    6 1.312559 -0.000008 0.000003 0.000000 -0.000003 -0.439723
    7 0.729369 -0.000006 0.000001 0.000001 -0.000003 -0.244304
    8 3.942329 0.046753 -0.431443 -0.168270 -0.006277 -1.293931
    9 1.539093 0.000004 -0.000006 -0.000002 0.000006 -0.247791
    10 1.196321 -0.000004 0.000003 0.000001 -0.000007 -0.430811
    11 3.883690 -0.046782 0.431443 0.053532 0.070672 -1.261345
    12 1.719578 -0.000011 0.000009 0.000002 0.005514 -0.366480
    13 1.209181 -0.000004 0.000004 0.000000 0.003091 -0.216394
    14 3.859856 -0.137962 1.332466 0.384689 0.117685 -1.290614
    15 1.719433 0.000002 -0.000005 -0.000004 0.004079 -0.363004
    16 1.099674 -0.000004 0.000003 0.000005 0.002595 -0.244332
    17 0.806042 -0.348928 1.321258 -1.222684 -0.679216 -0.788820
    18 1.789783 0.000002 -0.000008 -0.000001 0.243466 0.228522
    19 1.207001 -0.000001 0.000002 0.000002 -0.000001 0.362862
    20 11.484137 0.000873 -0.000005 -0.451434 0.221271 -0.086261
    21 -3.501953 -3.718750 -9.851563 -1.668474 1.286518 2.942953
    22 6.028141 0.000000 -0.000001 1.183504 0.440915 -1.862342
    23 11.692556 0.000000 -0.000001 -0.000002 0.000000 -1.392834
    24 11.481203 0.000403 -0.000008 -2.046472 0.238910 0.223799
    25 3.859678 -0.132545 1.193109 0.451068 -0.053980 -1.646235
    26 1.312561 -0.000004 -0.000001 0.000002 0.000001 -0.439674
    27 0.729364 -0.000004 -0.000002 -0.000001 0.000002 -1.254700
    28 3.942293 0.050345 0.431044 0.166894 0.030023 -1.468535
    29 1.539103 -0.000002 0.000001 0.000002 0.000001 -1.012265
    30 1.196321 -0.000004 -0.000003 -0.000001 -0.000001 -1.406099
    31 3.883657 -0.050307 -0.431042 0.006922 0.081092 -1.415357
    32 1.719585 0.000008 0.000006 0.007542 -0.002583 -1.607092
    33 1.209185 0.000002 0.000006 0.000002 -0.004469 -0.216370
    34 3.726563 0.236694 -1.375000 -0.354423 0.038571 -0.532000
    35 1.354492 0.494629 0.077576 0.002691 0.152324 -0.776173
    36 1.099667 0.000002 0.000008 0.000004 -0.004212 -0.244311
    37 0.806021 -0.359832 -1.318335 1.221406 0.673630 -0.793552
    38 1.789785 -0.000011 -0.000004 -0.000001 0.076542 0.859696
    39 1.207001 -0.000001 -0.000006 0.000002 -0.000001 0.869771
    40 11.484729 0.001727 0.000005 -0.097288 0.015559 0.051060
    41 -5.537691 -18.309162 -5.108843 1.587673 0.019517 -0.004967
    42 -1.689684 2.709811 4.387621 0.000000 0.000000 0.000000
    43 -0.448134 1.576904 5.279871 1.544386 0.071902 1.563033
    44 0.233417 0.631622 6.176952 1.575126 0.058168 1.546039
    45 -0.951339 0.466229 6.136072 1.485026 0.050438 1.530423
  time 19
    0 0.000000 -0.000006 0.000000 -1.570781 -1.391896 -1.570809
    1 -4.875000 -0.206787 1.455078 1.596636 -1.286515 2.942963
    2 6.028144 0.000002 0.000002 0.320005 -1.142444 -2.316548
    3 11.692554 0.000081 -0.000006 -0.000003 0.000010 -0.365441
    4 11.482105 0.000429 -0.000029 -0.937372 0.284429 -0.904434
    5 3.859703 -0.142420 -1.191975 -0.489340 0.032119 -1.110105
    6 1.312559 -0.000008 0.000003 0.000000 -0.000003 -0.439723
    7 0.729369 -0.000006 0.000001 0.000001 -0.000003 -0.244304
    8 3.942329 0.046753 -0.431443 -0.168270 -0.006277 -1.293931
    9 1.539093 0.000004 -0.000006 -0.000002 0.000006 -0.247791
    10 1.196321 -0.000004 0.000003 0.000001 -0.000007 -0.430811
    11 3.883690 -0.046782 0.431443 0.053532 0.070672 -1.261345
    12 1.719578 -0.000011 0.000009 0.000002 0.005514 -0.366480
    13 1.209181 -0.000004 0.000004 0.000000 0.003091 -0.216394
    14 3.859856 -0.137962 1.332466 0.384689 0.117685 -1.290614
    15 1.719433 0.000002 -0.000005 -0.000004 0.004079 -0.363004
    16 1.099674 -0.000004 0.000003 0.000005 0.002595 -0.244332
    17 0.806042 -0.348928 1.321258 -1.222684 -0.679216 -0.788820
    18 1.789783 0.000002 -0.000008 -0.000001 0.243466 0.228522
    19 1.207001 -0.000001 0.000002 0.000002 -0.000001 0.362862
    20 11.484137 0.000873 -0.000005 -0.451932 0.222242 -0.085961
    21 -3.501953 -3.718750 -9.851563 -1.668474 1.286518 2.942953
    22 6.028141 0.000000 -0.000001 1.182129 0.439507 -1.863814
    23 11.692556 0.000000 -0.000001 -0.000002 0.000000 -1.395786
    24 11.481203 0.000403 -0.000008 -2.048031 0.244562 0.227540
    25 3.859678 -0.132545 1.193109 0.451068 -0.053980 -1.646235
    26 1.312561 -0.000004 -0.000001 0.000002 0.000001 -0.439674
    27 0.729364 -0.000004 -0.000002 -0.000001 0.000002 -1.254700
    28 3.942293 0.050345 0.431044 0.166894 0.030023 -1.468535
    29 1.539103 -0.000002 0.000001 0.000002 0.000001 -1.012265
    30 1.196321 -0.000004 -0.000003 -0.000001 -0.000001 -1.406099
    31 3.883657 -0.050307 -0.431042 0.006922 0.081092 -1.415357
    32 1.719585 0.000008 0.000006 0.007542 -0.002583 -1.607092
    33 1.209185 0.000002 0.000006 0.000002 -0.004469 -0.216370
    34 3.726563 0.236694 -1.375000 -0.354423 0.038571 -0.532000
    35 1.354492 0.494629 0.077576 0.002691 0.152324 -0.776173
    36 1.099667 0.000002 0.000008 0.000004 -0.004212 -0.244311
    37 0.806021 -0.359832 -1.318335 1.221406 0.673630 -0.793552
    38 1.789785 -0.000011 -0.000004 -0.000001 0.076542 0.859696
    39 1.207001 -0.000001 -0.000006 0.000002 -0.000001 0.869771
    40 11.484729 0.001727 0.000005 -0.097695 0.016505 0.052054
    41 -5.537691 -18.309162 -5.108843 1.590792 0.020278 -0.009523
    42 -1.689684 2.709811 4.387621 0.000000 0.000000 0.000000
    43 -0.448134 1.576904 5.279871 1.544350 0.087854 1.562602
    44 0.233417 0.631622 6.176952 1.586752 0.069002 1.539340
    45 -0.951339 0.466229 6.136072 1.462088 0.057641 1.517204
  time 20
    0 0.000000 -0.000006 0.000000 -1.570781 -1.391896 -1.570809
    1 -4.875000 -0.206787 1.455078 1.596636 -1.286515 2.942963
    2 6.028144 0.000002 0.000002 0.317350 -1.142771 -2.313702
    3 11.692554 0.000081 -0.000006 -0.000003 0.000010 -0.367922
    4 11.482105 0.000429 -0.000029 -0.935430 0.283306 -0.900350
    5 3.859703 -0.142420 -1.191975 -0.489340 0.032119 -1.110105
    6 1.312559 -0.000008 0.000003 0.000000 -0.000003 -0.439723
    7 0.729369 -0.000006 0.000001 0.000001 -0.000003 -0.244304
    8 3.942329 0.046753 -0.431443 -0.168270 -0.006277 -1.293931
    9 1.539093 0.000004 -0.000006 -0.000002 0.000006 -0.247791
    10 1.196321 -0.000004 0.000003 0.000001 -0.000007 -0.430811
    11 3.883690 -0.046782 0.431443 0.053532 0.070672 -1.261345
    12 1.719578 -0.000011 0.000009 0.000002 0.005514 -0.366480
    13 1.209181 -0.000004 0.000004 0.000000 0.003091 -0.216394
    14 3.859856 -0.137962 1.332466 0.384689 0.117685 -1.290614
    15 1.719433 0.000002 -0.000005 -0.000004 0.004079 -0.363004
    16 1.099674 -0.000004 0.000003 0.000005 0.002595 -0.244332
    17 0.806042 -0.348928 1.321258 -1.222684 -0.679216 -0.788820
    18 1.789783 0.000002 -0.000008 -0.000001 0.243466 0.228522
    19 1.207001 -0.000001 0.000002 0.000002 -0.000001 0.362862
    20 11.484137 0.000873 -0.000005 -0.452076 0.221211 -0.085866
    21 -3.501953 -3.718750 -9.851563 -1.668474 1.286518 2.942953
    22 6.028141 0.000000 -0.000001 1.182754 0.440117 -1.863208
    23 11.692556 0.000000 -0.000001 -0.000002 0.000000 -1.393779
    24 11.481203 0.000403 -0.000008 -2.047441 0.242002 0.225184
    25 3.859678 -0.132545 1.193109 0.451068 -0.053980 -1.646235
    26 1.312561 -0.000004 -0.000001 0.000002 0.000001 -0.439674
    27 0.729364 -0.000004 -0.000002 -0.000001 0.000002 -1.254700
    28 3.942293 0.050345 0.431044 0.166894 0.030023 -1.468535
    29 1.539103 -0.000002 0.000001 0.000002 0.000001 -1.012265
    30 1.196321 -0.000004 -0.000003 -0.000001 -0.000001 -1.406099
    31 3.883657 -0.050307 -0.431042 0.006922 0.081092 -1.415357
    32 1.719585 0.000008 0.000006 0.007542 -0.002583 -1.607092
    33 1.209185 0.000002 0.000006 0.000002 -0.004469 -0.216370
    34 3.726563 0.236694 -1.375000 -0.354423 0.038571 -0.532000
    35 1.354492 0.494629 0.077576 0.002691 0.152324 -0.776173
    36 1.099667 0.000002 0.000008 0.000004 -0.004212 -0.244311
    37 0.806021 -0.359832 -1.318335 1.221406 0.673630 -0.793552
    38 1.789785 -0.000011 -0.000004 -0.000001 0.076542 0.859696
    39 1.207001 -0.000001 -0.000006 0.000002 -0.000001 0.869771
    40 11.484729 0.001727 0.000005 -0.097527 0.016110 0.051467
    41 -5.537691 -18.309162 -5.108843 1.590833 0.020176 -0.006417
    42 -1.689684 2.709811 4.387621 0.000000 0.000000 0.000000
    43 -0.448134 1.576904 5.279871 1.544338 0.094541 1.562422
    44 0.233417 0.631622 6.176952 1.591617 0.073580 1.536559
    45 -0.951339 0.466229 6.136072 1.452452 0.060565 1.511608
  time 21
    0 0.000000 -0.000006 0.000000 -1.570781 -1.391896 -1.570809
    1 -4.875000 -0.206787 1.455078 1.596636 -1.286515 2.942963
    2 6.028144 0.000002 0.000002 0.310824 -1.143588 -2.306717
    3 11.692554 0.000081 -0.000006 -0.000003 0.000010 -0.374123
    4 11.482105 0.000429 -0.000029 -0.930899 0.280766 -0.890531
    5 3.859703 -0.142420 -1.191975 -0.489340 0.032119 -1.110105
    6 1.312559 -0.000008 0.000003 0.000000 -0.000003 -0.439723
    7 0.729369 -0.000006 0.000001 0.000001 -0.000003 -0.244304
    8 3.942329 0.046753 -0.431443 -0.168270 -0.006277 -1.293931
    9 1.539093 0.000004 -0.000006 -0.000002 0.000006 -0.247791
    10 1.196321 -0.000004 0.000003 0.000001 -0.000007 -0.430811
    11 3.883690 -0.046782 0.431443 0.053532 0.070672 -1.261345
    12 1.719578 -0.000011 0.000009 0.000002 0.005514 -0.366480
    13 1.209181 -0.000004 0.000004 0.000000 0.003091 -0.216394
    14 3.859856 -0.137962 1.332466 0.384689 0.117685 -1.290614
    15 1.719433 0.000002 -0.000005 -0.000004 0.004079 -0.363004
    16 1.099674 -0.000004 0.000003 0.000005 0.002595 -0.244332
    17 0.806042 -0.348928 1.321258 -1.222684 -0.679216 -0.788820
    18 1.789783 0.000002 -0.000008 -0.000001 0.243466 0.228522
    19 1.207001 -0.000001 0.000002 0.000002 -0.000001 0.362862
    20 11.484137 0.000873 -0.000005 -0.452390 0.218718 -0.085614
    21 -3.501953 -3.718750 -9.851563 -1.668474 1.286518 2.942953
    22 6.028141 0.000000 -0.000001 1.184004 0.441618 -1.861737
    23 11.692556 0.000000 -0.000001 -0.000002 0.000000 -1.388998
    24 11.481203 0.000403 -0.000008 -2.045924 0.236084 0.219572
    25 3.859678 -0.132545 1.193109 0.451068 -0.053980 -1.646235
    26 1.312561 -0.000004 -0.000001 0.000002 0.000001 -0.439674
    27 0.729364 -0.000004 -0.000002 -0.000001 0.000002 -1.254700
    28 3.942293 0.050345 0.431044 0.166894 0.030023 -1.468535
    29 1.539103 -0.000002 0.000001 0.000002 0.000001 -1.012265
    30 1.196321 -0.000004 -0.000003 -0.000001 -0.000001 -1.406099
    31 3.883657 -0.050307 -0.431042 0.006922 0.081092 -1.415357
    32 1.719585 0.000008 0.000006 0.007542 -0.002583 -1.607092
    33 1.209185 0.000002 0.000006 0.000002 -0.004469 -0.216370
    34 3.726563 0.236694 -1.375000 -0.354423 0.038571 -0.532000
    35 1.354492 0.494629 0.077576 0.002691 0.152324 -0.776173
    36 1.099667 0.000002 0.000008 0.000004 -0.004212 -0.244311
    37 0.806021 -0.359832 -1.318335 1.221406 0.673630 -0.793552
    38 1.789785 -0.000011 -0.000004 -0.000001 0.076542 0.859696
    39 1.207001 -0.000001 -0.000006 0.000002 -0.000001 0.869771
    40 11.484729 0.001727 0.000005 -0.097096 0.015175 0.050101
    41 -5.537691 -18.309162 -5.108843 1.590874 0.019785 0.000901
    42 -1.689684 2.709811 4.387621 0.000000 0.000000 0.000000
    43 -0.448134 1.576904 5.279871 1.544338 0.092863 1.562470
    44 0.233417 0.631622 6.176952 1.591725 0.069062 1.539436
    45 -0.951339 0.466229 6.136072 1.452908 0.057413 1.517084
  time 22
    0 0.000000 -0.000006 0.000000 -1.570781 -1.391896 -1.570809
    1 -4.875000 -0.206787 1.455078 1.596636 -1.286515 2.942963
    2 6.028144 0.000002 0.000002 0.303246 -1.144569 -2.298542
    3 11.692554 0.000081 -0.000006 -0.000003 0.000010 -0.381344
    4 11.482105 0.000429 -0.000029 -0.925505 0.277951 -0.878738
    5 3.859703 -0.142420 -1.191975 -0.489340 0.032119 -1.110105
    6 1.312559 -0.000008 0.000003 0.000000 -0.000003 -0.439723
    7 0.729369 -0.000006 0.000001 0.000001 -0.000003 -0.244304
    8 3.942329 0.046753 -0.431443 -0.168270 -0.006277 -1.293931
    9 1.539093 0.000004 -0.000006 -0.000002 0.000006 -0.247791
    10 1.196321 -0.000004 0.000003 0.000001 -0.000007 -0.430811
    11 3.883690 -0.046782 0.431443 0.053532 0.070672 -1.261345
    12 1.719578 -0.000011 0.000009 0.000002 0.005514 -0.366480
    13 1.209181 -0.000004 0.000004 0.000000 0.003091 -0.216394
    14 3.859856 -0.137962 1.332466 0.384689 0.117685 -1.290614
    15 1.719433 0.000002 -0.000005 -0.000004 0.004079 -0.363004
    16 1.099674 -0.000004 0.000003 0.000005 0.002595 -0.244332
    17 0.806042 -0.348928 1.321258 -1.222684 -0.679216 -0.788820
    18 1.789783 0.000002 -0.000008 -0.000001 0.243466 0.228522
    19 1.207001 -0.000001 0.000002 0.000002 -0.000001 0.362862
    20 11.484137 0.000873 -0.000005 -0.452730 0.215758 -0.085230
    21 -3.501953 -3.718750 -9.851563 -1.668474 1.286518 2.942953
    22 6.028141 0.000000 -0.000001 1.185441 0.443401 -1.860179
    23 11.692556 0.000000 -0.000001 -0.000002 0.000000 -1.383095
    24 11.481203 0.000403 -0.000008 -2.043817 0.229099 0.212644
    25 3.859678 -0.132545 1.193109 0.451068 -0.053980 -1.646235
    26 1.312561 -0.000004 -0.000001 0.000002 0.000001 -0.439674
    27 0.729364 -0.000004 -0.000002 -0.000001 0.000002 -1.254700
    28 3.942293 0.050345 0.431044 0.166894 0.030023 -1.468535
    29 1.539103 -0.000002 0.000001 0.000002 0.000001 -1.012265
    30 1.196321 -0.000004 -0.000003 -0.000001 -0.000001 -1.406099
    31 3.883657 -0.050307 -0.431042 0.006922 0.081092 -1.415357
    32 1.719585 0.000008 0.000006 0.007542 -0.002583 -1.607092
    33 1.209185 0.000002 0.000006 0.000002 -0.004469 -0.216370
    34 3.726563 0.236694 -1.375000 -0.354423 0.038571 -0.532000
    35 1.354492 0.494629 0.077576 0.002691 0.152324 -0.776173
    36 1.099667 0.000002 0.000008 0.000004 -0.004212 -0.244311
    37 0.806021 -0.359832 -1.318335 1.221406 0.673630 -0.793552
    38 1.789785 -0.000011 -0.000004 -0.000001 0.076542 0.859696
    39 1.207001 -0.000001 -0.000006 0.000002 -0.000001 0.869771
    40 11.484729 0.001727 0.000005 -0.096533 0.014108 0.048399
    41 -5.537691 -18.309162 -5.108843 1.590914 0.018962 0.009668
    42 -1.689684 2.709811 4.387621 0.000000 0.000000 0.000000
    43 -0.448134 1.576904 5.279871 1.544350 0.088273 1.562590
    44 0.233417 0.631622 6.176952 1.591545 0.058312 1.546267
    45 -0.951339 0.466229 6.136072 1.454562 0.049923 1.530124
  time 23
    0 0.000000 -0.000006 0.000000 -1.570781 -1.391896 -1.570809
    1 -4.875000 -0.206787 1.455078 1.596636 -1.286515 2.942963
    2 6.028144 0.000002 0.000002 0.296609 -1.145590 -2.291143
    3 11.692554 0.000081 -0.000006 -0.000003 0.000010 -0.387855
    4 11.482105 0.000429 -0.000029 -0.921046 0.276080 -0.868460
    5 3.859703 -0.142420 -1.191975 -0.489340 0.032119 -1.110105
    6 1.312559 -0.000008 0.000003 0.000000 -0.000003 -0.439723
    7 0.729369 -0.000006 0.000001 0.000001 -0.000003 -0.244304
    8 3.942329 0.046753 -0.431443 -0.168270 -0.006277 -1.293931
    9 1.539093 0.000004 -0.000006 -0.000002 0.000006 -0.247791
    10 1.196321 -0.000004 0.000003 0.000001 -0.000007 -0.430811
    11 3.883690 -0.046782 0.431443 0.053532 0.070672 -1.261345
    12 1.719578 -0.000011 0.000009 0.000002 0.005514 -0.366480
    13 1.209181 -0.000004 0.000004 0.000000 0.003091 -0.216394
    14 3.859856 -0.137962 1.332466 0.384689 0.117685 -1.290614
    15 1.719433 0.000002 -0.000005 -0.000004 0.004079 -0.363004
    16 1.099674 -0.000004 0.000003 0.000005 0.002595 -0.244332
    17 0.806042 -0.348928 1.321258 -1.222684 -0.679216 -0.788820
    18 1.789783 0.000002 -0.000008 -0.000001 0.243466 0.228522
    19 1.207001 -0.000001 0.000002 0.000002 -0.000001 0.362862
    20 11.484137 0.000873 -0.000005 -0.452979 0.213253 -0.084739
    21 -3.501953 -3.718750 -9.851563 -1.668474 1.286518 2.942953
    22 6.028141 0.000000 -0.000001 1.186566 0.444902 -1.858967
    23 11.692556 0.000000 -0.000001 -0.000002 0.000000 -1.377842
    24 11.481203 0.000403 -0.000008 -2.041668 0.223314 0.206548
    25 3.859678 -0.132545 1.193109 0.451068 -0.053980 -1.646235
    26 1.312561 -0.000004 -0.000001 0.000002 0.000001 -0.439674
    27 0.729364 -0.000004 -0.000002 -0.000001 0.000002 -1.254700
    28 3.942293 0.050345 0.431044 0.166894 0.030023 -1.468535
    29 1.539103 -0.000002 0.000001 0.000002 0.000001 -1.012265
    30 1.196321 -0.000004 -0.000003 -0.000001 -0.000001 -1.406099
    31 3.883657 -0.050307 -0.431042 0.006922 0.081092 -1.415357
    32 1.719585 0.000008 0.000006 0.007542 -0.002583 -1.607092
    33 1.209185 0.000002 0.000006 0.000002 -0.004469 -0.216370
    34 3.726563 0.236694 -1.375000 -0.354423 0.038571 -0.532000
    35 1.354492 0.494629 0.077576 0.002691 0.152324 -0.776173
    36 1.099667 0.000002 0.000008 0.000004 -0.004212 -0.244311
    37 0.806021 -0.359832 -1.318335 1.221406 0.673630 -0.793552
    38 1.789785 -0.000011 -0.000004 -0.000001 0.076542 0.859696
    39 1.207001 -0.000001 -0.000006 0.000002 -0.000001 0.869771
    40 11.484729 0.001727 0.000005 -0.095981 0.013234 0.046901
    41 -5.537691 -18.309162 -5.108843 1.590874 0.017564 0.017055
    42 -1.689684 2.709811 4.387621 0.000000 0.000000 0.000000
    43 -0.448134 1.576904 5.279871 1.544362 0.081418 1.562782
    44 0.233417 0.631622 6.176952 1.590287 0.045476 1.554416
    45 -0.951339 0.466229 6.136072 1.457845 0.040946 1.545680
  time 24
    0 0.000000 -0.000006 0.000000 -1.570781 -1.391896 -1.570809
    1 -4.875000 -0.206787 1.455078 1.596636 -1.286515 2.942963
    2 6.028144 0.000002 0.000002 0.293180 -1.146489 -2.286849
    3 11.692554 0.000081 -0.000006 -0.000003 0.000010 -0.391621
    4 11.482105 0.000429 -0.000029 -0.919319 0.276376 -0.863183
    5 3.859703 -0.142420 -1.191975 -0.489340 0.032119 -1.110105
    6 1.312559 -0.000008 0.000003 0.000000 -0.000003 -0.439723
    7 0.729369 -0.000006 0.000001 0.000001 -0.000003 -0.244304
    8 3.942329 0.046753 -0.431443 -0.168270 -0.006277 -1.293931
    9 1.539093 0.000004 -0.000006 -0.000002 0.000006 -0.247791
    10 1.196321 -0.000004 0.000003 0.000001 -0.000007 -0.430811
    11 3.883690 -0.046782 0.431443 0.053532 0.070672 -1.261345
    12 1.719578 -0.000011 0.000009 0.000002 0.005514 -0.366480
    13 1.209181 -0.000004 0.000004 0.000000 0.003091 -0.216394
    14 3.859856 -0.137962 1.332466 0.384689 0.117685 -1.290614
    15 1.719433 0.000002 -0.000005 -0.000004 0.004079 -0.363004
    16 1.099674 -0.000004 0.000003 0.000005 0.002595 -0.244332
    17 0.806042 -0.348928 1.321258 -1.222684 -0.679216 -0.788820
    18 1.789783 0.000002 -0.000008 -0.000001 0.243466 0.228522
    19 1.207001 -0.000001 0.000002 0.000002 -0.000001 0.362862
    20 11.484137 0.000873 -0.000005 -0.453058 0.212115 -0.084152
    21 -3.501953 -3.718750 -9.851563 -1.668474 1.286518 2.942953
    22 6.028141 0.000000 -0.000001 1.186816 0.445512 -1.858707
    23 11.692556 0.000000 -0.000001 -0.000002 0.000000 -1.375186
    24 11.481203 0.000403 -0.000008 -2.039729 0.221021 0.203326
    25 3.859678 -0.132545 1.193109 0.451068 -0.053980 -1.646235
    26 1.312561 -0.000004 -0.000001 0.000002 0.000001 -0.439674
    27 0.729364 -0.000004 -0.000002 -0.000001 0.000002 -1.254700
    28 3.942293 0.050345 0.431044 0.166894 0.030023 -1.468535
    29 1.539103 -0.000002 0.000001 0.000002 0.000001 -1.012265
    30 1.196321 -0.000004 -0.000003 -0.000001 -0.000001 -1.406099
    31 3.883657 -0.050307 -0.431042 0.006922 0.081092 -1.415357
    32 1.719585 0.000008 0.000006 0.007542 -0.002583 -1.607092
    33 1.209185 0.000002 0.000006 0.000002 -0.004469 -0.216370
    34 3.726563 0.236694 -1.375000 -0.354423 0.038571 -0.532000
    35 1.354492 0.494629 0.077576 0.002691 0.152324 -0.776173
    36 1.099667 0.000002 0.000008 0.000004 -0.004212 -0.244311
    37 0.806021 -0.359832 -1.318335 1.221406 0.673630 -0.793552
    38 1.789785 -0.000011 -0.000004 -0.000001 0.076542 0.859696
    39 1.207001 -0.000001 -0.000006 0.000002 -0.000001 0.869771
    40 11.484729 0.001727 0.000005 -0.095562 0.012946 0.046134
    41 -5.537691 -18.309162 -5.108843 1.590711 0.015445 0.020092
    42 -1.689684 2.709811 4.387621 0.000000 0.000000 0.000000
    43 -0.448134 1.576904 5.279871 1.544386 0.072969 1.562997
    44 0.233417 0.631622 6.176952 1.587291 0.034726 1.561260
    45 -0.951339 0.466229 6.136072 1.463322 0.033408 1.558683
  time 25
    0 0.000000 -0.000006 0.000000 -1.570781 -1.391896 -1.570809
    1 -4.875000 -0.206787 1.455078 1.596636 -1.286515 2.942963
    2 6.028144 0.000002 0.000002 0.295060 -1.147184 -2.287780
    3 11.692554 0.000081 -0.000006 -0.000003 0.000010 -0.390868
    4 11.482105 0.000429 -0.000029 -0.919463 0.279034 -0.864605
    5 3.859703 -0.142420 -1.191975 -0.489340 0.032119 -1.110105
    6 1.312559 -0.000008 0.000003 0.000000 -0.000003 -0.439723
    7 0.729369 -0.000006 0.000001 0.000001 -0.000003 -0.244304
    8 3.942329 0.046753 -0.431443 -0.168270 -0.006277 -1.293931
    9 1.539093 0.000004 -0.000006 -0.000002 0.000006 -0.247791
    10 1.196321 -0.000004 0.000003 0.000001 -0.000007 -0.430811
    11 3.883690 -0.046782 0.431443 0.053532 0.070672 -1.261345
    12 1.719578 -0.000011 0.000009 0.000002 0.005514 -0.366480
    13 1.209181 -0.000004 0.000004 0.000000 0.003091 -0.216394
    14 3.859856 -0.137962 1.332466 0.384689 0.117685 -1.290614
    15 1.719433 0.000002 -0.000005 -0.000004 0.004079 -0.363004
    16 1.099674 -0.000004 0.000003 0.000005 0.002595 -0.244332
    17 0.806042 -0.348928 1.321258 -1.222684 -0.679216 -0.788820
    18 1.789783 0.000002 -0.000008 -0.000001 0.243466 0.228522
    19 1.207001 -0.000001 0.000002 0.000002 -0.000001 0.362862
    20 11.484137 0.000873 -0.000005 -0.452665 0.212690 -0.083708
    21 -3.501953 -3.718750 -9.851563 -1.668474 1.286518 2.942953
    22 6.028141 0.000000 -0.000001 1.186504 0.445371 -1.859140
    23 11.692556 0.000000 -0.000001 -0.000002 0.000000 -1.375363
    24 11.481203 0.000403 -0.000008 -2.038002 0.221527 0.203291
    25 3.859678 -0.132545 1.193109 0.451068 -0.053980 -1.646235
    26 1.312561 -0.000004 -0.000001 0.000002 0.000001 -0.439674
    27 0.729364 -0.000004 -0.000002 -0.000001 0.000002 -1.254700
    28 3.942293 0.050345 0.431044 0.166894 0.030023 -1.468535
    29 1.539103 -0.000002 0.000001 0.000002 0.000001 -1.012265
    30 1.196321 -0.000004 -0.000003 -0.000001 -0.000001 -1.406099
    31 3.883657 -0.050307 -0.431042 0.006922 0.081092 -1.415357
    32 1.719585 0.000008 0.000006 0.007542 -0.002583 -1.607092
    33 1.209185 0.000002 0.000006 0.000002 -0.004469 -0.216370
    34 3.726563 0.236694 -1.375000 -0.354423 0.038571 -0.532000
    35 1.354492 0.494629 0.077576 0.002691 0.152324 -0.776173
    36 1.099667 0.000002 0.000008 0.000004 -0.004212 -0.244311
    37 0.806021 -0.359832 -1.318335 1.221406 0.673630 -0.793552
    38 1.789785 -0.000011 -0.000004 -0.000001 0.076542 0.859696
    39 1.207001 -0.000001 -0.000006 0.000002 -0.000001 0.869771
    40 11.484729 0.001727 0.000005 -0.095226 0.013078 0.046086
    41 -5.537691 -18.309162 -5.108843 1.589080 0.012566 0.018574
    42 -1.689684 2.709811 4.387621 0.000000 0.000000 0.000000
    43 -0.448134 1.576904 5.279871 1.544398 0.063573 1.563249
    44 0.233417 0.631622 6.176952 1.581994 0.030232 1.564124
    45 -0.951339 0.466229 6.136072 1.471723 0.030232 1.564124
  time 26
    0 0.000000 -0.000006 0.000000 -1.570781 -1.391896 -1.570809
    1 -4.875000 -0.206787 1.455078 1.596636 -1.286515 2.942963
    2 6.028144 0.000002 0.000002 0.301753 -1.147674 -2.293420
    3 11.692554 0.000081 -0.000006 -0.000003 0.000010 -0.386039
    4 11.482105 0.000429 -0.000029 -0.919535 0.282932 -0.870800
    5 3.859703 -0.142420 -1.191975 -0.489340 0.032119 -1.110105
    6 1.312559 -0.000008 0.000003 0.000000 -0.000003 -0.439723
    7 0.729369 -0.000006 0.000001 0.000001 -0.000003 -0.244304
    8 3.942329 0.046753 -0.431443 -0.168270 -0.006277 -1.293931
    9 1.539093 0.000004 -0.000006 -0.000002 0.000006 -0.247791
    10 1.196321 -0.000004 0.000003 0.000001 -0.000007 -0.430811
    11 3.883690 -0.046782 0.431443 0.053532 0.070672 -1.261345
    12 1.719578 -0.000011 0.000009 0.000002 0.005514 -0.366480
    13 1.209181 -0.000004 0.000004 0.000000 0.003091 -0.216394
    14 3.859856 -0.137962 1.332466 0.384689 0.117685 -1.290614
    15 1.719433 0.000002 -0.000005 -0.000004 0.004079 -0.363004
    16 1.099674 -0.000004 0.000003 0.000005 0.002595 -0.244332
    17 0.806042 -0.348928 1.321258 -1.222684 -0.679216 -0.788820
    18 1.789783 0.000002 -0.000008 -0.000001 0.243466 0.228522
    19 1.207001 -0.000001 0.000002 0.000002 -0.000001 0.362862
    20 11.484137 0.000873 -0.000005 -0.451736 0.214356 -0.083589
    21 -3.501953 -3.718750 -9.851563 -1.668474 1.286518 2.942953
    22 6.028141 0.000000 -0.000001 1.186066 0.445089 -1.859659
    23 11.692556 0.000000 -0.000001 -0.000002 0.000000 -1.376898
    24 11.481203 0.000403 -0.000008 -2.036232 0.222567 0.204712
    25 3.859678 -0.132545 1.193109 0.451068 -0.053980 -1.646235
    26 1.312561 -0.000004 -0.000001 0.000002 0.000001 -0.439674
    27 0.729364 -0.000004 -0.000002 -0.000001 0.000002 -1.254700
    28 3.942293 0.050345 0.431044 0.166894 0.030023 -1.468535
    29 1.539103 -0.000002 0.000001 0.000002 0.000001 -1.012265
    30 1.196321 -0.000004 -0.000003 -0.000001 -0.000001 -1.406099
    31 3.883657 -0.050307 -0.431042 0.006922 0.081092 -1.415357
    32 1.719585 0.000008 0.000006 0.007542 -0.002583 -1.607092
    33 1.209185 0.000002 0.000006 0.000002 -0.004469 -0.216370
    34 3.726563 0.236694 -1.375000 -0.354423 0.038571 -0.532000
    35 1.354492 0.494629 0.077576 0.002691 0.152324 -0.776173
    36 1.099667 0.000002 0.000008 0.000004 -0.004212 -0.244311
    37 0.806021 -0.359832 -1.318335 1.221406 0.673630 -0.793552
    38 1.789785 -0.000011 -0.000004 -0.000001 0.076542 0.859696
    39 1.207001 -0.000001 -0.000006 0.000002 -0.000001 0.869771
    40 11.484729 0.001727 0.000005 -0.094891 0.013270 0.046350
    41 -5.537691 -18.309162 -5.108843 1.585329 0.009234 0.014846
    42 -1.689684 2.709811 4.387621 0.000000 0.000000 0.000000
    43 -0.448134 1.576904 5.279871 1.544410 0.053938 1.563501
    44 0.233417 0.631622 6.176952 1.573844 0.030232 1.564124
    45 -0.951339 0.466229 6.136072 1.485757 0.030232 1.564124
  time 27
    0 0.000000 -0.000006 0.000000 -1.570781 -1.391896 -1.570809
    1 -4.875000 -0.206787 1.455078 1.596636 -1.286515 2.942963
    2 6.028144 0.000002 0.000002 0.310990 -1.147919 -2.301647
    3 11.692554 0.000081 -0.000006 -0.000003 0.000010 -0.378907
    4 11.482105 0.000429 -0.000029 -0.919607 0.287264 -0.879564
    5 3.859703 -0.142420 -1.191975 -0.489340 0.032119 -1.110105
    6 1.312559 -0.000008 0.000003 0.000000 -0.000003 -0.439723
    7 0.729369 -0.000006 0.000001 0.000001 -0.000003 -0.244304
    8 3.942329 0.046753 -0.431443 -0.168270 -0.006277 -1.293931
    9 1.539093 0.000004 -0.000006 -0.000002 0.000006 -0.247791
    10 1.196321 -0.000004 0.000003 0.000001 -0.000007 -0.430811
    11 3.883690 -0.046782 0.431443 0.053532 0.070672 -1.261345
    12 1.719578 -0.000011 0.000009 0.000002 0.005514 -0.366480
    13 1.209181 -0.000004 0.000004 0.000000 0.003091 -0.216394
    14 3.859856 -0.137962 1.332466 0.384689 0.117685 -1.290614
    15 1.719433 0.000002 -0.000005 -0.000004 0.004079 -0.363004
    16 1.099674 -0.000004 0.000003 0.000005 0.002595 -0.244332
    17 0.806042 -0.348928 1.321258 -1.222684 -0.679216 -0.788820
    18 1.789783 0.000002 -0.000008 -0.000001 0.243466 0.228522
    19 1.207001 -0.000001 0.000002 0.000002 -0.000001 0.362862
    20 11.484137 0.000873 -0.000005 -0.450531 0.216573 -0.083684
    21 -3.501953 -3.718750 -9.851563 -1.668474 1.286518 2.942953
    22 6.028141 0.000000 -0.000001 1.185629 0.444714 -1.860179
    23 11.692556 0.000000 -0.000001 -0.000002 0.000000 -1.379318
    24 11.481203 0.000403 -0.000008 -2.034546 0.223873 0.206998
    25 3.859678 -0.132545 1.193109 0.451068 -0.053980 -1.646235
    26 1.312561 -0.000004 -0.000001 0.000002 0.000001 -0.439674
    27 0.729364 -0.000004 -0.000002 -0.000001 0.000002 -1.254700
    28 3.942293 0.050345 0.431044 0.166894 0.030023 -1.468535
    29 1.539103 -0.000002 0.000001 0.000002 0.000001 -1.012265
    30 1.196321 -0.000004 -0.000003 -0.000001 -0.000001 -1.406099
    31 3.883657 -0.050307 -0.431042 0.006922 0.081092 -1.415357
    32 1.719585 0.000008 0.000006 0.007542 -0.002583 -1.607092
    33 1.209185 0.000002 0.000006 0.000002 -0.004469 -0.216370
    34 3.726563 0.236694 -1.375000 -0.354423 0.038571 -0.532000
    35 1.354492 0.494629 0.077576 0.002691 0.152324 -0.776173
    36 1.099667 0.000002 0.000008 0.000004 -0.004212 -0.244311
    37 0.806021 -0.359832 -1.318335 1.221406 0.673630 -0.793552
    38 1.789785 -0.000011 -0.000004 -0.000001 0.076542 0.859696
    39 1.207001 -0.000001 -0.000006 0.000002 -0.000001 0.869771
    40 11.484729 0.001727 0.000005 -0.094603 0.013473 0.046805
    41 -5.537691 -18.309162 -5.108843 1.580560 0.005882 0.009944
    42 -1.689684 2.709811 4.387621 0.000000 0.000000 0.000000
    43 -0.448134 1.576904 5.279871 1.544422 0.044889 1.563740
    44 0.233417 0.631622 6.176952 1.564005 0.030232 1.564124
    45 -0.951339 0.466229 6.136072 1.504597 0.030232 1.564124
  time 28
    0 0.000000 -0.000006 0.000000 -1.570781 -1.391896 -1.570809
    1 -4.875000 -0.206787 1.455078 1.596636 -1.286515 2.942963
    2 6.028144 0.000002 0.000002 0.320669 -1.148001 -2.310494
    3 11.692554 0.000081 -0.000006 -0.000003 0.000010 -0.371288
    4 11.482105 0.000429 -0.000029 -0.919607 0.291300 -0.888741
    5 3.859703 -0.142420 -1.191975 -0.489340 0.032119 -1.110105
    6 1.312559 -0.000008 0.000003 0.000000 -0.000003 -0.439723
    7 0.729369 -0.000006 0.000001 0.000001 -0.000003 -0.244304
    8 3.942329 0.046753 -0.431443 -0.168270 -0.006277 -1.293931
    9 1.539093 0.000004 -0.000006 -0.000002 0.000006 -0.247791
    10 1.196321 -0.000004 0.000003 0.000001 -0.000007 -0.430811
    11 3.883690 -0.046782 0.431443 0.053532 0.070672 -1.261345
    12 1.719578 -0.000011 0.000009 0.000002 0.005514 -0.366480
    13 1.209181 -0.000004 0.000004 0.000000 0.003091 -0.216394
    14 3.859856 -0.137962 1.332466 0.384689 0.117685 -1.290614
    15 1.719433 0.000002 -0.000005 -0.000004 0.004079 -0.363004
    16 1.099674 -0.000004 0.000003 0.000005 0.002595 -0.244332
    17 0.806042 -0.348928 1.321258 -1.222684 -0.679216 -0.788820
    18 1.789783 0.000002 -0.000008 -0.000001 0.243466 0.228522
    19 1.207001 -0.000001 0.000002 0.000002 -0.000001 0.362862
    20 11.484137 0.000873 -0.000005 -0.449301 0.218826 -0.083888
    21 -3.501953 -3.718750 -9.851563 -1.668474 1.286518 2.942953
    22 6.028141 0.000000 -0.000001 1.185316 0.444386 -1.860525
    23 11.692556 0.000000 -0.000001 -0.000002 0.000000 -1.381856
    24 11.481203 0.000403 -0.000008 -2.033113 0.225046 0.209423
    25 3.859678 -0.132545 1.193109 0.451068 -0.053980 -1.646235
    26 1.312561 -0.000004 -0.000001 0.000002 0.000001 -0.439674
    27 0.729364 -0.000004 -0.000002 -0.000001 0.000002 -1.254700
    28 3.942293 0.050345 0.431044 0.166894 0.030023 -1.468535
    29 1.539103 -0.000002 0.000001 0.000002 0.000001 -1.012265
    30 1.196321 -0.000004 -0.000003 -0.000001 -0.000001 -1.406099
    31 3.883657 -0.050307 -0.431042 0.006922 0.081092 -1.415357
    32 1.719585 0.000008 0.000006 0.007542 -0.002583 -1.607092
    33 1.209185 0.000002 0.000006 0.000002 -0.004469 -0.216370
    34 3.726563 0.236694 -1.375000 -0.354423 0.038571 -0.532000
    35 1.354492 0.494629 0.077576 0.002691 0.152324 -0.776173
    36 1.099667 0.000002 0.000008 0.000004 -0.004212 -0.244311
    37 0.806021 -0.359832 -1.318335 1.221406 0.673630 -0.793552
    38 1.789785 -0.000011 -0.000004 -0.000001 0.076542 0.859696
    39 1.207001 -0.000001 -0.000006 0.000002 -0.000001 0.869771
    40 11.484729 0.001727 0.000005 -0.094351 0.013653 0.047285
    41 -5.537691 -18.309162 -5.108843 1.575831 0.002920 0.005181
    42 -1.689684 2.709811 4.387621 0.000000 0.000000 0.000000
    43 -0.448134 1.576904 5.279871 1.544434 0.037339 1.563944
    44 0.233417 0.631622 6.176952 1.554477 0.030232 1.564124
    45 -0.951339 0.466229 6.136072 1.523701 0.030232 1.564124
  time 29
    0 0.000000 -0.000006 0.000000 -1.570781 -1.391896 -1.570809
    1 -4.875000 -0.206787 1.455078 1.596636 -1.286515 2.942963
    2 6.028144 0.000002 0.000002 0.328634 -1.147878 -2.317893
    3 11.692554 0.000081 -0.000006 -0.000003 0.000010 -0.364954
    4 11.482105 0.000429 -0.000029 -0.919679 0.294273 -0.896083
    5 3.859703 -0.142420 -1.191975 -0.489340 0.032119 -1.110105
    6 1.312559 -0.000008 0.000003 0.000000 -0.000003 -0.439723
    7 0.729369 -0.000006 0.000001 0.000001 -0.000003 -0.244304
    8 3.942329 0.046753 -0.431443 -0.168270 -0.006277 -1.293931
    9 1.539093 0.000004 -0.000006 -0.000002 0.000006 -0.247791
    10 1.196321 -0.000004 0.000003 0.000001 -0.000007 -0.430811
    11 3.883690 -0.046782 0.431443 0.053532 0.070672 -1.261345
    12 1.719578 -0.000011 0.000009 0.000002 0.005514 -0.366480
    13 1.209181 -0.000004 0.000004 0.000000 0.003091 -0.216394
    14 3.859856 -0.137962 1.332466 0.384689 0.117685 -1.290614
    15 1.719433 0.000002 -0.000005 -0.000004 0.004079 -0.363004
    16 1.099674 -0.000004 0.000003 0.000005 0.002595 -0.244332
    17 0.806042 -0.348928 1.321258 -1.222684 -0.679216 -0.788820
    18 1.789783 0.000002 -0.000008 -0.000001 0.243466 0.228522
    19 1.207001 -0.000001 0.000002 0.000002 -0.000001 0.362862
    20 11.484137 0.000873 -0.000005 -0.448345 0.220612 -0.084104
    21 -3.501953 -3.718750 -9.851563 -1.668474 1.286518 2.942953
    22 6.028141 0.000000 -0.000001 1.185066 0.444104 -1.860871
    23 11.692556 0.000000 -0.000001 -0.000002 0.000000 -1.383804
    24 11.481203 0.000403 -0.000008 -2.032102 0.225980 0.211328
    25 3.859678 -0.132545 1.193109 0.451068 -0.053980 -1.646235
    26 1.312561 -0.000004 -0.000001 0.000002 0.000001 -0.439674
    27 0.729364 -0.000004 -0.000002 -0.000001 0.000002 -1.254700
    28 3.942293 0.050345 0.431044 0.166894 0.030023 -1.468535
    29 1.539103 -0.000002 0.000001 0.000002 0.000001 -1.012265
    30 1.196321 -0.000004 -0.000003 -0.000001 -0.000001 -1.406099
    31 3.883657 -0.050307 -0.431042 0.006922 0.081092 -1.415357
    32 1.719585 0.000008 0.000006 0.007542 -0.002583 -1.607092
    33 1.209185 0.000002 0.000006 0.000002 -0.004469 -0.216370
    34 3.726563 0.236694 -1.375000 -0.354423 0.038571 -0.532000
    35 1.354492 0.494629 0.077576 0.002691 0.152324 -0.776173
    36 1.099667 0.000002 0.000008 0.000004 -0.004212 -0.244311
    37 0.806021 -0.359832 -1.318335 1.221406 0.673630 -0.793552
    38 1.789785 -0.000011 -0.000004 -0.000001 0.076542 0.859696
    39 1.207001 -0.000001 -0.000006 0.000002 -0.000001 0.869771
    40 11.484729 0.001727 0.000005 -0.094184 0.013785 0.047668
    41 -5.537691 -18.309162 -5.108843 1.572223 0.000802 0.001453
    42 -1.689684 2.709811 4.387621 0.000000 0.000000 0.000000
    43 -0.448134 1.576904 5.279871 1.544434 0.032150 1.564076
    44 0.233417 0.631622 6.176952 1.547274 0.030232 1.564124
    45 -0.951339 0.466229 6.136072 1.538502 0.030232 1.564124
  time 30
    0 0.000000 -0.000006 0.000000 -1.570781 -1.391896 -1.570809
    1 -4.875000 -0.206787 1.455078 1.596636 -1.286515 2.942963
    2 6.028144 0.000002 0.000002 0.331731 -1.147837 -2.320791
    3 11.692554 0.000081 -0.000006 -0.000003 0.000010 -0.362429
    4 11.482105 0.000429 -0.000029 -0.919679 0.295435 -0.899019
    5 3.859703 -0.142420 -1.191975 -0.489340 0.032119 -1.110105
    6 1.312559 -0.000008 0.000003 0.000000 -0.000003 -0.439723
    7 0.729369 -0.000006 0.000001 0.000001 -0.000003 -0.244304
    8 3.942329 0.046753 -0.431443 -0.168270 -0.006277 -1.293931
    9 1.539093 0.000004 -0.000006 -0.000002 0.000006 -0.247791
    10 1.196321 -0.000004 0.000003 0.000001 -0.000007 -0.430811
    11 3.883690 -0.046782 0.431443 0.053532 0.070672 -1.261345
    12 1.719578 -0.000011 0.000009 0.000002 0.005514 -0.366480
    13 1.209181 -0.000004 0.000004 0.000000 0.003091 -0.216394
    14 3.859856 -0.137962 1.332466 0.384689 0.117685 -1.290614
    15 1.719433 0.000002 -0.000005 -0.000004 0.004079 -0.363004
    16 1.099674 -0.000004 0.000003 0.000005 0.002595 -0.244332
    17 0.806042 -0.348928 1.321258 -1.222684 -0.679216 -0.788820
    18 1.789783 0.000002 -0.000008 -0.000001 0.243466 0.228522
    19 1.207001 -0.000001 0.000002 0.000002 -0.000001 0.362862
    20 11.484137 0.000873 -0.000005 -0.447965 0.221319 -0.084200
    21 -3.501953 -3.718750 -9.851563 -1.668474 1.286518 2.942953
    22 6.028141 0.000000 -0.000001 1.184941 0.444011 -1.860958
    23 11.692556 0.000000 -0.000001 -0.000002 0.000000 -1.384630
    24 11.481203 0.000403 -0.000008 -2.031723 0.226353 0.212125
    25 3.859678 -0.132545 1.193109 0.451068 -0.053980 -1.646235
    26 1.312561 -0.000004 -0.000001 0.000002 0.000001 -0.439674
    27 0.729364 -0.000004 -0.000002 -0.000001 0.000002 -1.254700
    28 3.942293 0.050345 0.431044 0.166894 0.030023 -1.468535
    29 1.539103 -0.000002 0.000001 0.000002 0.000001 -1.012265
    30 1.196321 -0.000004 -0.000003 -0.000001 -0.000001 -1.406099
    31 3.883657 -0.050307 -0.431042 0.006922 0.081092 -1.415357
    32 1.719585 0.000008 0.000006 0.007542 -0.002583 -1.607092
    33 1.209185 0.000002 0.000006 0.000002 -0.004469 -0.216370
    34 3.726563 0.236694 -1.375000 -0.354423 0.038571 -0.532000
    35 1.354492 0.494629 0.077576 0.002691 0.152324 -0.776173
    36 1.099667 0.000002 0.000008 0.000004 -0.004212 -0.244311
    37 0.806021 -0.359832 -1.318335 1.221406 0.673630 -0.793552
    38 1.789785 -0.000011 -0.000004 -0.000001 0.076542 0.859696
    39 1.207001 -0.000001 -0.000006 0.000002 -0.000001 0.869771
    40 11.484729 0.001727 0.000005 -0.094124 0.013833 0.047824
    41 -5.537691 -18.309162 -5.108843 1.570796 0.000000 -0.000066
    42 -1.689684 2.709811 4.387621 0.000000 0.000000 0.000000
    43 -0.448134 1.576904 5.279871 1.544434 0.030232 1.564124
    44 0.233417 0.631622 6.176952 1.544434 0.030232 1.564124
    45 -0.951339 0.466229 6.136072 1.544434 0.030232 1.564124
end
