// Created by Crowbar++ 0.74
version 1
nodes
  0 "ValveBiped.Bip01_Spine4" -1
  1 "ValveBiped.Bip01_L_Clavicle" 0
  2 "ValveBiped.Bip01_L_UpperArm" 1
  3 "ValveBiped.Bip01_L_Forearm" 2
  4 "ValveBiped.Bip01_L_Hand" 3
  5 "ValveBiped.Bip01_L_Finger4" 4
  6 "ValveBiped.Bip01_L_Finger41" 5
  7 "ValveBiped.Bip01_L_Finger42" 6
  8 "ValveBiped.Bip01_L_Finger3" 4
  9 "ValveBiped.Bip01_L_Finger31" 8
  10 "ValveBiped.Bip01_L_Finger32" 9
  11 "ValveBiped.Bip01_L_Finger2" 4
  12 "ValveBiped.Bip01_L_Finger21" 11
  13 "ValveBiped.Bip01_L_Finger22" 12
  14 "ValveBiped.Bip01_L_Finger1" 4
  15 "ValveBiped.Bip01_L_Finger11" 14
  16 "ValveBiped.Bip01_L_Finger12" 15
  17 "ValveBiped.Bip01_L_Finger0" 4
  18 "ValveBiped.Bip01_L_Finger01" 17
  19 "ValveBiped.Bip01_L_Finger02" 18
  20 "ValveBiped.Bip01_L_Wrist" 3
  21 "ValveBiped.Bip01_R_Clavicle" 0
  22 "ValveBiped.Bip01_R_UpperArm" 21
  23 "ValveBiped.Bip01_R_Forearm" 22
  24 "ValveBiped.Bip01_R_Hand" 23
  25 "ValveBiped.Bip01_R_Finger4" 24
  26 "ValveBiped.Bip01_R_Finger41" 25
  27 "ValveBiped.Bip01_R_Finger42" 26
  28 "ValveBiped.Bip01_R_Finger3" 24
  29 "ValveBiped.Bip01_R_Finger31" 28
  30 "ValveBiped.Bip01_R_Finger32" 29
  31 "ValveBiped.Bip01_R_Finger2" 24
  32 "ValveBiped.Bip01_R_Finger21" 31
  33 "ValveBiped.Bip01_R_Finger22" 32
  34 "ValveBiped.Bip01_R_Finger1" 24
  35 "ValveBiped.Bip01_R_Finger11" 34
  36 "ValveBiped.Bip01_R_Finger12" 35
  37 "ValveBiped.Bip01_R_Finger0" 24
  38 "ValveBiped.Bip01_R_Finger01" 37
  39 "ValveBiped.Bip01_R_Finger02" 38
  40 "ValveBiped.Bip01_R_Wrist" 23
  41 "gun" -1
  42 "mag" 41
  43 "heatshield_top" 41
  44 "heatshield_l" 41
  45 "heatshield_r" 41
end
skeleton
  time 0
    0 0.000000 -0.000006 0.000000 -1.570781 -1.391896 -1.570809
    1 -4.875000 -0.206787 1.455078 1.596636 -1.286515 2.942963
    2 6.028144 0.000002 0.000002 0.331731 -1.147837 -2.320791
    3 11.692554 0.000081 -0.000006 -0.000003 0.000010 -0.362429
    4 11.482105 0.000429 -0.000029 -0.919679 0.295435 -0.899019
    5 3.859703 -0.142420 -1.191975 -0.489340 0.032119 -1.110105
    6 1.312559 -0.000008 0.000003 0.000000 -0.000003 -0.439723
    7 0.729369 -0.000006 0.000001 0.000001 -0.000003 -0.244304
    8 3.942329 0.046753 -0.431443 -0.168270 -0.006277 -1.293931
    9 1.539093 0.000004 -0.000006 -0.000002 0.000006 -0.247791
    10 1.196321 -0.000004 0.000003 0.000001 -0.000007 -0.430811
    11 3.883690 -0.046782 0.431443 0.053532 0.070672 -1.261345
    12 1.719578 -0.000011 0.000009 0.000002 0.005514 -0.366480
    13 1.209181 -0.000004 0.000004 0.000000 0.003091 -0.216394
    14 3.859856 -0.137962 1.332466 0.384689 0.117685 -1.290614
    15 1.719433 0.000002 -0.000005 -0.000004 0.004079 -0.363004
    16 1.099674 -0.000004 0.000003 0.000005 0.002595 -0.244332
    17 0.806042 -0.348928 1.321258 -1.222684 -0.679216 -0.788820
    18 1.789783 0.000002 -0.000008 -0.000001 0.243466 0.228522
    19 1.207001 -0.000001 0.000002 0.000002 -0.000001 0.362862
    20 11.484137 0.000873 -0.000005 -0.447965 0.221319 -0.084200
    21 -3.501953 -3.718750 -9.851563 -1.668474 1.286518 2.942953
    22 6.028141 0.000000 -0.000001 1.184941 0.444011 -1.860958
    23 11.692556 0.000000 -0.000001 -0.000002 0.000000 -1.384630
    24 11.481203 0.000403 -0.000008 -2.031723 0.226353 0.212125
    25 3.859678 -0.132545 1.193109 0.451074 -0.053982 -1.646216
    26 1.312561 -0.000004 -0.000001 0.000002 0.000001 -0.439674
    27 0.729364 -0.000004 -0.000002 -0.000001 0.000002 -1.254700
    28 3.942293 0.050345 0.431044 0.166894 0.030023 -1.468535
    29 1.539103 -0.000002 0.000001 0.000002 0.000001 -1.012265
    30 1.196321 -0.000004 -0.000003 -0.000001 -0.000001 -1.406099
    31 3.883657 -0.050307 -0.431042 0.006916 0.081090 -1.415334
    32 1.719585 0.000008 0.000006 0.007542 -0.002583 -1.607092
    33 1.209185 0.000002 0.000006 0.000002 -0.004469 -0.216370
    34 3.730921 0.233903 -1.374252 -0.354423 0.038571 -0.532000
    35 1.356137 0.492206 0.074232 0.002688 0.152317 -0.776148
    36 1.099667 0.000002 0.000008 0.000004 -0.004212 -0.244311
    37 0.806021 -0.359832 -1.318335 1.221406 0.673630 -0.793552
    38 1.789785 -0.000011 -0.000004 -0.000001 0.076542 0.859696
    39 1.207001 -0.000001 -0.000006 0.000002 -0.000001 0.869771
    40 11.484729 0.001727 0.000005 -0.094124 0.013833 0.047824
    41 -5.537691 -18.309162 -5.108843 1.570796 0.000000 -0.000066
    42 -1.689684 2.709811 4.387621 0.000000 0.000000 0.000000
    43 -0.448134 1.576904 5.279871 1.544434 0.030232 1.564124
    44 0.233417 0.631622 6.176952 1.544434 0.030232 1.564124
    45 -0.951339 0.466229 6.136072 1.544434 0.030232 1.564124
  time 1
    0 0.000000 -0.000006 0.000000 -1.570781 -1.391896 -1.570809
    1 -4.875000 -0.206787 1.455078 1.596636 -1.286515 2.942963
    2 6.028144 0.000002 0.000002 0.049097 -1.147756 -2.040716
    3 11.692554 0.000081 -0.000006 -0.000003 0.000022 -0.609741
    4 11.482105 0.000429 -0.000029 -0.877964 0.317841 -0.760216
    5 3.859703 -0.142420 -1.191975 -0.489340 0.032119 -1.110105
    6 1.312559 -0.000008 0.000003 0.000000 -0.000003 -0.439723
    7 0.729369 -0.000006 0.000001 0.000001 -0.000003 -0.244304
    8 3.942329 0.046753 -0.431443 -0.168270 -0.006277 -1.293931
    9 1.539093 0.000004 -0.000006 -0.000002 0.000006 -0.247791
    10 1.196321 -0.000004 0.000003 0.000001 -0.000007 -0.430811
    11 3.883690 -0.046782 0.431443 0.053532 0.070672 -1.261345
    12 1.719578 -0.000011 0.000009 0.000002 0.005514 -0.366480
    13 1.209181 -0.000004 0.000004 0.000000 0.003091 -0.216394
    14 3.859856 -0.137962 1.332466 0.384689 0.117685 -1.290614
    15 1.719433 0.000002 -0.000005 -0.000004 0.004079 -0.363004
    16 1.099674 -0.000004 0.000003 0.000005 0.002595 -0.244332
    17 0.806042 -0.348928 1.321258 -1.222684 -0.679216 -0.788820
    18 1.789783 0.000002 -0.000008 -0.000001 0.243466 0.228522
    19 1.207001 -0.000001 0.000002 0.000002 -0.000001 0.362862
    20 11.484137 0.000873 -0.000005 -0.449117 0.193982 -0.064833
    21 -3.501953 -3.718750 -9.851563 -1.668474 1.286518 2.942953
    22 6.028141 0.000000 -0.000001 1.184691 0.389457 -1.850052
    23 11.692556 0.000000 -0.000001 -0.000002 0.000000 -1.384217
    24 11.481203 0.000403 -0.000008 -2.042595 0.228086 0.152612
    25 3.859678 -0.132545 1.193109 0.451074 -0.053982 -1.646216
    26 1.312561 -0.000004 -0.000001 0.000002 0.000001 -0.439674
    27 0.729364 -0.000004 -0.000002 -0.000001 0.000002 -1.254700
    28 3.942293 0.050345 0.431044 0.166894 0.030023 -1.468535
    29 1.539103 -0.000002 0.000001 0.000002 0.000001 -1.012265
    30 1.196321 -0.000004 -0.000003 -0.000001 -0.000001 -1.406099
    31 3.883657 -0.050307 -0.431042 0.006916 0.081090 -1.415334
    32 1.719585 0.000008 0.000006 0.007542 -0.002583 -1.607092
    33 1.209185 0.000002 0.000006 0.000002 -0.004469 -0.216370
    34 3.730921 0.233903 -1.374252 -0.349989 0.046325 -0.441145
    35 1.356137 0.492206 0.074232 -0.037113 0.175555 -1.013874
    36 1.099667 0.000002 0.000008 0.000795 0.407564 -1.274805
    37 0.806021 -0.359832 -1.318335 1.221406 0.673630 -0.793552
    38 1.789785 -0.000011 -0.000004 -0.000001 0.076542 0.859696
    39 1.207001 -0.000001 -0.000006 0.000002 -0.000001 0.869771
    40 11.484729 0.001727 0.000005 -0.095813 0.016230 0.036438
    41 -5.533785 -17.461480 -5.128375 1.555998 0.000000 -0.000066
    42 -1.689684 2.709811 4.387621 0.000000 0.000000 0.000000
    43 -0.448134 1.576904 5.279871 1.544218 0.133264 1.561392
    44 0.233417 0.631622 6.176952 1.544434 0.030232 1.564124
    45 -0.951339 0.466229 6.136072 1.544434 0.030232 1.564124
  time 2
    0 0.000000 -0.000006 0.000000 -1.570781 -1.391896 -1.570809
    1 -4.875000 -0.206787 1.455078 1.596636 -1.286515 2.942963
    2 6.028144 0.000002 0.000002 -0.138790 -1.118050 -1.862933
    3 11.692554 0.000081 -0.000006 -0.000015 0.000022 -0.783918
    4 11.482105 0.000429 -0.000029 -0.833516 0.341980 -0.656974
    5 3.859703 -0.142420 -1.191975 -0.489340 0.032119 -1.110105
    6 1.312559 -0.000008 0.000003 0.000000 -0.000003 -0.439723
    7 0.729369 -0.000006 0.000001 0.000001 -0.000003 -0.244304
    8 3.942329 0.046753 -0.431443 -0.168270 -0.006277 -1.293931
    9 1.539093 0.000004 -0.000006 -0.000002 0.000006 -0.247791
    10 1.196321 -0.000004 0.000003 0.000001 -0.000007 -0.430811
    11 3.883690 -0.046782 0.431443 0.053532 0.070672 -1.261345
    12 1.719578 -0.000011 0.000009 0.000002 0.005514 -0.366480
    13 1.209181 -0.000004 0.000004 0.000000 0.003091 -0.216394
    14 3.859856 -0.137962 1.332466 0.384689 0.117685 -1.290614
    15 1.719433 0.000002 -0.000005 -0.000004 0.004079 -0.363004
    16 1.099674 -0.000004 0.000003 0.000005 0.002595 -0.244332
    17 0.806042 -0.348928 1.321258 -1.222684 -0.679216 -0.788820
    18 1.789783 0.000002 -0.000008 -0.000001 0.243466 0.228522
    19 1.207001 -0.000001 0.000002 0.000002 -0.000001 0.362862
    20 11.484137 0.000873 -0.000005 -0.446015 0.174891 -0.048977
    21 -3.501953 -3.718750 -9.851563 -1.668474 1.286518 2.942953
    22 6.028141 0.000000 -0.000001 1.183566 0.322474 -1.835684
    23 11.692556 0.000000 -0.000001 -0.000002 0.000000 -1.474170
    24 11.481203 0.000403 -0.000008 -2.054942 0.231072 0.170244
    25 3.859678 -0.132545 1.193109 0.451074 -0.053982 -1.646216
    26 1.312561 -0.000004 -0.000001 0.000002 0.000001 -0.439674
    27 0.729364 -0.000004 -0.000002 -0.000001 0.000002 -1.254700
    28 3.942293 0.050345 0.431044 0.166894 0.030023 -1.468535
    29 1.539103 -0.000002 0.000001 0.000002 0.000001 -1.012265
    30 1.196321 -0.000004 -0.000003 -0.000001 -0.000001 -1.406099
    31 3.883657 -0.050307 -0.431042 0.006916 0.081090 -1.415334
    32 1.719585 0.000008 0.000006 0.007542 -0.002583 -1.607092
    33 1.209185 0.000002 0.000006 0.000002 -0.004469 -0.216370
    34 3.730921 0.233903 -1.374252 -0.350132 0.046109 -0.443757
    35 1.356137 0.492206 0.074232 -0.035891 0.175015 -1.007002
    36 1.099667 0.000002 0.000008 0.006931 0.397184 -1.244534
    37 0.806021 -0.359832 -1.318335 1.221406 0.673630 -0.793552
    38 1.789785 -0.000011 -0.000004 -0.000001 0.076542 0.859696
    39 1.207001 -0.000001 -0.000006 0.000002 -0.000001 0.869771
    40 11.484729 0.001727 0.000005 -0.098414 0.015930 0.040417
    41 -5.514253 -16.613798 -5.151813 1.541179 0.000000 -0.000066
    42 -1.689684 2.709811 4.387621 0.000000 0.000000 0.000000
    43 -0.448134 1.576904 5.279871 1.544242 0.126960 1.561559
    44 0.233417 0.631622 6.176952 1.544434 0.030232 1.564124
    45 -0.951339 0.466229 6.136072 1.544434 0.030232 1.564124
  time 3
    0 0.000000 -0.000006 0.000000 -1.570781 -1.391896 -1.570809
    1 -4.875000 -0.206787 1.455078 1.596636 -1.286515 2.942963
    2 6.028144 0.000002 0.000002 -0.131102 -1.122749 -1.866814
    3 11.692554 0.000081 -0.000006 -0.000015 0.000022 -0.775767
    4 11.482105 0.000429 -0.000029 -0.838911 0.338357 -0.664499
    5 3.859703 -0.142420 -1.191975 -0.489340 0.032119 -1.110105
    6 1.312559 -0.000008 0.000003 0.000000 -0.000003 -0.439723
    7 0.729369 -0.000006 0.000001 0.000001 -0.000003 -0.244304
    8 3.942329 0.046753 -0.431443 -0.168270 -0.006277 -1.293931
    9 1.539093 0.000004 -0.000006 -0.000002 0.000006 -0.247791
    10 1.196321 -0.000004 0.000003 0.000001 -0.000007 -0.430811
    11 3.883690 -0.046782 0.431443 0.053532 0.070672 -1.261345
    12 1.719578 -0.000011 0.000009 0.000002 0.005514 -0.366480
    13 1.209181 -0.000004 0.000004 0.000000 0.003091 -0.216394
    14 3.859856 -0.137962 1.332466 0.384689 0.117685 -1.290614
    15 1.719433 0.000002 -0.000005 -0.000004 0.004079 -0.363004
    16 1.099674 -0.000004 0.000003 0.000005 0.002595 -0.244332
    17 0.806042 -0.348928 1.321258 -1.222684 -0.679216 -0.788820
    18 1.789783 0.000002 -0.000008 -0.000001 0.243466 0.228522
    19 1.207001 -0.000001 0.000002 0.000002 -0.000001 0.362862
    20 11.484137 0.000873 -0.000005 -0.446839 0.176089 -0.050415
    21 -3.501953 -3.718750 -9.851563 -1.668474 1.286518 2.942953
    22 6.028141 0.000000 -0.000001 1.182316 0.327305 -1.838453
    23 11.692556 0.000000 -0.000001 -0.000002 0.000000 -1.469448
    24 11.481203 0.000403 -0.000008 -2.055490 0.231632 0.170937
    25 3.859678 -0.132545 1.193109 0.451074 -0.053982 -1.646216
    26 1.312561 -0.000004 -0.000001 0.000002 0.000001 -0.439674
    27 0.729364 -0.000004 -0.000002 -0.000001 0.000002 -1.254700
    28 3.942293 0.050345 0.431044 0.166894 0.030023 -1.468535
    29 1.539103 -0.000002 0.000001 0.000002 0.000001 -1.012265
    30 1.196321 -0.000004 -0.000003 -0.000001 -0.000001 -1.406099
    31 3.883657 -0.050307 -0.431042 0.006916 0.081090 -1.415334
    32 1.719585 0.000008 0.000006 0.007542 -0.002583 -1.607092
    33 1.209185 0.000002 0.000006 0.000002 -0.004469 -0.216370
    34 3.730921 0.233903 -1.374252 -0.350336 0.045774 -0.447700
    35 1.356137 0.492206 0.074232 -0.034057 0.174201 -0.996662
    36 1.099667 0.000002 0.000008 0.015584 0.381023 -1.198722
    37 0.806021 -0.359832 -1.318335 1.221406 0.673630 -0.793552
    38 1.789785 -0.000011 -0.000004 -0.000001 0.076542 0.859696
    39 1.207001 -0.000001 -0.000006 0.000002 -0.000001 0.869771
    40 11.484729 0.001727 0.000005 -0.098534 0.016014 0.040597
    41 -5.479096 -16.680206 -5.144000 1.541362 0.000000 -0.000066
    42 -1.689684 2.709811 4.387621 0.000000 0.000000 0.000000
    43 -0.448134 1.576904 5.279871 1.544290 0.109786 1.562027
    44 0.233417 0.631622 6.176952 1.544434 0.030232 1.564124
    45 -0.951339 0.466229 6.136072 1.544434 0.030232 1.564124
  time 4
    0 0.000000 -0.000006 0.000000 -1.570781 -1.391896 -1.570809
    1 -4.875000 -0.206787 1.455078 1.596636 -1.286515 2.942963
    2 6.028144 0.000002 0.000002 -0.104996 -1.132106 -1.886889
    3 11.692554 0.000081 -0.000006 -0.000015 0.000022 -0.750252
    4 11.482105 0.000429 -0.000029 -0.849124 0.331505 -0.683450
    5 3.859703 -0.142420 -1.191975 -0.489340 0.032119 -1.110105
    6 1.312559 -0.000008 0.000003 0.000000 -0.000003 -0.439723
    7 0.729369 -0.000006 0.000001 0.000001 -0.000003 -0.244304
    8 3.942329 0.046753 -0.431443 -0.168270 -0.006277 -1.293931
    9 1.539093 0.000004 -0.000006 -0.000002 0.000006 -0.247791
    10 1.196321 -0.000004 0.000003 0.000001 -0.000007 -0.430811
    11 3.883690 -0.046782 0.431443 0.053532 0.070672 -1.261345
    12 1.719578 -0.000011 0.000009 0.000002 0.005514 -0.366480
    13 1.209181 -0.000004 0.000004 0.000000 0.003091 -0.216394
    14 3.859856 -0.137962 1.332466 0.384689 0.117685 -1.290614
    15 1.719433 0.000002 -0.000005 -0.000004 0.004079 -0.363004
    16 1.099674 -0.000004 0.000003 0.000005 0.002595 -0.244332
    17 0.806042 -0.348928 1.321258 -1.222684 -0.679216 -0.788820
    18 1.789783 0.000002 -0.000008 -0.000001 0.243466 0.228522
    19 1.207001 -0.000001 0.000002 0.000002 -0.000001 0.362862
    20 11.484137 0.000873 -0.000005 -0.448070 0.179313 -0.053759
    21 -3.501953 -3.718750 -9.851563 -1.668474 1.286518 2.942953
    22 6.028141 0.000000 -0.000001 1.181067 0.339642 -1.843214
    23 11.692556 0.000000 -0.000001 -0.000002 0.000000 -1.455400
    24 11.481203 0.000403 -0.000008 -2.054942 0.231472 0.170175
    25 3.859678 -0.132545 1.193109 0.451074 -0.053982 -1.646216
    26 1.312561 -0.000004 -0.000001 0.000002 0.000001 -0.439674
    27 0.729364 -0.000004 -0.000002 -0.000001 0.000002 -1.254700
    28 3.942293 0.050345 0.431044 0.166894 0.030023 -1.468535
    29 1.539103 -0.000002 0.000001 0.000002 0.000001 -1.012265
    30 1.196321 -0.000004 -0.000003 -0.000001 -0.000001 -1.406099
    31 3.883657 -0.050307 -0.431042 0.006916 0.081090 -1.415334
    32 1.719585 0.000008 0.000006 0.007542 -0.002583 -1.607092
    33 1.209185 0.000002 0.000006 0.000002 -0.004469 -0.216370
    34 3.730921 0.233903 -1.374252 -0.350552 0.045414 -0.451991
    35 1.356137 0.492206 0.074232 -0.032080 0.173290 -0.985430
    36 1.099667 0.000002 0.000008 0.024093 0.362914 -1.148966
    37 0.806021 -0.359832 -1.318335 1.221406 0.673630 -0.793552
    38 1.789785 -0.000011 -0.000004 -0.000001 0.076542 0.859696
    39 1.207001 -0.000001 -0.000006 0.000002 -0.000001 0.869771
    40 11.484729 0.001727 0.000005 -0.098426 0.016014 0.040429
    41 -5.432220 -16.836461 -5.132281 1.541852 0.000000 -0.000066
    42 -1.689684 2.709811 4.387621 0.000000 0.000000 0.000000
    43 -0.448134 1.576904 5.279871 1.544362 0.084271 1.562698
    44 0.233417 0.631622 6.176952 1.544434 0.030232 1.564124
    45 -0.951339 0.466229 6.136072 1.544434 0.030232 1.564124
  time 5
    0 0.000000 -0.000006 0.000000 -1.570781 -1.391896 -1.570809
    1 -4.875000 -0.206787 1.455078 1.596636 -1.286515 2.942963
    2 6.028144 0.000002 0.000002 -0.068436 -1.142076 -1.917623
    3 11.692554 0.000081 -0.000006 -0.000003 0.000022 -0.715966
    4 11.482105 0.000429 -0.000029 -0.860271 0.324082 -0.707127
    5 3.859703 -0.142420 -1.191975 -0.489340 0.032119 -1.110105
    6 1.312559 -0.000008 0.000003 0.000000 -0.000003 -0.439723
    7 0.729369 -0.000006 0.000001 0.000001 -0.000003 -0.244304
    8 3.942329 0.046753 -0.431443 -0.168270 -0.006277 -1.293931
    9 1.539093 0.000004 -0.000006 -0.000002 0.000006 -0.247791
    10 1.196321 -0.000004 0.000003 0.000001 -0.000007 -0.430811
    11 3.883690 -0.046782 0.431443 0.053532 0.070672 -1.261345
    12 1.719578 -0.000011 0.000009 0.000002 0.005514 -0.366480
    13 1.209181 -0.000004 0.000004 0.000000 0.003091 -0.216394
    14 3.859856 -0.137962 1.332466 0.384689 0.117685 -1.290614
    15 1.719433 0.000002 -0.000005 -0.000004 0.004079 -0.363004
    16 1.099674 -0.000004 0.000003 0.000005 0.002595 -0.244332
    17 0.806042 -0.348928 1.321258 -1.222684 -0.679216 -0.788820
    18 1.789783 0.000002 -0.000008 -0.000001 0.243466 0.228522
    19 1.207001 -0.000001 0.000002 0.000002 -0.000001 0.362862
    20 11.484137 0.000873 -0.000005 -0.449170 0.183507 -0.057762
    21 -3.501953 -3.718750 -9.851563 -1.668474 1.286518 2.942953
    22 6.028141 0.000000 -0.000001 1.180067 0.354699 -1.848147
    23 11.692556 0.000000 -0.000001 -0.000002 0.000000 -1.438165
    24 11.481203 0.000403 -0.000008 -2.053678 0.230752 0.169067
    25 3.859678 -0.132545 1.193109 0.451074 -0.053982 -1.646216
    26 1.312561 -0.000004 -0.000001 0.000002 0.000001 -0.439674
    27 0.729364 -0.000004 -0.000002 -0.000001 0.000002 -1.254700
    28 3.942293 0.050345 0.431044 0.166894 0.030023 -1.468535
    29 1.539103 -0.000002 0.000001 0.000002 0.000001 -1.012265
    30 1.196321 -0.000004 -0.000003 -0.000001 -0.000001 -1.406099
    31 3.883657 -0.050307 -0.431042 0.006916 0.081090 -1.415334
    32 1.719585 0.000008 0.000006 0.007542 -0.002583 -1.607092
    33 1.209185 0.000002 0.000006 0.000002 -0.004469 -0.216370
    34 3.730921 0.233903 -1.374252 -0.350780 0.045055 -0.456389
    35 1.356137 0.492206 0.074232 -0.030054 0.172319 -0.973900
    36 1.099667 0.000002 0.000008 0.031847 0.343687 -1.097741
    37 0.806021 -0.359832 -1.318335 1.221406 0.673630 -0.793552
    38 1.789785 -0.000011 -0.000004 -0.000001 0.076542 0.859696
    39 1.207001 -0.000001 -0.000006 0.000002 -0.000001 0.869771
    40 11.484729 0.001727 0.000005 -0.098150 0.015930 0.040130
    41 -5.397062 -17.031779 -5.120562 1.542585 0.000000 -0.000066
    42 -1.689684 2.709811 4.387621 0.000000 0.000000 0.000000
    43 -0.448134 1.576904 5.279871 1.544410 0.052979 1.563525
    44 0.233417 0.631622 6.176952 1.544434 0.030232 1.564124
    45 -0.951339 0.466229 6.136072 1.544434 0.030232 1.564124
  time 6
    0 0.000000 -0.000006 0.000000 -1.570781 -1.391896 -1.570809
    1 -4.875000 -0.206787 1.455078 1.596636 -1.286515 2.942963
    2 6.028144 0.000002 0.000002 -0.031268 -1.149145 -1.951410
    3 11.692554 0.000081 -0.000006 -0.000003 0.000022 -0.682122
    4 11.482105 0.000429 -0.000029 -0.868758 0.318569 -0.728876
    5 3.859703 -0.142420 -1.191975 -0.489340 0.032119 -1.110105
    6 1.312559 -0.000008 0.000003 0.000000 -0.000003 -0.439723
    7 0.729369 -0.000006 0.000001 0.000001 -0.000003 -0.244304
    8 3.942329 0.046753 -0.431443 -0.168270 -0.006277 -1.293931
    9 1.539093 0.000004 -0.000006 -0.000002 0.000006 -0.247791
    10 1.196321 -0.000004 0.000003 0.000001 -0.000007 -0.430811
    11 3.883690 -0.046782 0.431443 0.053532 0.070672 -1.261345
    12 1.719578 -0.000011 0.000009 0.000002 0.005514 -0.366480
    13 1.209181 -0.000004 0.000004 0.000000 0.003091 -0.216394
    14 3.859856 -0.137962 1.332466 0.384689 0.117685 -1.290614
    15 1.719433 0.000002 -0.000005 -0.000004 0.004079 -0.363004
    16 1.099674 -0.000004 0.000003 0.000005 0.002595 -0.244332
    17 0.806042 -0.348928 1.321258 -1.222684 -0.679216 -0.788820
    18 1.789783 0.000002 -0.000008 -0.000001 0.243466 0.228522
    19 1.207001 -0.000001 0.000002 0.000002 -0.000001 0.362862
    20 11.484137 0.000873 -0.000005 -0.449693 0.187486 -0.061249
    21 -3.501953 -3.718750 -9.851563 -1.668474 1.286518 2.942953
    22 6.028141 0.000000 -0.000001 1.179879 0.367739 -1.851523
    23 11.692556 0.000000 -0.000001 -0.000002 0.000000 -1.424235
    24 11.481203 0.000403 -0.000008 -2.051866 0.229552 0.168893
    25 3.859678 -0.132545 1.193109 0.451074 -0.053982 -1.646216
    26 1.312561 -0.000004 -0.000001 0.000002 0.000001 -0.439674
    27 0.729364 -0.000004 -0.000002 -0.000001 0.000002 -1.254700
    28 3.942293 0.050345 0.431044 0.166894 0.030023 -1.468535
    29 1.539103 -0.000002 0.000001 0.000002 0.000001 -1.012265
    30 1.196321 -0.000004 -0.000003 -0.000001 -0.000001 -1.406099
    31 3.883657 -0.050307 -0.431042 0.006916 0.081090 -1.415334
    32 1.719585 0.000008 0.000006 0.007542 -0.002583 -1.607092
    33 1.209185 0.000002 0.000006 0.000002 -0.004469 -0.216370
    34 3.730921 0.233903 -1.374252 -0.351007 0.044671 -0.460836
    35 1.356137 0.492206 0.074232 -0.028017 0.171324 -0.962239
    36 1.099667 0.000002 0.000008 0.038630 0.323731 -1.046052
    37 0.806021 -0.359832 -1.318335 1.221406 0.673630 -0.793552
    38 1.789785 -0.000011 -0.000004 -0.000001 0.076542 0.859696
    39 1.207001 -0.000001 -0.000006 0.000002 -0.000001 0.869771
    40 11.484729 0.001727 0.000005 -0.097791 0.015738 0.039998
    41 -5.381437 -17.199753 -5.112749 1.543523 0.000000 -0.000066
    42 -1.689684 2.709811 4.387621 0.000000 0.000000 0.000000
    43 -0.448134 1.576904 5.279871 1.544434 0.030232 1.564124
    44 0.233417 0.631622 6.176952 1.544434 0.030232 1.564124
    45 -0.951339 0.466229 6.136072 1.544434 0.030232 1.564124
  time 7
    0 0.000000 -0.000006 0.000000 -1.570781 -1.391896 -1.570809
    1 -4.875000 -0.206787 1.455078 1.596636 -1.286515 2.942963
    2 6.028144 0.000002 0.000002 0.001697 -1.153313 -1.982921
    3 11.692554 0.000081 -0.000006 -0.000003 0.000022 -0.652576
    4 11.482105 0.000429 -0.000029 -0.874440 0.315006 -0.746680
    5 3.859703 -0.142420 -1.191975 -0.489340 0.032119 -1.110105
    6 1.312559 -0.000008 0.000003 0.000000 -0.000003 -0.439723
    7 0.729369 -0.000006 0.000001 0.000001 -0.000003 -0.244304
    8 3.942329 0.046753 -0.431443 -0.168270 -0.006277 -1.293931
    9 1.539093 0.000004 -0.000006 -0.000002 0.000006 -0.247791
    10 1.196321 -0.000004 0.000003 0.000001 -0.000007 -0.430811
    11 3.883690 -0.046782 0.431443 0.053532 0.070672 -1.261345
    12 1.719578 -0.000011 0.000009 0.000002 0.005514 -0.366480
    13 1.209181 -0.000004 0.000004 0.000000 0.003091 -0.216394
    14 3.859856 -0.137962 1.332466 0.384689 0.117685 -1.290614
    15 1.719433 0.000002 -0.000005 -0.000004 0.004079 -0.363004
    16 1.099674 -0.000004 0.000003 0.000005 0.002595 -0.244332
    17 0.806042 -0.348928 1.321258 -1.222684 -0.679216 -0.788820
    18 1.789783 0.000002 -0.000008 -0.000001 0.243466 0.228522
    19 1.207001 -0.000001 0.000002 0.000002 -0.000001 0.362862
    20 11.484137 0.000873 -0.000005 -0.449798 0.190830 -0.063958
    21 -3.501953 -3.718750 -9.851563 -1.668474 1.286518 2.942953
    22 6.028141 0.000000 -0.000001 1.180192 0.377684 -1.853341
    23 11.692556 0.000000 -0.000001 -0.000002 0.000000 -1.414732
    24 11.481203 0.000403 -0.000008 -2.049927 0.228379 0.169898
    25 3.859678 -0.132545 1.193109 0.451074 -0.053982 -1.646216
    26 1.312561 -0.000004 -0.000001 0.000002 0.000001 -0.439674
    27 0.729364 -0.000004 -0.000002 -0.000001 0.000002 -1.254700
    28 3.942293 0.050345 0.431044 0.166894 0.030023 -1.468535
    29 1.539103 -0.000002 0.000001 0.000002 0.000001 -1.012265
    30 1.196321 -0.000004 -0.000003 -0.000001 -0.000001 -1.406099
    31 3.883657 -0.050307 -0.431042 0.006916 0.081090 -1.415334
    32 1.719585 0.000008 0.000006 0.007542 -0.002583 -1.607092
    33 1.209185 0.000002 0.000006 0.000002 -0.004469 -0.216370
    34 3.730921 0.233903 -1.374252 -0.351235 0.044300 -0.465282
    35 1.356137 0.492206 0.074232 -0.026004 0.170306 -0.950610
    36 1.099667 0.000002 0.000008 0.044311 0.303310 -0.994478
    37 0.806021 -0.359832 -1.318335 1.221406 0.673630 -0.793552
    38 1.789785 -0.000011 -0.000004 -0.000001 0.076542 0.859696
    39 1.207001 -0.000001 -0.000006 0.000002 -0.000001 0.869771
    40 11.484729 0.001727 0.000005 -0.097395 0.015499 0.040094
    41 -5.381437 -17.332570 -5.112749 1.544563 0.000000 -0.000066
    42 -1.689684 2.709811 4.387621 0.000000 0.000000 0.000000
    43 -0.448134 1.576904 5.279871 1.544434 0.030232 1.564124
    44 0.233417 0.631622 6.176952 1.544434 0.030232 1.564124
    45 -0.951339 0.466229 6.136072 1.544434 0.030232 1.564124
  time 8
    0 0.000000 -0.000006 0.000000 -1.570781 -1.391896 -1.570809
    1 -4.875000 -0.206787 1.455078 1.596636 -1.286515 2.942963
    2 6.028144 0.000002 0.000002 0.033666 -1.156541 -2.013914
    3 11.692554 0.000081 -0.000006 -0.000003 0.000022 -0.624403
    4 11.482105 0.000429 -0.000029 -0.879690 0.311855 -0.763336
    5 3.859703 -0.142420 -1.191975 -0.489340 0.032119 -1.110105
    6 1.312559 -0.000008 0.000003 0.000000 -0.000003 -0.439723
    7 0.729369 -0.000006 0.000001 0.000001 -0.000003 -0.244304
    8 3.942329 0.046753 -0.431443 -0.168270 -0.006277 -1.293931
    9 1.539093 0.000004 -0.000006 -0.000002 0.000006 -0.247791
    10 1.196321 -0.000004 0.000003 0.000001 -0.000007 -0.430811
    11 3.883690 -0.046782 0.431443 0.053532 0.070672 -1.261345
    12 1.719578 -0.000011 0.000009 0.000002 0.005514 -0.366480
    13 1.209181 -0.000004 0.000004 0.000000 0.003091 -0.216394
    14 3.859856 -0.137962 1.332466 0.384689 0.117685 -1.290614
    15 1.719433 0.000002 -0.000005 -0.000004 0.004079 -0.363004
    16 1.099674 -0.000004 0.000003 0.000005 0.002595 -0.244332
    17 0.806042 -0.348928 1.321258 -1.222684 -0.679216 -0.788820
    18 1.789783 0.000002 -0.000008 -0.000001 0.243466 0.228522
    19 1.207001 -0.000001 0.000002 0.000002 -0.000001 0.362862
    20 11.484137 0.000873 -0.000005 -0.449837 0.194006 -0.066451
    21 -3.501953 -3.718750 -9.851563 -1.668474 1.286518 2.942953
    22 6.028141 0.000000 -0.000001 1.180504 0.386737 -1.854985
    23 11.692556 0.000000 -0.000001 -0.000002 0.000000 -1.406410
    24 11.481203 0.000403 -0.000008 -2.048115 0.227446 0.171110
    25 3.859678 -0.132545 1.193109 0.451074 -0.053982 -1.646216
    26 1.312561 -0.000004 -0.000001 0.000002 0.000001 -0.439674
    27 0.729364 -0.000004 -0.000002 -0.000001 0.000002 -1.254700
    28 3.942293 0.050345 0.431044 0.166894 0.030023 -1.468535
    29 1.539103 -0.000002 0.000001 0.000002 0.000001 -1.012265
    30 1.196321 -0.000004 -0.000003 -0.000001 -0.000001 -1.406099
    31 3.883657 -0.050307 -0.431042 0.006916 0.081090 -1.415334
    32 1.719585 0.000008 0.000006 0.007542 -0.002583 -1.607092
    33 1.209185 0.000002 0.000006 0.000002 -0.004469 -0.216370
    34 3.730921 0.233903 -1.374252 -0.351463 0.043928 -0.469680
    35 1.356137 0.492206 0.074232 -0.024014 0.169275 -0.939048
    36 1.099667 0.000002 0.000008 0.048841 0.282650 -0.943331
    37 0.806021 -0.359832 -1.318335 1.221406 0.673630 -0.793552
    38 1.789785 -0.000011 -0.000004 -0.000001 0.076542 0.859696
    39 1.207001 -0.000001 -0.000006 0.000002 -0.000001 0.869771
    40 11.484729 0.001727 0.000005 -0.097036 0.015295 0.040250
    41 -5.381437 -17.453667 -5.112749 1.545724 0.000000 -0.000066
    42 -1.689684 2.709811 4.387621 0.000000 0.000000 0.000000
    43 -0.448134 1.576904 5.279871 1.544434 0.030232 1.564124
    44 0.233417 0.631622 6.176952 1.544434 0.030232 1.564124
    45 -0.951339 0.466229 6.136072 1.544434 0.030232 1.564124
  time 9
    0 0.000000 -0.000006 0.000000 -1.570781 -1.391896 -1.570809
    1 -4.875000 -0.206787 1.455078 1.596636 -1.286515 2.942963
    2 6.028144 0.000002 0.000002 0.065027 -1.158911 -2.044545
    3 11.692554 0.000081 -0.000006 -0.000003 0.000022 -0.597160
    4 11.482105 0.000429 -0.000029 -0.884437 0.309060 -0.779167
    5 3.859703 -0.142420 -1.191975 -0.489340 0.032119 -1.110105
    6 1.312559 -0.000008 0.000003 0.000000 -0.000003 -0.439723
    7 0.729369 -0.000006 0.000001 0.000001 -0.000003 -0.244304
    8 3.942329 0.046753 -0.431443 -0.168270 -0.006277 -1.293931
    9 1.539093 0.000004 -0.000006 -0.000002 0.000006 -0.247791
    10 1.196321 -0.000004 0.000003 0.000001 -0.000007 -0.430811
    11 3.883690 -0.046782 0.431443 0.053532 0.070672 -1.261345
    12 1.719578 -0.000011 0.000009 0.000002 0.005514 -0.366480
    13 1.209181 -0.000004 0.000004 0.000000 0.003091 -0.216394
    14 3.859856 -0.137962 1.332466 0.384689 0.117685 -1.290614
    15 1.719433 0.000002 -0.000005 -0.000004 0.004079 -0.363004
    16 1.099674 -0.000004 0.000003 0.000005 0.002595 -0.244332
    17 0.806042 -0.348928 1.321258 -1.222684 -0.679216 -0.788820
    18 1.789783 0.000002 -0.000008 -0.000001 0.243466 0.228522
    19 1.207001 -0.000001 0.000002 0.000002 -0.000001 0.362862
    20 11.484137 0.000873 -0.000005 -0.449798 0.197050 -0.068764
    21 -3.501953 -3.718750 -9.851563 -1.668474 1.286518 2.942953
    22 6.028141 0.000000 -0.000001 1.180754 0.394946 -1.856457
    23 11.692556 0.000000 -0.000001 -0.000002 0.000000 -1.399150
    24 11.481203 0.000403 -0.000008 -2.046387 0.226593 0.172496
    25 3.859678 -0.132545 1.193109 0.451074 -0.053982 -1.646216
    26 1.312561 -0.000004 -0.000001 0.000002 0.000001 -0.439674
    27 0.729364 -0.000004 -0.000002 -0.000001 0.000002 -1.254700
    28 3.942293 0.050345 0.431044 0.166894 0.030023 -1.468535
    29 1.539103 -0.000002 0.000001 0.000002 0.000001 -1.012265
    30 1.196321 -0.000004 -0.000003 -0.000001 -0.000001 -1.406099
    31 3.883657 -0.050307 -0.431042 0.006916 0.081090 -1.415334
    32 1.719585 0.000008 0.000006 0.007542 -0.002583 -1.607092
    33 1.209185 0.000002 0.000006 0.000002 -0.004469 -0.216370
    34 3.730921 0.233903 -1.374252 -0.351678 0.043557 -0.474031
    35 1.356137 0.492206 0.074232 -0.022061 0.168232 -0.927650
    36 1.099667 0.000002 0.000008 0.052245 0.261940 -0.892917
    37 0.806021 -0.359832 -1.318335 1.221406 0.673630 -0.793552
    38 1.789785 -0.000011 -0.000004 -0.000001 0.076542 0.859696
    39 1.207001 -0.000001 -0.000006 0.000002 -0.000001 0.869771
    40 11.484729 0.001727 0.000005 -0.096712 0.015103 0.040429
    41 -5.385343 -17.566952 -5.112749 1.546968 0.000000 -0.000066
    42 -1.689684 2.709811 4.387621 0.000000 0.000000 0.000000
    43 -0.448134 1.576904 5.279871 1.544434 0.030232 1.564124
    44 0.233417 0.631622 6.176952 1.544434 0.030232 1.564124
    45 -0.951339 0.466229 6.136072 1.544434 0.030232 1.564124
  time 10
    0 0.000000 -0.000006 0.000000 -1.570781 -1.391896 -1.570809
    1 -4.875000 -0.206787 1.455078 1.596636 -1.286515 2.942963
    2 6.028144 0.000002 0.000002 0.094673 -1.160545 -2.073830
    3 11.692554 0.000081 -0.000006 -0.000003 0.000022 -0.571556
    4 11.482105 0.000429 -0.000029 -0.888753 0.306599 -0.793758
    5 3.859703 -0.142420 -1.191975 -0.489340 0.032119 -1.110105
    6 1.312559 -0.000008 0.000003 0.000000 -0.000003 -0.439723
    7 0.729369 -0.000006 0.000001 0.000001 -0.000003 -0.244304
    8 3.942329 0.046753 -0.431443 -0.168270 -0.006277 -1.293931
    9 1.539093 0.000004 -0.000006 -0.000002 0.000006 -0.247791
    10 1.196321 -0.000004 0.000003 0.000001 -0.000007 -0.430811
    11 3.883690 -0.046782 0.431443 0.053532 0.070672 -1.261345
    12 1.719578 -0.000011 0.000009 0.000002 0.005514 -0.366480
    13 1.209181 -0.000004 0.000004 0.000000 0.003091 -0.216394
    14 3.859856 -0.137962 1.332466 0.384689 0.117685 -1.290614
    15 1.719433 0.000002 -0.000005 -0.000004 0.004079 -0.363004
    16 1.099674 -0.000004 0.000003 0.000005 0.002595 -0.244332
    17 0.806042 -0.348928 1.321258 -1.222684 -0.679216 -0.788820
    18 1.789783 0.000002 -0.000008 -0.000001 0.243466 0.228522
    19 1.207001 -0.000001 0.000002 0.000002 -0.000001 0.362862
    20 11.484137 0.000873 -0.000005 -0.449720 0.199890 -0.070873
    21 -3.501953 -3.718750 -9.851563 -1.668474 1.286518 2.942953
    22 6.028141 0.000000 -0.000001 1.181067 0.402310 -1.857668
    23 11.692556 0.000000 -0.000001 -0.000002 0.000000 -1.392834
    24 11.481203 0.000403 -0.000008 -2.044828 0.225846 0.174055
    25 3.859678 -0.132545 1.193109 0.451074 -0.053982 -1.646239
    26 1.312561 -0.000004 -0.000001 0.000002 0.000001 -0.439674
    27 0.729364 -0.000004 -0.000002 -0.000001 0.000002 -1.254700
    28 3.942293 0.050345 0.431044 0.166894 0.030023 -1.468535
    29 1.539103 -0.000002 0.000001 0.000002 0.000001 -1.012265
    30 1.196321 -0.000004 -0.000003 -0.000001 -0.000001 -1.406099
    31 3.883657 -0.050307 -0.431042 0.006916 0.081090 -1.415334
    32 1.719585 0.000008 0.000006 0.007542 -0.002583 -1.607092
    33 1.209185 0.000002 0.000006 0.000002 -0.004469 -0.216370
    34 3.730921 0.233903 -1.374252 -0.351894 0.043197 -0.478321
    35 1.356137 0.492206 0.074232 -0.020143 0.167190 -0.916418
    36 1.099667 0.000002 0.000008 0.054522 0.241331 -0.843432
    37 0.806021 -0.359832 -1.318335 1.221406 0.673630 -0.793552
    38 1.789785 -0.000011 -0.000004 -0.000001 0.076542 0.859696
    39 1.207001 -0.000001 -0.000006 0.000002 -0.000001 0.869771
    40 11.484729 0.001727 0.000005 -0.096401 0.014923 0.040657
    41 -5.389249 -17.668517 -5.112749 1.548293 0.000000 -0.000066
    42 -1.689684 2.709811 4.387621 0.000000 0.000000 0.000000
    43 -0.448134 1.576904 5.279871 1.544434 0.030232 1.564124
    44 0.233417 0.631622 6.176952 1.544434 0.030232 1.564124
    45 -0.951339 0.466229 6.136072 1.544434 0.030232 1.564124
  time 11
    0 0.000000 -0.000006 0.000000 -1.570781 -1.391896 -1.570809
    1 -4.875000 -0.206787 1.455078 1.596636 -1.286515 2.942963
    2 6.028144 0.000002 0.000002 0.122936 -1.161485 -2.101977
    3 11.692554 0.000081 -0.000006 -0.000003 0.000010 -0.547281
    4 11.482105 0.000429 -0.000029 -0.892708 0.304452 -0.807386
    5 3.859703 -0.142420 -1.191975 -0.489340 0.032119 -1.110105
    6 1.312559 -0.000008 0.000003 0.000000 -0.000003 -0.439723
    7 0.729369 -0.000006 0.000001 0.000001 -0.000003 -0.244304
    8 3.942329 0.046753 -0.431443 -0.168270 -0.006277 -1.293931
    9 1.539093 0.000004 -0.000006 -0.000002 0.000006 -0.247791
    10 1.196321 -0.000004 0.000003 0.000001 -0.000007 -0.430811
    11 3.883690 -0.046782 0.431443 0.053532 0.070672 -1.261345
    12 1.719578 -0.000011 0.000009 0.000002 0.005514 -0.366480
    13 1.209181 -0.000004 0.000004 0.000000 0.003091 -0.216394
    14 3.859856 -0.137962 1.332466 0.384689 0.117685 -1.290614
    15 1.719433 0.000002 -0.000005 -0.000004 0.004079 -0.363004
    16 1.099674 -0.000004 0.000003 0.000005 0.002595 -0.244332
    17 0.806042 -0.348928 1.321258 -1.222684 -0.679216 -0.788820
    18 1.789783 0.000002 -0.000008 -0.000001 0.243466 0.228522
    19 1.207001 -0.000001 0.000002 0.000002 -0.000001 0.362862
    20 11.484137 0.000873 -0.000005 -0.449602 0.202563 -0.072802
    21 -3.501953 -3.718750 -9.851563 -1.668474 1.286518 2.942953
    22 6.028141 0.000000 -0.000001 1.181316 0.408971 -1.858707
    23 11.692556 0.000000 -0.000001 -0.000002 0.000000 -1.387522
    24 11.481203 0.000403 -0.000008 -2.043353 0.225260 0.175787
    25 3.859678 -0.132545 1.193109 0.451074 -0.053982 -1.646216
    26 1.312561 -0.000004 -0.000001 0.000002 0.000001 -0.439674
    27 0.729364 -0.000004 -0.000002 -0.000001 0.000002 -1.254700
    28 3.942293 0.050345 0.431044 0.166894 0.030023 -1.468535
    29 1.539103 -0.000002 0.000001 0.000002 0.000001 -1.012265
    30 1.196321 -0.000004 -0.000003 -0.000001 -0.000001 -1.406099
    31 3.883657 -0.050307 -0.431042 0.006916 0.081090 -1.415334
    32 1.719585 0.000008 0.000006 0.007542 -0.002583 -1.607092
    33 1.209185 0.000002 0.000006 0.000002 -0.004469 -0.216370
    34 3.730921 0.233903 -1.374252 -0.352098 0.042838 -0.482528
    35 1.356137 0.492206 0.074232 -0.018274 0.166135 -0.905417
    36 1.099667 0.000002 0.000008 0.055732 0.220972 -0.795029
    37 0.806021 -0.359832 -1.318335 1.221406 0.673630 -0.793552
    38 1.789785 -0.000011 -0.000004 -0.000001 0.076542 0.859696
    39 1.207001 -0.000001 -0.000006 0.000002 -0.000001 0.869771
    40 11.484729 0.001727 0.000005 -0.096125 0.014768 0.040945
    41 -5.397062 -17.758364 -5.112749 1.549699 0.000000 -0.000066
    42 -1.689684 2.709811 4.387621 0.000000 0.000000 0.000000
    43 -0.448134 1.576904 5.279871 1.544434 0.030232 1.564124
    44 0.233417 0.631622 6.176952 1.544434 0.030232 1.564124
    45 -0.951339 0.466229 6.136072 1.544434 0.030232 1.564124
  time 12
    0 0.000000 -0.000006 0.000000 -1.570781 -1.391896 -1.570809
    1 -4.875000 -0.206787 1.455078 1.596636 -1.286515 2.942963
    2 6.028144 0.000002 0.000002 0.149983 -1.161852 -2.129142
    3 11.692554 0.000081 -0.000006 -0.000003 0.000010 -0.524070
    4 11.482105 0.000429 -0.000029 -0.896304 0.302602 -0.820188
    5 3.859703 -0.142420 -1.191975 -0.489340 0.032119 -1.110105
    6 1.312559 -0.000008 0.000003 0.000000 -0.000003 -0.439723
    7 0.729369 -0.000006 0.000001 0.000001 -0.000003 -0.244304
    8 3.942329 0.046753 -0.431443 -0.168270 -0.006277 -1.293931
    9 1.539093 0.000004 -0.000006 -0.000002 0.000006 -0.247791
    10 1.196321 -0.000004 0.000003 0.000001 -0.000007 -0.430811
    11 3.883690 -0.046782 0.431443 0.053532 0.070672 -1.261345
    12 1.719578 -0.000011 0.000009 0.000002 0.005514 -0.366480
    13 1.209181 -0.000004 0.000004 0.000000 0.003091 -0.216394
    14 3.859856 -0.137962 1.332466 0.384689 0.117685 -1.290614
    15 1.719433 0.000002 -0.000005 -0.000004 0.004079 -0.363004
    16 1.099674 -0.000004 0.000003 0.000005 0.002595 -0.244332
    17 0.806042 -0.348928 1.321258 -1.222684 -0.679216 -0.788820
    18 1.789783 0.000002 -0.000008 -0.000001 0.243466 0.228522
    19 1.207001 -0.000001 0.000002 0.000002 -0.000001 0.362862
    20 11.484137 0.000873 -0.000005 -0.449445 0.205080 -0.074576
    21 -3.501953 -3.718750 -9.851563 -1.668474 1.286518 2.942953
    22 6.028141 0.000000 -0.000001 1.181566 0.414834 -1.859659
    23 11.692556 0.000000 -0.000001 -0.000002 0.000000 -1.383095
    24 11.481203 0.000403 -0.000008 -2.042005 0.224833 0.177657
    25 3.859678 -0.132545 1.193109 0.451074 -0.053982 -1.646216
    26 1.312561 -0.000004 -0.000001 0.000002 0.000001 -0.439674
    27 0.729364 -0.000004 -0.000002 -0.000001 0.000002 -1.254700
    28 3.942293 0.050345 0.431044 0.166894 0.030023 -1.468535
    29 1.539103 -0.000002 0.000001 0.000002 0.000001 -1.012265
    30 1.196321 -0.000004 -0.000003 -0.000001 -0.000001 -1.406099
    31 3.883657 -0.050307 -0.431042 0.006916 0.081090 -1.415334
    32 1.719585 0.000008 0.000006 0.007542 -0.002583 -1.607092
    33 1.209185 0.000002 0.000006 0.000002 -0.004469 -0.216370
    34 3.730921 0.233903 -1.374252 -0.352302 0.042490 -0.486638
    35 1.356137 0.492206 0.074232 -0.016464 0.165092 -0.894648
    36 1.099667 0.000002 0.000008 0.055936 0.200991 -0.747825
    37 0.806021 -0.359832 -1.318335 1.221406 0.673630 -0.793552
    38 1.789785 -0.000011 -0.000004 -0.000001 0.076542 0.859696
    39 1.207001 -0.000001 -0.000006 0.000002 -0.000001 0.869771
    40 11.484729 0.001727 0.000005 -0.095861 0.014636 0.041256
    41 -5.404875 -17.840398 -5.112749 1.551146 0.000000 -0.000066
    42 -1.689684 2.709811 4.387621 0.000000 0.000000 0.000000
    43 -0.448134 1.576904 5.279871 1.544434 0.030232 1.564124
    44 0.233417 0.631622 6.176952 1.544434 0.030232 1.564124
    45 -0.951339 0.466229 6.136072 1.544434 0.030232 1.564124
  time 13
    0 0.000000 -0.000006 0.000000 -1.570781 -1.391896 -1.570809
    1 -4.875000 -0.206787 1.455078 1.596636 -1.286515 2.942963
    2 6.028144 0.000002 0.000002 0.174927 -1.161730 -2.154288
    3 11.692554 0.000081 -0.000006 -0.000003 0.000010 -0.502674
    4 11.482105 0.000429 -0.000029 -0.899541 0.301007 -0.831751
    5 3.859703 -0.142420 -1.191975 -0.489340 0.032119 -1.110105
    6 1.312559 -0.000008 0.000003 0.000000 -0.000003 -0.439723
    7 0.729369 -0.000006 0.000001 0.000001 -0.000003 -0.244304
    8 3.942329 0.046753 -0.431443 -0.168270 -0.006277 -1.293931
    9 1.539093 0.000004 -0.000006 -0.000002 0.000006 -0.247791
    10 1.196321 -0.000004 0.000003 0.000001 -0.000007 -0.430811
    11 3.883690 -0.046782 0.431443 0.053532 0.070672 -1.261345
    12 1.719578 -0.000011 0.000009 0.000002 0.005514 -0.366480
    13 1.209181 -0.000004 0.000004 0.000000 0.003091 -0.216394
    14 3.859856 -0.137962 1.332466 0.384689 0.117685 -1.290614
    15 1.719433 0.000002 -0.000005 -0.000004 0.004079 -0.363004
    16 1.099674 -0.000004 0.000003 0.000005 0.002595 -0.244332
    17 0.806042 -0.348928 1.321258 -1.222684 -0.679216 -0.788820
    18 1.789783 0.000002 -0.000008 -0.000001 0.243466 0.228522
    19 1.207001 -0.000001 0.000002 0.000002 -0.000001 0.362862
    20 11.484137 0.000873 -0.000005 -0.449274 0.207381 -0.076158
    21 -3.501953 -3.718750 -9.851563 -1.668474 1.286518 2.942953
    22 6.028141 0.000000 -0.000001 1.181816 0.420041 -1.860438
    23 11.692556 0.000000 -0.000001 -0.000002 0.000000 -1.379554
    24 11.481203 0.000403 -0.000008 -2.040741 0.224540 0.179701
    25 3.859678 -0.132545 1.193109 0.451074 -0.053982 -1.646216
    26 1.312561 -0.000004 -0.000001 0.000002 0.000001 -0.439674
    27 0.729364 -0.000004 -0.000002 -0.000001 0.000002 -1.254700
    28 3.942293 0.050345 0.431044 0.166894 0.030023 -1.468535
    29 1.539103 -0.000002 0.000001 0.000002 0.000001 -1.012265
    30 1.196321 -0.000004 -0.000003 -0.000001 -0.000001 -1.406099
    31 3.883657 -0.050307 -0.431042 0.006916 0.081090 -1.415334
    32 1.719585 0.000008 0.000006 0.007542 -0.002583 -1.607092
    33 1.209185 0.000002 0.000006 0.000002 -0.004469 -0.216370
    34 3.730921 0.233903 -1.374252 -0.352493 0.042142 -0.490641
    35 1.356137 0.492206 0.074232 -0.014702 0.164050 -0.884142
    36 1.099667 0.000002 0.000008 0.055205 0.181525 -0.702012
    37 0.806021 -0.359832 -1.318335 1.221406 0.673630 -0.793552
    38 1.789785 -0.000011 -0.000004 -0.000001 0.076542 0.859696
    39 1.207001 -0.000001 -0.000006 0.000002 -0.000001 0.869771
    40 11.484729 0.001727 0.000005 -0.095634 0.014528 0.041616
    41 -5.412688 -17.914619 -5.108843 1.552614 0.000000 -0.000066
    42 -1.689684 2.709811 4.387621 0.000000 0.000000 0.000000
    43 -0.448134 1.576904 5.279871 1.544434 0.030232 1.564124
    44 0.233417 0.631622 6.176952 1.544434 0.030232 1.564124
    45 -0.951339 0.466229 6.136072 1.544434 0.030232 1.564124
  time 14
    0 0.000000 -0.000006 0.000000 -1.570781 -1.391896 -1.570809
    1 -4.875000 -0.206787 1.455078 1.596636 -1.286515 2.942963
    2 6.028144 0.000002 0.000002 0.197992 -1.161240 -2.177778
    3 11.692554 0.000081 -0.000006 -0.000003 0.000010 -0.482829
    4 11.482105 0.000429 -0.000029 -0.902418 0.299648 -0.842351
    5 3.859703 -0.142420 -1.191975 -0.489340 0.032119 -1.110105
    6 1.312559 -0.000008 0.000003 0.000000 -0.000003 -0.439723
    7 0.729369 -0.000006 0.000001 0.000001 -0.000003 -0.244304
    8 3.942329 0.046753 -0.431443 -0.168270 -0.006277 -1.293931
    9 1.539093 0.000004 -0.000006 -0.000002 0.000006 -0.247791
    10 1.196321 -0.000004 0.000003 0.000001 -0.000007 -0.430811
    11 3.883690 -0.046782 0.431443 0.053532 0.070672 -1.261345
    12 1.719578 -0.000011 0.000009 0.000002 0.005514 -0.366480
    13 1.209181 -0.000004 0.000004 0.000000 0.003091 -0.216394
    14 3.859856 -0.137962 1.332466 0.384689 0.117685 -1.290614
    15 1.719433 0.000002 -0.000005 -0.000004 0.004079 -0.363004
    16 1.099674 -0.000004 0.000003 0.000005 0.002595 -0.244332
    17 0.806042 -0.348928 1.321258 -1.222684 -0.679216 -0.788820
    18 1.789783 0.000002 -0.000008 -0.000001 0.243466 0.228522
    19 1.207001 -0.000001 0.000002 0.000002 -0.000001 0.362862
    20 11.484137 0.000873 -0.000005 -0.449104 0.209502 -0.077572
    21 -3.501953 -3.718750 -9.851563 -1.668474 1.286518 2.942953
    22 6.028141 0.000000 -0.000001 1.182066 0.424591 -1.861044
    23 11.692556 0.000000 -0.000001 -0.000002 0.000000 -1.376780
    24 11.481203 0.000403 -0.000008 -2.039603 0.224300 0.181849
    25 3.859678 -0.132545 1.193109 0.451074 -0.053982 -1.646216
    26 1.312561 -0.000004 -0.000001 0.000002 0.000001 -0.439674
    27 0.729364 -0.000004 -0.000002 -0.000001 0.000002 -1.254700
    28 3.942293 0.050345 0.431044 0.166894 0.030023 -1.468535
    29 1.539103 -0.000002 0.000001 0.000002 0.000001 -1.012265
    30 1.196321 -0.000004 -0.000003 -0.000001 -0.000001 -1.406099
    31 3.883657 -0.050307 -0.431042 0.006916 0.081090 -1.415334
    32 1.719585 0.000008 0.000006 0.007542 -0.002583 -1.607092
    33 1.209185 0.000002 0.000006 0.000002 -0.004469 -0.216370
    34 3.730921 0.233903 -1.374252 -0.352685 0.041819 -0.494548
    35 1.356137 0.492206 0.074232 -0.013012 0.163031 -0.873934
    36 1.099667 0.000002 0.000008 0.053647 0.162675 -0.657630
    37 0.806021 -0.359832 -1.318335 1.221406 0.673630 -0.793552
    38 1.789785 -0.000011 -0.000004 -0.000001 0.076542 0.859696
    39 1.207001 -0.000001 -0.000006 0.000002 -0.000001 0.869771
    40 11.484729 0.001727 0.000005 -0.095418 0.014420 0.041987
    41 -5.420500 -17.981027 -5.108843 1.554122 0.000000 -0.000066
    42 -1.689684 2.709811 4.387621 0.000000 0.000000 0.000000
    43 -0.448134 1.576904 5.279871 1.544434 0.030232 1.564124
    44 0.233417 0.631622 6.176952 1.544434 0.030232 1.564124
    45 -0.951339 0.466229 6.136072 1.544434 0.030232 1.564124
  time 15
    0 0.000000 -0.000006 0.000000 -1.570781 -1.391896 -1.570809
    1 -4.875000 -0.206787 1.455078 1.596636 -1.286515 2.942963
    2 6.028144 0.000002 0.000002 0.219452 -1.160382 -2.199872
    3 11.692554 0.000081 -0.000006 -0.000003 0.000010 -0.464180
    4 11.482105 0.000429 -0.000029 -0.905079 0.298526 -0.852125
    5 3.859703 -0.142420 -1.191975 -0.489340 0.032119 -1.110105
    6 1.312559 -0.000008 0.000003 0.000000 -0.000003 -0.439723
    7 0.729369 -0.000006 0.000001 0.000001 -0.000003 -0.244304
    8 3.942329 0.046753 -0.431443 -0.168270 -0.006277 -1.293931
    9 1.539093 0.000004 -0.000006 -0.000002 0.000006 -0.247791
    10 1.196321 -0.000004 0.000003 0.000001 -0.000007 -0.430811
    11 3.883690 -0.046782 0.431443 0.053532 0.070672 -1.261365
    12 1.719578 -0.000011 0.000009 0.000002 0.005514 -0.366480
    13 1.209181 -0.000004 0.000004 0.000000 0.003091 -0.216394
    14 3.859856 -0.137962 1.332466 0.384689 0.117685 -1.290614
    15 1.719433 0.000002 -0.000005 -0.000004 0.004079 -0.363004
    16 1.099674 -0.000004 0.000003 0.000005 0.002595 -0.244332
    17 0.806042 -0.348928 1.321258 -1.222684 -0.679216 -0.788820
    18 1.789783 0.000002 -0.000008 -0.000001 0.243466 0.228522
    19 1.207001 -0.000001 0.000002 0.000002 -0.000001 0.362862
    20 11.484137 0.000873 -0.000005 -0.448908 0.211468 -0.078843
    21 -3.501953 -3.718750 -9.851563 -1.668474 1.286518 2.942953
    22 6.028141 0.000000 -0.000001 1.182316 0.428578 -1.861477
    23 11.692556 0.000000 -0.000001 -0.000002 0.000000 -1.374714
    24 11.481203 0.000403 -0.000008 -2.038507 0.224167 0.184101
    25 3.859678 -0.132545 1.193109 0.451074 -0.053982 -1.646216
    26 1.312561 -0.000004 -0.000001 0.000002 0.000001 -0.439674
    27 0.729364 -0.000004 -0.000002 -0.000001 0.000002 -1.254700
    28 3.942293 0.050345 0.431044 0.166894 0.030023 -1.468535
    29 1.539103 -0.000002 0.000001 0.000002 0.000001 -1.012265
    30 1.196321 -0.000004 -0.000003 -0.000001 -0.000001 -1.406099
    31 3.883657 -0.050307 -0.431042 0.006916 0.081090 -1.415334
    32 1.719585 0.000008 0.000006 0.007542 -0.002583 -1.607092
    33 1.209185 0.000002 0.000006 0.000002 -0.004469 -0.216370
    34 3.730921 0.233903 -1.374252 -0.352865 0.041483 -0.498323
    35 1.356137 0.492206 0.074232 -0.011370 0.162012 -0.864056
    36 1.099667 0.000002 0.000008 0.051334 0.144529 -0.614833
    37 0.806021 -0.359832 -1.318335 1.221406 0.673630 -0.793552
    38 1.789785 -0.000011 -0.000004 -0.000001 0.076542 0.859696
    39 1.207001 -0.000001 -0.000006 0.000002 -0.000001 0.869771
    40 11.484729 0.001727 0.000005 -0.095214 0.014324 0.042395
    41 -5.428313 -18.035716 -5.108843 1.555651 0.000000 -0.000066
    42 -1.689684 2.709811 4.387621 0.000000 0.000000 0.000000
    43 -0.448134 1.576904 5.279871 1.544434 0.030232 1.564124
    44 0.233417 0.631622 6.176952 1.544434 0.030232 1.564124
    45 -0.951339 0.466229 6.136072 1.544434 0.030232 1.564124
  time 16
    0 0.000000 -0.000006 0.000000 -1.570781 -1.391896 -1.570809
    1 -4.875000 -0.206787 1.455078 1.596636 -1.286515 2.942963
    2 6.028144 0.000002 0.000002 0.238589 -1.159319 -2.219689
    3 11.692554 0.000081 -0.000006 -0.000003 0.000010 -0.447480
    4 11.482105 0.000429 -0.000029 -0.907380 0.297581 -0.860705
    5 3.859703 -0.142420 -1.191975 -0.489340 0.032119 -1.110105
    6 1.312559 -0.000008 0.000003 0.000000 -0.000003 -0.439723
    7 0.729369 -0.000006 0.000001 0.000001 -0.000003 -0.244304
    8 3.942329 0.046753 -0.431443 -0.168270 -0.006277 -1.293931
    9 1.539093 0.000004 -0.000006 -0.000002 0.000006 -0.247791
    10 1.196321 -0.000004 0.000003 0.000001 -0.000007 -0.430811
    11 3.883690 -0.046782 0.431443 0.053532 0.070672 -1.261345
    12 1.719578 -0.000011 0.000009 0.000002 0.005514 -0.366480
    13 1.209181 -0.000004 0.000004 0.000000 0.003091 -0.216394
    14 3.859856 -0.137962 1.332466 0.384689 0.117685 -1.290614
    15 1.719433 0.000002 -0.000005 -0.000004 0.004079 -0.363004
    16 1.099674 -0.000004 0.000003 0.000005 0.002595 -0.244332
    17 0.806042 -0.348928 1.321258 -1.222684 -0.679216 -0.788820
    18 1.789783 0.000002 -0.000008 -0.000001 0.243466 0.228522
    19 1.207001 -0.000001 0.000002 0.000002 -0.000001 0.362862
    20 11.484137 0.000873 -0.000005 -0.448725 0.213217 -0.079957
    21 -3.501953 -3.718750 -9.851563 -1.668474 1.286518 2.942953
    22 6.028141 0.000000 -0.000001 1.182566 0.431955 -1.861823
    23 11.692556 0.000000 -0.000001 -0.000002 0.000000 -1.373356
    24 11.481203 0.000403 -0.000008 -2.037580 0.224113 0.186456
    25 3.859678 -0.132545 1.193109 0.451074 -0.053982 -1.646216
    26 1.312561 -0.000004 -0.000001 0.000002 0.000001 -0.439674
    27 0.729364 -0.000004 -0.000002 -0.000001 0.000002 -1.254700
    28 3.942293 0.050345 0.431044 0.166894 0.030023 -1.468535
    29 1.539103 -0.000002 0.000001 0.000002 0.000001 -1.012265
    30 1.196321 -0.000004 -0.000003 -0.000001 -0.000001 -1.406099
    31 3.883657 -0.050307 -0.431042 0.006916 0.081090 -1.415359
    32 1.719585 0.000008 0.000006 0.007542 -0.002583 -1.607092
    33 1.209185 0.000002 0.000006 0.000002 -0.004469 -0.216370
    34 3.730921 0.233903 -1.374252 -0.353045 0.041172 -0.501967
    35 1.356137 0.492206 0.074232 -0.009812 0.161017 -0.854509
    36 1.099667 0.000002 0.000008 0.048374 0.127161 -0.573659
    37 0.806021 -0.359832 -1.318335 1.221406 0.673630 -0.793552
    38 1.789785 -0.000011 -0.000004 -0.000001 0.076542 0.859696
    39 1.207001 -0.000001 -0.000006 0.000002 -0.000001 0.869771
    40 11.484729 0.001727 0.000005 -0.095046 0.014240 0.042838
    41 -5.440032 -18.086499 -5.108843 1.557160 0.000000 -0.000066
    42 -1.689684 2.709811 4.387621 0.000000 0.000000 0.000000
    43 -0.448134 1.576904 5.279871 1.544434 0.030232 1.564124
    44 0.233417 0.631622 6.176952 1.544434 0.030232 1.564124
    45 -0.951339 0.466229 6.136072 1.544434 0.030232 1.564124
  time 17
    0 0.000000 -0.000006 0.000000 -1.570781 -1.391896 -1.570809
    1 -4.875000 -0.206787 1.455078 1.596636 -1.286515 2.942963
    2 6.028144 0.000002 0.000002 0.255680 -1.158134 -2.237488
    3 11.692554 0.000081 -0.000006 -0.000003 0.000010 -0.432419
    4 11.482105 0.000429 -0.000029 -0.909466 0.296813 -0.868322
    5 3.859703 -0.142420 -1.191975 -0.489340 0.032119 -1.110105
    6 1.312559 -0.000008 0.000003 0.000000 -0.000003 -0.439723
    7 0.729369 -0.000006 0.000001 0.000001 -0.000003 -0.244304
    8 3.942329 0.046753 -0.431443 -0.168270 -0.006277 -1.293931
    9 1.539093 0.000004 -0.000006 -0.000002 0.000006 -0.247791
    10 1.196321 -0.000004 0.000003 0.000001 -0.000007 -0.430811
    11 3.883690 -0.046782 0.431443 0.053532 0.070672 -1.261345
    12 1.719578 -0.000011 0.000009 0.000002 0.005514 -0.366480
    13 1.209181 -0.000004 0.000004 0.000000 0.003091 -0.216394
    14 3.859856 -0.137962 1.332466 0.384689 0.117685 -1.290614
    15 1.719433 0.000002 -0.000005 -0.000004 0.004079 -0.363004
    16 1.099674 -0.000004 0.000003 0.000005 0.002595 -0.244332
    17 0.806042 -0.348928 1.321258 -1.222684 -0.679216 -0.788820
    18 1.789783 0.000002 -0.000008 -0.000001 0.243466 0.228522
    19 1.207001 -0.000001 0.000002 0.000002 -0.000001 0.362862
    20 11.484137 0.000873 -0.000005 -0.448554 0.214763 -0.080904
    21 -3.501953 -3.718750 -9.851563 -1.668474 1.286518 2.942953
    22 6.028141 0.000000 -0.000001 1.182754 0.434817 -1.862083
    23 11.692556 0.000000 -0.000001 -0.000002 0.000000 -1.372589
    24 11.481203 0.000403 -0.000008 -2.036695 0.224167 0.188881
    25 3.859678 -0.132545 1.193109 0.451074 -0.053982 -1.646216
    26 1.312561 -0.000004 -0.000001 0.000002 0.000001 -0.439674
    27 0.729364 -0.000004 -0.000002 -0.000001 0.000002 -1.254700
    28 3.942293 0.050345 0.431044 0.166894 0.030023 -1.468535
    29 1.539103 -0.000002 0.000001 0.000002 0.000001 -1.012265
    30 1.196321 -0.000004 -0.000003 -0.000001 -0.000001 -1.406099
    31 3.883657 -0.050307 -0.431042 0.006916 0.081090 -1.415334
    32 1.719585 0.000008 0.000006 0.007542 -0.002583 -1.607092
    33 1.209185 0.000002 0.000006 0.000002 -0.004469 -0.216370
    34 3.730921 0.233903 -1.374252 -0.353213 0.040872 -0.505478
    35 1.356137 0.492206 0.074232 -0.008314 0.160059 -0.845325
    36 1.099667 0.000002 0.000008 0.044874 0.110674 -0.534303
    37 0.806021 -0.359832 -1.318335 1.221406 0.673630 -0.793552
    38 1.789785 -0.000011 -0.000004 -0.000001 0.076542 0.859696
    39 1.207001 -0.000001 -0.000006 0.000002 -0.000001 0.869771
    40 11.484729 0.001727 0.000005 -0.094891 0.014180 0.043294
    41 -5.447845 -18.133375 -5.108843 1.558668 0.000000 -0.000066
    42 -1.689684 2.709811 4.387621 0.000000 0.000000 0.000000
    43 -0.448134 1.576904 5.279871 1.544434 0.030232 1.564124
    44 0.233417 0.631622 6.176952 1.544434 0.030232 1.564124
    45 -0.951339 0.466229 6.136072 1.544434 0.030232 1.564124
  time 18
    0 0.000000 -0.000006 0.000000 -1.570781 -1.391896 -1.570809
    1 -4.875000 -0.206787 1.455078 1.596636 -1.286515 2.942963
    2 6.028144 0.000002 0.000002 0.271056 -1.156827 -2.253683
    3 11.692554 0.000081 -0.000006 -0.000003 0.000010 -0.418731
    4 11.482105 0.000429 -0.000029 -0.911336 0.296222 -0.875067
    5 3.859703 -0.142420 -1.191975 -0.489340 0.032119 -1.110105
    6 1.312559 -0.000008 0.000003 0.000000 -0.000003 -0.439723
    7 0.729369 -0.000006 0.000001 0.000001 -0.000003 -0.244304
    8 3.942329 0.046753 -0.431443 -0.168270 -0.006277 -1.293931
    9 1.539093 0.000004 -0.000006 -0.000002 0.000006 -0.247791
    10 1.196321 -0.000004 0.000003 0.000001 -0.000007 -0.430811
    11 3.883690 -0.046782 0.431443 0.053532 0.070672 -1.261345
    12 1.719578 -0.000011 0.000009 0.000002 0.005514 -0.366480
    13 1.209181 -0.000004 0.000004 0.000000 0.003091 -0.216394
    14 3.859856 -0.137962 1.332466 0.384689 0.117685 -1.290614
    15 1.719433 0.000002 -0.000005 -0.000004 0.004079 -0.363004
    16 1.099674 -0.000004 0.000003 0.000005 0.002595 -0.244332
    17 0.806042 -0.348928 1.321258 -1.222684 -0.679216 -0.788820
    18 1.789783 0.000002 -0.000008 -0.000001 0.243466 0.228522
    19 1.207001 -0.000001 0.000002 0.000002 -0.000001 0.362862
    20 11.484137 0.000873 -0.000005 -0.448397 0.216153 -0.081743
    21 -3.501953 -3.718750 -9.851563 -1.668474 1.286518 2.942953
    22 6.028141 0.000000 -0.000001 1.183004 0.437209 -1.862256
    23 11.692556 0.000000 -0.000001 -0.000002 0.000000 -1.372353
    24 11.481203 0.000403 -0.000008 -2.035895 0.224273 0.191340
    25 3.859678 -0.132545 1.193109 0.451074 -0.053982 -1.646216
    26 1.312561 -0.000004 -0.000001 0.000002 0.000001 -0.439674
    27 0.729364 -0.000004 -0.000002 -0.000001 0.000002 -1.254700
    28 3.942293 0.050345 0.431044 0.166894 0.030023 -1.468535
    29 1.539103 -0.000002 0.000001 0.000002 0.000001 -1.012265
    30 1.196321 -0.000004 -0.000003 -0.000001 -0.000001 -1.406099
    31 3.883657 -0.050307 -0.431042 0.006916 0.081090 -1.415334
    32 1.719585 0.000008 0.000006 0.007542 -0.002583 -1.607092
    33 1.209185 0.000002 0.000006 0.000002 -0.004469 -0.216370
    34 3.730921 0.233903 -1.374252 -0.353368 0.040584 -0.508846
    35 1.356137 0.492206 0.074232 -0.006888 0.159112 -0.836538
    36 1.099667 0.000002 0.000008 0.040943 0.095091 -0.496802
    37 0.806021 -0.359832 -1.318335 1.221406 0.673630 -0.793552
    38 1.789785 -0.000011 -0.000004 -0.000001 0.076542 0.859696
    39 1.207001 -0.000001 -0.000006 0.000002 -0.000001 0.869771
    40 11.484729 0.001727 0.000005 -0.094759 0.014120 0.043761
    41 -5.459564 -18.168533 -5.108843 1.560156 0.000000 -0.000066
    42 -1.689684 2.709811 4.387621 0.000000 0.000000 0.000000
    43 -0.448134 1.576904 5.279871 1.544434 0.030232 1.564124
    44 0.233417 0.631622 6.176952 1.544434 0.030232 1.564124
    45 -0.951339 0.466229 6.136072 1.544434 0.030232 1.564124
  time 19
    0 0.000000 -0.000006 0.000000 -1.570781 -1.391896 -1.570809
    1 -4.875000 -0.206787 1.455078 1.596636 -1.286515 2.942963
    2 6.028144 0.000002 0.000002 0.284220 -1.155519 -2.267653
    3 11.692554 0.000081 -0.000006 -0.000003 0.000010 -0.406903
    4 11.482105 0.000429 -0.000029 -0.912918 0.295770 -0.880757
    5 3.859703 -0.142420 -1.191975 -0.489340 0.032119 -1.110105
    6 1.312559 -0.000008 0.000003 0.000000 -0.000003 -0.439723
    7 0.729369 -0.000006 0.000001 0.000001 -0.000003 -0.244304
    8 3.942329 0.046753 -0.431443 -0.168270 -0.006277 -1.293931
    9 1.539093 0.000004 -0.000006 -0.000002 0.000006 -0.247791
    10 1.196321 -0.000004 0.000003 0.000001 -0.000007 -0.430811
    11 3.883690 -0.046782 0.431443 0.053532 0.070672 -1.261345
    12 1.719578 -0.000011 0.000009 0.000002 0.005514 -0.366480
    13 1.209181 -0.000004 0.000004 0.000000 0.003091 -0.216394
    14 3.859856 -0.137962 1.332466 0.384689 0.117685 -1.290614
    15 1.719433 0.000002 -0.000005 -0.000004 0.004079 -0.363004
    16 1.099674 -0.000004 0.000003 0.000005 0.002595 -0.244332
    17 0.806042 -0.348928 1.321258 -1.222684 -0.679216 -0.788820
    18 1.789783 0.000002 -0.000008 -0.000001 0.243466 0.228522
    19 1.207001 -0.000001 0.000002 0.000002 -0.000001 0.362862
    20 11.484137 0.000873 -0.000005 -0.448266 0.217328 -0.082414
    21 -3.501953 -3.718750 -9.851563 -1.668474 1.286518 2.942953
    22 6.028141 0.000000 -0.000001 1.183254 0.439179 -1.862256
    23 11.692556 0.000000 -0.000001 -0.000002 0.000000 -1.372589
    24 11.481203 0.000403 -0.000008 -2.035178 0.224380 0.193800
    25 3.859678 -0.132545 1.193109 0.451074 -0.053982 -1.646216
    26 1.312561 -0.000004 -0.000001 0.000002 0.000001 -0.439674
    27 0.729364 -0.000004 -0.000002 -0.000001 0.000002 -1.254700
    28 3.942293 0.050345 0.431044 0.166894 0.030023 -1.468535
    29 1.539103 -0.000002 0.000001 0.000002 0.000001 -1.012265
    30 1.196321 -0.000004 -0.000003 -0.000001 -0.000001 -1.406099
    31 3.883657 -0.050307 -0.431042 0.006916 0.081090 -1.415334
    32 1.719585 0.000008 0.000006 0.007542 -0.002583 -1.607092
    33 1.209185 0.000002 0.000006 0.000002 -0.004469 -0.216370
    34 3.730921 0.233903 -1.374252 -0.353512 0.040309 -0.512034
    35 1.356137 0.492206 0.074232 -0.005534 0.158213 -0.828213
    36 1.099667 0.000002 0.000008 0.036689 0.080476 -0.461273
    37 0.806021 -0.359832 -1.318335 1.221406 0.673630 -0.793552
    38 1.789785 -0.000011 -0.000004 -0.000001 0.076542 0.859696
    39 1.207001 -0.000001 -0.000006 0.000002 -0.000001 0.869771
    40 11.484729 0.001727 0.000005 -0.094639 0.014061 0.044228
    41 -5.467377 -18.199784 -5.108843 1.561583 0.000000 -0.000066
    42 -1.689684 2.709811 4.387621 0.000000 0.000000 0.000000
    43 -0.448134 1.576904 5.279871 1.544434 0.030232 1.564124
    44 0.233417 0.631622 6.176952 1.544434 0.030232 1.564124
    45 -0.951339 0.466229 6.136072 1.544434 0.030232 1.564124
  time 20
    0 0.000000 -0.000006 0.000000 -1.570781 -1.391896 -1.570809
    1 -4.875000 -0.206787 1.455078 1.596636 -1.286515 2.942963
    2 6.028144 0.000002 0.000002 0.295448 -1.154252 -2.279657
    3 11.692554 0.000081 -0.000006 -0.000003 0.000010 -0.396759
    4 11.482105 0.000429 -0.000029 -0.914357 0.295435 -0.885529
    5 3.859703 -0.142420 -1.191975 -0.489340 0.032119 -1.110105
    6 1.312559 -0.000008 0.000003 0.000000 -0.000003 -0.439723
    7 0.729369 -0.000006 0.000001 0.000001 -0.000003 -0.244304
    8 3.942329 0.046753 -0.431443 -0.168270 -0.006277 -1.293931
    9 1.539093 0.000004 -0.000006 -0.000002 0.000006 -0.247791
    10 1.196321 -0.000004 0.000003 0.000001 -0.000007 -0.430811
    11 3.883690 -0.046782 0.431443 0.053532 0.070672 -1.261345
    12 1.719578 -0.000011 0.000009 0.000002 0.005514 -0.366480
    13 1.209181 -0.000004 0.000004 0.000000 0.003091 -0.216394
    14 3.859856 -0.137962 1.332466 0.384689 0.117685 -1.290614
    15 1.719433 0.000002 -0.000005 -0.000004 0.004079 -0.363004
    16 1.099674 -0.000004 0.000003 0.000005 0.002595 -0.244332
    17 0.806042 -0.348928 1.321258 -1.222684 -0.679216 -0.788820
    18 1.789783 0.000002 -0.000008 -0.000001 0.243466 0.228522
    19 1.207001 -0.000001 0.000002 0.000002 -0.000001 0.362862
    20 11.484137 0.000873 -0.000005 -0.448149 0.218335 -0.082977
    21 -3.501953 -3.718750 -9.851563 -1.668474 1.286518 2.942953
    22 6.028141 0.000000 -0.000001 1.183504 0.440727 -1.862256
    23 11.692556 0.000000 -0.000001 -0.000002 0.000000 -1.373238
    24 11.481203 0.000403 -0.000008 -2.034504 0.224567 0.196259
    25 3.859678 -0.132545 1.193109 0.451074 -0.053982 -1.646216
    26 1.312561 -0.000004 -0.000001 0.000002 0.000001 -0.439674
    27 0.729364 -0.000004 -0.000002 -0.000001 0.000002 -1.254700
    28 3.942293 0.050345 0.431044 0.166894 0.030023 -1.468535
    29 1.539103 -0.000002 0.000001 0.000002 0.000001 -1.012265
    30 1.196321 -0.000004 -0.000003 -0.000001 -0.000001 -1.406099
    31 3.883657 -0.050307 -0.431042 0.006916 0.081090 -1.415334
    32 1.719585 0.000008 0.000006 0.007542 -0.002583 -1.607092
    33 1.209185 0.000002 0.000006 0.000002 -0.004469 -0.216370
    34 3.730921 0.233903 -1.374252 -0.353656 0.040045 -0.515066
    35 1.356137 0.492206 0.074232 -0.004264 0.157350 -0.820284
    36 1.099667 0.000002 0.000008 0.032219 0.066891 -0.427832
    37 0.806021 -0.359832 -1.318335 1.221406 0.673630 -0.793552
    38 1.789785 -0.000011 -0.000004 -0.000001 0.076542 0.859696
    39 1.207001 -0.000001 -0.000006 0.000002 -0.000001 0.869771
    40 11.484729 0.001727 0.000005 -0.094531 0.014025 0.044696
    41 -5.479096 -18.227128 -5.108843 1.562969 0.000000 -0.000066
    42 -1.689684 2.709811 4.387621 0.000000 0.000000 0.000000
    43 -0.448134 1.576904 5.279871 1.544434 0.030232 1.564124
    44 0.233417 0.631622 6.176952 1.544434 0.030232 1.564124
    45 -0.951339 0.466229 6.136072 1.544434 0.030232 1.564124
  time 21
    0 0.000000 -0.000006 0.000000 -1.570781 -1.391896 -1.570809
    1 -4.875000 -0.206787 1.455078 1.596636 -1.286515 2.942963
    2 6.028144 0.000002 0.000002 0.304850 -1.153027 -2.289850
    3 11.692554 0.000081 -0.000006 -0.000003 0.000010 -0.388121
    4 11.482105 0.000429 -0.000029 -0.915508 0.295218 -0.889429
    5 3.859703 -0.142420 -1.191975 -0.489340 0.032119 -1.110105
    6 1.312559 -0.000008 0.000003 0.000000 -0.000003 -0.439723
    7 0.729369 -0.000006 0.000001 0.000001 -0.000003 -0.244304
    8 3.942329 0.046753 -0.431443 -0.168270 -0.006277 -1.293931
    9 1.539093 0.000004 -0.000006 -0.000002 0.000006 -0.247791
    10 1.196321 -0.000004 0.000003 0.000001 -0.000007 -0.430811
    11 3.883690 -0.046782 0.431443 0.053532 0.070672 -1.261345
    12 1.719578 -0.000011 0.000009 0.000002 0.005514 -0.366480
    13 1.209181 -0.000004 0.000004 0.000000 0.003091 -0.216394
    14 3.859856 -0.137962 1.332466 0.384689 0.117685 -1.290614
    15 1.719433 0.000002 -0.000005 -0.000004 0.004079 -0.363004
    16 1.099674 -0.000004 0.000003 0.000005 0.002595 -0.244332
    17 0.806042 -0.348928 1.321258 -1.222684 -0.679216 -0.788820
    18 1.789783 0.000002 -0.000008 -0.000001 0.243466 0.228522
    19 1.207001 -0.000001 0.000002 0.000002 -0.000001 0.362862
    20 11.484137 0.000873 -0.000005 -0.448057 0.219150 -0.083409
    21 -3.501953 -3.718750 -9.851563 -1.668474 1.286518 2.942953
    22 6.028141 0.000000 -0.000001 1.183754 0.441947 -1.862169
    23 11.692556 0.000000 -0.000001 -0.000002 0.000000 -1.374242
    24 11.481203 0.000403 -0.000008 -2.033956 0.224753 0.198650
    25 3.859678 -0.132545 1.193109 0.451074 -0.053982 -1.646216
    26 1.312561 -0.000004 -0.000001 0.000002 0.000001 -0.439674
    27 0.729364 -0.000004 -0.000002 -0.000001 0.000002 -1.254700
    28 3.942293 0.050345 0.431044 0.166894 0.030023 -1.468535
    29 1.539103 -0.000002 0.000001 0.000002 0.000001 -1.012265
    30 1.196321 -0.000004 -0.000003 -0.000001 -0.000001 -1.406099
    31 3.883657 -0.050307 -0.431042 0.006916 0.081090 -1.415334
    32 1.719585 0.000008 0.000006 0.007542 -0.002583 -1.607092
    33 1.209185 0.000002 0.000006 0.000002 -0.004469 -0.216370
    34 3.730921 0.233903 -1.374252 -0.353788 0.039793 -0.517906
    35 1.356137 0.492206 0.074232 -0.003077 0.156523 -0.812884
    36 1.099667 0.000002 0.000008 0.027640 0.054349 -0.396633
    37 0.806021 -0.359832 -1.318335 1.221406 0.673630 -0.793552
    38 1.789785 -0.000011 -0.000004 -0.000001 0.076542 0.859696
    39 1.207001 -0.000001 -0.000006 0.000002 -0.000001 0.869771
    40 11.484729 0.001727 0.000005 -0.094435 0.013977 0.045163
    41 -5.486909 -18.250566 -5.108843 1.564273 0.000000 -0.000066
    42 -1.689684 2.709811 4.387621 0.000000 0.000000 0.000000
    43 -0.448134 1.576904 5.279871 1.544434 0.030232 1.564124
    44 0.233417 0.631622 6.176952 1.544434 0.030232 1.564124
    45 -0.951339 0.466229 6.136072 1.544434 0.030232 1.564124
  time 22
    0 0.000000 -0.000006 0.000000 -1.570781 -1.391896 -1.570809
    1 -4.875000 -0.206787 1.455078 1.596636 -1.286515 2.942963
    2 6.028144 0.000002 0.000002 0.312483 -1.151923 -2.298232
    3 11.692554 0.000081 -0.000006 -0.000003 0.000010 -0.381034
    4 11.482105 0.000429 -0.000029 -0.916586 0.295100 -0.892550
    5 3.859703 -0.142420 -1.191975 -0.489340 0.032119 -1.110105
    6 1.312559 -0.000008 0.000003 0.000000 -0.000003 -0.439723
    7 0.729369 -0.000006 0.000001 0.000001 -0.000003 -0.244304
    8 3.942329 0.046753 -0.431443 -0.168270 -0.006277 -1.293931
    9 1.539093 0.000004 -0.000006 -0.000002 0.000006 -0.247791
    10 1.196321 -0.000004 0.000003 0.000001 -0.000007 -0.430811
    11 3.883690 -0.046782 0.431443 0.053532 0.070672 -1.261345
    12 1.719578 -0.000011 0.000009 0.000002 0.005514 -0.366480
    13 1.209181 -0.000004 0.000004 0.000000 0.003091 -0.216394
    14 3.859856 -0.137962 1.332466 0.384689 0.117685 -1.290614
    15 1.719433 0.000002 -0.000005 -0.000004 0.004079 -0.363004
    16 1.099674 -0.000004 0.000003 0.000005 0.002595 -0.244332
    17 0.806042 -0.348928 1.321258 -1.222684 -0.679216 -0.788820
    18 1.789783 0.000002 -0.000008 -0.000001 0.243466 0.228522
    19 1.207001 -0.000001 0.000002 0.000002 -0.000001 0.362862
    20 11.484137 0.000873 -0.000005 -0.447991 0.219821 -0.083744
    21 -3.501953 -3.718750 -9.851563 -1.668474 1.286518 2.942953
    22 6.028141 0.000000 -0.000001 1.183941 0.442838 -1.862083
    23 11.692556 0.000000 -0.000001 -0.000002 0.000000 -1.375422
    24 11.481203 0.000403 -0.000008 -2.033450 0.224993 0.200970
    25 3.859678 -0.132545 1.193109 0.451074 -0.053982 -1.646216
    26 1.312561 -0.000004 -0.000001 0.000002 0.000001 -0.439674
    27 0.729364 -0.000004 -0.000002 -0.000001 0.000002 -1.254700
    28 3.942293 0.050345 0.431044 0.166894 0.030023 -1.468535
    29 1.539103 -0.000002 0.000001 0.000002 0.000001 -1.012265
    30 1.196321 -0.000004 -0.000003 -0.000001 -0.000001 -1.406099
    31 3.883657 -0.050307 -0.431042 0.006916 0.081090 -1.415334
    32 1.719585 0.000008 0.000006 0.007542 -0.002583 -1.607092
    33 1.209185 0.000002 0.000006 0.000002 -0.004469 -0.216370
    34 3.730921 0.233903 -1.374252 -0.353908 0.039566 -0.520543
    35 1.356137 0.492206 0.074232 -0.001986 0.155756 -0.806013
    36 1.099667 0.000002 0.000008 0.023074 0.042901 -0.367754
    37 0.806021 -0.359832 -1.318335 1.221406 0.673630 -0.793552
    38 1.789785 -0.000011 -0.000004 -0.000001 0.076542 0.859696
    39 1.207001 -0.000001 -0.000006 0.000002 -0.000001 0.869771
    40 11.484729 0.001727 0.000005 -0.094363 0.013953 0.045619
    41 -5.494721 -18.266192 -5.108843 1.565496 0.000000 -0.000066
    42 -1.689684 2.709811 4.387621 0.000000 0.000000 0.000000
    43 -0.448134 1.576904 5.279871 1.544434 0.030232 1.564124
    44 0.233417 0.631622 6.176952 1.544434 0.030232 1.564124
    45 -0.951339 0.466229 6.136072 1.544434 0.030232 1.564124
  time 23
    0 0.000000 -0.000006 0.000000 -1.570781 -1.391896 -1.570809
    1 -4.875000 -0.206787 1.455078 1.596636 -1.286515 2.942963
    2 6.028144 0.000002 0.000002 0.318567 -1.150943 -2.305010
    3 11.692554 0.000081 -0.000006 -0.000003 0.000010 -0.375364
    4 11.482105 0.000429 -0.000029 -0.917378 0.295041 -0.894890
    5 3.859703 -0.142420 -1.191975 -0.489340 0.032119 -1.110105
    6 1.312559 -0.000008 0.000003 0.000000 -0.000003 -0.439723
    7 0.729369 -0.000006 0.000001 0.000001 -0.000003 -0.244304
    8 3.942329 0.046753 -0.431443 -0.168270 -0.006277 -1.293931
    9 1.539093 0.000004 -0.000006 -0.000002 0.000006 -0.247791
    10 1.196321 -0.000004 0.000003 0.000001 -0.000007 -0.430811
    11 3.883690 -0.046782 0.431443 0.053532 0.070672 -1.261345
    12 1.719578 -0.000011 0.000009 0.000002 0.005514 -0.366480
    13 1.209181 -0.000004 0.000004 0.000000 0.003091 -0.216394
    14 3.859856 -0.137962 1.332466 0.384689 0.117685 -1.290614
    15 1.719433 0.000002 -0.000005 -0.000004 0.004079 -0.363004
    16 1.099674 -0.000004 0.000003 0.000005 0.002595 -0.244332
    17 0.806042 -0.348928 1.321258 -1.222684 -0.679216 -0.788820
    18 1.789783 0.000002 -0.000008 -0.000001 0.243466 0.228522
    19 1.207001 -0.000001 0.000002 0.000002 -0.000001 0.362862
    20 11.484137 0.000873 -0.000005 -0.447952 0.220336 -0.083972
    21 -3.501953 -3.718750 -9.851563 -1.668474 1.286518 2.942953
    22 6.028141 0.000000 -0.000001 1.184129 0.443495 -1.861910
    23 11.692556 0.000000 -0.000001 -0.000002 0.000000 -1.376839
    24 11.481203 0.000403 -0.000008 -2.032987 0.225206 0.203187
    25 3.859678 -0.132545 1.193109 0.451074 -0.053982 -1.646216
    26 1.312561 -0.000004 -0.000001 0.000002 0.000001 -0.439674
    27 0.729364 -0.000004 -0.000002 -0.000001 0.000002 -1.254700
    28 3.942293 0.050345 0.431044 0.166894 0.030023 -1.468535
    29 1.539103 -0.000002 0.000001 0.000002 0.000001 -1.012265
    30 1.196321 -0.000004 -0.000003 -0.000001 -0.000001 -1.406099
    31 3.883657 -0.050307 -0.431042 0.006916 0.081090 -1.415334
    32 1.719585 0.000008 0.000006 0.007542 -0.002583 -1.607092
    33 1.209185 0.000002 0.000006 0.000002 -0.004469 -0.216370
    34 3.730921 0.233903 -1.374252 -0.354015 0.039350 -0.522976
    35 1.356137 0.492206 0.074232 -0.000992 0.155037 -0.799670
    36 1.099667 0.000002 0.000008 0.018616 0.032571 -0.341349
    37 0.806021 -0.359832 -1.318335 1.221406 0.673630 -0.793552
    38 1.789785 -0.000011 -0.000004 -0.000001 0.076542 0.859696
    39 1.207001 -0.000001 -0.000006 0.000002 -0.000001 0.869771
    40 11.484729 0.001727 0.000005 -0.094291 0.013917 0.046050
    41 -5.502534 -18.281817 -5.108843 1.566638 0.000000 -0.000066
    42 -1.689684 2.709811 4.387621 0.000000 0.000000 0.000000
    43 -0.448134 1.576904 5.279871 1.544434 0.030232 1.564124
    44 0.233417 0.631622 6.176952 1.544434 0.030232 1.564124
    45 -0.951339 0.466229 6.136072 1.544434 0.030232 1.564124
  time 24
    0 0.000000 -0.000006 0.000000 -1.570781 -1.391896 -1.570809
    1 -4.875000 -0.206787 1.455078 1.596636 -1.286515 2.942963
    2 6.028144 0.000002 0.000002 0.323213 -1.150085 -2.310287
    3 11.692554 0.000081 -0.000006 -0.000003 0.000010 -0.370934
    4 11.482105 0.000429 -0.000029 -0.918097 0.295061 -0.896633
    5 3.859703 -0.142420 -1.191975 -0.489340 0.032119 -1.110105
    6 1.312559 -0.000008 0.000003 0.000000 -0.000003 -0.439723
    7 0.729369 -0.000006 0.000001 0.000001 -0.000003 -0.244304
    8 3.942329 0.046753 -0.431443 -0.168270 -0.006277 -1.293931
    9 1.539093 0.000004 -0.000006 -0.000002 0.000006 -0.247791
    10 1.196321 -0.000004 0.000003 0.000001 -0.000007 -0.430811
    11 3.883690 -0.046782 0.431443 0.053532 0.070672 -1.261345
    12 1.719578 -0.000011 0.000009 0.000002 0.005514 -0.366480
    13 1.209181 -0.000004 0.000004 0.000000 0.003091 -0.216394
    14 3.859856 -0.137962 1.332466 0.384689 0.117685 -1.290614
    15 1.719433 0.000002 -0.000005 -0.000004 0.004079 -0.363004
    16 1.099674 -0.000004 0.000003 0.000005 0.002595 -0.244332
    17 0.806042 -0.348928 1.321258 -1.222684 -0.679216 -0.788820
    18 1.789783 0.000002 -0.000008 -0.000001 0.243466 0.228522
    19 1.207001 -0.000001 0.000002 0.000002 -0.000001 0.362862
    20 11.484137 0.000873 -0.000005 -0.447926 0.220720 -0.084128
    21 -3.501953 -3.718750 -9.851563 -1.668474 1.286518 2.942953
    22 6.028141 0.000000 -0.000001 1.184316 0.443870 -1.861737
    23 11.692556 0.000000 -0.000001 -0.000002 0.000000 -1.378374
    24 11.481203 0.000403 -0.000008 -2.032650 0.225473 0.205266
    25 3.859678 -0.132545 1.193109 0.451074 -0.053982 -1.646216
    26 1.312561 -0.000004 -0.000001 0.000002 0.000001 -0.439674
    27 0.729364 -0.000004 -0.000002 -0.000001 0.000002 -1.254700
    28 3.942293 0.050345 0.431044 0.166894 0.030023 -1.468535
    29 1.539103 -0.000002 0.000001 0.000002 0.000001 -1.012265
    30 1.196321 -0.000004 -0.000003 -0.000001 -0.000001 -1.406099
    31 3.883657 -0.050307 -0.431042 0.006916 0.081090 -1.415334
    32 1.719585 0.000008 0.000006 0.007542 -0.002583 -1.607092
    33 1.209185 0.000002 0.000006 0.000002 -0.004469 -0.216370
    34 3.730921 0.233903 -1.374252 -0.354123 0.039158 -0.525169
    35 1.356137 0.492206 0.074232 -0.000081 0.154390 -0.793955
    36 1.099667 0.000002 0.000008 0.014386 0.023385 -0.317650
    37 0.806021 -0.359832 -1.318335 1.221406 0.673630 -0.793552
    38 1.789785 -0.000011 -0.000004 -0.000001 0.076542 0.859696
    39 1.207001 -0.000001 -0.000006 0.000002 -0.000001 0.869771
    40 11.484729 0.001727 0.000005 -0.094243 0.013893 0.046458
    41 -5.510347 -18.289630 -5.108843 1.567657 0.000000 -0.000066
    42 -1.689684 2.709811 4.387621 0.000000 0.000000 0.000000
    43 -0.448134 1.576904 5.279871 1.544434 0.030232 1.564124
    44 0.233417 0.631622 6.176952 1.544434 0.030232 1.564124
    45 -0.951339 0.466229 6.136072 1.544434 0.030232 1.564124
  time 25
    0 0.000000 -0.000006 0.000000 -1.570781 -1.391896 -1.570809
    1 -4.875000 -0.206787 1.455078 1.596636 -1.286515 2.942963
    2 6.028144 0.000002 0.000002 0.326808 -1.149349 -2.314479
    3 11.692554 0.000081 -0.000006 -0.000003 0.000010 -0.367434
    4 11.482105 0.000429 -0.000029 -0.918672 0.295100 -0.897872
    5 3.859703 -0.142420 -1.191975 -0.489340 0.032119 -1.110105
    6 1.312559 -0.000008 0.000003 0.000000 -0.000003 -0.439723
    7 0.729369 -0.000006 0.000001 0.000001 -0.000003 -0.244304
    8 3.942329 0.046753 -0.431443 -0.168270 -0.006277 -1.293931
    9 1.539093 0.000004 -0.000006 -0.000002 0.000006 -0.247791
    10 1.196321 -0.000004 0.000003 0.000001 -0.000007 -0.430811
    11 3.883690 -0.046782 0.431443 0.053532 0.070672 -1.261365
    12 1.719578 -0.000011 0.000009 0.000002 0.005514 -0.366480
    13 1.209181 -0.000004 0.000004 0.000000 0.003091 -0.216394
    14 3.859856 -0.137962 1.332466 0.384689 0.117685 -1.290614
    15 1.719433 0.000002 -0.000005 -0.000004 0.004079 -0.363004
    16 1.099674 -0.000004 0.000003 0.000005 0.002595 -0.244332
    17 0.806042 -0.348928 1.321258 -1.222684 -0.679216 -0.788820
    18 1.789783 0.000002 -0.000008 -0.000001 0.243466 0.228522
    19 1.207001 -0.000001 0.000002 0.000002 -0.000001 0.362862
    20 11.484137 0.000873 -0.000005 -0.447913 0.221007 -0.084224
    21 -3.501953 -3.718750 -9.851563 -1.668474 1.286518 2.942953
    22 6.028141 0.000000 -0.000001 1.184504 0.444104 -1.861563
    23 11.692556 0.000000 -0.000001 -0.000002 0.000000 -1.379849
    24 11.481203 0.000403 -0.000008 -2.032355 0.225713 0.207136
    25 3.859678 -0.132545 1.193109 0.451074 -0.053982 -1.646216
    26 1.312561 -0.000004 -0.000001 0.000002 0.000001 -0.439674
    27 0.729364 -0.000004 -0.000002 -0.000001 0.000002 -1.254700
    28 3.942293 0.050345 0.431044 0.166894 0.030023 -1.468535
    29 1.539103 -0.000002 0.000001 0.000002 0.000001 -1.012265
    30 1.196321 -0.000004 -0.000003 -0.000001 -0.000001 -1.406099
    31 3.883657 -0.050307 -0.431042 0.006916 0.081090 -1.415334
    32 1.719585 0.000008 0.000006 0.007542 -0.002583 -1.607092
    33 1.209185 0.000002 0.000006 0.000002 -0.004469 -0.216370
    34 3.730921 0.233903 -1.374252 -0.354207 0.038990 -0.527098
    35 1.356137 0.492206 0.074232 0.000698 0.153803 -0.788933
    36 1.099667 0.000002 0.000008 0.010491 0.015405 -0.296773
    37 0.806021 -0.359832 -1.318335 1.221406 0.673630 -0.793552
    38 1.789785 -0.000011 -0.000004 -0.000001 0.076542 0.859696
    39 1.207001 -0.000001 -0.000006 0.000002 -0.000001 0.869771
    40 11.484729 0.001727 0.000005 -0.094196 0.013881 0.046829
    41 -5.518160 -18.297443 -5.108843 1.568574 0.000000 -0.000066
    42 -1.689684 2.709811 4.387621 0.000000 0.000000 0.000000
    43 -0.448134 1.576904 5.279871 1.544434 0.030232 1.564124
    44 0.233417 0.631622 6.176952 1.544434 0.030232 1.564124
    45 -0.951339 0.466229 6.136072 1.544434 0.030232 1.564124
  time 26
    0 0.000000 -0.000006 0.000000 -1.570781 -1.391896 -1.570809
    1 -4.875000 -0.206787 1.455078 1.596636 -1.286515 2.942963
    2 6.028144 0.000002 0.000002 0.329131 -1.148777 -2.317273
    3 11.692554 0.000081 -0.000006 -0.000003 0.000010 -0.365131
    4 11.482105 0.000429 -0.000029 -0.919032 0.295179 -0.898606
    5 3.859703 -0.142420 -1.191975 -0.489340 0.032119 -1.110105
    6 1.312559 -0.000008 0.000003 0.000000 -0.000003 -0.439723
    7 0.729369 -0.000006 0.000001 0.000001 -0.000003 -0.244304
    8 3.942329 0.046753 -0.431443 -0.168270 -0.006277 -1.293931
    9 1.539093 0.000004 -0.000006 -0.000002 0.000006 -0.247791
    10 1.196321 -0.000004 0.000003 0.000001 -0.000007 -0.430811
    11 3.883690 -0.046782 0.431443 0.053532 0.070672 -1.261345
    12 1.719578 -0.000011 0.000009 0.000002 0.005514 -0.366480
    13 1.209181 -0.000004 0.000004 0.000000 0.003091 -0.216394
    14 3.859856 -0.137962 1.332466 0.384689 0.117685 -1.290614
    15 1.719433 0.000002 -0.000005 -0.000004 0.004079 -0.363004
    16 1.099674 -0.000004 0.000003 0.000005 0.002595 -0.244332
    17 0.806042 -0.348928 1.321258 -1.222684 -0.679216 -0.788820
    18 1.789783 0.000002 -0.000008 -0.000001 0.243466 0.228522
    19 1.207001 -0.000001 0.000002 0.000002 -0.000001 0.362862
    20 11.484137 0.000873 -0.000005 -0.447913 0.221175 -0.084260
    21 -3.501953 -3.718750 -9.851563 -1.668474 1.286518 2.942953
    22 6.028141 0.000000 -0.000001 1.184629 0.444198 -1.861390
    23 11.692556 0.000000 -0.000001 -0.000002 0.000000 -1.381325
    24 11.481203 0.000403 -0.000008 -2.032144 0.225926 0.208799
    25 3.859678 -0.132545 1.193109 0.451074 -0.053982 -1.646216
    26 1.312561 -0.000004 -0.000001 0.000002 0.000001 -0.439674
    27 0.729364 -0.000004 -0.000002 -0.000001 0.000002 -1.254700
    28 3.942293 0.050345 0.431044 0.166894 0.030023 -1.468535
    29 1.539103 -0.000002 0.000001 0.000002 0.000001 -1.012265
    30 1.196321 -0.000004 -0.000003 -0.000001 -0.000001 -1.406099
    31 3.883657 -0.050307 -0.431042 0.006916 0.081090 -1.415334
    32 1.719585 0.000008 0.000006 0.007542 -0.002583 -1.607092
    33 1.209185 0.000002 0.000006 0.000002 -0.004469 -0.216370
    34 3.730921 0.233903 -1.374252 -0.354279 0.038847 -0.528764
    35 1.356137 0.492206 0.074232 0.001369 0.153299 -0.784605
    36 1.099667 0.000002 0.000008 0.007039 0.008669 -0.278951
    37 0.806021 -0.359832 -1.318335 1.221406 0.673630 -0.793552
    38 1.789785 -0.000011 -0.000004 -0.000001 0.076542 0.859696
    39 1.207001 -0.000001 -0.000006 0.000002 -0.000001 0.869771
    40 11.484729 0.001727 0.000005 -0.094172 0.013869 0.047165
    41 -5.525972 -18.301349 -5.108843 1.569328 0.000000 -0.000066
    42 -1.689684 2.709811 4.387621 0.000000 0.000000 0.000000
    43 -0.448134 1.576904 5.279871 1.544434 0.030232 1.564124
    44 0.233417 0.631622 6.176952 1.544434 0.030232 1.564124
    45 -0.951339 0.466229 6.136072 1.544434 0.030232 1.564124
  time 27
    0 0.000000 -0.000006 0.000000 -1.570781 -1.391896 -1.570809
    1 -4.875000 -0.206787 1.455078 1.596636 -1.286515 2.942963
    2 6.028144 0.000002 0.000002 0.330569 -1.148369 -2.319135
    3 11.692554 0.000081 -0.000006 -0.000003 0.000010 -0.363669
    4 11.482105 0.000429 -0.000029 -0.919319 0.295277 -0.898928
    5 3.859703 -0.142420 -1.191975 -0.489340 0.032119 -1.110105
    6 1.312559 -0.000008 0.000003 0.000000 -0.000003 -0.439723
    7 0.729369 -0.000006 0.000001 0.000001 -0.000003 -0.244304
    8 3.942329 0.046753 -0.431443 -0.168270 -0.006277 -1.293931
    9 1.539093 0.000004 -0.000006 -0.000002 0.000006 -0.247791
    10 1.196321 -0.000004 0.000003 0.000001 -0.000007 -0.430811
    11 3.883690 -0.046782 0.431443 0.053532 0.070672 -1.261345
    12 1.719578 -0.000011 0.000009 0.000002 0.005514 -0.366480
    13 1.209181 -0.000004 0.000004 0.000000 0.003091 -0.216394
    14 3.859856 -0.137962 1.332466 0.384689 0.117685 -1.290614
    15 1.719433 0.000002 -0.000005 -0.000004 0.004079 -0.363004
    16 1.099674 -0.000004 0.000003 0.000005 0.002595 -0.244332
    17 0.806042 -0.348928 1.321258 -1.222684 -0.679216 -0.788820
    18 1.789783 0.000002 -0.000008 -0.000001 0.243466 0.228522
    19 1.207001 -0.000001 0.000002 0.000002 -0.000001 0.362862
    20 11.484137 0.000873 -0.000005 -0.447926 0.221271 -0.084260
    21 -3.501953 -3.718750 -9.851563 -1.668474 1.286518 2.942953
    22 6.028141 0.000000 -0.000001 1.184754 0.444151 -1.861217
    23 11.692556 0.000000 -0.000001 -0.000002 0.000000 -1.382623
    24 11.481203 0.000403 -0.000008 -2.031976 0.226113 0.210185
    25 3.859678 -0.132545 1.193109 0.451074 -0.053982 -1.646216
    26 1.312561 -0.000004 -0.000001 0.000002 0.000001 -0.439674
    27 0.729364 -0.000004 -0.000002 -0.000001 0.000002 -1.254700
    28 3.942293 0.050345 0.431044 0.166894 0.030023 -1.468535
    29 1.539103 -0.000002 0.000001 0.000002 0.000001 -1.012265
    30 1.196321 -0.000004 -0.000003 -0.000001 -0.000001 -1.406099
    31 3.883657 -0.050307 -0.431042 0.006916 0.081090 -1.415334
    32 1.719585 0.000008 0.000006 0.007542 -0.002583 -1.607092
    33 1.209185 0.000002 0.000006 0.000002 -0.004469 -0.216370
    34 3.730921 0.233903 -1.374252 -0.354339 0.038727 -0.530118
    35 1.356137 0.492206 0.074232 0.001921 0.152892 -0.781071
    36 1.099667 0.000002 0.000008 0.004151 0.003240 -0.264453
    37 0.806021 -0.359832 -1.318335 1.221406 0.673630 -0.793552
    38 1.789785 -0.000011 -0.000004 -0.000001 0.076542 0.859696
    39 1.207001 -0.000001 -0.000006 0.000002 -0.000001 0.869771
    40 11.484729 0.001727 0.000005 -0.094148 0.013857 0.047440
    41 -5.529879 -18.305256 -5.108843 1.569960 0.000000 -0.000066
    42 -1.689684 2.709811 4.387621 0.000000 0.000000 0.000000
    43 -0.448134 1.576904 5.279871 1.544434 0.030232 1.564124
    44 0.233417 0.631622 6.176952 1.544434 0.030232 1.564124
    45 -0.951339 0.466229 6.136072 1.544434 0.030232 1.564124
  time 28
    0 0.000000 -0.000006 0.000000 -1.570781 -1.391896 -1.570809
    1 -4.875000 -0.206787 1.455078 1.596636 -1.286515 2.942963
    2 6.028144 0.000002 0.000002 0.331399 -1.148042 -2.320170
    3 11.692554 0.000081 -0.000006 -0.000003 0.000010 -0.362872
    4 11.482105 0.000429 -0.000029 -0.919535 0.295356 -0.899065
    5 3.859703 -0.142420 -1.191975 -0.489340 0.032119 -1.110105
    6 1.312559 -0.000008 0.000003 0.000000 -0.000003 -0.439723
    7 0.729369 -0.000006 0.000001 0.000001 -0.000003 -0.244304
    8 3.942329 0.046753 -0.431443 -0.168270 -0.006277 -1.293931
    9 1.539093 0.000004 -0.000006 -0.000002 0.000006 -0.247791
    10 1.196321 -0.000004 0.000003 0.000001 -0.000007 -0.430811
    11 3.883690 -0.046782 0.431443 0.053532 0.070672 -1.261365
    12 1.719578 -0.000011 0.000009 0.000002 0.005514 -0.366480
    13 1.209181 -0.000004 0.000004 0.000000 0.003091 -0.216394
    14 3.859856 -0.137962 1.332466 0.384689 0.117685 -1.290614
    15 1.719433 0.000002 -0.000005 -0.000004 0.004079 -0.363004
    16 1.099674 -0.000004 0.000003 0.000005 0.002595 -0.244332
    17 0.806042 -0.348928 1.321258 -1.222684 -0.679216 -0.788820
    18 1.789783 0.000002 -0.000008 -0.000001 0.243466 0.228522
    19 1.207001 -0.000001 0.000002 0.000002 -0.000001 0.362862
    20 11.484137 0.000873 -0.000005 -0.447939 0.221307 -0.084248
    21 -3.501953 -3.718750 -9.851563 -1.668474 1.286518 2.942953
    22 6.028141 0.000000 -0.000001 1.184879 0.444104 -1.861044
    23 11.692556 0.000000 -0.000001 -0.000002 0.000000 -1.383686
    24 11.481203 0.000403 -0.000008 -2.031807 0.226220 0.211189
    25 3.859678 -0.132545 1.193109 0.451074 -0.053982 -1.646216
    26 1.312561 -0.000004 -0.000001 0.000002 0.000001 -0.439674
    27 0.729364 -0.000004 -0.000002 -0.000001 0.000002 -1.254700
    28 3.942293 0.050345 0.431044 0.166894 0.030023 -1.468535
    29 1.539103 -0.000002 0.000001 0.000002 0.000001 -1.012265
    30 1.196321 -0.000004 -0.000003 -0.000001 -0.000001 -1.406099
    31 3.883657 -0.050307 -0.431042 0.006916 0.081090 -1.415334
    32 1.719585 0.000008 0.000006 0.007542 -0.002583 -1.607092
    33 1.209185 0.000002 0.000006 0.000002 -0.004469 -0.216370
    34 3.730921 0.233903 -1.374252 -0.354387 0.038643 -0.531137
    35 1.356137 0.492206 0.074232 0.002328 0.152580 -0.778428
    36 1.099667 0.000002 0.000008 0.001922 -0.000794 -0.253589
    37 0.806021 -0.359832 -1.318335 1.221406 0.673630 -0.793552
    38 1.789785 -0.000011 -0.000004 -0.000001 0.076542 0.859696
    39 1.207001 -0.000001 -0.000006 0.000002 -0.000001 0.869771
    40 11.484729 0.001727 0.000005 -0.094124 0.013845 0.047644
    41 -5.533785 -18.309162 -5.108843 1.570429 0.000000 -0.000066
    42 -1.689684 2.709811 4.387621 0.000000 0.000000 0.000000
    43 -0.448134 1.576904 5.279871 1.544434 0.030232 1.564124
    44 0.233417 0.631622 6.176952 1.544434 0.030232 1.564124
    45 -0.951339 0.466229 6.136072 1.544434 0.030232 1.564124
  time 29
    0 0.000000 -0.000006 0.000000 -1.570781 -1.391896 -1.570809
    1 -4.875000 -0.206787 1.455078 1.596636 -1.286515 2.942963
    2 6.028144 0.000002 0.000002 0.331676 -1.147878 -2.320687
    3 11.692554 0.000081 -0.000006 -0.000003 0.000010 -0.362517
    4 11.482105 0.000429 -0.000029 -0.919679 0.295415 -0.899019
    5 3.859703 -0.142420 -1.191975 -0.489340 0.032119 -1.110105
    6 1.312559 -0.000008 0.000003 0.000000 -0.000003 -0.439723
    7 0.729369 -0.000006 0.000001 0.000001 -0.000003 -0.244304
    8 3.942329 0.046753 -0.431443 -0.168270 -0.006277 -1.293931
    9 1.539093 0.000004 -0.000006 -0.000002 0.000006 -0.247791
    10 1.196321 -0.000004 0.000003 0.000001 -0.000007 -0.430811
    11 3.883690 -0.046782 0.431443 0.053532 0.070672 -1.261345
    12 1.719578 -0.000011 0.000009 0.000002 0.005514 -0.366480
    13 1.209181 -0.000004 0.000004 0.000000 0.003091 -0.216394
    14 3.859856 -0.137962 1.332466 0.384689 0.117685 -1.290614
    15 1.719433 0.000002 -0.000005 -0.000004 0.004079 -0.363004
    16 1.099674 -0.000004 0.000003 0.000005 0.002595 -0.244332
    17 0.806042 -0.348928 1.321258 -1.222684 -0.679216 -0.788820
    18 1.789783 0.000002 -0.000008 -0.000001 0.243466 0.228522
    19 1.207001 -0.000001 0.000002 0.000002 -0.000001 0.362862
    20 11.484137 0.000873 -0.000005 -0.447952 0.221319 -0.084212
    21 -3.501953 -3.718750 -9.851563 -1.668474 1.286518 2.942953
    22 6.028141 0.000000 -0.000001 1.184941 0.444011 -1.861044
    23 11.692556 0.000000 -0.000001 -0.000002 0.000000 -1.384394
    24 11.481203 0.000403 -0.000008 -2.031765 0.226353 0.211917
    25 3.859678 -0.132545 1.193109 0.451074 -0.053982 -1.646216
    26 1.312561 -0.000004 -0.000001 0.000002 0.000001 -0.439674
    27 0.729364 -0.000004 -0.000002 -0.000001 0.000002 -1.254700
    28 3.942293 0.050345 0.431044 0.166894 0.030023 -1.468535
    29 1.539103 -0.000002 0.000001 0.000002 0.000001 -1.012265
    30 1.196321 -0.000004 -0.000003 -0.000001 -0.000001 -1.406099
    31 3.883657 -0.050307 -0.431042 0.006916 0.081090 -1.415334
    32 1.719585 0.000008 0.000006 0.007542 -0.002583 -1.607092
    33 1.209185 0.000002 0.000006 0.000002 -0.004469 -0.216370
    34 3.730921 0.233903 -1.374252 -0.354423 0.038583 -0.531784
    35 1.356137 0.492206 0.074232 0.002592 0.152389 -0.776743
    36 1.099667 0.000002 0.000008 0.000495 -0.003332 -0.246708
    37 0.806021 -0.359832 -1.318335 1.221406 0.673630 -0.793552
    38 1.789785 -0.000011 -0.000004 -0.000001 0.076542 0.859696
    39 1.207001 -0.000001 -0.000006 0.000002 -0.000001 0.869771
    40 11.484729 0.001727 0.000005 -0.094124 0.013845 0.047788
    41 -5.533785 -18.309162 -5.108843 1.570714 0.000000 -0.000066
    42 -1.689684 2.709811 4.387621 0.000000 0.000000 0.000000
    43 -0.448134 1.576904 5.279871 1.544434 0.030232 1.564124
    44 0.233417 0.631622 6.176952 1.544434 0.030232 1.564124
    45 -0.951339 0.466229 6.136072 1.544434 0.030232 1.564124
  time 30
    0 0.000000 -0.000006 0.000000 -1.570781 -1.391896 -1.570809
    1 -4.875000 -0.206787 1.455078 1.596636 -1.286515 2.942963
    2 6.028144 0.000002 0.000002 0.331731 -1.147837 -2.320791
    3 11.692554 0.000081 -0.000006 -0.000003 0.000010 -0.362429
    4 11.482105 0.000429 -0.000029 -0.919679 0.295435 -0.899019
    5 3.859703 -0.142420 -1.191975 -0.489340 0.032119 -1.110105
    6 1.312559 -0.000008 0.000003 0.000000 -0.000003 -0.439723
    7 0.729369 -0.000006 0.000001 0.000001 -0.000003 -0.244304
    8 3.942329 0.046753 -0.431443 -0.168270 -0.006277 -1.293931
    9 1.539093 0.000004 -0.000006 -0.000002 0.000006 -0.247791
    10 1.196321 -0.000004 0.000003 0.000001 -0.000007 -0.430811
    11 3.883690 -0.046782 0.431443 0.053532 0.070672 -1.261345
    12 1.719578 -0.000011 0.000009 0.000002 0.005514 -0.366480
    13 1.209181 -0.000004 0.000004 0.000000 0.003091 -0.216394
    14 3.859856 -0.137962 1.332466 0.384689 0.117685 -1.290614
    15 1.719433 0.000002 -0.000005 -0.000004 0.004079 -0.363004
    16 1.099674 -0.000004 0.000003 0.000005 0.002595 -0.244332
    17 0.806042 -0.348928 1.321258 -1.222684 -0.679216 -0.788820
    18 1.789783 0.000002 -0.000008 -0.000001 0.243466 0.228522
    19 1.207001 -0.000001 0.000002 0.000002 -0.000001 0.362862
    20 11.484137 0.000873 -0.000005 -0.447965 0.221319 -0.084200
    21 -3.501953 -3.718750 -9.851563 -1.668474 1.286518 2.942953
    22 6.028141 0.000000 -0.000001 1.184941 0.444011 -1.860958
    23 11.692556 0.000000 -0.000001 -0.000002 0.000000 -1.384630
    24 11.481203 0.000403 -0.000008 -2.031723 0.226353 0.212125
    25 3.859678 -0.132545 1.193109 0.451074 -0.053982 -1.646216
    26 1.312561 -0.000004 -0.000001 0.000002 0.000001 -0.439674
    27 0.729364 -0.000004 -0.000002 -0.000001 0.000002 -1.254700
    28 3.942293 0.050345 0.431044 0.166894 0.030023 -1.468535
    29 1.539103 -0.000002 0.000001 0.000002 0.000001 -1.012265
    30 1.196321 -0.000004 -0.000003 -0.000001 -0.000001 -1.406099
    31 3.883657 -0.050307 -0.431042 0.006916 0.081090 -1.415334
    32 1.719585 0.000008 0.000006 0.007542 -0.002583 -1.607092
    33 1.209185 0.000002 0.000006 0.000002 -0.004469 -0.216370
    34 3.730921 0.233903 -1.374252 -0.354423 0.038571 -0.532000
    35 1.356137 0.492206 0.074232 0.002688 0.152317 -0.776148
    36 1.099667 0.000002 0.000008 0.000004 -0.004212 -0.244311
    37 0.806021 -0.359832 -1.318335 1.221406 0.673630 -0.793552
    38 1.789785 -0.000011 -0.000004 -0.000001 0.076542 0.859696
    39 1.207001 -0.000001 -0.000006 0.000002 -0.000001 0.869771
    40 11.484729 0.001727 0.000005 -0.094124 0.013833 0.047824
    41 -5.537691 -18.309162 -5.108843 1.570796 0.000000 -0.000066
    42 -1.689684 2.709811 4.387621 0.000000 0.000000 0.000000
    43 -0.448134 1.576904 5.279871 1.544434 0.030232 1.564124
    44 0.233417 0.631622 6.176952 1.544434 0.030232 1.564124
    45 -0.951339 0.466229 6.136072 1.544434 0.030232 1.564124
end
