// Created by Crowbar++ 0.74
version 1
nodes
  0 "ValveBiped.Bip01_Spine4" -1
  1 "ValveBiped.Bip01_L_Clavicle" 0
  2 "ValveBiped.Bip01_L_UpperArm" 1
  3 "ValveBiped.Bip01_L_Forearm" 2
  4 "ValveBiped.Bip01_L_Hand" 3
  5 "ValveBiped.Bip01_L_Finger4" 4
  6 "ValveBiped.Bip01_L_Finger41" 5
  7 "ValveBiped.Bip01_L_Finger42" 6
  8 "ValveBiped.Bip01_L_Finger3" 4
  9 "ValveBiped.Bip01_L_Finger31" 8
  10 "ValveBiped.Bip01_L_Finger32" 9
  11 "ValveBiped.Bip01_L_Finger2" 4
  12 "ValveBiped.Bip01_L_Finger21" 11
  13 "ValveBiped.Bip01_L_Finger22" 12
  14 "ValveBiped.Bip01_L_Finger1" 4
  15 "ValveBiped.Bip01_L_Finger11" 14
  16 "ValveBiped.Bip01_L_Finger12" 15
  17 "ValveBiped.Bip01_L_Finger0" 4
  18 "ValveBiped.Bip01_L_Finger01" 17
  19 "ValveBiped.Bip01_L_Finger02" 18
  20 "ValveBiped.Bip01_R_Clavicle" 0
  21 "ValveBiped.Bip01_R_UpperArm" 20
  22 "ValveBiped.Bip01_R_Forearm" 21
  23 "ValveBiped.Bip01_R_Hand" 22
  24 "ValveBiped.Bip01_R_Finger4" 23
  25 "ValveBiped.Bip01_R_Finger41" 24
  26 "ValveBiped.Bip01_R_Finger42" 25
  27 "ValveBiped.Bip01_R_Finger3" 23
  28 "ValveBiped.Bip01_R_Finger31" 27
  29 "ValveBiped.Bip01_R_Finger32" 28
  30 "ValveBiped.Bip01_R_Finger2" 23
  31 "ValveBiped.Bip01_R_Finger21" 30
  32 "ValveBiped.Bip01_R_Finger22" 31
  33 "ValveBiped.Bip01_R_Finger1" 23
  34 "ValveBiped.Bip01_R_Finger11" 33
  35 "ValveBiped.Bip01_R_Finger12" 34
  36 "ValveBiped.Bip01_R_Finger0" 23
  37 "ValveBiped.Bip01_R_Finger01" 36
  38 "ValveBiped.Bip01_R_Finger02" 37
  39 "v_weapon.scout_Parent" -1
  40 "v_weapon.scout__BoltBase" 39
  41 "v_weapon.scout_Bolt" 39
  42 "v_weapon.scout_Clip" 39
  43 "v_weapon.scout_BigBullet" 41
end
skeleton
  time 0
    0 0.000006 0.000000 0.000000 -1.570797 -1.391899 -1.570795
    1 2.033348 1.000767 1.937659 1.596635 -1.286515 2.942964
    2 6.028141 0.000005 0.000002 -1.579610 0.047801 -0.585172
    3 11.692560 0.000013 -0.000006 -0.000007 0.000000 -0.060371
    4 11.481678 0.000006 -0.000039 1.573187 -0.106617 0.044193
    5 3.859705 -0.142418 -1.191975 -0.468129 0.151538 -0.880198
    6 1.312563 -0.000013 0.000002 0.000000 -0.000003 -0.439723
    7 0.729365 -0.000006 -0.000001 0.000001 -0.000003 -0.244304
    8 3.942327 0.046753 -0.431444 -0.151780 0.073202 -0.810991
    9 1.539093 0.000008 -0.000006 -0.000002 0.000006 -0.247791
    10 1.196323 -0.000006 0.000002 0.000001 -0.000007 -0.430812
    11 3.883688 -0.046781 0.431443 0.085902 0.021835 -0.587865
    12 1.719580 -0.000010 0.000009 0.000002 0.005514 -0.366480
    13 1.209183 -0.000006 0.000003 0.000000 0.003091 -0.216394
    14 3.859854 -0.137962 1.332467 0.354450 -0.042751 -0.531725
    15 1.719431 0.000000 -0.000006 -0.000004 0.004079 -0.363004
    16 1.099672 0.000000 0.000004 0.000005 0.002595 -0.244332
    17 0.806046 -0.348927 1.321259 -1.222684 -0.679216 -0.788820
    18 1.789780 0.000002 -0.000006 -0.000002 -0.000001 0.228524
    19 1.207005 0.000001 -0.000004 0.000002 -0.000001 0.362862
    20 2.033356 1.000772 -1.937610 -1.668474 1.286519 2.942954
    21 6.028142 0.000001 -0.000001 1.639478 -0.008062 -0.586846
    22 11.692555 0.000031 0.000001 0.000000 0.000000 -0.060378
    23 11.481703 0.000105 0.000003 -1.564937 0.106599 0.044202
    24 3.859676 -0.132545 1.193109 0.466234 -0.158068 -0.878817
    25 1.312563 0.000000 -0.000001 0.000002 0.000001 -0.439674
    26 0.729366 0.000002 0.000000 0.000000 0.000003 -0.244276
    27 3.942295 0.050345 0.431044 0.150077 -0.079190 -0.810199
    28 1.539101 -0.000002 0.000002 0.000003 -0.000003 -0.247767
    29 1.196321 -0.000004 -0.000002 -0.000003 0.000001 -0.430764
    30 3.883659 -0.050304 -0.431042 -0.085905 -0.026400 -0.587691
    31 1.719584 0.000006 0.000006 0.000002 -0.007972 -0.366438
    32 1.209185 0.000002 0.000006 0.000002 -0.004469 -0.216370
    33 3.859833 -0.148918 -1.331282 -0.354423 0.038571 -0.532000
    34 1.719429 0.000006 0.000011 0.000003 -0.006611 -0.362970
    35 1.099661 0.000002 0.000007 0.000004 -0.004212 -0.244311
    36 0.806019 -0.359832 -1.318334 1.221406 0.673630 -0.793552
    37 1.789782 -0.000008 -0.000008 -0.000002 -0.000001 0.228551
    38 1.207003 -0.000002 -0.000002 0.000004 -0.000002 0.362910
    39 -6.667969 -14.906249 -8.398438 1.570797 -0.000004 -3.141590
    40 0.000001 3.761717 -1.204106 0.000000 0.000000 0.000000
    41 0.000001 3.761716 -2.197272 0.000000 0.000000 0.000000
    42 0.000001 1.420890 -5.835940 0.000000 0.000000 0.000000
    43 -0.000751 -0.003515 -1.549599 0.000000 0.000000 0.000003
end
triangles
shell_762nato
  42 -6.922944 -18.534115 -5.455863 0.000002 0.995528 -0.094466 0.888177 0.167398 1 42 1.000000
  42 -6.823853 -18.553551 -5.660707 0.000006 0.995526 -0.094491 0.850896 0.089982 1 42 1.000000
  42 -6.896881 -18.544901 -5.569542 0.000003 0.995526 -0.094492 0.878372 0.124435 1 42 1.000000
shell_762nato
  42 -6.922944 -18.534115 -5.455863 0.000002 0.995528 -0.094466 0.888177 0.167398 1 42 1.000000
  42 -6.718326 -18.558352 -5.711299 0.000001 0.995529 -0.094459 0.811193 0.070862 1 42 1.000000
  42 -6.823853 -18.553551 -5.660707 0.000006 0.995526 -0.094491 0.850896 0.089982 1 42 1.000000
shell_762nato
  42 -6.922944 -18.534115 -5.455863 0.000002 0.995528 -0.094466 0.888177 0.167398 1 42 1.000000
  42 -6.601198 -18.558352 -5.711299 -0.000002 0.995529 -0.094451 0.767125 0.070862 1 42 1.000000
  42 -6.718326 -18.558352 -5.711299 0.000001 0.995529 -0.094459 0.811193 0.070862 1 42 1.000000
shell_762nato
  42 -6.922944 -18.534115 -5.455863 0.000002 0.995528 -0.094466 0.888177 0.167398 1 42 1.000000
  42 -6.495670 -18.553551 -5.660707 -0.000001 0.995527 -0.094474 0.727422 0.089982 1 42 1.000000
  42 -6.601198 -18.558352 -5.711299 -0.000002 0.995529 -0.094451 0.767125 0.070862 1 42 1.000000
shell_762nato
  42 -6.922944 -18.534115 -5.455863 0.000002 0.995528 -0.094466 0.888177 0.167398 1 42 1.000000
  42 -6.422643 -18.544901 -5.569542 0.000000 0.995530 -0.094450 0.699946 0.124435 1 42 1.000000
  42 -6.495670 -18.553551 -5.660707 -0.000001 0.995527 -0.094474 0.727422 0.089982 1 42 1.000000
shell_762nato
  42 -6.922944 -18.534115 -5.455863 0.000002 0.995528 -0.094466 0.888177 0.167398 1 42 1.000000
  42 -6.396581 -18.534115 -5.455863 0.000000 0.995530 -0.094450 0.690141 0.167398 1 42 1.000000
  42 -6.422643 -18.544901 -5.569542 0.000000 0.995530 -0.094450 0.699946 0.124435 1 42 1.000000
shell_762nato
  42 -6.922944 -18.534115 -5.455863 0.000002 0.995528 -0.094466 0.888177 0.167398 1 42 1.000000
  42 -6.422643 -18.523327 -5.342184 -0.000001 0.995528 -0.094466 0.699946 0.210360 1 42 1.000000
  42 -6.396581 -18.534115 -5.455863 0.000000 0.995530 -0.094450 0.690141 0.167398 1 42 1.000000
shell_762nato
  42 -6.922944 -18.534115 -5.455863 0.000002 0.995528 -0.094466 0.888177 0.167398 1 42 1.000000
  42 -6.495670 -18.514677 -5.251019 -0.000002 0.995528 -0.094462 0.727422 0.244813 1 42 1.000000
  42 -6.422643 -18.523327 -5.342184 -0.000001 0.995528 -0.094466 0.699946 0.210360 1 42 1.000000
shell_762nato
  42 -6.922944 -18.534115 -5.455863 0.000002 0.995528 -0.094466 0.888177 0.167398 1 42 1.000000
  42 -6.601198 -18.509876 -5.200427 0.000001 0.995527 -0.094472 0.767125 0.263934 1 42 1.000000
  42 -6.495670 -18.514677 -5.251019 -0.000002 0.995528 -0.094462 0.727422 0.244813 1 42 1.000000
shell_762nato
  42 -6.922944 -18.534115 -5.455863 0.000002 0.995528 -0.094466 0.888177 0.167398 1 42 1.000000
  42 -6.718326 -18.509876 -5.200427 0.000000 0.995529 -0.094452 0.811193 0.263934 1 42 1.000000
  42 -6.601198 -18.509876 -5.200427 0.000001 0.995527 -0.094472 0.767125 0.263934 1 42 1.000000
shell_762nato
  42 -6.922944 -18.534115 -5.455863 0.000002 0.995528 -0.094466 0.888177 0.167398 1 42 1.000000
  42 -6.823853 -18.514677 -5.251019 0.000001 0.995529 -0.094452 0.850896 0.244813 1 42 1.000000
  42 -6.718326 -18.509876 -5.200427 0.000000 0.995529 -0.094452 0.811193 0.263934 1 42 1.000000
shell_762nato
  42 -6.922944 -18.534115 -5.455863 0.000002 0.995528 -0.094466 0.888177 0.167398 1 42 1.000000
  42 -6.896881 -18.523327 -5.342184 0.000028 0.995526 -0.094492 0.878372 0.210360 1 42 1.000000
  42 -6.823853 -18.514677 -5.251019 0.000001 0.995529 -0.094452 0.850896 0.244813 1 42 1.000000
shell_762nato
  42 -6.735052 -20.893215 -5.389054 -0.432997 -0.148610 -0.889061 0.427810 0.696016 1 42 1.000000
  42 -6.584473 -20.893215 -5.389054 0.432997 -0.148611 -0.889060 0.546440 0.696016 1 42 1.000000
  42 -6.605541 -21.257992 -5.310496 0.414038 -0.289072 -0.863140 0.507290 0.760139 1 42 1.000000
shell_762nato
  42 -6.584473 -20.893215 -5.389054 0.432997 -0.148611 -0.889060 0.546440 0.696016 1 42 1.000000
  42 -6.537929 -21.249983 -5.226091 0.956471 -0.213423 -0.199034 0.547730 0.799424 1 42 1.000000
  42 -6.605541 -21.257992 -5.310496 0.414038 -0.289072 -0.863140 0.507290 0.760139 1 42 1.000000
shell_762nato
  42 -6.584473 -20.893215 -5.389054 0.432997 -0.148611 -0.889060 0.546440 0.696016 1 42 1.000000
  42 -6.490590 -20.882093 -5.271853 0.972931 -0.084654 -0.215031 0.620403 0.788764 1 42 1.000000
  42 -6.537929 -21.249983 -5.226091 0.956471 -0.213423 -0.199034 0.547730 0.799424 1 42 1.000000
shell_762nato
  42 -6.490590 -20.882093 -5.271853 0.972931 -0.084654 -0.215031 0.620403 0.788764 1 42 1.000000
  42 -6.562058 -21.239996 -5.120842 0.772228 -0.148558 0.617733 0.538529 0.860177 1 42 1.000000
  42 -6.537929 -21.249983 -5.226091 0.956471 -0.213423 -0.199034 0.547730 0.799424 1 42 1.000000
shell_762nato
  42 -6.490590 -20.882093 -5.271853 0.972931 -0.084654 -0.215031 0.620403 0.788764 1 42 1.000000
  42 -6.524096 -20.868227 -5.125708 0.780234 -0.004900 0.625468 0.594006 0.904418 1 42 1.000000
  42 -6.562058 -21.239996 -5.120842 0.772228 -0.148558 0.617733 0.538529 0.860177 1 42 1.000000
shell_762nato
  42 -6.524096 -20.868227 -5.125708 0.780234 -0.004900 0.625468 0.594006 0.904418 1 42 1.000000
  42 -6.659761 -21.235552 -5.074001 -0.000002 -0.100128 0.994974 0.487276 0.879029 1 42 1.000000
  42 -6.562058 -21.239996 -5.120842 0.772228 -0.148558 0.617733 0.538529 0.860177 1 42 1.000000
shell_762nato
  42 -6.524096 -20.868227 -5.125708 0.780234 -0.004900 0.625468 0.594006 0.904418 1 42 1.000000
  42 -6.659760 -20.862055 -5.060666 0.000005 0.030594 0.999532 0.487125 0.955890 1 42 1.000000
  42 -6.659761 -21.235552 -5.074001 -0.000002 -0.100128 0.994974 0.487276 0.879029 1 42 1.000000
shell_762nato
  42 -6.659760 -20.862055 -5.060666 0.000005 0.030594 0.999532 0.487125 0.955890 1 42 1.000000
  42 -6.757464 -21.239996 -5.120842 -0.767031 -0.135021 0.627242 0.436409 0.859629 1 42 1.000000
  42 -6.659761 -21.235552 -5.074001 -0.000002 -0.100128 0.994974 0.487276 0.879029 1 42 1.000000
shell_762nato
  42 -6.659760 -20.862055 -5.060666 0.000005 0.030594 0.999532 0.487125 0.955890 1 42 1.000000
  42 -6.795429 -20.868227 -5.125708 -0.780233 -0.004900 0.625470 0.380243 0.904418 1 42 1.000000
  42 -6.757464 -21.239996 -5.120842 -0.767031 -0.135021 0.627242 0.436409 0.859629 1 42 1.000000
shell_762nato
  42 -6.795429 -20.868227 -5.125708 -0.780233 -0.004900 0.625470 0.380243 0.904418 1 42 1.000000
  42 -6.781595 -21.249983 -5.226091 -0.956481 -0.224817 -0.186015 0.425955 0.806787 1 42 1.000000
  42 -6.757464 -21.239996 -5.120842 -0.767031 -0.135021 0.627242 0.436409 0.859629 1 42 1.000000
shell_762nato
  42 -6.795429 -20.868227 -5.125708 -0.780233 -0.004900 0.625470 0.380243 0.904418 1 42 1.000000
  42 -6.828935 -20.882093 -5.271853 -0.972931 -0.084652 -0.215031 0.353846 0.788764 1 42 1.000000
  42 -6.781595 -21.249983 -5.226091 -0.956481 -0.224817 -0.186015 0.425955 0.806787 1 42 1.000000
shell_762nato
  42 -6.828935 -20.882093 -5.271853 -0.972931 -0.084652 -0.215031 0.353846 0.788764 1 42 1.000000
  42 -6.713983 -21.257992 -5.310496 -0.423590 -0.298692 -0.855193 0.453028 0.766832 1 42 1.000000
  42 -6.781595 -21.249983 -5.226091 -0.956481 -0.224817 -0.186015 0.425955 0.806787 1 42 1.000000
shell_762nato
  42 -6.828935 -20.882093 -5.271853 -0.972931 -0.084652 -0.215031 0.353846 0.788764 1 42 1.000000
  42 -6.735052 -20.893215 -5.389054 -0.432997 -0.148610 -0.889061 0.427810 0.696016 1 42 1.000000
  42 -6.713983 -21.257992 -5.310496 -0.423590 -0.298692 -0.855193 0.453028 0.766832 1 42 1.000000
shell_762nato
  42 -6.735052 -20.893215 -5.389054 -0.432997 -0.148610 -0.889061 0.427810 0.696016 1 42 1.000000
  42 -6.605541 -21.257992 -5.310496 0.414038 -0.289072 -0.863140 0.507290 0.760139 1 42 1.000000
  42 -6.713983 -21.257992 -5.310496 -0.423590 -0.298692 -0.855193 0.453028 0.766832 1 42 1.000000
shell_762nato
  42 -6.713983 -21.257992 -5.310496 -0.423590 -0.298692 -0.855193 0.453028 0.766832 1 42 1.000000
  42 -6.605541 -21.257992 -5.310496 0.414038 -0.289072 -0.863140 0.507290 0.760139 1 42 1.000000
  42 -6.659761 -21.661259 -5.159134 0.268638 -0.351316 -0.896889 0.487125 0.819184 1 42 1.000000
shell_762nato
  42 -6.605541 -21.257992 -5.310496 0.414038 -0.289072 -0.863140 0.507290 0.760139 1 42 1.000000
  42 -6.537929 -21.249983 -5.226091 0.956471 -0.213423 -0.199034 0.547730 0.799424 1 42 1.000000
  42 -6.659761 -21.661259 -5.159134 0.268638 -0.351316 -0.896889 0.487125 0.819184 1 42 1.000000
shell_762nato
  42 -6.537929 -21.249983 -5.226091 0.956471 -0.213423 -0.199034 0.547730 0.799424 1 42 1.000000
  42 -6.562058 -21.239996 -5.120842 0.772228 -0.148558 0.617733 0.538529 0.860177 1 42 1.000000
  42 -6.659761 -21.661259 -5.159134 0.268638 -0.351316 -0.896889 0.487125 0.819184 1 42 1.000000
shell_762nato
  42 -6.562058 -21.239996 -5.120842 0.772228 -0.148558 0.617733 0.538529 0.860177 1 42 1.000000
  42 -6.659761 -21.235552 -5.074001 -0.000002 -0.100128 0.994974 0.487276 0.879029 1 42 1.000000
  42 -6.659761 -21.661259 -5.159134 0.268638 -0.351316 -0.896889 0.487125 0.819184 1 42 1.000000
shell_762nato
  42 -6.659761 -21.235552 -5.074001 -0.000002 -0.100128 0.994974 0.487276 0.879029 1 42 1.000000
  42 -6.757464 -21.239996 -5.120842 -0.767031 -0.135021 0.627242 0.436409 0.859629 1 42 1.000000
  42 -6.659761 -21.661259 -5.159134 0.268638 -0.351316 -0.896889 0.487125 0.819184 1 42 1.000000
shell_762nato
  42 -6.757464 -21.239996 -5.120842 -0.767031 -0.135021 0.627242 0.436409 0.859629 1 42 1.000000
  42 -6.781595 -21.249983 -5.226091 -0.956481 -0.224817 -0.186015 0.425955 0.806787 1 42 1.000000
  42 -6.659761 -21.661259 -5.159134 0.268638 -0.351316 -0.896889 0.487125 0.819184 1 42 1.000000
shell_762nato
  42 -6.781595 -21.249983 -5.226091 -0.956481 -0.224817 -0.186015 0.425955 0.806787 1 42 1.000000
  42 -6.713983 -21.257992 -5.310496 -0.423590 -0.298692 -0.855193 0.453028 0.766832 1 42 1.000000
  42 -6.659761 -21.661259 -5.159134 0.268638 -0.351316 -0.896889 0.487125 0.819184 1 42 1.000000
shell_762nato
  42 -6.495670 -18.553551 -5.660707 0.623490 -0.073855 -0.778335 0.976105 0.914405 1 42 1.000000
  42 -6.422643 -18.544901 -5.569542 0.900970 -0.040987 -0.431942 0.976105 0.956457 1 42 1.000000
  42 -6.422643 -20.383654 -5.395067 0.867861 -0.310898 -0.387505 0.227056 0.956457 1 42 1.000000
shell_762nato
  42 -6.495670 -18.553551 -5.660707 0.623490 -0.073855 -0.778335 0.976105 0.914405 1 42 1.000000
  42 -6.422643 -20.383654 -5.395067 0.867861 -0.310898 -0.387505 0.227056 0.956457 1 42 1.000000
  42 -6.495670 -20.392303 -5.486231 0.597896 -0.342852 -0.724550 0.227056 0.914405 1 42 1.000000
shell_762nato
  42 -6.601198 -18.558352 -5.711299 0.222523 -0.092094 -0.970568 0.976105 0.872354 1 42 1.000000
  42 -6.495670 -18.553551 -5.660707 0.623490 -0.073855 -0.778335 0.976105 0.914405 1 42 1.000000
  42 -6.495670 -20.392303 -5.486231 0.597896 -0.342852 -0.724550 0.227056 0.914405 1 42 1.000000
shell_762nato
  42 -6.601198 -18.558352 -5.711299 0.222523 -0.092094 -0.970568 0.976105 0.872354 1 42 1.000000
  42 -6.495670 -20.392303 -5.486231 0.597896 -0.342852 -0.724550 0.227056 0.914405 1 42 1.000000
  42 -6.601198 -20.397104 -5.536824 0.216533 -0.360228 -0.907386 0.227056 0.872354 1 42 1.000000
shell_762nato
  42 -6.718326 -18.558352 -5.711299 -0.222521 -0.092095 -0.970568 0.976105 0.830301 1 42 1.000000
  42 -6.601198 -18.558352 -5.711299 0.222523 -0.092094 -0.970568 0.976105 0.872354 1 42 1.000000
  42 -6.601198 -20.397104 -5.536824 0.216533 -0.360228 -0.907386 0.227056 0.872354 1 42 1.000000
shell_762nato
  42 -6.718326 -18.558352 -5.711299 -0.222521 -0.092095 -0.970568 0.976105 0.830301 1 42 1.000000
  42 -6.601198 -20.397104 -5.536824 0.216533 -0.360228 -0.907386 0.227056 0.872354 1 42 1.000000
  42 -6.718326 -20.397104 -5.536824 -0.216533 -0.360226 -0.907387 0.227056 0.830301 1 42 1.000000
shell_762nato
  42 -6.823853 -18.553551 -5.660707 -0.623491 -0.073854 -0.778334 0.976105 0.788249 1 42 1.000000
  42 -6.718326 -18.558352 -5.711299 -0.222521 -0.092095 -0.970568 0.976105 0.830301 1 42 1.000000
  42 -6.718326 -20.397104 -5.536824 -0.216533 -0.360226 -0.907387 0.227056 0.830301 1 42 1.000000
shell_762nato
  42 -6.823853 -18.553551 -5.660707 -0.623491 -0.073854 -0.778334 0.976105 0.788249 1 42 1.000000
  42 -6.718326 -20.397104 -5.536824 -0.216533 -0.360226 -0.907387 0.227056 0.830301 1 42 1.000000
  42 -6.823853 -20.392303 -5.486231 -0.597858 -0.342880 -0.724568 0.227056 0.788249 1 42 1.000000
shell_762nato
  42 -6.896881 -18.544901 -5.569542 -0.900970 -0.040985 -0.431941 0.976105 0.746198 1 42 1.000000
  42 -6.823853 -18.553551 -5.660707 -0.623491 -0.073854 -0.778334 0.976105 0.788249 1 42 1.000000
  42 -6.823853 -20.392303 -5.486231 -0.597858 -0.342880 -0.724568 0.227056 0.788249 1 42 1.000000
shell_762nato
  42 -6.896881 -18.544901 -5.569542 -0.900970 -0.040985 -0.431941 0.976105 0.746198 1 42 1.000000
  42 -6.823853 -20.392303 -5.486231 -0.597858 -0.342880 -0.724568 0.227056 0.788249 1 42 1.000000
  42 -6.896881 -20.383654 -5.395067 -0.867861 -0.310899 -0.387503 0.227056 0.746198 1 42 1.000000
shell_762nato
  42 -6.922944 -18.534115 -5.455863 -1.000000 0.000001 0.000000 0.976105 0.704146 1 42 1.000000
  42 -6.896881 -18.544901 -5.569542 -0.900970 -0.040985 -0.431941 0.976105 0.746198 1 42 1.000000
  42 -6.896881 -20.383654 -5.395067 -0.867861 -0.310899 -0.387503 0.227056 0.746198 1 42 1.000000
shell_762nato
  42 -6.922944 -18.534115 -5.455863 -1.000000 0.000001 0.000000 0.976105 0.704146 1 42 1.000000
  42 -6.896881 -20.383654 -5.395067 -0.867861 -0.310899 -0.387503 0.227056 0.746198 1 42 1.000000
  42 -6.922944 -20.372868 -5.281388 -0.962038 -0.271920 0.023272 0.227056 0.704146 1 42 1.000000
shell_762nato
  42 -6.896881 -18.523327 -5.342184 -0.900969 0.040987 0.431943 0.976105 0.662094 1 42 1.000000
  42 -6.922944 -18.534115 -5.455863 -1.000000 0.000001 0.000000 0.976105 0.704146 1 42 1.000000
  42 -6.922944 -20.372868 -5.281388 -0.962038 -0.271920 0.023272 0.227056 0.704146 1 42 1.000000
shell_762nato
  42 -6.896881 -18.523327 -5.342184 -0.900969 0.040987 0.431943 0.976105 0.662094 1 42 1.000000
  42 -6.922944 -20.372868 -5.281388 -0.962038 -0.271920 0.023272 0.227056 0.704146 1 42 1.000000
  42 -6.896881 -20.362080 -5.167708 -0.865676 -0.232033 0.443582 0.227056 0.662094 1 42 1.000000
shell_762nato
  42 -6.823853 -18.514677 -5.251019 -0.623490 0.073855 0.778335 0.976105 0.620042 1 42 1.000000
  42 -6.896881 -18.523327 -5.342184 -0.900969 0.040987 0.431943 0.976105 0.662094 1 42 1.000000
  42 -6.896881 -20.362080 -5.167708 -0.865676 -0.232033 0.443582 0.227056 0.662094 1 42 1.000000
shell_762nato
  42 -6.823853 -18.514677 -5.251019 -0.623490 0.073855 0.778335 0.976105 0.620042 1 42 1.000000
  42 -6.896881 -20.362080 -5.167708 -0.865676 -0.232033 0.443582 0.227056 0.662094 1 42 1.000000
  42 -6.823853 -20.353430 -5.076543 -0.601798 -0.200779 0.772999 0.227056 0.620042 1 42 1.000000
shell_762nato
  42 -6.718326 -18.509876 -5.200427 -0.222521 0.092096 0.970568 0.976105 0.577990 1 42 1.000000
  42 -6.823853 -18.514677 -5.251019 -0.623490 0.073855 0.778335 0.976105 0.620042 1 42 1.000000
  42 -6.823853 -20.353430 -5.076543 -0.601798 -0.200779 0.772999 0.227056 0.620042 1 42 1.000000
shell_762nato
  42 -6.718326 -18.509876 -5.200427 -0.222521 0.092096 0.970568 0.976105 0.577990 1 42 1.000000
  42 -6.823853 -20.353430 -5.076543 -0.601798 -0.200779 0.772999 0.227056 0.620042 1 42 1.000000
  42 -6.718326 -20.348629 -5.025951 -0.211619 -0.183031 0.960061 0.227056 0.577990 1 42 1.000000
shell_762nato
  42 -6.823853 -20.353430 -5.076543 -0.601798 -0.200779 0.772999 0.227056 0.620042 1 42 1.000000
  42 -6.795429 -20.514557 -5.159266 -0.731692 -0.295655 0.614178 0.165173 0.641068 1 42 1.000000
  42 -6.659760 -20.508385 -5.094225 0.000000 -0.262372 0.964967 0.165173 0.556964 1 42 1.000000
shell_762nato
  42 -6.896881 -20.362080 -5.167708 -0.865676 -0.232033 0.443582 0.227056 0.662094 1 42 1.000000
  42 -6.795429 -20.514557 -5.159266 -0.731692 -0.295655 0.614178 0.165173 0.641068 1 42 1.000000
  42 -6.823853 -20.353430 -5.076543 -0.601798 -0.200779 0.772999 0.227056 0.620042 1 42 1.000000
shell_762nato
  42 -6.922944 -20.372868 -5.281388 -0.962038 -0.271920 0.023272 0.227056 0.704146 1 42 1.000000
  42 -6.795429 -20.514557 -5.159266 -0.731692 -0.295655 0.614178 0.165173 0.641068 1 42 1.000000
  42 -6.896881 -20.362080 -5.167708 -0.865676 -0.232033 0.443582 0.227056 0.662094 1 42 1.000000
shell_762nato
  42 -6.922944 -20.372868 -5.281388 -0.962038 -0.271920 0.023272 0.227056 0.704146 1 42 1.000000
  42 -6.828935 -20.528423 -5.305413 -0.912402 -0.370451 -0.174036 0.165173 0.725171 1 42 1.000000
  42 -6.795429 -20.514557 -5.159266 -0.731692 -0.295655 0.614178 0.165173 0.641068 1 42 1.000000
shell_762nato
  42 -6.896881 -20.383654 -5.395067 -0.867861 -0.310899 -0.387503 0.227056 0.746198 1 42 1.000000
  42 -6.828935 -20.528423 -5.305413 -0.912402 -0.370451 -0.174036 0.165173 0.725171 1 42 1.000000
  42 -6.922944 -20.372868 -5.281388 -0.962038 -0.271920 0.023272 0.227056 0.704146 1 42 1.000000
shell_762nato
  42 -6.823853 -20.392303 -5.486231 -0.597858 -0.342880 -0.724568 0.227056 0.788249 1 42 1.000000
  42 -6.828935 -20.528423 -5.305413 -0.912402 -0.370451 -0.174036 0.165173 0.725171 1 42 1.000000
  42 -6.896881 -20.383654 -5.395067 -0.867861 -0.310899 -0.387503 0.227056 0.746198 1 42 1.000000
shell_762nato
  42 -6.823853 -20.392303 -5.486231 -0.597858 -0.342880 -0.724568 0.227056 0.788249 1 42 1.000000
  42 -6.735052 -20.539545 -5.422613 -0.406061 -0.430427 -0.806131 0.165173 0.809275 1 42 1.000000
  42 -6.828935 -20.528423 -5.305413 -0.912402 -0.370451 -0.174036 0.165173 0.725171 1 42 1.000000
shell_762nato
  42 -6.718326 -20.397104 -5.536824 -0.216533 -0.360226 -0.907387 0.227056 0.830301 1 42 1.000000
  42 -6.735052 -20.539545 -5.422613 -0.406061 -0.430427 -0.806131 0.165173 0.809275 1 42 1.000000
  42 -6.823853 -20.392303 -5.486231 -0.597858 -0.342880 -0.724568 0.227056 0.788249 1 42 1.000000
shell_762nato
  42 -6.601198 -20.397104 -5.536824 0.216533 -0.360228 -0.907386 0.227056 0.872354 1 42 1.000000
  42 -6.735052 -20.539545 -5.422613 -0.406061 -0.430427 -0.806131 0.165173 0.809275 1 42 1.000000
  42 -6.718326 -20.397104 -5.536824 -0.216533 -0.360226 -0.907387 0.227056 0.830301 1 42 1.000000
shell_762nato
  42 -6.601198 -20.397104 -5.536824 0.216533 -0.360228 -0.907386 0.227056 0.872354 1 42 1.000000
  42 -6.584473 -20.539545 -5.422613 0.406062 -0.430430 -0.806129 0.165173 0.893380 1 42 1.000000
  42 -6.735052 -20.539545 -5.422613 -0.406061 -0.430427 -0.806131 0.165173 0.809275 1 42 1.000000
shell_762nato
  42 -6.495670 -20.392303 -5.486231 0.597896 -0.342852 -0.724550 0.227056 0.914405 1 42 1.000000
  42 -6.584473 -20.539545 -5.422613 0.406062 -0.430430 -0.806129 0.165173 0.893380 1 42 1.000000
  42 -6.601198 -20.397104 -5.536824 0.216533 -0.360228 -0.907386 0.227056 0.872354 1 42 1.000000
shell_762nato
  42 -6.422643 -20.383654 -5.395067 0.867861 -0.310898 -0.387505 0.227056 0.956457 1 42 1.000000
  42 -6.584473 -20.539545 -5.422613 0.406062 -0.430430 -0.806129 0.165173 0.893380 1 42 1.000000
  42 -6.495670 -20.392303 -5.486231 0.597896 -0.342852 -0.724550 0.227056 0.914405 1 42 1.000000
shell_762nato
  42 -6.422643 -20.383654 -5.395067 0.867861 -0.310898 -0.387505 0.227056 0.956457 1 42 1.000000
  42 -6.490590 -20.528423 -5.305413 0.912403 -0.370450 -0.174034 0.165173 0.977483 1 42 1.000000
  42 -6.584473 -20.539545 -5.422613 0.406062 -0.430430 -0.806129 0.165173 0.893380 1 42 1.000000
shell_762nato
  42 -6.490590 -20.528423 -5.305413 0.912403 -0.370450 -0.174034 0.165173 0.977483 1 42 1.000000
  42 -6.584473 -20.893215 -5.389054 0.432997 -0.148611 -0.889060 0.021099 0.893380 1 42 1.000000
  42 -6.584473 -20.539545 -5.422613 0.406062 -0.430430 -0.806129 0.165173 0.893380 1 42 1.000000
shell_762nato
  42 -6.490590 -20.528423 -5.305413 0.912403 -0.370450 -0.174034 0.165173 0.977483 1 42 1.000000
  42 -6.490590 -20.882093 -5.271853 0.972931 -0.084654 -0.215031 0.021099 0.977483 1 42 1.000000
  42 -6.584473 -20.893215 -5.389054 0.432997 -0.148611 -0.889060 0.021099 0.893380 1 42 1.000000
shell_762nato
  42 -6.524096 -20.514557 -5.159266 0.731695 -0.295655 0.614175 0.165173 0.472860 1 42 1.000000
  42 -6.490590 -20.882093 -5.271853 0.972931 -0.084654 -0.215031 0.021099 0.388757 1 42 1.000000
  42 -6.490590 -20.528423 -5.305413 0.912403 -0.370450 -0.174034 0.165173 0.388757 1 42 1.000000
shell_762nato
  42 -6.524096 -20.514557 -5.159266 0.731695 -0.295655 0.614175 0.165173 0.472860 1 42 1.000000
  42 -6.524096 -20.868227 -5.125708 0.780234 -0.004900 0.625468 0.021099 0.472860 1 42 1.000000
  42 -6.490590 -20.882093 -5.271853 0.972931 -0.084654 -0.215031 0.021099 0.388757 1 42 1.000000
shell_762nato
  42 -6.659760 -20.508385 -5.094225 0.000000 -0.262372 0.964967 0.165173 0.556964 1 42 1.000000
  42 -6.524096 -20.868227 -5.125708 0.780234 -0.004900 0.625468 0.021099 0.472860 1 42 1.000000
  42 -6.524096 -20.514557 -5.159266 0.731695 -0.295655 0.614175 0.165173 0.472860 1 42 1.000000
shell_762nato
  42 -6.659760 -20.508385 -5.094225 0.000000 -0.262372 0.964967 0.165173 0.556964 1 42 1.000000
  42 -6.659760 -20.862055 -5.060666 0.000005 0.030594 0.999532 0.021099 0.556964 1 42 1.000000
  42 -6.524096 -20.868227 -5.125708 0.780234 -0.004900 0.625468 0.021099 0.472860 1 42 1.000000
shell_762nato
  42 -6.795429 -20.514557 -5.159266 -0.731692 -0.295655 0.614178 0.165173 0.641068 1 42 1.000000
  42 -6.659760 -20.862055 -5.060666 0.000005 0.030594 0.999532 0.021099 0.556964 1 42 1.000000
  42 -6.659760 -20.508385 -5.094225 0.000000 -0.262372 0.964967 0.165173 0.556964 1 42 1.000000
shell_762nato
  42 -6.795429 -20.514557 -5.159266 -0.731692 -0.295655 0.614178 0.165173 0.641068 1 42 1.000000
  42 -6.795429 -20.868227 -5.125708 -0.780233 -0.004900 0.625470 0.021099 0.641068 1 42 1.000000
  42 -6.659760 -20.862055 -5.060666 0.000005 0.030594 0.999532 0.021099 0.556964 1 42 1.000000
shell_762nato
  42 -6.828935 -20.528423 -5.305413 -0.912402 -0.370451 -0.174036 0.165173 0.725171 1 42 1.000000
  42 -6.795429 -20.868227 -5.125708 -0.780233 -0.004900 0.625470 0.021099 0.641068 1 42 1.000000
  42 -6.795429 -20.514557 -5.159266 -0.731692 -0.295655 0.614178 0.165173 0.641068 1 42 1.000000
shell_762nato
  42 -6.828935 -20.528423 -5.305413 -0.912402 -0.370451 -0.174036 0.165173 0.725171 1 42 1.000000
  42 -6.828935 -20.882093 -5.271853 -0.972931 -0.084652 -0.215031 0.021099 0.725171 1 42 1.000000
  42 -6.795429 -20.868227 -5.125708 -0.780233 -0.004900 0.625470 0.021099 0.641068 1 42 1.000000
shell_762nato
  42 -6.735052 -20.539545 -5.422613 -0.406061 -0.430427 -0.806131 0.165173 0.809275 1 42 1.000000
  42 -6.828935 -20.882093 -5.271853 -0.972931 -0.084652 -0.215031 0.021099 0.725171 1 42 1.000000
  42 -6.828935 -20.528423 -5.305413 -0.912402 -0.370451 -0.174036 0.165173 0.725171 1 42 1.000000
shell_762nato
  42 -6.735052 -20.539545 -5.422613 -0.406061 -0.430427 -0.806131 0.165173 0.809275 1 42 1.000000
  42 -6.735052 -20.893215 -5.389054 -0.432997 -0.148610 -0.889061 0.021099 0.809275 1 42 1.000000
  42 -6.828935 -20.882093 -5.271853 -0.972931 -0.084652 -0.215031 0.021099 0.725171 1 42 1.000000
shell_762nato
  42 -6.584473 -20.539545 -5.422613 0.406062 -0.430430 -0.806129 0.165173 0.893380 1 42 1.000000
  42 -6.735052 -20.893215 -5.389054 -0.432997 -0.148610 -0.889061 0.021099 0.809275 1 42 1.000000
  42 -6.735052 -20.539545 -5.422613 -0.406061 -0.430427 -0.806131 0.165173 0.809275 1 42 1.000000
shell_762nato
  42 -6.584473 -20.539545 -5.422613 0.406062 -0.430430 -0.806129 0.165173 0.893380 1 42 1.000000
  42 -6.584473 -20.893215 -5.389054 0.432997 -0.148611 -0.889060 0.021099 0.893380 1 42 1.000000
  42 -6.735052 -20.893215 -5.389054 -0.432997 -0.148610 -0.889061 0.021099 0.809275 1 42 1.000000
shell_762nato
  42 -6.601198 -18.509876 -5.200427 0.222523 0.092096 0.970568 0.976105 0.535938 1 42 1.000000
  42 -6.718326 -18.509876 -5.200427 -0.222521 0.092096 0.970568 0.976105 0.577990 1 42 1.000000
  42 -6.718326 -20.348629 -5.025951 -0.211619 -0.183031 0.960061 0.227056 0.577990 1 42 1.000000
shell_762nato
  42 -6.601198 -18.509876 -5.200427 0.222523 0.092096 0.970568 0.976105 0.535938 1 42 1.000000
  42 -6.718326 -20.348629 -5.025951 -0.211619 -0.183031 0.960061 0.227056 0.577990 1 42 1.000000
  42 -6.601198 -20.348629 -5.025951 0.211619 -0.183029 0.960061 0.227056 0.535938 1 42 1.000000
shell_762nato
  42 -6.495670 -18.514677 -5.251019 0.623491 0.073855 0.778334 0.976105 0.493886 1 42 1.000000
  42 -6.601198 -18.509876 -5.200427 0.222523 0.092096 0.970568 0.976105 0.535938 1 42 1.000000
  42 -6.601198 -20.348629 -5.025951 0.211619 -0.183029 0.960061 0.227056 0.535938 1 42 1.000000
shell_762nato
  42 -6.495670 -18.514677 -5.251019 0.623491 0.073855 0.778334 0.976105 0.493886 1 42 1.000000
  42 -6.601198 -20.348629 -5.025951 0.211619 -0.183029 0.960061 0.227056 0.535938 1 42 1.000000
  42 -6.495670 -20.353430 -5.076543 0.601796 -0.200779 0.773000 0.227056 0.493886 1 42 1.000000
shell_762nato
  42 -6.422643 -18.523327 -5.342184 0.900970 0.040986 0.431941 0.976105 0.451834 1 42 1.000000
  42 -6.495670 -18.514677 -5.251019 0.623491 0.073855 0.778334 0.976105 0.493886 1 42 1.000000
  42 -6.495670 -20.353430 -5.076543 0.601796 -0.200779 0.773000 0.227056 0.493886 1 42 1.000000
shell_762nato
  42 -6.422643 -18.523327 -5.342184 0.900970 0.040986 0.431941 0.976105 0.451834 1 42 1.000000
  42 -6.495670 -20.353430 -5.076543 0.601796 -0.200779 0.773000 0.227056 0.493886 1 42 1.000000
  42 -6.422643 -20.362080 -5.167708 0.865678 -0.232033 0.443579 0.227056 0.451834 1 42 1.000000
shell_762nato
  42 -6.396581 -18.534115 -5.455863 1.000000 -0.000001 -0.000001 0.976105 0.409783 1 42 1.000000
  42 -6.422643 -18.523327 -5.342184 0.900970 0.040986 0.431941 0.976105 0.451834 1 42 1.000000
  42 -6.422643 -20.362080 -5.167708 0.865678 -0.232033 0.443579 0.227056 0.451834 1 42 1.000000
shell_762nato
  42 -6.396581 -18.534115 -5.455863 1.000000 -0.000001 -0.000001 0.976105 0.409783 1 42 1.000000
  42 -6.422643 -20.362080 -5.167708 0.865678 -0.232033 0.443579 0.227056 0.451834 1 42 1.000000
  42 -6.396581 -20.372868 -5.281388 0.962037 -0.271926 0.023270 0.227056 0.409783 1 42 1.000000
shell_762nato
  42 -6.422643 -18.544901 -5.569542 0.900970 -0.040987 -0.431942 0.976105 0.367731 1 42 1.000000
  42 -6.396581 -18.534115 -5.455863 1.000000 -0.000001 -0.000001 0.976105 0.409783 1 42 1.000000
  42 -6.396581 -20.372868 -5.281388 0.962037 -0.271926 0.023270 0.227056 0.409783 1 42 1.000000
shell_762nato
  42 -6.422643 -18.544901 -5.569542 0.900970 -0.040987 -0.431942 0.976105 0.367731 1 42 1.000000
  42 -6.396581 -20.372868 -5.281388 0.962037 -0.271926 0.023270 0.227056 0.409783 1 42 1.000000
  42 -6.422643 -20.383654 -5.395067 0.867861 -0.310898 -0.387505 0.227056 0.367731 1 42 1.000000
shell_762nato
  42 -6.396581 -20.372868 -5.281388 0.962037 -0.271926 0.023270 0.227056 0.409783 1 42 1.000000
  42 -6.490590 -20.528423 -5.305413 0.912403 -0.370450 -0.174034 0.165173 0.388757 1 42 1.000000
  42 -6.422643 -20.383654 -5.395067 0.867861 -0.310898 -0.387505 0.227056 0.367731 1 42 1.000000
shell_762nato
  42 -6.422643 -20.362080 -5.167708 0.865678 -0.232033 0.443579 0.227056 0.451834 1 42 1.000000
  42 -6.490590 -20.528423 -5.305413 0.912403 -0.370450 -0.174034 0.165173 0.388757 1 42 1.000000
  42 -6.396581 -20.372868 -5.281388 0.962037 -0.271926 0.023270 0.227056 0.409783 1 42 1.000000
shell_762nato
  42 -6.422643 -20.362080 -5.167708 0.865678 -0.232033 0.443579 0.227056 0.451834 1 42 1.000000
  42 -6.524096 -20.514557 -5.159266 0.731695 -0.295655 0.614175 0.165173 0.472860 1 42 1.000000
  42 -6.490590 -20.528423 -5.305413 0.912403 -0.370450 -0.174034 0.165173 0.388757 1 42 1.000000
shell_762nato
  42 -6.495670 -20.353430 -5.076543 0.601796 -0.200779 0.773000 0.227056 0.493886 1 42 1.000000
  42 -6.524096 -20.514557 -5.159266 0.731695 -0.295655 0.614175 0.165173 0.472860 1 42 1.000000
  42 -6.422643 -20.362080 -5.167708 0.865678 -0.232033 0.443579 0.227056 0.451834 1 42 1.000000
shell_762nato
  42 -6.601198 -20.348629 -5.025951 0.211619 -0.183029 0.960061 0.227056 0.535938 1 42 1.000000
  42 -6.524096 -20.514557 -5.159266 0.731695 -0.295655 0.614175 0.165173 0.472860 1 42 1.000000
  42 -6.495670 -20.353430 -5.076543 0.601796 -0.200779 0.773000 0.227056 0.493886 1 42 1.000000
shell_762nato
  42 -6.601198 -20.348629 -5.025951 0.211619 -0.183029 0.960061 0.227056 0.535938 1 42 1.000000
  42 -6.659760 -20.508385 -5.094225 0.000000 -0.262372 0.964967 0.165173 0.556964 1 42 1.000000
  42 -6.524096 -20.514557 -5.159266 0.731695 -0.295655 0.614175 0.165173 0.472860 1 42 1.000000
shell_762nato
  42 -6.718326 -20.348629 -5.025951 -0.211619 -0.183031 0.960061 0.227056 0.577990 1 42 1.000000
  42 -6.659760 -20.508385 -5.094225 0.000000 -0.262372 0.964967 0.165173 0.556964 1 42 1.000000
  42 -6.601198 -20.348629 -5.025951 0.211619 -0.183029 0.960061 0.227056 0.535938 1 42 1.000000
shell_762nato
  42 -6.823853 -20.353430 -5.076543 -0.601798 -0.200779 0.772999 0.227056 0.620042 1 42 1.000000
  42 -6.659760 -20.508385 -5.094225 0.000000 -0.262372 0.964967 0.165173 0.556964 1 42 1.000000
  42 -6.718326 -20.348629 -5.025951 -0.211619 -0.183031 0.960061 0.227056 0.577990 1 42 1.000000
end
