// Created by Crowbar++ 0.74
version 1
nodes
  0 "ValveBiped.Bip01_Spine4" -1
  1 "ValveBiped.Bip01_L_Clavicle" 0
  2 "ValveBiped.Bip01_L_UpperArm" 1
  3 "ValveBiped.Bip01_L_Forearm" 2
  4 "ValveBiped.Bip01_L_Hand" 3
  5 "ValveBiped.Bip01_L_Finger4" 4
  6 "ValveBiped.Bip01_L_Finger41" 5
  7 "ValveBiped.Bip01_L_Finger42" 6
  8 "ValveBiped.Bip01_L_Finger3" 4
  9 "ValveBiped.Bip01_L_Finger31" 8
  10 "ValveBiped.Bip01_L_Finger32" 9
  11 "ValveBiped.Bip01_L_Finger2" 4
  12 "ValveBiped.Bip01_L_Finger21" 11
  13 "ValveBiped.Bip01_L_Finger22" 12
  14 "ValveBiped.Bip01_L_Finger1" 4
  15 "ValveBiped.Bip01_L_Finger11" 14
  16 "ValveBiped.Bip01_L_Finger12" 15
  17 "ValveBiped.Bip01_L_Finger0" 4
  18 "ValveBiped.Bip01_L_Finger01" 17
  19 "ValveBiped.Bip01_L_Finger02" 18
  20 "ValveBiped.Bip01_R_Clavicle" 0
  21 "ValveBiped.Bip01_R_UpperArm" 20
  22 "ValveBiped.Bip01_R_Forearm" 21
  23 "ValveBiped.Bip01_R_Hand" 22
  24 "ValveBiped.Bip01_R_Finger4" 23
  25 "ValveBiped.Bip01_R_Finger41" 24
  26 "ValveBiped.Bip01_R_Finger42" 25
  27 "ValveBiped.Bip01_R_Finger3" 23
  28 "ValveBiped.Bip01_R_Finger31" 27
  29 "ValveBiped.Bip01_R_Finger32" 28
  30 "ValveBiped.Bip01_R_Finger2" 23
  31 "ValveBiped.Bip01_R_Finger21" 30
  32 "ValveBiped.Bip01_R_Finger22" 31
  33 "ValveBiped.Bip01_R_Finger1" 23
  34 "ValveBiped.Bip01_R_Finger11" 33
  35 "ValveBiped.Bip01_R_Finger12" 34
  36 "ValveBiped.Bip01_R_Finger0" 23
  37 "ValveBiped.Bip01_R_Finger01" 36
  38 "ValveBiped.Bip01_R_Finger02" 37
  39 "v_weapon.m249" -1
  40 "v_weapon.trigger" 39
  41 "v_weapon.receiver" 39
  42 "v_weapon.handle" 39
  43 "v_weapon.ammobox" 39
  44 "v_weapon.bullet1" 43
  45 "v_weapon.bullet2" 44
  46 "v_weapon.bullet3" 45
  47 "v_weapon.bullet4" 46
  48 "v_weapon.bullet5" 47
  49 "v_weapon.bullet6" 48
  50 "v_weapon.bullet7" 49
  51 "v_weapon.bullet8" 50
  52 "v_weapon.bullet9" 51
  53 "v_weapon.bullet10" 52
  54 "v_weapon.ammobox_spare" 39
end
skeleton
  time 0
    0 0.000005 -1.663086 -9.140625 -1.570760 -1.391893 -1.570827
    1 2.033348 1.000767 1.937659 3.099206 -0.162014 1.679995
    2 6.028141 0.000005 0.000002 -2.517863 -0.209149 -0.934545
    3 11.692560 0.000013 -0.000006 -0.001038 0.000875 -1.738324
    4 11.481678 0.000006 -0.000039 -0.308532 0.836030 0.722942
    5 2.914364 -0.033040 -1.402919 -0.191369 -0.011273 -1.540200
    6 1.284180 0.000003 -0.000004 -0.002342 0.009091 0.011495
    7 0.841797 0.000000 0.000000 0.000507 -0.002524 -0.273496
    8 3.368091 0.003783 -0.622856 -0.063106 -0.016826 -1.201321
    9 1.610352 0.000001 0.000000 0.000817 -0.000301 -1.168463
    10 1.024443 -0.000006 0.000002 -0.000658 -0.000798 0.775482
    11 3.555553 0.031347 0.200967 -0.057853 -0.040377 -1.050347
    12 1.666016 -0.000001 0.000004 0.000999 -0.000144 -1.343494
    13 1.236527 -0.000006 0.000003 -0.001726 -0.001631 1.019386
    14 3.449685 0.065169 1.082459 -0.013978 -0.082060 -1.114949
    15 1.706055 0.000002 0.000002 -0.000401 0.000201 -1.012952
    16 1.002013 0.000000 0.000004 0.000281 0.000414 0.776803
    17 0.079461 -0.727845 0.762648 -0.736156 -0.787173 -1.159928
    18 2.512458 0.000002 -0.000006 -0.000002 -0.000001 0.444546
    19 1.332008 0.000001 -0.000004 -0.097421 0.064332 -0.666290
    20 2.033356 1.000772 -1.937610 -0.128177 0.172990 -2.038336
    21 6.028142 0.000001 -0.000001 0.042711 1.106539 -1.581271
    22 11.692555 0.000031 0.000001 0.000372 -0.000204 -1.972416
    23 11.481703 0.000105 0.000003 -0.698866 -0.490691 0.982392
    24 3.281534 0.011990 1.380615 0.110364 -0.028071 -1.076772
    25 1.327148 -0.000004 0.000001 0.000000 0.000000 -0.726272
    26 0.818848 0.000001 -0.000003 0.000000 0.000000 -1.125393
    27 3.711819 0.108941 0.567767 0.072429 0.067046 -1.222294
    28 1.593790 -0.000002 0.000002 0.000027 -0.000015 -0.986989
    29 0.988770 0.000002 0.000000 0.000000 0.000000 -1.136928
    30 3.786000 0.199703 -0.247443 0.048790 0.068674 -1.029100
    31 1.676613 0.000006 0.000006 0.000002 -0.000014 -1.058087
    32 1.252155 0.000002 0.000006 0.000002 -0.000011 -1.213108
    33 3.594200 0.288595 -1.116432 0.082573 0.075771 -0.495020
    34 1.723633 -0.000001 0.000000 0.000000 0.000000 -0.575374
    35 1.001953 0.000000 0.000000 0.000000 0.000000 -0.653323
    36 0.294284 -0.633278 -0.423775 0.630436 0.513563 -0.823789
    37 2.633557 -0.000008 -0.000008 -0.000002 -0.000001 0.804784
    38 1.309570 -0.000001 -0.000001 -0.325417 0.133506 0.225399
    39 -6.054083 -12.081218 -6.562094 1.929556 0.000013 -0.000055
    40 0.075653 -1.860363 3.566398 0.000007 0.000000 0.000000
    41 0.030047 2.382788 8.992188 1.570792 -1.570790 0.000000
    42 0.121123 1.352511 10.648437 1.570795 0.000000 0.000000
    43 0.075737 -4.531266 6.953113 0.000007 0.000000 0.000000
    44 2.275391 3.255859 0.161011 1.570795 0.000000 0.000000
    45 -0.118835 -0.000004 -0.423096 0.000000 0.000000 0.000000
    46 -0.359131 0.000002 -0.246460 0.000000 0.000000 0.000000
    47 -0.286865 0.000002 -0.336182 0.000000 0.000000 0.000000
    48 -0.092712 0.000002 -0.432129 0.000000 0.000000 -0.000002
    49 -0.040558 0.000004 -0.449463 0.000000 0.000000 0.000000
    50 -0.020279 -0.000004 -0.440674 0.000000 0.000000 0.000000
    51 -0.034790 -0.000002 -0.437988 0.000000 0.000000 0.000000
    52 -0.199951 0.000002 -0.399902 0.000000 0.000000 0.000000
    53 -0.443604 -0.000002 -0.089905 0.000000 0.000000 0.000000
    54 18.975773 -13.981928 -17.149940 -0.000013 0.000000 0.000000
  time 1
    0 0.000005 -1.663086 -9.140625 -1.570760 -1.391893 -1.570827
    1 2.033348 1.000767 1.937659 3.099206 -0.162014 1.679995
    2 6.028141 0.000005 0.000002 -2.517863 -0.209149 -0.934545
    3 11.692560 0.000013 -0.000006 -0.001038 0.000875 -1.738324
    4 11.481678 0.000006 -0.000039 -0.308532 0.836030 0.722942
    5 2.914364 -0.033040 -1.402919 -0.191369 -0.011273 -1.540200
    6 1.284180 0.000003 -0.000004 -0.002342 0.009091 0.011495
    7 0.841797 0.000000 0.000000 0.000507 -0.002524 -0.273496
    8 3.368091 0.003783 -0.622856 -0.063106 -0.016826 -1.201321
    9 1.610352 0.000001 0.000000 0.000817 -0.000301 -1.168463
    10 1.024443 -0.000006 0.000002 -0.000658 -0.000798 0.775482
    11 3.555553 0.031347 0.200967 -0.057853 -0.040377 -1.050347
    12 1.666016 -0.000001 0.000004 0.000999 -0.000144 -1.343494
    13 1.236527 -0.000006 0.000003 -0.001726 -0.001631 1.019386
    14 3.449685 0.065169 1.082459 -0.013978 -0.082060 -1.114949
    15 1.706055 0.000002 0.000002 -0.000401 0.000201 -1.012952
    16 1.002013 0.000000 0.000004 0.000281 0.000414 0.776803
    17 0.079461 -0.727845 0.762648 -0.736156 -0.787173 -1.159928
    18 2.512458 0.000002 -0.000006 -0.000002 -0.000001 0.444546
    19 1.332008 0.000001 -0.000004 -0.097421 0.064332 -0.666290
    20 2.033356 1.000772 -1.937610 -0.128177 0.172990 -2.038336
    21 6.028142 0.000001 -0.000001 0.042711 1.106539 -1.581271
    22 11.692555 0.000031 0.000001 0.000372 -0.000204 -1.972416
    23 11.481703 0.000105 0.000003 -0.698866 -0.490691 0.982392
    24 3.281534 0.011990 1.380615 0.110364 -0.028071 -1.076772
    25 1.327148 -0.000004 0.000001 0.000000 0.000000 -0.726272
    26 0.818848 0.000001 -0.000003 0.000000 0.000000 -1.125393
    27 3.711819 0.108941 0.567767 0.072429 0.067046 -1.222294
    28 1.593790 -0.000002 0.000002 0.000027 -0.000015 -0.986989
    29 0.988770 0.000002 0.000000 0.000000 0.000000 -1.136928
    30 3.786000 0.199703 -0.247443 0.048790 0.068674 -1.029100
    31 1.676613 0.000006 0.000006 0.000002 -0.000014 -1.058087
    32 1.252155 0.000002 0.000006 0.000002 -0.000011 -1.213108
    33 3.594200 0.288595 -1.116432 0.082573 0.075771 -0.495020
    34 1.723633 -0.000001 0.000000 0.000000 0.000000 -0.575374
    35 1.001953 0.000000 0.000000 0.000000 0.000000 -0.653323
    36 0.294284 -0.633278 -0.423775 0.630436 0.513563 -0.823789
    37 2.633557 -0.000008 -0.000008 -0.000002 -0.000001 0.804784
    38 1.309570 -0.000001 -0.000001 -0.325417 0.133506 0.225399
    39 -6.054083 -12.081218 -6.562094 1.929556 0.000013 -0.000055
    40 0.075653 -1.860363 3.566398 0.000007 0.000000 0.000000
    41 0.030047 2.382788 8.992188 1.570792 -1.570790 0.000000
    42 0.121123 1.352511 10.648437 1.570795 0.000000 0.000000
    43 0.075737 -4.531266 6.953113 0.000007 0.000000 0.000000
    44 2.275391 3.255859 0.161011 1.570795 0.000000 0.000000
    45 -0.118835 -0.000004 -0.423096 0.000000 0.000000 0.000000
    46 -0.359131 0.000002 -0.246460 0.000000 0.000000 0.000000
    47 -0.286865 0.000002 -0.336182 0.000000 0.000000 0.000000
    48 -0.092712 0.000002 -0.432129 0.000000 0.000000 -0.000002
    49 -0.040558 0.000004 -0.449463 0.000000 0.000000 0.000000
    50 -0.020279 -0.000004 -0.440674 0.000000 0.000000 0.000000
    51 -0.034790 -0.000002 -0.437988 0.000000 0.000000 0.000000
    52 -0.199951 0.000002 -0.399902 0.000000 0.000000 0.000000
    53 -0.443604 -0.000002 -0.089905 0.000000 0.000000 0.000000
    54 18.975773 -13.981928 -17.149940 -0.000013 0.000000 0.000000
  time 2
    0 0.000005 -1.663086 -9.140625 -1.570760 -1.391893 -1.570827
    1 2.033348 1.000767 1.937659 3.099206 -0.162014 1.679995
    2 6.028141 0.000005 0.000002 -2.519104 -0.216424 -0.856885
    3 11.692560 0.000013 -0.000006 -0.001002 0.000875 -1.699612
    4 11.481678 0.000006 -0.000039 -0.350322 0.838672 0.675551
    5 2.836236 0.345878 -1.520110 -0.191092 -0.031694 -1.530182
    6 1.284180 0.000003 -0.000004 -0.002342 0.009091 0.011495
    7 0.841797 0.000000 0.000000 0.000507 -0.002524 -0.273496
    8 3.289964 0.398326 -0.740047 -0.069650 -0.036169 -1.191147
    9 1.610352 0.000001 0.000000 0.000817 -0.000301 -1.168463
    10 1.024443 -0.000006 0.000002 -0.000658 -0.000798 0.775482
    11 3.477426 0.449328 0.079870 -0.067237 -0.058522 -1.039862
    12 1.666016 -0.000001 0.000004 0.000999 -0.000144 -1.343494
    13 1.236527 -0.000006 0.000003 -0.001726 -0.001631 1.019386
    14 3.371558 0.502682 0.965268 -0.022202 -0.100768 -1.104174
    15 1.706055 0.000002 0.000002 -0.000401 0.000201 -1.012952
    16 1.002013 0.000000 0.000004 0.000281 0.000414 0.776803
    17 0.009146 -0.341115 0.657176 -0.746502 -0.800740 -1.142790
    18 2.512458 0.000002 -0.000006 -0.000002 -0.000001 0.437655
    19 1.328102 0.000001 -0.000004 -0.096462 0.065291 -0.654638
    20 2.033356 1.000772 -1.937610 -0.128177 0.172990 -2.038336
    21 6.028142 0.000001 -0.000001 -0.006865 1.108946 -1.638760
    22 11.692555 0.000031 0.000001 0.000372 -0.000204 -1.935246
    23 11.481703 0.000105 0.000003 -0.691670 -0.457006 0.940961
    24 3.097934 -0.027074 1.556401 0.131774 -0.035585 -1.078969
    25 1.327148 -0.000004 0.000001 0.000000 0.000000 -0.726272
    26 0.818848 0.000001 -0.000003 0.000000 0.000000 -1.125393
    27 3.543845 0.073784 0.755273 0.094744 0.062696 -1.222330
    28 1.601603 -0.000002 0.000002 0.000015 -0.000015 -0.986917
    29 0.988770 0.000002 0.000000 0.000000 0.000000 -1.136928
    30 3.637558 0.164546 -0.056031 0.069859 0.060129 -1.029213
    31 1.680520 0.000006 0.000006 0.000002 -0.000038 -1.058123
    32 1.252155 0.000002 0.000006 0.000002 -0.000011 -1.213108
    33 3.465289 0.257344 -0.932832 0.096350 0.057710 -0.495604
    34 1.723633 -0.000001 0.000000 0.000000 0.000000 -0.575374
    35 1.001953 0.000000 0.000000 0.000000 0.000000 -0.653323
    36 0.153655 -0.660622 -0.314397 0.651918 0.500774 -0.814861
    37 2.633557 -0.000008 -0.000008 -0.000002 -0.000001 0.804784
    38 1.309570 -0.000001 -0.000001 -0.325417 0.133506 0.225399
    39 -6.077521 -12.198409 -6.464435 1.907262 0.004339 -0.000001
    40 0.075653 -1.860363 3.566398 0.000007 0.000000 0.000000
    41 0.030047 2.382788 8.992188 1.570792 -1.570790 0.000000
    42 0.121123 1.352511 10.648437 1.570795 0.000000 0.000000
    43 0.075737 -4.531266 6.953113 0.000007 0.000000 0.000000
    44 2.275391 3.255859 0.161011 1.570795 0.000000 0.000000
    45 -0.118835 -0.000004 -0.423096 0.000000 0.000000 0.000000
    46 -0.359131 0.000002 -0.246460 0.000000 0.000000 0.000000
    47 -0.286865 0.000002 -0.336182 0.000000 0.000000 0.000000
    48 -0.092712 0.000002 -0.432129 0.000000 0.000000 -0.000002
    49 -0.040558 0.000004 -0.449463 0.000000 0.000000 0.000000
    50 -0.020279 -0.000004 -0.440674 0.000000 0.000000 0.000000
    51 -0.034790 -0.000002 -0.437988 0.000000 0.000000 0.000000
    52 -0.199951 0.000002 -0.399902 0.000000 0.000000 0.000000
    53 -0.443604 -0.000002 -0.089905 0.000000 0.000000 0.000000
    54 18.975773 -13.981928 -17.149940 -0.000013 0.000000 0.000000
  time 3
    0 0.000005 -1.663086 -9.140625 -1.570760 -1.391893 -1.570827
    1 2.033348 1.000767 1.937659 3.099206 -0.162014 1.679995
    2 6.028141 0.000005 0.000002 -2.522158 -0.226797 -0.689293
    3 11.692560 0.000013 -0.000006 -0.000930 0.000887 -1.616648
    4 11.481678 0.000006 -0.000039 -0.444543 0.839241 0.564467
    5 2.722952 0.986523 -1.738867 -0.191606 -0.067337 -1.512531
    6 1.284180 0.000003 -0.000004 -0.002342 0.009091 0.011495
    7 0.841797 0.000000 0.000000 0.000507 -0.002524 -0.273496
    8 3.176679 1.074128 -0.958804 -0.082030 -0.069618 -1.172821
    9 1.610352 0.000001 0.000000 0.000817 -0.000301 -1.168463
    10 1.024443 -0.000006 0.000002 -0.000658 -0.000798 0.775482
    11 3.360234 1.156381 -0.142793 -0.084555 -0.089706 -1.020950
    12 1.666016 -0.000001 0.000004 0.000999 -0.000144 -1.343494
    13 1.236527 -0.000006 0.000003 -0.001726 -0.001631 1.019348
    14 3.250460 1.237080 0.738699 -0.037525 -0.132995 -1.084743
    15 1.706055 0.000002 0.000002 -0.000401 0.000201 -1.012952
    16 1.002013 0.000000 0.000004 0.000281 0.000414 0.776803
    17 -0.092419 0.326874 0.457952 -0.766755 -0.823451 -1.110857
    18 2.512458 0.000002 -0.000006 -0.000002 -0.000001 0.418947
    19 1.332008 0.000001 -0.000004 -0.093861 0.067856 -0.623074
    20 2.033356 1.000772 -1.937610 -0.128177 0.172990 -2.038336
    21 6.028142 0.000001 -0.000001 -0.115675 1.111631 -1.765602
    22 11.692555 0.000031 0.000001 0.000348 -0.000216 -1.857815
    23 11.481703 0.000105 0.000003 -0.678361 -0.382696 0.853404
    24 2.789331 -0.077856 1.841566 0.169372 -0.048517 -1.082655
    25 1.327148 -0.000004 0.000001 0.000000 0.000000 -0.726272
    26 0.818848 0.000001 -0.000003 0.000000 0.000000 -1.125393
    27 3.266493 0.034720 1.059969 0.133814 0.055181 -1.222116
    28 1.601603 -0.000002 0.000002 0.000003 -0.000003 -0.986917
    29 0.988770 0.000002 0.000000 0.000000 0.000000 -1.136928
    30 3.391457 0.125482 0.244760 0.106735 0.045280 -1.029401
    31 1.680520 0.000006 0.000006 0.000002 -0.000038 -1.058087
    32 1.252155 0.000002 0.000006 0.000002 -0.000011 -1.213143
    33 3.254346 0.222187 -0.632042 0.120541 0.026227 -0.496698
    34 1.723633 -0.000001 0.000000 0.000000 0.000000 -0.575374
    35 1.001953 0.000000 0.000000 0.000000 0.000000 -0.653323
    36 -0.080727 -0.695780 -0.154236 0.688915 0.478179 -0.799544
    37 2.637464 -0.000008 -0.000008 -0.000002 -0.000001 0.804784
    38 1.309570 -0.000001 -0.000001 -0.325417 0.133506 0.225399
    39 -6.112678 -12.491387 -6.198802 1.845867 0.016156 0.000105
    40 0.075653 -1.860363 3.566398 0.000007 0.000000 0.000000
    41 0.030047 2.382788 8.992188 1.570792 -1.570790 0.000000
    42 0.121123 1.352511 10.648437 1.570795 0.000000 0.000000
    43 0.075737 -4.531266 6.953113 0.000007 0.000000 0.000000
    44 2.275391 3.255859 0.161011 1.570795 0.000000 0.000000
    45 -0.118835 -0.000004 -0.423096 0.000000 0.000000 0.000000
    46 -0.359131 0.000002 -0.246460 0.000000 0.000000 0.000000
    47 -0.286865 0.000002 -0.336182 0.000000 0.000000 0.000000
    48 -0.092712 0.000002 -0.432129 0.000000 0.000000 -0.000002
    49 -0.040558 0.000004 -0.449463 0.000000 0.000000 0.000000
    50 -0.020279 -0.000004 -0.440674 0.000000 0.000000 0.000000
    51 -0.034790 -0.000002 -0.437988 0.000000 0.000000 0.000000
    52 -0.199951 0.000002 -0.399902 0.000000 0.000000 0.000000
    53 -0.443604 -0.000002 -0.089905 0.000000 0.000000 0.000000
    54 18.975773 -13.981928 -17.149940 -0.000013 0.000000 0.000000
  time 4
    0 0.000005 -1.663086 -9.140625 -1.570760 -1.391893 -1.570827
    1 2.033348 1.000767 1.937659 3.099206 -0.162014 1.679995
    2 6.028141 0.000005 0.000002 -2.522635 -0.225076 -0.522086
    3 11.692560 0.000013 -0.000006 -0.000870 0.000887 -1.545501
    4 11.481678 0.000006 -0.000039 -0.546335 0.830299 0.446411
    5 2.715139 1.342002 -1.828713 -0.193334 -0.088837 -1.501656
    6 1.284180 0.000003 -0.000004 -0.002342 0.009091 0.011495
    7 0.841797 0.000000 0.000000 0.000507 -0.002524 -0.273496
    8 3.164960 1.449139 -1.052557 -0.090838 -0.089309 -1.161422
    9 1.610352 0.000001 0.000000 0.000817 -0.000301 -1.168463
    10 1.024443 -0.000006 0.000002 -0.000658 -0.000798 0.775482
    11 3.348515 1.554831 -0.232640 -0.096288 -0.107838 -1.009033
    12 1.666016 -0.000001 0.000004 0.000999 -0.000144 -1.343494
    13 1.236527 -0.000006 0.000003 -0.001726 -0.001631 1.019386
    14 3.238741 1.655061 0.644946 -0.048130 -0.151835 -1.072500
    15 1.706055 0.000002 0.000002 -0.000401 0.000201 -1.012952
    16 1.002013 0.000000 0.000004 0.000281 0.000414 0.776803
    17 -0.096326 0.701886 0.387637 -0.781427 -0.831456 -1.089851
    18 2.512458 0.000002 -0.000006 -0.000002 -0.000001 0.391371
    19 1.332008 0.000001 -0.000004 -0.090026 0.071643 -0.576528
    20 2.033356 1.000772 -1.937610 -0.128177 0.172990 -2.038336
    21 6.028142 0.000001 -0.000001 -0.219290 1.112364 -1.887726
    22 11.692555 0.000031 0.000001 0.000336 -0.000216 -1.792637
    23 11.481703 0.000105 0.000003 -0.667120 -0.304969 0.770686
    24 2.668234 -0.073950 1.978289 0.192225 -0.056271 -1.084001
    25 1.327148 -0.000004 0.000001 0.000000 0.000000 -0.726272
    26 0.818848 0.000001 -0.000003 0.000000 0.000000 -1.125393
    27 3.164928 0.042533 1.212318 0.157483 0.050639 -1.221080
    28 1.605509 -0.000002 0.000002 0.000003 -0.000003 -0.986953
    29 0.988770 0.000002 0.000000 0.000000 0.000000 -1.136928
    30 3.309423 0.133295 0.401015 0.129111 0.036291 -1.028647
    31 1.684426 0.000006 0.000006 -0.000010 -0.000026 -1.058051
    32 1.256061 0.000002 0.000006 0.000002 -0.000011 -1.213108
    33 3.191844 0.237812 -0.475787 0.135232 0.007135 -0.496625
    34 1.723633 -0.000001 0.000000 0.000000 0.000000 -0.575374
    35 1.001953 0.000000 0.000000 0.000000 0.000000 -0.653323
    36 -0.151042 -0.680154 -0.080015 0.710994 0.464246 -0.789729
    37 2.637464 -0.000008 -0.000008 -0.000002 -0.000001 0.804784
    38 1.309570 -0.000001 -0.000001 -0.325417 0.133506 0.225399
    39 -6.116584 -12.784364 -5.812071 1.760792 0.032311 0.000265
    40 0.075653 -1.860363 3.566398 0.000007 0.000000 0.000000
    41 0.030047 2.382788 8.992188 1.570792 -1.570790 0.000000
    42 0.121123 1.352511 10.648437 1.570795 0.000000 0.000000
    43 0.075737 -4.531266 6.953113 0.000007 0.000000 0.000000
    44 2.275391 3.255859 0.161011 1.570795 0.000000 0.000000
    45 -0.118835 -0.000004 -0.423096 0.000000 0.000000 0.000000
    46 -0.359131 0.000002 -0.246460 0.000000 0.000000 0.000000
    47 -0.286865 0.000002 -0.336182 0.000000 0.000000 0.000000
    48 -0.092712 0.000002 -0.432129 0.000000 0.000000 -0.000002
    49 -0.040558 0.000004 -0.449463 0.000000 0.000000 0.000000
    50 -0.020279 -0.000004 -0.440674 0.000000 0.000000 0.000000
    51 -0.034790 -0.000002 -0.437988 0.000000 0.000000 0.000000
    52 -0.199951 0.000002 -0.399902 0.000000 0.000000 0.000000
    53 -0.443604 -0.000002 -0.089905 0.000000 0.000000 0.000000
    54 18.975773 -13.981928 -17.149940 -0.000013 0.000000 0.000000
  time 5
    0 0.000005 -1.663086 -9.140625 -1.570760 -1.391893 -1.570827
    1 2.033348 1.000767 1.937659 3.099206 -0.162014 1.679995
    2 6.028141 0.000005 0.000002 -2.518531 -0.209886 -0.393132
    3 11.692560 0.000013 -0.000006 -0.000834 0.000887 -1.507930
    4 11.481678 0.000006 -0.000039 -0.632887 0.814408 0.354360
    5 2.797173 1.365441 -1.762305 -0.194968 -0.091929 -1.500003
    6 1.284180 0.000003 -0.000004 -0.002342 0.009091 0.011495
    7 0.841797 0.000000 0.000000 0.000507 -0.002524 -0.273496
    8 3.246994 1.476484 -0.982242 -0.093427 -0.091682 -1.159705
    9 1.610352 0.000001 0.000000 0.000817 -0.000301 -1.168463
    10 1.024443 -0.000006 0.000002 -0.000658 -0.000798 0.775482
    11 3.430549 1.582175 -0.170138 -0.099212 -0.109792 -1.007281
    12 1.666016 -0.000001 0.000004 0.000999 -0.000144 -1.343494
    13 1.236527 -0.000006 0.000003 -0.001726 -0.001631 1.019386
    14 3.324681 1.686312 0.707448 -0.050929 -0.153968 -1.070606
    15 1.706055 0.000002 0.000002 -0.000401 0.000201 -1.012952
    16 1.002013 0.000000 0.000004 0.000281 0.000414 0.776803
    17 -0.010386 0.725324 0.457952 -0.785489 -0.822720 -1.085870
    18 2.512458 0.000002 -0.000006 -0.000002 -0.000001 0.357898
    19 1.332008 0.000001 -0.000004 -0.085376 0.076245 -0.520058
    20 2.033356 1.000772 -1.937610 -0.128177 0.172990 -2.038336
    21 6.028142 0.000001 -0.000001 -0.288794 1.111631 -1.970834
    22 11.692555 0.000031 0.000001 0.000324 -0.000216 -1.757627
    23 11.481703 0.000105 0.000003 -0.660912 -0.240037 0.711875
    24 2.750268 -0.027074 1.974383 0.195545 -0.057553 -1.082867
    25 1.327148 -0.000004 0.000001 0.000000 0.000000 -0.726272
    26 0.818848 0.000001 -0.000003 0.000000 0.000000 -1.125393
    27 3.246961 0.081596 1.208411 0.160947 0.049824 -1.219580
    28 1.597696 -0.000002 0.000002 0.000003 -0.000003 -0.986917
    29 0.988770 0.000002 0.000000 0.000000 0.000000 -1.136928
    30 3.395363 0.180171 0.401015 0.132346 0.034829 -1.027216
    31 1.680520 0.000006 0.000006 0.000002 -0.000038 -1.058265
    32 1.252155 0.000002 0.000006 0.000002 -0.000011 -1.213108
    33 3.277784 0.280782 -0.479693 0.137303 0.004235 -0.495275
    34 1.723633 -0.000001 0.000000 0.000000 0.000000 -0.575374
    35 1.001953 0.000000 0.000000 0.000000 0.000000 -0.653323
    36 -0.069008 -0.641090 -0.091734 0.714131 0.462070 -0.787020
    37 2.637464 -0.000008 -0.000008 -0.000002 -0.000001 0.804784
    38 1.309570 -0.000001 -0.000001 -0.325417 0.133506 0.225399
    39 -6.065802 -12.952338 -5.390183 1.672182 0.048694 0.000372
    40 0.075653 -1.860363 3.566398 0.000007 0.000000 0.000000
    41 0.030047 2.382788 8.992188 1.570792 -1.570790 0.000000
    42 0.121123 1.352511 10.648437 1.570795 0.000000 0.000000
    43 0.075737 -4.531266 6.953113 0.000007 0.000000 0.000000
    44 2.275391 3.255859 0.161011 1.570795 0.000000 0.000000
    45 -0.118835 -0.000004 -0.423096 0.000000 0.000000 0.000000
    46 -0.359131 0.000002 -0.246460 0.000000 0.000000 0.000000
    47 -0.286865 0.000002 -0.336182 0.000000 0.000000 0.000000
    48 -0.092712 0.000002 -0.432129 0.000000 0.000000 -0.000002
    49 -0.040558 0.000004 -0.449463 0.000000 0.000000 0.000000
    50 -0.020279 -0.000004 -0.440674 0.000000 0.000000 0.000000
    51 -0.034790 -0.000002 -0.437988 0.000000 0.000000 0.000000
    52 -0.199951 0.000002 -0.399902 0.000000 0.000000 0.000000
    53 -0.443604 -0.000002 -0.089905 0.000000 0.000000 0.000000
    54 18.975773 -13.981928 -17.149940 -0.000013 0.000000 0.000000
  time 6
    0 0.000005 -1.663086 -9.140625 -1.570760 -1.391893 -1.570827
    1 2.033348 1.000767 1.937659 3.099206 -0.162014 1.679995
    2 6.028141 0.000005 0.000002 -2.512422 -0.191599 -0.314322
    3 11.692560 0.000013 -0.000006 -0.000822 0.000887 -1.497906
    4 11.481678 0.000006 -0.000039 -0.689726 0.799329 0.300656
    5 2.887019 1.131058 -1.633395 -0.195390 -0.079621 -1.506570
    6 1.284180 0.000003 -0.000004 -0.002342 0.009091 0.011495
    7 0.841797 0.000000 0.000000 0.000507 -0.002524 -0.273496
    8 3.340747 1.230383 -0.861145 -0.089700 -0.079937 -1.166590
    9 1.610352 0.000001 0.000000 0.000817 -0.000301 -1.168463
    10 1.024443 -0.000006 0.000002 -0.000658 -0.000798 0.775482
    11 3.528208 1.324355 -0.041228 -0.093711 -0.098754 -1.014428
    12 1.666016 -0.000001 0.000004 0.000999 -0.000144 -1.343494
    13 1.236527 -0.000006 0.000003 -0.001726 -0.001631 1.019386
    14 3.422340 1.416773 0.840264 -0.046139 -0.142607 -1.077906
    15 1.706055 0.000002 0.000002 -0.000401 0.000201 -1.012952
    16 1.002013 0.000000 0.000004 0.000281 0.000414 0.776803
    17 0.079461 0.483129 0.575143 -0.779440 -0.801183 -1.097135
    18 2.512458 0.000002 -0.000006 -0.000002 -0.000001 0.321476
    19 1.328102 0.000001 -0.000004 -0.080307 0.081242 -0.458563
    20 2.033356 1.000772 -1.937610 -0.128177 0.172990 -2.038336
    21 6.028142 0.000001 -0.000001 -0.322355 1.110725 -2.011737
    22 11.692555 0.000031 0.000001 0.000324 -0.000216 -1.747707
    23 11.481703 0.000105 0.000003 -0.658655 -0.196626 0.679664
    24 2.914335 0.019803 1.865005 0.182228 -0.053526 -1.080599
    25 1.327148 -0.000004 0.000001 0.000000 0.000000 -0.726272
    26 0.818848 0.000001 -0.000003 0.000000 0.000000 -1.125393
    27 3.403216 0.124566 1.087314 0.147237 0.051993 -1.218722
    28 1.597696 -0.000002 0.000002 0.000003 -0.000003 -0.986953
    29 0.988770 0.000002 0.000000 0.000000 0.000000 -1.136928
    30 3.539899 0.223141 0.283824 0.119295 0.039587 -1.026161
    31 1.676613 0.000006 0.000006 0.000002 -0.000026 -1.058194
    32 1.256061 0.000002 0.000006 0.000002 -0.000011 -1.213108
    33 3.410600 0.323753 -0.592978 0.128449 0.014949 -0.493853
    34 1.723633 -0.000001 0.000000 0.000000 0.000000 -0.575374
    35 1.001953 0.000000 0.000000 0.000000 0.000000 -0.653323
    36 0.075528 -0.602027 -0.162049 0.701196 0.469743 -0.791299
    37 2.633557 -0.000008 -0.000008 -0.000002 -0.000001 0.804784
    38 1.309570 -0.000001 -0.000001 -0.325417 0.133506 0.225399
    39 -5.979861 -12.975777 -5.050329 1.597160 0.062021 0.000479
    40 0.075653 -1.860363 3.566398 0.000007 0.000000 0.000000
    41 0.030047 2.382788 8.992188 1.570792 -1.570790 0.000000
    42 0.121123 1.352511 10.648437 1.570795 0.000000 0.000000
    43 0.075737 -4.531266 6.953113 0.000007 0.000000 0.000000
    44 2.275391 3.255859 0.161011 1.570795 0.000000 0.000000
    45 -0.118835 -0.000004 -0.423096 0.000000 0.000000 0.000000
    46 -0.359131 0.000002 -0.246460 0.000000 0.000000 0.000000
    47 -0.286865 0.000002 -0.336182 0.000000 0.000000 0.000000
    48 -0.092712 0.000002 -0.432129 0.000000 0.000000 -0.000002
    49 -0.040558 0.000004 -0.449463 0.000000 0.000000 0.000000
    50 -0.020279 -0.000004 -0.440674 0.000000 0.000000 0.000000
    51 -0.034790 -0.000002 -0.437988 0.000000 0.000000 0.000000
    52 -0.199951 0.000002 -0.399902 0.000000 0.000000 0.000000
    53 -0.443604 -0.000002 -0.089905 0.000000 0.000000 0.000000
    54 18.975773 -13.981928 -17.149940 -0.000013 0.000000 0.000000
  time 7
    0 0.000005 -1.663086 -9.140625 -1.570760 -1.391893 -1.570827
    1 2.033348 1.000767 1.937659 3.099206 -0.162014 1.679995
    2 6.028141 0.000005 0.000002 -2.508509 -0.180293 -0.281916
    3 11.692560 0.000013 -0.000006 -0.000834 0.000887 -1.500840
    4 11.481678 0.000006 -0.000039 -0.713496 0.791729 0.281529
    5 2.937802 0.752141 -1.516204 -0.194507 -0.058552 -1.517801
    6 1.284180 0.000003 -0.000004 -0.002342 0.009091 0.011495
    7 0.841797 0.000000 0.000000 0.000507 -0.002524 -0.273496
    8 3.391529 0.828027 -0.740047 -0.081826 -0.060378 -1.178317
    9 1.610352 0.000001 0.000000 0.000817 -0.000301 -1.168463
    10 1.024443 -0.000006 0.000002 -0.000658 -0.000798 0.775482
    11 3.578991 0.906374 0.083776 -0.082949 -0.080597 -1.026558
    12 1.666016 -0.000001 0.000004 0.000999 -0.000144 -1.343494
    13 1.236527 -0.000006 0.000003 -0.001726 -0.001631 1.019348
    14 3.477030 0.979259 0.957456 -0.036515 -0.123803 -1.090372
    15 1.706055 0.000002 0.000002 -0.000401 0.000201 -1.012952
    16 1.002013 0.000000 0.000004 0.000281 0.000414 0.776803
    17 0.122431 0.092492 0.684521 -0.767720 -0.773319 -1.116504
    18 2.512458 0.000002 -0.000006 -0.000002 -0.000001 0.285067
    19 1.328102 0.000001 -0.000004 -0.075249 0.086252 -0.397067
    20 2.033356 1.000772 -1.937610 -0.128177 0.172990 -2.038336
    21 6.028142 0.000001 -0.000001 -0.330485 1.110167 -2.022075
    22 11.692555 0.000031 0.000001 0.000324 -0.000216 -1.749049
    23 11.481703 0.000105 0.000003 -0.657620 -0.176085 0.667180
    24 3.078403 0.039335 1.704843 0.159461 -0.046348 -1.078615
    25 1.327148 -0.000004 0.000001 0.000000 0.000000 -0.726272
    26 0.818848 0.000001 -0.000003 0.000000 0.000000 -1.125393
    27 3.551658 0.140192 0.915434 0.123687 0.055948 -1.219115
    28 1.601603 -0.000002 0.000002 0.000003 -0.000003 -0.986917
    29 0.988770 0.000002 0.000000 0.000000 0.000000 -1.136928
    30 3.668809 0.238767 0.104131 0.096956 0.047964 -1.026274
    31 1.676613 0.000006 0.000006 0.000002 -0.000026 -1.058194
    32 1.252155 0.000002 0.000006 0.000002 -0.000011 -1.213108
    33 3.519979 0.331565 -0.768765 0.113487 0.033513 -0.493342
    34 1.723633 -0.000001 0.000000 0.000000 0.000000 -0.575374
    35 1.001953 0.000000 0.000000 0.000000 0.000000 -0.653323
    36 0.192719 -0.590308 -0.255801 0.678867 0.483026 -0.800647
    37 2.637464 -0.000008 -0.000008 -0.000002 -0.000001 0.804784
    38 1.309570 -0.000001 -0.000001 -0.325417 0.133506 0.225399
    39 -5.901734 -12.932806 -4.819853 1.545501 0.070327 0.000532
    40 0.075653 -1.860363 3.566398 0.000007 0.000000 0.000000
    41 0.030047 2.382788 8.992188 1.570792 -1.570790 0.000000
    42 0.121123 1.352511 10.648437 1.570795 0.000000 0.000000
    43 0.075737 -4.531266 6.953113 0.000007 0.000000 0.000000
    44 2.275391 3.255859 0.161011 1.570795 0.000000 0.000000
    45 -0.118835 -0.000004 -0.423096 0.000000 0.000000 0.000000
    46 -0.359131 0.000002 -0.246460 0.000000 0.000000 0.000000
    47 -0.286865 0.000002 -0.336182 0.000000 0.000000 0.000000
    48 -0.092712 0.000002 -0.432129 0.000000 0.000000 -0.000002
    49 -0.040558 0.000004 -0.449463 0.000000 0.000000 0.000000
    50 -0.020279 -0.000004 -0.440674 0.000000 0.000000 0.000000
    51 -0.034790 -0.000002 -0.437988 0.000000 0.000000 0.000000
    52 -0.199951 0.000002 -0.399902 0.000000 0.000000 0.000000
    53 -0.443604 -0.000002 -0.089905 0.000000 0.000000 0.000000
    54 18.975773 -13.981928 -17.149940 -0.000013 0.000000 0.000000
  time 8
    0 0.000005 -1.663086 -9.140625 -1.570760 -1.391893 -1.570827
    1 2.033348 1.000767 1.937659 3.099206 -0.162014 1.679995
    2 6.028141 0.000005 0.000002 -2.508604 -0.179900 -0.287860
    3 11.692560 0.000013 -0.000006 -0.000834 0.000887 -1.505974
    4 11.481678 0.000006 -0.000039 -0.707170 0.793395 0.288313
    5 2.937802 0.334159 -1.441983 -0.192806 -0.034559 -1.530266
    6 1.284180 0.000003 -0.000004 -0.002342 0.009091 0.011495
    7 0.841797 0.000000 0.000000 0.000507 -0.002524 -0.273496
    8 3.391529 0.386607 -0.658013 -0.072214 -0.038303 -1.191167
    9 1.610352 0.000001 0.000000 0.000817 -0.000301 -1.168463
    10 1.024443 -0.000006 0.000002 -0.000658 -0.000798 0.775482
    11 3.582898 0.441516 0.161903 -0.070101 -0.060235 -1.039817
    12 1.666016 -0.000001 0.000004 0.000999 -0.000144 -1.343494
    13 1.236527 -0.000006 0.000003 -0.001726 -0.001631 1.019348
    14 3.477030 0.494869 1.047302 -0.024958 -0.102662 -1.104026
    15 1.706055 0.000002 0.000002 -0.000401 0.000201 -1.012952
    16 1.002013 0.000000 0.000004 0.000281 0.000414 0.776803
    17 0.114618 -0.345021 0.743116 -0.754685 -0.744604 -1.137284
    18 2.512458 0.000002 -0.000006 -0.000002 -0.000001 0.251594
    19 1.332008 0.000001 -0.000004 -0.070599 0.090854 -0.340566
    20 2.033356 1.000772 -1.937610 -0.128177 0.172990 -2.038336
    21 6.028142 0.000001 -0.000001 -0.321927 1.108946 -2.011602
    22 11.692555 0.000031 0.000001 0.000324 -0.000216 -1.753367
    23 11.481703 0.000105 0.000003 -0.657056 -0.175497 0.668727
    24 3.203406 0.031522 1.521244 0.133531 -0.038066 -1.077445
    25 1.327148 -0.000004 0.000001 0.000000 0.000000 -0.726272
    26 0.818848 0.000001 -0.000003 0.000000 0.000000 -1.125393
    27 3.653224 0.132379 0.724022 0.096841 0.060490 -1.220616
    28 1.597696 -0.000002 0.000002 0.000003 -0.000003 -0.986989
    29 0.988770 0.000002 0.000000 0.000000 0.000000 -1.136928
    30 3.746936 0.223141 -0.091188 0.071489 0.057564 -1.027555
    31 1.676613 0.000006 0.000006 0.000002 -0.000014 -1.058158
    32 1.252155 0.000002 0.000006 0.000002 -0.000011 -1.213108
    33 3.574668 0.315940 -0.964083 0.096440 0.054678 -0.493999
    34 1.723633 -0.000001 0.000000 0.000000 0.000000 -0.575374
    35 1.001953 0.000000 0.000000 0.000000 0.000000 -0.653323
    36 0.263034 -0.609839 -0.357367 0.653111 0.497947 -0.812691
    37 2.637464 -0.000008 -0.000008 -0.000002 -0.000001 0.804784
    38 1.309570 -0.000001 -0.000001 -0.325417 0.133506 0.225399
    39 -5.862670 -12.889836 -4.741726 1.520436 0.073059 0.000532
    40 0.075653 -1.860363 3.566398 0.000007 0.000000 0.000000
    41 0.030047 2.382788 8.992188 1.570792 -1.570790 0.000000
    42 0.121123 1.352511 10.648437 1.570795 0.000000 0.000000
    43 0.075737 -4.531266 6.953113 0.000007 0.000000 0.000000
    44 2.275391 3.255859 0.161011 1.570795 0.000000 0.000000
    45 -0.118835 -0.000004 -0.423096 0.000000 0.000000 0.000000
    46 -0.359131 0.000002 -0.246460 0.000000 0.000000 0.000000
    47 -0.286865 0.000002 -0.336182 0.000000 0.000000 0.000000
    48 -0.092712 0.000002 -0.432129 0.000000 0.000000 -0.000002
    49 -0.040558 0.000004 -0.449463 0.000000 0.000000 0.000000
    50 -0.020279 -0.000004 -0.440674 0.000000 0.000000 0.000000
    51 -0.034790 -0.000002 -0.437988 0.000000 0.000000 0.000000
    52 -0.199951 0.000002 -0.399902 0.000000 0.000000 0.000000
    53 -0.443604 -0.000002 -0.089905 0.000000 0.000000 0.000000
    54 18.975773 -13.981928 -17.149940 -0.000013 0.000000 0.000000
  time 9
    0 0.000005 -1.663086 -9.140625 -1.570760 -1.391893 -1.570827
    1 2.033348 1.000767 1.937659 3.099206 -0.162014 1.679995
    2 6.028141 0.000005 0.000002 -2.509750 -0.179211 -0.307227
    3 11.692560 0.000013 -0.000006 -0.000834 0.000887 -1.513554
    4 11.481678 0.000006 -0.000039 -0.684454 0.803759 0.309983
    5 2.945615 0.025556 -1.406825 -0.192213 -0.019518 -1.543170
    6 1.284180 0.000003 -0.000004 -0.002342 0.009091 0.011495
    7 0.841797 0.000000 0.000000 0.000507 -0.002524 -0.273496
    8 3.403249 0.058472 -0.622856 -0.066653 -0.024317 -1.204242
    9 1.610352 0.000001 0.000000 0.000817 -0.000301 -1.168463
    10 1.024443 -0.000006 0.000002 -0.000658 -0.000798 0.775482
    11 3.590710 0.097755 0.197061 -0.062491 -0.047244 -1.053120
    12 1.666016 -0.000001 0.000004 0.000999 -0.000144 -1.343494
    13 1.236527 -0.000006 0.000003 -0.001726 -0.001631 1.019348
    14 3.484842 0.143296 1.078553 -0.018162 -0.089215 -1.117550
    15 1.706055 0.000002 0.000002 -0.000401 0.000201 -1.012952
    16 1.002013 0.000000 0.000004 0.000281 0.000414 0.776803
    17 0.114618 -0.641905 0.766555 -0.748723 -0.725656 -1.153067
    18 2.512458 0.000002 -0.000006 -0.000002 -0.000001 0.224042
    19 1.332008 0.000001 -0.000004 -0.066764 0.094641 -0.294020
    20 2.033356 1.000772 -1.937610 -0.128177 0.172990 -2.038336
    21 6.028142 0.000001 -0.000001 -0.305299 1.102703 -1.990611
    22 11.692555 0.000031 0.000001 0.000324 -0.000216 -1.759669
    23 11.481703 0.000105 0.000003 -0.652212 -0.178566 0.675427
    24 3.273721 0.051054 1.368896 0.114120 -0.036125 -1.076276
    25 1.327148 -0.000004 0.000001 0.000000 0.000000 -0.726272
    26 0.818848 0.000001 -0.000003 0.000000 0.000000 -1.125393
    27 3.707913 0.144098 0.563861 0.077319 0.059616 -1.221366
    28 1.601603 -0.000002 0.000002 0.000003 -0.000003 -0.986953
    29 0.988770 0.000002 0.000000 0.000000 0.000000 -1.136928
    30 3.789907 0.230954 -0.255255 0.052158 0.060440 -1.028233
    31 1.680520 0.000006 0.000006 0.000002 -0.000026 -1.058158
    32 1.256061 0.000002 0.000006 0.000002 -0.000011 -1.213108
    33 3.602012 0.315940 -1.124244 0.081283 0.066974 -0.494473
    34 1.723633 -0.000001 0.000000 0.000000 0.000000 -0.575374
    35 1.001953 0.000000 0.000000 0.000000 0.000000 -0.653323
    36 0.302097 -0.605933 -0.451120 0.632265 0.504790 -0.822279
    37 2.637464 -0.000008 -0.000008 -0.000002 -0.000001 0.804784
    38 1.309570 -0.000001 -0.000001 -0.325417 0.133506 0.225399
    39 -5.850951 -12.866398 -4.757351 1.513312 0.067906 0.000959
    40 0.075653 -1.860363 3.566398 0.000007 0.000000 0.000000
    41 0.030047 2.382788 8.992188 1.570792 -1.570790 0.000000
    42 0.121123 1.352511 10.648437 1.570795 0.000000 0.000000
    43 0.075737 -4.531266 6.953113 0.000007 0.000000 0.000000
    44 2.275391 3.255859 0.161011 1.570795 0.000000 0.000000
    45 -0.118835 -0.000004 -0.423096 0.000000 0.000000 0.000000
    46 -0.359131 0.000002 -0.246460 0.000000 0.000000 0.000000
    47 -0.286865 0.000002 -0.336182 0.000000 0.000000 0.000000
    48 -0.092712 0.000002 -0.432129 0.000000 0.000000 -0.000002
    49 -0.040558 0.000004 -0.449463 0.000000 0.000000 0.000000
    50 -0.020279 -0.000004 -0.440674 0.000000 0.000000 0.000000
    51 -0.034790 -0.000002 -0.437988 0.000000 0.000000 0.000000
    52 -0.199951 0.000002 -0.399902 0.000000 0.000000 0.000000
    53 -0.443604 -0.000002 -0.089905 0.000000 0.000000 0.000000
    54 18.975773 -13.981928 -17.149940 -0.000013 0.000000 0.000000
  time 10
    0 0.000005 -1.663086 -9.140625 -1.570760 -1.391893 -1.570827
    1 2.033348 1.000767 1.937659 3.099206 -0.162014 1.679995
    2 6.028141 0.000005 0.000002 -2.510704 -0.174640 -0.328512
    3 11.692560 0.000013 -0.000006 -0.000846 0.000887 -1.522763
    4 11.481678 0.000006 -0.000039 -0.651578 0.820992 0.341735
    5 2.969053 -0.161950 -1.402919 -0.192239 -0.013094 -1.555174
    6 1.284180 0.000003 -0.000004 -0.002342 0.009091 0.011495
    7 0.841797 0.000000 0.000000 0.000507 -0.002524 -0.273496
    8 3.426687 -0.136846 -0.622856 -0.064544 -0.018252 -1.216316
    9 1.610352 0.000001 0.000000 0.000817 -0.000301 -1.168463
    10 1.024443 -0.000006 0.000002 -0.000658 -0.000798 0.775482
    11 3.614148 -0.105376 0.193154 -0.059495 -0.041563 -1.065312
    12 1.666016 -0.000001 0.000004 0.000999 -0.000144 -1.343494
    13 1.236527 -0.000006 0.000003 -0.001726 -0.001631 1.019386
    14 3.512187 -0.075460 1.078553 -0.015536 -0.083355 -1.129829
    15 1.706055 0.000002 0.000002 -0.000401 0.000201 -1.012952
    16 1.002013 0.000000 0.000004 0.000281 0.000414 0.776803
    17 0.130244 -0.817692 0.762648 -0.748664 -0.716752 -1.163457
    18 2.512458 0.000002 -0.000006 -0.000002 -0.000001 0.205322
    19 1.332008 0.000001 -0.000004 -0.064164 0.097206 -0.262487
    20 2.033356 1.000772 -1.937610 -0.128177 0.172990 -2.038336
    21 6.028142 0.000001 -0.000001 -0.285432 1.088647 -1.964182
    22 11.692555 0.000031 0.000001 0.000324 -0.000216 -1.766204
    23 11.481703 0.000105 0.000003 -0.642570 -0.177282 0.684302
    24 3.301066 0.094024 1.259517 0.101179 -0.040020 -1.076099
    25 1.327148 -0.000004 0.000001 0.000000 0.000000 -0.726272
    26 0.818848 0.000001 -0.000003 0.000000 0.000000 -1.125393
    27 3.731351 0.179256 0.446669 0.065082 0.053899 -1.222330
    28 1.601603 -0.000002 0.000002 0.000003 -0.000003 -0.987024
    29 0.988770 0.000002 0.000000 0.000000 0.000000 -1.136928
    30 3.801626 0.254392 -0.372446 0.039034 0.057169 -1.029326
    31 1.684426 0.000006 0.000006 0.000002 -0.000038 -1.058158
    32 1.256061 0.000002 0.000006 0.000002 -0.000011 -1.213108
    33 3.605919 0.331565 -1.237529 0.068302 0.070822 -0.495677
    34 1.723633 -0.000001 0.000000 0.000000 0.000000 -0.575374
    35 1.001953 0.000000 0.000000 0.000000 0.000000 -0.653323
    36 0.309910 -0.586401 -0.529247 0.616865 0.504229 -0.830033
    37 2.633557 -0.000008 -0.000008 -0.000002 -0.000001 0.804784
    38 1.309570 -0.000001 -0.000001 -0.325417 0.133506 0.225399
    39 -5.847045 -12.858585 -4.858917 1.515740 0.052985 0.001867
    40 0.075653 -1.860363 3.566398 0.000007 0.000000 0.000000
    41 0.030047 2.382788 8.992188 1.570792 -1.570790 0.000000
    42 0.121123 1.352511 10.648437 1.570795 0.000000 0.000000
    43 0.075737 -4.531266 6.953113 0.000007 0.000000 0.000000
    44 2.275391 3.255859 0.161011 1.570795 0.000000 0.000000
    45 -0.118835 -0.000004 -0.423096 0.000000 0.000000 0.000000
    46 -0.359131 0.000002 -0.246460 0.000000 0.000000 0.000000
    47 -0.286865 0.000002 -0.336182 0.000000 0.000000 0.000000
    48 -0.092712 0.000002 -0.432129 0.000000 0.000000 -0.000002
    49 -0.040558 0.000004 -0.449463 0.000000 0.000000 0.000000
    50 -0.020279 -0.000004 -0.440674 0.000000 0.000000 0.000000
    51 -0.034790 -0.000002 -0.437988 0.000000 0.000000 0.000000
    52 -0.199951 0.000002 -0.399902 0.000000 0.000000 0.000000
    53 -0.443604 -0.000002 -0.089905 0.000000 0.000000 0.000000
    54 18.975773 -13.981928 -17.149940 -0.000013 0.000000 0.000000
  time 11
    0 0.000005 -1.663086 -9.140625 -1.570760 -1.391893 -1.570827
    1 2.033348 1.000767 1.937659 3.099206 -0.162014 1.679995
    2 6.028141 0.000005 0.000002 -2.512327 -0.170019 -0.357850
    3 11.692560 0.000013 -0.000006 -0.000858 0.000887 -1.535069
    4 11.481678 0.000006 -0.000039 -0.610171 0.840217 0.382437
    5 2.980772 -0.310392 -1.391200 -0.191817 -0.007713 -1.563665
    6 1.284180 0.000003 -0.000004 -0.002342 0.009091 0.011495
    7 0.841797 0.000000 0.000000 0.000507 -0.002524 -0.273496
    8 3.434500 -0.293101 -0.607231 -0.062375 -0.013327 -1.224835
    9 1.610352 0.000001 0.000000 0.000817 -0.000301 -1.168463
    10 1.024443 -0.000006 0.000002 -0.000658 -0.000798 0.775482
    11 3.625868 -0.265537 0.216593 -0.056595 -0.037021 -1.073922
    12 1.666016 -0.000001 0.000004 0.000999 -0.000144 -1.343494
    13 1.236527 -0.000006 0.000003 -0.001726 -0.001631 1.019348
    14 3.520000 -0.231715 1.094178 -0.012939 -0.078633 -1.138523
    15 1.706055 0.000002 0.000002 -0.000401 0.000201 -1.012952
    16 1.002013 0.000000 0.000004 0.000281 0.000414 0.776803
    17 0.134150 -0.950508 0.774367 -0.749307 -0.711670 -1.169189
    18 2.512458 0.000002 -0.000006 -0.000002 -0.000001 0.198443
    19 1.328102 0.000001 -0.000004 -0.063205 0.098153 -0.250867
    20 2.033356 1.000772 -1.937610 -0.128177 0.172990 -2.038336
    21 6.028142 0.000001 -0.000001 -0.261286 1.073302 -1.932044
    22 11.692555 0.000031 0.000001 0.000324 -0.000216 -1.776182
    23 11.481703 0.000105 0.000003 -0.632035 -0.179523 0.697072
    24 3.336223 0.113556 1.181390 0.091292 -0.041770 -1.075638
    25 1.327148 -0.000004 0.000001 0.000000 0.000000 -0.726272
    26 0.818848 0.000001 -0.000003 0.000000 0.000000 -1.125393
    27 3.758696 0.194881 0.364636 0.055531 0.050711 -1.222794
    28 1.597696 -0.000002 0.000002 0.000003 -0.000003 -0.986989
    29 0.988770 0.000002 0.000000 0.000000 0.000000 -1.136928
    30 3.825064 0.266111 -0.458387 0.029051 0.055874 -1.029815
    31 1.676613 0.000006 0.000006 0.000002 -0.000038 -1.058158
    32 1.256061 0.000002 0.000006 0.000002 -0.000011 -1.213108
    33 3.621544 0.339378 -1.331282 0.059043 0.074776 -0.496296
    34 1.723633 -0.000001 0.000000 0.000000 0.000000 -0.575374
    35 1.001953 0.000000 0.000000 0.000000 0.000000 -0.653323
    36 0.333348 -0.570776 -0.583936 0.605412 0.504902 -0.835486
    37 2.637464 -0.000008 -0.000008 -0.000002 -0.000001 0.804784
    38 1.309570 -0.000001 -0.000001 -0.325417 0.133506 0.225399
    39 -5.843139 -12.858585 -5.019078 1.525568 0.031676 0.002828
    40 0.075653 -1.860363 3.566398 0.000007 0.000000 0.000000
    41 0.030047 2.382788 8.992188 1.570792 -1.570790 0.000000
    42 0.121123 1.352511 10.648437 1.570795 0.000000 0.000000
    43 0.075737 -4.531266 6.953113 0.000007 0.000000 0.000000
    44 2.275391 3.255859 0.161011 1.570795 0.000000 0.000000
    45 -0.118835 -0.000004 -0.423096 0.000000 0.000000 0.000000
    46 -0.359131 0.000002 -0.246460 0.000000 0.000000 0.000000
    47 -0.286865 0.000002 -0.336182 0.000000 0.000000 0.000000
    48 -0.092712 0.000002 -0.432129 0.000000 0.000000 -0.000002
    49 -0.040558 0.000004 -0.449463 0.000000 0.000000 0.000000
    50 -0.020279 -0.000004 -0.440674 0.000000 0.000000 0.000000
    51 -0.034790 -0.000002 -0.437988 0.000000 0.000000 0.000000
    52 -0.199951 0.000002 -0.399902 0.000000 0.000000 0.000000
    53 -0.443604 -0.000002 -0.089905 0.000000 0.000000 0.000000
    54 18.975773 -13.981928 -17.149940 -0.000013 0.000000 0.000000
  time 12
    0 0.000005 -1.663086 -9.140625 -1.570760 -1.391893 -1.570827
    1 2.033348 1.000767 1.937659 3.099206 -0.162014 1.679995
    2 6.028141 0.000005 0.000002 -2.514045 -0.166529 -0.386804
    3 11.692560 0.000013 -0.000006 -0.000870 0.000887 -1.545664
    4 11.481678 0.000006 -0.000039 -0.570297 0.855499 0.420124
    5 2.976866 -0.376800 -1.383387 -0.191633 -0.004753 -1.565506
    6 1.284180 0.000003 -0.000004 -0.002342 0.009091 0.011495
    7 0.841797 0.000000 0.000000 0.000507 -0.002524 -0.273496
    8 3.430593 -0.363416 -0.603324 -0.061200 -0.010594 -1.226654
    9 1.610352 0.000001 0.000000 0.000817 -0.000301 -1.168463
    10 1.024443 -0.000006 0.000002 -0.000658 -0.000798 0.775482
    11 3.621961 -0.339758 0.220499 -0.055049 -0.034493 -1.075781
    12 1.666016 -0.000001 0.000004 0.000999 -0.000144 -1.343494
    13 1.236527 -0.000006 0.000003 -0.001726 -0.001631 1.019348
    14 3.516093 -0.309843 1.098085 -0.011525 -0.076008 -1.140455
    15 1.706055 0.000002 0.000002 -0.000401 0.000201 -1.012952
    16 1.002013 0.000000 0.000004 0.000281 0.000414 0.776803
    17 0.126337 -1.020823 0.774367 -0.752288 -0.711706 -1.165970
    18 2.512458 0.000002 -0.000006 -0.000002 -0.000001 0.198443
    19 1.332008 0.000001 -0.000004 -0.063205 0.098153 -0.250867
    20 2.033356 1.000772 -1.937610 -0.128177 0.172990 -2.038336
    21 6.028142 0.000001 -0.000001 -0.239096 1.058897 -1.901929
    22 11.692555 0.000031 0.000001 0.000336 -0.000216 -1.785285
    23 11.481703 0.000105 0.000003 -0.623617 -0.181525 0.708497
    24 3.347942 0.113556 1.142326 0.087475 -0.041350 -1.075744
    25 1.327148 -0.000004 0.000001 0.000000 0.000000 -0.726272
    26 0.818848 0.000001 -0.000003 0.000000 0.000000 -1.125393
    27 3.766508 0.194881 0.325572 0.051695 0.050567 -1.223259
    28 1.597696 -0.000002 0.000002 0.000003 -0.000003 -0.986989
    29 0.988770 0.000002 0.000000 0.000000 0.000000 -1.136928
    30 3.832877 0.266111 -0.497450 0.025264 0.056473 -1.030305
    31 1.676613 0.000006 0.000006 0.000002 -0.000026 -1.058194
    32 1.252155 0.000002 0.000006 0.000002 -0.000011 -1.213108
    33 3.625451 0.335472 -1.362533 0.056087 0.077209 -0.496807
    34 1.723633 -0.000001 0.000000 0.000000 0.000000 -0.575374
    35 1.001953 0.000000 0.000000 0.000000 0.000000 -0.653323
    36 0.341161 -0.570776 -0.615187 0.601312 0.506203 -0.837727
    37 2.637464 -0.000008 -0.000008 -0.000002 -0.000001 0.804784
    38 1.309570 -0.000001 -0.000001 -0.325417 0.133506 0.225399
    39 -5.847045 -12.858585 -5.202677 1.538878 0.008810 0.003308
    40 0.075653 -1.860363 3.566398 0.000007 0.000000 0.000000
    41 0.030047 2.382788 8.992188 1.570792 -1.570790 0.000000
    42 0.121123 1.352511 10.648437 1.570795 0.000000 0.000000
    43 0.075737 -4.531266 6.953113 0.000007 0.000000 0.000000
    44 2.275391 3.255859 0.161011 1.570795 0.000000 0.000000
    45 -0.118835 -0.000004 -0.423096 0.000000 0.000000 0.000000
    46 -0.359131 0.000002 -0.246460 0.000000 0.000000 0.000000
    47 -0.286865 0.000002 -0.336182 0.000000 0.000000 0.000000
    48 -0.092712 0.000002 -0.432129 0.000000 0.000000 -0.000002
    49 -0.040558 0.000004 -0.449463 0.000000 0.000000 0.000000
    50 -0.020279 -0.000004 -0.440674 0.000000 0.000000 0.000000
    51 -0.034790 -0.000002 -0.437988 0.000000 0.000000 0.000000
    52 -0.199951 0.000002 -0.399902 0.000000 0.000000 0.000000
    53 -0.443604 -0.000002 -0.089905 0.000000 0.000000 0.000000
    54 18.975773 -13.981928 -17.149940 -0.000013 0.000000 0.000000
  time 13
    0 0.000005 -1.663086 -9.140625 -1.570760 -1.391893 -1.570827
    1 2.033348 1.000767 1.937659 3.099206 -0.162014 1.679995
    2 6.028141 0.000005 0.000002 -2.515477 -0.164661 -0.410773
    3 11.692560 0.000013 -0.000006 -0.000870 0.000887 -1.553813
    4 11.481678 0.000006 -0.000039 -0.535408 0.867245 0.453101
    5 2.961240 -0.372894 -1.379481 -0.191211 -0.003974 -1.564209
    6 1.284180 0.000003 -0.000004 -0.002342 0.009091 0.011495
    7 0.841797 0.000000 0.000000 0.000507 -0.002524 -0.273496
    8 3.414968 -0.359509 -0.599418 -0.060541 -0.010007 -1.225367
    9 1.610352 0.000001 0.000000 0.000817 -0.000301 -1.168463
    10 1.024443 -0.000006 0.000002 -0.000658 -0.000798 0.775482
    11 3.606336 -0.335852 0.224405 -0.054306 -0.034013 -1.074516
    12 1.666016 -0.000001 0.000004 0.000999 -0.000144 -1.343494
    13 1.236527 -0.000006 0.000003 -0.001726 -0.001631 1.019386
    14 3.500468 -0.305936 1.101991 -0.010818 -0.075481 -1.139229
    15 1.706055 0.000002 0.000002 -0.000401 0.000201 -1.012952
    16 1.002013 0.000000 0.000004 0.000281 0.000414 0.776834
    17 0.114618 -1.020823 0.778274 -0.756818 -0.716488 -1.158008
    18 2.512458 0.000002 -0.000006 -0.000002 -0.000001 0.198443
    19 1.328102 0.000001 -0.000004 -0.063205 0.098153 -0.250867
    20 2.033356 1.000772 -1.937610 -0.128177 0.172990 -2.038336
    21 6.028142 0.000001 -0.000001 -0.221613 1.047806 -1.877882
    22 11.692555 0.000031 0.000001 0.000336 -0.000216 -1.793396
    23 11.481703 0.000105 0.000003 -0.616703 -0.183614 0.718489
    24 3.351848 0.101837 1.150139 0.088069 -0.039636 -1.076170
    25 1.327148 -0.000004 0.000001 0.000000 0.000000 -0.726272
    26 0.818848 0.000001 -0.000003 0.000000 0.000000 -1.125393
    27 3.766508 0.183162 0.329478 0.052031 0.052341 -1.223652
    28 1.601603 -0.000002 0.000002 0.000003 -0.000003 -0.986989
    29 0.988770 0.000002 0.000000 0.000000 0.000000 -1.136928
    30 3.832877 0.254392 -0.485731 0.025935 0.058151 -1.030682
    31 1.676613 0.000006 0.000006 0.000002 -0.000026 -1.058158
    32 1.256061 0.000002 0.000006 0.000002 -0.000011 -1.213108
    33 3.625451 0.323753 -1.354720 0.057512 0.078312 -0.497099
    34 1.723633 -0.000001 0.000000 0.000000 0.000000 -0.575374
    35 1.001953 0.000000 0.000000 0.000000 0.000000 -0.653323
    36 0.341161 -0.582495 -0.603468 0.602409 0.507729 -0.837607
    37 2.637464 -0.000008 -0.000008 -0.000002 -0.000001 0.804784
    38 1.309570 -0.000001 -0.000001 -0.325417 0.133506 0.225399
    39 -5.854858 -12.850773 -5.382370 1.552505 -0.012259 0.003041
    40 0.075653 -1.860363 3.566398 0.000007 0.000000 0.000000
    41 0.030047 2.382788 8.992188 1.570792 -1.570790 0.000000
    42 0.121123 1.352511 10.648437 1.570795 0.000000 0.000000
    43 0.075737 -4.531266 6.953113 0.000007 0.000000 0.000000
    44 2.275391 3.255859 0.161011 1.570795 0.000000 0.000000
    45 -0.118835 -0.000004 -0.423096 0.000000 0.000000 0.000000
    46 -0.359131 0.000002 -0.246460 0.000000 0.000000 0.000000
    47 -0.286865 0.000002 -0.336182 0.000000 0.000000 0.000000
    48 -0.092712 0.000002 -0.432129 0.000000 0.000000 -0.000002
    49 -0.040558 0.000004 -0.449463 0.000000 0.000000 0.000000
    50 -0.020279 -0.000004 -0.440674 0.000000 0.000000 0.000000
    51 -0.034790 -0.000002 -0.437988 0.000000 0.000000 0.000000
    52 -0.199951 0.000002 -0.399902 0.000000 0.000000 0.000000
    53 -0.443604 -0.000002 -0.089905 0.000000 0.000000 0.000000
    54 18.975773 -13.981928 -17.149940 -0.000013 0.000000 0.000000
  time 14
    0 0.000005 -1.663086 -9.140625 -1.570760 -1.391893 -1.570827
    1 2.033348 1.000767 1.937659 3.099206 -0.162014 1.679995
    2 6.028141 0.000005 0.000002 -2.516717 -0.164267 -0.431195
    3 11.692560 0.000013 -0.000006 -0.000882 0.000887 -1.561067
    4 11.481678 0.000006 -0.000039 -0.505407 0.875536 0.481366
    5 2.941708 -0.333830 -1.371668 -0.190749 -0.004334 -1.560968
    6 1.284180 0.000003 -0.000004 -0.002342 0.009091 0.011495
    7 0.841797 0.000000 0.000000 0.000507 -0.002524 -0.273496
    8 3.395436 -0.320446 -0.591605 -0.060230 -0.010486 -1.222159
    9 1.610352 0.000001 0.000000 0.000817 -0.000301 -1.168463
    10 1.024443 -0.000006 0.000002 -0.000658 -0.000798 0.775482
    11 3.586804 -0.296788 0.232218 -0.054042 -0.034541 -1.071270
    12 1.666016 -0.000001 0.000004 0.000999 -0.000144 -1.343494
    13 1.236527 -0.000006 0.000003 -0.001726 -0.001631 1.019348
    14 3.480936 -0.262966 1.113710 -0.010544 -0.075996 -1.135997
    15 1.706055 0.000002 0.000002 -0.000401 0.000201 -1.012952
    16 1.002013 0.000000 0.000004 0.000281 0.000414 0.776803
    17 0.095086 -0.993478 0.786087 -0.762635 -0.724578 -1.146686
    18 2.512458 0.000002 -0.000006 -0.000002 -0.000001 0.198443
    19 1.328102 0.000001 -0.000004 -0.063205 0.098153 -0.250867
    20 2.033356 1.000772 -1.937610 -0.128177 0.172990 -2.038336
    21 6.028142 0.000001 -0.000001 -0.205964 1.039715 -1.856577
    22 11.692555 0.000031 0.000001 0.000336 -0.000216 -1.800398
    23 11.481703 0.000105 0.000003 -0.611107 -0.185093 0.725332
    24 3.351848 0.078398 1.177484 0.090868 -0.037731 -1.076453
    25 1.327148 -0.000004 0.000001 0.000000 0.000000 -0.726272
    26 0.818848 0.000001 -0.000003 0.000000 0.000000 -1.125393
    27 3.770415 0.159724 0.360729 0.054512 0.054642 -1.223723
    28 1.601603 -0.000002 0.000002 0.000003 -0.000003 -0.986917
    29 0.988770 0.000002 0.000000 0.000000 0.000000 -1.136928
    30 3.836783 0.234861 -0.458387 0.028812 0.059937 -1.030682
    31 1.680520 0.000006 0.000006 0.000002 -0.000038 -1.058158
    32 1.256061 0.000002 0.000006 0.000002 -0.000011 -1.213108
    33 3.629357 0.308127 -1.331282 0.060904 0.078384 -0.497026
    34 1.723633 -0.000001 0.000000 0.000000 0.000000 -0.575374
    35 1.001953 0.000000 0.000000 0.000000 0.000000 -0.653323
    36 0.345067 -0.598120 -0.587843 0.606066 0.508941 -0.836061
    37 2.637464 -0.000008 -0.000008 -0.000002 -0.000001 0.804784
    38 1.309570 -0.000001 -0.000001 -0.325417 0.133506 0.225399
    39 -5.866577 -12.842960 -5.558157 1.564985 -0.030320 0.002240
    40 0.075653 -1.860363 3.566398 0.000007 0.000000 0.000000
    41 0.030047 2.382788 8.992188 1.570792 -1.570790 0.000000
    42 0.121123 1.352511 10.648437 1.570795 0.000000 0.000000
    43 0.075737 -4.531266 6.953113 0.000007 0.000000 0.000000
    44 2.275391 3.255859 0.161011 1.570795 0.000000 0.000000
    45 -0.118835 -0.000004 -0.423096 0.000000 0.000000 0.000000
    46 -0.359131 0.000002 -0.246460 0.000000 0.000000 0.000000
    47 -0.286865 0.000002 -0.336182 0.000000 0.000000 0.000000
    48 -0.092712 0.000002 -0.432129 0.000000 0.000000 -0.000002
    49 -0.040558 0.000004 -0.449463 0.000000 0.000000 0.000000
    50 -0.020279 -0.000004 -0.440674 0.000000 0.000000 0.000000
    51 -0.034790 -0.000002 -0.437988 0.000000 0.000000 0.000000
    52 -0.199951 0.000002 -0.399902 0.000000 0.000000 0.000000
    53 -0.443604 -0.000002 -0.089905 0.000000 0.000000 0.000000
    54 18.975773 -13.981928 -17.149940 -0.000013 0.000000 0.000000
  time 15
    0 0.000005 -1.663086 -9.140625 -1.570760 -1.391893 -1.570827
    1 2.033348 1.000767 1.937659 3.099206 -0.162014 1.679995
    2 6.028141 0.000005 0.000002 -2.517767 -0.165840 -0.449699
    3 11.692560 0.000013 -0.000006 -0.000882 0.000887 -1.566364
    4 11.481678 0.000006 -0.000039 -0.477419 0.881104 0.505581
    5 2.926083 -0.302579 -1.363855 -0.190275 -0.005196 -1.557412
    6 1.284180 0.000003 -0.000004 -0.002342 0.009091 0.011495
    7 0.841797 0.000000 0.000000 0.000507 -0.002524 -0.273496
    8 3.379810 -0.281382 -0.579886 -0.060074 -0.011457 -1.218604
    9 1.610352 0.000001 0.000000 0.000817 -0.000301 -1.168463
    10 1.024443 -0.000006 0.000002 -0.000658 -0.000798 0.775482
    11 3.567272 -0.257725 0.243937 -0.054042 -0.035511 -1.067705
    12 1.666016 -0.000001 0.000004 0.000999 -0.000144 -1.343494
    13 1.236527 -0.000006 0.000003 -0.001726 -0.001631 1.019386
    14 3.461404 -0.227809 1.121523 -0.010472 -0.076967 -1.132430
    15 1.706055 0.000002 0.000002 -0.000401 0.000201 -1.012952
    16 1.002013 0.000000 0.000004 0.000281 0.000414 0.776803
    17 0.079461 -0.966134 0.797806 -0.769357 -0.735004 -1.134009
    18 2.512458 0.000002 -0.000006 -0.000002 -0.000001 0.198443
    19 1.328102 0.000001 -0.000004 -0.063205 0.098153 -0.250867
    20 2.033356 1.000772 -1.937610 -0.128177 0.172990 -2.038336
    21 6.028142 0.000001 -0.000001 -0.191354 1.033332 -1.836755
    22 11.692555 0.000031 0.000001 0.000336 -0.000216 -1.806583
    23 11.481703 0.000105 0.000003 -0.607109 -0.185725 0.730858
    24 3.351848 0.054960 1.193109 0.093776 -0.035705 -1.077268
    25 1.327148 -0.000004 0.000001 0.000000 0.000000 -0.726272
    26 0.818848 0.000001 -0.000003 0.000000 0.000000 -1.125393
    27 3.770415 0.140192 0.380261 0.057101 0.057063 -1.224259
    28 1.601603 -0.000002 0.000002 0.000003 -0.000003 -0.986917
    29 0.988770 0.000002 0.000000 0.000000 0.000000 -1.136928
    30 3.836783 0.219235 -0.438855 0.031832 0.061819 -1.031209
    31 1.684426 0.000006 0.000006 0.000002 -0.000014 -1.058123
    32 1.252155 0.000002 0.000006 0.000002 -0.000011 -1.213108
    33 3.633263 0.296408 -1.311750 0.064460 0.078480 -0.497427
    34 1.723633 -0.000001 0.000000 0.000000 0.000000 -0.575374
    35 1.001953 0.000000 0.000000 0.000000 0.000000 -0.653323
    36 0.348974 -0.613746 -0.572217 0.609858 0.510197 -0.834863
    37 2.637464 -0.000008 -0.000008 -0.000002 -0.000001 0.804784
    38 1.309570 -0.000001 -0.000001 -0.325417 0.133506 0.225399
    39 -5.886109 -12.827335 -5.698786 1.575631 -0.045109 0.000799
    40 0.075653 -1.860363 3.566398 0.000007 0.000000 0.000000
    41 0.030047 2.382788 8.992188 1.570792 -1.570790 0.000000
    42 0.121123 1.352511 10.648437 1.570795 0.000000 0.000000
    43 0.075737 -4.531266 6.953113 0.000007 0.000000 0.000000
    44 2.275391 3.255859 0.161011 1.570795 0.000000 0.000000
    45 -0.118835 -0.000004 -0.423096 0.000000 0.000000 0.000000
    46 -0.359131 0.000002 -0.246460 0.000000 0.000000 0.000000
    47 -0.286865 0.000002 -0.336182 0.000000 0.000000 0.000000
    48 -0.092712 0.000002 -0.432129 0.000000 0.000000 -0.000002
    49 -0.040558 0.000004 -0.449463 0.000000 0.000000 0.000000
    50 -0.020279 -0.000004 -0.440674 0.000000 0.000000 0.000000
    51 -0.034790 -0.000002 -0.437988 0.000000 0.000000 0.000000
    52 -0.199951 0.000002 -0.399902 0.000000 0.000000 0.000000
    53 -0.443604 -0.000002 -0.089905 0.000000 0.000000 0.000000
    54 18.975773 -13.981928 -17.149940 -0.000013 0.000000 0.000000
  time 16
    0 0.000005 -1.663086 -9.140625 -1.570760 -1.391893 -1.570827
    1 2.033348 1.000767 1.937659 3.099206 -0.162014 1.679995
    2 6.028141 0.000005 0.000002 -2.518722 -0.169822 -0.463889
    3 11.692560 0.000013 -0.000006 -0.000882 0.000887 -1.568238
    4 11.481678 0.000006 -0.000039 -0.452881 0.884640 0.526026
    5 2.898738 -0.251796 -1.363855 -0.189879 -0.006191 -1.554087
    6 1.284180 0.000003 -0.000004 -0.002342 0.009091 0.011495
    7 0.841797 0.000000 0.000000 0.000507 -0.002524 -0.273496
    8 3.348559 -0.234506 -0.579886 -0.060026 -0.012524 -1.215254
    9 1.610352 0.000001 0.000000 0.000817 -0.000301 -1.168463
    10 1.024443 -0.000006 0.000002 -0.000658 -0.000798 0.775482
    11 3.536021 -0.206942 0.243937 -0.054162 -0.036578 -1.064367
    12 1.666016 -0.000001 0.000004 0.000999 -0.000144 -1.343494
    13 1.236527 -0.000006 0.000003 -0.001726 -0.001631 1.019348
    14 3.434060 -0.173120 1.121523 -0.010515 -0.078046 -1.129086
    15 1.706055 0.000002 0.000002 -0.000401 0.000201 -1.012952
    16 1.002013 0.000000 0.000004 0.000281 0.000414 0.776803
    17 0.052116 -0.927070 0.797806 -0.776868 -0.747037 -1.120682
    18 2.512458 0.000002 -0.000006 -0.000002 -0.000001 0.198443
    19 1.328102 0.000001 -0.000004 -0.063205 0.098153 -0.250867
    20 2.033356 1.000772 -1.937610 -0.128177 0.172990 -2.038336
    21 6.028142 0.000001 -0.000001 -0.179434 1.029461 -1.820753
    22 11.692555 0.000031 0.000001 0.000348 -0.000515 -1.809967
    23 11.481703 0.000105 0.000003 -0.603064 -0.185355 0.732977
    24 3.332317 0.023709 1.220454 0.097605 -0.034399 -1.077977
    25 1.327148 -0.000004 0.000001 0.000000 0.000000 -0.726272
    26 0.818848 0.000001 -0.000003 0.000000 0.000000 -1.125393
    27 3.754789 0.112847 0.419325 0.060708 0.058920 -1.224652
    28 1.601603 -0.000002 0.000002 0.000003 -0.000003 -0.986989
    29 0.988770 0.000002 0.000000 0.000000 0.000000 -1.136928
    30 3.825064 0.191890 -0.411510 0.035727 0.062945 -1.031548
    31 1.680520 0.000006 0.000006 0.000002 -0.000014 -1.058123
    32 1.256061 0.000002 0.000006 0.000002 -0.000011 -1.213108
    33 3.625451 0.272970 -1.280499 0.068392 0.077473 -0.497719
    34 1.723633 -0.000001 0.000000 0.000000 0.000000 -0.575374
    35 1.001953 0.000000 0.000000 0.000000 0.000000 -0.653323
    36 0.333348 -0.637184 -0.548779 0.614478 0.510534 -0.833185
    37 2.637464 -0.000008 -0.000008 -0.000002 -0.000001 0.804784
    38 1.309570 -0.000001 -0.000001 -0.325417 0.133506 0.225399
    39 -5.913453 -12.807803 -5.831603 1.584575 -0.056926 -0.001069
    40 0.075653 -1.860363 3.566398 0.000007 0.000000 0.000000
    41 0.030047 2.382788 8.992188 1.570792 -1.570790 0.000000
    42 0.121123 1.352511 10.648437 1.570795 0.000000 0.000000
    43 0.075737 -4.531266 6.953113 0.000007 0.000000 0.000000
    44 2.275391 3.255859 0.161011 1.570795 0.000000 0.000000
    45 -0.118835 -0.000004 -0.423096 0.000000 0.000000 0.000000
    46 -0.359131 0.000002 -0.246460 0.000000 0.000000 0.000000
    47 -0.286865 0.000002 -0.336182 0.000000 0.000000 0.000000
    48 -0.092712 0.000002 -0.432129 0.000000 0.000000 -0.000002
    49 -0.040558 0.000004 -0.449463 0.000000 0.000000 0.000000
    50 -0.020279 -0.000004 -0.440674 0.000000 0.000000 0.000000
    51 -0.034790 -0.000002 -0.437988 0.000000 0.000000 0.000000
    52 -0.199951 0.000002 -0.399902 0.000000 0.000000 0.000000
    53 -0.443604 -0.000002 -0.089905 0.000000 0.000000 0.000000
    54 18.975773 -13.981928 -17.149940 -0.000013 0.000000 0.000000
  time 17
    0 0.000005 -1.663086 -9.140625 -1.570760 -1.391893 -1.570827
    1 2.033348 1.000767 1.937659 3.099206 -0.162014 1.679995
    2 6.028141 0.000005 0.000002 -2.519485 -0.173951 -0.476832
    3 11.692560 0.000013 -0.000006 -0.000894 0.000887 -1.569950
    4 11.481678 0.000006 -0.000039 -0.431315 0.887038 0.542703
    5 2.883113 -0.216639 -1.356043 -0.189457 -0.007162 -1.551075
    6 1.284180 0.000003 -0.000004 -0.002342 0.009091 0.011495
    7 0.841797 0.000000 0.000000 0.000507 -0.002524 -0.273496
    8 3.336840 -0.195442 -0.575980 -0.059942 -0.013590 -1.212230
    9 1.610352 0.000001 0.000000 0.000817 -0.000301 -1.168463
    10 1.024443 -0.000006 0.000002 -0.000658 -0.000798 0.775482
    11 3.524302 -0.167878 0.243937 -0.054246 -0.037645 -1.061365
    12 1.666016 -0.000001 0.000004 0.000999 -0.000144 -1.343494
    13 1.236527 -0.000006 0.000003 -0.001726 -0.001631 1.019386
    14 3.418434 -0.137962 1.125429 -0.010544 -0.079100 -1.126095
    15 1.706055 0.000002 0.000002 -0.000401 0.000201 -1.012952
    16 1.002013 0.000000 0.000004 0.000281 0.000414 0.776834
    17 0.040397 -0.899726 0.801712 -0.784817 -0.760148 -1.107187
    18 2.512458 0.000002 -0.000006 -0.000002 -0.000001 0.198443
    19 1.332008 0.000001 -0.000004 -0.063205 0.098153 -0.250867
    20 2.033356 1.000772 -1.937610 -0.128177 0.172990 -2.038336
    21 6.028142 0.000001 -0.000001 -0.167391 1.026322 -1.804572
    22 11.692555 0.000031 0.000001 0.000336 -0.000216 -1.814052
    23 11.481703 0.000105 0.000003 -0.600901 -0.185899 0.735354
    24 3.332317 0.008084 1.243892 0.099665 -0.032649 -1.078296
    25 1.327148 -0.000004 0.000001 0.000000 0.000000 -0.726272
    26 0.818848 0.000001 -0.000003 0.000000 0.000000 -1.125393
    27 3.758696 0.097222 0.431044 0.062482 0.060970 -1.224723
    28 1.601603 -0.000002 0.000002 0.000003 -0.000003 -0.986989
    29 0.988770 0.000002 0.000000 0.000000 0.000000 -1.136928
    30 3.825064 0.180171 -0.391978 0.037860 0.064611 -1.031661
    31 1.676613 0.000006 0.000006 0.000002 -0.000014 -1.058123
    32 1.256061 0.000002 0.000006 0.000002 -0.000011 -1.213108
    33 3.625451 0.261251 -1.257061 0.071078 0.077821 -0.497719
    34 1.723633 -0.000001 0.000000 0.000000 0.000000 -0.575374
    35 1.001953 0.000000 0.000000 0.000000 0.000000 -0.653323
    36 0.333348 -0.648903 -0.533154 0.617231 0.511768 -0.832058
    37 2.637464 -0.000008 -0.000008 -0.000002 -0.000001 0.804784
    38 1.309570 -0.000001 -0.000001 -0.325417 0.133506 0.225399
    39 -5.948611 -12.788271 -5.937075 1.591751 -0.066094 -0.003311
    40 0.075653 -1.860363 3.566398 0.000007 0.000000 0.000000
    41 0.030047 2.382788 8.992188 1.570792 -1.570790 0.000000
    42 0.121123 1.352511 10.648437 1.570795 0.000000 0.000000
    43 0.075737 -4.531266 6.953113 0.000007 0.000000 0.000000
    44 2.275391 3.255859 0.161011 1.570795 0.000000 0.000000
    45 -0.118835 -0.000004 -0.423096 0.000000 0.000000 0.000000
    46 -0.359131 0.000002 -0.246460 0.000000 0.000000 0.000000
    47 -0.286865 0.000002 -0.336182 0.000000 0.000000 0.000000
    48 -0.092712 0.000002 -0.432129 0.000000 0.000000 -0.000002
    49 -0.040558 0.000004 -0.449463 0.000000 0.000000 0.000000
    50 -0.020279 -0.000004 -0.440674 0.000000 0.000000 0.000000
    51 -0.034790 -0.000002 -0.437988 0.000000 0.000000 0.000000
    52 -0.199951 0.000002 -0.399902 0.000000 0.000000 0.000000
    53 -0.443604 -0.000002 -0.089905 0.000000 0.000000 0.000000
    54 18.975773 -13.981928 -17.149940 -0.000013 0.000000 0.000000
  time 18
    0 0.000005 -1.663086 -9.140625 -1.570760 -1.391893 -1.570827
    1 2.033348 1.000767 1.937659 3.099206 -0.162014 1.679995
    2 6.028141 0.000005 0.000002 -2.520154 -0.180440 -0.489008
    3 11.692560 0.000013 -0.000006 -0.000894 0.000887 -1.569542
    4 11.481678 0.000006 -0.000039 -0.411474 0.886875 0.556176
    5 2.863581 -0.189294 -1.363855 -0.189325 -0.007773 -1.547875
    6 1.284180 0.000003 -0.000004 -0.002342 0.009091 0.011495
    7 0.841797 0.000000 0.000000 0.000507 -0.002524 -0.273496
    8 3.317308 -0.164191 -0.579886 -0.060038 -0.014214 -1.209023
    9 1.610352 0.000001 0.000000 0.000817 -0.000301 -1.168463
    10 1.024443 -0.000006 0.000002 -0.000658 -0.000798 0.775482
    11 3.504770 -0.136627 0.243937 -0.054426 -0.038244 -1.058165
    12 1.666016 -0.000001 0.000004 0.000999 -0.000144 -1.343494
    13 1.236527 -0.000006 0.000003 -0.001726 -0.001631 1.019348
    14 3.398902 -0.110618 1.125429 -0.010674 -0.079711 -1.122881
    15 1.706055 0.000002 0.000002 -0.000401 0.000201 -1.012952
    16 1.002013 0.000000 0.000004 0.000281 0.000414 0.776803
    17 0.020865 -0.876287 0.797806 -0.793205 -0.773451 -1.093183
    18 2.512458 0.000002 -0.000006 -0.000002 -0.000001 0.198443
    19 1.328102 0.000001 -0.000004 -0.063205 0.098153 -0.250867
    20 2.033356 1.000772 -1.937610 -0.128177 0.172990 -2.038336
    21 6.028142 0.000001 -0.000001 -0.156632 1.025101 -1.790504
    22 11.692555 0.000031 0.000001 0.000336 -0.000216 -1.815861
    23 11.481703 0.000105 0.000003 -0.599772 -0.185899 0.734581
    24 3.324504 -0.015354 1.267330 0.102367 -0.030840 -1.078473
    25 1.327148 -0.000004 0.000001 0.000000 0.000000 -0.726272
    26 0.818848 0.000001 -0.000003 0.000000 0.000000 -1.125393
    27 3.746977 0.077690 0.450576 0.064903 0.063139 -1.224723
    28 1.601603 -0.000002 0.000002 0.000015 -0.000003 -0.986989
    29 0.988770 0.000002 0.000000 0.000000 0.000000 -1.136928
    30 3.817251 0.160640 -0.372446 0.040652 0.066289 -1.031586
    31 1.680520 0.000006 0.000006 0.000002 -0.000014 -1.058194
    32 1.252155 0.000002 0.000006 0.000002 -0.000011 -1.213108
    33 3.621544 0.245625 -1.237529 0.074350 0.077844 -0.497573
    34 1.723633 -0.000001 0.000000 0.000000 0.000000 -0.575374
    35 1.001953 0.000000 0.000000 0.000000 0.000000 -0.653323
    36 0.325535 -0.668435 -0.517528 0.620773 0.512845 -0.830488
    37 2.633557 -0.000008 -0.000008 -0.000002 -0.000001 0.804784
    38 1.309570 -0.000001 -0.000001 -0.325417 0.133506 0.225399
    39 -5.995487 -12.772645 -6.034734 1.597490 -0.072350 -0.005606
    40 0.075653 -1.860363 3.566398 0.000007 0.000000 0.000000
    41 0.030047 2.382788 8.992188 1.570792 -1.570790 0.000000
    42 0.121123 1.352511 10.648437 1.570795 0.000000 0.000000
    43 0.075737 -4.531266 6.953113 0.000007 0.000000 0.000000
    44 2.275391 3.255859 0.161011 1.570795 0.000000 0.000000
    45 -0.118835 -0.000004 -0.423096 0.000000 0.000000 0.000000
    46 -0.359131 0.000002 -0.246460 0.000000 0.000000 0.000000
    47 -0.286865 0.000002 -0.336182 0.000000 0.000000 0.000000
    48 -0.092712 0.000002 -0.432129 0.000000 0.000000 -0.000002
    49 -0.040558 0.000004 -0.449463 0.000000 0.000000 0.000000
    50 -0.020279 -0.000004 -0.440674 0.000000 0.000000 0.000000
    51 -0.034790 -0.000002 -0.437988 0.000000 0.000000 0.000000
    52 -0.199951 0.000002 -0.399902 0.000000 0.000000 0.000000
    53 -0.443604 -0.000002 -0.089905 0.000000 0.000000 0.000000
    54 18.975773 -13.981928 -17.149940 -0.000013 0.000000 0.000000
  time 19
    0 0.000005 -1.663086 -9.140625 -1.570760 -1.391893 -1.570827
    1 2.033348 1.000767 1.937659 3.099206 -0.162014 1.679995
    2 6.028141 0.000005 0.000002 -2.520535 -0.189240 -0.496582
    3 11.692560 0.000013 -0.000006 -0.000882 0.000887 -1.567342
    4 11.481678 0.000006 -0.000039 -0.406778 0.880291 0.552878
    5 2.844049 -0.130699 -1.356043 -0.189536 -0.008552 -1.539824
    6 1.284180 0.000003 -0.000004 -0.002342 0.009091 0.011495
    7 0.841797 0.000000 0.000000 0.000507 -0.002524 -0.273496
    8 3.293870 -0.093876 -0.572073 -0.060481 -0.014873 -1.200973
    9 1.610352 0.000001 0.000000 0.000817 -0.000301 -1.168463
    10 1.024443 -0.000006 0.000002 -0.000658 -0.000798 0.775555
    11 3.481332 -0.062406 0.247844 -0.054977 -0.038831 -1.050088
    12 1.666016 -0.000001 0.000004 0.000999 -0.000144 -1.343494
    13 1.236527 -0.000006 0.000003 -0.001726 -0.001631 1.019386
    14 3.375464 -0.036397 1.129336 -0.011179 -0.080335 -1.114800
    15 1.706055 0.000002 0.000002 -0.000401 0.000201 -1.012952
    16 1.002013 0.000000 0.000004 0.000281 0.000414 0.776803
    17 0.005240 -0.829411 0.801712 -0.802061 -0.786634 -1.074153
    18 2.512458 0.000002 -0.000006 -0.000002 -0.000001 0.198443
    19 1.328102 0.000001 -0.000004 -0.063205 0.098153 -0.250867
    20 2.033356 1.000772 -1.937610 -0.128177 0.172990 -2.038336
    21 6.028142 0.000001 -0.000001 -0.146485 1.029112 -1.778413
    22 11.692555 0.000031 0.000001 0.000096 -0.000096 -1.815919
    23 11.481703 0.000105 0.000003 -0.605792 -0.186464 0.728654
    24 3.316691 -0.054418 1.306394 0.108183 -0.025530 -1.078615
    25 1.327148 -0.000004 0.000001 0.000000 0.000000 -0.726272
    26 0.818848 0.000001 -0.000003 0.000000 0.000000 -1.125393
    27 3.743070 0.050345 0.497452 0.069888 0.069239 -1.224330
    28 1.597696 -0.000002 0.000002 0.000015 -0.000003 -0.986989
    29 0.988770 0.000002 0.000000 0.000000 0.000000 -1.136928
    30 3.817251 0.133295 -0.325570 0.046716 0.071310 -1.031134
    31 1.676613 0.000006 0.000006 0.000002 -0.000026 -1.058123
    32 1.252155 0.000002 0.000006 0.000002 -0.000011 -1.213108
    33 3.617638 0.226093 -1.190653 0.082138 0.079091 -0.496953
    34 1.723633 -0.000001 0.000000 0.000000 0.000000 -0.575374
    35 1.001953 0.000000 0.000000 0.000000 0.000000 -0.653323
    36 0.321629 -0.691873 -0.486277 0.628761 0.516547 -0.826486
    37 2.637464 -0.000008 -0.000008 -0.000002 -0.000001 0.804784
    38 1.309570 -0.000001 -0.000001 -0.325417 0.133506 0.225399
    39 -6.046270 -12.749207 -6.116768 1.600194 -0.071068 -0.007208
    40 0.075653 -1.860363 3.566398 0.000007 0.000000 0.000000
    41 0.030047 2.382788 8.992188 1.570792 -1.570790 0.000000
    42 0.121123 1.352511 10.648437 1.570795 0.000000 0.000000
    43 0.075737 -4.531266 6.953113 0.000007 0.000000 0.000000
    44 2.275391 3.255859 0.161011 1.570795 0.000000 0.000000
    45 -0.118835 -0.000004 -0.423096 0.000000 0.000000 0.000000
    46 -0.359131 0.000002 -0.246460 0.000000 0.000000 0.000000
    47 -0.286865 0.000002 -0.336182 0.000000 0.000000 0.000000
    48 -0.092712 0.000002 -0.432129 0.000000 0.000000 -0.000002
    49 -0.040558 0.000004 -0.449463 0.000000 0.000000 0.000000
    50 -0.020279 -0.000004 -0.440674 0.000000 0.000000 0.000000
    51 -0.034790 -0.000002 -0.437988 0.000000 0.000000 0.000000
    52 -0.199951 0.000002 -0.399902 0.000000 0.000000 0.000000
    53 -0.443604 -0.000002 -0.089905 0.000000 0.000000 0.000000
    54 18.975773 -13.981928 -17.149940 -0.000013 0.000000 0.000000
  time 20
    0 0.000005 -1.663086 -9.140625 -1.570760 -1.391893 -1.570827
    1 2.033348 1.000767 1.937659 3.099206 -0.162014 1.679995
    2 6.028141 0.000005 0.000002 -2.519867 -0.202856 -0.474723
    3 11.692560 0.000013 -0.000006 -0.000870 0.000887 -1.551531
    4 11.481678 0.000006 -0.000039 -0.467259 0.850946 0.478446
    5 2.797173 0.131028 -1.387294 -0.191395 -0.012903 -1.511130
    6 1.284180 0.000003 -0.000004 -0.002342 0.009091 0.011495
    7 0.841797 0.000000 0.000000 0.000507 -0.002524 -0.273496
    8 3.246994 0.175663 -0.607231 -0.063681 -0.018360 -1.172229
    9 1.610352 0.000001 0.000000 0.000817 -0.000301 -1.168463
    10 1.024443 -0.000006 0.000002 -0.000658 -0.000798 0.775482
    11 3.434456 0.214946 0.216593 -0.058656 -0.041791 -1.021255
    12 1.666016 -0.000001 0.000004 0.000999 -0.000144 -1.343494
    13 1.236527 -0.000006 0.000003 -0.001726 -0.001631 1.019386
    14 3.328588 0.248768 1.098085 -0.014685 -0.083535 -1.085820
    15 1.706055 0.000002 0.000002 -0.000401 0.000201 -1.012952
    16 1.002013 0.000000 0.000004 0.000281 0.000414 0.776803
    17 -0.014292 -0.641905 0.782180 -0.814482 -0.800824 -1.032564
    18 2.512458 0.000002 -0.000006 -0.000002 -0.000001 0.198443
    19 1.332008 0.000001 -0.000004 -0.063205 0.098153 -0.250867
    20 2.033356 1.000772 -1.937610 -0.128177 0.172990 -2.038336
    21 6.028142 0.000001 -0.000001 -0.156571 1.050631 -1.795583
    22 11.692555 0.000031 0.000001 0.000336 -0.000216 -1.800106
    23 11.481703 0.000105 0.000003 -0.637914 -0.182961 0.698418
    24 3.238564 -0.152077 1.470461 0.132489 -0.009028 -1.076595
    25 1.327148 -0.000004 0.000001 0.000000 0.000000 -0.726272
    26 0.818848 0.000001 -0.000003 0.000000 0.000000 -1.125393
    27 3.676662 -0.031688 0.669333 0.091640 0.089074 -1.220151
    28 1.597696 -0.000002 0.000002 0.000015 -0.000003 -0.986989
    29 0.988770 0.000002 0.000000 0.000000 0.000000 -1.136928
    30 3.758656 0.070793 -0.145877 0.071884 0.086615 -1.026689
    31 1.676613 0.000006 -0.003900 0.000002 -0.000014 -1.058158
    32 1.252155 0.000002 0.000006 0.000002 -0.000011 -1.213108
    33 3.574668 0.183123 -1.010960 0.111612 0.079474 -0.492175
    34 1.723633 -0.000001 0.000000 0.000000 0.000000 -0.575374
    35 1.001953 0.000000 0.000000 0.000000 0.000000 -0.653323
    36 0.270846 -0.754375 -0.376899 0.660734 0.526240 -0.808113
    37 2.633557 -0.000008 -0.000008 -0.000002 -0.000001 0.804784
    38 1.309570 -0.000001 -0.000001 -0.325417 0.133506 0.225399
    39 -6.085333 -12.741394 -6.073798 1.590538 -0.043647 -0.005393
    40 0.075653 -1.860363 3.566398 0.000007 0.000000 0.000000
    41 0.030047 2.382788 8.992188 1.570792 -1.570790 0.000000
    42 0.121123 1.352511 10.648437 1.570795 0.000000 0.000000
    43 0.075737 -4.531266 6.953113 0.000007 0.000000 0.000000
    44 2.275391 3.255859 0.161011 1.570795 0.000000 0.000000
    45 -0.118835 -0.000004 -0.423096 0.000000 0.000000 0.000000
    46 -0.359131 0.000002 -0.246460 0.000000 0.000000 0.000000
    47 -0.286865 0.000002 -0.336182 0.000000 0.000000 0.000000
    48 -0.092712 0.000002 -0.432129 0.000000 0.000000 -0.000002
    49 -0.040558 0.000004 -0.449463 0.000000 0.000000 0.000000
    50 -0.020279 -0.000004 -0.440674 0.000000 0.000000 0.000000
    51 -0.034790 -0.000002 -0.437988 0.000000 0.000000 0.000000
    52 -0.199951 0.000002 -0.399902 0.000000 0.000000 0.000000
    53 -0.443604 -0.000002 -0.089905 0.000000 0.000000 0.000000
    54 18.975773 -13.981928 -17.149940 -0.000013 0.000000 0.000000
  time 21
    0 0.000005 -1.663086 -9.140625 -1.570760 -1.391893 -1.570827
    1 2.033348 1.000767 1.937659 3.099206 -0.162014 1.679995
    2 6.028141 0.000005 0.000002 -2.518913 -0.199415 -0.455068
    3 11.692560 0.000013 -0.000006 -0.000870 0.000887 -1.548190
    4 11.481678 0.000006 -0.000039 -0.505599 0.839729 0.443302
    5 2.863581 0.189623 -1.422451 -0.192951 -0.014604 -1.514078
    6 1.284180 0.000003 -0.000004 -0.002342 0.009091 0.011495
    7 0.841797 0.000000 0.000000 0.000507 -0.002524 -0.273496
    8 3.317308 0.238165 -0.638482 -0.065731 -0.019451 -1.175191
    9 1.610352 0.000001 0.000000 0.000817 -0.000301 -1.168463
    10 1.024443 -0.000006 0.000002 -0.000658 -0.000798 0.775482
    11 3.504770 0.277448 0.181435 -0.060825 -0.042570 -1.024135
    12 1.666016 -0.000001 0.000004 0.000999 -0.000144 -1.343494
    13 1.236527 -0.000006 0.000003 -0.001726 -0.001631 1.019424
    14 3.402809 0.311270 1.062927 -0.016806 -0.084433 -1.088625
    15 1.706055 0.000002 0.000002 -0.000401 0.000201 -1.012952
    16 1.002013 0.000000 0.000004 0.000281 0.000414 0.776803
    17 0.052116 -0.567684 0.750929 -0.821555 -0.807643 -1.028329
    18 2.512458 0.000002 -0.000006 -0.000002 -0.000001 0.198443
    19 1.328102 0.000001 -0.000004 -0.063205 0.098153 -0.250867
    20 2.033356 1.000772 -1.937610 -0.128177 0.172990 -2.038336
    21 6.028142 0.000001 -0.000001 -0.173687 1.058479 -1.818731
    22 11.692555 0.000031 0.000001 0.000336 -0.000216 -1.793337
    23 11.481703 0.000105 0.000003 -0.649249 -0.182678 0.690974
    24 3.222938 -0.093482 1.521244 0.131144 -0.012204 -1.075319
    25 1.327148 -0.000004 0.000001 0.000000 0.000000 -0.726272
    26 0.818848 0.000001 -0.000003 0.000000 0.000000 -1.125393
    27 3.661036 0.030814 0.720115 0.090753 0.085730 -1.219008
    28 1.601603 -0.000002 0.000002 0.000003 -0.000003 -0.986953
    29 0.988770 0.000002 0.000000 0.000000 0.000000 -1.136928
    30 3.746936 0.133295 -0.091188 0.070362 0.083511 -1.025558
    31 1.676613 0.000006 0.000006 0.000002 -0.000026 -1.058194
    32 1.256061 0.000002 0.000006 0.000002 -0.000011 -1.213108
    33 3.559042 0.241719 -0.960177 0.108700 0.077569 -0.491118
    34 1.723633 -0.000001 0.000000 0.000000 0.000000 -0.575374
    35 1.001953 0.000000 0.000000 0.000000 0.000000 -0.653323
    36 0.259127 -0.699686 -0.322210 0.658251 0.523525 -0.808101
    37 2.633557 -0.000008 -0.000008 -0.000002 -0.000001 0.804784
    38 1.309570 -0.000001 -0.000001 -0.325417 0.133506 0.225399
    39 -6.077521 -12.749207 -5.980045 1.579931 -0.019690 -0.002564
    40 0.075653 -1.860363 3.566398 0.000007 0.000000 0.000000
    41 0.030047 2.382788 8.992188 1.570792 -1.570790 0.000000
    42 0.121123 1.352511 10.648437 1.570795 0.000000 0.000000
    43 0.075737 -4.531266 6.953113 0.000007 0.000000 0.000000
    44 2.275391 3.255859 0.161011 1.570795 0.000000 0.000000
    45 -0.118835 -0.000004 -0.423096 0.000000 0.000000 0.000000
    46 -0.359131 0.000002 -0.246460 0.000000 0.000000 0.000000
    47 -0.286865 0.000002 -0.336182 0.000000 0.000000 0.000000
    48 -0.092712 0.000002 -0.432129 0.000000 0.000000 -0.000002
    49 -0.040558 0.000004 -0.449463 0.000000 0.000000 0.000000
    50 -0.020279 -0.000004 -0.440674 0.000000 0.000000 0.000000
    51 -0.034790 -0.000002 -0.437988 0.000000 0.000000 0.000000
    52 -0.199951 0.000002 -0.399902 0.000000 0.000000 0.000000
    53 -0.443604 -0.000002 -0.089905 0.000000 0.000000 0.000000
    54 18.975773 -13.981928 -17.149940 -0.000013 0.000000 0.000000
  time 22
    0 0.000005 -1.663086 -9.140625 -1.570760 -1.391893 -1.570827
    1 2.033348 1.000767 1.937659 3.099206 -0.162014 1.679995
    2 6.028141 0.000005 0.000002 -2.518817 -0.197203 -0.455068
    3 11.692560 0.000013 -0.000006 -0.000870 0.000887 -1.549738
    4 11.481678 0.000006 -0.000039 -0.505599 0.841273 0.445092
    5 2.902645 0.072432 -1.406825 -0.192292 -0.012974 -1.528321
    6 1.284180 0.000003 -0.000004 -0.002342 0.009091 0.011495
    7 0.841797 0.000000 0.000000 0.000507 -0.002524 -0.273496
    8 3.356372 0.109255 -0.630669 -0.064556 -0.018133 -1.189410
    9 1.610352 0.000001 0.000000 0.000817 -0.000301 -1.168463
    10 1.024443 -0.000006 0.000002 -0.000658 -0.000798 0.775482
    11 3.543834 0.148538 0.189248 -0.059483 -0.041432 -1.038415
    12 1.666016 -0.000001 0.000004 0.000999 -0.000144 -1.343494
    13 1.236527 -0.000006 0.000003 -0.001726 -0.001631 1.019386
    14 3.441872 0.182360 1.078553 -0.015522 -0.083223 -1.102948
    15 1.706055 0.000002 0.000002 -0.000401 0.000201 -1.012952
    16 1.002013 0.000000 0.000004 0.000281 0.000414 0.776803
    17 0.079461 -0.649718 0.758742 -0.819596 -0.806504 -1.043942
    18 2.512458 0.000002 -0.000006 -0.000002 -0.000001 0.198443
    19 1.332008 0.000001 -0.000004 -0.063205 0.098153 -0.250867
    20 2.033356 1.000772 -1.937610 -0.128177 0.172990 -2.038336
    21 6.028142 0.000001 -0.000001 -0.173993 1.056979 -1.818821
    22 11.692555 0.000031 0.000001 0.000336 -0.000216 -1.794504
    23 11.481703 0.000105 0.000003 -0.648261 -0.182047 0.692463
    24 3.258096 -0.027074 1.447023 0.120336 -0.021180 -1.075851
    25 1.327148 -0.000004 0.000001 0.000000 0.000000 -0.726272
    26 0.818848 0.000001 -0.000003 0.000000 0.000000 -1.125393
    27 3.692287 0.077690 0.641988 0.081309 0.075303 -1.220473
    28 1.597696 -0.000002 0.000002 0.000003 -0.000003 -0.986882
    29 0.988770 0.000002 0.000000 0.000000 0.000000 -1.136928
    30 3.770375 0.180171 -0.173222 0.059109 0.075086 -1.027141
    31 1.676613 0.000006 0.000006 0.000002 -0.000026 -1.058194
    32 1.252155 0.000002 0.000006 0.000002 -0.000011 -1.213108
    33 3.582481 0.276876 -1.042211 0.094714 0.076047 -0.492905
    34 1.723633 -0.000001 0.000000 0.000000 0.000000 -0.575374
    35 1.001953 0.000000 0.000000 0.000000 0.000000 -0.653323
    36 0.278659 -0.656716 -0.376899 0.643525 0.517669 -0.816131
    37 2.637464 -0.000008 -0.000008 -0.000002 -0.000001 0.804784
    38 1.309570 -0.000001 -0.000001 -0.325417 0.133506 0.225399
    39 -6.065802 -12.753114 -5.937075 1.574905 -0.008784 -0.001229
    40 0.075653 -1.860363 3.566398 0.000007 0.000000 0.000000
    41 0.030047 2.382788 8.992188 1.570792 -1.570790 0.000000
    42 0.121123 1.352511 10.648437 1.570795 0.000000 0.000000
    43 0.075737 -4.531266 6.953113 0.000007 0.000000 0.000000
    44 2.275391 3.255859 0.161011 1.570795 0.000000 0.000000
    45 -0.118835 -0.000004 -0.423096 0.000000 0.000000 0.000000
    46 -0.359131 0.000002 -0.246460 0.000000 0.000000 0.000000
    47 -0.286865 0.000002 -0.336182 0.000000 0.000000 0.000000
    48 -0.092712 0.000002 -0.432129 0.000000 0.000000 -0.000002
    49 -0.040558 0.000004 -0.449463 0.000000 0.000000 0.000000
    50 -0.020279 -0.000004 -0.440674 0.000000 0.000000 0.000000
    51 -0.034790 -0.000002 -0.437988 0.000000 0.000000 0.000000
    52 -0.199951 0.000002 -0.399902 0.000000 0.000000 0.000000
    53 -0.443604 -0.000002 -0.089905 0.000000 0.000000 0.000000
    54 18.975773 -13.981928 -17.149940 -0.000013 0.000000 0.000000
  time 23
    0 0.000005 -1.663086 -9.140625 -1.570760 -1.391893 -1.570827
    1 2.033348 1.000767 1.937659 3.099206 -0.162014 1.679995
    2 6.028141 0.000005 0.000002 -2.518722 -0.196515 -0.455068
    3 11.692560 0.000013 -0.000006 -0.000870 0.000887 -1.550227
    4 11.481678 0.000006 -0.000039 -0.506365 0.841355 0.444433
    5 2.910457 0.021650 -1.410732 -0.191870 -0.012160 -1.534177
    6 1.284180 0.000003 -0.000004 -0.002342 0.009091 0.011495
    7 0.841797 0.000000 0.000000 0.000507 -0.002524 -0.273496
    8 3.364185 0.054566 -0.626763 -0.063885 -0.017485 -1.195294
    9 1.610352 0.000001 0.000000 0.000817 -0.000301 -1.168463
    10 1.024443 -0.000006 0.000002 -0.000658 -0.000798 0.775482
    11 3.555553 0.089942 0.193154 -0.058728 -0.040904 -1.044312
    12 1.666016 -0.000001 0.000004 0.000999 -0.000144 -1.343494
    13 1.236527 -0.000006 0.000003 -0.001726 -0.001631 1.019348
    14 3.449685 0.127671 1.078553 -0.014815 -0.082648 -1.108837
    15 1.706055 0.000002 0.000002 -0.000401 0.000201 -1.012952
    16 1.002013 0.000000 0.000004 0.000281 0.000414 0.776803
    17 0.083367 -0.684875 0.758742 -0.818515 -0.805977 -1.050577
    18 2.512458 0.000002 -0.000006 -0.000002 -0.000001 0.198443
    19 1.332008 0.000001 -0.000004 -0.063205 0.098153 -0.250867
    20 2.033356 1.000772 -1.937610 -0.128177 0.172990 -2.038336
    21 6.028142 0.000001 -0.000001 -0.174543 1.056770 -1.819495
    22 11.692555 0.000031 0.000001 0.000336 -0.000216 -1.794504
    23 11.481703 0.000105 0.000003 -0.648637 -0.182134 0.693350
    24 3.269815 -0.003635 1.415772 0.115077 -0.024404 -1.076595
    25 1.327148 -0.000004 0.000001 0.000000 0.000000 -0.726272
    26 0.818848 0.000001 -0.000003 0.000000 0.000000 -1.125393
    27 3.700100 0.097222 0.606831 0.076576 0.071360 -1.221687
    28 1.601603 -0.000002 0.000002 0.000003 -0.000003 -0.986917
    29 0.988770 0.000002 0.000000 0.000000 0.000000 -1.136928
    30 3.778187 0.191890 -0.212285 0.053692 0.072113 -1.028421
    31 1.680520 0.000006 0.000006 0.000002 -0.000026 -1.058194
    32 1.252155 0.000002 0.000006 0.000002 -0.000011 -1.213108
    33 3.586387 0.284689 -1.077368 0.088546 0.076239 -0.494254
    34 1.723633 -0.000001 0.000000 0.000000 0.000000 -0.575374
    35 1.001953 0.000000 0.000000 0.000000 0.000000 -0.653323
    36 0.286472 -0.641090 -0.400337 0.636750 0.515896 -0.820338
    37 2.637464 -0.000008 -0.000008 -0.000002 -0.000001 0.804784
    38 1.309570 -0.000001 -0.000001 -0.325417 0.133506 0.225399
    39 -6.061895 -12.753114 -5.913637 1.572372 -0.003307 -0.000429
    40 0.075653 -1.860363 3.566398 0.000007 0.000000 0.000000
    41 0.030047 2.382788 8.992188 1.570792 -1.570790 0.000000
    42 0.121123 1.352511 10.648437 1.570795 0.000000 0.000000
    43 0.075737 -4.531266 6.953113 0.000007 0.000000 0.000000
    44 2.275391 3.255859 0.161011 1.570795 0.000000 0.000000
    45 -0.118835 -0.000004 -0.423096 0.000000 0.000000 0.000000
    46 -0.359131 0.000002 -0.246460 0.000000 0.000000 0.000000
    47 -0.286865 0.000002 -0.336182 0.000000 0.000000 0.000000
    48 -0.092712 0.000002 -0.432129 0.000000 0.000000 -0.000002
    49 -0.040558 0.000004 -0.449463 0.000000 0.000000 0.000000
    50 -0.020279 -0.000004 -0.440674 0.000000 0.000000 0.000000
    51 -0.034790 -0.000002 -0.437988 0.000000 0.000000 0.000000
    52 -0.199951 0.000002 -0.399902 0.000000 0.000000 0.000000
    53 -0.443604 -0.000002 -0.089905 0.000000 0.000000 0.000000
    54 18.975773 -13.981928 -17.149940 -0.000013 0.000000 0.000000
  time 24
    0 0.000005 -1.663086 -9.140625 -1.570760 -1.391893 -1.570827
    1 2.033348 1.000767 1.937659 3.099206 -0.162014 1.679995
    2 6.028141 0.000005 0.000002 -2.518722 -0.196368 -0.454780
    3 11.692560 0.000013 -0.000006 -0.000870 0.000887 -1.550390
    4 11.481678 0.000006 -0.000039 -0.506557 0.841639 0.444715
    5 2.914364 -0.001789 -1.406825 -0.191619 -0.011704 -1.537356
    6 1.284180 0.000003 -0.000004 -0.002342 0.009091 0.011495
    7 0.841797 0.000000 0.000000 0.000507 -0.002524 -0.273496
    8 3.368091 0.038940 -0.622856 -0.063501 -0.017150 -1.198461
    9 1.610352 0.000001 0.000000 0.000817 -0.000301 -1.168463
    10 1.024443 -0.000006 0.000002 -0.000658 -0.000798 0.775482
    11 3.555553 0.062598 0.197061 -0.058297 -0.040641 -1.047467
    12 1.666016 -0.000001 0.000004 0.000999 -0.000144 -1.343494
    13 1.236527 -0.000006 0.000003 -0.001726 -0.001631 1.019386
    14 3.449685 0.100326 1.082459 -0.014382 -0.082348 -1.112051
    15 1.706055 0.000002 0.000002 -0.000401 0.000201 -1.012952
    16 1.002013 0.000000 0.000004 0.000281 0.000414 0.776803
    17 0.083367 -0.704407 0.762648 -0.817901 -0.805702 -1.054191
    18 2.512458 0.000002 -0.000006 -0.000002 -0.000001 0.198443
    19 1.332008 0.000001 -0.000004 -0.063205 0.098153 -0.250867
    20 2.033356 1.000772 -1.937610 -0.128177 0.172990 -2.038336
    21 6.028142 0.000001 -0.000001 -0.174849 1.057153 -1.819944
    22 11.692555 0.000031 0.000001 0.000336 -0.000216 -1.794446
    23 11.481703 0.000105 0.000003 -0.647932 -0.182417 0.693121
    24 3.277627 0.004177 1.400147 0.112726 -0.026405 -1.076560
    25 1.327148 -0.000004 0.000001 0.000000 0.000000 -0.726272
    26 0.818848 0.000001 -0.000003 0.000000 0.000000 -1.125393
    27 3.707913 0.105035 0.595111 0.074514 0.069035 -1.221866
    28 1.601603 -0.000002 0.000002 0.000003 -0.000003 -0.986917
    29 0.988770 0.000002 0.000000 0.000000 0.000000 -1.136928
    30 3.782094 0.195797 -0.227911 0.051223 0.070232 -1.028647
    31 1.680520 0.000006 0.000006 0.000002 -0.000026 -1.058194
    32 1.252155 0.000002 0.000006 0.000002 -0.000011 -1.213108
    33 3.590293 0.288595 -1.089087 0.085455 0.075867 -0.494546
    34 1.723633 -0.000001 0.000000 0.000000 0.000000 -0.575374
    35 1.001953 0.000000 0.000000 0.000000 0.000000 -0.653323
    36 0.294284 -0.637184 -0.404243 0.633516 0.514573 -0.822003
    37 2.637464 -0.000008 -0.000008 -0.000002 -0.000001 0.804784
    38 1.309570 -0.000001 -0.000001 -0.325417 0.133506 0.225399
    39 -6.057989 -12.753114 -5.901918 1.571159 -0.000706 -0.000162
    40 0.075653 -1.860363 3.566398 0.000007 0.000000 0.000000
    41 0.030047 2.382788 8.992188 1.570792 -1.570790 0.000000
    42 0.121123 1.352511 10.648437 1.570795 0.000000 0.000000
    43 0.075737 -4.531266 6.953113 0.000007 0.000000 0.000000
    44 2.275391 3.255859 0.161011 1.570795 0.000000 0.000000
    45 -0.118835 -0.000004 -0.423096 0.000000 0.000000 0.000000
    46 -0.359131 0.000002 -0.246460 0.000000 0.000000 0.000000
    47 -0.286865 0.000002 -0.336182 0.000000 0.000000 0.000000
    48 -0.092712 0.000002 -0.432129 0.000000 0.000000 -0.000002
    49 -0.040558 0.000004 -0.449463 0.000000 0.000000 0.000000
    50 -0.020279 -0.000004 -0.440674 0.000000 0.000000 0.000000
    51 -0.034790 -0.000002 -0.437988 0.000000 0.000000 0.000000
    52 -0.199951 0.000002 -0.399902 0.000000 0.000000 0.000000
    53 -0.443604 -0.000002 -0.089905 0.000000 0.000000 0.000000
    54 18.975773 -13.981928 -17.149940 -0.000013 0.000000 0.000000
  time 25
    0 0.000005 -1.663086 -9.140625 -1.570760 -1.391893 -1.570827
    1 2.033348 1.000767 1.937659 3.099206 -0.162014 1.679995
    2 6.028141 0.000005 0.000002 -2.518817 -0.196663 -0.455547
    3 11.692560 0.000013 -0.000006 -0.000870 0.000887 -1.550146
    4 11.481678 0.000006 -0.000039 -0.504544 0.842208 0.446506
    5 2.914364 -0.025227 -1.399013 -0.191435 -0.011392 -1.539405
    6 1.284180 0.000003 -0.000004 -0.002342 0.009091 0.011495
    7 0.841797 0.000000 0.000000 0.000507 -0.002524 -0.273496
    8 3.368091 0.015502 -0.622856 -0.063226 -0.016910 -1.200544
    9 1.610352 0.000001 0.000000 0.000817 -0.000301 -1.168463
    10 1.024443 -0.000006 0.000002 -0.000658 -0.000798 0.775482
    11 3.555553 0.039160 0.204873 -0.057973 -0.040449 -1.049555
    12 1.666016 -0.000001 0.000004 0.000999 -0.000144 -1.343494
    13 1.236527 -0.000006 0.000003 -0.001726 -0.001631 1.019386
    14 3.453591 0.076888 1.086366 -0.014108 -0.082132 -1.114150
    15 1.706055 0.000002 0.000002 -0.000401 0.000201 -1.012952
    16 1.002013 0.000000 0.000004 0.000281 0.000414 0.776803
    17 0.083367 -0.720033 0.762648 -0.817434 -0.805498 -1.056591
    18 2.512458 0.000002 -0.000006 -0.000002 -0.000001 0.198443
    19 1.328102 0.000001 -0.000004 -0.063205 0.098153 -0.250867
    20 2.033356 1.000772 -1.937610 -0.128177 0.172990 -2.038336
    21 6.028142 0.000001 -0.000001 -0.174238 1.056491 -1.819045
    22 11.692555 0.000031 0.000001 0.000336 -0.000216 -1.794913
    23 11.481703 0.000105 0.000003 -0.647461 -0.182330 0.693866
    24 3.281534 0.011990 1.384521 0.111018 -0.027604 -1.076737
    25 1.327148 -0.000004 0.000001 0.000000 0.000000 -0.726272
    26 0.818848 0.000001 -0.000003 0.000000 0.000000 -1.125393
    27 3.711819 0.108941 0.575580 0.073004 0.067597 -1.222187
    28 1.597696 -0.000002 0.000002 0.000003 -0.000003 -0.986917
    29 0.988770 0.000002 0.000000 0.000000 0.000000 -1.136928
    30 3.786000 0.199703 -0.243536 0.049461 0.069105 -1.028949
    31 1.680520 0.000006 0.000006 0.000002 -0.000026 -1.058158
    32 1.252155 0.000002 0.000006 0.000002 -0.000011 -1.213108
    33 3.594200 0.288595 -1.104712 0.083369 0.075795 -0.494874
    34 1.723633 -0.000001 0.000000 0.000000 0.000000 -0.575374
    35 1.001953 0.000000 0.000000 0.000000 0.000000 -0.653323
    36 0.294284 -0.633278 -0.415963 0.631283 0.513810 -0.823322
    37 2.633557 -0.000008 -0.000008 -0.000002 -0.000001 0.804784
    38 1.309570 -0.000001 -0.000001 -0.325417 0.133506 0.225399
    39 -6.054083 -12.753114 -5.898011 1.570829 0.000013 -0.000001
    40 0.075653 -1.860363 3.566398 0.000007 0.000000 0.000000
    41 0.030047 2.382788 8.992188 1.570792 -1.570790 0.000000
    42 0.121123 1.352511 10.648437 1.570795 0.000000 0.000000
    43 0.075737 -4.531266 6.953113 0.000007 0.000000 0.000000
    44 2.275391 3.255859 0.161011 1.570795 0.000000 0.000000
    45 -0.118835 -0.000004 -0.423096 0.000000 0.000000 0.000000
    46 -0.359131 0.000002 -0.246460 0.000000 0.000000 0.000000
    47 -0.286865 0.000002 -0.336182 0.000000 0.000000 0.000000
    48 -0.092712 0.000002 -0.432129 0.000000 0.000000 -0.000002
    49 -0.040558 0.000004 -0.449463 0.000000 0.000000 0.000000
    50 -0.020279 -0.000004 -0.440674 0.000000 0.000000 0.000000
    51 -0.034790 -0.000002 -0.437988 0.000000 0.000000 0.000000
    52 -0.199951 0.000002 -0.399902 0.000000 0.000000 0.000000
    53 -0.443604 -0.000002 -0.089905 0.000000 0.000000 0.000000
    54 18.975773 -13.981928 -17.149940 -0.000013 0.000000 0.000000
end
