// Created by Crowbar++ 0.74
version 1
nodes
  0 "ValveBiped.Bip01_Spine4" -1
  1 "ValveBiped.Bip01_L_Clavicle" 0
  2 "ValveBiped.Bip01_L_UpperArm" 1
  3 "ValveBiped.Bip01_L_Forearm" 2
  4 "ValveBiped.Bip01_L_Hand" 3
  5 "ValveBiped.Bip01_L_Finger4" 4
  6 "ValveBiped.Bip01_L_Finger41" 5
  7 "ValveBiped.Bip01_L_Finger42" 6
  8 "ValveBiped.Bip01_L_Finger3" 4
  9 "ValveBiped.Bip01_L_Finger31" 8
  10 "ValveBiped.Bip01_L_Finger32" 9
  11 "ValveBiped.Bip01_L_Finger2" 4
  12 "ValveBiped.Bip01_L_Finger21" 11
  13 "ValveBiped.Bip01_L_Finger22" 12
  14 "ValveBiped.Bip01_L_Finger1" 4
  15 "ValveBiped.Bip01_L_Finger11" 14
  16 "ValveBiped.Bip01_L_Finger12" 15
  17 "ValveBiped.Bip01_L_Finger0" 4
  18 "ValveBiped.Bip01_L_Finger01" 17
  19 "ValveBiped.Bip01_L_Finger02" 18
  20 "ValveBiped.Bip01_R_Clavicle" 0
  21 "ValveBiped.Bip01_R_UpperArm" 20
  22 "ValveBiped.Bip01_R_Forearm" 21
  23 "ValveBiped.Bip01_R_Hand" 22
  24 "ValveBiped.Bip01_R_Finger4" 23
  25 "ValveBiped.Bip01_R_Finger41" 24
  26 "ValveBiped.Bip01_R_Finger42" 25
  27 "ValveBiped.Bip01_R_Finger3" 23
  28 "ValveBiped.Bip01_R_Finger31" 27
  29 "ValveBiped.Bip01_R_Finger32" 28
  30 "ValveBiped.Bip01_R_Finger2" 23
  31 "ValveBiped.Bip01_R_Finger21" 30
  32 "ValveBiped.Bip01_R_Finger22" 31
  33 "ValveBiped.Bip01_R_Finger1" 23
  34 "ValveBiped.Bip01_R_Finger11" 33
  35 "ValveBiped.Bip01_R_Finger12" 34
  36 "ValveBiped.Bip01_R_Finger0" 23
  37 "ValveBiped.Bip01_R_Finger01" 36
  38 "ValveBiped.Bip01_R_Finger02" 37
  39 "v_weapon.USP_Parent" -1
  40 "v_weapon.USP_Clip" 39
  41 "v_weapon.USP_Hammer" 39
  42 "v_weapon.USP_Release" 39
  43 "v_weapon.USP_Slide" 39
  44 "v_weapon.USP_Switch" 39
  45 "v_weapon.USP_Trigger" 39
  46 "v_weapon.USP_Silencer" 39
end
skeleton
  time 0
    0 0.000006 0.000000 0.000000 -1.570797 -1.391899 -1.570795
    1 2.033348 1.000767 1.937660 1.596636 -1.286515 2.942963
    2 6.028145 0.000003 0.000002 -1.583313 0.047825 -0.585284
    3 11.692553 0.000081 -0.000007 -0.000003 0.000000 -0.060420
    4 11.481672 -0.000089 -0.000024 1.576904 -0.106664 0.043821
    5 3.859703 -0.142414 -1.191975 -0.468129 0.151538 -0.880198
    6 1.312561 -0.000008 0.000003 0.000000 -0.000003 -0.439723
    7 0.729368 -0.000004 0.000000 0.000001 -0.000003 -0.244304
    8 3.942329 0.046756 -0.431443 -0.151780 0.073202 -0.810991
    9 1.539095 0.000004 -0.000005 -0.000002 0.000006 -0.247791
    10 1.196321 -0.000004 0.000004 0.000001 -0.000007 -0.430812
    11 3.883694 -0.046778 0.431443 0.085902 0.021835 -0.587865
    12 1.719578 -0.000011 0.000009 0.000002 0.005514 -0.366480
    13 1.209183 -0.000002 0.000003 0.000000 0.003091 -0.216394
    14 3.859859 -0.137959 1.332466 0.354450 -0.042751 -0.531725
    15 1.719433 0.000002 -0.000005 -0.000004 0.004079 -0.363004
    16 1.099672 -0.000006 0.000004 0.000005 0.002595 -0.244332
    17 0.806042 -0.348925 1.321258 -1.222684 -0.679216 -0.788820
    18 1.789783 0.000000 -0.000008 -0.000002 -0.000001 0.228524
    19 1.207001 0.000001 0.000000 0.000002 -0.000001 0.362862
    20 2.033356 1.000772 -1.937610 -1.668474 1.286518 2.942953
    21 6.028141 0.000000 -0.000002 1.639696 -0.008065 -0.586852
    22 11.692554 0.000000 0.000000 -0.000002 0.000000 -0.060372
    23 11.481705 -0.000001 -0.000009 -1.565152 0.106609 0.044170
    24 3.859680 -0.132550 1.193109 0.466234 -0.158068 -0.878817
    25 1.312561 -0.000002 -0.000002 0.000002 0.000001 -0.439674
    26 0.729366 -0.000004 0.000001 0.000000 0.000003 -0.244276
    27 3.942299 0.050344 0.431044 0.150077 -0.079190 -0.810199
    28 1.539101 -0.000002 0.000002 0.000003 -0.000003 -0.247767
    29 1.196323 -0.000002 -0.000002 -0.000003 0.000002 -0.430764
    30 3.883663 -0.050307 -0.431042 -0.085905 -0.026400 -0.587691
    31 1.719584 0.000000 0.000006 0.000002 -0.007972 -0.366438
    32 1.209185 0.000000 0.000005 0.000002 -0.004469 -0.216370
    33 3.859833 -0.148923 -1.331282 -0.354423 0.038571 -0.532000
    34 1.719427 0.000008 0.000012 0.000003 -0.006611 -0.362970
    35 1.099663 0.000002 0.000008 0.000004 -0.004212 -0.244311
    36 0.806026 -0.359835 -1.318335 1.221406 0.673630 -0.793552
    37 1.789785 -0.000008 -0.000006 -0.000002 -0.000001 0.228551
    38 1.207003 0.000000 -0.000004 0.000004 -0.000002 0.362910
    39 -5.597123 -19.339581 -6.532116 1.567156 0.012071 -3.141483
    40 -0.003810 2.312519 1.197218 -0.000027 0.000010 0.000000
    41 0.001230 3.011752 2.415958 -0.000025 0.000000 0.000000
    42 0.001228 2.742167 -1.331091 -0.000027 -0.000001 0.000000
    43 0.001229 3.617197 0.625910 -0.000027 0.000000 0.000000
    44 0.001260 2.691445 2.738224 -0.000027 0.000044 0.000000
    45 0.001231 2.716781 -0.958050 -0.000027 0.000000 0.000000
    46 0.001230 3.682984 -5.953835 0.000000 -0.000001 0.000000
end
triangles
pist_usp
  46 -5.643725 -25.478176 -2.123710 -0.003278 -0.003649 0.999988 0.003133 0.019632 1 46 1.000000
  46 -5.850422 -25.478071 -2.158311 -0.312134 -0.003503 0.950032 0.003133 0.033179 1 46 1.000000
  46 -5.849586 -32.598091 -2.184288 -0.312135 -0.003503 0.950031 0.303744 0.033179 1 46 1.000000
pist_usp
  46 -5.642890 -32.598194 -2.149687 -0.003275 -0.003649 0.999988 0.303744 0.019632 1 46 1.000000
  46 -5.643725 -25.478176 -2.123710 -0.003278 -0.003649 0.999988 0.003133 0.019632 1 46 1.000000
  46 -5.849586 -32.598091 -2.184288 -0.312135 -0.003503 0.950031 0.303744 0.033179 1 46 1.000000
pist_usp
  46 -5.643725 -25.478176 -2.123710 -0.003278 -0.003649 0.999988 0.003133 0.019632 1 46 1.000000
  46 -5.642890 -32.598194 -2.149687 -0.003275 -0.003649 0.999988 0.303744 0.019632 1 46 1.000000
  46 -5.435974 -32.598053 -2.182932 0.305904 -0.003438 0.952056 0.303744 0.006085 1 46 1.000000
pist_usp
  46 -5.436810 -25.478029 -2.156955 0.305903 -0.003438 0.952057 0.003133 0.006085 1 46 1.000000
  46 -5.643725 -25.478176 -2.123710 -0.003278 -0.003649 0.999988 0.003133 0.019632 1 46 1.000000
  46 -5.435974 -32.598053 -2.182932 0.305904 -0.003438 0.952056 0.303744 0.006085 1 46 1.000000
pist_usp
  46 -5.639334 -25.473282 -3.464520 0.003275 0.003649 -0.999988 0.003133 0.155101 1 46 1.000000
  46 -5.638500 -32.593300 -3.490497 0.003277 0.003649 -0.999988 0.303744 0.155101 1 46 1.000000
  46 -5.845417 -32.593445 -3.457253 -0.305898 0.003438 -0.952058 0.303744 0.141554 1 46 1.000000
pist_usp
  46 -5.846252 -25.473427 -3.431277 -0.305897 0.003438 -0.952058 0.003133 0.141554 1 46 1.000000
  46 -5.639334 -25.473282 -3.464520 0.003275 0.003649 -0.999988 0.003133 0.155101 1 46 1.000000
  46 -5.845417 -32.593445 -3.457253 -0.305898 0.003438 -0.952058 0.303744 0.141554 1 46 1.000000
pist_usp
  46 -6.033811 -25.473791 -3.337777 -0.585135 0.002890 -0.810931 0.003133 0.128007 1 46 1.000000
  46 -5.846252 -25.473427 -3.431277 -0.305897 0.003438 -0.952058 0.003133 0.141554 1 46 1.000000
  46 -5.845417 -32.593445 -3.457253 -0.305898 0.003438 -0.952058 0.303744 0.141554 1 46 1.000000
pist_usp
  46 -6.032976 -32.593815 -3.363753 -0.585133 0.002890 -0.810932 0.303744 0.128007 1 46 1.000000
  46 -6.033811 -25.473791 -3.337777 -0.585135 0.002890 -0.810931 0.003133 0.128007 1 46 1.000000
  46 -5.845417 -32.593445 -3.457253 -0.305898 0.003438 -0.952058 0.303744 0.141554 1 46 1.000000
pist_usp
  46 -6.033811 -25.473791 -3.337777 -0.585135 0.002890 -0.810931 0.003133 0.128007 1 46 1.000000
  46 -6.032976 -32.593815 -3.363753 -0.585133 0.002890 -0.810932 0.303744 0.128007 1 46 1.000000
  46 -6.180831 -32.594372 -3.215236 -0.807087 0.002059 -0.590429 0.303744 0.114460 1 46 1.000000
pist_usp
  46 -6.181667 -25.474350 -3.189259 -0.807088 0.002059 -0.590427 0.003133 0.114460 1 46 1.000000
  46 -6.033811 -25.473791 -3.337777 -0.585135 0.002890 -0.810931 0.003133 0.128007 1 46 1.000000
  46 -6.180831 -32.594372 -3.215236 -0.807087 0.002059 -0.590429 0.303744 0.114460 1 46 1.000000
pist_usp
  46 -6.278448 -25.475039 -3.003373 -0.950038 0.001027 -0.312133 0.003133 0.100913 1 46 1.000000
  46 -6.181667 -25.474350 -3.189259 -0.807088 0.002059 -0.590427 0.003133 0.114460 1 46 1.000000
  46 -6.180831 -32.594372 -3.215236 -0.807087 0.002059 -0.590429 0.303744 0.114460 1 46 1.000000
pist_usp
  46 -6.277613 -32.595058 -3.029349 -0.950038 0.001027 -0.312133 0.303744 0.100913 1 46 1.000000
  46 -6.278448 -25.475039 -3.003373 -0.950038 0.001027 -0.312133 0.003133 0.100913 1 46 1.000000
  46 -6.180831 -32.594372 -3.215236 -0.807087 0.002059 -0.590429 0.303744 0.114460 1 46 1.000000
pist_usp
  46 -6.278448 -25.475039 -3.003373 -0.950038 0.001027 -0.312133 0.003133 0.100913 1 46 1.000000
  46 -6.277613 -32.595058 -3.029349 -0.950038 0.001027 -0.312133 0.303744 0.100913 1 46 1.000000
  46 -6.309937 -32.595821 -2.822287 -0.999995 -0.000105 -0.003275 0.303744 0.087367 1 46 1.000000
pist_usp
  46 -6.310771 -25.475798 -2.796309 -0.999995 -0.000105 -0.003276 0.003133 0.087367 1 46 1.000000
  46 -6.278448 -25.475039 -3.003373 -0.950038 0.001027 -0.312133 0.003133 0.100913 1 46 1.000000
  46 -6.309937 -32.595821 -2.822287 -0.999995 -0.000105 -0.003275 0.303744 0.087367 1 46 1.000000
pist_usp
  46 -6.279805 -25.476551 -2.589038 -0.952064 -0.001228 0.305897 0.003133 0.073820 1 46 1.000000
  46 -6.310771 -25.475798 -2.796309 -0.999995 -0.000105 -0.003276 0.003133 0.087367 1 46 1.000000
  46 -6.309937 -32.595821 -2.822287 -0.999995 -0.000105 -0.003275 0.303744 0.087367 1 46 1.000000
pist_usp
  46 -6.278969 -32.596569 -2.615015 -0.952063 -0.001228 0.305899 0.303744 0.073820 1 46 1.000000
  46 -6.279805 -25.476551 -2.589038 -0.952064 -0.001228 0.305897 0.003133 0.073820 1 46 1.000000
  46 -6.309937 -32.595821 -2.822287 -0.999995 -0.000105 -0.003275 0.303744 0.087367 1 46 1.000000
pist_usp
  46 -6.279805 -25.476551 -2.589038 -0.952064 -0.001228 0.305897 0.003133 0.073820 1 46 1.000000
  46 -6.278969 -32.596569 -2.615015 -0.952063 -0.001228 0.305899 0.303744 0.073820 1 46 1.000000
  46 -6.183411 -32.597240 -2.428498 -0.810937 -0.002230 0.585129 0.303744 0.060273 1 46 1.000000
pist_usp
  46 -6.184247 -25.477219 -2.402521 -0.810939 -0.002230 0.585126 0.003133 0.060273 1 46 1.000000
  46 -6.279805 -25.476551 -2.589038 -0.952064 -0.001228 0.305897 0.003133 0.073820 1 46 1.000000
  46 -6.183411 -32.597240 -2.428498 -0.810937 -0.002230 0.585129 0.303744 0.060273 1 46 1.000000
pist_usp
  46 -6.037364 -25.477749 -2.253038 -0.590431 -0.003014 0.807082 0.003133 0.046726 1 46 1.000000
  46 -6.184247 -25.477219 -2.402521 -0.810939 -0.002230 0.585126 0.003133 0.060273 1 46 1.000000
  46 -6.183411 -32.597240 -2.428498 -0.810937 -0.002230 0.585129 0.303744 0.060273 1 46 1.000000
pist_usp
  46 -6.036527 -32.597767 -2.279015 -0.590432 -0.003014 0.807082 0.303744 0.046726 1 46 1.000000
  46 -6.037364 -25.477749 -2.253038 -0.590431 -0.003014 0.807082 0.003133 0.046726 1 46 1.000000
  46 -6.183411 -32.597240 -2.428498 -0.810937 -0.002230 0.585129 0.303744 0.060273 1 46 1.000000
pist_usp
  46 -6.037364 -25.477749 -2.253038 -0.590431 -0.003014 0.807082 0.003133 0.046726 1 46 1.000000
  46 -6.036527 -32.597767 -2.279015 -0.590432 -0.003014 0.807082 0.303744 0.046726 1 46 1.000000
  46 -5.849586 -32.598091 -2.184288 -0.312135 -0.003503 0.950031 0.303744 0.033179 1 46 1.000000
pist_usp
  46 -5.850422 -25.478071 -2.158311 -0.312134 -0.003503 0.950032 0.003133 0.033179 1 46 1.000000
  46 -6.037364 -25.477749 -2.253038 -0.590431 -0.003014 0.807082 0.003133 0.046726 1 46 1.000000
  46 -5.849586 -32.598091 -2.184288 -0.312135 -0.003503 0.950031 0.303744 0.033179 1 46 1.000000
pist_usp
  46 -5.249250 -25.477665 -2.250456 0.585134 -0.002890 0.810931 0.003133 0.263476 1 46 1.000000
  46 -5.436810 -25.478029 -2.156955 0.305903 -0.003438 0.952057 0.003133 0.277023 1 46 1.000000
  46 -5.435974 -32.598053 -2.182932 0.305904 -0.003438 0.952056 0.303744 0.277023 1 46 1.000000
pist_usp
  46 -5.248415 -32.597691 -2.276433 0.585133 -0.002890 0.810932 0.303744 0.263476 1 46 1.000000
  46 -5.249250 -25.477665 -2.250456 0.585134 -0.002890 0.810931 0.003133 0.263476 1 46 1.000000
  46 -5.435974 -32.598053 -2.182932 0.305904 -0.003438 0.952056 0.303744 0.277023 1 46 1.000000
pist_usp
  46 -5.249250 -25.477665 -2.250456 0.585134 -0.002890 0.810931 0.003133 0.263476 1 46 1.000000
  46 -5.248415 -32.597691 -2.276433 0.585133 -0.002890 0.810932 0.303744 0.263476 1 46 1.000000
  46 -5.100556 -32.597122 -2.424951 0.807088 -0.002059 0.590427 0.303744 0.249929 1 46 1.000000
pist_usp
  46 -5.101393 -25.477104 -2.398974 0.807089 -0.002059 0.590426 0.003133 0.249929 1 46 1.000000
  46 -5.249250 -25.477665 -2.250456 0.585134 -0.002890 0.810931 0.003133 0.263476 1 46 1.000000
  46 -5.100556 -32.597122 -2.424951 0.807088 -0.002059 0.590427 0.303744 0.249929 1 46 1.000000
pist_usp
  46 -5.004613 -25.476416 -2.584861 0.950040 -0.001027 0.312127 0.003133 0.236382 1 46 1.000000
  46 -5.101393 -25.477104 -2.398974 0.807089 -0.002059 0.590426 0.003133 0.249929 1 46 1.000000
  46 -5.100556 -32.597122 -2.424951 0.807088 -0.002059 0.590427 0.303744 0.249929 1 46 1.000000
pist_usp
  46 -5.003778 -32.596436 -2.610837 0.950039 -0.001027 0.312129 0.303744 0.236382 1 46 1.000000
  46 -5.004613 -25.476416 -2.584861 0.950040 -0.001027 0.312127 0.003133 0.236382 1 46 1.000000
  46 -5.100556 -32.597122 -2.424951 0.807088 -0.002059 0.590427 0.303744 0.249929 1 46 1.000000
pist_usp
  46 -5.004613 -25.476416 -2.584861 0.950040 -0.001027 0.312127 0.003133 0.236382 1 46 1.000000
  46 -5.003778 -32.596436 -2.610837 0.950039 -0.001027 0.312129 0.303744 0.236382 1 46 1.000000
  46 -4.971455 -32.595673 -2.817900 0.999995 0.000105 0.003276 0.303744 0.222835 1 46 1.000000
pist_usp
  46 -4.972291 -25.475657 -2.791923 0.999995 0.000106 0.003276 0.003133 0.222835 1 46 1.000000
  46 -5.004613 -25.476416 -2.584861 0.950040 -0.001027 0.312127 0.003133 0.236382 1 46 1.000000
  46 -4.971455 -32.595673 -2.817900 0.999995 0.000105 0.003276 0.303744 0.222835 1 46 1.000000
pist_usp
  46 -5.003256 -25.474903 -2.999195 0.952065 0.001228 -0.305894 0.003133 0.209288 1 46 1.000000
  46 -4.972291 -25.475657 -2.791923 0.999995 0.000106 0.003276 0.003133 0.222835 1 46 1.000000
  46 -4.971455 -32.595673 -2.817900 0.999995 0.000105 0.003276 0.303744 0.222835 1 46 1.000000
pist_usp
  46 -5.002420 -32.594925 -3.025171 0.952063 0.001228 -0.305899 0.303744 0.209288 1 46 1.000000
  46 -5.003256 -25.474903 -2.999195 0.952065 0.001228 -0.305894 0.003133 0.209288 1 46 1.000000
  46 -4.971455 -32.595673 -2.817900 0.999995 0.000105 0.003276 0.303744 0.222835 1 46 1.000000
pist_usp
  46 -5.003256 -25.474903 -2.999195 0.952065 0.001228 -0.305894 0.003133 0.209288 1 46 1.000000
  46 -5.002420 -32.594925 -3.025171 0.952063 0.001228 -0.305899 0.303744 0.209288 1 46 1.000000
  46 -5.097980 -32.594257 -3.211688 0.810938 0.002230 -0.585128 0.303744 0.195741 1 46 1.000000
pist_usp
  46 -5.098815 -25.474236 -3.185711 0.810941 0.002230 -0.585124 0.003133 0.195741 1 46 1.000000
  46 -5.003256 -25.474903 -2.999195 0.952065 0.001228 -0.305894 0.003133 0.209288 1 46 1.000000
  46 -5.097980 -32.594257 -3.211688 0.810938 0.002230 -0.585128 0.303744 0.195741 1 46 1.000000
pist_usp
  46 -5.245697 -25.473707 -3.335195 0.590434 0.003014 -0.807080 0.003133 0.182195 1 46 1.000000
  46 -5.098815 -25.474236 -3.185711 0.810941 0.002230 -0.585124 0.003133 0.195741 1 46 1.000000
  46 -5.097980 -32.594257 -3.211688 0.810938 0.002230 -0.585128 0.303744 0.195741 1 46 1.000000
pist_usp
  46 -5.244863 -32.593731 -3.361171 0.590431 0.003014 -0.807082 0.303744 0.182195 1 46 1.000000
  46 -5.245697 -25.473707 -3.335195 0.590434 0.003014 -0.807080 0.003133 0.182195 1 46 1.000000
  46 -5.097980 -32.594257 -3.211688 0.810938 0.002230 -0.585128 0.303744 0.195741 1 46 1.000000
pist_usp
  46 -5.245697 -25.473707 -3.335195 0.590434 0.003014 -0.807080 0.003133 0.182195 1 46 1.000000
  46 -5.244863 -32.593731 -3.361171 0.590431 0.003014 -0.807082 0.303744 0.182195 1 46 1.000000
  46 -5.431804 -32.593407 -3.455898 0.312129 0.003503 -0.950033 0.303744 0.168648 1 46 1.000000
pist_usp
  46 -5.432640 -25.473383 -3.429922 0.312126 0.003503 -0.950034 0.003133 0.168648 1 46 1.000000
  46 -5.245697 -25.473707 -3.335195 0.590434 0.003014 -0.807080 0.003133 0.182195 1 46 1.000000
  46 -5.431804 -32.593407 -3.455898 0.312129 0.003503 -0.950033 0.303744 0.168648 1 46 1.000000
pist_usp
  46 -5.639334 -25.473282 -3.464520 0.003275 0.003649 -0.999988 0.003133 0.155101 1 46 1.000000
  46 -5.432640 -25.473383 -3.429922 0.312126 0.003503 -0.950034 0.003133 0.168648 1 46 1.000000
  46 -5.431804 -32.593407 -3.455898 0.312129 0.003503 -0.950033 0.303744 0.168648 1 46 1.000000
pist_usp
  46 -5.638500 -32.593300 -3.490497 0.003277 0.003649 -0.999988 0.303744 0.155101 1 46 1.000000
  46 -5.639334 -25.473282 -3.464520 0.003275 0.003649 -0.999988 0.003133 0.155101 1 46 1.000000
  46 -5.431804 -32.593407 -3.455898 0.312129 0.003503 -0.950033 0.303744 0.168648 1 46 1.000000
pist_usp
  46 -5.249250 -25.477665 -2.250456 0.328067 0.826297 0.457827 0.068559 0.438043 1 46 1.000000
  46 -5.101393 -25.477104 -2.398974 0.453092 0.826305 0.334556 0.077481 0.419033 1 46 1.000000
  46 -5.266736 -25.337677 -2.519413 0.313958 0.920377 0.233103 0.064852 0.400723 1 46 1.000000
pist_usp
  46 -5.101393 -25.477104 -2.398974 0.453092 0.826305 0.334556 0.077481 0.419033 1 46 1.000000
  46 -5.004613 -25.476416 -2.584861 0.532725 0.827341 0.178076 0.083785 0.396226 1 46 1.000000
  46 -5.266736 -25.337677 -2.519413 0.313958 0.920377 0.233103 0.064852 0.400723 1 46 1.000000
pist_usp
  46 -5.004613 -25.476416 -2.584861 0.532725 0.827341 0.178076 0.083785 0.396226 1 46 1.000000
  46 -5.199579 -25.337200 -2.648403 0.369011 0.921031 0.124631 0.068783 0.386499 1 46 1.000000
  46 -5.266736 -25.337677 -2.519413 0.313958 0.920377 0.233103 0.064852 0.400723 1 46 1.000000
pist_usp
  46 -6.018146 -25.337757 -2.521875 -0.315643 0.920321 0.231040 0.022996 0.400723 1 46 1.000000
  46 -5.916222 -25.338123 -2.418147 -0.229505 0.920258 0.316944 0.028560 0.412578 1 46 1.000000
  46 -5.499487 -25.338318 -2.351474 0.118932 0.919840 0.373831 0.051918 0.419474 1 46 1.000000
pist_usp
  46 -5.916222 -25.338123 -2.418147 -0.229505 0.920258 0.316944 0.028560 0.412578 1 46 1.000000
  46 -5.786500 -25.338348 -2.352414 -0.121567 0.919813 0.373050 0.035930 0.419474 1 46 1.000000
  46 -5.499487 -25.338318 -2.351474 0.118932 0.919840 0.373831 0.051918 0.419474 1 46 1.000000
pist_usp
  46 -5.786500 -25.338348 -2.352414 -0.121567 0.919813 0.373050 0.035930 0.419474 1 46 1.000000
  46 -5.643071 -25.338417 -2.328405 -0.001387 0.920010 0.391892 0.043924 0.422539 1 46 1.000000
  46 -5.499487 -25.338318 -2.351474 0.118932 0.919840 0.373831 0.051918 0.419474 1 46 1.000000
pist_usp
  46 -5.643725 -25.478176 -2.123710 -0.001932 0.825867 0.563862 0.043924 0.454016 1 46 1.000000
  46 -5.643071 -25.338417 -2.328405 -0.001387 0.920010 0.391892 0.043924 0.422539 1 46 1.000000
  46 -5.786500 -25.338348 -2.352414 -0.121567 0.919813 0.373050 0.035930 0.419474 1 46 1.000000
pist_usp
  46 -5.643071 -25.338417 -2.328405 -0.001387 0.920010 0.391892 0.043924 0.422539 1 46 1.000000
  46 -5.643725 -25.478176 -2.123710 -0.001932 0.825867 0.563862 0.043924 0.454016 1 46 1.000000
  46 -5.499487 -25.338318 -2.351474 0.118932 0.919840 0.373831 0.051918 0.419474 1 46 1.000000
pist_usp
  46 -5.643725 -25.478176 -2.123710 -0.001932 0.825867 0.563862 0.043924 0.454016 1 46 1.000000
  46 -5.436810 -25.478029 -2.156955 0.171667 0.825531 0.537615 0.056742 0.449101 1 46 1.000000
  46 -5.499487 -25.338318 -2.351474 0.118932 0.919840 0.373831 0.051918 0.419474 1 46 1.000000
pist_usp
  46 -5.436810 -25.478029 -2.156955 0.171667 0.825531 0.537615 0.056742 0.449101 1 46 1.000000
  46 -5.249250 -25.477665 -2.250456 0.328067 0.826297 0.457827 0.068559 0.438043 1 46 1.000000
  46 -5.499487 -25.338318 -2.351474 0.118932 0.919840 0.373831 0.051918 0.419474 1 46 1.000000
pist_usp
  46 -5.249250 -25.477665 -2.250456 0.328067 0.826297 0.457827 0.068559 0.438043 1 46 1.000000
  46 -5.369338 -25.338066 -2.416356 0.227247 0.920297 0.318453 0.059287 0.412578 1 46 1.000000
  46 -5.499487 -25.338318 -2.351474 0.118932 0.919840 0.373831 0.051918 0.419474 1 46 1.000000
pist_usp
  46 -5.369338 -25.338066 -2.416356 0.227247 0.920297 0.318453 0.059287 0.412578 1 46 1.000000
  46 -5.249250 -25.477665 -2.250456 0.328067 0.826297 0.457827 0.068559 0.438043 1 46 1.000000
  46 -5.266736 -25.337677 -2.519413 0.313958 0.920377 0.233103 0.064852 0.400723 1 46 1.000000
pist_usp
  46 -5.369338 -25.338066 -2.416356 0.227247 0.920297 0.318453 0.059287 0.412578 1 46 1.000000
  46 -5.266736 -25.337677 -2.519413 0.313958 0.920377 0.233103 0.064852 0.400723 1 46 1.000000
  46 -5.499487 -25.338318 -2.351474 0.118932 0.919840 0.373831 0.051918 0.419474 1 46 1.000000
pist_usp
  46 -5.266736 -25.337677 -2.519413 0.313958 0.920377 0.233103 0.064852 0.400723 1 46 1.000000
  46 -5.199579 -25.337200 -2.648403 0.369011 0.921031 0.124631 0.068783 0.386499 1 46 1.000000
  46 -5.499487 -25.338318 -2.351474 0.118932 0.919840 0.373831 0.051918 0.419474 1 46 1.000000
pist_usp
  46 -5.199579 -25.337200 -2.648403 0.369011 0.921031 0.124631 0.068783 0.386499 1 46 1.000000
  46 -5.177153 -25.336674 -2.792088 0.388996 0.921228 0.004638 0.069792 0.370382 1 46 1.000000
  46 -5.499487 -25.338318 -2.351474 0.118932 0.919840 0.373831 0.051918 0.419474 1 46 1.000000
pist_usp
  46 -5.199579 -25.337200 -2.648403 0.369011 0.921031 0.124631 0.068783 0.386499 1 46 1.000000
  46 -5.004613 -25.476416 -2.584861 0.532725 0.827341 0.178076 0.083785 0.396226 1 46 1.000000
  46 -5.177153 -25.336674 -2.792088 0.388996 0.921228 0.004638 0.069792 0.370382 1 46 1.000000
pist_usp
  46 -5.004613 -25.476416 -2.584861 0.532725 0.827341 0.178076 0.083785 0.396226 1 46 1.000000
  46 -4.972291 -25.475657 -2.791923 0.561409 0.827524 0.004863 0.085403 0.370382 1 46 1.000000
  46 -5.177153 -25.336674 -2.792088 0.388996 0.921228 0.004638 0.069792 0.370382 1 46 1.000000
pist_usp
  46 -4.972291 -25.475657 -2.791923 0.561409 0.827524 0.004863 0.085403 0.370382 1 46 1.000000
  46 -5.003256 -25.474903 -2.999195 0.533859 0.828605 -0.168547 0.083785 0.344538 1 46 1.000000
  46 -5.177153 -25.336674 -2.792088 0.388996 0.921228 0.004638 0.069792 0.370382 1 46 1.000000
pist_usp
  46 -5.003256 -25.474903 -2.999195 0.533859 0.828605 -0.168547 0.083785 0.344538 1 46 1.000000
  46 -5.198639 -25.336149 -2.935916 0.369826 0.921894 -0.115503 0.068783 0.354264 1 46 1.000000
  46 -5.177153 -25.336674 -2.792088 0.388996 0.921228 0.004638 0.069792 0.370382 1 46 1.000000
pist_usp
  46 -5.198639 -25.336149 -2.935916 0.369826 0.921894 -0.115503 0.068783 0.354264 1 46 1.000000
  46 -5.003256 -25.474903 -2.999195 0.533859 0.828605 -0.168547 0.083785 0.344538 1 46 1.000000
  46 -5.264947 -25.335688 -3.065341 0.315452 0.922043 -0.224335 0.064852 0.340041 1 46 1.000000
pist_usp
  46 -5.198639 -25.336149 -2.935916 0.369826 0.921894 -0.115503 0.068783 0.354264 1 46 1.000000
  46 -5.264947 -25.335688 -3.065341 0.315452 0.922043 -0.224335 0.064852 0.340041 1 46 1.000000
  46 -5.499487 -25.338318 -2.351474 0.118932 0.919840 0.373831 0.051918 0.419474 1 46 1.000000
pist_usp
  46 -5.177153 -25.336674 -2.792088 0.388996 0.921228 0.004638 0.069792 0.370382 1 46 1.000000
  46 -5.198639 -25.336149 -2.935916 0.369826 0.921894 -0.115503 0.068783 0.354264 1 46 1.000000
  46 -5.499487 -25.338318 -2.351474 0.118932 0.919840 0.373831 0.051918 0.419474 1 46 1.000000
pist_usp
  46 -6.084455 -25.337292 -2.651301 -0.370052 0.920937 0.122216 0.019065 0.386499 1 46 1.000000
  46 -6.279805 -25.476551 -2.589038 -0.534057 0.827229 0.174575 0.004063 0.396226 1 46 1.000000
  46 -6.018146 -25.337757 -2.521875 -0.315643 0.920321 0.231040 0.022996 0.400723 1 46 1.000000
pist_usp
  46 -6.279805 -25.476551 -2.589038 -0.534057 0.827229 0.174575 0.004063 0.396226 1 46 1.000000
  46 -6.184247 -25.477219 -2.402521 -0.455447 0.826215 0.331567 0.010367 0.419033 1 46 1.000000
  46 -6.018146 -25.337757 -2.521875 -0.315643 0.920321 0.231040 0.022996 0.400723 1 46 1.000000
pist_usp
  46 -6.184247 -25.477219 -2.402521 -0.455447 0.826215 0.331567 0.010367 0.419033 1 46 1.000000
  46 -6.037364 -25.477749 -2.253038 -0.331237 0.826229 0.455662 0.019289 0.438043 1 46 1.000000
  46 -6.018146 -25.337757 -2.521875 -0.315643 0.920321 0.231040 0.022996 0.400723 1 46 1.000000
pist_usp
  46 -6.037364 -25.477749 -2.253038 -0.331237 0.826229 0.455662 0.019289 0.438043 1 46 1.000000
  46 -5.916222 -25.338123 -2.418147 -0.229505 0.920258 0.316944 0.028560 0.412578 1 46 1.000000
  46 -6.018146 -25.337757 -2.521875 -0.315643 0.920321 0.231040 0.022996 0.400723 1 46 1.000000
pist_usp
  46 -5.916222 -25.338123 -2.418147 -0.229505 0.920258 0.316944 0.028560 0.412578 1 46 1.000000
  46 -6.037364 -25.477749 -2.253038 -0.331237 0.826229 0.455662 0.019289 0.438043 1 46 1.000000
  46 -5.786500 -25.338348 -2.352414 -0.121567 0.919813 0.373050 0.035930 0.419474 1 46 1.000000
pist_usp
  46 -6.037364 -25.477749 -2.253038 -0.331237 0.826229 0.455662 0.019289 0.438043 1 46 1.000000
  46 -5.850422 -25.478071 -2.158311 -0.175362 0.825496 0.536474 0.031106 0.449101 1 46 1.000000
  46 -5.786500 -25.338348 -2.352414 -0.121567 0.919813 0.373050 0.035930 0.419474 1 46 1.000000
pist_usp
  46 -5.850422 -25.478071 -2.158311 -0.175362 0.825496 0.536474 0.031106 0.449101 1 46 1.000000
  46 -5.643725 -25.478176 -2.123710 -0.001932 0.825867 0.563862 0.043924 0.454016 1 46 1.000000
  46 -5.786500 -25.338348 -2.352414 -0.121567 0.919813 0.373050 0.035930 0.419474 1 46 1.000000
pist_usp
  46 -5.003256 -25.474903 -2.999195 0.533859 0.828605 -0.168547 0.083785 0.344538 1 46 1.000000
  46 -5.098815 -25.474236 -3.185711 0.455253 0.828715 -0.325540 0.077481 0.321731 1 46 1.000000
  46 -5.264947 -25.335688 -3.065341 0.315452 0.922043 -0.224335 0.064852 0.340041 1 46 1.000000
pist_usp
  46 -5.098815 -25.474236 -3.185711 0.455253 0.828715 -0.325540 0.077481 0.321731 1 46 1.000000
  46 -5.245697 -25.473707 -3.335195 0.331042 0.829611 -0.449619 0.068559 0.302720 1 46 1.000000
  46 -5.264947 -25.335688 -3.065341 0.315452 0.922043 -0.224335 0.064852 0.340041 1 46 1.000000
pist_usp
  46 -5.245697 -25.473707 -3.335195 0.331042 0.829611 -0.449619 0.068559 0.302720 1 46 1.000000
  46 -5.366873 -25.335320 -3.169071 0.229318 0.922584 -0.310246 0.059287 0.328186 1 46 1.000000
  46 -5.264947 -25.335688 -3.065341 0.315452 0.922043 -0.224335 0.064852 0.340041 1 46 1.000000
pist_usp
  46 -6.278448 -25.475039 -3.003373 -0.532918 0.828494 -0.172038 0.004063 0.344538 1 46 1.000000
  46 -6.310771 -25.475798 -2.796309 -0.561602 0.827407 0.001172 0.002445 0.370382 1 46 1.000000
  46 -6.105941 -25.336771 -2.795130 -0.389234 0.921137 0.002070 0.018056 0.370382 1 46 1.000000
pist_usp
  46 -6.310771 -25.475798 -2.796309 -0.561602 0.827407 0.001172 0.002445 0.370382 1 46 1.000000
  46 -6.279805 -25.476551 -2.589038 -0.534057 0.827229 0.174575 0.004063 0.396226 1 46 1.000000
  46 -6.105941 -25.336771 -2.795130 -0.389234 0.921137 0.002070 0.018056 0.370382 1 46 1.000000
pist_usp
  46 -6.279805 -25.476551 -2.589038 -0.534057 0.827229 0.174575 0.004063 0.396226 1 46 1.000000
  46 -6.084455 -25.337292 -2.651301 -0.370052 0.920937 0.122216 0.019065 0.386499 1 46 1.000000
  46 -6.105941 -25.336771 -2.795130 -0.389234 0.921137 0.002070 0.018056 0.370382 1 46 1.000000
pist_usp
  46 -5.264947 -25.335688 -3.065341 0.315452 0.922043 -0.224335 0.064852 0.340041 1 46 1.000000
  46 -5.366873 -25.335320 -3.169071 0.229318 0.922584 -0.310246 0.059287 0.328186 1 46 1.000000
  46 -5.499487 -25.338318 -2.351474 0.118932 0.919840 0.373831 0.051918 0.419474 1 46 1.000000
pist_usp
  46 -5.366873 -25.335320 -3.169071 0.229318 0.922584 -0.310246 0.059287 0.328186 1 46 1.000000
  46 -5.496594 -25.335096 -3.234803 0.121354 0.922535 -0.366337 0.051918 0.321290 1 46 1.000000
  46 -5.499487 -25.338318 -2.351474 0.118932 0.919840 0.373831 0.051918 0.419474 1 46 1.000000
pist_usp
  46 -5.366873 -25.335320 -3.169071 0.229318 0.922584 -0.310246 0.059287 0.328186 1 46 1.000000
  46 -5.245697 -25.473707 -3.335195 0.331042 0.829611 -0.449619 0.068559 0.302720 1 46 1.000000
  46 -5.496594 -25.335096 -3.234803 0.121354 0.922535 -0.366337 0.051918 0.321290 1 46 1.000000
pist_usp
  46 -5.245697 -25.473707 -3.335195 0.331042 0.829611 -0.449619 0.068559 0.302720 1 46 1.000000
  46 -5.432640 -25.473383 -3.429922 0.175163 0.829431 -0.530436 0.056742 0.291663 1 46 1.000000
  46 -5.496594 -25.335096 -3.234803 0.121354 0.922535 -0.366337 0.051918 0.321290 1 46 1.000000
pist_usp
  46 -5.432640 -25.473383 -3.429922 0.175163 0.829431 -0.530436 0.056742 0.291663 1 46 1.000000
  46 -5.639334 -25.473282 -3.464520 0.001740 0.829963 -0.557816 0.043924 0.286748 1 46 1.000000
  46 -5.496594 -25.335096 -3.234803 0.121354 0.922535 -0.366337 0.051918 0.321290 1 46 1.000000
pist_usp
  46 -5.639334 -25.473282 -3.464520 0.001740 0.829963 -0.557816 0.043924 0.286748 1 46 1.000000
  46 -5.640025 -25.335024 -3.258812 0.001170 0.922844 -0.385173 0.043924 0.318224 1 46 1.000000
  46 -5.496594 -25.335096 -3.234803 0.121354 0.922535 -0.366337 0.051918 0.321290 1 46 1.000000
pist_usp
  46 -5.640025 -25.335024 -3.258812 0.001170 0.922844 -0.385173 0.043924 0.318224 1 46 1.000000
  46 -5.639334 -25.473282 -3.464520 0.001740 0.829963 -0.557816 0.043924 0.286748 1 46 1.000000
  46 -5.783607 -25.335127 -3.235743 -0.119136 0.922529 -0.367080 0.035930 0.321290 1 46 1.000000
pist_usp
  46 -5.640025 -25.335024 -3.258812 0.001170 0.922844 -0.385173 0.043924 0.318224 1 46 1.000000
  46 -5.783607 -25.335127 -3.235743 -0.119136 0.922529 -0.367080 0.035930 0.321290 1 46 1.000000
  46 -5.499487 -25.338318 -2.351474 0.118932 0.919840 0.373831 0.051918 0.419474 1 46 1.000000
pist_usp
  46 -5.783607 -25.335127 -3.235743 -0.119136 0.922529 -0.367080 0.035930 0.321290 1 46 1.000000
  46 -5.913754 -25.335379 -3.170863 -0.227457 0.922550 -0.311712 0.028560 0.328186 1 46 1.000000
  46 -5.499487 -25.338318 -2.351474 0.118932 0.919840 0.373831 0.051918 0.419474 1 46 1.000000
pist_usp
  46 -5.913754 -25.335379 -3.170863 -0.227457 0.922550 -0.311712 0.028560 0.328186 1 46 1.000000
  46 -6.016358 -25.335766 -3.067803 -0.314179 0.921974 -0.226397 0.022996 0.340041 1 46 1.000000
  46 -5.499487 -25.338318 -2.351474 0.118932 0.919840 0.373831 0.051918 0.419474 1 46 1.000000
pist_usp
  46 -5.913754 -25.335379 -3.170863 -0.227457 0.922550 -0.311712 0.028560 0.328186 1 46 1.000000
  46 -6.033811 -25.473791 -3.337777 -0.328265 0.829541 -0.451779 0.019289 0.302720 1 46 1.000000
  46 -6.016358 -25.335766 -3.067803 -0.314179 0.921974 -0.226397 0.022996 0.340041 1 46 1.000000
pist_usp
  46 -6.033811 -25.473791 -3.337777 -0.328265 0.829541 -0.451779 0.019289 0.302720 1 46 1.000000
  46 -6.181667 -25.474350 -3.189259 -0.453288 0.828615 -0.328524 0.010367 0.321731 1 46 1.000000
  46 -6.016358 -25.335766 -3.067803 -0.314179 0.921974 -0.226397 0.022996 0.340041 1 46 1.000000
pist_usp
  46 -6.181667 -25.474350 -3.189259 -0.453288 0.828615 -0.328524 0.010367 0.321731 1 46 1.000000
  46 -6.278448 -25.475039 -3.003373 -0.532918 0.828494 -0.172038 0.004063 0.344538 1 46 1.000000
  46 -6.016358 -25.335766 -3.067803 -0.314179 0.921974 -0.226397 0.022996 0.340041 1 46 1.000000
pist_usp
  46 -6.278448 -25.475039 -3.003373 -0.532918 0.828494 -0.172038 0.004063 0.344538 1 46 1.000000
  46 -6.083512 -25.336245 -2.938815 -0.369218 0.921833 -0.117909 0.019065 0.354264 1 46 1.000000
  46 -6.016358 -25.335766 -3.067803 -0.314179 0.921974 -0.226397 0.022996 0.340041 1 46 1.000000
pist_usp
  46 -6.083512 -25.336245 -2.938815 -0.369218 0.921833 -0.117909 0.019065 0.354264 1 46 1.000000
  46 -6.278448 -25.475039 -3.003373 -0.532918 0.828494 -0.172038 0.004063 0.344538 1 46 1.000000
  46 -6.105941 -25.336771 -2.795130 -0.389234 0.921137 0.002070 0.018056 0.370382 1 46 1.000000
pist_usp
  46 -6.083512 -25.336245 -2.938815 -0.369218 0.921833 -0.117909 0.019065 0.354264 1 46 1.000000
  46 -6.105941 -25.336771 -2.795130 -0.389234 0.921137 0.002070 0.018056 0.370382 1 46 1.000000
  46 -5.499487 -25.338318 -2.351474 0.118932 0.919840 0.373831 0.051918 0.419474 1 46 1.000000
pist_usp
  46 -6.105941 -25.336771 -2.795130 -0.389234 0.921137 0.002070 0.018056 0.370382 1 46 1.000000
  46 -6.084455 -25.337292 -2.651301 -0.370052 0.920937 0.122216 0.019065 0.386499 1 46 1.000000
  46 -5.499487 -25.338318 -2.351474 0.118932 0.919840 0.373831 0.051918 0.419474 1 46 1.000000
pist_usp
  46 -6.084455 -25.337292 -2.651301 -0.370052 0.920937 0.122216 0.019065 0.386499 1 46 1.000000
  46 -6.018146 -25.337757 -2.521875 -0.315643 0.920321 0.231040 0.022996 0.400723 1 46 1.000000
  46 -5.499487 -25.338318 -2.351474 0.118932 0.919840 0.373831 0.051918 0.419474 1 46 1.000000
pist_usp
  46 -5.496594 -25.335096 -3.234803 0.121354 0.922535 -0.366337 0.051918 0.321290 1 46 1.000000
  46 -5.640025 -25.335024 -3.258812 0.001170 0.922844 -0.385173 0.043924 0.318224 1 46 1.000000
  46 -5.499487 -25.338318 -2.351474 0.118932 0.919840 0.373831 0.051918 0.419474 1 46 1.000000
pist_usp
  46 -6.016358 -25.335766 -3.067803 -0.314179 0.921974 -0.226397 0.022996 0.340041 1 46 1.000000
  46 -6.083512 -25.336245 -2.938815 -0.369218 0.921833 -0.117909 0.019065 0.354264 1 46 1.000000
  46 -5.499487 -25.338318 -2.351474 0.118932 0.919840 0.373831 0.051918 0.419474 1 46 1.000000
pist_usp
  46 -5.639334 -25.473282 -3.464520 0.001740 0.829963 -0.557816 0.043924 0.286748 1 46 1.000000
  46 -5.846252 -25.473427 -3.431277 -0.171861 0.829397 -0.531568 0.031106 0.291663 1 46 1.000000
  46 -5.783607 -25.335127 -3.235743 -0.119136 0.922529 -0.367080 0.035930 0.321290 1 46 1.000000
pist_usp
  46 -5.846252 -25.473427 -3.431277 -0.171861 0.829397 -0.531568 0.031106 0.291663 1 46 1.000000
  46 -6.033811 -25.473791 -3.337777 -0.328265 0.829541 -0.451779 0.019289 0.302720 1 46 1.000000
  46 -5.783607 -25.335127 -3.235743 -0.119136 0.922529 -0.367080 0.035930 0.321290 1 46 1.000000
pist_usp
  46 -6.033811 -25.473791 -3.337777 -0.328265 0.829541 -0.451779 0.019289 0.302720 1 46 1.000000
  46 -5.913754 -25.335379 -3.170863 -0.227457 0.922550 -0.311712 0.028560 0.328186 1 46 1.000000
  46 -5.783607 -25.335127 -3.235743 -0.119136 0.922529 -0.367080 0.035930 0.321290 1 46 1.000000
end
