// Created by Crowbar++ 0.74
version 1
nodes
  0 "ValveBiped.Bip01_Spine4" -1
  1 "ValveBiped.Bip01_L_Clavicle" 0
  2 "ValveBiped.Bip01_L_UpperArm" 1
  3 "ValveBiped.Bip01_L_Forearm" 2
  4 "ValveBiped.Bip01_L_Hand" 3
  5 "ValveBiped.Bip01_L_Finger4" 4
  6 "ValveBiped.Bip01_L_Finger41" 5
  7 "ValveBiped.Bip01_L_Finger42" 6
  8 "ValveBiped.Bip01_L_Finger3" 4
  9 "ValveBiped.Bip01_L_Finger31" 8
  10 "ValveBiped.Bip01_L_Finger32" 9
  11 "ValveBiped.Bip01_L_Finger2" 4
  12 "ValveBiped.Bip01_L_Finger21" 11
  13 "ValveBiped.Bip01_L_Finger22" 12
  14 "ValveBiped.Bip01_L_Finger1" 4
  15 "ValveBiped.Bip01_L_Finger11" 14
  16 "ValveBiped.Bip01_L_Finger12" 15
  17 "ValveBiped.Bip01_L_Finger0" 4
  18 "ValveBiped.Bip01_L_Finger01" 17
  19 "ValveBiped.Bip01_L_Finger02" 18
  20 "ValveBiped.Bip01_L_Wrist" 3
  21 "ValveBiped.Bip01_R_Clavicle" 0
  22 "ValveBiped.Bip01_R_UpperArm" 21
  23 "ValveBiped.Bip01_R_Forearm" 22
  24 "ValveBiped.Bip01_R_Hand" 23
  25 "ValveBiped.Bip01_R_Finger4" 24
  26 "ValveBiped.Bip01_R_Finger41" 25
  27 "ValveBiped.Bip01_R_Finger42" 26
  28 "ValveBiped.Bip01_R_Finger3" 24
  29 "ValveBiped.Bip01_R_Finger31" 28
  30 "ValveBiped.Bip01_R_Finger32" 29
  31 "ValveBiped.Bip01_R_Finger2" 24
  32 "ValveBiped.Bip01_R_Finger21" 31
  33 "ValveBiped.Bip01_R_Finger22" 32
  34 "ValveBiped.Bip01_R_Finger1" 24
  35 "ValveBiped.Bip01_R_Finger11" 34
  36 "ValveBiped.Bip01_R_Finger12" 35
  37 "ValveBiped.Bip01_R_Finger0" 24
  38 "ValveBiped.Bip01_R_Finger01" 37
  39 "ValveBiped.Bip01_R_Finger02" 38
  40 "ValveBiped.Bip01_R_Wrist" 23
  41 "gun" -1
  42 "magazine" 41
  43 "dustcover" 41
  44 "charging_handle" 41
  45 "trigger" 41
  46 "silencer" 41
end
skeleton
  time 0
    0 0.000000 -0.000006 0.000000 -1.570781 -1.391896 -1.570809
    1 -3.009766 -2.945313 2.609375 1.596635 -1.286515 2.942963
    2 6.028147 0.000003 0.000002 -0.573129 -0.998666 -1.704401
    3 11.692556 0.000081 -0.000006 -0.153397 0.000036 -0.994907
    4 11.481674 -0.000089 -0.000022 0.160928 -0.046572 0.419431
    5 3.859705 -0.142417 -1.191975 -0.477999 0.113233 -1.228005
    6 1.312565 -0.000011 0.000004 -0.037884 0.056798 -1.223491
    7 0.729360 -0.000008 0.000002 -0.005226 -0.129647 0.165069
    8 3.942331 0.046755 -0.431444 -0.100481 0.144455 -0.584912
    9 1.539097 0.000006 -0.000008 0.049527 -0.034495 -1.481132
    10 1.196322 -0.000004 0.000001 -0.009491 -0.076744 0.042838
    11 3.883692 -0.046782 0.431443 0.141842 0.050862 -0.178419
    12 1.719585 -0.000013 0.000009 0.010334 0.021561 -1.670604
    13 1.209181 -0.000006 0.000003 -0.098290 0.044332 0.316829
    14 3.859858 -0.137960 1.332466 0.384384 0.076129 -0.164406
    15 1.719435 0.000004 -0.000006 0.027427 -0.033383 -1.189108
    16 1.099678 -0.000004 0.000004 0.017136 0.052896 0.053523
    17 1.075195 -0.833008 1.068359 -0.969077 -0.400593 -0.646081
    18 1.789782 0.000000 -0.000008 0.216201 -0.435145 0.267905
    19 1.207001 0.000000 0.000000 0.073844 0.039777 0.162601
    20 11.481707 -0.000013 0.000004 -0.450872 -0.206233 0.102455
    21 -2.226563 -6.984375 -1.271484 -1.668474 1.286518 2.942953
    22 6.028141 0.000000 -0.000002 1.278375 0.301107 -0.986688
    23 11.692554 0.000000 -0.000001 -0.000002 0.000000 -2.057864
    24 11.481699 -0.000001 -0.000003 -1.210977 0.422163 0.860966
    25 3.859676 -0.132547 1.193110 0.486960 -0.004825 -1.640512
    26 1.312557 -0.000004 0.000002 0.023121 -0.079097 -0.999117
    27 0.729369 -0.000004 -0.000004 -0.050568 -0.075766 -0.456753
    28 3.942295 0.050344 0.431044 0.151871 0.026072 -1.235587
    29 1.539103 0.000002 0.000001 -0.040124 0.031255 -1.488553
    30 1.196321 -0.000006 -0.000002 0.094913 0.052639 -0.595789
    31 3.883667 -0.050304 -0.431042 -0.011530 0.077381 -1.001391
    32 1.719584 0.000000 0.000006 -0.009214 0.064834 -1.748291
    33 1.209183 0.000002 0.000006 0.148588 0.074425 -0.486641
    34 3.859837 -0.148919 -1.331282 -0.331688 0.064497 -0.424660
    35 1.676463 0.406266 -0.085931 -0.260557 0.302975 -1.466688
    36 1.099667 0.000004 0.000008 -0.305903 0.171207 -0.680018
    37 0.806026 -0.359833 -1.318335 0.996925 0.204592 -0.611633
    38 1.789785 -0.000006 -0.000006 0.313376 -0.197183 0.283373
    39 1.207001 -0.000005 -0.000010 0.003813 0.090465 0.554983
    40 11.481705 0.000084 0.000008 0.041504 0.085197 0.143670
    41 -3.772382 -9.356869 -4.231907 1.570796 0.000000 -0.000060
    42 0.000000 -4.325217 2.197774 0.000000 0.000000 0.000000
    43 0.759740 0.264293 2.354383 -1.578590 0.000000 0.000000
    44 -0.023242 0.746336 -3.528393 0.000000 0.000000 0.000000
    45 0.000000 -2.447836 -0.914246 0.124640 0.003559 -0.001163
    46 0.246049 -5.703599 -24.367022 -1.578590 0.000000 0.000000
  time 1
    0 0.000000 -0.000006 0.000000 -1.570781 -1.391896 -1.570809
    1 -3.009766 -2.945313 2.609375 1.596635 -1.286515 2.942963
    2 6.028147 0.000003 0.000002 -0.588058 -0.971713 -1.693951
    3 11.692556 0.000081 -0.000006 -0.153397 0.000036 -1.024550
    4 11.481674 -0.000089 -0.000022 0.126906 -0.057311 0.419892
    5 3.859705 -0.142417 -1.191975 -0.477999 0.113233 -1.228005
    6 1.312565 -0.000011 0.000004 -0.037884 0.056798 -1.223491
    7 0.729360 -0.000008 0.000002 -0.005226 -0.129647 0.165069
    8 3.942331 0.046755 -0.431444 -0.100481 0.144455 -0.584912
    9 1.539097 0.000006 -0.000008 0.049527 -0.034495 -1.481132
    10 1.196322 -0.000004 0.000001 -0.009491 -0.076744 0.042838
    11 3.883692 -0.046782 0.431443 0.141842 0.050862 -0.178419
    12 1.719585 -0.000013 0.000009 0.010334 0.021561 -1.670560
    13 1.209181 -0.000006 0.000003 -0.098290 0.044332 0.316829
    14 3.859858 -0.137960 1.332466 0.384384 0.076129 -0.164406
    15 1.719435 0.000004 -0.000006 0.027427 -0.033383 -1.189108
    16 1.099678 -0.000004 0.000004 0.017136 0.052896 0.053523
    17 1.075195 -0.833008 1.068359 -0.969077 -0.400593 -0.646081
    18 1.789782 0.000000 -0.000008 0.216201 -0.435145 0.267905
    19 1.207001 0.000000 0.000000 0.073844 0.039777 0.162601
    20 11.481707 -0.000013 0.000004 -0.456894 -0.209864 0.101365
    21 -2.226563 -6.984375 -1.271484 -1.668474 1.286518 2.942953
    22 6.028141 0.000000 -0.000002 1.285254 0.287065 -0.979222
    23 11.692554 0.000000 -0.000001 -0.000002 0.000000 -2.095400
    24 11.481699 -0.000001 -0.000003 -1.250446 0.418568 0.901382
    25 3.859676 -0.132547 1.193110 0.486960 -0.004825 -1.640512
    26 1.312557 -0.000004 0.000002 0.023121 -0.079097 -0.999117
    27 0.729369 -0.000004 -0.000004 -0.050568 -0.075766 -0.456753
    28 3.942295 0.050344 0.431044 0.151871 0.026072 -1.235587
    29 1.539103 0.000002 0.000001 -0.040124 0.031255 -1.488553
    30 1.196321 -0.000006 -0.000002 0.094913 0.052639 -0.595789
    31 3.883667 -0.050304 -0.431042 -0.011530 0.077381 -1.001391
    32 1.719584 0.000000 0.000006 -0.009214 0.064834 -1.748291
    33 1.209183 0.000002 0.000006 0.148588 0.074425 -0.486641
    34 3.859837 -0.148919 -1.331282 -0.331688 0.064497 -0.424660
    35 1.676463 0.406266 -0.085931 -0.260557 0.302975 -1.466688
    36 1.099667 0.000004 0.000008 -0.305903 0.171207 -0.680018
    37 0.806026 -0.359833 -1.318335 0.996925 0.204592 -0.611633
    38 1.789785 -0.000006 -0.000006 0.313376 -0.197183 0.283373
    39 1.207001 -0.000005 -0.000010 0.003813 0.090465 0.554983
    40 11.481705 0.000084 0.000008 0.033342 0.082525 0.153773
    41 -3.772382 -9.114674 -4.212375 1.591073 0.046088 -0.004308
    42 0.000000 -4.325217 2.197774 0.000000 0.000000 0.000000
    43 0.759740 0.264293 2.354383 -1.564209 -0.004147 -2.579053
    44 -0.023242 0.746336 -3.528393 0.000000 0.000000 0.000000
    45 0.000000 -2.447836 -0.914246 0.124640 0.003559 -0.001163
    46 0.246049 -5.703599 -24.367022 -1.578590 0.000000 0.000000
  time 2
    0 0.000000 -0.000006 0.000000 -1.570781 -1.391896 -1.570809
    1 -3.009766 -2.945313 2.609375 1.596635 -1.286515 2.942963
    2 6.028147 0.000003 0.000002 -0.638027 -0.913265 -1.642772
    3 11.692556 0.000081 -0.000006 -0.153397 0.000036 -1.160652
    4 11.481674 -0.000089 -0.000022 0.128997 -0.099088 0.483867
    5 3.859705 -0.142417 -1.191975 -0.477999 0.113233 -1.228005
    6 1.312565 -0.000011 0.000004 -0.037884 0.056798 -1.223491
    7 0.729360 -0.000008 0.000002 -0.005226 -0.129647 0.165069
    8 3.942331 0.046755 -0.431444 -0.100481 0.144455 -0.584912
    9 1.539097 0.000006 -0.000008 0.049527 -0.034495 -1.481132
    10 1.196322 -0.000004 0.000001 -0.009479 -0.076744 0.042838
    11 3.883692 -0.046782 0.431443 0.141842 0.050862 -0.178419
    12 1.719585 -0.000013 0.000009 0.010334 0.021561 -1.670604
    13 1.209181 -0.000006 0.000003 -0.098290 0.044332 0.316829
    14 3.859858 -0.137960 1.332466 0.384384 0.076129 -0.164406
    15 1.719435 0.000004 -0.000006 0.027427 -0.033383 -1.189108
    16 1.099678 -0.000004 0.000004 0.017136 0.052896 0.053523
    17 1.075195 -0.833008 1.068359 -0.969077 -0.400593 -0.646081
    18 1.789782 0.000000 -0.000008 0.216201 -0.435145 0.267905
    19 1.207001 0.000000 0.000000 0.073844 0.039777 0.162601
    20 11.481707 -0.000013 0.000004 -0.453774 -0.223563 0.108879
    21 -2.226563 -6.984375 -1.271484 -1.668474 1.286518 2.942953
    22 6.028141 0.000000 -0.000002 1.276546 0.227438 -0.967767
    23 11.692554 0.000000 -0.000001 -0.000002 0.000000 -2.183248
    24 11.481699 -0.000001 -0.000003 -1.278883 0.427335 0.920403
    25 3.859676 -0.132547 1.193110 0.486960 -0.004825 -1.640512
    26 1.312557 -0.000004 0.000002 0.023121 -0.079097 -0.999117
    27 0.729369 -0.000004 -0.000004 -0.050568 -0.075766 -0.456753
    28 3.942295 0.050344 0.431044 0.151871 0.026072 -1.235587
    29 1.539103 0.000002 0.000001 -0.040124 0.031255 -1.488553
    30 1.196321 -0.000006 -0.000002 0.094913 0.052639 -0.595789
    31 3.883667 -0.050304 -0.431042 -0.011530 0.077381 -1.001391
    32 1.719584 0.000000 0.000006 -0.009214 0.064834 -1.748291
    33 1.209183 0.000002 0.000006 0.148588 0.074425 -0.486641
    34 3.859837 -0.148919 -1.331282 -0.331688 0.064497 -0.424660
    35 1.676463 0.406266 -0.085931 -0.260557 0.302975 -1.466688
    36 1.099667 0.000004 0.000008 -0.305903 0.171207 -0.680018
    37 0.806026 -0.359833 -1.318335 0.996925 0.204592 -0.611633
    38 1.789785 -0.000006 -0.000006 0.313376 -0.197183 0.283373
    39 1.207001 -0.000005 -0.000010 0.003813 0.090465 0.554983
    40 11.481705 0.000084 0.000008 0.026823 0.082381 0.158627
    41 -3.772382 -8.192771 -4.099090 1.589558 0.068816 0.004256
    42 0.000000 -4.325217 2.197774 0.000000 0.000000 0.000000
    43 0.759740 0.264293 2.354383 -1.564065 -0.003919 -2.613786
    44 -0.023242 0.746336 -3.528393 0.000000 0.000000 0.000000
    45 0.000000 -2.447836 -0.914246 0.124640 0.003559 -0.001163
    46 0.246049 -5.703599 -24.367022 -1.578590 0.000000 0.000000
  time 3
    0 0.000000 -0.000006 0.000000 -1.570781 -1.391896 -1.570809
    1 -3.009766 -2.945313 2.609375 1.596635 -1.286515 2.942963
    2 6.028147 0.000003 0.000002 -0.634907 -0.926131 -1.643366
    3 11.692556 0.000081 -0.000006 -0.153397 0.000036 -1.162292
    4 11.481674 -0.000089 -0.000022 0.149714 -0.086020 0.511556
    5 3.859705 -0.142417 -1.191975 -0.477999 0.113233 -1.228005
    6 1.312565 -0.000011 0.000004 -0.037884 0.056798 -1.223491
    7 0.729360 -0.000008 0.000002 -0.005226 -0.129647 0.165069
    8 3.942331 0.046755 -0.431444 -0.100481 0.144455 -0.584912
    9 1.539097 0.000006 -0.000008 0.049527 -0.034495 -1.481132
    10 1.196322 -0.000004 0.000001 -0.009491 -0.076744 0.042838
    11 3.883692 -0.046782 0.431443 0.141842 0.050862 -0.178419
    12 1.719585 -0.000013 0.000009 0.010334 0.021561 -1.670560
    13 1.209181 -0.000006 0.000003 -0.098290 0.044332 0.316829
    14 3.859858 -0.137960 1.332466 0.384384 0.076129 -0.164406
    15 1.719435 0.000004 -0.000006 0.027427 -0.033383 -1.189108
    16 1.099678 -0.000004 0.000004 0.017136 0.052896 0.053523
    17 1.075195 -0.833008 1.068359 -0.969077 -0.400593 -0.646081
    18 1.789782 0.000000 -0.000008 0.216201 -0.435145 0.267905
    19 1.207001 0.000000 0.000000 0.073844 0.039777 0.162601
    20 11.481707 -0.000013 0.000004 -0.450586 -0.222832 0.115614
    21 -2.226563 -6.984375 -1.271484 -1.668474 1.286518 2.942953
    22 6.028141 0.000000 -0.000002 1.268399 0.238244 -0.974862
    23 11.692554 0.000000 -0.000001 -0.000002 0.000000 -2.181610
    24 11.481699 -0.000001 -0.000003 -1.242061 0.433252 0.935049
    25 3.859676 -0.132547 1.193110 0.486960 -0.004825 -1.640512
    26 1.312557 -0.000004 0.000002 0.023121 -0.079097 -0.999117
    27 0.729369 -0.000004 -0.000004 -0.050568 -0.075766 -0.456753
    28 3.942295 0.050344 0.431044 0.151871 0.026072 -1.235587
    29 1.539103 0.000002 0.000001 -0.040124 0.031255 -1.488553
    30 1.196321 -0.000006 -0.000002 0.094913 0.052639 -0.595789
    31 3.883667 -0.050304 -0.431042 -0.011530 0.077381 -1.001391
    32 1.719584 0.000000 0.000006 -0.009214 0.064834 -1.748291
    33 1.209183 0.000002 0.000006 0.148588 0.074425 -0.486641
    34 3.859837 -0.148919 -1.331282 -0.331688 0.064497 -0.424660
    35 1.676463 0.406266 -0.085931 -0.260557 0.302975 -1.466688
    36 1.099667 0.000004 0.000008 -0.305903 0.171207 -0.680018
    37 0.806026 -0.359833 -1.318335 0.996925 0.204592 -0.611633
    38 1.789785 -0.000006 -0.000006 0.313376 -0.197183 0.283373
    39 1.207001 -0.000005 -0.000010 0.003813 0.090465 0.554983
    40 11.481705 0.000084 0.000008 0.032491 0.086480 0.159322
    41 -3.772382 -8.220115 -3.977993 1.589074 0.032445 0.000845
    42 0.000000 -4.325217 2.197774 0.000000 0.000000 0.000000
    43 0.759740 0.264293 2.354383 -1.564017 -0.003835 -2.626620
    44 -0.023242 0.746336 -3.528393 0.000000 0.000000 0.000000
    45 0.000000 -2.447836 -0.914246 0.124640 0.003559 -0.001163
    46 0.246049 -5.703599 -24.367022 -1.578590 0.000000 0.000000
  time 4
    0 0.000000 -0.000006 0.000000 -1.570781 -1.391896 -1.570809
    1 -3.009766 -2.945313 2.609375 1.596635 -1.286515 2.942963
    2 6.028147 0.000003 0.000002 -0.628668 -0.940790 -1.647819
    3 11.692556 0.000081 -0.000006 -0.153397 0.000036 -1.152012
    4 11.481674 -0.000089 -0.000022 0.173979 -0.068147 0.531107
    5 3.859705 -0.142417 -1.191975 -0.477999 0.113233 -1.228005
    6 1.312565 -0.000011 0.000004 -0.037884 0.056798 -1.223491
    7 0.729360 -0.000008 0.000002 -0.005226 -0.129647 0.165069
    8 3.942331 0.046755 -0.431444 -0.100481 0.144455 -0.584912
    9 1.539097 0.000006 -0.000008 0.049527 -0.034495 -1.481132
    10 1.196322 -0.000004 0.000001 -0.009491 -0.076744 0.042838
    11 3.883692 -0.046782 0.431443 0.141842 0.050862 -0.178419
    12 1.719585 -0.000013 0.000009 0.010334 0.021561 -1.670604
    13 1.209181 -0.000006 0.000003 -0.098290 0.044332 0.316829
    14 3.859858 -0.137960 1.332466 0.384384 0.076129 -0.164406
    15 1.719435 0.000004 -0.000006 0.027427 -0.033383 -1.189108
    16 1.099678 -0.000004 0.000004 0.017136 0.052896 0.053523
    17 1.075195 -0.833008 1.068359 -0.969077 -0.400593 -0.646081
    18 1.789782 0.000000 -0.000008 0.216201 -0.435145 0.267905
    19 1.207001 0.000000 0.000000 0.073844 0.039777 0.162601
    20 11.481707 -0.000013 0.000004 -0.447114 -0.220207 0.121319
    21 -2.226563 -6.984375 -1.271484 -1.668474 1.286518 2.942953
    22 6.028141 0.000000 -0.000002 1.257487 0.250203 -0.983870
    23 11.692554 0.000000 -0.000001 -0.000002 0.000000 -2.171391
    24 11.481699 -0.000001 -0.000003 -1.201323 0.444057 0.944689
    25 3.859676 -0.132547 1.193110 0.486960 -0.004825 -1.640512
    26 1.312557 -0.000004 0.000002 0.023121 -0.079097 -0.999117
    27 0.729369 -0.000004 -0.000004 -0.050568 -0.075766 -0.456753
    28 3.942295 0.050344 0.431044 0.151871 0.026072 -1.235587
    29 1.539103 0.000002 0.000001 -0.040124 0.031255 -1.488553
    30 1.196321 -0.000006 -0.000002 0.094913 0.052639 -0.595789
    31 3.883667 -0.050304 -0.431042 -0.011530 0.077381 -1.001391
    32 1.719584 0.000000 0.000006 -0.009214 0.064834 -1.748291
    33 1.209183 0.000002 0.000006 0.148588 0.074425 -0.486641
    34 3.859837 -0.148919 -1.331282 -0.331688 0.064497 -0.424660
    35 1.676463 0.406266 -0.085931 -0.260557 0.302975 -1.466688
    36 1.099667 0.000004 0.000008 -0.305903 0.171207 -0.680018
    37 0.806026 -0.359833 -1.318335 0.996925 0.204592 -0.611633
    38 1.789785 -0.000006 -0.000006 0.313376 -0.197183 0.283373
    39 1.207001 -0.000005 -0.000010 0.003813 0.090465 0.554983
    40 11.481705 0.000084 0.000008 0.038532 0.091693 0.158531
    41 -3.772382 -8.313868 -3.923304 1.589010 -0.007121 -0.005979
    42 0.000000 -4.325217 2.197774 0.000000 0.000000 0.000000
    43 0.759740 0.264293 2.354383 -1.564017 -0.003823 -2.628465
    44 -0.023242 0.746336 -3.528393 0.000000 0.000000 0.000000
    45 0.000000 -2.447836 -0.914246 0.124640 0.003559 -0.001163
    46 0.246049 -5.703599 -24.367022 -1.578590 0.000000 0.000000
  time 5
    0 0.000000 -0.000006 0.000000 -1.570781 -1.391896 -1.570809
    1 -3.009766 -2.945313 2.609375 1.596635 -1.286515 2.942963
    2 6.028147 0.000003 0.000002 -0.618418 -0.950792 -1.658981
    3 11.692556 0.000081 -0.000006 -0.153397 0.000036 -1.126279
    4 11.481674 -0.000089 -0.000022 0.175056 -0.057482 0.517237
    5 3.859705 -0.142417 -1.191975 -0.477999 0.113233 -1.228005
    6 1.312565 -0.000011 0.000004 -0.037884 0.056798 -1.223491
    7 0.729360 -0.000008 0.000002 -0.005226 -0.129647 0.165069
    8 3.942331 0.046755 -0.431444 -0.100481 0.144455 -0.584912
    9 1.539097 0.000006 -0.000008 0.049527 -0.034495 -1.481132
    10 1.196322 -0.000004 0.000001 -0.009479 -0.076744 0.042838
    11 3.883692 -0.046782 0.431443 0.141842 0.050862 -0.178419
    12 1.719585 -0.000013 0.000009 0.010334 0.021561 -1.670604
    13 1.209181 -0.000006 0.000003 -0.098290 0.044332 0.316829
    14 3.859858 -0.137960 1.332466 0.384384 0.076129 -0.164406
    15 1.719435 0.000004 -0.000006 0.027427 -0.033383 -1.189108
    16 1.099678 -0.000004 0.000004 0.017136 0.052896 0.053523
    17 1.075195 -0.833008 1.068359 -0.969077 -0.400593 -0.646081
    18 1.789782 0.000000 -0.000008 0.216201 -0.435145 0.267905
    19 1.207001 0.000000 0.000000 0.073844 0.039777 0.162601
    20 11.481707 -0.000013 0.000004 -0.447651 -0.216911 0.119821
    21 -2.226563 -6.984375 -1.271484 -1.668474 1.286518 2.942953
    22 6.028141 0.000000 -0.000002 1.256947 0.260441 -0.987140
    23 11.692554 0.000000 -0.000001 -0.000002 0.000000 -2.156062
    24 11.481699 -0.000001 -0.000003 -1.195834 0.448484 0.942947
    25 3.859676 -0.132547 1.193110 0.486960 -0.004825 -1.640512
    26 1.312557 -0.000004 0.000002 0.023121 -0.079097 -0.999134
    27 0.729369 -0.000004 -0.000004 -0.050568 -0.075766 -0.456753
    28 3.942295 0.050344 0.431044 0.151871 0.026072 -1.235587
    29 1.539103 0.000002 0.000001 -0.040124 0.031255 -1.488553
    30 1.196321 -0.000006 -0.000002 0.094913 0.052639 -0.595789
    31 3.883667 -0.050304 -0.431042 -0.011530 0.077381 -1.001391
    32 1.719584 0.000000 0.000006 -0.009214 0.064834 -1.748333
    33 1.209183 0.000002 0.000006 0.148588 0.074425 -0.486641
    34 3.859837 -0.148919 -1.331282 -0.331688 0.064497 -0.424660
    35 1.676463 0.406266 -0.085931 -0.260557 0.302975 -1.466688
    36 1.099667 0.000004 0.000008 -0.305903 0.171207 -0.680018
    37 0.806026 -0.359833 -1.318335 0.996925 0.204592 -0.611633
    38 1.789785 -0.000006 -0.000006 0.313376 -0.197183 0.283373
    39 1.207001 -0.000005 -0.000010 0.003813 0.090465 0.554983
    40 11.481705 0.000084 0.000008 0.039179 0.092879 0.157680
    41 -3.772382 -8.470123 -3.950648 1.588913 -0.010848 -0.011688
    42 0.000000 -4.325217 2.197774 0.000000 0.000000 0.000000
    43 0.759740 0.264293 2.354383 -1.564209 -0.004147 -2.579053
    44 -0.023242 0.746336 -3.528393 0.000000 0.000000 0.000000
    45 0.000000 -2.447836 -0.914246 0.124640 0.003559 -0.001163
    46 0.246049 -5.703599 -24.367022 -1.578590 0.000000 0.000000
  time 6
    0 0.000000 -0.000006 0.000000 -1.570781 -1.391896 -1.570809
    1 -3.009766 -2.945313 2.609375 1.596635 -1.286515 2.942963
    2 6.028147 0.000003 0.000002 -0.608558 -0.960527 -1.669490
    3 11.692556 0.000081 -0.000006 -0.153397 0.000036 -1.098151
    4 11.481674 -0.000089 -0.000022 0.173599 -0.049906 0.499324
    5 3.859705 -0.142417 -1.191975 -0.477999 0.113233 -1.228005
    6 1.312565 -0.000011 0.000004 -0.037884 0.056798 -1.223491
    7 0.729360 -0.000008 0.000002 -0.005226 -0.129647 0.165069
    8 3.942331 0.046755 -0.431444 -0.100481 0.144455 -0.584912
    9 1.539097 0.000006 -0.000008 0.049527 -0.034495 -1.481132
    10 1.196322 -0.000004 0.000001 -0.009479 -0.076744 0.042838
    11 3.883692 -0.046782 0.431443 0.141842 0.050862 -0.178419
    12 1.719585 -0.000013 0.000009 0.010334 0.021561 -1.670560
    13 1.209181 -0.000006 0.000003 -0.098290 0.044332 0.316829
    14 3.859858 -0.137960 1.332466 0.384384 0.076129 -0.164406
    15 1.719435 0.000004 -0.000006 0.027427 -0.033383 -1.189108
    16 1.099678 -0.000004 0.000004 0.017136 0.052896 0.053523
    17 1.075195 -0.833008 1.068359 -0.969077 -0.400593 -0.646081
    18 1.789782 0.000000 -0.000008 0.216201 -0.435145 0.267905
    19 1.207001 0.000000 0.000000 0.073844 0.039777 0.162601
    20 11.481707 -0.000013 0.000004 -0.448406 -0.213915 0.117220
    21 -2.226563 -6.984375 -1.271484 -1.668474 1.286518 2.942953
    22 6.028141 0.000000 -0.000002 1.258901 0.270072 -0.988868
    23 11.692554 0.000000 -0.000001 -0.000002 0.000000 -2.137719
    24 11.481699 -0.000001 -0.000003 -1.194290 0.448068 0.935197
    25 3.859676 -0.132547 1.193110 0.486960 -0.004825 -1.640512
    26 1.312557 -0.000004 0.000002 0.023121 -0.079097 -0.999117
    27 0.729369 -0.000004 -0.000004 -0.050568 -0.075766 -0.456753
    28 3.942295 0.050344 0.431044 0.151871 0.026072 -1.235587
    29 1.539103 0.000002 0.000001 -0.040124 0.031255 -1.488553
    30 1.196321 -0.000006 -0.000002 0.094913 0.052639 -0.595789
    31 3.883667 -0.050304 -0.431042 -0.011530 0.077381 -1.001391
    32 1.719584 0.000000 0.000006 -0.009214 0.064834 -1.748291
    33 1.209183 0.000002 0.000006 0.148588 0.074425 -0.486641
    34 3.859837 -0.148919 -1.331282 -0.331976 0.063862 -0.417771
    35 1.676463 0.398453 -0.082024 -0.255219 0.302183 -1.452346
    36 1.099667 0.000004 0.000008 -0.303889 0.169265 -0.673319
    37 0.806026 -0.359833 -1.318335 0.996925 0.204592 -0.611633
    38 1.789785 -0.000006 -0.000006 0.313376 -0.197183 0.283373
    39 1.207001 -0.000005 -0.000010 0.003813 0.090465 0.554983
    40 11.481705 0.000084 0.000008 0.039766 0.092748 0.156110
    41 -3.772382 -8.653722 -4.001431 1.588462 -0.011347 -0.014125
    42 0.000000 -4.325217 2.197774 0.000000 0.000000 0.000000
    43 0.759740 0.264293 2.354383 -1.568199 -0.007347 -1.911509
    44 -0.023242 0.746336 -3.528393 0.000000 0.000000 0.000000
    45 0.000000 -2.447836 -0.910340 0.121152 0.003452 -0.001139
    46 0.246049 -5.703599 -24.367022 -1.578590 0.000000 0.000000
  time 7
    0 0.000000 -0.000006 0.000000 -1.570781 -1.391896 -1.570809
    1 -3.009766 -2.945313 2.609375 1.596635 -1.286515 2.942963
    2 6.028147 0.000003 0.000002 -0.600481 -0.969117 -1.677802
    3 11.692556 0.000081 -0.000006 -0.153397 0.000036 -1.074059
    4 11.481674 -0.000089 -0.000022 0.171571 -0.045591 0.483432
    5 3.859705 -0.142417 -1.191975 -0.477999 0.113233 -1.228005
    6 1.312565 -0.000011 0.000004 -0.037884 0.056798 -1.223491
    7 0.729360 -0.000008 0.000002 -0.005226 -0.129647 0.165069
    8 3.942331 0.046755 -0.431444 -0.100481 0.144455 -0.584912
    9 1.539097 0.000006 -0.000008 0.049527 -0.034495 -1.481132
    10 1.196322 -0.000004 0.000001 -0.009479 -0.076744 0.042838
    11 3.883692 -0.046782 0.431443 0.141842 0.050862 -0.178419
    12 1.719585 -0.000013 0.000009 0.010334 0.021561 -1.670560
    13 1.209181 -0.000006 0.000003 -0.098290 0.044332 0.316829
    14 3.859858 -0.137960 1.332466 0.384384 0.076129 -0.164406
    15 1.719435 0.000004 -0.000006 0.027427 -0.033383 -1.189108
    16 1.099678 -0.000004 0.000004 0.017136 0.052896 0.053523
    17 1.075195 -0.833008 1.068359 -0.969077 -0.400593 -0.646081
    18 1.789782 0.000000 -0.000008 0.216201 -0.435145 0.267905
    19 1.207001 0.000000 0.000000 0.073844 0.039777 0.162601
    20 11.481707 -0.000013 0.000004 -0.449043 -0.211710 0.114668
    21 -2.226563 -6.984375 -1.271484 -1.668474 1.286518 2.942953
    22 6.028141 0.000000 -0.000002 1.261893 0.278418 -0.989628
    23 11.692554 0.000000 -0.000001 -0.000002 0.000000 -2.120752
    24 11.481699 -0.000001 -0.000003 -1.194345 0.444605 0.925334
    25 3.859676 -0.132547 1.193110 0.486960 -0.004825 -1.640512
    26 1.312557 -0.000004 0.000002 0.023121 -0.079097 -0.999117
    27 0.729369 -0.000004 -0.000004 -0.050568 -0.075766 -0.456753
    28 3.942295 0.050344 0.431044 0.151871 0.026072 -1.235587
    29 1.539103 0.000002 0.000001 -0.040124 0.031255 -1.488553
    30 1.196321 -0.000006 -0.000002 0.094913 0.052639 -0.595789
    31 3.883667 -0.050304 -0.431042 -0.011530 0.077381 -1.001391
    32 1.719584 0.000000 0.000006 -0.009214 0.064834 -1.748291
    33 1.209183 0.000002 0.000006 0.148588 0.074425 -0.486641
    34 3.859837 -0.148919 -1.331282 -0.332839 0.061941 -0.397043
    35 1.680369 0.371109 -0.078118 -0.239203 0.299358 -1.408955
    36 1.099667 0.000004 0.000008 -0.297909 0.163345 -0.653187
    37 0.806026 -0.359833 -1.318335 0.996925 0.204592 -0.611633
    38 1.789785 -0.000006 -0.000006 0.313376 -0.197183 0.283373
    39 1.207001 -0.000005 -0.000010 0.003813 0.090465 0.554983
    40 11.481705 0.000084 0.000008 0.040413 0.091897 0.154349
    41 -3.772382 -8.813884 -4.048308 1.587333 -0.011114 -0.013777
    42 0.000000 -4.325217 2.197774 0.000000 0.000000 0.000000
    43 0.759740 0.264293 2.354383 -1.577344 -0.004231 -0.574335
    44 -0.023242 0.746336 -3.528393 0.000000 0.000000 0.000000
    45 0.000000 -2.451743 -0.898621 0.111684 0.003176 -0.001067
    46 0.246049 -5.703599 -24.367022 -1.578590 0.000000 0.000000
  time 8
    0 0.000000 -0.000006 0.000000 -1.570781 -1.391896 -1.570809
    1 -3.009766 -2.945313 2.609375 1.596635 -1.286515 2.942963
    2 6.028147 0.000003 0.000002 -0.593183 -0.976561 -1.685164
    3 11.692556 0.000081 -0.000006 -0.153397 0.000036 -1.053624
    4 11.481674 -0.000089 -0.000022 0.169671 -0.042674 0.469511
    5 3.859705 -0.142417 -1.191975 -0.477999 0.113233 -1.228005
    6 1.312565 -0.000011 0.000004 -0.037884 0.056798 -1.223491
    7 0.729360 -0.000008 0.000002 -0.005226 -0.129647 0.165069
    8 3.942331 0.046755 -0.431444 -0.100481 0.144455 -0.584912
    9 1.539097 0.000006 -0.000008 0.049527 -0.034495 -1.481132
    10 1.196322 -0.000004 0.000001 -0.009479 -0.076744 0.042838
    11 3.883692 -0.046782 0.431443 0.141842 0.050862 -0.178419
    12 1.719585 -0.000013 0.000009 0.010334 0.021561 -1.670604
    13 1.209181 -0.000006 0.000003 -0.098290 0.044332 0.316829
    14 3.859858 -0.137960 1.332466 0.384384 0.076129 -0.164406
    15 1.719435 0.000004 -0.000006 0.027427 -0.033383 -1.189108
    16 1.099678 -0.000004 0.000004 0.017136 0.052896 0.053523
    17 1.075195 -0.833008 1.068359 -0.969077 -0.400593 -0.646081
    18 1.789782 0.000000 -0.000008 0.216201 -0.435145 0.267905
    19 1.207001 0.000000 0.000000 0.073844 0.039777 0.162601
    20 11.481707 -0.000013 0.000004 -0.449563 -0.209948 0.112331
    21 -2.226563 -6.984375 -1.271484 -1.668474 1.286518 2.942953
    22 6.028141 0.000000 -0.000002 1.264761 0.285116 -0.989937
    23 11.692554 0.000000 -0.000001 -0.000002 0.000000 -2.106340
    24 11.481699 -0.000001 -0.000003 -1.195255 0.441186 0.915509
    25 3.859676 -0.132547 1.193110 0.486960 -0.004825 -1.640512
    26 1.312557 -0.000004 0.000002 0.023121 -0.079097 -0.999117
    27 0.729369 -0.000004 -0.000004 -0.050568 -0.075766 -0.456753
    28 3.942295 0.050344 0.431044 0.151871 0.026072 -1.235587
    29 1.539103 0.000002 0.000001 -0.040124 0.031255 -1.488553
    30 1.196321 -0.000006 -0.000002 0.094913 0.052639 -0.595789
    31 3.883667 -0.050304 -0.431042 -0.011530 0.077381 -1.001391
    32 1.719584 0.000000 0.000006 -0.009214 0.064834 -1.748291
    33 1.209183 0.000002 0.000006 0.148588 0.074425 -0.486641
    34 3.859837 -0.148919 -1.331282 -0.334325 0.058858 -0.363295
    35 1.684276 0.324232 -0.066399 -0.213341 0.293319 -1.338186
    36 1.099667 0.000004 0.000008 -0.288429 0.153457 -0.620504
    37 0.806026 -0.359833 -1.318335 0.996925 0.204592 -0.611633
    38 1.789785 -0.000006 -0.000006 0.313376 -0.197183 0.283373
    39 1.207001 -0.000005 -0.000010 0.003813 0.090465 0.554983
    40 11.481705 0.000084 0.000008 0.040893 0.090998 0.152647
    41 -3.772382 -8.950606 -4.087371 1.585657 -0.010382 -0.012871
    42 0.000000 -4.325217 2.197774 0.000000 0.000000 0.000000
    43 0.759740 0.264293 2.354383 -1.578590 0.000000 0.000000
    44 -0.023242 0.746336 -3.528393 0.000000 0.000000 0.000000
    45 0.000000 -2.455649 -0.882995 0.097722 0.002768 -0.000947
    46 0.246049 -5.703599 -24.367022 -1.578590 0.000000 0.000000
  time 9
    0 0.000000 -0.000006 0.000000 -1.570781 -1.391896 -1.570809
    1 -3.009766 -2.945313 2.609375 1.596635 -1.286515 2.942963
    2 6.028147 0.000003 0.000002 -0.586944 -0.982899 -1.691458
    3 11.692556 0.000081 -0.000006 -0.153397 0.000036 -1.036722
    4 11.481674 -0.000089 -0.000022 0.167897 -0.041007 0.457458
    5 3.859705 -0.142417 -1.191975 -0.477999 0.113233 -1.228005
    6 1.312565 -0.000011 0.000004 -0.037884 0.056798 -1.223491
    7 0.729360 -0.000008 0.000002 -0.005226 -0.129647 0.165069
    8 3.942331 0.046755 -0.431444 -0.100481 0.144455 -0.584912
    9 1.539097 0.000006 -0.000008 0.049527 -0.034495 -1.481132
    10 1.196322 -0.000004 0.000001 -0.009491 -0.076744 0.042838
    11 3.883692 -0.046782 0.431443 0.141842 0.050862 -0.178419
    12 1.719585 -0.000013 0.000009 0.010334 0.021561 -1.670604
    13 1.209181 -0.000006 0.000003 -0.098290 0.044332 0.316829
    14 3.859858 -0.137960 1.332466 0.384384 0.076129 -0.164406
    15 1.719435 0.000004 -0.000006 0.027427 -0.033383 -1.189108
    16 1.099678 -0.000004 0.000004 0.017136 0.052896 0.053523
    17 1.075195 -0.833008 1.068359 -0.969077 -0.400593 -0.646081
    18 1.789782 0.000000 -0.000008 0.216201 -0.435145 0.267905
    19 1.207001 0.000000 0.000000 0.073844 0.039777 0.162601
    20 11.481707 -0.000013 0.000004 -0.449983 -0.208570 0.110221
    21 -2.226563 -6.984375 -1.271484 -1.668474 1.286518 2.942953
    22 6.028141 0.000000 -0.000002 1.267443 0.290566 -0.989937
    23 11.692554 0.000000 -0.000001 -0.000002 0.000000 -2.094156
    24 11.481699 -0.000001 -0.000003 -1.196800 0.437855 0.905942
    25 3.859676 -0.132547 1.193110 0.486960 -0.004825 -1.640512
    26 1.312557 -0.000004 0.000002 0.023121 -0.079097 -0.999117
    27 0.729369 -0.000004 -0.000004 -0.050568 -0.075766 -0.456753
    28 3.942295 0.050344 0.431044 0.151871 0.026072 -1.235587
    29 1.539103 0.000002 0.000001 -0.040124 0.031255 -1.488553
    30 1.196321 -0.000006 -0.000002 0.094913 0.052639 -0.595789
    31 3.883667 -0.050304 -0.431042 -0.011530 0.077381 -1.001391
    32 1.719584 0.000000 0.000006 -0.009214 0.064834 -1.748291
    33 1.209183 0.000002 0.000006 0.148588 0.074425 -0.486641
    34 3.859837 -0.148919 -1.331282 -0.336446 0.054888 -0.319057
    35 1.692088 0.265637 -0.054680 -0.180144 0.282725 -1.245415
    36 1.099667 0.000004 0.000008 -0.276552 0.140035 -0.577913
    37 0.806026 -0.359833 -1.318335 0.996925 0.204592 -0.611633
    38 1.789785 -0.000006 -0.000006 0.313376 -0.197183 0.283373
    39 1.207001 -0.000005 -0.000010 0.003813 0.090465 0.554983
    40 11.481705 0.000084 0.000008 0.041228 0.090063 0.151017
    41 -3.772382 -9.063891 -4.118622 1.583529 -0.009318 -0.011549
    42 0.000000 -4.325217 2.197774 0.000000 0.000000 0.000000
    43 0.759740 0.264293 2.354383 -1.578590 0.000000 0.000000
    44 -0.023242 0.746336 -3.528393 0.000000 0.000000 0.000000
    45 0.000000 -2.459556 -0.863463 0.080776 0.002289 -0.000803
    46 0.246049 -5.703599 -24.367022 -1.578590 0.000000 0.000000
  time 10
    0 0.000000 -0.000006 0.000000 -1.570781 -1.391896 -1.570809
    1 -3.009766 -2.945313 2.609375 1.596635 -1.286515 2.942963
    2 6.028147 0.000003 0.000002 -0.581763 -0.988167 -1.696564
    3 11.692556 0.000081 -0.000006 -0.153397 0.000036 -1.023036
    4 11.481674 -0.000089 -0.000022 0.166313 -0.040345 0.447248
    5 3.859705 -0.142417 -1.191975 -0.477999 0.113233 -1.228005
    6 1.312565 -0.000011 0.000004 -0.037884 0.056798 -1.223491
    7 0.729360 -0.000008 0.000002 -0.005226 -0.129647 0.165069
    8 3.942331 0.046755 -0.431444 -0.100481 0.144455 -0.584912
    9 1.539097 0.000006 -0.000008 0.049527 -0.034495 -1.481132
    10 1.196322 -0.000004 0.000001 -0.009479 -0.076744 0.042838
    11 3.883692 -0.046782 0.431443 0.141842 0.050862 -0.178419
    12 1.719585 -0.000013 0.000009 0.010334 0.021561 -1.670604
    13 1.209181 -0.000006 0.000003 -0.098290 0.044332 0.316829
    14 3.859858 -0.137960 1.332466 0.384384 0.076129 -0.164406
    15 1.719435 0.000004 -0.000006 0.027427 -0.033383 -1.189108
    16 1.099678 -0.000004 0.000004 0.017136 0.052896 0.053523
    17 1.075195 -0.833008 1.068359 -0.969077 -0.400593 -0.646081
    18 1.789782 0.000000 -0.000008 0.216201 -0.435145 0.267905
    19 1.207001 0.000000 0.000000 0.073844 0.039777 0.162601
    20 11.481707 -0.000013 0.000004 -0.450301 -0.207551 0.108364
    21 -2.226563 -6.984375 -1.271484 -1.668474 1.286518 2.942953
    22 6.028141 0.000000 -0.000002 1.269957 0.294881 -0.989731
    23 11.692554 0.000000 -0.000001 -0.000002 0.000000 -2.083936
    24 11.481699 -0.000001 -0.000003 -1.198841 0.434655 0.896784
    25 3.859676 -0.132547 1.193110 0.486960 -0.004825 -1.640512
    26 1.312557 -0.000004 0.000002 0.023121 -0.079097 -0.999117
    27 0.729369 -0.000004 -0.000004 -0.050568 -0.075766 -0.456753
    28 3.942295 0.050344 0.431044 0.151871 0.026072 -1.235587
    29 1.539103 0.000002 0.000001 -0.040124 0.031255 -1.488553
    30 1.196321 -0.000006 -0.000002 0.094913 0.052639 -0.595789
    31 3.883667 -0.050304 -0.431042 -0.011530 0.077381 -1.001391
    32 1.719584 0.000000 0.000006 -0.009214 0.064834 -1.748291
    33 1.209183 0.000002 0.000006 0.148588 0.074425 -0.486641
    34 3.859837 -0.148919 -1.331282 -0.339047 0.050519 -0.268879
    35 1.699901 0.203135 -0.042961 -0.143918 0.267163 -1.140747
    36 1.099667 0.000004 0.000008 -0.263801 0.124227 -0.529893
    37 0.806026 -0.359833 -1.318335 0.996925 0.204592 -0.611633
    38 1.789785 -0.000006 -0.000006 0.313376 -0.197183 0.283373
    39 1.207001 -0.000005 -0.000010 0.003813 0.090465 0.554983
    40 11.481705 0.000084 0.000008 0.041456 0.089128 0.149483
    41 -3.772382 -9.153738 -4.142061 1.581144 -0.007986 -0.009878
    42 0.000000 -4.325217 2.197774 0.000000 0.000000 0.000000
    43 0.759740 0.264293 2.354383 -1.578590 0.000000 0.000000
    44 -0.023242 0.746336 -3.528393 0.000000 0.000000 0.000000
    45 0.000000 -2.463462 -0.843931 0.062320 0.001762 -0.000635
    46 0.246049 -5.703599 -24.367022 -1.578590 0.000000 0.000000
  time 11
    0 0.000000 -0.000006 0.000000 -1.570781 -1.391896 -1.570809
    1 -3.009766 -2.945313 2.609375 1.596635 -1.286515 2.942963
    2 6.028147 0.000003 0.000002 -0.577641 -0.992481 -1.700601
    3 11.692556 0.000081 -0.000006 -0.153397 0.000036 -1.012440
    4 11.481674 -0.000089 -0.000022 0.164856 -0.040492 0.438778
    5 3.859705 -0.142417 -1.191975 -0.477999 0.113233 -1.228005
    6 1.312565 -0.000011 0.000004 -0.037884 0.056798 -1.223491
    7 0.729360 -0.000008 0.000002 -0.005226 -0.129647 0.165069
    8 3.942331 0.046755 -0.431444 -0.100481 0.144455 -0.584912
    9 1.539097 0.000006 -0.000008 0.049527 -0.034495 -1.481132
    10 1.196322 -0.000004 0.000001 -0.009491 -0.076744 0.042838
    11 3.883692 -0.046782 0.431443 0.141842 0.050862 -0.178419
    12 1.719585 -0.000013 0.000009 0.010334 0.021561 -1.670604
    13 1.209181 -0.000006 0.000003 -0.098290 0.044332 0.316829
    14 3.859858 -0.137960 1.332466 0.384384 0.076129 -0.164406
    15 1.719435 0.000004 -0.000006 0.027427 -0.033383 -1.189108
    16 1.099678 -0.000004 0.000004 0.017136 0.052896 0.053523
    17 1.075195 -0.833008 1.068359 -0.969077 -0.400593 -0.646081
    18 1.789782 0.000000 -0.000008 0.216201 -0.435145 0.267905
    19 1.207001 0.000000 0.000000 0.073844 0.039777 0.162601
    20 11.481707 -0.000013 0.000004 -0.450536 -0.206820 0.106746
    21 -2.226563 -6.984375 -1.271484 -1.668474 1.286518 2.942953
    22 6.028141 0.000000 -0.000002 1.272244 0.298173 -0.989341
    23 11.692554 0.000000 -0.000001 -0.000002 0.000000 -2.075682
    24 11.481699 -0.000001 -0.000003 -1.201158 0.431674 0.888219
    25 3.859676 -0.132547 1.193110 0.486960 -0.004825 -1.640512
    26 1.312557 -0.000004 0.000002 0.023121 -0.079097 -0.999117
    27 0.729369 -0.000004 -0.000004 -0.050568 -0.075766 -0.456753
    28 3.942295 0.050344 0.431044 0.151871 0.026072 -1.235587
    29 1.539103 0.000002 0.000001 -0.040124 0.031255 -1.488553
    30 1.196321 -0.000006 -0.000002 0.094913 0.052639 -0.595789
    31 3.883667 -0.050304 -0.431042 -0.011530 0.077381 -1.001391
    32 1.719584 0.000000 0.000006 -0.009214 0.064834 -1.748291
    33 1.209183 0.000002 0.000006 0.148588 0.074425 -0.486641
    34 3.859837 -0.148919 -1.331282 -0.341863 0.046276 -0.218700
    35 1.707714 0.136727 -0.027335 -0.109735 0.248057 -1.037220
    36 1.099667 0.000004 0.000008 -0.251864 0.107844 -0.482173
    37 0.806026 -0.359833 -1.318335 0.996925 0.204592 -0.611633
    38 1.789785 -0.000006 -0.000006 0.313376 -0.197183 0.283373
    39 1.207001 -0.000005 -0.000010 0.003813 0.090465 0.554983
    40 11.481705 0.000084 0.000008 0.041588 0.088229 0.148069
    41 -3.772382 -9.227959 -4.161592 1.578629 -0.006489 -0.007998
    42 0.000000 -4.325217 2.197774 0.000000 0.000000 0.000000
    43 0.759740 0.264293 2.354383 -1.578590 0.000000 0.000000
    44 -0.023242 0.746336 -3.528393 0.000000 0.000000 0.000000
    45 0.000000 -2.467368 -0.820493 0.043864 0.001234 -0.000455
    46 0.246049 -5.703599 -24.367022 -1.578590 0.000000 0.000000
  time 12
    0 0.000000 -0.000006 0.000000 -1.570781 -1.391896 -1.570809
    1 -3.009766 -2.945313 2.609375 1.596635 -1.286515 2.942963
    2 6.028147 0.000003 0.000002 -0.574410 -0.995879 -1.703688
    3 11.692556 0.000081 -0.000006 -0.153397 0.000036 -1.004305
    4 11.481674 -0.000089 -0.000022 0.163588 -0.041203 0.431791
    5 3.859705 -0.142417 -1.191975 -0.477999 0.113233 -1.228005
    6 1.312565 -0.000011 0.000004 -0.037884 0.056798 -1.223491
    7 0.729360 -0.000008 0.000002 -0.005226 -0.129647 0.165069
    8 3.942331 0.046755 -0.431444 -0.100481 0.144455 -0.584912
    9 1.539097 0.000006 -0.000008 0.049527 -0.034495 -1.481132
    10 1.196322 -0.000004 0.000001 -0.009491 -0.076744 0.042838
    11 3.883692 -0.046782 0.431443 0.141842 0.050862 -0.178419
    12 1.719585 -0.000013 0.000009 0.010334 0.021561 -1.670560
    13 1.209181 -0.000006 0.000003 -0.098290 0.044332 0.316829
    14 3.859858 -0.137960 1.332466 0.384384 0.076129 -0.164406
    15 1.719435 0.000004 -0.000006 0.027427 -0.033383 -1.189108
    16 1.099678 -0.000004 0.000004 0.017136 0.052896 0.053523
    17 1.075195 -0.833008 1.068359 -0.969077 -0.400593 -0.646081
    18 1.789782 0.000000 -0.000008 0.216201 -0.435145 0.267905
    19 1.207001 0.000000 0.000000 0.073844 0.039777 0.162601
    20 11.481707 -0.000013 0.000004 -0.450721 -0.206341 0.105356
    21 -2.226563 -6.984375 -1.271484 -1.668474 1.286518 2.942953
    22 6.028141 0.000000 -0.000002 1.274280 0.300577 -0.988847
    23 11.692554 0.000000 -0.000001 -0.000002 0.000000 -2.069066
    24 11.481699 -0.000001 -0.000003 -1.203557 0.428957 0.880395
    25 3.859676 -0.132547 1.193110 0.486960 -0.004825 -1.640512
    26 1.312557 -0.000004 0.000002 0.023121 -0.079097 -0.999117
    27 0.729369 -0.000004 -0.000004 -0.050568 -0.075766 -0.456753
    28 3.942295 0.050344 0.431044 0.151871 0.026072 -1.235587
    29 1.539103 0.000002 0.000001 -0.040124 0.031255 -1.488553
    30 1.196321 -0.000006 -0.000002 0.094913 0.052639 -0.595789
    31 3.883667 -0.050304 -0.431042 -0.011530 0.077381 -1.001391
    32 1.719584 0.000000 0.000006 -0.009214 0.064834 -1.748291
    33 1.209183 0.000002 0.000006 0.148588 0.074425 -0.486641
    34 3.859837 -0.148919 -1.331282 -0.344524 0.042668 -0.174462
    35 1.711620 0.078131 -0.015616 -0.081648 0.228538 -0.947261
    36 1.099667 0.000004 0.000008 -0.242013 0.092935 -0.440323
    37 0.806026 -0.359833 -1.318335 0.996925 0.204592 -0.611633
    38 1.789785 -0.000006 -0.000006 0.313376 -0.197183 0.283373
    39 1.207001 -0.000005 -0.000010 0.003813 0.090465 0.554983
    40 11.481705 0.000084 0.000008 0.041636 0.087390 0.146786
    41 -3.772382 -9.282648 -4.177218 1.576115 -0.004925 -0.006118
    42 0.000000 -4.325217 2.197774 0.000000 0.000000 0.000000
    43 0.759740 0.264293 2.354383 -1.578590 0.000000 0.000000
    44 -0.023242 0.746336 -3.528393 0.000000 0.000000 0.000000
    45 0.000000 -2.475181 -0.800961 0.026905 0.000755 -0.000288
    46 0.246049 -5.703599 -24.367022 -1.578590 0.000000 0.000000
  time 13
    0 0.000000 -0.000006 0.000000 -1.570781 -1.391896 -1.570809
    1 -3.009766 -2.945313 2.609375 1.596635 -1.286515 2.942963
    2 6.028147 0.000003 0.000002 -0.572293 -0.998398 -1.705648
    3 11.692556 0.000081 -0.000006 -0.153397 0.000036 -0.998691
    4 11.481674 -0.000089 -0.000022 0.162511 -0.042306 0.426469
    5 3.859705 -0.142417 -1.191975 -0.477999 0.113233 -1.228005
    6 1.312565 -0.000011 0.000004 -0.037884 0.056798 -1.223491
    7 0.729360 -0.000008 0.000002 -0.005226 -0.129647 0.165069
    8 3.942331 0.046755 -0.431444 -0.100481 0.144455 -0.584912
    9 1.539097 0.000006 -0.000008 0.049527 -0.034495 -1.481132
    10 1.196322 -0.000004 0.000001 -0.009491 -0.076744 0.042838
    11 3.883692 -0.046782 0.431443 0.141842 0.050862 -0.178419
    12 1.719585 -0.000013 0.000009 0.010334 0.021561 -1.670604
    13 1.209181 -0.000006 0.000003 -0.098290 0.044332 0.316829
    14 3.859858 -0.137960 1.332466 0.384384 0.076129 -0.164406
    15 1.719435 0.000004 -0.000006 0.027427 -0.033383 -1.189108
    16 1.099678 -0.000004 0.000004 0.017136 0.052896 0.053523
    17 1.075195 -0.833008 1.068359 -0.969077 -0.400593 -0.646081
    18 1.789782 0.000000 -0.000008 0.216201 -0.435145 0.267905
    19 1.207001 0.000000 0.000000 0.073844 0.039777 0.162601
    20 11.481707 -0.000013 0.000004 -0.450838 -0.206065 0.104229
    21 -2.226563 -6.984375 -1.271484 -1.668474 1.286518 2.942953
    22 6.028141 0.000000 -0.000002 1.276026 0.302204 -0.988292
    23 11.692554 0.000000 -0.000001 -0.000002 0.000000 -2.063956
    24 11.481699 -0.000001 -0.000003 -1.205929 0.426590 0.873536
    25 3.859676 -0.132547 1.193110 0.486960 -0.004825 -1.640512
    26 1.312557 -0.000004 0.000002 0.023121 -0.079097 -0.999117
    27 0.729369 -0.000004 -0.000004 -0.050568 -0.075766 -0.456753
    28 3.942295 0.050344 0.431044 0.151871 0.026072 -1.235587
    29 1.539103 0.000002 0.000001 -0.040124 0.031255 -1.488553
    30 1.196321 -0.000006 -0.000002 0.094913 0.052639 -0.595789
    31 3.883667 -0.050304 -0.431042 -0.011530 0.077381 -1.001391
    32 1.719584 0.000000 0.000006 -0.009214 0.064834 -1.748291
    33 1.209183 0.000002 0.000006 0.148588 0.074425 -0.486641
    34 3.859837 -0.148919 -1.331282 -0.346669 0.039985 -0.140683
    35 1.715526 0.035161 -0.003897 -0.061689 0.212147 -0.879669
    36 1.099667 0.000004 0.000008 -0.234930 0.081298 -0.408521
    37 0.806026 -0.359833 -1.318335 0.996925 0.204592 -0.611633
    38 1.789785 -0.000006 -0.000006 0.313376 -0.197183 0.283373
    39 1.207001 -0.000005 -0.000010 0.003813 0.090465 0.554983
    40 11.481705 0.000084 0.000008 0.041636 0.086635 0.145672
    41 -3.772382 -9.321712 -4.185031 1.573730 -0.003428 -0.004238
    42 0.000000 -4.325217 2.197774 0.000000 0.000000 0.000000
    43 0.759740 0.264293 2.354383 -1.578590 0.000000 0.000000
    44 -0.023242 0.746336 -3.528393 0.000000 0.000000 0.000000
    45 0.000000 -2.479087 -0.785336 0.012955 0.000360 -0.000132
    46 0.246049 -5.703599 -24.367022 -1.578590 0.000000 0.000000
  time 14
    0 0.000000 -0.000006 0.000000 -1.570781 -1.391896 -1.570809
    1 -3.009766 -2.945313 2.609375 1.596635 -1.286515 2.942963
    2 6.028147 0.000003 0.000002 -0.570956 -1.000154 -1.706776
    3 11.692556 0.000081 -0.000006 -0.153397 0.000036 -0.995033
    4 11.481674 -0.000089 -0.000022 0.161688 -0.043532 0.422477
    5 3.859705 -0.142417 -1.191975 -0.477999 0.113233 -1.228005
    6 1.312565 -0.000011 0.000004 -0.037884 0.056798 -1.223491
    7 0.729360 -0.000008 0.000002 -0.005226 -0.129647 0.165069
    8 3.942331 0.046755 -0.431444 -0.100481 0.144455 -0.584912
    9 1.539097 0.000006 -0.000008 0.049527 -0.034495 -1.481132
    10 1.196322 -0.000004 0.000001 -0.009491 -0.076744 0.042838
    11 3.883692 -0.046782 0.431443 0.141842 0.050862 -0.178419
    12 1.719585 -0.000013 0.000009 0.010334 0.021561 -1.670604
    13 1.209181 -0.000006 0.000003 -0.098290 0.044332 0.316829
    14 3.859858 -0.137960 1.332466 0.384384 0.076129 -0.164406
    15 1.719435 0.000004 -0.000006 0.027427 -0.033383 -1.189108
    16 1.099678 -0.000004 0.000004 0.017136 0.052896 0.053523
    17 1.075195 -0.833008 1.068359 -0.969077 -0.400593 -0.646081
    18 1.789782 0.000000 -0.000008 0.216201 -0.435145 0.267905
    19 1.207001 0.000000 0.000000 0.073844 0.039777 0.162601
    20 11.481707 -0.000013 0.000004 -0.450922 -0.205945 0.103342
    21 -2.226563 -6.984375 -1.271484 -1.668474 1.286518 2.942953
    22 6.028141 0.000000 -0.000002 1.277419 0.303169 -0.987757
    23 11.692554 0.000000 -0.000001 -0.000002 0.000000 -2.060288
    24 11.481699 -0.000001 -0.000003 -1.208053 0.424639 0.867752
    25 3.859676 -0.132547 1.193110 0.486960 -0.004825 -1.640512
    26 1.312557 -0.000004 0.000002 0.023121 -0.079097 -0.999117
    27 0.729369 -0.000004 -0.000004 -0.050568 -0.075766 -0.456753
    28 3.942295 0.050344 0.431044 0.151871 0.026072 -1.235587
    29 1.539103 0.000002 0.000001 -0.040124 0.031255 -1.488553
    30 1.196321 -0.000006 -0.000002 0.094913 0.052639 -0.595789
    31 3.883667 -0.050304 -0.431042 -0.011530 0.077381 -1.001391
    32 1.719584 0.000000 0.000006 -0.009214 0.064834 -1.748291
    33 1.209183 0.000002 0.000006 0.148588 0.074425 -0.486641
    34 3.859837 -0.148919 -1.331282 -0.348023 0.038408 -0.119955
    35 1.719433 0.007817 0.000010 -0.050099 0.201493 -0.838682
    36 1.099667 0.000004 0.000008 -0.230771 0.074036 -0.389041
    37 0.806026 -0.359833 -1.318335 0.996925 0.204592 -0.611633
    38 1.789785 -0.000006 -0.000006 0.313376 -0.197183 0.283373
    39 1.207001 -0.000005 -0.000010 0.003813 0.090465 0.554983
    40 11.481705 0.000084 0.000008 0.041600 0.086000 0.144749
    41 -3.772382 -9.349056 -4.192843 1.571634 -0.002096 -0.002567
    42 0.000000 -4.325217 2.197774 0.000000 0.000000 0.000000
    43 0.759740 0.264293 2.354383 -1.578590 0.000000 0.000000
    44 -0.023242 0.746336 -3.528393 0.000000 0.000000 0.000000
    45 0.000000 -2.479087 -0.777523 0.003488 0.000096 -0.000036
    46 0.246049 -5.703599 -24.367022 -1.578590 0.000000 0.000000
  time 15
    0 0.000000 -0.000006 0.000000 -1.570781 -1.391896 -1.570809
    1 -3.009766 -2.945313 2.609375 1.596635 -1.286515 2.942963
    2 6.028147 0.000003 0.000002 -0.570288 -1.001223 -1.707251
    3 11.692556 0.000081 -0.000006 -0.153397 0.000036 -0.992889
    4 11.481674 -0.000089 -0.000022 0.161118 -0.044733 0.419687
    5 3.859705 -0.142417 -1.191975 -0.477999 0.113233 -1.228005
    6 1.312565 -0.000011 0.000004 -0.037884 0.056798 -1.223491
    7 0.729360 -0.000008 0.000002 -0.005226 -0.129647 0.165069
    8 3.942331 0.046755 -0.431444 -0.100481 0.144455 -0.584912
    9 1.539097 0.000006 -0.000008 0.049527 -0.034495 -1.481132
    10 1.196322 -0.000004 0.000001 -0.009491 -0.076744 0.042838
    11 3.883692 -0.046782 0.431443 0.141842 0.050862 -0.178419
    12 1.719585 -0.000013 0.000009 0.010334 0.021561 -1.670604
    13 1.209181 -0.000006 0.000003 -0.098290 0.044332 0.316829
    14 3.859858 -0.137960 1.332466 0.384384 0.076129 -0.164406
    15 1.719435 0.000004 -0.000006 0.027427 -0.033383 -1.189108
    16 1.099678 -0.000004 0.000004 0.017136 0.052896 0.053523
    17 1.075195 -0.833008 1.068359 -0.969077 -0.400593 -0.646081
    18 1.789782 0.000000 -0.000008 0.216201 -0.435145 0.267905
    19 1.207001 0.000000 0.000000 0.073844 0.039777 0.162601
    20 11.481707 -0.000013 0.000004 -0.450939 -0.205909 0.102695
    21 -2.226563 -6.984375 -1.271484 -1.668474 1.286518 2.942953
    22 6.028141 0.000000 -0.000002 1.278437 0.303585 -0.987305
    23 11.692554 0.000000 -0.000001 -0.000002 0.000000 -2.057733
    24 11.481699 -0.000001 -0.000003 -1.209791 0.423193 0.863228
    25 3.859676 -0.132547 1.193110 0.486960 -0.004825 -1.640512
    26 1.312557 -0.000004 0.000002 0.023121 -0.079097 -0.999117
    27 0.729369 -0.000004 -0.000004 -0.050568 -0.075766 -0.456753
    28 3.942295 0.050344 0.431044 0.151871 0.026072 -1.235587
    29 1.539103 0.000002 0.000001 -0.040124 0.031255 -1.488553
    30 1.196321 -0.000006 -0.000002 0.094913 0.052639 -0.595789
    31 3.883667 -0.050304 -0.431042 -0.011530 0.077381 -1.001391
    32 1.719584 0.000000 0.000006 -0.009214 0.064834 -1.748291
    33 1.209183 0.000002 0.000006 0.148588 0.074425 -0.486641
    34 3.859837 -0.148919 -1.331282 -0.348479 0.037882 -0.113066
    35 1.719433 0.000004 0.000010 -0.046371 0.197864 -0.825155
    36 1.099667 0.000004 0.000008 -0.229417 0.071615 -0.382589
    37 0.806026 -0.359833 -1.318335 0.996925 0.204592 -0.611633
    38 1.789785 -0.000006 -0.000006 0.313376 -0.197183 0.283373
    39 1.207001 -0.000005 -0.000010 0.003813 0.090465 0.554983
    40 11.481705 0.000084 0.000008 0.041552 0.085521 0.144018
    41 -3.772382 -9.368588 -4.200656 1.570022 -0.000998 -0.001244
    42 0.000000 -4.325217 2.197774 0.000000 0.000000 0.000000
    43 0.759740 0.264293 2.354383 -1.578590 0.000000 0.000000
    44 -0.023242 0.746336 -3.528393 0.000000 0.000000 0.000000
    45 0.000000 -2.479087 -0.773617 0.000000 0.000000 0.000000
    46 0.246049 -5.703599 -24.367022 -1.578590 0.000000 0.000000
  time 16
    0 0.000000 -0.000006 0.000000 -1.570781 -1.391896 -1.570809
    1 -3.009766 -2.945313 2.609375 1.596635 -1.286515 2.942963
    2 6.028147 0.000003 0.000002 -0.570121 -1.001643 -1.707310
    3 11.692556 0.000081 -0.000006 -0.153397 0.000036 -0.991880
    4 11.481674 -0.000089 -0.000022 0.160864 -0.045616 0.417973
    5 3.859705 -0.142417 -1.191975 -0.477999 0.113233 -1.228005
    6 1.312565 -0.000011 0.000004 -0.037884 0.056798 -1.223491
    7 0.729360 -0.000008 0.000002 -0.005226 -0.129647 0.165069
    8 3.942331 0.046755 -0.431444 -0.100481 0.144455 -0.584912
    9 1.539097 0.000006 -0.000008 0.049527 -0.034495 -1.481132
    10 1.196322 -0.000004 0.000001 -0.009491 -0.076744 0.042838
    11 3.883692 -0.046782 0.431443 0.141842 0.050862 -0.178419
    12 1.719585 -0.000013 0.000009 0.010334 0.021561 -1.670560
    13 1.209181 -0.000006 0.000003 -0.098290 0.044332 0.316829
    14 3.859858 -0.137960 1.332466 0.384384 0.076129 -0.164406
    15 1.719435 0.000004 -0.000006 0.027427 -0.033383 -1.189108
    16 1.099678 -0.000004 0.000004 0.017136 0.052896 0.053523
    17 1.075195 -0.833008 1.068359 -0.969077 -0.400593 -0.646081
    18 1.789782 0.000000 -0.000008 0.216201 -0.435145 0.267905
    19 1.207001 0.000000 0.000000 0.073844 0.039777 0.162601
    20 11.481707 -0.000013 0.000004 -0.450939 -0.205921 0.102275
    21 -2.226563 -6.984375 -1.271484 -1.668474 1.286518 2.942953
    22 6.028141 0.000000 -0.000002 1.278998 0.303585 -0.986976
    23 11.692554 0.000000 -0.000001 -0.000002 0.000000 -2.056226
    24 11.481699 -0.000001 -0.000003 -1.210977 0.422360 0.860113
    25 3.859676 -0.132547 1.193110 0.486960 -0.004825 -1.640512
    26 1.312557 -0.000004 0.000002 0.023121 -0.079097 -0.999117
    27 0.729369 -0.000004 -0.000004 -0.050568 -0.075766 -0.456753
    28 3.942295 0.050344 0.431044 0.151871 0.026072 -1.235587
    29 1.539103 0.000002 0.000001 -0.040124 0.031255 -1.488553
    30 1.196321 -0.000006 -0.000002 0.094913 0.052639 -0.595789
    31 3.883667 -0.050304 -0.431042 -0.011530 0.077381 -1.001391
    32 1.719584 0.000000 0.000006 -0.009214 0.064834 -1.748291
    33 1.209183 0.000002 0.000006 0.148588 0.074425 -0.486641
    34 3.859837 -0.148919 -1.331282 -0.348479 0.037882 -0.113066
    35 1.719433 0.000004 0.000010 -0.046371 0.197864 -0.825155
    36 1.099667 0.000004 0.000008 -0.229417 0.071615 -0.382589
    37 0.806026 -0.359833 -1.318335 0.996925 0.204592 -0.611633
    38 1.789785 -0.000006 -0.000006 0.313376 -0.197183 0.283373
    39 1.207001 -0.000005 -0.000010 0.003813 0.090465 0.554983
    40 11.481705 0.000084 0.000008 0.041504 0.085209 0.143502
    41 -3.772382 -9.376401 -4.208469 1.568926 -0.000266 -0.000339
    42 0.000000 -4.325217 2.197774 0.000000 0.000000 0.000000
    43 0.759740 0.264293 2.354383 -1.578590 0.000000 0.000000
    44 -0.023242 0.746336 -3.528393 0.000000 0.000000 0.000000
    45 0.000000 -2.479087 -0.773617 0.000000 0.000000 0.000000
    46 0.246049 -5.703599 -24.367022 -1.578590 0.000000 0.000000
  time 17
    0 0.000000 -0.000006 0.000000 -1.570781 -1.391896 -1.570809
    1 -3.009766 -2.945313 2.609375 1.596635 -1.286515 2.942963
    2 6.028147 0.000003 0.000002 -0.570288 -1.001567 -1.707132
    3 11.692556 0.000081 -0.000006 -0.153397 0.000024 -0.991565
    4 11.481674 -0.000089 -0.000022 0.160928 -0.046033 0.417154
    5 3.859705 -0.142417 -1.191975 -0.477999 0.113233 -1.228005
    6 1.312565 -0.000011 0.000004 -0.037884 0.056798 -1.223491
    7 0.729360 -0.000008 0.000002 -0.005226 -0.129647 0.165069
    8 3.942331 0.046755 -0.431444 -0.100481 0.144455 -0.584912
    9 1.539097 0.000006 -0.000008 0.049527 -0.034495 -1.481132
    10 1.196322 -0.000004 0.000001 -0.009479 -0.076744 0.042838
    11 3.883692 -0.046782 0.431443 0.141842 0.050862 -0.178419
    12 1.719585 -0.000013 0.000009 0.010334 0.021561 -1.670604
    13 1.209181 -0.000006 0.000003 -0.098290 0.044332 0.316829
    14 3.859858 -0.137960 1.332466 0.384384 0.076129 -0.164406
    15 1.719435 0.000004 -0.000006 0.027427 -0.033383 -1.189108
    16 1.099678 -0.000004 0.000004 0.017136 0.052896 0.053523
    17 1.075195 -0.833008 1.068359 -0.969077 -0.400593 -0.646081
    18 1.789782 0.000000 -0.000008 0.216201 -0.435145 0.267905
    19 1.207001 0.000000 0.000000 0.073844 0.039777 0.162601
    20 11.481707 -0.000013 0.000004 -0.450905 -0.205909 0.102084
    21 -2.226563 -6.984375 -1.271484 -1.668474 1.286518 2.942953
    22 6.028141 0.000000 -0.000002 1.279081 0.303264 -0.986852
    23 11.692554 0.000000 -0.000001 -0.000002 0.000000 -2.055571
    24 11.481699 -0.000001 -0.000003 -1.211446 0.422207 0.858556
    25 3.859676 -0.132547 1.193110 0.486960 -0.004825 -1.640512
    26 1.312557 -0.000004 0.000002 0.023121 -0.079097 -0.999117
    27 0.729369 -0.000004 -0.000004 -0.050568 -0.075766 -0.456753
    28 3.942295 0.050344 0.431044 0.151871 0.026072 -1.235587
    29 1.539103 0.000002 0.000001 -0.040124 0.031255 -1.488553
    30 1.196321 -0.000006 -0.000002 0.094913 0.052639 -0.595789
    31 3.883667 -0.050304 -0.431042 -0.011530 0.077381 -1.001391
    32 1.719584 0.000000 0.000006 -0.009214 0.064834 -1.748291
    33 1.209183 0.000002 0.000006 0.148588 0.074425 -0.486641
    34 3.859837 -0.148919 -1.331282 -0.348479 0.037882 -0.113066
    35 1.719433 0.000004 0.000010 -0.046371 0.197864 -0.825155
    36 1.099667 0.000004 0.000008 -0.229417 0.071615 -0.382589
    37 0.806026 -0.359833 -1.318335 0.996925 0.204592 -0.611633
    38 1.789785 -0.000006 -0.000006 0.313376 -0.197183 0.283373
    39 1.207001 -0.000005 -0.000010 0.003813 0.090465 0.554983
    40 11.481705 0.000084 0.000008 0.041492 0.085113 0.143227
    41 -3.772382 -9.376401 -4.212375 1.568507 0.000000 -0.000060
    42 0.000000 -4.325217 2.197774 0.000000 0.000000 0.000000
    43 0.759740 0.264293 2.354383 -1.578590 0.000000 0.000000
    44 -0.023242 0.746336 -3.528393 0.000000 0.000000 0.000000
    45 0.000000 -2.479087 -0.773617 0.000000 0.000000 0.000000
    46 0.246049 -5.703599 -24.367022 -1.578590 0.000000 0.000000
  time 18
    0 0.000000 -0.000006 0.000000 -1.570781 -1.391896 -1.570809
    1 -3.009766 -2.945313 2.609375 1.596635 -1.286515 2.942963
    2 6.028147 0.000003 0.000002 -0.571123 -1.000651 -1.706301
    3 11.692556 0.000081 -0.000006 -0.153397 0.000024 -0.992385
    4 11.481674 -0.000089 -0.000022 0.160991 -0.046204 0.417563
    5 3.859705 -0.142417 -1.191975 -0.477999 0.113233 -1.228005
    6 1.312565 -0.000011 0.000004 -0.037884 0.056798 -1.223491
    7 0.729360 -0.000008 0.000002 -0.005226 -0.129647 0.165069
    8 3.942331 0.046755 -0.431444 -0.100481 0.144455 -0.584912
    9 1.539097 0.000006 -0.000008 0.049527 -0.034495 -1.481132
    10 1.196322 -0.000004 0.000001 -0.009479 -0.076744 0.042838
    11 3.883692 -0.046782 0.431443 0.141842 0.050862 -0.178419
    12 1.719585 -0.000013 0.000009 0.010334 0.021561 -1.670560
    13 1.209181 -0.000006 0.000003 -0.098290 0.044332 0.316829
    14 3.859858 -0.137960 1.332466 0.384384 0.076129 -0.164406
    15 1.719435 0.000004 -0.000006 0.027427 -0.033383 -1.189108
    16 1.099678 -0.000004 0.000004 0.017136 0.052896 0.053523
    17 1.075195 -0.833008 1.068359 -0.969077 -0.400593 -0.646081
    18 1.789782 0.000000 -0.000008 0.216201 -0.435145 0.267905
    19 1.207001 0.000000 0.000000 0.073844 0.039777 0.162601
    20 11.481707 -0.000013 0.000004 -0.450872 -0.205981 0.102144
    21 -2.226563 -6.984375 -1.271484 -1.668474 1.286518 2.942953
    22 6.028141 0.000000 -0.000002 1.278811 0.302526 -0.986811
    23 11.692554 0.000000 -0.000001 -0.000002 0.000000 -2.056030
    24 11.481699 -0.000001 -0.000003 -1.211335 0.422294 0.858853
    25 3.859676 -0.132547 1.193110 0.486960 -0.004825 -1.640512
    26 1.312557 -0.000004 0.000002 0.023121 -0.079097 -0.999134
    27 0.729369 -0.000004 -0.000004 -0.050568 -0.075766 -0.456753
    28 3.942295 0.050344 0.431044 0.151871 0.026072 -1.235587
    29 1.539103 0.000002 0.000001 -0.040124 0.031255 -1.488553
    30 1.196321 -0.000006 -0.000002 0.094913 0.052639 -0.595789
    31 3.883667 -0.050304 -0.431042 -0.011530 0.077381 -1.001391
    32 1.719584 0.000000 0.000006 -0.009214 0.064834 -1.748291
    33 1.209183 0.000002 0.000006 0.148588 0.074425 -0.486641
    34 3.859837 -0.148919 -1.331282 -0.348479 0.037882 -0.113066
    35 1.719433 0.000004 0.000010 -0.046371 0.197864 -0.825155
    36 1.099667 0.000004 0.000008 -0.229417 0.071615 -0.382589
    37 0.806026 -0.359833 -1.318335 0.996925 0.204592 -0.611633
    38 1.789785 -0.000006 -0.000006 0.313376 -0.197183 0.283373
    39 1.207001 -0.000005 -0.000010 0.003813 0.090465 0.554983
    40 11.481705 0.000084 0.000008 0.041492 0.085149 0.143275
    41 -3.772382 -9.372494 -4.224094 1.569120 0.000000 -0.000060
    42 0.000000 -4.325217 2.197774 0.000000 0.000000 0.000000
    43 0.759740 0.264293 2.354383 -1.578590 0.000000 0.000000
    44 -0.023242 0.746336 -3.528393 0.000000 0.000000 0.000000
    45 0.000000 -2.479087 -0.773617 0.000000 0.000000 0.000000
    46 0.246049 -5.703599 -24.367022 -1.578590 0.000000 0.000000
  time 19
    0 0.000000 -0.000006 0.000000 -1.570781 -1.391896 -1.570809
    1 -3.009766 -2.945313 2.609375 1.596635 -1.286515 2.942963
    2 6.028147 0.000003 0.000002 -0.572460 -0.999353 -1.705054
    3 11.692556 0.000081 -0.000006 -0.153397 0.000036 -0.994024
    4 11.481674 -0.000089 -0.000022 0.160991 -0.046450 0.418740
    5 3.859705 -0.142417 -1.191975 -0.477999 0.113233 -1.228005
    6 1.312565 -0.000011 0.000004 -0.037884 0.056798 -1.223491
    7 0.729360 -0.000008 0.000002 -0.005226 -0.129647 0.165069
    8 3.942331 0.046755 -0.431444 -0.100481 0.144455 -0.584912
    9 1.539097 0.000006 -0.000008 0.049527 -0.034495 -1.481132
    10 1.196322 -0.000004 0.000001 -0.009491 -0.076744 0.042838
    11 3.883692 -0.046782 0.431443 0.141842 0.050862 -0.178419
    12 1.719585 -0.000013 0.000009 0.010334 0.021561 -1.670604
    13 1.209181 -0.000006 0.000003 -0.098290 0.044332 0.316829
    14 3.859858 -0.137960 1.332466 0.384384 0.076129 -0.164406
    15 1.719435 0.000004 -0.000006 0.027427 -0.033383 -1.189108
    16 1.099678 -0.000004 0.000004 0.017136 0.052896 0.053523
    17 1.075195 -0.833008 1.068359 -0.969077 -0.400593 -0.646081
    18 1.789782 0.000000 -0.000008 0.216201 -0.435145 0.267905
    19 1.207001 0.000000 0.000000 0.073844 0.039777 0.162601
    20 11.481707 -0.000013 0.000004 -0.450872 -0.206149 0.102335
    21 -2.226563 -6.984375 -1.271484 -1.668474 1.286518 2.942953
    22 6.028141 0.000000 -0.000002 1.278520 0.301580 -0.986729
    23 11.692554 0.000000 -0.000001 -0.000002 0.000000 -2.057209
    24 11.481699 -0.000001 -0.000003 -1.211087 0.422228 0.860188
    25 3.859676 -0.132547 1.193110 0.486960 -0.004825 -1.640512
    26 1.312557 -0.000004 0.000002 0.023121 -0.079097 -0.999117
    27 0.729369 -0.000004 -0.000004 -0.050568 -0.075766 -0.456753
    28 3.942295 0.050344 0.431044 0.151871 0.026072 -1.235587
    29 1.539103 0.000002 0.000001 -0.040124 0.031255 -1.488553
    30 1.196321 -0.000006 -0.000002 0.094913 0.052639 -0.595789
    31 3.883667 -0.050304 -0.431042 -0.011530 0.077381 -1.001391
    32 1.719584 0.000000 0.000006 -0.009214 0.064834 -1.748291
    33 1.209183 0.000002 0.000006 0.148588 0.074425 -0.486641
    34 3.859837 -0.148919 -1.331282 -0.348479 0.037882 -0.113066
    35 1.719433 0.000004 0.000010 -0.046371 0.197876 -0.825155
    36 1.099667 0.000004 0.000008 -0.229417 0.071615 -0.382589
    37 0.806026 -0.359833 -1.318335 0.996925 0.204592 -0.611633
    38 1.789785 -0.000006 -0.000006 0.313376 -0.197183 0.283373
    39 1.207001 -0.000005 -0.000010 0.003813 0.090465 0.554983
    40 11.481705 0.000084 0.000008 0.041492 0.085185 0.143526
    41 -3.772382 -9.360775 -4.228001 1.570216 0.000000 -0.000060
    42 0.000000 -4.325217 2.197774 0.000000 0.000000 0.000000
    43 0.759740 0.264293 2.354383 -1.578590 0.000000 0.000000
    44 -0.023242 0.746336 -3.528393 0.000000 0.000000 0.000000
    45 0.000000 -2.479087 -0.773617 0.000000 0.000000 0.000000
    46 0.246049 -5.703599 -24.367022 -1.578590 0.000000 0.000000
  time 20
    0 0.000000 -0.000006 0.000000 -1.570781 -1.391896 -1.570809
    1 -3.009766 -2.945313 2.609375 1.596635 -1.286515 2.942963
    2 6.028147 0.000003 0.000002 -0.573129 -0.998666 -1.704401
    3 11.692556 0.000081 -0.000006 -0.153397 0.000036 -0.994907
    4 11.481674 -0.000089 -0.000022 0.160928 -0.046572 0.419431
    5 3.859705 -0.142417 -1.191975 -0.477999 0.113233 -1.228005
    6 1.312565 -0.000011 0.000004 -0.037884 0.056798 -1.223491
    7 0.729360 -0.000008 0.000002 -0.005226 -0.129647 0.165069
    8 3.942331 0.046755 -0.431444 -0.100481 0.144455 -0.584912
    9 1.539097 0.000006 -0.000008 0.049527 -0.034495 -1.481132
    10 1.196322 -0.000004 0.000001 -0.009491 -0.076744 0.042838
    11 3.883692 -0.046782 0.431443 0.141842 0.050862 -0.178419
    12 1.719585 -0.000013 0.000009 0.010334 0.021561 -1.670604
    13 1.209181 -0.000006 0.000003 -0.098290 0.044332 0.316829
    14 3.859858 -0.137960 1.332466 0.384384 0.076129 -0.164406
    15 1.719435 0.000004 -0.000006 0.027427 -0.033383 -1.189108
    16 1.099678 -0.000004 0.000004 0.017136 0.052896 0.053523
    17 1.075195 -0.833008 1.068359 -0.969077 -0.400593 -0.646081
    18 1.789782 0.000000 -0.000008 0.216201 -0.435145 0.267905
    19 1.207001 0.000000 0.000000 0.073844 0.039777 0.162601
    20 11.481707 -0.000013 0.000004 -0.450872 -0.206233 0.102455
    21 -2.226563 -6.984375 -1.271484 -1.668474 1.286518 2.942953
    22 6.028141 0.000000 -0.000002 1.278375 0.301107 -0.986688
    23 11.692554 0.000000 -0.000001 -0.000002 0.000000 -2.057864
    24 11.481699 -0.000001 -0.000003 -1.210977 0.422163 0.860966
    25 3.859676 -0.132547 1.193110 0.486960 -0.004825 -1.640512
    26 1.312557 -0.000004 0.000002 0.023121 -0.079097 -0.999117
    27 0.729369 -0.000004 -0.000004 -0.050568 -0.075766 -0.456753
    28 3.942295 0.050344 0.431044 0.151871 0.026072 -1.235587
    29 1.539103 0.000002 0.000001 -0.040124 0.031255 -1.488553
    30 1.196321 -0.000006 -0.000002 0.094913 0.052639 -0.595789
    31 3.883667 -0.050304 -0.431042 -0.011530 0.077381 -1.001391
    32 1.719584 0.000000 0.000006 -0.009214 0.064834 -1.748291
    33 1.209183 0.000002 0.000006 0.148588 0.074425 -0.486641
    34 3.859837 -0.148919 -1.331282 -0.348479 0.037882 -0.113066
    35 1.719433 0.000004 0.000010 -0.046371 0.197876 -0.825155
    36 1.099667 0.000004 0.000008 -0.229417 0.071615 -0.382589
    37 0.806026 -0.359833 -1.318335 0.996925 0.204592 -0.611633
    38 1.789785 -0.000006 -0.000006 0.313376 -0.197183 0.283373
    39 1.207001 -0.000005 -0.000010 0.003813 0.090465 0.554983
    40 11.481705 0.000084 0.000008 0.041504 0.085197 0.143670
    41 -3.772382 -9.356869 -4.231907 1.570796 0.000000 -0.000060
    42 0.000000 -4.325217 2.197774 0.000000 0.000000 0.000000
    43 0.759740 0.264293 2.354383 -1.578590 0.000000 0.000000
    44 -0.023242 0.746336 -3.528393 0.000000 0.000000 0.000000
    45 0.000000 -2.479087 -0.773617 0.000000 0.000000 0.000000
    46 0.246049 -5.703599 -24.367022 -1.578590 0.000000 0.000000
end
