// Created by Crowbar++ 0.74
version 1
nodes
  0 "ValveBiped.Bip01_Spine4" -1
  1 "ValveBiped.Bip01_L_Clavicle" 0
  2 "ValveBiped.Bip01_L_UpperArm" 1
  3 "ValveBiped.Bip01_L_Forearm" 2
  4 "ValveBiped.Bip01_L_Hand" 3
  5 "ValveBiped.Bip01_L_Finger4" 4
  6 "ValveBiped.Bip01_L_Finger41" 5
  7 "ValveBiped.Bip01_L_Finger42" 6
  8 "ValveBiped.Bip01_L_Finger3" 4
  9 "ValveBiped.Bip01_L_Finger31" 8
  10 "ValveBiped.Bip01_L_Finger32" 9
  11 "ValveBiped.Bip01_L_Finger2" 4
  12 "ValveBiped.Bip01_L_Finger21" 11
  13 "ValveBiped.Bip01_L_Finger22" 12
  14 "ValveBiped.Bip01_L_Finger1" 4
  15 "ValveBiped.Bip01_L_Finger11" 14
  16 "ValveBiped.Bip01_L_Finger12" 15
  17 "ValveBiped.Bip01_L_Finger0" 4
  18 "ValveBiped.Bip01_L_Finger01" 17
  19 "ValveBiped.Bip01_L_Finger02" 18
  20 "ValveBiped.Bip01_L_Wrist" 3
  21 "ValveBiped.Bip01_R_Clavicle" 0
  22 "ValveBiped.Bip01_R_UpperArm" 21
  23 "ValveBiped.Bip01_R_Forearm" 22
  24 "ValveBiped.Bip01_R_Hand" 23
  25 "ValveBiped.Bip01_R_Finger4" 24
  26 "ValveBiped.Bip01_R_Finger41" 25
  27 "ValveBiped.Bip01_R_Finger42" 26
  28 "ValveBiped.Bip01_R_Finger3" 24
  29 "ValveBiped.Bip01_R_Finger31" 28
  30 "ValveBiped.Bip01_R_Finger32" 29
  31 "ValveBiped.Bip01_R_Finger2" 24
  32 "ValveBiped.Bip01_R_Finger21" 31
  33 "ValveBiped.Bip01_R_Finger22" 32
  34 "ValveBiped.Bip01_R_Finger1" 24
  35 "ValveBiped.Bip01_R_Finger11" 34
  36 "ValveBiped.Bip01_R_Finger12" 35
  37 "ValveBiped.Bip01_R_Finger0" 24
  38 "ValveBiped.Bip01_R_Finger01" 37
  39 "ValveBiped.Bip01_R_Finger02" 38
  40 "ValveBiped.Bip01_R_Wrist" 23
  41 "gun" -1
  42 "magazine" 41
  43 "dustcover" 41
  44 "charging_handle" 41
  45 "trigger" 41
  46 "silencer" 41
end
skeleton
  time 0
    0 0.000000 -0.000006 0.000000 -1.570781 -1.391896 -1.570809
    1 -3.009766 -2.945313 2.609375 1.596635 -1.286515 2.942963
    2 6.028147 0.000003 0.000002 -0.573108 -0.998697 -1.704409
    3 11.692556 0.000081 -0.000006 -0.153397 0.000035 -0.994955
    4 11.481674 -0.000089 -0.000022 0.160906 -0.046558 0.419447
    5 3.859705 -0.142417 -1.191975 -0.477999 0.113233 -1.228005
    6 1.312565 -0.000011 0.000004 -0.037884 0.056798 -1.223491
    7 0.729360 -0.000008 0.000002 -0.005226 -0.129647 0.165069
    8 3.942331 0.046755 -0.431444 -0.100481 0.144455 -0.584912
    9 1.539097 0.000006 -0.000008 0.049527 -0.034495 -1.481132
    10 1.196322 -0.000004 0.000001 -0.009490 -0.076750 0.042853
    11 3.883692 -0.046782 0.431443 0.141842 0.050862 -0.178419
    12 1.719585 -0.000013 0.000009 0.010336 0.021568 -1.670601
    13 1.209181 -0.000006 0.000003 -0.098290 0.044332 0.316829
    14 3.859858 -0.137960 1.332466 0.384384 0.076129 -0.164406
    15 1.719435 0.000004 -0.000006 0.027427 -0.033383 -1.189108
    16 1.099678 -0.000004 0.000004 0.017136 0.052896 0.053523
    17 1.075195 -0.833008 1.068359 -0.969077 -0.400593 -0.646081
    18 1.789782 0.000000 -0.000008 0.216201 -0.435145 0.267905
    19 1.207001 0.000000 0.000000 0.073844 0.039777 0.162601
    20 11.481707 -0.000013 0.000004 -0.450885 -0.206237 0.102462
    21 -2.226563 -6.984375 -1.271484 -1.668474 1.286518 2.942953
    22 6.028141 0.000000 -0.000002 1.278369 0.301124 -0.986690
    23 11.692554 0.000000 -0.000001 0.000000 0.000000 -2.057903
    24 11.481699 -0.000001 -0.000003 -1.210950 0.422171 0.860993
    25 3.859676 -0.132547 1.193110 0.486960 -0.004825 -1.640512
    26 1.312557 -0.000004 0.000002 0.023121 -0.079104 -0.999132
    27 0.729369 -0.000004 -0.000004 -0.050568 -0.075766 -0.456753
    28 3.942295 0.050344 0.431044 0.151871 0.026072 -1.235587
    29 1.539103 0.000002 0.000001 -0.040124 0.031255 -1.488553
    30 1.196321 -0.000006 -0.000002 0.094913 0.052639 -0.595789
    31 3.883667 -0.050304 -0.431042 -0.011530 0.077381 -1.001391
    32 1.719584 0.000000 0.000006 -0.009215 0.064842 -1.748330
    33 1.209183 0.000002 0.000006 0.148588 0.074425 -0.486641
    34 3.859837 -0.148919 -1.331282 -0.348470 0.037865 -0.113063
    35 1.719433 0.000004 0.000010 -0.046375 0.197874 -0.825167
    36 1.099667 0.000004 0.000008 -0.229422 0.071614 -0.382602
    37 0.806026 -0.359833 -1.318335 0.996925 0.204592 -0.611633
    38 1.789785 -0.000006 -0.000006 0.313376 -0.197183 0.283373
    39 1.207001 -0.000005 -0.000010 0.003813 0.090465 0.554983
    40 11.481705 0.000084 0.000008 0.041502 0.085201 0.143679
    41 -3.769531 -9.359375 -4.230469 1.570792 0.000003 -0.000003
    42 0.000000 -4.325217 2.197774 0.000000 0.000000 0.000000
    43 0.759740 0.264293 2.354383 -1.578590 0.000000 0.000000
    44 -0.023242 0.746336 -3.528393 0.000000 0.000000 0.000000
    45 0.000000 -2.479087 -0.773617 0.000000 0.000000 0.000000
    46 0.246049 -5.703599 -24.367022 -1.578590 0.000000 0.000000
  time 1
    0 0.000000 -0.000006 0.000000 -1.570781 -1.391896 -1.570809
    1 -3.009766 -2.945313 2.609375 1.596635 -1.286515 2.942963
    2 6.028147 0.000003 0.000002 -0.573108 -0.998697 -1.704409
    3 11.692556 0.000081 -0.000006 -0.153397 0.000035 -0.994955
    4 11.481674 -0.000089 -0.000022 0.160906 -0.046558 0.419447
    5 3.859705 -0.142417 -1.191975 -0.477999 0.113233 -1.228005
    6 1.312565 -0.000011 0.000004 -0.037884 0.056798 -1.223491
    7 0.729360 -0.000008 0.000002 -0.005226 -0.129647 0.165069
    8 3.942331 0.046755 -0.431444 -0.100481 0.144455 -0.584912
    9 1.539097 0.000006 -0.000008 0.049527 -0.034495 -1.481132
    10 1.196322 -0.000004 0.000001 -0.009490 -0.076750 0.042853
    11 3.883692 -0.046782 0.431443 0.141842 0.050862 -0.178419
    12 1.719585 -0.000013 0.000009 0.010336 0.021568 -1.670601
    13 1.209181 -0.000006 0.000003 -0.098290 0.044332 0.316829
    14 3.859858 -0.137960 1.332466 0.384384 0.076129 -0.164406
    15 1.719435 0.000004 -0.000006 0.027427 -0.033383 -1.189108
    16 1.099678 -0.000004 0.000004 0.017136 0.052896 0.053523
    17 1.075195 -0.833008 1.068359 -0.969077 -0.400593 -0.646081
    18 1.789782 0.000000 -0.000008 0.216201 -0.435145 0.267905
    19 1.207001 0.000000 0.000000 0.073844 0.039777 0.162601
    20 11.481707 -0.000013 0.000004 -0.450885 -0.206237 0.102462
    21 -2.226563 -6.984375 -1.271484 -1.668474 1.286518 2.942953
    22 6.028141 0.000000 -0.000002 1.278369 0.301124 -0.986690
    23 11.692554 0.000000 -0.000001 0.000000 0.000000 -2.057903
    24 11.481699 -0.000001 -0.000003 -1.210950 0.422171 0.860993
    25 3.859676 -0.132547 1.193110 0.486960 -0.004825 -1.640512
    26 1.312557 -0.000004 0.000002 0.023121 -0.079104 -0.999132
    27 0.729369 -0.000004 -0.000004 -0.050568 -0.075766 -0.456753
    28 3.942295 0.050344 0.431044 0.151871 0.026072 -1.235587
    29 1.539103 0.000002 0.000001 -0.040124 0.031255 -1.488553
    30 1.196321 -0.000006 -0.000002 0.094913 0.052639 -0.595789
    31 3.883667 -0.050304 -0.431042 -0.011530 0.077381 -1.001391
    32 1.719584 0.000000 0.000006 -0.009215 0.064842 -1.748330
    33 1.209183 0.000002 0.000006 0.148588 0.074425 -0.486641
    34 3.859837 -0.148919 -1.331282 -0.348470 0.037865 -0.113063
    35 1.719433 0.000004 0.000010 -0.046375 0.197874 -0.825167
    36 1.099667 0.000004 0.000008 -0.229422 0.071614 -0.382602
    37 0.806026 -0.359833 -1.318335 0.996925 0.204592 -0.611633
    38 1.789785 -0.000006 -0.000006 0.313376 -0.197183 0.283373
    39 1.207001 -0.000005 -0.000010 0.003813 0.090465 0.554983
    40 11.481705 0.000084 0.000008 0.041502 0.085201 0.143679
    41 -3.769531 -9.359375 -4.230469 1.570792 0.000003 -0.000003
    42 0.000000 -4.325217 2.197774 0.000000 0.000000 0.000000
    43 0.759740 0.264293 2.354383 -1.578590 0.000000 0.000000
    44 -0.023242 0.746336 -3.528393 0.000000 0.000000 0.000000
    45 0.000000 -2.479087 -0.773617 0.000000 0.000000 0.000000
    46 0.246049 -5.703599 -24.367022 -1.578590 0.000000 0.000000
end
