// Created by Crowbar++ 0.74
version 1
nodes
  0 "ValveBiped.Bip01_Spine4" -1
  1 "ValveBiped.Bip01_L_Clavicle" 0
  2 "ValveBiped.Bip01_L_UpperArm" 1
  3 "ValveBiped.Bip01_L_Forearm" 2
  4 "ValveBiped.Bip01_L_Hand" 3
  5 "ValveBiped.Bip01_L_Finger4" 4
  6 "ValveBiped.Bip01_L_Finger41" 5
  7 "ValveBiped.Bip01_L_Finger42" 6
  8 "ValveBiped.Bip01_L_Finger3" 4
  9 "ValveBiped.Bip01_L_Finger31" 8
  10 "ValveBiped.Bip01_L_Finger32" 9
  11 "ValveBiped.Bip01_L_Finger2" 4
  12 "ValveBiped.Bip01_L_Finger21" 11
  13 "ValveBiped.Bip01_L_Finger22" 12
  14 "ValveBiped.Bip01_L_Finger1" 4
  15 "ValveBiped.Bip01_L_Finger11" 14
  16 "ValveBiped.Bip01_L_Finger12" 15
  17 "ValveBiped.Bip01_L_Finger0" 4
  18 "ValveBiped.Bip01_L_Finger01" 17
  19 "ValveBiped.Bip01_L_Finger02" 18
  20 "ValveBiped.Bip01_R_Clavicle" 0
  21 "ValveBiped.Bip01_R_UpperArm" 20
  22 "ValveBiped.Bip01_R_Forearm" 21
  23 "ValveBiped.Bip01_R_Hand" 22
  24 "ValveBiped.Bip01_R_Finger4" 23
  25 "ValveBiped.Bip01_R_Finger41" 24
  26 "ValveBiped.Bip01_R_Finger42" 25
  27 "ValveBiped.Bip01_R_Finger3" 23
  28 "ValveBiped.Bip01_R_Finger31" 27
  29 "ValveBiped.Bip01_R_Finger32" 28
  30 "ValveBiped.Bip01_R_Finger2" 23
  31 "ValveBiped.Bip01_R_Finger21" 30
  32 "ValveBiped.Bip01_R_Finger22" 31
  33 "ValveBiped.Bip01_R_Finger1" 23
  34 "ValveBiped.Bip01_R_Finger11" 33
  35 "ValveBiped.Bip01_R_Finger12" 34
  36 "ValveBiped.Bip01_R_Finger0" 23
  37 "ValveBiped.Bip01_R_Finger01" 36
  38 "ValveBiped.Bip01_R_Finger02" 37
  39 "v_weapon.awm_parent" -1
  40 "v_weapon.awm_clip" 39
  41 "v_weapon.awm_bolt_action" 39
  42 "v_weapon.awm_bolt_body" 39
end
skeleton
  time 0
    0 0.000005 -0.663086 -9.140625 -1.570760 -1.391893 -1.570827
    1 2.033348 1.000767 1.937660 1.596636 -1.286515 2.942963
    2 6.028145 0.000003 0.000002 -1.233130 -0.431104 -1.258670
    3 11.692553 0.000081 -0.000005 -0.000015 0.000036 -1.261128
    4 11.481672 -0.000089 -0.000024 0.236767 0.372544 1.023477
    5 3.281557 0.002119 -1.383388 0.099732 -0.198215 -1.489110
    6 1.324282 -0.000008 0.000005 0.000000 -0.021647 -0.479409
    7 0.819336 0.000000 -0.000002 0.000000 0.000000 -0.523560
    8 3.711854 0.109255 -0.568167 0.016819 -0.149472 -1.425254
    9 1.609408 0.000006 -0.000007 -0.000002 0.003014 -0.375164
    10 0.993191 -0.000008 0.000002 0.001475 0.002270 -0.454037
    11 3.786031 0.203224 0.243937 -0.031270 -0.109780 -1.249075
    12 1.684422 -0.000010 0.000009 -0.004744 0.005550 -1.387445
    13 1.256836 0.000005 0.000000 0.000000 0.000000 -0.532283
    14 3.594223 0.299551 1.109803 -0.045502 -0.109505 -0.932889
    15 1.723633 0.000002 0.000001 0.000000 0.000000 -0.907534
    16 1.002930 -0.000002 -0.000003 0.000000 0.000000 -0.445043
    17 0.298214 -0.634094 0.426700 -1.616265 -0.959046 -0.146910
    18 2.633557 0.000002 -0.000006 -0.000002 0.016082 0.114429
    19 1.308564 -0.000001 -0.000002 0.000709 0.002432 0.288578
    20 2.033356 1.000772 -1.937610 -0.103266 0.089287 -2.035076
    21 6.028141 0.000000 -0.000002 -0.266235 0.562316 -1.729594
    22 11.692554 0.000000 -0.000001 0.000034 -0.000024 -1.729215
    23 11.481701 -0.000001 -0.000009 -1.572205 -0.411384 1.132793
    24 2.910431 -0.023166 1.400147 0.112113 -0.102364 -1.126413
    25 1.285156 0.000000 0.000001 0.002338 -0.009083 -0.861154
    26 0.842651 0.000000 -0.000001 -0.000491 0.002508 -0.971609
    27 3.368061 0.007377 0.622456 0.032460 -0.034643 -1.257229
    28 1.610352 0.000000 0.000000 -0.000006 0.113985 -0.814216
    29 1.016602 -0.000004 0.000000 0.012151 -0.013056 -1.186696
    30 3.551620 0.023917 -0.204473 0.005897 0.017583 -1.539378
    31 1.666992 -0.000002 -0.000001 -0.000547 0.000864 -0.302758
    32 1.242188 0.000002 0.000000 -0.000006 0.000010 -1.431114
    33 3.449666 0.054213 -1.089087 0.066659 0.035191 -0.167283
    34 1.715521 0.000008 0.000011 0.000159 -0.000427 -0.294122
    35 1.005912 0.000002 0.000007 0.000004 -0.000497 0.118409
    36 0.075534 -0.738749 -0.755818 1.353000 0.331458 -0.576543
    37 2.512458 -0.000008 -0.000008 -0.000002 -0.000001 0.533691
    38 1.328100 -0.000004 -0.000006 0.014697 -0.115761 0.719531
    39 -1.636733 -12.472696 -16.579488 0.957072 -0.218711 3.735153
    40 0.000000 2.744467 -4.266380 0.000000 0.000000 0.000000
    41 0.000000 4.619333 -1.567202 0.000000 0.000000 0.000000
    42 0.000035 4.595706 -0.866276 0.000000 0.000000 0.000000
  time 1
    0 0.000005 -0.663086 -9.140625 -1.570760 -1.391893 -1.570827
    1 2.033348 1.000767 1.937660 1.624201 -1.286305 2.916480
    2 6.028145 0.000003 0.000002 -1.242045 -0.426927 -1.254945
    3 11.692553 0.000081 -0.000005 -0.000015 0.000180 -1.266241
    4 11.481672 -0.000089 -0.000024 0.237044 0.371233 1.024416
    5 3.277650 0.002119 -1.383388 0.099344 -0.198215 -1.488585
    6 1.324282 -0.000008 0.000005 0.000000 -0.021647 -0.479409
    7 0.819336 0.000000 -0.000002 0.000000 0.000000 -0.523560
    8 3.707947 0.109255 -0.568167 0.016471 -0.149448 -1.424709
    9 1.605501 0.000006 -0.000007 -0.000002 0.003014 -0.375164
    10 0.993191 -0.000008 0.000002 0.001475 0.002270 -0.454037
    11 3.786031 0.203224 0.243937 -0.031608 -0.109708 -1.248580
    12 1.684422 -0.000010 0.000009 -0.004744 0.005550 -1.387445
    13 1.256836 0.000005 0.000000 0.000000 0.000000 -0.532283
    14 3.590316 0.299551 1.109803 -0.045805 -0.109325 -0.932372
    15 1.723633 0.000002 0.000001 0.000000 0.000000 -0.907534
    16 1.002930 -0.000002 -0.000003 0.000000 0.000000 -0.445043
    17 0.294307 -0.634094 0.426700 -1.616398 -0.958701 -0.146303
    18 2.633557 0.000002 -0.000006 -0.000002 0.016082 0.114429
    19 1.308564 -0.000001 -0.000002 0.000709 0.002432 0.288578
    20 2.033356 1.000772 -1.937610 -0.103266 0.089287 -2.035076
    21 6.028141 0.000000 -0.000002 -0.266235 0.562316 -1.729594
    22 11.692554 0.000000 -0.000001 0.000034 -0.000024 -1.729215
    23 11.481701 -0.000001 -0.000009 -1.572205 -0.411384 1.132793
    24 2.910431 -0.023166 1.400147 0.112113 -0.102364 -1.126413
    25 1.285156 0.000000 0.000001 0.002338 -0.009083 -0.861154
    26 0.842651 0.000000 -0.000001 -0.000491 0.002508 -0.971609
    27 3.368061 0.007377 0.622456 0.032460 -0.034643 -1.257229
    28 1.610352 0.000000 0.000000 -0.000006 0.113985 -0.814216
    29 1.016602 -0.000004 0.000000 0.012151 -0.013056 -1.186696
    30 3.551620 0.023917 -0.204473 0.005897 0.017583 -1.539378
    31 1.666992 -0.000002 -0.000001 -0.000547 0.000864 -0.302758
    32 1.242188 0.000002 0.000000 -0.000006 0.000010 -1.431114
    33 3.449666 0.054213 -1.089087 0.065882 0.043844 -0.166699
    34 1.715521 0.000008 0.000011 0.000159 -0.000427 -0.294122
    35 1.005912 0.000002 0.000007 0.000004 -0.000497 0.118409
    36 0.075534 -0.738749 -0.755818 1.353000 0.331458 -0.576543
    37 2.512458 -0.000008 -0.000008 -0.000002 -0.000001 0.528058
    38 1.328100 -0.000004 -0.000006 0.014697 -0.115761 0.702620
    39 -1.636733 -12.472696 -16.579488 0.957072 -0.218711 3.735153
    40 0.000000 2.744467 -4.266380 0.000000 0.000000 0.000000
    41 0.000000 4.619333 -1.567202 0.000000 0.000000 0.000000
    42 0.000035 4.595706 -0.866276 0.000000 0.000000 0.000000
  time 2
    0 0.000005 -0.663086 -9.140625 -1.570760 -1.391893 -1.570827
    1 2.033348 1.000767 1.937660 1.703435 -1.284415 2.840473
    2 6.028145 0.000003 0.000002 -1.247221 -0.451413 -1.269559
    3 11.692553 0.000081 -0.000005 -0.000015 0.000036 -1.257594
    4 11.481672 -0.000089 -0.000024 0.242927 0.375494 1.000012
    5 3.281557 0.002119 -1.379481 0.099591 -0.197931 -1.489241
    6 1.324282 -0.000008 0.000005 0.000000 -0.021647 -0.479409
    7 0.819336 0.000000 -0.000002 0.000000 0.000000 -0.523560
    8 3.711854 0.105348 -0.568167 0.016711 -0.149172 -1.425383
    9 1.609408 0.000006 -0.000007 -0.000002 0.003026 -0.375164
    10 0.993191 -0.000008 0.000002 0.001475 0.002258 -0.454037
    11 3.786031 0.203224 0.243937 -0.031318 -0.109480 -1.249239
    12 1.684422 -0.000010 0.000009 -0.004744 0.005550 -1.387445
    13 1.256836 0.000005 0.000000 0.000000 0.000000 -0.532283
    14 3.594223 0.299551 1.113710 -0.045444 -0.109194 -0.933036
    15 1.723633 0.000002 0.000001 0.000000 0.000000 -0.907534
    16 1.002930 -0.000002 -0.000003 0.000000 0.000000 -0.445043
    17 0.298214 -0.634094 0.430606 -1.618900 -0.960512 -0.143918
    18 2.633557 0.000002 -0.000006 0.000010 0.016082 0.116652
    19 1.308564 -0.000001 -0.000002 0.000709 0.002432 0.287008
    20 2.033356 1.000772 -1.937610 -0.103266 0.089287 -2.035076
    21 6.028141 0.000000 -0.000002 -0.278932 0.600593 -1.766077
    22 11.692554 0.000000 -0.000001 0.000034 -0.000024 -1.725702
    23 11.481701 -0.000001 -0.000009 -1.515057 -0.433491 1.135194
    24 2.914337 -0.023166 1.404053 0.112113 -0.102364 -1.126413
    25 1.285156 0.000000 0.000001 0.002338 -0.009083 -0.861154
    26 0.842651 0.000000 -0.000001 -0.000491 0.002508 -0.971609
    27 3.368061 0.007377 0.618550 0.032460 -0.034643 -1.257229
    28 1.610352 0.000000 0.000000 -0.000006 0.113985 -0.814216
    29 1.016602 -0.000004 0.000000 0.012151 -0.013056 -1.186696
    30 3.555526 0.023917 -0.204473 0.005897 0.017583 -1.539378
    31 1.666992 -0.000002 -0.000001 -0.000547 0.000864 -0.302758
    32 1.242188 0.000002 0.000000 -0.000006 0.000010 -1.431114
    33 3.449666 0.054213 -1.089087 0.065106 0.052509 -0.166087
    34 1.711614 0.000008 0.000011 0.000159 -0.000427 -0.294122
    35 1.005912 0.000002 0.000007 0.000004 -0.000497 0.118409
    36 0.075534 -0.738749 -0.759724 1.353000 0.331458 -0.576543
    37 2.512458 -0.000008 -0.000008 -0.000002 -0.000001 0.522425
    38 1.328100 -0.000004 -0.000006 0.014697 -0.115761 0.685737
    39 -1.957055 -12.707078 -16.056034 0.973365 -0.208152 3.696907
    40 0.000000 2.744467 -4.266380 0.000000 0.000000 0.000000
    41 0.000000 4.619333 -1.567202 0.000000 0.000000 0.000000
    42 0.000035 4.595706 -0.866276 0.000000 0.000000 0.000000
  time 3
    0 0.000005 -0.663086 -9.140625 -1.570760 -1.391893 -1.570827
    1 2.033348 1.000767 1.937660 1.826687 -1.277949 2.722365
    2 6.028145 0.000003 0.000002 -1.266394 -0.473163 -1.277869
    3 11.692553 0.000081 -0.000005 -0.000015 0.000024 -1.256391
    4 11.481672 -0.000089 -0.000024 0.248603 0.377992 0.979764
    5 3.281557 0.002119 -1.379481 0.099732 -0.198215 -1.489110
    6 1.324282 -0.000008 0.000005 0.000000 -0.021647 -0.479409
    7 0.819336 0.000000 -0.000002 0.000000 0.000000 -0.523560
    8 3.711854 0.109255 -0.568167 0.016819 -0.149472 -1.425254
    9 1.609408 0.000006 -0.000007 -0.000002 0.003014 -0.375164
    10 0.993191 -0.000008 0.000002 0.001475 0.002258 -0.454037
    11 3.786031 0.203224 0.243937 -0.031270 -0.109780 -1.249075
    12 1.684422 -0.000010 0.000009 -0.004744 0.005550 -1.387445
    13 1.256836 0.000005 0.000000 0.000000 0.000000 -0.532283
    14 3.594223 0.299551 1.109803 -0.045502 -0.109505 -0.932889
    15 1.723633 0.000002 0.000001 0.000000 0.000000 -0.907534
    16 1.002930 -0.000002 -0.000003 0.000000 0.000000 -0.445043
    17 0.298214 -0.634094 0.426700 -1.628208 -0.965398 -0.133339
    18 2.633557 0.000002 -0.000006 0.000130 0.016058 0.123077
    19 1.308564 -0.000001 -0.000002 0.000709 0.002444 0.282579
    20 2.033356 1.000772 -1.937610 -0.103266 0.089287 -2.035076
    21 6.028141 0.000000 -0.000002 -0.293456 0.639135 -1.803828
    22 11.692554 0.000000 -0.000001 0.000034 -0.000024 -1.718356
    23 11.481701 -0.000001 -0.000009 -1.459897 -0.457323 1.137777
    24 2.910431 -0.023166 1.404053 0.112161 -0.102687 -1.126523
    25 1.285156 0.000000 0.000001 0.002338 -0.009083 -0.861154
    26 0.842651 0.000000 -0.000001 -0.000491 0.002508 -0.971609
    27 3.368061 0.007377 0.618550 0.032556 -0.034967 -1.257333
    28 1.610352 0.000000 0.000000 -0.000006 0.113985 -0.814216
    29 1.016602 -0.000004 0.000000 0.012151 -0.013056 -1.186696
    30 3.551620 0.023917 -0.200566 0.006077 0.017296 -1.539494
    31 1.666992 -0.000002 -0.000001 -0.000547 0.000864 -0.302758
    32 1.242188 0.000002 0.000000 -0.000006 0.000010 -1.431114
    33 3.449666 0.054213 -1.085181 0.064104 0.060946 -0.165615
    34 1.711614 0.000008 0.000011 0.000159 -0.000427 -0.294122
    35 1.005912 0.000002 0.000007 0.000004 -0.000497 0.118409
    36 0.075534 -0.738749 -0.755818 1.352854 0.331158 -0.576666
    37 2.512458 -0.000008 -0.000008 -0.000002 -0.000001 0.516792
    38 1.328100 -0.000004 -0.000006 0.014697 -0.115761 0.668855
    39 -2.300815 -12.929741 -15.556019 0.985260 -0.196373 3.659709
    40 0.000000 2.744467 -4.266380 0.000000 0.000000 0.000000
    41 0.000000 4.619333 -1.567202 0.000000 0.000000 0.000000
    42 0.000035 4.595706 -0.866276 0.000000 0.000000 0.000000
  time 4
    0 0.000005 -0.663086 -9.140625 -1.570760 -1.391893 -1.570827
    1 2.033348 1.000767 1.937660 1.980680 -1.263170 2.575183
    2 6.028145 0.000003 0.000002 -1.298124 -0.494289 -1.279970
    3 11.692553 0.000081 -0.000005 -0.000015 0.000036 -1.260752
    4 11.481672 -0.000089 -0.000024 0.254072 0.378484 0.964411
    5 3.281557 0.002119 -1.383388 0.099714 -0.198215 -1.489110
    6 1.324282 -0.000008 0.000005 0.000000 -0.021647 -0.479409
    7 0.819336 0.000000 -0.000002 0.000000 0.000000 -0.523560
    8 3.711854 0.109255 -0.568167 0.016819 -0.149472 -1.425254
    9 1.609408 0.000006 -0.000007 -0.000002 0.003014 -0.375164
    10 0.993191 -0.000008 0.000002 0.001475 0.002258 -0.454037
    11 3.786031 0.203224 0.243937 -0.031270 -0.109780 -1.249075
    12 1.684422 -0.000010 0.000009 -0.004732 0.005550 -1.387445
    13 1.256836 0.000005 0.000000 0.000000 0.000000 -0.532283
    14 3.594223 0.299551 1.109803 -0.045502 -0.109505 -0.932889
    15 1.723633 0.000002 0.000001 0.000000 0.000000 -0.907534
    16 1.002930 -0.000002 -0.000003 0.000000 0.000000 -0.445043
    17 0.298214 -0.634094 0.426700 -1.642586 -0.972770 -0.117123
    18 2.633557 0.000002 -0.000006 0.000285 0.016022 0.133277
    19 1.308564 -0.000001 -0.000002 0.000697 0.002444 0.275499
    20 2.033356 1.000772 -1.937610 -0.103266 0.089287 -2.035076
    21 6.028141 0.000000 -0.000002 -0.309806 0.677767 -1.842846
    22 11.692554 0.000000 -0.000001 0.000034 -0.000024 -1.707444
    23 11.481701 -0.000001 -0.000009 -1.406366 -0.482568 1.138547
    24 2.910431 -0.023166 1.400147 0.112209 -0.102699 -1.126441
    25 1.285156 0.000000 0.000001 0.002338 -0.009083 -0.861154
    26 0.842651 0.000000 -0.000001 -0.000491 0.002508 -0.971609
    27 3.368061 0.007377 0.622456 0.032604 -0.034955 -1.257255
    28 1.610352 0.000000 0.000000 -0.000006 0.113985 -0.814216
    29 1.016602 -0.000004 0.000000 0.012151 -0.013056 -1.186696
    30 3.551620 0.023917 -0.200566 0.006125 0.017320 -1.539407
    31 1.666992 -0.000002 -0.000001 -0.000547 0.000864 -0.302758
    32 1.242188 0.000002 0.000000 -0.000006 0.000010 -1.431114
    33 3.449666 0.054213 -1.089087 0.063384 0.069587 -0.164947
    34 1.711614 0.000008 0.000011 0.000159 -0.000427 -0.294122
    35 1.005912 0.000002 0.000007 0.000004 -0.000497 0.118409
    36 0.075534 -0.738749 -0.755818 1.352909 0.331134 -0.576589
    37 2.512458 -0.000008 -0.000008 -0.000002 -0.000001 0.511172
    38 1.328100 -0.000004 -0.000006 0.014697 -0.115761 0.651944
    39 -2.660201 -13.160217 -15.067723 0.995209 -0.183677 3.622989
    40 0.000000 2.744467 -4.266380 0.000000 0.000000 0.000000
    41 0.000000 4.619333 -1.567202 0.000000 0.000000 0.000000
    42 0.000035 4.595706 -0.866276 0.000000 0.000000 0.000000
  time 5
    0 0.000005 -0.663086 -9.140625 -1.570760 -1.391893 -1.570827
    1 2.033348 1.000767 1.937660 2.146989 -1.236676 2.417332
    2 6.028145 0.000003 0.000002 -1.341453 -0.515798 -1.275290
    3 11.692553 0.000081 -0.000005 -0.000015 0.000036 -1.268722
    4 11.481672 -0.000089 -0.000024 0.259263 0.377788 0.952611
    5 3.281557 0.002119 -1.379481 0.099714 -0.198215 -1.489110
    6 1.324282 -0.000008 0.000005 0.000000 -0.021647 -0.479409
    7 0.819336 0.000000 -0.000002 0.000000 0.000000 -0.523560
    8 3.711854 0.109255 -0.568167 0.016819 -0.149472 -1.425254
    9 1.609408 0.000006 -0.000007 -0.000002 0.003014 -0.375164
    10 0.993191 -0.000008 0.000002 0.001487 0.002258 -0.454037
    11 3.786031 0.203224 0.243937 -0.031270 -0.109780 -1.249075
    12 1.684422 -0.000010 0.000009 -0.004744 0.005550 -1.387445
    13 1.256836 0.000005 0.000000 0.000000 0.000000 -0.532283
    14 3.594223 0.299551 1.109803 -0.045502 -0.109505 -0.932889
    15 1.723633 0.000002 0.000001 0.000000 0.000000 -0.907534
    16 1.002930 -0.000002 -0.000003 0.000000 0.000000 -0.445043
    17 0.298214 -0.634094 0.426700 -1.662168 -0.982385 -0.095097
    18 2.633557 0.000002 -0.000006 0.000489 0.015974 0.146888
    19 1.308564 -0.000001 -0.000002 0.000673 0.002444 0.265909
    20 2.033356 1.000772 -1.937610 -0.103266 0.089287 -2.035076
    21 6.028141 0.000000 -0.000002 -0.328396 0.716087 -1.882950
    22 11.692554 0.000000 -0.000001 0.000034 -0.000024 -1.693071
    23 11.481701 -0.000001 -0.000009 -1.353286 -0.507948 1.135602
    24 2.910431 -0.023166 1.404053 0.112113 -0.102364 -1.126413
    25 1.285156 0.000000 0.000001 0.002338 -0.009083 -0.861154
    26 0.842651 0.000000 -0.000001 -0.000491 0.002508 -0.971609
    27 3.368061 0.007377 0.622456 0.032460 -0.034643 -1.257229
    28 1.610352 0.000000 0.000000 -0.000006 0.113985 -0.814216
    29 1.016602 -0.000004 0.000000 0.012151 -0.013056 -1.186696
    30 3.555526 0.023917 -0.200566 0.005897 0.017583 -1.539378
    31 1.666992 -0.000002 -0.000001 -0.000547 0.000864 -0.302758
    32 1.242188 0.000002 0.000000 -0.000006 0.000010 -1.431114
    33 3.449666 0.054213 -1.085181 0.062848 0.078516 -0.164336
    34 1.711614 0.000008 0.000011 0.000159 -0.000427 -0.294122
    35 1.005912 0.000002 0.000007 0.000004 -0.000497 0.118409
    36 0.075534 -0.738749 -0.755818 1.353000 0.331458 -0.576543
    37 2.512458 -0.000008 -0.000008 -0.000002 -0.000001 0.505539
    38 1.328100 -0.000004 -0.000006 0.014697 -0.115761 0.635061
    39 -3.035213 -13.382880 -14.598958 1.005013 -0.170414 3.586269
    40 0.000000 2.744467 -4.266380 0.000000 0.000000 0.000000
    41 0.000000 4.619333 -1.567202 0.000000 0.000000 0.000000
    42 0.000035 4.595706 -0.866276 0.000000 0.000000 0.000000
  time 6
    0 0.000005 -0.663086 -9.140625 -1.570760 -1.391893 -1.570827
    1 2.033348 1.000767 1.937660 2.307236 -1.196829 2.266942
    2 6.028145 0.000003 0.000002 -1.395999 -0.537932 -1.262109
    3 11.692553 0.000081 -0.000005 -0.000015 0.000036 -1.280302
    4 11.481672 -0.000089 -0.000024 0.263831 0.377009 0.944365
    5 3.281557 0.002119 -1.383388 0.099732 -0.198215 -1.489110
    6 1.324282 -0.000008 0.000005 0.000000 -0.021659 -0.479409
    7 0.819336 0.000000 -0.000002 0.000000 0.000000 -0.523560
    8 3.711854 0.109255 -0.568167 0.016819 -0.149472 -1.425254
    9 1.609408 0.000006 -0.000007 -0.000002 0.003014 -0.375164
    10 0.993191 -0.000008 0.000002 0.001475 0.002258 -0.454037
    11 3.786031 0.203224 0.247844 -0.031270 -0.109780 -1.249075
    12 1.684422 -0.000010 0.000009 -0.004744 0.005550 -1.387445
    13 1.256836 0.000005 0.000000 0.000000 0.000000 -0.532283
    14 3.594223 0.299551 1.109803 -0.045502 -0.109505 -0.932889
    15 1.723633 0.000002 0.000001 0.000000 0.000000 -0.907534
    16 1.002930 -0.000002 -0.000003 0.000000 0.000000 -0.445043
    17 0.298214 -0.634094 0.430606 -1.686888 -0.993796 -0.067478
    18 2.633557 0.000002 -0.000006 0.000753 0.015927 0.163483
    19 1.308564 -0.000001 -0.000002 0.000625 0.002444 0.254121
    20 2.033356 1.000772 -1.937610 -0.103266 0.089287 -2.035076
    21 6.028141 0.000000 -0.000002 -0.349476 0.753299 -1.924502
    22 11.692554 0.000000 -0.000001 0.000034 -0.000024 -1.675718
    23 11.481701 -0.000001 -0.000009 -1.298670 -0.531511 1.126947
    24 2.910431 -0.023166 1.400147 0.112113 -0.102364 -1.126413
    25 1.285156 0.000000 0.000001 0.002338 -0.009083 -0.861154
    26 0.842651 0.000000 -0.000001 -0.000491 0.002508 -0.971609
    27 3.368061 0.007377 0.618550 0.032460 -0.034643 -1.257229
    28 1.610352 0.000000 0.000000 -0.000006 0.113985 -0.814216
    29 1.016602 -0.000004 0.000000 0.012151 -0.013056 -1.186696
    30 3.551620 0.023917 -0.200566 0.005897 0.017583 -1.539378
    31 1.666992 -0.000002 -0.000001 -0.000547 0.000864 -0.302758
    32 1.242188 0.000002 0.000000 -0.000006 0.000010 -1.431114
    33 3.449666 0.054213 -1.085181 0.062100 0.087192 -0.163779
    34 1.711614 0.000008 0.000011 0.000159 -0.000427 -0.294122
    35 1.005912 0.000002 0.000007 0.000004 -0.000497 0.118409
    36 0.075534 -0.738749 -0.755818 1.353000 0.331458 -0.576543
    37 2.512458 -0.000008 -0.000008 -0.000002 -0.000001 0.499906
    38 1.328100 -0.000004 -0.000006 0.014697 -0.115761 0.618179
    39 -3.421943 -13.621168 -14.126288 1.017197 -0.157020 3.548880
    40 0.000000 2.744467 -4.266380 0.000000 0.000000 0.000000
    41 0.000000 4.619333 -1.567202 0.000000 0.000000 0.000000
    42 0.000035 4.595706 -0.866276 0.000000 0.000000 0.000000
  time 7
    0 0.000005 -0.663086 -9.140625 -1.570760 -1.391893 -1.570827
    1 2.033348 1.000767 1.937660 2.449395 -1.143925 2.135959
    2 6.028145 0.000003 0.000002 -1.460801 -0.562323 -1.239758
    3 11.692553 0.000081 -0.000005 -0.000015 0.000036 -1.291881
    4 11.481672 -0.000089 -0.000024 0.267431 0.376559 0.938264
    5 3.281557 0.002119 -1.383388 0.099732 -0.198215 -1.489110
    6 1.324282 -0.000008 0.000005 0.000000 -0.021659 -0.479409
    7 0.819336 0.000000 -0.000002 0.000000 0.000000 -0.523560
    8 3.711854 0.109255 -0.568167 0.016819 -0.149472 -1.425254
    9 1.609408 0.000006 -0.000007 -0.000002 0.003014 -0.375164
    10 0.993191 -0.000008 0.000002 0.001475 0.002258 -0.454037
    11 3.786031 0.203224 0.243937 -0.031270 -0.109780 -1.249075
    12 1.684422 -0.000010 0.000009 -0.004744 0.005550 -1.387445
    13 1.256836 0.000005 0.000000 0.000000 0.000000 -0.532283
    14 3.594223 0.299551 1.113710 -0.045502 -0.109505 -0.932889
    15 1.723633 0.000002 0.000001 0.000000 0.000000 -0.907534
    16 1.002930 -0.000002 -0.000003 0.000000 0.000000 -0.445043
    17 0.298214 -0.634094 0.426700 -1.716612 -1.006544 -0.034527
    18 2.633557 0.000002 -0.000006 0.001052 0.015867 0.182728
    19 1.308564 -0.000001 -0.000002 0.000589 0.002456 0.240380
    20 2.033356 1.000772 -1.937610 -0.103266 0.089287 -2.035076
    21 6.028141 0.000000 -0.000002 -0.373046 0.789624 -1.967322
    22 11.692554 0.000000 -0.000001 0.000034 -0.000024 -1.656023
    23 11.481701 -0.000001 -0.000009 -1.241250 -0.552093 1.111268
    24 2.910431 -0.023166 1.400147 0.112113 -0.102364 -1.126413
    25 1.285156 0.000000 0.000001 0.002338 -0.009083 -0.861154
    26 0.842651 0.000000 -0.000001 -0.000491 0.002508 -0.971609
    27 3.368061 0.007377 0.622456 0.032460 -0.034643 -1.257229
    28 1.610352 0.000000 0.000000 -0.000006 0.113985 -0.814216
    29 1.016602 -0.000004 0.000000 0.012151 -0.013056 -1.186696
    30 3.551620 0.023917 -0.200566 0.005897 0.017583 -1.539378
    31 1.666992 -0.000002 -0.000001 -0.000547 0.000864 -0.302758
    32 1.242188 0.000002 0.000000 -0.000006 0.000010 -1.431114
    33 3.449666 0.054213 -1.085181 0.061352 0.095869 -0.163223
    34 1.715521 0.000008 0.000011 0.000159 -0.000427 -0.294122
    35 1.005912 0.000002 0.000007 0.000004 -0.000497 0.118409
    36 0.075534 -0.738749 -0.755818 1.353000 0.331458 -0.576543
    37 2.512458 -0.000008 -0.000008 -0.000002 -0.000001 0.494273
    38 1.328100 -0.000004 -0.000006 0.014697 -0.115761 0.601296
    39 -3.812580 -13.871176 -13.661430 1.033634 -0.143757 3.510539
    40 0.000000 2.744467 -4.266380 0.000000 0.000000 0.000000
    41 0.000000 4.619333 -1.567202 0.000000 0.000000 0.000000
    42 0.000035 4.595706 -0.866276 0.000000 0.000000 0.000000
  time 8
    0 0.000005 -0.663086 -9.140625 -1.570760 -1.391893 -1.570827
    1 2.033348 1.000767 1.937660 2.569424 -1.079432 2.028289
    2 6.028145 0.000003 0.000002 -1.536052 -0.588394 -1.206232
    3 11.692553 0.000081 -0.000005 -0.000015 0.000036 -1.302483
    4 11.481672 -0.000089 -0.000024 0.269438 0.377337 0.933235
    5 3.281557 0.002119 -1.383388 0.099714 -0.198215 -1.489110
    6 1.324282 -0.000008 0.000005 0.000000 -0.021647 -0.479409
    7 0.819336 0.000000 -0.000002 0.000000 0.000000 -0.523560
    8 3.711854 0.109255 -0.568167 0.016819 -0.149472 -1.425254
    9 1.609408 0.000006 -0.000007 -0.000002 0.003014 -0.375164
    10 0.993191 -0.000008 0.000002 0.001475 0.002258 -0.454037
    11 3.786031 0.203224 0.243937 -0.031270 -0.109780 -1.249075
    12 1.684422 -0.000010 0.000009 -0.004744 0.005550 -1.387445
    13 1.256836 0.000005 0.000000 0.000000 0.000000 -0.532283
    14 3.594223 0.299551 1.109803 -0.045502 -0.109505 -0.932889
    15 1.723633 0.000002 0.000001 0.000000 0.000000 -0.907534
    16 1.002930 -0.000002 -0.000003 0.000000 0.000000 -0.445043
    17 0.298214 -0.634094 0.430606 -1.751206 -1.020125 0.003455
    18 2.633557 0.000002 -0.000006 0.001376 0.015795 0.204164
    19 1.308564 -0.000001 -0.000002 0.000553 0.002456 0.224826
    20 2.033356 1.000772 -1.937610 -0.103266 0.089287 -2.035076
    21 6.028141 0.000000 -0.000002 -0.400019 0.823732 -2.012134
    22 11.692554 0.000000 -0.000001 0.000046 0.000120 -1.633346
    23 11.481701 -0.000001 -0.000009 -1.180575 -0.566823 1.088068
    24 2.914337 -0.027073 1.404053 0.111730 -0.102088 -1.126880
    25 1.285156 0.000000 0.000001 0.002338 -0.009083 -0.861154
    26 0.842651 0.000000 -0.000001 -0.000491 0.002508 -0.971609
    27 3.371967 0.007377 0.622456 0.032041 -0.034416 -1.257724
    28 1.610352 0.000000 0.000000 -0.000006 0.113985 -0.814216
    29 1.016602 -0.000004 0.000000 0.012151 -0.013056 -1.186696
    30 3.555526 0.023917 -0.200566 0.005442 0.017679 -1.539930
    31 1.666992 -0.000002 -0.000001 -0.000547 0.000864 -0.302758
    32 1.242188 0.000002 0.000000 -0.000006 0.000010 -1.431114
    33 3.453572 0.054213 -1.085181 0.060618 0.105014 -0.163140
    34 1.715521 0.000008 0.000011 0.000159 -0.000427 -0.294122
    35 1.005912 0.000002 0.000007 0.000004 -0.000497 0.118409
    36 0.079440 -0.734842 -0.755818 1.352800 0.331901 -0.577095
    37 2.512458 -0.000008 -0.000008 -0.000002 -0.000001 0.488641
    38 1.328100 -0.000004 -0.000006 0.014697 -0.115761 0.584385
    39 -4.207124 -14.144622 -13.180946 1.056632 -0.130712 3.470766
    40 0.000000 2.744467 -4.266380 0.000000 0.000000 0.000000
    41 0.000000 4.619333 -1.567202 0.000000 0.000000 0.000000
    42 0.000035 4.595706 -0.866276 0.000000 0.000000 0.000000
  time 9
    0 0.000005 -0.663086 -9.140625 -1.570760 -1.391893 -1.570827
    1 2.033348 1.000767 1.937660 2.668430 -1.005367 1.942694
    2 6.028145 0.000003 0.000002 -1.621465 -0.615281 -1.159334
    3 11.692553 0.000081 -0.000005 -0.000015 0.000036 -1.311054
    4 11.481672 -0.000089 -0.000024 0.269438 0.379959 0.928810
    5 3.281557 0.002119 -1.383388 0.099732 -0.198215 -1.489110
    6 1.324282 -0.000008 0.000005 0.000000 -0.021647 -0.479409
    7 0.819336 0.000000 -0.000002 0.000000 0.000000 -0.523560
    8 3.711854 0.109255 -0.568167 0.016819 -0.149472 -1.425254
    9 1.609408 0.000006 -0.000007 -0.000002 0.003014 -0.375164
    10 0.993191 -0.000008 0.000002 0.001475 0.002258 -0.454037
    11 3.786031 0.203224 0.243937 -0.031270 -0.109780 -1.249075
    12 1.684422 -0.000010 0.000009 -0.004744 0.005550 -1.387445
    13 1.256836 0.000005 0.000000 0.000000 0.000000 -0.532283
    14 3.594223 0.299551 1.109803 -0.045502 -0.109505 -0.932889
    15 1.723633 0.000002 0.000001 0.000000 0.000000 -0.907534
    16 1.002930 -0.000002 -0.000003 0.000000 0.000000 -0.445043
    17 0.298214 -0.634094 0.430606 -1.790470 -1.034065 0.046249
    18 2.637464 0.000002 -0.000006 0.001760 0.015711 0.227458
    19 1.308564 -0.000001 -0.000002 0.000505 0.002468 0.207772
    20 2.033356 1.000772 -1.937610 -0.103266 0.089287 -2.035076
    21 6.028141 0.000000 -0.000002 -0.429647 0.856021 -2.058304
    22 11.692554 0.000000 -0.000001 0.000034 -0.000024 -1.608008
    23 11.481701 -0.000001 -0.000009 -1.113660 -0.574221 1.053176
    24 2.910431 -0.023166 1.400147 0.112113 -0.102364 -1.126413
    25 1.285156 0.000000 0.000001 0.002338 -0.009083 -0.861154
    26 0.842651 0.000000 -0.000001 -0.000491 0.002508 -0.971609
    27 3.368061 0.007377 0.618550 0.032460 -0.034643 -1.257229
    28 1.610352 0.000000 0.000000 -0.000006 0.113985 -0.814216
    29 1.016602 -0.000004 0.000000 0.012151 -0.013056 -1.186696
    30 3.551620 0.023917 -0.204473 0.005897 0.017583 -1.539378
    31 1.666992 -0.000002 -0.000001 -0.000547 0.000864 -0.302758
    32 1.242188 0.000002 0.000000 -0.000006 0.000010 -1.431114
    33 3.449666 0.054213 -1.089087 0.059884 0.113211 -0.162111
    34 1.715521 0.000008 0.000011 0.000159 -0.000427 -0.294122
    35 1.005912 0.000002 0.000007 0.000004 -0.000497 0.118409
    36 0.075534 -0.738749 -0.755818 1.353000 0.331458 -0.576543
    37 2.512458 -0.000008 -0.000008 -0.000002 -0.000001 0.483020
    38 1.328100 -0.000004 -0.000006 0.014697 -0.115761 0.567503
    39 -4.609480 -14.433693 -12.688744 1.087631 -0.118234 3.429181
    40 0.000000 2.744467 -4.266380 0.000000 0.000000 0.000000
    41 0.000000 4.619333 -1.567202 0.000000 0.000000 0.000000
    42 0.000035 4.595706 -0.866276 0.000000 0.000000 0.000000
  time 10
    0 0.000005 -0.663086 -9.140625 -1.570760 -1.391893 -1.570827
    1 2.033348 1.000767 1.937660 2.749732 -0.923911 1.875811
    2 6.028145 0.000003 0.000002 -1.717710 -0.642024 -1.096676
    3 11.692553 0.000081 -0.000005 -0.000015 0.000036 -1.314964
    4 11.481672 -0.000089 -0.000024 0.266392 0.385243 0.923245
    5 3.281557 0.002119 -1.383388 0.099714 -0.198215 -1.489110
    6 1.324282 -0.000008 0.000005 0.000000 -0.021647 -0.479409
    7 0.819336 0.000000 -0.000002 0.000000 0.000000 -0.523560
    8 3.711854 0.109255 -0.568167 0.016819 -0.149472 -1.425254
    9 1.609408 0.000006 -0.000007 -0.000002 0.003014 -0.375164
    10 0.993191 -0.000008 0.000002 0.001487 0.002258 -0.454037
    11 3.786031 0.203224 0.243937 -0.031270 -0.109780 -1.249075
    12 1.684422 -0.000010 0.000009 -0.004744 0.005550 -1.387445
    13 1.256836 0.000005 0.000000 0.000000 0.000000 -0.532283
    14 3.594223 0.299551 1.109803 -0.045502 -0.109505 -0.932889
    15 1.723633 0.000002 0.000001 0.000000 0.000000 -0.907534
    16 1.002930 -0.000002 -0.000003 0.000000 0.000000 -0.445043
    17 0.298214 -0.634094 0.430606 -1.834072 -1.047848 0.093422
    18 2.633557 0.000002 -0.000006 0.002131 0.015627 0.252153
    19 1.308564 -0.000001 -0.000002 0.000457 0.002468 0.189427
    20 2.033356 1.000772 -1.937610 -0.103266 0.089287 -2.035076
    21 6.028141 0.000000 -0.000002 -0.462513 0.885870 -2.106374
    22 11.692554 0.000000 -0.000001 0.000034 -0.000024 -1.580541
    23 11.481701 -0.000001 -0.000009 -1.041953 -0.570903 1.009674
    24 2.910431 -0.023166 1.404053 0.112113 -0.102364 -1.126413
    25 1.285156 0.000000 0.000001 0.002338 -0.009083 -0.861154
    26 0.842651 0.000000 -0.000001 -0.000491 0.002508 -0.971609
    27 3.368061 0.007377 0.622456 0.032460 -0.034643 -1.257229
    28 1.610352 0.000000 0.000000 -0.000006 0.113985 -0.814216
    29 1.016602 -0.000004 0.000000 0.012151 -0.013056 -1.186696
    30 3.551620 0.023917 -0.200566 0.005897 0.017583 -1.539378
    31 1.666992 -0.000002 -0.000001 -0.000547 0.000864 -0.302758
    32 1.242188 0.000002 0.000000 -0.000006 0.000010 -1.431114
    33 3.449666 0.054213 -1.085181 0.059150 0.121888 -0.161555
    34 1.715521 0.000008 0.000011 0.000159 -0.000427 -0.294122
    35 1.005912 0.000002 0.000007 0.000004 -0.000497 0.118409
    36 0.075534 -0.738749 -0.755818 1.353000 0.331458 -0.576543
    37 2.512458 -0.000008 -0.000008 -0.000002 -0.000001 0.477387
    38 1.328100 -0.000004 -0.000006 0.014697 -0.115761 0.550620
    39 -5.015742 -14.754015 -12.180916 1.129301 -0.106149 3.385308
    40 0.000000 2.744467 -4.266380 0.000000 0.000000 0.000000
    41 0.000000 4.619333 -1.567202 0.000000 0.000000 0.000000
    42 0.000035 4.595706 -0.866276 0.000000 0.000000 0.000000
  time 11
    0 0.000005 -0.663086 -9.140625 -1.570760 -1.391893 -1.570827
    1 2.033348 1.000767 1.937660 2.816986 -0.836955 1.823890
    2 6.028145 0.000003 0.000002 -1.824596 -0.666943 -1.016156
    3 11.692553 0.000081 -0.000005 -0.000039 0.000060 -1.310302
    4 11.481672 -0.000089 -0.000024 0.259747 0.393436 0.913122
    5 3.281557 0.002119 -1.383388 0.099432 -0.198445 -1.488454
    6 1.324282 -0.000008 0.000005 0.000000 -0.021659 -0.479409
    7 0.819336 0.000000 -0.000002 0.000000 0.000000 -0.523560
    8 3.707947 0.105348 -0.572073 0.016555 -0.149687 -1.424613
    9 1.609408 0.000006 -0.000007 -0.000002 0.003014 -0.375164
    10 0.993191 -0.000008 0.000002 0.001475 0.002258 -0.454037
    11 3.786031 0.203224 0.243937 -0.031571 -0.109948 -1.248457
    12 1.684422 -0.000010 0.000009 -0.004744 0.005550 -1.387445
    13 1.256836 0.000005 0.000000 0.000000 0.000000 -0.532283
    14 3.590316 0.299551 1.105897 -0.045848 -0.109565 -0.932225
    15 1.723633 0.000002 0.000001 0.000000 0.000000 -0.907534
    16 1.002930 -0.000002 -0.000003 0.000000 0.000000 -0.445043
    17 0.294307 -0.634094 0.426700 -1.881910 -1.060811 0.145364
    18 2.637464 0.000002 -0.000006 0.002551 0.015543 0.277913
    19 1.308564 -0.000001 -0.000002 0.000409 0.002480 0.169932
    20 2.033356 1.000772 -1.937610 -0.103266 0.089287 -2.035076
    21 6.028141 0.000000 -0.000002 -0.498532 0.913191 -2.156436
    22 11.692554 0.000000 -0.000001 0.000034 -0.000024 -1.551370
    23 11.481701 -0.000001 -0.000009 -0.980464 -0.564513 0.970205
    24 2.910431 -0.023166 1.404053 0.112113 -0.102364 -1.126413
    25 1.285156 0.000000 0.000001 0.002338 -0.009083 -0.861154
    26 0.842651 0.000000 -0.000001 -0.000491 0.002508 -0.971609
    27 3.368061 0.007377 0.618550 0.032460 -0.034643 -1.257229
    28 1.610352 0.000000 0.000000 -0.000006 0.113985 -0.814216
    29 1.016602 -0.000004 0.000000 0.012151 -0.013056 -1.186696
    30 3.551620 0.023917 -0.204473 0.005897 0.017583 -1.539378
    31 1.666992 -0.000002 -0.000001 -0.000547 0.000864 -0.302758
    32 1.242188 0.000002 0.000000 -0.000006 0.000010 -1.431114
    33 3.449666 0.054213 -1.089087 0.058416 0.130553 -0.161026
    34 1.711614 0.000008 0.000011 0.000159 -0.000427 -0.294122
    35 1.005912 0.000002 0.000007 0.000004 -0.000497 0.118409
    36 0.075534 -0.738749 -0.755818 1.353000 0.331458 -0.576543
    37 2.512458 -0.000008 -0.000008 -0.000002 -0.000001 0.471754
    38 1.328100 -0.000004 -0.000006 0.014697 -0.115761 0.533738
    39 -5.437630 -15.054806 -11.692620 1.167438 -0.098732 3.344963
    40 0.000000 2.744467 -4.266380 0.000000 0.000000 0.000000
    41 0.000000 4.619333 -1.567202 0.000000 0.000000 0.000000
    42 0.000035 4.595706 -0.866276 0.000000 0.000000 0.000000
  time 12
    0 0.000005 -0.663086 -9.140625 -1.570760 -1.391893 -1.570827
    1 2.033348 1.000767 1.937660 2.873273 -0.746388 1.783799
    2 6.028145 0.000003 0.000002 -1.942889 -0.691813 -0.912521
    3 11.692553 0.000081 -0.000005 -0.000015 0.000036 -1.290678
    4 11.481672 -0.000089 -0.000024 0.247219 0.405685 0.899243
    5 3.281557 0.002119 -1.383388 0.099732 -0.198215 -1.489110
    6 1.324282 -0.000008 0.000005 0.000000 -0.021647 -0.479409
    7 0.819336 0.000000 -0.000002 0.000000 0.000000 -0.523560
    8 3.711854 0.109255 -0.572073 0.016819 -0.149472 -1.425254
    9 1.609408 0.000006 -0.000007 -0.000002 0.003014 -0.375164
    10 0.993191 -0.000008 0.000002 0.001475 0.002258 -0.454037
    11 3.786031 0.203224 0.243937 -0.031270 -0.109780 -1.249075
    12 1.684422 -0.000010 0.000009 -0.004744 0.005550 -1.387445
    13 1.256836 0.000005 0.000000 0.000000 0.000000 -0.532283
    14 3.594223 0.299551 1.109803 -0.045502 -0.109505 -0.932889
    15 1.723633 0.000002 0.000001 0.000000 0.000000 -0.907534
    16 1.002930 -0.000002 -0.000003 0.000000 0.000000 -0.445043
    17 0.298214 -0.634094 0.426700 -1.931950 -1.073343 0.198434
    18 2.633557 0.000002 -0.000006 0.002946 0.015447 0.304374
    19 1.308564 -0.000001 -0.000002 0.000373 0.002480 0.149670
    20 2.033356 1.000772 -1.937610 -0.103266 0.089287 -2.035076
    21 6.028141 0.000000 -0.000002 -0.537787 0.936920 -2.208400
    22 11.692554 0.000000 -0.000001 -0.000002 0.000120 -1.520443
    23 11.481701 -0.000001 -0.000009 -0.909028 -0.541690 0.919590
    24 2.914337 -0.027073 1.404053 0.111778 -0.102112 -1.126797
    25 1.285156 0.000000 0.000001 0.002338 -0.009083 -0.861154
    26 0.842651 0.000000 -0.000001 -0.000491 0.002508 -0.971609
    27 3.371967 0.007377 0.622456 0.032101 -0.034440 -1.257646
    28 1.610352 0.000000 0.000000 -0.000006 0.113985 -0.814216
    29 1.016602 -0.000004 0.000000 0.012151 -0.013056 -1.186696
    30 3.555526 0.023917 -0.200566 0.005489 0.017667 -1.539813
    31 1.666992 -0.000002 -0.000001 -0.000547 0.000864 -0.302758
    32 1.242188 0.000002 0.000000 -0.000006 0.000010 -1.431114
    33 3.453572 0.054213 -1.085181 0.057710 0.139649 -0.160915
    34 1.715521 0.000008 0.000011 0.000159 -0.000427 -0.294122
    35 1.002005 0.000002 0.000007 0.000004 -0.000497 0.118409
    36 0.079440 -0.734842 -0.755818 1.352836 0.331853 -0.577018
    37 2.512458 -0.000008 -0.000008 -0.000002 -0.000001 0.466122
    38 1.328100 -0.000004 -0.000006 0.014697 -0.115761 0.516827
    39 -5.855611 -15.398566 -11.149634 1.223454 -0.088741 3.300040
    40 0.000000 2.744467 -4.266380 0.000000 0.000000 0.000000
    41 0.000000 4.619333 -1.567202 0.000000 0.000000 0.000000
    42 0.000035 4.595706 -0.866276 0.000000 0.000000 0.000000
  time 13
    0 0.000005 -0.663086 -9.140625 -1.570760 -1.391893 -1.570827
    1 2.033348 1.000767 1.937660 2.921044 -0.653847 1.752986
    2 6.028145 0.000003 0.000002 -2.072590 -0.712363 -0.782906
    3 11.692553 0.000081 -0.000005 -0.000015 0.000024 -1.250677
    4 11.481672 -0.000089 -0.000024 0.228322 0.421866 0.874772
    5 3.281557 0.002119 -1.379481 0.099732 -0.198215 -1.489110
    6 1.324282 -0.000008 0.000005 0.000000 -0.021647 -0.479409
    7 0.819336 0.000000 -0.000002 0.000000 0.000000 -0.523560
    8 3.711854 0.109255 -0.568167 0.016831 -0.149472 -1.425254
    9 1.609408 0.000006 -0.000007 -0.000002 0.003014 -0.375164
    10 0.993191 -0.000008 0.000002 0.001475 0.002258 -0.454037
    11 3.786031 0.203224 0.243937 -0.031270 -0.109780 -1.249075
    12 1.684422 -0.000010 0.000009 -0.004744 0.005550 -1.387445
    13 1.256836 0.000005 0.000000 0.000000 0.000000 -0.532283
    14 3.594223 0.299551 1.113710 -0.045502 -0.109505 -0.932889
    15 1.723633 0.000002 0.000001 0.000000 0.000000 -0.907534
    16 1.002930 -0.000002 -0.000003 0.000000 0.000000 -0.445043
    17 0.298214 -0.634094 0.426700 -1.984625 -1.084337 0.254582
    18 2.633557 0.000002 -0.000006 0.003378 0.015351 0.331078
    19 1.308564 -0.000001 -0.000002 0.000325 0.002492 0.128744
    20 2.033356 1.000772 -1.937610 -0.103266 0.089287 -2.035076
    21 6.028141 0.000000 -0.000002 -0.579616 0.957544 -2.261812
    22 11.692554 0.000000 -0.000001 0.000034 -0.000024 -1.487173
    23 11.481701 -0.000001 -0.000009 -0.841119 -0.509696 0.867206
    24 2.910431 -0.023166 1.404053 0.112113 -0.102364 -1.126413
    25 1.285156 0.000000 0.000001 0.002338 -0.009083 -0.861154
    26 0.842651 0.000000 -0.000001 -0.000491 0.002508 -0.971609
    27 3.368061 0.007377 0.618550 0.032460 -0.034643 -1.257229
    28 1.610352 0.000000 0.000000 -0.000006 0.113985 -0.814216
    29 1.016602 -0.000004 0.000000 0.012151 -0.013056 -1.186696
    30 3.551620 0.023917 -0.200566 0.005897 0.017583 -1.539378
    31 1.666992 -0.000002 -0.000001 -0.000547 0.000864 -0.302758
    32 1.242188 0.000002 0.000000 -0.000006 0.000010 -1.431114
    33 3.449666 0.054213 -1.089087 0.056962 0.147906 -0.159969
    34 1.711614 0.000008 0.000011 0.000159 -0.000427 -0.294122
    35 1.005912 0.000002 0.000007 0.000004 -0.000497 0.118409
    36 0.075534 -0.738749 -0.755818 1.353000 0.331458 -0.576543
    37 2.512458 -0.000008 -0.000008 -0.000002 -0.000001 0.460501
    38 1.328100 -0.000004 -0.000006 0.014697 -0.115761 0.499944
    39 -6.281406 -15.738420 -10.598836 1.284228 -0.080626 3.255689
    40 0.000000 2.744467 -4.266380 0.000000 0.000000 0.000000
    41 0.000000 4.619333 -1.567202 0.000000 0.000000 0.000000
    42 0.000035 4.595706 -0.866276 0.000000 0.000000 0.000000
  time 14
    0 0.000005 -0.663086 -9.140625 -1.570760 -1.391893 -1.570827
    1 2.033348 1.000767 1.937660 2.962224 -0.561013 1.729519
    2 6.028145 0.000003 0.000002 -2.207275 -0.717932 -0.636003
    3 11.692553 0.000081 -0.000005 -0.000015 0.000024 -1.195938
    4 11.481672 -0.000089 -0.000024 0.204857 0.440956 0.838836
    5 3.281557 0.006025 -1.379481 0.099467 -0.198144 -1.488880
    6 1.324282 -0.000008 0.000005 0.000000 -0.021659 -0.479409
    7 0.819336 0.000000 -0.000002 0.000000 0.000000 -0.523560
    8 3.711854 0.109255 -0.568167 0.016591 -0.149388 -1.424966
    9 1.609408 0.000006 -0.000007 -0.000002 0.003014 -0.375164
    10 0.993191 -0.000008 0.000002 0.001475 0.002258 -0.454037
    11 3.786031 0.203224 0.247844 -0.031487 -0.109660 -1.248827
    12 1.684422 -0.000010 0.000009 -0.004744 0.005550 -1.387445
    13 1.256836 0.000005 0.000000 0.000000 0.000000 -0.532283
    14 3.594223 0.299551 1.113710 -0.045675 -0.109325 -0.932630
    15 1.723633 0.000002 0.000001 0.000000 0.000000 -0.907534
    16 1.002930 -0.000002 -0.000003 0.000000 0.000000 -0.445043
    17 0.298214 -0.634094 0.430606 -2.037901 -1.093621 0.311685
    18 2.637464 0.000002 -0.000006 0.003797 0.015255 0.357691
    19 1.308564 -0.000001 -0.000002 0.000266 0.002492 0.107436
    20 2.033356 1.000772 -1.937610 -0.103266 0.089287 -2.035076
    21 6.028141 0.000000 -0.000002 -0.625179 0.973556 -2.318302
    22 11.692554 0.000000 -0.000001 0.000022 -0.000024 -1.450497
    23 11.481701 -0.000001 -0.000009 -0.779721 -0.470372 0.818131
    24 2.910431 -0.023166 1.400147 0.112125 -0.102675 -1.126578
    25 1.285156 0.000000 0.000001 0.002338 -0.009083 -0.861154
    26 0.842651 0.000000 -0.000001 -0.000491 0.002508 -0.971609
    27 3.368061 0.007377 0.618550 0.032508 -0.034943 -1.257411
    28 1.610352 0.000000 0.000000 -0.000006 0.113985 -0.814216
    29 1.016602 -0.000004 0.000000 0.012151 -0.013056 -1.186696
    30 3.551620 0.023917 -0.204473 0.006029 0.017296 -1.539581
    31 1.666992 -0.000002 -0.000001 -0.000547 0.000864 -0.302758
    32 1.242188 0.000002 0.000000 -0.000006 0.000010 -1.431114
    33 3.449666 0.054213 -1.089087 0.055988 0.156404 -0.159636
    34 1.715521 0.000008 0.000011 0.000159 -0.000427 -0.294122
    35 1.005912 0.000002 0.000007 0.000004 -0.000497 0.118409
    36 0.075534 -0.738749 -0.755818 1.352836 0.331194 -0.576742
    37 2.512458 -0.000008 -0.000008 -0.000002 -0.000001 0.454868
    38 1.328100 -0.000004 -0.000006 0.014697 -0.115761 0.483062
    39 -6.703294 -16.089994 -10.044132 1.347814 -0.073340 3.212197
    40 0.000000 2.744467 -4.266380 0.000000 0.000000 0.000000
    41 0.000000 4.619333 -1.567202 0.000000 0.000000 0.000000
    42 0.000035 4.595706 -0.866276 0.000000 0.000000 0.000000
  time 15
    0 0.000005 -0.663086 -9.140625 -1.570760 -1.391893 -1.570827
    1 2.033348 1.000767 1.937660 2.998112 -0.469312 1.711774
    2 6.028145 0.000003 0.000002 -2.334292 -0.700504 -0.488909
    3 11.692553 0.000081 -0.000005 -0.000015 0.000036 -1.137440
    4 11.481672 -0.000089 -0.000024 0.179869 0.462175 0.794453
    5 3.281557 0.002119 -1.379481 0.099732 -0.198215 -1.489110
    6 1.324282 -0.000008 0.000005 0.000000 -0.021647 -0.479409
    7 0.819336 0.000000 -0.000002 0.000000 0.000000 -0.523560
    8 3.711854 0.109255 -0.568167 0.016819 -0.149472 -1.425254
    9 1.609408 0.000006 -0.000007 -0.000002 0.003014 -0.375164
    10 0.993191 -0.000008 0.000002 0.001475 0.002258 -0.454037
    11 3.786031 0.203224 0.247844 -0.031270 -0.109780 -1.249075
    12 1.684422 -0.000010 0.000009 -0.004744 0.005550 -1.387445
    13 1.256836 0.000005 0.000000 0.000000 0.000000 -0.532283
    14 3.594223 0.299551 1.113710 -0.045502 -0.109505 -0.932889
    15 1.723633 0.000002 0.000001 0.000000 0.000000 -0.907534
    16 1.002930 -0.000002 -0.000003 0.000000 0.000000 -0.445043
    17 0.298214 -0.634094 0.426700 -2.091244 -1.101727 0.368396
    18 2.633557 0.000002 -0.000006 0.004204 0.015184 0.383726
    19 1.308564 -0.000001 -0.000002 0.000218 0.002504 0.085883
    20 2.033356 1.000772 -1.937610 -0.103266 0.089287 -2.035076
    21 6.028141 0.000000 -0.000002 -0.674227 0.982160 -2.377869
    22 11.692554 0.000000 -0.000001 0.000022 -0.000024 -1.407486
    23 11.481701 -0.000001 -0.000009 -0.726732 -0.425756 0.772228
    24 2.910431 -0.023166 1.404053 0.112197 -0.102136 -1.126166
    25 1.285156 0.000000 0.000001 0.002338 -0.009083 -0.861154
    26 0.842651 0.000000 -0.000001 -0.000491 0.002508 -0.971609
    27 3.368061 0.007377 0.618550 0.032508 -0.034404 -1.256994
    28 1.610352 0.000000 0.000000 -0.000006 0.113985 -0.814216
    29 1.016602 -0.000004 0.000000 0.012151 -0.013056 -1.186696
    30 3.551620 0.027823 -0.200566 0.005885 0.017823 -1.539174
    31 1.666992 -0.000002 -0.000001 -0.000547 0.000864 -0.302758
    32 1.242188 0.000002 0.000000 -0.000006 0.000010 -1.431114
    33 3.449666 0.054213 -1.089087 0.055762 0.165320 -0.158635
    34 1.715521 0.000008 0.000011 0.000159 -0.000427 -0.294122
    35 1.005912 0.000002 0.000007 0.000004 -0.000497 0.118409
    36 0.075534 -0.734842 -0.755818 1.353200 0.331614 -0.576221
    37 2.512458 -0.000008 -0.000008 -0.000002 -0.000001 0.449235
    38 1.328100 -0.000004 -0.000006 0.014697 -0.115761 0.466151
    39 -7.109556 -16.465005 -9.501147 1.411688 -0.066054 3.170040
    40 0.000000 2.744467 -4.266380 0.000000 0.000000 0.000000
    41 0.000000 4.619333 -1.567202 0.000000 0.000000 0.000000
    42 0.000035 4.595706 -0.866276 0.000000 0.000000 0.000000
  time 16
    0 0.000005 -0.663086 -9.140625 -1.570760 -1.391893 -1.570827
    1 2.033348 1.000767 1.937660 3.029815 -0.380173 1.698668
    2 6.028145 0.000003 0.000002 -2.439931 -0.659261 -0.361395
    3 11.692553 0.000081 -0.000005 -0.000015 0.000036 -1.087740
    4 11.481672 -0.000089 -0.000024 0.155781 0.482617 0.745108
    5 3.281557 0.002119 -1.383388 0.099714 -0.198215 -1.489110
    6 1.324282 -0.000008 0.000005 0.000000 -0.021647 -0.479409
    7 0.819336 0.000000 -0.000002 0.000000 0.000000 -0.523560
    8 3.711854 0.109255 -0.572073 0.016819 -0.149472 -1.425254
    9 1.609408 0.000006 -0.000007 -0.000002 0.003014 -0.375164
    10 0.993191 -0.000008 0.000002 0.001475 0.002258 -0.454037
    11 3.786031 0.203224 0.243937 -0.031270 -0.109780 -1.249075
    12 1.684422 -0.000010 0.000009 -0.004744 0.005550 -1.387445
    13 1.256836 0.000005 0.000000 0.000000 0.000000 -0.532283
    14 3.594223 0.299551 1.109803 -0.045502 -0.109505 -0.932889
    15 1.723633 0.000002 0.000001 0.000000 0.000000 -0.907534
    16 1.002930 -0.000002 -0.000003 0.000000 0.000000 -0.445043
    17 0.298214 -0.634094 0.430606 -2.142251 -1.108050 0.423157
    18 2.633557 0.000002 -0.000006 0.004600 0.015100 0.408908
    19 1.308564 -0.000001 -0.000002 0.000158 0.002504 0.064434
    20 2.033356 1.000772 -1.937610 -0.103266 0.089287 -2.035076
    21 6.028141 0.000000 -0.000002 -0.724272 0.985664 -2.437709
    22 11.692554 0.000000 -0.000001 0.000022 -0.000024 -1.361707
    23 11.481701 -0.000001 -0.000009 -0.679620 -0.378718 0.731355
    24 2.910431 -0.023166 1.400147 0.112113 -0.102364 -1.126413
    25 1.285156 0.000000 0.000001 0.002338 -0.009083 -0.861154
    26 0.842651 0.000000 -0.000001 -0.000491 0.002508 -0.971609
    27 3.368061 0.007377 0.622456 0.032460 -0.034643 -1.257229
    28 1.610352 0.000000 0.000000 -0.000006 0.113985 -0.814216
    29 1.016602 -0.000004 0.000000 0.012151 -0.013056 -1.186696
    30 3.551620 0.023917 -0.200566 0.005897 0.017583 -1.539378
    31 1.666992 -0.000002 -0.000001 -0.000547 0.000864 -0.302758
    32 1.242188 0.000002 0.000000 -0.000006 0.000010 -1.431114
    33 3.449666 0.054213 -1.085181 0.054831 0.173937 -0.158412
    34 1.711614 0.000008 0.000011 0.000159 -0.000427 -0.294122
    35 1.002005 0.000002 0.000007 0.000004 -0.000497 0.118409
    36 0.075534 -0.738749 -0.755818 1.353000 0.331458 -0.576543
    37 2.512458 -0.000008 -0.000008 -0.000002 -0.000001 0.443603
    38 1.328100 -0.000004 -0.000006 0.014697 -0.115761 0.449268
    39 -7.496287 -16.840016 -8.973787 1.473543 -0.057852 3.129886
    40 0.000000 2.744467 -4.266380 0.000000 0.000000 0.000000
    41 0.000000 4.619333 -1.567202 0.000000 0.000000 0.000000
    42 0.000035 4.595706 -0.866276 0.000000 0.000000 0.000000
  time 17
    0 0.000005 -0.663086 -9.140625 -1.570760 -1.391893 -1.570827
    1 2.033348 1.000767 1.937660 3.057959 -0.294980 1.689351
    2 6.028145 0.000003 0.000002 -2.521318 -0.603086 -0.258047
    3 11.692553 0.000081 -0.000005 -0.000003 0.000024 -1.047363
    4 11.481672 -0.000089 -0.000024 0.133424 0.500723 0.693416
    5 3.281557 0.002119 -1.383388 0.099714 -0.198215 -1.489110
    6 1.324282 -0.000008 0.000005 0.000000 -0.021647 -0.479409
    7 0.819336 0.000000 -0.000002 0.000000 0.000000 -0.523560
    8 3.711854 0.109255 -0.568167 0.016819 -0.149472 -1.425254
    9 1.609408 0.000006 -0.000007 -0.000002 0.003014 -0.375164
    10 0.993191 -0.000008 0.000002 0.001475 0.002258 -0.454037
    11 3.786031 0.203224 0.243937 -0.031270 -0.109780 -1.249075
    12 1.684422 -0.000010 0.000009 -0.004744 0.005550 -1.387445
    13 1.256836 0.000005 0.000000 0.000000 0.000000 -0.532283
    14 3.594223 0.299551 1.109803 -0.045502 -0.109505 -0.932889
    15 1.723633 0.000002 0.000001 0.000000 0.000000 -0.907534
    16 1.002930 -0.000002 -0.000003 0.000000 0.000000 -0.445043
    17 0.298214 -0.634094 0.430606 -2.189622 -1.112922 0.474579
    18 2.637464 0.000002 -0.000006 0.004971 0.015028 0.432780
    19 1.308564 -0.000001 -0.000002 0.000110 0.002516 0.043335
    20 2.033356 1.000772 -1.937610 -0.103266 0.089287 -2.035076
    21 6.028141 0.000000 -0.000002 -0.773155 0.984156 -2.495828
    22 11.692554 0.000000 -0.000001 0.000022 -0.000024 -1.313906
    23 11.481701 -0.000001 -0.000009 -0.638658 -0.332533 0.695194
    24 2.914337 -0.023166 1.400147 0.112113 -0.102364 -1.126413
    25 1.285156 0.000000 0.000001 0.002338 -0.009083 -0.861154
    26 0.842651 0.000000 -0.000001 -0.000491 0.002508 -0.971587
    27 3.368061 0.007377 0.618550 0.032460 -0.034643 -1.257229
    28 1.610352 0.000000 0.000000 -0.000006 0.113985 -0.814216
    29 1.016602 -0.000004 0.000000 0.012151 -0.013056 -1.186696
    30 3.551620 0.023917 -0.200566 0.005897 0.017583 -1.539378
    31 1.666992 -0.000002 -0.000001 -0.000547 0.000864 -0.302758
    32 1.242188 0.000002 0.000000 -0.000006 0.000010 -1.431114
    33 3.449666 0.054213 -1.089087 0.054125 0.182602 -0.157912
    34 1.711614 0.000008 0.000011 0.000159 -0.000427 -0.294122
    35 1.002005 0.000002 0.000007 0.000004 -0.000497 0.118409
    36 0.075534 -0.738749 -0.759724 1.353000 0.331458 -0.576543
    37 2.512458 -0.000008 -0.000008 -0.000002 -0.000001 0.437970
    38 1.328100 -0.000004 -0.000006 0.014697 -0.115761 0.432386
    39 -7.855672 -17.195496 -8.469865 1.531361 -0.048210 3.092593
    40 0.000000 2.744467 -4.266380 0.000000 0.000000 0.000000
    41 0.000000 4.619333 -1.567202 0.000000 0.000000 0.000000
    42 0.000035 4.595706 -0.866276 0.000000 0.000000 0.000000
  time 18
    0 0.000005 -0.663086 -9.140625 -1.570760 -1.391893 -1.570827
    1 2.033348 1.000767 1.937660 3.082975 -0.215036 1.683049
    2 6.028145 0.000003 0.000002 -2.581998 -0.540813 -0.174089
    3 11.692553 0.000081 -0.000005 -0.000003 0.000024 -1.011497
    4 11.481672 -0.000089 -0.000024 0.112451 0.515593 0.638842
    5 3.281557 0.006025 -1.383388 0.099573 -0.198304 -1.488782
    6 1.324282 -0.000008 0.000005 0.000000 -0.021647 -0.479409
    7 0.819336 0.000000 -0.000002 0.000000 0.000000 -0.523560
    8 3.711854 0.109255 -0.568167 0.016675 -0.149556 -1.424934
    9 1.609408 0.000006 -0.000007 -0.000002 0.003014 -0.375164
    10 0.993191 -0.000008 0.000002 0.001475 0.002258 -0.454037
    11 3.786031 0.207131 0.243937 -0.031427 -0.109840 -1.248786
    12 1.684422 -0.000010 0.000009 -0.004744 0.005550 -1.387445
    13 1.256836 0.000005 0.000000 0.000000 0.000000 -0.532283
    14 3.594223 0.303457 1.109803 -0.045661 -0.109517 -0.932557
    15 1.723633 0.000002 0.000001 0.000000 0.000000 -0.907534
    16 1.002930 -0.000002 -0.000003 0.000000 0.000000 -0.445043
    17 0.298214 -0.630188 0.426700 -2.231623 -1.116415 0.521319
    18 2.633557 0.000002 -0.000006 0.005307 0.014956 0.454948
    19 1.308564 -0.000001 -0.000002 0.000050 0.002516 0.022654
    20 2.033356 1.000772 -1.937610 -0.103266 0.089287 -2.035076
    21 6.028141 0.000000 -0.000002 -0.800293 0.971072 -2.529143
    22 11.692554 0.000000 -0.000001 0.000022 -0.000012 -1.275420
    23 11.481701 -0.000001 -0.000009 -0.623195 -0.294262 0.671087
    24 2.914337 -0.023166 1.400147 0.112113 -0.102364 -1.126413
    25 1.285156 0.000000 0.000001 0.002338 -0.009083 -0.861154
    26 0.842651 0.000000 -0.000001 -0.000491 0.002508 -0.971587
    27 3.368061 0.007377 0.618550 0.032460 -0.034643 -1.257229
    28 1.610352 0.000000 0.000000 -0.000006 0.113985 -0.814216
    29 1.016602 -0.000004 0.000000 0.012151 -0.013056 -1.186696
    30 3.551620 0.023917 -0.204473 0.005897 0.017583 -1.539378
    31 1.666992 -0.000002 -0.000001 -0.000547 0.000864 -0.302758
    32 1.242188 0.000002 0.000000 -0.000006 0.000010 -1.431114
    33 3.449666 0.054213 -1.089087 0.053405 0.191279 -0.157383
    34 1.711614 0.000008 0.000011 0.000159 -0.000427 -0.294122
    35 1.005912 0.000002 0.000007 0.000004 -0.000497 0.118409
    36 0.075534 -0.738749 -0.759724 1.353000 0.331458 -0.576543
    37 2.512458 -0.000008 -0.000008 -0.000002 -0.000001 0.432349
    38 1.328100 -0.000004 -0.000006 0.014697 -0.115761 0.415503
    39 -7.996302 -17.496287 -8.212045 1.570796 -0.045374 3.071610
    40 0.000000 2.744467 -4.266380 0.000000 0.000000 0.000000
    41 0.000000 4.619333 -1.567202 0.000000 0.000000 0.000000
    42 0.000035 4.595706 -0.866276 0.000000 0.000000 0.000000
  time 19
    0 0.000005 -0.663086 -9.140625 -1.570760 -1.391893 -1.570827
    1 2.033348 1.000767 1.937660 3.105104 -0.141684 1.679145
    2 6.028145 0.000003 0.000002 -2.621973 -0.470522 -0.108469
    3 11.692553 0.000081 -0.000005 -0.000003 0.000024 -0.988414
    4 11.481672 -0.000089 -0.000024 0.088640 0.531201 0.583999
    5 3.281557 0.002119 -1.379481 0.099838 -0.198516 -1.489011
    6 1.324282 -0.000008 0.000005 0.000000 -0.021647 -0.479409
    7 0.819336 0.000000 -0.000002 0.000000 0.000000 -0.523560
    8 3.711854 0.109255 -0.568167 0.016939 -0.149771 -1.425158
    9 1.609408 0.000006 -0.000007 -0.000002 0.003014 -0.375164
    10 0.993191 -0.000008 0.000002 0.001475 0.002258 -0.454037
    11 3.786031 0.203224 0.247844 -0.031209 -0.110103 -1.248992
    12 1.684422 -0.000010 0.000009 -0.004744 0.005550 -1.387445
    13 1.256836 0.000005 0.000000 0.000000 0.000000 -0.532283
    14 3.594223 0.299551 1.113710 -0.045545 -0.109829 -0.932741
    15 1.723633 0.000002 0.000001 0.000000 0.000000 -0.907534
    16 1.002930 -0.000002 -0.000003 0.000000 0.000000 -0.445043
    17 0.298214 -0.630188 0.430606 -2.267384 -1.119318 0.561902
    18 2.633557 0.000002 -0.000006 0.005631 0.014896 0.475044
    19 1.308564 -0.000001 -0.000002 0.000002 0.002528 0.002775
    20 2.033356 1.000772 -1.937610 -0.103266 0.089287 -2.035076
    21 6.028141 0.000000 -0.000002 -0.835316 0.963931 -2.570876
    22 11.692554 0.000000 -0.000001 0.000022 -0.000024 -1.234166
    23 11.481701 -0.000001 -0.000009 -0.596520 -0.259870 0.647342
    24 2.914337 -0.023166 1.404053 0.112113 -0.102364 -1.126413
    25 1.285156 0.000000 0.000001 0.002338 -0.009083 -0.861154
    26 0.842651 0.000000 -0.000001 -0.000491 0.002508 -0.971609
    27 3.368061 0.007377 0.622456 0.032460 -0.034643 -1.257229
    28 1.610352 0.000000 0.000000 -0.000006 0.113985 -0.814216
    29 1.016602 -0.000004 0.000000 0.012151 -0.013056 -1.186696
    30 3.551620 0.023917 -0.200566 0.005885 0.017583 -1.539378
    31 1.666992 -0.000002 -0.000001 -0.000547 0.000864 -0.302758
    32 1.242188 0.000002 0.000000 -0.000006 0.000010 -1.431114
    33 3.449666 0.054213 -1.085181 0.052728 0.199956 -0.156910
    34 1.715521 0.000008 0.000011 0.000159 -0.000427 -0.294122
    35 1.005912 0.000002 0.000007 0.000004 -0.000497 0.118409
    36 0.075534 -0.738749 -0.755818 1.353000 0.331458 -0.576543
    37 2.512458 -0.000008 -0.000008 -0.000002 -0.000001 0.426716
    38 1.328100 -0.000004 -0.000006 0.014697 -0.115761 0.398592
    39 -8.250216 -17.773639 -7.864378 1.610231 -0.035514 3.044618
    40 0.000000 2.744467 -4.266380 0.000000 0.000000 0.000000
    41 0.000000 4.619333 -1.567202 0.000000 0.000000 0.000000
    42 0.000035 4.595706 -0.866276 0.000000 0.000000 0.000000
  time 20
    0 0.000005 -0.663086 -9.140625 -1.570760 -1.391893 -1.570827
    1 2.033348 1.000767 1.937660 3.124492 -0.076226 1.677018
    2 6.028145 0.000003 0.000002 -2.643158 -0.393654 -0.061953
    3 11.692553 0.000081 -0.000005 -0.000003 0.000024 -0.984354
    4 11.481672 -0.000089 -0.000024 0.060191 0.546522 0.530363
    5 3.281557 0.002119 -1.379481 0.099714 -0.198215 -1.489110
    6 1.324282 -0.000008 0.000005 0.000000 -0.021647 -0.479409
    7 0.819336 0.000000 -0.000002 0.000000 0.000000 -0.523560
    8 3.711854 0.109255 -0.568167 0.016819 -0.149472 -1.425254
    9 1.609408 0.000006 -0.000007 -0.000002 0.003014 -0.375164
    10 0.993191 -0.000008 0.000002 0.001475 0.002258 -0.454037
    11 3.786031 0.203224 0.247844 -0.031270 -0.109780 -1.249075
    12 1.684422 -0.000010 0.000009 -0.004744 0.005550 -1.387445
    13 1.256836 0.000005 0.000000 0.000000 0.000000 -0.532283
    14 3.594223 0.299551 1.113710 -0.045502 -0.109505 -0.932889
    15 1.723633 0.000002 0.000001 0.000000 0.000000 -0.907534
    16 1.002930 -0.000002 -0.000003 0.000000 0.000000 -0.445043
    17 0.298214 -0.634094 0.430606 -2.293305 -1.121560 0.593509
    18 2.633557 0.000002 -0.000006 0.005894 0.014836 0.492675
    19 1.308564 -0.000001 -0.000002 -0.000022 0.002528 -0.016162
    20 2.033356 1.000772 -1.937610 -0.103266 0.089287 -2.035076
    21 6.028141 0.000000 -0.000002 -0.860463 0.955016 -2.601022
    22 11.692554 0.000000 -0.000001 0.000022 -0.000024 -1.200311
    23 11.481701 -0.000001 -0.000009 -0.579158 -0.245027 0.630621
    24 2.910431 -0.023166 1.404053 0.112113 -0.102364 -1.126413
    25 1.285156 0.000000 0.000001 0.002338 -0.009083 -0.861154
    26 0.838745 0.000000 -0.000001 -0.000491 0.002508 -0.971609
    27 3.368061 0.007377 0.618550 0.032460 -0.034643 -1.257229
    28 1.610352 0.000000 0.000000 -0.000006 0.113985 -0.814216
    29 1.016602 -0.000004 0.000000 0.012151 -0.013056 -1.186696
    30 3.551620 0.023917 -0.200566 0.005897 0.017583 -1.539378
    31 1.666992 -0.000002 -0.000001 -0.000547 0.000864 -0.302758
    32 1.242188 0.000002 0.000000 -0.000006 0.000010 -1.431114
    33 3.449666 0.054213 -1.089087 0.052022 0.208632 -0.156410
    34 1.711614 0.000008 0.000011 0.000159 -0.000427 -0.294122
    35 1.005912 0.000002 0.000007 0.000004 -0.000497 0.118409
    36 0.075534 -0.738749 -0.755818 1.353000 0.331458 -0.576543
    37 2.512458 -0.000008 -0.000008 -0.000002 -0.000001 0.421084
    38 1.328100 -0.000004 -0.000006 0.014697 -0.115761 0.381710
    39 -8.394751 -17.988489 -7.661247 1.628686 -0.026003 3.031456
    40 0.000000 2.744467 -4.266380 0.000000 0.000000 0.000000
    41 0.000000 4.619333 -1.567202 0.000000 0.000000 0.000000
    42 0.000035 4.595706 -0.866276 0.000000 0.000000 0.000000
  time 21
    0 0.000005 -0.663086 -9.140625 -1.570760 -1.391893 -1.570827
    1 2.033348 1.000767 1.937660 3.140993 -0.019920 1.676206
    2 6.028145 0.000003 0.000002 -2.650923 -0.316449 -0.031866
    3 11.692553 0.000081 -0.000005 -0.000003 0.000024 -0.997888
    4 11.481672 -0.000089 -0.000024 0.030150 0.559180 0.479477
    5 3.281557 0.002119 -1.379481 0.099714 -0.198215 -1.489110
    6 1.324282 -0.000008 0.000005 0.000000 -0.021647 -0.479409
    7 0.819336 0.000000 -0.000002 0.000000 0.000000 -0.523560
    8 3.711854 0.109255 -0.568167 0.016819 -0.149472 -1.425254
    9 1.609408 0.000006 -0.000007 -0.000002 0.003014 -0.375164
    10 0.993191 -0.000008 0.000002 0.001475 0.002258 -0.454037
    11 3.786031 0.203224 0.243937 -0.031270 -0.109780 -1.249075
    12 1.684422 -0.000010 0.000009 -0.004744 0.005550 -1.387445
    13 1.256836 0.000005 0.000000 0.000000 0.000000 -0.532283
    14 3.594223 0.299551 1.109803 -0.045502 -0.109505 -0.932889
    15 1.723633 0.000002 0.000001 0.000000 0.000000 -0.907534
    16 1.002930 -0.000002 -0.000003 0.000000 0.000000 -0.445043
    17 0.298214 -0.634094 0.426700 -2.310152 -1.123572 0.616923
    18 2.633557 0.000002 -0.000006 0.006146 0.014800 0.507412
    19 1.308564 -0.000001 -0.000002 -0.000070 0.002540 -0.033879
    20 2.033356 1.000772 -1.937610 -0.103266 0.089287 -2.035076
    21 6.028141 0.000000 -0.000002 -0.874904 0.946101 -2.618947
    22 11.692554 0.000000 -0.000001 0.000022 -0.000024 -1.176463
    23 11.481701 -0.000001 -0.000009 -0.567132 -0.226307 0.617480
    24 2.910431 -0.023166 1.404053 0.112113 -0.102364 -1.126413
    25 1.285156 0.000000 0.000001 0.002338 -0.009083 -0.861154
    26 0.842651 0.000000 -0.000001 -0.000491 0.002508 -0.971587
    27 3.368061 0.007377 0.618550 0.032460 -0.034643 -1.257229
    28 1.610352 0.000000 0.000000 -0.000006 0.113985 -0.814216
    29 1.016602 -0.000004 0.000000 0.012151 -0.013056 -1.186696
    30 3.551620 0.023917 -0.200566 0.005885 0.017583 -1.539378
    31 1.666992 -0.000002 -0.000001 -0.000547 0.000864 -0.302758
    32 1.242188 0.000002 0.000000 -0.000006 0.000010 -1.431114
    33 3.445760 0.054213 -1.085181 0.064019 0.203299 -0.086053
    34 1.711614 0.000008 0.000011 -0.002190 -0.005856 -0.443154
    35 1.005912 0.000002 0.000007 -0.000296 -0.003097 -0.079235
    36 0.075534 -0.738749 -0.755818 1.353000 0.331458 -0.576543
    37 2.512458 -0.000008 -0.000008 -0.000002 -0.000001 0.415451
    38 1.328100 -0.000004 -0.000006 0.014697 -0.115761 0.364827
    39 -8.472879 -18.148650 -7.504992 1.648656 -0.018978 3.021060
    40 0.000000 2.744467 -4.266380 0.000000 0.000000 0.000000
    41 0.000000 4.619333 -1.567202 0.000000 0.000000 0.000000
    42 0.000035 4.595706 -0.866276 0.000000 0.000000 0.000000
  time 22
    0 0.000005 -0.663086 -9.140625 -1.570760 -1.391893 -1.570827
    1 2.033348 1.000767 1.937660 3.154415 0.026014 1.676245
    2 6.028145 0.000003 0.000002 -2.650060 -0.243758 -0.015246
    3 11.692553 0.000081 -0.000005 -0.000003 0.000012 -1.027889
    4 11.481672 -0.000089 -0.000024 0.000732 0.567168 0.433685
    5 3.281557 0.002119 -1.379481 0.099732 -0.198215 -1.489110
    6 1.324282 -0.000008 0.000005 0.000000 -0.021647 -0.479409
    7 0.819336 0.000000 -0.000002 0.000000 0.000000 -0.523560
    8 3.711854 0.109255 -0.568167 0.016819 -0.149472 -1.425254
    9 1.609408 0.000006 -0.000007 -0.000002 0.003014 -0.375164
    10 0.993191 -0.000008 0.000002 0.001475 0.002258 -0.454037
    11 3.786031 0.203224 0.243937 -0.031270 -0.109780 -1.249075
    12 1.684422 -0.000010 0.000009 -0.004744 0.005550 -1.387445
    13 1.256836 0.000005 0.000000 0.000000 0.000000 -0.532283
    14 3.594223 0.299551 1.109803 -0.045502 -0.109505 -0.932889
    15 1.723633 0.000002 0.000001 0.000000 0.000000 -0.907534
    16 1.002930 -0.000002 -0.000003 0.000000 0.000000 -0.445043
    17 0.298214 -0.634094 0.426700 -2.315823 -1.125713 0.630060
    18 2.637464 0.000002 -0.000006 0.006326 0.014764 0.518892
    19 1.308564 -0.000001 -0.000002 -0.000106 0.002540 -0.050166
    20 2.033356 1.000772 -1.937610 -0.103266 0.089287 -2.035076
    21 6.028141 0.000000 -0.000002 -0.879386 0.939803 -2.625103
    22 11.692554 0.000000 -0.000001 0.000010 -0.000024 -1.164699
    23 11.481701 -0.000001 -0.000009 -0.561254 -0.216666 0.609550
    24 2.914337 -0.023166 1.404053 0.112113 -0.102364 -1.126413
    25 1.285156 0.000000 0.000001 0.002338 -0.009083 -0.861154
    26 0.842651 0.000000 -0.000001 -0.000491 0.002508 -0.971609
    27 3.368061 0.007377 0.618550 0.032460 -0.034643 -1.257229
    28 1.610352 0.000000 0.000000 -0.000006 0.113985 -0.814216
    29 1.016602 -0.000004 0.000000 0.012151 -0.013056 -1.186696
    30 3.555526 0.023917 -0.200566 0.005885 0.017583 -1.539378
    31 1.666992 -0.000002 -0.000001 -0.000547 0.000864 -0.302758
    32 1.242188 0.000002 0.000000 -0.000006 0.000010 -1.431114
    33 3.449666 0.054213 -1.089087 0.075593 0.197151 -0.015835
    34 1.711614 0.000008 0.000011 -0.003724 -0.011549 -0.592225
    35 1.002005 0.000002 0.000007 -0.000080 -0.005698 -0.276860
    36 0.075534 -0.738749 -0.759724 1.353000 0.331458 -0.576543
    37 2.512458 -0.000008 -0.000008 -0.000002 -0.000001 0.409830
    38 1.328100 -0.000004 -0.000006 0.014697 -0.115761 0.348002
    39 -8.472879 -18.230684 -7.454209 1.658605 -0.014223 3.018485
    40 0.000000 2.744467 -4.266380 0.000000 0.000000 0.000000
    41 0.000000 4.619333 -1.567202 0.000000 0.000000 0.000000
    42 0.000035 4.595706 -0.866276 0.000000 0.000000 0.000000
  time 23
    0 0.000005 -0.663086 -9.140625 -1.570760 -1.391893 -1.570827
    1 2.033348 1.000767 1.937660 3.164469 0.060360 1.676670
    2 6.028145 0.000003 0.000002 -2.649581 -0.180909 -0.024320
    3 11.692553 0.000081 -0.000005 -0.000003 0.000036 -1.063905
    4 11.481672 -0.000089 -0.000024 -0.016365 0.572862 0.408007
    5 3.281557 0.002119 -1.379481 0.099732 -0.198215 -1.489110
    6 1.324282 -0.000008 0.000005 0.000000 -0.021647 -0.479409
    7 0.819336 0.000000 -0.000002 0.000000 0.000000 -0.523560
    8 3.711854 0.109255 -0.568167 0.016819 -0.149472 -1.425254
    9 1.609408 0.000006 -0.000007 -0.000002 0.003014 -0.375164
    10 0.993191 -0.000008 0.000002 0.001487 0.002258 -0.454037
    11 3.786031 0.203224 0.243937 -0.031270 -0.109780 -1.249075
    12 1.684422 -0.000010 0.000009 -0.004744 0.005550 -1.387445
    13 1.256836 0.000005 0.000000 0.000000 0.000000 -0.532283
    14 3.594223 0.299551 1.109803 -0.045502 -0.109505 -0.932889
    15 1.723633 0.000002 0.000001 0.000000 0.000000 -0.907534
    16 1.002930 -0.000002 -0.000003 0.000000 0.000000 -0.445043
    17 0.298214 -0.634094 0.430606 -2.308951 -1.128142 0.631881
    18 2.637464 0.000002 -0.000006 0.006446 0.014752 0.526748
    19 1.308564 -0.000001 -0.000002 -0.000142 0.002540 -0.064813
    20 2.033356 1.000772 -1.937610 -0.103266 0.089287 -2.035076
    21 6.028141 0.000000 -0.000002 -0.874821 0.938428 -2.620124
    22 11.692554 0.000000 -0.000001 0.000022 -0.000024 -1.167467
    23 11.481701 -0.000001 -0.000009 -0.559717 -0.215567 0.607466
    24 2.914337 -0.023166 1.404053 0.112113 -0.102364 -1.126413
    25 1.285156 0.000000 0.000001 0.002338 -0.009083 -0.861154
    26 0.842651 0.000000 -0.000001 -0.000491 0.002508 -0.971609
    27 3.368061 0.007377 0.618550 0.032460 -0.034643 -1.257229
    28 1.610352 0.000000 0.000000 -0.000006 0.113985 -0.814216
    29 1.016602 -0.000004 0.000000 0.012151 -0.013056 -1.186696
    30 3.555526 0.023917 -0.200566 0.005897 0.017583 -1.539378
    31 1.666992 -0.000002 -0.000001 -0.000547 0.000864 -0.302758
    32 1.242188 0.000002 0.000000 -0.000006 0.000010 -1.431114
    33 3.449666 0.054213 -1.089087 0.086687 0.190212 0.054244
    34 1.715521 0.000008 0.000011 -0.004395 -0.017433 -0.741373
    35 1.002005 0.000002 0.000007 0.000627 -0.008215 -0.474524
    36 0.075534 -0.738749 -0.755818 1.353000 0.331458 -0.576543
    37 2.512458 -0.000008 -0.000008 -0.000002 -0.000001 0.404197
    38 1.328100 -0.000004 -0.000006 0.014697 -0.115761 0.331091
    39 -8.422096 -18.230684 -7.485460 1.660191 -0.011213 3.022682
    40 0.000000 2.744467 -4.266380 0.000000 0.000000 0.000000
    41 0.000000 4.619333 -1.567202 0.000000 0.000000 0.000000
    42 0.000035 4.595706 -0.866276 0.000000 0.000000 0.000000
  time 24
    0 0.000005 -0.663086 -9.140625 -1.570760 -1.391893 -1.570827
    1 2.033348 1.000767 1.937660 3.170819 0.081815 1.677134
    2 6.028145 0.000003 0.000002 -2.645746 -0.125022 -0.045142
    3 11.692553 0.000081 -0.000005 -0.000003 0.000012 -1.115936
    4 11.481672 -0.000089 -0.000024 -0.026747 0.573968 0.386888
    5 3.281557 0.002119 -1.379481 0.099732 -0.198215 -1.489110
    6 1.324282 -0.000008 0.000005 0.000000 -0.021647 -0.479409
    7 0.819336 0.000000 -0.000002 0.000000 0.000000 -0.523560
    8 3.711854 0.109255 -0.568167 0.016819 -0.149472 -1.425254
    9 1.609408 0.000006 -0.000007 -0.000002 0.003014 -0.375164
    10 0.993191 -0.000008 0.000002 0.001475 0.002270 -0.454037
    11 3.786031 0.203224 0.247844 -0.031270 -0.109780 -1.249075
    12 1.684422 -0.000010 0.000009 -0.004744 0.005550 -1.387445
    13 1.256836 0.000005 0.000000 0.000000 0.000000 -0.532283
    14 3.594223 0.299551 1.113710 -0.045502 -0.109505 -0.932889
    15 1.723633 0.000002 0.000001 0.000000 0.000000 -0.907534
    16 1.002930 -0.000002 -0.000003 0.000000 0.000000 -0.445043
    17 0.298214 -0.634094 0.430606 -2.240930 -1.132669 0.580892
    18 2.633557 0.000002 -0.000006 0.006362 0.014788 0.521115
    19 1.308564 -0.000001 -0.000002 -0.000178 0.002540 -0.077891
    20 2.033356 1.000772 -1.937610 -0.103266 0.089287 -2.035076
    21 6.028141 0.000000 -0.000002 -0.862289 0.940912 -2.605277
    22 11.692554 0.000000 -0.000001 0.000022 -0.000024 -1.182318
    23 11.481701 -0.000001 -0.000009 -0.561706 -0.221128 0.610185
    24 2.914337 -0.023166 1.404053 0.112113 -0.102364 -1.126413
    25 1.285156 0.000000 0.000001 0.002338 -0.009083 -0.861154
    26 0.842651 0.000000 -0.000001 -0.000491 0.002508 -0.971609
    27 3.368061 0.007377 0.618550 0.032460 -0.034643 -1.257229
    28 1.610352 0.000000 0.000000 -0.000006 0.113985 -0.814216
    29 1.016602 -0.000004 0.000000 0.012151 -0.013056 -1.186696
    30 3.551620 0.023917 -0.200566 0.005897 0.017583 -1.539378
    31 1.666992 -0.000002 -0.000001 -0.000547 0.000864 -0.302758
    32 1.242188 0.000002 0.000000 -0.000006 0.000010 -1.431114
    33 3.449666 0.054213 -1.085181 0.097245 0.182542 0.124101
    34 1.715521 0.000008 0.000011 -0.004192 -0.023353 -0.890482
    35 1.002005 0.000002 0.000007 0.001826 -0.010540 -0.672187
    36 0.075534 -0.738749 -0.755818 1.353000 0.331458 -0.576543
    37 2.512458 -0.000008 -0.000008 -0.000002 -0.000001 0.398564
    38 1.328100 -0.000004 -0.000006 0.014697 -0.115761 0.314208
    39 -8.316624 -18.152557 -7.583119 1.655000 -0.009686 3.032315
    40 0.000000 2.744467 -4.266380 0.000000 0.000000 0.000000
    41 0.000000 4.619333 -1.567202 0.000000 0.000000 0.000000
    42 0.000035 4.595706 -0.866276 0.000000 0.000000 0.000000
  time 25
    0 0.000005 -0.663086 -9.140625 -1.570760 -1.391893 -1.570827
    1 2.033348 1.000767 1.937660 3.172936 0.089289 1.677366
    2 6.028145 0.000003 0.000002 -2.644788 -0.089589 -0.076376
    3 11.692553 0.000081 -0.000005 -0.000015 0.000036 -1.160674
    4 11.481672 -0.000089 -0.000024 -0.020449 0.572166 0.384407
    5 3.281557 0.002119 -1.383388 0.099732 -0.198215 -1.489110
    6 1.324282 -0.000008 0.000005 0.000000 -0.021647 -0.479409
    7 0.819336 0.000000 -0.000002 0.000000 0.000000 -0.523560
    8 3.711854 0.109255 -0.572073 0.016831 -0.149472 -1.425254
    9 1.609408 0.000006 -0.000007 -0.000002 0.003014 -0.375164
    10 0.993191 -0.000008 0.000002 0.001475 0.002258 -0.454037
    11 3.786031 0.203224 0.243937 -0.031270 -0.109780 -1.249075
    12 1.684422 -0.000010 0.000009 -0.004744 0.005550 -1.387445
    13 1.256836 0.000005 0.000000 0.000000 0.000000 -0.532283
    14 3.594223 0.299551 1.113710 -0.045502 -0.109505 -0.932889
    15 1.723633 0.000002 0.000001 0.000000 0.000000 -0.907534
    16 1.002930 -0.000002 -0.000003 0.000000 0.000000 -0.445043
    17 0.298214 -0.634094 0.426700 -2.083104 -1.135529 0.451730
    18 2.633557 0.000002 -0.000006 0.005978 0.014908 0.496542
    19 1.308564 -0.000001 -0.000002 -0.000202 0.002540 -0.089470
    20 2.033356 1.000772 -1.937610 -0.103266 0.089287 -2.035076
    21 6.028141 0.000000 -0.000002 -0.843782 0.945258 -2.583188
    22 11.692554 0.000000 -0.000001 0.000022 -0.000024 -1.204995
    23 11.481701 -0.000001 -0.000009 -0.566589 -0.231486 0.616076
    24 2.910431 -0.023166 1.400147 0.112113 -0.102364 -1.126413
    25 1.285156 0.000000 0.000001 0.002338 -0.009083 -0.861154
    26 0.842651 0.000000 -0.000001 -0.000491 0.002508 -0.971609
    27 3.368061 0.007377 0.618550 0.032460 -0.034643 -1.257229
    28 1.610352 0.000000 0.000000 -0.000006 0.113985 -0.814216
    29 1.016602 -0.000004 0.000000 0.012151 -0.013056 -1.186696
    30 3.551620 0.023917 -0.204473 0.005897 0.017583 -1.539378
    31 1.666992 -0.000002 -0.000001 -0.000547 0.000864 -0.302758
    32 1.242188 0.000002 0.000000 -0.000006 0.000010 -1.431114
    33 3.449666 0.054213 -1.089087 0.107210 0.174165 0.193791
    34 1.715521 0.000008 0.000011 -0.003113 -0.029178 -1.039591
    35 1.005912 0.000002 0.000007 0.003468 -0.012589 -0.869870
    36 0.075534 -0.738749 -0.755818 1.353000 0.331458 -0.576543
    37 2.512458 -0.000008 -0.000008 -0.000002 -0.000001 0.392932
    38 1.328100 -0.000004 -0.000006 0.014697 -0.115761 0.297326
    39 -8.175995 -18.023646 -7.727655 1.644907 -0.009075 3.045954
    40 0.000000 2.744467 -4.266380 0.000000 0.000000 0.000000
    41 0.000000 4.619333 -1.567202 0.000000 0.000000 0.000000
    42 0.000035 4.595706 -0.866276 0.000000 0.000000 0.000000
  time 26
    0 0.000005 -0.663086 -9.140625 -1.570760 -1.391893 -1.570827
    1 2.033348 1.000767 1.937660 3.169328 0.076861 1.677018
    2 6.028145 0.000003 0.000002 -2.643062 -0.088196 -0.110571
    3 11.692553 0.000081 -0.000005 -0.000003 -0.000036 -1.195562
    4 11.481672 -0.000089 -0.000024 0.005093 0.565366 0.405258
    5 3.285463 0.006025 -1.379481 0.099891 -0.197896 -1.489765
    6 1.324282 -0.000008 0.000005 0.000000 -0.021647 -0.479409
    7 0.819336 0.000000 -0.000002 0.000000 0.000000 -0.523560
    8 3.715760 0.109255 -0.568167 0.017035 -0.149160 -1.425864
    9 1.609408 0.000006 -0.000007 -0.000002 0.003014 -0.375164
    10 0.993191 -0.000008 0.000002 0.001475 0.002258 -0.454037
    11 3.789937 0.207131 0.247844 -0.031016 -0.109516 -1.249693
    12 1.684422 -0.000010 0.000009 -0.004732 0.005550 -1.387445
    13 1.256836 0.000005 0.000000 0.000000 0.000000 -0.532283
    14 3.594223 0.303457 1.113710 -0.045170 -0.109325 -0.933478
    15 1.723633 0.000002 0.000001 0.000000 0.000000 -0.907534
    16 1.002930 -0.000002 -0.000003 0.000000 0.000000 -0.445043
    17 0.298214 -0.630188 0.426700 -1.869867 -1.127265 0.271882
    18 2.633557 0.000002 -0.000006 0.005415 0.015088 0.459119
    19 1.308564 -0.000001 -0.000002 -0.000226 0.002540 -0.099584
    20 2.033356 1.000772 -1.937610 -0.103266 0.089287 -2.035076
    21 6.028141 0.000000 -0.000002 -0.820461 0.951911 -2.554943
    22 11.692554 0.000000 -0.000001 0.000022 -0.000024 -1.234325
    23 11.481701 -0.000001 -0.000009 -0.573100 -0.245409 0.624096
    24 2.910431 -0.023166 1.404053 0.112113 -0.102364 -1.126413
    25 1.285156 0.000000 0.000001 0.002338 -0.009083 -0.861154
    26 0.842651 0.000000 -0.000001 -0.000491 0.002508 -0.971587
    27 3.368061 0.007377 0.618550 0.032460 -0.034643 -1.257229
    28 1.610352 0.000000 0.000000 -0.000006 0.113985 -0.814216
    29 1.016602 -0.000004 0.000000 0.012151 -0.013056 -1.186696
    30 3.551620 0.023917 -0.200566 0.005897 0.017583 -1.539378
    31 1.666992 -0.000002 -0.000001 -0.000547 0.000864 -0.302758
    32 1.242188 0.000002 0.000000 -0.000006 0.000010 -1.431114
    33 3.449666 0.054213 -1.085181 0.108071 0.183453 0.053382
    34 1.711614 0.000008 0.000011 -0.001795 -0.034847 -0.979310
    35 1.005912 0.000002 0.000007 0.005217 -0.014411 -0.858110
    36 0.075534 -0.738749 -0.755818 1.353000 0.331458 -0.576543
    37 2.512458 -0.000008 -0.000008 -0.000002 -0.000001 0.387299
    38 1.328100 -0.000004 -0.000006 0.014697 -0.115761 0.280415
    39 -8.015834 -17.847860 -7.911254 1.631570 -0.008988 3.062454
    40 0.000000 2.744467 -4.266380 0.000000 0.000000 0.000000
    41 0.000000 4.619333 -1.567202 0.000000 0.000000 0.000000
    42 0.000035 4.595706 -0.866276 0.000000 0.000000 0.000000
  time 27
    0 0.000005 -0.663086 -9.140625 -1.570760 -1.391893 -1.570827
    1 2.033348 1.000767 1.937660 3.160188 0.045832 1.676438
    2 6.028145 0.000003 0.000002 -2.637886 -0.123918 -0.155750
    3 11.692553 0.000081 -0.000005 -0.000015 0.000036 -1.244812
    4 11.481672 -0.000089 -0.000024 -0.011381 0.520223 0.466068
    5 3.281557 0.002119 -1.383388 0.099732 -0.198215 -1.489110
    6 1.324282 -0.000008 0.000005 0.000000 -0.021659 -0.479409
    7 0.819336 0.000000 -0.000002 0.000000 0.000000 -0.523560
    8 3.711854 0.109255 -0.568167 0.016819 -0.149472 -1.425254
    9 1.609408 0.000006 -0.000007 -0.000002 0.003014 -0.375164
    10 0.993191 -0.000008 0.000002 0.001475 0.002258 -0.454037
    11 3.786031 0.203224 0.247844 -0.044326 -0.105717 -1.128469
    12 1.684422 -0.000010 0.000009 -0.004744 0.005550 -1.387445
    13 1.256836 0.000005 0.000000 0.000000 0.000000 -0.532283
    14 3.594223 0.299551 1.109803 -0.067473 -0.097557 -0.721100
    15 1.723633 0.000002 0.000001 0.000000 0.000000 -0.907534
    16 1.002930 -0.000002 -0.000003 0.000000 0.000000 -0.445043
    17 0.298214 -0.634094 0.426700 -1.647123 -1.101914 0.083016
    18 2.633557 0.000002 -0.000006 0.004732 0.015279 0.414815
    19 1.308564 -0.000001 -0.000002 -0.000250 0.002540 -0.108024
    20 2.033356 1.000772 -1.937610 -0.103266 0.089287 -2.035076
    21 6.028141 0.000000 -0.000002 -0.785272 0.970229 -2.511037
    22 11.692554 0.000000 -0.000001 0.000022 -0.000024 -1.285055
    23 11.481701 -0.000001 -0.000009 -0.575632 -0.262650 0.637373
    24 2.910431 -0.023166 1.400147 0.112113 -0.102364 -1.126413
    25 1.285156 0.000000 0.000001 0.002338 -0.009083 -0.861154
    26 0.842651 0.000000 -0.000001 -0.000491 0.002508 -0.971609
    27 3.368061 0.007377 0.622456 0.032460 -0.034643 -1.257229
    28 1.610352 0.000000 0.000000 -0.000006 0.113985 -0.814216
    29 1.016602 -0.000004 0.000000 0.012151 -0.013056 -1.186696
    30 3.551620 0.023917 -0.204473 0.005885 0.017583 -1.539378
    31 1.666992 -0.000002 -0.000001 -0.000547 0.000864 -0.302758
    32 1.242188 0.000002 0.000000 -0.000006 0.000010 -1.431114
    33 3.449666 0.054213 -1.089087 0.107563 0.192777 -0.087276
    34 1.711614 0.000008 0.000011 -0.000812 -0.040575 -0.919067
    35 1.005912 0.000002 0.000007 0.006955 -0.016244 -0.846350
    36 0.075534 -0.738749 -0.755818 1.353000 0.331458 -0.576543
    37 2.512458 -0.000008 -0.000008 -0.000002 -0.000001 0.381678
    38 1.328100 -0.000004 -0.000006 0.014697 -0.115761 0.263532
    39 -7.871298 -17.496287 -8.118292 1.617296 -0.007068 3.080862
    40 0.000000 2.744467 -4.266380 0.000000 0.000000 0.000000
    41 0.000000 4.619333 -1.567202 0.000000 0.000000 0.000000
    42 0.000035 4.595706 -0.866276 0.000000 0.000000 0.000000
  time 28
    0 0.000005 -0.663086 -9.140625 -1.570760 -1.391893 -1.570827
    1 2.033348 1.000767 1.937660 3.148401 0.005524 1.676129
    2 6.028145 0.000003 0.000002 -2.626766 -0.174331 -0.211244
    3 11.692553 0.000081 -0.000005 -0.000015 0.000024 -1.298648
    4 11.481672 -0.000089 -0.000024 -0.030485 0.461233 0.540085
    5 3.281557 0.002119 -1.383388 0.099732 -0.198215 -1.489110
    6 1.324282 -0.000008 0.000005 0.000000 -0.021647 -0.479409
    7 0.819336 0.000000 -0.000002 0.000000 0.000000 -0.523560
    8 3.711854 0.109255 -0.572073 0.016819 -0.149472 -1.425254
    9 1.609408 0.000006 -0.000007 -0.000002 0.003014 -0.375164
    10 0.993191 -0.000008 0.000002 0.001475 0.002258 -0.454037
    11 3.786031 0.203224 0.243937 -0.059567 -0.098227 -0.979102
    12 1.684422 -0.000010 0.000009 -0.004744 0.005550 -1.387445
    13 1.256836 0.000005 0.000000 0.000000 0.000000 -0.532283
    14 3.594223 0.299551 1.109803 -0.090411 -0.076799 -0.459322
    15 1.723633 0.000002 0.000001 0.000000 0.000000 -0.907534
    16 1.002930 -0.000002 -0.000003 0.000000 0.000000 -0.445043
    17 0.298214 -0.634094 0.426700 -1.451767 -1.063513 -0.083868
    18 2.633557 0.000002 -0.000006 0.004037 0.015495 0.369810
    19 1.308564 -0.000001 -0.000002 -0.000274 0.002540 -0.114755
    20 2.033356 1.000772 -1.937610 -0.103266 0.089287 -2.035076
    21 6.028141 0.000000 -0.000002 -0.742530 0.990454 -2.458168
    22 11.692554 0.000000 -0.000001 0.000022 -0.000024 -1.342385
    23 11.481701 -0.000001 -0.000009 -0.578344 -0.282357 0.651285
    24 2.910431 -0.023166 1.400147 0.112293 -0.102328 -1.126139
    25 1.285156 0.000000 0.000001 0.002338 -0.009083 -0.861154
    26 0.842651 0.000000 -0.000001 -0.000491 0.002508 -0.971609
    27 3.368061 0.007377 0.618550 0.032628 -0.034583 -1.256942
    28 1.610352 0.000000 0.000000 -0.000006 0.113985 -0.814216
    29 1.016602 -0.000004 0.000000 0.012151 -0.013056 -1.186696
    30 3.551620 0.027823 -0.204473 0.006041 0.017679 -1.539116
    31 1.666992 -0.000002 -0.000001 -0.000547 0.000864 -0.302758
    32 1.242188 0.000002 0.000000 -0.000006 0.000010 -1.431114
    33 3.449666 0.054213 -1.089087 0.105869 0.201825 -0.227907
    34 1.711614 0.000008 0.000011 -0.000189 -0.046352 -0.858785
    35 1.005912 0.000002 0.000007 0.008669 -0.018090 -0.834590
    36 0.075534 -0.734842 -0.759724 1.353164 0.331398 -0.576175
    37 2.512458 -0.000008 -0.000008 -0.000002 -0.000001 0.376045
    38 1.328100 -0.000004 -0.000006 0.014697 -0.115761 0.246650
    39 -7.707230 -17.082211 -8.364393 1.601147 -0.004756 3.101750
    40 0.000000 2.744467 -4.266380 0.000000 0.000000 0.000000
    41 0.000000 4.619333 -1.567202 0.000000 0.000000 0.000000
    42 0.000035 4.595706 -0.866276 0.000000 0.000000 0.000000
  time 29
    0 0.000005 -0.663086 -9.140625 -1.570760 -1.391893 -1.570827
    1 2.033348 1.000767 1.937660 3.136615 -0.034826 1.676322
    2 6.028145 0.000003 0.000002 -2.610469 -0.224985 -0.268649
    3 11.692553 0.000081 -0.000005 -0.000027 0.000012 -1.346845
    4 11.481672 -0.000089 -0.000024 -0.048274 0.400195 0.608269
    5 3.281557 0.002119 -1.383388 0.099626 -0.198623 -1.488585
    6 1.324282 -0.000008 0.000005 0.000000 -0.021647 -0.479409
    7 0.819336 0.000000 -0.000002 0.000000 0.000000 -0.523560
    8 3.711854 0.105348 -0.572073 0.016711 -0.149879 -1.424677
    9 1.609408 0.000006 -0.000007 -0.000002 0.003014 -0.375164
    10 0.993191 -0.000008 0.000002 0.001475 0.002258 -0.454037
    11 3.786031 0.203224 0.243937 -0.073432 -0.088699 -0.832414
    12 1.684422 -0.000010 0.000009 -0.004744 0.005550 -1.387445
    13 1.256836 0.000005 0.000000 0.000000 0.000000 -0.532283
    14 3.590316 0.299551 1.109803 -0.107301 -0.051452 -0.203112
    15 1.723633 0.000002 0.000001 0.000000 0.000000 -0.907534
    16 1.002930 -0.000002 -0.000003 0.000000 0.000000 -0.445043
    17 0.298214 -0.634094 0.430606 -1.305884 -1.021849 -0.208217
    18 2.633557 0.000002 -0.000006 0.003425 0.015675 0.330134
    19 1.308564 -0.000001 -0.000002 -0.000286 0.002528 -0.119672
    20 2.033356 1.000772 -1.937610 -0.103266 0.089287 -2.035076
    21 6.028141 0.000000 -0.000002 -0.699374 1.008905 -2.405209
    22 11.692554 0.000000 -0.000001 0.000022 -0.000024 -1.395988
    23 11.481701 -0.000001 -0.000009 -0.580695 -0.300965 0.664154
    24 2.910431 -0.023166 1.400147 0.112113 -0.102364 -1.126413
    25 1.285156 0.000000 0.000001 0.002338 -0.009083 -0.861154
    26 0.842651 0.000000 -0.000001 -0.000491 0.002508 -0.971609
    27 3.368061 0.007377 0.622456 0.032460 -0.034643 -1.257229
    28 1.610352 0.000000 0.000000 -0.000006 0.113985 -0.814216
    29 1.016602 -0.000004 0.000000 0.012151 -0.013056 -1.186696
    30 3.551620 0.023917 -0.204473 0.005897 0.017583 -1.539378
    31 1.666992 -0.000002 -0.000001 -0.000547 0.000864 -0.302758
    32 1.242188 0.000002 0.000000 -0.000006 0.000010 -1.431114
    33 3.449666 0.054213 -1.089087 0.102637 0.210754 -0.369428
    34 1.711614 0.000008 0.000011 0.000063 -0.052152 -0.798465
    35 1.005912 0.000002 0.000007 0.010347 -0.019972 -0.822850
    36 0.075534 -0.738749 -0.755818 1.353000 0.331458 -0.576543
    37 2.512458 -0.000008 -0.000008 -0.000002 -0.000001 0.370413
    38 1.328100 -0.000004 -0.000006 0.014697 -0.115761 0.229767
    39 -7.562695 -16.675949 -8.602682 1.586224 -0.002400 3.121302
    40 0.000000 2.744467 -4.266380 0.000000 0.000000 0.000000
    41 0.000000 4.619333 -1.567202 0.000000 0.000000 0.000000
    42 0.000035 4.595706 -0.866276 0.000000 0.000000 0.000000
  time 30
    0 0.000005 -0.663086 -9.140625 -1.570760 -1.391893 -1.570827
    1 2.033348 1.000767 1.937660 3.127571 -0.065855 1.676786
    2 6.028145 0.000003 0.000002 -2.594269 -0.264211 -0.314974
    3 11.692553 0.000081 -0.000005 -0.000027 0.000036 -1.381883
    4 11.481672 -0.000089 -0.000024 -0.061357 0.351201 0.660028
    5 3.281557 0.002119 -1.383388 0.099714 -0.198215 -1.489110
    6 1.324282 -0.000008 0.000005 0.000000 -0.021647 -0.479409
    7 0.819336 0.000000 -0.000002 0.000000 0.000000 -0.523560
    8 3.711854 0.109255 -0.572073 0.016819 -0.149472 -1.425254
    9 1.609408 0.000006 -0.000007 -0.000002 0.003014 -0.375164
    10 0.993191 -0.000008 0.000002 0.001475 0.002258 -0.454037
    11 3.786031 0.203224 0.243937 -0.082265 -0.079459 -0.722151
    12 1.684422 -0.000010 0.000009 -0.004732 0.005550 -1.387445
    13 1.256836 0.000005 0.000000 0.000000 0.000000 -0.532283
    14 3.594223 0.299551 1.109803 -0.114778 -0.029808 -0.009792
    15 1.723633 0.000002 0.000001 0.000000 0.000000 -0.907534
    16 1.002930 -0.000002 -0.000003 0.000000 0.000000 -0.445043
    17 0.298214 -0.634094 0.430606 -1.213877 -0.988852 -0.287909
    18 2.637464 0.000002 -0.000006 0.002982 0.015807 0.301877
    19 1.308564 -0.000001 -0.000002 -0.000286 0.002528 -0.122706
    20 2.033356 1.000772 -1.937610 -0.103266 0.089287 -2.035076
    21 6.028141 0.000000 -0.000002 -0.665762 1.021723 -2.364200
    22 11.692554 0.000000 -0.000001 0.000022 -0.000024 -1.434847
    23 11.481701 -0.000001 -0.000009 -0.582504 -0.314776 0.672718
    24 2.914337 -0.023166 1.404053 0.112113 -0.102364 -1.126413
    25 1.285156 0.000000 0.000001 0.002338 -0.009083 -0.861154
    26 0.842651 0.000000 -0.000001 -0.000491 0.002508 -0.971587
    27 3.368061 0.007377 0.622456 0.032460 -0.034643 -1.257229
    28 1.610352 0.000000 0.000000 -0.000006 0.113985 -0.814216
    29 1.016602 -0.000004 0.000000 0.012151 -0.013056 -1.186696
    30 3.555526 0.023917 -0.200566 0.005897 0.017583 -1.539378
    31 1.666992 -0.000002 -0.000001 -0.000547 0.000864 -0.302758
    32 1.242188 0.000002 0.000000 -0.000006 0.000010 -1.431114
    33 3.449666 0.054213 -1.089087 0.098247 0.219047 -0.510921
    34 1.711614 0.000008 0.000011 0.000003 -0.057965 -0.738145
    35 1.005912 0.000002 0.000007 0.012013 -0.021865 -0.811090
    36 0.075534 -0.738749 -0.755818 1.353000 0.331458 -0.576543
    37 2.512458 -0.000008 -0.000008 -0.000002 -0.000001 0.364780
    38 1.328100 -0.000004 -0.000006 0.014697 -0.115761 0.212856
    39 -7.457223 -16.367346 -8.770656 1.575122 -0.000611 3.135895
    40 0.000000 2.744467 -4.266380 0.000000 0.000000 0.000000
    41 0.000000 4.619333 -1.567202 0.000000 0.000000 0.000000
    42 0.000035 4.595706 -0.866276 0.000000 0.000000 0.000000
  time 31
    0 0.000005 -0.663086 -9.140625 -1.570760 -1.391893 -1.570827
    1 2.033348 1.000767 1.937660 3.123914 -0.078241 1.677096
    2 6.028145 0.000003 0.000002 -2.586791 -0.279767 -0.333887
    3 11.692553 0.000081 -0.000005 -0.000027 0.000036 -1.395267
    4 11.481672 -0.000089 -0.000024 -0.066686 0.331211 0.679739
    5 3.281557 0.002119 -1.383388 0.099714 -0.198215 -1.489110
    6 1.324282 -0.000008 0.000005 0.000000 -0.021647 -0.479409
    7 0.819336 0.000000 -0.000002 0.000000 0.000000 -0.523560
    8 3.711854 0.109255 -0.568167 0.016819 -0.149472 -1.425254
    9 1.609408 0.000006 -0.000007 -0.000002 0.003014 -0.375164
    10 0.993191 -0.000008 0.000002 0.001475 0.002258 -0.454037
    11 3.786031 0.203224 0.243937 -0.085596 -0.075588 -0.678144
    12 1.684422 -0.000010 0.000009 -0.004744 0.005550 -1.387445
    13 1.256836 0.000005 0.000000 0.000000 0.000000 -0.532283
    14 3.594223 0.299551 1.109803 -0.116727 -0.020867 0.067108
    15 1.723633 0.000002 0.000001 0.000000 0.000000 -0.907534
    16 1.002930 -0.000002 -0.000003 0.000000 0.000000 -0.445043
    17 0.298214 -0.634094 0.426700 -1.181785 -0.975760 -0.315614
    18 2.633557 0.000002 -0.000006 0.002814 0.015855 0.291128
    19 1.308564 -0.000001 -0.000002 -0.000298 0.002528 -0.123752
    20 2.033356 1.000772 -1.937610 -0.103266 0.089287 -2.035076
    21 6.028141 0.000000 -0.000002 -0.652400 1.026468 -2.347995
    22 11.692554 0.000000 -0.000001 0.000034 -0.000024 -1.449752
    23 11.481701 -0.000001 -0.000009 -0.583227 -0.320157 0.675981
    24 2.910431 -0.023166 1.400147 0.112113 -0.102364 -1.126413
    25 1.285156 0.000000 0.000001 0.002338 -0.009083 -0.861154
    26 0.842651 0.000000 -0.000001 -0.000491 0.002508 -0.971609
    27 3.368061 0.007377 0.618550 0.032460 -0.034643 -1.257229
    28 1.610352 0.000000 0.000000 -0.000006 0.113985 -0.814216
    29 1.016602 -0.000004 0.000000 0.012151 -0.013056 -1.186696
    30 3.551620 0.023917 -0.204473 0.005885 0.017583 -1.539378
    31 1.666992 -0.000002 -0.000001 -0.000547 0.000864 -0.302758
    32 1.242188 0.000002 0.000000 -0.000006 0.000010 -1.431114
    33 3.449666 0.054213 -1.089087 0.098247 0.219047 -0.510921
    34 1.711614 0.000008 0.000011 0.000003 -0.057965 -0.738145
    35 1.005912 0.000002 0.000007 0.012013 -0.021865 -0.811090
    36 0.075534 -0.738749 -0.755818 1.353000 0.331458 -0.576543
    37 2.512458 -0.000008 -0.000008 -0.000002 -0.000001 0.359159
    38 1.328100 -0.000004 -0.000006 0.014697 -0.115761 0.195974
    39 -7.418159 -16.242342 -8.833158 1.570796 0.000000 3.141522
    40 0.000000 2.744467 -4.266380 0.000000 0.000000 0.000000
    41 0.000000 4.619333 -1.567202 0.000000 0.000000 0.000000
    42 0.000035 4.595706 -0.866276 0.000000 0.000000 0.000000
end
