// Created by Crowbar++ 0.74
version 1
nodes
  0 "ValveBiped.Bip01_Spine4" -1
  1 "ValveBiped.Bip01_L_Clavicle" 0
  2 "ValveBiped.Bip01_L_UpperArm" 1
  3 "ValveBiped.Bip01_L_Forearm" 2
  4 "ValveBiped.Bip01_L_Hand" 3
  5 "ValveBiped.Bip01_L_Finger4" 4
  6 "ValveBiped.Bip01_L_Finger41" 5
  7 "ValveBiped.Bip01_L_Finger42" 6
  8 "ValveBiped.Bip01_L_Finger3" 4
  9 "ValveBiped.Bip01_L_Finger31" 8
  10 "ValveBiped.Bip01_L_Finger32" 9
  11 "ValveBiped.Bip01_L_Finger2" 4
  12 "ValveBiped.Bip01_L_Finger21" 11
  13 "ValveBiped.Bip01_L_Finger22" 12
  14 "ValveBiped.Bip01_L_Finger1" 4
  15 "ValveBiped.Bip01_L_Finger11" 14
  16 "ValveBiped.Bip01_L_Finger12" 15
  17 "ValveBiped.Bip01_L_Finger0" 4
  18 "ValveBiped.Bip01_L_Finger01" 17
  19 "ValveBiped.Bip01_L_Finger02" 18
  20 "ValveBiped.Bip01_R_Clavicle" 0
  21 "ValveBiped.Bip01_R_UpperArm" 20
  22 "ValveBiped.Bip01_R_Forearm" 21
  23 "ValveBiped.Bip01_R_Hand" 22
  24 "ValveBiped.Bip01_R_Finger4" 23
  25 "ValveBiped.Bip01_R_Finger41" 24
  26 "ValveBiped.Bip01_R_Finger42" 25
  27 "ValveBiped.Bip01_R_Finger3" 23
  28 "ValveBiped.Bip01_R_Finger31" 27
  29 "ValveBiped.Bip01_R_Finger32" 28
  30 "ValveBiped.Bip01_R_Finger2" 23
  31 "ValveBiped.Bip01_R_Finger21" 30
  32 "ValveBiped.Bip01_R_Finger22" 31
  33 "ValveBiped.Bip01_R_Finger1" 23
  34 "ValveBiped.Bip01_R_Finger11" 33
  35 "ValveBiped.Bip01_R_Finger12" 34
  36 "ValveBiped.Bip01_R_Finger0" 23
  37 "ValveBiped.Bip01_R_Finger01" 36
  38 "ValveBiped.Bip01_R_Finger02" 37
  39 "v_weapon.scout_Parent" -1
  40 "v_weapon.scout__BoltBase" 39
  41 "v_weapon.scout_Bolt" 39
  42 "v_weapon.scout_Clip" 39
  43 "v_weapon.scout_BigBullet" 41
end
skeleton
  time 0
    0 -4.168096 -4.148570 -10.418287 -1.249449 -0.976716 -2.722275
    1 2.033348 1.000767 1.937659 2.155824 -0.923884 2.691126
    2 6.028141 0.000005 0.000002 -0.777817 -0.956473 -0.617957
    3 11.692560 0.000013 -0.000006 -0.046603 0.191705 -0.870062
    4 11.481678 0.000006 -0.000039 4.280303 -0.731832 -0.092750
    5 3.285469 0.006024 -1.383387 0.112731 -0.192811 -1.788235
    6 1.324282 -0.000013 0.000002 0.000000 -0.004054 -0.549726
    7 0.815305 -0.000006 -0.000001 0.000001 -0.000003 -0.523542
    8 3.711852 0.109255 -0.572073 0.074809 -0.129288 -1.817970
    9 1.609408 0.000008 -0.000006 -0.000002 0.005327 -0.427490
    10 0.993192 -0.000006 0.000002 0.001476 0.002258 -0.454048
    11 3.786029 0.207133 0.240031 0.036086 -0.099221 -1.765191
    12 1.684422 -0.000010 0.000009 0.000002 -0.004493 -0.253180
    13 1.255859 0.000006 0.000002 0.000000 0.000000 -0.532321
    14 3.594221 0.303457 1.109804 0.009964 -0.118434 -1.409189
    15 1.719431 0.000000 -0.000006 -0.000004 0.000016 -0.554965
    16 1.005919 0.000000 0.000004 0.000005 0.000018 -0.633474
    17 0.298218 -0.630186 0.422794 -1.443708 -0.999522 -0.348015
    18 2.637462 0.000002 -0.000006 -0.000002 0.026017 0.085391
    19 1.308570 0.000001 -0.000004 -0.009274 -0.024522 0.423436
    20 2.033356 1.000772 -1.937610 -0.128225 0.173026 4.244766
    21 6.028142 0.000001 -0.000001 -0.261756 0.721492 -1.718986
    22 11.692555 0.000031 0.000001 0.063075 -0.048454 -1.807008
    23 11.481703 0.000105 0.000003 -2.022685 -0.043814 1.752580
    24 2.914335 -0.027074 1.400147 -0.002660 0.009728 -1.340450
    25 1.285218 0.000000 -0.000001 0.000002 0.031611 -0.484969
    26 0.842651 0.000002 0.000000 -0.049553 0.043777 -0.974485
    27 3.368059 0.003469 0.626362 0.027846 0.002209 -1.454584
    28 1.605509 -0.000002 0.000002 0.000003 0.094855 -0.602648
    29 1.020535 -0.000004 -0.000002 0.012247 -0.013086 -1.191919
    30 3.555524 0.023917 -0.204473 -0.029338 0.013461 -1.480918
    31 1.668801 0.000006 0.000006 0.000002 0.148667 -0.670351
    32 1.240436 0.000002 0.000006 0.000002 -0.000011 -1.488674
    33 3.449664 0.054213 -1.085181 0.056383 0.351165 -0.342447
    34 1.711616 0.000006 0.000011 0.004342 -0.007426 -0.852974
    35 0.999023 0.000002 0.000000 -0.000550 -0.014666 -0.161092
    36 0.079434 -0.738750 -0.759723 1.102771 0.724431 -0.631286
    37 2.508554 -0.000008 -0.000008 -0.000002 -0.000001 0.359163
    38 1.249973 0.429699 -0.140631 0.024560 0.000801 1.034386
    39 -10.652213 -6.637124 -21.914476 0.294988 -0.173841 -3.203485
    40 0.000001 3.761717 -1.204106 0.000000 0.000000 0.000000
    41 0.000001 3.761716 -2.197272 0.000000 0.000000 0.000000
    42 0.000001 1.420890 -5.835940 0.000000 0.000000 0.000000
    43 -0.000751 -0.003515 -1.549599 0.000000 0.000000 0.000003
  time 1
    0 -4.160283 -4.148570 -10.414380 -1.247876 -0.978160 -2.721124
    1 2.033348 1.000767 1.937659 2.159034 -0.924296 2.687773
    2 6.028141 0.000005 0.000002 -0.774122 -0.955976 -0.623926
    3 11.692560 0.000013 -0.000006 -0.045980 0.191106 -0.866750
    4 11.481678 0.000006 -0.000039 4.281057 -0.730378 -0.094142
    5 3.281562 0.002118 -1.379481 0.112302 -0.192693 -1.787910
    6 1.324282 -0.000013 0.000002 0.000000 -0.004054 -0.549726
    7 0.815305 -0.000006 -0.000001 0.000001 -0.000003 -0.523542
    8 3.711852 0.109255 -0.568167 0.074373 -0.129176 -1.817687
    9 1.609408 0.000008 -0.000006 -0.000002 0.005327 -0.427490
    10 0.993192 -0.000006 0.000002 0.001476 0.002258 -0.454048
    11 3.786029 0.203227 0.243937 0.035669 -0.099078 -1.764940
    12 1.684422 -0.000010 0.000009 0.000002 -0.004493 -0.253180
    13 1.255859 0.000006 0.000002 0.000000 0.000000 -0.532321
    14 3.594221 0.299551 1.109804 0.009619 -0.118158 -1.408927
    15 1.719431 0.000000 -0.000006 -0.000004 0.000016 -0.554965
    16 1.005919 0.000000 0.000004 0.000005 0.000018 -0.633474
    17 0.298218 -0.634092 0.426701 -1.443576 -0.999088 -0.347890
    18 2.637462 0.000002 -0.000006 -0.000002 0.026017 0.085391
    19 1.308570 0.000001 -0.000004 -0.009274 -0.024522 0.423436
    20 2.033356 1.000772 -1.937610 -0.128225 0.173026 4.244766
    21 6.028142 0.000001 -0.000001 -0.261519 0.705950 -1.710263
    22 11.692555 0.000031 0.000001 0.035618 -0.028859 -1.806460
    23 11.481703 0.000105 0.000003 -2.040822 -0.050422 1.754519
    24 2.914335 -0.027074 1.400147 -0.002660 0.009728 -1.340450
    25 1.285218 0.000000 -0.000001 0.000002 0.031611 -0.484969
    26 0.838745 0.000002 0.000000 -0.049553 0.043777 -0.974485
    27 3.368059 0.003469 0.626362 0.027858 0.002209 -1.454584
    28 1.605509 -0.000002 0.000002 0.000003 0.094855 -0.602648
    29 1.020535 -0.000004 -0.000002 0.012247 -0.013086 -1.191919
    30 3.555524 0.023917 -0.204473 -0.029338 0.013461 -1.480918
    31 1.668801 0.000006 0.000006 0.000002 0.148667 -0.670351
    32 1.236529 0.000002 0.000006 0.000002 -0.000011 -1.488674
    33 3.449664 0.054213 -1.085181 0.056408 0.351165 -0.342447
    34 1.711616 0.000006 0.000011 0.004342 -0.007426 -0.852974
    35 0.999023 0.000002 0.000000 -0.000550 -0.014666 -0.161092
    36 0.079434 -0.738750 -0.759723 1.102783 0.724431 -0.631286
    37 2.512460 -0.000008 -0.000008 -0.000002 -0.000001 0.359163
    38 1.249973 0.429699 -0.140631 0.024560 0.000801 1.034386
    39 -10.652213 -6.637124 -21.914476 0.294988 -0.173841 -3.203485
    40 0.000001 3.761717 -1.204106 0.000000 0.000000 0.000000
    41 0.000001 3.761716 -2.197272 0.000000 0.000000 0.000000
    42 0.000001 1.420890 -5.835940 0.000000 0.000000 0.000000
    43 -0.000751 -0.003515 -1.549599 0.000000 0.000000 0.000003
  time 2
    0 -4.125126 -4.132945 -10.398755 -1.243332 -0.982329 -2.717768
    1 2.033348 1.000767 1.937659 2.168388 -0.925291 2.677945
    2 6.028141 0.000005 0.000002 -0.893699 -0.911448 -0.464362
    3 11.692560 0.000013 -0.000006 -0.067121 0.206902 -0.973643
    4 11.481678 0.000006 -0.000039 4.298033 -0.747902 -0.017895
    5 3.281562 0.002118 -1.379481 0.112302 -0.192693 -1.787910
    6 1.324282 -0.000013 0.000002 0.000000 -0.004042 -0.549700
    7 0.815305 -0.000006 -0.000001 0.000001 -0.000003 -0.523542
    8 3.711852 0.109255 -0.568167 0.074373 -0.129176 -1.817687
    9 1.609408 0.000008 -0.000006 -0.000002 0.005327 -0.427490
    10 0.993192 -0.000006 0.000002 0.001476 0.002258 -0.454048
    11 3.786029 0.203227 0.247844 0.035669 -0.099078 -1.764940
    12 1.684422 -0.000010 0.000009 0.000002 -0.004493 -0.253180
    13 1.255859 0.000006 0.000002 0.000000 0.000000 -0.532321
    14 3.594221 0.299551 1.113710 0.009619 -0.118158 -1.408927
    15 1.719431 0.000000 -0.000006 -0.000004 0.000016 -0.554965
    16 1.005919 0.000000 0.000004 0.000005 0.000018 -0.633474
    17 0.298218 -0.634092 0.426701 -1.443576 -0.999088 -0.347890
    18 2.637462 0.000002 -0.000006 -0.000002 0.026017 0.085391
    19 1.308570 0.000001 -0.000004 -0.009274 -0.024522 0.423436
    20 2.033356 1.000772 -1.937610 -0.128225 0.173026 4.244766
    21 6.028142 0.000001 -0.000001 -0.316255 0.667094 -1.773253
    22 11.692555 0.000031 0.000001 0.039393 -0.030477 -1.806460
    23 11.481703 0.000105 0.000003 -2.016855 -0.061667 1.792947
    24 2.914335 -0.023167 1.400147 -0.002374 0.009105 -1.340561
    25 1.285218 0.000000 -0.000001 0.000002 0.024670 -0.425710
    26 0.842651 0.000002 0.000000 -0.047553 0.042734 -0.957348
    27 3.368059 0.007375 0.618550 0.028206 0.001622 -1.454663
    28 1.605509 -0.000002 0.000002 0.000003 0.087724 -0.545289
    29 1.020535 -0.000004 -0.000002 0.012100 -0.013026 -1.184424
    30 3.555524 0.023917 -0.204473 -0.027025 0.013928 -1.452393
    31 1.668801 0.000006 0.000006 0.000002 0.140877 -0.639456
    32 1.240436 0.000002 0.000006 0.000002 -0.000011 -1.416996
    33 3.449664 0.054213 -1.089087 0.056006 0.350578 -0.342697
    34 1.711616 0.000006 0.000011 0.004342 -0.007426 -0.852974
    35 0.999023 0.000002 0.000000 -0.000550 -0.014666 -0.161092
    36 0.079434 -0.738750 -0.759723 1.135764 0.696724 -0.597282
    37 2.508554 -0.000008 -0.000008 -0.000002 -0.000001 0.359141
    38 1.257785 0.398448 -0.152350 0.032350 0.017615 0.973580
    39 -10.222512 -7.586372 -21.422273 0.329912 -0.149258 -3.200449
    40 0.000001 3.761717 -1.204106 0.000000 0.000000 0.000000
    41 0.000001 3.761716 -2.197272 0.000000 0.000000 0.000000
    42 0.000001 1.420890 -5.835940 0.000000 0.000000 0.000000
    43 -0.000751 -0.003515 -1.549599 0.000000 0.000000 0.000003
  time 3
    0 -4.066530 -4.105600 -10.375317 -1.236123 -0.989057 -2.712351
    1 2.033348 1.000767 1.937659 2.183520 -0.926870 2.662026
    2 6.028141 0.000005 0.000002 -0.994326 -0.857752 -0.328391
    3 11.692560 0.000013 -0.000006 -0.088142 0.219426 -1.072919
    4 11.481678 0.000006 -0.000039 4.312839 -0.760033 0.058003
    5 3.281562 0.002118 -1.379481 0.112077 -0.192456 -1.788003
    6 1.324282 -0.000013 0.000002 0.000000 -0.004042 -0.549726
    7 0.815305 -0.000006 -0.000001 0.000001 -0.000003 -0.523542
    8 3.711852 0.109255 -0.568167 0.074135 -0.128951 -1.817781
    9 1.609408 0.000008 -0.000006 -0.000002 0.005327 -0.427490
    10 0.993192 -0.000006 0.000002 0.001476 0.002258 -0.454048
    11 3.786029 0.203227 0.243937 0.035451 -0.098850 -1.765011
    12 1.684422 -0.000010 0.000009 0.000002 -0.004493 -0.253180
    13 1.255859 0.000006 0.000002 0.000000 0.000000 -0.532321
    14 3.594221 0.299551 1.113710 0.009498 -0.117858 -1.409002
    15 1.719431 0.000000 -0.000006 -0.000004 0.000016 -0.554965
    16 1.005919 0.000000 0.000004 0.000005 0.000018 -0.633474
    17 0.298218 -0.634092 0.426701 -1.443206 -0.998822 -0.348327
    18 2.637462 0.000002 -0.000006 -0.000002 0.026017 0.085391
    19 1.304664 0.000001 -0.000004 -0.009274 -0.024522 0.423436
    20 2.033356 1.000772 -1.937610 -0.128225 0.173026 4.244766
    21 6.028142 0.000001 -0.000001 -0.365621 0.617834 -1.827687
    22 11.692555 0.000031 0.000001 0.022795 -0.018516 -1.803408
    23 11.481703 0.000105 0.000003 -2.005250 -0.081076 1.836782
    24 2.914335 -0.023167 1.400147 -0.002374 0.009105 -1.340561
    25 1.285218 0.000000 -0.000001 0.000002 0.016966 -0.361213
    26 0.842651 0.000002 0.000000 -0.045398 0.041568 -0.938896
    27 3.368059 0.007375 0.618550 0.028206 0.001622 -1.454663
    28 1.605509 -0.000002 0.000002 0.000003 0.079671 -0.483131
    29 1.020535 -0.000004 -0.000002 0.011940 -0.012966 -1.176439
    30 3.555524 0.023917 -0.204473 -0.024879 0.015103 -1.421224
    31 1.668801 0.000006 0.000006 0.000002 0.132308 -0.605179
    32 1.236529 0.000002 0.000006 0.000002 0.000001 -1.338445
    33 3.449664 0.054213 -1.089087 0.056006 0.350578 -0.342697
    34 1.711616 0.000006 0.000011 0.004342 -0.007426 -0.852924
    35 0.999023 0.000002 0.000000 -0.000550 -0.014666 -0.161092
    36 0.079434 -0.738750 -0.759723 1.169537 0.666423 -0.561718
    37 2.512460 -0.000008 -0.000008 -0.000002 -0.000001 0.359163
    38 1.265598 0.371103 -0.160163 0.039241 0.035377 0.911751
    39 -9.792812 -8.477024 -20.851943 0.361449 -0.123721 -3.197178
    40 0.000001 3.761717 -1.204106 0.000000 0.000000 0.000000
    41 0.000001 3.761716 -2.197272 0.000000 0.000000 0.000000
    42 0.000001 1.420890 -5.835940 0.000000 0.000000 0.000000
    43 -0.000751 -0.003515 -1.549599 0.000000 0.000000 0.000003
  time 4
    0 -3.988403 -4.074349 -10.347972 -1.226540 -0.998180 -2.704825
    1 2.033348 1.000767 1.937659 2.204108 -0.928586 2.640327
    2 6.028141 0.000005 0.000002 -1.079413 -0.797599 -0.213834
    3 11.692560 0.000013 -0.000006 -0.108683 0.229121 -1.165157
    4 11.481678 0.000006 -0.000039 4.328777 -0.766738 0.131929
    5 3.281562 0.002118 -1.379481 0.112302 -0.192693 -1.787910
    6 1.324282 -0.000013 0.000002 0.000000 -0.004042 -0.549700
    7 0.815305 -0.000006 -0.000001 0.000001 -0.000003 -0.523542
    8 3.711852 0.109255 -0.568167 0.074373 -0.129176 -1.817687
    9 1.609408 0.000008 -0.000006 -0.000002 0.005327 -0.427490
    10 0.993192 -0.000006 0.000002 0.001476 0.002258 -0.454048
    11 3.786029 0.203227 0.247844 0.035669 -0.099078 -1.764940
    12 1.684422 -0.000010 0.000009 0.000002 -0.004493 -0.253146
    13 1.255859 0.000006 0.000002 0.000000 0.000000 -0.532321
    14 3.594221 0.299551 1.113710 0.009619 -0.118158 -1.408927
    15 1.719431 0.000000 -0.000006 -0.000004 0.000016 -0.554965
    16 1.005919 0.000000 0.000004 0.000005 0.000018 -0.633474
    17 0.298218 -0.634092 0.426701 -1.443576 -0.999088 -0.347890
    18 2.633555 0.000002 -0.000006 -0.000002 0.026017 0.085391
    19 1.304664 0.000001 -0.000004 -0.009274 -0.024522 0.423436
    20 2.033356 1.000772 -1.937610 -0.128225 0.173026 4.244766
    21 6.028142 0.000001 -0.000001 -0.403533 0.607912 -1.899149
    22 11.692555 0.000031 0.000001 0.067042 -0.054062 -1.798242
    23 11.481703 0.000105 0.000003 -1.948247 -0.100295 1.874976
    24 2.914335 -0.023167 1.400147 -0.002374 0.009105 -1.340561
    25 1.285218 0.000000 -0.000001 0.000002 0.008595 -0.292575
    26 0.838745 0.000002 0.000000 -0.043158 0.040295 -0.919285
    27 3.368059 0.007375 0.618550 0.028206 0.001622 -1.454663
    28 1.605509 -0.000002 0.000002 0.000003 0.070778 -0.417180
    29 1.020535 -0.000004 -0.000002 0.011780 -0.012894 -1.167966
    30 3.555524 0.023917 -0.204473 -0.022554 0.016409 -1.387982
    31 1.668801 0.000006 0.000006 0.000002 0.123211 -0.568532
    32 1.236529 0.000002 0.000006 0.000002 -0.000011 -1.254536
    33 3.449664 0.054213 -1.089087 0.056006 0.350578 -0.342697
    34 1.711616 0.000006 0.000011 0.004342 -0.007426 -0.852974
    35 0.999023 0.000002 0.000000 -0.000550 -0.014666 -0.161092
    36 0.079434 -0.734843 -0.759723 1.202506 0.633591 -0.526066
    37 2.508554 -0.000008 -0.000008 -0.000002 -0.000001 0.359163
    38 1.273411 0.347665 -0.171882 0.044946 0.053641 0.849240
    39 -9.355298 -9.312987 -20.226924 0.391857 -0.097308 -3.192973
    40 0.000001 3.761717 -1.204106 0.000000 0.000000 0.000000
    41 0.000001 3.761716 -2.197272 0.000000 0.000000 0.000000
    42 0.000001 1.420890 -5.835940 0.000000 0.000000 0.000000
    43 -0.000751 -0.003515 -1.549599 0.000000 0.000000 0.000003
  time 5
    0 -3.894650 -4.039192 -10.312815 -1.214991 -1.009521 -2.695285
    1 2.033348 1.000767 1.937659 2.229741 -0.930302 2.613193
    2 6.028141 0.000005 0.000002 -1.150572 -0.732613 -0.118323
    3 11.692560 0.000013 -0.000006 -0.128398 0.236408 -1.250606
    4 11.481678 0.000006 -0.000039 4.346979 -0.768831 0.201503
    5 3.281562 0.002118 -1.379481 0.112302 -0.192693 -1.787910
    6 1.324282 -0.000013 0.000002 0.000000 -0.004042 -0.549726
    7 0.815305 -0.000006 -0.000001 0.000001 -0.000003 -0.523542
    8 3.711852 0.109255 -0.568167 0.074373 -0.129176 -1.817687
    9 1.605501 0.000008 -0.000006 -0.000002 0.005327 -0.427490
    10 0.993192 -0.000006 0.000002 0.001476 0.002258 -0.454048
    11 3.786029 0.203227 0.247844 0.035669 -0.099078 -1.764940
    12 1.684422 -0.000010 0.000009 0.000002 -0.004493 -0.253146
    13 1.255859 0.000006 0.000002 0.000000 0.000000 -0.532321
    14 3.594221 0.299551 1.113710 0.009619 -0.118158 -1.408927
    15 1.719431 0.000000 -0.000006 -0.000004 0.000016 -0.554965
    16 1.005919 0.000000 0.000004 0.000005 0.000018 -0.633474
    17 0.298218 -0.634092 0.426701 -1.443576 -0.999088 -0.347890
    18 2.637462 0.000002 -0.000006 -0.000002 0.026017 0.085391
    19 1.304664 0.000001 -0.000004 -0.009274 -0.024522 0.423436
    20 2.033356 1.000772 -1.937610 -0.128225 0.173026 4.244766
    21 6.028142 0.000001 -0.000001 -0.448870 0.570462 -1.952493
    22 11.692555 0.000031 0.000001 0.054518 -0.040939 -1.789242
    23 11.481703 0.000105 0.000003 -1.929948 -0.134507 1.914286
    24 2.914335 -0.027074 1.400147 -0.002746 0.009692 -1.340589
    25 1.285218 0.000000 -0.000001 0.000002 -0.000237 -0.220830
    26 0.842651 0.000002 0.000000 -0.040833 0.038915 -0.898805
    27 3.368059 0.003469 0.622456 0.027786 0.002173 -1.454689
    28 1.605509 -0.000002 0.000002 0.000003 0.061142 -0.348239
    29 1.020535 -0.000004 -0.000002 0.011609 -0.012823 -1.159135
    30 3.555524 0.023917 -0.204473 -0.020481 0.018398 -1.353349
    31 1.668801 0.000006 0.000006 0.000002 0.113827 -0.530553
    32 1.240436 0.000002 0.000006 0.000002 -0.000011 -1.166938
    33 3.449664 0.054213 -1.085181 0.056320 0.351201 -0.342597
    34 1.711616 0.000006 0.000011 0.004342 -0.007426 -0.852924
    35 0.999023 0.000002 0.000000 -0.000550 -0.014666 -0.161092
    36 0.079434 -0.738750 -0.759723 1.233882 0.599894 -0.491135
    37 2.508554 -0.000008 -0.000008 -0.000002 -0.000001 0.359163
    38 1.277317 0.320320 -0.175789 0.049297 0.071966 0.786388
    39 -8.921691 -10.105980 -19.539403 0.423706 -0.070286 -3.187522
    40 0.000001 3.761717 -1.204106 0.000000 0.000000 0.000000
    41 0.000001 3.761716 -2.197272 0.000000 0.000000 0.000000
    42 0.000001 1.420890 -5.835940 0.000000 0.000000 0.000000
    43 -0.000751 -0.003515 -1.549599 0.000000 0.000000 0.000003
  time 6
    0 -3.785272 -3.996222 -10.269845 -1.201825 -1.022876 -2.683732
    1 2.033348 1.000767 1.937659 2.260004 -0.931606 2.580933
    2 6.028141 0.000005 0.000002 -1.213488 -0.664737 -0.038161
    3 11.692560 0.000013 -0.000006 -0.147010 0.241621 -1.329182
    4 11.481678 0.000006 -0.000039 4.371216 -0.765071 0.263823
    5 3.281562 0.006024 -1.383387 0.112588 -0.192903 -1.787957
    6 1.324282 -0.000013 0.000002 0.000000 -0.004042 -0.549726
    7 0.815305 -0.000006 -0.000001 0.000001 -0.000003 -0.523542
    8 3.711852 0.109255 -0.572073 0.074651 -0.129376 -1.817687
    9 1.609408 0.000008 -0.000006 -0.000002 0.005327 -0.427490
    10 0.993192 -0.000006 0.000002 0.001476 0.002258 -0.454048
    11 3.786029 0.207133 0.243937 0.035941 -0.099293 -1.764940
    12 1.684422 -0.000010 0.000009 0.000002 -0.004493 -0.253180
    13 1.255859 0.000006 0.000002 0.000000 0.000000 -0.532321
    14 3.590314 0.303457 1.109804 0.009809 -0.118458 -1.408927
    15 1.719431 0.000000 -0.000006 -0.000004 0.000016 -0.554965
    16 1.005919 0.000000 0.000004 0.000005 0.000018 -0.633474
    17 0.298218 -0.630186 0.426701 -1.443893 -0.999402 -0.347598
    18 2.637462 0.000002 -0.000006 -0.000002 0.026017 0.085391
    19 1.304664 0.000001 -0.000004 -0.009274 -0.024522 0.423436
    20 2.033356 1.000772 -1.937610 -0.128225 0.173026 4.244766
    21 6.028142 0.000001 -0.000001 -0.481728 0.531870 -1.999547
    22 11.692555 0.000031 0.000001 0.029422 -0.026270 -1.778520
    23 11.481703 0.000105 0.000003 -1.920502 -0.179742 1.948073
    24 2.910429 -0.023167 1.400147 -0.002159 0.009237 -1.340116
    25 1.285218 0.000000 -0.000001 0.000002 -0.009434 -0.147015
    26 0.842651 0.000002 0.000000 -0.038473 0.037458 -0.877657
    27 3.364152 0.007375 0.622456 0.028397 0.001778 -1.454242
    28 1.605509 -0.000002 0.000002 0.000003 0.050920 -0.277338
    29 1.020535 -0.000004 -0.000002 0.011424 -0.012739 -1.150010
    30 3.551618 0.027823 -0.204473 -0.017377 0.019429 -1.317189
    31 1.668801 0.000006 0.000006 0.000002 0.104431 -0.492281
    32 1.240436 0.000002 0.000006 0.000002 -0.000011 -1.077244
    33 3.445758 0.054213 -1.085181 0.056232 0.350482 -0.342196
    34 1.711616 0.000006 0.000011 0.004342 -0.007426 -0.852924
    35 0.999023 0.000002 0.000000 -0.000550 -0.014666 -0.161092
    36 0.075528 -0.738750 -0.759723 1.262453 0.564243 -0.457484
    37 2.508554 -0.000008 -0.000008 -0.000002 -0.000001 0.359163
    38 1.281224 0.300789 -0.187508 0.052233 0.089906 0.723511
    39 -8.499804 -10.852097 -18.805006 0.459526 -0.042882 -3.180202
    40 0.000001 3.761717 -1.204106 0.000000 0.000000 0.000000
    41 0.000001 3.761716 -2.197272 0.000000 0.000000 0.000000
    42 0.000001 1.420890 -5.835940 0.000000 0.000000 0.000000
    43 -0.000751 -0.003515 -1.549599 0.000000 0.000000 0.000003
  time 7
    0 -3.660268 -3.945439 -10.226875 -1.187480 -1.038081 -2.670118
    1 2.033348 1.000767 1.937659 2.294486 -0.932155 2.544009
    2 6.028141 0.000005 0.000002 -1.276687 -0.591894 0.034041
    3 11.692560 0.000013 -0.000006 -0.165586 0.245349 -1.406185
    4 11.481678 0.000006 -0.000039 4.401678 -0.752052 0.318542
    5 3.281562 0.002118 -1.379481 0.112302 -0.192693 -1.787910
    6 1.324282 -0.000013 0.000002 0.000000 -0.004042 -0.549726
    7 0.815305 -0.000006 -0.000001 0.000001 -0.000003 -0.523542
    8 3.711852 0.109255 -0.568167 0.074373 -0.129176 -1.817687
    9 1.609408 0.000008 -0.000006 -0.000002 0.005327 -0.427490
    10 0.993192 -0.000006 0.000002 0.001476 0.002258 -0.454048
    11 3.786029 0.203227 0.247844 0.035669 -0.099078 -1.764940
    12 1.684422 -0.000010 0.000009 0.000002 -0.004493 -0.253180
    13 1.255859 0.000006 0.000002 0.000000 0.000000 -0.532321
    14 3.594221 0.299551 1.113710 0.009619 -0.118158 -1.408927
    15 1.719431 0.000000 -0.000006 -0.000004 0.000016 -0.554965
    16 1.005919 0.000000 0.000004 0.000005 0.000018 -0.633474
    17 0.298218 -0.634092 0.426701 -1.443576 -0.999088 -0.347890
    18 2.637462 0.000002 -0.000006 -0.000002 0.026017 0.085391
    19 1.304664 0.000001 -0.000004 -0.009274 -0.024522 0.423436
    20 2.033356 1.000772 -1.937610 -0.128225 0.173026 4.244766
    21 6.028142 0.000001 -0.000001 -0.518298 0.528094 -2.066898
    22 11.692555 0.000031 0.000001 0.052409 -0.041155 -1.766075
    23 11.481703 0.000105 0.000003 -1.873107 -0.230950 1.964996
    24 2.914335 -0.023167 1.400147 -0.002374 0.009105 -1.340561
    25 1.285218 0.000000 -0.000001 0.000002 -0.018822 -0.072134
    26 0.842651 0.000002 0.000000 -0.036096 0.035893 -0.856085
    27 3.368059 0.007375 0.618550 0.028206 0.001622 -1.454663
    28 1.605509 -0.000002 0.000002 0.000003 0.040253 -0.205357
    29 1.020535 -0.000004 -0.000002 0.011253 -0.012667 -1.140624
    30 3.555524 0.023917 -0.204473 -0.014992 0.020879 -1.281411
    31 1.668801 0.000006 0.000006 0.000002 0.095275 -0.454701
    32 1.240436 0.000002 0.000006 0.000002 -0.000011 -0.987006
    33 3.449664 0.054213 -1.089087 0.056006 0.350578 -0.342697
    34 1.711616 0.000006 0.000011 0.004342 -0.007426 -0.852974
    35 0.999023 0.000002 0.000000 -0.000550 -0.014666 -0.161092
    36 0.079434 -0.738750 -0.755817 1.287645 0.529938 -0.427041
    37 2.512460 -0.000008 -0.000008 -0.000002 -0.000001 0.359163
    38 1.289036 0.273444 -0.191414 0.053791 0.107044 0.660976
    39 -8.097448 -11.547430 -18.035451 0.501848 -0.015478 -3.170858
    40 0.000001 3.761717 -1.204106 0.000000 0.000000 0.000000
    41 0.000001 3.761716 -2.197272 0.000000 0.000000 0.000000
    42 0.000001 1.420890 -5.835940 0.000000 0.000000 0.000000
    43 -0.000751 -0.003515 -1.549599 0.000000 0.000000 0.000003
  time 8
    0 -3.519639 -3.890750 -10.179998 -1.172465 -1.054945 -2.654346
    1 2.033348 1.000767 1.937659 2.332545 -0.931606 2.502884
    2 6.028141 0.000005 0.000002 -1.344625 -0.515663 0.098757
    3 11.692560 0.000013 -0.000006 -0.182377 0.247482 -1.474991
    4 11.481678 0.000006 -0.000039 4.442890 -0.725979 0.357942
    5 3.277656 0.006024 -1.379481 0.112057 -0.192706 -1.787632
    6 1.324282 -0.000013 0.000002 0.000000 -0.004042 -0.549726
    7 0.815305 -0.000006 -0.000001 0.000001 -0.000003 -0.523542
    8 3.711852 0.109255 -0.568167 0.074135 -0.129201 -1.817405
    9 1.609408 0.000008 -0.000006 -0.000002 0.005327 -0.427490
    10 0.993192 -0.000006 0.000002 0.001476 0.002258 -0.454048
    11 3.786029 0.207133 0.243937 0.035433 -0.099090 -1.764652
    12 1.684422 -0.000010 0.000009 0.000002 -0.004493 -0.253180
    13 1.255859 0.000006 0.000002 0.000000 0.000000 -0.532321
    14 3.594221 0.299551 1.113710 0.009394 -0.118086 -1.408627
    15 1.719431 0.000000 -0.000006 -0.000004 0.000016 -0.554965
    16 1.005919 0.000000 0.000004 0.000005 0.000018 -0.633474
    17 0.298218 -0.634092 0.426701 -1.443668 -0.998846 -0.347556
    18 2.637462 0.000002 -0.000006 -0.000002 0.026017 0.085391
    19 1.304664 0.000001 -0.000004 -0.009274 -0.024522 0.423436
    20 2.033356 1.000772 -1.937610 -0.128225 0.173026 4.244766
    21 6.028142 0.000001 -0.000001 -0.546574 0.519928 -2.127372
    22 11.692555 0.000031 0.000001 0.055585 -0.047483 -1.750892
    23 11.481703 0.000105 0.000003 -1.838074 -0.292894 1.969579
    24 2.914335 -0.023167 1.400147 -0.002374 0.009105 -1.340561
    25 1.285218 0.000000 -0.000001 0.000002 -0.028194 0.002747
    26 0.842651 0.000002 0.000000 -0.033719 0.034283 -0.834291
    27 3.368059 0.007375 0.618550 0.028206 0.001622 -1.454663
    28 1.605509 -0.000002 0.000002 0.000003 0.029335 -0.133049
    29 1.020535 -0.000004 -0.000002 0.011068 -0.012583 -1.131108
    30 3.555524 0.023917 -0.204473 -0.012392 0.022497 -1.245169
    31 1.668801 0.000006 0.000006 0.000002 0.086598 -0.418852
    32 1.236529 0.000002 0.000006 0.000002 -0.000011 -0.897855
    33 3.449664 0.054213 -1.089087 0.056006 0.350578 -0.342697
    34 1.711616 0.000006 0.000011 0.004342 -0.007426 -0.852924
    35 0.999023 0.000002 0.000000 -0.000550 -0.014666 -0.161092
    36 0.079434 -0.738750 -0.755817 1.309720 0.497106 -0.398761
    37 2.508554 -0.000008 -0.000008 -0.000002 -0.000001 0.359163
    38 1.292943 0.242193 -0.199227 0.054078 0.123008 0.599147
    39 -7.722436 -12.211513 -17.222926 0.553319 0.011469 -3.159177
    40 0.000001 3.761717 -1.204106 0.000000 0.000000 0.000000
    41 0.000001 3.761716 -2.197272 0.000000 0.000000 0.000000
    42 0.000001 1.420890 -5.835940 0.000000 0.000000 0.000000
    43 -0.000751 -0.003515 -1.549599 0.000000 0.000000 0.000003
  time 9
    0 -3.363384 -3.828248 -10.129215 -1.157231 -1.073267 -2.636369
    1 2.033348 1.000767 1.937659 2.373630 -0.929581 2.458213
    2 6.028141 0.000005 0.000002 -1.417489 -0.438756 0.152767
    3 11.692560 0.000013 -0.000006 -0.196339 0.248393 -1.531874
    4 11.481678 0.000006 -0.000039 4.498343 -0.686498 0.378484
    5 3.281562 0.002118 -1.383387 0.112302 -0.192693 -1.787910
    6 1.324282 -0.000013 0.000002 0.000000 -0.004042 -0.549726
    7 0.815305 -0.000006 -0.000001 0.000001 -0.000003 -0.523542
    8 3.711852 0.109255 -0.568167 0.074373 -0.129176 -1.817687
    9 1.609408 0.000008 -0.000006 -0.000002 0.005327 -0.427490
    10 0.993192 -0.000006 0.000002 0.001476 0.002258 -0.454048
    11 3.786029 0.203227 0.247844 0.035669 -0.099078 -1.764940
    12 1.684422 -0.000010 0.000009 0.000002 -0.004493 -0.253180
    13 1.255859 0.000006 0.000002 0.000000 0.000000 -0.532321
    14 3.594221 0.299551 1.113710 0.009619 -0.118158 -1.408927
    15 1.719431 0.000000 -0.000006 -0.000004 0.000016 -0.554965
    16 1.005919 0.000000 0.000004 0.000005 0.000018 -0.633474
    17 0.298218 -0.634092 0.426701 -1.443576 -0.999088 -0.347890
    18 2.637462 0.000002 -0.000006 -0.000002 0.026017 0.085391
    19 1.308570 0.000001 -0.000004 -0.009274 -0.024522 0.423436
    20 2.033356 1.000772 -1.937610 -0.128225 0.173026 4.244766
    21 6.028142 0.000001 -0.000001 -0.580379 0.507020 -2.178451
    22 11.692555 0.000031 0.000001 0.033257 -0.028775 -1.734535
    23 11.481703 0.000105 0.000003 -1.815997 -0.364019 1.962998
    24 2.914335 -0.023167 1.400147 -0.002374 0.009105 -1.340561
    25 1.285218 0.000000 -0.000001 0.000002 -0.037360 0.076592
    26 0.842651 0.000002 0.000000 -0.031377 0.032596 -0.812496
    27 3.368059 0.007375 0.618550 0.028206 0.001622 -1.454663
    28 1.605509 -0.000002 0.000002 0.000003 0.018345 -0.061420
    29 1.020535 -0.000004 -0.000002 0.010884 -0.012487 -1.121526
    30 3.555524 0.023917 -0.204473 -0.009803 0.024139 -1.209500
    31 1.668801 0.000006 0.000006 0.000002 0.078629 -0.385721
    32 1.236529 0.000002 0.000006 0.000002 -0.000011 -0.811305
    33 3.449664 0.054213 -1.089087 0.056006 0.350578 -0.342697
    34 1.711616 0.000006 0.000011 0.004342 -0.007426 -0.852974
    35 0.999023 0.000002 0.000000 -0.000550 -0.014666 -0.161092
    36 0.079434 -0.738750 -0.759723 1.328273 0.466932 -0.373629
    37 2.508554 -0.000008 -0.000008 -0.000002 -0.000001 0.359163
    38 1.296849 0.214848 -0.203133 0.053287 0.137461 0.538267
    39 -7.370863 -12.844345 -16.379151 0.616627 0.037691 -3.145238
    40 0.000001 3.761717 -1.204106 0.000000 0.000000 0.000000
    41 0.000001 3.761716 -2.197272 0.000000 0.000000 0.000000
    42 0.000001 1.420890 -5.835940 0.000000 0.000000 0.000000
    43 -0.000751 -0.003515 -1.549599 0.000000 0.000000 0.000003
  time 10
    0 -3.195410 -3.765746 -10.082339 -1.142304 -1.092882 -2.615995
    1 2.033348 1.000767 1.937659 2.416962 -0.925840 2.410651
    2 6.028141 0.000005 0.000002 -1.498218 -0.363609 0.193700
    3 11.692560 0.000013 -0.000006 -0.207760 0.248560 -1.578241
    4 11.481678 0.000006 -0.000039 4.570112 -0.633217 0.383822
    5 3.281562 0.002118 -1.379481 0.112302 -0.192693 -1.787910
    6 1.324282 -0.000013 0.000002 0.000000 -0.004042 -0.549726
    7 0.815305 -0.000006 -0.000001 0.000001 -0.000003 -0.523542
    8 3.711852 0.109255 -0.568167 0.074373 -0.129176 -1.817687
    9 1.609408 0.000008 -0.000006 -0.000002 0.005327 -0.427490
    10 0.993192 -0.000006 0.000002 0.001476 0.002258 -0.454048
    11 3.786029 0.203227 0.247844 0.035669 -0.099078 -1.764940
    12 1.684422 -0.000010 0.000009 0.000002 -0.004493 -0.253180
    13 1.255859 0.000006 0.000002 0.000000 0.000000 -0.532321
    14 3.594221 0.299551 1.113710 0.009619 -0.118158 -1.408927
    15 1.719431 0.000000 -0.000006 -0.000004 0.000016 -0.554965
    16 1.005919 0.000000 0.000004 0.000005 0.000018 -0.633474
    17 0.298218 -0.634092 0.426701 -1.443576 -0.999088 -0.347890
    18 2.637462 0.000002 -0.000006 -0.000002 0.026017 0.085391
    19 1.308570 0.000001 -0.000004 -0.009274 -0.024522 0.423436
    20 2.033356 1.000772 -1.937610 -0.128225 0.173026 4.244766
    21 6.028142 0.000001 -0.000001 -0.612131 0.514177 -2.239764
    22 11.692555 0.000031 0.000001 0.033281 -0.028140 -1.716925
    23 11.481703 0.000105 0.000003 -1.765634 -0.440290 1.927507
    24 2.914335 -0.023167 1.400147 -0.002374 0.009105 -1.340561
    25 1.285218 0.000000 -0.000001 0.000002 -0.046176 0.148426
    26 0.842651 0.000002 0.000000 -0.029103 0.030893 -0.790924
    27 3.368059 0.007375 0.622456 0.028206 0.001622 -1.454663
    28 1.605509 -0.000002 0.000002 0.000003 0.007511 0.008702
    29 1.020535 -0.000004 -0.000002 0.010713 -0.012403 -1.111913
    30 3.555524 0.023917 -0.200566 -0.007274 0.025781 -1.174785
    31 1.668801 0.000006 0.000006 0.000002 0.071594 -0.356371
    32 1.240436 0.000002 0.000006 0.000002 -0.000011 -0.728988
    33 3.449664 0.054213 -1.089087 0.056006 0.350578 -0.342697
    34 1.711616 0.000006 0.000011 0.004342 -0.007426 -0.852924
    35 0.999023 0.000002 0.000000 -0.000550 -0.014666 -0.161092
    36 0.079434 -0.738750 -0.759723 1.343325 0.440506 -0.352044
    37 2.508554 -0.000008 -0.000008 -0.000002 -0.000001 0.359141
    38 1.304662 0.183597 -0.203133 0.051658 0.150129 0.478800
    39 -7.046634 -13.453739 -15.508030 0.694340 0.062465 -3.128730
    40 0.000001 3.761717 -1.204106 0.000000 0.000000 0.000000
    41 0.000001 3.761716 -2.197272 0.000000 0.000000 0.000000
    42 0.000001 1.420890 -5.835940 0.000000 0.000000 0.000000
    43 -0.000751 -0.003515 -1.549599 0.000000 0.000000 0.000003
  time 11
    0 -3.023530 -3.695431 -10.031556 -1.128264 -1.113548 -2.593033
    1 2.033348 1.000767 1.937659 2.461716 -0.920143 2.360970
    2 6.028141 0.000005 0.000002 -1.590980 -0.295552 0.219947
    3 11.692560 0.000013 -0.000006 -0.214975 0.248417 -1.607635
    4 11.481678 0.000006 -0.000039 4.659233 -0.562341 0.372043
    5 3.281562 0.002118 -1.379481 0.112302 -0.192679 -1.787910
    6 1.324282 -0.000013 0.000002 0.000000 -0.004054 -0.549700
    7 0.815305 -0.000006 -0.000001 0.000001 -0.000003 -0.523542
    8 3.711852 0.109255 -0.568167 0.074373 -0.129176 -1.817687
    9 1.605501 0.000008 -0.000006 -0.000002 0.005327 -0.427490
    10 0.993192 -0.000006 0.000002 0.001476 0.002258 -0.454048
    11 3.786029 0.203227 0.243937 0.035669 -0.099078 -1.764940
    12 1.684422 -0.000010 0.000009 0.000002 -0.004493 -0.253180
    13 1.255859 0.000006 0.000002 0.000000 0.000000 -0.532321
    14 3.594221 0.299551 1.113710 0.009619 -0.118158 -1.408927
    15 1.719431 0.000000 -0.000006 -0.000004 0.000016 -0.554965
    16 1.005919 0.000000 0.000004 0.000005 0.000018 -0.633474
    17 0.298218 -0.634092 0.426701 -1.443576 -0.999088 -0.347890
    18 2.637462 0.000002 -0.000006 -0.000002 0.026017 0.085391
    19 1.304664 0.000001 -0.000004 -0.009274 -0.024522 0.423436
    20 2.033356 1.000772 -1.937610 -0.128225 0.172992 4.244766
    21 6.028142 0.000001 -0.000001 -0.642382 0.525328 -2.297469
    22 11.692555 0.000031 0.000001 0.025827 -0.022579 -1.699081
    23 11.481703 0.000105 0.000003 -1.704205 -0.519356 1.866985
    24 2.914335 -0.023167 1.400147 -0.002374 0.009093 -1.340561
    25 1.285218 0.000000 -0.000001 0.000002 -0.054452 0.217153
    26 0.842651 0.000002 0.000000 -0.026914 0.029191 -0.769821
    27 3.368059 0.007375 0.618550 0.028206 0.001622 -1.454663
    28 1.605509 -0.000002 0.000002 0.000003 -0.002951 0.076412
    29 1.020535 -0.000004 -0.000002 0.010528 -0.012307 -1.102429
    30 3.555524 0.023917 -0.204473 -0.004841 0.027375 -1.141598
    31 1.668801 0.000006 0.000006 0.000002 0.065673 -0.331788
    32 1.236529 0.000002 0.000006 0.000002 -0.000011 -0.652573
    33 3.449664 0.054213 -1.089087 0.056006 0.350578 -0.342697
    34 1.711616 0.000006 0.000011 0.004342 -0.007426 -0.852974
    35 0.999023 0.000002 0.000000 -0.000550 -0.014666 -0.161092
    36 0.079434 -0.738750 -0.759723 1.354914 0.418885 -0.334431
    37 2.512460 -0.000008 -0.000008 -0.000002 -0.000001 0.359163
    38 1.304662 0.152346 -0.207039 0.049464 0.160747 0.421087
    39 -6.753657 -14.047507 -14.601753 0.787939 0.085486 -3.109885
    40 0.000001 3.761717 -1.204106 0.000000 0.000000 0.000000
    41 0.000001 3.761716 -2.197272 0.000000 0.000000 0.000000
    42 0.000001 1.420890 -5.835940 0.000000 0.000000 0.000000
    43 -0.000751 -0.003515 -1.549599 0.000000 0.000000 0.000003
  time 12
    0 -2.832118 -3.625117 -9.980773 -1.115681 -1.135037 -2.567338
    1 2.033348 1.000767 1.937659 2.507111 -0.912249 2.309978
    2 6.028141 0.000005 0.000002 -1.699377 -0.240141 0.230180
    3 11.692560 0.000013 -0.000006 -0.217599 0.248357 -1.618316
    4 11.481678 0.000006 -0.000039 -1.517103 -0.471423 0.345002
    5 3.285469 0.002118 -1.379481 0.111975 -0.192364 -1.788003
    6 1.324282 -0.000013 0.000002 0.000000 -0.004042 -0.549726
    7 0.815305 -0.000006 -0.000001 0.000001 -0.000003 -0.523542
    8 3.715758 0.105348 -0.568167 0.074056 -0.128851 -1.817813
    9 1.609408 0.000008 -0.000006 -0.000002 0.005327 -0.427490
    10 0.993192 -0.000006 0.000002 0.001476 0.002258 -0.454048
    11 3.789935 0.203227 0.251750 0.035360 -0.098742 -1.765047
    12 1.684422 -0.000010 0.000009 0.000002 -0.004493 -0.253180
    13 1.255859 0.000006 0.000002 0.000000 0.000000 -0.532321
    14 3.594221 0.299551 1.113710 0.009463 -0.117727 -1.409076
    15 1.719431 0.000000 -0.000006 -0.000004 0.000016 -0.554965
    16 1.005919 0.000000 0.000004 0.000005 0.000018 -0.633474
    17 0.298218 -0.634092 0.434513 -1.443047 -0.998726 -0.348514
    18 2.637462 0.000002 -0.000006 -0.000002 0.026017 0.085391
    19 1.304664 0.000001 -0.000004 -0.009274 -0.024522 0.423436
    20 2.033356 1.000772 -1.937610 -0.128225 0.173026 4.244766
    21 6.028142 0.000001 -0.000001 -0.674055 0.540256 -2.351065
    22 11.692555 0.000031 0.000001 0.011206 -0.009719 -1.681158
    23 11.481703 0.000105 0.000003 -1.626852 -0.596516 1.781724
    24 2.914335 -0.023167 1.400147 -0.002374 0.009093 -1.340561
    25 1.285218 0.000000 -0.000001 0.000002 -0.062060 0.281768
    26 0.842651 0.000002 0.000000 -0.024828 0.027473 -0.749385
    27 3.368059 0.007375 0.618550 0.028206 0.001622 -1.454663
    28 1.605509 -0.000002 0.000002 0.000003 -0.012934 0.140831
    29 1.020535 -0.000004 -0.000002 0.010344 -0.012223 -1.093076
    30 3.555524 0.023917 -0.204473 -0.002552 0.028909 -1.110456
    31 1.668801 0.000006 0.000006 0.000002 0.061047 -0.312958
    32 1.236529 0.000002 0.000006 0.000002 -0.000011 -0.583497
    33 3.449664 0.054213 -1.089087 0.056006 0.350578 -0.342697
    34 1.711616 0.000006 0.000011 0.004342 -0.007426 -0.852974
    35 0.999023 0.000002 0.000000 -0.000550 -0.014666 -0.161092
    36 0.079434 -0.738750 -0.759723 1.363112 0.403190 -0.321189
    37 2.508554 -0.000008 -0.000008 -0.000002 -0.000001 0.359163
    38 1.308568 0.121096 -0.207039 0.046960 0.169149 0.365491
    39 -6.499743 -14.610024 -13.664224 0.894697 0.106067 -3.089327
    40 0.000001 3.761717 -1.204106 0.000000 0.000000 0.000000
    41 0.000001 3.761716 -2.197272 0.000000 0.000000 0.000000
    42 0.000001 1.420890 -5.835940 0.000000 0.000000 0.000000
    43 -0.000751 -0.003515 -1.549599 0.000000 0.000000 0.000003
  time 13
    0 -2.644612 -3.554802 -9.933897 -1.105268 -1.157160 -2.538575
    1 2.033348 1.000767 1.937659 2.552277 -0.902228 2.258562
    2 6.028141 0.000005 0.000002 -1.824923 -0.201845 0.222316
    3 11.692560 0.000013 -0.000006 -0.217839 0.248297 -1.619392
    4 11.481678 0.000006 -0.000039 -1.390919 -0.360073 0.314829
    5 3.281562 0.002118 -1.383387 0.112302 -0.192693 -1.787910
    6 1.324282 -0.000013 0.000002 0.000000 -0.004042 -0.549726
    7 0.815305 -0.000006 -0.000001 0.000001 -0.000003 -0.523542
    8 3.711852 0.109255 -0.568167 0.074373 -0.129176 -1.817687
    9 1.609408 0.000008 -0.000006 -0.000002 0.005327 -0.427490
    10 0.993192 -0.000006 0.000002 0.001476 0.002258 -0.454048
    11 3.786029 0.203227 0.243937 0.035669 -0.099078 -1.764940
    12 1.684422 -0.000010 0.000009 0.000002 -0.004493 -0.253180
    13 1.255859 0.000006 0.000002 0.000000 0.000000 -0.532321
    14 3.594221 0.299551 1.109804 0.009619 -0.118158 -1.408927
    15 1.719431 0.000000 -0.000006 -0.000004 0.000016 -0.554965
    16 1.005919 0.000000 0.000004 0.000005 0.000018 -0.633474
    17 0.298218 -0.634092 0.426701 -1.443576 -0.999088 -0.347890
    18 2.637462 0.000002 -0.000006 -0.000002 0.026017 0.085391
    19 1.308570 0.000001 -0.000004 -0.009274 -0.024522 0.423436
    20 2.033356 1.000772 -1.937610 -0.128178 0.173026 4.244766
    21 6.028142 0.000001 -0.000001 -0.705096 0.574193 -2.415649
    22 11.692555 0.000031 0.000001 0.020398 -0.018564 -1.663784
    23 11.481703 0.000105 0.000003 -1.503508 -0.659668 1.657095
    24 2.914335 -0.023167 1.400147 -0.002374 0.009105 -1.340561
    25 1.285218 0.000000 -0.000001 0.000002 -0.068907 0.341175
    26 0.842651 0.000002 0.000000 -0.022862 0.025801 -0.729841
    27 3.368059 0.007375 0.622456 0.028206 0.001622 -1.454663
    28 1.605509 -0.000002 0.000002 0.000003 -0.022222 0.201029
    29 1.020535 -0.000004 -0.000002 0.010185 -0.012127 -1.083918
    30 3.555524 0.023917 -0.204473 -0.000455 0.030359 -1.081795
    31 1.668801 0.000006 0.000006 0.000002 0.057883 -0.300973
    32 1.240436 0.000002 0.000006 0.000002 -0.000011 -0.523428
    33 3.449664 0.054213 -1.085181 0.056006 0.350578 -0.342697
    34 1.711616 0.000006 0.000011 0.004342 -0.007426 -0.852974
    35 0.999023 0.000002 0.000000 -0.000550 -0.014666 -0.161092
    36 0.079434 -0.738750 -0.755817 1.367942 0.394510 -0.312787
    37 2.508554 -0.000008 -0.000008 -0.000002 -0.000001 0.359163
    38 1.312475 0.085938 -0.203133 0.044431 0.175129 0.312478
    39 -6.277079 -15.121758 -12.695445 1.010800 0.123638 -3.068146
    40 0.000001 3.761717 -1.204106 0.000000 0.000000 0.000000
    41 0.000001 3.761716 -2.197272 0.000000 0.000000 0.000000
    42 0.000001 1.420890 -5.835940 0.000000 0.000000 0.000000
    43 -0.000751 -0.003515 -1.549599 0.000000 0.000000 0.000003
  time 14
    0 -2.445387 -3.480581 -9.890927 -1.097651 -1.179600 -2.506264
    1 2.033348 1.000767 1.937659 2.596435 -0.889975 2.207532
    2 6.028141 0.000005 0.000002 -1.979843 -0.184865 0.199006
    3 11.692560 0.000013 -0.000006 -0.217072 0.248333 -1.616163
    4 11.481678 0.000006 -0.000039 -1.248891 -0.216442 0.297943
    5 3.285469 0.002118 -1.375574 0.111913 -0.192286 -1.788050
    6 1.324282 -0.000013 0.000002 0.000000 -0.004054 -0.549726
    7 0.815305 -0.000006 -0.000001 0.000001 -0.000003 -0.523542
    8 3.711852 0.109255 -0.568167 0.073976 -0.128777 -1.817844
    9 1.609408 0.000008 -0.000006 -0.000002 0.005327 -0.427490
    10 0.993192 -0.000006 0.000002 0.001496 0.002270 -0.454048
    11 3.789935 0.203227 0.251750 0.035306 -0.098658 -1.765155
    12 1.684422 -0.000010 0.000009 0.000002 -0.004493 -0.253180
    13 1.255859 0.000006 0.000002 0.000000 0.000000 -0.532321
    14 3.594221 0.299551 1.113710 0.009429 -0.117631 -1.409114
    15 1.719431 0.000000 -0.000006 -0.000004 0.000016 -0.554965
    16 1.005919 0.000000 0.000004 0.000005 0.000018 -0.633474
    17 0.298218 -0.630186 0.430607 -1.442915 -0.998653 -0.348660
    18 2.637462 0.000002 -0.000006 -0.000002 0.026017 0.085391
    19 1.304664 0.000001 -0.000004 -0.009274 -0.024522 0.423436
    20 2.033356 1.000772 -1.937610 -0.128225 0.173026 4.244766
    21 6.028142 0.000001 -0.000001 -0.738980 0.626615 -2.493736
    22 11.692555 0.000031 0.000001 0.055501 -0.051270 -1.648287
    23 11.481703 0.000105 0.000003 -1.333796 -0.693816 1.492980
    24 2.914335 -0.023167 1.400147 -0.002374 0.009105 -1.340561
    25 1.285218 0.000000 -0.000001 0.000002 -0.074863 0.394370
    26 0.842651 0.000002 0.000000 -0.021032 0.024191 -0.711390
    27 3.368059 0.007375 0.618550 0.028206 0.001622 -1.454663
    28 1.605509 -0.000002 0.000002 0.000003 -0.030648 0.256176
    29 1.020535 -0.000004 -0.000002 0.010013 -0.012044 -1.075087
    30 3.555524 0.023917 -0.204473 0.001427 0.031653 -1.056188
    31 1.668801 0.000006 0.000006 0.000002 0.056337 -0.296818
    32 1.236529 0.000002 0.000006 0.000002 -0.000011 -0.473922
    33 3.449664 0.054213 -1.089087 0.056006 0.350578 -0.342697
    34 1.711616 0.000006 0.000011 0.004342 -0.007426 -0.852974
    35 0.999023 0.000002 0.000000 -0.000550 -0.014666 -0.161092
    36 0.079434 -0.738750 -0.759723 1.368085 0.397264 -0.311419
    37 2.512460 -0.000008 -0.000008 -0.000002 -0.000001 0.359141
    38 1.312475 0.035155 -0.203133 0.041878 0.178065 0.255373
    39 -6.089574 -15.570991 -11.707133 1.132198 0.137778 -3.047355
    40 0.000001 3.761717 -1.204106 0.000000 0.000000 0.000000
    41 0.000001 3.761716 -2.197272 0.000000 0.000000 0.000000
    42 0.000001 1.420890 -5.835940 0.000000 0.000000 0.000000
    43 -0.000751 -0.003515 -1.549599 0.000000 0.000000 0.000003
  time 15
    0 -2.242256 -3.406360 -9.847957 -1.093588 -1.202180 -2.470215
    1 2.033348 1.000767 1.937659 2.638896 -0.875595 2.157581
    2 6.028141 0.000005 0.000002 -2.162146 -0.207219 0.164895
    3 11.692560 0.000013 -0.000006 -0.211391 0.248728 -1.592897
    4 11.481678 0.000006 -0.000039 -1.086209 -0.044291 0.300322
    5 3.285469 0.002118 -1.375574 0.111995 -0.192522 -1.787818
    6 1.324282 -0.000013 0.000002 0.000000 -0.004054 -0.549700
    7 0.815305 -0.000006 -0.000001 0.000001 -0.000003 -0.523542
    8 3.711852 0.105348 -0.568167 0.074076 -0.129014 -1.817624
    9 1.609408 0.000008 -0.000006 -0.000002 0.005327 -0.427490
    10 0.993192 -0.000006 0.000002 0.001476 0.002258 -0.454048
    11 3.789935 0.203227 0.251750 0.035378 -0.098910 -1.764868
    12 1.684422 -0.000010 0.000009 0.000002 -0.004493 -0.253180
    13 1.255859 0.000006 0.000002 0.000000 0.000000 -0.532321
    14 3.594221 0.299551 1.113710 0.009412 -0.117894 -1.408814
    15 1.719431 0.000000 -0.000006 -0.000004 0.000016 -0.554965
    16 1.005919 0.000000 0.000004 0.000005 0.000018 -0.633474
    17 0.298218 -0.634092 0.434513 -1.443364 -0.998774 -0.348015
    18 2.637462 0.000002 -0.000006 -0.000002 0.026017 0.085391
    19 1.308570 0.000001 -0.000004 -0.009274 -0.024522 0.423436
    20 2.033356 1.000772 -1.937610 -0.128225 0.173026 4.244766
    21 6.028142 0.000001 -0.000001 -0.772154 0.660553 -2.542551
    22 11.692555 0.000031 0.000001 0.042473 -0.040208 -1.634434
    23 11.481703 0.000105 0.000003 -1.191181 -0.719833 1.344259
    24 2.914335 -0.023167 1.404053 -0.002374 0.009105 -1.340561
    25 1.285218 0.000000 -0.000001 0.000002 -0.079867 0.440287
    26 0.842651 0.000002 0.000000 -0.019373 0.022672 -0.694297
    27 3.368059 0.007375 0.622456 0.028206 0.001622 -1.454663
    28 1.605509 -0.000002 0.000002 0.000003 -0.038078 0.305294
    29 1.020535 -0.000004 -0.000002 0.009853 -0.011960 -1.066614
    30 3.555524 0.023917 -0.200566 0.003045 0.032804 -1.034072
    31 1.668801 0.000006 0.000006 0.000002 0.059166 -0.316128
    32 1.236529 0.000002 0.000006 0.000002 -0.000011 -0.436646
    33 3.449664 0.054213 -1.085181 0.056006 0.350578 -0.342697
    34 1.711616 0.000006 0.000011 0.004342 -0.007426 -0.852974
    35 0.999023 0.000002 0.000000 -0.000550 -0.014666 -0.161092
    36 0.079434 -0.738750 -0.755817 1.362944 0.413248 -0.317981
    37 2.508554 -0.000008 -0.000008 -0.000002 -0.000001 0.359163
    38 1.312475 -0.015627 -0.191414 0.039337 0.177825 0.190865
    39 -5.941132 -15.938189 -10.722728 1.254920 0.148374 -3.027965
    40 0.000001 3.761717 -1.204106 0.000000 0.000000 0.000000
    41 0.000001 3.761716 -2.197272 0.000000 0.000000 0.000000
    42 0.000001 1.420890 -5.835940 0.000000 0.000000 0.000000
    43 -0.000751 -0.003515 -1.549599 0.000000 0.000000 0.000003
  time 16
    0 -2.039125 -3.332139 -9.812799 -1.093879 -1.224556 -2.429898
    1 2.033348 1.000767 1.937659 2.679018 -0.859258 2.109364
    2 6.028141 0.000005 0.000002 -2.349282 -0.275817 0.132679
    3 11.692560 0.000013 -0.000006 -0.199874 0.248465 -1.546281
    4 11.481678 0.000006 -0.000039 -0.900045 0.130308 0.330554
    5 3.281562 0.002118 -1.383387 0.112670 -0.193100 -1.787725
    6 1.324282 -0.000013 0.000002 0.000000 -0.004042 -0.549726
    7 0.815305 -0.000006 -0.000001 0.000001 -0.000003 -0.523542
    8 3.711852 0.105348 -0.572073 0.074750 -0.129576 -1.817499
    9 1.609408 0.000008 -0.000006 -0.000002 0.005327 -0.427490
    10 0.993192 -0.000006 0.000002 0.001476 0.002258 -0.454048
    11 3.786029 0.203227 0.240031 0.036014 -0.099509 -1.764724
    12 1.684422 -0.000010 0.000009 0.000002 -0.004493 -0.253180
    13 1.255859 0.000006 0.000002 0.000000 0.000000 -0.532321
    14 3.590314 0.299551 1.109804 0.009809 -0.118673 -1.408702
    15 1.719431 0.000000 -0.000006 -0.000004 0.000016 -0.554965
    16 1.005919 0.000000 0.000004 0.000005 0.000018 -0.633474
    17 0.298218 -0.634092 0.422794 -1.444250 -0.999498 -0.347098
    18 2.637462 0.000002 -0.000006 -0.000002 0.026017 0.085391
    19 1.308570 0.000001 -0.000004 -0.009274 -0.024522 0.423436
    20 2.033356 1.000772 -1.937610 -0.128225 0.173026 4.244766
    21 6.028142 0.000001 -0.000001 -0.810461 0.715433 -2.612251
    22 11.692555 0.000031 0.000001 0.066299 -0.063422 -1.622930
    23 11.481703 0.000105 0.000003 -1.018824 -0.703727 1.178145
    24 2.914335 -0.023167 1.400147 -0.002374 0.009105 -1.340561
    25 1.285218 0.000000 -0.000001 0.000002 -0.083854 0.477830
    26 0.842651 0.000002 0.000000 -0.017886 0.021246 -0.678764
    27 3.368059 0.007375 0.618550 0.028206 0.001622 -1.454663
    28 1.605509 -0.000002 0.000002 0.000003 -0.044382 0.347579
    29 1.020535 -0.000004 -0.000002 0.009718 -0.011876 -1.058597
    30 3.555524 0.023917 -0.200566 0.004375 0.033751 -1.016020
    31 1.668801 0.000006 0.000006 0.000002 0.067579 -0.366811
    32 1.236529 0.000002 0.000006 0.000002 -0.000011 -0.413077
    33 3.449664 0.054213 -1.089087 0.056006 0.350578 -0.342697
    34 1.711616 0.000006 0.000011 0.004342 -0.007426 -0.852924
    35 0.999023 0.000002 0.000000 -0.000550 -0.014666 -0.161092
    36 0.079434 -0.738750 -0.755817 1.353153 0.439417 -0.331062
    37 2.508554 -0.000008 -0.000008 -0.000002 -0.000001 0.359163
    38 1.312475 -0.089848 -0.187508 0.037084 0.175117 0.123946
    39 -5.839566 -16.227261 -9.761761 1.374917 0.155577 -3.011067
    40 0.000001 3.761717 -1.204106 0.000000 0.000000 0.000000
    41 0.000001 3.761716 -2.197272 0.000000 0.000000 0.000000
    42 0.000001 1.420890 -5.835940 0.000000 0.000000 0.000000
    43 -0.000751 -0.003515 -1.549599 0.000000 0.000000 0.000003
  time 17
    0 -1.839900 -3.257918 -9.777642 -1.099282 -1.246489 -2.384884
    1 2.033348 1.000767 1.937659 2.716389 -0.841240 2.063421
    2 6.028141 0.000005 0.000002 -2.511971 -0.374628 0.113255
    3 11.692560 0.000013 -0.000006 -0.185361 0.247733 -1.487163
    4 11.481678 0.000006 -0.000039 -0.699640 0.270179 0.388986
    5 3.277656 0.002118 -1.383387 0.112302 -0.192693 -1.787910
    6 1.324282 -0.000013 0.000002 0.000000 -0.004042 -0.549726
    7 0.815305 -0.000006 -0.000001 0.000001 -0.000003 -0.523542
    8 3.711852 0.109255 -0.568167 0.074373 -0.129176 -1.817687
    9 1.609408 0.000008 -0.000006 -0.000002 0.005327 -0.427490
    10 0.993192 -0.000006 0.000002 0.001476 0.002258 -0.454048
    11 3.786029 0.203227 0.243937 0.035669 -0.099078 -1.764940
    12 1.684422 -0.000010 0.000009 0.000002 -0.004493 -0.253146
    13 1.255859 0.000006 0.000002 0.000000 0.000000 -0.532321
    14 3.594221 0.299551 1.109804 0.009619 -0.118158 -1.408927
    15 1.719431 0.000000 -0.000006 -0.000004 0.000016 -0.554965
    16 1.005919 0.000000 0.000004 0.000005 0.000018 -0.633474
    17 0.298218 -0.634092 0.426701 -1.443576 -0.999088 -0.347890
    18 2.637462 0.000002 -0.000006 -0.000002 0.026017 0.085391
    19 1.308570 0.000001 -0.000004 -0.009274 -0.024522 0.423436
    20 2.033356 1.000772 -1.937610 -0.128225 0.173026 4.244766
    21 6.028142 0.000001 -0.000001 -0.846715 0.760478 -2.659388
    22 11.692555 0.000031 0.000001 0.061265 -0.058389 -1.614634
    23 11.481703 0.000105 0.000003 -0.879718 -0.681269 1.043997
    24 2.914335 -0.023167 1.400147 -0.002374 0.009105 -1.340561
    25 1.285218 0.000000 -0.000001 0.000002 -0.086777 0.505937
    26 0.842651 0.000002 0.000000 -0.016586 0.019988 -0.665037
    27 3.368059 0.007375 0.622456 0.028206 0.001622 -1.454663
    28 1.605509 -0.000002 0.000002 0.000003 -0.049463 0.382024
    29 1.020535 -0.000004 -0.000002 0.009571 -0.011804 -1.051134
    30 3.555524 0.027823 -0.200566 0.005358 0.034458 -1.002467
    31 1.668801 0.000006 0.000006 0.000002 0.079396 -0.438588
    32 1.240436 0.000002 0.000006 0.000002 -0.000011 -0.404845
    33 3.449664 0.054213 -1.089087 0.056006 0.350578 -0.342697
    34 1.711616 0.000006 0.000011 0.004342 -0.007426 -0.852974
    35 0.999023 0.000002 0.000000 -0.000550 -0.014666 -0.161092
    36 0.079434 -0.734843 -0.759723 1.339155 0.472666 -0.349410
    37 2.508554 -0.000008 -0.000008 -0.000002 -0.000001 0.359163
    38 1.308568 -0.167976 -0.175789 0.035311 0.170647 0.059803
    39 -5.777064 -16.422579 -8.855484 1.488100 0.159693 -2.997517
    40 0.000001 3.761717 -1.204106 0.000000 0.000000 0.000000
    41 0.000001 3.761716 -2.197272 0.000000 0.000000 0.000000
    42 0.000001 1.420890 -5.835940 0.000000 0.000000 0.000000
    43 -0.000751 -0.003515 -1.549599 0.000000 0.000000 0.000003
  time 18
    0 -1.636769 -3.191510 -9.750298 -1.110540 -1.267662 -2.334789
    1 2.033348 1.000767 1.937659 2.750688 -0.821883 2.020099
    2 6.028141 0.000005 0.000002 -2.645951 -0.484548 0.103590
    3 11.692560 0.000013 -0.000006 -0.172657 0.246379 -1.435248
    4 11.481678 0.000006 -0.000039 -0.490464 0.364396 0.474575
    5 3.281562 0.002118 -1.383387 0.111995 -0.192509 -1.787818
    6 1.324282 -0.000013 0.000002 0.000000 -0.004054 -0.549726
    7 0.815305 -0.000006 -0.000001 0.000001 -0.000003 -0.523542
    8 3.711852 0.109255 -0.568167 0.074076 -0.128989 -1.817624
    9 1.609408 0.000008 -0.000006 -0.000002 0.005327 -0.427490
    10 0.993192 -0.000006 0.000002 0.001476 0.002258 -0.454048
    11 3.786029 0.203227 0.243937 0.035378 -0.098886 -1.764868
    12 1.684422 -0.000010 0.000009 0.000002 -0.004493 -0.253180
    13 1.255859 0.000006 0.000002 0.000000 0.000000 -0.532321
    14 3.594221 0.299551 1.109804 0.009429 -0.117882 -1.408852
    15 1.719431 0.000000 -0.000006 -0.000004 0.000016 -0.554965
    16 1.005919 0.000000 0.000004 0.000005 0.000018 -0.633474
    17 0.298218 -0.634092 0.426701 -1.443312 -0.998774 -0.348098
    18 2.637462 0.000002 -0.000006 -0.000002 0.026017 0.085391
    19 1.308570 0.000001 -0.000004 -0.009274 -0.024522 0.423436
    20 2.033356 1.000772 -1.937610 -0.128225 0.173026 4.244766
    21 6.028142 0.000001 -0.000001 -0.868278 0.790860 -2.669286
    22 11.692555 0.000031 0.000001 0.016227 -0.016527 -1.608999
    23 11.481703 0.000105 0.000003 -0.779424 -0.671643 0.946280
    24 2.914335 -0.023167 1.404053 -0.002374 0.009105 -1.340561
    25 1.285218 0.000000 -0.000001 0.000002 -0.088588 0.523629
    26 0.842651 0.000002 0.000000 -0.015492 0.018899 -0.653271
    27 3.364152 0.007375 0.622456 0.028206 0.001622 -1.454663
    28 1.605509 -0.000002 0.000002 0.000003 -0.053227 0.407751
    29 1.020535 -0.000004 -0.000002 0.009448 -0.011732 -1.044257
    30 3.555524 0.023917 -0.204473 0.005981 0.034901 -0.994013
    31 1.668801 0.000006 0.000006 0.000002 0.092579 -0.521018
    32 1.236529 0.000002 0.000006 0.000002 -0.000011 -0.460060
    33 3.449664 0.054213 -1.089087 0.056006 0.350578 -0.342697
    34 1.711616 0.000006 0.000011 0.004342 -0.007426 -0.852974
    35 0.999023 0.000002 0.000000 -0.000550 -0.014666 -0.161092
    36 0.079434 -0.734843 -0.759723 1.321477 0.509822 -0.371834
    37 2.512460 -0.000008 -0.000008 -0.000002 -0.000001 0.359163
    38 1.296849 -0.238290 -0.171882 0.034112 0.165110 0.003405
    39 -5.745813 -16.543677 -8.042959 1.590459 0.161180 -2.987706
    40 0.000001 3.761717 -1.204106 0.000000 0.000000 0.000000
    41 0.000001 3.761716 -2.197272 0.000000 0.000000 0.000000
    42 0.000001 1.420890 -5.835940 0.000000 0.000000 0.000000
    43 -0.000751 -0.003515 -1.549599 0.000000 0.000000 0.000003
  time 19
    0 -1.437544 -3.121195 -9.722953 -1.128366 -1.287809 -2.279084
    1 2.033348 1.000767 1.937659 2.781777 -0.801497 1.979745
    2 6.028141 0.000005 0.000002 -2.757569 -0.596274 0.101789
    3 11.692560 0.000013 -0.000006 -0.162350 0.244797 -1.392772
    4 11.481678 0.000006 -0.000039 -0.282138 0.416010 0.577340
    5 3.281562 0.002118 -1.383387 0.112302 -0.192693 -1.787910
    6 1.324282 -0.000013 0.000002 0.000000 -0.004054 -0.549726
    7 0.815305 -0.000006 -0.000001 0.000001 -0.000003 -0.523542
    8 3.711852 0.109255 -0.568167 0.074373 -0.129176 -1.817687
    9 1.609408 0.000008 -0.000006 -0.000002 0.005327 -0.427490
    10 0.993192 -0.000006 0.000002 0.001476 0.002258 -0.454048
    11 3.786029 0.203227 0.243937 0.035669 -0.099078 -1.764940
    12 1.684422 -0.000010 0.000009 0.000002 -0.004493 -0.253180
    13 1.255859 0.000006 0.000002 0.000000 0.000000 -0.532321
    14 3.594221 0.299551 1.113710 0.009619 -0.118158 -1.408927
    15 1.719431 0.000000 -0.000006 -0.000004 0.000016 -0.554965
    16 1.005919 0.000000 0.000004 0.000005 0.000018 -0.633474
    17 0.298218 -0.634092 0.426701 -1.443576 -0.999088 -0.347890
    18 2.637462 0.000002 -0.000006 -0.000002 0.026017 0.085391
    19 1.304664 0.000001 -0.000004 -0.009274 -0.024522 0.423436
    20 2.033356 1.000772 -1.937610 -0.128225 0.173026 4.244766
    21 6.028142 0.000001 -0.000001 -0.913615 0.860799 -2.742676
    22 11.692555 0.000031 0.000001 0.063135 -0.060474 -1.606572
    23 11.481703 0.000105 0.000003 -0.660992 -0.596103 0.848504
    24 2.914335 -0.023167 1.400147 -0.002374 0.009105 -1.340561
    25 1.285218 0.000000 -0.000001 0.000002 -0.089223 0.529753
    26 0.842651 0.000002 0.000000 -0.014603 0.017994 -0.643733
    27 3.368059 0.007375 0.622456 0.028206 0.001622 -1.454663
    28 1.605509 -0.000002 0.000002 0.000003 -0.055564 0.423881
    29 1.020535 -0.000004 -0.000002 0.009326 -0.011660 -1.038000
    30 3.555524 0.023917 -0.204473 0.006197 0.035069 -0.991068
    31 1.668801 0.000006 0.000006 0.000002 0.105318 -0.603608
    32 1.240436 0.000002 0.000006 0.000002 -0.000011 -0.605590
    33 3.449664 0.054213 -1.089087 0.056006 0.350578 -0.342697
    34 1.711616 0.000006 0.000011 0.004342 -0.007426 -0.852974
    35 0.999023 0.000002 0.000000 -0.000550 -0.014666 -0.161092
    36 0.079434 -0.738750 -0.755817 1.300984 0.547843 -0.396966
    37 2.508554 -0.000008 -0.000008 -0.000002 -0.000001 0.359163
    38 1.281224 -0.300792 -0.167976 0.033537 0.159058 -0.040209
    39 -5.749720 -16.594459 -7.374970 1.675998 0.159617 -2.982956
    40 0.000001 3.761717 -1.204106 0.000000 0.000000 0.000000
    41 0.000001 3.761716 -2.197272 0.000000 0.000000 0.000000
    42 0.000001 1.420890 -5.835940 0.000000 0.000000 0.000000
    43 -0.000751 -0.003515 -1.549599 0.000000 0.000000 0.000003
  time 20
    0 -1.246132 -3.058693 -9.703421 -1.153270 -1.306599 -2.217675
    1 2.033348 1.000767 1.937659 2.809518 -0.780424 1.942474
    2 6.028141 0.000005 0.000002 -2.843225 -0.695988 0.107569
    3 11.692560 0.000013 -0.000006 -0.152571 0.242904 -1.352366
    4 11.481678 0.000006 -0.000039 -0.098142 0.430837 0.667746
    5 3.281562 0.002118 -1.383387 0.112302 -0.192693 -1.787910
    6 1.324282 -0.000013 0.000002 0.000000 -0.004042 -0.549726
    7 0.815305 -0.000006 -0.000001 0.000001 -0.000003 -0.523542
    8 3.711852 0.109255 -0.568167 0.074373 -0.129176 -1.817687
    9 1.609408 0.000008 -0.000006 -0.000002 0.005327 -0.427490
    10 0.993192 -0.000006 0.000002 0.001476 0.002258 -0.454048
    11 3.786029 0.203227 0.247844 0.035669 -0.099078 -1.764940
    12 1.684422 -0.000010 0.000009 0.000002 -0.004493 -0.253180
    13 1.255859 0.000006 0.000002 0.000000 0.000000 -0.532321
    14 3.594221 0.299551 1.113710 0.009619 -0.118158 -1.408927
    15 1.719431 0.000000 -0.000006 -0.000004 0.000016 -0.554965
    16 1.005919 0.000000 0.000004 0.000005 0.000018 -0.633474
    17 0.298218 -0.634092 0.426701 -1.443576 -0.999088 -0.347890
    18 2.637462 0.000002 -0.000006 -0.000002 0.026017 0.085391
    19 1.304664 0.000001 -0.000004 -0.009274 -0.024522 0.423436
    20 2.033356 1.000772 -1.937610 -0.128225 0.173026 4.244766
    21 6.028142 0.000001 -0.000001 -0.937152 0.910981 -2.766329
    22 11.692555 0.000031 0.000001 0.062608 -0.059971 -1.607825
    23 11.481703 0.000105 0.000003 -0.593032 -0.554585 0.794621
    24 2.914335 -0.023167 1.400147 -0.002374 0.009105 -1.340561
    25 1.285218 0.000000 -0.000001 0.000002 -0.087841 0.516144
    26 0.842651 0.000002 0.000000 -0.013953 0.017319 -0.636691
    27 3.368059 0.007375 0.618550 0.028206 0.001622 -1.454663
    28 1.605509 -0.000002 0.000002 0.000003 -0.056367 0.429459
    29 1.020535 -0.000004 -0.000002 0.009240 -0.011600 -1.032590
    30 3.555524 0.023917 -0.204473 0.005705 0.034709 -0.997585
    31 1.668801 0.000006 0.000006 0.000002 0.116368 -0.675758
    32 1.240436 0.000002 0.000006 0.000002 -0.000011 -0.811305
    33 3.449664 0.054213 -1.089087 0.056006 0.350578 -0.342697
    34 1.711616 0.000006 0.000011 0.004342 -0.007426 -0.852974
    35 0.999023 0.000002 0.000000 -0.000550 -0.014666 -0.161092
    36 0.079434 -0.738750 -0.759723 1.278920 0.583622 -0.423245
    37 2.512460 -0.000008 -0.000008 -0.000002 -0.000001 0.359163
    38 1.273411 -0.347669 -0.160163 0.033609 0.152838 -0.065998
    39 -5.780971 -16.610085 -6.898393 1.740162 0.155044 -2.983734
    40 0.000001 3.761717 -1.204106 0.000000 0.000000 0.000000
    41 0.000001 3.761716 -2.197272 0.000000 0.000000 0.000000
    42 0.000001 1.420890 -5.835940 0.000000 0.000000 0.000000
    43 -0.000751 -0.003515 -1.549599 0.000000 0.000000 0.000003
  time 21
    0 -1.058626 -2.996191 -9.683889 -1.185441 -1.323768 -2.150610
    1 2.033348 1.000767 1.937659 2.834004 -0.759180 1.908441
    2 6.028141 0.000005 0.000002 -2.899697 -0.772896 0.115529
    3 11.692560 0.000013 -0.000006 -0.142612 0.240339 -1.310801
    4 11.481678 0.000006 -0.000039 0.046715 0.422856 0.725830
    5 3.285469 0.006024 -1.383387 0.112547 -0.192509 -1.788514
    6 1.324282 -0.000013 0.000002 0.000000 -0.004042 -0.549726
    7 0.815305 -0.000006 -0.000001 0.000001 -0.000003 -0.523542
    8 3.715758 0.109255 -0.568167 0.074631 -0.128976 -1.818221
    9 1.609408 0.000008 -0.000006 -0.000002 0.005327 -0.427490
    10 0.993192 -0.000006 0.000002 0.001476 0.002258 -0.454048
    11 3.789935 0.203227 0.247844 0.035905 -0.098898 -1.765479
    12 1.684422 -0.000010 0.000009 0.000002 -0.004493 -0.253180
    13 1.255859 0.000006 0.000002 0.000000 0.000000 -0.532321
    14 3.594221 0.299551 1.109804 0.009930 -0.118074 -1.409450
    15 1.719431 0.000000 -0.000006 -0.000004 0.000016 -0.554965
    16 1.005919 0.000000 0.000004 0.000005 0.000018 -0.633474
    17 0.302124 -0.630186 0.426701 -1.443166 -0.999305 -0.348743
    18 2.637462 0.000002 -0.000006 -0.000002 0.026017 0.085391
    19 1.308570 0.000001 -0.000004 -0.009274 -0.024522 0.423436
    20 2.033356 1.000772 -1.937610 -0.128225 0.173026 4.244766
    21 6.028142 0.000001 -0.000001 -0.912825 0.928280 -2.700655
    22 11.692555 0.000031 0.000001 -0.018528 0.017749 -1.612129
    23 11.481703 0.000105 0.000003 -0.573923 -0.580157 0.779285
    24 2.910429 -0.023167 1.404053 -0.002374 0.009105 -1.340561
    25 1.285218 0.000000 -0.000001 0.000002 -0.083854 0.477830
    26 0.842651 0.000002 0.000000 -0.013560 0.016905 -0.632256
    27 3.364152 0.007375 0.626362 0.028206 0.001622 -1.454663
    28 1.605509 -0.000002 0.000002 0.000003 -0.039756 0.316550
    29 1.020535 -0.000004 -0.000002 0.009154 -0.011552 -1.027963
    30 3.551618 0.027823 -0.196660 0.004375 0.033751 -1.016020
    31 1.668801 0.000006 0.000006 0.000002 0.117495 -0.675598
    32 1.236529 0.000002 0.000006 0.000002 -0.000011 -1.047152
    33 3.449664 0.054213 -1.085181 0.056006 0.350578 -0.342697
    34 1.711616 0.000006 0.000011 0.004342 -0.007426 -0.852924
    35 0.999023 0.000002 0.000000 -0.000550 -0.014666 -0.161092
    36 0.079434 -0.734843 -0.759723 1.257144 0.614148 -0.448774
    37 2.508554 -0.000008 -0.000008 -0.000002 -0.000001 0.359163
    38 1.265598 -0.375013 -0.156257 0.034316 0.146522 -0.069042
    39 -5.827847 -16.590553 -6.609321 1.780888 0.148145 -2.989341
    40 0.000001 3.761717 -1.204106 0.000000 0.000000 0.000000
    41 0.000001 3.761716 -2.197272 0.000000 0.000000 0.000000
    42 0.000001 1.420890 -5.835940 0.000000 0.000000 0.000000
    43 -0.000751 -0.003515 -1.549599 0.000000 0.000000 0.000003
  time 22
    0 -0.878933 -2.937596 -9.672170 -1.224632 -1.339113 -2.078462
    1 2.033348 1.000767 1.937659 2.855326 -0.738141 1.877607
    2 6.028141 0.000005 0.000002 -2.913247 -0.821037 0.115244
    3 11.692560 0.000013 -0.000006 -0.131274 0.237331 -1.262860
    4 11.481678 0.000006 -0.000039 0.137062 0.406858 0.735288
    5 3.281562 0.002118 -1.383387 0.112302 -0.192679 -1.787910
    6 1.324282 -0.000013 0.000002 0.000000 -0.004054 -0.549726
    7 0.815305 -0.000006 -0.000001 0.000001 -0.000003 -0.523542
    8 3.711852 0.109255 -0.568167 0.074373 -0.129176 -1.817687
    9 1.609408 0.000008 -0.000006 -0.000002 0.005327 -0.427490
    10 0.993192 -0.000006 0.000002 0.001476 0.002258 -0.454048
    11 3.786029 0.203227 0.247844 0.035669 -0.099078 -1.764940
    12 1.684422 -0.000010 0.000009 0.000002 -0.004493 -0.253180
    13 1.255859 0.000006 0.000002 0.000000 0.000000 -0.532321
    14 3.594221 0.299551 1.113710 0.009619 -0.118158 -1.408927
    15 1.719431 0.000000 -0.000006 -0.000004 0.000016 -0.554965
    16 1.005919 0.000000 0.000004 0.000005 0.000018 -0.633474
    17 0.298218 -0.634092 0.426701 -1.443576 -0.999088 -0.347890
    18 2.637462 0.000002 -0.000006 -0.000002 0.026017 0.085391
    19 1.304664 0.000001 -0.000004 -0.009274 -0.024522 0.423436
    20 2.033356 1.000772 -1.937610 -0.128225 0.173026 4.244806
    21 6.028142 0.000001 -0.000001 -0.933519 0.993697 -2.732443
    22 11.692555 0.000031 0.000001 0.020841 -0.018984 -1.620425
    23 11.481703 0.000105 0.000003 -0.534410 -0.532571 0.760834
    24 2.914335 -0.023167 1.404053 -0.002374 0.009105 -1.340561
    25 1.285218 0.000000 -0.000001 0.000002 -0.077484 0.418305
    26 0.842651 0.000002 0.000000 -0.013423 0.016752 -0.630763
    27 3.368059 0.007375 0.618550 0.028206 0.001622 -1.454663
    28 1.605509 -0.000002 0.000002 0.000003 0.002202 0.042921
    29 1.020535 -0.000004 -0.000002 0.009092 -0.011516 -1.024215
    30 3.555524 0.023917 -0.204473 0.002278 0.032265 -1.044653
    31 1.668801 0.000006 0.000006 0.000002 0.119256 -0.675331
    32 1.240436 0.000002 0.000006 0.000002 -0.000011 -1.282959
    33 3.449664 0.054213 -1.089087 0.056006 0.350578 -0.342697
    34 1.711616 0.000006 0.000011 0.004342 -0.007426 -0.852974
    35 0.999023 0.000002 0.000000 -0.000550 -0.014666 -0.161092
    36 0.079434 -0.738750 -0.755817 1.238041 0.636570 -0.471286
    37 2.512460 -0.000008 -0.000008 -0.000002 -0.000001 0.359163
    38 1.265598 -0.371107 -0.156257 0.035646 0.140002 -0.044276
    39 -5.886443 -16.543677 -6.496037 1.799109 0.139226 -2.999309
    40 0.000001 3.761717 -1.204106 0.000000 0.000000 0.000000
    41 0.000001 3.761716 -2.197272 0.000000 0.000000 0.000000
    42 0.000001 1.420890 -5.835940 0.000000 0.000000 0.000000
    43 -0.000751 -0.003515 -1.549599 0.000000 0.000000 0.000003
  time 23
    0 -0.714866 -2.886813 -9.660451 -1.269925 -1.352392 -2.002432
    1 2.033348 1.000767 1.937659 2.873622 -0.717652 1.850049
    2 6.028141 0.000005 0.000002 -2.883684 -0.847320 0.096578
    3 11.692560 0.000013 -0.000006 -0.120800 0.233831 -1.217983
    4 11.481678 0.000006 -0.000039 0.181859 0.391888 0.716720
    5 3.281562 0.002118 -1.379481 0.112302 -0.192693 -1.787910
    6 1.324282 -0.000013 0.000002 0.000000 -0.004042 -0.549726
    7 0.815305 -0.000006 -0.000001 0.000001 -0.000003 -0.523542
    8 3.711852 0.109255 -0.568167 0.074373 -0.129176 -1.817687
    9 1.609408 0.000008 -0.000006 -0.000002 0.005327 -0.427490
    10 0.993192 -0.000006 0.000002 0.001476 0.002258 -0.454048
    11 3.786029 0.203227 0.247844 0.035669 -0.099078 -1.764940
    12 1.684422 -0.000010 0.000009 0.000002 -0.004493 -0.253180
    13 1.255859 0.000006 0.000002 0.000000 0.000000 -0.532321
    14 3.594221 0.299551 1.109804 0.009619 -0.118158 -1.408927
    15 1.719431 0.000000 -0.000006 -0.000004 0.000016 -0.554965
    16 1.005919 0.000000 0.000004 0.000005 0.000018 -0.633474
    17 0.298218 -0.634092 0.426701 -1.443576 -0.999088 -0.347890
    18 2.637462 0.000002 -0.000006 -0.000002 0.026017 0.085391
    19 1.308570 0.000001 -0.000004 -0.009274 -0.024522 0.423436
    20 2.033356 1.000772 -1.937610 -0.128225 0.173026 4.244766
    21 6.028142 0.000001 -0.000001 -0.948684 1.054460 -2.754586
    22 11.692555 0.000031 0.000001 0.055812 -0.051845 -1.632634
    23 11.481703 0.000105 0.000003 -0.512386 -0.498803 0.758837
    24 2.914335 -0.023167 1.400147 -0.002546 0.008841 -1.341062
    25 1.285218 0.000000 -0.000001 0.000002 -0.068907 0.341175
    26 0.842651 0.000002 0.000000 -0.014141 0.017519 -0.638763
    27 3.368059 0.007375 0.622456 0.028062 0.001346 -1.455162
    28 1.605509 -0.000002 0.000002 0.000003 0.053520 -0.295202
    29 1.020535 -0.000004 -0.000002 0.009031 -0.011480 -1.021445
    30 3.559431 0.027823 -0.200566 -0.000707 0.030143 -1.082286
    31 1.668801 0.000006 0.000006 0.000002 0.121593 -0.674959
    32 1.240436 0.000002 0.000006 0.000002 -0.000011 -1.488674
    33 3.453570 0.054213 -1.089087 0.055679 0.350590 -0.343299
    34 1.711616 0.000006 0.000011 0.004342 -0.007426 -0.852974
    35 0.999023 0.000002 0.000000 -0.000550 -0.014666 -0.161092
    36 0.083341 -0.734843 -0.759723 1.220867 0.651945 -0.492371
    37 2.508554 -0.000008 -0.000008 -0.000002 -0.000001 0.359163
    38 1.277317 -0.339856 -0.156257 0.037588 0.132272 0.012707
    39 -5.948944 -16.481175 -6.527288 1.799265 0.128326 -3.012547
    40 0.000001 3.761717 -1.204106 0.000000 0.000000 0.000000
    41 0.000001 3.761716 -2.197272 0.000000 0.000000 0.000000
    42 0.000001 1.420890 -5.835940 0.000000 0.000000 0.000000
    43 -0.000751 -0.003515 -1.549599 0.000000 0.000000 0.000003
  time 24
    0 -0.558611 -2.836030 -9.652638 -1.319762 -1.363516 -1.924388
    1 2.033348 1.000767 1.937659 2.889167 -0.698192 1.825690
    2 6.028141 0.000005 0.000002 -2.829391 -0.862720 0.061803
    3 11.692560 0.000013 -0.000006 -0.112854 0.230835 -1.183539
    4 11.481678 0.000006 -0.000039 0.202041 0.376351 0.692929
    5 3.281562 0.002118 -1.383387 0.112302 -0.192693 -1.787910
    6 1.324282 -0.000013 0.000002 0.000000 -0.004042 -0.549726
    7 0.815305 -0.000006 -0.000001 0.000001 -0.000003 -0.523542
    8 3.711852 0.109255 -0.568167 0.074373 -0.129176 -1.817687
    9 1.609408 0.000008 -0.000006 -0.000002 0.005327 -0.427490
    10 0.993192 -0.000006 0.000002 0.001476 0.002258 -0.454048
    11 3.786029 0.203227 0.243937 0.035669 -0.099078 -1.764940
    12 1.684422 -0.000010 0.000009 0.000002 -0.004493 -0.253180
    13 1.255859 0.000006 0.000002 0.000000 0.000000 -0.532321
    14 3.594221 0.299551 1.109804 0.009619 -0.118158 -1.408927
    15 1.719431 0.000000 -0.000006 -0.000004 0.000016 -0.554965
    16 1.005919 0.000000 0.000004 0.000005 0.000018 -0.633474
    17 0.298218 -0.634092 0.426701 -1.443576 -0.999088 -0.347890
    18 2.637462 0.000002 -0.000006 -0.000002 0.026017 0.085391
    19 1.308570 0.000001 -0.000004 -0.009274 -0.024522 0.423436
    20 2.033356 1.000772 -1.937610 -0.128225 0.173026 4.244766
    21 6.028142 0.000001 -0.000001 -0.926094 1.097003 -2.719023
    22 11.692555 0.000031 0.000001 0.048645 -0.045002 -1.647270
    23 11.481703 0.000105 0.000003 -0.514491 -0.504553 0.774173
    24 2.914335 -0.023167 1.396240 -0.002474 0.008674 -1.341089
    25 1.285218 0.000000 -0.000001 0.000002 -0.058359 0.250022
    26 0.842651 0.000002 0.000000 -0.016193 0.019605 -0.660870
    27 3.368059 0.007375 0.618550 0.028158 0.001191 -1.455215
    28 1.605509 -0.000002 0.000002 0.000003 0.094855 -0.602648
    29 1.020535 -0.000004 -0.000002 0.009006 -0.011468 -1.019718
    30 3.555524 0.027823 -0.200566 -0.003882 0.027758 -1.126272
    31 1.668801 0.000006 0.000006 0.000002 0.124410 -0.674532
    32 1.240436 0.000002 0.000006 0.000002 -0.000011 -1.488674
    33 3.453570 0.054213 -1.089087 0.055566 0.350434 -0.343349
    34 1.711616 0.000006 0.000011 0.004342 -0.007426 -0.852924
    35 0.999023 0.000002 0.000000 -0.000550 -0.014666 -0.161092
    36 0.083341 -0.734843 -0.759723 1.204040 0.663668 -0.513147
    37 2.512460 -0.000008 -0.000008 -0.000002 -0.000001 0.359163
    38 1.289036 -0.277354 -0.160163 0.039913 0.122433 0.099229
    39 -6.019259 -16.391328 -6.679636 1.784937 0.115481 -3.028276
    40 0.000001 3.761717 -1.204106 0.000000 0.000000 0.000000
    41 0.000001 3.761716 -2.197272 0.000000 0.000000 0.000000
    42 0.000001 1.420890 -5.835940 0.000000 0.000000 0.000000
    43 -0.000751 -0.003515 -1.549599 0.000000 0.000000 0.000003
  time 25
    0 -0.421888 -2.793060 -9.648732 -1.371813 -1.372513 -1.846968
    1 2.033348 1.000767 1.937659 2.902098 -0.680208 1.804530
    2 6.028141 0.000005 0.000002 -2.751694 -0.865746 0.006941
    3 11.692560 0.000013 -0.000006 -0.110169 0.229757 -1.171699
    4 11.481678 0.000006 -0.000039 0.135365 0.358011 0.653993
    5 3.281562 0.002118 -1.379481 0.112302 -0.192693 -1.787910
    6 1.324282 -0.000013 0.000002 0.000000 -0.004054 -0.549700
    7 0.815305 -0.000006 -0.000001 0.000001 -0.000003 -0.523542
    8 3.711852 0.109255 -0.568167 0.074373 -0.129176 -1.817687
    9 1.609408 0.000008 -0.000006 -0.000002 0.005327 -0.427490
    10 0.993192 -0.000006 0.000002 0.001476 0.002270 -0.454048
    11 3.786029 0.203227 0.243937 0.035669 -0.099078 -1.764940
    12 1.684422 -0.000010 0.000009 0.000002 -0.004493 -0.253180
    13 1.255859 0.000006 0.000002 0.000000 0.000000 -0.532321
    14 3.594221 0.299551 1.113710 0.009619 -0.118158 -1.408927
    15 1.719431 0.000000 -0.000006 -0.000004 0.000016 -0.554965
    16 1.005919 0.000000 0.000004 0.000005 0.000018 -0.633474
    17 0.298218 -0.634092 0.426701 -1.443576 -0.999088 -0.347890
    18 2.637462 0.000002 -0.000006 -0.000002 0.026017 0.085391
    19 1.308570 0.000001 -0.000004 -0.009274 -0.024522 0.423436
    20 2.033356 1.000772 -1.937610 -0.128225 0.173026 4.244766
    21 6.028142 0.000001 -0.000001 -0.876650 1.130326 -2.649240
    22 11.692555 0.000031 0.000001 0.025156 -0.023262 -1.664801
    23 11.481703 0.000105 0.000003 -0.531657 -0.529426 0.800438
    24 2.914335 -0.023167 1.400147 -0.002374 0.009105 -1.340561
    25 1.285218 0.000000 -0.000001 0.000002 -0.046176 0.148426
    26 0.842651 0.000002 0.000000 -0.019373 0.022672 -0.694297
    27 3.368059 0.007375 0.618550 0.028206 0.001622 -1.454663
    28 1.605509 -0.000002 0.000002 0.000003 0.094855 -0.602648
    29 1.020535 -0.000004 -0.000002 0.008994 -0.011456 -1.019131
    30 3.555524 0.023917 -0.204473 -0.007274 0.025781 -1.174813
    31 1.668801 0.000006 0.000006 0.000002 0.127622 -0.674026
    32 1.240436 0.000002 0.000006 0.000002 -0.000011 -1.488674
    33 3.449664 0.054213 -1.089087 0.056006 0.350578 -0.342697
    34 1.711616 0.000006 0.000011 0.004342 -0.007426 -0.852924
    35 0.999023 0.000002 0.000000 -0.000550 -0.014666 -0.161092
    36 0.079434 -0.738750 -0.759723 1.187909 0.672893 -0.533232
    37 2.512460 -0.000008 -0.000008 -0.000002 -0.000001 0.359141
    38 1.304662 -0.199227 -0.160163 0.042154 0.110424 0.209226
    39 -6.105199 -16.278044 -6.906205 1.759707 0.100884 -3.045330
    40 0.000001 3.761717 -1.204106 0.000000 0.000000 0.000000
    41 0.000001 3.761716 -2.197272 0.000000 0.000000 0.000000
    42 0.000001 1.420890 -5.835940 0.000000 0.000000 0.000000
    43 -0.000751 -0.003515 -1.549599 0.000000 0.000000 0.000003
  time 26
    0 -0.296884 -2.750090 -9.648732 -1.423237 -1.379444 -1.773239
    1 2.033348 1.000767 1.937659 2.912644 -0.663975 1.786492
    2 6.028141 0.000005 0.000002 -2.657700 -0.856398 -0.060239
    3 11.692560 0.000013 -0.000006 -0.111200 0.230176 -1.176252
    4 11.481678 0.000006 -0.000039 0.041056 0.333783 0.618017
    5 3.281562 0.002118 -1.383387 0.112302 -0.192693 -1.787910
    6 1.324282 -0.000013 0.000002 0.000000 -0.004042 -0.549726
    7 0.815305 -0.000006 -0.000001 0.000001 -0.000003 -0.523542
    8 3.711852 0.109255 -0.568167 0.074373 -0.129176 -1.817687
    9 1.609408 0.000008 -0.000006 -0.000002 0.005327 -0.427490
    10 0.993192 -0.000006 0.000002 0.001476 0.002258 -0.454048
    11 3.786029 0.203227 0.247844 0.035669 -0.099078 -1.764940
    12 1.684422 -0.000010 0.000009 0.000002 -0.004493 -0.253146
    13 1.255859 0.000006 0.000002 0.000000 0.000000 -0.532321
    14 3.594221 0.299551 1.109804 0.009619 -0.118158 -1.408927
    15 1.719431 0.000000 -0.000006 -0.000004 0.000016 -0.554965
    16 1.005919 0.000000 0.000004 0.000005 0.000018 -0.633474
    17 0.298218 -0.634092 0.426701 -1.443576 -0.999088 -0.347890
    18 2.637462 0.000002 -0.000006 -0.000002 0.026017 0.085391
    19 1.304664 0.000001 -0.000004 -0.009274 -0.024522 0.423436
    20 2.033356 1.000772 -1.937610 -0.128225 0.173026 4.244766
    21 6.028142 0.000001 -0.000001 -0.823178 1.163210 -2.577946
    22 11.692555 0.000031 0.000001 0.011182 -0.009408 -1.685228
    23 11.481703 0.000105 0.000003 -0.553788 -0.551821 0.832933
    24 2.914335 -0.023167 1.400147 -0.002374 0.009105 -1.340561
    25 1.285218 0.000000 -0.000001 0.000002 -0.032801 0.039847
    26 0.842651 0.000002 0.000000 -0.023494 0.026353 -0.736237
    27 3.368059 0.007375 0.618550 0.028206 0.001622 -1.454663
    28 1.605509 -0.000002 0.000002 0.000003 0.094855 -0.602648
    29 1.020535 -0.000004 -0.000002 0.009571 -0.011804 -1.051134
    30 3.555524 0.023917 -0.200566 -0.011085 0.023324 -1.227225
    31 1.668801 0.000006 0.000006 0.000002 0.131121 -0.673467
    32 1.240436 0.000002 0.000006 0.000002 -0.000011 -1.488674
    33 3.449664 0.054213 -1.089087 0.056006 0.350578 -0.342697
    34 1.711616 0.000006 0.000011 0.004342 -0.007426 -0.852974
    35 0.999023 0.000002 0.000000 -0.000550 -0.014666 -0.161092
    36 0.079434 -0.738750 -0.759723 1.171370 0.679620 -0.554332
    37 2.512460 -0.000008 -0.000008 -0.000002 -0.000001 0.359163
    38 1.320287 -0.097661 -0.167976 0.043832 0.096342 0.336878
    39 -6.191139 -16.133508 -7.195277 1.727002 0.084685 -3.063162
    40 0.000001 3.761717 -1.204106 0.000000 0.000000 0.000000
    41 0.000001 3.761716 -2.197272 0.000000 0.000000 0.000000
    42 0.000001 1.420890 -5.835940 0.000000 0.000000 0.000000
    43 -0.000751 -0.003515 -1.549599 0.000000 0.000000 0.000003
  time 27
    0 -0.199225 -2.718839 -9.644826 -1.470963 -1.384525 -1.706604
    1 2.033348 1.000767 1.937659 2.920989 -0.649972 1.771615
    2 6.028141 0.000005 0.000002 -2.567401 -0.845288 -0.123723
    3 11.692560 0.000013 -0.000006 -0.112339 0.230619 -1.181220
    4 11.481678 0.000006 -0.000039 -0.059476 0.304872 0.591789
    5 3.281562 0.002118 -1.379481 0.112302 -0.192693 -1.787910
    6 1.324282 -0.000013 0.000002 0.000000 -0.004054 -0.549726
    7 0.815305 -0.000006 -0.000001 0.000001 -0.000003 -0.523542
    8 3.711852 0.109255 -0.568167 0.074373 -0.129176 -1.817687
    9 1.609408 0.000008 -0.000006 -0.000002 0.005327 -0.427490
    10 0.993192 -0.000006 0.000002 0.001476 0.002258 -0.454048
    11 3.786029 0.203227 0.243937 0.035669 -0.099078 -1.764940
    12 1.684422 -0.000010 0.000009 0.000002 -0.004493 -0.253180
    13 1.255859 0.000006 0.000002 0.000000 0.000000 -0.532321
    14 3.594221 0.299551 1.109804 0.009619 -0.118158 -1.408927
    15 1.719431 0.000000 -0.000006 -0.000004 0.000016 -0.554965
    16 1.005919 0.000000 0.000004 0.000005 0.000018 -0.633474
    17 0.298218 -0.634092 0.426701 -1.443576 -0.999088 -0.347890
    18 2.637462 0.000002 -0.000006 -0.000002 0.026017 0.085391
    19 1.304664 0.000001 -0.000004 -0.009274 -0.024522 0.423436
    20 2.033356 1.000772 -1.937610 -0.128225 0.173026 4.244766
    21 6.028142 0.000001 -0.000001 -0.801378 1.213349 -2.558571
    22 11.692555 0.000031 0.000001 0.045266 -0.038878 -1.707925
    23 11.481703 0.000105 0.000003 -0.564692 -0.544578 0.860961
    24 2.914335 -0.023167 1.400147 -0.002374 0.009105 -1.340561
    25 1.285218 0.000000 -0.000001 0.000002 -0.018822 -0.072134
    26 0.838745 0.000002 0.000000 -0.028367 0.030326 -0.783838
    27 3.368059 0.007375 0.618550 0.028206 0.001622 -1.454663
    28 1.605509 -0.000002 0.000002 0.000003 0.094855 -0.602648
    29 1.020535 -0.000004 -0.000002 0.010884 -0.012487 -1.121526
    30 3.555524 0.023917 -0.204473 -0.014992 0.020879 -1.281411
    31 1.668801 0.000006 0.000006 0.000002 0.134788 -0.672855
    32 1.240436 0.000002 0.000006 0.000002 -0.000011 -1.488674
    33 3.449664 0.054213 -1.089087 0.056006 0.350578 -0.342697
    34 1.711616 0.000006 0.000011 0.004342 -0.007426 -0.852924
    35 0.999023 0.000002 0.000000 -0.000550 -0.014666 -0.161092
    36 0.079434 -0.738750 -0.759723 1.154820 0.684841 -0.575535
    37 2.508554 -0.000008 -0.000008 -0.000002 -0.000001 0.359163
    38 1.320287 -0.000002 -0.167976 0.044467 0.080415 0.476195
    39 -6.292705 -15.949908 -7.499974 1.690326 0.067305 -3.080917
    40 0.000001 3.761717 -1.204106 0.000000 0.000000 0.000000
    41 0.000001 3.761716 -2.197272 0.000000 0.000000 0.000000
    42 0.000001 1.420890 -5.835940 0.000000 0.000000 0.000000
    43 -0.000751 -0.003515 -1.549599 0.000000 0.000000 0.000003
  time 28
    0 -0.113285 -2.695401 -9.644826 -1.511974 -1.388034 -1.650325
    1 2.033348 1.000767 1.937659 2.927409 -0.638543 1.759898
    2 6.028141 0.000005 0.000002 -2.475587 -0.832146 -0.182660
    3 11.692560 0.000013 -0.000006 -0.111775 0.230404 -1.178736
    4 11.481678 0.000006 -0.000039 -0.155010 0.265249 0.582853
    5 3.281562 0.002118 -1.383387 0.095049 -0.152427 -1.699380
    6 1.324282 -0.000013 0.000002 0.000581 -0.003862 -0.708036
    7 0.815305 -0.000006 -0.000001 0.000001 -0.000003 -0.349397
    8 3.711852 0.109255 -0.568167 0.058827 -0.137042 -1.700833
    9 1.609408 0.000008 -0.000006 -0.000708 0.005123 -0.569956
    10 0.993192 -0.000006 0.000002 0.001732 0.001982 -0.316914
    11 3.786029 0.203227 0.243937 0.017605 -0.104818 -1.589958
    12 1.684422 -0.000010 0.000009 0.000729 -0.004229 -0.432549
    13 1.255859 0.000006 0.000002 0.000000 0.000000 -0.532321
    14 3.594221 0.299551 1.109804 -0.022361 -0.142810 -1.137315
    15 1.719431 0.000000 -0.000006 -0.000004 0.000016 -0.697473
    16 1.005919 0.000000 0.000004 0.000005 0.000018 -0.459365
    17 0.298218 -0.634092 0.426701 -1.386560 -0.977116 -0.348244
    18 2.637462 0.000002 -0.000006 0.001892 0.025754 0.159281
    19 1.304664 0.000001 -0.000004 -0.005463 -0.024857 0.275710
    20 2.033356 1.000772 -1.937610 -0.128225 0.173026 4.244806
    21 6.028142 0.000001 -0.000001 -0.764097 1.261424 -2.521834
    22 11.692555 0.000031 0.000001 0.069786 -0.058964 -1.741109
    23 11.481703 0.000105 0.000003 -0.580239 -0.547405 0.897039
    24 2.914335 -0.023167 1.400147 -0.002374 0.009105 -1.340561
    25 1.285218 0.000000 -0.000001 0.000002 -0.003700 -0.195712
    26 0.838745 0.000002 0.000000 -0.034609 0.034390 -0.840419
    27 3.368059 0.007375 0.618550 0.028206 0.001622 -1.454663
    28 1.605509 -0.000002 0.000002 0.000003 0.094855 -0.602648
    29 1.020535 -0.000004 -0.000002 0.011400 -0.012727 -1.148380
    30 3.555524 0.023917 -0.200566 -0.019271 0.018686 -1.341186
    31 1.668801 0.000006 0.000006 0.000002 0.138923 -0.672109
    32 1.240436 0.000002 0.000006 0.000002 -0.000011 -1.488674
    33 3.449664 0.054213 -1.089087 0.056006 0.350578 -0.342697
    34 1.711616 0.000006 0.000011 0.004342 -0.007426 -0.852974
    35 0.999023 0.000002 0.000000 -0.000550 -0.014666 -0.161092
    36 0.079434 -0.738750 -0.759723 1.139383 0.696116 -0.592603
    37 2.508554 -0.000008 -0.000008 -0.000002 -0.000001 0.359163
    38 1.312475 0.128908 -0.156257 0.040164 0.057248 0.642055
    39 -6.405990 -15.649118 -7.781232 1.653377 0.047296 -3.099217
    40 0.000001 3.761717 -1.204106 0.000000 0.000000 0.000000
    41 0.000001 3.761716 -2.197272 0.000000 0.000000 0.000000
    42 0.000001 1.420890 -5.835940 0.000000 0.000000 0.000000
    43 -0.000751 -0.003515 -1.549599 0.000000 0.000000 0.000003
  time 29
    0 -0.050783 -2.675869 -9.644826 -1.543636 -1.390277 -1.607420
    1 2.033348 1.000767 1.937659 2.931903 -0.629963 1.751418
    2 6.028141 0.000005 0.000002 -2.383203 -0.814805 -0.239702
    3 11.692560 0.000013 -0.000006 -0.112255 0.230595 -1.180806
    4 11.481678 0.000006 -0.000039 -0.235738 0.230201 0.585986
    5 3.281562 0.002118 -1.383387 0.073074 -0.102644 -1.590342
    6 1.324282 -0.000013 0.000002 0.001328 -0.003622 -0.903144
    7 0.815305 -0.000006 -0.000001 0.000001 -0.000003 -0.134857
    8 3.711852 0.109255 -0.568167 0.038581 -0.144284 -1.556226
    9 1.609408 0.000008 -0.000006 -0.001617 0.004896 -0.745567
    10 0.993192 -0.000006 0.000002 0.002047 0.001659 -0.147795
    11 3.786029 0.207133 0.247844 -0.005197 -0.106676 -1.373899
    12 1.684422 -0.000010 0.000009 0.001653 -0.003906 -0.653652
    13 1.255859 0.000006 0.000002 0.000000 0.000000 -0.532321
    14 3.594221 0.303457 1.109804 -0.059745 -0.161782 -0.800643
    15 1.719431 0.000000 -0.000006 -0.000004 0.000016 -0.873075
    16 1.005919 0.000000 0.000004 0.000005 0.000018 -0.244686
    17 0.298218 -0.630186 0.426701 -1.316571 -0.950146 -0.348306
    18 2.637462 0.000002 -0.000006 0.004229 0.025418 0.250309
    19 1.304664 0.000001 -0.000004 -0.000753 -0.025265 0.093557
    20 2.033356 1.000772 -1.937610 -0.128225 0.173026 4.244766
    21 6.028142 0.000001 -0.000001 -0.657231 1.282893 -2.398454
    22 11.692555 0.000031 0.000001 0.045494 -0.037991 -1.776015
    23 11.481703 0.000105 0.000003 -0.621479 -0.583333 0.950393
    24 2.910429 -0.027074 1.404053 -0.002188 0.009357 -1.340032
    25 1.285218 0.000000 -0.000001 0.000002 0.012820 -0.331066
    26 0.842651 0.000002 0.000000 -0.041568 0.038792 -0.902973
    27 3.364152 0.007375 0.622456 0.028373 0.001898 -1.454163
    28 1.605509 -0.000002 0.000002 0.000003 0.094855 -0.602648
    29 1.020535 -0.000004 -0.000002 0.011829 -0.012918 -1.170801
    30 3.551618 0.023917 -0.200566 -0.023693 0.016373 -1.406089
    31 1.668801 0.000006 0.000006 0.000002 0.143477 -0.671283
    32 1.240436 0.000002 0.000006 0.000002 -0.000011 -1.488674
    33 3.449664 0.054213 -1.089087 0.056345 0.350566 -0.342046
    34 1.711616 0.000006 0.000011 0.004342 -0.007426 -0.852924
    35 0.999023 0.000002 0.000000 -0.000550 -0.014666 -0.161092
    36 0.079434 -0.738750 -0.755817 1.122773 0.709024 -0.610039
    37 2.512460 -0.000008 -0.000008 -0.000002 -0.000001 0.359163
    38 1.292943 0.269538 -0.152350 0.033741 0.031026 0.825204
    39 -6.530993 -15.305358 -8.078116 1.614131 0.025228 -3.119152
    40 0.000001 3.761717 -1.204106 0.000000 0.000000 0.000000
    41 0.000001 3.761716 -2.197272 0.000000 0.000000 0.000000
    42 0.000001 1.420890 -5.835940 0.000000 0.000000 0.000000
    43 -0.000751 -0.003515 -1.549599 0.000000 0.000000 0.000003
  time 30
    0 -0.007813 -2.664150 -9.644826 -1.563806 -1.391506 -1.580287
    1 2.033348 1.000767 1.937659 2.934608 -0.624609 1.746177
    2 6.028141 0.000005 0.000002 -2.312992 -0.799676 -0.282340
    3 11.692560 0.000013 -0.000006 -0.113225 0.230991 -1.185029
    4 11.481678 0.000006 -0.000039 -0.291568 0.206079 0.594284
    5 3.281562 0.002118 -1.383387 0.053797 -0.059543 -1.498563
    6 1.324282 -0.000013 0.000002 0.001950 -0.003443 -1.068828
    7 0.815305 -0.000006 -0.000001 0.000001 -0.000003 0.047376
    8 3.711852 0.109255 -0.568167 0.020755 -0.147567 -1.433752
    9 1.609408 0.000008 -0.000006 -0.002384 0.004692 -0.894677
    10 0.993192 -0.000006 0.000002 0.002283 0.001359 -0.004264
    11 3.786029 0.203227 0.247844 -0.023969 -0.103104 -1.190939
    12 1.684422 -0.000010 0.000009 0.002438 -0.003642 -0.841402
    13 1.255859 0.000006 0.000002 0.000000 0.000000 -0.532321
    14 3.594221 0.299551 1.109804 -0.086319 -0.168541 -0.514964
    15 1.719431 0.000000 -0.000006 -0.000004 0.000016 -1.022181
    16 1.005919 0.000000 0.000004 0.000005 0.000018 -0.062517
    17 0.298218 -0.634092 0.426701 -1.256450 -0.927088 -0.349514
    18 2.637462 0.000002 -0.000006 0.006218 0.025155 0.327660
    19 1.308570 0.000001 -0.000004 0.003202 -0.025612 -0.061098
    20 2.033356 1.000772 -1.937610 -0.128225 0.173026 4.244766
    21 6.028142 0.000001 -0.000001 -0.579590 1.303791 -2.312818
    22 11.692555 0.000031 0.000001 0.042138 -0.033725 -1.805129
    23 11.481703 0.000105 0.000003 -0.651384 -0.599979 0.992994
    24 2.914335 -0.023167 1.400147 -0.002374 0.009105 -1.340561
    25 1.285218 0.000000 -0.000001 0.000002 0.026131 -0.440147
    26 0.842651 0.000002 0.000000 -0.047211 0.042320 -0.953626
    27 3.368059 0.007375 0.618550 0.028206 0.001622 -1.454663
    28 1.605509 -0.000002 0.000002 0.000003 0.094855 -0.602648
    29 1.020535 -0.000004 -0.000002 0.012136 -0.013038 -1.186184
    30 3.555524 0.023917 -0.204473 -0.027492 0.013856 -1.459347
    31 1.668801 0.000006 0.000006 0.000002 0.147157 -0.670617
    32 1.240436 0.000002 0.000006 0.000002 -0.000011 -1.488635
    33 3.449664 0.054213 -1.089087 0.056006 0.350578 -0.342697
    34 1.711616 0.000006 0.000011 0.004342 -0.007426 -0.852924
    35 0.999023 0.000002 0.000000 -0.000550 -0.014666 -0.161092
    36 0.079434 -0.738750 -0.759723 1.108355 0.719467 -0.625503
    37 2.512460 -0.000008 -0.000008 -0.000002 -0.000001 0.359163
    38 1.265598 0.382822 -0.144538 0.027437 0.009622 0.973385
    39 -6.628653 -15.016286 -8.312498 1.583217 0.007314 -3.135115
    40 0.000001 3.761717 -1.204106 0.000000 0.000000 0.000000
    41 0.000001 3.761716 -2.197272 0.000000 0.000000 0.000000
    42 0.000001 1.420890 -5.835940 0.000000 0.000000 0.000000
    43 -0.000751 -0.003515 -1.549599 0.000000 0.000000 0.000003
  time 31
    0 0.000000 -2.656337 -9.644826 -1.570797 -1.391899 -1.570843
    1 2.033348 1.000767 1.937659 2.935479 -0.622790 1.744404
    2 6.028141 0.000005 0.000002 -2.285040 -0.793083 -0.298828
    3 11.692560 0.000013 -0.000006 -0.113693 0.231171 -1.187182
    4 11.481678 0.000006 -0.000039 -0.312693 0.197246 0.598172
    5 3.281562 0.002118 -1.383387 0.045477 -0.041320 -1.459820
    6 1.324282 -0.000013 0.000002 0.002241 -0.003359 -1.138764
    7 0.815305 -0.000006 -0.000001 0.000001 -0.000003 0.124350
    8 3.711852 0.109255 -0.568167 0.013120 -0.148379 -1.381918
    9 1.609408 0.000008 -0.000006 -0.002686 0.004596 -0.957642
    10 0.993192 -0.000006 0.000002 0.002421 0.001227 0.056362
    11 3.786029 0.203227 0.247844 -0.031575 -0.100432 -1.113637
    12 1.684422 -0.000010 0.000009 0.002753 -0.003522 -0.920678
    13 1.255859 0.000006 0.000002 0.000000 0.000000 -0.532321
    14 3.594221 0.299551 1.109804 -0.095661 -0.169380 -0.394235
    15 1.719431 0.000000 -0.000006 -0.000004 0.000016 -1.085102
    16 1.005919 0.000000 0.000004 0.000005 0.000018 0.014416
    17 0.298218 -0.634092 0.426701 -1.231205 -0.917406 -0.349826
    18 2.637462 0.000002 -0.000006 0.007057 0.025047 0.360302
    19 1.308570 0.000001 -0.000004 0.004892 -0.025756 -0.126424
    20 2.033356 1.000772 -1.937610 -0.128225 0.173026 4.244766
    21 6.028142 0.000001 -0.000001 -0.557632 1.317445 -2.290927
    22 11.692555 0.000031 0.000001 0.051881 -0.040256 -1.817026
    23 11.481703 0.000105 0.000003 -0.659103 -0.599725 1.007272
    24 2.914335 -0.023167 1.400147 -0.002374 0.009105 -1.340561
    25 1.285218 0.000000 -0.000001 0.000002 0.031596 -0.484969
    26 0.842651 0.000002 0.000000 -0.049553 0.043777 -0.974485
    27 3.368059 0.007375 0.618550 0.028206 0.001622 -1.454663
    28 1.605509 -0.000002 0.000002 0.000003 0.094855 -0.602648
    29 1.020535 -0.000004 -0.000002 0.012247 -0.013086 -1.191919
    30 3.555524 0.023917 -0.200566 -0.028954 0.012885 -1.480999
    31 1.668801 0.000006 0.000006 0.000002 0.148667 -0.670351
    32 1.240436 0.000002 0.000006 0.000002 -0.000011 -1.488674
    33 3.449664 0.054213 -1.089087 0.056006 0.350578 -0.342697
    34 1.711616 0.000006 0.000011 0.004342 -0.007426 -0.852974
    35 0.999023 0.000002 0.000000 -0.000550 -0.014666 -0.161092
    36 0.079434 -0.738750 -0.755817 1.102531 0.723791 -0.631551
    37 2.512460 -0.000008 -0.000008 -0.000002 -0.000001 0.359163
    38 1.249973 0.429699 -0.140631 0.024560 0.000801 1.034386
    39 -6.671623 -14.903002 -8.402345 1.570797 -0.000004 -3.141578
    40 0.000001 3.761717 -1.204106 0.000000 0.000000 0.000000
    41 0.000001 3.761716 -2.197272 0.000000 0.000000 0.000000
    42 0.000001 1.420890 -5.835940 0.000000 0.000000 0.000000
    43 -0.000751 -0.003515 -1.549599 0.000000 0.000000 0.000003
end
