// Created by Crowbar++ 0.74
version 1
nodes
  0 "ValveBiped.Bip01_Spine4" -1
  1 "ValveBiped.Bip01_L_Clavicle" 0
  2 "ValveBiped.Bip01_L_UpperArm" 1
  3 "ValveBiped.Bip01_L_Forearm" 2
  4 "ValveBiped.Bip01_L_Hand" 3
  5 "ValveBiped.Bip01_L_Finger4" 4
  6 "ValveBiped.Bip01_L_Finger41" 5
  7 "ValveBiped.Bip01_L_Finger42" 6
  8 "ValveBiped.Bip01_L_Finger3" 4
  9 "ValveBiped.Bip01_L_Finger31" 8
  10 "ValveBiped.Bip01_L_Finger32" 9
  11 "ValveBiped.Bip01_L_Finger2" 4
  12 "ValveBiped.Bip01_L_Finger21" 11
  13 "ValveBiped.Bip01_L_Finger22" 12
  14 "ValveBiped.Bip01_L_Finger1" 4
  15 "ValveBiped.Bip01_L_Finger11" 14
  16 "ValveBiped.Bip01_L_Finger12" 15
  17 "ValveBiped.Bip01_L_Finger0" 4
  18 "ValveBiped.Bip01_L_Finger01" 17
  19 "ValveBiped.Bip01_L_Finger02" 18
  20 "ValveBiped.Bip01_L_Wrist" 3
  21 "ValveBiped.Bip01_R_Clavicle" 0
  22 "ValveBiped.Bip01_R_UpperArm" 21
  23 "ValveBiped.Bip01_R_Forearm" 22
  24 "ValveBiped.Bip01_R_Hand" 23
  25 "ValveBiped.Bip01_R_Finger4" 24
  26 "ValveBiped.Bip01_R_Finger41" 25
  27 "ValveBiped.Bip01_R_Finger42" 26
  28 "ValveBiped.Bip01_R_Finger3" 24
  29 "ValveBiped.Bip01_R_Finger31" 28
  30 "ValveBiped.Bip01_R_Finger32" 29
  31 "ValveBiped.Bip01_R_Finger2" 24
  32 "ValveBiped.Bip01_R_Finger21" 31
  33 "ValveBiped.Bip01_R_Finger22" 32
  34 "ValveBiped.Bip01_R_Finger1" 24
  35 "ValveBiped.Bip01_R_Finger11" 34
  36 "ValveBiped.Bip01_R_Finger12" 35
  37 "ValveBiped.Bip01_R_Finger0" 24
  38 "ValveBiped.Bip01_R_Finger01" 37
  39 "ValveBiped.Bip01_R_Finger02" 38
  40 "ValveBiped.Bip01_R_Wrist" 23
  41 "gun" -1
  42 "stockslide" 41
  43 "barrel" 41
  44 "trigger" 41
  45 "foregrip" 41
  46 "magazine" -1
end
skeleton
  time 0
    0 0.000000 -0.000006 0.000000 -1.570781 -1.391896 -1.570809
    1 -6.140625 0.940918 4.921875 1.596636 -1.286515 2.942963
    2 6.028145 0.000003 0.000002 -0.509053 -0.645403 -2.366482
    3 11.692553 0.000081 -0.000005 -0.000015 0.000022 -0.801520
    4 11.482164 -0.000068 -0.000024 1.932099 -0.600965 0.201367
    5 3.859701 -0.142416 -1.191975 -0.256996 -0.137387 -1.852130
    6 1.312563 -0.000011 0.000004 0.010879 -0.000374 0.003612
    7 0.729367 -0.000006 0.000001 0.000139 -0.003143 -1.567838
    8 3.942327 0.046755 -0.431444 -0.150647 -0.155875 -1.488712
    9 1.539095 0.000004 -0.000006 0.002367 -0.031817 -0.569625
    10 1.196322 -0.000006 0.000003 0.000205 0.003373 -1.773446
    11 3.883692 -0.046782 0.431443 0.088042 -0.193192 -1.306969
    12 1.719582 -0.000010 0.000009 0.080140 -0.125764 -1.537061
    13 1.209179 -0.000010 0.000004 0.012955 0.014021 -0.701505
    14 3.859854 -0.137961 1.332467 0.373841 -0.272184 -1.324221
    15 1.719435 0.000000 -0.000006 0.188953 -0.227651 -1.740330
    16 1.099669 -0.000002 0.000003 0.041841 0.000345 0.020621
    17 1.059570 -0.399170 0.976074 -0.890963 -0.413269 -0.844207
    18 1.789782 0.000000 -0.000008 -0.000002 -0.000001 0.228524
    19 1.207001 -0.000001 -0.000002 0.000002 -0.000001 1.337483
    20 11.483368 -0.000009 -0.000003 0.078671 -0.091048 0.052153
    21 -1.258789 -10.187500 -8.492188 -1.668474 1.286518 2.942953
    22 6.028141 0.000000 -0.000002 0.992582 0.879294 -1.497041
    23 11.692554 0.000000 0.000000 -0.000002 0.000000 -0.930039
    24 11.481701 -0.000001 -0.000008 -1.352994 0.428508 0.266289
    25 3.859676 -0.132542 1.193109 0.478506 -0.074931 -1.386999
    26 1.355469 -0.055237 -0.060089 0.113538 -0.237904 -1.057200
    27 0.729366 0.000006 0.000000 0.367706 -0.351829 -1.258322
    28 3.942295 0.050347 0.431044 0.178398 -0.020202 -1.240069
    29 1.539097 -0.000004 0.000001 0.021877 -0.140914 -1.231768
    30 1.196323 0.000000 -0.000003 0.111314 -0.166180 -1.525207
    31 3.896484 -0.115356 -0.178345 -0.080588 0.020284 -1.147277
    32 1.571143 0.050783 -0.023432 -0.066512 0.021187 -1.315478
    33 1.209185 0.000002 0.000006 -0.115337 -0.023773 -1.224252
    34 3.461383 0.081556 -1.030492 0.044330 0.369094 -0.096383
    35 1.645204 -0.007807 0.093762 0.055516 -0.079537 -1.645949
    36 1.099663 0.000006 0.000008 0.003899 0.088225 -0.469006
    37 1.455078 -0.658691 -0.801270 1.269778 0.438823 -0.604310
    38 1.789785 -0.000010 -0.000008 0.217297 -0.065779 0.620771
    39 1.207003 -0.000002 -0.000004 0.144487 -0.180544 0.605305
    40 11.481699 0.000084 0.000002 0.032008 0.069256 0.033748
    41 -6.479999 -12.130787 -5.160691 1.546918 0.000000 -0.000060
    42 0.000000 1.269531 -2.767578 -1.572902 0.000000 0.000000
    43 0.105469 1.031250 7.941406 -1.572902 0.000000 0.000000
    44 0.000000 -1.149011 1.021415 -0.396364 0.000000 0.000000
    45 0.000000 -0.641789 5.774651 -3.003031 0.000000 0.000000
    46 -6.483855 -10.962665 -9.285514 1.848664 0.002745 -0.000954
  time 1
    0 0.000000 -0.000006 0.000000 -1.570781 -1.391896 -1.570809
    1 -6.140625 0.940918 4.921875 1.596636 -1.286515 2.942963
    2 6.028145 0.000003 0.000002 -0.510027 -0.635611 -2.355161
    3 11.692553 0.000081 -0.000005 -0.000015 0.000022 -0.823182
    4 11.482164 -0.000068 -0.000024 1.926106 -0.608656 0.216309
    5 3.859701 -0.142416 -1.191975 -0.256996 -0.137387 -1.852130
    6 1.312563 -0.000011 0.000004 0.010879 -0.000374 0.003612
    7 0.729367 -0.000006 0.000001 0.000139 -0.003143 -1.567838
    8 3.942327 0.046755 -0.431444 -0.150647 -0.155875 -1.488712
    9 1.539095 0.000004 -0.000006 0.002367 -0.031817 -0.569625
    10 1.196322 -0.000006 0.000003 0.000205 0.003373 -1.773446
    11 3.883692 -0.046782 0.431443 0.088042 -0.193192 -1.306969
    12 1.719582 -0.000010 0.000009 0.080140 -0.125764 -1.537061
    13 1.209179 -0.000010 0.000004 0.012955 0.014021 -0.701505
    14 3.859854 -0.137961 1.332467 0.373841 -0.272196 -1.324221
    15 1.719435 0.000000 -0.000006 0.188953 -0.227651 -1.740330
    16 1.099669 -0.000002 0.000003 0.041841 0.000345 0.020621
    17 1.059570 -0.399170 0.976074 -0.890963 -0.413269 -0.844207
    18 1.789782 0.000000 -0.000008 -0.000002 -0.000001 0.228524
    19 1.207001 -0.000001 -0.000002 0.000002 -0.000001 1.337483
    20 11.483368 -0.000009 -0.000003 0.078204 -0.092274 0.054861
    21 -1.258789 -10.187500 -8.492188 -1.668474 1.286518 2.942953
    22 6.028141 0.000000 -0.000002 0.999856 0.864956 -1.485090
    23 11.692554 0.000000 0.000000 -0.000002 0.000000 -0.959477
    24 11.481701 -0.000001 -0.000008 -1.350756 0.429862 0.283811
    25 3.859676 -0.132542 1.193109 0.478506 -0.074931 -1.386999
    26 1.355469 -0.055237 -0.060089 0.113538 -0.237904 -1.057200
    27 0.729366 0.000006 0.000000 0.367706 -0.351829 -1.258322
    28 3.942295 0.050347 0.431044 0.178398 -0.020202 -1.240069
    29 1.539097 -0.000004 0.000001 0.021877 -0.140914 -1.231768
    30 1.196323 0.000000 -0.000003 0.111314 -0.166180 -1.525207
    31 3.896484 -0.115356 -0.178345 -0.080588 0.020284 -1.147277
    32 1.571143 0.050783 -0.023432 -0.066512 0.021187 -1.315478
    33 1.209185 0.000002 0.000006 -0.115337 -0.023773 -1.224252
    34 3.461383 0.081556 -1.030492 0.044134 0.368818 -0.096584
    35 1.645204 -0.007807 0.093762 0.055324 -0.079849 -1.643337
    36 1.099663 0.000006 0.000008 0.003923 0.088225 -0.469132
    37 1.455078 -0.658691 -0.801270 1.269778 0.438823 -0.604310
    38 1.789785 -0.000010 -0.000008 0.217297 -0.065779 0.620771
    39 1.207003 -0.000002 -0.000004 0.144487 -0.180544 0.605305
    40 11.481699 0.000084 0.000002 0.031912 0.069819 0.037067
    41 -6.503437 -11.974532 -5.168504 1.550647 0.000000 -0.000060
    42 0.000000 1.269531 -2.767578 -1.572902 0.000000 0.000000
    43 0.105469 1.031250 7.941406 -1.572902 0.000000 0.000000
    44 0.000000 -1.149011 1.025321 -0.396364 0.000000 0.000000
    45 0.000000 -0.641789 5.774651 -3.003031 0.000000 0.000000
    46 -6.507294 -10.790785 -9.289420 1.852403 0.002745 -0.000954
  time 2
    0 0.000000 -0.000006 0.000000 -1.570781 -1.391896 -1.570809
    1 -6.140625 0.940918 4.921875 1.596636 -1.286515 2.942963
    2 6.028145 0.000003 0.000002 -0.510584 -0.614727 -2.331864
    3 11.692553 0.000081 -0.000005 -0.000015 0.000022 -0.868311
    4 11.482164 -0.000068 -0.000024 1.912435 -0.625665 0.248207
    5 3.859701 -0.142416 -1.191975 -0.256996 -0.137387 -1.852130
    6 1.312563 -0.000011 0.000004 0.010879 -0.000374 0.003612
    7 0.729367 -0.000006 0.000001 0.000139 -0.003143 -1.567838
    8 3.942327 0.046755 -0.431444 -0.150647 -0.155875 -1.488712
    9 1.539095 0.000004 -0.000006 0.002367 -0.031817 -0.569625
    10 1.196322 -0.000006 0.000003 0.000205 0.003373 -1.773446
    11 3.883692 -0.046782 0.431443 0.088042 -0.193192 -1.306969
    12 1.719582 -0.000010 0.000009 0.080140 -0.125764 -1.537061
    13 1.209179 -0.000010 0.000004 0.012955 0.014021 -0.701505
    14 3.859854 -0.137961 1.332467 0.373841 -0.272196 -1.324221
    15 1.719435 0.000000 -0.000006 0.188953 -0.227651 -1.740330
    16 1.099669 -0.000002 0.000003 0.041841 0.000345 0.020621
    17 1.059570 -0.399170 0.976074 -0.890963 -0.413269 -0.844207
    18 1.789782 0.000000 -0.000008 -0.000002 -0.000001 0.228524
    19 1.207001 -0.000001 -0.000002 0.000002 -0.000001 1.337483
    20 11.483368 -0.000009 -0.000003 0.077125 -0.095089 0.060578
    21 -1.258789 -10.187500 -8.492188 -1.668474 1.286518 2.942953
    22 6.028141 0.000000 -0.000002 1.013639 0.834340 -1.461063
    23 11.692554 0.000000 0.000000 -0.000002 0.000000 -1.021520
    24 11.481701 -0.000001 -0.000008 -1.345730 0.432889 0.320970
    25 3.859676 -0.132542 1.193109 0.478506 -0.074931 -1.386999
    26 1.355469 -0.055237 -0.060089 0.113538 -0.237904 -1.057200
    27 0.729366 0.000006 0.000000 0.367706 -0.351829 -1.258322
    28 3.942295 0.050347 0.431044 0.178398 -0.020202 -1.240069
    29 1.539097 -0.000004 0.000001 0.021877 -0.140914 -1.231768
    30 1.196323 0.000000 -0.000003 0.111314 -0.166180 -1.525207
    31 3.896484 -0.115356 -0.178345 -0.080588 0.020284 -1.147277
    32 1.571143 0.050783 -0.023432 -0.066512 0.021187 -1.315478
    33 1.209185 0.000002 0.000006 -0.115337 -0.023773 -1.224252
    34 3.461383 0.081556 -1.030492 0.043516 0.367991 -0.097154
    35 1.645204 -0.007807 0.093762 0.054737 -0.080772 -1.635305
    36 1.099663 0.000006 0.000008 0.003971 0.088225 -0.469550
    37 1.455078 -0.658691 -0.801270 1.269778 0.438823 -0.604310
    38 1.789785 -0.000010 -0.000008 0.217297 -0.065779 0.620771
    39 1.207003 -0.000002 -0.000004 0.144487 -0.180544 0.605305
    40 11.481699 0.000084 0.000002 0.031721 0.071066 0.044078
    41 -6.550314 -11.634678 -5.188036 1.558869 0.000000 -0.000060
    42 0.000000 1.269531 -2.767578 -1.572902 0.000000 0.000000
    43 0.105469 1.031250 7.941406 -1.572902 0.000000 0.000000
    44 0.000000 -1.152918 1.033134 -0.396364 0.000000 0.000000
    45 0.000000 -0.641789 5.774651 -3.003031 0.000000 0.000000
    46 -6.554170 -10.415774 -9.297233 1.860623 0.002745 -0.000875
  time 3
    0 0.000000 -0.000006 0.000000 -1.570781 -1.391896 -1.570809
    1 -6.140625 0.940918 4.921875 1.596636 -1.286515 2.942963
    2 6.028145 0.000003 0.000002 -0.509192 -0.594612 -2.310204
    3 11.692553 0.000081 -0.000005 -0.000015 0.000022 -0.910796
    4 11.482164 -0.000068 -0.000024 1.897922 -0.642858 0.279434
    5 3.859701 -0.142416 -1.191975 -0.256996 -0.137387 -1.852130
    6 1.312563 -0.000011 0.000004 0.010879 -0.000374 0.003612
    7 0.729367 -0.000006 0.000001 0.000139 -0.003143 -1.567838
    8 3.942327 0.046755 -0.431444 -0.150647 -0.155875 -1.488712
    9 1.539095 0.000004 -0.000006 0.002367 -0.031817 -0.569625
    10 1.196322 -0.000006 0.000003 0.000205 0.003373 -1.773446
    11 3.883692 -0.046782 0.431443 0.088042 -0.193192 -1.306969
    12 1.719582 -0.000010 0.000009 0.080140 -0.125764 -1.537061
    13 1.209179 -0.000010 0.000004 0.012955 0.014021 -0.701505
    14 3.859854 -0.137961 1.332467 0.373841 -0.272184 -1.324221
    15 1.719435 0.000000 -0.000006 0.188953 -0.227651 -1.740330
    16 1.099669 -0.000002 0.000003 0.041841 0.000345 0.020621
    17 1.059570 -0.399170 0.976074 -0.890963 -0.413269 -0.844207
    18 1.789782 0.000000 -0.000008 -0.000002 -0.000001 0.228524
    19 1.207001 -0.000001 -0.000002 0.000002 -0.000001 1.337483
    20 11.483368 -0.000009 -0.000003 0.075986 -0.098037 0.066031
    21 -1.258789 -10.187500 -8.492188 -1.668474 1.286518 2.942953
    22 6.028141 0.000000 -0.000002 1.024812 0.804981 -1.439568
    23 11.692554 0.000000 0.000000 -0.000002 0.000000 -1.080035
    24 11.481701 -0.000001 -0.000008 -1.340601 0.436064 0.356277
    25 3.859676 -0.132542 1.193109 0.478506 -0.074931 -1.386999
    26 1.355469 -0.055237 -0.060089 0.113538 -0.237904 -1.057200
    27 0.729366 0.000006 0.000000 0.367706 -0.351829 -1.258322
    28 3.942295 0.050347 0.431044 0.178398 -0.020202 -1.240069
    29 1.539097 -0.000004 0.000001 0.021877 -0.140914 -1.231768
    30 1.196323 0.000000 -0.000003 0.111314 -0.166180 -1.525207
    31 3.896484 -0.115356 -0.178345 -0.080588 0.020284 -1.147277
    32 1.571143 0.050783 -0.023432 -0.066512 0.021187 -1.315478
    33 1.209185 0.000002 0.000006 -0.115337 -0.023773 -1.224252
    34 3.461383 0.081556 -1.030492 0.042491 0.366601 -0.098161
    35 1.645204 -0.007807 0.093762 0.053730 -0.082318 -1.621904
    36 1.099663 0.000006 0.000008 0.004055 0.088237 -0.470219
    37 1.455078 -0.658691 -0.801270 1.269778 0.438823 -0.604310
    38 1.789785 -0.000010 -0.000008 0.217297 -0.065779 0.620771
    39 1.207003 -0.000002 -0.000004 0.144487 -0.180544 0.605305
    40 11.481699 0.000084 0.000002 0.031577 0.072336 0.050706
    41 -6.601097 -11.290918 -5.207568 1.567067 0.000000 -0.000060
    42 0.000000 1.269531 -2.767578 -1.572902 0.000000 0.000000
    43 0.105469 1.031250 7.941406 -1.572902 0.000000 0.000000
    44 0.000000 -1.152918 1.044853 -0.396364 0.000000 0.000000
    45 0.000000 -0.641789 5.774651 -3.003031 0.000000 0.000000
    46 -6.604953 -10.040762 -9.305045 1.868843 0.002745 -0.000875
  time 4
    0 0.000000 -0.000006 0.000000 -1.570781 -1.391896 -1.570809
    1 -6.140625 0.940918 4.921875 1.596636 -1.286515 2.942963
    2 6.028145 0.000003 0.000002 -0.507939 -0.585767 -2.300977
    3 11.692553 0.000081 -0.000005 -0.000015 0.000022 -0.929170
    4 11.482164 -0.000068 -0.000024 1.891087 -0.650771 0.293368
    5 3.859701 -0.142416 -1.191975 -0.256996 -0.137387 -1.852130
    6 1.312563 -0.000011 0.000004 0.010879 -0.000374 0.003612
    7 0.729367 -0.000006 0.000001 0.000139 -0.003143 -1.567838
    8 3.942327 0.046755 -0.431444 -0.150647 -0.155875 -1.488712
    9 1.539095 0.000004 -0.000006 0.002367 -0.031817 -0.569625
    10 1.196322 -0.000006 0.000003 0.000205 0.003373 -1.773446
    11 3.883692 -0.046782 0.431443 0.088042 -0.193192 -1.306969
    12 1.719582 -0.000010 0.000009 0.080140 -0.125764 -1.537061
    13 1.209179 -0.000010 0.000004 0.012955 0.014021 -0.701505
    14 3.859854 -0.137961 1.332467 0.373841 -0.272196 -1.324221
    15 1.719435 0.000000 -0.000006 0.188953 -0.227651 -1.740330
    16 1.099669 -0.000002 0.000003 0.041841 0.000345 0.020621
    17 1.059570 -0.399170 0.976074 -0.890963 -0.413269 -0.844207
    18 1.789782 0.000000 -0.000008 -0.000002 -0.000001 0.228524
    19 1.207001 -0.000001 -0.000002 0.000002 -0.000001 1.337483
    20 11.483368 -0.000009 -0.000003 0.075447 -0.099420 0.068428
    21 -1.258789 -10.187500 -8.492188 -1.668474 1.286518 2.942953
    22 6.028141 0.000000 -0.000002 1.029163 0.791973 -1.430480
    23 11.692554 0.000000 0.000000 -0.000002 0.000000 -1.105662
    24 11.481701 -0.000001 -0.000008 -1.338191 0.437541 0.371829
    25 3.859676 -0.132542 1.193109 0.478506 -0.074931 -1.386999
    26 1.355469 -0.055237 -0.060089 0.113538 -0.237904 -1.057200
    27 0.729366 0.000006 0.000000 0.367706 -0.351829 -1.258322
    28 3.942295 0.050347 0.431044 0.178398 -0.020202 -1.240069
    29 1.539097 -0.000004 0.000001 0.021877 -0.140914 -1.231768
    30 1.196323 0.000000 -0.000003 0.111314 -0.166180 -1.525207
    31 3.896484 -0.115356 -0.178345 -0.080588 0.020284 -1.147277
    32 1.571143 0.050783 -0.023432 -0.066512 0.021187 -1.315478
    33 1.209185 0.000002 0.000006 -0.115337 -0.023773 -1.224252
    34 3.461383 0.081556 -1.030492 0.041059 0.364672 -0.099502
    35 1.645204 -0.007807 0.093762 0.052304 -0.084439 -1.603180
    36 1.099663 0.000006 0.000008 0.004163 0.088237 -0.471168
    37 1.455078 -0.658691 -0.801270 1.269778 0.438823 -0.604310
    38 1.789785 -0.000010 -0.000008 0.217297 -0.065779 0.620771
    39 1.207003 -0.000002 -0.000004 0.144487 -0.180544 0.605305
    40 11.481699 0.000084 0.000002 0.031529 0.072923 0.053606
    41 -6.624535 -11.134663 -5.215381 1.570796 0.000000 -0.000060
    42 0.000000 1.269531 -2.767578 -1.572902 0.000000 0.000000
    43 0.105469 1.031250 7.941406 -1.572902 0.000000 0.000000
    44 0.000000 -1.152918 1.060479 -0.396364 0.000000 0.000000
    45 0.000000 -0.641789 5.774651 -3.003031 0.000000 0.000000
    46 -6.628391 -9.868882 -9.308952 1.872557 0.002745 -0.000875
  time 5
    0 0.000000 -0.000006 0.000000 -1.570781 -1.391896 -1.570809
    1 -6.140625 0.940918 4.921875 1.596636 -1.286515 2.942963
    2 6.028145 0.000003 0.000002 -0.504806 -0.589524 -2.308044
    3 11.692553 0.000081 -0.000005 -0.000015 0.000022 -0.916857
    4 11.482164 -0.000068 -0.000024 1.893521 -0.646297 0.267234
    5 3.859701 -0.142416 -1.191975 -0.256996 -0.137387 -1.852130
    6 1.312563 -0.000011 0.000004 0.010879 -0.000374 0.003612
    7 0.729367 -0.000006 0.000001 0.000139 -0.003143 -1.567838
    8 3.942327 0.046755 -0.431444 -0.150647 -0.155875 -1.488712
    9 1.539095 0.000004 -0.000006 0.002367 -0.031817 -0.569625
    10 1.196322 -0.000006 0.000003 0.000205 0.003373 -1.773446
    11 3.883692 -0.046782 0.431443 0.088042 -0.193192 -1.306969
    12 1.719582 -0.000010 0.000009 0.080140 -0.125764 -1.537061
    13 1.209179 -0.000010 0.000004 0.012955 0.014021 -0.701505
    14 3.859854 -0.137961 1.332467 0.373841 -0.272196 -1.324221
    15 1.719435 0.000000 -0.000006 0.188953 -0.227651 -1.740330
    16 1.099669 -0.000002 0.000003 0.041841 0.000345 0.020621
    17 1.059570 -0.399170 0.976074 -0.890963 -0.413269 -0.844207
    18 1.789782 0.000000 -0.000008 -0.000002 -0.000001 0.228524
    19 1.207001 -0.000001 -0.000002 0.000002 -0.000001 1.337483
    20 11.483368 -0.000009 -0.000003 0.074716 -0.099165 0.063466
    21 -1.258789 -10.187500 -8.492188 -1.668474 1.286518 2.942953
    22 6.028141 0.000000 -0.000002 1.030520 0.793985 -1.430688
    23 11.692554 0.000000 0.000000 -0.000002 0.000000 -1.098564
    24 11.481701 -0.000001 -0.000008 -1.358227 0.439953 0.350080
    25 3.859676 -0.132542 1.193109 0.478506 -0.074931 -1.386999
    26 1.355469 -0.055237 -0.060089 0.113538 -0.237904 -1.057200
    27 0.729366 0.000006 0.000000 0.367706 -0.351829 -1.258322
    28 3.942295 0.050347 0.431044 0.178398 -0.020202 -1.240069
    29 1.539097 -0.000004 0.000001 0.021877 -0.140914 -1.231768
    30 1.196323 0.000000 -0.000003 0.111314 -0.166180 -1.525207
    31 3.896484 -0.115356 -0.178345 -0.080588 0.020284 -1.147277
    32 1.571143 0.050783 -0.023432 -0.066512 0.021187 -1.315478
    33 1.209185 0.000002 0.000006 -0.115337 -0.023773 -1.224252
    34 3.461383 0.081556 -1.030492 0.039250 0.362215 -0.101247
    35 1.645204 -0.007807 0.093762 0.050434 -0.087100 -1.579425
    36 1.099663 0.000006 0.000008 0.004318 0.088237 -0.472381
    37 1.455078 -0.658691 -0.801270 1.269778 0.438823 -0.604310
    38 1.789785 -0.000010 -0.000008 0.217297 -0.065779 0.620771
    39 1.207003 -0.000002 -0.000004 0.144487 -0.180544 0.605305
    40 11.481699 0.000084 0.000002 0.028257 0.072468 0.050250
    41 -6.620628 -11.150289 -5.211474 1.555977 0.013011 -0.000298
    42 0.000000 1.269531 -2.767578 -1.572902 0.000000 0.000000
    43 0.105469 1.031250 7.941406 -1.572902 0.000000 0.000000
    44 0.000000 -1.152918 1.080011 -0.396364 0.000000 0.000000
    45 0.000000 -0.641789 5.774651 -3.003031 0.000000 0.000000
    46 -6.679174 -9.947009 -9.324577 1.857723 0.015768 -0.001113
  time 6
    0 0.000000 -0.000006 0.000000 -1.570781 -1.391896 -1.570809
    1 -6.140625 0.940918 4.921875 1.596636 -1.286515 2.942963
    2 6.028145 0.000003 0.000002 -0.497427 -0.598428 -2.324601
    3 11.692553 0.000081 -0.000005 -0.000015 0.000022 -0.888490
    4 11.482164 -0.000068 -0.000024 1.898484 -0.635981 0.209649
    5 3.859701 -0.142416 -1.191975 -0.256996 -0.137387 -1.852130
    6 1.312563 -0.000011 0.000004 0.010879 -0.000374 0.003612
    7 0.729367 -0.000006 0.000001 0.000139 -0.003143 -1.567838
    8 3.942327 0.046755 -0.431444 -0.150647 -0.155875 -1.488712
    9 1.539095 0.000004 -0.000006 0.002367 -0.031817 -0.569625
    10 1.196322 -0.000006 0.000003 0.000205 0.003373 -1.773446
    11 3.883692 -0.046782 0.431443 0.088042 -0.193192 -1.306969
    12 1.719582 -0.000010 0.000009 0.080140 -0.125764 -1.537061
    13 1.209179 -0.000010 0.000004 0.012955 0.014021 -0.701505
    14 3.859854 -0.137961 1.332467 0.373841 -0.272196 -1.324221
    15 1.719435 0.000000 -0.000006 0.188953 -0.227651 -1.740330
    16 1.099669 -0.000002 0.000003 0.041841 0.000345 0.020621
    17 1.059570 -0.399170 0.976074 -0.890963 -0.413269 -0.844207
    18 1.789782 0.000000 -0.000008 -0.000002 -0.000001 0.228524
    19 1.207001 -0.000001 -0.000002 0.000002 -0.000001 1.337483
    20 11.483368 -0.000009 -0.000003 0.073110 -0.098535 0.052477
    21 -1.258789 -10.187500 -8.492188 -1.668474 1.286518 2.942953
    22 6.028141 0.000000 -0.000002 1.033339 0.799447 -1.431725
    23 11.692554 0.000000 0.000000 -0.000002 0.000000 -1.081278
    24 11.481701 -0.000001 -0.000008 -1.402532 0.443891 0.301358
    25 3.859676 -0.132542 1.193109 0.478506 -0.074931 -1.387014
    26 1.355469 -0.055237 -0.060089 0.113538 -0.237904 -1.057200
    27 0.729366 0.000006 0.000000 0.367706 -0.351829 -1.258322
    28 3.942295 0.050347 0.431044 0.178398 -0.020202 -1.240069
    29 1.539097 -0.000004 0.000001 0.021877 -0.140914 -1.231768
    30 1.196323 0.000000 -0.000003 0.111314 -0.166180 -1.525207
    31 3.896484 -0.115356 -0.178345 -0.080588 0.020284 -1.147277
    32 1.571143 0.050783 -0.023432 -0.066512 0.021187 -1.315478
    33 1.209185 0.000002 0.000006 -0.115337 -0.023773 -1.224252
    34 3.461383 0.081556 -1.030492 0.037109 0.359279 -0.103293
    35 1.645204 -0.007807 0.093762 0.048109 -0.090216 -1.551073
    36 1.099663 0.000006 0.000008 0.004486 0.088249 -0.473803
    37 1.455078 -0.658691 -0.801270 1.269778 0.438823 -0.604310
    38 1.789785 -0.000010 -0.000008 0.217297 -0.065779 0.620771
    39 1.207003 -0.000002 -0.000004 0.144487 -0.180544 0.605305
    40 11.481699 0.000084 0.000002 0.021090 0.071401 0.042748
    41 -6.616722 -11.193259 -5.203661 1.523303 0.041700 -0.001490
    42 0.000000 1.269531 -2.767578 -1.572902 0.000000 0.000000
    43 0.105469 1.031250 7.941406 -1.572902 0.000000 0.000000
    44 0.000000 -1.152918 1.099542 -0.396364 0.000000 0.000000
    45 0.000000 -0.641789 5.774651 -3.003031 0.000000 0.000000
    46 -6.792459 -10.122796 -9.351922 1.825035 0.044412 -0.002385
  time 7
    0 0.000000 -0.000006 0.000000 -1.570781 -1.391896 -1.570809
    1 -6.140625 0.940918 4.921875 1.596636 -1.286515 2.942963
    2 6.028145 0.000003 0.000002 -0.489351 -0.608781 -2.343513
    3 11.692553 0.000081 -0.000005 -0.000015 0.000022 -0.856642
    4 11.482164 -0.000068 -0.000024 1.903072 -0.624593 0.151113
    5 3.859701 -0.142416 -1.191975 -0.256996 -0.137387 -1.852130
    6 1.312563 -0.000011 0.000004 0.010879 -0.000374 0.003612
    7 0.729367 -0.000006 0.000001 0.000139 -0.003143 -1.567838
    8 3.942327 0.046755 -0.431444 -0.150647 -0.155875 -1.488712
    9 1.539095 0.000004 -0.000006 0.002367 -0.031817 -0.569625
    10 1.196322 -0.000006 0.000003 0.000205 0.003373 -1.773446
    11 3.883692 -0.046782 0.431443 0.088042 -0.193192 -1.306969
    12 1.719582 -0.000010 0.000009 0.080140 -0.125764 -1.537061
    13 1.209179 -0.000010 0.000004 0.012955 0.014021 -0.701505
    14 3.859854 -0.137961 1.332467 0.373841 -0.272196 -1.324221
    15 1.719435 0.000000 -0.000006 0.188953 -0.227651 -1.740330
    16 1.099669 -0.000002 0.000003 0.041841 0.000345 0.020621
    17 1.059570 -0.399170 0.976074 -0.890963 -0.413269 -0.844207
    18 1.789782 0.000000 -0.000008 -0.000002 -0.000001 0.228524
    19 1.207001 -0.000001 -0.000002 0.000002 -0.000001 1.337483
    20 11.483368 -0.000009 -0.000003 0.071456 -0.097722 0.041211
    21 -1.258789 -10.187500 -8.492188 -1.668474 1.286518 2.942953
    22 6.028141 0.000000 -0.000002 1.035636 0.807281 -1.434256
    23 11.692554 0.000000 0.000000 -0.000002 0.000000 -1.060142
    24 11.481701 -0.000001 -0.000008 -1.447078 0.445761 0.250950
    25 3.859676 -0.132542 1.193109 0.478506 -0.074931 -1.386999
    26 1.355469 -0.055237 -0.060089 0.113538 -0.237904 -1.057200
    27 0.729366 0.000006 0.000000 0.367706 -0.351829 -1.258322
    28 3.942295 0.050347 0.431044 0.178398 -0.020202 -1.240069
    29 1.539097 -0.000004 0.000001 0.021877 -0.140914 -1.231768
    30 1.196323 0.000000 -0.000003 0.111314 -0.166180 -1.525207
    31 3.896484 -0.115356 -0.178345 -0.080588 0.020284 -1.147277
    32 1.571143 0.050783 -0.023432 -0.066512 0.021187 -1.315478
    33 1.209185 0.000002 0.000006 -0.115337 -0.023773 -1.224252
    34 3.461383 0.081556 -1.030492 0.034697 0.355947 -0.105608
    35 1.645204 -0.007807 0.093762 0.045365 -0.093679 -1.518754
    36 1.099663 0.000006 0.000008 0.004690 0.088249 -0.475434
    37 1.455078 -0.658691 -0.801270 1.269778 0.438823 -0.604310
    38 1.789785 -0.000010 -0.000008 0.217297 -0.065779 0.620771
    39 1.207003 -0.000002 -0.000004 0.144487 -0.180544 0.605305
    40 11.481699 0.000084 0.000002 0.013971 0.070215 0.034958
    41 -6.608909 -11.255761 -5.195849 1.490534 0.070331 -0.003555
    42 0.000000 1.269531 -2.767578 -1.572902 0.000000 0.000000
    43 0.105469 1.031250 7.941406 -1.572902 0.000000 0.000000
    44 0.000000 -1.152918 1.122981 -0.396364 0.000000 0.000000
    45 0.000000 -0.641789 5.774651 -3.003031 0.000000 0.000000
    46 -6.901837 -10.322021 -9.367547 1.792228 0.072998 -0.004610
  time 8
    0 0.000000 -0.000006 0.000000 -1.570781 -1.391896 -1.570809
    1 -6.140625 0.940918 4.921875 1.596636 -1.286515 2.942963
    2 6.028145 0.000003 0.000002 -0.485314 -0.616561 -2.355946
    3 11.692553 0.000081 -0.000005 -0.000015 0.000022 -0.835302
    4 11.482164 -0.000068 -0.000024 1.905600 -0.617087 0.121621
    5 3.859701 -0.142416 -1.191975 -0.256996 -0.137387 -1.852130
    6 1.312563 -0.000011 0.000004 0.010879 -0.000374 0.003612
    7 0.729367 -0.000006 0.000001 0.000139 -0.003143 -1.567838
    8 3.942327 0.046755 -0.431444 -0.150647 -0.155875 -1.488712
    9 1.539095 0.000004 -0.000006 0.002367 -0.031817 -0.569625
    10 1.196322 -0.000006 0.000003 0.000205 0.003373 -1.773446
    11 3.883692 -0.046782 0.431443 0.088042 -0.193192 -1.306969
    12 1.719582 -0.000010 0.000009 0.080140 -0.125764 -1.537061
    13 1.209179 -0.000010 0.000004 0.012955 0.014021 -0.701505
    14 3.859854 -0.137961 1.332467 0.373841 -0.272196 -1.324221
    15 1.719435 0.000000 -0.000006 0.188953 -0.227651 -1.740330
    16 1.099669 -0.000002 0.000003 0.041841 0.000345 0.020621
    17 1.059570 -0.399170 0.976074 -0.890963 -0.413269 -0.844207
    18 1.789782 0.000000 -0.000008 -0.000002 -0.000001 0.228524
    19 1.207001 -0.000001 -0.000002 0.000002 -0.000001 1.337483
    20 11.483368 -0.000009 -0.000003 0.070701 -0.096969 0.035482
    21 -1.258789 -10.187500 -8.492188 -1.668474 1.286518 2.942953
    22 6.028141 0.000000 -0.000002 1.035114 0.815726 -1.438697
    23 11.692554 0.000000 0.000000 -0.000002 0.000000 -1.042014
    24 11.481701 -0.000001 -0.000008 -1.467526 0.445121 0.224690
    25 3.859676 -0.132542 1.193109 0.478506 -0.074931 -1.386999
    26 1.355469 -0.055237 -0.060089 0.113538 -0.237904 -1.057200
    27 0.729366 0.000006 0.000000 0.367706 -0.351829 -1.258322
    28 3.942295 0.050347 0.431044 0.178398 -0.020202 -1.240069
    29 1.539097 -0.000004 0.000001 0.021877 -0.140914 -1.231768
    30 1.196323 0.000000 -0.000003 0.111314 -0.166180 -1.525207
    31 3.896484 -0.115356 -0.178345 -0.080588 0.020284 -1.147277
    32 1.571143 0.050783 -0.023432 -0.066512 0.021187 -1.315478
    33 1.209185 0.000002 0.000006 -0.115337 -0.023773 -1.224252
    34 3.461383 0.081556 -1.030492 0.032059 0.352304 -0.108123
    35 1.645204 -0.007807 0.093762 0.042237 -0.097358 -1.483388
    36 1.099663 0.000006 0.000008 0.004906 0.088261 -0.477205
    37 1.455078 -0.658691 -0.801270 1.269778 0.438823 -0.604310
    38 1.789785 -0.000010 -0.000008 0.217297 -0.065779 0.620771
    39 1.207003 -0.000002 -0.000004 0.144487 -0.180544 0.605305
    40 11.481699 0.000084 0.000002 0.010831 0.069472 0.030787
    41 -6.597190 -11.337794 -5.184130 1.475619 0.083313 -0.004826
    42 0.000000 1.269531 -2.767578 -1.572902 0.000000 0.000000
    43 0.105469 1.031250 7.941406 -1.572902 0.000000 0.000000
    44 0.000000 -1.152918 1.150325 -0.396364 0.000000 0.000000
    45 0.000000 -0.641789 5.774651 -3.003031 0.000000 0.000000
    46 -6.948713 -10.466556 -9.363641 1.777298 0.085963 -0.005961
  time 9
    0 0.000000 -0.000006 0.000000 -1.570781 -1.391896 -1.570809
    1 -6.140625 0.940918 4.921875 1.596636 -1.286515 2.942963
    2 6.028145 0.000003 0.000002 -0.485731 -0.621620 -2.361182
    3 11.692553 0.000081 -0.000005 -0.000015 0.000022 -0.825116
    4 11.482164 -0.000068 -0.000024 1.906536 -0.613870 0.120670
    5 3.859701 -0.142416 -1.191975 -0.256996 -0.137387 -1.852159
    6 1.312563 -0.000011 0.000004 0.010879 -0.000374 0.003612
    7 0.729367 -0.000006 0.000001 0.000139 -0.003143 -1.567838
    8 3.942327 0.046755 -0.431444 -0.150647 -0.155875 -1.488712
    9 1.539095 0.000004 -0.000006 0.002367 -0.031817 -0.569625
    10 1.196322 -0.000006 0.000003 0.000205 0.003373 -1.773446
    11 3.883692 -0.046782 0.431443 0.088042 -0.193192 -1.306969
    12 1.719582 -0.000010 0.000009 0.080140 -0.125764 -1.537061
    13 1.209179 -0.000010 0.000004 0.012955 0.014021 -0.701505
    14 3.859854 -0.137961 1.332467 0.373841 -0.272196 -1.324221
    15 1.719435 0.000000 -0.000006 0.188953 -0.227651 -1.740330
    16 1.099669 -0.000002 0.000003 0.041841 0.000345 0.020621
    17 1.059570 -0.399170 0.976074 -0.890963 -0.413269 -0.844207
    18 1.789782 0.000000 -0.000008 -0.000002 -0.000001 0.228524
    19 1.207001 -0.000001 -0.000002 0.000002 -0.000001 1.337483
    20 11.483368 -0.000009 -0.000003 0.070833 -0.096338 0.035279
    21 -1.258789 -10.187500 -8.492188 -1.668474 1.286518 2.942953
    22 6.028141 0.000000 -0.000002 1.031877 0.824170 -1.444755
    23 11.692554 0.000000 0.000000 -0.000002 0.000000 -1.027697
    24 11.481701 -0.000001 -0.000008 -1.464221 0.443079 0.222814
    25 3.859676 -0.132542 1.193109 0.478506 -0.074931 -1.386999
    26 1.355469 -0.055237 -0.060089 0.113538 -0.237904 -1.057200
    27 0.729366 0.000006 0.000000 0.367706 -0.351829 -1.258322
    28 3.942295 0.050347 0.431044 0.178398 -0.020202 -1.240069
    29 1.539097 -0.000004 0.000001 0.021877 -0.140914 -1.231768
    30 1.196323 0.000000 -0.000003 0.111314 -0.166180 -1.525207
    31 3.896484 -0.115356 -0.178345 -0.080588 0.020284 -1.147277
    32 1.571143 0.050783 -0.023432 -0.066512 0.021187 -1.315478
    33 1.209185 0.000002 0.000006 -0.115337 -0.023773 -1.224252
    34 3.461383 0.081556 -1.030492 0.029315 0.348457 -0.110740
    35 1.645204 -0.007807 0.093762 0.038797 -0.101122 -1.446085
    36 1.099663 0.000006 0.000008 0.005133 0.088273 -0.479073
    37 1.455078 -0.658691 -0.801270 1.269778 0.438823 -0.604310
    38 1.789785 -0.000010 -0.000008 0.217297 -0.065779 0.620771
    39 1.207003 -0.000002 -0.000004 0.144487 -0.180544 0.605305
    40 11.481699 0.000084 0.000002 0.011562 0.069124 0.030284
    41 -6.585471 -11.439360 -5.168504 1.478535 0.080998 -0.004429
    42 0.000000 1.269531 -2.767578 -1.572902 0.000000 0.000000
    43 0.105469 1.031250 7.941406 -1.572902 0.000000 0.000000
    44 0.000000 -1.152918 1.177670 -0.396364 0.000000 0.000000
    45 0.000000 -0.641789 5.774651 -3.003031 0.000000 0.000000
    46 -6.925275 -10.552496 -9.348015 1.780197 0.083653 -0.005484
  time 10
    0 0.000000 -0.000006 0.000000 -1.570781 -1.391896 -1.570809
    1 -6.140625 0.940918 4.921875 1.596636 -1.286515 2.942963
    2 6.028145 0.000003 0.000002 -0.487402 -0.626382 -2.365043
    3 11.692553 0.000081 -0.000005 -0.000015 0.000022 -0.816992
    4 11.482164 -0.000068 -0.000024 1.907098 -0.611762 0.126938
    5 3.859701 -0.142416 -1.191975 -0.256996 -0.137387 -1.852130
    6 1.312563 -0.000011 0.000004 0.010879 -0.000374 0.003612
    7 0.729367 -0.000006 0.000001 0.000139 -0.003143 -1.567838
    8 3.942327 0.046755 -0.431444 -0.150647 -0.155875 -1.488712
    9 1.539095 0.000004 -0.000006 0.002367 -0.031817 -0.569625
    10 1.196322 -0.000006 0.000003 0.000205 0.003373 -1.773446
    11 3.883692 -0.046782 0.431443 0.088042 -0.193192 -1.306969
    12 1.719582 -0.000010 0.000009 0.080140 -0.125764 -1.537061
    13 1.209179 -0.000010 0.000004 0.012955 0.014021 -0.701505
    14 3.859854 -0.137961 1.332467 0.373841 -0.272184 -1.324221
    15 1.719435 0.000000 -0.000006 0.188953 -0.227651 -1.740330
    16 1.099669 -0.000002 0.000003 0.041841 0.000345 0.020621
    17 1.059570 -0.399170 0.976074 -0.890963 -0.413269 -0.844207
    18 1.789782 0.000000 -0.000008 -0.000002 -0.000001 0.228524
    19 1.207001 -0.000001 -0.000002 0.000002 -0.000001 1.337483
    20 11.483368 -0.000009 -0.000003 0.071181 -0.095732 0.036489
    21 -1.258789 -10.187500 -8.492188 -1.668474 1.286518 2.942953
    22 6.028141 0.000000 -0.000002 1.027666 0.833369 -1.451851
    23 11.692554 0.000000 0.000000 -0.000002 0.000000 -1.013058
    24 11.481701 -0.000001 -0.000008 -1.454651 0.440199 0.227064
    25 3.859676 -0.132542 1.193109 0.478506 -0.074931 -1.386999
    26 1.355469 -0.055237 -0.060089 0.113538 -0.237904 -1.057200
    27 0.729366 0.000006 0.000000 0.367706 -0.351829 -1.258322
    28 3.942295 0.050347 0.431044 0.178398 -0.020202 -1.240069
    29 1.539097 -0.000004 0.000001 0.021877 -0.140914 -1.231768
    30 1.196323 0.000000 -0.000003 0.111314 -0.166180 -1.525207
    31 3.896484 -0.115356 -0.178345 -0.080588 0.020284 -1.147277
    32 1.571143 0.050783 -0.023432 -0.066512 0.021187 -1.315478
    33 1.209185 0.000002 0.000006 -0.115337 -0.023773 -1.224252
    34 3.461383 0.081556 -1.030492 0.026526 0.344538 -0.113390
    35 1.645204 -0.007807 0.093762 0.035154 -0.104813 -1.408106
    36 1.099663 0.000006 0.000008 0.005373 0.088285 -0.480984
    37 1.455078 -0.658691 -0.801270 1.269778 0.438823 -0.604310
    38 1.789785 -0.000010 -0.000008 0.217297 -0.065779 0.620771
    39 1.207003 -0.000002 -0.000004 0.144487 -0.180544 0.605305
    40 11.481699 0.000084 0.000002 0.013348 0.068788 0.030691
    41 -6.569846 -11.548738 -5.152879 1.486447 0.074697 -0.003317
    42 0.000000 1.269531 -2.767578 -1.572902 0.000000 0.000000
    43 0.105469 1.031250 7.941406 -1.572902 0.000000 0.000000
    44 0.000000 -1.156824 1.201108 -0.396364 0.000000 0.000000
    45 0.000000 -0.641789 5.774651 -3.003031 0.000000 0.000000
    46 -6.882305 -10.634530 -9.324577 1.788106 0.077358 -0.004371
  time 11
    0 0.000000 -0.000006 0.000000 -1.570781 -1.391896 -1.570809
    1 -6.140625 0.940918 4.921875 1.596636 -1.286515 2.942963
    2 6.028145 0.000003 0.000002 -0.489978 -0.630938 -2.367791
    3 11.692553 0.000081 -0.000005 -0.000015 0.000022 -0.810545
    4 11.482164 -0.000068 -0.000024 1.907473 -0.610505 0.138746
    5 3.859701 -0.142416 -1.191975 -0.256996 -0.137387 -1.852130
    6 1.312563 -0.000011 0.000004 0.010879 -0.000374 0.003612
    7 0.729367 -0.000006 0.000001 0.000139 -0.003143 -1.567838
    8 3.942327 0.046755 -0.431444 -0.150647 -0.155875 -1.488712
    9 1.539095 0.000004 -0.000006 0.002367 -0.031817 -0.569625
    10 1.196322 -0.000006 0.000003 0.000205 0.003373 -1.773446
    11 3.883692 -0.046782 0.431443 0.088042 -0.193192 -1.306969
    12 1.719582 -0.000010 0.000009 0.080140 -0.125764 -1.537061
    13 1.209179 -0.000010 0.000004 0.012955 0.014021 -0.701505
    14 3.859854 -0.137961 1.332467 0.373841 -0.272196 -1.324221
    15 1.719435 0.000000 -0.000006 0.188953 -0.227651 -1.740330
    16 1.099669 -0.000002 0.000003 0.041841 0.000345 0.020621
    17 1.059570 -0.399170 0.976074 -0.890963 -0.413269 -0.844207
    18 1.789782 0.000000 -0.000008 -0.000002 -0.000001 0.228524
    19 1.207001 -0.000001 -0.000002 0.000002 -0.000001 1.337483
    20 11.483368 -0.000009 -0.000003 0.071708 -0.095174 0.038754
    21 -1.258789 -10.187500 -8.492188 -1.668474 1.286518 2.942953
    22 6.028141 0.000000 -0.000002 1.022550 0.843215 -1.459818
    23 11.692554 0.000000 0.000000 -0.000002 0.000000 -0.997898
    24 11.481701 -0.000001 -0.000008 -1.440468 0.436532 0.235778
    25 3.859676 -0.132542 1.193109 0.478506 -0.074931 -1.386999
    26 1.355469 -0.055237 -0.060089 0.113538 -0.237904 -1.057200
    27 0.729366 0.000006 0.000000 0.367706 -0.351829 -1.258322
    28 3.942295 0.050347 0.431044 0.178398 -0.020202 -1.240069
    29 1.539097 -0.000004 0.000001 0.021877 -0.140914 -1.231768
    30 1.196323 0.000000 -0.000003 0.111314 -0.166180 -1.525207
    31 3.896484 -0.115356 -0.178345 -0.080588 0.020284 -1.147277
    32 1.571143 0.050783 -0.023432 -0.066512 0.021187 -1.315478
    33 1.209185 0.000002 0.000006 -0.115337 -0.023773 -1.224252
    34 3.461383 0.081556 -1.030492 0.023797 0.340679 -0.116007
    35 1.645204 -0.007807 0.093762 0.031439 -0.108312 -1.370804
    36 1.099663 0.000006 0.000008 0.005601 0.088297 -0.482852
    37 1.455078 -0.658691 -0.801270 1.269778 0.438823 -0.604310
    38 1.789785 -0.000010 -0.000008 0.217297 -0.065779 0.620771
    39 1.207003 -0.000002 -0.000004 0.144487 -0.180544 0.605305
    40 11.481699 0.000084 0.000002 0.015925 0.068441 0.031770
    41 -6.554220 -11.673742 -5.133347 1.498063 0.065408 -0.001808
    42 0.000000 1.269531 -2.767578 -1.572902 0.000000 0.000000
    43 0.105469 1.031250 7.941406 -1.572902 0.000000 0.000000
    44 0.000000 -1.156824 1.228453 -0.396364 0.000000 0.000000
    45 0.000000 -0.641789 5.774651 -3.003031 0.000000 0.000000
    46 -6.831522 -10.708751 -9.297233 1.799753 0.068089 -0.002861
  time 12
    0 0.000000 -0.000006 0.000000 -1.570781 -1.391896 -1.570809
    1 -6.140625 0.940918 4.921875 1.596636 -1.286515 2.942963
    2 6.028145 0.000003 0.000002 -0.493111 -0.635316 -2.369754
    3 11.692553 0.000081 -0.000005 -0.000015 0.000022 -0.805130
    4 11.482164 -0.000068 -0.000024 1.907660 -0.609876 0.154191
    5 3.859701 -0.142416 -1.191975 -0.256996 -0.137387 -1.852159
    6 1.312563 -0.000011 0.000004 0.010879 -0.000374 0.003612
    7 0.729367 -0.000006 0.000001 0.000139 -0.003143 -1.567838
    8 3.942327 0.046755 -0.431444 -0.150647 -0.155875 -1.488712
    9 1.539095 0.000004 -0.000006 0.002367 -0.031817 -0.569625
    10 1.196322 -0.000006 0.000003 0.000205 0.003373 -1.773446
    11 3.883692 -0.046782 0.431443 0.088042 -0.193192 -1.306969
    12 1.719582 -0.000010 0.000009 0.080140 -0.125764 -1.537061
    13 1.209179 -0.000010 0.000004 0.012955 0.014021 -0.701505
    14 3.859854 -0.137961 1.332467 0.373841 -0.272184 -1.324221
    15 1.719435 0.000000 -0.000006 0.188953 -0.227651 -1.740330
    16 1.099669 -0.000002 0.000003 0.041841 0.000345 0.020621
    17 1.059570 -0.399170 0.976074 -0.890963 -0.413269 -0.844207
    18 1.789782 0.000000 -0.000008 -0.000002 -0.000001 0.228524
    19 1.207001 -0.000001 -0.000002 0.000002 -0.000001 1.337483
    20 11.483368 -0.000009 -0.000003 0.072355 -0.094628 0.041738
    21 -1.258789 -10.187500 -8.492188 -1.668474 1.286518 2.942953
    22 6.028141 0.000000 -0.000002 1.016841 0.853421 -1.468408
    23 11.692554 0.000000 0.000000 -0.000002 0.000000 -0.982658
    24 11.481701 -0.000001 -0.000008 -1.423256 0.432175 0.247484
    25 3.859676 -0.132542 1.193109 0.478506 -0.074931 -1.386999
    26 1.355469 -0.055237 -0.060089 0.113538 -0.237904 -1.057200
    27 0.729366 0.000006 0.000000 0.367706 -0.351829 -1.258322
    28 3.942295 0.050347 0.431044 0.178398 -0.020202 -1.240069
    29 1.539097 -0.000004 0.000001 0.021877 -0.140914 -1.231768
    30 1.196323 0.000000 -0.000003 0.111314 -0.166180 -1.525207
    31 3.896484 -0.115356 -0.178345 -0.080588 0.020284 -1.147277
    32 1.571143 0.050783 -0.023432 -0.066512 0.021187 -1.315478
    33 1.209185 0.000002 0.000006 -0.115337 -0.023773 -1.224252
    34 3.461383 0.081556 -1.030492 0.021219 0.337011 -0.118455
    35 1.645204 -0.007807 0.093762 0.027795 -0.111500 -1.335340
    36 1.099663 0.000006 0.000008 0.005817 0.088309 -0.484623
    37 1.455078 -0.658691 -0.801270 1.269778 0.438823 -0.604310
    38 1.789785 -0.000010 -0.000008 0.217297 -0.065779 0.620771
    39 1.207003 -0.000002 -0.000004 0.144487 -0.180544 0.605305
    40 11.481699 0.000084 0.000002 0.019005 0.068057 0.033328
    41 -6.538595 -11.802652 -5.113815 1.512165 0.054096 -0.000140
    42 0.000000 1.269531 -2.767578 -1.572902 0.000000 0.000000
    43 0.105469 1.031250 7.941406 -1.572902 0.000000 0.000000
    44 0.000000 -1.156824 1.251891 -0.396364 0.000000 0.000000
    45 0.000000 -0.641789 5.774651 -3.003031 0.000000 0.000000
    46 -6.765114 -10.779066 -9.265982 1.813892 0.056799 -0.001113
  time 13
    0 0.000000 -0.000006 0.000000 -1.570781 -1.391896 -1.570809
    1 -6.140625 0.940918 4.921875 1.596636 -1.286515 2.942963
    2 6.028145 0.000003 0.000002 -0.496522 -0.639634 -2.371456
    3 11.692553 0.000081 -0.000005 -0.000015 0.000022 -0.800359
    4 11.482164 -0.000068 -0.000024 1.907941 -0.609618 0.171427
    5 3.859701 -0.142416 -1.191975 -0.256996 -0.137387 -1.852130
    6 1.312563 -0.000011 0.000004 0.010879 -0.000374 0.003612
    7 0.729367 -0.000006 0.000001 0.000139 -0.003143 -1.567838
    8 3.942327 0.046755 -0.431444 -0.150647 -0.155875 -1.488712
    9 1.539095 0.000004 -0.000006 0.002367 -0.031817 -0.569625
    10 1.196322 -0.000006 0.000003 0.000205 0.003373 -1.773446
    11 3.883692 -0.046782 0.431443 0.088042 -0.193192 -1.306969
    12 1.719582 -0.000010 0.000009 0.080140 -0.125764 -1.537061
    13 1.209179 -0.000010 0.000004 0.012955 0.014021 -0.701505
    14 3.859854 -0.137961 1.332467 0.373841 -0.272196 -1.324221
    15 1.719435 0.000000 -0.000006 0.188953 -0.227651 -1.740330
    16 1.099669 -0.000002 0.000003 0.041841 0.000345 0.020621
    17 1.059570 -0.399170 0.976074 -0.890963 -0.413269 -0.844207
    18 1.789782 0.000000 -0.000008 -0.000002 -0.000001 0.228524
    19 1.207001 -0.000001 -0.000002 0.000002 -0.000001 1.337483
    20 11.483368 -0.000009 -0.000003 0.073086 -0.094106 0.045094
    21 -1.258789 -10.187500 -8.492188 -1.668474 1.286518 2.942953
    22 6.028141 0.000000 -0.000002 1.010681 0.863914 -1.477496
    23 11.692554 0.000000 0.000000 -0.000002 0.000000 -0.967057
    24 11.481701 -0.000001 -0.000008 -1.404666 0.427253 0.260471
    25 3.859676 -0.132542 1.193109 0.478506 -0.074931 -1.386999
    26 1.355469 -0.055237 -0.060089 0.113538 -0.237904 -1.057200
    27 0.729366 0.000006 0.000000 0.367706 -0.351829 -1.258322
    28 3.942295 0.050347 0.431044 0.178398 -0.020202 -1.240069
    29 1.539097 -0.000004 0.000001 0.021877 -0.140914 -1.231768
    30 1.196323 0.000000 -0.000003 0.111314 -0.166180 -1.525207
    31 3.896484 -0.115356 -0.178345 -0.080588 0.020284 -1.147277
    32 1.571143 0.050783 -0.023432 -0.066512 0.021187 -1.315478
    33 1.209185 0.000002 0.000006 -0.115337 -0.023773 -1.224252
    34 3.461383 0.081556 -1.030492 0.018868 0.333644 -0.120703
    35 1.645204 -0.007807 0.093762 0.024356 -0.114293 -1.302876
    36 1.099663 0.000006 0.000008 0.006020 0.088309 -0.486240
    37 1.455078 -0.658691 -0.801270 1.269778 0.438823 -0.604310
    38 1.789785 -0.000010 -0.000008 0.217297 -0.065779 0.620771
    39 1.207003 -0.000002 -0.000004 0.144487 -0.180544 0.605305
    40 11.481699 0.000084 0.000002 0.022349 0.067662 0.035078
    41 -6.519063 -11.931562 -5.094283 1.527486 0.041759 0.001608
    42 0.000000 1.269531 -2.767578 -1.572902 0.000000 0.000000
    43 0.105469 1.031250 7.941406 -1.572902 0.000000 0.000000
    44 0.000000 -1.156824 1.275329 -0.396364 0.000000 0.000000
    45 0.000000 -0.641789 5.774651 -3.003031 0.000000 0.000000
    46 -6.698706 -10.845474 -9.234731 1.829205 0.044470 0.000635
  time 14
    0 0.000000 -0.000006 0.000000 -1.570781 -1.391896 -1.570809
    1 -6.140625 0.940918 4.921875 1.596636 -1.286515 2.942963
    2 6.028145 0.000003 0.000002 -0.499863 -0.643983 -2.373157
    3 11.692553 0.000081 -0.000005 -0.000015 0.000022 -0.795524
    4 11.482164 -0.000068 -0.000024 1.908315 -0.609433 0.188720
    5 3.859701 -0.142416 -1.191975 -0.256996 -0.137387 -1.852130
    6 1.312563 -0.000011 0.000004 0.010879 -0.000374 0.003612
    7 0.729367 -0.000006 0.000001 0.000139 -0.003143 -1.567838
    8 3.942327 0.046755 -0.431444 -0.150647 -0.155875 -1.488712
    9 1.539095 0.000004 -0.000006 0.002367 -0.031817 -0.569625
    10 1.196322 -0.000006 0.000003 0.000205 0.003373 -1.773446
    11 3.883692 -0.046782 0.431443 0.088042 -0.193192 -1.306969
    12 1.719582 -0.000010 0.000009 0.080140 -0.125764 -1.537061
    13 1.209179 -0.000010 0.000004 0.012955 0.014021 -0.701505
    14 3.859854 -0.137961 1.332467 0.373841 -0.272196 -1.324221
    15 1.719435 0.000000 -0.000006 0.188953 -0.227651 -1.740330
    16 1.099669 -0.000002 0.000003 0.041841 0.000345 0.020621
    17 1.059570 -0.399170 0.976074 -0.890963 -0.413269 -0.844207
    18 1.789782 0.000000 -0.000008 -0.000002 -0.000001 0.228524
    19 1.207001 -0.000001 -0.000002 0.000002 -0.000001 1.337483
    20 11.483368 -0.000009 -0.000003 0.073829 -0.093584 0.048450
    21 -1.258789 -10.187500 -8.492188 -1.668474 1.286518 2.942953
    22 6.028141 0.000000 -0.000002 1.004242 0.874479 -1.486874
    23 11.692554 0.000000 0.000000 -0.000002 0.000000 -0.951175
    24 11.481701 -0.000001 -0.000008 -1.386180 0.422010 0.273174
    25 3.859676 -0.132542 1.193109 0.478506 -0.074931 -1.387014
    26 1.355469 -0.055237 -0.060089 0.113538 -0.237904 -1.057200
    27 0.729366 0.000006 0.000000 0.367706 -0.351829 -1.258322
    28 3.942295 0.050347 0.431044 0.178398 -0.020202 -1.240069
    29 1.539097 -0.000004 0.000001 0.021877 -0.140914 -1.231768
    30 1.196323 0.000000 -0.000003 0.111314 -0.166180 -1.525207
    31 3.896484 -0.115356 -0.178345 -0.080588 0.020284 -1.147277
    32 1.571143 0.050783 -0.023432 -0.066512 0.021187 -1.315478
    33 1.209185 0.000002 0.000006 -0.115337 -0.023773 -1.224252
    34 3.461383 0.081556 -1.030492 0.016817 0.330683 -0.122649
    35 1.645204 -0.007807 0.093762 0.021264 -0.116666 -1.274331
    36 1.099663 0.000006 0.000008 0.006188 0.088321 -0.487676
    37 1.455078 -0.658691 -0.801270 1.269778 0.438823 -0.604310
    38 1.789785 -0.000010 -0.000008 0.217297 -0.065779 0.620771
    39 1.207003 -0.000002 -0.000004 0.144487 -0.180544 0.605305
    40 11.481699 0.000084 0.000002 0.025704 0.067218 0.036804
    41 -6.503437 -12.064379 -5.074751 1.542783 0.029393 0.003037
    42 0.000000 1.269531 -2.767578 -1.572902 0.000000 0.000000
    43 0.105469 1.031250 7.941406 -1.572902 0.000000 0.000000
    44 0.000000 -1.156824 1.298767 -0.396364 0.000000 0.000000
    45 0.000000 -0.641789 5.774651 -3.003031 0.000000 0.000000
    46 -6.632297 -10.911882 -9.199573 1.844518 0.032111 0.002145
  time 15
    0 0.000000 -0.000006 0.000000 -1.570781 -1.391896 -1.570809
    1 -6.140625 0.940918 4.921875 1.596636 -1.286515 2.942963
    2 6.028145 0.000003 0.000002 -0.502718 -0.648450 -2.375317
    3 11.692553 0.000081 -0.000005 -0.000015 0.000022 -0.790108
    4 11.482164 -0.000068 -0.000024 1.908877 -0.609026 0.204109
    5 3.859701 -0.142416 -1.191975 -0.256996 -0.137387 -1.852130
    6 1.312563 -0.000011 0.000004 0.010879 -0.000374 0.003612
    7 0.729367 -0.000006 0.000001 0.000139 -0.003143 -1.567838
    8 3.942327 0.046755 -0.431444 -0.150647 -0.155875 -1.488712
    9 1.539095 0.000004 -0.000006 0.002367 -0.031817 -0.569625
    10 1.196322 -0.000006 0.000003 0.000205 0.003373 -1.773446
    11 3.883692 -0.046782 0.431443 0.088042 -0.193192 -1.306969
    12 1.719582 -0.000010 0.000009 0.080140 -0.125764 -1.537061
    13 1.209179 -0.000010 0.000004 0.012955 0.014021 -0.701505
    14 3.859854 -0.137961 1.332467 0.373841 -0.272184 -1.324221
    15 1.719435 0.000000 -0.000006 0.188953 -0.227651 -1.740330
    16 1.099669 -0.000002 0.000003 0.041841 0.000345 0.020621
    17 1.059570 -0.399170 0.976074 -0.890963 -0.413269 -0.844207
    18 1.789782 0.000000 -0.000008 -0.000002 -0.000001 0.228524
    19 1.207001 -0.000001 -0.000002 0.000002 -0.000001 1.337483
    20 11.483368 -0.000009 -0.000003 0.074536 -0.093075 0.051458
    21 -1.258789 -10.187500 -8.492188 -1.668474 1.286518 2.942953
    22 6.028141 0.000000 -0.000002 0.997768 0.884900 -1.496335
    23 11.692554 0.000000 0.000000 -0.000002 0.000000 -0.935052
    24 11.481701 -0.000001 -0.000008 -1.369415 0.416841 0.284049
    25 3.859676 -0.132542 1.193109 0.478506 -0.074931 -1.386999
    26 1.355469 -0.055237 -0.060089 0.113538 -0.237904 -1.057200
    27 0.729366 0.000006 0.000000 0.367706 -0.351829 -1.258322
    28 3.942295 0.050347 0.431044 0.178398 -0.020202 -1.240069
    29 1.539097 -0.000004 0.000001 0.021877 -0.140914 -1.231768
    30 1.196323 0.000000 -0.000003 0.111314 -0.166180 -1.525207
    31 3.896484 -0.115356 -0.178345 -0.080588 0.020284 -1.147277
    32 1.571143 0.050783 -0.023432 -0.066512 0.021187 -1.315478
    33 1.209185 0.000002 0.000006 -0.115337 -0.023773 -1.224252
    34 3.461383 0.081556 -1.030492 0.015083 0.328179 -0.124292
    35 1.645204 -0.007807 0.093762 0.018615 -0.118571 -1.250431
    36 1.099663 0.000006 0.000008 0.006332 0.088333 -0.488875
    37 1.455078 -0.658691 -0.801270 1.269778 0.438823 -0.604310
    38 1.789785 -0.000010 -0.000008 0.217297 -0.065779 0.620771
    39 1.207003 -0.000002 -0.000004 0.144487 -0.180544 0.605305
    40 11.481699 0.000084 0.000002 0.028784 0.066763 0.038266
    41 -6.487812 -12.189383 -5.055219 1.556813 0.018022 0.004229
    42 0.000000 1.269531 -2.767578 -1.572902 0.000000 0.000000
    43 0.105469 1.031250 7.941406 -1.572902 0.000000 0.000000
    44 0.000000 -1.156824 1.318299 -0.396364 0.000000 0.000000
    45 0.000000 -0.641789 5.774651 -3.003031 0.000000 0.000000
    46 -6.569795 -10.982197 -9.164416 1.858562 0.020763 0.003417
  time 16
    0 0.000000 -0.000006 0.000000 -1.570781 -1.391896 -1.570809
    1 -6.140625 0.940918 4.921875 1.596636 -1.286515 2.942963
    2 6.028145 0.000003 0.000002 -0.504806 -0.653094 -2.378327
    3 11.692553 0.000081 -0.000005 -0.000015 0.000022 -0.783468
    4 11.482164 -0.000068 -0.000024 1.909626 -0.608176 0.215749
    5 3.859701 -0.142416 -1.191975 -0.256996 -0.137387 -1.852130
    6 1.312563 -0.000011 0.000004 0.010879 -0.000374 0.003612
    7 0.729367 -0.000006 0.000001 0.000139 -0.003143 -1.567838
    8 3.942327 0.046755 -0.431444 -0.150647 -0.155875 -1.488712
    9 1.539095 0.000004 -0.000006 0.002367 -0.031817 -0.569625
    10 1.196322 -0.000006 0.000003 0.000205 0.003373 -1.773446
    11 3.883692 -0.046782 0.431443 0.088042 -0.193192 -1.306969
    12 1.719582 -0.000010 0.000009 0.080140 -0.125764 -1.537061
    13 1.209179 -0.000010 0.000004 0.012955 0.014021 -0.701505
    14 3.859854 -0.137961 1.332467 0.373841 -0.272196 -1.324221
    15 1.719435 0.000000 -0.000006 0.188953 -0.227651 -1.740330
    16 1.099669 -0.000002 0.000003 0.041841 0.000345 0.020621
    17 1.059570 -0.399170 0.976074 -0.890963 -0.413269 -0.844207
    18 1.789782 0.000000 -0.000008 -0.000002 -0.000001 0.228524
    19 1.207001 -0.000001 -0.000002 0.000002 -0.000001 1.337483
    20 11.483368 -0.000009 -0.000003 0.075123 -0.092565 0.053735
    21 -1.258789 -10.187500 -8.492188 -1.668474 1.286518 2.942953
    22 6.028141 0.000000 -0.000002 0.991433 0.895033 -1.505548
    23 11.692554 0.000000 0.000000 -0.000002 0.000000 -0.918850
    24 11.481701 -0.000001 -0.000008 -1.355783 0.412140 0.291671
    25 3.859676 -0.132542 1.193109 0.478506 -0.074931 -1.386999
    26 1.355469 -0.055237 -0.060089 0.113538 -0.237904 -1.057200
    27 0.729366 0.000006 0.000000 0.367706 -0.351829 -1.258322
    28 3.942295 0.050347 0.431044 0.178398 -0.020202 -1.240069
    29 1.539097 -0.000004 0.000001 0.021877 -0.140914 -1.231768
    30 1.196323 0.000000 -0.000003 0.111314 -0.166180 -1.525207
    31 3.896484 -0.115356 -0.178345 -0.080588 0.020284 -1.147277
    32 1.571143 0.050783 -0.023432 -0.066512 0.021187 -1.315478
    33 1.209185 0.000002 0.000006 -0.115337 -0.023773 -1.224252
    34 3.461383 0.081556 -1.030492 0.013742 0.326213 -0.125567
    35 1.645204 -0.007807 0.093762 0.016506 -0.120033 -1.231610
    36 1.099663 0.000006 0.000008 0.006452 0.088333 -0.489824
    37 1.455078 -0.658691 -0.801270 1.269778 0.438823 -0.604310
    38 1.789785 -0.000010 -0.000008 0.217297 -0.065779 0.620771
    39 1.207003 -0.000002 -0.000004 0.144487 -0.180544 0.605305
    40 11.481699 0.000084 0.000002 0.031349 0.066308 0.039224
    41 -6.472186 -12.310480 -5.035688 1.568358 0.008645 0.005103
    42 0.000000 1.269531 -2.767578 -1.572902 0.000000 0.000000
    43 0.105469 1.031250 7.941406 -1.572902 0.000000 0.000000
    44 0.000000 -1.156824 1.333925 -0.396364 0.000000 0.000000
    45 0.000000 -0.641789 5.774651 -3.003031 0.000000 0.000000
    46 -6.519013 -11.056418 -9.133165 1.870113 0.011379 0.004291
  time 17
    0 0.000000 -0.000006 0.000000 -1.570781 -1.391896 -1.570809
    1 -6.140625 0.940918 4.921875 1.596636 -1.286515 2.942963
    2 6.028145 0.000003 0.000002 -0.505781 -0.658004 -2.382581
    3 11.692553 0.000081 -0.000005 -0.000015 0.000022 -0.774958
    4 11.482164 -0.000068 -0.000024 1.910750 -0.606549 0.221737
    5 3.859701 -0.142416 -1.191975 -0.256996 -0.137387 -1.852130
    6 1.312563 -0.000011 0.000004 0.010879 -0.000374 0.003612
    7 0.729367 -0.000006 0.000001 0.000139 -0.003143 -1.567838
    8 3.942327 0.046755 -0.431444 -0.150647 -0.155875 -1.488712
    9 1.539095 0.000004 -0.000006 0.002367 -0.031817 -0.569625
    10 1.196322 -0.000006 0.000003 0.000205 0.003373 -1.773446
    11 3.883692 -0.046782 0.431443 0.088042 -0.193192 -1.306969
    12 1.719582 -0.000010 0.000009 0.080140 -0.125764 -1.537061
    13 1.209179 -0.000010 0.000004 0.012955 0.014021 -0.701505
    14 3.859854 -0.137961 1.332467 0.373841 -0.272196 -1.324221
    15 1.719435 0.000000 -0.000006 0.188953 -0.227651 -1.740330
    16 1.099669 -0.000002 0.000003 0.041841 0.000345 0.020621
    17 1.059570 -0.399170 0.976074 -0.890963 -0.413269 -0.844207
    18 1.789782 0.000000 -0.000008 -0.000002 -0.000001 0.228524
    19 1.207001 -0.000001 -0.000002 0.000002 -0.000001 1.337483
    20 11.483368 -0.000009 -0.000003 0.075543 -0.092055 0.054921
    21 -1.258789 -10.187500 -8.492188 -1.668474 1.286518 2.942953
    22 6.028141 0.000000 -0.000002 0.985517 0.904592 -1.514303
    23 11.692554 0.000000 0.000000 -0.000002 0.000000 -0.902607
    24 11.481701 -0.000001 -0.000008 -1.346729 0.408449 0.294567
    25 3.859676 -0.132542 1.193109 0.478506 -0.074931 -1.387014
    26 1.355469 -0.055237 -0.060089 0.113538 -0.237904 -1.057200
    27 0.729366 0.000006 0.000000 0.367706 -0.351829 -1.258322
    28 3.942295 0.050347 0.431044 0.178398 -0.020202 -1.240069
    29 1.539097 -0.000004 0.000001 0.021877 -0.140914 -1.231768
    30 1.196323 0.000000 -0.000003 0.111314 -0.166180 -1.525207
    31 3.896484 -0.115356 -0.178345 -0.080588 0.020284 -1.147277
    32 1.571143 0.050783 -0.023432 -0.066512 0.021187 -1.315478
    33 1.209185 0.000002 0.000006 -0.115337 -0.023773 -1.224252
    34 3.461383 0.081556 -1.030492 0.012762 0.324799 -0.126506
    35 1.645204 -0.007807 0.093762 0.014972 -0.121064 -1.218064
    36 1.099663 0.000006 0.000008 0.006536 0.088345 -0.490507
    37 1.455078 -0.658691 -0.801270 1.269778 0.438823 -0.604310
    38 1.789785 -0.000010 -0.000008 0.217297 -0.065779 0.620771
    39 1.207003 -0.000002 -0.000004 0.144487 -0.180544 0.605305
    40 11.481699 0.000084 0.000002 0.033135 0.065864 0.039464
    41 -6.456561 -12.419859 -5.020062 1.576174 0.002286 0.005659
    42 0.000000 1.269531 -2.767578 -1.572902 0.000000 0.000000
    43 0.105469 1.031250 7.941406 -1.572902 0.000000 0.000000
    44 0.000000 -1.156824 1.345644 -0.396364 0.000000 0.000000
    45 0.000000 -0.641789 5.774651 -3.003031 0.000000 0.000000
    46 -6.479949 -11.134545 -9.105821 1.877925 0.005026 0.004847
  time 18
    0 0.000000 -0.000006 0.000000 -1.570781 -1.391896 -1.570809
    1 -6.140625 0.940918 4.921875 1.596636 -1.286515 2.942963
    2 6.028145 0.000003 0.000002 -0.505224 -0.663358 -2.388667
    3 11.692553 0.000081 -0.000005 -0.000015 0.000022 -0.763740
    4 11.482164 -0.000068 -0.000024 1.912155 -0.603813 0.220002
    5 3.859701 -0.142416 -1.191975 -0.256996 -0.137387 -1.852130
    6 1.312563 -0.000011 0.000004 0.010879 -0.000374 0.003612
    7 0.729367 -0.000006 0.000001 0.000139 -0.003143 -1.567838
    8 3.942327 0.046755 -0.431444 -0.150647 -0.155875 -1.488712
    9 1.539095 0.000004 -0.000006 0.002367 -0.031817 -0.569625
    10 1.196322 -0.000006 0.000003 0.000205 0.003373 -1.773446
    11 3.883692 -0.046782 0.431443 0.088042 -0.193192 -1.306969
    12 1.719582 -0.000010 0.000009 0.080140 -0.125764 -1.537061
    13 1.209179 -0.000010 0.000004 0.012955 0.014021 -0.701505
    14 3.859854 -0.137961 1.332467 0.373841 -0.272196 -1.324221
    15 1.719435 0.000000 -0.000006 0.188953 -0.227651 -1.740330
    16 1.099669 -0.000002 0.000003 0.041841 0.000345 0.020621
    17 1.059570 -0.399170 0.976074 -0.890963 -0.413269 -0.844207
    18 1.789782 0.000000 -0.000008 -0.000002 -0.000001 0.228524
    19 1.207001 -0.000001 -0.000002 0.000002 -0.000001 1.337483
    20 11.483368 -0.000009 -0.000003 0.075723 -0.091522 0.054622
    21 -1.258789 -10.187500 -8.492188 -1.668474 1.286518 2.942953
    22 6.028141 0.000000 -0.000002 0.980296 0.913396 -1.522229
    23 11.692554 0.000000 0.000000 -0.000002 0.000000 -0.886484
    24 11.481701 -0.000001 -0.000008 -1.343699 0.406233 0.291362
    25 3.859676 -0.132542 1.193109 0.478506 -0.074931 -1.386999
    26 1.355469 -0.055237 -0.060089 0.113538 -0.237904 -1.057200
    27 0.729366 0.000006 0.000000 0.367706 -0.351829 -1.258322
    28 3.942295 0.050347 0.431044 0.178398 -0.020202 -1.240069
    29 1.539097 -0.000004 0.000001 0.021877 -0.140914 -1.231768
    30 1.196323 0.000000 -0.000003 0.111314 -0.166180 -1.525207
    31 3.896484 -0.115356 -0.178345 -0.080588 0.020284 -1.147277
    32 1.571143 0.050783 -0.023432 -0.066512 0.021187 -1.315478
    33 1.209185 0.000002 0.000006 -0.115337 -0.023773 -1.224252
    34 3.461383 0.081556 -1.030492 0.012189 0.323948 -0.127043
    35 1.645204 -0.007807 0.093762 0.014049 -0.121663 -1.210032
    36 1.099663 0.000006 0.000008 0.006584 0.088345 -0.490911
    37 1.455078 -0.658691 -0.801270 1.269778 0.438823 -0.604310
    38 1.789785 -0.000010 -0.000008 0.217297 -0.065779 0.620771
    39 1.207003 -0.000002 -0.000004 0.144487 -0.180544 0.605305
    40 11.481699 0.000084 0.000002 0.033866 0.065469 0.038733
    41 -6.444842 -12.517518 -5.004437 1.579042 -0.000029 0.005817
    42 0.000000 1.269531 -2.767578 -1.572902 0.000000 0.000000
    43 0.105469 1.031250 7.941406 -1.572902 0.000000 0.000000
    44 0.000000 -1.156824 1.353456 -0.396364 0.000000 0.000000
    45 0.000000 -0.641789 5.774651 -3.003031 0.000000 0.000000
    46 -6.456511 -11.216579 -9.086289 1.880801 0.002716 0.005006
  time 19
    0 0.000000 -0.000006 0.000000 -1.570781 -1.391896 -1.570809
    1 -6.140625 0.940918 4.921875 1.596636 -1.286515 2.942963
    2 6.028145 0.000003 0.000002 -0.503832 -0.668476 -2.395145
    3 11.692553 0.000081 -0.000005 -0.000003 0.000022 -0.751942
    4 11.482164 -0.000068 -0.000024 1.913746 -0.600596 0.214238
    5 3.859701 -0.142416 -1.191975 -0.256996 -0.137387 -1.852130
    6 1.312563 -0.000011 0.000004 0.010879 -0.000374 0.003612
    7 0.729367 -0.000006 0.000001 0.000139 -0.003143 -1.567838
    8 3.942327 0.046755 -0.431444 -0.150647 -0.155875 -1.488712
    9 1.539095 0.000004 -0.000006 0.002367 -0.031817 -0.569625
    10 1.196322 -0.000006 0.000003 0.000205 0.003373 -1.773446
    11 3.883692 -0.046782 0.431443 0.088042 -0.193192 -1.306969
    12 1.719582 -0.000010 0.000009 0.080140 -0.125764 -1.537061
    13 1.209179 -0.000010 0.000004 0.012955 0.014021 -0.701505
    14 3.859854 -0.137961 1.332467 0.373841 -0.272196 -1.324221
    15 1.719435 0.000000 -0.000006 0.188953 -0.227651 -1.740330
    16 1.099669 -0.000002 0.000003 0.041841 0.000345 0.020621
    17 1.059570 -0.399170 0.976074 -0.890963 -0.413269 -0.844207
    18 1.789782 0.000000 -0.000008 -0.000002 -0.000001 0.228524
    19 1.207001 -0.000001 -0.000002 0.000002 -0.000001 1.337483
    20 11.483368 -0.000009 -0.000003 0.075759 -0.091000 0.053519
    21 -1.258789 -10.187500 -8.492188 -1.668474 1.286518 2.942953
    22 6.028141 0.000000 -0.000002 0.975632 0.921193 -1.529325
    23 11.692554 0.000000 0.000000 -0.000002 0.000000 -0.871364
    24 11.481701 -0.000001 -0.000008 -1.344147 0.405175 0.284785
    25 3.859676 -0.132542 1.193109 0.478506 -0.074931 -1.386999
    26 1.355469 -0.055237 -0.060089 0.113538 -0.237904 -1.057200
    27 0.729366 0.000006 0.000000 0.367706 -0.351829 -1.258322
    28 3.942295 0.050347 0.431044 0.178398 -0.020202 -1.240069
    29 1.539097 -0.000004 0.000001 0.021877 -0.140914 -1.231768
    30 1.196323 0.000000 -0.000003 0.111314 -0.166180 -1.525207
    31 3.896484 -0.115356 -0.178345 -0.080588 0.020284 -1.147277
    32 1.571143 0.050783 -0.023432 -0.066512 0.021187 -1.315478
    33 1.209185 0.000002 0.000006 -0.115337 -0.023773 -1.224252
    34 3.461383 0.081556 -1.030492 0.011993 0.323672 -0.127244
    35 1.645204 -0.007807 0.093762 0.013737 -0.121867 -1.207323
    36 1.099663 0.000006 0.000008 0.006608 0.088345 -0.491051
    37 1.455078 -0.658691 -0.801270 1.269778 0.438823 -0.604310
    38 1.789785 -0.000010 -0.000008 0.217297 -0.065779 0.620771
    39 1.207003 -0.000002 -0.000004 0.144487 -0.180544 0.605305
    40 11.481699 0.000084 0.000002 0.033986 0.065145 0.037487
    41 -6.433123 -12.595645 -4.992718 1.578875 -0.000029 0.005738
    42 0.000000 1.269531 -2.767578 -1.572902 0.000000 0.000000
    43 0.105469 1.031250 7.941406 -1.572902 0.000000 0.000000
    44 0.000000 -1.156824 1.353456 -0.396364 0.000000 0.000000
    45 0.000000 -0.641789 5.774651 -3.003031 0.000000 0.000000
    46 -6.444792 -11.298613 -9.074570 1.880633 0.002716 0.004926
  time 20
    0 0.000000 -0.000006 0.000000 -1.570781 -1.391896 -1.570809
    1 -6.140625 0.940918 4.921875 1.596636 -1.286515 2.942963
    2 6.028145 0.000003 0.000002 -0.502439 -0.672913 -2.400904
    3 11.692553 0.000081 -0.000005 -0.000015 0.000022 -0.741691
    4 11.482164 -0.000068 -0.000024 1.915338 -0.597601 0.208922
    5 3.859701 -0.142416 -1.191975 -0.256996 -0.137387 -1.852130
    6 1.312563 -0.000011 0.000004 0.010879 -0.000374 0.003612
    7 0.729367 -0.000006 0.000001 0.000139 -0.003143 -1.567838
    8 3.942327 0.046755 -0.431444 -0.150647 -0.155875 -1.488712
    9 1.539095 0.000004 -0.000006 0.002367 -0.031817 -0.569625
    10 1.196322 -0.000006 0.000003 0.000205 0.003373 -1.773446
    11 3.883692 -0.046782 0.431443 0.088042 -0.193192 -1.306969
    12 1.719582 -0.000010 0.000009 0.080140 -0.125764 -1.537061
    13 1.209179 -0.000010 0.000004 0.012955 0.014021 -0.701505
    14 3.859854 -0.137961 1.332467 0.373841 -0.272196 -1.324221
    15 1.719435 0.000000 -0.000006 0.188953 -0.227651 -1.740330
    16 1.099669 -0.000002 0.000003 0.041841 0.000345 0.020621
    17 1.059570 -0.399170 0.976074 -0.890963 -0.413269 -0.844207
    18 1.789782 0.000000 -0.000008 -0.000002 -0.000001 0.228524
    19 1.207001 -0.000001 -0.000002 0.000002 -0.000001 1.337483
    20 11.483368 -0.000009 -0.000003 0.075807 -0.090514 0.052512
    21 -1.258789 -10.187500 -8.492188 -1.668474 1.286518 2.942953
    22 6.028141 0.000000 -0.000002 0.971525 0.927698 -1.535425
    23 11.692554 0.000000 0.000000 -0.000002 0.000000 -0.858571
    24 11.481701 -0.000001 -0.000008 -1.344594 0.404658 0.278920
    25 3.859676 -0.132542 1.193109 0.478506 -0.074931 -1.386999
    26 1.355469 -0.055237 -0.060089 0.113538 -0.237904 -1.057200
    27 0.729366 0.000006 0.000000 0.367706 -0.351829 -1.258322
    28 3.942295 0.050347 0.431044 0.178398 -0.020202 -1.240069
    29 1.539097 -0.000004 0.000001 0.021877 -0.140914 -1.231768
    30 1.196323 0.000000 -0.000003 0.111314 -0.166180 -1.525207
    31 3.896484 -0.115356 -0.178345 -0.080588 0.020284 -1.147277
    32 1.571143 0.050783 -0.023432 -0.066512 0.021187 -1.315478
    33 1.209185 0.000002 0.000006 -0.115337 -0.023773 -1.224252
    34 3.461383 0.081556 -1.030492 0.011993 0.323672 -0.127244
    35 1.645204 -0.007807 0.093762 0.013737 -0.121867 -1.207323
    36 1.099663 0.000006 0.000008 0.006608 0.088345 -0.491051
    37 1.455078 -0.658691 -0.801270 1.269778 0.438823 -0.604310
    38 1.789785 -0.000010 -0.000008 0.217297 -0.065779 0.620771
    39 1.207003 -0.000002 -0.000004 0.144487 -0.180544 0.605305
    40 11.481699 0.000084 0.000002 0.034070 0.064953 0.036360
    41 -6.425310 -12.665960 -4.980998 1.578421 -0.000029 0.005420
    42 0.000000 1.269531 -2.767578 -1.572902 0.000000 0.000000
    43 0.105469 1.031250 7.941406 -1.572902 0.000000 0.000000
    44 0.000000 -1.156824 1.353456 -0.396364 0.000000 0.000000
    45 0.000000 -0.641789 5.774651 -3.003031 0.000000 0.000000
    46 -6.436979 -11.368928 -9.066757 1.880202 0.002716 0.004609
  time 21
    0 0.000000 -0.000006 0.000000 -1.570781 -1.391896 -1.570809
    1 -6.140625 0.940918 4.921875 1.596636 -1.286515 2.942963
    2 6.028145 0.000003 0.000002 -0.501047 -0.676670 -2.405943
    3 11.692553 0.000081 -0.000005 -0.000003 0.000022 -0.732794
    4 11.482164 -0.000068 -0.000024 1.916743 -0.594828 0.204053
    5 3.859701 -0.142416 -1.191975 -0.256996 -0.137387 -1.852130
    6 1.312563 -0.000011 0.000004 0.010879 -0.000374 0.003612
    7 0.729367 -0.000006 0.000001 0.000139 -0.003143 -1.567838
    8 3.942327 0.046755 -0.431444 -0.150647 -0.155875 -1.488712
    9 1.539095 0.000004 -0.000006 0.002367 -0.031817 -0.569625
    10 1.196322 -0.000006 0.000003 0.000205 0.003373 -1.773446
    11 3.883692 -0.046782 0.431443 0.088042 -0.193192 -1.306969
    12 1.719582 -0.000010 0.000009 0.080140 -0.125764 -1.537061
    13 1.209179 -0.000010 0.000004 0.012955 0.014021 -0.701505
    14 3.859854 -0.137961 1.332467 0.373841 -0.272196 -1.324221
    15 1.719435 0.000000 -0.000006 0.188953 -0.227651 -1.740330
    16 1.099669 -0.000002 0.000003 0.041841 0.000345 0.020621
    17 1.059570 -0.399170 0.976074 -0.890963 -0.413269 -0.844207
    18 1.789782 0.000000 -0.000008 -0.000002 -0.000001 0.228524
    19 1.207001 -0.000001 -0.000002 0.000002 -0.000001 1.337483
    20 11.483368 -0.000009 -0.000003 0.075867 -0.090078 0.051602
    21 -1.258789 -10.187500 -8.492188 -1.668474 1.286518 2.942953
    22 6.028141 0.000000 -0.000002 0.967940 0.933088 -1.540612
    23 11.692554 0.000000 0.000000 -0.000002 0.000000 -0.847742
    24 11.481701 -0.000001 -0.000008 -1.345042 0.404560 0.273625
    25 3.859676 -0.132542 1.193109 0.478506 -0.074931 -1.386999
    26 1.355469 -0.055237 -0.060089 0.113538 -0.237904 -1.057200
    27 0.729366 0.000006 0.000000 0.367706 -0.351829 -1.258322
    28 3.942295 0.050347 0.431044 0.178398 -0.020202 -1.240069
    29 1.539097 -0.000004 0.000001 0.021877 -0.140914 -1.231768
    30 1.196323 0.000000 -0.000003 0.111314 -0.166180 -1.525207
    31 3.896484 -0.115356 -0.178345 -0.080588 0.020284 -1.147277
    32 1.571143 0.050783 -0.023432 -0.066512 0.021187 -1.315478
    33 1.209185 0.000002 0.000006 -0.115337 -0.023773 -1.224252
    34 3.461383 0.081556 -1.030492 0.011993 0.323672 -0.127244
    35 1.645204 -0.007807 0.093762 0.013737 -0.121867 -1.207323
    36 1.099663 0.000006 0.000008 0.006608 0.088345 -0.491051
    37 1.455078 -0.658691 -0.801270 1.269778 0.438823 -0.604310
    38 1.789785 -0.000010 -0.000008 0.217297 -0.065779 0.620771
    39 1.207003 -0.000002 -0.000004 0.144487 -0.180544 0.605305
    40 11.481699 0.000084 0.000002 0.034117 0.064846 0.035341
    41 -6.417497 -12.720649 -4.973186 1.577751 -0.000029 0.004944
    42 0.000000 1.269531 -2.767578 -1.572902 0.000000 0.000000
    43 0.105469 1.031250 7.941406 -1.572902 0.000000 0.000000
    44 0.000000 -1.156824 1.353456 -0.396364 0.000000 0.000000
    45 0.000000 -0.641789 5.774651 -3.003031 0.000000 0.000000
    46 -6.429166 -11.427523 -9.058944 1.879507 0.002716 0.004132
  time 22
    0 0.000000 -0.000006 0.000000 -1.570781 -1.391896 -1.570809
    1 -6.140625 0.940918 4.921875 1.596636 -1.286515 2.942963
    2 6.028145 0.000003 0.000002 -0.499794 -0.679806 -2.410327
    3 11.692553 0.000081 -0.000005 -0.000003 0.000022 -0.725187
    4 11.482164 -0.000068 -0.000024 1.918147 -0.592313 0.199744
    5 3.859701 -0.142416 -1.191975 -0.256996 -0.137387 -1.852130
    6 1.312563 -0.000011 0.000004 0.010879 -0.000374 0.003612
    7 0.729367 -0.000006 0.000001 0.000139 -0.003143 -1.567838
    8 3.942327 0.046755 -0.431444 -0.150647 -0.155875 -1.488712
    9 1.539095 0.000004 -0.000006 0.002367 -0.031817 -0.569625
    10 1.196322 -0.000006 0.000003 0.000205 0.003373 -1.773446
    11 3.883692 -0.046782 0.431443 0.088042 -0.193192 -1.306969
    12 1.719582 -0.000010 0.000009 0.080140 -0.125764 -1.537061
    13 1.209179 -0.000010 0.000004 0.012955 0.014021 -0.701505
    14 3.859854 -0.137961 1.332467 0.373841 -0.272196 -1.324221
    15 1.719435 0.000000 -0.000006 0.188953 -0.227651 -1.740330
    16 1.099669 -0.000002 0.000003 0.041841 0.000345 0.020621
    17 1.059570 -0.399170 0.976074 -0.890963 -0.413269 -0.844207
    18 1.789782 0.000000 -0.000008 -0.000002 -0.000001 0.228524
    19 1.207001 -0.000001 -0.000002 0.000002 -0.000001 1.337483
    20 11.483368 -0.000009 -0.000003 0.075926 -0.089665 0.050787
    21 -1.258789 -10.187500 -8.492188 -1.668474 1.286518 2.942953
    22 6.028141 0.000000 -0.000002 0.964842 0.937472 -1.545011
    23 11.692554 0.000000 0.000000 -0.000002 0.000000 -0.838798
    24 11.481701 -0.000001 -0.000008 -1.345489 0.404830 0.268948
    25 3.859676 -0.132542 1.193109 0.478506 -0.074931 -1.386999
    26 1.355469 -0.055237 -0.060089 0.113538 -0.237904 -1.057200
    27 0.729366 0.000006 0.000000 0.367706 -0.351829 -1.258322
    28 3.942295 0.050347 0.431044 0.178398 -0.020202 -1.240069
    29 1.539097 -0.000004 0.000001 0.021877 -0.140914 -1.231768
    30 1.196323 0.000000 -0.000003 0.111314 -0.166180 -1.525207
    31 3.896484 -0.115356 -0.178345 -0.080588 0.020284 -1.147277
    32 1.571143 0.050783 -0.023432 -0.066512 0.021187 -1.315507
    33 1.209185 0.000002 0.000006 -0.115337 -0.023773 -1.224252
    34 3.461383 0.081556 -1.030492 0.011993 0.323672 -0.127244
    35 1.645204 -0.007807 0.093762 0.013737 -0.121867 -1.207323
    36 1.099663 0.000006 0.000008 0.006608 0.088345 -0.491051
    37 1.455078 -0.658691 -0.801270 1.269778 0.438823 -0.604310
    38 1.789785 -0.000010 -0.000008 0.217297 -0.065779 0.620771
    39 1.207003 -0.000002 -0.000004 0.144487 -0.180544 0.605305
    40 11.481699 0.000084 0.000002 0.034153 0.064822 0.034431
    41 -6.413591 -12.763619 -4.969279 1.576891 -0.000029 0.004308
    42 0.000000 1.269531 -2.767578 -1.572902 0.000000 0.000000
    43 0.105469 1.031250 7.941406 -1.572902 0.000000 0.000000
    44 0.000000 -1.156824 1.353456 -0.396364 0.000000 0.000000
    45 0.000000 -0.641789 5.774651 -3.003031 0.000000 0.000000
    46 -6.421353 -11.474400 -9.055038 1.878668 0.002745 0.003496
  time 23
    0 0.000000 -0.000006 0.000000 -1.570781 -1.391896 -1.570809
    1 -6.140625 0.940918 4.921875 1.596636 -1.286515 2.942963
    2 6.028145 0.000003 0.000002 -0.498610 -0.682379 -2.413927
    3 11.692553 0.000081 -0.000005 -0.000015 0.000022 -0.718933
    4 11.482164 -0.000068 -0.000024 1.919364 -0.590058 0.195939
    5 3.859701 -0.142416 -1.191975 -0.256996 -0.137387 -1.852130
    6 1.312563 -0.000011 0.000004 0.010879 -0.000374 0.003612
    7 0.729367 -0.000006 0.000001 0.000139 -0.003143 -1.567838
    8 3.942327 0.046755 -0.431444 -0.150647 -0.155875 -1.488712
    9 1.539095 0.000004 -0.000006 0.002367 -0.031817 -0.569625
    10 1.196322 -0.000006 0.000003 0.000205 0.003373 -1.773446
    11 3.883692 -0.046782 0.431443 0.088042 -0.193192 -1.306969
    12 1.719582 -0.000010 0.000009 0.080140 -0.125764 -1.537061
    13 1.209179 -0.000010 0.000004 0.012955 0.014021 -0.701505
    14 3.859854 -0.137961 1.332467 0.373841 -0.272196 -1.324221
    15 1.719435 0.000000 -0.000006 0.188953 -0.227651 -1.740330
    16 1.099669 -0.000002 0.000003 0.041841 0.000345 0.020621
    17 1.059570 -0.399170 0.976074 -0.890963 -0.413269 -0.844207
    18 1.789782 0.000000 -0.000008 -0.000002 -0.000001 0.228524
    19 1.207001 -0.000001 -0.000002 0.000002 -0.000001 1.337483
    20 11.483368 -0.000009 -0.000003 0.075998 -0.089289 0.050068
    21 -1.258789 -10.187500 -8.492188 -1.668474 1.286518 2.942953
    22 6.028141 0.000000 -0.000002 0.962267 0.940957 -1.548580
    23 11.692554 0.000000 0.000000 -0.000002 0.000000 -0.831539
    24 11.481701 -0.000001 -0.000008 -1.345868 0.405347 0.264864
    25 3.859676 -0.132542 1.193109 0.478506 -0.074931 -1.386999
    26 1.355469 -0.055237 -0.060089 0.113538 -0.237904 -1.057200
    27 0.729366 0.000006 0.000000 0.367706 -0.351829 -1.258322
    28 3.942295 0.050347 0.431044 0.178398 -0.020202 -1.240069
    29 1.539097 -0.000004 0.000001 0.021877 -0.140914 -1.231768
    30 1.196323 0.000000 -0.000003 0.111314 -0.166180 -1.525207
    31 3.896484 -0.115356 -0.178345 -0.080588 0.020284 -1.147277
    32 1.571143 0.050783 -0.023432 -0.066512 0.021187 -1.315478
    33 1.209185 0.000002 0.000006 -0.115337 -0.023773 -1.224252
    34 3.461383 0.081556 -1.030492 0.011993 0.323672 -0.127244
    35 1.645204 -0.007807 0.093762 0.013737 -0.121867 -1.207323
    36 1.099663 0.000006 0.000008 0.006608 0.088345 -0.491051
    37 1.455078 -0.658691 -0.801270 1.269778 0.438823 -0.604310
    38 1.789785 -0.000010 -0.000008 0.217297 -0.065779 0.620771
    39 1.207003 -0.000002 -0.000004 0.144487 -0.180544 0.605305
    40 11.481699 0.000084 0.000002 0.034165 0.064846 0.033628
    41 -6.409684 -12.798776 -4.961467 1.575935 0.000000 0.003593
    42 0.000000 1.269531 -2.767578 -1.572902 0.000000 0.000000
    43 0.105469 1.031250 7.941406 -1.572902 0.000000 0.000000
    44 0.000000 -1.156824 1.353456 -0.396364 0.000000 0.000000
    45 0.000000 -0.641789 5.774651 -3.003031 0.000000 0.000000
    46 -6.417447 -11.513463 -9.051131 1.877685 0.002745 0.002781
  time 24
    0 0.000000 -0.000006 0.000000 -1.570781 -1.391896 -1.570809
    1 -6.140625 0.940918 4.921875 1.596636 -1.286515 2.942963
    2 6.028145 0.000003 0.000002 -0.497566 -0.684420 -2.416937
    3 11.692553 0.000081 -0.000005 -0.000003 0.000022 -0.713840
    4 11.482164 -0.000068 -0.000024 1.920488 -0.588061 0.192637
    5 3.859701 -0.142416 -1.191975 -0.256996 -0.137387 -1.852130
    6 1.312563 -0.000011 0.000004 0.010879 -0.000374 0.003612
    7 0.729367 -0.000006 0.000001 0.000139 -0.003143 -1.567838
    8 3.942327 0.046755 -0.431444 -0.150647 -0.155875 -1.488712
    9 1.539095 0.000004 -0.000006 0.002367 -0.031817 -0.569625
    10 1.196322 -0.000006 0.000003 0.000205 0.003373 -1.773446
    11 3.883692 -0.046782 0.431443 0.088042 -0.193192 -1.306969
    12 1.719582 -0.000010 0.000009 0.080140 -0.125764 -1.537061
    13 1.209179 -0.000010 0.000004 0.012955 0.014021 -0.701505
    14 3.859854 -0.137961 1.332467 0.373841 -0.272196 -1.324221
    15 1.719435 0.000000 -0.000006 0.188953 -0.227651 -1.740330
    16 1.099669 -0.000002 0.000003 0.041841 0.000345 0.020621
    17 1.059570 -0.399170 0.976074 -0.890963 -0.413269 -0.844207
    18 1.789782 0.000000 -0.000008 -0.000002 -0.000001 0.228524
    19 1.207001 -0.000001 -0.000002 0.000002 -0.000001 1.337512
    20 11.483368 -0.000009 -0.000003 0.076070 -0.088961 0.049456
    21 -1.258789 -10.187500 -8.492188 -1.668474 1.286518 2.942953
    22 6.028141 0.000000 -0.000002 0.960178 0.943617 -1.551401
    23 11.692554 0.000000 0.000000 -0.000002 0.000000 -0.825844
    24 11.481701 -0.000001 -0.000008 -1.346281 0.406061 0.261397
    25 3.859676 -0.132542 1.193109 0.478506 -0.074931 -1.386999
    26 1.355469 -0.055237 -0.060089 0.113538 -0.237904 -1.057200
    27 0.729366 0.000006 0.000000 0.367706 -0.351829 -1.258322
    28 3.942295 0.050347 0.431044 0.178398 -0.020202 -1.240069
    29 1.539097 -0.000004 0.000001 0.021877 -0.140914 -1.231768
    30 1.196323 0.000000 -0.000003 0.111314 -0.166180 -1.525207
    31 3.896484 -0.115356 -0.178345 -0.080588 0.020284 -1.147277
    32 1.571143 0.050783 -0.023432 -0.066512 0.021187 -1.315478
    33 1.209185 0.000002 0.000006 -0.115337 -0.023773 -1.224252
    34 3.461383 0.081556 -1.030492 0.011993 0.323672 -0.127244
    35 1.645204 -0.007807 0.093762 0.013737 -0.121867 -1.207323
    36 1.099663 0.000006 0.000008 0.006608 0.088345 -0.491051
    37 1.455078 -0.658691 -0.801270 1.269778 0.438823 -0.604310
    38 1.789785 -0.000010 -0.000008 0.217297 -0.065779 0.620771
    39 1.207003 -0.000002 -0.000004 0.144487 -0.180544 0.605305
    40 11.481699 0.000084 0.000002 0.034153 0.064929 0.032945
    41 -6.405778 -12.826121 -4.957560 1.574907 0.000000 0.002879
    42 0.000000 1.269531 -2.767578 -1.572902 0.000000 0.000000
    43 0.105469 1.031250 7.941406 -1.572902 0.000000 0.000000
    44 0.000000 -1.156824 1.353456 -0.396364 0.000000 0.000000
    45 0.000000 -0.641789 5.774651 -3.003031 0.000000 0.000000
    46 -6.413541 -11.540808 -9.047225 1.876679 0.002745 0.002066
  time 25
    0 0.000000 -0.000006 0.000000 -1.570781 -1.391896 -1.570809
    1 -6.140625 0.940918 4.921875 1.596636 -1.286515 2.942963
    2 6.028145 0.000003 0.000002 -0.496661 -0.685988 -2.419293
    3 11.692553 0.000081 -0.000005 -0.000003 0.000022 -0.709908
    4 11.482164 -0.000068 -0.000024 1.921518 -0.586360 0.189895
    5 3.859701 -0.142416 -1.191975 -0.256996 -0.137387 -1.852130
    6 1.312563 -0.000011 0.000004 0.010879 -0.000374 0.003612
    7 0.729367 -0.000006 0.000001 0.000139 -0.003143 -1.567878
    8 3.942327 0.046755 -0.431444 -0.150647 -0.155875 -1.488712
    9 1.539095 0.000004 -0.000006 0.002367 -0.031817 -0.569625
    10 1.196322 -0.000006 0.000003 0.000205 0.003373 -1.773487
    11 3.883692 -0.046782 0.431443 0.088042 -0.193192 -1.306969
    12 1.719582 -0.000010 0.000009 0.080140 -0.125764 -1.537061
    13 1.209179 -0.000010 0.000004 0.012955 0.014021 -0.701520
    14 3.859854 -0.137961 1.332467 0.373841 -0.272196 -1.324221
    15 1.719435 0.000000 -0.000006 0.188953 -0.227651 -1.740330
    16 1.099669 -0.000002 0.000003 0.041841 0.000345 0.020621
    17 1.059570 -0.399170 0.976074 -0.890963 -0.413269 -0.844207
    18 1.789782 0.000000 -0.000008 -0.000002 -0.000001 0.228524
    19 1.207001 -0.000001 -0.000002 0.000002 -0.000001 1.337483
    20 11.483368 -0.000009 -0.000003 0.076142 -0.088682 0.048941
    21 -1.258789 -10.187500 -8.492188 -1.668474 1.286518 2.942953
    22 6.028141 0.000000 -0.000002 0.958542 0.945557 -1.553518
    23 11.692554 0.000000 0.000000 -0.000002 0.000000 -0.821593
    24 11.481701 -0.000001 -0.000008 -1.346625 0.406898 0.258524
    25 3.859676 -0.132542 1.193109 0.478506 -0.074931 -1.386999
    26 1.355469 -0.055237 -0.060089 0.113538 -0.237904 -1.057200
    27 0.729366 0.000006 0.000000 0.367706 -0.351829 -1.258322
    28 3.942295 0.050347 0.431044 0.178398 -0.020202 -1.240069
    29 1.539097 -0.000004 0.000001 0.021877 -0.140914 -1.231768
    30 1.196323 0.000000 -0.000003 0.111314 -0.166180 -1.525207
    31 3.896484 -0.115356 -0.178345 -0.080588 0.020284 -1.147277
    32 1.571143 0.050783 -0.023432 -0.066512 0.021187 -1.315478
    33 1.209185 0.000002 0.000006 -0.115337 -0.023773 -1.224252
    34 3.461383 0.081556 -1.030492 0.011993 0.323672 -0.127244
    35 1.645204 -0.007807 0.093762 0.013737 -0.121867 -1.207323
    36 1.099663 0.000006 0.000008 0.006608 0.088345 -0.491051
    37 1.455078 -0.658691 -0.801270 1.269778 0.438823 -0.604310
    38 1.789785 -0.000010 -0.000008 0.217297 -0.065779 0.620771
    39 1.207003 -0.000002 -0.000004 0.144487 -0.180544 0.605305
    40 11.481699 0.000084 0.000002 0.034129 0.065049 0.032381
    41 -6.401872 -12.841746 -4.953654 1.573879 0.000000 0.002164
    42 0.000000 1.269531 -2.767578 -1.572902 0.000000 0.000000
    43 0.105469 1.031250 7.941406 -1.572902 0.000000 0.000000
    44 0.000000 -1.156824 1.353456 -0.396364 0.000000 0.000000
    45 0.000000 -0.641789 5.774651 -3.003031 0.000000 0.000000
    46 -6.409634 -11.564246 -9.047225 1.875648 0.002745 0.001350
  time 26
    0 0.000000 -0.000006 0.000000 -1.570781 -1.391896 -1.570809
    1 -6.140625 0.940918 4.921875 1.596636 -1.286515 2.942963
    2 6.028145 0.000003 0.000002 -0.495965 -0.687142 -2.421060
    3 11.692553 0.000081 -0.000005 -0.000003 0.000022 -0.706942
    4 11.482164 -0.000068 -0.000024 1.922361 -0.584918 0.187656
    5 3.859701 -0.142416 -1.191975 -0.256996 -0.137387 -1.852130
    6 1.312563 -0.000011 0.000004 0.010879 -0.000374 0.003612
    7 0.729367 -0.000006 0.000001 0.000139 -0.003143 -1.567838
    8 3.942327 0.046755 -0.431444 -0.150647 -0.155875 -1.488712
    9 1.539095 0.000004 -0.000006 0.002367 -0.031817 -0.569625
    10 1.196322 -0.000006 0.000003 0.000205 0.003373 -1.773487
    11 3.883692 -0.046782 0.431443 0.088042 -0.193192 -1.306969
    12 1.719582 -0.000010 0.000009 0.080140 -0.125764 -1.537061
    13 1.209179 -0.000010 0.000004 0.012955 0.014021 -0.701505
    14 3.859854 -0.137961 1.332467 0.373841 -0.272184 -1.324221
    15 1.719435 0.000000 -0.000006 0.188953 -0.227651 -1.740330
    16 1.099669 -0.000002 0.000003 0.041841 0.000345 0.020621
    17 1.059570 -0.399170 0.976074 -0.890963 -0.413269 -0.844207
    18 1.789782 0.000000 -0.000008 -0.000002 -0.000001 0.228524
    19 1.207001 -0.000001 -0.000002 0.000002 -0.000001 1.337483
    20 11.483368 -0.000009 -0.000003 0.076214 -0.088440 0.048522
    21 -1.258789 -10.187500 -8.492188 -1.668474 1.286518 2.942953
    22 6.028141 0.000000 -0.000002 0.957324 0.946887 -1.555053
    23 11.692554 0.000000 0.000000 -0.000002 0.000000 -0.818545
    24 11.481701 -0.000001 -0.000008 -1.346901 0.407735 0.256221
    25 3.859676 -0.132542 1.193109 0.478506 -0.074931 -1.386999
    26 1.355469 -0.055237 -0.060089 0.113538 -0.237904 -1.057200
    27 0.729366 0.000006 0.000000 0.367706 -0.351829 -1.258322
    28 3.942295 0.050347 0.431044 0.178398 -0.020202 -1.240069
    29 1.539097 -0.000004 0.000001 0.021877 -0.140914 -1.231768
    30 1.196323 0.000000 -0.000003 0.111314 -0.166180 -1.525207
    31 3.896484 -0.115356 -0.178345 -0.080588 0.020284 -1.147277
    32 1.571143 0.050783 -0.023432 -0.066512 0.021187 -1.315478
    33 1.209185 0.000002 0.000006 -0.115337 -0.023773 -1.224252
    34 3.461383 0.081556 -1.030492 0.011993 0.323672 -0.127244
    35 1.645204 -0.007807 0.093762 0.013737 -0.121867 -1.207323
    36 1.099663 0.000006 0.000008 0.006608 0.088345 -0.491051
    37 1.455078 -0.658691 -0.801270 1.269778 0.438823 -0.604310
    38 1.789785 -0.000010 -0.000008 0.217297 -0.065779 0.620771
    39 1.207003 -0.000002 -0.000004 0.144487 -0.180544 0.605305
    40 11.481699 0.000084 0.000002 0.034105 0.065169 0.031926
    41 -6.401872 -12.857372 -4.953654 1.572923 0.000000 0.001449
    42 0.000000 1.269531 -2.767578 -1.572902 0.000000 0.000000
    43 0.105469 1.031250 7.941406 -1.572902 0.000000 0.000000
    44 0.000000 -1.156824 1.353456 -0.396364 0.000000 0.000000
    45 0.000000 -0.641789 5.774651 -3.003031 0.000000 0.000000
    46 -6.405728 -11.579872 -9.047225 1.874690 0.002745 0.000635
  time 27
    0 0.000000 -0.000006 0.000000 -1.570781 -1.391896 -1.570809
    1 -6.140625 0.940918 4.921875 1.596636 -1.286515 2.942963
    2 6.028145 0.000003 0.000002 -0.495408 -0.687940 -2.422368
    3 11.692553 0.000081 -0.000005 -0.000003 0.000022 -0.704814
    4 11.482164 -0.000068 -0.000024 1.923110 -0.583809 0.185978
    5 3.859701 -0.142416 -1.191975 -0.256996 -0.137387 -1.852130
    6 1.312563 -0.000011 0.000004 0.010879 -0.000374 0.003612
    7 0.729367 -0.000006 0.000001 0.000139 -0.003143 -1.567838
    8 3.942327 0.046755 -0.431444 -0.150647 -0.155875 -1.488712
    9 1.539095 0.000004 -0.000006 0.002367 -0.031817 -0.569625
    10 1.196322 -0.000006 0.000003 0.000205 0.003373 -1.773446
    11 3.883692 -0.046782 0.431443 0.088042 -0.193192 -1.306969
    12 1.719582 -0.000010 0.000009 0.080140 -0.125764 -1.537061
    13 1.209179 -0.000010 0.000004 0.012955 0.014021 -0.701505
    14 3.859854 -0.137961 1.332467 0.373841 -0.272184 -1.324221
    15 1.719435 0.000000 -0.000006 0.188953 -0.227651 -1.740330
    16 1.099669 -0.000002 0.000003 0.041841 0.000345 0.020621
    17 1.059570 -0.399170 0.976074 -0.890963 -0.413269 -0.844207
    18 1.789782 0.000000 -0.000008 -0.000002 -0.000001 0.228524
    19 1.207001 -0.000001 -0.000002 0.000002 -0.000001 1.337483
    20 11.483368 -0.000009 -0.000003 0.076274 -0.088246 0.048210
    21 -1.258789 -10.187500 -8.492188 -1.668474 1.286518 2.942953
    22 6.028141 0.000000 -0.000002 0.956489 0.947713 -1.556090
    23 11.692554 0.000000 0.000000 -0.000002 0.000000 -0.816500
    24 11.481701 -0.000001 -0.000008 -1.347176 0.408547 0.254488
    25 3.859676 -0.132542 1.193109 0.478506 -0.074931 -1.386999
    26 1.355469 -0.055237 -0.060089 0.113538 -0.237904 -1.057200
    27 0.729366 0.000006 0.000000 0.367706 -0.351829 -1.258322
    28 3.942295 0.050347 0.431044 0.178398 -0.020202 -1.240069
    29 1.539097 -0.000004 0.000001 0.021877 -0.140914 -1.231768
    30 1.196323 0.000000 -0.000003 0.111314 -0.166180 -1.525207
    31 3.896484 -0.115356 -0.178345 -0.080588 0.020284 -1.147277
    32 1.571143 0.050783 -0.023432 -0.066512 0.021187 -1.315478
    33 1.209185 0.000002 0.000006 -0.115337 -0.023773 -1.224252
    34 3.461383 0.081556 -1.030492 0.011993 0.323672 -0.127244
    35 1.645204 -0.007807 0.093762 0.013737 -0.121867 -1.207323
    36 1.099663 0.000006 0.000008 0.006608 0.088345 -0.491051
    37 1.455078 -0.658691 -0.801270 1.269778 0.438823 -0.604310
    38 1.789785 -0.000010 -0.000008 0.217297 -0.065779 0.620771
    39 1.207003 -0.000002 -0.000004 0.144487 -0.180544 0.605305
    40 11.481699 0.000084 0.000002 0.034082 0.065301 0.031578
    41 -6.397965 -12.865185 -4.953654 1.572087 0.000000 0.000893
    42 0.000000 1.269531 -2.767578 -1.572902 0.000000 0.000000
    43 0.105469 1.031250 7.941406 -1.572902 0.000000 0.000000
    44 0.000000 -1.156824 1.353456 -0.396364 0.000000 0.000000
    45 0.000000 -0.641789 5.774651 -3.003031 0.000000 0.000000
    46 -6.405728 -11.591591 -9.047225 1.873827 0.002745 0.000079
  time 28
    0 0.000000 -0.000006 0.000000 -1.570781 -1.391896 -1.570809
    1 -6.140625 0.940918 4.921875 1.596636 -1.286515 2.942963
    2 6.028145 0.000003 0.000002 -0.495060 -0.688414 -2.423219
    3 11.692553 0.000081 -0.000005 -0.000003 0.000022 -0.703461
    4 11.482164 -0.000068 -0.000024 1.923578 -0.582958 0.184746
    5 3.859701 -0.142416 -1.191975 -0.256996 -0.137387 -1.852130
    6 1.312563 -0.000011 0.000004 0.010879 -0.000374 0.003612
    7 0.729367 -0.000006 0.000001 0.000139 -0.003143 -1.567878
    8 3.942327 0.046755 -0.431444 -0.150647 -0.155875 -1.488712
    9 1.539095 0.000004 -0.000006 0.002367 -0.031817 -0.569625
    10 1.196322 -0.000006 0.000003 0.000205 0.003373 -1.773446
    11 3.883692 -0.046782 0.431443 0.088042 -0.193192 -1.306969
    12 1.719582 -0.000010 0.000009 0.080140 -0.125764 -1.537061
    13 1.209179 -0.000010 0.000004 0.012955 0.014021 -0.701505
    14 3.859854 -0.137961 1.332467 0.373841 -0.272184 -1.324221
    15 1.719435 0.000000 -0.000006 0.188953 -0.227651 -1.740330
    16 1.099669 -0.000002 0.000003 0.041841 0.000345 0.020621
    17 1.059570 -0.399170 0.976074 -0.890963 -0.413269 -0.844207
    18 1.789782 0.000000 -0.000008 -0.000002 -0.000001 0.228524
    19 1.207001 -0.000001 -0.000002 0.000002 -0.000001 1.337483
    20 11.483368 -0.000009 -0.000003 0.076322 -0.088112 0.047982
    21 -1.258789 -10.187500 -8.492188 -1.668474 1.286518 2.942953
    22 6.028141 0.000000 -0.000002 0.955967 0.948180 -1.556713
    23 11.692554 0.000000 0.000000 -0.000002 0.000000 -0.815296
    24 11.481701 -0.000001 -0.000008 -1.347348 0.409212 0.253277
    25 3.859676 -0.132542 1.193109 0.478506 -0.074931 -1.386999
    26 1.355469 -0.055237 -0.060089 0.113538 -0.237904 -1.057200
    27 0.729366 0.000006 0.000000 0.367706 -0.351829 -1.258322
    28 3.942295 0.050347 0.431044 0.178398 -0.020202 -1.240069
    29 1.539097 -0.000004 0.000001 0.021877 -0.140914 -1.231768
    30 1.196323 0.000000 -0.000003 0.111314 -0.166180 -1.525207
    31 3.896484 -0.115356 -0.178345 -0.080588 0.020284 -1.147277
    32 1.571143 0.050783 -0.023432 -0.066512 0.021187 -1.315478
    33 1.209185 0.000002 0.000006 -0.115337 -0.023773 -1.224252
    34 3.461383 0.081556 -1.030492 0.011993 0.323672 -0.127244
    35 1.645204 -0.007807 0.093762 0.013737 -0.121867 -1.207323
    36 1.099663 0.000006 0.000008 0.006608 0.088345 -0.491051
    37 1.455078 -0.658691 -0.801270 1.269778 0.438823 -0.604310
    38 1.789785 -0.000010 -0.000008 0.217297 -0.065779 0.620771
    39 1.207003 -0.000002 -0.000004 0.144487 -0.180544 0.605305
    40 11.481699 0.000084 0.000002 0.034058 0.065409 0.031327
    41 -6.397965 -12.869091 -4.953654 1.571394 0.000000 0.000416
    42 0.000000 1.269531 -2.767578 -1.572902 0.000000 0.000000
    43 0.105469 1.031250 7.941406 -1.572902 0.000000 0.000000
    44 0.000000 -1.156824 1.353456 -0.396364 0.000000 0.000000
    45 0.000000 -0.641789 5.774651 -3.003031 0.000000 0.000000
    46 -6.405728 -11.599403 -9.047225 1.873156 0.002745 -0.000398
  time 29
    0 0.000000 -0.000006 0.000000 -1.570781 -1.391896 -1.570809
    1 -6.140625 0.940918 4.921875 1.596636 -1.286515 2.942963
    2 6.028145 0.000003 0.000002 -0.494781 -0.688680 -2.423677
    3 11.692553 0.000081 -0.000005 -0.000003 0.000022 -0.702751
    4 11.482164 -0.000068 -0.000024 1.923953 -0.582478 0.184019
    5 3.859701 -0.142416 -1.191975 -0.256996 -0.137387 -1.852130
    6 1.312563 -0.000011 0.000004 0.010879 -0.000374 0.003612
    7 0.729367 -0.000006 0.000001 0.000139 -0.003143 -1.567838
    8 3.942327 0.046755 -0.431444 -0.150647 -0.155875 -1.488712
    9 1.539095 0.000004 -0.000006 0.002367 -0.031817 -0.569625
    10 1.196322 -0.000006 0.000003 0.000205 0.003373 -1.773446
    11 3.883692 -0.046782 0.431443 0.088042 -0.193192 -1.306969
    12 1.719582 -0.000010 0.000009 0.080140 -0.125764 -1.537061
    13 1.209179 -0.000010 0.000004 0.012955 0.014021 -0.701505
    14 3.859854 -0.137961 1.332467 0.373841 -0.272196 -1.324221
    15 1.719435 0.000000 -0.000006 0.188953 -0.227651 -1.740330
    16 1.099669 -0.000002 0.000003 0.041841 0.000345 0.020621
    17 1.059570 -0.399170 0.976074 -0.890963 -0.413269 -0.844207
    18 1.789782 0.000000 -0.000008 -0.000002 -0.000001 0.228524
    19 1.207001 -0.000001 -0.000002 0.000002 -0.000001 1.337483
    20 11.483368 -0.000009 -0.000003 0.076346 -0.088027 0.047850
    21 -1.258789 -10.187500 -8.492188 -1.668474 1.286518 2.942953
    22 6.028141 0.000000 -0.000002 0.955723 0.948360 -1.556962
    23 11.692554 0.000000 0.000000 -0.000002 0.000000 -0.814735
    24 11.481701 -0.000001 -0.000008 -1.347486 0.409655 0.252565
    25 3.859676 -0.132542 1.193109 0.478506 -0.074931 -1.386999
    26 1.355469 -0.055237 -0.060089 0.113538 -0.237904 -1.057200
    27 0.729366 0.000006 0.000000 0.367706 -0.351829 -1.258322
    28 3.942295 0.050347 0.431044 0.178398 -0.020202 -1.240069
    29 1.539097 -0.000004 0.000001 0.021877 -0.140914 -1.231768
    30 1.196323 0.000000 -0.000003 0.111314 -0.166180 -1.525207
    31 3.896484 -0.115356 -0.178345 -0.080588 0.020284 -1.147277
    32 1.571143 0.050783 -0.023432 -0.066512 0.021187 -1.315478
    33 1.209185 0.000002 0.000006 -0.115337 -0.023773 -1.224252
    34 3.461383 0.081556 -1.030492 0.011993 0.323672 -0.127244
    35 1.645204 -0.007807 0.093762 0.013737 -0.121867 -1.207323
    36 1.099663 0.000006 0.000008 0.006608 0.088345 -0.491051
    37 1.455078 -0.658691 -0.801270 1.269778 0.438823 -0.604310
    38 1.789785 -0.000010 -0.000008 0.217297 -0.065779 0.620771
    39 1.207003 -0.000002 -0.000004 0.144487 -0.180544 0.605305
    40 11.481699 0.000084 0.000002 0.034034 0.065481 0.031195
    41 -6.397965 -12.869091 -4.953654 1.570939 0.000000 0.000099
    42 0.000000 1.269531 -2.767578 -1.572902 0.000000 0.000000
    43 0.105469 1.031250 7.941406 -1.572902 0.000000 0.000000
    44 0.000000 -1.156824 1.353456 -0.396364 0.000000 0.000000
    45 0.000000 -0.641789 5.774651 -3.003031 0.000000 0.000000
    46 -6.401822 -11.603310 -9.047225 1.872701 0.002745 -0.000716
  time 30
    0 0.000000 -0.000006 0.000000 -1.570781 -1.391896 -1.570809
    1 -6.140625 0.940918 4.921875 1.596636 -1.286515 2.942963
    2 6.028145 0.000003 0.000002 -0.494712 -0.688739 -2.423808
    3 11.692553 0.000081 -0.000005 -0.000003 0.000022 -0.702558
    4 11.482164 -0.000068 -0.000024 1.924046 -0.582293 0.183795
    5 3.859701 -0.142416 -1.191975 -0.256996 -0.137387 -1.852130
    6 1.312563 -0.000011 0.000004 0.010879 -0.000374 0.003612
    7 0.729367 -0.000006 0.000001 0.000139 -0.003143 -1.567838
    8 3.942327 0.046755 -0.431444 -0.150647 -0.155875 -1.488712
    9 1.539095 0.000004 -0.000006 0.002367 -0.031817 -0.569625
    10 1.196322 -0.000006 0.000003 0.000205 0.003373 -1.773446
    11 3.883692 -0.046782 0.431443 0.088042 -0.193192 -1.306969
    12 1.719582 -0.000010 0.000009 0.080140 -0.125764 -1.537061
    13 1.209179 -0.000010 0.000004 0.012955 0.014021 -0.701505
    14 3.859854 -0.137961 1.332467 0.373841 -0.272184 -1.324221
    15 1.719435 0.000000 -0.000006 0.188953 -0.227651 -1.740330
    16 1.099669 -0.000002 0.000003 0.041841 0.000345 0.020621
    17 1.059570 -0.399170 0.976074 -0.890963 -0.413269 -0.844207
    18 1.789782 0.000000 -0.000008 -0.000002 -0.000001 0.228524
    19 1.207001 -0.000001 -0.000002 0.000002 -0.000001 1.337483
    20 11.483368 -0.000009 -0.000003 0.076358 -0.087991 0.047815
    21 -1.258789 -10.187500 -8.492188 -1.668474 1.286518 2.942953
    22 6.028141 0.000000 -0.000002 0.955619 0.948396 -1.557045
    23 11.692554 0.000000 0.000000 -0.000002 0.000000 -0.814615
    24 11.481701 -0.000001 -0.000008 -1.347521 0.409827 0.252327
    25 3.859676 -0.132542 1.193109 0.478506 -0.074931 -1.387014
    26 1.355469 -0.055237 -0.060089 0.113538 -0.237904 -1.057200
    27 0.729366 0.000006 0.000000 0.367706 -0.351829 -1.258322
    28 3.942295 0.050347 0.431044 0.178398 -0.020202 -1.240069
    29 1.539097 -0.000004 0.000001 0.021877 -0.140914 -1.231768
    30 1.196323 0.000000 -0.000003 0.111314 -0.166180 -1.525207
    31 3.896484 -0.115356 -0.178345 -0.080588 0.020284 -1.147277
    32 1.571143 0.050783 -0.023432 -0.066512 0.021187 -1.315478
    33 1.209185 0.000002 0.000006 -0.115337 -0.023773 -1.224252
    34 3.461383 0.081556 -1.030492 0.011993 0.323672 -0.127244
    35 1.645204 -0.007807 0.093762 0.013737 -0.121867 -1.207323
    36 1.099663 0.000006 0.000008 0.006608 0.088345 -0.491051
    37 1.455078 -0.658691 -0.801270 1.269778 0.438823 -0.604310
    38 1.789785 -0.000010 -0.000008 0.217297 -0.065779 0.620771
    39 1.207003 -0.000002 -0.000004 0.144487 -0.180544 0.605305
    40 11.481699 0.000084 0.000002 0.034022 0.065517 0.031147
    41 -6.397965 -12.869091 -4.953654 1.570796 0.000000 -0.000060
    42 0.000000 1.269531 -2.767578 -1.572902 0.000000 0.000000
    43 0.105469 1.031250 7.941406 -1.572902 0.000000 0.000000
    44 0.000000 -1.156824 1.353456 -0.396364 0.000000 0.000000
    45 0.000000 -0.641789 5.774651 -3.003031 0.000000 0.000000
    46 -6.401822 -11.603310 -9.047225 1.872557 0.002745 -0.000875
end
