// Created by Crowbar++ 0.74
version 1
nodes
  0 "ValveBiped.Bip01_Spine4" -1
  1 "ValveBiped.Bip01_L_Clavicle" 0
  2 "ValveBiped.Bip01_L_UpperArm" 1
  3 "ValveBiped.Bip01_L_Forearm" 2
  4 "ValveBiped.Bip01_L_Hand" 3
  5 "ValveBiped.Bip01_L_Finger4" 4
  6 "ValveBiped.Bip01_L_Finger41" 5
  7 "ValveBiped.Bip01_L_Finger42" 6
  8 "ValveBiped.Bip01_L_Finger3" 4
  9 "ValveBiped.Bip01_L_Finger31" 8
  10 "ValveBiped.Bip01_L_Finger32" 9
  11 "ValveBiped.Bip01_L_Finger2" 4
  12 "ValveBiped.Bip01_L_Finger21" 11
  13 "ValveBiped.Bip01_L_Finger22" 12
  14 "ValveBiped.Bip01_L_Finger1" 4
  15 "ValveBiped.Bip01_L_Finger11" 14
  16 "ValveBiped.Bip01_L_Finger12" 15
  17 "ValveBiped.Bip01_L_Finger0" 4
  18 "ValveBiped.Bip01_L_Finger01" 17
  19 "ValveBiped.Bip01_L_Finger02" 18
  20 "ValveBiped.Bip01_L_Wrist" 3
  21 "ValveBiped.Bip01_R_Clavicle" 0
  22 "ValveBiped.Bip01_R_UpperArm" 21
  23 "ValveBiped.Bip01_R_Forearm" 22
  24 "ValveBiped.Bip01_R_Hand" 23
  25 "ValveBiped.Bip01_R_Finger4" 24
  26 "ValveBiped.Bip01_R_Finger41" 25
  27 "ValveBiped.Bip01_R_Finger42" 26
  28 "ValveBiped.Bip01_R_Finger3" 24
  29 "ValveBiped.Bip01_R_Finger31" 28
  30 "ValveBiped.Bip01_R_Finger32" 29
  31 "ValveBiped.Bip01_R_Finger2" 24
  32 "ValveBiped.Bip01_R_Finger21" 31
  33 "ValveBiped.Bip01_R_Finger22" 32
  34 "ValveBiped.Bip01_R_Finger1" 24
  35 "ValveBiped.Bip01_R_Finger11" 34
  36 "ValveBiped.Bip01_R_Finger12" 35
  37 "ValveBiped.Bip01_R_Finger0" 24
  38 "ValveBiped.Bip01_R_Finger01" 37
  39 "ValveBiped.Bip01_R_Finger02" 38
  40 "ValveBiped.Bip01_R_Wrist" 23
  41 "gun" -1
  42 "stockslide" 41
  43 "barrel" 41
  44 "trigger" 41
  45 "foregrip" 41
  46 "magazine" -1
end
skeleton
  time 0
    0 0.000000 -0.000006 0.000000 -1.570781 -1.391896 -1.570809
    1 2.724609 1.125977 5.511719 1.596636 -1.286515 2.942963
    2 6.028145 0.000003 0.000002 -1.768274 0.387481 -0.803507
    3 11.692553 0.000081 -0.000005 -0.000015 0.000022 -0.736018
    4 11.482164 -0.000068 -0.000024 1.748292 -0.250033 0.328456
    5 3.859701 -0.142416 -1.191975 -0.468129 0.151538 -0.880198
    6 1.312563 -0.000011 0.000004 0.000000 -0.000003 -0.439723
    7 0.729367 -0.000006 0.000001 0.000001 -0.000003 -0.244304
    8 3.942327 0.046755 -0.431444 -0.151780 0.073202 -0.810991
    9 1.539095 0.000004 -0.000006 -0.000002 0.000006 -0.247791
    10 1.196322 -0.000006 0.000003 0.000001 -0.000007 -0.430811
    11 3.883692 -0.046782 0.431443 0.085902 0.021835 -0.587865
    12 1.719582 -0.000010 0.000009 0.000002 0.005514 -0.366480
    13 1.209179 -0.000010 0.000004 0.000000 0.003091 -0.216394
    14 3.859854 -0.137961 1.332467 0.354450 -0.042751 -0.531725
    15 1.719435 0.000000 -0.000006 -0.000004 0.004079 -0.363004
    16 1.099669 -0.000002 0.000003 0.000005 0.002595 -0.244332
    17 0.806044 -0.348929 1.321259 -1.222684 -0.679216 -0.788820
    18 1.789782 0.000000 -0.000008 -0.000002 -0.000001 0.228524
    19 1.207001 -0.000001 -0.000002 0.000002 -0.000001 0.362862
    20 11.483368 -0.000009 -0.000003 0.039949 -0.023030 0.062400
    21 -1.258789 -10.187500 -8.492188 -1.668474 1.286518 2.942953
    22 6.028141 0.000000 -0.000002 0.955619 0.948396 -1.557045
    23 11.692554 0.000000 0.000000 -0.000002 0.000000 -0.814615
    24 11.481701 -0.000001 -0.000008 -1.347521 0.409827 0.252327
    25 3.859676 -0.132542 1.193109 0.478506 -0.074931 -1.387014
    26 1.355533 -0.054689 -0.058596 0.113532 -0.237893 -1.057202
    27 0.729366 0.000006 0.000000 0.367706 -0.351829 -1.258322
    28 3.942295 0.050347 0.431044 0.178398 -0.020202 -1.240069
    29 1.539097 -0.000004 0.000001 0.023460 -0.141179 -1.241864
    30 1.196323 0.000000 -0.000003 0.111314 -0.166180 -1.525207
    31 3.896484 -0.115356 -0.178345 -0.080588 0.020284 -1.147277
    32 1.571143 0.050783 -0.023432 -0.066512 0.021187 -1.315478
    33 1.209185 0.000002 0.000006 -0.115337 -0.023773 -1.224252
    34 3.461383 0.081556 -1.030492 0.011993 0.323672 -0.127244
    35 1.645204 -0.007807 0.093762 0.013737 -0.121867 -1.207323
    36 1.099663 0.000006 0.000008 0.006608 0.088345 -0.491051
    37 1.455078 -0.658691 -0.801270 1.269778 0.438823 -0.604310
    38 1.789785 -0.000010 -0.000008 0.217297 -0.065779 0.620771
    39 1.207003 -0.000002 -0.000004 0.144487 -0.180544 0.605305
    40 11.481699 0.000084 0.000002 0.034022 0.065517 0.031147
    41 -6.397965 -12.869091 -4.953654 1.570796 0.000000 -0.000060
    42 0.000000 1.274668 -0.431855 -1.572902 0.000000 0.000000
    43 0.105493 1.028518 6.618597 -1.572902 0.000000 0.000000
    44 0.000000 -1.156824 1.353456 -0.396364 0.000000 0.000000
    45 0.000000 -0.641789 5.774651 -1.572901 0.000000 0.000000
    46 -6.401822 -11.603310 -9.047225 1.872557 0.002745 -0.000875
  time 1
    0 0.000000 -0.000006 0.000000 -1.570781 -1.391896 -1.570809
    1 2.724609 1.125977 5.511719 1.596636 -1.286515 2.942963
    2 6.028145 0.000003 0.000002 -1.768274 0.386948 -0.803310
    3 11.692553 0.000081 -0.000005 -0.000015 0.000022 -0.735309
    4 11.482164 -0.000068 -0.000024 1.748480 -0.250033 0.328121
    5 3.859701 -0.142416 -1.191975 -0.468129 0.151538 -0.880198
    6 1.312563 -0.000011 0.000004 0.000000 -0.000003 -0.439723
    7 0.729367 -0.000006 0.000001 0.000001 -0.000003 -0.244304
    8 3.942327 0.046755 -0.431444 -0.151780 0.073202 -0.810991
    9 1.539095 0.000004 -0.000006 -0.000002 0.000006 -0.247791
    10 1.196322 -0.000006 0.000003 0.000001 -0.000007 -0.430811
    11 3.883692 -0.046782 0.431443 0.085902 0.021835 -0.587865
    12 1.719582 -0.000010 0.000009 0.000002 0.005514 -0.366480
    13 1.209179 -0.000010 0.000004 0.000000 0.003091 -0.216394
    14 3.859854 -0.137961 1.332467 0.354450 -0.042751 -0.531725
    15 1.719435 0.000000 -0.000006 -0.000004 0.004079 -0.363004
    16 1.099669 -0.000002 0.000003 0.000005 0.002595 -0.244332
    17 0.806044 -0.348929 1.321259 -1.222684 -0.679216 -0.788820
    18 1.789782 0.000000 -0.000008 -0.000002 -0.000001 0.228524
    19 1.207001 -0.000001 -0.000002 0.000002 -0.000001 0.362862
    20 11.483368 -0.000009 -0.000003 0.039973 -0.023030 0.062328
    21 -1.258789 -10.187500 -8.492188 -1.668474 1.286518 2.942953
    22 6.028141 0.000000 -0.000002 0.978451 0.879366 -1.506544
    23 11.692554 0.000000 0.000000 -0.000002 0.000000 -0.862220
    24 11.481701 -0.000001 -0.000008 -1.380293 0.445491 0.096569
    25 3.859676 -0.132542 1.193109 0.478506 -0.074931 -1.386999
    26 1.355533 -0.054689 -0.058596 0.113532 -0.237905 -1.057202
    27 0.729366 0.000006 0.000000 0.367706 -0.351829 -1.258322
    28 3.942295 0.050347 0.431044 0.178398 -0.020202 -1.240069
    29 1.539097 -0.000004 0.000001 0.023460 -0.141179 -1.241864
    30 1.196323 0.000000 -0.000003 0.111314 -0.166180 -1.525207
    31 3.896484 -0.115356 -0.178345 -0.080588 0.020284 -1.147277
    32 1.571143 0.050783 -0.023432 -0.066512 0.021187 -1.315478
    33 1.209185 0.000002 0.000006 -0.115337 -0.023773 -1.224252
    34 3.461383 0.081556 -1.030492 0.032571 0.350063 -0.103192
    35 1.645204 -0.007807 0.093762 0.072450 -0.079381 -1.790271
    36 1.099663 0.000006 0.000008 0.005253 0.088201 -0.466650
    37 1.455078 -0.658691 -0.801270 1.269778 0.438823 -0.604310
    38 1.789785 -0.000010 -0.000008 0.217297 -0.065779 0.620771
    39 1.207003 -0.000002 -0.000004 0.144487 -0.180544 0.605305
    40 11.481699 0.000084 0.000002 0.031061 0.069903 0.001317
    41 -6.394059 -12.009690 -5.520077 1.450379 -0.009788 0.001925
    42 0.000000 1.274668 -0.670144 -1.572902 0.000000 0.000000
    43 0.105493 1.028518 6.618597 -1.572902 0.000000 0.000000
    44 0.000000 -1.180262 0.935475 -0.062222 0.000000 0.000000
    45 0.000000 -0.641789 5.774651 -1.572901 0.000000 0.000000
    46 -6.358852 -11.243924 -9.738652 1.752135 -0.007159 0.000794
  time 2
    0 0.000000 -0.000006 0.000000 -1.570781 -1.391896 -1.570809
    1 2.724609 1.125977 5.511719 1.596636 -1.286515 2.942963
    2 6.028145 0.000003 0.000002 -1.768344 0.386475 -0.803179
    3 11.692553 0.000081 -0.000005 -0.000003 0.000022 -0.734729
    4 11.482164 -0.000068 -0.000024 1.748667 -0.250033 0.327841
    5 3.859701 -0.142416 -1.191975 -0.468129 0.151538 -0.880198
    6 1.312563 -0.000011 0.000004 0.000000 -0.000003 -0.439723
    7 0.729367 -0.000006 0.000001 0.000001 -0.000003 -0.244304
    8 3.942327 0.046755 -0.431444 -0.151780 0.073202 -0.810991
    9 1.539095 0.000004 -0.000006 -0.000002 0.000006 -0.247791
    10 1.196322 -0.000006 0.000003 0.000001 -0.000007 -0.430811
    11 3.883692 -0.046782 0.431443 0.085902 0.021835 -0.587865
    12 1.719582 -0.000010 0.000009 0.000002 0.005514 -0.366480
    13 1.209179 -0.000010 0.000004 0.000000 0.003091 -0.216394
    14 3.859854 -0.137961 1.332467 0.354450 -0.042751 -0.531725
    15 1.719435 0.000000 -0.000006 -0.000004 0.004079 -0.363004
    16 1.099669 -0.000002 0.000003 0.000005 0.002595 -0.244332
    17 0.806044 -0.348929 1.321259 -1.222684 -0.679216 -0.788820
    18 1.789782 0.000000 -0.000008 -0.000002 -0.000001 0.228524
    19 1.207001 -0.000001 -0.000002 0.000002 -0.000001 0.362862
    20 11.483368 -0.000009 -0.000003 0.039997 -0.023030 0.062280
    21 -1.258789 -10.187500 -8.492188 -1.668474 1.286518 2.942953
    22 6.028141 0.000000 -0.000002 0.984890 0.820828 -1.472018
    23 11.692554 0.000000 0.000000 -0.000002 0.000000 -0.887326
    24 11.481701 -0.000001 -0.000008 -1.420639 0.482951 -0.072058
    25 3.859676 -0.132542 1.193109 0.478506 -0.074931 -1.386999
    26 1.355533 -0.054689 -0.058596 0.113532 -0.237893 -1.057202
    27 0.729366 0.000006 0.000000 0.367706 -0.351829 -1.258322
    28 3.942295 0.050347 0.431044 0.178398 -0.020202 -1.240069
    29 1.539097 -0.000004 0.000001 0.023460 -0.141179 -1.241864
    30 1.196323 0.000000 -0.000003 0.111314 -0.166180 -1.525207
    31 3.896484 -0.115356 -0.178345 -0.080588 0.020284 -1.147277
    32 1.571143 0.050783 -0.023432 -0.066512 0.021187 -1.315478
    33 1.209185 0.000002 0.000006 -0.115337 -0.023773 -1.224252
    34 3.461383 0.081556 -1.030492 0.031833 0.349152 -0.104031
    35 1.645204 -0.007807 0.093762 0.070892 -0.081383 -1.770193
    36 1.099663 0.000006 0.000008 0.005301 0.088201 -0.467500
    37 1.455078 -0.658691 -0.801270 1.269778 0.438823 -0.604310
    38 1.789785 -0.000010 -0.000008 0.217297 -0.065779 0.620771
    39 1.207003 -0.000002 -0.000004 0.144487 -0.180544 0.605305
    40 11.481699 0.000084 0.000002 0.027873 0.075248 -0.030334
    41 -6.390153 -11.146382 -6.090407 1.329890 -0.022330 0.005420
    42 0.000000 1.274668 -1.197504 -1.572902 0.000000 0.000000
    43 0.105493 1.028518 6.618597 -1.572902 0.000000 0.000000
    44 0.000000 -1.180262 0.943288 -0.069976 0.000000 0.000000
    45 0.000000 -0.641789 5.774651 -1.572901 0.000000 0.000000
    46 -6.300256 -10.896257 -10.367578 1.631665 -0.019864 0.003973
  time 3
    0 0.000000 -0.000006 0.000000 -1.570781 -1.391896 -1.570809
    1 2.724609 1.125977 5.511719 1.596636 -1.286515 2.942963
    2 6.028145 0.000003 0.000002 -1.768344 0.386504 -0.803179
    3 11.692553 0.000081 -0.000005 -0.000015 0.000022 -0.734793
    4 11.482164 -0.000068 -0.000024 1.748667 -0.250033 0.327841
    5 3.859701 -0.142416 -1.191975 -0.468129 0.151538 -0.880198
    6 1.312563 -0.000011 0.000004 0.000000 -0.000003 -0.439723
    7 0.729367 -0.000006 0.000001 0.000001 -0.000003 -0.244304
    8 3.942327 0.046755 -0.431444 -0.151780 0.073202 -0.810991
    9 1.539095 0.000004 -0.000006 -0.000002 0.000006 -0.247791
    10 1.196322 -0.000006 0.000003 0.000001 -0.000007 -0.430811
    11 3.883692 -0.046782 0.431443 0.085902 0.021835 -0.587865
    12 1.719582 -0.000010 0.000009 0.000002 0.005514 -0.366480
    13 1.209179 -0.000010 0.000004 0.000000 0.003091 -0.216394
    14 3.859854 -0.137961 1.332467 0.354450 -0.042751 -0.531725
    15 1.719435 0.000000 -0.000006 -0.000004 0.004079 -0.363004
    16 1.099669 -0.000002 0.000003 0.000005 0.002595 -0.244332
    17 0.806044 -0.348929 1.321259 -1.222684 -0.679216 -0.788820
    18 1.789782 0.000000 -0.000008 -0.000002 -0.000001 0.228524
    19 1.207001 -0.000001 -0.000002 0.000002 -0.000001 0.362862
    20 11.483368 -0.000009 -0.000003 0.040009 -0.023018 0.062280
    21 -1.258789 -10.187500 -8.492188 -1.668474 1.286518 2.942953
    22 6.028141 0.000000 -0.000002 0.984090 0.820469 -1.472350
    23 11.692554 0.000000 0.000000 -0.000002 0.000000 -0.890294
    24 11.481701 -0.000001 -0.000008 -1.410966 0.483443 -0.059759
    25 3.859676 -0.132542 1.193109 0.478506 -0.074931 -1.386999
    26 1.355533 -0.054689 -0.058596 0.113532 -0.237893 -1.057202
    27 0.729366 0.000006 0.000000 0.367706 -0.351829 -1.258322
    28 3.942295 0.050347 0.431044 0.178398 -0.020202 -1.240069
    29 1.539097 -0.000004 0.000001 0.023460 -0.141179 -1.241864
    30 1.196323 0.000000 -0.000003 0.111314 -0.166180 -1.525207
    31 3.896484 -0.115356 -0.178345 -0.080588 0.020284 -1.147277
    32 1.571143 0.050783 -0.023432 -0.066512 0.021187 -1.315507
    33 1.209185 0.000002 0.000006 -0.115337 -0.023773 -1.224252
    34 3.461383 0.081556 -1.030492 0.030657 0.347678 -0.105406
    35 1.645204 -0.007807 0.093762 0.068303 -0.084535 -1.737874
    36 1.099663 0.000006 0.000008 0.005373 0.088213 -0.468881
    37 1.455078 -0.658691 -0.801270 1.269778 0.438823 -0.604310
    38 1.789785 -0.000010 -0.000008 0.217297 -0.065779 0.620771
    39 1.207003 -0.000002 -0.000004 0.144487 -0.180544 0.605305
    40 11.481699 0.000084 0.000002 0.029336 0.075476 -0.028417
    41 -6.390153 -11.162008 -6.082595 1.338113 -0.027839 0.005897
    42 0.000000 1.274668 -1.724863 -1.572902 0.000000 0.000000
    43 0.105493 1.028518 6.618597 -1.572902 0.000000 0.000000
    44 0.000000 -1.180262 0.970632 -0.091248 0.000000 0.000000
    45 0.000000 -0.641789 5.774651 -1.572901 0.000000 0.000000
    46 -6.276818 -10.872819 -10.355859 1.639908 -0.025379 0.004450
  time 4
    0 0.000000 -0.000006 0.000000 -1.570781 -1.391896 -1.570809
    1 2.724609 1.125977 5.511719 1.596636 -1.286515 2.942963
    2 6.028145 0.000003 0.000002 -1.768413 0.386593 -0.803179
    3 11.692553 0.000081 -0.000005 -0.000015 0.000022 -0.734857
    4 11.482164 -0.000068 -0.000024 1.748667 -0.250033 0.327841
    5 3.859701 -0.142416 -1.191975 -0.468129 0.151538 -0.880198
    6 1.312563 -0.000011 0.000004 0.000000 -0.000003 -0.439723
    7 0.729367 -0.000006 0.000001 0.000001 -0.000003 -0.244304
    8 3.942327 0.046755 -0.431444 -0.151780 0.073202 -0.810991
    9 1.539095 0.000004 -0.000006 -0.000002 0.000006 -0.247791
    10 1.196322 -0.000006 0.000003 0.000001 -0.000007 -0.430811
    11 3.883692 -0.046782 0.431443 0.085902 0.021835 -0.587865
    12 1.719582 -0.000010 0.000009 0.000002 0.005514 -0.366480
    13 1.209179 -0.000010 0.000004 0.000000 0.003091 -0.216394
    14 3.859854 -0.137961 1.332467 0.354450 -0.042751 -0.531725
    15 1.719435 0.000000 -0.000006 -0.000004 0.004079 -0.363004
    16 1.099669 -0.000002 0.000003 0.000005 0.002595 -0.244332
    17 0.806044 -0.348929 1.321259 -1.222684 -0.679216 -0.788820
    18 1.789782 0.000000 -0.000008 -0.000002 -0.000001 0.228524
    19 1.207001 -0.000001 -0.000002 0.000002 -0.000001 0.362862
    20 11.483368 -0.000009 -0.000003 0.040009 -0.023018 0.062280
    21 -1.258789 -10.187500 -8.492188 -1.668474 1.286518 2.942953
    22 6.028141 0.000000 -0.000002 0.984542 0.819319 -1.471437
    23 11.692554 0.000000 0.000000 -0.000002 0.000000 -0.900642
    24 11.481701 -0.000001 -0.000008 -1.395750 0.481696 -0.025782
    25 3.859676 -0.132542 1.193109 0.478506 -0.074931 -1.386999
    26 1.355533 -0.054689 -0.058596 0.113532 -0.237893 -1.057202
    27 0.729366 0.000006 0.000000 0.367706 -0.351829 -1.258322
    28 3.942295 0.050347 0.431044 0.178398 -0.020202 -1.240069
    29 1.539097 -0.000004 0.000001 0.023460 -0.141179 -1.241864
    30 1.196323 0.000000 -0.000003 0.111314 -0.166180 -1.525207
    31 3.896484 -0.115356 -0.178345 -0.080588 0.020284 -1.147277
    32 1.571143 0.050783 -0.023432 -0.066512 0.021187 -1.315478
    33 1.209185 0.000002 0.000006 -0.115337 -0.023773 -1.224252
    34 3.461383 0.081556 -1.030492 0.029360 0.346060 -0.106916
    35 1.645204 -0.007807 0.093762 0.065319 -0.087914 -1.702217
    36 1.099663 0.000006 0.000008 0.005457 0.088213 -0.470387
    37 1.455078 -0.658691 -0.801270 1.269778 0.438823 -0.604310
    38 1.789785 -0.000010 -0.000008 0.217297 -0.065779 0.620771
    39 1.207003 -0.000002 -0.000004 0.144487 -0.180544 0.605305
    40 11.481699 0.000084 0.000002 0.031217 0.075524 -0.022496
    41 -6.390153 -11.197165 -6.059156 1.360198 -0.032235 0.005817
    42 0.000000 1.274668 -1.963152 -1.572902 0.000000 0.000000
    43 0.105493 1.028518 6.618597 -1.572902 0.000000 0.000000
    44 0.000000 -1.176356 1.009696 -0.123079 0.000000 0.000000
    45 0.000000 -0.641789 5.774651 -1.572901 0.000000 0.000000
    46 -6.261192 -10.814223 -10.324608 1.662004 -0.029711 0.004450
  time 5
    0 0.000000 -0.000006 0.000000 -1.570781 -1.391896 -1.570809
    1 2.724609 1.125977 5.511719 1.596636 -1.286515 2.942963
    2 6.028145 0.000003 0.000002 -1.768413 0.386741 -0.803245
    3 11.692553 0.000081 -0.000005 -0.000003 0.000022 -0.734922
    4 11.482164 -0.000068 -0.000024 1.748667 -0.250033 0.327841
    5 3.859701 -0.142416 -1.191975 -0.468129 0.151538 -0.880198
    6 1.312563 -0.000011 0.000004 0.000000 -0.000003 -0.439723
    7 0.729367 -0.000006 0.000001 0.000001 -0.000003 -0.244304
    8 3.942327 0.046755 -0.431444 -0.151780 0.073202 -0.810991
    9 1.539095 0.000004 -0.000006 -0.000002 0.000006 -0.247791
    10 1.196322 -0.000006 0.000003 0.000001 -0.000007 -0.430811
    11 3.883692 -0.046782 0.431443 0.085902 0.021835 -0.587865
    12 1.719582 -0.000010 0.000009 0.000002 0.005514 -0.366480
    13 1.209179 -0.000010 0.000004 0.000000 0.003091 -0.216394
    14 3.859854 -0.137961 1.332467 0.354450 -0.042751 -0.531725
    15 1.719435 0.000000 -0.000006 -0.000004 0.004079 -0.363004
    16 1.099669 -0.000002 0.000003 0.000005 0.002595 -0.244332
    17 0.806044 -0.348929 1.321259 -1.222684 -0.679216 -0.788820
    18 1.789782 0.000000 -0.000008 -0.000002 -0.000001 0.228524
    19 1.207001 -0.000001 -0.000002 0.000002 -0.000001 0.362862
    20 11.483368 -0.000009 -0.000003 0.039997 -0.023018 0.062292
    21 -1.258789 -10.187500 -8.492188 -1.668474 1.286518 2.942953
    22 6.028141 0.000000 -0.000002 0.985691 0.818241 -1.470151
    23 11.692554 0.000000 0.000000 -0.000002 0.000000 -0.915320
    24 11.481701 -0.000001 -0.000008 -1.376851 0.477709 0.023439
    25 3.859676 -0.132542 1.193109 0.478506 -0.074931 -1.386999
    26 1.355533 -0.054689 -0.058596 0.113532 -0.237893 -1.057202
    27 0.729366 0.000006 0.000000 0.367706 -0.351829 -1.258322
    28 3.942295 0.050347 0.431044 0.178398 -0.020202 -1.240069
    29 1.539097 -0.000004 0.000001 0.023460 -0.141179 -1.241864
    30 1.196323 0.000000 -0.000003 0.111314 -0.166180 -1.525207
    31 3.896484 -0.115356 -0.178345 -0.080588 0.020284 -1.147277
    32 1.571143 0.050783 -0.023432 -0.066512 0.021187 -1.315478
    33 1.209185 0.000002 0.000006 -0.115337 -0.023773 -1.224252
    34 3.461383 0.081556 -1.030492 0.028034 0.344382 -0.108459
    35 1.645204 -0.007807 0.093762 0.062107 -0.091306 -1.665205
    36 1.099663 0.000006 0.000008 0.005541 0.088225 -0.471934
    37 1.455078 -0.658691 -0.801270 1.269778 0.438823 -0.604310
    38 1.789785 -0.000010 -0.000008 0.217297 -0.065779 0.620771
    39 1.207003 -0.000002 -0.000004 0.144487 -0.180544 0.605305
    40 11.481699 0.000084 0.000002 0.033362 0.075428 -0.013723
    41 -6.394059 -11.251854 -6.020093 1.392226 -0.035576 0.005182
    42 0.000000 1.274668 -1.877212 -1.572902 0.000000 0.000000
    43 0.105493 1.028518 6.618597 -1.572902 0.000000 0.000000
    44 0.000000 -1.172450 1.060479 -0.162509 0.000000 0.000000
    45 0.000000 -0.641789 5.774651 -1.572901 0.000000 0.000000
    46 -6.249473 -10.732189 -10.273825 1.694045 -0.033031 0.003893
  time 6
    0 0.000000 -0.000006 0.000000 -1.570781 -1.391896 -1.570809
    1 2.724609 1.125977 5.511719 1.596636 -1.286515 2.942963
    2 6.028145 0.000003 0.000002 -1.768413 0.386889 -0.803245
    3 11.692553 0.000081 -0.000005 -0.000003 0.000022 -0.735051
    4 11.482164 -0.000068 -0.000024 1.748573 -0.250033 0.327897
    5 3.859701 -0.142416 -1.191975 -0.468129 0.151538 -0.880198
    6 1.312563 -0.000011 0.000004 0.000000 -0.000003 -0.439723
    7 0.729367 -0.000006 0.000001 0.000001 -0.000003 -0.244304
    8 3.942327 0.046755 -0.431444 -0.151780 0.073202 -0.810991
    9 1.539095 0.000004 -0.000006 -0.000002 0.000006 -0.247791
    10 1.196322 -0.000006 0.000003 0.000001 -0.000007 -0.430811
    11 3.883692 -0.046782 0.431443 0.085902 0.021835 -0.587865
    12 1.719582 -0.000010 0.000009 0.000002 0.005514 -0.366480
    13 1.209179 -0.000010 0.000004 0.000000 0.003091 -0.216394
    14 3.859854 -0.137961 1.332467 0.354450 -0.042751 -0.531725
    15 1.719435 0.000000 -0.000006 -0.000004 0.004079 -0.363004
    16 1.099669 -0.000002 0.000003 0.000005 0.002595 -0.244332
    17 0.806044 -0.348929 1.321259 -1.222684 -0.679216 -0.788820
    18 1.789782 0.000000 -0.000008 -0.000002 -0.000001 0.228524
    19 1.207001 -0.000001 -0.000002 0.000002 -0.000001 0.362862
    20 11.483368 -0.000009 -0.000003 0.039997 -0.023018 0.062292
    21 -1.258789 -10.187500 -8.492188 -1.668474 1.286518 2.942953
    22 6.028141 0.000000 -0.000002 0.987048 0.818277 -1.469321
    23 11.692554 0.000000 0.000000 -0.000002 0.000000 -0.931242
    24 11.481701 -0.000001 -0.000008 -1.356505 0.471728 0.081444
    25 3.859676 -0.132542 1.193109 0.478506 -0.074931 -1.386999
    26 1.355533 -0.054689 -0.058596 0.113532 -0.237893 -1.057202
    27 0.729366 0.000006 0.000000 0.367706 -0.351829 -1.258322
    28 3.942295 0.050347 0.431044 0.178398 -0.020202 -1.240069
    29 1.539097 -0.000004 0.000001 0.023460 -0.141179 -1.241864
    30 1.196323 0.000000 -0.000003 0.111314 -0.166180 -1.525207
    31 3.896484 -0.115356 -0.178345 -0.080588 0.020284 -1.147277
    32 1.571143 0.050783 -0.023432 -0.066512 0.021187 -1.315478
    33 1.209185 0.000002 0.000006 -0.115337 -0.023773 -1.224252
    34 3.461383 0.081556 -1.030492 0.026707 0.342692 -0.110036
    35 1.645204 -0.007807 0.093762 0.058727 -0.094602 -1.627758
    36 1.099663 0.000006 0.000008 0.005637 0.088237 -0.473510
    37 1.455078 -0.658691 -0.801270 1.269778 0.438823 -0.604310
    38 1.789785 -0.000010 -0.000008 0.217297 -0.065779 0.620771
    39 1.207003 -0.000002 -0.000004 0.144487 -0.180544 0.605305
    40 11.481699 0.000084 0.000002 0.035568 0.075188 -0.003261
    41 -6.394059 -11.326075 -5.973216 1.430254 -0.038037 0.004229
    42 0.000000 1.274668 -1.658455 -1.572902 0.000000 0.000000
    43 0.105493 1.028518 6.618597 -1.572902 0.000000 0.000000
    44 0.000000 -1.168543 1.115168 -0.206528 0.000000 0.000000
    45 0.000000 -0.641789 5.774651 -1.572901 0.000000 0.000000
    46 -6.237754 -10.646249 -10.199604 1.732076 -0.035428 0.003099
  time 7
    0 0.000000 -0.000006 0.000000 -1.570781 -1.391896 -1.570809
    1 2.724609 1.125977 5.511719 1.596636 -1.286515 2.942963
    2 6.028145 0.000003 0.000002 -1.768413 0.387037 -0.803310
    3 11.692553 0.000081 -0.000005 -0.000003 0.000022 -0.735244
    4 11.482164 -0.000068 -0.000024 1.748573 -0.249996 0.327953
    5 3.859701 -0.142416 -1.191975 -0.468129 0.151538 -0.880198
    6 1.312563 -0.000011 0.000004 0.000000 -0.000003 -0.439723
    7 0.729367 -0.000006 0.000001 0.000001 -0.000003 -0.244304
    8 3.942327 0.046755 -0.431444 -0.151780 0.073202 -0.810991
    9 1.539095 0.000004 -0.000006 -0.000002 0.000006 -0.247791
    10 1.196322 -0.000006 0.000003 0.000001 -0.000007 -0.430811
    11 3.883692 -0.046782 0.431443 0.085902 0.021835 -0.587865
    12 1.719582 -0.000010 0.000009 0.000002 0.005514 -0.366480
    13 1.209179 -0.000010 0.000004 0.000000 0.003091 -0.216394
    14 3.859854 -0.137961 1.332467 0.354450 -0.042751 -0.531725
    15 1.719435 0.000000 -0.000006 -0.000004 0.004079 -0.363004
    16 1.099669 -0.000002 0.000003 0.000005 0.002595 -0.244332
    17 0.806044 -0.348929 1.321259 -1.222684 -0.679216 -0.788820
    18 1.789782 0.000000 -0.000008 -0.000002 -0.000001 0.228524
    19 1.207001 -0.000001 -0.000002 0.000002 -0.000001 0.362862
    20 11.483368 -0.000009 -0.000003 0.039985 -0.023018 0.062292
    21 -1.258789 -10.187500 -8.492188 -1.668474 1.286518 2.942953
    22 6.028141 0.000000 -0.000002 0.988162 0.820110 -1.469612
    23 11.692554 0.000000 0.000000 -0.000002 0.000000 -0.945640
    24 11.481701 -0.000001 -0.000008 -1.336642 0.464221 0.141777
    25 3.859676 -0.132542 1.193109 0.478506 -0.074931 -1.386999
    26 1.355533 -0.054689 -0.058596 0.113532 -0.237893 -1.057202
    27 0.729366 0.000006 0.000000 0.367706 -0.351829 -1.258322
    28 3.942295 0.050347 0.431044 0.178398 -0.020202 -1.240069
    29 1.539097 -0.000004 0.000001 0.023460 -0.141179 -1.241864
    30 1.196323 0.000000 -0.000003 0.111314 -0.166180 -1.525207
    31 3.896484 -0.115356 -0.178345 -0.080588 0.020284 -1.147277
    32 1.571143 0.050783 -0.023432 -0.066512 0.021187 -1.315478
    33 1.209185 0.000002 0.000006 -0.115337 -0.023773 -1.224252
    34 3.461383 0.081556 -1.030492 0.025380 0.341014 -0.111579
    35 1.645204 -0.007807 0.093762 0.055240 -0.097766 -1.590407
    36 1.099663 0.000006 0.000008 0.005721 0.088249 -0.475058
    37 1.455078 -0.658691 -0.801270 1.269778 0.438823 -0.604310
    38 1.789785 -0.000010 -0.000008 0.217297 -0.065779 0.620771
    39 1.207003 -0.000002 -0.000004 0.144487 -0.180544 0.605305
    40 11.481699 0.000084 0.000002 0.037689 0.074841 0.007729
    41 -6.394059 -11.415922 -5.910714 1.470313 -0.039678 0.003117
    42 0.000000 1.274668 -1.361571 -1.572902 0.000000 0.000000
    43 0.105493 1.028518 6.618597 -1.572902 0.000000 0.000000
    44 0.000000 -1.164637 1.173764 -0.252070 0.000000 0.000000
    45 0.000000 -0.641789 5.774651 -1.572901 0.000000 0.000000
    46 -6.233848 -10.568122 -10.109757 1.772121 -0.037045 0.001986
  time 8
    0 0.000000 -0.000006 0.000000 -1.570781 -1.391896 -1.570809
    1 2.724609 1.125977 5.511719 1.596636 -1.286515 2.942963
    2 6.028145 0.000003 0.000002 -1.768483 0.387185 -0.803310
    3 11.692553 0.000081 -0.000005 -0.000015 0.000022 -0.735373
    4 11.482164 -0.000068 -0.000024 1.748573 -0.249996 0.327953
    5 3.859701 -0.142416 -1.191975 -0.468129 0.151538 -0.880198
    6 1.312563 -0.000011 0.000004 0.000000 -0.000003 -0.439723
    7 0.729367 -0.000006 0.000001 0.000001 -0.000003 -0.244304
    8 3.942327 0.046755 -0.431444 -0.151780 0.073202 -0.810991
    9 1.539095 0.000004 -0.000006 -0.000002 0.000006 -0.247791
    10 1.196322 -0.000006 0.000003 0.000001 -0.000007 -0.430811
    11 3.883692 -0.046782 0.431443 0.085902 0.021835 -0.587865
    12 1.719582 -0.000010 0.000009 0.000002 0.005514 -0.366480
    13 1.209179 -0.000010 0.000004 0.000000 0.003091 -0.216394
    14 3.859854 -0.137961 1.332467 0.354450 -0.042751 -0.531725
    15 1.719435 0.000000 -0.000006 -0.000004 0.004079 -0.363004
    16 1.099669 -0.000002 0.000003 0.000005 0.002595 -0.244332
    17 0.806044 -0.348929 1.321259 -1.222684 -0.679216 -0.788820
    18 1.789782 0.000000 -0.000008 -0.000002 -0.000001 0.228524
    19 1.207001 -0.000001 -0.000002 0.000002 -0.000001 0.362862
    20 11.483368 -0.000009 -0.000003 0.039973 -0.023018 0.062304
    21 -1.258789 -10.187500 -8.492188 -1.668474 1.286518 2.942953
    22 6.028141 0.000000 -0.000002 0.988614 0.824206 -1.471479
    23 11.692554 0.000000 0.000000 -0.000002 0.000000 -0.956228
    24 11.481701 -0.000001 -0.000008 -1.319120 0.455951 0.198192
    25 3.859676 -0.132542 1.193109 0.478506 -0.074931 -1.386999
    26 1.355533 -0.054689 -0.058596 0.113532 -0.237893 -1.057202
    27 0.729366 0.000006 0.000000 0.367706 -0.351829 -1.258322
    28 3.942295 0.050347 0.431044 0.178398 -0.020202 -1.240069
    29 1.539097 -0.000004 0.000001 0.023460 -0.141179 -1.241864
    30 1.196323 0.000000 -0.000003 0.111314 -0.166180 -1.525207
    31 3.896484 -0.115356 -0.178345 -0.080588 0.020284 -1.147277
    32 1.571143 0.050783 -0.023432 -0.066512 0.021187 -1.315478
    33 1.209185 0.000002 0.000006 -0.115337 -0.023773 -1.224252
    34 3.461383 0.081556 -1.030492 0.024084 0.339360 -0.113088
    35 1.645204 -0.007807 0.093762 0.051681 -0.100762 -1.553589
    36 1.099663 0.000006 0.000008 0.005805 0.088249 -0.476591
    37 1.455078 -0.658691 -0.801270 1.269778 0.438823 -0.604310
    38 1.789785 -0.000010 -0.000008 0.217297 -0.065779 0.620771
    39 1.207003 -0.000002 -0.000004 0.144487 -0.180544 0.605305
    40 11.481699 0.000084 0.000002 0.039558 0.074397 0.018108
    41 -6.394059 -11.521394 -5.844306 1.508365 -0.040675 0.001925
    42 0.000000 1.274668 -1.033436 -1.572902 0.000000 0.000000
    43 0.105493 1.028518 6.618597 -1.572902 0.000000 0.000000
    44 0.000000 -1.164637 1.228453 -0.296077 0.000000 0.000000
    45 0.000000 -0.641789 5.774651 -1.572901 0.000000 0.000000
    46 -6.229941 -10.513433 -10.004285 1.810153 -0.037998 0.000953
  time 9
    0 0.000000 -0.000006 0.000000 -1.570781 -1.391896 -1.570809
    1 2.724609 1.125977 5.511719 1.596636 -1.286515 2.942963
    2 6.028145 0.000003 0.000002 -1.768483 0.387333 -0.803376
    3 11.692553 0.000081 -0.000005 -0.000015 0.000022 -0.735567
    4 11.482164 -0.000068 -0.000024 1.748480 -0.249996 0.328009
    5 3.859701 -0.142416 -1.191975 -0.468129 0.151538 -0.880198
    6 1.312563 -0.000011 0.000004 0.000000 -0.000003 -0.439723
    7 0.729367 -0.000006 0.000001 0.000001 -0.000003 -0.244304
    8 3.942327 0.046755 -0.431444 -0.151780 0.073202 -0.810991
    9 1.539095 0.000004 -0.000006 -0.000002 0.000006 -0.247791
    10 1.196322 -0.000006 0.000003 0.000001 -0.000007 -0.430811
    11 3.883692 -0.046782 0.431443 0.085902 0.021835 -0.587865
    12 1.719582 -0.000010 0.000009 0.000002 0.005514 -0.366480
    13 1.209179 -0.000010 0.000004 0.000000 0.003091 -0.216394
    14 3.859854 -0.137961 1.332467 0.354450 -0.042751 -0.531725
    15 1.719435 0.000000 -0.000006 -0.000004 0.004079 -0.363004
    16 1.099669 -0.000002 0.000003 0.000005 0.002595 -0.244332
    17 0.806044 -0.348929 1.321259 -1.222684 -0.679216 -0.788820
    18 1.789782 0.000000 -0.000008 -0.000002 -0.000001 0.228524
    19 1.207001 -0.000001 -0.000002 0.000002 -0.000001 0.362862
    20 11.483368 -0.000009 -0.000003 0.039973 -0.023018 0.062316
    21 -1.258789 -10.187500 -8.492188 -1.668474 1.286518 2.942953
    22 6.028141 0.000000 -0.000002 0.988266 0.830710 -1.475089
    23 11.692554 0.000000 0.000000 -0.000002 0.000000 -0.961081
    24 11.481701 -0.000001 -0.000008 -1.305488 0.447804 0.244658
    25 3.859676 -0.132542 1.193109 0.478506 -0.074931 -1.386999
    26 1.355533 -0.054689 -0.058596 0.113532 -0.237893 -1.057202
    27 0.729366 0.000006 0.000000 0.367706 -0.351829 -1.258322
    28 3.942295 0.050347 0.431044 0.178398 -0.020202 -1.240069
    29 1.539097 -0.000004 0.000001 0.023460 -0.141179 -1.241864
    30 1.196323 0.000000 -0.000003 0.111314 -0.166180 -1.525207
    31 3.896484 -0.115356 -0.178345 -0.080588 0.020284 -1.147277
    32 1.571143 0.050783 -0.023432 -0.066512 0.021187 -1.315478
    33 1.209185 0.000002 0.000006 -0.115337 -0.023773 -1.224252
    34 3.461383 0.081556 -1.030492 0.022802 0.337742 -0.114564
    35 1.645204 -0.007807 0.093762 0.048097 -0.103554 -1.517496
    36 1.099663 0.000006 0.000008 0.005888 0.088261 -0.478097
    37 1.455078 -0.658691 -0.801270 1.269778 0.438823 -0.604310
    38 1.789785 -0.000010 -0.000008 0.217297 -0.065779 0.620771
    39 1.207003 -0.000002 -0.000004 0.144487 -0.180544 0.605305
    40 11.481699 0.000084 0.000002 0.041033 0.073870 0.026761
    41 -6.394059 -11.634678 -5.770085 1.540441 -0.041173 0.000972
    42 0.000000 1.274668 -0.732646 -1.572902 0.000000 0.000000
    43 0.105493 1.028518 6.618597 -1.572902 0.000000 0.000000
    44 0.000000 -1.160730 1.279235 -0.335518 0.000000 0.000000
    45 0.000000 -0.641789 5.774651 -1.572901 0.000000 0.000000
    46 -6.229941 -10.489995 -9.894907 1.842242 -0.038460 -0.000001
  time 10
    0 0.000000 -0.000006 0.000000 -1.570781 -1.391896 -1.570809
    1 2.724609 1.125977 5.511719 1.596636 -1.286515 2.942963
    2 6.028145 0.000003 0.000002 -1.768483 0.387451 -0.803376
    3 11.692553 0.000081 -0.000005 -0.000003 0.000022 -0.735696
    4 11.482164 -0.000068 -0.000024 1.748480 -0.249996 0.328065
    5 3.859701 -0.142416 -1.191975 -0.468129 0.151538 -0.880198
    6 1.312563 -0.000011 0.000004 0.000000 -0.000003 -0.439723
    7 0.729367 -0.000006 0.000001 0.000001 -0.000003 -0.244304
    8 3.942327 0.046755 -0.431444 -0.151780 0.073202 -0.810991
    9 1.539095 0.000004 -0.000006 -0.000002 0.000006 -0.247791
    10 1.196322 -0.000006 0.000003 0.000001 -0.000007 -0.430811
    11 3.883692 -0.046782 0.431443 0.085902 0.021835 -0.587865
    12 1.719582 -0.000010 0.000009 0.000002 0.005514 -0.366480
    13 1.209179 -0.000010 0.000004 0.000000 0.003091 -0.216394
    14 3.859854 -0.137961 1.332467 0.354450 -0.042751 -0.531725
    15 1.719435 0.000000 -0.000006 -0.000004 0.004079 -0.363004
    16 1.099669 -0.000002 0.000003 0.000005 0.002595 -0.244332
    17 0.806044 -0.348929 1.321259 -1.222684 -0.679216 -0.788820
    18 1.789782 0.000000 -0.000008 -0.000002 -0.000001 0.228524
    19 1.207001 -0.000001 -0.000002 0.000002 -0.000001 0.362862
    20 11.483368 -0.000009 -0.000003 0.039973 -0.023018 0.062328
    21 -1.258789 -10.187500 -8.492188 -1.668474 1.286518 2.942953
    22 6.028141 0.000000 -0.000002 0.986944 0.839550 -1.480525
    23 11.692554 0.000000 0.000000 -0.000002 0.000000 -0.958635
    24 11.481701 -0.000001 -0.000008 -1.297019 0.440790 0.275359
    25 3.859676 -0.132542 1.193109 0.478506 -0.074931 -1.386999
    26 1.355533 -0.054689 -0.058596 0.113532 -0.237893 -1.057202
    27 0.729366 0.000006 0.000000 0.367706 -0.351829 -1.258322
    28 3.942295 0.050347 0.431044 0.178398 -0.020202 -1.240069
    29 1.539097 -0.000004 0.000001 0.023460 -0.141179 -1.241864
    30 1.196323 0.000000 -0.000003 0.111314 -0.166180 -1.525207
    31 3.896484 -0.115356 -0.178345 -0.080588 0.020284 -1.147277
    32 1.571143 0.050783 -0.023432 -0.066512 0.021187 -1.315507
    33 1.209185 0.000002 0.000006 -0.115337 -0.023773 -1.224252
    34 3.461383 0.081556 -1.030492 0.021581 0.336160 -0.116007
    35 1.645204 -0.007807 0.093762 0.044514 -0.106155 -1.482420
    36 1.099663 0.000006 0.000008 0.005972 0.088273 -0.479561
    37 1.455078 -0.658691 -0.801270 1.269778 0.438823 -0.604310
    38 1.789785 -0.000010 -0.000008 0.217297 -0.065779 0.620771
    39 1.207003 -0.000002 -0.000004 0.144487 -0.180544 0.605305
    40 11.481699 0.000084 0.000002 0.041991 0.073223 0.032549
    41 -6.394059 -11.751869 -5.688051 1.562550 -0.041349 0.000258
    42 0.000000 1.274668 -0.513889 -1.572902 0.000000 0.000000
    43 0.105493 1.028518 6.618597 -1.572902 0.000000 0.000000
    44 0.000000 -1.156824 1.318299 -0.367349 0.000000 0.000000
    45 0.000000 -0.641789 5.774651 -1.572901 0.000000 0.000000
    46 -6.229941 -10.521245 -9.789435 1.864361 -0.038604 -0.000636
  time 11
    0 0.000000 -0.000006 0.000000 -1.570781 -1.391896 -1.570809
    1 2.724609 1.125977 5.511719 1.596636 -1.286515 2.942963
    2 6.028145 0.000003 0.000002 -1.768483 0.387481 -0.803376
    3 11.692553 0.000081 -0.000005 -0.000015 0.000022 -0.735760
    4 11.482164 -0.000068 -0.000024 1.748480 -0.249996 0.328121
    5 3.859701 -0.142416 -1.191975 -0.468129 0.151538 -0.880198
    6 1.312563 -0.000011 0.000004 0.000000 -0.000003 -0.439723
    7 0.729367 -0.000006 0.000001 0.000001 -0.000003 -0.244304
    8 3.942327 0.046755 -0.431444 -0.151780 0.073202 -0.810991
    9 1.539095 0.000004 -0.000006 -0.000002 0.000006 -0.247791
    10 1.196322 -0.000006 0.000003 0.000001 -0.000007 -0.430811
    11 3.883692 -0.046782 0.431443 0.085902 0.021835 -0.587865
    12 1.719582 -0.000010 0.000009 0.000002 0.005514 -0.366480
    13 1.209179 -0.000010 0.000004 0.000000 0.003091 -0.216394
    14 3.859854 -0.137961 1.332467 0.354450 -0.042751 -0.531725
    15 1.719435 0.000000 -0.000006 -0.000004 0.004079 -0.363004
    16 1.099669 -0.000002 0.000003 0.000005 0.002595 -0.244332
    17 0.806044 -0.348929 1.321259 -1.222684 -0.679216 -0.788820
    18 1.789782 0.000000 -0.000008 -0.000002 -0.000001 0.228524
    19 1.207001 -0.000001 -0.000002 0.000002 -0.000001 0.362862
    20 11.483368 -0.000009 -0.000003 0.039973 -0.023018 0.062340
    21 -1.258789 -10.187500 -8.492188 -1.668474 1.286518 2.942953
    22 6.028141 0.000000 -0.000002 0.984542 0.850618 -1.487829
    23 11.692554 0.000000 0.000000 -0.000002 0.000000 -0.947285
    24 11.481701 -0.000001 -0.000008 -1.294781 0.435818 0.284358
    25 3.859676 -0.132542 1.193109 0.478506 -0.074931 -1.386999
    26 1.355533 -0.054689 -0.058596 0.113532 -0.237893 -1.057202
    27 0.729366 0.000006 0.000000 0.367706 -0.351829 -1.258322
    28 3.942295 0.050347 0.431044 0.178398 -0.020202 -1.240069
    29 1.539097 -0.000004 0.000001 0.023460 -0.141179 -1.241864
    30 1.196323 0.000000 -0.000003 0.111314 -0.166180 -1.525207
    31 3.896484 -0.115356 -0.178345 -0.080588 0.020284 -1.147277
    32 1.571143 0.050783 -0.023432 -0.066512 0.021187 -1.315478
    33 1.209185 0.000002 0.000006 -0.115337 -0.023773 -1.224252
    34 3.461383 0.081556 -1.030492 0.020390 0.334638 -0.117382
    35 1.645204 -0.007807 0.093762 0.040966 -0.108540 -1.448504
    36 1.099663 0.000006 0.000008 0.006044 0.088273 -0.480970
    37 1.455078 -0.658691 -0.801270 1.269778 0.438823 -0.604310
    38 1.789785 -0.000010 -0.000008 0.217297 -0.065779 0.620771
    39 1.207003 -0.000002 -0.000004 0.144487 -0.180544 0.605305
    40 11.481699 0.000084 0.000002 0.042339 0.072468 0.034347
    41 -6.394059 -11.880780 -5.606017 1.570796 -0.041349 -0.000060
    42 0.000000 1.274668 -0.431855 -1.572902 0.000000 0.000000
    43 0.105493 1.028518 6.618597 -1.572902 0.000000 0.000000
    44 0.000000 -1.156824 1.345644 -0.388622 0.000000 0.000000
    45 0.000000 -0.641789 5.774651 -1.572901 0.000000 0.000000
    46 -6.229941 -10.614998 -9.695682 1.872581 -0.038604 -0.000875
  time 12
    0 0.000000 -0.000006 0.000000 -1.570781 -1.391896 -1.570809
    1 2.724609 1.125977 5.511719 1.596636 -1.286515 2.942963
    2 6.028145 0.000003 0.000002 -1.768483 0.387481 -0.803376
    3 11.692553 0.000081 -0.000005 -0.000015 0.000022 -0.735825
    4 11.482164 -0.000068 -0.000024 1.748480 -0.249996 0.328177
    5 3.859701 -0.142416 -1.191975 -0.468129 0.151538 -0.880198
    6 1.312563 -0.000011 0.000004 0.000000 -0.000003 -0.439723
    7 0.729367 -0.000006 0.000001 0.000001 -0.000003 -0.244304
    8 3.942327 0.046755 -0.431444 -0.151780 0.073202 -0.810991
    9 1.539095 0.000004 -0.000006 -0.000002 0.000006 -0.247791
    10 1.196322 -0.000006 0.000003 0.000001 -0.000007 -0.430811
    11 3.883692 -0.046782 0.431443 0.085902 0.021835 -0.587865
    12 1.719582 -0.000010 0.000009 0.000002 0.005514 -0.366480
    13 1.209179 -0.000010 0.000004 0.000000 0.003091 -0.216394
    14 3.859854 -0.137961 1.332467 0.354450 -0.042751 -0.531725
    15 1.719435 0.000000 -0.000006 -0.000004 0.004079 -0.363004
    16 1.099669 -0.000002 0.000003 0.000005 0.002595 -0.244332
    17 0.806044 -0.348929 1.321259 -1.222684 -0.679216 -0.788820
    18 1.789782 0.000000 -0.000008 -0.000002 -0.000001 0.228524
    19 1.207001 -0.000001 -0.000002 0.000002 -0.000001 0.362862
    20 11.483368 -0.000009 -0.000003 0.039973 -0.023018 0.062340
    21 -1.258789 -10.187500 -8.492188 -1.668474 1.286518 2.942953
    22 6.028141 0.000000 -0.000002 0.981444 0.862944 -1.496169
    23 11.692554 0.000000 0.000000 -0.000002 0.000000 -0.930761
    24 11.481701 -0.000001 -0.000008 -1.297088 0.432126 0.280606
    25 3.859676 -0.132542 1.193109 0.478506 -0.074931 -1.386999
    26 1.355533 -0.054689 -0.058596 0.113532 -0.237893 -1.057202
    27 0.729366 0.000006 0.000000 0.367706 -0.351829 -1.258322
    28 3.942295 0.050347 0.431044 0.178398 -0.020202 -1.240069
    29 1.539097 -0.000004 0.000001 0.023460 -0.141179 -1.241864
    30 1.196323 0.000000 -0.000003 0.111314 -0.166180 -1.525207
    31 3.896484 -0.115356 -0.178345 -0.080588 0.020284 -1.147277
    32 1.571143 0.050783 -0.023432 -0.066512 0.021187 -1.315478
    33 1.209185 0.000002 0.000006 -0.115337 -0.023773 -1.224252
    34 3.461383 0.081556 -1.030492 0.019259 0.333164 -0.118724
    35 1.645204 -0.007807 0.093762 0.037491 -0.110721 -1.415944
    36 1.099663 0.000006 0.000008 0.006116 0.088285 -0.482322
    37 1.455078 -0.658691 -0.801270 1.269778 0.438823 -0.604310
    38 1.789785 -0.000010 -0.000008 0.217297 -0.065779 0.620771
    39 1.207003 -0.000002 -0.000004 0.144487 -0.180544 0.605305
    40 11.481699 0.000084 0.000002 0.042135 0.071617 0.033819
    41 -6.394059 -12.009690 -5.520077 1.570796 -0.040382 -0.000060
    42 0.000000 1.274668 -0.431855 -1.572902 0.000000 0.000000
    43 0.105493 1.028518 6.618597 -1.572902 0.000000 0.000000
    44 0.000000 -1.156824 1.353456 -0.396364 0.000000 0.000000
    45 0.000000 -0.641789 5.774651 -1.572901 0.000000 0.000000
    46 -6.233848 -10.743909 -9.609742 1.872581 -0.037651 -0.000875
  time 13
    0 0.000000 -0.000006 0.000000 -1.570781 -1.391896 -1.570809
    1 2.724609 1.125977 5.511719 1.596636 -1.286515 2.942963
    2 6.028145 0.000003 0.000002 -1.768483 0.387510 -0.803376
    3 11.692553 0.000081 -0.000005 -0.000015 0.000022 -0.735889
    4 11.482164 -0.000068 -0.000024 1.748480 -0.249996 0.328232
    5 3.859701 -0.142416 -1.191975 -0.468129 0.151538 -0.880198
    6 1.312563 -0.000011 0.000004 0.000000 -0.000003 -0.439723
    7 0.729367 -0.000006 0.000001 0.000001 -0.000003 -0.244304
    8 3.942327 0.046755 -0.431444 -0.151780 0.073202 -0.810991
    9 1.539095 0.000004 -0.000006 -0.000002 0.000006 -0.247791
    10 1.196322 -0.000006 0.000003 0.000001 -0.000007 -0.430811
    11 3.883692 -0.046782 0.431443 0.085902 0.021835 -0.587865
    12 1.719582 -0.000010 0.000009 0.000002 0.005514 -0.366480
    13 1.209179 -0.000010 0.000004 0.000000 0.003091 -0.216394
    14 3.859854 -0.137961 1.332467 0.354450 -0.042751 -0.531725
    15 1.719435 0.000000 -0.000006 -0.000004 0.004079 -0.363004
    16 1.099669 -0.000002 0.000003 0.000005 0.002595 -0.244332
    17 0.806044 -0.348929 1.321259 -1.222684 -0.679216 -0.788820
    18 1.789782 0.000000 -0.000008 -0.000002 -0.000001 0.228524
    19 1.207001 -0.000001 -0.000002 0.000002 -0.000001 0.362862
    20 11.483368 -0.000009 -0.000003 0.039973 -0.023018 0.062352
    21 -1.258789 -10.187500 -8.492188 -1.668474 1.286518 2.942953
    22 6.028141 0.000000 -0.000002 0.978277 0.875377 -1.504635
    23 11.692554 0.000000 0.000000 -0.000002 0.000000 -0.914117
    24 11.481701 -0.000001 -0.000008 -1.301081 0.428557 0.276783
    25 3.859676 -0.132542 1.193109 0.478506 -0.074931 -1.386999
    26 1.355533 -0.054689 -0.058596 0.113532 -0.237905 -1.057202
    27 0.729366 0.000006 0.000000 0.367706 -0.351829 -1.258322
    28 3.942295 0.050347 0.431044 0.178398 -0.020202 -1.240069
    29 1.539097 -0.000004 0.000001 0.023460 -0.141179 -1.241864
    30 1.196323 0.000000 -0.000003 0.111314 -0.166180 -1.525207
    31 3.896484 -0.115356 -0.178345 -0.080588 0.020284 -1.147277
    32 1.571143 0.050783 -0.023432 -0.066512 0.021187 -1.315478
    33 1.209185 0.000002 0.000006 -0.115337 -0.023773 -1.224252
    34 3.461383 0.081556 -1.030492 0.018174 0.331774 -0.119998
    35 1.645204 -0.007807 0.093762 0.034123 -0.112687 -1.384980
    36 1.099663 0.000006 0.000008 0.006188 0.088297 -0.483605
    37 1.455078 -0.658691 -0.801270 1.269778 0.438823 -0.604310
    38 1.789785 -0.000010 -0.000008 0.217297 -0.065779 0.620771
    39 1.207003 -0.000002 -0.000004 0.144487 -0.180544 0.605305
    40 11.481699 0.000084 0.000002 0.041608 0.070742 0.033340
    41 -6.394059 -12.138600 -5.434137 1.570796 -0.037744 -0.000060
    42 0.000000 1.274668 -0.431855 -1.572902 0.000000 0.000000
    43 0.105493 1.028518 6.618597 -1.572902 0.000000 0.000000
    44 0.000000 -1.156824 1.353456 -0.396364 0.000000 0.000000
    45 0.000000 -0.641789 5.774651 -1.572901 0.000000 0.000000
    46 -6.245567 -10.872819 -9.527708 1.872581 -0.034995 -0.000875
  time 14
    0 0.000000 -0.000006 0.000000 -1.570781 -1.391896 -1.570809
    1 2.724609 1.125977 5.511719 1.596636 -1.286515 2.942963
    2 6.028145 0.000003 0.000002 -1.768483 0.387510 -0.803376
    3 11.692553 0.000081 -0.000005 -0.000015 0.000022 -0.735889
    4 11.482164 -0.000068 -0.000024 1.748480 -0.249996 0.328288
    5 3.859701 -0.142416 -1.191975 -0.468129 0.151538 -0.880198
    6 1.312563 -0.000011 0.000004 0.000000 -0.000003 -0.439723
    7 0.729367 -0.000006 0.000001 0.000001 -0.000003 -0.244304
    8 3.942327 0.046755 -0.431444 -0.151780 0.073202 -0.810991
    9 1.539095 0.000004 -0.000006 -0.000002 0.000006 -0.247791
    10 1.196322 -0.000006 0.000003 0.000001 -0.000007 -0.430811
    11 3.883692 -0.046782 0.431443 0.085902 0.021835 -0.587865
    12 1.719582 -0.000010 0.000009 0.000002 0.005514 -0.366480
    13 1.209179 -0.000010 0.000004 0.000000 0.003091 -0.216394
    14 3.859854 -0.137961 1.332467 0.354450 -0.042751 -0.531725
    15 1.719435 0.000000 -0.000006 -0.000004 0.004079 -0.363004
    16 1.099669 -0.000002 0.000003 0.000005 0.002595 -0.244332
    17 0.806044 -0.348929 1.321259 -1.222684 -0.679216 -0.788820
    18 1.789782 0.000000 -0.000008 -0.000002 -0.000001 0.228524
    19 1.207001 -0.000001 -0.000002 0.000002 -0.000001 0.362862
    20 11.483368 -0.000009 -0.000003 0.039961 -0.023018 0.062364
    21 -1.258789 -10.187500 -8.492188 -1.668474 1.286518 2.942953
    22 6.028141 0.000000 -0.000002 0.975005 0.887631 -1.513100
    23 11.692554 0.000000 0.000000 -0.000002 0.000000 -0.897593
    24 11.481701 -0.000001 -0.000008 -1.306451 0.425161 0.272913
    25 3.859676 -0.132542 1.193109 0.478506 -0.074931 -1.386999
    26 1.355533 -0.054689 -0.058596 0.113532 -0.237893 -1.057202
    27 0.729366 0.000006 0.000000 0.367706 -0.351829 -1.258322
    28 3.942295 0.050347 0.431044 0.178398 -0.020202 -1.240069
    29 1.539097 -0.000004 0.000001 0.023460 -0.141179 -1.241864
    30 1.196323 0.000000 -0.000003 0.111314 -0.166180 -1.525207
    31 3.896484 -0.115356 -0.178345 -0.080588 0.020284 -1.147277
    32 1.571143 0.050783 -0.023432 -0.066512 0.021187 -1.315478
    33 1.209185 0.000002 0.000006 -0.115337 -0.023773 -1.224252
    34 3.461383 0.081556 -1.030492 0.017164 0.330444 -0.121173
    35 1.645204 -0.007807 0.093762 0.030875 -0.114436 -1.355709
    36 1.099663 0.000006 0.000008 0.006260 0.088297 -0.484832
    37 1.455078 -0.658691 -0.801270 1.269778 0.438823 -0.604310
    38 1.789785 -0.000010 -0.000008 0.217297 -0.065779 0.620771
    39 1.207003 -0.000002 -0.000004 0.144487 -0.180544 0.605305
    40 11.481699 0.000084 0.000002 0.040817 0.069867 0.032921
    41 -6.397965 -12.263604 -5.352103 1.570796 -0.033788 -0.000060
    42 0.000000 1.274668 -0.431855 -1.572902 0.000000 0.000000
    43 0.105493 1.028518 6.618597 -1.572902 0.000000 0.000000
    44 0.000000 -1.156824 1.353456 -0.396364 0.000000 0.000000
    45 0.000000 -0.641789 5.774651 -1.572901 0.000000 0.000000
    46 -6.261192 -10.997823 -9.445675 1.872581 -0.031068 -0.000875
  time 15
    0 0.000000 -0.000006 0.000000 -1.570781 -1.391896 -1.570809
    1 2.724609 1.125977 5.511719 1.596636 -1.286515 2.942963
    2 6.028145 0.000003 0.000002 -1.768413 0.387510 -0.803376
    3 11.692553 0.000081 -0.000005 -0.000003 0.000022 -0.735953
    4 11.482164 -0.000068 -0.000024 1.748480 -0.250033 0.328344
    5 3.859701 -0.142416 -1.191975 -0.468129 0.151538 -0.880198
    6 1.312563 -0.000011 0.000004 0.000000 -0.000003 -0.439723
    7 0.729367 -0.000006 0.000001 0.000001 -0.000003 -0.244304
    8 3.942327 0.046755 -0.431444 -0.151780 0.073202 -0.810991
    9 1.539095 0.000004 -0.000006 -0.000002 0.000006 -0.247791
    10 1.196322 -0.000006 0.000003 0.000001 -0.000007 -0.430811
    11 3.883692 -0.046782 0.431443 0.085902 0.021835 -0.587865
    12 1.719582 -0.000010 0.000009 0.000002 0.005514 -0.366480
    13 1.209179 -0.000010 0.000004 0.000000 0.003091 -0.216394
    14 3.859854 -0.137961 1.332467 0.354450 -0.042751 -0.531725
    15 1.719435 0.000000 -0.000006 -0.000004 0.004079 -0.363004
    16 1.099669 -0.000002 0.000003 0.000005 0.002595 -0.244332
    17 0.806044 -0.348929 1.321259 -1.222684 -0.679216 -0.788820
    18 1.789782 0.000000 -0.000008 -0.000002 -0.000001 0.228524
    19 1.207001 -0.000001 -0.000002 0.000002 -0.000001 0.362862
    20 11.483368 -0.000009 -0.000003 0.039961 -0.023018 0.062364
    21 -1.258789 -10.187500 -8.492188 -1.668474 1.286518 2.942953
    22 6.028141 0.000000 -0.000002 0.971594 0.899633 -1.521482
    23 11.692554 0.000000 0.000000 -0.000002 0.000000 -0.881351
    24 11.481701 -0.000001 -0.000008 -1.312717 0.421961 0.268995
    25 3.859676 -0.132542 1.193109 0.478506 -0.074931 -1.386999
    26 1.355533 -0.054689 -0.058596 0.113532 -0.237893 -1.057202
    27 0.729366 0.000006 0.000000 0.367706 -0.351829 -1.258322
    28 3.942295 0.050347 0.431044 0.178398 -0.020202 -1.240069
    29 1.539097 -0.000004 0.000001 0.023460 -0.141179 -1.241864
    30 1.196323 0.000000 -0.000003 0.111314 -0.166180 -1.525207
    31 3.896484 -0.115356 -0.178345 -0.080588 0.020284 -1.147277
    32 1.571143 0.050783 -0.023432 -0.066512 0.021187 -1.315478
    33 1.209185 0.000002 0.000006 -0.115337 -0.023773 -1.224252
    34 3.461383 0.081556 -1.030492 0.016214 0.329209 -0.122280
    35 1.645204 -0.007807 0.093762 0.027807 -0.115994 -1.328325
    36 1.099663 0.000006 0.000008 0.006320 0.088309 -0.485975
    37 1.455078 -0.658691 -0.801270 1.269778 0.438823 -0.604310
    38 1.789785 -0.000010 -0.000008 0.217297 -0.065779 0.620771
    39 1.207003 -0.000002 -0.000004 0.144487 -0.180544 0.605305
    40 11.481699 0.000084 0.000002 0.039834 0.069016 0.032525
    41 -6.397965 -12.384701 -5.273976 1.570796 -0.028924 -0.000060
    42 0.000000 1.274668 -0.431855 -1.572902 0.000000 0.000000
    43 0.105493 1.028518 6.618597 -1.572902 0.000000 0.000000
    44 0.000000 -1.156824 1.353456 -0.396364 0.000000 0.000000
    45 0.000000 -0.641789 5.774651 -1.572901 0.000000 0.000000
    46 -6.280724 -11.118920 -9.363641 1.872557 -0.026188 -0.000875
  time 16
    0 0.000000 -0.000006 0.000000 -1.570781 -1.391896 -1.570809
    1 2.724609 1.125977 5.511719 1.596636 -1.286515 2.942963
    2 6.028145 0.000003 0.000002 -1.768413 0.387510 -0.803441
    3 11.692553 0.000081 -0.000005 -0.000003 0.000022 -0.735953
    4 11.482164 -0.000068 -0.000024 1.748386 -0.250033 0.328344
    5 3.859701 -0.142416 -1.191975 -0.468129 0.151538 -0.880198
    6 1.312563 -0.000011 0.000004 0.000000 -0.000003 -0.439723
    7 0.729367 -0.000006 0.000001 0.000001 -0.000003 -0.244304
    8 3.942327 0.046755 -0.431444 -0.151780 0.073202 -0.810991
    9 1.539095 0.000004 -0.000006 -0.000002 0.000006 -0.247791
    10 1.196322 -0.000006 0.000003 0.000001 -0.000007 -0.430811
    11 3.883692 -0.046782 0.431443 0.085902 0.021835 -0.587865
    12 1.719582 -0.000010 0.000009 0.000002 0.005514 -0.366480
    13 1.209179 -0.000010 0.000004 0.000000 0.003091 -0.216394
    14 3.859854 -0.137961 1.332467 0.354450 -0.042751 -0.531725
    15 1.719435 0.000000 -0.000006 -0.000004 0.004079 -0.363004
    16 1.099669 -0.000002 0.000003 0.000005 0.002595 -0.244332
    17 0.806044 -0.348929 1.321259 -1.222684 -0.679216 -0.788820
    18 1.789782 0.000000 -0.000008 -0.000002 -0.000001 0.228524
    19 1.207001 -0.000001 -0.000002 0.000002 -0.000001 0.362862
    20 11.483368 -0.000009 -0.000003 0.039961 -0.023018 0.062376
    21 -1.258789 -10.187500 -8.492188 -1.668474 1.286518 2.942953
    22 6.028141 0.000000 -0.000002 0.968288 0.910808 -1.529367
    23 11.692554 0.000000 0.000000 -0.000002 0.000000 -0.866231
    24 11.481701 -0.000001 -0.000008 -1.319464 0.419057 0.265363
    25 3.859676 -0.132542 1.193109 0.478506 -0.074931 -1.386999
    26 1.355533 -0.054689 -0.058596 0.113532 -0.237893 -1.057202
    27 0.729366 0.000006 0.000000 0.367706 -0.351829 -1.258322
    28 3.942295 0.050347 0.431044 0.178398 -0.020202 -1.240069
    29 1.539097 -0.000004 0.000001 0.023460 -0.141179 -1.241864
    30 1.196323 0.000000 -0.000003 0.111314 -0.166180 -1.525207
    31 3.896484 -0.115356 -0.178345 -0.080588 0.020284 -1.147277
    32 1.571143 0.050783 -0.023432 -0.066512 0.021187 -1.315478
    33 1.209185 0.000002 0.000006 -0.115337 -0.023773 -1.224252
    34 3.461383 0.081556 -1.030492 0.015325 0.328059 -0.123319
    35 1.645204 -0.007807 0.093762 0.024931 -0.117361 -1.303070
    36 1.099663 0.000006 0.000008 0.006380 0.088321 -0.487021
    37 1.455078 -0.658691 -0.801270 1.269778 0.438823 -0.604310
    38 1.789785 -0.000010 -0.000008 0.217297 -0.065779 0.620771
    39 1.207003 -0.000002 -0.000004 0.144487 -0.180544 0.605305
    40 11.481699 0.000084 0.000002 0.038744 0.068213 0.032202
    41 -6.397965 -12.497986 -5.195849 1.570796 -0.023473 -0.000060
    42 0.000000 1.274668 -0.431855 -1.572902 0.000000 0.000000
    43 0.105493 1.028518 6.618597 -1.572902 0.000000 0.000000
    44 0.000000 -1.156824 1.353456 -0.396364 0.000000 0.000000
    45 0.000000 -0.641789 5.774651 -1.572901 0.000000 0.000000
    46 -6.304162 -11.232205 -9.289420 1.872557 -0.020730 -0.000875
  time 17
    0 0.000000 -0.000006 0.000000 -1.570781 -1.391896 -1.570809
    1 2.724609 1.125977 5.511719 1.596636 -1.286515 2.942963
    2 6.028145 0.000003 0.000002 -1.768413 0.387481 -0.803441
    3 11.692553 0.000081 -0.000005 -0.000015 0.000022 -0.736018
    4 11.482164 -0.000068 -0.000024 1.748386 -0.250033 0.328400
    5 3.859701 -0.142416 -1.191975 -0.468129 0.151538 -0.880198
    6 1.312563 -0.000011 0.000004 0.000000 -0.000003 -0.439723
    7 0.729367 -0.000006 0.000001 0.000001 -0.000003 -0.244304
    8 3.942327 0.046755 -0.431444 -0.151780 0.073202 -0.810991
    9 1.539095 0.000004 -0.000006 -0.000002 0.000006 -0.247791
    10 1.196322 -0.000006 0.000003 0.000001 -0.000007 -0.430811
    11 3.883692 -0.046782 0.431443 0.085902 0.021835 -0.587865
    12 1.719582 -0.000010 0.000009 0.000002 0.005514 -0.366480
    13 1.209179 -0.000010 0.000004 0.000000 0.003091 -0.216394
    14 3.859854 -0.137961 1.332467 0.354450 -0.042751 -0.531725
    15 1.719435 0.000000 -0.000006 -0.000004 0.004079 -0.363004
    16 1.099669 -0.000002 0.000003 0.000005 0.002595 -0.244332
    17 0.806044 -0.348929 1.321259 -1.222684 -0.679216 -0.788820
    18 1.789782 0.000000 -0.000008 -0.000002 -0.000001 0.228524
    19 1.207001 -0.000001 -0.000002 0.000002 -0.000001 0.362862
    20 11.483368 -0.000009 -0.000003 0.039961 -0.023018 0.062376
    21 -1.258789 -10.187500 -8.492188 -1.668474 1.286518 2.942953
    22 6.028141 0.000000 -0.000002 0.965086 0.921050 -1.536753
    23 11.692554 0.000000 0.000000 -0.000002 0.000000 -0.852274
    24 11.481701 -0.000001 -0.000008 -1.326315 0.416448 0.261944
    25 3.859676 -0.132542 1.193109 0.478506 -0.074931 -1.386999
    26 1.355533 -0.054689 -0.058596 0.113532 -0.237893 -1.057202
    27 0.729366 0.000006 0.000000 0.367706 -0.351829 -1.258322
    28 3.942295 0.050347 0.431044 0.178398 -0.020202 -1.240069
    29 1.539097 -0.000004 0.000001 0.023460 -0.141179 -1.241864
    30 1.196323 0.000000 -0.000003 0.111314 -0.166180 -1.525207
    31 3.896484 -0.115356 -0.178345 -0.080588 0.020284 -1.147277
    32 1.571143 0.050783 -0.023432 -0.066512 0.021187 -1.315478
    33 1.209185 0.000002 0.000006 -0.115337 -0.023773 -1.224252
    34 3.461383 0.081556 -1.030492 0.014526 0.327016 -0.124259
    35 1.645204 -0.007807 0.093762 0.022294 -0.118535 -1.280137
    36 1.099663 0.000006 0.000008 0.006440 0.088321 -0.487983
    37 1.455078 -0.658691 -0.801270 1.269778 0.438823 -0.604310
    38 1.789785 -0.000010 -0.000008 0.217297 -0.065779 0.620771
    39 1.207003 -0.000002 -0.000004 0.144487 -0.180544 0.605305
    40 11.481699 0.000084 0.000002 0.037617 0.067482 0.031914
    41 -6.397965 -12.599552 -5.129440 1.570796 -0.017847 -0.000060
    42 0.000000 1.274668 -0.431855 -1.572902 0.000000 0.000000
    43 0.105493 1.028518 6.618597 -1.572902 0.000000 0.000000
    44 0.000000 -1.156824 1.353456 -0.396364 0.000000 0.000000
    45 0.000000 -0.641789 5.774651 -1.572901 0.000000 0.000000
    46 -6.327601 -11.333770 -9.223012 1.872557 -0.015100 -0.000875
  time 18
    0 0.000000 -0.000006 0.000000 -1.570781 -1.391896 -1.570809
    1 2.724609 1.125977 5.511719 1.596636 -1.286515 2.942963
    2 6.028145 0.000003 0.000002 -1.768344 0.387481 -0.803441
    3 11.692553 0.000081 -0.000005 -0.000015 0.000022 -0.736018
    4 11.482164 -0.000068 -0.000024 1.748386 -0.250033 0.328400
    5 3.859701 -0.142416 -1.191975 -0.468129 0.151538 -0.880198
    6 1.312563 -0.000011 0.000004 0.000000 -0.000003 -0.439723
    7 0.729367 -0.000006 0.000001 0.000001 -0.000003 -0.244304
    8 3.942327 0.046755 -0.431444 -0.151780 0.073202 -0.810991
    9 1.539095 0.000004 -0.000006 -0.000002 0.000006 -0.247791
    10 1.196322 -0.000006 0.000003 0.000001 -0.000007 -0.430811
    11 3.883692 -0.046782 0.431443 0.085902 0.021835 -0.587865
    12 1.719582 -0.000010 0.000009 0.000002 0.005514 -0.366480
    13 1.209179 -0.000010 0.000004 0.000000 0.003091 -0.216394
    14 3.859854 -0.137961 1.332467 0.354450 -0.042751 -0.531725
    15 1.719435 0.000000 -0.000006 -0.000004 0.004079 -0.363004
    16 1.099669 -0.000002 0.000003 0.000005 0.002595 -0.244332
    17 0.806044 -0.348929 1.321259 -1.222684 -0.679216 -0.788820
    18 1.789782 0.000000 -0.000008 -0.000002 -0.000001 0.228524
    19 1.207001 -0.000001 -0.000002 0.000002 -0.000001 0.362862
    20 11.483368 -0.000009 -0.000003 0.039949 -0.023030 0.062388
    21 -1.258789 -10.187500 -8.492188 -1.668474 1.286518 2.942953
    22 6.028141 0.000000 -0.000002 0.962092 0.930141 -1.543393
    23 11.692554 0.000000 0.000000 -0.000002 0.000000 -0.839841
    24 11.481701 -0.000001 -0.000008 -1.332855 0.414183 0.258833
    25 3.859676 -0.132542 1.193109 0.478506 -0.074931 -1.386999
    26 1.355533 -0.054689 -0.058596 0.113532 -0.237893 -1.057202
    27 0.729366 0.000006 0.000000 0.367706 -0.351829 -1.258322
    28 3.942295 0.050347 0.431044 0.178398 -0.020202 -1.240069
    29 1.539097 -0.000004 0.000001 0.023460 -0.141179 -1.241864
    30 1.196323 0.000000 -0.000003 0.111314 -0.166180 -1.525207
    31 3.896484 -0.115356 -0.178345 -0.080588 0.020284 -1.147277
    32 1.571143 0.050783 -0.023432 -0.066512 0.021187 -1.315507
    33 1.209185 0.000002 0.000006 -0.115337 -0.023773 -1.224252
    34 3.461383 0.081556 -1.030492 0.013817 0.326081 -0.125097
    35 1.645204 -0.007807 0.093762 0.019921 -0.119530 -1.259768
    36 1.099663 0.000006 0.000008 0.006476 0.088333 -0.488848
    37 1.455078 -0.658691 -0.801270 1.269778 0.438823 -0.604310
    38 1.789785 -0.000010 -0.000008 0.217297 -0.065779 0.620771
    39 1.207003 -0.000002 -0.000004 0.144487 -0.180544 0.605305
    40 11.481699 0.000084 0.000002 0.036526 0.066823 0.031650
    41 -6.397965 -12.689398 -5.070845 1.570796 -0.012425 -0.000060
    42 0.000000 1.274668 -0.431855 -1.572902 0.000000 0.000000
    43 0.105493 1.028518 6.618597 -1.572902 0.000000 0.000000
    44 0.000000 -1.156824 1.353456 -0.396364 0.000000 0.000000
    45 0.000000 -0.641789 5.774651 -1.572901 0.000000 0.000000
    46 -6.351039 -11.423617 -9.164416 1.872557 -0.009671 -0.000875
  time 19
    0 0.000000 -0.000006 0.000000 -1.570781 -1.391896 -1.570809
    1 2.724609 1.125977 5.511719 1.596636 -1.286515 2.942963
    2 6.028145 0.000003 0.000002 -1.768344 0.387481 -0.803441
    3 11.692553 0.000081 -0.000005 -0.000003 0.000022 -0.736018
    4 11.482164 -0.000068 -0.000024 1.748386 -0.250033 0.328456
    5 3.859701 -0.142416 -1.191975 -0.468129 0.151538 -0.880198
    6 1.312563 -0.000011 0.000004 0.000000 -0.000003 -0.439723
    7 0.729367 -0.000006 0.000001 0.000001 -0.000003 -0.244304
    8 3.942327 0.046755 -0.431444 -0.151780 0.073202 -0.810991
    9 1.539095 0.000004 -0.000006 -0.000002 0.000006 -0.247791
    10 1.196322 -0.000006 0.000003 0.000001 -0.000007 -0.430811
    11 3.883692 -0.046782 0.431443 0.085902 0.021835 -0.587865
    12 1.719582 -0.000010 0.000009 0.000002 0.005514 -0.366480
    13 1.209179 -0.000010 0.000004 0.000000 0.003091 -0.216394
    14 3.859854 -0.137961 1.332467 0.354450 -0.042751 -0.531725
    15 1.719435 0.000000 -0.000006 -0.000004 0.004079 -0.363004
    16 1.099669 -0.000002 0.000003 0.000005 0.002595 -0.244332
    17 0.806044 -0.348929 1.321259 -1.222684 -0.679216 -0.788820
    18 1.789782 0.000000 -0.000008 -0.000002 -0.000001 0.228524
    19 1.207001 -0.000001 -0.000002 0.000002 -0.000001 0.362862
    20 11.483368 -0.000009 -0.000003 0.039949 -0.023030 0.062388
    21 -1.258789 -10.187500 -8.492188 -1.668474 1.286518 2.942953
    22 6.028141 0.000000 -0.000002 0.959482 0.937687 -1.548995
    23 11.692554 0.000000 0.000000 -0.000002 0.000000 -0.829414
    24 11.481701 -0.000001 -0.000008 -1.338639 0.412362 0.256174
    25 3.859676 -0.132542 1.193109 0.478506 -0.074931 -1.386999
    26 1.355533 -0.054689 -0.058596 0.113532 -0.237893 -1.057202
    27 0.729366 0.000006 0.000000 0.367706 -0.351829 -1.258322
    28 3.942295 0.050347 0.431044 0.178398 -0.020202 -1.240069
    29 1.539097 -0.000004 0.000001 0.023460 -0.141179 -1.241864
    30 1.196323 0.000000 -0.000003 0.111314 -0.166180 -1.525207
    31 3.896484 -0.115356 -0.178345 -0.080588 0.020284 -1.147277
    32 1.571143 0.050783 -0.023432 -0.066512 0.021187 -1.315478
    33 1.209185 0.000002 0.000006 -0.115337 -0.023773 -1.224252
    34 3.461383 0.081556 -1.030492 0.013214 0.325278 -0.125802
    35 1.645204 -0.007807 0.093762 0.017860 -0.120345 -1.242206
    36 1.099663 0.000006 0.000008 0.006524 0.088333 -0.489587
    37 1.455078 -0.658691 -0.801270 1.269778 0.438823 -0.604310
    38 1.789785 -0.000010 -0.000008 0.217297 -0.065779 0.620771
    39 1.207003 -0.000002 -0.000004 0.144487 -0.180544 0.605305
    40 11.481699 0.000084 0.000002 0.035544 0.066284 0.031434
    41 -6.397965 -12.763619 -5.020062 1.570796 -0.007531 -0.000060
    42 0.000000 1.274668 -0.431855 -1.572902 0.000000 0.000000
    43 0.105493 1.028518 6.618597 -1.572902 0.000000 0.000000
    44 0.000000 -1.156824 1.353456 -0.396364 0.000000 0.000000
    45 0.000000 -0.641789 5.774651 -1.572901 0.000000 0.000000
    46 -6.370571 -11.497838 -9.113633 1.872557 -0.004791 -0.000875
  time 20
    0 0.000000 -0.000006 0.000000 -1.570781 -1.391896 -1.570809
    1 2.724609 1.125977 5.511719 1.596636 -1.286515 2.942963
    2 6.028145 0.000003 0.000002 -1.768344 0.387481 -0.803441
    3 11.692553 0.000081 -0.000005 -0.000015 0.000022 -0.736018
    4 11.482164 -0.000068 -0.000024 1.748386 -0.250033 0.328456
    5 3.859701 -0.142416 -1.191975 -0.468129 0.151538 -0.880198
    6 1.312563 -0.000011 0.000004 0.000000 -0.000003 -0.439723
    7 0.729367 -0.000006 0.000001 0.000001 -0.000003 -0.244304
    8 3.942327 0.046755 -0.431444 -0.151780 0.073202 -0.810991
    9 1.539095 0.000004 -0.000006 -0.000002 0.000006 -0.247791
    10 1.196322 -0.000006 0.000003 0.000001 -0.000007 -0.430811
    11 3.883692 -0.046782 0.431443 0.085902 0.021835 -0.587865
    12 1.719582 -0.000010 0.000009 0.000002 0.005514 -0.366480
    13 1.209179 -0.000010 0.000004 0.000000 0.003091 -0.216394
    14 3.859854 -0.137961 1.332467 0.354450 -0.042751 -0.531725
    15 1.719435 0.000000 -0.000006 -0.000004 0.004079 -0.363004
    16 1.099669 -0.000002 0.000003 0.000005 0.002595 -0.244332
    17 0.806044 -0.348929 1.321259 -1.222684 -0.679216 -0.788820
    18 1.789782 0.000000 -0.000008 -0.000002 -0.000001 0.228524
    19 1.207001 -0.000001 -0.000002 0.000002 -0.000001 0.362862
    20 11.483368 -0.000009 -0.000003 0.039949 -0.023030 0.062388
    21 -1.258789 -10.187500 -8.492188 -1.668474 1.286518 2.942953
    22 6.028141 0.000000 -0.000002 0.957429 0.943437 -1.553310
    23 11.692554 0.000000 0.000000 -0.000002 0.000000 -0.821433
    24 11.481701 -0.000001 -0.000008 -1.343321 0.410984 0.254108
    25 3.859676 -0.132542 1.193109 0.478506 -0.074931 -1.386999
    26 1.355533 -0.054689 -0.058596 0.113532 -0.237893 -1.057202
    27 0.729366 0.000006 0.000000 0.367706 -0.351829 -1.258322
    28 3.942295 0.050347 0.431044 0.178398 -0.020202 -1.240069
    29 1.539097 -0.000004 0.000001 0.023460 -0.141179 -1.241864
    30 1.196323 0.000000 -0.000003 0.111314 -0.166180 -1.525207
    31 3.896484 -0.115356 -0.178345 -0.080588 0.020284 -1.147277
    32 1.571143 0.050783 -0.023432 -0.066512 0.021187 -1.315478
    33 1.209185 0.000002 0.000006 -0.115337 -0.023773 -1.224252
    34 3.461383 0.081556 -1.030492 0.012702 0.324607 -0.126406
    35 1.645204 -0.007807 0.093762 0.016158 -0.120992 -1.227740
    36 1.099663 0.000006 0.000008 0.006560 0.088333 -0.490186
    37 1.455078 -0.658691 -0.801270 1.269778 0.438823 -0.604310
    38 1.789785 -0.000010 -0.000008 0.217297 -0.065779 0.620771
    39 1.207003 -0.000002 -0.000004 0.144487 -0.180544 0.605305
    40 11.481699 0.000084 0.000002 0.034753 0.065864 0.031279
    41 -6.397965 -12.822215 -4.984905 1.570796 -0.003604 -0.000060
    42 0.000000 1.274668 -0.431855 -1.572902 0.000000 0.000000
    43 0.105493 1.028518 6.618597 -1.572902 0.000000 0.000000
    44 0.000000 -1.156824 1.353456 -0.396364 0.000000 0.000000
    45 0.000000 -0.641789 5.774651 -1.572901 0.000000 0.000000
    46 -6.386196 -11.556433 -9.078476 1.872557 -0.000836 -0.000875
  time 21
    0 0.000000 -0.000006 0.000000 -1.570781 -1.391896 -1.570809
    1 2.724609 1.125977 5.511719 1.596636 -1.286515 2.942963
    2 6.028145 0.000003 0.000002 -1.768344 0.387481 -0.803507
    3 11.692553 0.000081 -0.000005 -0.000015 0.000022 -0.736018
    4 11.482164 -0.000068 -0.000024 1.748292 -0.250033 0.328456
    5 3.859701 -0.142416 -1.191975 -0.468129 0.151538 -0.880198
    6 1.312563 -0.000011 0.000004 0.000000 -0.000003 -0.439723
    7 0.729367 -0.000006 0.000001 0.000001 -0.000003 -0.244304
    8 3.942327 0.046755 -0.431444 -0.151780 0.073202 -0.810991
    9 1.539095 0.000004 -0.000006 -0.000002 0.000006 -0.247791
    10 1.196322 -0.000006 0.000003 0.000001 -0.000007 -0.430811
    11 3.883692 -0.046782 0.431443 0.085902 0.021835 -0.587865
    12 1.719582 -0.000010 0.000009 0.000002 0.005514 -0.366480
    13 1.209179 -0.000010 0.000004 0.000000 0.003091 -0.216394
    14 3.859854 -0.137961 1.332467 0.354450 -0.042751 -0.531725
    15 1.719435 0.000000 -0.000006 -0.000004 0.004079 -0.363004
    16 1.099669 -0.000002 0.000003 0.000005 0.002595 -0.244332
    17 0.806044 -0.348929 1.321259 -1.222684 -0.679216 -0.788820
    18 1.789782 0.000000 -0.000008 -0.000002 -0.000001 0.228524
    19 1.207001 -0.000001 -0.000002 0.000002 -0.000001 0.362862
    20 11.483368 -0.000009 -0.000003 0.039949 -0.023030 0.062400
    21 -1.258789 -10.187500 -8.492188 -1.668474 1.286518 2.942953
    22 6.028141 0.000000 -0.000002 0.956106 0.947102 -1.556090
    23 11.692554 0.000000 0.000000 -0.000002 0.000000 -0.816379
    24 11.481701 -0.000001 -0.000008 -1.346419 0.410122 0.252779
    25 3.859676 -0.132542 1.193109 0.478506 -0.074931 -1.387014
    26 1.355533 -0.054689 -0.058596 0.113532 -0.237893 -1.057202
    27 0.729366 0.000006 0.000000 0.367706 -0.351829 -1.258322
    28 3.942295 0.050347 0.431044 0.178398 -0.020202 -1.240069
    29 1.539097 -0.000004 0.000001 0.023460 -0.141179 -1.241864
    30 1.196323 0.000000 -0.000003 0.111314 -0.166180 -1.525207
    31 3.896484 -0.115356 -0.178345 -0.080588 0.020284 -1.147277
    32 1.571143 0.050783 -0.023432 -0.066512 0.021187 -1.315478
    33 1.209185 0.000002 0.000006 -0.115337 -0.023773 -1.224252
    34 3.461383 0.081556 -1.030492 0.012325 0.324104 -0.126842
    35 1.645204 -0.007807 0.093762 0.014864 -0.121471 -1.216806
    36 1.099663 0.000006 0.000008 0.006584 0.088345 -0.490646
    37 1.455078 -0.658691 -0.801270 1.269778 0.438823 -0.604310
    38 1.789785 -0.000010 -0.000008 0.217297 -0.065779 0.620771
    39 1.207003 -0.000002 -0.000004 0.144487 -0.180544 0.605305
    40 11.481699 0.000084 0.000002 0.034213 0.065601 0.031171
    41 -6.397965 -12.857372 -4.961467 1.570796 -0.000938 -0.000060
    42 0.000000 1.274668 -0.431855 -1.572902 0.000000 0.000000
    43 0.105493 1.028518 6.618597 -1.572902 0.000000 0.000000
    44 0.000000 -1.156824 1.353456 -0.396364 0.000000 0.000000
    45 0.000000 -0.641789 5.774651 -1.572901 0.000000 0.000000
    46 -6.397915 -11.591591 -9.055038 1.872557 0.001792 -0.000875
  time 22
    0 0.000000 -0.000006 0.000000 -1.570781 -1.391896 -1.570809
    1 2.724609 1.125977 5.511719 1.596636 -1.286515 2.942963
    2 6.028145 0.000003 0.000002 -1.768274 0.387481 -0.803507
    3 11.692553 0.000081 -0.000005 -0.000015 0.000022 -0.736018
    4 11.482164 -0.000068 -0.000024 1.748292 -0.250033 0.328456
    5 3.859701 -0.142416 -1.191975 -0.468129 0.151538 -0.880198
    6 1.312563 -0.000011 0.000004 0.000000 -0.000003 -0.439723
    7 0.729367 -0.000006 0.000001 0.000001 -0.000003 -0.244304
    8 3.942327 0.046755 -0.431444 -0.151780 0.073202 -0.810991
    9 1.539095 0.000004 -0.000006 -0.000002 0.000006 -0.247791
    10 1.196322 -0.000006 0.000003 0.000001 -0.000007 -0.430811
    11 3.883692 -0.046782 0.431443 0.085902 0.021835 -0.587865
    12 1.719582 -0.000010 0.000009 0.000002 0.005514 -0.366480
    13 1.209179 -0.000010 0.000004 0.000000 0.003091 -0.216394
    14 3.859854 -0.137961 1.332467 0.354450 -0.042751 -0.531725
    15 1.719435 0.000000 -0.000006 -0.000004 0.004079 -0.363004
    16 1.099669 -0.000002 0.000003 0.000005 0.002595 -0.244332
    17 0.806044 -0.348929 1.321259 -1.222684 -0.679216 -0.788820
    18 1.789782 0.000000 -0.000008 -0.000002 -0.000001 0.228524
    19 1.207001 -0.000001 -0.000002 0.000002 -0.000001 0.362862
    20 11.483368 -0.000009 -0.000003 0.039949 -0.023030 0.062400
    21 -1.258789 -10.187500 -8.492188 -1.668474 1.286518 2.942953
    22 6.028141 0.000000 -0.000002 0.955619 0.948396 -1.557045
    23 11.692554 0.000000 0.000000 -0.000002 0.000000 -0.814615
    24 11.481701 -0.000001 -0.000008 -1.347521 0.409827 0.252327
    25 3.859676 -0.132542 1.193109 0.478506 -0.074931 -1.387014
    26 1.355533 -0.054689 -0.058596 0.113532 -0.237893 -1.057202
    27 0.729366 0.000006 0.000000 0.367706 -0.351829 -1.258322
    28 3.942295 0.050347 0.431044 0.178398 -0.020202 -1.240069
    29 1.539097 -0.000004 0.000001 0.023460 -0.141179 -1.241864
    30 1.196323 0.000000 -0.000003 0.111314 -0.166180 -1.525207
    31 3.896484 -0.115356 -0.178345 -0.080588 0.020284 -1.147277
    32 1.571143 0.050783 -0.023432 -0.066512 0.021187 -1.315478
    33 1.209185 0.000002 0.000006 -0.115337 -0.023773 -1.224252
    34 3.461383 0.081556 -1.030492 0.012083 0.323792 -0.127144
    35 1.645204 -0.007807 0.093762 0.014037 -0.121759 -1.209839
    36 1.099663 0.000006 0.000008 0.006596 0.088345 -0.490939
    37 1.455078 -0.658691 -0.801270 1.269778 0.438823 -0.604310
    38 1.789785 -0.000010 -0.000008 0.217297 -0.065779 0.620771
    39 1.207003 -0.000002 -0.000004 0.144487 -0.180544 0.605305
    40 11.481699 0.000084 0.000002 0.034022 0.065517 0.031147
    41 -6.397965 -12.869091 -4.953654 1.570796 0.000000 -0.000060
    42 0.000000 1.274668 -0.431855 -1.572902 0.000000 0.000000
    43 0.105493 1.028518 6.618597 -1.572902 0.000000 0.000000
    44 0.000000 -1.156824 1.353456 -0.396364 0.000000 0.000000
    45 0.000000 -0.641789 5.774651 -1.572901 0.000000 0.000000
    46 -6.401822 -11.603310 -9.047225 1.872557 0.002745 -0.000875
end
