// Created by Crowbar++ 0.74
version 1
nodes
  0 "ValveBiped.Bip01_Spine4" -1
  1 "ValveBiped.Bip01_L_Clavicle" 0
  2 "ValveBiped.Bip01_L_UpperArm" 1
  3 "ValveBiped.Bip01_L_Forearm" 2
  4 "ValveBiped.Bip01_L_Hand" 3
  5 "ValveBiped.Bip01_L_Finger4" 4
  6 "ValveBiped.Bip01_L_Finger41" 5
  7 "ValveBiped.Bip01_L_Finger42" 6
  8 "ValveBiped.Bip01_L_Finger3" 4
  9 "ValveBiped.Bip01_L_Finger31" 8
  10 "ValveBiped.Bip01_L_Finger32" 9
  11 "ValveBiped.Bip01_L_Finger2" 4
  12 "ValveBiped.Bip01_L_Finger21" 11
  13 "ValveBiped.Bip01_L_Finger22" 12
  14 "ValveBiped.Bip01_L_Finger1" 4
  15 "ValveBiped.Bip01_L_Finger11" 14
  16 "ValveBiped.Bip01_L_Finger12" 15
  17 "ValveBiped.Bip01_L_Finger0" 4
  18 "ValveBiped.Bip01_L_Finger01" 17
  19 "ValveBiped.Bip01_L_Finger02" 18
  20 "ValveBiped.Bip01_R_Clavicle" 0
  21 "ValveBiped.Bip01_R_UpperArm" 20
  22 "ValveBiped.Bip01_R_Forearm" 21
  23 "ValveBiped.Bip01_R_Hand" 22
  24 "ValveBiped.Bip01_R_Finger4" 23
  25 "ValveBiped.Bip01_R_Finger41" 24
  26 "ValveBiped.Bip01_R_Finger42" 25
  27 "ValveBiped.Bip01_R_Finger3" 23
  28 "ValveBiped.Bip01_R_Finger31" 27
  29 "ValveBiped.Bip01_R_Finger32" 28
  30 "ValveBiped.Bip01_R_Finger2" 23
  31 "ValveBiped.Bip01_R_Finger21" 30
  32 "ValveBiped.Bip01_R_Finger22" 31
  33 "ValveBiped.Bip01_R_Finger1" 23
  34 "ValveBiped.Bip01_R_Finger11" 33
  35 "ValveBiped.Bip01_R_Finger12" 34
  36 "ValveBiped.Bip01_R_Finger0" 23
  37 "ValveBiped.Bip01_R_Finger01" 36
  38 "ValveBiped.Bip01_R_Finger02" 37
  39 "ValveBiped.base" -1
  40 "ValveBiped.trigger" 39
  41 "ValveBiped.mag" 39
  42 "ValveBiped.handle" 39
  43 "ValveBiped.Bip01" -1
end
skeleton
  time 0
    0 1.292969 -2.783203 -12.101563 -1.570760 -1.391893 -1.570827
    1 2.033348 1.000767 1.937660 2.856252 -0.086935 1.424553
    2 6.028145 0.000003 0.000002 -2.225225 -0.080674 -1.366773
    3 11.692553 0.000081 -0.000005 -0.000003 0.000000 -1.427480
    4 11.481672 -0.000089 -0.000024 1.720424 -1.100859 0.355693
    5 3.859701 -0.142417 -1.191975 -0.372600 0.151270 -0.938026
    6 1.312563 -0.000008 0.000006 0.000000 -0.000003 -1.267535
    7 0.729362 -0.000004 0.000003 0.000000 0.000000 -1.156046
    8 3.942327 0.046755 -0.431444 -0.282545 -0.012816 -0.829986
    9 1.539093 0.000006 -0.000007 0.000000 0.000000 -1.277062
    10 1.196323 -0.000004 0.000002 0.000000 0.000000 -1.795951
    11 3.883688 -0.046782 0.431443 -0.051699 -0.018864 -0.672085
    12 1.719578 -0.000011 0.000009 0.000002 0.000013 -1.477115
    13 1.209183 -0.000004 0.000003 0.000000 0.000011 -1.391239
    14 3.859858 -0.137962 1.332466 0.160077 -0.013795 -0.792663
    15 1.719431 0.000002 -0.000004 0.000000 0.000000 -1.578971
    16 1.099676 -0.000006 0.000004 0.000000 0.000000 -1.439611
    17 0.806042 -0.348928 1.321258 -1.297456 -0.379023 -0.751564
    18 1.789782 0.000002 -0.000006 0.000000 0.000000 0.288881
    19 1.206999 0.000000 -0.000002 0.000000 0.000000 0.449501
    20 2.033356 1.000772 -1.937610 -0.104117 -0.097954 -1.638022
    21 6.028141 0.000000 -0.000002 0.179631 0.590396 -2.117678
    22 11.692554 0.000000 -0.000001 -0.000002 0.000000 -1.215501
    23 11.481705 -0.000001 -0.000008 -1.089300 -0.547598 0.190269
    24 3.859676 -0.132545 1.193109 0.121612 -0.096285 -0.922064
    25 1.312559 -0.000004 -0.000001 0.000000 0.000000 -0.614202
    26 0.729367 0.000000 -0.000001 0.000000 0.000003 -1.378682
    27 3.942295 0.050347 0.431044 0.052427 -0.034068 -0.893744
    28 1.539106 0.000000 0.000001 0.000000 0.000000 -1.033143
    29 1.196321 -0.000004 -0.000002 -0.000003 0.000002 -1.390664
    30 3.883663 -0.050304 -0.431042 0.015688 -0.124349 -0.775366
    31 1.719584 0.000002 0.000006 0.000002 -0.007972 -1.588129
    32 1.209183 0.000004 0.000006 0.000000 -0.004460 -0.914505
    33 3.859833 -0.148919 -1.331283 0.137032 0.112660 -0.145634
    34 1.719427 0.000008 0.000011 0.000000 -0.006612 -0.973815
    35 1.099665 0.000002 0.000008 0.000001 -0.004209 -1.029706
    36 0.806023 -0.359832 -1.318336 1.307339 0.325292 -0.670078
    37 1.789780 -0.000006 -0.000006 0.019722 0.080232 0.520342
    38 1.207001 -0.000002 -0.000006 0.000000 0.000000 0.467620
    39 -10.467606 -17.830796 -14.272605 1.812031 -0.228286 0.115085
    40 0.000007 -1.946088 0.068031 0.000000 0.000000 0.000000
    41 0.000007 -3.415848 -1.741976 0.000000 0.000000 0.000000
    42 -0.000028 1.420049 -7.723435 0.000000 0.000000 0.000000
    43 1.292969 -6.652344 -31.890625 1.570788 0.000007 -0.000007
  time 1
    0 1.292969 -2.783203 -12.101563 -1.570760 -1.391893 -1.570827
    1 2.033348 1.000767 1.937660 2.856252 -0.086935 1.424553
    2 6.028145 0.000003 0.000002 -2.227821 -0.086053 -1.343896
    3 11.692553 0.000081 -0.000005 -0.000003 0.000000 -1.463634
    4 11.481672 -0.000089 -0.000024 1.684816 -1.086144 0.431544
    5 3.859701 -0.142417 -1.191975 -0.372600 0.151270 -0.938026
    6 1.312563 -0.000008 0.000006 0.000000 -0.000003 -1.267535
    7 0.729362 -0.000004 0.000003 0.000000 0.000000 -1.156046
    8 3.942327 0.046755 -0.431444 -0.282545 -0.012816 -0.829986
    9 1.539093 0.000006 -0.000007 0.000000 0.000000 -1.277062
    10 1.196323 -0.000004 0.000002 0.000000 0.000000 -1.795951
    11 3.883688 -0.046782 0.431443 -0.051699 -0.018864 -0.672085
    12 1.719578 -0.000011 0.000009 0.000002 0.000013 -1.477115
    13 1.209183 -0.000004 0.000003 0.000000 0.000011 -1.391239
    14 3.859858 -0.137962 1.332466 0.160077 -0.013795 -0.792663
    15 1.719431 0.000002 -0.000004 0.000000 0.000000 -1.578971
    16 1.099676 -0.000006 0.000004 0.000000 0.000000 -1.439611
    17 0.806042 -0.348928 1.321258 -1.297456 -0.379023 -0.751564
    18 1.789782 0.000002 -0.000006 0.000000 0.000000 0.288881
    19 1.206999 0.000000 -0.000002 0.000000 0.000000 0.449501
    20 2.033356 1.000772 -1.937610 -0.104117 -0.097954 -1.638022
    21 6.028141 0.000000 -0.000002 0.167455 0.591169 -2.139573
    22 11.692554 0.000000 -0.000001 -0.000002 0.000000 -1.251815
    23 11.481705 -0.000001 -0.000008 -1.099960 -0.538441 0.243793
    24 3.859676 -0.132545 1.193109 0.121612 -0.096285 -0.922064
    25 1.312559 -0.000004 -0.000001 0.000000 0.000000 -0.614202
    26 0.729367 0.000000 -0.000001 0.000000 0.000003 -1.378682
    27 3.942295 0.050347 0.431044 0.052427 -0.034080 -0.893744
    28 1.539106 0.000000 0.000001 0.000000 0.000000 -1.033143
    29 1.196321 -0.000004 -0.000002 -0.000003 0.000002 -1.390664
    30 3.883663 -0.050304 -0.431042 0.015688 -0.124349 -0.775366
    31 1.719584 0.000002 0.000006 0.000002 -0.007972 -1.588129
    32 1.209183 0.000004 0.000006 0.000000 -0.004460 -0.914505
    33 3.859833 -0.148919 -1.331283 0.137032 0.112660 -0.145634
    34 1.719427 0.000008 0.000011 0.000000 -0.006612 -0.973815
    35 1.099665 0.000002 0.000008 0.000001 -0.004209 -1.029706
    36 0.806023 -0.359832 -1.318336 1.307339 0.325292 -0.670078
    37 1.789780 -0.000006 -0.000006 0.019722 0.080232 0.520342
    38 1.207001 -0.000002 -0.000006 0.000000 0.000000 0.467620
    39 -10.252756 -18.006582 -13.592897 1.809303 -0.217058 0.110282
    40 0.000007 -1.946088 0.068031 0.000000 0.000000 0.000000
    41 0.000007 -3.415848 -1.741976 0.000000 0.000000 0.000000
    42 -0.000028 1.420049 -7.723435 0.000000 0.000000 0.000000
    43 1.292969 -6.652344 -31.890625 1.570788 0.000007 -0.000007
  time 2
    0 1.292969 -2.783203 -12.101563 -1.570760 -1.391893 -1.570827
    1 2.033348 1.000767 1.937660 2.856252 -0.086935 1.424553
    2 6.028145 0.000003 0.000002 -2.231769 -0.103352 -1.305817
    3 11.692553 0.000081 -0.000005 -0.000003 0.000000 -1.510772
    4 11.481672 -0.000089 -0.000024 1.640024 -1.063055 0.534308
    5 3.859701 -0.142417 -1.191975 -0.372600 0.151270 -0.938026
    6 1.312563 -0.000008 0.000006 0.000000 -0.000003 -1.267535
    7 0.729362 -0.000004 0.000003 0.000000 0.000000 -1.156046
    8 3.942327 0.046755 -0.431444 -0.282545 -0.012816 -0.829986
    9 1.539093 0.000006 -0.000007 0.000000 0.000000 -1.277062
    10 1.196323 -0.000004 0.000002 0.000000 0.000000 -1.795951
    11 3.883688 -0.046782 0.431443 -0.051699 -0.018864 -0.672085
    12 1.719578 -0.000011 0.000009 0.000002 0.000013 -1.477115
    13 1.209183 -0.000004 0.000003 0.000000 0.000011 -1.391239
    14 3.859858 -0.137962 1.332466 0.160077 -0.013795 -0.792663
    15 1.719431 0.000002 -0.000004 0.000000 0.000000 -1.578971
    16 1.099676 -0.000006 0.000004 0.000000 0.000000 -1.439611
    17 0.806042 -0.348928 1.321258 -1.297456 -0.379023 -0.751564
    18 1.789782 0.000002 -0.000006 0.000000 0.000000 0.288881
    19 1.206999 0.000000 -0.000002 0.000000 0.000000 0.449501
    20 2.033356 1.000772 -1.937610 -0.104117 -0.097954 -1.638022
    21 6.028141 0.000000 -0.000002 0.148777 0.594872 -2.178414
    22 11.692554 0.000000 -0.000001 -0.000002 -0.000036 -1.300923
    23 11.481705 -0.000001 -0.000008 -1.117390 -0.524187 0.319907
    24 3.859676 -0.132545 1.193109 0.121612 -0.096285 -0.922064
    25 1.312559 -0.000004 -0.000001 0.000000 0.000000 -0.614202
    26 0.729367 0.000000 -0.000001 0.000000 0.000003 -1.378682
    27 3.942295 0.050347 0.431044 0.052427 -0.034080 -0.893744
    28 1.539106 0.000000 0.000001 0.000000 0.000000 -1.033143
    29 1.196321 -0.000004 -0.000002 -0.000003 0.000002 -1.390634
    30 3.883663 -0.050304 -0.431042 0.015688 -0.124349 -0.775366
    31 1.719584 0.000002 0.000006 0.000002 -0.007972 -1.588129
    32 1.209183 0.000004 0.000006 0.000000 -0.004460 -0.914505
    33 3.859833 -0.148919 -1.331283 0.137032 0.112660 -0.145634
    34 1.719427 0.000008 0.000011 0.000000 -0.006612 -0.973815
    35 1.099665 0.000002 0.000008 0.000001 -0.004209 -1.029706
    36 0.806023 -0.359832 -1.318336 1.307339 0.325292 -0.670078
    37 1.789780 -0.000006 -0.000006 0.019722 0.080232 0.520342
    38 1.207001 -0.000002 -0.000006 0.000000 0.000000 0.467620
    39 -9.971497 -18.221433 -12.503020 1.801526 -0.195928 0.101706
    40 0.000007 -1.946088 0.068031 0.000000 0.000000 0.000000
    41 0.000007 -3.415848 -1.741976 0.000000 0.000000 0.000000
    42 -0.000028 1.420049 -7.723435 0.000000 0.000000 0.000000
    43 1.292969 -6.652344 -31.890625 1.570788 0.000007 -0.000007
  time 3
    0 1.292969 -2.783203 -12.101563 -1.570760 -1.391893 -1.570827
    1 2.033348 1.000767 1.937660 2.856252 -0.086935 1.424553
    2 6.028145 0.000003 0.000002 -2.236798 -0.126362 -1.256662
    3 11.692553 0.000081 -0.000005 -0.000003 0.000000 -1.550064
    4 11.481672 -0.000089 -0.000024 1.590997 -1.035597 0.639840
    5 3.859701 -0.142417 -1.191975 -0.372600 0.151270 -0.938026
    6 1.312563 -0.000008 0.000006 0.000000 -0.000003 -1.267535
    7 0.729362 -0.000004 0.000003 0.000000 0.000000 -1.156046
    8 3.942327 0.046755 -0.431444 -0.282545 -0.012816 -0.829986
    9 1.539093 0.000006 -0.000007 0.000000 0.000000 -1.277062
    10 1.196323 -0.000004 0.000002 0.000000 0.000000 -1.795951
    11 3.883688 -0.046782 0.431443 -0.051699 -0.018864 -0.672085
    12 1.719578 -0.000011 0.000009 0.000002 0.000013 -1.477115
    13 1.209183 -0.000004 0.000003 0.000000 0.000011 -1.391239
    14 3.859858 -0.137962 1.332466 0.160077 -0.013795 -0.792663
    15 1.719431 0.000002 -0.000004 0.000000 0.000000 -1.578971
    16 1.099676 -0.000006 0.000004 0.000000 0.000000 -1.439611
    17 0.806042 -0.348928 1.321258 -1.297456 -0.379023 -0.751564
    18 1.789782 0.000002 -0.000006 0.000000 0.000000 0.288881
    19 1.206999 0.000000 -0.000002 0.000000 0.000000 0.449501
    20 2.033356 1.000772 -1.937610 -0.104117 -0.097954 -1.638022
    21 6.028141 0.000000 -0.000002 0.122960 0.598606 -2.229251
    22 11.692554 0.000000 -0.000001 -0.000002 0.000000 -1.342407
    23 11.481705 -0.000001 -0.000008 -1.136386 -0.506741 0.395422
    24 3.859676 -0.132545 1.193109 0.121612 -0.096285 -0.922064
    25 1.312559 -0.000004 -0.000001 0.000000 0.000000 -0.614202
    26 0.729367 0.000000 -0.000001 0.000000 0.000003 -1.378682
    27 3.942295 0.050347 0.431044 0.052427 -0.034068 -0.893744
    28 1.539106 0.000000 0.000001 0.000000 0.000000 -1.033143
    29 1.196321 -0.000004 -0.000002 -0.000003 0.000002 -1.390664
    30 3.883663 -0.050304 -0.431042 0.015688 -0.124349 -0.775366
    31 1.719584 0.000002 0.000006 0.000002 -0.007972 -1.588129
    32 1.209183 0.000004 0.000006 0.000000 -0.004460 -0.914505
    33 3.859833 -0.148919 -1.331283 0.137047 0.112660 -0.145634
    34 1.719427 0.000008 0.000011 0.000000 -0.006612 -0.973815
    35 1.099665 0.000002 0.000008 0.000001 -0.004209 -1.029706
    36 0.806023 -0.359832 -1.318336 1.307339 0.325292 -0.670078
    37 1.789780 -0.000006 -0.000006 0.019722 0.080232 0.520342
    38 1.207001 -0.000002 -0.000006 0.000000 0.000000 0.467620
    39 -9.670707 -18.448002 -11.335015 1.790770 -0.172311 0.091963
    40 0.000007 -1.946088 0.068031 0.000000 0.000000 0.000000
    41 0.000007 -3.415848 -1.741976 0.000000 0.000000 0.000000
    42 -0.000028 1.420049 -7.723435 0.000000 0.000000 0.000000
    43 1.292969 -6.652344 -31.890625 1.570788 0.000007 -0.000007
  time 4
    0 1.292969 -2.783203 -12.101563 -1.570760 -1.391893 -1.570827
    1 2.033348 1.000767 1.937660 2.856252 -0.086935 1.424553
    2 6.028145 0.000003 0.000002 -2.242639 -0.151132 -1.197661
    3 11.692553 0.000081 -0.000005 -0.000003 0.000000 -1.577367
    4 11.481672 -0.000089 -0.000024 1.537885 -1.004346 0.741667
    5 3.859701 -0.142417 -1.191975 -0.372600 0.151270 -0.938026
    6 1.312563 -0.000008 0.000006 0.000000 -0.000003 -1.267535
    7 0.729362 -0.000004 0.000003 0.000000 0.000000 -1.156046
    8 3.942327 0.046755 -0.431444 -0.282545 -0.012816 -0.829986
    9 1.539093 0.000006 -0.000007 0.000000 0.000000 -1.277062
    10 1.196323 -0.000004 0.000002 0.000000 0.000000 -1.795951
    11 3.883688 -0.046782 0.431443 -0.051699 -0.018864 -0.672085
    12 1.719578 -0.000011 0.000009 0.000002 0.000013 -1.477115
    13 1.209183 -0.000004 0.000003 0.000000 0.000011 -1.391239
    14 3.859858 -0.137962 1.332466 0.160077 -0.013795 -0.792663
    15 1.719431 0.000002 -0.000004 0.000000 0.000000 -1.578971
    16 1.099676 -0.000006 0.000004 0.000000 0.000000 -1.439611
    17 0.806042 -0.348928 1.321258 -1.297456 -0.379023 -0.751564
    18 1.789782 0.000002 -0.000006 0.000000 0.000000 0.288881
    19 1.206999 0.000000 -0.000002 0.000000 0.000000 0.449501
    20 2.033356 1.000772 -1.937610 -0.104117 -0.097954 -1.638022
    21 6.028141 0.000000 -0.000002 0.091086 0.600763 -2.288478
    22 11.692554 0.000000 -0.000001 -0.000002 0.000000 -1.371032
    23 11.481705 -0.000001 -0.000008 -1.153967 -0.486663 0.462193
    24 3.859676 -0.132545 1.193109 0.121612 -0.096285 -0.922064
    25 1.312559 -0.000004 -0.000001 0.000000 0.000000 -0.614202
    26 0.729367 0.000000 -0.000001 0.000000 0.000003 -1.378726
    27 3.942295 0.050347 0.431044 0.052427 -0.034080 -0.893744
    28 1.539106 0.000000 0.000001 0.000000 0.000000 -1.033143
    29 1.196321 -0.000004 -0.000002 -0.000003 0.000002 -1.390664
    30 3.883663 -0.050304 -0.431042 0.015688 -0.124349 -0.775366
    31 1.719584 0.000002 0.000006 0.000002 -0.007972 -1.588129
    32 1.209183 0.000004 0.000006 0.000000 -0.004460 -0.914505
    33 3.859833 -0.148919 -1.331283 0.137032 0.112660 -0.145634
    34 1.719427 0.000008 0.000011 0.000000 -0.006612 -0.973815
    35 1.099665 0.000002 0.000008 0.000001 -0.004209 -1.029706
    36 0.806023 -0.359832 -1.318336 1.307339 0.325292 -0.670078
    37 1.789780 -0.000006 -0.000006 0.019722 0.080232 0.520342
    38 1.207001 -0.000002 -0.000006 0.000000 0.000000 0.467620
    39 -9.362103 -18.678478 -10.182636 1.777539 -0.148447 0.081877
    40 0.000007 -1.946088 0.068031 0.000000 0.000000 0.000000
    41 0.000007 -3.415848 -1.741976 0.000000 0.000000 0.000000
    42 -0.000028 1.420049 -7.723435 0.000000 0.000000 0.000000
    43 1.292969 -6.652344 -31.890625 1.570788 0.000007 -0.000007
  time 5
    0 1.292969 -2.783203 -12.101563 -1.570760 -1.391893 -1.570827
    1 2.033348 1.000767 1.937660 2.856252 -0.086935 1.424553
    2 6.028145 0.000003 0.000002 -2.248480 -0.174042 -1.130046
    3 11.692553 0.000081 -0.000005 -0.000003 0.000000 -1.592369
    4 11.481672 -0.000089 -0.000024 1.479937 -0.969121 0.837020
    5 3.859701 -0.142417 -1.191975 -0.372600 0.151270 -0.938026
    6 1.312563 -0.000008 0.000006 0.000000 -0.000003 -1.267535
    7 0.729362 -0.000004 0.000003 0.000000 0.000000 -1.156046
    8 3.942327 0.046755 -0.431444 -0.282545 -0.012816 -0.829986
    9 1.539093 0.000006 -0.000007 0.000000 0.000000 -1.277062
    10 1.196323 -0.000004 0.000002 0.000000 0.000000 -1.795951
    11 3.883688 -0.046782 0.431443 -0.051699 -0.018864 -0.672085
    12 1.719578 -0.000011 0.000009 0.000002 0.000013 -1.477115
    13 1.209183 -0.000004 0.000003 0.000000 0.000011 -1.391239
    14 3.859858 -0.137962 1.332466 0.160077 -0.013795 -0.792663
    15 1.719431 0.000002 -0.000004 0.000000 0.000000 -1.578971
    16 1.099676 -0.000006 0.000004 0.000000 0.000000 -1.439611
    17 0.806042 -0.348928 1.321258 -1.297456 -0.379023 -0.751564
    18 1.789782 0.000002 -0.000006 0.000000 0.000000 0.288881
    19 1.206999 0.000000 -0.000002 0.000000 0.000000 0.449501
    20 2.033356 1.000772 -1.937610 -0.104117 -0.097954 -1.638022
    21 6.028141 0.000000 -0.000002 0.054750 0.600216 -2.352402
    22 11.692554 0.000000 -0.000001 -0.000002 0.000000 -1.387121
    23 11.481705 -0.000001 -0.000008 -1.169729 -0.464065 0.517797
    24 3.859676 -0.132545 1.193109 0.121612 -0.096285 -0.922064
    25 1.312559 -0.000004 -0.000001 0.000000 0.000000 -0.614202
    26 0.729367 0.000000 -0.000001 0.000000 0.000003 -1.378682
    27 3.942295 0.050347 0.431044 0.052427 -0.034080 -0.893744
    28 1.539106 0.000000 0.000001 0.000000 0.000000 -1.033143
    29 1.196321 -0.000004 -0.000002 -0.000003 0.000002 -1.390664
    30 3.883663 -0.050304 -0.431042 0.015688 -0.124349 -0.775366
    31 1.719584 0.000002 0.000006 0.000002 -0.007972 -1.588129
    32 1.209183 0.000004 0.000006 0.000000 -0.004460 -0.914505
    33 3.859833 -0.148919 -1.331283 0.137032 0.112660 -0.145634
    34 1.719427 0.000008 0.000011 0.000000 -0.006612 -0.973815
    35 1.099665 0.000002 0.000008 0.000001 -0.004209 -1.029706
    36 0.806023 -0.359832 -1.318336 1.307339 0.325292 -0.670078
    37 1.789780 -0.000006 -0.000006 0.019722 0.080232 0.520342
    38 1.207001 -0.000002 -0.000006 0.000000 0.000000 0.467620
    39 -9.049594 -18.912860 -9.096666 1.762186 -0.125328 0.071792
    40 0.000007 -1.946088 0.068031 0.000000 0.000000 0.000000
    41 0.000007 -3.415848 -1.741976 0.000000 0.000000 0.000000
    42 -0.000028 1.420049 -7.723435 0.000000 0.000000 0.000000
    43 1.292969 -6.652344 -31.890625 1.570788 0.000007 -0.000007
  time 6
    0 1.292969 -2.783203 -12.101563 -1.570760 -1.391893 -1.570827
    1 2.033348 1.000767 1.937660 2.856252 -0.086935 1.424553
    2 6.028145 0.000003 0.000002 -2.253077 -0.191939 -1.055191
    3 11.692553 0.000081 -0.000005 -0.000003 0.000000 -1.596072
    4 11.481672 -0.000089 -0.000024 1.416817 -0.929496 0.924149
    5 3.859701 -0.142417 -1.191975 -0.372600 0.151270 -0.938026
    6 1.312563 -0.000008 0.000006 0.000000 -0.000003 -1.267535
    7 0.729362 -0.000004 0.000003 0.000000 0.000000 -1.156046
    8 3.942327 0.046755 -0.431444 -0.282545 -0.012816 -0.829986
    9 1.539093 0.000006 -0.000007 0.000000 0.000000 -1.277062
    10 1.196323 -0.000004 0.000002 0.000000 0.000000 -1.795951
    11 3.883688 -0.046782 0.431443 -0.051699 -0.018864 -0.672085
    12 1.719578 -0.000011 0.000009 0.000002 0.000013 -1.477115
    13 1.209183 -0.000004 0.000003 0.000000 0.000011 -1.391239
    14 3.859858 -0.137962 1.332466 0.160077 -0.013795 -0.792663
    15 1.719431 0.000002 -0.000004 0.000000 0.000000 -1.578971
    16 1.099676 -0.000006 0.000004 0.000000 0.000000 -1.439611
    17 0.806042 -0.348928 1.321258 -1.297456 -0.379023 -0.751564
    18 1.789782 0.000002 -0.000006 0.000000 0.000000 0.288881
    19 1.206999 0.000000 -0.000002 0.000000 0.000000 0.449501
    20 2.033356 1.000772 -1.937610 -0.104117 -0.097954 -1.638022
    21 6.028141 0.000000 -0.000002 0.016056 0.596353 -2.417417
    22 11.692554 0.000000 -0.000001 -0.000002 0.000000 -1.391967
    23 11.481705 -0.000001 -0.000008 -1.183117 -0.439170 0.561010
    24 3.859676 -0.132545 1.193109 0.121612 -0.096285 -0.922064
    25 1.312559 -0.000004 -0.000001 0.000000 0.000000 -0.614202
    26 0.729367 0.000000 -0.000001 0.000000 0.000003 -1.378682
    27 3.942295 0.050347 0.431044 0.052427 -0.034080 -0.893744
    28 1.539106 0.000000 0.000001 0.000000 0.000000 -1.033143
    29 1.196321 -0.000004 -0.000002 -0.000003 0.000002 -1.390634
    30 3.883663 -0.050304 -0.431042 0.015688 -0.124349 -0.775366
    31 1.719584 0.000002 0.000006 0.000002 -0.007972 -1.588129
    32 1.209183 0.000004 0.000006 0.000000 -0.004460 -0.914505
    33 3.859833 -0.148919 -1.331283 0.137032 0.112660 -0.145634
    34 1.719427 0.000008 0.000011 0.000000 -0.006612 -0.973815
    35 1.099665 0.000002 0.000008 0.000001 -0.004209 -1.029706
    36 0.806023 -0.359832 -1.318336 1.307339 0.325292 -0.670078
    37 1.789780 -0.000006 -0.000006 0.019722 0.080232 0.520342
    38 1.207001 -0.000002 -0.000006 0.000000 0.000000 0.467620
    39 -8.737084 -19.151149 -8.096635 1.744915 -0.103659 0.061843
    40 0.000007 -1.946088 0.068031 0.000000 0.000000 0.000000
    41 0.000007 -3.415848 -1.741976 0.000000 0.000000 0.000000
    42 -0.000028 1.420049 -7.723435 0.000000 0.000000 0.000000
    43 1.292969 -6.652344 -31.890625 1.570788 0.000007 -0.000007
  time 7
    0 1.292969 -2.783203 -12.101563 -1.570760 -1.391893 -1.570827
    1 2.033348 1.000767 1.937660 2.856252 -0.086935 1.424553
    2 6.028145 0.000003 0.000002 -2.254700 -0.202199 -0.974762
    3 11.692553 0.000081 -0.000005 -0.000003 0.000000 -1.590360
    4 11.481672 -0.000089 -0.000024 1.348599 -0.885078 1.001507
    5 3.859701 -0.142417 -1.191975 -0.372600 0.151270 -0.938026
    6 1.312563 -0.000008 0.000006 0.000000 -0.000003 -1.267535
    7 0.729362 -0.000004 0.000003 0.000000 0.000000 -1.156046
    8 3.942327 0.046755 -0.431444 -0.282545 -0.012816 -0.829986
    9 1.539093 0.000006 -0.000007 0.000000 0.000000 -1.277062
    10 1.196323 -0.000004 0.000002 0.000000 0.000000 -1.795951
    11 3.883688 -0.046782 0.431443 -0.051699 -0.018864 -0.672085
    12 1.719578 -0.000011 0.000009 0.000002 0.000013 -1.477115
    13 1.209183 -0.000004 0.000003 0.000000 0.000011 -1.391239
    14 3.859858 -0.137962 1.332466 0.160077 -0.013795 -0.792663
    15 1.719431 0.000002 -0.000004 0.000000 0.000000 -1.578971
    16 1.099676 -0.000006 0.000004 0.000000 0.000000 -1.439611
    17 0.806042 -0.348928 1.321258 -1.297456 -0.379023 -0.751564
    18 1.789782 0.000002 -0.000006 0.000000 0.000000 0.288881
    19 1.206999 0.000000 -0.000002 0.000000 0.000000 0.449501
    20 2.033356 1.000772 -1.937610 -0.104117 -0.097954 -1.638022
    21 6.028141 0.000000 -0.000002 -0.022957 0.588980 -2.480166
    22 11.692554 0.000000 -0.000001 -0.000002 0.000000 -1.387509
    23 11.481705 -0.000001 -0.000008 -1.193676 -0.412287 0.591375
    24 3.859676 -0.132545 1.193109 0.121612 -0.096285 -0.922064
    25 1.312559 -0.000004 -0.000001 0.000000 0.000000 -0.614202
    26 0.729367 0.000000 -0.000001 0.000000 0.000003 -1.378726
    27 3.942295 0.050347 0.431044 0.052427 -0.034080 -0.893744
    28 1.539106 0.000000 0.000001 0.000000 0.000000 -1.033143
    29 1.196321 -0.000004 -0.000002 -0.000003 0.000002 -1.390664
    30 3.883663 -0.050304 -0.431042 0.015688 -0.124349 -0.775366
    31 1.719584 0.000002 0.000006 0.000002 -0.007972 -1.588129
    32 1.209183 0.000004 0.000006 0.000000 -0.004460 -0.914505
    33 3.859833 -0.148919 -1.331283 0.137032 0.112660 -0.145634
    34 1.719427 0.000008 0.000011 0.000000 -0.006612 -0.973815
    35 1.099665 0.000002 0.000008 0.000001 -0.004209 -1.029706
    36 0.806023 -0.359832 -1.318336 1.307339 0.325292 -0.670078
    37 1.789780 -0.000006 -0.000006 0.019722 0.080232 0.520342
    38 1.207001 -0.000002 -0.000006 0.000000 0.000000 0.467620
    39 -8.424575 -19.393343 -7.202077 1.725775 -0.083854 0.052238
    40 0.000007 -1.946088 0.068031 0.000000 0.000000 0.000000
    41 0.000007 -3.415848 -1.741976 0.000000 0.000000 0.000000
    42 -0.000028 1.420049 -7.723435 0.000000 0.000000 0.000000
    43 1.292969 -6.652344 -31.890625 1.570788 0.000007 -0.000007
  time 8
    0 1.292969 -2.783203 -12.101563 -1.570760 -1.391893 -1.570827
    1 2.033348 1.000767 1.937660 2.856252 -0.086935 1.424553
    2 6.028145 0.000003 0.000002 -2.251509 -0.203427 -0.890785
    3 11.692553 0.000081 -0.000005 -0.000003 0.000000 -1.577305
    4 11.481672 -0.000089 -0.000024 1.276557 -0.836048 1.067342
    5 3.859701 -0.142417 -1.191975 -0.372600 0.151270 -0.938026
    6 1.312563 -0.000008 0.000006 0.000000 -0.000003 -1.267535
    7 0.729362 -0.000004 0.000003 0.000000 0.000000 -1.156046
    8 3.942327 0.046755 -0.431444 -0.282545 -0.012816 -0.829986
    9 1.539093 0.000006 -0.000007 0.000000 0.000000 -1.277062
    10 1.196323 -0.000004 0.000002 0.000000 0.000000 -1.795951
    11 3.883688 -0.046782 0.431443 -0.051699 -0.018864 -0.672085
    12 1.719578 -0.000011 0.000009 0.000002 0.000013 -1.477115
    13 1.209183 -0.000004 0.000003 0.000000 0.000011 -1.391239
    14 3.859858 -0.137962 1.332466 0.160077 -0.013795 -0.792663
    15 1.719431 0.000002 -0.000004 0.000000 0.000000 -1.578971
    16 1.099676 -0.000006 0.000004 0.000000 0.000000 -1.439611
    17 0.806042 -0.348928 1.321258 -1.297456 -0.379023 -0.751564
    18 1.789782 0.000002 -0.000006 0.000000 0.000000 0.288881
    19 1.206999 0.000000 -0.000002 0.000000 0.000000 0.449501
    20 2.033356 1.000772 -1.937610 -0.104117 -0.097954 -1.638022
    21 6.028141 0.000000 -0.000002 -0.060505 0.578355 -2.537967
    22 11.692554 0.000000 -0.000001 -0.000002 0.000000 -1.375619
    23 11.481705 -0.000001 -0.000008 -1.201658 -0.383724 0.609179
    24 3.859676 -0.132545 1.193109 0.121612 -0.096285 -0.922064
    25 1.312559 -0.000004 -0.000001 0.000000 0.000000 -0.614202
    26 0.729367 0.000000 -0.000001 0.000000 0.000003 -1.378682
    27 3.942295 0.050347 0.431044 0.052427 -0.034080 -0.893744
    28 1.539106 0.000000 0.000001 0.000000 0.000000 -1.033143
    29 1.196321 -0.000004 -0.000002 -0.000003 0.000002 -1.390664
    30 3.883663 -0.050304 -0.431042 0.015688 -0.124349 -0.775366
    31 1.719584 0.000002 0.000006 0.000002 -0.007972 -1.588129
    32 1.209183 0.000004 0.000006 0.000000 -0.004460 -0.914505
    33 3.859833 -0.148919 -1.331283 0.137032 0.112660 -0.145634
    34 1.719427 0.000008 0.000011 0.000000 -0.006612 -0.973815
    35 1.099665 0.000002 0.000008 0.000001 -0.004209 -1.029706
    36 0.806023 -0.359832 -1.318336 1.307339 0.325292 -0.670078
    37 1.789780 -0.000006 -0.000006 0.019722 0.080232 0.520342
    38 1.207001 -0.000002 -0.000006 0.000000 0.000000 0.467620
    39 -8.123784 -19.631632 -6.424709 1.704818 -0.066246 0.043319
    40 0.000007 -1.946088 0.068031 0.000000 0.000000 0.000000
    41 0.000007 -3.415848 -1.741976 0.000000 0.000000 0.000000
    42 -0.000028 1.420049 -7.723435 0.000000 0.000000 0.000000
    43 1.292969 -6.652344 -31.890625 1.570788 0.000007 -0.000007
  time 9
    0 1.292969 -2.783203 -12.101563 -1.570760 -1.391893 -1.570827
    1 2.033348 1.000767 1.937660 2.856252 -0.086935 1.424553
    2 6.028145 0.000003 0.000002 -2.242261 -0.195525 -0.806157
    3 11.692553 0.000081 -0.000005 -0.000003 0.000000 -1.558977
    4 11.481672 -0.000089 -0.000024 1.203092 -0.783559 1.119538
    5 3.859701 -0.142417 -1.191975 -0.372600 0.151270 -0.938026
    6 1.312563 -0.000008 0.000006 0.000000 -0.000003 -1.267535
    7 0.729362 -0.000004 0.000003 0.000000 0.000000 -1.156046
    8 3.942327 0.046755 -0.431444 -0.282545 -0.012816 -0.829986
    9 1.539093 0.000006 -0.000007 0.000000 0.000000 -1.277062
    10 1.196323 -0.000004 0.000002 0.000000 0.000000 -1.795951
    11 3.883688 -0.046782 0.431443 -0.051699 -0.018864 -0.672085
    12 1.719578 -0.000011 0.000009 0.000002 0.000013 -1.477149
    13 1.209183 -0.000004 0.000003 0.000000 0.000011 -1.391239
    14 3.859858 -0.137962 1.332466 0.160077 -0.013795 -0.792663
    15 1.719431 0.000002 -0.000004 0.000000 0.000000 -1.578971
    16 1.099676 -0.000006 0.000004 0.000000 0.000000 -1.439611
    17 0.806042 -0.348928 1.321258 -1.297456 -0.379023 -0.751564
    18 1.789782 0.000002 -0.000006 0.000000 0.000000 0.288881
    19 1.206999 0.000000 -0.000002 0.000000 0.000000 0.449501
    20 2.033356 1.000772 -1.937610 -0.104117 -0.097954 -1.638022
    21 6.028141 0.000000 -0.000002 -0.095183 0.565058 -2.588636
    22 11.692554 0.000000 -0.000001 -0.000002 0.000000 -1.357915
    23 11.481705 -0.000001 -0.000008 -1.205548 -0.354069 0.613793
    24 3.859676 -0.132545 1.193109 0.121612 -0.096285 -0.922064
    25 1.312559 -0.000004 -0.000001 0.000000 0.000000 -0.614202
    26 0.729367 0.000000 -0.000001 0.000000 0.000003 -1.378682
    27 3.942295 0.050347 0.431044 0.052427 -0.034080 -0.893744
    28 1.539106 0.000000 0.000001 0.000000 0.000000 -1.033143
    29 1.196321 -0.000004 -0.000002 -0.000003 0.000002 -1.390664
    30 3.883663 -0.050304 -0.431042 0.015688 -0.124349 -0.775366
    31 1.719584 0.000002 0.000006 0.000002 -0.007972 -1.588129
    32 1.209183 0.000004 0.000006 0.000000 -0.004460 -0.914505
    33 3.859833 -0.148919 -1.331283 0.137032 0.112660 -0.145634
    34 1.719427 0.000008 0.000011 0.000000 -0.006612 -0.973815
    35 1.099665 0.000002 0.000008 0.000001 -0.004209 -1.029706
    36 0.806023 -0.359832 -1.318336 1.307339 0.325292 -0.670078
    37 1.789780 -0.000006 -0.000006 0.019722 0.080232 0.520342
    38 1.207001 -0.000002 -0.000006 0.000000 0.000000 0.467620
    39 -7.826900 -19.866014 -5.776252 1.682092 -0.051164 0.035085
    40 0.000007 -1.946088 0.068031 0.000000 0.000000 0.000000
    41 0.000007 -3.415848 -1.741976 0.000000 0.000000 0.000000
    42 -0.000028 1.420049 -7.723435 0.000000 0.000000 0.000000
    43 1.292969 -6.652344 -31.890625 1.570788 0.000007 -0.000007
  time 10
    0 1.292969 -2.783203 -12.101563 -1.570760 -1.391893 -1.570827
    1 2.033348 1.000767 1.937660 2.856252 -0.086935 1.424553
    2 6.028145 0.000003 0.000002 -2.226901 -0.180019 -0.724787
    3 11.692553 0.000081 -0.000005 -0.000003 0.000000 -1.537636
    4 11.481672 -0.000089 -0.000024 1.132100 -0.730523 1.156059
    5 3.859701 -0.142417 -1.191975 -0.372600 0.151270 -0.938026
    6 1.312563 -0.000008 0.000006 0.000000 -0.000003 -1.267535
    7 0.729362 -0.000004 0.000003 0.000000 0.000000 -1.156046
    8 3.942327 0.046755 -0.431444 -0.282545 -0.012816 -0.829986
    9 1.539093 0.000006 -0.000007 0.000000 0.000000 -1.277062
    10 1.196323 -0.000004 0.000002 0.000000 0.000000 -1.795951
    11 3.883688 -0.046782 0.431443 -0.051699 -0.018864 -0.672085
    12 1.719578 -0.000011 0.000009 0.000002 0.000013 -1.477115
    13 1.209183 -0.000004 0.000003 0.000000 0.000011 -1.391239
    14 3.859858 -0.137962 1.332466 0.160077 -0.013795 -0.792663
    15 1.719431 0.000002 -0.000004 0.000000 0.000000 -1.578971
    16 1.099676 -0.000006 0.000004 0.000000 0.000000 -1.439611
    17 0.806042 -0.348928 1.321258 -1.297456 -0.379023 -0.751564
    18 1.789782 0.000002 -0.000006 0.000000 0.000000 0.288881
    19 1.206999 0.000000 -0.000002 0.000000 0.000000 0.449501
    20 2.033356 1.000772 -1.937610 -0.104117 -0.097954 -1.638022
    21 6.028141 0.000000 -0.000002 -0.125845 0.549829 -2.630330
    22 11.692554 0.000000 -0.000001 -0.000002 0.000000 -1.337302
    23 11.481705 -0.000001 -0.000008 -1.207417 -0.323070 0.607185
    24 3.859676 -0.132545 1.193109 0.121612 -0.096285 -0.922064
    25 1.312559 -0.000004 -0.000001 0.000000 0.000000 -0.614202
    26 0.729367 0.000000 -0.000001 0.000000 0.000003 -1.378682
    27 3.942295 0.050347 0.431044 0.052427 -0.034080 -0.893744
    28 1.539106 0.000000 0.000001 0.000000 0.000000 -1.033143
    29 1.196321 -0.000004 -0.000002 -0.000003 0.000002 -1.390664
    30 3.883663 -0.050304 -0.431042 0.015688 -0.124349 -0.775366
    31 1.719584 0.000002 0.000006 0.000002 -0.007972 -1.588129
    32 1.209183 0.000004 0.000006 0.000000 -0.004460 -0.914505
    33 3.859833 -0.148919 -1.331283 0.137032 0.112660 -0.145634
    34 1.719427 0.000008 0.000011 0.000000 -0.006612 -0.973815
    35 1.099665 0.000002 0.000008 0.000001 -0.004209 -1.029706
    36 0.806023 -0.359832 -1.318336 1.307339 0.325292 -0.670078
    37 1.789780 -0.000006 -0.000006 0.019722 0.080232 0.520342
    38 1.207001 -0.000002 -0.000006 0.000000 0.000000 0.467620
    39 -7.545642 -20.092584 -5.264517 1.657600 -0.038776 0.028019
    40 0.000007 -1.946088 0.068031 0.000000 0.000000 0.000000
    41 0.000007 -3.415848 -1.741976 0.000000 0.000000 0.000000
    42 -0.000028 1.420049 -7.723435 0.000000 0.000000 0.000000
    43 1.292969 -6.652344 -31.890625 1.570788 0.000007 -0.000007
  time 11
    0 1.292969 -2.783203 -12.101563 -1.570760 -1.391893 -1.570827
    1 2.033348 1.000767 1.937660 2.856252 -0.086935 1.424553
    2 6.028145 0.000003 0.000002 -2.206999 -0.160362 -0.650149
    3 11.692553 0.000081 -0.000005 -0.000003 0.000000 -1.516295
    4 11.481672 -0.000089 -0.000024 1.067818 -0.681159 1.177637
    5 3.859701 -0.142417 -1.191975 -0.372600 0.151270 -0.938026
    6 1.312563 -0.000008 0.000006 0.000000 -0.000003 -1.267535
    7 0.729362 -0.000004 0.000003 0.000000 0.000000 -1.156046
    8 3.942327 0.046755 -0.431444 -0.282545 -0.012816 -0.829986
    9 1.539093 0.000006 -0.000007 0.000000 0.000000 -1.277062
    10 1.196323 -0.000004 0.000002 0.000000 0.000000 -1.795951
    11 3.883688 -0.046782 0.431443 -0.051699 -0.018864 -0.672085
    12 1.719578 -0.000011 0.000009 0.000002 0.000013 -1.477115
    13 1.209183 -0.000004 0.000003 0.000000 0.000011 -1.391274
    14 3.859858 -0.137962 1.332466 0.160077 -0.013795 -0.792663
    15 1.719431 0.000002 -0.000004 0.000000 0.000000 -1.578971
    16 1.099676 -0.000006 0.000004 0.000000 0.000000 -1.439611
    17 0.806042 -0.348928 1.321258 -1.297456 -0.379023 -0.751564
    18 1.789782 0.000002 -0.000006 0.000000 0.000000 0.288881
    19 1.206999 0.000000 -0.000002 0.000000 0.000000 0.449501
    20 2.033356 1.000772 -1.937610 -0.104117 -0.097954 -1.638022
    21 6.028141 0.000000 -0.000002 -0.151663 0.534053 -2.662543
    22 11.692554 0.000000 -0.000001 -0.000002 0.000000 -1.315656
    23 11.481705 -0.000001 -0.000008 -1.205851 -0.292798 0.590919
    24 3.859676 -0.132545 1.193109 0.121612 -0.096285 -0.922064
    25 1.312559 -0.000004 -0.000001 0.000000 0.000000 -0.614202
    26 0.729367 0.000000 -0.000001 0.000000 0.000003 -1.378682
    27 3.942295 0.050347 0.431044 0.052427 -0.034080 -0.893744
    28 1.539106 0.000000 0.000001 0.000000 0.000000 -1.033143
    29 1.196321 -0.000004 -0.000002 -0.000003 0.000002 -1.390664
    30 3.883663 -0.050304 -0.431042 0.015688 -0.124349 -0.775366
    31 1.719584 0.000002 0.000006 0.000002 -0.007972 -1.588129
    32 1.209183 0.000004 0.000006 0.000000 -0.004460 -0.914505
    33 3.859833 -0.148919 -1.331283 0.137032 0.112660 -0.145634
    34 1.719427 0.000008 0.000011 0.000000 -0.006612 -0.973815
    35 1.099665 0.000002 0.000008 0.000001 -0.004209 -1.029706
    36 0.806023 -0.359832 -1.318336 1.307339 0.325292 -0.670078
    37 1.789780 -0.000006 -0.000006 0.019722 0.080232 0.520342
    38 1.207001 -0.000002 -0.000006 0.000000 0.000000 0.467620
    39 -7.283915 -20.295715 -4.877787 1.631491 -0.029288 0.022393
    40 0.000007 -1.946088 0.068031 0.000000 0.000000 0.000000
    41 0.000007 -3.415848 -1.741976 0.000000 0.000000 0.000000
    42 -0.000028 1.420049 -7.723435 0.000000 0.000000 0.000000
    43 1.292969 -6.652344 -31.890625 1.570788 0.000007 -0.000007
  time 12
    0 1.292969 -2.783203 -12.101563 -1.570760 -1.391893 -1.570827
    1 2.033348 1.000767 1.937660 2.856252 -0.086935 1.424553
    2 6.028145 0.000003 0.000002 -2.185149 -0.141403 -0.583185
    3 11.692553 0.000081 -0.000005 -0.000003 0.000000 -1.495896
    4 11.481672 -0.000089 -0.000024 1.010470 -0.636802 1.190422
    5 3.859701 -0.142417 -1.191975 -0.372600 0.151270 -0.938026
    6 1.312563 -0.000008 0.000006 0.000000 -0.000003 -1.267535
    7 0.729362 -0.000004 0.000003 0.000000 0.000000 -1.156046
    8 3.942327 0.046755 -0.431444 -0.282545 -0.012816 -0.829986
    9 1.539093 0.000006 -0.000007 0.000000 0.000000 -1.277062
    10 1.196323 -0.000004 0.000002 0.000000 0.000000 -1.795951
    11 3.883688 -0.046782 0.431443 -0.051699 -0.018864 -0.672085
    12 1.719578 -0.000011 0.000009 0.000002 0.000013 -1.477115
    13 1.209183 -0.000004 0.000003 0.000000 0.000011 -1.391239
    14 3.859858 -0.137962 1.332466 0.160077 -0.013795 -0.792663
    15 1.719431 0.000002 -0.000004 0.000000 0.000000 -1.578971
    16 1.099676 -0.000006 0.000004 0.000000 0.000000 -1.439611
    17 0.806042 -0.348928 1.321258 -1.297456 -0.379023 -0.751564
    18 1.789782 0.000002 -0.000006 0.000000 0.000000 0.288881
    19 1.206999 0.000000 -0.000002 0.000000 0.000000 0.449501
    20 2.033356 1.000772 -1.937610 -0.104117 -0.097954 -1.638022
    21 6.028141 0.000000 -0.000002 -0.173209 0.519404 -2.689137
    22 11.692554 0.000000 -0.000001 -0.000002 0.000000 -1.295108
    23 11.481705 -0.000001 -0.000008 -1.204386 -0.264823 0.572233
    24 3.859676 -0.132545 1.193109 0.121612 -0.096285 -0.922064
    25 1.312559 -0.000004 -0.000001 0.000000 0.000000 -0.614202
    26 0.729367 0.000000 -0.000001 0.000000 0.000003 -1.378682
    27 3.942295 0.050347 0.431044 0.052427 -0.034080 -0.893744
    28 1.539106 0.000000 0.000001 0.000000 0.000000 -1.033143
    29 1.196321 -0.000004 -0.000002 -0.000003 0.000002 -1.390664
    30 3.883663 -0.050304 -0.431042 0.015688 -0.124349 -0.775366
    31 1.719584 0.000002 0.000006 0.000002 -0.007972 -1.588129
    32 1.209183 0.000004 0.000006 0.000000 -0.004460 -0.914505
    33 3.859833 -0.148919 -1.331283 0.137032 0.112660 -0.145634
    34 1.719427 0.000008 0.000011 0.000000 -0.006612 -0.973815
    35 1.099665 0.000002 0.000008 0.000001 -0.004209 -1.029706
    36 0.806023 -0.359832 -1.318336 1.307339 0.325292 -0.670078
    37 1.789780 -0.000006 -0.000006 0.019722 0.080232 0.520342
    38 1.207001 -0.000002 -0.000006 0.000000 0.000000 0.467620
    39 -7.053439 -20.463689 -4.553558 1.606341 -0.021416 0.017315
    40 0.000007 -1.946088 0.068031 0.000000 0.000000 0.000000
    41 0.000007 -3.415848 -1.741976 0.000000 0.000000 0.000000
    42 -0.000028 1.420049 -7.723435 0.000000 0.000000 0.000000
    43 1.292969 -6.652344 -31.890625 1.570788 0.000007 -0.000007
  time 13
    0 1.292969 -2.783203 -12.101563 -1.570760 -1.391893 -1.570827
    1 2.033348 1.000767 1.937660 2.856252 -0.086935 1.424553
    2 6.028145 0.000003 0.000002 -2.165300 -0.126627 -0.529758
    3 11.692553 0.000081 -0.000005 -0.000003 0.000000 -1.474995
    4 11.481672 -0.000089 -0.000024 0.965491 -0.602699 1.190422
    5 3.859701 -0.142417 -1.191975 -0.372600 0.151270 -0.938026
    6 1.312563 -0.000008 0.000006 0.000000 -0.000003 -1.267535
    7 0.729362 -0.000004 0.000003 0.000000 0.000000 -1.156046
    8 3.942327 0.046755 -0.431444 -0.282545 -0.012816 -0.829986
    9 1.539093 0.000006 -0.000007 0.000000 0.000000 -1.277062
    10 1.196323 -0.000004 0.000002 0.000000 0.000000 -1.795951
    11 3.883688 -0.046782 0.431443 -0.051699 -0.018864 -0.672085
    12 1.719578 -0.000011 0.000009 0.000002 0.000013 -1.477115
    13 1.209183 -0.000004 0.000003 0.000000 0.000011 -1.391239
    14 3.859858 -0.137962 1.332466 0.160077 -0.013795 -0.792663
    15 1.719431 0.000002 -0.000004 0.000000 0.000000 -1.578971
    16 1.099676 -0.000006 0.000004 0.000000 0.000000 -1.439611
    17 0.806042 -0.348928 1.321258 -1.297456 -0.379023 -0.751564
    18 1.789782 0.000002 -0.000006 0.000000 0.000000 0.288881
    19 1.206999 0.000000 -0.000002 0.000000 0.000000 0.449501
    20 2.033356 1.000772 -1.937610 -0.104117 -0.097954 -1.638022
    21 6.028141 0.000000 -0.000002 -0.190166 0.506590 -2.709102
    22 11.692554 0.000000 -0.000001 -0.000002 0.000000 -1.273979
    23 11.481705 -0.000001 -0.000008 -1.202567 -0.239985 0.549245
    24 3.859676 -0.132545 1.193109 0.121612 -0.096285 -0.922064
    25 1.312559 -0.000004 -0.000001 0.000000 0.000000 -0.614202
    26 0.729367 0.000000 -0.000001 0.000000 0.000003 -1.378682
    27 3.942295 0.050347 0.431044 0.052427 -0.034080 -0.893744
    28 1.539106 0.000000 0.000001 0.000000 0.000000 -1.033143
    29 1.196321 -0.000004 -0.000002 -0.000003 0.000002 -1.390664
    30 3.883663 -0.050304 -0.431042 0.015688 -0.124349 -0.775366
    31 1.719584 0.000002 0.000006 0.000002 -0.007972 -1.588129
    32 1.209183 0.000004 0.000006 0.000000 -0.004460 -0.914505
    33 3.859833 -0.148919 -1.331283 0.137032 0.112660 -0.145634
    34 1.719427 0.000008 0.000011 0.000000 -0.006612 -0.973815
    35 1.099665 0.000002 0.000008 0.000001 -0.004209 -1.029706
    36 0.806023 -0.359832 -1.318336 1.307339 0.325292 -0.670078
    37 1.789780 -0.000006 -0.000006 0.019722 0.080232 0.520342
    38 1.207001 -0.000002 -0.000006 0.000000 0.000000 0.467620
    39 -6.877653 -20.612131 -4.330895 1.582960 -0.014746 0.012650
    40 0.000007 -1.946088 0.068031 0.000000 0.000000 0.000000
    41 0.000007 -3.415848 -1.741976 0.000000 0.000000 0.000000
    42 -0.000028 1.420049 -7.723435 0.000000 0.000000 0.000000
    43 1.292969 -6.652344 -31.890625 1.570788 0.000007 -0.000007
  time 14
    0 1.292969 -2.783203 -12.101563 -1.570760 -1.391893 -1.570827
    1 2.033348 1.000767 1.937660 2.856252 -0.086935 1.424553
    2 6.028145 0.000003 0.000002 -2.152050 -0.118227 -0.496312
    3 11.692553 0.000081 -0.000005 -0.000003 0.000000 -1.460747
    4 11.481672 -0.000089 -0.000024 0.937379 -0.582128 1.185943
    5 3.859701 -0.142417 -1.191975 -0.372600 0.151270 -0.938026
    6 1.312563 -0.000008 0.000006 0.000000 -0.000003 -1.267535
    7 0.729362 -0.000004 0.000003 0.000000 0.000000 -1.156046
    8 3.942327 0.046755 -0.431444 -0.282545 -0.012816 -0.829986
    9 1.539093 0.000006 -0.000007 0.000000 0.000000 -1.277062
    10 1.196323 -0.000004 0.000002 0.000000 0.000000 -1.795951
    11 3.883688 -0.046782 0.431443 -0.051699 -0.018864 -0.672085
    12 1.719578 -0.000011 0.000009 0.000002 0.000013 -1.477115
    13 1.209183 -0.000004 0.000003 0.000000 0.000011 -1.391274
    14 3.859858 -0.137962 1.332466 0.160077 -0.013795 -0.792663
    15 1.719431 0.000002 -0.000004 0.000000 0.000000 -1.578971
    16 1.099676 -0.000006 0.000004 0.000000 0.000000 -1.439611
    17 0.806042 -0.348928 1.321258 -1.297456 -0.379023 -0.751564
    18 1.789782 0.000002 -0.000006 0.000000 0.000000 0.288881
    19 1.206999 0.000000 -0.000002 0.000000 0.000000 0.449501
    20 2.033356 1.000772 -1.937610 -0.104117 -0.097954 -1.638022
    21 6.028141 0.000000 -0.000002 -0.200238 0.498252 -2.720428
    22 11.692554 0.000000 -0.000001 -0.000002 0.000000 -1.260668
    23 11.481705 -0.000001 -0.000008 -1.202567 -0.221951 0.531983
    24 3.859676 -0.132545 1.193109 0.121612 -0.096285 -0.922064
    25 1.312559 -0.000004 -0.000001 0.000000 0.000000 -0.614202
    26 0.729367 0.000000 -0.000001 0.000000 0.000003 -1.378682
    27 3.942295 0.050347 0.431044 0.052427 -0.034080 -0.893744
    28 1.539106 0.000000 0.000001 0.000000 0.000000 -1.033143
    29 1.196321 -0.000004 -0.000002 -0.000003 0.000002 -1.390664
    30 3.883663 -0.050304 -0.431042 0.015688 -0.124349 -0.775366
    31 1.719584 0.000002 0.000006 0.000002 -0.007972 -1.588129
    32 1.209183 0.000004 0.000006 0.000000 -0.004460 -0.914505
    33 3.859833 -0.148919 -1.331283 0.137032 0.112660 -0.145634
    34 1.719427 0.000008 0.000011 0.000000 -0.006612 -0.973815
    35 1.099665 0.000002 0.000008 0.000001 -0.004209 -1.029706
    36 0.806023 -0.359832 -1.318336 1.307339 0.325292 -0.670078
    37 1.789780 -0.000006 -0.000006 0.019722 0.080232 0.520342
    38 1.207001 -0.000002 -0.000006 0.000000 0.000000 0.467620
    39 -6.760462 -20.698071 -4.201985 1.565941 -0.009360 0.008396
    40 0.000007 -1.946088 0.068031 0.000000 0.000000 0.000000
    41 0.000007 -3.415848 -1.741976 0.000000 0.000000 0.000000
    42 -0.000028 1.420049 -7.723435 0.000000 0.000000 0.000000
    43 1.292969 -6.652344 -31.890625 1.570788 0.000007 -0.000007
  time 15
    0 1.292969 -2.783203 -12.101563 -1.570760 -1.391893 -1.570827
    1 2.033348 1.000767 1.937660 2.856252 -0.086935 1.424553
    2 6.028145 0.000003 0.000002 -2.143289 -0.112615 -0.475753
    3 11.692553 0.000081 -0.000005 -0.000003 0.000000 -1.452963
    4 11.481672 -0.000089 -0.000024 0.918863 -0.568718 1.182930
    5 3.859701 -0.142417 -1.191975 -0.372600 0.151270 -0.938026
    6 1.312563 -0.000008 0.000006 0.000000 -0.000003 -1.267535
    7 0.729362 -0.000004 0.000003 0.000000 0.000000 -1.156046
    8 3.942327 0.046755 -0.431444 -0.282545 -0.012816 -0.829986
    9 1.539093 0.000006 -0.000007 0.000000 0.000000 -1.277062
    10 1.196323 -0.000004 0.000002 0.000000 0.000000 -1.795951
    11 3.883688 -0.046782 0.431443 -0.051699 -0.018864 -0.672085
    12 1.719578 -0.000011 0.000009 0.000002 0.000013 -1.477115
    13 1.209183 -0.000004 0.000003 0.000000 0.000011 -1.391239
    14 3.859858 -0.137962 1.332466 0.160077 -0.013795 -0.792663
    15 1.719431 0.000002 -0.000004 0.000000 0.000000 -1.578971
    16 1.099676 -0.000006 0.000004 0.000000 0.000000 -1.439611
    17 0.806042 -0.348928 1.321258 -1.297456 -0.379023 -0.751564
    18 1.789782 0.000002 -0.000006 0.000000 0.000000 0.288881
    19 1.206999 0.000000 -0.000002 0.000000 0.000000 0.449501
    20 2.033356 1.000772 -1.937610 -0.104117 -0.097954 -1.638022
    21 6.028141 0.000000 -0.000002 -0.206231 0.492843 -2.726552
    22 11.692554 0.000000 -0.000001 -0.000002 0.000000 -1.254077
    23 11.481705 -0.000001 -0.000008 -1.204285 -0.209153 0.522326
    24 3.859676 -0.132545 1.193109 0.121612 -0.096285 -0.922064
    25 1.312559 -0.000004 -0.000001 0.000000 0.000000 -0.614202
    26 0.729367 0.000000 -0.000001 0.000000 0.000003 -1.378682
    27 3.942295 0.050347 0.431044 0.052427 -0.034080 -0.893744
    28 1.539106 0.000000 0.000001 0.000000 0.000000 -1.033143
    29 1.196321 -0.000004 -0.000002 -0.000003 0.000002 -1.390664
    30 3.883663 -0.050304 -0.431042 0.015688 -0.124349 -0.775366
    31 1.719584 0.000002 0.000006 0.000002 -0.007972 -1.588129
    32 1.209183 0.000004 0.000006 0.000000 -0.004460 -0.914505
    33 3.859833 -0.148919 -1.331283 0.137032 0.112660 -0.145634
    34 1.719427 0.000008 0.000011 0.000000 -0.006612 -0.973815
    35 1.099665 0.000002 0.000008 0.000001 -0.004209 -1.029706
    36 0.806023 -0.359832 -1.318336 1.307339 0.325292 -0.670078
    37 1.789780 -0.000006 -0.000006 0.019722 0.080232 0.520342
    38 1.207001 -0.000002 -0.000006 0.000000 0.000000 0.467620
    39 -6.678428 -20.741041 -4.119951 1.555235 -0.005175 0.004828
    40 0.000007 -1.946088 0.068031 0.000000 0.000000 0.000000
    41 0.000007 -3.415848 -1.741976 0.000000 0.000000 0.000000
    42 -0.000028 1.420049 -7.723435 0.000000 0.000000 0.000000
    43 1.292969 -6.652344 -31.890625 1.570788 0.000007 -0.000007
  time 16
    0 1.292969 -2.783203 -12.101563 -1.570760 -1.391893 -1.570827
    1 2.033348 1.000767 1.937660 2.856252 -0.086935 1.424553
    2 6.028145 0.000003 0.000002 -2.137610 -0.108332 -0.463229
    3 11.692553 0.000081 -0.000005 -0.000003 0.000000 -1.449762
    4 11.481672 -0.000089 -0.000024 0.906156 -0.559009 1.182930
    5 3.859701 -0.142417 -1.191975 -0.372600 0.151270 -0.938026
    6 1.312563 -0.000008 0.000006 0.000000 -0.000003 -1.267510
    7 0.729362 -0.000004 0.000003 0.000000 0.000000 -1.156046
    8 3.942327 0.046755 -0.431444 -0.282545 -0.012816 -0.829986
    9 1.539093 0.000006 -0.000007 0.000000 0.000000 -1.277062
    10 1.196323 -0.000004 0.000002 0.000000 0.000000 -1.795951
    11 3.883688 -0.046782 0.431443 -0.051699 -0.018864 -0.672085
    12 1.719578 -0.000011 0.000009 0.000002 0.000013 -1.477115
    13 1.209183 -0.000004 0.000003 0.000000 0.000011 -1.391239
    14 3.859858 -0.137962 1.332466 0.160077 -0.013795 -0.792663
    15 1.719431 0.000002 -0.000004 0.000000 0.000000 -1.578971
    16 1.099676 -0.000006 0.000004 0.000000 0.000000 -1.439611
    17 0.806042 -0.348928 1.321258 -1.297456 -0.379023 -0.751564
    18 1.789782 0.000002 -0.000006 0.000000 0.000000 0.288881
    19 1.206999 0.000000 -0.000002 0.000000 0.000000 0.449501
    20 2.033356 1.000772 -1.937610 -0.104117 -0.097954 -1.638022
    21 6.028141 0.000000 -0.000002 -0.209864 0.489398 -2.730075
    22 11.692554 0.000000 -0.000001 -0.000002 0.000000 -1.252139
    23 11.481705 -0.000001 -0.000008 -1.205851 -0.201480 0.519705
    24 3.859676 -0.132545 1.193109 0.121612 -0.096285 -0.922064
    25 1.312559 -0.000004 -0.000001 0.000000 0.000000 -0.614202
    26 0.729367 0.000000 -0.000001 0.000000 0.000003 -1.378682
    27 3.942295 0.050347 0.431044 0.052427 -0.034080 -0.893744
    28 1.539106 0.000000 0.000001 0.000000 0.000000 -1.033143
    29 1.196321 -0.000004 -0.000002 -0.000003 0.000002 -1.390664
    30 3.883663 -0.050304 -0.431042 0.015688 -0.124349 -0.775366
    31 1.719584 0.000002 0.000006 0.000002 -0.007972 -1.588129
    32 1.209183 0.000004 0.000006 0.000000 -0.004460 -0.914505
    33 3.859833 -0.148919 -1.331283 0.137032 0.112660 -0.145634
    34 1.719427 0.000008 0.000011 0.000000 -0.006612 -0.973815
    35 1.099665 0.000002 0.000008 0.000001 -0.004209 -1.029706
    36 0.806023 -0.359832 -1.318336 1.307339 0.325292 -0.670078
    37 1.789780 -0.000006 -0.000006 0.019722 0.080232 0.520342
    38 1.207001 -0.000002 -0.000006 0.000000 0.000000 0.467620
    39 -6.615926 -20.760573 -4.065262 1.549983 -0.002068 0.001947
    40 0.000007 -1.946088 0.068031 0.000000 0.000000 0.000000
    41 0.000007 -3.415848 -1.741976 0.000000 0.000000 0.000000
    42 -0.000028 1.420049 -7.723435 0.000000 0.000000 0.000000
    43 1.292969 -6.652344 -31.890625 1.570788 0.000007 -0.000007
  time 17
    0 1.292969 -2.783203 -12.101563 -1.570760 -1.391893 -1.570827
    1 2.033348 1.000767 1.937660 2.856252 -0.086935 1.424553
    2 6.028145 0.000003 0.000002 -2.133986 -0.104813 -0.456206
    3 11.692553 0.000081 -0.000005 -0.000003 0.000000 -1.450013
    4 11.481672 -0.000089 -0.000024 0.897310 -0.551333 1.186269
    5 3.859701 -0.142417 -1.191975 -0.372600 0.151270 -0.938026
    6 1.312563 -0.000008 0.000006 0.000000 -0.000003 -1.267535
    7 0.729362 -0.000004 0.000003 0.000000 0.000000 -1.156046
    8 3.942327 0.046755 -0.431444 -0.282545 -0.012816 -0.829986
    9 1.539093 0.000006 -0.000007 0.000000 0.000000 -1.277062
    10 1.196323 -0.000004 0.000002 0.000000 0.000000 -1.795951
    11 3.883688 -0.046782 0.431443 -0.051699 -0.018864 -0.672085
    12 1.719578 -0.000011 0.000009 0.000002 0.000013 -1.477115
    13 1.209183 -0.000004 0.000003 0.000000 0.000011 -1.391239
    14 3.859858 -0.137962 1.332466 0.160077 -0.013795 -0.792663
    15 1.719431 0.000002 -0.000004 0.000000 0.000000 -1.578971
    16 1.099676 -0.000006 0.000004 0.000000 0.000000 -1.439611
    17 0.806042 -0.348928 1.321258 -1.297456 -0.379023 -0.751564
    18 1.789782 0.000002 -0.000006 0.000000 0.000000 0.288881
    19 1.206999 0.000000 -0.000002 0.000000 0.000000 0.449501
    20 2.033356 1.000772 -1.937610 -0.104117 -0.097954 -1.638022
    21 6.028141 0.000000 -0.000002 -0.212223 0.487112 -2.732088
    22 11.692554 0.000000 -0.000001 -0.000002 0.000000 -1.252203
    23 11.481705 -0.000001 -0.000008 -1.207316 -0.196188 0.519420
    24 3.859676 -0.132545 1.193109 0.121612 -0.096285 -0.922064
    25 1.312559 -0.000004 -0.000001 0.000000 0.000000 -0.614202
    26 0.729367 0.000000 -0.000001 0.000000 0.000003 -1.378682
    27 3.942295 0.050347 0.431044 0.052427 -0.034080 -0.893744
    28 1.539106 0.000000 0.000001 0.000000 0.000000 -1.033143
    29 1.196321 -0.000004 -0.000002 -0.000003 0.000002 -1.390664
    30 3.883663 -0.050304 -0.431042 0.015688 -0.124349 -0.775366
    31 1.719584 0.000002 0.000006 0.000002 -0.007972 -1.588129
    32 1.209183 0.000004 0.000006 0.000000 -0.004460 -0.914505
    33 3.859833 -0.148919 -1.331283 0.137032 0.112660 -0.145634
    34 1.719427 0.000008 0.000011 0.000000 -0.006612 -0.973815
    35 1.099665 0.000002 0.000008 0.000001 -0.004209 -1.029706
    36 0.806023 -0.359832 -1.318336 1.307339 0.325292 -0.670078
    37 1.789780 -0.000006 -0.000006 0.019722 0.080232 0.520342
    38 1.207001 -0.000002 -0.000006 0.000000 0.000000 0.467620
    39 -6.565143 -20.768385 -4.022292 1.549326 0.000004 -0.000043
    40 0.000007 -1.946088 0.068031 0.000000 0.000000 0.000000
    41 0.000007 -3.415848 -1.741976 0.000000 0.000000 0.000000
    42 -0.000028 1.420049 -7.723435 0.000000 0.000000 0.000000
    43 1.292969 -6.652344 -31.890625 1.570788 0.000007 -0.000007
  time 18
    0 1.292969 -2.783203 -12.101563 -1.570760 -1.391893 -1.570827
    1 2.033348 1.000767 1.937660 2.856252 -0.086935 1.424553
    2 6.028145 0.000003 0.000002 -2.131931 -0.101758 -0.453021
    3 11.692553 0.000081 -0.000005 -0.000003 0.000000 -1.452901
    4 11.481672 -0.000089 -0.000024 0.891201 -0.545052 1.192620
    5 3.859701 -0.142417 -1.191975 -0.372600 0.151270 -0.938026
    6 1.312563 -0.000008 0.000006 0.000000 -0.000003 -1.267535
    7 0.729362 -0.000004 0.000003 0.000000 0.000000 -1.156046
    8 3.942327 0.046755 -0.431444 -0.282545 -0.012816 -0.829986
    9 1.539093 0.000006 -0.000007 0.000000 0.000000 -1.277062
    10 1.196323 -0.000004 0.000002 0.000000 0.000000 -1.795951
    11 3.883688 -0.046782 0.431443 -0.051699 -0.018864 -0.672085
    12 1.719578 -0.000011 0.000009 0.000002 0.000013 -1.477115
    13 1.209183 -0.000004 0.000003 0.000000 0.000011 -1.391239
    14 3.859858 -0.137962 1.332466 0.160077 -0.013795 -0.792663
    15 1.719431 0.000002 -0.000004 0.000000 0.000000 -1.578971
    16 1.099676 -0.000006 0.000004 0.000000 0.000000 -1.439611
    17 0.806042 -0.348928 1.321258 -1.297456 -0.379023 -0.751564
    18 1.789782 0.000002 -0.000006 0.000000 0.000000 0.288881
    19 1.206999 0.000000 -0.000002 0.000000 0.000000 0.449501
    20 2.033356 1.000772 -1.937610 -0.104117 -0.097954 -1.638022
    21 6.028141 0.000000 -0.000002 -0.213051 0.486661 -2.733598
    22 11.692554 0.000000 -0.000001 -0.000002 0.000000 -1.257114
    23 11.481705 -0.000001 -0.000008 -1.210954 -0.196860 0.531185
    24 3.859676 -0.132545 1.193109 0.121612 -0.096285 -0.922064
    25 1.312559 -0.000004 -0.000001 0.000000 0.000000 -0.614202
    26 0.729367 0.000000 -0.000001 0.000000 0.000003 -1.378726
    27 3.942295 0.050347 0.431044 0.052427 -0.034080 -0.893744
    28 1.539106 0.000000 0.000001 0.000000 0.000000 -1.033143
    29 1.196321 -0.000004 -0.000002 -0.000003 0.000002 -1.390664
    30 3.883663 -0.050304 -0.431042 0.015688 -0.124349 -0.775366
    31 1.719584 0.000002 0.000006 0.000002 -0.007972 -1.588129
    32 1.209183 0.000004 0.000006 0.000000 -0.004460 -0.914505
    33 3.859833 -0.148919 -1.331283 0.137032 0.112660 -0.145634
    34 1.719427 0.000008 0.000011 0.000000 -0.006612 -0.973815
    35 1.099665 0.000002 0.000008 0.000001 -0.004209 -1.029706
    36 0.806023 -0.359832 -1.318336 1.307339 0.325292 -0.670078
    37 1.789780 -0.000006 -0.000006 0.019722 0.080232 0.520342
    38 1.207001 -0.000002 -0.000006 0.000000 0.000000 0.467620
    39 -6.526079 -20.764479 -3.991041 1.552407 0.001164 -0.001209
    40 0.000007 -1.946088 0.068031 0.000000 0.000000 0.000000
    41 0.000007 -3.415848 -1.741976 0.000000 0.000000 0.000000
    42 -0.000028 1.420049 -7.723435 0.000000 0.000000 0.000000
    43 1.292969 -6.652344 -31.890625 1.570788 0.000007 -0.000007
  time 19
    0 1.292969 -2.783203 -12.101563 -1.570760 -1.391893 -1.570827
    1 2.033348 1.000767 1.937660 2.856252 -0.086935 1.424553
    2 6.028145 0.000003 0.000002 -2.131012 -0.099168 -0.452442
    3 11.692553 0.000081 -0.000005 -0.000003 0.000000 -1.457483
    4 11.481672 -0.000089 -0.000024 0.887152 -0.539803 1.201211
    5 3.859701 -0.142417 -1.191975 -0.372600 0.151270 -0.938026
    6 1.312563 -0.000008 0.000006 0.000000 -0.000003 -1.267535
    7 0.729362 -0.000004 0.000003 0.000000 0.000000 -1.156046
    8 3.942327 0.046755 -0.431444 -0.282545 -0.012816 -0.829986
    9 1.539093 0.000006 -0.000007 0.000000 0.000000 -1.277062
    10 1.196323 -0.000004 0.000002 0.000000 0.000000 -1.795951
    11 3.883688 -0.046782 0.431443 -0.051699 -0.018864 -0.672085
    12 1.719578 -0.000011 0.000009 0.000002 0.000013 -1.477115
    13 1.209183 -0.000004 0.000003 0.000000 0.000011 -1.391239
    14 3.859858 -0.137962 1.332466 0.160077 -0.013795 -0.792663
    15 1.719431 0.000002 -0.000004 0.000000 0.000000 -1.578971
    16 1.099676 -0.000006 0.000004 0.000000 0.000000 -1.439611
    17 0.806042 -0.348928 1.321258 -1.297456 -0.379023 -0.751564
    18 1.789782 0.000002 -0.000006 0.000000 0.000000 0.288881
    19 1.206999 0.000000 -0.000002 0.000000 0.000000 0.449501
    20 2.033356 1.000772 -1.937610 -0.104117 -0.097954 -1.638022
    21 6.028141 0.000000 -0.000002 -0.213370 0.486693 -2.734605
    22 11.692554 0.000000 -0.000001 -0.000002 0.000000 -1.262219
    23 11.481705 -0.000001 -0.000008 -1.213126 -0.198876 0.542351
    24 3.859676 -0.132545 1.193109 0.121612 -0.096285 -0.922064
    25 1.312559 -0.000004 -0.000001 0.000000 0.000000 -0.614202
    26 0.729367 0.000000 -0.000001 0.000000 0.000003 -1.378682
    27 3.942295 0.050347 0.431044 0.052427 -0.034080 -0.893744
    28 1.539106 0.000000 0.000001 0.000000 0.000000 -1.033143
    29 1.196321 -0.000004 -0.000002 -0.000003 0.000002 -1.390664
    30 3.883663 -0.050304 -0.431042 0.015688 -0.124349 -0.775366
    31 1.719584 0.000002 0.000006 0.000002 -0.007972 -1.588129
    32 1.209183 0.000004 0.000006 0.000000 -0.004460 -0.914505
    33 3.859833 -0.148919 -1.331283 0.137032 0.112660 -0.145634
    34 1.719427 0.000008 0.000011 0.000000 -0.006612 -0.973815
    35 1.099665 0.000002 0.000008 0.000001 -0.004209 -1.029706
    36 0.806023 -0.359832 -1.318336 1.307339 0.325292 -0.670078
    37 1.789780 -0.000006 -0.000006 0.019722 0.080232 0.520342
    38 1.207001 -0.000002 -0.000006 0.000000 0.000000 0.467620
    39 -6.498735 -20.756666 -3.963696 1.558063 0.001661 -0.001690
    40 0.000007 -1.946088 0.068031 0.000000 0.000000 0.000000
    41 0.000007 -3.415848 -1.741976 0.000000 0.000000 0.000000
    42 -0.000028 1.420049 -7.723435 0.000000 0.000000 0.000000
    43 1.292969 -6.652344 -31.890625 1.570788 0.000007 -0.000007
  time 20
    0 1.292969 -2.783203 -12.101563 -1.570760 -1.391893 -1.570827
    1 2.033348 1.000767 1.937660 2.856252 -0.086935 1.424553
    2 6.028145 0.000003 0.000002 -2.130687 -0.097076 -0.453311
    3 11.692553 0.000081 -0.000005 -0.000003 0.000000 -1.462881
    4 11.481672 -0.000089 -0.000024 0.884566 -0.535616 1.210616
    5 3.859701 -0.142417 -1.191975 -0.372600 0.151270 -0.938026
    6 1.312563 -0.000008 0.000006 0.000000 -0.000003 -1.267535
    7 0.729362 -0.000004 0.000003 0.000000 0.000000 -1.156046
    8 3.942327 0.046755 -0.431444 -0.282545 -0.012816 -0.829986
    9 1.539093 0.000006 -0.000007 0.000000 0.000000 -1.277062
    10 1.196323 -0.000004 0.000002 0.000000 0.000000 -1.795951
    11 3.883688 -0.046782 0.431443 -0.051699 -0.018864 -0.672085
    12 1.719578 -0.000011 0.000009 0.000002 0.000013 -1.477115
    13 1.209183 -0.000004 0.000003 0.000000 0.000011 -1.391239
    14 3.859858 -0.137962 1.332466 0.160077 -0.013795 -0.792663
    15 1.719431 0.000002 -0.000004 0.000000 0.000000 -1.578971
    16 1.099676 -0.000006 0.000004 0.000000 0.000000 -1.439611
    17 0.806042 -0.348928 1.321258 -1.297456 -0.379023 -0.751564
    18 1.789782 0.000002 -0.000006 0.000000 0.000000 0.288881
    19 1.206999 0.000000 -0.000002 0.000000 0.000000 0.449501
    20 2.033356 1.000772 -1.937610 -0.104117 -0.097954 -1.638022
    21 6.028141 0.000000 -0.000002 -0.213243 0.487273 -2.735360
    22 11.692554 0.000000 -0.000001 -0.000002 0.000000 -1.267776
    23 11.481705 -0.000001 -0.000008 -1.215601 -0.202096 0.554572
    24 3.859676 -0.132545 1.193109 0.121612 -0.096285 -0.922064
    25 1.312559 -0.000004 -0.000001 0.000000 0.000000 -0.614202
    26 0.729367 0.000000 -0.000001 0.000000 0.000003 -1.378682
    27 3.942295 0.050347 0.431044 0.052427 -0.034080 -0.893744
    28 1.539106 0.000000 0.000001 0.000000 0.000000 -1.033143
    29 1.196321 -0.000004 -0.000002 -0.000003 0.000002 -1.390664
    30 3.883663 -0.050304 -0.431042 0.015688 -0.124349 -0.775366
    31 1.719584 0.000002 0.000006 0.000002 -0.007972 -1.588092
    32 1.209183 0.000004 0.000006 0.000000 -0.004460 -0.914505
    33 3.859833 -0.148919 -1.331283 0.137032 0.112660 -0.145634
    34 1.719427 0.000008 0.000011 0.000000 -0.006612 -0.973815
    35 1.099665 0.000002 0.000008 0.000001 -0.004209 -1.029706
    36 0.806023 -0.359832 -1.318336 1.307339 0.325292 -0.670078
    37 1.789780 -0.000006 -0.000006 0.019722 0.080232 0.520342
    38 1.207001 -0.000002 -0.000006 0.000000 0.000000 0.467620
    39 -6.479203 -20.744947 -3.936352 1.564577 0.001578 -0.001690
    40 0.000007 -1.946088 0.068031 0.000000 0.000000 0.000000
    41 0.000007 -3.415848 -1.741976 0.000000 0.000000 0.000000
    42 -0.000028 1.420049 -7.723435 0.000000 0.000000 0.000000
    43 1.292969 -6.652344 -31.890625 1.570788 0.000007 -0.000007
  time 21
    0 1.292969 -2.783203 -12.101563 -1.570760 -1.391893 -1.570827
    1 2.033348 1.000767 1.937660 2.856252 -0.086935 1.424553
    2 6.028145 0.000003 0.000002 -2.130146 -0.095516 -0.453093
    3 11.692553 0.000081 -0.000005 -0.000003 0.000000 -1.467023
    4 11.481672 -0.000089 -0.000024 0.882730 -0.532946 1.217619
    5 3.859701 -0.142417 -1.191975 -0.372600 0.151270 -0.938026
    6 1.312563 -0.000008 0.000006 0.000000 -0.000003 -1.267535
    7 0.729362 -0.000004 0.000003 0.000000 0.000000 -1.156046
    8 3.942327 0.046755 -0.431444 -0.282545 -0.012816 -0.829986
    9 1.539093 0.000006 -0.000007 0.000000 0.000000 -1.277062
    10 1.196323 -0.000004 0.000002 0.000000 0.000000 -1.795951
    11 3.883688 -0.046782 0.431443 -0.051699 -0.018864 -0.672085
    12 1.719578 -0.000011 0.000009 0.000002 0.000013 -1.477115
    13 1.209183 -0.000004 0.000003 0.000000 0.000011 -1.391239
    14 3.859858 -0.137962 1.332466 0.160077 -0.013795 -0.792663
    15 1.719431 0.000002 -0.000004 0.000000 0.000000 -1.578971
    16 1.099676 -0.000006 0.000004 0.000000 0.000000 -1.439611
    17 0.806042 -0.348928 1.321258 -1.297456 -0.379023 -0.751564
    18 1.789782 0.000002 -0.000006 0.000000 0.000000 0.288881
    19 1.206999 0.000000 -0.000002 0.000000 0.000000 0.449501
    20 2.033356 1.000772 -1.937610 -0.104117 -0.097954 -1.638022
    21 6.028141 0.000000 -0.000002 -0.212988 0.487852 -2.735779
    22 11.692554 0.000000 -0.000001 -0.000002 0.000000 -1.272234
    23 11.481705 -0.000001 -0.000008 -1.216460 -0.204505 0.562519
    24 3.859676 -0.132545 1.193109 0.121612 -0.096285 -0.922064
    25 1.312559 -0.000004 -0.000001 0.000000 0.000000 -0.614202
    26 0.729367 0.000000 -0.000001 0.000000 0.000003 -1.378682
    27 3.942295 0.050347 0.431044 0.052427 -0.034080 -0.893744
    28 1.539106 0.000000 0.000001 0.000000 0.000000 -1.033143
    29 1.196321 -0.000004 -0.000002 -0.000003 0.000002 -1.390664
    30 3.883663 -0.050304 -0.431042 0.015688 -0.124349 -0.775366
    31 1.719584 0.000002 0.000006 0.000002 -0.007972 -1.588129
    32 1.209183 0.000004 0.000006 0.000000 -0.004460 -0.914505
    33 3.859833 -0.148919 -1.331283 0.137032 0.112660 -0.145634
    34 1.719427 0.000008 0.000011 0.000000 -0.006612 -0.973815
    35 1.099665 0.000002 0.000008 0.000001 -0.004209 -1.029706
    36 0.806023 -0.359832 -1.318336 1.307339 0.325292 -0.670078
    37 1.789780 -0.000006 -0.000006 0.019722 0.080232 0.520342
    38 1.207001 -0.000002 -0.000006 0.000000 0.000000 0.467620
    39 -6.463578 -20.729322 -3.912914 1.568264 0.001164 -0.001209
    40 0.000007 -1.946088 0.068031 0.000000 0.000000 0.000000
    41 0.000007 -3.415848 -1.741976 0.000000 0.000000 0.000000
    42 -0.000028 1.420049 -7.723435 0.000000 0.000000 0.000000
    43 1.292969 -6.652344 -31.890625 1.570788 0.000007 -0.000007
  time 22
    0 1.292969 -2.783203 -12.101563 -1.570760 -1.391893 -1.570827
    1 2.033348 1.000767 1.937660 2.856252 -0.086935 1.424553
    2 6.028145 0.000003 0.000002 -2.129443 -0.094686 -0.451863
    3 11.692553 0.000081 -0.000005 -0.000003 0.000000 -1.469659
    4 11.481672 -0.000089 -0.000024 0.881530 -0.531642 1.222016
    5 3.859701 -0.142417 -1.191975 -0.372600 0.151270 -0.938026
    6 1.312563 -0.000008 0.000006 0.000000 -0.000003 -1.267535
    7 0.729362 -0.000004 0.000003 0.000000 0.000000 -1.156046
    8 3.942327 0.046755 -0.431444 -0.282545 -0.012816 -0.829986
    9 1.539093 0.000006 -0.000007 0.000000 0.000000 -1.277062
    10 1.196323 -0.000004 0.000002 0.000000 0.000000 -1.795951
    11 3.883688 -0.046782 0.431443 -0.051699 -0.018864 -0.672085
    12 1.719578 -0.000011 0.000009 0.000002 0.000013 -1.477115
    13 1.209183 -0.000004 0.000003 0.000000 0.000011 -1.391239
    14 3.859858 -0.137962 1.332466 0.160077 -0.013795 -0.792663
    15 1.719431 0.000002 -0.000004 0.000000 0.000000 -1.578971
    16 1.099676 -0.000006 0.000004 0.000000 0.000000 -1.439611
    17 0.806042 -0.348928 1.321258 -1.297444 -0.379023 -0.751564
    18 1.789782 0.000002 -0.000006 0.000000 0.000000 0.288881
    19 1.206999 0.000000 -0.000002 0.000000 0.000000 0.449501
    20 2.033356 1.000772 -1.937610 -0.104117 -0.097954 -1.638022
    21 6.028141 0.000000 -0.000002 -0.212605 0.488432 -2.735947
    22 11.692554 0.000000 -0.000001 -0.000002 0.000000 -1.274754
    23 11.481705 -0.000001 -0.000008 -1.215703 -0.206353 0.565966
    24 3.859676 -0.132545 1.193109 0.121612 -0.096285 -0.922064
    25 1.312559 -0.000004 -0.000001 0.000000 0.000000 -0.614202
    26 0.729367 0.000000 -0.000001 0.000000 0.000003 -1.378682
    27 3.942295 0.050347 0.431044 0.052427 -0.034080 -0.893744
    28 1.539106 0.000000 0.000001 0.000000 0.000000 -1.033143
    29 1.196321 -0.000004 -0.000002 -0.000003 0.000002 -1.390664
    30 3.883663 -0.050304 -0.431042 0.015688 -0.124349 -0.775366
    31 1.719584 0.000002 0.000006 0.000002 -0.007972 -1.588129
    32 1.209183 0.000004 0.000006 0.000000 -0.004460 -0.914505
    33 3.859833 -0.148919 -1.331283 0.137032 0.112660 -0.145634
    34 1.719427 0.000008 0.000011 0.000000 -0.006612 -0.973815
    35 1.099665 0.000002 0.000008 0.000001 -0.004209 -1.029706
    36 0.806023 -0.359832 -1.318336 1.307339 0.325292 -0.670078
    37 1.789780 -0.000006 -0.000006 0.019722 0.080232 0.520342
    38 1.207001 -0.000002 -0.000006 0.000000 0.000000 0.467620
    39 -6.459671 -20.713696 -3.893382 1.569122 0.000625 -0.000660
    40 0.000007 -1.946088 0.068031 0.000000 0.000000 0.000000
    41 0.000007 -3.415848 -1.741976 0.000000 0.000000 0.000000
    42 -0.000028 1.420049 -7.723435 0.000000 0.000000 0.000000
    43 1.292969 -6.652344 -31.890625 1.570788 0.000007 -0.000007
  time 23
    0 1.292969 -2.783203 -12.101563 -1.570760 -1.391893 -1.570827
    1 2.033348 1.000767 1.937660 2.856252 -0.086935 1.424553
    2 6.028145 0.000003 0.000002 -2.129119 -0.094652 -0.450922
    3 11.692553 0.000081 -0.000005 -0.000003 0.000000 -1.471794
    4 11.481672 -0.000089 -0.000024 0.881118 -0.531217 1.225518
    5 3.859701 -0.142417 -1.191975 -0.372600 0.151270 -0.938026
    6 1.312563 -0.000008 0.000006 0.000000 -0.000003 -1.267535
    7 0.729362 -0.000004 0.000003 0.000000 0.000000 -1.156046
    8 3.942327 0.046755 -0.431444 -0.282545 -0.012816 -0.829986
    9 1.539093 0.000006 -0.000007 0.000000 0.000000 -1.277062
    10 1.196323 -0.000004 0.000002 0.000000 0.000000 -1.795951
    11 3.883688 -0.046782 0.431443 -0.051699 -0.018864 -0.672085
    12 1.719578 -0.000011 0.000009 0.000002 0.000013 -1.477115
    13 1.209183 -0.000004 0.000003 0.000000 0.000011 -1.391239
    14 3.859858 -0.137962 1.332466 0.160077 -0.013795 -0.792663
    15 1.719431 0.000002 -0.000004 0.000000 0.000000 -1.578971
    16 1.099676 -0.000006 0.000004 0.000000 0.000000 -1.439611
    17 0.806042 -0.348928 1.321258 -1.297456 -0.379023 -0.751564
    18 1.789782 0.000002 -0.000006 0.000000 0.000000 0.288881
    19 1.206999 0.000000 -0.000002 0.000000 0.000000 0.449501
    20 2.033356 1.000772 -1.937610 -0.104117 -0.097954 -1.638022
    21 6.028141 0.000000 -0.000002 -0.212032 0.489333 -2.736115
    22 11.692554 0.000000 -0.000001 -0.000002 0.000000 -1.277662
    23 11.481705 -0.000001 -0.000008 -1.215500 -0.208369 0.569726
    24 3.859676 -0.132545 1.193109 0.121612 -0.096285 -0.922064
    25 1.312559 -0.000004 -0.000001 0.000000 0.000000 -0.614202
    26 0.729367 0.000000 -0.000001 0.000000 0.000003 -1.378682
    27 3.942295 0.050347 0.431044 0.052427 -0.034080 -0.893744
    28 1.539106 0.000000 0.000001 0.000000 0.000000 -1.033143
    29 1.196321 -0.000004 -0.000002 -0.000003 0.000002 -1.390664
    30 3.883663 -0.050304 -0.431042 0.015688 -0.124349 -0.775366
    31 1.719584 0.000002 0.000006 0.000002 -0.007972 -1.588129
    32 1.209183 0.000004 0.000006 0.000000 -0.004460 -0.914505
    33 3.859833 -0.148919 -1.331283 0.137032 0.112660 -0.145634
    34 1.719427 0.000008 0.000011 0.000000 -0.006612 -0.973815
    35 1.099665 0.000002 0.000008 0.000001 -0.004209 -1.029706
    36 0.806023 -0.359832 -1.318336 1.307339 0.325292 -0.670078
    37 1.789780 -0.000006 -0.000006 0.019722 0.080232 0.520342
    38 1.207001 -0.000002 -0.000006 0.000000 0.000000 0.467620
    39 -6.459671 -20.690258 -3.869944 1.569425 0.000087 -0.000112
    40 0.000007 -1.946088 0.068031 0.000000 0.000000 0.000000
    41 0.000007 -3.415848 -1.741976 0.000000 0.000000 0.000000
    42 -0.000028 1.420049 -7.723435 0.000000 0.000000 0.000000
    43 1.292969 -6.652344 -31.890625 1.570788 0.000007 -0.000007
  time 24
    0 1.292969 -2.783203 -12.101563 -1.570760 -1.391893 -1.570827
    1 2.033348 1.000767 1.937660 2.856252 -0.086935 1.424553
    2 6.028145 0.000003 0.000002 -2.129443 -0.095648 -0.451066
    3 11.692553 0.000081 -0.000005 -0.000003 0.000000 -1.473677
    4 11.481672 -0.000089 -0.000024 0.881643 -0.531490 1.228734
    5 3.859701 -0.142417 -1.191975 -0.372600 0.151270 -0.938026
    6 1.312563 -0.000008 0.000006 0.000000 -0.000003 -1.267535
    7 0.729362 -0.000004 0.000003 0.000000 0.000000 -1.156046
    8 3.942327 0.046755 -0.431444 -0.282545 -0.012816 -0.829986
    9 1.539093 0.000006 -0.000007 0.000000 0.000000 -1.277062
    10 1.196323 -0.000004 0.000002 0.000000 0.000000 -1.795951
    11 3.883688 -0.046782 0.431443 -0.051699 -0.018864 -0.672085
    12 1.719578 -0.000011 0.000009 0.000002 0.000013 -1.477115
    13 1.209183 -0.000004 0.000003 0.000000 0.000011 -1.391239
    14 3.859858 -0.137962 1.332466 0.160077 -0.013795 -0.792663
    15 1.719431 0.000002 -0.000004 0.000000 0.000000 -1.578971
    16 1.099676 -0.000006 0.000004 0.000000 0.000000 -1.439611
    17 0.806042 -0.348928 1.321258 -1.297456 -0.379023 -0.751564
    18 1.789782 0.000002 -0.000006 0.000000 0.000000 0.288881
    19 1.206999 0.000000 -0.000002 0.000000 0.000000 0.449501
    20 2.033356 1.000772 -1.937610 -0.104117 -0.097954 -1.638022
    21 6.028141 0.000000 -0.000002 -0.211267 0.490331 -2.736031
    22 11.692554 0.000000 -0.000001 -0.000002 0.000000 -1.279729
    23 11.481705 -0.000001 -0.000008 -1.215298 -0.209461 0.571321
    24 3.859676 -0.132545 1.193109 0.121612 -0.096285 -0.922064
    25 1.312559 -0.000004 -0.000001 0.000000 0.000000 -0.614202
    26 0.729367 0.000000 -0.000001 0.000000 0.000003 -1.378726
    27 3.942295 0.050347 0.431044 0.052427 -0.034080 -0.893744
    28 1.539106 0.000000 0.000001 0.000000 0.000000 -1.033143
    29 1.196321 -0.000004 -0.000002 -0.000003 0.000002 -1.390664
    30 3.883663 -0.050304 -0.431042 0.015688 -0.124349 -0.775366
    31 1.719584 0.000002 0.000006 0.000002 -0.007972 -1.588129
    32 1.209183 0.000004 0.000006 0.000000 -0.004460 -0.914505
    33 3.859833 -0.148919 -1.331283 0.137032 0.112660 -0.145634
    34 1.719427 0.000008 0.000011 0.000000 -0.006612 -0.973815
    35 1.099665 0.000002 0.000008 0.000001 -0.004209 -1.029706
    36 0.806023 -0.359832 -1.318336 1.307339 0.325292 -0.670078
    37 1.789780 -0.000006 -0.000006 0.019722 0.080232 0.520342
    38 1.207001 -0.000002 -0.000006 0.000000 0.000000 0.467620
    39 -6.467484 -20.666820 -3.846505 1.570233 -0.000120 0.000026
    40 0.000007 -1.946088 0.068031 0.000000 0.000000 0.000000
    41 0.000007 -3.415848 -1.741976 0.000000 0.000000 0.000000
    42 -0.000028 1.420049 -7.723435 0.000000 0.000000 0.000000
    43 1.292969 -6.652344 -31.890625 1.570788 0.000007 -0.000007
  time 25
    0 1.292969 -2.783203 -12.101563 -1.570760 -1.391893 -1.570827
    1 2.033348 1.000767 1.937660 2.856252 -0.086935 1.424553
    2 6.028145 0.000003 0.000002 -2.130363 -0.097773 -0.451863
    3 11.692553 0.000081 -0.000005 -0.000003 0.000000 -1.474932
    4 11.481672 -0.000089 -0.000024 0.882954 -0.532522 1.230973
    5 3.859701 -0.142417 -1.191975 -0.372600 0.151270 -0.938026
    6 1.312563 -0.000008 0.000006 0.000000 -0.000003 -1.267535
    7 0.729362 -0.000004 0.000003 0.000000 0.000000 -1.156046
    8 3.942327 0.046755 -0.431444 -0.282545 -0.012816 -0.829986
    9 1.539093 0.000006 -0.000007 0.000000 0.000000 -1.277062
    10 1.196323 -0.000004 0.000002 0.000000 0.000000 -1.795951
    11 3.883688 -0.046782 0.431443 -0.051699 -0.018864 -0.672085
    12 1.719578 -0.000011 0.000009 0.000002 0.000013 -1.477115
    13 1.209183 -0.000004 0.000003 0.000000 0.000011 -1.391239
    14 3.859858 -0.137962 1.332466 0.160077 -0.013795 -0.792663
    15 1.719431 0.000002 -0.000004 0.000000 0.000000 -1.578971
    16 1.099676 -0.000006 0.000004 0.000000 0.000000 -1.439611
    17 0.806042 -0.348928 1.321258 -1.297456 -0.379023 -0.751564
    18 1.789782 0.000002 -0.000006 0.000000 0.000000 0.288881
    19 1.206999 0.000000 -0.000002 0.000000 0.000000 0.449501
    20 2.033356 1.000772 -1.937610 -0.104117 -0.097954 -1.638022
    21 6.028141 0.000000 -0.000002 -0.210247 0.491780 -2.736199
    22 11.692554 0.000000 -0.000001 -0.000002 0.000000 -1.282056
    23 11.481705 -0.000001 -0.000008 -1.215298 -0.211618 0.574084
    24 3.859676 -0.132545 1.193109 0.121612 -0.096285 -0.922064
    25 1.312559 -0.000004 -0.000001 0.000000 0.000000 -0.614202
    26 0.729367 0.000000 -0.000001 0.000000 0.000003 -1.378682
    27 3.942295 0.050347 0.431044 0.052427 -0.034080 -0.893744
    28 1.539106 0.000000 0.000001 0.000000 0.000000 -1.033143
    29 1.196321 -0.000004 -0.000002 -0.000003 0.000002 -1.390664
    30 3.883663 -0.050304 -0.431042 0.015688 -0.124349 -0.775366
    31 1.719584 0.000002 0.000006 0.000002 -0.007972 -1.588129
    32 1.209183 0.000004 0.000006 0.000000 -0.004460 -0.914505
    33 3.859833 -0.148919 -1.331283 0.137032 0.112660 -0.145634
    34 1.719427 0.000008 0.000011 0.000000 -0.006612 -0.973815
    35 1.099665 0.000002 0.000008 0.000001 -0.004209 -1.029706
    36 0.806023 -0.359832 -1.318336 1.307339 0.325292 -0.670078
    37 1.789780 -0.000006 -0.000006 0.019722 0.080232 0.520342
    38 1.207001 -0.000002 -0.000006 0.000000 0.000000 0.467620
    39 -6.483109 -20.643382 -3.830880 1.570789 0.000004 -0.000043
    40 0.000007 -1.946088 0.068031 0.000000 0.000000 0.000000
    41 0.000007 -3.415848 -1.741976 0.000000 0.000000 0.000000
    42 -0.000028 1.420049 -7.723435 0.000000 0.000000 0.000000
    43 1.292969 -6.652344 -31.890625 1.570788 0.000007 -0.000007
end
