// Created by Crowbar++ 0.74
version 1
nodes
  0 "ValveBiped.Bip01_Spine4" -1
  1 "ValveBiped.Bip01_L_Clavicle" 0
  2 "ValveBiped.Bip01_L_UpperArm" 1
  3 "ValveBiped.Bip01_L_Forearm" 2
  4 "ValveBiped.Bip01_L_Hand" 3
  5 "ValveBiped.Bip01_L_Finger4" 4
  6 "ValveBiped.Bip01_L_Finger41" 5
  7 "ValveBiped.Bip01_L_Finger42" 6
  8 "ValveBiped.Bip01_L_Finger3" 4
  9 "ValveBiped.Bip01_L_Finger31" 8
  10 "ValveBiped.Bip01_L_Finger32" 9
  11 "ValveBiped.Bip01_L_Finger2" 4
  12 "ValveBiped.Bip01_L_Finger21" 11
  13 "ValveBiped.Bip01_L_Finger22" 12
  14 "ValveBiped.Bip01_L_Finger1" 4
  15 "ValveBiped.Bip01_L_Finger11" 14
  16 "ValveBiped.Bip01_L_Finger12" 15
  17 "ValveBiped.Bip01_L_Finger0" 4
  18 "ValveBiped.Bip01_L_Finger01" 17
  19 "ValveBiped.Bip01_L_Finger02" 18
  20 "ValveBiped.Bip01_R_Clavicle" 0
  21 "ValveBiped.Bip01_R_UpperArm" 20
  22 "ValveBiped.Bip01_R_Forearm" 21
  23 "ValveBiped.Bip01_R_Hand" 22
  24 "ValveBiped.Bip01_R_Finger4" 23
  25 "ValveBiped.Bip01_R_Finger41" 24
  26 "ValveBiped.Bip01_R_Finger42" 25
  27 "ValveBiped.Bip01_R_Finger3" 23
  28 "ValveBiped.Bip01_R_Finger31" 27
  29 "ValveBiped.Bip01_R_Finger32" 28
  30 "ValveBiped.Bip01_R_Finger2" 23
  31 "ValveBiped.Bip01_R_Finger21" 30
  32 "ValveBiped.Bip01_R_Finger22" 31
  33 "ValveBiped.Bip01_R_Finger1" 23
  34 "ValveBiped.Bip01_R_Finger11" 33
  35 "ValveBiped.Bip01_R_Finger12" 34
  36 "ValveBiped.Bip01_R_Finger0" 23
  37 "ValveBiped.Bip01_R_Finger01" 36
  38 "ValveBiped.Bip01_R_Finger02" 37
  39 "ValveBiped.base" -1
  40 "ValveBiped.trigger" 39
  41 "ValveBiped.mag" 39
  42 "ValveBiped.handle" 39
  43 "ValveBiped.Bip01" -1
end
skeleton
  time 0
    0 1.292969 -2.783203 -12.101563 -1.570760 -1.391893 -1.570827
    1 2.033348 1.000767 1.937660 2.856252 -0.086935 1.424553
    2 6.028145 0.000003 0.000002 -2.189151 -0.141270 -0.598532
    3 11.692553 0.000081 -0.000005 -0.000003 0.000000 -1.667124
    4 11.481672 -0.000089 -0.000024 1.023026 -0.648361 1.300025
    5 3.859701 -0.142417 -1.191975 -0.372600 0.151270 -0.938026
    6 1.312563 -0.000008 0.000006 0.000000 0.000000 -1.267556
    7 0.729362 -0.000004 0.000003 0.000000 0.000000 -1.156046
    8 3.942327 0.046755 -0.431444 -0.282545 -0.012816 -0.829986
    9 1.539093 0.000006 -0.000007 0.000000 0.000000 -1.277091
    10 1.196323 -0.000004 0.000002 0.000000 0.000000 -1.795951
    11 3.883688 -0.046782 0.431443 -0.051699 -0.018864 -0.672080
    12 1.719578 -0.000011 0.000009 0.000000 0.000000 -1.477144
    13 1.209183 -0.000004 0.000003 0.000000 0.000000 -1.391306
    14 3.859858 -0.137962 1.332466 0.160077 -0.013795 -0.792663
    15 1.719431 0.000002 -0.000004 0.000000 0.000000 -1.578971
    16 1.099676 -0.000006 0.000004 0.000000 0.000000 -1.439611
    17 0.806042 -0.348928 1.321258 -1.297462 -0.379013 -0.751545
    18 1.789782 0.000002 -0.000006 0.000000 0.000000 0.288881
    19 1.206999 0.000000 -0.000002 0.000000 0.000000 0.449499
    20 2.033356 1.000772 -1.937610 -0.104117 -0.097954 -1.638022
    21 6.028141 0.000000 -0.000002 -0.115773 0.546385 -2.604995
    22 11.692554 0.000000 -0.000001 -0.000002 0.000000 -1.519389
    23 11.481705 -0.000001 -0.000008 -1.211711 -0.257346 0.689337
    24 3.859676 -0.132545 1.193109 0.121612 -0.096285 -0.922064
    25 1.312559 -0.000004 -0.000001 0.000000 0.000000 -0.614202
    26 0.729367 0.000000 -0.000001 0.000000 0.000000 -1.378729
    27 3.942295 0.050347 0.431044 0.052410 -0.034056 -0.893757
    28 1.539106 0.000000 0.000001 0.000000 0.000000 -1.033167
    29 1.196321 -0.000004 -0.000002 0.000000 0.000000 -1.390688
    30 3.883663 -0.050304 -0.431042 0.015688 -0.124349 -0.775366
    31 1.719584 0.000002 0.000006 -0.000001 -0.007971 -1.588161
    32 1.209183 0.000004 0.000006 0.000000 -0.004460 -0.914505
    33 3.859833 -0.148919 -1.331283 0.137062 0.112671 -0.145626
    34 1.719427 0.000008 0.000011 -0.000001 -0.006611 -0.973832
    35 1.099665 0.000002 0.000008 0.000001 -0.004209 -1.029706
    36 0.806023 -0.359832 -1.318336 1.307339 0.325292 -0.670078
    37 1.789780 -0.000006 -0.000006 0.019722 0.080232 0.520342
    38 1.207001 -0.000002 -0.000006 0.000000 0.000000 0.467620
    39 -6.483109 -18.694103 -3.826974 1.570789 0.000004 -0.000043
    40 0.000007 -1.946088 0.068031 0.000000 0.000000 0.000000
    41 0.000007 -3.415848 -1.741976 0.000000 0.000000 0.000000
    42 -0.000028 1.420049 -7.723435 0.000000 0.000000 0.000000
    43 1.292969 -6.652344 -31.890625 1.570788 0.000007 -0.000007
  time 1
    0 1.292969 -2.783203 -12.101563 -1.570760 -1.391893 -1.570827
    1 2.033348 1.000767 1.937660 2.856252 -0.086935 1.424553
    2 6.028145 0.000003 0.000002 -2.159243 -0.113811 -0.522374
    3 11.692553 0.000081 -0.000005 -0.000003 0.000000 -1.583393
    4 11.481672 -0.000089 -0.000024 0.954171 -0.598482 1.261794
    5 3.859701 -0.142417 -1.191975 -0.372600 0.151270 -0.938026
    6 1.312563 -0.000008 0.000006 0.000000 0.000000 -1.267556
    7 0.729362 -0.000004 0.000003 0.000000 0.000000 -1.156046
    8 3.942327 0.046755 -0.431444 -0.282545 -0.012816 -0.829986
    9 1.539093 0.000006 -0.000007 0.000000 0.000000 -1.277091
    10 1.196323 -0.000004 0.000002 0.000000 0.000000 -1.795951
    11 3.883688 -0.046782 0.431443 -0.051699 -0.018864 -0.672080
    12 1.719578 -0.000011 0.000009 0.000000 0.000000 -1.477144
    13 1.209183 -0.000004 0.000003 0.000000 0.000000 -1.391306
    14 3.859858 -0.137962 1.332466 0.160077 -0.013795 -0.792663
    15 1.719431 0.000002 -0.000004 0.000000 0.000000 -1.578971
    16 1.099676 -0.000006 0.000004 0.000000 0.000000 -1.439611
    17 0.806042 -0.348928 1.321258 -1.297462 -0.379013 -0.751545
    18 1.789782 0.000002 -0.000006 0.000000 0.000000 0.288881
    19 1.206999 0.000000 -0.000002 0.000000 0.000000 0.449499
    20 2.033356 1.000772 -1.937610 -0.104117 -0.097954 -1.638022
    21 6.028141 0.000000 -0.000002 -0.156571 0.522302 -2.652644
    22 11.692554 0.000000 -0.000001 -0.000002 0.000000 -1.418589
    23 11.481705 -0.000001 -0.000008 -1.206053 -0.225675 0.614762
    24 3.859676 -0.132545 1.193109 0.121612 -0.096285 -0.922064
    25 1.312559 -0.000004 -0.000001 0.000000 0.000000 -0.614202
    26 0.729367 0.000000 -0.000001 0.000000 0.000000 -1.378729
    27 3.942295 0.050347 0.431044 0.052410 -0.034056 -0.893757
    28 1.539106 0.000000 0.000001 0.000000 0.000000 -1.033167
    29 1.196321 -0.000004 -0.000002 0.000000 0.000000 -1.390688
    30 3.883663 -0.050304 -0.431042 0.015688 -0.124349 -0.775366
    31 1.719584 0.000002 0.000006 -0.000001 -0.007971 -1.588161
    32 1.209183 0.000004 0.000006 0.000000 -0.004460 -0.914505
    33 3.859833 -0.148919 -1.331283 0.137062 0.112671 -0.145626
    34 1.719427 0.000008 0.000011 -0.000001 -0.006611 -0.973832
    35 1.099665 0.000002 0.000008 0.000001 -0.004209 -1.029706
    36 0.806023 -0.359832 -1.318336 1.307339 0.325292 -0.670078
    37 1.789780 -0.000006 -0.000006 0.019722 0.080232 0.520342
    38 1.207001 -0.000002 -0.000006 0.000000 0.000000 0.467620
    39 -6.483109 -19.498815 -3.866037 1.551195 0.000004 -0.000043
    40 0.000007 -1.946088 0.068031 0.000000 0.000000 0.000000
    41 0.000007 -3.415848 -1.741976 0.000000 0.000000 0.000000
    42 -0.000028 1.420049 -7.723435 0.000000 0.000000 0.000000
    43 1.292969 -6.652344 -31.890625 1.570788 0.000007 -0.000007
  time 2
    0 1.292969 -2.783203 -12.101563 -1.570760 -1.391893 -1.570827
    1 2.033348 1.000767 1.937660 2.856252 -0.086935 1.424553
    2 6.028145 0.000003 0.000002 -2.128686 -0.098271 -0.447012
    3 11.692553 0.000081 -0.000005 -0.000003 0.000000 -1.477066
    4 11.481672 -0.000089 -0.000024 0.893150 -0.552637 1.201496
    5 3.859701 -0.142417 -1.191975 -0.372600 0.151270 -0.938026
    6 1.312563 -0.000008 0.000006 0.000000 0.000000 -1.267556
    7 0.729362 -0.000004 0.000003 0.000000 0.000000 -1.156046
    8 3.942327 0.046755 -0.431444 -0.282545 -0.012816 -0.829986
    9 1.539093 0.000006 -0.000007 0.000000 0.000000 -1.277091
    10 1.196323 -0.000004 0.000002 0.000000 0.000000 -1.795951
    11 3.883688 -0.046782 0.431443 -0.051699 -0.018864 -0.672080
    12 1.719578 -0.000011 0.000009 0.000000 0.000000 -1.477144
    13 1.209183 -0.000004 0.000003 0.000000 0.000000 -1.391306
    14 3.859858 -0.137962 1.332466 0.160077 -0.013795 -0.792663
    15 1.719431 0.000002 -0.000004 0.000000 0.000000 -1.578971
    16 1.099676 -0.000006 0.000004 0.000000 0.000000 -1.439611
    17 0.806042 -0.348928 1.321258 -1.297462 -0.379013 -0.751545
    18 1.789782 0.000002 -0.000006 0.000000 0.000000 0.288881
    19 1.206999 0.000000 -0.000002 0.000000 0.000000 0.449499
    20 2.033356 1.000772 -1.937610 -0.104117 -0.097954 -1.638022
    21 6.028141 0.000000 -0.000002 -0.203298 0.491716 -2.715478
    22 11.692554 0.000000 -0.000001 -0.000002 0.000000 -1.288388
    23 11.481705 -0.000001 -0.000008 -1.201809 -0.192239 0.526058
    24 3.859676 -0.132545 1.193109 0.121612 -0.096285 -0.922064
    25 1.312559 -0.000004 -0.000001 0.000000 0.000000 -0.614202
    26 0.729367 0.000000 -0.000001 0.000000 0.000000 -1.378729
    27 3.942295 0.050347 0.431044 0.052410 -0.034056 -0.893757
    28 1.539106 0.000000 0.000001 0.000000 0.000000 -1.033167
    29 1.196321 -0.000004 -0.000002 0.000000 0.000000 -1.390688
    30 3.883663 -0.050304 -0.431042 0.015688 -0.124349 -0.775366
    31 1.719584 0.000002 0.000006 -0.000001 -0.007971 -1.588161
    32 1.209183 0.000004 0.000006 0.000000 -0.004460 -0.914505
    33 3.859833 -0.148919 -1.331283 0.137062 0.112671 -0.145626
    34 1.719427 0.000008 0.000011 -0.000001 -0.006611 -0.973832
    35 1.099665 0.000002 0.000008 0.000001 -0.004209 -1.029706
    36 0.806023 -0.359832 -1.318336 1.307339 0.325292 -0.670078
    37 1.789780 -0.000006 -0.000006 0.019722 0.080232 0.520342
    38 1.207001 -0.000002 -0.000006 0.000000 0.000000 0.467620
    39 -6.483109 -20.463689 -3.905101 1.531550 0.000004 -0.000043
    40 0.000007 -1.946088 0.068031 0.000000 0.000000 0.000000
    41 0.000007 -3.415848 -1.741976 0.000000 0.000000 0.000000
    42 -0.000028 1.420049 -7.723435 0.000000 0.000000 0.000000
    43 1.292969 -6.652344 -31.890625 1.570788 0.000007 -0.000007
  time 3
    0 1.292969 -2.783203 -12.101563 -1.570760 -1.391893 -1.570827
    1 2.033348 1.000767 1.937660 2.856252 -0.086935 1.424553
    2 6.028145 0.000003 0.000002 -2.124360 -0.097109 -0.436371
    3 11.692553 0.000081 -0.000005 -0.000003 0.000000 -1.457232
    4 11.481672 -0.000089 -0.000024 0.881905 -0.541169 1.196651
    5 3.859701 -0.142417 -1.191975 -0.372600 0.151270 -0.938026
    6 1.312563 -0.000008 0.000006 0.000000 0.000000 -1.267556
    7 0.729362 -0.000004 0.000003 0.000000 0.000000 -1.156046
    8 3.942327 0.046755 -0.431444 -0.282545 -0.012816 -0.829986
    9 1.539093 0.000006 -0.000007 0.000000 0.000000 -1.277091
    10 1.196323 -0.000004 0.000002 0.000000 0.000000 -1.795951
    11 3.883688 -0.046782 0.431443 -0.051699 -0.018864 -0.672080
    12 1.719578 -0.000011 0.000009 0.000000 0.000000 -1.477144
    13 1.209183 -0.000004 0.000003 0.000000 0.000000 -1.391306
    14 3.859858 -0.137962 1.332466 0.160077 -0.013795 -0.792663
    15 1.719431 0.000002 -0.000004 0.000000 0.000000 -1.578971
    16 1.099676 -0.000006 0.000004 0.000000 0.000000 -1.439611
    17 0.806042 -0.348928 1.321258 -1.297462 -0.379013 -0.751545
    18 1.789782 0.000002 -0.000006 0.000000 0.000000 0.288881
    19 1.206999 0.000000 -0.000002 0.000000 0.000000 0.449499
    20 2.033356 1.000772 -1.937610 -0.104117 -0.097954 -1.638022
    21 6.028141 0.000000 -0.000002 -0.212796 0.486178 -2.731753
    22 11.692554 0.000000 -0.000001 -0.000002 0.000000 -1.263123
    23 11.481705 -0.000001 -0.000008 -1.204285 -0.191511 0.521785
    24 3.859676 -0.132545 1.193109 0.121612 -0.096285 -0.922064
    25 1.312559 -0.000004 -0.000001 0.000000 0.000000 -0.614202
    26 0.729367 0.000000 -0.000001 0.000000 0.000000 -1.378729
    27 3.942295 0.050347 0.431044 0.052410 -0.034056 -0.893757
    28 1.539106 0.000000 0.000001 0.000000 0.000000 -1.033167
    29 1.196321 -0.000004 -0.000002 0.000000 0.000000 -1.390688
    30 3.883663 -0.050304 -0.431042 0.015688 -0.124349 -0.775366
    31 1.719584 0.000002 0.000006 -0.000001 -0.007971 -1.588161
    32 1.209183 0.000004 0.000006 0.000000 -0.004460 -0.914505
    33 3.859833 -0.148919 -1.331283 0.137062 0.112671 -0.145626
    34 1.719427 0.000008 0.000011 -0.000001 -0.006611 -0.973832
    35 1.099665 0.000002 0.000008 0.000001 -0.004209 -1.029706
    36 0.806023 -0.359832 -1.318336 1.307339 0.325292 -0.670078
    37 1.789780 -0.000006 -0.000006 0.019722 0.080232 0.520342
    38 1.207001 -0.000002 -0.000006 0.000000 0.000000 0.467620
    39 -6.483109 -20.674633 -3.893382 1.537711 0.000004 -0.000043
    40 0.000007 -1.946088 0.068031 0.000000 0.000000 0.000000
    41 0.000007 -3.415848 -1.741976 0.000000 0.000000 0.000000
    42 -0.000028 1.420049 -7.723435 0.000000 0.000000 0.000000
    43 1.292969 -6.652344 -31.890625 1.570788 0.000007 -0.000007
  time 4
    0 1.292969 -2.783203 -12.101563 -1.570760 -1.391893 -1.570827
    1 2.033348 1.000767 1.937660 2.856252 -0.086935 1.424553
    2 6.028145 0.000003 0.000002 -2.125441 -0.097043 -0.439339
    3 11.692553 0.000081 -0.000005 -0.000003 0.000000 -1.458612
    4 11.481672 -0.000089 -0.000024 0.879544 -0.535101 1.207725
    5 3.859701 -0.142417 -1.191975 -0.372600 0.151270 -0.938026
    6 1.312563 -0.000008 0.000006 0.000000 0.000000 -1.267556
    7 0.729362 -0.000004 0.000003 0.000000 0.000000 -1.156046
    8 3.942327 0.046755 -0.431444 -0.282545 -0.012816 -0.829986
    9 1.539093 0.000006 -0.000007 0.000000 0.000000 -1.277091
    10 1.196323 -0.000004 0.000002 0.000000 0.000000 -1.795951
    11 3.883688 -0.046782 0.431443 -0.051699 -0.018864 -0.672080
    12 1.719578 -0.000011 0.000009 0.000000 0.000000 -1.477144
    13 1.209183 -0.000004 0.000003 0.000000 0.000000 -1.391306
    14 3.859858 -0.137962 1.332466 0.160077 -0.013795 -0.792663
    15 1.719431 0.000002 -0.000004 0.000000 0.000000 -1.578971
    16 1.099676 -0.000006 0.000004 0.000000 0.000000 -1.439611
    17 0.806042 -0.348928 1.321258 -1.297462 -0.379013 -0.751545
    18 1.789782 0.000002 -0.000006 0.000000 0.000000 0.288881
    19 1.206999 0.000000 -0.000002 0.000000 0.000000 0.449499
    20 2.033356 1.000772 -1.937610 -0.104117 -0.097954 -1.638022
    21 6.028141 0.000000 -0.000002 -0.214199 0.486822 -2.737289
    22 11.692554 0.000000 -0.000001 -0.000002 0.000000 -1.263769
    23 11.481705 -0.000001 -0.000008 -1.208478 -0.198792 0.539674
    24 3.859676 -0.132545 1.193109 0.121612 -0.096285 -0.922064
    25 1.312559 -0.000004 -0.000001 0.000000 0.000000 -0.614202
    26 0.729367 0.000000 -0.000001 0.000000 0.000000 -1.378729
    27 3.942295 0.050347 0.431044 0.052410 -0.034056 -0.893757
    28 1.539106 0.000000 0.000001 0.000000 0.000000 -1.033167
    29 1.196321 -0.000004 -0.000002 0.000000 0.000000 -1.390688
    30 3.883663 -0.050304 -0.431042 0.015688 -0.124349 -0.775366
    31 1.719584 0.000002 0.000006 -0.000001 -0.007971 -1.588161
    32 1.209183 0.000004 0.000006 0.000000 -0.004460 -0.914505
    33 3.859833 -0.148919 -1.331283 0.137062 0.112671 -0.145626
    34 1.719427 0.000008 0.000011 -0.000001 -0.006611 -0.973832
    35 1.099665 0.000002 0.000008 0.000001 -0.004209 -1.029706
    36 0.806023 -0.359832 -1.318336 1.307339 0.325292 -0.670078
    37 1.789780 -0.000006 -0.000006 0.019722 0.080232 0.520342
    38 1.207001 -0.000002 -0.000006 0.000000 0.000000 0.467620
    39 -6.483109 -20.717603 -3.866037 1.551195 0.000004 -0.000043
    40 0.000007 -1.946088 0.068031 0.000000 0.000000 0.000000
    41 0.000007 -3.415848 -1.741976 0.000000 0.000000 0.000000
    42 -0.000028 1.420049 -7.723435 0.000000 0.000000 0.000000
    43 1.292969 -6.652344 -31.890625 1.570788 0.000007 -0.000007
  time 5
    0 1.292969 -2.783203 -12.101563 -1.570760 -1.391893 -1.570827
    1 2.033348 1.000767 1.937660 2.856252 -0.086935 1.424553
    2 6.028145 0.000003 0.000002 -2.128524 -0.097441 -0.447302
    3 11.692553 0.000081 -0.000005 -0.000003 0.000000 -1.468781
    4 11.481672 -0.000089 -0.000024 0.881380 -0.532825 1.223197
    5 3.859701 -0.142417 -1.191975 -0.372600 0.151270 -0.938026
    6 1.312563 -0.000008 0.000006 0.000000 0.000000 -1.267556
    7 0.729362 -0.000004 0.000003 0.000000 0.000000 -1.156046
    8 3.942327 0.046755 -0.431444 -0.282545 -0.012816 -0.829986
    9 1.539093 0.000006 -0.000007 0.000000 0.000000 -1.277091
    10 1.196323 -0.000004 0.000002 0.000000 0.000000 -1.795951
    11 3.883688 -0.046782 0.431443 -0.051699 -0.018864 -0.672080
    12 1.719578 -0.000011 0.000009 0.000000 0.000000 -1.477144
    13 1.209183 -0.000004 0.000003 0.000000 0.000000 -1.391306
    14 3.859858 -0.137962 1.332466 0.160077 -0.013795 -0.792663
    15 1.719431 0.000002 -0.000004 0.000000 0.000000 -1.578971
    16 1.099676 -0.000006 0.000004 0.000000 0.000000 -1.439611
    17 0.806042 -0.348928 1.321258 -1.297462 -0.379013 -0.751545
    18 1.789782 0.000002 -0.000006 0.000000 0.000000 0.288881
    19 1.206999 0.000000 -0.000002 0.000000 0.000000 0.449499
    20 2.033356 1.000772 -1.937610 -0.104117 -0.097954 -1.638022
    21 6.028141 0.000000 -0.000002 -0.211968 0.489913 -2.737206
    22 11.692554 0.000000 -0.000001 -0.000002 0.000000 -1.275077
    23 11.481705 -0.000001 -0.000008 -1.213227 -0.207333 0.562662
    24 3.859676 -0.132545 1.193109 0.121612 -0.096285 -0.922064
    25 1.312559 -0.000004 -0.000001 0.000000 0.000000 -0.614202
    26 0.729367 0.000000 -0.000001 0.000000 0.000000 -1.378729
    27 3.942295 0.050347 0.431044 0.052410 -0.034056 -0.893757
    28 1.539106 0.000000 0.000001 0.000000 0.000000 -1.033167
    29 1.196321 -0.000004 -0.000002 0.000000 0.000000 -1.390688
    30 3.883663 -0.050304 -0.431042 0.015688 -0.124349 -0.775366
    31 1.719584 0.000002 0.000006 -0.000001 -0.007971 -1.588161
    32 1.209183 0.000004 0.000006 0.000000 -0.004460 -0.914505
    33 3.859833 -0.148919 -1.331283 0.137062 0.112671 -0.145626
    34 1.719427 0.000008 0.000011 -0.000001 -0.006611 -0.973832
    35 1.099665 0.000002 0.000008 0.000001 -0.004209 -1.029706
    36 0.806023 -0.359832 -1.318336 1.307339 0.325292 -0.670078
    37 1.789780 -0.000006 -0.000006 0.019722 0.080232 0.520342
    38 1.207001 -0.000002 -0.000006 0.000000 0.000000 0.467620
    39 -6.483109 -20.678539 -3.838693 1.564678 0.000004 -0.000043
    40 0.000007 -1.946088 0.068031 0.000000 0.000000 0.000000
    41 0.000007 -3.415848 -1.741976 0.000000 0.000000 0.000000
    42 -0.000028 1.420049 -7.723435 0.000000 0.000000 0.000000
    43 1.292969 -6.652344 -31.890625 1.570788 0.000007 -0.000007
  time 6
    0 1.292969 -2.783203 -12.101563 -1.570760 -1.391893 -1.570827
    1 2.033348 1.000767 1.937660 2.856252 -0.086935 1.424553
    2 6.028145 0.000003 0.000002 -2.130363 -0.097773 -0.451863
    3 11.692553 0.000081 -0.000005 -0.000003 0.000000 -1.474932
    4 11.481672 -0.000089 -0.000024 0.882954 -0.532522 1.230973
    5 3.859701 -0.142417 -1.191975 -0.372600 0.151270 -0.938026
    6 1.312563 -0.000008 0.000006 0.000000 0.000000 -1.267556
    7 0.729362 -0.000004 0.000003 0.000000 0.000000 -1.156046
    8 3.942327 0.046755 -0.431444 -0.282545 -0.012816 -0.829986
    9 1.539093 0.000006 -0.000007 0.000000 0.000000 -1.277091
    10 1.196323 -0.000004 0.000002 0.000000 0.000000 -1.795951
    11 3.883688 -0.046782 0.431443 -0.051699 -0.018864 -0.672080
    12 1.719578 -0.000011 0.000009 0.000000 0.000000 -1.477144
    13 1.209183 -0.000004 0.000003 0.000000 0.000000 -1.391306
    14 3.859858 -0.137962 1.332466 0.160077 -0.013795 -0.792663
    15 1.719431 0.000002 -0.000004 0.000000 0.000000 -1.578971
    16 1.099676 -0.000006 0.000004 0.000000 0.000000 -1.439611
    17 0.806042 -0.348928 1.321258 -1.297462 -0.379013 -0.751545
    18 1.789782 0.000002 -0.000006 0.000000 0.000000 0.288881
    19 1.206999 0.000000 -0.000002 0.000000 0.000000 0.449499
    20 2.033356 1.000772 -1.937610 -0.104117 -0.097954 -1.638022
    21 6.028141 0.000000 -0.000002 -0.210247 0.491780 -2.736199
    22 11.692554 0.000000 -0.000001 -0.000002 0.000000 -1.282056
    23 11.481705 -0.000001 -0.000008 -1.215298 -0.211618 0.574084
    24 3.859676 -0.132545 1.193109 0.121612 -0.096285 -0.922064
    25 1.312559 -0.000004 -0.000001 0.000000 0.000000 -0.614202
    26 0.729367 0.000000 -0.000001 0.000000 0.000000 -1.378729
    27 3.942295 0.050347 0.431044 0.052410 -0.034056 -0.893757
    28 1.539106 0.000000 0.000001 0.000000 0.000000 -1.033167
    29 1.196321 -0.000004 -0.000002 0.000000 0.000000 -1.390688
    30 3.883663 -0.050304 -0.431042 0.015688 -0.124349 -0.775366
    31 1.719584 0.000002 0.000006 -0.000001 -0.007971 -1.588161
    32 1.209183 0.000004 0.000006 0.000000 -0.004460 -0.914505
    33 3.859833 -0.148919 -1.331283 0.137062 0.112671 -0.145626
    34 1.719427 0.000008 0.000011 -0.000001 -0.006611 -0.973832
    35 1.099665 0.000002 0.000008 0.000001 -0.004209 -1.029706
    36 0.806023 -0.359832 -1.318336 1.307339 0.325292 -0.670078
    37 1.789780 -0.000006 -0.000006 0.019722 0.080232 0.520342
    38 1.207001 -0.000002 -0.000006 0.000000 0.000000 0.467620
    39 -6.483109 -20.643382 -3.830880 1.570789 0.000004 -0.000043
    40 0.000007 -1.946088 0.068031 0.000000 0.000000 0.000000
    41 0.000007 -3.415848 -1.741976 0.000000 0.000000 0.000000
    42 -0.000028 1.420049 -7.723435 0.000000 0.000000 0.000000
    43 1.292969 -6.652344 -31.890625 1.570788 0.000007 -0.000007
end
