// Created by Crowbar++ 0.74
version 1
nodes
  0 "ValveBiped.Bip01_Spine4" -1
  1 "ValveBiped.Bip01_L_Clavicle" 0
  2 "ValveBiped.Bip01_L_UpperArm" 1
  3 "ValveBiped.Bip01_L_Forearm" 2
  4 "ValveBiped.Bip01_L_Hand" 3
  5 "ValveBiped.Bip01_L_Finger4" 4
  6 "ValveBiped.Bip01_L_Finger41" 5
  7 "ValveBiped.Bip01_L_Finger42" 6
  8 "ValveBiped.Bip01_L_Finger3" 4
  9 "ValveBiped.Bip01_L_Finger31" 8
  10 "ValveBiped.Bip01_L_Finger32" 9
  11 "ValveBiped.Bip01_L_Finger2" 4
  12 "ValveBiped.Bip01_L_Finger21" 11
  13 "ValveBiped.Bip01_L_Finger22" 12
  14 "ValveBiped.Bip01_L_Finger1" 4
  15 "ValveBiped.Bip01_L_Finger11" 14
  16 "ValveBiped.Bip01_L_Finger12" 15
  17 "ValveBiped.Bip01_L_Finger0" 4
  18 "ValveBiped.Bip01_L_Finger01" 17
  19 "ValveBiped.Bip01_L_Finger02" 18
  20 "ValveBiped.Bip01_R_Clavicle" 0
  21 "ValveBiped.Bip01_R_UpperArm" 20
  22 "ValveBiped.Bip01_R_Forearm" 21
  23 "ValveBiped.Bip01_R_Hand" 22
  24 "ValveBiped.Bip01_R_Finger4" 23
  25 "ValveBiped.Bip01_R_Finger41" 24
  26 "ValveBiped.Bip01_R_Finger42" 25
  27 "ValveBiped.Bip01_R_Finger3" 23
  28 "ValveBiped.Bip01_R_Finger31" 27
  29 "ValveBiped.Bip01_R_Finger32" 28
  30 "ValveBiped.Bip01_R_Finger2" 23
  31 "ValveBiped.Bip01_R_Finger21" 30
  32 "ValveBiped.Bip01_R_Finger22" 31
  33 "ValveBiped.Bip01_R_Finger1" 23
  34 "ValveBiped.Bip01_R_Finger11" 33
  35 "ValveBiped.Bip01_R_Finger12" 34
  36 "ValveBiped.Bip01_R_Finger0" 23
  37 "ValveBiped.Bip01_R_Finger01" 36
  38 "ValveBiped.Bip01_R_Finger02" 37
  39 "v_weapon.mac10_parent" -1
  40 "v_weapon.mac10_trigger" 39
  41 "v_weapon.mac10_bolt" 39
  42 "v_weapon.mac10_clip" 39
  43 "v_weapon.mac10_leather1" 39
  44 "v_weapon.mac10_leather2" 43
  45 "v_weapon.mac10_leather3" 44
  46 "v_weapon.mac10_leather4" 45
end
skeleton
  time 0
    0 0.000000 -7.269759 -9.363567 -1.570797 -0.936404 -1.570891
    1 2.033348 1.000767 1.937660 2.876396 -0.740743 1.781733
    2 6.028145 0.000003 0.000002 -2.423292 -0.523137 0.091966
    3 11.692553 0.000081 -0.000005 0.105533 0.093096 -0.581513
    4 11.481672 -0.000089 -0.000024 0.708284 0.301159 0.728121
    5 3.281560 0.002120 -1.383388 0.099703 -0.198220 -1.489126
    6 1.324284 -0.000008 0.000004 0.000000 -0.046144 -1.387278
    7 0.819210 -0.000004 0.000003 0.000001 -0.000003 -1.183286
    8 3.711854 0.109256 -0.568167 0.058909 -0.134623 -1.706929
    9 1.609408 0.000006 -0.000007 -0.000002 0.026887 -1.369798
    10 0.993191 -0.000006 0.000002 0.003524 0.012852 -1.082262
    11 3.786031 0.203223 0.247844 0.023558 -0.103296 -1.670267
    12 1.684424 -0.000010 0.000009 0.000002 0.014586 -1.404899
    13 1.252151 -0.000006 0.000003 -0.015880 0.011312 -1.369902
    14 3.594223 0.299550 1.109803 0.028676 -0.115042 -1.572288
    15 1.719435 0.000000 -0.000005 -0.000004 0.000016 -1.439874
    16 1.005925 -0.000006 0.000004 0.000005 0.000018 -1.167564
    17 0.298214 -0.634094 0.430606 -1.512771 -0.388028 -0.502173
    18 2.633559 0.000000 -0.000008 -0.000002 -0.246997 0.835999
    19 1.308566 0.000000 -0.000002 -0.107740 -0.126786 1.107970
    20 2.033356 1.000772 -1.937610 -0.128225 0.173059 4.244766
    21 6.028141 0.000000 -0.000002 -0.522516 0.872717 -2.150295
    22 11.692556 0.000000 -0.000002 0.029684 -0.049988 -1.057197
    23 11.481707 -0.000001 -0.000003 -1.036477 -0.799763 0.685207
    24 2.914339 -0.027069 1.404053 -0.133021 -0.094442 -0.566151
    25 1.285215 -0.000006 0.000000 0.000002 0.101439 -0.561485
    26 0.838746 -0.000002 -0.000001 -0.066634 0.050986 -1.115421
    27 3.368063 0.007379 0.622456 0.036966 -0.099792 -0.881627
    28 1.609375 0.000000 0.000000 -0.000005 0.098284 -0.866844
    29 1.016602 0.000000 0.000000 0.014872 -0.013942 -1.322835
    30 3.551622 0.023918 -0.200567 0.012524 -0.103773 -0.905534
    31 1.666016 0.000000 -0.000002 -0.000008 0.157406 -1.208297
    32 1.236531 0.000004 0.000006 0.000002 -0.000011 -1.221645
    33 3.449664 0.054215 -1.085181 0.081191 0.060719 0.090121
    34 1.711620 0.000002 0.000009 0.000003 -0.040000 -1.265062
    35 0.999023 0.000006 0.000002 0.005618 -0.013549 -0.593087
    36 0.075535 -0.738748 -0.755818 1.270555 0.364523 -0.554483
    37 2.508557 -0.000008 -0.000006 -0.000002 -0.000001 0.359159
    38 1.312473 0.175785 -0.105480 -0.009799 -0.054172 0.978226
    39 -6.965999 -18.341824 -23.596070 0.160306 0.132660 3.344492
    40 -0.058812 3.042970 -0.224466 0.000000 0.000000 0.000000
    41 -0.060159 4.910148 0.999546 0.000010 0.000000 0.000005
    42 -0.029969 1.499989 1.560558 0.000012 0.000000 0.000005
    43 -0.095737 3.016737 -4.012920 0.000006 0.000000 0.000000
    44 0.005473 -0.814070 -0.058788 0.000003 0.000024 0.000017
    45 0.007914 -1.099748 -0.017185 -0.000011 0.000000 -0.000005
    46 0.005704 -0.820541 -0.033703 -0.000015 0.000001 -0.000007
  time 1
    0 0.000000 -7.254134 -9.359661 -1.570797 -0.937739 -1.570843
    1 2.033348 1.000767 1.937660 2.876396 -0.740743 1.781733
    2 6.028145 0.000003 0.000002 -2.422709 -0.524451 0.091655
    3 11.692553 0.000081 -0.000005 0.105977 0.092569 -0.577453
    4 11.481672 -0.000089 -0.000024 0.708095 0.301074 0.725837
    5 3.281560 0.002120 -1.383388 0.099703 -0.198220 -1.489126
    6 1.324284 -0.000008 0.000004 0.000000 -0.046144 -1.387278
    7 0.819210 -0.000004 0.000003 0.000001 -0.000003 -1.183286
    8 3.711854 0.109256 -0.568167 0.058909 -0.134623 -1.706929
    9 1.609408 0.000006 -0.000007 -0.000002 0.026887 -1.369798
    10 0.993191 -0.000006 0.000002 0.003524 0.012852 -1.082262
    11 3.786031 0.203223 0.243937 0.023558 -0.103296 -1.670267
    12 1.684424 -0.000010 0.000009 0.000002 0.014586 -1.404899
    13 1.252151 -0.000006 0.000003 -0.015880 0.011312 -1.369902
    14 3.594223 0.299550 1.109803 0.028676 -0.115042 -1.572288
    15 1.719435 0.000000 -0.000005 -0.000004 0.000016 -1.439874
    16 1.005925 -0.000006 0.000004 0.000005 0.000018 -1.167564
    17 0.298214 -0.634094 0.426700 -1.512771 -0.388028 -0.502173
    18 2.637466 0.000000 -0.000008 -0.000002 -0.246997 0.835999
    19 1.308566 0.000000 -0.000002 -0.107740 -0.126786 1.107970
    20 2.033356 1.000772 -1.937610 -0.128225 0.173059 4.244806
    21 6.028141 0.000000 -0.000002 -0.517381 0.862534 -2.141338
    22 11.692556 0.000000 -0.000002 0.018538 -0.031951 -1.055358
    23 11.481707 -0.000001 -0.000003 -1.045034 -0.810596 0.690457
    24 2.910432 -0.027069 1.404053 -0.132601 -0.094406 -0.565492
    25 1.285215 -0.000006 0.000000 0.000002 0.101439 -0.561485
    26 0.838746 -0.000002 -0.000001 -0.066634 0.050986 -1.115421
    27 3.364156 0.003473 0.622456 0.037362 -0.099636 -0.880968
    28 1.609375 0.000000 0.000000 -0.000005 0.098284 -0.866844
    29 1.016602 0.000000 0.000000 0.014872 -0.013942 -1.322835
    30 3.555528 0.023918 -0.200567 0.012908 -0.103605 -0.904875
    31 1.666016 0.000000 -0.000002 -0.000008 0.157406 -1.208297
    32 1.236531 0.000004 0.000006 0.000002 -0.000011 -1.221645
    33 3.449664 0.054215 -1.089087 0.081548 0.060479 0.090837
    34 1.711620 0.000002 0.000009 0.000003 -0.040000 -1.265062
    35 0.999023 0.000006 0.000002 0.005618 -0.013549 -0.593087
    36 0.075535 -0.738748 -0.763631 1.270998 0.364547 -0.553620
    37 2.508557 -0.000008 -0.000006 -0.000002 -0.000001 0.359159
    38 1.312473 0.175785 -0.105480 -0.009799 -0.054172 0.978226
    39 -6.965999 -18.341824 -23.596070 0.160306 0.132660 3.344492
    40 -0.058812 3.042970 -0.224466 0.000000 0.000000 0.000000
    41 -0.060159 4.910148 0.999546 0.000010 0.000000 0.000005
    42 -0.029969 1.499989 1.560558 0.000012 0.000000 0.000005
    43 -0.095737 3.016737 -4.012920 0.000006 0.000000 0.000000
    44 0.005473 -0.814070 -0.058788 0.000003 0.000024 0.000017
    45 0.007914 -1.099748 -0.017185 -0.000011 0.000000 -0.000005
    46 0.005704 -0.820541 -0.033703 -0.000015 0.000001 -0.000007
  time 2
    0 0.000000 -7.215070 -9.347942 -1.570797 -0.941631 -1.570891
    1 2.033348 1.000767 1.937660 2.876396 -0.740743 1.781733
    2 6.028145 0.000003 0.000002 -2.423292 -0.532203 0.095521
    3 11.692553 0.000081 -0.000005 0.108685 0.088746 -0.549944
    4 11.481672 -0.000089 -0.000024 0.708095 0.304224 0.714961
    5 3.281560 0.002120 -1.383388 0.100508 -0.197465 -1.503340
    6 1.324284 -0.000008 0.000004 0.000000 -0.044262 -1.399478
    7 0.819210 -0.000004 0.000003 0.000001 -0.000003 -1.191825
    8 3.711854 0.109256 -0.568167 0.060671 -0.133712 -1.719172
    9 1.609408 0.000006 -0.000007 -0.000002 0.027271 -1.383200
    10 0.993191 -0.000006 0.000002 0.003512 0.012972 -1.089236
    11 3.786031 0.203223 0.243937 0.025572 -0.102685 -1.685755
    12 1.684424 -0.000010 0.000009 0.000002 0.014455 -1.417839
    13 1.252151 -0.000006 0.000003 -0.016143 0.011372 -1.381873
    14 3.594223 0.299550 1.109803 0.030280 -0.114635 -1.586350
    15 1.719435 0.000000 -0.000005 -0.000004 0.000016 -1.454316
    16 1.005925 -0.000006 0.000004 0.000005 0.000018 -1.182789
    17 0.298214 -0.634094 0.430606 -1.514289 -0.385205 -0.501076
    18 2.633559 0.000000 -0.000008 -0.000002 -0.250097 0.843985
    19 1.308566 0.000000 -0.000002 -0.110232 -0.127984 1.121160
    20 2.033356 1.000772 -1.937610 -0.128225 0.173059 4.244766
    21 6.028141 0.000000 -0.000002 -0.592213 0.871502 -2.244558
    22 11.692556 0.000000 -0.000002 0.017196 -0.031256 -1.022768
    23 11.481707 -0.000001 -0.000003 -0.970254 -0.777707 0.599093
    24 2.914339 -0.023162 1.404053 -0.132857 -0.094214 -0.565971
    25 1.285215 -0.000006 0.000000 0.000002 0.101439 -0.561485
    26 0.838746 -0.000002 -0.000001 -0.066634 0.050986 -1.115421
    27 3.368063 0.007379 0.622456 0.037062 -0.099516 -0.881448
    28 1.609375 0.000000 0.000000 -0.000005 0.098284 -0.866844
    29 1.016602 0.000000 0.000000 0.014872 -0.013942 -1.322835
    30 3.555528 0.023918 -0.200567 0.012608 -0.103497 -0.905355
    31 1.666016 0.000000 -0.000002 -0.000008 0.157406 -1.208297
    32 1.240438 0.000004 0.000006 0.000002 -0.000011 -1.221645
    33 3.449664 0.054215 -1.085181 0.081466 0.060790 0.090320
    34 1.711620 0.000002 0.000009 0.000003 -0.040000 -1.265062
    35 0.999023 0.000006 0.000002 0.005618 -0.013549 -0.593087
    36 0.075535 -0.738748 -0.755818 1.270735 0.364751 -0.554219
    37 2.508557 -0.000008 -0.000006 -0.000002 -0.000001 0.359147
    38 1.312473 0.175785 -0.105480 -0.009799 -0.054172 0.978226
    39 -7.051939 -19.599675 -22.771826 0.262940 0.105537 3.347757
    40 -0.058812 3.042970 -0.224466 0.000000 0.000000 0.000000
    41 -0.060159 4.910148 0.999546 0.000010 0.000000 0.000005
    42 -0.029969 1.499989 1.560558 0.000012 0.000000 0.000005
    43 -0.095737 3.016737 -4.012920 0.000042 -0.000084 0.005836
    44 0.005473 -0.817976 -0.054882 0.062390 -0.001858 -0.011716
    45 0.007914 -1.099748 -0.017185 0.026486 0.000192 -0.000245
    46 0.005704 -0.820541 -0.033703 0.025223 0.000133 -0.000271
  time 3
    0 0.000000 -7.152568 -9.328410 -1.570797 -0.947872 -1.570891
    1 2.033348 1.000767 1.937660 2.876396 -0.740743 1.781733
    2 6.028145 0.000003 0.000002 -2.415156 -0.530450 0.086416
    3 11.692553 0.000081 -0.000005 0.110303 0.086768 -0.535278
    4 11.481672 -0.000089 -0.000024 0.706210 0.309589 0.711752
    5 3.281560 0.002120 -1.383388 0.102295 -0.195548 -1.536514
    6 1.324284 -0.000008 0.000004 0.000000 -0.039828 -1.428010
    7 0.819210 -0.000004 0.000003 0.000001 -0.000003 -1.211741
    8 3.711854 0.109256 -0.568167 0.064710 -0.131447 -1.747710
    9 1.609408 0.000006 -0.000007 -0.000002 0.028122 -1.414408
    10 0.993191 -0.000006 0.000002 0.003464 0.013260 -1.105544
    11 3.786031 0.203223 0.247844 0.030198 -0.101127 -1.721794
    12 1.684424 -0.000010 0.000009 0.000002 0.014119 -1.447915
    13 1.252151 -0.000006 0.000003 -0.016802 0.011480 -1.409793
    14 3.594223 0.299550 1.113710 0.034004 -0.113592 -1.619100
    15 1.719435 0.000000 -0.000005 -0.000004 0.000016 -1.488067
    16 1.005925 -0.000006 0.000004 0.000005 0.000018 -1.218399
    17 0.298214 -0.634094 0.426700 -1.517762 -0.378630 -0.498559
    18 2.637466 0.000000 -0.000008 -0.000002 -0.257313 0.862676
    19 1.308566 0.000000 -0.000002 -0.116129 -0.130693 1.151968
    20 2.033356 1.000772 -1.937610 -0.128178 0.173059 4.244766
    21 6.028141 0.000000 -0.000002 -0.666800 0.875083 -2.348346
    22 11.692556 0.000000 -0.000002 0.015770 -0.030465 -0.990236
    23 11.481707 -0.000001 -0.000003 -0.903196 -0.738827 0.512305
    24 2.910432 -0.027069 1.404053 -0.132784 -0.093735 -0.566067
    25 1.285215 -0.000006 0.000000 0.000002 0.101439 -0.561485
    26 0.838746 -0.000002 -0.000001 -0.066634 0.050986 -1.115421
    27 3.368063 0.007379 0.618550 0.036978 -0.099048 -0.881531
    28 1.609375 0.000000 0.000000 -0.000005 0.098284 -0.866844
    29 1.016602 0.000000 0.000000 0.014872 -0.013942 -1.322835
    30 3.551622 0.023918 -0.200567 0.012512 -0.103029 -0.905439
    31 1.666016 0.000000 -0.000002 -0.000008 0.157406 -1.208297
    32 1.236531 0.000004 0.000006 0.000002 -0.000011 -1.221645
    33 3.449664 0.054215 -1.085181 0.081836 0.061126 0.090241
    34 1.711620 0.000002 0.000009 0.000003 -0.040000 -1.265062
    35 0.999023 0.000006 0.000002 0.005618 -0.013549 -0.593087
    36 0.075535 -0.738748 -0.755818 1.270818 0.365218 -0.554291
    37 2.508557 -0.000008 -0.000006 -0.000002 -0.000001 0.359159
    38 1.312473 0.175785 -0.105480 -0.009799 -0.054172 0.978226
    39 -7.098816 -20.822369 -21.803047 0.371845 0.078630 3.351332
    40 -0.058812 3.042970 -0.224466 0.000000 0.000000 0.000000
    41 -0.060159 4.910148 0.999546 0.000010 0.000000 0.000005
    42 -0.029969 1.499989 1.560558 0.000012 0.000000 0.000005
    43 -0.095737 3.016737 -4.012920 0.000090 -0.000156 0.010366
    44 0.005473 -0.817976 -0.054882 0.135625 -0.003392 -0.023856
    45 0.007914 -1.099748 -0.017185 0.057597 0.000407 -0.000532
    46 0.005704 -0.820541 -0.033703 0.055349 0.000409 -0.000510
  time 4
    0 0.000000 -7.074441 -9.297159 -1.570797 -0.956324 -1.570891
    1 2.033348 1.000767 1.937660 2.876396 -0.740743 1.781733
    2 6.028145 0.000003 0.000002 -2.402506 -0.525227 0.070886
    3 11.692553 0.000081 -0.000005 0.111574 0.085558 -0.525501
    4 11.481672 -0.000089 -0.000024 0.703288 0.315081 0.710501
    5 3.281560 0.002120 -1.383388 0.104186 -0.193103 -1.574365
    6 1.324284 -0.000008 0.000004 0.000000 -0.034615 -1.460512
    7 0.819210 -0.000004 0.000003 0.000001 -0.000003 -1.234555
    8 3.711854 0.109256 -0.572074 0.069276 -0.128726 -1.780420
    9 1.609408 0.000006 -0.000007 -0.000002 0.029057 -1.450135
    10 0.993191 -0.000006 0.000002 0.003429 0.013584 -1.124147
    11 3.786031 0.203223 0.243937 0.035423 -0.099173 -1.763009
    12 1.684424 -0.000010 0.000009 0.000002 0.013699 -1.482292
    13 1.252151 -0.000006 0.000003 -0.017557 0.011600 -1.441690
    14 3.594223 0.299550 1.109803 0.038244 -0.112238 -1.656585
    15 1.719435 0.000000 -0.000005 -0.000004 0.000016 -1.526606
    16 1.005925 -0.000006 0.000004 0.000005 0.000018 -1.259009
    17 0.298214 -0.634094 0.426700 -1.521687 -0.371124 -0.495669
    18 2.637466 0.000000 -0.000008 -0.000002 -0.265515 0.884165
    19 1.308566 0.000000 -0.000002 -0.122948 -0.133557 1.187232
    20 2.033356 1.000772 -1.937610 -0.128225 0.173059 4.244766
    21 6.028141 0.000000 -0.000002 -0.736822 0.873834 -2.447728
    22 11.692556 0.000000 -0.000002 0.014332 -0.029986 -0.960232
    23 11.481707 -0.000001 -0.000003 -0.843511 -0.693986 0.431002
    24 2.914339 -0.023162 1.400147 -0.132857 -0.094214 -0.565971
    25 1.285215 -0.000006 0.000000 0.000002 0.101439 -0.561485
    26 0.838746 -0.000002 -0.000001 -0.066634 0.050986 -1.115421
    27 3.368063 0.007379 0.618550 0.037062 -0.099516 -0.881448
    28 1.609375 0.000000 0.000000 -0.000005 0.098284 -0.866844
    29 1.016602 0.000000 0.000000 0.014872 -0.013942 -1.322835
    30 3.555528 0.023918 -0.200567 0.012608 -0.103497 -0.905355
    31 1.666016 0.000000 -0.000002 -0.000008 0.157406 -1.208297
    32 1.236531 0.000004 0.000006 0.000002 -0.000011 -1.221645
    33 3.449664 0.054215 -1.085181 0.081466 0.060790 0.090320
    34 1.711620 0.000002 0.000009 0.000003 -0.040000 -1.265062
    35 0.999023 0.000006 0.000002 0.005618 -0.013549 -0.593087
    36 0.075535 -0.738748 -0.759724 1.270735 0.364751 -0.554231
    37 2.508557 -0.000008 -0.000006 -0.000002 -0.000001 0.359159
    38 1.312473 0.175785 -0.105480 -0.009799 -0.054172 0.978226
    39 -7.098816 -21.966935 -20.689731 0.485323 0.052730 3.355063
    40 -0.058812 3.042970 -0.224466 0.000000 0.000000 0.000000
    41 -0.060159 4.910148 0.999546 0.000010 0.000000 0.000005
    42 -0.029969 1.499989 1.560558 0.000012 0.000000 0.000005
    43 -0.095737 3.016737 -4.012920 0.000126 -0.000216 0.014101
    44 0.005473 -0.817976 -0.054882 0.213245 -0.004171 -0.036356
    45 0.007914 -1.099748 -0.017185 0.091335 0.000683 -0.000856
    46 0.005704 -0.820541 -0.033703 0.088745 0.000672 -0.000810
  time 5
    0 0.000000 -6.972875 -9.265908 -1.570797 -0.966806 -1.570843
    1 2.033348 1.000767 1.937660 2.876396 -0.740743 1.781733
    2 6.028145 0.000003 0.000002 -2.389949 -0.523070 0.056043
    3 11.692553 0.000081 -0.000005 0.113287 0.083676 -0.511249
    4 11.481672 -0.000089 -0.000024 0.700366 0.318913 0.704900
    5 3.281560 0.002120 -1.383388 0.105500 -0.191089 -1.602770
    6 1.324284 -0.000008 0.000004 0.000000 -0.030612 -1.484848
    7 0.819210 -0.000004 0.000003 0.000001 -0.000003 -1.251697
    8 3.711854 0.109256 -0.568167 0.072631 -0.126593 -1.804876
    9 1.609408 0.000006 -0.000007 -0.000002 0.029740 -1.476901
    10 0.993191 -0.000006 0.000002 0.003393 0.013811 -1.138095
    11 3.786031 0.203223 0.243937 0.039306 -0.097591 -1.793836
    12 1.684424 -0.000010 0.000009 0.000002 0.013352 -1.508066
    13 1.252151 -0.000006 0.000003 -0.018145 0.011660 -1.465632
    14 3.594223 0.299550 1.109803 0.041366 -0.111135 -1.684637
    15 1.719435 0.000000 -0.000005 -0.000004 0.000016 -1.555530
    16 1.005925 -0.000006 0.000004 0.000005 0.000018 -1.289523
    17 0.298214 -0.634094 0.426700 -1.524610 -0.365480 -0.493526
    18 2.633559 0.000000 -0.000008 -0.000002 -0.271618 0.900283
    19 1.308566 0.000000 -0.000002 -0.128125 -0.135559 1.213734
    20 2.033356 1.000772 -1.937610 -0.128225 0.173059 4.244766
    21 6.028141 0.000000 -0.000002 -0.799589 0.868053 -2.540000
    22 11.692556 0.000000 -0.000002 0.012905 -0.029410 -0.934080
    23 11.481707 -0.000001 -0.000003 -0.793774 -0.645254 0.358146
    24 2.910432 -0.023162 1.400147 -0.132857 -0.094214 -0.565971
    25 1.285215 -0.000006 0.000000 0.000002 0.101427 -0.561485
    26 0.838746 -0.000002 -0.000001 -0.066634 0.050986 -1.115421
    27 3.368063 0.007379 0.622456 0.037062 -0.099516 -0.881448
    28 1.609375 0.000000 0.000000 -0.000005 0.098284 -0.866844
    29 1.016602 0.000000 0.000000 0.014872 -0.013942 -1.322835
    30 3.555528 0.023918 -0.204473 0.012608 -0.103497 -0.905355
    31 1.666016 0.000000 -0.000002 -0.000008 0.157406 -1.208297
    32 1.236531 0.000004 0.000006 0.000002 -0.000011 -1.221645
    33 3.449664 0.054215 -1.085181 0.081466 0.060790 0.090320
    34 1.711620 0.000002 0.000009 0.000003 -0.040000 -1.265062
    35 0.999023 0.000006 0.000002 0.005618 -0.013549 -0.593087
    36 0.075535 -0.738748 -0.759724 1.270735 0.364751 -0.554219
    37 2.508557 -0.000008 -0.000006 -0.000002 -0.000001 0.359159
    38 1.312473 0.175785 -0.105480 -0.009799 -0.054172 0.978226
    39 -7.040220 -23.009935 -19.459225 0.601871 0.028701 3.359027
    40 -0.058812 3.042970 -0.224466 0.000000 0.000000 0.000000
    41 -0.060159 4.910148 0.999546 0.000010 0.000000 0.000005
    42 -0.029969 1.499989 1.560558 0.000012 0.000000 0.000005
    43 -0.095737 3.016737 -4.012920 0.000162 -0.000276 0.017603
    44 0.005473 -0.817976 -0.054882 0.288740 -0.003919 -0.048748
    45 0.007914 -1.099748 -0.017185 0.125722 0.000995 -0.001144
    46 0.005704 -0.820541 -0.033703 0.123715 0.000948 -0.001110
  time 6
    0 0.000000 -6.851778 -9.226844 -1.570797 -0.979122 -1.570891
    1 2.033348 1.000767 1.937660 2.876396 -0.740743 1.781733
    2 6.028145 0.000003 0.000002 -2.381904 -0.531832 0.049245
    3 11.692553 0.000081 -0.000005 0.116415 0.079302 -0.480260
    4 11.481672 -0.000089 -0.000024 0.698010 0.319040 0.687008
    5 3.281560 0.002120 -1.383388 0.105745 -0.190742 -1.607448
    6 1.324284 -0.000008 0.000004 0.000000 -0.029941 -1.489011
    7 0.819210 -0.000004 0.000003 0.000001 -0.000003 -1.254533
    8 3.711854 0.109256 -0.572074 0.073195 -0.126222 -1.808988
    9 1.609408 0.000006 -0.000007 -0.000002 0.029860 -1.481381
    10 0.993191 -0.000006 0.000002 0.003381 0.013871 -1.140477
    11 3.786031 0.203223 0.243937 0.039953 -0.097316 -1.799085
    12 1.684424 -0.000010 0.000009 0.000002 0.013292 -1.512438
    13 1.252151 -0.000006 0.000003 -0.018241 0.011672 -1.469648
    14 3.594223 0.299550 1.109803 0.041896 -0.110931 -1.689406
    15 1.719435 0.000000 -0.000005 -0.000004 0.000016 -1.560397
    16 1.005925 -0.000006 0.000004 0.000005 0.000018 -1.294619
    17 0.298214 -0.634094 0.430606 -1.525095 -0.364534 -0.493177
    18 2.633559 0.000000 -0.000008 -0.000002 -0.272618 0.903000
    19 1.308566 0.000000 -0.000002 -0.128988 -0.135870 1.218161
    20 2.033356 1.000772 -1.937610 -0.128225 0.173059 4.244766
    21 6.028141 0.000000 -0.000002 -0.853879 0.858954 -2.623671
    22 11.692556 0.000000 -0.000002 0.011779 -0.028811 -0.911894
    23 11.481707 -0.000001 -0.000003 -0.753358 -0.594506 0.293267
    24 2.910432 -0.023162 1.400147 -0.132966 -0.093879 -0.566295
    25 1.285215 -0.000006 0.000000 0.000002 0.101439 -0.561485
    26 0.838746 -0.000002 -0.000001 -0.066634 0.050986 -1.115421
    27 3.368063 0.007379 0.618550 0.036847 -0.099228 -0.881759
    28 1.609375 0.000000 0.000000 -0.000005 0.098284 -0.866844
    29 1.016602 0.000000 0.000000 0.014872 -0.013942 -1.322835
    30 3.555528 0.023918 -0.200567 0.012405 -0.103209 -0.905666
    31 1.666016 0.000000 -0.000002 -0.000008 0.157406 -1.208297
    32 1.236531 0.000004 0.000006 0.000002 -0.000011 -1.221645
    33 3.449664 0.054215 -1.089087 0.081603 0.061126 0.090002
    34 1.711620 0.000002 0.000009 0.000003 -0.040000 -1.265062
    35 0.999023 0.000006 0.000002 0.005618 -0.013549 -0.593087
    36 0.075535 -0.734841 -0.759724 1.270627 0.365087 -0.554602
    37 2.508557 -0.000008 -0.000006 -0.000002 -0.000001 0.359159
    38 1.312473 0.175785 -0.105480 -0.009799 -0.054184 0.978226
    39 -6.926936 -23.904494 -18.138872 0.719661 0.006938 3.363691
    40 -0.058812 3.042970 -0.224466 0.000000 0.000000 0.000000
    41 -0.060159 4.910148 0.999546 0.000010 0.000000 0.000005
    42 -0.029969 1.499989 1.560558 0.000012 0.000000 0.000005
    43 -0.095737 3.016737 -4.012920 0.000198 -0.000336 0.021432
    44 0.005473 -0.817976 -0.054882 0.355488 -0.002601 -0.060745
    45 0.007914 -1.099748 -0.017185 0.158810 0.001258 -0.001431
    46 0.005704 -0.820541 -0.033703 0.158716 0.001211 -0.001457
  time 7
    0 0.000000 -6.715055 -9.183874 -1.570797 -0.993106 -1.570891
    1 2.033348 1.000767 1.937660 2.876396 -0.740743 1.781733
    2 6.028145 0.000003 0.000002 -2.383808 -0.561489 0.059223
    3 11.692553 0.000081 -0.000005 0.121736 0.069631 -0.416128
    4 11.481672 -0.000089 -0.000024 0.697068 0.313165 0.646710
    5 3.281560 0.002120 -1.383388 0.104186 -0.193103 -1.574365
    6 1.324284 -0.000008 0.000004 0.000000 -0.034615 -1.460512
    7 0.819210 -0.000004 0.000003 0.000001 -0.000003 -1.234555
    8 3.711854 0.109256 -0.572074 0.069276 -0.128726 -1.780389
    9 1.609408 0.000006 -0.000007 -0.000002 0.029057 -1.450135
    10 0.993191 -0.000006 0.000002 0.003429 0.013584 -1.124147
    11 3.786031 0.203223 0.243937 0.035411 -0.099173 -1.763009
    12 1.684424 -0.000010 0.000009 0.000002 0.013699 -1.482292
    13 1.252151 -0.000006 0.000003 -0.017557 0.011600 -1.441690
    14 3.594223 0.299550 1.109803 0.038244 -0.112238 -1.656585
    15 1.719435 0.000000 -0.000005 -0.000004 0.000016 -1.526606
    16 1.005925 -0.000006 0.000004 0.000005 0.000018 -1.259009
    17 0.298214 -0.634094 0.426700 -1.521687 -0.371124 -0.495669
    18 2.633559 0.000000 -0.000008 -0.000002 -0.265515 0.884165
    19 1.308566 0.000000 -0.000002 -0.122948 -0.133557 1.187232
    20 2.033356 1.000772 -1.937610 -0.128225 0.173059 4.244766
    21 6.028141 0.000000 -0.000002 -0.897490 0.848114 -2.695825
    22 11.692556 0.000000 -0.000002 0.010305 -0.028583 -0.895283
    23 11.481707 -0.000001 -0.000003 -0.719273 -0.542583 0.233727
    24 2.910432 -0.023162 1.400147 -0.132857 -0.094214 -0.565971
    25 1.285215 -0.000006 0.000000 0.000002 0.101439 -0.561485
    26 0.838746 -0.000002 -0.000001 -0.066634 0.050986 -1.115421
    27 3.364156 0.007379 0.622456 0.037062 -0.099516 -0.881448
    28 1.609375 0.000000 0.000000 -0.000005 0.098284 -0.866844
    29 1.016602 0.000000 0.000000 0.014872 -0.013942 -1.322835
    30 3.555528 0.027824 -0.200567 0.012608 -0.103497 -0.905355
    31 1.666016 0.000000 -0.000002 -0.000008 0.157406 -1.208297
    32 1.236531 0.000004 0.000006 0.000002 -0.000011 -1.221645
    33 3.449664 0.054215 -1.089087 0.081466 0.060790 0.090320
    34 1.711620 0.000002 0.000009 0.000003 -0.040000 -1.265062
    35 0.999023 0.000006 0.000002 0.005618 -0.013549 -0.593087
    36 0.075535 -0.734841 -0.759724 1.270735 0.364751 -0.554231
    37 2.508557 -0.000008 -0.000006 -0.000002 -0.000001 0.359159
    38 1.312473 0.175785 -0.105480 -0.009799 -0.054172 0.978226
    39 -6.755055 -24.646704 -16.756018 0.837059 -0.011911 3.369054
    40 -0.058812 3.042970 -0.224466 0.000000 0.000000 0.000000
    41 -0.060159 4.910148 0.999546 0.000010 0.000000 0.000005
    42 -0.029969 1.499989 1.560558 0.000012 0.000000 0.000005
    43 -0.095737 3.016737 -4.012920 0.000246 -0.000384 0.026381
    44 0.005473 -0.817976 -0.054882 0.407093 -0.000395 -0.072190
    45 0.007914 -1.099748 -0.017185 0.188596 0.001522 -0.001695
    46 0.005704 -0.820541 -0.033703 0.192052 0.001559 -0.001709
  time 8
    0 0.000000 -6.566613 -9.136998 -1.570797 -1.008592 -1.570891
    1 2.033348 1.000767 1.937660 2.876396 -0.740743 1.781733
    2 6.028145 0.000003 0.000002 -2.407173 -0.626768 0.102569
    3 11.692553 0.000081 -0.000005 0.129922 0.049233 -0.288527
    4 11.481672 -0.000089 -0.000024 0.698104 0.299754 0.566767
    5 3.281560 0.002120 -1.379481 0.099703 -0.198220 -1.489126
    6 1.324284 -0.000008 0.000004 0.000000 -0.046144 -1.387246
    7 0.819210 -0.000004 0.000003 0.000001 -0.000003 -1.183286
    8 3.711854 0.109256 -0.568167 0.058909 -0.134623 -1.706929
    9 1.609408 0.000006 -0.000007 -0.000002 0.026887 -1.369798
    10 0.993191 -0.000006 0.000002 0.003524 0.012852 -1.082262
    11 3.786031 0.203223 0.243937 0.023558 -0.103308 -1.670304
    12 1.684424 -0.000010 0.000009 0.000002 0.014586 -1.404899
    13 1.252151 -0.000006 0.000003 -0.015880 0.011312 -1.369940
    14 3.594223 0.299550 1.109803 0.028676 -0.115042 -1.572288
    15 1.719435 0.000000 -0.000005 -0.000004 0.000016 -1.439874
    16 1.005925 -0.000006 0.000004 0.000005 0.000018 -1.167564
    17 0.298214 -0.634094 0.430606 -1.512771 -0.388028 -0.502173
    18 2.633559 0.000000 -0.000008 -0.000002 -0.246997 0.835999
    19 1.308566 0.000000 -0.000002 -0.107740 -0.126786 1.107970
    20 2.033356 1.000772 -1.937610 -0.128225 0.173059 4.244766
    21 6.028141 0.000000 -0.000002 -0.930667 0.836189 -2.756535
    22 11.692556 0.000000 -0.000002 0.009178 -0.028116 -0.883787
    23 11.481707 -0.000001 -0.000003 -0.692839 -0.491416 0.181226
    24 2.910432 -0.023162 1.400147 -0.132857 -0.094214 -0.565971
    25 1.285215 -0.000006 0.000000 0.000002 0.101439 -0.561485
    26 0.838746 -0.000002 -0.000001 -0.066634 0.050986 -1.115421
    27 3.368063 0.007379 0.622456 0.037062 -0.099516 -0.881448
    28 1.609375 0.000000 0.000000 -0.000005 0.098284 -0.866844
    29 1.016602 0.000000 0.000000 0.014872 -0.013942 -1.322835
    30 3.555528 0.023918 -0.200567 0.012608 -0.103497 -0.905355
    31 1.666016 0.000000 -0.000002 -0.000008 0.157406 -1.208297
    32 1.236531 0.000004 0.000006 0.000002 -0.000011 -1.221645
    33 3.449664 0.054215 -1.089087 0.081466 0.060790 0.090320
    34 1.711620 0.000002 0.000009 0.000003 -0.040000 -1.265062
    35 0.999023 0.000006 0.000002 0.005618 -0.013549 -0.593087
    36 0.075535 -0.738748 -0.755818 1.270735 0.364751 -0.554231
    37 2.508557 -0.000008 -0.000006 -0.000002 -0.000001 0.359159
    38 1.312473 0.175785 -0.105480 -0.009799 -0.054172 0.978226
    39 -6.544111 -25.209221 -15.361444 0.952170 -0.027739 3.375350
    40 -0.058812 3.042970 -0.224466 0.000000 0.000000 0.000000
    41 -0.060159 4.910148 0.999546 0.000010 0.000000 0.000005
    42 -0.029969 1.499989 1.560558 0.000012 0.000000 0.000005
    43 -0.095737 3.016737 -4.012920 0.000306 -0.000491 0.032918
    44 0.005473 -0.817976 -0.058788 0.437022 0.002445 -0.082832
    45 0.007914 -1.099748 -0.017185 0.213130 0.001774 -0.001899
    46 0.001798 -0.820541 -0.033703 0.222223 0.001787 -0.001972
  time 9
    0 0.000000 -6.398639 -9.090121 -1.570797 -1.025384 -1.570891
    1 2.033348 1.000767 1.937660 2.876396 -0.740743 1.781733
    2 6.028145 0.000003 0.000002 -2.486848 -0.755202 0.224934
    3 11.692553 0.000081 -0.000005 0.137664 0.001630 -0.009460
    4 11.481672 -0.000089 -0.000024 0.700649 0.280936 0.404488
    5 3.285467 0.002120 -1.383388 0.057179 -0.198088 -0.956665
    6 1.324284 -0.000008 0.000004 0.000000 -0.089480 -0.929367
    7 0.819210 -0.000004 0.000003 0.000001 -0.000003 -0.859203
    8 3.711854 0.105349 -0.568167 -0.009846 -0.152432 -1.251300
    9 1.609408 0.000006 -0.000007 -0.000002 0.011499 -0.867522
    10 0.993191 -0.000006 0.000002 0.003464 0.008155 -0.811481
    11 3.786031 0.203223 0.243937 -0.051238 -0.107047 -1.087501
    12 1.684424 -0.000010 0.000009 0.000002 0.013508 -0.925400
    13 1.252151 -0.000006 0.000003 -0.006064 0.006854 -0.917487
    14 3.594223 0.299550 1.109803 -0.032869 -0.114167 -1.044747
    15 1.719435 0.000000 -0.000005 -0.000004 0.000016 -0.897677
    16 1.005925 -0.000006 0.000004 0.000005 0.000018 -0.576201
    17 0.298214 -0.634094 0.426700 -1.452072 -0.497386 -0.540698
    18 2.633559 0.000000 -0.000008 -0.000002 -0.124626 0.530594
    19 1.308566 0.000000 -0.000002 -0.027683 -0.057263 0.600169
    20 2.033356 1.000772 -1.937610 -0.128225 0.173059 4.244766
    21 6.028141 0.000000 -0.000002 -0.954307 0.824068 -2.806012
    22 11.692556 0.000000 -0.000002 0.008171 -0.028020 -0.877062
    23 11.481707 -0.000001 -0.000003 -0.671274 -0.441592 0.134591
    24 2.910432 -0.023162 1.400147 -0.133095 -0.094370 -0.566331
    25 1.285215 -0.000006 0.000000 0.000002 0.101439 -0.561485
    26 0.838746 -0.000002 -0.000001 -0.066634 0.050986 -1.115421
    27 3.368063 0.011286 0.622456 0.036859 -0.099756 -0.881807
    28 1.609375 0.000000 0.000000 -0.000005 0.098284 -0.866844
    29 1.016602 0.000000 0.000000 0.014872 -0.013942 -1.322835
    30 3.555528 0.027824 -0.200567 0.012417 -0.103737 -0.905714
    31 1.666016 0.000000 -0.000002 -0.000008 0.157406 -1.208297
    32 1.236531 0.000004 0.000006 0.000002 0.000001 -1.221645
    33 3.449664 0.054215 -1.089087 0.081178 0.060826 0.089923
    34 1.711620 0.000002 0.000009 0.000003 -0.040000 -1.265062
    35 0.999023 0.000006 0.000002 0.005618 -0.013549 -0.593087
    36 0.075535 -0.734841 -0.759724 1.270459 0.364595 -0.554710
    37 2.508557 -0.000008 -0.000006 -0.000002 -0.000001 0.359159
    38 1.312473 0.175785 -0.105480 -0.009799 -0.054172 0.978226
    39 -6.301916 -25.603765 -13.990308 1.063362 -0.040113 3.382889
    40 -0.058812 3.042970 -0.224466 0.000000 0.000000 0.000000
    41 -0.060159 4.910148 0.999546 0.000010 0.000000 0.000005
    42 -0.029969 1.499989 1.560558 0.000012 0.000000 0.000005
    43 -0.095737 3.016737 -4.012920 0.000378 -0.000623 0.041602
    44 0.005473 -0.817976 -0.054882 0.438834 0.005357 -0.092516
    45 0.007914 -1.099748 -0.017185 0.230476 0.001930 -0.002018
    46 0.005704 -0.820541 -0.033703 0.247431 0.002074 -0.002176
  time 10
    0 0.000000 -6.218946 -9.043245 -1.570797 -1.043331 -1.570843
    1 2.033348 1.000767 1.937660 2.876396 -0.740743 1.781733
    2 6.028145 0.000003 0.000002 -2.498116 -0.781455 0.237657
    3 11.692553 0.000081 -0.000005 0.138215 0.000000 -0.000097
    4 11.481672 -0.000089 -0.000024 0.697822 0.249048 0.388771
    5 3.402658 -0.040850 -1.316979 0.007510 -0.148892 -0.458276
    6 1.324284 -0.000008 0.000004 0.000000 -0.068579 -0.487723
    7 0.815304 -0.000004 0.000003 0.000001 -0.000003 -0.554975
    8 3.829045 0.054567 -0.501759 -0.069937 -0.136133 -0.814006
    9 1.609408 0.000006 -0.000007 -0.000002 -0.000413 -0.385651
    10 0.993191 -0.000006 0.000002 0.002350 0.004080 -0.569223
    11 3.891503 0.144628 0.314252 -0.101477 -0.076558 -0.545505
    12 1.684424 -0.000010 0.000009 0.000002 0.002578 -0.457267
    13 1.252151 -0.000006 0.000003 0.000467 -0.000864 -0.490390
    14 3.703601 0.240955 1.180118 -0.078029 -0.085476 -0.551722
    15 1.719435 0.000000 -0.000005 -0.000004 0.000016 -0.376923
    16 1.005925 -0.000006 0.000004 0.000005 0.000018 -0.047147
    17 0.403686 -0.653626 0.477482 -1.374915 -0.594640 -0.606012
    18 2.637466 0.000000 -0.000008 -0.000002 -0.022268 0.259029
    19 1.308566 0.000000 -0.000002 0.007097 0.030883 0.152147
    20 2.033356 1.000772 -1.937610 -0.128225 0.173025 4.244766
    21 6.028141 0.000000 -0.000002 -0.969143 0.811881 -2.844684
    22 11.692556 0.000000 -0.000002 0.007309 -0.027601 -0.872407
    23 11.481707 -0.000001 -0.000003 -0.654162 -0.395211 0.090566
    24 2.914339 -0.023162 1.400147 -0.132857 -0.094214 -0.565971
    25 1.285215 -0.000006 0.000000 0.000002 0.101439 -0.561485
    26 0.838746 -0.000002 -0.000001 -0.066634 0.050986 -1.115421
    27 3.368063 0.007379 0.618550 0.037062 -0.099516 -0.881448
    28 1.609375 0.000000 0.000000 -0.000005 0.098284 -0.866844
    29 1.016602 0.000000 0.000000 0.014872 -0.013942 -1.322835
    30 3.555528 0.023918 -0.200567 0.012608 -0.103497 -0.905355
    31 1.666016 0.000000 -0.000002 -0.000008 0.157406 -1.208297
    32 1.236531 0.000004 0.000006 0.000002 -0.000011 -1.221645
    33 3.449664 0.054215 -1.089087 0.081466 0.060790 0.090320
    34 1.711620 0.000002 0.000009 0.000003 -0.040000 -1.265062
    35 0.999023 0.000006 0.000002 0.005618 -0.013549 -0.593087
    36 0.075535 -0.738748 -0.755818 1.270735 0.364751 -0.554219
    37 2.508557 -0.000008 -0.000006 -0.000002 -0.000001 0.359159
    38 1.312473 0.175785 -0.105480 -0.009799 -0.054172 0.978226
    39 -6.040190 -25.849866 -12.685581 1.168804 -0.048746 3.391517
    40 -0.058812 3.042970 -0.224466 0.000000 0.000000 0.000000
    41 -0.060159 4.910148 0.999546 0.000010 0.000000 0.000005
    42 -0.029969 1.499989 1.560558 0.000012 0.000000 0.000005
    43 -0.095737 3.016737 -4.012920 0.000485 -0.000839 0.053089
    44 0.005473 -0.817976 -0.054882 0.415392 0.008521 -0.102427
    45 0.007914 -1.099748 -0.017185 0.238605 0.001989 -0.002078
    46 0.005704 -0.824448 -0.033703 0.266249 0.002278 -0.002356
  time 11
    0 0.000000 -6.027534 -8.992462 -1.570797 -1.062236 -1.570891
    1 2.033348 1.000767 1.937660 2.876396 -0.740743 1.781733
    2 6.028145 0.000003 0.000002 -2.508371 -0.806056 0.248385
    3 11.692553 0.000081 -0.000005 0.138719 0.000000 -0.000097
    4 11.481672 -0.000089 -0.000024 0.695371 0.216095 0.367127
    5 3.406564 -0.044757 -1.313073 -0.000949 -0.139352 -0.386059
    6 1.324284 -0.000008 0.000004 0.000000 -0.060969 -0.423296
    7 0.819210 -0.000004 0.000003 0.000001 -0.000003 -0.530127
    8 3.832951 0.050660 -0.501759 -0.080747 -0.130943 -0.731043
    9 1.609408 0.000006 -0.000007 -0.000002 -0.001480 -0.323422
    10 0.993191 -0.000006 0.000002 0.002374 0.004116 -0.571497
    11 3.899315 0.144628 0.318159 -0.106007 -0.072472 -0.485033
    12 1.684424 -0.000010 0.000009 0.000002 0.000492 -0.378580
    13 1.252151 -0.000006 0.000003 0.000923 -0.001727 -0.450155
    14 3.707507 0.237048 1.176212 -0.083271 -0.081222 -0.488906
    15 1.719435 0.000000 -0.000005 -0.000004 0.000016 -0.308213
    16 1.005925 -0.000006 0.000004 0.000005 0.000018 -0.052051
    17 0.407592 -0.657533 0.473576 -1.359312 -0.590944 -0.634121
    18 2.637466 0.000000 -0.000008 -0.000002 -0.022790 0.261623
    19 1.308566 0.000000 -0.000002 0.006965 0.029996 0.156333
    20 2.033356 1.000772 -1.937610 -0.128225 0.173059 4.244766
    21 6.028141 0.000000 -0.000002 -0.977213 0.799891 -2.873830
    22 11.692556 0.000000 -0.000002 0.006542 -0.027325 -0.868441
    23 11.481707 -0.000001 -0.000003 -0.638928 -0.352133 0.049563
    24 2.910432 -0.023162 1.400147 -0.132857 -0.094214 -0.565971
    25 1.285215 -0.000006 0.000000 0.000002 0.101439 -0.561485
    26 0.838746 -0.000002 -0.000001 -0.066634 0.050986 -1.115421
    27 3.368063 0.007379 0.618550 0.037062 -0.099516 -0.881448
    28 1.609375 0.000000 0.000000 -0.000005 0.098284 -0.866844
    29 1.016602 0.000000 0.000000 0.014872 -0.013942 -1.322835
    30 3.555528 0.023918 -0.200567 0.012608 -0.103497 -0.905355
    31 1.666016 0.000000 -0.000002 -0.000008 0.157406 -1.208297
    32 1.236531 0.000004 0.000006 0.000002 -0.000011 -1.221645
    33 3.449664 0.054215 -1.089087 0.081466 0.060790 0.090320
    34 1.711620 0.000002 0.000009 0.000003 -0.040000 -1.265062
    35 0.999023 0.000006 0.000002 0.005618 -0.013549 -0.593087
    36 0.075535 -0.738748 -0.755818 1.270735 0.364751 -0.554231
    37 2.508557 -0.000008 -0.000006 -0.000002 -0.000001 0.359159
    38 1.312473 0.175785 -0.105480 -0.009799 -0.054172 0.978226
    39 -5.778463 -25.951432 -11.474606 1.266930 -0.053315 3.401077
    40 -0.058812 3.042970 -0.224466 0.000000 0.000000 0.000000
    41 -0.060159 4.910148 0.999546 0.000010 0.000000 0.000005
    42 -0.029969 1.499989 1.560558 0.000012 0.000000 0.000005
    43 -0.095737 3.016737 -4.012920 0.000617 -0.001079 0.067983
    44 0.005473 -0.817976 -0.054882 0.376000 0.011697 -0.113669
    45 0.007914 -1.099748 -0.017185 0.235581 0.001953 -0.002054
    46 0.001798 -0.820541 -0.033703 0.276806 0.002374 -0.002404
  time 12
    0 0.000000 -5.836122 -8.945585 -1.570797 -1.081948 -1.570891
    1 2.033348 1.000767 1.937660 2.876396 -0.740743 1.781733
    2 6.028145 0.000003 0.000002 -2.521850 -0.832478 0.263041
    3 11.692553 0.000081 -0.000005 0.139066 0.000000 -0.000097
    4 11.481672 -0.000089 -0.000024 0.692826 0.182333 0.334280
    5 3.297186 -0.001787 -1.371668 -0.012718 -0.126852 -0.314697
    6 1.324284 -0.000008 0.000004 0.000000 -0.053874 -0.368346
    7 0.815304 -0.000004 0.000003 0.000001 -0.000003 -0.515390
    8 3.727479 0.101443 -0.560354 -0.096219 -0.122770 -0.641410
    9 1.609408 0.000006 -0.000007 -0.000002 -0.002247 -0.273503
    10 0.993191 -0.000006 0.000002 0.002422 0.004224 -0.578081
    11 3.801656 0.199317 0.251750 -0.114181 -0.065940 -0.429403
    12 1.684424 -0.000010 0.000009 0.000002 -0.001305 -0.308322
    13 1.252151 -0.000006 0.000003 0.001175 -0.002314 -0.422962
    14 3.605942 0.291737 1.121522 -0.092252 -0.074258 -0.428068
    15 1.719435 0.000000 -0.000005 -0.000004 0.000016 -0.251934
    16 1.005925 -0.000006 0.000004 0.000005 0.000018 -0.066474
    17 0.309933 -0.634094 0.430606 -1.351802 -0.579384 -0.650243
    18 2.633559 0.000000 -0.000008 -0.000002 -0.025284 0.269074
    19 1.308566 0.000000 -0.000002 0.006545 0.027444 0.168469
    20 2.033356 1.000772 -1.937610 -0.128225 0.173059 4.244766
    21 6.028141 0.000000 -0.000002 -0.979577 0.787376 -2.894019
    22 11.692556 0.000000 -0.000002 0.005739 -0.026953 -0.862578
    23 11.481707 -0.000001 -0.000003 -0.624459 -0.312918 0.010612
    24 2.910432 -0.023162 1.400147 -0.132857 -0.094214 -0.565971
    25 1.285215 -0.000006 0.000000 0.000002 0.101427 -0.561485
    26 0.838746 -0.000002 -0.000001 -0.066634 0.050986 -1.115421
    27 3.368063 0.007379 0.618550 0.037062 -0.099516 -0.881448
    28 1.609375 0.000000 0.000000 -0.000005 0.098284 -0.866844
    29 1.016602 0.000000 0.000000 0.014872 -0.013942 -1.322835
    30 3.551622 0.023918 -0.200567 0.012608 -0.103497 -0.905355
    31 1.666016 0.000000 -0.000002 -0.000008 0.157406 -1.208297
    32 1.236531 0.000004 0.000006 0.000002 0.000001 -1.221645
    33 3.449664 0.054215 -1.089087 0.081466 0.060790 0.090320
    34 1.711620 0.000002 0.000009 0.000003 -0.040000 -1.265062
    35 0.999023 0.000006 0.000002 0.005618 -0.013549 -0.593087
    36 0.075535 -0.738748 -0.759724 1.270735 0.364751 -0.554231
    37 2.508557 -0.000008 -0.000006 -0.000002 -0.000001 0.359159
    38 1.312473 0.175785 -0.105480 -0.009799 -0.054172 0.978226
    39 -5.536268 -25.959244 -10.396448 1.356040 -0.053063 3.411259
    40 -0.058812 3.042970 -0.224466 0.000000 0.000000 0.000000
    41 -0.060159 4.910148 0.999546 0.000010 0.000000 0.000005
    42 -0.029969 1.499989 1.560558 0.000012 0.000000 0.000005
    43 -0.095737 3.016737 -4.012920 0.000821 -0.001414 0.089929
    44 0.005473 -0.817976 -0.054882 0.323456 0.014429 -0.125785
    45 0.007914 -1.099748 -0.017185 0.220980 0.001846 -0.001947
    46 0.005704 -0.820541 -0.033703 0.277616 0.002410 -0.002416
  time 13
    0 0.000000 -5.629084 -8.898709 -1.570797 -1.102257 -1.570891
    1 2.033348 1.000767 1.937660 2.876396 -0.740743 1.781733
    2 6.028145 0.000003 0.000002 -2.443403 -0.762784 0.150592
    3 11.692553 0.000081 -0.000005 0.133302 0.045757 -0.263752
    4 11.481672 -0.000089 -0.000024 0.686229 0.139460 0.445439
    5 3.281560 0.002120 -1.379481 -0.018831 -0.118115 -0.263531
    6 1.324284 -0.000008 0.000004 0.000000 -0.047642 -0.322844
    7 0.819210 -0.000004 0.000003 0.000001 -0.000003 -0.509656
    8 3.711854 0.109256 -0.568167 -0.105543 -0.115040 -0.566456
    9 1.609408 0.000006 -0.000007 -0.000002 -0.002750 -0.235255
    10 0.993191 -0.000006 0.000002 0.002482 0.004391 -0.588671
    11 3.786031 0.203223 0.243937 -0.116721 -0.062548 -0.396727
    12 1.684424 -0.000010 0.000009 0.000002 -0.002839 -0.246561
    13 1.252151 -0.000006 0.000003 0.001318 -0.002650 -0.407740
    14 3.594223 0.299550 1.113710 -0.095632 -0.070160 -0.387969
    15 1.719435 0.000000 -0.000005 -0.000004 0.000016 -0.207642
    16 1.005925 -0.000006 0.000004 0.000005 0.000018 -0.089584
    17 0.298214 -0.634094 0.430606 -1.340802 -0.564428 -0.678726
    18 2.637466 0.000000 -0.000008 -0.000002 -0.029709 0.280993
    19 1.308566 0.000000 -0.000002 0.005802 0.023333 0.187953
    20 2.033356 1.000772 -1.937610 -0.128225 0.173059 4.244766
    21 6.028141 0.000000 -0.000002 -0.977946 0.774631 -2.906460
    22 11.692556 0.000000 -0.000002 0.004948 -0.026474 -0.852462
    23 11.481707 -0.000001 -0.000003 -0.609086 -0.278098 -0.027517
    24 2.910432 -0.023162 1.400147 -0.132857 -0.094214 -0.565971
    25 1.285215 -0.000006 0.000000 0.000002 0.101427 -0.561485
    26 0.838746 -0.000002 -0.000001 -0.066634 0.050986 -1.115460
    27 3.368063 0.007379 0.618550 0.037062 -0.099516 -0.881448
    28 1.609375 0.000000 0.000000 -0.000005 0.098284 -0.866844
    29 1.016602 0.000000 0.000000 0.014872 -0.013942 -1.322835
    30 3.551622 0.023918 -0.200567 0.012608 -0.103485 -0.905355
    31 1.666016 0.000000 -0.000002 -0.000008 0.157406 -1.208297
    32 1.236531 0.000004 0.000006 0.000002 -0.000011 -1.221645
    33 3.449664 0.054215 -1.089087 0.081466 0.060790 0.090320
    34 1.711620 0.000002 0.000009 0.000003 -0.040000 -1.265062
    35 0.999023 0.000006 0.000002 0.005618 -0.013549 -0.593087
    36 0.075535 -0.738748 -0.755818 1.270735 0.364751 -0.554219
    37 2.508557 -0.000008 -0.000006 -0.000002 -0.000001 0.359159
    38 1.312473 0.175785 -0.105480 -0.009799 -0.054172 0.978226
    39 -5.333137 -25.896742 -9.470639 1.434827 -0.047415 3.421519
    40 -0.058812 3.042970 -0.224466 0.000000 0.000000 0.000000
    41 -0.060159 4.910148 0.999546 0.000010 0.000000 0.000005
    42 -0.029969 1.499989 1.560558 0.000012 0.000000 0.000005
    43 -0.095737 3.016737 -4.012920 0.001061 -0.001930 0.120372
    44 0.005473 -0.817976 -0.054882 0.260510 0.016551 -0.138381
    45 0.007914 -1.099748 -0.017185 0.196818 0.001618 -0.001767
    46 0.005704 -0.820541 -0.033703 0.267029 0.002278 -0.002344
  time 14
    0 0.000000 -5.418140 -8.859645 -1.570797 -1.123011 -1.570891
    1 2.033348 1.000767 1.937660 2.876396 -0.740710 1.781733
    2 6.028145 0.000003 0.000002 -2.408156 -0.732353 0.097143
    3 11.692553 0.000081 -0.000005 0.124121 0.072063 -0.421183
    4 11.481672 -0.000089 -0.000024 0.678594 0.096204 0.503302
    5 3.281560 0.006026 -1.383388 -0.022964 -0.110841 -0.224218
    6 1.324284 -0.000008 0.000004 0.000000 -0.042464 -0.286435
    7 0.815304 -0.000004 0.000003 0.000001 -0.000003 -0.512029
    8 3.711854 0.109256 -0.568167 -0.112842 -0.107046 -0.499482
    9 1.609408 0.000006 -0.000007 -0.000002 -0.003110 -0.207848
    10 0.993191 -0.000006 0.000002 0.002578 0.004619 -0.602921
    11 3.786031 0.203223 0.243937 -0.117680 -0.060176 -0.378208
    12 1.684424 -0.000010 0.000009 0.000002 -0.004086 -0.193789
    13 1.252151 -0.000006 0.000003 0.001366 -0.002745 -0.403227
    14 3.590316 0.299550 1.113710 -0.097394 -0.066876 -0.360200
    15 1.719435 0.000000 -0.000005 -0.000004 0.000016 -0.174816
    16 1.005925 -0.000006 0.000004 0.000005 0.000018 -0.120642
    17 0.298214 -0.634094 0.434512 -1.331951 -0.545232 -0.708281
    18 2.633559 0.000000 -0.000008 -0.000002 -0.036065 0.296945
    19 1.308566 0.000000 -0.000002 0.004676 0.017820 0.214244
    20 2.033356 1.000772 -1.937610 -0.128225 0.173059 4.244766
    21 6.028141 0.000000 -0.000002 -0.974686 0.759651 -2.913142
    22 11.692556 0.000000 -0.000002 0.004025 -0.025731 -0.833265
    23 11.481707 -0.000001 -0.000003 -0.591625 -0.247840 -0.065558
    24 2.910432 -0.023162 1.404053 -0.132857 -0.094214 -0.565971
    25 1.285215 -0.000006 0.000000 0.000002 0.101427 -0.561485
    26 0.838746 -0.000002 -0.000001 -0.066634 0.050986 -1.115421
    27 3.368063 0.007379 0.622456 0.037062 -0.099516 -0.881448
    28 1.609375 0.000000 0.000000 -0.000005 0.098284 -0.866844
    29 1.016602 0.000000 0.000000 0.014872 -0.013942 -1.322835
    30 3.555528 0.023918 -0.200567 0.012608 -0.103497 -0.905355
    31 1.666016 0.000000 -0.000002 -0.000008 0.157406 -1.208297
    32 1.236531 0.000004 0.000006 0.000002 -0.000011 -1.221645
    33 3.449664 0.054215 -1.089087 0.081466 0.060790 0.090320
    34 1.711620 0.000002 0.000009 0.000003 -0.040012 -1.265062
    35 0.999023 0.000006 0.000002 0.005618 -0.013549 -0.593087
    36 0.075535 -0.738748 -0.755818 1.270735 0.364751 -0.554219
    37 2.508557 -0.000008 -0.000006 -0.000002 -0.000001 0.359147
    38 1.312473 0.175785 -0.105480 -0.009799 -0.054172 0.978226
    39 -5.180789 -25.802989 -8.724522 1.501660 -0.035545 3.431390
    40 -0.058812 3.042970 -0.224466 0.000000 0.000000 0.000000
    41 -0.060159 4.910148 0.999546 0.000010 0.000000 0.000005
    42 -0.029969 1.499989 1.560558 0.000012 0.000000 0.000005
    43 -0.095737 3.016737 -4.012920 0.001336 -0.002541 0.156465
    44 0.005473 -0.817976 -0.054882 0.190115 0.017498 -0.151085
    45 0.007914 -1.099748 -0.017185 0.164791 0.001306 -0.001479
    46 0.005704 -0.820541 -0.033703 0.240746 0.002050 -0.002116
  time 15
    0 0.000000 -5.207196 -8.820582 -1.570797 -1.144044 -1.570891
    1 2.033348 1.000767 1.937660 2.876396 -0.740743 1.781733
    2 6.028145 0.000003 0.000002 -2.381812 -0.710413 0.056729
    3 11.692553 0.000081 -0.000005 0.112748 0.093228 -0.559390
    4 11.481672 -0.000089 -0.000024 0.670960 0.054098 0.552899
    5 3.281560 0.002120 -1.383388 -0.026344 -0.106418 -0.195745
    6 1.324284 -0.000008 0.000004 0.000000 -0.038486 -0.258992
    7 0.819210 -0.000004 0.000003 0.000001 -0.000003 -0.521433
    8 3.711854 0.109256 -0.568167 -0.118930 -0.100778 -0.441250
    9 1.609408 0.000006 -0.000007 -0.000002 -0.003338 -0.190682
    10 0.993191 -0.000006 0.000002 0.002673 0.004919 -0.620464
    11 3.786031 0.203223 0.243937 -0.118184 -0.060200 -0.372257
    12 1.684424 -0.000010 0.000009 0.000002 -0.005080 -0.150144
    13 1.252151 -0.000006 0.000003 0.001318 -0.002638 -0.408429
    14 3.594223 0.299550 1.109803 -0.098654 -0.065845 -0.343630
    15 1.719435 0.000000 -0.000005 -0.000004 0.000016 -0.152972
    16 1.005925 -0.000006 0.000004 0.000005 0.000018 -0.159041
    17 0.298214 -0.634094 0.426700 -1.326201 -0.524289 -0.737312
    18 2.633559 0.000000 -0.000008 -0.000002 -0.044338 0.316541
    19 1.308566 0.000000 -0.000002 0.003094 0.011085 0.246648
    20 2.033356 1.000772 -1.937610 -0.128225 0.173059 4.244806
    21 6.028141 0.000000 -0.000002 -0.971099 0.743424 -2.915986
    22 11.692556 0.000000 -0.000002 0.003030 -0.024748 -0.805905
    23 11.481707 -0.000001 -0.000003 -0.571731 -0.221108 -0.103746
    24 2.910432 -0.023162 1.400147 -0.132857 -0.094214 -0.565971
    25 1.285215 -0.000006 0.000000 0.000002 0.101439 -0.561485
    26 0.838746 -0.000002 -0.000001 -0.066634 0.050986 -1.115421
    27 3.368063 0.007379 0.622456 0.037062 -0.099516 -0.881448
    28 1.609375 0.000000 0.000000 -0.000005 0.098284 -0.866844
    29 1.016602 0.000000 0.000000 0.014872 -0.013942 -1.322835
    30 3.551622 0.023918 -0.200567 0.012608 -0.103497 -0.905355
    31 1.666016 0.000000 -0.000002 -0.000008 0.157406 -1.208297
    32 1.240438 0.000004 0.000006 0.000002 0.000001 -1.221645
    33 3.449664 0.054215 -1.089087 0.081466 0.060790 0.090320
    34 1.711620 0.000002 0.000009 0.000003 -0.040000 -1.265062
    35 0.999023 0.000006 0.000002 0.005618 -0.013549 -0.593087
    36 0.075535 -0.738748 -0.755818 1.270735 0.364751 -0.554231
    37 2.508557 -0.000008 -0.000006 -0.000002 -0.000001 0.359159
    38 1.312473 0.175785 -0.105480 -0.009799 -0.054172 0.978226
    39 -5.083129 -25.701424 -8.126848 1.558105 -0.018494 3.440328
    40 -0.058812 3.042970 -0.224466 0.000000 0.000000 0.000000
    41 -0.060159 4.910148 0.999546 0.000010 0.000000 0.000005
    42 -0.029969 1.499989 1.560558 0.000012 0.000000 0.000005
    43 -0.095737 3.016737 -4.012920 0.001612 -0.003212 0.195452
    44 0.005473 -0.817976 -0.054882 0.115001 0.017438 -0.163309
    45 0.007914 -1.099748 -0.017185 0.126624 0.001007 -0.001156
    46 0.005704 -0.820541 -0.033703 0.198001 0.001631 -0.001793
  time 16
    0 0.000000 -4.992346 -8.785424 -1.570797 -1.165132 -1.570891
    1 2.033348 1.000767 1.937660 2.876396 -0.740743 1.781733
    2 6.028145 0.000003 0.000002 -2.360381 -0.694203 0.024110
    3 11.692553 0.000081 -0.000005 0.099817 0.111109 -0.685086
    4 11.481672 -0.000089 -0.000024 0.662100 0.012375 0.595753
    5 3.281560 0.002120 -1.383388 -0.028411 -0.103099 -0.177010
    6 1.324284 -0.000008 0.000004 0.000000 -0.035741 -0.240292
    7 0.819210 -0.000004 0.000003 0.000001 -0.000003 -0.536909
    8 3.711854 0.109256 -0.568167 -0.123664 -0.094666 -0.392337
    9 1.605501 0.000006 -0.000007 -0.000002 -0.003493 -0.183115
    10 0.989285 -0.000006 0.000002 0.002781 0.005242 -0.641017
    11 3.786031 0.203223 0.247844 -0.117884 -0.060667 -0.377062
    12 1.684424 -0.000010 0.000009 0.000002 -0.005847 -0.115907
    13 1.252151 -0.000006 0.000003 0.001186 -0.002326 -0.422159
    14 3.594223 0.299550 1.113710 -0.099098 -0.065174 -0.336847
    15 1.719435 0.000000 -0.000005 -0.000004 0.000016 -0.141547
    16 1.005925 -0.000006 0.000004 0.000005 0.000018 -0.203914
    17 0.298214 -0.634094 0.430606 -1.324085 -0.500595 -0.764100
    18 2.633559 0.000000 -0.000008 -0.000002 -0.054555 0.339348
    19 1.308566 0.000000 -0.000002 0.000961 0.003259 0.284563
    20 2.033356 1.000772 -1.937610 -0.128225 0.173059 4.244766
    21 6.028141 0.000000 -0.000002 -0.968409 0.727065 -2.916270
    22 11.692556 0.000000 -0.000002 0.002095 -0.023646 -0.774120
    23 11.481707 -0.000001 -0.000003 -0.550166 -0.196420 -0.140262
    24 2.910432 -0.023162 1.400147 -0.132857 -0.094214 -0.565971
    25 1.285215 -0.000006 0.000000 0.000002 0.101439 -0.561485
    26 0.838746 -0.000002 -0.000001 -0.066634 0.050986 -1.115421
    27 3.368063 0.007379 0.622456 0.037062 -0.099516 -0.881448
    28 1.609375 0.000000 0.000000 -0.000005 0.098284 -0.866844
    29 1.016602 0.000000 0.000000 0.014872 -0.013942 -1.322835
    30 3.551622 0.023918 -0.200567 0.012608 -0.103497 -0.905355
    31 1.666016 0.000000 -0.000002 -0.000008 0.157406 -1.208297
    32 1.240438 0.000004 0.000006 0.000002 0.000001 -1.221645
    33 3.449664 0.054215 -1.089087 0.081466 0.060790 0.090320
    34 1.711620 0.000002 0.000009 0.000003 -0.040000 -1.265062
    35 0.999023 0.000006 0.000002 0.005618 -0.013549 -0.593087
    36 0.075535 -0.738748 -0.755818 1.270735 0.364751 -0.554219
    37 2.508557 -0.000008 -0.000006 -0.000002 -0.000001 0.359159
    38 1.312473 0.175785 -0.105480 -0.009799 -0.054172 0.978226
    39 -5.028440 -25.603765 -7.642458 1.606645 0.001434 3.448567
    40 -0.058812 3.042970 -0.224466 0.000000 0.000000 0.000000
    41 -0.060159 4.910148 0.999546 0.000010 0.000000 0.000005
    42 -0.029969 1.499989 1.560558 0.000012 0.000000 0.000005
    43 -0.095737 3.016737 -4.012920 0.001864 -0.003883 0.234674
    44 0.005473 -0.817976 -0.054882 0.038075 0.016263 -0.174575
    45 0.007914 -1.099748 -0.017185 0.083988 0.000623 -0.000772
    46 0.005704 -0.820541 -0.033703 0.142033 0.001092 -0.001301
  time 17
    0 0.000000 -4.781402 -8.754173 -1.570797 -1.186164 -1.570891
    1 2.033348 1.000767 1.937660 2.876396 -0.740743 1.781733
    2 6.028145 0.000003 0.000002 -2.342604 -0.683082 -0.002396
    3 11.692553 0.000081 -0.000005 0.086142 0.125730 -0.799182
    4 11.481672 -0.000089 -0.000024 0.652581 -0.027432 0.632462
    5 3.285467 0.002120 -1.379481 -0.029374 -0.101660 -0.168104
    6 1.324284 -0.000008 0.000004 0.000000 -0.034255 -0.230173
    7 0.819210 -0.000004 0.000003 0.000001 -0.000003 -0.557442
    8 3.711854 0.105349 -0.568167 -0.127080 -0.089920 -0.354540
    9 1.609408 0.000006 -0.000007 -0.000002 -0.003613 -0.184395
    10 0.993191 -0.000006 0.000002 0.002901 0.005650 -0.664233
    11 3.786031 0.203223 0.247844 -0.116925 -0.062273 -0.392106
    12 1.684424 -0.000010 0.000009 0.000002 -0.006375 -0.091391
    13 1.252151 -0.000006 0.000003 0.000995 -0.001871 -0.443309
    14 3.594223 0.299550 1.113710 -0.098840 -0.065630 -0.339779
    15 1.719435 0.000000 -0.000005 -0.000004 0.000016 -0.140099
    16 1.005925 -0.000006 0.000004 0.000005 0.000018 -0.254525
    17 0.298214 -0.630188 0.426700 -1.325313 -0.475927 -0.788695
    18 2.633559 0.000000 -0.000008 -0.000002 -0.066690 0.364913
    19 1.308566 0.000000 -0.000002 -0.001772 -0.005442 0.327416
    20 2.033356 1.000772 -1.937610 -0.128225 0.173059 4.244806
    21 6.028141 0.000000 -0.000002 -0.967675 0.709623 -2.915701
    22 11.692556 0.000000 -0.000002 0.001232 -0.022327 -0.736070
    23 11.481707 -0.000001 -0.000003 -0.527141 -0.173608 -0.175752
    24 2.914339 -0.023162 1.400147 -0.132857 -0.094214 -0.565971
    25 1.285215 -0.000006 0.000000 0.000002 0.101439 -0.561485
    26 0.838746 -0.000002 -0.000001 -0.066634 0.050986 -1.115421
    27 3.368063 0.007379 0.622456 0.037062 -0.099516 -0.881448
    28 1.609375 0.000000 0.000000 -0.000005 0.098284 -0.866844
    29 1.016602 0.000000 0.000000 0.014872 -0.013942 -1.322835
    30 3.555528 0.023918 -0.200567 0.012608 -0.103497 -0.905355
    31 1.666016 0.000000 -0.000002 -0.000008 0.157406 -1.208297
    32 1.236531 0.000004 0.000006 0.000002 -0.000011 -1.221645
    33 3.449664 0.054215 -1.085181 0.081466 0.060790 0.090320
    34 1.711620 0.000002 0.000009 0.000003 -0.040000 -1.265062
    35 0.999023 0.000006 0.000002 0.005618 -0.013549 -0.593087
    36 0.075535 -0.738748 -0.755818 1.270735 0.364751 -0.554231
    37 2.508557 -0.000008 -0.000006 -0.000002 -0.000001 0.359159
    38 1.312473 0.175785 -0.105480 -0.009799 -0.054172 0.978226
    39 -5.012815 -25.510012 -7.251821 1.647868 0.023737 3.455407
    40 -0.058812 3.042970 -0.224466 0.000000 0.000000 0.000000
    41 -0.060159 4.910148 0.999546 0.000010 0.000000 0.000005
    42 -0.029969 1.499989 1.560558 0.000012 0.000000 0.000005
    43 -0.095737 3.016737 -4.012920 0.002067 -0.004506 0.271187
    44 0.005473 -0.817976 -0.054882 -0.037800 0.014190 -0.184330
    45 0.007914 -1.099748 -0.017185 0.038607 0.000288 -0.000365
    46 0.005704 -0.820541 -0.033703 0.076214 0.000600 -0.000726
  time 18
    0 0.000000 -4.566552 -8.726829 -1.570797 -1.206918 -1.570891
    1 2.033348 1.000767 1.937660 2.876396 -0.740743 1.781733
    2 6.028145 0.000003 0.000002 -2.327498 -0.677184 -0.023538
    3 11.692553 0.000081 -0.000005 0.072648 0.137224 -0.900103
    4 11.481672 -0.000089 -0.000024 0.643062 -0.064770 0.660360
    5 3.281560 0.002120 -1.383388 -0.029409 -0.101469 -0.167879
    6 1.324284 -0.000008 0.000004 0.000000 -0.033979 -0.228476
    7 0.819210 -0.000004 0.000003 0.000001 -0.000003 -0.581982
    8 3.711854 0.109256 -0.568167 -0.129429 -0.086277 -0.328317
    9 1.609408 0.000006 -0.000007 -0.000002 -0.003709 -0.193957
    10 0.993191 -0.000006 0.000002 0.003033 0.006057 -0.689767
    11 3.786031 0.203223 0.243937 -0.115571 -0.064322 -0.415504
    12 1.684424 -0.000010 0.000009 0.000002 -0.006686 -0.076808
    13 1.252151 -0.000006 0.000003 0.000683 -0.001283 -0.470732
    14 3.594223 0.299550 1.109803 -0.098167 -0.066564 -0.350943
    15 1.719435 0.000000 -0.000005 -0.000004 0.000016 -0.148064
    16 1.005925 -0.000006 0.000004 0.000005 0.000018 -0.310327
    17 0.298214 -0.634094 0.426700 -1.330174 -0.450786 -0.809354
    18 2.633559 0.000000 -0.000008 -0.000002 -0.080642 0.392846
    19 1.308566 0.000000 -0.000002 -0.005223 -0.014922 0.374577
    20 2.033356 1.000772 -1.937610 -0.128225 0.173059 4.244766
    21 6.028141 0.000000 -0.000002 -0.968490 0.692213 -2.913995
    22 11.692556 0.000000 -0.000002 0.000417 -0.020925 -0.694686
    23 11.481707 -0.000001 -0.000003 -0.502933 -0.152363 -0.208514
    24 2.910432 -0.023162 1.404053 -0.132857 -0.094214 -0.565971
    25 1.285215 -0.000006 0.000000 0.000002 0.101439 -0.561485
    26 0.838746 -0.000002 -0.000001 -0.066634 0.050986 -1.115421
    27 3.364156 0.011286 0.622456 0.037062 -0.099516 -0.881448
    28 1.609375 0.000000 0.000000 -0.000005 0.098284 -0.866844
    29 1.016602 0.000000 0.000000 0.014872 -0.013942 -1.322835
    30 3.555528 0.027824 -0.200567 0.012608 -0.103497 -0.905355
    31 1.666016 0.000000 -0.000002 -0.000008 0.157406 -1.208297
    32 1.236531 0.000004 0.000006 0.000002 0.000001 -1.221645
    33 3.449664 0.058121 -1.085181 0.081466 0.060790 0.090320
    34 1.711620 0.000002 0.000009 0.000003 -0.040000 -1.265062
    35 0.999023 0.000006 0.000002 0.005618 -0.013549 -0.593087
    36 0.075535 -0.734841 -0.759724 1.270735 0.364751 -0.554231
    37 2.508557 -0.000008 -0.000006 -0.000002 -0.000001 0.359159
    38 1.312473 0.175785 -0.105480 -0.009799 -0.054184 0.978226
    39 -5.040159 -25.427978 -6.958844 1.682166 0.047658 3.460382
    40 -0.058812 3.042970 -0.224466 0.000000 0.000000 0.000000
    41 -0.060159 4.910148 0.999546 0.000010 0.000000 0.000005
    42 -0.029969 1.499989 1.560558 0.000012 0.000000 0.000005
    43 -0.095737 3.016737 -4.012920 0.002223 -0.005057 0.302424
    44 0.001567 -0.817976 -0.054882 -0.109783 0.011481 -0.192216
    45 0.007914 -1.099748 -0.017185 -0.007769 -0.000048 0.000067
    46 0.005704 -0.820541 -0.033703 0.003828 0.000061 -0.000031
  time 19
    0 0.000000 -4.359514 -8.703391 -1.570797 -1.227214 -1.570843
    1 2.033348 1.000767 1.937660 2.876396 -0.740743 1.781733
    2 6.028145 0.000003 0.000002 -2.314756 -0.675364 -0.040191
    3 11.692553 0.000081 -0.000005 0.059992 0.145948 -0.987933
    4 11.481672 -0.000089 -0.000024 0.633919 -0.098149 0.679612
    5 3.285467 0.006026 -1.379481 -0.028428 -0.103051 -0.176830
    6 1.324284 -0.000008 0.000004 0.000000 -0.034950 -0.234912
    7 0.815304 -0.000004 0.000003 0.000001 -0.000003 -0.609606
    8 3.711854 0.109256 -0.568167 -0.130471 -0.084587 -0.315921
    9 1.609408 0.000006 -0.000007 -0.000002 -0.003781 -0.211048
    10 0.993191 -0.000006 0.000002 0.003153 0.006537 -0.717294
    11 3.789937 0.203223 0.243937 -0.113534 -0.067246 -0.446997
    12 1.684424 -0.000010 0.000009 0.000002 -0.006758 -0.072507
    13 1.252151 -0.000006 0.000003 0.000336 -0.000588 -0.503318
    14 3.594223 0.299550 1.109803 -0.096835 -0.068482 -0.370551
    15 1.719435 0.000000 -0.000005 -0.000004 0.000016 -0.164920
    16 1.005925 -0.000006 0.000004 0.000005 0.000018 -0.370457
    17 0.298214 -0.630188 0.430606 -1.337669 -0.426562 -0.826747
    18 2.637466 0.000000 -0.000008 -0.000002 -0.096229 0.422734
    19 1.308566 0.000000 -0.000002 -0.009466 -0.024917 0.425501
    20 2.033356 1.000772 -1.937610 -0.128225 0.173059 4.244766
    21 6.028141 0.000000 -0.000002 -0.971262 0.674211 -2.911649
    22 11.692556 0.000000 -0.000002 -0.000230 -0.019367 -0.648360
    23 11.481707 -0.000001 -0.000003 -0.478308 -0.132741 -0.239721
    24 2.914339 -0.023162 1.400147 -0.132857 -0.094214 -0.565971
    25 1.285215 -0.000006 0.000000 0.000002 0.101439 -0.561485
    26 0.838746 -0.000002 -0.000001 -0.066634 0.050986 -1.115421
    27 3.368063 0.007379 0.618550 0.037062 -0.099516 -0.881448
    28 1.609375 0.000000 0.000000 -0.000005 0.098284 -0.866844
    29 1.016602 0.000000 0.000000 0.014872 -0.013942 -1.322835
    30 3.555528 0.023918 -0.200567 0.012608 -0.103497 -0.905355
    31 1.666016 0.000000 -0.000002 -0.000008 0.157406 -1.208297
    32 1.236531 0.000004 0.000006 0.000002 -0.000011 -1.221645
    33 3.449664 0.054215 -1.089087 0.081466 0.060790 0.090320
    34 1.711620 0.000002 0.000009 0.000003 -0.040000 -1.265062
    35 0.999023 0.000006 0.000002 0.005618 -0.013549 -0.593087
    36 0.075535 -0.738748 -0.755818 1.270735 0.364751 -0.554231
    37 2.508557 -0.000008 -0.000006 -0.000002 -0.000001 0.359159
    38 1.312473 0.175785 -0.105480 -0.009799 -0.054184 0.978226
    39 -5.098755 -25.357663 -6.751806 1.709866 0.072731 3.463180
    40 -0.058812 3.042970 -0.224466 0.000000 0.000000 0.000000
    41 -0.060159 4.910148 0.999546 0.000010 0.000000 0.000005
    42 -0.029969 1.499989 1.560558 0.000012 0.000000 0.000005
    43 -0.095737 3.016737 -4.012920 0.002343 -0.005501 0.325443
    44 0.005473 -0.817976 -0.054882 -0.175257 0.008593 -0.197849
    45 0.007914 -1.099748 -0.017185 -0.053535 -0.000372 0.000510
    46 0.005704 -0.820541 -0.033703 -0.071650 -0.000514 0.000700
  time 20
    0 0.000000 -4.156383 -8.683859 -1.570797 -1.246911 -1.570843
    1 2.033348 1.000767 1.937660 2.876396 -0.740743 1.781662
    2 6.028145 0.000003 0.000002 -2.303550 -0.678734 -0.052727
    3 11.692553 0.000081 -0.000005 0.049254 0.151953 -1.058031
    4 11.481672 -0.000089 -0.000024 0.625908 -0.127355 0.686029
    5 3.281560 0.002120 -1.383388 -0.026519 -0.106155 -0.194260
    6 1.324284 -0.000008 0.000004 0.000000 -0.037083 -0.249418
    7 0.819210 -0.000004 0.000003 0.000001 -0.000003 -0.639233
    8 3.711854 0.109256 -0.568167 -0.130292 -0.084911 -0.318267
    9 1.609408 0.000006 -0.000007 -0.000002 -0.003805 -0.234954
    10 0.993191 -0.000006 0.000002 0.003273 0.007028 -0.746509
    11 3.786031 0.203223 0.243937 -0.110909 -0.070686 -0.485328
    12 1.684424 -0.000010 0.000009 0.000002 -0.006590 -0.078732
    13 1.252151 -0.000006 0.000003 -0.000084 0.000167 -0.539919
    14 3.594223 0.299550 1.109803 -0.094945 -0.071095 -0.397755
    15 1.719435 0.000000 -0.000005 -0.000004 0.000016 -0.190224
    16 1.005925 -0.000006 0.000004 0.000005 0.000018 -0.434209
    17 0.298214 -0.634094 0.426700 -1.347263 -0.404072 -0.839979
    18 2.633559 0.000000 -0.000008 -0.000002 -0.113126 0.454289
    19 1.308566 0.000000 -0.000002 -0.014499 -0.035284 0.479528
    20 2.033356 1.000772 -1.937610 -0.128225 0.173059 4.244766
    21 6.028141 0.000000 -0.000002 -0.976316 0.655258 -2.909943
    22 11.692556 0.000000 -0.000002 -0.000805 -0.017653 -0.597032
    23 11.481707 -0.000001 -0.000003 -0.453613 -0.115051 -0.268934
    24 2.910432 -0.023162 1.400147 -0.132857 -0.094214 -0.565971
    25 1.285215 -0.000006 0.000000 0.000002 0.101439 -0.561485
    26 0.838746 -0.000002 -0.000001 -0.066634 0.050986 -1.115421
    27 3.368063 0.007379 0.618550 0.037062 -0.099516 -0.881448
    28 1.609375 0.000000 0.000000 -0.000005 0.098284 -0.866844
    29 1.016602 0.000000 0.000000 0.014872 -0.013942 -1.322835
    30 3.555528 0.023918 -0.204473 0.012608 -0.103497 -0.905355
    31 1.666016 0.000000 -0.000002 -0.000008 0.157406 -1.208297
    32 1.236531 0.000004 0.000006 0.000002 0.000001 -1.221645
    33 3.449664 0.054215 -1.089087 0.081466 0.060790 0.090320
    34 1.711620 0.000002 0.000009 0.000003 -0.040000 -1.265062
    35 0.999023 0.000006 0.000002 0.005618 -0.013549 -0.593087
    36 0.075535 -0.738748 -0.755818 1.270735 0.364751 -0.554219
    37 2.508557 -0.000008 -0.000006 -0.000002 -0.000001 0.359159
    38 1.312473 0.175785 -0.105480 -0.009799 -0.054172 0.978226
    39 -5.184695 -25.306881 -6.615083 1.731099 0.098235 3.463180
    40 -0.058812 3.042970 -0.224466 0.000000 0.000000 0.000000
    41 -0.060159 4.910148 0.999546 0.000010 0.000000 0.000005
    42 -0.029969 1.499989 1.560558 0.000012 0.000000 0.000005
    43 -0.095737 3.016737 -4.012920 0.002391 -0.005717 0.337676
    44 0.005473 -0.817976 -0.054882 -0.231156 0.005848 -0.200893
    45 0.007914 -1.099748 -0.017185 -0.096927 -0.000635 0.000978
    46 0.005704 -0.820541 -0.033703 -0.146995 -0.000934 0.001491
  time 21
    0 0.000000 -3.957158 -8.668233 -1.570797 -1.265831 -1.570891
    1 2.033348 1.000767 1.937660 2.876396 -0.740743 1.781733
    2 6.028145 0.000003 0.000002 -2.293663 -0.685643 -0.061832
    3 11.692553 0.000081 -0.000005 0.041020 0.155740 -1.109900
    4 11.481672 -0.000089 -0.000024 0.619499 -0.151154 0.677382
    5 3.281560 0.002120 -1.379481 -0.023682 -0.110637 -0.219855
    6 1.324284 -0.000008 0.000004 0.000000 -0.040343 -0.271769
    7 0.819210 -0.000004 0.000003 0.000001 -0.000003 -0.669939
    8 3.711854 0.109256 -0.568167 -0.128698 -0.087403 -0.336754
    9 1.609408 0.000006 -0.000007 -0.000002 -0.003733 -0.264995
    10 0.993191 -0.000006 0.000002 0.003381 0.007543 -0.777024
    11 3.786031 0.203223 0.243937 -0.107661 -0.074509 -0.529352
    12 1.684424 -0.000010 0.000009 0.000002 -0.006159 -0.095728
    13 1.252151 -0.000006 0.000003 -0.000563 0.000970 -0.579466
    14 3.594223 0.299550 1.109803 -0.092467 -0.074294 -0.431884
    15 1.719435 0.000000 -0.000005 -0.000004 0.000016 -0.223372
    16 1.005925 -0.000006 0.000004 0.000005 0.000018 -0.500878
    17 0.298214 -0.634094 0.426700 -1.358117 -0.384260 -0.848577
    18 2.633559 0.000000 -0.000008 -0.000002 -0.130856 0.487203
    19 1.308566 0.000000 -0.000002 -0.020372 -0.045794 0.536144
    20 2.033356 1.000772 -1.937610 -0.128225 0.173059 4.244766
    21 6.028141 0.000000 -0.000002 -0.982267 0.636534 -2.907171
    22 11.692556 0.000000 -0.000002 -0.001176 -0.015940 -0.545302
    23 11.481707 -0.000001 -0.000003 -0.433162 -0.100887 -0.291577
    24 2.914339 -0.023162 1.400147 -0.132857 -0.094214 -0.565971
    25 1.285215 -0.000006 0.000000 0.000002 0.101439 -0.561485
    26 0.838746 -0.000002 -0.000001 -0.066634 0.050986 -1.115421
    27 3.368063 0.007379 0.618550 0.037062 -0.099516 -0.881448
    28 1.609375 0.000000 0.000000 -0.000005 0.098284 -0.866844
    29 1.016602 0.000000 0.000000 0.014872 -0.013942 -1.322835
    30 3.555528 0.023918 -0.200567 0.012608 -0.103497 -0.905355
    31 1.666016 0.000000 -0.000002 -0.000008 0.157406 -1.208297
    32 1.236531 0.000004 0.000006 0.000002 -0.000011 -1.221645
    33 3.449664 0.054215 -1.089087 0.081466 0.060790 0.090320
    34 1.711620 0.000002 0.000009 0.000003 -0.040000 -1.265062
    35 0.999023 0.000006 0.000002 0.005618 -0.013549 -0.593087
    36 0.075535 -0.738748 -0.755818 1.270735 0.364751 -0.554231
    37 2.508557 -0.000008 -0.000006 -0.000002 -0.000001 0.359159
    38 1.312473 0.175785 -0.105480 -0.009799 -0.054172 0.978226
    39 -5.305792 -25.263911 -6.564300 1.743577 0.120789 3.458050
    40 -0.058812 3.042970 -0.224466 0.000000 0.000000 0.000000
    41 -0.060159 4.910148 0.999546 0.000010 0.000000 0.000005
    42 -0.029969 1.499989 1.560558 0.000012 0.000000 0.000005
    43 -0.095737 3.016737 -4.012920 0.002391 -0.005693 0.336182
    44 0.005473 -0.817976 -0.054882 -0.274731 0.003751 -0.201096
    45 0.007914 -1.099748 -0.017185 -0.136274 -0.000899 0.001373
    46 0.005704 -0.820541 -0.033703 -0.218865 -0.001365 0.002282
  time 22
    0 0.000000 -3.777465 -8.656514 -1.570797 -1.283777 -1.570891
    1 2.033348 1.000767 1.937660 2.876396 -0.740743 1.781733
    2 6.028145 0.000003 0.000002 -2.284698 -0.696326 -0.068007
    3 11.692553 0.000081 -0.000005 0.036107 0.157466 -1.139729
    4 11.481672 -0.000089 -0.000024 0.615540 -0.168738 0.650463
    5 3.285467 0.002120 -1.383388 -0.020004 -0.116665 -0.253523
    6 1.324284 -0.000008 0.000004 0.000000 -0.044658 -0.301805
    7 0.819210 -0.000004 0.000003 0.000001 -0.000003 -0.700646
    8 3.711854 0.105349 -0.568167 -0.125474 -0.092425 -0.373027
    9 1.609408 0.000006 -0.000007 -0.000002 -0.003541 -0.300646
    10 0.993191 -0.000006 0.000002 0.003464 0.008107 -0.808557
    11 3.786031 0.203223 0.243937 -0.103790 -0.078812 -0.578365
    12 1.684424 -0.000010 0.000009 0.000002 -0.005464 -0.123775
    13 1.252151 -0.000006 0.000003 -0.001151 0.001785 -0.620695
    14 3.594223 0.299550 1.109803 -0.089373 -0.078249 -0.472583
    15 1.719435 0.000000 -0.000005 -0.000004 0.000016 -0.263882
    16 1.005925 -0.000006 0.000004 0.000005 0.000018 -0.569758
    17 0.298214 -0.634094 0.426700 -1.369116 -0.368330 -0.852315
    18 2.633559 0.000000 -0.000008 -0.000002 -0.148754 0.521270
    19 1.308566 0.000000 -0.000002 -0.027035 -0.056317 0.594658
    20 2.033356 1.000772 -1.937610 -0.128225 0.173059 4.244766
    21 6.028141 0.000000 -0.000002 -0.989440 0.618335 -2.904185
    22 11.692556 0.000000 -0.000002 -0.001404 -0.014334 -0.491791
    23 11.481707 -0.000001 -0.000003 -0.419458 -0.092014 -0.308002
    24 2.910432 -0.023162 1.396241 -0.132857 -0.094214 -0.565971
    25 1.285215 -0.000006 0.000000 0.000002 0.101439 -0.561485
    26 0.838746 -0.000002 -0.000001 -0.066634 0.050986 -1.115421
    27 3.368063 0.007379 0.622456 0.037062 -0.099516 -0.881448
    28 1.609375 0.000000 0.000000 -0.000005 0.098284 -0.866844
    29 1.016602 0.000000 0.000000 0.014872 -0.013942 -1.322835
    30 3.551622 0.023918 -0.204473 0.012608 -0.103497 -0.905355
    31 1.666016 0.000000 -0.000002 -0.000008 0.157406 -1.208297
    32 1.236531 0.000004 0.000006 0.000002 -0.000011 -1.221645
    33 3.449664 0.054215 -1.089087 0.081466 0.060790 0.090320
    34 1.711620 0.000002 0.000009 0.000003 -0.040000 -1.265062
    35 0.999023 0.000006 0.000002 0.005618 -0.013549 -0.593087
    36 0.075535 -0.734841 -0.759724 1.270735 0.364751 -0.554231
    37 2.508557 -0.000008 -0.000006 -0.000002 -0.000001 0.359159
    38 1.312473 0.175785 -0.105480 -0.009799 -0.054172 0.978226
    39 -5.450328 -25.244379 -6.603364 1.745536 0.137732 3.446002
    40 -0.058812 3.042970 -0.224466 0.000000 0.000000 0.000000
    41 -0.060159 4.910148 0.999546 0.000010 0.000000 0.000005
    42 -0.029969 1.499989 1.560558 0.000012 0.000000 0.000005
    43 -0.095737 3.016737 -4.012920 0.002259 -0.005189 0.309988
    44 0.005473 -0.817976 -0.054882 -0.303206 0.002565 -0.198280
    45 0.007914 -1.099748 -0.017185 -0.169866 -0.001091 0.001757
    46 0.005704 -0.820541 -0.033703 -0.283859 -0.001737 0.002977
  time 23
    0 0.000000 -3.605585 -8.644795 -1.570797 -1.300569 -1.570891
    1 2.033348 1.000767 1.937660 2.876396 -0.740743 1.781733
    2 6.028145 0.000003 0.000002 -2.272079 -0.708762 -0.076114
    3 11.692553 0.000081 -0.000005 0.034201 0.157490 -1.149837
    4 11.481672 -0.000089 -0.000024 0.614786 -0.181808 0.602334
    5 3.281560 0.002120 -1.379481 -0.015678 -0.123257 -0.293848
    6 1.324284 -0.000008 0.000004 0.000000 -0.049907 -0.339431
    7 0.819210 -0.000004 0.000003 0.000001 -0.000003 -0.730366
    8 3.711854 0.105349 -0.568167 -0.120536 -0.099172 -0.427331
    9 1.609408 0.000006 -0.000007 -0.000002 -0.003158 -0.341078
    10 0.993191 -0.000006 0.000002 0.003536 0.008658 -0.840718
    11 3.786031 0.203223 0.243937 -0.099739 -0.082755 -0.630077
    12 1.684424 -0.000010 0.000009 0.000002 -0.004469 -0.163154
    13 1.252151 -0.000006 0.000003 -0.001750 0.002588 -0.662690
    14 3.590316 0.299550 1.109803 -0.085964 -0.082108 -0.518158
    15 1.719435 0.000000 -0.000005 -0.000004 0.000016 -0.311270
    16 1.005925 -0.000006 0.000004 0.000005 0.000018 -0.640017
    17 0.298214 -0.634094 0.426700 -1.380051 -0.356569 -0.849374
    18 2.633559 0.000000 -0.000008 -0.000002 -0.166088 0.556345
    19 1.308566 0.000000 -0.000002 -0.034490 -0.066599 0.654587
    20 2.033356 1.000772 -1.937610 -0.128225 0.173059 4.244766
    21 6.028141 0.000000 -0.000002 -0.997103 0.600925 -2.900631
    22 11.692556 0.000000 -0.000002 -0.001428 -0.012500 -0.439199
    23 11.481707 -0.000001 -0.000003 -0.411737 -0.088264 -0.318209
    24 2.914339 -0.023162 1.400147 -0.132674 -0.094154 -0.565708
    25 1.285215 -0.000006 0.000000 0.000002 0.101439 -0.561485
    26 0.838746 -0.000002 -0.000001 -0.066634 0.050986 -1.115421
    27 3.368063 0.007379 0.618550 0.037218 -0.099408 -0.881172
    28 1.609375 0.000000 0.000000 -0.000005 0.098284 -0.866844
    29 1.016602 0.000000 0.000000 0.014872 -0.013942 -1.322835
    30 3.555528 0.027824 -0.200567 0.012764 -0.103389 -0.905079
    31 1.666016 0.000000 -0.000002 -0.000008 0.157406 -1.208297
    32 1.236531 0.000004 0.000006 0.000002 -0.000011 -1.221645
    33 3.449664 0.054215 -1.089087 0.081644 0.060719 0.090638
    34 1.711620 0.000002 0.000009 0.000003 -0.040000 -1.265062
    35 0.999023 0.000006 0.000002 0.005618 -0.013549 -0.593087
    36 0.075535 -0.738748 -0.759724 1.270938 0.364799 -0.553871
    37 2.508557 -0.000008 -0.000006 -0.000002 -0.000001 0.359159
    38 1.312473 0.175785 -0.105480 -0.009787 -0.054172 0.978226
    39 -5.622208 -25.232660 -6.720555 1.738481 0.149710 3.428125
    40 -0.058812 3.042970 -0.224466 0.000000 0.000000 0.000000
    41 -0.060159 4.910148 0.999546 0.000010 0.000000 0.000005
    42 -0.029969 1.499989 1.560558 0.000012 0.000000 0.000005
    43 -0.095737 3.016737 -4.012920 0.001983 -0.004267 0.256199
    44 0.005473 -0.817976 -0.054882 -0.311952 0.002637 -0.190190
    45 0.007914 -1.099748 -0.017185 -0.195951 -0.001210 0.002020
    46 0.005704 -0.820541 -0.033703 -0.338649 -0.001845 0.003684
  time 24
    0 0.000000 -3.445424 -8.644795 -1.570797 -1.316041 -1.570891
    1 2.033348 1.000767 1.937660 2.876396 -0.740743 1.781733
    2 6.028145 0.000003 0.000002 -2.255376 -0.721400 -0.087403
    3 11.692553 0.000081 -0.000005 0.034537 0.156842 -1.146937
    4 11.481672 -0.000089 -0.000024 0.616860 -0.189855 0.540174
    5 3.281560 0.002120 -1.383388 -0.007955 -0.133827 -0.360420
    6 1.324284 -0.000008 0.000004 0.000000 -0.058044 -0.400849
    7 0.819210 -0.000004 0.000003 0.000001 -0.000003 -0.765203
    8 3.711854 0.109256 -0.568167 -0.109798 -0.110917 -0.528416
    9 1.609408 0.000006 -0.000007 -0.000002 -0.002211 -0.401275
    10 0.993191 -0.000006 0.000002 0.003596 0.009209 -0.873248
    11 3.786031 0.203223 0.243937 -0.093088 -0.087836 -0.702082
    12 1.684424 -0.000010 0.000009 0.000002 -0.002647 -0.234007
    13 1.252151 -0.000006 0.000003 -0.002553 0.003546 -0.715431
    14 3.594223 0.299550 1.109803 -0.079920 -0.087645 -0.586627
    15 1.719435 0.000000 -0.000005 -0.000004 0.000016 -0.382917
    16 1.005925 -0.000006 0.000004 0.000005 0.000018 -0.711044
    17 0.298214 -0.634094 0.426700 -1.390970 -0.350968 -0.835868
    18 2.633559 0.000000 -0.000008 -0.000002 -0.181844 0.592346
    19 1.308566 0.000000 -0.000002 -0.042615 -0.076559 0.715208
    20 2.033356 1.000772 -1.937610 -0.128225 0.173059 4.244766
    21 6.028141 0.000000 -0.000002 -1.004439 0.585454 -2.895654
    22 11.692556 0.000000 -0.000002 -0.001272 -0.010966 -0.391205
    23 11.481707 -0.000001 -0.000003 -0.408954 -0.088040 -0.320878
    24 2.910432 -0.023162 1.400147 -0.132857 -0.094214 -0.565971
    25 1.285215 -0.000006 0.000000 0.000002 0.101439 -0.561485
    26 0.838746 -0.000002 -0.000001 -0.066634 0.050986 -1.115421
    27 3.368063 0.007379 0.622456 0.037062 -0.099516 -0.881448
    28 1.609375 0.000000 0.000000 -0.000005 0.098284 -0.866844
    29 1.016602 0.000000 0.000000 0.014872 -0.013942 -1.322835
    30 3.555528 0.023918 -0.200567 0.012608 -0.103497 -0.905355
    31 1.666016 0.000000 -0.000002 -0.000008 0.157406 -1.208297
    32 1.236531 0.000004 0.000006 0.000002 -0.000011 -1.221645
    33 3.449664 0.054215 -1.085181 0.081466 0.060790 0.090320
    34 1.711620 0.000002 0.000009 0.000003 -0.040000 -1.265062
    35 0.999023 0.000006 0.000002 0.005618 -0.013549 -0.593087
    36 0.075535 -0.738748 -0.755818 1.270735 0.364751 -0.554219
    37 2.508557 -0.000008 -0.000006 -0.000002 -0.000001 0.359159
    38 1.312473 0.175785 -0.105480 -0.009799 -0.054172 0.978226
    39 -5.805808 -25.217034 -6.896342 1.724174 0.157013 3.405585
    40 -0.058812 3.042970 -0.224466 0.000000 0.000000 0.000000
    41 -0.060159 4.910148 0.999546 0.000010 0.000000 0.000005
    42 -0.029969 1.499989 1.560558 0.000012 0.000000 0.000005
    43 -0.095737 3.016737 -4.012920 0.001528 -0.002996 0.184526
    44 0.005473 -0.817976 -0.054882 -0.300790 0.004147 -0.175509
    45 0.007914 -1.099748 -0.017185 -0.212900 -0.001306 0.002212
    46 0.005704 -0.820541 -0.033703 -0.379952 -0.002024 0.004140
  time 25
    0 0.000000 -3.300888 -8.640889 -1.570797 -1.330039 -1.570891
    1 2.033348 1.000767 1.937660 2.876396 -0.740743 1.781733
    2 6.028145 0.000003 0.000002 -2.235634 -0.740677 -0.099190
    3 11.692553 0.000081 -0.000005 0.038791 0.154194 -1.118351
    4 11.481672 -0.000089 -0.000024 0.630338 -0.174869 0.450116
    5 3.281560 0.002120 -1.379481 0.003762 -0.149203 -0.464191
    6 1.324284 -0.000008 0.000004 0.000000 -0.069526 -0.497234
    7 0.815304 -0.000004 0.000003 0.000001 -0.000003 -0.810153
    8 3.711854 0.109256 -0.568167 -0.090539 -0.127192 -0.691541
    9 1.609408 0.000006 -0.000007 -0.000002 -0.000234 -0.491814
    10 0.993191 -0.000006 0.000002 0.003632 0.009772 -0.905755
    11 3.786031 0.203223 0.243937 -0.083093 -0.094404 -0.804582
    12 1.684424 -0.000010 0.000009 0.000002 0.000325 -0.349658
    13 1.252151 -0.000006 0.000003 -0.003703 0.004805 -0.787143
    14 3.594223 0.299550 1.113710 -0.070610 -0.095291 -0.688306
    15 1.719435 0.000000 -0.000005 -0.000004 0.000016 -0.491533
    16 1.005925 -0.000006 0.000004 0.000005 0.000018 -0.782104
    17 0.298214 -0.634094 0.426700 -1.404134 -0.351756 -0.806637
    18 2.633559 0.000000 -0.000008 -0.000002 -0.195515 0.629027
    19 1.308566 0.000000 -0.000002 -0.051340 -0.085966 0.775921
    20 2.033356 1.000772 -1.937610 -0.128225 0.173059 4.244766
    21 6.028141 0.000000 -0.000002 -1.010797 0.573661 -2.889043
    22 11.692556 0.000000 -0.000002 -0.000985 -0.009684 -0.351144
    23 11.481707 -0.000001 -0.000003 -0.410554 -0.091147 -0.316801
    24 2.914339 -0.023162 1.404053 -0.132857 -0.094214 -0.565971
    25 1.285215 -0.000006 0.000000 0.000002 0.101439 -0.561485
    26 0.838746 -0.000002 -0.000001 -0.066634 0.050986 -1.115421
    27 3.368063 0.007379 0.622456 0.037062 -0.099516 -0.881448
    28 1.609375 0.000000 0.000000 -0.000005 0.098284 -0.866844
    29 1.016602 0.000000 0.000000 0.014872 -0.013942 -1.322835
    30 3.555528 0.023918 -0.200567 0.012608 -0.103497 -0.905355
    31 1.666016 0.000000 -0.000002 -0.000008 0.157406 -1.208297
    32 1.236531 0.000004 0.000006 0.000002 -0.000011 -1.221645
    33 3.449664 0.054215 -1.089087 0.081466 0.060790 0.090320
    34 1.711620 0.000002 0.000009 0.000003 -0.040000 -1.265062
    35 0.999023 0.000006 0.000002 0.005618 -0.013549 -0.593087
    36 0.075535 -0.738748 -0.755818 1.270735 0.364751 -0.554231
    37 2.508557 -0.000008 -0.000006 -0.000002 -0.000001 0.359159
    38 1.312473 0.175785 -0.105480 -0.009799 -0.054184 0.978226
    39 -5.993313 -25.197502 -7.115098 1.704379 0.160142 3.379935
    40 -0.058812 3.042970 -0.224466 0.000000 0.000000 0.000000
    41 -0.060159 4.910148 0.999546 0.000010 0.000000 0.000005
    42 -0.029969 1.499989 1.560558 0.000012 0.000000 0.000005
    43 -0.095737 3.016737 -4.012920 0.000941 -0.001678 0.104637
    44 0.005473 -0.817976 -0.054882 -0.273791 0.006160 -0.155687
    45 0.007914 -1.099748 -0.017185 -0.213470 -0.001306 0.002224
    46 0.005704 -0.820541 -0.033703 -0.404321 -0.002144 0.004427
  time 26
    0 0.000000 -3.171978 -8.640889 -1.570797 -1.342370 -1.570891
    1 2.033348 1.000767 1.937660 2.876396 -0.740743 1.781733
    2 6.028145 0.000003 0.000002 -2.217550 -0.773973 -0.106238
    3 11.692553 0.000081 -0.000005 0.047983 0.148717 -1.056291
    4 11.481672 -0.000089 -0.000024 0.655126 -0.123523 0.330473
    5 3.281560 0.002120 -1.379481 0.018771 -0.166521 -0.597357
    6 1.324284 -0.000008 0.000004 0.000000 -0.081211 -0.620966
    7 0.819210 -0.000004 0.000003 0.000001 -0.000003 -0.862964
    8 3.711854 0.109256 -0.568167 -0.062075 -0.142545 -0.903244
    9 1.609408 0.000006 -0.000007 -0.000002 0.003098 -0.605806
    10 0.993191 -0.000006 0.000002 0.003656 0.010348 -0.937938
    11 3.786031 0.203223 0.243937 -0.069586 -0.101007 -0.930849
    12 1.684424 -0.000010 0.000009 0.000002 0.004076 -0.499653
    13 1.252151 -0.000006 0.000003 -0.005237 0.006195 -0.873350
    14 3.594223 0.299550 1.113710 -0.057934 -0.103477 -0.815917
    15 1.719435 0.000000 -0.000005 -0.000004 0.000016 -0.628390
    16 1.005925 -0.000006 0.000004 0.000005 0.000018 -0.852363
    17 0.298214 -0.634094 0.430606 -1.419171 -0.356856 -0.765595
    18 2.633559 0.000000 -0.000008 -0.000002 -0.207142 0.665975
    19 1.308566 0.000000 -0.000002 -0.060544 -0.094763 0.836211
    20 2.033356 1.000772 -1.937610 -0.128225 0.173059 4.244766
    21 6.028141 0.000000 -0.000002 -1.014955 0.568044 -2.879162
    22 11.692556 0.000000 -0.000002 -0.000529 -0.008833 -0.325624
    23 11.481707 -0.000001 -0.000003 -0.415702 -0.096269 -0.303661
    24 2.914339 -0.023162 1.400147 -0.132857 -0.094214 -0.565971
    25 1.285215 -0.000006 0.000000 0.000002 0.101439 -0.561485
    26 0.838746 -0.000002 -0.000001 -0.066634 0.050986 -1.115421
    27 3.368063 0.007379 0.618550 0.037062 -0.099516 -0.881448
    28 1.609375 0.000000 0.000000 -0.000005 0.098284 -0.866844
    29 1.016602 0.000000 0.000000 0.014872 -0.013942 -1.322835
    30 3.555528 0.023918 -0.204473 0.012608 -0.103497 -0.905355
    31 1.666016 0.000000 -0.000002 -0.000008 0.157406 -1.208297
    32 1.236531 0.000004 0.000006 0.000002 -0.000011 -1.221645
    33 3.449664 0.054215 -1.089087 0.081466 0.060790 0.090320
    34 1.711620 0.000002 0.000009 0.000003 -0.040012 -1.265062
    35 0.999023 0.000006 0.000002 0.005618 -0.013549 -0.593087
    36 0.075535 -0.738748 -0.759724 1.270735 0.364751 -0.554231
    37 2.508557 -0.000008 -0.000006 -0.000002 -0.000001 0.359159
    38 1.312473 0.175785 -0.105480 -0.009799 -0.054172 0.978226
    39 -6.180819 -25.154532 -7.365106 1.680991 0.159567 3.352420
    40 -0.058812 3.042970 -0.224466 0.000000 0.000000 0.000000
    41 -0.060159 4.910148 0.999546 0.000010 0.000000 0.000005
    42 -0.029969 1.499989 1.560558 0.000012 0.000000 0.000005
    43 -0.095737 3.016737 -4.012920 0.000246 -0.000384 0.025961
    44 0.005473 -0.817976 -0.054882 -0.234735 0.007982 -0.131825
    45 0.007914 -1.099748 -0.017185 -0.195129 -0.001210 0.002020
    46 0.005704 -0.820541 -0.033703 -0.393969 -0.002108 0.004272
  time 27
    0 0.000000 -3.066506 -8.636982 -1.570797 -1.352823 -1.570843
    1 2.033348 1.000767 1.937660 2.876396 -0.740743 1.781733
    2 6.028145 0.000003 0.000002 -2.208922 -0.820447 -0.102309
    3 11.692553 0.000081 -0.000005 0.060795 0.140160 -0.965892
    4 11.481672 -0.000089 -0.000024 0.679914 -0.039311 0.193210
    5 3.281560 0.006026 -1.379481 0.035760 -0.182832 -0.751597
    6 1.324284 -0.000008 0.000004 0.000000 -0.089600 -0.764199
    7 0.819210 -0.000004 0.000003 0.000001 -0.000003 -0.921294
    8 3.711854 0.109256 -0.568167 -0.025630 -0.151425 -1.149575
    9 1.609408 0.000006 -0.000007 -0.000002 0.007808 -0.736100
    10 0.993191 -0.000006 0.000002 0.003656 0.010887 -0.969449
    11 3.786031 0.207130 0.243937 -0.052999 -0.106388 -1.073898
    12 1.684424 -0.000010 0.000009 0.000002 0.007971 -0.673778
    13 1.252151 -0.000006 0.000003 -0.007083 0.007597 -0.969731
    14 3.594223 0.303456 1.109803 -0.042308 -0.110764 -0.961757
    15 1.719435 0.000000 -0.000005 -0.000004 0.000016 -0.784998
    16 1.005925 -0.000006 0.000004 0.000005 0.000018 -0.921211
    17 0.298214 -0.630188 0.426700 -1.436147 -0.364391 -0.715906
    18 2.633559 0.000000 -0.000008 -0.000002 -0.217049 0.702656
    19 1.308566 0.000000 -0.000002 -0.070084 -0.102841 0.895357
    20 2.033356 1.000772 -1.937610 -0.128225 0.173059 4.244766
    21 6.028141 0.000000 -0.000002 -1.015525 0.572248 -2.863949
    22 11.692556 0.000000 -0.000002 0.000046 -0.008593 -0.322692
    23 11.481707 -0.000001 -0.000003 -0.423632 -0.102399 -0.278789
    24 2.914339 -0.023162 1.400147 -0.132857 -0.094214 -0.565971
    25 1.285215 -0.000006 0.000000 0.000002 0.101427 -0.561485
    26 0.838746 -0.000002 -0.000001 -0.066634 0.050986 -1.115421
    27 3.368063 0.007379 0.622456 0.037062 -0.099516 -0.881448
    28 1.609375 0.000000 0.000000 -0.000005 0.098284 -0.866844
    29 1.016602 0.000000 0.000000 0.014872 -0.013942 -1.322835
    30 3.555528 0.023918 -0.200567 0.012608 -0.103497 -0.905355
    31 1.666016 0.000000 -0.000002 -0.000008 0.157406 -1.208297
    32 1.236531 0.000004 0.000006 0.000002 -0.000011 -1.221645
    33 3.449664 0.054215 -1.089087 0.081466 0.060790 0.090320
    34 1.711620 0.000002 0.000009 0.000003 -0.040000 -1.265062
    35 0.999023 0.000006 0.000002 0.005618 -0.013549 -0.593087
    36 0.075535 -0.738748 -0.759724 1.270735 0.364751 -0.554219
    37 2.508557 -0.000008 -0.000006 -0.000002 -0.000001 0.359159
    38 1.312473 0.175785 -0.105480 -0.009799 -0.054184 0.978226
    39 -6.364418 -25.092030 -7.626833 1.656035 0.156077 3.324439
    40 -0.058812 3.042970 -0.224466 0.000000 0.000000 0.000000
    41 -0.060159 4.910148 0.999546 0.000010 0.000000 0.000005
    42 -0.029969 1.499989 1.560558 0.000012 0.000000 0.000005
    43 -0.095737 3.016737 -4.012920 -0.000401 0.000611 -0.041602
    44 0.005473 -0.817976 -0.054882 -0.187716 0.008857 -0.105411
    45 0.007914 -1.099748 -0.017185 -0.162970 -0.001055 0.001673
    46 0.005704 -0.820541 -0.033703 -0.342640 -0.001857 0.003708
  time 28
    0 0.000000 -2.972753 -8.640889 -1.570797 -1.361275 -1.570891
    1 2.033348 1.000767 1.937660 2.876396 -0.740743 1.781662
    2 6.028145 0.000003 0.000002 -2.206067 -0.875615 -0.092455
    3 11.692553 0.000081 -0.000005 0.075488 0.128235 -0.855111
    4 11.481672 -0.000089 -0.000024 0.696125 0.066147 0.043222
    5 3.281560 0.002120 -1.379481 0.058090 -0.193067 -0.967303
    6 1.324284 -0.000008 0.000004 0.000000 -0.078874 -0.947748
    7 0.819210 -0.000004 0.000003 0.000001 -0.000003 -0.998245
    8 3.711854 0.109256 -0.568167 0.001731 -0.151353 -1.327319
    9 1.609408 0.000006 -0.000007 -0.000002 0.013477 -0.921055
    10 0.993191 -0.000006 0.000002 0.003620 0.011474 -1.003343
    11 3.786031 0.203223 0.243937 -0.031116 -0.110151 -1.250288
    12 1.684424 -0.000010 0.000009 0.000002 0.010188 -0.889869
    13 1.252151 -0.000006 0.000003 -0.009672 0.008748 -1.088141
    14 3.594223 0.299550 1.109803 -0.021783 -0.116540 -1.142186
    15 1.719435 0.000000 -0.000005 -0.000004 0.000016 -0.978617
    16 1.005925 -0.000006 0.000004 0.000005 0.000018 -0.995155
    17 0.298214 -0.634094 0.430606 -1.458032 -0.372886 -0.653234
    18 2.633559 0.000000 -0.000008 -0.000002 -0.226210 0.742630
    19 1.308566 0.000000 -0.000002 -0.081266 -0.110163 0.959141
    20 2.033356 1.000772 -1.937610 -0.128225 0.173059 4.244766
    21 6.028141 0.000000 -0.000002 -1.012428 0.585092 -2.844613
    22 11.692556 0.000000 -0.000002 0.000741 -0.008941 -0.341200
    23 11.481707 -0.000001 -0.000003 -0.433371 -0.108389 -0.243358
    24 2.914339 -0.023162 1.400147 -0.132857 -0.094214 -0.565971
    25 1.285215 -0.000006 0.000000 0.000002 0.101439 -0.561485
    26 0.838746 -0.000002 -0.000001 -0.066634 0.050986 -1.115421
    27 3.368063 0.007379 0.622456 0.037062 -0.099516 -0.881448
    28 1.609375 0.000000 0.000000 -0.000005 0.098284 -0.866844
    29 1.016602 0.000000 0.000000 0.014872 -0.013942 -1.322835
    30 3.555528 0.023918 -0.200567 0.012608 -0.103497 -0.905355
    31 1.666016 0.000000 -0.000002 -0.000008 0.157406 -1.208297
    32 1.236531 0.000004 0.000006 0.000002 -0.000011 -1.221645
    33 3.449664 0.054215 -1.089087 0.081466 0.060790 0.090320
    34 1.711620 0.000002 0.000009 0.000003 -0.040000 -1.265062
    35 0.999023 0.000006 0.000002 0.005618 -0.013549 -0.593087
    36 0.075535 -0.738748 -0.755818 1.270735 0.364751 -0.554231
    37 2.508557 -0.000008 -0.000006 -0.000002 -0.000001 0.359159
    38 1.312473 0.175785 -0.105480 -0.009799 -0.054172 0.978226
    39 -6.536299 -24.998277 -7.880747 1.631470 0.150538 3.297080
    40 -0.058812 3.042970 -0.224466 0.000000 0.000000 0.000000
    41 -0.060159 4.910148 0.999546 0.000010 0.000000 0.000005
    42 -0.029969 1.499989 1.560558 0.000012 0.000000 0.000005
    43 -0.095737 3.016737 -4.012920 -0.000929 0.001306 -0.088715
    44 0.005473 -0.817976 -0.054882 -0.136737 0.008437 -0.077655
    45 0.007914 -1.099748 -0.017185 -0.122217 -0.000815 0.001229
    46 0.005704 -0.820541 -0.033703 -0.263790 -0.001641 0.002809
  time 29
    0 0.000000 -2.910251 -8.640889 -1.570797 -1.367530 -1.570843
    1 2.033348 1.000767 1.937660 2.876396 -0.740743 1.781733
    2 6.028145 0.000003 0.000002 -2.208584 -0.936209 -0.077923
    3 11.692553 0.000081 -0.000005 0.090145 0.113410 -0.732232
    4 11.481672 -0.000089 -0.000024 0.699047 0.180587 -0.114870
    5 3.281560 0.002120 -1.383388 0.080087 -0.198364 -1.209907
    6 1.324284 -0.000008 0.000004 0.000000 -0.064348 -1.152367
    7 0.819210 -0.000004 0.000003 0.000001 -0.000003 -1.084322
    8 3.711854 0.109256 -0.568167 0.029631 -0.146104 -1.508992
    9 1.609408 0.000006 -0.000007 -0.000002 0.019745 -1.129314
    10 0.993191 -0.000006 0.000002 0.003572 0.012121 -1.040290
    11 3.786031 0.203223 0.243937 -0.005708 -0.109804 -1.446158
    12 1.684424 -0.000010 0.000009 0.000002 0.012333 -1.129881
    13 1.252151 -0.000006 0.000003 -0.012548 0.009970 -1.219479
    14 3.594223 0.299550 1.109803 0.001792 -0.118530 -1.342681
    15 1.719435 0.000000 -0.000005 -0.000004 0.000016 -1.193556
    16 1.005925 -0.000006 0.000004 0.000005 0.000018 -1.075927
    17 0.298214 -0.634094 0.430606 -1.483132 -0.380851 -0.583086
    18 2.633559 0.000000 -0.000008 -0.000002 -0.236018 0.786330
    19 1.308566 0.000000 -0.000002 -0.093634 -0.118001 1.028827
    20 2.033356 1.000772 -1.937610 -0.128225 0.173059 4.244766
    21 6.028141 0.000000 -0.000002 -1.005010 0.607068 -2.820870
    22 11.692556 0.000000 -0.000002 0.001556 -0.009827 -0.381951
    23 11.481707 -0.000001 -0.000003 -0.443944 -0.113063 -0.198541
    24 2.910432 -0.023162 1.400147 -0.132857 -0.094214 -0.565971
    25 1.285215 -0.000006 0.000000 0.000002 0.101439 -0.561485
    26 0.838746 -0.000002 -0.000001 -0.066634 0.050986 -1.115421
    27 3.368063 0.007379 0.622456 0.037062 -0.099516 -0.881448
    28 1.609375 0.000000 0.000000 -0.000005 0.098284 -0.866844
    29 1.016602 0.000000 0.000000 0.014872 -0.013942 -1.322835
    30 3.551622 0.023918 -0.200567 0.012608 -0.103497 -0.905355
    31 1.666016 0.000000 -0.000002 -0.000008 0.157406 -1.208297
    32 1.236531 0.000004 0.000006 0.000002 0.000001 -1.221645
    33 3.449664 0.054215 -1.089087 0.081466 0.060790 0.090320
    34 1.711620 0.000002 0.000009 0.000003 -0.040000 -1.265062
    35 0.999023 0.000006 0.000002 0.005618 -0.013549 -0.593087
    36 0.075535 -0.738748 -0.755818 1.270735 0.364751 -0.554219
    37 2.508557 -0.000008 -0.000006 -0.000002 -0.000001 0.359159
    38 1.312473 0.175785 -0.105480 -0.009799 -0.054172 0.978226
    39 -6.696460 -24.869367 -8.111223 1.609258 0.143919 3.271430
    40 -0.058812 3.042970 -0.224466 0.000000 0.000000 0.000000
    41 -0.060159 4.910148 0.999546 0.000010 0.000000 0.000005
    42 -0.029969 1.499989 1.560558 0.000012 0.000000 0.000005
    43 -0.095737 3.016737 -4.012920 -0.000917 0.001294 -0.087220
    44 0.005473 -0.817976 -0.058788 -0.085781 0.006556 -0.049911
    45 0.007914 -1.099748 -0.017185 -0.078056 -0.000515 0.000774
    46 0.005704 -0.820541 -0.033703 -0.171335 -0.001066 0.001743
  time 30
    0 0.000000 -2.875094 -8.640889 -1.570797 -1.371423 -1.570891
    1 2.033348 1.000767 1.937660 2.876396 -0.740743 1.781733
    2 6.028145 0.000003 0.000002 -2.231243 -1.007655 -0.043371
    3 11.692553 0.000081 -0.000005 0.104634 0.094594 -0.591788
    4 11.481672 -0.000089 -0.000024 0.681610 0.317082 -0.304829
    5 3.281560 0.002120 -1.379481 0.094694 -0.198855 -1.407531
    6 1.324284 -0.000008 0.000004 0.000000 -0.051621 -1.318655
    7 0.819210 -0.000004 0.000003 0.000001 -0.000003 -1.154336
    8 3.711854 0.109256 -0.568167 0.050700 -0.138530 -1.650127
    9 1.609408 0.000006 -0.000007 -0.000002 0.024814 -1.299399
    10 0.993191 -0.000006 0.000002 0.003536 0.012649 -1.070047
    11 3.786031 0.203223 0.243937 0.015085 -0.105873 -1.604916
    12 1.684424 -0.000010 0.000009 0.000002 0.013951 -1.324674
    13 1.252151 -0.000006 0.000003 -0.014909 0.010929 -1.325995
    14 3.594223 0.299550 1.113710 0.020913 -0.116696 -1.505268
    15 1.719435 0.000000 -0.000005 -0.000004 0.000016 -1.367946
    16 1.005925 -0.000006 0.000004 0.000005 0.000018 -1.140897
    17 0.298214 -0.634094 0.430606 -1.504033 -0.386165 -0.525846
    18 2.633559 0.000000 -0.000008 -0.000002 -0.243812 0.821508
    19 1.308566 0.000000 -0.000002 -0.103641 -0.124233 1.084931
    20 2.033356 1.000772 -1.937610 -0.128225 0.173059 4.244766
    21 6.028141 0.000000 -0.000002 -0.988054 0.647768 -2.785397
    22 11.692556 0.000000 -0.000002 0.002695 -0.011757 -0.465121
    23 11.481707 -0.000001 -0.000003 -0.455283 -0.114099 -0.132167
    24 2.910432 -0.027069 1.400147 -0.133021 -0.094190 -0.566259
    25 1.285215 -0.000006 0.000000 0.000002 0.101439 -0.561485
    26 0.838746 -0.000002 -0.000001 -0.066634 0.050986 -1.115421
    27 3.368063 0.007379 0.622456 0.036895 -0.099552 -0.881723
    28 1.609375 0.000000 0.000000 -0.000005 0.098284 -0.866844
    29 1.016602 0.000000 0.000000 0.014872 -0.013942 -1.322835
    30 3.551622 0.023918 -0.200567 0.012441 -0.103533 -0.905630
    31 1.666016 0.000000 -0.000002 -0.000008 0.157406 -1.208297
    32 1.236531 0.000004 0.000006 0.000002 0.000001 -1.221645
    33 3.449664 0.054215 -1.089087 0.081342 0.060910 0.090042
    34 1.711620 0.000002 0.000009 0.000003 -0.040000 -1.265062
    35 0.999023 0.000006 0.000002 0.005618 -0.013549 -0.593087
    36 0.075535 -0.738748 -0.759724 1.270555 0.364763 -0.554590
    37 2.508557 -0.000008 -0.000006 -0.000002 -0.000001 0.359159
    38 1.312473 0.175785 -0.105480 -0.009799 -0.054172 0.978226
    39 -6.856621 -24.654517 -8.314354 1.590051 0.137192 3.243682
    40 -0.058812 3.042970 -0.224466 0.000000 0.000000 0.000000
    41 -0.060159 4.910148 0.999546 0.000010 0.000000 0.000005
    42 -0.029969 1.499989 1.560558 0.000012 0.000000 0.000005
    43 -0.095737 3.016737 -4.012920 -0.000366 0.000515 -0.036233
    44 0.005473 -0.817976 -0.054882 -0.031470 0.002625 -0.018499
    45 0.007914 -1.099748 -0.017185 -0.028828 -0.000192 0.000283
    46 0.005704 -0.816635 -0.033703 -0.063669 -0.000370 0.000676
  time 31
    0 0.000000 -2.855562 -8.640889 -1.570797 -1.372743 -1.570891
    1 2.033348 1.000767 1.937660 2.876396 -0.740743 1.781733
    2 6.028145 0.000003 0.000002 -2.253503 -1.051669 -0.014495
    3 11.692553 0.000081 -0.000005 0.112317 0.081723 -0.503709
    4 11.481672 -0.000089 -0.000024 0.658330 0.398910 -0.422460
    5 3.281560 0.002120 -1.379481 0.099930 -0.198484 -1.489194
    6 1.324284 -0.000008 0.000004 0.000000 -0.046144 -1.387278
    7 0.819210 -0.000004 0.000003 0.000001 -0.000003 -1.183286
    8 3.711854 0.109256 -0.572074 0.059197 -0.134838 -1.706989
    9 1.609408 0.000006 -0.000007 -0.000002 0.026887 -1.369798
    10 0.993191 -0.000006 0.000002 0.003524 0.012852 -1.082262
    11 3.786031 0.203223 0.243937 0.023846 -0.103512 -1.670378
    12 1.684424 -0.000010 0.000009 0.000002 0.014586 -1.404899
    13 1.252151 -0.000006 0.000003 -0.015880 0.011312 -1.369940
    14 3.594223 0.299550 1.109803 0.028905 -0.115282 -1.572324
    15 1.719435 0.000000 -0.000005 -0.000004 0.000016 -1.439874
    16 1.005925 -0.000006 0.000004 0.000005 0.000018 -1.167564
    17 0.298214 -0.630188 0.426700 -1.512884 -0.388357 -0.502148
    18 2.633559 0.000000 -0.000008 -0.000002 -0.246997 0.835999
    19 1.308566 0.000000 -0.000002 -0.107740 -0.126774 1.107970
    20 2.033356 1.000772 -1.937610 -0.128225 0.173059 4.244766
    21 6.028141 0.000000 -0.000002 -0.977213 0.670729 -2.765350
    22 11.692556 0.000000 -0.000002 0.003366 -0.012596 -0.512483
    23 11.481707 -0.000001 -0.000003 -0.462448 -0.115023 -0.094683
    24 2.914339 -0.027069 1.400147 -0.132674 -0.094034 -0.565756
    25 1.285215 -0.000006 0.000000 0.000002 0.101439 -0.561485
    26 0.838746 -0.000002 -0.000001 -0.066634 0.050986 -1.115421
    27 3.368063 0.007379 0.618550 0.037182 -0.099300 -0.881220
    28 1.609375 0.000000 0.000000 -0.000005 0.098284 -0.866844
    29 1.016602 0.000000 0.000000 0.014872 -0.013942 -1.322835
    30 3.555528 0.023918 -0.200567 0.012728 -0.103269 -0.905127
    31 1.666016 0.000000 -0.000002 -0.000008 0.157406 -1.208297
    32 1.236531 0.000004 0.000006 0.000002 -0.000011 -1.221645
    33 3.449664 0.054215 -1.089087 0.081740 0.060814 0.090598
    34 1.711620 0.000002 0.000009 0.000003 -0.040000 -1.265062
    35 0.999023 0.000006 0.000002 0.005618 -0.013549 -0.593087
    36 0.075535 -0.738748 -0.755818 1.270938 0.364919 -0.553919
    37 2.508557 -0.000008 -0.000006 -0.000002 -0.000001 0.359159
    38 1.312473 0.175785 -0.105480 -0.009799 -0.054172 0.978226
    39 -6.950374 -24.513888 -8.427638 1.579337 0.133235 3.227670
    40 -0.058812 3.042970 -0.224466 0.000000 0.000000 0.000000
    41 -0.060159 4.910148 0.999546 0.000010 0.000000 0.000005
    42 -0.029969 1.499989 1.560558 0.000012 0.000000 0.000005
    43 -0.095737 3.016737 -4.012920 0.000006 0.000000 0.000000
    44 0.005473 -0.817976 -0.054882 0.000003 0.000000 0.000005
    45 0.007914 -1.099748 -0.017185 -0.000011 0.000000 -0.000005
    46 0.005704 -0.820541 -0.033703 0.000000 0.000025 0.000005
end
