// Created by Crowbar++ 0.74
version 1
nodes
  0 "ValveBiped.Bip01_Spine4" -1
  1 "ValveBiped.Bip01_L_Clavicle" 0
  2 "ValveBiped.Bip01_L_UpperArm" 1
  3 "ValveBiped.Bip01_L_Forearm" 2
  4 "ValveBiped.Bip01_L_Hand" 3
  5 "ValveBiped.Bip01_L_Finger4" 4
  6 "ValveBiped.Bip01_L_Finger41" 5
  7 "ValveBiped.Bip01_L_Finger42" 6
  8 "ValveBiped.Bip01_L_Finger3" 4
  9 "ValveBiped.Bip01_L_Finger31" 8
  10 "ValveBiped.Bip01_L_Finger32" 9
  11 "ValveBiped.Bip01_L_Finger2" 4
  12 "ValveBiped.Bip01_L_Finger21" 11
  13 "ValveBiped.Bip01_L_Finger22" 12
  14 "ValveBiped.Bip01_L_Finger1" 4
  15 "ValveBiped.Bip01_L_Finger11" 14
  16 "ValveBiped.Bip01_L_Finger12" 15
  17 "ValveBiped.Bip01_L_Finger0" 4
  18 "ValveBiped.Bip01_L_Finger01" 17
  19 "ValveBiped.Bip01_L_Finger02" 18
  20 "ValveBiped.Bip01_R_Clavicle" 0
  21 "ValveBiped.Bip01_R_UpperArm" 20
  22 "ValveBiped.Bip01_R_Forearm" 21
  23 "ValveBiped.Bip01_R_Hand" 22
  24 "ValveBiped.Bip01_R_Finger4" 23
  25 "ValveBiped.Bip01_R_Finger41" 24
  26 "ValveBiped.Bip01_R_Finger42" 25
  27 "ValveBiped.Bip01_R_Finger3" 23
  28 "ValveBiped.Bip01_R_Finger31" 27
  29 "ValveBiped.Bip01_R_Finger32" 28
  30 "ValveBiped.Bip01_R_Finger2" 23
  31 "ValveBiped.Bip01_R_Finger21" 30
  32 "ValveBiped.Bip01_R_Finger22" 31
  33 "ValveBiped.Bip01_R_Finger1" 23
  34 "ValveBiped.Bip01_R_Finger11" 33
  35 "ValveBiped.Bip01_R_Finger12" 34
  36 "ValveBiped.Bip01_R_Finger0" 23
  37 "ValveBiped.Bip01_R_Finger01" 36
  38 "ValveBiped.Bip01_R_Finger02" 37
  39 "root" -1
  40 "slide" 39
  41 "lever" 39
  42 "trigger" 39
  43 "slot" 39
  44 "attachment_muzzleflash" 39
  45 "ejaculator" 39
  46 "hammer" 39
  47 "root.002" 39
end
skeleton
  time 0
    0 0.000006 0.000000 0.000000 -1.570798 -1.391899 -1.570794
    1 2.033348 1.000767 1.937659 1.596636 -1.286515 2.942963
    2 6.028140 0.000007 0.000003 -1.583313 0.047801 -0.585283
    3 11.692572 0.000000 -0.000019 -0.000001 0.000001 -0.060358
    4 11.481682 -0.000163 -0.000038 1.576902 -0.106662 0.043783
    5 3.859703 -0.142405 -1.191976 -0.468130 0.151539 -0.880191
    6 1.312561 -0.000010 0.000002 0.000001 -0.000002 -0.439725
    7 0.729367 -0.000004 0.000000 0.000002 -0.000003 -0.244304
    8 3.942326 0.046766 -0.431443 -0.151780 0.073202 -0.810985
    9 1.539099 -0.000002 -0.000007 -0.000001 0.000006 -0.247791
    10 1.196324 -0.000004 0.000003 0.000001 -0.000007 -0.430811
    11 3.883690 -0.046767 0.431443 0.085902 0.021835 -0.587859
    12 1.719576 -0.000013 0.000009 0.000001 0.005514 -0.366480
    13 1.209185 -0.000010 0.000003 0.000000 0.003091 -0.216394
    14 3.859859 -0.137949 1.332466 0.354450 -0.042753 -0.531716
    15 1.719433 -0.000006 -0.000003 -0.000004 0.004079 -0.363006
    16 1.099669 -0.000008 0.000002 0.000004 0.002595 -0.244332
    17 0.806044 -0.348926 1.321258 -1.222683 -0.679215 -0.788816
    18 1.789782 0.000002 -0.000008 -0.000002 -0.000001 0.228525
    19 1.207005 0.000000 0.000000 0.000001 -0.000001 0.362860
    20 2.033356 1.000772 -1.937610 -1.668474 1.286518 2.942954
    21 6.028139 0.000000 -0.000002 1.639694 -0.008038 -0.586850
    22 11.692549 0.000000 0.000003 -0.000002 0.000000 -0.060311
    23 11.481695 -0.000080 0.000006 -1.565151 0.106608 0.044135
    24 3.859676 -0.132517 1.193109 0.466234 -0.158066 -0.878814
    25 1.312561 0.000002 -0.000001 0.000004 0.000002 -0.439675
    26 0.729367 0.000004 0.000001 0.000001 0.000003 -0.244276
    27 3.942295 0.050373 0.431044 0.150078 -0.079189 -0.810198
    28 1.539099 0.000011 0.000000 0.000003 -0.000003 -0.247767
    29 1.196325 0.000004 -0.000003 -0.000003 0.000001 -0.430764
    30 3.883663 -0.050280 -0.431043 -0.085904 -0.026400 -0.587678
    31 1.719580 -0.000008 0.000006 0.000001 -0.007973 -0.366437
    32 1.209188 -0.000013 0.000006 0.000001 -0.004469 -0.216382
    33 3.859833 -0.148894 -1.331282 -0.354420 0.038573 -0.531987
    34 1.719427 -0.000006 0.000010 0.000000 -0.006612 -0.362984
    35 1.099665 0.000011 0.000004 0.000003 -0.004212 -0.244310
    36 0.806026 -0.359824 -1.318335 1.221410 0.673632 -0.793545
    37 1.789783 -0.000004 -0.000002 -0.000003 0.000000 0.228553
    38 1.207001 -0.000002 -0.000006 0.000001 -0.000001 0.362909
    39 -7.715595 -14.254342 -6.598650 1.577692 -0.048332 -3.089054
    40 -0.000001 1.365388 -0.536964 -1.570798 0.000001 0.000000
    41 -0.000001 -0.513253 -0.829849 1.121305 0.000000 -3.141591
    42 0.000000 -0.854954 0.683403 0.154998 0.000000 -3.141591
    43 -0.456437 0.634190 -1.470296 -1.570797 0.000001 0.000000
    44 0.000008 1.368782 -31.679443 -1.570797 0.000000 0.000000
    45 -0.000002 1.728255 -2.285901 -1.570797 0.000000 -0.582937
    46 -0.102380 0.431843 0.420865 -1.570797 0.000001 0.000000
    47 0.000000 0.306830 -0.617118 -1.570796 0.000000 0.000000
end
triangles
shell_338mag
  45 -7.636741 -18.762812 -4.747324 0.000000 -1.000000 0.000002 0.311493 0.212380 1 45 1.000000
  45 -7.395905 -18.762812 -4.747324 0.000000 -1.000000 -0.000005 0.447856 0.212380 1 45 1.000000
  45 -7.516323 -18.762812 -4.689333 0.000000 -1.000000 0.000034 0.379675 0.245215 1 45 1.000000
shell_338mag
  45 -7.636741 -18.762812 -4.747324 0.000000 -1.000000 0.000002 0.311493 0.212380 1 45 1.000000
  45 -7.366165 -18.762812 -4.877626 0.000000 -1.000000 -0.000010 0.464697 0.138601 1 45 1.000000
  45 -7.395905 -18.762812 -4.747324 0.000000 -1.000000 -0.000005 0.447856 0.212380 1 45 1.000000
shell_338mag
  45 -7.636741 -18.762812 -4.747324 0.000000 -1.000000 0.000002 0.311493 0.212380 1 45 1.000000
  45 -7.449495 -18.762812 -4.982121 0.000000 -1.000000 0.000002 0.417512 0.079434 1 45 1.000000
  45 -7.366165 -18.762812 -4.877626 0.000000 -1.000000 -0.000010 0.464697 0.138601 1 45 1.000000
shell_338mag
  45 -7.636741 -18.762812 -4.747324 0.000000 -1.000000 0.000002 0.311493 0.212380 1 45 1.000000
  45 -7.583149 -18.762812 -4.982121 0.000000 -1.000000 0.000009 0.341837 0.079434 1 45 1.000000
  45 -7.449495 -18.762812 -4.982121 0.000000 -1.000000 0.000002 0.417512 0.079434 1 45 1.000000
shell_338mag
  45 -7.636741 -18.762812 -4.747324 0.000000 -1.000000 0.000002 0.311493 0.212380 1 45 1.000000
  45 -7.666481 -18.762812 -4.877626 0.000000 -1.000000 -0.000017 0.294652 0.138601 1 45 1.000000
  45 -7.583149 -18.762812 -4.982121 0.000000 -1.000000 0.000009 0.341837 0.079434 1 45 1.000000
shell_338mag
  45 -7.749924 -16.486330 -4.843355 0.000000 1.000000 0.000000 0.267022 0.137633 1 45 1.000000
  45 -7.661971 -16.486330 -5.025990 0.000000 1.000000 -0.000017 0.218428 0.036726 1 45 1.000000
  45 -7.726790 -16.486330 -4.944709 0.000000 1.000000 0.000000 0.254241 0.081634 1 45 1.000000
shell_338mag
  45 -7.749924 -16.486330 -4.843355 0.000000 1.000000 0.000000 0.267022 0.137633 1 45 1.000000
  45 -7.568305 -16.486330 -5.071098 0.000000 1.000000 0.000005 0.166678 0.011804 1 45 1.000000
  45 -7.661971 -16.486330 -5.025990 0.000000 1.000000 -0.000017 0.218428 0.036726 1 45 1.000000
shell_338mag
  45 -7.749924 -16.486330 -4.843355 0.000000 1.000000 0.000000 0.267022 0.137633 1 45 1.000000
  45 -7.464341 -16.486330 -5.071098 0.000000 1.000000 -0.000008 0.109237 0.011804 1 45 1.000000
  45 -7.568305 -16.486330 -5.071098 0.000000 1.000000 0.000005 0.166678 0.011804 1 45 1.000000
shell_338mag
  45 -7.749924 -16.486330 -4.843355 0.000000 1.000000 0.000000 0.267022 0.137633 1 45 1.000000
  45 -7.370676 -16.486330 -5.025990 0.000000 1.000000 0.000003 0.057487 0.036726 1 45 1.000000
  45 -7.464341 -16.486330 -5.071098 0.000000 1.000000 -0.000008 0.109237 0.011804 1 45 1.000000
shell_338mag
  45 -7.749924 -16.486330 -4.843355 0.000000 1.000000 0.000000 0.267022 0.137633 1 45 1.000000
  45 -7.305855 -16.486330 -4.944709 0.000000 1.000000 0.000002 0.021674 0.081634 1 45 1.000000
  45 -7.370676 -16.486330 -5.025990 0.000000 1.000000 0.000003 0.057487 0.036726 1 45 1.000000
shell_338mag
  45 -7.749924 -16.486330 -4.843355 0.000000 1.000000 0.000000 0.267022 0.137633 1 45 1.000000
  45 -7.282722 -16.486330 -4.843355 0.000000 1.000000 0.000000 0.008893 0.137633 1 45 1.000000
  45 -7.305855 -16.486330 -4.944709 0.000000 1.000000 0.000002 0.021674 0.081634 1 45 1.000000
shell_338mag
  45 -7.749924 -16.486330 -4.843355 0.000000 1.000000 0.000000 0.267022 0.137633 1 45 1.000000
  45 -7.305855 -16.486330 -4.741999 0.000000 1.000000 -0.000002 0.021674 0.193632 1 45 1.000000
  45 -7.282722 -16.486330 -4.843355 0.000000 1.000000 0.000000 0.008893 0.137633 1 45 1.000000
shell_338mag
  45 -7.749924 -16.486330 -4.843355 0.000000 1.000000 0.000000 0.267022 0.137633 1 45 1.000000
  45 -7.370676 -16.486330 -4.660717 0.000000 1.000000 -0.000003 0.057487 0.238539 1 45 1.000000
  45 -7.305855 -16.486330 -4.741999 0.000000 1.000000 -0.000002 0.021674 0.193632 1 45 1.000000
shell_338mag
  45 -7.749924 -16.486330 -4.843355 0.000000 1.000000 0.000000 0.267022 0.137633 1 45 1.000000
  45 -7.464341 -16.486330 -4.615611 0.000000 1.000000 0.000008 0.109237 0.263462 1 45 1.000000
  45 -7.370676 -16.486330 -4.660717 0.000000 1.000000 -0.000003 0.057487 0.238539 1 45 1.000000
shell_338mag
  45 -7.749924 -16.486330 -4.843355 0.000000 1.000000 0.000000 0.267022 0.137633 1 45 1.000000
  45 -7.568305 -16.486330 -4.615611 0.000000 1.000000 -0.000005 0.166678 0.263462 1 45 1.000000
  45 -7.464341 -16.486330 -4.615611 0.000000 1.000000 0.000008 0.109237 0.263462 1 45 1.000000
shell_338mag
  45 -7.749924 -16.486330 -4.843355 0.000000 1.000000 0.000000 0.267022 0.137633 1 45 1.000000
  45 -7.661971 -16.486330 -4.660717 0.000000 1.000000 0.000017 0.218428 0.238539 1 45 1.000000
  45 -7.568305 -16.486330 -4.615611 0.000000 1.000000 -0.000005 0.166678 0.263462 1 45 1.000000
shell_338mag
  45 -7.749924 -16.486330 -4.843355 0.000000 1.000000 0.000000 0.267022 0.137633 1 45 1.000000
  45 -7.726790 -16.486330 -4.741999 0.000000 1.000000 0.000000 0.254241 0.193632 1 45 1.000000
  45 -7.661971 -16.486330 -4.660717 0.000000 1.000000 0.000017 0.218428 0.238539 1 45 1.000000
shell_338mag
  45 -7.395905 -18.480707 -4.747324 0.722208 -0.383026 0.575940 0.581855 0.091762 1 45 1.000000
  45 -7.366165 -18.762812 -4.877626 0.974928 0.000000 -0.222519 0.502043 0.254701 1 45 1.000000
  45 -7.366165 -18.480707 -4.877626 0.900578 -0.383024 -0.205550 0.502043 0.091762 1 45 1.000000
shell_338mag
  45 -7.395905 -18.480707 -4.747324 0.722208 -0.383026 0.575940 0.581855 0.091762 1 45 1.000000
  45 -7.395905 -18.762812 -4.747324 0.781831 0.000000 0.623490 0.581855 0.254701 1 45 1.000000
  45 -7.366165 -18.762812 -4.877626 0.974928 0.000000 -0.222519 0.502043 0.254701 1 45 1.000000
shell_338mag
  45 -7.516323 -18.480707 -4.689333 0.000001 -0.383024 0.923738 0.641502 0.091762 1 45 1.000000
  45 -7.395905 -18.762812 -4.747324 0.781831 0.000000 0.623490 0.581855 0.254701 1 45 1.000000
  45 -7.395905 -18.480707 -4.747324 0.722208 -0.383026 0.575940 0.581855 0.091762 1 45 1.000000
shell_338mag
  45 -7.516323 -18.480707 -4.689333 0.000001 -0.383024 0.923738 0.641502 0.091762 1 45 1.000000
  45 -7.516323 -18.762812 -4.689333 -0.000002 0.000000 1.000000 0.641502 0.254701 1 45 1.000000
  45 -7.395905 -18.762812 -4.747324 0.781831 0.000000 0.623490 0.581855 0.254701 1 45 1.000000
shell_338mag
  45 -7.636741 -18.480707 -4.747324 -0.722205 -0.383026 0.575943 0.702901 0.091762 1 45 1.000000
  45 -7.516323 -18.762812 -4.689333 -0.000002 0.000000 1.000000 0.641502 0.254701 1 45 1.000000
  45 -7.516323 -18.480707 -4.689333 0.000001 -0.383024 0.923738 0.641502 0.091762 1 45 1.000000
shell_338mag
  45 -7.636741 -18.480707 -4.747324 -0.722205 -0.383026 0.575943 0.702901 0.091762 1 45 1.000000
  45 -7.636741 -18.762812 -4.747324 -0.781832 0.000000 0.623489 0.702901 0.254701 1 45 1.000000
  45 -7.516323 -18.762812 -4.689333 -0.000002 0.000000 1.000000 0.641502 0.254701 1 45 1.000000
shell_338mag
  45 -7.666481 -18.480707 -4.877626 -0.900578 -0.383027 -0.205548 0.784164 0.091762 1 45 1.000000
  45 -7.636741 -18.762812 -4.747324 -0.781832 0.000000 0.623489 0.702901 0.254701 1 45 1.000000
  45 -7.636741 -18.480707 -4.747324 -0.722205 -0.383026 0.575943 0.702901 0.091762 1 45 1.000000
shell_338mag
  45 -7.666481 -18.480707 -4.877626 -0.900578 -0.383027 -0.205548 0.784164 0.091762 1 45 1.000000
  45 -7.666481 -18.762812 -4.877626 -0.974928 0.000000 -0.222518 0.784164 0.254701 1 45 1.000000
  45 -7.636741 -18.762812 -4.747324 -0.781832 0.000000 0.623489 0.702901 0.254701 1 45 1.000000
shell_338mag
  45 -7.583149 -18.480707 -4.982121 -0.400798 -0.383027 -0.832257 0.853435 0.091762 1 45 1.000000
  45 -7.666481 -18.762812 -4.877626 -0.974928 0.000000 -0.222518 0.784164 0.254701 1 45 1.000000
  45 -7.666481 -18.480707 -4.877626 -0.900578 -0.383027 -0.205548 0.784164 0.091762 1 45 1.000000
shell_338mag
  45 -7.583149 -18.480707 -4.982121 -0.400798 -0.383027 -0.832257 0.853435 0.091762 1 45 1.000000
  45 -7.583149 -18.762812 -4.982121 -0.433886 0.000000 -0.900968 0.853435 0.254701 1 45 1.000000
  45 -7.666481 -18.762812 -4.877626 -0.974928 0.000000 -0.222518 0.784164 0.254701 1 45 1.000000
shell_338mag
  45 -7.449495 -18.480707 -4.982121 0.400795 -0.383027 -0.832258 0.910146 0.091762 1 45 1.000000
  45 -7.583149 -18.762812 -4.982121 -0.433886 0.000000 -0.900968 0.853435 0.254701 1 45 1.000000
  45 -7.583149 -18.480707 -4.982121 -0.400798 -0.383027 -0.832257 0.853435 0.091762 1 45 1.000000
shell_338mag
  45 -7.449495 -18.480707 -4.982121 0.400795 -0.383027 -0.832258 0.910146 0.091762 1 45 1.000000
  45 -7.449495 -18.762812 -4.982121 0.433886 0.000000 -0.900968 0.910146 0.254701 1 45 1.000000
  45 -7.583149 -18.762812 -4.982121 -0.433886 0.000000 -0.900968 0.853435 0.254701 1 45 1.000000
shell_338mag
  45 -7.366165 -18.480707 -4.877626 0.900578 -0.383024 -0.205550 0.982166 0.091762 1 45 1.000000
  45 -7.449495 -18.762812 -4.982121 0.433886 0.000000 -0.900968 0.910146 0.254701 1 45 1.000000
  45 -7.449495 -18.480707 -4.982121 0.400795 -0.383027 -0.832258 0.910146 0.091762 1 45 1.000000
shell_338mag
  45 -7.366165 -18.480707 -4.877626 0.900578 -0.383024 -0.205550 0.982166 0.091762 1 45 1.000000
  45 -7.366165 -18.762812 -4.877626 0.974928 0.000000 -0.222519 0.982166 0.254701 1 45 1.000000
  45 -7.449495 -18.762812 -4.982121 0.433886 0.000000 -0.900968 0.910146 0.254701 1 45 1.000000
shell_338mag
  45 -7.370676 -16.486330 -5.025990 0.623491 0.000000 -0.781830 0.983925 0.863066 1 45 1.000000
  45 -7.305855 -16.486330 -4.944709 0.900970 0.000000 -0.433881 0.983925 0.914606 1 45 1.000000
  45 -7.305855 -18.359541 -4.944709 0.861432 -0.297407 -0.411684 0.092156 0.917395 1 45 1.000000
shell_338mag
  45 -7.305855 -16.486330 -4.944709 0.900970 0.000000 -0.433881 0.983925 0.914606 1 45 1.000000
  45 -7.282722 -16.486330 -4.843355 1.000000 0.000000 0.000000 0.983925 0.974046 1 45 1.000000
  45 -7.282722 -18.359541 -4.843355 0.954741 -0.297423 -0.002879 0.092156 0.971419 1 45 1.000000
shell_338mag
  45 -7.305855 -16.486330 -4.944709 0.900970 0.000000 -0.433881 0.983925 0.914606 1 45 1.000000
  45 -7.282722 -18.359541 -4.843355 0.954741 -0.297423 -0.002879 0.092156 0.971419 1 45 1.000000
  45 -7.305855 -18.359541 -4.944709 0.861432 -0.297407 -0.411684 0.092156 0.917395 1 45 1.000000
shell_338mag
  45 -7.282722 -18.359541 -4.843355 0.954741 -0.297423 -0.002879 0.092156 0.971419 1 45 1.000000
  45 -7.366165 -18.480707 -4.877626 0.900578 -0.383024 -0.205550 0.012255 0.944487 1 45 1.000000
  45 -7.305855 -18.359541 -4.944709 0.861432 -0.297407 -0.411684 0.092156 0.917395 1 45 1.000000
shell_338mag
  45 -7.305855 -18.359541 -4.944709 0.861432 -0.297407 -0.411684 0.092156 0.917395 1 45 1.000000
  45 -7.366165 -18.480707 -4.877626 0.900578 -0.383024 -0.205550 0.012255 0.944487 1 45 1.000000
  45 -7.449495 -18.480707 -4.982121 0.400795 -0.383027 -0.832258 0.012255 0.847271 1 45 1.000000
shell_338mag
  45 -7.305855 -18.359541 -4.944709 0.861432 -0.297407 -0.411684 0.092156 0.917395 1 45 1.000000
  45 -7.449495 -18.480707 -4.982121 0.400795 -0.383027 -0.832258 0.012255 0.847271 1 45 1.000000
  45 -7.370676 -18.359541 -5.025990 0.593020 -0.297428 -0.748240 0.092156 0.867320 1 45 1.000000
shell_338mag
  45 -7.370676 -16.486330 -5.025990 0.623491 0.000000 -0.781830 0.983925 0.863066 1 45 1.000000
  45 -7.305855 -18.359541 -4.944709 0.861432 -0.297407 -0.411684 0.092156 0.917395 1 45 1.000000
  45 -7.370676 -18.359541 -5.025990 0.593020 -0.297428 -0.748240 0.092156 0.867320 1 45 1.000000
shell_338mag
  45 -7.464341 -16.486330 -5.071098 0.222524 0.000000 -0.974927 0.983925 0.819744 1 45 1.000000
  45 -7.370676 -16.486330 -5.025990 0.623491 0.000000 -0.781830 0.983925 0.863066 1 45 1.000000
  45 -7.370676 -18.359541 -5.025990 0.593020 -0.297428 -0.748240 0.092156 0.867320 1 45 1.000000
shell_338mag
  45 -7.464341 -16.486330 -5.071098 0.222524 0.000000 -0.974927 0.983925 0.819744 1 45 1.000000
  45 -7.370676 -18.359541 -5.025990 0.593020 -0.297428 -0.748240 0.092156 0.867320 1 45 1.000000
  45 -7.464341 -18.359541 -5.071098 0.215278 -0.297441 -0.930153 0.092156 0.821356 1 45 1.000000
shell_338mag
  45 -7.568305 -16.486330 -5.071098 -0.222526 0.000000 -0.974927 0.983925 0.779841 1 45 1.000000
  45 -7.464341 -16.486330 -5.071098 0.222524 0.000000 -0.974927 0.983925 0.819744 1 45 1.000000
  45 -7.464341 -18.359541 -5.071098 0.215278 -0.297441 -0.930153 0.092156 0.821356 1 45 1.000000
shell_338mag
  45 -7.568305 -16.486330 -5.071098 -0.222526 0.000000 -0.974927 0.983925 0.779841 1 45 1.000000
  45 -7.464341 -18.359541 -5.071098 0.215278 -0.297441 -0.930153 0.092156 0.821356 1 45 1.000000
  45 -7.568305 -18.359541 -5.071098 -0.215213 -0.297399 -0.930181 0.092156 0.777100 1 45 1.000000
shell_338mag
  45 -7.661971 -16.486330 -5.025990 -0.623491 0.000000 -0.781831 0.983925 0.737809 1 45 1.000000
  45 -7.568305 -16.486330 -5.071098 -0.222526 0.000000 -0.974927 0.983925 0.779841 1 45 1.000000
  45 -7.568305 -18.359541 -5.071098 -0.215213 -0.297399 -0.930181 0.092156 0.777100 1 45 1.000000
shell_338mag
  45 -7.661971 -16.486330 -5.025990 -0.623491 0.000000 -0.781831 0.983925 0.737809 1 45 1.000000
  45 -7.568305 -18.359541 -5.071098 -0.215213 -0.297399 -0.930181 0.092156 0.777100 1 45 1.000000
  45 -7.661971 -18.359541 -5.025990 -0.593003 -0.297439 -0.748249 0.092156 0.731780 1 45 1.000000
shell_338mag
  45 -7.726790 -16.486330 -4.944709 -0.900969 0.000000 -0.433883 0.983925 0.688471 1 45 1.000000
  45 -7.661971 -16.486330 -5.025990 -0.623491 0.000000 -0.781831 0.983925 0.737809 1 45 1.000000
  45 -7.661971 -18.359541 -5.025990 -0.593003 -0.297439 -0.748249 0.092156 0.731780 1 45 1.000000
shell_338mag
  45 -7.726790 -16.486330 -4.944709 -0.900969 0.000000 -0.433883 0.983925 0.688471 1 45 1.000000
  45 -7.661971 -18.359541 -5.025990 -0.593003 -0.297439 -0.748249 0.092156 0.731780 1 45 1.000000
  45 -7.726790 -18.359541 -4.944709 -0.861440 -0.297428 -0.411652 0.092156 0.682807 1 45 1.000000
shell_338mag
  45 -7.749924 -16.486330 -4.843355 -1.000000 0.000000 -0.000001 0.983925 0.630329 1 45 1.000000
  45 -7.726790 -16.486330 -4.944709 -0.900969 0.000000 -0.433883 0.983925 0.688471 1 45 1.000000
  45 -7.726790 -18.359541 -4.944709 -0.861440 -0.297428 -0.411652 0.092156 0.682807 1 45 1.000000
shell_338mag
  45 -7.749924 -16.486330 -4.843355 -1.000000 0.000000 -0.000001 0.983925 0.630329 1 45 1.000000
  45 -7.726790 -18.359541 -4.944709 -0.861440 -0.297428 -0.411652 0.092156 0.682807 1 45 1.000000
  45 -7.749924 -18.359541 -4.843355 -0.954745 -0.297412 -0.002849 0.092156 0.629432 1 45 1.000000
shell_338mag
  45 -7.726790 -16.486330 -4.741999 -0.900969 0.000000 0.433883 0.983925 0.570889 1 45 1.000000
  45 -7.749924 -16.486330 -4.843355 -1.000000 0.000000 -0.000001 0.983925 0.630329 1 45 1.000000
  45 -7.749924 -18.359541 -4.843355 -0.954745 -0.297412 -0.002849 0.092156 0.629432 1 45 1.000000
shell_338mag
  45 -7.726790 -16.486330 -4.741999 -0.900969 0.000000 0.433883 0.983925 0.570889 1 45 1.000000
  45 -7.749924 -18.359541 -4.843355 -0.954745 -0.297412 -0.002849 0.092156 0.629432 1 45 1.000000
  45 -7.726790 -18.359541 -4.741999 -0.858943 -0.297428 0.416838 0.092156 0.575408 1 45 1.000000
shell_338mag
  45 -7.661971 -18.359541 -4.660717 -0.597500 -0.297409 0.744675 0.092156 0.525334 1 45 1.000000
  45 -7.516323 -18.480707 -4.689333 0.000001 -0.383024 0.923738 0.012255 0.458406 1 45 1.000000
  45 -7.568305 -18.359541 -4.615611 -0.209644 -0.297429 0.931442 0.092156 0.479369 1 45 1.000000
shell_338mag
  45 -7.661971 -18.359541 -4.660717 -0.597500 -0.297409 0.744675 0.092156 0.525334 1 45 1.000000
  45 -7.636741 -18.480707 -4.747324 -0.722205 -0.383026 0.575943 0.012255 0.555622 1 45 1.000000
  45 -7.516323 -18.480707 -4.689333 0.000001 -0.383024 0.923738 0.012255 0.458406 1 45 1.000000
shell_338mag
  45 -7.726790 -18.359541 -4.741999 -0.858943 -0.297428 0.416838 0.092156 0.575408 1 45 1.000000
  45 -7.636741 -18.480707 -4.747324 -0.722205 -0.383026 0.575943 0.012255 0.555622 1 45 1.000000
  45 -7.661971 -18.359541 -4.660717 -0.597500 -0.297409 0.744675 0.092156 0.525334 1 45 1.000000
shell_338mag
  45 -7.749924 -18.359541 -4.843355 -0.954745 -0.297412 -0.002849 0.092156 0.629432 1 45 1.000000
  45 -7.636741 -18.480707 -4.747324 -0.722205 -0.383026 0.575943 0.012255 0.555622 1 45 1.000000
  45 -7.726790 -18.359541 -4.741999 -0.858943 -0.297428 0.416838 0.092156 0.575408 1 45 1.000000
shell_338mag
  45 -7.749924 -18.359541 -4.843355 -0.954745 -0.297412 -0.002849 0.092156 0.629432 1 45 1.000000
  45 -7.666481 -18.480707 -4.877626 -0.900578 -0.383027 -0.205548 0.012255 0.652838 1 45 1.000000
  45 -7.636741 -18.480707 -4.747324 -0.722205 -0.383026 0.575943 0.012255 0.555622 1 45 1.000000
shell_338mag
  45 -7.726790 -18.359541 -4.944709 -0.861440 -0.297428 -0.411652 0.092156 0.682807 1 45 1.000000
  45 -7.666481 -18.480707 -4.877626 -0.900578 -0.383027 -0.205548 0.012255 0.652838 1 45 1.000000
  45 -7.749924 -18.359541 -4.843355 -0.954745 -0.297412 -0.002849 0.092156 0.629432 1 45 1.000000
shell_338mag
  45 -7.661971 -18.359541 -5.025990 -0.593003 -0.297439 -0.748249 0.092156 0.731780 1 45 1.000000
  45 -7.666481 -18.480707 -4.877626 -0.900578 -0.383027 -0.205548 0.012255 0.652838 1 45 1.000000
  45 -7.726790 -18.359541 -4.944709 -0.861440 -0.297428 -0.411652 0.092156 0.682807 1 45 1.000000
shell_338mag
  45 -7.661971 -18.359541 -5.025990 -0.593003 -0.297439 -0.748249 0.092156 0.731780 1 45 1.000000
  45 -7.583149 -18.480707 -4.982121 -0.400798 -0.383027 -0.832257 0.012255 0.750055 1 45 1.000000
  45 -7.666481 -18.480707 -4.877626 -0.900578 -0.383027 -0.205548 0.012255 0.652838 1 45 1.000000
shell_338mag
  45 -7.568305 -18.359541 -5.071098 -0.215213 -0.297399 -0.930181 0.092156 0.777100 1 45 1.000000
  45 -7.583149 -18.480707 -4.982121 -0.400798 -0.383027 -0.832257 0.012255 0.750055 1 45 1.000000
  45 -7.661971 -18.359541 -5.025990 -0.593003 -0.297439 -0.748249 0.092156 0.731780 1 45 1.000000
shell_338mag
  45 -7.464341 -18.359541 -5.071098 0.215278 -0.297441 -0.930153 0.092156 0.821356 1 45 1.000000
  45 -7.583149 -18.480707 -4.982121 -0.400798 -0.383027 -0.832257 0.012255 0.750055 1 45 1.000000
  45 -7.568305 -18.359541 -5.071098 -0.215213 -0.297399 -0.930181 0.092156 0.777100 1 45 1.000000
shell_338mag
  45 -7.464341 -18.359541 -5.071098 0.215278 -0.297441 -0.930153 0.092156 0.821356 1 45 1.000000
  45 -7.449495 -18.480707 -4.982121 0.400795 -0.383027 -0.832258 0.012255 0.847271 1 45 1.000000
  45 -7.583149 -18.480707 -4.982121 -0.400798 -0.383027 -0.832257 0.012255 0.750055 1 45 1.000000
shell_338mag
  45 -7.370676 -18.359541 -5.025990 0.593020 -0.297428 -0.748240 0.092156 0.867320 1 45 1.000000
  45 -7.449495 -18.480707 -4.982121 0.400795 -0.383027 -0.832258 0.012255 0.847271 1 45 1.000000
  45 -7.464341 -18.359541 -5.071098 0.215278 -0.297441 -0.930153 0.092156 0.821356 1 45 1.000000
shell_338mag
  45 -7.661971 -16.486330 -4.660717 -0.623487 0.000000 0.781834 0.983925 0.519349 1 45 1.000000
  45 -7.726790 -16.486330 -4.741999 -0.900969 0.000000 0.433883 0.983925 0.570889 1 45 1.000000
  45 -7.726790 -18.359541 -4.741999 -0.858943 -0.297428 0.416838 0.092156 0.575408 1 45 1.000000
shell_338mag
  45 -7.661971 -16.486330 -4.660717 -0.623487 0.000000 0.781834 0.983925 0.519349 1 45 1.000000
  45 -7.726790 -18.359541 -4.741999 -0.858943 -0.297428 0.416838 0.092156 0.575408 1 45 1.000000
  45 -7.661971 -18.359541 -4.660717 -0.597500 -0.297409 0.744675 0.092156 0.525334 1 45 1.000000
shell_338mag
  45 -7.568305 -16.486330 -4.615611 -0.222521 0.000000 0.974928 0.983925 0.476027 1 45 1.000000
  45 -7.661971 -16.486330 -4.660717 -0.623487 0.000000 0.781834 0.983925 0.519349 1 45 1.000000
  45 -7.661971 -18.359541 -4.660717 -0.597500 -0.297409 0.744675 0.092156 0.525334 1 45 1.000000
shell_338mag
  45 -7.568305 -16.486330 -4.615611 -0.222521 0.000000 0.974928 0.983925 0.476027 1 45 1.000000
  45 -7.661971 -18.359541 -4.660717 -0.597500 -0.297409 0.744675 0.092156 0.525334 1 45 1.000000
  45 -7.568305 -18.359541 -4.615611 -0.209644 -0.297429 0.931442 0.092156 0.479369 1 45 1.000000
shell_338mag
  45 -7.464341 -16.486330 -4.615611 0.222524 0.000000 0.974927 0.983925 0.436124 1 45 1.000000
  45 -7.568305 -16.486330 -4.615611 -0.222521 0.000000 0.974928 0.983925 0.476027 1 45 1.000000
  45 -7.568305 -18.359541 -4.615611 -0.209644 -0.297429 0.931442 0.092156 0.479369 1 45 1.000000
shell_338mag
  45 -7.464341 -16.486330 -4.615611 0.222524 0.000000 0.974927 0.983925 0.436124 1 45 1.000000
  45 -7.568305 -18.359541 -4.615611 -0.209644 -0.297429 0.931442 0.092156 0.479369 1 45 1.000000
  45 -7.464341 -18.359541 -4.615611 0.209675 -0.297408 0.931442 0.092156 0.435113 1 45 1.000000
shell_338mag
  45 -7.370676 -16.486330 -4.660717 0.623491 0.000000 0.781830 0.983925 0.394093 1 45 1.000000
  45 -7.464341 -16.486330 -4.615611 0.222524 0.000000 0.974927 0.983925 0.436124 1 45 1.000000
  45 -7.464341 -18.359541 -4.615611 0.209675 -0.297408 0.931442 0.092156 0.435113 1 45 1.000000
shell_338mag
  45 -7.370676 -16.486330 -4.660717 0.623491 0.000000 0.781830 0.983925 0.394093 1 45 1.000000
  45 -7.464341 -18.359541 -4.615611 0.209675 -0.297408 0.931442 0.092156 0.435113 1 45 1.000000
  45 -7.370676 -18.359541 -4.660717 0.597521 -0.297427 0.744651 0.092156 0.389793 1 45 1.000000
shell_338mag
  45 -7.305855 -16.486330 -4.741999 0.900970 0.000000 0.433881 0.983925 0.344754 1 45 1.000000
  45 -7.370676 -16.486330 -4.660717 0.623491 0.000000 0.781830 0.983925 0.394093 1 45 1.000000
  45 -7.370676 -18.359541 -4.660717 0.597521 -0.297427 0.744651 0.092156 0.389793 1 45 1.000000
shell_338mag
  45 -7.305855 -16.486330 -4.741999 0.900970 0.000000 0.433881 0.983925 0.344754 1 45 1.000000
  45 -7.370676 -18.359541 -4.660717 0.597521 -0.297427 0.744651 0.092156 0.389793 1 45 1.000000
  45 -7.305855 -18.359541 -4.741999 0.858960 -0.297408 0.416817 0.092156 0.340820 1 45 1.000000
shell_338mag
  45 -7.282722 -16.486330 -4.843355 1.000000 0.000000 0.000000 0.983925 0.286613 1 45 1.000000
  45 -7.305855 -16.486330 -4.741999 0.900970 0.000000 0.433881 0.983925 0.344754 1 45 1.000000
  45 -7.305855 -18.359541 -4.741999 0.858960 -0.297408 0.416817 0.092156 0.340820 1 45 1.000000
shell_338mag
  45 -7.282722 -16.486330 -4.843355 1.000000 0.000000 0.000000 0.983925 0.286613 1 45 1.000000
  45 -7.305855 -18.359541 -4.741999 0.858960 -0.297408 0.416817 0.092156 0.340820 1 45 1.000000
  45 -7.282722 -18.359541 -4.843355 0.954741 -0.297423 -0.002879 0.092156 0.287445 1 45 1.000000
shell_338mag
  45 -7.305855 -18.359541 -4.741999 0.858960 -0.297408 0.416817 0.092156 0.340820 1 45 1.000000
  45 -7.366165 -18.480707 -4.877626 0.900578 -0.383024 -0.205550 0.012255 0.263974 1 45 1.000000
  45 -7.282722 -18.359541 -4.843355 0.954741 -0.297423 -0.002879 0.092156 0.287445 1 45 1.000000
shell_338mag
  45 -7.305855 -18.359541 -4.741999 0.858960 -0.297408 0.416817 0.092156 0.340820 1 45 1.000000
  45 -7.395905 -18.480707 -4.747324 0.722208 -0.383026 0.575940 0.012255 0.361190 1 45 1.000000
  45 -7.366165 -18.480707 -4.877626 0.900578 -0.383024 -0.205550 0.012255 0.263974 1 45 1.000000
shell_338mag
  45 -7.370676 -18.359541 -4.660717 0.597521 -0.297427 0.744651 0.092156 0.389793 1 45 1.000000
  45 -7.395905 -18.480707 -4.747324 0.722208 -0.383026 0.575940 0.012255 0.361190 1 45 1.000000
  45 -7.305855 -18.359541 -4.741999 0.858960 -0.297408 0.416817 0.092156 0.340820 1 45 1.000000
shell_338mag
  45 -7.464341 -18.359541 -4.615611 0.209675 -0.297408 0.931442 0.092156 0.435113 1 45 1.000000
  45 -7.395905 -18.480707 -4.747324 0.722208 -0.383026 0.575940 0.012255 0.361190 1 45 1.000000
  45 -7.370676 -18.359541 -4.660717 0.597521 -0.297427 0.744651 0.092156 0.389793 1 45 1.000000
shell_338mag
  45 -7.464341 -18.359541 -4.615611 0.209675 -0.297408 0.931442 0.092156 0.435113 1 45 1.000000
  45 -7.516323 -18.480707 -4.689333 0.000001 -0.383024 0.923738 0.012255 0.458406 1 45 1.000000
  45 -7.395905 -18.480707 -4.747324 0.722208 -0.383026 0.575940 0.012255 0.361190 1 45 1.000000
shell_338mag
  45 -7.568305 -18.359541 -4.615611 -0.209644 -0.297429 0.931442 0.092156 0.479369 1 45 1.000000
  45 -7.516323 -18.480707 -4.689333 0.000001 -0.383024 0.923738 0.012255 0.458406 1 45 1.000000
  45 -7.464341 -18.359541 -4.615611 0.209675 -0.297408 0.931442 0.092156 0.435113 1 45 1.000000
end
